<?xml version="1.0" encoding="utf-8"?>
<svg xmlns="http://www.w3.org/2000/svg" xmlns:xlink="http://www.w3.org/1999/xlink" width="600" height="400" viewBox="0 0 2400 1600">
<defs>
  <clipPath id="clip000">
    <rect x="0" y="0" width="2400" height="1600"/>
  </clipPath>
</defs>
<path clip-path="url(#clip000)" d="
M0 1600 L2400 1600 L2400 0 L0 0  Z
  " fill="#ffffff" fill-rule="evenodd" fill-opacity="1"/>
<defs>
  <clipPath id="clip001">
    <rect x="480" y="0" width="1681" height="1600"/>
  </clipPath>
</defs>
<path clip-path="url(#clip000)" d="
M234.82 1410.9 L2352.76 1410.9 L2352.76 47.2441 L234.82 47.2441  Z
  " fill="#ffffff" fill-rule="evenodd" fill-opacity="1"/>
<defs>
  <clipPath id="clip002">
    <rect x="234" y="47" width="2119" height="1365"/>
  </clipPath>
</defs>
<polyline clip-path="url(#clip002)" style="stroke:#000000; stroke-width:2; stroke-opacity:0.1; fill:none" points="
  294.761,1410.9 294.761,47.2441 
  "/>
<polyline clip-path="url(#clip002)" style="stroke:#000000; stroke-width:2; stroke-opacity:0.1; fill:none" points="
  958.5,1410.9 958.5,47.2441 
  "/>
<polyline clip-path="url(#clip002)" style="stroke:#000000; stroke-width:2; stroke-opacity:0.1; fill:none" points="
  1622.24,1410.9 1622.24,47.2441 
  "/>
<polyline clip-path="url(#clip002)" style="stroke:#000000; stroke-width:2; stroke-opacity:0.1; fill:none" points="
  2285.98,1410.9 2285.98,47.2441 
  "/>
<polyline clip-path="url(#clip000)" style="stroke:#000000; stroke-width:4; stroke-opacity:1; fill:none" points="
  234.82,1410.9 2352.76,1410.9 
  "/>
<polyline clip-path="url(#clip000)" style="stroke:#000000; stroke-width:4; stroke-opacity:1; fill:none" points="
  294.761,1410.9 294.761,1394.53 
  "/>
<polyline clip-path="url(#clip000)" style="stroke:#000000; stroke-width:4; stroke-opacity:1; fill:none" points="
  958.5,1410.9 958.5,1394.53 
  "/>
<polyline clip-path="url(#clip000)" style="stroke:#000000; stroke-width:4; stroke-opacity:1; fill:none" points="
  1622.24,1410.9 1622.24,1394.53 
  "/>
<polyline clip-path="url(#clip000)" style="stroke:#000000; stroke-width:4; stroke-opacity:1; fill:none" points="
  2285.98,1410.9 2285.98,1394.53 
  "/>
<path clip-path="url(#clip000)" d="M 0 0 M246.914 1489.17 L254.553 1489.17 L254.553 1462.8 L246.242 1464.47 L246.242 1460.21 L254.506 1458.54 L259.182 1458.54 L259.182 1489.17 L266.821 1489.17 L266.821 1493.1 L246.914 1493.1 L246.914 1489.17 Z" fill="#000000" fill-rule="evenodd" fill-opacity="1" /><path clip-path="url(#clip000)" d="M 0 0 M281.89 1461.62 Q278.279 1461.62 276.451 1465.19 Q274.645 1468.73 274.645 1475.86 Q274.645 1482.97 276.451 1486.53 Q278.279 1490.07 281.89 1490.07 Q285.525 1490.07 287.33 1486.53 Q289.159 1482.97 289.159 1475.86 Q289.159 1468.73 287.33 1465.19 Q285.525 1461.62 281.89 1461.62 M281.89 1457.92 Q287.701 1457.92 290.756 1462.53 Q293.835 1467.11 293.835 1475.86 Q293.835 1484.59 290.756 1489.19 Q287.701 1493.78 281.89 1493.78 Q276.08 1493.78 273.002 1489.19 Q269.946 1484.59 269.946 1475.86 Q269.946 1467.11 273.002 1462.53 Q276.08 1457.92 281.89 1457.92 Z" fill="#000000" fill-rule="evenodd" fill-opacity="1" /><path clip-path="url(#clip000)" d="M 0 0 M303.54 1440.11 Q300.606 1440.11 299.12 1443.01 Q297.653 1445.89 297.653 1451.68 Q297.653 1457.46 299.12 1460.35 Q300.606 1463.23 303.54 1463.23 Q306.492 1463.23 307.959 1460.35 Q309.445 1457.46 309.445 1451.68 Q309.445 1445.89 307.959 1443.01 Q306.492 1440.11 303.54 1440.11 M303.54 1437.11 Q308.26 1437.11 310.743 1440.85 Q313.244 1444.57 313.244 1451.68 Q313.244 1458.77 310.743 1462.51 Q308.26 1466.24 303.54 1466.24 Q298.819 1466.24 296.317 1462.51 Q293.835 1458.77 293.835 1451.68 Q293.835 1444.57 296.317 1440.85 Q298.819 1437.11 303.54 1437.11 Z" fill="#000000" fill-rule="evenodd" fill-opacity="1" /><path clip-path="url(#clip000)" d="M 0 0 M317.363 1460.92 L321.332 1460.92 L321.332 1465.69 L317.363 1465.69 L317.363 1460.92 Z" fill="#000000" fill-rule="evenodd" fill-opacity="1" /><path clip-path="url(#clip000)" d="M 0 0 M333.576 1440.11 Q330.642 1440.11 329.156 1443.01 Q327.689 1445.89 327.689 1451.68 Q327.689 1457.46 329.156 1460.35 Q330.642 1463.23 333.576 1463.23 Q336.528 1463.23 337.995 1460.35 Q339.481 1457.46 339.481 1451.68 Q339.481 1445.89 337.995 1443.01 Q336.528 1440.11 333.576 1440.11 M333.576 1437.11 Q338.296 1437.11 340.779 1440.85 Q343.28 1444.57 343.28 1451.68 Q343.28 1458.77 340.779 1462.51 Q338.296 1466.24 333.576 1466.24 Q328.855 1466.24 326.353 1462.51 Q323.871 1458.77 323.871 1451.68 Q323.871 1444.57 326.353 1440.85 Q328.855 1437.11 333.576 1437.11 Z" fill="#000000" fill-rule="evenodd" fill-opacity="1" /><path clip-path="url(#clip000)" d="M 0 0 M911.151 1489.17 L918.79 1489.17 L918.79 1462.8 L910.48 1464.47 L910.48 1460.21 L918.744 1458.54 L923.419 1458.54 L923.419 1489.17 L931.058 1489.17 L931.058 1493.1 L911.151 1493.1 L911.151 1489.17 Z" fill="#000000" fill-rule="evenodd" fill-opacity="1" /><path clip-path="url(#clip000)" d="M 0 0 M946.128 1461.62 Q942.517 1461.62 940.688 1465.19 Q938.882 1468.73 938.882 1475.86 Q938.882 1482.97 940.688 1486.53 Q942.517 1490.07 946.128 1490.07 Q949.762 1490.07 951.567 1486.53 Q953.396 1482.97 953.396 1475.86 Q953.396 1468.73 951.567 1465.19 Q949.762 1461.62 946.128 1461.62 M946.128 1457.92 Q951.938 1457.92 954.993 1462.53 Q958.072 1467.11 958.072 1475.86 Q958.072 1484.59 954.993 1489.19 Q951.938 1493.78 946.128 1493.78 Q940.317 1493.78 937.239 1489.19 Q934.183 1484.59 934.183 1475.86 Q934.183 1467.11 937.239 1462.53 Q940.317 1457.92 946.128 1457.92 Z" fill="#000000" fill-rule="evenodd" fill-opacity="1" /><path clip-path="url(#clip000)" d="M 0 0 M967.777 1440.11 Q964.843 1440.11 963.357 1443.01 Q961.89 1445.89 961.89 1451.68 Q961.89 1457.46 963.357 1460.35 Q964.843 1463.23 967.777 1463.23 Q970.73 1463.23 972.197 1460.35 Q973.682 1457.46 973.682 1451.68 Q973.682 1445.89 972.197 1443.01 Q970.73 1440.11 967.777 1440.11 M967.777 1437.11 Q972.498 1437.11 974.98 1440.85 Q977.482 1444.57 977.482 1451.68 Q977.482 1458.77 974.98 1462.51 Q972.498 1466.24 967.777 1466.24 Q963.056 1466.24 960.555 1462.51 Q958.072 1458.77 958.072 1451.68 Q958.072 1444.57 960.555 1440.85 Q963.056 1437.11 967.777 1437.11 Z" fill="#000000" fill-rule="evenodd" fill-opacity="1" /><path clip-path="url(#clip000)" d="M 0 0 M981.601 1460.92 L985.569 1460.92 L985.569 1465.69 L981.601 1465.69 L981.601 1460.92 Z" fill="#000000" fill-rule="evenodd" fill-opacity="1" /><path clip-path="url(#clip000)" d="M 0 0 M990.346 1462.5 L996.553 1462.5 L996.553 1441.07 L989.801 1442.43 L989.801 1438.97 L996.515 1437.61 L1000.31 1437.61 L1000.31 1462.5 L1006.52 1462.5 L1006.52 1465.69 L990.346 1465.69 L990.346 1462.5 Z" fill="#000000" fill-rule="evenodd" fill-opacity="1" /><path clip-path="url(#clip000)" d="M 0 0 M1575.04 1489.17 L1582.68 1489.17 L1582.68 1462.8 L1574.37 1464.47 L1574.37 1460.21 L1582.63 1458.54 L1587.31 1458.54 L1587.31 1489.17 L1594.95 1489.17 L1594.95 1493.1 L1575.04 1493.1 L1575.04 1489.17 Z" fill="#000000" fill-rule="evenodd" fill-opacity="1" /><path clip-path="url(#clip000)" d="M 0 0 M1610.02 1461.62 Q1606.41 1461.62 1604.58 1465.19 Q1602.77 1468.73 1602.77 1475.86 Q1602.77 1482.97 1604.58 1486.53 Q1606.41 1490.07 1610.02 1490.07 Q1613.65 1490.07 1615.46 1486.53 Q1617.29 1482.97 1617.29 1475.86 Q1617.29 1468.73 1615.46 1465.19 Q1613.65 1461.62 1610.02 1461.62 M1610.02 1457.92 Q1615.83 1457.92 1618.88 1462.53 Q1621.96 1467.11 1621.96 1475.86 Q1621.96 1484.59 1618.88 1489.19 Q1615.83 1493.78 1610.02 1493.78 Q1604.21 1493.78 1601.13 1489.19 Q1598.07 1484.59 1598.07 1475.86 Q1598.07 1467.11 1601.13 1462.53 Q1604.21 1457.92 1610.02 1457.92 Z" fill="#000000" fill-rule="evenodd" fill-opacity="1" /><path clip-path="url(#clip000)" d="M 0 0 M1631.67 1440.11 Q1628.73 1440.11 1627.25 1443.01 Q1625.78 1445.89 1625.78 1451.68 Q1625.78 1457.46 1627.25 1460.35 Q1628.73 1463.23 1631.67 1463.23 Q1634.62 1463.23 1636.09 1460.35 Q1637.57 1457.46 1637.57 1451.68 Q1637.57 1445.89 1636.09 1443.01 Q1634.62 1440.11 1631.67 1440.11 M1631.67 1437.11 Q1636.39 1437.11 1638.87 1440.85 Q1641.37 1444.57 1641.37 1451.68 Q1641.37 1458.77 1638.87 1462.51 Q1636.39 1466.24 1631.67 1466.24 Q1626.95 1466.24 1624.44 1462.51 Q1621.96 1458.77 1621.96 1451.68 Q1621.96 1444.57 1624.44 1440.85 Q1626.95 1437.11 1631.67 1437.11 Z" fill="#000000" fill-rule="evenodd" fill-opacity="1" /><path clip-path="url(#clip000)" d="M 0 0 M1645.49 1460.92 L1649.46 1460.92 L1649.46 1465.69 L1645.49 1465.69 L1645.49 1460.92 Z" fill="#000000" fill-rule="evenodd" fill-opacity="1" /><path clip-path="url(#clip000)" d="M 0 0 M1656.85 1462.5 L1670.11 1462.5 L1670.11 1465.69 L1652.28 1465.69 L1652.28 1462.5 Q1654.44 1460.26 1658.17 1456.5 Q1661.91 1452.72 1662.87 1451.63 Q1664.69 1449.58 1665.41 1448.16 Q1666.14 1446.74 1666.14 1445.36 Q1666.14 1443.12 1664.56 1441.71 Q1663 1440.3 1660.48 1440.3 Q1658.69 1440.3 1656.7 1440.92 Q1654.72 1441.54 1652.47 1442.8 L1652.47 1438.97 Q1654.76 1438.05 1656.76 1437.58 Q1658.75 1437.11 1660.4 1437.11 Q1664.77 1437.11 1667.36 1439.29 Q1669.96 1441.47 1669.96 1445.12 Q1669.96 1446.85 1669.3 1448.41 Q1668.66 1449.95 1666.95 1452.06 Q1666.48 1452.6 1663.96 1455.22 Q1661.44 1457.81 1656.85 1462.5 Z" fill="#000000" fill-rule="evenodd" fill-opacity="1" /><path clip-path="url(#clip000)" d="M 0 0 M2238.39 1489.17 L2246.03 1489.17 L2246.03 1462.8 L2237.72 1464.47 L2237.72 1460.21 L2245.99 1458.54 L2250.66 1458.54 L2250.66 1489.17 L2258.3 1489.17 L2258.3 1493.1 L2238.39 1493.1 L2238.39 1489.17 Z" fill="#000000" fill-rule="evenodd" fill-opacity="1" /><path clip-path="url(#clip000)" d="M 0 0 M2273.37 1461.62 Q2269.76 1461.62 2267.93 1465.19 Q2266.12 1468.73 2266.12 1475.86 Q2266.12 1482.97 2267.93 1486.53 Q2269.76 1490.07 2273.37 1490.07 Q2277 1490.07 2278.81 1486.53 Q2280.64 1482.97 2280.64 1475.86 Q2280.64 1468.73 2278.81 1465.19 Q2277 1461.62 2273.37 1461.62 M2273.37 1457.92 Q2279.18 1457.92 2282.24 1462.53 Q2285.31 1467.11 2285.31 1475.86 Q2285.31 1484.59 2282.24 1489.19 Q2279.18 1493.78 2273.37 1493.78 Q2267.56 1493.78 2264.48 1489.19 Q2261.43 1484.59 2261.43 1475.86 Q2261.43 1467.11 2264.48 1462.53 Q2267.56 1457.92 2273.37 1457.92 Z" fill="#000000" fill-rule="evenodd" fill-opacity="1" /><path clip-path="url(#clip000)" d="M 0 0 M2295.02 1440.11 Q2292.09 1440.11 2290.6 1443.01 Q2289.13 1445.89 2289.13 1451.68 Q2289.13 1457.46 2290.6 1460.35 Q2292.09 1463.23 2295.02 1463.23 Q2297.97 1463.23 2299.44 1460.35 Q2300.92 1457.46 2300.92 1451.68 Q2300.92 1445.89 2299.44 1443.01 Q2297.97 1440.11 2295.02 1440.11 M2295.02 1437.11 Q2299.74 1437.11 2302.22 1440.85 Q2304.72 1444.57 2304.72 1451.68 Q2304.72 1458.77 2302.22 1462.51 Q2299.74 1466.24 2295.02 1466.24 Q2290.3 1466.24 2287.8 1462.51 Q2285.31 1458.77 2285.31 1451.68 Q2285.31 1444.57 2287.8 1440.85 Q2290.3 1437.11 2295.02 1437.11 Z" fill="#000000" fill-rule="evenodd" fill-opacity="1" /><path clip-path="url(#clip000)" d="M 0 0 M2308.84 1460.92 L2312.81 1460.92 L2312.81 1465.69 L2308.84 1465.69 L2308.84 1460.92 Z" fill="#000000" fill-rule="evenodd" fill-opacity="1" /><path clip-path="url(#clip000)" d="M 0 0 M2328.44 1450.55 Q2331.17 1451.14 2332.69 1452.98 Q2334.23 1454.82 2334.23 1457.53 Q2334.23 1461.69 2331.37 1463.96 Q2328.52 1466.24 2323.25 1466.24 Q2321.48 1466.24 2319.6 1465.88 Q2317.74 1465.54 2315.75 1464.85 L2315.75 1461.18 Q2317.33 1462.1 2319.21 1462.57 Q2321.09 1463.04 2323.14 1463.04 Q2326.71 1463.04 2328.57 1461.63 Q2330.45 1460.22 2330.45 1457.53 Q2330.45 1455.05 2328.7 1453.66 Q2326.97 1452.25 2323.87 1452.25 L2320.6 1452.25 L2320.6 1449.12 L2324.02 1449.12 Q2326.82 1449.12 2328.31 1448.01 Q2329.79 1446.89 2329.79 1444.78 Q2329.79 1442.62 2328.25 1441.47 Q2326.73 1440.3 2323.87 1440.3 Q2322.31 1440.3 2320.52 1440.64 Q2318.74 1440.98 2316.59 1441.69 L2316.59 1438.31 Q2318.75 1437.71 2320.64 1437.41 Q2322.54 1437.11 2324.21 1437.11 Q2328.53 1437.11 2331.05 1439.08 Q2333.58 1441.04 2333.58 1444.38 Q2333.58 1446.72 2332.24 1448.33 Q2330.9 1449.93 2328.44 1450.55 Z" fill="#000000" fill-rule="evenodd" fill-opacity="1" /><path clip-path="url(#clip000)" d="M 0 0 M1298.99 1545.6 L1297.59 1538.25 Q1296.16 1530.71 1290.49 1530.71 Q1286.23 1530.71 1284.29 1534.21 Q1281.84 1538.6 1281.84 1544.39 Q1281.84 1551.4 1284.22 1554.74 Q1286.64 1558.14 1290.49 1558.14 Q1294.76 1558.14 1297.05 1551.36 L1298.99 1545.6 M1302.27 1535.86 L1305.42 1526.54 L1310.64 1526.54 L1304.12 1545.86 L1305.39 1552.83 Q1305.68 1554.39 1306.79 1555.69 Q1308.09 1557.22 1309.11 1557.22 L1311.91 1557.22 L1311.91 1562.19 L1308.41 1562.19 Q1305.42 1562.19 1302.75 1559.51 Q1301.44 1558.18 1300.9 1555.37 Q1299.44 1558.91 1296.45 1561.68 Q1295.05 1562.98 1290.49 1562.98 Q1283.01 1562.98 1279.39 1558.14 Q1275.66 1553.15 1275.66 1544.39 Q1275.66 1535.04 1279.7 1530.64 Q1284.19 1525.74 1290.49 1525.74 Q1300.39 1525.74 1302.27 1535.86 Z" fill="#000000" fill-rule="evenodd" fill-opacity="1" /><polyline clip-path="url(#clip002)" style="stroke:#000000; stroke-width:2; stroke-opacity:0.1; fill:none" points="
  234.82,1098.81 2352.76,1098.81 
  "/>
<polyline clip-path="url(#clip002)" style="stroke:#000000; stroke-width:2; stroke-opacity:0.1; fill:none" points="
  234.82,777.196 2352.76,777.196 
  "/>
<polyline clip-path="url(#clip002)" style="stroke:#000000; stroke-width:2; stroke-opacity:0.1; fill:none" points="
  234.82,455.58 2352.76,455.58 
  "/>
<polyline clip-path="url(#clip002)" style="stroke:#000000; stroke-width:2; stroke-opacity:0.1; fill:none" points="
  234.82,133.964 2352.76,133.964 
  "/>
<polyline clip-path="url(#clip000)" style="stroke:#000000; stroke-width:4; stroke-opacity:1; fill:none" points="
  234.82,1410.9 234.82,47.2441 
  "/>
<polyline clip-path="url(#clip000)" style="stroke:#000000; stroke-width:4; stroke-opacity:1; fill:none" points="
  234.82,1098.81 260.235,1098.81 
  "/>
<polyline clip-path="url(#clip000)" style="stroke:#000000; stroke-width:4; stroke-opacity:1; fill:none" points="
  234.82,777.196 260.235,777.196 
  "/>
<polyline clip-path="url(#clip000)" style="stroke:#000000; stroke-width:4; stroke-opacity:1; fill:none" points="
  234.82,455.58 260.235,455.58 
  "/>
<polyline clip-path="url(#clip000)" style="stroke:#000000; stroke-width:4; stroke-opacity:1; fill:none" points="
  234.82,133.964 260.235,133.964 
  "/>
<path clip-path="url(#clip000)" d="M 0 0 M114.931 1112.16 L122.57 1112.16 L122.57 1085.79 L114.26 1087.46 L114.26 1083.2 L122.524 1081.53 L127.2 1081.53 L127.2 1112.16 L134.839 1112.16 L134.839 1116.09 L114.931 1116.09 L114.931 1112.16 Z" fill="#000000" fill-rule="evenodd" fill-opacity="1" /><path clip-path="url(#clip000)" d="M 0 0 M139.908 1110.21 L144.792 1110.21 L144.792 1116.09 L139.908 1116.09 L139.908 1110.21 Z" fill="#000000" fill-rule="evenodd" fill-opacity="1" /><path clip-path="url(#clip000)" d="M 0 0 M159.862 1084.61 Q156.251 1084.61 154.422 1088.18 Q152.616 1091.72 152.616 1098.85 Q152.616 1105.95 154.422 1109.52 Q156.251 1113.06 159.862 1113.06 Q163.496 1113.06 165.302 1109.52 Q167.13 1105.95 167.13 1098.85 Q167.13 1091.72 165.302 1088.18 Q163.496 1084.61 159.862 1084.61 M159.862 1080.91 Q165.672 1080.91 168.727 1085.51 Q171.806 1090.1 171.806 1098.85 Q171.806 1107.57 168.727 1112.18 Q165.672 1116.76 159.862 1116.76 Q154.052 1116.76 150.973 1112.18 Q147.917 1107.57 147.917 1098.85 Q147.917 1090.1 150.973 1085.51 Q154.052 1080.91 159.862 1080.91 Z" fill="#000000" fill-rule="evenodd" fill-opacity="1" /><path clip-path="url(#clip000)" d="M 0 0 M186.876 1084.61 Q183.264 1084.61 181.436 1088.18 Q179.63 1091.72 179.63 1098.85 Q179.63 1105.95 181.436 1109.52 Q183.264 1113.06 186.876 1113.06 Q190.51 1113.06 192.315 1109.52 Q194.144 1105.95 194.144 1098.85 Q194.144 1091.72 192.315 1088.18 Q190.51 1084.61 186.876 1084.61 M186.876 1080.91 Q192.686 1080.91 195.741 1085.51 Q198.82 1090.1 198.82 1098.85 Q198.82 1107.57 195.741 1112.18 Q192.686 1116.76 186.876 1116.76 Q181.065 1116.76 177.987 1112.18 Q174.931 1107.57 174.931 1098.85 Q174.931 1090.1 177.987 1085.51 Q181.065 1080.91 186.876 1080.91 Z" fill="#000000" fill-rule="evenodd" fill-opacity="1" /><path clip-path="url(#clip000)" d="M 0 0 M117.524 790.541 L125.163 790.541 L125.163 764.175 L116.853 765.842 L116.853 761.583 L125.117 759.916 L129.792 759.916 L129.792 790.541 L137.431 790.541 L137.431 794.476 L117.524 794.476 L117.524 790.541 Z" fill="#000000" fill-rule="evenodd" fill-opacity="1" /><path clip-path="url(#clip000)" d="M 0 0 M142.501 788.596 L147.385 788.596 L147.385 794.476 L142.501 794.476 L142.501 788.596 Z" fill="#000000" fill-rule="evenodd" fill-opacity="1" /><path clip-path="url(#clip000)" d="M 0 0 M156.482 790.541 L172.802 790.541 L172.802 794.476 L150.857 794.476 L150.857 790.541 Q153.519 787.786 158.103 783.157 Q162.709 778.504 163.89 777.161 Q166.135 774.638 167.015 772.902 Q167.917 771.143 167.917 769.453 Q167.917 766.698 165.973 764.962 Q164.052 763.226 160.95 763.226 Q158.751 763.226 156.297 763.99 Q153.866 764.754 151.089 766.305 L151.089 761.583 Q153.913 760.448 156.366 759.87 Q158.82 759.291 160.857 759.291 Q166.227 759.291 169.422 761.976 Q172.616 764.661 172.616 769.152 Q172.616 771.282 171.806 773.203 Q171.019 775.101 168.913 777.694 Q168.334 778.365 165.232 781.582 Q162.13 784.777 156.482 790.541 Z" fill="#000000" fill-rule="evenodd" fill-opacity="1" /><path clip-path="url(#clip000)" d="M 0 0 M177.917 759.916 L196.274 759.916 L196.274 763.851 L182.2 763.851 L182.2 772.323 Q183.218 771.976 184.237 771.814 Q185.255 771.629 186.274 771.629 Q192.061 771.629 195.44 774.8 Q198.82 777.971 198.82 783.388 Q198.82 788.967 195.348 792.068 Q191.875 795.147 185.556 795.147 Q183.38 795.147 181.112 794.777 Q178.866 794.406 176.459 793.666 L176.459 788.967 Q178.542 790.101 180.764 790.656 Q182.987 791.212 185.463 791.212 Q189.468 791.212 191.806 789.106 Q194.144 786.999 194.144 783.388 Q194.144 779.777 191.806 777.67 Q189.468 775.564 185.463 775.564 Q183.588 775.564 181.713 775.981 Q179.862 776.397 177.917 777.277 L177.917 759.916 Z" fill="#000000" fill-rule="evenodd" fill-opacity="1" /><path clip-path="url(#clip000)" d="M 0 0 M115.927 468.925 L123.566 468.925 L123.566 442.559 L115.256 444.226 L115.256 439.966 L123.519 438.3 L128.195 438.3 L128.195 468.925 L135.834 468.925 L135.834 472.86 L115.927 472.86 L115.927 468.925 Z" fill="#000000" fill-rule="evenodd" fill-opacity="1" /><path clip-path="url(#clip000)" d="M 0 0 M140.904 466.98 L145.788 466.98 L145.788 472.86 L140.904 472.86 L140.904 466.98 Z" fill="#000000" fill-rule="evenodd" fill-opacity="1" /><path clip-path="url(#clip000)" d="M 0 0 M150.903 438.3 L169.26 438.3 L169.26 442.235 L155.186 442.235 L155.186 450.707 Q156.204 450.36 157.223 450.198 Q158.241 450.013 159.26 450.013 Q165.047 450.013 168.427 453.184 Q171.806 456.355 171.806 461.772 Q171.806 467.35 168.334 470.452 Q164.862 473.531 158.542 473.531 Q156.366 473.531 154.098 473.161 Q151.853 472.79 149.445 472.05 L149.445 467.35 Q151.528 468.485 153.751 469.04 Q155.973 469.596 158.45 469.596 Q162.454 469.596 164.792 467.489 Q167.13 465.383 167.13 461.772 Q167.13 458.161 164.792 456.054 Q162.454 453.948 158.45 453.948 Q156.575 453.948 154.7 454.364 Q152.848 454.781 150.903 455.661 L150.903 438.3 Z" fill="#000000" fill-rule="evenodd" fill-opacity="1" /><path clip-path="url(#clip000)" d="M 0 0 M186.876 441.378 Q183.264 441.378 181.436 444.943 Q179.63 448.485 179.63 455.614 Q179.63 462.721 181.436 466.286 Q183.264 469.827 186.876 469.827 Q190.51 469.827 192.315 466.286 Q194.144 462.721 194.144 455.614 Q194.144 448.485 192.315 444.943 Q190.51 441.378 186.876 441.378 M186.876 437.675 Q192.686 437.675 195.741 442.281 Q198.82 446.864 198.82 455.614 Q198.82 464.341 195.741 468.948 Q192.686 473.531 186.876 473.531 Q181.065 473.531 177.987 468.948 Q174.931 464.341 174.931 455.614 Q174.931 446.864 177.987 442.281 Q181.065 437.675 186.876 437.675 Z" fill="#000000" fill-rule="evenodd" fill-opacity="1" /><path clip-path="url(#clip000)" d="M 0 0 M116.83 147.308 L124.468 147.308 L124.468 120.943 L116.158 122.609 L116.158 118.35 L124.422 116.684 L129.098 116.684 L129.098 147.308 L136.737 147.308 L136.737 151.244 L116.83 151.244 L116.83 147.308 Z" fill="#000000" fill-rule="evenodd" fill-opacity="1" /><path clip-path="url(#clip000)" d="M 0 0 M141.806 145.364 L146.691 145.364 L146.691 151.244 L141.806 151.244 L141.806 145.364 Z" fill="#000000" fill-rule="evenodd" fill-opacity="1" /><path clip-path="url(#clip000)" d="M 0 0 M150.579 116.684 L172.802 116.684 L172.802 118.674 L160.255 151.244 L155.371 151.244 L167.177 120.619 L150.579 120.619 L150.579 116.684 Z" fill="#000000" fill-rule="evenodd" fill-opacity="1" /><path clip-path="url(#clip000)" d="M 0 0 M177.917 116.684 L196.274 116.684 L196.274 120.619 L182.2 120.619 L182.2 129.091 Q183.218 128.744 184.237 128.582 Q185.255 128.396 186.274 128.396 Q192.061 128.396 195.44 131.568 Q198.82 134.739 198.82 140.156 Q198.82 145.734 195.348 148.836 Q191.875 151.915 185.556 151.915 Q183.38 151.915 181.112 151.544 Q178.866 151.174 176.459 150.433 L176.459 145.734 Q178.542 146.869 180.764 147.424 Q182.987 147.98 185.463 147.98 Q189.468 147.98 191.806 145.873 Q194.144 143.767 194.144 140.156 Q194.144 136.545 191.806 134.438 Q189.468 132.332 185.463 132.332 Q183.588 132.332 181.713 132.748 Q179.862 133.165 177.917 134.045 L177.917 116.684 Z" fill="#000000" fill-rule="evenodd" fill-opacity="1" /><path clip-path="url(#clip000)" d="M 0 0 M59.1993 815.533 Q55.2526 813.336 53.3747 810.281 Q51.4968 807.225 51.4968 803.088 Q51.4968 797.518 55.4117 794.494 Q59.2948 791.47 66.4881 791.47 L88.0042 791.47 L88.0042 797.358 L66.679 797.358 Q61.5546 797.358 59.072 799.173 Q56.5894 800.987 56.5894 804.711 Q56.5894 809.262 59.6131 811.904 Q62.6368 814.546 67.8567 814.546 L88.0042 814.546 L88.0042 820.434 L66.679 820.434 Q61.5228 820.434 59.072 822.248 Q56.5894 824.063 56.5894 827.85 Q56.5894 832.338 59.6449 834.98 Q62.6686 837.622 67.8567 837.622 L88.0042 837.622 L88.0042 843.51 L52.3562 843.51 L52.3562 837.622 L57.8944 837.622 Q54.616 835.616 53.0564 832.815 Q51.4968 830.015 51.4968 826.163 Q51.4968 822.28 53.4702 819.575 Q55.4436 816.838 59.1993 815.533 Z" fill="#000000" fill-rule="evenodd" fill-opacity="1" /><path clip-path="url(#clip000)" d="M 0 0 M52.3562 785.327 L52.3562 779.471 L88.0042 779.471 L88.0042 785.327 L52.3562 785.327 M38.479 785.327 L38.479 779.471 L45.895 779.471 L45.895 785.327 L38.479 785.327 Z" fill="#000000" fill-rule="evenodd" fill-opacity="1" /><path clip-path="url(#clip000)" d="M 0 0 M66.4881 743.696 L88.0042 743.696 L88.0042 749.552 L66.679 749.552 Q61.6183 749.552 59.1038 751.525 Q56.5894 753.499 56.5894 757.446 Q56.5894 762.188 59.6131 764.925 Q62.6368 767.662 67.8567 767.662 L88.0042 767.662 L88.0042 773.551 L52.3562 773.551 L52.3562 767.662 L57.8944 767.662 Q54.6797 765.562 53.0883 762.729 Q51.4968 759.864 51.4968 756.141 Q51.4968 749.998 55.3163 746.847 Q59.1038 743.696 66.4881 743.696 Z" fill="#000000" fill-rule="evenodd" fill-opacity="1" /><path clip-path="url(#clip000)" d="M 0 0 M98.8259 710.467 L103.377 710.467 L103.377 744.332 L98.8259 744.332 L98.8259 710.467 Z" fill="#000000" fill-rule="evenodd" fill-opacity="1" /><path clip-path="url(#clip000)" d="M 0 0 M57.7671 680.866 L38.479 680.866 L38.479 675.01 L88.0042 675.01 L88.0042 680.866 L82.657 680.866 Q85.8398 682.712 87.3994 685.545 Q88.9272 688.346 88.9272 692.292 Q88.9272 698.754 83.771 702.828 Q78.6147 706.87 70.212 706.87 Q61.8093 706.87 56.6531 702.828 Q51.4968 698.754 51.4968 692.292 Q51.4968 688.346 53.0564 685.545 Q54.5842 682.712 57.7671 680.866 M70.212 700.823 Q76.6732 700.823 80.3653 698.181 Q84.0256 695.507 84.0256 690.86 Q84.0256 686.213 80.3653 683.54 Q76.6732 680.866 70.212 680.866 Q63.7508 680.866 60.0905 683.54 Q56.3984 686.213 56.3984 690.86 Q56.3984 695.507 60.0905 698.181 Q63.7508 700.823 70.212 700.823 Z" fill="#000000" fill-rule="evenodd" fill-opacity="1" /><path clip-path="url(#clip000)" d="M 0 0 M52.3562 668.867 L52.3562 663.01 L88.0042 663.01 L88.0042 668.867 L52.3562 668.867 M38.479 668.867 L38.479 663.01 L45.895 663.01 L45.895 668.867 L38.479 668.867 Z" fill="#000000" fill-rule="evenodd" fill-opacity="1" /><path clip-path="url(#clip000)" d="M 0 0 M38.479 638.821 L43.3487 638.821 L43.3487 644.422 Q43.3487 647.573 44.6219 648.815 Q45.895 650.024 49.2052 650.024 L52.3562 650.024 L52.3562 640.38 L56.9077 640.38 L56.9077 650.024 L88.0042 650.024 L88.0042 655.912 L56.9077 655.912 L56.9077 661.514 L52.3562 661.514 L52.3562 655.912 L49.8736 655.912 Q43.9216 655.912 41.2162 653.143 Q38.479 650.374 38.479 644.359 L38.479 638.821 Z" fill="#000000" fill-rule="evenodd" fill-opacity="1" /><path clip-path="url(#clip000)" d="M 0 0 M38.479 614.631 L43.3487 614.631 L43.3487 620.233 Q43.3487 623.384 44.6219 624.625 Q45.895 625.835 49.2052 625.835 L52.3562 625.835 L52.3562 616.19 L56.9077 616.19 L56.9077 625.835 L88.0042 625.835 L88.0042 631.723 L56.9077 631.723 L56.9077 637.325 L52.3562 637.325 L52.3562 631.723 L49.8736 631.723 Q43.9216 631.723 41.2162 628.954 Q38.479 626.185 38.479 620.169 L38.479 614.631 Z" fill="#000000" fill-rule="evenodd" fill-opacity="1" /><path clip-path="url(#clip000)" d="
M1995.81 213.659 L2282.16 213.659 L2282.16 92.6992 L1995.81 92.6992  Z
  " fill="#ffffff" fill-rule="evenodd" fill-opacity="1"/>
<polyline clip-path="url(#clip000)" style="stroke:#000000; stroke-width:4; stroke-opacity:1; fill:none" points="
  1995.81,213.659 2282.16,213.659 2282.16,92.6992 1995.81,92.6992 1995.81,213.659 
  "/>
<polyline clip-path="url(#clip000)" style="stroke:#009af9; stroke-width:4; stroke-opacity:1; fill:none" stroke-dasharray="16, 10" points="
  2019.35,153.179 2160.54,153.179 
  "/>
<path clip-path="url(#clip000)" d="M 0 0 M2197.92 172.867 Q2196.11 177.496 2194.4 178.908 Q2192.69 180.32 2189.82 180.32 L2186.41 180.32 L2186.41 176.755 L2188.91 176.755 Q2190.67 176.755 2191.64 175.922 Q2192.62 175.089 2193.8 171.987 L2194.56 170.043 L2184.07 144.533 L2188.59 144.533 L2196.69 164.811 L2204.79 144.533 L2209.31 144.533 L2197.92 172.867 Z" fill="#000000" fill-rule="evenodd" fill-opacity="1" /><path clip-path="url(#clip000)" d="M 0 0 M2215.19 166.524 L2222.82 166.524 L2222.82 140.158 L2214.51 141.825 L2214.51 137.566 L2222.78 135.899 L2227.45 135.899 L2227.45 166.524 L2235.09 166.524 L2235.09 170.459 L2215.19 170.459 L2215.19 166.524 Z" fill="#000000" fill-rule="evenodd" fill-opacity="1" /></svg>
