<?xml version="1.0" encoding="utf-8"?>
<svg xmlns="http://www.w3.org/2000/svg" xmlns:xlink="http://www.w3.org/1999/xlink" width="600" height="400" viewBox="0 0 2400 1600">
<defs>
  <clipPath id="clip940">
    <rect x="0" y="0" width="2400" height="1600"/>
  </clipPath>
</defs>
<path clip-path="url(#clip940)" d="
M0 1600 L2400 1600 L2400 0 L0 0  Z
  " fill="#ffffff" fill-rule="evenodd" fill-opacity="1"/>
<defs>
  <clipPath id="clip941">
    <rect x="480" y="0" width="1681" height="1600"/>
  </clipPath>
</defs>
<path clip-path="url(#clip940)" d="
M197.852 1410.9 L2352.76 1410.9 L2352.76 47.2441 L197.852 47.2441  Z
  " fill="#ffffff" fill-rule="evenodd" fill-opacity="1"/>
<defs>
  <clipPath id="clip942">
    <rect x="197" y="47" width="2156" height="1365"/>
  </clipPath>
</defs>
<polyline clip-path="url(#clip942)" style="stroke:#000000; stroke-width:2; stroke-opacity:0.1; fill:none" points="
  258.84,1410.9 258.84,47.2441 
  "/>
<polyline clip-path="url(#clip942)" style="stroke:#000000; stroke-width:2; stroke-opacity:0.1; fill:none" points="
  767.072,1410.9 767.072,47.2441 
  "/>
<polyline clip-path="url(#clip942)" style="stroke:#000000; stroke-width:2; stroke-opacity:0.1; fill:none" points="
  1275.3,1410.9 1275.3,47.2441 
  "/>
<polyline clip-path="url(#clip942)" style="stroke:#000000; stroke-width:2; stroke-opacity:0.1; fill:none" points="
  1783.54,1410.9 1783.54,47.2441 
  "/>
<polyline clip-path="url(#clip942)" style="stroke:#000000; stroke-width:2; stroke-opacity:0.1; fill:none" points="
  2291.77,1410.9 2291.77,47.2441 
  "/>
<polyline clip-path="url(#clip940)" style="stroke:#000000; stroke-width:4; stroke-opacity:1; fill:none" points="
  197.852,1410.9 2352.76,1410.9 
  "/>
<polyline clip-path="url(#clip940)" style="stroke:#000000; stroke-width:4; stroke-opacity:1; fill:none" points="
  258.84,1410.9 258.84,1394.53 
  "/>
<polyline clip-path="url(#clip940)" style="stroke:#000000; stroke-width:4; stroke-opacity:1; fill:none" points="
  767.072,1410.9 767.072,1394.53 
  "/>
<polyline clip-path="url(#clip940)" style="stroke:#000000; stroke-width:4; stroke-opacity:1; fill:none" points="
  1275.3,1410.9 1275.3,1394.53 
  "/>
<polyline clip-path="url(#clip940)" style="stroke:#000000; stroke-width:4; stroke-opacity:1; fill:none" points="
  1783.54,1410.9 1783.54,1394.53 
  "/>
<polyline clip-path="url(#clip940)" style="stroke:#000000; stroke-width:4; stroke-opacity:1; fill:none" points="
  2291.77,1410.9 2291.77,1394.53 
  "/>
<path clip-path="url(#clip940)" d="M 0 0 M197.47 1489.17 L205.109 1489.17 L205.109 1462.8 L196.799 1464.47 L196.799 1460.21 L205.062 1458.54 L209.738 1458.54 L209.738 1489.17 L217.377 1489.17 L217.377 1493.1 L197.47 1493.1 L197.47 1489.17 Z" fill="#000000" fill-rule="evenodd" fill-opacity="1" /><path clip-path="url(#clip940)" d="M 0 0 M232.447 1461.62 Q228.835 1461.62 227.007 1465.19 Q225.201 1468.73 225.201 1475.86 Q225.201 1482.97 227.007 1486.53 Q228.835 1490.07 232.447 1490.07 Q236.081 1490.07 237.886 1486.53 Q239.715 1482.97 239.715 1475.86 Q239.715 1468.73 237.886 1465.19 Q236.081 1461.62 232.447 1461.62 M232.447 1457.92 Q238.257 1457.92 241.312 1462.53 Q244.391 1467.11 244.391 1475.86 Q244.391 1484.59 241.312 1489.19 Q238.257 1493.78 232.447 1493.78 Q226.636 1493.78 223.558 1489.19 Q220.502 1484.59 220.502 1475.86 Q220.502 1467.11 223.558 1462.53 Q226.636 1457.92 232.447 1457.92 Z" fill="#000000" fill-rule="evenodd" fill-opacity="1" /><path clip-path="url(#clip940)" d="M 0 0 M244.391 1452.02 L268.502 1452.02 L268.502 1455.22 L244.391 1455.22 L244.391 1452.02 Z" fill="#000000" fill-rule="evenodd" fill-opacity="1" /><path clip-path="url(#clip940)" d="M 0 0 M283.06 1440.92 L273.468 1455.91 L283.06 1455.91 L283.06 1440.92 M282.063 1437.61 L286.84 1437.61 L286.84 1455.91 L290.846 1455.91 L290.846 1459.07 L286.84 1459.07 L286.84 1465.69 L283.06 1465.69 L283.06 1459.07 L270.383 1459.07 L270.383 1455.41 L282.063 1437.61 Z" fill="#000000" fill-rule="evenodd" fill-opacity="1" /><path clip-path="url(#clip940)" d="M 0 0 M294.965 1460.92 L298.933 1460.92 L298.933 1465.69 L294.965 1465.69 L294.965 1460.92 Z" fill="#000000" fill-rule="evenodd" fill-opacity="1" /><path clip-path="url(#clip940)" d="M 0 0 M311.177 1440.11 Q308.243 1440.11 306.757 1443.01 Q305.29 1445.89 305.29 1451.68 Q305.29 1457.46 306.757 1460.35 Q308.243 1463.23 311.177 1463.23 Q314.13 1463.23 315.597 1460.35 Q317.083 1457.46 317.083 1451.68 Q317.083 1445.89 315.597 1443.01 Q314.13 1440.11 311.177 1440.11 M311.177 1437.11 Q315.898 1437.11 318.381 1440.85 Q320.882 1444.57 320.882 1451.68 Q320.882 1458.77 318.381 1462.51 Q315.898 1466.24 311.177 1466.24 Q306.457 1466.24 303.955 1462.51 Q301.472 1458.77 301.472 1451.68 Q301.472 1444.57 303.955 1440.85 Q306.457 1437.11 311.177 1437.11 Z" fill="#000000" fill-rule="evenodd" fill-opacity="1" /><path clip-path="url(#clip940)" d="M 0 0 M706.567 1489.17 L714.206 1489.17 L714.206 1462.8 L705.896 1464.47 L705.896 1460.21 L714.159 1458.54 L718.835 1458.54 L718.835 1489.17 L726.474 1489.17 L726.474 1493.1 L706.567 1493.1 L706.567 1489.17 Z" fill="#000000" fill-rule="evenodd" fill-opacity="1" /><path clip-path="url(#clip940)" d="M 0 0 M741.544 1461.62 Q737.933 1461.62 736.104 1465.19 Q734.298 1468.73 734.298 1475.86 Q734.298 1482.97 736.104 1486.53 Q737.933 1490.07 741.544 1490.07 Q745.178 1490.07 746.983 1486.53 Q748.812 1482.97 748.812 1475.86 Q748.812 1468.73 746.983 1465.19 Q745.178 1461.62 741.544 1461.62 M741.544 1457.92 Q747.354 1457.92 750.409 1462.53 Q753.488 1467.11 753.488 1475.86 Q753.488 1484.59 750.409 1489.19 Q747.354 1493.78 741.544 1493.78 Q735.733 1493.78 732.655 1489.19 Q729.599 1484.59 729.599 1475.86 Q729.599 1467.11 732.655 1462.53 Q735.733 1457.92 741.544 1457.92 Z" fill="#000000" fill-rule="evenodd" fill-opacity="1" /><path clip-path="url(#clip940)" d="M 0 0 M753.488 1452.02 L777.6 1452.02 L777.6 1455.22 L753.488 1455.22 L753.488 1452.02 Z" fill="#000000" fill-rule="evenodd" fill-opacity="1" /><path clip-path="url(#clip940)" d="M 0 0 M793.229 1450.55 Q795.956 1451.14 797.479 1452.98 Q799.022 1454.82 799.022 1457.53 Q799.022 1461.69 796.163 1463.96 Q793.304 1466.24 788.038 1466.24 Q786.27 1466.24 784.389 1465.88 Q782.527 1465.54 780.534 1464.85 L780.534 1461.18 Q782.113 1462.1 783.994 1462.57 Q785.875 1463.04 787.925 1463.04 Q791.498 1463.04 793.36 1461.63 Q795.241 1460.22 795.241 1457.53 Q795.241 1455.05 793.492 1453.66 Q791.762 1452.25 788.659 1452.25 L785.386 1452.25 L785.386 1449.12 L788.809 1449.12 Q791.611 1449.12 793.097 1448.01 Q794.583 1446.89 794.583 1444.78 Q794.583 1442.62 793.041 1441.47 Q791.517 1440.3 788.659 1440.3 Q787.097 1440.3 785.311 1440.64 Q783.524 1440.98 781.38 1441.69 L781.38 1438.31 Q783.543 1437.71 785.424 1437.41 Q787.323 1437.11 788.997 1437.11 Q793.323 1437.11 795.843 1439.08 Q798.363 1441.04 798.363 1444.38 Q798.363 1446.72 797.028 1448.33 Q795.693 1449.93 793.229 1450.55 Z" fill="#000000" fill-rule="evenodd" fill-opacity="1" /><path clip-path="url(#clip940)" d="M 0 0 M803.141 1460.92 L807.109 1460.92 L807.109 1465.69 L803.141 1465.69 L803.141 1460.92 Z" fill="#000000" fill-rule="evenodd" fill-opacity="1" /><path clip-path="url(#clip940)" d="M 0 0 M811.265 1437.61 L826.18 1437.61 L826.18 1440.81 L814.745 1440.81 L814.745 1447.69 Q815.572 1447.41 816.4 1447.28 Q817.228 1447.13 818.055 1447.13 Q822.757 1447.13 825.503 1449.71 Q828.249 1452.28 828.249 1456.68 Q828.249 1461.22 825.428 1463.74 Q822.607 1466.24 817.472 1466.24 Q815.704 1466.24 813.861 1465.94 Q812.037 1465.64 810.081 1465.04 L810.081 1461.22 Q811.773 1462.14 813.579 1462.59 Q815.384 1463.04 817.397 1463.04 Q820.651 1463.04 822.55 1461.33 Q824.45 1459.62 824.45 1456.68 Q824.45 1453.75 822.55 1452.04 Q820.651 1450.33 817.397 1450.33 Q815.873 1450.33 814.35 1450.67 Q812.845 1451 811.265 1451.72 L811.265 1437.61 Z" fill="#000000" fill-rule="evenodd" fill-opacity="1" /><path clip-path="url(#clip940)" d="M 0 0 M1214.39 1489.17 L1222.03 1489.17 L1222.03 1462.8 L1213.72 1464.47 L1213.72 1460.21 L1221.99 1458.54 L1226.66 1458.54 L1226.66 1489.17 L1234.3 1489.17 L1234.3 1493.1 L1214.39 1493.1 L1214.39 1489.17 Z" fill="#000000" fill-rule="evenodd" fill-opacity="1" /><path clip-path="url(#clip940)" d="M 0 0 M1249.37 1461.62 Q1245.76 1461.62 1243.93 1465.19 Q1242.13 1468.73 1242.13 1475.86 Q1242.13 1482.97 1243.93 1486.53 Q1245.76 1490.07 1249.37 1490.07 Q1253.01 1490.07 1254.81 1486.53 Q1256.64 1482.97 1256.64 1475.86 Q1256.64 1468.73 1254.81 1465.19 Q1253.01 1461.62 1249.37 1461.62 M1249.37 1457.92 Q1255.18 1457.92 1258.24 1462.53 Q1261.32 1467.11 1261.32 1475.86 Q1261.32 1484.59 1258.24 1489.19 Q1255.18 1493.78 1249.37 1493.78 Q1243.56 1493.78 1240.48 1489.19 Q1237.43 1484.59 1237.43 1475.86 Q1237.43 1467.11 1240.48 1462.53 Q1243.56 1457.92 1249.37 1457.92 Z" fill="#000000" fill-rule="evenodd" fill-opacity="1" /><path clip-path="url(#clip940)" d="M 0 0 M1261.32 1452.02 L1285.43 1452.02 L1285.43 1455.22 L1261.32 1455.22 L1261.32 1452.02 Z" fill="#000000" fill-rule="evenodd" fill-opacity="1" /><path clip-path="url(#clip940)" d="M 0 0 M1301.06 1450.55 Q1303.78 1451.14 1305.31 1452.98 Q1306.85 1454.82 1306.85 1457.53 Q1306.85 1461.69 1303.99 1463.96 Q1301.13 1466.24 1295.87 1466.24 Q1294.1 1466.24 1292.22 1465.88 Q1290.35 1465.54 1288.36 1464.85 L1288.36 1461.18 Q1289.94 1462.1 1291.82 1462.57 Q1293.7 1463.04 1295.75 1463.04 Q1299.33 1463.04 1301.19 1461.63 Q1303.07 1460.22 1303.07 1457.53 Q1303.07 1455.05 1301.32 1453.66 Q1299.59 1452.25 1296.49 1452.25 L1293.21 1452.25 L1293.21 1449.12 L1296.64 1449.12 Q1299.44 1449.12 1300.92 1448.01 Q1302.41 1446.89 1302.41 1444.78 Q1302.41 1442.62 1300.87 1441.47 Q1299.34 1440.3 1296.49 1440.3 Q1294.93 1440.3 1293.14 1440.64 Q1291.35 1440.98 1289.21 1441.69 L1289.21 1438.31 Q1291.37 1437.71 1293.25 1437.41 Q1295.15 1437.11 1296.82 1437.11 Q1301.15 1437.11 1303.67 1439.08 Q1306.19 1441.04 1306.19 1444.38 Q1306.19 1446.72 1304.86 1448.33 Q1303.52 1449.93 1301.06 1450.55 Z" fill="#000000" fill-rule="evenodd" fill-opacity="1" /><path clip-path="url(#clip940)" d="M 0 0 M1310.97 1460.92 L1314.94 1460.92 L1314.94 1465.69 L1310.97 1465.69 L1310.97 1460.92 Z" fill="#000000" fill-rule="evenodd" fill-opacity="1" /><path clip-path="url(#clip940)" d="M 0 0 M1327.18 1440.11 Q1324.25 1440.11 1322.76 1443.01 Q1321.29 1445.89 1321.29 1451.68 Q1321.29 1457.46 1322.76 1460.35 Q1324.25 1463.23 1327.18 1463.23 Q1330.13 1463.23 1331.6 1460.35 Q1333.09 1457.46 1333.09 1451.68 Q1333.09 1445.89 1331.6 1443.01 Q1330.13 1440.11 1327.18 1440.11 M1327.18 1437.11 Q1331.9 1437.11 1334.38 1440.85 Q1336.89 1444.57 1336.89 1451.68 Q1336.89 1458.77 1334.38 1462.51 Q1331.9 1466.24 1327.18 1466.24 Q1322.46 1466.24 1319.96 1462.51 Q1317.48 1458.77 1317.48 1451.68 Q1317.48 1444.57 1319.96 1440.85 Q1322.46 1437.11 1327.18 1437.11 Z" fill="#000000" fill-rule="evenodd" fill-opacity="1" /><path clip-path="url(#clip940)" d="M 0 0 M1723.42 1489.17 L1731.06 1489.17 L1731.06 1462.8 L1722.75 1464.47 L1722.75 1460.21 L1731.01 1458.54 L1735.68 1458.54 L1735.68 1489.17 L1743.32 1489.17 L1743.32 1493.1 L1723.42 1493.1 L1723.42 1489.17 Z" fill="#000000" fill-rule="evenodd" fill-opacity="1" /><path clip-path="url(#clip940)" d="M 0 0 M1758.39 1461.62 Q1754.78 1461.62 1752.95 1465.19 Q1751.15 1468.73 1751.15 1475.86 Q1751.15 1482.97 1752.95 1486.53 Q1754.78 1490.07 1758.39 1490.07 Q1762.03 1490.07 1763.83 1486.53 Q1765.66 1482.97 1765.66 1475.86 Q1765.66 1468.73 1763.83 1465.19 Q1762.03 1461.62 1758.39 1461.62 M1758.39 1457.92 Q1764.2 1457.92 1767.26 1462.53 Q1770.34 1467.11 1770.34 1475.86 Q1770.34 1484.59 1767.26 1489.19 Q1764.2 1493.78 1758.39 1493.78 Q1752.58 1493.78 1749.5 1489.19 Q1746.45 1484.59 1746.45 1475.86 Q1746.45 1467.11 1749.5 1462.53 Q1752.58 1457.92 1758.39 1457.92 Z" fill="#000000" fill-rule="evenodd" fill-opacity="1" /><path clip-path="url(#clip940)" d="M 0 0 M1770.34 1452.02 L1794.45 1452.02 L1794.45 1455.22 L1770.34 1455.22 L1770.34 1452.02 Z" fill="#000000" fill-rule="evenodd" fill-opacity="1" /><path clip-path="url(#clip940)" d="M 0 0 M1801.84 1462.5 L1815.1 1462.5 L1815.1 1465.69 L1797.27 1465.69 L1797.27 1462.5 Q1799.43 1460.26 1803.16 1456.5 Q1806.9 1452.72 1807.86 1451.63 Q1809.68 1449.58 1810.4 1448.16 Q1811.13 1446.74 1811.13 1445.36 Q1811.13 1443.12 1809.55 1441.71 Q1807.99 1440.3 1805.47 1440.3 Q1803.68 1440.3 1801.69 1440.92 Q1799.72 1441.54 1797.46 1442.8 L1797.46 1438.97 Q1799.75 1438.05 1801.75 1437.58 Q1803.74 1437.11 1805.4 1437.11 Q1809.76 1437.11 1812.35 1439.29 Q1814.95 1441.47 1814.95 1445.12 Q1814.95 1446.85 1814.29 1448.41 Q1813.65 1449.95 1811.94 1452.06 Q1811.47 1452.6 1808.95 1455.22 Q1806.43 1457.81 1801.84 1462.5 Z" fill="#000000" fill-rule="evenodd" fill-opacity="1" /><path clip-path="url(#clip940)" d="M 0 0 M1819.22 1460.92 L1823.19 1460.92 L1823.19 1465.69 L1819.22 1465.69 L1819.22 1460.92 Z" fill="#000000" fill-rule="evenodd" fill-opacity="1" /><path clip-path="url(#clip940)" d="M 0 0 M1827.34 1437.61 L1842.26 1437.61 L1842.26 1440.81 L1830.82 1440.81 L1830.82 1447.69 Q1831.65 1447.41 1832.48 1447.28 Q1833.31 1447.13 1834.13 1447.13 Q1838.84 1447.13 1841.58 1449.71 Q1844.33 1452.28 1844.33 1456.68 Q1844.33 1461.22 1841.51 1463.74 Q1838.68 1466.24 1833.55 1466.24 Q1831.78 1466.24 1829.94 1465.94 Q1828.11 1465.64 1826.16 1465.04 L1826.16 1461.22 Q1827.85 1462.14 1829.66 1462.59 Q1831.46 1463.04 1833.48 1463.04 Q1836.73 1463.04 1838.63 1461.33 Q1840.53 1459.62 1840.53 1456.68 Q1840.53 1453.75 1838.63 1452.04 Q1836.73 1450.33 1833.48 1450.33 Q1831.95 1450.33 1830.43 1450.67 Q1828.92 1451 1827.34 1451.72 L1827.34 1437.61 Z" fill="#000000" fill-rule="evenodd" fill-opacity="1" /><path clip-path="url(#clip940)" d="M 0 0 M2231.24 1489.17 L2238.88 1489.17 L2238.88 1462.8 L2230.57 1464.47 L2230.57 1460.21 L2238.84 1458.54 L2243.51 1458.54 L2243.51 1489.17 L2251.15 1489.17 L2251.15 1493.1 L2231.24 1493.1 L2231.24 1489.17 Z" fill="#000000" fill-rule="evenodd" fill-opacity="1" /><path clip-path="url(#clip940)" d="M 0 0 M2266.22 1461.62 Q2262.61 1461.62 2260.78 1465.19 Q2258.98 1468.73 2258.98 1475.86 Q2258.98 1482.97 2260.78 1486.53 Q2262.61 1490.07 2266.22 1490.07 Q2269.85 1490.07 2271.66 1486.53 Q2273.49 1482.97 2273.49 1475.86 Q2273.49 1468.73 2271.66 1465.19 Q2269.85 1461.62 2266.22 1461.62 M2266.22 1457.92 Q2272.03 1457.92 2275.09 1462.53 Q2278.16 1467.11 2278.16 1475.86 Q2278.16 1484.59 2275.09 1489.19 Q2272.03 1493.78 2266.22 1493.78 Q2260.41 1493.78 2257.33 1489.19 Q2254.28 1484.59 2254.28 1475.86 Q2254.28 1467.11 2257.33 1462.53 Q2260.41 1457.92 2266.22 1457.92 Z" fill="#000000" fill-rule="evenodd" fill-opacity="1" /><path clip-path="url(#clip940)" d="M 0 0 M2278.16 1452.02 L2302.28 1452.02 L2302.28 1455.22 L2278.16 1455.22 L2278.16 1452.02 Z" fill="#000000" fill-rule="evenodd" fill-opacity="1" /><path clip-path="url(#clip940)" d="M 0 0 M2309.67 1462.5 L2322.93 1462.5 L2322.93 1465.69 L2305.1 1465.69 L2305.1 1462.5 Q2307.26 1460.26 2310.98 1456.5 Q2314.73 1452.72 2315.69 1451.63 Q2317.51 1449.58 2318.23 1448.16 Q2318.96 1446.74 2318.96 1445.36 Q2318.96 1443.12 2317.38 1441.71 Q2315.82 1440.3 2313.3 1440.3 Q2311.51 1440.3 2309.52 1440.92 Q2307.54 1441.54 2305.29 1442.8 L2305.29 1438.97 Q2307.58 1438.05 2309.57 1437.58 Q2311.57 1437.11 2313.22 1437.11 Q2317.59 1437.11 2320.18 1439.29 Q2322.78 1441.47 2322.78 1445.12 Q2322.78 1446.85 2322.12 1448.41 Q2321.48 1449.95 2319.77 1452.06 Q2319.3 1452.6 2316.78 1455.22 Q2314.26 1457.81 2309.67 1462.5 Z" fill="#000000" fill-rule="evenodd" fill-opacity="1" /><path clip-path="url(#clip940)" d="M 0 0 M2327.05 1460.92 L2331.01 1460.92 L2331.01 1465.69 L2327.05 1465.69 L2327.05 1460.92 Z" fill="#000000" fill-rule="evenodd" fill-opacity="1" /><path clip-path="url(#clip940)" d="M 0 0 M2343.26 1440.11 Q2340.32 1440.11 2338.84 1443.01 Q2337.37 1445.89 2337.37 1451.68 Q2337.37 1457.46 2338.84 1460.35 Q2340.32 1463.23 2343.26 1463.23 Q2346.21 1463.23 2347.68 1460.35 Q2349.16 1457.46 2349.16 1451.68 Q2349.16 1445.89 2347.68 1443.01 Q2346.21 1440.11 2343.26 1440.11 M2343.26 1437.11 Q2347.98 1437.11 2350.46 1440.85 Q2352.96 1444.57 2352.96 1451.68 Q2352.96 1458.77 2350.46 1462.51 Q2347.98 1466.24 2343.26 1466.24 Q2338.54 1466.24 2336.04 1462.51 Q2333.55 1458.77 2333.55 1451.68 Q2333.55 1444.57 2336.04 1440.85 Q2338.54 1437.11 2343.26 1437.11 Z" fill="#000000" fill-rule="evenodd" fill-opacity="1" /><path clip-path="url(#clip940)" d="M 0 0 M1206.83 1512.66 L1212.71 1512.66 L1212.71 1541.91 L1230.19 1526.54 L1237.67 1526.54 L1218.76 1543.22 L1238.46 1562.19 L1230.82 1562.19 L1212.71 1544.78 L1212.71 1562.19 L1206.83 1562.19 L1206.83 1512.66 Z" fill="#000000" fill-rule="evenodd" fill-opacity="1" /><path clip-path="url(#clip940)" d="M 0 0 M1271.69 1573.01 L1271.69 1577.56 L1237.83 1577.56 L1237.83 1573.01 L1271.69 1573.01 Z" fill="#000000" fill-rule="evenodd" fill-opacity="1" /><path clip-path="url(#clip940)" d="M 0 0 M1291.65 1530.64 Q1286.94 1530.64 1284.2 1534.34 Q1281.46 1538 1281.46 1544.39 Q1281.46 1550.79 1284.17 1554.48 Q1286.91 1558.14 1291.65 1558.14 Q1296.33 1558.14 1299.06 1554.45 Q1301.8 1550.76 1301.8 1544.39 Q1301.8 1538.06 1299.06 1534.37 Q1296.33 1530.64 1291.65 1530.64 M1291.65 1525.68 Q1299.29 1525.68 1303.65 1530.64 Q1308.01 1535.61 1308.01 1544.39 Q1308.01 1553.15 1303.65 1558.14 Q1299.29 1563.11 1291.65 1563.11 Q1283.98 1563.11 1279.62 1558.14 Q1275.29 1553.15 1275.29 1544.39 Q1275.29 1535.61 1279.62 1530.64 Q1283.98 1525.68 1291.65 1525.68 Z" fill="#000000" fill-rule="evenodd" fill-opacity="1" /><path clip-path="url(#clip940)" d="M 0 0 M1343.78 1540.67 L1343.78 1562.19 L1337.93 1562.19 L1337.93 1540.86 Q1337.93 1535.8 1335.95 1533.29 Q1333.98 1530.77 1330.03 1530.77 Q1325.29 1530.77 1322.55 1533.79 Q1319.82 1536.82 1319.82 1542.04 L1319.82 1562.19 L1313.93 1562.19 L1313.93 1526.54 L1319.82 1526.54 L1319.82 1532.08 Q1321.92 1528.86 1324.75 1527.27 Q1327.61 1525.68 1331.34 1525.68 Q1337.48 1525.68 1340.63 1529.5 Q1343.78 1533.29 1343.78 1540.67 Z" fill="#000000" fill-rule="evenodd" fill-opacity="1" /><polyline clip-path="url(#clip942)" style="stroke:#000000; stroke-width:2; stroke-opacity:0.1; fill:none" points="
  197.852,1144.78 2352.76,1144.78 
  "/>
<polyline clip-path="url(#clip942)" style="stroke:#000000; stroke-width:2; stroke-opacity:0.1; fill:none" points="
  197.852,829.795 2352.76,829.795 
  "/>
<polyline clip-path="url(#clip942)" style="stroke:#000000; stroke-width:2; stroke-opacity:0.1; fill:none" points="
  197.852,514.81 2352.76,514.81 
  "/>
<polyline clip-path="url(#clip942)" style="stroke:#000000; stroke-width:2; stroke-opacity:0.1; fill:none" points="
  197.852,199.825 2352.76,199.825 
  "/>
<polyline clip-path="url(#clip940)" style="stroke:#000000; stroke-width:4; stroke-opacity:1; fill:none" points="
  197.852,1410.9 197.852,47.2441 
  "/>
<polyline clip-path="url(#clip940)" style="stroke:#000000; stroke-width:4; stroke-opacity:1; fill:none" points="
  197.852,1144.78 223.711,1144.78 
  "/>
<polyline clip-path="url(#clip940)" style="stroke:#000000; stroke-width:4; stroke-opacity:1; fill:none" points="
  197.852,829.795 223.711,829.795 
  "/>
<polyline clip-path="url(#clip940)" style="stroke:#000000; stroke-width:4; stroke-opacity:1; fill:none" points="
  197.852,514.81 223.711,514.81 
  "/>
<polyline clip-path="url(#clip940)" style="stroke:#000000; stroke-width:4; stroke-opacity:1; fill:none" points="
  197.852,199.825 223.711,199.825 
  "/>
<path clip-path="url(#clip940)" d="M 0 0 M152.269 1131.57 L140.464 1150.02 L152.269 1150.02 L152.269 1131.57 M151.042 1127.5 L156.922 1127.5 L156.922 1150.02 L161.852 1150.02 L161.852 1153.91 L156.922 1153.91 L156.922 1162.06 L152.269 1162.06 L152.269 1153.91 L136.667 1153.91 L136.667 1149.4 L151.042 1127.5 Z" fill="#000000" fill-rule="evenodd" fill-opacity="1" /><path clip-path="url(#clip940)" d="M 0 0 M150.325 827.931 Q147.177 827.931 145.325 830.084 Q143.496 832.237 143.496 835.987 Q143.496 839.714 145.325 841.89 Q147.177 844.042 150.325 844.042 Q153.473 844.042 155.302 841.89 Q157.153 839.714 157.153 835.987 Q157.153 832.237 155.302 830.084 Q153.473 827.931 150.325 827.931 M159.607 813.279 L159.607 817.538 Q157.848 816.705 156.042 816.265 Q154.26 815.825 152.501 815.825 Q147.871 815.825 145.417 818.95 Q142.987 822.075 142.64 828.394 Q144.005 826.381 146.066 825.316 Q148.126 824.228 150.603 824.228 Q155.811 824.228 158.82 827.399 Q161.852 830.547 161.852 835.987 Q161.852 841.311 158.704 844.529 Q155.556 847.746 150.325 847.746 Q144.329 847.746 141.158 843.163 Q137.987 838.556 137.987 829.83 Q137.987 821.635 141.876 816.774 Q145.765 811.89 152.316 811.89 Q154.075 811.89 155.857 812.237 Q157.663 812.584 159.607 813.279 Z" fill="#000000" fill-rule="evenodd" fill-opacity="1" /><path clip-path="url(#clip940)" d="M 0 0 M150.001 515.678 Q146.667 515.678 144.746 517.461 Q142.848 519.243 142.848 522.368 Q142.848 525.493 144.746 527.275 Q146.667 529.058 150.001 529.058 Q153.334 529.058 155.255 527.275 Q157.177 525.47 157.177 522.368 Q157.177 519.243 155.255 517.461 Q153.357 515.678 150.001 515.678 M145.325 513.687 Q142.316 512.947 140.626 510.887 Q138.959 508.826 138.959 505.863 Q138.959 501.72 141.899 499.313 Q144.862 496.905 150.001 496.905 Q155.163 496.905 158.103 499.313 Q161.042 501.72 161.042 505.863 Q161.042 508.826 159.353 510.887 Q157.686 512.947 154.7 513.687 Q158.079 514.474 159.954 516.766 Q161.852 519.058 161.852 522.368 Q161.852 527.391 158.774 530.076 Q155.718 532.761 150.001 532.761 Q144.283 532.761 141.204 530.076 Q138.149 527.391 138.149 522.368 Q138.149 519.058 140.047 516.766 Q141.945 514.474 145.325 513.687 M143.612 506.303 Q143.612 508.988 145.279 510.493 Q146.968 511.998 150.001 511.998 Q153.01 511.998 154.7 510.493 Q156.413 508.988 156.413 506.303 Q156.413 503.618 154.7 502.113 Q153.01 500.609 150.001 500.609 Q146.968 500.609 145.279 502.113 Q143.612 503.618 143.612 506.303 Z" fill="#000000" fill-rule="evenodd" fill-opacity="1" /><path clip-path="url(#clip940)" d="M 0 0 M114.931 213.17 L122.57 213.17 L122.57 186.805 L114.26 188.471 L114.26 184.212 L122.524 182.545 L127.2 182.545 L127.2 213.17 L134.839 213.17 L134.839 217.105 L114.931 217.105 L114.931 213.17 Z" fill="#000000" fill-rule="evenodd" fill-opacity="1" /><path clip-path="url(#clip940)" d="M 0 0 M149.908 185.624 Q146.297 185.624 144.468 189.189 Q142.663 192.731 142.663 199.86 Q142.663 206.967 144.468 210.531 Q146.297 214.073 149.908 214.073 Q153.542 214.073 155.348 210.531 Q157.177 206.967 157.177 199.86 Q157.177 192.731 155.348 189.189 Q153.542 185.624 149.908 185.624 M149.908 181.92 Q155.718 181.92 158.774 186.527 Q161.852 191.11 161.852 199.86 Q161.852 208.587 158.774 213.193 Q155.718 217.777 149.908 217.777 Q144.098 217.777 141.019 213.193 Q137.964 208.587 137.964 199.86 Q137.964 191.11 141.019 186.527 Q144.098 181.92 149.908 181.92 Z" fill="#000000" fill-rule="evenodd" fill-opacity="1" /><path clip-path="url(#clip940)" d="M 0 0 M59.1993 815.533 Q55.2526 813.336 53.3747 810.281 Q51.4968 807.225 51.4968 803.088 Q51.4968 797.518 55.4117 794.494 Q59.2948 791.47 66.4881 791.47 L88.0042 791.47 L88.0042 797.358 L66.679 797.358 Q61.5546 797.358 59.072 799.173 Q56.5894 800.987 56.5894 804.711 Q56.5894 809.262 59.6131 811.904 Q62.6368 814.546 67.8567 814.546 L88.0042 814.546 L88.0042 820.434 L66.679 820.434 Q61.5228 820.434 59.072 822.248 Q56.5894 824.063 56.5894 827.85 Q56.5894 832.338 59.6449 834.98 Q62.6686 837.622 67.8567 837.622 L88.0042 837.622 L88.0042 843.51 L52.3562 843.51 L52.3562 837.622 L57.8944 837.622 Q54.616 835.616 53.0564 832.815 Q51.4968 830.015 51.4968 826.163 Q51.4968 822.28 53.4702 819.575 Q55.4436 816.838 59.1993 815.533 Z" fill="#000000" fill-rule="evenodd" fill-opacity="1" /><path clip-path="url(#clip940)" d="M 0 0 M52.3562 785.327 L52.3562 779.471 L88.0042 779.471 L88.0042 785.327 L52.3562 785.327 M38.479 785.327 L38.479 779.471 L45.895 779.471 L45.895 785.327 L38.479 785.327 Z" fill="#000000" fill-rule="evenodd" fill-opacity="1" /><path clip-path="url(#clip940)" d="M 0 0 M66.4881 743.696 L88.0042 743.696 L88.0042 749.552 L66.679 749.552 Q61.6183 749.552 59.1038 751.525 Q56.5894 753.499 56.5894 757.446 Q56.5894 762.188 59.6131 764.925 Q62.6368 767.662 67.8567 767.662 L88.0042 767.662 L88.0042 773.551 L52.3562 773.551 L52.3562 767.662 L57.8944 767.662 Q54.6797 765.562 53.0883 762.729 Q51.4968 759.864 51.4968 756.141 Q51.4968 749.998 55.3163 746.847 Q59.1038 743.696 66.4881 743.696 Z" fill="#000000" fill-rule="evenodd" fill-opacity="1" /><path clip-path="url(#clip940)" d="M 0 0 M98.8259 710.467 L103.377 710.467 L103.377 744.332 L98.8259 744.332 L98.8259 710.467 Z" fill="#000000" fill-rule="evenodd" fill-opacity="1" /><path clip-path="url(#clip940)" d="M 0 0 M57.7671 680.866 L38.479 680.866 L38.479 675.01 L88.0042 675.01 L88.0042 680.866 L82.657 680.866 Q85.8398 682.712 87.3994 685.545 Q88.9272 688.346 88.9272 692.292 Q88.9272 698.754 83.771 702.828 Q78.6147 706.87 70.212 706.87 Q61.8093 706.87 56.6531 702.828 Q51.4968 698.754 51.4968 692.292 Q51.4968 688.346 53.0564 685.545 Q54.5842 682.712 57.7671 680.866 M70.212 700.823 Q76.6732 700.823 80.3653 698.181 Q84.0256 695.507 84.0256 690.86 Q84.0256 686.213 80.3653 683.54 Q76.6732 680.866 70.212 680.866 Q63.7508 680.866 60.0905 683.54 Q56.3984 686.213 56.3984 690.86 Q56.3984 695.507 60.0905 698.181 Q63.7508 700.823 70.212 700.823 Z" fill="#000000" fill-rule="evenodd" fill-opacity="1" /><path clip-path="url(#clip940)" d="M 0 0 M52.3562 668.867 L52.3562 663.01 L88.0042 663.01 L88.0042 668.867 L52.3562 668.867 M38.479 668.867 L38.479 663.01 L45.895 663.01 L45.895 668.867 L38.479 668.867 Z" fill="#000000" fill-rule="evenodd" fill-opacity="1" /><path clip-path="url(#clip940)" d="M 0 0 M38.479 638.821 L43.3487 638.821 L43.3487 644.422 Q43.3487 647.573 44.6219 648.815 Q45.895 650.024 49.2052 650.024 L52.3562 650.024 L52.3562 640.38 L56.9077 640.38 L56.9077 650.024 L88.0042 650.024 L88.0042 655.912 L56.9077 655.912 L56.9077 661.514 L52.3562 661.514 L52.3562 655.912 L49.8736 655.912 Q43.9216 655.912 41.2162 653.143 Q38.479 650.374 38.479 644.359 L38.479 638.821 Z" fill="#000000" fill-rule="evenodd" fill-opacity="1" /><path clip-path="url(#clip940)" d="M 0 0 M38.479 614.631 L43.3487 614.631 L43.3487 620.233 Q43.3487 623.384 44.6219 624.625 Q45.895 625.835 49.2052 625.835 L52.3562 625.835 L52.3562 616.19 L56.9077 616.19 L56.9077 625.835 L88.0042 625.835 L88.0042 631.723 L56.9077 631.723 L56.9077 637.325 L52.3562 637.325 L52.3562 631.723 L49.8736 631.723 Q43.9216 631.723 41.2162 628.954 Q38.479 626.185 38.479 620.169 L38.479 614.631 Z" fill="#000000" fill-rule="evenodd" fill-opacity="1" /><polyline clip-path="url(#clip942)" style="stroke:#009af9; stroke-width:20; stroke-opacity:1; fill:none" stroke-dasharray="80, 50" points="
  258.84,155.542 767.072,85.838 1275.3,1372.3 1783.54,866.973 2291.77,743.081 
  "/>
<path clip-path="url(#clip940)" d="
M1990.47 213.659 L2280.93 213.659 L2280.93 92.6992 L1990.47 92.6992  Z
  " fill="#ffffff" fill-rule="evenodd" fill-opacity="1"/>
<polyline clip-path="url(#clip940)" style="stroke:#000000; stroke-width:4; stroke-opacity:1; fill:none" points="
  1990.47,213.659 2280.93,213.659 2280.93,92.6992 1990.47,92.6992 1990.47,213.659 
  "/>
<polyline clip-path="url(#clip940)" style="stroke:#009af9; stroke-width:4; stroke-opacity:1; fill:none" stroke-dasharray="16, 10" points="
  2014.42,153.179 2158.08,153.179 
  "/>
<path clip-path="url(#clip940)" d="M 0 0 M2195.86 172.867 Q2194.06 177.496 2192.34 178.908 Q2190.63 180.32 2187.76 180.32 L2184.36 180.32 L2184.36 176.755 L2186.86 176.755 Q2188.62 176.755 2189.59 175.922 Q2190.56 175.089 2191.74 171.987 L2192.51 170.043 L2182.02 144.533 L2186.53 144.533 L2194.64 164.811 L2202.74 144.533 L2207.25 144.533 L2195.86 172.867 Z" fill="#000000" fill-rule="evenodd" fill-opacity="1" /><path clip-path="url(#clip940)" d="M 0 0 M2213.13 166.524 L2220.77 166.524 L2220.77 140.158 L2212.46 141.825 L2212.46 137.566 L2220.72 135.899 L2225.4 135.899 L2225.4 166.524 L2233.04 166.524 L2233.04 170.459 L2213.13 170.459 L2213.13 166.524 Z" fill="#000000" fill-rule="evenodd" fill-opacity="1" /></svg>
