<?xml version="1.0" encoding="utf-8"?>
<svg xmlns="http://www.w3.org/2000/svg" xmlns:xlink="http://www.w3.org/1999/xlink" width="600" height="400" viewBox="0 0 2400 1600">
<defs>
  <clipPath id="clip010">
    <rect x="0" y="0" width="2400" height="1600"/>
  </clipPath>
</defs>
<path clip-path="url(#clip010)" d="
M0 1600 L2400 1600 L2400 0 L0 0  Z
  " fill="#ffffff" fill-rule="evenodd" fill-opacity="1"/>
<defs>
  <clipPath id="clip011">
    <rect x="480" y="0" width="1681" height="1600"/>
  </clipPath>
</defs>
<path clip-path="url(#clip010)" d="
M224.866 1410.9 L2352.76 1410.9 L2352.76 47.2441 L224.866 47.2441  Z
  " fill="#ffffff" fill-rule="evenodd" fill-opacity="1"/>
<defs>
  <clipPath id="clip012">
    <rect x="224" y="47" width="2129" height="1365"/>
  </clipPath>
</defs>
<polyline clip-path="url(#clip012)" style="stroke:#000000; stroke-width:2; stroke-opacity:0.1; fill:none" points="
  285.09,1410.9 285.09,47.2441 
  "/>
<polyline clip-path="url(#clip012)" style="stroke:#000000; stroke-width:2; stroke-opacity:0.1; fill:none" points="
  619.663,1410.9 619.663,47.2441 
  "/>
<polyline clip-path="url(#clip012)" style="stroke:#000000; stroke-width:2; stroke-opacity:0.1; fill:none" points="
  954.237,1410.9 954.237,47.2441 
  "/>
<polyline clip-path="url(#clip012)" style="stroke:#000000; stroke-width:2; stroke-opacity:0.1; fill:none" points="
  1288.81,1410.9 1288.81,47.2441 
  "/>
<polyline clip-path="url(#clip012)" style="stroke:#000000; stroke-width:2; stroke-opacity:0.1; fill:none" points="
  1623.38,1410.9 1623.38,47.2441 
  "/>
<polyline clip-path="url(#clip012)" style="stroke:#000000; stroke-width:2; stroke-opacity:0.1; fill:none" points="
  1957.96,1410.9 1957.96,47.2441 
  "/>
<polyline clip-path="url(#clip012)" style="stroke:#000000; stroke-width:2; stroke-opacity:0.1; fill:none" points="
  2292.53,1410.9 2292.53,47.2441 
  "/>
<polyline clip-path="url(#clip010)" style="stroke:#000000; stroke-width:4; stroke-opacity:1; fill:none" points="
  224.866,1410.9 2352.76,1410.9 
  "/>
<polyline clip-path="url(#clip010)" style="stroke:#000000; stroke-width:4; stroke-opacity:1; fill:none" points="
  285.09,1410.9 285.09,1394.53 
  "/>
<polyline clip-path="url(#clip010)" style="stroke:#000000; stroke-width:4; stroke-opacity:1; fill:none" points="
  619.663,1410.9 619.663,1394.53 
  "/>
<polyline clip-path="url(#clip010)" style="stroke:#000000; stroke-width:4; stroke-opacity:1; fill:none" points="
  954.237,1410.9 954.237,1394.53 
  "/>
<polyline clip-path="url(#clip010)" style="stroke:#000000; stroke-width:4; stroke-opacity:1; fill:none" points="
  1288.81,1410.9 1288.81,1394.53 
  "/>
<polyline clip-path="url(#clip010)" style="stroke:#000000; stroke-width:4; stroke-opacity:1; fill:none" points="
  1623.38,1410.9 1623.38,1394.53 
  "/>
<polyline clip-path="url(#clip010)" style="stroke:#000000; stroke-width:4; stroke-opacity:1; fill:none" points="
  1957.96,1410.9 1957.96,1394.53 
  "/>
<polyline clip-path="url(#clip010)" style="stroke:#000000; stroke-width:4; stroke-opacity:1; fill:none" points="
  2292.53,1410.9 2292.53,1394.53 
  "/>
<path clip-path="url(#clip010)" d="M 0 0 M239.198 1489.17 L246.837 1489.17 L246.837 1462.8 L238.527 1464.47 L238.527 1460.21 L246.79 1458.54 L251.466 1458.54 L251.466 1489.17 L259.105 1489.17 L259.105 1493.1 L239.198 1493.1 L239.198 1489.17 Z" fill="#000000" fill-rule="evenodd" fill-opacity="1" /><path clip-path="url(#clip010)" d="M 0 0 M274.175 1461.62 Q270.563 1461.62 268.735 1465.19 Q266.929 1468.73 266.929 1475.86 Q266.929 1482.97 268.735 1486.53 Q270.563 1490.07 274.175 1490.07 Q277.809 1490.07 279.614 1486.53 Q281.443 1482.97 281.443 1475.86 Q281.443 1468.73 279.614 1465.19 Q277.809 1461.62 274.175 1461.62 M274.175 1457.92 Q279.985 1457.92 283.04 1462.53 Q286.119 1467.11 286.119 1475.86 Q286.119 1484.59 283.04 1489.19 Q279.985 1493.78 274.175 1493.78 Q268.364 1493.78 265.286 1489.19 Q262.23 1484.59 262.23 1475.86 Q262.23 1467.11 265.286 1462.53 Q268.364 1457.92 274.175 1457.92 Z" fill="#000000" fill-rule="evenodd" fill-opacity="1" /><path clip-path="url(#clip010)" d="M 0 0 M286.119 1452.02 L310.23 1452.02 L310.23 1455.22 L286.119 1455.22 L286.119 1452.02 Z" fill="#000000" fill-rule="evenodd" fill-opacity="1" /><path clip-path="url(#clip010)" d="M 0 0 M325.86 1450.55 Q328.587 1451.14 330.11 1452.98 Q331.653 1454.82 331.653 1457.53 Q331.653 1461.69 328.794 1463.96 Q325.935 1466.24 320.669 1466.24 Q318.901 1466.24 317.02 1465.88 Q315.158 1465.54 313.164 1464.85 L313.164 1461.18 Q314.744 1462.1 316.625 1462.57 Q318.506 1463.04 320.556 1463.04 Q324.129 1463.04 325.991 1461.63 Q327.872 1460.22 327.872 1457.53 Q327.872 1455.05 326.123 1453.66 Q324.393 1452.25 321.289 1452.25 L318.017 1452.25 L318.017 1449.12 L321.44 1449.12 Q324.242 1449.12 325.728 1448.01 Q327.214 1446.89 327.214 1444.78 Q327.214 1442.62 325.672 1441.47 Q324.148 1440.3 321.289 1440.3 Q319.728 1440.3 317.942 1440.64 Q316.155 1440.98 314.011 1441.69 L314.011 1438.31 Q316.174 1437.71 318.054 1437.41 Q319.954 1437.11 321.628 1437.11 Q325.954 1437.11 328.474 1439.08 Q330.994 1441.04 330.994 1444.38 Q330.994 1446.72 329.659 1448.33 Q328.324 1449.93 325.86 1450.55 Z" fill="#000000" fill-rule="evenodd" fill-opacity="1" /><path clip-path="url(#clip010)" d="M 0 0 M574.157 1489.17 L581.796 1489.17 L581.796 1462.8 L573.486 1464.47 L573.486 1460.21 L581.75 1458.54 L586.426 1458.54 L586.426 1489.17 L594.065 1489.17 L594.065 1493.1 L574.157 1493.1 L574.157 1489.17 Z" fill="#000000" fill-rule="evenodd" fill-opacity="1" /><path clip-path="url(#clip010)" d="M 0 0 M609.134 1461.62 Q605.523 1461.62 603.694 1465.19 Q601.889 1468.73 601.889 1475.86 Q601.889 1482.97 603.694 1486.53 Q605.523 1490.07 609.134 1490.07 Q612.768 1490.07 614.574 1486.53 Q616.402 1482.97 616.402 1475.86 Q616.402 1468.73 614.574 1465.19 Q612.768 1461.62 609.134 1461.62 M609.134 1457.92 Q614.944 1457.92 618 1462.53 Q621.078 1467.11 621.078 1475.86 Q621.078 1484.59 618 1489.19 Q614.944 1493.78 609.134 1493.78 Q603.324 1493.78 600.245 1489.19 Q597.19 1484.59 597.19 1475.86 Q597.19 1467.11 600.245 1462.53 Q603.324 1457.92 609.134 1457.92 Z" fill="#000000" fill-rule="evenodd" fill-opacity="1" /><path clip-path="url(#clip010)" d="M 0 0 M621.078 1452.02 L645.19 1452.02 L645.19 1455.22 L621.078 1455.22 L621.078 1452.02 Z" fill="#000000" fill-rule="evenodd" fill-opacity="1" /><path clip-path="url(#clip010)" d="M 0 0 M652.581 1462.5 L665.841 1462.5 L665.841 1465.69 L648.011 1465.69 L648.011 1462.5 Q650.174 1460.26 653.898 1456.5 Q657.641 1452.72 658.6 1451.63 Q660.424 1449.58 661.139 1448.16 Q661.872 1446.74 661.872 1445.36 Q661.872 1443.12 660.293 1441.71 Q658.731 1440.3 656.211 1440.3 Q654.424 1440.3 652.431 1440.92 Q650.456 1441.54 648.199 1442.8 L648.199 1438.97 Q650.494 1438.05 652.487 1437.58 Q654.481 1437.11 656.136 1437.11 Q660.499 1437.11 663.095 1439.29 Q665.69 1441.47 665.69 1445.12 Q665.69 1446.85 665.032 1448.41 Q664.393 1449.95 662.681 1452.06 Q662.211 1452.6 659.691 1455.22 Q657.17 1457.81 652.581 1462.5 Z" fill="#000000" fill-rule="evenodd" fill-opacity="1" /><path clip-path="url(#clip010)" d="M 0 0 M908.581 1489.17 L916.219 1489.17 L916.219 1462.8 L907.909 1464.47 L907.909 1460.21 L916.173 1458.54 L920.849 1458.54 L920.849 1489.17 L928.488 1489.17 L928.488 1493.1 L908.581 1493.1 L908.581 1489.17 Z" fill="#000000" fill-rule="evenodd" fill-opacity="1" /><path clip-path="url(#clip010)" d="M 0 0 M943.557 1461.62 Q939.946 1461.62 938.118 1465.19 Q936.312 1468.73 936.312 1475.86 Q936.312 1482.97 938.118 1486.53 Q939.946 1490.07 943.557 1490.07 Q947.192 1490.07 948.997 1486.53 Q950.826 1482.97 950.826 1475.86 Q950.826 1468.73 948.997 1465.19 Q947.192 1461.62 943.557 1461.62 M943.557 1457.92 Q949.367 1457.92 952.423 1462.53 Q955.502 1467.11 955.502 1475.86 Q955.502 1484.59 952.423 1489.19 Q949.367 1493.78 943.557 1493.78 Q937.747 1493.78 934.668 1489.19 Q931.613 1484.59 931.613 1475.86 Q931.613 1467.11 934.668 1462.53 Q937.747 1457.92 943.557 1457.92 Z" fill="#000000" fill-rule="evenodd" fill-opacity="1" /><path clip-path="url(#clip010)" d="M 0 0 M955.502 1452.02 L979.613 1452.02 L979.613 1455.22 L955.502 1455.22 L955.502 1452.02 Z" fill="#000000" fill-rule="evenodd" fill-opacity="1" /><path clip-path="url(#clip010)" d="M 0 0 M984.39 1462.5 L990.597 1462.5 L990.597 1441.07 L983.845 1442.43 L983.845 1438.97 L990.559 1437.61 L994.359 1437.61 L994.359 1462.5 L1000.57 1462.5 L1000.57 1465.69 L984.39 1465.69 L984.39 1462.5 Z" fill="#000000" fill-rule="evenodd" fill-opacity="1" /><path clip-path="url(#clip010)" d="M 0 0 M1255.98 1489.17 L1263.62 1489.17 L1263.62 1462.8 L1255.31 1464.47 L1255.31 1460.21 L1263.57 1458.54 L1268.25 1458.54 L1268.25 1489.17 L1275.89 1489.17 L1275.89 1493.1 L1255.98 1493.1 L1255.98 1489.17 Z" fill="#000000" fill-rule="evenodd" fill-opacity="1" /><path clip-path="url(#clip010)" d="M 0 0 M1290.96 1461.62 Q1287.35 1461.62 1285.52 1465.19 Q1283.71 1468.73 1283.71 1475.86 Q1283.71 1482.97 1285.52 1486.53 Q1287.35 1490.07 1290.96 1490.07 Q1294.59 1490.07 1296.4 1486.53 Q1298.23 1482.97 1298.23 1475.86 Q1298.23 1468.73 1296.4 1465.19 Q1294.59 1461.62 1290.96 1461.62 M1290.96 1457.92 Q1296.77 1457.92 1299.82 1462.53 Q1302.9 1467.11 1302.9 1475.86 Q1302.9 1484.59 1299.82 1489.19 Q1296.77 1493.78 1290.96 1493.78 Q1285.15 1493.78 1282.07 1489.19 Q1279.01 1484.59 1279.01 1475.86 Q1279.01 1467.11 1282.07 1462.53 Q1285.15 1457.92 1290.96 1457.92 Z" fill="#000000" fill-rule="evenodd" fill-opacity="1" /><path clip-path="url(#clip010)" d="M 0 0 M1312.61 1440.11 Q1309.67 1440.11 1308.19 1443.01 Q1306.72 1445.89 1306.72 1451.68 Q1306.72 1457.46 1308.19 1460.35 Q1309.67 1463.23 1312.61 1463.23 Q1315.56 1463.23 1317.03 1460.35 Q1318.51 1457.46 1318.51 1451.68 Q1318.51 1445.89 1317.03 1443.01 Q1315.56 1440.11 1312.61 1440.11 M1312.61 1437.11 Q1317.33 1437.11 1319.81 1440.85 Q1322.31 1444.57 1322.31 1451.68 Q1322.31 1458.77 1319.81 1462.51 Q1317.33 1466.24 1312.61 1466.24 Q1307.89 1466.24 1305.39 1462.51 Q1302.9 1458.77 1302.9 1451.68 Q1302.9 1444.57 1305.39 1440.85 Q1307.89 1437.11 1312.61 1437.11 Z" fill="#000000" fill-rule="evenodd" fill-opacity="1" /><path clip-path="url(#clip010)" d="M 0 0 M1591.9 1489.17 L1599.54 1489.17 L1599.54 1462.8 L1591.23 1464.47 L1591.23 1460.21 L1599.49 1458.54 L1604.17 1458.54 L1604.17 1489.17 L1611.81 1489.17 L1611.81 1493.1 L1591.9 1493.1 L1591.9 1489.17 Z" fill="#000000" fill-rule="evenodd" fill-opacity="1" /><path clip-path="url(#clip010)" d="M 0 0 M1626.88 1461.62 Q1623.27 1461.62 1621.44 1465.19 Q1619.63 1468.73 1619.63 1475.86 Q1619.63 1482.97 1621.44 1486.53 Q1623.27 1490.07 1626.88 1490.07 Q1630.51 1490.07 1632.32 1486.53 Q1634.15 1482.97 1634.15 1475.86 Q1634.15 1468.73 1632.32 1465.19 Q1630.51 1461.62 1626.88 1461.62 M1626.88 1457.92 Q1632.69 1457.92 1635.74 1462.53 Q1638.82 1467.11 1638.82 1475.86 Q1638.82 1484.59 1635.74 1489.19 Q1632.69 1493.78 1626.88 1493.78 Q1621.07 1493.78 1617.99 1489.19 Q1614.93 1484.59 1614.93 1475.86 Q1614.93 1467.11 1617.99 1462.53 Q1621.07 1457.92 1626.88 1457.92 Z" fill="#000000" fill-rule="evenodd" fill-opacity="1" /><path clip-path="url(#clip010)" d="M 0 0 M1639.37 1462.5 L1645.57 1462.5 L1645.57 1441.07 L1638.82 1442.43 L1638.82 1438.97 L1645.54 1437.61 L1649.33 1437.61 L1649.33 1462.5 L1655.54 1462.5 L1655.54 1465.69 L1639.37 1465.69 L1639.37 1462.5 Z" fill="#000000" fill-rule="evenodd" fill-opacity="1" /><path clip-path="url(#clip010)" d="M 0 0 M1925.92 1489.17 L1933.56 1489.17 L1933.56 1462.8 L1925.25 1464.47 L1925.25 1460.21 L1933.51 1458.54 L1938.19 1458.54 L1938.19 1489.17 L1945.83 1489.17 L1945.83 1493.1 L1925.92 1493.1 L1925.92 1489.17 Z" fill="#000000" fill-rule="evenodd" fill-opacity="1" /><path clip-path="url(#clip010)" d="M 0 0 M1960.9 1461.62 Q1957.28 1461.62 1955.46 1465.19 Q1953.65 1468.73 1953.65 1475.86 Q1953.65 1482.97 1955.46 1486.53 Q1957.28 1490.07 1960.9 1490.07 Q1964.53 1490.07 1966.34 1486.53 Q1968.16 1482.97 1968.16 1475.86 Q1968.16 1468.73 1966.34 1465.19 Q1964.53 1461.62 1960.9 1461.62 M1960.9 1457.92 Q1966.71 1457.92 1969.76 1462.53 Q1972.84 1467.11 1972.84 1475.86 Q1972.84 1484.59 1969.76 1489.19 Q1966.71 1493.78 1960.9 1493.78 Q1955.09 1493.78 1952.01 1489.19 Q1948.95 1484.59 1948.95 1475.86 Q1948.95 1467.11 1952.01 1462.53 Q1955.09 1457.92 1960.9 1457.92 Z" fill="#000000" fill-rule="evenodd" fill-opacity="1" /><path clip-path="url(#clip010)" d="M 0 0 M1977.41 1462.5 L1990.67 1462.5 L1990.67 1465.69 L1972.84 1465.69 L1972.84 1462.5 Q1975 1460.26 1978.73 1456.5 Q1982.47 1452.72 1983.43 1451.63 Q1985.25 1449.58 1985.97 1448.16 Q1986.7 1446.74 1986.7 1445.36 Q1986.7 1443.12 1985.12 1441.71 Q1983.56 1440.3 1981.04 1440.3 Q1979.25 1440.3 1977.26 1440.92 Q1975.29 1441.54 1973.03 1442.8 L1973.03 1438.97 Q1975.32 1438.05 1977.32 1437.58 Q1979.31 1437.11 1980.97 1437.11 Q1985.33 1437.11 1987.92 1439.29 Q1990.52 1441.47 1990.52 1445.12 Q1990.52 1446.85 1989.86 1448.41 Q1989.22 1449.95 1987.51 1452.06 Q1987.04 1452.6 1984.52 1455.22 Q1982 1457.81 1977.41 1462.5 Z" fill="#000000" fill-rule="evenodd" fill-opacity="1" /><path clip-path="url(#clip010)" d="M 0 0 M2260.16 1489.17 L2267.8 1489.17 L2267.8 1462.8 L2259.49 1464.47 L2259.49 1460.21 L2267.76 1458.54 L2272.43 1458.54 L2272.43 1489.17 L2280.07 1489.17 L2280.07 1493.1 L2260.16 1493.1 L2260.16 1489.17 Z" fill="#000000" fill-rule="evenodd" fill-opacity="1" /><path clip-path="url(#clip010)" d="M 0 0 M2295.14 1461.62 Q2291.53 1461.62 2289.7 1465.19 Q2287.9 1468.73 2287.9 1475.86 Q2287.9 1482.97 2289.7 1486.53 Q2291.53 1490.07 2295.14 1490.07 Q2298.77 1490.07 2300.58 1486.53 Q2302.41 1482.97 2302.41 1475.86 Q2302.41 1468.73 2300.58 1465.19 Q2298.77 1461.62 2295.14 1461.62 M2295.14 1457.92 Q2300.95 1457.92 2304.01 1462.53 Q2307.08 1467.11 2307.08 1475.86 Q2307.08 1484.59 2304.01 1489.19 Q2300.95 1493.78 2295.14 1493.78 Q2289.33 1493.78 2286.25 1489.19 Q2283.2 1484.59 2283.2 1475.86 Q2283.2 1467.11 2286.25 1462.53 Q2289.33 1457.92 2295.14 1457.92 Z" fill="#000000" fill-rule="evenodd" fill-opacity="1" /><path clip-path="url(#clip010)" d="M 0 0 M2319.78 1450.55 Q2322.51 1451.14 2324.03 1452.98 Q2325.57 1454.82 2325.57 1457.53 Q2325.57 1461.69 2322.71 1463.96 Q2319.86 1466.24 2314.59 1466.24 Q2312.82 1466.24 2310.94 1465.88 Q2309.08 1465.54 2307.08 1464.85 L2307.08 1461.18 Q2308.66 1462.1 2310.55 1462.57 Q2312.43 1463.04 2314.48 1463.04 Q2318.05 1463.04 2319.91 1461.63 Q2321.79 1460.22 2321.79 1457.53 Q2321.79 1455.05 2320.04 1453.66 Q2318.31 1452.25 2315.21 1452.25 L2311.94 1452.25 L2311.94 1449.12 L2315.36 1449.12 Q2318.16 1449.12 2319.65 1448.01 Q2321.13 1446.89 2321.13 1444.78 Q2321.13 1442.62 2319.59 1441.47 Q2318.07 1440.3 2315.21 1440.3 Q2313.65 1440.3 2311.86 1440.64 Q2310.08 1440.98 2307.93 1441.69 L2307.93 1438.31 Q2310.09 1437.71 2311.97 1437.41 Q2313.87 1437.11 2315.55 1437.11 Q2319.87 1437.11 2322.39 1439.08 Q2324.91 1441.04 2324.91 1444.38 Q2324.91 1446.72 2323.58 1448.33 Q2322.24 1449.93 2319.78 1450.55 Z" fill="#000000" fill-rule="evenodd" fill-opacity="1" /><path clip-path="url(#clip010)" d="M 0 0 M1181.09 1526.54 L1187.29 1526.54 L1198.43 1556.46 L1209.57 1526.54 L1215.78 1526.54 L1202.41 1562.19 L1194.46 1562.19 L1181.09 1526.54 Z" fill="#000000" fill-rule="evenodd" fill-opacity="1" /><path clip-path="url(#clip010)" d="M 0 0 M1249.01 1573.01 L1249.01 1577.56 L1215.14 1577.56 L1215.14 1573.01 L1249.01 1573.01 Z" fill="#000000" fill-rule="evenodd" fill-opacity="1" /><path clip-path="url(#clip010)" d="M 0 0 M1280.81 1527.91 L1280.81 1533.38 Q1278.32 1532.01 1275.81 1531.34 Q1273.33 1530.64 1270.78 1530.64 Q1265.08 1530.64 1261.93 1534.27 Q1258.78 1537.87 1258.78 1544.39 Q1258.78 1550.92 1261.93 1554.55 Q1265.08 1558.14 1270.78 1558.14 Q1273.33 1558.14 1275.81 1557.47 Q1278.32 1556.77 1280.81 1555.41 L1280.81 1560.82 Q1278.36 1561.96 1275.71 1562.54 Q1273.1 1563.11 1270.14 1563.11 Q1262.09 1563.11 1257.35 1558.05 Q1252.61 1552.99 1252.61 1544.39 Q1252.61 1535.67 1257.38 1530.68 Q1262.19 1525.68 1270.53 1525.68 Q1273.23 1525.68 1275.81 1526.25 Q1278.39 1526.79 1280.81 1527.91 Z" fill="#000000" fill-rule="evenodd" fill-opacity="1" /><path clip-path="url(#clip010)" d="M 0 0 M1286.95 1512.66 L1292.81 1512.66 L1292.81 1562.19 L1286.95 1562.19 L1286.95 1512.66 Z" fill="#000000" fill-rule="evenodd" fill-opacity="1" /><path clip-path="url(#clip010)" d="M 0 0 M1312.76 1530.64 Q1308.05 1530.64 1305.31 1534.34 Q1302.58 1538 1302.58 1544.39 Q1302.58 1550.79 1305.28 1554.48 Q1308.02 1558.14 1312.76 1558.14 Q1317.44 1558.14 1320.18 1554.45 Q1322.92 1550.76 1322.92 1544.39 Q1322.92 1538.06 1320.18 1534.37 Q1317.44 1530.64 1312.76 1530.64 M1312.76 1525.68 Q1320.4 1525.68 1324.76 1530.64 Q1329.12 1535.61 1329.12 1544.39 Q1329.12 1553.15 1324.76 1558.14 Q1320.4 1563.11 1312.76 1563.11 Q1305.09 1563.11 1300.73 1558.14 Q1296.4 1553.15 1296.4 1544.39 Q1296.4 1535.61 1300.73 1530.64 Q1305.09 1525.68 1312.76 1525.68 Z" fill="#000000" fill-rule="evenodd" fill-opacity="1" /><path clip-path="url(#clip010)" d="M 0 0 M1357.99 1527.59 L1357.99 1533.13 Q1355.51 1531.85 1352.83 1531.22 Q1350.16 1530.58 1347.3 1530.58 Q1342.94 1530.58 1340.74 1531.92 Q1338.57 1533.25 1338.57 1535.93 Q1338.57 1537.96 1340.13 1539.14 Q1341.69 1540.29 1346.4 1541.34 L1348.41 1541.78 Q1354.65 1543.12 1357.26 1545.57 Q1359.9 1547.99 1359.9 1552.35 Q1359.9 1557.32 1355.95 1560.21 Q1352.04 1563.11 1345.16 1563.11 Q1342.3 1563.11 1339.18 1562.54 Q1336.09 1561.99 1332.65 1560.88 L1332.65 1554.83 Q1335.9 1556.52 1339.05 1557.38 Q1342.2 1558.21 1345.29 1558.21 Q1349.43 1558.21 1351.66 1556.81 Q1353.88 1555.37 1353.88 1552.8 Q1353.88 1550.41 1352.26 1549.14 Q1350.67 1547.86 1345.23 1546.68 L1343.19 1546.21 Q1337.75 1545.06 1335.33 1542.71 Q1332.91 1540.32 1332.91 1536.18 Q1332.91 1531.15 1336.47 1528.42 Q1340.04 1525.68 1346.6 1525.68 Q1349.84 1525.68 1352.71 1526.16 Q1355.57 1526.63 1357.99 1527.59 Z" fill="#000000" fill-rule="evenodd" fill-opacity="1" /><path clip-path="url(#clip010)" d="M 0 0 M1396.53 1542.9 L1396.53 1545.76 L1369.61 1545.76 Q1369.99 1551.81 1373.24 1554.99 Q1376.51 1558.14 1382.34 1558.14 Q1385.71 1558.14 1388.86 1557.32 Q1392.05 1556.49 1395.17 1554.83 L1395.17 1560.37 Q1392.02 1561.71 1388.7 1562.41 Q1385.39 1563.11 1381.99 1563.11 Q1373.46 1563.11 1368.46 1558.14 Q1363.5 1553.18 1363.5 1544.71 Q1363.5 1535.96 1368.21 1530.83 Q1372.95 1525.68 1380.97 1525.68 Q1388.16 1525.68 1392.33 1530.33 Q1396.53 1534.94 1396.53 1542.9 M1390.68 1541.18 Q1390.61 1536.37 1387.97 1533.51 Q1385.36 1530.64 1381.03 1530.64 Q1376.13 1530.64 1373.17 1533.41 Q1370.24 1536.18 1369.8 1541.21 L1390.68 1541.18 Z" fill="#000000" fill-rule="evenodd" fill-opacity="1" /><polyline clip-path="url(#clip012)" style="stroke:#000000; stroke-width:2; stroke-opacity:0.1; fill:none" points="
  224.866,1395.99 2352.76,1395.99 
  "/>
<polyline clip-path="url(#clip012)" style="stroke:#000000; stroke-width:2; stroke-opacity:0.1; fill:none" points="
  224.866,1156.29 2352.76,1156.29 
  "/>
<polyline clip-path="url(#clip012)" style="stroke:#000000; stroke-width:2; stroke-opacity:0.1; fill:none" points="
  224.866,916.597 2352.76,916.597 
  "/>
<polyline clip-path="url(#clip012)" style="stroke:#000000; stroke-width:2; stroke-opacity:0.1; fill:none" points="
  224.866,676.902 2352.76,676.902 
  "/>
<polyline clip-path="url(#clip012)" style="stroke:#000000; stroke-width:2; stroke-opacity:0.1; fill:none" points="
  224.866,437.206 2352.76,437.206 
  "/>
<polyline clip-path="url(#clip012)" style="stroke:#000000; stroke-width:2; stroke-opacity:0.1; fill:none" points="
  224.866,197.511 2352.76,197.511 
  "/>
<polyline clip-path="url(#clip010)" style="stroke:#000000; stroke-width:4; stroke-opacity:1; fill:none" points="
  224.866,1410.9 224.866,47.2441 
  "/>
<polyline clip-path="url(#clip010)" style="stroke:#000000; stroke-width:4; stroke-opacity:1; fill:none" points="
  224.866,1395.99 250.401,1395.99 
  "/>
<polyline clip-path="url(#clip010)" style="stroke:#000000; stroke-width:4; stroke-opacity:1; fill:none" points="
  224.866,1156.29 250.401,1156.29 
  "/>
<polyline clip-path="url(#clip010)" style="stroke:#000000; stroke-width:4; stroke-opacity:1; fill:none" points="
  224.866,916.597 250.401,916.597 
  "/>
<polyline clip-path="url(#clip010)" style="stroke:#000000; stroke-width:4; stroke-opacity:1; fill:none" points="
  224.866,676.902 250.401,676.902 
  "/>
<polyline clip-path="url(#clip010)" style="stroke:#000000; stroke-width:4; stroke-opacity:1; fill:none" points="
  224.866,437.206 250.401,437.206 
  "/>
<polyline clip-path="url(#clip010)" style="stroke:#000000; stroke-width:4; stroke-opacity:1; fill:none" points="
  224.866,197.511 250.401,197.511 
  "/>
<path clip-path="url(#clip010)" d="M 0 0 M176.922 1381.79 Q173.311 1381.79 171.482 1385.35 Q169.677 1388.89 169.677 1396.02 Q169.677 1403.13 171.482 1406.69 Q173.311 1410.24 176.922 1410.24 Q180.556 1410.24 182.362 1406.69 Q184.19 1403.13 184.19 1396.02 Q184.19 1388.89 182.362 1385.35 Q180.556 1381.79 176.922 1381.79 M176.922 1378.08 Q182.732 1378.08 185.788 1382.69 Q188.866 1387.27 188.866 1396.02 Q188.866 1404.75 185.788 1409.36 Q182.732 1413.94 176.922 1413.94 Q171.112 1413.94 168.033 1409.36 Q164.977 1404.75 164.977 1396.02 Q164.977 1387.27 168.033 1382.69 Q171.112 1378.08 176.922 1378.08 Z" fill="#000000" fill-rule="evenodd" fill-opacity="1" /><path clip-path="url(#clip010)" d="M 0 0 M146.529 1169.64 L162.848 1169.64 L162.848 1173.57 L140.904 1173.57 L140.904 1169.64 Q143.566 1166.88 148.149 1162.25 Q152.755 1157.6 153.936 1156.26 Q156.181 1153.73 157.061 1152 Q157.964 1150.24 157.964 1148.55 Q157.964 1145.79 156.019 1144.06 Q154.098 1142.32 150.996 1142.32 Q148.797 1142.32 146.343 1143.09 Q143.913 1143.85 141.135 1145.4 L141.135 1140.68 Q143.959 1139.54 146.413 1138.97 Q148.866 1138.39 150.903 1138.39 Q156.274 1138.39 159.468 1141.07 Q162.663 1143.76 162.663 1148.25 Q162.663 1150.38 161.852 1152.3 Q161.065 1154.2 158.959 1156.79 Q158.38 1157.46 155.278 1160.68 Q152.177 1163.87 146.529 1169.64 Z" fill="#000000" fill-rule="evenodd" fill-opacity="1" /><path clip-path="url(#clip010)" d="M 0 0 M167.964 1139.01 L186.32 1139.01 L186.32 1142.95 L172.246 1142.95 L172.246 1151.42 Q173.264 1151.07 174.283 1150.91 Q175.301 1150.73 176.32 1150.73 Q182.107 1150.73 185.487 1153.9 Q188.866 1157.07 188.866 1162.48 Q188.866 1168.06 185.394 1171.17 Q181.922 1174.24 175.602 1174.24 Q173.427 1174.24 171.158 1173.87 Q168.913 1173.5 166.505 1172.76 L166.505 1168.06 Q168.589 1169.2 170.811 1169.75 Q173.033 1170.31 175.51 1170.31 Q179.514 1170.31 181.852 1168.2 Q184.19 1166.1 184.19 1162.48 Q184.19 1158.87 181.852 1156.77 Q179.514 1154.66 175.51 1154.66 Q173.635 1154.66 171.76 1155.08 Q169.908 1155.49 167.964 1156.37 L167.964 1139.01 Z" fill="#000000" fill-rule="evenodd" fill-opacity="1" /><path clip-path="url(#clip010)" d="M 0 0 M140.95 899.317 L159.306 899.317 L159.306 903.252 L145.232 903.252 L145.232 911.724 Q146.251 911.377 147.269 911.215 Q148.288 911.03 149.306 911.03 Q155.093 911.03 158.473 914.201 Q161.852 917.373 161.852 922.789 Q161.852 928.368 158.38 931.47 Q154.908 934.548 148.589 934.548 Q146.413 934.548 144.144 934.178 Q141.899 933.808 139.492 933.067 L139.492 928.368 Q141.575 929.502 143.797 930.058 Q146.019 930.613 148.496 930.613 Q152.501 930.613 154.839 928.507 Q157.177 926.4 157.177 922.789 Q157.177 919.178 154.839 917.072 Q152.501 914.965 148.496 914.965 Q146.621 914.965 144.746 915.382 Q142.894 915.798 140.95 916.678 L140.95 899.317 Z" fill="#000000" fill-rule="evenodd" fill-opacity="1" /><path clip-path="url(#clip010)" d="M 0 0 M176.922 902.396 Q173.311 902.396 171.482 905.961 Q169.677 909.502 169.677 916.632 Q169.677 923.738 171.482 927.303 Q173.311 930.845 176.922 930.845 Q180.556 930.845 182.362 927.303 Q184.19 923.738 184.19 916.632 Q184.19 909.502 182.362 905.961 Q180.556 902.396 176.922 902.396 M176.922 898.692 Q182.732 898.692 185.788 903.299 Q188.866 907.882 188.866 916.632 Q188.866 925.359 185.788 929.965 Q182.732 934.548 176.922 934.548 Q171.112 934.548 168.033 929.965 Q164.977 925.359 164.977 916.632 Q164.977 907.882 168.033 903.299 Q171.112 898.692 176.922 898.692 Z" fill="#000000" fill-rule="evenodd" fill-opacity="1" /><path clip-path="url(#clip010)" d="M 0 0 M140.626 659.622 L162.848 659.622 L162.848 661.612 L150.302 694.182 L145.417 694.182 L157.223 663.557 L140.626 663.557 L140.626 659.622 Z" fill="#000000" fill-rule="evenodd" fill-opacity="1" /><path clip-path="url(#clip010)" d="M 0 0 M167.964 659.622 L186.32 659.622 L186.32 663.557 L172.246 663.557 L172.246 672.029 Q173.264 671.682 174.283 671.52 Q175.301 671.335 176.32 671.335 Q182.107 671.335 185.487 674.506 Q188.866 677.677 188.866 683.094 Q188.866 688.672 185.394 691.774 Q181.922 694.853 175.602 694.853 Q173.427 694.853 171.158 694.483 Q168.913 694.112 166.505 693.371 L166.505 688.672 Q168.589 689.807 170.811 690.362 Q173.033 690.918 175.51 690.918 Q179.514 690.918 181.852 688.811 Q184.19 686.705 184.19 683.094 Q184.19 679.483 181.852 677.376 Q179.514 675.27 175.51 675.27 Q173.635 675.27 171.76 675.686 Q169.908 676.103 167.964 676.983 L167.964 659.622 Z" fill="#000000" fill-rule="evenodd" fill-opacity="1" /><path clip-path="url(#clip010)" d="M 0 0 M114.931 450.551 L122.57 450.551 L122.57 424.186 L114.26 425.852 L114.26 421.593 L122.524 419.926 L127.2 419.926 L127.2 450.551 L134.839 450.551 L134.839 454.486 L114.931 454.486 L114.931 450.551 Z" fill="#000000" fill-rule="evenodd" fill-opacity="1" /><path clip-path="url(#clip010)" d="M 0 0 M149.908 423.005 Q146.297 423.005 144.468 426.57 Q142.663 430.111 142.663 437.241 Q142.663 444.347 144.468 447.912 Q146.297 451.454 149.908 451.454 Q153.542 451.454 155.348 447.912 Q157.177 444.347 157.177 437.241 Q157.177 430.111 155.348 426.57 Q153.542 423.005 149.908 423.005 M149.908 419.301 Q155.718 419.301 158.774 423.908 Q161.852 428.491 161.852 437.241 Q161.852 445.968 158.774 450.574 Q155.718 455.158 149.908 455.158 Q144.098 455.158 141.019 450.574 Q137.964 445.968 137.964 437.241 Q137.964 428.491 141.019 423.908 Q144.098 419.301 149.908 419.301 Z" fill="#000000" fill-rule="evenodd" fill-opacity="1" /><path clip-path="url(#clip010)" d="M 0 0 M176.922 423.005 Q173.311 423.005 171.482 426.57 Q169.677 430.111 169.677 437.241 Q169.677 444.347 171.482 447.912 Q173.311 451.454 176.922 451.454 Q180.556 451.454 182.362 447.912 Q184.19 444.347 184.19 437.241 Q184.19 430.111 182.362 426.57 Q180.556 423.005 176.922 423.005 M176.922 419.301 Q182.732 419.301 185.788 423.908 Q188.866 428.491 188.866 437.241 Q188.866 445.968 185.788 450.574 Q182.732 455.158 176.922 455.158 Q171.112 455.158 168.033 450.574 Q164.977 445.968 164.977 437.241 Q164.977 428.491 168.033 423.908 Q171.112 419.301 176.922 419.301 Z" fill="#000000" fill-rule="evenodd" fill-opacity="1" /><path clip-path="url(#clip010)" d="M 0 0 M117.524 210.856 L125.163 210.856 L125.163 184.49 L116.853 186.157 L116.853 181.898 L125.117 180.231 L129.792 180.231 L129.792 210.856 L137.431 210.856 L137.431 214.791 L117.524 214.791 L117.524 210.856 Z" fill="#000000" fill-rule="evenodd" fill-opacity="1" /><path clip-path="url(#clip010)" d="M 0 0 M146.529 210.856 L162.848 210.856 L162.848 214.791 L140.904 214.791 L140.904 210.856 Q143.566 208.101 148.149 203.471 Q152.755 198.819 153.936 197.476 Q156.181 194.953 157.061 193.217 Q157.964 191.458 157.964 189.768 Q157.964 187.013 156.019 185.277 Q154.098 183.541 150.996 183.541 Q148.797 183.541 146.343 184.305 Q143.913 185.069 141.135 186.62 L141.135 181.898 Q143.959 180.763 146.413 180.185 Q148.866 179.606 150.903 179.606 Q156.274 179.606 159.468 182.291 Q162.663 184.976 162.663 189.467 Q162.663 191.597 161.852 193.518 Q161.065 195.416 158.959 198.009 Q158.38 198.68 155.278 201.897 Q152.177 205.092 146.529 210.856 Z" fill="#000000" fill-rule="evenodd" fill-opacity="1" /><path clip-path="url(#clip010)" d="M 0 0 M167.964 180.231 L186.32 180.231 L186.32 184.166 L172.246 184.166 L172.246 192.638 Q173.264 192.291 174.283 192.129 Q175.301 191.944 176.32 191.944 Q182.107 191.944 185.487 195.115 Q188.866 198.286 188.866 203.703 Q188.866 209.282 185.394 212.383 Q181.922 215.462 175.602 215.462 Q173.427 215.462 171.158 215.092 Q168.913 214.721 166.505 213.981 L166.505 209.282 Q168.589 210.416 170.811 210.971 Q173.033 211.527 175.51 211.527 Q179.514 211.527 181.852 209.421 Q184.19 207.314 184.19 203.703 Q184.19 200.092 181.852 197.985 Q179.514 195.879 175.51 195.879 Q173.635 195.879 171.76 196.296 Q169.908 196.712 167.964 197.592 L167.964 180.231 Z" fill="#000000" fill-rule="evenodd" fill-opacity="1" /><path clip-path="url(#clip010)" d="M 0 0 M59.1993 815.533 Q55.2526 813.336 53.3747 810.281 Q51.4968 807.225 51.4968 803.088 Q51.4968 797.518 55.4117 794.494 Q59.2948 791.47 66.4881 791.47 L88.0042 791.47 L88.0042 797.358 L66.679 797.358 Q61.5546 797.358 59.072 799.173 Q56.5894 800.987 56.5894 804.711 Q56.5894 809.262 59.6131 811.904 Q62.6368 814.546 67.8567 814.546 L88.0042 814.546 L88.0042 820.434 L66.679 820.434 Q61.5228 820.434 59.072 822.248 Q56.5894 824.063 56.5894 827.85 Q56.5894 832.338 59.6449 834.98 Q62.6686 837.622 67.8567 837.622 L88.0042 837.622 L88.0042 843.51 L52.3562 843.51 L52.3562 837.622 L57.8944 837.622 Q54.616 835.616 53.0564 832.815 Q51.4968 830.015 51.4968 826.163 Q51.4968 822.28 53.4702 819.575 Q55.4436 816.838 59.1993 815.533 Z" fill="#000000" fill-rule="evenodd" fill-opacity="1" /><path clip-path="url(#clip010)" d="M 0 0 M52.3562 785.327 L52.3562 779.471 L88.0042 779.471 L88.0042 785.327 L52.3562 785.327 M38.479 785.327 L38.479 779.471 L45.895 779.471 L45.895 785.327 L38.479 785.327 Z" fill="#000000" fill-rule="evenodd" fill-opacity="1" /><path clip-path="url(#clip010)" d="M 0 0 M66.4881 743.696 L88.0042 743.696 L88.0042 749.552 L66.679 749.552 Q61.6183 749.552 59.1038 751.525 Q56.5894 753.499 56.5894 757.446 Q56.5894 762.188 59.6131 764.925 Q62.6368 767.662 67.8567 767.662 L88.0042 767.662 L88.0042 773.551 L52.3562 773.551 L52.3562 767.662 L57.8944 767.662 Q54.6797 765.562 53.0883 762.729 Q51.4968 759.864 51.4968 756.141 Q51.4968 749.998 55.3163 746.847 Q59.1038 743.696 66.4881 743.696 Z" fill="#000000" fill-rule="evenodd" fill-opacity="1" /><path clip-path="url(#clip010)" d="M 0 0 M98.8259 710.467 L103.377 710.467 L103.377 744.332 L98.8259 744.332 L98.8259 710.467 Z" fill="#000000" fill-rule="evenodd" fill-opacity="1" /><path clip-path="url(#clip010)" d="M 0 0 M57.7671 680.866 L38.479 680.866 L38.479 675.01 L88.0042 675.01 L88.0042 680.866 L82.657 680.866 Q85.8398 682.712 87.3994 685.545 Q88.9272 688.346 88.9272 692.292 Q88.9272 698.754 83.771 702.828 Q78.6147 706.87 70.212 706.87 Q61.8093 706.87 56.6531 702.828 Q51.4968 698.754 51.4968 692.292 Q51.4968 688.346 53.0564 685.545 Q54.5842 682.712 57.7671 680.866 M70.212 700.823 Q76.6732 700.823 80.3653 698.181 Q84.0256 695.507 84.0256 690.86 Q84.0256 686.213 80.3653 683.54 Q76.6732 680.866 70.212 680.866 Q63.7508 680.866 60.0905 683.54 Q56.3984 686.213 56.3984 690.86 Q56.3984 695.507 60.0905 698.181 Q63.7508 700.823 70.212 700.823 Z" fill="#000000" fill-rule="evenodd" fill-opacity="1" /><path clip-path="url(#clip010)" d="M 0 0 M52.3562 668.867 L52.3562 663.01 L88.0042 663.01 L88.0042 668.867 L52.3562 668.867 M38.479 668.867 L38.479 663.01 L45.895 663.01 L45.895 668.867 L38.479 668.867 Z" fill="#000000" fill-rule="evenodd" fill-opacity="1" /><path clip-path="url(#clip010)" d="M 0 0 M38.479 638.821 L43.3487 638.821 L43.3487 644.422 Q43.3487 647.573 44.6219 648.815 Q45.895 650.024 49.2052 650.024 L52.3562 650.024 L52.3562 640.38 L56.9077 640.38 L56.9077 650.024 L88.0042 650.024 L88.0042 655.912 L56.9077 655.912 L56.9077 661.514 L52.3562 661.514 L52.3562 655.912 L49.8736 655.912 Q43.9216 655.912 41.2162 653.143 Q38.479 650.374 38.479 644.359 L38.479 638.821 Z" fill="#000000" fill-rule="evenodd" fill-opacity="1" /><path clip-path="url(#clip010)" d="M 0 0 M38.479 614.631 L43.3487 614.631 L43.3487 620.233 Q43.3487 623.384 44.6219 624.625 Q45.895 625.835 49.2052 625.835 L52.3562 625.835 L52.3562 616.19 L56.9077 616.19 L56.9077 625.835 L88.0042 625.835 L88.0042 631.723 L56.9077 631.723 L56.9077 637.325 L52.3562 637.325 L52.3562 631.723 L49.8736 631.723 Q43.9216 631.723 41.2162 628.954 Q38.479 626.185 38.479 620.169 L38.479 614.631 Z" fill="#000000" fill-rule="evenodd" fill-opacity="1" /><polyline clip-path="url(#clip012)" style="stroke:#009af9; stroke-width:20; stroke-opacity:1; fill:none" stroke-dasharray="80, 50" points="
  285.09,85.838 452.376,95.2512 619.663,634.08 619.663,451.469 786.95,620.551 954.237,990.282 1054.95,874.842 1121.52,935.347 1121.52,712.222 1188.09,1063.46 
  1222.24,874.72 1288.81,1372.3 1355.38,1086.46 1389.53,1195.49 1456.1,1364.69 1522.67,1319.97 1556.81,1199.5 1623.38,1367.5 1689.96,1338.11 1724.1,1217.04 
  1790.67,1281.52 1790.67,1358.01 1857.24,1361.46 1957.96,1351.42 2125.25,1302.91 2292.53,1283.95 
  "/>
<path clip-path="url(#clip010)" d="
M1994.38 213.659 L2281.83 213.659 L2281.83 92.6992 L1994.38 92.6992  Z
  " fill="#ffffff" fill-rule="evenodd" fill-opacity="1"/>
<polyline clip-path="url(#clip010)" style="stroke:#000000; stroke-width:4; stroke-opacity:1; fill:none" points="
  1994.38,213.659 2281.83,213.659 2281.83,92.6992 1994.38,92.6992 1994.38,213.659 
  "/>
<polyline clip-path="url(#clip010)" style="stroke:#009af9; stroke-width:4; stroke-opacity:1; fill:none" stroke-dasharray="16, 10" points="
  2018.02,153.179 2159.88,153.179 
  "/>
<path clip-path="url(#clip010)" d="M 0 0 M2197.36 172.867 Q2195.56 177.496 2193.85 178.908 Q2192.13 180.32 2189.26 180.32 L2185.86 180.32 L2185.86 176.755 L2188.36 176.755 Q2190.12 176.755 2191.09 175.922 Q2192.06 175.089 2193.24 171.987 L2194.01 170.043 L2183.52 144.533 L2188.04 144.533 L2196.14 164.811 L2204.24 144.533 L2208.75 144.533 L2197.36 172.867 Z" fill="#000000" fill-rule="evenodd" fill-opacity="1" /><path clip-path="url(#clip010)" d="M 0 0 M2214.63 166.524 L2222.27 166.524 L2222.27 140.158 L2213.96 141.825 L2213.96 137.566 L2222.23 135.899 L2226.9 135.899 L2226.9 166.524 L2234.54 166.524 L2234.54 170.459 L2214.63 170.459 L2214.63 166.524 Z" fill="#000000" fill-rule="evenodd" fill-opacity="1" /></svg>
