<?xml version="1.0" encoding="utf-8"?>
<svg xmlns="http://www.w3.org/2000/svg" xmlns:xlink="http://www.w3.org/1999/xlink" width="600" height="400" viewBox="0 0 2400 1600">
<defs>
  <clipPath id="clip720">
    <rect x="0" y="0" width="2400" height="1600"/>
  </clipPath>
</defs>
<path clip-path="url(#clip720)" d="
M0 1600 L2400 1600 L2400 0 L0 0  Z
  " fill="#ffffff" fill-rule="evenodd" fill-opacity="1"/>
<defs>
  <clipPath id="clip721">
    <rect x="480" y="0" width="1681" height="1600"/>
  </clipPath>
</defs>
<path clip-path="url(#clip720)" d="
M236.232 1410.9 L2352.76 1410.9 L2352.76 47.2441 L236.232 47.2441  Z
  " fill="#ffffff" fill-rule="evenodd" fill-opacity="1"/>
<defs>
  <clipPath id="clip722">
    <rect x="236" y="47" width="2118" height="1365"/>
  </clipPath>
</defs>
<polyline clip-path="url(#clip722)" style="stroke:#000000; stroke-width:2; stroke-opacity:0.1; fill:none" points="
  451.187,1410.9 451.187,47.2441 
  "/>
<polyline clip-path="url(#clip722)" style="stroke:#000000; stroke-width:2; stroke-opacity:0.1; fill:none" points="
  758.131,1410.9 758.131,47.2441 
  "/>
<polyline clip-path="url(#clip722)" style="stroke:#000000; stroke-width:2; stroke-opacity:0.1; fill:none" points="
  1065.08,1410.9 1065.08,47.2441 
  "/>
<polyline clip-path="url(#clip722)" style="stroke:#000000; stroke-width:2; stroke-opacity:0.1; fill:none" points="
  1372.02,1410.9 1372.02,47.2441 
  "/>
<polyline clip-path="url(#clip722)" style="stroke:#000000; stroke-width:2; stroke-opacity:0.1; fill:none" points="
  1678.97,1410.9 1678.97,47.2441 
  "/>
<polyline clip-path="url(#clip722)" style="stroke:#000000; stroke-width:2; stroke-opacity:0.1; fill:none" points="
  1985.91,1410.9 1985.91,47.2441 
  "/>
<polyline clip-path="url(#clip722)" style="stroke:#000000; stroke-width:2; stroke-opacity:0.1; fill:none" points="
  2292.85,1410.9 2292.85,47.2441 
  "/>
<polyline clip-path="url(#clip720)" style="stroke:#000000; stroke-width:4; stroke-opacity:1; fill:none" points="
  236.232,1410.9 2352.76,1410.9 
  "/>
<polyline clip-path="url(#clip720)" style="stroke:#000000; stroke-width:4; stroke-opacity:1; fill:none" points="
  451.187,1410.9 451.187,1394.53 
  "/>
<polyline clip-path="url(#clip720)" style="stroke:#000000; stroke-width:4; stroke-opacity:1; fill:none" points="
  758.131,1410.9 758.131,1394.53 
  "/>
<polyline clip-path="url(#clip720)" style="stroke:#000000; stroke-width:4; stroke-opacity:1; fill:none" points="
  1065.08,1410.9 1065.08,1394.53 
  "/>
<polyline clip-path="url(#clip720)" style="stroke:#000000; stroke-width:4; stroke-opacity:1; fill:none" points="
  1372.02,1410.9 1372.02,1394.53 
  "/>
<polyline clip-path="url(#clip720)" style="stroke:#000000; stroke-width:4; stroke-opacity:1; fill:none" points="
  1678.97,1410.9 1678.97,1394.53 
  "/>
<polyline clip-path="url(#clip720)" style="stroke:#000000; stroke-width:4; stroke-opacity:1; fill:none" points="
  1985.91,1410.9 1985.91,1394.53 
  "/>
<polyline clip-path="url(#clip720)" style="stroke:#000000; stroke-width:4; stroke-opacity:1; fill:none" points="
  2292.85,1410.9 2292.85,1394.53 
  "/>
<path clip-path="url(#clip720)" d="M 0 0 M390.662 1489.17 L398.301 1489.17 L398.301 1462.8 L389.991 1464.47 L389.991 1460.21 L398.255 1458.54 L402.931 1458.54 L402.931 1489.17 L410.57 1489.17 L410.57 1493.1 L390.662 1493.1 L390.662 1489.17 Z" fill="#000000" fill-rule="evenodd" fill-opacity="1" /><path clip-path="url(#clip720)" d="M 0 0 M425.639 1461.62 Q422.028 1461.62 420.199 1465.19 Q418.394 1468.73 418.394 1475.86 Q418.394 1482.97 420.199 1486.53 Q422.028 1490.07 425.639 1490.07 Q429.273 1490.07 431.079 1486.53 Q432.908 1482.97 432.908 1475.86 Q432.908 1468.73 431.079 1465.19 Q429.273 1461.62 425.639 1461.62 M425.639 1457.92 Q431.449 1457.92 434.505 1462.53 Q437.584 1467.11 437.584 1475.86 Q437.584 1484.59 434.505 1489.19 Q431.449 1493.78 425.639 1493.78 Q419.829 1493.78 416.75 1489.19 Q413.695 1484.59 413.695 1475.86 Q413.695 1467.11 416.75 1462.53 Q419.829 1457.92 425.639 1457.92 Z" fill="#000000" fill-rule="evenodd" fill-opacity="1" /><path clip-path="url(#clip720)" d="M 0 0 M437.584 1452.02 L461.695 1452.02 L461.695 1455.22 L437.584 1455.22 L437.584 1452.02 Z" fill="#000000" fill-rule="evenodd" fill-opacity="1" /><path clip-path="url(#clip720)" d="M 0 0 M473.939 1440.11 Q471.005 1440.11 469.519 1443.01 Q468.052 1445.89 468.052 1451.68 Q468.052 1457.46 469.519 1460.35 Q471.005 1463.23 473.939 1463.23 Q476.892 1463.23 478.359 1460.35 Q479.845 1457.46 479.845 1451.68 Q479.845 1445.89 478.359 1443.01 Q476.892 1440.11 473.939 1440.11 M473.939 1437.11 Q478.66 1437.11 481.142 1440.85 Q483.644 1444.57 483.644 1451.68 Q483.644 1458.77 481.142 1462.51 Q478.66 1466.24 473.939 1466.24 Q469.218 1466.24 466.717 1462.51 Q464.234 1458.77 464.234 1451.68 Q464.234 1444.57 466.717 1440.85 Q469.218 1437.11 473.939 1437.11 Z" fill="#000000" fill-rule="evenodd" fill-opacity="1" /><path clip-path="url(#clip720)" d="M 0 0 M487.763 1460.92 L491.731 1460.92 L491.731 1465.69 L487.763 1465.69 L487.763 1460.92 Z" fill="#000000" fill-rule="evenodd" fill-opacity="1" /><path clip-path="url(#clip720)" d="M 0 0 M499.123 1462.5 L512.382 1462.5 L512.382 1465.69 L494.552 1465.69 L494.552 1462.5 Q496.715 1460.26 500.439 1456.5 Q504.182 1452.72 505.141 1451.63 Q506.965 1449.58 507.68 1448.16 Q508.414 1446.74 508.414 1445.36 Q508.414 1443.12 506.834 1441.71 Q505.273 1440.3 502.752 1440.3 Q500.966 1440.3 498.972 1440.92 Q496.997 1441.54 494.74 1442.8 L494.74 1438.97 Q497.035 1438.05 499.029 1437.58 Q501.022 1437.11 502.677 1437.11 Q507.041 1437.11 509.636 1439.29 Q512.232 1441.47 512.232 1445.12 Q512.232 1446.85 511.573 1448.41 Q510.934 1449.95 509.222 1452.06 Q508.752 1452.6 506.232 1455.22 Q503.712 1457.81 499.123 1462.5 Z" fill="#000000" fill-rule="evenodd" fill-opacity="1" /><path clip-path="url(#clip720)" d="M 0 0 M710.284 1489.17 L717.922 1489.17 L717.922 1462.8 L709.612 1464.47 L709.612 1460.21 L717.876 1458.54 L722.552 1458.54 L722.552 1489.17 L730.191 1489.17 L730.191 1493.1 L710.284 1493.1 L710.284 1489.17 Z" fill="#000000" fill-rule="evenodd" fill-opacity="1" /><path clip-path="url(#clip720)" d="M 0 0 M745.26 1461.62 Q741.649 1461.62 739.82 1465.19 Q738.015 1468.73 738.015 1475.86 Q738.015 1482.97 739.82 1486.53 Q741.649 1490.07 745.26 1490.07 Q748.894 1490.07 750.7 1486.53 Q752.529 1482.97 752.529 1475.86 Q752.529 1468.73 750.7 1465.19 Q748.894 1461.62 745.26 1461.62 M745.26 1457.92 Q751.07 1457.92 754.126 1462.53 Q757.205 1467.11 757.205 1475.86 Q757.205 1484.59 754.126 1489.19 Q751.07 1493.78 745.26 1493.78 Q739.45 1493.78 736.371 1489.19 Q733.316 1484.59 733.316 1475.86 Q733.316 1467.11 736.371 1462.53 Q739.45 1457.92 745.26 1457.92 Z" fill="#000000" fill-rule="evenodd" fill-opacity="1" /><path clip-path="url(#clip720)" d="M 0 0 M766.909 1440.11 Q763.975 1440.11 762.49 1443.01 Q761.023 1445.89 761.023 1451.68 Q761.023 1457.46 762.49 1460.35 Q763.975 1463.23 766.909 1463.23 Q769.862 1463.23 771.329 1460.35 Q772.815 1457.46 772.815 1451.68 Q772.815 1445.89 771.329 1443.01 Q769.862 1440.11 766.909 1440.11 M766.909 1437.11 Q771.63 1437.11 774.113 1440.85 Q776.614 1444.57 776.614 1451.68 Q776.614 1458.77 774.113 1462.51 Q771.63 1466.24 766.909 1466.24 Q762.189 1466.24 759.687 1462.51 Q757.205 1458.77 757.205 1451.68 Q757.205 1444.57 759.687 1440.85 Q762.189 1437.11 766.909 1437.11 Z" fill="#000000" fill-rule="evenodd" fill-opacity="1" /><path clip-path="url(#clip720)" d="M 0 0 M780.733 1460.92 L784.702 1460.92 L784.702 1465.69 L780.733 1465.69 L780.733 1460.92 Z" fill="#000000" fill-rule="evenodd" fill-opacity="1" /><path clip-path="url(#clip720)" d="M 0 0 M796.945 1440.11 Q794.011 1440.11 792.526 1443.01 Q791.059 1445.89 791.059 1451.68 Q791.059 1457.46 792.526 1460.35 Q794.011 1463.23 796.945 1463.23 Q799.898 1463.23 801.365 1460.35 Q802.851 1457.46 802.851 1451.68 Q802.851 1445.89 801.365 1443.01 Q799.898 1440.11 796.945 1440.11 M796.945 1437.11 Q801.666 1437.11 804.149 1440.85 Q806.65 1444.57 806.65 1451.68 Q806.65 1458.77 804.149 1462.51 Q801.666 1466.24 796.945 1466.24 Q792.225 1466.24 789.723 1462.51 Q787.241 1458.77 787.241 1451.68 Q787.241 1444.57 789.723 1440.85 Q792.225 1437.11 796.945 1437.11 Z" fill="#000000" fill-rule="evenodd" fill-opacity="1" /><path clip-path="url(#clip720)" d="M 0 0 M1017.88 1489.17 L1025.52 1489.17 L1025.52 1462.8 L1017.21 1464.47 L1017.21 1460.21 L1025.47 1458.54 L1030.15 1458.54 L1030.15 1489.17 L1037.78 1489.17 L1037.78 1493.1 L1017.88 1493.1 L1017.88 1489.17 Z" fill="#000000" fill-rule="evenodd" fill-opacity="1" /><path clip-path="url(#clip720)" d="M 0 0 M1052.85 1461.62 Q1049.24 1461.62 1047.41 1465.19 Q1045.61 1468.73 1045.61 1475.86 Q1045.61 1482.97 1047.41 1486.53 Q1049.24 1490.07 1052.85 1490.07 Q1056.49 1490.07 1058.29 1486.53 Q1060.12 1482.97 1060.12 1475.86 Q1060.12 1468.73 1058.29 1465.19 Q1056.49 1461.62 1052.85 1461.62 M1052.85 1457.92 Q1058.66 1457.92 1061.72 1462.53 Q1064.8 1467.11 1064.8 1475.86 Q1064.8 1484.59 1061.72 1489.19 Q1058.66 1493.78 1052.85 1493.78 Q1047.04 1493.78 1043.96 1489.19 Q1040.91 1484.59 1040.91 1475.86 Q1040.91 1467.11 1043.96 1462.53 Q1047.04 1457.92 1052.85 1457.92 Z" fill="#000000" fill-rule="evenodd" fill-opacity="1" /><path clip-path="url(#clip720)" d="M 0 0 M1074.5 1440.11 Q1071.57 1440.11 1070.08 1443.01 Q1068.62 1445.89 1068.62 1451.68 Q1068.62 1457.46 1070.08 1460.35 Q1071.57 1463.23 1074.5 1463.23 Q1077.46 1463.23 1078.92 1460.35 Q1080.41 1457.46 1080.41 1451.68 Q1080.41 1445.89 1078.92 1443.01 Q1077.46 1440.11 1074.5 1440.11 M1074.5 1437.11 Q1079.22 1437.11 1081.71 1440.85 Q1084.21 1444.57 1084.21 1451.68 Q1084.21 1458.77 1081.71 1462.51 Q1079.22 1466.24 1074.5 1466.24 Q1069.78 1466.24 1067.28 1462.51 Q1064.8 1458.77 1064.8 1451.68 Q1064.8 1444.57 1067.28 1440.85 Q1069.78 1437.11 1074.5 1437.11 Z" fill="#000000" fill-rule="evenodd" fill-opacity="1" /><path clip-path="url(#clip720)" d="M 0 0 M1088.33 1460.92 L1092.3 1460.92 L1092.3 1465.69 L1088.33 1465.69 L1088.33 1460.92 Z" fill="#000000" fill-rule="evenodd" fill-opacity="1" /><path clip-path="url(#clip720)" d="M 0 0 M1099.69 1462.5 L1112.95 1462.5 L1112.95 1465.69 L1095.12 1465.69 L1095.12 1462.5 Q1097.28 1460.26 1101 1456.5 Q1104.75 1452.72 1105.7 1451.63 Q1107.53 1449.58 1108.24 1448.16 Q1108.98 1446.74 1108.98 1445.36 Q1108.98 1443.12 1107.4 1441.71 Q1105.84 1440.3 1103.32 1440.3 Q1101.53 1440.3 1099.54 1440.92 Q1097.56 1441.54 1095.3 1442.8 L1095.3 1438.97 Q1097.6 1438.05 1099.59 1437.58 Q1101.59 1437.11 1103.24 1437.11 Q1107.6 1437.11 1110.2 1439.29 Q1112.8 1441.47 1112.8 1445.12 Q1112.8 1446.85 1112.14 1448.41 Q1111.5 1449.95 1109.79 1452.06 Q1109.32 1452.6 1106.8 1455.22 Q1104.28 1457.81 1099.69 1462.5 Z" fill="#000000" fill-rule="evenodd" fill-opacity="1" /><path clip-path="url(#clip720)" d="M 0 0 M1323.98 1489.17 L1331.61 1489.17 L1331.61 1462.8 L1323.3 1464.47 L1323.3 1460.21 L1331.57 1458.54 L1336.24 1458.54 L1336.24 1489.17 L1343.88 1489.17 L1343.88 1493.1 L1323.98 1493.1 L1323.98 1489.17 Z" fill="#000000" fill-rule="evenodd" fill-opacity="1" /><path clip-path="url(#clip720)" d="M 0 0 M1358.95 1461.62 Q1355.34 1461.62 1353.51 1465.19 Q1351.71 1468.73 1351.71 1475.86 Q1351.71 1482.97 1353.51 1486.53 Q1355.34 1490.07 1358.95 1490.07 Q1362.59 1490.07 1364.39 1486.53 Q1366.22 1482.97 1366.22 1475.86 Q1366.22 1468.73 1364.39 1465.19 Q1362.59 1461.62 1358.95 1461.62 M1358.95 1457.92 Q1364.76 1457.92 1367.82 1462.53 Q1370.9 1467.11 1370.9 1475.86 Q1370.9 1484.59 1367.82 1489.19 Q1364.76 1493.78 1358.95 1493.78 Q1353.14 1493.78 1350.06 1489.19 Q1347.01 1484.59 1347.01 1475.86 Q1347.01 1467.11 1350.06 1462.53 Q1353.14 1457.92 1358.95 1457.92 Z" fill="#000000" fill-rule="evenodd" fill-opacity="1" /><path clip-path="url(#clip720)" d="M 0 0 M1380.6 1440.11 Q1377.67 1440.11 1376.18 1443.01 Q1374.71 1445.89 1374.71 1451.68 Q1374.71 1457.46 1376.18 1460.35 Q1377.67 1463.23 1380.6 1463.23 Q1383.55 1463.23 1385.02 1460.35 Q1386.51 1457.46 1386.51 1451.68 Q1386.51 1445.89 1385.02 1443.01 Q1383.55 1440.11 1380.6 1440.11 M1380.6 1437.11 Q1385.32 1437.11 1387.8 1440.85 Q1390.31 1444.57 1390.31 1451.68 Q1390.31 1458.77 1387.8 1462.51 Q1385.32 1466.24 1380.6 1466.24 Q1375.88 1466.24 1373.38 1462.51 Q1370.9 1458.77 1370.9 1451.68 Q1370.9 1444.57 1373.38 1440.85 Q1375.88 1437.11 1380.6 1437.11 Z" fill="#000000" fill-rule="evenodd" fill-opacity="1" /><path clip-path="url(#clip720)" d="M 0 0 M1394.42 1460.92 L1398.39 1460.92 L1398.39 1465.69 L1394.42 1465.69 L1394.42 1460.92 Z" fill="#000000" fill-rule="evenodd" fill-opacity="1" /><path clip-path="url(#clip720)" d="M 0 0 M1412.95 1440.92 L1403.36 1455.91 L1412.95 1455.91 L1412.95 1440.92 M1411.95 1437.61 L1416.73 1437.61 L1416.73 1455.91 L1420.74 1455.91 L1420.74 1459.07 L1416.73 1459.07 L1416.73 1465.69 L1412.95 1465.69 L1412.95 1459.07 L1400.27 1459.07 L1400.27 1455.41 L1411.95 1437.61 Z" fill="#000000" fill-rule="evenodd" fill-opacity="1" /><path clip-path="url(#clip720)" d="M 0 0 M1631.05 1489.17 L1638.69 1489.17 L1638.69 1462.8 L1630.38 1464.47 L1630.38 1460.21 L1638.64 1458.54 L1643.32 1458.54 L1643.32 1489.17 L1650.96 1489.17 L1650.96 1493.1 L1631.05 1493.1 L1631.05 1489.17 Z" fill="#000000" fill-rule="evenodd" fill-opacity="1" /><path clip-path="url(#clip720)" d="M 0 0 M1666.03 1461.62 Q1662.42 1461.62 1660.59 1465.19 Q1658.78 1468.73 1658.78 1475.86 Q1658.78 1482.97 1660.59 1486.53 Q1662.42 1490.07 1666.03 1490.07 Q1669.66 1490.07 1671.47 1486.53 Q1673.3 1482.97 1673.3 1475.86 Q1673.3 1468.73 1671.47 1465.19 Q1669.66 1461.62 1666.03 1461.62 M1666.03 1457.92 Q1671.84 1457.92 1674.89 1462.53 Q1677.97 1467.11 1677.97 1475.86 Q1677.97 1484.59 1674.89 1489.19 Q1671.84 1493.78 1666.03 1493.78 Q1660.22 1493.78 1657.14 1489.19 Q1654.08 1484.59 1654.08 1475.86 Q1654.08 1467.11 1657.14 1462.53 Q1660.22 1457.92 1666.03 1457.92 Z" fill="#000000" fill-rule="evenodd" fill-opacity="1" /><path clip-path="url(#clip720)" d="M 0 0 M1687.68 1440.11 Q1684.74 1440.11 1683.26 1443.01 Q1681.79 1445.89 1681.79 1451.68 Q1681.79 1457.46 1683.26 1460.35 Q1684.74 1463.23 1687.68 1463.23 Q1690.63 1463.23 1692.1 1460.35 Q1693.58 1457.46 1693.58 1451.68 Q1693.58 1445.89 1692.1 1443.01 Q1690.63 1440.11 1687.68 1440.11 M1687.68 1437.11 Q1692.4 1437.11 1694.88 1440.85 Q1697.38 1444.57 1697.38 1451.68 Q1697.38 1458.77 1694.88 1462.51 Q1692.4 1466.24 1687.68 1466.24 Q1682.96 1466.24 1680.46 1462.51 Q1677.97 1458.77 1677.97 1451.68 Q1677.97 1444.57 1680.46 1440.85 Q1682.96 1437.11 1687.68 1437.11 Z" fill="#000000" fill-rule="evenodd" fill-opacity="1" /><path clip-path="url(#clip720)" d="M 0 0 M1701.5 1460.92 L1705.47 1460.92 L1705.47 1465.69 L1701.5 1465.69 L1701.5 1460.92 Z" fill="#000000" fill-rule="evenodd" fill-opacity="1" /><path clip-path="url(#clip720)" d="M 0 0 M1718.18 1450.14 Q1715.63 1450.14 1714.12 1451.89 Q1712.64 1453.64 1712.64 1456.68 Q1712.64 1459.71 1714.12 1461.48 Q1715.63 1463.23 1718.18 1463.23 Q1720.74 1463.23 1722.23 1461.48 Q1723.73 1459.71 1723.73 1456.68 Q1723.73 1453.64 1722.23 1451.89 Q1720.74 1450.14 1718.18 1450.14 M1725.73 1438.23 L1725.73 1441.69 Q1724.3 1441.02 1722.83 1440.66 Q1721.38 1440.3 1719.95 1440.3 Q1716.19 1440.3 1714.2 1442.84 Q1712.22 1445.38 1711.94 1450.52 Q1713.05 1448.88 1714.72 1448.01 Q1716.4 1447.13 1718.41 1447.13 Q1722.64 1447.13 1725.09 1449.71 Q1727.55 1452.26 1727.55 1456.68 Q1727.55 1461.01 1724.99 1463.62 Q1722.43 1466.24 1718.18 1466.24 Q1713.31 1466.24 1710.74 1462.51 Q1708.16 1458.77 1708.16 1451.68 Q1708.16 1445.02 1711.32 1441.07 Q1714.48 1437.11 1719.8 1437.11 Q1721.23 1437.11 1722.68 1437.39 Q1724.15 1437.67 1725.73 1438.23 Z" fill="#000000" fill-rule="evenodd" fill-opacity="1" /><path clip-path="url(#clip720)" d="M 0 0 M1938.1 1489.17 L1945.74 1489.17 L1945.74 1462.8 L1937.43 1464.47 L1937.43 1460.21 L1945.69 1458.54 L1950.37 1458.54 L1950.37 1489.17 L1958.01 1489.17 L1958.01 1493.1 L1938.1 1493.1 L1938.1 1489.17 Z" fill="#000000" fill-rule="evenodd" fill-opacity="1" /><path clip-path="url(#clip720)" d="M 0 0 M1973.08 1461.62 Q1969.47 1461.62 1967.64 1465.19 Q1965.83 1468.73 1965.83 1475.86 Q1965.83 1482.97 1967.64 1486.53 Q1969.47 1490.07 1973.08 1490.07 Q1976.71 1490.07 1978.52 1486.53 Q1980.34 1482.97 1980.34 1475.86 Q1980.34 1468.73 1978.52 1465.19 Q1976.71 1461.62 1973.08 1461.62 M1973.08 1457.92 Q1978.89 1457.92 1981.94 1462.53 Q1985.02 1467.11 1985.02 1475.86 Q1985.02 1484.59 1981.94 1489.19 Q1978.89 1493.78 1973.08 1493.78 Q1967.27 1493.78 1964.19 1489.19 Q1961.13 1484.59 1961.13 1475.86 Q1961.13 1467.11 1964.19 1462.53 Q1967.27 1457.92 1973.08 1457.92 Z" fill="#000000" fill-rule="evenodd" fill-opacity="1" /><path clip-path="url(#clip720)" d="M 0 0 M1994.73 1440.11 Q1991.79 1440.11 1990.31 1443.01 Q1988.84 1445.89 1988.84 1451.68 Q1988.84 1457.46 1990.31 1460.35 Q1991.79 1463.23 1994.73 1463.23 Q1997.68 1463.23 1999.15 1460.35 Q2000.63 1457.46 2000.63 1451.68 Q2000.63 1445.89 1999.15 1443.01 Q1997.68 1440.11 1994.73 1440.11 M1994.73 1437.11 Q1999.45 1437.11 2001.93 1440.85 Q2004.43 1444.57 2004.43 1451.68 Q2004.43 1458.77 2001.93 1462.51 Q1999.45 1466.24 1994.73 1466.24 Q1990 1466.24 1987.5 1462.51 Q1985.02 1458.77 1985.02 1451.68 Q1985.02 1444.57 1987.5 1440.85 Q1990 1437.11 1994.73 1437.11 Z" fill="#000000" fill-rule="evenodd" fill-opacity="1" /><path clip-path="url(#clip720)" d="M 0 0 M2008.55 1460.92 L2012.52 1460.92 L2012.52 1465.69 L2008.55 1465.69 L2008.55 1460.92 Z" fill="#000000" fill-rule="evenodd" fill-opacity="1" /><path clip-path="url(#clip720)" d="M 0 0 M2024.76 1452.36 Q2022.05 1452.36 2020.49 1453.81 Q2018.95 1455.26 2018.95 1457.79 Q2018.95 1460.33 2020.49 1461.78 Q2022.05 1463.23 2024.76 1463.23 Q2027.47 1463.23 2029.03 1461.78 Q2030.59 1460.31 2030.59 1457.79 Q2030.59 1455.26 2029.03 1453.81 Q2027.49 1452.36 2024.76 1452.36 M2020.96 1450.74 Q2018.52 1450.14 2017.14 1448.47 Q2015.79 1446.79 2015.79 1444.38 Q2015.79 1441.02 2018.18 1439.06 Q2020.59 1437.11 2024.76 1437.11 Q2028.96 1437.11 2031.34 1439.06 Q2033.73 1441.02 2033.73 1444.38 Q2033.73 1446.79 2032.36 1448.47 Q2031.01 1450.14 2028.58 1450.74 Q2031.33 1451.38 2032.85 1453.24 Q2034.39 1455.1 2034.39 1457.79 Q2034.39 1461.88 2031.89 1464.06 Q2029.41 1466.24 2024.76 1466.24 Q2020.12 1466.24 2017.61 1464.06 Q2015.13 1461.88 2015.13 1457.79 Q2015.13 1455.1 2016.67 1453.24 Q2018.22 1451.38 2020.96 1450.74 M2019.57 1444.74 Q2019.57 1446.92 2020.92 1448.15 Q2022.3 1449.37 2024.76 1449.37 Q2027.21 1449.37 2028.58 1448.15 Q2029.97 1446.92 2029.97 1444.74 Q2029.97 1442.56 2028.58 1441.34 Q2027.21 1440.11 2024.76 1440.11 Q2022.3 1440.11 2020.92 1441.34 Q2019.57 1442.56 2019.57 1444.74 Z" fill="#000000" fill-rule="evenodd" fill-opacity="1" /><path clip-path="url(#clip720)" d="M 0 0 M2246.35 1489.17 L2253.99 1489.17 L2253.99 1462.8 L2245.68 1464.47 L2245.68 1460.21 L2253.94 1458.54 L2258.62 1458.54 L2258.62 1489.17 L2266.26 1489.17 L2266.26 1493.1 L2246.35 1493.1 L2246.35 1489.17 Z" fill="#000000" fill-rule="evenodd" fill-opacity="1" /><path clip-path="url(#clip720)" d="M 0 0 M2281.33 1461.62 Q2277.72 1461.62 2275.89 1465.19 Q2274.08 1468.73 2274.08 1475.86 Q2274.08 1482.97 2275.89 1486.53 Q2277.72 1490.07 2281.33 1490.07 Q2284.96 1490.07 2286.77 1486.53 Q2288.6 1482.97 2288.6 1475.86 Q2288.6 1468.73 2286.77 1465.19 Q2284.96 1461.62 2281.33 1461.62 M2281.33 1457.92 Q2287.14 1457.92 2290.19 1462.53 Q2293.27 1467.11 2293.27 1475.86 Q2293.27 1484.59 2290.19 1489.19 Q2287.14 1493.78 2281.33 1493.78 Q2275.52 1493.78 2272.44 1489.19 Q2269.38 1484.59 2269.38 1475.86 Q2269.38 1467.11 2272.44 1462.53 Q2275.52 1457.92 2281.33 1457.92 Z" fill="#000000" fill-rule="evenodd" fill-opacity="1" /><path clip-path="url(#clip720)" d="M 0 0 M2293.82 1462.5 L2300.02 1462.5 L2300.02 1441.07 L2293.27 1442.43 L2293.27 1438.97 L2299.99 1437.61 L2303.79 1437.61 L2303.79 1462.5 L2309.99 1462.5 L2309.99 1465.69 L2293.82 1465.69 L2293.82 1462.5 Z" fill="#000000" fill-rule="evenodd" fill-opacity="1" /><path clip-path="url(#clip720)" d="M 0 0 M2314.11 1460.92 L2318.08 1460.92 L2318.08 1465.69 L2314.11 1465.69 L2314.11 1460.92 Z" fill="#000000" fill-rule="evenodd" fill-opacity="1" /><path clip-path="url(#clip720)" d="M 0 0 M2330.32 1440.11 Q2327.39 1440.11 2325.9 1443.01 Q2324.44 1445.89 2324.44 1451.68 Q2324.44 1457.46 2325.9 1460.35 Q2327.39 1463.23 2330.32 1463.23 Q2333.28 1463.23 2334.74 1460.35 Q2336.23 1457.46 2336.23 1451.68 Q2336.23 1445.89 2334.74 1443.01 Q2333.28 1440.11 2330.32 1440.11 M2330.32 1437.11 Q2335.04 1437.11 2337.53 1440.85 Q2340.03 1444.57 2340.03 1451.68 Q2340.03 1458.77 2337.53 1462.51 Q2335.04 1466.24 2330.32 1466.24 Q2325.6 1466.24 2323.1 1462.51 Q2320.62 1458.77 2320.62 1451.68 Q2320.62 1444.57 2323.1 1440.85 Q2325.6 1437.11 2330.32 1437.11 Z" fill="#000000" fill-rule="evenodd" fill-opacity="1" /><path clip-path="url(#clip720)" d="M 0 0 M1299.7 1545.6 L1298.3 1538.25 Q1296.87 1530.71 1291.2 1530.71 Q1286.93 1530.71 1284.99 1534.21 Q1282.54 1538.6 1282.54 1544.39 Q1282.54 1551.4 1284.93 1554.74 Q1287.35 1558.14 1291.2 1558.14 Q1295.46 1558.14 1297.76 1551.36 L1299.7 1545.6 M1302.98 1535.86 L1306.13 1526.54 L1311.35 1526.54 L1304.82 1545.86 L1306.1 1552.83 Q1306.38 1554.39 1307.5 1555.69 Q1308.8 1557.22 1309.82 1557.22 L1312.62 1557.22 L1312.62 1562.19 L1309.12 1562.19 Q1306.13 1562.19 1303.45 1559.51 Q1302.15 1558.18 1301.61 1555.37 Q1300.14 1558.91 1297.15 1561.68 Q1295.75 1562.98 1291.2 1562.98 Q1283.72 1562.98 1280.09 1558.14 Q1276.37 1553.15 1276.37 1544.39 Q1276.37 1535.04 1280.41 1530.64 Q1284.9 1525.74 1291.2 1525.74 Q1301.1 1525.74 1302.98 1535.86 Z" fill="#000000" fill-rule="evenodd" fill-opacity="1" /><polyline clip-path="url(#clip722)" style="stroke:#000000; stroke-width:2; stroke-opacity:0.1; fill:none" points="
  236.232,1377.37 2352.76,1377.37 
  "/>
<polyline clip-path="url(#clip722)" style="stroke:#000000; stroke-width:2; stroke-opacity:0.1; fill:none" points="
  236.232,1079.83 2352.76,1079.83 
  "/>
<polyline clip-path="url(#clip722)" style="stroke:#000000; stroke-width:2; stroke-opacity:0.1; fill:none" points="
  236.232,782.289 2352.76,782.289 
  "/>
<polyline clip-path="url(#clip722)" style="stroke:#000000; stroke-width:2; stroke-opacity:0.1; fill:none" points="
  236.232,484.747 2352.76,484.747 
  "/>
<polyline clip-path="url(#clip722)" style="stroke:#000000; stroke-width:2; stroke-opacity:0.1; fill:none" points="
  236.232,187.205 2352.76,187.205 
  "/>
<polyline clip-path="url(#clip720)" style="stroke:#000000; stroke-width:4; stroke-opacity:1; fill:none" points="
  236.232,1410.9 236.232,47.2441 
  "/>
<polyline clip-path="url(#clip720)" style="stroke:#000000; stroke-width:4; stroke-opacity:1; fill:none" points="
  236.232,1377.37 261.63,1377.37 
  "/>
<polyline clip-path="url(#clip720)" style="stroke:#000000; stroke-width:4; stroke-opacity:1; fill:none" points="
  236.232,1079.83 261.63,1079.83 
  "/>
<polyline clip-path="url(#clip720)" style="stroke:#000000; stroke-width:4; stroke-opacity:1; fill:none" points="
  236.232,782.289 261.63,782.289 
  "/>
<polyline clip-path="url(#clip720)" style="stroke:#000000; stroke-width:4; stroke-opacity:1; fill:none" points="
  236.232,484.747 261.63,484.747 
  "/>
<polyline clip-path="url(#clip720)" style="stroke:#000000; stroke-width:4; stroke-opacity:1; fill:none" points="
  236.232,187.205 261.63,187.205 
  "/>
<path clip-path="url(#clip720)" d="M 0 0 M126.205 1363.17 Q122.593 1363.17 120.765 1366.74 Q118.959 1370.28 118.959 1377.41 Q118.959 1384.51 120.765 1388.08 Q122.593 1391.62 126.205 1391.62 Q129.839 1391.62 131.644 1388.08 Q133.473 1384.51 133.473 1377.41 Q133.473 1370.28 131.644 1366.74 Q129.839 1363.17 126.205 1363.17 M126.205 1359.47 Q132.015 1359.47 135.07 1364.08 Q138.149 1368.66 138.149 1377.41 Q138.149 1386.14 135.07 1390.74 Q132.015 1395.32 126.205 1395.32 Q120.394 1395.32 117.316 1390.74 Q114.26 1386.14 114.26 1377.41 Q114.26 1368.66 117.316 1364.08 Q120.394 1359.47 126.205 1359.47 Z" fill="#000000" fill-rule="evenodd" fill-opacity="1" /><path clip-path="url(#clip720)" d="M 0 0 M143.218 1388.77 L148.103 1388.77 L148.103 1394.65 L143.218 1394.65 L143.218 1388.77 Z" fill="#000000" fill-rule="evenodd" fill-opacity="1" /><path clip-path="url(#clip720)" d="M 0 0 M151.991 1360.09 L174.214 1360.09 L174.214 1362.08 L161.667 1394.65 L156.783 1394.65 L168.589 1364.03 L151.991 1364.03 L151.991 1360.09 Z" fill="#000000" fill-rule="evenodd" fill-opacity="1" /><path clip-path="url(#clip720)" d="M 0 0 M179.329 1360.09 L197.686 1360.09 L197.686 1364.03 L183.612 1364.03 L183.612 1372.5 Q184.63 1372.15 185.649 1371.99 Q186.667 1371.81 187.686 1371.81 Q193.473 1371.81 196.852 1374.98 Q200.232 1378.15 200.232 1383.57 Q200.232 1389.14 196.76 1392.25 Q193.288 1395.32 186.968 1395.32 Q184.792 1395.32 182.524 1394.95 Q180.278 1394.58 177.871 1393.84 L177.871 1389.14 Q179.954 1390.28 182.176 1390.83 Q184.399 1391.39 186.876 1391.39 Q190.88 1391.39 193.218 1389.28 Q195.556 1387.18 195.556 1383.57 Q195.556 1379.95 193.218 1377.85 Q190.88 1375.74 186.876 1375.74 Q185.001 1375.74 183.126 1376.16 Q181.274 1376.57 179.329 1377.45 L179.329 1360.09 Z" fill="#000000" fill-rule="evenodd" fill-opacity="1" /><path clip-path="url(#clip720)" d="M 0 0 M116.343 1093.18 L123.982 1093.18 L123.982 1066.81 L115.672 1068.48 L115.672 1064.22 L123.936 1062.55 L128.612 1062.55 L128.612 1093.18 L136.251 1093.18 L136.251 1097.11 L116.343 1097.11 L116.343 1093.18 Z" fill="#000000" fill-rule="evenodd" fill-opacity="1" /><path clip-path="url(#clip720)" d="M 0 0 M141.32 1091.23 L146.204 1091.23 L146.204 1097.11 L141.32 1097.11 L141.32 1091.23 Z" fill="#000000" fill-rule="evenodd" fill-opacity="1" /><path clip-path="url(#clip720)" d="M 0 0 M161.274 1065.63 Q157.663 1065.63 155.834 1069.19 Q154.028 1072.74 154.028 1079.87 Q154.028 1086.97 155.834 1090.54 Q157.663 1094.08 161.274 1094.08 Q164.908 1094.08 166.714 1090.54 Q168.542 1086.97 168.542 1079.87 Q168.542 1072.74 166.714 1069.19 Q164.908 1065.63 161.274 1065.63 M161.274 1061.93 Q167.084 1061.93 170.139 1066.53 Q173.218 1071.12 173.218 1079.87 Q173.218 1088.59 170.139 1093.2 Q167.084 1097.78 161.274 1097.78 Q155.464 1097.78 152.385 1093.2 Q149.329 1088.59 149.329 1079.87 Q149.329 1071.12 152.385 1066.53 Q155.464 1061.93 161.274 1061.93 Z" fill="#000000" fill-rule="evenodd" fill-opacity="1" /><path clip-path="url(#clip720)" d="M 0 0 M188.288 1065.63 Q184.676 1065.63 182.848 1069.19 Q181.042 1072.74 181.042 1079.87 Q181.042 1086.97 182.848 1090.54 Q184.676 1094.08 188.288 1094.08 Q191.922 1094.08 193.727 1090.54 Q195.556 1086.97 195.556 1079.87 Q195.556 1072.74 193.727 1069.19 Q191.922 1065.63 188.288 1065.63 M188.288 1061.93 Q194.098 1061.93 197.153 1066.53 Q200.232 1071.12 200.232 1079.87 Q200.232 1088.59 197.153 1093.2 Q194.098 1097.78 188.288 1097.78 Q182.477 1097.78 179.399 1093.2 Q176.343 1088.59 176.343 1079.87 Q176.343 1071.12 179.399 1066.53 Q182.477 1061.93 188.288 1061.93 Z" fill="#000000" fill-rule="evenodd" fill-opacity="1" /><path clip-path="url(#clip720)" d="M 0 0 M118.936 795.634 L126.575 795.634 L126.575 769.269 L118.265 770.935 L118.265 766.676 L126.529 765.009 L131.205 765.009 L131.205 795.634 L138.843 795.634 L138.843 799.569 L118.936 799.569 L118.936 795.634 Z" fill="#000000" fill-rule="evenodd" fill-opacity="1" /><path clip-path="url(#clip720)" d="M 0 0 M143.913 793.69 L148.797 793.69 L148.797 799.569 L143.913 799.569 L143.913 793.69 Z" fill="#000000" fill-rule="evenodd" fill-opacity="1" /><path clip-path="url(#clip720)" d="M 0 0 M157.894 795.634 L174.214 795.634 L174.214 799.569 L152.269 799.569 L152.269 795.634 Q154.931 792.88 159.515 788.25 Q164.121 783.597 165.302 782.255 Q167.547 779.731 168.427 777.995 Q169.329 776.236 169.329 774.546 Q169.329 771.792 167.385 770.056 Q165.464 768.319 162.362 768.319 Q160.163 768.319 157.709 769.083 Q155.278 769.847 152.501 771.398 L152.501 766.676 Q155.325 765.542 157.778 764.963 Q160.232 764.384 162.269 764.384 Q167.64 764.384 170.834 767.069 Q174.028 769.755 174.028 774.245 Q174.028 776.375 173.218 778.296 Q172.431 780.194 170.325 782.787 Q169.746 783.458 166.644 786.676 Q163.542 789.87 157.894 795.634 Z" fill="#000000" fill-rule="evenodd" fill-opacity="1" /><path clip-path="url(#clip720)" d="M 0 0 M179.329 765.009 L197.686 765.009 L197.686 768.944 L183.612 768.944 L183.612 777.417 Q184.63 777.069 185.649 776.907 Q186.667 776.722 187.686 776.722 Q193.473 776.722 196.852 779.893 Q200.232 783.065 200.232 788.481 Q200.232 794.06 196.76 797.162 Q193.288 800.241 186.968 800.241 Q184.792 800.241 182.524 799.87 Q180.278 799.5 177.871 798.759 L177.871 794.06 Q179.954 795.194 182.176 795.75 Q184.399 796.305 186.876 796.305 Q190.88 796.305 193.218 794.199 Q195.556 792.092 195.556 788.481 Q195.556 784.87 193.218 782.764 Q190.88 780.657 186.876 780.657 Q185.001 780.657 183.126 781.074 Q181.274 781.491 179.329 782.37 L179.329 765.009 Z" fill="#000000" fill-rule="evenodd" fill-opacity="1" /><path clip-path="url(#clip720)" d="M 0 0 M117.339 498.092 L124.978 498.092 L124.978 471.726 L116.668 473.393 L116.668 469.134 L124.931 467.467 L129.607 467.467 L129.607 498.092 L137.246 498.092 L137.246 502.027 L117.339 502.027 L117.339 498.092 Z" fill="#000000" fill-rule="evenodd" fill-opacity="1" /><path clip-path="url(#clip720)" d="M 0 0 M142.316 496.148 L147.2 496.148 L147.2 502.027 L142.316 502.027 L142.316 496.148 Z" fill="#000000" fill-rule="evenodd" fill-opacity="1" /><path clip-path="url(#clip720)" d="M 0 0 M152.316 467.467 L170.672 467.467 L170.672 471.402 L156.598 471.402 L156.598 479.875 Q157.616 479.527 158.635 479.365 Q159.653 479.18 160.672 479.18 Q166.459 479.18 169.839 482.351 Q173.218 485.523 173.218 490.939 Q173.218 496.518 169.746 499.62 Q166.274 502.698 159.954 502.698 Q157.778 502.698 155.51 502.328 Q153.265 501.958 150.857 501.217 L150.857 496.518 Q152.941 497.652 155.163 498.208 Q157.385 498.763 159.862 498.763 Q163.866 498.763 166.204 496.657 Q168.542 494.55 168.542 490.939 Q168.542 487.328 166.204 485.222 Q163.866 483.115 159.862 483.115 Q157.987 483.115 156.112 483.532 Q154.26 483.949 152.316 484.828 L152.316 467.467 Z" fill="#000000" fill-rule="evenodd" fill-opacity="1" /><path clip-path="url(#clip720)" d="M 0 0 M188.288 470.546 Q184.676 470.546 182.848 474.111 Q181.042 477.652 181.042 484.782 Q181.042 491.888 182.848 495.453 Q184.676 498.995 188.288 498.995 Q191.922 498.995 193.727 495.453 Q195.556 491.888 195.556 484.782 Q195.556 477.652 193.727 474.111 Q191.922 470.546 188.288 470.546 M188.288 466.842 Q194.098 466.842 197.153 471.449 Q200.232 476.032 200.232 484.782 Q200.232 493.509 197.153 498.115 Q194.098 502.698 188.288 502.698 Q182.477 502.698 179.399 498.115 Q176.343 493.509 176.343 484.782 Q176.343 476.032 179.399 471.449 Q182.477 466.842 188.288 466.842 Z" fill="#000000" fill-rule="evenodd" fill-opacity="1" /><path clip-path="url(#clip720)" d="M 0 0 M118.242 200.55 L125.88 200.55 L125.88 174.184 L117.57 175.851 L117.57 171.592 L125.834 169.925 L130.51 169.925 L130.51 200.55 L138.149 200.55 L138.149 204.485 L118.242 204.485 L118.242 200.55 Z" fill="#000000" fill-rule="evenodd" fill-opacity="1" /><path clip-path="url(#clip720)" d="M 0 0 M143.218 198.605 L148.103 198.605 L148.103 204.485 L143.218 204.485 L143.218 198.605 Z" fill="#000000" fill-rule="evenodd" fill-opacity="1" /><path clip-path="url(#clip720)" d="M 0 0 M151.991 169.925 L174.214 169.925 L174.214 171.916 L161.667 204.485 L156.783 204.485 L168.589 173.86 L151.991 173.86 L151.991 169.925 Z" fill="#000000" fill-rule="evenodd" fill-opacity="1" /><path clip-path="url(#clip720)" d="M 0 0 M179.329 169.925 L197.686 169.925 L197.686 173.86 L183.612 173.86 L183.612 182.332 Q184.63 181.985 185.649 181.823 Q186.667 181.638 187.686 181.638 Q193.473 181.638 196.852 184.809 Q200.232 187.98 200.232 193.397 Q200.232 198.976 196.76 202.078 Q193.288 205.156 186.968 205.156 Q184.792 205.156 182.524 204.786 Q180.278 204.416 177.871 203.675 L177.871 198.976 Q179.954 200.11 182.176 200.666 Q184.399 201.221 186.876 201.221 Q190.88 201.221 193.218 199.115 Q195.556 197.008 195.556 193.397 Q195.556 189.786 193.218 187.68 Q190.88 185.573 186.876 185.573 Q185.001 185.573 183.126 185.99 Q181.274 186.406 179.329 187.286 L179.329 169.925 Z" fill="#000000" fill-rule="evenodd" fill-opacity="1" /><path clip-path="url(#clip720)" d="M 0 0 M59.1993 815.533 Q55.2526 813.336 53.3747 810.281 Q51.4968 807.225 51.4968 803.088 Q51.4968 797.518 55.4117 794.494 Q59.2948 791.47 66.4881 791.47 L88.0042 791.47 L88.0042 797.358 L66.679 797.358 Q61.5546 797.358 59.072 799.173 Q56.5894 800.987 56.5894 804.711 Q56.5894 809.262 59.6131 811.904 Q62.6368 814.546 67.8567 814.546 L88.0042 814.546 L88.0042 820.434 L66.679 820.434 Q61.5228 820.434 59.072 822.248 Q56.5894 824.063 56.5894 827.85 Q56.5894 832.338 59.6449 834.98 Q62.6686 837.622 67.8567 837.622 L88.0042 837.622 L88.0042 843.51 L52.3562 843.51 L52.3562 837.622 L57.8944 837.622 Q54.616 835.616 53.0564 832.815 Q51.4968 830.015 51.4968 826.163 Q51.4968 822.28 53.4702 819.575 Q55.4436 816.838 59.1993 815.533 Z" fill="#000000" fill-rule="evenodd" fill-opacity="1" /><path clip-path="url(#clip720)" d="M 0 0 M52.3562 785.327 L52.3562 779.471 L88.0042 779.471 L88.0042 785.327 L52.3562 785.327 M38.479 785.327 L38.479 779.471 L45.895 779.471 L45.895 785.327 L38.479 785.327 Z" fill="#000000" fill-rule="evenodd" fill-opacity="1" /><path clip-path="url(#clip720)" d="M 0 0 M66.4881 743.696 L88.0042 743.696 L88.0042 749.552 L66.679 749.552 Q61.6183 749.552 59.1038 751.525 Q56.5894 753.499 56.5894 757.446 Q56.5894 762.188 59.6131 764.925 Q62.6368 767.662 67.8567 767.662 L88.0042 767.662 L88.0042 773.551 L52.3562 773.551 L52.3562 767.662 L57.8944 767.662 Q54.6797 765.562 53.0883 762.729 Q51.4968 759.864 51.4968 756.141 Q51.4968 749.998 55.3163 746.847 Q59.1038 743.696 66.4881 743.696 Z" fill="#000000" fill-rule="evenodd" fill-opacity="1" /><path clip-path="url(#clip720)" d="M 0 0 M98.8259 710.467 L103.377 710.467 L103.377 744.332 L98.8259 744.332 L98.8259 710.467 Z" fill="#000000" fill-rule="evenodd" fill-opacity="1" /><path clip-path="url(#clip720)" d="M 0 0 M57.7671 680.866 L38.479 680.866 L38.479 675.01 L88.0042 675.01 L88.0042 680.866 L82.657 680.866 Q85.8398 682.712 87.3994 685.545 Q88.9272 688.346 88.9272 692.292 Q88.9272 698.754 83.771 702.828 Q78.6147 706.87 70.212 706.87 Q61.8093 706.87 56.6531 702.828 Q51.4968 698.754 51.4968 692.292 Q51.4968 688.346 53.0564 685.545 Q54.5842 682.712 57.7671 680.866 M70.212 700.823 Q76.6732 700.823 80.3653 698.181 Q84.0256 695.507 84.0256 690.86 Q84.0256 686.213 80.3653 683.54 Q76.6732 680.866 70.212 680.866 Q63.7508 680.866 60.0905 683.54 Q56.3984 686.213 56.3984 690.86 Q56.3984 695.507 60.0905 698.181 Q63.7508 700.823 70.212 700.823 Z" fill="#000000" fill-rule="evenodd" fill-opacity="1" /><path clip-path="url(#clip720)" d="M 0 0 M52.3562 668.867 L52.3562 663.01 L88.0042 663.01 L88.0042 668.867 L52.3562 668.867 M38.479 668.867 L38.479 663.01 L45.895 663.01 L45.895 668.867 L38.479 668.867 Z" fill="#000000" fill-rule="evenodd" fill-opacity="1" /><path clip-path="url(#clip720)" d="M 0 0 M38.479 638.821 L43.3487 638.821 L43.3487 644.422 Q43.3487 647.573 44.6219 648.815 Q45.895 650.024 49.2052 650.024 L52.3562 650.024 L52.3562 640.38 L56.9077 640.38 L56.9077 650.024 L88.0042 650.024 L88.0042 655.912 L56.9077 655.912 L56.9077 661.514 L52.3562 661.514 L52.3562 655.912 L49.8736 655.912 Q43.9216 655.912 41.2162 653.143 Q38.479 650.374 38.479 644.359 L38.479 638.821 Z" fill="#000000" fill-rule="evenodd" fill-opacity="1" /><path clip-path="url(#clip720)" d="M 0 0 M38.479 614.631 L43.3487 614.631 L43.3487 620.233 Q43.3487 623.384 44.6219 624.625 Q45.895 625.835 49.2052 625.835 L52.3562 625.835 L52.3562 616.19 L56.9077 616.19 L56.9077 625.835 L88.0042 625.835 L88.0042 631.723 L56.9077 631.723 L56.9077 637.325 L52.3562 637.325 L52.3562 631.723 L49.8736 631.723 Q43.9216 631.723 41.2162 628.954 Q38.479 626.185 38.479 620.169 L38.479 614.631 Z" fill="#000000" fill-rule="evenodd" fill-opacity="1" /><polyline clip-path="url(#clip722)" style="stroke:#009af9; stroke-width:20; stroke-opacity:1; fill:none" stroke-dasharray="80, 50" points="
  296.134,552.42 758.131,803.45 1028.38,1322.35 1220.13,1353.49 1368.86,1370.14 1490.38,1372.3 1593.12,1308.05 1682.13,1344.59 1760.63,1266.95 1830.86,1236.2 
  1894.38,1360.55 1952.38,1081.36 2005.73,1272.87 2055.12,1259.54 2101.11,740.719 2144.12,1056.14 2184.53,1235.14 2222.63,1098.79 2258.67,648.149 2292.85,85.838 
  
  "/>
<path clip-path="url(#clip720)" d="
M1996.02 213.659 L2282.21 213.659 L2282.21 92.6992 L1996.02 92.6992  Z
  " fill="#ffffff" fill-rule="evenodd" fill-opacity="1"/>
<polyline clip-path="url(#clip720)" style="stroke:#000000; stroke-width:4; stroke-opacity:1; fill:none" points="
  1996.02,213.659 2282.21,213.659 2282.21,92.6992 1996.02,92.6992 1996.02,213.659 
  "/>
<polyline clip-path="url(#clip720)" style="stroke:#009af9; stroke-width:4; stroke-opacity:1; fill:none" stroke-dasharray="16, 10" points="
  2019.53,153.179 2160.64,153.179 
  "/>
<path clip-path="url(#clip720)" d="M 0 0 M2198 172.867 Q2196.19 177.496 2194.48 178.908 Q2192.76 180.32 2189.89 180.32 L2186.49 180.32 L2186.49 176.755 L2188.99 176.755 Q2190.75 176.755 2191.72 175.922 Q2192.69 175.089 2193.88 171.987 L2194.64 170.043 L2184.15 144.533 L2188.67 144.533 L2196.77 164.811 L2204.87 144.533 L2209.38 144.533 L2198 172.867 Z" fill="#000000" fill-rule="evenodd" fill-opacity="1" /><path clip-path="url(#clip720)" d="M 0 0 M2215.26 166.524 L2222.9 166.524 L2222.9 140.158 L2214.59 141.825 L2214.59 137.566 L2222.86 135.899 L2227.53 135.899 L2227.53 166.524 L2235.17 166.524 L2235.17 170.459 L2215.26 170.459 L2215.26 166.524 Z" fill="#000000" fill-rule="evenodd" fill-opacity="1" /></svg>
