<?xml version="1.0" encoding="utf-8"?>
<svg xmlns="http://www.w3.org/2000/svg" xmlns:xlink="http://www.w3.org/1999/xlink" width="600" height="400" viewBox="0 0 2400 1600">
<defs>
  <clipPath id="clip190">
    <rect x="0" y="0" width="2400" height="1600"/>
  </clipPath>
</defs>
<path clip-path="url(#clip190)" d="
M0 1600 L2400 1600 L2400 0 L0 0  Z
  " fill="#ffffff" fill-rule="evenodd" fill-opacity="1"/>
<defs>
  <clipPath id="clip191">
    <rect x="480" y="0" width="1681" height="1600"/>
  </clipPath>
</defs>
<path clip-path="url(#clip190)" d="
M236.996 1410.9 L2352.76 1410.9 L2352.76 47.2441 L236.996 47.2441  Z
  " fill="#ffffff" fill-rule="evenodd" fill-opacity="1"/>
<defs>
  <clipPath id="clip192">
    <rect x="236" y="47" width="2117" height="1365"/>
  </clipPath>
</defs>
<polyline clip-path="url(#clip192)" style="stroke:#000000; stroke-width:2; stroke-opacity:0.1; fill:none" points="
  296.876,1410.9 296.876,47.2441 
  "/>
<polyline clip-path="url(#clip192)" style="stroke:#000000; stroke-width:2; stroke-opacity:0.1; fill:none" points="
  795.876,1410.9 795.876,47.2441 
  "/>
<polyline clip-path="url(#clip192)" style="stroke:#000000; stroke-width:2; stroke-opacity:0.1; fill:none" points="
  1294.88,1410.9 1294.88,47.2441 
  "/>
<polyline clip-path="url(#clip192)" style="stroke:#000000; stroke-width:2; stroke-opacity:0.1; fill:none" points="
  1793.88,1410.9 1793.88,47.2441 
  "/>
<polyline clip-path="url(#clip192)" style="stroke:#000000; stroke-width:2; stroke-opacity:0.1; fill:none" points="
  2292.88,1410.9 2292.88,47.2441 
  "/>
<polyline clip-path="url(#clip190)" style="stroke:#000000; stroke-width:4; stroke-opacity:1; fill:none" points="
  236.996,1410.9 2352.76,1410.9 
  "/>
<polyline clip-path="url(#clip190)" style="stroke:#000000; stroke-width:4; stroke-opacity:1; fill:none" points="
  296.876,1410.9 296.876,1394.53 
  "/>
<polyline clip-path="url(#clip190)" style="stroke:#000000; stroke-width:4; stroke-opacity:1; fill:none" points="
  795.876,1410.9 795.876,1394.53 
  "/>
<polyline clip-path="url(#clip190)" style="stroke:#000000; stroke-width:4; stroke-opacity:1; fill:none" points="
  1294.88,1410.9 1294.88,1394.53 
  "/>
<polyline clip-path="url(#clip190)" style="stroke:#000000; stroke-width:4; stroke-opacity:1; fill:none" points="
  1793.88,1410.9 1793.88,1394.53 
  "/>
<polyline clip-path="url(#clip190)" style="stroke:#000000; stroke-width:4; stroke-opacity:1; fill:none" points="
  2292.88,1410.9 2292.88,1394.53 
  "/>
<path clip-path="url(#clip190)" d="M 0 0 M236.107 1489.17 L243.746 1489.17 L243.746 1462.8 L235.436 1464.47 L235.436 1460.21 L243.7 1458.54 L248.376 1458.54 L248.376 1489.17 L256.014 1489.17 L256.014 1493.1 L236.107 1493.1 L236.107 1489.17 Z" fill="#000000" fill-rule="evenodd" fill-opacity="1" /><path clip-path="url(#clip190)" d="M 0 0 M271.084 1461.62 Q267.473 1461.62 265.644 1465.19 Q263.839 1468.73 263.839 1475.86 Q263.839 1482.97 265.644 1486.53 Q267.473 1490.07 271.084 1490.07 Q274.718 1490.07 276.524 1486.53 Q278.352 1482.97 278.352 1475.86 Q278.352 1468.73 276.524 1465.19 Q274.718 1461.62 271.084 1461.62 M271.084 1457.92 Q276.894 1457.92 279.95 1462.53 Q283.028 1467.11 283.028 1475.86 Q283.028 1484.59 279.95 1489.19 Q276.894 1493.78 271.084 1493.78 Q265.274 1493.78 262.195 1489.19 Q259.139 1484.59 259.139 1475.86 Q259.139 1467.11 262.195 1462.53 Q265.274 1457.92 271.084 1457.92 Z" fill="#000000" fill-rule="evenodd" fill-opacity="1" /><path clip-path="url(#clip190)" d="M 0 0 M283.028 1452.02 L307.14 1452.02 L307.14 1455.22 L283.028 1455.22 L283.028 1452.02 Z" fill="#000000" fill-rule="evenodd" fill-opacity="1" /><path clip-path="url(#clip190)" d="M 0 0 M311.296 1437.61 L326.211 1437.61 L326.211 1440.81 L314.776 1440.81 L314.776 1447.69 Q315.603 1447.41 316.431 1447.28 Q317.258 1447.13 318.086 1447.13 Q322.788 1447.13 325.534 1449.71 Q328.28 1452.28 328.28 1456.68 Q328.28 1461.22 325.459 1463.74 Q322.637 1466.24 317.503 1466.24 Q315.735 1466.24 313.892 1465.94 Q312.067 1465.64 310.111 1465.04 L310.111 1461.22 Q311.804 1462.14 313.61 1462.59 Q315.415 1463.04 317.428 1463.04 Q320.681 1463.04 322.581 1461.33 Q324.481 1459.62 324.481 1456.68 Q324.481 1453.75 322.581 1452.04 Q320.681 1450.33 317.428 1450.33 Q315.904 1450.33 314.381 1450.67 Q312.876 1451 311.296 1451.72 L311.296 1437.61 Z" fill="#000000" fill-rule="evenodd" fill-opacity="1" /><path clip-path="url(#clip190)" d="M 0 0 M332.399 1460.92 L336.367 1460.92 L336.367 1465.69 L332.399 1465.69 L332.399 1460.92 Z" fill="#000000" fill-rule="evenodd" fill-opacity="1" /><path clip-path="url(#clip190)" d="M 0 0 M348.611 1440.11 Q345.677 1440.11 344.191 1443.01 Q342.724 1445.89 342.724 1451.68 Q342.724 1457.46 344.191 1460.35 Q345.677 1463.23 348.611 1463.23 Q351.564 1463.23 353.031 1460.35 Q354.517 1457.46 354.517 1451.68 Q354.517 1445.89 353.031 1443.01 Q351.564 1440.11 348.611 1440.11 M348.611 1437.11 Q353.332 1437.11 355.814 1440.85 Q358.316 1444.57 358.316 1451.68 Q358.316 1458.77 355.814 1462.51 Q353.332 1466.24 348.611 1466.24 Q343.89 1466.24 341.389 1462.51 Q338.906 1458.77 338.906 1451.68 Q338.906 1444.57 341.389 1440.85 Q343.89 1437.11 348.611 1437.11 Z" fill="#000000" fill-rule="evenodd" fill-opacity="1" /><path clip-path="url(#clip190)" d="M 0 0 M734.91 1489.17 L742.549 1489.17 L742.549 1462.8 L734.238 1464.47 L734.238 1460.21 L742.502 1458.54 L747.178 1458.54 L747.178 1489.17 L754.817 1489.17 L754.817 1493.1 L734.91 1493.1 L734.91 1489.17 Z" fill="#000000" fill-rule="evenodd" fill-opacity="1" /><path clip-path="url(#clip190)" d="M 0 0 M769.886 1461.62 Q766.275 1461.62 764.447 1465.19 Q762.641 1468.73 762.641 1475.86 Q762.641 1482.97 764.447 1486.53 Q766.275 1490.07 769.886 1490.07 Q773.521 1490.07 775.326 1486.53 Q777.155 1482.97 777.155 1475.86 Q777.155 1468.73 775.326 1465.19 Q773.521 1461.62 769.886 1461.62 M769.886 1457.92 Q775.697 1457.92 778.752 1462.53 Q781.831 1467.11 781.831 1475.86 Q781.831 1484.59 778.752 1489.19 Q775.697 1493.78 769.886 1493.78 Q764.076 1493.78 760.998 1489.19 Q757.942 1484.59 757.942 1475.86 Q757.942 1467.11 760.998 1462.53 Q764.076 1457.92 769.886 1457.92 Z" fill="#000000" fill-rule="evenodd" fill-opacity="1" /><path clip-path="url(#clip190)" d="M 0 0 M781.831 1452.02 L805.942 1452.02 L805.942 1455.22 L781.831 1455.22 L781.831 1452.02 Z" fill="#000000" fill-rule="evenodd" fill-opacity="1" /><path clip-path="url(#clip190)" d="M 0 0 M820.5 1440.92 L810.908 1455.91 L820.5 1455.91 L820.5 1440.92 M819.503 1437.61 L824.28 1437.61 L824.28 1455.91 L828.286 1455.91 L828.286 1459.07 L824.28 1459.07 L824.28 1465.69 L820.5 1465.69 L820.5 1459.07 L807.823 1459.07 L807.823 1455.41 L819.503 1437.61 Z" fill="#000000" fill-rule="evenodd" fill-opacity="1" /><path clip-path="url(#clip190)" d="M 0 0 M832.405 1460.92 L836.373 1460.92 L836.373 1465.69 L832.405 1465.69 L832.405 1460.92 Z" fill="#000000" fill-rule="evenodd" fill-opacity="1" /><path clip-path="url(#clip190)" d="M 0 0 M840.53 1437.61 L855.444 1437.61 L855.444 1440.81 L844.009 1440.81 L844.009 1447.69 Q844.837 1447.41 845.664 1447.28 Q846.492 1447.13 847.319 1447.13 Q852.021 1447.13 854.767 1449.71 Q857.513 1452.28 857.513 1456.68 Q857.513 1461.22 854.692 1463.74 Q851.871 1466.24 846.736 1466.24 Q844.968 1466.24 843.125 1465.94 Q841.301 1465.64 839.345 1465.04 L839.345 1461.22 Q841.038 1462.14 842.843 1462.59 Q844.649 1463.04 846.661 1463.04 Q849.915 1463.04 851.814 1461.33 Q853.714 1459.62 853.714 1456.68 Q853.714 1453.75 851.814 1452.04 Q849.915 1450.33 846.661 1450.33 Q845.138 1450.33 843.614 1450.67 Q842.11 1451 840.53 1451.72 L840.53 1437.61 Z" fill="#000000" fill-rule="evenodd" fill-opacity="1" /><path clip-path="url(#clip190)" d="M 0 0 M1233.51 1489.17 L1241.14 1489.17 L1241.14 1462.8 L1232.83 1464.47 L1232.83 1460.21 L1241.1 1458.54 L1245.77 1458.54 L1245.77 1489.17 L1253.41 1489.17 L1253.41 1493.1 L1233.51 1493.1 L1233.51 1489.17 Z" fill="#000000" fill-rule="evenodd" fill-opacity="1" /><path clip-path="url(#clip190)" d="M 0 0 M1268.48 1461.62 Q1264.87 1461.62 1263.04 1465.19 Q1261.24 1468.73 1261.24 1475.86 Q1261.24 1482.97 1263.04 1486.53 Q1264.87 1490.07 1268.48 1490.07 Q1272.12 1490.07 1273.92 1486.53 Q1275.75 1482.97 1275.75 1475.86 Q1275.75 1468.73 1273.92 1465.19 Q1272.12 1461.62 1268.48 1461.62 M1268.48 1457.92 Q1274.29 1457.92 1277.35 1462.53 Q1280.43 1467.11 1280.43 1475.86 Q1280.43 1484.59 1277.35 1489.19 Q1274.29 1493.78 1268.48 1493.78 Q1262.67 1493.78 1259.59 1489.19 Q1256.54 1484.59 1256.54 1475.86 Q1256.54 1467.11 1259.59 1462.53 Q1262.67 1457.92 1268.48 1457.92 Z" fill="#000000" fill-rule="evenodd" fill-opacity="1" /><path clip-path="url(#clip190)" d="M 0 0 M1280.43 1452.02 L1304.54 1452.02 L1304.54 1455.22 L1280.43 1455.22 L1280.43 1452.02 Z" fill="#000000" fill-rule="evenodd" fill-opacity="1" /><path clip-path="url(#clip190)" d="M 0 0 M1319.1 1440.92 L1309.5 1455.91 L1319.1 1455.91 L1319.1 1440.92 M1318.1 1437.61 L1322.88 1437.61 L1322.88 1455.91 L1326.88 1455.91 L1326.88 1459.07 L1322.88 1459.07 L1322.88 1465.69 L1319.1 1465.69 L1319.1 1459.07 L1306.42 1459.07 L1306.42 1455.41 L1318.1 1437.61 Z" fill="#000000" fill-rule="evenodd" fill-opacity="1" /><path clip-path="url(#clip190)" d="M 0 0 M1331 1460.92 L1334.97 1460.92 L1334.97 1465.69 L1331 1465.69 L1331 1460.92 Z" fill="#000000" fill-rule="evenodd" fill-opacity="1" /><path clip-path="url(#clip190)" d="M 0 0 M1347.21 1440.11 Q1344.28 1440.11 1342.79 1443.01 Q1341.33 1445.89 1341.33 1451.68 Q1341.33 1457.46 1342.79 1460.35 Q1344.28 1463.23 1347.21 1463.23 Q1350.17 1463.23 1351.63 1460.35 Q1353.12 1457.46 1353.12 1451.68 Q1353.12 1445.89 1351.63 1443.01 Q1350.17 1440.11 1347.21 1440.11 M1347.21 1437.11 Q1351.93 1437.11 1354.42 1440.85 Q1356.92 1444.57 1356.92 1451.68 Q1356.92 1458.77 1354.42 1462.51 Q1351.93 1466.24 1347.21 1466.24 Q1342.49 1466.24 1339.99 1462.51 Q1337.51 1458.77 1337.51 1451.68 Q1337.51 1444.57 1339.99 1440.85 Q1342.49 1437.11 1347.21 1437.11 Z" fill="#000000" fill-rule="evenodd" fill-opacity="1" /><path clip-path="url(#clip190)" d="M 0 0 M1733.37 1489.17 L1741.01 1489.17 L1741.01 1462.8 L1732.7 1464.47 L1732.7 1460.21 L1740.96 1458.54 L1745.64 1458.54 L1745.64 1489.17 L1753.28 1489.17 L1753.28 1493.1 L1733.37 1493.1 L1733.37 1489.17 Z" fill="#000000" fill-rule="evenodd" fill-opacity="1" /><path clip-path="url(#clip190)" d="M 0 0 M1768.35 1461.62 Q1764.74 1461.62 1762.91 1465.19 Q1761.1 1468.73 1761.1 1475.86 Q1761.1 1482.97 1762.91 1486.53 Q1764.74 1490.07 1768.35 1490.07 Q1771.98 1490.07 1773.79 1486.53 Q1775.62 1482.97 1775.62 1475.86 Q1775.62 1468.73 1773.79 1465.19 Q1771.98 1461.62 1768.35 1461.62 M1768.35 1457.92 Q1774.16 1457.92 1777.21 1462.53 Q1780.29 1467.11 1780.29 1475.86 Q1780.29 1484.59 1777.21 1489.19 Q1774.16 1493.78 1768.35 1493.78 Q1762.54 1493.78 1759.46 1489.19 Q1756.4 1484.59 1756.4 1475.86 Q1756.4 1467.11 1759.46 1462.53 Q1762.54 1457.92 1768.35 1457.92 Z" fill="#000000" fill-rule="evenodd" fill-opacity="1" /><path clip-path="url(#clip190)" d="M 0 0 M1780.29 1452.02 L1804.4 1452.02 L1804.4 1455.22 L1780.29 1455.22 L1780.29 1452.02 Z" fill="#000000" fill-rule="evenodd" fill-opacity="1" /><path clip-path="url(#clip190)" d="M 0 0 M1820.03 1450.55 Q1822.76 1451.14 1824.28 1452.98 Q1825.83 1454.82 1825.83 1457.53 Q1825.83 1461.69 1822.97 1463.96 Q1820.11 1466.24 1814.84 1466.24 Q1813.07 1466.24 1811.19 1465.88 Q1809.33 1465.54 1807.34 1464.85 L1807.34 1461.18 Q1808.92 1462.1 1810.8 1462.57 Q1812.68 1463.04 1814.73 1463.04 Q1818.3 1463.04 1820.16 1461.63 Q1822.04 1460.22 1822.04 1457.53 Q1822.04 1455.05 1820.3 1453.66 Q1818.57 1452.25 1815.46 1452.25 L1812.19 1452.25 L1812.19 1449.12 L1815.61 1449.12 Q1818.41 1449.12 1819.9 1448.01 Q1821.39 1446.89 1821.39 1444.78 Q1821.39 1442.62 1819.84 1441.47 Q1818.32 1440.3 1815.46 1440.3 Q1813.9 1440.3 1812.11 1440.64 Q1810.33 1440.98 1808.18 1441.69 L1808.18 1438.31 Q1810.35 1437.71 1812.23 1437.41 Q1814.13 1437.11 1815.8 1437.11 Q1820.13 1437.11 1822.65 1439.08 Q1825.17 1441.04 1825.17 1444.38 Q1825.17 1446.72 1823.83 1448.33 Q1822.5 1449.93 1820.03 1450.55 Z" fill="#000000" fill-rule="evenodd" fill-opacity="1" /><path clip-path="url(#clip190)" d="M 0 0 M1829.94 1460.92 L1833.91 1460.92 L1833.91 1465.69 L1829.94 1465.69 L1829.94 1460.92 Z" fill="#000000" fill-rule="evenodd" fill-opacity="1" /><path clip-path="url(#clip190)" d="M 0 0 M1838.07 1437.61 L1852.98 1437.61 L1852.98 1440.81 L1841.55 1440.81 L1841.55 1447.69 Q1842.38 1447.41 1843.2 1447.28 Q1844.03 1447.13 1844.86 1447.13 Q1849.56 1447.13 1852.31 1449.71 Q1855.05 1452.28 1855.05 1456.68 Q1855.05 1461.22 1852.23 1463.74 Q1849.41 1466.24 1844.28 1466.24 Q1842.51 1466.24 1840.66 1465.94 Q1838.84 1465.64 1836.88 1465.04 L1836.88 1461.22 Q1838.58 1462.14 1840.38 1462.59 Q1842.19 1463.04 1844.2 1463.04 Q1847.45 1463.04 1849.35 1461.33 Q1851.25 1459.62 1851.25 1456.68 Q1851.25 1453.75 1849.35 1452.04 Q1847.45 1450.33 1844.2 1450.33 Q1842.68 1450.33 1841.15 1450.67 Q1839.65 1451 1838.07 1451.72 L1838.07 1437.61 Z" fill="#000000" fill-rule="evenodd" fill-opacity="1" /><path clip-path="url(#clip190)" d="M 0 0 M2231.97 1489.17 L2239.61 1489.17 L2239.61 1462.8 L2231.29 1464.47 L2231.29 1460.21 L2239.56 1458.54 L2244.23 1458.54 L2244.23 1489.17 L2251.87 1489.17 L2251.87 1493.1 L2231.97 1493.1 L2231.97 1489.17 Z" fill="#000000" fill-rule="evenodd" fill-opacity="1" /><path clip-path="url(#clip190)" d="M 0 0 M2266.94 1461.62 Q2263.33 1461.62 2261.5 1465.19 Q2259.7 1468.73 2259.7 1475.86 Q2259.7 1482.97 2261.5 1486.53 Q2263.33 1490.07 2266.94 1490.07 Q2270.58 1490.07 2272.38 1486.53 Q2274.21 1482.97 2274.21 1475.86 Q2274.21 1468.73 2272.38 1465.19 Q2270.58 1461.62 2266.94 1461.62 M2266.94 1457.92 Q2272.75 1457.92 2275.81 1462.53 Q2278.89 1467.11 2278.89 1475.86 Q2278.89 1484.59 2275.81 1489.19 Q2272.75 1493.78 2266.94 1493.78 Q2261.13 1493.78 2258.05 1489.19 Q2255 1484.59 2255 1475.86 Q2255 1467.11 2258.05 1462.53 Q2261.13 1457.92 2266.94 1457.92 Z" fill="#000000" fill-rule="evenodd" fill-opacity="1" /><path clip-path="url(#clip190)" d="M 0 0 M2278.89 1452.02 L2303 1452.02 L2303 1455.22 L2278.89 1455.22 L2278.89 1452.02 Z" fill="#000000" fill-rule="evenodd" fill-opacity="1" /><path clip-path="url(#clip190)" d="M 0 0 M2318.63 1450.55 Q2321.36 1451.14 2322.88 1452.98 Q2324.42 1454.82 2324.42 1457.53 Q2324.42 1461.69 2321.56 1463.96 Q2318.7 1466.24 2313.44 1466.24 Q2311.67 1466.24 2309.79 1465.88 Q2307.93 1465.54 2305.93 1464.85 L2305.93 1461.18 Q2307.51 1462.1 2309.39 1462.57 Q2311.27 1463.04 2313.32 1463.04 Q2316.9 1463.04 2318.76 1461.63 Q2320.64 1460.22 2320.64 1457.53 Q2320.64 1455.05 2318.89 1453.66 Q2317.16 1452.25 2314.06 1452.25 L2310.79 1452.25 L2310.79 1449.12 L2314.21 1449.12 Q2317.01 1449.12 2318.5 1448.01 Q2319.98 1446.89 2319.98 1444.78 Q2319.98 1442.62 2318.44 1441.47 Q2316.92 1440.3 2314.06 1440.3 Q2312.5 1440.3 2310.71 1440.64 Q2308.92 1440.98 2306.78 1441.69 L2306.78 1438.31 Q2308.94 1437.71 2310.82 1437.41 Q2312.72 1437.11 2314.4 1437.11 Q2318.72 1437.11 2321.24 1439.08 Q2323.76 1441.04 2323.76 1444.38 Q2323.76 1446.72 2322.43 1448.33 Q2321.09 1449.93 2318.63 1450.55 Z" fill="#000000" fill-rule="evenodd" fill-opacity="1" /><path clip-path="url(#clip190)" d="M 0 0 M2328.54 1460.92 L2332.51 1460.92 L2332.51 1465.69 L2328.54 1465.69 L2328.54 1460.92 Z" fill="#000000" fill-rule="evenodd" fill-opacity="1" /><path clip-path="url(#clip190)" d="M 0 0 M2344.75 1440.11 Q2341.82 1440.11 2340.33 1443.01 Q2338.87 1445.89 2338.87 1451.68 Q2338.87 1457.46 2340.33 1460.35 Q2341.82 1463.23 2344.75 1463.23 Q2347.7 1463.23 2349.17 1460.35 Q2350.66 1457.46 2350.66 1451.68 Q2350.66 1445.89 2349.17 1443.01 Q2347.7 1440.11 2344.75 1440.11 M2344.75 1437.11 Q2349.47 1437.11 2351.96 1440.85 Q2354.46 1444.57 2354.46 1451.68 Q2354.46 1458.77 2351.96 1462.51 Q2349.47 1466.24 2344.75 1466.24 Q2340.03 1466.24 2337.53 1462.51 Q2335.05 1458.77 2335.05 1451.68 Q2335.05 1444.57 2337.53 1440.85 Q2340.03 1437.11 2344.75 1437.11 Z" fill="#000000" fill-rule="evenodd" fill-opacity="1" /><path clip-path="url(#clip190)" d="M 0 0 M1226.4 1512.66 L1232.29 1512.66 L1232.29 1541.91 L1249.76 1526.54 L1257.24 1526.54 L1238.33 1543.22 L1258.03 1562.19 L1250.4 1562.19 L1232.29 1544.78 L1232.29 1562.19 L1226.4 1562.19 L1226.4 1512.66 Z" fill="#000000" fill-rule="evenodd" fill-opacity="1" /><path clip-path="url(#clip190)" d="M 0 0 M1291.26 1573.01 L1291.26 1577.56 L1257.4 1577.56 L1257.4 1573.01 L1291.26 1573.01 Z" fill="#000000" fill-rule="evenodd" fill-opacity="1" /><path clip-path="url(#clip190)" d="M 0 0 M1311.22 1530.64 Q1306.51 1530.64 1303.77 1534.34 Q1301.03 1538 1301.03 1544.39 Q1301.03 1550.79 1303.74 1554.48 Q1306.48 1558.14 1311.22 1558.14 Q1315.9 1558.14 1318.64 1554.45 Q1321.37 1550.76 1321.37 1544.39 Q1321.37 1538.06 1318.64 1534.37 Q1315.9 1530.64 1311.22 1530.64 M1311.22 1525.68 Q1318.86 1525.68 1323.22 1530.64 Q1327.58 1535.61 1327.58 1544.39 Q1327.58 1553.15 1323.22 1558.14 Q1318.86 1563.11 1311.22 1563.11 Q1303.55 1563.11 1299.19 1558.14 Q1294.86 1553.15 1294.86 1544.39 Q1294.86 1535.61 1299.19 1530.64 Q1303.55 1525.68 1311.22 1525.68 Z" fill="#000000" fill-rule="evenodd" fill-opacity="1" /><path clip-path="url(#clip190)" d="M 0 0 M1363.35 1540.67 L1363.35 1562.19 L1357.5 1562.19 L1357.5 1540.86 Q1357.5 1535.8 1355.53 1533.29 Q1353.55 1530.77 1349.61 1530.77 Q1344.86 1530.77 1342.13 1533.79 Q1339.39 1536.82 1339.39 1542.04 L1339.39 1562.19 L1333.5 1562.19 L1333.5 1526.54 L1339.39 1526.54 L1339.39 1532.08 Q1341.49 1528.86 1344.32 1527.27 Q1347.19 1525.68 1350.91 1525.68 Q1357.05 1525.68 1360.2 1529.5 Q1363.35 1533.29 1363.35 1540.67 Z" fill="#000000" fill-rule="evenodd" fill-opacity="1" /><polyline clip-path="url(#clip192)" style="stroke:#000000; stroke-width:2; stroke-opacity:0.1; fill:none" points="
  236.996,1268.07 2352.76,1268.07 
  "/>
<polyline clip-path="url(#clip192)" style="stroke:#000000; stroke-width:2; stroke-opacity:0.1; fill:none" points="
  236.996,995.976 2352.76,995.976 
  "/>
<polyline clip-path="url(#clip192)" style="stroke:#000000; stroke-width:2; stroke-opacity:0.1; fill:none" points="
  236.996,723.88 2352.76,723.88 
  "/>
<polyline clip-path="url(#clip192)" style="stroke:#000000; stroke-width:2; stroke-opacity:0.1; fill:none" points="
  236.996,451.784 2352.76,451.784 
  "/>
<polyline clip-path="url(#clip192)" style="stroke:#000000; stroke-width:2; stroke-opacity:0.1; fill:none" points="
  236.996,179.688 2352.76,179.688 
  "/>
<polyline clip-path="url(#clip190)" style="stroke:#000000; stroke-width:4; stroke-opacity:1; fill:none" points="
  236.996,1410.9 236.996,47.2441 
  "/>
<polyline clip-path="url(#clip190)" style="stroke:#000000; stroke-width:4; stroke-opacity:1; fill:none" points="
  236.996,1268.07 262.385,1268.07 
  "/>
<polyline clip-path="url(#clip190)" style="stroke:#000000; stroke-width:4; stroke-opacity:1; fill:none" points="
  236.996,995.976 262.385,995.976 
  "/>
<polyline clip-path="url(#clip190)" style="stroke:#000000; stroke-width:4; stroke-opacity:1; fill:none" points="
  236.996,723.88 262.385,723.88 
  "/>
<polyline clip-path="url(#clip190)" style="stroke:#000000; stroke-width:4; stroke-opacity:1; fill:none" points="
  236.996,451.784 262.385,451.784 
  "/>
<polyline clip-path="url(#clip190)" style="stroke:#000000; stroke-width:4; stroke-opacity:1; fill:none" points="
  236.996,179.688 262.385,179.688 
  "/>
<path clip-path="url(#clip190)" d="M 0 0 M122.593 1281.42 L138.913 1281.42 L138.913 1285.35 L116.968 1285.35 L116.968 1281.42 Q119.63 1278.66 124.214 1274.03 Q128.82 1269.38 130.001 1268.04 Q132.246 1265.51 133.126 1263.78 Q134.029 1262.02 134.029 1260.33 Q134.029 1257.57 132.084 1255.84 Q130.163 1254.1 127.061 1254.1 Q124.862 1254.1 122.408 1254.87 Q119.978 1255.63 117.2 1257.18 L117.2 1252.46 Q120.024 1251.32 122.478 1250.75 Q124.931 1250.17 126.968 1250.17 Q132.339 1250.17 135.533 1252.85 Q138.728 1255.54 138.728 1260.03 Q138.728 1262.16 137.917 1264.08 Q137.13 1265.98 135.024 1268.57 Q134.445 1269.24 131.343 1272.46 Q128.242 1275.65 122.593 1281.42 Z" fill="#000000" fill-rule="evenodd" fill-opacity="1" /><path clip-path="url(#clip190)" d="M 0 0 M143.982 1279.47 L148.866 1279.47 L148.866 1285.35 L143.982 1285.35 L143.982 1279.47 Z" fill="#000000" fill-rule="evenodd" fill-opacity="1" /><path clip-path="url(#clip190)" d="M 0 0 M152.755 1250.79 L174.977 1250.79 L174.977 1252.78 L162.431 1285.35 L157.547 1285.35 L169.352 1254.73 L152.755 1254.73 L152.755 1250.79 Z" fill="#000000" fill-rule="evenodd" fill-opacity="1" /><path clip-path="url(#clip190)" d="M 0 0 M180.093 1250.79 L198.45 1250.79 L198.45 1254.73 L184.376 1254.73 L184.376 1263.2 Q185.394 1262.85 186.413 1262.69 Q187.431 1262.5 188.45 1262.5 Q194.237 1262.5 197.616 1265.68 Q200.996 1268.85 200.996 1274.26 Q200.996 1279.84 197.524 1282.94 Q194.051 1286.02 187.732 1286.02 Q185.556 1286.02 183.288 1285.65 Q181.042 1285.28 178.635 1284.54 L178.635 1279.84 Q180.718 1280.98 182.94 1281.53 Q185.163 1282.09 187.639 1282.09 Q191.644 1282.09 193.982 1279.98 Q196.32 1277.88 196.32 1274.26 Q196.32 1270.65 193.982 1268.55 Q191.644 1266.44 187.639 1266.44 Q185.764 1266.44 183.889 1266.86 Q182.038 1267.27 180.093 1268.15 L180.093 1250.79 Z" fill="#000000" fill-rule="evenodd" fill-opacity="1" /><path clip-path="url(#clip190)" d="M 0 0 M129.885 994.622 Q133.242 995.339 135.117 997.608 Q137.015 999.876 137.015 1003.21 Q137.015 1008.33 133.496 1011.13 Q129.978 1013.93 123.496 1013.93 Q121.32 1013.93 119.006 1013.49 Q116.714 1013.07 114.26 1012.21 L114.26 1007.7 Q116.205 1008.83 118.519 1009.41 Q120.834 1009.99 123.357 1009.99 Q127.755 1009.99 130.047 1008.26 Q132.362 1006.52 132.362 1003.21 Q132.362 1000.15 130.209 998.441 Q128.08 996.705 124.26 996.705 L120.232 996.705 L120.232 992.862 L124.445 992.862 Q127.894 992.862 129.723 991.497 Q131.552 990.108 131.552 987.515 Q131.552 984.853 129.654 983.441 Q127.779 982.006 124.26 982.006 Q122.339 982.006 120.14 982.423 Q117.941 982.839 115.302 983.719 L115.302 979.552 Q117.964 978.812 120.279 978.441 Q122.617 978.071 124.677 978.071 Q130.001 978.071 133.103 980.501 Q136.204 982.909 136.204 987.029 Q136.204 989.899 134.561 991.89 Q132.917 993.858 129.885 994.622 Z" fill="#000000" fill-rule="evenodd" fill-opacity="1" /><path clip-path="url(#clip190)" d="M 0 0 M142.084 1007.38 L146.968 1007.38 L146.968 1013.26 L142.084 1013.26 L142.084 1007.38 Z" fill="#000000" fill-rule="evenodd" fill-opacity="1" /><path clip-path="url(#clip190)" d="M 0 0 M162.038 981.775 Q158.427 981.775 156.598 985.339 Q154.792 988.881 154.792 996.011 Q154.792 1003.12 156.598 1006.68 Q158.427 1010.22 162.038 1010.22 Q165.672 1010.22 167.477 1006.68 Q169.306 1003.12 169.306 996.011 Q169.306 988.881 167.477 985.339 Q165.672 981.775 162.038 981.775 M162.038 978.071 Q167.848 978.071 170.903 982.677 Q173.982 987.261 173.982 996.011 Q173.982 1004.74 170.903 1009.34 Q167.848 1013.93 162.038 1013.93 Q156.228 1013.93 153.149 1009.34 Q150.093 1004.74 150.093 996.011 Q150.093 987.261 153.149 982.677 Q156.228 978.071 162.038 978.071 Z" fill="#000000" fill-rule="evenodd" fill-opacity="1" /><path clip-path="url(#clip190)" d="M 0 0 M189.051 981.775 Q185.44 981.775 183.612 985.339 Q181.806 988.881 181.806 996.011 Q181.806 1003.12 183.612 1006.68 Q185.44 1010.22 189.051 1010.22 Q192.686 1010.22 194.491 1006.68 Q196.32 1003.12 196.32 996.011 Q196.32 988.881 194.491 985.339 Q192.686 981.775 189.051 981.775 M189.051 978.071 Q194.862 978.071 197.917 982.677 Q200.996 987.261 200.996 996.011 Q200.996 1004.74 197.917 1009.34 Q194.862 1013.93 189.051 1013.93 Q183.241 1013.93 180.163 1009.34 Q177.107 1004.74 177.107 996.011 Q177.107 987.261 180.163 982.677 Q183.241 978.071 189.051 978.071 Z" fill="#000000" fill-rule="evenodd" fill-opacity="1" /><path clip-path="url(#clip190)" d="M 0 0 M132.478 722.526 Q135.834 723.243 137.709 725.512 Q139.607 727.78 139.607 731.114 Q139.607 736.229 136.089 739.03 Q132.57 741.831 126.089 741.831 Q123.913 741.831 121.598 741.391 Q119.306 740.975 116.853 740.118 L116.853 735.604 Q118.797 736.738 121.112 737.317 Q123.427 737.896 125.95 737.896 Q130.348 737.896 132.64 736.16 Q134.954 734.424 134.954 731.114 Q134.954 728.058 132.802 726.345 Q130.672 724.609 126.853 724.609 L122.825 724.609 L122.825 720.766 L127.038 720.766 Q130.487 720.766 132.316 719.401 Q134.144 718.012 134.144 715.419 Q134.144 712.757 132.246 711.345 Q130.371 709.91 126.853 709.91 Q124.931 709.91 122.732 710.327 Q120.533 710.743 117.894 711.623 L117.894 707.456 Q120.556 706.716 122.871 706.345 Q125.209 705.975 127.269 705.975 Q132.593 705.975 135.695 708.405 Q138.797 710.813 138.797 714.933 Q138.797 717.803 137.154 719.794 Q135.51 721.762 132.478 722.526 Z" fill="#000000" fill-rule="evenodd" fill-opacity="1" /><path clip-path="url(#clip190)" d="M 0 0 M144.677 735.28 L149.561 735.28 L149.561 741.16 L144.677 741.16 L144.677 735.28 Z" fill="#000000" fill-rule="evenodd" fill-opacity="1" /><path clip-path="url(#clip190)" d="M 0 0 M158.658 737.225 L174.977 737.225 L174.977 741.16 L153.033 741.16 L153.033 737.225 Q155.695 734.47 160.278 729.84 Q164.885 725.188 166.065 723.845 Q168.311 721.322 169.19 719.586 Q170.093 717.827 170.093 716.137 Q170.093 713.382 168.149 711.646 Q166.227 709.91 163.126 709.91 Q160.927 709.91 158.473 710.674 Q156.042 711.438 153.265 712.989 L153.265 708.266 Q156.089 707.132 158.542 706.553 Q160.996 705.975 163.033 705.975 Q168.403 705.975 171.598 708.66 Q174.792 711.345 174.792 715.836 Q174.792 717.965 173.982 719.887 Q173.195 721.785 171.089 724.377 Q170.51 725.049 167.408 728.266 Q164.306 731.461 158.658 737.225 Z" fill="#000000" fill-rule="evenodd" fill-opacity="1" /><path clip-path="url(#clip190)" d="M 0 0 M180.093 706.6 L198.45 706.6 L198.45 710.535 L184.376 710.535 L184.376 719.007 Q185.394 718.66 186.413 718.498 Q187.431 718.313 188.45 718.313 Q194.237 718.313 197.616 721.484 Q200.996 724.655 200.996 730.072 Q200.996 735.651 197.524 738.752 Q194.051 741.831 187.732 741.831 Q185.556 741.831 183.288 741.461 Q181.042 741.09 178.635 740.35 L178.635 735.651 Q180.718 736.785 182.94 737.34 Q185.163 737.896 187.639 737.896 Q191.644 737.896 193.982 735.789 Q196.32 733.683 196.32 730.072 Q196.32 726.461 193.982 724.354 Q191.644 722.248 187.639 722.248 Q185.764 722.248 183.889 722.664 Q182.038 723.081 180.093 723.961 L180.093 706.6 Z" fill="#000000" fill-rule="evenodd" fill-opacity="1" /><path clip-path="url(#clip190)" d="M 0 0 M130.88 450.43 Q134.237 451.147 136.112 453.416 Q138.01 455.684 138.01 459.017 Q138.01 464.133 134.492 466.934 Q130.973 469.735 124.492 469.735 Q122.316 469.735 120.001 469.295 Q117.709 468.879 115.256 468.022 L115.256 463.508 Q117.2 464.642 119.515 465.221 Q121.83 465.8 124.353 465.8 Q128.751 465.8 131.042 464.064 Q133.357 462.328 133.357 459.017 Q133.357 455.962 131.205 454.249 Q129.075 452.513 125.255 452.513 L121.228 452.513 L121.228 448.67 L125.441 448.67 Q128.89 448.67 130.718 447.305 Q132.547 445.916 132.547 443.323 Q132.547 440.661 130.649 439.249 Q128.774 437.814 125.255 437.814 Q123.334 437.814 121.135 438.231 Q118.936 438.647 116.297 439.527 L116.297 435.36 Q118.959 434.619 121.274 434.249 Q123.612 433.879 125.672 433.879 Q130.996 433.879 134.098 436.309 Q137.2 438.717 137.2 442.837 Q137.2 445.707 135.556 447.698 Q133.913 449.666 130.88 450.43 Z" fill="#000000" fill-rule="evenodd" fill-opacity="1" /><path clip-path="url(#clip190)" d="M 0 0 M143.079 463.184 L147.964 463.184 L147.964 469.064 L143.079 469.064 L143.079 463.184 Z" fill="#000000" fill-rule="evenodd" fill-opacity="1" /><path clip-path="url(#clip190)" d="M 0 0 M153.079 434.504 L171.436 434.504 L171.436 438.439 L157.362 438.439 L157.362 446.911 Q158.38 446.564 159.399 446.402 Q160.417 446.217 161.436 446.217 Q167.223 446.217 170.602 449.388 Q173.982 452.559 173.982 457.976 Q173.982 463.554 170.51 466.656 Q167.038 469.735 160.718 469.735 Q158.542 469.735 156.274 469.365 Q154.028 468.994 151.621 468.254 L151.621 463.554 Q153.704 464.689 155.927 465.244 Q158.149 465.8 160.626 465.8 Q164.63 465.8 166.968 463.693 Q169.306 461.587 169.306 457.976 Q169.306 454.365 166.968 452.258 Q164.63 450.152 160.626 450.152 Q158.751 450.152 156.876 450.568 Q155.024 450.985 153.079 451.865 L153.079 434.504 Z" fill="#000000" fill-rule="evenodd" fill-opacity="1" /><path clip-path="url(#clip190)" d="M 0 0 M189.051 437.582 Q185.44 437.582 183.612 441.147 Q181.806 444.689 181.806 451.818 Q181.806 458.925 183.612 462.49 Q185.44 466.031 189.051 466.031 Q192.686 466.031 194.491 462.49 Q196.32 458.925 196.32 451.818 Q196.32 444.689 194.491 441.147 Q192.686 437.582 189.051 437.582 M189.051 433.879 Q194.862 433.879 197.917 438.485 Q200.996 443.068 200.996 451.818 Q200.996 460.545 197.917 465.152 Q194.862 469.735 189.051 469.735 Q183.241 469.735 180.163 465.152 Q177.107 460.545 177.107 451.818 Q177.107 443.068 180.163 438.485 Q183.241 433.879 189.051 433.879 Z" fill="#000000" fill-rule="evenodd" fill-opacity="1" /><path clip-path="url(#clip190)" d="M 0 0 M131.783 178.333 Q135.14 179.051 137.015 181.32 Q138.913 183.588 138.913 186.921 Q138.913 192.037 135.394 194.838 Q131.876 197.639 125.394 197.639 Q123.218 197.639 120.904 197.199 Q118.612 196.782 116.158 195.926 L116.158 191.412 Q118.103 192.546 120.418 193.125 Q122.732 193.704 125.255 193.704 Q129.654 193.704 131.945 191.968 Q134.26 190.232 134.26 186.921 Q134.26 183.866 132.107 182.153 Q129.978 180.417 126.158 180.417 L122.13 180.417 L122.13 176.574 L126.343 176.574 Q129.792 176.574 131.621 175.208 Q133.45 173.82 133.45 171.227 Q133.45 168.565 131.552 167.153 Q129.677 165.718 126.158 165.718 Q124.237 165.718 122.038 166.134 Q119.839 166.551 117.2 167.431 L117.2 163.264 Q119.862 162.523 122.177 162.153 Q124.515 161.783 126.575 161.783 Q131.899 161.783 135.001 164.213 Q138.103 166.621 138.103 170.741 Q138.103 173.611 136.459 175.602 Q134.816 177.57 131.783 178.333 Z" fill="#000000" fill-rule="evenodd" fill-opacity="1" /><path clip-path="url(#clip190)" d="M 0 0 M143.982 191.088 L148.866 191.088 L148.866 196.968 L143.982 196.968 L143.982 191.088 Z" fill="#000000" fill-rule="evenodd" fill-opacity="1" /><path clip-path="url(#clip190)" d="M 0 0 M152.755 162.408 L174.977 162.408 L174.977 164.398 L162.431 196.968 L157.547 196.968 L169.352 166.343 L152.755 166.343 L152.755 162.408 Z" fill="#000000" fill-rule="evenodd" fill-opacity="1" /><path clip-path="url(#clip190)" d="M 0 0 M180.093 162.408 L198.45 162.408 L198.45 166.343 L184.376 166.343 L184.376 174.815 Q185.394 174.468 186.413 174.306 Q187.431 174.121 188.45 174.121 Q194.237 174.121 197.616 177.292 Q200.996 180.463 200.996 185.88 Q200.996 191.458 197.524 194.56 Q194.051 197.639 187.732 197.639 Q185.556 197.639 183.288 197.269 Q181.042 196.898 178.635 196.157 L178.635 191.458 Q180.718 192.593 182.94 193.148 Q185.163 193.704 187.639 193.704 Q191.644 193.704 193.982 191.597 Q196.32 189.491 196.32 185.88 Q196.32 182.269 193.982 180.162 Q191.644 178.056 187.639 178.056 Q185.764 178.056 183.889 178.472 Q182.038 178.889 180.093 179.769 L180.093 162.408 Z" fill="#000000" fill-rule="evenodd" fill-opacity="1" /><path clip-path="url(#clip190)" d="M 0 0 M59.1993 815.533 Q55.2526 813.336 53.3747 810.281 Q51.4968 807.225 51.4968 803.088 Q51.4968 797.518 55.4117 794.494 Q59.2948 791.47 66.4881 791.47 L88.0042 791.47 L88.0042 797.358 L66.679 797.358 Q61.5546 797.358 59.072 799.173 Q56.5894 800.987 56.5894 804.711 Q56.5894 809.262 59.6131 811.904 Q62.6368 814.546 67.8567 814.546 L88.0042 814.546 L88.0042 820.434 L66.679 820.434 Q61.5228 820.434 59.072 822.248 Q56.5894 824.063 56.5894 827.85 Q56.5894 832.338 59.6449 834.98 Q62.6686 837.622 67.8567 837.622 L88.0042 837.622 L88.0042 843.51 L52.3562 843.51 L52.3562 837.622 L57.8944 837.622 Q54.616 835.616 53.0564 832.815 Q51.4968 830.015 51.4968 826.163 Q51.4968 822.28 53.4702 819.575 Q55.4436 816.838 59.1993 815.533 Z" fill="#000000" fill-rule="evenodd" fill-opacity="1" /><path clip-path="url(#clip190)" d="M 0 0 M52.3562 785.327 L52.3562 779.471 L88.0042 779.471 L88.0042 785.327 L52.3562 785.327 M38.479 785.327 L38.479 779.471 L45.895 779.471 L45.895 785.327 L38.479 785.327 Z" fill="#000000" fill-rule="evenodd" fill-opacity="1" /><path clip-path="url(#clip190)" d="M 0 0 M66.4881 743.696 L88.0042 743.696 L88.0042 749.552 L66.679 749.552 Q61.6183 749.552 59.1038 751.525 Q56.5894 753.499 56.5894 757.446 Q56.5894 762.188 59.6131 764.925 Q62.6368 767.662 67.8567 767.662 L88.0042 767.662 L88.0042 773.551 L52.3562 773.551 L52.3562 767.662 L57.8944 767.662 Q54.6797 765.562 53.0883 762.729 Q51.4968 759.864 51.4968 756.141 Q51.4968 749.998 55.3163 746.847 Q59.1038 743.696 66.4881 743.696 Z" fill="#000000" fill-rule="evenodd" fill-opacity="1" /><path clip-path="url(#clip190)" d="M 0 0 M98.8259 710.467 L103.377 710.467 L103.377 744.332 L98.8259 744.332 L98.8259 710.467 Z" fill="#000000" fill-rule="evenodd" fill-opacity="1" /><path clip-path="url(#clip190)" d="M 0 0 M57.7671 680.866 L38.479 680.866 L38.479 675.01 L88.0042 675.01 L88.0042 680.866 L82.657 680.866 Q85.8398 682.712 87.3994 685.545 Q88.9272 688.346 88.9272 692.292 Q88.9272 698.754 83.771 702.828 Q78.6147 706.87 70.212 706.87 Q61.8093 706.87 56.6531 702.828 Q51.4968 698.754 51.4968 692.292 Q51.4968 688.346 53.0564 685.545 Q54.5842 682.712 57.7671 680.866 M70.212 700.823 Q76.6732 700.823 80.3653 698.181 Q84.0256 695.507 84.0256 690.86 Q84.0256 686.213 80.3653 683.54 Q76.6732 680.866 70.212 680.866 Q63.7508 680.866 60.0905 683.54 Q56.3984 686.213 56.3984 690.86 Q56.3984 695.507 60.0905 698.181 Q63.7508 700.823 70.212 700.823 Z" fill="#000000" fill-rule="evenodd" fill-opacity="1" /><path clip-path="url(#clip190)" d="M 0 0 M52.3562 668.867 L52.3562 663.01 L88.0042 663.01 L88.0042 668.867 L52.3562 668.867 M38.479 668.867 L38.479 663.01 L45.895 663.01 L45.895 668.867 L38.479 668.867 Z" fill="#000000" fill-rule="evenodd" fill-opacity="1" /><path clip-path="url(#clip190)" d="M 0 0 M38.479 638.821 L43.3487 638.821 L43.3487 644.422 Q43.3487 647.573 44.6219 648.815 Q45.895 650.024 49.2052 650.024 L52.3562 650.024 L52.3562 640.38 L56.9077 640.38 L56.9077 650.024 L88.0042 650.024 L88.0042 655.912 L56.9077 655.912 L56.9077 661.514 L52.3562 661.514 L52.3562 655.912 L49.8736 655.912 Q43.9216 655.912 41.2162 653.143 Q38.479 650.374 38.479 644.359 L38.479 638.821 Z" fill="#000000" fill-rule="evenodd" fill-opacity="1" /><path clip-path="url(#clip190)" d="M 0 0 M38.479 614.631 L43.3487 614.631 L43.3487 620.233 Q43.3487 623.384 44.6219 624.625 Q45.895 625.835 49.2052 625.835 L52.3562 625.835 L52.3562 616.19 L56.9077 616.19 L56.9077 625.835 L88.0042 625.835 L88.0042 631.723 L56.9077 631.723 L56.9077 637.325 L52.3562 637.325 L52.3562 631.723 L49.8736 631.723 Q43.9216 631.723 41.2162 628.954 Q38.479 626.185 38.479 620.169 L38.479 614.631 Z" fill="#000000" fill-rule="evenodd" fill-opacity="1" /><polyline clip-path="url(#clip192)" style="stroke:#009af9; stroke-width:20; stroke-opacity:1; fill:none" stroke-dasharray="80, 50" points="
  296.876,464.543 1294.88,1372.3 2292.88,85.838 
  "/>
<path clip-path="url(#clip190)" d="
M1996.13 213.659 L2282.23 213.659 L2282.23 92.6992 L1996.13 92.6992  Z
  " fill="#ffffff" fill-rule="evenodd" fill-opacity="1"/>
<polyline clip-path="url(#clip190)" style="stroke:#000000; stroke-width:4; stroke-opacity:1; fill:none" points="
  1996.13,213.659 2282.23,213.659 2282.23,92.6992 1996.13,92.6992 1996.13,213.659 
  "/>
<polyline clip-path="url(#clip190)" style="stroke:#009af9; stroke-width:4; stroke-opacity:1; fill:none" stroke-dasharray="16, 10" points="
  2019.64,153.179 2160.69,153.179 
  "/>
<path clip-path="url(#clip190)" d="M 0 0 M2198.04 172.867 Q2196.23 177.496 2194.52 178.908 Q2192.81 180.32 2189.94 180.32 L2186.53 180.32 L2186.53 176.755 L2189.03 176.755 Q2190.79 176.755 2191.76 175.922 Q2192.74 175.089 2193.92 171.987 L2194.68 170.043 L2184.2 144.533 L2188.71 144.533 L2196.81 164.811 L2204.91 144.533 L2209.43 144.533 L2198.04 172.867 Z" fill="#000000" fill-rule="evenodd" fill-opacity="1" /><path clip-path="url(#clip190)" d="M 0 0 M2215.31 166.524 L2222.95 166.524 L2222.95 140.158 L2214.64 141.825 L2214.64 137.566 L2222.9 135.899 L2227.57 135.899 L2227.57 166.524 L2235.21 166.524 L2235.21 170.459 L2215.31 170.459 L2215.31 166.524 Z" fill="#000000" fill-rule="evenodd" fill-opacity="1" /></svg>
