<?xml version="1.0" encoding="utf-8"?>
<svg xmlns="http://www.w3.org/2000/svg" xmlns:xlink="http://www.w3.org/1999/xlink" width="600" height="400" viewBox="0 0 2400 1600">
<defs>
  <clipPath id="clip420">
    <rect x="0" y="0" width="2400" height="1600"/>
  </clipPath>
</defs>
<path clip-path="url(#clip420)" d="
M0 1600 L2400 1600 L2400 0 L0 0  Z
  " fill="#ffffff" fill-rule="evenodd" fill-opacity="1"/>
<defs>
  <clipPath id="clip421">
    <rect x="480" y="0" width="1681" height="1600"/>
  </clipPath>
</defs>
<path clip-path="url(#clip420)" d="
M236.186 1410.9 L2352.76 1410.9 L2352.76 47.2441 L236.186 47.2441  Z
  " fill="#ffffff" fill-rule="evenodd" fill-opacity="1"/>
<defs>
  <clipPath id="clip422">
    <rect x="236" y="47" width="2118" height="1365"/>
  </clipPath>
</defs>
<polyline clip-path="url(#clip422)" style="stroke:#000000; stroke-width:2; stroke-opacity:0.1; fill:none" points="
  296.089,1410.9 296.089,47.2441 
  "/>
<polyline clip-path="url(#clip422)" style="stroke:#000000; stroke-width:2; stroke-opacity:0.1; fill:none" points="
  795.28,1410.9 795.28,47.2441 
  "/>
<polyline clip-path="url(#clip422)" style="stroke:#000000; stroke-width:2; stroke-opacity:0.1; fill:none" points="
  1294.47,1410.9 1294.47,47.2441 
  "/>
<polyline clip-path="url(#clip422)" style="stroke:#000000; stroke-width:2; stroke-opacity:0.1; fill:none" points="
  1793.66,1410.9 1793.66,47.2441 
  "/>
<polyline clip-path="url(#clip422)" style="stroke:#000000; stroke-width:2; stroke-opacity:0.1; fill:none" points="
  2292.85,1410.9 2292.85,47.2441 
  "/>
<polyline clip-path="url(#clip420)" style="stroke:#000000; stroke-width:4; stroke-opacity:1; fill:none" points="
  236.186,1410.9 2352.76,1410.9 
  "/>
<polyline clip-path="url(#clip420)" style="stroke:#000000; stroke-width:4; stroke-opacity:1; fill:none" points="
  296.089,1410.9 296.089,1394.53 
  "/>
<polyline clip-path="url(#clip420)" style="stroke:#000000; stroke-width:4; stroke-opacity:1; fill:none" points="
  795.28,1410.9 795.28,1394.53 
  "/>
<polyline clip-path="url(#clip420)" style="stroke:#000000; stroke-width:4; stroke-opacity:1; fill:none" points="
  1294.47,1410.9 1294.47,1394.53 
  "/>
<polyline clip-path="url(#clip420)" style="stroke:#000000; stroke-width:4; stroke-opacity:1; fill:none" points="
  1793.66,1410.9 1793.66,1394.53 
  "/>
<polyline clip-path="url(#clip420)" style="stroke:#000000; stroke-width:4; stroke-opacity:1; fill:none" points="
  2292.85,1410.9 2292.85,1394.53 
  "/>
<path clip-path="url(#clip420)" d="M 0 0 M250.338 1489.17 L257.977 1489.17 L257.977 1462.8 L249.667 1464.47 L249.667 1460.21 L257.93 1458.54 L262.606 1458.54 L262.606 1489.17 L270.245 1489.17 L270.245 1493.1 L250.338 1493.1 L250.338 1489.17 Z" fill="#000000" fill-rule="evenodd" fill-opacity="1" /><path clip-path="url(#clip420)" d="M 0 0 M285.315 1461.62 Q281.704 1461.62 279.875 1465.19 Q278.069 1468.73 278.069 1475.86 Q278.069 1482.97 279.875 1486.53 Q281.704 1490.07 285.315 1490.07 Q288.949 1490.07 290.754 1486.53 Q292.583 1482.97 292.583 1475.86 Q292.583 1468.73 290.754 1465.19 Q288.949 1461.62 285.315 1461.62 M285.315 1457.92 Q291.125 1457.92 294.18 1462.53 Q297.259 1467.11 297.259 1475.86 Q297.259 1484.59 294.18 1489.19 Q291.125 1493.78 285.315 1493.78 Q279.504 1493.78 276.426 1489.19 Q273.37 1484.59 273.37 1475.86 Q273.37 1467.11 276.426 1462.53 Q279.504 1457.92 285.315 1457.92 Z" fill="#000000" fill-rule="evenodd" fill-opacity="1" /><path clip-path="url(#clip420)" d="M 0 0 M297.259 1452.02 L321.371 1452.02 L321.371 1455.22 L297.259 1455.22 L297.259 1452.02 Z" fill="#000000" fill-rule="evenodd" fill-opacity="1" /><path clip-path="url(#clip420)" d="M 0 0 M325.527 1437.61 L340.442 1437.61 L340.442 1440.81 L329.006 1440.81 L329.006 1447.69 Q329.834 1447.41 330.662 1447.28 Q331.489 1447.13 332.317 1447.13 Q337.019 1447.13 339.765 1449.71 Q342.51 1452.28 342.51 1456.68 Q342.51 1461.22 339.689 1463.74 Q336.868 1466.24 331.734 1466.24 Q329.966 1466.24 328.123 1465.94 Q326.298 1465.64 324.342 1465.04 L324.342 1461.22 Q326.035 1462.14 327.84 1462.59 Q329.646 1463.04 331.658 1463.04 Q334.912 1463.04 336.812 1461.33 Q338.711 1459.62 338.711 1456.68 Q338.711 1453.75 336.812 1452.04 Q334.912 1450.33 331.658 1450.33 Q330.135 1450.33 328.612 1450.67 Q327.107 1451 325.527 1451.72 L325.527 1437.61 Z" fill="#000000" fill-rule="evenodd" fill-opacity="1" /><path clip-path="url(#clip420)" d="M 0 0 M748.927 1489.17 L756.566 1489.17 L756.566 1462.8 L748.256 1464.47 L748.256 1460.21 L756.52 1458.54 L761.196 1458.54 L761.196 1489.17 L768.834 1489.17 L768.834 1493.1 L748.927 1493.1 L748.927 1489.17 Z" fill="#000000" fill-rule="evenodd" fill-opacity="1" /><path clip-path="url(#clip420)" d="M 0 0 M783.904 1461.62 Q780.293 1461.62 778.464 1465.19 Q776.659 1468.73 776.659 1475.86 Q776.659 1482.97 778.464 1486.53 Q780.293 1490.07 783.904 1490.07 Q787.538 1490.07 789.344 1486.53 Q791.172 1482.97 791.172 1475.86 Q791.172 1468.73 789.344 1465.19 Q787.538 1461.62 783.904 1461.62 M783.904 1457.92 Q789.714 1457.92 792.77 1462.53 Q795.848 1467.11 795.848 1475.86 Q795.848 1484.59 792.77 1489.19 Q789.714 1493.78 783.904 1493.78 Q778.094 1493.78 775.015 1489.19 Q771.959 1484.59 771.959 1475.86 Q771.959 1467.11 775.015 1462.53 Q778.094 1457.92 783.904 1457.92 Z" fill="#000000" fill-rule="evenodd" fill-opacity="1" /><path clip-path="url(#clip420)" d="M 0 0 M795.848 1452.02 L819.96 1452.02 L819.96 1455.22 L795.848 1455.22 L795.848 1452.02 Z" fill="#000000" fill-rule="evenodd" fill-opacity="1" /><path clip-path="url(#clip420)" d="M 0 0 M834.517 1440.92 L824.925 1455.91 L834.517 1455.91 L834.517 1440.92 M833.52 1437.61 L838.297 1437.61 L838.297 1455.91 L842.303 1455.91 L842.303 1459.07 L838.297 1459.07 L838.297 1465.69 L834.517 1465.69 L834.517 1459.07 L821.841 1459.07 L821.841 1455.41 L833.52 1437.61 Z" fill="#000000" fill-rule="evenodd" fill-opacity="1" /><path clip-path="url(#clip420)" d="M 0 0 M1248.58 1489.17 L1256.22 1489.17 L1256.22 1462.8 L1247.91 1464.47 L1247.91 1460.21 L1256.17 1458.54 L1260.85 1458.54 L1260.85 1489.17 L1268.49 1489.17 L1268.49 1493.1 L1248.58 1493.1 L1248.58 1489.17 Z" fill="#000000" fill-rule="evenodd" fill-opacity="1" /><path clip-path="url(#clip420)" d="M 0 0 M1283.56 1461.62 Q1279.94 1461.62 1278.12 1465.19 Q1276.31 1468.73 1276.31 1475.86 Q1276.31 1482.97 1278.12 1486.53 Q1279.94 1490.07 1283.56 1490.07 Q1287.19 1490.07 1289 1486.53 Q1290.82 1482.97 1290.82 1475.86 Q1290.82 1468.73 1289 1465.19 Q1287.19 1461.62 1283.56 1461.62 M1283.56 1457.92 Q1289.37 1457.92 1292.42 1462.53 Q1295.5 1467.11 1295.5 1475.86 Q1295.5 1484.59 1292.42 1489.19 Q1289.37 1493.78 1283.56 1493.78 Q1277.75 1493.78 1274.67 1489.19 Q1271.61 1484.59 1271.61 1475.86 Q1271.61 1467.11 1274.67 1462.53 Q1277.75 1457.92 1283.56 1457.92 Z" fill="#000000" fill-rule="evenodd" fill-opacity="1" /><path clip-path="url(#clip420)" d="M 0 0 M1295.5 1452.02 L1319.61 1452.02 L1319.61 1455.22 L1295.5 1455.22 L1295.5 1452.02 Z" fill="#000000" fill-rule="evenodd" fill-opacity="1" /><path clip-path="url(#clip420)" d="M 0 0 M1335.24 1450.55 Q1337.97 1451.14 1339.49 1452.98 Q1341.03 1454.82 1341.03 1457.53 Q1341.03 1461.69 1338.17 1463.96 Q1335.32 1466.24 1330.05 1466.24 Q1328.28 1466.24 1326.4 1465.88 Q1324.54 1465.54 1322.55 1464.85 L1322.55 1461.18 Q1324.13 1462.1 1326.01 1462.57 Q1327.89 1463.04 1329.94 1463.04 Q1333.51 1463.04 1335.37 1461.63 Q1337.25 1460.22 1337.25 1457.53 Q1337.25 1455.05 1335.5 1453.66 Q1333.77 1452.25 1330.67 1452.25 L1327.4 1452.25 L1327.4 1449.12 L1330.82 1449.12 Q1333.62 1449.12 1335.11 1448.01 Q1336.6 1446.89 1336.6 1444.78 Q1336.6 1442.62 1335.05 1441.47 Q1333.53 1440.3 1330.67 1440.3 Q1329.11 1440.3 1327.32 1440.64 Q1325.54 1440.98 1323.39 1441.69 L1323.39 1438.31 Q1325.55 1437.71 1327.44 1437.41 Q1329.34 1437.11 1331.01 1437.11 Q1335.33 1437.11 1337.86 1439.08 Q1340.38 1441.04 1340.38 1444.38 Q1340.38 1446.72 1339.04 1448.33 Q1337.7 1449.93 1335.24 1450.55 Z" fill="#000000" fill-rule="evenodd" fill-opacity="1" /><path clip-path="url(#clip420)" d="M 0 0 M1748.16 1489.17 L1755.79 1489.17 L1755.79 1462.8 L1747.48 1464.47 L1747.48 1460.21 L1755.75 1458.54 L1760.42 1458.54 L1760.42 1489.17 L1768.06 1489.17 L1768.06 1493.1 L1748.16 1493.1 L1748.16 1489.17 Z" fill="#000000" fill-rule="evenodd" fill-opacity="1" /><path clip-path="url(#clip420)" d="M 0 0 M1783.13 1461.62 Q1779.52 1461.62 1777.69 1465.19 Q1775.89 1468.73 1775.89 1475.86 Q1775.89 1482.97 1777.69 1486.53 Q1779.52 1490.07 1783.13 1490.07 Q1786.77 1490.07 1788.57 1486.53 Q1790.4 1482.97 1790.4 1475.86 Q1790.4 1468.73 1788.57 1465.19 Q1786.77 1461.62 1783.13 1461.62 M1783.13 1457.92 Q1788.94 1457.92 1792 1462.53 Q1795.08 1467.11 1795.08 1475.86 Q1795.08 1484.59 1792 1489.19 Q1788.94 1493.78 1783.13 1493.78 Q1777.32 1493.78 1774.24 1489.19 Q1771.19 1484.59 1771.19 1475.86 Q1771.19 1467.11 1774.24 1462.53 Q1777.32 1457.92 1783.13 1457.92 Z" fill="#000000" fill-rule="evenodd" fill-opacity="1" /><path clip-path="url(#clip420)" d="M 0 0 M1795.08 1452.02 L1819.19 1452.02 L1819.19 1455.22 L1795.08 1455.22 L1795.08 1452.02 Z" fill="#000000" fill-rule="evenodd" fill-opacity="1" /><path clip-path="url(#clip420)" d="M 0 0 M1826.58 1462.5 L1839.84 1462.5 L1839.84 1465.69 L1822.01 1465.69 L1822.01 1462.5 Q1824.17 1460.26 1827.9 1456.5 Q1831.64 1452.72 1832.6 1451.63 Q1834.42 1449.58 1835.14 1448.16 Q1835.87 1446.74 1835.87 1445.36 Q1835.87 1443.12 1834.29 1441.71 Q1832.73 1440.3 1830.21 1440.3 Q1828.42 1440.3 1826.43 1440.92 Q1824.45 1441.54 1822.2 1442.8 L1822.2 1438.97 Q1824.49 1438.05 1826.49 1437.58 Q1828.48 1437.11 1830.13 1437.11 Q1834.5 1437.11 1837.09 1439.29 Q1839.69 1441.47 1839.69 1445.12 Q1839.69 1446.85 1839.03 1448.41 Q1838.39 1449.95 1836.68 1452.06 Q1836.21 1452.6 1833.69 1455.22 Q1831.17 1457.81 1826.58 1462.5 Z" fill="#000000" fill-rule="evenodd" fill-opacity="1" /><path clip-path="url(#clip420)" d="M 0 0 M2247.2 1489.17 L2254.84 1489.17 L2254.84 1462.8 L2246.53 1464.47 L2246.53 1460.21 L2254.79 1458.54 L2259.46 1458.54 L2259.46 1489.17 L2267.1 1489.17 L2267.1 1493.1 L2247.2 1493.1 L2247.2 1489.17 Z" fill="#000000" fill-rule="evenodd" fill-opacity="1" /><path clip-path="url(#clip420)" d="M 0 0 M2282.17 1461.62 Q2278.56 1461.62 2276.73 1465.19 Q2274.93 1468.73 2274.93 1475.86 Q2274.93 1482.97 2276.73 1486.53 Q2278.56 1490.07 2282.17 1490.07 Q2285.81 1490.07 2287.61 1486.53 Q2289.44 1482.97 2289.44 1475.86 Q2289.44 1468.73 2287.61 1465.19 Q2285.81 1461.62 2282.17 1461.62 M2282.17 1457.92 Q2287.98 1457.92 2291.04 1462.53 Q2294.12 1467.11 2294.12 1475.86 Q2294.12 1484.59 2291.04 1489.19 Q2287.98 1493.78 2282.17 1493.78 Q2276.36 1493.78 2273.28 1489.19 Q2270.23 1484.59 2270.23 1475.86 Q2270.23 1467.11 2273.28 1462.53 Q2276.36 1457.92 2282.17 1457.92 Z" fill="#000000" fill-rule="evenodd" fill-opacity="1" /><path clip-path="url(#clip420)" d="M 0 0 M2294.12 1452.02 L2318.23 1452.02 L2318.23 1455.22 L2294.12 1455.22 L2294.12 1452.02 Z" fill="#000000" fill-rule="evenodd" fill-opacity="1" /><path clip-path="url(#clip420)" d="M 0 0 M2323.01 1462.5 L2329.21 1462.5 L2329.21 1441.07 L2322.46 1442.43 L2322.46 1438.97 L2329.18 1437.61 L2332.97 1437.61 L2332.97 1462.5 L2339.18 1462.5 L2339.18 1465.69 L2323.01 1465.69 L2323.01 1462.5 Z" fill="#000000" fill-rule="evenodd" fill-opacity="1" /><path clip-path="url(#clip420)" d="M 0 0 M1219.69 1512.66 L1225.58 1512.66 L1225.58 1541.91 L1243.05 1526.54 L1250.53 1526.54 L1231.63 1543.22 L1251.33 1562.19 L1243.69 1562.19 L1225.58 1544.78 L1225.58 1562.19 L1219.69 1562.19 L1219.69 1512.66 Z" fill="#000000" fill-rule="evenodd" fill-opacity="1" /><path clip-path="url(#clip420)" d="M 0 0 M1284.56 1573.01 L1284.56 1577.56 L1250.69 1577.56 L1250.69 1573.01 L1284.56 1573.01 Z" fill="#000000" fill-rule="evenodd" fill-opacity="1" /><path clip-path="url(#clip420)" d="M 0 0 M1304.51 1530.64 Q1299.8 1530.64 1297.06 1534.34 Q1294.33 1538 1294.33 1544.39 Q1294.33 1550.79 1297.03 1554.48 Q1299.77 1558.14 1304.51 1558.14 Q1309.19 1558.14 1311.93 1554.45 Q1314.67 1550.76 1314.67 1544.39 Q1314.67 1538.06 1311.93 1534.37 Q1309.19 1530.64 1304.51 1530.64 M1304.51 1525.68 Q1312.15 1525.68 1316.51 1530.64 Q1320.87 1535.61 1320.87 1544.39 Q1320.87 1553.15 1316.51 1558.14 Q1312.15 1563.11 1304.51 1563.11 Q1296.84 1563.11 1292.48 1558.14 Q1288.15 1553.15 1288.15 1544.39 Q1288.15 1535.61 1292.48 1530.64 Q1296.84 1525.68 1304.51 1525.68 Z" fill="#000000" fill-rule="evenodd" fill-opacity="1" /><path clip-path="url(#clip420)" d="M 0 0 M1345.06 1512.66 L1345.06 1517.53 L1339.46 1517.53 Q1336.31 1517.53 1335.07 1518.8 Q1333.86 1520.08 1333.86 1523.39 L1333.86 1526.54 L1343.5 1526.54 L1343.5 1531.09 L1333.86 1531.09 L1333.86 1562.19 L1327.97 1562.19 L1327.97 1531.09 L1322.37 1531.09 L1322.37 1526.54 L1327.97 1526.54 L1327.97 1524.05 Q1327.97 1518.1 1330.74 1515.4 Q1333.51 1512.66 1339.52 1512.66 L1345.06 1512.66 Z" fill="#000000" fill-rule="evenodd" fill-opacity="1" /><path clip-path="url(#clip420)" d="M 0 0 M1369.25 1512.66 L1369.25 1517.53 L1363.65 1517.53 Q1360.5 1517.53 1359.26 1518.8 Q1358.05 1520.08 1358.05 1523.39 L1358.05 1526.54 L1367.69 1526.54 L1367.69 1531.09 L1358.05 1531.09 L1358.05 1562.19 L1352.16 1562.19 L1352.16 1531.09 L1346.56 1531.09 L1346.56 1526.54 L1352.16 1526.54 L1352.16 1524.05 Q1352.16 1518.1 1354.93 1515.4 Q1357.7 1512.66 1363.71 1512.66 L1369.25 1512.66 Z" fill="#000000" fill-rule="evenodd" fill-opacity="1" /><polyline clip-path="url(#clip422)" style="stroke:#000000; stroke-width:2; stroke-opacity:0.1; fill:none" points="
  236.186,1312.45 2352.76,1312.45 
  "/>
<polyline clip-path="url(#clip422)" style="stroke:#000000; stroke-width:2; stroke-opacity:0.1; fill:none" points="
  236.186,1125.32 2352.76,1125.32 
  "/>
<polyline clip-path="url(#clip422)" style="stroke:#000000; stroke-width:2; stroke-opacity:0.1; fill:none" points="
  236.186,938.184 2352.76,938.184 
  "/>
<polyline clip-path="url(#clip422)" style="stroke:#000000; stroke-width:2; stroke-opacity:0.1; fill:none" points="
  236.186,751.052 2352.76,751.052 
  "/>
<polyline clip-path="url(#clip422)" style="stroke:#000000; stroke-width:2; stroke-opacity:0.1; fill:none" points="
  236.186,563.919 2352.76,563.919 
  "/>
<polyline clip-path="url(#clip422)" style="stroke:#000000; stroke-width:2; stroke-opacity:0.1; fill:none" points="
  236.186,376.787 2352.76,376.787 
  "/>
<polyline clip-path="url(#clip422)" style="stroke:#000000; stroke-width:2; stroke-opacity:0.1; fill:none" points="
  236.186,189.654 2352.76,189.654 
  "/>
<polyline clip-path="url(#clip420)" style="stroke:#000000; stroke-width:4; stroke-opacity:1; fill:none" points="
  236.186,1410.9 236.186,47.2441 
  "/>
<polyline clip-path="url(#clip420)" style="stroke:#000000; stroke-width:4; stroke-opacity:1; fill:none" points="
  236.186,1312.45 261.584,1312.45 
  "/>
<polyline clip-path="url(#clip420)" style="stroke:#000000; stroke-width:4; stroke-opacity:1; fill:none" points="
  236.186,1125.32 261.584,1125.32 
  "/>
<polyline clip-path="url(#clip420)" style="stroke:#000000; stroke-width:4; stroke-opacity:1; fill:none" points="
  236.186,938.184 261.584,938.184 
  "/>
<polyline clip-path="url(#clip420)" style="stroke:#000000; stroke-width:4; stroke-opacity:1; fill:none" points="
  236.186,751.052 261.584,751.052 
  "/>
<polyline clip-path="url(#clip420)" style="stroke:#000000; stroke-width:4; stroke-opacity:1; fill:none" points="
  236.186,563.919 261.584,563.919 
  "/>
<polyline clip-path="url(#clip420)" style="stroke:#000000; stroke-width:4; stroke-opacity:1; fill:none" points="
  236.186,376.787 261.584,376.787 
  "/>
<polyline clip-path="url(#clip420)" style="stroke:#000000; stroke-width:4; stroke-opacity:1; fill:none" points="
  236.186,189.654 261.584,189.654 
  "/>
<path clip-path="url(#clip420)" d="M 0 0 M118.89 1325.79 L126.529 1325.79 L126.529 1299.43 L118.218 1301.1 L118.218 1296.84 L126.482 1295.17 L131.158 1295.17 L131.158 1325.79 L138.797 1325.79 L138.797 1329.73 L118.89 1329.73 L118.89 1325.79 Z" fill="#000000" fill-rule="evenodd" fill-opacity="1" /><path clip-path="url(#clip420)" d="M 0 0 M143.866 1323.85 L148.751 1323.85 L148.751 1329.73 L143.866 1329.73 L143.866 1323.85 Z" fill="#000000" fill-rule="evenodd" fill-opacity="1" /><path clip-path="url(#clip420)" d="M 0 0 M157.848 1325.79 L174.167 1325.79 L174.167 1329.73 L152.223 1329.73 L152.223 1325.79 Q154.885 1323.04 159.468 1318.41 Q164.075 1313.76 165.255 1312.41 Q167.501 1309.89 168.38 1308.16 Q169.283 1306.4 169.283 1304.71 Q169.283 1301.95 167.339 1300.22 Q165.417 1298.48 162.315 1298.48 Q160.116 1298.48 157.663 1299.24 Q155.232 1300.01 152.454 1301.56 L152.454 1296.84 Q155.278 1295.7 157.732 1295.12 Q160.186 1294.54 162.223 1294.54 Q167.593 1294.54 170.788 1297.23 Q173.982 1299.91 173.982 1304.41 Q173.982 1306.54 173.172 1308.46 Q172.385 1310.35 170.278 1312.95 Q169.7 1313.62 166.598 1316.84 Q163.496 1320.03 157.848 1325.79 Z" fill="#000000" fill-rule="evenodd" fill-opacity="1" /><path clip-path="url(#clip420)" d="M 0 0 M179.283 1295.17 L197.639 1295.17 L197.639 1299.1 L183.565 1299.1 L183.565 1307.58 Q184.584 1307.23 185.602 1307.07 Q186.621 1306.88 187.639 1306.88 Q193.426 1306.88 196.806 1310.05 Q200.186 1313.23 200.186 1318.64 Q200.186 1324.22 196.713 1327.32 Q193.241 1330.4 186.922 1330.4 Q184.746 1330.4 182.477 1330.03 Q180.232 1329.66 177.825 1328.92 L177.825 1324.22 Q179.908 1325.35 182.13 1325.91 Q184.352 1326.47 186.829 1326.47 Q190.834 1326.47 193.172 1324.36 Q195.51 1322.25 195.51 1318.64 Q195.51 1315.03 193.172 1312.92 Q190.834 1310.82 186.829 1310.82 Q184.954 1310.82 183.079 1311.23 Q181.227 1311.65 179.283 1312.53 L179.283 1295.17 Z" fill="#000000" fill-rule="evenodd" fill-opacity="1" /><path clip-path="url(#clip420)" d="M 0 0 M117.293 1138.66 L124.931 1138.66 L124.931 1112.3 L116.621 1113.96 L116.621 1109.7 L124.885 1108.04 L129.561 1108.04 L129.561 1138.66 L137.2 1138.66 L137.2 1142.6 L117.293 1142.6 L117.293 1138.66 Z" fill="#000000" fill-rule="evenodd" fill-opacity="1" /><path clip-path="url(#clip420)" d="M 0 0 M142.269 1136.72 L147.153 1136.72 L147.153 1142.6 L142.269 1142.6 L142.269 1136.72 Z" fill="#000000" fill-rule="evenodd" fill-opacity="1" /><path clip-path="url(#clip420)" d="M 0 0 M152.269 1108.04 L170.626 1108.04 L170.626 1111.97 L156.552 1111.97 L156.552 1120.44 Q157.57 1120.1 158.589 1119.94 Q159.607 1119.75 160.626 1119.75 Q166.413 1119.75 169.792 1122.92 Q173.172 1126.09 173.172 1131.51 Q173.172 1137.09 169.7 1140.19 Q166.227 1143.27 159.908 1143.27 Q157.732 1143.27 155.464 1142.9 Q153.218 1142.53 150.811 1141.79 L150.811 1137.09 Q152.894 1138.22 155.116 1138.78 Q157.339 1139.33 159.815 1139.33 Q163.82 1139.33 166.158 1137.23 Q168.496 1135.12 168.496 1131.51 Q168.496 1127.9 166.158 1125.79 Q163.82 1123.69 159.815 1123.69 Q157.94 1123.69 156.065 1124.1 Q154.214 1124.52 152.269 1125.4 L152.269 1108.04 Z" fill="#000000" fill-rule="evenodd" fill-opacity="1" /><path clip-path="url(#clip420)" d="M 0 0 M188.241 1111.12 Q184.63 1111.12 182.801 1114.68 Q180.996 1118.22 180.996 1125.35 Q180.996 1132.46 182.801 1136.02 Q184.63 1139.56 188.241 1139.56 Q191.875 1139.56 193.681 1136.02 Q195.51 1132.46 195.51 1125.35 Q195.51 1118.22 193.681 1114.68 Q191.875 1111.12 188.241 1111.12 M188.241 1107.41 Q194.051 1107.41 197.107 1112.02 Q200.186 1116.6 200.186 1125.35 Q200.186 1134.08 197.107 1138.69 Q194.051 1143.27 188.241 1143.27 Q182.431 1143.27 179.352 1138.69 Q176.297 1134.08 176.297 1125.35 Q176.297 1116.6 179.352 1112.02 Q182.431 1107.41 188.241 1107.41 Z" fill="#000000" fill-rule="evenodd" fill-opacity="1" /><path clip-path="url(#clip420)" d="M 0 0 M118.195 951.529 L125.834 951.529 L125.834 925.164 L117.524 926.83 L117.524 922.571 L125.788 920.904 L130.464 920.904 L130.464 951.529 L138.103 951.529 L138.103 955.464 L118.195 955.464 L118.195 951.529 Z" fill="#000000" fill-rule="evenodd" fill-opacity="1" /><path clip-path="url(#clip420)" d="M 0 0 M143.172 949.585 L148.056 949.585 L148.056 955.464 L143.172 955.464 L143.172 949.585 Z" fill="#000000" fill-rule="evenodd" fill-opacity="1" /><path clip-path="url(#clip420)" d="M 0 0 M151.945 920.904 L174.167 920.904 L174.167 922.895 L161.621 955.464 L156.737 955.464 L168.542 924.84 L151.945 924.84 L151.945 920.904 Z" fill="#000000" fill-rule="evenodd" fill-opacity="1" /><path clip-path="url(#clip420)" d="M 0 0 M179.283 920.904 L197.639 920.904 L197.639 924.84 L183.565 924.84 L183.565 933.312 Q184.584 932.965 185.602 932.803 Q186.621 932.617 187.639 932.617 Q193.426 932.617 196.806 935.789 Q200.186 938.96 200.186 944.377 Q200.186 949.955 196.713 953.057 Q193.241 956.136 186.922 956.136 Q184.746 956.136 182.477 955.765 Q180.232 955.395 177.825 954.654 L177.825 949.955 Q179.908 951.089 182.13 951.645 Q184.352 952.201 186.829 952.201 Q190.834 952.201 193.172 950.094 Q195.51 947.988 195.51 944.377 Q195.51 940.765 193.172 938.659 Q190.834 936.553 186.829 936.553 Q184.954 936.553 183.079 936.969 Q181.227 937.386 179.283 938.265 L179.283 920.904 Z" fill="#000000" fill-rule="evenodd" fill-opacity="1" /><path clip-path="url(#clip420)" d="M 0 0 M119.885 764.397 L136.204 764.397 L136.204 768.332 L114.26 768.332 L114.26 764.397 Q116.922 761.642 121.505 757.013 Q126.112 752.36 127.292 751.017 Q129.538 748.494 130.417 746.758 Q131.32 744.999 131.32 743.309 Q131.32 740.554 129.376 738.818 Q127.455 737.082 124.353 737.082 Q122.154 737.082 119.7 737.846 Q117.269 738.61 114.492 740.161 L114.492 735.439 Q117.316 734.304 119.769 733.726 Q122.223 733.147 124.26 733.147 Q129.63 733.147 132.825 735.832 Q136.019 738.517 136.019 743.008 Q136.019 745.138 135.209 747.059 Q134.422 748.957 132.316 751.55 Q131.737 752.221 128.635 755.438 Q125.533 758.633 119.885 764.397 Z" fill="#000000" fill-rule="evenodd" fill-opacity="1" /><path clip-path="url(#clip420)" d="M 0 0 M141.274 762.452 L146.158 762.452 L146.158 768.332 L141.274 768.332 L141.274 762.452 Z" fill="#000000" fill-rule="evenodd" fill-opacity="1" /><path clip-path="url(#clip420)" d="M 0 0 M161.227 736.851 Q157.616 736.851 155.788 740.415 Q153.982 743.957 153.982 751.087 Q153.982 758.193 155.788 761.758 Q157.616 765.3 161.227 765.3 Q164.862 765.3 166.667 761.758 Q168.496 758.193 168.496 751.087 Q168.496 743.957 166.667 740.415 Q164.862 736.851 161.227 736.851 M161.227 733.147 Q167.038 733.147 170.093 737.753 Q173.172 742.337 173.172 751.087 Q173.172 759.813 170.093 764.42 Q167.038 769.003 161.227 769.003 Q155.417 769.003 152.339 764.42 Q149.283 759.813 149.283 751.087 Q149.283 742.337 152.339 737.753 Q155.417 733.147 161.227 733.147 Z" fill="#000000" fill-rule="evenodd" fill-opacity="1" /><path clip-path="url(#clip420)" d="M 0 0 M188.241 736.851 Q184.63 736.851 182.801 740.415 Q180.996 743.957 180.996 751.087 Q180.996 758.193 182.801 761.758 Q184.63 765.3 188.241 765.3 Q191.875 765.3 193.681 761.758 Q195.51 758.193 195.51 751.087 Q195.51 743.957 193.681 740.415 Q191.875 736.851 188.241 736.851 M188.241 733.147 Q194.051 733.147 197.107 737.753 Q200.186 742.337 200.186 751.087 Q200.186 759.813 197.107 764.42 Q194.051 769.003 188.241 769.003 Q182.431 769.003 179.352 764.42 Q176.297 759.813 176.297 751.087 Q176.297 742.337 179.352 737.753 Q182.431 733.147 188.241 733.147 Z" fill="#000000" fill-rule="evenodd" fill-opacity="1" /><path clip-path="url(#clip420)" d="M 0 0 M122.478 577.264 L138.797 577.264 L138.797 581.199 L116.853 581.199 L116.853 577.264 Q119.515 574.51 124.098 569.88 Q128.705 565.227 129.885 563.885 Q132.13 561.361 133.01 559.625 Q133.913 557.866 133.913 556.176 Q133.913 553.422 131.968 551.686 Q130.047 549.949 126.945 549.949 Q124.746 549.949 122.293 550.713 Q119.862 551.477 117.084 553.028 L117.084 548.306 Q119.908 547.172 122.362 546.593 Q124.816 546.014 126.853 546.014 Q132.223 546.014 135.417 548.7 Q138.612 551.385 138.612 555.875 Q138.612 558.005 137.802 559.926 Q137.015 561.824 134.908 564.417 Q134.329 565.088 131.228 568.306 Q128.126 571.5 122.478 577.264 Z" fill="#000000" fill-rule="evenodd" fill-opacity="1" /><path clip-path="url(#clip420)" d="M 0 0 M143.866 575.32 L148.751 575.32 L148.751 581.199 L143.866 581.199 L143.866 575.32 Z" fill="#000000" fill-rule="evenodd" fill-opacity="1" /><path clip-path="url(#clip420)" d="M 0 0 M157.848 577.264 L174.167 577.264 L174.167 581.199 L152.223 581.199 L152.223 577.264 Q154.885 574.51 159.468 569.88 Q164.075 565.227 165.255 563.885 Q167.501 561.361 168.38 559.625 Q169.283 557.866 169.283 556.176 Q169.283 553.422 167.339 551.686 Q165.417 549.949 162.315 549.949 Q160.116 549.949 157.663 550.713 Q155.232 551.477 152.454 553.028 L152.454 548.306 Q155.278 547.172 157.732 546.593 Q160.186 546.014 162.223 546.014 Q167.593 546.014 170.788 548.7 Q173.982 551.385 173.982 555.875 Q173.982 558.005 173.172 559.926 Q172.385 561.824 170.278 564.417 Q169.7 565.088 166.598 568.306 Q163.496 571.5 157.848 577.264 Z" fill="#000000" fill-rule="evenodd" fill-opacity="1" /><path clip-path="url(#clip420)" d="M 0 0 M179.283 546.639 L197.639 546.639 L197.639 550.574 L183.565 550.574 L183.565 559.047 Q184.584 558.699 185.602 558.537 Q186.621 558.352 187.639 558.352 Q193.426 558.352 196.806 561.524 Q200.186 564.695 200.186 570.111 Q200.186 575.69 196.713 578.792 Q193.241 581.871 186.922 581.871 Q184.746 581.871 182.477 581.5 Q180.232 581.13 177.825 580.389 L177.825 575.69 Q179.908 576.824 182.13 577.38 Q184.352 577.935 186.829 577.935 Q190.834 577.935 193.172 575.829 Q195.51 573.723 195.51 570.111 Q195.51 566.5 193.172 564.394 Q190.834 562.287 186.829 562.287 Q184.954 562.287 183.079 562.704 Q181.227 563.121 179.283 564 L179.283 546.639 Z" fill="#000000" fill-rule="evenodd" fill-opacity="1" /><path clip-path="url(#clip420)" d="M 0 0 M120.88 390.132 L137.2 390.132 L137.2 394.067 L115.256 394.067 L115.256 390.132 Q117.918 387.377 122.501 382.747 Q127.107 378.095 128.288 376.752 Q130.533 374.229 131.413 372.493 Q132.316 370.734 132.316 369.044 Q132.316 366.289 130.371 364.553 Q128.45 362.817 125.348 362.817 Q123.149 362.817 120.695 363.581 Q118.265 364.345 115.487 365.896 L115.487 361.173 Q118.311 360.039 120.765 359.46 Q123.218 358.882 125.255 358.882 Q130.626 358.882 133.82 361.567 Q137.015 364.252 137.015 368.743 Q137.015 370.872 136.204 372.794 Q135.417 374.692 133.311 377.284 Q132.732 377.956 129.63 381.173 Q126.529 384.368 120.88 390.132 Z" fill="#000000" fill-rule="evenodd" fill-opacity="1" /><path clip-path="url(#clip420)" d="M 0 0 M142.269 388.187 L147.153 388.187 L147.153 394.067 L142.269 394.067 L142.269 388.187 Z" fill="#000000" fill-rule="evenodd" fill-opacity="1" /><path clip-path="url(#clip420)" d="M 0 0 M152.269 359.507 L170.626 359.507 L170.626 363.442 L156.552 363.442 L156.552 371.914 Q157.57 371.567 158.589 371.405 Q159.607 371.22 160.626 371.22 Q166.413 371.22 169.792 374.391 Q173.172 377.562 173.172 382.979 Q173.172 388.558 169.7 391.659 Q166.227 394.738 159.908 394.738 Q157.732 394.738 155.464 394.368 Q153.218 393.997 150.811 393.257 L150.811 388.558 Q152.894 389.692 155.116 390.247 Q157.339 390.803 159.815 390.803 Q163.82 390.803 166.158 388.696 Q168.496 386.59 168.496 382.979 Q168.496 379.368 166.158 377.261 Q163.82 375.155 159.815 375.155 Q157.94 375.155 156.065 375.571 Q154.214 375.988 152.269 376.868 L152.269 359.507 Z" fill="#000000" fill-rule="evenodd" fill-opacity="1" /><path clip-path="url(#clip420)" d="M 0 0 M188.241 362.585 Q184.63 362.585 182.801 366.15 Q180.996 369.692 180.996 376.821 Q180.996 383.928 182.801 387.493 Q184.63 391.034 188.241 391.034 Q191.875 391.034 193.681 387.493 Q195.51 383.928 195.51 376.821 Q195.51 369.692 193.681 366.15 Q191.875 362.585 188.241 362.585 M188.241 358.882 Q194.051 358.882 197.107 363.488 Q200.186 368.072 200.186 376.821 Q200.186 385.548 197.107 390.155 Q194.051 394.738 188.241 394.738 Q182.431 394.738 179.352 390.155 Q176.297 385.548 176.297 376.821 Q176.297 368.072 179.352 363.488 Q182.431 358.882 188.241 358.882 Z" fill="#000000" fill-rule="evenodd" fill-opacity="1" /><path clip-path="url(#clip420)" d="M 0 0 M121.783 202.999 L138.103 202.999 L138.103 206.934 L116.158 206.934 L116.158 202.999 Q118.82 200.244 123.404 195.615 Q128.01 190.962 129.191 189.619 Q131.436 187.096 132.316 185.36 Q133.218 183.601 133.218 181.911 Q133.218 179.157 131.274 177.42 Q129.353 175.684 126.251 175.684 Q124.052 175.684 121.598 176.448 Q119.168 177.212 116.39 178.763 L116.39 174.041 Q119.214 172.907 121.668 172.328 Q124.121 171.749 126.158 171.749 Q131.529 171.749 134.723 174.434 Q137.917 177.12 137.917 181.61 Q137.917 183.74 137.107 185.661 Q136.32 187.559 134.214 190.152 Q133.635 190.823 130.533 194.041 Q127.431 197.235 121.783 202.999 Z" fill="#000000" fill-rule="evenodd" fill-opacity="1" /><path clip-path="url(#clip420)" d="M 0 0 M143.172 201.055 L148.056 201.055 L148.056 206.934 L143.172 206.934 L143.172 201.055 Z" fill="#000000" fill-rule="evenodd" fill-opacity="1" /><path clip-path="url(#clip420)" d="M 0 0 M151.945 172.374 L174.167 172.374 L174.167 174.365 L161.621 206.934 L156.737 206.934 L168.542 176.309 L151.945 176.309 L151.945 172.374 Z" fill="#000000" fill-rule="evenodd" fill-opacity="1" /><path clip-path="url(#clip420)" d="M 0 0 M179.283 172.374 L197.639 172.374 L197.639 176.309 L183.565 176.309 L183.565 184.782 Q184.584 184.434 185.602 184.272 Q186.621 184.087 187.639 184.087 Q193.426 184.087 196.806 187.258 Q200.186 190.43 200.186 195.846 Q200.186 201.425 196.713 204.527 Q193.241 207.605 186.922 207.605 Q184.746 207.605 182.477 207.235 Q180.232 206.865 177.825 206.124 L177.825 201.425 Q179.908 202.559 182.13 203.115 Q184.352 203.67 186.829 203.67 Q190.834 203.67 193.172 201.564 Q195.51 199.457 195.51 195.846 Q195.51 192.235 193.172 190.129 Q190.834 188.022 186.829 188.022 Q184.954 188.022 183.079 188.439 Q181.227 188.856 179.283 189.735 L179.283 172.374 Z" fill="#000000" fill-rule="evenodd" fill-opacity="1" /><path clip-path="url(#clip420)" d="M 0 0 M59.1993 815.533 Q55.2526 813.336 53.3747 810.281 Q51.4968 807.225 51.4968 803.088 Q51.4968 797.518 55.4117 794.494 Q59.2948 791.47 66.4881 791.47 L88.0042 791.47 L88.0042 797.358 L66.679 797.358 Q61.5546 797.358 59.072 799.173 Q56.5894 800.987 56.5894 804.711 Q56.5894 809.262 59.6131 811.904 Q62.6368 814.546 67.8567 814.546 L88.0042 814.546 L88.0042 820.434 L66.679 820.434 Q61.5228 820.434 59.072 822.248 Q56.5894 824.063 56.5894 827.85 Q56.5894 832.338 59.6449 834.98 Q62.6686 837.622 67.8567 837.622 L88.0042 837.622 L88.0042 843.51 L52.3562 843.51 L52.3562 837.622 L57.8944 837.622 Q54.616 835.616 53.0564 832.815 Q51.4968 830.015 51.4968 826.163 Q51.4968 822.28 53.4702 819.575 Q55.4436 816.838 59.1993 815.533 Z" fill="#000000" fill-rule="evenodd" fill-opacity="1" /><path clip-path="url(#clip420)" d="M 0 0 M52.3562 785.327 L52.3562 779.471 L88.0042 779.471 L88.0042 785.327 L52.3562 785.327 M38.479 785.327 L38.479 779.471 L45.895 779.471 L45.895 785.327 L38.479 785.327 Z" fill="#000000" fill-rule="evenodd" fill-opacity="1" /><path clip-path="url(#clip420)" d="M 0 0 M66.4881 743.696 L88.0042 743.696 L88.0042 749.552 L66.679 749.552 Q61.6183 749.552 59.1038 751.525 Q56.5894 753.499 56.5894 757.446 Q56.5894 762.188 59.6131 764.925 Q62.6368 767.662 67.8567 767.662 L88.0042 767.662 L88.0042 773.551 L52.3562 773.551 L52.3562 767.662 L57.8944 767.662 Q54.6797 765.562 53.0883 762.729 Q51.4968 759.864 51.4968 756.141 Q51.4968 749.998 55.3163 746.847 Q59.1038 743.696 66.4881 743.696 Z" fill="#000000" fill-rule="evenodd" fill-opacity="1" /><path clip-path="url(#clip420)" d="M 0 0 M98.8259 710.467 L103.377 710.467 L103.377 744.332 L98.8259 744.332 L98.8259 710.467 Z" fill="#000000" fill-rule="evenodd" fill-opacity="1" /><path clip-path="url(#clip420)" d="M 0 0 M57.7671 680.866 L38.479 680.866 L38.479 675.01 L88.0042 675.01 L88.0042 680.866 L82.657 680.866 Q85.8398 682.712 87.3994 685.545 Q88.9272 688.346 88.9272 692.292 Q88.9272 698.754 83.771 702.828 Q78.6147 706.87 70.212 706.87 Q61.8093 706.87 56.6531 702.828 Q51.4968 698.754 51.4968 692.292 Q51.4968 688.346 53.0564 685.545 Q54.5842 682.712 57.7671 680.866 M70.212 700.823 Q76.6732 700.823 80.3653 698.181 Q84.0256 695.507 84.0256 690.86 Q84.0256 686.213 80.3653 683.54 Q76.6732 680.866 70.212 680.866 Q63.7508 680.866 60.0905 683.54 Q56.3984 686.213 56.3984 690.86 Q56.3984 695.507 60.0905 698.181 Q63.7508 700.823 70.212 700.823 Z" fill="#000000" fill-rule="evenodd" fill-opacity="1" /><path clip-path="url(#clip420)" d="M 0 0 M52.3562 668.867 L52.3562 663.01 L88.0042 663.01 L88.0042 668.867 L52.3562 668.867 M38.479 668.867 L38.479 663.01 L45.895 663.01 L45.895 668.867 L38.479 668.867 Z" fill="#000000" fill-rule="evenodd" fill-opacity="1" /><path clip-path="url(#clip420)" d="M 0 0 M38.479 638.821 L43.3487 638.821 L43.3487 644.422 Q43.3487 647.573 44.6219 648.815 Q45.895 650.024 49.2052 650.024 L52.3562 650.024 L52.3562 640.38 L56.9077 640.38 L56.9077 650.024 L88.0042 650.024 L88.0042 655.912 L56.9077 655.912 L56.9077 661.514 L52.3562 661.514 L52.3562 655.912 L49.8736 655.912 Q43.9216 655.912 41.2162 653.143 Q38.479 650.374 38.479 644.359 L38.479 638.821 Z" fill="#000000" fill-rule="evenodd" fill-opacity="1" /><path clip-path="url(#clip420)" d="M 0 0 M38.479 614.631 L43.3487 614.631 L43.3487 620.233 Q43.3487 623.384 44.6219 624.625 Q45.895 625.835 49.2052 625.835 L52.3562 625.835 L52.3562 616.19 L56.9077 616.19 L56.9077 625.835 L88.0042 625.835 L88.0042 631.723 L56.9077 631.723 L56.9077 637.325 L52.3562 637.325 L52.3562 631.723 L49.8736 631.723 Q43.9216 631.723 41.2162 628.954 Q38.479 626.185 38.479 620.169 L38.479 614.631 Z" fill="#000000" fill-rule="evenodd" fill-opacity="1" /><polyline clip-path="url(#clip422)" style="stroke:#009af9; stroke-width:20; stroke-opacity:1; fill:none" stroke-dasharray="80, 50" points="
  296.089,85.838 795.28,817.128 1294.47,928.398 1793.66,963.504 2292.85,1372.3 
  "/>
<path clip-path="url(#clip420)" d="
M1996.01 213.659 L2282.2 213.659 L2282.2 92.6992 L1996.01 92.6992  Z
  " fill="#ffffff" fill-rule="evenodd" fill-opacity="1"/>
<polyline clip-path="url(#clip420)" style="stroke:#000000; stroke-width:4; stroke-opacity:1; fill:none" points="
  1996.01,213.659 2282.2,213.659 2282.2,92.6992 1996.01,92.6992 1996.01,213.659 
  "/>
<polyline clip-path="url(#clip420)" style="stroke:#009af9; stroke-width:4; stroke-opacity:1; fill:none" stroke-dasharray="16, 10" points="
  2019.53,153.179 2160.63,153.179 
  "/>
<path clip-path="url(#clip420)" d="M 0 0 M2197.99 172.867 Q2196.19 177.496 2194.47 178.908 Q2192.76 180.32 2189.89 180.32 L2186.49 180.32 L2186.49 176.755 L2188.99 176.755 Q2190.75 176.755 2191.72 175.922 Q2192.69 175.089 2193.87 171.987 L2194.64 170.043 L2184.15 144.533 L2188.66 144.533 L2196.77 164.811 L2204.87 144.533 L2209.38 144.533 L2197.99 172.867 Z" fill="#000000" fill-rule="evenodd" fill-opacity="1" /><path clip-path="url(#clip420)" d="M 0 0 M2215.26 166.524 L2222.9 166.524 L2222.9 140.158 L2214.59 141.825 L2214.59 137.566 L2222.85 135.899 L2227.53 135.899 L2227.53 166.524 L2235.17 166.524 L2235.17 170.459 L2215.26 170.459 L2215.26 166.524 Z" fill="#000000" fill-rule="evenodd" fill-opacity="1" /></svg>
