<?xml version="1.0" encoding="utf-8"?>
<svg xmlns="http://www.w3.org/2000/svg" xmlns:xlink="http://www.w3.org/1999/xlink" width="600" height="400" viewBox="0 0 2400 1600">
<defs>
  <clipPath id="clip240">
    <rect x="0" y="0" width="2400" height="1600"/>
  </clipPath>
</defs>
<path clip-path="url(#clip240)" d="
M0 1600 L2400 1600 L2400 0 L0 0  Z
  " fill="#ffffff" fill-rule="evenodd" fill-opacity="1"/>
<defs>
  <clipPath id="clip241">
    <rect x="480" y="0" width="1681" height="1600"/>
  </clipPath>
</defs>
<path clip-path="url(#clip240)" d="
M208.292 1410.9 L2352.76 1410.9 L2352.76 47.2441 L208.292 47.2441  Z
  " fill="#ffffff" fill-rule="evenodd" fill-opacity="1"/>
<defs>
  <clipPath id="clip242">
    <rect x="208" y="47" width="2145" height="1365"/>
  </clipPath>
</defs>
<polyline clip-path="url(#clip242)" style="stroke:#000000; stroke-width:2; stroke-opacity:0.1; fill:none" points="
  471.293,1410.9 471.293,47.2441 
  "/>
<polyline clip-path="url(#clip242)" style="stroke:#000000; stroke-width:2; stroke-opacity:0.1; fill:none" points="
  875.908,1410.9 875.908,47.2441 
  "/>
<polyline clip-path="url(#clip242)" style="stroke:#000000; stroke-width:2; stroke-opacity:0.1; fill:none" points="
  1280.52,1410.9 1280.52,47.2441 
  "/>
<polyline clip-path="url(#clip242)" style="stroke:#000000; stroke-width:2; stroke-opacity:0.1; fill:none" points="
  1685.14,1410.9 1685.14,47.2441 
  "/>
<polyline clip-path="url(#clip242)" style="stroke:#000000; stroke-width:2; stroke-opacity:0.1; fill:none" points="
  2089.76,1410.9 2089.76,47.2441 
  "/>
<polyline clip-path="url(#clip240)" style="stroke:#000000; stroke-width:4; stroke-opacity:1; fill:none" points="
  208.292,1410.9 2352.76,1410.9 
  "/>
<polyline clip-path="url(#clip240)" style="stroke:#000000; stroke-width:4; stroke-opacity:1; fill:none" points="
  471.293,1410.9 471.293,1394.53 
  "/>
<polyline clip-path="url(#clip240)" style="stroke:#000000; stroke-width:4; stroke-opacity:1; fill:none" points="
  875.908,1410.9 875.908,1394.53 
  "/>
<polyline clip-path="url(#clip240)" style="stroke:#000000; stroke-width:4; stroke-opacity:1; fill:none" points="
  1280.52,1410.9 1280.52,1394.53 
  "/>
<polyline clip-path="url(#clip240)" style="stroke:#000000; stroke-width:4; stroke-opacity:1; fill:none" points="
  1685.14,1410.9 1685.14,1394.53 
  "/>
<polyline clip-path="url(#clip240)" style="stroke:#000000; stroke-width:4; stroke-opacity:1; fill:none" points="
  2089.76,1410.9 2089.76,1394.53 
  "/>
<path clip-path="url(#clip240)" d="M 0 0 M410.326 1489.17 L417.965 1489.17 L417.965 1462.8 L409.655 1464.47 L409.655 1460.21 L417.919 1458.54 L422.595 1458.54 L422.595 1489.17 L430.234 1489.17 L430.234 1493.1 L410.326 1493.1 L410.326 1489.17 Z" fill="#000000" fill-rule="evenodd" fill-opacity="1" /><path clip-path="url(#clip240)" d="M 0 0 M445.303 1461.62 Q441.692 1461.62 439.863 1465.19 Q438.058 1468.73 438.058 1475.86 Q438.058 1482.97 439.863 1486.53 Q441.692 1490.07 445.303 1490.07 Q448.937 1490.07 450.743 1486.53 Q452.572 1482.97 452.572 1475.86 Q452.572 1468.73 450.743 1465.19 Q448.937 1461.62 445.303 1461.62 M445.303 1457.92 Q451.113 1457.92 454.169 1462.53 Q457.247 1467.11 457.247 1475.86 Q457.247 1484.59 454.169 1489.19 Q451.113 1493.78 445.303 1493.78 Q439.493 1493.78 436.414 1489.19 Q433.359 1484.59 433.359 1475.86 Q433.359 1467.11 436.414 1462.53 Q439.493 1457.92 445.303 1457.92 Z" fill="#000000" fill-rule="evenodd" fill-opacity="1" /><path clip-path="url(#clip240)" d="M 0 0 M457.247 1452.02 L481.359 1452.02 L481.359 1455.22 L457.247 1455.22 L457.247 1452.02 Z" fill="#000000" fill-rule="evenodd" fill-opacity="1" /><path clip-path="url(#clip240)" d="M 0 0 M485.516 1437.61 L500.43 1437.61 L500.43 1440.81 L488.995 1440.81 L488.995 1447.69 Q489.823 1447.41 490.65 1447.28 Q491.478 1447.13 492.305 1447.13 Q497.007 1447.13 499.753 1449.71 Q502.499 1452.28 502.499 1456.68 Q502.499 1461.22 499.678 1463.74 Q496.857 1466.24 491.722 1466.24 Q489.954 1466.24 488.111 1465.94 Q486.287 1465.64 484.331 1465.04 L484.331 1461.22 Q486.023 1462.14 487.829 1462.59 Q489.634 1463.04 491.647 1463.04 Q494.901 1463.04 496.8 1461.33 Q498.7 1459.62 498.7 1456.68 Q498.7 1453.75 496.8 1452.04 Q494.901 1450.33 491.647 1450.33 Q490.123 1450.33 488.6 1450.67 Q487.095 1451 485.516 1451.72 L485.516 1437.61 Z" fill="#000000" fill-rule="evenodd" fill-opacity="1" /><path clip-path="url(#clip240)" d="M 0 0 M506.618 1460.92 L510.586 1460.92 L510.586 1465.69 L506.618 1465.69 L506.618 1460.92 Z" fill="#000000" fill-rule="evenodd" fill-opacity="1" /><path clip-path="url(#clip240)" d="M 0 0 M525.143 1440.92 L515.552 1455.91 L525.143 1455.91 L525.143 1440.92 M524.147 1437.61 L528.924 1437.61 L528.924 1455.91 L532.93 1455.91 L532.93 1459.07 L528.924 1459.07 L528.924 1465.69 L525.143 1465.69 L525.143 1459.07 L512.467 1459.07 L512.467 1455.41 L524.147 1437.61 Z" fill="#000000" fill-rule="evenodd" fill-opacity="1" /><path clip-path="url(#clip240)" d="M 0 0 M815.789 1489.17 L823.427 1489.17 L823.427 1462.8 L815.117 1464.47 L815.117 1460.21 L823.381 1458.54 L828.057 1458.54 L828.057 1489.17 L835.696 1489.17 L835.696 1493.1 L815.789 1493.1 L815.789 1489.17 Z" fill="#000000" fill-rule="evenodd" fill-opacity="1" /><path clip-path="url(#clip240)" d="M 0 0 M850.765 1461.62 Q847.154 1461.62 845.325 1465.19 Q843.52 1468.73 843.52 1475.86 Q843.52 1482.97 845.325 1486.53 Q847.154 1490.07 850.765 1490.07 Q854.399 1490.07 856.205 1486.53 Q858.034 1482.97 858.034 1475.86 Q858.034 1468.73 856.205 1465.19 Q854.399 1461.62 850.765 1461.62 M850.765 1457.92 Q856.575 1457.92 859.631 1462.53 Q862.71 1467.11 862.71 1475.86 Q862.71 1484.59 859.631 1489.19 Q856.575 1493.78 850.765 1493.78 Q844.955 1493.78 841.876 1489.19 Q838.821 1484.59 838.821 1475.86 Q838.821 1467.11 841.876 1462.53 Q844.955 1457.92 850.765 1457.92 Z" fill="#000000" fill-rule="evenodd" fill-opacity="1" /><path clip-path="url(#clip240)" d="M 0 0 M862.71 1452.02 L886.821 1452.02 L886.821 1455.22 L862.71 1455.22 L862.71 1452.02 Z" fill="#000000" fill-rule="evenodd" fill-opacity="1" /><path clip-path="url(#clip240)" d="M 0 0 M890.978 1437.61 L905.892 1437.61 L905.892 1440.81 L894.457 1440.81 L894.457 1447.69 Q895.285 1447.41 896.112 1447.28 Q896.94 1447.13 897.767 1447.13 Q902.469 1447.13 905.215 1449.71 Q907.961 1452.28 907.961 1456.68 Q907.961 1461.22 905.14 1463.74 Q902.319 1466.24 897.184 1466.24 Q895.416 1466.24 893.573 1465.94 Q891.749 1465.64 889.793 1465.04 L889.793 1461.22 Q891.485 1462.14 893.291 1462.59 Q895.097 1463.04 897.109 1463.04 Q900.363 1463.04 902.262 1461.33 Q904.162 1459.62 904.162 1456.68 Q904.162 1453.75 902.262 1452.04 Q900.363 1450.33 897.109 1450.33 Q895.586 1450.33 894.062 1450.67 Q892.558 1451 890.978 1451.72 L890.978 1437.61 Z" fill="#000000" fill-rule="evenodd" fill-opacity="1" /><path clip-path="url(#clip240)" d="M 0 0 M912.08 1460.92 L916.048 1460.92 L916.048 1465.69 L912.08 1465.69 L912.08 1460.92 Z" fill="#000000" fill-rule="evenodd" fill-opacity="1" /><path clip-path="url(#clip240)" d="M 0 0 M923.44 1462.5 L936.699 1462.5 L936.699 1465.69 L918.87 1465.69 L918.87 1462.5 Q921.032 1460.26 924.756 1456.5 Q928.499 1452.72 929.458 1451.63 Q931.283 1449.58 931.997 1448.16 Q932.731 1446.74 932.731 1445.36 Q932.731 1443.12 931.151 1441.71 Q929.59 1440.3 927.07 1440.3 Q925.283 1440.3 923.289 1440.92 Q921.315 1441.54 919.058 1442.8 L919.058 1438.97 Q921.352 1438.05 923.346 1437.58 Q925.339 1437.11 926.995 1437.11 Q931.358 1437.11 933.953 1439.29 Q936.549 1441.47 936.549 1445.12 Q936.549 1446.85 935.891 1448.41 Q935.251 1449.95 933.54 1452.06 Q933.069 1452.6 930.549 1455.22 Q928.029 1457.81 923.44 1462.5 Z" fill="#000000" fill-rule="evenodd" fill-opacity="1" /><path clip-path="url(#clip240)" d="M 0 0 M1219.76 1489.17 L1227.39 1489.17 L1227.39 1462.8 L1219.08 1464.47 L1219.08 1460.21 L1227.35 1458.54 L1232.02 1458.54 L1232.02 1489.17 L1239.66 1489.17 L1239.66 1493.1 L1219.76 1493.1 L1219.76 1489.17 Z" fill="#000000" fill-rule="evenodd" fill-opacity="1" /><path clip-path="url(#clip240)" d="M 0 0 M1254.73 1461.62 Q1251.12 1461.62 1249.29 1465.19 Q1247.49 1468.73 1247.49 1475.86 Q1247.49 1482.97 1249.29 1486.53 Q1251.12 1490.07 1254.73 1490.07 Q1258.37 1490.07 1260.17 1486.53 Q1262 1482.97 1262 1475.86 Q1262 1468.73 1260.17 1465.19 Q1258.37 1461.62 1254.73 1461.62 M1254.73 1457.92 Q1260.54 1457.92 1263.6 1462.53 Q1266.68 1467.11 1266.68 1475.86 Q1266.68 1484.59 1263.6 1489.19 Q1260.54 1493.78 1254.73 1493.78 Q1248.92 1493.78 1245.84 1489.19 Q1242.79 1484.59 1242.79 1475.86 Q1242.79 1467.11 1245.84 1462.53 Q1248.92 1457.92 1254.73 1457.92 Z" fill="#000000" fill-rule="evenodd" fill-opacity="1" /><path clip-path="url(#clip240)" d="M 0 0 M1266.68 1452.02 L1290.79 1452.02 L1290.79 1455.22 L1266.68 1455.22 L1266.68 1452.02 Z" fill="#000000" fill-rule="evenodd" fill-opacity="1" /><path clip-path="url(#clip240)" d="M 0 0 M1294.94 1437.61 L1309.86 1437.61 L1309.86 1440.81 L1298.42 1440.81 L1298.42 1447.69 Q1299.25 1447.41 1300.08 1447.28 Q1300.91 1447.13 1301.73 1447.13 Q1306.44 1447.13 1309.18 1449.71 Q1311.93 1452.28 1311.93 1456.68 Q1311.93 1461.22 1309.11 1463.74 Q1306.29 1466.24 1301.15 1466.24 Q1299.38 1466.24 1297.54 1465.94 Q1295.72 1465.64 1293.76 1465.04 L1293.76 1461.22 Q1295.45 1462.14 1297.26 1462.59 Q1299.06 1463.04 1301.08 1463.04 Q1304.33 1463.04 1306.23 1461.33 Q1308.13 1459.62 1308.13 1456.68 Q1308.13 1453.75 1306.23 1452.04 Q1304.33 1450.33 1301.08 1450.33 Q1299.55 1450.33 1298.03 1450.67 Q1296.52 1451 1294.94 1451.72 L1294.94 1437.61 Z" fill="#000000" fill-rule="evenodd" fill-opacity="1" /><path clip-path="url(#clip240)" d="M 0 0 M1316.05 1460.92 L1320.02 1460.92 L1320.02 1465.69 L1316.05 1465.69 L1316.05 1460.92 Z" fill="#000000" fill-rule="evenodd" fill-opacity="1" /><path clip-path="url(#clip240)" d="M 0 0 M1332.26 1440.11 Q1329.33 1440.11 1327.84 1443.01 Q1326.37 1445.89 1326.37 1451.68 Q1326.37 1457.46 1327.84 1460.35 Q1329.33 1463.23 1332.26 1463.23 Q1335.21 1463.23 1336.68 1460.35 Q1338.16 1457.46 1338.16 1451.68 Q1338.16 1445.89 1336.68 1443.01 Q1335.21 1440.11 1332.26 1440.11 M1332.26 1437.11 Q1336.98 1437.11 1339.46 1440.85 Q1341.96 1444.57 1341.96 1451.68 Q1341.96 1458.77 1339.46 1462.51 Q1336.98 1466.24 1332.26 1466.24 Q1327.54 1466.24 1325.04 1462.51 Q1322.55 1458.77 1322.55 1451.68 Q1322.55 1444.57 1325.04 1440.85 Q1327.54 1437.11 1332.26 1437.11 Z" fill="#000000" fill-rule="evenodd" fill-opacity="1" /><path clip-path="url(#clip240)" d="M 0 0 M1623.81 1489.17 L1631.45 1489.17 L1631.45 1462.8 L1623.14 1464.47 L1623.14 1460.21 L1631.4 1458.54 L1636.08 1458.54 L1636.08 1489.17 L1643.71 1489.17 L1643.71 1493.1 L1623.81 1493.1 L1623.81 1489.17 Z" fill="#000000" fill-rule="evenodd" fill-opacity="1" /><path clip-path="url(#clip240)" d="M 0 0 M1658.78 1461.62 Q1655.17 1461.62 1653.34 1465.19 Q1651.54 1468.73 1651.54 1475.86 Q1651.54 1482.97 1653.34 1486.53 Q1655.17 1490.07 1658.78 1490.07 Q1662.42 1490.07 1664.22 1486.53 Q1666.05 1482.97 1666.05 1475.86 Q1666.05 1468.73 1664.22 1465.19 Q1662.42 1461.62 1658.78 1461.62 M1658.78 1457.92 Q1664.59 1457.92 1667.65 1462.53 Q1670.73 1467.11 1670.73 1475.86 Q1670.73 1484.59 1667.65 1489.19 Q1664.59 1493.78 1658.78 1493.78 Q1652.97 1493.78 1649.89 1489.19 Q1646.84 1484.59 1646.84 1475.86 Q1646.84 1467.11 1649.89 1462.53 Q1652.97 1457.92 1658.78 1457.92 Z" fill="#000000" fill-rule="evenodd" fill-opacity="1" /><path clip-path="url(#clip240)" d="M 0 0 M1670.73 1452.02 L1694.84 1452.02 L1694.84 1455.22 L1670.73 1455.22 L1670.73 1452.02 Z" fill="#000000" fill-rule="evenodd" fill-opacity="1" /><path clip-path="url(#clip240)" d="M 0 0 M1709.4 1440.92 L1699.8 1455.91 L1709.4 1455.91 L1709.4 1440.92 M1708.4 1437.61 L1713.18 1437.61 L1713.18 1455.91 L1717.18 1455.91 L1717.18 1459.07 L1713.18 1459.07 L1713.18 1465.69 L1709.4 1465.69 L1709.4 1459.07 L1696.72 1459.07 L1696.72 1455.41 L1708.4 1437.61 Z" fill="#000000" fill-rule="evenodd" fill-opacity="1" /><path clip-path="url(#clip240)" d="M 0 0 M1721.3 1460.92 L1725.27 1460.92 L1725.27 1465.69 L1721.3 1465.69 L1721.3 1460.92 Z" fill="#000000" fill-rule="evenodd" fill-opacity="1" /><path clip-path="url(#clip240)" d="M 0 0 M1737.51 1452.36 Q1734.81 1452.36 1733.25 1453.81 Q1731.7 1455.26 1731.7 1457.79 Q1731.7 1460.33 1733.25 1461.78 Q1734.81 1463.23 1737.51 1463.23 Q1740.22 1463.23 1741.78 1461.78 Q1743.34 1460.31 1743.34 1457.79 Q1743.34 1455.26 1741.78 1453.81 Q1740.24 1452.36 1737.51 1452.36 M1733.72 1450.74 Q1731.27 1450.14 1729.9 1448.47 Q1728.54 1446.79 1728.54 1444.38 Q1728.54 1441.02 1730.93 1439.06 Q1733.34 1437.11 1737.51 1437.11 Q1741.71 1437.11 1744.1 1439.06 Q1746.49 1441.02 1746.49 1444.38 Q1746.49 1446.79 1745.11 1448.47 Q1743.76 1450.14 1741.33 1450.74 Q1744.08 1451.38 1745.6 1453.24 Q1747.14 1455.1 1747.14 1457.79 Q1747.14 1461.88 1744.64 1464.06 Q1742.16 1466.24 1737.51 1466.24 Q1732.87 1466.24 1730.37 1464.06 Q1727.88 1461.88 1727.88 1457.79 Q1727.88 1455.1 1729.43 1453.24 Q1730.97 1451.38 1733.72 1450.74 M1732.32 1444.74 Q1732.32 1446.92 1733.68 1448.15 Q1735.05 1449.37 1737.51 1449.37 Q1739.96 1449.37 1741.33 1448.15 Q1742.72 1446.92 1742.72 1444.74 Q1742.72 1442.56 1741.33 1441.34 Q1739.96 1440.11 1737.51 1440.11 Q1735.05 1440.11 1733.68 1441.34 Q1732.32 1442.56 1732.32 1444.74 Z" fill="#000000" fill-rule="evenodd" fill-opacity="1" /><path clip-path="url(#clip240)" d="M 0 0 M2028.32 1489.17 L2035.96 1489.17 L2035.96 1462.8 L2027.65 1464.47 L2027.65 1460.21 L2035.91 1458.54 L2040.59 1458.54 L2040.59 1489.17 L2048.23 1489.17 L2048.23 1493.1 L2028.32 1493.1 L2028.32 1489.17 Z" fill="#000000" fill-rule="evenodd" fill-opacity="1" /><path clip-path="url(#clip240)" d="M 0 0 M2063.3 1461.62 Q2059.68 1461.62 2057.86 1465.19 Q2056.05 1468.73 2056.05 1475.86 Q2056.05 1482.97 2057.86 1486.53 Q2059.68 1490.07 2063.3 1490.07 Q2066.93 1490.07 2068.74 1486.53 Q2070.56 1482.97 2070.56 1475.86 Q2070.56 1468.73 2068.74 1465.19 Q2066.93 1461.62 2063.3 1461.62 M2063.3 1457.92 Q2069.11 1457.92 2072.16 1462.53 Q2075.24 1467.11 2075.24 1475.86 Q2075.24 1484.59 2072.16 1489.19 Q2069.11 1493.78 2063.3 1493.78 Q2057.49 1493.78 2054.41 1489.19 Q2051.35 1484.59 2051.35 1475.86 Q2051.35 1467.11 2054.41 1462.53 Q2057.49 1457.92 2063.3 1457.92 Z" fill="#000000" fill-rule="evenodd" fill-opacity="1" /><path clip-path="url(#clip240)" d="M 0 0 M2075.24 1452.02 L2099.35 1452.02 L2099.35 1455.22 L2075.24 1455.22 L2075.24 1452.02 Z" fill="#000000" fill-rule="evenodd" fill-opacity="1" /><path clip-path="url(#clip240)" d="M 0 0 M2113.91 1440.92 L2104.32 1455.91 L2113.91 1455.91 L2113.91 1440.92 M2112.91 1437.61 L2117.69 1437.61 L2117.69 1455.91 L2121.7 1455.91 L2121.7 1459.07 L2117.69 1459.07 L2117.69 1465.69 L2113.91 1465.69 L2113.91 1459.07 L2101.23 1459.07 L2101.23 1455.41 L2112.91 1437.61 Z" fill="#000000" fill-rule="evenodd" fill-opacity="1" /><path clip-path="url(#clip240)" d="M 0 0 M2125.81 1460.92 L2129.78 1460.92 L2129.78 1465.69 L2125.81 1465.69 L2125.81 1460.92 Z" fill="#000000" fill-rule="evenodd" fill-opacity="1" /><path clip-path="url(#clip240)" d="M 0 0 M2142.5 1450.14 Q2139.94 1450.14 2138.43 1451.89 Q2136.95 1453.64 2136.95 1456.68 Q2136.95 1459.71 2138.43 1461.48 Q2139.94 1463.23 2142.5 1463.23 Q2145.05 1463.23 2146.54 1461.48 Q2148.05 1459.71 2148.05 1456.68 Q2148.05 1453.64 2146.54 1451.89 Q2145.05 1450.14 2142.5 1450.14 M2150.04 1438.23 L2150.04 1441.69 Q2148.61 1441.02 2147.14 1440.66 Q2145.69 1440.3 2144.26 1440.3 Q2140.5 1440.3 2138.51 1442.84 Q2136.53 1445.38 2136.25 1450.52 Q2137.36 1448.88 2139.04 1448.01 Q2140.71 1447.13 2142.72 1447.13 Q2146.95 1447.13 2149.4 1449.71 Q2151.86 1452.26 2151.86 1456.68 Q2151.86 1461.01 2149.31 1463.62 Q2146.75 1466.24 2142.5 1466.24 Q2137.63 1466.24 2135.05 1462.51 Q2132.47 1458.77 2132.47 1451.68 Q2132.47 1445.02 2135.63 1441.07 Q2138.79 1437.11 2144.11 1437.11 Q2145.54 1437.11 2146.99 1437.39 Q2148.46 1437.67 2150.04 1438.23 Z" fill="#000000" fill-rule="evenodd" fill-opacity="1" /><path clip-path="url(#clip240)" d="M 0 0 M1212.04 1512.66 L1217.93 1512.66 L1217.93 1541.91 L1235.41 1526.54 L1242.89 1526.54 L1223.98 1543.22 L1243.68 1562.19 L1236.04 1562.19 L1217.93 1544.78 L1217.93 1562.19 L1212.04 1562.19 L1212.04 1512.66 Z" fill="#000000" fill-rule="evenodd" fill-opacity="1" /><path clip-path="url(#clip240)" d="M 0 0 M1276.91 1573.01 L1276.91 1577.56 L1243.05 1577.56 L1243.05 1573.01 L1276.91 1573.01 Z" fill="#000000" fill-rule="evenodd" fill-opacity="1" /><path clip-path="url(#clip240)" d="M 0 0 M1296.87 1530.64 Q1292.16 1530.64 1289.42 1534.34 Q1286.68 1538 1286.68 1544.39 Q1286.68 1550.79 1289.39 1554.48 Q1292.13 1558.14 1296.87 1558.14 Q1301.55 1558.14 1304.28 1554.45 Q1307.02 1550.76 1307.02 1544.39 Q1307.02 1538.06 1304.28 1534.37 Q1301.55 1530.64 1296.87 1530.64 M1296.87 1525.68 Q1304.51 1525.68 1308.87 1530.64 Q1313.23 1535.61 1313.23 1544.39 Q1313.23 1553.15 1308.87 1558.14 Q1304.51 1563.11 1296.87 1563.11 Q1289.2 1563.11 1284.84 1558.14 Q1280.51 1553.15 1280.51 1544.39 Q1280.51 1535.61 1284.84 1530.64 Q1289.2 1525.68 1296.87 1525.68 Z" fill="#000000" fill-rule="evenodd" fill-opacity="1" /><path clip-path="url(#clip240)" d="M 0 0 M1349 1540.67 L1349 1562.19 L1343.15 1562.19 L1343.15 1540.86 Q1343.15 1535.8 1341.17 1533.29 Q1339.2 1530.77 1335.25 1530.77 Q1330.51 1530.77 1327.77 1533.79 Q1325.04 1536.82 1325.04 1542.04 L1325.04 1562.19 L1319.15 1562.19 L1319.15 1526.54 L1325.04 1526.54 L1325.04 1532.08 Q1327.14 1528.86 1329.97 1527.27 Q1332.83 1525.68 1336.56 1525.68 Q1342.7 1525.68 1345.85 1529.5 Q1349 1533.29 1349 1540.67 Z" fill="#000000" fill-rule="evenodd" fill-opacity="1" /><polyline clip-path="url(#clip242)" style="stroke:#000000; stroke-width:2; stroke-opacity:0.1; fill:none" points="
  208.292,1302.05 2352.76,1302.05 
  "/>
<polyline clip-path="url(#clip242)" style="stroke:#000000; stroke-width:2; stroke-opacity:0.1; fill:none" points="
  208.292,1020.2 2352.76,1020.2 
  "/>
<polyline clip-path="url(#clip242)" style="stroke:#000000; stroke-width:2; stroke-opacity:0.1; fill:none" points="
  208.292,738.34 2352.76,738.34 
  "/>
<polyline clip-path="url(#clip242)" style="stroke:#000000; stroke-width:2; stroke-opacity:0.1; fill:none" points="
  208.292,456.484 2352.76,456.484 
  "/>
<polyline clip-path="url(#clip242)" style="stroke:#000000; stroke-width:2; stroke-opacity:0.1; fill:none" points="
  208.292,174.629 2352.76,174.629 
  "/>
<polyline clip-path="url(#clip240)" style="stroke:#000000; stroke-width:4; stroke-opacity:1; fill:none" points="
  208.292,1410.9 208.292,47.2441 
  "/>
<polyline clip-path="url(#clip240)" style="stroke:#000000; stroke-width:4; stroke-opacity:1; fill:none" points="
  208.292,1302.05 234.026,1302.05 
  "/>
<polyline clip-path="url(#clip240)" style="stroke:#000000; stroke-width:4; stroke-opacity:1; fill:none" points="
  208.292,1020.2 234.026,1020.2 
  "/>
<polyline clip-path="url(#clip240)" style="stroke:#000000; stroke-width:4; stroke-opacity:1; fill:none" points="
  208.292,738.34 234.026,738.34 
  "/>
<polyline clip-path="url(#clip240)" style="stroke:#000000; stroke-width:4; stroke-opacity:1; fill:none" points="
  208.292,456.484 234.026,456.484 
  "/>
<polyline clip-path="url(#clip240)" style="stroke:#000000; stroke-width:4; stroke-opacity:1; fill:none" points="
  208.292,174.629 234.026,174.629 
  "/>
<path clip-path="url(#clip240)" d="M 0 0 M115.418 1315.4 L123.056 1315.4 L123.056 1289.03 L114.746 1290.7 L114.746 1286.44 L123.01 1284.77 L127.686 1284.77 L127.686 1315.4 L135.325 1315.4 L135.325 1319.33 L115.418 1319.33 L115.418 1315.4 Z" fill="#000000" fill-rule="evenodd" fill-opacity="1" /><path clip-path="url(#clip240)" d="M 0 0 M140.394 1313.45 L145.279 1313.45 L145.279 1319.33 L140.394 1319.33 L140.394 1313.45 Z" fill="#000000" fill-rule="evenodd" fill-opacity="1" /><path clip-path="url(#clip240)" d="M 0 0 M160.348 1287.85 Q156.737 1287.85 154.908 1291.41 Q153.103 1294.96 153.103 1302.09 Q153.103 1309.19 154.908 1312.76 Q156.737 1316.3 160.348 1316.3 Q163.982 1316.3 165.788 1312.76 Q167.616 1309.19 167.616 1302.09 Q167.616 1294.96 165.788 1291.41 Q163.982 1287.85 160.348 1287.85 M160.348 1284.15 Q166.158 1284.15 169.214 1288.75 Q172.292 1293.34 172.292 1302.09 Q172.292 1310.81 169.214 1315.42 Q166.158 1320 160.348 1320 Q154.538 1320 151.459 1315.42 Q148.403 1310.81 148.403 1302.09 Q148.403 1293.34 151.459 1288.75 Q154.538 1284.15 160.348 1284.15 Z" fill="#000000" fill-rule="evenodd" fill-opacity="1" /><path clip-path="url(#clip240)" d="M 0 0 M117.015 1033.54 L124.654 1033.54 L124.654 1007.17 L116.343 1008.84 L116.343 1004.58 L124.607 1002.92 L129.283 1002.92 L129.283 1033.54 L136.922 1033.54 L136.922 1037.48 L117.015 1037.48 L117.015 1033.54 Z" fill="#000000" fill-rule="evenodd" fill-opacity="1" /><path clip-path="url(#clip240)" d="M 0 0 M141.991 1031.6 L146.876 1031.6 L146.876 1037.48 L141.991 1037.48 L141.991 1031.6 Z" fill="#000000" fill-rule="evenodd" fill-opacity="1" /><path clip-path="url(#clip240)" d="M 0 0 M155.973 1033.54 L172.292 1033.54 L172.292 1037.48 L150.348 1037.48 L150.348 1033.54 Q153.01 1030.79 157.593 1026.16 Q162.2 1021.5 163.38 1020.16 Q165.626 1017.64 166.505 1015.9 Q167.408 1014.14 167.408 1012.45 Q167.408 1009.7 165.464 1007.96 Q163.542 1006.23 160.44 1006.23 Q158.241 1006.23 155.788 1006.99 Q153.357 1007.75 150.579 1009.3 L150.579 1004.58 Q153.403 1003.45 155.857 1002.87 Q158.311 1002.29 160.348 1002.29 Q165.718 1002.29 168.913 1004.98 Q172.107 1007.66 172.107 1012.15 Q172.107 1014.28 171.297 1016.2 Q170.51 1018.1 168.403 1020.69 Q167.825 1021.36 164.723 1024.58 Q161.621 1027.78 155.973 1033.54 Z" fill="#000000" fill-rule="evenodd" fill-opacity="1" /><path clip-path="url(#clip240)" d="M 0 0 M114.931 751.685 L122.57 751.685 L122.57 725.319 L114.26 726.986 L114.26 722.726 L122.524 721.06 L127.2 721.06 L127.2 751.685 L134.839 751.685 L134.839 755.62 L114.931 755.62 L114.931 751.685 Z" fill="#000000" fill-rule="evenodd" fill-opacity="1" /><path clip-path="url(#clip240)" d="M 0 0 M139.908 749.74 L144.792 749.74 L144.792 755.62 L139.908 755.62 L139.908 749.74 Z" fill="#000000" fill-rule="evenodd" fill-opacity="1" /><path clip-path="url(#clip240)" d="M 0 0 M162.709 725.134 L150.903 743.583 L162.709 743.583 L162.709 725.134 M161.482 721.06 L167.362 721.06 L167.362 743.583 L172.292 743.583 L172.292 747.472 L167.362 747.472 L167.362 755.62 L162.709 755.62 L162.709 747.472 L147.107 747.472 L147.107 742.958 L161.482 721.06 Z" fill="#000000" fill-rule="evenodd" fill-opacity="1" /><path clip-path="url(#clip240)" d="M 0 0 M115.256 469.829 L122.894 469.829 L122.894 443.463 L114.584 445.13 L114.584 440.871 L122.848 439.204 L127.524 439.204 L127.524 469.829 L135.163 469.829 L135.163 473.764 L115.256 473.764 L115.256 469.829 Z" fill="#000000" fill-rule="evenodd" fill-opacity="1" /><path clip-path="url(#clip240)" d="M 0 0 M140.232 467.885 L145.116 467.885 L145.116 473.764 L140.232 473.764 L140.232 467.885 Z" fill="#000000" fill-rule="evenodd" fill-opacity="1" /><path clip-path="url(#clip240)" d="M 0 0 M160.765 454.621 Q157.616 454.621 155.765 456.774 Q153.936 458.926 153.936 462.676 Q153.936 466.403 155.765 468.579 Q157.616 470.732 160.765 470.732 Q163.913 470.732 165.741 468.579 Q167.593 466.403 167.593 462.676 Q167.593 458.926 165.741 456.774 Q163.913 454.621 160.765 454.621 M170.047 439.968 L170.047 444.227 Q168.288 443.394 166.482 442.954 Q164.7 442.514 162.94 442.514 Q158.311 442.514 155.857 445.639 Q153.427 448.764 153.079 455.084 Q154.445 453.07 156.505 452.005 Q158.565 450.917 161.042 450.917 Q166.251 450.917 169.26 454.088 Q172.292 457.237 172.292 462.676 Q172.292 468 169.144 471.218 Q165.996 474.436 160.765 474.436 Q154.769 474.436 151.598 469.852 Q148.427 465.246 148.427 456.519 Q148.427 448.325 152.316 443.463 Q156.204 438.579 162.755 438.579 Q164.515 438.579 166.297 438.926 Q168.102 439.274 170.047 439.968 Z" fill="#000000" fill-rule="evenodd" fill-opacity="1" /><path clip-path="url(#clip240)" d="M 0 0 M115.51 187.974 L123.149 187.974 L123.149 161.608 L114.839 163.275 L114.839 159.015 L123.103 157.349 L127.779 157.349 L127.779 187.974 L135.417 187.974 L135.417 191.909 L115.51 191.909 L115.51 187.974 Z" fill="#000000" fill-rule="evenodd" fill-opacity="1" /><path clip-path="url(#clip240)" d="M 0 0 M140.487 186.029 L145.371 186.029 L145.371 191.909 L140.487 191.909 L140.487 186.029 Z" fill="#000000" fill-rule="evenodd" fill-opacity="1" /><path clip-path="url(#clip240)" d="M 0 0 M160.44 175.497 Q157.107 175.497 155.186 177.279 Q153.288 179.062 153.288 182.187 Q153.288 185.312 155.186 187.094 Q157.107 188.876 160.44 188.876 Q163.774 188.876 165.695 187.094 Q167.616 185.288 167.616 182.187 Q167.616 179.062 165.695 177.279 Q163.797 175.497 160.44 175.497 M155.765 173.506 Q152.755 172.765 151.066 170.705 Q149.399 168.645 149.399 165.682 Q149.399 161.539 152.339 159.131 Q155.302 156.724 160.44 156.724 Q165.602 156.724 168.542 159.131 Q171.482 161.539 171.482 165.682 Q171.482 168.645 169.792 170.705 Q168.126 172.765 165.14 173.506 Q168.519 174.293 170.394 176.585 Q172.292 178.876 172.292 182.187 Q172.292 187.21 169.214 189.895 Q166.158 192.58 160.44 192.58 Q154.723 192.58 151.644 189.895 Q148.589 187.21 148.589 182.187 Q148.589 178.876 150.487 176.585 Q152.385 174.293 155.765 173.506 M154.052 166.122 Q154.052 168.807 155.718 170.312 Q157.408 171.816 160.44 171.816 Q163.45 171.816 165.14 170.312 Q166.852 168.807 166.852 166.122 Q166.852 163.437 165.14 161.932 Q163.45 160.427 160.44 160.427 Q157.408 160.427 155.718 161.932 Q154.052 163.437 154.052 166.122 Z" fill="#000000" fill-rule="evenodd" fill-opacity="1" /><path clip-path="url(#clip240)" d="M 0 0 M59.1993 815.533 Q55.2526 813.336 53.3747 810.281 Q51.4968 807.225 51.4968 803.088 Q51.4968 797.518 55.4117 794.494 Q59.2948 791.47 66.4881 791.47 L88.0042 791.47 L88.0042 797.358 L66.679 797.358 Q61.5546 797.358 59.072 799.173 Q56.5894 800.987 56.5894 804.711 Q56.5894 809.262 59.6131 811.904 Q62.6368 814.546 67.8567 814.546 L88.0042 814.546 L88.0042 820.434 L66.679 820.434 Q61.5228 820.434 59.072 822.248 Q56.5894 824.063 56.5894 827.85 Q56.5894 832.338 59.6449 834.98 Q62.6686 837.622 67.8567 837.622 L88.0042 837.622 L88.0042 843.51 L52.3562 843.51 L52.3562 837.622 L57.8944 837.622 Q54.616 835.616 53.0564 832.815 Q51.4968 830.015 51.4968 826.163 Q51.4968 822.28 53.4702 819.575 Q55.4436 816.838 59.1993 815.533 Z" fill="#000000" fill-rule="evenodd" fill-opacity="1" /><path clip-path="url(#clip240)" d="M 0 0 M52.3562 785.327 L52.3562 779.471 L88.0042 779.471 L88.0042 785.327 L52.3562 785.327 M38.479 785.327 L38.479 779.471 L45.895 779.471 L45.895 785.327 L38.479 785.327 Z" fill="#000000" fill-rule="evenodd" fill-opacity="1" /><path clip-path="url(#clip240)" d="M 0 0 M66.4881 743.696 L88.0042 743.696 L88.0042 749.552 L66.679 749.552 Q61.6183 749.552 59.1038 751.525 Q56.5894 753.499 56.5894 757.446 Q56.5894 762.188 59.6131 764.925 Q62.6368 767.662 67.8567 767.662 L88.0042 767.662 L88.0042 773.551 L52.3562 773.551 L52.3562 767.662 L57.8944 767.662 Q54.6797 765.562 53.0883 762.729 Q51.4968 759.864 51.4968 756.141 Q51.4968 749.998 55.3163 746.847 Q59.1038 743.696 66.4881 743.696 Z" fill="#000000" fill-rule="evenodd" fill-opacity="1" /><path clip-path="url(#clip240)" d="M 0 0 M98.8259 710.467 L103.377 710.467 L103.377 744.332 L98.8259 744.332 L98.8259 710.467 Z" fill="#000000" fill-rule="evenodd" fill-opacity="1" /><path clip-path="url(#clip240)" d="M 0 0 M57.7671 680.866 L38.479 680.866 L38.479 675.01 L88.0042 675.01 L88.0042 680.866 L82.657 680.866 Q85.8398 682.712 87.3994 685.545 Q88.9272 688.346 88.9272 692.292 Q88.9272 698.754 83.771 702.828 Q78.6147 706.87 70.212 706.87 Q61.8093 706.87 56.6531 702.828 Q51.4968 698.754 51.4968 692.292 Q51.4968 688.346 53.0564 685.545 Q54.5842 682.712 57.7671 680.866 M70.212 700.823 Q76.6732 700.823 80.3653 698.181 Q84.0256 695.507 84.0256 690.86 Q84.0256 686.213 80.3653 683.54 Q76.6732 680.866 70.212 680.866 Q63.7508 680.866 60.0905 683.54 Q56.3984 686.213 56.3984 690.86 Q56.3984 695.507 60.0905 698.181 Q63.7508 700.823 70.212 700.823 Z" fill="#000000" fill-rule="evenodd" fill-opacity="1" /><path clip-path="url(#clip240)" d="M 0 0 M52.3562 668.867 L52.3562 663.01 L88.0042 663.01 L88.0042 668.867 L52.3562 668.867 M38.479 668.867 L38.479 663.01 L45.895 663.01 L45.895 668.867 L38.479 668.867 Z" fill="#000000" fill-rule="evenodd" fill-opacity="1" /><path clip-path="url(#clip240)" d="M 0 0 M38.479 638.821 L43.3487 638.821 L43.3487 644.422 Q43.3487 647.573 44.6219 648.815 Q45.895 650.024 49.2052 650.024 L52.3562 650.024 L52.3562 640.38 L56.9077 640.38 L56.9077 650.024 L88.0042 650.024 L88.0042 655.912 L56.9077 655.912 L56.9077 661.514 L52.3562 661.514 L52.3562 655.912 L49.8736 655.912 Q43.9216 655.912 41.2162 653.143 Q38.479 650.374 38.479 644.359 L38.479 638.821 Z" fill="#000000" fill-rule="evenodd" fill-opacity="1" /><path clip-path="url(#clip240)" d="M 0 0 M38.479 614.631 L43.3487 614.631 L43.3487 620.233 Q43.3487 623.384 44.6219 624.625 Q45.895 625.835 49.2052 625.835 L52.3562 625.835 L52.3562 616.19 L56.9077 616.19 L56.9077 625.835 L88.0042 625.835 L88.0042 631.723 L56.9077 631.723 L56.9077 637.325 L52.3562 637.325 L52.3562 631.723 L49.8736 631.723 Q43.9216 631.723 41.2162 628.954 Q38.479 626.185 38.479 620.169 L38.479 614.631 Z" fill="#000000" fill-rule="evenodd" fill-opacity="1" /><polyline clip-path="url(#clip242)" style="stroke:#009af9; stroke-width:20; stroke-opacity:1; fill:none" stroke-dasharray="80, 50" points="
  268.985,85.838 1280.52,1372.3 2292.06,366.322 
  "/>
<path clip-path="url(#clip240)" d="
M1991.98 213.659 L2281.27 213.659 L2281.27 92.6992 L1991.98 92.6992  Z
  " fill="#ffffff" fill-rule="evenodd" fill-opacity="1"/>
<polyline clip-path="url(#clip240)" style="stroke:#000000; stroke-width:4; stroke-opacity:1; fill:none" points="
  1991.98,213.659 2281.27,213.659 2281.27,92.6992 1991.98,92.6992 1991.98,213.659 
  "/>
<polyline clip-path="url(#clip240)" style="stroke:#009af9; stroke-width:4; stroke-opacity:1; fill:none" stroke-dasharray="16, 10" points="
  2015.81,153.179 2158.77,153.179 
  "/>
<path clip-path="url(#clip240)" d="M 0 0 M2196.44 172.867 Q2194.64 177.496 2192.92 178.908 Q2191.21 180.32 2188.34 180.32 L2184.94 180.32 L2184.94 176.755 L2187.44 176.755 Q2189.2 176.755 2190.17 175.922 Q2191.14 175.089 2192.32 171.987 L2193.09 170.043 L2182.6 144.533 L2187.11 144.533 L2195.22 164.811 L2203.32 144.533 L2207.83 144.533 L2196.44 172.867 Z" fill="#000000" fill-rule="evenodd" fill-opacity="1" /><path clip-path="url(#clip240)" d="M 0 0 M2213.71 166.524 L2221.35 166.524 L2221.35 140.158 L2213.04 141.825 L2213.04 137.566 L2221.3 135.899 L2225.98 135.899 L2225.98 166.524 L2233.62 166.524 L2233.62 170.459 L2213.71 170.459 L2213.71 166.524 Z" fill="#000000" fill-rule="evenodd" fill-opacity="1" /></svg>
