<?xml version="1.0" encoding="utf-8"?>
<svg xmlns="http://www.w3.org/2000/svg" xmlns:xlink="http://www.w3.org/1999/xlink" width="600" height="400" viewBox="0 0 2400 1600">
<defs>
  <clipPath id="clip000">
    <rect x="0" y="0" width="2400" height="1600"/>
  </clipPath>
</defs>
<path clip-path="url(#clip000)" d="
M0 1600 L2400 1600 L2400 0 L0 0  Z
  " fill="#ffffff" fill-rule="evenodd" fill-opacity="1"/>
<defs>
  <clipPath id="clip001">
    <rect x="480" y="0" width="1681" height="1600"/>
  </clipPath>
</defs>
<path clip-path="url(#clip000)" d="
M212.413 1410.9 L2352.76 1410.9 L2352.76 47.2441 L212.413 47.2441  Z
  " fill="#ffffff" fill-rule="evenodd" fill-opacity="1"/>
<defs>
  <clipPath id="clip002">
    <rect x="212" y="47" width="2141" height="1365"/>
  </clipPath>
</defs>
<polyline clip-path="url(#clip002)" style="stroke:#000000; stroke-width:2; stroke-opacity:0.1; fill:none" points="
  272.988,1410.9 272.988,47.2441 
  "/>
<polyline clip-path="url(#clip002)" style="stroke:#000000; stroke-width:2; stroke-opacity:0.1; fill:none" points="
  777.786,1410.9 777.786,47.2441 
  "/>
<polyline clip-path="url(#clip002)" style="stroke:#000000; stroke-width:2; stroke-opacity:0.1; fill:none" points="
  1282.58,1410.9 1282.58,47.2441 
  "/>
<polyline clip-path="url(#clip002)" style="stroke:#000000; stroke-width:2; stroke-opacity:0.1; fill:none" points="
  1787.38,1410.9 1787.38,47.2441 
  "/>
<polyline clip-path="url(#clip002)" style="stroke:#000000; stroke-width:2; stroke-opacity:0.1; fill:none" points="
  2292.18,1410.9 2292.18,47.2441 
  "/>
<polyline clip-path="url(#clip000)" style="stroke:#000000; stroke-width:4; stroke-opacity:1; fill:none" points="
  212.413,1410.9 2352.76,1410.9 
  "/>
<polyline clip-path="url(#clip000)" style="stroke:#000000; stroke-width:4; stroke-opacity:1; fill:none" points="
  272.988,1410.9 272.988,1394.53 
  "/>
<polyline clip-path="url(#clip000)" style="stroke:#000000; stroke-width:4; stroke-opacity:1; fill:none" points="
  777.786,1410.9 777.786,1394.53 
  "/>
<polyline clip-path="url(#clip000)" style="stroke:#000000; stroke-width:4; stroke-opacity:1; fill:none" points="
  1282.58,1410.9 1282.58,1394.53 
  "/>
<polyline clip-path="url(#clip000)" style="stroke:#000000; stroke-width:4; stroke-opacity:1; fill:none" points="
  1787.38,1410.9 1787.38,1394.53 
  "/>
<polyline clip-path="url(#clip000)" style="stroke:#000000; stroke-width:4; stroke-opacity:1; fill:none" points="
  2292.18,1410.9 2292.18,1394.53 
  "/>
<path clip-path="url(#clip000)" d="M 0 0 M212.079 1489.17 L219.718 1489.17 L219.718 1462.8 L211.407 1464.47 L211.407 1460.21 L219.671 1458.54 L224.347 1458.54 L224.347 1489.17 L231.986 1489.17 L231.986 1493.1 L212.079 1493.1 L212.079 1489.17 Z" fill="#000000" fill-rule="evenodd" fill-opacity="1" /><path clip-path="url(#clip000)" d="M 0 0 M247.055 1461.62 Q243.444 1461.62 241.616 1465.19 Q239.81 1468.73 239.81 1475.86 Q239.81 1482.97 241.616 1486.53 Q243.444 1490.07 247.055 1490.07 Q250.69 1490.07 252.495 1486.53 Q254.324 1482.97 254.324 1475.86 Q254.324 1468.73 252.495 1465.19 Q250.69 1461.62 247.055 1461.62 M247.055 1457.92 Q252.865 1457.92 255.921 1462.53 Q259 1467.11 259 1475.86 Q259 1484.59 255.921 1489.19 Q252.865 1493.78 247.055 1493.78 Q241.245 1493.78 238.166 1489.19 Q235.111 1484.59 235.111 1475.86 Q235.111 1467.11 238.166 1462.53 Q241.245 1457.92 247.055 1457.92 Z" fill="#000000" fill-rule="evenodd" fill-opacity="1" /><path clip-path="url(#clip000)" d="M 0 0 M259 1452.02 L283.111 1452.02 L283.111 1455.22 L259 1455.22 L259 1452.02 Z" fill="#000000" fill-rule="evenodd" fill-opacity="1" /><path clip-path="url(#clip000)" d="M 0 0 M298.741 1450.55 Q301.468 1451.14 302.991 1452.98 Q304.533 1454.82 304.533 1457.53 Q304.533 1461.69 301.675 1463.96 Q298.816 1466.24 293.55 1466.24 Q291.782 1466.24 289.901 1465.88 Q288.039 1465.54 286.045 1464.85 L286.045 1461.18 Q287.625 1462.1 289.506 1462.57 Q291.387 1463.04 293.437 1463.04 Q297.01 1463.04 298.872 1461.63 Q300.753 1460.22 300.753 1457.53 Q300.753 1455.05 299.004 1453.66 Q297.274 1452.25 294.17 1452.25 L290.898 1452.25 L290.898 1449.12 L294.321 1449.12 Q297.123 1449.12 298.609 1448.01 Q300.095 1446.89 300.095 1444.78 Q300.095 1442.62 298.552 1441.47 Q297.029 1440.3 294.17 1440.3 Q292.609 1440.3 290.822 1440.64 Q289.036 1440.98 286.892 1441.69 L286.892 1438.31 Q289.055 1437.71 290.935 1437.41 Q292.835 1437.11 294.509 1437.11 Q298.835 1437.11 301.355 1439.08 Q303.875 1441.04 303.875 1444.38 Q303.875 1446.72 302.54 1448.33 Q301.204 1449.93 298.741 1450.55 Z" fill="#000000" fill-rule="evenodd" fill-opacity="1" /><path clip-path="url(#clip000)" d="M 0 0 M308.652 1460.92 L312.621 1460.92 L312.621 1465.69 L308.652 1465.69 L308.652 1460.92 Z" fill="#000000" fill-rule="evenodd" fill-opacity="1" /><path clip-path="url(#clip000)" d="M 0 0 M324.865 1440.11 Q321.931 1440.11 320.445 1443.01 Q318.978 1445.89 318.978 1451.68 Q318.978 1457.46 320.445 1460.35 Q321.931 1463.23 324.865 1463.23 Q327.817 1463.23 329.284 1460.35 Q330.77 1457.46 330.77 1451.68 Q330.77 1445.89 329.284 1443.01 Q327.817 1440.11 324.865 1440.11 M324.865 1437.11 Q329.585 1437.11 332.068 1440.85 Q334.569 1444.57 334.569 1451.68 Q334.569 1458.77 332.068 1462.51 Q329.585 1466.24 324.865 1466.24 Q320.144 1466.24 317.642 1462.51 Q315.16 1458.77 315.16 1451.68 Q315.16 1444.57 317.642 1440.85 Q320.144 1437.11 324.865 1437.11 Z" fill="#000000" fill-rule="evenodd" fill-opacity="1" /><path clip-path="url(#clip000)" d="M 0 0 M717.667 1489.17 L725.305 1489.17 L725.305 1462.8 L716.995 1464.47 L716.995 1460.21 L725.259 1458.54 L729.935 1458.54 L729.935 1489.17 L737.574 1489.17 L737.574 1493.1 L717.667 1493.1 L717.667 1489.17 Z" fill="#000000" fill-rule="evenodd" fill-opacity="1" /><path clip-path="url(#clip000)" d="M 0 0 M752.643 1461.62 Q749.032 1461.62 747.203 1465.19 Q745.398 1468.73 745.398 1475.86 Q745.398 1482.97 747.203 1486.53 Q749.032 1490.07 752.643 1490.07 Q756.277 1490.07 758.083 1486.53 Q759.912 1482.97 759.912 1475.86 Q759.912 1468.73 758.083 1465.19 Q756.277 1461.62 752.643 1461.62 M752.643 1457.92 Q758.453 1457.92 761.509 1462.53 Q764.588 1467.11 764.588 1475.86 Q764.588 1484.59 761.509 1489.19 Q758.453 1493.78 752.643 1493.78 Q746.833 1493.78 743.754 1489.19 Q740.699 1484.59 740.699 1475.86 Q740.699 1467.11 743.754 1462.53 Q746.833 1457.92 752.643 1457.92 Z" fill="#000000" fill-rule="evenodd" fill-opacity="1" /><path clip-path="url(#clip000)" d="M 0 0 M764.588 1452.02 L788.699 1452.02 L788.699 1455.22 L764.588 1455.22 L764.588 1452.02 Z" fill="#000000" fill-rule="evenodd" fill-opacity="1" /><path clip-path="url(#clip000)" d="M 0 0 M796.091 1462.5 L809.35 1462.5 L809.35 1465.69 L791.52 1465.69 L791.52 1462.5 Q793.683 1460.26 797.407 1456.5 Q801.15 1452.72 802.109 1451.63 Q803.933 1449.58 804.648 1448.16 Q805.382 1446.74 805.382 1445.36 Q805.382 1443.12 803.802 1441.71 Q802.241 1440.3 799.721 1440.3 Q797.934 1440.3 795.94 1440.92 Q793.965 1441.54 791.708 1442.8 L791.708 1438.97 Q794.003 1438.05 795.997 1437.58 Q797.99 1437.11 799.645 1437.11 Q804.009 1437.11 806.604 1439.29 Q809.2 1441.47 809.2 1445.12 Q809.2 1446.85 808.541 1448.41 Q807.902 1449.95 806.19 1452.06 Q805.72 1452.6 803.2 1455.22 Q800.68 1457.81 796.091 1462.5 Z" fill="#000000" fill-rule="evenodd" fill-opacity="1" /><path clip-path="url(#clip000)" d="M 0 0 M813.469 1460.92 L817.437 1460.92 L817.437 1465.69 L813.469 1465.69 L813.469 1460.92 Z" fill="#000000" fill-rule="evenodd" fill-opacity="1" /><path clip-path="url(#clip000)" d="M 0 0 M821.594 1437.61 L836.509 1437.61 L836.509 1440.81 L825.073 1440.81 L825.073 1447.69 Q825.901 1447.41 826.728 1447.28 Q827.556 1447.13 828.384 1447.13 Q833.085 1447.13 835.831 1449.71 Q838.577 1452.28 838.577 1456.68 Q838.577 1461.22 835.756 1463.74 Q832.935 1466.24 827.801 1466.24 Q826.033 1466.24 824.189 1465.94 Q822.365 1465.64 820.409 1465.04 L820.409 1461.22 Q822.102 1462.14 823.907 1462.59 Q825.713 1463.04 827.725 1463.04 Q830.979 1463.04 832.879 1461.33 Q834.778 1459.62 834.778 1456.68 Q834.778 1453.75 832.879 1452.04 Q830.979 1450.33 827.725 1450.33 Q826.202 1450.33 824.678 1450.67 Q823.174 1451 821.594 1451.72 L821.594 1437.61 Z" fill="#000000" fill-rule="evenodd" fill-opacity="1" /><path clip-path="url(#clip000)" d="M 0 0 M1222.06 1489.17 L1229.7 1489.17 L1229.7 1462.8 L1221.39 1464.47 L1221.39 1460.21 L1229.65 1458.54 L1234.33 1458.54 L1234.33 1489.17 L1241.97 1489.17 L1241.97 1493.1 L1222.06 1493.1 L1222.06 1489.17 Z" fill="#000000" fill-rule="evenodd" fill-opacity="1" /><path clip-path="url(#clip000)" d="M 0 0 M1257.04 1461.62 Q1253.43 1461.62 1251.6 1465.19 Q1249.79 1468.73 1249.79 1475.86 Q1249.79 1482.97 1251.6 1486.53 Q1253.43 1490.07 1257.04 1490.07 Q1260.67 1490.07 1262.48 1486.53 Q1264.31 1482.97 1264.31 1475.86 Q1264.31 1468.73 1262.48 1465.19 Q1260.67 1461.62 1257.04 1461.62 M1257.04 1457.92 Q1262.85 1457.92 1265.9 1462.53 Q1268.98 1467.11 1268.98 1475.86 Q1268.98 1484.59 1265.9 1489.19 Q1262.85 1493.78 1257.04 1493.78 Q1251.23 1493.78 1248.15 1489.19 Q1245.09 1484.59 1245.09 1475.86 Q1245.09 1467.11 1248.15 1462.53 Q1251.23 1457.92 1257.04 1457.92 Z" fill="#000000" fill-rule="evenodd" fill-opacity="1" /><path clip-path="url(#clip000)" d="M 0 0 M1268.98 1452.02 L1293.09 1452.02 L1293.09 1455.22 L1268.98 1455.22 L1268.98 1452.02 Z" fill="#000000" fill-rule="evenodd" fill-opacity="1" /><path clip-path="url(#clip000)" d="M 0 0 M1300.48 1462.5 L1313.74 1462.5 L1313.74 1465.69 L1295.91 1465.69 L1295.91 1462.5 Q1298.08 1460.26 1301.8 1456.5 Q1305.54 1452.72 1306.5 1451.63 Q1308.33 1449.58 1309.04 1448.16 Q1309.78 1446.74 1309.78 1445.36 Q1309.78 1443.12 1308.2 1441.71 Q1306.63 1440.3 1304.11 1440.3 Q1302.33 1440.3 1300.33 1440.92 Q1298.36 1441.54 1296.1 1442.8 L1296.1 1438.97 Q1298.4 1438.05 1300.39 1437.58 Q1302.38 1437.11 1304.04 1437.11 Q1308.4 1437.11 1311 1439.29 Q1313.59 1441.47 1313.59 1445.12 Q1313.59 1446.85 1312.93 1448.41 Q1312.3 1449.95 1310.58 1452.06 Q1310.11 1452.6 1307.59 1455.22 Q1305.07 1457.81 1300.48 1462.5 Z" fill="#000000" fill-rule="evenodd" fill-opacity="1" /><path clip-path="url(#clip000)" d="M 0 0 M1317.86 1460.92 L1321.83 1460.92 L1321.83 1465.69 L1317.86 1465.69 L1317.86 1460.92 Z" fill="#000000" fill-rule="evenodd" fill-opacity="1" /><path clip-path="url(#clip000)" d="M 0 0 M1334.07 1440.11 Q1331.14 1440.11 1329.66 1443.01 Q1328.19 1445.89 1328.19 1451.68 Q1328.19 1457.46 1329.66 1460.35 Q1331.14 1463.23 1334.07 1463.23 Q1337.03 1463.23 1338.49 1460.35 Q1339.98 1457.46 1339.98 1451.68 Q1339.98 1445.89 1338.49 1443.01 Q1337.03 1440.11 1334.07 1440.11 M1334.07 1437.11 Q1338.8 1437.11 1341.28 1440.85 Q1343.78 1444.57 1343.78 1451.68 Q1343.78 1458.77 1341.28 1462.51 Q1338.8 1466.24 1334.07 1466.24 Q1329.35 1466.24 1326.85 1462.51 Q1324.37 1458.77 1324.37 1451.68 Q1324.37 1444.57 1326.85 1440.85 Q1329.35 1437.11 1334.07 1437.11 Z" fill="#000000" fill-rule="evenodd" fill-opacity="1" /><path clip-path="url(#clip000)" d="M 0 0 M1727.11 1489.17 L1734.75 1489.17 L1734.75 1462.8 L1726.44 1464.47 L1726.44 1460.21 L1734.7 1458.54 L1739.38 1458.54 L1739.38 1489.17 L1747.02 1489.17 L1747.02 1493.1 L1727.11 1493.1 L1727.11 1489.17 Z" fill="#000000" fill-rule="evenodd" fill-opacity="1" /><path clip-path="url(#clip000)" d="M 0 0 M1762.09 1461.62 Q1758.48 1461.62 1756.65 1465.19 Q1754.84 1468.73 1754.84 1475.86 Q1754.84 1482.97 1756.65 1486.53 Q1758.48 1490.07 1762.09 1490.07 Q1765.72 1490.07 1767.53 1486.53 Q1769.36 1482.97 1769.36 1475.86 Q1769.36 1468.73 1767.53 1465.19 Q1765.72 1461.62 1762.09 1461.62 M1762.09 1457.92 Q1767.9 1457.92 1770.95 1462.53 Q1774.03 1467.11 1774.03 1475.86 Q1774.03 1484.59 1770.95 1489.19 Q1767.9 1493.78 1762.09 1493.78 Q1756.28 1493.78 1753.2 1489.19 Q1750.14 1484.59 1750.14 1475.86 Q1750.14 1467.11 1753.2 1462.53 Q1756.28 1457.92 1762.09 1457.92 Z" fill="#000000" fill-rule="evenodd" fill-opacity="1" /><path clip-path="url(#clip000)" d="M 0 0 M1774.03 1452.02 L1798.14 1452.02 L1798.14 1455.22 L1774.03 1455.22 L1774.03 1452.02 Z" fill="#000000" fill-rule="evenodd" fill-opacity="1" /><path clip-path="url(#clip000)" d="M 0 0 M1802.92 1462.5 L1809.13 1462.5 L1809.13 1441.07 L1802.38 1442.43 L1802.38 1438.97 L1809.09 1437.61 L1812.89 1437.61 L1812.89 1462.5 L1819.1 1462.5 L1819.1 1465.69 L1802.92 1465.69 L1802.92 1462.5 Z" fill="#000000" fill-rule="evenodd" fill-opacity="1" /><path clip-path="url(#clip000)" d="M 0 0 M1823.22 1460.92 L1827.18 1460.92 L1827.18 1465.69 L1823.22 1465.69 L1823.22 1460.92 Z" fill="#000000" fill-rule="evenodd" fill-opacity="1" /><path clip-path="url(#clip000)" d="M 0 0 M1831.34 1437.61 L1846.25 1437.61 L1846.25 1440.81 L1834.82 1440.81 L1834.82 1447.69 Q1835.65 1447.41 1836.47 1447.28 Q1837.3 1447.13 1838.13 1447.13 Q1842.83 1447.13 1845.58 1449.71 Q1848.32 1452.28 1848.32 1456.68 Q1848.32 1461.22 1845.5 1463.74 Q1842.68 1466.24 1837.55 1466.24 Q1835.78 1466.24 1833.94 1465.94 Q1832.11 1465.64 1830.16 1465.04 L1830.16 1461.22 Q1831.85 1462.14 1833.65 1462.59 Q1835.46 1463.04 1837.47 1463.04 Q1840.73 1463.04 1842.62 1461.33 Q1844.52 1459.62 1844.52 1456.68 Q1844.52 1453.75 1842.62 1452.04 Q1840.73 1450.33 1837.47 1450.33 Q1835.95 1450.33 1834.42 1450.67 Q1832.92 1451 1831.34 1451.72 L1831.34 1437.61 Z" fill="#000000" fill-rule="evenodd" fill-opacity="1" /><path clip-path="url(#clip000)" d="M 0 0 M2231.51 1489.17 L2239.14 1489.17 L2239.14 1462.8 L2230.83 1464.47 L2230.83 1460.21 L2239.1 1458.54 L2243.77 1458.54 L2243.77 1489.17 L2251.41 1489.17 L2251.41 1493.1 L2231.51 1493.1 L2231.51 1489.17 Z" fill="#000000" fill-rule="evenodd" fill-opacity="1" /><path clip-path="url(#clip000)" d="M 0 0 M2266.48 1461.62 Q2262.87 1461.62 2261.04 1465.19 Q2259.24 1468.73 2259.24 1475.86 Q2259.24 1482.97 2261.04 1486.53 Q2262.87 1490.07 2266.48 1490.07 Q2270.12 1490.07 2271.92 1486.53 Q2273.75 1482.97 2273.75 1475.86 Q2273.75 1468.73 2271.92 1465.19 Q2270.12 1461.62 2266.48 1461.62 M2266.48 1457.92 Q2272.29 1457.92 2275.35 1462.53 Q2278.43 1467.11 2278.43 1475.86 Q2278.43 1484.59 2275.35 1489.19 Q2272.29 1493.78 2266.48 1493.78 Q2260.67 1493.78 2257.59 1489.19 Q2254.54 1484.59 2254.54 1475.86 Q2254.54 1467.11 2257.59 1462.53 Q2260.67 1457.92 2266.48 1457.92 Z" fill="#000000" fill-rule="evenodd" fill-opacity="1" /><path clip-path="url(#clip000)" d="M 0 0 M2278.43 1452.02 L2302.54 1452.02 L2302.54 1455.22 L2278.43 1455.22 L2278.43 1452.02 Z" fill="#000000" fill-rule="evenodd" fill-opacity="1" /><path clip-path="url(#clip000)" d="M 0 0 M2307.32 1462.5 L2313.52 1462.5 L2313.52 1441.07 L2306.77 1442.43 L2306.77 1438.97 L2313.48 1437.61 L2317.28 1437.61 L2317.28 1462.5 L2323.49 1462.5 L2323.49 1465.69 L2307.32 1465.69 L2307.32 1462.5 Z" fill="#000000" fill-rule="evenodd" fill-opacity="1" /><path clip-path="url(#clip000)" d="M 0 0 M2327.61 1460.92 L2331.58 1460.92 L2331.58 1465.69 L2327.61 1465.69 L2327.61 1460.92 Z" fill="#000000" fill-rule="evenodd" fill-opacity="1" /><path clip-path="url(#clip000)" d="M 0 0 M2343.82 1440.11 Q2340.89 1440.11 2339.4 1443.01 Q2337.93 1445.89 2337.93 1451.68 Q2337.93 1457.46 2339.4 1460.35 Q2340.89 1463.23 2343.82 1463.23 Q2346.77 1463.23 2348.24 1460.35 Q2349.73 1457.46 2349.73 1451.68 Q2349.73 1445.89 2348.24 1443.01 Q2346.77 1440.11 2343.82 1440.11 M2343.82 1437.11 Q2348.54 1437.11 2351.02 1440.85 Q2353.53 1444.57 2353.53 1451.68 Q2353.53 1458.77 2351.02 1462.51 Q2348.54 1466.24 2343.82 1466.24 Q2339.1 1466.24 2336.6 1462.51 Q2334.12 1458.77 2334.12 1451.68 Q2334.12 1444.57 2336.6 1440.85 Q2339.1 1437.11 2343.82 1437.11 Z" fill="#000000" fill-rule="evenodd" fill-opacity="1" /><path clip-path="url(#clip000)" d="M 0 0 M1175.35 1526.54 L1181.56 1526.54 L1192.7 1556.46 L1203.84 1526.54 L1210.05 1526.54 L1196.68 1562.19 L1188.72 1562.19 L1175.35 1526.54 Z" fill="#000000" fill-rule="evenodd" fill-opacity="1" /><path clip-path="url(#clip000)" d="M 0 0 M1243.28 1573.01 L1243.28 1577.56 L1209.41 1577.56 L1209.41 1573.01 L1243.28 1573.01 Z" fill="#000000" fill-rule="evenodd" fill-opacity="1" /><path clip-path="url(#clip000)" d="M 0 0 M1263.23 1530.64 Q1258.52 1530.64 1255.78 1534.34 Q1253.05 1538 1253.05 1544.39 Q1253.05 1550.79 1255.75 1554.48 Q1258.49 1558.14 1263.23 1558.14 Q1267.91 1558.14 1270.65 1554.45 Q1273.39 1550.76 1273.39 1544.39 Q1273.39 1538.06 1270.65 1534.37 Q1267.91 1530.64 1263.23 1530.64 M1263.23 1525.68 Q1270.87 1525.68 1275.23 1530.64 Q1279.59 1535.61 1279.59 1544.39 Q1279.59 1553.15 1275.23 1558.14 Q1270.87 1563.11 1263.23 1563.11 Q1255.56 1563.11 1251.2 1558.14 Q1246.87 1553.15 1246.87 1544.39 Q1246.87 1535.61 1251.2 1530.64 Q1255.56 1525.68 1263.23 1525.68 Z" fill="#000000" fill-rule="evenodd" fill-opacity="1" /><path clip-path="url(#clip000)" d="M 0 0 M1291.4 1556.84 L1291.4 1575.74 L1285.51 1575.74 L1285.51 1526.54 L1291.4 1526.54 L1291.4 1531.95 Q1293.25 1528.77 1296.05 1527.24 Q1298.88 1525.68 1302.8 1525.68 Q1309.29 1525.68 1313.33 1530.83 Q1317.4 1535.99 1317.4 1544.39 Q1317.4 1552.8 1313.33 1557.95 Q1309.29 1563.11 1302.8 1563.11 Q1298.88 1563.11 1296.05 1561.58 Q1293.25 1560.02 1291.4 1556.84 M1311.33 1544.39 Q1311.33 1537.93 1308.65 1534.27 Q1306.01 1530.58 1301.36 1530.58 Q1296.72 1530.58 1294.04 1534.27 Q1291.4 1537.93 1291.4 1544.39 Q1291.4 1550.85 1294.04 1554.55 Q1296.72 1558.21 1301.36 1558.21 Q1306.01 1558.21 1308.65 1554.55 Q1311.33 1550.85 1311.33 1544.39 Z" fill="#000000" fill-rule="evenodd" fill-opacity="1" /><path clip-path="url(#clip000)" d="M 0 0 M1354.04 1542.9 L1354.04 1545.76 L1327.11 1545.76 Q1327.49 1551.81 1330.74 1554.99 Q1334.02 1558.14 1339.84 1558.14 Q1343.22 1558.14 1346.37 1557.32 Q1349.55 1556.49 1352.67 1554.83 L1352.67 1560.37 Q1349.52 1561.71 1346.21 1562.41 Q1342.9 1563.11 1339.49 1563.11 Q1330.96 1563.11 1325.97 1558.14 Q1321 1553.18 1321 1544.71 Q1321 1535.96 1325.71 1530.83 Q1330.45 1525.68 1338.48 1525.68 Q1345.67 1525.68 1349.84 1530.33 Q1354.04 1534.94 1354.04 1542.9 M1348.18 1541.18 Q1348.12 1536.37 1345.48 1533.51 Q1342.87 1530.64 1338.54 1530.64 Q1333.64 1530.64 1330.68 1533.41 Q1327.75 1536.18 1327.3 1541.21 L1348.18 1541.18 Z" fill="#000000" fill-rule="evenodd" fill-opacity="1" /><path clip-path="url(#clip000)" d="M 0 0 M1389.81 1540.67 L1389.81 1562.19 L1383.96 1562.19 L1383.96 1540.86 Q1383.96 1535.8 1381.98 1533.29 Q1380.01 1530.77 1376.06 1530.77 Q1371.32 1530.77 1368.58 1533.79 Q1365.85 1536.82 1365.85 1542.04 L1365.85 1562.19 L1359.96 1562.19 L1359.96 1526.54 L1365.85 1526.54 L1365.85 1532.08 Q1367.95 1528.86 1370.78 1527.27 Q1373.65 1525.68 1377.37 1525.68 Q1383.51 1525.68 1386.66 1529.5 Q1389.81 1533.29 1389.81 1540.67 Z" fill="#000000" fill-rule="evenodd" fill-opacity="1" /><polyline clip-path="url(#clip002)" style="stroke:#000000; stroke-width:2; stroke-opacity:0.1; fill:none" points="
  212.413,1394.49 2352.76,1394.49 
  "/>
<polyline clip-path="url(#clip002)" style="stroke:#000000; stroke-width:2; stroke-opacity:0.1; fill:none" points="
  212.413,1194.02 2352.76,1194.02 
  "/>
<polyline clip-path="url(#clip002)" style="stroke:#000000; stroke-width:2; stroke-opacity:0.1; fill:none" points="
  212.413,993.548 2352.76,993.548 
  "/>
<polyline clip-path="url(#clip002)" style="stroke:#000000; stroke-width:2; stroke-opacity:0.1; fill:none" points="
  212.413,793.077 2352.76,793.077 
  "/>
<polyline clip-path="url(#clip002)" style="stroke:#000000; stroke-width:2; stroke-opacity:0.1; fill:none" points="
  212.413,592.605 2352.76,592.605 
  "/>
<polyline clip-path="url(#clip002)" style="stroke:#000000; stroke-width:2; stroke-opacity:0.1; fill:none" points="
  212.413,392.134 2352.76,392.134 
  "/>
<polyline clip-path="url(#clip002)" style="stroke:#000000; stroke-width:2; stroke-opacity:0.1; fill:none" points="
  212.413,191.663 2352.76,191.663 
  "/>
<polyline clip-path="url(#clip000)" style="stroke:#000000; stroke-width:4; stroke-opacity:1; fill:none" points="
  212.413,1410.9 212.413,47.2441 
  "/>
<polyline clip-path="url(#clip000)" style="stroke:#000000; stroke-width:4; stroke-opacity:1; fill:none" points="
  212.413,1394.49 238.097,1394.49 
  "/>
<polyline clip-path="url(#clip000)" style="stroke:#000000; stroke-width:4; stroke-opacity:1; fill:none" points="
  212.413,1194.02 238.097,1194.02 
  "/>
<polyline clip-path="url(#clip000)" style="stroke:#000000; stroke-width:4; stroke-opacity:1; fill:none" points="
  212.413,993.548 238.097,993.548 
  "/>
<polyline clip-path="url(#clip000)" style="stroke:#000000; stroke-width:4; stroke-opacity:1; fill:none" points="
  212.413,793.077 238.097,793.077 
  "/>
<polyline clip-path="url(#clip000)" style="stroke:#000000; stroke-width:4; stroke-opacity:1; fill:none" points="
  212.413,592.605 238.097,592.605 
  "/>
<polyline clip-path="url(#clip000)" style="stroke:#000000; stroke-width:4; stroke-opacity:1; fill:none" points="
  212.413,392.134 238.097,392.134 
  "/>
<polyline clip-path="url(#clip000)" style="stroke:#000000; stroke-width:4; stroke-opacity:1; fill:none" points="
  212.413,191.663 238.097,191.663 
  "/>
<path clip-path="url(#clip000)" d="M 0 0 M124.121 1407.84 L140.441 1407.84 L140.441 1411.77 L118.496 1411.77 L118.496 1407.84 Q121.158 1405.08 125.742 1400.45 Q130.348 1395.8 131.529 1394.46 Q133.774 1391.93 134.654 1390.2 Q135.556 1388.44 135.556 1386.75 Q135.556 1383.99 133.612 1382.26 Q131.691 1380.52 128.589 1380.52 Q126.39 1380.52 123.936 1381.28 Q121.505 1382.05 118.728 1383.6 L118.728 1378.88 Q121.552 1377.74 124.005 1377.16 Q126.459 1376.59 128.496 1376.59 Q133.867 1376.59 137.061 1379.27 Q140.255 1381.96 140.255 1386.45 Q140.255 1388.58 139.445 1390.5 Q138.658 1392.4 136.552 1394.99 Q135.973 1395.66 132.871 1398.88 Q129.769 1402.07 124.121 1407.84 Z" fill="#000000" fill-rule="evenodd" fill-opacity="1" /><path clip-path="url(#clip000)" d="M 0 0 M145.51 1405.89 L150.394 1405.89 L150.394 1411.77 L145.51 1411.77 L145.51 1405.89 Z" fill="#000000" fill-rule="evenodd" fill-opacity="1" /><path clip-path="url(#clip000)" d="M 0 0 M155.51 1377.21 L173.866 1377.21 L173.866 1381.15 L159.792 1381.15 L159.792 1389.62 Q160.811 1389.27 161.829 1389.11 Q162.848 1388.92 163.866 1388.92 Q169.653 1388.92 173.033 1392.09 Q176.413 1395.27 176.413 1400.68 Q176.413 1406.26 172.94 1409.36 Q169.468 1412.44 163.149 1412.44 Q160.973 1412.44 158.704 1412.07 Q156.459 1411.7 154.052 1410.96 L154.052 1406.26 Q156.135 1407.4 158.357 1407.95 Q160.579 1408.51 163.056 1408.51 Q167.061 1408.51 169.399 1406.4 Q171.737 1404.29 171.737 1400.68 Q171.737 1397.07 169.399 1394.96 Q167.061 1392.86 163.056 1392.86 Q161.181 1392.86 159.306 1393.28 Q157.454 1393.69 155.51 1394.57 L155.51 1377.21 Z" fill="#000000" fill-rule="evenodd" fill-opacity="1" /><path clip-path="url(#clip000)" d="M 0 0 M132.316 1192.66 Q135.672 1193.38 137.547 1195.65 Q139.445 1197.92 139.445 1201.25 Q139.445 1206.37 135.927 1209.17 Q132.408 1211.97 125.927 1211.97 Q123.751 1211.97 121.436 1211.53 Q119.144 1211.11 116.691 1210.26 L116.691 1205.74 Q118.635 1206.88 120.95 1207.46 Q123.265 1208.04 125.788 1208.04 Q130.186 1208.04 132.478 1206.3 Q134.792 1204.56 134.792 1201.25 Q134.792 1198.2 132.64 1196.48 Q130.51 1194.75 126.691 1194.75 L122.663 1194.75 L122.663 1190.91 L126.876 1190.91 Q130.325 1190.91 132.154 1189.54 Q133.982 1188.15 133.982 1185.56 Q133.982 1182.9 132.084 1181.48 Q130.209 1180.05 126.691 1180.05 Q124.769 1180.05 122.57 1180.47 Q120.371 1180.88 117.732 1181.76 L117.732 1177.6 Q120.394 1176.85 122.709 1176.48 Q125.047 1176.11 127.107 1176.11 Q132.431 1176.11 135.533 1178.54 Q138.635 1180.95 138.635 1185.07 Q138.635 1187.94 136.992 1189.93 Q135.348 1191.9 132.316 1192.66 Z" fill="#000000" fill-rule="evenodd" fill-opacity="1" /><path clip-path="url(#clip000)" d="M 0 0 M144.515 1205.42 L149.399 1205.42 L149.399 1211.3 L144.515 1211.3 L144.515 1205.42 Z" fill="#000000" fill-rule="evenodd" fill-opacity="1" /><path clip-path="url(#clip000)" d="M 0 0 M164.468 1179.82 Q160.857 1179.82 159.028 1183.38 Q157.223 1186.92 157.223 1194.05 Q157.223 1201.16 159.028 1204.73 Q160.857 1208.27 164.468 1208.27 Q168.102 1208.27 169.908 1204.73 Q171.737 1201.16 171.737 1194.05 Q171.737 1186.92 169.908 1183.38 Q168.102 1179.82 164.468 1179.82 M164.468 1176.11 Q170.278 1176.11 173.334 1180.72 Q176.413 1185.3 176.413 1194.05 Q176.413 1202.78 173.334 1207.39 Q170.278 1211.97 164.468 1211.97 Q158.658 1211.97 155.579 1207.39 Q152.524 1202.78 152.524 1194.05 Q152.524 1185.3 155.579 1180.72 Q158.658 1176.11 164.468 1176.11 Z" fill="#000000" fill-rule="evenodd" fill-opacity="1" /><path clip-path="url(#clip000)" d="M 0 0 M133.311 992.194 Q136.667 992.911 138.542 995.18 Q140.441 997.448 140.441 1000.78 Q140.441 1005.9 136.922 1008.7 Q133.404 1011.5 126.922 1011.5 Q124.746 1011.5 122.431 1011.06 Q120.14 1010.64 117.686 1009.79 L117.686 1005.27 Q119.63 1006.41 121.945 1006.99 Q124.26 1007.56 126.783 1007.56 Q131.181 1007.56 133.473 1005.83 Q135.788 1004.09 135.788 1000.78 Q135.788 997.726 133.635 996.013 Q131.505 994.277 127.686 994.277 L123.658 994.277 L123.658 990.434 L127.871 990.434 Q131.32 990.434 133.149 989.069 Q134.978 987.68 134.978 985.087 Q134.978 982.425 133.08 981.013 Q131.205 979.578 127.686 979.578 Q125.765 979.578 123.566 979.995 Q121.367 980.411 118.728 981.291 L118.728 977.124 Q121.39 976.384 123.705 976.013 Q126.043 975.643 128.103 975.643 Q133.427 975.643 136.529 978.073 Q139.63 980.481 139.63 984.601 Q139.63 987.471 137.987 989.462 Q136.343 991.43 133.311 992.194 Z" fill="#000000" fill-rule="evenodd" fill-opacity="1" /><path clip-path="url(#clip000)" d="M 0 0 M145.51 1004.95 L150.394 1004.95 L150.394 1010.83 L145.51 1010.83 L145.51 1004.95 Z" fill="#000000" fill-rule="evenodd" fill-opacity="1" /><path clip-path="url(#clip000)" d="M 0 0 M155.51 976.268 L173.866 976.268 L173.866 980.203 L159.792 980.203 L159.792 988.675 Q160.811 988.328 161.829 988.166 Q162.848 987.981 163.866 987.981 Q169.653 987.981 173.033 991.152 Q176.413 994.323 176.413 999.74 Q176.413 1005.32 172.94 1008.42 Q169.468 1011.5 163.149 1011.5 Q160.973 1011.5 158.704 1011.13 Q156.459 1010.76 154.052 1010.02 L154.052 1005.32 Q156.135 1006.45 158.357 1007.01 Q160.579 1007.56 163.056 1007.56 Q167.061 1007.56 169.399 1005.46 Q171.737 1003.35 171.737 999.74 Q171.737 996.129 169.399 994.022 Q167.061 991.916 163.056 991.916 Q161.181 991.916 159.306 992.333 Q157.454 992.749 155.51 993.629 L155.51 976.268 Z" fill="#000000" fill-rule="evenodd" fill-opacity="1" /><path clip-path="url(#clip000)" d="M 0 0 M129.862 779.871 L118.056 798.32 L129.862 798.32 L129.862 779.871 M128.635 775.797 L134.515 775.797 L134.515 798.32 L139.445 798.32 L139.445 802.208 L134.515 802.208 L134.515 810.357 L129.862 810.357 L129.862 802.208 L114.26 802.208 L114.26 797.695 L128.635 775.797 Z" fill="#000000" fill-rule="evenodd" fill-opacity="1" /><path clip-path="url(#clip000)" d="M 0 0 M144.515 804.477 L149.399 804.477 L149.399 810.357 L144.515 810.357 L144.515 804.477 Z" fill="#000000" fill-rule="evenodd" fill-opacity="1" /><path clip-path="url(#clip000)" d="M 0 0 M164.468 778.875 Q160.857 778.875 159.028 782.44 Q157.223 785.982 157.223 793.111 Q157.223 800.218 159.028 803.783 Q160.857 807.324 164.468 807.324 Q168.102 807.324 169.908 803.783 Q171.737 800.218 171.737 793.111 Q171.737 785.982 169.908 782.44 Q168.102 778.875 164.468 778.875 M164.468 775.172 Q170.278 775.172 173.334 779.778 Q176.413 784.361 176.413 793.111 Q176.413 801.838 173.334 806.445 Q170.278 811.028 164.468 811.028 Q158.658 811.028 155.579 806.445 Q152.524 801.838 152.524 793.111 Q152.524 784.361 155.579 779.778 Q158.658 775.172 164.468 775.172 Z" fill="#000000" fill-rule="evenodd" fill-opacity="1" /><path clip-path="url(#clip000)" d="M 0 0 M130.857 579.399 L119.052 597.848 L130.857 597.848 L130.857 579.399 M129.63 575.325 L135.51 575.325 L135.51 597.848 L140.441 597.848 L140.441 601.737 L135.51 601.737 L135.51 609.885 L130.857 609.885 L130.857 601.737 L115.256 601.737 L115.256 597.223 L129.63 575.325 Z" fill="#000000" fill-rule="evenodd" fill-opacity="1" /><path clip-path="url(#clip000)" d="M 0 0 M145.51 604.006 L150.394 604.006 L150.394 609.885 L145.51 609.885 L145.51 604.006 Z" fill="#000000" fill-rule="evenodd" fill-opacity="1" /><path clip-path="url(#clip000)" d="M 0 0 M155.51 575.325 L173.866 575.325 L173.866 579.26 L159.792 579.26 L159.792 587.733 Q160.811 587.385 161.829 587.223 Q162.848 587.038 163.866 587.038 Q169.653 587.038 173.033 590.209 Q176.413 593.381 176.413 598.797 Q176.413 604.376 172.94 607.478 Q169.468 610.557 163.149 610.557 Q160.973 610.557 158.704 610.186 Q156.459 609.816 154.052 609.075 L154.052 604.376 Q156.135 605.51 158.357 606.066 Q160.579 606.621 163.056 606.621 Q167.061 606.621 169.399 604.515 Q171.737 602.408 171.737 598.797 Q171.737 595.186 169.399 593.08 Q167.061 590.973 163.056 590.973 Q161.181 590.973 159.306 591.39 Q157.454 591.807 155.51 592.686 L155.51 575.325 Z" fill="#000000" fill-rule="evenodd" fill-opacity="1" /><path clip-path="url(#clip000)" d="M 0 0 M118.543 374.854 L136.899 374.854 L136.899 378.789 L122.825 378.789 L122.825 387.261 Q123.843 386.914 124.862 386.752 Q125.88 386.567 126.899 386.567 Q132.686 386.567 136.066 389.738 Q139.445 392.909 139.445 398.326 Q139.445 403.905 135.973 407.007 Q132.501 410.085 126.181 410.085 Q124.005 410.085 121.737 409.715 Q119.492 409.345 117.084 408.604 L117.084 403.905 Q119.168 405.039 121.39 405.595 Q123.612 406.15 126.089 406.15 Q130.093 406.15 132.431 404.044 Q134.769 401.937 134.769 398.326 Q134.769 394.715 132.431 392.609 Q130.093 390.502 126.089 390.502 Q124.214 390.502 122.339 390.919 Q120.487 391.335 118.543 392.215 L118.543 374.854 Z" fill="#000000" fill-rule="evenodd" fill-opacity="1" /><path clip-path="url(#clip000)" d="M 0 0 M144.515 403.534 L149.399 403.534 L149.399 409.414 L144.515 409.414 L144.515 403.534 Z" fill="#000000" fill-rule="evenodd" fill-opacity="1" /><path clip-path="url(#clip000)" d="M 0 0 M164.468 377.933 Q160.857 377.933 159.028 381.498 Q157.223 385.039 157.223 392.169 Q157.223 399.275 159.028 402.84 Q160.857 406.382 164.468 406.382 Q168.102 406.382 169.908 402.84 Q171.737 399.275 171.737 392.169 Q171.737 385.039 169.908 381.498 Q168.102 377.933 164.468 377.933 M164.468 374.229 Q170.278 374.229 173.334 378.835 Q176.413 383.419 176.413 392.169 Q176.413 400.896 173.334 405.502 Q170.278 410.085 164.468 410.085 Q158.658 410.085 155.579 405.502 Q152.524 400.896 152.524 392.169 Q152.524 383.419 155.579 378.835 Q158.658 374.229 164.468 374.229 Z" fill="#000000" fill-rule="evenodd" fill-opacity="1" /><path clip-path="url(#clip000)" d="M 0 0 M119.538 174.383 L137.894 174.383 L137.894 178.318 L123.82 178.318 L123.82 186.79 Q124.839 186.443 125.857 186.281 Q126.876 186.096 127.894 186.096 Q133.681 186.096 137.061 189.267 Q140.441 192.438 140.441 197.855 Q140.441 203.434 136.968 206.535 Q133.496 209.614 127.177 209.614 Q125.001 209.614 122.732 209.244 Q120.487 208.873 118.08 208.133 L118.08 203.434 Q120.163 204.568 122.385 205.123 Q124.607 205.679 127.084 205.679 Q131.089 205.679 133.427 203.572 Q135.765 201.466 135.765 197.855 Q135.765 194.244 133.427 192.137 Q131.089 190.031 127.084 190.031 Q125.209 190.031 123.334 190.447 Q121.482 190.864 119.538 191.744 L119.538 174.383 Z" fill="#000000" fill-rule="evenodd" fill-opacity="1" /><path clip-path="url(#clip000)" d="M 0 0 M145.51 203.063 L150.394 203.063 L150.394 208.943 L145.51 208.943 L145.51 203.063 Z" fill="#000000" fill-rule="evenodd" fill-opacity="1" /><path clip-path="url(#clip000)" d="M 0 0 M155.51 174.383 L173.866 174.383 L173.866 178.318 L159.792 178.318 L159.792 186.79 Q160.811 186.443 161.829 186.281 Q162.848 186.096 163.866 186.096 Q169.653 186.096 173.033 189.267 Q176.413 192.438 176.413 197.855 Q176.413 203.434 172.94 206.535 Q169.468 209.614 163.149 209.614 Q160.973 209.614 158.704 209.244 Q156.459 208.873 154.052 208.133 L154.052 203.434 Q156.135 204.568 158.357 205.123 Q160.579 205.679 163.056 205.679 Q167.061 205.679 169.399 203.572 Q171.737 201.466 171.737 197.855 Q171.737 194.244 169.399 192.137 Q167.061 190.031 163.056 190.031 Q161.181 190.031 159.306 190.447 Q157.454 190.864 155.51 191.744 L155.51 174.383 Z" fill="#000000" fill-rule="evenodd" fill-opacity="1" /><path clip-path="url(#clip000)" d="M 0 0 M59.1993 815.533 Q55.2526 813.336 53.3747 810.281 Q51.4968 807.225 51.4968 803.088 Q51.4968 797.518 55.4117 794.494 Q59.2948 791.47 66.4881 791.47 L88.0042 791.47 L88.0042 797.358 L66.679 797.358 Q61.5546 797.358 59.072 799.173 Q56.5894 800.987 56.5894 804.711 Q56.5894 809.262 59.6131 811.904 Q62.6368 814.546 67.8567 814.546 L88.0042 814.546 L88.0042 820.434 L66.679 820.434 Q61.5228 820.434 59.072 822.248 Q56.5894 824.063 56.5894 827.85 Q56.5894 832.338 59.6449 834.98 Q62.6686 837.622 67.8567 837.622 L88.0042 837.622 L88.0042 843.51 L52.3562 843.51 L52.3562 837.622 L57.8944 837.622 Q54.616 835.616 53.0564 832.815 Q51.4968 830.015 51.4968 826.163 Q51.4968 822.28 53.4702 819.575 Q55.4436 816.838 59.1993 815.533 Z" fill="#000000" fill-rule="evenodd" fill-opacity="1" /><path clip-path="url(#clip000)" d="M 0 0 M52.3562 785.327 L52.3562 779.471 L88.0042 779.471 L88.0042 785.327 L52.3562 785.327 M38.479 785.327 L38.479 779.471 L45.895 779.471 L45.895 785.327 L38.479 785.327 Z" fill="#000000" fill-rule="evenodd" fill-opacity="1" /><path clip-path="url(#clip000)" d="M 0 0 M66.4881 743.696 L88.0042 743.696 L88.0042 749.552 L66.679 749.552 Q61.6183 749.552 59.1038 751.525 Q56.5894 753.499 56.5894 757.446 Q56.5894 762.188 59.6131 764.925 Q62.6368 767.662 67.8567 767.662 L88.0042 767.662 L88.0042 773.551 L52.3562 773.551 L52.3562 767.662 L57.8944 767.662 Q54.6797 765.562 53.0883 762.729 Q51.4968 759.864 51.4968 756.141 Q51.4968 749.998 55.3163 746.847 Q59.1038 743.696 66.4881 743.696 Z" fill="#000000" fill-rule="evenodd" fill-opacity="1" /><path clip-path="url(#clip000)" d="M 0 0 M98.8259 710.467 L103.377 710.467 L103.377 744.332 L98.8259 744.332 L98.8259 710.467 Z" fill="#000000" fill-rule="evenodd" fill-opacity="1" /><path clip-path="url(#clip000)" d="M 0 0 M57.7671 680.866 L38.479 680.866 L38.479 675.01 L88.0042 675.01 L88.0042 680.866 L82.657 680.866 Q85.8398 682.712 87.3994 685.545 Q88.9272 688.346 88.9272 692.292 Q88.9272 698.754 83.771 702.828 Q78.6147 706.87 70.212 706.87 Q61.8093 706.87 56.6531 702.828 Q51.4968 698.754 51.4968 692.292 Q51.4968 688.346 53.0564 685.545 Q54.5842 682.712 57.7671 680.866 M70.212 700.823 Q76.6732 700.823 80.3653 698.181 Q84.0256 695.507 84.0256 690.86 Q84.0256 686.213 80.3653 683.54 Q76.6732 680.866 70.212 680.866 Q63.7508 680.866 60.0905 683.54 Q56.3984 686.213 56.3984 690.86 Q56.3984 695.507 60.0905 698.181 Q63.7508 700.823 70.212 700.823 Z" fill="#000000" fill-rule="evenodd" fill-opacity="1" /><path clip-path="url(#clip000)" d="M 0 0 M52.3562 668.867 L52.3562 663.01 L88.0042 663.01 L88.0042 668.867 L52.3562 668.867 M38.479 668.867 L38.479 663.01 L45.895 663.01 L45.895 668.867 L38.479 668.867 Z" fill="#000000" fill-rule="evenodd" fill-opacity="1" /><path clip-path="url(#clip000)" d="M 0 0 M38.479 638.821 L43.3487 638.821 L43.3487 644.422 Q43.3487 647.573 44.6219 648.815 Q45.895 650.024 49.2052 650.024 L52.3562 650.024 L52.3562 640.38 L56.9077 640.38 L56.9077 650.024 L88.0042 650.024 L88.0042 655.912 L56.9077 655.912 L56.9077 661.514 L52.3562 661.514 L52.3562 655.912 L49.8736 655.912 Q43.9216 655.912 41.2162 653.143 Q38.479 650.374 38.479 644.359 L38.479 638.821 Z" fill="#000000" fill-rule="evenodd" fill-opacity="1" /><path clip-path="url(#clip000)" d="M 0 0 M38.479 614.631 L43.3487 614.631 L43.3487 620.233 Q43.3487 623.384 44.6219 624.625 Q45.895 625.835 49.2052 625.835 L52.3562 625.835 L52.3562 616.19 L56.9077 616.19 L56.9077 625.835 L88.0042 625.835 L88.0042 631.723 L56.9077 631.723 L56.9077 637.325 L52.3562 637.325 L52.3562 631.723 L49.8736 631.723 Q43.9216 631.723 41.2162 628.954 Q38.479 626.185 38.479 620.169 L38.479 614.631 Z" fill="#000000" fill-rule="evenodd" fill-opacity="1" /><polyline clip-path="url(#clip002)" style="stroke:#009af9; stroke-width:20; stroke-opacity:1; fill:none" stroke-dasharray="80, 50" points="
  272.988,85.838 777.786,766.236 1282.58,746.131 1787.38,1209.06 2292.18,1372.3 
  "/>
<path clip-path="url(#clip000)" d="
M1992.58 213.659 L2281.41 213.659 L2281.41 92.6992 L1992.58 92.6992  Z
  " fill="#ffffff" fill-rule="evenodd" fill-opacity="1"/>
<polyline clip-path="url(#clip000)" style="stroke:#000000; stroke-width:4; stroke-opacity:1; fill:none" points="
  1992.58,213.659 2281.41,213.659 2281.41,92.6992 1992.58,92.6992 1992.58,213.659 
  "/>
<polyline clip-path="url(#clip000)" style="stroke:#009af9; stroke-width:4; stroke-opacity:1; fill:none" stroke-dasharray="16, 10" points="
  2016.36,153.179 2159.05,153.179 
  "/>
<path clip-path="url(#clip000)" d="M 0 0 M2196.67 172.867 Q2194.87 177.496 2193.15 178.908 Q2191.44 180.32 2188.57 180.32 L2185.17 180.32 L2185.17 176.755 L2187.67 176.755 Q2189.43 176.755 2190.4 175.922 Q2191.37 175.089 2192.55 171.987 L2193.32 170.043 L2182.83 144.533 L2187.34 144.533 L2195.45 164.811 L2203.55 144.533 L2208.06 144.533 L2196.67 172.867 Z" fill="#000000" fill-rule="evenodd" fill-opacity="1" /><path clip-path="url(#clip000)" d="M 0 0 M2213.94 166.524 L2221.58 166.524 L2221.58 140.158 L2213.27 141.825 L2213.27 137.566 L2221.53 135.899 L2226.21 135.899 L2226.21 166.524 L2233.85 166.524 L2233.85 170.459 L2213.94 170.459 L2213.94 166.524 Z" fill="#000000" fill-rule="evenodd" fill-opacity="1" /></svg>
