<?xml version="1.0" encoding="utf-8"?>
<svg xmlns="http://www.w3.org/2000/svg" xmlns:xlink="http://www.w3.org/1999/xlink" width="600" height="400" viewBox="0 0 2400 1600">
<defs>
  <clipPath id="clip120">
    <rect x="0" y="0" width="2400" height="1600"/>
  </clipPath>
</defs>
<path clip-path="url(#clip120)" d="
M0 1600 L2400 1600 L2400 0 L0 0  Z
  " fill="#ffffff" fill-rule="evenodd" fill-opacity="1"/>
<defs>
  <clipPath id="clip121">
    <rect x="480" y="0" width="1681" height="1600"/>
  </clipPath>
</defs>
<path clip-path="url(#clip120)" d="
M209.982 1410.9 L2352.76 1410.9 L2352.76 47.2441 L209.982 47.2441  Z
  " fill="#ffffff" fill-rule="evenodd" fill-opacity="1"/>
<defs>
  <clipPath id="clip122">
    <rect x="209" y="47" width="2144" height="1365"/>
  </clipPath>
</defs>
<polyline clip-path="url(#clip122)" style="stroke:#000000; stroke-width:2; stroke-opacity:0.1; fill:none" points="
  270.627,1410.9 270.627,47.2441 
  "/>
<polyline clip-path="url(#clip122)" style="stroke:#000000; stroke-width:2; stroke-opacity:0.1; fill:none" points="
  775.998,1410.9 775.998,47.2441 
  "/>
<polyline clip-path="url(#clip122)" style="stroke:#000000; stroke-width:2; stroke-opacity:0.1; fill:none" points="
  1281.37,1410.9 1281.37,47.2441 
  "/>
<polyline clip-path="url(#clip122)" style="stroke:#000000; stroke-width:2; stroke-opacity:0.1; fill:none" points="
  1786.74,1410.9 1786.74,47.2441 
  "/>
<polyline clip-path="url(#clip122)" style="stroke:#000000; stroke-width:2; stroke-opacity:0.1; fill:none" points="
  2292.11,1410.9 2292.11,47.2441 
  "/>
<polyline clip-path="url(#clip120)" style="stroke:#000000; stroke-width:4; stroke-opacity:1; fill:none" points="
  209.982,1410.9 2352.76,1410.9 
  "/>
<polyline clip-path="url(#clip120)" style="stroke:#000000; stroke-width:4; stroke-opacity:1; fill:none" points="
  270.627,1410.9 270.627,1394.53 
  "/>
<polyline clip-path="url(#clip120)" style="stroke:#000000; stroke-width:4; stroke-opacity:1; fill:none" points="
  775.998,1410.9 775.998,1394.53 
  "/>
<polyline clip-path="url(#clip120)" style="stroke:#000000; stroke-width:4; stroke-opacity:1; fill:none" points="
  1281.37,1410.9 1281.37,1394.53 
  "/>
<polyline clip-path="url(#clip120)" style="stroke:#000000; stroke-width:4; stroke-opacity:1; fill:none" points="
  1786.74,1410.9 1786.74,1394.53 
  "/>
<polyline clip-path="url(#clip120)" style="stroke:#000000; stroke-width:4; stroke-opacity:1; fill:none" points="
  2292.11,1410.9 2292.11,1394.53 
  "/>
<path clip-path="url(#clip120)" d="M 0 0 M209.256 1489.17 L216.895 1489.17 L216.895 1462.8 L208.585 1464.47 L208.585 1460.21 L216.849 1458.54 L221.525 1458.54 L221.525 1489.17 L229.163 1489.17 L229.163 1493.1 L209.256 1493.1 L209.256 1489.17 Z" fill="#000000" fill-rule="evenodd" fill-opacity="1" /><path clip-path="url(#clip120)" d="M 0 0 M244.233 1461.62 Q240.622 1461.62 238.793 1465.19 Q236.987 1468.73 236.987 1475.86 Q236.987 1482.97 238.793 1486.53 Q240.622 1490.07 244.233 1490.07 Q247.867 1490.07 249.673 1486.53 Q251.501 1482.97 251.501 1475.86 Q251.501 1468.73 249.673 1465.19 Q247.867 1461.62 244.233 1461.62 M244.233 1457.92 Q250.043 1457.92 253.098 1462.53 Q256.177 1467.11 256.177 1475.86 Q256.177 1484.59 253.098 1489.19 Q250.043 1493.78 244.233 1493.78 Q238.423 1493.78 235.344 1489.19 Q232.288 1484.59 232.288 1475.86 Q232.288 1467.11 235.344 1462.53 Q238.423 1457.92 244.233 1457.92 Z" fill="#000000" fill-rule="evenodd" fill-opacity="1" /><path clip-path="url(#clip120)" d="M 0 0 M256.177 1452.02 L280.289 1452.02 L280.289 1455.22 L256.177 1455.22 L256.177 1452.02 Z" fill="#000000" fill-rule="evenodd" fill-opacity="1" /><path clip-path="url(#clip120)" d="M 0 0 M294.846 1440.92 L285.254 1455.91 L294.846 1455.91 L294.846 1440.92 M293.849 1437.61 L298.626 1437.61 L298.626 1455.91 L302.632 1455.91 L302.632 1459.07 L298.626 1459.07 L298.626 1465.69 L294.846 1465.69 L294.846 1459.07 L282.17 1459.07 L282.17 1455.41 L293.849 1437.61 Z" fill="#000000" fill-rule="evenodd" fill-opacity="1" /><path clip-path="url(#clip120)" d="M 0 0 M306.751 1460.92 L310.72 1460.92 L310.72 1465.69 L306.751 1465.69 L306.751 1460.92 Z" fill="#000000" fill-rule="evenodd" fill-opacity="1" /><path clip-path="url(#clip120)" d="M 0 0 M322.964 1440.11 Q320.03 1440.11 318.544 1443.01 Q317.077 1445.89 317.077 1451.68 Q317.077 1457.46 318.544 1460.35 Q320.03 1463.23 322.964 1463.23 Q325.916 1463.23 327.383 1460.35 Q328.869 1457.46 328.869 1451.68 Q328.869 1445.89 327.383 1443.01 Q325.916 1440.11 322.964 1440.11 M322.964 1437.11 Q327.684 1437.11 330.167 1440.85 Q332.668 1444.57 332.668 1451.68 Q332.668 1458.77 330.167 1462.51 Q327.684 1466.24 322.964 1466.24 Q318.243 1466.24 315.741 1462.51 Q313.259 1458.77 313.259 1451.68 Q313.259 1444.57 315.741 1440.85 Q318.243 1437.11 322.964 1437.11 Z" fill="#000000" fill-rule="evenodd" fill-opacity="1" /><path clip-path="url(#clip120)" d="M 0 0 M715.492 1489.17 L723.131 1489.17 L723.131 1462.8 L714.821 1464.47 L714.821 1460.21 L723.085 1458.54 L727.761 1458.54 L727.761 1489.17 L735.4 1489.17 L735.4 1493.1 L715.492 1493.1 L715.492 1489.17 Z" fill="#000000" fill-rule="evenodd" fill-opacity="1" /><path clip-path="url(#clip120)" d="M 0 0 M750.469 1461.62 Q746.858 1461.62 745.029 1465.19 Q743.224 1468.73 743.224 1475.86 Q743.224 1482.97 745.029 1486.53 Q746.858 1490.07 750.469 1490.07 Q754.103 1490.07 755.909 1486.53 Q757.738 1482.97 757.738 1475.86 Q757.738 1468.73 755.909 1465.19 Q754.103 1461.62 750.469 1461.62 M750.469 1457.92 Q756.279 1457.92 759.335 1462.53 Q762.414 1467.11 762.414 1475.86 Q762.414 1484.59 759.335 1489.19 Q756.279 1493.78 750.469 1493.78 Q744.659 1493.78 741.58 1489.19 Q738.525 1484.59 738.525 1475.86 Q738.525 1467.11 741.58 1462.53 Q744.659 1457.92 750.469 1457.92 Z" fill="#000000" fill-rule="evenodd" fill-opacity="1" /><path clip-path="url(#clip120)" d="M 0 0 M762.414 1452.02 L786.525 1452.02 L786.525 1455.22 L762.414 1455.22 L762.414 1452.02 Z" fill="#000000" fill-rule="evenodd" fill-opacity="1" /><path clip-path="url(#clip120)" d="M 0 0 M802.154 1450.55 Q804.881 1451.14 806.405 1452.98 Q807.947 1454.82 807.947 1457.53 Q807.947 1461.69 805.088 1463.96 Q802.23 1466.24 796.963 1466.24 Q795.195 1466.24 793.315 1465.88 Q791.453 1465.54 789.459 1464.85 L789.459 1461.18 Q791.039 1462.1 792.92 1462.57 Q794.8 1463.04 796.851 1463.04 Q800.424 1463.04 802.286 1461.63 Q804.167 1460.22 804.167 1457.53 Q804.167 1455.05 802.418 1453.66 Q800.687 1452.25 797.584 1452.25 L794.311 1452.25 L794.311 1449.12 L797.735 1449.12 Q800.537 1449.12 802.023 1448.01 Q803.508 1446.89 803.508 1444.78 Q803.508 1442.62 801.966 1441.47 Q800.443 1440.3 797.584 1440.3 Q796.023 1440.3 794.236 1440.64 Q792.45 1440.98 790.305 1441.69 L790.305 1438.31 Q792.468 1437.71 794.349 1437.41 Q796.249 1437.11 797.923 1437.11 Q802.248 1437.11 804.769 1439.08 Q807.289 1441.04 807.289 1444.38 Q807.289 1446.72 805.954 1448.33 Q804.618 1449.93 802.154 1450.55 Z" fill="#000000" fill-rule="evenodd" fill-opacity="1" /><path clip-path="url(#clip120)" d="M 0 0 M812.066 1460.92 L816.034 1460.92 L816.034 1465.69 L812.066 1465.69 L812.066 1460.92 Z" fill="#000000" fill-rule="evenodd" fill-opacity="1" /><path clip-path="url(#clip120)" d="M 0 0 M820.191 1437.61 L835.106 1437.61 L835.106 1440.81 L823.67 1440.81 L823.67 1447.69 Q824.498 1447.41 825.326 1447.28 Q826.153 1447.13 826.981 1447.13 Q831.683 1447.13 834.428 1449.71 Q837.174 1452.28 837.174 1456.68 Q837.174 1461.22 834.353 1463.74 Q831.532 1466.24 826.398 1466.24 Q824.63 1466.24 822.786 1465.94 Q820.962 1465.64 819.006 1465.04 L819.006 1461.22 Q820.699 1462.14 822.504 1462.59 Q824.31 1463.04 826.322 1463.04 Q829.576 1463.04 831.476 1461.33 Q833.375 1459.62 833.375 1456.68 Q833.375 1453.75 831.476 1452.04 Q829.576 1450.33 826.322 1450.33 Q824.799 1450.33 823.275 1450.67 Q821.771 1451 820.191 1451.72 L820.191 1437.61 Z" fill="#000000" fill-rule="evenodd" fill-opacity="1" /><path clip-path="url(#clip120)" d="M 0 0 M1220.46 1489.17 L1228.1 1489.17 L1228.1 1462.8 L1219.79 1464.47 L1219.79 1460.21 L1228.05 1458.54 L1232.73 1458.54 L1232.73 1489.17 L1240.37 1489.17 L1240.37 1493.1 L1220.46 1493.1 L1220.46 1489.17 Z" fill="#000000" fill-rule="evenodd" fill-opacity="1" /><path clip-path="url(#clip120)" d="M 0 0 M1255.44 1461.62 Q1251.82 1461.62 1250 1465.19 Q1248.19 1468.73 1248.19 1475.86 Q1248.19 1482.97 1250 1486.53 Q1251.82 1490.07 1255.44 1490.07 Q1259.07 1490.07 1260.88 1486.53 Q1262.7 1482.97 1262.7 1475.86 Q1262.7 1468.73 1260.88 1465.19 Q1259.07 1461.62 1255.44 1461.62 M1255.44 1457.92 Q1261.25 1457.92 1264.3 1462.53 Q1267.38 1467.11 1267.38 1475.86 Q1267.38 1484.59 1264.3 1489.19 Q1261.25 1493.78 1255.44 1493.78 Q1249.63 1493.78 1246.55 1489.19 Q1243.49 1484.59 1243.49 1475.86 Q1243.49 1467.11 1246.55 1462.53 Q1249.63 1457.92 1255.44 1457.92 Z" fill="#000000" fill-rule="evenodd" fill-opacity="1" /><path clip-path="url(#clip120)" d="M 0 0 M1267.38 1452.02 L1291.49 1452.02 L1291.49 1455.22 L1267.38 1455.22 L1267.38 1452.02 Z" fill="#000000" fill-rule="evenodd" fill-opacity="1" /><path clip-path="url(#clip120)" d="M 0 0 M1307.12 1450.55 Q1309.85 1451.14 1311.37 1452.98 Q1312.91 1454.82 1312.91 1457.53 Q1312.91 1461.69 1310.06 1463.96 Q1307.2 1466.24 1301.93 1466.24 Q1300.16 1466.24 1298.28 1465.88 Q1296.42 1465.54 1294.43 1464.85 L1294.43 1461.18 Q1296.01 1462.1 1297.89 1462.57 Q1299.77 1463.04 1301.82 1463.04 Q1305.39 1463.04 1307.25 1461.63 Q1309.13 1460.22 1309.13 1457.53 Q1309.13 1455.05 1307.38 1453.66 Q1305.65 1452.25 1302.55 1452.25 L1299.28 1452.25 L1299.28 1449.12 L1302.7 1449.12 Q1305.5 1449.12 1306.99 1448.01 Q1308.48 1446.89 1308.48 1444.78 Q1308.48 1442.62 1306.93 1441.47 Q1305.41 1440.3 1302.55 1440.3 Q1300.99 1440.3 1299.2 1440.64 Q1297.42 1440.98 1295.27 1441.69 L1295.27 1438.31 Q1297.44 1437.71 1299.32 1437.41 Q1301.22 1437.11 1302.89 1437.11 Q1307.22 1437.11 1309.74 1439.08 Q1312.26 1441.04 1312.26 1444.38 Q1312.26 1446.72 1310.92 1448.33 Q1309.58 1449.93 1307.12 1450.55 Z" fill="#000000" fill-rule="evenodd" fill-opacity="1" /><path clip-path="url(#clip120)" d="M 0 0 M1317.03 1460.92 L1321 1460.92 L1321 1465.69 L1317.03 1465.69 L1317.03 1460.92 Z" fill="#000000" fill-rule="evenodd" fill-opacity="1" /><path clip-path="url(#clip120)" d="M 0 0 M1333.25 1440.11 Q1330.31 1440.11 1328.83 1443.01 Q1327.36 1445.89 1327.36 1451.68 Q1327.36 1457.46 1328.83 1460.35 Q1330.31 1463.23 1333.25 1463.23 Q1336.2 1463.23 1337.66 1460.35 Q1339.15 1457.46 1339.15 1451.68 Q1339.15 1445.89 1337.66 1443.01 Q1336.2 1440.11 1333.25 1440.11 M1333.25 1437.11 Q1337.97 1437.11 1340.45 1440.85 Q1342.95 1444.57 1342.95 1451.68 Q1342.95 1458.77 1340.45 1462.51 Q1337.97 1466.24 1333.25 1466.24 Q1328.52 1466.24 1326.02 1462.51 Q1323.54 1458.77 1323.54 1451.68 Q1323.54 1444.57 1326.02 1440.85 Q1328.52 1437.11 1333.25 1437.11 Z" fill="#000000" fill-rule="evenodd" fill-opacity="1" /><path clip-path="url(#clip120)" d="M 0 0 M1726.62 1489.17 L1734.26 1489.17 L1734.26 1462.8 L1725.95 1464.47 L1725.95 1460.21 L1734.21 1458.54 L1738.89 1458.54 L1738.89 1489.17 L1746.53 1489.17 L1746.53 1493.1 L1726.62 1493.1 L1726.62 1489.17 Z" fill="#000000" fill-rule="evenodd" fill-opacity="1" /><path clip-path="url(#clip120)" d="M 0 0 M1761.6 1461.62 Q1757.99 1461.62 1756.16 1465.19 Q1754.35 1468.73 1754.35 1475.86 Q1754.35 1482.97 1756.16 1486.53 Q1757.99 1490.07 1761.6 1490.07 Q1765.23 1490.07 1767.04 1486.53 Q1768.87 1482.97 1768.87 1475.86 Q1768.87 1468.73 1767.04 1465.19 Q1765.23 1461.62 1761.6 1461.62 M1761.6 1457.92 Q1767.41 1457.92 1770.46 1462.53 Q1773.54 1467.11 1773.54 1475.86 Q1773.54 1484.59 1770.46 1489.19 Q1767.41 1493.78 1761.6 1493.78 Q1755.79 1493.78 1752.71 1489.19 Q1749.65 1484.59 1749.65 1475.86 Q1749.65 1467.11 1752.71 1462.53 Q1755.79 1457.92 1761.6 1457.92 Z" fill="#000000" fill-rule="evenodd" fill-opacity="1" /><path clip-path="url(#clip120)" d="M 0 0 M1773.54 1452.02 L1797.65 1452.02 L1797.65 1455.22 L1773.54 1455.22 L1773.54 1452.02 Z" fill="#000000" fill-rule="evenodd" fill-opacity="1" /><path clip-path="url(#clip120)" d="M 0 0 M1805.04 1462.5 L1818.3 1462.5 L1818.3 1465.69 L1800.47 1465.69 L1800.47 1462.5 Q1802.64 1460.26 1806.36 1456.5 Q1810.1 1452.72 1811.06 1451.63 Q1812.89 1449.58 1813.6 1448.16 Q1814.34 1446.74 1814.34 1445.36 Q1814.34 1443.12 1812.76 1441.71 Q1811.19 1440.3 1808.67 1440.3 Q1806.89 1440.3 1804.89 1440.92 Q1802.92 1441.54 1800.66 1442.8 L1800.66 1438.97 Q1802.96 1438.05 1804.95 1437.58 Q1806.94 1437.11 1808.6 1437.11 Q1812.96 1437.11 1815.56 1439.29 Q1818.15 1441.47 1818.15 1445.12 Q1818.15 1446.85 1817.5 1448.41 Q1816.86 1449.95 1815.14 1452.06 Q1814.67 1452.6 1812.15 1455.22 Q1809.63 1457.81 1805.04 1462.5 Z" fill="#000000" fill-rule="evenodd" fill-opacity="1" /><path clip-path="url(#clip120)" d="M 0 0 M1822.42 1460.92 L1826.39 1460.92 L1826.39 1465.69 L1822.42 1465.69 L1822.42 1460.92 Z" fill="#000000" fill-rule="evenodd" fill-opacity="1" /><path clip-path="url(#clip120)" d="M 0 0 M1830.55 1437.61 L1845.46 1437.61 L1845.46 1440.81 L1834.03 1440.81 L1834.03 1447.69 Q1834.85 1447.41 1835.68 1447.28 Q1836.51 1447.13 1837.34 1447.13 Q1842.04 1447.13 1844.79 1449.71 Q1847.53 1452.28 1847.53 1456.68 Q1847.53 1461.22 1844.71 1463.74 Q1841.89 1466.24 1836.75 1466.24 Q1834.99 1466.24 1833.14 1465.94 Q1831.32 1465.64 1829.36 1465.04 L1829.36 1461.22 Q1831.06 1462.14 1832.86 1462.59 Q1834.67 1463.04 1836.68 1463.04 Q1839.93 1463.04 1841.83 1461.33 Q1843.73 1459.62 1843.73 1456.68 Q1843.73 1453.75 1841.83 1452.04 Q1839.93 1450.33 1836.68 1450.33 Q1835.16 1450.33 1833.63 1450.67 Q1832.13 1451 1830.55 1451.72 L1830.55 1437.61 Z" fill="#000000" fill-rule="evenodd" fill-opacity="1" /><path clip-path="url(#clip120)" d="M 0 0 M2231.59 1489.17 L2239.23 1489.17 L2239.23 1462.8 L2230.92 1464.47 L2230.92 1460.21 L2239.18 1458.54 L2243.86 1458.54 L2243.86 1489.17 L2251.49 1489.17 L2251.49 1493.1 L2231.59 1493.1 L2231.59 1489.17 Z" fill="#000000" fill-rule="evenodd" fill-opacity="1" /><path clip-path="url(#clip120)" d="M 0 0 M2266.56 1461.62 Q2262.95 1461.62 2261.12 1465.19 Q2259.32 1468.73 2259.32 1475.86 Q2259.32 1482.97 2261.12 1486.53 Q2262.95 1490.07 2266.56 1490.07 Q2270.2 1490.07 2272 1486.53 Q2273.83 1482.97 2273.83 1475.86 Q2273.83 1468.73 2272 1465.19 Q2270.2 1461.62 2266.56 1461.62 M2266.56 1457.92 Q2272.37 1457.92 2275.43 1462.53 Q2278.51 1467.11 2278.51 1475.86 Q2278.51 1484.59 2275.43 1489.19 Q2272.37 1493.78 2266.56 1493.78 Q2260.75 1493.78 2257.68 1489.19 Q2254.62 1484.59 2254.62 1475.86 Q2254.62 1467.11 2257.68 1462.53 Q2260.75 1457.92 2266.56 1457.92 Z" fill="#000000" fill-rule="evenodd" fill-opacity="1" /><path clip-path="url(#clip120)" d="M 0 0 M2278.51 1452.02 L2302.62 1452.02 L2302.62 1455.22 L2278.51 1455.22 L2278.51 1452.02 Z" fill="#000000" fill-rule="evenodd" fill-opacity="1" /><path clip-path="url(#clip120)" d="M 0 0 M2310.01 1462.5 L2323.27 1462.5 L2323.27 1465.69 L2305.44 1465.69 L2305.44 1462.5 Q2307.6 1460.26 2311.33 1456.5 Q2315.07 1452.72 2316.03 1451.63 Q2317.85 1449.58 2318.57 1448.16 Q2319.3 1446.74 2319.3 1445.36 Q2319.3 1443.12 2317.72 1441.71 Q2316.16 1440.3 2313.64 1440.3 Q2311.85 1440.3 2309.86 1440.92 Q2307.89 1441.54 2305.63 1442.8 L2305.63 1438.97 Q2307.92 1438.05 2309.92 1437.58 Q2311.91 1437.11 2313.57 1437.11 Q2317.93 1437.11 2320.52 1439.29 Q2323.12 1441.47 2323.12 1445.12 Q2323.12 1446.85 2322.46 1448.41 Q2321.82 1449.95 2320.11 1452.06 Q2319.64 1452.6 2317.12 1455.22 Q2314.6 1457.81 2310.01 1462.5 Z" fill="#000000" fill-rule="evenodd" fill-opacity="1" /><path clip-path="url(#clip120)" d="M 0 0 M2327.39 1460.92 L2331.36 1460.92 L2331.36 1465.69 L2327.39 1465.69 L2327.39 1460.92 Z" fill="#000000" fill-rule="evenodd" fill-opacity="1" /><path clip-path="url(#clip120)" d="M 0 0 M2343.6 1440.11 Q2340.67 1440.11 2339.18 1443.01 Q2337.72 1445.89 2337.72 1451.68 Q2337.72 1457.46 2339.18 1460.35 Q2340.67 1463.23 2343.6 1463.23 Q2346.55 1463.23 2348.02 1460.35 Q2349.51 1457.46 2349.51 1451.68 Q2349.51 1445.89 2348.02 1443.01 Q2346.55 1440.11 2343.6 1440.11 M2343.6 1437.11 Q2348.32 1437.11 2350.81 1440.85 Q2353.31 1444.57 2353.31 1451.68 Q2353.31 1458.77 2350.81 1462.51 Q2348.32 1466.24 2343.6 1466.24 Q2338.88 1466.24 2336.38 1462.51 Q2333.9 1458.77 2333.9 1451.68 Q2333.9 1444.57 2336.38 1440.85 Q2338.88 1437.11 2343.6 1437.11 Z" fill="#000000" fill-rule="evenodd" fill-opacity="1" /><path clip-path="url(#clip120)" d="M 0 0 M1174.14 1526.54 L1180.35 1526.54 L1191.49 1556.46 L1202.63 1526.54 L1208.83 1526.54 L1195.46 1562.19 L1187.51 1562.19 L1174.14 1526.54 Z" fill="#000000" fill-rule="evenodd" fill-opacity="1" /><path clip-path="url(#clip120)" d="M 0 0 M1242.06 1573.01 L1242.06 1577.56 L1208.2 1577.56 L1208.2 1573.01 L1242.06 1573.01 Z" fill="#000000" fill-rule="evenodd" fill-opacity="1" /><path clip-path="url(#clip120)" d="M 0 0 M1262.02 1530.64 Q1257.31 1530.64 1254.57 1534.34 Q1251.83 1538 1251.83 1544.39 Q1251.83 1550.79 1254.54 1554.48 Q1257.27 1558.14 1262.02 1558.14 Q1266.7 1558.14 1269.43 1554.45 Q1272.17 1550.76 1272.17 1544.39 Q1272.17 1538.06 1269.43 1534.37 Q1266.7 1530.64 1262.02 1530.64 M1262.02 1525.68 Q1269.66 1525.68 1274.02 1530.64 Q1278.38 1535.61 1278.38 1544.39 Q1278.38 1553.15 1274.02 1558.14 Q1269.66 1563.11 1262.02 1563.11 Q1254.35 1563.11 1249.99 1558.14 Q1245.66 1553.15 1245.66 1544.39 Q1245.66 1535.61 1249.99 1530.64 Q1254.35 1525.68 1262.02 1525.68 Z" fill="#000000" fill-rule="evenodd" fill-opacity="1" /><path clip-path="url(#clip120)" d="M 0 0 M1290.19 1556.84 L1290.19 1575.74 L1284.3 1575.74 L1284.3 1526.54 L1290.19 1526.54 L1290.19 1531.95 Q1292.03 1528.77 1294.83 1527.24 Q1297.67 1525.68 1301.58 1525.68 Q1308.07 1525.68 1312.12 1530.83 Q1316.19 1535.99 1316.19 1544.39 Q1316.19 1552.8 1312.12 1557.95 Q1308.07 1563.11 1301.58 1563.11 Q1297.67 1563.11 1294.83 1561.58 Q1292.03 1560.02 1290.19 1556.84 M1310.11 1544.39 Q1310.11 1537.93 1307.44 1534.27 Q1304.79 1530.58 1300.15 1530.58 Q1295.5 1530.58 1292.83 1534.27 Q1290.19 1537.93 1290.19 1544.39 Q1290.19 1550.85 1292.83 1554.55 Q1295.5 1558.21 1300.15 1558.21 Q1304.79 1558.21 1307.44 1554.55 Q1310.11 1550.85 1310.11 1544.39 Z" fill="#000000" fill-rule="evenodd" fill-opacity="1" /><path clip-path="url(#clip120)" d="M 0 0 M1352.82 1542.9 L1352.82 1545.76 L1325.9 1545.76 Q1326.28 1551.81 1329.53 1554.99 Q1332.8 1558.14 1338.63 1558.14 Q1342 1558.14 1345.15 1557.32 Q1348.34 1556.49 1351.46 1554.83 L1351.46 1560.37 Q1348.3 1561.71 1344.99 1562.41 Q1341.68 1563.11 1338.28 1563.11 Q1329.75 1563.11 1324.75 1558.14 Q1319.79 1553.18 1319.79 1544.71 Q1319.79 1535.96 1324.5 1530.83 Q1329.24 1525.68 1337.26 1525.68 Q1344.45 1525.68 1348.62 1530.33 Q1352.82 1534.94 1352.82 1542.9 M1346.97 1541.18 Q1346.9 1536.37 1344.26 1533.51 Q1341.65 1530.64 1337.32 1530.64 Q1332.42 1530.64 1329.46 1533.41 Q1326.53 1536.18 1326.09 1541.21 L1346.97 1541.18 Z" fill="#000000" fill-rule="evenodd" fill-opacity="1" /><path clip-path="url(#clip120)" d="M 0 0 M1388.6 1540.67 L1388.6 1562.19 L1382.74 1562.19 L1382.74 1540.86 Q1382.74 1535.8 1380.77 1533.29 Q1378.8 1530.77 1374.85 1530.77 Q1370.11 1530.77 1367.37 1533.79 Q1364.63 1536.82 1364.63 1542.04 L1364.63 1562.19 L1358.74 1562.19 L1358.74 1526.54 L1364.63 1526.54 L1364.63 1532.08 Q1366.73 1528.86 1369.57 1527.27 Q1372.43 1525.68 1376.15 1525.68 Q1382.3 1525.68 1385.45 1529.5 Q1388.6 1533.29 1388.6 1540.67 Z" fill="#000000" fill-rule="evenodd" fill-opacity="1" /><polyline clip-path="url(#clip122)" style="stroke:#000000; stroke-width:2; stroke-opacity:0.1; fill:none" points="
  209.982,1202.78 2352.76,1202.78 
  "/>
<polyline clip-path="url(#clip122)" style="stroke:#000000; stroke-width:2; stroke-opacity:0.1; fill:none" points="
  209.982,970.272 2352.76,970.272 
  "/>
<polyline clip-path="url(#clip122)" style="stroke:#000000; stroke-width:2; stroke-opacity:0.1; fill:none" points="
  209.982,737.768 2352.76,737.768 
  "/>
<polyline clip-path="url(#clip122)" style="stroke:#000000; stroke-width:2; stroke-opacity:0.1; fill:none" points="
  209.982,505.264 2352.76,505.264 
  "/>
<polyline clip-path="url(#clip122)" style="stroke:#000000; stroke-width:2; stroke-opacity:0.1; fill:none" points="
  209.982,272.76 2352.76,272.76 
  "/>
<polyline clip-path="url(#clip120)" style="stroke:#000000; stroke-width:4; stroke-opacity:1; fill:none" points="
  209.982,1410.9 209.982,47.2441 
  "/>
<polyline clip-path="url(#clip120)" style="stroke:#000000; stroke-width:4; stroke-opacity:1; fill:none" points="
  209.982,1202.78 235.695,1202.78 
  "/>
<polyline clip-path="url(#clip120)" style="stroke:#000000; stroke-width:4; stroke-opacity:1; fill:none" points="
  209.982,970.272 235.695,970.272 
  "/>
<polyline clip-path="url(#clip120)" style="stroke:#000000; stroke-width:4; stroke-opacity:1; fill:none" points="
  209.982,737.768 235.695,737.768 
  "/>
<polyline clip-path="url(#clip120)" style="stroke:#000000; stroke-width:4; stroke-opacity:1; fill:none" points="
  209.982,505.264 235.695,505.264 
  "/>
<polyline clip-path="url(#clip120)" style="stroke:#000000; stroke-width:4; stroke-opacity:1; fill:none" points="
  209.982,272.76 235.695,272.76 
  "/>
<path clip-path="url(#clip120)" d="M 0 0 M120.88 1216.12 L137.2 1216.12 L137.2 1220.06 L115.256 1220.06 L115.256 1216.12 Q117.918 1213.37 122.501 1208.74 Q127.107 1204.08 128.288 1202.74 Q130.533 1200.22 131.413 1198.48 Q132.316 1196.72 132.316 1195.03 Q132.316 1192.28 130.371 1190.54 Q128.45 1188.81 125.348 1188.81 Q123.149 1188.81 120.695 1189.57 Q118.265 1190.33 115.487 1191.89 L115.487 1187.16 Q118.311 1186.03 120.765 1185.45 Q123.218 1184.87 125.255 1184.87 Q130.626 1184.87 133.82 1187.56 Q137.015 1190.24 137.015 1194.73 Q137.015 1196.86 136.204 1198.78 Q135.417 1200.68 133.311 1203.27 Q132.732 1203.95 129.63 1207.16 Q126.529 1210.36 120.88 1216.12 Z" fill="#000000" fill-rule="evenodd" fill-opacity="1" /><path clip-path="url(#clip120)" d="M 0 0 M142.269 1214.18 L147.153 1214.18 L147.153 1220.06 L142.269 1220.06 L142.269 1214.18 Z" fill="#000000" fill-rule="evenodd" fill-opacity="1" /><path clip-path="url(#clip120)" d="M 0 0 M152.362 1219.34 L152.362 1215.08 Q154.121 1215.91 155.927 1216.35 Q157.732 1216.79 159.468 1216.79 Q164.098 1216.79 166.528 1213.69 Q168.982 1210.57 169.329 1204.22 Q167.987 1206.21 165.927 1207.28 Q163.866 1208.34 161.366 1208.34 Q156.181 1208.34 153.149 1205.22 Q150.14 1202.07 150.14 1196.63 Q150.14 1191.31 153.288 1188.09 Q156.436 1184.87 161.667 1184.87 Q167.663 1184.87 170.811 1189.48 Q173.982 1194.06 173.982 1202.81 Q173.982 1210.98 170.093 1215.87 Q166.227 1220.73 159.677 1220.73 Q157.917 1220.73 156.112 1220.38 Q154.306 1220.03 152.362 1219.34 M161.667 1204.69 Q164.815 1204.69 166.644 1202.53 Q168.496 1200.38 168.496 1196.63 Q168.496 1192.9 166.644 1190.75 Q164.815 1188.58 161.667 1188.58 Q158.519 1188.58 156.667 1190.75 Q154.839 1192.9 154.839 1196.63 Q154.839 1200.38 156.667 1202.53 Q158.519 1204.69 161.667 1204.69 Z" fill="#000000" fill-rule="evenodd" fill-opacity="1" /><path clip-path="url(#clip120)" d="M 0 0 M129.885 968.918 Q133.242 969.636 135.117 971.904 Q137.015 974.173 137.015 977.506 Q137.015 982.622 133.496 985.423 Q129.978 988.224 123.496 988.224 Q121.32 988.224 119.006 987.784 Q116.714 987.367 114.26 986.511 L114.26 981.997 Q116.205 983.131 118.519 983.71 Q120.834 984.289 123.357 984.289 Q127.755 984.289 130.047 982.552 Q132.362 980.816 132.362 977.506 Q132.362 974.451 130.209 972.738 Q128.08 971.002 124.26 971.002 L120.232 971.002 L120.232 967.159 L124.445 967.159 Q127.894 967.159 129.723 965.793 Q131.552 964.404 131.552 961.812 Q131.552 959.15 129.654 957.738 Q127.779 956.303 124.26 956.303 Q122.339 956.303 120.14 956.719 Q117.941 957.136 115.302 958.016 L115.302 953.849 Q117.964 953.108 120.279 952.738 Q122.617 952.367 124.677 952.367 Q130.001 952.367 133.103 954.798 Q136.204 957.205 136.204 961.326 Q136.204 964.196 134.561 966.187 Q132.917 968.154 129.885 968.918 Z" fill="#000000" fill-rule="evenodd" fill-opacity="1" /><path clip-path="url(#clip120)" d="M 0 0 M142.084 981.673 L146.968 981.673 L146.968 987.552 L142.084 987.552 L142.084 981.673 Z" fill="#000000" fill-rule="evenodd" fill-opacity="1" /><path clip-path="url(#clip120)" d="M 0 0 M162.038 956.071 Q158.427 956.071 156.598 959.636 Q154.792 963.178 154.792 970.307 Q154.792 977.414 156.598 980.978 Q158.427 984.52 162.038 984.52 Q165.672 984.52 167.477 980.978 Q169.306 977.414 169.306 970.307 Q169.306 963.178 167.477 959.636 Q165.672 956.071 162.038 956.071 M162.038 952.367 Q167.848 952.367 170.903 956.974 Q173.982 961.557 173.982 970.307 Q173.982 979.034 170.903 983.64 Q167.848 988.224 162.038 988.224 Q156.228 988.224 153.149 983.64 Q150.093 979.034 150.093 970.307 Q150.093 961.557 153.149 956.974 Q156.228 952.367 162.038 952.367 Z" fill="#000000" fill-rule="evenodd" fill-opacity="1" /><path clip-path="url(#clip120)" d="M 0 0 M131.112 736.414 Q134.468 737.132 136.343 739.4 Q138.242 741.669 138.242 745.002 Q138.242 750.118 134.723 752.919 Q131.205 755.719 124.723 755.719 Q122.547 755.719 120.232 755.28 Q117.941 754.863 115.487 754.007 L115.487 749.493 Q117.431 750.627 119.746 751.206 Q122.061 751.784 124.584 751.784 Q128.982 751.784 131.274 750.048 Q133.589 748.312 133.589 745.002 Q133.589 741.946 131.436 740.233 Q129.306 738.497 125.487 738.497 L121.459 738.497 L121.459 734.655 L125.672 734.655 Q129.121 734.655 130.95 733.289 Q132.779 731.9 132.779 729.308 Q132.779 726.646 130.88 725.234 Q129.005 723.798 125.487 723.798 Q123.566 723.798 121.367 724.215 Q119.168 724.632 116.529 725.511 L116.529 721.345 Q119.191 720.604 121.505 720.234 Q123.843 719.863 125.904 719.863 Q131.228 719.863 134.329 722.294 Q137.431 724.701 137.431 728.821 Q137.431 731.692 135.788 733.683 Q134.144 735.65 131.112 736.414 Z" fill="#000000" fill-rule="evenodd" fill-opacity="1" /><path clip-path="url(#clip120)" d="M 0 0 M143.311 749.169 L148.195 749.169 L148.195 755.048 L143.311 755.048 L143.311 749.169 Z" fill="#000000" fill-rule="evenodd" fill-opacity="1" /><path clip-path="url(#clip120)" d="M 0 0 M154.075 751.113 L161.714 751.113 L161.714 724.747 L153.403 726.414 L153.403 722.155 L161.667 720.488 L166.343 720.488 L166.343 751.113 L173.982 751.113 L173.982 755.048 L154.075 755.048 L154.075 751.113 Z" fill="#000000" fill-rule="evenodd" fill-opacity="1" /><path clip-path="url(#clip120)" d="M 0 0 M131.482 503.91 Q134.839 504.627 136.714 506.896 Q138.612 509.164 138.612 512.498 Q138.612 517.613 135.093 520.414 Q131.575 523.215 125.093 523.215 Q122.918 523.215 120.603 522.775 Q118.311 522.359 115.857 521.502 L115.857 516.988 Q117.802 518.123 120.117 518.701 Q122.431 519.28 124.955 519.28 Q129.353 519.28 131.644 517.544 Q133.959 515.808 133.959 512.498 Q133.959 509.442 131.806 507.729 Q129.677 505.993 125.857 505.993 L121.83 505.993 L121.83 502.151 L126.043 502.151 Q129.492 502.151 131.32 500.785 Q133.149 499.396 133.149 496.803 Q133.149 494.141 131.251 492.729 Q129.376 491.294 125.857 491.294 Q123.936 491.294 121.737 491.711 Q119.538 492.127 116.899 493.007 L116.899 488.84 Q119.561 488.1 121.876 487.729 Q124.214 487.359 126.274 487.359 Q131.598 487.359 134.7 489.789 Q137.802 492.197 137.802 496.317 Q137.802 499.188 136.158 501.178 Q134.515 503.146 131.482 503.91 Z" fill="#000000" fill-rule="evenodd" fill-opacity="1" /><path clip-path="url(#clip120)" d="M 0 0 M143.681 516.664 L148.566 516.664 L148.566 522.544 L143.681 522.544 L143.681 516.664 Z" fill="#000000" fill-rule="evenodd" fill-opacity="1" /><path clip-path="url(#clip120)" d="M 0 0 M157.663 518.609 L173.982 518.609 L173.982 522.544 L152.038 522.544 L152.038 518.609 Q154.7 515.854 159.283 511.225 Q163.89 506.572 165.07 505.229 Q167.315 502.706 168.195 500.97 Q169.098 499.211 169.098 497.521 Q169.098 494.766 167.153 493.03 Q165.232 491.294 162.13 491.294 Q159.931 491.294 157.478 492.058 Q155.047 492.822 152.269 494.373 L152.269 489.651 Q155.093 488.516 157.547 487.938 Q160.001 487.359 162.038 487.359 Q167.408 487.359 170.602 490.044 Q173.797 492.729 173.797 497.22 Q173.797 499.35 172.987 501.271 Q172.2 503.169 170.093 505.762 Q169.514 506.433 166.413 509.65 Q163.311 512.845 157.663 518.609 Z" fill="#000000" fill-rule="evenodd" fill-opacity="1" /><path clip-path="url(#clip120)" d="M 0 0 M130.533 271.406 Q133.89 272.123 135.765 274.392 Q137.663 276.66 137.663 279.993 Q137.663 285.109 134.144 287.91 Q130.626 290.711 124.144 290.711 Q121.968 290.711 119.654 290.271 Q117.362 289.854 114.908 288.998 L114.908 284.484 Q116.853 285.618 119.168 286.197 Q121.482 286.776 124.005 286.776 Q128.404 286.776 130.695 285.04 Q133.01 283.304 133.01 279.993 Q133.01 276.938 130.857 275.225 Q128.728 273.489 124.908 273.489 L120.88 273.489 L120.88 269.646 L125.093 269.646 Q128.542 269.646 130.371 268.281 Q132.2 266.892 132.2 264.299 Q132.2 261.637 130.302 260.225 Q128.427 258.79 124.908 258.79 Q122.987 258.79 120.788 259.207 Q118.589 259.623 115.95 260.503 L115.95 256.336 Q118.612 255.595 120.927 255.225 Q123.265 254.855 125.325 254.855 Q130.649 254.855 133.751 257.285 Q136.853 259.693 136.853 263.813 Q136.853 266.683 135.209 268.674 Q133.566 270.642 130.533 271.406 Z" fill="#000000" fill-rule="evenodd" fill-opacity="1" /><path clip-path="url(#clip120)" d="M 0 0 M142.732 284.16 L147.616 284.16 L147.616 290.04 L142.732 290.04 L142.732 284.16 Z" fill="#000000" fill-rule="evenodd" fill-opacity="1" /><path clip-path="url(#clip120)" d="M 0 0 M166.852 271.406 Q170.209 272.123 172.084 274.392 Q173.982 276.66 173.982 279.993 Q173.982 285.109 170.464 287.91 Q166.945 290.711 160.464 290.711 Q158.288 290.711 155.973 290.271 Q153.681 289.854 151.228 288.998 L151.228 284.484 Q153.172 285.618 155.487 286.197 Q157.802 286.776 160.325 286.776 Q164.723 286.776 167.015 285.04 Q169.329 283.304 169.329 279.993 Q169.329 276.938 167.177 275.225 Q165.047 273.489 161.227 273.489 L157.2 273.489 L157.2 269.646 L161.413 269.646 Q164.862 269.646 166.69 268.281 Q168.519 266.892 168.519 264.299 Q168.519 261.637 166.621 260.225 Q164.746 258.79 161.227 258.79 Q159.306 258.79 157.107 259.207 Q154.908 259.623 152.269 260.503 L152.269 256.336 Q154.931 255.595 157.246 255.225 Q159.584 254.855 161.644 254.855 Q166.968 254.855 170.07 257.285 Q173.172 259.693 173.172 263.813 Q173.172 266.683 171.528 268.674 Q169.885 270.642 166.852 271.406 Z" fill="#000000" fill-rule="evenodd" fill-opacity="1" /><path clip-path="url(#clip120)" d="M 0 0 M59.1993 815.533 Q55.2526 813.336 53.3747 810.281 Q51.4968 807.225 51.4968 803.088 Q51.4968 797.518 55.4117 794.494 Q59.2948 791.47 66.4881 791.47 L88.0042 791.47 L88.0042 797.358 L66.679 797.358 Q61.5546 797.358 59.072 799.173 Q56.5894 800.987 56.5894 804.711 Q56.5894 809.262 59.6131 811.904 Q62.6368 814.546 67.8567 814.546 L88.0042 814.546 L88.0042 820.434 L66.679 820.434 Q61.5228 820.434 59.072 822.248 Q56.5894 824.063 56.5894 827.85 Q56.5894 832.338 59.6449 834.98 Q62.6686 837.622 67.8567 837.622 L88.0042 837.622 L88.0042 843.51 L52.3562 843.51 L52.3562 837.622 L57.8944 837.622 Q54.616 835.616 53.0564 832.815 Q51.4968 830.015 51.4968 826.163 Q51.4968 822.28 53.4702 819.575 Q55.4436 816.838 59.1993 815.533 Z" fill="#000000" fill-rule="evenodd" fill-opacity="1" /><path clip-path="url(#clip120)" d="M 0 0 M52.3562 785.327 L52.3562 779.471 L88.0042 779.471 L88.0042 785.327 L52.3562 785.327 M38.479 785.327 L38.479 779.471 L45.895 779.471 L45.895 785.327 L38.479 785.327 Z" fill="#000000" fill-rule="evenodd" fill-opacity="1" /><path clip-path="url(#clip120)" d="M 0 0 M66.4881 743.696 L88.0042 743.696 L88.0042 749.552 L66.679 749.552 Q61.6183 749.552 59.1038 751.525 Q56.5894 753.499 56.5894 757.446 Q56.5894 762.188 59.6131 764.925 Q62.6368 767.662 67.8567 767.662 L88.0042 767.662 L88.0042 773.551 L52.3562 773.551 L52.3562 767.662 L57.8944 767.662 Q54.6797 765.562 53.0883 762.729 Q51.4968 759.864 51.4968 756.141 Q51.4968 749.998 55.3163 746.847 Q59.1038 743.696 66.4881 743.696 Z" fill="#000000" fill-rule="evenodd" fill-opacity="1" /><path clip-path="url(#clip120)" d="M 0 0 M98.8259 710.467 L103.377 710.467 L103.377 744.332 L98.8259 744.332 L98.8259 710.467 Z" fill="#000000" fill-rule="evenodd" fill-opacity="1" /><path clip-path="url(#clip120)" d="M 0 0 M57.7671 680.866 L38.479 680.866 L38.479 675.01 L88.0042 675.01 L88.0042 680.866 L82.657 680.866 Q85.8398 682.712 87.3994 685.545 Q88.9272 688.346 88.9272 692.292 Q88.9272 698.754 83.771 702.828 Q78.6147 706.87 70.212 706.87 Q61.8093 706.87 56.6531 702.828 Q51.4968 698.754 51.4968 692.292 Q51.4968 688.346 53.0564 685.545 Q54.5842 682.712 57.7671 680.866 M70.212 700.823 Q76.6732 700.823 80.3653 698.181 Q84.0256 695.507 84.0256 690.86 Q84.0256 686.213 80.3653 683.54 Q76.6732 680.866 70.212 680.866 Q63.7508 680.866 60.0905 683.54 Q56.3984 686.213 56.3984 690.86 Q56.3984 695.507 60.0905 698.181 Q63.7508 700.823 70.212 700.823 Z" fill="#000000" fill-rule="evenodd" fill-opacity="1" /><path clip-path="url(#clip120)" d="M 0 0 M52.3562 668.867 L52.3562 663.01 L88.0042 663.01 L88.0042 668.867 L52.3562 668.867 M38.479 668.867 L38.479 663.01 L45.895 663.01 L45.895 668.867 L38.479 668.867 Z" fill="#000000" fill-rule="evenodd" fill-opacity="1" /><path clip-path="url(#clip120)" d="M 0 0 M38.479 638.821 L43.3487 638.821 L43.3487 644.422 Q43.3487 647.573 44.6219 648.815 Q45.895 650.024 49.2052 650.024 L52.3562 650.024 L52.3562 640.38 L56.9077 640.38 L56.9077 650.024 L88.0042 650.024 L88.0042 655.912 L56.9077 655.912 L56.9077 661.514 L52.3562 661.514 L52.3562 655.912 L49.8736 655.912 Q43.9216 655.912 41.2162 653.143 Q38.479 650.374 38.479 644.359 L38.479 638.821 Z" fill="#000000" fill-rule="evenodd" fill-opacity="1" /><path clip-path="url(#clip120)" d="M 0 0 M38.479 614.631 L43.3487 614.631 L43.3487 620.233 Q43.3487 623.384 44.6219 624.625 Q45.895 625.835 49.2052 625.835 L52.3562 625.835 L52.3562 616.19 L56.9077 616.19 L56.9077 625.835 L88.0042 625.835 L88.0042 631.723 L56.9077 631.723 L56.9077 637.325 L52.3562 637.325 L52.3562 631.723 L49.8736 631.723 Q43.9216 631.723 41.2162 628.954 Q38.479 626.185 38.479 620.169 L38.479 614.631 Z" fill="#000000" fill-rule="evenodd" fill-opacity="1" /><polyline clip-path="url(#clip122)" style="stroke:#009af9; stroke-width:20; stroke-opacity:1; fill:none" stroke-dasharray="80, 50" points="
  270.627,1372.3 1281.37,85.838 2292.11,155.664 
  "/>
<path clip-path="url(#clip120)" d="
M1992.23 213.659 L2281.33 213.659 L2281.33 92.6992 L1992.23 92.6992  Z
  " fill="#ffffff" fill-rule="evenodd" fill-opacity="1"/>
<polyline clip-path="url(#clip120)" style="stroke:#000000; stroke-width:4; stroke-opacity:1; fill:none" points="
  1992.23,213.659 2281.33,213.659 2281.33,92.6992 1992.23,92.6992 1992.23,213.659 
  "/>
<polyline clip-path="url(#clip120)" style="stroke:#009af9; stroke-width:4; stroke-opacity:1; fill:none" stroke-dasharray="16, 10" points="
  2016.03,153.179 2158.89,153.179 
  "/>
<path clip-path="url(#clip120)" d="M 0 0 M2196.54 172.867 Q2194.73 177.496 2193.02 178.908 Q2191.31 180.32 2188.44 180.32 L2185.03 180.32 L2185.03 176.755 L2187.53 176.755 Q2189.29 176.755 2190.26 175.922 Q2191.24 175.089 2192.42 171.987 L2193.18 170.043 L2182.69 144.533 L2187.21 144.533 L2195.31 164.811 L2203.41 144.533 L2207.93 144.533 L2196.54 172.867 Z" fill="#000000" fill-rule="evenodd" fill-opacity="1" /><path clip-path="url(#clip120)" d="M 0 0 M2213.81 166.524 L2221.44 166.524 L2221.44 140.158 L2213.13 141.825 L2213.13 137.566 L2221.4 135.899 L2226.07 135.899 L2226.07 166.524 L2233.71 166.524 L2233.71 170.459 L2213.81 170.459 L2213.81 166.524 Z" fill="#000000" fill-rule="evenodd" fill-opacity="1" /></svg>
