<?xml version="1.0" encoding="utf-8"?>
<svg xmlns="http://www.w3.org/2000/svg" xmlns:xlink="http://www.w3.org/1999/xlink" width="600" height="400" viewBox="0 0 2400 1600">
<defs>
  <clipPath id="clip540">
    <rect x="0" y="0" width="2400" height="1600"/>
  </clipPath>
</defs>
<path clip-path="url(#clip540)" d="
M0 1600 L2400 1600 L2400 0 L0 0  Z
  " fill="#ffffff" fill-rule="evenodd" fill-opacity="1"/>
<defs>
  <clipPath id="clip541">
    <rect x="480" y="0" width="1681" height="1600"/>
  </clipPath>
</defs>
<path clip-path="url(#clip540)" d="
M209.172 1410.9 L2352.76 1410.9 L2352.76 47.2441 L209.172 47.2441  Z
  " fill="#ffffff" fill-rule="evenodd" fill-opacity="1"/>
<defs>
  <clipPath id="clip542">
    <rect x="209" y="47" width="2145" height="1365"/>
  </clipPath>
</defs>
<polyline clip-path="url(#clip542)" style="stroke:#000000; stroke-width:2; stroke-opacity:0.1; fill:none" points="
  472.064,1410.9 472.064,47.2441 
  "/>
<polyline clip-path="url(#clip542)" style="stroke:#000000; stroke-width:2; stroke-opacity:0.1; fill:none" points="
  876.514,1410.9 876.514,47.2441 
  "/>
<polyline clip-path="url(#clip542)" style="stroke:#000000; stroke-width:2; stroke-opacity:0.1; fill:none" points="
  1280.96,1410.9 1280.96,47.2441 
  "/>
<polyline clip-path="url(#clip542)" style="stroke:#000000; stroke-width:2; stroke-opacity:0.1; fill:none" points="
  1685.41,1410.9 1685.41,47.2441 
  "/>
<polyline clip-path="url(#clip542)" style="stroke:#000000; stroke-width:2; stroke-opacity:0.1; fill:none" points="
  2089.86,1410.9 2089.86,47.2441 
  "/>
<polyline clip-path="url(#clip540)" style="stroke:#000000; stroke-width:4; stroke-opacity:1; fill:none" points="
  209.172,1410.9 2352.76,1410.9 
  "/>
<polyline clip-path="url(#clip540)" style="stroke:#000000; stroke-width:4; stroke-opacity:1; fill:none" points="
  472.064,1410.9 472.064,1394.53 
  "/>
<polyline clip-path="url(#clip540)" style="stroke:#000000; stroke-width:4; stroke-opacity:1; fill:none" points="
  876.514,1410.9 876.514,1394.53 
  "/>
<polyline clip-path="url(#clip540)" style="stroke:#000000; stroke-width:4; stroke-opacity:1; fill:none" points="
  1280.96,1410.9 1280.96,1394.53 
  "/>
<polyline clip-path="url(#clip540)" style="stroke:#000000; stroke-width:4; stroke-opacity:1; fill:none" points="
  1685.41,1410.9 1685.41,1394.53 
  "/>
<polyline clip-path="url(#clip540)" style="stroke:#000000; stroke-width:4; stroke-opacity:1; fill:none" points="
  2089.86,1410.9 2089.86,1394.53 
  "/>
<path clip-path="url(#clip540)" d="M 0 0 M411.192 1489.17 L418.831 1489.17 L418.831 1462.8 L410.521 1464.47 L410.521 1460.21 L418.785 1458.54 L423.461 1458.54 L423.461 1489.17 L431.099 1489.17 L431.099 1493.1 L411.192 1493.1 L411.192 1489.17 Z" fill="#000000" fill-rule="evenodd" fill-opacity="1" /><path clip-path="url(#clip540)" d="M 0 0 M446.169 1461.62 Q442.558 1461.62 440.729 1465.19 Q438.924 1468.73 438.924 1475.86 Q438.924 1482.97 440.729 1486.53 Q442.558 1490.07 446.169 1490.07 Q449.803 1490.07 451.609 1486.53 Q453.437 1482.97 453.437 1475.86 Q453.437 1468.73 451.609 1465.19 Q449.803 1461.62 446.169 1461.62 M446.169 1457.92 Q451.979 1457.92 455.035 1462.53 Q458.113 1467.11 458.113 1475.86 Q458.113 1484.59 455.035 1489.19 Q451.979 1493.78 446.169 1493.78 Q440.359 1493.78 437.28 1489.19 Q434.224 1484.59 434.224 1475.86 Q434.224 1467.11 437.28 1462.53 Q440.359 1457.92 446.169 1457.92 Z" fill="#000000" fill-rule="evenodd" fill-opacity="1" /><path clip-path="url(#clip540)" d="M 0 0 M458.113 1452.02 L482.225 1452.02 L482.225 1455.22 L458.113 1455.22 L458.113 1452.02 Z" fill="#000000" fill-rule="evenodd" fill-opacity="1" /><path clip-path="url(#clip540)" d="M 0 0 M487.002 1462.5 L493.209 1462.5 L493.209 1441.07 L486.457 1442.43 L486.457 1438.97 L493.171 1437.61 L496.97 1437.61 L496.97 1462.5 L503.177 1462.5 L503.177 1465.69 L487.002 1465.69 L487.002 1462.5 Z" fill="#000000" fill-rule="evenodd" fill-opacity="1" /><path clip-path="url(#clip540)" d="M 0 0 M507.296 1460.92 L511.264 1460.92 L511.264 1465.69 L507.296 1465.69 L507.296 1460.92 Z" fill="#000000" fill-rule="evenodd" fill-opacity="1" /><path clip-path="url(#clip540)" d="M 0 0 M525.821 1440.92 L516.229 1455.91 L525.821 1455.91 L525.821 1440.92 M524.824 1437.61 L529.602 1437.61 L529.602 1455.91 L533.608 1455.91 L533.608 1459.07 L529.602 1459.07 L529.602 1465.69 L525.821 1465.69 L525.821 1459.07 L513.145 1459.07 L513.145 1455.41 L524.824 1437.61 Z" fill="#000000" fill-rule="evenodd" fill-opacity="1" /><path clip-path="url(#clip540)" d="M 0 0 M816.488 1489.17 L824.127 1489.17 L824.127 1462.8 L815.817 1464.47 L815.817 1460.21 L824.081 1458.54 L828.757 1458.54 L828.757 1489.17 L836.396 1489.17 L836.396 1493.1 L816.488 1493.1 L816.488 1489.17 Z" fill="#000000" fill-rule="evenodd" fill-opacity="1" /><path clip-path="url(#clip540)" d="M 0 0 M851.465 1461.62 Q847.854 1461.62 846.025 1465.19 Q844.22 1468.73 844.22 1475.86 Q844.22 1482.97 846.025 1486.53 Q847.854 1490.07 851.465 1490.07 Q855.099 1490.07 856.905 1486.53 Q858.733 1482.97 858.733 1475.86 Q858.733 1468.73 856.905 1465.19 Q855.099 1461.62 851.465 1461.62 M851.465 1457.92 Q857.275 1457.92 860.331 1462.53 Q863.409 1467.11 863.409 1475.86 Q863.409 1484.59 860.331 1489.19 Q857.275 1493.78 851.465 1493.78 Q845.655 1493.78 842.576 1489.19 Q839.521 1484.59 839.521 1475.86 Q839.521 1467.11 842.576 1462.53 Q845.655 1457.92 851.465 1457.92 Z" fill="#000000" fill-rule="evenodd" fill-opacity="1" /><path clip-path="url(#clip540)" d="M 0 0 M863.409 1452.02 L887.521 1452.02 L887.521 1455.22 L863.409 1455.22 L863.409 1452.02 Z" fill="#000000" fill-rule="evenodd" fill-opacity="1" /><path clip-path="url(#clip540)" d="M 0 0 M892.298 1462.5 L898.505 1462.5 L898.505 1441.07 L891.753 1442.43 L891.753 1438.97 L898.467 1437.61 L902.266 1437.61 L902.266 1462.5 L908.473 1462.5 L908.473 1465.69 L892.298 1465.69 L892.298 1462.5 Z" fill="#000000" fill-rule="evenodd" fill-opacity="1" /><path clip-path="url(#clip540)" d="M 0 0 M912.592 1460.92 L916.56 1460.92 L916.56 1465.69 L912.592 1465.69 L912.592 1460.92 Z" fill="#000000" fill-rule="evenodd" fill-opacity="1" /><path clip-path="url(#clip540)" d="M 0 0 M923.952 1462.5 L937.211 1462.5 L937.211 1465.69 L919.381 1465.69 L919.381 1462.5 Q921.544 1460.26 925.268 1456.5 Q929.011 1452.72 929.97 1451.63 Q931.794 1449.58 932.509 1448.16 Q933.243 1446.74 933.243 1445.36 Q933.243 1443.12 931.663 1441.71 Q930.102 1440.3 927.582 1440.3 Q925.795 1440.3 923.801 1440.92 Q921.826 1441.54 919.569 1442.8 L919.569 1438.97 Q921.864 1438.05 923.858 1437.58 Q925.851 1437.11 927.506 1437.11 Q931.87 1437.11 934.465 1439.29 Q937.061 1441.47 937.061 1445.12 Q937.061 1446.85 936.402 1448.41 Q935.763 1449.95 934.051 1452.06 Q933.581 1452.6 931.061 1455.22 Q928.541 1457.81 923.952 1462.5 Z" fill="#000000" fill-rule="evenodd" fill-opacity="1" /><path clip-path="url(#clip540)" d="M 0 0 M1220.29 1489.17 L1227.93 1489.17 L1227.93 1462.8 L1219.62 1464.47 L1219.62 1460.21 L1227.88 1458.54 L1232.56 1458.54 L1232.56 1489.17 L1240.2 1489.17 L1240.2 1493.1 L1220.29 1493.1 L1220.29 1489.17 Z" fill="#000000" fill-rule="evenodd" fill-opacity="1" /><path clip-path="url(#clip540)" d="M 0 0 M1255.27 1461.62 Q1251.65 1461.62 1249.83 1465.19 Q1248.02 1468.73 1248.02 1475.86 Q1248.02 1482.97 1249.83 1486.53 Q1251.65 1490.07 1255.27 1490.07 Q1258.9 1490.07 1260.71 1486.53 Q1262.53 1482.97 1262.53 1475.86 Q1262.53 1468.73 1260.71 1465.19 Q1258.9 1461.62 1255.27 1461.62 M1255.27 1457.92 Q1261.08 1457.92 1264.13 1462.53 Q1267.21 1467.11 1267.21 1475.86 Q1267.21 1484.59 1264.13 1489.19 Q1261.08 1493.78 1255.27 1493.78 Q1249.46 1493.78 1246.38 1489.19 Q1243.32 1484.59 1243.32 1475.86 Q1243.32 1467.11 1246.38 1462.53 Q1249.46 1457.92 1255.27 1457.92 Z" fill="#000000" fill-rule="evenodd" fill-opacity="1" /><path clip-path="url(#clip540)" d="M 0 0 M1267.21 1452.02 L1291.32 1452.02 L1291.32 1455.22 L1267.21 1455.22 L1267.21 1452.02 Z" fill="#000000" fill-rule="evenodd" fill-opacity="1" /><path clip-path="url(#clip540)" d="M 0 0 M1296.1 1462.5 L1302.31 1462.5 L1302.31 1441.07 L1295.55 1442.43 L1295.55 1438.97 L1302.27 1437.61 L1306.07 1437.61 L1306.07 1462.5 L1312.27 1462.5 L1312.27 1465.69 L1296.1 1465.69 L1296.1 1462.5 Z" fill="#000000" fill-rule="evenodd" fill-opacity="1" /><path clip-path="url(#clip540)" d="M 0 0 M1316.39 1460.92 L1320.36 1460.92 L1320.36 1465.69 L1316.39 1465.69 L1316.39 1460.92 Z" fill="#000000" fill-rule="evenodd" fill-opacity="1" /><path clip-path="url(#clip540)" d="M 0 0 M1332.6 1440.11 Q1329.67 1440.11 1328.19 1443.01 Q1326.72 1445.89 1326.72 1451.68 Q1326.72 1457.46 1328.19 1460.35 Q1329.67 1463.23 1332.6 1463.23 Q1335.56 1463.23 1337.02 1460.35 Q1338.51 1457.46 1338.51 1451.68 Q1338.51 1445.89 1337.02 1443.01 Q1335.56 1440.11 1332.6 1440.11 M1332.6 1437.11 Q1337.33 1437.11 1339.81 1440.85 Q1342.31 1444.57 1342.31 1451.68 Q1342.31 1458.77 1339.81 1462.51 Q1337.33 1466.24 1332.6 1466.24 Q1327.88 1466.24 1325.38 1462.51 Q1322.9 1458.77 1322.9 1451.68 Q1322.9 1444.57 1325.38 1440.85 Q1327.88 1437.11 1332.6 1437.11 Z" fill="#000000" fill-rule="evenodd" fill-opacity="1" /><path clip-path="url(#clip540)" d="M 0 0 M1624.28 1489.17 L1631.92 1489.17 L1631.92 1462.8 L1623.61 1464.47 L1623.61 1460.21 L1631.87 1458.54 L1636.55 1458.54 L1636.55 1489.17 L1644.19 1489.17 L1644.19 1493.1 L1624.28 1493.1 L1624.28 1489.17 Z" fill="#000000" fill-rule="evenodd" fill-opacity="1" /><path clip-path="url(#clip540)" d="M 0 0 M1659.25 1461.62 Q1655.64 1461.62 1653.82 1465.19 Q1652.01 1468.73 1652.01 1475.86 Q1652.01 1482.97 1653.82 1486.53 Q1655.64 1490.07 1659.25 1490.07 Q1662.89 1490.07 1664.69 1486.53 Q1666.52 1482.97 1666.52 1475.86 Q1666.52 1468.73 1664.69 1465.19 Q1662.89 1461.62 1659.25 1461.62 M1659.25 1457.92 Q1665.07 1457.92 1668.12 1462.53 Q1671.2 1467.11 1671.2 1475.86 Q1671.2 1484.59 1668.12 1489.19 Q1665.07 1493.78 1659.25 1493.78 Q1653.44 1493.78 1650.37 1489.19 Q1647.31 1484.59 1647.31 1475.86 Q1647.31 1467.11 1650.37 1462.53 Q1653.44 1457.92 1659.25 1457.92 Z" fill="#000000" fill-rule="evenodd" fill-opacity="1" /><path clip-path="url(#clip540)" d="M 0 0 M1671.2 1452.02 L1695.31 1452.02 L1695.31 1455.22 L1671.2 1455.22 L1671.2 1452.02 Z" fill="#000000" fill-rule="evenodd" fill-opacity="1" /><path clip-path="url(#clip540)" d="M 0 0 M1707.55 1440.11 Q1704.62 1440.11 1703.13 1443.01 Q1701.67 1445.89 1701.67 1451.68 Q1701.67 1457.46 1703.13 1460.35 Q1704.62 1463.23 1707.55 1463.23 Q1710.51 1463.23 1711.97 1460.35 Q1713.46 1457.46 1713.46 1451.68 Q1713.46 1445.89 1711.97 1443.01 Q1710.51 1440.11 1707.55 1440.11 M1707.55 1437.11 Q1712.28 1437.11 1714.76 1440.85 Q1717.26 1444.57 1717.26 1451.68 Q1717.26 1458.77 1714.76 1462.51 Q1712.28 1466.24 1707.55 1466.24 Q1702.83 1466.24 1700.33 1462.51 Q1697.85 1458.77 1697.85 1451.68 Q1697.85 1444.57 1700.33 1440.85 Q1702.83 1437.11 1707.55 1437.11 Z" fill="#000000" fill-rule="evenodd" fill-opacity="1" /><path clip-path="url(#clip540)" d="M 0 0 M1721.38 1460.92 L1725.35 1460.92 L1725.35 1465.69 L1721.38 1465.69 L1721.38 1460.92 Z" fill="#000000" fill-rule="evenodd" fill-opacity="1" /><path clip-path="url(#clip540)" d="M 0 0 M1737.59 1452.36 Q1734.88 1452.36 1733.32 1453.81 Q1731.78 1455.26 1731.78 1457.79 Q1731.78 1460.33 1733.32 1461.78 Q1734.88 1463.23 1737.59 1463.23 Q1740.3 1463.23 1741.86 1461.78 Q1743.42 1460.31 1743.42 1457.79 Q1743.42 1455.26 1741.86 1453.81 Q1740.32 1452.36 1737.59 1452.36 M1733.79 1450.74 Q1731.35 1450.14 1729.97 1448.47 Q1728.62 1446.79 1728.62 1444.38 Q1728.62 1441.02 1731.01 1439.06 Q1733.42 1437.11 1737.59 1437.11 Q1741.78 1437.11 1744.17 1439.06 Q1746.56 1441.02 1746.56 1444.38 Q1746.56 1446.79 1745.19 1448.47 Q1743.83 1450.14 1741.41 1450.74 Q1744.15 1451.38 1745.68 1453.24 Q1747.22 1455.1 1747.22 1457.79 Q1747.22 1461.88 1744.72 1464.06 Q1742.24 1466.24 1737.59 1466.24 Q1732.95 1466.24 1730.44 1464.06 Q1727.96 1461.88 1727.96 1457.79 Q1727.96 1455.1 1729.5 1453.24 Q1731.05 1451.38 1733.79 1450.74 M1732.4 1444.74 Q1732.4 1446.92 1733.75 1448.15 Q1735.13 1449.37 1737.59 1449.37 Q1740.04 1449.37 1741.41 1448.15 Q1742.8 1446.92 1742.8 1444.74 Q1742.8 1442.56 1741.41 1441.34 Q1740.04 1440.11 1737.59 1440.11 Q1735.13 1440.11 1733.75 1441.34 Q1732.4 1442.56 1732.4 1444.74 Z" fill="#000000" fill-rule="evenodd" fill-opacity="1" /><path clip-path="url(#clip540)" d="M 0 0 M2028.62 1489.17 L2036.26 1489.17 L2036.26 1462.8 L2027.95 1464.47 L2027.95 1460.21 L2036.22 1458.54 L2040.89 1458.54 L2040.89 1489.17 L2048.53 1489.17 L2048.53 1493.1 L2028.62 1493.1 L2028.62 1489.17 Z" fill="#000000" fill-rule="evenodd" fill-opacity="1" /><path clip-path="url(#clip540)" d="M 0 0 M2063.6 1461.62 Q2059.99 1461.62 2058.16 1465.19 Q2056.36 1468.73 2056.36 1475.86 Q2056.36 1482.97 2058.16 1486.53 Q2059.99 1490.07 2063.6 1490.07 Q2067.24 1490.07 2069.04 1486.53 Q2070.87 1482.97 2070.87 1475.86 Q2070.87 1468.73 2069.04 1465.19 Q2067.24 1461.62 2063.6 1461.62 M2063.6 1457.92 Q2069.41 1457.92 2072.47 1462.53 Q2075.55 1467.11 2075.55 1475.86 Q2075.55 1484.59 2072.47 1489.19 Q2069.41 1493.78 2063.6 1493.78 Q2057.79 1493.78 2054.71 1489.19 Q2051.66 1484.59 2051.66 1475.86 Q2051.66 1467.11 2054.71 1462.53 Q2057.79 1457.92 2063.6 1457.92 Z" fill="#000000" fill-rule="evenodd" fill-opacity="1" /><path clip-path="url(#clip540)" d="M 0 0 M2075.55 1452.02 L2099.66 1452.02 L2099.66 1455.22 L2075.55 1455.22 L2075.55 1452.02 Z" fill="#000000" fill-rule="evenodd" fill-opacity="1" /><path clip-path="url(#clip540)" d="M 0 0 M2111.9 1440.11 Q2108.97 1440.11 2107.48 1443.01 Q2106.01 1445.89 2106.01 1451.68 Q2106.01 1457.46 2107.48 1460.35 Q2108.97 1463.23 2111.9 1463.23 Q2114.85 1463.23 2116.32 1460.35 Q2117.81 1457.46 2117.81 1451.68 Q2117.81 1445.89 2116.32 1443.01 Q2114.85 1440.11 2111.9 1440.11 M2111.9 1437.11 Q2116.62 1437.11 2119.1 1440.85 Q2121.61 1444.57 2121.61 1451.68 Q2121.61 1458.77 2119.1 1462.51 Q2116.62 1466.24 2111.9 1466.24 Q2107.18 1466.24 2104.68 1462.51 Q2102.2 1458.77 2102.2 1451.68 Q2102.2 1444.57 2104.68 1440.85 Q2107.18 1437.11 2111.9 1437.11 Z" fill="#000000" fill-rule="evenodd" fill-opacity="1" /><path clip-path="url(#clip540)" d="M 0 0 M2125.72 1460.92 L2129.69 1460.92 L2129.69 1465.69 L2125.72 1465.69 L2125.72 1460.92 Z" fill="#000000" fill-rule="evenodd" fill-opacity="1" /><path clip-path="url(#clip540)" d="M 0 0 M2142.41 1450.14 Q2139.85 1450.14 2138.34 1451.89 Q2136.86 1453.64 2136.86 1456.68 Q2136.86 1459.71 2138.34 1461.48 Q2139.85 1463.23 2142.41 1463.23 Q2144.97 1463.23 2146.45 1461.48 Q2147.96 1459.71 2147.96 1456.68 Q2147.96 1453.64 2146.45 1451.89 Q2144.97 1450.14 2142.41 1450.14 M2149.95 1438.23 L2149.95 1441.69 Q2148.52 1441.02 2147.05 1440.66 Q2145.6 1440.3 2144.18 1440.3 Q2140.41 1440.3 2138.42 1442.84 Q2136.45 1445.38 2136.16 1450.52 Q2137.27 1448.88 2138.95 1448.01 Q2140.62 1447.13 2142.63 1447.13 Q2146.86 1447.13 2149.31 1449.71 Q2151.77 1452.26 2151.77 1456.68 Q2151.77 1461.01 2149.22 1463.62 Q2146.66 1466.24 2142.41 1466.24 Q2137.54 1466.24 2134.96 1462.51 Q2132.38 1458.77 2132.38 1451.68 Q2132.38 1445.02 2135.54 1441.07 Q2138.7 1437.11 2144.02 1437.11 Q2145.45 1437.11 2146.9 1437.39 Q2148.37 1437.67 2149.95 1438.23 Z" fill="#000000" fill-rule="evenodd" fill-opacity="1" /><path clip-path="url(#clip540)" d="M 0 0 M1173.73 1526.54 L1179.94 1526.54 L1191.08 1556.46 L1202.22 1526.54 L1208.43 1526.54 L1195.06 1562.19 L1187.1 1562.19 L1173.73 1526.54 Z" fill="#000000" fill-rule="evenodd" fill-opacity="1" /><path clip-path="url(#clip540)" d="M 0 0 M1241.66 1573.01 L1241.66 1577.56 L1207.79 1577.56 L1207.79 1573.01 L1241.66 1573.01 Z" fill="#000000" fill-rule="evenodd" fill-opacity="1" /><path clip-path="url(#clip540)" d="M 0 0 M1261.61 1530.64 Q1256.9 1530.64 1254.16 1534.34 Q1251.43 1538 1251.43 1544.39 Q1251.43 1550.79 1254.13 1554.48 Q1256.87 1558.14 1261.61 1558.14 Q1266.29 1558.14 1269.03 1554.45 Q1271.77 1550.76 1271.77 1544.39 Q1271.77 1538.06 1269.03 1534.37 Q1266.29 1530.64 1261.61 1530.64 M1261.61 1525.68 Q1269.25 1525.68 1273.61 1530.64 Q1277.97 1535.61 1277.97 1544.39 Q1277.97 1553.15 1273.61 1558.14 Q1269.25 1563.11 1261.61 1563.11 Q1253.94 1563.11 1249.58 1558.14 Q1245.25 1553.15 1245.25 1544.39 Q1245.25 1535.61 1249.58 1530.64 Q1253.94 1525.68 1261.61 1525.68 Z" fill="#000000" fill-rule="evenodd" fill-opacity="1" /><path clip-path="url(#clip540)" d="M 0 0 M1289.78 1556.84 L1289.78 1575.74 L1283.89 1575.74 L1283.89 1526.54 L1289.78 1526.54 L1289.78 1531.95 Q1291.63 1528.77 1294.43 1527.24 Q1297.26 1525.68 1301.18 1525.68 Q1307.67 1525.68 1311.71 1530.83 Q1315.78 1535.99 1315.78 1544.39 Q1315.78 1552.8 1311.71 1557.95 Q1307.67 1563.11 1301.18 1563.11 Q1297.26 1563.11 1294.43 1561.58 Q1291.63 1560.02 1289.78 1556.84 M1309.71 1544.39 Q1309.71 1537.93 1307.03 1534.27 Q1304.39 1530.58 1299.74 1530.58 Q1295.1 1530.58 1292.42 1534.27 Q1289.78 1537.93 1289.78 1544.39 Q1289.78 1550.85 1292.42 1554.55 Q1295.1 1558.21 1299.74 1558.21 Q1304.39 1558.21 1307.03 1554.55 Q1309.71 1550.85 1309.71 1544.39 Z" fill="#000000" fill-rule="evenodd" fill-opacity="1" /><path clip-path="url(#clip540)" d="M 0 0 M1352.42 1542.9 L1352.42 1545.76 L1325.49 1545.76 Q1325.87 1551.81 1329.12 1554.99 Q1332.4 1558.14 1338.22 1558.14 Q1341.6 1558.14 1344.75 1557.32 Q1347.93 1556.49 1351.05 1554.83 L1351.05 1560.37 Q1347.9 1561.71 1344.59 1562.41 Q1341.28 1563.11 1337.87 1563.11 Q1329.34 1563.11 1324.35 1558.14 Q1319.38 1553.18 1319.38 1544.71 Q1319.38 1535.96 1324.09 1530.83 Q1328.83 1525.68 1336.85 1525.68 Q1344.05 1525.68 1348.22 1530.33 Q1352.42 1534.94 1352.42 1542.9 M1346.56 1541.18 Q1346.5 1536.37 1343.86 1533.51 Q1341.25 1530.64 1336.92 1530.64 Q1332.02 1530.64 1329.06 1533.41 Q1326.13 1536.18 1325.68 1541.21 L1346.56 1541.18 Z" fill="#000000" fill-rule="evenodd" fill-opacity="1" /><path clip-path="url(#clip540)" d="M 0 0 M1388.19 1540.67 L1388.19 1562.19 L1382.34 1562.19 L1382.34 1540.86 Q1382.34 1535.8 1380.36 1533.29 Q1378.39 1530.77 1374.44 1530.77 Q1369.7 1530.77 1366.96 1533.79 Q1364.23 1536.82 1364.23 1542.04 L1364.23 1562.19 L1358.34 1562.19 L1358.34 1526.54 L1364.23 1526.54 L1364.23 1532.08 Q1366.33 1528.86 1369.16 1527.27 Q1372.03 1525.68 1375.75 1525.68 Q1381.89 1525.68 1385.04 1529.5 Q1388.19 1533.29 1388.19 1540.67 Z" fill="#000000" fill-rule="evenodd" fill-opacity="1" /><polyline clip-path="url(#clip542)" style="stroke:#000000; stroke-width:2; stroke-opacity:0.1; fill:none" points="
  209.172,1207.54 2352.76,1207.54 
  "/>
<polyline clip-path="url(#clip542)" style="stroke:#000000; stroke-width:2; stroke-opacity:0.1; fill:none" points="
  209.172,934.99 2352.76,934.99 
  "/>
<polyline clip-path="url(#clip542)" style="stroke:#000000; stroke-width:2; stroke-opacity:0.1; fill:none" points="
  209.172,662.436 2352.76,662.436 
  "/>
<polyline clip-path="url(#clip542)" style="stroke:#000000; stroke-width:2; stroke-opacity:0.1; fill:none" points="
  209.172,389.882 2352.76,389.882 
  "/>
<polyline clip-path="url(#clip542)" style="stroke:#000000; stroke-width:2; stroke-opacity:0.1; fill:none" points="
  209.172,117.327 2352.76,117.327 
  "/>
<polyline clip-path="url(#clip540)" style="stroke:#000000; stroke-width:4; stroke-opacity:1; fill:none" points="
  209.172,1410.9 209.172,47.2441 
  "/>
<polyline clip-path="url(#clip540)" style="stroke:#000000; stroke-width:4; stroke-opacity:1; fill:none" points="
  209.172,1207.54 234.895,1207.54 
  "/>
<polyline clip-path="url(#clip540)" style="stroke:#000000; stroke-width:4; stroke-opacity:1; fill:none" points="
  209.172,934.99 234.895,934.99 
  "/>
<polyline clip-path="url(#clip540)" style="stroke:#000000; stroke-width:4; stroke-opacity:1; fill:none" points="
  209.172,662.436 234.895,662.436 
  "/>
<polyline clip-path="url(#clip540)" style="stroke:#000000; stroke-width:4; stroke-opacity:1; fill:none" points="
  209.172,389.882 234.895,389.882 
  "/>
<polyline clip-path="url(#clip540)" style="stroke:#000000; stroke-width:4; stroke-opacity:1; fill:none" points="
  209.172,117.327 234.895,117.327 
  "/>
<path clip-path="url(#clip540)" d="M 0 0 M117.2 1220.89 L124.839 1220.89 L124.839 1194.52 L116.529 1196.19 L116.529 1191.93 L124.793 1190.26 L129.468 1190.26 L129.468 1220.89 L137.107 1220.89 L137.107 1224.82 L117.2 1224.82 L117.2 1220.89 Z" fill="#000000" fill-rule="evenodd" fill-opacity="1" /><path clip-path="url(#clip540)" d="M 0 0 M142.177 1218.94 L147.061 1218.94 L147.061 1224.82 L142.177 1224.82 L142.177 1218.94 Z" fill="#000000" fill-rule="evenodd" fill-opacity="1" /><path clip-path="url(#clip540)" d="M 0 0 M150.95 1190.26 L173.172 1190.26 L173.172 1192.26 L160.626 1224.82 L155.741 1224.82 L167.547 1194.2 L150.95 1194.2 L150.95 1190.26 Z" fill="#000000" fill-rule="evenodd" fill-opacity="1" /><path clip-path="url(#clip540)" d="M 0 0 M116.39 948.335 L124.029 948.335 L124.029 921.969 L115.718 923.636 L115.718 919.377 L123.982 917.71 L128.658 917.71 L128.658 948.335 L136.297 948.335 L136.297 952.27 L116.39 952.27 L116.39 948.335 Z" fill="#000000" fill-rule="evenodd" fill-opacity="1" /><path clip-path="url(#clip540)" d="M 0 0 M141.366 946.391 L146.251 946.391 L146.251 952.27 L141.366 952.27 L141.366 946.391 Z" fill="#000000" fill-rule="evenodd" fill-opacity="1" /><path clip-path="url(#clip540)" d="M 0 0 M161.32 935.858 Q157.987 935.858 156.065 937.641 Q154.167 939.423 154.167 942.548 Q154.167 945.673 156.065 947.455 Q157.987 949.238 161.32 949.238 Q164.653 949.238 166.575 947.455 Q168.496 945.65 168.496 942.548 Q168.496 939.423 166.575 937.641 Q164.677 935.858 161.32 935.858 M156.644 933.868 Q153.635 933.127 151.945 931.067 Q150.278 929.006 150.278 926.044 Q150.278 921.9 153.218 919.493 Q156.181 917.085 161.32 917.085 Q166.482 917.085 169.422 919.493 Q172.362 921.9 172.362 926.044 Q172.362 929.006 170.672 931.067 Q169.005 933.127 166.019 933.868 Q169.399 934.655 171.274 936.946 Q173.172 939.238 173.172 942.548 Q173.172 947.571 170.093 950.256 Q167.038 952.942 161.32 952.942 Q155.603 952.942 152.524 950.256 Q149.468 947.571 149.468 942.548 Q149.468 939.238 151.366 936.946 Q153.265 934.655 156.644 933.868 M154.931 926.483 Q154.931 929.169 156.598 930.673 Q158.288 932.178 161.32 932.178 Q164.329 932.178 166.019 930.673 Q167.732 929.169 167.732 926.483 Q167.732 923.798 166.019 922.294 Q164.329 920.789 161.32 920.789 Q158.288 920.789 156.598 922.294 Q154.931 923.798 154.931 926.483 Z" fill="#000000" fill-rule="evenodd" fill-opacity="1" /><path clip-path="url(#clip540)" d="M 0 0 M116.482 675.781 L124.121 675.781 L124.121 649.415 L115.811 651.082 L115.811 646.823 L124.075 645.156 L128.751 645.156 L128.751 675.781 L136.39 675.781 L136.39 679.716 L116.482 679.716 L116.482 675.781 Z" fill="#000000" fill-rule="evenodd" fill-opacity="1" /><path clip-path="url(#clip540)" d="M 0 0 M141.459 673.836 L146.343 673.836 L146.343 679.716 L141.459 679.716 L141.459 673.836 Z" fill="#000000" fill-rule="evenodd" fill-opacity="1" /><path clip-path="url(#clip540)" d="M 0 0 M151.552 678.998 L151.552 674.739 Q153.311 675.572 155.116 676.012 Q156.922 676.452 158.658 676.452 Q163.288 676.452 165.718 673.35 Q168.172 670.225 168.519 663.883 Q167.177 665.873 165.116 666.938 Q163.056 668.003 160.556 668.003 Q155.371 668.003 152.339 664.878 Q149.329 661.73 149.329 656.29 Q149.329 650.966 152.478 647.749 Q155.626 644.531 160.857 644.531 Q166.852 644.531 170.001 649.137 Q173.172 653.721 173.172 662.471 Q173.172 670.642 169.283 675.526 Q165.417 680.387 158.866 680.387 Q157.107 680.387 155.302 680.04 Q153.496 679.693 151.552 678.998 M160.857 664.346 Q164.005 664.346 165.834 662.193 Q167.686 660.04 167.686 656.29 Q167.686 652.563 165.834 650.411 Q164.005 648.235 160.857 648.235 Q157.709 648.235 155.857 650.411 Q154.028 652.563 154.028 656.29 Q154.028 660.04 155.857 662.193 Q157.709 664.346 160.857 664.346 Z" fill="#000000" fill-rule="evenodd" fill-opacity="1" /><path clip-path="url(#clip540)" d="M 0 0 M119.885 403.227 L136.204 403.227 L136.204 407.162 L114.26 407.162 L114.26 403.227 Q116.922 400.472 121.505 395.842 Q126.112 391.19 127.292 389.847 Q129.538 387.324 130.417 385.588 Q131.32 383.828 131.32 382.139 Q131.32 379.384 129.376 377.648 Q127.455 375.912 124.353 375.912 Q122.154 375.912 119.7 376.676 Q117.269 377.44 114.492 378.991 L114.492 374.268 Q117.316 373.134 119.769 372.555 Q122.223 371.977 124.26 371.977 Q129.63 371.977 132.825 374.662 Q136.019 377.347 136.019 381.838 Q136.019 383.967 135.209 385.889 Q134.422 387.787 132.316 390.379 Q131.737 391.051 128.635 394.268 Q125.533 397.463 119.885 403.227 Z" fill="#000000" fill-rule="evenodd" fill-opacity="1" /><path clip-path="url(#clip540)" d="M 0 0 M141.274 401.282 L146.158 401.282 L146.158 407.162 L141.274 407.162 L141.274 401.282 Z" fill="#000000" fill-rule="evenodd" fill-opacity="1" /><path clip-path="url(#clip540)" d="M 0 0 M161.227 375.68 Q157.616 375.68 155.788 379.245 Q153.982 382.787 153.982 389.916 Q153.982 397.023 155.788 400.588 Q157.616 404.129 161.227 404.129 Q164.862 404.129 166.667 400.588 Q168.496 397.023 168.496 389.916 Q168.496 382.787 166.667 379.245 Q164.862 375.68 161.227 375.68 M161.227 371.977 Q167.038 371.977 170.093 376.583 Q173.172 381.166 173.172 389.916 Q173.172 398.643 170.093 403.25 Q167.038 407.833 161.227 407.833 Q155.417 407.833 152.339 403.25 Q149.283 398.643 149.283 389.916 Q149.283 381.166 152.339 376.583 Q155.417 371.977 161.227 371.977 Z" fill="#000000" fill-rule="evenodd" fill-opacity="1" /><path clip-path="url(#clip540)" d="M 0 0 M121.112 130.672 L137.431 130.672 L137.431 134.607 L115.487 134.607 L115.487 130.672 Q118.149 127.918 122.732 123.288 Q127.339 118.635 128.519 117.293 Q130.765 114.77 131.644 113.033 Q132.547 111.274 132.547 109.584 Q132.547 106.83 130.603 105.094 Q128.681 103.358 125.58 103.358 Q123.38 103.358 120.927 104.121 Q118.496 104.885 115.718 106.436 L115.718 101.714 Q118.543 100.58 120.996 100.001 Q123.45 99.4224 125.487 99.4224 Q130.857 99.4224 134.052 102.108 Q137.246 104.793 137.246 109.283 Q137.246 111.413 136.436 113.334 Q135.649 115.233 133.542 117.825 Q132.964 118.496 129.862 121.714 Q126.76 124.908 121.112 130.672 Z" fill="#000000" fill-rule="evenodd" fill-opacity="1" /><path clip-path="url(#clip540)" d="M 0 0 M142.501 128.728 L147.385 128.728 L147.385 134.607 L142.501 134.607 L142.501 128.728 Z" fill="#000000" fill-rule="evenodd" fill-opacity="1" /><path clip-path="url(#clip540)" d="M 0 0 M153.265 130.672 L160.903 130.672 L160.903 104.307 L152.593 105.973 L152.593 101.714 L160.857 100.047 L165.533 100.047 L165.533 130.672 L173.172 130.672 L173.172 134.607 L153.265 134.607 L153.265 130.672 Z" fill="#000000" fill-rule="evenodd" fill-opacity="1" /><path clip-path="url(#clip540)" d="M 0 0 M59.1993 815.533 Q55.2526 813.336 53.3747 810.281 Q51.4968 807.225 51.4968 803.088 Q51.4968 797.518 55.4117 794.494 Q59.2948 791.47 66.4881 791.47 L88.0042 791.47 L88.0042 797.358 L66.679 797.358 Q61.5546 797.358 59.072 799.173 Q56.5894 800.987 56.5894 804.711 Q56.5894 809.262 59.6131 811.904 Q62.6368 814.546 67.8567 814.546 L88.0042 814.546 L88.0042 820.434 L66.679 820.434 Q61.5228 820.434 59.072 822.248 Q56.5894 824.063 56.5894 827.85 Q56.5894 832.338 59.6449 834.98 Q62.6686 837.622 67.8567 837.622 L88.0042 837.622 L88.0042 843.51 L52.3562 843.51 L52.3562 837.622 L57.8944 837.622 Q54.616 835.616 53.0564 832.815 Q51.4968 830.015 51.4968 826.163 Q51.4968 822.28 53.4702 819.575 Q55.4436 816.838 59.1993 815.533 Z" fill="#000000" fill-rule="evenodd" fill-opacity="1" /><path clip-path="url(#clip540)" d="M 0 0 M52.3562 785.327 L52.3562 779.471 L88.0042 779.471 L88.0042 785.327 L52.3562 785.327 M38.479 785.327 L38.479 779.471 L45.895 779.471 L45.895 785.327 L38.479 785.327 Z" fill="#000000" fill-rule="evenodd" fill-opacity="1" /><path clip-path="url(#clip540)" d="M 0 0 M66.4881 743.696 L88.0042 743.696 L88.0042 749.552 L66.679 749.552 Q61.6183 749.552 59.1038 751.525 Q56.5894 753.499 56.5894 757.446 Q56.5894 762.188 59.6131 764.925 Q62.6368 767.662 67.8567 767.662 L88.0042 767.662 L88.0042 773.551 L52.3562 773.551 L52.3562 767.662 L57.8944 767.662 Q54.6797 765.562 53.0883 762.729 Q51.4968 759.864 51.4968 756.141 Q51.4968 749.998 55.3163 746.847 Q59.1038 743.696 66.4881 743.696 Z" fill="#000000" fill-rule="evenodd" fill-opacity="1" /><path clip-path="url(#clip540)" d="M 0 0 M98.8259 710.467 L103.377 710.467 L103.377 744.332 L98.8259 744.332 L98.8259 710.467 Z" fill="#000000" fill-rule="evenodd" fill-opacity="1" /><path clip-path="url(#clip540)" d="M 0 0 M57.7671 680.866 L38.479 680.866 L38.479 675.01 L88.0042 675.01 L88.0042 680.866 L82.657 680.866 Q85.8398 682.712 87.3994 685.545 Q88.9272 688.346 88.9272 692.292 Q88.9272 698.754 83.771 702.828 Q78.6147 706.87 70.212 706.87 Q61.8093 706.87 56.6531 702.828 Q51.4968 698.754 51.4968 692.292 Q51.4968 688.346 53.0564 685.545 Q54.5842 682.712 57.7671 680.866 M70.212 700.823 Q76.6732 700.823 80.3653 698.181 Q84.0256 695.507 84.0256 690.86 Q84.0256 686.213 80.3653 683.54 Q76.6732 680.866 70.212 680.866 Q63.7508 680.866 60.0905 683.54 Q56.3984 686.213 56.3984 690.86 Q56.3984 695.507 60.0905 698.181 Q63.7508 700.823 70.212 700.823 Z" fill="#000000" fill-rule="evenodd" fill-opacity="1" /><path clip-path="url(#clip540)" d="M 0 0 M52.3562 668.867 L52.3562 663.01 L88.0042 663.01 L88.0042 668.867 L52.3562 668.867 M38.479 668.867 L38.479 663.01 L45.895 663.01 L45.895 668.867 L38.479 668.867 Z" fill="#000000" fill-rule="evenodd" fill-opacity="1" /><path clip-path="url(#clip540)" d="M 0 0 M38.479 638.821 L43.3487 638.821 L43.3487 644.422 Q43.3487 647.573 44.6219 648.815 Q45.895 650.024 49.2052 650.024 L52.3562 650.024 L52.3562 640.38 L56.9077 640.38 L56.9077 650.024 L88.0042 650.024 L88.0042 655.912 L56.9077 655.912 L56.9077 661.514 L52.3562 661.514 L52.3562 655.912 L49.8736 655.912 Q43.9216 655.912 41.2162 653.143 Q38.479 650.374 38.479 644.359 L38.479 638.821 Z" fill="#000000" fill-rule="evenodd" fill-opacity="1" /><path clip-path="url(#clip540)" d="M 0 0 M38.479 614.631 L43.3487 614.631 L43.3487 620.233 Q43.3487 623.384 44.6219 624.625 Q45.895 625.835 49.2052 625.835 L52.3562 625.835 L52.3562 616.19 L56.9077 616.19 L56.9077 625.835 L88.0042 625.835 L88.0042 631.723 L56.9077 631.723 L56.9077 637.325 L52.3562 637.325 L52.3562 631.723 L49.8736 631.723 Q43.9216 631.723 41.2162 628.954 Q38.479 626.185 38.479 620.169 L38.479 614.631 Z" fill="#000000" fill-rule="evenodd" fill-opacity="1" /><polyline clip-path="url(#clip542)" style="stroke:#009af9; stroke-width:20; stroke-opacity:1; fill:none" stroke-dasharray="80, 50" points="
  269.839,811.399 1280.96,85.838 2292.09,1372.3 
  "/>
<path clip-path="url(#clip540)" d="
M1992.11 213.659 L2281.3 213.659 L2281.3 92.6992 L1992.11 92.6992  Z
  " fill="#ffffff" fill-rule="evenodd" fill-opacity="1"/>
<polyline clip-path="url(#clip540)" style="stroke:#000000; stroke-width:4; stroke-opacity:1; fill:none" points="
  1992.11,213.659 2281.3,213.659 2281.3,92.6992 1992.11,92.6992 1992.11,213.659 
  "/>
<polyline clip-path="url(#clip540)" style="stroke:#009af9; stroke-width:4; stroke-opacity:1; fill:none" stroke-dasharray="16, 10" points="
  2015.93,153.179 2158.83,153.179 
  "/>
<path clip-path="url(#clip540)" d="M 0 0 M2196.49 172.867 Q2194.69 177.496 2192.97 178.908 Q2191.26 180.32 2188.39 180.32 L2184.99 180.32 L2184.99 176.755 L2187.49 176.755 Q2189.25 176.755 2190.22 175.922 Q2191.19 175.089 2192.37 171.987 L2193.14 170.043 L2182.65 144.533 L2187.16 144.533 L2195.27 164.811 L2203.37 144.533 L2207.88 144.533 L2196.49 172.867 Z" fill="#000000" fill-rule="evenodd" fill-opacity="1" /><path clip-path="url(#clip540)" d="M 0 0 M2213.76 166.524 L2221.4 166.524 L2221.4 140.158 L2213.09 141.825 L2213.09 137.566 L2221.35 135.899 L2226.03 135.899 L2226.03 166.524 L2233.67 166.524 L2233.67 170.459 L2213.76 170.459 L2213.76 166.524 Z" fill="#000000" fill-rule="evenodd" fill-opacity="1" /></svg>
