<?xml version="1.0" encoding="utf-8"?>
<svg xmlns="http://www.w3.org/2000/svg" xmlns:xlink="http://www.w3.org/1999/xlink" width="600" height="400" viewBox="0 0 2400 1600">
<defs>
  <clipPath id="clip270">
    <rect x="0" y="0" width="2400" height="1600"/>
  </clipPath>
</defs>
<path clip-path="url(#clip270)" d="
M0 1600 L2400 1600 L2400 0 L0 0  Z
  " fill="#ffffff" fill-rule="evenodd" fill-opacity="1"/>
<defs>
  <clipPath id="clip271">
    <rect x="480" y="0" width="1681" height="1600"/>
  </clipPath>
</defs>
<path clip-path="url(#clip270)" d="
M263.963 1410.9 L2352.76 1410.9 L2352.76 47.2441 L263.963 47.2441  Z
  " fill="#ffffff" fill-rule="evenodd" fill-opacity="1"/>
<defs>
  <clipPath id="clip272">
    <rect x="263" y="47" width="2090" height="1365"/>
  </clipPath>
</defs>
<polyline clip-path="url(#clip272)" style="stroke:#000000; stroke-width:2; stroke-opacity:0.1; fill:none" points="
  323.08,1410.9 323.08,47.2441 
  "/>
<polyline clip-path="url(#clip272)" style="stroke:#000000; stroke-width:2; stroke-opacity:0.1; fill:none" points="
  815.72,1410.9 815.72,47.2441 
  "/>
<polyline clip-path="url(#clip272)" style="stroke:#000000; stroke-width:2; stroke-opacity:0.1; fill:none" points="
  1308.36,1410.9 1308.36,47.2441 
  "/>
<polyline clip-path="url(#clip272)" style="stroke:#000000; stroke-width:2; stroke-opacity:0.1; fill:none" points="
  1801,1410.9 1801,47.2441 
  "/>
<polyline clip-path="url(#clip272)" style="stroke:#000000; stroke-width:2; stroke-opacity:0.1; fill:none" points="
  2293.64,1410.9 2293.64,47.2441 
  "/>
<polyline clip-path="url(#clip270)" style="stroke:#000000; stroke-width:4; stroke-opacity:1; fill:none" points="
  263.963,1410.9 2352.76,1410.9 
  "/>
<polyline clip-path="url(#clip270)" style="stroke:#000000; stroke-width:4; stroke-opacity:1; fill:none" points="
  323.08,1410.9 323.08,1394.53 
  "/>
<polyline clip-path="url(#clip270)" style="stroke:#000000; stroke-width:4; stroke-opacity:1; fill:none" points="
  815.72,1410.9 815.72,1394.53 
  "/>
<polyline clip-path="url(#clip270)" style="stroke:#000000; stroke-width:4; stroke-opacity:1; fill:none" points="
  1308.36,1410.9 1308.36,1394.53 
  "/>
<polyline clip-path="url(#clip270)" style="stroke:#000000; stroke-width:4; stroke-opacity:1; fill:none" points="
  1801,1410.9 1801,1394.53 
  "/>
<polyline clip-path="url(#clip270)" style="stroke:#000000; stroke-width:4; stroke-opacity:1; fill:none" points="
  2293.64,1410.9 2293.64,1394.53 
  "/>
<path clip-path="url(#clip270)" d="M 0 0 M251.431 1489.17 L259.07 1489.17 L259.07 1462.8 L250.76 1464.47 L250.76 1460.21 L259.024 1458.54 L263.7 1458.54 L263.7 1489.17 L271.338 1489.17 L271.338 1493.1 L251.431 1493.1 L251.431 1489.17 Z" fill="#000000" fill-rule="evenodd" fill-opacity="1" /><path clip-path="url(#clip270)" d="M 0 0 M286.408 1461.62 Q282.797 1461.62 280.968 1465.19 Q279.162 1468.73 279.162 1475.86 Q279.162 1482.97 280.968 1486.53 Q282.797 1490.07 286.408 1490.07 Q290.042 1490.07 291.848 1486.53 Q293.676 1482.97 293.676 1475.86 Q293.676 1468.73 291.848 1465.19 Q290.042 1461.62 286.408 1461.62 M286.408 1457.92 Q292.218 1457.92 295.273 1462.53 Q298.352 1467.11 298.352 1475.86 Q298.352 1484.59 295.273 1489.19 Q292.218 1493.78 286.408 1493.78 Q280.598 1493.78 277.519 1489.19 Q274.463 1484.59 274.463 1475.86 Q274.463 1467.11 277.519 1462.53 Q280.598 1457.92 286.408 1457.92 Z" fill="#000000" fill-rule="evenodd" fill-opacity="1" /><path clip-path="url(#clip270)" d="M 0 0 M298.352 1452.02 L322.464 1452.02 L322.464 1455.22 L298.352 1455.22 L298.352 1452.02 Z" fill="#000000" fill-rule="evenodd" fill-opacity="1" /><path clip-path="url(#clip270)" d="M 0 0 M327.241 1462.5 L333.447 1462.5 L333.447 1441.07 L326.695 1442.43 L326.695 1438.97 L333.41 1437.61 L337.209 1437.61 L337.209 1462.5 L343.416 1462.5 L343.416 1465.69 L327.241 1465.69 L327.241 1462.5 Z" fill="#000000" fill-rule="evenodd" fill-opacity="1" /><path clip-path="url(#clip270)" d="M 0 0 M347.534 1460.92 L351.503 1460.92 L351.503 1465.69 L347.534 1465.69 L347.534 1460.92 Z" fill="#000000" fill-rule="evenodd" fill-opacity="1" /><path clip-path="url(#clip270)" d="M 0 0 M363.747 1440.11 Q360.813 1440.11 359.327 1443.01 Q357.86 1445.89 357.86 1451.68 Q357.86 1457.46 359.327 1460.35 Q360.813 1463.23 363.747 1463.23 Q366.7 1463.23 368.167 1460.35 Q369.652 1457.46 369.652 1451.68 Q369.652 1445.89 368.167 1443.01 Q366.7 1440.11 363.747 1440.11 M363.747 1437.11 Q368.468 1437.11 370.95 1440.85 Q373.452 1444.57 373.452 1451.68 Q373.452 1458.77 370.95 1462.51 Q368.468 1466.24 363.747 1466.24 Q359.026 1466.24 356.525 1462.51 Q354.042 1458.77 354.042 1451.68 Q354.042 1444.57 356.525 1440.85 Q359.026 1437.11 363.747 1437.11 Z" fill="#000000" fill-rule="evenodd" fill-opacity="1" /><path clip-path="url(#clip270)" d="M 0 0 M385.695 1440.11 Q382.761 1440.11 381.276 1443.01 Q379.809 1445.89 379.809 1451.68 Q379.809 1457.46 381.276 1460.35 Q382.761 1463.23 385.695 1463.23 Q388.648 1463.23 390.115 1460.35 Q391.601 1457.46 391.601 1451.68 Q391.601 1445.89 390.115 1443.01 Q388.648 1440.11 385.695 1440.11 M385.695 1437.11 Q390.416 1437.11 392.899 1440.85 Q395.4 1444.57 395.4 1451.68 Q395.4 1458.77 392.899 1462.51 Q390.416 1466.24 385.695 1466.24 Q380.975 1466.24 378.473 1462.51 Q375.991 1458.77 375.991 1451.68 Q375.991 1444.57 378.473 1440.85 Q380.975 1437.11 385.695 1437.11 Z" fill="#000000" fill-rule="evenodd" fill-opacity="1" /><path clip-path="url(#clip270)" d="M 0 0 M744.344 1489.17 L751.982 1489.17 L751.982 1462.8 L743.672 1464.47 L743.672 1460.21 L751.936 1458.54 L756.612 1458.54 L756.612 1489.17 L764.251 1489.17 L764.251 1493.1 L744.344 1493.1 L744.344 1489.17 Z" fill="#000000" fill-rule="evenodd" fill-opacity="1" /><path clip-path="url(#clip270)" d="M 0 0 M779.32 1461.62 Q775.709 1461.62 773.88 1465.19 Q772.075 1468.73 772.075 1475.86 Q772.075 1482.97 773.88 1486.53 Q775.709 1490.07 779.32 1490.07 Q782.954 1490.07 784.76 1486.53 Q786.589 1482.97 786.589 1475.86 Q786.589 1468.73 784.76 1465.19 Q782.954 1461.62 779.32 1461.62 M779.32 1457.92 Q785.13 1457.92 788.186 1462.53 Q791.265 1467.11 791.265 1475.86 Q791.265 1484.59 788.186 1489.19 Q785.13 1493.78 779.32 1493.78 Q773.51 1493.78 770.431 1489.19 Q767.376 1484.59 767.376 1475.86 Q767.376 1467.11 770.431 1462.53 Q773.51 1457.92 779.32 1457.92 Z" fill="#000000" fill-rule="evenodd" fill-opacity="1" /><path clip-path="url(#clip270)" d="M 0 0 M791.265 1452.02 L815.376 1452.02 L815.376 1455.22 L791.265 1455.22 L791.265 1452.02 Z" fill="#000000" fill-rule="evenodd" fill-opacity="1" /><path clip-path="url(#clip270)" d="M 0 0 M827.62 1440.11 Q824.686 1440.11 823.2 1443.01 Q821.733 1445.89 821.733 1451.68 Q821.733 1457.46 823.2 1460.35 Q824.686 1463.23 827.62 1463.23 Q830.573 1463.23 832.04 1460.35 Q833.526 1457.46 833.526 1451.68 Q833.526 1445.89 832.04 1443.01 Q830.573 1440.11 827.62 1440.11 M827.62 1437.11 Q832.341 1437.11 834.823 1440.85 Q837.325 1444.57 837.325 1451.68 Q837.325 1458.77 834.823 1462.51 Q832.341 1466.24 827.62 1466.24 Q822.899 1466.24 820.398 1462.51 Q817.915 1458.77 817.915 1451.68 Q817.915 1444.57 820.398 1440.85 Q822.899 1437.11 827.62 1437.11 Z" fill="#000000" fill-rule="evenodd" fill-opacity="1" /><path clip-path="url(#clip270)" d="M 0 0 M841.444 1460.92 L845.412 1460.92 L845.412 1465.69 L841.444 1465.69 L841.444 1460.92 Z" fill="#000000" fill-rule="evenodd" fill-opacity="1" /><path clip-path="url(#clip270)" d="M 0 0 M848.572 1437.61 L866.627 1437.61 L866.627 1439.23 L856.434 1465.69 L852.465 1465.69 L862.057 1440.81 L848.572 1440.81 L848.572 1437.61 Z" fill="#000000" fill-rule="evenodd" fill-opacity="1" /><path clip-path="url(#clip270)" d="M 0 0 M870.784 1437.61 L885.698 1437.61 L885.698 1440.81 L874.263 1440.81 L874.263 1447.69 Q875.091 1447.41 875.918 1447.28 Q876.746 1447.13 877.573 1447.13 Q882.275 1447.13 885.021 1449.71 Q887.767 1452.28 887.767 1456.68 Q887.767 1461.22 884.946 1463.74 Q882.125 1466.24 876.99 1466.24 Q875.223 1466.24 873.379 1465.94 Q871.555 1465.64 869.599 1465.04 L869.599 1461.22 Q871.292 1462.14 873.097 1462.59 Q874.903 1463.04 876.915 1463.04 Q880.169 1463.04 882.069 1461.33 Q883.968 1459.62 883.968 1456.68 Q883.968 1453.75 882.069 1452.04 Q880.169 1450.33 876.915 1450.33 Q875.392 1450.33 873.868 1450.67 Q872.364 1451 870.784 1451.72 L870.784 1437.61 Z" fill="#000000" fill-rule="evenodd" fill-opacity="1" /><path clip-path="url(#clip270)" d="M 0 0 M1236.62 1489.17 L1244.26 1489.17 L1244.26 1462.8 L1235.95 1464.47 L1235.95 1460.21 L1244.21 1458.54 L1248.89 1458.54 L1248.89 1489.17 L1256.52 1489.17 L1256.52 1493.1 L1236.62 1493.1 L1236.62 1489.17 Z" fill="#000000" fill-rule="evenodd" fill-opacity="1" /><path clip-path="url(#clip270)" d="M 0 0 M1271.59 1461.62 Q1267.98 1461.62 1266.15 1465.19 Q1264.35 1468.73 1264.35 1475.86 Q1264.35 1482.97 1266.15 1486.53 Q1267.98 1490.07 1271.59 1490.07 Q1275.23 1490.07 1277.03 1486.53 Q1278.86 1482.97 1278.86 1475.86 Q1278.86 1468.73 1277.03 1465.19 Q1275.23 1461.62 1271.59 1461.62 M1271.59 1457.92 Q1277.4 1457.92 1280.46 1462.53 Q1283.54 1467.11 1283.54 1475.86 Q1283.54 1484.59 1280.46 1489.19 Q1277.4 1493.78 1271.59 1493.78 Q1265.78 1493.78 1262.7 1489.19 Q1259.65 1484.59 1259.65 1475.86 Q1259.65 1467.11 1262.7 1462.53 Q1265.78 1457.92 1271.59 1457.92 Z" fill="#000000" fill-rule="evenodd" fill-opacity="1" /><path clip-path="url(#clip270)" d="M 0 0 M1283.54 1452.02 L1307.65 1452.02 L1307.65 1455.22 L1283.54 1455.22 L1283.54 1452.02 Z" fill="#000000" fill-rule="evenodd" fill-opacity="1" /><path clip-path="url(#clip270)" d="M 0 0 M1319.89 1440.11 Q1316.96 1440.11 1315.47 1443.01 Q1314.01 1445.89 1314.01 1451.68 Q1314.01 1457.46 1315.47 1460.35 Q1316.96 1463.23 1319.89 1463.23 Q1322.85 1463.23 1324.31 1460.35 Q1325.8 1457.46 1325.8 1451.68 Q1325.8 1445.89 1324.31 1443.01 Q1322.85 1440.11 1319.89 1440.11 M1319.89 1437.11 Q1324.61 1437.11 1327.1 1440.85 Q1329.6 1444.57 1329.6 1451.68 Q1329.6 1458.77 1327.1 1462.51 Q1324.61 1466.24 1319.89 1466.24 Q1315.17 1466.24 1312.67 1462.51 Q1310.19 1458.77 1310.19 1451.68 Q1310.19 1444.57 1312.67 1440.85 Q1315.17 1437.11 1319.89 1437.11 Z" fill="#000000" fill-rule="evenodd" fill-opacity="1" /><path clip-path="url(#clip270)" d="M 0 0 M1333.72 1460.92 L1337.69 1460.92 L1337.69 1465.69 L1333.72 1465.69 L1333.72 1460.92 Z" fill="#000000" fill-rule="evenodd" fill-opacity="1" /><path clip-path="url(#clip270)" d="M 0 0 M1341.84 1437.61 L1356.76 1437.61 L1356.76 1440.81 L1345.32 1440.81 L1345.32 1447.69 Q1346.15 1447.41 1346.98 1447.28 Q1347.8 1447.13 1348.63 1447.13 Q1353.33 1447.13 1356.08 1449.71 Q1358.83 1452.28 1358.83 1456.68 Q1358.83 1461.22 1356 1463.74 Q1353.18 1466.24 1348.05 1466.24 Q1346.28 1466.24 1344.44 1465.94 Q1342.61 1465.64 1340.66 1465.04 L1340.66 1461.22 Q1342.35 1462.14 1344.16 1462.59 Q1345.96 1463.04 1347.97 1463.04 Q1351.23 1463.04 1353.13 1461.33 Q1355.03 1459.62 1355.03 1456.68 Q1355.03 1453.75 1353.13 1452.04 Q1351.23 1450.33 1347.97 1450.33 Q1346.45 1450.33 1344.93 1450.67 Q1343.42 1451 1341.84 1451.72 L1341.84 1437.61 Z" fill="#000000" fill-rule="evenodd" fill-opacity="1" /><path clip-path="url(#clip270)" d="M 0 0 M1371.07 1440.11 Q1368.14 1440.11 1366.65 1443.01 Q1365.18 1445.89 1365.18 1451.68 Q1365.18 1457.46 1366.65 1460.35 Q1368.14 1463.23 1371.07 1463.23 Q1374.02 1463.23 1375.49 1460.35 Q1376.97 1457.46 1376.97 1451.68 Q1376.97 1445.89 1375.49 1443.01 Q1374.02 1440.11 1371.07 1440.11 M1371.07 1437.11 Q1375.79 1437.11 1378.27 1440.85 Q1380.77 1444.57 1380.77 1451.68 Q1380.77 1458.77 1378.27 1462.51 Q1375.79 1466.24 1371.07 1466.24 Q1366.35 1466.24 1363.85 1462.51 Q1361.36 1458.77 1361.36 1451.68 Q1361.36 1444.57 1363.85 1440.85 Q1366.35 1437.11 1371.07 1437.11 Z" fill="#000000" fill-rule="evenodd" fill-opacity="1" /><path clip-path="url(#clip270)" d="M 0 0 M1729.91 1489.17 L1737.54 1489.17 L1737.54 1462.8 L1729.23 1464.47 L1729.23 1460.21 L1737.5 1458.54 L1742.17 1458.54 L1742.17 1489.17 L1749.81 1489.17 L1749.81 1493.1 L1729.91 1493.1 L1729.91 1489.17 Z" fill="#000000" fill-rule="evenodd" fill-opacity="1" /><path clip-path="url(#clip270)" d="M 0 0 M1764.88 1461.62 Q1761.27 1461.62 1759.44 1465.19 Q1757.64 1468.73 1757.64 1475.86 Q1757.64 1482.97 1759.44 1486.53 Q1761.27 1490.07 1764.88 1490.07 Q1768.52 1490.07 1770.32 1486.53 Q1772.15 1482.97 1772.15 1475.86 Q1772.15 1468.73 1770.32 1465.19 Q1768.52 1461.62 1764.88 1461.62 M1764.88 1457.92 Q1770.69 1457.92 1773.75 1462.53 Q1776.83 1467.11 1776.83 1475.86 Q1776.83 1484.59 1773.75 1489.19 Q1770.69 1493.78 1764.88 1493.78 Q1759.07 1493.78 1755.99 1489.19 Q1752.94 1484.59 1752.94 1475.86 Q1752.94 1467.11 1755.99 1462.53 Q1759.07 1457.92 1764.88 1457.92 Z" fill="#000000" fill-rule="evenodd" fill-opacity="1" /><path clip-path="url(#clip270)" d="M 0 0 M1776.83 1452.02 L1800.94 1452.02 L1800.94 1455.22 L1776.83 1455.22 L1776.83 1452.02 Z" fill="#000000" fill-rule="evenodd" fill-opacity="1" /><path clip-path="url(#clip270)" d="M 0 0 M1813.18 1440.11 Q1810.25 1440.11 1808.76 1443.01 Q1807.29 1445.89 1807.29 1451.68 Q1807.29 1457.46 1808.76 1460.35 Q1810.25 1463.23 1813.18 1463.23 Q1816.13 1463.23 1817.6 1460.35 Q1819.09 1457.46 1819.09 1451.68 Q1819.09 1445.89 1817.6 1443.01 Q1816.13 1440.11 1813.18 1440.11 M1813.18 1437.11 Q1817.9 1437.11 1820.39 1440.85 Q1822.89 1444.57 1822.89 1451.68 Q1822.89 1458.77 1820.39 1462.51 Q1817.9 1466.24 1813.18 1466.24 Q1808.46 1466.24 1805.96 1462.51 Q1803.48 1458.77 1803.48 1451.68 Q1803.48 1444.57 1805.96 1440.85 Q1808.46 1437.11 1813.18 1437.11 Z" fill="#000000" fill-rule="evenodd" fill-opacity="1" /><path clip-path="url(#clip270)" d="M 0 0 M1827.01 1460.92 L1830.97 1460.92 L1830.97 1465.69 L1827.01 1465.69 L1827.01 1460.92 Z" fill="#000000" fill-rule="evenodd" fill-opacity="1" /><path clip-path="url(#clip270)" d="M 0 0 M1838.37 1462.5 L1851.62 1462.5 L1851.62 1465.69 L1833.8 1465.69 L1833.8 1462.5 Q1835.96 1460.26 1839.68 1456.5 Q1843.42 1452.72 1844.38 1451.63 Q1846.21 1449.58 1846.92 1448.16 Q1847.66 1446.74 1847.66 1445.36 Q1847.66 1443.12 1846.08 1441.71 Q1844.52 1440.3 1842 1440.3 Q1840.21 1440.3 1838.21 1440.92 Q1836.24 1441.54 1833.98 1442.8 L1833.98 1438.97 Q1836.28 1438.05 1838.27 1437.58 Q1840.26 1437.11 1841.92 1437.11 Q1846.28 1437.11 1848.88 1439.29 Q1851.47 1441.47 1851.47 1445.12 Q1851.47 1446.85 1850.82 1448.41 Q1850.18 1449.95 1848.47 1452.06 Q1847.99 1452.6 1845.47 1455.22 Q1842.95 1457.81 1838.37 1462.5 Z" fill="#000000" fill-rule="evenodd" fill-opacity="1" /><path clip-path="url(#clip270)" d="M 0 0 M1855.78 1437.61 L1870.7 1437.61 L1870.7 1440.81 L1859.26 1440.81 L1859.26 1447.69 Q1860.09 1447.41 1860.92 1447.28 Q1861.74 1447.13 1862.57 1447.13 Q1867.27 1447.13 1870.02 1449.71 Q1872.76 1452.28 1872.76 1456.68 Q1872.76 1461.22 1869.94 1463.74 Q1867.12 1466.24 1861.99 1466.24 Q1860.22 1466.24 1858.38 1465.94 Q1856.55 1465.64 1854.6 1465.04 L1854.6 1461.22 Q1856.29 1462.14 1858.09 1462.59 Q1859.9 1463.04 1861.91 1463.04 Q1865.17 1463.04 1867.07 1461.33 Q1868.97 1459.62 1868.97 1456.68 Q1868.97 1453.75 1867.07 1452.04 Q1865.17 1450.33 1861.91 1450.33 Q1860.39 1450.33 1858.87 1450.67 Q1857.36 1451 1855.78 1451.72 L1855.78 1437.61 Z" fill="#000000" fill-rule="evenodd" fill-opacity="1" /><path clip-path="url(#clip270)" d="M 0 0 M2234.82 1489.17 L2242.46 1489.17 L2242.46 1462.8 L2234.15 1464.47 L2234.15 1460.21 L2242.41 1458.54 L2247.09 1458.54 L2247.09 1489.17 L2254.72 1489.17 L2254.72 1493.1 L2234.82 1493.1 L2234.82 1489.17 Z" fill="#000000" fill-rule="evenodd" fill-opacity="1" /><path clip-path="url(#clip270)" d="M 0 0 M2269.79 1461.62 Q2266.18 1461.62 2264.35 1465.19 Q2262.55 1468.73 2262.55 1475.86 Q2262.55 1482.97 2264.35 1486.53 Q2266.18 1490.07 2269.79 1490.07 Q2273.43 1490.07 2275.23 1486.53 Q2277.06 1482.97 2277.06 1475.86 Q2277.06 1468.73 2275.23 1465.19 Q2273.43 1461.62 2269.79 1461.62 M2269.79 1457.92 Q2275.6 1457.92 2278.66 1462.53 Q2281.74 1467.11 2281.74 1475.86 Q2281.74 1484.59 2278.66 1489.19 Q2275.6 1493.78 2269.79 1493.78 Q2263.98 1493.78 2260.9 1489.19 Q2257.85 1484.59 2257.85 1475.86 Q2257.85 1467.11 2260.9 1462.53 Q2263.98 1457.92 2269.79 1457.92 Z" fill="#000000" fill-rule="evenodd" fill-opacity="1" /><path clip-path="url(#clip270)" d="M 0 0 M2291.44 1440.11 Q2288.51 1440.11 2287.02 1443.01 Q2285.56 1445.89 2285.56 1451.68 Q2285.56 1457.46 2287.02 1460.35 Q2288.51 1463.23 2291.44 1463.23 Q2294.4 1463.23 2295.86 1460.35 Q2297.35 1457.46 2297.35 1451.68 Q2297.35 1445.89 2295.86 1443.01 Q2294.4 1440.11 2291.44 1440.11 M2291.44 1437.11 Q2296.16 1437.11 2298.65 1440.85 Q2301.15 1444.57 2301.15 1451.68 Q2301.15 1458.77 2298.65 1462.51 Q2296.16 1466.24 2291.44 1466.24 Q2286.72 1466.24 2284.22 1462.51 Q2281.74 1458.77 2281.74 1451.68 Q2281.74 1444.57 2284.22 1440.85 Q2286.72 1437.11 2291.44 1437.11 Z" fill="#000000" fill-rule="evenodd" fill-opacity="1" /><path clip-path="url(#clip270)" d="M 0 0 M2305.27 1460.92 L2309.24 1460.92 L2309.24 1465.69 L2305.27 1465.69 L2305.27 1460.92 Z" fill="#000000" fill-rule="evenodd" fill-opacity="1" /><path clip-path="url(#clip270)" d="M 0 0 M2321.48 1440.11 Q2318.54 1440.11 2317.06 1443.01 Q2315.59 1445.89 2315.59 1451.68 Q2315.59 1457.46 2317.06 1460.35 Q2318.54 1463.23 2321.48 1463.23 Q2324.43 1463.23 2325.9 1460.35 Q2327.38 1457.46 2327.38 1451.68 Q2327.38 1445.89 2325.9 1443.01 Q2324.43 1440.11 2321.48 1440.11 M2321.48 1437.11 Q2326.2 1437.11 2328.68 1440.85 Q2331.18 1444.57 2331.18 1451.68 Q2331.18 1458.77 2328.68 1462.51 Q2326.2 1466.24 2321.48 1466.24 Q2316.76 1466.24 2314.26 1462.51 Q2311.77 1458.77 2311.77 1451.68 Q2311.77 1444.57 2314.26 1440.85 Q2316.76 1437.11 2321.48 1437.11 Z" fill="#000000" fill-rule="evenodd" fill-opacity="1" /><path clip-path="url(#clip270)" d="M 0 0 M2343.43 1440.11 Q2340.49 1440.11 2339.01 1443.01 Q2337.54 1445.89 2337.54 1451.68 Q2337.54 1457.46 2339.01 1460.35 Q2340.49 1463.23 2343.43 1463.23 Q2346.38 1463.23 2347.85 1460.35 Q2349.33 1457.46 2349.33 1451.68 Q2349.33 1445.89 2347.85 1443.01 Q2346.38 1440.11 2343.43 1440.11 M2343.43 1437.11 Q2348.15 1437.11 2350.63 1440.85 Q2353.13 1444.57 2353.13 1451.68 Q2353.13 1458.77 2350.63 1462.51 Q2348.15 1466.24 2343.43 1466.24 Q2338.71 1466.24 2336.21 1462.51 Q2333.72 1458.77 2333.72 1451.68 Q2333.72 1444.57 2336.21 1440.85 Q2338.71 1437.11 2343.43 1437.11 Z" fill="#000000" fill-rule="evenodd" fill-opacity="1" /><path clip-path="url(#clip270)" d="M 0 0 M1200.64 1526.54 L1206.84 1526.54 L1217.98 1556.46 L1229.12 1526.54 L1235.33 1526.54 L1221.96 1562.19 L1214 1562.19 L1200.64 1526.54 Z" fill="#000000" fill-rule="evenodd" fill-opacity="1" /><path clip-path="url(#clip270)" d="M 0 0 M1268.56 1573.01 L1268.56 1577.56 L1234.69 1577.56 L1234.69 1573.01 L1268.56 1573.01 Z" fill="#000000" fill-rule="evenodd" fill-opacity="1" /><path clip-path="url(#clip270)" d="M 0 0 M1300.35 1527.91 L1300.35 1533.38 Q1297.87 1532.01 1295.36 1531.34 Q1292.87 1530.64 1290.33 1530.64 Q1284.63 1530.64 1281.48 1534.27 Q1278.33 1537.87 1278.33 1544.39 Q1278.33 1550.92 1281.48 1554.55 Q1284.63 1558.14 1290.33 1558.14 Q1292.87 1558.14 1295.36 1557.47 Q1297.87 1556.77 1300.35 1555.41 L1300.35 1560.82 Q1297.9 1561.96 1295.26 1562.54 Q1292.65 1563.11 1289.69 1563.11 Q1281.64 1563.11 1276.9 1558.05 Q1272.15 1552.99 1272.15 1544.39 Q1272.15 1535.67 1276.93 1530.68 Q1281.74 1525.68 1290.07 1525.68 Q1292.78 1525.68 1295.36 1526.25 Q1297.94 1526.79 1300.35 1527.91 Z" fill="#000000" fill-rule="evenodd" fill-opacity="1" /><path clip-path="url(#clip270)" d="M 0 0 M1306.5 1512.66 L1312.35 1512.66 L1312.35 1562.19 L1306.5 1562.19 L1306.5 1512.66 Z" fill="#000000" fill-rule="evenodd" fill-opacity="1" /><path clip-path="url(#clip270)" d="M 0 0 M1332.31 1530.64 Q1327.6 1530.64 1324.86 1534.34 Q1322.13 1538 1322.13 1544.39 Q1322.13 1550.79 1324.83 1554.48 Q1327.57 1558.14 1332.31 1558.14 Q1336.99 1558.14 1339.73 1554.45 Q1342.46 1550.76 1342.46 1544.39 Q1342.46 1538.06 1339.73 1534.37 Q1336.99 1530.64 1332.31 1530.64 M1332.31 1525.68 Q1339.95 1525.68 1344.31 1530.64 Q1348.67 1535.61 1348.67 1544.39 Q1348.67 1553.15 1344.31 1558.14 Q1339.95 1563.11 1332.31 1563.11 Q1324.64 1563.11 1320.28 1558.14 Q1315.95 1553.15 1315.95 1544.39 Q1315.95 1535.61 1320.28 1530.64 Q1324.64 1525.68 1332.31 1525.68 Z" fill="#000000" fill-rule="evenodd" fill-opacity="1" /><path clip-path="url(#clip270)" d="M 0 0 M1377.54 1527.59 L1377.54 1533.13 Q1375.06 1531.85 1372.38 1531.22 Q1369.71 1530.58 1366.84 1530.58 Q1362.48 1530.58 1360.29 1531.92 Q1358.12 1533.25 1358.12 1535.93 Q1358.12 1537.96 1359.68 1539.14 Q1361.24 1540.29 1365.95 1541.34 L1367.96 1541.78 Q1374.2 1543.12 1376.81 1545.57 Q1379.45 1547.99 1379.45 1552.35 Q1379.45 1557.32 1375.5 1560.21 Q1371.59 1563.11 1364.71 1563.11 Q1361.85 1563.11 1358.73 1562.54 Q1355.64 1561.99 1352.2 1560.88 L1352.2 1554.83 Q1355.45 1556.52 1358.6 1557.38 Q1361.75 1558.21 1364.84 1558.21 Q1368.98 1558.21 1371.21 1556.81 Q1373.43 1555.37 1373.43 1552.8 Q1373.43 1550.41 1371.81 1549.14 Q1370.22 1547.86 1364.78 1546.68 L1362.74 1546.21 Q1357.3 1545.06 1354.88 1542.71 Q1352.46 1540.32 1352.46 1536.18 Q1352.46 1531.15 1356.02 1528.42 Q1359.59 1525.68 1366.14 1525.68 Q1369.39 1525.68 1372.26 1526.16 Q1375.12 1526.63 1377.54 1527.59 Z" fill="#000000" fill-rule="evenodd" fill-opacity="1" /><path clip-path="url(#clip270)" d="M 0 0 M1416.08 1542.9 L1416.08 1545.76 L1389.16 1545.76 Q1389.54 1551.81 1392.78 1554.99 Q1396.06 1558.14 1401.89 1558.14 Q1405.26 1558.14 1408.41 1557.32 Q1411.6 1556.49 1414.71 1554.83 L1414.71 1560.37 Q1411.56 1561.71 1408.25 1562.41 Q1404.94 1563.11 1401.54 1563.11 Q1393.01 1563.11 1388.01 1558.14 Q1383.05 1553.18 1383.05 1544.71 Q1383.05 1535.96 1387.76 1530.83 Q1392.5 1525.68 1400.52 1525.68 Q1407.71 1525.68 1411.88 1530.33 Q1416.08 1534.94 1416.08 1542.9 M1410.23 1541.18 Q1410.16 1536.37 1407.52 1533.51 Q1404.91 1530.64 1400.58 1530.64 Q1395.68 1530.64 1392.72 1533.41 Q1389.79 1536.18 1389.35 1541.21 L1410.23 1541.18 Z" fill="#000000" fill-rule="evenodd" fill-opacity="1" /><polyline clip-path="url(#clip272)" style="stroke:#000000; stroke-width:2; stroke-opacity:0.1; fill:none" points="
  263.963,1281.03 2352.76,1281.03 
  "/>
<polyline clip-path="url(#clip272)" style="stroke:#000000; stroke-width:2; stroke-opacity:0.1; fill:none" points="
  263.963,973.254 2352.76,973.254 
  "/>
<polyline clip-path="url(#clip272)" style="stroke:#000000; stroke-width:2; stroke-opacity:0.1; fill:none" points="
  263.963,665.481 2352.76,665.481 
  "/>
<polyline clip-path="url(#clip272)" style="stroke:#000000; stroke-width:2; stroke-opacity:0.1; fill:none" points="
  263.963,357.708 2352.76,357.708 
  "/>
<polyline clip-path="url(#clip272)" style="stroke:#000000; stroke-width:2; stroke-opacity:0.1; fill:none" points="
  263.963,49.9346 2352.76,49.9346 
  "/>
<polyline clip-path="url(#clip270)" style="stroke:#000000; stroke-width:4; stroke-opacity:1; fill:none" points="
  263.963,1410.9 263.963,47.2441 
  "/>
<polyline clip-path="url(#clip270)" style="stroke:#000000; stroke-width:4; stroke-opacity:1; fill:none" points="
  263.963,1281.03 289.029,1281.03 
  "/>
<polyline clip-path="url(#clip270)" style="stroke:#000000; stroke-width:4; stroke-opacity:1; fill:none" points="
  263.963,973.254 289.029,973.254 
  "/>
<polyline clip-path="url(#clip270)" style="stroke:#000000; stroke-width:4; stroke-opacity:1; fill:none" points="
  263.963,665.481 289.029,665.481 
  "/>
<polyline clip-path="url(#clip270)" style="stroke:#000000; stroke-width:4; stroke-opacity:1; fill:none" points="
  263.963,357.708 289.029,357.708 
  "/>
<polyline clip-path="url(#clip270)" style="stroke:#000000; stroke-width:4; stroke-opacity:1; fill:none" points="
  263.963,49.9346 289.029,49.9346 
  "/>
<path clip-path="url(#clip270)" d="M 0 0 M126.205 1266.83 Q122.593 1266.83 120.765 1270.39 Q118.959 1273.93 118.959 1281.06 Q118.959 1288.17 120.765 1291.73 Q122.593 1295.27 126.205 1295.27 Q129.839 1295.27 131.644 1291.73 Q133.473 1288.17 133.473 1281.06 Q133.473 1273.93 131.644 1270.39 Q129.839 1266.83 126.205 1266.83 M126.205 1263.12 Q132.015 1263.12 135.07 1267.73 Q138.149 1272.31 138.149 1281.06 Q138.149 1289.79 135.07 1294.4 Q132.015 1298.98 126.205 1298.98 Q120.394 1298.98 117.316 1294.4 Q114.26 1289.79 114.26 1281.06 Q114.26 1272.31 117.316 1267.73 Q120.394 1263.12 126.205 1263.12 Z" fill="#000000" fill-rule="evenodd" fill-opacity="1" /><path clip-path="url(#clip270)" d="M 0 0 M143.218 1292.43 L148.103 1292.43 L148.103 1298.31 L143.218 1298.31 L143.218 1292.43 Z" fill="#000000" fill-rule="evenodd" fill-opacity="1" /><path clip-path="url(#clip270)" d="M 0 0 M153.311 1297.59 L153.311 1293.33 Q155.07 1294.16 156.876 1294.6 Q158.681 1295.04 160.417 1295.04 Q165.047 1295.04 167.477 1291.94 Q169.931 1288.82 170.278 1282.47 Q168.936 1284.46 166.876 1285.53 Q164.815 1286.59 162.315 1286.59 Q157.13 1286.59 154.098 1283.47 Q151.089 1280.32 151.089 1274.88 Q151.089 1269.56 154.237 1266.34 Q157.385 1263.12 162.616 1263.12 Q168.612 1263.12 171.76 1267.73 Q174.931 1272.31 174.931 1281.06 Q174.931 1289.23 171.042 1294.12 Q167.177 1298.98 160.626 1298.98 Q158.866 1298.98 157.061 1298.63 Q155.255 1298.28 153.311 1297.59 M162.616 1282.94 Q165.765 1282.94 167.593 1280.78 Q169.445 1278.63 169.445 1274.88 Q169.445 1271.15 167.593 1269 Q165.765 1266.83 162.616 1266.83 Q159.468 1266.83 157.616 1269 Q155.788 1271.15 155.788 1274.88 Q155.788 1278.63 157.616 1280.78 Q159.468 1282.94 162.616 1282.94 Z" fill="#000000" fill-rule="evenodd" fill-opacity="1" /><path clip-path="url(#clip270)" d="M 0 0 M180.047 1263.75 L198.403 1263.75 L198.403 1267.68 L184.329 1267.68 L184.329 1276.15 Q185.348 1275.81 186.366 1275.65 Q187.385 1275.46 188.403 1275.46 Q194.19 1275.46 197.57 1278.63 Q200.95 1281.8 200.95 1287.22 Q200.95 1292.8 197.477 1295.9 Q194.005 1298.98 187.686 1298.98 Q185.51 1298.98 183.241 1298.61 Q180.996 1298.24 178.589 1297.5 L178.589 1292.8 Q180.672 1293.93 182.894 1294.49 Q185.116 1295.04 187.593 1295.04 Q191.598 1295.04 193.936 1292.94 Q196.274 1290.83 196.274 1287.22 Q196.274 1283.61 193.936 1281.5 Q191.598 1279.4 187.593 1279.4 Q185.718 1279.4 183.843 1279.81 Q181.991 1280.23 180.047 1281.11 L180.047 1263.75 Z" fill="#000000" fill-rule="evenodd" fill-opacity="1" /><path clip-path="url(#clip270)" d="M 0 0 M216.019 1266.83 Q212.408 1266.83 210.579 1270.39 Q208.774 1273.93 208.774 1281.06 Q208.774 1288.17 210.579 1291.73 Q212.408 1295.27 216.019 1295.27 Q219.653 1295.27 221.459 1291.73 Q223.287 1288.17 223.287 1281.06 Q223.287 1273.93 221.459 1270.39 Q219.653 1266.83 216.019 1266.83 M216.019 1263.12 Q221.829 1263.12 224.885 1267.73 Q227.963 1272.31 227.963 1281.06 Q227.963 1289.79 224.885 1294.4 Q221.829 1298.98 216.019 1298.98 Q210.209 1298.98 207.13 1294.4 Q204.074 1289.79 204.074 1281.06 Q204.074 1272.31 207.13 1267.73 Q210.209 1263.12 216.019 1263.12 Z" fill="#000000" fill-rule="evenodd" fill-opacity="1" /><path clip-path="url(#clip270)" d="M 0 0 M127.107 959.053 Q123.496 959.053 121.668 962.618 Q119.862 966.159 119.862 973.289 Q119.862 980.395 121.668 983.96 Q123.496 987.502 127.107 987.502 Q130.742 987.502 132.547 983.96 Q134.376 980.395 134.376 973.289 Q134.376 966.159 132.547 962.618 Q130.742 959.053 127.107 959.053 M127.107 955.349 Q132.917 955.349 135.973 959.956 Q139.052 964.539 139.052 973.289 Q139.052 982.016 135.973 986.622 Q132.917 991.205 127.107 991.205 Q121.297 991.205 118.218 986.622 Q115.163 982.016 115.163 973.289 Q115.163 964.539 118.218 959.956 Q121.297 955.349 127.107 955.349 Z" fill="#000000" fill-rule="evenodd" fill-opacity="1" /><path clip-path="url(#clip270)" d="M 0 0 M144.121 984.655 L149.005 984.655 L149.005 990.534 L144.121 990.534 L144.121 984.655 Z" fill="#000000" fill-rule="evenodd" fill-opacity="1" /><path clip-path="url(#clip270)" d="M 0 0 M154.214 989.817 L154.214 985.557 Q155.973 986.391 157.778 986.83 Q159.584 987.27 161.32 987.27 Q165.95 987.27 168.38 984.168 Q170.834 981.043 171.181 974.701 Q169.839 976.692 167.778 977.756 Q165.718 978.821 163.218 978.821 Q158.033 978.821 155.001 975.696 Q151.991 972.548 151.991 967.108 Q151.991 961.784 155.14 958.567 Q158.288 955.349 163.519 955.349 Q169.514 955.349 172.663 959.956 Q175.834 964.539 175.834 973.289 Q175.834 981.46 171.945 986.344 Q168.079 991.205 161.528 991.205 Q159.769 991.205 157.964 990.858 Q156.158 990.511 154.214 989.817 M163.519 975.164 Q166.667 975.164 168.496 973.011 Q170.348 970.858 170.348 967.108 Q170.348 963.382 168.496 961.229 Q166.667 959.053 163.519 959.053 Q160.371 959.053 158.519 961.229 Q156.69 963.382 156.69 967.108 Q156.69 970.858 158.519 973.011 Q160.371 975.164 163.519 975.164 Z" fill="#000000" fill-rule="evenodd" fill-opacity="1" /><path clip-path="url(#clip270)" d="M 0 0 M179.723 955.974 L201.945 955.974 L201.945 957.965 L189.399 990.534 L184.514 990.534 L196.32 959.909 L179.723 959.909 L179.723 955.974 Z" fill="#000000" fill-rule="evenodd" fill-opacity="1" /><path clip-path="url(#clip270)" d="M 0 0 M207.061 955.974 L225.417 955.974 L225.417 959.909 L211.343 959.909 L211.343 968.382 Q212.361 968.034 213.38 967.872 Q214.399 967.687 215.417 967.687 Q221.204 967.687 224.584 970.858 Q227.963 974.03 227.963 979.446 Q227.963 985.025 224.491 988.127 Q221.019 991.205 214.699 991.205 Q212.524 991.205 210.255 990.835 Q208.01 990.465 205.602 989.724 L205.602 985.025 Q207.686 986.159 209.908 986.715 Q212.13 987.27 214.607 987.27 Q218.611 987.27 220.949 985.164 Q223.287 983.057 223.287 979.446 Q223.287 975.835 220.949 973.729 Q218.611 971.622 214.607 971.622 Q212.732 971.622 210.857 972.039 Q209.005 972.456 207.061 973.335 L207.061 955.974 Z" fill="#000000" fill-rule="evenodd" fill-opacity="1" /><path clip-path="url(#clip270)" d="M 0 0 M117.061 678.826 L124.7 678.826 L124.7 652.46 L116.39 654.127 L116.39 649.868 L124.654 648.201 L129.33 648.201 L129.33 678.826 L136.968 678.826 L136.968 682.761 L117.061 682.761 L117.061 678.826 Z" fill="#000000" fill-rule="evenodd" fill-opacity="1" /><path clip-path="url(#clip270)" d="M 0 0 M142.038 676.881 L146.922 676.881 L146.922 682.761 L142.038 682.761 L142.038 676.881 Z" fill="#000000" fill-rule="evenodd" fill-opacity="1" /><path clip-path="url(#clip270)" d="M 0 0 M161.991 651.28 Q158.38 651.28 156.552 654.844 Q154.746 658.386 154.746 665.516 Q154.746 672.622 156.552 676.187 Q158.38 679.729 161.991 679.729 Q165.626 679.729 167.431 676.187 Q169.26 672.622 169.26 665.516 Q169.26 658.386 167.431 654.844 Q165.626 651.28 161.991 651.28 M161.991 647.576 Q167.802 647.576 170.857 652.182 Q173.936 656.766 173.936 665.516 Q173.936 674.243 170.857 678.849 Q167.802 683.432 161.991 683.432 Q156.181 683.432 153.103 678.849 Q150.047 674.243 150.047 665.516 Q150.047 656.766 153.103 652.182 Q156.181 647.576 161.991 647.576 Z" fill="#000000" fill-rule="evenodd" fill-opacity="1" /><path clip-path="url(#clip270)" d="M 0 0 M189.005 651.28 Q185.394 651.28 183.565 654.844 Q181.76 658.386 181.76 665.516 Q181.76 672.622 183.565 676.187 Q185.394 679.729 189.005 679.729 Q192.639 679.729 194.445 676.187 Q196.274 672.622 196.274 665.516 Q196.274 658.386 194.445 654.844 Q192.639 651.28 189.005 651.28 M189.005 647.576 Q194.815 647.576 197.871 652.182 Q200.95 656.766 200.95 665.516 Q200.95 674.243 197.871 678.849 Q194.815 683.432 189.005 683.432 Q183.195 683.432 180.116 678.849 Q177.061 674.243 177.061 665.516 Q177.061 656.766 180.116 652.182 Q183.195 647.576 189.005 647.576 Z" fill="#000000" fill-rule="evenodd" fill-opacity="1" /><path clip-path="url(#clip270)" d="M 0 0 M216.019 651.28 Q212.408 651.28 210.579 654.844 Q208.774 658.386 208.774 665.516 Q208.774 672.622 210.579 676.187 Q212.408 679.729 216.019 679.729 Q219.653 679.729 221.459 676.187 Q223.287 672.622 223.287 665.516 Q223.287 658.386 221.459 654.844 Q219.653 651.28 216.019 651.28 M216.019 647.576 Q221.829 647.576 224.885 652.182 Q227.963 656.766 227.963 665.516 Q227.963 674.243 224.885 678.849 Q221.829 683.432 216.019 683.432 Q210.209 683.432 207.13 678.849 Q204.074 674.243 204.074 665.516 Q204.074 656.766 207.13 652.182 Q210.209 647.576 216.019 647.576 Z" fill="#000000" fill-rule="evenodd" fill-opacity="1" /><path clip-path="url(#clip270)" d="M 0 0 M119.654 371.053 L127.292 371.053 L127.292 344.687 L118.982 346.354 L118.982 342.094 L127.246 340.428 L131.922 340.428 L131.922 371.053 L139.561 371.053 L139.561 374.988 L119.654 374.988 L119.654 371.053 Z" fill="#000000" fill-rule="evenodd" fill-opacity="1" /><path clip-path="url(#clip270)" d="M 0 0 M144.63 369.108 L149.515 369.108 L149.515 374.988 L144.63 374.988 L144.63 369.108 Z" fill="#000000" fill-rule="evenodd" fill-opacity="1" /><path clip-path="url(#clip270)" d="M 0 0 M164.584 343.507 Q160.973 343.507 159.144 347.071 Q157.339 350.613 157.339 357.743 Q157.339 364.849 159.144 368.414 Q160.973 371.955 164.584 371.955 Q168.218 371.955 170.024 368.414 Q171.852 364.849 171.852 357.743 Q171.852 350.613 170.024 347.071 Q168.218 343.507 164.584 343.507 M164.584 339.803 Q170.394 339.803 173.45 344.409 Q176.528 348.993 176.528 357.743 Q176.528 366.469 173.45 371.076 Q170.394 375.659 164.584 375.659 Q158.774 375.659 155.695 371.076 Q152.64 366.469 152.64 357.743 Q152.64 348.993 155.695 344.409 Q158.774 339.803 164.584 339.803 Z" fill="#000000" fill-rule="evenodd" fill-opacity="1" /><path clip-path="url(#clip270)" d="M 0 0 M185.626 371.053 L201.945 371.053 L201.945 374.988 L180.001 374.988 L180.001 371.053 Q182.663 368.298 187.246 363.668 Q191.852 359.016 193.033 357.673 Q195.278 355.15 196.158 353.414 Q197.061 351.655 197.061 349.965 Q197.061 347.21 195.116 345.474 Q193.195 343.738 190.093 343.738 Q187.894 343.738 185.44 344.502 Q183.01 345.266 180.232 346.817 L180.232 342.094 Q183.056 340.96 185.51 340.382 Q187.963 339.803 190 339.803 Q195.371 339.803 198.565 342.488 Q201.76 345.173 201.76 349.664 Q201.76 351.794 200.95 353.715 Q200.162 355.613 198.056 358.206 Q197.477 358.877 194.375 362.094 Q191.274 365.289 185.626 371.053 Z" fill="#000000" fill-rule="evenodd" fill-opacity="1" /><path clip-path="url(#clip270)" d="M 0 0 M207.061 340.428 L225.417 340.428 L225.417 344.363 L211.343 344.363 L211.343 352.835 Q212.361 352.488 213.38 352.326 Q214.399 352.141 215.417 352.141 Q221.204 352.141 224.584 355.312 Q227.963 358.483 227.963 363.9 Q227.963 369.479 224.491 372.58 Q221.019 375.659 214.699 375.659 Q212.524 375.659 210.255 375.289 Q208.01 374.918 205.602 374.178 L205.602 369.479 Q207.686 370.613 209.908 371.168 Q212.13 371.724 214.607 371.724 Q218.611 371.724 220.949 369.617 Q223.287 367.511 223.287 363.9 Q223.287 360.289 220.949 358.182 Q218.611 356.076 214.607 356.076 Q212.732 356.076 210.857 356.493 Q209.005 356.909 207.061 357.789 L207.061 340.428 Z" fill="#000000" fill-rule="evenodd" fill-opacity="1" /><path clip-path="url(#clip270)" d="M 0 0 M118.056 63.2795 L125.695 63.2795 L125.695 36.9139 L117.385 38.5805 L117.385 34.3213 L125.649 32.6546 L130.325 32.6546 L130.325 63.2795 L137.964 63.2795 L137.964 67.2146 L118.056 67.2146 L118.056 63.2795 Z" fill="#000000" fill-rule="evenodd" fill-opacity="1" /><path clip-path="url(#clip270)" d="M 0 0 M143.033 61.335 L147.917 61.335 L147.917 67.2146 L143.033 67.2146 L143.033 61.335 Z" fill="#000000" fill-rule="evenodd" fill-opacity="1" /><path clip-path="url(#clip270)" d="M 0 0 M162.987 35.7333 Q159.376 35.7333 157.547 39.2981 Q155.741 42.8398 155.741 49.9694 Q155.741 57.0758 157.547 60.6406 Q159.376 64.1823 162.987 64.1823 Q166.621 64.1823 168.427 60.6406 Q170.255 57.0758 170.255 49.9694 Q170.255 42.8398 168.427 39.2981 Q166.621 35.7333 162.987 35.7333 M162.987 32.0297 Q168.797 32.0297 171.852 36.6361 Q174.931 41.2194 174.931 49.9694 Q174.931 58.6962 171.852 63.3026 Q168.797 67.8859 162.987 67.8859 Q157.177 67.8859 154.098 63.3026 Q151.042 58.6962 151.042 49.9694 Q151.042 41.2194 154.098 36.6361 Q157.177 32.0297 162.987 32.0297 Z" fill="#000000" fill-rule="evenodd" fill-opacity="1" /><path clip-path="url(#clip270)" d="M 0 0 M180.047 32.6546 L198.403 32.6546 L198.403 36.5898 L184.329 36.5898 L184.329 45.062 Q185.348 44.7148 186.366 44.5527 Q187.385 44.3675 188.403 44.3675 Q194.19 44.3675 197.57 47.5388 Q200.95 50.7101 200.95 56.1267 Q200.95 61.7054 197.477 64.8073 Q194.005 67.8859 187.686 67.8859 Q185.51 67.8859 183.241 67.5156 Q180.996 67.1452 178.589 66.4045 L178.589 61.7054 Q180.672 62.8397 182.894 63.3952 Q185.116 63.9508 187.593 63.9508 Q191.598 63.9508 193.936 61.8443 Q196.274 59.7378 196.274 56.1267 Q196.274 52.5157 193.936 50.4092 Q191.598 48.3027 187.593 48.3027 Q185.718 48.3027 183.843 48.7194 Q181.991 49.136 180.047 50.0157 L180.047 32.6546 Z" fill="#000000" fill-rule="evenodd" fill-opacity="1" /><path clip-path="url(#clip270)" d="M 0 0 M216.019 35.7333 Q212.408 35.7333 210.579 39.2981 Q208.774 42.8398 208.774 49.9694 Q208.774 57.0758 210.579 60.6406 Q212.408 64.1823 216.019 64.1823 Q219.653 64.1823 221.459 60.6406 Q223.287 57.0758 223.287 49.9694 Q223.287 42.8398 221.459 39.2981 Q219.653 35.7333 216.019 35.7333 M216.019 32.0297 Q221.829 32.0297 224.885 36.6361 Q227.963 41.2194 227.963 49.9694 Q227.963 58.6962 224.885 63.3026 Q221.829 67.8859 216.019 67.8859 Q210.209 67.8859 207.13 63.3026 Q204.074 58.6962 204.074 49.9694 Q204.074 41.2194 207.13 36.6361 Q210.209 32.0297 216.019 32.0297 Z" fill="#000000" fill-rule="evenodd" fill-opacity="1" /><path clip-path="url(#clip270)" d="M 0 0 M59.1993 815.533 Q55.2526 813.336 53.3747 810.281 Q51.4968 807.225 51.4968 803.088 Q51.4968 797.518 55.4117 794.494 Q59.2948 791.47 66.4881 791.47 L88.0042 791.47 L88.0042 797.358 L66.679 797.358 Q61.5546 797.358 59.072 799.173 Q56.5894 800.987 56.5894 804.711 Q56.5894 809.262 59.6131 811.904 Q62.6368 814.546 67.8567 814.546 L88.0042 814.546 L88.0042 820.434 L66.679 820.434 Q61.5228 820.434 59.072 822.248 Q56.5894 824.063 56.5894 827.85 Q56.5894 832.338 59.6449 834.98 Q62.6686 837.622 67.8567 837.622 L88.0042 837.622 L88.0042 843.51 L52.3562 843.51 L52.3562 837.622 L57.8944 837.622 Q54.616 835.616 53.0564 832.815 Q51.4968 830.015 51.4968 826.163 Q51.4968 822.28 53.4702 819.575 Q55.4436 816.838 59.1993 815.533 Z" fill="#000000" fill-rule="evenodd" fill-opacity="1" /><path clip-path="url(#clip270)" d="M 0 0 M52.3562 785.327 L52.3562 779.471 L88.0042 779.471 L88.0042 785.327 L52.3562 785.327 M38.479 785.327 L38.479 779.471 L45.895 779.471 L45.895 785.327 L38.479 785.327 Z" fill="#000000" fill-rule="evenodd" fill-opacity="1" /><path clip-path="url(#clip270)" d="M 0 0 M66.4881 743.696 L88.0042 743.696 L88.0042 749.552 L66.679 749.552 Q61.6183 749.552 59.1038 751.525 Q56.5894 753.499 56.5894 757.446 Q56.5894 762.188 59.6131 764.925 Q62.6368 767.662 67.8567 767.662 L88.0042 767.662 L88.0042 773.551 L52.3562 773.551 L52.3562 767.662 L57.8944 767.662 Q54.6797 765.562 53.0883 762.729 Q51.4968 759.864 51.4968 756.141 Q51.4968 749.998 55.3163 746.847 Q59.1038 743.696 66.4881 743.696 Z" fill="#000000" fill-rule="evenodd" fill-opacity="1" /><path clip-path="url(#clip270)" d="M 0 0 M98.8259 710.467 L103.377 710.467 L103.377 744.332 L98.8259 744.332 L98.8259 710.467 Z" fill="#000000" fill-rule="evenodd" fill-opacity="1" /><path clip-path="url(#clip270)" d="M 0 0 M57.7671 680.866 L38.479 680.866 L38.479 675.01 L88.0042 675.01 L88.0042 680.866 L82.657 680.866 Q85.8398 682.712 87.3994 685.545 Q88.9272 688.346 88.9272 692.292 Q88.9272 698.754 83.771 702.828 Q78.6147 706.87 70.212 706.87 Q61.8093 706.87 56.6531 702.828 Q51.4968 698.754 51.4968 692.292 Q51.4968 688.346 53.0564 685.545 Q54.5842 682.712 57.7671 680.866 M70.212 700.823 Q76.6732 700.823 80.3653 698.181 Q84.0256 695.507 84.0256 690.86 Q84.0256 686.213 80.3653 683.54 Q76.6732 680.866 70.212 680.866 Q63.7508 680.866 60.0905 683.54 Q56.3984 686.213 56.3984 690.86 Q56.3984 695.507 60.0905 698.181 Q63.7508 700.823 70.212 700.823 Z" fill="#000000" fill-rule="evenodd" fill-opacity="1" /><path clip-path="url(#clip270)" d="M 0 0 M52.3562 668.867 L52.3562 663.01 L88.0042 663.01 L88.0042 668.867 L52.3562 668.867 M38.479 668.867 L38.479 663.01 L45.895 663.01 L45.895 668.867 L38.479 668.867 Z" fill="#000000" fill-rule="evenodd" fill-opacity="1" /><path clip-path="url(#clip270)" d="M 0 0 M38.479 638.821 L43.3487 638.821 L43.3487 644.422 Q43.3487 647.573 44.6219 648.815 Q45.895 650.024 49.2052 650.024 L52.3562 650.024 L52.3562 640.38 L56.9077 640.38 L56.9077 650.024 L88.0042 650.024 L88.0042 655.912 L56.9077 655.912 L56.9077 661.514 L52.3562 661.514 L52.3562 655.912 L49.8736 655.912 Q43.9216 655.912 41.2162 653.143 Q38.479 650.374 38.479 644.359 L38.479 638.821 Z" fill="#000000" fill-rule="evenodd" fill-opacity="1" /><path clip-path="url(#clip270)" d="M 0 0 M38.479 614.631 L43.3487 614.631 L43.3487 620.233 Q43.3487 623.384 44.6219 624.625 Q45.895 625.835 49.2052 625.835 L52.3562 625.835 L52.3562 616.19 L56.9077 616.19 L56.9077 625.835 L88.0042 625.835 L88.0042 631.723 L56.9077 631.723 L56.9077 637.325 L52.3562 637.325 L52.3562 631.723 L49.8736 631.723 Q43.9216 631.723 41.2162 628.954 Q38.479 626.185 38.479 620.169 L38.479 614.631 Z" fill="#000000" fill-rule="evenodd" fill-opacity="1" /><polyline clip-path="url(#clip272)" style="stroke:#009af9; stroke-width:20; stroke-opacity:1; fill:none" stroke-dasharray="80, 50" points="
  323.08,85.838 1308.36,348.034 2293.64,1372.3 
  "/>
<path clip-path="url(#clip270)" d="
M2000.02 213.659 L2283.13 213.659 L2283.13 92.6992 L2000.02 92.6992  Z
  " fill="#ffffff" fill-rule="evenodd" fill-opacity="1"/>
<polyline clip-path="url(#clip270)" style="stroke:#000000; stroke-width:4; stroke-opacity:1; fill:none" points="
  2000.02,213.659 2283.13,213.659 2283.13,92.6992 2000.02,92.6992 2000.02,213.659 
  "/>
<polyline clip-path="url(#clip270)" style="stroke:#009af9; stroke-width:4; stroke-opacity:1; fill:none" stroke-dasharray="16, 10" points="
  2023.23,153.179 2162.48,153.179 
  "/>
<path clip-path="url(#clip270)" d="M 0 0 M2199.54 172.867 Q2197.73 177.496 2196.02 178.908 Q2194.3 180.32 2191.43 180.32 L2188.03 180.32 L2188.03 176.755 L2190.53 176.755 Q2192.29 176.755 2193.26 175.922 Q2194.24 175.089 2195.42 171.987 L2196.18 170.043 L2185.69 144.533 L2190.21 144.533 L2198.31 164.811 L2206.41 144.533 L2210.92 144.533 L2199.54 172.867 Z" fill="#000000" fill-rule="evenodd" fill-opacity="1" /><path clip-path="url(#clip270)" d="M 0 0 M2216.8 166.524 L2224.44 166.524 L2224.44 140.158 L2216.13 141.825 L2216.13 137.566 L2224.4 135.899 L2229.07 135.899 L2229.07 166.524 L2236.71 166.524 L2236.71 170.459 L2216.8 170.459 L2216.8 166.524 Z" fill="#000000" fill-rule="evenodd" fill-opacity="1" /></svg>
