<?xml version="1.0" encoding="utf-8"?>
<svg xmlns="http://www.w3.org/2000/svg" xmlns:xlink="http://www.w3.org/1999/xlink" width="600" height="400" viewBox="0 0 2400 1600">
<defs>
  <clipPath id="clip050">
    <rect x="0" y="0" width="2400" height="1600"/>
  </clipPath>
</defs>
<path clip-path="url(#clip050)" d="
M0 1600 L2400 1600 L2400 0 L0 0  Z
  " fill="#ffffff" fill-rule="evenodd" fill-opacity="1"/>
<defs>
  <clipPath id="clip051">
    <rect x="480" y="0" width="1681" height="1600"/>
  </clipPath>
</defs>
<path clip-path="url(#clip050)" d="
M264.033 1410.9 L2352.76 1410.9 L2352.76 47.2441 L264.033 47.2441  Z
  " fill="#ffffff" fill-rule="evenodd" fill-opacity="1"/>
<defs>
  <clipPath id="clip052">
    <rect x="264" y="47" width="2090" height="1365"/>
  </clipPath>
</defs>
<polyline clip-path="url(#clip052)" style="stroke:#000000; stroke-width:2; stroke-opacity:0.1; fill:none" points="
  323.148,1410.9 323.148,47.2441 
  "/>
<polyline clip-path="url(#clip052)" style="stroke:#000000; stroke-width:2; stroke-opacity:0.1; fill:none" points="
  651.563,1410.9 651.563,47.2441 
  "/>
<polyline clip-path="url(#clip052)" style="stroke:#000000; stroke-width:2; stroke-opacity:0.1; fill:none" points="
  979.979,1410.9 979.979,47.2441 
  "/>
<polyline clip-path="url(#clip052)" style="stroke:#000000; stroke-width:2; stroke-opacity:0.1; fill:none" points="
  1308.39,1410.9 1308.39,47.2441 
  "/>
<polyline clip-path="url(#clip052)" style="stroke:#000000; stroke-width:2; stroke-opacity:0.1; fill:none" points="
  1636.81,1410.9 1636.81,47.2441 
  "/>
<polyline clip-path="url(#clip052)" style="stroke:#000000; stroke-width:2; stroke-opacity:0.1; fill:none" points="
  1965.23,1410.9 1965.23,47.2441 
  "/>
<polyline clip-path="url(#clip052)" style="stroke:#000000; stroke-width:2; stroke-opacity:0.1; fill:none" points="
  2293.64,1410.9 2293.64,47.2441 
  "/>
<polyline clip-path="url(#clip050)" style="stroke:#000000; stroke-width:4; stroke-opacity:1; fill:none" points="
  264.033,1410.9 2352.76,1410.9 
  "/>
<polyline clip-path="url(#clip050)" style="stroke:#000000; stroke-width:4; stroke-opacity:1; fill:none" points="
  323.148,1410.9 323.148,1394.53 
  "/>
<polyline clip-path="url(#clip050)" style="stroke:#000000; stroke-width:4; stroke-opacity:1; fill:none" points="
  651.563,1410.9 651.563,1394.53 
  "/>
<polyline clip-path="url(#clip050)" style="stroke:#000000; stroke-width:4; stroke-opacity:1; fill:none" points="
  979.979,1410.9 979.979,1394.53 
  "/>
<polyline clip-path="url(#clip050)" style="stroke:#000000; stroke-width:4; stroke-opacity:1; fill:none" points="
  1308.39,1410.9 1308.39,1394.53 
  "/>
<polyline clip-path="url(#clip050)" style="stroke:#000000; stroke-width:4; stroke-opacity:1; fill:none" points="
  1636.81,1410.9 1636.81,1394.53 
  "/>
<polyline clip-path="url(#clip050)" style="stroke:#000000; stroke-width:4; stroke-opacity:1; fill:none" points="
  1965.23,1410.9 1965.23,1394.53 
  "/>
<polyline clip-path="url(#clip050)" style="stroke:#000000; stroke-width:4; stroke-opacity:1; fill:none" points="
  2293.64,1410.9 2293.64,1394.53 
  "/>
<path clip-path="url(#clip050)" d="M 0 0 M276.927 1489.17 L284.566 1489.17 L284.566 1462.8 L276.255 1464.47 L276.255 1460.21 L284.519 1458.54 L289.195 1458.54 L289.195 1489.17 L296.834 1489.17 L296.834 1493.1 L276.927 1493.1 L276.927 1489.17 Z" fill="#000000" fill-rule="evenodd" fill-opacity="1" /><path clip-path="url(#clip050)" d="M 0 0 M311.903 1461.62 Q308.292 1461.62 306.464 1465.19 Q304.658 1468.73 304.658 1475.86 Q304.658 1482.97 306.464 1486.53 Q308.292 1490.07 311.903 1490.07 Q315.538 1490.07 317.343 1486.53 Q319.172 1482.97 319.172 1475.86 Q319.172 1468.73 317.343 1465.19 Q315.538 1461.62 311.903 1461.62 M311.903 1457.92 Q317.714 1457.92 320.769 1462.53 Q323.848 1467.11 323.848 1475.86 Q323.848 1484.59 320.769 1489.19 Q317.714 1493.78 311.903 1493.78 Q306.093 1493.78 303.015 1489.19 Q299.959 1484.59 299.959 1475.86 Q299.959 1467.11 303.015 1462.53 Q306.093 1457.92 311.903 1457.92 Z" fill="#000000" fill-rule="evenodd" fill-opacity="1" /><path clip-path="url(#clip050)" d="M 0 0 M323.848 1452.02 L347.959 1452.02 L347.959 1455.22 L323.848 1455.22 L323.848 1452.02 Z" fill="#000000" fill-rule="evenodd" fill-opacity="1" /><path clip-path="url(#clip050)" d="M 0 0 M360.673 1450.14 Q358.115 1450.14 356.611 1451.89 Q355.125 1453.64 355.125 1456.68 Q355.125 1459.71 356.611 1461.48 Q358.115 1463.23 360.673 1463.23 Q363.231 1463.23 364.717 1461.48 Q366.222 1459.71 366.222 1456.68 Q366.222 1453.64 364.717 1451.89 Q363.231 1450.14 360.673 1450.14 M368.215 1438.23 L368.215 1441.69 Q366.786 1441.02 365.319 1440.66 Q363.871 1440.3 362.441 1440.3 Q358.68 1440.3 356.686 1442.84 Q354.711 1445.38 354.429 1450.52 Q355.539 1448.88 357.213 1448.01 Q358.887 1447.13 360.899 1447.13 Q365.131 1447.13 367.576 1449.71 Q370.04 1452.26 370.04 1456.68 Q370.04 1461.01 367.482 1463.62 Q364.924 1466.24 360.673 1466.24 Q355.802 1466.24 353.225 1462.51 Q350.649 1458.77 350.649 1451.68 Q350.649 1445.02 353.809 1441.07 Q356.968 1437.11 362.291 1437.11 Q363.72 1437.11 365.168 1437.39 Q366.635 1437.67 368.215 1438.23 Z" fill="#000000" fill-rule="evenodd" fill-opacity="1" /><path clip-path="url(#clip050)" d="M 0 0 M605.812 1489.17 L613.451 1489.17 L613.451 1462.8 L605.141 1464.47 L605.141 1460.21 L613.405 1458.54 L618.081 1458.54 L618.081 1489.17 L625.72 1489.17 L625.72 1493.1 L605.812 1493.1 L605.812 1489.17 Z" fill="#000000" fill-rule="evenodd" fill-opacity="1" /><path clip-path="url(#clip050)" d="M 0 0 M640.789 1461.62 Q637.178 1461.62 635.349 1465.19 Q633.544 1468.73 633.544 1475.86 Q633.544 1482.97 635.349 1486.53 Q637.178 1490.07 640.789 1490.07 Q644.423 1490.07 646.229 1486.53 Q648.058 1482.97 648.058 1475.86 Q648.058 1468.73 646.229 1465.19 Q644.423 1461.62 640.789 1461.62 M640.789 1457.92 Q646.599 1457.92 649.655 1462.53 Q652.734 1467.11 652.734 1475.86 Q652.734 1484.59 649.655 1489.19 Q646.599 1493.78 640.789 1493.78 Q634.979 1493.78 631.9 1489.19 Q628.845 1484.59 628.845 1475.86 Q628.845 1467.11 631.9 1462.53 Q634.979 1457.92 640.789 1457.92 Z" fill="#000000" fill-rule="evenodd" fill-opacity="1" /><path clip-path="url(#clip050)" d="M 0 0 M652.734 1452.02 L676.845 1452.02 L676.845 1455.22 L652.734 1455.22 L652.734 1452.02 Z" fill="#000000" fill-rule="evenodd" fill-opacity="1" /><path clip-path="url(#clip050)" d="M 0 0 M681.002 1437.61 L695.916 1437.61 L695.916 1440.81 L684.481 1440.81 L684.481 1447.69 Q685.309 1447.41 686.136 1447.28 Q686.964 1447.13 687.791 1447.13 Q692.493 1447.13 695.239 1449.71 Q697.985 1452.28 697.985 1456.68 Q697.985 1461.22 695.164 1463.74 Q692.343 1466.24 687.208 1466.24 Q685.44 1466.24 683.597 1465.94 Q681.773 1465.64 679.817 1465.04 L679.817 1461.22 Q681.509 1462.14 683.315 1462.59 Q685.121 1463.04 687.133 1463.04 Q690.387 1463.04 692.286 1461.33 Q694.186 1459.62 694.186 1456.68 Q694.186 1453.75 692.286 1452.04 Q690.387 1450.33 687.133 1450.33 Q685.61 1450.33 684.086 1450.67 Q682.581 1451 681.002 1451.72 L681.002 1437.61 Z" fill="#000000" fill-rule="evenodd" fill-opacity="1" /><path clip-path="url(#clip050)" d="M 0 0 M933.626 1489.17 L941.265 1489.17 L941.265 1462.8 L932.955 1464.47 L932.955 1460.21 L941.219 1458.54 L945.895 1458.54 L945.895 1489.17 L953.534 1489.17 L953.534 1493.1 L933.626 1493.1 L933.626 1489.17 Z" fill="#000000" fill-rule="evenodd" fill-opacity="1" /><path clip-path="url(#clip050)" d="M 0 0 M968.603 1461.62 Q964.992 1461.62 963.163 1465.19 Q961.358 1468.73 961.358 1475.86 Q961.358 1482.97 963.163 1486.53 Q964.992 1490.07 968.603 1490.07 Q972.237 1490.07 974.043 1486.53 Q975.871 1482.97 975.871 1475.86 Q975.871 1468.73 974.043 1465.19 Q972.237 1461.62 968.603 1461.62 M968.603 1457.92 Q974.413 1457.92 977.469 1462.53 Q980.547 1467.11 980.547 1475.86 Q980.547 1484.59 977.469 1489.19 Q974.413 1493.78 968.603 1493.78 Q962.793 1493.78 959.714 1489.19 Q956.659 1484.59 956.659 1475.86 Q956.659 1467.11 959.714 1462.53 Q962.793 1457.92 968.603 1457.92 Z" fill="#000000" fill-rule="evenodd" fill-opacity="1" /><path clip-path="url(#clip050)" d="M 0 0 M980.547 1452.02 L1004.66 1452.02 L1004.66 1455.22 L980.547 1455.22 L980.547 1452.02 Z" fill="#000000" fill-rule="evenodd" fill-opacity="1" /><path clip-path="url(#clip050)" d="M 0 0 M1019.22 1440.92 L1009.62 1455.91 L1019.22 1455.91 L1019.22 1440.92 M1018.22 1437.61 L1023 1437.61 L1023 1455.91 L1027 1455.91 L1027 1459.07 L1023 1459.07 L1023 1465.69 L1019.22 1465.69 L1019.22 1459.07 L1006.54 1459.07 L1006.54 1455.41 L1018.22 1437.61 Z" fill="#000000" fill-rule="evenodd" fill-opacity="1" /><path clip-path="url(#clip050)" d="M 0 0 M1262.5 1489.17 L1270.14 1489.17 L1270.14 1462.8 L1261.83 1464.47 L1261.83 1460.21 L1270.1 1458.54 L1274.77 1458.54 L1274.77 1489.17 L1282.41 1489.17 L1282.41 1493.1 L1262.5 1493.1 L1262.5 1489.17 Z" fill="#000000" fill-rule="evenodd" fill-opacity="1" /><path clip-path="url(#clip050)" d="M 0 0 M1297.48 1461.62 Q1293.87 1461.62 1292.04 1465.19 Q1290.23 1468.73 1290.23 1475.86 Q1290.23 1482.97 1292.04 1486.53 Q1293.87 1490.07 1297.48 1490.07 Q1301.11 1490.07 1302.92 1486.53 Q1304.75 1482.97 1304.75 1475.86 Q1304.75 1468.73 1302.92 1465.19 Q1301.11 1461.62 1297.48 1461.62 M1297.48 1457.92 Q1303.29 1457.92 1306.34 1462.53 Q1309.42 1467.11 1309.42 1475.86 Q1309.42 1484.59 1306.34 1489.19 Q1303.29 1493.78 1297.48 1493.78 Q1291.67 1493.78 1288.59 1489.19 Q1285.53 1484.59 1285.53 1475.86 Q1285.53 1467.11 1288.59 1462.53 Q1291.67 1457.92 1297.48 1457.92 Z" fill="#000000" fill-rule="evenodd" fill-opacity="1" /><path clip-path="url(#clip050)" d="M 0 0 M1309.42 1452.02 L1333.54 1452.02 L1333.54 1455.22 L1309.42 1455.22 L1309.42 1452.02 Z" fill="#000000" fill-rule="evenodd" fill-opacity="1" /><path clip-path="url(#clip050)" d="M 0 0 M1349.16 1450.55 Q1351.89 1451.14 1353.42 1452.98 Q1354.96 1454.82 1354.96 1457.53 Q1354.96 1461.69 1352.1 1463.96 Q1349.24 1466.24 1343.97 1466.24 Q1342.21 1466.24 1340.32 1465.88 Q1338.46 1465.54 1336.47 1464.85 L1336.47 1461.18 Q1338.05 1462.1 1339.93 1462.57 Q1341.81 1463.04 1343.86 1463.04 Q1347.43 1463.04 1349.3 1461.63 Q1351.18 1460.22 1351.18 1457.53 Q1351.18 1455.05 1349.43 1453.66 Q1347.7 1452.25 1344.59 1452.25 L1341.32 1452.25 L1341.32 1449.12 L1344.74 1449.12 Q1347.55 1449.12 1349.03 1448.01 Q1350.52 1446.89 1350.52 1444.78 Q1350.52 1442.62 1348.98 1441.47 Q1347.45 1440.3 1344.59 1440.3 Q1343.03 1440.3 1341.25 1440.64 Q1339.46 1440.98 1337.32 1441.69 L1337.32 1438.31 Q1339.48 1437.71 1341.36 1437.41 Q1343.26 1437.11 1344.93 1437.11 Q1349.26 1437.11 1351.78 1439.08 Q1354.3 1441.04 1354.3 1444.38 Q1354.3 1446.72 1352.96 1448.33 Q1351.63 1449.93 1349.16 1450.55 Z" fill="#000000" fill-rule="evenodd" fill-opacity="1" /><path clip-path="url(#clip050)" d="M 0 0 M1591.3 1489.17 L1598.94 1489.17 L1598.94 1462.8 L1590.63 1464.47 L1590.63 1460.21 L1598.9 1458.54 L1603.57 1458.54 L1603.57 1489.17 L1611.21 1489.17 L1611.21 1493.1 L1591.3 1493.1 L1591.3 1489.17 Z" fill="#000000" fill-rule="evenodd" fill-opacity="1" /><path clip-path="url(#clip050)" d="M 0 0 M1626.28 1461.62 Q1622.67 1461.62 1620.84 1465.19 Q1619.04 1468.73 1619.04 1475.86 Q1619.04 1482.97 1620.84 1486.53 Q1622.67 1490.07 1626.28 1490.07 Q1629.91 1490.07 1631.72 1486.53 Q1633.55 1482.97 1633.55 1475.86 Q1633.55 1468.73 1631.72 1465.19 Q1629.91 1461.62 1626.28 1461.62 M1626.28 1457.92 Q1632.09 1457.92 1635.15 1462.53 Q1638.22 1467.11 1638.22 1475.86 Q1638.22 1484.59 1635.15 1489.19 Q1632.09 1493.78 1626.28 1493.78 Q1620.47 1493.78 1617.39 1489.19 Q1614.34 1484.59 1614.34 1475.86 Q1614.34 1467.11 1617.39 1462.53 Q1620.47 1457.92 1626.28 1457.92 Z" fill="#000000" fill-rule="evenodd" fill-opacity="1" /><path clip-path="url(#clip050)" d="M 0 0 M1638.22 1452.02 L1662.34 1452.02 L1662.34 1455.22 L1638.22 1455.22 L1638.22 1452.02 Z" fill="#000000" fill-rule="evenodd" fill-opacity="1" /><path clip-path="url(#clip050)" d="M 0 0 M1669.73 1462.5 L1682.99 1462.5 L1682.99 1465.69 L1665.16 1465.69 L1665.16 1462.5 Q1667.32 1460.26 1671.04 1456.5 Q1674.79 1452.72 1675.75 1451.63 Q1677.57 1449.58 1678.29 1448.16 Q1679.02 1446.74 1679.02 1445.36 Q1679.02 1443.12 1677.44 1441.71 Q1675.88 1440.3 1673.36 1440.3 Q1671.57 1440.3 1669.58 1440.92 Q1667.6 1441.54 1665.35 1442.8 L1665.35 1438.97 Q1667.64 1438.05 1669.63 1437.58 Q1671.63 1437.11 1673.28 1437.11 Q1677.65 1437.11 1680.24 1439.29 Q1682.84 1441.47 1682.84 1445.12 Q1682.84 1446.85 1682.18 1448.41 Q1681.54 1449.95 1679.83 1452.06 Q1679.36 1452.6 1676.84 1455.22 Q1674.32 1457.81 1669.73 1462.5 Z" fill="#000000" fill-rule="evenodd" fill-opacity="1" /><path clip-path="url(#clip050)" d="M 0 0 M1919.57 1489.17 L1927.21 1489.17 L1927.21 1462.8 L1918.9 1464.47 L1918.9 1460.21 L1927.16 1458.54 L1931.84 1458.54 L1931.84 1489.17 L1939.48 1489.17 L1939.48 1493.1 L1919.57 1493.1 L1919.57 1489.17 Z" fill="#000000" fill-rule="evenodd" fill-opacity="1" /><path clip-path="url(#clip050)" d="M 0 0 M1954.55 1461.62 Q1950.93 1461.62 1949.11 1465.19 Q1947.3 1468.73 1947.3 1475.86 Q1947.3 1482.97 1949.11 1486.53 Q1950.93 1490.07 1954.55 1490.07 Q1958.18 1490.07 1959.99 1486.53 Q1961.81 1482.97 1961.81 1475.86 Q1961.81 1468.73 1959.99 1465.19 Q1958.18 1461.62 1954.55 1461.62 M1954.55 1457.92 Q1960.36 1457.92 1963.41 1462.53 Q1966.49 1467.11 1966.49 1475.86 Q1966.49 1484.59 1963.41 1489.19 Q1960.36 1493.78 1954.55 1493.78 Q1948.74 1493.78 1945.66 1489.19 Q1942.6 1484.59 1942.6 1475.86 Q1942.6 1467.11 1945.66 1462.53 Q1948.74 1457.92 1954.55 1457.92 Z" fill="#000000" fill-rule="evenodd" fill-opacity="1" /><path clip-path="url(#clip050)" d="M 0 0 M1966.49 1452.02 L1990.6 1452.02 L1990.6 1455.22 L1966.49 1455.22 L1966.49 1452.02 Z" fill="#000000" fill-rule="evenodd" fill-opacity="1" /><path clip-path="url(#clip050)" d="M 0 0 M1995.38 1462.5 L2001.59 1462.5 L2001.59 1441.07 L1994.83 1442.43 L1994.83 1438.97 L2001.55 1437.61 L2005.35 1437.61 L2005.35 1462.5 L2011.55 1462.5 L2011.55 1465.69 L1995.38 1465.69 L1995.38 1462.5 Z" fill="#000000" fill-rule="evenodd" fill-opacity="1" /><path clip-path="url(#clip050)" d="M 0 0 M2260.81 1489.17 L2268.45 1489.17 L2268.45 1462.8 L2260.14 1464.47 L2260.14 1460.21 L2268.4 1458.54 L2273.08 1458.54 L2273.08 1489.17 L2280.72 1489.17 L2280.72 1493.1 L2260.81 1493.1 L2260.81 1489.17 Z" fill="#000000" fill-rule="evenodd" fill-opacity="1" /><path clip-path="url(#clip050)" d="M 0 0 M2295.79 1461.62 Q2292.18 1461.62 2290.35 1465.19 Q2288.54 1468.73 2288.54 1475.86 Q2288.54 1482.97 2290.35 1486.53 Q2292.18 1490.07 2295.79 1490.07 Q2299.42 1490.07 2301.23 1486.53 Q2303.06 1482.97 2303.06 1475.86 Q2303.06 1468.73 2301.23 1465.19 Q2299.42 1461.62 2295.79 1461.62 M2295.79 1457.92 Q2301.6 1457.92 2304.65 1462.53 Q2307.73 1467.11 2307.73 1475.86 Q2307.73 1484.59 2304.65 1489.19 Q2301.6 1493.78 2295.79 1493.78 Q2289.98 1493.78 2286.9 1489.19 Q2283.84 1484.59 2283.84 1475.86 Q2283.84 1467.11 2286.9 1462.53 Q2289.98 1457.92 2295.79 1457.92 Z" fill="#000000" fill-rule="evenodd" fill-opacity="1" /><path clip-path="url(#clip050)" d="M 0 0 M2317.44 1440.11 Q2314.5 1440.11 2313.02 1443.01 Q2311.55 1445.89 2311.55 1451.68 Q2311.55 1457.46 2313.02 1460.35 Q2314.5 1463.23 2317.44 1463.23 Q2320.39 1463.23 2321.86 1460.35 Q2323.34 1457.46 2323.34 1451.68 Q2323.34 1445.89 2321.86 1443.01 Q2320.39 1440.11 2317.44 1440.11 M2317.44 1437.11 Q2322.16 1437.11 2324.64 1440.85 Q2327.14 1444.57 2327.14 1451.68 Q2327.14 1458.77 2324.64 1462.51 Q2322.16 1466.24 2317.44 1466.24 Q2312.72 1466.24 2310.22 1462.51 Q2307.73 1458.77 2307.73 1451.68 Q2307.73 1444.57 2310.22 1440.85 Q2312.72 1437.11 2317.44 1437.11 Z" fill="#000000" fill-rule="evenodd" fill-opacity="1" /><path clip-path="url(#clip050)" d="M 0 0 M1201.16 1526.54 L1207.37 1526.54 L1218.51 1556.46 L1229.65 1526.54 L1235.86 1526.54 L1222.49 1562.19 L1214.53 1562.19 L1201.16 1526.54 Z" fill="#000000" fill-rule="evenodd" fill-opacity="1" /><path clip-path="url(#clip050)" d="M 0 0 M1269.09 1573.01 L1269.09 1577.56 L1235.22 1577.56 L1235.22 1573.01 L1269.09 1573.01 Z" fill="#000000" fill-rule="evenodd" fill-opacity="1" /><path clip-path="url(#clip050)" d="M 0 0 M1289.04 1530.64 Q1284.33 1530.64 1281.59 1534.34 Q1278.86 1538 1278.86 1544.39 Q1278.86 1550.79 1281.56 1554.48 Q1284.3 1558.14 1289.04 1558.14 Q1293.72 1558.14 1296.46 1554.45 Q1299.2 1550.76 1299.2 1544.39 Q1299.2 1538.06 1296.46 1534.37 Q1293.72 1530.64 1289.04 1530.64 M1289.04 1525.68 Q1296.68 1525.68 1301.04 1530.64 Q1305.4 1535.61 1305.4 1544.39 Q1305.4 1553.15 1301.04 1558.14 Q1296.68 1563.11 1289.04 1563.11 Q1281.37 1563.11 1277.01 1558.14 Q1272.68 1553.15 1272.68 1544.39 Q1272.68 1535.61 1277.01 1530.64 Q1281.37 1525.68 1289.04 1525.68 Z" fill="#000000" fill-rule="evenodd" fill-opacity="1" /><path clip-path="url(#clip050)" d="M 0 0 M1317.21 1556.84 L1317.21 1575.74 L1311.32 1575.74 L1311.32 1526.54 L1317.21 1526.54 L1317.21 1531.95 Q1319.06 1528.77 1321.86 1527.24 Q1324.69 1525.68 1328.61 1525.68 Q1335.1 1525.68 1339.14 1530.83 Q1343.21 1535.99 1343.21 1544.39 Q1343.21 1552.8 1339.14 1557.95 Q1335.1 1563.11 1328.61 1563.11 Q1324.69 1563.11 1321.86 1561.58 Q1319.06 1560.02 1317.21 1556.84 M1337.14 1544.39 Q1337.14 1537.93 1334.46 1534.27 Q1331.82 1530.58 1327.17 1530.58 Q1322.53 1530.58 1319.85 1534.27 Q1317.21 1537.93 1317.21 1544.39 Q1317.21 1550.85 1319.85 1554.55 Q1322.53 1558.21 1327.17 1558.21 Q1331.82 1558.21 1334.46 1554.55 Q1337.14 1550.85 1337.14 1544.39 Z" fill="#000000" fill-rule="evenodd" fill-opacity="1" /><path clip-path="url(#clip050)" d="M 0 0 M1379.85 1542.9 L1379.85 1545.76 L1352.92 1545.76 Q1353.3 1551.81 1356.55 1554.99 Q1359.83 1558.14 1365.65 1558.14 Q1369.03 1558.14 1372.18 1557.32 Q1375.36 1556.49 1378.48 1554.83 L1378.48 1560.37 Q1375.33 1561.71 1372.02 1562.41 Q1368.71 1563.11 1365.3 1563.11 Q1356.77 1563.11 1351.78 1558.14 Q1346.81 1553.18 1346.81 1544.71 Q1346.81 1535.96 1351.52 1530.83 Q1356.26 1525.68 1364.29 1525.68 Q1371.48 1525.68 1375.65 1530.33 Q1379.85 1534.94 1379.85 1542.9 M1373.99 1541.18 Q1373.93 1536.37 1371.29 1533.51 Q1368.68 1530.64 1364.35 1530.64 Q1359.45 1530.64 1356.49 1533.41 Q1353.56 1536.18 1353.11 1541.21 L1373.99 1541.18 Z" fill="#000000" fill-rule="evenodd" fill-opacity="1" /><path clip-path="url(#clip050)" d="M 0 0 M1415.62 1540.67 L1415.62 1562.19 L1409.77 1562.19 L1409.77 1540.86 Q1409.77 1535.8 1407.79 1533.29 Q1405.82 1530.77 1401.87 1530.77 Q1397.13 1530.77 1394.39 1533.79 Q1391.66 1536.82 1391.66 1542.04 L1391.66 1562.19 L1385.77 1562.19 L1385.77 1526.54 L1391.66 1526.54 L1391.66 1532.08 Q1393.76 1528.86 1396.59 1527.27 Q1399.46 1525.68 1403.18 1525.68 Q1409.32 1525.68 1412.47 1529.5 Q1415.62 1533.29 1415.62 1540.67 Z" fill="#000000" fill-rule="evenodd" fill-opacity="1" /><polyline clip-path="url(#clip052)" style="stroke:#000000; stroke-width:2; stroke-opacity:0.1; fill:none" points="
  264.033,1251.37 2352.76,1251.37 
  "/>
<polyline clip-path="url(#clip052)" style="stroke:#000000; stroke-width:2; stroke-opacity:0.1; fill:none" points="
  264.033,1065.1 2352.76,1065.1 
  "/>
<polyline clip-path="url(#clip052)" style="stroke:#000000; stroke-width:2; stroke-opacity:0.1; fill:none" points="
  264.033,878.827 2352.76,878.827 
  "/>
<polyline clip-path="url(#clip052)" style="stroke:#000000; stroke-width:2; stroke-opacity:0.1; fill:none" points="
  264.033,692.556 2352.76,692.556 
  "/>
<polyline clip-path="url(#clip052)" style="stroke:#000000; stroke-width:2; stroke-opacity:0.1; fill:none" points="
  264.033,506.285 2352.76,506.285 
  "/>
<polyline clip-path="url(#clip052)" style="stroke:#000000; stroke-width:2; stroke-opacity:0.1; fill:none" points="
  264.033,320.014 2352.76,320.014 
  "/>
<polyline clip-path="url(#clip052)" style="stroke:#000000; stroke-width:2; stroke-opacity:0.1; fill:none" points="
  264.033,133.743 2352.76,133.743 
  "/>
<polyline clip-path="url(#clip050)" style="stroke:#000000; stroke-width:4; stroke-opacity:1; fill:none" points="
  264.033,1410.9 264.033,47.2441 
  "/>
<polyline clip-path="url(#clip050)" style="stroke:#000000; stroke-width:4; stroke-opacity:1; fill:none" points="
  264.033,1251.37 289.097,1251.37 
  "/>
<polyline clip-path="url(#clip050)" style="stroke:#000000; stroke-width:4; stroke-opacity:1; fill:none" points="
  264.033,1065.1 289.097,1065.1 
  "/>
<polyline clip-path="url(#clip050)" style="stroke:#000000; stroke-width:4; stroke-opacity:1; fill:none" points="
  264.033,878.827 289.097,878.827 
  "/>
<polyline clip-path="url(#clip050)" style="stroke:#000000; stroke-width:4; stroke-opacity:1; fill:none" points="
  264.033,692.556 289.097,692.556 
  "/>
<polyline clip-path="url(#clip050)" style="stroke:#000000; stroke-width:4; stroke-opacity:1; fill:none" points="
  264.033,506.285 289.097,506.285 
  "/>
<polyline clip-path="url(#clip050)" style="stroke:#000000; stroke-width:4; stroke-opacity:1; fill:none" points="
  264.033,320.014 289.097,320.014 
  "/>
<polyline clip-path="url(#clip050)" style="stroke:#000000; stroke-width:4; stroke-opacity:1; fill:none" points="
  264.033,133.743 289.097,133.743 
  "/>
<path clip-path="url(#clip050)" d="M 0 0 M129.283 1237.17 Q125.672 1237.17 123.843 1240.73 Q122.038 1244.27 122.038 1251.4 Q122.038 1258.51 123.843 1262.07 Q125.672 1265.62 129.283 1265.62 Q132.917 1265.62 134.723 1262.07 Q136.552 1258.51 136.552 1251.4 Q136.552 1244.27 134.723 1240.73 Q132.917 1237.17 129.283 1237.17 M129.283 1233.46 Q135.093 1233.46 138.149 1238.07 Q141.228 1242.65 141.228 1251.4 Q141.228 1260.13 138.149 1264.74 Q135.093 1269.32 129.283 1269.32 Q123.473 1269.32 120.394 1264.74 Q117.339 1260.13 117.339 1251.4 Q117.339 1242.65 120.394 1238.07 Q123.473 1233.46 129.283 1233.46 Z" fill="#000000" fill-rule="evenodd" fill-opacity="1" /><path clip-path="url(#clip050)" d="M 0 0 M146.297 1262.77 L151.181 1262.77 L151.181 1268.65 L146.297 1268.65 L146.297 1262.77 Z" fill="#000000" fill-rule="evenodd" fill-opacity="1" /><path clip-path="url(#clip050)" d="M 0 0 M160.278 1264.71 L176.598 1264.71 L176.598 1268.65 L154.653 1268.65 L154.653 1264.71 Q157.315 1261.96 161.899 1257.33 Q166.505 1252.68 167.686 1251.33 Q169.931 1248.81 170.811 1247.07 Q171.714 1245.32 171.714 1243.63 Q171.714 1240.87 169.769 1239.13 Q167.848 1237.4 164.746 1237.4 Q162.547 1237.4 160.093 1238.16 Q157.663 1238.93 154.885 1240.48 L154.885 1235.76 Q157.709 1234.62 160.163 1234.04 Q162.616 1233.46 164.653 1233.46 Q170.024 1233.46 173.218 1236.15 Q176.413 1238.83 176.413 1243.32 Q176.413 1245.45 175.602 1247.38 Q174.815 1249.27 172.709 1251.87 Q172.13 1252.54 169.028 1255.75 Q165.927 1258.95 160.278 1264.71 Z" fill="#000000" fill-rule="evenodd" fill-opacity="1" /><path clip-path="url(#clip050)" d="M 0 0 M185.695 1264.71 L202.014 1264.71 L202.014 1268.65 L180.07 1268.65 L180.07 1264.71 Q182.732 1261.96 187.315 1257.33 Q191.922 1252.68 193.102 1251.33 Q195.348 1248.81 196.227 1247.07 Q197.13 1245.32 197.13 1243.63 Q197.13 1240.87 195.186 1239.13 Q193.264 1237.4 190.163 1237.4 Q187.963 1237.4 185.51 1238.16 Q183.079 1238.93 180.301 1240.48 L180.301 1235.76 Q183.126 1234.62 185.579 1234.04 Q188.033 1233.46 190.07 1233.46 Q195.44 1233.46 198.635 1236.15 Q201.829 1238.83 201.829 1243.32 Q201.829 1245.45 201.019 1247.38 Q200.232 1249.27 198.125 1251.87 Q197.547 1252.54 194.445 1255.75 Q191.343 1258.95 185.695 1264.71 Z" fill="#000000" fill-rule="evenodd" fill-opacity="1" /><path clip-path="url(#clip050)" d="M 0 0 M207.13 1234.09 L225.486 1234.09 L225.486 1238.02 L211.412 1238.02 L211.412 1246.5 Q212.431 1246.15 213.449 1245.99 Q214.468 1245.8 215.486 1245.8 Q221.273 1245.8 224.653 1248.97 Q228.033 1252.14 228.033 1257.56 Q228.033 1263.14 224.56 1266.24 Q221.088 1269.32 214.769 1269.32 Q212.593 1269.32 210.324 1268.95 Q208.079 1268.58 205.672 1267.84 L205.672 1263.14 Q207.755 1264.27 209.977 1264.83 Q212.199 1265.38 214.676 1265.38 Q218.681 1265.38 221.019 1263.28 Q223.357 1261.17 223.357 1257.56 Q223.357 1253.95 221.019 1251.84 Q218.681 1249.74 214.676 1249.74 Q212.801 1249.74 210.926 1250.15 Q209.074 1250.57 207.13 1251.45 L207.13 1234.09 Z" fill="#000000" fill-rule="evenodd" fill-opacity="1" /><path clip-path="url(#clip050)" d="M 0 0 M127.339 1050.9 Q123.728 1050.9 121.899 1054.46 Q120.093 1058 120.093 1065.13 Q120.093 1072.24 121.899 1075.8 Q123.728 1079.35 127.339 1079.35 Q130.973 1079.35 132.779 1075.8 Q134.607 1072.24 134.607 1065.13 Q134.607 1058 132.779 1054.46 Q130.973 1050.9 127.339 1050.9 M127.339 1047.19 Q133.149 1047.19 136.204 1051.8 Q139.283 1056.38 139.283 1065.13 Q139.283 1073.86 136.204 1078.47 Q133.149 1083.05 127.339 1083.05 Q121.529 1083.05 118.45 1078.47 Q115.394 1073.86 115.394 1065.13 Q115.394 1056.38 118.45 1051.8 Q121.529 1047.19 127.339 1047.19 Z" fill="#000000" fill-rule="evenodd" fill-opacity="1" /><path clip-path="url(#clip050)" d="M 0 0 M144.353 1076.5 L149.237 1076.5 L149.237 1082.38 L144.353 1082.38 L144.353 1076.5 Z" fill="#000000" fill-rule="evenodd" fill-opacity="1" /><path clip-path="url(#clip050)" d="M 0 0 M158.334 1078.44 L174.653 1078.44 L174.653 1082.38 L152.709 1082.38 L152.709 1078.44 Q155.371 1075.69 159.954 1071.06 Q164.561 1066.41 165.741 1065.06 Q167.987 1062.54 168.866 1060.8 Q169.769 1059.04 169.769 1057.35 Q169.769 1054.6 167.825 1052.86 Q165.903 1051.13 162.802 1051.13 Q160.603 1051.13 158.149 1051.89 Q155.718 1052.66 152.941 1054.21 L152.941 1049.48 Q155.765 1048.35 158.218 1047.77 Q160.672 1047.19 162.709 1047.19 Q168.079 1047.19 171.274 1049.88 Q174.468 1052.56 174.468 1057.05 Q174.468 1059.18 173.658 1061.1 Q172.871 1063 170.764 1065.6 Q170.186 1066.27 167.084 1069.48 Q163.982 1072.68 158.334 1078.44 Z" fill="#000000" fill-rule="evenodd" fill-opacity="1" /><path clip-path="url(#clip050)" d="M 0 0 M193.889 1063.74 Q197.246 1064.46 199.121 1066.73 Q201.019 1069 201.019 1072.33 Q201.019 1077.45 197.5 1080.25 Q193.982 1083.05 187.501 1083.05 Q185.325 1083.05 183.01 1082.61 Q180.718 1082.19 178.264 1081.34 L178.264 1076.82 Q180.209 1077.96 182.524 1078.54 Q184.838 1079.11 187.362 1079.11 Q191.76 1079.11 194.051 1077.38 Q196.366 1075.64 196.366 1072.33 Q196.366 1069.28 194.213 1067.56 Q192.084 1065.83 188.264 1065.83 L184.237 1065.83 L184.237 1061.98 L188.45 1061.98 Q191.899 1061.98 193.727 1060.62 Q195.556 1059.23 195.556 1056.64 Q195.556 1053.97 193.658 1052.56 Q191.783 1051.13 188.264 1051.13 Q186.343 1051.13 184.144 1051.54 Q181.945 1051.96 179.306 1052.84 L179.306 1048.67 Q181.968 1047.93 184.283 1047.56 Q186.621 1047.19 188.681 1047.19 Q194.005 1047.19 197.107 1049.62 Q200.209 1052.03 200.209 1056.15 Q200.209 1059.02 198.565 1061.01 Q196.922 1062.98 193.889 1063.74 Z" fill="#000000" fill-rule="evenodd" fill-opacity="1" /><path clip-path="url(#clip050)" d="M 0 0 M216.088 1050.9 Q212.477 1050.9 210.649 1054.46 Q208.843 1058 208.843 1065.13 Q208.843 1072.24 210.649 1075.8 Q212.477 1079.35 216.088 1079.35 Q219.723 1079.35 221.528 1075.8 Q223.357 1072.24 223.357 1065.13 Q223.357 1058 221.528 1054.46 Q219.723 1050.9 216.088 1050.9 M216.088 1047.19 Q221.898 1047.19 224.954 1051.8 Q228.033 1056.38 228.033 1065.13 Q228.033 1073.86 224.954 1078.47 Q221.898 1083.05 216.088 1083.05 Q210.278 1083.05 207.199 1078.47 Q204.144 1073.86 204.144 1065.13 Q204.144 1056.38 207.199 1051.8 Q210.278 1047.19 216.088 1047.19 Z" fill="#000000" fill-rule="evenodd" fill-opacity="1" /><path clip-path="url(#clip050)" d="M 0 0 M128.334 864.625 Q124.723 864.625 122.894 868.19 Q121.089 871.732 121.089 878.861 Q121.089 885.968 122.894 889.533 Q124.723 893.074 128.334 893.074 Q131.968 893.074 133.774 889.533 Q135.603 885.968 135.603 878.861 Q135.603 871.732 133.774 868.19 Q131.968 864.625 128.334 864.625 M128.334 860.922 Q134.144 860.922 137.2 865.528 Q140.279 870.112 140.279 878.861 Q140.279 887.588 137.2 892.195 Q134.144 896.778 128.334 896.778 Q122.524 896.778 119.445 892.195 Q116.39 887.588 116.39 878.861 Q116.39 870.112 119.445 865.528 Q122.524 860.922 128.334 860.922 Z" fill="#000000" fill-rule="evenodd" fill-opacity="1" /><path clip-path="url(#clip050)" d="M 0 0 M145.348 890.227 L150.232 890.227 L150.232 896.107 L145.348 896.107 L145.348 890.227 Z" fill="#000000" fill-rule="evenodd" fill-opacity="1" /><path clip-path="url(#clip050)" d="M 0 0 M159.329 892.172 L175.649 892.172 L175.649 896.107 L153.704 896.107 L153.704 892.172 Q156.366 889.417 160.95 884.787 Q165.556 880.135 166.737 878.792 Q168.982 876.269 169.862 874.533 Q170.764 872.774 170.764 871.084 Q170.764 868.329 168.82 866.593 Q166.899 864.857 163.797 864.857 Q161.598 864.857 159.144 865.621 Q156.714 866.385 153.936 867.936 L153.936 863.213 Q156.76 862.079 159.214 861.5 Q161.667 860.922 163.704 860.922 Q169.075 860.922 172.269 863.607 Q175.464 866.292 175.464 870.783 Q175.464 872.912 174.653 874.834 Q173.866 876.732 171.76 879.324 Q171.181 879.996 168.079 883.213 Q164.977 886.408 159.329 892.172 Z" fill="#000000" fill-rule="evenodd" fill-opacity="1" /><path clip-path="url(#clip050)" d="M 0 0 M194.885 877.473 Q198.241 878.19 200.116 880.459 Q202.014 882.727 202.014 886.061 Q202.014 891.176 198.496 893.977 Q194.977 896.778 188.496 896.778 Q186.32 896.778 184.005 896.338 Q181.713 895.922 179.26 895.065 L179.26 890.551 Q181.204 891.685 183.519 892.264 Q185.834 892.843 188.357 892.843 Q192.755 892.843 195.047 891.107 Q197.362 889.371 197.362 886.061 Q197.362 883.005 195.209 881.292 Q193.079 879.556 189.26 879.556 L185.232 879.556 L185.232 875.713 L189.445 875.713 Q192.894 875.713 194.723 874.348 Q196.551 872.959 196.551 870.366 Q196.551 867.704 194.653 866.292 Q192.778 864.857 189.26 864.857 Q187.338 864.857 185.139 865.274 Q182.94 865.69 180.301 866.57 L180.301 862.403 Q182.963 861.662 185.278 861.292 Q187.616 860.922 189.676 860.922 Q195 860.922 198.102 863.352 Q201.204 865.76 201.204 869.88 Q201.204 872.75 199.561 874.741 Q197.917 876.709 194.885 877.473 Z" fill="#000000" fill-rule="evenodd" fill-opacity="1" /><path clip-path="url(#clip050)" d="M 0 0 M207.13 861.547 L225.486 861.547 L225.486 865.482 L211.412 865.482 L211.412 873.954 Q212.431 873.607 213.449 873.445 Q214.468 873.26 215.486 873.26 Q221.273 873.26 224.653 876.431 Q228.033 879.602 228.033 885.019 Q228.033 890.598 224.56 893.699 Q221.088 896.778 214.769 896.778 Q212.593 896.778 210.324 896.408 Q208.079 896.037 205.672 895.297 L205.672 890.598 Q207.755 891.732 209.977 892.287 Q212.199 892.843 214.676 892.843 Q218.681 892.843 221.019 890.736 Q223.357 888.63 223.357 885.019 Q223.357 881.408 221.019 879.301 Q218.681 877.195 214.676 877.195 Q212.801 877.195 210.926 877.611 Q209.074 878.028 207.13 878.908 L207.13 861.547 Z" fill="#000000" fill-rule="evenodd" fill-opacity="1" /><path clip-path="url(#clip050)" d="M 0 0 M126.205 678.355 Q122.593 678.355 120.765 681.919 Q118.959 685.461 118.959 692.591 Q118.959 699.697 120.765 703.262 Q122.593 706.804 126.205 706.804 Q129.839 706.804 131.644 703.262 Q133.473 699.697 133.473 692.591 Q133.473 685.461 131.644 681.919 Q129.839 678.355 126.205 678.355 M126.205 674.651 Q132.015 674.651 135.07 679.257 Q138.149 683.841 138.149 692.591 Q138.149 701.317 135.07 705.924 Q132.015 710.507 126.205 710.507 Q120.394 710.507 117.316 705.924 Q114.26 701.317 114.26 692.591 Q114.26 683.841 117.316 679.257 Q120.394 674.651 126.205 674.651 Z" fill="#000000" fill-rule="evenodd" fill-opacity="1" /><path clip-path="url(#clip050)" d="M 0 0 M143.218 703.956 L148.103 703.956 L148.103 709.836 L143.218 709.836 L143.218 703.956 Z" fill="#000000" fill-rule="evenodd" fill-opacity="1" /><path clip-path="url(#clip050)" d="M 0 0 M157.2 705.901 L173.519 705.901 L173.519 709.836 L151.575 709.836 L151.575 705.901 Q154.237 703.146 158.82 698.517 Q163.427 693.864 164.607 692.521 Q166.852 689.998 167.732 688.262 Q168.635 686.503 168.635 684.813 Q168.635 682.058 166.69 680.322 Q164.769 678.586 161.667 678.586 Q159.468 678.586 157.015 679.35 Q154.584 680.114 151.806 681.665 L151.806 676.943 Q154.63 675.808 157.084 675.23 Q159.538 674.651 161.575 674.651 Q166.945 674.651 170.139 677.336 Q173.334 680.021 173.334 684.512 Q173.334 686.642 172.524 688.563 Q171.737 690.461 169.63 693.054 Q169.052 693.725 165.95 696.942 Q162.848 700.137 157.2 705.901 Z" fill="#000000" fill-rule="evenodd" fill-opacity="1" /><path clip-path="url(#clip050)" d="M 0 0 M191.436 679.35 L179.63 697.799 L191.436 697.799 L191.436 679.35 M190.209 675.276 L196.088 675.276 L196.088 697.799 L201.019 697.799 L201.019 701.688 L196.088 701.688 L196.088 709.836 L191.436 709.836 L191.436 701.688 L175.834 701.688 L175.834 697.174 L190.209 675.276 Z" fill="#000000" fill-rule="evenodd" fill-opacity="1" /><path clip-path="url(#clip050)" d="M 0 0 M216.088 678.355 Q212.477 678.355 210.649 681.919 Q208.843 685.461 208.843 692.591 Q208.843 699.697 210.649 703.262 Q212.477 706.804 216.088 706.804 Q219.723 706.804 221.528 703.262 Q223.357 699.697 223.357 692.591 Q223.357 685.461 221.528 681.919 Q219.723 678.355 216.088 678.355 M216.088 674.651 Q221.898 674.651 224.954 679.257 Q228.033 683.841 228.033 692.591 Q228.033 701.317 224.954 705.924 Q221.898 710.507 216.088 710.507 Q210.278 710.507 207.199 705.924 Q204.144 701.317 204.144 692.591 Q204.144 683.841 207.199 679.257 Q210.278 674.651 216.088 674.651 Z" fill="#000000" fill-rule="evenodd" fill-opacity="1" /><path clip-path="url(#clip050)" d="M 0 0 M127.2 492.084 Q123.589 492.084 121.76 495.649 Q119.955 499.19 119.955 506.32 Q119.955 513.426 121.76 516.991 Q123.589 520.533 127.2 520.533 Q130.834 520.533 132.64 516.991 Q134.468 513.426 134.468 506.32 Q134.468 499.19 132.64 495.649 Q130.834 492.084 127.2 492.084 M127.2 488.38 Q133.01 488.38 136.066 492.987 Q139.144 497.57 139.144 506.32 Q139.144 515.047 136.066 519.653 Q133.01 524.236 127.2 524.236 Q121.39 524.236 118.311 519.653 Q115.256 515.047 115.256 506.32 Q115.256 497.57 118.311 492.987 Q121.39 488.38 127.2 488.38 Z" fill="#000000" fill-rule="evenodd" fill-opacity="1" /><path clip-path="url(#clip050)" d="M 0 0 M144.214 517.685 L149.098 517.685 L149.098 523.565 L144.214 523.565 L144.214 517.685 Z" fill="#000000" fill-rule="evenodd" fill-opacity="1" /><path clip-path="url(#clip050)" d="M 0 0 M158.195 519.63 L174.514 519.63 L174.514 523.565 L152.57 523.565 L152.57 519.63 Q155.232 516.875 159.815 512.246 Q164.422 507.593 165.602 506.25 Q167.848 503.727 168.727 501.991 Q169.63 500.232 169.63 498.542 Q169.63 495.787 167.686 494.051 Q165.765 492.315 162.663 492.315 Q160.464 492.315 158.01 493.079 Q155.579 493.843 152.802 495.394 L152.802 490.672 Q155.626 489.537 158.079 488.959 Q160.533 488.38 162.57 488.38 Q167.94 488.38 171.135 491.065 Q174.329 493.75 174.329 498.241 Q174.329 500.371 173.519 502.292 Q172.732 504.19 170.626 506.783 Q170.047 507.454 166.945 510.672 Q163.843 513.866 158.195 519.63 Z" fill="#000000" fill-rule="evenodd" fill-opacity="1" /><path clip-path="url(#clip050)" d="M 0 0 M192.431 493.079 L180.626 511.528 L192.431 511.528 L192.431 493.079 M191.204 489.005 L197.084 489.005 L197.084 511.528 L202.014 511.528 L202.014 515.417 L197.084 515.417 L197.084 523.565 L192.431 523.565 L192.431 515.417 L176.829 515.417 L176.829 510.903 L191.204 489.005 Z" fill="#000000" fill-rule="evenodd" fill-opacity="1" /><path clip-path="url(#clip050)" d="M 0 0 M207.13 489.005 L225.486 489.005 L225.486 492.94 L211.412 492.94 L211.412 501.412 Q212.431 501.065 213.449 500.903 Q214.468 500.718 215.486 500.718 Q221.273 500.718 224.653 503.889 Q228.033 507.061 228.033 512.477 Q228.033 518.056 224.56 521.158 Q221.088 524.236 214.769 524.236 Q212.593 524.236 210.324 523.866 Q208.079 523.496 205.672 522.755 L205.672 518.056 Q207.755 519.19 209.977 519.746 Q212.199 520.301 214.676 520.301 Q218.681 520.301 221.019 518.195 Q223.357 516.088 223.357 512.477 Q223.357 508.866 221.019 506.76 Q218.681 504.653 214.676 504.653 Q212.801 504.653 210.926 505.07 Q209.074 505.486 207.13 506.366 L207.13 489.005 Z" fill="#000000" fill-rule="evenodd" fill-opacity="1" /><path clip-path="url(#clip050)" d="M 0 0 M127.686 305.813 Q124.075 305.813 122.246 309.378 Q120.441 312.919 120.441 320.049 Q120.441 327.155 122.246 330.72 Q124.075 334.262 127.686 334.262 Q131.32 334.262 133.126 330.72 Q134.954 327.155 134.954 320.049 Q134.954 312.919 133.126 309.378 Q131.32 305.813 127.686 305.813 M127.686 302.109 Q133.496 302.109 136.552 306.716 Q139.63 311.299 139.63 320.049 Q139.63 328.776 136.552 333.382 Q133.496 337.966 127.686 337.966 Q121.876 337.966 118.797 333.382 Q115.742 328.776 115.742 320.049 Q115.742 311.299 118.797 306.716 Q121.876 302.109 127.686 302.109 Z" fill="#000000" fill-rule="evenodd" fill-opacity="1" /><path clip-path="url(#clip050)" d="M 0 0 M144.7 331.415 L149.584 331.415 L149.584 337.294 L144.7 337.294 L144.7 331.415 Z" fill="#000000" fill-rule="evenodd" fill-opacity="1" /><path clip-path="url(#clip050)" d="M 0 0 M158.681 333.359 L175.001 333.359 L175.001 337.294 L153.056 337.294 L153.056 333.359 Q155.718 330.604 160.302 325.975 Q164.908 321.322 166.089 319.98 Q168.334 317.456 169.214 315.72 Q170.116 313.961 170.116 312.271 Q170.116 309.517 168.172 307.78 Q166.251 306.044 163.149 306.044 Q160.95 306.044 158.496 306.808 Q156.065 307.572 153.288 309.123 L153.288 304.401 Q156.112 303.267 158.565 302.688 Q161.019 302.109 163.056 302.109 Q168.427 302.109 171.621 304.794 Q174.815 307.48 174.815 311.97 Q174.815 314.1 174.005 316.021 Q173.218 317.919 171.112 320.512 Q170.533 321.183 167.431 324.401 Q164.329 327.595 158.681 333.359 Z" fill="#000000" fill-rule="evenodd" fill-opacity="1" /><path clip-path="url(#clip050)" d="M 0 0 M180.116 302.734 L198.473 302.734 L198.473 306.669 L184.399 306.669 L184.399 315.142 Q185.417 314.794 186.436 314.632 Q187.454 314.447 188.473 314.447 Q194.26 314.447 197.639 317.618 Q201.019 320.79 201.019 326.206 Q201.019 331.785 197.547 334.887 Q194.075 337.966 187.755 337.966 Q185.579 337.966 183.311 337.595 Q181.065 337.225 178.658 336.484 L178.658 331.785 Q180.741 332.919 182.963 333.475 Q185.186 334.03 187.663 334.03 Q191.667 334.03 194.005 331.924 Q196.343 329.817 196.343 326.206 Q196.343 322.595 194.005 320.489 Q191.667 318.382 187.663 318.382 Q185.788 318.382 183.913 318.799 Q182.061 319.216 180.116 320.095 L180.116 302.734 Z" fill="#000000" fill-rule="evenodd" fill-opacity="1" /><path clip-path="url(#clip050)" d="M 0 0 M216.088 305.813 Q212.477 305.813 210.649 309.378 Q208.843 312.919 208.843 320.049 Q208.843 327.155 210.649 330.72 Q212.477 334.262 216.088 334.262 Q219.723 334.262 221.528 330.72 Q223.357 327.155 223.357 320.049 Q223.357 312.919 221.528 309.378 Q219.723 305.813 216.088 305.813 M216.088 302.109 Q221.898 302.109 224.954 306.716 Q228.033 311.299 228.033 320.049 Q228.033 328.776 224.954 333.382 Q221.898 337.966 216.088 337.966 Q210.278 337.966 207.199 333.382 Q204.144 328.776 204.144 320.049 Q204.144 311.299 207.199 306.716 Q210.278 302.109 216.088 302.109 Z" fill="#000000" fill-rule="evenodd" fill-opacity="1" /><path clip-path="url(#clip050)" d="M 0 0 M128.681 119.542 Q125.07 119.542 123.242 123.107 Q121.436 126.649 121.436 133.778 Q121.436 140.885 123.242 144.449 Q125.07 147.991 128.681 147.991 Q132.316 147.991 134.121 144.449 Q135.95 140.885 135.95 133.778 Q135.95 126.649 134.121 123.107 Q132.316 119.542 128.681 119.542 M128.681 115.838 Q134.492 115.838 137.547 120.445 Q140.626 125.028 140.626 133.778 Q140.626 142.505 137.547 147.111 Q134.492 151.695 128.681 151.695 Q122.871 151.695 119.793 147.111 Q116.737 142.505 116.737 133.778 Q116.737 125.028 119.793 120.445 Q122.871 115.838 128.681 115.838 Z" fill="#000000" fill-rule="evenodd" fill-opacity="1" /><path clip-path="url(#clip050)" d="M 0 0 M145.695 145.144 L150.579 145.144 L150.579 151.023 L145.695 151.023 L145.695 145.144 Z" fill="#000000" fill-rule="evenodd" fill-opacity="1" /><path clip-path="url(#clip050)" d="M 0 0 M159.677 147.088 L175.996 147.088 L175.996 151.023 L154.052 151.023 L154.052 147.088 Q156.714 144.334 161.297 139.704 Q165.903 135.051 167.084 133.709 Q169.329 131.186 170.209 129.449 Q171.112 127.69 171.112 126 Q171.112 123.246 169.167 121.51 Q167.246 119.774 164.144 119.774 Q161.945 119.774 159.491 120.537 Q157.061 121.301 154.283 122.852 L154.283 118.13 Q157.107 116.996 159.561 116.417 Q162.015 115.838 164.052 115.838 Q169.422 115.838 172.616 118.524 Q175.811 121.209 175.811 125.699 Q175.811 127.829 175.001 129.75 Q174.214 131.648 172.107 134.241 Q171.528 134.912 168.427 138.13 Q165.325 141.324 159.677 147.088 Z" fill="#000000" fill-rule="evenodd" fill-opacity="1" /><path clip-path="url(#clip050)" d="M 0 0 M181.112 116.463 L199.468 116.463 L199.468 120.399 L185.394 120.399 L185.394 128.871 Q186.413 128.524 187.431 128.361 Q188.45 128.176 189.468 128.176 Q195.255 128.176 198.635 131.348 Q202.014 134.519 202.014 139.935 Q202.014 145.514 198.542 148.616 Q195.07 151.695 188.75 151.695 Q186.575 151.695 184.306 151.324 Q182.061 150.954 179.653 150.213 L179.653 145.514 Q181.737 146.648 183.959 147.204 Q186.181 147.76 188.658 147.76 Q192.663 147.76 195 145.653 Q197.338 143.547 197.338 139.935 Q197.338 136.324 195 134.218 Q192.663 132.111 188.658 132.111 Q186.783 132.111 184.908 132.528 Q183.056 132.945 181.112 133.824 L181.112 116.463 Z" fill="#000000" fill-rule="evenodd" fill-opacity="1" /><path clip-path="url(#clip050)" d="M 0 0 M207.13 116.463 L225.486 116.463 L225.486 120.399 L211.412 120.399 L211.412 128.871 Q212.431 128.524 213.449 128.361 Q214.468 128.176 215.486 128.176 Q221.273 128.176 224.653 131.348 Q228.033 134.519 228.033 139.935 Q228.033 145.514 224.56 148.616 Q221.088 151.695 214.769 151.695 Q212.593 151.695 210.324 151.324 Q208.079 150.954 205.672 150.213 L205.672 145.514 Q207.755 146.648 209.977 147.204 Q212.199 147.76 214.676 147.76 Q218.681 147.76 221.019 145.653 Q223.357 143.547 223.357 139.935 Q223.357 136.324 221.019 134.218 Q218.681 132.111 214.676 132.111 Q212.801 132.111 210.926 132.528 Q209.074 132.945 207.13 133.824 L207.13 116.463 Z" fill="#000000" fill-rule="evenodd" fill-opacity="1" /><path clip-path="url(#clip050)" d="M 0 0 M59.1993 815.533 Q55.2526 813.336 53.3747 810.281 Q51.4968 807.225 51.4968 803.088 Q51.4968 797.518 55.4117 794.494 Q59.2948 791.47 66.4881 791.47 L88.0042 791.47 L88.0042 797.358 L66.679 797.358 Q61.5546 797.358 59.072 799.173 Q56.5894 800.987 56.5894 804.711 Q56.5894 809.262 59.6131 811.904 Q62.6368 814.546 67.8567 814.546 L88.0042 814.546 L88.0042 820.434 L66.679 820.434 Q61.5228 820.434 59.072 822.248 Q56.5894 824.063 56.5894 827.85 Q56.5894 832.338 59.6449 834.98 Q62.6686 837.622 67.8567 837.622 L88.0042 837.622 L88.0042 843.51 L52.3562 843.51 L52.3562 837.622 L57.8944 837.622 Q54.616 835.616 53.0564 832.815 Q51.4968 830.015 51.4968 826.163 Q51.4968 822.28 53.4702 819.575 Q55.4436 816.838 59.1993 815.533 Z" fill="#000000" fill-rule="evenodd" fill-opacity="1" /><path clip-path="url(#clip050)" d="M 0 0 M52.3562 785.327 L52.3562 779.471 L88.0042 779.471 L88.0042 785.327 L52.3562 785.327 M38.479 785.327 L38.479 779.471 L45.895 779.471 L45.895 785.327 L38.479 785.327 Z" fill="#000000" fill-rule="evenodd" fill-opacity="1" /><path clip-path="url(#clip050)" d="M 0 0 M66.4881 743.696 L88.0042 743.696 L88.0042 749.552 L66.679 749.552 Q61.6183 749.552 59.1038 751.525 Q56.5894 753.499 56.5894 757.446 Q56.5894 762.188 59.6131 764.925 Q62.6368 767.662 67.8567 767.662 L88.0042 767.662 L88.0042 773.551 L52.3562 773.551 L52.3562 767.662 L57.8944 767.662 Q54.6797 765.562 53.0883 762.729 Q51.4968 759.864 51.4968 756.141 Q51.4968 749.998 55.3163 746.847 Q59.1038 743.696 66.4881 743.696 Z" fill="#000000" fill-rule="evenodd" fill-opacity="1" /><path clip-path="url(#clip050)" d="M 0 0 M98.8259 710.467 L103.377 710.467 L103.377 744.332 L98.8259 744.332 L98.8259 710.467 Z" fill="#000000" fill-rule="evenodd" fill-opacity="1" /><path clip-path="url(#clip050)" d="M 0 0 M57.7671 680.866 L38.479 680.866 L38.479 675.01 L88.0042 675.01 L88.0042 680.866 L82.657 680.866 Q85.8398 682.712 87.3994 685.545 Q88.9272 688.346 88.9272 692.292 Q88.9272 698.754 83.771 702.828 Q78.6147 706.87 70.212 706.87 Q61.8093 706.87 56.6531 702.828 Q51.4968 698.754 51.4968 692.292 Q51.4968 688.346 53.0564 685.545 Q54.5842 682.712 57.7671 680.866 M70.212 700.823 Q76.6732 700.823 80.3653 698.181 Q84.0256 695.507 84.0256 690.86 Q84.0256 686.213 80.3653 683.54 Q76.6732 680.866 70.212 680.866 Q63.7508 680.866 60.0905 683.54 Q56.3984 686.213 56.3984 690.86 Q56.3984 695.507 60.0905 698.181 Q63.7508 700.823 70.212 700.823 Z" fill="#000000" fill-rule="evenodd" fill-opacity="1" /><path clip-path="url(#clip050)" d="M 0 0 M52.3562 668.867 L52.3562 663.01 L88.0042 663.01 L88.0042 668.867 L52.3562 668.867 M38.479 668.867 L38.479 663.01 L45.895 663.01 L45.895 668.867 L38.479 668.867 Z" fill="#000000" fill-rule="evenodd" fill-opacity="1" /><path clip-path="url(#clip050)" d="M 0 0 M38.479 638.821 L43.3487 638.821 L43.3487 644.422 Q43.3487 647.573 44.6219 648.815 Q45.895 650.024 49.2052 650.024 L52.3562 650.024 L52.3562 640.38 L56.9077 640.38 L56.9077 650.024 L88.0042 650.024 L88.0042 655.912 L56.9077 655.912 L56.9077 661.514 L52.3562 661.514 L52.3562 655.912 L49.8736 655.912 Q43.9216 655.912 41.2162 653.143 Q38.479 650.374 38.479 644.359 L38.479 638.821 Z" fill="#000000" fill-rule="evenodd" fill-opacity="1" /><path clip-path="url(#clip050)" d="M 0 0 M38.479 614.631 L43.3487 614.631 L43.3487 620.233 Q43.3487 623.384 44.6219 624.625 Q45.895 625.835 49.2052 625.835 L52.3562 625.835 L52.3562 616.19 L56.9077 616.19 L56.9077 625.835 L88.0042 625.835 L88.0042 631.723 L56.9077 631.723 L56.9077 637.325 L52.3562 637.325 L52.3562 631.723 L49.8736 631.723 Q43.9216 631.723 41.2162 628.954 Q38.479 626.185 38.479 620.169 L38.479 614.631 Z" fill="#000000" fill-rule="evenodd" fill-opacity="1" /><polyline clip-path="url(#clip052)" style="stroke:#009af9; stroke-width:20; stroke-opacity:1; fill:none" stroke-dasharray="80, 50" points="
  323.148,510.492 979.979,761.922 1636.81,1372.3 2293.64,85.838 
  "/>
<path clip-path="url(#clip050)" d="
M2000.03 213.659 L2283.13 213.659 L2283.13 92.6992 L2000.03 92.6992  Z
  " fill="#ffffff" fill-rule="evenodd" fill-opacity="1"/>
<polyline clip-path="url(#clip050)" style="stroke:#000000; stroke-width:4; stroke-opacity:1; fill:none" points="
  2000.03,213.659 2283.13,213.659 2283.13,92.6992 2000.03,92.6992 2000.03,213.659 
  "/>
<polyline clip-path="url(#clip050)" style="stroke:#009af9; stroke-width:4; stroke-opacity:1; fill:none" stroke-dasharray="16, 10" points="
  2023.24,153.179 2162.49,153.179 
  "/>
<path clip-path="url(#clip050)" d="M 0 0 M2199.54 172.867 Q2197.73 177.496 2196.02 178.908 Q2194.31 180.32 2191.44 180.32 L2188.04 180.32 L2188.04 176.755 L2190.54 176.755 Q2192.29 176.755 2193.27 175.922 Q2194.24 175.089 2195.42 171.987 L2196.18 170.043 L2185.7 144.533 L2190.21 144.533 L2198.31 164.811 L2206.41 144.533 L2210.93 144.533 L2199.54 172.867 Z" fill="#000000" fill-rule="evenodd" fill-opacity="1" /><path clip-path="url(#clip050)" d="M 0 0 M2216.81 166.524 L2224.45 166.524 L2224.45 140.158 L2216.14 141.825 L2216.14 137.566 L2224.4 135.899 L2229.08 135.899 L2229.08 166.524 L2236.72 166.524 L2236.72 170.459 L2216.81 170.459 L2216.81 166.524 Z" fill="#000000" fill-rule="evenodd" fill-opacity="1" /></svg>
