<?xml version="1.0" encoding="utf-8"?>
<svg xmlns="http://www.w3.org/2000/svg" xmlns:xlink="http://www.w3.org/1999/xlink" width="600" height="400" viewBox="0 0 2400 1600">
<defs>
  <clipPath id="clip510">
    <rect x="0" y="0" width="2400" height="1600"/>
  </clipPath>
</defs>
<path clip-path="url(#clip510)" d="
M0 1600 L2400 1600 L2400 0 L0 0  Z
  " fill="#ffffff" fill-rule="evenodd" fill-opacity="1"/>
<defs>
  <clipPath id="clip511">
    <rect x="480" y="0" width="1681" height="1600"/>
  </clipPath>
</defs>
<path clip-path="url(#clip510)" d="
M211.093 1410.9 L2352.76 1410.9 L2352.76 47.2441 L211.093 47.2441  Z
  " fill="#ffffff" fill-rule="evenodd" fill-opacity="1"/>
<defs>
  <clipPath id="clip512">
    <rect x="211" y="47" width="2143" height="1365"/>
  </clipPath>
</defs>
<polyline clip-path="url(#clip512)" style="stroke:#000000; stroke-width:2; stroke-opacity:0.1; fill:none" points="
  428.601,1410.9 428.601,47.2441 
  "/>
<polyline clip-path="url(#clip512)" style="stroke:#000000; stroke-width:2; stroke-opacity:0.1; fill:none" points="
  739.191,1410.9 739.191,47.2441 
  "/>
<polyline clip-path="url(#clip512)" style="stroke:#000000; stroke-width:2; stroke-opacity:0.1; fill:none" points="
  1049.78,1410.9 1049.78,47.2441 
  "/>
<polyline clip-path="url(#clip512)" style="stroke:#000000; stroke-width:2; stroke-opacity:0.1; fill:none" points="
  1360.37,1410.9 1360.37,47.2441 
  "/>
<polyline clip-path="url(#clip512)" style="stroke:#000000; stroke-width:2; stroke-opacity:0.1; fill:none" points="
  1670.96,1410.9 1670.96,47.2441 
  "/>
<polyline clip-path="url(#clip512)" style="stroke:#000000; stroke-width:2; stroke-opacity:0.1; fill:none" points="
  1981.55,1410.9 1981.55,47.2441 
  "/>
<polyline clip-path="url(#clip512)" style="stroke:#000000; stroke-width:2; stroke-opacity:0.1; fill:none" points="
  2292.14,1410.9 2292.14,47.2441 
  "/>
<polyline clip-path="url(#clip510)" style="stroke:#000000; stroke-width:4; stroke-opacity:1; fill:none" points="
  211.093,1410.9 2352.76,1410.9 
  "/>
<polyline clip-path="url(#clip510)" style="stroke:#000000; stroke-width:4; stroke-opacity:1; fill:none" points="
  428.601,1410.9 428.601,1394.53 
  "/>
<polyline clip-path="url(#clip510)" style="stroke:#000000; stroke-width:4; stroke-opacity:1; fill:none" points="
  739.191,1410.9 739.191,1394.53 
  "/>
<polyline clip-path="url(#clip510)" style="stroke:#000000; stroke-width:4; stroke-opacity:1; fill:none" points="
  1049.78,1410.9 1049.78,1394.53 
  "/>
<polyline clip-path="url(#clip510)" style="stroke:#000000; stroke-width:4; stroke-opacity:1; fill:none" points="
  1360.37,1410.9 1360.37,1394.53 
  "/>
<polyline clip-path="url(#clip510)" style="stroke:#000000; stroke-width:4; stroke-opacity:1; fill:none" points="
  1670.96,1410.9 1670.96,1394.53 
  "/>
<polyline clip-path="url(#clip510)" style="stroke:#000000; stroke-width:4; stroke-opacity:1; fill:none" points="
  1981.55,1410.9 1981.55,1394.53 
  "/>
<polyline clip-path="url(#clip510)" style="stroke:#000000; stroke-width:4; stroke-opacity:1; fill:none" points="
  2292.14,1410.9 2292.14,1394.53 
  "/>
<path clip-path="url(#clip510)" d="M 0 0 M368.077 1489.17 L375.716 1489.17 L375.716 1462.8 L367.406 1464.47 L367.406 1460.21 L375.669 1458.54 L380.345 1458.54 L380.345 1489.17 L387.984 1489.17 L387.984 1493.1 L368.077 1493.1 L368.077 1489.17 Z" fill="#000000" fill-rule="evenodd" fill-opacity="1" /><path clip-path="url(#clip510)" d="M 0 0 M403.053 1461.62 Q399.442 1461.62 397.614 1465.19 Q395.808 1468.73 395.808 1475.86 Q395.808 1482.97 397.614 1486.53 Q399.442 1490.07 403.053 1490.07 Q406.688 1490.07 408.493 1486.53 Q410.322 1482.97 410.322 1475.86 Q410.322 1468.73 408.493 1465.19 Q406.688 1461.62 403.053 1461.62 M403.053 1457.92 Q408.864 1457.92 411.919 1462.53 Q414.998 1467.11 414.998 1475.86 Q414.998 1484.59 411.919 1489.19 Q408.864 1493.78 403.053 1493.78 Q397.243 1493.78 394.165 1489.19 Q391.109 1484.59 391.109 1475.86 Q391.109 1467.11 394.165 1462.53 Q397.243 1457.92 403.053 1457.92 Z" fill="#000000" fill-rule="evenodd" fill-opacity="1" /><path clip-path="url(#clip510)" d="M 0 0 M414.998 1452.02 L439.109 1452.02 L439.109 1455.22 L414.998 1455.22 L414.998 1452.02 Z" fill="#000000" fill-rule="evenodd" fill-opacity="1" /><path clip-path="url(#clip510)" d="M 0 0 M451.353 1440.11 Q448.419 1440.11 446.933 1443.01 Q445.466 1445.89 445.466 1451.68 Q445.466 1457.46 446.933 1460.35 Q448.419 1463.23 451.353 1463.23 Q454.306 1463.23 455.773 1460.35 Q457.259 1457.46 457.259 1451.68 Q457.259 1445.89 455.773 1443.01 Q454.306 1440.11 451.353 1440.11 M451.353 1437.11 Q456.074 1437.11 458.557 1440.85 Q461.058 1444.57 461.058 1451.68 Q461.058 1458.77 458.557 1462.51 Q456.074 1466.24 451.353 1466.24 Q446.633 1466.24 444.131 1462.51 Q441.648 1458.77 441.648 1451.68 Q441.648 1444.57 444.131 1440.85 Q446.633 1437.11 451.353 1437.11 Z" fill="#000000" fill-rule="evenodd" fill-opacity="1" /><path clip-path="url(#clip510)" d="M 0 0 M465.177 1460.92 L469.145 1460.92 L469.145 1465.69 L465.177 1465.69 L465.177 1460.92 Z" fill="#000000" fill-rule="evenodd" fill-opacity="1" /><path clip-path="url(#clip510)" d="M 0 0 M476.537 1462.5 L489.796 1462.5 L489.796 1465.69 L471.967 1465.69 L471.967 1462.5 Q474.129 1460.26 477.853 1456.5 Q481.596 1452.72 482.555 1451.63 Q484.38 1449.58 485.094 1448.16 Q485.828 1446.74 485.828 1445.36 Q485.828 1443.12 484.248 1441.71 Q482.687 1440.3 480.167 1440.3 Q478.38 1440.3 476.386 1440.92 Q474.412 1441.54 472.155 1442.8 L472.155 1438.97 Q474.449 1438.05 476.443 1437.58 Q478.436 1437.11 480.092 1437.11 Q484.455 1437.11 487.05 1439.29 Q489.646 1441.47 489.646 1445.12 Q489.646 1446.85 488.988 1448.41 Q488.348 1449.95 486.637 1452.06 Q486.166 1452.6 483.646 1455.22 Q481.126 1457.81 476.537 1462.5 Z" fill="#000000" fill-rule="evenodd" fill-opacity="1" /><path clip-path="url(#clip510)" d="M 0 0 M691.344 1489.17 L698.982 1489.17 L698.982 1462.8 L690.672 1464.47 L690.672 1460.21 L698.936 1458.54 L703.612 1458.54 L703.612 1489.17 L711.251 1489.17 L711.251 1493.1 L691.344 1493.1 L691.344 1489.17 Z" fill="#000000" fill-rule="evenodd" fill-opacity="1" /><path clip-path="url(#clip510)" d="M 0 0 M726.32 1461.62 Q722.709 1461.62 720.88 1465.19 Q719.075 1468.73 719.075 1475.86 Q719.075 1482.97 720.88 1486.53 Q722.709 1490.07 726.32 1490.07 Q729.954 1490.07 731.76 1486.53 Q733.589 1482.97 733.589 1475.86 Q733.589 1468.73 731.76 1465.19 Q729.954 1461.62 726.32 1461.62 M726.32 1457.92 Q732.13 1457.92 735.186 1462.53 Q738.265 1467.11 738.265 1475.86 Q738.265 1484.59 735.186 1489.19 Q732.13 1493.78 726.32 1493.78 Q720.51 1493.78 717.431 1489.19 Q714.376 1484.59 714.376 1475.86 Q714.376 1467.11 717.431 1462.53 Q720.51 1457.92 726.32 1457.92 Z" fill="#000000" fill-rule="evenodd" fill-opacity="1" /><path clip-path="url(#clip510)" d="M 0 0 M747.969 1440.11 Q745.035 1440.11 743.55 1443.01 Q742.083 1445.89 742.083 1451.68 Q742.083 1457.46 743.55 1460.35 Q745.035 1463.23 747.969 1463.23 Q750.922 1463.23 752.389 1460.35 Q753.875 1457.46 753.875 1451.68 Q753.875 1445.89 752.389 1443.01 Q750.922 1440.11 747.969 1440.11 M747.969 1437.11 Q752.69 1437.11 755.173 1440.85 Q757.674 1444.57 757.674 1451.68 Q757.674 1458.77 755.173 1462.51 Q752.69 1466.24 747.969 1466.24 Q743.249 1466.24 740.747 1462.51 Q738.265 1458.77 738.265 1451.68 Q738.265 1444.57 740.747 1440.85 Q743.249 1437.11 747.969 1437.11 Z" fill="#000000" fill-rule="evenodd" fill-opacity="1" /><path clip-path="url(#clip510)" d="M 0 0 M761.793 1460.92 L765.762 1460.92 L765.762 1465.69 L761.793 1465.69 L761.793 1460.92 Z" fill="#000000" fill-rule="evenodd" fill-opacity="1" /><path clip-path="url(#clip510)" d="M 0 0 M778.005 1440.11 Q775.071 1440.11 773.586 1443.01 Q772.119 1445.89 772.119 1451.68 Q772.119 1457.46 773.586 1460.35 Q775.071 1463.23 778.005 1463.23 Q780.958 1463.23 782.425 1460.35 Q783.911 1457.46 783.911 1451.68 Q783.911 1445.89 782.425 1443.01 Q780.958 1440.11 778.005 1440.11 M778.005 1437.11 Q782.726 1437.11 785.209 1440.85 Q787.71 1444.57 787.71 1451.68 Q787.71 1458.77 785.209 1462.51 Q782.726 1466.24 778.005 1466.24 Q773.285 1466.24 770.783 1462.51 Q768.301 1458.77 768.301 1451.68 Q768.301 1444.57 770.783 1440.85 Q773.285 1437.11 778.005 1437.11 Z" fill="#000000" fill-rule="evenodd" fill-opacity="1" /><path clip-path="url(#clip510)" d="M 0 0 M1002.58 1489.17 L1010.22 1489.17 L1010.22 1462.8 L1001.91 1464.47 L1001.91 1460.21 L1010.18 1458.54 L1014.85 1458.54 L1014.85 1489.17 L1022.49 1489.17 L1022.49 1493.1 L1002.58 1493.1 L1002.58 1489.17 Z" fill="#000000" fill-rule="evenodd" fill-opacity="1" /><path clip-path="url(#clip510)" d="M 0 0 M1037.56 1461.62 Q1033.95 1461.62 1032.12 1465.19 Q1030.31 1468.73 1030.31 1475.86 Q1030.31 1482.97 1032.12 1486.53 Q1033.95 1490.07 1037.56 1490.07 Q1041.19 1490.07 1043 1486.53 Q1044.83 1482.97 1044.83 1475.86 Q1044.83 1468.73 1043 1465.19 Q1041.19 1461.62 1037.56 1461.62 M1037.56 1457.92 Q1043.37 1457.92 1046.43 1462.53 Q1049.5 1467.11 1049.5 1475.86 Q1049.5 1484.59 1046.43 1489.19 Q1043.37 1493.78 1037.56 1493.78 Q1031.75 1493.78 1028.67 1489.19 Q1025.62 1484.59 1025.62 1475.86 Q1025.62 1467.11 1028.67 1462.53 Q1031.75 1457.92 1037.56 1457.92 Z" fill="#000000" fill-rule="evenodd" fill-opacity="1" /><path clip-path="url(#clip510)" d="M 0 0 M1059.21 1440.11 Q1056.27 1440.11 1054.79 1443.01 Q1053.32 1445.89 1053.32 1451.68 Q1053.32 1457.46 1054.79 1460.35 Q1056.27 1463.23 1059.21 1463.23 Q1062.16 1463.23 1063.63 1460.35 Q1065.11 1457.46 1065.11 1451.68 Q1065.11 1445.89 1063.63 1443.01 Q1062.16 1440.11 1059.21 1440.11 M1059.21 1437.11 Q1063.93 1437.11 1066.41 1440.85 Q1068.91 1444.57 1068.91 1451.68 Q1068.91 1458.77 1066.41 1462.51 Q1063.93 1466.24 1059.21 1466.24 Q1054.49 1466.24 1051.99 1462.51 Q1049.5 1458.77 1049.5 1451.68 Q1049.5 1444.57 1051.99 1440.85 Q1054.49 1437.11 1059.21 1437.11 Z" fill="#000000" fill-rule="evenodd" fill-opacity="1" /><path clip-path="url(#clip510)" d="M 0 0 M1073.03 1460.92 L1077 1460.92 L1077 1465.69 L1073.03 1465.69 L1073.03 1460.92 Z" fill="#000000" fill-rule="evenodd" fill-opacity="1" /><path clip-path="url(#clip510)" d="M 0 0 M1084.39 1462.5 L1097.65 1462.5 L1097.65 1465.69 L1079.82 1465.69 L1079.82 1462.5 Q1081.98 1460.26 1085.71 1456.5 Q1089.45 1452.72 1090.41 1451.63 Q1092.24 1449.58 1092.95 1448.16 Q1093.68 1446.74 1093.68 1445.36 Q1093.68 1443.12 1092.1 1441.71 Q1090.54 1440.3 1088.02 1440.3 Q1086.24 1440.3 1084.24 1440.92 Q1082.27 1441.54 1080.01 1442.8 L1080.01 1438.97 Q1082.3 1438.05 1084.3 1437.58 Q1086.29 1437.11 1087.95 1437.11 Q1092.31 1437.11 1094.91 1439.29 Q1097.5 1441.47 1097.5 1445.12 Q1097.5 1446.85 1096.84 1448.41 Q1096.2 1449.95 1094.49 1452.06 Q1094.02 1452.6 1091.5 1455.22 Q1088.98 1457.81 1084.39 1462.5 Z" fill="#000000" fill-rule="evenodd" fill-opacity="1" /><path clip-path="url(#clip510)" d="M 0 0 M1312.33 1489.17 L1319.97 1489.17 L1319.97 1462.8 L1311.66 1464.47 L1311.66 1460.21 L1319.92 1458.54 L1324.6 1458.54 L1324.6 1489.17 L1332.23 1489.17 L1332.23 1493.1 L1312.33 1493.1 L1312.33 1489.17 Z" fill="#000000" fill-rule="evenodd" fill-opacity="1" /><path clip-path="url(#clip510)" d="M 0 0 M1347.3 1461.62 Q1343.69 1461.62 1341.86 1465.19 Q1340.06 1468.73 1340.06 1475.86 Q1340.06 1482.97 1341.86 1486.53 Q1343.69 1490.07 1347.3 1490.07 Q1350.94 1490.07 1352.74 1486.53 Q1354.57 1482.97 1354.57 1475.86 Q1354.57 1468.73 1352.74 1465.19 Q1350.94 1461.62 1347.3 1461.62 M1347.3 1457.92 Q1353.11 1457.92 1356.17 1462.53 Q1359.25 1467.11 1359.25 1475.86 Q1359.25 1484.59 1356.17 1489.19 Q1353.11 1493.78 1347.3 1493.78 Q1341.49 1493.78 1338.41 1489.19 Q1335.36 1484.59 1335.36 1475.86 Q1335.36 1467.11 1338.41 1462.53 Q1341.49 1457.92 1347.3 1457.92 Z" fill="#000000" fill-rule="evenodd" fill-opacity="1" /><path clip-path="url(#clip510)" d="M 0 0 M1368.95 1440.11 Q1366.02 1440.11 1364.53 1443.01 Q1363.07 1445.89 1363.07 1451.68 Q1363.07 1457.46 1364.53 1460.35 Q1366.02 1463.23 1368.95 1463.23 Q1371.91 1463.23 1373.37 1460.35 Q1374.86 1457.46 1374.86 1451.68 Q1374.86 1445.89 1373.37 1443.01 Q1371.91 1440.11 1368.95 1440.11 M1368.95 1437.11 Q1373.67 1437.11 1376.16 1440.85 Q1378.66 1444.57 1378.66 1451.68 Q1378.66 1458.77 1376.16 1462.51 Q1373.67 1466.24 1368.95 1466.24 Q1364.23 1466.24 1361.73 1462.51 Q1359.25 1458.77 1359.25 1451.68 Q1359.25 1444.57 1361.73 1440.85 Q1364.23 1437.11 1368.95 1437.11 Z" fill="#000000" fill-rule="evenodd" fill-opacity="1" /><path clip-path="url(#clip510)" d="M 0 0 M1382.78 1460.92 L1386.74 1460.92 L1386.74 1465.69 L1382.78 1465.69 L1382.78 1460.92 Z" fill="#000000" fill-rule="evenodd" fill-opacity="1" /><path clip-path="url(#clip510)" d="M 0 0 M1401.3 1440.92 L1391.71 1455.91 L1401.3 1455.91 L1401.3 1440.92 M1400.31 1437.61 L1405.08 1437.61 L1405.08 1455.91 L1409.09 1455.91 L1409.09 1459.07 L1405.08 1459.07 L1405.08 1465.69 L1401.3 1465.69 L1401.3 1459.07 L1388.63 1459.07 L1388.63 1455.41 L1400.31 1437.61 Z" fill="#000000" fill-rule="evenodd" fill-opacity="1" /><path clip-path="url(#clip510)" d="M 0 0 M1623.05 1489.17 L1630.69 1489.17 L1630.69 1462.8 L1622.38 1464.47 L1622.38 1460.21 L1630.64 1458.54 L1635.32 1458.54 L1635.32 1489.17 L1642.96 1489.17 L1642.96 1493.1 L1623.05 1493.1 L1623.05 1489.17 Z" fill="#000000" fill-rule="evenodd" fill-opacity="1" /><path clip-path="url(#clip510)" d="M 0 0 M1658.03 1461.62 Q1654.41 1461.62 1652.59 1465.19 Q1650.78 1468.73 1650.78 1475.86 Q1650.78 1482.97 1652.59 1486.53 Q1654.41 1490.07 1658.03 1490.07 Q1661.66 1490.07 1663.47 1486.53 Q1665.29 1482.97 1665.29 1475.86 Q1665.29 1468.73 1663.47 1465.19 Q1661.66 1461.62 1658.03 1461.62 M1658.03 1457.92 Q1663.84 1457.92 1666.89 1462.53 Q1669.97 1467.11 1669.97 1475.86 Q1669.97 1484.59 1666.89 1489.19 Q1663.84 1493.78 1658.03 1493.78 Q1652.22 1493.78 1649.14 1489.19 Q1646.08 1484.59 1646.08 1475.86 Q1646.08 1467.11 1649.14 1462.53 Q1652.22 1457.92 1658.03 1457.92 Z" fill="#000000" fill-rule="evenodd" fill-opacity="1" /><path clip-path="url(#clip510)" d="M 0 0 M1679.67 1440.11 Q1676.74 1440.11 1675.25 1443.01 Q1673.79 1445.89 1673.79 1451.68 Q1673.79 1457.46 1675.25 1460.35 Q1676.74 1463.23 1679.67 1463.23 Q1682.63 1463.23 1684.09 1460.35 Q1685.58 1457.46 1685.58 1451.68 Q1685.58 1445.89 1684.09 1443.01 Q1682.63 1440.11 1679.67 1440.11 M1679.67 1437.11 Q1684.4 1437.11 1686.88 1440.85 Q1689.38 1444.57 1689.38 1451.68 Q1689.38 1458.77 1686.88 1462.51 Q1684.4 1466.24 1679.67 1466.24 Q1674.95 1466.24 1672.45 1462.51 Q1669.97 1458.77 1669.97 1451.68 Q1669.97 1444.57 1672.45 1440.85 Q1674.95 1437.11 1679.67 1437.11 Z" fill="#000000" fill-rule="evenodd" fill-opacity="1" /><path clip-path="url(#clip510)" d="M 0 0 M1693.5 1460.92 L1697.47 1460.92 L1697.47 1465.69 L1693.5 1465.69 L1693.5 1460.92 Z" fill="#000000" fill-rule="evenodd" fill-opacity="1" /><path clip-path="url(#clip510)" d="M 0 0 M1710.18 1450.14 Q1707.62 1450.14 1706.12 1451.89 Q1704.63 1453.64 1704.63 1456.68 Q1704.63 1459.71 1706.12 1461.48 Q1707.62 1463.23 1710.18 1463.23 Q1712.74 1463.23 1714.22 1461.48 Q1715.73 1459.71 1715.73 1456.68 Q1715.73 1453.64 1714.22 1451.89 Q1712.74 1450.14 1710.18 1450.14 M1717.72 1438.23 L1717.72 1441.69 Q1716.29 1441.02 1714.83 1440.66 Q1713.38 1440.3 1711.95 1440.3 Q1708.19 1440.3 1706.19 1442.84 Q1704.22 1445.38 1703.94 1450.52 Q1705.05 1448.88 1706.72 1448.01 Q1708.39 1447.13 1710.41 1447.13 Q1714.64 1447.13 1717.08 1449.71 Q1719.55 1452.26 1719.55 1456.68 Q1719.55 1461.01 1716.99 1463.62 Q1714.43 1466.24 1710.18 1466.24 Q1705.31 1466.24 1702.73 1462.51 Q1700.16 1458.77 1700.16 1451.68 Q1700.16 1445.02 1703.32 1441.07 Q1706.48 1437.11 1711.8 1437.11 Q1713.23 1437.11 1714.68 1437.39 Q1716.14 1437.67 1717.72 1438.23 Z" fill="#000000" fill-rule="evenodd" fill-opacity="1" /><path clip-path="url(#clip510)" d="M 0 0 M1933.74 1489.17 L1941.38 1489.17 L1941.38 1462.8 L1933.07 1464.47 L1933.07 1460.21 L1941.33 1458.54 L1946.01 1458.54 L1946.01 1489.17 L1953.65 1489.17 L1953.65 1493.1 L1933.74 1493.1 L1933.74 1489.17 Z" fill="#000000" fill-rule="evenodd" fill-opacity="1" /><path clip-path="url(#clip510)" d="M 0 0 M1968.72 1461.62 Q1965.11 1461.62 1963.28 1465.19 Q1961.47 1468.73 1961.47 1475.86 Q1961.47 1482.97 1963.28 1486.53 Q1965.11 1490.07 1968.72 1490.07 Q1972.35 1490.07 1974.16 1486.53 Q1975.99 1482.97 1975.99 1475.86 Q1975.99 1468.73 1974.16 1465.19 Q1972.35 1461.62 1968.72 1461.62 M1968.72 1457.92 Q1974.53 1457.92 1977.58 1462.53 Q1980.66 1467.11 1980.66 1475.86 Q1980.66 1484.59 1977.58 1489.19 Q1974.53 1493.78 1968.72 1493.78 Q1962.91 1493.78 1959.83 1489.19 Q1956.77 1484.59 1956.77 1475.86 Q1956.77 1467.11 1959.83 1462.53 Q1962.91 1457.92 1968.72 1457.92 Z" fill="#000000" fill-rule="evenodd" fill-opacity="1" /><path clip-path="url(#clip510)" d="M 0 0 M1990.37 1440.11 Q1987.43 1440.11 1985.95 1443.01 Q1984.48 1445.89 1984.48 1451.68 Q1984.48 1457.46 1985.95 1460.35 Q1987.43 1463.23 1990.37 1463.23 Q1993.32 1463.23 1994.79 1460.35 Q1996.27 1457.46 1996.27 1451.68 Q1996.27 1445.89 1994.79 1443.01 Q1993.32 1440.11 1990.37 1440.11 M1990.37 1437.11 Q1995.09 1437.11 1997.57 1440.85 Q2000.07 1444.57 2000.07 1451.68 Q2000.07 1458.77 1997.57 1462.51 Q1995.09 1466.24 1990.37 1466.24 Q1985.65 1466.24 1983.15 1462.51 Q1980.66 1458.77 1980.66 1451.68 Q1980.66 1444.57 1983.15 1440.85 Q1985.65 1437.11 1990.37 1437.11 Z" fill="#000000" fill-rule="evenodd" fill-opacity="1" /><path clip-path="url(#clip510)" d="M 0 0 M2004.19 1460.92 L2008.16 1460.92 L2008.16 1465.69 L2004.19 1465.69 L2004.19 1460.92 Z" fill="#000000" fill-rule="evenodd" fill-opacity="1" /><path clip-path="url(#clip510)" d="M 0 0 M2020.4 1452.36 Q2017.7 1452.36 2016.13 1453.81 Q2014.59 1455.26 2014.59 1457.79 Q2014.59 1460.33 2016.13 1461.78 Q2017.7 1463.23 2020.4 1463.23 Q2023.11 1463.23 2024.67 1461.78 Q2026.23 1460.31 2026.23 1457.79 Q2026.23 1455.26 2024.67 1453.81 Q2023.13 1452.36 2020.4 1452.36 M2016.61 1450.74 Q2014.16 1450.14 2012.79 1448.47 Q2011.43 1446.79 2011.43 1444.38 Q2011.43 1441.02 2013.82 1439.06 Q2016.23 1437.11 2020.4 1437.11 Q2024.6 1437.11 2026.99 1439.06 Q2029.38 1441.02 2029.38 1444.38 Q2029.38 1446.79 2028 1448.47 Q2026.65 1450.14 2024.22 1450.74 Q2026.97 1451.38 2028.49 1453.24 Q2030.03 1455.1 2030.03 1457.79 Q2030.03 1461.88 2027.53 1464.06 Q2025.05 1466.24 2020.4 1466.24 Q2015.76 1466.24 2013.26 1464.06 Q2010.77 1461.88 2010.77 1457.79 Q2010.77 1455.1 2012.32 1453.24 Q2013.86 1451.38 2016.61 1450.74 M2015.21 1444.74 Q2015.21 1446.92 2016.57 1448.15 Q2017.94 1449.37 2020.4 1449.37 Q2022.85 1449.37 2024.22 1448.15 Q2025.61 1446.92 2025.61 1444.74 Q2025.61 1442.56 2024.22 1441.34 Q2022.85 1440.11 2020.4 1440.11 Q2017.94 1440.11 2016.57 1441.34 Q2015.21 1442.56 2015.21 1444.74 Z" fill="#000000" fill-rule="evenodd" fill-opacity="1" /><path clip-path="url(#clip510)" d="M 0 0 M2245.64 1489.17 L2253.28 1489.17 L2253.28 1462.8 L2244.97 1464.47 L2244.97 1460.21 L2253.23 1458.54 L2257.91 1458.54 L2257.91 1489.17 L2265.55 1489.17 L2265.55 1493.1 L2245.64 1493.1 L2245.64 1489.17 Z" fill="#000000" fill-rule="evenodd" fill-opacity="1" /><path clip-path="url(#clip510)" d="M 0 0 M2280.62 1461.62 Q2277.01 1461.62 2275.18 1465.19 Q2273.37 1468.73 2273.37 1475.86 Q2273.37 1482.97 2275.18 1486.53 Q2277.01 1490.07 2280.62 1490.07 Q2284.25 1490.07 2286.06 1486.53 Q2287.89 1482.97 2287.89 1475.86 Q2287.89 1468.73 2286.06 1465.19 Q2284.25 1461.62 2280.62 1461.62 M2280.62 1457.92 Q2286.43 1457.92 2289.48 1462.53 Q2292.56 1467.11 2292.56 1475.86 Q2292.56 1484.59 2289.48 1489.19 Q2286.43 1493.78 2280.62 1493.78 Q2274.81 1493.78 2271.73 1489.19 Q2268.67 1484.59 2268.67 1475.86 Q2268.67 1467.11 2271.73 1462.53 Q2274.81 1457.92 2280.62 1457.92 Z" fill="#000000" fill-rule="evenodd" fill-opacity="1" /><path clip-path="url(#clip510)" d="M 0 0 M2293.11 1462.5 L2299.31 1462.5 L2299.31 1441.07 L2292.56 1442.43 L2292.56 1438.97 L2299.28 1437.61 L2303.07 1437.61 L2303.07 1462.5 L2309.28 1462.5 L2309.28 1465.69 L2293.11 1465.69 L2293.11 1462.5 Z" fill="#000000" fill-rule="evenodd" fill-opacity="1" /><path clip-path="url(#clip510)" d="M 0 0 M2313.4 1460.92 L2317.37 1460.92 L2317.37 1465.69 L2313.4 1465.69 L2313.4 1460.92 Z" fill="#000000" fill-rule="evenodd" fill-opacity="1" /><path clip-path="url(#clip510)" d="M 0 0 M2329.61 1440.11 Q2326.68 1440.11 2325.19 1443.01 Q2323.73 1445.89 2323.73 1451.68 Q2323.73 1457.46 2325.19 1460.35 Q2326.68 1463.23 2329.61 1463.23 Q2332.57 1463.23 2334.03 1460.35 Q2335.52 1457.46 2335.52 1451.68 Q2335.52 1445.89 2334.03 1443.01 Q2332.57 1440.11 2329.61 1440.11 M2329.61 1437.11 Q2334.33 1437.11 2336.82 1440.85 Q2339.32 1444.57 2339.32 1451.68 Q2339.32 1458.77 2336.82 1462.51 Q2334.33 1466.24 2329.61 1466.24 Q2324.89 1466.24 2322.39 1462.51 Q2319.91 1458.77 2319.91 1451.68 Q2319.91 1444.57 2322.39 1440.85 Q2324.89 1437.11 2329.61 1437.11 Z" fill="#000000" fill-rule="evenodd" fill-opacity="1" /><path clip-path="url(#clip510)" d="M 0 0 M1287.13 1545.6 L1285.73 1538.25 Q1284.3 1530.71 1278.63 1530.71 Q1274.37 1530.71 1272.42 1534.21 Q1269.97 1538.6 1269.97 1544.39 Q1269.97 1551.4 1272.36 1554.74 Q1274.78 1558.14 1278.63 1558.14 Q1282.9 1558.14 1285.19 1551.36 L1287.13 1545.6 M1290.41 1535.86 L1293.56 1526.54 L1298.78 1526.54 L1292.25 1545.86 L1293.53 1552.83 Q1293.81 1554.39 1294.93 1555.69 Q1296.23 1557.22 1297.25 1557.22 L1300.05 1557.22 L1300.05 1562.19 L1296.55 1562.19 Q1293.56 1562.19 1290.88 1559.51 Q1289.58 1558.18 1289.04 1555.37 Q1287.57 1558.91 1284.58 1561.68 Q1283.18 1562.98 1278.63 1562.98 Q1271.15 1562.98 1267.52 1558.14 Q1263.8 1553.15 1263.8 1544.39 Q1263.8 1535.04 1267.84 1530.64 Q1272.33 1525.74 1278.63 1525.74 Q1288.53 1525.74 1290.41 1535.86 Z" fill="#000000" fill-rule="evenodd" fill-opacity="1" /><polyline clip-path="url(#clip512)" style="stroke:#000000; stroke-width:2; stroke-opacity:0.1; fill:none" points="
  211.093,1213.18 2352.76,1213.18 
  "/>
<polyline clip-path="url(#clip512)" style="stroke:#000000; stroke-width:2; stroke-opacity:0.1; fill:none" points="
  211.093,990.542 2352.76,990.542 
  "/>
<polyline clip-path="url(#clip512)" style="stroke:#000000; stroke-width:2; stroke-opacity:0.1; fill:none" points="
  211.093,767.907 2352.76,767.907 
  "/>
<polyline clip-path="url(#clip512)" style="stroke:#000000; stroke-width:2; stroke-opacity:0.1; fill:none" points="
  211.093,545.273 2352.76,545.273 
  "/>
<polyline clip-path="url(#clip512)" style="stroke:#000000; stroke-width:2; stroke-opacity:0.1; fill:none" points="
  211.093,322.638 2352.76,322.638 
  "/>
<polyline clip-path="url(#clip512)" style="stroke:#000000; stroke-width:2; stroke-opacity:0.1; fill:none" points="
  211.093,100.003 2352.76,100.003 
  "/>
<polyline clip-path="url(#clip510)" style="stroke:#000000; stroke-width:4; stroke-opacity:1; fill:none" points="
  211.093,1410.9 211.093,47.2441 
  "/>
<polyline clip-path="url(#clip510)" style="stroke:#000000; stroke-width:4; stroke-opacity:1; fill:none" points="
  211.093,1213.18 236.793,1213.18 
  "/>
<polyline clip-path="url(#clip510)" style="stroke:#000000; stroke-width:4; stroke-opacity:1; fill:none" points="
  211.093,990.542 236.793,990.542 
  "/>
<polyline clip-path="url(#clip510)" style="stroke:#000000; stroke-width:4; stroke-opacity:1; fill:none" points="
  211.093,767.907 236.793,767.907 
  "/>
<polyline clip-path="url(#clip510)" style="stroke:#000000; stroke-width:4; stroke-opacity:1; fill:none" points="
  211.093,545.273 236.793,545.273 
  "/>
<polyline clip-path="url(#clip510)" style="stroke:#000000; stroke-width:4; stroke-opacity:1; fill:none" points="
  211.093,322.638 236.793,322.638 
  "/>
<polyline clip-path="url(#clip510)" style="stroke:#000000; stroke-width:4; stroke-opacity:1; fill:none" points="
  211.093,100.003 236.793,100.003 
  "/>
<path clip-path="url(#clip510)" d="M 0 0 M126.598 1211.31 Q123.45 1211.31 121.598 1213.47 Q119.769 1215.62 119.769 1219.37 Q119.769 1223.1 121.598 1225.27 Q123.45 1227.42 126.598 1227.42 Q129.746 1227.42 131.575 1225.27 Q133.427 1223.1 133.427 1219.37 Q133.427 1215.62 131.575 1213.47 Q129.746 1211.31 126.598 1211.31 M135.88 1196.66 L135.88 1200.92 Q134.121 1200.09 132.316 1199.65 Q130.533 1199.21 128.774 1199.21 Q124.144 1199.21 121.691 1202.33 Q119.26 1205.46 118.913 1211.78 Q120.279 1209.76 122.339 1208.7 Q124.399 1207.61 126.876 1207.61 Q132.084 1207.61 135.093 1210.78 Q138.126 1213.93 138.126 1219.37 Q138.126 1224.69 134.978 1227.91 Q131.83 1231.13 126.598 1231.13 Q120.603 1231.13 117.431 1226.54 Q114.26 1221.94 114.26 1213.21 Q114.26 1205.02 118.149 1200.16 Q122.038 1195.27 128.589 1195.27 Q130.348 1195.27 132.13 1195.62 Q133.936 1195.97 135.88 1196.66 Z" fill="#000000" fill-rule="evenodd" fill-opacity="1" /><path clip-path="url(#clip510)" d="M 0 0 M143.195 1224.58 L148.079 1224.58 L148.079 1230.46 L143.195 1230.46 L143.195 1224.58 Z" fill="#000000" fill-rule="evenodd" fill-opacity="1" /><path clip-path="url(#clip510)" d="M 0 0 M163.149 1198.98 Q159.538 1198.98 157.709 1202.54 Q155.903 1206.08 155.903 1213.21 Q155.903 1220.32 157.709 1223.88 Q159.538 1227.42 163.149 1227.42 Q166.783 1227.42 168.589 1223.88 Q170.417 1220.32 170.417 1213.21 Q170.417 1206.08 168.589 1202.54 Q166.783 1198.98 163.149 1198.98 M163.149 1195.27 Q168.959 1195.27 172.014 1199.88 Q175.093 1204.46 175.093 1213.21 Q175.093 1221.94 172.014 1226.54 Q168.959 1231.13 163.149 1231.13 Q157.339 1231.13 154.26 1226.54 Q151.204 1221.94 151.204 1213.21 Q151.204 1204.46 154.26 1199.88 Q157.339 1195.27 163.149 1195.27 Z" fill="#000000" fill-rule="evenodd" fill-opacity="1" /><path clip-path="url(#clip510)" d="M 0 0 M127.593 988.679 Q124.445 988.679 122.593 990.831 Q120.765 992.984 120.765 996.734 Q120.765 1000.46 122.593 1002.64 Q124.445 1004.79 127.593 1004.79 Q130.742 1004.79 132.57 1002.64 Q134.422 1000.46 134.422 996.734 Q134.422 992.984 132.57 990.831 Q130.742 988.679 127.593 988.679 M136.876 974.026 L136.876 978.285 Q135.117 977.452 133.311 977.012 Q131.529 976.572 129.769 976.572 Q125.14 976.572 122.686 979.697 Q120.255 982.822 119.908 989.141 Q121.274 987.128 123.334 986.063 Q125.394 984.975 127.871 984.975 Q133.08 984.975 136.089 988.146 Q139.121 991.294 139.121 996.734 Q139.121 1002.06 135.973 1005.28 Q132.825 1008.49 127.593 1008.49 Q121.598 1008.49 118.427 1003.91 Q115.256 999.303 115.256 990.577 Q115.256 982.382 119.144 977.521 Q123.033 972.637 129.584 972.637 Q131.343 972.637 133.126 972.984 Q134.931 973.331 136.876 974.026 Z" fill="#000000" fill-rule="evenodd" fill-opacity="1" /><path clip-path="url(#clip510)" d="M 0 0 M144.191 1001.94 L149.075 1001.94 L149.075 1007.82 L144.191 1007.82 L144.191 1001.94 Z" fill="#000000" fill-rule="evenodd" fill-opacity="1" /><path clip-path="url(#clip510)" d="M 0 0 M154.19 973.262 L172.547 973.262 L172.547 977.197 L158.473 977.197 L158.473 985.669 Q159.491 985.322 160.51 985.16 Q161.528 984.975 162.547 984.975 Q168.334 984.975 171.714 988.146 Q175.093 991.317 175.093 996.734 Q175.093 1002.31 171.621 1005.41 Q168.149 1008.49 161.829 1008.49 Q159.653 1008.49 157.385 1008.12 Q155.14 1007.75 152.732 1007.01 L152.732 1002.31 Q154.815 1003.45 157.038 1004 Q159.26 1004.56 161.737 1004.56 Q165.741 1004.56 168.079 1002.45 Q170.417 1000.35 170.417 996.734 Q170.417 993.123 168.079 991.016 Q165.741 988.91 161.737 988.91 Q159.862 988.91 157.987 989.327 Q156.135 989.743 154.19 990.623 L154.19 973.262 Z" fill="#000000" fill-rule="evenodd" fill-opacity="1" /><path clip-path="url(#clip510)" d="M 0 0 M115.904 750.627 L138.126 750.627 L138.126 752.618 L125.58 785.187 L120.695 785.187 L132.501 754.562 L115.904 754.562 L115.904 750.627 Z" fill="#000000" fill-rule="evenodd" fill-opacity="1" /><path clip-path="url(#clip510)" d="M 0 0 M143.195 779.308 L148.079 779.308 L148.079 785.187 L143.195 785.187 L143.195 779.308 Z" fill="#000000" fill-rule="evenodd" fill-opacity="1" /><path clip-path="url(#clip510)" d="M 0 0 M163.149 753.706 Q159.538 753.706 157.709 757.271 Q155.903 760.812 155.903 767.942 Q155.903 775.048 157.709 778.613 Q159.538 782.155 163.149 782.155 Q166.783 782.155 168.589 778.613 Q170.417 775.048 170.417 767.942 Q170.417 760.812 168.589 757.271 Q166.783 753.706 163.149 753.706 M163.149 750.002 Q168.959 750.002 172.014 754.609 Q175.093 759.192 175.093 767.942 Q175.093 776.669 172.014 781.275 Q168.959 785.859 163.149 785.859 Q157.339 785.859 154.26 781.275 Q151.204 776.669 151.204 767.942 Q151.204 759.192 154.26 754.609 Q157.339 750.002 163.149 750.002 Z" fill="#000000" fill-rule="evenodd" fill-opacity="1" /><path clip-path="url(#clip510)" d="M 0 0 M116.899 527.993 L139.121 527.993 L139.121 529.983 L126.575 562.553 L121.691 562.553 L133.496 531.928 L116.899 531.928 L116.899 527.993 Z" fill="#000000" fill-rule="evenodd" fill-opacity="1" /><path clip-path="url(#clip510)" d="M 0 0 M144.191 556.673 L149.075 556.673 L149.075 562.553 L144.191 562.553 L144.191 556.673 Z" fill="#000000" fill-rule="evenodd" fill-opacity="1" /><path clip-path="url(#clip510)" d="M 0 0 M154.19 527.993 L172.547 527.993 L172.547 531.928 L158.473 531.928 L158.473 540.4 Q159.491 540.053 160.51 539.891 Q161.528 539.705 162.547 539.705 Q168.334 539.705 171.714 542.877 Q175.093 546.048 175.093 551.465 Q175.093 557.043 171.621 560.145 Q168.149 563.224 161.829 563.224 Q159.653 563.224 157.385 562.854 Q155.14 562.483 152.732 561.742 L152.732 557.043 Q154.815 558.178 157.038 558.733 Q159.26 559.289 161.737 559.289 Q165.741 559.289 168.079 557.182 Q170.417 555.076 170.417 551.465 Q170.417 547.854 168.079 545.747 Q165.741 543.641 161.737 543.641 Q159.862 543.641 157.987 544.057 Q156.135 544.474 154.19 545.354 L154.19 527.993 Z" fill="#000000" fill-rule="evenodd" fill-opacity="1" /><path clip-path="url(#clip510)" d="M 0 0 M126.274 323.506 Q122.941 323.506 121.019 325.288 Q119.121 327.071 119.121 330.196 Q119.121 333.321 121.019 335.103 Q122.941 336.886 126.274 336.886 Q129.607 336.886 131.529 335.103 Q133.45 333.298 133.45 330.196 Q133.45 327.071 131.529 325.288 Q129.63 323.506 126.274 323.506 M121.598 321.515 Q118.589 320.775 116.899 318.714 Q115.232 316.654 115.232 313.691 Q115.232 309.548 118.172 307.14 Q121.135 304.733 126.274 304.733 Q131.436 304.733 134.376 307.14 Q137.316 309.548 137.316 313.691 Q137.316 316.654 135.626 318.714 Q133.959 320.775 130.973 321.515 Q134.353 322.302 136.228 324.594 Q138.126 326.886 138.126 330.196 Q138.126 335.219 135.047 337.904 Q131.992 340.589 126.274 340.589 Q120.556 340.589 117.478 337.904 Q114.422 335.219 114.422 330.196 Q114.422 326.886 116.32 324.594 Q118.218 322.302 121.598 321.515 M119.885 314.131 Q119.885 316.816 121.552 318.321 Q123.242 319.825 126.274 319.825 Q129.283 319.825 130.973 318.321 Q132.686 316.816 132.686 314.131 Q132.686 311.446 130.973 309.941 Q129.283 308.437 126.274 308.437 Q123.242 308.437 121.552 309.941 Q119.885 311.446 119.885 314.131 Z" fill="#000000" fill-rule="evenodd" fill-opacity="1" /><path clip-path="url(#clip510)" d="M 0 0 M143.195 334.038 L148.079 334.038 L148.079 339.918 L143.195 339.918 L143.195 334.038 Z" fill="#000000" fill-rule="evenodd" fill-opacity="1" /><path clip-path="url(#clip510)" d="M 0 0 M163.149 308.437 Q159.538 308.437 157.709 312.001 Q155.903 315.543 155.903 322.673 Q155.903 329.779 157.709 333.344 Q159.538 336.886 163.149 336.886 Q166.783 336.886 168.589 333.344 Q170.417 329.779 170.417 322.673 Q170.417 315.543 168.589 312.001 Q166.783 308.437 163.149 308.437 M163.149 304.733 Q168.959 304.733 172.014 309.339 Q175.093 313.923 175.093 322.673 Q175.093 331.399 172.014 336.006 Q168.959 340.589 163.149 340.589 Q157.339 340.589 154.26 336.006 Q151.204 331.399 151.204 322.673 Q151.204 313.923 154.26 309.339 Q157.339 304.733 163.149 304.733 Z" fill="#000000" fill-rule="evenodd" fill-opacity="1" /><path clip-path="url(#clip510)" d="M 0 0 M127.269 100.871 Q123.936 100.871 122.015 102.654 Q120.117 104.436 120.117 107.561 Q120.117 110.686 122.015 112.468 Q123.936 114.251 127.269 114.251 Q130.603 114.251 132.524 112.468 Q134.445 110.663 134.445 107.561 Q134.445 104.436 132.524 102.654 Q130.626 100.871 127.269 100.871 M122.593 98.8806 Q119.584 98.1398 117.894 96.0797 Q116.228 94.0195 116.228 91.0565 Q116.228 86.913 119.168 84.5056 Q122.13 82.0982 127.269 82.0982 Q132.431 82.0982 135.371 84.5056 Q138.311 86.913 138.311 91.0565 Q138.311 94.0195 136.621 96.0797 Q134.954 98.1398 131.968 98.8806 Q135.348 99.6676 137.223 101.959 Q139.121 104.251 139.121 107.561 Q139.121 112.584 136.042 115.269 Q132.987 117.955 127.269 117.955 Q121.552 117.955 118.473 115.269 Q115.418 112.584 115.418 107.561 Q115.418 104.251 117.316 101.959 Q119.214 99.6676 122.593 98.8806 M120.88 91.4963 Q120.88 94.1815 122.547 95.6861 Q124.237 97.1908 127.269 97.1908 Q130.279 97.1908 131.968 95.6861 Q133.681 94.1815 133.681 91.4963 Q133.681 88.8112 131.968 87.3065 Q130.279 85.8019 127.269 85.8019 Q124.237 85.8019 122.547 87.3065 Q120.88 88.8112 120.88 91.4963 Z" fill="#000000" fill-rule="evenodd" fill-opacity="1" /><path clip-path="url(#clip510)" d="M 0 0 M144.191 111.404 L149.075 111.404 L149.075 117.283 L144.191 117.283 L144.191 111.404 Z" fill="#000000" fill-rule="evenodd" fill-opacity="1" /><path clip-path="url(#clip510)" d="M 0 0 M154.19 82.7232 L172.547 82.7232 L172.547 86.6584 L158.473 86.6584 L158.473 95.1306 Q159.491 94.7834 160.51 94.6213 Q161.528 94.4361 162.547 94.4361 Q168.334 94.4361 171.714 97.6074 Q175.093 100.779 175.093 106.195 Q175.093 111.774 171.621 114.876 Q168.149 117.955 161.829 117.955 Q159.653 117.955 157.385 117.584 Q155.14 117.214 152.732 116.473 L152.732 111.774 Q154.815 112.908 157.038 113.464 Q159.26 114.019 161.737 114.019 Q165.741 114.019 168.079 111.913 Q170.417 109.806 170.417 106.195 Q170.417 102.584 168.079 100.478 Q165.741 98.3713 161.737 98.3713 Q159.862 98.3713 157.987 98.788 Q156.135 99.2046 154.19 100.084 L154.19 82.7232 Z" fill="#000000" fill-rule="evenodd" fill-opacity="1" /><path clip-path="url(#clip510)" d="M 0 0 M59.1993 815.533 Q55.2526 813.336 53.3747 810.281 Q51.4968 807.225 51.4968 803.088 Q51.4968 797.518 55.4117 794.494 Q59.2948 791.47 66.4881 791.47 L88.0042 791.47 L88.0042 797.358 L66.679 797.358 Q61.5546 797.358 59.072 799.173 Q56.5894 800.987 56.5894 804.711 Q56.5894 809.262 59.6131 811.904 Q62.6368 814.546 67.8567 814.546 L88.0042 814.546 L88.0042 820.434 L66.679 820.434 Q61.5228 820.434 59.072 822.248 Q56.5894 824.063 56.5894 827.85 Q56.5894 832.338 59.6449 834.98 Q62.6686 837.622 67.8567 837.622 L88.0042 837.622 L88.0042 843.51 L52.3562 843.51 L52.3562 837.622 L57.8944 837.622 Q54.616 835.616 53.0564 832.815 Q51.4968 830.015 51.4968 826.163 Q51.4968 822.28 53.4702 819.575 Q55.4436 816.838 59.1993 815.533 Z" fill="#000000" fill-rule="evenodd" fill-opacity="1" /><path clip-path="url(#clip510)" d="M 0 0 M52.3562 785.327 L52.3562 779.471 L88.0042 779.471 L88.0042 785.327 L52.3562 785.327 M38.479 785.327 L38.479 779.471 L45.895 779.471 L45.895 785.327 L38.479 785.327 Z" fill="#000000" fill-rule="evenodd" fill-opacity="1" /><path clip-path="url(#clip510)" d="M 0 0 M66.4881 743.696 L88.0042 743.696 L88.0042 749.552 L66.679 749.552 Q61.6183 749.552 59.1038 751.525 Q56.5894 753.499 56.5894 757.446 Q56.5894 762.188 59.6131 764.925 Q62.6368 767.662 67.8567 767.662 L88.0042 767.662 L88.0042 773.551 L52.3562 773.551 L52.3562 767.662 L57.8944 767.662 Q54.6797 765.562 53.0883 762.729 Q51.4968 759.864 51.4968 756.141 Q51.4968 749.998 55.3163 746.847 Q59.1038 743.696 66.4881 743.696 Z" fill="#000000" fill-rule="evenodd" fill-opacity="1" /><path clip-path="url(#clip510)" d="M 0 0 M98.8259 710.467 L103.377 710.467 L103.377 744.332 L98.8259 744.332 L98.8259 710.467 Z" fill="#000000" fill-rule="evenodd" fill-opacity="1" /><path clip-path="url(#clip510)" d="M 0 0 M57.7671 680.866 L38.479 680.866 L38.479 675.01 L88.0042 675.01 L88.0042 680.866 L82.657 680.866 Q85.8398 682.712 87.3994 685.545 Q88.9272 688.346 88.9272 692.292 Q88.9272 698.754 83.771 702.828 Q78.6147 706.87 70.212 706.87 Q61.8093 706.87 56.6531 702.828 Q51.4968 698.754 51.4968 692.292 Q51.4968 688.346 53.0564 685.545 Q54.5842 682.712 57.7671 680.866 M70.212 700.823 Q76.6732 700.823 80.3653 698.181 Q84.0256 695.507 84.0256 690.86 Q84.0256 686.213 80.3653 683.54 Q76.6732 680.866 70.212 680.866 Q63.7508 680.866 60.0905 683.54 Q56.3984 686.213 56.3984 690.86 Q56.3984 695.507 60.0905 698.181 Q63.7508 700.823 70.212 700.823 Z" fill="#000000" fill-rule="evenodd" fill-opacity="1" /><path clip-path="url(#clip510)" d="M 0 0 M52.3562 668.867 L52.3562 663.01 L88.0042 663.01 L88.0042 668.867 L52.3562 668.867 M38.479 668.867 L38.479 663.01 L45.895 663.01 L45.895 668.867 L38.479 668.867 Z" fill="#000000" fill-rule="evenodd" fill-opacity="1" /><path clip-path="url(#clip510)" d="M 0 0 M38.479 638.821 L43.3487 638.821 L43.3487 644.422 Q43.3487 647.573 44.6219 648.815 Q45.895 650.024 49.2052 650.024 L52.3562 650.024 L52.3562 640.38 L56.9077 640.38 L56.9077 650.024 L88.0042 650.024 L88.0042 655.912 L56.9077 655.912 L56.9077 661.514 L52.3562 661.514 L52.3562 655.912 L49.8736 655.912 Q43.9216 655.912 41.2162 653.143 Q38.479 650.374 38.479 644.359 L38.479 638.821 Z" fill="#000000" fill-rule="evenodd" fill-opacity="1" /><path clip-path="url(#clip510)" d="M 0 0 M38.479 614.631 L43.3487 614.631 L43.3487 620.233 Q43.3487 623.384 44.6219 624.625 Q45.895 625.835 49.2052 625.835 L52.3562 625.835 L52.3562 616.19 L56.9077 616.19 L56.9077 625.835 L88.0042 625.835 L88.0042 631.723 L56.9077 631.723 L56.9077 637.325 L52.3562 637.325 L52.3562 631.723 L49.8736 631.723 Q43.9216 631.723 41.2162 628.954 Q38.479 626.185 38.479 620.169 L38.479 614.631 Z" fill="#000000" fill-rule="evenodd" fill-opacity="1" /><polyline clip-path="url(#clip512)" style="stroke:#009af9; stroke-width:20; stroke-opacity:1; fill:none" stroke-dasharray="80, 50" points="
  271.706,1171.4 739.191,1372.3 1012.65,1211.99 1206.68,1323.95 1357.17,1241.82 1480.14,459.147 1584.1,276.118 1674.16,240.442 1753.6,228.209 1824.66,206.613 
  1888.94,180.864 1947.62,153.696 2001.61,126.558 2051.59,117.264 2098.12,114.461 2141.65,110.077 2182.53,104.688 2221.08,98.6885 2257.55,92.3444 2292.14,85.838 
  
  "/>
<path clip-path="url(#clip510)" d="
M1992.39 213.659 L2281.37 213.659 L2281.37 92.6992 L1992.39 92.6992  Z
  " fill="#ffffff" fill-rule="evenodd" fill-opacity="1"/>
<polyline clip-path="url(#clip510)" style="stroke:#000000; stroke-width:4; stroke-opacity:1; fill:none" points="
  1992.39,213.659 2281.37,213.659 2281.37,92.6992 1992.39,92.6992 1992.39,213.659 
  "/>
<polyline clip-path="url(#clip510)" style="stroke:#009af9; stroke-width:4; stroke-opacity:1; fill:none" stroke-dasharray="16, 10" points="
  2016.18,153.179 2158.96,153.179 
  "/>
<path clip-path="url(#clip510)" d="M 0 0 M2196.6 172.867 Q2194.79 177.496 2193.08 178.908 Q2191.37 180.32 2188.5 180.32 L2185.09 180.32 L2185.09 176.755 L2187.59 176.755 Q2189.35 176.755 2190.33 175.922 Q2191.3 175.089 2192.48 171.987 L2193.24 170.043 L2182.76 144.533 L2187.27 144.533 L2195.37 164.811 L2203.47 144.533 L2207.99 144.533 L2196.6 172.867 Z" fill="#000000" fill-rule="evenodd" fill-opacity="1" /><path clip-path="url(#clip510)" d="M 0 0 M2213.87 166.524 L2221.51 166.524 L2221.51 140.158 L2213.2 141.825 L2213.2 137.566 L2221.46 135.899 L2226.14 135.899 L2226.14 166.524 L2233.77 166.524 L2233.77 170.459 L2213.87 170.459 L2213.87 166.524 Z" fill="#000000" fill-rule="evenodd" fill-opacity="1" /></svg>
