<?xml version="1.0" encoding="utf-8"?>
<svg xmlns="http://www.w3.org/2000/svg" xmlns:xlink="http://www.w3.org/1999/xlink" width="600" height="400" viewBox="0 0 2400 1600">
<defs>
  <clipPath id="clip820">
    <rect x="0" y="0" width="2400" height="1600"/>
  </clipPath>
</defs>
<path clip-path="url(#clip820)" d="
M0 1600 L2400 1600 L2400 0 L0 0  Z
  " fill="#ffffff" fill-rule="evenodd" fill-opacity="1"/>
<defs>
  <clipPath id="clip821">
    <rect x="480" y="0" width="1681" height="1600"/>
  </clipPath>
</defs>
<path clip-path="url(#clip820)" d="
M235.954 1410.9 L2352.76 1410.9 L2352.76 47.2441 L235.954 47.2441  Z
  " fill="#ffffff" fill-rule="evenodd" fill-opacity="1"/>
<defs>
  <clipPath id="clip822">
    <rect x="235" y="47" width="2118" height="1365"/>
  </clipPath>
</defs>
<polyline clip-path="url(#clip822)" style="stroke:#000000; stroke-width:2; stroke-opacity:0.1; fill:none" points="
  295.864,1410.9 295.864,47.2441 
  "/>
<polyline clip-path="url(#clip822)" style="stroke:#000000; stroke-width:2; stroke-opacity:0.1; fill:none" points="
  795.109,1410.9 795.109,47.2441 
  "/>
<polyline clip-path="url(#clip822)" style="stroke:#000000; stroke-width:2; stroke-opacity:0.1; fill:none" points="
  1294.36,1410.9 1294.36,47.2441 
  "/>
<polyline clip-path="url(#clip822)" style="stroke:#000000; stroke-width:2; stroke-opacity:0.1; fill:none" points="
  1793.6,1410.9 1793.6,47.2441 
  "/>
<polyline clip-path="url(#clip822)" style="stroke:#000000; stroke-width:2; stroke-opacity:0.1; fill:none" points="
  2292.85,1410.9 2292.85,47.2441 
  "/>
<polyline clip-path="url(#clip820)" style="stroke:#000000; stroke-width:4; stroke-opacity:1; fill:none" points="
  235.954,1410.9 2352.76,1410.9 
  "/>
<polyline clip-path="url(#clip820)" style="stroke:#000000; stroke-width:4; stroke-opacity:1; fill:none" points="
  295.864,1410.9 295.864,1394.53 
  "/>
<polyline clip-path="url(#clip820)" style="stroke:#000000; stroke-width:4; stroke-opacity:1; fill:none" points="
  795.109,1410.9 795.109,1394.53 
  "/>
<polyline clip-path="url(#clip820)" style="stroke:#000000; stroke-width:4; stroke-opacity:1; fill:none" points="
  1294.36,1410.9 1294.36,1394.53 
  "/>
<polyline clip-path="url(#clip820)" style="stroke:#000000; stroke-width:4; stroke-opacity:1; fill:none" points="
  1793.6,1410.9 1793.6,1394.53 
  "/>
<polyline clip-path="url(#clip820)" style="stroke:#000000; stroke-width:4; stroke-opacity:1; fill:none" points="
  2292.85,1410.9 2292.85,1394.53 
  "/>
<path clip-path="url(#clip820)" d="M 0 0 M234.625 1489.17 L242.264 1489.17 L242.264 1462.8 L233.954 1464.47 L233.954 1460.21 L242.217 1458.54 L246.893 1458.54 L246.893 1489.17 L254.532 1489.17 L254.532 1493.1 L234.625 1493.1 L234.625 1489.17 Z" fill="#000000" fill-rule="evenodd" fill-opacity="1" /><path clip-path="url(#clip820)" d="M 0 0 M269.601 1461.62 Q265.99 1461.62 264.162 1465.19 Q262.356 1468.73 262.356 1475.86 Q262.356 1482.97 264.162 1486.53 Q265.99 1490.07 269.601 1490.07 Q273.236 1490.07 275.041 1486.53 Q276.87 1482.97 276.87 1475.86 Q276.87 1468.73 275.041 1465.19 Q273.236 1461.62 269.601 1461.62 M269.601 1457.92 Q275.412 1457.92 278.467 1462.53 Q281.546 1467.11 281.546 1475.86 Q281.546 1484.59 278.467 1489.19 Q275.412 1493.78 269.601 1493.78 Q263.791 1493.78 260.713 1489.19 Q257.657 1484.59 257.657 1475.86 Q257.657 1467.11 260.713 1462.53 Q263.791 1457.92 269.601 1457.92 Z" fill="#000000" fill-rule="evenodd" fill-opacity="1" /><path clip-path="url(#clip820)" d="M 0 0 M281.546 1452.02 L305.657 1452.02 L305.657 1455.22 L281.546 1455.22 L281.546 1452.02 Z" fill="#000000" fill-rule="evenodd" fill-opacity="1" /><path clip-path="url(#clip820)" d="M 0 0 M318.371 1450.14 Q315.814 1450.14 314.309 1451.89 Q312.823 1453.64 312.823 1456.68 Q312.823 1459.71 314.309 1461.48 Q315.814 1463.23 318.371 1463.23 Q320.929 1463.23 322.415 1461.48 Q323.92 1459.71 323.92 1456.68 Q323.92 1453.64 322.415 1451.89 Q320.929 1450.14 318.371 1450.14 M325.913 1438.23 L325.913 1441.69 Q324.484 1441.02 323.017 1440.66 Q321.569 1440.3 320.139 1440.3 Q316.378 1440.3 314.384 1442.84 Q312.409 1445.38 312.127 1450.52 Q313.237 1448.88 314.911 1448.01 Q316.585 1447.13 318.597 1447.13 Q322.829 1447.13 325.274 1449.71 Q327.738 1452.26 327.738 1456.68 Q327.738 1461.01 325.18 1463.62 Q322.622 1466.24 318.371 1466.24 Q313.5 1466.24 310.924 1462.51 Q308.347 1458.77 308.347 1451.68 Q308.347 1445.02 311.507 1441.07 Q314.666 1437.11 319.989 1437.11 Q321.418 1437.11 322.867 1437.39 Q324.334 1437.67 325.913 1438.23 Z" fill="#000000" fill-rule="evenodd" fill-opacity="1" /><path clip-path="url(#clip820)" d="M 0 0 M331.857 1460.92 L335.825 1460.92 L335.825 1465.69 L331.857 1465.69 L331.857 1460.92 Z" fill="#000000" fill-rule="evenodd" fill-opacity="1" /><path clip-path="url(#clip820)" d="M 0 0 M348.069 1440.11 Q345.135 1440.11 343.649 1443.01 Q342.182 1445.89 342.182 1451.68 Q342.182 1457.46 343.649 1460.35 Q345.135 1463.23 348.069 1463.23 Q351.022 1463.23 352.489 1460.35 Q353.975 1457.46 353.975 1451.68 Q353.975 1445.89 352.489 1443.01 Q351.022 1440.11 348.069 1440.11 M348.069 1437.11 Q352.79 1437.11 355.272 1440.85 Q357.774 1444.57 357.774 1451.68 Q357.774 1458.77 355.272 1462.51 Q352.79 1466.24 348.069 1466.24 Q343.348 1466.24 340.847 1462.51 Q338.364 1458.77 338.364 1451.68 Q338.364 1444.57 340.847 1440.85 Q343.348 1437.11 348.069 1437.11 Z" fill="#000000" fill-rule="evenodd" fill-opacity="1" /><path clip-path="url(#clip820)" d="M 0 0 M734.745 1489.17 L742.384 1489.17 L742.384 1462.8 L734.074 1464.47 L734.074 1460.21 L742.338 1458.54 L747.014 1458.54 L747.014 1489.17 L754.652 1489.17 L754.652 1493.1 L734.745 1493.1 L734.745 1489.17 Z" fill="#000000" fill-rule="evenodd" fill-opacity="1" /><path clip-path="url(#clip820)" d="M 0 0 M769.722 1461.62 Q766.111 1461.62 764.282 1465.19 Q762.476 1468.73 762.476 1475.86 Q762.476 1482.97 764.282 1486.53 Q766.111 1490.07 769.722 1490.07 Q773.356 1490.07 775.162 1486.53 Q776.99 1482.97 776.99 1475.86 Q776.99 1468.73 775.162 1465.19 Q773.356 1461.62 769.722 1461.62 M769.722 1457.92 Q775.532 1457.92 778.587 1462.53 Q781.666 1467.11 781.666 1475.86 Q781.666 1484.59 778.587 1489.19 Q775.532 1493.78 769.722 1493.78 Q763.912 1493.78 760.833 1489.19 Q757.777 1484.59 757.777 1475.86 Q757.777 1467.11 760.833 1462.53 Q763.912 1457.92 769.722 1457.92 Z" fill="#000000" fill-rule="evenodd" fill-opacity="1" /><path clip-path="url(#clip820)" d="M 0 0 M781.666 1452.02 L805.778 1452.02 L805.778 1455.22 L781.666 1455.22 L781.666 1452.02 Z" fill="#000000" fill-rule="evenodd" fill-opacity="1" /><path clip-path="url(#clip820)" d="M 0 0 M809.934 1437.61 L824.849 1437.61 L824.849 1440.81 L813.414 1440.81 L813.414 1447.69 Q814.241 1447.41 815.069 1447.28 Q815.896 1447.13 816.724 1447.13 Q821.426 1447.13 824.172 1449.71 Q826.918 1452.28 826.918 1456.68 Q826.918 1461.22 824.096 1463.74 Q821.275 1466.24 816.141 1466.24 Q814.373 1466.24 812.53 1465.94 Q810.705 1465.64 808.749 1465.04 L808.749 1461.22 Q810.442 1462.14 812.248 1462.59 Q814.053 1463.04 816.066 1463.04 Q819.319 1463.04 821.219 1461.33 Q823.118 1459.62 823.118 1456.68 Q823.118 1453.75 821.219 1452.04 Q819.319 1450.33 816.066 1450.33 Q814.542 1450.33 813.019 1450.67 Q811.514 1451 809.934 1451.72 L809.934 1437.61 Z" fill="#000000" fill-rule="evenodd" fill-opacity="1" /><path clip-path="url(#clip820)" d="M 0 0 M831.037 1460.92 L835.005 1460.92 L835.005 1465.69 L831.037 1465.69 L831.037 1460.92 Z" fill="#000000" fill-rule="evenodd" fill-opacity="1" /><path clip-path="url(#clip820)" d="M 0 0 M839.161 1437.61 L854.076 1437.61 L854.076 1440.81 L842.641 1440.81 L842.641 1447.69 Q843.468 1447.41 844.296 1447.28 Q845.124 1447.13 845.951 1447.13 Q850.653 1447.13 853.399 1449.71 Q856.145 1452.28 856.145 1456.68 Q856.145 1461.22 853.324 1463.74 Q850.503 1466.24 845.368 1466.24 Q843.6 1466.24 841.757 1465.94 Q839.933 1465.64 837.977 1465.04 L837.977 1461.22 Q839.669 1462.14 841.475 1462.59 Q843.28 1463.04 845.293 1463.04 Q848.547 1463.04 850.446 1461.33 Q852.346 1459.62 852.346 1456.68 Q852.346 1453.75 850.446 1452.04 Q848.547 1450.33 845.293 1450.33 Q843.769 1450.33 842.246 1450.67 Q840.741 1451 839.161 1451.72 L839.161 1437.61 Z" fill="#000000" fill-rule="evenodd" fill-opacity="1" /><path clip-path="url(#clip820)" d="M 0 0 M1233.59 1489.17 L1241.23 1489.17 L1241.23 1462.8 L1232.92 1464.47 L1232.92 1460.21 L1241.18 1458.54 L1245.85 1458.54 L1245.85 1489.17 L1253.49 1489.17 L1253.49 1493.1 L1233.59 1493.1 L1233.59 1489.17 Z" fill="#000000" fill-rule="evenodd" fill-opacity="1" /><path clip-path="url(#clip820)" d="M 0 0 M1268.56 1461.62 Q1264.95 1461.62 1263.12 1465.19 Q1261.32 1468.73 1261.32 1475.86 Q1261.32 1482.97 1263.12 1486.53 Q1264.95 1490.07 1268.56 1490.07 Q1272.2 1490.07 1274 1486.53 Q1275.83 1482.97 1275.83 1475.86 Q1275.83 1468.73 1274 1465.19 Q1272.2 1461.62 1268.56 1461.62 M1268.56 1457.92 Q1274.37 1457.92 1277.43 1462.53 Q1280.51 1467.11 1280.51 1475.86 Q1280.51 1484.59 1277.43 1489.19 Q1274.37 1493.78 1268.56 1493.78 Q1262.75 1493.78 1259.67 1489.19 Q1256.62 1484.59 1256.62 1475.86 Q1256.62 1467.11 1259.67 1462.53 Q1262.75 1457.92 1268.56 1457.92 Z" fill="#000000" fill-rule="evenodd" fill-opacity="1" /><path clip-path="url(#clip820)" d="M 0 0 M1280.51 1452.02 L1304.62 1452.02 L1304.62 1455.22 L1280.51 1455.22 L1280.51 1452.02 Z" fill="#000000" fill-rule="evenodd" fill-opacity="1" /><path clip-path="url(#clip820)" d="M 0 0 M1308.78 1437.61 L1323.69 1437.61 L1323.69 1440.81 L1312.25 1440.81 L1312.25 1447.69 Q1313.08 1447.41 1313.91 1447.28 Q1314.74 1447.13 1315.57 1447.13 Q1320.27 1447.13 1323.01 1449.71 Q1325.76 1452.28 1325.76 1456.68 Q1325.76 1461.22 1322.94 1463.74 Q1320.12 1466.24 1314.98 1466.24 Q1313.21 1466.24 1311.37 1465.94 Q1309.55 1465.64 1307.59 1465.04 L1307.59 1461.22 Q1309.28 1462.14 1311.09 1462.59 Q1312.89 1463.04 1314.91 1463.04 Q1318.16 1463.04 1320.06 1461.33 Q1321.96 1459.62 1321.96 1456.68 Q1321.96 1453.75 1320.06 1452.04 Q1318.16 1450.33 1314.91 1450.33 Q1313.38 1450.33 1311.86 1450.67 Q1310.36 1451 1308.78 1451.72 L1308.78 1437.61 Z" fill="#000000" fill-rule="evenodd" fill-opacity="1" /><path clip-path="url(#clip820)" d="M 0 0 M1329.88 1460.92 L1333.85 1460.92 L1333.85 1465.69 L1329.88 1465.69 L1329.88 1460.92 Z" fill="#000000" fill-rule="evenodd" fill-opacity="1" /><path clip-path="url(#clip820)" d="M 0 0 M1346.09 1440.11 Q1343.16 1440.11 1341.67 1443.01 Q1340.2 1445.89 1340.2 1451.68 Q1340.2 1457.46 1341.67 1460.35 Q1343.16 1463.23 1346.09 1463.23 Q1349.04 1463.23 1350.51 1460.35 Q1352 1457.46 1352 1451.68 Q1352 1445.89 1350.51 1443.01 Q1349.04 1440.11 1346.09 1440.11 M1346.09 1437.11 Q1350.81 1437.11 1353.29 1440.85 Q1355.79 1444.57 1355.79 1451.68 Q1355.79 1458.77 1353.29 1462.51 Q1350.81 1466.24 1346.09 1466.24 Q1341.37 1466.24 1338.87 1462.51 Q1336.39 1458.77 1336.39 1451.68 Q1336.39 1444.57 1338.87 1440.85 Q1341.37 1437.11 1346.09 1437.11 Z" fill="#000000" fill-rule="evenodd" fill-opacity="1" /><path clip-path="url(#clip820)" d="M 0 0 M1732.63 1489.17 L1740.27 1489.17 L1740.27 1462.8 L1731.96 1464.47 L1731.96 1460.21 L1740.23 1458.54 L1744.9 1458.54 L1744.9 1489.17 L1752.54 1489.17 L1752.54 1493.1 L1732.63 1493.1 L1732.63 1489.17 Z" fill="#000000" fill-rule="evenodd" fill-opacity="1" /><path clip-path="url(#clip820)" d="M 0 0 M1767.61 1461.62 Q1764 1461.62 1762.17 1465.19 Q1760.37 1468.73 1760.37 1475.86 Q1760.37 1482.97 1762.17 1486.53 Q1764 1490.07 1767.61 1490.07 Q1771.25 1490.07 1773.05 1486.53 Q1774.88 1482.97 1774.88 1475.86 Q1774.88 1468.73 1773.05 1465.19 Q1771.25 1461.62 1767.61 1461.62 M1767.61 1457.92 Q1773.42 1457.92 1776.48 1462.53 Q1779.56 1467.11 1779.56 1475.86 Q1779.56 1484.59 1776.48 1489.19 Q1773.42 1493.78 1767.61 1493.78 Q1761.8 1493.78 1758.72 1489.19 Q1755.67 1484.59 1755.67 1475.86 Q1755.67 1467.11 1758.72 1462.53 Q1761.8 1457.92 1767.61 1457.92 Z" fill="#000000" fill-rule="evenodd" fill-opacity="1" /><path clip-path="url(#clip820)" d="M 0 0 M1779.56 1452.02 L1803.67 1452.02 L1803.67 1455.22 L1779.56 1455.22 L1779.56 1452.02 Z" fill="#000000" fill-rule="evenodd" fill-opacity="1" /><path clip-path="url(#clip820)" d="M 0 0 M1818.22 1440.92 L1808.63 1455.91 L1818.22 1455.91 L1818.22 1440.92 M1817.23 1437.61 L1822 1437.61 L1822 1455.91 L1826.01 1455.91 L1826.01 1459.07 L1822 1459.07 L1822 1465.69 L1818.22 1465.69 L1818.22 1459.07 L1805.55 1459.07 L1805.55 1455.41 L1817.23 1437.61 Z" fill="#000000" fill-rule="evenodd" fill-opacity="1" /><path clip-path="url(#clip820)" d="M 0 0 M1830.13 1460.92 L1834.1 1460.92 L1834.1 1465.69 L1830.13 1465.69 L1830.13 1460.92 Z" fill="#000000" fill-rule="evenodd" fill-opacity="1" /><path clip-path="url(#clip820)" d="M 0 0 M1838.25 1437.61 L1853.17 1437.61 L1853.17 1440.81 L1841.73 1440.81 L1841.73 1447.69 Q1842.56 1447.41 1843.39 1447.28 Q1844.22 1447.13 1845.04 1447.13 Q1849.75 1447.13 1852.49 1449.71 Q1855.24 1452.28 1855.24 1456.68 Q1855.24 1461.22 1852.42 1463.74 Q1849.6 1466.24 1844.46 1466.24 Q1842.69 1466.24 1840.85 1465.94 Q1839.03 1465.64 1837.07 1465.04 L1837.07 1461.22 Q1838.76 1462.14 1840.57 1462.59 Q1842.37 1463.04 1844.39 1463.04 Q1847.64 1463.04 1849.54 1461.33 Q1851.44 1459.62 1851.44 1456.68 Q1851.44 1453.75 1849.54 1452.04 Q1847.64 1450.33 1844.39 1450.33 Q1842.86 1450.33 1841.34 1450.67 Q1839.83 1451 1838.25 1451.72 L1838.25 1437.61 Z" fill="#000000" fill-rule="evenodd" fill-opacity="1" /><path clip-path="url(#clip820)" d="M 0 0 M2231.48 1489.17 L2239.11 1489.17 L2239.11 1462.8 L2230.8 1464.47 L2230.8 1460.21 L2239.07 1458.54 L2243.74 1458.54 L2243.74 1489.17 L2251.38 1489.17 L2251.38 1493.1 L2231.48 1493.1 L2231.48 1489.17 Z" fill="#000000" fill-rule="evenodd" fill-opacity="1" /><path clip-path="url(#clip820)" d="M 0 0 M2266.45 1461.62 Q2262.84 1461.62 2261.01 1465.19 Q2259.21 1468.73 2259.21 1475.86 Q2259.21 1482.97 2261.01 1486.53 Q2262.84 1490.07 2266.45 1490.07 Q2270.09 1490.07 2271.89 1486.53 Q2273.72 1482.97 2273.72 1475.86 Q2273.72 1468.73 2271.89 1465.19 Q2270.09 1461.62 2266.45 1461.62 M2266.45 1457.92 Q2272.26 1457.92 2275.32 1462.53 Q2278.4 1467.11 2278.4 1475.86 Q2278.4 1484.59 2275.32 1489.19 Q2272.26 1493.78 2266.45 1493.78 Q2260.64 1493.78 2257.56 1489.19 Q2254.51 1484.59 2254.51 1475.86 Q2254.51 1467.11 2257.56 1462.53 Q2260.64 1457.92 2266.45 1457.92 Z" fill="#000000" fill-rule="evenodd" fill-opacity="1" /><path clip-path="url(#clip820)" d="M 0 0 M2278.4 1452.02 L2302.51 1452.02 L2302.51 1455.22 L2278.4 1455.22 L2278.4 1452.02 Z" fill="#000000" fill-rule="evenodd" fill-opacity="1" /><path clip-path="url(#clip820)" d="M 0 0 M2317.07 1440.92 L2307.47 1455.91 L2317.07 1455.91 L2317.07 1440.92 M2316.07 1437.61 L2320.85 1437.61 L2320.85 1455.91 L2324.85 1455.91 L2324.85 1459.07 L2320.85 1459.07 L2320.85 1465.69 L2317.07 1465.69 L2317.07 1459.07 L2304.39 1459.07 L2304.39 1455.41 L2316.07 1437.61 Z" fill="#000000" fill-rule="evenodd" fill-opacity="1" /><path clip-path="url(#clip820)" d="M 0 0 M2328.97 1460.92 L2332.94 1460.92 L2332.94 1465.69 L2328.97 1465.69 L2328.97 1460.92 Z" fill="#000000" fill-rule="evenodd" fill-opacity="1" /><path clip-path="url(#clip820)" d="M 0 0 M2345.18 1440.11 Q2342.25 1440.11 2340.76 1443.01 Q2339.3 1445.89 2339.3 1451.68 Q2339.3 1457.46 2340.76 1460.35 Q2342.25 1463.23 2345.18 1463.23 Q2348.14 1463.23 2349.6 1460.35 Q2351.09 1457.46 2351.09 1451.68 Q2351.09 1445.89 2349.6 1443.01 Q2348.14 1440.11 2345.18 1440.11 M2345.18 1437.11 Q2349.9 1437.11 2352.39 1440.85 Q2354.89 1444.57 2354.89 1451.68 Q2354.89 1458.77 2352.39 1462.51 Q2349.9 1466.24 2345.18 1466.24 Q2340.46 1466.24 2337.96 1462.51 Q2335.48 1458.77 2335.48 1451.68 Q2335.48 1444.57 2337.96 1440.85 Q2340.46 1437.11 2345.18 1437.11 Z" fill="#000000" fill-rule="evenodd" fill-opacity="1" /><path clip-path="url(#clip820)" d="M 0 0 M1219.57 1512.66 L1225.46 1512.66 L1225.46 1541.91 L1242.94 1526.54 L1250.42 1526.54 L1231.51 1543.22 L1251.21 1562.19 L1243.57 1562.19 L1225.46 1544.78 L1225.46 1562.19 L1219.57 1562.19 L1219.57 1512.66 Z" fill="#000000" fill-rule="evenodd" fill-opacity="1" /><path clip-path="url(#clip820)" d="M 0 0 M1284.44 1573.01 L1284.44 1577.56 L1250.57 1577.56 L1250.57 1573.01 L1284.44 1573.01 Z" fill="#000000" fill-rule="evenodd" fill-opacity="1" /><path clip-path="url(#clip820)" d="M 0 0 M1304.4 1530.64 Q1299.69 1530.64 1296.95 1534.34 Q1294.21 1538 1294.21 1544.39 Q1294.21 1550.79 1296.92 1554.48 Q1299.65 1558.14 1304.4 1558.14 Q1309.08 1558.14 1311.81 1554.45 Q1314.55 1550.76 1314.55 1544.39 Q1314.55 1538.06 1311.81 1534.37 Q1309.08 1530.64 1304.4 1530.64 M1304.4 1525.68 Q1312.04 1525.68 1316.4 1530.64 Q1320.76 1535.61 1320.76 1544.39 Q1320.76 1553.15 1316.4 1558.14 Q1312.04 1563.11 1304.4 1563.11 Q1296.73 1563.11 1292.37 1558.14 Q1288.04 1553.15 1288.04 1544.39 Q1288.04 1535.61 1292.37 1530.64 Q1296.73 1525.68 1304.4 1525.68 Z" fill="#000000" fill-rule="evenodd" fill-opacity="1" /><path clip-path="url(#clip820)" d="M 0 0 M1344.95 1512.66 L1344.95 1517.53 L1339.34 1517.53 Q1336.19 1517.53 1334.95 1518.8 Q1333.74 1520.08 1333.74 1523.39 L1333.74 1526.54 L1343.39 1526.54 L1343.39 1531.09 L1333.74 1531.09 L1333.74 1562.19 L1327.85 1562.19 L1327.85 1531.09 L1322.25 1531.09 L1322.25 1526.54 L1327.85 1526.54 L1327.85 1524.05 Q1327.85 1518.1 1330.62 1515.4 Q1333.39 1512.66 1339.41 1512.66 L1344.95 1512.66 Z" fill="#000000" fill-rule="evenodd" fill-opacity="1" /><path clip-path="url(#clip820)" d="M 0 0 M1369.14 1512.66 L1369.14 1517.53 L1363.53 1517.53 Q1360.38 1517.53 1359.14 1518.8 Q1357.93 1520.08 1357.93 1523.39 L1357.93 1526.54 L1367.58 1526.54 L1367.58 1531.09 L1357.93 1531.09 L1357.93 1562.19 L1352.04 1562.19 L1352.04 1531.09 L1346.44 1531.09 L1346.44 1526.54 L1352.04 1526.54 L1352.04 1524.05 Q1352.04 1518.1 1354.81 1515.4 Q1357.58 1512.66 1363.6 1512.66 L1369.14 1512.66 Z" fill="#000000" fill-rule="evenodd" fill-opacity="1" /><polyline clip-path="url(#clip822)" style="stroke:#000000; stroke-width:2; stroke-opacity:0.1; fill:none" points="
  235.954,1223.6 2352.76,1223.6 
  "/>
<polyline clip-path="url(#clip822)" style="stroke:#000000; stroke-width:2; stroke-opacity:0.1; fill:none" points="
  235.954,987.373 2352.76,987.373 
  "/>
<polyline clip-path="url(#clip822)" style="stroke:#000000; stroke-width:2; stroke-opacity:0.1; fill:none" points="
  235.954,751.145 2352.76,751.145 
  "/>
<polyline clip-path="url(#clip822)" style="stroke:#000000; stroke-width:2; stroke-opacity:0.1; fill:none" points="
  235.954,514.917 2352.76,514.917 
  "/>
<polyline clip-path="url(#clip822)" style="stroke:#000000; stroke-width:2; stroke-opacity:0.1; fill:none" points="
  235.954,278.689 2352.76,278.689 
  "/>
<polyline clip-path="url(#clip820)" style="stroke:#000000; stroke-width:4; stroke-opacity:1; fill:none" points="
  235.954,1410.9 235.954,47.2441 
  "/>
<polyline clip-path="url(#clip820)" style="stroke:#000000; stroke-width:4; stroke-opacity:1; fill:none" points="
  235.954,1223.6 261.356,1223.6 
  "/>
<polyline clip-path="url(#clip820)" style="stroke:#000000; stroke-width:4; stroke-opacity:1; fill:none" points="
  235.954,987.373 261.356,987.373 
  "/>
<polyline clip-path="url(#clip820)" style="stroke:#000000; stroke-width:4; stroke-opacity:1; fill:none" points="
  235.954,751.145 261.356,751.145 
  "/>
<polyline clip-path="url(#clip820)" style="stroke:#000000; stroke-width:4; stroke-opacity:1; fill:none" points="
  235.954,514.917 261.356,514.917 
  "/>
<polyline clip-path="url(#clip820)" style="stroke:#000000; stroke-width:4; stroke-opacity:1; fill:none" points="
  235.954,278.689 261.356,278.689 
  "/>
<path clip-path="url(#clip820)" d="M 0 0 M116.181 1206.32 L134.538 1206.32 L134.538 1210.26 L120.464 1210.26 L120.464 1218.73 Q121.482 1218.38 122.501 1218.22 Q123.519 1218.03 124.538 1218.03 Q130.325 1218.03 133.704 1221.21 Q137.084 1224.38 137.084 1229.79 Q137.084 1235.37 133.612 1238.47 Q130.14 1241.55 123.82 1241.55 Q121.644 1241.55 119.376 1241.18 Q117.131 1240.81 114.723 1240.07 L114.723 1235.37 Q116.806 1236.51 119.029 1237.06 Q121.251 1237.62 123.728 1237.62 Q127.732 1237.62 130.07 1235.51 Q132.408 1233.4 132.408 1229.79 Q132.408 1226.18 130.07 1224.08 Q127.732 1221.97 123.728 1221.97 Q121.853 1221.97 119.978 1222.39 Q118.126 1222.8 116.181 1223.68 L116.181 1206.32 Z" fill="#000000" fill-rule="evenodd" fill-opacity="1" /><path clip-path="url(#clip820)" d="M 0 0 M142.154 1235 L147.038 1235 L147.038 1240.88 L142.154 1240.88 L142.154 1235 Z" fill="#000000" fill-rule="evenodd" fill-opacity="1" /><path clip-path="url(#clip820)" d="M 0 0 M156.135 1236.95 L172.454 1236.95 L172.454 1240.88 L150.51 1240.88 L150.51 1236.95 Q153.172 1234.19 157.755 1229.56 Q162.362 1224.91 163.542 1223.57 Q165.788 1221.04 166.667 1219.31 Q167.57 1217.55 167.57 1215.86 Q167.57 1213.1 165.626 1211.37 Q163.704 1209.63 160.603 1209.63 Q158.403 1209.63 155.95 1210.4 Q153.519 1211.16 150.741 1212.71 L150.741 1207.99 Q153.566 1206.85 156.019 1206.27 Q158.473 1205.7 160.51 1205.7 Q165.88 1205.7 169.075 1208.38 Q172.269 1211.07 172.269 1215.56 Q172.269 1217.69 171.459 1219.61 Q170.672 1221.51 168.565 1224.1 Q167.987 1224.77 164.885 1227.99 Q161.783 1231.18 156.135 1236.95 Z" fill="#000000" fill-rule="evenodd" fill-opacity="1" /><path clip-path="url(#clip820)" d="M 0 0 M190.371 1210.4 L178.565 1228.84 L190.371 1228.84 L190.371 1210.4 M189.144 1206.32 L195.024 1206.32 L195.024 1228.84 L199.954 1228.84 L199.954 1232.73 L195.024 1232.73 L195.024 1240.88 L190.371 1240.88 L190.371 1232.73 L174.769 1232.73 L174.769 1228.22 L189.144 1206.32 Z" fill="#000000" fill-rule="evenodd" fill-opacity="1" /><path clip-path="url(#clip820)" d="M 0 0 M116.506 970.093 L134.862 970.093 L134.862 974.028 L120.788 974.028 L120.788 982.5 Q121.806 982.153 122.825 981.991 Q123.843 981.806 124.862 981.806 Q130.649 981.806 134.029 984.977 Q137.408 988.148 137.408 993.565 Q137.408 999.144 133.936 1002.25 Q130.464 1005.32 124.144 1005.32 Q121.968 1005.32 119.7 1004.95 Q117.455 1004.58 115.047 1003.84 L115.047 999.144 Q117.131 1000.28 119.353 1000.83 Q121.575 1001.39 124.052 1001.39 Q128.056 1001.39 130.394 999.283 Q132.732 997.176 132.732 993.565 Q132.732 989.954 130.394 987.848 Q128.056 985.741 124.052 985.741 Q122.177 985.741 120.302 986.158 Q118.45 986.574 116.506 987.454 L116.506 970.093 Z" fill="#000000" fill-rule="evenodd" fill-opacity="1" /><path clip-path="url(#clip820)" d="M 0 0 M142.478 998.773 L147.362 998.773 L147.362 1004.65 L142.478 1004.65 L142.478 998.773 Z" fill="#000000" fill-rule="evenodd" fill-opacity="1" /><path clip-path="url(#clip820)" d="M 0 0 M156.459 1000.72 L172.778 1000.72 L172.778 1004.65 L150.834 1004.65 L150.834 1000.72 Q153.496 997.963 158.079 993.334 Q162.686 988.681 163.866 987.338 Q166.112 984.815 166.991 983.079 Q167.894 981.32 167.894 979.63 Q167.894 976.875 165.95 975.139 Q164.028 973.403 160.927 973.403 Q158.728 973.403 156.274 974.167 Q153.843 974.931 151.066 976.482 L151.066 971.76 Q153.89 970.625 156.343 970.047 Q158.797 969.468 160.834 969.468 Q166.204 969.468 169.399 972.153 Q172.593 974.838 172.593 979.329 Q172.593 981.459 171.783 983.38 Q170.996 985.278 168.889 987.871 Q168.311 988.542 165.209 991.76 Q162.107 994.954 156.459 1000.72 Z" fill="#000000" fill-rule="evenodd" fill-opacity="1" /><path clip-path="url(#clip820)" d="M 0 0 M188.426 985.51 Q185.278 985.51 183.426 987.662 Q181.598 989.815 181.598 993.565 Q181.598 997.292 183.426 999.468 Q185.278 1001.62 188.426 1001.62 Q191.575 1001.62 193.403 999.468 Q195.255 997.292 195.255 993.565 Q195.255 989.815 193.403 987.662 Q191.575 985.51 188.426 985.51 M197.709 970.857 L197.709 975.116 Q195.95 974.283 194.144 973.843 Q192.362 973.403 190.602 973.403 Q185.973 973.403 183.519 976.528 Q181.089 979.653 180.741 985.973 Q182.107 983.959 184.167 982.894 Q186.227 981.806 188.704 981.806 Q193.913 981.806 196.922 984.977 Q199.954 988.125 199.954 993.565 Q199.954 998.889 196.806 1002.11 Q193.658 1005.32 188.426 1005.32 Q182.431 1005.32 179.26 1000.74 Q176.089 996.135 176.089 987.408 Q176.089 979.213 179.977 974.352 Q183.866 969.468 190.417 969.468 Q192.176 969.468 193.959 969.815 Q195.764 970.162 197.709 970.857 Z" fill="#000000" fill-rule="evenodd" fill-opacity="1" /><path clip-path="url(#clip820)" d="M 0 0 M116.76 733.865 L135.117 733.865 L135.117 737.8 L121.043 737.8 L121.043 746.272 Q122.061 745.925 123.08 745.763 Q124.098 745.578 125.117 745.578 Q130.904 745.578 134.283 748.749 Q137.663 751.921 137.663 757.337 Q137.663 762.916 134.191 766.018 Q130.718 769.096 124.399 769.096 Q122.223 769.096 119.955 768.726 Q117.709 768.356 115.302 767.615 L115.302 762.916 Q117.385 764.05 119.607 764.606 Q121.83 765.161 124.306 765.161 Q128.311 765.161 130.649 763.055 Q132.987 760.948 132.987 757.337 Q132.987 753.726 130.649 751.62 Q128.311 749.513 124.306 749.513 Q122.431 749.513 120.556 749.93 Q118.705 750.346 116.76 751.226 L116.76 733.865 Z" fill="#000000" fill-rule="evenodd" fill-opacity="1" /><path clip-path="url(#clip820)" d="M 0 0 M142.732 762.545 L147.616 762.545 L147.616 768.425 L142.732 768.425 L142.732 762.545 Z" fill="#000000" fill-rule="evenodd" fill-opacity="1" /><path clip-path="url(#clip820)" d="M 0 0 M156.714 764.49 L173.033 764.49 L173.033 768.425 L151.089 768.425 L151.089 764.49 Q153.751 761.735 158.334 757.106 Q162.94 752.453 164.121 751.11 Q166.366 748.587 167.246 746.851 Q168.149 745.092 168.149 743.402 Q168.149 740.647 166.204 738.911 Q164.283 737.175 161.181 737.175 Q158.982 737.175 156.528 737.939 Q154.098 738.703 151.32 740.254 L151.32 735.532 Q154.144 734.398 156.598 733.819 Q159.052 733.24 161.089 733.24 Q166.459 733.24 169.653 735.925 Q172.848 738.61 172.848 743.101 Q172.848 745.231 172.038 747.152 Q171.251 749.05 169.144 751.643 Q168.565 752.314 165.464 755.532 Q162.362 758.726 156.714 764.49 Z" fill="#000000" fill-rule="evenodd" fill-opacity="1" /><path clip-path="url(#clip820)" d="M 0 0 M188.102 752.013 Q184.769 752.013 182.848 753.796 Q180.95 755.578 180.95 758.703 Q180.95 761.828 182.848 763.61 Q184.769 765.393 188.102 765.393 Q191.436 765.393 193.357 763.61 Q195.278 761.805 195.278 758.703 Q195.278 755.578 193.357 753.796 Q191.459 752.013 188.102 752.013 M183.426 750.022 Q180.417 749.282 178.727 747.222 Q177.061 745.161 177.061 742.198 Q177.061 738.055 180.001 735.647 Q182.963 733.24 188.102 733.24 Q193.264 733.24 196.204 735.647 Q199.144 738.055 199.144 742.198 Q199.144 745.161 197.454 747.222 Q195.787 749.282 192.801 750.022 Q196.181 750.809 198.056 753.101 Q199.954 755.393 199.954 758.703 Q199.954 763.726 196.875 766.411 Q193.82 769.096 188.102 769.096 Q182.385 769.096 179.306 766.411 Q176.251 763.726 176.251 758.703 Q176.251 755.393 178.149 753.101 Q180.047 750.809 183.426 750.022 M181.713 742.638 Q181.713 745.323 183.38 746.828 Q185.07 748.333 188.102 748.333 Q191.112 748.333 192.801 746.828 Q194.514 745.323 194.514 742.638 Q194.514 739.953 192.801 738.448 Q191.112 736.944 188.102 736.944 Q185.07 736.944 183.38 738.448 Q181.713 739.953 181.713 742.638 Z" fill="#000000" fill-rule="evenodd" fill-opacity="1" /><path clip-path="url(#clip820)" d="M 0 0 M115.718 497.637 L134.075 497.637 L134.075 501.572 L120.001 501.572 L120.001 510.045 Q121.019 509.697 122.038 509.535 Q123.056 509.35 124.075 509.35 Q129.862 509.35 133.242 512.521 Q136.621 515.693 136.621 521.109 Q136.621 526.688 133.149 529.79 Q129.677 532.868 123.357 532.868 Q121.181 532.868 118.913 532.498 Q116.668 532.128 114.26 531.387 L114.26 526.688 Q116.343 527.822 118.566 528.378 Q120.788 528.933 123.265 528.933 Q127.269 528.933 129.607 526.827 Q131.945 524.72 131.945 521.109 Q131.945 517.498 129.607 515.392 Q127.269 513.285 123.265 513.285 Q121.39 513.285 119.515 513.702 Q117.663 514.119 115.718 514.998 L115.718 497.637 Z" fill="#000000" fill-rule="evenodd" fill-opacity="1" /><path clip-path="url(#clip820)" d="M 0 0 M141.691 526.318 L146.575 526.318 L146.575 532.197 L141.691 532.197 L141.691 526.318 Z" fill="#000000" fill-rule="evenodd" fill-opacity="1" /><path clip-path="url(#clip820)" d="M 0 0 M165.811 513.563 Q169.167 514.281 171.042 516.549 Q172.94 518.818 172.94 522.151 Q172.94 527.267 169.422 530.068 Q165.903 532.868 159.422 532.868 Q157.246 532.868 154.931 532.429 Q152.64 532.012 150.186 531.156 L150.186 526.642 Q152.13 527.776 154.445 528.355 Q156.76 528.933 159.283 528.933 Q163.681 528.933 165.973 527.197 Q168.288 525.461 168.288 522.151 Q168.288 519.095 166.135 517.382 Q164.005 515.646 160.186 515.646 L156.158 515.646 L156.158 511.804 L160.371 511.804 Q163.82 511.804 165.649 510.438 Q167.477 509.049 167.477 506.457 Q167.477 503.795 165.579 502.383 Q163.704 500.947 160.186 500.947 Q158.265 500.947 156.065 501.364 Q153.866 501.781 151.228 502.66 L151.228 498.494 Q153.89 497.753 156.204 497.383 Q158.542 497.012 160.603 497.012 Q165.927 497.012 169.028 499.443 Q172.13 501.85 172.13 505.97 Q172.13 508.841 170.487 510.832 Q168.843 512.799 165.811 513.563 Z" fill="#000000" fill-rule="evenodd" fill-opacity="1" /><path clip-path="url(#clip820)" d="M 0 0 M188.01 500.716 Q184.399 500.716 182.57 504.281 Q180.764 507.822 180.764 514.952 Q180.764 522.058 182.57 525.623 Q184.399 529.165 188.01 529.165 Q191.644 529.165 193.45 525.623 Q195.278 522.058 195.278 514.952 Q195.278 507.822 193.45 504.281 Q191.644 500.716 188.01 500.716 M188.01 497.012 Q193.82 497.012 196.875 501.619 Q199.954 506.202 199.954 514.952 Q199.954 523.679 196.875 528.285 Q193.82 532.868 188.01 532.868 Q182.2 532.868 179.121 528.285 Q176.065 523.679 176.065 514.952 Q176.065 506.202 179.121 501.619 Q182.2 497.012 188.01 497.012 Z" fill="#000000" fill-rule="evenodd" fill-opacity="1" /><path clip-path="url(#clip820)" d="M 0 0 M117.316 261.409 L135.672 261.409 L135.672 265.344 L121.598 265.344 L121.598 273.817 Q122.617 273.469 123.635 273.307 Q124.654 273.122 125.672 273.122 Q131.459 273.122 134.839 276.293 Q138.218 279.465 138.218 284.881 Q138.218 290.46 134.746 293.562 Q131.274 296.641 124.955 296.641 Q122.779 296.641 120.51 296.27 Q118.265 295.9 115.857 295.159 L115.857 290.46 Q117.941 291.594 120.163 292.15 Q122.385 292.705 124.862 292.705 Q128.867 292.705 131.205 290.599 Q133.542 288.492 133.542 284.881 Q133.542 281.27 131.205 279.164 Q128.867 277.057 124.862 277.057 Q122.987 277.057 121.112 277.474 Q119.26 277.891 117.316 278.77 L117.316 261.409 Z" fill="#000000" fill-rule="evenodd" fill-opacity="1" /><path clip-path="url(#clip820)" d="M 0 0 M143.288 290.09 L148.172 290.09 L148.172 295.969 L143.288 295.969 L143.288 290.09 Z" fill="#000000" fill-rule="evenodd" fill-opacity="1" /><path clip-path="url(#clip820)" d="M 0 0 M167.408 277.335 Q170.764 278.053 172.639 280.321 Q174.538 282.59 174.538 285.923 Q174.538 291.039 171.019 293.84 Q167.501 296.641 161.019 296.641 Q158.843 296.641 156.528 296.201 Q154.237 295.784 151.783 294.928 L151.783 290.414 Q153.728 291.548 156.042 292.127 Q158.357 292.705 160.88 292.705 Q165.278 292.705 167.57 290.969 Q169.885 289.233 169.885 285.923 Q169.885 282.867 167.732 281.154 Q165.602 279.418 161.783 279.418 L157.755 279.418 L157.755 275.576 L161.968 275.576 Q165.417 275.576 167.246 274.21 Q169.075 272.821 169.075 270.229 Q169.075 267.567 167.177 266.155 Q165.302 264.719 161.783 264.719 Q159.862 264.719 157.663 265.136 Q155.464 265.553 152.825 266.432 L152.825 262.266 Q155.487 261.525 157.802 261.155 Q160.14 260.784 162.2 260.784 Q167.524 260.784 170.626 263.215 Q173.727 265.622 173.727 269.743 Q173.727 272.613 172.084 274.604 Q170.44 276.571 167.408 277.335 Z" fill="#000000" fill-rule="evenodd" fill-opacity="1" /><path clip-path="url(#clip820)" d="M 0 0 M183.635 292.034 L199.954 292.034 L199.954 295.969 L178.01 295.969 L178.01 292.034 Q180.672 289.279 185.255 284.65 Q189.862 279.997 191.042 278.655 Q193.288 276.131 194.167 274.395 Q195.07 272.636 195.07 270.946 Q195.07 268.192 193.125 266.456 Q191.204 264.719 188.102 264.719 Q185.903 264.719 183.45 265.483 Q181.019 266.247 178.241 267.798 L178.241 263.076 Q181.065 261.942 183.519 261.363 Q185.973 260.784 188.01 260.784 Q193.38 260.784 196.575 263.469 Q199.769 266.155 199.769 270.645 Q199.769 272.775 198.959 274.696 Q198.172 276.594 196.065 279.187 Q195.487 279.858 192.385 283.076 Q189.283 286.27 183.635 292.034 Z" fill="#000000" fill-rule="evenodd" fill-opacity="1" /><path clip-path="url(#clip820)" d="M 0 0 M59.1993 815.533 Q55.2526 813.336 53.3747 810.281 Q51.4968 807.225 51.4968 803.088 Q51.4968 797.518 55.4117 794.494 Q59.2948 791.47 66.4881 791.47 L88.0042 791.47 L88.0042 797.358 L66.679 797.358 Q61.5546 797.358 59.072 799.173 Q56.5894 800.987 56.5894 804.711 Q56.5894 809.262 59.6131 811.904 Q62.6368 814.546 67.8567 814.546 L88.0042 814.546 L88.0042 820.434 L66.679 820.434 Q61.5228 820.434 59.072 822.248 Q56.5894 824.063 56.5894 827.85 Q56.5894 832.338 59.6449 834.98 Q62.6686 837.622 67.8567 837.622 L88.0042 837.622 L88.0042 843.51 L52.3562 843.51 L52.3562 837.622 L57.8944 837.622 Q54.616 835.616 53.0564 832.815 Q51.4968 830.015 51.4968 826.163 Q51.4968 822.28 53.4702 819.575 Q55.4436 816.838 59.1993 815.533 Z" fill="#000000" fill-rule="evenodd" fill-opacity="1" /><path clip-path="url(#clip820)" d="M 0 0 M52.3562 785.327 L52.3562 779.471 L88.0042 779.471 L88.0042 785.327 L52.3562 785.327 M38.479 785.327 L38.479 779.471 L45.895 779.471 L45.895 785.327 L38.479 785.327 Z" fill="#000000" fill-rule="evenodd" fill-opacity="1" /><path clip-path="url(#clip820)" d="M 0 0 M66.4881 743.696 L88.0042 743.696 L88.0042 749.552 L66.679 749.552 Q61.6183 749.552 59.1038 751.525 Q56.5894 753.499 56.5894 757.446 Q56.5894 762.188 59.6131 764.925 Q62.6368 767.662 67.8567 767.662 L88.0042 767.662 L88.0042 773.551 L52.3562 773.551 L52.3562 767.662 L57.8944 767.662 Q54.6797 765.562 53.0883 762.729 Q51.4968 759.864 51.4968 756.141 Q51.4968 749.998 55.3163 746.847 Q59.1038 743.696 66.4881 743.696 Z" fill="#000000" fill-rule="evenodd" fill-opacity="1" /><path clip-path="url(#clip820)" d="M 0 0 M98.8259 710.467 L103.377 710.467 L103.377 744.332 L98.8259 744.332 L98.8259 710.467 Z" fill="#000000" fill-rule="evenodd" fill-opacity="1" /><path clip-path="url(#clip820)" d="M 0 0 M57.7671 680.866 L38.479 680.866 L38.479 675.01 L88.0042 675.01 L88.0042 680.866 L82.657 680.866 Q85.8398 682.712 87.3994 685.545 Q88.9272 688.346 88.9272 692.292 Q88.9272 698.754 83.771 702.828 Q78.6147 706.87 70.212 706.87 Q61.8093 706.87 56.6531 702.828 Q51.4968 698.754 51.4968 692.292 Q51.4968 688.346 53.0564 685.545 Q54.5842 682.712 57.7671 680.866 M70.212 700.823 Q76.6732 700.823 80.3653 698.181 Q84.0256 695.507 84.0256 690.86 Q84.0256 686.213 80.3653 683.54 Q76.6732 680.866 70.212 680.866 Q63.7508 680.866 60.0905 683.54 Q56.3984 686.213 56.3984 690.86 Q56.3984 695.507 60.0905 698.181 Q63.7508 700.823 70.212 700.823 Z" fill="#000000" fill-rule="evenodd" fill-opacity="1" /><path clip-path="url(#clip820)" d="M 0 0 M52.3562 668.867 L52.3562 663.01 L88.0042 663.01 L88.0042 668.867 L52.3562 668.867 M38.479 668.867 L38.479 663.01 L45.895 663.01 L45.895 668.867 L38.479 668.867 Z" fill="#000000" fill-rule="evenodd" fill-opacity="1" /><path clip-path="url(#clip820)" d="M 0 0 M38.479 638.821 L43.3487 638.821 L43.3487 644.422 Q43.3487 647.573 44.6219 648.815 Q45.895 650.024 49.2052 650.024 L52.3562 650.024 L52.3562 640.38 L56.9077 640.38 L56.9077 650.024 L88.0042 650.024 L88.0042 655.912 L56.9077 655.912 L56.9077 661.514 L52.3562 661.514 L52.3562 655.912 L49.8736 655.912 Q43.9216 655.912 41.2162 653.143 Q38.479 650.374 38.479 644.359 L38.479 638.821 Z" fill="#000000" fill-rule="evenodd" fill-opacity="1" /><path clip-path="url(#clip820)" d="M 0 0 M38.479 614.631 L43.3487 614.631 L43.3487 620.233 Q43.3487 623.384 44.6219 624.625 Q45.895 625.835 49.2052 625.835 L52.3562 625.835 L52.3562 616.19 L56.9077 616.19 L56.9077 625.835 L88.0042 625.835 L88.0042 631.723 L56.9077 631.723 L56.9077 637.325 L52.3562 637.325 L52.3562 631.723 L49.8736 631.723 Q43.9216 631.723 41.2162 628.954 Q38.479 626.185 38.479 620.169 L38.479 614.631 Z" fill="#000000" fill-rule="evenodd" fill-opacity="1" /><polyline clip-path="url(#clip822)" style="stroke:#009af9; stroke-width:20; stroke-opacity:1; fill:none" stroke-dasharray="80, 50" points="
  295.864,85.838 1294.36,938.467 2292.85,1372.3 
  "/>
<path clip-path="url(#clip820)" d="
M1995.98 213.659 L2282.2 213.659 L2282.2 92.6992 L1995.98 92.6992  Z
  " fill="#ffffff" fill-rule="evenodd" fill-opacity="1"/>
<polyline clip-path="url(#clip820)" style="stroke:#000000; stroke-width:4; stroke-opacity:1; fill:none" points="
  1995.98,213.659 2282.2,213.659 2282.2,92.6992 1995.98,92.6992 1995.98,213.659 
  "/>
<polyline clip-path="url(#clip820)" style="stroke:#009af9; stroke-width:4; stroke-opacity:1; fill:none" stroke-dasharray="16, 10" points="
  2019.5,153.179 2160.62,153.179 
  "/>
<path clip-path="url(#clip820)" d="M 0 0 M2197.98 172.867 Q2196.17 177.496 2194.46 178.908 Q2192.75 180.32 2189.88 180.32 L2186.48 180.32 L2186.48 176.755 L2188.98 176.755 Q2190.73 176.755 2191.71 175.922 Q2192.68 175.089 2193.86 171.987 L2194.62 170.043 L2184.14 144.533 L2188.65 144.533 L2196.75 164.811 L2204.86 144.533 L2209.37 144.533 L2197.98 172.867 Z" fill="#000000" fill-rule="evenodd" fill-opacity="1" /><path clip-path="url(#clip820)" d="M 0 0 M2215.25 166.524 L2222.89 166.524 L2222.89 140.158 L2214.58 141.825 L2214.58 137.566 L2222.84 135.899 L2227.52 135.899 L2227.52 166.524 L2235.16 166.524 L2235.16 170.459 L2215.25 170.459 L2215.25 166.524 Z" fill="#000000" fill-rule="evenodd" fill-opacity="1" /></svg>
