<?xml version="1.0" encoding="utf-8"?>
<svg xmlns="http://www.w3.org/2000/svg" xmlns:xlink="http://www.w3.org/1999/xlink" width="600" height="400" viewBox="0 0 2400 1600">
<defs>
  <clipPath id="clip120">
    <rect x="0" y="0" width="2400" height="1600"/>
  </clipPath>
</defs>
<path clip-path="url(#clip120)" d="
M0 1600 L2400 1600 L2400 0 L0 0  Z
  " fill="#ffffff" fill-rule="evenodd" fill-opacity="1"/>
<defs>
  <clipPath id="clip121">
    <rect x="480" y="0" width="1681" height="1600"/>
  </clipPath>
</defs>
<path clip-path="url(#clip120)" d="
M265.63 1410.9 L2352.76 1410.9 L2352.76 47.2441 L265.63 47.2441  Z
  " fill="#ffffff" fill-rule="evenodd" fill-opacity="1"/>
<defs>
  <clipPath id="clip122">
    <rect x="265" y="47" width="2088" height="1365"/>
  </clipPath>
</defs>
<polyline clip-path="url(#clip122)" style="stroke:#000000; stroke-width:2; stroke-opacity:0.1; fill:none" points="
  324.7,1410.9 324.7,47.2441 
  "/>
<polyline clip-path="url(#clip122)" style="stroke:#000000; stroke-width:2; stroke-opacity:0.1; fill:none" points="
  816.946,1410.9 816.946,47.2441 
  "/>
<polyline clip-path="url(#clip122)" style="stroke:#000000; stroke-width:2; stroke-opacity:0.1; fill:none" points="
  1309.19,1410.9 1309.19,47.2441 
  "/>
<polyline clip-path="url(#clip122)" style="stroke:#000000; stroke-width:2; stroke-opacity:0.1; fill:none" points="
  1801.44,1410.9 1801.44,47.2441 
  "/>
<polyline clip-path="url(#clip122)" style="stroke:#000000; stroke-width:2; stroke-opacity:0.1; fill:none" points="
  2293.69,1410.9 2293.69,47.2441 
  "/>
<polyline clip-path="url(#clip120)" style="stroke:#000000; stroke-width:4; stroke-opacity:1; fill:none" points="
  265.63,1410.9 2352.76,1410.9 
  "/>
<polyline clip-path="url(#clip120)" style="stroke:#000000; stroke-width:4; stroke-opacity:1; fill:none" points="
  324.7,1410.9 324.7,1394.53 
  "/>
<polyline clip-path="url(#clip120)" style="stroke:#000000; stroke-width:4; stroke-opacity:1; fill:none" points="
  816.946,1410.9 816.946,1394.53 
  "/>
<polyline clip-path="url(#clip120)" style="stroke:#000000; stroke-width:4; stroke-opacity:1; fill:none" points="
  1309.19,1410.9 1309.19,1394.53 
  "/>
<polyline clip-path="url(#clip120)" style="stroke:#000000; stroke-width:4; stroke-opacity:1; fill:none" points="
  1801.44,1410.9 1801.44,1394.53 
  "/>
<polyline clip-path="url(#clip120)" style="stroke:#000000; stroke-width:4; stroke-opacity:1; fill:none" points="
  2293.69,1410.9 2293.69,1394.53 
  "/>
<path clip-path="url(#clip120)" d="M 0 0 M264.025 1489.17 L271.664 1489.17 L271.664 1462.8 L263.354 1464.47 L263.354 1460.21 L271.617 1458.54 L276.293 1458.54 L276.293 1489.17 L283.932 1489.17 L283.932 1493.1 L264.025 1493.1 L264.025 1489.17 Z" fill="#000000" fill-rule="evenodd" fill-opacity="1" /><path clip-path="url(#clip120)" d="M 0 0 M299.002 1461.62 Q295.39 1461.62 293.562 1465.19 Q291.756 1468.73 291.756 1475.86 Q291.756 1482.97 293.562 1486.53 Q295.39 1490.07 299.002 1490.07 Q302.636 1490.07 304.441 1486.53 Q306.27 1482.97 306.27 1475.86 Q306.27 1468.73 304.441 1465.19 Q302.636 1461.62 299.002 1461.62 M299.002 1457.92 Q304.812 1457.92 307.867 1462.53 Q310.946 1467.11 310.946 1475.86 Q310.946 1484.59 307.867 1489.19 Q304.812 1493.78 299.002 1493.78 Q293.191 1493.78 290.113 1489.19 Q287.057 1484.59 287.057 1475.86 Q287.057 1467.11 290.113 1462.53 Q293.191 1457.92 299.002 1457.92 Z" fill="#000000" fill-rule="evenodd" fill-opacity="1" /><path clip-path="url(#clip120)" d="M 0 0 M310.946 1452.02 L335.058 1452.02 L335.058 1455.22 L310.946 1455.22 L310.946 1452.02 Z" fill="#000000" fill-rule="evenodd" fill-opacity="1" /><path clip-path="url(#clip120)" d="M 0 0 M339.835 1462.5 L346.041 1462.5 L346.041 1441.07 L339.289 1442.43 L339.289 1438.97 L346.004 1437.61 L349.803 1437.61 L349.803 1462.5 L356.009 1462.5 L356.009 1465.69 L339.835 1465.69 L339.835 1462.5 Z" fill="#000000" fill-rule="evenodd" fill-opacity="1" /><path clip-path="url(#clip120)" d="M 0 0 M360.128 1460.92 L364.097 1460.92 L364.097 1465.69 L360.128 1465.69 L360.128 1460.92 Z" fill="#000000" fill-rule="evenodd" fill-opacity="1" /><path clip-path="url(#clip120)" d="M 0 0 M376.341 1440.11 Q373.407 1440.11 371.921 1443.01 Q370.454 1445.89 370.454 1451.68 Q370.454 1457.46 371.921 1460.35 Q373.407 1463.23 376.341 1463.23 Q379.293 1463.23 380.76 1460.35 Q382.246 1457.46 382.246 1451.68 Q382.246 1445.89 380.76 1443.01 Q379.293 1440.11 376.341 1440.11 M376.341 1437.11 Q381.061 1437.11 383.544 1440.85 Q386.045 1444.57 386.045 1451.68 Q386.045 1458.77 383.544 1462.51 Q381.061 1466.24 376.341 1466.24 Q371.62 1466.24 369.118 1462.51 Q366.636 1458.77 366.636 1451.68 Q366.636 1444.57 369.118 1440.85 Q371.62 1437.11 376.341 1437.11 Z" fill="#000000" fill-rule="evenodd" fill-opacity="1" /><path clip-path="url(#clip120)" d="M 0 0 M756.178 1489.17 L763.816 1489.17 L763.816 1462.8 L755.506 1464.47 L755.506 1460.21 L763.77 1458.54 L768.446 1458.54 L768.446 1489.17 L776.085 1489.17 L776.085 1493.1 L756.178 1493.1 L756.178 1489.17 Z" fill="#000000" fill-rule="evenodd" fill-opacity="1" /><path clip-path="url(#clip120)" d="M 0 0 M791.154 1461.62 Q787.543 1461.62 785.714 1465.19 Q783.909 1468.73 783.909 1475.86 Q783.909 1482.97 785.714 1486.53 Q787.543 1490.07 791.154 1490.07 Q794.788 1490.07 796.594 1486.53 Q798.423 1482.97 798.423 1475.86 Q798.423 1468.73 796.594 1465.19 Q794.788 1461.62 791.154 1461.62 M791.154 1457.92 Q796.964 1457.92 800.02 1462.53 Q803.099 1467.11 803.099 1475.86 Q803.099 1484.59 800.02 1489.19 Q796.964 1493.78 791.154 1493.78 Q785.344 1493.78 782.265 1489.19 Q779.21 1484.59 779.21 1475.86 Q779.21 1467.11 782.265 1462.53 Q785.344 1457.92 791.154 1457.92 Z" fill="#000000" fill-rule="evenodd" fill-opacity="1" /><path clip-path="url(#clip120)" d="M 0 0 M803.099 1452.02 L827.21 1452.02 L827.21 1455.22 L803.099 1455.22 L803.099 1452.02 Z" fill="#000000" fill-rule="evenodd" fill-opacity="1" /><path clip-path="url(#clip120)" d="M 0 0 M839.454 1440.11 Q836.52 1440.11 835.034 1443.01 Q833.567 1445.89 833.567 1451.68 Q833.567 1457.46 835.034 1460.35 Q836.52 1463.23 839.454 1463.23 Q842.407 1463.23 843.874 1460.35 Q845.36 1457.46 845.36 1451.68 Q845.36 1445.89 843.874 1443.01 Q842.407 1440.11 839.454 1440.11 M839.454 1437.11 Q844.175 1437.11 846.657 1440.85 Q849.159 1444.57 849.159 1451.68 Q849.159 1458.77 846.657 1462.51 Q844.175 1466.24 839.454 1466.24 Q834.733 1466.24 832.232 1462.51 Q829.749 1458.77 829.749 1451.68 Q829.749 1444.57 832.232 1440.85 Q834.733 1437.11 839.454 1437.11 Z" fill="#000000" fill-rule="evenodd" fill-opacity="1" /><path clip-path="url(#clip120)" d="M 0 0 M853.278 1460.92 L857.246 1460.92 L857.246 1465.69 L853.278 1465.69 L853.278 1460.92 Z" fill="#000000" fill-rule="evenodd" fill-opacity="1" /><path clip-path="url(#clip120)" d="M 0 0 M861.403 1437.61 L876.317 1437.61 L876.317 1440.81 L864.882 1440.81 L864.882 1447.69 Q865.71 1447.41 866.537 1447.28 Q867.365 1447.13 868.192 1447.13 Q872.894 1447.13 875.64 1449.71 Q878.386 1452.28 878.386 1456.68 Q878.386 1461.22 875.565 1463.74 Q872.744 1466.24 867.609 1466.24 Q865.841 1466.24 863.998 1465.94 Q862.174 1465.64 860.218 1465.04 L860.218 1461.22 Q861.911 1462.14 863.716 1462.59 Q865.522 1463.04 867.534 1463.04 Q870.788 1463.04 872.687 1461.33 Q874.587 1459.62 874.587 1456.68 Q874.587 1453.75 872.687 1452.04 Q870.788 1450.33 867.534 1450.33 Q866.011 1450.33 864.487 1450.67 Q862.983 1451 861.403 1451.72 L861.403 1437.61 Z" fill="#000000" fill-rule="evenodd" fill-opacity="1" /><path clip-path="url(#clip120)" d="M 0 0 M1261.35 1489.17 L1268.98 1489.17 L1268.98 1462.8 L1260.67 1464.47 L1260.67 1460.21 L1268.94 1458.54 L1273.61 1458.54 L1273.61 1489.17 L1281.25 1489.17 L1281.25 1493.1 L1261.35 1493.1 L1261.35 1489.17 Z" fill="#000000" fill-rule="evenodd" fill-opacity="1" /><path clip-path="url(#clip120)" d="M 0 0 M1296.32 1461.62 Q1292.71 1461.62 1290.88 1465.19 Q1289.08 1468.73 1289.08 1475.86 Q1289.08 1482.97 1290.88 1486.53 Q1292.71 1490.07 1296.32 1490.07 Q1299.96 1490.07 1301.76 1486.53 Q1303.59 1482.97 1303.59 1475.86 Q1303.59 1468.73 1301.76 1465.19 Q1299.96 1461.62 1296.32 1461.62 M1296.32 1457.92 Q1302.13 1457.92 1305.19 1462.53 Q1308.27 1467.11 1308.27 1475.86 Q1308.27 1484.59 1305.19 1489.19 Q1302.13 1493.78 1296.32 1493.78 Q1290.51 1493.78 1287.43 1489.19 Q1284.38 1484.59 1284.38 1475.86 Q1284.38 1467.11 1287.43 1462.53 Q1290.51 1457.92 1296.32 1457.92 Z" fill="#000000" fill-rule="evenodd" fill-opacity="1" /><path clip-path="url(#clip120)" d="M 0 0 M1317.97 1440.11 Q1315.04 1440.11 1313.55 1443.01 Q1312.08 1445.89 1312.08 1451.68 Q1312.08 1457.46 1313.55 1460.35 Q1315.04 1463.23 1317.97 1463.23 Q1320.92 1463.23 1322.39 1460.35 Q1323.88 1457.46 1323.88 1451.68 Q1323.88 1445.89 1322.39 1443.01 Q1320.92 1440.11 1317.97 1440.11 M1317.97 1437.11 Q1322.69 1437.11 1325.17 1440.85 Q1327.68 1444.57 1327.68 1451.68 Q1327.68 1458.77 1325.17 1462.51 Q1322.69 1466.24 1317.97 1466.24 Q1313.25 1466.24 1310.75 1462.51 Q1308.27 1458.77 1308.27 1451.68 Q1308.27 1444.57 1310.75 1440.85 Q1313.25 1437.11 1317.97 1437.11 Z" fill="#000000" fill-rule="evenodd" fill-opacity="1" /><path clip-path="url(#clip120)" d="M 0 0 M1331.79 1460.92 L1335.76 1460.92 L1335.76 1465.69 L1331.79 1465.69 L1331.79 1460.92 Z" fill="#000000" fill-rule="evenodd" fill-opacity="1" /><path clip-path="url(#clip120)" d="M 0 0 M1348.01 1440.11 Q1345.07 1440.11 1343.59 1443.01 Q1342.12 1445.89 1342.12 1451.68 Q1342.12 1457.46 1343.59 1460.35 Q1345.07 1463.23 1348.01 1463.23 Q1350.96 1463.23 1352.43 1460.35 Q1353.91 1457.46 1353.91 1451.68 Q1353.91 1445.89 1352.43 1443.01 Q1350.96 1440.11 1348.01 1440.11 M1348.01 1437.11 Q1352.73 1437.11 1355.21 1440.85 Q1357.71 1444.57 1357.71 1451.68 Q1357.71 1458.77 1355.21 1462.51 Q1352.73 1466.24 1348.01 1466.24 Q1343.29 1466.24 1340.78 1462.51 Q1338.3 1458.77 1338.3 1451.68 Q1338.3 1444.57 1340.78 1440.85 Q1343.29 1437.11 1348.01 1437.11 Z" fill="#000000" fill-rule="evenodd" fill-opacity="1" /><path clip-path="url(#clip120)" d="M 0 0 M1754 1489.17 L1761.64 1489.17 L1761.64 1462.8 L1753.32 1464.47 L1753.32 1460.21 L1761.59 1458.54 L1766.26 1458.54 L1766.26 1489.17 L1773.9 1489.17 L1773.9 1493.1 L1754 1493.1 L1754 1489.17 Z" fill="#000000" fill-rule="evenodd" fill-opacity="1" /><path clip-path="url(#clip120)" d="M 0 0 M1788.97 1461.62 Q1785.36 1461.62 1783.53 1465.19 Q1781.73 1468.73 1781.73 1475.86 Q1781.73 1482.97 1783.53 1486.53 Q1785.36 1490.07 1788.97 1490.07 Q1792.61 1490.07 1794.41 1486.53 Q1796.24 1482.97 1796.24 1475.86 Q1796.24 1468.73 1794.41 1465.19 Q1792.61 1461.62 1788.97 1461.62 M1788.97 1457.92 Q1794.78 1457.92 1797.84 1462.53 Q1800.92 1467.11 1800.92 1475.86 Q1800.92 1484.59 1797.84 1489.19 Q1794.78 1493.78 1788.97 1493.78 Q1783.16 1493.78 1780.08 1489.19 Q1777.03 1484.59 1777.03 1475.86 Q1777.03 1467.11 1780.08 1462.53 Q1783.16 1457.92 1788.97 1457.92 Z" fill="#000000" fill-rule="evenodd" fill-opacity="1" /><path clip-path="url(#clip120)" d="M 0 0 M1810.62 1440.11 Q1807.69 1440.11 1806.2 1443.01 Q1804.74 1445.89 1804.74 1451.68 Q1804.74 1457.46 1806.2 1460.35 Q1807.69 1463.23 1810.62 1463.23 Q1813.57 1463.23 1815.04 1460.35 Q1816.53 1457.46 1816.53 1451.68 Q1816.53 1445.89 1815.04 1443.01 Q1813.57 1440.11 1810.62 1440.11 M1810.62 1437.11 Q1815.34 1437.11 1817.83 1440.85 Q1820.33 1444.57 1820.33 1451.68 Q1820.33 1458.77 1817.83 1462.51 Q1815.34 1466.24 1810.62 1466.24 Q1805.9 1466.24 1803.4 1462.51 Q1800.92 1458.77 1800.92 1451.68 Q1800.92 1444.57 1803.4 1440.85 Q1805.9 1437.11 1810.62 1437.11 Z" fill="#000000" fill-rule="evenodd" fill-opacity="1" /><path clip-path="url(#clip120)" d="M 0 0 M1824.45 1460.92 L1828.41 1460.92 L1828.41 1465.69 L1824.45 1465.69 L1824.45 1460.92 Z" fill="#000000" fill-rule="evenodd" fill-opacity="1" /><path clip-path="url(#clip120)" d="M 0 0 M1832.57 1437.61 L1847.49 1437.61 L1847.49 1440.81 L1836.05 1440.81 L1836.05 1447.69 Q1836.88 1447.41 1837.71 1447.28 Q1838.53 1447.13 1839.36 1447.13 Q1844.06 1447.13 1846.81 1449.71 Q1849.55 1452.28 1849.55 1456.68 Q1849.55 1461.22 1846.73 1463.74 Q1843.91 1466.24 1838.78 1466.24 Q1837.01 1466.24 1835.17 1465.94 Q1833.34 1465.64 1831.39 1465.04 L1831.39 1461.22 Q1833.08 1462.14 1834.88 1462.59 Q1836.69 1463.04 1838.7 1463.04 Q1841.96 1463.04 1843.86 1461.33 Q1845.76 1459.62 1845.76 1456.68 Q1845.76 1453.75 1843.86 1452.04 Q1841.96 1450.33 1838.7 1450.33 Q1837.18 1450.33 1835.66 1450.67 Q1834.15 1451 1832.57 1451.72 L1832.57 1437.61 Z" fill="#000000" fill-rule="evenodd" fill-opacity="1" /><path clip-path="url(#clip120)" d="M 0 0 M2247.18 1489.17 L2254.82 1489.17 L2254.82 1462.8 L2246.51 1464.47 L2246.51 1460.21 L2254.78 1458.54 L2259.45 1458.54 L2259.45 1489.17 L2267.09 1489.17 L2267.09 1493.1 L2247.18 1493.1 L2247.18 1489.17 Z" fill="#000000" fill-rule="evenodd" fill-opacity="1" /><path clip-path="url(#clip120)" d="M 0 0 M2282.16 1461.62 Q2278.55 1461.62 2276.72 1465.19 Q2274.91 1468.73 2274.91 1475.86 Q2274.91 1482.97 2276.72 1486.53 Q2278.55 1490.07 2282.16 1490.07 Q2285.79 1490.07 2287.6 1486.53 Q2289.43 1482.97 2289.43 1475.86 Q2289.43 1468.73 2287.6 1465.19 Q2285.79 1461.62 2282.16 1461.62 M2282.16 1457.92 Q2287.97 1457.92 2291.03 1462.53 Q2294.1 1467.11 2294.1 1475.86 Q2294.1 1484.59 2291.03 1489.19 Q2287.97 1493.78 2282.16 1493.78 Q2276.35 1493.78 2273.27 1489.19 Q2270.22 1484.59 2270.22 1475.86 Q2270.22 1467.11 2273.27 1462.53 Q2276.35 1457.92 2282.16 1457.92 Z" fill="#000000" fill-rule="evenodd" fill-opacity="1" /><path clip-path="url(#clip120)" d="M 0 0 M2294.65 1462.5 L2300.86 1462.5 L2300.86 1441.07 L2294.1 1442.43 L2294.1 1438.97 L2300.82 1437.61 L2304.62 1437.61 L2304.62 1462.5 L2310.82 1462.5 L2310.82 1465.69 L2294.65 1465.69 L2294.65 1462.5 Z" fill="#000000" fill-rule="evenodd" fill-opacity="1" /><path clip-path="url(#clip120)" d="M 0 0 M2314.94 1460.92 L2318.91 1460.92 L2318.91 1465.69 L2314.94 1465.69 L2314.94 1460.92 Z" fill="#000000" fill-rule="evenodd" fill-opacity="1" /><path clip-path="url(#clip120)" d="M 0 0 M2331.16 1440.11 Q2328.22 1440.11 2326.74 1443.01 Q2325.27 1445.89 2325.27 1451.68 Q2325.27 1457.46 2326.74 1460.35 Q2328.22 1463.23 2331.16 1463.23 Q2334.11 1463.23 2335.58 1460.35 Q2337.06 1457.46 2337.06 1451.68 Q2337.06 1445.89 2335.58 1443.01 Q2334.11 1440.11 2331.16 1440.11 M2331.16 1437.11 Q2335.88 1437.11 2338.36 1440.85 Q2340.86 1444.57 2340.86 1451.68 Q2340.86 1458.77 2338.36 1462.51 Q2335.88 1466.24 2331.16 1466.24 Q2326.43 1466.24 2323.93 1462.51 Q2321.45 1458.77 2321.45 1451.68 Q2321.45 1444.57 2323.93 1440.85 Q2326.43 1437.11 2331.16 1437.11 Z" fill="#000000" fill-rule="evenodd" fill-opacity="1" /><path clip-path="url(#clip120)" d="M 0 0 M1201.96 1526.54 L1208.17 1526.54 L1219.31 1556.46 L1230.45 1526.54 L1236.66 1526.54 L1223.29 1562.19 L1215.33 1562.19 L1201.96 1526.54 Z" fill="#000000" fill-rule="evenodd" fill-opacity="1" /><path clip-path="url(#clip120)" d="M 0 0 M1269.88 1573.01 L1269.88 1577.56 L1236.02 1577.56 L1236.02 1573.01 L1269.88 1573.01 Z" fill="#000000" fill-rule="evenodd" fill-opacity="1" /><path clip-path="url(#clip120)" d="M 0 0 M1289.84 1530.64 Q1285.13 1530.64 1282.39 1534.34 Q1279.66 1538 1279.66 1544.39 Q1279.66 1550.79 1282.36 1554.48 Q1285.1 1558.14 1289.84 1558.14 Q1294.52 1558.14 1297.26 1554.45 Q1299.99 1550.76 1299.99 1544.39 Q1299.99 1538.06 1297.26 1534.37 Q1294.52 1530.64 1289.84 1530.64 M1289.84 1525.68 Q1297.48 1525.68 1301.84 1530.64 Q1306.2 1535.61 1306.2 1544.39 Q1306.2 1553.15 1301.84 1558.14 Q1297.48 1563.11 1289.84 1563.11 Q1282.17 1563.11 1277.81 1558.14 Q1273.48 1553.15 1273.48 1544.39 Q1273.48 1535.61 1277.81 1530.64 Q1282.17 1525.68 1289.84 1525.68 Z" fill="#000000" fill-rule="evenodd" fill-opacity="1" /><path clip-path="url(#clip120)" d="M 0 0 M1318.01 1556.84 L1318.01 1575.74 L1312.12 1575.74 L1312.12 1526.54 L1318.01 1526.54 L1318.01 1531.95 Q1319.86 1528.77 1322.66 1527.24 Q1325.49 1525.68 1329.4 1525.68 Q1335.9 1525.68 1339.94 1530.83 Q1344.01 1535.99 1344.01 1544.39 Q1344.01 1552.8 1339.94 1557.95 Q1335.9 1563.11 1329.4 1563.11 Q1325.49 1563.11 1322.66 1561.58 Q1319.86 1560.02 1318.01 1556.84 M1337.93 1544.39 Q1337.93 1537.93 1335.26 1534.27 Q1332.62 1530.58 1327.97 1530.58 Q1323.32 1530.58 1320.65 1534.27 Q1318.01 1537.93 1318.01 1544.39 Q1318.01 1550.85 1320.65 1554.55 Q1323.32 1558.21 1327.97 1558.21 Q1332.62 1558.21 1335.26 1554.55 Q1337.93 1550.85 1337.93 1544.39 Z" fill="#000000" fill-rule="evenodd" fill-opacity="1" /><path clip-path="url(#clip120)" d="M 0 0 M1380.65 1542.9 L1380.65 1545.76 L1353.72 1545.76 Q1354.1 1551.81 1357.35 1554.99 Q1360.63 1558.14 1366.45 1558.14 Q1369.83 1558.14 1372.98 1557.32 Q1376.16 1556.49 1379.28 1554.83 L1379.28 1560.37 Q1376.13 1561.71 1372.82 1562.41 Q1369.51 1563.11 1366.1 1563.11 Q1357.57 1563.11 1352.58 1558.14 Q1347.61 1553.18 1347.61 1544.71 Q1347.61 1535.96 1352.32 1530.83 Q1357.06 1525.68 1365.08 1525.68 Q1372.28 1525.68 1376.45 1530.33 Q1380.65 1534.94 1380.65 1542.9 M1374.79 1541.18 Q1374.73 1536.37 1372.09 1533.51 Q1369.48 1530.64 1365.15 1530.64 Q1360.25 1530.64 1357.29 1533.41 Q1354.36 1536.18 1353.91 1541.21 L1374.79 1541.18 Z" fill="#000000" fill-rule="evenodd" fill-opacity="1" /><path clip-path="url(#clip120)" d="M 0 0 M1416.42 1540.67 L1416.42 1562.19 L1410.57 1562.19 L1410.57 1540.86 Q1410.57 1535.8 1408.59 1533.29 Q1406.62 1530.77 1402.67 1530.77 Q1397.93 1530.77 1395.19 1533.79 Q1392.46 1536.82 1392.46 1542.04 L1392.46 1562.19 L1386.57 1562.19 L1386.57 1526.54 L1392.46 1526.54 L1392.46 1532.08 Q1394.56 1528.86 1397.39 1527.27 Q1400.25 1525.68 1403.98 1525.68 Q1410.12 1525.68 1413.27 1529.5 Q1416.42 1533.29 1416.42 1540.67 Z" fill="#000000" fill-rule="evenodd" fill-opacity="1" /><polyline clip-path="url(#clip122)" style="stroke:#000000; stroke-width:2; stroke-opacity:0.1; fill:none" points="
  265.63,1318.98 2352.76,1318.98 
  "/>
<polyline clip-path="url(#clip122)" style="stroke:#000000; stroke-width:2; stroke-opacity:0.1; fill:none" points="
  265.63,957.116 2352.76,957.116 
  "/>
<polyline clip-path="url(#clip122)" style="stroke:#000000; stroke-width:2; stroke-opacity:0.1; fill:none" points="
  265.63,595.251 2352.76,595.251 
  "/>
<polyline clip-path="url(#clip122)" style="stroke:#000000; stroke-width:2; stroke-opacity:0.1; fill:none" points="
  265.63,233.386 2352.76,233.386 
  "/>
<polyline clip-path="url(#clip120)" style="stroke:#000000; stroke-width:4; stroke-opacity:1; fill:none" points="
  265.63,1410.9 265.63,47.2441 
  "/>
<polyline clip-path="url(#clip120)" style="stroke:#000000; stroke-width:4; stroke-opacity:1; fill:none" points="
  265.63,1318.98 290.675,1318.98 
  "/>
<polyline clip-path="url(#clip120)" style="stroke:#000000; stroke-width:4; stroke-opacity:1; fill:none" points="
  265.63,957.116 290.675,957.116 
  "/>
<polyline clip-path="url(#clip120)" style="stroke:#000000; stroke-width:4; stroke-opacity:1; fill:none" points="
  265.63,595.251 290.675,595.251 
  "/>
<polyline clip-path="url(#clip120)" style="stroke:#000000; stroke-width:4; stroke-opacity:1; fill:none" points="
  265.63,233.386 290.675,233.386 
  "/>
<path clip-path="url(#clip120)" d="M 0 0 M128.519 1304.78 Q124.908 1304.78 123.08 1308.34 Q121.274 1311.89 121.274 1319.02 Q121.274 1326.12 123.08 1329.69 Q124.908 1333.23 128.519 1333.23 Q132.154 1333.23 133.959 1329.69 Q135.788 1326.12 135.788 1319.02 Q135.788 1311.89 133.959 1308.34 Q132.154 1304.78 128.519 1304.78 M128.519 1301.08 Q134.329 1301.08 137.385 1305.68 Q140.464 1310.27 140.464 1319.02 Q140.464 1327.74 137.385 1332.35 Q134.329 1336.93 128.519 1336.93 Q122.709 1336.93 119.63 1332.35 Q116.575 1327.74 116.575 1319.02 Q116.575 1310.27 119.63 1305.68 Q122.709 1301.08 128.519 1301.08 Z" fill="#000000" fill-rule="evenodd" fill-opacity="1" /><path clip-path="url(#clip120)" d="M 0 0 M145.533 1330.38 L150.417 1330.38 L150.417 1336.26 L145.533 1336.26 L145.533 1330.38 Z" fill="#000000" fill-rule="evenodd" fill-opacity="1" /><path clip-path="url(#clip120)" d="M 0 0 M169.653 1317.63 Q173.01 1318.34 174.885 1320.61 Q176.783 1322.88 176.783 1326.21 Q176.783 1331.33 173.264 1334.13 Q169.746 1336.93 163.265 1336.93 Q161.089 1336.93 158.774 1336.49 Q156.482 1336.08 154.028 1335.22 L154.028 1330.71 Q155.973 1331.84 158.288 1332.42 Q160.603 1333 163.126 1333 Q167.524 1333 169.815 1331.26 Q172.13 1329.52 172.13 1326.21 Q172.13 1323.16 169.977 1321.45 Q167.848 1319.71 164.028 1319.71 L160.001 1319.71 L160.001 1315.87 L164.214 1315.87 Q167.663 1315.87 169.491 1314.5 Q171.32 1313.11 171.32 1310.52 Q171.32 1307.86 169.422 1306.45 Q167.547 1305.01 164.028 1305.01 Q162.107 1305.01 159.908 1305.43 Q157.709 1305.84 155.07 1306.72 L155.07 1302.56 Q157.732 1301.82 160.047 1301.45 Q162.385 1301.08 164.445 1301.08 Q169.769 1301.08 172.871 1303.51 Q175.973 1305.91 175.973 1310.03 Q175.973 1312.9 174.329 1314.9 Q172.686 1316.86 169.653 1317.63 Z" fill="#000000" fill-rule="evenodd" fill-opacity="1" /><path clip-path="url(#clip120)" d="M 0 0 M181.991 1335.54 L181.991 1331.28 Q183.751 1332.12 185.556 1332.56 Q187.362 1333 189.098 1333 Q193.727 1333 196.158 1329.9 Q198.612 1326.77 198.959 1320.43 Q197.616 1322.42 195.556 1323.48 Q193.496 1324.55 190.996 1324.55 Q185.811 1324.55 182.778 1321.42 Q179.769 1318.27 179.769 1312.84 Q179.769 1307.51 182.917 1304.29 Q186.065 1301.08 191.297 1301.08 Q197.292 1301.08 200.44 1305.68 Q203.612 1310.27 203.612 1319.02 Q203.612 1327.19 199.723 1332.07 Q195.857 1336.93 189.306 1336.93 Q187.547 1336.93 185.741 1336.59 Q183.936 1336.24 181.991 1335.54 M191.297 1320.89 Q194.445 1320.89 196.274 1318.74 Q198.125 1316.59 198.125 1312.84 Q198.125 1309.11 196.274 1306.96 Q194.445 1304.78 191.297 1304.78 Q188.149 1304.78 186.297 1306.96 Q184.468 1309.11 184.468 1312.84 Q184.468 1316.59 186.297 1318.74 Q188.149 1320.89 191.297 1320.89 Z" fill="#000000" fill-rule="evenodd" fill-opacity="1" /><path clip-path="url(#clip120)" d="M 0 0 M208.727 1301.7 L227.084 1301.7 L227.084 1305.64 L213.01 1305.64 L213.01 1314.11 Q214.028 1313.76 215.047 1313.6 Q216.065 1313.41 217.084 1313.41 Q222.871 1313.41 226.25 1316.59 Q229.63 1319.76 229.63 1325.17 Q229.63 1330.75 226.158 1333.85 Q222.686 1336.93 216.366 1336.93 Q214.19 1336.93 211.922 1336.56 Q209.676 1336.19 207.269 1335.45 L207.269 1330.75 Q209.352 1331.89 211.574 1332.44 Q213.797 1333 216.273 1333 Q220.278 1333 222.616 1330.89 Q224.954 1328.78 224.954 1325.17 Q224.954 1321.56 222.616 1319.46 Q220.278 1317.35 216.273 1317.35 Q214.399 1317.35 212.524 1317.77 Q210.672 1318.18 208.727 1319.06 L208.727 1301.7 Z" fill="#000000" fill-rule="evenodd" fill-opacity="1" /><path clip-path="url(#clip120)" d="M 0 0 M126.205 942.915 Q122.593 942.915 120.765 946.479 Q118.959 950.021 118.959 957.151 Q118.959 964.257 120.765 967.822 Q122.593 971.364 126.205 971.364 Q129.839 971.364 131.644 967.822 Q133.473 964.257 133.473 957.151 Q133.473 950.021 131.644 946.479 Q129.839 942.915 126.205 942.915 M126.205 939.211 Q132.015 939.211 135.07 943.817 Q138.149 948.401 138.149 957.151 Q138.149 965.877 135.07 970.484 Q132.015 975.067 126.205 975.067 Q120.394 975.067 117.316 970.484 Q114.26 965.877 114.26 957.151 Q114.26 948.401 117.316 943.817 Q120.394 939.211 126.205 939.211 Z" fill="#000000" fill-rule="evenodd" fill-opacity="1" /><path clip-path="url(#clip120)" d="M 0 0 M143.218 968.516 L148.103 968.516 L148.103 974.396 L143.218 974.396 L143.218 968.516 Z" fill="#000000" fill-rule="evenodd" fill-opacity="1" /><path clip-path="url(#clip120)" d="M 0 0 M166.019 943.91 L154.214 962.359 L166.019 962.359 L166.019 943.91 M164.792 939.836 L170.672 939.836 L170.672 962.359 L175.602 962.359 L175.602 966.248 L170.672 966.248 L170.672 974.396 L166.019 974.396 L166.019 966.248 L150.417 966.248 L150.417 961.734 L164.792 939.836 Z" fill="#000000" fill-rule="evenodd" fill-opacity="1" /><path clip-path="url(#clip120)" d="M 0 0 M190.672 942.915 Q187.061 942.915 185.232 946.479 Q183.426 950.021 183.426 957.151 Q183.426 964.257 185.232 967.822 Q187.061 971.364 190.672 971.364 Q194.306 971.364 196.112 967.822 Q197.94 964.257 197.94 957.151 Q197.94 950.021 196.112 946.479 Q194.306 942.915 190.672 942.915 M190.672 939.211 Q196.482 939.211 199.537 943.817 Q202.616 948.401 202.616 957.151 Q202.616 965.877 199.537 970.484 Q196.482 975.067 190.672 975.067 Q184.862 975.067 181.783 970.484 Q178.727 965.877 178.727 957.151 Q178.727 948.401 181.783 943.817 Q184.862 939.211 190.672 939.211 Z" fill="#000000" fill-rule="evenodd" fill-opacity="1" /><path clip-path="url(#clip120)" d="M 0 0 M217.686 942.915 Q214.074 942.915 212.246 946.479 Q210.44 950.021 210.44 957.151 Q210.44 964.257 212.246 967.822 Q214.074 971.364 217.686 971.364 Q221.32 971.364 223.125 967.822 Q224.954 964.257 224.954 957.151 Q224.954 950.021 223.125 946.479 Q221.32 942.915 217.686 942.915 M217.686 939.211 Q223.496 939.211 226.551 943.817 Q229.63 948.401 229.63 957.151 Q229.63 965.877 226.551 970.484 Q223.496 975.067 217.686 975.067 Q211.875 975.067 208.797 970.484 Q205.741 965.877 205.741 957.151 Q205.741 948.401 208.797 943.817 Q211.875 939.211 217.686 939.211 Z" fill="#000000" fill-rule="evenodd" fill-opacity="1" /><path clip-path="url(#clip120)" d="M 0 0 M127.2 581.05 Q123.589 581.05 121.76 584.614 Q119.955 588.156 119.955 595.286 Q119.955 602.392 121.76 605.957 Q123.589 609.499 127.2 609.499 Q130.834 609.499 132.64 605.957 Q134.468 602.392 134.468 595.286 Q134.468 588.156 132.64 584.614 Q130.834 581.05 127.2 581.05 M127.2 577.346 Q133.01 577.346 136.066 581.952 Q139.144 586.536 139.144 595.286 Q139.144 604.012 136.066 608.619 Q133.01 613.202 127.2 613.202 Q121.39 613.202 118.311 608.619 Q115.256 604.012 115.256 595.286 Q115.256 586.536 118.311 581.952 Q121.39 577.346 127.2 577.346 Z" fill="#000000" fill-rule="evenodd" fill-opacity="1" /><path clip-path="url(#clip120)" d="M 0 0 M144.214 606.651 L149.098 606.651 L149.098 612.531 L144.214 612.531 L144.214 606.651 Z" fill="#000000" fill-rule="evenodd" fill-opacity="1" /><path clip-path="url(#clip120)" d="M 0 0 M167.015 582.045 L155.209 600.494 L167.015 600.494 L167.015 582.045 M165.788 577.971 L171.667 577.971 L171.667 600.494 L176.598 600.494 L176.598 604.383 L171.667 604.383 L171.667 612.531 L167.015 612.531 L167.015 604.383 L151.413 604.383 L151.413 599.869 L165.788 577.971 Z" fill="#000000" fill-rule="evenodd" fill-opacity="1" /><path clip-path="url(#clip120)" d="M 0 0 M191.667 581.05 Q188.056 581.05 186.227 584.614 Q184.422 588.156 184.422 595.286 Q184.422 602.392 186.227 605.957 Q188.056 609.499 191.667 609.499 Q195.301 609.499 197.107 605.957 Q198.936 602.392 198.936 595.286 Q198.936 588.156 197.107 584.614 Q195.301 581.05 191.667 581.05 M191.667 577.346 Q197.477 577.346 200.533 581.952 Q203.612 586.536 203.612 595.286 Q203.612 604.012 200.533 608.619 Q197.477 613.202 191.667 613.202 Q185.857 613.202 182.778 608.619 Q179.723 604.012 179.723 595.286 Q179.723 586.536 182.778 581.952 Q185.857 577.346 191.667 577.346 Z" fill="#000000" fill-rule="evenodd" fill-opacity="1" /><path clip-path="url(#clip120)" d="M 0 0 M208.727 577.971 L227.084 577.971 L227.084 581.906 L213.01 581.906 L213.01 590.378 Q214.028 590.031 215.047 589.869 Q216.065 589.684 217.084 589.684 Q222.871 589.684 226.25 592.855 Q229.63 596.026 229.63 601.443 Q229.63 607.022 226.158 610.124 Q222.686 613.202 216.366 613.202 Q214.19 613.202 211.922 612.832 Q209.676 612.461 207.269 611.721 L207.269 607.022 Q209.352 608.156 211.574 608.711 Q213.797 609.267 216.273 609.267 Q220.278 609.267 222.616 607.161 Q224.954 605.054 224.954 601.443 Q224.954 597.832 222.616 595.725 Q220.278 593.619 216.273 593.619 Q214.399 593.619 212.524 594.036 Q210.672 594.452 208.727 595.332 L208.727 577.971 Z" fill="#000000" fill-rule="evenodd" fill-opacity="1" /><path clip-path="url(#clip120)" d="M 0 0 M127.431 219.185 Q123.82 219.185 121.992 222.749 Q120.186 226.291 120.186 233.421 Q120.186 240.527 121.992 244.092 Q123.82 247.633 127.431 247.633 Q131.066 247.633 132.871 244.092 Q134.7 240.527 134.7 233.421 Q134.7 226.291 132.871 222.749 Q131.066 219.185 127.431 219.185 M127.431 215.481 Q133.242 215.481 136.297 220.087 Q139.376 224.671 139.376 233.421 Q139.376 242.147 136.297 246.754 Q133.242 251.337 127.431 251.337 Q121.621 251.337 118.543 246.754 Q115.487 242.147 115.487 233.421 Q115.487 224.671 118.543 220.087 Q121.621 215.481 127.431 215.481 Z" fill="#000000" fill-rule="evenodd" fill-opacity="1" /><path clip-path="url(#clip120)" d="M 0 0 M144.445 244.786 L149.329 244.786 L149.329 250.666 L144.445 250.666 L144.445 244.786 Z" fill="#000000" fill-rule="evenodd" fill-opacity="1" /><path clip-path="url(#clip120)" d="M 0 0 M167.246 220.18 L155.44 238.629 L167.246 238.629 L167.246 220.18 M166.019 216.106 L171.899 216.106 L171.899 238.629 L176.829 238.629 L176.829 242.518 L171.899 242.518 L171.899 250.666 L167.246 250.666 L167.246 242.518 L151.644 242.518 L151.644 238.004 L166.019 216.106 Z" fill="#000000" fill-rule="evenodd" fill-opacity="1" /><path clip-path="url(#clip120)" d="M 0 0 M182.709 246.731 L190.348 246.731 L190.348 220.365 L182.038 222.032 L182.038 217.773 L190.301 216.106 L194.977 216.106 L194.977 246.731 L202.616 246.731 L202.616 250.666 L182.709 250.666 L182.709 246.731 Z" fill="#000000" fill-rule="evenodd" fill-opacity="1" /><path clip-path="url(#clip120)" d="M 0 0 M217.686 219.185 Q214.074 219.185 212.246 222.749 Q210.44 226.291 210.44 233.421 Q210.44 240.527 212.246 244.092 Q214.074 247.633 217.686 247.633 Q221.32 247.633 223.125 244.092 Q224.954 240.527 224.954 233.421 Q224.954 226.291 223.125 222.749 Q221.32 219.185 217.686 219.185 M217.686 215.481 Q223.496 215.481 226.551 220.087 Q229.63 224.671 229.63 233.421 Q229.63 242.147 226.551 246.754 Q223.496 251.337 217.686 251.337 Q211.875 251.337 208.797 246.754 Q205.741 242.147 205.741 233.421 Q205.741 224.671 208.797 220.087 Q211.875 215.481 217.686 215.481 Z" fill="#000000" fill-rule="evenodd" fill-opacity="1" /><path clip-path="url(#clip120)" d="M 0 0 M59.1993 815.533 Q55.2526 813.336 53.3747 810.281 Q51.4968 807.225 51.4968 803.088 Q51.4968 797.518 55.4117 794.494 Q59.2948 791.47 66.4881 791.47 L88.0042 791.47 L88.0042 797.358 L66.679 797.358 Q61.5546 797.358 59.072 799.173 Q56.5894 800.987 56.5894 804.711 Q56.5894 809.262 59.6131 811.904 Q62.6368 814.546 67.8567 814.546 L88.0042 814.546 L88.0042 820.434 L66.679 820.434 Q61.5228 820.434 59.072 822.248 Q56.5894 824.063 56.5894 827.85 Q56.5894 832.338 59.6449 834.98 Q62.6686 837.622 67.8567 837.622 L88.0042 837.622 L88.0042 843.51 L52.3562 843.51 L52.3562 837.622 L57.8944 837.622 Q54.616 835.616 53.0564 832.815 Q51.4968 830.015 51.4968 826.163 Q51.4968 822.28 53.4702 819.575 Q55.4436 816.838 59.1993 815.533 Z" fill="#000000" fill-rule="evenodd" fill-opacity="1" /><path clip-path="url(#clip120)" d="M 0 0 M52.3562 785.327 L52.3562 779.471 L88.0042 779.471 L88.0042 785.327 L52.3562 785.327 M38.479 785.327 L38.479 779.471 L45.895 779.471 L45.895 785.327 L38.479 785.327 Z" fill="#000000" fill-rule="evenodd" fill-opacity="1" /><path clip-path="url(#clip120)" d="M 0 0 M66.4881 743.696 L88.0042 743.696 L88.0042 749.552 L66.679 749.552 Q61.6183 749.552 59.1038 751.525 Q56.5894 753.499 56.5894 757.446 Q56.5894 762.188 59.6131 764.925 Q62.6368 767.662 67.8567 767.662 L88.0042 767.662 L88.0042 773.551 L52.3562 773.551 L52.3562 767.662 L57.8944 767.662 Q54.6797 765.562 53.0883 762.729 Q51.4968 759.864 51.4968 756.141 Q51.4968 749.998 55.3163 746.847 Q59.1038 743.696 66.4881 743.696 Z" fill="#000000" fill-rule="evenodd" fill-opacity="1" /><path clip-path="url(#clip120)" d="M 0 0 M98.8259 710.467 L103.377 710.467 L103.377 744.332 L98.8259 744.332 L98.8259 710.467 Z" fill="#000000" fill-rule="evenodd" fill-opacity="1" /><path clip-path="url(#clip120)" d="M 0 0 M57.7671 680.866 L38.479 680.866 L38.479 675.01 L88.0042 675.01 L88.0042 680.866 L82.657 680.866 Q85.8398 682.712 87.3994 685.545 Q88.9272 688.346 88.9272 692.292 Q88.9272 698.754 83.771 702.828 Q78.6147 706.87 70.212 706.87 Q61.8093 706.87 56.6531 702.828 Q51.4968 698.754 51.4968 692.292 Q51.4968 688.346 53.0564 685.545 Q54.5842 682.712 57.7671 680.866 M70.212 700.823 Q76.6732 700.823 80.3653 698.181 Q84.0256 695.507 84.0256 690.86 Q84.0256 686.213 80.3653 683.54 Q76.6732 680.866 70.212 680.866 Q63.7508 680.866 60.0905 683.54 Q56.3984 686.213 56.3984 690.86 Q56.3984 695.507 60.0905 698.181 Q63.7508 700.823 70.212 700.823 Z" fill="#000000" fill-rule="evenodd" fill-opacity="1" /><path clip-path="url(#clip120)" d="M 0 0 M52.3562 668.867 L52.3562 663.01 L88.0042 663.01 L88.0042 668.867 L52.3562 668.867 M38.479 668.867 L38.479 663.01 L45.895 663.01 L45.895 668.867 L38.479 668.867 Z" fill="#000000" fill-rule="evenodd" fill-opacity="1" /><path clip-path="url(#clip120)" d="M 0 0 M38.479 638.821 L43.3487 638.821 L43.3487 644.422 Q43.3487 647.573 44.6219 648.815 Q45.895 650.024 49.2052 650.024 L52.3562 650.024 L52.3562 640.38 L56.9077 640.38 L56.9077 650.024 L88.0042 650.024 L88.0042 655.912 L56.9077 655.912 L56.9077 661.514 L52.3562 661.514 L52.3562 655.912 L49.8736 655.912 Q43.9216 655.912 41.2162 653.143 Q38.479 650.374 38.479 644.359 L38.479 638.821 Z" fill="#000000" fill-rule="evenodd" fill-opacity="1" /><path clip-path="url(#clip120)" d="M 0 0 M38.479 614.631 L43.3487 614.631 L43.3487 620.233 Q43.3487 623.384 44.6219 624.625 Q45.895 625.835 49.2052 625.835 L52.3562 625.835 L52.3562 616.19 L56.9077 616.19 L56.9077 625.835 L88.0042 625.835 L88.0042 631.723 L56.9077 631.723 L56.9077 637.325 L52.3562 637.325 L52.3562 631.723 L49.8736 631.723 Q43.9216 631.723 41.2162 628.954 Q38.479 626.185 38.479 620.169 L38.479 614.631 Z" fill="#000000" fill-rule="evenodd" fill-opacity="1" /><polyline clip-path="url(#clip122)" style="stroke:#009af9; stroke-width:20; stroke-opacity:1; fill:none" stroke-dasharray="80, 50" points="
  324.7,85.838 1309.19,1372.3 2293.69,165.638 
  "/>
<path clip-path="url(#clip120)" d="
M2000.26 213.659 L2283.19 213.659 L2283.19 92.6992 L2000.26 92.6992  Z
  " fill="#ffffff" fill-rule="evenodd" fill-opacity="1"/>
<polyline clip-path="url(#clip120)" style="stroke:#000000; stroke-width:4; stroke-opacity:1; fill:none" points="
  2000.26,213.659 2283.19,213.659 2283.19,92.6992 2000.26,92.6992 2000.26,213.659 
  "/>
<polyline clip-path="url(#clip120)" style="stroke:#009af9; stroke-width:4; stroke-opacity:1; fill:none" stroke-dasharray="16, 10" points="
  2023.45,153.179 2162.6,153.179 
  "/>
<path clip-path="url(#clip120)" d="M 0 0 M2199.63 172.867 Q2197.82 177.496 2196.11 178.908 Q2194.4 180.32 2191.53 180.32 L2188.12 180.32 L2188.12 176.755 L2190.62 176.755 Q2192.38 176.755 2193.36 175.922 Q2194.33 175.089 2195.51 171.987 L2196.27 170.043 L2185.79 144.533 L2190.3 144.533 L2198.4 164.811 L2206.5 144.533 L2211.02 144.533 L2199.63 172.867 Z" fill="#000000" fill-rule="evenodd" fill-opacity="1" /><path clip-path="url(#clip120)" d="M 0 0 M2216.9 166.524 L2224.54 166.524 L2224.54 140.158 L2216.23 141.825 L2216.23 137.566 L2224.49 135.899 L2229.17 135.899 L2229.17 166.524 L2236.8 166.524 L2236.8 170.459 L2216.9 170.459 L2216.9 166.524 Z" fill="#000000" fill-rule="evenodd" fill-opacity="1" /></svg>
