<?xml version="1.0" encoding="utf-8"?>
<svg xmlns="http://www.w3.org/2000/svg" xmlns:xlink="http://www.w3.org/1999/xlink" width="600" height="400" viewBox="0 0 2400 1600">
<defs>
  <clipPath id="clip110">
    <rect x="0" y="0" width="2400" height="1600"/>
  </clipPath>
</defs>
<path clip-path="url(#clip110)" d="
M0 1600 L2400 1600 L2400 0 L0 0  Z
  " fill="#ffffff" fill-rule="evenodd" fill-opacity="1"/>
<defs>
  <clipPath id="clip111">
    <rect x="480" y="0" width="1681" height="1600"/>
  </clipPath>
</defs>
<path clip-path="url(#clip110)" d="
M238.2 1410.9 L2352.76 1410.9 L2352.76 47.2441 L238.2 47.2441  Z
  " fill="#ffffff" fill-rule="evenodd" fill-opacity="1"/>
<defs>
  <clipPath id="clip112">
    <rect x="238" y="47" width="2116" height="1365"/>
  </clipPath>
</defs>
<polyline clip-path="url(#clip112)" style="stroke:#000000; stroke-width:2; stroke-opacity:0.1; fill:none" points="
  298.045,1410.9 298.045,47.2441 
  "/>
<polyline clip-path="url(#clip112)" style="stroke:#000000; stroke-width:2; stroke-opacity:0.1; fill:none" points="
  796.762,1410.9 796.762,47.2441 
  "/>
<polyline clip-path="url(#clip112)" style="stroke:#000000; stroke-width:2; stroke-opacity:0.1; fill:none" points="
  1295.48,1410.9 1295.48,47.2441 
  "/>
<polyline clip-path="url(#clip112)" style="stroke:#000000; stroke-width:2; stroke-opacity:0.1; fill:none" points="
  1794.19,1410.9 1794.19,47.2441 
  "/>
<polyline clip-path="url(#clip112)" style="stroke:#000000; stroke-width:2; stroke-opacity:0.1; fill:none" points="
  2292.91,1410.9 2292.91,47.2441 
  "/>
<polyline clip-path="url(#clip110)" style="stroke:#000000; stroke-width:4; stroke-opacity:1; fill:none" points="
  238.2,1410.9 2352.76,1410.9 
  "/>
<polyline clip-path="url(#clip110)" style="stroke:#000000; stroke-width:4; stroke-opacity:1; fill:none" points="
  298.045,1410.9 298.045,1394.53 
  "/>
<polyline clip-path="url(#clip110)" style="stroke:#000000; stroke-width:4; stroke-opacity:1; fill:none" points="
  796.762,1410.9 796.762,1394.53 
  "/>
<polyline clip-path="url(#clip110)" style="stroke:#000000; stroke-width:4; stroke-opacity:1; fill:none" points="
  1295.48,1410.9 1295.48,1394.53 
  "/>
<polyline clip-path="url(#clip110)" style="stroke:#000000; stroke-width:4; stroke-opacity:1; fill:none" points="
  1794.19,1410.9 1794.19,1394.53 
  "/>
<polyline clip-path="url(#clip110)" style="stroke:#000000; stroke-width:4; stroke-opacity:1; fill:none" points="
  2292.91,1410.9 2292.91,1394.53 
  "/>
<path clip-path="url(#clip110)" d="M 0 0 M236.675 1489.17 L244.314 1489.17 L244.314 1462.8 L236.004 1464.47 L236.004 1460.21 L244.268 1458.54 L248.943 1458.54 L248.943 1489.17 L256.582 1489.17 L256.582 1493.1 L236.675 1493.1 L236.675 1489.17 Z" fill="#000000" fill-rule="evenodd" fill-opacity="1" /><path clip-path="url(#clip110)" d="M 0 0 M271.652 1461.62 Q268.041 1461.62 266.212 1465.19 Q264.406 1468.73 264.406 1475.86 Q264.406 1482.97 266.212 1486.53 Q268.041 1490.07 271.652 1490.07 Q275.286 1490.07 277.091 1486.53 Q278.92 1482.97 278.92 1475.86 Q278.92 1468.73 277.091 1465.19 Q275.286 1461.62 271.652 1461.62 M271.652 1457.92 Q277.462 1457.92 280.517 1462.53 Q283.596 1467.11 283.596 1475.86 Q283.596 1484.59 280.517 1489.19 Q277.462 1493.78 271.652 1493.78 Q265.841 1493.78 262.763 1489.19 Q259.707 1484.59 259.707 1475.86 Q259.707 1467.11 262.763 1462.53 Q265.841 1457.92 271.652 1457.92 Z" fill="#000000" fill-rule="evenodd" fill-opacity="1" /><path clip-path="url(#clip110)" d="M 0 0 M283.596 1452.02 L307.708 1452.02 L307.708 1455.22 L283.596 1455.22 L283.596 1452.02 Z" fill="#000000" fill-rule="evenodd" fill-opacity="1" /><path clip-path="url(#clip110)" d="M 0 0 M322.265 1440.92 L312.673 1455.91 L322.265 1455.91 L322.265 1440.92 M321.268 1437.61 L326.045 1437.61 L326.045 1455.91 L330.051 1455.91 L330.051 1459.07 L326.045 1459.07 L326.045 1465.69 L322.265 1465.69 L322.265 1459.07 L309.588 1459.07 L309.588 1455.41 L321.268 1437.61 Z" fill="#000000" fill-rule="evenodd" fill-opacity="1" /><path clip-path="url(#clip110)" d="M 0 0 M334.17 1460.92 L338.139 1460.92 L338.139 1465.69 L334.17 1465.69 L334.17 1460.92 Z" fill="#000000" fill-rule="evenodd" fill-opacity="1" /><path clip-path="url(#clip110)" d="M 0 0 M350.382 1440.11 Q347.448 1440.11 345.963 1443.01 Q344.496 1445.89 344.496 1451.68 Q344.496 1457.46 345.963 1460.35 Q347.448 1463.23 350.382 1463.23 Q353.335 1463.23 354.802 1460.35 Q356.288 1457.46 356.288 1451.68 Q356.288 1445.89 354.802 1443.01 Q353.335 1440.11 350.382 1440.11 M350.382 1437.11 Q355.103 1437.11 357.586 1440.85 Q360.087 1444.57 360.087 1451.68 Q360.087 1458.77 357.586 1462.51 Q355.103 1466.24 350.382 1466.24 Q345.662 1466.24 343.16 1462.51 Q340.678 1458.77 340.678 1451.68 Q340.678 1444.57 343.16 1440.85 Q345.662 1437.11 350.382 1437.11 Z" fill="#000000" fill-rule="evenodd" fill-opacity="1" /><path clip-path="url(#clip110)" d="M 0 0 M736.256 1489.17 L743.895 1489.17 L743.895 1462.8 L735.585 1464.47 L735.585 1460.21 L743.849 1458.54 L748.525 1458.54 L748.525 1489.17 L756.164 1489.17 L756.164 1493.1 L736.256 1493.1 L736.256 1489.17 Z" fill="#000000" fill-rule="evenodd" fill-opacity="1" /><path clip-path="url(#clip110)" d="M 0 0 M771.233 1461.62 Q767.622 1461.62 765.793 1465.19 Q763.988 1468.73 763.988 1475.86 Q763.988 1482.97 765.793 1486.53 Q767.622 1490.07 771.233 1490.07 Q774.867 1490.07 776.673 1486.53 Q778.501 1482.97 778.501 1475.86 Q778.501 1468.73 776.673 1465.19 Q774.867 1461.62 771.233 1461.62 M771.233 1457.92 Q777.043 1457.92 780.099 1462.53 Q783.177 1467.11 783.177 1475.86 Q783.177 1484.59 780.099 1489.19 Q777.043 1493.78 771.233 1493.78 Q765.423 1493.78 762.344 1489.19 Q759.289 1484.59 759.289 1475.86 Q759.289 1467.11 762.344 1462.53 Q765.423 1457.92 771.233 1457.92 Z" fill="#000000" fill-rule="evenodd" fill-opacity="1" /><path clip-path="url(#clip110)" d="M 0 0 M783.177 1452.02 L807.289 1452.02 L807.289 1455.22 L783.177 1455.22 L783.177 1452.02 Z" fill="#000000" fill-rule="evenodd" fill-opacity="1" /><path clip-path="url(#clip110)" d="M 0 0 M822.918 1450.55 Q825.645 1451.14 827.169 1452.98 Q828.711 1454.82 828.711 1457.53 Q828.711 1461.69 825.852 1463.96 Q822.993 1466.24 817.727 1466.24 Q815.959 1466.24 814.078 1465.88 Q812.216 1465.54 810.223 1464.85 L810.223 1461.18 Q811.803 1462.1 813.683 1462.57 Q815.564 1463.04 817.614 1463.04 Q821.188 1463.04 823.05 1461.63 Q824.931 1460.22 824.931 1457.53 Q824.931 1455.05 823.181 1453.66 Q821.451 1452.25 818.348 1452.25 L815.075 1452.25 L815.075 1449.12 L818.498 1449.12 Q821.301 1449.12 822.786 1448.01 Q824.272 1446.89 824.272 1444.78 Q824.272 1442.62 822.73 1441.47 Q821.207 1440.3 818.348 1440.3 Q816.787 1440.3 815 1440.64 Q813.213 1440.98 811.069 1441.69 L811.069 1438.31 Q813.232 1437.71 815.113 1437.41 Q817.012 1437.11 818.686 1437.11 Q823.012 1437.11 825.532 1439.08 Q828.053 1441.04 828.053 1444.38 Q828.053 1446.72 826.717 1448.33 Q825.382 1449.93 822.918 1450.55 Z" fill="#000000" fill-rule="evenodd" fill-opacity="1" /><path clip-path="url(#clip110)" d="M 0 0 M832.83 1460.92 L836.798 1460.92 L836.798 1465.69 L832.83 1465.69 L832.83 1460.92 Z" fill="#000000" fill-rule="evenodd" fill-opacity="1" /><path clip-path="url(#clip110)" d="M 0 0 M840.955 1437.61 L855.869 1437.61 L855.869 1440.81 L844.434 1440.81 L844.434 1447.69 Q845.262 1447.41 846.089 1447.28 Q846.917 1447.13 847.744 1447.13 Q852.446 1447.13 855.192 1449.71 Q857.938 1452.28 857.938 1456.68 Q857.938 1461.22 855.117 1463.74 Q852.296 1466.24 847.161 1466.24 Q845.393 1466.24 843.55 1465.94 Q841.726 1465.64 839.77 1465.04 L839.77 1461.22 Q841.463 1462.14 843.268 1462.59 Q845.074 1463.04 847.086 1463.04 Q850.34 1463.04 852.239 1461.33 Q854.139 1459.62 854.139 1456.68 Q854.139 1453.75 852.239 1452.04 Q850.34 1450.33 847.086 1450.33 Q845.563 1450.33 844.039 1450.67 Q842.535 1451 840.955 1451.72 L840.955 1437.61 Z" fill="#000000" fill-rule="evenodd" fill-opacity="1" /><path clip-path="url(#clip110)" d="M 0 0 M1234.57 1489.17 L1242.21 1489.17 L1242.21 1462.8 L1233.9 1464.47 L1233.9 1460.21 L1242.16 1458.54 L1246.84 1458.54 L1246.84 1489.17 L1254.48 1489.17 L1254.48 1493.1 L1234.57 1493.1 L1234.57 1489.17 Z" fill="#000000" fill-rule="evenodd" fill-opacity="1" /><path clip-path="url(#clip110)" d="M 0 0 M1269.54 1461.62 Q1265.93 1461.62 1264.1 1465.19 Q1262.3 1468.73 1262.3 1475.86 Q1262.3 1482.97 1264.1 1486.53 Q1265.93 1490.07 1269.54 1490.07 Q1273.18 1490.07 1274.98 1486.53 Q1276.81 1482.97 1276.81 1475.86 Q1276.81 1468.73 1274.98 1465.19 Q1273.18 1461.62 1269.54 1461.62 M1269.54 1457.92 Q1275.35 1457.92 1278.41 1462.53 Q1281.49 1467.11 1281.49 1475.86 Q1281.49 1484.59 1278.41 1489.19 Q1275.35 1493.78 1269.54 1493.78 Q1263.73 1493.78 1260.66 1489.19 Q1257.6 1484.59 1257.6 1475.86 Q1257.6 1467.11 1260.66 1462.53 Q1263.73 1457.92 1269.54 1457.92 Z" fill="#000000" fill-rule="evenodd" fill-opacity="1" /><path clip-path="url(#clip110)" d="M 0 0 M1281.49 1452.02 L1305.6 1452.02 L1305.6 1455.22 L1281.49 1455.22 L1281.49 1452.02 Z" fill="#000000" fill-rule="evenodd" fill-opacity="1" /><path clip-path="url(#clip110)" d="M 0 0 M1321.23 1450.55 Q1323.96 1451.14 1325.48 1452.98 Q1327.02 1454.82 1327.02 1457.53 Q1327.02 1461.69 1324.16 1463.96 Q1321.31 1466.24 1316.04 1466.24 Q1314.27 1466.24 1312.39 1465.88 Q1310.53 1465.54 1308.53 1464.85 L1308.53 1461.18 Q1310.11 1462.1 1312 1462.57 Q1313.88 1463.04 1315.93 1463.04 Q1319.5 1463.04 1321.36 1461.63 Q1323.24 1460.22 1323.24 1457.53 Q1323.24 1455.05 1321.49 1453.66 Q1319.76 1452.25 1316.66 1452.25 L1313.39 1452.25 L1313.39 1449.12 L1316.81 1449.12 Q1319.61 1449.12 1321.1 1448.01 Q1322.58 1446.89 1322.58 1444.78 Q1322.58 1442.62 1321.04 1441.47 Q1319.52 1440.3 1316.66 1440.3 Q1315.1 1440.3 1313.31 1440.64 Q1311.53 1440.98 1309.38 1441.69 L1309.38 1438.31 Q1311.54 1437.71 1313.42 1437.41 Q1315.32 1437.11 1317 1437.11 Q1321.32 1437.11 1323.84 1439.08 Q1326.36 1441.04 1326.36 1444.38 Q1326.36 1446.72 1325.03 1448.33 Q1323.69 1449.93 1321.23 1450.55 Z" fill="#000000" fill-rule="evenodd" fill-opacity="1" /><path clip-path="url(#clip110)" d="M 0 0 M1331.14 1460.92 L1335.11 1460.92 L1335.11 1465.69 L1331.14 1465.69 L1331.14 1460.92 Z" fill="#000000" fill-rule="evenodd" fill-opacity="1" /><path clip-path="url(#clip110)" d="M 0 0 M1347.35 1440.11 Q1344.42 1440.11 1342.93 1443.01 Q1341.47 1445.89 1341.47 1451.68 Q1341.47 1457.46 1342.93 1460.35 Q1344.42 1463.23 1347.35 1463.23 Q1350.31 1463.23 1351.77 1460.35 Q1353.26 1457.46 1353.26 1451.68 Q1353.26 1445.89 1351.77 1443.01 Q1350.31 1440.11 1347.35 1440.11 M1347.35 1437.11 Q1352.07 1437.11 1354.56 1440.85 Q1357.06 1444.57 1357.06 1451.68 Q1357.06 1458.77 1354.56 1462.51 Q1352.07 1466.24 1347.35 1466.24 Q1342.63 1466.24 1340.13 1462.51 Q1337.65 1458.77 1337.65 1451.68 Q1337.65 1444.57 1340.13 1440.85 Q1342.63 1437.11 1347.35 1437.11 Z" fill="#000000" fill-rule="evenodd" fill-opacity="1" /><path clip-path="url(#clip110)" d="M 0 0 M1734.07 1489.17 L1741.71 1489.17 L1741.71 1462.8 L1733.4 1464.47 L1733.4 1460.21 L1741.67 1458.54 L1746.34 1458.54 L1746.34 1489.17 L1753.98 1489.17 L1753.98 1493.1 L1734.07 1493.1 L1734.07 1489.17 Z" fill="#000000" fill-rule="evenodd" fill-opacity="1" /><path clip-path="url(#clip110)" d="M 0 0 M1769.05 1461.62 Q1765.44 1461.62 1763.61 1465.19 Q1761.81 1468.73 1761.81 1475.86 Q1761.81 1482.97 1763.61 1486.53 Q1765.44 1490.07 1769.05 1490.07 Q1772.68 1490.07 1774.49 1486.53 Q1776.32 1482.97 1776.32 1475.86 Q1776.32 1468.73 1774.49 1465.19 Q1772.68 1461.62 1769.05 1461.62 M1769.05 1457.92 Q1774.86 1457.92 1777.92 1462.53 Q1781 1467.11 1781 1475.86 Q1781 1484.59 1777.92 1489.19 Q1774.86 1493.78 1769.05 1493.78 Q1763.24 1493.78 1760.16 1489.19 Q1757.11 1484.59 1757.11 1475.86 Q1757.11 1467.11 1760.16 1462.53 Q1763.24 1457.92 1769.05 1457.92 Z" fill="#000000" fill-rule="evenodd" fill-opacity="1" /><path clip-path="url(#clip110)" d="M 0 0 M1781 1452.02 L1805.11 1452.02 L1805.11 1455.22 L1781 1455.22 L1781 1452.02 Z" fill="#000000" fill-rule="evenodd" fill-opacity="1" /><path clip-path="url(#clip110)" d="M 0 0 M1812.5 1462.5 L1825.76 1462.5 L1825.76 1465.69 L1807.93 1465.69 L1807.93 1462.5 Q1810.09 1460.26 1813.81 1456.5 Q1817.56 1452.72 1818.52 1451.63 Q1820.34 1449.58 1821.06 1448.16 Q1821.79 1446.74 1821.79 1445.36 Q1821.79 1443.12 1820.21 1441.71 Q1818.65 1440.3 1816.13 1440.3 Q1814.34 1440.3 1812.35 1440.92 Q1810.37 1441.54 1808.12 1442.8 L1808.12 1438.97 Q1810.41 1438.05 1812.4 1437.58 Q1814.4 1437.11 1816.05 1437.11 Q1820.42 1437.11 1823.01 1439.29 Q1825.61 1441.47 1825.61 1445.12 Q1825.61 1446.85 1824.95 1448.41 Q1824.31 1449.95 1822.6 1452.06 Q1822.13 1452.6 1819.61 1455.22 Q1817.09 1457.81 1812.5 1462.5 Z" fill="#000000" fill-rule="evenodd" fill-opacity="1" /><path clip-path="url(#clip110)" d="M 0 0 M1829.88 1460.92 L1833.84 1460.92 L1833.84 1465.69 L1829.88 1465.69 L1829.88 1460.92 Z" fill="#000000" fill-rule="evenodd" fill-opacity="1" /><path clip-path="url(#clip110)" d="M 0 0 M1838 1437.61 L1852.92 1437.61 L1852.92 1440.81 L1841.48 1440.81 L1841.48 1447.69 Q1842.31 1447.41 1843.14 1447.28 Q1843.96 1447.13 1844.79 1447.13 Q1849.49 1447.13 1852.24 1449.71 Q1854.98 1452.28 1854.98 1456.68 Q1854.98 1461.22 1852.16 1463.74 Q1849.34 1466.24 1844.21 1466.24 Q1842.44 1466.24 1840.6 1465.94 Q1838.77 1465.64 1836.82 1465.04 L1836.82 1461.22 Q1838.51 1462.14 1840.31 1462.59 Q1842.12 1463.04 1844.13 1463.04 Q1847.39 1463.04 1849.29 1461.33 Q1851.19 1459.62 1851.19 1456.68 Q1851.19 1453.75 1849.29 1452.04 Q1847.39 1450.33 1844.13 1450.33 Q1842.61 1450.33 1841.09 1450.67 Q1839.58 1451 1838 1451.72 L1838 1437.61 Z" fill="#000000" fill-rule="evenodd" fill-opacity="1" /><path clip-path="url(#clip110)" d="M 0 0 M2232.39 1489.17 L2240.02 1489.17 L2240.02 1462.8 L2231.71 1464.47 L2231.71 1460.21 L2239.98 1458.54 L2244.65 1458.54 L2244.65 1489.17 L2252.29 1489.17 L2252.29 1493.1 L2232.39 1493.1 L2232.39 1489.17 Z" fill="#000000" fill-rule="evenodd" fill-opacity="1" /><path clip-path="url(#clip110)" d="M 0 0 M2267.36 1461.62 Q2263.75 1461.62 2261.92 1465.19 Q2260.12 1468.73 2260.12 1475.86 Q2260.12 1482.97 2261.92 1486.53 Q2263.75 1490.07 2267.36 1490.07 Q2271 1490.07 2272.8 1486.53 Q2274.63 1482.97 2274.63 1475.86 Q2274.63 1468.73 2272.8 1465.19 Q2271 1461.62 2267.36 1461.62 M2267.36 1457.92 Q2273.17 1457.92 2276.23 1462.53 Q2279.31 1467.11 2279.31 1475.86 Q2279.31 1484.59 2276.23 1489.19 Q2273.17 1493.78 2267.36 1493.78 Q2261.55 1493.78 2258.47 1489.19 Q2255.42 1484.59 2255.42 1475.86 Q2255.42 1467.11 2258.47 1462.53 Q2261.55 1457.92 2267.36 1457.92 Z" fill="#000000" fill-rule="evenodd" fill-opacity="1" /><path clip-path="url(#clip110)" d="M 0 0 M2279.31 1452.02 L2303.42 1452.02 L2303.42 1455.22 L2279.31 1455.22 L2279.31 1452.02 Z" fill="#000000" fill-rule="evenodd" fill-opacity="1" /><path clip-path="url(#clip110)" d="M 0 0 M2310.81 1462.5 L2324.07 1462.5 L2324.07 1465.69 L2306.24 1465.69 L2306.24 1462.5 Q2308.4 1460.26 2312.13 1456.5 Q2315.87 1452.72 2316.83 1451.63 Q2318.65 1449.58 2319.37 1448.16 Q2320.1 1446.74 2320.1 1445.36 Q2320.1 1443.12 2318.52 1441.71 Q2316.96 1440.3 2314.44 1440.3 Q2312.65 1440.3 2310.66 1440.92 Q2308.68 1441.54 2306.43 1442.8 L2306.43 1438.97 Q2308.72 1438.05 2310.72 1437.58 Q2312.71 1437.11 2314.36 1437.11 Q2318.73 1437.11 2321.32 1439.29 Q2323.92 1441.47 2323.92 1445.12 Q2323.92 1446.85 2323.26 1448.41 Q2322.62 1449.95 2320.91 1452.06 Q2320.44 1452.6 2317.92 1455.22 Q2315.4 1457.81 2310.81 1462.5 Z" fill="#000000" fill-rule="evenodd" fill-opacity="1" /><path clip-path="url(#clip110)" d="M 0 0 M2328.19 1460.92 L2332.16 1460.92 L2332.16 1465.69 L2328.19 1465.69 L2328.19 1460.92 Z" fill="#000000" fill-rule="evenodd" fill-opacity="1" /><path clip-path="url(#clip110)" d="M 0 0 M2344.4 1440.11 Q2341.47 1440.11 2339.98 1443.01 Q2338.51 1445.89 2338.51 1451.68 Q2338.51 1457.46 2339.98 1460.35 Q2341.47 1463.23 2344.4 1463.23 Q2347.35 1463.23 2348.82 1460.35 Q2350.31 1457.46 2350.31 1451.68 Q2350.31 1445.89 2348.82 1443.01 Q2347.35 1440.11 2344.4 1440.11 M2344.4 1437.11 Q2349.12 1437.11 2351.6 1440.85 Q2354.11 1444.57 2354.11 1451.68 Q2354.11 1458.77 2351.6 1462.51 Q2349.12 1466.24 2344.4 1466.24 Q2339.68 1466.24 2337.18 1462.51 Q2334.7 1458.77 2334.7 1451.68 Q2334.7 1444.57 2337.18 1440.85 Q2339.68 1437.11 2344.4 1437.11 Z" fill="#000000" fill-rule="evenodd" fill-opacity="1" /><path clip-path="url(#clip110)" d="M 0 0 M1227 1512.66 L1232.89 1512.66 L1232.89 1541.91 L1250.36 1526.54 L1257.84 1526.54 L1238.93 1543.22 L1258.64 1562.19 L1251 1562.19 L1232.89 1544.78 L1232.89 1562.19 L1227 1562.19 L1227 1512.66 Z" fill="#000000" fill-rule="evenodd" fill-opacity="1" /><path clip-path="url(#clip110)" d="M 0 0 M1291.87 1573.01 L1291.87 1577.56 L1258 1577.56 L1258 1573.01 L1291.87 1573.01 Z" fill="#000000" fill-rule="evenodd" fill-opacity="1" /><path clip-path="url(#clip110)" d="M 0 0 M1311.82 1530.64 Q1307.11 1530.64 1304.37 1534.34 Q1301.64 1538 1301.64 1544.39 Q1301.64 1550.79 1304.34 1554.48 Q1307.08 1558.14 1311.82 1558.14 Q1316.5 1558.14 1319.24 1554.45 Q1321.97 1550.76 1321.97 1544.39 Q1321.97 1538.06 1319.24 1534.37 Q1316.5 1530.64 1311.82 1530.64 M1311.82 1525.68 Q1319.46 1525.68 1323.82 1530.64 Q1328.18 1535.61 1328.18 1544.39 Q1328.18 1553.15 1323.82 1558.14 Q1319.46 1563.11 1311.82 1563.11 Q1304.15 1563.11 1299.79 1558.14 Q1295.46 1553.15 1295.46 1544.39 Q1295.46 1535.61 1299.79 1530.64 Q1304.15 1525.68 1311.82 1525.68 Z" fill="#000000" fill-rule="evenodd" fill-opacity="1" /><path clip-path="url(#clip110)" d="M 0 0 M1363.96 1540.67 L1363.96 1562.19 L1358.1 1562.19 L1358.1 1540.86 Q1358.1 1535.8 1356.13 1533.29 Q1354.15 1530.77 1350.21 1530.77 Q1345.46 1530.77 1342.73 1533.79 Q1339.99 1536.82 1339.99 1542.04 L1339.99 1562.19 L1334.1 1562.19 L1334.1 1526.54 L1339.99 1526.54 L1339.99 1532.08 Q1342.09 1528.86 1344.92 1527.27 Q1347.79 1525.68 1351.51 1525.68 Q1357.65 1525.68 1360.81 1529.5 Q1363.96 1533.29 1363.96 1540.67 Z" fill="#000000" fill-rule="evenodd" fill-opacity="1" /><polyline clip-path="url(#clip112)" style="stroke:#000000; stroke-width:2; stroke-opacity:0.1; fill:none" points="
  238.2,1246.03 2352.76,1246.03 
  "/>
<polyline clip-path="url(#clip112)" style="stroke:#000000; stroke-width:2; stroke-opacity:0.1; fill:none" points="
  238.2,1064 2352.76,1064 
  "/>
<polyline clip-path="url(#clip112)" style="stroke:#000000; stroke-width:2; stroke-opacity:0.1; fill:none" points="
  238.2,881.981 2352.76,881.981 
  "/>
<polyline clip-path="url(#clip112)" style="stroke:#000000; stroke-width:2; stroke-opacity:0.1; fill:none" points="
  238.2,699.958 2352.76,699.958 
  "/>
<polyline clip-path="url(#clip112)" style="stroke:#000000; stroke-width:2; stroke-opacity:0.1; fill:none" points="
  238.2,517.934 2352.76,517.934 
  "/>
<polyline clip-path="url(#clip112)" style="stroke:#000000; stroke-width:2; stroke-opacity:0.1; fill:none" points="
  238.2,335.911 2352.76,335.911 
  "/>
<polyline clip-path="url(#clip112)" style="stroke:#000000; stroke-width:2; stroke-opacity:0.1; fill:none" points="
  238.2,153.887 2352.76,153.887 
  "/>
<polyline clip-path="url(#clip110)" style="stroke:#000000; stroke-width:4; stroke-opacity:1; fill:none" points="
  238.2,1410.9 238.2,47.2441 
  "/>
<polyline clip-path="url(#clip110)" style="stroke:#000000; stroke-width:4; stroke-opacity:1; fill:none" points="
  238.2,1246.03 263.574,1246.03 
  "/>
<polyline clip-path="url(#clip110)" style="stroke:#000000; stroke-width:4; stroke-opacity:1; fill:none" points="
  238.2,1064 263.574,1064 
  "/>
<polyline clip-path="url(#clip110)" style="stroke:#000000; stroke-width:4; stroke-opacity:1; fill:none" points="
  238.2,881.981 263.574,881.981 
  "/>
<polyline clip-path="url(#clip110)" style="stroke:#000000; stroke-width:4; stroke-opacity:1; fill:none" points="
  238.2,699.958 263.574,699.958 
  "/>
<polyline clip-path="url(#clip110)" style="stroke:#000000; stroke-width:4; stroke-opacity:1; fill:none" points="
  238.2,517.934 263.574,517.934 
  "/>
<polyline clip-path="url(#clip110)" style="stroke:#000000; stroke-width:4; stroke-opacity:1; fill:none" points="
  238.2,335.911 263.574,335.911 
  "/>
<polyline clip-path="url(#clip110)" style="stroke:#000000; stroke-width:4; stroke-opacity:1; fill:none" points="
  238.2,153.887 263.574,153.887 
  "/>
<path clip-path="url(#clip110)" d="M 0 0 M126.205 1231.83 Q122.593 1231.83 120.765 1235.39 Q118.959 1238.93 118.959 1246.06 Q118.959 1253.17 120.765 1256.73 Q122.593 1260.28 126.205 1260.28 Q129.839 1260.28 131.644 1256.73 Q133.473 1253.17 133.473 1246.06 Q133.473 1238.93 131.644 1235.39 Q129.839 1231.83 126.205 1231.83 M126.205 1228.12 Q132.015 1228.12 135.07 1232.73 Q138.149 1237.31 138.149 1246.06 Q138.149 1254.79 135.07 1259.4 Q132.015 1263.98 126.205 1263.98 Q120.394 1263.98 117.316 1259.4 Q114.26 1254.79 114.26 1246.06 Q114.26 1237.31 117.316 1232.73 Q120.394 1228.12 126.205 1228.12 Z" fill="#000000" fill-rule="evenodd" fill-opacity="1" /><path clip-path="url(#clip110)" d="M 0 0 M143.218 1257.43 L148.103 1257.43 L148.103 1263.31 L143.218 1263.31 L143.218 1257.43 Z" fill="#000000" fill-rule="evenodd" fill-opacity="1" /><path clip-path="url(#clip110)" d="M 0 0 M163.751 1244.16 Q160.603 1244.16 158.751 1246.32 Q156.922 1248.47 156.922 1252.22 Q156.922 1255.95 158.751 1258.12 Q160.603 1260.28 163.751 1260.28 Q166.899 1260.28 168.727 1258.12 Q170.579 1255.95 170.579 1252.22 Q170.579 1248.47 168.727 1246.32 Q166.899 1244.16 163.751 1244.16 M173.033 1229.51 L173.033 1233.77 Q171.274 1232.94 169.468 1232.5 Q167.686 1232.06 165.927 1232.06 Q161.297 1232.06 158.843 1235.18 Q156.413 1238.31 156.065 1244.63 Q157.431 1242.61 159.491 1241.55 Q161.552 1240.46 164.028 1240.46 Q169.237 1240.46 172.246 1243.63 Q175.278 1246.78 175.278 1252.22 Q175.278 1257.54 172.13 1260.76 Q168.982 1263.98 163.751 1263.98 Q157.755 1263.98 154.584 1259.4 Q151.413 1254.79 151.413 1246.06 Q151.413 1237.87 155.302 1233.01 Q159.19 1228.12 165.741 1228.12 Q167.501 1228.12 169.283 1228.47 Q171.089 1228.82 173.033 1229.51 Z" fill="#000000" fill-rule="evenodd" fill-opacity="1" /><path clip-path="url(#clip110)" d="M 0 0 M190.348 1246.9 Q187.014 1246.9 185.093 1248.68 Q183.195 1250.46 183.195 1253.59 Q183.195 1256.71 185.093 1258.49 Q187.014 1260.28 190.348 1260.28 Q193.681 1260.28 195.602 1258.49 Q197.524 1256.69 197.524 1253.59 Q197.524 1250.46 195.602 1248.68 Q193.704 1246.9 190.348 1246.9 M185.672 1244.91 Q182.663 1244.16 180.973 1242.1 Q179.306 1240.04 179.306 1237.08 Q179.306 1232.94 182.246 1230.53 Q185.209 1228.12 190.348 1228.12 Q195.51 1228.12 198.45 1230.53 Q201.389 1232.94 201.389 1237.08 Q201.389 1240.04 199.7 1242.1 Q198.033 1244.16 195.047 1244.91 Q198.426 1245.69 200.301 1247.98 Q202.2 1250.28 202.2 1253.59 Q202.2 1258.61 199.121 1261.29 Q196.065 1263.98 190.348 1263.98 Q184.63 1263.98 181.551 1261.29 Q178.496 1258.61 178.496 1253.59 Q178.496 1250.28 180.394 1247.98 Q182.292 1245.69 185.672 1244.91 M183.959 1237.52 Q183.959 1240.21 185.626 1241.71 Q187.315 1243.22 190.348 1243.22 Q193.357 1243.22 195.047 1241.71 Q196.76 1240.21 196.76 1237.52 Q196.76 1234.84 195.047 1233.33 Q193.357 1231.83 190.348 1231.83 Q187.315 1231.83 185.626 1233.33 Q183.959 1234.84 183.959 1237.52 Z" fill="#000000" fill-rule="evenodd" fill-opacity="1" /><path clip-path="url(#clip110)" d="M 0 0 M127.177 1049.8 Q123.566 1049.8 121.737 1053.37 Q119.931 1056.91 119.931 1064.04 Q119.931 1071.15 121.737 1074.71 Q123.566 1078.25 127.177 1078.25 Q130.811 1078.25 132.617 1074.71 Q134.445 1071.15 134.445 1064.04 Q134.445 1056.91 132.617 1053.37 Q130.811 1049.8 127.177 1049.8 M127.177 1046.1 Q132.987 1046.1 136.042 1050.71 Q139.121 1055.29 139.121 1064.04 Q139.121 1072.77 136.042 1077.37 Q132.987 1081.96 127.177 1081.96 Q121.367 1081.96 118.288 1077.37 Q115.232 1072.77 115.232 1064.04 Q115.232 1055.29 118.288 1050.71 Q121.367 1046.1 127.177 1046.1 Z" fill="#000000" fill-rule="evenodd" fill-opacity="1" /><path clip-path="url(#clip110)" d="M 0 0 M144.191 1075.41 L149.075 1075.41 L149.075 1081.28 L144.191 1081.28 L144.191 1075.41 Z" fill="#000000" fill-rule="evenodd" fill-opacity="1" /><path clip-path="url(#clip110)" d="M 0 0 M152.964 1046.72 L175.186 1046.72 L175.186 1048.72 L162.64 1081.28 L157.755 1081.28 L169.561 1050.66 L152.964 1050.66 L152.964 1046.72 Z" fill="#000000" fill-rule="evenodd" fill-opacity="1" /><path clip-path="url(#clip110)" d="M 0 0 M190.255 1049.8 Q186.644 1049.8 184.815 1053.37 Q183.01 1056.91 183.01 1064.04 Q183.01 1071.15 184.815 1074.71 Q186.644 1078.25 190.255 1078.25 Q193.889 1078.25 195.695 1074.71 Q197.524 1071.15 197.524 1064.04 Q197.524 1056.91 195.695 1053.37 Q193.889 1049.8 190.255 1049.8 M190.255 1046.1 Q196.065 1046.1 199.121 1050.71 Q202.2 1055.29 202.2 1064.04 Q202.2 1072.77 199.121 1077.37 Q196.065 1081.96 190.255 1081.96 Q184.445 1081.96 181.366 1077.37 Q178.311 1072.77 178.311 1064.04 Q178.311 1055.29 181.366 1050.71 Q184.445 1046.1 190.255 1046.1 Z" fill="#000000" fill-rule="evenodd" fill-opacity="1" /><path clip-path="url(#clip110)" d="M 0 0 M128.774 867.78 Q125.163 867.78 123.334 871.345 Q121.529 874.886 121.529 882.016 Q121.529 889.122 123.334 892.687 Q125.163 896.229 128.774 896.229 Q132.408 896.229 134.214 892.687 Q136.042 889.122 136.042 882.016 Q136.042 874.886 134.214 871.345 Q132.408 867.78 128.774 867.78 M128.774 864.076 Q134.584 864.076 137.64 868.683 Q140.718 873.266 140.718 882.016 Q140.718 890.743 137.64 895.349 Q134.584 899.933 128.774 899.933 Q122.964 899.933 119.885 895.349 Q116.83 890.743 116.83 882.016 Q116.83 873.266 119.885 868.683 Q122.964 864.076 128.774 864.076 Z" fill="#000000" fill-rule="evenodd" fill-opacity="1" /><path clip-path="url(#clip110)" d="M 0 0 M145.788 893.382 L150.672 893.382 L150.672 899.261 L145.788 899.261 L145.788 893.382 Z" fill="#000000" fill-rule="evenodd" fill-opacity="1" /><path clip-path="url(#clip110)" d="M 0 0 M154.561 864.701 L176.783 864.701 L176.783 866.692 L164.237 899.261 L159.353 899.261 L171.158 868.636 L154.561 868.636 L154.561 864.701 Z" fill="#000000" fill-rule="evenodd" fill-opacity="1" /><path clip-path="url(#clip110)" d="M 0 0 M185.88 895.326 L202.2 895.326 L202.2 899.261 L180.255 899.261 L180.255 895.326 Q182.917 892.572 187.501 887.942 Q192.107 883.289 193.288 881.947 Q195.533 879.423 196.412 877.687 Q197.315 875.928 197.315 874.238 Q197.315 871.484 195.371 869.748 Q193.45 868.012 190.348 868.012 Q188.149 868.012 185.695 868.775 Q183.264 869.539 180.487 871.09 L180.487 866.368 Q183.311 865.234 185.764 864.655 Q188.218 864.076 190.255 864.076 Q195.625 864.076 198.82 866.762 Q202.014 869.447 202.014 873.937 Q202.014 876.067 201.204 877.988 Q200.417 879.886 198.311 882.479 Q197.732 883.15 194.63 886.368 Q191.528 889.562 185.88 895.326 Z" fill="#000000" fill-rule="evenodd" fill-opacity="1" /><path clip-path="url(#clip110)" d="M 0 0 M126.691 685.757 Q123.08 685.757 121.251 689.321 Q119.445 692.863 119.445 699.993 Q119.445 707.099 121.251 710.664 Q123.08 714.205 126.691 714.205 Q130.325 714.205 132.13 710.664 Q133.959 707.099 133.959 699.993 Q133.959 692.863 132.13 689.321 Q130.325 685.757 126.691 685.757 M126.691 682.053 Q132.501 682.053 135.556 686.659 Q138.635 691.243 138.635 699.993 Q138.635 708.719 135.556 713.326 Q132.501 717.909 126.691 717.909 Q120.88 717.909 117.802 713.326 Q114.746 708.719 114.746 699.993 Q114.746 691.243 117.802 686.659 Q120.88 682.053 126.691 682.053 Z" fill="#000000" fill-rule="evenodd" fill-opacity="1" /><path clip-path="url(#clip110)" d="M 0 0 M143.704 711.358 L148.589 711.358 L148.589 717.238 L143.704 717.238 L143.704 711.358 Z" fill="#000000" fill-rule="evenodd" fill-opacity="1" /><path clip-path="url(#clip110)" d="M 0 0 M152.478 682.678 L174.7 682.678 L174.7 684.669 L162.153 717.238 L157.269 717.238 L169.075 686.613 L152.478 686.613 L152.478 682.678 Z" fill="#000000" fill-rule="evenodd" fill-opacity="1" /><path clip-path="url(#clip110)" d="M 0 0 M192.616 686.752 L180.811 705.201 L192.616 705.201 L192.616 686.752 M191.389 682.678 L197.269 682.678 L197.269 705.201 L202.2 705.201 L202.2 709.09 L197.269 709.09 L197.269 717.238 L192.616 717.238 L192.616 709.09 L177.014 709.09 L177.014 704.576 L191.389 682.678 Z" fill="#000000" fill-rule="evenodd" fill-opacity="1" /><path clip-path="url(#clip110)" d="M 0 0 M127.015 503.733 Q123.404 503.733 121.575 507.298 Q119.769 510.84 119.769 517.969 Q119.769 525.076 121.575 528.64 Q123.404 532.182 127.015 532.182 Q130.649 532.182 132.455 528.64 Q134.283 525.076 134.283 517.969 Q134.283 510.84 132.455 507.298 Q130.649 503.733 127.015 503.733 M127.015 500.029 Q132.825 500.029 135.88 504.636 Q138.959 509.219 138.959 517.969 Q138.959 526.696 135.88 531.302 Q132.825 535.886 127.015 535.886 Q121.205 535.886 118.126 531.302 Q115.07 526.696 115.07 517.969 Q115.07 509.219 118.126 504.636 Q121.205 500.029 127.015 500.029 Z" fill="#000000" fill-rule="evenodd" fill-opacity="1" /><path clip-path="url(#clip110)" d="M 0 0 M144.029 529.335 L148.913 529.335 L148.913 535.214 L144.029 535.214 L144.029 529.335 Z" fill="#000000" fill-rule="evenodd" fill-opacity="1" /><path clip-path="url(#clip110)" d="M 0 0 M152.802 500.654 L175.024 500.654 L175.024 502.645 L162.477 535.214 L157.593 535.214 L169.399 504.59 L152.802 504.59 L152.802 500.654 Z" fill="#000000" fill-rule="evenodd" fill-opacity="1" /><path clip-path="url(#clip110)" d="M 0 0 M190.672 516.071 Q187.524 516.071 185.672 518.224 Q183.843 520.377 183.843 524.127 Q183.843 527.853 185.672 530.029 Q187.524 532.182 190.672 532.182 Q193.82 532.182 195.649 530.029 Q197.5 527.853 197.5 524.127 Q197.5 520.377 195.649 518.224 Q193.82 516.071 190.672 516.071 M199.954 501.418 L199.954 505.678 Q198.195 504.844 196.389 504.404 Q194.607 503.965 192.848 503.965 Q188.218 503.965 185.764 507.09 Q183.334 510.215 182.987 516.534 Q184.352 514.52 186.413 513.455 Q188.473 512.367 190.95 512.367 Q196.158 512.367 199.167 515.539 Q202.2 518.687 202.2 524.127 Q202.2 529.451 199.051 532.668 Q195.903 535.886 190.672 535.886 Q184.676 535.886 181.505 531.302 Q178.334 526.696 178.334 517.969 Q178.334 509.775 182.223 504.914 Q186.112 500.029 192.663 500.029 Q194.422 500.029 196.204 500.377 Q198.01 500.724 199.954 501.418 Z" fill="#000000" fill-rule="evenodd" fill-opacity="1" /><path clip-path="url(#clip110)" d="M 0 0 M127.269 321.71 Q123.658 321.71 121.83 325.274 Q120.024 328.816 120.024 335.946 Q120.024 343.052 121.83 346.617 Q123.658 350.159 127.269 350.159 Q130.904 350.159 132.709 346.617 Q134.538 343.052 134.538 335.946 Q134.538 328.816 132.709 325.274 Q130.904 321.71 127.269 321.71 M127.269 318.006 Q133.08 318.006 136.135 322.612 Q139.214 327.196 139.214 335.946 Q139.214 344.672 136.135 349.279 Q133.08 353.862 127.269 353.862 Q121.459 353.862 118.381 349.279 Q115.325 344.672 115.325 335.946 Q115.325 327.196 118.381 322.612 Q121.459 318.006 127.269 318.006 Z" fill="#000000" fill-rule="evenodd" fill-opacity="1" /><path clip-path="url(#clip110)" d="M 0 0 M144.283 347.311 L149.167 347.311 L149.167 353.191 L144.283 353.191 L144.283 347.311 Z" fill="#000000" fill-rule="evenodd" fill-opacity="1" /><path clip-path="url(#clip110)" d="M 0 0 M153.056 318.631 L175.278 318.631 L175.278 320.622 L162.732 353.191 L157.848 353.191 L169.653 322.566 L153.056 322.566 L153.056 318.631 Z" fill="#000000" fill-rule="evenodd" fill-opacity="1" /><path clip-path="url(#clip110)" d="M 0 0 M190.348 336.779 Q187.014 336.779 185.093 338.561 Q183.195 340.344 183.195 343.469 Q183.195 346.594 185.093 348.376 Q187.014 350.159 190.348 350.159 Q193.681 350.159 195.602 348.376 Q197.524 346.571 197.524 343.469 Q197.524 340.344 195.602 338.561 Q193.704 336.779 190.348 336.779 M185.672 334.788 Q182.663 334.048 180.973 331.987 Q179.306 329.927 179.306 326.964 Q179.306 322.821 182.246 320.413 Q185.209 318.006 190.348 318.006 Q195.51 318.006 198.45 320.413 Q201.389 322.821 201.389 326.964 Q201.389 329.927 199.7 331.987 Q198.033 334.048 195.047 334.788 Q198.426 335.575 200.301 337.867 Q202.2 340.159 202.2 343.469 Q202.2 348.492 199.121 351.177 Q196.065 353.862 190.348 353.862 Q184.63 353.862 181.551 351.177 Q178.496 348.492 178.496 343.469 Q178.496 340.159 180.394 337.867 Q182.292 335.575 185.672 334.788 M183.959 327.404 Q183.959 330.089 185.626 331.594 Q187.315 333.098 190.348 333.098 Q193.357 333.098 195.047 331.594 Q196.76 330.089 196.76 327.404 Q196.76 324.719 195.047 323.214 Q193.357 321.71 190.348 321.71 Q187.315 321.71 185.626 323.214 Q183.959 324.719 183.959 327.404 Z" fill="#000000" fill-rule="evenodd" fill-opacity="1" /><path clip-path="url(#clip110)" d="M 0 0 M126.367 139.686 Q122.755 139.686 120.927 143.251 Q119.121 146.793 119.121 153.922 Q119.121 161.029 120.927 164.593 Q122.755 168.135 126.367 168.135 Q130.001 168.135 131.806 164.593 Q133.635 161.029 133.635 153.922 Q133.635 146.793 131.806 143.251 Q130.001 139.686 126.367 139.686 M126.367 135.982 Q132.177 135.982 135.232 140.589 Q138.311 145.172 138.311 153.922 Q138.311 162.649 135.232 167.255 Q132.177 171.839 126.367 171.839 Q120.556 171.839 117.478 167.255 Q114.422 162.649 114.422 153.922 Q114.422 145.172 117.478 140.589 Q120.556 135.982 126.367 135.982 Z" fill="#000000" fill-rule="evenodd" fill-opacity="1" /><path clip-path="url(#clip110)" d="M 0 0 M143.38 165.288 L148.265 165.288 L148.265 171.167 L143.38 171.167 L143.38 165.288 Z" fill="#000000" fill-rule="evenodd" fill-opacity="1" /><path clip-path="url(#clip110)" d="M 0 0 M163.334 154.756 Q160.001 154.756 158.079 156.538 Q156.181 158.32 156.181 161.445 Q156.181 164.57 158.079 166.353 Q160.001 168.135 163.334 168.135 Q166.667 168.135 168.589 166.353 Q170.51 164.547 170.51 161.445 Q170.51 158.32 168.589 156.538 Q166.69 154.756 163.334 154.756 M158.658 152.765 Q155.649 152.024 153.959 149.964 Q152.292 147.904 152.292 144.941 Q152.292 140.797 155.232 138.39 Q158.195 135.982 163.334 135.982 Q168.496 135.982 171.436 138.39 Q174.376 140.797 174.376 144.941 Q174.376 147.904 172.686 149.964 Q171.019 152.024 168.033 152.765 Q171.413 153.552 173.288 155.843 Q175.186 158.135 175.186 161.445 Q175.186 166.468 172.107 169.154 Q169.052 171.839 163.334 171.839 Q157.616 171.839 154.538 169.154 Q151.482 166.468 151.482 161.445 Q151.482 158.135 153.38 155.843 Q155.278 153.552 158.658 152.765 M156.945 145.381 Q156.945 148.066 158.612 149.57 Q160.302 151.075 163.334 151.075 Q166.343 151.075 168.033 149.57 Q169.746 148.066 169.746 145.381 Q169.746 142.695 168.033 141.191 Q166.343 139.686 163.334 139.686 Q160.302 139.686 158.612 141.191 Q156.945 142.695 156.945 145.381 Z" fill="#000000" fill-rule="evenodd" fill-opacity="1" /><path clip-path="url(#clip110)" d="M 0 0 M190.255 139.686 Q186.644 139.686 184.815 143.251 Q183.01 146.793 183.01 153.922 Q183.01 161.029 184.815 164.593 Q186.644 168.135 190.255 168.135 Q193.889 168.135 195.695 164.593 Q197.524 161.029 197.524 153.922 Q197.524 146.793 195.695 143.251 Q193.889 139.686 190.255 139.686 M190.255 135.982 Q196.065 135.982 199.121 140.589 Q202.2 145.172 202.2 153.922 Q202.2 162.649 199.121 167.255 Q196.065 171.839 190.255 171.839 Q184.445 171.839 181.366 167.255 Q178.311 162.649 178.311 153.922 Q178.311 145.172 181.366 140.589 Q184.445 135.982 190.255 135.982 Z" fill="#000000" fill-rule="evenodd" fill-opacity="1" /><path clip-path="url(#clip110)" d="M 0 0 M59.1993 815.533 Q55.2526 813.336 53.3747 810.281 Q51.4968 807.225 51.4968 803.088 Q51.4968 797.518 55.4117 794.494 Q59.2948 791.47 66.4881 791.47 L88.0042 791.47 L88.0042 797.358 L66.679 797.358 Q61.5546 797.358 59.072 799.173 Q56.5894 800.987 56.5894 804.711 Q56.5894 809.262 59.6131 811.904 Q62.6368 814.546 67.8567 814.546 L88.0042 814.546 L88.0042 820.434 L66.679 820.434 Q61.5228 820.434 59.072 822.248 Q56.5894 824.063 56.5894 827.85 Q56.5894 832.338 59.6449 834.98 Q62.6686 837.622 67.8567 837.622 L88.0042 837.622 L88.0042 843.51 L52.3562 843.51 L52.3562 837.622 L57.8944 837.622 Q54.616 835.616 53.0564 832.815 Q51.4968 830.015 51.4968 826.163 Q51.4968 822.28 53.4702 819.575 Q55.4436 816.838 59.1993 815.533 Z" fill="#000000" fill-rule="evenodd" fill-opacity="1" /><path clip-path="url(#clip110)" d="M 0 0 M52.3562 785.327 L52.3562 779.471 L88.0042 779.471 L88.0042 785.327 L52.3562 785.327 M38.479 785.327 L38.479 779.471 L45.895 779.471 L45.895 785.327 L38.479 785.327 Z" fill="#000000" fill-rule="evenodd" fill-opacity="1" /><path clip-path="url(#clip110)" d="M 0 0 M66.4881 743.696 L88.0042 743.696 L88.0042 749.552 L66.679 749.552 Q61.6183 749.552 59.1038 751.525 Q56.5894 753.499 56.5894 757.446 Q56.5894 762.188 59.6131 764.925 Q62.6368 767.662 67.8567 767.662 L88.0042 767.662 L88.0042 773.551 L52.3562 773.551 L52.3562 767.662 L57.8944 767.662 Q54.6797 765.562 53.0883 762.729 Q51.4968 759.864 51.4968 756.141 Q51.4968 749.998 55.3163 746.847 Q59.1038 743.696 66.4881 743.696 Z" fill="#000000" fill-rule="evenodd" fill-opacity="1" /><path clip-path="url(#clip110)" d="M 0 0 M98.8259 710.467 L103.377 710.467 L103.377 744.332 L98.8259 744.332 L98.8259 710.467 Z" fill="#000000" fill-rule="evenodd" fill-opacity="1" /><path clip-path="url(#clip110)" d="M 0 0 M57.7671 680.866 L38.479 680.866 L38.479 675.01 L88.0042 675.01 L88.0042 680.866 L82.657 680.866 Q85.8398 682.712 87.3994 685.545 Q88.9272 688.346 88.9272 692.292 Q88.9272 698.754 83.771 702.828 Q78.6147 706.87 70.212 706.87 Q61.8093 706.87 56.6531 702.828 Q51.4968 698.754 51.4968 692.292 Q51.4968 688.346 53.0564 685.545 Q54.5842 682.712 57.7671 680.866 M70.212 700.823 Q76.6732 700.823 80.3653 698.181 Q84.0256 695.507 84.0256 690.86 Q84.0256 686.213 80.3653 683.54 Q76.6732 680.866 70.212 680.866 Q63.7508 680.866 60.0905 683.54 Q56.3984 686.213 56.3984 690.86 Q56.3984 695.507 60.0905 698.181 Q63.7508 700.823 70.212 700.823 Z" fill="#000000" fill-rule="evenodd" fill-opacity="1" /><path clip-path="url(#clip110)" d="M 0 0 M52.3562 668.867 L52.3562 663.01 L88.0042 663.01 L88.0042 668.867 L52.3562 668.867 M38.479 668.867 L38.479 663.01 L45.895 663.01 L45.895 668.867 L38.479 668.867 Z" fill="#000000" fill-rule="evenodd" fill-opacity="1" /><path clip-path="url(#clip110)" d="M 0 0 M38.479 638.821 L43.3487 638.821 L43.3487 644.422 Q43.3487 647.573 44.6219 648.815 Q45.895 650.024 49.2052 650.024 L52.3562 650.024 L52.3562 640.38 L56.9077 640.38 L56.9077 650.024 L88.0042 650.024 L88.0042 655.912 L56.9077 655.912 L56.9077 661.514 L52.3562 661.514 L52.3562 655.912 L49.8736 655.912 Q43.9216 655.912 41.2162 653.143 Q38.479 650.374 38.479 644.359 L38.479 638.821 Z" fill="#000000" fill-rule="evenodd" fill-opacity="1" /><path clip-path="url(#clip110)" d="M 0 0 M38.479 614.631 L43.3487 614.631 L43.3487 620.233 Q43.3487 623.384 44.6219 624.625 Q45.895 625.835 49.2052 625.835 L52.3562 625.835 L52.3562 616.19 L56.9077 616.19 L56.9077 625.835 L88.0042 625.835 L88.0042 631.723 L56.9077 631.723 L56.9077 637.325 L52.3562 637.325 L52.3562 631.723 L49.8736 631.723 Q43.9216 631.723 41.2162 628.954 Q38.479 626.185 38.479 620.169 L38.479 614.631 Z" fill="#000000" fill-rule="evenodd" fill-opacity="1" /><polyline clip-path="url(#clip112)" style="stroke:#009af9; stroke-width:20; stroke-opacity:1; fill:none" stroke-dasharray="80, 50" points="
  298.045,85.838 1295.48,946.676 2292.91,1372.3 
  "/>
<path clip-path="url(#clip110)" d="
M1996.3 213.659 L2282.27 213.659 L2282.27 92.6992 L1996.3 92.6992  Z
  " fill="#ffffff" fill-rule="evenodd" fill-opacity="1"/>
<polyline clip-path="url(#clip110)" style="stroke:#000000; stroke-width:4; stroke-opacity:1; fill:none" points="
  1996.3,213.659 2282.27,213.659 2282.27,92.6992 1996.3,92.6992 1996.3,213.659 
  "/>
<polyline clip-path="url(#clip110)" style="stroke:#009af9; stroke-width:4; stroke-opacity:1; fill:none" stroke-dasharray="16, 10" points="
  2019.8,153.179 2160.77,153.179 
  "/>
<path clip-path="url(#clip110)" d="M 0 0 M2198.1 172.867 Q2196.3 177.496 2194.59 178.908 Q2192.87 180.32 2190 180.32 L2186.6 180.32 L2186.6 176.755 L2189.1 176.755 Q2190.86 176.755 2191.83 175.922 Q2192.8 175.089 2193.98 171.987 L2194.75 170.043 L2184.26 144.533 L2188.78 144.533 L2196.88 164.811 L2204.98 144.533 L2209.49 144.533 L2198.1 172.867 Z" fill="#000000" fill-rule="evenodd" fill-opacity="1" /><path clip-path="url(#clip110)" d="M 0 0 M2215.37 166.524 L2223.01 166.524 L2223.01 140.158 L2214.7 141.825 L2214.7 137.566 L2222.97 135.899 L2227.64 135.899 L2227.64 166.524 L2235.28 166.524 L2235.28 170.459 L2215.37 170.459 L2215.37 166.524 Z" fill="#000000" fill-rule="evenodd" fill-opacity="1" /></svg>
