<?xml version="1.0" encoding="utf-8"?>
<svg xmlns="http://www.w3.org/2000/svg" xmlns:xlink="http://www.w3.org/1999/xlink" width="600" height="400" viewBox="0 0 2400 1600">
<defs>
  <clipPath id="clip890">
    <rect x="0" y="0" width="2400" height="1600"/>
  </clipPath>
</defs>
<path clip-path="url(#clip890)" d="
M0 1600 L2400 1600 L2400 0 L0 0  Z
  " fill="#ffffff" fill-rule="evenodd" fill-opacity="1"/>
<defs>
  <clipPath id="clip891">
    <rect x="480" y="0" width="1681" height="1600"/>
  </clipPath>
</defs>
<path clip-path="url(#clip890)" d="
M262.32 1410.9 L2352.76 1410.9 L2352.76 47.2441 L262.32 47.2441  Z
  " fill="#ffffff" fill-rule="evenodd" fill-opacity="1"/>
<defs>
  <clipPath id="clip892">
    <rect x="262" y="47" width="2091" height="1365"/>
  </clipPath>
</defs>
<polyline clip-path="url(#clip892)" style="stroke:#000000; stroke-width:2; stroke-opacity:0.1; fill:none" points="
  518.694,1410.9 518.694,47.2441 
  "/>
<polyline clip-path="url(#clip892)" style="stroke:#000000; stroke-width:2; stroke-opacity:0.1; fill:none" points="
  913.116,1410.9 913.116,47.2441 
  "/>
<polyline clip-path="url(#clip892)" style="stroke:#000000; stroke-width:2; stroke-opacity:0.1; fill:none" points="
  1307.54,1410.9 1307.54,47.2441 
  "/>
<polyline clip-path="url(#clip892)" style="stroke:#000000; stroke-width:2; stroke-opacity:0.1; fill:none" points="
  1701.96,1410.9 1701.96,47.2441 
  "/>
<polyline clip-path="url(#clip892)" style="stroke:#000000; stroke-width:2; stroke-opacity:0.1; fill:none" points="
  2096.38,1410.9 2096.38,47.2441 
  "/>
<polyline clip-path="url(#clip890)" style="stroke:#000000; stroke-width:4; stroke-opacity:1; fill:none" points="
  262.32,1410.9 2352.76,1410.9 
  "/>
<polyline clip-path="url(#clip890)" style="stroke:#000000; stroke-width:4; stroke-opacity:1; fill:none" points="
  518.694,1410.9 518.694,1394.53 
  "/>
<polyline clip-path="url(#clip890)" style="stroke:#000000; stroke-width:4; stroke-opacity:1; fill:none" points="
  913.116,1410.9 913.116,1394.53 
  "/>
<polyline clip-path="url(#clip890)" style="stroke:#000000; stroke-width:4; stroke-opacity:1; fill:none" points="
  1307.54,1410.9 1307.54,1394.53 
  "/>
<polyline clip-path="url(#clip890)" style="stroke:#000000; stroke-width:4; stroke-opacity:1; fill:none" points="
  1701.96,1410.9 1701.96,1394.53 
  "/>
<polyline clip-path="url(#clip890)" style="stroke:#000000; stroke-width:4; stroke-opacity:1; fill:none" points="
  2096.38,1410.9 2096.38,1394.53 
  "/>
<path clip-path="url(#clip890)" d="M 0 0 M457.972 1489.17 L465.611 1489.17 L465.611 1462.8 L457.301 1464.47 L457.301 1460.21 L465.565 1458.54 L470.241 1458.54 L470.241 1489.17 L477.88 1489.17 L477.88 1493.1 L457.972 1493.1 L457.972 1489.17 Z" fill="#000000" fill-rule="evenodd" fill-opacity="1" /><path clip-path="url(#clip890)" d="M 0 0 M492.949 1461.62 Q489.338 1461.62 487.509 1465.19 Q485.704 1468.73 485.704 1475.86 Q485.704 1482.97 487.509 1486.53 Q489.338 1490.07 492.949 1490.07 Q496.583 1490.07 498.389 1486.53 Q500.218 1482.97 500.218 1475.86 Q500.218 1468.73 498.389 1465.19 Q496.583 1461.62 492.949 1461.62 M492.949 1457.92 Q498.759 1457.92 501.815 1462.53 Q504.893 1467.11 504.893 1475.86 Q504.893 1484.59 501.815 1489.19 Q498.759 1493.78 492.949 1493.78 Q487.139 1493.78 484.06 1489.19 Q481.005 1484.59 481.005 1475.86 Q481.005 1467.11 484.06 1462.53 Q487.139 1457.92 492.949 1457.92 Z" fill="#000000" fill-rule="evenodd" fill-opacity="1" /><path clip-path="url(#clip890)" d="M 0 0 M504.893 1452.02 L529.005 1452.02 L529.005 1455.22 L504.893 1455.22 L504.893 1452.02 Z" fill="#000000" fill-rule="evenodd" fill-opacity="1" /><path clip-path="url(#clip890)" d="M 0 0 M536.396 1462.5 L549.656 1462.5 L549.656 1465.69 L531.826 1465.69 L531.826 1462.5 Q533.989 1460.26 537.713 1456.5 Q541.456 1452.72 542.415 1451.63 Q544.239 1449.58 544.954 1448.16 Q545.687 1446.74 545.687 1445.36 Q545.687 1443.12 544.108 1441.71 Q542.547 1440.3 540.026 1440.3 Q538.24 1440.3 536.246 1440.92 Q534.271 1441.54 532.014 1442.8 L532.014 1438.97 Q534.309 1438.05 536.302 1437.58 Q538.296 1437.11 539.951 1437.11 Q544.315 1437.11 546.91 1439.29 Q549.505 1441.47 549.505 1445.12 Q549.505 1446.85 548.847 1448.41 Q548.208 1449.95 546.496 1452.06 Q546.026 1452.6 543.506 1455.22 Q540.986 1457.81 536.396 1462.5 Z" fill="#000000" fill-rule="evenodd" fill-opacity="1" /><path clip-path="url(#clip890)" d="M 0 0 M553.775 1460.92 L557.743 1460.92 L557.743 1465.69 L553.775 1465.69 L553.775 1460.92 Z" fill="#000000" fill-rule="evenodd" fill-opacity="1" /><path clip-path="url(#clip890)" d="M 0 0 M572.3 1440.92 L562.709 1455.91 L572.3 1455.91 L572.3 1440.92 M571.304 1437.61 L576.081 1437.61 L576.081 1455.91 L580.087 1455.91 L580.087 1459.07 L576.081 1459.07 L576.081 1465.69 L572.3 1465.69 L572.3 1459.07 L559.624 1459.07 L559.624 1455.41 L571.304 1437.61 Z" fill="#000000" fill-rule="evenodd" fill-opacity="1" /><path clip-path="url(#clip890)" d="M 0 0 M853.241 1489.17 L860.879 1489.17 L860.879 1462.8 L852.569 1464.47 L852.569 1460.21 L860.833 1458.54 L865.509 1458.54 L865.509 1489.17 L873.148 1489.17 L873.148 1493.1 L853.241 1493.1 L853.241 1489.17 Z" fill="#000000" fill-rule="evenodd" fill-opacity="1" /><path clip-path="url(#clip890)" d="M 0 0 M888.217 1461.62 Q884.606 1461.62 882.778 1465.19 Q880.972 1468.73 880.972 1475.86 Q880.972 1482.97 882.778 1486.53 Q884.606 1490.07 888.217 1490.07 Q891.852 1490.07 893.657 1486.53 Q895.486 1482.97 895.486 1475.86 Q895.486 1468.73 893.657 1465.19 Q891.852 1461.62 888.217 1461.62 M888.217 1457.92 Q894.027 1457.92 897.083 1462.53 Q900.162 1467.11 900.162 1475.86 Q900.162 1484.59 897.083 1489.19 Q894.027 1493.78 888.217 1493.78 Q882.407 1493.78 879.328 1489.19 Q876.273 1484.59 876.273 1475.86 Q876.273 1467.11 879.328 1462.53 Q882.407 1457.92 888.217 1457.92 Z" fill="#000000" fill-rule="evenodd" fill-opacity="1" /><path clip-path="url(#clip890)" d="M 0 0 M900.162 1452.02 L924.273 1452.02 L924.273 1455.22 L900.162 1455.22 L900.162 1452.02 Z" fill="#000000" fill-rule="evenodd" fill-opacity="1" /><path clip-path="url(#clip890)" d="M 0 0 M931.665 1462.5 L944.924 1462.5 L944.924 1465.69 L927.094 1465.69 L927.094 1462.5 Q929.257 1460.26 932.981 1456.5 Q936.724 1452.72 937.683 1451.63 Q939.508 1449.58 940.222 1448.16 Q940.956 1446.74 940.956 1445.36 Q940.956 1443.12 939.376 1441.71 Q937.815 1440.3 935.295 1440.3 Q933.508 1440.3 931.514 1440.92 Q929.539 1441.54 927.282 1442.8 L927.282 1438.97 Q929.577 1438.05 931.571 1437.58 Q933.564 1437.11 935.219 1437.11 Q939.583 1437.11 942.178 1439.29 Q944.774 1441.47 944.774 1445.12 Q944.774 1446.85 944.115 1448.41 Q943.476 1449.95 941.764 1452.06 Q941.294 1452.6 938.774 1455.22 Q936.254 1457.81 931.665 1462.5 Z" fill="#000000" fill-rule="evenodd" fill-opacity="1" /><path clip-path="url(#clip890)" d="M 0 0 M949.043 1460.92 L953.012 1460.92 L953.012 1465.69 L949.043 1465.69 L949.043 1460.92 Z" fill="#000000" fill-rule="evenodd" fill-opacity="1" /><path clip-path="url(#clip890)" d="M 0 0 M960.403 1462.5 L973.662 1462.5 L973.662 1465.69 L955.833 1465.69 L955.833 1462.5 Q957.996 1460.26 961.72 1456.5 Q965.462 1452.72 966.421 1451.63 Q968.246 1449.58 968.961 1448.16 Q969.694 1446.74 969.694 1445.36 Q969.694 1443.12 968.114 1441.71 Q966.553 1440.3 964.033 1440.3 Q962.246 1440.3 960.253 1440.92 Q958.278 1441.54 956.021 1442.8 L956.021 1438.97 Q958.315 1438.05 960.309 1437.58 Q962.303 1437.11 963.958 1437.11 Q968.321 1437.11 970.917 1439.29 Q973.512 1441.47 973.512 1445.12 Q973.512 1446.85 972.854 1448.41 Q972.214 1449.95 970.503 1452.06 Q970.033 1452.6 967.512 1455.22 Q964.992 1457.81 960.403 1462.5 Z" fill="#000000" fill-rule="evenodd" fill-opacity="1" /><path clip-path="url(#clip890)" d="M 0 0 M1247.01 1489.17 L1254.65 1489.17 L1254.65 1462.8 L1246.34 1464.47 L1246.34 1460.21 L1254.61 1458.54 L1259.28 1458.54 L1259.28 1489.17 L1266.92 1489.17 L1266.92 1493.1 L1247.01 1493.1 L1247.01 1489.17 Z" fill="#000000" fill-rule="evenodd" fill-opacity="1" /><path clip-path="url(#clip890)" d="M 0 0 M1281.99 1461.62 Q1278.38 1461.62 1276.55 1465.19 Q1274.75 1468.73 1274.75 1475.86 Q1274.75 1482.97 1276.55 1486.53 Q1278.38 1490.07 1281.99 1490.07 Q1285.62 1490.07 1287.43 1486.53 Q1289.26 1482.97 1289.26 1475.86 Q1289.26 1468.73 1287.43 1465.19 Q1285.62 1461.62 1281.99 1461.62 M1281.99 1457.92 Q1287.8 1457.92 1290.86 1462.53 Q1293.93 1467.11 1293.93 1475.86 Q1293.93 1484.59 1290.86 1489.19 Q1287.8 1493.78 1281.99 1493.78 Q1276.18 1493.78 1273.1 1489.19 Q1270.05 1484.59 1270.05 1475.86 Q1270.05 1467.11 1273.1 1462.53 Q1276.18 1457.92 1281.99 1457.92 Z" fill="#000000" fill-rule="evenodd" fill-opacity="1" /><path clip-path="url(#clip890)" d="M 0 0 M1293.93 1452.02 L1318.05 1452.02 L1318.05 1455.22 L1293.93 1455.22 L1293.93 1452.02 Z" fill="#000000" fill-rule="evenodd" fill-opacity="1" /><path clip-path="url(#clip890)" d="M 0 0 M1325.44 1462.5 L1338.7 1462.5 L1338.7 1465.69 L1320.87 1465.69 L1320.87 1462.5 Q1323.03 1460.26 1326.75 1456.5 Q1330.5 1452.72 1331.46 1451.63 Q1333.28 1449.58 1334 1448.16 Q1334.73 1446.74 1334.73 1445.36 Q1334.73 1443.12 1333.15 1441.71 Q1331.59 1440.3 1329.07 1440.3 Q1327.28 1440.3 1325.29 1440.92 Q1323.31 1441.54 1321.06 1442.8 L1321.06 1438.97 Q1323.35 1438.05 1325.34 1437.58 Q1327.34 1437.11 1328.99 1437.11 Q1333.36 1437.11 1335.95 1439.29 Q1338.55 1441.47 1338.55 1445.12 Q1338.55 1446.85 1337.89 1448.41 Q1337.25 1449.95 1335.54 1452.06 Q1335.07 1452.6 1332.55 1455.22 Q1330.03 1457.81 1325.44 1462.5 Z" fill="#000000" fill-rule="evenodd" fill-opacity="1" /><path clip-path="url(#clip890)" d="M 0 0 M1342.82 1460.92 L1346.78 1460.92 L1346.78 1465.69 L1342.82 1465.69 L1342.82 1460.92 Z" fill="#000000" fill-rule="evenodd" fill-opacity="1" /><path clip-path="url(#clip890)" d="M 0 0 M1359.03 1440.11 Q1356.09 1440.11 1354.61 1443.01 Q1353.14 1445.89 1353.14 1451.68 Q1353.14 1457.46 1354.61 1460.35 Q1356.09 1463.23 1359.03 1463.23 Q1361.98 1463.23 1363.45 1460.35 Q1364.93 1457.46 1364.93 1451.68 Q1364.93 1445.89 1363.45 1443.01 Q1361.98 1440.11 1359.03 1440.11 M1359.03 1437.11 Q1363.75 1437.11 1366.23 1440.85 Q1368.73 1444.57 1368.73 1451.68 Q1368.73 1458.77 1366.23 1462.51 Q1363.75 1466.24 1359.03 1466.24 Q1354.31 1466.24 1351.81 1462.51 Q1349.32 1458.77 1349.32 1451.68 Q1349.32 1444.57 1351.81 1440.85 Q1354.31 1437.11 1359.03 1437.11 Z" fill="#000000" fill-rule="evenodd" fill-opacity="1" /><path clip-path="url(#clip890)" d="M 0 0 M1641.32 1489.17 L1648.96 1489.17 L1648.96 1462.8 L1640.65 1464.47 L1640.65 1460.21 L1648.92 1458.54 L1653.59 1458.54 L1653.59 1489.17 L1661.23 1489.17 L1661.23 1493.1 L1641.32 1493.1 L1641.32 1489.17 Z" fill="#000000" fill-rule="evenodd" fill-opacity="1" /><path clip-path="url(#clip890)" d="M 0 0 M1676.3 1461.62 Q1672.69 1461.62 1670.86 1465.19 Q1669.05 1468.73 1669.05 1475.86 Q1669.05 1482.97 1670.86 1486.53 Q1672.69 1490.07 1676.3 1490.07 Q1679.93 1490.07 1681.74 1486.53 Q1683.57 1482.97 1683.57 1475.86 Q1683.57 1468.73 1681.74 1465.19 Q1679.93 1461.62 1676.3 1461.62 M1676.3 1457.92 Q1682.11 1457.92 1685.17 1462.53 Q1688.24 1467.11 1688.24 1475.86 Q1688.24 1484.59 1685.17 1489.19 Q1682.11 1493.78 1676.3 1493.78 Q1670.49 1493.78 1667.41 1489.19 Q1664.36 1484.59 1664.36 1475.86 Q1664.36 1467.11 1667.41 1462.53 Q1670.49 1457.92 1676.3 1457.92 Z" fill="#000000" fill-rule="evenodd" fill-opacity="1" /><path clip-path="url(#clip890)" d="M 0 0 M1688.24 1452.02 L1712.36 1452.02 L1712.36 1455.22 L1688.24 1455.22 L1688.24 1452.02 Z" fill="#000000" fill-rule="evenodd" fill-opacity="1" /><path clip-path="url(#clip890)" d="M 0 0 M1717.13 1462.5 L1723.34 1462.5 L1723.34 1441.07 L1716.59 1442.43 L1716.59 1438.97 L1723.3 1437.61 L1727.1 1437.61 L1727.1 1462.5 L1733.31 1462.5 L1733.31 1465.69 L1717.13 1465.69 L1717.13 1462.5 Z" fill="#000000" fill-rule="evenodd" fill-opacity="1" /><path clip-path="url(#clip890)" d="M 0 0 M1737.43 1460.92 L1741.39 1460.92 L1741.39 1465.69 L1737.43 1465.69 L1737.43 1460.92 Z" fill="#000000" fill-rule="evenodd" fill-opacity="1" /><path clip-path="url(#clip890)" d="M 0 0 M1753.64 1452.36 Q1750.93 1452.36 1749.37 1453.81 Q1747.83 1455.26 1747.83 1457.79 Q1747.83 1460.33 1749.37 1461.78 Q1750.93 1463.23 1753.64 1463.23 Q1756.35 1463.23 1757.91 1461.78 Q1759.47 1460.31 1759.47 1457.79 Q1759.47 1455.26 1757.91 1453.81 Q1756.37 1452.36 1753.64 1452.36 M1749.84 1450.74 Q1747.39 1450.14 1746.02 1448.47 Q1744.67 1446.79 1744.67 1444.38 Q1744.67 1441.02 1747.06 1439.06 Q1749.46 1437.11 1753.64 1437.11 Q1757.83 1437.11 1760.22 1439.06 Q1762.61 1441.02 1762.61 1444.38 Q1762.61 1446.79 1761.24 1448.47 Q1759.88 1450.14 1757.46 1450.74 Q1760.2 1451.38 1761.73 1453.24 Q1763.27 1455.1 1763.27 1457.79 Q1763.27 1461.88 1760.77 1464.06 Q1758.28 1466.24 1753.64 1466.24 Q1748.99 1466.24 1746.49 1464.06 Q1744.01 1461.88 1744.01 1457.79 Q1744.01 1455.1 1745.55 1453.24 Q1747.09 1451.38 1749.84 1450.74 M1748.45 1444.74 Q1748.45 1446.92 1749.8 1448.15 Q1751.17 1449.37 1753.64 1449.37 Q1756.08 1449.37 1757.46 1448.15 Q1758.85 1446.92 1758.85 1444.74 Q1758.85 1442.56 1757.46 1441.34 Q1756.08 1440.11 1753.64 1440.11 Q1751.17 1440.11 1749.8 1441.34 Q1748.45 1442.56 1748.45 1444.74 Z" fill="#000000" fill-rule="evenodd" fill-opacity="1" /><path clip-path="url(#clip890)" d="M 0 0 M2035.64 1489.17 L2043.28 1489.17 L2043.28 1462.8 L2034.97 1464.47 L2034.97 1460.21 L2043.23 1458.54 L2047.91 1458.54 L2047.91 1489.17 L2055.55 1489.17 L2055.55 1493.1 L2035.64 1493.1 L2035.64 1489.17 Z" fill="#000000" fill-rule="evenodd" fill-opacity="1" /><path clip-path="url(#clip890)" d="M 0 0 M2070.62 1461.62 Q2067.01 1461.62 2065.18 1465.19 Q2063.37 1468.73 2063.37 1475.86 Q2063.37 1482.97 2065.18 1486.53 Q2067.01 1490.07 2070.62 1490.07 Q2074.25 1490.07 2076.06 1486.53 Q2077.89 1482.97 2077.89 1475.86 Q2077.89 1468.73 2076.06 1465.19 Q2074.25 1461.62 2070.62 1461.62 M2070.62 1457.92 Q2076.43 1457.92 2079.48 1462.53 Q2082.56 1467.11 2082.56 1475.86 Q2082.56 1484.59 2079.48 1489.19 Q2076.43 1493.78 2070.62 1493.78 Q2064.81 1493.78 2061.73 1489.19 Q2058.67 1484.59 2058.67 1475.86 Q2058.67 1467.11 2061.73 1462.53 Q2064.81 1457.92 2070.62 1457.92 Z" fill="#000000" fill-rule="evenodd" fill-opacity="1" /><path clip-path="url(#clip890)" d="M 0 0 M2082.56 1452.02 L2106.67 1452.02 L2106.67 1455.22 L2082.56 1455.22 L2082.56 1452.02 Z" fill="#000000" fill-rule="evenodd" fill-opacity="1" /><path clip-path="url(#clip890)" d="M 0 0 M2111.45 1462.5 L2117.66 1462.5 L2117.66 1441.07 L2110.91 1442.43 L2110.91 1438.97 L2117.62 1437.61 L2121.42 1437.61 L2121.42 1462.5 L2127.63 1462.5 L2127.63 1465.69 L2111.45 1465.69 L2111.45 1462.5 Z" fill="#000000" fill-rule="evenodd" fill-opacity="1" /><path clip-path="url(#clip890)" d="M 0 0 M2131.74 1460.92 L2135.71 1460.92 L2135.71 1465.69 L2131.74 1465.69 L2131.74 1460.92 Z" fill="#000000" fill-rule="evenodd" fill-opacity="1" /><path clip-path="url(#clip890)" d="M 0 0 M2148.43 1450.14 Q2145.87 1450.14 2144.36 1451.89 Q2142.88 1453.64 2142.88 1456.68 Q2142.88 1459.71 2144.36 1461.48 Q2145.87 1463.23 2148.43 1463.23 Q2150.98 1463.23 2152.47 1461.48 Q2153.98 1459.71 2153.98 1456.68 Q2153.98 1453.64 2152.47 1451.89 Q2150.98 1450.14 2148.43 1450.14 M2155.97 1438.23 L2155.97 1441.69 Q2154.54 1441.02 2153.07 1440.66 Q2151.62 1440.3 2150.2 1440.3 Q2146.43 1440.3 2144.44 1442.84 Q2142.47 1445.38 2142.18 1450.52 Q2143.29 1448.88 2144.97 1448.01 Q2146.64 1447.13 2148.65 1447.13 Q2152.88 1447.13 2155.33 1449.71 Q2157.79 1452.26 2157.79 1456.68 Q2157.79 1461.01 2155.24 1463.62 Q2152.68 1466.24 2148.43 1466.24 Q2143.56 1466.24 2140.98 1462.51 Q2138.4 1458.77 2138.4 1451.68 Q2138.4 1445.02 2141.56 1441.07 Q2144.72 1437.11 2150.04 1437.11 Q2151.47 1437.11 2152.92 1437.39 Q2154.39 1437.67 2155.97 1438.23 Z" fill="#000000" fill-rule="evenodd" fill-opacity="1" /><path clip-path="url(#clip890)" d="M 0 0 M1232.76 1512.66 L1238.64 1512.66 L1238.64 1541.91 L1256.12 1526.54 L1263.6 1526.54 L1244.69 1543.22 L1264.39 1562.19 L1256.76 1562.19 L1238.64 1544.78 L1238.64 1562.19 L1232.76 1562.19 L1232.76 1512.66 Z" fill="#000000" fill-rule="evenodd" fill-opacity="1" /><path clip-path="url(#clip890)" d="M 0 0 M1297.62 1573.01 L1297.62 1577.56 L1263.76 1577.56 L1263.76 1573.01 L1297.62 1573.01 Z" fill="#000000" fill-rule="evenodd" fill-opacity="1" /><path clip-path="url(#clip890)" d="M 0 0 M1317.58 1530.64 Q1312.87 1530.64 1310.13 1534.34 Q1307.39 1538 1307.39 1544.39 Q1307.39 1550.79 1310.1 1554.48 Q1312.84 1558.14 1317.58 1558.14 Q1322.26 1558.14 1325 1554.45 Q1327.73 1550.76 1327.73 1544.39 Q1327.73 1538.06 1325 1534.37 Q1322.26 1530.64 1317.58 1530.64 M1317.58 1525.68 Q1325.22 1525.68 1329.58 1530.64 Q1333.94 1535.61 1333.94 1544.39 Q1333.94 1553.15 1329.58 1558.14 Q1325.22 1563.11 1317.58 1563.11 Q1309.91 1563.11 1305.55 1558.14 Q1301.22 1553.15 1301.22 1544.39 Q1301.22 1535.61 1305.55 1530.64 Q1309.91 1525.68 1317.58 1525.68 Z" fill="#000000" fill-rule="evenodd" fill-opacity="1" /><path clip-path="url(#clip890)" d="M 0 0 M1358.13 1512.66 L1358.13 1517.53 L1352.53 1517.53 Q1349.38 1517.53 1348.14 1518.8 Q1346.93 1520.08 1346.93 1523.39 L1346.93 1526.54 L1356.57 1526.54 L1356.57 1531.09 L1346.93 1531.09 L1346.93 1562.19 L1341.04 1562.19 L1341.04 1531.09 L1335.44 1531.09 L1335.44 1526.54 L1341.04 1526.54 L1341.04 1524.05 Q1341.04 1518.1 1343.81 1515.4 Q1346.58 1512.66 1352.59 1512.66 L1358.13 1512.66 Z" fill="#000000" fill-rule="evenodd" fill-opacity="1" /><path clip-path="url(#clip890)" d="M 0 0 M1382.32 1512.66 L1382.32 1517.53 L1376.72 1517.53 Q1373.57 1517.53 1372.32 1518.8 Q1371.12 1520.08 1371.12 1523.39 L1371.12 1526.54 L1380.76 1526.54 L1380.76 1531.09 L1371.12 1531.09 L1371.12 1562.19 L1365.23 1562.19 L1365.23 1531.09 L1359.63 1531.09 L1359.63 1526.54 L1365.23 1526.54 L1365.23 1524.05 Q1365.23 1518.1 1368 1515.4 Q1370.77 1512.66 1376.78 1512.66 L1382.32 1512.66 Z" fill="#000000" fill-rule="evenodd" fill-opacity="1" /><polyline clip-path="url(#clip892)" style="stroke:#000000; stroke-width:2; stroke-opacity:0.1; fill:none" points="
  262.32,1257.59 2352.76,1257.59 
  "/>
<polyline clip-path="url(#clip892)" style="stroke:#000000; stroke-width:2; stroke-opacity:0.1; fill:none" points="
  262.32,987.28 2352.76,987.28 
  "/>
<polyline clip-path="url(#clip892)" style="stroke:#000000; stroke-width:2; stroke-opacity:0.1; fill:none" points="
  262.32,716.971 2352.76,716.971 
  "/>
<polyline clip-path="url(#clip892)" style="stroke:#000000; stroke-width:2; stroke-opacity:0.1; fill:none" points="
  262.32,446.663 2352.76,446.663 
  "/>
<polyline clip-path="url(#clip892)" style="stroke:#000000; stroke-width:2; stroke-opacity:0.1; fill:none" points="
  262.32,176.355 2352.76,176.355 
  "/>
<polyline clip-path="url(#clip890)" style="stroke:#000000; stroke-width:4; stroke-opacity:1; fill:none" points="
  262.32,1410.9 262.32,47.2441 
  "/>
<polyline clip-path="url(#clip890)" style="stroke:#000000; stroke-width:4; stroke-opacity:1; fill:none" points="
  262.32,1257.59 287.405,1257.59 
  "/>
<polyline clip-path="url(#clip890)" style="stroke:#000000; stroke-width:4; stroke-opacity:1; fill:none" points="
  262.32,987.28 287.405,987.28 
  "/>
<polyline clip-path="url(#clip890)" style="stroke:#000000; stroke-width:4; stroke-opacity:1; fill:none" points="
  262.32,716.971 287.405,716.971 
  "/>
<polyline clip-path="url(#clip890)" style="stroke:#000000; stroke-width:4; stroke-opacity:1; fill:none" points="
  262.32,446.663 287.405,446.663 
  "/>
<polyline clip-path="url(#clip890)" style="stroke:#000000; stroke-width:4; stroke-opacity:1; fill:none" points="
  262.32,176.355 287.405,176.355 
  "/>
<path clip-path="url(#clip890)" d="M 0 0 M116.066 1270.93 L123.705 1270.93 L123.705 1244.57 L115.394 1246.23 L115.394 1241.97 L123.658 1240.31 L128.334 1240.31 L128.334 1270.93 L135.973 1270.93 L135.973 1274.87 L116.066 1274.87 L116.066 1270.93 Z" fill="#000000" fill-rule="evenodd" fill-opacity="1" /><path clip-path="url(#clip890)" d="M 0 0 M155.209 1256.23 Q158.565 1256.95 160.44 1259.22 Q162.339 1261.49 162.339 1264.82 Q162.339 1269.94 158.82 1272.74 Q155.302 1275.54 148.82 1275.54 Q146.644 1275.54 144.329 1275.1 Q142.038 1274.68 139.584 1273.83 L139.584 1269.31 Q141.529 1270.45 143.843 1271.03 Q146.158 1271.6 148.681 1271.6 Q153.079 1271.6 155.371 1269.87 Q157.686 1268.13 157.686 1264.82 Q157.686 1261.77 155.533 1260.05 Q153.403 1258.32 149.584 1258.32 L145.556 1258.32 L145.556 1254.47 L149.769 1254.47 Q153.218 1254.47 155.047 1253.11 Q156.876 1251.72 156.876 1249.13 Q156.876 1246.47 154.978 1245.05 Q153.103 1243.62 149.584 1243.62 Q147.663 1243.62 145.464 1244.03 Q143.265 1244.45 140.626 1245.33 L140.626 1241.16 Q143.288 1240.42 145.603 1240.05 Q147.941 1239.68 150.001 1239.68 Q155.325 1239.68 158.427 1242.11 Q161.528 1244.52 161.528 1248.64 Q161.528 1251.51 159.885 1253.5 Q158.241 1255.47 155.209 1256.23 Z" fill="#000000" fill-rule="evenodd" fill-opacity="1" /><path clip-path="url(#clip890)" d="M 0 0 M167.408 1268.99 L172.292 1268.99 L172.292 1274.87 L167.408 1274.87 L167.408 1268.99 Z" fill="#000000" fill-rule="evenodd" fill-opacity="1" /><path clip-path="url(#clip890)" d="M 0 0 M187.362 1243.39 Q183.751 1243.39 181.922 1246.95 Q180.116 1250.49 180.116 1257.62 Q180.116 1264.73 181.922 1268.29 Q183.751 1271.84 187.362 1271.84 Q190.996 1271.84 192.801 1268.29 Q194.63 1264.73 194.63 1257.62 Q194.63 1250.49 192.801 1246.95 Q190.996 1243.39 187.362 1243.39 M187.362 1239.68 Q193.172 1239.68 196.227 1244.29 Q199.306 1248.87 199.306 1257.62 Q199.306 1266.35 196.227 1270.96 Q193.172 1275.54 187.362 1275.54 Q181.551 1275.54 178.473 1270.96 Q175.417 1266.35 175.417 1257.62 Q175.417 1248.87 178.473 1244.29 Q181.551 1239.68 187.362 1239.68 Z" fill="#000000" fill-rule="evenodd" fill-opacity="1" /><path clip-path="url(#clip890)" d="M 0 0 M214.375 1243.39 Q210.764 1243.39 208.936 1246.95 Q207.13 1250.49 207.13 1257.62 Q207.13 1264.73 208.936 1268.29 Q210.764 1271.84 214.375 1271.84 Q218.01 1271.84 219.815 1268.29 Q221.644 1264.73 221.644 1257.62 Q221.644 1250.49 219.815 1246.95 Q218.01 1243.39 214.375 1243.39 M214.375 1239.68 Q220.186 1239.68 223.241 1244.29 Q226.32 1248.87 226.32 1257.62 Q226.32 1266.35 223.241 1270.96 Q220.186 1275.54 214.375 1275.54 Q208.565 1275.54 205.487 1270.96 Q202.431 1266.35 202.431 1257.62 Q202.431 1248.87 205.487 1244.29 Q208.565 1239.68 214.375 1239.68 Z" fill="#000000" fill-rule="evenodd" fill-opacity="1" /><path clip-path="url(#clip890)" d="M 0 0 M118.658 1000.62 L126.297 1000.62 L126.297 974.259 L117.987 975.926 L117.987 971.666 L126.251 970 L130.927 970 L130.927 1000.62 L138.566 1000.62 L138.566 1004.56 L118.658 1004.56 L118.658 1000.62 Z" fill="#000000" fill-rule="evenodd" fill-opacity="1" /><path clip-path="url(#clip890)" d="M 0 0 M157.802 985.926 Q161.158 986.643 163.033 988.912 Q164.931 991.18 164.931 994.513 Q164.931 999.629 161.413 1002.43 Q157.894 1005.23 151.413 1005.23 Q149.237 1005.23 146.922 1004.79 Q144.63 1004.37 142.177 1003.52 L142.177 999.004 Q144.121 1000.14 146.436 1000.72 Q148.751 1001.3 151.274 1001.3 Q155.672 1001.3 157.964 999.56 Q160.278 997.824 160.278 994.513 Q160.278 991.458 158.126 989.745 Q155.996 988.009 152.177 988.009 L148.149 988.009 L148.149 984.166 L152.362 984.166 Q155.811 984.166 157.64 982.801 Q159.468 981.412 159.468 978.819 Q159.468 976.157 157.57 974.745 Q155.695 973.31 152.177 973.31 Q150.255 973.31 148.056 973.727 Q145.857 974.143 143.218 975.023 L143.218 970.856 Q145.88 970.115 148.195 969.745 Q150.533 969.375 152.593 969.375 Q157.917 969.375 161.019 971.805 Q164.121 974.213 164.121 978.333 Q164.121 981.203 162.477 983.194 Q160.834 985.162 157.802 985.926 Z" fill="#000000" fill-rule="evenodd" fill-opacity="1" /><path clip-path="url(#clip890)" d="M 0 0 M170.001 998.68 L174.885 998.68 L174.885 1004.56 L170.001 1004.56 L170.001 998.68 Z" fill="#000000" fill-rule="evenodd" fill-opacity="1" /><path clip-path="url(#clip890)" d="M 0 0 M183.982 1000.62 L200.301 1000.62 L200.301 1004.56 L178.357 1004.56 L178.357 1000.62 Q181.019 997.87 185.602 993.24 Q190.209 988.588 191.389 987.245 Q193.635 984.722 194.514 982.986 Q195.417 981.226 195.417 979.537 Q195.417 976.782 193.473 975.046 Q191.551 973.31 188.45 973.31 Q186.251 973.31 183.797 974.074 Q181.366 974.838 178.589 976.389 L178.589 971.666 Q181.413 970.532 183.866 969.953 Q186.32 969.375 188.357 969.375 Q193.727 969.375 196.922 972.06 Q200.116 974.745 200.116 979.236 Q200.116 981.365 199.306 983.287 Q198.519 985.185 196.412 987.777 Q195.834 988.449 192.732 991.666 Q189.63 994.861 183.982 1000.62 Z" fill="#000000" fill-rule="evenodd" fill-opacity="1" /><path clip-path="url(#clip890)" d="M 0 0 M205.417 970 L223.773 970 L223.773 973.935 L209.699 973.935 L209.699 982.407 Q210.718 982.06 211.736 981.898 Q212.755 981.713 213.774 981.713 Q219.561 981.713 222.94 984.884 Q226.32 988.055 226.32 993.472 Q226.32 999.05 222.848 1002.15 Q219.375 1005.23 213.056 1005.23 Q210.88 1005.23 208.612 1004.86 Q206.366 1004.49 203.959 1003.75 L203.959 999.05 Q206.042 1000.18 208.264 1000.74 Q210.486 1001.3 212.963 1001.3 Q216.968 1001.3 219.306 999.189 Q221.644 997.083 221.644 993.472 Q221.644 989.861 219.306 987.754 Q216.968 985.648 212.963 985.648 Q211.088 985.648 209.213 986.064 Q207.362 986.481 205.417 987.361 L205.417 970 Z" fill="#000000" fill-rule="evenodd" fill-opacity="1" /><path clip-path="url(#clip890)" d="M 0 0 M117.061 730.316 L124.7 730.316 L124.7 703.951 L116.39 705.617 L116.39 701.358 L124.654 699.691 L129.33 699.691 L129.33 730.316 L136.968 730.316 L136.968 734.251 L117.061 734.251 L117.061 730.316 Z" fill="#000000" fill-rule="evenodd" fill-opacity="1" /><path clip-path="url(#clip890)" d="M 0 0 M156.204 715.617 Q159.561 716.335 161.436 718.603 Q163.334 720.872 163.334 724.205 Q163.334 729.321 159.815 732.122 Q156.297 734.923 149.816 734.923 Q147.64 734.923 145.325 734.483 Q143.033 734.066 140.579 733.21 L140.579 728.696 Q142.524 729.83 144.839 730.409 Q147.153 730.988 149.677 730.988 Q154.075 730.988 156.366 729.251 Q158.681 727.515 158.681 724.205 Q158.681 721.15 156.528 719.437 Q154.399 717.701 150.579 717.701 L146.552 717.701 L146.552 713.858 L150.765 713.858 Q154.214 713.858 156.042 712.492 Q157.871 711.103 157.871 708.511 Q157.871 705.849 155.973 704.437 Q154.098 703.002 150.579 703.002 Q148.658 703.002 146.459 703.418 Q144.26 703.835 141.621 704.715 L141.621 700.548 Q144.283 699.807 146.598 699.437 Q148.936 699.066 150.996 699.066 Q156.32 699.066 159.422 701.497 Q162.524 703.904 162.524 708.025 Q162.524 710.895 160.88 712.886 Q159.237 714.853 156.204 715.617 Z" fill="#000000" fill-rule="evenodd" fill-opacity="1" /><path clip-path="url(#clip890)" d="M 0 0 M168.403 728.372 L173.288 728.372 L173.288 734.251 L168.403 734.251 L168.403 728.372 Z" fill="#000000" fill-rule="evenodd" fill-opacity="1" /><path clip-path="url(#clip890)" d="M 0 0 M178.403 699.691 L196.76 699.691 L196.76 703.627 L182.686 703.627 L182.686 712.099 Q183.704 711.752 184.723 711.59 Q185.741 711.404 186.76 711.404 Q192.547 711.404 195.926 714.576 Q199.306 717.747 199.306 723.164 Q199.306 728.742 195.834 731.844 Q192.362 734.923 186.042 734.923 Q183.866 734.923 181.598 734.552 Q179.352 734.182 176.945 733.441 L176.945 728.742 Q179.028 729.876 181.251 730.432 Q183.473 730.988 185.95 730.988 Q189.954 730.988 192.292 728.881 Q194.63 726.775 194.63 723.164 Q194.63 719.552 192.292 717.446 Q189.954 715.34 185.95 715.34 Q184.075 715.34 182.2 715.756 Q180.348 716.173 178.403 717.052 L178.403 699.691 Z" fill="#000000" fill-rule="evenodd" fill-opacity="1" /><path clip-path="url(#clip890)" d="M 0 0 M214.375 702.77 Q210.764 702.77 208.936 706.335 Q207.13 709.877 207.13 717.006 Q207.13 724.113 208.936 727.677 Q210.764 731.219 214.375 731.219 Q218.01 731.219 219.815 727.677 Q221.644 724.113 221.644 717.006 Q221.644 709.877 219.815 706.335 Q218.01 702.77 214.375 702.77 M214.375 699.066 Q220.186 699.066 223.241 703.673 Q226.32 708.256 226.32 717.006 Q226.32 725.733 223.241 730.339 Q220.186 734.923 214.375 734.923 Q208.565 734.923 205.487 730.339 Q202.431 725.733 202.431 717.006 Q202.431 708.256 205.487 703.673 Q208.565 699.066 214.375 699.066 Z" fill="#000000" fill-rule="evenodd" fill-opacity="1" /><path clip-path="url(#clip890)" d="M 0 0 M117.964 460.008 L125.603 460.008 L125.603 433.642 L117.293 435.309 L117.293 431.05 L125.556 429.383 L130.232 429.383 L130.232 460.008 L137.871 460.008 L137.871 463.943 L117.964 463.943 L117.964 460.008 Z" fill="#000000" fill-rule="evenodd" fill-opacity="1" /><path clip-path="url(#clip890)" d="M 0 0 M157.107 445.309 Q160.464 446.027 162.339 448.295 Q164.237 450.564 164.237 453.897 Q164.237 459.013 160.718 461.814 Q157.2 464.614 150.718 464.614 Q148.542 464.614 146.228 464.175 Q143.936 463.758 141.482 462.902 L141.482 458.388 Q143.427 459.522 145.741 460.101 Q148.056 460.679 150.579 460.679 Q154.978 460.679 157.269 458.943 Q159.584 457.207 159.584 453.897 Q159.584 450.841 157.431 449.128 Q155.302 447.392 151.482 447.392 L147.454 447.392 L147.454 443.55 L151.667 443.55 Q155.116 443.55 156.945 442.184 Q158.774 440.795 158.774 438.203 Q158.774 435.541 156.876 434.129 Q155.001 432.693 151.482 432.693 Q149.561 432.693 147.362 433.11 Q145.163 433.527 142.524 434.406 L142.524 430.24 Q145.186 429.499 147.501 429.129 Q149.839 428.758 151.899 428.758 Q157.223 428.758 160.325 431.189 Q163.427 433.596 163.427 437.716 Q163.427 440.587 161.783 442.578 Q160.14 444.545 157.107 445.309 Z" fill="#000000" fill-rule="evenodd" fill-opacity="1" /><path clip-path="url(#clip890)" d="M 0 0 M169.306 458.064 L174.19 458.064 L174.19 463.943 L169.306 463.943 L169.306 458.064 Z" fill="#000000" fill-rule="evenodd" fill-opacity="1" /><path clip-path="url(#clip890)" d="M 0 0 M178.079 429.383 L200.301 429.383 L200.301 431.374 L187.755 463.943 L182.871 463.943 L194.676 433.318 L178.079 433.318 L178.079 429.383 Z" fill="#000000" fill-rule="evenodd" fill-opacity="1" /><path clip-path="url(#clip890)" d="M 0 0 M205.417 429.383 L223.773 429.383 L223.773 433.318 L209.699 433.318 L209.699 441.791 Q210.718 441.443 211.736 441.281 Q212.755 441.096 213.774 441.096 Q219.561 441.096 222.94 444.267 Q226.32 447.439 226.32 452.855 Q226.32 458.434 222.848 461.536 Q219.375 464.614 213.056 464.614 Q210.88 464.614 208.612 464.244 Q206.366 463.874 203.959 463.133 L203.959 458.434 Q206.042 459.568 208.264 460.124 Q210.486 460.679 212.963 460.679 Q216.968 460.679 219.306 458.573 Q221.644 456.466 221.644 452.855 Q221.644 449.244 219.306 447.138 Q216.968 445.031 212.963 445.031 Q211.088 445.031 209.213 445.448 Q207.362 445.865 205.417 446.744 L205.417 429.383 Z" fill="#000000" fill-rule="evenodd" fill-opacity="1" /><path clip-path="url(#clip890)" d="M 0 0 M114.931 189.7 L122.57 189.7 L122.57 163.334 L114.26 165.001 L114.26 160.742 L122.524 159.075 L127.2 159.075 L127.2 189.7 L134.839 189.7 L134.839 193.635 L114.931 193.635 L114.931 189.7 Z" fill="#000000" fill-rule="evenodd" fill-opacity="1" /><path clip-path="url(#clip890)" d="M 0 0 M152.755 163.149 L140.95 181.598 L152.755 181.598 L152.755 163.149 M151.528 159.075 L157.408 159.075 L157.408 181.598 L162.339 181.598 L162.339 185.487 L157.408 185.487 L157.408 193.635 L152.755 193.635 L152.755 185.487 L137.154 185.487 L137.154 180.973 L151.528 159.075 Z" fill="#000000" fill-rule="evenodd" fill-opacity="1" /><path clip-path="url(#clip890)" d="M 0 0 M167.408 187.755 L172.292 187.755 L172.292 193.635 L167.408 193.635 L167.408 187.755 Z" fill="#000000" fill-rule="evenodd" fill-opacity="1" /><path clip-path="url(#clip890)" d="M 0 0 M187.362 162.154 Q183.751 162.154 181.922 165.718 Q180.116 169.26 180.116 176.39 Q180.116 183.496 181.922 187.061 Q183.751 190.603 187.362 190.603 Q190.996 190.603 192.801 187.061 Q194.63 183.496 194.63 176.39 Q194.63 169.26 192.801 165.718 Q190.996 162.154 187.362 162.154 M187.362 158.45 Q193.172 158.45 196.227 163.056 Q199.306 167.64 199.306 176.39 Q199.306 185.116 196.227 189.723 Q193.172 194.306 187.362 194.306 Q181.551 194.306 178.473 189.723 Q175.417 185.116 175.417 176.39 Q175.417 167.64 178.473 163.056 Q181.551 158.45 187.362 158.45 Z" fill="#000000" fill-rule="evenodd" fill-opacity="1" /><path clip-path="url(#clip890)" d="M 0 0 M214.375 162.154 Q210.764 162.154 208.936 165.718 Q207.13 169.26 207.13 176.39 Q207.13 183.496 208.936 187.061 Q210.764 190.603 214.375 190.603 Q218.01 190.603 219.815 187.061 Q221.644 183.496 221.644 176.39 Q221.644 169.26 219.815 165.718 Q218.01 162.154 214.375 162.154 M214.375 158.45 Q220.186 158.45 223.241 163.056 Q226.32 167.64 226.32 176.39 Q226.32 185.116 223.241 189.723 Q220.186 194.306 214.375 194.306 Q208.565 194.306 205.487 189.723 Q202.431 185.116 202.431 176.39 Q202.431 167.64 205.487 163.056 Q208.565 158.45 214.375 158.45 Z" fill="#000000" fill-rule="evenodd" fill-opacity="1" /><path clip-path="url(#clip890)" d="M 0 0 M59.1993 815.533 Q55.2526 813.336 53.3747 810.281 Q51.4968 807.225 51.4968 803.088 Q51.4968 797.518 55.4117 794.494 Q59.2948 791.47 66.4881 791.47 L88.0042 791.47 L88.0042 797.358 L66.679 797.358 Q61.5546 797.358 59.072 799.173 Q56.5894 800.987 56.5894 804.711 Q56.5894 809.262 59.6131 811.904 Q62.6368 814.546 67.8567 814.546 L88.0042 814.546 L88.0042 820.434 L66.679 820.434 Q61.5228 820.434 59.072 822.248 Q56.5894 824.063 56.5894 827.85 Q56.5894 832.338 59.6449 834.98 Q62.6686 837.622 67.8567 837.622 L88.0042 837.622 L88.0042 843.51 L52.3562 843.51 L52.3562 837.622 L57.8944 837.622 Q54.616 835.616 53.0564 832.815 Q51.4968 830.015 51.4968 826.163 Q51.4968 822.28 53.4702 819.575 Q55.4436 816.838 59.1993 815.533 Z" fill="#000000" fill-rule="evenodd" fill-opacity="1" /><path clip-path="url(#clip890)" d="M 0 0 M52.3562 785.327 L52.3562 779.471 L88.0042 779.471 L88.0042 785.327 L52.3562 785.327 M38.479 785.327 L38.479 779.471 L45.895 779.471 L45.895 785.327 L38.479 785.327 Z" fill="#000000" fill-rule="evenodd" fill-opacity="1" /><path clip-path="url(#clip890)" d="M 0 0 M66.4881 743.696 L88.0042 743.696 L88.0042 749.552 L66.679 749.552 Q61.6183 749.552 59.1038 751.525 Q56.5894 753.499 56.5894 757.446 Q56.5894 762.188 59.6131 764.925 Q62.6368 767.662 67.8567 767.662 L88.0042 767.662 L88.0042 773.551 L52.3562 773.551 L52.3562 767.662 L57.8944 767.662 Q54.6797 765.562 53.0883 762.729 Q51.4968 759.864 51.4968 756.141 Q51.4968 749.998 55.3163 746.847 Q59.1038 743.696 66.4881 743.696 Z" fill="#000000" fill-rule="evenodd" fill-opacity="1" /><path clip-path="url(#clip890)" d="M 0 0 M98.8259 710.467 L103.377 710.467 L103.377 744.332 L98.8259 744.332 L98.8259 710.467 Z" fill="#000000" fill-rule="evenodd" fill-opacity="1" /><path clip-path="url(#clip890)" d="M 0 0 M57.7671 680.866 L38.479 680.866 L38.479 675.01 L88.0042 675.01 L88.0042 680.866 L82.657 680.866 Q85.8398 682.712 87.3994 685.545 Q88.9272 688.346 88.9272 692.292 Q88.9272 698.754 83.771 702.828 Q78.6147 706.87 70.212 706.87 Q61.8093 706.87 56.6531 702.828 Q51.4968 698.754 51.4968 692.292 Q51.4968 688.346 53.0564 685.545 Q54.5842 682.712 57.7671 680.866 M70.212 700.823 Q76.6732 700.823 80.3653 698.181 Q84.0256 695.507 84.0256 690.86 Q84.0256 686.213 80.3653 683.54 Q76.6732 680.866 70.212 680.866 Q63.7508 680.866 60.0905 683.54 Q56.3984 686.213 56.3984 690.86 Q56.3984 695.507 60.0905 698.181 Q63.7508 700.823 70.212 700.823 Z" fill="#000000" fill-rule="evenodd" fill-opacity="1" /><path clip-path="url(#clip890)" d="M 0 0 M52.3562 668.867 L52.3562 663.01 L88.0042 663.01 L88.0042 668.867 L52.3562 668.867 M38.479 668.867 L38.479 663.01 L45.895 663.01 L45.895 668.867 L38.479 668.867 Z" fill="#000000" fill-rule="evenodd" fill-opacity="1" /><path clip-path="url(#clip890)" d="M 0 0 M38.479 638.821 L43.3487 638.821 L43.3487 644.422 Q43.3487 647.573 44.6219 648.815 Q45.895 650.024 49.2052 650.024 L52.3562 650.024 L52.3562 640.38 L56.9077 640.38 L56.9077 650.024 L88.0042 650.024 L88.0042 655.912 L56.9077 655.912 L56.9077 661.514 L52.3562 661.514 L52.3562 655.912 L49.8736 655.912 Q43.9216 655.912 41.2162 653.143 Q38.479 650.374 38.479 644.359 L38.479 638.821 Z" fill="#000000" fill-rule="evenodd" fill-opacity="1" /><path clip-path="url(#clip890)" d="M 0 0 M38.479 614.631 L43.3487 614.631 L43.3487 620.233 Q43.3487 623.384 44.6219 624.625 Q45.895 625.835 49.2052 625.835 L52.3562 625.835 L52.3562 616.19 L56.9077 616.19 L56.9077 625.835 L88.0042 625.835 L88.0042 631.723 L56.9077 631.723 L56.9077 637.325 L52.3562 637.325 L52.3562 631.723 L49.8736 631.723 Q43.9216 631.723 41.2162 628.954 Q38.479 626.185 38.479 620.169 L38.479 614.631 Z" fill="#000000" fill-rule="evenodd" fill-opacity="1" /><polyline clip-path="url(#clip892)" style="stroke:#009af9; stroke-width:20; stroke-opacity:1; fill:none" stroke-dasharray="80, 50" points="
  321.483,451.462 1307.54,1372.3 2293.59,85.838 
  "/>
<path clip-path="url(#clip890)" d="
M1999.79 213.659 L2283.07 213.659 L2283.07 92.6992 L1999.79 92.6992  Z
  " fill="#ffffff" fill-rule="evenodd" fill-opacity="1"/>
<polyline clip-path="url(#clip890)" style="stroke:#000000; stroke-width:4; stroke-opacity:1; fill:none" points="
  1999.79,213.659 2283.07,213.659 2283.07,92.6992 1999.79,92.6992 1999.79,213.659 
  "/>
<polyline clip-path="url(#clip890)" style="stroke:#009af9; stroke-width:4; stroke-opacity:1; fill:none" stroke-dasharray="16, 10" points="
  2023.01,153.179 2162.38,153.179 
  "/>
<path clip-path="url(#clip890)" d="M 0 0 M2199.44 172.867 Q2197.64 177.496 2195.93 178.908 Q2194.21 180.32 2191.34 180.32 L2187.94 180.32 L2187.94 176.755 L2190.44 176.755 Q2192.2 176.755 2193.17 175.922 Q2194.14 175.089 2195.32 171.987 L2196.09 170.043 L2185.6 144.533 L2190.12 144.533 L2198.22 164.811 L2206.32 144.533 L2210.83 144.533 L2199.44 172.867 Z" fill="#000000" fill-rule="evenodd" fill-opacity="1" /><path clip-path="url(#clip890)" d="M 0 0 M2216.71 166.524 L2224.35 166.524 L2224.35 140.158 L2216.04 141.825 L2216.04 137.566 L2224.31 135.899 L2228.98 135.899 L2228.98 166.524 L2236.62 166.524 L2236.62 170.459 L2216.71 170.459 L2216.71 166.524 Z" fill="#000000" fill-rule="evenodd" fill-opacity="1" /></svg>
