<?xml version="1.0" encoding="utf-8"?>
<svg xmlns="http://www.w3.org/2000/svg" xmlns:xlink="http://www.w3.org/1999/xlink" width="600" height="400" viewBox="0 0 2400 1600">
<defs>
  <clipPath id="clip660">
    <rect x="0" y="0" width="2400" height="1600"/>
  </clipPath>
</defs>
<path clip-path="url(#clip660)" d="
M0 1600 L2400 1600 L2400 0 L0 0  Z
  " fill="#ffffff" fill-rule="evenodd" fill-opacity="1"/>
<defs>
  <clipPath id="clip661">
    <rect x="480" y="0" width="1681" height="1600"/>
  </clipPath>
</defs>
<path clip-path="url(#clip660)" d="
M207.968 1410.9 L2352.76 1410.9 L2352.76 47.2441 L207.968 47.2441  Z
  " fill="#ffffff" fill-rule="evenodd" fill-opacity="1"/>
<defs>
  <clipPath id="clip662">
    <rect x="207" y="47" width="2146" height="1365"/>
  </clipPath>
</defs>
<polyline clip-path="url(#clip662)" style="stroke:#000000; stroke-width:2; stroke-opacity:0.1; fill:none" points="
  268.67,1410.9 268.67,47.2441 
  "/>
<polyline clip-path="url(#clip662)" style="stroke:#000000; stroke-width:2; stroke-opacity:0.1; fill:none" points="
  774.516,1410.9 774.516,47.2441 
  "/>
<polyline clip-path="url(#clip662)" style="stroke:#000000; stroke-width:2; stroke-opacity:0.1; fill:none" points="
  1280.36,1410.9 1280.36,47.2441 
  "/>
<polyline clip-path="url(#clip662)" style="stroke:#000000; stroke-width:2; stroke-opacity:0.1; fill:none" points="
  1786.21,1410.9 1786.21,47.2441 
  "/>
<polyline clip-path="url(#clip662)" style="stroke:#000000; stroke-width:2; stroke-opacity:0.1; fill:none" points="
  2292.05,1410.9 2292.05,47.2441 
  "/>
<polyline clip-path="url(#clip660)" style="stroke:#000000; stroke-width:4; stroke-opacity:1; fill:none" points="
  207.968,1410.9 2352.76,1410.9 
  "/>
<polyline clip-path="url(#clip660)" style="stroke:#000000; stroke-width:4; stroke-opacity:1; fill:none" points="
  268.67,1410.9 268.67,1394.53 
  "/>
<polyline clip-path="url(#clip660)" style="stroke:#000000; stroke-width:4; stroke-opacity:1; fill:none" points="
  774.516,1410.9 774.516,1394.53 
  "/>
<polyline clip-path="url(#clip660)" style="stroke:#000000; stroke-width:4; stroke-opacity:1; fill:none" points="
  1280.36,1410.9 1280.36,1394.53 
  "/>
<polyline clip-path="url(#clip660)" style="stroke:#000000; stroke-width:4; stroke-opacity:1; fill:none" points="
  1786.21,1410.9 1786.21,1394.53 
  "/>
<polyline clip-path="url(#clip660)" style="stroke:#000000; stroke-width:4; stroke-opacity:1; fill:none" points="
  2292.05,1410.9 2292.05,1394.53 
  "/>
<path clip-path="url(#clip660)" d="M 0 0 M207.76 1489.17 L215.399 1489.17 L215.399 1462.8 L207.089 1464.47 L207.089 1460.21 L215.353 1458.54 L220.028 1458.54 L220.028 1489.17 L227.667 1489.17 L227.667 1493.1 L207.76 1493.1 L207.76 1489.17 Z" fill="#000000" fill-rule="evenodd" fill-opacity="1" /><path clip-path="url(#clip660)" d="M 0 0 M242.737 1461.62 Q239.126 1461.62 237.297 1465.19 Q235.491 1468.73 235.491 1475.86 Q235.491 1482.97 237.297 1486.53 Q239.126 1490.07 242.737 1490.07 Q246.371 1490.07 248.176 1486.53 Q250.005 1482.97 250.005 1475.86 Q250.005 1468.73 248.176 1465.19 Q246.371 1461.62 242.737 1461.62 M242.737 1457.92 Q248.547 1457.92 251.602 1462.53 Q254.681 1467.11 254.681 1475.86 Q254.681 1484.59 251.602 1489.19 Q248.547 1493.78 242.737 1493.78 Q236.927 1493.78 233.848 1489.19 Q230.792 1484.59 230.792 1475.86 Q230.792 1467.11 233.848 1462.53 Q236.927 1457.92 242.737 1457.92 Z" fill="#000000" fill-rule="evenodd" fill-opacity="1" /><path clip-path="url(#clip660)" d="M 0 0 M254.681 1452.02 L278.793 1452.02 L278.793 1455.22 L254.681 1455.22 L254.681 1452.02 Z" fill="#000000" fill-rule="evenodd" fill-opacity="1" /><path clip-path="url(#clip660)" d="M 0 0 M294.422 1450.55 Q297.149 1451.14 298.672 1452.98 Q300.215 1454.82 300.215 1457.53 Q300.215 1461.69 297.356 1463.96 Q294.497 1466.24 289.231 1466.24 Q287.463 1466.24 285.582 1465.88 Q283.72 1465.54 281.727 1464.85 L281.727 1461.18 Q283.307 1462.1 285.187 1462.57 Q287.068 1463.04 289.118 1463.04 Q292.692 1463.04 294.554 1461.63 Q296.434 1460.22 296.434 1457.53 Q296.434 1455.05 294.685 1453.66 Q292.955 1452.25 289.852 1452.25 L286.579 1452.25 L286.579 1449.12 L290.002 1449.12 Q292.804 1449.12 294.29 1448.01 Q295.776 1446.89 295.776 1444.78 Q295.776 1442.62 294.234 1441.47 Q292.71 1440.3 289.852 1440.3 Q288.291 1440.3 286.504 1440.64 Q284.717 1440.98 282.573 1441.69 L282.573 1438.31 Q284.736 1437.71 286.617 1437.41 Q288.516 1437.11 290.19 1437.11 Q294.516 1437.11 297.036 1439.08 Q299.556 1441.04 299.556 1444.38 Q299.556 1446.72 298.221 1448.33 Q296.886 1449.93 294.422 1450.55 Z" fill="#000000" fill-rule="evenodd" fill-opacity="1" /><path clip-path="url(#clip660)" d="M 0 0 M304.334 1460.92 L308.302 1460.92 L308.302 1465.69 L304.334 1465.69 L304.334 1460.92 Z" fill="#000000" fill-rule="evenodd" fill-opacity="1" /><path clip-path="url(#clip660)" d="M 0 0 M320.546 1440.11 Q317.612 1440.11 316.126 1443.01 Q314.659 1445.89 314.659 1451.68 Q314.659 1457.46 316.126 1460.35 Q317.612 1463.23 320.546 1463.23 Q323.499 1463.23 324.966 1460.35 Q326.452 1457.46 326.452 1451.68 Q326.452 1445.89 324.966 1443.01 Q323.499 1440.11 320.546 1440.11 M320.546 1437.11 Q325.267 1437.11 327.749 1440.85 Q330.251 1444.57 330.251 1451.68 Q330.251 1458.77 327.749 1462.51 Q325.267 1466.24 320.546 1466.24 Q315.825 1466.24 313.324 1462.51 Q310.841 1458.77 310.841 1451.68 Q310.841 1444.57 313.324 1440.85 Q315.825 1437.11 320.546 1437.11 Z" fill="#000000" fill-rule="evenodd" fill-opacity="1" /><path clip-path="url(#clip660)" d="M 0 0 M714.396 1489.17 L722.035 1489.17 L722.035 1462.8 L713.725 1464.47 L713.725 1460.21 L721.989 1458.54 L726.665 1458.54 L726.665 1489.17 L734.303 1489.17 L734.303 1493.1 L714.396 1493.1 L714.396 1489.17 Z" fill="#000000" fill-rule="evenodd" fill-opacity="1" /><path clip-path="url(#clip660)" d="M 0 0 M749.373 1461.62 Q745.762 1461.62 743.933 1465.19 Q742.127 1468.73 742.127 1475.86 Q742.127 1482.97 743.933 1486.53 Q745.762 1490.07 749.373 1490.07 Q753.007 1490.07 754.813 1486.53 Q756.641 1482.97 756.641 1475.86 Q756.641 1468.73 754.813 1465.19 Q753.007 1461.62 749.373 1461.62 M749.373 1457.92 Q755.183 1457.92 758.238 1462.53 Q761.317 1467.11 761.317 1475.86 Q761.317 1484.59 758.238 1489.19 Q755.183 1493.78 749.373 1493.78 Q743.563 1493.78 740.484 1489.19 Q737.428 1484.59 737.428 1475.86 Q737.428 1467.11 740.484 1462.53 Q743.563 1457.92 749.373 1457.92 Z" fill="#000000" fill-rule="evenodd" fill-opacity="1" /><path clip-path="url(#clip660)" d="M 0 0 M761.317 1452.02 L785.429 1452.02 L785.429 1455.22 L761.317 1455.22 L761.317 1452.02 Z" fill="#000000" fill-rule="evenodd" fill-opacity="1" /><path clip-path="url(#clip660)" d="M 0 0 M792.82 1462.5 L806.08 1462.5 L806.08 1465.69 L788.25 1465.69 L788.25 1462.5 Q790.413 1460.26 794.137 1456.5 Q797.879 1452.72 798.839 1451.63 Q800.663 1449.58 801.378 1448.16 Q802.111 1446.74 802.111 1445.36 Q802.111 1443.12 800.531 1441.71 Q798.97 1440.3 796.45 1440.3 Q794.663 1440.3 792.67 1440.92 Q790.695 1441.54 788.438 1442.8 L788.438 1438.97 Q790.733 1438.05 792.726 1437.58 Q794.72 1437.11 796.375 1437.11 Q800.738 1437.11 803.334 1439.29 Q805.929 1441.47 805.929 1445.12 Q805.929 1446.85 805.271 1448.41 Q804.631 1449.95 802.92 1452.06 Q802.45 1452.6 799.93 1455.22 Q797.409 1457.81 792.82 1462.5 Z" fill="#000000" fill-rule="evenodd" fill-opacity="1" /><path clip-path="url(#clip660)" d="M 0 0 M810.199 1460.92 L814.167 1460.92 L814.167 1465.69 L810.199 1465.69 L810.199 1460.92 Z" fill="#000000" fill-rule="evenodd" fill-opacity="1" /><path clip-path="url(#clip660)" d="M 0 0 M818.324 1437.61 L833.238 1437.61 L833.238 1440.81 L821.803 1440.81 L821.803 1447.69 Q822.63 1447.41 823.458 1447.28 Q824.286 1447.13 825.113 1447.13 Q829.815 1447.13 832.561 1449.71 Q835.307 1452.28 835.307 1456.68 Q835.307 1461.22 832.486 1463.74 Q829.665 1466.24 824.53 1466.24 Q822.762 1466.24 820.919 1465.94 Q819.095 1465.64 817.139 1465.04 L817.139 1461.22 Q818.831 1462.14 820.637 1462.59 Q822.442 1463.04 824.455 1463.04 Q827.709 1463.04 829.608 1461.33 Q831.508 1459.62 831.508 1456.68 Q831.508 1453.75 829.608 1452.04 Q827.709 1450.33 824.455 1450.33 Q822.931 1450.33 821.408 1450.67 Q819.903 1451 818.324 1451.72 L818.324 1437.61 Z" fill="#000000" fill-rule="evenodd" fill-opacity="1" /><path clip-path="url(#clip660)" d="M 0 0 M1219.84 1489.17 L1227.48 1489.17 L1227.48 1462.8 L1219.17 1464.47 L1219.17 1460.21 L1227.43 1458.54 L1232.11 1458.54 L1232.11 1489.17 L1239.75 1489.17 L1239.75 1493.1 L1219.84 1493.1 L1219.84 1489.17 Z" fill="#000000" fill-rule="evenodd" fill-opacity="1" /><path clip-path="url(#clip660)" d="M 0 0 M1254.81 1461.62 Q1251.2 1461.62 1249.37 1465.19 Q1247.57 1468.73 1247.57 1475.86 Q1247.57 1482.97 1249.37 1486.53 Q1251.2 1490.07 1254.81 1490.07 Q1258.45 1490.07 1260.25 1486.53 Q1262.08 1482.97 1262.08 1475.86 Q1262.08 1468.73 1260.25 1465.19 Q1258.45 1461.62 1254.81 1461.62 M1254.81 1457.92 Q1260.62 1457.92 1263.68 1462.53 Q1266.76 1467.11 1266.76 1475.86 Q1266.76 1484.59 1263.68 1489.19 Q1260.62 1493.78 1254.81 1493.78 Q1249 1493.78 1245.93 1489.19 Q1242.87 1484.59 1242.87 1475.86 Q1242.87 1467.11 1245.93 1462.53 Q1249 1457.92 1254.81 1457.92 Z" fill="#000000" fill-rule="evenodd" fill-opacity="1" /><path clip-path="url(#clip660)" d="M 0 0 M1266.76 1452.02 L1290.87 1452.02 L1290.87 1455.22 L1266.76 1455.22 L1266.76 1452.02 Z" fill="#000000" fill-rule="evenodd" fill-opacity="1" /><path clip-path="url(#clip660)" d="M 0 0 M1298.26 1462.5 L1311.52 1462.5 L1311.52 1465.69 L1293.69 1465.69 L1293.69 1462.5 Q1295.85 1460.26 1299.58 1456.5 Q1303.32 1452.72 1304.28 1451.63 Q1306.1 1449.58 1306.82 1448.16 Q1307.55 1446.74 1307.55 1445.36 Q1307.55 1443.12 1305.97 1441.71 Q1304.41 1440.3 1301.89 1440.3 Q1300.11 1440.3 1298.11 1440.92 Q1296.14 1441.54 1293.88 1442.8 L1293.88 1438.97 Q1296.17 1438.05 1298.17 1437.58 Q1300.16 1437.11 1301.82 1437.11 Q1306.18 1437.11 1308.78 1439.29 Q1311.37 1441.47 1311.37 1445.12 Q1311.37 1446.85 1310.71 1448.41 Q1310.07 1449.95 1308.36 1452.06 Q1307.89 1452.6 1305.37 1455.22 Q1302.85 1457.81 1298.26 1462.5 Z" fill="#000000" fill-rule="evenodd" fill-opacity="1" /><path clip-path="url(#clip660)" d="M 0 0 M1315.64 1460.92 L1319.61 1460.92 L1319.61 1465.69 L1315.64 1465.69 L1315.64 1460.92 Z" fill="#000000" fill-rule="evenodd" fill-opacity="1" /><path clip-path="url(#clip660)" d="M 0 0 M1331.85 1440.11 Q1328.92 1440.11 1327.43 1443.01 Q1325.97 1445.89 1325.97 1451.68 Q1325.97 1457.46 1327.43 1460.35 Q1328.92 1463.23 1331.85 1463.23 Q1334.81 1463.23 1336.27 1460.35 Q1337.76 1457.46 1337.76 1451.68 Q1337.76 1445.89 1336.27 1443.01 Q1334.81 1440.11 1331.85 1440.11 M1331.85 1437.11 Q1336.57 1437.11 1339.06 1440.85 Q1341.56 1444.57 1341.56 1451.68 Q1341.56 1458.77 1339.06 1462.51 Q1336.57 1466.24 1331.85 1466.24 Q1327.13 1466.24 1324.63 1462.51 Q1322.15 1458.77 1322.15 1451.68 Q1322.15 1444.57 1324.63 1440.85 Q1327.13 1437.11 1331.85 1437.11 Z" fill="#000000" fill-rule="evenodd" fill-opacity="1" /><path clip-path="url(#clip660)" d="M 0 0 M1725.94 1489.17 L1733.58 1489.17 L1733.58 1462.8 L1725.27 1464.47 L1725.27 1460.21 L1733.53 1458.54 L1738.21 1458.54 L1738.21 1489.17 L1745.85 1489.17 L1745.85 1493.1 L1725.94 1493.1 L1725.94 1489.17 Z" fill="#000000" fill-rule="evenodd" fill-opacity="1" /><path clip-path="url(#clip660)" d="M 0 0 M1760.91 1461.62 Q1757.3 1461.62 1755.47 1465.19 Q1753.67 1468.73 1753.67 1475.86 Q1753.67 1482.97 1755.47 1486.53 Q1757.3 1490.07 1760.91 1490.07 Q1764.55 1490.07 1766.35 1486.53 Q1768.18 1482.97 1768.18 1475.86 Q1768.18 1468.73 1766.35 1465.19 Q1764.55 1461.62 1760.91 1461.62 M1760.91 1457.92 Q1766.72 1457.92 1769.78 1462.53 Q1772.86 1467.11 1772.86 1475.86 Q1772.86 1484.59 1769.78 1489.19 Q1766.72 1493.78 1760.91 1493.78 Q1755.1 1493.78 1752.03 1489.19 Q1748.97 1484.59 1748.97 1475.86 Q1748.97 1467.11 1752.03 1462.53 Q1755.1 1457.92 1760.91 1457.92 Z" fill="#000000" fill-rule="evenodd" fill-opacity="1" /><path clip-path="url(#clip660)" d="M 0 0 M1772.86 1452.02 L1796.97 1452.02 L1796.97 1455.22 L1772.86 1455.22 L1772.86 1452.02 Z" fill="#000000" fill-rule="evenodd" fill-opacity="1" /><path clip-path="url(#clip660)" d="M 0 0 M1801.75 1462.5 L1807.95 1462.5 L1807.95 1441.07 L1801.2 1442.43 L1801.2 1438.97 L1807.92 1437.61 L1811.72 1437.61 L1811.72 1462.5 L1817.92 1462.5 L1817.92 1465.69 L1801.75 1465.69 L1801.75 1462.5 Z" fill="#000000" fill-rule="evenodd" fill-opacity="1" /><path clip-path="url(#clip660)" d="M 0 0 M1822.04 1460.92 L1826.01 1460.92 L1826.01 1465.69 L1822.04 1465.69 L1822.04 1460.92 Z" fill="#000000" fill-rule="evenodd" fill-opacity="1" /><path clip-path="url(#clip660)" d="M 0 0 M1830.17 1437.61 L1845.08 1437.61 L1845.08 1440.81 L1833.65 1440.81 L1833.65 1447.69 Q1834.47 1447.41 1835.3 1447.28 Q1836.13 1447.13 1836.96 1447.13 Q1841.66 1447.13 1844.4 1449.71 Q1847.15 1452.28 1847.15 1456.68 Q1847.15 1461.22 1844.33 1463.74 Q1841.51 1466.24 1836.37 1466.24 Q1834.6 1466.24 1832.76 1465.94 Q1830.94 1465.64 1828.98 1465.04 L1828.98 1461.22 Q1830.67 1462.14 1832.48 1462.59 Q1834.29 1463.04 1836.3 1463.04 Q1839.55 1463.04 1841.45 1461.33 Q1843.35 1459.62 1843.35 1456.68 Q1843.35 1453.75 1841.45 1452.04 Q1839.55 1450.33 1836.3 1450.33 Q1834.77 1450.33 1833.25 1450.67 Q1831.75 1451 1830.17 1451.72 L1830.17 1437.61 Z" fill="#000000" fill-rule="evenodd" fill-opacity="1" /><path clip-path="url(#clip660)" d="M 0 0 M2231.38 1489.17 L2239.02 1489.17 L2239.02 1462.8 L2230.71 1464.47 L2230.71 1460.21 L2238.97 1458.54 L2243.65 1458.54 L2243.65 1489.17 L2251.29 1489.17 L2251.29 1493.1 L2231.38 1493.1 L2231.38 1489.17 Z" fill="#000000" fill-rule="evenodd" fill-opacity="1" /><path clip-path="url(#clip660)" d="M 0 0 M2266.36 1461.62 Q2262.75 1461.62 2260.92 1465.19 Q2259.11 1468.73 2259.11 1475.86 Q2259.11 1482.97 2260.92 1486.53 Q2262.75 1490.07 2266.36 1490.07 Q2269.99 1490.07 2271.8 1486.53 Q2273.62 1482.97 2273.62 1475.86 Q2273.62 1468.73 2271.8 1465.19 Q2269.99 1461.62 2266.36 1461.62 M2266.36 1457.92 Q2272.17 1457.92 2275.22 1462.53 Q2278.3 1467.11 2278.3 1475.86 Q2278.3 1484.59 2275.22 1489.19 Q2272.17 1493.78 2266.36 1493.78 Q2260.55 1493.78 2257.47 1489.19 Q2254.41 1484.59 2254.41 1475.86 Q2254.41 1467.11 2257.47 1462.53 Q2260.55 1457.92 2266.36 1457.92 Z" fill="#000000" fill-rule="evenodd" fill-opacity="1" /><path clip-path="url(#clip660)" d="M 0 0 M2278.3 1452.02 L2302.41 1452.02 L2302.41 1455.22 L2278.3 1455.22 L2278.3 1452.02 Z" fill="#000000" fill-rule="evenodd" fill-opacity="1" /><path clip-path="url(#clip660)" d="M 0 0 M2307.19 1462.5 L2313.4 1462.5 L2313.4 1441.07 L2306.64 1442.43 L2306.64 1438.97 L2313.36 1437.61 L2317.16 1437.61 L2317.16 1462.5 L2323.36 1462.5 L2323.36 1465.69 L2307.19 1465.69 L2307.19 1462.5 Z" fill="#000000" fill-rule="evenodd" fill-opacity="1" /><path clip-path="url(#clip660)" d="M 0 0 M2327.48 1460.92 L2331.45 1460.92 L2331.45 1465.69 L2327.48 1465.69 L2327.48 1460.92 Z" fill="#000000" fill-rule="evenodd" fill-opacity="1" /><path clip-path="url(#clip660)" d="M 0 0 M2343.7 1440.11 Q2340.76 1440.11 2339.28 1443.01 Q2337.81 1445.89 2337.81 1451.68 Q2337.81 1457.46 2339.28 1460.35 Q2340.76 1463.23 2343.7 1463.23 Q2346.65 1463.23 2348.12 1460.35 Q2349.6 1457.46 2349.6 1451.68 Q2349.6 1445.89 2348.12 1443.01 Q2346.65 1440.11 2343.7 1440.11 M2343.7 1437.11 Q2348.42 1437.11 2350.9 1440.85 Q2353.4 1444.57 2353.4 1451.68 Q2353.4 1458.77 2350.9 1462.51 Q2348.42 1466.24 2343.7 1466.24 Q2338.97 1466.24 2336.47 1462.51 Q2333.99 1458.77 2333.99 1451.68 Q2333.99 1444.57 2336.47 1440.85 Q2338.97 1437.11 2343.7 1437.11 Z" fill="#000000" fill-rule="evenodd" fill-opacity="1" /><path clip-path="url(#clip660)" d="M 0 0 M1173.13 1526.54 L1179.34 1526.54 L1190.48 1556.46 L1201.62 1526.54 L1207.82 1526.54 L1194.46 1562.19 L1186.5 1562.19 L1173.13 1526.54 Z" fill="#000000" fill-rule="evenodd" fill-opacity="1" /><path clip-path="url(#clip660)" d="M 0 0 M1241.05 1573.01 L1241.05 1577.56 L1207.19 1577.56 L1207.19 1573.01 L1241.05 1573.01 Z" fill="#000000" fill-rule="evenodd" fill-opacity="1" /><path clip-path="url(#clip660)" d="M 0 0 M1261.01 1530.64 Q1256.3 1530.64 1253.56 1534.34 Q1250.83 1538 1250.83 1544.39 Q1250.83 1550.79 1253.53 1554.48 Q1256.27 1558.14 1261.01 1558.14 Q1265.69 1558.14 1268.43 1554.45 Q1271.16 1550.76 1271.16 1544.39 Q1271.16 1538.06 1268.43 1534.37 Q1265.69 1530.64 1261.01 1530.64 M1261.01 1525.68 Q1268.65 1525.68 1273.01 1530.64 Q1277.37 1535.61 1277.37 1544.39 Q1277.37 1553.15 1273.01 1558.14 Q1268.65 1563.11 1261.01 1563.11 Q1253.34 1563.11 1248.98 1558.14 Q1244.65 1553.15 1244.65 1544.39 Q1244.65 1535.61 1248.98 1530.64 Q1253.34 1525.68 1261.01 1525.68 Z" fill="#000000" fill-rule="evenodd" fill-opacity="1" /><path clip-path="url(#clip660)" d="M 0 0 M1289.18 1556.84 L1289.18 1575.74 L1283.29 1575.74 L1283.29 1526.54 L1289.18 1526.54 L1289.18 1531.95 Q1291.02 1528.77 1293.83 1527.24 Q1296.66 1525.68 1300.57 1525.68 Q1307.07 1525.68 1311.11 1530.83 Q1315.18 1535.99 1315.18 1544.39 Q1315.18 1552.8 1311.11 1557.95 Q1307.07 1563.11 1300.57 1563.11 Q1296.66 1563.11 1293.83 1561.58 Q1291.02 1560.02 1289.18 1556.84 M1309.1 1544.39 Q1309.1 1537.93 1306.43 1534.27 Q1303.79 1530.58 1299.14 1530.58 Q1294.49 1530.58 1291.82 1534.27 Q1289.18 1537.93 1289.18 1544.39 Q1289.18 1550.85 1291.82 1554.55 Q1294.49 1558.21 1299.14 1558.21 Q1303.79 1558.21 1306.43 1554.55 Q1309.1 1550.85 1309.1 1544.39 Z" fill="#000000" fill-rule="evenodd" fill-opacity="1" /><path clip-path="url(#clip660)" d="M 0 0 M1351.82 1542.9 L1351.82 1545.76 L1324.89 1545.76 Q1325.27 1551.81 1328.52 1554.99 Q1331.8 1558.14 1337.62 1558.14 Q1341 1558.14 1344.15 1557.32 Q1347.33 1556.49 1350.45 1554.83 L1350.45 1560.37 Q1347.3 1561.71 1343.99 1562.41 Q1340.68 1563.11 1337.27 1563.11 Q1328.74 1563.11 1323.74 1558.14 Q1318.78 1553.18 1318.78 1544.71 Q1318.78 1535.96 1323.49 1530.83 Q1328.23 1525.68 1336.25 1525.68 Q1343.45 1525.68 1347.62 1530.33 Q1351.82 1534.94 1351.82 1542.9 M1345.96 1541.18 Q1345.9 1536.37 1343.26 1533.51 Q1340.65 1530.64 1336.32 1530.64 Q1331.42 1530.64 1328.45 1533.41 Q1325.53 1536.18 1325.08 1541.21 L1345.96 1541.18 Z" fill="#000000" fill-rule="evenodd" fill-opacity="1" /><path clip-path="url(#clip660)" d="M 0 0 M1387.59 1540.67 L1387.59 1562.19 L1381.74 1562.19 L1381.74 1540.86 Q1381.74 1535.8 1379.76 1533.29 Q1377.79 1530.77 1373.84 1530.77 Q1369.1 1530.77 1366.36 1533.79 Q1363.63 1536.82 1363.63 1542.04 L1363.63 1562.19 L1357.74 1562.19 L1357.74 1526.54 L1363.63 1526.54 L1363.63 1532.08 Q1365.73 1528.86 1368.56 1527.27 Q1371.42 1525.68 1375.15 1525.68 Q1381.29 1525.68 1384.44 1529.5 Q1387.59 1533.29 1387.59 1540.67 Z" fill="#000000" fill-rule="evenodd" fill-opacity="1" /><polyline clip-path="url(#clip662)" style="stroke:#000000; stroke-width:2; stroke-opacity:0.1; fill:none" points="
  207.968,1291.23 2352.76,1291.23 
  "/>
<polyline clip-path="url(#clip662)" style="stroke:#000000; stroke-width:2; stroke-opacity:0.1; fill:none" points="
  207.968,1040.62 2352.76,1040.62 
  "/>
<polyline clip-path="url(#clip662)" style="stroke:#000000; stroke-width:2; stroke-opacity:0.1; fill:none" points="
  207.968,790.01 2352.76,790.01 
  "/>
<polyline clip-path="url(#clip662)" style="stroke:#000000; stroke-width:2; stroke-opacity:0.1; fill:none" points="
  207.968,539.402 2352.76,539.402 
  "/>
<polyline clip-path="url(#clip662)" style="stroke:#000000; stroke-width:2; stroke-opacity:0.1; fill:none" points="
  207.968,288.795 2352.76,288.795 
  "/>
<polyline clip-path="url(#clip660)" style="stroke:#000000; stroke-width:4; stroke-opacity:1; fill:none" points="
  207.968,1410.9 207.968,47.2441 
  "/>
<polyline clip-path="url(#clip660)" style="stroke:#000000; stroke-width:4; stroke-opacity:1; fill:none" points="
  207.968,1291.23 233.706,1291.23 
  "/>
<polyline clip-path="url(#clip660)" style="stroke:#000000; stroke-width:4; stroke-opacity:1; fill:none" points="
  207.968,1040.62 233.706,1040.62 
  "/>
<polyline clip-path="url(#clip660)" style="stroke:#000000; stroke-width:4; stroke-opacity:1; fill:none" points="
  207.968,790.01 233.706,790.01 
  "/>
<polyline clip-path="url(#clip660)" style="stroke:#000000; stroke-width:4; stroke-opacity:1; fill:none" points="
  207.968,539.402 233.706,539.402 
  "/>
<polyline clip-path="url(#clip660)" style="stroke:#000000; stroke-width:4; stroke-opacity:1; fill:none" points="
  207.968,288.795 233.706,288.795 
  "/>
<path clip-path="url(#clip660)" d="M 0 0 M116.089 1304.57 L123.728 1304.57 L123.728 1278.2 L115.418 1279.87 L115.418 1275.61 L123.681 1273.95 L128.357 1273.95 L128.357 1304.57 L135.996 1304.57 L135.996 1308.51 L116.089 1308.51 L116.089 1304.57 Z" fill="#000000" fill-rule="evenodd" fill-opacity="1" /><path clip-path="url(#clip660)" d="M 0 0 M141.066 1302.63 L145.95 1302.63 L145.95 1308.51 L141.066 1308.51 L141.066 1302.63 Z" fill="#000000" fill-rule="evenodd" fill-opacity="1" /><path clip-path="url(#clip660)" d="M 0 0 M151.066 1273.95 L169.422 1273.95 L169.422 1277.88 L155.348 1277.88 L155.348 1286.35 Q156.366 1286.01 157.385 1285.84 Q158.403 1285.66 159.422 1285.66 Q165.209 1285.66 168.589 1288.83 Q171.968 1292 171.968 1297.42 Q171.968 1303 168.496 1306.1 Q165.024 1309.18 158.704 1309.18 Q156.528 1309.18 154.26 1308.81 Q152.015 1308.44 149.607 1307.7 L149.607 1303 Q151.691 1304.13 153.913 1304.69 Q156.135 1305.24 158.612 1305.24 Q162.616 1305.24 164.954 1303.13 Q167.292 1301.03 167.292 1297.42 Q167.292 1293.81 164.954 1291.7 Q162.616 1289.59 158.612 1289.59 Q156.737 1289.59 154.862 1290.01 Q153.01 1290.43 151.066 1291.31 L151.066 1273.95 Z" fill="#000000" fill-rule="evenodd" fill-opacity="1" /><path clip-path="url(#clip660)" d="M 0 0 M114.931 1053.96 L122.57 1053.96 L122.57 1027.6 L114.26 1029.26 L114.26 1025 L122.524 1023.34 L127.2 1023.34 L127.2 1053.96 L134.839 1053.96 L134.839 1057.9 L114.931 1057.9 L114.931 1053.96 Z" fill="#000000" fill-rule="evenodd" fill-opacity="1" /><path clip-path="url(#clip660)" d="M 0 0 M139.908 1052.02 L144.792 1052.02 L144.792 1057.9 L139.908 1057.9 L139.908 1052.02 Z" fill="#000000" fill-rule="evenodd" fill-opacity="1" /><path clip-path="url(#clip660)" d="M 0 0 M160.44 1038.75 Q157.292 1038.75 155.44 1040.91 Q153.612 1043.06 153.612 1046.81 Q153.612 1050.54 155.44 1052.71 Q157.292 1054.87 160.44 1054.87 Q163.589 1054.87 165.417 1052.71 Q167.269 1050.54 167.269 1046.81 Q167.269 1043.06 165.417 1040.91 Q163.589 1038.75 160.44 1038.75 M169.723 1024.1 L169.723 1028.36 Q167.964 1027.53 166.158 1027.09 Q164.376 1026.65 162.616 1026.65 Q157.987 1026.65 155.533 1029.77 Q153.103 1032.9 152.755 1039.22 Q154.121 1037.2 156.181 1036.14 Q158.241 1035.05 160.718 1035.05 Q165.927 1035.05 168.936 1038.22 Q171.968 1041.37 171.968 1046.81 Q171.968 1052.13 168.82 1055.35 Q165.672 1058.57 160.44 1058.57 Q154.445 1058.57 151.274 1053.99 Q148.103 1049.38 148.103 1040.65 Q148.103 1032.46 151.991 1027.6 Q155.88 1022.71 162.431 1022.71 Q164.19 1022.71 165.973 1023.06 Q167.778 1023.41 169.723 1024.1 Z" fill="#000000" fill-rule="evenodd" fill-opacity="1" /><path clip-path="url(#clip660)" d="M 0 0 M115.996 803.355 L123.635 803.355 L123.635 776.989 L115.325 778.656 L115.325 774.397 L123.589 772.73 L128.265 772.73 L128.265 803.355 L135.904 803.355 L135.904 807.29 L115.996 807.29 L115.996 803.355 Z" fill="#000000" fill-rule="evenodd" fill-opacity="1" /><path clip-path="url(#clip660)" d="M 0 0 M140.973 801.41 L145.857 801.41 L145.857 807.29 L140.973 807.29 L140.973 801.41 Z" fill="#000000" fill-rule="evenodd" fill-opacity="1" /><path clip-path="url(#clip660)" d="M 0 0 M149.746 772.73 L171.968 772.73 L171.968 774.721 L159.422 807.29 L154.538 807.29 L166.343 776.665 L149.746 776.665 L149.746 772.73 Z" fill="#000000" fill-rule="evenodd" fill-opacity="1" /><path clip-path="url(#clip660)" d="M 0 0 M115.186 552.747 L122.825 552.747 L122.825 526.381 L114.515 528.048 L114.515 523.789 L122.779 522.122 L127.455 522.122 L127.455 552.747 L135.093 552.747 L135.093 556.682 L115.186 556.682 L115.186 552.747 Z" fill="#000000" fill-rule="evenodd" fill-opacity="1" /><path clip-path="url(#clip660)" d="M 0 0 M140.163 550.803 L145.047 550.803 L145.047 556.682 L140.163 556.682 L140.163 550.803 Z" fill="#000000" fill-rule="evenodd" fill-opacity="1" /><path clip-path="url(#clip660)" d="M 0 0 M160.116 540.27 Q156.783 540.27 154.862 542.053 Q152.964 543.835 152.964 546.96 Q152.964 550.085 154.862 551.867 Q156.783 553.65 160.116 553.65 Q163.45 553.65 165.371 551.867 Q167.292 550.062 167.292 546.96 Q167.292 543.835 165.371 542.053 Q163.473 540.27 160.116 540.27 M155.44 538.28 Q152.431 537.539 150.741 535.479 Q149.075 533.418 149.075 530.456 Q149.075 526.312 152.015 523.905 Q154.978 521.497 160.116 521.497 Q165.278 521.497 168.218 523.905 Q171.158 526.312 171.158 530.456 Q171.158 533.418 169.468 535.479 Q167.802 537.539 164.815 538.28 Q168.195 539.067 170.07 541.358 Q171.968 543.65 171.968 546.96 Q171.968 551.983 168.889 554.668 Q165.834 557.354 160.116 557.354 Q154.399 557.354 151.32 554.668 Q148.265 551.983 148.265 546.96 Q148.265 543.65 150.163 541.358 Q152.061 539.067 155.44 538.28 M153.728 530.895 Q153.728 533.581 155.394 535.085 Q157.084 536.59 160.116 536.59 Q163.126 536.59 164.815 535.085 Q166.528 533.581 166.528 530.895 Q166.528 528.21 164.815 526.706 Q163.126 525.201 160.116 525.201 Q157.084 525.201 155.394 526.706 Q153.728 528.21 153.728 530.895 Z" fill="#000000" fill-rule="evenodd" fill-opacity="1" /><path clip-path="url(#clip660)" d="M 0 0 M115.279 302.139 L122.918 302.139 L122.918 275.774 L114.607 277.44 L114.607 273.181 L122.871 271.515 L127.547 271.515 L127.547 302.139 L135.186 302.139 L135.186 306.075 L115.279 306.075 L115.279 302.139 Z" fill="#000000" fill-rule="evenodd" fill-opacity="1" /><path clip-path="url(#clip660)" d="M 0 0 M140.255 300.195 L145.14 300.195 L145.14 306.075 L140.255 306.075 L140.255 300.195 Z" fill="#000000" fill-rule="evenodd" fill-opacity="1" /><path clip-path="url(#clip660)" d="M 0 0 M150.348 305.357 L150.348 301.098 Q152.107 301.931 153.913 302.371 Q155.718 302.811 157.454 302.811 Q162.084 302.811 164.515 299.709 Q166.968 296.584 167.315 290.241 Q165.973 292.232 163.913 293.297 Q161.852 294.362 159.353 294.362 Q154.167 294.362 151.135 291.237 Q148.126 288.089 148.126 282.649 Q148.126 277.325 151.274 274.107 Q154.422 270.89 159.653 270.89 Q165.649 270.89 168.797 275.496 Q171.968 280.079 171.968 288.829 Q171.968 297.001 168.079 301.885 Q164.214 306.746 157.663 306.746 Q155.903 306.746 154.098 306.399 Q152.292 306.051 150.348 305.357 M159.653 290.704 Q162.802 290.704 164.63 288.552 Q166.482 286.399 166.482 282.649 Q166.482 278.922 164.63 276.769 Q162.802 274.593 159.653 274.593 Q156.505 274.593 154.653 276.769 Q152.825 278.922 152.825 282.649 Q152.825 286.399 154.653 288.552 Q156.505 290.704 159.653 290.704 Z" fill="#000000" fill-rule="evenodd" fill-opacity="1" /><path clip-path="url(#clip660)" d="M 0 0 M59.1993 815.533 Q55.2526 813.336 53.3747 810.281 Q51.4968 807.225 51.4968 803.088 Q51.4968 797.518 55.4117 794.494 Q59.2948 791.47 66.4881 791.47 L88.0042 791.47 L88.0042 797.358 L66.679 797.358 Q61.5546 797.358 59.072 799.173 Q56.5894 800.987 56.5894 804.711 Q56.5894 809.262 59.6131 811.904 Q62.6368 814.546 67.8567 814.546 L88.0042 814.546 L88.0042 820.434 L66.679 820.434 Q61.5228 820.434 59.072 822.248 Q56.5894 824.063 56.5894 827.85 Q56.5894 832.338 59.6449 834.98 Q62.6686 837.622 67.8567 837.622 L88.0042 837.622 L88.0042 843.51 L52.3562 843.51 L52.3562 837.622 L57.8944 837.622 Q54.616 835.616 53.0564 832.815 Q51.4968 830.015 51.4968 826.163 Q51.4968 822.28 53.4702 819.575 Q55.4436 816.838 59.1993 815.533 Z" fill="#000000" fill-rule="evenodd" fill-opacity="1" /><path clip-path="url(#clip660)" d="M 0 0 M52.3562 785.327 L52.3562 779.471 L88.0042 779.471 L88.0042 785.327 L52.3562 785.327 M38.479 785.327 L38.479 779.471 L45.895 779.471 L45.895 785.327 L38.479 785.327 Z" fill="#000000" fill-rule="evenodd" fill-opacity="1" /><path clip-path="url(#clip660)" d="M 0 0 M66.4881 743.696 L88.0042 743.696 L88.0042 749.552 L66.679 749.552 Q61.6183 749.552 59.1038 751.525 Q56.5894 753.499 56.5894 757.446 Q56.5894 762.188 59.6131 764.925 Q62.6368 767.662 67.8567 767.662 L88.0042 767.662 L88.0042 773.551 L52.3562 773.551 L52.3562 767.662 L57.8944 767.662 Q54.6797 765.562 53.0883 762.729 Q51.4968 759.864 51.4968 756.141 Q51.4968 749.998 55.3163 746.847 Q59.1038 743.696 66.4881 743.696 Z" fill="#000000" fill-rule="evenodd" fill-opacity="1" /><path clip-path="url(#clip660)" d="M 0 0 M98.8259 710.467 L103.377 710.467 L103.377 744.332 L98.8259 744.332 L98.8259 710.467 Z" fill="#000000" fill-rule="evenodd" fill-opacity="1" /><path clip-path="url(#clip660)" d="M 0 0 M57.7671 680.866 L38.479 680.866 L38.479 675.01 L88.0042 675.01 L88.0042 680.866 L82.657 680.866 Q85.8398 682.712 87.3994 685.545 Q88.9272 688.346 88.9272 692.292 Q88.9272 698.754 83.771 702.828 Q78.6147 706.87 70.212 706.87 Q61.8093 706.87 56.6531 702.828 Q51.4968 698.754 51.4968 692.292 Q51.4968 688.346 53.0564 685.545 Q54.5842 682.712 57.7671 680.866 M70.212 700.823 Q76.6732 700.823 80.3653 698.181 Q84.0256 695.507 84.0256 690.86 Q84.0256 686.213 80.3653 683.54 Q76.6732 680.866 70.212 680.866 Q63.7508 680.866 60.0905 683.54 Q56.3984 686.213 56.3984 690.86 Q56.3984 695.507 60.0905 698.181 Q63.7508 700.823 70.212 700.823 Z" fill="#000000" fill-rule="evenodd" fill-opacity="1" /><path clip-path="url(#clip660)" d="M 0 0 M52.3562 668.867 L52.3562 663.01 L88.0042 663.01 L88.0042 668.867 L52.3562 668.867 M38.479 668.867 L38.479 663.01 L45.895 663.01 L45.895 668.867 L38.479 668.867 Z" fill="#000000" fill-rule="evenodd" fill-opacity="1" /><path clip-path="url(#clip660)" d="M 0 0 M38.479 638.821 L43.3487 638.821 L43.3487 644.422 Q43.3487 647.573 44.6219 648.815 Q45.895 650.024 49.2052 650.024 L52.3562 650.024 L52.3562 640.38 L56.9077 640.38 L56.9077 650.024 L88.0042 650.024 L88.0042 655.912 L56.9077 655.912 L56.9077 661.514 L52.3562 661.514 L52.3562 655.912 L49.8736 655.912 Q43.9216 655.912 41.2162 653.143 Q38.479 650.374 38.479 644.359 L38.479 638.821 Z" fill="#000000" fill-rule="evenodd" fill-opacity="1" /><path clip-path="url(#clip660)" d="M 0 0 M38.479 614.631 L43.3487 614.631 L43.3487 620.233 Q43.3487 623.384 44.6219 624.625 Q45.895 625.835 49.2052 625.835 L52.3562 625.835 L52.3562 616.19 L56.9077 616.19 L56.9077 625.835 L88.0042 625.835 L88.0042 631.723 L56.9077 631.723 L56.9077 637.325 L52.3562 637.325 L52.3562 631.723 L49.8736 631.723 Q43.9216 631.723 41.2162 628.954 Q38.479 626.185 38.479 620.169 L38.479 614.631 Z" fill="#000000" fill-rule="evenodd" fill-opacity="1" /><polyline clip-path="url(#clip662)" style="stroke:#009af9; stroke-width:20; stroke-opacity:1; fill:none" stroke-dasharray="80, 50" points="
  268.67,85.838 1280.36,702.848 2292.05,1372.3 
  "/>
<path clip-path="url(#clip660)" d="
M1991.93 213.659 L2281.26 213.659 L2281.26 92.6992 L1991.93 92.6992  Z
  " fill="#ffffff" fill-rule="evenodd" fill-opacity="1"/>
<polyline clip-path="url(#clip660)" style="stroke:#000000; stroke-width:4; stroke-opacity:1; fill:none" points="
  1991.93,213.659 2281.26,213.659 2281.26,92.6992 1991.93,92.6992 1991.93,213.659 
  "/>
<polyline clip-path="url(#clip660)" style="stroke:#009af9; stroke-width:4; stroke-opacity:1; fill:none" stroke-dasharray="16, 10" points="
  2015.77,153.179 2158.75,153.179 
  "/>
<path clip-path="url(#clip660)" d="M 0 0 M2196.43 172.867 Q2194.62 177.496 2192.91 178.908 Q2191.19 180.32 2188.32 180.32 L2184.92 180.32 L2184.92 176.755 L2187.42 176.755 Q2189.18 176.755 2190.15 175.922 Q2191.12 175.089 2192.3 171.987 L2193.07 170.043 L2182.58 144.533 L2187.1 144.533 L2195.2 164.811 L2203.3 144.533 L2207.81 144.533 L2196.43 172.867 Z" fill="#000000" fill-rule="evenodd" fill-opacity="1" /><path clip-path="url(#clip660)" d="M 0 0 M2213.69 166.524 L2221.33 166.524 L2221.33 140.158 L2213.02 141.825 L2213.02 137.566 L2221.29 135.899 L2225.96 135.899 L2225.96 166.524 L2233.6 166.524 L2233.6 170.459 L2213.69 170.459 L2213.69 166.524 Z" fill="#000000" fill-rule="evenodd" fill-opacity="1" /></svg>
