<?xml version="1.0" encoding="utf-8"?>
<svg xmlns="http://www.w3.org/2000/svg" xmlns:xlink="http://www.w3.org/1999/xlink" width="600" height="400" viewBox="0 0 2400 1600">
<defs>
  <clipPath id="clip770">
    <rect x="0" y="0" width="2400" height="1600"/>
  </clipPath>
</defs>
<path clip-path="url(#clip770)" d="
M0 1600 L2400 1600 L2400 0 L0 0  Z
  " fill="#ffffff" fill-rule="evenodd" fill-opacity="1"/>
<defs>
  <clipPath id="clip771">
    <rect x="480" y="0" width="1681" height="1600"/>
  </clipPath>
</defs>
<path clip-path="url(#clip770)" d="
M224.866 1410.9 L2352.76 1410.9 L2352.76 47.2441 L224.866 47.2441  Z
  " fill="#ffffff" fill-rule="evenodd" fill-opacity="1"/>
<defs>
  <clipPath id="clip772">
    <rect x="224" y="47" width="2129" height="1365"/>
  </clipPath>
</defs>
<polyline clip-path="url(#clip772)" style="stroke:#000000; stroke-width:2; stroke-opacity:0.1; fill:none" points="
  440.975,1410.9 440.975,47.2441 
  "/>
<polyline clip-path="url(#clip772)" style="stroke:#000000; stroke-width:2; stroke-opacity:0.1; fill:none" points="
  749.568,1410.9 749.568,47.2441 
  "/>
<polyline clip-path="url(#clip772)" style="stroke:#000000; stroke-width:2; stroke-opacity:0.1; fill:none" points="
  1058.16,1410.9 1058.16,47.2441 
  "/>
<polyline clip-path="url(#clip772)" style="stroke:#000000; stroke-width:2; stroke-opacity:0.1; fill:none" points="
  1366.75,1410.9 1366.75,47.2441 
  "/>
<polyline clip-path="url(#clip772)" style="stroke:#000000; stroke-width:2; stroke-opacity:0.1; fill:none" points="
  1675.35,1410.9 1675.35,47.2441 
  "/>
<polyline clip-path="url(#clip772)" style="stroke:#000000; stroke-width:2; stroke-opacity:0.1; fill:none" points="
  1983.94,1410.9 1983.94,47.2441 
  "/>
<polyline clip-path="url(#clip772)" style="stroke:#000000; stroke-width:2; stroke-opacity:0.1; fill:none" points="
  2292.53,1410.9 2292.53,47.2441 
  "/>
<polyline clip-path="url(#clip770)" style="stroke:#000000; stroke-width:4; stroke-opacity:1; fill:none" points="
  224.866,1410.9 2352.76,1410.9 
  "/>
<polyline clip-path="url(#clip770)" style="stroke:#000000; stroke-width:4; stroke-opacity:1; fill:none" points="
  440.975,1410.9 440.975,1394.53 
  "/>
<polyline clip-path="url(#clip770)" style="stroke:#000000; stroke-width:4; stroke-opacity:1; fill:none" points="
  749.568,1410.9 749.568,1394.53 
  "/>
<polyline clip-path="url(#clip770)" style="stroke:#000000; stroke-width:4; stroke-opacity:1; fill:none" points="
  1058.16,1410.9 1058.16,1394.53 
  "/>
<polyline clip-path="url(#clip770)" style="stroke:#000000; stroke-width:4; stroke-opacity:1; fill:none" points="
  1366.75,1410.9 1366.75,1394.53 
  "/>
<polyline clip-path="url(#clip770)" style="stroke:#000000; stroke-width:4; stroke-opacity:1; fill:none" points="
  1675.35,1410.9 1675.35,1394.53 
  "/>
<polyline clip-path="url(#clip770)" style="stroke:#000000; stroke-width:4; stroke-opacity:1; fill:none" points="
  1983.94,1410.9 1983.94,1394.53 
  "/>
<polyline clip-path="url(#clip770)" style="stroke:#000000; stroke-width:4; stroke-opacity:1; fill:none" points="
  2292.53,1410.9 2292.53,1394.53 
  "/>
<path clip-path="url(#clip770)" d="M 0 0 M380.451 1489.17 L388.09 1489.17 L388.09 1462.8 L379.78 1464.47 L379.78 1460.21 L388.044 1458.54 L392.72 1458.54 L392.72 1489.17 L400.358 1489.17 L400.358 1493.1 L380.451 1493.1 L380.451 1489.17 Z" fill="#000000" fill-rule="evenodd" fill-opacity="1" /><path clip-path="url(#clip770)" d="M 0 0 M415.428 1461.62 Q411.817 1461.62 409.988 1465.19 Q408.182 1468.73 408.182 1475.86 Q408.182 1482.97 409.988 1486.53 Q411.817 1490.07 415.428 1490.07 Q419.062 1490.07 420.868 1486.53 Q422.696 1482.97 422.696 1475.86 Q422.696 1468.73 420.868 1465.19 Q419.062 1461.62 415.428 1461.62 M415.428 1457.92 Q421.238 1457.92 424.293 1462.53 Q427.372 1467.11 427.372 1475.86 Q427.372 1484.59 424.293 1489.19 Q421.238 1493.78 415.428 1493.78 Q409.618 1493.78 406.539 1489.19 Q403.483 1484.59 403.483 1475.86 Q403.483 1467.11 406.539 1462.53 Q409.618 1457.92 415.428 1457.92 Z" fill="#000000" fill-rule="evenodd" fill-opacity="1" /><path clip-path="url(#clip770)" d="M 0 0 M427.372 1452.02 L451.484 1452.02 L451.484 1455.22 L427.372 1455.22 L427.372 1452.02 Z" fill="#000000" fill-rule="evenodd" fill-opacity="1" /><path clip-path="url(#clip770)" d="M 0 0 M463.728 1440.11 Q460.794 1440.11 459.308 1443.01 Q457.841 1445.89 457.841 1451.68 Q457.841 1457.46 459.308 1460.35 Q460.794 1463.23 463.728 1463.23 Q466.68 1463.23 468.147 1460.35 Q469.633 1457.46 469.633 1451.68 Q469.633 1445.89 468.147 1443.01 Q466.68 1440.11 463.728 1440.11 M463.728 1437.11 Q468.448 1437.11 470.931 1440.85 Q473.432 1444.57 473.432 1451.68 Q473.432 1458.77 470.931 1462.51 Q468.448 1466.24 463.728 1466.24 Q459.007 1466.24 456.505 1462.51 Q454.023 1458.77 454.023 1451.68 Q454.023 1444.57 456.505 1440.85 Q459.007 1437.11 463.728 1437.11 Z" fill="#000000" fill-rule="evenodd" fill-opacity="1" /><path clip-path="url(#clip770)" d="M 0 0 M477.551 1460.92 L481.52 1460.92 L481.52 1465.69 L477.551 1465.69 L477.551 1460.92 Z" fill="#000000" fill-rule="evenodd" fill-opacity="1" /><path clip-path="url(#clip770)" d="M 0 0 M488.911 1462.5 L502.171 1462.5 L502.171 1465.69 L484.341 1465.69 L484.341 1462.5 Q486.504 1460.26 490.228 1456.5 Q493.97 1452.72 494.93 1451.63 Q496.754 1449.58 497.469 1448.16 Q498.202 1446.74 498.202 1445.36 Q498.202 1443.12 496.622 1441.71 Q495.061 1440.3 492.541 1440.3 Q490.754 1440.3 488.761 1440.92 Q486.786 1441.54 484.529 1442.8 L484.529 1438.97 Q486.824 1438.05 488.817 1437.58 Q490.811 1437.11 492.466 1437.11 Q496.829 1437.11 499.425 1439.29 Q502.02 1441.47 502.02 1445.12 Q502.02 1446.85 501.362 1448.41 Q500.722 1449.95 499.011 1452.06 Q498.541 1452.6 496.021 1455.22 Q493.5 1457.81 488.911 1462.5 Z" fill="#000000" fill-rule="evenodd" fill-opacity="1" /><path clip-path="url(#clip770)" d="M 0 0 M701.72 1489.17 L709.359 1489.17 L709.359 1462.8 L701.049 1464.47 L701.049 1460.21 L709.313 1458.54 L713.989 1458.54 L713.989 1489.17 L721.628 1489.17 L721.628 1493.1 L701.72 1493.1 L701.72 1489.17 Z" fill="#000000" fill-rule="evenodd" fill-opacity="1" /><path clip-path="url(#clip770)" d="M 0 0 M736.697 1461.62 Q733.086 1461.62 731.257 1465.19 Q729.452 1468.73 729.452 1475.86 Q729.452 1482.97 731.257 1486.53 Q733.086 1490.07 736.697 1490.07 Q740.331 1490.07 742.137 1486.53 Q743.966 1482.97 743.966 1475.86 Q743.966 1468.73 742.137 1465.19 Q740.331 1461.62 736.697 1461.62 M736.697 1457.92 Q742.507 1457.92 745.563 1462.53 Q748.641 1467.11 748.641 1475.86 Q748.641 1484.59 745.563 1489.19 Q742.507 1493.78 736.697 1493.78 Q730.887 1493.78 727.808 1489.19 Q724.753 1484.59 724.753 1475.86 Q724.753 1467.11 727.808 1462.53 Q730.887 1457.92 736.697 1457.92 Z" fill="#000000" fill-rule="evenodd" fill-opacity="1" /><path clip-path="url(#clip770)" d="M 0 0 M758.346 1440.11 Q755.412 1440.11 753.926 1443.01 Q752.459 1445.89 752.459 1451.68 Q752.459 1457.46 753.926 1460.35 Q755.412 1463.23 758.346 1463.23 Q761.299 1463.23 762.766 1460.35 Q764.252 1457.46 764.252 1451.68 Q764.252 1445.89 762.766 1443.01 Q761.299 1440.11 758.346 1440.11 M758.346 1437.11 Q763.067 1437.11 765.55 1440.85 Q768.051 1444.57 768.051 1451.68 Q768.051 1458.77 765.55 1462.51 Q763.067 1466.24 758.346 1466.24 Q753.626 1466.24 751.124 1462.51 Q748.641 1458.77 748.641 1451.68 Q748.641 1444.57 751.124 1440.85 Q753.626 1437.11 758.346 1437.11 Z" fill="#000000" fill-rule="evenodd" fill-opacity="1" /><path clip-path="url(#clip770)" d="M 0 0 M772.17 1460.92 L776.138 1460.92 L776.138 1465.69 L772.17 1465.69 L772.17 1460.92 Z" fill="#000000" fill-rule="evenodd" fill-opacity="1" /><path clip-path="url(#clip770)" d="M 0 0 M788.382 1440.11 Q785.448 1440.11 783.962 1443.01 Q782.495 1445.89 782.495 1451.68 Q782.495 1457.46 783.962 1460.35 Q785.448 1463.23 788.382 1463.23 Q791.335 1463.23 792.802 1460.35 Q794.288 1457.46 794.288 1451.68 Q794.288 1445.89 792.802 1443.01 Q791.335 1440.11 788.382 1440.11 M788.382 1437.11 Q793.103 1437.11 795.586 1440.85 Q798.087 1444.57 798.087 1451.68 Q798.087 1458.77 795.586 1462.51 Q793.103 1466.24 788.382 1466.24 Q783.662 1466.24 781.16 1462.51 Q778.677 1458.77 778.677 1451.68 Q778.677 1444.57 781.16 1440.85 Q783.662 1437.11 788.382 1437.11 Z" fill="#000000" fill-rule="evenodd" fill-opacity="1" /><path clip-path="url(#clip770)" d="M 0 0 M1010.96 1489.17 L1018.6 1489.17 L1018.6 1462.8 L1010.29 1464.47 L1010.29 1460.21 L1018.55 1458.54 L1023.23 1458.54 L1023.23 1489.17 L1030.87 1489.17 L1030.87 1493.1 L1010.96 1493.1 L1010.96 1489.17 Z" fill="#000000" fill-rule="evenodd" fill-opacity="1" /><path clip-path="url(#clip770)" d="M 0 0 M1045.94 1461.62 Q1042.33 1461.62 1040.5 1465.19 Q1038.69 1468.73 1038.69 1475.86 Q1038.69 1482.97 1040.5 1486.53 Q1042.33 1490.07 1045.94 1490.07 Q1049.57 1490.07 1051.38 1486.53 Q1053.21 1482.97 1053.21 1475.86 Q1053.21 1468.73 1051.38 1465.19 Q1049.57 1461.62 1045.94 1461.62 M1045.94 1457.92 Q1051.75 1457.92 1054.8 1462.53 Q1057.88 1467.11 1057.88 1475.86 Q1057.88 1484.59 1054.8 1489.19 Q1051.75 1493.78 1045.94 1493.78 Q1040.13 1493.78 1037.05 1489.19 Q1033.99 1484.59 1033.99 1475.86 Q1033.99 1467.11 1037.05 1462.53 Q1040.13 1457.92 1045.94 1457.92 Z" fill="#000000" fill-rule="evenodd" fill-opacity="1" /><path clip-path="url(#clip770)" d="M 0 0 M1067.59 1440.11 Q1064.65 1440.11 1063.17 1443.01 Q1061.7 1445.89 1061.7 1451.68 Q1061.7 1457.46 1063.17 1460.35 Q1064.65 1463.23 1067.59 1463.23 Q1070.54 1463.23 1072.01 1460.35 Q1073.49 1457.46 1073.49 1451.68 Q1073.49 1445.89 1072.01 1443.01 Q1070.54 1440.11 1067.59 1440.11 M1067.59 1437.11 Q1072.31 1437.11 1074.79 1440.85 Q1077.29 1444.57 1077.29 1451.68 Q1077.29 1458.77 1074.79 1462.51 Q1072.31 1466.24 1067.59 1466.24 Q1062.87 1466.24 1060.37 1462.51 Q1057.88 1458.77 1057.88 1451.68 Q1057.88 1444.57 1060.37 1440.85 Q1062.87 1437.11 1067.59 1437.11 Z" fill="#000000" fill-rule="evenodd" fill-opacity="1" /><path clip-path="url(#clip770)" d="M 0 0 M1081.41 1460.92 L1085.38 1460.92 L1085.38 1465.69 L1081.41 1465.69 L1081.41 1460.92 Z" fill="#000000" fill-rule="evenodd" fill-opacity="1" /><path clip-path="url(#clip770)" d="M 0 0 M1092.77 1462.5 L1106.03 1462.5 L1106.03 1465.69 L1088.2 1465.69 L1088.2 1462.5 Q1090.36 1460.26 1094.09 1456.5 Q1097.83 1452.72 1098.79 1451.63 Q1100.61 1449.58 1101.33 1448.16 Q1102.06 1446.74 1102.06 1445.36 Q1102.06 1443.12 1100.48 1441.71 Q1098.92 1440.3 1096.4 1440.3 Q1094.61 1440.3 1092.62 1440.92 Q1090.65 1441.54 1088.39 1442.8 L1088.39 1438.97 Q1090.68 1438.05 1092.68 1437.58 Q1094.67 1437.11 1096.33 1437.11 Q1100.69 1437.11 1103.29 1439.29 Q1105.88 1441.47 1105.88 1445.12 Q1105.88 1446.85 1105.22 1448.41 Q1104.58 1449.95 1102.87 1452.06 Q1102.4 1452.6 1099.88 1455.22 Q1097.36 1457.81 1092.77 1462.5 Z" fill="#000000" fill-rule="evenodd" fill-opacity="1" /><path clip-path="url(#clip770)" d="M 0 0 M1318.71 1489.17 L1326.35 1489.17 L1326.35 1462.8 L1318.04 1464.47 L1318.04 1460.21 L1326.3 1458.54 L1330.98 1458.54 L1330.98 1489.17 L1338.62 1489.17 L1338.62 1493.1 L1318.71 1493.1 L1318.71 1489.17 Z" fill="#000000" fill-rule="evenodd" fill-opacity="1" /><path clip-path="url(#clip770)" d="M 0 0 M1353.69 1461.62 Q1350.07 1461.62 1348.25 1465.19 Q1346.44 1468.73 1346.44 1475.86 Q1346.44 1482.97 1348.25 1486.53 Q1350.07 1490.07 1353.69 1490.07 Q1357.32 1490.07 1359.13 1486.53 Q1360.95 1482.97 1360.95 1475.86 Q1360.95 1468.73 1359.13 1465.19 Q1357.32 1461.62 1353.69 1461.62 M1353.69 1457.92 Q1359.5 1457.92 1362.55 1462.53 Q1365.63 1467.11 1365.63 1475.86 Q1365.63 1484.59 1362.55 1489.19 Q1359.5 1493.78 1353.69 1493.78 Q1347.88 1493.78 1344.8 1489.19 Q1341.74 1484.59 1341.74 1475.86 Q1341.74 1467.11 1344.8 1462.53 Q1347.88 1457.92 1353.69 1457.92 Z" fill="#000000" fill-rule="evenodd" fill-opacity="1" /><path clip-path="url(#clip770)" d="M 0 0 M1375.33 1440.11 Q1372.4 1440.11 1370.91 1443.01 Q1369.45 1445.89 1369.45 1451.68 Q1369.45 1457.46 1370.91 1460.35 Q1372.4 1463.23 1375.33 1463.23 Q1378.29 1463.23 1379.75 1460.35 Q1381.24 1457.46 1381.24 1451.68 Q1381.24 1445.89 1379.75 1443.01 Q1378.29 1440.11 1375.33 1440.11 M1375.33 1437.11 Q1380.06 1437.11 1382.54 1440.85 Q1385.04 1444.57 1385.04 1451.68 Q1385.04 1458.77 1382.54 1462.51 Q1380.06 1466.24 1375.33 1466.24 Q1370.61 1466.24 1368.11 1462.51 Q1365.63 1458.77 1365.63 1451.68 Q1365.63 1444.57 1368.11 1440.85 Q1370.61 1437.11 1375.33 1437.11 Z" fill="#000000" fill-rule="evenodd" fill-opacity="1" /><path clip-path="url(#clip770)" d="M 0 0 M1389.16 1460.92 L1393.13 1460.92 L1393.13 1465.69 L1389.16 1465.69 L1389.16 1460.92 Z" fill="#000000" fill-rule="evenodd" fill-opacity="1" /><path clip-path="url(#clip770)" d="M 0 0 M1407.68 1440.92 L1398.09 1455.91 L1407.68 1455.91 L1407.68 1440.92 M1406.69 1437.61 L1411.46 1437.61 L1411.46 1455.91 L1415.47 1455.91 L1415.47 1459.07 L1411.46 1459.07 L1411.46 1465.69 L1407.68 1465.69 L1407.68 1459.07 L1395.01 1459.07 L1395.01 1455.41 L1406.69 1437.61 Z" fill="#000000" fill-rule="evenodd" fill-opacity="1" /><path clip-path="url(#clip770)" d="M 0 0 M1627.43 1489.17 L1635.07 1489.17 L1635.07 1462.8 L1626.76 1464.47 L1626.76 1460.21 L1635.03 1458.54 L1639.7 1458.54 L1639.7 1489.17 L1647.34 1489.17 L1647.34 1493.1 L1627.43 1493.1 L1627.43 1489.17 Z" fill="#000000" fill-rule="evenodd" fill-opacity="1" /><path clip-path="url(#clip770)" d="M 0 0 M1662.41 1461.62 Q1658.8 1461.62 1656.97 1465.19 Q1655.16 1468.73 1655.16 1475.86 Q1655.16 1482.97 1656.97 1486.53 Q1658.8 1490.07 1662.41 1490.07 Q1666.04 1490.07 1667.85 1486.53 Q1669.68 1482.97 1669.68 1475.86 Q1669.68 1468.73 1667.85 1465.19 Q1666.04 1461.62 1662.41 1461.62 M1662.41 1457.92 Q1668.22 1457.92 1671.28 1462.53 Q1674.35 1467.11 1674.35 1475.86 Q1674.35 1484.59 1671.28 1489.19 Q1668.22 1493.78 1662.41 1493.78 Q1656.6 1493.78 1653.52 1489.19 Q1650.47 1484.59 1650.47 1475.86 Q1650.47 1467.11 1653.52 1462.53 Q1656.6 1457.92 1662.41 1457.92 Z" fill="#000000" fill-rule="evenodd" fill-opacity="1" /><path clip-path="url(#clip770)" d="M 0 0 M1684.06 1440.11 Q1681.13 1440.11 1679.64 1443.01 Q1678.17 1445.89 1678.17 1451.68 Q1678.17 1457.46 1679.64 1460.35 Q1681.13 1463.23 1684.06 1463.23 Q1687.01 1463.23 1688.48 1460.35 Q1689.96 1457.46 1689.96 1451.68 Q1689.96 1445.89 1688.48 1443.01 Q1687.01 1440.11 1684.06 1440.11 M1684.06 1437.11 Q1688.78 1437.11 1691.26 1440.85 Q1693.76 1444.57 1693.76 1451.68 Q1693.76 1458.77 1691.26 1462.51 Q1688.78 1466.24 1684.06 1466.24 Q1679.34 1466.24 1676.84 1462.51 Q1674.35 1458.77 1674.35 1451.68 Q1674.35 1444.57 1676.84 1440.85 Q1679.34 1437.11 1684.06 1437.11 Z" fill="#000000" fill-rule="evenodd" fill-opacity="1" /><path clip-path="url(#clip770)" d="M 0 0 M1697.88 1460.92 L1701.85 1460.92 L1701.85 1465.69 L1697.88 1465.69 L1697.88 1460.92 Z" fill="#000000" fill-rule="evenodd" fill-opacity="1" /><path clip-path="url(#clip770)" d="M 0 0 M1714.57 1450.14 Q1712.01 1450.14 1710.5 1451.89 Q1709.02 1453.64 1709.02 1456.68 Q1709.02 1459.71 1710.5 1461.48 Q1712.01 1463.23 1714.57 1463.23 Q1717.12 1463.23 1718.61 1461.48 Q1720.11 1459.71 1720.11 1456.68 Q1720.11 1453.64 1718.61 1451.89 Q1717.12 1450.14 1714.57 1450.14 M1722.11 1438.23 L1722.11 1441.69 Q1720.68 1441.02 1719.21 1440.66 Q1717.76 1440.3 1716.33 1440.3 Q1712.57 1440.3 1710.58 1442.84 Q1708.6 1445.38 1708.32 1450.52 Q1709.43 1448.88 1711.1 1448.01 Q1712.78 1447.13 1714.79 1447.13 Q1719.02 1447.13 1721.47 1449.71 Q1723.93 1452.26 1723.93 1456.68 Q1723.93 1461.01 1721.37 1463.62 Q1718.82 1466.24 1714.57 1466.24 Q1709.69 1466.24 1707.12 1462.51 Q1704.54 1458.77 1704.54 1451.68 Q1704.54 1445.02 1707.7 1441.07 Q1710.86 1437.11 1716.18 1437.11 Q1717.61 1437.11 1719.06 1437.39 Q1720.53 1437.67 1722.11 1438.23 Z" fill="#000000" fill-rule="evenodd" fill-opacity="1" /><path clip-path="url(#clip770)" d="M 0 0 M1936.13 1489.17 L1943.77 1489.17 L1943.77 1462.8 L1935.46 1464.47 L1935.46 1460.21 L1943.72 1458.54 L1948.4 1458.54 L1948.4 1489.17 L1956.04 1489.17 L1956.04 1493.1 L1936.13 1493.1 L1936.13 1489.17 Z" fill="#000000" fill-rule="evenodd" fill-opacity="1" /><path clip-path="url(#clip770)" d="M 0 0 M1971.11 1461.62 Q1967.5 1461.62 1965.67 1465.19 Q1963.86 1468.73 1963.86 1475.86 Q1963.86 1482.97 1965.67 1486.53 Q1967.5 1490.07 1971.11 1490.07 Q1974.74 1490.07 1976.55 1486.53 Q1978.37 1482.97 1978.37 1475.86 Q1978.37 1468.73 1976.55 1465.19 Q1974.74 1461.62 1971.11 1461.62 M1971.11 1457.92 Q1976.92 1457.92 1979.97 1462.53 Q1983.05 1467.11 1983.05 1475.86 Q1983.05 1484.59 1979.97 1489.19 Q1976.92 1493.78 1971.11 1493.78 Q1965.3 1493.78 1962.22 1489.19 Q1959.16 1484.59 1959.16 1475.86 Q1959.16 1467.11 1962.22 1462.53 Q1965.3 1457.92 1971.11 1457.92 Z" fill="#000000" fill-rule="evenodd" fill-opacity="1" /><path clip-path="url(#clip770)" d="M 0 0 M1992.76 1440.11 Q1989.82 1440.11 1988.34 1443.01 Q1986.87 1445.89 1986.87 1451.68 Q1986.87 1457.46 1988.34 1460.35 Q1989.82 1463.23 1992.76 1463.23 Q1995.71 1463.23 1997.18 1460.35 Q1998.66 1457.46 1998.66 1451.68 Q1998.66 1445.89 1997.18 1443.01 Q1995.71 1440.11 1992.76 1440.11 M1992.76 1437.11 Q1997.48 1437.11 1999.96 1440.85 Q2002.46 1444.57 2002.46 1451.68 Q2002.46 1458.77 1999.96 1462.51 Q1997.48 1466.24 1992.76 1466.24 Q1988.03 1466.24 1985.53 1462.51 Q1983.05 1458.77 1983.05 1451.68 Q1983.05 1444.57 1985.53 1440.85 Q1988.03 1437.11 1992.76 1437.11 Z" fill="#000000" fill-rule="evenodd" fill-opacity="1" /><path clip-path="url(#clip770)" d="M 0 0 M2006.58 1460.92 L2010.55 1460.92 L2010.55 1465.69 L2006.58 1465.69 L2006.58 1460.92 Z" fill="#000000" fill-rule="evenodd" fill-opacity="1" /><path clip-path="url(#clip770)" d="M 0 0 M2022.79 1452.36 Q2020.08 1452.36 2018.52 1453.81 Q2016.98 1455.26 2016.98 1457.79 Q2016.98 1460.33 2018.52 1461.78 Q2020.08 1463.23 2022.79 1463.23 Q2025.5 1463.23 2027.06 1461.78 Q2028.62 1460.31 2028.62 1457.79 Q2028.62 1455.26 2027.06 1453.81 Q2025.52 1452.36 2022.79 1452.36 M2018.99 1450.74 Q2016.55 1450.14 2015.17 1448.47 Q2013.82 1446.79 2013.82 1444.38 Q2013.82 1441.02 2016.21 1439.06 Q2018.62 1437.11 2022.79 1437.11 Q2026.99 1437.11 2029.37 1439.06 Q2031.76 1441.02 2031.76 1444.38 Q2031.76 1446.79 2030.39 1448.47 Q2029.04 1450.14 2026.61 1450.74 Q2029.36 1451.38 2030.88 1453.24 Q2032.42 1455.1 2032.42 1457.79 Q2032.42 1461.88 2029.92 1464.06 Q2027.44 1466.24 2022.79 1466.24 Q2018.15 1466.24 2015.64 1464.06 Q2013.16 1461.88 2013.16 1457.79 Q2013.16 1455.1 2014.7 1453.24 Q2016.25 1451.38 2018.99 1450.74 M2017.6 1444.74 Q2017.6 1446.92 2018.95 1448.15 Q2020.33 1449.37 2022.79 1449.37 Q2025.24 1449.37 2026.61 1448.15 Q2028 1446.92 2028 1444.74 Q2028 1442.56 2026.61 1441.34 Q2025.24 1440.11 2022.79 1440.11 Q2020.33 1440.11 2018.95 1441.34 Q2017.6 1442.56 2017.6 1444.74 Z" fill="#000000" fill-rule="evenodd" fill-opacity="1" /><path clip-path="url(#clip770)" d="M 0 0 M2246.03 1489.17 L2253.67 1489.17 L2253.67 1462.8 L2245.36 1464.47 L2245.36 1460.21 L2253.62 1458.54 L2258.3 1458.54 L2258.3 1489.17 L2265.94 1489.17 L2265.94 1493.1 L2246.03 1493.1 L2246.03 1489.17 Z" fill="#000000" fill-rule="evenodd" fill-opacity="1" /><path clip-path="url(#clip770)" d="M 0 0 M2281.01 1461.62 Q2277.4 1461.62 2275.57 1465.19 Q2273.76 1468.73 2273.76 1475.86 Q2273.76 1482.97 2275.57 1486.53 Q2277.4 1490.07 2281.01 1490.07 Q2284.64 1490.07 2286.45 1486.53 Q2288.27 1482.97 2288.27 1475.86 Q2288.27 1468.73 2286.45 1465.19 Q2284.64 1461.62 2281.01 1461.62 M2281.01 1457.92 Q2286.82 1457.92 2289.87 1462.53 Q2292.95 1467.11 2292.95 1475.86 Q2292.95 1484.59 2289.87 1489.19 Q2286.82 1493.78 2281.01 1493.78 Q2275.2 1493.78 2272.12 1489.19 Q2269.06 1484.59 2269.06 1475.86 Q2269.06 1467.11 2272.12 1462.53 Q2275.2 1457.92 2281.01 1457.92 Z" fill="#000000" fill-rule="evenodd" fill-opacity="1" /><path clip-path="url(#clip770)" d="M 0 0 M2293.5 1462.5 L2299.7 1462.5 L2299.7 1441.07 L2292.95 1442.43 L2292.95 1438.97 L2299.67 1437.61 L2303.46 1437.61 L2303.46 1462.5 L2309.67 1462.5 L2309.67 1465.69 L2293.5 1465.69 L2293.5 1462.5 Z" fill="#000000" fill-rule="evenodd" fill-opacity="1" /><path clip-path="url(#clip770)" d="M 0 0 M2313.79 1460.92 L2317.76 1460.92 L2317.76 1465.69 L2313.79 1465.69 L2313.79 1460.92 Z" fill="#000000" fill-rule="evenodd" fill-opacity="1" /><path clip-path="url(#clip770)" d="M 0 0 M2330 1440.11 Q2327.07 1440.11 2325.58 1443.01 Q2324.12 1445.89 2324.12 1451.68 Q2324.12 1457.46 2325.58 1460.35 Q2327.07 1463.23 2330 1463.23 Q2332.95 1463.23 2334.42 1460.35 Q2335.91 1457.46 2335.91 1451.68 Q2335.91 1445.89 2334.42 1443.01 Q2332.95 1440.11 2330 1440.11 M2330 1437.11 Q2334.72 1437.11 2337.21 1440.85 Q2339.71 1444.57 2339.71 1451.68 Q2339.71 1458.77 2337.21 1462.51 Q2334.72 1466.24 2330 1466.24 Q2325.28 1466.24 2322.78 1462.51 Q2320.3 1458.77 2320.3 1451.68 Q2320.3 1444.57 2322.78 1440.85 Q2325.28 1437.11 2330 1437.11 Z" fill="#000000" fill-rule="evenodd" fill-opacity="1" /><path clip-path="url(#clip770)" d="M 0 0 M1294.02 1545.6 L1292.61 1538.25 Q1291.18 1530.71 1285.52 1530.71 Q1281.25 1530.71 1279.31 1534.21 Q1276.86 1538.6 1276.86 1544.39 Q1276.86 1551.4 1279.25 1554.74 Q1281.67 1558.14 1285.52 1558.14 Q1289.78 1558.14 1292.07 1551.36 L1294.02 1545.6 M1297.29 1535.86 L1300.44 1526.54 L1305.66 1526.54 L1299.14 1545.86 L1300.41 1552.83 Q1300.7 1554.39 1301.81 1555.69 Q1303.12 1557.22 1304.14 1557.22 L1306.94 1557.22 L1306.94 1562.19 L1303.44 1562.19 Q1300.44 1562.19 1297.77 1559.51 Q1296.47 1558.18 1295.92 1555.37 Q1294.46 1558.91 1291.47 1561.68 Q1290.07 1562.98 1285.52 1562.98 Q1278.04 1562.98 1274.41 1558.14 Q1270.68 1553.15 1270.68 1544.39 Q1270.68 1535.04 1274.73 1530.64 Q1279.21 1525.74 1285.52 1525.74 Q1295.42 1525.74 1297.29 1535.86 Z" fill="#000000" fill-rule="evenodd" fill-opacity="1" /><polyline clip-path="url(#clip772)" style="stroke:#000000; stroke-width:2; stroke-opacity:0.1; fill:none" points="
  224.866,1263.57 2352.76,1263.57 
  "/>
<polyline clip-path="url(#clip772)" style="stroke:#000000; stroke-width:2; stroke-opacity:0.1; fill:none" points="
  224.866,1078.56 2352.76,1078.56 
  "/>
<polyline clip-path="url(#clip772)" style="stroke:#000000; stroke-width:2; stroke-opacity:0.1; fill:none" points="
  224.866,893.549 2352.76,893.549 
  "/>
<polyline clip-path="url(#clip772)" style="stroke:#000000; stroke-width:2; stroke-opacity:0.1; fill:none" points="
  224.866,708.541 2352.76,708.541 
  "/>
<polyline clip-path="url(#clip772)" style="stroke:#000000; stroke-width:2; stroke-opacity:0.1; fill:none" points="
  224.866,523.532 2352.76,523.532 
  "/>
<polyline clip-path="url(#clip772)" style="stroke:#000000; stroke-width:2; stroke-opacity:0.1; fill:none" points="
  224.866,338.524 2352.76,338.524 
  "/>
<polyline clip-path="url(#clip772)" style="stroke:#000000; stroke-width:2; stroke-opacity:0.1; fill:none" points="
  224.866,153.515 2352.76,153.515 
  "/>
<polyline clip-path="url(#clip770)" style="stroke:#000000; stroke-width:4; stroke-opacity:1; fill:none" points="
  224.866,1410.9 224.866,47.2441 
  "/>
<polyline clip-path="url(#clip770)" style="stroke:#000000; stroke-width:4; stroke-opacity:1; fill:none" points="
  224.866,1263.57 250.401,1263.57 
  "/>
<polyline clip-path="url(#clip770)" style="stroke:#000000; stroke-width:4; stroke-opacity:1; fill:none" points="
  224.866,1078.56 250.401,1078.56 
  "/>
<polyline clip-path="url(#clip770)" style="stroke:#000000; stroke-width:4; stroke-opacity:1; fill:none" points="
  224.866,893.549 250.401,893.549 
  "/>
<polyline clip-path="url(#clip770)" style="stroke:#000000; stroke-width:4; stroke-opacity:1; fill:none" points="
  224.866,708.541 250.401,708.541 
  "/>
<polyline clip-path="url(#clip770)" style="stroke:#000000; stroke-width:4; stroke-opacity:1; fill:none" points="
  224.866,523.532 250.401,523.532 
  "/>
<polyline clip-path="url(#clip770)" style="stroke:#000000; stroke-width:4; stroke-opacity:1; fill:none" points="
  224.866,338.524 250.401,338.524 
  "/>
<polyline clip-path="url(#clip770)" style="stroke:#000000; stroke-width:4; stroke-opacity:1; fill:none" points="
  224.866,153.515 250.401,153.515 
  "/>
<path clip-path="url(#clip770)" d="M 0 0 M146.529 1276.91 L162.848 1276.91 L162.848 1280.85 L140.904 1280.85 L140.904 1276.91 Q143.566 1274.16 148.149 1269.53 Q152.755 1264.87 153.936 1263.53 Q156.181 1261.01 157.061 1259.27 Q157.964 1257.51 157.964 1255.82 Q157.964 1253.07 156.019 1251.33 Q154.098 1249.6 150.996 1249.6 Q148.797 1249.6 146.343 1250.36 Q143.913 1251.12 141.135 1252.67 L141.135 1247.95 Q143.959 1246.82 146.413 1246.24 Q148.866 1245.66 150.903 1245.66 Q156.274 1245.66 159.468 1248.35 Q162.663 1251.03 162.663 1255.52 Q162.663 1257.65 161.852 1259.57 Q161.065 1261.47 158.959 1264.06 Q158.38 1264.73 155.278 1267.95 Q152.177 1271.15 146.529 1276.91 Z" fill="#000000" fill-rule="evenodd" fill-opacity="1" /><path clip-path="url(#clip770)" d="M 0 0 M167.964 1246.29 L186.32 1246.29 L186.32 1250.22 L172.246 1250.22 L172.246 1258.69 Q173.264 1258.35 174.283 1258.18 Q175.301 1258 176.32 1258 Q182.107 1258 185.487 1261.17 Q188.866 1264.34 188.866 1269.76 Q188.866 1275.34 185.394 1278.44 Q181.922 1281.52 175.602 1281.52 Q173.427 1281.52 171.158 1281.15 Q168.913 1280.78 166.505 1280.04 L166.505 1275.34 Q168.589 1276.47 170.811 1277.03 Q173.033 1277.58 175.51 1277.58 Q179.514 1277.58 181.852 1275.48 Q184.19 1273.37 184.19 1269.76 Q184.19 1266.15 181.852 1264.04 Q179.514 1261.93 175.51 1261.93 Q173.635 1261.93 171.76 1262.35 Q169.908 1262.77 167.964 1263.65 L167.964 1246.29 Z" fill="#000000" fill-rule="evenodd" fill-opacity="1" /><path clip-path="url(#clip770)" d="M 0 0 M140.95 1061.28 L159.306 1061.28 L159.306 1065.21 L145.232 1065.21 L145.232 1073.68 Q146.251 1073.34 147.269 1073.18 Q148.288 1072.99 149.306 1072.99 Q155.093 1072.99 158.473 1076.16 Q161.852 1079.33 161.852 1084.75 Q161.852 1090.33 158.38 1093.43 Q154.908 1096.51 148.589 1096.51 Q146.413 1096.51 144.144 1096.14 Q141.899 1095.77 139.492 1095.03 L139.492 1090.33 Q141.575 1091.46 143.797 1092.02 Q146.019 1092.57 148.496 1092.57 Q152.501 1092.57 154.839 1090.47 Q157.177 1088.36 157.177 1084.75 Q157.177 1081.14 154.839 1079.03 Q152.501 1076.93 148.496 1076.93 Q146.621 1076.93 144.746 1077.34 Q142.894 1077.76 140.95 1078.64 L140.95 1061.28 Z" fill="#000000" fill-rule="evenodd" fill-opacity="1" /><path clip-path="url(#clip770)" d="M 0 0 M176.922 1064.36 Q173.311 1064.36 171.482 1067.92 Q169.677 1071.46 169.677 1078.59 Q169.677 1085.7 171.482 1089.26 Q173.311 1092.81 176.922 1092.81 Q180.556 1092.81 182.362 1089.26 Q184.19 1085.7 184.19 1078.59 Q184.19 1071.46 182.362 1067.92 Q180.556 1064.36 176.922 1064.36 M176.922 1060.65 Q182.732 1060.65 185.788 1065.26 Q188.866 1069.84 188.866 1078.59 Q188.866 1087.32 185.788 1091.93 Q182.732 1096.51 176.922 1096.51 Q171.112 1096.51 168.033 1091.93 Q164.977 1087.32 164.977 1078.59 Q164.977 1069.84 168.033 1065.26 Q171.112 1060.65 176.922 1060.65 Z" fill="#000000" fill-rule="evenodd" fill-opacity="1" /><path clip-path="url(#clip770)" d="M 0 0 M140.626 876.269 L162.848 876.269 L162.848 878.26 L150.302 910.829 L145.417 910.829 L157.223 880.204 L140.626 880.204 L140.626 876.269 Z" fill="#000000" fill-rule="evenodd" fill-opacity="1" /><path clip-path="url(#clip770)" d="M 0 0 M167.964 876.269 L186.32 876.269 L186.32 880.204 L172.246 880.204 L172.246 888.676 Q173.264 888.329 174.283 888.167 Q175.301 887.982 176.32 887.982 Q182.107 887.982 185.487 891.153 Q188.866 894.324 188.866 899.741 Q188.866 905.32 185.394 908.422 Q181.922 911.5 175.602 911.5 Q173.427 911.5 171.158 911.13 Q168.913 910.76 166.505 910.019 L166.505 905.32 Q168.589 906.454 170.811 907.01 Q173.033 907.565 175.51 907.565 Q179.514 907.565 181.852 905.459 Q184.19 903.352 184.19 899.741 Q184.19 896.13 181.852 894.023 Q179.514 891.917 175.51 891.917 Q173.635 891.917 171.76 892.334 Q169.908 892.75 167.964 893.63 L167.964 876.269 Z" fill="#000000" fill-rule="evenodd" fill-opacity="1" /><path clip-path="url(#clip770)" d="M 0 0 M114.931 721.885 L122.57 721.885 L122.57 695.52 L114.26 697.186 L114.26 692.927 L122.524 691.261 L127.2 691.261 L127.2 721.885 L134.839 721.885 L134.839 725.821 L114.931 725.821 L114.931 721.885 Z" fill="#000000" fill-rule="evenodd" fill-opacity="1" /><path clip-path="url(#clip770)" d="M 0 0 M149.908 694.339 Q146.297 694.339 144.468 697.904 Q142.663 701.446 142.663 708.575 Q142.663 715.682 144.468 719.246 Q146.297 722.788 149.908 722.788 Q153.542 722.788 155.348 719.246 Q157.177 715.682 157.177 708.575 Q157.177 701.446 155.348 697.904 Q153.542 694.339 149.908 694.339 M149.908 690.636 Q155.718 690.636 158.774 695.242 Q161.852 699.825 161.852 708.575 Q161.852 717.302 158.774 721.908 Q155.718 726.492 149.908 726.492 Q144.098 726.492 141.019 721.908 Q137.964 717.302 137.964 708.575 Q137.964 699.825 141.019 695.242 Q144.098 690.636 149.908 690.636 Z" fill="#000000" fill-rule="evenodd" fill-opacity="1" /><path clip-path="url(#clip770)" d="M 0 0 M176.922 694.339 Q173.311 694.339 171.482 697.904 Q169.677 701.446 169.677 708.575 Q169.677 715.682 171.482 719.246 Q173.311 722.788 176.922 722.788 Q180.556 722.788 182.362 719.246 Q184.19 715.682 184.19 708.575 Q184.19 701.446 182.362 697.904 Q180.556 694.339 176.922 694.339 M176.922 690.636 Q182.732 690.636 185.788 695.242 Q188.866 699.825 188.866 708.575 Q188.866 717.302 185.788 721.908 Q182.732 726.492 176.922 726.492 Q171.112 726.492 168.033 721.908 Q164.977 717.302 164.977 708.575 Q164.977 699.825 168.033 695.242 Q171.112 690.636 176.922 690.636 Z" fill="#000000" fill-rule="evenodd" fill-opacity="1" /><path clip-path="url(#clip770)" d="M 0 0 M117.524 536.877 L125.163 536.877 L125.163 510.511 L116.853 512.178 L116.853 507.919 L125.117 506.252 L129.792 506.252 L129.792 536.877 L137.431 536.877 L137.431 540.812 L117.524 540.812 L117.524 536.877 Z" fill="#000000" fill-rule="evenodd" fill-opacity="1" /><path clip-path="url(#clip770)" d="M 0 0 M146.529 536.877 L162.848 536.877 L162.848 540.812 L140.904 540.812 L140.904 536.877 Q143.566 534.122 148.149 529.493 Q152.755 524.84 153.936 523.497 Q156.181 520.974 157.061 519.238 Q157.964 517.479 157.964 515.789 Q157.964 513.034 156.019 511.298 Q154.098 509.562 150.996 509.562 Q148.797 509.562 146.343 510.326 Q143.913 511.09 141.135 512.641 L141.135 507.919 Q143.959 506.784 146.413 506.206 Q148.866 505.627 150.903 505.627 Q156.274 505.627 159.468 508.312 Q162.663 510.997 162.663 515.488 Q162.663 517.618 161.852 519.539 Q161.065 521.437 158.959 524.03 Q158.38 524.701 155.278 527.919 Q152.177 531.113 146.529 536.877 Z" fill="#000000" fill-rule="evenodd" fill-opacity="1" /><path clip-path="url(#clip770)" d="M 0 0 M167.964 506.252 L186.32 506.252 L186.32 510.187 L172.246 510.187 L172.246 518.659 Q173.264 518.312 174.283 518.15 Q175.301 517.965 176.32 517.965 Q182.107 517.965 185.487 521.136 Q188.866 524.308 188.866 529.724 Q188.866 535.303 185.394 538.405 Q181.922 541.483 175.602 541.483 Q173.427 541.483 171.158 541.113 Q168.913 540.743 166.505 540.002 L166.505 535.303 Q168.589 536.437 170.811 536.993 Q173.033 537.548 175.51 537.548 Q179.514 537.548 181.852 535.442 Q184.19 533.335 184.19 529.724 Q184.19 526.113 181.852 524.007 Q179.514 521.9 175.51 521.9 Q173.635 521.9 171.76 522.317 Q169.908 522.733 167.964 523.613 L167.964 506.252 Z" fill="#000000" fill-rule="evenodd" fill-opacity="1" /><path clip-path="url(#clip770)" d="M 0 0 M115.927 351.868 L123.566 351.868 L123.566 325.503 L115.256 327.17 L115.256 322.91 L123.519 321.244 L128.195 321.244 L128.195 351.868 L135.834 351.868 L135.834 355.804 L115.927 355.804 L115.927 351.868 Z" fill="#000000" fill-rule="evenodd" fill-opacity="1" /><path clip-path="url(#clip770)" d="M 0 0 M140.95 321.244 L159.306 321.244 L159.306 325.179 L145.232 325.179 L145.232 333.651 Q146.251 333.304 147.269 333.142 Q148.288 332.957 149.306 332.957 Q155.093 332.957 158.473 336.128 Q161.852 339.299 161.852 344.716 Q161.852 350.294 158.38 353.396 Q154.908 356.475 148.589 356.475 Q146.413 356.475 144.144 356.105 Q141.899 355.734 139.492 354.993 L139.492 350.294 Q141.575 351.429 143.797 351.984 Q146.019 352.54 148.496 352.54 Q152.501 352.54 154.839 350.433 Q157.177 348.327 157.177 344.716 Q157.177 341.105 154.839 338.998 Q152.501 336.892 148.496 336.892 Q146.621 336.892 144.746 337.308 Q142.894 337.725 140.95 338.605 L140.95 321.244 Z" fill="#000000" fill-rule="evenodd" fill-opacity="1" /><path clip-path="url(#clip770)" d="M 0 0 M176.922 324.322 Q173.311 324.322 171.482 327.887 Q169.677 331.429 169.677 338.558 Q169.677 345.665 171.482 349.23 Q173.311 352.771 176.922 352.771 Q180.556 352.771 182.362 349.23 Q184.19 345.665 184.19 338.558 Q184.19 331.429 182.362 327.887 Q180.556 324.322 176.922 324.322 M176.922 320.619 Q182.732 320.619 185.788 325.225 Q188.866 329.808 188.866 338.558 Q188.866 347.285 185.788 351.892 Q182.732 356.475 176.922 356.475 Q171.112 356.475 168.033 351.892 Q164.977 347.285 164.977 338.558 Q164.977 329.808 168.033 325.225 Q171.112 320.619 176.922 320.619 Z" fill="#000000" fill-rule="evenodd" fill-opacity="1" /><path clip-path="url(#clip770)" d="M 0 0 M116.83 166.86 L124.468 166.86 L124.468 140.494 L116.158 142.161 L116.158 137.902 L124.422 136.235 L129.098 136.235 L129.098 166.86 L136.737 166.86 L136.737 170.795 L116.83 170.795 L116.83 166.86 Z" fill="#000000" fill-rule="evenodd" fill-opacity="1" /><path clip-path="url(#clip770)" d="M 0 0 M140.626 136.235 L162.848 136.235 L162.848 138.226 L150.302 170.795 L145.417 170.795 L157.223 140.17 L140.626 140.17 L140.626 136.235 Z" fill="#000000" fill-rule="evenodd" fill-opacity="1" /><path clip-path="url(#clip770)" d="M 0 0 M167.964 136.235 L186.32 136.235 L186.32 140.17 L172.246 140.17 L172.246 148.643 Q173.264 148.295 174.283 148.133 Q175.301 147.948 176.32 147.948 Q182.107 147.948 185.487 151.119 Q188.866 154.291 188.866 159.707 Q188.866 165.286 185.394 168.388 Q181.922 171.466 175.602 171.466 Q173.427 171.466 171.158 171.096 Q168.913 170.726 166.505 169.985 L166.505 165.286 Q168.589 166.42 170.811 166.976 Q173.033 167.531 175.51 167.531 Q179.514 167.531 181.852 165.425 Q184.19 163.318 184.19 159.707 Q184.19 156.096 181.852 153.99 Q179.514 151.883 175.51 151.883 Q173.635 151.883 171.76 152.3 Q169.908 152.717 167.964 153.596 L167.964 136.235 Z" fill="#000000" fill-rule="evenodd" fill-opacity="1" /><path clip-path="url(#clip770)" d="M 0 0 M59.1993 815.533 Q55.2526 813.336 53.3747 810.281 Q51.4968 807.225 51.4968 803.088 Q51.4968 797.518 55.4117 794.494 Q59.2948 791.47 66.4881 791.47 L88.0042 791.47 L88.0042 797.358 L66.679 797.358 Q61.5546 797.358 59.072 799.173 Q56.5894 800.987 56.5894 804.711 Q56.5894 809.262 59.6131 811.904 Q62.6368 814.546 67.8567 814.546 L88.0042 814.546 L88.0042 820.434 L66.679 820.434 Q61.5228 820.434 59.072 822.248 Q56.5894 824.063 56.5894 827.85 Q56.5894 832.338 59.6449 834.98 Q62.6686 837.622 67.8567 837.622 L88.0042 837.622 L88.0042 843.51 L52.3562 843.51 L52.3562 837.622 L57.8944 837.622 Q54.616 835.616 53.0564 832.815 Q51.4968 830.015 51.4968 826.163 Q51.4968 822.28 53.4702 819.575 Q55.4436 816.838 59.1993 815.533 Z" fill="#000000" fill-rule="evenodd" fill-opacity="1" /><path clip-path="url(#clip770)" d="M 0 0 M52.3562 785.327 L52.3562 779.471 L88.0042 779.471 L88.0042 785.327 L52.3562 785.327 M38.479 785.327 L38.479 779.471 L45.895 779.471 L45.895 785.327 L38.479 785.327 Z" fill="#000000" fill-rule="evenodd" fill-opacity="1" /><path clip-path="url(#clip770)" d="M 0 0 M66.4881 743.696 L88.0042 743.696 L88.0042 749.552 L66.679 749.552 Q61.6183 749.552 59.1038 751.525 Q56.5894 753.499 56.5894 757.446 Q56.5894 762.188 59.6131 764.925 Q62.6368 767.662 67.8567 767.662 L88.0042 767.662 L88.0042 773.551 L52.3562 773.551 L52.3562 767.662 L57.8944 767.662 Q54.6797 765.562 53.0883 762.729 Q51.4968 759.864 51.4968 756.141 Q51.4968 749.998 55.3163 746.847 Q59.1038 743.696 66.4881 743.696 Z" fill="#000000" fill-rule="evenodd" fill-opacity="1" /><path clip-path="url(#clip770)" d="M 0 0 M98.8259 710.467 L103.377 710.467 L103.377 744.332 L98.8259 744.332 L98.8259 710.467 Z" fill="#000000" fill-rule="evenodd" fill-opacity="1" /><path clip-path="url(#clip770)" d="M 0 0 M57.7671 680.866 L38.479 680.866 L38.479 675.01 L88.0042 675.01 L88.0042 680.866 L82.657 680.866 Q85.8398 682.712 87.3994 685.545 Q88.9272 688.346 88.9272 692.292 Q88.9272 698.754 83.771 702.828 Q78.6147 706.87 70.212 706.87 Q61.8093 706.87 56.6531 702.828 Q51.4968 698.754 51.4968 692.292 Q51.4968 688.346 53.0564 685.545 Q54.5842 682.712 57.7671 680.866 M70.212 700.823 Q76.6732 700.823 80.3653 698.181 Q84.0256 695.507 84.0256 690.86 Q84.0256 686.213 80.3653 683.54 Q76.6732 680.866 70.212 680.866 Q63.7508 680.866 60.0905 683.54 Q56.3984 686.213 56.3984 690.86 Q56.3984 695.507 60.0905 698.181 Q63.7508 700.823 70.212 700.823 Z" fill="#000000" fill-rule="evenodd" fill-opacity="1" /><path clip-path="url(#clip770)" d="M 0 0 M52.3562 668.867 L52.3562 663.01 L88.0042 663.01 L88.0042 668.867 L52.3562 668.867 M38.479 668.867 L38.479 663.01 L45.895 663.01 L45.895 668.867 L38.479 668.867 Z" fill="#000000" fill-rule="evenodd" fill-opacity="1" /><path clip-path="url(#clip770)" d="M 0 0 M38.479 638.821 L43.3487 638.821 L43.3487 644.422 Q43.3487 647.573 44.6219 648.815 Q45.895 650.024 49.2052 650.024 L52.3562 650.024 L52.3562 640.38 L56.9077 640.38 L56.9077 650.024 L88.0042 650.024 L88.0042 655.912 L56.9077 655.912 L56.9077 661.514 L52.3562 661.514 L52.3562 655.912 L49.8736 655.912 Q43.9216 655.912 41.2162 653.143 Q38.479 650.374 38.479 644.359 L38.479 638.821 Z" fill="#000000" fill-rule="evenodd" fill-opacity="1" /><path clip-path="url(#clip770)" d="M 0 0 M38.479 614.631 L43.3487 614.631 L43.3487 620.233 Q43.3487 623.384 44.6219 624.625 Q45.895 625.835 49.2052 625.835 L52.3562 625.835 L52.3562 616.19 L56.9077 616.19 L56.9077 625.835 L88.0042 625.835 L88.0042 631.723 L56.9077 631.723 L56.9077 637.325 L52.3562 637.325 L52.3562 631.723 L49.8736 631.723 Q43.9216 631.723 41.2162 628.954 Q38.479 626.185 38.479 620.169 L38.479 614.631 Z" fill="#000000" fill-rule="evenodd" fill-opacity="1" /><polyline clip-path="url(#clip772)" style="stroke:#009af9; stroke-width:20; stroke-opacity:1; fill:none" stroke-dasharray="80, 50" points="
  285.09,85.838 749.568,1360.93 1021.27,1372.3 1214.05,1361.74 1363.58,1347.22 1485.75,1327.52 1589.05,1311.43 1678.53,1279.62 1757.45,1245.19 1828.05,1245.27 
  1891.92,1243.36 1950.23,1241.53 2003.86,1240.77 2053.52,1243.26 2099.76,1244.98 2143,1246.14 2183.63,1246.9 2221.93,1247.35 2258.16,1247.59 2292.53,1247.66 
  
  "/>
<path clip-path="url(#clip770)" d="
M1994.38 213.659 L2281.83 213.659 L2281.83 92.6992 L1994.38 92.6992  Z
  " fill="#ffffff" fill-rule="evenodd" fill-opacity="1"/>
<polyline clip-path="url(#clip770)" style="stroke:#000000; stroke-width:4; stroke-opacity:1; fill:none" points="
  1994.38,213.659 2281.83,213.659 2281.83,92.6992 1994.38,92.6992 1994.38,213.659 
  "/>
<polyline clip-path="url(#clip770)" style="stroke:#009af9; stroke-width:4; stroke-opacity:1; fill:none" stroke-dasharray="16, 10" points="
  2018.02,153.179 2159.88,153.179 
  "/>
<path clip-path="url(#clip770)" d="M 0 0 M2197.36 172.867 Q2195.56 177.496 2193.85 178.908 Q2192.13 180.32 2189.26 180.32 L2185.86 180.32 L2185.86 176.755 L2188.36 176.755 Q2190.12 176.755 2191.09 175.922 Q2192.06 175.089 2193.24 171.987 L2194.01 170.043 L2183.52 144.533 L2188.04 144.533 L2196.14 164.811 L2204.24 144.533 L2208.75 144.533 L2197.36 172.867 Z" fill="#000000" fill-rule="evenodd" fill-opacity="1" /><path clip-path="url(#clip770)" d="M 0 0 M2214.63 166.524 L2222.27 166.524 L2222.27 140.158 L2213.96 141.825 L2213.96 137.566 L2222.23 135.899 L2226.9 135.899 L2226.9 166.524 L2234.54 166.524 L2234.54 170.459 L2214.63 170.459 L2214.63 166.524 Z" fill="#000000" fill-rule="evenodd" fill-opacity="1" /></svg>
