<?xml version="1.0" encoding="utf-8"?>
<svg xmlns="http://www.w3.org/2000/svg" xmlns:xlink="http://www.w3.org/1999/xlink" width="600" height="400" viewBox="0 0 2400 1600">
<defs>
  <clipPath id="clip950">
    <rect x="0" y="0" width="2400" height="1600"/>
  </clipPath>
</defs>
<path clip-path="url(#clip950)" d="
M0 1600 L2400 1600 L2400 0 L0 0  Z
  " fill="#ffffff" fill-rule="evenodd" fill-opacity="1"/>
<defs>
  <clipPath id="clip951">
    <rect x="480" y="0" width="1681" height="1600"/>
  </clipPath>
</defs>
<path clip-path="url(#clip950)" d="
M174.126 1410.9 L2352.76 1410.9 L2352.76 47.2441 L174.126 47.2441  Z
  " fill="#ffffff" fill-rule="evenodd" fill-opacity="1"/>
<defs>
  <clipPath id="clip952">
    <rect x="174" y="47" width="2180" height="1365"/>
  </clipPath>
</defs>
<polyline clip-path="url(#clip952)" style="stroke:#000000; stroke-width:2; stroke-opacity:0.1; fill:none" points="
  235.785,1410.9 235.785,47.2441 
  "/>
<polyline clip-path="url(#clip952)" style="stroke:#000000; stroke-width:2; stroke-opacity:0.1; fill:none" points="
  749.613,1410.9 749.613,47.2441 
  "/>
<polyline clip-path="url(#clip952)" style="stroke:#000000; stroke-width:2; stroke-opacity:0.1; fill:none" points="
  1263.44,1410.9 1263.44,47.2441 
  "/>
<polyline clip-path="url(#clip952)" style="stroke:#000000; stroke-width:2; stroke-opacity:0.1; fill:none" points="
  1777.27,1410.9 1777.27,47.2441 
  "/>
<polyline clip-path="url(#clip952)" style="stroke:#000000; stroke-width:2; stroke-opacity:0.1; fill:none" points="
  2291.1,1410.9 2291.1,47.2441 
  "/>
<polyline clip-path="url(#clip950)" style="stroke:#000000; stroke-width:4; stroke-opacity:1; fill:none" points="
  174.126,1410.9 2352.76,1410.9 
  "/>
<polyline clip-path="url(#clip950)" style="stroke:#000000; stroke-width:4; stroke-opacity:1; fill:none" points="
  235.785,1410.9 235.785,1394.53 
  "/>
<polyline clip-path="url(#clip950)" style="stroke:#000000; stroke-width:4; stroke-opacity:1; fill:none" points="
  749.613,1410.9 749.613,1394.53 
  "/>
<polyline clip-path="url(#clip950)" style="stroke:#000000; stroke-width:4; stroke-opacity:1; fill:none" points="
  1263.44,1410.9 1263.44,1394.53 
  "/>
<polyline clip-path="url(#clip950)" style="stroke:#000000; stroke-width:4; stroke-opacity:1; fill:none" points="
  1777.27,1410.9 1777.27,1394.53 
  "/>
<polyline clip-path="url(#clip950)" style="stroke:#000000; stroke-width:4; stroke-opacity:1; fill:none" points="
  2291.1,1410.9 2291.1,1394.53 
  "/>
<path clip-path="url(#clip950)" d="M 0 0 M174.415 1489.17 L182.053 1489.17 L182.053 1462.8 L173.743 1464.47 L173.743 1460.21 L182.007 1458.54 L186.683 1458.54 L186.683 1489.17 L194.322 1489.17 L194.322 1493.1 L174.415 1493.1 L174.415 1489.17 Z" fill="#000000" fill-rule="evenodd" fill-opacity="1" /><path clip-path="url(#clip950)" d="M 0 0 M209.391 1461.62 Q205.78 1461.62 203.952 1465.19 Q202.146 1468.73 202.146 1475.86 Q202.146 1482.97 203.952 1486.53 Q205.78 1490.07 209.391 1490.07 Q213.026 1490.07 214.831 1486.53 Q216.66 1482.97 216.66 1475.86 Q216.66 1468.73 214.831 1465.19 Q213.026 1461.62 209.391 1461.62 M209.391 1457.92 Q215.201 1457.92 218.257 1462.53 Q221.336 1467.11 221.336 1475.86 Q221.336 1484.59 218.257 1489.19 Q215.201 1493.78 209.391 1493.78 Q203.581 1493.78 200.502 1489.19 Q197.447 1484.59 197.447 1475.86 Q197.447 1467.11 200.502 1462.53 Q203.581 1457.92 209.391 1457.92 Z" fill="#000000" fill-rule="evenodd" fill-opacity="1" /><path clip-path="url(#clip950)" d="M 0 0 M221.336 1452.02 L245.447 1452.02 L245.447 1455.22 L221.336 1455.22 L221.336 1452.02 Z" fill="#000000" fill-rule="evenodd" fill-opacity="1" /><path clip-path="url(#clip950)" d="M 0 0 M260.004 1440.92 L250.412 1455.91 L260.004 1455.91 L260.004 1440.92 M259.008 1437.61 L263.785 1437.61 L263.785 1455.91 L267.791 1455.91 L267.791 1459.07 L263.785 1459.07 L263.785 1465.69 L260.004 1465.69 L260.004 1459.07 L247.328 1459.07 L247.328 1455.41 L259.008 1437.61 Z" fill="#000000" fill-rule="evenodd" fill-opacity="1" /><path clip-path="url(#clip950)" d="M 0 0 M271.91 1460.92 L275.878 1460.92 L275.878 1465.69 L271.91 1465.69 L271.91 1460.92 Z" fill="#000000" fill-rule="evenodd" fill-opacity="1" /><path clip-path="url(#clip950)" d="M 0 0 M288.122 1440.11 Q285.188 1440.11 283.702 1443.01 Q282.235 1445.89 282.235 1451.68 Q282.235 1457.46 283.702 1460.35 Q285.188 1463.23 288.122 1463.23 Q291.075 1463.23 292.542 1460.35 Q294.028 1457.46 294.028 1451.68 Q294.028 1445.89 292.542 1443.01 Q291.075 1440.11 288.122 1440.11 M288.122 1437.11 Q292.843 1437.11 295.325 1440.85 Q297.827 1444.57 297.827 1451.68 Q297.827 1458.77 295.325 1462.51 Q292.843 1466.24 288.122 1466.24 Q283.401 1466.24 280.9 1462.51 Q278.417 1458.77 278.417 1451.68 Q278.417 1444.57 280.9 1440.85 Q283.401 1437.11 288.122 1437.11 Z" fill="#000000" fill-rule="evenodd" fill-opacity="1" /><path clip-path="url(#clip950)" d="M 0 0 M689.108 1489.17 L696.747 1489.17 L696.747 1462.8 L688.436 1464.47 L688.436 1460.21 L696.7 1458.54 L701.376 1458.54 L701.376 1489.17 L709.015 1489.17 L709.015 1493.1 L689.108 1493.1 L689.108 1489.17 Z" fill="#000000" fill-rule="evenodd" fill-opacity="1" /><path clip-path="url(#clip950)" d="M 0 0 M724.084 1461.62 Q720.473 1461.62 718.645 1465.19 Q716.839 1468.73 716.839 1475.86 Q716.839 1482.97 718.645 1486.53 Q720.473 1490.07 724.084 1490.07 Q727.719 1490.07 729.524 1486.53 Q731.353 1482.97 731.353 1475.86 Q731.353 1468.73 729.524 1465.19 Q727.719 1461.62 724.084 1461.62 M724.084 1457.92 Q729.894 1457.92 732.95 1462.53 Q736.029 1467.11 736.029 1475.86 Q736.029 1484.59 732.95 1489.19 Q729.894 1493.78 724.084 1493.78 Q718.274 1493.78 715.195 1489.19 Q712.14 1484.59 712.14 1475.86 Q712.14 1467.11 715.195 1462.53 Q718.274 1457.92 724.084 1457.92 Z" fill="#000000" fill-rule="evenodd" fill-opacity="1" /><path clip-path="url(#clip950)" d="M 0 0 M736.029 1452.02 L760.14 1452.02 L760.14 1455.22 L736.029 1455.22 L736.029 1452.02 Z" fill="#000000" fill-rule="evenodd" fill-opacity="1" /><path clip-path="url(#clip950)" d="M 0 0 M775.77 1450.55 Q778.497 1451.14 780.02 1452.98 Q781.562 1454.82 781.562 1457.53 Q781.562 1461.69 778.704 1463.96 Q775.845 1466.24 770.579 1466.24 Q768.811 1466.24 766.93 1465.88 Q765.068 1465.54 763.074 1464.85 L763.074 1461.18 Q764.654 1462.1 766.535 1462.57 Q768.416 1463.04 770.466 1463.04 Q774.039 1463.04 775.901 1461.63 Q777.782 1460.22 777.782 1457.53 Q777.782 1455.05 776.033 1453.66 Q774.303 1452.25 771.199 1452.25 L767.927 1452.25 L767.927 1449.12 L771.35 1449.12 Q774.152 1449.12 775.638 1448.01 Q777.124 1446.89 777.124 1444.78 Q777.124 1442.62 775.581 1441.47 Q774.058 1440.3 771.199 1440.3 Q769.638 1440.3 767.851 1440.64 Q766.065 1440.98 763.921 1441.69 L763.921 1438.31 Q766.084 1437.71 767.964 1437.41 Q769.864 1437.11 771.538 1437.11 Q775.864 1437.11 778.384 1439.08 Q780.904 1441.04 780.904 1444.38 Q780.904 1446.72 779.569 1448.33 Q778.233 1449.93 775.77 1450.55 Z" fill="#000000" fill-rule="evenodd" fill-opacity="1" /><path clip-path="url(#clip950)" d="M 0 0 M785.681 1460.92 L789.65 1460.92 L789.65 1465.69 L785.681 1465.69 L785.681 1460.92 Z" fill="#000000" fill-rule="evenodd" fill-opacity="1" /><path clip-path="url(#clip950)" d="M 0 0 M793.806 1437.61 L808.721 1437.61 L808.721 1440.81 L797.286 1440.81 L797.286 1447.69 Q798.113 1447.41 798.941 1447.28 Q799.768 1447.13 800.596 1447.13 Q805.298 1447.13 808.044 1449.71 Q810.79 1452.28 810.79 1456.68 Q810.79 1461.22 807.968 1463.74 Q805.147 1466.24 800.013 1466.24 Q798.245 1466.24 796.402 1465.94 Q794.577 1465.64 792.621 1465.04 L792.621 1461.22 Q794.314 1462.14 796.12 1462.59 Q797.925 1463.04 799.938 1463.04 Q803.191 1463.04 805.091 1461.33 Q806.99 1459.62 806.99 1456.68 Q806.99 1453.75 805.091 1452.04 Q803.191 1450.33 799.938 1450.33 Q798.414 1450.33 796.891 1450.67 Q795.386 1451 793.806 1451.72 L793.806 1437.61 Z" fill="#000000" fill-rule="evenodd" fill-opacity="1" /><path clip-path="url(#clip950)" d="M 0 0 M1202.53 1489.17 L1210.17 1489.17 L1210.17 1462.8 L1201.86 1464.47 L1201.86 1460.21 L1210.12 1458.54 L1214.8 1458.54 L1214.8 1489.17 L1222.44 1489.17 L1222.44 1493.1 L1202.53 1493.1 L1202.53 1489.17 Z" fill="#000000" fill-rule="evenodd" fill-opacity="1" /><path clip-path="url(#clip950)" d="M 0 0 M1237.51 1461.62 Q1233.9 1461.62 1232.07 1465.19 Q1230.26 1468.73 1230.26 1475.86 Q1230.26 1482.97 1232.07 1486.53 Q1233.9 1490.07 1237.51 1490.07 Q1241.14 1490.07 1242.95 1486.53 Q1244.78 1482.97 1244.78 1475.86 Q1244.78 1468.73 1242.95 1465.19 Q1241.14 1461.62 1237.51 1461.62 M1237.51 1457.92 Q1243.32 1457.92 1246.37 1462.53 Q1249.45 1467.11 1249.45 1475.86 Q1249.45 1484.59 1246.37 1489.19 Q1243.32 1493.78 1237.51 1493.78 Q1231.7 1493.78 1228.62 1489.19 Q1225.56 1484.59 1225.56 1475.86 Q1225.56 1467.11 1228.62 1462.53 Q1231.7 1457.92 1237.51 1457.92 Z" fill="#000000" fill-rule="evenodd" fill-opacity="1" /><path clip-path="url(#clip950)" d="M 0 0 M1249.45 1452.02 L1273.56 1452.02 L1273.56 1455.22 L1249.45 1455.22 L1249.45 1452.02 Z" fill="#000000" fill-rule="evenodd" fill-opacity="1" /><path clip-path="url(#clip950)" d="M 0 0 M1289.19 1450.55 Q1291.92 1451.14 1293.44 1452.98 Q1294.99 1454.82 1294.99 1457.53 Q1294.99 1461.69 1292.13 1463.96 Q1289.27 1466.24 1284 1466.24 Q1282.23 1466.24 1280.35 1465.88 Q1278.49 1465.54 1276.5 1464.85 L1276.5 1461.18 Q1278.08 1462.1 1279.96 1462.57 Q1281.84 1463.04 1283.89 1463.04 Q1287.46 1463.04 1289.32 1461.63 Q1291.21 1460.22 1291.21 1457.53 Q1291.21 1455.05 1289.46 1453.66 Q1287.73 1452.25 1284.62 1452.25 L1281.35 1452.25 L1281.35 1449.12 L1284.77 1449.12 Q1287.58 1449.12 1289.06 1448.01 Q1290.55 1446.89 1290.55 1444.78 Q1290.55 1442.62 1289 1441.47 Q1287.48 1440.3 1284.62 1440.3 Q1283.06 1440.3 1281.27 1440.64 Q1279.49 1440.98 1277.34 1441.69 L1277.34 1438.31 Q1279.51 1437.71 1281.39 1437.41 Q1283.29 1437.11 1284.96 1437.11 Q1289.29 1437.11 1291.81 1439.08 Q1294.33 1441.04 1294.33 1444.38 Q1294.33 1446.72 1292.99 1448.33 Q1291.66 1449.93 1289.19 1450.55 Z" fill="#000000" fill-rule="evenodd" fill-opacity="1" /><path clip-path="url(#clip950)" d="M 0 0 M1299.1 1460.92 L1303.07 1460.92 L1303.07 1465.69 L1299.1 1465.69 L1299.1 1460.92 Z" fill="#000000" fill-rule="evenodd" fill-opacity="1" /><path clip-path="url(#clip950)" d="M 0 0 M1315.32 1440.11 Q1312.38 1440.11 1310.9 1443.01 Q1309.43 1445.89 1309.43 1451.68 Q1309.43 1457.46 1310.9 1460.35 Q1312.38 1463.23 1315.32 1463.23 Q1318.27 1463.23 1319.74 1460.35 Q1321.22 1457.46 1321.22 1451.68 Q1321.22 1445.89 1319.74 1443.01 Q1318.27 1440.11 1315.32 1440.11 M1315.32 1437.11 Q1320.04 1437.11 1322.52 1440.85 Q1325.02 1444.57 1325.02 1451.68 Q1325.02 1458.77 1322.52 1462.51 Q1320.04 1466.24 1315.32 1466.24 Q1310.6 1466.24 1308.09 1462.51 Q1305.61 1458.77 1305.61 1451.68 Q1305.61 1444.57 1308.09 1440.85 Q1310.6 1437.11 1315.32 1437.11 Z" fill="#000000" fill-rule="evenodd" fill-opacity="1" /><path clip-path="url(#clip950)" d="M 0 0 M1717.15 1489.17 L1724.79 1489.17 L1724.79 1462.8 L1716.48 1464.47 L1716.48 1460.21 L1724.74 1458.54 L1729.42 1458.54 L1729.42 1489.17 L1737.06 1489.17 L1737.06 1493.1 L1717.15 1493.1 L1717.15 1489.17 Z" fill="#000000" fill-rule="evenodd" fill-opacity="1" /><path clip-path="url(#clip950)" d="M 0 0 M1752.13 1461.62 Q1748.51 1461.62 1746.69 1465.19 Q1744.88 1468.73 1744.88 1475.86 Q1744.88 1482.97 1746.69 1486.53 Q1748.51 1490.07 1752.13 1490.07 Q1755.76 1490.07 1757.57 1486.53 Q1759.39 1482.97 1759.39 1475.86 Q1759.39 1468.73 1757.57 1465.19 Q1755.76 1461.62 1752.13 1461.62 M1752.13 1457.92 Q1757.94 1457.92 1760.99 1462.53 Q1764.07 1467.11 1764.07 1475.86 Q1764.07 1484.59 1760.99 1489.19 Q1757.94 1493.78 1752.13 1493.78 Q1746.32 1493.78 1743.24 1489.19 Q1740.18 1484.59 1740.18 1475.86 Q1740.18 1467.11 1743.24 1462.53 Q1746.32 1457.92 1752.13 1457.92 Z" fill="#000000" fill-rule="evenodd" fill-opacity="1" /><path clip-path="url(#clip950)" d="M 0 0 M1764.07 1452.02 L1788.18 1452.02 L1788.18 1455.22 L1764.07 1455.22 L1764.07 1452.02 Z" fill="#000000" fill-rule="evenodd" fill-opacity="1" /><path clip-path="url(#clip950)" d="M 0 0 M1795.57 1462.5 L1808.83 1462.5 L1808.83 1465.69 L1791 1465.69 L1791 1462.5 Q1793.17 1460.26 1796.89 1456.5 Q1800.63 1452.72 1801.59 1451.63 Q1803.42 1449.58 1804.13 1448.16 Q1804.86 1446.74 1804.86 1445.36 Q1804.86 1443.12 1803.28 1441.71 Q1801.72 1440.3 1799.2 1440.3 Q1797.42 1440.3 1795.42 1440.92 Q1793.45 1441.54 1791.19 1442.8 L1791.19 1438.97 Q1793.49 1438.05 1795.48 1437.58 Q1797.47 1437.11 1799.13 1437.11 Q1803.49 1437.11 1806.09 1439.29 Q1808.68 1441.47 1808.68 1445.12 Q1808.68 1446.85 1808.02 1448.41 Q1807.38 1449.95 1805.67 1452.06 Q1805.2 1452.6 1802.68 1455.22 Q1800.16 1457.81 1795.57 1462.5 Z" fill="#000000" fill-rule="evenodd" fill-opacity="1" /><path clip-path="url(#clip950)" d="M 0 0 M1812.95 1460.92 L1816.92 1460.92 L1816.92 1465.69 L1812.95 1465.69 L1812.95 1460.92 Z" fill="#000000" fill-rule="evenodd" fill-opacity="1" /><path clip-path="url(#clip950)" d="M 0 0 M1821.08 1437.61 L1835.99 1437.61 L1835.99 1440.81 L1824.56 1440.81 L1824.56 1447.69 Q1825.38 1447.41 1826.21 1447.28 Q1827.04 1447.13 1827.87 1447.13 Q1832.57 1447.13 1835.31 1449.71 Q1838.06 1452.28 1838.06 1456.68 Q1838.06 1461.22 1835.24 1463.74 Q1832.42 1466.24 1827.28 1466.24 Q1825.51 1466.24 1823.67 1465.94 Q1821.85 1465.64 1819.89 1465.04 L1819.89 1461.22 Q1821.58 1462.14 1823.39 1462.59 Q1825.2 1463.04 1827.21 1463.04 Q1830.46 1463.04 1832.36 1461.33 Q1834.26 1459.62 1834.26 1456.68 Q1834.26 1453.75 1832.36 1452.04 Q1830.46 1450.33 1827.21 1450.33 Q1825.68 1450.33 1824.16 1450.67 Q1822.66 1451 1821.08 1451.72 L1821.08 1437.61 Z" fill="#000000" fill-rule="evenodd" fill-opacity="1" /><path clip-path="url(#clip950)" d="M 0 0 M2230.57 1489.17 L2238.21 1489.17 L2238.21 1462.8 L2229.9 1464.47 L2229.9 1460.21 L2238.16 1458.54 L2242.84 1458.54 L2242.84 1489.17 L2250.48 1489.17 L2250.48 1493.1 L2230.57 1493.1 L2230.57 1489.17 Z" fill="#000000" fill-rule="evenodd" fill-opacity="1" /><path clip-path="url(#clip950)" d="M 0 0 M2265.55 1461.62 Q2261.94 1461.62 2260.11 1465.19 Q2258.3 1468.73 2258.3 1475.86 Q2258.3 1482.97 2260.11 1486.53 Q2261.94 1490.07 2265.55 1490.07 Q2269.18 1490.07 2270.99 1486.53 Q2272.82 1482.97 2272.82 1475.86 Q2272.82 1468.73 2270.99 1465.19 Q2269.18 1461.62 2265.55 1461.62 M2265.55 1457.92 Q2271.36 1457.92 2274.41 1462.53 Q2277.49 1467.11 2277.49 1475.86 Q2277.49 1484.59 2274.41 1489.19 Q2271.36 1493.78 2265.55 1493.78 Q2259.74 1493.78 2256.66 1489.19 Q2253.6 1484.59 2253.6 1475.86 Q2253.6 1467.11 2256.66 1462.53 Q2259.74 1457.92 2265.55 1457.92 Z" fill="#000000" fill-rule="evenodd" fill-opacity="1" /><path clip-path="url(#clip950)" d="M 0 0 M2277.49 1452.02 L2301.61 1452.02 L2301.61 1455.22 L2277.49 1455.22 L2277.49 1452.02 Z" fill="#000000" fill-rule="evenodd" fill-opacity="1" /><path clip-path="url(#clip950)" d="M 0 0 M2309 1462.5 L2322.26 1462.5 L2322.26 1465.69 L2304.43 1465.69 L2304.43 1462.5 Q2306.59 1460.26 2310.31 1456.5 Q2314.06 1452.72 2315.01 1451.63 Q2316.84 1449.58 2317.55 1448.16 Q2318.29 1446.74 2318.29 1445.36 Q2318.29 1443.12 2316.71 1441.71 Q2315.15 1440.3 2312.63 1440.3 Q2310.84 1440.3 2308.85 1440.92 Q2306.87 1441.54 2304.61 1442.8 L2304.61 1438.97 Q2306.91 1438.05 2308.9 1437.58 Q2310.9 1437.11 2312.55 1437.11 Q2316.91 1437.11 2319.51 1439.29 Q2322.11 1441.47 2322.11 1445.12 Q2322.11 1446.85 2321.45 1448.41 Q2320.81 1449.95 2319.1 1452.06 Q2318.63 1452.6 2316.11 1455.22 Q2313.59 1457.81 2309 1462.5 Z" fill="#000000" fill-rule="evenodd" fill-opacity="1" /><path clip-path="url(#clip950)" d="M 0 0 M2326.37 1460.92 L2330.34 1460.92 L2330.34 1465.69 L2326.37 1465.69 L2326.37 1460.92 Z" fill="#000000" fill-rule="evenodd" fill-opacity="1" /><path clip-path="url(#clip950)" d="M 0 0 M2342.59 1440.11 Q2339.65 1440.11 2338.17 1443.01 Q2336.7 1445.89 2336.7 1451.68 Q2336.7 1457.46 2338.17 1460.35 Q2339.65 1463.23 2342.59 1463.23 Q2345.54 1463.23 2347.01 1460.35 Q2348.49 1457.46 2348.49 1451.68 Q2348.49 1445.89 2347.01 1443.01 Q2345.54 1440.11 2342.59 1440.11 M2342.59 1437.11 Q2347.31 1437.11 2349.79 1440.85 Q2352.29 1444.57 2352.29 1451.68 Q2352.29 1458.77 2349.79 1462.51 Q2347.31 1466.24 2342.59 1466.24 Q2337.87 1466.24 2335.36 1462.51 Q2332.88 1458.77 2332.88 1451.68 Q2332.88 1444.57 2335.36 1440.85 Q2337.87 1437.11 2342.59 1437.11 Z" fill="#000000" fill-rule="evenodd" fill-opacity="1" /><path clip-path="url(#clip950)" d="M 0 0 M1155.72 1526.54 L1161.92 1526.54 L1173.06 1556.46 L1184.2 1526.54 L1190.41 1526.54 L1177.04 1562.19 L1169.09 1562.19 L1155.72 1526.54 Z" fill="#000000" fill-rule="evenodd" fill-opacity="1" /><path clip-path="url(#clip950)" d="M 0 0 M1223.64 1573.01 L1223.64 1577.56 L1189.77 1577.56 L1189.77 1573.01 L1223.64 1573.01 Z" fill="#000000" fill-rule="evenodd" fill-opacity="1" /><path clip-path="url(#clip950)" d="M 0 0 M1255.44 1527.91 L1255.44 1533.38 Q1252.95 1532.01 1250.44 1531.34 Q1247.96 1530.64 1245.41 1530.64 Q1239.71 1530.64 1236.56 1534.27 Q1233.41 1537.87 1233.41 1544.39 Q1233.41 1550.92 1236.56 1554.55 Q1239.71 1558.14 1245.41 1558.14 Q1247.96 1558.14 1250.44 1557.47 Q1252.95 1556.77 1255.44 1555.41 L1255.44 1560.82 Q1252.99 1561.96 1250.34 1562.54 Q1247.73 1563.11 1244.77 1563.11 Q1236.72 1563.11 1231.98 1558.05 Q1227.24 1552.99 1227.24 1544.39 Q1227.24 1535.67 1232.01 1530.68 Q1236.82 1525.68 1245.16 1525.68 Q1247.86 1525.68 1250.44 1526.25 Q1253.02 1526.79 1255.44 1527.91 Z" fill="#000000" fill-rule="evenodd" fill-opacity="1" /><path clip-path="url(#clip950)" d="M 0 0 M1261.58 1512.66 L1267.44 1512.66 L1267.44 1562.19 L1261.58 1562.19 L1261.58 1512.66 Z" fill="#000000" fill-rule="evenodd" fill-opacity="1" /><path clip-path="url(#clip950)" d="M 0 0 M1287.39 1530.64 Q1282.68 1530.64 1279.94 1534.34 Q1277.21 1538 1277.21 1544.39 Q1277.21 1550.79 1279.91 1554.48 Q1282.65 1558.14 1287.39 1558.14 Q1292.07 1558.14 1294.81 1554.45 Q1297.55 1550.76 1297.55 1544.39 Q1297.55 1538.06 1294.81 1534.37 Q1292.07 1530.64 1287.39 1530.64 M1287.39 1525.68 Q1295.03 1525.68 1299.39 1530.64 Q1303.75 1535.61 1303.75 1544.39 Q1303.75 1553.15 1299.39 1558.14 Q1295.03 1563.11 1287.39 1563.11 Q1279.72 1563.11 1275.36 1558.14 Q1271.03 1553.15 1271.03 1544.39 Q1271.03 1535.61 1275.36 1530.64 Q1279.72 1525.68 1287.39 1525.68 Z" fill="#000000" fill-rule="evenodd" fill-opacity="1" /><path clip-path="url(#clip950)" d="M 0 0 M1332.62 1527.59 L1332.62 1533.13 Q1330.14 1531.85 1327.46 1531.22 Q1324.79 1530.58 1321.93 1530.58 Q1317.57 1530.58 1315.37 1531.92 Q1313.2 1533.25 1313.2 1535.93 Q1313.2 1537.96 1314.76 1539.14 Q1316.32 1540.29 1321.03 1541.34 L1323.04 1541.78 Q1329.28 1543.12 1331.89 1545.57 Q1334.53 1547.99 1334.53 1552.35 Q1334.53 1557.32 1330.58 1560.21 Q1326.67 1563.11 1319.79 1563.11 Q1316.93 1563.11 1313.81 1562.54 Q1310.72 1561.99 1307.28 1560.88 L1307.28 1554.83 Q1310.53 1556.52 1313.68 1557.38 Q1316.83 1558.21 1319.92 1558.21 Q1324.06 1558.21 1326.29 1556.81 Q1328.51 1555.37 1328.51 1552.8 Q1328.51 1550.41 1326.89 1549.14 Q1325.3 1547.86 1319.86 1546.68 L1317.82 1546.21 Q1312.38 1545.06 1309.96 1542.71 Q1307.54 1540.32 1307.54 1536.18 Q1307.54 1531.15 1311.1 1528.42 Q1314.67 1525.68 1321.23 1525.68 Q1324.47 1525.68 1327.34 1526.16 Q1330.2 1526.63 1332.62 1527.59 Z" fill="#000000" fill-rule="evenodd" fill-opacity="1" /><path clip-path="url(#clip950)" d="M 0 0 M1371.16 1542.9 L1371.16 1545.76 L1344.24 1545.76 Q1344.62 1551.81 1347.87 1554.99 Q1351.14 1558.14 1356.97 1558.14 Q1360.34 1558.14 1363.49 1557.32 Q1366.68 1556.49 1369.8 1554.83 L1369.8 1560.37 Q1366.64 1561.71 1363.33 1562.41 Q1360.02 1563.11 1356.62 1563.11 Q1348.09 1563.11 1343.09 1558.14 Q1338.13 1553.18 1338.13 1544.71 Q1338.13 1535.96 1342.84 1530.83 Q1347.58 1525.68 1355.6 1525.68 Q1362.79 1525.68 1366.96 1530.33 Q1371.16 1534.94 1371.16 1542.9 M1365.31 1541.18 Q1365.24 1536.37 1362.6 1533.51 Q1359.99 1530.64 1355.66 1530.64 Q1350.76 1530.64 1347.8 1533.41 Q1344.87 1536.18 1344.43 1541.21 L1365.31 1541.18 Z" fill="#000000" fill-rule="evenodd" fill-opacity="1" /><polyline clip-path="url(#clip952)" style="stroke:#000000; stroke-width:2; stroke-opacity:0.1; fill:none" points="
  174.126,1263.08 2352.76,1263.08 
  "/>
<polyline clip-path="url(#clip952)" style="stroke:#000000; stroke-width:2; stroke-opacity:0.1; fill:none" points="
  174.126,911.1 2352.76,911.1 
  "/>
<polyline clip-path="url(#clip952)" style="stroke:#000000; stroke-width:2; stroke-opacity:0.1; fill:none" points="
  174.126,559.124 2352.76,559.124 
  "/>
<polyline clip-path="url(#clip952)" style="stroke:#000000; stroke-width:2; stroke-opacity:0.1; fill:none" points="
  174.126,207.149 2352.76,207.149 
  "/>
<polyline clip-path="url(#clip950)" style="stroke:#000000; stroke-width:4; stroke-opacity:1; fill:none" points="
  174.126,1410.9 174.126,47.2441 
  "/>
<polyline clip-path="url(#clip950)" style="stroke:#000000; stroke-width:4; stroke-opacity:1; fill:none" points="
  174.126,1263.08 200.269,1263.08 
  "/>
<polyline clip-path="url(#clip950)" style="stroke:#000000; stroke-width:4; stroke-opacity:1; fill:none" points="
  174.126,911.1 200.269,911.1 
  "/>
<polyline clip-path="url(#clip950)" style="stroke:#000000; stroke-width:4; stroke-opacity:1; fill:none" points="
  174.126,559.124 200.269,559.124 
  "/>
<polyline clip-path="url(#clip950)" style="stroke:#000000; stroke-width:4; stroke-opacity:1; fill:none" points="
  174.126,207.149 200.269,207.149 
  "/>
<path clip-path="url(#clip950)" d="M 0 0 M126.598 1261.21 Q123.45 1261.21 121.598 1263.36 Q119.769 1265.52 119.769 1269.27 Q119.769 1272.99 121.598 1275.17 Q123.45 1277.32 126.598 1277.32 Q129.746 1277.32 131.575 1275.17 Q133.427 1272.99 133.427 1269.27 Q133.427 1265.52 131.575 1263.36 Q129.746 1261.21 126.598 1261.21 M135.88 1246.56 L135.88 1250.82 Q134.121 1249.98 132.316 1249.54 Q130.533 1249.11 128.774 1249.11 Q124.144 1249.11 121.691 1252.23 Q119.26 1255.36 118.913 1261.67 Q120.279 1259.66 122.339 1258.6 Q124.399 1257.51 126.876 1257.51 Q132.084 1257.51 135.093 1260.68 Q138.126 1263.83 138.126 1269.27 Q138.126 1274.59 134.978 1277.81 Q131.83 1281.03 126.598 1281.03 Q120.603 1281.03 117.431 1276.44 Q114.26 1271.84 114.26 1263.11 Q114.26 1254.92 118.149 1250.05 Q122.038 1245.17 128.589 1245.17 Q130.348 1245.17 132.13 1245.52 Q133.936 1245.86 135.88 1246.56 Z" fill="#000000" fill-rule="evenodd" fill-opacity="1" /><path clip-path="url(#clip950)" d="M 0 0 M115.904 893.82 L138.126 893.82 L138.126 895.81 L125.58 928.38 L120.695 928.38 L132.501 897.755 L115.904 897.755 L115.904 893.82 Z" fill="#000000" fill-rule="evenodd" fill-opacity="1" /><path clip-path="url(#clip950)" d="M 0 0 M126.274 559.992 Q122.941 559.992 121.019 561.774 Q119.121 563.557 119.121 566.682 Q119.121 569.807 121.019 571.589 Q122.941 573.372 126.274 573.372 Q129.607 573.372 131.529 571.589 Q133.45 569.784 133.45 566.682 Q133.45 563.557 131.529 561.774 Q129.63 559.992 126.274 559.992 M121.598 558.001 Q118.589 557.261 116.899 555.2 Q115.232 553.14 115.232 550.177 Q115.232 546.034 118.172 543.626 Q121.135 541.219 126.274 541.219 Q131.436 541.219 134.376 543.626 Q137.316 546.034 137.316 550.177 Q137.316 553.14 135.626 555.2 Q133.959 557.261 130.973 558.001 Q134.353 558.788 136.228 561.08 Q138.126 563.372 138.126 566.682 Q138.126 571.705 135.047 574.39 Q131.992 577.075 126.274 577.075 Q120.556 577.075 117.478 574.39 Q114.422 571.705 114.422 566.682 Q114.422 563.372 116.32 561.08 Q118.218 558.788 121.598 558.001 M119.885 550.617 Q119.885 553.302 121.552 554.807 Q123.242 556.312 126.274 556.312 Q129.283 556.312 130.973 554.807 Q132.686 553.302 132.686 550.617 Q132.686 547.932 130.973 546.427 Q129.283 544.923 126.274 544.923 Q123.242 544.923 121.552 546.427 Q119.885 547.932 119.885 550.617 Z" fill="#000000" fill-rule="evenodd" fill-opacity="1" /><path clip-path="url(#clip950)" d="M 0 0 M116.506 223.711 L116.506 219.452 Q118.265 220.285 120.07 220.725 Q121.876 221.165 123.612 221.165 Q128.242 221.165 130.672 218.063 Q133.126 214.938 133.473 208.595 Q132.13 210.586 130.07 211.651 Q128.01 212.716 125.51 212.716 Q120.325 212.716 117.293 209.591 Q114.283 206.442 114.283 201.003 Q114.283 195.679 117.431 192.461 Q120.58 189.244 125.811 189.244 Q131.806 189.244 134.954 193.85 Q138.126 198.433 138.126 207.183 Q138.126 215.354 134.237 220.239 Q130.371 225.1 123.82 225.1 Q122.061 225.1 120.255 224.753 Q118.45 224.405 116.506 223.711 M125.811 209.058 Q128.959 209.058 130.788 206.905 Q132.64 204.753 132.64 201.003 Q132.64 197.276 130.788 195.123 Q128.959 192.947 125.811 192.947 Q122.663 192.947 120.811 195.123 Q118.982 197.276 118.982 201.003 Q118.982 204.753 120.811 206.905 Q122.663 209.058 125.811 209.058 Z" fill="#000000" fill-rule="evenodd" fill-opacity="1" /><path clip-path="url(#clip950)" d="M 0 0 M59.1993 815.533 Q55.2526 813.336 53.3747 810.281 Q51.4968 807.225 51.4968 803.088 Q51.4968 797.518 55.4117 794.494 Q59.2948 791.47 66.4881 791.47 L88.0042 791.47 L88.0042 797.358 L66.679 797.358 Q61.5546 797.358 59.072 799.173 Q56.5894 800.987 56.5894 804.711 Q56.5894 809.262 59.6131 811.904 Q62.6368 814.546 67.8567 814.546 L88.0042 814.546 L88.0042 820.434 L66.679 820.434 Q61.5228 820.434 59.072 822.248 Q56.5894 824.063 56.5894 827.85 Q56.5894 832.338 59.6449 834.98 Q62.6686 837.622 67.8567 837.622 L88.0042 837.622 L88.0042 843.51 L52.3562 843.51 L52.3562 837.622 L57.8944 837.622 Q54.616 835.616 53.0564 832.815 Q51.4968 830.015 51.4968 826.163 Q51.4968 822.28 53.4702 819.575 Q55.4436 816.838 59.1993 815.533 Z" fill="#000000" fill-rule="evenodd" fill-opacity="1" /><path clip-path="url(#clip950)" d="M 0 0 M52.3562 785.327 L52.3562 779.471 L88.0042 779.471 L88.0042 785.327 L52.3562 785.327 M38.479 785.327 L38.479 779.471 L45.895 779.471 L45.895 785.327 L38.479 785.327 Z" fill="#000000" fill-rule="evenodd" fill-opacity="1" /><path clip-path="url(#clip950)" d="M 0 0 M66.4881 743.696 L88.0042 743.696 L88.0042 749.552 L66.679 749.552 Q61.6183 749.552 59.1038 751.525 Q56.5894 753.499 56.5894 757.446 Q56.5894 762.188 59.6131 764.925 Q62.6368 767.662 67.8567 767.662 L88.0042 767.662 L88.0042 773.551 L52.3562 773.551 L52.3562 767.662 L57.8944 767.662 Q54.6797 765.562 53.0883 762.729 Q51.4968 759.864 51.4968 756.141 Q51.4968 749.998 55.3163 746.847 Q59.1038 743.696 66.4881 743.696 Z" fill="#000000" fill-rule="evenodd" fill-opacity="1" /><path clip-path="url(#clip950)" d="M 0 0 M98.8259 710.467 L103.377 710.467 L103.377 744.332 L98.8259 744.332 L98.8259 710.467 Z" fill="#000000" fill-rule="evenodd" fill-opacity="1" /><path clip-path="url(#clip950)" d="M 0 0 M57.7671 680.866 L38.479 680.866 L38.479 675.01 L88.0042 675.01 L88.0042 680.866 L82.657 680.866 Q85.8398 682.712 87.3994 685.545 Q88.9272 688.346 88.9272 692.292 Q88.9272 698.754 83.771 702.828 Q78.6147 706.87 70.212 706.87 Q61.8093 706.87 56.6531 702.828 Q51.4968 698.754 51.4968 692.292 Q51.4968 688.346 53.0564 685.545 Q54.5842 682.712 57.7671 680.866 M70.212 700.823 Q76.6732 700.823 80.3653 698.181 Q84.0256 695.507 84.0256 690.86 Q84.0256 686.213 80.3653 683.54 Q76.6732 680.866 70.212 680.866 Q63.7508 680.866 60.0905 683.54 Q56.3984 686.213 56.3984 690.86 Q56.3984 695.507 60.0905 698.181 Q63.7508 700.823 70.212 700.823 Z" fill="#000000" fill-rule="evenodd" fill-opacity="1" /><path clip-path="url(#clip950)" d="M 0 0 M52.3562 668.867 L52.3562 663.01 L88.0042 663.01 L88.0042 668.867 L52.3562 668.867 M38.479 668.867 L38.479 663.01 L45.895 663.01 L45.895 668.867 L38.479 668.867 Z" fill="#000000" fill-rule="evenodd" fill-opacity="1" /><path clip-path="url(#clip950)" d="M 0 0 M38.479 638.821 L43.3487 638.821 L43.3487 644.422 Q43.3487 647.573 44.6219 648.815 Q45.895 650.024 49.2052 650.024 L52.3562 650.024 L52.3562 640.38 L56.9077 640.38 L56.9077 650.024 L88.0042 650.024 L88.0042 655.912 L56.9077 655.912 L56.9077 661.514 L52.3562 661.514 L52.3562 655.912 L49.8736 655.912 Q43.9216 655.912 41.2162 653.143 Q38.479 650.374 38.479 644.359 L38.479 638.821 Z" fill="#000000" fill-rule="evenodd" fill-opacity="1" /><path clip-path="url(#clip950)" d="M 0 0 M38.479 614.631 L43.3487 614.631 L43.3487 620.233 Q43.3487 623.384 44.6219 624.625 Q45.895 625.835 49.2052 625.835 L52.3562 625.835 L52.3562 616.19 L56.9077 616.19 L56.9077 625.835 L88.0042 625.835 L88.0042 631.723 L56.9077 631.723 L56.9077 637.325 L52.3562 637.325 L52.3562 631.723 L49.8736 631.723 Q43.9216 631.723 41.2162 628.954 Q38.479 626.185 38.479 620.169 L38.479 614.631 Z" fill="#000000" fill-rule="evenodd" fill-opacity="1" /><polyline clip-path="url(#clip952)" style="stroke:#009af9; stroke-width:20; stroke-opacity:1; fill:none" stroke-dasharray="80, 50" points="
  235.785,85.838 1263.44,1372.3 2291.1,1004.93 
  "/>
<path clip-path="url(#clip950)" d="
M1987.05 213.659 L2280.13 213.659 L2280.13 92.6992 L1987.05 92.6992  Z
  " fill="#ffffff" fill-rule="evenodd" fill-opacity="1"/>
<polyline clip-path="url(#clip950)" style="stroke:#000000; stroke-width:4; stroke-opacity:1; fill:none" points="
  1987.05,213.659 2280.13,213.659 2280.13,92.6992 1987.05,92.6992 1987.05,213.659 
  "/>
<polyline clip-path="url(#clip950)" style="stroke:#009af9; stroke-width:4; stroke-opacity:1; fill:none" stroke-dasharray="16, 10" points="
  2011.25,153.179 2156.5,153.179 
  "/>
<path clip-path="url(#clip950)" d="M 0 0 M2194.55 172.867 Q2192.74 177.496 2191.03 178.908 Q2189.31 180.32 2186.44 180.32 L2183.04 180.32 L2183.04 176.755 L2185.54 176.755 Q2187.3 176.755 2188.27 175.922 Q2189.24 175.089 2190.42 171.987 L2191.19 170.043 L2180.7 144.533 L2185.22 144.533 L2193.32 164.811 L2201.42 144.533 L2205.93 144.533 L2194.55 172.867 Z" fill="#000000" fill-rule="evenodd" fill-opacity="1" /><path clip-path="url(#clip950)" d="M 0 0 M2211.81 166.524 L2219.45 166.524 L2219.45 140.158 L2211.14 141.825 L2211.14 137.566 L2219.41 135.899 L2224.08 135.899 L2224.08 166.524 L2231.72 166.524 L2231.72 170.459 L2211.81 170.459 L2211.81 166.524 Z" fill="#000000" fill-rule="evenodd" fill-opacity="1" /></svg>
