<?xml version="1.0" encoding="utf-8"?>
<svg xmlns="http://www.w3.org/2000/svg" xmlns:xlink="http://www.w3.org/1999/xlink" width="600" height="400" viewBox="0 0 2400 1600">
<defs>
  <clipPath id="clip910">
    <rect x="0" y="0" width="2400" height="1600"/>
  </clipPath>
</defs>
<path clip-path="url(#clip910)" d="
M0 1600 L2400 1600 L2400 0 L0 0  Z
  " fill="#ffffff" fill-rule="evenodd" fill-opacity="1"/>
<defs>
  <clipPath id="clip911">
    <rect x="480" y="0" width="1681" height="1600"/>
  </clipPath>
</defs>
<path clip-path="url(#clip910)" d="
M202.459 1410.9 L2352.76 1410.9 L2352.76 47.2441 L202.459 47.2441  Z
  " fill="#ffffff" fill-rule="evenodd" fill-opacity="1"/>
<defs>
  <clipPath id="clip912">
    <rect x="202" y="47" width="2151" height="1365"/>
  </clipPath>
</defs>
<polyline clip-path="url(#clip912)" style="stroke:#000000; stroke-width:2; stroke-opacity:0.1; fill:none" points="
  420.844,1410.9 420.844,47.2441 
  "/>
<polyline clip-path="url(#clip912)" style="stroke:#000000; stroke-width:2; stroke-opacity:0.1; fill:none" points="
  732.686,1410.9 732.686,47.2441 
  "/>
<polyline clip-path="url(#clip912)" style="stroke:#000000; stroke-width:2; stroke-opacity:0.1; fill:none" points="
  1044.53,1410.9 1044.53,47.2441 
  "/>
<polyline clip-path="url(#clip912)" style="stroke:#000000; stroke-width:2; stroke-opacity:0.1; fill:none" points="
  1356.37,1410.9 1356.37,47.2441 
  "/>
<polyline clip-path="url(#clip912)" style="stroke:#000000; stroke-width:2; stroke-opacity:0.1; fill:none" points="
  1668.21,1410.9 1668.21,47.2441 
  "/>
<polyline clip-path="url(#clip912)" style="stroke:#000000; stroke-width:2; stroke-opacity:0.1; fill:none" points="
  1980.06,1410.9 1980.06,47.2441 
  "/>
<polyline clip-path="url(#clip912)" style="stroke:#000000; stroke-width:2; stroke-opacity:0.1; fill:none" points="
  2291.9,1410.9 2291.9,47.2441 
  "/>
<polyline clip-path="url(#clip910)" style="stroke:#000000; stroke-width:4; stroke-opacity:1; fill:none" points="
  202.459,1410.9 2352.76,1410.9 
  "/>
<polyline clip-path="url(#clip910)" style="stroke:#000000; stroke-width:4; stroke-opacity:1; fill:none" points="
  420.844,1410.9 420.844,1394.53 
  "/>
<polyline clip-path="url(#clip910)" style="stroke:#000000; stroke-width:4; stroke-opacity:1; fill:none" points="
  732.686,1410.9 732.686,1394.53 
  "/>
<polyline clip-path="url(#clip910)" style="stroke:#000000; stroke-width:4; stroke-opacity:1; fill:none" points="
  1044.53,1410.9 1044.53,1394.53 
  "/>
<polyline clip-path="url(#clip910)" style="stroke:#000000; stroke-width:4; stroke-opacity:1; fill:none" points="
  1356.37,1410.9 1356.37,1394.53 
  "/>
<polyline clip-path="url(#clip910)" style="stroke:#000000; stroke-width:4; stroke-opacity:1; fill:none" points="
  1668.21,1410.9 1668.21,1394.53 
  "/>
<polyline clip-path="url(#clip910)" style="stroke:#000000; stroke-width:4; stroke-opacity:1; fill:none" points="
  1980.06,1410.9 1980.06,1394.53 
  "/>
<polyline clip-path="url(#clip910)" style="stroke:#000000; stroke-width:4; stroke-opacity:1; fill:none" points="
  2291.9,1410.9 2291.9,1394.53 
  "/>
<path clip-path="url(#clip910)" d="M 0 0 M360.32 1489.17 L367.958 1489.17 L367.958 1462.8 L359.648 1464.47 L359.648 1460.21 L367.912 1458.54 L372.588 1458.54 L372.588 1489.17 L380.227 1489.17 L380.227 1493.1 L360.32 1493.1 L360.32 1489.17 Z" fill="#000000" fill-rule="evenodd" fill-opacity="1" /><path clip-path="url(#clip910)" d="M 0 0 M395.296 1461.62 Q391.685 1461.62 389.856 1465.19 Q388.051 1468.73 388.051 1475.86 Q388.051 1482.97 389.856 1486.53 Q391.685 1490.07 395.296 1490.07 Q398.93 1490.07 400.736 1486.53 Q402.565 1482.97 402.565 1475.86 Q402.565 1468.73 400.736 1465.19 Q398.93 1461.62 395.296 1461.62 M395.296 1457.92 Q401.106 1457.92 404.162 1462.53 Q407.241 1467.11 407.241 1475.86 Q407.241 1484.59 404.162 1489.19 Q401.106 1493.78 395.296 1493.78 Q389.486 1493.78 386.407 1489.19 Q383.352 1484.59 383.352 1475.86 Q383.352 1467.11 386.407 1462.53 Q389.486 1457.92 395.296 1457.92 Z" fill="#000000" fill-rule="evenodd" fill-opacity="1" /><path clip-path="url(#clip910)" d="M 0 0 M407.241 1452.02 L431.352 1452.02 L431.352 1455.22 L407.241 1455.22 L407.241 1452.02 Z" fill="#000000" fill-rule="evenodd" fill-opacity="1" /><path clip-path="url(#clip910)" d="M 0 0 M443.596 1440.11 Q440.662 1440.11 439.176 1443.01 Q437.709 1445.89 437.709 1451.68 Q437.709 1457.46 439.176 1460.35 Q440.662 1463.23 443.596 1463.23 Q446.549 1463.23 448.016 1460.35 Q449.502 1457.46 449.502 1451.68 Q449.502 1445.89 448.016 1443.01 Q446.549 1440.11 443.596 1440.11 M443.596 1437.11 Q448.317 1437.11 450.799 1440.85 Q453.301 1444.57 453.301 1451.68 Q453.301 1458.77 450.799 1462.51 Q448.317 1466.24 443.596 1466.24 Q438.875 1466.24 436.374 1462.51 Q433.891 1458.77 433.891 1451.68 Q433.891 1444.57 436.374 1440.85 Q438.875 1437.11 443.596 1437.11 Z" fill="#000000" fill-rule="evenodd" fill-opacity="1" /><path clip-path="url(#clip910)" d="M 0 0 M457.42 1460.92 L461.388 1460.92 L461.388 1465.69 L457.42 1465.69 L457.42 1460.92 Z" fill="#000000" fill-rule="evenodd" fill-opacity="1" /><path clip-path="url(#clip910)" d="M 0 0 M468.78 1462.5 L482.039 1462.5 L482.039 1465.69 L464.209 1465.69 L464.209 1462.5 Q466.372 1460.26 470.096 1456.5 Q473.839 1452.72 474.798 1451.63 Q476.622 1449.58 477.337 1448.16 Q478.071 1446.74 478.071 1445.36 Q478.071 1443.12 476.491 1441.71 Q474.93 1440.3 472.409 1440.3 Q470.623 1440.3 468.629 1440.92 Q466.654 1441.54 464.397 1442.8 L464.397 1438.97 Q466.692 1438.05 468.686 1437.58 Q470.679 1437.11 472.334 1437.11 Q476.698 1437.11 479.293 1439.29 Q481.889 1441.47 481.889 1445.12 Q481.889 1446.85 481.23 1448.41 Q480.591 1449.95 478.879 1452.06 Q478.409 1452.6 475.889 1455.22 Q473.369 1457.81 468.78 1462.5 Z" fill="#000000" fill-rule="evenodd" fill-opacity="1" /><path clip-path="url(#clip910)" d="M 0 0 M684.838 1489.17 L692.477 1489.17 L692.477 1462.8 L684.167 1464.47 L684.167 1460.21 L692.431 1458.54 L697.107 1458.54 L697.107 1489.17 L704.746 1489.17 L704.746 1493.1 L684.838 1493.1 L684.838 1489.17 Z" fill="#000000" fill-rule="evenodd" fill-opacity="1" /><path clip-path="url(#clip910)" d="M 0 0 M719.815 1461.62 Q716.204 1461.62 714.375 1465.19 Q712.57 1468.73 712.57 1475.86 Q712.57 1482.97 714.375 1486.53 Q716.204 1490.07 719.815 1490.07 Q723.449 1490.07 725.255 1486.53 Q727.084 1482.97 727.084 1475.86 Q727.084 1468.73 725.255 1465.19 Q723.449 1461.62 719.815 1461.62 M719.815 1457.92 Q725.625 1457.92 728.681 1462.53 Q731.759 1467.11 731.759 1475.86 Q731.759 1484.59 728.681 1489.19 Q725.625 1493.78 719.815 1493.78 Q714.005 1493.78 710.926 1489.19 Q707.871 1484.59 707.871 1475.86 Q707.871 1467.11 710.926 1462.53 Q714.005 1457.92 719.815 1457.92 Z" fill="#000000" fill-rule="evenodd" fill-opacity="1" /><path clip-path="url(#clip910)" d="M 0 0 M741.464 1440.11 Q738.53 1440.11 737.044 1443.01 Q735.577 1445.89 735.577 1451.68 Q735.577 1457.46 737.044 1460.35 Q738.53 1463.23 741.464 1463.23 Q744.417 1463.23 745.884 1460.35 Q747.37 1457.46 747.37 1451.68 Q747.37 1445.89 745.884 1443.01 Q744.417 1440.11 741.464 1440.11 M741.464 1437.11 Q746.185 1437.11 748.668 1440.85 Q751.169 1444.57 751.169 1451.68 Q751.169 1458.77 748.668 1462.51 Q746.185 1466.24 741.464 1466.24 Q736.744 1466.24 734.242 1462.51 Q731.759 1458.77 731.759 1451.68 Q731.759 1444.57 734.242 1440.85 Q736.744 1437.11 741.464 1437.11 Z" fill="#000000" fill-rule="evenodd" fill-opacity="1" /><path clip-path="url(#clip910)" d="M 0 0 M755.288 1460.92 L759.256 1460.92 L759.256 1465.69 L755.288 1465.69 L755.288 1460.92 Z" fill="#000000" fill-rule="evenodd" fill-opacity="1" /><path clip-path="url(#clip910)" d="M 0 0 M771.5 1440.11 Q768.566 1440.11 767.08 1443.01 Q765.613 1445.89 765.613 1451.68 Q765.613 1457.46 767.08 1460.35 Q768.566 1463.23 771.5 1463.23 Q774.453 1463.23 775.92 1460.35 Q777.406 1457.46 777.406 1451.68 Q777.406 1445.89 775.92 1443.01 Q774.453 1440.11 771.5 1440.11 M771.5 1437.11 Q776.221 1437.11 778.704 1440.85 Q781.205 1444.57 781.205 1451.68 Q781.205 1458.77 778.704 1462.51 Q776.221 1466.24 771.5 1466.24 Q766.78 1466.24 764.278 1462.51 Q761.795 1458.77 761.795 1451.68 Q761.795 1444.57 764.278 1440.85 Q766.78 1437.11 771.5 1437.11 Z" fill="#000000" fill-rule="evenodd" fill-opacity="1" /><path clip-path="url(#clip910)" d="M 0 0 M997.33 1489.17 L1004.97 1489.17 L1004.97 1462.8 L996.658 1464.47 L996.658 1460.21 L1004.92 1458.54 L1009.6 1458.54 L1009.6 1489.17 L1017.24 1489.17 L1017.24 1493.1 L997.33 1493.1 L997.33 1489.17 Z" fill="#000000" fill-rule="evenodd" fill-opacity="1" /><path clip-path="url(#clip910)" d="M 0 0 M1032.31 1461.62 Q1028.7 1461.62 1026.87 1465.19 Q1025.06 1468.73 1025.06 1475.86 Q1025.06 1482.97 1026.87 1486.53 Q1028.7 1490.07 1032.31 1490.07 Q1035.94 1490.07 1037.75 1486.53 Q1039.57 1482.97 1039.57 1475.86 Q1039.57 1468.73 1037.75 1465.19 Q1035.94 1461.62 1032.31 1461.62 M1032.31 1457.92 Q1038.12 1457.92 1041.17 1462.53 Q1044.25 1467.11 1044.25 1475.86 Q1044.25 1484.59 1041.17 1489.19 Q1038.12 1493.78 1032.31 1493.78 Q1026.5 1493.78 1023.42 1489.19 Q1020.36 1484.59 1020.36 1475.86 Q1020.36 1467.11 1023.42 1462.53 Q1026.5 1457.92 1032.31 1457.92 Z" fill="#000000" fill-rule="evenodd" fill-opacity="1" /><path clip-path="url(#clip910)" d="M 0 0 M1053.96 1440.11 Q1051.02 1440.11 1049.54 1443.01 Q1048.07 1445.89 1048.07 1451.68 Q1048.07 1457.46 1049.54 1460.35 Q1051.02 1463.23 1053.96 1463.23 Q1056.91 1463.23 1058.38 1460.35 Q1059.86 1457.46 1059.86 1451.68 Q1059.86 1445.89 1058.38 1443.01 Q1056.91 1440.11 1053.96 1440.11 M1053.96 1437.11 Q1058.68 1437.11 1061.16 1440.85 Q1063.66 1444.57 1063.66 1451.68 Q1063.66 1458.77 1061.16 1462.51 Q1058.68 1466.24 1053.96 1466.24 Q1049.23 1466.24 1046.73 1462.51 Q1044.25 1458.77 1044.25 1451.68 Q1044.25 1444.57 1046.73 1440.85 Q1049.23 1437.11 1053.96 1437.11 Z" fill="#000000" fill-rule="evenodd" fill-opacity="1" /><path clip-path="url(#clip910)" d="M 0 0 M1067.78 1460.92 L1071.75 1460.92 L1071.75 1465.69 L1067.78 1465.69 L1067.78 1460.92 Z" fill="#000000" fill-rule="evenodd" fill-opacity="1" /><path clip-path="url(#clip910)" d="M 0 0 M1079.14 1462.5 L1092.4 1462.5 L1092.4 1465.69 L1074.57 1465.69 L1074.57 1462.5 Q1076.73 1460.26 1080.46 1456.5 Q1084.2 1452.72 1085.16 1451.63 Q1086.98 1449.58 1087.7 1448.16 Q1088.43 1446.74 1088.43 1445.36 Q1088.43 1443.12 1086.85 1441.71 Q1085.29 1440.3 1082.77 1440.3 Q1080.98 1440.3 1078.99 1440.92 Q1077.01 1441.54 1074.76 1442.8 L1074.76 1438.97 Q1077.05 1438.05 1079.05 1437.58 Q1081.04 1437.11 1082.69 1437.11 Q1087.06 1437.11 1089.65 1439.29 Q1092.25 1441.47 1092.25 1445.12 Q1092.25 1446.85 1091.59 1448.41 Q1090.95 1449.95 1089.24 1452.06 Q1088.77 1452.6 1086.25 1455.22 Q1083.73 1457.81 1079.14 1462.5 Z" fill="#000000" fill-rule="evenodd" fill-opacity="1" /><path clip-path="url(#clip910)" d="M 0 0 M1308.33 1489.17 L1315.96 1489.17 L1315.96 1462.8 L1307.65 1464.47 L1307.65 1460.21 L1315.92 1458.54 L1320.59 1458.54 L1320.59 1489.17 L1328.23 1489.17 L1328.23 1493.1 L1308.33 1493.1 L1308.33 1489.17 Z" fill="#000000" fill-rule="evenodd" fill-opacity="1" /><path clip-path="url(#clip910)" d="M 0 0 M1343.3 1461.62 Q1339.69 1461.62 1337.86 1465.19 Q1336.06 1468.73 1336.06 1475.86 Q1336.06 1482.97 1337.86 1486.53 Q1339.69 1490.07 1343.3 1490.07 Q1346.94 1490.07 1348.74 1486.53 Q1350.57 1482.97 1350.57 1475.86 Q1350.57 1468.73 1348.74 1465.19 Q1346.94 1461.62 1343.3 1461.62 M1343.3 1457.92 Q1349.11 1457.92 1352.17 1462.53 Q1355.25 1467.11 1355.25 1475.86 Q1355.25 1484.59 1352.17 1489.19 Q1349.11 1493.78 1343.3 1493.78 Q1337.49 1493.78 1334.41 1489.19 Q1331.36 1484.59 1331.36 1475.86 Q1331.36 1467.11 1334.41 1462.53 Q1337.49 1457.92 1343.3 1457.92 Z" fill="#000000" fill-rule="evenodd" fill-opacity="1" /><path clip-path="url(#clip910)" d="M 0 0 M1364.95 1440.11 Q1362.02 1440.11 1360.53 1443.01 Q1359.06 1445.89 1359.06 1451.68 Q1359.06 1457.46 1360.53 1460.35 Q1362.02 1463.23 1364.95 1463.23 Q1367.9 1463.23 1369.37 1460.35 Q1370.86 1457.46 1370.86 1451.68 Q1370.86 1445.89 1369.37 1443.01 Q1367.9 1440.11 1364.95 1440.11 M1364.95 1437.11 Q1369.67 1437.11 1372.16 1440.85 Q1374.66 1444.57 1374.66 1451.68 Q1374.66 1458.77 1372.16 1462.51 Q1369.67 1466.24 1364.95 1466.24 Q1360.23 1466.24 1357.73 1462.51 Q1355.25 1458.77 1355.25 1451.68 Q1355.25 1444.57 1357.73 1440.85 Q1360.23 1437.11 1364.95 1437.11 Z" fill="#000000" fill-rule="evenodd" fill-opacity="1" /><path clip-path="url(#clip910)" d="M 0 0 M1378.78 1460.92 L1382.74 1460.92 L1382.74 1465.69 L1378.78 1465.69 L1378.78 1460.92 Z" fill="#000000" fill-rule="evenodd" fill-opacity="1" /><path clip-path="url(#clip910)" d="M 0 0 M1397.3 1440.92 L1387.71 1455.91 L1397.3 1455.91 L1397.3 1440.92 M1396.3 1437.61 L1401.08 1437.61 L1401.08 1455.91 L1405.09 1455.91 L1405.09 1459.07 L1401.08 1459.07 L1401.08 1465.69 L1397.3 1465.69 L1397.3 1459.07 L1384.62 1459.07 L1384.62 1455.41 L1396.3 1437.61 Z" fill="#000000" fill-rule="evenodd" fill-opacity="1" /><path clip-path="url(#clip910)" d="M 0 0 M1620.3 1489.17 L1627.94 1489.17 L1627.94 1462.8 L1619.63 1464.47 L1619.63 1460.21 L1627.89 1458.54 L1632.57 1458.54 L1632.57 1489.17 L1640.21 1489.17 L1640.21 1493.1 L1620.3 1493.1 L1620.3 1489.17 Z" fill="#000000" fill-rule="evenodd" fill-opacity="1" /><path clip-path="url(#clip910)" d="M 0 0 M1655.28 1461.62 Q1651.67 1461.62 1649.84 1465.19 Q1648.03 1468.73 1648.03 1475.86 Q1648.03 1482.97 1649.84 1486.53 Q1651.67 1490.07 1655.28 1490.07 Q1658.91 1490.07 1660.72 1486.53 Q1662.55 1482.97 1662.55 1475.86 Q1662.55 1468.73 1660.72 1465.19 Q1658.91 1461.62 1655.28 1461.62 M1655.28 1457.92 Q1661.09 1457.92 1664.14 1462.53 Q1667.22 1467.11 1667.22 1475.86 Q1667.22 1484.59 1664.14 1489.19 Q1661.09 1493.78 1655.28 1493.78 Q1649.47 1493.78 1646.39 1489.19 Q1643.33 1484.59 1643.33 1475.86 Q1643.33 1467.11 1646.39 1462.53 Q1649.47 1457.92 1655.28 1457.92 Z" fill="#000000" fill-rule="evenodd" fill-opacity="1" /><path clip-path="url(#clip910)" d="M 0 0 M1676.93 1440.11 Q1673.99 1440.11 1672.51 1443.01 Q1671.04 1445.89 1671.04 1451.68 Q1671.04 1457.46 1672.51 1460.35 Q1673.99 1463.23 1676.93 1463.23 Q1679.88 1463.23 1681.35 1460.35 Q1682.83 1457.46 1682.83 1451.68 Q1682.83 1445.89 1681.35 1443.01 Q1679.88 1440.11 1676.93 1440.11 M1676.93 1437.11 Q1681.65 1437.11 1684.13 1440.85 Q1686.63 1444.57 1686.63 1451.68 Q1686.63 1458.77 1684.13 1462.51 Q1681.65 1466.24 1676.93 1466.24 Q1672.21 1466.24 1669.7 1462.51 Q1667.22 1458.77 1667.22 1451.68 Q1667.22 1444.57 1669.7 1440.85 Q1672.21 1437.11 1676.93 1437.11 Z" fill="#000000" fill-rule="evenodd" fill-opacity="1" /><path clip-path="url(#clip910)" d="M 0 0 M1690.75 1460.92 L1694.72 1460.92 L1694.72 1465.69 L1690.75 1465.69 L1690.75 1460.92 Z" fill="#000000" fill-rule="evenodd" fill-opacity="1" /><path clip-path="url(#clip910)" d="M 0 0 M1707.43 1450.14 Q1704.87 1450.14 1703.37 1451.89 Q1701.88 1453.64 1701.88 1456.68 Q1701.88 1459.71 1703.37 1461.48 Q1704.87 1463.23 1707.43 1463.23 Q1709.99 1463.23 1711.48 1461.48 Q1712.98 1459.71 1712.98 1456.68 Q1712.98 1453.64 1711.48 1451.89 Q1709.99 1450.14 1707.43 1450.14 M1714.97 1438.23 L1714.97 1441.69 Q1713.54 1441.02 1712.08 1440.66 Q1710.63 1440.3 1709.2 1440.3 Q1705.44 1440.3 1703.44 1442.84 Q1701.47 1445.38 1701.19 1450.52 Q1702.3 1448.88 1703.97 1448.01 Q1705.65 1447.13 1707.66 1447.13 Q1711.89 1447.13 1714.33 1449.71 Q1716.8 1452.26 1716.8 1456.68 Q1716.8 1461.01 1714.24 1463.62 Q1711.68 1466.24 1707.43 1466.24 Q1702.56 1466.24 1699.98 1462.51 Q1697.41 1458.77 1697.41 1451.68 Q1697.41 1445.02 1700.57 1441.07 Q1703.73 1437.11 1709.05 1437.11 Q1710.48 1437.11 1711.93 1437.39 Q1713.39 1437.67 1714.97 1438.23 Z" fill="#000000" fill-rule="evenodd" fill-opacity="1" /><path clip-path="url(#clip910)" d="M 0 0 M1932.25 1489.17 L1939.88 1489.17 L1939.88 1462.8 L1931.57 1464.47 L1931.57 1460.21 L1939.84 1458.54 L1944.51 1458.54 L1944.51 1489.17 L1952.15 1489.17 L1952.15 1493.1 L1932.25 1493.1 L1932.25 1489.17 Z" fill="#000000" fill-rule="evenodd" fill-opacity="1" /><path clip-path="url(#clip910)" d="M 0 0 M1967.22 1461.62 Q1963.61 1461.62 1961.78 1465.19 Q1959.98 1468.73 1959.98 1475.86 Q1959.98 1482.97 1961.78 1486.53 Q1963.61 1490.07 1967.22 1490.07 Q1970.86 1490.07 1972.66 1486.53 Q1974.49 1482.97 1974.49 1475.86 Q1974.49 1468.73 1972.66 1465.19 Q1970.86 1461.62 1967.22 1461.62 M1967.22 1457.92 Q1973.03 1457.92 1976.09 1462.53 Q1979.17 1467.11 1979.17 1475.86 Q1979.17 1484.59 1976.09 1489.19 Q1973.03 1493.78 1967.22 1493.78 Q1961.41 1493.78 1958.33 1489.19 Q1955.28 1484.59 1955.28 1475.86 Q1955.28 1467.11 1958.33 1462.53 Q1961.41 1457.92 1967.22 1457.92 Z" fill="#000000" fill-rule="evenodd" fill-opacity="1" /><path clip-path="url(#clip910)" d="M 0 0 M1988.87 1440.11 Q1985.94 1440.11 1984.45 1443.01 Q1982.98 1445.89 1982.98 1451.68 Q1982.98 1457.46 1984.45 1460.35 Q1985.94 1463.23 1988.87 1463.23 Q1991.82 1463.23 1993.29 1460.35 Q1994.78 1457.46 1994.78 1451.68 Q1994.78 1445.89 1993.29 1443.01 Q1991.82 1440.11 1988.87 1440.11 M1988.87 1437.11 Q1993.59 1437.11 1996.08 1440.85 Q1998.58 1444.57 1998.58 1451.68 Q1998.58 1458.77 1996.08 1462.51 Q1993.59 1466.24 1988.87 1466.24 Q1984.15 1466.24 1981.65 1462.51 Q1979.17 1458.77 1979.17 1451.68 Q1979.17 1444.57 1981.65 1440.85 Q1984.15 1437.11 1988.87 1437.11 Z" fill="#000000" fill-rule="evenodd" fill-opacity="1" /><path clip-path="url(#clip910)" d="M 0 0 M2002.7 1460.92 L2006.66 1460.92 L2006.66 1465.69 L2002.7 1465.69 L2002.7 1460.92 Z" fill="#000000" fill-rule="evenodd" fill-opacity="1" /><path clip-path="url(#clip910)" d="M 0 0 M2018.91 1452.36 Q2016.2 1452.36 2014.64 1453.81 Q2013.1 1455.26 2013.1 1457.79 Q2013.1 1460.33 2014.64 1461.78 Q2016.2 1463.23 2018.91 1463.23 Q2021.62 1463.23 2023.18 1461.78 Q2024.74 1460.31 2024.74 1457.79 Q2024.74 1455.26 2023.18 1453.81 Q2021.63 1452.36 2018.91 1452.36 M2015.11 1450.74 Q2012.66 1450.14 2011.29 1448.47 Q2009.94 1446.79 2009.94 1444.38 Q2009.94 1441.02 2012.33 1439.06 Q2014.73 1437.11 2018.91 1437.11 Q2023.1 1437.11 2025.49 1439.06 Q2027.88 1441.02 2027.88 1444.38 Q2027.88 1446.79 2026.51 1448.47 Q2025.15 1450.14 2022.73 1450.74 Q2025.47 1451.38 2027 1453.24 Q2028.54 1455.1 2028.54 1457.79 Q2028.54 1461.88 2026.04 1464.06 Q2023.55 1466.24 2018.91 1466.24 Q2014.26 1466.24 2011.76 1464.06 Q2009.28 1461.88 2009.28 1457.79 Q2009.28 1455.1 2010.82 1453.24 Q2012.36 1451.38 2015.11 1450.74 M2013.72 1444.74 Q2013.72 1446.92 2015.07 1448.15 Q2016.44 1449.37 2018.91 1449.37 Q2021.35 1449.37 2022.73 1448.15 Q2024.12 1446.92 2024.12 1444.74 Q2024.12 1442.56 2022.73 1441.34 Q2021.35 1440.11 2018.91 1440.11 Q2016.44 1440.11 2015.07 1441.34 Q2013.72 1442.56 2013.72 1444.74 Z" fill="#000000" fill-rule="evenodd" fill-opacity="1" /><path clip-path="url(#clip910)" d="M 0 0 M2245.4 1489.17 L2253.03 1489.17 L2253.03 1462.8 L2244.72 1464.47 L2244.72 1460.21 L2252.99 1458.54 L2257.66 1458.54 L2257.66 1489.17 L2265.3 1489.17 L2265.3 1493.1 L2245.4 1493.1 L2245.4 1489.17 Z" fill="#000000" fill-rule="evenodd" fill-opacity="1" /><path clip-path="url(#clip910)" d="M 0 0 M2280.37 1461.62 Q2276.76 1461.62 2274.93 1465.19 Q2273.13 1468.73 2273.13 1475.86 Q2273.13 1482.97 2274.93 1486.53 Q2276.76 1490.07 2280.37 1490.07 Q2284.01 1490.07 2285.81 1486.53 Q2287.64 1482.97 2287.64 1475.86 Q2287.64 1468.73 2285.81 1465.19 Q2284.01 1461.62 2280.37 1461.62 M2280.37 1457.92 Q2286.18 1457.92 2289.24 1462.53 Q2292.32 1467.11 2292.32 1475.86 Q2292.32 1484.59 2289.24 1489.19 Q2286.18 1493.78 2280.37 1493.78 Q2274.56 1493.78 2271.48 1489.19 Q2268.43 1484.59 2268.43 1475.86 Q2268.43 1467.11 2271.48 1462.53 Q2274.56 1457.92 2280.37 1457.92 Z" fill="#000000" fill-rule="evenodd" fill-opacity="1" /><path clip-path="url(#clip910)" d="M 0 0 M2292.86 1462.5 L2299.07 1462.5 L2299.07 1441.07 L2292.32 1442.43 L2292.32 1438.97 L2299.03 1437.61 L2302.83 1437.61 L2302.83 1462.5 L2309.04 1462.5 L2309.04 1465.69 L2292.86 1465.69 L2292.86 1462.5 Z" fill="#000000" fill-rule="evenodd" fill-opacity="1" /><path clip-path="url(#clip910)" d="M 0 0 M2313.16 1460.92 L2317.12 1460.92 L2317.12 1465.69 L2313.16 1465.69 L2313.16 1460.92 Z" fill="#000000" fill-rule="evenodd" fill-opacity="1" /><path clip-path="url(#clip910)" d="M 0 0 M2329.37 1440.11 Q2326.43 1440.11 2324.95 1443.01 Q2323.48 1445.89 2323.48 1451.68 Q2323.48 1457.46 2324.95 1460.35 Q2326.43 1463.23 2329.37 1463.23 Q2332.32 1463.23 2333.79 1460.35 Q2335.27 1457.46 2335.27 1451.68 Q2335.27 1445.89 2333.79 1443.01 Q2332.32 1440.11 2329.37 1440.11 M2329.37 1437.11 Q2334.09 1437.11 2336.57 1440.85 Q2339.07 1444.57 2339.07 1451.68 Q2339.07 1458.77 2336.57 1462.51 Q2334.09 1466.24 2329.37 1466.24 Q2324.65 1466.24 2322.15 1462.51 Q2319.66 1458.77 2319.66 1451.68 Q2319.66 1444.57 2322.15 1440.85 Q2324.65 1437.11 2329.37 1437.11 Z" fill="#000000" fill-rule="evenodd" fill-opacity="1" /><path clip-path="url(#clip910)" d="M 0 0 M1282.81 1545.6 L1281.41 1538.25 Q1279.98 1530.71 1274.31 1530.71 Q1270.05 1530.71 1268.11 1534.21 Q1265.66 1538.6 1265.66 1544.39 Q1265.66 1551.4 1268.04 1554.74 Q1270.46 1558.14 1274.31 1558.14 Q1278.58 1558.14 1280.87 1551.36 L1282.81 1545.6 M1286.09 1535.86 L1289.24 1526.54 L1294.46 1526.54 L1287.94 1545.86 L1289.21 1552.83 Q1289.5 1554.39 1290.61 1555.69 Q1291.91 1557.22 1292.93 1557.22 L1295.73 1557.22 L1295.73 1562.19 L1292.23 1562.19 Q1289.24 1562.19 1286.57 1559.51 Q1285.26 1558.18 1284.72 1555.37 Q1283.26 1558.91 1280.27 1561.68 Q1278.86 1562.98 1274.31 1562.98 Q1266.83 1562.98 1263.21 1558.14 Q1259.48 1553.15 1259.48 1544.39 Q1259.48 1535.04 1263.52 1530.64 Q1268.01 1525.74 1274.31 1525.74 Q1284.21 1525.74 1286.09 1535.86 Z" fill="#000000" fill-rule="evenodd" fill-opacity="1" /><polyline clip-path="url(#clip912)" style="stroke:#000000; stroke-width:2; stroke-opacity:0.1; fill:none" points="
  202.459,1275.72 2352.76,1275.72 
  "/>
<polyline clip-path="url(#clip912)" style="stroke:#000000; stroke-width:2; stroke-opacity:0.1; fill:none" points="
  202.459,1073.34 2352.76,1073.34 
  "/>
<polyline clip-path="url(#clip912)" style="stroke:#000000; stroke-width:2; stroke-opacity:0.1; fill:none" points="
  202.459,870.963 2352.76,870.963 
  "/>
<polyline clip-path="url(#clip912)" style="stroke:#000000; stroke-width:2; stroke-opacity:0.1; fill:none" points="
  202.459,668.586 2352.76,668.586 
  "/>
<polyline clip-path="url(#clip912)" style="stroke:#000000; stroke-width:2; stroke-opacity:0.1; fill:none" points="
  202.459,466.209 2352.76,466.209 
  "/>
<polyline clip-path="url(#clip912)" style="stroke:#000000; stroke-width:2; stroke-opacity:0.1; fill:none" points="
  202.459,263.832 2352.76,263.832 
  "/>
<polyline clip-path="url(#clip912)" style="stroke:#000000; stroke-width:2; stroke-opacity:0.1; fill:none" points="
  202.459,61.4556 2352.76,61.4556 
  "/>
<polyline clip-path="url(#clip910)" style="stroke:#000000; stroke-width:4; stroke-opacity:1; fill:none" points="
  202.459,1410.9 202.459,47.2441 
  "/>
<polyline clip-path="url(#clip910)" style="stroke:#000000; stroke-width:4; stroke-opacity:1; fill:none" points="
  202.459,1275.72 228.263,1275.72 
  "/>
<polyline clip-path="url(#clip910)" style="stroke:#000000; stroke-width:4; stroke-opacity:1; fill:none" points="
  202.459,1073.34 228.263,1073.34 
  "/>
<polyline clip-path="url(#clip910)" style="stroke:#000000; stroke-width:4; stroke-opacity:1; fill:none" points="
  202.459,870.963 228.263,870.963 
  "/>
<polyline clip-path="url(#clip910)" style="stroke:#000000; stroke-width:4; stroke-opacity:1; fill:none" points="
  202.459,668.586 228.263,668.586 
  "/>
<polyline clip-path="url(#clip910)" style="stroke:#000000; stroke-width:4; stroke-opacity:1; fill:none" points="
  202.459,466.209 228.263,466.209 
  "/>
<polyline clip-path="url(#clip910)" style="stroke:#000000; stroke-width:4; stroke-opacity:1; fill:none" points="
  202.459,263.832 228.263,263.832 
  "/>
<polyline clip-path="url(#clip910)" style="stroke:#000000; stroke-width:4; stroke-opacity:1; fill:none" points="
  202.459,61.4556 228.263,61.4556 
  "/>
<path clip-path="url(#clip910)" d="M 0 0 M119.538 1289.06 L127.177 1289.06 L127.177 1262.7 L118.867 1264.36 L118.867 1260.1 L127.13 1258.44 L131.806 1258.44 L131.806 1289.06 L139.445 1289.06 L139.445 1293 L119.538 1293 L119.538 1289.06 Z" fill="#000000" fill-rule="evenodd" fill-opacity="1" /><path clip-path="url(#clip910)" d="M 0 0 M154.515 1261.52 Q150.903 1261.52 149.075 1265.08 Q147.269 1268.62 147.269 1275.75 Q147.269 1282.86 149.075 1286.42 Q150.903 1289.96 154.515 1289.96 Q158.149 1289.96 159.954 1286.42 Q161.783 1282.86 161.783 1275.75 Q161.783 1268.62 159.954 1265.08 Q158.149 1261.52 154.515 1261.52 M154.515 1257.81 Q160.325 1257.81 163.38 1262.42 Q166.459 1267 166.459 1275.75 Q166.459 1284.48 163.38 1289.08 Q160.325 1293.67 154.515 1293.67 Q148.704 1293.67 145.626 1289.08 Q142.57 1284.48 142.57 1275.75 Q142.57 1267 145.626 1262.42 Q148.704 1257.81 154.515 1257.81 Z" fill="#000000" fill-rule="evenodd" fill-opacity="1" /><path clip-path="url(#clip910)" d="M 0 0 M123.126 1086.68 L139.445 1086.68 L139.445 1090.62 L117.501 1090.62 L117.501 1086.68 Q120.163 1083.93 124.746 1079.3 Q129.353 1074.65 130.533 1073.31 Q132.779 1070.78 133.658 1069.05 Q134.561 1067.29 134.561 1065.6 Q134.561 1062.84 132.617 1061.11 Q130.695 1059.37 127.593 1059.37 Q125.394 1059.37 122.941 1060.13 Q120.51 1060.9 117.732 1062.45 L117.732 1057.73 Q120.556 1056.59 123.01 1056.01 Q125.464 1055.43 127.501 1055.43 Q132.871 1055.43 136.066 1058.12 Q139.26 1060.81 139.26 1065.3 Q139.26 1067.43 138.45 1069.35 Q137.663 1071.24 135.556 1073.84 Q134.978 1074.51 131.876 1077.73 Q128.774 1080.92 123.126 1086.68 Z" fill="#000000" fill-rule="evenodd" fill-opacity="1" /><path clip-path="url(#clip910)" d="M 0 0 M154.515 1059.14 Q150.903 1059.14 149.075 1062.7 Q147.269 1066.24 147.269 1073.37 Q147.269 1080.48 149.075 1084.05 Q150.903 1087.59 154.515 1087.59 Q158.149 1087.59 159.954 1084.05 Q161.783 1080.48 161.783 1073.37 Q161.783 1066.24 159.954 1062.7 Q158.149 1059.14 154.515 1059.14 M154.515 1055.43 Q160.325 1055.43 163.38 1060.04 Q166.459 1064.62 166.459 1073.37 Q166.459 1082.1 163.38 1086.71 Q160.325 1091.29 154.515 1091.29 Q148.704 1091.29 145.626 1086.71 Q142.57 1082.1 142.57 1073.37 Q142.57 1064.62 145.626 1060.04 Q148.704 1055.43 154.515 1055.43 Z" fill="#000000" fill-rule="evenodd" fill-opacity="1" /><path clip-path="url(#clip910)" d="M 0 0 M132.316 869.609 Q135.672 870.326 137.547 872.595 Q139.445 874.863 139.445 878.197 Q139.445 883.312 135.927 886.113 Q132.408 888.914 125.927 888.914 Q123.751 888.914 121.436 888.474 Q119.144 888.058 116.691 887.201 L116.691 882.687 Q118.635 883.822 120.95 884.4 Q123.265 884.979 125.788 884.979 Q130.186 884.979 132.478 883.243 Q134.792 881.507 134.792 878.197 Q134.792 875.141 132.64 873.428 Q130.51 871.692 126.691 871.692 L122.663 871.692 L122.663 867.849 L126.876 867.849 Q130.325 867.849 132.154 866.484 Q133.982 865.095 133.982 862.502 Q133.982 859.84 132.084 858.428 Q130.209 856.993 126.691 856.993 Q124.769 856.993 122.57 857.41 Q120.371 857.826 117.732 858.706 L117.732 854.539 Q120.394 853.799 122.709 853.428 Q125.047 853.058 127.107 853.058 Q132.431 853.058 135.533 855.488 Q138.635 857.896 138.635 862.016 Q138.635 864.887 136.992 866.877 Q135.348 868.845 132.316 869.609 Z" fill="#000000" fill-rule="evenodd" fill-opacity="1" /><path clip-path="url(#clip910)" d="M 0 0 M154.515 856.762 Q150.903 856.762 149.075 860.326 Q147.269 863.868 147.269 870.998 Q147.269 878.104 149.075 881.669 Q150.903 885.211 154.515 885.211 Q158.149 885.211 159.954 881.669 Q161.783 878.104 161.783 870.998 Q161.783 863.868 159.954 860.326 Q158.149 856.762 154.515 856.762 M154.515 853.058 Q160.325 853.058 163.38 857.664 Q166.459 862.248 166.459 870.998 Q166.459 879.724 163.38 884.331 Q160.325 888.914 154.515 888.914 Q148.704 888.914 145.626 884.331 Q142.57 879.724 142.57 870.998 Q142.57 862.248 145.626 857.664 Q148.704 853.058 154.515 853.058 Z" fill="#000000" fill-rule="evenodd" fill-opacity="1" /><path clip-path="url(#clip910)" d="M 0 0 M129.862 655.38 L118.056 673.829 L129.862 673.829 L129.862 655.38 M128.635 651.306 L134.515 651.306 L134.515 673.829 L139.445 673.829 L139.445 677.718 L134.515 677.718 L134.515 685.866 L129.862 685.866 L129.862 677.718 L114.26 677.718 L114.26 673.204 L128.635 651.306 Z" fill="#000000" fill-rule="evenodd" fill-opacity="1" /><path clip-path="url(#clip910)" d="M 0 0 M154.515 654.385 Q150.903 654.385 149.075 657.95 Q147.269 661.491 147.269 668.621 Q147.269 675.727 149.075 679.292 Q150.903 682.834 154.515 682.834 Q158.149 682.834 159.954 679.292 Q161.783 675.727 161.783 668.621 Q161.783 661.491 159.954 657.95 Q158.149 654.385 154.515 654.385 M154.515 650.681 Q160.325 650.681 163.38 655.288 Q166.459 659.871 166.459 668.621 Q166.459 677.348 163.38 681.954 Q160.325 686.537 154.515 686.537 Q148.704 686.537 145.626 681.954 Q142.57 677.348 142.57 668.621 Q142.57 659.871 145.626 655.288 Q148.704 650.681 154.515 650.681 Z" fill="#000000" fill-rule="evenodd" fill-opacity="1" /><path clip-path="url(#clip910)" d="M 0 0 M118.543 448.929 L136.899 448.929 L136.899 452.864 L122.825 452.864 L122.825 461.337 Q123.843 460.989 124.862 460.827 Q125.88 460.642 126.899 460.642 Q132.686 460.642 136.066 463.813 Q139.445 466.985 139.445 472.401 Q139.445 477.98 135.973 481.082 Q132.501 484.161 126.181 484.161 Q124.005 484.161 121.737 483.79 Q119.492 483.42 117.084 482.679 L117.084 477.98 Q119.168 479.114 121.39 479.67 Q123.612 480.225 126.089 480.225 Q130.093 480.225 132.431 478.119 Q134.769 476.012 134.769 472.401 Q134.769 468.79 132.431 466.684 Q130.093 464.577 126.089 464.577 Q124.214 464.577 122.339 464.994 Q120.487 465.411 118.543 466.29 L118.543 448.929 Z" fill="#000000" fill-rule="evenodd" fill-opacity="1" /><path clip-path="url(#clip910)" d="M 0 0 M154.515 452.008 Q150.903 452.008 149.075 455.573 Q147.269 459.114 147.269 466.244 Q147.269 473.35 149.075 476.915 Q150.903 480.457 154.515 480.457 Q158.149 480.457 159.954 476.915 Q161.783 473.35 161.783 466.244 Q161.783 459.114 159.954 455.573 Q158.149 452.008 154.515 452.008 M154.515 448.304 Q160.325 448.304 163.38 452.911 Q166.459 457.494 166.459 466.244 Q166.459 474.971 163.38 479.577 Q160.325 484.161 154.515 484.161 Q148.704 484.161 145.626 479.577 Q142.57 474.971 142.57 466.244 Q142.57 457.494 145.626 452.911 Q148.704 448.304 154.515 448.304 Z" fill="#000000" fill-rule="evenodd" fill-opacity="1" /><path clip-path="url(#clip910)" d="M 0 0 M127.917 261.969 Q124.769 261.969 122.918 264.122 Q121.089 266.275 121.089 270.025 Q121.089 273.751 122.918 275.927 Q124.769 278.08 127.917 278.08 Q131.066 278.08 132.894 275.927 Q134.746 273.751 134.746 270.025 Q134.746 266.275 132.894 264.122 Q131.066 261.969 127.917 261.969 M137.2 247.316 L137.2 251.576 Q135.441 250.742 133.635 250.302 Q131.853 249.863 130.093 249.863 Q125.464 249.863 123.01 252.988 Q120.58 256.113 120.232 262.432 Q121.598 260.418 123.658 259.353 Q125.718 258.265 128.195 258.265 Q133.404 258.265 136.413 261.437 Q139.445 264.585 139.445 270.025 Q139.445 275.349 136.297 278.566 Q133.149 281.784 127.917 281.784 Q121.922 281.784 118.751 277.2 Q115.58 272.594 115.58 263.867 Q115.58 255.673 119.468 250.812 Q123.357 245.927 129.908 245.927 Q131.667 245.927 133.45 246.275 Q135.255 246.622 137.2 247.316 Z" fill="#000000" fill-rule="evenodd" fill-opacity="1" /><path clip-path="url(#clip910)" d="M 0 0 M154.515 249.631 Q150.903 249.631 149.075 253.196 Q147.269 256.738 147.269 263.867 Q147.269 270.974 149.075 274.538 Q150.903 278.08 154.515 278.08 Q158.149 278.08 159.954 274.538 Q161.783 270.974 161.783 263.867 Q161.783 256.738 159.954 253.196 Q158.149 249.631 154.515 249.631 M154.515 245.927 Q160.325 245.927 163.38 250.534 Q166.459 255.117 166.459 263.867 Q166.459 272.594 163.38 277.2 Q160.325 281.784 154.515 281.784 Q148.704 281.784 145.626 277.2 Q142.57 272.594 142.57 263.867 Q142.57 255.117 145.626 250.534 Q148.704 245.927 154.515 245.927 Z" fill="#000000" fill-rule="evenodd" fill-opacity="1" /><path clip-path="url(#clip910)" d="M 0 0 M117.223 44.1756 L139.445 44.1756 L139.445 46.1663 L126.899 78.7356 L122.015 78.7356 L133.82 48.1108 L117.223 48.1108 L117.223 44.1756 Z" fill="#000000" fill-rule="evenodd" fill-opacity="1" /><path clip-path="url(#clip910)" d="M 0 0 M154.515 47.2543 Q150.903 47.2543 149.075 50.8191 Q147.269 54.3607 147.269 61.4903 Q147.269 68.5968 149.075 72.1616 Q150.903 75.7032 154.515 75.7032 Q158.149 75.7032 159.954 72.1616 Q161.783 68.5968 161.783 61.4903 Q161.783 54.3607 159.954 50.8191 Q158.149 47.2543 154.515 47.2543 M154.515 43.5506 Q160.325 43.5506 163.38 48.1571 Q166.459 52.7404 166.459 61.4903 Q166.459 70.2171 163.38 74.8236 Q160.325 79.4069 154.515 79.4069 Q148.704 79.4069 145.626 74.8236 Q142.57 70.2171 142.57 61.4903 Q142.57 52.7404 145.626 48.1571 Q148.704 43.5506 154.515 43.5506 Z" fill="#000000" fill-rule="evenodd" fill-opacity="1" /><path clip-path="url(#clip910)" d="M 0 0 M59.1993 815.533 Q55.2526 813.336 53.3747 810.281 Q51.4968 807.225 51.4968 803.088 Q51.4968 797.518 55.4117 794.494 Q59.2948 791.47 66.4881 791.47 L88.0042 791.47 L88.0042 797.358 L66.679 797.358 Q61.5546 797.358 59.072 799.173 Q56.5894 800.987 56.5894 804.711 Q56.5894 809.262 59.6131 811.904 Q62.6368 814.546 67.8567 814.546 L88.0042 814.546 L88.0042 820.434 L66.679 820.434 Q61.5228 820.434 59.072 822.248 Q56.5894 824.063 56.5894 827.85 Q56.5894 832.338 59.6449 834.98 Q62.6686 837.622 67.8567 837.622 L88.0042 837.622 L88.0042 843.51 L52.3562 843.51 L52.3562 837.622 L57.8944 837.622 Q54.616 835.616 53.0564 832.815 Q51.4968 830.015 51.4968 826.163 Q51.4968 822.28 53.4702 819.575 Q55.4436 816.838 59.1993 815.533 Z" fill="#000000" fill-rule="evenodd" fill-opacity="1" /><path clip-path="url(#clip910)" d="M 0 0 M52.3562 785.327 L52.3562 779.471 L88.0042 779.471 L88.0042 785.327 L52.3562 785.327 M38.479 785.327 L38.479 779.471 L45.895 779.471 L45.895 785.327 L38.479 785.327 Z" fill="#000000" fill-rule="evenodd" fill-opacity="1" /><path clip-path="url(#clip910)" d="M 0 0 M66.4881 743.696 L88.0042 743.696 L88.0042 749.552 L66.679 749.552 Q61.6183 749.552 59.1038 751.525 Q56.5894 753.499 56.5894 757.446 Q56.5894 762.188 59.6131 764.925 Q62.6368 767.662 67.8567 767.662 L88.0042 767.662 L88.0042 773.551 L52.3562 773.551 L52.3562 767.662 L57.8944 767.662 Q54.6797 765.562 53.0883 762.729 Q51.4968 759.864 51.4968 756.141 Q51.4968 749.998 55.3163 746.847 Q59.1038 743.696 66.4881 743.696 Z" fill="#000000" fill-rule="evenodd" fill-opacity="1" /><path clip-path="url(#clip910)" d="M 0 0 M98.8259 710.467 L103.377 710.467 L103.377 744.332 L98.8259 744.332 L98.8259 710.467 Z" fill="#000000" fill-rule="evenodd" fill-opacity="1" /><path clip-path="url(#clip910)" d="M 0 0 M57.7671 680.866 L38.479 680.866 L38.479 675.01 L88.0042 675.01 L88.0042 680.866 L82.657 680.866 Q85.8398 682.712 87.3994 685.545 Q88.9272 688.346 88.9272 692.292 Q88.9272 698.754 83.771 702.828 Q78.6147 706.87 70.212 706.87 Q61.8093 706.87 56.6531 702.828 Q51.4968 698.754 51.4968 692.292 Q51.4968 688.346 53.0564 685.545 Q54.5842 682.712 57.7671 680.866 M70.212 700.823 Q76.6732 700.823 80.3653 698.181 Q84.0256 695.507 84.0256 690.86 Q84.0256 686.213 80.3653 683.54 Q76.6732 680.866 70.212 680.866 Q63.7508 680.866 60.0905 683.54 Q56.3984 686.213 56.3984 690.86 Q56.3984 695.507 60.0905 698.181 Q63.7508 700.823 70.212 700.823 Z" fill="#000000" fill-rule="evenodd" fill-opacity="1" /><path clip-path="url(#clip910)" d="M 0 0 M52.3562 668.867 L52.3562 663.01 L88.0042 663.01 L88.0042 668.867 L52.3562 668.867 M38.479 668.867 L38.479 663.01 L45.895 663.01 L45.895 668.867 L38.479 668.867 Z" fill="#000000" fill-rule="evenodd" fill-opacity="1" /><path clip-path="url(#clip910)" d="M 0 0 M38.479 638.821 L43.3487 638.821 L43.3487 644.422 Q43.3487 647.573 44.6219 648.815 Q45.895 650.024 49.2052 650.024 L52.3562 650.024 L52.3562 640.38 L56.9077 640.38 L56.9077 650.024 L88.0042 650.024 L88.0042 655.912 L56.9077 655.912 L56.9077 661.514 L52.3562 661.514 L52.3562 655.912 L49.8736 655.912 Q43.9216 655.912 41.2162 653.143 Q38.479 650.374 38.479 644.359 L38.479 638.821 Z" fill="#000000" fill-rule="evenodd" fill-opacity="1" /><path clip-path="url(#clip910)" d="M 0 0 M38.479 614.631 L43.3487 614.631 L43.3487 620.233 Q43.3487 623.384 44.6219 624.625 Q45.895 625.835 49.2052 625.835 L52.3562 625.835 L52.3562 616.19 L56.9077 616.19 L56.9077 625.835 L88.0042 625.835 L88.0042 631.723 L56.9077 631.723 L56.9077 637.325 L52.3562 637.325 L52.3562 631.723 L49.8736 631.723 Q43.9216 631.723 41.2162 628.954 Q38.479 626.185 38.479 620.169 L38.479 614.631 Z" fill="#000000" fill-rule="evenodd" fill-opacity="1" /><polyline clip-path="url(#clip912)" style="stroke:#009af9; stroke-width:20; stroke-opacity:1; fill:none" stroke-dasharray="80, 50" points="
  263.316,85.838 732.686,1372.3 1007.25,1360.68 1202.06,1371.56 1353.16,1357.25 1476.62,1353.08 1581,1279.23 1671.43,1218.5 1751.18,1088.54 1822.53,909.76 
  1887.07,812.658 1945.99,772.017 2000.19,756.131 2050.37,684.758 2097.09,624.607 2140.8,558.356 2181.85,532.662 2220.55,475.291 2257.16,385.678 2291.9,266.526 
  
  "/>
<path clip-path="url(#clip910)" d="
M1991.14 213.659 L2281.08 213.659 L2281.08 92.6992 L1991.14 92.6992  Z
  " fill="#ffffff" fill-rule="evenodd" fill-opacity="1"/>
<polyline clip-path="url(#clip910)" style="stroke:#000000; stroke-width:4; stroke-opacity:1; fill:none" points="
  1991.14,213.659 2281.08,213.659 2281.08,92.6992 1991.14,92.6992 1991.14,213.659 
  "/>
<polyline clip-path="url(#clip910)" style="stroke:#009af9; stroke-width:4; stroke-opacity:1; fill:none" stroke-dasharray="16, 10" points="
  2015.03,153.179 2158.38,153.179 
  "/>
<path clip-path="url(#clip910)" d="M 0 0 M2196.12 172.867 Q2194.31 177.496 2192.6 178.908 Q2190.89 180.32 2188.02 180.32 L2184.61 180.32 L2184.61 176.755 L2187.11 176.755 Q2188.87 176.755 2189.85 175.922 Q2190.82 175.089 2192 171.987 L2192.76 170.043 L2182.28 144.533 L2186.79 144.533 L2194.89 164.811 L2202.99 144.533 L2207.51 144.533 L2196.12 172.867 Z" fill="#000000" fill-rule="evenodd" fill-opacity="1" /><path clip-path="url(#clip910)" d="M 0 0 M2213.39 166.524 L2221.03 166.524 L2221.03 140.158 L2212.72 141.825 L2212.72 137.566 L2220.98 135.899 L2225.66 135.899 L2225.66 166.524 L2233.29 166.524 L2233.29 170.459 L2213.39 170.459 L2213.39 166.524 Z" fill="#000000" fill-rule="evenodd" fill-opacity="1" /></svg>
