<?xml version="1.0" encoding="utf-8"?>
<svg xmlns="http://www.w3.org/2000/svg" xmlns:xlink="http://www.w3.org/1999/xlink" width="600" height="400" viewBox="0 0 2400 1600">
<defs>
  <clipPath id="clip960">
    <rect x="0" y="0" width="2400" height="1600"/>
  </clipPath>
</defs>
<path clip-path="url(#clip960)" d="
M0 1600 L2400 1600 L2400 0 L0 0  Z
  " fill="#ffffff" fill-rule="evenodd" fill-opacity="1"/>
<defs>
  <clipPath id="clip961">
    <rect x="480" y="0" width="1681" height="1600"/>
  </clipPath>
</defs>
<path clip-path="url(#clip960)" d="
M263.523 1410.9 L2352.76 1410.9 L2352.76 47.2441 L263.523 47.2441  Z
  " fill="#ffffff" fill-rule="evenodd" fill-opacity="1"/>
<defs>
  <clipPath id="clip962">
    <rect x="263" y="47" width="2090" height="1365"/>
  </clipPath>
</defs>
<polyline clip-path="url(#clip962)" style="stroke:#000000; stroke-width:2; stroke-opacity:0.1; fill:none" points="
  322.653,1410.9 322.653,47.2441 
  "/>
<polyline clip-path="url(#clip962)" style="stroke:#000000; stroke-width:2; stroke-opacity:0.1; fill:none" points="
  815.396,1410.9 815.396,47.2441 
  "/>
<polyline clip-path="url(#clip962)" style="stroke:#000000; stroke-width:2; stroke-opacity:0.1; fill:none" points="
  1308.14,1410.9 1308.14,47.2441 
  "/>
<polyline clip-path="url(#clip962)" style="stroke:#000000; stroke-width:2; stroke-opacity:0.1; fill:none" points="
  1800.88,1410.9 1800.88,47.2441 
  "/>
<polyline clip-path="url(#clip962)" style="stroke:#000000; stroke-width:2; stroke-opacity:0.1; fill:none" points="
  2293.63,1410.9 2293.63,47.2441 
  "/>
<polyline clip-path="url(#clip960)" style="stroke:#000000; stroke-width:4; stroke-opacity:1; fill:none" points="
  263.523,1410.9 2352.76,1410.9 
  "/>
<polyline clip-path="url(#clip960)" style="stroke:#000000; stroke-width:4; stroke-opacity:1; fill:none" points="
  322.653,1410.9 322.653,1394.53 
  "/>
<polyline clip-path="url(#clip960)" style="stroke:#000000; stroke-width:4; stroke-opacity:1; fill:none" points="
  815.396,1410.9 815.396,1394.53 
  "/>
<polyline clip-path="url(#clip960)" style="stroke:#000000; stroke-width:4; stroke-opacity:1; fill:none" points="
  1308.14,1410.9 1308.14,1394.53 
  "/>
<polyline clip-path="url(#clip960)" style="stroke:#000000; stroke-width:4; stroke-opacity:1; fill:none" points="
  1800.88,1410.9 1800.88,1394.53 
  "/>
<polyline clip-path="url(#clip960)" style="stroke:#000000; stroke-width:4; stroke-opacity:1; fill:none" points="
  2293.63,1410.9 2293.63,1394.53 
  "/>
<path clip-path="url(#clip960)" d="M 0 0 M261.414 1489.17 L269.053 1489.17 L269.053 1462.8 L260.743 1464.47 L260.743 1460.21 L269.006 1458.54 L273.682 1458.54 L273.682 1489.17 L281.321 1489.17 L281.321 1493.1 L261.414 1493.1 L261.414 1489.17 Z" fill="#000000" fill-rule="evenodd" fill-opacity="1" /><path clip-path="url(#clip960)" d="M 0 0 M296.391 1461.62 Q292.779 1461.62 290.951 1465.19 Q289.145 1468.73 289.145 1475.86 Q289.145 1482.97 290.951 1486.53 Q292.779 1490.07 296.391 1490.07 Q300.025 1490.07 301.83 1486.53 Q303.659 1482.97 303.659 1475.86 Q303.659 1468.73 301.83 1465.19 Q300.025 1461.62 296.391 1461.62 M296.391 1457.92 Q302.201 1457.92 305.256 1462.53 Q308.335 1467.11 308.335 1475.86 Q308.335 1484.59 305.256 1489.19 Q302.201 1493.78 296.391 1493.78 Q290.58 1493.78 287.502 1489.19 Q284.446 1484.59 284.446 1475.86 Q284.446 1467.11 287.502 1462.53 Q290.58 1457.92 296.391 1457.92 Z" fill="#000000" fill-rule="evenodd" fill-opacity="1" /><path clip-path="url(#clip960)" d="M 0 0 M308.335 1452.02 L332.446 1452.02 L332.446 1455.22 L308.335 1455.22 L308.335 1452.02 Z" fill="#000000" fill-rule="evenodd" fill-opacity="1" /><path clip-path="url(#clip960)" d="M 0 0 M345.16 1450.14 Q342.603 1450.14 341.098 1451.89 Q339.612 1453.64 339.612 1456.68 Q339.612 1459.71 341.098 1461.48 Q342.603 1463.23 345.16 1463.23 Q347.718 1463.23 349.204 1461.48 Q350.709 1459.71 350.709 1456.68 Q350.709 1453.64 349.204 1451.89 Q347.718 1450.14 345.16 1450.14 M352.702 1438.23 L352.702 1441.69 Q351.273 1441.02 349.806 1440.66 Q348.358 1440.3 346.928 1440.3 Q343.167 1440.3 341.173 1442.84 Q339.198 1445.38 338.916 1450.52 Q340.026 1448.88 341.7 1448.01 Q343.374 1447.13 345.386 1447.13 Q349.618 1447.13 352.063 1449.71 Q354.527 1452.26 354.527 1456.68 Q354.527 1461.01 351.969 1463.62 Q349.411 1466.24 345.16 1466.24 Q340.289 1466.24 337.713 1462.51 Q335.136 1458.77 335.136 1451.68 Q335.136 1445.02 338.296 1441.07 Q341.455 1437.11 346.778 1437.11 Q348.207 1437.11 349.656 1437.39 Q351.123 1437.67 352.702 1438.23 Z" fill="#000000" fill-rule="evenodd" fill-opacity="1" /><path clip-path="url(#clip960)" d="M 0 0 M358.646 1460.92 L362.614 1460.92 L362.614 1465.69 L358.646 1465.69 L358.646 1460.92 Z" fill="#000000" fill-rule="evenodd" fill-opacity="1" /><path clip-path="url(#clip960)" d="M 0 0 M374.858 1440.11 Q371.924 1440.11 370.438 1443.01 Q368.971 1445.89 368.971 1451.68 Q368.971 1457.46 370.438 1460.35 Q371.924 1463.23 374.858 1463.23 Q377.811 1463.23 379.278 1460.35 Q380.764 1457.46 380.764 1451.68 Q380.764 1445.89 379.278 1443.01 Q377.811 1440.11 374.858 1440.11 M374.858 1437.11 Q379.579 1437.11 382.061 1440.85 Q384.563 1444.57 384.563 1451.68 Q384.563 1458.77 382.061 1462.51 Q379.579 1466.24 374.858 1466.24 Q370.137 1466.24 367.636 1462.51 Q365.153 1458.77 365.153 1451.68 Q365.153 1444.57 367.636 1440.85 Q370.137 1437.11 374.858 1437.11 Z" fill="#000000" fill-rule="evenodd" fill-opacity="1" /><path clip-path="url(#clip960)" d="M 0 0 M755.032 1489.17 L762.671 1489.17 L762.671 1462.8 L754.361 1464.47 L754.361 1460.21 L762.624 1458.54 L767.3 1458.54 L767.3 1489.17 L774.939 1489.17 L774.939 1493.1 L755.032 1493.1 L755.032 1489.17 Z" fill="#000000" fill-rule="evenodd" fill-opacity="1" /><path clip-path="url(#clip960)" d="M 0 0 M790.009 1461.62 Q786.397 1461.62 784.569 1465.19 Q782.763 1468.73 782.763 1475.86 Q782.763 1482.97 784.569 1486.53 Q786.397 1490.07 790.009 1490.07 Q793.643 1490.07 795.448 1486.53 Q797.277 1482.97 797.277 1475.86 Q797.277 1468.73 795.448 1465.19 Q793.643 1461.62 790.009 1461.62 M790.009 1457.92 Q795.819 1457.92 798.874 1462.53 Q801.953 1467.11 801.953 1475.86 Q801.953 1484.59 798.874 1489.19 Q795.819 1493.78 790.009 1493.78 Q784.198 1493.78 781.12 1489.19 Q778.064 1484.59 778.064 1475.86 Q778.064 1467.11 781.12 1462.53 Q784.198 1457.92 790.009 1457.92 Z" fill="#000000" fill-rule="evenodd" fill-opacity="1" /><path clip-path="url(#clip960)" d="M 0 0 M801.953 1452.02 L826.065 1452.02 L826.065 1455.22 L801.953 1455.22 L801.953 1452.02 Z" fill="#000000" fill-rule="evenodd" fill-opacity="1" /><path clip-path="url(#clip960)" d="M 0 0 M830.221 1437.61 L845.136 1437.61 L845.136 1440.81 L833.7 1440.81 L833.7 1447.69 Q834.528 1447.41 835.356 1447.28 Q836.183 1447.13 837.011 1447.13 Q841.713 1447.13 844.459 1449.71 Q847.204 1452.28 847.204 1456.68 Q847.204 1461.22 844.383 1463.74 Q841.562 1466.24 836.428 1466.24 Q834.66 1466.24 832.817 1465.94 Q830.992 1465.64 829.036 1465.04 L829.036 1461.22 Q830.729 1462.14 832.534 1462.59 Q834.34 1463.04 836.352 1463.04 Q839.606 1463.04 841.506 1461.33 Q843.405 1459.62 843.405 1456.68 Q843.405 1453.75 841.506 1452.04 Q839.606 1450.33 836.352 1450.33 Q834.829 1450.33 833.306 1450.67 Q831.801 1451 830.221 1451.72 L830.221 1437.61 Z" fill="#000000" fill-rule="evenodd" fill-opacity="1" /><path clip-path="url(#clip960)" d="M 0 0 M851.323 1460.92 L855.292 1460.92 L855.292 1465.69 L851.323 1465.69 L851.323 1460.92 Z" fill="#000000" fill-rule="evenodd" fill-opacity="1" /><path clip-path="url(#clip960)" d="M 0 0 M859.448 1437.61 L874.363 1437.61 L874.363 1440.81 L862.928 1440.81 L862.928 1447.69 Q863.755 1447.41 864.583 1447.28 Q865.41 1447.13 866.238 1447.13 Q870.94 1447.13 873.686 1449.71 Q876.432 1452.28 876.432 1456.68 Q876.432 1461.22 873.611 1463.74 Q870.789 1466.24 865.655 1466.24 Q863.887 1466.24 862.044 1465.94 Q860.219 1465.64 858.263 1465.04 L858.263 1461.22 Q859.956 1462.14 861.762 1462.59 Q863.567 1463.04 865.58 1463.04 Q868.833 1463.04 870.733 1461.33 Q872.633 1459.62 872.633 1456.68 Q872.633 1453.75 870.733 1452.04 Q868.833 1450.33 865.58 1450.33 Q864.056 1450.33 862.533 1450.67 Q861.028 1451 859.448 1451.72 L859.448 1437.61 Z" fill="#000000" fill-rule="evenodd" fill-opacity="1" /><path clip-path="url(#clip960)" d="M 0 0 M1247.37 1489.17 L1255.01 1489.17 L1255.01 1462.8 L1246.7 1464.47 L1246.7 1460.21 L1254.96 1458.54 L1259.64 1458.54 L1259.64 1489.17 L1267.28 1489.17 L1267.28 1493.1 L1247.37 1493.1 L1247.37 1489.17 Z" fill="#000000" fill-rule="evenodd" fill-opacity="1" /><path clip-path="url(#clip960)" d="M 0 0 M1282.35 1461.62 Q1278.74 1461.62 1276.91 1465.19 Q1275.1 1468.73 1275.1 1475.86 Q1275.1 1482.97 1276.91 1486.53 Q1278.74 1490.07 1282.35 1490.07 Q1285.98 1490.07 1287.79 1486.53 Q1289.62 1482.97 1289.62 1475.86 Q1289.62 1468.73 1287.79 1465.19 Q1285.98 1461.62 1282.35 1461.62 M1282.35 1457.92 Q1288.16 1457.92 1291.21 1462.53 Q1294.29 1467.11 1294.29 1475.86 Q1294.29 1484.59 1291.21 1489.19 Q1288.16 1493.78 1282.35 1493.78 Q1276.54 1493.78 1273.46 1489.19 Q1270.4 1484.59 1270.4 1475.86 Q1270.4 1467.11 1273.46 1462.53 Q1276.54 1457.92 1282.35 1457.92 Z" fill="#000000" fill-rule="evenodd" fill-opacity="1" /><path clip-path="url(#clip960)" d="M 0 0 M1294.29 1452.02 L1318.4 1452.02 L1318.4 1455.22 L1294.29 1455.22 L1294.29 1452.02 Z" fill="#000000" fill-rule="evenodd" fill-opacity="1" /><path clip-path="url(#clip960)" d="M 0 0 M1322.56 1437.61 L1337.47 1437.61 L1337.47 1440.81 L1326.04 1440.81 L1326.04 1447.69 Q1326.87 1447.41 1327.69 1447.28 Q1328.52 1447.13 1329.35 1447.13 Q1334.05 1447.13 1336.8 1449.71 Q1339.54 1452.28 1339.54 1456.68 Q1339.54 1461.22 1336.72 1463.74 Q1333.9 1466.24 1328.77 1466.24 Q1327 1466.24 1325.16 1465.94 Q1323.33 1465.64 1321.38 1465.04 L1321.38 1461.22 Q1323.07 1462.14 1324.87 1462.59 Q1326.68 1463.04 1328.69 1463.04 Q1331.95 1463.04 1333.84 1461.33 Q1335.74 1459.62 1335.74 1456.68 Q1335.74 1453.75 1333.84 1452.04 Q1331.95 1450.33 1328.69 1450.33 Q1327.17 1450.33 1325.64 1450.67 Q1324.14 1451 1322.56 1451.72 L1322.56 1437.61 Z" fill="#000000" fill-rule="evenodd" fill-opacity="1" /><path clip-path="url(#clip960)" d="M 0 0 M1343.66 1460.92 L1347.63 1460.92 L1347.63 1465.69 L1343.66 1465.69 L1343.66 1460.92 Z" fill="#000000" fill-rule="evenodd" fill-opacity="1" /><path clip-path="url(#clip960)" d="M 0 0 M1359.87 1440.11 Q1356.94 1440.11 1355.45 1443.01 Q1353.99 1445.89 1353.99 1451.68 Q1353.99 1457.46 1355.45 1460.35 Q1356.94 1463.23 1359.87 1463.23 Q1362.83 1463.23 1364.29 1460.35 Q1365.78 1457.46 1365.78 1451.68 Q1365.78 1445.89 1364.29 1443.01 Q1362.83 1440.11 1359.87 1440.11 M1359.87 1437.11 Q1364.6 1437.11 1367.08 1440.85 Q1369.58 1444.57 1369.58 1451.68 Q1369.58 1458.77 1367.08 1462.51 Q1364.6 1466.24 1359.87 1466.24 Q1355.15 1466.24 1352.65 1462.51 Q1350.17 1458.77 1350.17 1451.68 Q1350.17 1444.57 1352.65 1440.85 Q1355.15 1437.11 1359.87 1437.11 Z" fill="#000000" fill-rule="evenodd" fill-opacity="1" /><path clip-path="url(#clip960)" d="M 0 0 M1739.92 1489.17 L1747.56 1489.17 L1747.56 1462.8 L1739.25 1464.47 L1739.25 1460.21 L1747.51 1458.54 L1752.19 1458.54 L1752.19 1489.17 L1759.82 1489.17 L1759.82 1493.1 L1739.92 1493.1 L1739.92 1489.17 Z" fill="#000000" fill-rule="evenodd" fill-opacity="1" /><path clip-path="url(#clip960)" d="M 0 0 M1774.89 1461.62 Q1771.28 1461.62 1769.45 1465.19 Q1767.65 1468.73 1767.65 1475.86 Q1767.65 1482.97 1769.45 1486.53 Q1771.28 1490.07 1774.89 1490.07 Q1778.53 1490.07 1780.33 1486.53 Q1782.16 1482.97 1782.16 1475.86 Q1782.16 1468.73 1780.33 1465.19 Q1778.53 1461.62 1774.89 1461.62 M1774.89 1457.92 Q1780.7 1457.92 1783.76 1462.53 Q1786.84 1467.11 1786.84 1475.86 Q1786.84 1484.59 1783.76 1489.19 Q1780.7 1493.78 1774.89 1493.78 Q1769.08 1493.78 1766 1489.19 Q1762.95 1484.59 1762.95 1475.86 Q1762.95 1467.11 1766 1462.53 Q1769.08 1457.92 1774.89 1457.92 Z" fill="#000000" fill-rule="evenodd" fill-opacity="1" /><path clip-path="url(#clip960)" d="M 0 0 M1786.84 1452.02 L1810.95 1452.02 L1810.95 1455.22 L1786.84 1455.22 L1786.84 1452.02 Z" fill="#000000" fill-rule="evenodd" fill-opacity="1" /><path clip-path="url(#clip960)" d="M 0 0 M1825.51 1440.92 L1815.91 1455.91 L1825.51 1455.91 L1825.51 1440.92 M1824.51 1437.61 L1829.29 1437.61 L1829.29 1455.91 L1833.29 1455.91 L1833.29 1459.07 L1829.29 1459.07 L1829.29 1465.69 L1825.51 1465.69 L1825.51 1459.07 L1812.83 1459.07 L1812.83 1455.41 L1824.51 1437.61 Z" fill="#000000" fill-rule="evenodd" fill-opacity="1" /><path clip-path="url(#clip960)" d="M 0 0 M1837.41 1460.92 L1841.38 1460.92 L1841.38 1465.69 L1837.41 1465.69 L1837.41 1460.92 Z" fill="#000000" fill-rule="evenodd" fill-opacity="1" /><path clip-path="url(#clip960)" d="M 0 0 M1845.54 1437.61 L1860.45 1437.61 L1860.45 1440.81 L1849.02 1440.81 L1849.02 1447.69 Q1849.84 1447.41 1850.67 1447.28 Q1851.5 1447.13 1852.33 1447.13 Q1857.03 1447.13 1859.77 1449.71 Q1862.52 1452.28 1862.52 1456.68 Q1862.52 1461.22 1859.7 1463.74 Q1856.88 1466.24 1851.74 1466.24 Q1849.98 1466.24 1848.13 1465.94 Q1846.31 1465.64 1844.35 1465.04 L1844.35 1461.22 Q1846.04 1462.14 1847.85 1462.59 Q1849.66 1463.04 1851.67 1463.04 Q1854.92 1463.04 1856.82 1461.33 Q1858.72 1459.62 1858.72 1456.68 Q1858.72 1453.75 1856.82 1452.04 Q1854.92 1450.33 1851.67 1450.33 Q1850.15 1450.33 1848.62 1450.67 Q1847.12 1451 1845.54 1451.72 L1845.54 1437.61 Z" fill="#000000" fill-rule="evenodd" fill-opacity="1" /><path clip-path="url(#clip960)" d="M 0 0 M2232.26 1489.17 L2239.9 1489.17 L2239.9 1462.8 L2231.58 1464.47 L2231.58 1460.21 L2239.85 1458.54 L2244.52 1458.54 L2244.52 1489.17 L2252.16 1489.17 L2252.16 1493.1 L2232.26 1493.1 L2232.26 1489.17 Z" fill="#000000" fill-rule="evenodd" fill-opacity="1" /><path clip-path="url(#clip960)" d="M 0 0 M2267.23 1461.62 Q2263.62 1461.62 2261.79 1465.19 Q2259.99 1468.73 2259.99 1475.86 Q2259.99 1482.97 2261.79 1486.53 Q2263.62 1490.07 2267.23 1490.07 Q2270.87 1490.07 2272.67 1486.53 Q2274.5 1482.97 2274.5 1475.86 Q2274.5 1468.73 2272.67 1465.19 Q2270.87 1461.62 2267.23 1461.62 M2267.23 1457.92 Q2273.04 1457.92 2276.1 1462.53 Q2279.18 1467.11 2279.18 1475.86 Q2279.18 1484.59 2276.1 1489.19 Q2273.04 1493.78 2267.23 1493.78 Q2261.42 1493.78 2258.34 1489.19 Q2255.29 1484.59 2255.29 1475.86 Q2255.29 1467.11 2258.34 1462.53 Q2261.42 1457.92 2267.23 1457.92 Z" fill="#000000" fill-rule="evenodd" fill-opacity="1" /><path clip-path="url(#clip960)" d="M 0 0 M2279.18 1452.02 L2303.29 1452.02 L2303.29 1455.22 L2279.18 1455.22 L2279.18 1452.02 Z" fill="#000000" fill-rule="evenodd" fill-opacity="1" /><path clip-path="url(#clip960)" d="M 0 0 M2317.85 1440.92 L2308.25 1455.91 L2317.85 1455.91 L2317.85 1440.92 M2316.85 1437.61 L2321.63 1437.61 L2321.63 1455.91 L2325.63 1455.91 L2325.63 1459.07 L2321.63 1459.07 L2321.63 1465.69 L2317.85 1465.69 L2317.85 1459.07 L2305.17 1459.07 L2305.17 1455.41 L2316.85 1437.61 Z" fill="#000000" fill-rule="evenodd" fill-opacity="1" /><path clip-path="url(#clip960)" d="M 0 0 M2329.75 1460.92 L2333.72 1460.92 L2333.72 1465.69 L2329.75 1465.69 L2329.75 1460.92 Z" fill="#000000" fill-rule="evenodd" fill-opacity="1" /><path clip-path="url(#clip960)" d="M 0 0 M2345.96 1440.11 Q2343.03 1440.11 2341.54 1443.01 Q2340.08 1445.89 2340.08 1451.68 Q2340.08 1457.46 2341.54 1460.35 Q2343.03 1463.23 2345.96 1463.23 Q2348.92 1463.23 2350.38 1460.35 Q2351.87 1457.46 2351.87 1451.68 Q2351.87 1445.89 2350.38 1443.01 Q2348.92 1440.11 2345.96 1440.11 M2345.96 1437.11 Q2350.68 1437.11 2353.17 1440.85 Q2355.67 1444.57 2355.67 1451.68 Q2355.67 1458.77 2353.17 1462.51 Q2350.68 1466.24 2345.96 1466.24 Q2341.24 1466.24 2338.74 1462.51 Q2336.26 1458.77 2336.26 1451.68 Q2336.26 1444.57 2338.74 1440.85 Q2341.24 1437.11 2345.96 1437.11 Z" fill="#000000" fill-rule="evenodd" fill-opacity="1" /><path clip-path="url(#clip960)" d="M 0 0 M1200.91 1526.54 L1207.12 1526.54 L1218.26 1556.46 L1229.4 1526.54 L1235.6 1526.54 L1222.23 1562.19 L1214.28 1562.19 L1200.91 1526.54 Z" fill="#000000" fill-rule="evenodd" fill-opacity="1" /><path clip-path="url(#clip960)" d="M 0 0 M1268.83 1573.01 L1268.83 1577.56 L1234.97 1577.56 L1234.97 1573.01 L1268.83 1573.01 Z" fill="#000000" fill-rule="evenodd" fill-opacity="1" /><path clip-path="url(#clip960)" d="M 0 0 M1288.79 1530.64 Q1284.08 1530.64 1281.34 1534.34 Q1278.6 1538 1278.6 1544.39 Q1278.6 1550.79 1281.31 1554.48 Q1284.05 1558.14 1288.79 1558.14 Q1293.47 1558.14 1296.2 1554.45 Q1298.94 1550.76 1298.94 1544.39 Q1298.94 1538.06 1296.2 1534.37 Q1293.47 1530.64 1288.79 1530.64 M1288.79 1525.68 Q1296.43 1525.68 1300.79 1530.64 Q1305.15 1535.61 1305.15 1544.39 Q1305.15 1553.15 1300.79 1558.14 Q1296.43 1563.11 1288.79 1563.11 Q1281.12 1563.11 1276.76 1558.14 Q1272.43 1553.15 1272.43 1544.39 Q1272.43 1535.61 1276.76 1530.64 Q1281.12 1525.68 1288.79 1525.68 Z" fill="#000000" fill-rule="evenodd" fill-opacity="1" /><path clip-path="url(#clip960)" d="M 0 0 M1316.96 1556.84 L1316.96 1575.74 L1311.07 1575.74 L1311.07 1526.54 L1316.96 1526.54 L1316.96 1531.95 Q1318.8 1528.77 1321.6 1527.24 Q1324.44 1525.68 1328.35 1525.68 Q1334.84 1525.68 1338.89 1530.83 Q1342.96 1535.99 1342.96 1544.39 Q1342.96 1552.8 1338.89 1557.95 Q1334.84 1563.11 1328.35 1563.11 Q1324.44 1563.11 1321.6 1561.58 Q1318.8 1560.02 1316.96 1556.84 M1336.88 1544.39 Q1336.88 1537.93 1334.21 1534.27 Q1331.57 1530.58 1326.92 1530.58 Q1322.27 1530.58 1319.6 1534.27 Q1316.96 1537.93 1316.96 1544.39 Q1316.96 1550.85 1319.6 1554.55 Q1322.27 1558.21 1326.92 1558.21 Q1331.57 1558.21 1334.21 1554.55 Q1336.88 1550.85 1336.88 1544.39 Z" fill="#000000" fill-rule="evenodd" fill-opacity="1" /><path clip-path="url(#clip960)" d="M 0 0 M1379.59 1542.9 L1379.59 1545.76 L1352.67 1545.76 Q1353.05 1551.81 1356.3 1554.99 Q1359.57 1558.14 1365.4 1558.14 Q1368.77 1558.14 1371.92 1557.32 Q1375.11 1556.49 1378.23 1554.83 L1378.23 1560.37 Q1375.08 1561.71 1371.76 1562.41 Q1368.45 1563.11 1365.05 1563.11 Q1356.52 1563.11 1351.52 1558.14 Q1346.56 1553.18 1346.56 1544.71 Q1346.56 1535.96 1351.27 1530.83 Q1356.01 1525.68 1364.03 1525.68 Q1371.22 1525.68 1375.39 1530.33 Q1379.59 1534.94 1379.59 1542.9 M1373.74 1541.18 Q1373.67 1536.37 1371.03 1533.51 Q1368.42 1530.64 1364.09 1530.64 Q1359.19 1530.64 1356.23 1533.41 Q1353.3 1536.18 1352.86 1541.21 L1373.74 1541.18 Z" fill="#000000" fill-rule="evenodd" fill-opacity="1" /><path clip-path="url(#clip960)" d="M 0 0 M1415.37 1540.67 L1415.37 1562.19 L1409.51 1562.19 L1409.51 1540.86 Q1409.51 1535.8 1407.54 1533.29 Q1405.57 1530.77 1401.62 1530.77 Q1396.88 1530.77 1394.14 1533.79 Q1391.4 1536.82 1391.4 1542.04 L1391.4 1562.19 L1385.51 1562.19 L1385.51 1526.54 L1391.4 1526.54 L1391.4 1532.08 Q1393.5 1528.86 1396.34 1527.27 Q1399.2 1525.68 1402.93 1525.68 Q1409.07 1525.68 1412.22 1529.5 Q1415.37 1533.29 1415.37 1540.67 Z" fill="#000000" fill-rule="evenodd" fill-opacity="1" /><polyline clip-path="url(#clip962)" style="stroke:#000000; stroke-width:2; stroke-opacity:0.1; fill:none" points="
  263.523,1265.19 2352.76,1265.19 
  "/>
<polyline clip-path="url(#clip962)" style="stroke:#000000; stroke-width:2; stroke-opacity:0.1; fill:none" points="
  263.523,1081.47 2352.76,1081.47 
  "/>
<polyline clip-path="url(#clip962)" style="stroke:#000000; stroke-width:2; stroke-opacity:0.1; fill:none" points="
  263.523,897.747 2352.76,897.747 
  "/>
<polyline clip-path="url(#clip962)" style="stroke:#000000; stroke-width:2; stroke-opacity:0.1; fill:none" points="
  263.523,714.023 2352.76,714.023 
  "/>
<polyline clip-path="url(#clip962)" style="stroke:#000000; stroke-width:2; stroke-opacity:0.1; fill:none" points="
  263.523,530.299 2352.76,530.299 
  "/>
<polyline clip-path="url(#clip962)" style="stroke:#000000; stroke-width:2; stroke-opacity:0.1; fill:none" points="
  263.523,346.575 2352.76,346.575 
  "/>
<polyline clip-path="url(#clip962)" style="stroke:#000000; stroke-width:2; stroke-opacity:0.1; fill:none" points="
  263.523,162.851 2352.76,162.851 
  "/>
<polyline clip-path="url(#clip960)" style="stroke:#000000; stroke-width:4; stroke-opacity:1; fill:none" points="
  263.523,1410.9 263.523,47.2441 
  "/>
<polyline clip-path="url(#clip960)" style="stroke:#000000; stroke-width:4; stroke-opacity:1; fill:none" points="
  263.523,1265.19 288.594,1265.19 
  "/>
<polyline clip-path="url(#clip960)" style="stroke:#000000; stroke-width:4; stroke-opacity:1; fill:none" points="
  263.523,1081.47 288.594,1081.47 
  "/>
<polyline clip-path="url(#clip960)" style="stroke:#000000; stroke-width:4; stroke-opacity:1; fill:none" points="
  263.523,897.747 288.594,897.747 
  "/>
<polyline clip-path="url(#clip960)" style="stroke:#000000; stroke-width:4; stroke-opacity:1; fill:none" points="
  263.523,714.023 288.594,714.023 
  "/>
<polyline clip-path="url(#clip960)" style="stroke:#000000; stroke-width:4; stroke-opacity:1; fill:none" points="
  263.523,530.299 288.594,530.299 
  "/>
<polyline clip-path="url(#clip960)" style="stroke:#000000; stroke-width:4; stroke-opacity:1; fill:none" points="
  263.523,346.575 288.594,346.575 
  "/>
<polyline clip-path="url(#clip960)" style="stroke:#000000; stroke-width:4; stroke-opacity:1; fill:none" points="
  263.523,162.851 288.594,162.851 
  "/>
<path clip-path="url(#clip960)" d="M 0 0 M119.121 1247.91 L137.478 1247.91 L137.478 1251.85 L123.404 1251.85 L123.404 1260.32 Q124.422 1259.97 125.441 1259.81 Q126.459 1259.63 127.478 1259.63 Q133.265 1259.63 136.644 1262.8 Q140.024 1265.97 140.024 1271.39 Q140.024 1276.97 136.552 1280.07 Q133.08 1283.15 126.76 1283.15 Q124.584 1283.15 122.316 1282.78 Q120.07 1282.4 117.663 1281.66 L117.663 1276.97 Q119.746 1278.1 121.968 1278.66 Q124.191 1279.21 126.667 1279.21 Q130.672 1279.21 133.01 1277.1 Q135.348 1275 135.348 1271.39 Q135.348 1267.78 133.01 1265.67 Q130.672 1263.56 126.667 1263.56 Q124.793 1263.56 122.918 1263.98 Q121.066 1264.4 119.121 1265.28 L119.121 1247.91 Z" fill="#000000" fill-rule="evenodd" fill-opacity="1" /><path clip-path="url(#clip960)" d="M 0 0 M145.093 1276.59 L149.978 1276.59 L149.978 1282.47 L145.093 1282.47 L145.093 1276.59 Z" fill="#000000" fill-rule="evenodd" fill-opacity="1" /><path clip-path="url(#clip960)" d="M 0 0 M153.866 1247.91 L176.089 1247.91 L176.089 1249.91 L163.542 1282.47 L158.658 1282.47 L170.464 1251.85 L153.866 1251.85 L153.866 1247.91 Z" fill="#000000" fill-rule="evenodd" fill-opacity="1" /><path clip-path="url(#clip960)" d="M 0 0 M185.186 1278.54 L201.505 1278.54 L201.505 1282.47 L179.561 1282.47 L179.561 1278.54 Q182.223 1275.78 186.806 1271.16 Q191.413 1266.5 192.593 1265.16 Q194.838 1262.64 195.718 1260.9 Q196.621 1259.14 196.621 1257.45 Q196.621 1254.7 194.676 1252.96 Q192.755 1251.22 189.653 1251.22 Q187.454 1251.22 185.001 1251.99 Q182.57 1252.75 179.792 1254.3 L179.792 1249.58 Q182.616 1248.45 185.07 1247.87 Q187.524 1247.29 189.561 1247.29 Q194.931 1247.29 198.125 1249.97 Q201.32 1252.66 201.32 1257.15 Q201.32 1259.28 200.51 1261.2 Q199.723 1263.1 197.616 1265.69 Q197.037 1266.36 193.936 1269.58 Q190.834 1272.78 185.186 1278.54 Z" fill="#000000" fill-rule="evenodd" fill-opacity="1" /><path clip-path="url(#clip960)" d="M 0 0 M206.621 1247.91 L224.977 1247.91 L224.977 1251.85 L210.903 1251.85 L210.903 1260.32 Q211.922 1259.97 212.94 1259.81 Q213.959 1259.63 214.977 1259.63 Q220.764 1259.63 224.144 1262.8 Q227.523 1265.97 227.523 1271.39 Q227.523 1276.97 224.051 1280.07 Q220.579 1283.15 214.26 1283.15 Q212.084 1283.15 209.815 1282.78 Q207.57 1282.4 205.162 1281.66 L205.162 1276.97 Q207.246 1278.1 209.468 1278.66 Q211.69 1279.21 214.167 1279.21 Q218.172 1279.21 220.51 1277.1 Q222.848 1275 222.848 1271.39 Q222.848 1267.78 220.51 1265.67 Q218.172 1263.56 214.167 1263.56 Q212.292 1263.56 210.417 1263.98 Q208.565 1264.4 206.621 1265.28 L206.621 1247.91 Z" fill="#000000" fill-rule="evenodd" fill-opacity="1" /><path clip-path="url(#clip960)" d="M 0 0 M117.524 1064.19 L135.88 1064.19 L135.88 1068.13 L121.806 1068.13 L121.806 1076.6 Q122.825 1076.25 123.843 1076.09 Q124.862 1075.9 125.88 1075.9 Q131.667 1075.9 135.047 1079.07 Q138.427 1082.25 138.427 1087.66 Q138.427 1093.24 134.954 1096.34 Q131.482 1099.42 125.163 1099.42 Q122.987 1099.42 120.718 1099.05 Q118.473 1098.68 116.066 1097.94 L116.066 1093.24 Q118.149 1094.38 120.371 1094.93 Q122.593 1095.49 125.07 1095.49 Q129.075 1095.49 131.413 1093.38 Q133.751 1091.27 133.751 1087.66 Q133.751 1084.05 131.413 1081.95 Q129.075 1079.84 125.07 1079.84 Q123.195 1079.84 121.32 1080.26 Q119.468 1080.67 117.524 1081.55 L117.524 1064.19 Z" fill="#000000" fill-rule="evenodd" fill-opacity="1" /><path clip-path="url(#clip960)" d="M 0 0 M143.496 1092.87 L148.38 1092.87 L148.38 1098.75 L143.496 1098.75 L143.496 1092.87 Z" fill="#000000" fill-rule="evenodd" fill-opacity="1" /><path clip-path="url(#clip960)" d="M 0 0 M152.269 1064.19 L174.491 1064.19 L174.491 1066.18 L161.945 1098.75 L157.061 1098.75 L168.866 1068.13 L152.269 1068.13 L152.269 1064.19 Z" fill="#000000" fill-rule="evenodd" fill-opacity="1" /><path clip-path="url(#clip960)" d="M 0 0 M179.607 1064.19 L197.963 1064.19 L197.963 1068.13 L183.889 1068.13 L183.889 1076.6 Q184.908 1076.25 185.926 1076.09 Q186.945 1075.9 187.963 1075.9 Q193.75 1075.9 197.13 1079.07 Q200.51 1082.25 200.51 1087.66 Q200.51 1093.24 197.037 1096.34 Q193.565 1099.42 187.246 1099.42 Q185.07 1099.42 182.801 1099.05 Q180.556 1098.68 178.149 1097.94 L178.149 1093.24 Q180.232 1094.38 182.454 1094.93 Q184.676 1095.49 187.153 1095.49 Q191.158 1095.49 193.496 1093.38 Q195.834 1091.27 195.834 1087.66 Q195.834 1084.05 193.496 1081.95 Q191.158 1079.84 187.153 1079.84 Q185.278 1079.84 183.403 1080.26 Q181.551 1080.67 179.607 1081.55 L179.607 1064.19 Z" fill="#000000" fill-rule="evenodd" fill-opacity="1" /><path clip-path="url(#clip960)" d="M 0 0 M215.579 1067.27 Q211.968 1067.27 210.139 1070.83 Q208.334 1074.38 208.334 1081.51 Q208.334 1088.61 210.139 1092.18 Q211.968 1095.72 215.579 1095.72 Q219.213 1095.72 221.019 1092.18 Q222.848 1088.61 222.848 1081.51 Q222.848 1074.38 221.019 1070.83 Q219.213 1067.27 215.579 1067.27 M215.579 1063.57 Q221.389 1063.57 224.445 1068.17 Q227.523 1072.76 227.523 1081.51 Q227.523 1090.23 224.445 1094.84 Q221.389 1099.42 215.579 1099.42 Q209.769 1099.42 206.69 1094.84 Q203.635 1090.23 203.635 1081.51 Q203.635 1072.76 206.69 1068.17 Q209.769 1063.57 215.579 1063.57 Z" fill="#000000" fill-rule="evenodd" fill-opacity="1" /><path clip-path="url(#clip960)" d="M 0 0 M118.427 880.467 L136.783 880.467 L136.783 884.402 L122.709 884.402 L122.709 892.874 Q123.728 892.527 124.746 892.365 Q125.765 892.18 126.783 892.18 Q132.57 892.18 135.95 895.351 Q139.329 898.522 139.329 903.939 Q139.329 909.517 135.857 912.619 Q132.385 915.698 126.066 915.698 Q123.89 915.698 121.621 915.328 Q119.376 914.957 116.968 914.216 L116.968 909.517 Q119.052 910.652 121.274 911.207 Q123.496 911.763 125.973 911.763 Q129.978 911.763 132.316 909.656 Q134.654 907.55 134.654 903.939 Q134.654 900.328 132.316 898.221 Q129.978 896.115 125.973 896.115 Q124.098 896.115 122.223 896.531 Q120.371 896.948 118.427 897.828 L118.427 880.467 Z" fill="#000000" fill-rule="evenodd" fill-opacity="1" /><path clip-path="url(#clip960)" d="M 0 0 M144.399 909.147 L149.283 909.147 L149.283 915.027 L144.399 915.027 L144.399 909.147 Z" fill="#000000" fill-rule="evenodd" fill-opacity="1" /><path clip-path="url(#clip960)" d="M 0 0 M153.172 880.467 L175.394 880.467 L175.394 882.457 L162.848 915.027 L157.964 915.027 L169.769 884.402 L153.172 884.402 L153.172 880.467 Z" fill="#000000" fill-rule="evenodd" fill-opacity="1" /><path clip-path="url(#clip960)" d="M 0 0 M179.283 880.467 L201.505 880.467 L201.505 882.457 L188.959 915.027 L184.075 915.027 L195.88 884.402 L179.283 884.402 L179.283 880.467 Z" fill="#000000" fill-rule="evenodd" fill-opacity="1" /><path clip-path="url(#clip960)" d="M 0 0 M206.621 880.467 L224.977 880.467 L224.977 884.402 L210.903 884.402 L210.903 892.874 Q211.922 892.527 212.94 892.365 Q213.959 892.18 214.977 892.18 Q220.764 892.18 224.144 895.351 Q227.523 898.522 227.523 903.939 Q227.523 909.517 224.051 912.619 Q220.579 915.698 214.26 915.698 Q212.084 915.698 209.815 915.328 Q207.57 914.957 205.162 914.216 L205.162 909.517 Q207.246 910.652 209.468 911.207 Q211.69 911.763 214.167 911.763 Q218.172 911.763 220.51 909.656 Q222.848 907.55 222.848 903.939 Q222.848 900.328 220.51 898.221 Q218.172 896.115 214.167 896.115 Q212.292 896.115 210.417 896.531 Q208.565 896.948 206.621 897.828 L206.621 880.467 Z" fill="#000000" fill-rule="evenodd" fill-opacity="1" /><path clip-path="url(#clip960)" d="M 0 0 M115.718 696.743 L134.075 696.743 L134.075 700.678 L120.001 700.678 L120.001 709.15 Q121.019 708.803 122.038 708.641 Q123.056 708.456 124.075 708.456 Q129.862 708.456 133.242 711.627 Q136.621 714.798 136.621 720.215 Q136.621 725.794 133.149 728.895 Q129.677 731.974 123.357 731.974 Q121.181 731.974 118.913 731.604 Q116.668 731.233 114.26 730.493 L114.26 725.794 Q116.343 726.928 118.566 727.483 Q120.788 728.039 123.265 728.039 Q127.269 728.039 129.607 725.932 Q131.945 723.826 131.945 720.215 Q131.945 716.604 129.607 714.497 Q127.269 712.391 123.265 712.391 Q121.39 712.391 119.515 712.807 Q117.663 713.224 115.718 714.104 L115.718 696.743 Z" fill="#000000" fill-rule="evenodd" fill-opacity="1" /><path clip-path="url(#clip960)" d="M 0 0 M141.691 725.423 L146.575 725.423 L146.575 731.303 L141.691 731.303 L141.691 725.423 Z" fill="#000000" fill-rule="evenodd" fill-opacity="1" /><path clip-path="url(#clip960)" d="M 0 0 M161.644 714.891 Q158.311 714.891 156.39 716.673 Q154.491 718.456 154.491 721.581 Q154.491 724.706 156.39 726.488 Q158.311 728.27 161.644 728.27 Q164.977 728.27 166.899 726.488 Q168.82 724.682 168.82 721.581 Q168.82 718.456 166.899 716.673 Q165.001 714.891 161.644 714.891 M156.968 712.9 Q153.959 712.159 152.269 710.099 Q150.603 708.039 150.603 705.076 Q150.603 700.933 153.542 698.525 Q156.505 696.118 161.644 696.118 Q166.806 696.118 169.746 698.525 Q172.686 700.933 172.686 705.076 Q172.686 708.039 170.996 710.099 Q169.329 712.159 166.343 712.9 Q169.723 713.687 171.598 715.979 Q173.496 718.27 173.496 721.581 Q173.496 726.604 170.417 729.289 Q167.362 731.974 161.644 731.974 Q155.927 731.974 152.848 729.289 Q149.792 726.604 149.792 721.581 Q149.792 718.27 151.691 715.979 Q153.589 713.687 156.968 712.9 M155.255 705.516 Q155.255 708.201 156.922 709.706 Q158.612 711.21 161.644 711.21 Q164.653 711.21 166.343 709.706 Q168.056 708.201 168.056 705.516 Q168.056 702.831 166.343 701.326 Q164.653 699.821 161.644 699.821 Q158.612 699.821 156.922 701.326 Q155.255 702.831 155.255 705.516 Z" fill="#000000" fill-rule="evenodd" fill-opacity="1" /><path clip-path="url(#clip960)" d="M 0 0 M188.565 699.821 Q184.954 699.821 183.126 703.386 Q181.32 706.928 181.32 714.057 Q181.32 721.164 183.126 724.729 Q184.954 728.27 188.565 728.27 Q192.2 728.27 194.005 724.729 Q195.834 721.164 195.834 714.057 Q195.834 706.928 194.005 703.386 Q192.2 699.821 188.565 699.821 M188.565 696.118 Q194.375 696.118 197.431 700.724 Q200.51 705.308 200.51 714.057 Q200.51 722.784 197.431 727.391 Q194.375 731.974 188.565 731.974 Q182.755 731.974 179.676 727.391 Q176.621 722.784 176.621 714.057 Q176.621 705.308 179.676 700.724 Q182.755 696.118 188.565 696.118 Z" fill="#000000" fill-rule="evenodd" fill-opacity="1" /><path clip-path="url(#clip960)" d="M 0 0 M215.579 699.821 Q211.968 699.821 210.139 703.386 Q208.334 706.928 208.334 714.057 Q208.334 721.164 210.139 724.729 Q211.968 728.27 215.579 728.27 Q219.213 728.27 221.019 724.729 Q222.848 721.164 222.848 714.057 Q222.848 706.928 221.019 703.386 Q219.213 699.821 215.579 699.821 M215.579 696.118 Q221.389 696.118 224.445 700.724 Q227.523 705.308 227.523 714.057 Q227.523 722.784 224.445 727.391 Q221.389 731.974 215.579 731.974 Q209.769 731.974 206.69 727.391 Q203.635 722.784 203.635 714.057 Q203.635 705.308 206.69 700.724 Q209.769 696.118 215.579 696.118 Z" fill="#000000" fill-rule="evenodd" fill-opacity="1" /><path clip-path="url(#clip960)" d="M 0 0 M118.311 513.019 L136.667 513.019 L136.667 516.954 L122.593 516.954 L122.593 525.426 Q123.612 525.079 124.63 524.917 Q125.649 524.732 126.667 524.732 Q132.455 524.732 135.834 527.903 Q139.214 531.074 139.214 536.491 Q139.214 542.07 135.742 545.171 Q132.269 548.25 125.95 548.25 Q123.774 548.25 121.505 547.88 Q119.26 547.509 116.853 546.769 L116.853 542.07 Q118.936 543.204 121.158 543.759 Q123.38 544.315 125.857 544.315 Q129.862 544.315 132.2 542.209 Q134.538 540.102 134.538 536.491 Q134.538 532.88 132.2 530.773 Q129.862 528.667 125.857 528.667 Q123.982 528.667 122.107 529.084 Q120.255 529.5 118.311 530.38 L118.311 513.019 Z" fill="#000000" fill-rule="evenodd" fill-opacity="1" /><path clip-path="url(#clip960)" d="M 0 0 M144.283 541.699 L149.167 541.699 L149.167 547.579 L144.283 547.579 L144.283 541.699 Z" fill="#000000" fill-rule="evenodd" fill-opacity="1" /><path clip-path="url(#clip960)" d="M 0 0 M164.237 531.167 Q160.903 531.167 158.982 532.949 Q157.084 534.732 157.084 537.857 Q157.084 540.982 158.982 542.764 Q160.903 544.546 164.237 544.546 Q167.57 544.546 169.491 542.764 Q171.413 540.959 171.413 537.857 Q171.413 534.732 169.491 532.949 Q167.593 531.167 164.237 531.167 M159.561 529.176 Q156.552 528.435 154.862 526.375 Q153.195 524.315 153.195 521.352 Q153.195 517.209 156.135 514.801 Q159.098 512.394 164.237 512.394 Q169.399 512.394 172.339 514.801 Q175.278 517.209 175.278 521.352 Q175.278 524.315 173.589 526.375 Q171.922 528.435 168.936 529.176 Q172.315 529.963 174.19 532.255 Q176.089 534.547 176.089 537.857 Q176.089 542.88 173.01 545.565 Q169.954 548.25 164.237 548.25 Q158.519 548.25 155.44 545.565 Q152.385 542.88 152.385 537.857 Q152.385 534.547 154.283 532.255 Q156.181 529.963 159.561 529.176 M157.848 521.792 Q157.848 524.477 159.515 525.982 Q161.204 527.486 164.237 527.486 Q167.246 527.486 168.936 525.982 Q170.649 524.477 170.649 521.792 Q170.649 519.107 168.936 517.602 Q167.246 516.098 164.237 516.098 Q161.204 516.098 159.515 517.602 Q157.848 519.107 157.848 521.792 Z" fill="#000000" fill-rule="evenodd" fill-opacity="1" /><path clip-path="url(#clip960)" d="M 0 0 M185.186 543.644 L201.505 543.644 L201.505 547.579 L179.561 547.579 L179.561 543.644 Q182.223 540.889 186.806 536.259 Q191.413 531.607 192.593 530.264 Q194.838 527.741 195.718 526.005 Q196.621 524.246 196.621 522.556 Q196.621 519.801 194.676 518.065 Q192.755 516.329 189.653 516.329 Q187.454 516.329 185.001 517.093 Q182.57 517.857 179.792 519.408 L179.792 514.686 Q182.616 513.551 185.07 512.973 Q187.524 512.394 189.561 512.394 Q194.931 512.394 198.125 515.079 Q201.32 517.764 201.32 522.255 Q201.32 524.385 200.51 526.306 Q199.723 528.204 197.616 530.797 Q197.037 531.468 193.936 534.685 Q190.834 537.88 185.186 543.644 Z" fill="#000000" fill-rule="evenodd" fill-opacity="1" /><path clip-path="url(#clip960)" d="M 0 0 M206.621 513.019 L224.977 513.019 L224.977 516.954 L210.903 516.954 L210.903 525.426 Q211.922 525.079 212.94 524.917 Q213.959 524.732 214.977 524.732 Q220.764 524.732 224.144 527.903 Q227.523 531.074 227.523 536.491 Q227.523 542.07 224.051 545.171 Q220.579 548.25 214.26 548.25 Q212.084 548.25 209.815 547.88 Q207.57 547.509 205.162 546.769 L205.162 542.07 Q207.246 543.204 209.468 543.759 Q211.69 544.315 214.167 544.315 Q218.172 544.315 220.51 542.209 Q222.848 540.102 222.848 536.491 Q222.848 532.88 220.51 530.773 Q218.172 528.667 214.167 528.667 Q212.292 528.667 210.417 529.084 Q208.565 529.5 206.621 530.38 L206.621 513.019 Z" fill="#000000" fill-rule="evenodd" fill-opacity="1" /><path clip-path="url(#clip960)" d="M 0 0 M116.714 329.295 L135.07 329.295 L135.07 333.23 L120.996 333.23 L120.996 341.702 Q122.015 341.355 123.033 341.193 Q124.052 341.008 125.07 341.008 Q130.857 341.008 134.237 344.179 Q137.617 347.35 137.617 352.767 Q137.617 358.346 134.144 361.448 Q130.672 364.526 124.353 364.526 Q122.177 364.526 119.908 364.156 Q117.663 363.786 115.256 363.045 L115.256 358.346 Q117.339 359.48 119.561 360.036 Q121.783 360.591 124.26 360.591 Q128.265 360.591 130.603 358.485 Q132.941 356.378 132.941 352.767 Q132.941 349.156 130.603 347.049 Q128.265 344.943 124.26 344.943 Q122.385 344.943 120.51 345.36 Q118.658 345.776 116.714 346.656 L116.714 329.295 Z" fill="#000000" fill-rule="evenodd" fill-opacity="1" /><path clip-path="url(#clip960)" d="M 0 0 M142.686 357.975 L147.57 357.975 L147.57 363.855 L142.686 363.855 L142.686 357.975 Z" fill="#000000" fill-rule="evenodd" fill-opacity="1" /><path clip-path="url(#clip960)" d="M 0 0 M162.64 347.443 Q159.306 347.443 157.385 349.225 Q155.487 351.008 155.487 354.133 Q155.487 357.258 157.385 359.04 Q159.306 360.823 162.64 360.823 Q165.973 360.823 167.894 359.04 Q169.815 357.235 169.815 354.133 Q169.815 351.008 167.894 349.225 Q165.996 347.443 162.64 347.443 M157.964 345.452 Q154.954 344.712 153.265 342.651 Q151.598 340.591 151.598 337.628 Q151.598 333.485 154.538 331.077 Q157.501 328.67 162.64 328.67 Q167.802 328.67 170.741 331.077 Q173.681 333.485 173.681 337.628 Q173.681 340.591 171.991 342.651 Q170.325 344.712 167.339 345.452 Q170.718 346.239 172.593 348.531 Q174.491 350.823 174.491 354.133 Q174.491 359.156 171.413 361.841 Q168.357 364.526 162.64 364.526 Q156.922 364.526 153.843 361.841 Q150.788 359.156 150.788 354.133 Q150.788 350.823 152.686 348.531 Q154.584 346.239 157.964 345.452 M156.251 338.068 Q156.251 340.753 157.917 342.258 Q159.607 343.762 162.64 343.762 Q165.649 343.762 167.339 342.258 Q169.052 340.753 169.052 338.068 Q169.052 335.383 167.339 333.878 Q165.649 332.374 162.64 332.374 Q159.607 332.374 157.917 333.878 Q156.251 335.383 156.251 338.068 Z" fill="#000000" fill-rule="evenodd" fill-opacity="1" /><path clip-path="url(#clip960)" d="M 0 0 M179.607 329.295 L197.963 329.295 L197.963 333.23 L183.889 333.23 L183.889 341.702 Q184.908 341.355 185.926 341.193 Q186.945 341.008 187.963 341.008 Q193.75 341.008 197.13 344.179 Q200.51 347.35 200.51 352.767 Q200.51 358.346 197.037 361.448 Q193.565 364.526 187.246 364.526 Q185.07 364.526 182.801 364.156 Q180.556 363.786 178.149 363.045 L178.149 358.346 Q180.232 359.48 182.454 360.036 Q184.676 360.591 187.153 360.591 Q191.158 360.591 193.496 358.485 Q195.834 356.378 195.834 352.767 Q195.834 349.156 193.496 347.049 Q191.158 344.943 187.153 344.943 Q185.278 344.943 183.403 345.36 Q181.551 345.776 179.607 346.656 L179.607 329.295 Z" fill="#000000" fill-rule="evenodd" fill-opacity="1" /><path clip-path="url(#clip960)" d="M 0 0 M215.579 332.374 Q211.968 332.374 210.139 335.938 Q208.334 339.48 208.334 346.61 Q208.334 353.716 210.139 357.281 Q211.968 360.823 215.579 360.823 Q219.213 360.823 221.019 357.281 Q222.848 353.716 222.848 346.61 Q222.848 339.48 221.019 335.938 Q219.213 332.374 215.579 332.374 M215.579 328.67 Q221.389 328.67 224.445 333.276 Q227.523 337.86 227.523 346.61 Q227.523 355.336 224.445 359.943 Q221.389 364.526 215.579 364.526 Q209.769 364.526 206.69 359.943 Q203.635 355.336 203.635 346.61 Q203.635 337.86 206.69 333.276 Q209.769 328.67 215.579 328.67 Z" fill="#000000" fill-rule="evenodd" fill-opacity="1" /><path clip-path="url(#clip960)" d="M 0 0 M117.617 145.571 L135.973 145.571 L135.973 149.506 L121.899 149.506 L121.899 157.978 Q122.918 157.631 123.936 157.469 Q124.955 157.284 125.973 157.284 Q131.76 157.284 135.14 160.455 Q138.519 163.627 138.519 169.043 Q138.519 174.622 135.047 177.724 Q131.575 180.802 125.255 180.802 Q123.08 180.802 120.811 180.432 Q118.566 180.062 116.158 179.321 L116.158 174.622 Q118.242 175.756 120.464 176.312 Q122.686 176.867 125.163 176.867 Q129.167 176.867 131.505 174.761 Q133.843 172.654 133.843 169.043 Q133.843 165.432 131.505 163.326 Q129.167 161.219 125.163 161.219 Q123.288 161.219 121.413 161.636 Q119.561 162.052 117.617 162.932 L117.617 145.571 Z" fill="#000000" fill-rule="evenodd" fill-opacity="1" /><path clip-path="url(#clip960)" d="M 0 0 M143.589 174.251 L148.473 174.251 L148.473 180.131 L143.589 180.131 L143.589 174.251 Z" fill="#000000" fill-rule="evenodd" fill-opacity="1" /><path clip-path="url(#clip960)" d="M 0 0 M163.542 163.719 Q160.209 163.719 158.288 165.502 Q156.39 167.284 156.39 170.409 Q156.39 173.534 158.288 175.316 Q160.209 177.099 163.542 177.099 Q166.876 177.099 168.797 175.316 Q170.718 173.511 170.718 170.409 Q170.718 167.284 168.797 165.502 Q166.899 163.719 163.542 163.719 M158.866 161.728 Q155.857 160.988 154.167 158.927 Q152.501 156.867 152.501 153.904 Q152.501 149.761 155.44 147.353 Q158.403 144.946 163.542 144.946 Q168.704 144.946 171.644 147.353 Q174.584 149.761 174.584 153.904 Q174.584 156.867 172.894 158.927 Q171.227 160.988 168.241 161.728 Q171.621 162.515 173.496 164.807 Q175.394 167.099 175.394 170.409 Q175.394 175.432 172.315 178.117 Q169.26 180.802 163.542 180.802 Q157.825 180.802 154.746 178.117 Q151.691 175.432 151.691 170.409 Q151.691 167.099 153.589 164.807 Q155.487 162.515 158.866 161.728 M157.153 154.344 Q157.153 157.029 158.82 158.534 Q160.51 160.039 163.542 160.039 Q166.552 160.039 168.241 158.534 Q169.954 157.029 169.954 154.344 Q169.954 151.659 168.241 150.154 Q166.552 148.65 163.542 148.65 Q160.51 148.65 158.82 150.154 Q157.153 151.659 157.153 154.344 Z" fill="#000000" fill-rule="evenodd" fill-opacity="1" /><path clip-path="url(#clip960)" d="M 0 0 M179.283 145.571 L201.505 145.571 L201.505 147.562 L188.959 180.131 L184.075 180.131 L195.88 149.506 L179.283 149.506 L179.283 145.571 Z" fill="#000000" fill-rule="evenodd" fill-opacity="1" /><path clip-path="url(#clip960)" d="M 0 0 M206.621 145.571 L224.977 145.571 L224.977 149.506 L210.903 149.506 L210.903 157.978 Q211.922 157.631 212.94 157.469 Q213.959 157.284 214.977 157.284 Q220.764 157.284 224.144 160.455 Q227.523 163.627 227.523 169.043 Q227.523 174.622 224.051 177.724 Q220.579 180.802 214.26 180.802 Q212.084 180.802 209.815 180.432 Q207.57 180.062 205.162 179.321 L205.162 174.622 Q207.246 175.756 209.468 176.312 Q211.69 176.867 214.167 176.867 Q218.172 176.867 220.51 174.761 Q222.848 172.654 222.848 169.043 Q222.848 165.432 220.51 163.326 Q218.172 161.219 214.167 161.219 Q212.292 161.219 210.417 161.636 Q208.565 162.052 206.621 162.932 L206.621 145.571 Z" fill="#000000" fill-rule="evenodd" fill-opacity="1" /><path clip-path="url(#clip960)" d="M 0 0 M59.1993 815.533 Q55.2526 813.336 53.3747 810.281 Q51.4968 807.225 51.4968 803.088 Q51.4968 797.518 55.4117 794.494 Q59.2948 791.47 66.4881 791.47 L88.0042 791.47 L88.0042 797.358 L66.679 797.358 Q61.5546 797.358 59.072 799.173 Q56.5894 800.987 56.5894 804.711 Q56.5894 809.262 59.6131 811.904 Q62.6368 814.546 67.8567 814.546 L88.0042 814.546 L88.0042 820.434 L66.679 820.434 Q61.5228 820.434 59.072 822.248 Q56.5894 824.063 56.5894 827.85 Q56.5894 832.338 59.6449 834.98 Q62.6686 837.622 67.8567 837.622 L88.0042 837.622 L88.0042 843.51 L52.3562 843.51 L52.3562 837.622 L57.8944 837.622 Q54.616 835.616 53.0564 832.815 Q51.4968 830.015 51.4968 826.163 Q51.4968 822.28 53.4702 819.575 Q55.4436 816.838 59.1993 815.533 Z" fill="#000000" fill-rule="evenodd" fill-opacity="1" /><path clip-path="url(#clip960)" d="M 0 0 M52.3562 785.327 L52.3562 779.471 L88.0042 779.471 L88.0042 785.327 L52.3562 785.327 M38.479 785.327 L38.479 779.471 L45.895 779.471 L45.895 785.327 L38.479 785.327 Z" fill="#000000" fill-rule="evenodd" fill-opacity="1" /><path clip-path="url(#clip960)" d="M 0 0 M66.4881 743.696 L88.0042 743.696 L88.0042 749.552 L66.679 749.552 Q61.6183 749.552 59.1038 751.525 Q56.5894 753.499 56.5894 757.446 Q56.5894 762.188 59.6131 764.925 Q62.6368 767.662 67.8567 767.662 L88.0042 767.662 L88.0042 773.551 L52.3562 773.551 L52.3562 767.662 L57.8944 767.662 Q54.6797 765.562 53.0883 762.729 Q51.4968 759.864 51.4968 756.141 Q51.4968 749.998 55.3163 746.847 Q59.1038 743.696 66.4881 743.696 Z" fill="#000000" fill-rule="evenodd" fill-opacity="1" /><path clip-path="url(#clip960)" d="M 0 0 M98.8259 710.467 L103.377 710.467 L103.377 744.332 L98.8259 744.332 L98.8259 710.467 Z" fill="#000000" fill-rule="evenodd" fill-opacity="1" /><path clip-path="url(#clip960)" d="M 0 0 M57.7671 680.866 L38.479 680.866 L38.479 675.01 L88.0042 675.01 L88.0042 680.866 L82.657 680.866 Q85.8398 682.712 87.3994 685.545 Q88.9272 688.346 88.9272 692.292 Q88.9272 698.754 83.771 702.828 Q78.6147 706.87 70.212 706.87 Q61.8093 706.87 56.6531 702.828 Q51.4968 698.754 51.4968 692.292 Q51.4968 688.346 53.0564 685.545 Q54.5842 682.712 57.7671 680.866 M70.212 700.823 Q76.6732 700.823 80.3653 698.181 Q84.0256 695.507 84.0256 690.86 Q84.0256 686.213 80.3653 683.54 Q76.6732 680.866 70.212 680.866 Q63.7508 680.866 60.0905 683.54 Q56.3984 686.213 56.3984 690.86 Q56.3984 695.507 60.0905 698.181 Q63.7508 700.823 70.212 700.823 Z" fill="#000000" fill-rule="evenodd" fill-opacity="1" /><path clip-path="url(#clip960)" d="M 0 0 M52.3562 668.867 L52.3562 663.01 L88.0042 663.01 L88.0042 668.867 L52.3562 668.867 M38.479 668.867 L38.479 663.01 L45.895 663.01 L45.895 668.867 L38.479 668.867 Z" fill="#000000" fill-rule="evenodd" fill-opacity="1" /><path clip-path="url(#clip960)" d="M 0 0 M38.479 638.821 L43.3487 638.821 L43.3487 644.422 Q43.3487 647.573 44.6219 648.815 Q45.895 650.024 49.2052 650.024 L52.3562 650.024 L52.3562 640.38 L56.9077 640.38 L56.9077 650.024 L88.0042 650.024 L88.0042 655.912 L56.9077 655.912 L56.9077 661.514 L52.3562 661.514 L52.3562 655.912 L49.8736 655.912 Q43.9216 655.912 41.2162 653.143 Q38.479 650.374 38.479 644.359 L38.479 638.821 Z" fill="#000000" fill-rule="evenodd" fill-opacity="1" /><path clip-path="url(#clip960)" d="M 0 0 M38.479 614.631 L43.3487 614.631 L43.3487 620.233 Q43.3487 623.384 44.6219 624.625 Q45.895 625.835 49.2052 625.835 L52.3562 625.835 L52.3562 616.19 L56.9077 616.19 L56.9077 625.835 L88.0042 625.835 L88.0042 631.723 L56.9077 631.723 L56.9077 637.325 L52.3562 637.325 L52.3562 631.723 L49.8736 631.723 Q43.9216 631.723 41.2162 628.954 Q38.479 626.185 38.479 620.169 L38.479 614.631 Z" fill="#000000" fill-rule="evenodd" fill-opacity="1" /><polyline clip-path="url(#clip962)" style="stroke:#009af9; stroke-width:20; stroke-opacity:1; fill:none" stroke-dasharray="80, 50" points="
  322.653,85.838 1308.14,965.308 2293.63,1372.3 
  "/>
<path clip-path="url(#clip960)" d="
M1999.96 213.659 L2283.11 213.659 L2283.11 92.6992 L1999.96 92.6992  Z
  " fill="#ffffff" fill-rule="evenodd" fill-opacity="1"/>
<polyline clip-path="url(#clip960)" style="stroke:#000000; stroke-width:4; stroke-opacity:1; fill:none" points="
  1999.96,213.659 2283.11,213.659 2283.11,92.6992 1999.96,92.6992 1999.96,213.659 
  "/>
<polyline clip-path="url(#clip960)" style="stroke:#009af9; stroke-width:4; stroke-opacity:1; fill:none" stroke-dasharray="16, 10" points="
  2023.17,153.179 2162.46,153.179 
  "/>
<path clip-path="url(#clip960)" d="M 0 0 M2199.51 172.867 Q2197.71 177.496 2195.99 178.908 Q2194.28 180.32 2191.41 180.32 L2188.01 180.32 L2188.01 176.755 L2190.51 176.755 Q2192.27 176.755 2193.24 175.922 Q2194.21 175.089 2195.39 171.987 L2196.16 170.043 L2185.67 144.533 L2190.18 144.533 L2198.28 164.811 L2206.39 144.533 L2210.9 144.533 L2199.51 172.867 Z" fill="#000000" fill-rule="evenodd" fill-opacity="1" /><path clip-path="url(#clip960)" d="M 0 0 M2216.78 166.524 L2224.42 166.524 L2224.42 140.158 L2216.11 141.825 L2216.11 137.566 L2224.37 135.899 L2229.05 135.899 L2229.05 166.524 L2236.69 166.524 L2236.69 170.459 L2216.78 170.459 L2216.78 166.524 Z" fill="#000000" fill-rule="evenodd" fill-opacity="1" /></svg>
