<?xml version="1.0" encoding="utf-8"?>
<svg xmlns="http://www.w3.org/2000/svg" xmlns:xlink="http://www.w3.org/1999/xlink" width="600" height="400" viewBox="0 0 2400 1600">
<defs>
  <clipPath id="clip330">
    <rect x="0" y="0" width="2400" height="1600"/>
  </clipPath>
</defs>
<path clip-path="url(#clip330)" d="
M0 1600 L2400 1600 L2400 0 L0 0  Z
  " fill="#ffffff" fill-rule="evenodd" fill-opacity="1"/>
<defs>
  <clipPath id="clip331">
    <rect x="480" y="0" width="1681" height="1600"/>
  </clipPath>
</defs>
<path clip-path="url(#clip330)" d="
M175.445 1410.9 L2352.76 1410.9 L2352.76 47.2441 L175.445 47.2441  Z
  " fill="#ffffff" fill-rule="evenodd" fill-opacity="1"/>
<defs>
  <clipPath id="clip332">
    <rect x="175" y="47" width="2178" height="1365"/>
  </clipPath>
</defs>
<polyline clip-path="url(#clip332)" style="stroke:#000000; stroke-width:2; stroke-opacity:0.1; fill:none" points="
  237.067,1410.9 237.067,47.2441 
  "/>
<polyline clip-path="url(#clip332)" style="stroke:#000000; stroke-width:2; stroke-opacity:0.1; fill:none" points="
  921.756,1410.9 921.756,47.2441 
  "/>
<polyline clip-path="url(#clip332)" style="stroke:#000000; stroke-width:2; stroke-opacity:0.1; fill:none" points="
  1606.45,1410.9 1606.45,47.2441 
  "/>
<polyline clip-path="url(#clip332)" style="stroke:#000000; stroke-width:2; stroke-opacity:0.1; fill:none" points="
  2291.13,1410.9 2291.13,47.2441 
  "/>
<polyline clip-path="url(#clip330)" style="stroke:#000000; stroke-width:4; stroke-opacity:1; fill:none" points="
  175.445,1410.9 2352.76,1410.9 
  "/>
<polyline clip-path="url(#clip330)" style="stroke:#000000; stroke-width:4; stroke-opacity:1; fill:none" points="
  237.067,1410.9 237.067,1394.53 
  "/>
<polyline clip-path="url(#clip330)" style="stroke:#000000; stroke-width:4; stroke-opacity:1; fill:none" points="
  921.756,1410.9 921.756,1394.53 
  "/>
<polyline clip-path="url(#clip330)" style="stroke:#000000; stroke-width:4; stroke-opacity:1; fill:none" points="
  1606.45,1410.9 1606.45,1394.53 
  "/>
<polyline clip-path="url(#clip330)" style="stroke:#000000; stroke-width:4; stroke-opacity:1; fill:none" points="
  2291.13,1410.9 2291.13,1394.53 
  "/>
<path clip-path="url(#clip330)" d="M 0 0 M191.176 1489.17 L198.814 1489.17 L198.814 1462.8 L190.504 1464.47 L190.504 1460.21 L198.768 1458.54 L203.444 1458.54 L203.444 1489.17 L211.083 1489.17 L211.083 1493.1 L191.176 1493.1 L191.176 1489.17 Z" fill="#000000" fill-rule="evenodd" fill-opacity="1" /><path clip-path="url(#clip330)" d="M 0 0 M226.152 1461.62 Q222.541 1461.62 220.712 1465.19 Q218.907 1468.73 218.907 1475.86 Q218.907 1482.97 220.712 1486.53 Q222.541 1490.07 226.152 1490.07 Q229.786 1490.07 231.592 1486.53 Q233.421 1482.97 233.421 1475.86 Q233.421 1468.73 231.592 1465.19 Q229.786 1461.62 226.152 1461.62 M226.152 1457.92 Q231.962 1457.92 235.018 1462.53 Q238.097 1467.11 238.097 1475.86 Q238.097 1484.59 235.018 1489.19 Q231.962 1493.78 226.152 1493.78 Q220.342 1493.78 217.263 1489.19 Q214.208 1484.59 214.208 1475.86 Q214.208 1467.11 217.263 1462.53 Q220.342 1457.92 226.152 1457.92 Z" fill="#000000" fill-rule="evenodd" fill-opacity="1" /><path clip-path="url(#clip330)" d="M 0 0 M238.097 1452.02 L262.208 1452.02 L262.208 1455.22 L238.097 1455.22 L238.097 1452.02 Z" fill="#000000" fill-rule="evenodd" fill-opacity="1" /><path clip-path="url(#clip330)" d="M 0 0 M277.837 1450.55 Q280.565 1451.14 282.088 1452.98 Q283.63 1454.82 283.63 1457.53 Q283.63 1461.69 280.771 1463.96 Q277.913 1466.24 272.646 1466.24 Q270.879 1466.24 268.998 1465.88 Q267.136 1465.54 265.142 1464.85 L265.142 1461.18 Q266.722 1462.1 268.603 1462.57 Q270.484 1463.04 272.534 1463.04 Q276.107 1463.04 277.969 1461.63 Q279.85 1460.22 279.85 1457.53 Q279.85 1455.05 278.101 1453.66 Q276.37 1452.25 273.267 1452.25 L269.995 1452.25 L269.995 1449.12 L273.418 1449.12 Q276.22 1449.12 277.706 1448.01 Q279.192 1446.89 279.192 1444.78 Q279.192 1442.62 277.649 1441.47 Q276.126 1440.3 273.267 1440.3 Q271.706 1440.3 269.919 1440.64 Q268.133 1440.98 265.988 1441.69 L265.988 1438.31 Q268.151 1437.71 270.032 1437.41 Q271.932 1437.11 273.606 1437.11 Q277.931 1437.11 280.452 1439.08 Q282.972 1441.04 282.972 1444.38 Q282.972 1446.72 281.637 1448.33 Q280.301 1449.93 277.837 1450.55 Z" fill="#000000" fill-rule="evenodd" fill-opacity="1" /><path clip-path="url(#clip330)" d="M 0 0 M876.25 1489.17 L883.889 1489.17 L883.889 1462.8 L875.579 1464.47 L875.579 1460.21 L883.843 1458.54 L888.518 1458.54 L888.518 1489.17 L896.157 1489.17 L896.157 1493.1 L876.25 1493.1 L876.25 1489.17 Z" fill="#000000" fill-rule="evenodd" fill-opacity="1" /><path clip-path="url(#clip330)" d="M 0 0 M911.227 1461.62 Q907.616 1461.62 905.787 1465.19 Q903.981 1468.73 903.981 1475.86 Q903.981 1482.97 905.787 1486.53 Q907.616 1490.07 911.227 1490.07 Q914.861 1490.07 916.666 1486.53 Q918.495 1482.97 918.495 1475.86 Q918.495 1468.73 916.666 1465.19 Q914.861 1461.62 911.227 1461.62 M911.227 1457.92 Q917.037 1457.92 920.092 1462.53 Q923.171 1467.11 923.171 1475.86 Q923.171 1484.59 920.092 1489.19 Q917.037 1493.78 911.227 1493.78 Q905.416 1493.78 902.338 1489.19 Q899.282 1484.59 899.282 1475.86 Q899.282 1467.11 902.338 1462.53 Q905.416 1457.92 911.227 1457.92 Z" fill="#000000" fill-rule="evenodd" fill-opacity="1" /><path clip-path="url(#clip330)" d="M 0 0 M923.171 1452.02 L947.283 1452.02 L947.283 1455.22 L923.171 1455.22 L923.171 1452.02 Z" fill="#000000" fill-rule="evenodd" fill-opacity="1" /><path clip-path="url(#clip330)" d="M 0 0 M954.674 1462.5 L967.934 1462.5 L967.934 1465.69 L950.104 1465.69 L950.104 1462.5 Q952.267 1460.26 955.991 1456.5 Q959.733 1452.72 960.693 1451.63 Q962.517 1449.58 963.232 1448.16 Q963.965 1446.74 963.965 1445.36 Q963.965 1443.12 962.385 1441.71 Q960.824 1440.3 958.304 1440.3 Q956.517 1440.3 954.524 1440.92 Q952.549 1441.54 950.292 1442.8 L950.292 1438.97 Q952.586 1438.05 954.58 1437.58 Q956.574 1437.11 958.229 1437.11 Q962.592 1437.11 965.188 1439.29 Q967.783 1441.47 967.783 1445.12 Q967.783 1446.85 967.125 1448.41 Q966.485 1449.95 964.774 1452.06 Q964.304 1452.6 961.783 1455.22 Q959.263 1457.81 954.674 1462.5 Z" fill="#000000" fill-rule="evenodd" fill-opacity="1" /><path clip-path="url(#clip330)" d="M 0 0 M1560.79 1489.17 L1568.43 1489.17 L1568.43 1462.8 L1560.12 1464.47 L1560.12 1460.21 L1568.38 1458.54 L1573.06 1458.54 L1573.06 1489.17 L1580.7 1489.17 L1580.7 1493.1 L1560.79 1493.1 L1560.79 1489.17 Z" fill="#000000" fill-rule="evenodd" fill-opacity="1" /><path clip-path="url(#clip330)" d="M 0 0 M1595.77 1461.62 Q1592.15 1461.62 1590.33 1465.19 Q1588.52 1468.73 1588.52 1475.86 Q1588.52 1482.97 1590.33 1486.53 Q1592.15 1490.07 1595.77 1490.07 Q1599.4 1490.07 1601.2 1486.53 Q1603.03 1482.97 1603.03 1475.86 Q1603.03 1468.73 1601.2 1465.19 Q1599.4 1461.62 1595.77 1461.62 M1595.77 1457.92 Q1601.58 1457.92 1604.63 1462.53 Q1607.71 1467.11 1607.71 1475.86 Q1607.71 1484.59 1604.63 1489.19 Q1601.58 1493.78 1595.77 1493.78 Q1589.95 1493.78 1586.88 1489.19 Q1583.82 1484.59 1583.82 1475.86 Q1583.82 1467.11 1586.88 1462.53 Q1589.95 1457.92 1595.77 1457.92 Z" fill="#000000" fill-rule="evenodd" fill-opacity="1" /><path clip-path="url(#clip330)" d="M 0 0 M1607.71 1452.02 L1631.82 1452.02 L1631.82 1455.22 L1607.71 1455.22 L1607.71 1452.02 Z" fill="#000000" fill-rule="evenodd" fill-opacity="1" /><path clip-path="url(#clip330)" d="M 0 0 M1636.6 1462.5 L1642.8 1462.5 L1642.8 1441.07 L1636.05 1442.43 L1636.05 1438.97 L1642.77 1437.61 L1646.57 1437.61 L1646.57 1462.5 L1652.77 1462.5 L1652.77 1465.69 L1636.6 1465.69 L1636.6 1462.5 Z" fill="#000000" fill-rule="evenodd" fill-opacity="1" /><path clip-path="url(#clip330)" d="M 0 0 M2258.3 1489.17 L2265.94 1489.17 L2265.94 1462.8 L2257.63 1464.47 L2257.63 1460.21 L2265.9 1458.54 L2270.57 1458.54 L2270.57 1489.17 L2278.21 1489.17 L2278.21 1493.1 L2258.3 1493.1 L2258.3 1489.17 Z" fill="#000000" fill-rule="evenodd" fill-opacity="1" /><path clip-path="url(#clip330)" d="M 0 0 M2293.28 1461.62 Q2289.67 1461.62 2287.84 1465.19 Q2286.04 1468.73 2286.04 1475.86 Q2286.04 1482.97 2287.84 1486.53 Q2289.67 1490.07 2293.28 1490.07 Q2296.92 1490.07 2298.72 1486.53 Q2300.55 1482.97 2300.55 1475.86 Q2300.55 1468.73 2298.72 1465.19 Q2296.92 1461.62 2293.28 1461.62 M2293.28 1457.92 Q2299.09 1457.92 2302.15 1462.53 Q2305.23 1467.11 2305.23 1475.86 Q2305.23 1484.59 2302.15 1489.19 Q2299.09 1493.78 2293.28 1493.78 Q2287.47 1493.78 2284.39 1489.19 Q2281.34 1484.59 2281.34 1475.86 Q2281.34 1467.11 2284.39 1462.53 Q2287.47 1457.92 2293.28 1457.92 Z" fill="#000000" fill-rule="evenodd" fill-opacity="1" /><path clip-path="url(#clip330)" d="M 0 0 M2314.93 1440.11 Q2312 1440.11 2310.51 1443.01 Q2309.04 1445.89 2309.04 1451.68 Q2309.04 1457.46 2310.51 1460.35 Q2312 1463.23 2314.93 1463.23 Q2317.88 1463.23 2319.35 1460.35 Q2320.84 1457.46 2320.84 1451.68 Q2320.84 1445.89 2319.35 1443.01 Q2317.88 1440.11 2314.93 1440.11 M2314.93 1437.11 Q2319.65 1437.11 2322.13 1440.85 Q2324.63 1444.57 2324.63 1451.68 Q2324.63 1458.77 2322.13 1462.51 Q2319.65 1466.24 2314.93 1466.24 Q2310.21 1466.24 2307.71 1462.51 Q2305.23 1458.77 2305.23 1451.68 Q2305.23 1444.57 2307.71 1440.85 Q2310.21 1437.11 2314.93 1437.11 Z" fill="#000000" fill-rule="evenodd" fill-opacity="1" /><path clip-path="url(#clip330)" d="M 0 0 M1156.87 1526.54 L1163.08 1526.54 L1174.22 1556.46 L1185.36 1526.54 L1191.56 1526.54 L1178.2 1562.19 L1170.24 1562.19 L1156.87 1526.54 Z" fill="#000000" fill-rule="evenodd" fill-opacity="1" /><path clip-path="url(#clip330)" d="M 0 0 M1224.79 1573.01 L1224.79 1577.56 L1190.93 1577.56 L1190.93 1573.01 L1224.79 1573.01 Z" fill="#000000" fill-rule="evenodd" fill-opacity="1" /><path clip-path="url(#clip330)" d="M 0 0 M1244.75 1530.64 Q1240.04 1530.64 1237.3 1534.34 Q1234.56 1538 1234.56 1544.39 Q1234.56 1550.79 1237.27 1554.48 Q1240.01 1558.14 1244.75 1558.14 Q1249.43 1558.14 1252.16 1554.45 Q1254.9 1550.76 1254.9 1544.39 Q1254.9 1538.06 1252.16 1534.37 Q1249.43 1530.64 1244.75 1530.64 M1244.75 1525.68 Q1252.39 1525.68 1256.75 1530.64 Q1261.11 1535.61 1261.11 1544.39 Q1261.11 1553.15 1256.75 1558.14 Q1252.39 1563.11 1244.75 1563.11 Q1237.08 1563.11 1232.72 1558.14 Q1228.39 1553.15 1228.39 1544.39 Q1228.39 1535.61 1232.72 1530.64 Q1237.08 1525.68 1244.75 1525.68 Z" fill="#000000" fill-rule="evenodd" fill-opacity="1" /><path clip-path="url(#clip330)" d="M 0 0 M1272.92 1556.84 L1272.92 1575.74 L1267.03 1575.74 L1267.03 1526.54 L1272.92 1526.54 L1272.92 1531.95 Q1274.76 1528.77 1277.56 1527.24 Q1280.4 1525.68 1284.31 1525.68 Q1290.8 1525.68 1294.85 1530.83 Q1298.92 1535.99 1298.92 1544.39 Q1298.92 1552.8 1294.85 1557.95 Q1290.8 1563.11 1284.31 1563.11 Q1280.4 1563.11 1277.56 1561.58 Q1274.76 1560.02 1272.92 1556.84 M1292.84 1544.39 Q1292.84 1537.93 1290.17 1534.27 Q1287.53 1530.58 1282.88 1530.58 Q1278.23 1530.58 1275.56 1534.27 Q1272.92 1537.93 1272.92 1544.39 Q1272.92 1550.85 1275.56 1554.55 Q1278.23 1558.21 1282.88 1558.21 Q1287.53 1558.21 1290.17 1554.55 Q1292.84 1550.85 1292.84 1544.39 Z" fill="#000000" fill-rule="evenodd" fill-opacity="1" /><path clip-path="url(#clip330)" d="M 0 0 M1335.56 1542.9 L1335.56 1545.76 L1308.63 1545.76 Q1309.01 1551.81 1312.26 1554.99 Q1315.54 1558.14 1321.36 1558.14 Q1324.73 1558.14 1327.88 1557.32 Q1331.07 1556.49 1334.19 1554.83 L1334.19 1560.37 Q1331.04 1561.71 1327.73 1562.41 Q1324.42 1563.11 1321.01 1563.11 Q1312.48 1563.11 1307.48 1558.14 Q1302.52 1553.18 1302.52 1544.71 Q1302.52 1535.96 1307.23 1530.83 Q1311.97 1525.68 1319.99 1525.68 Q1327.18 1525.68 1331.35 1530.33 Q1335.56 1534.94 1335.56 1542.9 M1329.7 1541.18 Q1329.64 1536.37 1326.99 1533.51 Q1324.38 1530.64 1320.06 1530.64 Q1315.15 1530.64 1312.19 1533.41 Q1309.27 1536.18 1308.82 1541.21 L1329.7 1541.18 Z" fill="#000000" fill-rule="evenodd" fill-opacity="1" /><path clip-path="url(#clip330)" d="M 0 0 M1371.33 1540.67 L1371.33 1562.19 L1365.47 1562.19 L1365.47 1540.86 Q1365.47 1535.8 1363.5 1533.29 Q1361.53 1530.77 1357.58 1530.77 Q1352.84 1530.77 1350.1 1533.79 Q1347.36 1536.82 1347.36 1542.04 L1347.36 1562.19 L1341.48 1562.19 L1341.48 1526.54 L1347.36 1526.54 L1347.36 1532.08 Q1349.46 1528.86 1352.3 1527.27 Q1355.16 1525.68 1358.89 1525.68 Q1365.03 1525.68 1368.18 1529.5 Q1371.33 1533.29 1371.33 1540.67 Z" fill="#000000" fill-rule="evenodd" fill-opacity="1" /><polyline clip-path="url(#clip332)" style="stroke:#000000; stroke-width:2; stroke-opacity:0.1; fill:none" points="
  175.445,1244.34 2352.76,1244.34 
  "/>
<polyline clip-path="url(#clip332)" style="stroke:#000000; stroke-width:2; stroke-opacity:0.1; fill:none" points="
  175.445,907.053 2352.76,907.053 
  "/>
<polyline clip-path="url(#clip332)" style="stroke:#000000; stroke-width:2; stroke-opacity:0.1; fill:none" points="
  175.445,569.763 2352.76,569.763 
  "/>
<polyline clip-path="url(#clip332)" style="stroke:#000000; stroke-width:2; stroke-opacity:0.1; fill:none" points="
  175.445,232.474 2352.76,232.474 
  "/>
<polyline clip-path="url(#clip330)" style="stroke:#000000; stroke-width:4; stroke-opacity:1; fill:none" points="
  175.445,1410.9 175.445,47.2441 
  "/>
<polyline clip-path="url(#clip330)" style="stroke:#000000; stroke-width:4; stroke-opacity:1; fill:none" points="
  175.445,1244.34 201.573,1244.34 
  "/>
<polyline clip-path="url(#clip330)" style="stroke:#000000; stroke-width:4; stroke-opacity:1; fill:none" points="
  175.445,907.053 201.573,907.053 
  "/>
<polyline clip-path="url(#clip330)" style="stroke:#000000; stroke-width:4; stroke-opacity:1; fill:none" points="
  175.445,569.763 201.573,569.763 
  "/>
<polyline clip-path="url(#clip330)" style="stroke:#000000; stroke-width:4; stroke-opacity:1; fill:none" points="
  175.445,232.474 201.573,232.474 
  "/>
<path clip-path="url(#clip330)" d="M 0 0 M123.126 1257.69 L139.445 1257.69 L139.445 1261.62 L117.501 1261.62 L117.501 1257.69 Q120.163 1254.93 124.746 1250.3 Q129.353 1245.65 130.533 1244.31 Q132.779 1241.79 133.658 1240.05 Q134.561 1238.29 134.561 1236.6 Q134.561 1233.85 132.617 1232.11 Q130.695 1230.37 127.593 1230.37 Q125.394 1230.37 122.941 1231.14 Q120.51 1231.9 117.732 1233.45 L117.732 1228.73 Q120.556 1227.6 123.01 1227.02 Q125.464 1226.44 127.501 1226.44 Q132.871 1226.44 136.066 1229.12 Q139.26 1231.81 139.26 1236.3 Q139.26 1238.43 138.45 1240.35 Q137.663 1242.25 135.556 1244.84 Q134.978 1245.51 131.876 1248.73 Q128.774 1251.92 123.126 1257.69 Z" fill="#000000" fill-rule="evenodd" fill-opacity="1" /><path clip-path="url(#clip330)" d="M 0 0 M132.316 905.699 Q135.672 906.417 137.547 908.685 Q139.445 910.954 139.445 914.287 Q139.445 919.403 135.927 922.204 Q132.408 925.005 125.927 925.005 Q123.751 925.005 121.436 924.565 Q119.144 924.148 116.691 923.292 L116.691 918.778 Q118.635 919.912 120.95 920.491 Q123.265 921.069 125.788 921.069 Q130.186 921.069 132.478 919.333 Q134.792 917.597 134.792 914.287 Q134.792 911.231 132.64 909.519 Q130.51 907.782 126.691 907.782 L122.663 907.782 L122.663 903.94 L126.876 903.94 Q130.325 903.94 132.154 902.574 Q133.982 901.185 133.982 898.593 Q133.982 895.931 132.084 894.519 Q130.209 893.083 126.691 893.083 Q124.769 893.083 122.57 893.5 Q120.371 893.917 117.732 894.796 L117.732 890.63 Q120.394 889.889 122.709 889.519 Q125.047 889.148 127.107 889.148 Q132.431 889.148 135.533 891.579 Q138.635 893.986 138.635 898.107 Q138.635 900.977 136.992 902.968 Q135.348 904.935 132.316 905.699 Z" fill="#000000" fill-rule="evenodd" fill-opacity="1" /><path clip-path="url(#clip330)" d="M 0 0 M129.862 556.557 L118.056 575.006 L129.862 575.006 L129.862 556.557 M128.635 552.483 L134.515 552.483 L134.515 575.006 L139.445 575.006 L139.445 578.895 L134.515 578.895 L134.515 587.043 L129.862 587.043 L129.862 578.895 L114.26 578.895 L114.26 574.381 L128.635 552.483 Z" fill="#000000" fill-rule="evenodd" fill-opacity="1" /><path clip-path="url(#clip330)" d="M 0 0 M118.543 215.194 L136.899 215.194 L136.899 219.129 L122.825 219.129 L122.825 227.601 Q123.843 227.254 124.862 227.092 Q125.88 226.906 126.899 226.906 Q132.686 226.906 136.066 230.078 Q139.445 233.249 139.445 238.666 Q139.445 244.244 135.973 247.346 Q132.501 250.425 126.181 250.425 Q124.005 250.425 121.737 250.054 Q119.492 249.684 117.084 248.943 L117.084 244.244 Q119.168 245.379 121.39 245.934 Q123.612 246.49 126.089 246.49 Q130.093 246.49 132.431 244.383 Q134.769 242.277 134.769 238.666 Q134.769 235.055 132.431 232.948 Q130.093 230.842 126.089 230.842 Q124.214 230.842 122.339 231.258 Q120.487 231.675 118.543 232.555 L118.543 215.194 Z" fill="#000000" fill-rule="evenodd" fill-opacity="1" /><path clip-path="url(#clip330)" d="M 0 0 M59.1993 815.533 Q55.2526 813.336 53.3747 810.281 Q51.4968 807.225 51.4968 803.088 Q51.4968 797.518 55.4117 794.494 Q59.2948 791.47 66.4881 791.47 L88.0042 791.47 L88.0042 797.358 L66.679 797.358 Q61.5546 797.358 59.072 799.173 Q56.5894 800.987 56.5894 804.711 Q56.5894 809.262 59.6131 811.904 Q62.6368 814.546 67.8567 814.546 L88.0042 814.546 L88.0042 820.434 L66.679 820.434 Q61.5228 820.434 59.072 822.248 Q56.5894 824.063 56.5894 827.85 Q56.5894 832.338 59.6449 834.98 Q62.6686 837.622 67.8567 837.622 L88.0042 837.622 L88.0042 843.51 L52.3562 843.51 L52.3562 837.622 L57.8944 837.622 Q54.616 835.616 53.0564 832.815 Q51.4968 830.015 51.4968 826.163 Q51.4968 822.28 53.4702 819.575 Q55.4436 816.838 59.1993 815.533 Z" fill="#000000" fill-rule="evenodd" fill-opacity="1" /><path clip-path="url(#clip330)" d="M 0 0 M52.3562 785.327 L52.3562 779.471 L88.0042 779.471 L88.0042 785.327 L52.3562 785.327 M38.479 785.327 L38.479 779.471 L45.895 779.471 L45.895 785.327 L38.479 785.327 Z" fill="#000000" fill-rule="evenodd" fill-opacity="1" /><path clip-path="url(#clip330)" d="M 0 0 M66.4881 743.696 L88.0042 743.696 L88.0042 749.552 L66.679 749.552 Q61.6183 749.552 59.1038 751.525 Q56.5894 753.499 56.5894 757.446 Q56.5894 762.188 59.6131 764.925 Q62.6368 767.662 67.8567 767.662 L88.0042 767.662 L88.0042 773.551 L52.3562 773.551 L52.3562 767.662 L57.8944 767.662 Q54.6797 765.562 53.0883 762.729 Q51.4968 759.864 51.4968 756.141 Q51.4968 749.998 55.3163 746.847 Q59.1038 743.696 66.4881 743.696 Z" fill="#000000" fill-rule="evenodd" fill-opacity="1" /><path clip-path="url(#clip330)" d="M 0 0 M98.8259 710.467 L103.377 710.467 L103.377 744.332 L98.8259 744.332 L98.8259 710.467 Z" fill="#000000" fill-rule="evenodd" fill-opacity="1" /><path clip-path="url(#clip330)" d="M 0 0 M57.7671 680.866 L38.479 680.866 L38.479 675.01 L88.0042 675.01 L88.0042 680.866 L82.657 680.866 Q85.8398 682.712 87.3994 685.545 Q88.9272 688.346 88.9272 692.292 Q88.9272 698.754 83.771 702.828 Q78.6147 706.87 70.212 706.87 Q61.8093 706.87 56.6531 702.828 Q51.4968 698.754 51.4968 692.292 Q51.4968 688.346 53.0564 685.545 Q54.5842 682.712 57.7671 680.866 M70.212 700.823 Q76.6732 700.823 80.3653 698.181 Q84.0256 695.507 84.0256 690.86 Q84.0256 686.213 80.3653 683.54 Q76.6732 680.866 70.212 680.866 Q63.7508 680.866 60.0905 683.54 Q56.3984 686.213 56.3984 690.86 Q56.3984 695.507 60.0905 698.181 Q63.7508 700.823 70.212 700.823 Z" fill="#000000" fill-rule="evenodd" fill-opacity="1" /><path clip-path="url(#clip330)" d="M 0 0 M52.3562 668.867 L52.3562 663.01 L88.0042 663.01 L88.0042 668.867 L52.3562 668.867 M38.479 668.867 L38.479 663.01 L45.895 663.01 L45.895 668.867 L38.479 668.867 Z" fill="#000000" fill-rule="evenodd" fill-opacity="1" /><path clip-path="url(#clip330)" d="M 0 0 M38.479 638.821 L43.3487 638.821 L43.3487 644.422 Q43.3487 647.573 44.6219 648.815 Q45.895 650.024 49.2052 650.024 L52.3562 650.024 L52.3562 640.38 L56.9077 640.38 L56.9077 650.024 L88.0042 650.024 L88.0042 655.912 L56.9077 655.912 L56.9077 661.514 L52.3562 661.514 L52.3562 655.912 L49.8736 655.912 Q43.9216 655.912 41.2162 653.143 Q38.479 650.374 38.479 644.359 L38.479 638.821 Z" fill="#000000" fill-rule="evenodd" fill-opacity="1" /><path clip-path="url(#clip330)" d="M 0 0 M38.479 614.631 L43.3487 614.631 L43.3487 620.233 Q43.3487 623.384 44.6219 624.625 Q45.895 625.835 49.2052 625.835 L52.3562 625.835 L52.3562 616.19 L56.9077 616.19 L56.9077 625.835 L88.0042 625.835 L88.0042 631.723 L56.9077 631.723 L56.9077 637.325 L52.3562 637.325 L52.3562 631.723 L49.8736 631.723 Q43.9216 631.723 41.2162 628.954 Q38.479 626.185 38.479 620.169 L38.479 614.631 Z" fill="#000000" fill-rule="evenodd" fill-opacity="1" /><polyline clip-path="url(#clip332)" style="stroke:#009af9; stroke-width:20; stroke-opacity:1; fill:none" stroke-dasharray="80, 50" points="
  237.067,85.838 921.756,1124.75 1606.45,1372.3 2291.13,1047.03 
  "/>
<path clip-path="url(#clip330)" d="
M1987.24 213.659 L2280.18 213.659 L2280.18 92.6992 L1987.24 92.6992  Z
  " fill="#ffffff" fill-rule="evenodd" fill-opacity="1"/>
<polyline clip-path="url(#clip330)" style="stroke:#000000; stroke-width:4; stroke-opacity:1; fill:none" points="
  1987.24,213.659 2280.18,213.659 2280.18,92.6992 1987.24,92.6992 1987.24,213.659 
  "/>
<polyline clip-path="url(#clip330)" style="stroke:#009af9; stroke-width:4; stroke-opacity:1; fill:none" stroke-dasharray="16, 10" points="
  2011.43,153.179 2156.58,153.179 
  "/>
<path clip-path="url(#clip330)" d="M 0 0 M2194.62 172.867 Q2192.81 177.496 2191.1 178.908 Q2189.39 180.32 2186.52 180.32 L2183.11 180.32 L2183.11 176.755 L2185.61 176.755 Q2187.37 176.755 2188.35 175.922 Q2189.32 175.089 2190.5 171.987 L2191.26 170.043 L2180.78 144.533 L2185.29 144.533 L2193.39 164.811 L2201.49 144.533 L2206.01 144.533 L2194.62 172.867 Z" fill="#000000" fill-rule="evenodd" fill-opacity="1" /><path clip-path="url(#clip330)" d="M 0 0 M2211.89 166.524 L2219.53 166.524 L2219.53 140.158 L2211.22 141.825 L2211.22 137.566 L2219.48 135.899 L2224.16 135.899 L2224.16 166.524 L2231.79 166.524 L2231.79 170.459 L2211.89 170.459 L2211.89 166.524 Z" fill="#000000" fill-rule="evenodd" fill-opacity="1" /></svg>
