<?xml version="1.0" encoding="utf-8"?>
<svg xmlns="http://www.w3.org/2000/svg" xmlns:xlink="http://www.w3.org/1999/xlink" width="600" height="400" viewBox="0 0 2400 1600">
<defs>
  <clipPath id="clip080">
    <rect x="0" y="0" width="2400" height="1600"/>
  </clipPath>
</defs>
<path clip-path="url(#clip080)" d="
M0 1600 L2400 1600 L2400 0 L0 0  Z
  " fill="#ffffff" fill-rule="evenodd" fill-opacity="1"/>
<defs>
  <clipPath id="clip081">
    <rect x="480" y="0" width="1681" height="1600"/>
  </clipPath>
</defs>
<path clip-path="url(#clip080)" d="
M264.033 1410.9 L2352.76 1410.9 L2352.76 47.2441 L264.033 47.2441  Z
  " fill="#ffffff" fill-rule="evenodd" fill-opacity="1"/>
<defs>
  <clipPath id="clip082">
    <rect x="264" y="47" width="2090" height="1365"/>
  </clipPath>
</defs>
<polyline clip-path="url(#clip082)" style="stroke:#000000; stroke-width:2; stroke-opacity:0.1; fill:none" points="
  323.148,1410.9 323.148,47.2441 
  "/>
<polyline clip-path="url(#clip082)" style="stroke:#000000; stroke-width:2; stroke-opacity:0.1; fill:none" points="
  651.563,1410.9 651.563,47.2441 
  "/>
<polyline clip-path="url(#clip082)" style="stroke:#000000; stroke-width:2; stroke-opacity:0.1; fill:none" points="
  979.979,1410.9 979.979,47.2441 
  "/>
<polyline clip-path="url(#clip082)" style="stroke:#000000; stroke-width:2; stroke-opacity:0.1; fill:none" points="
  1308.39,1410.9 1308.39,47.2441 
  "/>
<polyline clip-path="url(#clip082)" style="stroke:#000000; stroke-width:2; stroke-opacity:0.1; fill:none" points="
  1636.81,1410.9 1636.81,47.2441 
  "/>
<polyline clip-path="url(#clip082)" style="stroke:#000000; stroke-width:2; stroke-opacity:0.1; fill:none" points="
  1965.23,1410.9 1965.23,47.2441 
  "/>
<polyline clip-path="url(#clip082)" style="stroke:#000000; stroke-width:2; stroke-opacity:0.1; fill:none" points="
  2293.64,1410.9 2293.64,47.2441 
  "/>
<polyline clip-path="url(#clip080)" style="stroke:#000000; stroke-width:4; stroke-opacity:1; fill:none" points="
  264.033,1410.9 2352.76,1410.9 
  "/>
<polyline clip-path="url(#clip080)" style="stroke:#000000; stroke-width:4; stroke-opacity:1; fill:none" points="
  323.148,1410.9 323.148,1394.53 
  "/>
<polyline clip-path="url(#clip080)" style="stroke:#000000; stroke-width:4; stroke-opacity:1; fill:none" points="
  651.563,1410.9 651.563,1394.53 
  "/>
<polyline clip-path="url(#clip080)" style="stroke:#000000; stroke-width:4; stroke-opacity:1; fill:none" points="
  979.979,1410.9 979.979,1394.53 
  "/>
<polyline clip-path="url(#clip080)" style="stroke:#000000; stroke-width:4; stroke-opacity:1; fill:none" points="
  1308.39,1410.9 1308.39,1394.53 
  "/>
<polyline clip-path="url(#clip080)" style="stroke:#000000; stroke-width:4; stroke-opacity:1; fill:none" points="
  1636.81,1410.9 1636.81,1394.53 
  "/>
<polyline clip-path="url(#clip080)" style="stroke:#000000; stroke-width:4; stroke-opacity:1; fill:none" points="
  1965.23,1410.9 1965.23,1394.53 
  "/>
<polyline clip-path="url(#clip080)" style="stroke:#000000; stroke-width:4; stroke-opacity:1; fill:none" points="
  2293.64,1410.9 2293.64,1394.53 
  "/>
<path clip-path="url(#clip080)" d="M 0 0 M276.927 1489.17 L284.566 1489.17 L284.566 1462.8 L276.255 1464.47 L276.255 1460.21 L284.519 1458.54 L289.195 1458.54 L289.195 1489.17 L296.834 1489.17 L296.834 1493.1 L276.927 1493.1 L276.927 1489.17 Z" fill="#000000" fill-rule="evenodd" fill-opacity="1" /><path clip-path="url(#clip080)" d="M 0 0 M311.903 1461.62 Q308.292 1461.62 306.464 1465.19 Q304.658 1468.73 304.658 1475.86 Q304.658 1482.97 306.464 1486.53 Q308.292 1490.07 311.903 1490.07 Q315.538 1490.07 317.343 1486.53 Q319.172 1482.97 319.172 1475.86 Q319.172 1468.73 317.343 1465.19 Q315.538 1461.62 311.903 1461.62 M311.903 1457.92 Q317.714 1457.92 320.769 1462.53 Q323.848 1467.11 323.848 1475.86 Q323.848 1484.59 320.769 1489.19 Q317.714 1493.78 311.903 1493.78 Q306.093 1493.78 303.015 1489.19 Q299.959 1484.59 299.959 1475.86 Q299.959 1467.11 303.015 1462.53 Q306.093 1457.92 311.903 1457.92 Z" fill="#000000" fill-rule="evenodd" fill-opacity="1" /><path clip-path="url(#clip080)" d="M 0 0 M323.848 1452.02 L347.959 1452.02 L347.959 1455.22 L323.848 1455.22 L323.848 1452.02 Z" fill="#000000" fill-rule="evenodd" fill-opacity="1" /><path clip-path="url(#clip080)" d="M 0 0 M360.673 1450.14 Q358.115 1450.14 356.611 1451.89 Q355.125 1453.64 355.125 1456.68 Q355.125 1459.71 356.611 1461.48 Q358.115 1463.23 360.673 1463.23 Q363.231 1463.23 364.717 1461.48 Q366.222 1459.71 366.222 1456.68 Q366.222 1453.64 364.717 1451.89 Q363.231 1450.14 360.673 1450.14 M368.215 1438.23 L368.215 1441.69 Q366.786 1441.02 365.319 1440.66 Q363.871 1440.3 362.441 1440.3 Q358.68 1440.3 356.686 1442.84 Q354.711 1445.38 354.429 1450.52 Q355.539 1448.88 357.213 1448.01 Q358.887 1447.13 360.899 1447.13 Q365.131 1447.13 367.576 1449.71 Q370.04 1452.26 370.04 1456.68 Q370.04 1461.01 367.482 1463.62 Q364.924 1466.24 360.673 1466.24 Q355.802 1466.24 353.225 1462.51 Q350.649 1458.77 350.649 1451.68 Q350.649 1445.02 353.809 1441.07 Q356.968 1437.11 362.291 1437.11 Q363.72 1437.11 365.168 1437.39 Q366.635 1437.67 368.215 1438.23 Z" fill="#000000" fill-rule="evenodd" fill-opacity="1" /><path clip-path="url(#clip080)" d="M 0 0 M605.812 1489.17 L613.451 1489.17 L613.451 1462.8 L605.141 1464.47 L605.141 1460.21 L613.405 1458.54 L618.081 1458.54 L618.081 1489.17 L625.72 1489.17 L625.72 1493.1 L605.812 1493.1 L605.812 1489.17 Z" fill="#000000" fill-rule="evenodd" fill-opacity="1" /><path clip-path="url(#clip080)" d="M 0 0 M640.789 1461.62 Q637.178 1461.62 635.349 1465.19 Q633.544 1468.73 633.544 1475.86 Q633.544 1482.97 635.349 1486.53 Q637.178 1490.07 640.789 1490.07 Q644.423 1490.07 646.229 1486.53 Q648.058 1482.97 648.058 1475.86 Q648.058 1468.73 646.229 1465.19 Q644.423 1461.62 640.789 1461.62 M640.789 1457.92 Q646.599 1457.92 649.655 1462.53 Q652.734 1467.11 652.734 1475.86 Q652.734 1484.59 649.655 1489.19 Q646.599 1493.78 640.789 1493.78 Q634.979 1493.78 631.9 1489.19 Q628.845 1484.59 628.845 1475.86 Q628.845 1467.11 631.9 1462.53 Q634.979 1457.92 640.789 1457.92 Z" fill="#000000" fill-rule="evenodd" fill-opacity="1" /><path clip-path="url(#clip080)" d="M 0 0 M652.734 1452.02 L676.845 1452.02 L676.845 1455.22 L652.734 1455.22 L652.734 1452.02 Z" fill="#000000" fill-rule="evenodd" fill-opacity="1" /><path clip-path="url(#clip080)" d="M 0 0 M681.002 1437.61 L695.916 1437.61 L695.916 1440.81 L684.481 1440.81 L684.481 1447.69 Q685.309 1447.41 686.136 1447.28 Q686.964 1447.13 687.791 1447.13 Q692.493 1447.13 695.239 1449.71 Q697.985 1452.28 697.985 1456.68 Q697.985 1461.22 695.164 1463.74 Q692.343 1466.24 687.208 1466.24 Q685.44 1466.24 683.597 1465.94 Q681.773 1465.64 679.817 1465.04 L679.817 1461.22 Q681.509 1462.14 683.315 1462.59 Q685.121 1463.04 687.133 1463.04 Q690.387 1463.04 692.286 1461.33 Q694.186 1459.62 694.186 1456.68 Q694.186 1453.75 692.286 1452.04 Q690.387 1450.33 687.133 1450.33 Q685.61 1450.33 684.086 1450.67 Q682.581 1451 681.002 1451.72 L681.002 1437.61 Z" fill="#000000" fill-rule="evenodd" fill-opacity="1" /><path clip-path="url(#clip080)" d="M 0 0 M933.626 1489.17 L941.265 1489.17 L941.265 1462.8 L932.955 1464.47 L932.955 1460.21 L941.219 1458.54 L945.895 1458.54 L945.895 1489.17 L953.534 1489.17 L953.534 1493.1 L933.626 1493.1 L933.626 1489.17 Z" fill="#000000" fill-rule="evenodd" fill-opacity="1" /><path clip-path="url(#clip080)" d="M 0 0 M968.603 1461.62 Q964.992 1461.62 963.163 1465.19 Q961.358 1468.73 961.358 1475.86 Q961.358 1482.97 963.163 1486.53 Q964.992 1490.07 968.603 1490.07 Q972.237 1490.07 974.043 1486.53 Q975.871 1482.97 975.871 1475.86 Q975.871 1468.73 974.043 1465.19 Q972.237 1461.62 968.603 1461.62 M968.603 1457.92 Q974.413 1457.92 977.469 1462.53 Q980.547 1467.11 980.547 1475.86 Q980.547 1484.59 977.469 1489.19 Q974.413 1493.78 968.603 1493.78 Q962.793 1493.78 959.714 1489.19 Q956.659 1484.59 956.659 1475.86 Q956.659 1467.11 959.714 1462.53 Q962.793 1457.92 968.603 1457.92 Z" fill="#000000" fill-rule="evenodd" fill-opacity="1" /><path clip-path="url(#clip080)" d="M 0 0 M980.547 1452.02 L1004.66 1452.02 L1004.66 1455.22 L980.547 1455.22 L980.547 1452.02 Z" fill="#000000" fill-rule="evenodd" fill-opacity="1" /><path clip-path="url(#clip080)" d="M 0 0 M1019.22 1440.92 L1009.62 1455.91 L1019.22 1455.91 L1019.22 1440.92 M1018.22 1437.61 L1023 1437.61 L1023 1455.91 L1027 1455.91 L1027 1459.07 L1023 1459.07 L1023 1465.69 L1019.22 1465.69 L1019.22 1459.07 L1006.54 1459.07 L1006.54 1455.41 L1018.22 1437.61 Z" fill="#000000" fill-rule="evenodd" fill-opacity="1" /><path clip-path="url(#clip080)" d="M 0 0 M1262.5 1489.17 L1270.14 1489.17 L1270.14 1462.8 L1261.83 1464.47 L1261.83 1460.21 L1270.1 1458.54 L1274.77 1458.54 L1274.77 1489.17 L1282.41 1489.17 L1282.41 1493.1 L1262.5 1493.1 L1262.5 1489.17 Z" fill="#000000" fill-rule="evenodd" fill-opacity="1" /><path clip-path="url(#clip080)" d="M 0 0 M1297.48 1461.62 Q1293.87 1461.62 1292.04 1465.19 Q1290.23 1468.73 1290.23 1475.86 Q1290.23 1482.97 1292.04 1486.53 Q1293.87 1490.07 1297.48 1490.07 Q1301.11 1490.07 1302.92 1486.53 Q1304.75 1482.97 1304.75 1475.86 Q1304.75 1468.73 1302.92 1465.19 Q1301.11 1461.62 1297.48 1461.62 M1297.48 1457.92 Q1303.29 1457.92 1306.34 1462.53 Q1309.42 1467.11 1309.42 1475.86 Q1309.42 1484.59 1306.34 1489.19 Q1303.29 1493.78 1297.48 1493.78 Q1291.67 1493.78 1288.59 1489.19 Q1285.53 1484.59 1285.53 1475.86 Q1285.53 1467.11 1288.59 1462.53 Q1291.67 1457.92 1297.48 1457.92 Z" fill="#000000" fill-rule="evenodd" fill-opacity="1" /><path clip-path="url(#clip080)" d="M 0 0 M1309.42 1452.02 L1333.54 1452.02 L1333.54 1455.22 L1309.42 1455.22 L1309.42 1452.02 Z" fill="#000000" fill-rule="evenodd" fill-opacity="1" /><path clip-path="url(#clip080)" d="M 0 0 M1349.16 1450.55 Q1351.89 1451.14 1353.42 1452.98 Q1354.96 1454.82 1354.96 1457.53 Q1354.96 1461.69 1352.1 1463.96 Q1349.24 1466.24 1343.97 1466.24 Q1342.21 1466.24 1340.32 1465.88 Q1338.46 1465.54 1336.47 1464.85 L1336.47 1461.18 Q1338.05 1462.1 1339.93 1462.57 Q1341.81 1463.04 1343.86 1463.04 Q1347.43 1463.04 1349.3 1461.63 Q1351.18 1460.22 1351.18 1457.53 Q1351.18 1455.05 1349.43 1453.66 Q1347.7 1452.25 1344.59 1452.25 L1341.32 1452.25 L1341.32 1449.12 L1344.74 1449.12 Q1347.55 1449.12 1349.03 1448.01 Q1350.52 1446.89 1350.52 1444.78 Q1350.52 1442.62 1348.98 1441.47 Q1347.45 1440.3 1344.59 1440.3 Q1343.03 1440.3 1341.25 1440.64 Q1339.46 1440.98 1337.32 1441.69 L1337.32 1438.31 Q1339.48 1437.71 1341.36 1437.41 Q1343.26 1437.11 1344.93 1437.11 Q1349.26 1437.11 1351.78 1439.08 Q1354.3 1441.04 1354.3 1444.38 Q1354.3 1446.72 1352.96 1448.33 Q1351.63 1449.93 1349.16 1450.55 Z" fill="#000000" fill-rule="evenodd" fill-opacity="1" /><path clip-path="url(#clip080)" d="M 0 0 M1591.3 1489.17 L1598.94 1489.17 L1598.94 1462.8 L1590.63 1464.47 L1590.63 1460.21 L1598.9 1458.54 L1603.57 1458.54 L1603.57 1489.17 L1611.21 1489.17 L1611.21 1493.1 L1591.3 1493.1 L1591.3 1489.17 Z" fill="#000000" fill-rule="evenodd" fill-opacity="1" /><path clip-path="url(#clip080)" d="M 0 0 M1626.28 1461.62 Q1622.67 1461.62 1620.84 1465.19 Q1619.04 1468.73 1619.04 1475.86 Q1619.04 1482.97 1620.84 1486.53 Q1622.67 1490.07 1626.28 1490.07 Q1629.91 1490.07 1631.72 1486.53 Q1633.55 1482.97 1633.55 1475.86 Q1633.55 1468.73 1631.72 1465.19 Q1629.91 1461.62 1626.28 1461.62 M1626.28 1457.92 Q1632.09 1457.92 1635.15 1462.53 Q1638.22 1467.11 1638.22 1475.86 Q1638.22 1484.59 1635.15 1489.19 Q1632.09 1493.78 1626.28 1493.78 Q1620.47 1493.78 1617.39 1489.19 Q1614.34 1484.59 1614.34 1475.86 Q1614.34 1467.11 1617.39 1462.53 Q1620.47 1457.92 1626.28 1457.92 Z" fill="#000000" fill-rule="evenodd" fill-opacity="1" /><path clip-path="url(#clip080)" d="M 0 0 M1638.22 1452.02 L1662.34 1452.02 L1662.34 1455.22 L1638.22 1455.22 L1638.22 1452.02 Z" fill="#000000" fill-rule="evenodd" fill-opacity="1" /><path clip-path="url(#clip080)" d="M 0 0 M1669.73 1462.5 L1682.99 1462.5 L1682.99 1465.69 L1665.16 1465.69 L1665.16 1462.5 Q1667.32 1460.26 1671.04 1456.5 Q1674.79 1452.72 1675.75 1451.63 Q1677.57 1449.58 1678.29 1448.16 Q1679.02 1446.74 1679.02 1445.36 Q1679.02 1443.12 1677.44 1441.71 Q1675.88 1440.3 1673.36 1440.3 Q1671.57 1440.3 1669.58 1440.92 Q1667.6 1441.54 1665.35 1442.8 L1665.35 1438.97 Q1667.64 1438.05 1669.63 1437.58 Q1671.63 1437.11 1673.28 1437.11 Q1677.65 1437.11 1680.24 1439.29 Q1682.84 1441.47 1682.84 1445.12 Q1682.84 1446.85 1682.18 1448.41 Q1681.54 1449.95 1679.83 1452.06 Q1679.36 1452.6 1676.84 1455.22 Q1674.32 1457.81 1669.73 1462.5 Z" fill="#000000" fill-rule="evenodd" fill-opacity="1" /><path clip-path="url(#clip080)" d="M 0 0 M1919.57 1489.17 L1927.21 1489.17 L1927.21 1462.8 L1918.9 1464.47 L1918.9 1460.21 L1927.16 1458.54 L1931.84 1458.54 L1931.84 1489.17 L1939.48 1489.17 L1939.48 1493.1 L1919.57 1493.1 L1919.57 1489.17 Z" fill="#000000" fill-rule="evenodd" fill-opacity="1" /><path clip-path="url(#clip080)" d="M 0 0 M1954.55 1461.62 Q1950.93 1461.62 1949.11 1465.19 Q1947.3 1468.73 1947.3 1475.86 Q1947.3 1482.97 1949.11 1486.53 Q1950.93 1490.07 1954.55 1490.07 Q1958.18 1490.07 1959.99 1486.53 Q1961.81 1482.97 1961.81 1475.86 Q1961.81 1468.73 1959.99 1465.19 Q1958.18 1461.62 1954.55 1461.62 M1954.55 1457.92 Q1960.36 1457.92 1963.41 1462.53 Q1966.49 1467.11 1966.49 1475.86 Q1966.49 1484.59 1963.41 1489.19 Q1960.36 1493.78 1954.55 1493.78 Q1948.74 1493.78 1945.66 1489.19 Q1942.6 1484.59 1942.6 1475.86 Q1942.6 1467.11 1945.66 1462.53 Q1948.74 1457.92 1954.55 1457.92 Z" fill="#000000" fill-rule="evenodd" fill-opacity="1" /><path clip-path="url(#clip080)" d="M 0 0 M1966.49 1452.02 L1990.6 1452.02 L1990.6 1455.22 L1966.49 1455.22 L1966.49 1452.02 Z" fill="#000000" fill-rule="evenodd" fill-opacity="1" /><path clip-path="url(#clip080)" d="M 0 0 M1995.38 1462.5 L2001.59 1462.5 L2001.59 1441.07 L1994.83 1442.43 L1994.83 1438.97 L2001.55 1437.61 L2005.35 1437.61 L2005.35 1462.5 L2011.55 1462.5 L2011.55 1465.69 L1995.38 1465.69 L1995.38 1462.5 Z" fill="#000000" fill-rule="evenodd" fill-opacity="1" /><path clip-path="url(#clip080)" d="M 0 0 M2260.81 1489.17 L2268.45 1489.17 L2268.45 1462.8 L2260.14 1464.47 L2260.14 1460.21 L2268.4 1458.54 L2273.08 1458.54 L2273.08 1489.17 L2280.72 1489.17 L2280.72 1493.1 L2260.81 1493.1 L2260.81 1489.17 Z" fill="#000000" fill-rule="evenodd" fill-opacity="1" /><path clip-path="url(#clip080)" d="M 0 0 M2295.79 1461.62 Q2292.18 1461.62 2290.35 1465.19 Q2288.54 1468.73 2288.54 1475.86 Q2288.54 1482.97 2290.35 1486.53 Q2292.18 1490.07 2295.79 1490.07 Q2299.42 1490.07 2301.23 1486.53 Q2303.06 1482.97 2303.06 1475.86 Q2303.06 1468.73 2301.23 1465.19 Q2299.42 1461.62 2295.79 1461.62 M2295.79 1457.92 Q2301.6 1457.92 2304.65 1462.53 Q2307.73 1467.11 2307.73 1475.86 Q2307.73 1484.59 2304.65 1489.19 Q2301.6 1493.78 2295.79 1493.78 Q2289.98 1493.78 2286.9 1489.19 Q2283.84 1484.59 2283.84 1475.86 Q2283.84 1467.11 2286.9 1462.53 Q2289.98 1457.92 2295.79 1457.92 Z" fill="#000000" fill-rule="evenodd" fill-opacity="1" /><path clip-path="url(#clip080)" d="M 0 0 M2317.44 1440.11 Q2314.5 1440.11 2313.02 1443.01 Q2311.55 1445.89 2311.55 1451.68 Q2311.55 1457.46 2313.02 1460.35 Q2314.5 1463.23 2317.44 1463.23 Q2320.39 1463.23 2321.86 1460.35 Q2323.34 1457.46 2323.34 1451.68 Q2323.34 1445.89 2321.86 1443.01 Q2320.39 1440.11 2317.44 1440.11 M2317.44 1437.11 Q2322.16 1437.11 2324.64 1440.85 Q2327.14 1444.57 2327.14 1451.68 Q2327.14 1458.77 2324.64 1462.51 Q2322.16 1466.24 2317.44 1466.24 Q2312.72 1466.24 2310.22 1462.51 Q2307.73 1458.77 2307.73 1451.68 Q2307.73 1444.57 2310.22 1440.85 Q2312.72 1437.11 2317.44 1437.11 Z" fill="#000000" fill-rule="evenodd" fill-opacity="1" /><path clip-path="url(#clip080)" d="M 0 0 M1200.67 1526.54 L1206.88 1526.54 L1218.02 1556.46 L1229.16 1526.54 L1235.36 1526.54 L1222 1562.19 L1214.04 1562.19 L1200.67 1526.54 Z" fill="#000000" fill-rule="evenodd" fill-opacity="1" /><path clip-path="url(#clip080)" d="M 0 0 M1268.59 1573.01 L1268.59 1577.56 L1234.73 1577.56 L1234.73 1573.01 L1268.59 1573.01 Z" fill="#000000" fill-rule="evenodd" fill-opacity="1" /><path clip-path="url(#clip080)" d="M 0 0 M1300.39 1527.91 L1300.39 1533.38 Q1297.91 1532.01 1295.39 1531.34 Q1292.91 1530.64 1290.36 1530.64 Q1284.67 1530.64 1281.52 1534.27 Q1278.36 1537.87 1278.36 1544.39 Q1278.36 1550.92 1281.52 1554.55 Q1284.67 1558.14 1290.36 1558.14 Q1292.91 1558.14 1295.39 1557.47 Q1297.91 1556.77 1300.39 1555.41 L1300.39 1560.82 Q1297.94 1561.96 1295.3 1562.54 Q1292.69 1563.11 1289.73 1563.11 Q1281.67 1563.11 1276.93 1558.05 Q1272.19 1552.99 1272.19 1544.39 Q1272.19 1535.67 1276.96 1530.68 Q1281.77 1525.68 1290.11 1525.68 Q1292.81 1525.68 1295.39 1526.25 Q1297.97 1526.79 1300.39 1527.91 Z" fill="#000000" fill-rule="evenodd" fill-opacity="1" /><path clip-path="url(#clip080)" d="M 0 0 M1306.53 1512.66 L1312.39 1512.66 L1312.39 1562.19 L1306.53 1562.19 L1306.53 1512.66 Z" fill="#000000" fill-rule="evenodd" fill-opacity="1" /><path clip-path="url(#clip080)" d="M 0 0 M1332.35 1530.64 Q1327.63 1530.64 1324.9 1534.34 Q1322.16 1538 1322.16 1544.39 Q1322.16 1550.79 1324.87 1554.48 Q1327.6 1558.14 1332.35 1558.14 Q1337.02 1558.14 1339.76 1554.45 Q1342.5 1550.76 1342.5 1544.39 Q1342.5 1538.06 1339.76 1534.37 Q1337.02 1530.64 1332.35 1530.64 M1332.35 1525.68 Q1339.98 1525.68 1344.34 1530.64 Q1348.71 1535.61 1348.71 1544.39 Q1348.71 1553.15 1344.34 1558.14 Q1339.98 1563.11 1332.35 1563.11 Q1324.67 1563.11 1320.31 1558.14 Q1315.99 1553.15 1315.99 1544.39 Q1315.99 1535.61 1320.31 1530.64 Q1324.67 1525.68 1332.35 1525.68 Z" fill="#000000" fill-rule="evenodd" fill-opacity="1" /><path clip-path="url(#clip080)" d="M 0 0 M1377.57 1527.59 L1377.57 1533.13 Q1375.09 1531.85 1372.42 1531.22 Q1369.74 1530.58 1366.88 1530.58 Q1362.52 1530.58 1360.32 1531.92 Q1358.16 1533.25 1358.16 1535.93 Q1358.16 1537.96 1359.72 1539.14 Q1361.28 1540.29 1365.99 1541.34 L1367.99 1541.78 Q1374.23 1543.12 1376.84 1545.57 Q1379.48 1547.99 1379.48 1552.35 Q1379.48 1557.32 1375.54 1560.21 Q1371.62 1563.11 1364.75 1563.11 Q1361.88 1563.11 1358.76 1562.54 Q1355.68 1561.99 1352.24 1560.88 L1352.24 1554.83 Q1355.48 1556.52 1358.64 1557.38 Q1361.79 1558.21 1364.87 1558.21 Q1369.01 1558.21 1371.24 1556.81 Q1373.47 1555.37 1373.47 1552.8 Q1373.47 1550.41 1371.84 1549.14 Q1370.25 1547.86 1364.81 1546.68 L1362.77 1546.21 Q1357.33 1545.06 1354.91 1542.71 Q1352.49 1540.32 1352.49 1536.18 Q1352.49 1531.15 1356.06 1528.42 Q1359.62 1525.68 1366.18 1525.68 Q1369.43 1525.68 1372.29 1526.16 Q1375.15 1526.63 1377.57 1527.59 Z" fill="#000000" fill-rule="evenodd" fill-opacity="1" /><path clip-path="url(#clip080)" d="M 0 0 M1416.12 1542.9 L1416.12 1545.76 L1389.19 1545.76 Q1389.57 1551.81 1392.82 1554.99 Q1396.1 1558.14 1401.92 1558.14 Q1405.3 1558.14 1408.45 1557.32 Q1411.63 1556.49 1414.75 1554.83 L1414.75 1560.37 Q1411.6 1561.71 1408.29 1562.41 Q1404.98 1563.11 1401.57 1563.11 Q1393.04 1563.11 1388.05 1558.14 Q1383.08 1553.18 1383.08 1544.71 Q1383.08 1535.96 1387.79 1530.83 Q1392.53 1525.68 1400.55 1525.68 Q1407.75 1525.68 1411.92 1530.33 Q1416.12 1534.94 1416.12 1542.9 M1410.26 1541.18 Q1410.2 1536.37 1407.56 1533.51 Q1404.95 1530.64 1400.62 1530.64 Q1395.72 1530.64 1392.76 1533.41 Q1389.83 1536.18 1389.38 1541.21 L1410.26 1541.18 Z" fill="#000000" fill-rule="evenodd" fill-opacity="1" /><polyline clip-path="url(#clip082)" style="stroke:#000000; stroke-width:2; stroke-opacity:0.1; fill:none" points="
  264.033,1209.94 2352.76,1209.94 
  "/>
<polyline clip-path="url(#clip082)" style="stroke:#000000; stroke-width:2; stroke-opacity:0.1; fill:none" points="
  264.033,959.854 2352.76,959.854 
  "/>
<polyline clip-path="url(#clip082)" style="stroke:#000000; stroke-width:2; stroke-opacity:0.1; fill:none" points="
  264.033,709.769 2352.76,709.769 
  "/>
<polyline clip-path="url(#clip082)" style="stroke:#000000; stroke-width:2; stroke-opacity:0.1; fill:none" points="
  264.033,459.685 2352.76,459.685 
  "/>
<polyline clip-path="url(#clip082)" style="stroke:#000000; stroke-width:2; stroke-opacity:0.1; fill:none" points="
  264.033,209.6 2352.76,209.6 
  "/>
<polyline clip-path="url(#clip080)" style="stroke:#000000; stroke-width:4; stroke-opacity:1; fill:none" points="
  264.033,1410.9 264.033,47.2441 
  "/>
<polyline clip-path="url(#clip080)" style="stroke:#000000; stroke-width:4; stroke-opacity:1; fill:none" points="
  264.033,1209.94 289.097,1209.94 
  "/>
<polyline clip-path="url(#clip080)" style="stroke:#000000; stroke-width:4; stroke-opacity:1; fill:none" points="
  264.033,959.854 289.097,959.854 
  "/>
<polyline clip-path="url(#clip080)" style="stroke:#000000; stroke-width:4; stroke-opacity:1; fill:none" points="
  264.033,709.769 289.097,709.769 
  "/>
<polyline clip-path="url(#clip080)" style="stroke:#000000; stroke-width:4; stroke-opacity:1; fill:none" points="
  264.033,459.685 289.097,459.685 
  "/>
<polyline clip-path="url(#clip080)" style="stroke:#000000; stroke-width:4; stroke-opacity:1; fill:none" points="
  264.033,209.6 289.097,209.6 
  "/>
<path clip-path="url(#clip080)" d="M 0 0 M129.283 1195.74 Q125.672 1195.74 123.843 1199.3 Q122.038 1202.84 122.038 1209.97 Q122.038 1217.08 123.843 1220.64 Q125.672 1224.19 129.283 1224.19 Q132.917 1224.19 134.723 1220.64 Q136.552 1217.08 136.552 1209.97 Q136.552 1202.84 134.723 1199.3 Q132.917 1195.74 129.283 1195.74 M129.283 1192.03 Q135.093 1192.03 138.149 1196.64 Q141.228 1201.22 141.228 1209.97 Q141.228 1218.7 138.149 1223.31 Q135.093 1227.89 129.283 1227.89 Q123.473 1227.89 120.394 1223.31 Q117.339 1218.7 117.339 1209.97 Q117.339 1201.22 120.394 1196.64 Q123.473 1192.03 129.283 1192.03 Z" fill="#000000" fill-rule="evenodd" fill-opacity="1" /><path clip-path="url(#clip080)" d="M 0 0 M146.297 1221.34 L151.181 1221.34 L151.181 1227.22 L146.297 1227.22 L146.297 1221.34 Z" fill="#000000" fill-rule="evenodd" fill-opacity="1" /><path clip-path="url(#clip080)" d="M 0 0 M160.278 1223.28 L176.598 1223.28 L176.598 1227.22 L154.653 1227.22 L154.653 1223.28 Q157.315 1220.53 161.899 1215.9 Q166.505 1211.25 167.686 1209.9 Q169.931 1207.38 170.811 1205.64 Q171.714 1203.88 171.714 1202.2 Q171.714 1199.44 169.769 1197.7 Q167.848 1195.97 164.746 1195.97 Q162.547 1195.97 160.093 1196.73 Q157.663 1197.5 154.885 1199.05 L154.885 1194.32 Q157.709 1193.19 160.163 1192.61 Q162.616 1192.03 164.653 1192.03 Q170.024 1192.03 173.218 1194.72 Q176.413 1197.4 176.413 1201.89 Q176.413 1204.02 175.602 1205.95 Q174.815 1207.84 172.709 1210.44 Q172.13 1211.11 169.028 1214.32 Q165.927 1217.52 160.278 1223.28 Z" fill="#000000" fill-rule="evenodd" fill-opacity="1" /><path clip-path="url(#clip080)" d="M 0 0 M185.695 1223.28 L202.014 1223.28 L202.014 1227.22 L180.07 1227.22 L180.07 1223.28 Q182.732 1220.53 187.315 1215.9 Q191.922 1211.25 193.102 1209.9 Q195.348 1207.38 196.227 1205.64 Q197.13 1203.88 197.13 1202.2 Q197.13 1199.44 195.186 1197.7 Q193.264 1195.97 190.163 1195.97 Q187.963 1195.97 185.51 1196.73 Q183.079 1197.5 180.301 1199.05 L180.301 1194.32 Q183.126 1193.19 185.579 1192.61 Q188.033 1192.03 190.07 1192.03 Q195.44 1192.03 198.635 1194.72 Q201.829 1197.4 201.829 1201.89 Q201.829 1204.02 201.019 1205.95 Q200.232 1207.84 198.125 1210.44 Q197.547 1211.11 194.445 1214.32 Q191.343 1217.52 185.695 1223.28 Z" fill="#000000" fill-rule="evenodd" fill-opacity="1" /><path clip-path="url(#clip080)" d="M 0 0 M207.13 1192.66 L225.486 1192.66 L225.486 1196.59 L211.412 1196.59 L211.412 1205.07 Q212.431 1204.72 213.449 1204.56 Q214.468 1204.37 215.486 1204.37 Q221.273 1204.37 224.653 1207.54 Q228.033 1210.71 228.033 1216.13 Q228.033 1221.71 224.56 1224.81 Q221.088 1227.89 214.769 1227.89 Q212.593 1227.89 210.324 1227.52 Q208.079 1227.15 205.672 1226.41 L205.672 1221.71 Q207.755 1222.84 209.977 1223.4 Q212.199 1223.95 214.676 1223.95 Q218.681 1223.95 221.019 1221.85 Q223.357 1219.74 223.357 1216.13 Q223.357 1212.52 221.019 1210.41 Q218.681 1208.31 214.676 1208.31 Q212.801 1208.31 210.926 1208.72 Q209.074 1209.14 207.13 1210.02 L207.13 1192.66 Z" fill="#000000" fill-rule="evenodd" fill-opacity="1" /><path clip-path="url(#clip080)" d="M 0 0 M127.339 945.652 Q123.728 945.652 121.899 949.217 Q120.093 952.759 120.093 959.888 Q120.093 966.995 121.899 970.56 Q123.728 974.101 127.339 974.101 Q130.973 974.101 132.779 970.56 Q134.607 966.995 134.607 959.888 Q134.607 952.759 132.779 949.217 Q130.973 945.652 127.339 945.652 M127.339 941.949 Q133.149 941.949 136.204 946.555 Q139.283 951.138 139.283 959.888 Q139.283 968.615 136.204 973.222 Q133.149 977.805 127.339 977.805 Q121.529 977.805 118.45 973.222 Q115.394 968.615 115.394 959.888 Q115.394 951.138 118.45 946.555 Q121.529 941.949 127.339 941.949 Z" fill="#000000" fill-rule="evenodd" fill-opacity="1" /><path clip-path="url(#clip080)" d="M 0 0 M144.353 971.254 L149.237 971.254 L149.237 977.134 L144.353 977.134 L144.353 971.254 Z" fill="#000000" fill-rule="evenodd" fill-opacity="1" /><path clip-path="url(#clip080)" d="M 0 0 M158.334 973.198 L174.653 973.198 L174.653 977.134 L152.709 977.134 L152.709 973.198 Q155.371 970.444 159.954 965.814 Q164.561 961.161 165.741 959.819 Q167.987 957.296 168.866 955.56 Q169.769 953.8 169.769 952.111 Q169.769 949.356 167.825 947.62 Q165.903 945.884 162.802 945.884 Q160.603 945.884 158.149 946.648 Q155.718 947.412 152.941 948.962 L152.941 944.24 Q155.765 943.106 158.218 942.527 Q160.672 941.949 162.709 941.949 Q168.079 941.949 171.274 944.634 Q174.468 947.319 174.468 951.81 Q174.468 953.939 173.658 955.861 Q172.871 957.759 170.764 960.351 Q170.186 961.023 167.084 964.24 Q163.982 967.435 158.334 973.198 Z" fill="#000000" fill-rule="evenodd" fill-opacity="1" /><path clip-path="url(#clip080)" d="M 0 0 M193.889 958.499 Q197.246 959.217 199.121 961.486 Q201.019 963.754 201.019 967.087 Q201.019 972.203 197.5 975.004 Q193.982 977.805 187.501 977.805 Q185.325 977.805 183.01 977.365 Q180.718 976.948 178.264 976.092 L178.264 971.578 Q180.209 972.712 182.524 973.291 Q184.838 973.87 187.362 973.87 Q191.76 973.87 194.051 972.134 Q196.366 970.398 196.366 967.087 Q196.366 964.032 194.213 962.319 Q192.084 960.583 188.264 960.583 L184.237 960.583 L184.237 956.74 L188.45 956.74 Q191.899 956.74 193.727 955.374 Q195.556 953.986 195.556 951.393 Q195.556 948.731 193.658 947.319 Q191.783 945.884 188.264 945.884 Q186.343 945.884 184.144 946.3 Q181.945 946.717 179.306 947.597 L179.306 943.43 Q181.968 942.689 184.283 942.319 Q186.621 941.949 188.681 941.949 Q194.005 941.949 197.107 944.379 Q200.209 946.787 200.209 950.907 Q200.209 953.777 198.565 955.768 Q196.922 957.736 193.889 958.499 Z" fill="#000000" fill-rule="evenodd" fill-opacity="1" /><path clip-path="url(#clip080)" d="M 0 0 M216.088 945.652 Q212.477 945.652 210.649 949.217 Q208.843 952.759 208.843 959.888 Q208.843 966.995 210.649 970.56 Q212.477 974.101 216.088 974.101 Q219.723 974.101 221.528 970.56 Q223.357 966.995 223.357 959.888 Q223.357 952.759 221.528 949.217 Q219.723 945.652 216.088 945.652 M216.088 941.949 Q221.898 941.949 224.954 946.555 Q228.033 951.138 228.033 959.888 Q228.033 968.615 224.954 973.222 Q221.898 977.805 216.088 977.805 Q210.278 977.805 207.199 973.222 Q204.144 968.615 204.144 959.888 Q204.144 951.138 207.199 946.555 Q210.278 941.949 216.088 941.949 Z" fill="#000000" fill-rule="evenodd" fill-opacity="1" /><path clip-path="url(#clip080)" d="M 0 0 M128.334 695.568 Q124.723 695.568 122.894 699.133 Q121.089 702.674 121.089 709.804 Q121.089 716.91 122.894 720.475 Q124.723 724.017 128.334 724.017 Q131.968 724.017 133.774 720.475 Q135.603 716.91 135.603 709.804 Q135.603 702.674 133.774 699.133 Q131.968 695.568 128.334 695.568 M128.334 691.864 Q134.144 691.864 137.2 696.471 Q140.279 701.054 140.279 709.804 Q140.279 718.531 137.2 723.137 Q134.144 727.72 128.334 727.72 Q122.524 727.72 119.445 723.137 Q116.39 718.531 116.39 709.804 Q116.39 701.054 119.445 696.471 Q122.524 691.864 128.334 691.864 Z" fill="#000000" fill-rule="evenodd" fill-opacity="1" /><path clip-path="url(#clip080)" d="M 0 0 M145.348 721.169 L150.232 721.169 L150.232 727.049 L145.348 727.049 L145.348 721.169 Z" fill="#000000" fill-rule="evenodd" fill-opacity="1" /><path clip-path="url(#clip080)" d="M 0 0 M159.329 723.114 L175.649 723.114 L175.649 727.049 L153.704 727.049 L153.704 723.114 Q156.366 720.359 160.95 715.73 Q165.556 711.077 166.737 709.734 Q168.982 707.211 169.862 705.475 Q170.764 703.716 170.764 702.026 Q170.764 699.271 168.82 697.535 Q166.899 695.799 163.797 695.799 Q161.598 695.799 159.144 696.563 Q156.714 697.327 153.936 698.878 L153.936 694.156 Q156.76 693.021 159.214 692.443 Q161.667 691.864 163.704 691.864 Q169.075 691.864 172.269 694.549 Q175.464 697.234 175.464 701.725 Q175.464 703.855 174.653 705.776 Q173.866 707.674 171.76 710.267 Q171.181 710.938 168.079 714.156 Q164.977 717.35 159.329 723.114 Z" fill="#000000" fill-rule="evenodd" fill-opacity="1" /><path clip-path="url(#clip080)" d="M 0 0 M194.885 708.415 Q198.241 709.132 200.116 711.401 Q202.014 713.669 202.014 717.003 Q202.014 722.119 198.496 724.919 Q194.977 727.72 188.496 727.72 Q186.32 727.72 184.005 727.281 Q181.713 726.864 179.26 726.007 L179.26 721.494 Q181.204 722.628 183.519 723.206 Q185.834 723.785 188.357 723.785 Q192.755 723.785 195.047 722.049 Q197.362 720.313 197.362 717.003 Q197.362 713.947 195.209 712.234 Q193.079 710.498 189.26 710.498 L185.232 710.498 L185.232 706.656 L189.445 706.656 Q192.894 706.656 194.723 705.29 Q196.551 703.901 196.551 701.308 Q196.551 698.646 194.653 697.234 Q192.778 695.799 189.26 695.799 Q187.338 695.799 185.139 696.216 Q182.94 696.633 180.301 697.512 L180.301 693.346 Q182.963 692.605 185.278 692.234 Q187.616 691.864 189.676 691.864 Q195 691.864 198.102 694.295 Q201.204 696.702 201.204 700.822 Q201.204 703.693 199.561 705.683 Q197.917 707.651 194.885 708.415 Z" fill="#000000" fill-rule="evenodd" fill-opacity="1" /><path clip-path="url(#clip080)" d="M 0 0 M207.13 692.489 L225.486 692.489 L225.486 696.424 L211.412 696.424 L211.412 704.896 Q212.431 704.549 213.449 704.387 Q214.468 704.202 215.486 704.202 Q221.273 704.202 224.653 707.373 Q228.033 710.545 228.033 715.961 Q228.033 721.54 224.56 724.642 Q221.088 727.72 214.769 727.72 Q212.593 727.72 210.324 727.35 Q208.079 726.98 205.672 726.239 L205.672 721.54 Q207.755 722.674 209.977 723.23 Q212.199 723.785 214.676 723.785 Q218.681 723.785 221.019 721.679 Q223.357 719.572 223.357 715.961 Q223.357 712.35 221.019 710.244 Q218.681 708.137 214.676 708.137 Q212.801 708.137 210.926 708.554 Q209.074 708.97 207.13 709.85 L207.13 692.489 Z" fill="#000000" fill-rule="evenodd" fill-opacity="1" /><path clip-path="url(#clip080)" d="M 0 0 M126.205 445.483 Q122.593 445.483 120.765 449.048 Q118.959 452.59 118.959 459.719 Q118.959 466.826 120.765 470.39 Q122.593 473.932 126.205 473.932 Q129.839 473.932 131.644 470.39 Q133.473 466.826 133.473 459.719 Q133.473 452.59 131.644 449.048 Q129.839 445.483 126.205 445.483 M126.205 441.78 Q132.015 441.78 135.07 446.386 Q138.149 450.969 138.149 459.719 Q138.149 468.446 135.07 473.052 Q132.015 477.636 126.205 477.636 Q120.394 477.636 117.316 473.052 Q114.26 468.446 114.26 459.719 Q114.26 450.969 117.316 446.386 Q120.394 441.78 126.205 441.78 Z" fill="#000000" fill-rule="evenodd" fill-opacity="1" /><path clip-path="url(#clip080)" d="M 0 0 M143.218 471.085 L148.103 471.085 L148.103 476.965 L143.218 476.965 L143.218 471.085 Z" fill="#000000" fill-rule="evenodd" fill-opacity="1" /><path clip-path="url(#clip080)" d="M 0 0 M157.2 473.029 L173.519 473.029 L173.519 476.965 L151.575 476.965 L151.575 473.029 Q154.237 470.275 158.82 465.645 Q163.427 460.992 164.607 459.65 Q166.852 457.127 167.732 455.391 Q168.635 453.631 168.635 451.941 Q168.635 449.187 166.69 447.451 Q164.769 445.715 161.667 445.715 Q159.468 445.715 157.015 446.479 Q154.584 447.242 151.806 448.793 L151.806 444.071 Q154.63 442.937 157.084 442.358 Q159.538 441.78 161.575 441.78 Q166.945 441.78 170.139 444.465 Q173.334 447.15 173.334 451.641 Q173.334 453.77 172.524 455.691 Q171.737 457.59 169.63 460.182 Q169.052 460.853 165.95 464.071 Q162.848 467.265 157.2 473.029 Z" fill="#000000" fill-rule="evenodd" fill-opacity="1" /><path clip-path="url(#clip080)" d="M 0 0 M191.436 446.479 L179.63 464.928 L191.436 464.928 L191.436 446.479 M190.209 442.405 L196.088 442.405 L196.088 464.928 L201.019 464.928 L201.019 468.816 L196.088 468.816 L196.088 476.965 L191.436 476.965 L191.436 468.816 L175.834 468.816 L175.834 464.303 L190.209 442.405 Z" fill="#000000" fill-rule="evenodd" fill-opacity="1" /><path clip-path="url(#clip080)" d="M 0 0 M216.088 445.483 Q212.477 445.483 210.649 449.048 Q208.843 452.59 208.843 459.719 Q208.843 466.826 210.649 470.39 Q212.477 473.932 216.088 473.932 Q219.723 473.932 221.528 470.39 Q223.357 466.826 223.357 459.719 Q223.357 452.59 221.528 449.048 Q219.723 445.483 216.088 445.483 M216.088 441.78 Q221.898 441.78 224.954 446.386 Q228.033 450.969 228.033 459.719 Q228.033 468.446 224.954 473.052 Q221.898 477.636 216.088 477.636 Q210.278 477.636 207.199 473.052 Q204.144 468.446 204.144 459.719 Q204.144 450.969 207.199 446.386 Q210.278 441.78 216.088 441.78 Z" fill="#000000" fill-rule="evenodd" fill-opacity="1" /><path clip-path="url(#clip080)" d="M 0 0 M127.2 195.399 Q123.589 195.399 121.76 198.963 Q119.955 202.505 119.955 209.635 Q119.955 216.741 121.76 220.306 Q123.589 223.848 127.2 223.848 Q130.834 223.848 132.64 220.306 Q134.468 216.741 134.468 209.635 Q134.468 202.505 132.64 198.963 Q130.834 195.399 127.2 195.399 M127.2 191.695 Q133.01 191.695 136.066 196.301 Q139.144 200.885 139.144 209.635 Q139.144 218.362 136.066 222.968 Q133.01 227.551 127.2 227.551 Q121.39 227.551 118.311 222.968 Q115.256 218.362 115.256 209.635 Q115.256 200.885 118.311 196.301 Q121.39 191.695 127.2 191.695 Z" fill="#000000" fill-rule="evenodd" fill-opacity="1" /><path clip-path="url(#clip080)" d="M 0 0 M144.214 221 L149.098 221 L149.098 226.88 L144.214 226.88 L144.214 221 Z" fill="#000000" fill-rule="evenodd" fill-opacity="1" /><path clip-path="url(#clip080)" d="M 0 0 M158.195 222.945 L174.514 222.945 L174.514 226.88 L152.57 226.88 L152.57 222.945 Q155.232 220.19 159.815 215.561 Q164.422 210.908 165.602 209.565 Q167.848 207.042 168.727 205.306 Q169.63 203.547 169.63 201.857 Q169.63 199.102 167.686 197.366 Q165.765 195.63 162.663 195.63 Q160.464 195.63 158.01 196.394 Q155.579 197.158 152.802 198.709 L152.802 193.987 Q155.626 192.852 158.079 192.274 Q160.533 191.695 162.57 191.695 Q167.94 191.695 171.135 194.38 Q174.329 197.065 174.329 201.556 Q174.329 203.686 173.519 205.607 Q172.732 207.505 170.626 210.098 Q170.047 210.769 166.945 213.987 Q163.843 217.181 158.195 222.945 Z" fill="#000000" fill-rule="evenodd" fill-opacity="1" /><path clip-path="url(#clip080)" d="M 0 0 M192.431 196.394 L180.626 214.843 L192.431 214.843 L192.431 196.394 M191.204 192.32 L197.084 192.32 L197.084 214.843 L202.014 214.843 L202.014 218.732 L197.084 218.732 L197.084 226.88 L192.431 226.88 L192.431 218.732 L176.829 218.732 L176.829 214.218 L191.204 192.32 Z" fill="#000000" fill-rule="evenodd" fill-opacity="1" /><path clip-path="url(#clip080)" d="M 0 0 M207.13 192.32 L225.486 192.32 L225.486 196.255 L211.412 196.255 L211.412 204.727 Q212.431 204.38 213.449 204.218 Q214.468 204.033 215.486 204.033 Q221.273 204.033 224.653 207.204 Q228.033 210.375 228.033 215.792 Q228.033 221.371 224.56 224.473 Q221.088 227.551 214.769 227.551 Q212.593 227.551 210.324 227.181 Q208.079 226.811 205.672 226.07 L205.672 221.371 Q207.755 222.505 209.977 223.061 Q212.199 223.616 214.676 223.616 Q218.681 223.616 221.019 221.51 Q223.357 219.403 223.357 215.792 Q223.357 212.181 221.019 210.075 Q218.681 207.968 214.676 207.968 Q212.801 207.968 210.926 208.385 Q209.074 208.801 207.13 209.681 L207.13 192.32 Z" fill="#000000" fill-rule="evenodd" fill-opacity="1" /><path clip-path="url(#clip080)" d="M 0 0 M59.1993 815.533 Q55.2526 813.336 53.3747 810.281 Q51.4968 807.225 51.4968 803.088 Q51.4968 797.518 55.4117 794.494 Q59.2948 791.47 66.4881 791.47 L88.0042 791.47 L88.0042 797.358 L66.679 797.358 Q61.5546 797.358 59.072 799.173 Q56.5894 800.987 56.5894 804.711 Q56.5894 809.262 59.6131 811.904 Q62.6368 814.546 67.8567 814.546 L88.0042 814.546 L88.0042 820.434 L66.679 820.434 Q61.5228 820.434 59.072 822.248 Q56.5894 824.063 56.5894 827.85 Q56.5894 832.338 59.6449 834.98 Q62.6686 837.622 67.8567 837.622 L88.0042 837.622 L88.0042 843.51 L52.3562 843.51 L52.3562 837.622 L57.8944 837.622 Q54.616 835.616 53.0564 832.815 Q51.4968 830.015 51.4968 826.163 Q51.4968 822.28 53.4702 819.575 Q55.4436 816.838 59.1993 815.533 Z" fill="#000000" fill-rule="evenodd" fill-opacity="1" /><path clip-path="url(#clip080)" d="M 0 0 M52.3562 785.327 L52.3562 779.471 L88.0042 779.471 L88.0042 785.327 L52.3562 785.327 M38.479 785.327 L38.479 779.471 L45.895 779.471 L45.895 785.327 L38.479 785.327 Z" fill="#000000" fill-rule="evenodd" fill-opacity="1" /><path clip-path="url(#clip080)" d="M 0 0 M66.4881 743.696 L88.0042 743.696 L88.0042 749.552 L66.679 749.552 Q61.6183 749.552 59.1038 751.525 Q56.5894 753.499 56.5894 757.446 Q56.5894 762.188 59.6131 764.925 Q62.6368 767.662 67.8567 767.662 L88.0042 767.662 L88.0042 773.551 L52.3562 773.551 L52.3562 767.662 L57.8944 767.662 Q54.6797 765.562 53.0883 762.729 Q51.4968 759.864 51.4968 756.141 Q51.4968 749.998 55.3163 746.847 Q59.1038 743.696 66.4881 743.696 Z" fill="#000000" fill-rule="evenodd" fill-opacity="1" /><path clip-path="url(#clip080)" d="M 0 0 M98.8259 710.467 L103.377 710.467 L103.377 744.332 L98.8259 744.332 L98.8259 710.467 Z" fill="#000000" fill-rule="evenodd" fill-opacity="1" /><path clip-path="url(#clip080)" d="M 0 0 M57.7671 680.866 L38.479 680.866 L38.479 675.01 L88.0042 675.01 L88.0042 680.866 L82.657 680.866 Q85.8398 682.712 87.3994 685.545 Q88.9272 688.346 88.9272 692.292 Q88.9272 698.754 83.771 702.828 Q78.6147 706.87 70.212 706.87 Q61.8093 706.87 56.6531 702.828 Q51.4968 698.754 51.4968 692.292 Q51.4968 688.346 53.0564 685.545 Q54.5842 682.712 57.7671 680.866 M70.212 700.823 Q76.6732 700.823 80.3653 698.181 Q84.0256 695.507 84.0256 690.86 Q84.0256 686.213 80.3653 683.54 Q76.6732 680.866 70.212 680.866 Q63.7508 680.866 60.0905 683.54 Q56.3984 686.213 56.3984 690.86 Q56.3984 695.507 60.0905 698.181 Q63.7508 700.823 70.212 700.823 Z" fill="#000000" fill-rule="evenodd" fill-opacity="1" /><path clip-path="url(#clip080)" d="M 0 0 M52.3562 668.867 L52.3562 663.01 L88.0042 663.01 L88.0042 668.867 L52.3562 668.867 M38.479 668.867 L38.479 663.01 L45.895 663.01 L45.895 668.867 L38.479 668.867 Z" fill="#000000" fill-rule="evenodd" fill-opacity="1" /><path clip-path="url(#clip080)" d="M 0 0 M38.479 638.821 L43.3487 638.821 L43.3487 644.422 Q43.3487 647.573 44.6219 648.815 Q45.895 650.024 49.2052 650.024 L52.3562 650.024 L52.3562 640.38 L56.9077 640.38 L56.9077 650.024 L88.0042 650.024 L88.0042 655.912 L56.9077 655.912 L56.9077 661.514 L52.3562 661.514 L52.3562 655.912 L49.8736 655.912 Q43.9216 655.912 41.2162 653.143 Q38.479 650.374 38.479 644.359 L38.479 638.821 Z" fill="#000000" fill-rule="evenodd" fill-opacity="1" /><path clip-path="url(#clip080)" d="M 0 0 M38.479 614.631 L43.3487 614.631 L43.3487 620.233 Q43.3487 623.384 44.6219 624.625 Q45.895 625.835 49.2052 625.835 L52.3562 625.835 L52.3562 616.19 L56.9077 616.19 L56.9077 625.835 L88.0042 625.835 L88.0042 631.723 L56.9077 631.723 L56.9077 637.325 L52.3562 637.325 L52.3562 631.723 L49.8736 631.723 Q43.9216 631.723 41.2162 628.954 Q38.479 626.185 38.479 620.169 L38.479 614.631 Z" fill="#000000" fill-rule="evenodd" fill-opacity="1" /><polyline clip-path="url(#clip082)" style="stroke:#009af9; stroke-width:20; stroke-opacity:1; fill:none" stroke-dasharray="80, 50" points="
  323.148,85.838 979.979,552.814 1636.81,215.248 2293.64,1372.3 
  "/>
<path clip-path="url(#clip080)" d="
M2000.03 213.659 L2283.13 213.659 L2283.13 92.6992 L2000.03 92.6992  Z
  " fill="#ffffff" fill-rule="evenodd" fill-opacity="1"/>
<polyline clip-path="url(#clip080)" style="stroke:#000000; stroke-width:4; stroke-opacity:1; fill:none" points="
  2000.03,213.659 2283.13,213.659 2283.13,92.6992 2000.03,92.6992 2000.03,213.659 
  "/>
<polyline clip-path="url(#clip080)" style="stroke:#009af9; stroke-width:4; stroke-opacity:1; fill:none" stroke-dasharray="16, 10" points="
  2023.24,153.179 2162.49,153.179 
  "/>
<path clip-path="url(#clip080)" d="M 0 0 M2199.54 172.867 Q2197.73 177.496 2196.02 178.908 Q2194.31 180.32 2191.44 180.32 L2188.04 180.32 L2188.04 176.755 L2190.54 176.755 Q2192.29 176.755 2193.27 175.922 Q2194.24 175.089 2195.42 171.987 L2196.18 170.043 L2185.7 144.533 L2190.21 144.533 L2198.31 164.811 L2206.41 144.533 L2210.93 144.533 L2199.54 172.867 Z" fill="#000000" fill-rule="evenodd" fill-opacity="1" /><path clip-path="url(#clip080)" d="M 0 0 M2216.81 166.524 L2224.45 166.524 L2224.45 140.158 L2216.14 141.825 L2216.14 137.566 L2224.4 135.899 L2229.08 135.899 L2229.08 166.524 L2236.72 166.524 L2236.72 170.459 L2216.81 170.459 L2216.81 166.524 Z" fill="#000000" fill-rule="evenodd" fill-opacity="1" /></svg>
