<?xml version="1.0" encoding="utf-8"?>
<svg xmlns="http://www.w3.org/2000/svg" xmlns:xlink="http://www.w3.org/1999/xlink" width="600" height="400" viewBox="0 0 2400 1600">
<defs>
  <clipPath id="clip840">
    <rect x="0" y="0" width="2400" height="1600"/>
  </clipPath>
</defs>
<path clip-path="url(#clip840)" d="
M0 1600 L2400 1600 L2400 0 L0 0  Z
  " fill="#ffffff" fill-rule="evenodd" fill-opacity="1"/>
<defs>
  <clipPath id="clip841">
    <rect x="480" y="0" width="1681" height="1600"/>
  </clipPath>
</defs>
<path clip-path="url(#clip840)" d="
M238.107 1410.9 L2352.76 1410.9 L2352.76 47.2441 L238.107 47.2441  Z
  " fill="#ffffff" fill-rule="evenodd" fill-opacity="1"/>
<defs>
  <clipPath id="clip842">
    <rect x="238" y="47" width="2116" height="1365"/>
  </clipPath>
</defs>
<polyline clip-path="url(#clip842)" style="stroke:#000000; stroke-width:2; stroke-opacity:0.1; fill:none" points="
  297.955,1410.9 297.955,47.2441 
  "/>
<polyline clip-path="url(#clip842)" style="stroke:#000000; stroke-width:2; stroke-opacity:0.1; fill:none" points="
  796.693,1410.9 796.693,47.2441 
  "/>
<polyline clip-path="url(#clip842)" style="stroke:#000000; stroke-width:2; stroke-opacity:0.1; fill:none" points="
  1295.43,1410.9 1295.43,47.2441 
  "/>
<polyline clip-path="url(#clip842)" style="stroke:#000000; stroke-width:2; stroke-opacity:0.1; fill:none" points="
  1794.17,1410.9 1794.17,47.2441 
  "/>
<polyline clip-path="url(#clip842)" style="stroke:#000000; stroke-width:2; stroke-opacity:0.1; fill:none" points="
  2292.91,1410.9 2292.91,47.2441 
  "/>
<polyline clip-path="url(#clip840)" style="stroke:#000000; stroke-width:4; stroke-opacity:1; fill:none" points="
  238.107,1410.9 2352.76,1410.9 
  "/>
<polyline clip-path="url(#clip840)" style="stroke:#000000; stroke-width:4; stroke-opacity:1; fill:none" points="
  297.955,1410.9 297.955,1394.53 
  "/>
<polyline clip-path="url(#clip840)" style="stroke:#000000; stroke-width:4; stroke-opacity:1; fill:none" points="
  796.693,1410.9 796.693,1394.53 
  "/>
<polyline clip-path="url(#clip840)" style="stroke:#000000; stroke-width:4; stroke-opacity:1; fill:none" points="
  1295.43,1410.9 1295.43,1394.53 
  "/>
<polyline clip-path="url(#clip840)" style="stroke:#000000; stroke-width:4; stroke-opacity:1; fill:none" points="
  1794.17,1410.9 1794.17,1394.53 
  "/>
<polyline clip-path="url(#clip840)" style="stroke:#000000; stroke-width:4; stroke-opacity:1; fill:none" points="
  2292.91,1410.9 2292.91,1394.53 
  "/>
<path clip-path="url(#clip840)" d="M 0 0 M236.585 1489.17 L244.224 1489.17 L244.224 1462.8 L235.914 1464.47 L235.914 1460.21 L244.178 1458.54 L248.853 1458.54 L248.853 1489.17 L256.492 1489.17 L256.492 1493.1 L236.585 1493.1 L236.585 1489.17 Z" fill="#000000" fill-rule="evenodd" fill-opacity="1" /><path clip-path="url(#clip840)" d="M 0 0 M271.562 1461.62 Q267.951 1461.62 266.122 1465.19 Q264.316 1468.73 264.316 1475.86 Q264.316 1482.97 266.122 1486.53 Q267.951 1490.07 271.562 1490.07 Q275.196 1490.07 277.001 1486.53 Q278.83 1482.97 278.83 1475.86 Q278.83 1468.73 277.001 1465.19 Q275.196 1461.62 271.562 1461.62 M271.562 1457.92 Q277.372 1457.92 280.427 1462.53 Q283.506 1467.11 283.506 1475.86 Q283.506 1484.59 280.427 1489.19 Q277.372 1493.78 271.562 1493.78 Q265.752 1493.78 262.673 1489.19 Q259.617 1484.59 259.617 1475.86 Q259.617 1467.11 262.673 1462.53 Q265.752 1457.92 271.562 1457.92 Z" fill="#000000" fill-rule="evenodd" fill-opacity="1" /><path clip-path="url(#clip840)" d="M 0 0 M283.506 1452.02 L307.618 1452.02 L307.618 1455.22 L283.506 1455.22 L283.506 1452.02 Z" fill="#000000" fill-rule="evenodd" fill-opacity="1" /><path clip-path="url(#clip840)" d="M 0 0 M322.175 1440.92 L312.583 1455.91 L322.175 1455.91 L322.175 1440.92 M321.178 1437.61 L325.955 1437.61 L325.955 1455.91 L329.961 1455.91 L329.961 1459.07 L325.955 1459.07 L325.955 1465.69 L322.175 1465.69 L322.175 1459.07 L309.498 1459.07 L309.498 1455.41 L321.178 1437.61 Z" fill="#000000" fill-rule="evenodd" fill-opacity="1" /><path clip-path="url(#clip840)" d="M 0 0 M334.08 1460.92 L338.049 1460.92 L338.049 1465.69 L334.08 1465.69 L334.08 1460.92 Z" fill="#000000" fill-rule="evenodd" fill-opacity="1" /><path clip-path="url(#clip840)" d="M 0 0 M350.292 1440.11 Q347.358 1440.11 345.873 1443.01 Q344.406 1445.89 344.406 1451.68 Q344.406 1457.46 345.873 1460.35 Q347.358 1463.23 350.292 1463.23 Q353.245 1463.23 354.712 1460.35 Q356.198 1457.46 356.198 1451.68 Q356.198 1445.89 354.712 1443.01 Q353.245 1440.11 350.292 1440.11 M350.292 1437.11 Q355.013 1437.11 357.496 1440.85 Q359.997 1444.57 359.997 1451.68 Q359.997 1458.77 357.496 1462.51 Q355.013 1466.24 350.292 1466.24 Q345.572 1466.24 343.07 1462.51 Q340.588 1458.77 340.588 1451.68 Q340.588 1444.57 343.07 1440.85 Q345.572 1437.11 350.292 1437.11 Z" fill="#000000" fill-rule="evenodd" fill-opacity="1" /><path clip-path="url(#clip840)" d="M 0 0 M736.188 1489.17 L743.827 1489.17 L743.827 1462.8 L735.517 1464.47 L735.517 1460.21 L743.781 1458.54 L748.457 1458.54 L748.457 1489.17 L756.095 1489.17 L756.095 1493.1 L736.188 1493.1 L736.188 1489.17 Z" fill="#000000" fill-rule="evenodd" fill-opacity="1" /><path clip-path="url(#clip840)" d="M 0 0 M771.165 1461.62 Q767.554 1461.62 765.725 1465.19 Q763.919 1468.73 763.919 1475.86 Q763.919 1482.97 765.725 1486.53 Q767.554 1490.07 771.165 1490.07 Q774.799 1490.07 776.605 1486.53 Q778.433 1482.97 778.433 1475.86 Q778.433 1468.73 776.605 1465.19 Q774.799 1461.62 771.165 1461.62 M771.165 1457.92 Q776.975 1457.92 780.03 1462.53 Q783.109 1467.11 783.109 1475.86 Q783.109 1484.59 780.03 1489.19 Q776.975 1493.78 771.165 1493.78 Q765.355 1493.78 762.276 1489.19 Q759.22 1484.59 759.22 1475.86 Q759.22 1467.11 762.276 1462.53 Q765.355 1457.92 771.165 1457.92 Z" fill="#000000" fill-rule="evenodd" fill-opacity="1" /><path clip-path="url(#clip840)" d="M 0 0 M783.109 1452.02 L807.221 1452.02 L807.221 1455.22 L783.109 1455.22 L783.109 1452.02 Z" fill="#000000" fill-rule="evenodd" fill-opacity="1" /><path clip-path="url(#clip840)" d="M 0 0 M822.85 1450.55 Q825.577 1451.14 827.101 1452.98 Q828.643 1454.82 828.643 1457.53 Q828.643 1461.69 825.784 1463.96 Q822.925 1466.24 817.659 1466.24 Q815.891 1466.24 814.01 1465.88 Q812.148 1465.54 810.155 1464.85 L810.155 1461.18 Q811.735 1462.1 813.615 1462.57 Q815.496 1463.04 817.546 1463.04 Q821.12 1463.04 822.982 1461.63 Q824.862 1460.22 824.862 1457.53 Q824.862 1455.05 823.113 1453.66 Q821.383 1452.25 818.28 1452.25 L815.007 1452.25 L815.007 1449.12 L818.43 1449.12 Q821.233 1449.12 822.718 1448.01 Q824.204 1446.89 824.204 1444.78 Q824.204 1442.62 822.662 1441.47 Q821.138 1440.3 818.28 1440.3 Q816.719 1440.3 814.932 1440.64 Q813.145 1440.98 811.001 1441.69 L811.001 1438.31 Q813.164 1437.71 815.045 1437.41 Q816.944 1437.11 818.618 1437.11 Q822.944 1437.11 825.464 1439.08 Q827.985 1441.04 827.985 1444.38 Q827.985 1446.72 826.649 1448.33 Q825.314 1449.93 822.85 1450.55 Z" fill="#000000" fill-rule="evenodd" fill-opacity="1" /><path clip-path="url(#clip840)" d="M 0 0 M832.762 1460.92 L836.73 1460.92 L836.73 1465.69 L832.762 1465.69 L832.762 1460.92 Z" fill="#000000" fill-rule="evenodd" fill-opacity="1" /><path clip-path="url(#clip840)" d="M 0 0 M840.887 1437.61 L855.801 1437.61 L855.801 1440.81 L844.366 1440.81 L844.366 1447.69 Q845.194 1447.41 846.021 1447.28 Q846.849 1447.13 847.676 1447.13 Q852.378 1447.13 855.124 1449.71 Q857.87 1452.28 857.87 1456.68 Q857.87 1461.22 855.049 1463.74 Q852.228 1466.24 847.093 1466.24 Q845.325 1466.24 843.482 1465.94 Q841.658 1465.64 839.702 1465.04 L839.702 1461.22 Q841.394 1462.14 843.2 1462.59 Q845.006 1463.04 847.018 1463.04 Q850.272 1463.04 852.171 1461.33 Q854.071 1459.62 854.071 1456.68 Q854.071 1453.75 852.171 1452.04 Q850.272 1450.33 847.018 1450.33 Q845.495 1450.33 843.971 1450.67 Q842.466 1451 840.887 1451.72 L840.887 1437.61 Z" fill="#000000" fill-rule="evenodd" fill-opacity="1" /><path clip-path="url(#clip840)" d="M 0 0 M1234.52 1489.17 L1242.16 1489.17 L1242.16 1462.8 L1233.85 1464.47 L1233.85 1460.21 L1242.11 1458.54 L1246.79 1458.54 L1246.79 1489.17 L1254.43 1489.17 L1254.43 1493.1 L1234.52 1493.1 L1234.52 1489.17 Z" fill="#000000" fill-rule="evenodd" fill-opacity="1" /><path clip-path="url(#clip840)" d="M 0 0 M1269.5 1461.62 Q1265.89 1461.62 1264.06 1465.19 Q1262.25 1468.73 1262.25 1475.86 Q1262.25 1482.97 1264.06 1486.53 Q1265.89 1490.07 1269.5 1490.07 Q1273.13 1490.07 1274.94 1486.53 Q1276.77 1482.97 1276.77 1475.86 Q1276.77 1468.73 1274.94 1465.19 Q1273.13 1461.62 1269.5 1461.62 M1269.5 1457.92 Q1275.31 1457.92 1278.36 1462.53 Q1281.44 1467.11 1281.44 1475.86 Q1281.44 1484.59 1278.36 1489.19 Q1275.31 1493.78 1269.5 1493.78 Q1263.69 1493.78 1260.61 1489.19 Q1257.55 1484.59 1257.55 1475.86 Q1257.55 1467.11 1260.61 1462.53 Q1263.69 1457.92 1269.5 1457.92 Z" fill="#000000" fill-rule="evenodd" fill-opacity="1" /><path clip-path="url(#clip840)" d="M 0 0 M1281.44 1452.02 L1305.55 1452.02 L1305.55 1455.22 L1281.44 1455.22 L1281.44 1452.02 Z" fill="#000000" fill-rule="evenodd" fill-opacity="1" /><path clip-path="url(#clip840)" d="M 0 0 M1321.18 1450.55 Q1323.91 1451.14 1325.43 1452.98 Q1326.98 1454.82 1326.98 1457.53 Q1326.98 1461.69 1324.12 1463.96 Q1321.26 1466.24 1315.99 1466.24 Q1314.22 1466.24 1312.34 1465.88 Q1310.48 1465.54 1308.49 1464.85 L1308.49 1461.18 Q1310.07 1462.1 1311.95 1462.57 Q1313.83 1463.04 1315.88 1463.04 Q1319.45 1463.04 1321.32 1461.63 Q1323.2 1460.22 1323.2 1457.53 Q1323.2 1455.05 1321.45 1453.66 Q1319.72 1452.25 1316.61 1452.25 L1313.34 1452.25 L1313.34 1449.12 L1316.76 1449.12 Q1319.57 1449.12 1321.05 1448.01 Q1322.54 1446.89 1322.54 1444.78 Q1322.54 1442.62 1321 1441.47 Q1319.47 1440.3 1316.61 1440.3 Q1315.05 1440.3 1313.27 1440.64 Q1311.48 1440.98 1309.33 1441.69 L1309.33 1438.31 Q1311.5 1437.71 1313.38 1437.41 Q1315.28 1437.11 1316.95 1437.11 Q1321.28 1437.11 1323.8 1439.08 Q1326.32 1441.04 1326.32 1444.38 Q1326.32 1446.72 1324.98 1448.33 Q1323.65 1449.93 1321.18 1450.55 Z" fill="#000000" fill-rule="evenodd" fill-opacity="1" /><path clip-path="url(#clip840)" d="M 0 0 M1331.1 1460.92 L1335.06 1460.92 L1335.06 1465.69 L1331.1 1465.69 L1331.1 1460.92 Z" fill="#000000" fill-rule="evenodd" fill-opacity="1" /><path clip-path="url(#clip840)" d="M 0 0 M1347.31 1440.11 Q1344.37 1440.11 1342.89 1443.01 Q1341.42 1445.89 1341.42 1451.68 Q1341.42 1457.46 1342.89 1460.35 Q1344.37 1463.23 1347.31 1463.23 Q1350.26 1463.23 1351.73 1460.35 Q1353.21 1457.46 1353.21 1451.68 Q1353.21 1445.89 1351.73 1443.01 Q1350.26 1440.11 1347.31 1440.11 M1347.31 1437.11 Q1352.03 1437.11 1354.51 1440.85 Q1357.01 1444.57 1357.01 1451.68 Q1357.01 1458.77 1354.51 1462.51 Q1352.03 1466.24 1347.31 1466.24 Q1342.59 1466.24 1340.09 1462.51 Q1337.6 1458.77 1337.6 1451.68 Q1337.6 1444.57 1340.09 1440.85 Q1342.59 1437.11 1347.31 1437.11 Z" fill="#000000" fill-rule="evenodd" fill-opacity="1" /><path clip-path="url(#clip840)" d="M 0 0 M1734.05 1489.17 L1741.69 1489.17 L1741.69 1462.8 L1733.38 1464.47 L1733.38 1460.21 L1741.64 1458.54 L1746.32 1458.54 L1746.32 1489.17 L1753.96 1489.17 L1753.96 1493.1 L1734.05 1493.1 L1734.05 1489.17 Z" fill="#000000" fill-rule="evenodd" fill-opacity="1" /><path clip-path="url(#clip840)" d="M 0 0 M1769.03 1461.62 Q1765.42 1461.62 1763.59 1465.19 Q1761.78 1468.73 1761.78 1475.86 Q1761.78 1482.97 1763.59 1486.53 Q1765.42 1490.07 1769.03 1490.07 Q1772.66 1490.07 1774.47 1486.53 Q1776.29 1482.97 1776.29 1475.86 Q1776.29 1468.73 1774.47 1465.19 Q1772.66 1461.62 1769.03 1461.62 M1769.03 1457.92 Q1774.84 1457.92 1777.89 1462.53 Q1780.97 1467.11 1780.97 1475.86 Q1780.97 1484.59 1777.89 1489.19 Q1774.84 1493.78 1769.03 1493.78 Q1763.22 1493.78 1760.14 1489.19 Q1757.08 1484.59 1757.08 1475.86 Q1757.08 1467.11 1760.14 1462.53 Q1763.22 1457.92 1769.03 1457.92 Z" fill="#000000" fill-rule="evenodd" fill-opacity="1" /><path clip-path="url(#clip840)" d="M 0 0 M1780.97 1452.02 L1805.08 1452.02 L1805.08 1455.22 L1780.97 1455.22 L1780.97 1452.02 Z" fill="#000000" fill-rule="evenodd" fill-opacity="1" /><path clip-path="url(#clip840)" d="M 0 0 M1812.47 1462.5 L1825.73 1462.5 L1825.73 1465.69 L1807.9 1465.69 L1807.9 1462.5 Q1810.07 1460.26 1813.79 1456.5 Q1817.53 1452.72 1818.49 1451.63 Q1820.32 1449.58 1821.03 1448.16 Q1821.76 1446.74 1821.76 1445.36 Q1821.76 1443.12 1820.18 1441.71 Q1818.62 1440.3 1816.1 1440.3 Q1814.32 1440.3 1812.32 1440.92 Q1810.35 1441.54 1808.09 1442.8 L1808.09 1438.97 Q1810.39 1438.05 1812.38 1437.58 Q1814.37 1437.11 1816.03 1437.11 Q1820.39 1437.11 1822.99 1439.29 Q1825.58 1441.47 1825.58 1445.12 Q1825.58 1446.85 1824.92 1448.41 Q1824.28 1449.95 1822.57 1452.06 Q1822.1 1452.6 1819.58 1455.22 Q1817.06 1457.81 1812.47 1462.5 Z" fill="#000000" fill-rule="evenodd" fill-opacity="1" /><path clip-path="url(#clip840)" d="M 0 0 M1829.85 1460.92 L1833.82 1460.92 L1833.82 1465.69 L1829.85 1465.69 L1829.85 1460.92 Z" fill="#000000" fill-rule="evenodd" fill-opacity="1" /><path clip-path="url(#clip840)" d="M 0 0 M1837.98 1437.61 L1852.89 1437.61 L1852.89 1440.81 L1841.46 1440.81 L1841.46 1447.69 Q1842.28 1447.41 1843.11 1447.28 Q1843.94 1447.13 1844.77 1447.13 Q1849.47 1447.13 1852.21 1449.71 Q1854.96 1452.28 1854.96 1456.68 Q1854.96 1461.22 1852.14 1463.74 Q1849.32 1466.24 1844.18 1466.24 Q1842.42 1466.24 1840.57 1465.94 Q1838.75 1465.64 1836.79 1465.04 L1836.79 1461.22 Q1838.48 1462.14 1840.29 1462.59 Q1842.1 1463.04 1844.11 1463.04 Q1847.36 1463.04 1849.26 1461.33 Q1851.16 1459.62 1851.16 1456.68 Q1851.16 1453.75 1849.26 1452.04 Q1847.36 1450.33 1844.11 1450.33 Q1842.58 1450.33 1841.06 1450.67 Q1839.56 1451 1837.98 1451.72 L1837.98 1437.61 Z" fill="#000000" fill-rule="evenodd" fill-opacity="1" /><path clip-path="url(#clip840)" d="M 0 0 M2232.38 1489.17 L2240.02 1489.17 L2240.02 1462.8 L2231.71 1464.47 L2231.71 1460.21 L2239.98 1458.54 L2244.65 1458.54 L2244.65 1489.17 L2252.29 1489.17 L2252.29 1493.1 L2232.38 1493.1 L2232.38 1489.17 Z" fill="#000000" fill-rule="evenodd" fill-opacity="1" /><path clip-path="url(#clip840)" d="M 0 0 M2267.36 1461.62 Q2263.75 1461.62 2261.92 1465.19 Q2260.11 1468.73 2260.11 1475.86 Q2260.11 1482.97 2261.92 1486.53 Q2263.75 1490.07 2267.36 1490.07 Q2270.99 1490.07 2272.8 1486.53 Q2274.63 1482.97 2274.63 1475.86 Q2274.63 1468.73 2272.8 1465.19 Q2270.99 1461.62 2267.36 1461.62 M2267.36 1457.92 Q2273.17 1457.92 2276.23 1462.53 Q2279.3 1467.11 2279.3 1475.86 Q2279.3 1484.59 2276.23 1489.19 Q2273.17 1493.78 2267.36 1493.78 Q2261.55 1493.78 2258.47 1489.19 Q2255.42 1484.59 2255.42 1475.86 Q2255.42 1467.11 2258.47 1462.53 Q2261.55 1457.92 2267.36 1457.92 Z" fill="#000000" fill-rule="evenodd" fill-opacity="1" /><path clip-path="url(#clip840)" d="M 0 0 M2279.3 1452.02 L2303.42 1452.02 L2303.42 1455.22 L2279.3 1455.22 L2279.3 1452.02 Z" fill="#000000" fill-rule="evenodd" fill-opacity="1" /><path clip-path="url(#clip840)" d="M 0 0 M2310.81 1462.5 L2324.07 1462.5 L2324.07 1465.69 L2306.24 1465.69 L2306.24 1462.5 Q2308.4 1460.26 2312.12 1456.5 Q2315.87 1452.72 2316.83 1451.63 Q2318.65 1449.58 2319.36 1448.16 Q2320.1 1446.74 2320.1 1445.36 Q2320.1 1443.12 2318.52 1441.71 Q2316.96 1440.3 2314.44 1440.3 Q2312.65 1440.3 2310.66 1440.92 Q2308.68 1441.54 2306.43 1442.8 L2306.43 1438.97 Q2308.72 1438.05 2310.71 1437.58 Q2312.71 1437.11 2314.36 1437.11 Q2318.73 1437.11 2321.32 1439.29 Q2323.92 1441.47 2323.92 1445.12 Q2323.92 1446.85 2323.26 1448.41 Q2322.62 1449.95 2320.91 1452.06 Q2320.44 1452.6 2317.92 1455.22 Q2315.4 1457.81 2310.81 1462.5 Z" fill="#000000" fill-rule="evenodd" fill-opacity="1" /><path clip-path="url(#clip840)" d="M 0 0 M2328.19 1460.92 L2332.15 1460.92 L2332.15 1465.69 L2328.19 1465.69 L2328.19 1460.92 Z" fill="#000000" fill-rule="evenodd" fill-opacity="1" /><path clip-path="url(#clip840)" d="M 0 0 M2344.4 1440.11 Q2341.46 1440.11 2339.98 1443.01 Q2338.51 1445.89 2338.51 1451.68 Q2338.51 1457.46 2339.98 1460.35 Q2341.46 1463.23 2344.4 1463.23 Q2347.35 1463.23 2348.82 1460.35 Q2350.3 1457.46 2350.3 1451.68 Q2350.3 1445.89 2348.82 1443.01 Q2347.35 1440.11 2344.4 1440.11 M2344.4 1437.11 Q2349.12 1437.11 2351.6 1440.85 Q2354.1 1444.57 2354.1 1451.68 Q2354.1 1458.77 2351.6 1462.51 Q2349.12 1466.24 2344.4 1466.24 Q2339.68 1466.24 2337.18 1462.51 Q2334.69 1458.77 2334.69 1451.68 Q2334.69 1444.57 2337.18 1440.85 Q2339.68 1437.11 2344.4 1437.11 Z" fill="#000000" fill-rule="evenodd" fill-opacity="1" /><path clip-path="url(#clip840)" d="M 0 0 M1187.71 1526.54 L1193.91 1526.54 L1205.05 1556.46 L1216.19 1526.54 L1222.4 1526.54 L1209.03 1562.19 L1201.08 1562.19 L1187.71 1526.54 Z" fill="#000000" fill-rule="evenodd" fill-opacity="1" /><path clip-path="url(#clip840)" d="M 0 0 M1255.63 1573.01 L1255.63 1577.56 L1221.76 1577.56 L1221.76 1573.01 L1255.63 1573.01 Z" fill="#000000" fill-rule="evenodd" fill-opacity="1" /><path clip-path="url(#clip840)" d="M 0 0 M1287.43 1527.91 L1287.43 1533.38 Q1284.94 1532.01 1282.43 1531.34 Q1279.95 1530.64 1277.4 1530.64 Q1271.7 1530.64 1268.55 1534.27 Q1265.4 1537.87 1265.4 1544.39 Q1265.4 1550.92 1268.55 1554.55 Q1271.7 1558.14 1277.4 1558.14 Q1279.95 1558.14 1282.43 1557.47 Q1284.94 1556.77 1287.43 1555.41 L1287.43 1560.82 Q1284.98 1561.96 1282.33 1562.54 Q1279.72 1563.11 1276.76 1563.11 Q1268.71 1563.11 1263.97 1558.05 Q1259.23 1552.99 1259.23 1544.39 Q1259.23 1535.67 1264 1530.68 Q1268.81 1525.68 1277.15 1525.68 Q1279.85 1525.68 1282.43 1526.25 Q1285.01 1526.79 1287.43 1527.91 Z" fill="#000000" fill-rule="evenodd" fill-opacity="1" /><path clip-path="url(#clip840)" d="M 0 0 M1293.57 1512.66 L1299.43 1512.66 L1299.43 1562.19 L1293.57 1562.19 L1293.57 1512.66 Z" fill="#000000" fill-rule="evenodd" fill-opacity="1" /><path clip-path="url(#clip840)" d="M 0 0 M1319.38 1530.64 Q1314.67 1530.64 1311.93 1534.34 Q1309.2 1538 1309.2 1544.39 Q1309.2 1550.79 1311.9 1554.48 Q1314.64 1558.14 1319.38 1558.14 Q1324.06 1558.14 1326.8 1554.45 Q1329.54 1550.76 1329.54 1544.39 Q1329.54 1538.06 1326.8 1534.37 Q1324.06 1530.64 1319.38 1530.64 M1319.38 1525.68 Q1327.02 1525.68 1331.38 1530.64 Q1335.74 1535.61 1335.74 1544.39 Q1335.74 1553.15 1331.38 1558.14 Q1327.02 1563.11 1319.38 1563.11 Q1311.71 1563.11 1307.35 1558.14 Q1303.02 1553.15 1303.02 1544.39 Q1303.02 1535.61 1307.35 1530.64 Q1311.71 1525.68 1319.38 1525.68 Z" fill="#000000" fill-rule="evenodd" fill-opacity="1" /><path clip-path="url(#clip840)" d="M 0 0 M1364.61 1527.59 L1364.61 1533.13 Q1362.13 1531.85 1359.45 1531.22 Q1356.78 1530.58 1353.92 1530.58 Q1349.56 1530.58 1347.36 1531.92 Q1345.2 1533.25 1345.2 1535.93 Q1345.2 1537.96 1346.75 1539.14 Q1348.31 1540.29 1353.03 1541.34 L1355.03 1541.78 Q1361.27 1543.12 1363.88 1545.57 Q1366.52 1547.99 1366.52 1552.35 Q1366.52 1557.32 1362.57 1560.21 Q1358.66 1563.11 1351.78 1563.11 Q1348.92 1563.11 1345.8 1562.54 Q1342.71 1561.99 1339.28 1560.88 L1339.28 1554.83 Q1342.52 1556.52 1345.67 1557.38 Q1348.82 1558.21 1351.91 1558.21 Q1356.05 1558.21 1358.28 1556.81 Q1360.5 1555.37 1360.5 1552.8 Q1360.5 1550.41 1358.88 1549.14 Q1357.29 1547.86 1351.85 1546.68 L1349.81 1546.21 Q1344.37 1545.06 1341.95 1542.71 Q1339.53 1540.32 1339.53 1536.18 Q1339.53 1531.15 1343.09 1528.42 Q1346.66 1525.68 1353.22 1525.68 Q1356.46 1525.68 1359.33 1526.16 Q1362.19 1526.63 1364.61 1527.59 Z" fill="#000000" fill-rule="evenodd" fill-opacity="1" /><path clip-path="url(#clip840)" d="M 0 0 M1403.16 1542.9 L1403.16 1545.76 L1376.23 1545.76 Q1376.61 1551.81 1379.86 1554.99 Q1383.13 1558.14 1388.96 1558.14 Q1392.33 1558.14 1395.48 1557.32 Q1398.67 1556.49 1401.79 1554.83 L1401.79 1560.37 Q1398.64 1561.71 1395.33 1562.41 Q1392.02 1563.11 1388.61 1563.11 Q1380.08 1563.11 1375.08 1558.14 Q1370.12 1553.18 1370.12 1544.71 Q1370.12 1535.96 1374.83 1530.83 Q1379.57 1525.68 1387.59 1525.68 Q1394.78 1525.68 1398.95 1530.33 Q1403.16 1534.94 1403.16 1542.9 M1397.3 1541.18 Q1397.23 1536.37 1394.59 1533.51 Q1391.98 1530.64 1387.65 1530.64 Q1382.75 1530.64 1379.79 1533.41 Q1376.86 1536.18 1376.42 1541.21 L1397.3 1541.18 Z" fill="#000000" fill-rule="evenodd" fill-opacity="1" /><polyline clip-path="url(#clip842)" style="stroke:#000000; stroke-width:2; stroke-opacity:0.1; fill:none" points="
  238.107,1194.07 2352.76,1194.07 
  "/>
<polyline clip-path="url(#clip842)" style="stroke:#000000; stroke-width:2; stroke-opacity:0.1; fill:none" points="
  238.107,951.974 2352.76,951.974 
  "/>
<polyline clip-path="url(#clip842)" style="stroke:#000000; stroke-width:2; stroke-opacity:0.1; fill:none" points="
  238.107,709.877 2352.76,709.877 
  "/>
<polyline clip-path="url(#clip842)" style="stroke:#000000; stroke-width:2; stroke-opacity:0.1; fill:none" points="
  238.107,467.78 2352.76,467.78 
  "/>
<polyline clip-path="url(#clip842)" style="stroke:#000000; stroke-width:2; stroke-opacity:0.1; fill:none" points="
  238.107,225.684 2352.76,225.684 
  "/>
<polyline clip-path="url(#clip840)" style="stroke:#000000; stroke-width:4; stroke-opacity:1; fill:none" points="
  238.107,1410.9 238.107,47.2441 
  "/>
<polyline clip-path="url(#clip840)" style="stroke:#000000; stroke-width:4; stroke-opacity:1; fill:none" points="
  238.107,1194.07 263.483,1194.07 
  "/>
<polyline clip-path="url(#clip840)" style="stroke:#000000; stroke-width:4; stroke-opacity:1; fill:none" points="
  238.107,951.974 263.483,951.974 
  "/>
<polyline clip-path="url(#clip840)" style="stroke:#000000; stroke-width:4; stroke-opacity:1; fill:none" points="
  238.107,709.877 263.483,709.877 
  "/>
<polyline clip-path="url(#clip840)" style="stroke:#000000; stroke-width:4; stroke-opacity:1; fill:none" points="
  238.107,467.78 263.483,467.78 
  "/>
<polyline clip-path="url(#clip840)" style="stroke:#000000; stroke-width:4; stroke-opacity:1; fill:none" points="
  238.107,225.684 263.483,225.684 
  "/>
<path clip-path="url(#clip840)" d="M 0 0 M119.121 1176.79 L137.478 1176.79 L137.478 1180.73 L123.404 1180.73 L123.404 1189.2 Q124.422 1188.85 125.441 1188.69 Q126.459 1188.5 127.478 1188.5 Q133.265 1188.5 136.644 1191.68 Q140.024 1194.85 140.024 1200.26 Q140.024 1205.84 136.552 1208.94 Q133.08 1212.02 126.76 1212.02 Q124.584 1212.02 122.316 1211.65 Q120.07 1211.28 117.663 1210.54 L117.663 1205.84 Q119.746 1206.98 121.968 1207.53 Q124.191 1208.09 126.667 1208.09 Q130.672 1208.09 133.01 1205.98 Q135.348 1203.87 135.348 1200.26 Q135.348 1196.65 133.01 1194.55 Q130.672 1192.44 126.667 1192.44 Q124.793 1192.44 122.918 1192.86 Q121.066 1193.27 119.121 1194.15 L119.121 1176.79 Z" fill="#000000" fill-rule="evenodd" fill-opacity="1" /><path clip-path="url(#clip840)" d="M 0 0 M145.093 1205.47 L149.978 1205.47 L149.978 1211.35 L145.093 1211.35 L145.093 1205.47 Z" fill="#000000" fill-rule="evenodd" fill-opacity="1" /><path clip-path="url(#clip840)" d="M 0 0 M153.866 1176.79 L176.089 1176.79 L176.089 1178.78 L163.542 1211.35 L158.658 1211.35 L170.464 1180.73 L153.866 1180.73 L153.866 1176.79 Z" fill="#000000" fill-rule="evenodd" fill-opacity="1" /><path clip-path="url(#clip840)" d="M 0 0 M181.204 1176.79 L199.561 1176.79 L199.561 1180.73 L185.487 1180.73 L185.487 1189.2 Q186.505 1188.85 187.524 1188.69 Q188.542 1188.5 189.561 1188.5 Q195.348 1188.5 198.727 1191.68 Q202.107 1194.85 202.107 1200.26 Q202.107 1205.84 198.635 1208.94 Q195.163 1212.02 188.843 1212.02 Q186.667 1212.02 184.399 1211.65 Q182.153 1211.28 179.746 1210.54 L179.746 1205.84 Q181.829 1206.98 184.051 1207.53 Q186.274 1208.09 188.75 1208.09 Q192.755 1208.09 195.093 1205.98 Q197.431 1203.87 197.431 1200.26 Q197.431 1196.65 195.093 1194.55 Q192.755 1192.44 188.75 1192.44 Q186.876 1192.44 185.001 1192.86 Q183.149 1193.27 181.204 1194.15 L181.204 1176.79 Z" fill="#000000" fill-rule="evenodd" fill-opacity="1" /><path clip-path="url(#clip840)" d="M 0 0 M126.598 950.111 Q123.45 950.111 121.598 952.264 Q119.769 954.416 119.769 958.166 Q119.769 961.893 121.598 964.069 Q123.45 966.222 126.598 966.222 Q129.746 966.222 131.575 964.069 Q133.427 961.893 133.427 958.166 Q133.427 954.416 131.575 952.264 Q129.746 950.111 126.598 950.111 M135.88 935.458 L135.88 939.717 Q134.121 938.884 132.316 938.444 Q130.533 938.005 128.774 938.005 Q124.144 938.005 121.691 941.13 Q119.26 944.254 118.913 950.574 Q120.279 948.56 122.339 947.495 Q124.399 946.407 126.876 946.407 Q132.084 946.407 135.093 949.579 Q138.126 952.727 138.126 958.166 Q138.126 963.491 134.978 966.708 Q131.83 969.926 126.598 969.926 Q120.603 969.926 117.431 965.342 Q114.26 960.736 114.26 952.009 Q114.26 943.815 118.149 938.954 Q122.038 934.069 128.589 934.069 Q130.348 934.069 132.13 934.417 Q133.936 934.764 135.88 935.458 Z" fill="#000000" fill-rule="evenodd" fill-opacity="1" /><path clip-path="url(#clip840)" d="M 0 0 M143.195 963.375 L148.079 963.375 L148.079 969.254 L143.195 969.254 L143.195 963.375 Z" fill="#000000" fill-rule="evenodd" fill-opacity="1" /><path clip-path="url(#clip840)" d="M 0 0 M163.149 937.773 Q159.538 937.773 157.709 941.338 Q155.903 944.879 155.903 952.009 Q155.903 959.116 157.709 962.68 Q159.538 966.222 163.149 966.222 Q166.783 966.222 168.589 962.68 Q170.417 959.116 170.417 952.009 Q170.417 944.879 168.589 941.338 Q166.783 937.773 163.149 937.773 M163.149 934.069 Q168.959 934.069 172.014 938.676 Q175.093 943.259 175.093 952.009 Q175.093 960.736 172.014 965.342 Q168.959 969.926 163.149 969.926 Q157.339 969.926 154.26 965.342 Q151.204 960.736 151.204 952.009 Q151.204 943.259 154.26 938.676 Q157.339 934.069 163.149 934.069 Z" fill="#000000" fill-rule="evenodd" fill-opacity="1" /><path clip-path="url(#clip840)" d="M 0 0 M190.163 937.773 Q186.551 937.773 184.723 941.338 Q182.917 944.879 182.917 952.009 Q182.917 959.116 184.723 962.68 Q186.551 966.222 190.163 966.222 Q193.797 966.222 195.602 962.68 Q197.431 959.116 197.431 952.009 Q197.431 944.879 195.602 941.338 Q193.797 937.773 190.163 937.773 M190.163 934.069 Q195.973 934.069 199.028 938.676 Q202.107 943.259 202.107 952.009 Q202.107 960.736 199.028 965.342 Q195.973 969.926 190.163 969.926 Q184.352 969.926 181.274 965.342 Q178.218 960.736 178.218 952.009 Q178.218 943.259 181.274 938.676 Q184.352 934.069 190.163 934.069 Z" fill="#000000" fill-rule="evenodd" fill-opacity="1" /><path clip-path="url(#clip840)" d="M 0 0 M129.191 708.014 Q126.043 708.014 124.191 710.167 Q122.362 712.32 122.362 716.07 Q122.362 719.796 124.191 721.972 Q126.043 724.125 129.191 724.125 Q132.339 724.125 134.167 721.972 Q136.019 719.796 136.019 716.07 Q136.019 712.32 134.167 710.167 Q132.339 708.014 129.191 708.014 M138.473 693.361 L138.473 697.621 Q136.714 696.787 134.908 696.347 Q133.126 695.908 131.367 695.908 Q126.737 695.908 124.283 699.033 Q121.853 702.158 121.505 708.477 Q122.871 706.463 124.931 705.398 Q126.992 704.31 129.468 704.31 Q134.677 704.31 137.686 707.482 Q140.718 710.63 140.718 716.07 Q140.718 721.394 137.57 724.611 Q134.422 727.829 129.191 727.829 Q123.195 727.829 120.024 723.245 Q116.853 718.639 116.853 709.912 Q116.853 701.718 120.742 696.857 Q124.63 691.972 131.181 691.972 Q132.941 691.972 134.723 692.32 Q136.529 692.667 138.473 693.361 Z" fill="#000000" fill-rule="evenodd" fill-opacity="1" /><path clip-path="url(#clip840)" d="M 0 0 M145.788 721.278 L150.672 721.278 L150.672 727.157 L145.788 727.157 L145.788 721.278 Z" fill="#000000" fill-rule="evenodd" fill-opacity="1" /><path clip-path="url(#clip840)" d="M 0 0 M159.769 723.222 L176.089 723.222 L176.089 727.157 L154.144 727.157 L154.144 723.222 Q156.806 720.468 161.39 715.838 Q165.996 711.185 167.177 709.843 Q169.422 707.32 170.302 705.583 Q171.204 703.824 171.204 702.134 Q171.204 699.38 169.26 697.644 Q167.339 695.908 164.237 695.908 Q162.038 695.908 159.584 696.671 Q157.153 697.435 154.376 698.986 L154.376 694.264 Q157.2 693.13 159.653 692.551 Q162.107 691.972 164.144 691.972 Q169.514 691.972 172.709 694.658 Q175.903 697.343 175.903 701.833 Q175.903 703.963 175.093 705.884 Q174.306 707.783 172.2 710.375 Q171.621 711.046 168.519 714.264 Q165.417 717.458 159.769 723.222 Z" fill="#000000" fill-rule="evenodd" fill-opacity="1" /><path clip-path="url(#clip840)" d="M 0 0 M181.204 692.597 L199.561 692.597 L199.561 696.533 L185.487 696.533 L185.487 705.005 Q186.505 704.658 187.524 704.495 Q188.542 704.31 189.561 704.31 Q195.348 704.31 198.727 707.482 Q202.107 710.653 202.107 716.07 Q202.107 721.648 198.635 724.75 Q195.163 727.829 188.843 727.829 Q186.667 727.829 184.399 727.458 Q182.153 727.088 179.746 726.347 L179.746 721.648 Q181.829 722.782 184.051 723.338 Q186.274 723.894 188.75 723.894 Q192.755 723.894 195.093 721.787 Q197.431 719.681 197.431 716.07 Q197.431 712.458 195.093 710.352 Q192.755 708.245 188.75 708.245 Q186.876 708.245 185.001 708.662 Q183.149 709.079 181.204 709.958 L181.204 692.597 Z" fill="#000000" fill-rule="evenodd" fill-opacity="1" /><path clip-path="url(#clip840)" d="M 0 0 M127.593 465.917 Q124.445 465.917 122.593 468.07 Q120.765 470.223 120.765 473.973 Q120.765 477.699 122.593 479.875 Q124.445 482.028 127.593 482.028 Q130.742 482.028 132.57 479.875 Q134.422 477.699 134.422 473.973 Q134.422 470.223 132.57 468.07 Q130.742 465.917 127.593 465.917 M136.876 451.264 L136.876 455.524 Q135.117 454.69 133.311 454.25 Q131.529 453.811 129.769 453.811 Q125.14 453.811 122.686 456.936 Q120.255 460.061 119.908 466.38 Q121.274 464.366 123.334 463.301 Q125.394 462.213 127.871 462.213 Q133.08 462.213 136.089 465.385 Q139.121 468.533 139.121 473.973 Q139.121 479.297 135.973 482.514 Q132.825 485.732 127.593 485.732 Q121.598 485.732 118.427 481.148 Q115.256 476.542 115.256 467.815 Q115.256 459.621 119.144 454.76 Q123.033 449.875 129.584 449.875 Q131.343 449.875 133.126 450.223 Q134.931 450.57 136.876 451.264 Z" fill="#000000" fill-rule="evenodd" fill-opacity="1" /><path clip-path="url(#clip840)" d="M 0 0 M144.191 479.181 L149.075 479.181 L149.075 485.06 L144.191 485.06 L144.191 479.181 Z" fill="#000000" fill-rule="evenodd" fill-opacity="1" /><path clip-path="url(#clip840)" d="M 0 0 M154.19 450.5 L172.547 450.5 L172.547 454.436 L158.473 454.436 L158.473 462.908 Q159.491 462.561 160.51 462.399 Q161.528 462.213 162.547 462.213 Q168.334 462.213 171.714 465.385 Q175.093 468.556 175.093 473.973 Q175.093 479.551 171.621 482.653 Q168.149 485.732 161.829 485.732 Q159.653 485.732 157.385 485.361 Q155.14 484.991 152.732 484.25 L152.732 479.551 Q154.815 480.685 157.038 481.241 Q159.26 481.797 161.737 481.797 Q165.741 481.797 168.079 479.69 Q170.417 477.584 170.417 473.973 Q170.417 470.361 168.079 468.255 Q165.741 466.149 161.737 466.149 Q159.862 466.149 157.987 466.565 Q156.135 466.982 154.19 467.861 L154.19 450.5 Z" fill="#000000" fill-rule="evenodd" fill-opacity="1" /><path clip-path="url(#clip840)" d="M 0 0 M190.163 453.579 Q186.551 453.579 184.723 457.144 Q182.917 460.686 182.917 467.815 Q182.917 474.922 184.723 478.486 Q186.551 482.028 190.163 482.028 Q193.797 482.028 195.602 478.486 Q197.431 474.922 197.431 467.815 Q197.431 460.686 195.602 457.144 Q193.797 453.579 190.163 453.579 M190.163 449.875 Q195.973 449.875 199.028 454.482 Q202.107 459.065 202.107 467.815 Q202.107 476.542 199.028 481.148 Q195.973 485.732 190.163 485.732 Q184.352 485.732 181.274 481.148 Q178.218 476.542 178.218 467.815 Q178.218 459.065 181.274 454.482 Q184.352 449.875 190.163 449.875 Z" fill="#000000" fill-rule="evenodd" fill-opacity="1" /><path clip-path="url(#clip840)" d="M 0 0 M128.496 223.82 Q125.348 223.82 123.496 225.973 Q121.668 228.126 121.668 231.876 Q121.668 235.602 123.496 237.778 Q125.348 239.931 128.496 239.931 Q131.644 239.931 133.473 237.778 Q135.325 235.602 135.325 231.876 Q135.325 228.126 133.473 225.973 Q131.644 223.82 128.496 223.82 M137.779 209.167 L137.779 213.427 Q136.019 212.593 134.214 212.153 Q132.431 211.714 130.672 211.714 Q126.043 211.714 123.589 214.839 Q121.158 217.964 120.811 224.283 Q122.177 222.269 124.237 221.204 Q126.297 220.116 128.774 220.116 Q133.982 220.116 136.992 223.288 Q140.024 226.436 140.024 231.876 Q140.024 237.2 136.876 240.417 Q133.728 243.635 128.496 243.635 Q122.501 243.635 119.33 239.051 Q116.158 234.445 116.158 225.718 Q116.158 217.524 120.047 212.663 Q123.936 207.779 130.487 207.779 Q132.246 207.779 134.029 208.126 Q135.834 208.473 137.779 209.167 Z" fill="#000000" fill-rule="evenodd" fill-opacity="1" /><path clip-path="url(#clip840)" d="M 0 0 M145.093 237.084 L149.978 237.084 L149.978 242.964 L145.093 242.964 L145.093 237.084 Z" fill="#000000" fill-rule="evenodd" fill-opacity="1" /><path clip-path="url(#clip840)" d="M 0 0 M153.866 208.404 L176.089 208.404 L176.089 210.394 L163.542 242.964 L158.658 242.964 L170.464 212.339 L153.866 212.339 L153.866 208.404 Z" fill="#000000" fill-rule="evenodd" fill-opacity="1" /><path clip-path="url(#clip840)" d="M 0 0 M181.204 208.404 L199.561 208.404 L199.561 212.339 L185.487 212.339 L185.487 220.811 Q186.505 220.464 187.524 220.302 Q188.542 220.116 189.561 220.116 Q195.348 220.116 198.727 223.288 Q202.107 226.459 202.107 231.876 Q202.107 237.454 198.635 240.556 Q195.163 243.635 188.843 243.635 Q186.667 243.635 184.399 243.264 Q182.153 242.894 179.746 242.153 L179.746 237.454 Q181.829 238.589 184.051 239.144 Q186.274 239.7 188.75 239.7 Q192.755 239.7 195.093 237.593 Q197.431 235.487 197.431 231.876 Q197.431 228.265 195.093 226.158 Q192.755 224.052 188.75 224.052 Q186.876 224.052 185.001 224.468 Q183.149 224.885 181.204 225.765 L181.204 208.404 Z" fill="#000000" fill-rule="evenodd" fill-opacity="1" /><path clip-path="url(#clip840)" d="M 0 0 M59.1993 815.533 Q55.2526 813.336 53.3747 810.281 Q51.4968 807.225 51.4968 803.088 Q51.4968 797.518 55.4117 794.494 Q59.2948 791.47 66.4881 791.47 L88.0042 791.47 L88.0042 797.358 L66.679 797.358 Q61.5546 797.358 59.072 799.173 Q56.5894 800.987 56.5894 804.711 Q56.5894 809.262 59.6131 811.904 Q62.6368 814.546 67.8567 814.546 L88.0042 814.546 L88.0042 820.434 L66.679 820.434 Q61.5228 820.434 59.072 822.248 Q56.5894 824.063 56.5894 827.85 Q56.5894 832.338 59.6449 834.98 Q62.6686 837.622 67.8567 837.622 L88.0042 837.622 L88.0042 843.51 L52.3562 843.51 L52.3562 837.622 L57.8944 837.622 Q54.616 835.616 53.0564 832.815 Q51.4968 830.015 51.4968 826.163 Q51.4968 822.28 53.4702 819.575 Q55.4436 816.838 59.1993 815.533 Z" fill="#000000" fill-rule="evenodd" fill-opacity="1" /><path clip-path="url(#clip840)" d="M 0 0 M52.3562 785.327 L52.3562 779.471 L88.0042 779.471 L88.0042 785.327 L52.3562 785.327 M38.479 785.327 L38.479 779.471 L45.895 779.471 L45.895 785.327 L38.479 785.327 Z" fill="#000000" fill-rule="evenodd" fill-opacity="1" /><path clip-path="url(#clip840)" d="M 0 0 M66.4881 743.696 L88.0042 743.696 L88.0042 749.552 L66.679 749.552 Q61.6183 749.552 59.1038 751.525 Q56.5894 753.499 56.5894 757.446 Q56.5894 762.188 59.6131 764.925 Q62.6368 767.662 67.8567 767.662 L88.0042 767.662 L88.0042 773.551 L52.3562 773.551 L52.3562 767.662 L57.8944 767.662 Q54.6797 765.562 53.0883 762.729 Q51.4968 759.864 51.4968 756.141 Q51.4968 749.998 55.3163 746.847 Q59.1038 743.696 66.4881 743.696 Z" fill="#000000" fill-rule="evenodd" fill-opacity="1" /><path clip-path="url(#clip840)" d="M 0 0 M98.8259 710.467 L103.377 710.467 L103.377 744.332 L98.8259 744.332 L98.8259 710.467 Z" fill="#000000" fill-rule="evenodd" fill-opacity="1" /><path clip-path="url(#clip840)" d="M 0 0 M57.7671 680.866 L38.479 680.866 L38.479 675.01 L88.0042 675.01 L88.0042 680.866 L82.657 680.866 Q85.8398 682.712 87.3994 685.545 Q88.9272 688.346 88.9272 692.292 Q88.9272 698.754 83.771 702.828 Q78.6147 706.87 70.212 706.87 Q61.8093 706.87 56.6531 702.828 Q51.4968 698.754 51.4968 692.292 Q51.4968 688.346 53.0564 685.545 Q54.5842 682.712 57.7671 680.866 M70.212 700.823 Q76.6732 700.823 80.3653 698.181 Q84.0256 695.507 84.0256 690.86 Q84.0256 686.213 80.3653 683.54 Q76.6732 680.866 70.212 680.866 Q63.7508 680.866 60.0905 683.54 Q56.3984 686.213 56.3984 690.86 Q56.3984 695.507 60.0905 698.181 Q63.7508 700.823 70.212 700.823 Z" fill="#000000" fill-rule="evenodd" fill-opacity="1" /><path clip-path="url(#clip840)" d="M 0 0 M52.3562 668.867 L52.3562 663.01 L88.0042 663.01 L88.0042 668.867 L52.3562 668.867 M38.479 668.867 L38.479 663.01 L45.895 663.01 L45.895 668.867 L38.479 668.867 Z" fill="#000000" fill-rule="evenodd" fill-opacity="1" /><path clip-path="url(#clip840)" d="M 0 0 M38.479 638.821 L43.3487 638.821 L43.3487 644.422 Q43.3487 647.573 44.6219 648.815 Q45.895 650.024 49.2052 650.024 L52.3562 650.024 L52.3562 640.38 L56.9077 640.38 L56.9077 650.024 L88.0042 650.024 L88.0042 655.912 L56.9077 655.912 L56.9077 661.514 L52.3562 661.514 L52.3562 655.912 L49.8736 655.912 Q43.9216 655.912 41.2162 653.143 Q38.479 650.374 38.479 644.359 L38.479 638.821 Z" fill="#000000" fill-rule="evenodd" fill-opacity="1" /><path clip-path="url(#clip840)" d="M 0 0 M38.479 614.631 L43.3487 614.631 L43.3487 620.233 Q43.3487 623.384 44.6219 624.625 Q45.895 625.835 49.2052 625.835 L52.3562 625.835 L52.3562 616.19 L56.9077 616.19 L56.9077 625.835 L88.0042 625.835 L88.0042 631.723 L56.9077 631.723 L56.9077 637.325 L52.3562 637.325 L52.3562 631.723 L49.8736 631.723 Q43.9216 631.723 41.2162 628.954 Q38.479 626.185 38.479 620.169 L38.479 614.631 Z" fill="#000000" fill-rule="evenodd" fill-opacity="1" /><polyline clip-path="url(#clip842)" style="stroke:#009af9; stroke-width:20; stroke-opacity:1; fill:none" stroke-dasharray="80, 50" points="
  297.955,1200.57 1295.43,1372.3 2292.91,85.838 
  "/>
<path clip-path="url(#clip840)" d="
M1996.29 213.659 L2282.27 213.659 L2282.27 92.6992 L1996.29 92.6992  Z
  " fill="#ffffff" fill-rule="evenodd" fill-opacity="1"/>
<polyline clip-path="url(#clip840)" style="stroke:#000000; stroke-width:4; stroke-opacity:1; fill:none" points="
  1996.29,213.659 2282.27,213.659 2282.27,92.6992 1996.29,92.6992 1996.29,213.659 
  "/>
<polyline clip-path="url(#clip840)" style="stroke:#009af9; stroke-width:4; stroke-opacity:1; fill:none" stroke-dasharray="16, 10" points="
  2019.78,153.179 2160.76,153.179 
  "/>
<path clip-path="url(#clip840)" d="M 0 0 M2198.1 172.867 Q2196.29 177.496 2194.58 178.908 Q2192.87 180.32 2190 180.32 L2186.6 180.32 L2186.6 176.755 L2189.1 176.755 Q2190.85 176.755 2191.83 175.922 Q2192.8 175.089 2193.98 171.987 L2194.74 170.043 L2184.26 144.533 L2188.77 144.533 L2196.87 164.811 L2204.97 144.533 L2209.49 144.533 L2198.1 172.867 Z" fill="#000000" fill-rule="evenodd" fill-opacity="1" /><path clip-path="url(#clip840)" d="M 0 0 M2215.37 166.524 L2223.01 166.524 L2223.01 140.158 L2214.7 141.825 L2214.7 137.566 L2222.96 135.899 L2227.64 135.899 L2227.64 166.524 L2235.28 166.524 L2235.28 170.459 L2215.37 170.459 L2215.37 166.524 Z" fill="#000000" fill-rule="evenodd" fill-opacity="1" /></svg>
