<?xml version="1.0" encoding="utf-8"?>
<svg xmlns="http://www.w3.org/2000/svg" xmlns:xlink="http://www.w3.org/1999/xlink" width="600" height="400" viewBox="0 0 2400 1600">
<defs>
  <clipPath id="clip890">
    <rect x="0" y="0" width="2400" height="1600"/>
  </clipPath>
</defs>
<path clip-path="url(#clip890)" d="
M0 1600 L2400 1600 L2400 0 L0 0  Z
  " fill="#ffffff" fill-rule="evenodd" fill-opacity="1"/>
<defs>
  <clipPath id="clip891">
    <rect x="480" y="0" width="1681" height="1600"/>
  </clipPath>
</defs>
<path clip-path="url(#clip890)" d="
M175.445 1410.9 L2352.76 1410.9 L2352.76 47.2441 L175.445 47.2441  Z
  " fill="#ffffff" fill-rule="evenodd" fill-opacity="1"/>
<defs>
  <clipPath id="clip892">
    <rect x="175" y="47" width="2178" height="1365"/>
  </clipPath>
</defs>
<polyline clip-path="url(#clip892)" style="stroke:#000000; stroke-width:2; stroke-opacity:0.1; fill:none" points="
  237.067,1410.9 237.067,47.2441 
  "/>
<polyline clip-path="url(#clip892)" style="stroke:#000000; stroke-width:2; stroke-opacity:0.1; fill:none" points="
  750.584,1410.9 750.584,47.2441 
  "/>
<polyline clip-path="url(#clip892)" style="stroke:#000000; stroke-width:2; stroke-opacity:0.1; fill:none" points="
  1264.1,1410.9 1264.1,47.2441 
  "/>
<polyline clip-path="url(#clip892)" style="stroke:#000000; stroke-width:2; stroke-opacity:0.1; fill:none" points="
  1777.62,1410.9 1777.62,47.2441 
  "/>
<polyline clip-path="url(#clip892)" style="stroke:#000000; stroke-width:2; stroke-opacity:0.1; fill:none" points="
  2291.13,1410.9 2291.13,47.2441 
  "/>
<polyline clip-path="url(#clip890)" style="stroke:#000000; stroke-width:4; stroke-opacity:1; fill:none" points="
  175.445,1410.9 2352.76,1410.9 
  "/>
<polyline clip-path="url(#clip890)" style="stroke:#000000; stroke-width:4; stroke-opacity:1; fill:none" points="
  237.067,1410.9 237.067,1394.53 
  "/>
<polyline clip-path="url(#clip890)" style="stroke:#000000; stroke-width:4; stroke-opacity:1; fill:none" points="
  750.584,1410.9 750.584,1394.53 
  "/>
<polyline clip-path="url(#clip890)" style="stroke:#000000; stroke-width:4; stroke-opacity:1; fill:none" points="
  1264.1,1410.9 1264.1,1394.53 
  "/>
<polyline clip-path="url(#clip890)" style="stroke:#000000; stroke-width:4; stroke-opacity:1; fill:none" points="
  1777.62,1410.9 1777.62,1394.53 
  "/>
<polyline clip-path="url(#clip890)" style="stroke:#000000; stroke-width:4; stroke-opacity:1; fill:none" points="
  2291.13,1410.9 2291.13,1394.53 
  "/>
<path clip-path="url(#clip890)" d="M 0 0 M176.299 1489.17 L183.937 1489.17 L183.937 1462.8 L175.627 1464.47 L175.627 1460.21 L183.891 1458.54 L188.567 1458.54 L188.567 1489.17 L196.206 1489.17 L196.206 1493.1 L176.299 1493.1 L176.299 1489.17 Z" fill="#000000" fill-rule="evenodd" fill-opacity="1" /><path clip-path="url(#clip890)" d="M 0 0 M211.275 1461.62 Q207.664 1461.62 205.835 1465.19 Q204.03 1468.73 204.03 1475.86 Q204.03 1482.97 205.835 1486.53 Q207.664 1490.07 211.275 1490.07 Q214.909 1490.07 216.715 1486.53 Q218.544 1482.97 218.544 1475.86 Q218.544 1468.73 216.715 1465.19 Q214.909 1461.62 211.275 1461.62 M211.275 1457.92 Q217.085 1457.92 220.141 1462.53 Q223.22 1467.11 223.22 1475.86 Q223.22 1484.59 220.141 1489.19 Q217.085 1493.78 211.275 1493.78 Q205.465 1493.78 202.386 1489.19 Q199.331 1484.59 199.331 1475.86 Q199.331 1467.11 202.386 1462.53 Q205.465 1457.92 211.275 1457.92 Z" fill="#000000" fill-rule="evenodd" fill-opacity="1" /><path clip-path="url(#clip890)" d="M 0 0 M223.22 1452.02 L247.331 1452.02 L247.331 1455.22 L223.22 1455.22 L223.22 1452.02 Z" fill="#000000" fill-rule="evenodd" fill-opacity="1" /><path clip-path="url(#clip890)" d="M 0 0 M251.488 1437.61 L266.402 1437.61 L266.402 1440.81 L254.967 1440.81 L254.967 1447.69 Q255.795 1447.41 256.622 1447.28 Q257.45 1447.13 258.277 1447.13 Q262.979 1447.13 265.725 1449.71 Q268.471 1452.28 268.471 1456.68 Q268.471 1461.22 265.65 1463.74 Q262.829 1466.24 257.694 1466.24 Q255.926 1466.24 254.083 1465.94 Q252.259 1465.64 250.303 1465.04 L250.303 1461.22 Q251.996 1462.14 253.801 1462.59 Q255.607 1463.04 257.619 1463.04 Q260.873 1463.04 262.772 1461.33 Q264.672 1459.62 264.672 1456.68 Q264.672 1453.75 262.772 1452.04 Q260.873 1450.33 257.619 1450.33 Q256.096 1450.33 254.572 1450.67 Q253.068 1451 251.488 1451.72 L251.488 1437.61 Z" fill="#000000" fill-rule="evenodd" fill-opacity="1" /><path clip-path="url(#clip890)" d="M 0 0 M272.59 1460.92 L276.558 1460.92 L276.558 1465.69 L272.59 1465.69 L272.59 1460.92 Z" fill="#000000" fill-rule="evenodd" fill-opacity="1" /><path clip-path="url(#clip890)" d="M 0 0 M288.802 1440.11 Q285.868 1440.11 284.382 1443.01 Q282.915 1445.89 282.915 1451.68 Q282.915 1457.46 284.382 1460.35 Q285.868 1463.23 288.802 1463.23 Q291.755 1463.23 293.222 1460.35 Q294.708 1457.46 294.708 1451.68 Q294.708 1445.89 293.222 1443.01 Q291.755 1440.11 288.802 1440.11 M288.802 1437.11 Q293.523 1437.11 296.006 1440.85 Q298.507 1444.57 298.507 1451.68 Q298.507 1458.77 296.006 1462.51 Q293.523 1466.24 288.802 1466.24 Q284.082 1466.24 281.58 1462.51 Q279.098 1458.77 279.098 1451.68 Q279.098 1444.57 281.58 1440.85 Q284.082 1437.11 288.802 1437.11 Z" fill="#000000" fill-rule="evenodd" fill-opacity="1" /><path clip-path="url(#clip890)" d="M 0 0 M689.618 1489.17 L697.257 1489.17 L697.257 1462.8 L688.946 1464.47 L688.946 1460.21 L697.21 1458.54 L701.886 1458.54 L701.886 1489.17 L709.525 1489.17 L709.525 1493.1 L689.618 1493.1 L689.618 1489.17 Z" fill="#000000" fill-rule="evenodd" fill-opacity="1" /><path clip-path="url(#clip890)" d="M 0 0 M724.594 1461.62 Q720.983 1461.62 719.155 1465.19 Q717.349 1468.73 717.349 1475.86 Q717.349 1482.97 719.155 1486.53 Q720.983 1490.07 724.594 1490.07 Q728.229 1490.07 730.034 1486.53 Q731.863 1482.97 731.863 1475.86 Q731.863 1468.73 730.034 1465.19 Q728.229 1461.62 724.594 1461.62 M724.594 1457.92 Q730.405 1457.92 733.46 1462.53 Q736.539 1467.11 736.539 1475.86 Q736.539 1484.59 733.46 1489.19 Q730.405 1493.78 724.594 1493.78 Q718.784 1493.78 715.706 1489.19 Q712.65 1484.59 712.65 1475.86 Q712.65 1467.11 715.706 1462.53 Q718.784 1457.92 724.594 1457.92 Z" fill="#000000" fill-rule="evenodd" fill-opacity="1" /><path clip-path="url(#clip890)" d="M 0 0 M736.539 1452.02 L760.65 1452.02 L760.65 1455.22 L736.539 1455.22 L736.539 1452.02 Z" fill="#000000" fill-rule="evenodd" fill-opacity="1" /><path clip-path="url(#clip890)" d="M 0 0 M775.208 1440.92 L765.616 1455.91 L775.208 1455.91 L775.208 1440.92 M774.211 1437.61 L778.988 1437.61 L778.988 1455.91 L782.994 1455.91 L782.994 1459.07 L778.988 1459.07 L778.988 1465.69 L775.208 1465.69 L775.208 1459.07 L762.531 1459.07 L762.531 1455.41 L774.211 1437.61 Z" fill="#000000" fill-rule="evenodd" fill-opacity="1" /><path clip-path="url(#clip890)" d="M 0 0 M787.113 1460.92 L791.081 1460.92 L791.081 1465.69 L787.113 1465.69 L787.113 1460.92 Z" fill="#000000" fill-rule="evenodd" fill-opacity="1" /><path clip-path="url(#clip890)" d="M 0 0 M795.238 1437.61 L810.152 1437.61 L810.152 1440.81 L798.717 1440.81 L798.717 1447.69 Q799.545 1447.41 800.372 1447.28 Q801.2 1447.13 802.027 1447.13 Q806.729 1447.13 809.475 1449.71 Q812.221 1452.28 812.221 1456.68 Q812.221 1461.22 809.4 1463.74 Q806.579 1466.24 801.444 1466.24 Q799.677 1466.24 797.833 1465.94 Q796.009 1465.64 794.053 1465.04 L794.053 1461.22 Q795.746 1462.14 797.551 1462.59 Q799.357 1463.04 801.369 1463.04 Q804.623 1463.04 806.523 1461.33 Q808.422 1459.62 808.422 1456.68 Q808.422 1453.75 806.523 1452.04 Q804.623 1450.33 801.369 1450.33 Q799.846 1450.33 798.322 1450.67 Q796.818 1451 795.238 1451.72 L795.238 1437.61 Z" fill="#000000" fill-rule="evenodd" fill-opacity="1" /><path clip-path="url(#clip890)" d="M 0 0 M1202.73 1489.17 L1210.37 1489.17 L1210.37 1462.8 L1202.06 1464.47 L1202.06 1460.21 L1210.32 1458.54 L1215 1458.54 L1215 1489.17 L1222.64 1489.17 L1222.64 1493.1 L1202.73 1493.1 L1202.73 1489.17 Z" fill="#000000" fill-rule="evenodd" fill-opacity="1" /><path clip-path="url(#clip890)" d="M 0 0 M1237.71 1461.62 Q1234.1 1461.62 1232.27 1465.19 Q1230.46 1468.73 1230.46 1475.86 Q1230.46 1482.97 1232.27 1486.53 Q1234.1 1490.07 1237.71 1490.07 Q1241.34 1490.07 1243.15 1486.53 Q1244.98 1482.97 1244.98 1475.86 Q1244.98 1468.73 1243.15 1465.19 Q1241.34 1461.62 1237.71 1461.62 M1237.71 1457.92 Q1243.52 1457.92 1246.57 1462.53 Q1249.65 1467.11 1249.65 1475.86 Q1249.65 1484.59 1246.57 1489.19 Q1243.52 1493.78 1237.71 1493.78 Q1231.9 1493.78 1228.82 1489.19 Q1225.76 1484.59 1225.76 1475.86 Q1225.76 1467.11 1228.82 1462.53 Q1231.9 1457.92 1237.71 1457.92 Z" fill="#000000" fill-rule="evenodd" fill-opacity="1" /><path clip-path="url(#clip890)" d="M 0 0 M1249.65 1452.02 L1273.76 1452.02 L1273.76 1455.22 L1249.65 1455.22 L1249.65 1452.02 Z" fill="#000000" fill-rule="evenodd" fill-opacity="1" /><path clip-path="url(#clip890)" d="M 0 0 M1288.32 1440.92 L1278.73 1455.91 L1288.32 1455.91 L1288.32 1440.92 M1287.32 1437.61 L1292.1 1437.61 L1292.1 1455.91 L1296.11 1455.91 L1296.11 1459.07 L1292.1 1459.07 L1292.1 1465.69 L1288.32 1465.69 L1288.32 1459.07 L1275.64 1459.07 L1275.64 1455.41 L1287.32 1437.61 Z" fill="#000000" fill-rule="evenodd" fill-opacity="1" /><path clip-path="url(#clip890)" d="M 0 0 M1300.23 1460.92 L1304.19 1460.92 L1304.19 1465.69 L1300.23 1465.69 L1300.23 1460.92 Z" fill="#000000" fill-rule="evenodd" fill-opacity="1" /><path clip-path="url(#clip890)" d="M 0 0 M1316.44 1440.11 Q1313.5 1440.11 1312.02 1443.01 Q1310.55 1445.89 1310.55 1451.68 Q1310.55 1457.46 1312.02 1460.35 Q1313.5 1463.23 1316.44 1463.23 Q1319.39 1463.23 1320.86 1460.35 Q1322.34 1457.46 1322.34 1451.68 Q1322.34 1445.89 1320.86 1443.01 Q1319.39 1440.11 1316.44 1440.11 M1316.44 1437.11 Q1321.16 1437.11 1323.64 1440.85 Q1326.14 1444.57 1326.14 1451.68 Q1326.14 1458.77 1323.64 1462.51 Q1321.16 1466.24 1316.44 1466.24 Q1311.72 1466.24 1309.22 1462.51 Q1306.73 1458.77 1306.73 1451.68 Q1306.73 1444.57 1309.22 1440.85 Q1311.72 1437.11 1316.44 1437.11 Z" fill="#000000" fill-rule="evenodd" fill-opacity="1" /><path clip-path="url(#clip890)" d="M 0 0 M1717.11 1489.17 L1724.75 1489.17 L1724.75 1462.8 L1716.44 1464.47 L1716.44 1460.21 L1724.7 1458.54 L1729.38 1458.54 L1729.38 1489.17 L1737.02 1489.17 L1737.02 1493.1 L1717.11 1493.1 L1717.11 1489.17 Z" fill="#000000" fill-rule="evenodd" fill-opacity="1" /><path clip-path="url(#clip890)" d="M 0 0 M1752.09 1461.62 Q1748.48 1461.62 1746.65 1465.19 Q1744.84 1468.73 1744.84 1475.86 Q1744.84 1482.97 1746.65 1486.53 Q1748.48 1490.07 1752.09 1490.07 Q1755.72 1490.07 1757.53 1486.53 Q1759.36 1482.97 1759.36 1475.86 Q1759.36 1468.73 1757.53 1465.19 Q1755.72 1461.62 1752.09 1461.62 M1752.09 1457.92 Q1757.9 1457.92 1760.95 1462.53 Q1764.03 1467.11 1764.03 1475.86 Q1764.03 1484.59 1760.95 1489.19 Q1757.9 1493.78 1752.09 1493.78 Q1746.28 1493.78 1743.2 1489.19 Q1740.14 1484.59 1740.14 1475.86 Q1740.14 1467.11 1743.2 1462.53 Q1746.28 1457.92 1752.09 1457.92 Z" fill="#000000" fill-rule="evenodd" fill-opacity="1" /><path clip-path="url(#clip890)" d="M 0 0 M1764.03 1452.02 L1788.14 1452.02 L1788.14 1455.22 L1764.03 1455.22 L1764.03 1452.02 Z" fill="#000000" fill-rule="evenodd" fill-opacity="1" /><path clip-path="url(#clip890)" d="M 0 0 M1803.77 1450.55 Q1806.5 1451.14 1808.02 1452.98 Q1809.57 1454.82 1809.57 1457.53 Q1809.57 1461.69 1806.71 1463.96 Q1803.85 1466.24 1798.58 1466.24 Q1796.81 1466.24 1794.93 1465.88 Q1793.07 1465.54 1791.08 1464.85 L1791.08 1461.18 Q1792.66 1462.1 1794.54 1462.57 Q1796.42 1463.04 1798.47 1463.04 Q1802.04 1463.04 1803.91 1461.63 Q1805.79 1460.22 1805.79 1457.53 Q1805.79 1455.05 1804.04 1453.66 Q1802.31 1452.25 1799.2 1452.25 L1795.93 1452.25 L1795.93 1449.12 L1799.35 1449.12 Q1802.16 1449.12 1803.64 1448.01 Q1805.13 1446.89 1805.13 1444.78 Q1805.13 1442.62 1803.59 1441.47 Q1802.06 1440.3 1799.2 1440.3 Q1797.64 1440.3 1795.86 1440.64 Q1794.07 1440.98 1791.92 1441.69 L1791.92 1438.31 Q1794.09 1437.71 1795.97 1437.41 Q1797.87 1437.11 1799.54 1437.11 Q1803.87 1437.11 1806.39 1439.08 Q1808.91 1441.04 1808.91 1444.38 Q1808.91 1446.72 1807.57 1448.33 Q1806.24 1449.93 1803.77 1450.55 Z" fill="#000000" fill-rule="evenodd" fill-opacity="1" /><path clip-path="url(#clip890)" d="M 0 0 M1813.69 1460.92 L1817.65 1460.92 L1817.65 1465.69 L1813.69 1465.69 L1813.69 1460.92 Z" fill="#000000" fill-rule="evenodd" fill-opacity="1" /><path clip-path="url(#clip890)" d="M 0 0 M1821.81 1437.61 L1836.72 1437.61 L1836.72 1440.81 L1825.29 1440.81 L1825.29 1447.69 Q1826.12 1447.41 1826.94 1447.28 Q1827.77 1447.13 1828.6 1447.13 Q1833.3 1447.13 1836.05 1449.71 Q1838.79 1452.28 1838.79 1456.68 Q1838.79 1461.22 1835.97 1463.74 Q1833.15 1466.24 1828.02 1466.24 Q1826.25 1466.24 1824.41 1465.94 Q1822.58 1465.64 1820.63 1465.04 L1820.63 1461.22 Q1822.32 1462.14 1824.12 1462.59 Q1825.93 1463.04 1827.94 1463.04 Q1831.2 1463.04 1833.1 1461.33 Q1834.99 1459.62 1834.99 1456.68 Q1834.99 1453.75 1833.1 1452.04 Q1831.2 1450.33 1827.94 1450.33 Q1826.42 1450.33 1824.89 1450.67 Q1823.39 1451 1821.81 1451.72 L1821.81 1437.61 Z" fill="#000000" fill-rule="evenodd" fill-opacity="1" /><path clip-path="url(#clip890)" d="M 0 0 M2230.22 1489.17 L2237.86 1489.17 L2237.86 1462.8 L2229.55 1464.47 L2229.55 1460.21 L2237.82 1458.54 L2242.49 1458.54 L2242.49 1489.17 L2250.13 1489.17 L2250.13 1493.1 L2230.22 1493.1 L2230.22 1489.17 Z" fill="#000000" fill-rule="evenodd" fill-opacity="1" /><path clip-path="url(#clip890)" d="M 0 0 M2265.2 1461.62 Q2261.59 1461.62 2259.76 1465.19 Q2257.96 1468.73 2257.96 1475.86 Q2257.96 1482.97 2259.76 1486.53 Q2261.59 1490.07 2265.2 1490.07 Q2268.84 1490.07 2270.64 1486.53 Q2272.47 1482.97 2272.47 1475.86 Q2272.47 1468.73 2270.64 1465.19 Q2268.84 1461.62 2265.2 1461.62 M2265.2 1457.92 Q2271.01 1457.92 2274.07 1462.53 Q2277.15 1467.11 2277.15 1475.86 Q2277.15 1484.59 2274.07 1489.19 Q2271.01 1493.78 2265.2 1493.78 Q2259.39 1493.78 2256.31 1489.19 Q2253.26 1484.59 2253.26 1475.86 Q2253.26 1467.11 2256.31 1462.53 Q2259.39 1457.92 2265.2 1457.92 Z" fill="#000000" fill-rule="evenodd" fill-opacity="1" /><path clip-path="url(#clip890)" d="M 0 0 M2277.15 1452.02 L2301.26 1452.02 L2301.26 1455.22 L2277.15 1455.22 L2277.15 1452.02 Z" fill="#000000" fill-rule="evenodd" fill-opacity="1" /><path clip-path="url(#clip890)" d="M 0 0 M2316.89 1450.55 Q2319.61 1451.14 2321.14 1452.98 Q2322.68 1454.82 2322.68 1457.53 Q2322.68 1461.69 2319.82 1463.96 Q2316.96 1466.24 2311.7 1466.24 Q2309.93 1466.24 2308.05 1465.88 Q2306.18 1465.54 2304.19 1464.85 L2304.19 1461.18 Q2305.77 1462.1 2307.65 1462.57 Q2309.53 1463.04 2311.58 1463.04 Q2315.16 1463.04 2317.02 1461.63 Q2318.9 1460.22 2318.9 1457.53 Q2318.9 1455.05 2317.15 1453.66 Q2315.42 1452.25 2312.32 1452.25 L2309.04 1452.25 L2309.04 1449.12 L2312.47 1449.12 Q2315.27 1449.12 2316.75 1448.01 Q2318.24 1446.89 2318.24 1444.78 Q2318.24 1442.62 2316.7 1441.47 Q2315.17 1440.3 2312.32 1440.3 Q2310.75 1440.3 2308.97 1440.64 Q2307.18 1440.98 2305.04 1441.69 L2305.04 1438.31 Q2307.2 1437.71 2309.08 1437.41 Q2310.98 1437.11 2312.65 1437.11 Q2316.98 1437.11 2319.5 1439.08 Q2322.02 1441.04 2322.02 1444.38 Q2322.02 1446.72 2320.69 1448.33 Q2319.35 1449.93 2316.89 1450.55 Z" fill="#000000" fill-rule="evenodd" fill-opacity="1" /><path clip-path="url(#clip890)" d="M 0 0 M2326.8 1460.92 L2330.77 1460.92 L2330.77 1465.69 L2326.8 1465.69 L2326.8 1460.92 Z" fill="#000000" fill-rule="evenodd" fill-opacity="1" /><path clip-path="url(#clip890)" d="M 0 0 M2343.01 1440.11 Q2340.08 1440.11 2338.59 1443.01 Q2337.12 1445.89 2337.12 1451.68 Q2337.12 1457.46 2338.59 1460.35 Q2340.08 1463.23 2343.01 1463.23 Q2345.96 1463.23 2347.43 1460.35 Q2348.92 1457.46 2348.92 1451.68 Q2348.92 1445.89 2347.43 1443.01 Q2345.96 1440.11 2343.01 1440.11 M2343.01 1437.11 Q2347.73 1437.11 2350.21 1440.85 Q2352.71 1444.57 2352.71 1451.68 Q2352.71 1458.77 2350.21 1462.51 Q2347.73 1466.24 2343.01 1466.24 Q2338.29 1466.24 2335.79 1462.51 Q2333.31 1458.77 2333.31 1451.68 Q2333.31 1444.57 2335.79 1440.85 Q2338.29 1437.11 2343.01 1437.11 Z" fill="#000000" fill-rule="evenodd" fill-opacity="1" /><path clip-path="url(#clip890)" d="M 0 0 M1189.32 1512.66 L1195.21 1512.66 L1195.21 1541.91 L1212.68 1526.54 L1220.16 1526.54 L1201.26 1543.22 L1220.96 1562.19 L1213.32 1562.19 L1195.21 1544.78 L1195.21 1562.19 L1189.32 1562.19 L1189.32 1512.66 Z" fill="#000000" fill-rule="evenodd" fill-opacity="1" /><path clip-path="url(#clip890)" d="M 0 0 M1254.19 1573.01 L1254.19 1577.56 L1220.32 1577.56 L1220.32 1573.01 L1254.19 1573.01 Z" fill="#000000" fill-rule="evenodd" fill-opacity="1" /><path clip-path="url(#clip890)" d="M 0 0 M1274.14 1530.64 Q1269.43 1530.64 1266.69 1534.34 Q1263.96 1538 1263.96 1544.39 Q1263.96 1550.79 1266.66 1554.48 Q1269.4 1558.14 1274.14 1558.14 Q1278.82 1558.14 1281.56 1554.45 Q1284.3 1550.76 1284.3 1544.39 Q1284.3 1538.06 1281.56 1534.37 Q1278.82 1530.64 1274.14 1530.64 M1274.14 1525.68 Q1281.78 1525.68 1286.14 1530.64 Q1290.5 1535.61 1290.5 1544.39 Q1290.5 1553.15 1286.14 1558.14 Q1281.78 1563.11 1274.14 1563.11 Q1266.47 1563.11 1262.11 1558.14 Q1257.78 1553.15 1257.78 1544.39 Q1257.78 1535.61 1262.11 1530.64 Q1266.47 1525.68 1274.14 1525.68 Z" fill="#000000" fill-rule="evenodd" fill-opacity="1" /><path clip-path="url(#clip890)" d="M 0 0 M1314.69 1512.66 L1314.69 1517.53 L1309.09 1517.53 Q1305.94 1517.53 1304.7 1518.8 Q1303.49 1520.08 1303.49 1523.39 L1303.49 1526.54 L1313.13 1526.54 L1313.13 1531.09 L1303.49 1531.09 L1303.49 1562.19 L1297.6 1562.19 L1297.6 1531.09 L1292 1531.09 L1292 1526.54 L1297.6 1526.54 L1297.6 1524.05 Q1297.6 1518.1 1300.37 1515.4 Q1303.14 1512.66 1309.15 1512.66 L1314.69 1512.66 Z" fill="#000000" fill-rule="evenodd" fill-opacity="1" /><path clip-path="url(#clip890)" d="M 0 0 M1338.88 1512.66 L1338.88 1517.53 L1333.28 1517.53 Q1330.13 1517.53 1328.89 1518.8 Q1327.68 1520.08 1327.68 1523.39 L1327.68 1526.54 L1337.32 1526.54 L1337.32 1531.09 L1327.68 1531.09 L1327.68 1562.19 L1321.79 1562.19 L1321.79 1531.09 L1316.19 1531.09 L1316.19 1526.54 L1321.79 1526.54 L1321.79 1524.05 Q1321.79 1518.1 1324.56 1515.4 Q1327.33 1512.66 1333.34 1512.66 L1338.88 1512.66 Z" fill="#000000" fill-rule="evenodd" fill-opacity="1" /><polyline clip-path="url(#clip892)" style="stroke:#000000; stroke-width:2; stroke-opacity:0.1; fill:none" points="
  175.445,1117.68 2352.76,1117.68 
  "/>
<polyline clip-path="url(#clip892)" style="stroke:#000000; stroke-width:2; stroke-opacity:0.1; fill:none" points="
  175.445,788.515 2352.76,788.515 
  "/>
<polyline clip-path="url(#clip892)" style="stroke:#000000; stroke-width:2; stroke-opacity:0.1; fill:none" points="
  175.445,459.345 2352.76,459.345 
  "/>
<polyline clip-path="url(#clip892)" style="stroke:#000000; stroke-width:2; stroke-opacity:0.1; fill:none" points="
  175.445,130.175 2352.76,130.175 
  "/>
<polyline clip-path="url(#clip890)" style="stroke:#000000; stroke-width:4; stroke-opacity:1; fill:none" points="
  175.445,1410.9 175.445,47.2441 
  "/>
<polyline clip-path="url(#clip890)" style="stroke:#000000; stroke-width:4; stroke-opacity:1; fill:none" points="
  175.445,1117.68 201.573,1117.68 
  "/>
<polyline clip-path="url(#clip890)" style="stroke:#000000; stroke-width:4; stroke-opacity:1; fill:none" points="
  175.445,788.515 201.573,788.515 
  "/>
<polyline clip-path="url(#clip890)" style="stroke:#000000; stroke-width:4; stroke-opacity:1; fill:none" points="
  175.445,459.345 201.573,459.345 
  "/>
<polyline clip-path="url(#clip890)" style="stroke:#000000; stroke-width:4; stroke-opacity:1; fill:none" points="
  175.445,130.175 201.573,130.175 
  "/>
<path clip-path="url(#clip890)" d="M 0 0 M129.862 1104.48 L118.056 1122.93 L129.862 1122.93 L129.862 1104.48 M128.635 1100.4 L134.515 1100.4 L134.515 1122.93 L139.445 1122.93 L139.445 1126.82 L134.515 1126.82 L134.515 1134.96 L129.862 1134.96 L129.862 1126.82 L114.26 1126.82 L114.26 1122.3 L128.635 1100.4 Z" fill="#000000" fill-rule="evenodd" fill-opacity="1" /><path clip-path="url(#clip890)" d="M 0 0 M118.543 771.235 L136.899 771.235 L136.899 775.17 L122.825 775.17 L122.825 783.642 Q123.843 783.295 124.862 783.133 Q125.88 782.948 126.899 782.948 Q132.686 782.948 136.066 786.119 Q139.445 789.29 139.445 794.707 Q139.445 800.285 135.973 803.387 Q132.501 806.466 126.181 806.466 Q124.005 806.466 121.737 806.096 Q119.492 805.725 117.084 804.985 L117.084 800.285 Q119.168 801.42 121.39 801.975 Q123.612 802.531 126.089 802.531 Q130.093 802.531 132.431 800.424 Q134.769 798.318 134.769 794.707 Q134.769 791.096 132.431 788.989 Q130.093 786.883 126.089 786.883 Q124.214 786.883 122.339 787.299 Q120.487 787.716 118.543 788.596 L118.543 771.235 Z" fill="#000000" fill-rule="evenodd" fill-opacity="1" /><path clip-path="url(#clip890)" d="M 0 0 M127.917 457.481 Q124.769 457.481 122.918 459.634 Q121.089 461.787 121.089 465.537 Q121.089 469.264 122.918 471.44 Q124.769 473.592 127.917 473.592 Q131.066 473.592 132.894 471.44 Q134.746 469.264 134.746 465.537 Q134.746 461.787 132.894 459.634 Q131.066 457.481 127.917 457.481 M137.2 442.829 L137.2 447.088 Q135.441 446.254 133.635 445.815 Q131.853 445.375 130.093 445.375 Q125.464 445.375 123.01 448.5 Q120.58 451.625 120.232 457.944 Q121.598 455.93 123.658 454.866 Q125.718 453.778 128.195 453.778 Q133.404 453.778 136.413 456.949 Q139.445 460.097 139.445 465.537 Q139.445 470.861 136.297 474.078 Q133.149 477.296 127.917 477.296 Q121.922 477.296 118.751 472.713 Q115.58 468.106 115.58 459.379 Q115.58 451.185 119.468 446.324 Q123.357 441.44 129.908 441.44 Q131.667 441.44 133.45 441.787 Q135.255 442.134 137.2 442.829 Z" fill="#000000" fill-rule="evenodd" fill-opacity="1" /><path clip-path="url(#clip890)" d="M 0 0 M117.223 112.895 L139.445 112.895 L139.445 114.885 L126.899 147.455 L122.015 147.455 L133.82 116.83 L117.223 116.83 L117.223 112.895 Z" fill="#000000" fill-rule="evenodd" fill-opacity="1" /><path clip-path="url(#clip890)" d="M 0 0 M59.1993 815.533 Q55.2526 813.336 53.3747 810.281 Q51.4968 807.225 51.4968 803.088 Q51.4968 797.518 55.4117 794.494 Q59.2948 791.47 66.4881 791.47 L88.0042 791.47 L88.0042 797.358 L66.679 797.358 Q61.5546 797.358 59.072 799.173 Q56.5894 800.987 56.5894 804.711 Q56.5894 809.262 59.6131 811.904 Q62.6368 814.546 67.8567 814.546 L88.0042 814.546 L88.0042 820.434 L66.679 820.434 Q61.5228 820.434 59.072 822.248 Q56.5894 824.063 56.5894 827.85 Q56.5894 832.338 59.6449 834.98 Q62.6686 837.622 67.8567 837.622 L88.0042 837.622 L88.0042 843.51 L52.3562 843.51 L52.3562 837.622 L57.8944 837.622 Q54.616 835.616 53.0564 832.815 Q51.4968 830.015 51.4968 826.163 Q51.4968 822.28 53.4702 819.575 Q55.4436 816.838 59.1993 815.533 Z" fill="#000000" fill-rule="evenodd" fill-opacity="1" /><path clip-path="url(#clip890)" d="M 0 0 M52.3562 785.327 L52.3562 779.471 L88.0042 779.471 L88.0042 785.327 L52.3562 785.327 M38.479 785.327 L38.479 779.471 L45.895 779.471 L45.895 785.327 L38.479 785.327 Z" fill="#000000" fill-rule="evenodd" fill-opacity="1" /><path clip-path="url(#clip890)" d="M 0 0 M66.4881 743.696 L88.0042 743.696 L88.0042 749.552 L66.679 749.552 Q61.6183 749.552 59.1038 751.525 Q56.5894 753.499 56.5894 757.446 Q56.5894 762.188 59.6131 764.925 Q62.6368 767.662 67.8567 767.662 L88.0042 767.662 L88.0042 773.551 L52.3562 773.551 L52.3562 767.662 L57.8944 767.662 Q54.6797 765.562 53.0883 762.729 Q51.4968 759.864 51.4968 756.141 Q51.4968 749.998 55.3163 746.847 Q59.1038 743.696 66.4881 743.696 Z" fill="#000000" fill-rule="evenodd" fill-opacity="1" /><path clip-path="url(#clip890)" d="M 0 0 M98.8259 710.467 L103.377 710.467 L103.377 744.332 L98.8259 744.332 L98.8259 710.467 Z" fill="#000000" fill-rule="evenodd" fill-opacity="1" /><path clip-path="url(#clip890)" d="M 0 0 M57.7671 680.866 L38.479 680.866 L38.479 675.01 L88.0042 675.01 L88.0042 680.866 L82.657 680.866 Q85.8398 682.712 87.3994 685.545 Q88.9272 688.346 88.9272 692.292 Q88.9272 698.754 83.771 702.828 Q78.6147 706.87 70.212 706.87 Q61.8093 706.87 56.6531 702.828 Q51.4968 698.754 51.4968 692.292 Q51.4968 688.346 53.0564 685.545 Q54.5842 682.712 57.7671 680.866 M70.212 700.823 Q76.6732 700.823 80.3653 698.181 Q84.0256 695.507 84.0256 690.86 Q84.0256 686.213 80.3653 683.54 Q76.6732 680.866 70.212 680.866 Q63.7508 680.866 60.0905 683.54 Q56.3984 686.213 56.3984 690.86 Q56.3984 695.507 60.0905 698.181 Q63.7508 700.823 70.212 700.823 Z" fill="#000000" fill-rule="evenodd" fill-opacity="1" /><path clip-path="url(#clip890)" d="M 0 0 M52.3562 668.867 L52.3562 663.01 L88.0042 663.01 L88.0042 668.867 L52.3562 668.867 M38.479 668.867 L38.479 663.01 L45.895 663.01 L45.895 668.867 L38.479 668.867 Z" fill="#000000" fill-rule="evenodd" fill-opacity="1" /><path clip-path="url(#clip890)" d="M 0 0 M38.479 638.821 L43.3487 638.821 L43.3487 644.422 Q43.3487 647.573 44.6219 648.815 Q45.895 650.024 49.2052 650.024 L52.3562 650.024 L52.3562 640.38 L56.9077 640.38 L56.9077 650.024 L88.0042 650.024 L88.0042 655.912 L56.9077 655.912 L56.9077 661.514 L52.3562 661.514 L52.3562 655.912 L49.8736 655.912 Q43.9216 655.912 41.2162 653.143 Q38.479 650.374 38.479 644.359 L38.479 638.821 Z" fill="#000000" fill-rule="evenodd" fill-opacity="1" /><path clip-path="url(#clip890)" d="M 0 0 M38.479 614.631 L43.3487 614.631 L43.3487 620.233 Q43.3487 623.384 44.6219 624.625 Q45.895 625.835 49.2052 625.835 L52.3562 625.835 L52.3562 616.19 L56.9077 616.19 L56.9077 625.835 L88.0042 625.835 L88.0042 631.723 L56.9077 631.723 L56.9077 637.325 L52.3562 637.325 L52.3562 631.723 L49.8736 631.723 Q43.9216 631.723 41.2162 628.954 Q38.479 626.185 38.479 620.169 L38.479 614.631 Z" fill="#000000" fill-rule="evenodd" fill-opacity="1" /><polyline clip-path="url(#clip892)" style="stroke:#009af9; stroke-width:20; stroke-opacity:1; fill:none" stroke-dasharray="80, 50" points="
  237.067,85.838 1264.1,1372.3 2291.13,166.731 
  "/>
<path clip-path="url(#clip890)" d="
M1987.24 213.659 L2280.18 213.659 L2280.18 92.6992 L1987.24 92.6992  Z
  " fill="#ffffff" fill-rule="evenodd" fill-opacity="1"/>
<polyline clip-path="url(#clip890)" style="stroke:#000000; stroke-width:4; stroke-opacity:1; fill:none" points="
  1987.24,213.659 2280.18,213.659 2280.18,92.6992 1987.24,92.6992 1987.24,213.659 
  "/>
<polyline clip-path="url(#clip890)" style="stroke:#009af9; stroke-width:4; stroke-opacity:1; fill:none" stroke-dasharray="16, 10" points="
  2011.43,153.179 2156.58,153.179 
  "/>
<path clip-path="url(#clip890)" d="M 0 0 M2194.62 172.867 Q2192.81 177.496 2191.1 178.908 Q2189.39 180.32 2186.52 180.32 L2183.11 180.32 L2183.11 176.755 L2185.61 176.755 Q2187.37 176.755 2188.35 175.922 Q2189.32 175.089 2190.5 171.987 L2191.26 170.043 L2180.78 144.533 L2185.29 144.533 L2193.39 164.811 L2201.49 144.533 L2206.01 144.533 L2194.62 172.867 Z" fill="#000000" fill-rule="evenodd" fill-opacity="1" /><path clip-path="url(#clip890)" d="M 0 0 M2211.89 166.524 L2219.53 166.524 L2219.53 140.158 L2211.22 141.825 L2211.22 137.566 L2219.48 135.899 L2224.16 135.899 L2224.16 166.524 L2231.79 166.524 L2231.79 170.459 L2211.89 170.459 L2211.89 166.524 Z" fill="#000000" fill-rule="evenodd" fill-opacity="1" /></svg>
