<?xml version="1.0" encoding="utf-8"?>
<svg xmlns="http://www.w3.org/2000/svg" xmlns:xlink="http://www.w3.org/1999/xlink" width="600" height="400" viewBox="0 0 2400 1600">
<defs>
  <clipPath id="clip580">
    <rect x="0" y="0" width="2400" height="1600"/>
  </clipPath>
</defs>
<path clip-path="url(#clip580)" d="
M0 1600 L2400 1600 L2400 0 L0 0  Z
  " fill="#ffffff" fill-rule="evenodd" fill-opacity="1"/>
<defs>
  <clipPath id="clip581">
    <rect x="480" y="0" width="1681" height="1600"/>
  </clipPath>
</defs>
<path clip-path="url(#clip580)" d="
M199.218 1410.9 L2352.76 1410.9 L2352.76 47.2441 L199.218 47.2441  Z
  " fill="#ffffff" fill-rule="evenodd" fill-opacity="1"/>
<defs>
  <clipPath id="clip582">
    <rect x="199" y="47" width="2155" height="1365"/>
  </clipPath>
</defs>
<polyline clip-path="url(#clip582)" style="stroke:#000000; stroke-width:2; stroke-opacity:0.1; fill:none" points="
  416.447,1410.9 416.447,47.2441 
  "/>
<polyline clip-path="url(#clip582)" style="stroke:#000000; stroke-width:2; stroke-opacity:0.1; fill:none" points="
  729.007,1410.9 729.007,47.2441 
  "/>
<polyline clip-path="url(#clip582)" style="stroke:#000000; stroke-width:2; stroke-opacity:0.1; fill:none" points="
  1041.57,1410.9 1041.57,47.2441 
  "/>
<polyline clip-path="url(#clip582)" style="stroke:#000000; stroke-width:2; stroke-opacity:0.1; fill:none" points="
  1354.13,1410.9 1354.13,47.2441 
  "/>
<polyline clip-path="url(#clip582)" style="stroke:#000000; stroke-width:2; stroke-opacity:0.1; fill:none" points="
  1666.69,1410.9 1666.69,47.2441 
  "/>
<polyline clip-path="url(#clip582)" style="stroke:#000000; stroke-width:2; stroke-opacity:0.1; fill:none" points="
  1979.25,1410.9 1979.25,47.2441 
  "/>
<polyline clip-path="url(#clip582)" style="stroke:#000000; stroke-width:2; stroke-opacity:0.1; fill:none" points="
  2291.81,1410.9 2291.81,47.2441 
  "/>
<polyline clip-path="url(#clip580)" style="stroke:#000000; stroke-width:4; stroke-opacity:1; fill:none" points="
  199.218,1410.9 2352.76,1410.9 
  "/>
<polyline clip-path="url(#clip580)" style="stroke:#000000; stroke-width:4; stroke-opacity:1; fill:none" points="
  416.447,1410.9 416.447,1394.53 
  "/>
<polyline clip-path="url(#clip580)" style="stroke:#000000; stroke-width:4; stroke-opacity:1; fill:none" points="
  729.007,1410.9 729.007,1394.53 
  "/>
<polyline clip-path="url(#clip580)" style="stroke:#000000; stroke-width:4; stroke-opacity:1; fill:none" points="
  1041.57,1410.9 1041.57,1394.53 
  "/>
<polyline clip-path="url(#clip580)" style="stroke:#000000; stroke-width:4; stroke-opacity:1; fill:none" points="
  1354.13,1410.9 1354.13,1394.53 
  "/>
<polyline clip-path="url(#clip580)" style="stroke:#000000; stroke-width:4; stroke-opacity:1; fill:none" points="
  1666.69,1410.9 1666.69,1394.53 
  "/>
<polyline clip-path="url(#clip580)" style="stroke:#000000; stroke-width:4; stroke-opacity:1; fill:none" points="
  1979.25,1410.9 1979.25,1394.53 
  "/>
<polyline clip-path="url(#clip580)" style="stroke:#000000; stroke-width:4; stroke-opacity:1; fill:none" points="
  2291.81,1410.9 2291.81,1394.53 
  "/>
<path clip-path="url(#clip580)" d="M 0 0 M370.227 1489.17 L377.865 1489.17 L377.865 1462.8 L369.555 1464.47 L369.555 1460.21 L377.819 1458.54 L382.495 1458.54 L382.495 1489.17 L390.134 1489.17 L390.134 1493.1 L370.227 1493.1 L370.227 1489.17 Z" fill="#000000" fill-rule="evenodd" fill-opacity="1" /><path clip-path="url(#clip580)" d="M 0 0 M405.203 1461.62 Q401.592 1461.62 399.763 1465.19 Q397.958 1468.73 397.958 1475.86 Q397.958 1482.97 399.763 1486.53 Q401.592 1490.07 405.203 1490.07 Q408.837 1490.07 410.643 1486.53 Q412.472 1482.97 412.472 1475.86 Q412.472 1468.73 410.643 1465.19 Q408.837 1461.62 405.203 1461.62 M405.203 1457.92 Q411.013 1457.92 414.069 1462.53 Q417.148 1467.11 417.148 1475.86 Q417.148 1484.59 414.069 1489.19 Q411.013 1493.78 405.203 1493.78 Q399.393 1493.78 396.314 1489.19 Q393.259 1484.59 393.259 1475.86 Q393.259 1467.11 396.314 1462.53 Q399.393 1457.92 405.203 1457.92 Z" fill="#000000" fill-rule="evenodd" fill-opacity="1" /><path clip-path="url(#clip580)" d="M 0 0 M417.148 1452.02 L441.259 1452.02 L441.259 1455.22 L417.148 1455.22 L417.148 1452.02 Z" fill="#000000" fill-rule="evenodd" fill-opacity="1" /><path clip-path="url(#clip580)" d="M 0 0 M453.973 1450.14 Q451.415 1450.14 449.911 1451.89 Q448.425 1453.64 448.425 1456.68 Q448.425 1459.71 449.911 1461.48 Q451.415 1463.23 453.973 1463.23 Q456.531 1463.23 458.017 1461.48 Q459.521 1459.71 459.521 1456.68 Q459.521 1453.64 458.017 1451.89 Q456.531 1450.14 453.973 1450.14 M461.515 1438.23 L461.515 1441.69 Q460.086 1441.02 458.619 1440.66 Q457.171 1440.3 455.741 1440.3 Q451.98 1440.3 449.986 1442.84 Q448.011 1445.38 447.729 1450.52 Q448.839 1448.88 450.513 1448.01 Q452.186 1447.13 454.199 1447.13 Q458.431 1447.13 460.876 1449.71 Q463.339 1452.26 463.339 1456.68 Q463.339 1461.01 460.782 1463.62 Q458.224 1466.24 453.973 1466.24 Q449.102 1466.24 446.525 1462.51 Q443.949 1458.77 443.949 1451.68 Q443.949 1445.02 447.108 1441.07 Q450.268 1437.11 455.591 1437.11 Q457.02 1437.11 458.468 1437.39 Q459.935 1437.67 461.515 1438.23 Z" fill="#000000" fill-rule="evenodd" fill-opacity="1" /><path clip-path="url(#clip580)" d="M 0 0 M683.257 1489.17 L690.895 1489.17 L690.895 1462.8 L682.585 1464.47 L682.585 1460.21 L690.849 1458.54 L695.525 1458.54 L695.525 1489.17 L703.164 1489.17 L703.164 1493.1 L683.257 1493.1 L683.257 1489.17 Z" fill="#000000" fill-rule="evenodd" fill-opacity="1" /><path clip-path="url(#clip580)" d="M 0 0 M718.233 1461.62 Q714.622 1461.62 712.794 1465.19 Q710.988 1468.73 710.988 1475.86 Q710.988 1482.97 712.794 1486.53 Q714.622 1490.07 718.233 1490.07 Q721.868 1490.07 723.673 1486.53 Q725.502 1482.97 725.502 1475.86 Q725.502 1468.73 723.673 1465.19 Q721.868 1461.62 718.233 1461.62 M718.233 1457.92 Q724.043 1457.92 727.099 1462.53 Q730.178 1467.11 730.178 1475.86 Q730.178 1484.59 727.099 1489.19 Q724.043 1493.78 718.233 1493.78 Q712.423 1493.78 709.344 1489.19 Q706.289 1484.59 706.289 1475.86 Q706.289 1467.11 709.344 1462.53 Q712.423 1457.92 718.233 1457.92 Z" fill="#000000" fill-rule="evenodd" fill-opacity="1" /><path clip-path="url(#clip580)" d="M 0 0 M730.178 1452.02 L754.289 1452.02 L754.289 1455.22 L730.178 1455.22 L730.178 1452.02 Z" fill="#000000" fill-rule="evenodd" fill-opacity="1" /><path clip-path="url(#clip580)" d="M 0 0 M758.446 1437.61 L773.36 1437.61 L773.36 1440.81 L761.925 1440.81 L761.925 1447.69 Q762.753 1447.41 763.58 1447.28 Q764.408 1447.13 765.235 1447.13 Q769.937 1447.13 772.683 1449.71 Q775.429 1452.28 775.429 1456.68 Q775.429 1461.22 772.608 1463.74 Q769.787 1466.24 764.652 1466.24 Q762.884 1466.24 761.041 1465.94 Q759.217 1465.64 757.261 1465.04 L757.261 1461.22 Q758.954 1462.14 760.759 1462.59 Q762.565 1463.04 764.577 1463.04 Q767.831 1463.04 769.73 1461.33 Q771.63 1459.62 771.63 1456.68 Q771.63 1453.75 769.73 1452.04 Q767.831 1450.33 764.577 1450.33 Q763.054 1450.33 761.53 1450.67 Q760.026 1451 758.446 1451.72 L758.446 1437.61 Z" fill="#000000" fill-rule="evenodd" fill-opacity="1" /><path clip-path="url(#clip580)" d="M 0 0 M995.215 1489.17 L1002.85 1489.17 L1002.85 1462.8 L994.543 1464.47 L994.543 1460.21 L1002.81 1458.54 L1007.48 1458.54 L1007.48 1489.17 L1015.12 1489.17 L1015.12 1493.1 L995.215 1493.1 L995.215 1489.17 Z" fill="#000000" fill-rule="evenodd" fill-opacity="1" /><path clip-path="url(#clip580)" d="M 0 0 M1030.19 1461.62 Q1026.58 1461.62 1024.75 1465.19 Q1022.95 1468.73 1022.95 1475.86 Q1022.95 1482.97 1024.75 1486.53 Q1026.58 1490.07 1030.19 1490.07 Q1033.83 1490.07 1035.63 1486.53 Q1037.46 1482.97 1037.46 1475.86 Q1037.46 1468.73 1035.63 1465.19 Q1033.83 1461.62 1030.19 1461.62 M1030.19 1457.92 Q1036 1457.92 1039.06 1462.53 Q1042.14 1467.11 1042.14 1475.86 Q1042.14 1484.59 1039.06 1489.19 Q1036 1493.78 1030.19 1493.78 Q1024.38 1493.78 1021.3 1489.19 Q1018.25 1484.59 1018.25 1475.86 Q1018.25 1467.11 1021.3 1462.53 Q1024.38 1457.92 1030.19 1457.92 Z" fill="#000000" fill-rule="evenodd" fill-opacity="1" /><path clip-path="url(#clip580)" d="M 0 0 M1042.14 1452.02 L1066.25 1452.02 L1066.25 1455.22 L1042.14 1455.22 L1042.14 1452.02 Z" fill="#000000" fill-rule="evenodd" fill-opacity="1" /><path clip-path="url(#clip580)" d="M 0 0 M1080.8 1440.92 L1071.21 1455.91 L1080.8 1455.91 L1080.8 1440.92 M1079.81 1437.61 L1084.58 1437.61 L1084.58 1455.91 L1088.59 1455.91 L1088.59 1459.07 L1084.58 1459.07 L1084.58 1465.69 L1080.8 1465.69 L1080.8 1459.07 L1068.13 1459.07 L1068.13 1455.41 L1079.81 1437.61 Z" fill="#000000" fill-rule="evenodd" fill-opacity="1" /><path clip-path="url(#clip580)" d="M 0 0 M1308.24 1489.17 L1315.87 1489.17 L1315.87 1462.8 L1307.56 1464.47 L1307.56 1460.21 L1315.83 1458.54 L1320.5 1458.54 L1320.5 1489.17 L1328.14 1489.17 L1328.14 1493.1 L1308.24 1493.1 L1308.24 1489.17 Z" fill="#000000" fill-rule="evenodd" fill-opacity="1" /><path clip-path="url(#clip580)" d="M 0 0 M1343.21 1461.62 Q1339.6 1461.62 1337.77 1465.19 Q1335.97 1468.73 1335.97 1475.86 Q1335.97 1482.97 1337.77 1486.53 Q1339.6 1490.07 1343.21 1490.07 Q1346.85 1490.07 1348.65 1486.53 Q1350.48 1482.97 1350.48 1475.86 Q1350.48 1468.73 1348.65 1465.19 Q1346.85 1461.62 1343.21 1461.62 M1343.21 1457.92 Q1349.02 1457.92 1352.08 1462.53 Q1355.16 1467.11 1355.16 1475.86 Q1355.16 1484.59 1352.08 1489.19 Q1349.02 1493.78 1343.21 1493.78 Q1337.4 1493.78 1334.32 1489.19 Q1331.27 1484.59 1331.27 1475.86 Q1331.27 1467.11 1334.32 1462.53 Q1337.4 1457.92 1343.21 1457.92 Z" fill="#000000" fill-rule="evenodd" fill-opacity="1" /><path clip-path="url(#clip580)" d="M 0 0 M1355.16 1452.02 L1379.27 1452.02 L1379.27 1455.22 L1355.16 1455.22 L1355.16 1452.02 Z" fill="#000000" fill-rule="evenodd" fill-opacity="1" /><path clip-path="url(#clip580)" d="M 0 0 M1394.9 1450.55 Q1397.62 1451.14 1399.15 1452.98 Q1400.69 1454.82 1400.69 1457.53 Q1400.69 1461.69 1397.83 1463.96 Q1394.97 1466.24 1389.71 1466.24 Q1387.94 1466.24 1386.06 1465.88 Q1384.2 1465.54 1382.2 1464.85 L1382.2 1461.18 Q1383.78 1462.1 1385.66 1462.57 Q1387.54 1463.04 1389.59 1463.04 Q1393.17 1463.04 1395.03 1461.63 Q1396.91 1460.22 1396.91 1457.53 Q1396.91 1455.05 1395.16 1453.66 Q1393.43 1452.25 1390.33 1452.25 L1387.05 1452.25 L1387.05 1449.12 L1390.48 1449.12 Q1393.28 1449.12 1394.77 1448.01 Q1396.25 1446.89 1396.25 1444.78 Q1396.25 1442.62 1394.71 1441.47 Q1393.19 1440.3 1390.33 1440.3 Q1388.77 1440.3 1386.98 1440.64 Q1385.19 1440.98 1383.05 1441.69 L1383.05 1438.31 Q1385.21 1437.71 1387.09 1437.41 Q1388.99 1437.11 1390.67 1437.11 Q1394.99 1437.11 1397.51 1439.08 Q1400.03 1441.04 1400.03 1444.38 Q1400.03 1446.72 1398.7 1448.33 Q1397.36 1449.93 1394.9 1450.55 Z" fill="#000000" fill-rule="evenodd" fill-opacity="1" /><path clip-path="url(#clip580)" d="M 0 0 M1621.18 1489.17 L1628.82 1489.17 L1628.82 1462.8 L1620.51 1464.47 L1620.51 1460.21 L1628.77 1458.54 L1633.45 1458.54 L1633.45 1489.17 L1641.09 1489.17 L1641.09 1493.1 L1621.18 1493.1 L1621.18 1489.17 Z" fill="#000000" fill-rule="evenodd" fill-opacity="1" /><path clip-path="url(#clip580)" d="M 0 0 M1656.16 1461.62 Q1652.55 1461.62 1650.72 1465.19 Q1648.91 1468.73 1648.91 1475.86 Q1648.91 1482.97 1650.72 1486.53 Q1652.55 1490.07 1656.16 1490.07 Q1659.79 1490.07 1661.6 1486.53 Q1663.43 1482.97 1663.43 1475.86 Q1663.43 1468.73 1661.6 1465.19 Q1659.79 1461.62 1656.16 1461.62 M1656.16 1457.92 Q1661.97 1457.92 1665.02 1462.53 Q1668.1 1467.11 1668.1 1475.86 Q1668.1 1484.59 1665.02 1489.19 Q1661.97 1493.78 1656.16 1493.78 Q1650.35 1493.78 1647.27 1489.19 Q1644.21 1484.59 1644.21 1475.86 Q1644.21 1467.11 1647.27 1462.53 Q1650.35 1457.92 1656.16 1457.92 Z" fill="#000000" fill-rule="evenodd" fill-opacity="1" /><path clip-path="url(#clip580)" d="M 0 0 M1668.1 1452.02 L1692.21 1452.02 L1692.21 1455.22 L1668.1 1455.22 L1668.1 1452.02 Z" fill="#000000" fill-rule="evenodd" fill-opacity="1" /><path clip-path="url(#clip580)" d="M 0 0 M1699.6 1462.5 L1712.86 1462.5 L1712.86 1465.69 L1695.03 1465.69 L1695.03 1462.5 Q1697.2 1460.26 1700.92 1456.5 Q1704.66 1452.72 1705.62 1451.63 Q1707.45 1449.58 1708.16 1448.16 Q1708.9 1446.74 1708.9 1445.36 Q1708.9 1443.12 1707.32 1441.71 Q1705.76 1440.3 1703.23 1440.3 Q1701.45 1440.3 1699.45 1440.92 Q1697.48 1441.54 1695.22 1442.8 L1695.22 1438.97 Q1697.52 1438.05 1699.51 1437.58 Q1701.5 1437.11 1703.16 1437.11 Q1707.52 1437.11 1710.12 1439.29 Q1712.71 1441.47 1712.71 1445.12 Q1712.71 1446.85 1712.06 1448.41 Q1711.42 1449.95 1709.7 1452.06 Q1709.23 1452.6 1706.71 1455.22 Q1704.19 1457.81 1699.6 1462.5 Z" fill="#000000" fill-rule="evenodd" fill-opacity="1" /><path clip-path="url(#clip580)" d="M 0 0 M1933.59 1489.17 L1941.23 1489.17 L1941.23 1462.8 L1932.92 1464.47 L1932.92 1460.21 L1941.18 1458.54 L1945.86 1458.54 L1945.86 1489.17 L1953.5 1489.17 L1953.5 1493.1 L1933.59 1493.1 L1933.59 1489.17 Z" fill="#000000" fill-rule="evenodd" fill-opacity="1" /><path clip-path="url(#clip580)" d="M 0 0 M1968.57 1461.62 Q1964.96 1461.62 1963.13 1465.19 Q1961.32 1468.73 1961.32 1475.86 Q1961.32 1482.97 1963.13 1486.53 Q1964.96 1490.07 1968.57 1490.07 Q1972.2 1490.07 1974.01 1486.53 Q1975.84 1482.97 1975.84 1475.86 Q1975.84 1468.73 1974.01 1465.19 Q1972.2 1461.62 1968.57 1461.62 M1968.57 1457.92 Q1974.38 1457.92 1977.43 1462.53 Q1980.51 1467.11 1980.51 1475.86 Q1980.51 1484.59 1977.43 1489.19 Q1974.38 1493.78 1968.57 1493.78 Q1962.76 1493.78 1959.68 1489.19 Q1956.62 1484.59 1956.62 1475.86 Q1956.62 1467.11 1959.68 1462.53 Q1962.76 1457.92 1968.57 1457.92 Z" fill="#000000" fill-rule="evenodd" fill-opacity="1" /><path clip-path="url(#clip580)" d="M 0 0 M1980.51 1452.02 L2004.62 1452.02 L2004.62 1455.22 L1980.51 1455.22 L1980.51 1452.02 Z" fill="#000000" fill-rule="evenodd" fill-opacity="1" /><path clip-path="url(#clip580)" d="M 0 0 M2009.4 1462.5 L2015.61 1462.5 L2015.61 1441.07 L2008.85 1442.43 L2008.85 1438.97 L2015.57 1437.61 L2019.37 1437.61 L2019.37 1462.5 L2025.57 1462.5 L2025.57 1465.69 L2009.4 1465.69 L2009.4 1462.5 Z" fill="#000000" fill-rule="evenodd" fill-opacity="1" /><path clip-path="url(#clip580)" d="M 0 0 M2258.98 1489.17 L2266.62 1489.17 L2266.62 1462.8 L2258.31 1464.47 L2258.31 1460.21 L2266.57 1458.54 L2271.25 1458.54 L2271.25 1489.17 L2278.88 1489.17 L2278.88 1493.1 L2258.98 1493.1 L2258.98 1489.17 Z" fill="#000000" fill-rule="evenodd" fill-opacity="1" /><path clip-path="url(#clip580)" d="M 0 0 M2293.95 1461.62 Q2290.34 1461.62 2288.51 1465.19 Q2286.71 1468.73 2286.71 1475.86 Q2286.71 1482.97 2288.51 1486.53 Q2290.34 1490.07 2293.95 1490.07 Q2297.59 1490.07 2299.39 1486.53 Q2301.22 1482.97 2301.22 1475.86 Q2301.22 1468.73 2299.39 1465.19 Q2297.59 1461.62 2293.95 1461.62 M2293.95 1457.92 Q2299.76 1457.92 2302.82 1462.53 Q2305.9 1467.11 2305.9 1475.86 Q2305.9 1484.59 2302.82 1489.19 Q2299.76 1493.78 2293.95 1493.78 Q2288.14 1493.78 2285.06 1489.19 Q2282.01 1484.59 2282.01 1475.86 Q2282.01 1467.11 2285.06 1462.53 Q2288.14 1457.92 2293.95 1457.92 Z" fill="#000000" fill-rule="evenodd" fill-opacity="1" /><path clip-path="url(#clip580)" d="M 0 0 M2315.6 1440.11 Q2312.67 1440.11 2311.18 1443.01 Q2309.72 1445.89 2309.72 1451.68 Q2309.72 1457.46 2311.18 1460.35 Q2312.67 1463.23 2315.6 1463.23 Q2318.56 1463.23 2320.02 1460.35 Q2321.51 1457.46 2321.51 1451.68 Q2321.51 1445.89 2320.02 1443.01 Q2318.56 1440.11 2315.6 1440.11 M2315.6 1437.11 Q2320.32 1437.11 2322.81 1440.85 Q2325.31 1444.57 2325.31 1451.68 Q2325.31 1458.77 2322.81 1462.51 Q2320.32 1466.24 2315.6 1466.24 Q2310.88 1466.24 2308.38 1462.51 Q2305.9 1458.77 2305.9 1451.68 Q2305.9 1444.57 2308.38 1440.85 Q2310.88 1437.11 2315.6 1437.11 Z" fill="#000000" fill-rule="evenodd" fill-opacity="1" /><path clip-path="url(#clip580)" d="M 0 0 M1201.21 1512.66 L1207.09 1512.66 L1207.09 1541.91 L1224.57 1526.54 L1232.05 1526.54 L1213.14 1543.22 L1232.84 1562.19 L1225.2 1562.19 L1207.09 1544.78 L1207.09 1562.19 L1201.21 1562.19 L1201.21 1512.66 Z" fill="#000000" fill-rule="evenodd" fill-opacity="1" /><path clip-path="url(#clip580)" d="M 0 0 M1266.07 1573.01 L1266.07 1577.56 L1232.21 1577.56 L1232.21 1573.01 L1266.07 1573.01 Z" fill="#000000" fill-rule="evenodd" fill-opacity="1" /><path clip-path="url(#clip580)" d="M 0 0 M1286.03 1530.64 Q1281.32 1530.64 1278.58 1534.34 Q1275.84 1538 1275.84 1544.39 Q1275.84 1550.79 1278.55 1554.48 Q1281.29 1558.14 1286.03 1558.14 Q1290.71 1558.14 1293.45 1554.45 Q1296.18 1550.76 1296.18 1544.39 Q1296.18 1538.06 1293.45 1534.37 Q1290.71 1530.64 1286.03 1530.64 M1286.03 1525.68 Q1293.67 1525.68 1298.03 1530.64 Q1302.39 1535.61 1302.39 1544.39 Q1302.39 1553.15 1298.03 1558.14 Q1293.67 1563.11 1286.03 1563.11 Q1278.36 1563.11 1274 1558.14 Q1269.67 1553.15 1269.67 1544.39 Q1269.67 1535.61 1274 1530.64 Q1278.36 1525.68 1286.03 1525.68 Z" fill="#000000" fill-rule="evenodd" fill-opacity="1" /><path clip-path="url(#clip580)" d="M 0 0 M1326.58 1512.66 L1326.58 1517.53 L1320.98 1517.53 Q1317.83 1517.53 1316.58 1518.8 Q1315.37 1520.08 1315.37 1523.39 L1315.37 1526.54 L1325.02 1526.54 L1325.02 1531.09 L1315.37 1531.09 L1315.37 1562.19 L1309.49 1562.19 L1309.49 1531.09 L1303.88 1531.09 L1303.88 1526.54 L1309.49 1526.54 L1309.49 1524.05 Q1309.49 1518.1 1312.26 1515.4 Q1315.02 1512.66 1321.04 1512.66 L1326.58 1512.66 Z" fill="#000000" fill-rule="evenodd" fill-opacity="1" /><path clip-path="url(#clip580)" d="M 0 0 M1350.77 1512.66 L1350.77 1517.53 L1345.17 1517.53 Q1342.02 1517.53 1340.77 1518.8 Q1339.56 1520.08 1339.56 1523.39 L1339.56 1526.54 L1349.21 1526.54 L1349.21 1531.09 L1339.56 1531.09 L1339.56 1562.19 L1333.68 1562.19 L1333.68 1531.09 L1328.07 1531.09 L1328.07 1526.54 L1333.68 1526.54 L1333.68 1524.05 Q1333.68 1518.1 1336.45 1515.4 Q1339.21 1512.66 1345.23 1512.66 L1350.77 1512.66 Z" fill="#000000" fill-rule="evenodd" fill-opacity="1" /><polyline clip-path="url(#clip582)" style="stroke:#000000; stroke-width:2; stroke-opacity:0.1; fill:none" points="
  199.218,1244.8 2352.76,1244.8 
  "/>
<polyline clip-path="url(#clip582)" style="stroke:#000000; stroke-width:2; stroke-opacity:0.1; fill:none" points="
  199.218,926.986 2352.76,926.986 
  "/>
<polyline clip-path="url(#clip582)" style="stroke:#000000; stroke-width:2; stroke-opacity:0.1; fill:none" points="
  199.218,609.175 2352.76,609.175 
  "/>
<polyline clip-path="url(#clip582)" style="stroke:#000000; stroke-width:2; stroke-opacity:0.1; fill:none" points="
  199.218,291.364 2352.76,291.364 
  "/>
<polyline clip-path="url(#clip580)" style="stroke:#000000; stroke-width:4; stroke-opacity:1; fill:none" points="
  199.218,1410.9 199.218,47.2441 
  "/>
<polyline clip-path="url(#clip580)" style="stroke:#000000; stroke-width:4; stroke-opacity:1; fill:none" points="
  199.218,1244.8 225.061,1244.8 
  "/>
<polyline clip-path="url(#clip580)" style="stroke:#000000; stroke-width:4; stroke-opacity:1; fill:none" points="
  199.218,926.986 225.061,926.986 
  "/>
<polyline clip-path="url(#clip580)" style="stroke:#000000; stroke-width:4; stroke-opacity:1; fill:none" points="
  199.218,609.175 225.061,609.175 
  "/>
<polyline clip-path="url(#clip580)" style="stroke:#000000; stroke-width:4; stroke-opacity:1; fill:none" points="
  199.218,291.364 225.061,291.364 
  "/>
<path clip-path="url(#clip580)" d="M 0 0 M142.316 1227.52 L160.672 1227.52 L160.672 1231.45 L146.598 1231.45 L146.598 1239.92 Q147.616 1239.58 148.635 1239.42 Q149.653 1239.23 150.672 1239.23 Q156.459 1239.23 159.839 1242.4 Q163.218 1245.57 163.218 1250.99 Q163.218 1256.57 159.746 1259.67 Q156.274 1262.75 149.954 1262.75 Q147.778 1262.75 145.51 1262.38 Q143.265 1262.01 140.857 1261.27 L140.857 1256.57 Q142.941 1257.7 145.163 1258.26 Q147.385 1258.81 149.862 1258.81 Q153.866 1258.81 156.204 1256.71 Q158.542 1254.6 158.542 1250.99 Q158.542 1247.38 156.204 1245.27 Q153.866 1243.17 149.862 1243.17 Q147.987 1243.17 146.112 1243.58 Q144.26 1244 142.316 1244.88 L142.316 1227.52 Z" fill="#000000" fill-rule="evenodd" fill-opacity="1" /><path clip-path="url(#clip580)" d="M 0 0 M116.297 940.331 L123.936 940.331 L123.936 913.965 L115.626 915.632 L115.626 911.373 L123.89 909.706 L128.566 909.706 L128.566 940.331 L136.204 940.331 L136.204 944.266 L116.297 944.266 L116.297 940.331 Z" fill="#000000" fill-rule="evenodd" fill-opacity="1" /><path clip-path="url(#clip580)" d="M 0 0 M151.274 912.785 Q147.663 912.785 145.834 916.35 Q144.029 919.891 144.029 927.021 Q144.029 934.127 145.834 937.692 Q147.663 941.234 151.274 941.234 Q154.908 941.234 156.714 937.692 Q158.542 934.127 158.542 927.021 Q158.542 919.891 156.714 916.35 Q154.908 912.785 151.274 912.785 M151.274 909.081 Q157.084 909.081 160.14 913.688 Q163.218 918.271 163.218 927.021 Q163.218 935.748 160.14 940.354 Q157.084 944.937 151.274 944.937 Q145.464 944.937 142.385 940.354 Q139.329 935.748 139.329 927.021 Q139.329 918.271 142.385 913.688 Q145.464 909.081 151.274 909.081 Z" fill="#000000" fill-rule="evenodd" fill-opacity="1" /><path clip-path="url(#clip580)" d="M 0 0 M117.293 622.52 L124.931 622.52 L124.931 596.154 L116.621 597.821 L116.621 593.562 L124.885 591.895 L129.561 591.895 L129.561 622.52 L137.2 622.52 L137.2 626.455 L117.293 626.455 L117.293 622.52 Z" fill="#000000" fill-rule="evenodd" fill-opacity="1" /><path clip-path="url(#clip580)" d="M 0 0 M142.316 591.895 L160.672 591.895 L160.672 595.83 L146.598 595.83 L146.598 604.302 Q147.616 603.955 148.635 603.793 Q149.653 603.608 150.672 603.608 Q156.459 603.608 159.839 606.779 Q163.218 609.95 163.218 615.367 Q163.218 620.946 159.746 624.047 Q156.274 627.126 149.954 627.126 Q147.778 627.126 145.51 626.756 Q143.265 626.385 140.857 625.645 L140.857 620.946 Q142.941 622.08 145.163 622.635 Q147.385 623.191 149.862 623.191 Q153.866 623.191 156.204 621.085 Q158.542 618.978 158.542 615.367 Q158.542 611.756 156.204 609.649 Q153.866 607.543 149.862 607.543 Q147.987 607.543 146.112 607.96 Q144.26 608.376 142.316 609.256 L142.316 591.895 Z" fill="#000000" fill-rule="evenodd" fill-opacity="1" /><path clip-path="url(#clip580)" d="M 0 0 M119.885 304.708 L136.204 304.708 L136.204 308.644 L114.26 308.644 L114.26 304.708 Q116.922 301.954 121.505 297.324 Q126.112 292.671 127.292 291.329 Q129.538 288.806 130.417 287.07 Q131.32 285.31 131.32 283.621 Q131.32 280.866 129.376 279.13 Q127.455 277.394 124.353 277.394 Q122.154 277.394 119.7 278.158 Q117.269 278.922 114.492 280.472 L114.492 275.75 Q117.316 274.616 119.769 274.037 Q122.223 273.459 124.26 273.459 Q129.63 273.459 132.825 276.144 Q136.019 278.829 136.019 283.32 Q136.019 285.449 135.209 287.371 Q134.422 289.269 132.316 291.861 Q131.737 292.533 128.635 295.75 Q125.533 298.945 119.885 304.708 Z" fill="#000000" fill-rule="evenodd" fill-opacity="1" /><path clip-path="url(#clip580)" d="M 0 0 M151.274 277.162 Q147.663 277.162 145.834 280.727 Q144.029 284.269 144.029 291.398 Q144.029 298.505 145.834 302.07 Q147.663 305.611 151.274 305.611 Q154.908 305.611 156.714 302.07 Q158.542 298.505 158.542 291.398 Q158.542 284.269 156.714 280.727 Q154.908 277.162 151.274 277.162 M151.274 273.459 Q157.084 273.459 160.14 278.065 Q163.218 282.648 163.218 291.398 Q163.218 300.125 160.14 304.732 Q157.084 309.315 151.274 309.315 Q145.464 309.315 142.385 304.732 Q139.329 300.125 139.329 291.398 Q139.329 282.648 142.385 278.065 Q145.464 273.459 151.274 273.459 Z" fill="#000000" fill-rule="evenodd" fill-opacity="1" /><path clip-path="url(#clip580)" d="M 0 0 M59.1993 815.533 Q55.2526 813.336 53.3747 810.281 Q51.4968 807.225 51.4968 803.088 Q51.4968 797.518 55.4117 794.494 Q59.2948 791.47 66.4881 791.47 L88.0042 791.47 L88.0042 797.358 L66.679 797.358 Q61.5546 797.358 59.072 799.173 Q56.5894 800.987 56.5894 804.711 Q56.5894 809.262 59.6131 811.904 Q62.6368 814.546 67.8567 814.546 L88.0042 814.546 L88.0042 820.434 L66.679 820.434 Q61.5228 820.434 59.072 822.248 Q56.5894 824.063 56.5894 827.85 Q56.5894 832.338 59.6449 834.98 Q62.6686 837.622 67.8567 837.622 L88.0042 837.622 L88.0042 843.51 L52.3562 843.51 L52.3562 837.622 L57.8944 837.622 Q54.616 835.616 53.0564 832.815 Q51.4968 830.015 51.4968 826.163 Q51.4968 822.28 53.4702 819.575 Q55.4436 816.838 59.1993 815.533 Z" fill="#000000" fill-rule="evenodd" fill-opacity="1" /><path clip-path="url(#clip580)" d="M 0 0 M52.3562 785.327 L52.3562 779.471 L88.0042 779.471 L88.0042 785.327 L52.3562 785.327 M38.479 785.327 L38.479 779.471 L45.895 779.471 L45.895 785.327 L38.479 785.327 Z" fill="#000000" fill-rule="evenodd" fill-opacity="1" /><path clip-path="url(#clip580)" d="M 0 0 M66.4881 743.696 L88.0042 743.696 L88.0042 749.552 L66.679 749.552 Q61.6183 749.552 59.1038 751.525 Q56.5894 753.499 56.5894 757.446 Q56.5894 762.188 59.6131 764.925 Q62.6368 767.662 67.8567 767.662 L88.0042 767.662 L88.0042 773.551 L52.3562 773.551 L52.3562 767.662 L57.8944 767.662 Q54.6797 765.562 53.0883 762.729 Q51.4968 759.864 51.4968 756.141 Q51.4968 749.998 55.3163 746.847 Q59.1038 743.696 66.4881 743.696 Z" fill="#000000" fill-rule="evenodd" fill-opacity="1" /><path clip-path="url(#clip580)" d="M 0 0 M98.8259 710.467 L103.377 710.467 L103.377 744.332 L98.8259 744.332 L98.8259 710.467 Z" fill="#000000" fill-rule="evenodd" fill-opacity="1" /><path clip-path="url(#clip580)" d="M 0 0 M57.7671 680.866 L38.479 680.866 L38.479 675.01 L88.0042 675.01 L88.0042 680.866 L82.657 680.866 Q85.8398 682.712 87.3994 685.545 Q88.9272 688.346 88.9272 692.292 Q88.9272 698.754 83.771 702.828 Q78.6147 706.87 70.212 706.87 Q61.8093 706.87 56.6531 702.828 Q51.4968 698.754 51.4968 692.292 Q51.4968 688.346 53.0564 685.545 Q54.5842 682.712 57.7671 680.866 M70.212 700.823 Q76.6732 700.823 80.3653 698.181 Q84.0256 695.507 84.0256 690.86 Q84.0256 686.213 80.3653 683.54 Q76.6732 680.866 70.212 680.866 Q63.7508 680.866 60.0905 683.54 Q56.3984 686.213 56.3984 690.86 Q56.3984 695.507 60.0905 698.181 Q63.7508 700.823 70.212 700.823 Z" fill="#000000" fill-rule="evenodd" fill-opacity="1" /><path clip-path="url(#clip580)" d="M 0 0 M52.3562 668.867 L52.3562 663.01 L88.0042 663.01 L88.0042 668.867 L52.3562 668.867 M38.479 668.867 L38.479 663.01 L45.895 663.01 L45.895 668.867 L38.479 668.867 Z" fill="#000000" fill-rule="evenodd" fill-opacity="1" /><path clip-path="url(#clip580)" d="M 0 0 M38.479 638.821 L43.3487 638.821 L43.3487 644.422 Q43.3487 647.573 44.6219 648.815 Q45.895 650.024 49.2052 650.024 L52.3562 650.024 L52.3562 640.38 L56.9077 640.38 L56.9077 650.024 L88.0042 650.024 L88.0042 655.912 L56.9077 655.912 L56.9077 661.514 L52.3562 661.514 L52.3562 655.912 L49.8736 655.912 Q43.9216 655.912 41.2162 653.143 Q38.479 650.374 38.479 644.359 L38.479 638.821 Z" fill="#000000" fill-rule="evenodd" fill-opacity="1" /><path clip-path="url(#clip580)" d="M 0 0 M38.479 614.631 L43.3487 614.631 L43.3487 620.233 Q43.3487 623.384 44.6219 624.625 Q45.895 625.835 49.2052 625.835 L52.3562 625.835 L52.3562 616.19 L56.9077 616.19 L56.9077 625.835 L88.0042 625.835 L88.0042 631.723 L56.9077 631.723 L56.9077 637.325 L52.3562 637.325 L52.3562 631.723 L49.8736 631.723 Q43.9216 631.723 41.2162 628.954 Q38.479 626.185 38.479 620.169 L38.479 614.631 Z" fill="#000000" fill-rule="evenodd" fill-opacity="1" /><polyline clip-path="url(#clip582)" style="stroke:#009af9; stroke-width:20; stroke-opacity:1; fill:none" stroke-dasharray="80, 50" points="
  260.167,1372.3 416.447,1347.86 572.727,1352.04 729.007,1321.64 885.287,1258.16 1041.57,475.047 1354.13,904.994 1666.69,769.219 1979.25,85.838 2291.81,225.913 
  
  "/>
<path clip-path="url(#clip580)" d="
M1990.67 213.659 L2280.97 213.659 L2280.97 92.6992 L1990.67 92.6992  Z
  " fill="#ffffff" fill-rule="evenodd" fill-opacity="1"/>
<polyline clip-path="url(#clip580)" style="stroke:#000000; stroke-width:4; stroke-opacity:1; fill:none" points="
  1990.67,213.659 2280.97,213.659 2280.97,92.6992 1990.67,92.6992 1990.67,213.659 
  "/>
<polyline clip-path="url(#clip580)" style="stroke:#009af9; stroke-width:4; stroke-opacity:1; fill:none" stroke-dasharray="16, 10" points="
  2014.6,153.179 2158.17,153.179 
  "/>
<path clip-path="url(#clip580)" d="M 0 0 M2195.94 172.867 Q2194.13 177.496 2192.42 178.908 Q2190.71 180.32 2187.84 180.32 L2184.43 180.32 L2184.43 176.755 L2186.93 176.755 Q2188.69 176.755 2189.67 175.922 Q2190.64 175.089 2191.82 171.987 L2192.58 170.043 L2182.1 144.533 L2186.61 144.533 L2194.71 164.811 L2202.81 144.533 L2207.33 144.533 L2195.94 172.867 Z" fill="#000000" fill-rule="evenodd" fill-opacity="1" /><path clip-path="url(#clip580)" d="M 0 0 M2213.21 166.524 L2220.85 166.524 L2220.85 140.158 L2212.54 141.825 L2212.54 137.566 L2220.8 135.899 L2225.48 135.899 L2225.48 166.524 L2233.11 166.524 L2233.11 170.459 L2213.21 170.459 L2213.21 166.524 Z" fill="#000000" fill-rule="evenodd" fill-opacity="1" /></svg>
