<?xml version="1.0" encoding="utf-8"?>
<svg xmlns="http://www.w3.org/2000/svg" xmlns:xlink="http://www.w3.org/1999/xlink" width="600" height="400" viewBox="0 0 2400 1600">
<defs>
  <clipPath id="clip220">
    <rect x="0" y="0" width="2400" height="1600"/>
  </clipPath>
</defs>
<path clip-path="url(#clip220)" d="
M0 1600 L2400 1600 L2400 0 L0 0  Z
  " fill="#ffffff" fill-rule="evenodd" fill-opacity="1"/>
<defs>
  <clipPath id="clip221">
    <rect x="480" y="0" width="1681" height="1600"/>
  </clipPath>
</defs>
<path clip-path="url(#clip220)" d="
M202.459 1410.9 L2352.76 1410.9 L2352.76 47.2441 L202.459 47.2441  Z
  " fill="#ffffff" fill-rule="evenodd" fill-opacity="1"/>
<defs>
  <clipPath id="clip222">
    <rect x="202" y="47" width="2151" height="1365"/>
  </clipPath>
</defs>
<polyline clip-path="url(#clip222)" style="stroke:#000000; stroke-width:2; stroke-opacity:0.1; fill:none" points="
  263.316,1410.9 263.316,47.2441 
  "/>
<polyline clip-path="url(#clip222)" style="stroke:#000000; stroke-width:2; stroke-opacity:0.1; fill:none" points="
  939.51,1410.9 939.51,47.2441 
  "/>
<polyline clip-path="url(#clip222)" style="stroke:#000000; stroke-width:2; stroke-opacity:0.1; fill:none" points="
  1615.7,1410.9 1615.7,47.2441 
  "/>
<polyline clip-path="url(#clip222)" style="stroke:#000000; stroke-width:2; stroke-opacity:0.1; fill:none" points="
  2291.9,1410.9 2291.9,47.2441 
  "/>
<polyline clip-path="url(#clip220)" style="stroke:#000000; stroke-width:4; stroke-opacity:1; fill:none" points="
  202.459,1410.9 2352.76,1410.9 
  "/>
<polyline clip-path="url(#clip220)" style="stroke:#000000; stroke-width:4; stroke-opacity:1; fill:none" points="
  263.316,1410.9 263.316,1394.53 
  "/>
<polyline clip-path="url(#clip220)" style="stroke:#000000; stroke-width:4; stroke-opacity:1; fill:none" points="
  939.51,1410.9 939.51,1394.53 
  "/>
<polyline clip-path="url(#clip220)" style="stroke:#000000; stroke-width:4; stroke-opacity:1; fill:none" points="
  1615.7,1410.9 1615.7,1394.53 
  "/>
<polyline clip-path="url(#clip220)" style="stroke:#000000; stroke-width:4; stroke-opacity:1; fill:none" points="
  2291.9,1410.9 2291.9,1394.53 
  "/>
<path clip-path="url(#clip220)" d="M 0 0 M202.078 1489.17 L209.716 1489.17 L209.716 1462.8 L201.406 1464.47 L201.406 1460.21 L209.67 1458.54 L214.346 1458.54 L214.346 1489.17 L221.985 1489.17 L221.985 1493.1 L202.078 1493.1 L202.078 1489.17 Z" fill="#000000" fill-rule="evenodd" fill-opacity="1" /><path clip-path="url(#clip220)" d="M 0 0 M237.054 1461.62 Q233.443 1461.62 231.614 1465.19 Q229.809 1468.73 229.809 1475.86 Q229.809 1482.97 231.614 1486.53 Q233.443 1490.07 237.054 1490.07 Q240.688 1490.07 242.494 1486.53 Q244.323 1482.97 244.323 1475.86 Q244.323 1468.73 242.494 1465.19 Q240.688 1461.62 237.054 1461.62 M237.054 1457.92 Q242.864 1457.92 245.92 1462.53 Q248.999 1467.11 248.999 1475.86 Q248.999 1484.59 245.92 1489.19 Q242.864 1493.78 237.054 1493.78 Q231.244 1493.78 228.165 1489.19 Q225.11 1484.59 225.11 1475.86 Q225.11 1467.11 228.165 1462.53 Q231.244 1457.92 237.054 1457.92 Z" fill="#000000" fill-rule="evenodd" fill-opacity="1" /><path clip-path="url(#clip220)" d="M 0 0 M248.999 1452.02 L273.11 1452.02 L273.11 1455.22 L248.999 1455.22 L248.999 1452.02 Z" fill="#000000" fill-rule="evenodd" fill-opacity="1" /><path clip-path="url(#clip220)" d="M 0 0 M285.824 1450.14 Q283.266 1450.14 281.762 1451.89 Q280.276 1453.64 280.276 1456.68 Q280.276 1459.71 281.762 1461.48 Q283.266 1463.23 285.824 1463.23 Q288.382 1463.23 289.868 1461.48 Q291.373 1459.71 291.373 1456.68 Q291.373 1453.64 289.868 1451.89 Q288.382 1450.14 285.824 1450.14 M293.366 1438.23 L293.366 1441.69 Q291.937 1441.02 290.47 1440.66 Q289.022 1440.3 287.592 1440.3 Q283.831 1440.3 281.837 1442.84 Q279.862 1445.38 279.58 1450.52 Q280.69 1448.88 282.364 1448.01 Q284.038 1447.13 286.05 1447.13 Q290.282 1447.13 292.727 1449.71 Q295.191 1452.26 295.191 1456.68 Q295.191 1461.01 292.633 1463.62 Q290.075 1466.24 285.824 1466.24 Q280.953 1466.24 278.376 1462.51 Q275.8 1458.77 275.8 1451.68 Q275.8 1445.02 278.959 1441.07 Q282.119 1437.11 287.442 1437.11 Q288.871 1437.11 290.319 1437.39 Q291.786 1437.67 293.366 1438.23 Z" fill="#000000" fill-rule="evenodd" fill-opacity="1" /><path clip-path="url(#clip220)" d="M 0 0 M299.309 1460.92 L303.278 1460.92 L303.278 1465.69 L299.309 1465.69 L299.309 1460.92 Z" fill="#000000" fill-rule="evenodd" fill-opacity="1" /><path clip-path="url(#clip220)" d="M 0 0 M315.522 1440.11 Q312.588 1440.11 311.102 1443.01 Q309.635 1445.89 309.635 1451.68 Q309.635 1457.46 311.102 1460.35 Q312.588 1463.23 315.522 1463.23 Q318.475 1463.23 319.942 1460.35 Q321.427 1457.46 321.427 1451.68 Q321.427 1445.89 319.942 1443.01 Q318.475 1440.11 315.522 1440.11 M315.522 1437.11 Q320.242 1437.11 322.725 1440.85 Q325.227 1444.57 325.227 1451.68 Q325.227 1458.77 322.725 1462.51 Q320.242 1466.24 315.522 1466.24 Q310.801 1466.24 308.3 1462.51 Q305.817 1458.77 305.817 1451.68 Q305.817 1444.57 308.3 1440.85 Q310.801 1437.11 315.522 1437.11 Z" fill="#000000" fill-rule="evenodd" fill-opacity="1" /><path clip-path="url(#clip220)" d="M 0 0 M879.146 1489.17 L886.785 1489.17 L886.785 1462.8 L878.475 1464.47 L878.475 1460.21 L886.739 1458.54 L891.415 1458.54 L891.415 1489.17 L899.053 1489.17 L899.053 1493.1 L879.146 1493.1 L879.146 1489.17 Z" fill="#000000" fill-rule="evenodd" fill-opacity="1" /><path clip-path="url(#clip220)" d="M 0 0 M914.123 1461.62 Q910.512 1461.62 908.683 1465.19 Q906.877 1468.73 906.877 1475.86 Q906.877 1482.97 908.683 1486.53 Q910.512 1490.07 914.123 1490.07 Q917.757 1490.07 919.563 1486.53 Q921.391 1482.97 921.391 1475.86 Q921.391 1468.73 919.563 1465.19 Q917.757 1461.62 914.123 1461.62 M914.123 1457.92 Q919.933 1457.92 922.989 1462.53 Q926.067 1467.11 926.067 1475.86 Q926.067 1484.59 922.989 1489.19 Q919.933 1493.78 914.123 1493.78 Q908.313 1493.78 905.234 1489.19 Q902.178 1484.59 902.178 1475.86 Q902.178 1467.11 905.234 1462.53 Q908.313 1457.92 914.123 1457.92 Z" fill="#000000" fill-rule="evenodd" fill-opacity="1" /><path clip-path="url(#clip220)" d="M 0 0 M926.067 1452.02 L950.179 1452.02 L950.179 1455.22 L926.067 1455.22 L926.067 1452.02 Z" fill="#000000" fill-rule="evenodd" fill-opacity="1" /><path clip-path="url(#clip220)" d="M 0 0 M954.335 1437.61 L969.25 1437.61 L969.25 1440.81 L957.815 1440.81 L957.815 1447.69 Q958.642 1447.41 959.47 1447.28 Q960.297 1447.13 961.125 1447.13 Q965.827 1447.13 968.573 1449.71 Q971.319 1452.28 971.319 1456.68 Q971.319 1461.22 968.498 1463.74 Q965.676 1466.24 960.542 1466.24 Q958.774 1466.24 956.931 1465.94 Q955.106 1465.64 953.15 1465.04 L953.15 1461.22 Q954.843 1462.14 956.649 1462.59 Q958.454 1463.04 960.467 1463.04 Q963.72 1463.04 965.62 1461.33 Q967.52 1459.62 967.52 1456.68 Q967.52 1453.75 965.62 1452.04 Q963.72 1450.33 960.467 1450.33 Q958.943 1450.33 957.42 1450.67 Q955.915 1451 954.335 1451.72 L954.335 1437.61 Z" fill="#000000" fill-rule="evenodd" fill-opacity="1" /><path clip-path="url(#clip220)" d="M 0 0 M975.438 1460.92 L979.406 1460.92 L979.406 1465.69 L975.438 1465.69 L975.438 1460.92 Z" fill="#000000" fill-rule="evenodd" fill-opacity="1" /><path clip-path="url(#clip220)" d="M 0 0 M983.563 1437.61 L998.477 1437.61 L998.477 1440.81 L987.042 1440.81 L987.042 1447.69 Q987.87 1447.41 988.697 1447.28 Q989.525 1447.13 990.352 1447.13 Q995.054 1447.13 997.8 1449.71 Q1000.55 1452.28 1000.55 1456.68 Q1000.55 1461.22 997.725 1463.74 Q994.904 1466.24 989.769 1466.24 Q988.001 1466.24 986.158 1465.94 Q984.334 1465.64 982.378 1465.04 L982.378 1461.22 Q984.07 1462.14 985.876 1462.59 Q987.681 1463.04 989.694 1463.04 Q992.948 1463.04 994.847 1461.33 Q996.747 1459.62 996.747 1456.68 Q996.747 1453.75 994.847 1452.04 Q992.948 1450.33 989.694 1450.33 Q988.17 1450.33 986.647 1450.67 Q985.142 1451 983.563 1451.72 L983.563 1437.61 Z" fill="#000000" fill-rule="evenodd" fill-opacity="1" /><path clip-path="url(#clip220)" d="M 0 0 M1554.94 1489.17 L1562.57 1489.17 L1562.57 1462.8 L1554.26 1464.47 L1554.26 1460.21 L1562.53 1458.54 L1567.2 1458.54 L1567.2 1489.17 L1574.84 1489.17 L1574.84 1493.1 L1554.94 1493.1 L1554.94 1489.17 Z" fill="#000000" fill-rule="evenodd" fill-opacity="1" /><path clip-path="url(#clip220)" d="M 0 0 M1589.91 1461.62 Q1586.3 1461.62 1584.47 1465.19 Q1582.67 1468.73 1582.67 1475.86 Q1582.67 1482.97 1584.47 1486.53 Q1586.3 1490.07 1589.91 1490.07 Q1593.55 1490.07 1595.35 1486.53 Q1597.18 1482.97 1597.18 1475.86 Q1597.18 1468.73 1595.35 1465.19 Q1593.55 1461.62 1589.91 1461.62 M1589.91 1457.92 Q1595.72 1457.92 1598.78 1462.53 Q1601.86 1467.11 1601.86 1475.86 Q1601.86 1484.59 1598.78 1489.19 Q1595.72 1493.78 1589.91 1493.78 Q1584.1 1493.78 1581.02 1489.19 Q1577.97 1484.59 1577.97 1475.86 Q1577.97 1467.11 1581.02 1462.53 Q1584.1 1457.92 1589.91 1457.92 Z" fill="#000000" fill-rule="evenodd" fill-opacity="1" /><path clip-path="url(#clip220)" d="M 0 0 M1601.86 1452.02 L1625.97 1452.02 L1625.97 1455.22 L1601.86 1455.22 L1601.86 1452.02 Z" fill="#000000" fill-rule="evenodd" fill-opacity="1" /><path clip-path="url(#clip220)" d="M 0 0 M1630.12 1437.61 L1645.04 1437.61 L1645.04 1440.81 L1633.6 1440.81 L1633.6 1447.69 Q1634.43 1447.41 1635.26 1447.28 Q1636.09 1447.13 1636.91 1447.13 Q1641.62 1447.13 1644.36 1449.71 Q1647.11 1452.28 1647.11 1456.68 Q1647.11 1461.22 1644.29 1463.74 Q1641.47 1466.24 1636.33 1466.24 Q1634.56 1466.24 1632.72 1465.94 Q1630.9 1465.64 1628.94 1465.04 L1628.94 1461.22 Q1630.63 1462.14 1632.44 1462.59 Q1634.24 1463.04 1636.26 1463.04 Q1639.51 1463.04 1641.41 1461.33 Q1643.31 1459.62 1643.31 1456.68 Q1643.31 1453.75 1641.41 1452.04 Q1639.51 1450.33 1636.26 1450.33 Q1634.73 1450.33 1633.21 1450.67 Q1631.7 1451 1630.12 1451.72 L1630.12 1437.61 Z" fill="#000000" fill-rule="evenodd" fill-opacity="1" /><path clip-path="url(#clip220)" d="M 0 0 M1651.23 1460.92 L1655.2 1460.92 L1655.2 1465.69 L1651.23 1465.69 L1651.23 1460.92 Z" fill="#000000" fill-rule="evenodd" fill-opacity="1" /><path clip-path="url(#clip220)" d="M 0 0 M1667.44 1440.11 Q1664.51 1440.11 1663.02 1443.01 Q1661.55 1445.89 1661.55 1451.68 Q1661.55 1457.46 1663.02 1460.35 Q1664.51 1463.23 1667.44 1463.23 Q1670.39 1463.23 1671.86 1460.35 Q1673.35 1457.46 1673.35 1451.68 Q1673.35 1445.89 1671.86 1443.01 Q1670.39 1440.11 1667.44 1440.11 M1667.44 1437.11 Q1672.16 1437.11 1674.64 1440.85 Q1677.14 1444.57 1677.14 1451.68 Q1677.14 1458.77 1674.64 1462.51 Q1672.16 1466.24 1667.44 1466.24 Q1662.72 1466.24 1660.22 1462.51 Q1657.73 1458.77 1657.73 1451.68 Q1657.73 1444.57 1660.22 1440.85 Q1662.72 1437.11 1667.44 1437.11 Z" fill="#000000" fill-rule="evenodd" fill-opacity="1" /><path clip-path="url(#clip220)" d="M 0 0 M2230.93 1489.17 L2238.57 1489.17 L2238.57 1462.8 L2230.26 1464.47 L2230.26 1460.21 L2238.52 1458.54 L2243.2 1458.54 L2243.2 1489.17 L2250.84 1489.17 L2250.84 1493.1 L2230.93 1493.1 L2230.93 1489.17 Z" fill="#000000" fill-rule="evenodd" fill-opacity="1" /><path clip-path="url(#clip220)" d="M 0 0 M2265.91 1461.62 Q2262.3 1461.62 2260.47 1465.19 Q2258.66 1468.73 2258.66 1475.86 Q2258.66 1482.97 2260.47 1486.53 Q2262.3 1490.07 2265.91 1490.07 Q2269.54 1490.07 2271.35 1486.53 Q2273.18 1482.97 2273.18 1475.86 Q2273.18 1468.73 2271.35 1465.19 Q2269.54 1461.62 2265.91 1461.62 M2265.91 1457.92 Q2271.72 1457.92 2274.77 1462.53 Q2277.85 1467.11 2277.85 1475.86 Q2277.85 1484.59 2274.77 1489.19 Q2271.72 1493.78 2265.91 1493.78 Q2260.1 1493.78 2257.02 1489.19 Q2253.96 1484.59 2253.96 1475.86 Q2253.96 1467.11 2257.02 1462.53 Q2260.1 1457.92 2265.91 1457.92 Z" fill="#000000" fill-rule="evenodd" fill-opacity="1" /><path clip-path="url(#clip220)" d="M 0 0 M2277.85 1452.02 L2301.96 1452.02 L2301.96 1455.22 L2277.85 1455.22 L2277.85 1452.02 Z" fill="#000000" fill-rule="evenodd" fill-opacity="1" /><path clip-path="url(#clip220)" d="M 0 0 M2316.52 1440.92 L2306.93 1455.91 L2316.52 1455.91 L2316.52 1440.92 M2315.53 1437.61 L2320.3 1437.61 L2320.3 1455.91 L2324.31 1455.91 L2324.31 1459.07 L2320.3 1459.07 L2320.3 1465.69 L2316.52 1465.69 L2316.52 1459.07 L2303.85 1459.07 L2303.85 1455.41 L2315.53 1437.61 Z" fill="#000000" fill-rule="evenodd" fill-opacity="1" /><path clip-path="url(#clip220)" d="M 0 0 M2328.43 1460.92 L2332.4 1460.92 L2332.4 1465.69 L2328.43 1465.69 L2328.43 1460.92 Z" fill="#000000" fill-rule="evenodd" fill-opacity="1" /><path clip-path="url(#clip220)" d="M 0 0 M2336.55 1437.61 L2351.47 1437.61 L2351.47 1440.81 L2340.03 1440.81 L2340.03 1447.69 Q2340.86 1447.41 2341.69 1447.28 Q2342.51 1447.13 2343.34 1447.13 Q2348.04 1447.13 2350.79 1449.71 Q2353.54 1452.28 2353.54 1456.68 Q2353.54 1461.22 2350.71 1463.74 Q2347.89 1466.24 2342.76 1466.24 Q2340.99 1466.24 2339.15 1465.94 Q2337.32 1465.64 2335.37 1465.04 L2335.37 1461.22 Q2337.06 1462.14 2338.87 1462.59 Q2340.67 1463.04 2342.68 1463.04 Q2345.94 1463.04 2347.84 1461.33 Q2349.74 1459.62 2349.74 1456.68 Q2349.74 1453.75 2347.84 1452.04 Q2345.94 1450.33 2342.68 1450.33 Q2341.16 1450.33 2339.64 1450.67 Q2338.13 1451 2336.55 1451.72 L2336.55 1437.61 Z" fill="#000000" fill-rule="evenodd" fill-opacity="1" /><path clip-path="url(#clip220)" d="M 0 0 M1209.13 1512.66 L1215.02 1512.66 L1215.02 1541.91 L1232.49 1526.54 L1239.97 1526.54 L1221.06 1543.22 L1240.77 1562.19 L1233.13 1562.19 L1215.02 1544.78 L1215.02 1562.19 L1209.13 1562.19 L1209.13 1512.66 Z" fill="#000000" fill-rule="evenodd" fill-opacity="1" /><path clip-path="url(#clip220)" d="M 0 0 M1273.99 1573.01 L1273.99 1577.56 L1240.13 1577.56 L1240.13 1573.01 L1273.99 1573.01 Z" fill="#000000" fill-rule="evenodd" fill-opacity="1" /><path clip-path="url(#clip220)" d="M 0 0 M1293.95 1530.64 Q1289.24 1530.64 1286.5 1534.34 Q1283.77 1538 1283.77 1544.39 Q1283.77 1550.79 1286.47 1554.48 Q1289.21 1558.14 1293.95 1558.14 Q1298.63 1558.14 1301.37 1554.45 Q1304.1 1550.76 1304.1 1544.39 Q1304.1 1538.06 1301.37 1534.37 Q1298.63 1530.64 1293.95 1530.64 M1293.95 1525.68 Q1301.59 1525.68 1305.95 1530.64 Q1310.31 1535.61 1310.31 1544.39 Q1310.31 1553.15 1305.95 1558.14 Q1301.59 1563.11 1293.95 1563.11 Q1286.28 1563.11 1281.92 1558.14 Q1277.59 1553.15 1277.59 1544.39 Q1277.59 1535.61 1281.92 1530.64 Q1286.28 1525.68 1293.95 1525.68 Z" fill="#000000" fill-rule="evenodd" fill-opacity="1" /><path clip-path="url(#clip220)" d="M 0 0 M1346.09 1540.67 L1346.09 1562.19 L1340.23 1562.19 L1340.23 1540.86 Q1340.23 1535.8 1338.26 1533.29 Q1336.28 1530.77 1332.34 1530.77 Q1327.59 1530.77 1324.86 1533.79 Q1322.12 1536.82 1322.12 1542.04 L1322.12 1562.19 L1316.23 1562.19 L1316.23 1526.54 L1322.12 1526.54 L1322.12 1532.08 Q1324.22 1528.86 1327.05 1527.27 Q1329.92 1525.68 1333.64 1525.68 Q1339.78 1525.68 1342.94 1529.5 Q1346.09 1533.29 1346.09 1540.67 Z" fill="#000000" fill-rule="evenodd" fill-opacity="1" /><polyline clip-path="url(#clip222)" style="stroke:#000000; stroke-width:2; stroke-opacity:0.1; fill:none" points="
  202.459,1293.29 2352.76,1293.29 
  "/>
<polyline clip-path="url(#clip222)" style="stroke:#000000; stroke-width:2; stroke-opacity:0.1; fill:none" points="
  202.459,1086.77 2352.76,1086.77 
  "/>
<polyline clip-path="url(#clip222)" style="stroke:#000000; stroke-width:2; stroke-opacity:0.1; fill:none" points="
  202.459,880.255 2352.76,880.255 
  "/>
<polyline clip-path="url(#clip222)" style="stroke:#000000; stroke-width:2; stroke-opacity:0.1; fill:none" points="
  202.459,673.737 2352.76,673.737 
  "/>
<polyline clip-path="url(#clip222)" style="stroke:#000000; stroke-width:2; stroke-opacity:0.1; fill:none" points="
  202.459,467.219 2352.76,467.219 
  "/>
<polyline clip-path="url(#clip222)" style="stroke:#000000; stroke-width:2; stroke-opacity:0.1; fill:none" points="
  202.459,260.702 2352.76,260.702 
  "/>
<polyline clip-path="url(#clip222)" style="stroke:#000000; stroke-width:2; stroke-opacity:0.1; fill:none" points="
  202.459,54.184 2352.76,54.184 
  "/>
<polyline clip-path="url(#clip220)" style="stroke:#000000; stroke-width:4; stroke-opacity:1; fill:none" points="
  202.459,1410.9 202.459,47.2441 
  "/>
<polyline clip-path="url(#clip220)" style="stroke:#000000; stroke-width:4; stroke-opacity:1; fill:none" points="
  202.459,1293.29 228.263,1293.29 
  "/>
<polyline clip-path="url(#clip220)" style="stroke:#000000; stroke-width:4; stroke-opacity:1; fill:none" points="
  202.459,1086.77 228.263,1086.77 
  "/>
<polyline clip-path="url(#clip220)" style="stroke:#000000; stroke-width:4; stroke-opacity:1; fill:none" points="
  202.459,880.255 228.263,880.255 
  "/>
<polyline clip-path="url(#clip220)" style="stroke:#000000; stroke-width:4; stroke-opacity:1; fill:none" points="
  202.459,673.737 228.263,673.737 
  "/>
<polyline clip-path="url(#clip220)" style="stroke:#000000; stroke-width:4; stroke-opacity:1; fill:none" points="
  202.459,467.219 228.263,467.219 
  "/>
<polyline clip-path="url(#clip220)" style="stroke:#000000; stroke-width:4; stroke-opacity:1; fill:none" points="
  202.459,260.702 228.263,260.702 
  "/>
<polyline clip-path="url(#clip220)" style="stroke:#000000; stroke-width:4; stroke-opacity:1; fill:none" points="
  202.459,54.184 228.263,54.184 
  "/>
<path clip-path="url(#clip220)" d="M 0 0 M120.533 1306.64 L128.172 1306.64 L128.172 1280.27 L119.862 1281.94 L119.862 1277.68 L128.126 1276.01 L132.802 1276.01 L132.802 1306.64 L140.441 1306.64 L140.441 1310.57 L120.533 1310.57 L120.533 1306.64 Z" fill="#000000" fill-rule="evenodd" fill-opacity="1" /><path clip-path="url(#clip220)" d="M 0 0 M145.556 1276.01 L163.913 1276.01 L163.913 1279.95 L149.839 1279.95 L149.839 1288.42 Q150.857 1288.07 151.876 1287.91 Q152.894 1287.72 153.913 1287.72 Q159.7 1287.72 163.079 1290.89 Q166.459 1294.07 166.459 1299.48 Q166.459 1305.06 162.987 1308.16 Q159.515 1311.24 153.195 1311.24 Q151.019 1311.24 148.751 1310.87 Q146.505 1310.5 144.098 1309.76 L144.098 1305.06 Q146.181 1306.2 148.403 1306.75 Q150.626 1307.31 153.103 1307.31 Q157.107 1307.31 159.445 1305.2 Q161.783 1303.09 161.783 1299.48 Q161.783 1295.87 159.445 1293.76 Q157.107 1291.66 153.103 1291.66 Q151.228 1291.66 149.353 1292.08 Q147.501 1292.49 145.556 1293.37 L145.556 1276.01 Z" fill="#000000" fill-rule="evenodd" fill-opacity="1" /><path clip-path="url(#clip220)" d="M 0 0 M123.126 1100.12 L139.445 1100.12 L139.445 1104.05 L117.501 1104.05 L117.501 1100.12 Q120.163 1097.36 124.746 1092.73 Q129.353 1088.08 130.533 1086.74 Q132.779 1084.21 133.658 1082.48 Q134.561 1080.72 134.561 1079.03 Q134.561 1076.28 132.617 1074.54 Q130.695 1072.8 127.593 1072.8 Q125.394 1072.8 122.941 1073.57 Q120.51 1074.33 117.732 1075.88 L117.732 1071.16 Q120.556 1070.03 123.01 1069.45 Q125.464 1068.87 127.501 1068.87 Q132.871 1068.87 136.066 1071.55 Q139.26 1074.24 139.26 1078.73 Q139.26 1080.86 138.45 1082.78 Q137.663 1084.68 135.556 1087.27 Q134.978 1087.94 131.876 1091.16 Q128.774 1094.35 123.126 1100.12 Z" fill="#000000" fill-rule="evenodd" fill-opacity="1" /><path clip-path="url(#clip220)" d="M 0 0 M154.515 1072.57 Q150.903 1072.57 149.075 1076.14 Q147.269 1079.68 147.269 1086.81 Q147.269 1093.91 149.075 1097.48 Q150.903 1101.02 154.515 1101.02 Q158.149 1101.02 159.954 1097.48 Q161.783 1093.91 161.783 1086.81 Q161.783 1079.68 159.954 1076.14 Q158.149 1072.57 154.515 1072.57 M154.515 1068.87 Q160.325 1068.87 163.38 1073.47 Q166.459 1078.06 166.459 1086.81 Q166.459 1095.53 163.38 1100.14 Q160.325 1104.72 154.515 1104.72 Q148.704 1104.72 145.626 1100.14 Q142.57 1095.53 142.57 1086.81 Q142.57 1078.06 145.626 1073.47 Q148.704 1068.87 154.515 1068.87 Z" fill="#000000" fill-rule="evenodd" fill-opacity="1" /><path clip-path="url(#clip220)" d="M 0 0 M124.121 893.6 L140.441 893.6 L140.441 897.535 L118.496 897.535 L118.496 893.6 Q121.158 890.845 125.742 886.216 Q130.348 881.563 131.529 880.22 Q133.774 877.697 134.654 875.961 Q135.556 874.202 135.556 872.512 Q135.556 869.757 133.612 868.021 Q131.691 866.285 128.589 866.285 Q126.39 866.285 123.936 867.049 Q121.505 867.813 118.728 869.364 L118.728 864.642 Q121.552 863.507 124.005 862.929 Q126.459 862.35 128.496 862.35 Q133.867 862.35 137.061 865.035 Q140.255 867.72 140.255 872.211 Q140.255 874.341 139.445 876.262 Q138.658 878.16 136.552 880.753 Q135.973 881.424 132.871 884.642 Q129.769 887.836 124.121 893.6 Z" fill="#000000" fill-rule="evenodd" fill-opacity="1" /><path clip-path="url(#clip220)" d="M 0 0 M145.556 862.975 L163.913 862.975 L163.913 866.91 L149.839 866.91 L149.839 875.382 Q150.857 875.035 151.876 874.873 Q152.894 874.688 153.913 874.688 Q159.7 874.688 163.079 877.859 Q166.459 881.03 166.459 886.447 Q166.459 892.026 162.987 895.128 Q159.515 898.206 153.195 898.206 Q151.019 898.206 148.751 897.836 Q146.505 897.466 144.098 896.725 L144.098 892.026 Q146.181 893.16 148.403 893.716 Q150.626 894.271 153.103 894.271 Q157.107 894.271 159.445 892.165 Q161.783 890.058 161.783 886.447 Q161.783 882.836 159.445 880.729 Q157.107 878.623 153.103 878.623 Q151.228 878.623 149.353 879.04 Q147.501 879.456 145.556 880.336 L145.556 862.975 Z" fill="#000000" fill-rule="evenodd" fill-opacity="1" /><path clip-path="url(#clip220)" d="M 0 0 M132.316 672.383 Q135.672 673.101 137.547 675.369 Q139.445 677.638 139.445 680.971 Q139.445 686.087 135.927 688.888 Q132.408 691.689 125.927 691.689 Q123.751 691.689 121.436 691.249 Q119.144 690.832 116.691 689.976 L116.691 685.462 Q118.635 686.596 120.95 687.175 Q123.265 687.753 125.788 687.753 Q130.186 687.753 132.478 686.017 Q134.792 684.281 134.792 680.971 Q134.792 677.915 132.64 676.202 Q130.51 674.466 126.691 674.466 L122.663 674.466 L122.663 670.624 L126.876 670.624 Q130.325 670.624 132.154 669.258 Q133.982 667.869 133.982 665.277 Q133.982 662.615 132.084 661.203 Q130.209 659.767 126.691 659.767 Q124.769 659.767 122.57 660.184 Q120.371 660.601 117.732 661.48 L117.732 657.314 Q120.394 656.573 122.709 656.203 Q125.047 655.832 127.107 655.832 Q132.431 655.832 135.533 658.263 Q138.635 660.67 138.635 664.791 Q138.635 667.661 136.992 669.652 Q135.348 671.619 132.316 672.383 Z" fill="#000000" fill-rule="evenodd" fill-opacity="1" /><path clip-path="url(#clip220)" d="M 0 0 M154.515 659.536 Q150.903 659.536 149.075 663.101 Q147.269 666.642 147.269 673.772 Q147.269 680.878 149.075 684.443 Q150.903 687.985 154.515 687.985 Q158.149 687.985 159.954 684.443 Q161.783 680.878 161.783 673.772 Q161.783 666.642 159.954 663.101 Q158.149 659.536 154.515 659.536 M154.515 655.832 Q160.325 655.832 163.38 660.439 Q166.459 665.022 166.459 673.772 Q166.459 682.499 163.38 687.105 Q160.325 691.689 154.515 691.689 Q148.704 691.689 145.626 687.105 Q142.57 682.499 142.57 673.772 Q142.57 665.022 145.626 660.439 Q148.704 655.832 154.515 655.832 Z" fill="#000000" fill-rule="evenodd" fill-opacity="1" /><path clip-path="url(#clip220)" d="M 0 0 M133.311 465.865 Q136.667 466.583 138.542 468.851 Q140.441 471.12 140.441 474.453 Q140.441 479.569 136.922 482.37 Q133.404 485.171 126.922 485.171 Q124.746 485.171 122.431 484.731 Q120.14 484.314 117.686 483.458 L117.686 478.944 Q119.63 480.078 121.945 480.657 Q124.26 481.236 126.783 481.236 Q131.181 481.236 133.473 479.499 Q135.788 477.763 135.788 474.453 Q135.788 471.398 133.635 469.685 Q131.505 467.949 127.686 467.949 L123.658 467.949 L123.658 464.106 L127.871 464.106 Q131.32 464.106 133.149 462.74 Q134.978 461.351 134.978 458.759 Q134.978 456.097 133.08 454.685 Q131.205 453.25 127.686 453.25 Q125.765 453.25 123.566 453.666 Q121.367 454.083 118.728 454.963 L118.728 450.796 Q121.39 450.055 123.705 449.685 Q126.043 449.314 128.103 449.314 Q133.427 449.314 136.529 451.745 Q139.63 454.152 139.63 458.273 Q139.63 461.143 137.987 463.134 Q136.343 465.101 133.311 465.865 Z" fill="#000000" fill-rule="evenodd" fill-opacity="1" /><path clip-path="url(#clip220)" d="M 0 0 M145.556 449.939 L163.913 449.939 L163.913 453.875 L149.839 453.875 L149.839 462.347 Q150.857 462 151.876 461.838 Q152.894 461.652 153.913 461.652 Q159.7 461.652 163.079 464.824 Q166.459 467.995 166.459 473.412 Q166.459 478.99 162.987 482.092 Q159.515 485.171 153.195 485.171 Q151.019 485.171 148.751 484.8 Q146.505 484.43 144.098 483.689 L144.098 478.99 Q146.181 480.124 148.403 480.68 Q150.626 481.236 153.103 481.236 Q157.107 481.236 159.445 479.129 Q161.783 477.023 161.783 473.412 Q161.783 469.8 159.445 467.694 Q157.107 465.588 153.103 465.588 Q151.228 465.588 149.353 466.004 Q147.501 466.421 145.556 467.3 L145.556 449.939 Z" fill="#000000" fill-rule="evenodd" fill-opacity="1" /><path clip-path="url(#clip220)" d="M 0 0 M129.862 247.496 L118.056 265.945 L129.862 265.945 L129.862 247.496 M128.635 243.422 L134.515 243.422 L134.515 265.945 L139.445 265.945 L139.445 269.834 L134.515 269.834 L134.515 277.982 L129.862 277.982 L129.862 269.834 L114.26 269.834 L114.26 265.32 L128.635 243.422 Z" fill="#000000" fill-rule="evenodd" fill-opacity="1" /><path clip-path="url(#clip220)" d="M 0 0 M154.515 246.5 Q150.903 246.5 149.075 250.065 Q147.269 253.607 147.269 260.736 Q147.269 267.843 149.075 271.408 Q150.903 274.949 154.515 274.949 Q158.149 274.949 159.954 271.408 Q161.783 267.843 161.783 260.736 Q161.783 253.607 159.954 250.065 Q158.149 246.5 154.515 246.5 M154.515 242.797 Q160.325 242.797 163.38 247.403 Q166.459 251.986 166.459 260.736 Q166.459 269.463 163.38 274.07 Q160.325 278.653 154.515 278.653 Q148.704 278.653 145.626 274.07 Q142.57 269.463 142.57 260.736 Q142.57 251.986 145.626 247.403 Q148.704 242.797 154.515 242.797 Z" fill="#000000" fill-rule="evenodd" fill-opacity="1" /><path clip-path="url(#clip220)" d="M 0 0 M130.857 40.978 L119.052 59.427 L130.857 59.427 L130.857 40.978 M129.63 36.904 L135.51 36.904 L135.51 59.427 L140.441 59.427 L140.441 63.3159 L135.51 63.3159 L135.51 71.464 L130.857 71.464 L130.857 63.3159 L115.256 63.3159 L115.256 58.802 L129.63 36.904 Z" fill="#000000" fill-rule="evenodd" fill-opacity="1" /><path clip-path="url(#clip220)" d="M 0 0 M145.556 36.904 L163.913 36.904 L163.913 40.8391 L149.839 40.8391 L149.839 49.3113 Q150.857 48.9641 151.876 48.802 Q152.894 48.6169 153.913 48.6169 Q159.7 48.6169 163.079 51.7881 Q166.459 54.9594 166.459 60.3761 Q166.459 65.9547 162.987 69.0566 Q159.515 72.1353 153.195 72.1353 Q151.019 72.1353 148.751 71.7649 Q146.505 71.3945 144.098 70.6538 L144.098 65.9547 Q146.181 67.089 148.403 67.6445 Q150.626 68.2001 153.103 68.2001 Q157.107 68.2001 159.445 66.0936 Q161.783 63.9872 161.783 60.3761 Q161.783 56.765 159.445 54.6585 Q157.107 52.552 153.103 52.552 Q151.228 52.552 149.353 52.9687 Q147.501 53.3854 145.556 54.265 L145.556 36.904 Z" fill="#000000" fill-rule="evenodd" fill-opacity="1" /><path clip-path="url(#clip220)" d="M 0 0 M59.1993 815.533 Q55.2526 813.336 53.3747 810.281 Q51.4968 807.225 51.4968 803.088 Q51.4968 797.518 55.4117 794.494 Q59.2948 791.47 66.4881 791.47 L88.0042 791.47 L88.0042 797.358 L66.679 797.358 Q61.5546 797.358 59.072 799.173 Q56.5894 800.987 56.5894 804.711 Q56.5894 809.262 59.6131 811.904 Q62.6368 814.546 67.8567 814.546 L88.0042 814.546 L88.0042 820.434 L66.679 820.434 Q61.5228 820.434 59.072 822.248 Q56.5894 824.063 56.5894 827.85 Q56.5894 832.338 59.6449 834.98 Q62.6686 837.622 67.8567 837.622 L88.0042 837.622 L88.0042 843.51 L52.3562 843.51 L52.3562 837.622 L57.8944 837.622 Q54.616 835.616 53.0564 832.815 Q51.4968 830.015 51.4968 826.163 Q51.4968 822.28 53.4702 819.575 Q55.4436 816.838 59.1993 815.533 Z" fill="#000000" fill-rule="evenodd" fill-opacity="1" /><path clip-path="url(#clip220)" d="M 0 0 M52.3562 785.327 L52.3562 779.471 L88.0042 779.471 L88.0042 785.327 L52.3562 785.327 M38.479 785.327 L38.479 779.471 L45.895 779.471 L45.895 785.327 L38.479 785.327 Z" fill="#000000" fill-rule="evenodd" fill-opacity="1" /><path clip-path="url(#clip220)" d="M 0 0 M66.4881 743.696 L88.0042 743.696 L88.0042 749.552 L66.679 749.552 Q61.6183 749.552 59.1038 751.525 Q56.5894 753.499 56.5894 757.446 Q56.5894 762.188 59.6131 764.925 Q62.6368 767.662 67.8567 767.662 L88.0042 767.662 L88.0042 773.551 L52.3562 773.551 L52.3562 767.662 L57.8944 767.662 Q54.6797 765.562 53.0883 762.729 Q51.4968 759.864 51.4968 756.141 Q51.4968 749.998 55.3163 746.847 Q59.1038 743.696 66.4881 743.696 Z" fill="#000000" fill-rule="evenodd" fill-opacity="1" /><path clip-path="url(#clip220)" d="M 0 0 M98.8259 710.467 L103.377 710.467 L103.377 744.332 L98.8259 744.332 L98.8259 710.467 Z" fill="#000000" fill-rule="evenodd" fill-opacity="1" /><path clip-path="url(#clip220)" d="M 0 0 M57.7671 680.866 L38.479 680.866 L38.479 675.01 L88.0042 675.01 L88.0042 680.866 L82.657 680.866 Q85.8398 682.712 87.3994 685.545 Q88.9272 688.346 88.9272 692.292 Q88.9272 698.754 83.771 702.828 Q78.6147 706.87 70.212 706.87 Q61.8093 706.87 56.6531 702.828 Q51.4968 698.754 51.4968 692.292 Q51.4968 688.346 53.0564 685.545 Q54.5842 682.712 57.7671 680.866 M70.212 700.823 Q76.6732 700.823 80.3653 698.181 Q84.0256 695.507 84.0256 690.86 Q84.0256 686.213 80.3653 683.54 Q76.6732 680.866 70.212 680.866 Q63.7508 680.866 60.0905 683.54 Q56.3984 686.213 56.3984 690.86 Q56.3984 695.507 60.0905 698.181 Q63.7508 700.823 70.212 700.823 Z" fill="#000000" fill-rule="evenodd" fill-opacity="1" /><path clip-path="url(#clip220)" d="M 0 0 M52.3562 668.867 L52.3562 663.01 L88.0042 663.01 L88.0042 668.867 L52.3562 668.867 M38.479 668.867 L38.479 663.01 L45.895 663.01 L45.895 668.867 L38.479 668.867 Z" fill="#000000" fill-rule="evenodd" fill-opacity="1" /><path clip-path="url(#clip220)" d="M 0 0 M38.479 638.821 L43.3487 638.821 L43.3487 644.422 Q43.3487 647.573 44.6219 648.815 Q45.895 650.024 49.2052 650.024 L52.3562 650.024 L52.3562 640.38 L56.9077 640.38 L56.9077 650.024 L88.0042 650.024 L88.0042 655.912 L56.9077 655.912 L56.9077 661.514 L52.3562 661.514 L52.3562 655.912 L49.8736 655.912 Q43.9216 655.912 41.2162 653.143 Q38.479 650.374 38.479 644.359 L38.479 638.821 Z" fill="#000000" fill-rule="evenodd" fill-opacity="1" /><path clip-path="url(#clip220)" d="M 0 0 M38.479 614.631 L43.3487 614.631 L43.3487 620.233 Q43.3487 623.384 44.6219 624.625 Q45.895 625.835 49.2052 625.835 L52.3562 625.835 L52.3562 616.19 L56.9077 616.19 L56.9077 625.835 L88.0042 625.835 L88.0042 631.723 L56.9077 631.723 L56.9077 637.325 L52.3562 637.325 L52.3562 631.723 L49.8736 631.723 Q43.9216 631.723 41.2162 628.954 Q38.479 626.185 38.479 620.169 L38.479 614.631 Z" fill="#000000" fill-rule="evenodd" fill-opacity="1" /><polyline clip-path="url(#clip222)" style="stroke:#009af9; stroke-width:20; stroke-opacity:1; fill:none" stroke-dasharray="80, 50" points="
  263.316,1361.2 939.51,1372.3 1615.7,1058.78 1615.7,1253.89 2291.9,85.838 
  "/>
<path clip-path="url(#clip220)" d="
M1991.14 213.659 L2281.08 213.659 L2281.08 92.6992 L1991.14 92.6992  Z
  " fill="#ffffff" fill-rule="evenodd" fill-opacity="1"/>
<polyline clip-path="url(#clip220)" style="stroke:#000000; stroke-width:4; stroke-opacity:1; fill:none" points="
  1991.14,213.659 2281.08,213.659 2281.08,92.6992 1991.14,92.6992 1991.14,213.659 
  "/>
<polyline clip-path="url(#clip220)" style="stroke:#009af9; stroke-width:4; stroke-opacity:1; fill:none" stroke-dasharray="16, 10" points="
  2015.03,153.179 2158.38,153.179 
  "/>
<path clip-path="url(#clip220)" d="M 0 0 M2196.12 172.867 Q2194.31 177.496 2192.6 178.908 Q2190.89 180.32 2188.02 180.32 L2184.61 180.32 L2184.61 176.755 L2187.11 176.755 Q2188.87 176.755 2189.85 175.922 Q2190.82 175.089 2192 171.987 L2192.76 170.043 L2182.28 144.533 L2186.79 144.533 L2194.89 164.811 L2202.99 144.533 L2207.51 144.533 L2196.12 172.867 Z" fill="#000000" fill-rule="evenodd" fill-opacity="1" /><path clip-path="url(#clip220)" d="M 0 0 M2213.39 166.524 L2221.03 166.524 L2221.03 140.158 L2212.72 141.825 L2212.72 137.566 L2220.98 135.899 L2225.66 135.899 L2225.66 166.524 L2233.29 166.524 L2233.29 170.459 L2213.39 170.459 L2213.39 166.524 Z" fill="#000000" fill-rule="evenodd" fill-opacity="1" /></svg>
