<?xml version="1.0" encoding="utf-8"?>
<svg xmlns="http://www.w3.org/2000/svg" xmlns:xlink="http://www.w3.org/1999/xlink" width="600" height="400" viewBox="0 0 2400 1600">
<defs>
  <clipPath id="clip670">
    <rect x="0" y="0" width="2400" height="1600"/>
  </clipPath>
</defs>
<path clip-path="url(#clip670)" d="
M0 1600 L2400 1600 L2400 0 L0 0  Z
  " fill="#ffffff" fill-rule="evenodd" fill-opacity="1"/>
<defs>
  <clipPath id="clip671">
    <rect x="480" y="0" width="1681" height="1600"/>
  </clipPath>
</defs>
<path clip-path="url(#clip670)" d="
M210.468 1410.9 L2352.76 1410.9 L2352.76 47.2441 L210.468 47.2441  Z
  " fill="#ffffff" fill-rule="evenodd" fill-opacity="1"/>
<defs>
  <clipPath id="clip672">
    <rect x="210" y="47" width="2143" height="1365"/>
  </clipPath>
</defs>
<polyline clip-path="url(#clip672)" style="stroke:#000000; stroke-width:2; stroke-opacity:0.1; fill:none" points="
  275.462,1410.9 275.462,47.2441 
  "/>
<polyline clip-path="url(#clip672)" style="stroke:#000000; stroke-width:2; stroke-opacity:0.1; fill:none" points="
  699.049,1410.9 699.049,47.2441 
  "/>
<polyline clip-path="url(#clip672)" style="stroke:#000000; stroke-width:2; stroke-opacity:0.1; fill:none" points="
  1122.64,1410.9 1122.64,47.2441 
  "/>
<polyline clip-path="url(#clip672)" style="stroke:#000000; stroke-width:2; stroke-opacity:0.1; fill:none" points="
  1546.22,1410.9 1546.22,47.2441 
  "/>
<polyline clip-path="url(#clip672)" style="stroke:#000000; stroke-width:2; stroke-opacity:0.1; fill:none" points="
  1969.81,1410.9 1969.81,47.2441 
  "/>
<polyline clip-path="url(#clip670)" style="stroke:#000000; stroke-width:4; stroke-opacity:1; fill:none" points="
  210.468,1410.9 2352.76,1410.9 
  "/>
<polyline clip-path="url(#clip670)" style="stroke:#000000; stroke-width:4; stroke-opacity:1; fill:none" points="
  275.462,1410.9 275.462,1394.53 
  "/>
<polyline clip-path="url(#clip670)" style="stroke:#000000; stroke-width:4; stroke-opacity:1; fill:none" points="
  699.049,1410.9 699.049,1394.53 
  "/>
<polyline clip-path="url(#clip670)" style="stroke:#000000; stroke-width:4; stroke-opacity:1; fill:none" points="
  1122.64,1410.9 1122.64,1394.53 
  "/>
<polyline clip-path="url(#clip670)" style="stroke:#000000; stroke-width:4; stroke-opacity:1; fill:none" points="
  1546.22,1410.9 1546.22,1394.53 
  "/>
<polyline clip-path="url(#clip670)" style="stroke:#000000; stroke-width:4; stroke-opacity:1; fill:none" points="
  1969.81,1410.9 1969.81,1394.53 
  "/>
<path clip-path="url(#clip670)" d="M 0 0 M214.552 1489.17 L222.191 1489.17 L222.191 1462.8 L213.881 1464.47 L213.881 1460.21 L222.145 1458.54 L226.821 1458.54 L226.821 1489.17 L234.46 1489.17 L234.46 1493.1 L214.552 1493.1 L214.552 1489.17 Z" fill="#000000" fill-rule="evenodd" fill-opacity="1" /><path clip-path="url(#clip670)" d="M 0 0 M249.529 1461.62 Q245.918 1461.62 244.089 1465.19 Q242.284 1468.73 242.284 1475.86 Q242.284 1482.97 244.089 1486.53 Q245.918 1490.07 249.529 1490.07 Q253.163 1490.07 254.969 1486.53 Q256.797 1482.97 256.797 1475.86 Q256.797 1468.73 254.969 1465.19 Q253.163 1461.62 249.529 1461.62 M249.529 1457.92 Q255.339 1457.92 258.395 1462.53 Q261.473 1467.11 261.473 1475.86 Q261.473 1484.59 258.395 1489.19 Q255.339 1493.78 249.529 1493.78 Q243.719 1493.78 240.64 1489.19 Q237.584 1484.59 237.584 1475.86 Q237.584 1467.11 240.64 1462.53 Q243.719 1457.92 249.529 1457.92 Z" fill="#000000" fill-rule="evenodd" fill-opacity="1" /><path clip-path="url(#clip670)" d="M 0 0 M261.473 1452.02 L285.585 1452.02 L285.585 1455.22 L261.473 1455.22 L261.473 1452.02 Z" fill="#000000" fill-rule="evenodd" fill-opacity="1" /><path clip-path="url(#clip670)" d="M 0 0 M297.829 1440.11 Q294.895 1440.11 293.409 1443.01 Q291.942 1445.89 291.942 1451.68 Q291.942 1457.46 293.409 1460.35 Q294.895 1463.23 297.829 1463.23 Q300.781 1463.23 302.248 1460.35 Q303.734 1457.46 303.734 1451.68 Q303.734 1445.89 302.248 1443.01 Q300.781 1440.11 297.829 1440.11 M297.829 1437.11 Q302.549 1437.11 305.032 1440.85 Q307.533 1444.57 307.533 1451.68 Q307.533 1458.77 305.032 1462.51 Q302.549 1466.24 297.829 1466.24 Q293.108 1466.24 290.606 1462.51 Q288.124 1458.77 288.124 1451.68 Q288.124 1444.57 290.606 1440.85 Q293.108 1437.11 297.829 1437.11 Z" fill="#000000" fill-rule="evenodd" fill-opacity="1" /><path clip-path="url(#clip670)" d="M 0 0 M311.652 1460.92 L315.621 1460.92 L315.621 1465.69 L311.652 1465.69 L311.652 1460.92 Z" fill="#000000" fill-rule="evenodd" fill-opacity="1" /><path clip-path="url(#clip670)" d="M 0 0 M331.25 1450.55 Q333.977 1451.14 335.501 1452.98 Q337.043 1454.82 337.043 1457.53 Q337.043 1461.69 334.184 1463.96 Q331.325 1466.24 326.059 1466.24 Q324.291 1466.24 322.41 1465.88 Q320.548 1465.54 318.555 1464.85 L318.555 1461.18 Q320.135 1462.1 322.015 1462.57 Q323.896 1463.04 325.946 1463.04 Q329.52 1463.04 331.382 1461.63 Q333.263 1460.22 333.263 1457.53 Q333.263 1455.05 331.513 1453.66 Q329.783 1452.25 326.68 1452.25 L323.407 1452.25 L323.407 1449.12 L326.83 1449.12 Q329.633 1449.12 331.118 1448.01 Q332.604 1446.89 332.604 1444.78 Q332.604 1442.62 331.062 1441.47 Q329.539 1440.3 326.68 1440.3 Q325.119 1440.3 323.332 1440.64 Q321.545 1440.98 319.401 1441.69 L319.401 1438.31 Q321.564 1437.71 323.445 1437.41 Q325.344 1437.11 327.018 1437.11 Q331.344 1437.11 333.864 1439.08 Q336.385 1441.04 336.385 1444.38 Q336.385 1446.72 335.049 1448.33 Q333.714 1449.93 331.25 1450.55 Z" fill="#000000" fill-rule="evenodd" fill-opacity="1" /><path clip-path="url(#clip670)" d="M 0 0 M638.525 1489.17 L646.164 1489.17 L646.164 1462.8 L637.854 1464.47 L637.854 1460.21 L646.118 1458.54 L650.794 1458.54 L650.794 1489.17 L658.433 1489.17 L658.433 1493.1 L638.525 1493.1 L638.525 1489.17 Z" fill="#000000" fill-rule="evenodd" fill-opacity="1" /><path clip-path="url(#clip670)" d="M 0 0 M673.502 1461.62 Q669.891 1461.62 668.062 1465.19 Q666.257 1468.73 666.257 1475.86 Q666.257 1482.97 668.062 1486.53 Q669.891 1490.07 673.502 1490.07 Q677.136 1490.07 678.942 1486.53 Q680.77 1482.97 680.77 1475.86 Q680.77 1468.73 678.942 1465.19 Q677.136 1461.62 673.502 1461.62 M673.502 1457.92 Q679.312 1457.92 682.368 1462.53 Q685.446 1467.11 685.446 1475.86 Q685.446 1484.59 682.368 1489.19 Q679.312 1493.78 673.502 1493.78 Q667.692 1493.78 664.613 1489.19 Q661.558 1484.59 661.558 1475.86 Q661.558 1467.11 664.613 1462.53 Q667.692 1457.92 673.502 1457.92 Z" fill="#000000" fill-rule="evenodd" fill-opacity="1" /><path clip-path="url(#clip670)" d="M 0 0 M685.446 1452.02 L709.558 1452.02 L709.558 1455.22 L685.446 1455.22 L685.446 1452.02 Z" fill="#000000" fill-rule="evenodd" fill-opacity="1" /><path clip-path="url(#clip670)" d="M 0 0 M721.802 1440.11 Q718.868 1440.11 717.382 1443.01 Q715.915 1445.89 715.915 1451.68 Q715.915 1457.46 717.382 1460.35 Q718.868 1463.23 721.802 1463.23 Q724.755 1463.23 726.222 1460.35 Q727.707 1457.46 727.707 1451.68 Q727.707 1445.89 726.222 1443.01 Q724.755 1440.11 721.802 1440.11 M721.802 1437.11 Q726.523 1437.11 729.005 1440.85 Q731.507 1444.57 731.507 1451.68 Q731.507 1458.77 729.005 1462.51 Q726.523 1466.24 721.802 1466.24 Q717.081 1466.24 714.58 1462.51 Q712.097 1458.77 712.097 1451.68 Q712.097 1444.57 714.58 1440.85 Q717.081 1437.11 721.802 1437.11 Z" fill="#000000" fill-rule="evenodd" fill-opacity="1" /><path clip-path="url(#clip670)" d="M 0 0 M735.625 1460.92 L739.594 1460.92 L739.594 1465.69 L735.625 1465.69 L735.625 1460.92 Z" fill="#000000" fill-rule="evenodd" fill-opacity="1" /><path clip-path="url(#clip670)" d="M 0 0 M746.985 1462.5 L760.245 1462.5 L760.245 1465.69 L742.415 1465.69 L742.415 1462.5 Q744.578 1460.26 748.302 1456.5 Q752.045 1452.72 753.004 1451.63 Q754.828 1449.58 755.543 1448.16 Q756.276 1446.74 756.276 1445.36 Q756.276 1443.12 754.697 1441.71 Q753.136 1440.3 750.615 1440.3 Q748.829 1440.3 746.835 1440.92 Q744.86 1441.54 742.603 1442.8 L742.603 1438.97 Q744.898 1438.05 746.891 1437.58 Q748.885 1437.11 750.54 1437.11 Q754.903 1437.11 757.499 1439.29 Q760.094 1441.47 760.094 1445.12 Q760.094 1446.85 759.436 1448.41 Q758.797 1449.95 757.085 1452.06 Q756.615 1452.6 754.095 1455.22 Q751.574 1457.81 746.985 1462.5 Z" fill="#000000" fill-rule="evenodd" fill-opacity="1" /><path clip-path="url(#clip670)" d="M 0 0 M1061.96 1489.17 L1069.6 1489.17 L1069.6 1462.8 L1061.29 1464.47 L1061.29 1460.21 L1069.55 1458.54 L1074.23 1458.54 L1074.23 1489.17 L1081.87 1489.17 L1081.87 1493.1 L1061.96 1493.1 L1061.96 1489.17 Z" fill="#000000" fill-rule="evenodd" fill-opacity="1" /><path clip-path="url(#clip670)" d="M 0 0 M1096.94 1461.62 Q1093.33 1461.62 1091.5 1465.19 Q1089.69 1468.73 1089.69 1475.86 Q1089.69 1482.97 1091.5 1486.53 Q1093.33 1490.07 1096.94 1490.07 Q1100.57 1490.07 1102.38 1486.53 Q1104.21 1482.97 1104.21 1475.86 Q1104.21 1468.73 1102.38 1465.19 Q1100.57 1461.62 1096.94 1461.62 M1096.94 1457.92 Q1102.75 1457.92 1105.8 1462.53 Q1108.88 1467.11 1108.88 1475.86 Q1108.88 1484.59 1105.8 1489.19 Q1102.75 1493.78 1096.94 1493.78 Q1091.13 1493.78 1088.05 1489.19 Q1084.99 1484.59 1084.99 1475.86 Q1084.99 1467.11 1088.05 1462.53 Q1091.13 1457.92 1096.94 1457.92 Z" fill="#000000" fill-rule="evenodd" fill-opacity="1" /><path clip-path="url(#clip670)" d="M 0 0 M1108.88 1452.02 L1132.99 1452.02 L1132.99 1455.22 L1108.88 1455.22 L1108.88 1452.02 Z" fill="#000000" fill-rule="evenodd" fill-opacity="1" /><path clip-path="url(#clip670)" d="M 0 0 M1145.24 1440.11 Q1142.3 1440.11 1140.82 1443.01 Q1139.35 1445.89 1139.35 1451.68 Q1139.35 1457.46 1140.82 1460.35 Q1142.3 1463.23 1145.24 1463.23 Q1148.19 1463.23 1149.66 1460.35 Q1151.14 1457.46 1151.14 1451.68 Q1151.14 1445.89 1149.66 1443.01 Q1148.19 1440.11 1145.24 1440.11 M1145.24 1437.11 Q1149.96 1437.11 1152.44 1440.85 Q1154.94 1444.57 1154.94 1451.68 Q1154.94 1458.77 1152.44 1462.51 Q1149.96 1466.24 1145.24 1466.24 Q1140.52 1466.24 1138.02 1462.51 Q1135.53 1458.77 1135.53 1451.68 Q1135.53 1444.57 1138.02 1440.85 Q1140.52 1437.11 1145.24 1437.11 Z" fill="#000000" fill-rule="evenodd" fill-opacity="1" /><path clip-path="url(#clip670)" d="M 0 0 M1159.06 1460.92 L1163.03 1460.92 L1163.03 1465.69 L1159.06 1465.69 L1159.06 1460.92 Z" fill="#000000" fill-rule="evenodd" fill-opacity="1" /><path clip-path="url(#clip670)" d="M 0 0 M1167.81 1462.5 L1174.01 1462.5 L1174.01 1441.07 L1167.26 1442.43 L1167.26 1438.97 L1173.98 1437.61 L1177.78 1437.61 L1177.78 1462.5 L1183.98 1462.5 L1183.98 1465.69 L1167.81 1465.69 L1167.81 1462.5 Z" fill="#000000" fill-rule="evenodd" fill-opacity="1" /><path clip-path="url(#clip670)" d="M 0 0 M1498.38 1489.17 L1506.02 1489.17 L1506.02 1462.8 L1497.71 1464.47 L1497.71 1460.21 L1505.97 1458.54 L1510.65 1458.54 L1510.65 1489.17 L1518.28 1489.17 L1518.28 1493.1 L1498.38 1493.1 L1498.38 1489.17 Z" fill="#000000" fill-rule="evenodd" fill-opacity="1" /><path clip-path="url(#clip670)" d="M 0 0 M1533.35 1461.62 Q1529.74 1461.62 1527.91 1465.19 Q1526.11 1468.73 1526.11 1475.86 Q1526.11 1482.97 1527.91 1486.53 Q1529.74 1490.07 1533.35 1490.07 Q1536.99 1490.07 1538.79 1486.53 Q1540.62 1482.97 1540.62 1475.86 Q1540.62 1468.73 1538.79 1465.19 Q1536.99 1461.62 1533.35 1461.62 M1533.35 1457.92 Q1539.16 1457.92 1542.22 1462.53 Q1545.3 1467.11 1545.3 1475.86 Q1545.3 1484.59 1542.22 1489.19 Q1539.16 1493.78 1533.35 1493.78 Q1527.54 1493.78 1524.46 1489.19 Q1521.41 1484.59 1521.41 1475.86 Q1521.41 1467.11 1524.46 1462.53 Q1527.54 1457.92 1533.35 1457.92 Z" fill="#000000" fill-rule="evenodd" fill-opacity="1" /><path clip-path="url(#clip670)" d="M 0 0 M1555 1440.11 Q1552.07 1440.11 1550.58 1443.01 Q1549.12 1445.89 1549.12 1451.68 Q1549.12 1457.46 1550.58 1460.35 Q1552.07 1463.23 1555 1463.23 Q1557.96 1463.23 1559.42 1460.35 Q1560.91 1457.46 1560.91 1451.68 Q1560.91 1445.89 1559.42 1443.01 Q1557.96 1440.11 1555 1440.11 M1555 1437.11 Q1559.72 1437.11 1562.21 1440.85 Q1564.71 1444.57 1564.71 1451.68 Q1564.71 1458.77 1562.21 1462.51 Q1559.72 1466.24 1555 1466.24 Q1550.28 1466.24 1547.78 1462.51 Q1545.3 1458.77 1545.3 1451.68 Q1545.3 1444.57 1547.78 1440.85 Q1550.28 1437.11 1555 1437.11 Z" fill="#000000" fill-rule="evenodd" fill-opacity="1" /><path clip-path="url(#clip670)" d="M 0 0 M1568.83 1460.92 L1572.79 1460.92 L1572.79 1465.69 L1568.83 1465.69 L1568.83 1460.92 Z" fill="#000000" fill-rule="evenodd" fill-opacity="1" /><path clip-path="url(#clip670)" d="M 0 0 M1585.04 1440.11 Q1582.1 1440.11 1580.62 1443.01 Q1579.15 1445.89 1579.15 1451.68 Q1579.15 1457.46 1580.62 1460.35 Q1582.1 1463.23 1585.04 1463.23 Q1587.99 1463.23 1589.46 1460.35 Q1590.94 1457.46 1590.94 1451.68 Q1590.94 1445.89 1589.46 1443.01 Q1587.99 1440.11 1585.04 1440.11 M1585.04 1437.11 Q1589.76 1437.11 1592.24 1440.85 Q1594.74 1444.57 1594.74 1451.68 Q1594.74 1458.77 1592.24 1462.51 Q1589.76 1466.24 1585.04 1466.24 Q1580.32 1466.24 1577.82 1462.51 Q1575.33 1458.77 1575.33 1451.68 Q1575.33 1444.57 1577.82 1440.85 Q1580.32 1437.11 1585.04 1437.11 Z" fill="#000000" fill-rule="evenodd" fill-opacity="1" /><path clip-path="url(#clip670)" d="M 0 0 M1922.46 1489.17 L1930.1 1489.17 L1930.1 1462.8 L1921.79 1464.47 L1921.79 1460.21 L1930.06 1458.54 L1934.73 1458.54 L1934.73 1489.17 L1942.37 1489.17 L1942.37 1493.1 L1922.46 1493.1 L1922.46 1489.17 Z" fill="#000000" fill-rule="evenodd" fill-opacity="1" /><path clip-path="url(#clip670)" d="M 0 0 M1957.44 1461.62 Q1953.83 1461.62 1952 1465.19 Q1950.19 1468.73 1950.19 1475.86 Q1950.19 1482.97 1952 1486.53 Q1953.83 1490.07 1957.44 1490.07 Q1961.07 1490.07 1962.88 1486.53 Q1964.71 1482.97 1964.71 1475.86 Q1964.71 1468.73 1962.88 1465.19 Q1961.07 1461.62 1957.44 1461.62 M1957.44 1457.92 Q1963.25 1457.92 1966.31 1462.53 Q1969.38 1467.11 1969.38 1475.86 Q1969.38 1484.59 1966.31 1489.19 Q1963.25 1493.78 1957.44 1493.78 Q1951.63 1493.78 1948.55 1489.19 Q1945.5 1484.59 1945.5 1475.86 Q1945.5 1467.11 1948.55 1462.53 Q1951.63 1457.92 1957.44 1457.92 Z" fill="#000000" fill-rule="evenodd" fill-opacity="1" /><path clip-path="url(#clip670)" d="M 0 0 M1979.09 1440.11 Q1976.15 1440.11 1974.67 1443.01 Q1973.2 1445.89 1973.2 1451.68 Q1973.2 1457.46 1974.67 1460.35 Q1976.15 1463.23 1979.09 1463.23 Q1982.04 1463.23 1983.51 1460.35 Q1984.99 1457.46 1984.99 1451.68 Q1984.99 1445.89 1983.51 1443.01 Q1982.04 1440.11 1979.09 1440.11 M1979.09 1437.11 Q1983.81 1437.11 1986.29 1440.85 Q1988.79 1444.57 1988.79 1451.68 Q1988.79 1458.77 1986.29 1462.51 Q1983.81 1466.24 1979.09 1466.24 Q1974.37 1466.24 1971.87 1462.51 Q1969.38 1458.77 1969.38 1451.68 Q1969.38 1444.57 1971.87 1440.85 Q1974.37 1437.11 1979.09 1437.11 Z" fill="#000000" fill-rule="evenodd" fill-opacity="1" /><path clip-path="url(#clip670)" d="M 0 0 M1992.91 1460.92 L1996.88 1460.92 L1996.88 1465.69 L1992.91 1465.69 L1992.91 1460.92 Z" fill="#000000" fill-rule="evenodd" fill-opacity="1" /><path clip-path="url(#clip670)" d="M 0 0 M2001.66 1462.5 L2007.86 1462.5 L2007.86 1441.07 L2001.11 1442.43 L2001.11 1438.97 L2007.83 1437.61 L2011.63 1437.61 L2011.63 1462.5 L2017.83 1462.5 L2017.83 1465.69 L2001.66 1465.69 L2001.66 1462.5 Z" fill="#000000" fill-rule="evenodd" fill-opacity="1" /><path clip-path="url(#clip670)" d="M 0 0 M1286.82 1545.6 L1285.42 1538.25 Q1283.98 1530.71 1278.32 1530.71 Q1274.05 1530.71 1272.11 1534.21 Q1269.66 1538.6 1269.66 1544.39 Q1269.66 1551.4 1272.05 1554.74 Q1274.47 1558.14 1278.32 1558.14 Q1282.58 1558.14 1284.87 1551.36 L1286.82 1545.6 M1290.09 1535.86 L1293.25 1526.54 L1298.47 1526.54 L1291.94 1545.86 L1293.21 1552.83 Q1293.5 1554.39 1294.61 1555.69 Q1295.92 1557.22 1296.94 1557.22 L1299.74 1557.22 L1299.74 1562.19 L1296.24 1562.19 Q1293.25 1562.19 1290.57 1559.51 Q1289.27 1558.18 1288.73 1555.37 Q1287.26 1558.91 1284.27 1561.68 Q1282.87 1562.98 1278.32 1562.98 Q1270.84 1562.98 1267.21 1558.14 Q1263.49 1553.15 1263.49 1544.39 Q1263.49 1535.04 1267.53 1530.64 Q1272.02 1525.74 1278.32 1525.74 Q1288.22 1525.74 1290.09 1535.86 Z" fill="#000000" fill-rule="evenodd" fill-opacity="1" /><polyline clip-path="url(#clip672)" style="stroke:#000000; stroke-width:2; stroke-opacity:0.1; fill:none" points="
  210.468,1360.66 2352.76,1360.66 
  "/>
<polyline clip-path="url(#clip672)" style="stroke:#000000; stroke-width:2; stroke-opacity:0.1; fill:none" points="
  210.468,1166.38 2352.76,1166.38 
  "/>
<polyline clip-path="url(#clip672)" style="stroke:#000000; stroke-width:2; stroke-opacity:0.1; fill:none" points="
  210.468,972.097 2352.76,972.097 
  "/>
<polyline clip-path="url(#clip672)" style="stroke:#000000; stroke-width:2; stroke-opacity:0.1; fill:none" points="
  210.468,777.815 2352.76,777.815 
  "/>
<polyline clip-path="url(#clip672)" style="stroke:#000000; stroke-width:2; stroke-opacity:0.1; fill:none" points="
  210.468,583.532 2352.76,583.532 
  "/>
<polyline clip-path="url(#clip672)" style="stroke:#000000; stroke-width:2; stroke-opacity:0.1; fill:none" points="
  210.468,389.25 2352.76,389.25 
  "/>
<polyline clip-path="url(#clip672)" style="stroke:#000000; stroke-width:2; stroke-opacity:0.1; fill:none" points="
  210.468,194.968 2352.76,194.968 
  "/>
<polyline clip-path="url(#clip670)" style="stroke:#000000; stroke-width:4; stroke-opacity:1; fill:none" points="
  210.468,1410.9 210.468,47.2441 
  "/>
<polyline clip-path="url(#clip670)" style="stroke:#000000; stroke-width:4; stroke-opacity:1; fill:none" points="
  210.468,1360.66 236.176,1360.66 
  "/>
<polyline clip-path="url(#clip670)" style="stroke:#000000; stroke-width:4; stroke-opacity:1; fill:none" points="
  210.468,1166.38 236.176,1166.38 
  "/>
<polyline clip-path="url(#clip670)" style="stroke:#000000; stroke-width:4; stroke-opacity:1; fill:none" points="
  210.468,972.097 236.176,972.097 
  "/>
<polyline clip-path="url(#clip670)" style="stroke:#000000; stroke-width:4; stroke-opacity:1; fill:none" points="
  210.468,777.815 236.176,777.815 
  "/>
<polyline clip-path="url(#clip670)" style="stroke:#000000; stroke-width:4; stroke-opacity:1; fill:none" points="
  210.468,583.532 236.176,583.532 
  "/>
<polyline clip-path="url(#clip670)" style="stroke:#000000; stroke-width:4; stroke-opacity:1; fill:none" points="
  210.468,389.25 236.176,389.25 
  "/>
<polyline clip-path="url(#clip670)" style="stroke:#000000; stroke-width:4; stroke-opacity:1; fill:none" points="
  210.468,194.968 236.176,194.968 
  "/>
<path clip-path="url(#clip670)" d="M 0 0 M130.371 1359.31 Q133.728 1360.02 135.603 1362.29 Q137.501 1364.56 137.501 1367.9 Q137.501 1373.01 133.982 1375.81 Q130.464 1378.61 123.982 1378.61 Q121.806 1378.61 119.492 1378.17 Q117.2 1377.76 114.746 1376.9 L114.746 1372.39 Q116.691 1373.52 119.006 1374.1 Q121.32 1374.68 123.843 1374.68 Q128.242 1374.68 130.533 1372.94 Q132.848 1371.21 132.848 1367.9 Q132.848 1364.84 130.695 1363.13 Q128.566 1361.39 124.746 1361.39 L120.718 1361.39 L120.718 1357.55 L124.931 1357.55 Q128.38 1357.55 130.209 1356.18 Q132.038 1354.79 132.038 1352.2 Q132.038 1349.54 130.14 1348.13 Q128.265 1346.69 124.746 1346.69 Q122.825 1346.69 120.626 1347.11 Q118.427 1347.52 115.788 1348.4 L115.788 1344.24 Q118.45 1343.5 120.765 1343.13 Q123.103 1342.76 125.163 1342.76 Q130.487 1342.76 133.589 1345.19 Q136.691 1347.59 136.691 1351.71 Q136.691 1354.59 135.047 1356.58 Q133.404 1358.54 130.371 1359.31 Z" fill="#000000" fill-rule="evenodd" fill-opacity="1" /><path clip-path="url(#clip670)" d="M 0 0 M142.57 1372.06 L147.454 1372.06 L147.454 1377.94 L142.57 1377.94 L142.57 1372.06 Z" fill="#000000" fill-rule="evenodd" fill-opacity="1" /><path clip-path="url(#clip670)" d="M 0 0 M162.524 1346.46 Q158.913 1346.46 157.084 1350.02 Q155.278 1353.57 155.278 1360.7 Q155.278 1367.8 157.084 1371.37 Q158.913 1374.91 162.524 1374.91 Q166.158 1374.91 167.964 1371.37 Q169.792 1367.8 169.792 1360.7 Q169.792 1353.57 167.964 1350.02 Q166.158 1346.46 162.524 1346.46 M162.524 1342.76 Q168.334 1342.76 171.389 1347.36 Q174.468 1351.95 174.468 1360.7 Q174.468 1369.42 171.389 1374.03 Q168.334 1378.61 162.524 1378.61 Q156.714 1378.61 153.635 1374.03 Q150.579 1369.42 150.579 1360.7 Q150.579 1351.95 153.635 1347.36 Q156.714 1342.76 162.524 1342.76 Z" fill="#000000" fill-rule="evenodd" fill-opacity="1" /><path clip-path="url(#clip670)" d="M 0 0 M131.598 1165.03 Q134.954 1165.74 136.829 1168.01 Q138.728 1170.28 138.728 1173.61 Q138.728 1178.73 135.209 1181.53 Q131.691 1184.33 125.209 1184.33 Q123.033 1184.33 120.718 1183.89 Q118.427 1183.47 115.973 1182.62 L115.973 1178.1 Q117.918 1179.24 120.232 1179.82 Q122.547 1180.4 125.07 1180.4 Q129.468 1180.4 131.76 1178.66 Q134.075 1176.92 134.075 1173.61 Q134.075 1170.56 131.922 1168.84 Q129.792 1167.11 125.973 1167.11 L121.945 1167.11 L121.945 1163.27 L126.158 1163.27 Q129.607 1163.27 131.436 1161.9 Q133.265 1160.51 133.265 1157.92 Q133.265 1155.26 131.367 1153.84 Q129.492 1152.41 125.973 1152.41 Q124.052 1152.41 121.853 1152.83 Q119.654 1153.24 117.015 1154.12 L117.015 1149.96 Q119.677 1149.21 121.992 1148.84 Q124.33 1148.47 126.39 1148.47 Q131.714 1148.47 134.816 1150.9 Q137.917 1153.31 137.917 1157.43 Q137.917 1160.3 136.274 1162.29 Q134.63 1164.26 131.598 1165.03 Z" fill="#000000" fill-rule="evenodd" fill-opacity="1" /><path clip-path="url(#clip670)" d="M 0 0 M143.797 1177.78 L148.681 1177.78 L148.681 1183.66 L143.797 1183.66 L143.797 1177.78 Z" fill="#000000" fill-rule="evenodd" fill-opacity="1" /><path clip-path="url(#clip670)" d="M 0 0 M154.561 1179.72 L162.2 1179.72 L162.2 1153.36 L153.89 1155.03 L153.89 1150.77 L162.153 1149.1 L166.829 1149.1 L166.829 1179.72 L174.468 1179.72 L174.468 1183.66 L154.561 1183.66 L154.561 1179.72 Z" fill="#000000" fill-rule="evenodd" fill-opacity="1" /><path clip-path="url(#clip670)" d="M 0 0 M131.968 970.743 Q135.325 971.46 137.2 973.729 Q139.098 975.997 139.098 979.331 Q139.098 984.446 135.579 987.247 Q132.061 990.048 125.58 990.048 Q123.404 990.048 121.089 989.608 Q118.797 989.192 116.343 988.335 L116.343 983.821 Q118.288 984.956 120.603 985.534 Q122.918 986.113 125.441 986.113 Q129.839 986.113 132.13 984.377 Q134.445 982.641 134.445 979.331 Q134.445 976.275 132.292 974.562 Q130.163 972.826 126.343 972.826 L122.316 972.826 L122.316 968.984 L126.529 968.984 Q129.978 968.984 131.806 967.618 Q133.635 966.229 133.635 963.636 Q133.635 960.974 131.737 959.562 Q129.862 958.127 126.343 958.127 Q124.422 958.127 122.223 958.544 Q120.024 958.96 117.385 959.84 L117.385 955.673 Q120.047 954.933 122.362 954.562 Q124.7 954.192 126.76 954.192 Q132.084 954.192 135.186 956.623 Q138.288 959.03 138.288 963.15 Q138.288 966.021 136.644 968.011 Q135.001 969.979 131.968 970.743 Z" fill="#000000" fill-rule="evenodd" fill-opacity="1" /><path clip-path="url(#clip670)" d="M 0 0 M144.167 983.497 L149.052 983.497 L149.052 989.377 L144.167 989.377 L144.167 983.497 Z" fill="#000000" fill-rule="evenodd" fill-opacity="1" /><path clip-path="url(#clip670)" d="M 0 0 M158.149 985.442 L174.468 985.442 L174.468 989.377 L152.524 989.377 L152.524 985.442 Q155.186 982.687 159.769 978.058 Q164.376 973.405 165.556 972.062 Q167.802 969.539 168.681 967.803 Q169.584 966.044 169.584 964.354 Q169.584 961.599 167.64 959.863 Q165.718 958.127 162.616 958.127 Q160.417 958.127 157.964 958.891 Q155.533 959.655 152.755 961.206 L152.755 956.484 Q155.579 955.349 158.033 954.771 Q160.487 954.192 162.524 954.192 Q167.894 954.192 171.089 956.877 Q174.283 959.562 174.283 964.053 Q174.283 966.183 173.473 968.104 Q172.686 970.002 170.579 972.595 Q170.001 973.266 166.899 976.484 Q163.797 979.678 158.149 985.442 Z" fill="#000000" fill-rule="evenodd" fill-opacity="1" /><path clip-path="url(#clip670)" d="M 0 0 M131.019 776.461 Q134.376 777.178 136.251 779.447 Q138.149 781.715 138.149 785.048 Q138.149 790.164 134.63 792.965 Q131.112 795.766 124.63 795.766 Q122.455 795.766 120.14 795.326 Q117.848 794.91 115.394 794.053 L115.394 789.539 Q117.339 790.673 119.654 791.252 Q121.968 791.831 124.492 791.831 Q128.89 791.831 131.181 790.095 Q133.496 788.359 133.496 785.048 Q133.496 781.993 131.343 780.28 Q129.214 778.544 125.394 778.544 L121.367 778.544 L121.367 774.701 L125.58 774.701 Q129.029 774.701 130.857 773.336 Q132.686 771.947 132.686 769.354 Q132.686 766.692 130.788 765.28 Q128.913 763.845 125.394 763.845 Q123.473 763.845 121.274 764.262 Q119.075 764.678 116.436 765.558 L116.436 761.391 Q119.098 760.65 121.413 760.28 Q123.751 759.91 125.811 759.91 Q131.135 759.91 134.237 762.34 Q137.339 764.748 137.339 768.868 Q137.339 771.738 135.695 773.729 Q134.052 775.697 131.019 776.461 Z" fill="#000000" fill-rule="evenodd" fill-opacity="1" /><path clip-path="url(#clip670)" d="M 0 0 M143.218 789.215 L148.103 789.215 L148.103 795.095 L143.218 795.095 L143.218 789.215 Z" fill="#000000" fill-rule="evenodd" fill-opacity="1" /><path clip-path="url(#clip670)" d="M 0 0 M167.339 776.461 Q170.695 777.178 172.57 779.447 Q174.468 781.715 174.468 785.048 Q174.468 790.164 170.95 792.965 Q167.431 795.766 160.95 795.766 Q158.774 795.766 156.459 795.326 Q154.167 794.91 151.714 794.053 L151.714 789.539 Q153.658 790.673 155.973 791.252 Q158.288 791.831 160.811 791.831 Q165.209 791.831 167.501 790.095 Q169.815 788.359 169.815 785.048 Q169.815 781.993 167.663 780.28 Q165.533 778.544 161.714 778.544 L157.686 778.544 L157.686 774.701 L161.899 774.701 Q165.348 774.701 167.177 773.336 Q169.005 771.947 169.005 769.354 Q169.005 766.692 167.107 765.28 Q165.232 763.845 161.714 763.845 Q159.792 763.845 157.593 764.262 Q155.394 764.678 152.755 765.558 L152.755 761.391 Q155.417 760.65 157.732 760.28 Q160.07 759.91 162.13 759.91 Q167.454 759.91 170.556 762.34 Q173.658 764.748 173.658 768.868 Q173.658 771.738 172.014 773.729 Q170.371 775.697 167.339 776.461 Z" fill="#000000" fill-rule="evenodd" fill-opacity="1" /><path clip-path="url(#clip670)" d="M 0 0 M129.885 582.178 Q133.242 582.896 135.117 585.164 Q137.015 587.433 137.015 590.766 Q137.015 595.882 133.496 598.683 Q129.978 601.484 123.496 601.484 Q121.32 601.484 119.006 601.044 Q116.714 600.627 114.26 599.771 L114.26 595.257 Q116.205 596.391 118.519 596.97 Q120.834 597.549 123.357 597.549 Q127.755 597.549 130.047 595.813 Q132.362 594.076 132.362 590.766 Q132.362 587.711 130.209 585.998 Q128.08 584.262 124.26 584.262 L120.232 584.262 L120.232 580.419 L124.445 580.419 Q127.894 580.419 129.723 579.053 Q131.552 577.664 131.552 575.072 Q131.552 572.41 129.654 570.998 Q127.779 569.563 124.26 569.563 Q122.339 569.563 120.14 569.979 Q117.941 570.396 115.302 571.276 L115.302 567.109 Q117.964 566.368 120.279 565.998 Q122.617 565.627 124.677 565.627 Q130.001 565.627 133.103 568.058 Q136.204 570.465 136.204 574.586 Q136.204 577.456 134.561 579.447 Q132.917 581.414 129.885 582.178 Z" fill="#000000" fill-rule="evenodd" fill-opacity="1" /><path clip-path="url(#clip670)" d="M 0 0 M142.084 594.933 L146.968 594.933 L146.968 600.812 L142.084 600.812 L142.084 594.933 Z" fill="#000000" fill-rule="evenodd" fill-opacity="1" /><path clip-path="url(#clip670)" d="M 0 0 M164.885 570.327 L153.079 588.776 L164.885 588.776 L164.885 570.327 M163.658 566.252 L169.538 566.252 L169.538 588.776 L174.468 588.776 L174.468 592.664 L169.538 592.664 L169.538 600.812 L164.885 600.812 L164.885 592.664 L149.283 592.664 L149.283 588.151 L163.658 566.252 Z" fill="#000000" fill-rule="evenodd" fill-opacity="1" /><path clip-path="url(#clip670)" d="M 0 0 M131.367 387.896 Q134.723 388.614 136.598 390.882 Q138.496 393.151 138.496 396.484 Q138.496 401.6 134.978 404.401 Q131.459 407.202 124.978 407.202 Q122.802 407.202 120.487 406.762 Q118.195 406.345 115.742 405.489 L115.742 400.975 Q117.686 402.109 120.001 402.688 Q122.316 403.266 124.839 403.266 Q129.237 403.266 131.529 401.53 Q133.843 399.794 133.843 396.484 Q133.843 393.428 131.691 391.716 Q129.561 389.979 125.742 389.979 L121.714 389.979 L121.714 386.137 L125.927 386.137 Q129.376 386.137 131.205 384.771 Q133.033 383.382 133.033 380.79 Q133.033 378.128 131.135 376.716 Q129.26 375.28 125.742 375.28 Q123.82 375.28 121.621 375.697 Q119.422 376.114 116.783 376.993 L116.783 372.827 Q119.445 372.086 121.76 371.716 Q124.098 371.345 126.158 371.345 Q131.482 371.345 134.584 373.776 Q137.686 376.183 137.686 380.304 Q137.686 383.174 136.042 385.165 Q134.399 387.132 131.367 387.896 Z" fill="#000000" fill-rule="evenodd" fill-opacity="1" /><path clip-path="url(#clip670)" d="M 0 0 M143.566 400.651 L148.45 400.651 L148.45 406.53 L143.566 406.53 L143.566 400.651 Z" fill="#000000" fill-rule="evenodd" fill-opacity="1" /><path clip-path="url(#clip670)" d="M 0 0 M153.566 371.97 L171.922 371.97 L171.922 375.905 L157.848 375.905 L157.848 384.378 Q158.866 384.03 159.885 383.868 Q160.903 383.683 161.922 383.683 Q167.709 383.683 171.089 386.854 Q174.468 390.026 174.468 395.442 Q174.468 401.021 170.996 404.123 Q167.524 407.202 161.204 407.202 Q159.028 407.202 156.76 406.831 Q154.515 406.461 152.107 405.72 L152.107 401.021 Q154.19 402.155 156.413 402.711 Q158.635 403.266 161.112 403.266 Q165.116 403.266 167.454 401.16 Q169.792 399.053 169.792 395.442 Q169.792 391.831 167.454 389.725 Q165.116 387.618 161.112 387.618 Q159.237 387.618 157.362 388.035 Q155.51 388.452 153.566 389.331 L153.566 371.97 Z" fill="#000000" fill-rule="evenodd" fill-opacity="1" /><path clip-path="url(#clip670)" d="M 0 0 M130.209 193.614 Q133.566 194.331 135.441 196.6 Q137.339 198.868 137.339 202.202 Q137.339 207.317 133.82 210.118 Q130.302 212.919 123.82 212.919 Q121.644 212.919 119.33 212.479 Q117.038 212.063 114.584 211.206 L114.584 206.692 Q116.529 207.827 118.843 208.405 Q121.158 208.984 123.681 208.984 Q128.08 208.984 130.371 207.248 Q132.686 205.512 132.686 202.202 Q132.686 199.146 130.533 197.433 Q128.404 195.697 124.584 195.697 L120.556 195.697 L120.556 191.855 L124.769 191.855 Q128.218 191.855 130.047 190.489 Q131.876 189.1 131.876 186.507 Q131.876 183.845 129.978 182.433 Q128.103 180.998 124.584 180.998 Q122.663 180.998 120.464 181.415 Q118.265 181.832 115.626 182.711 L115.626 178.544 Q118.288 177.804 120.603 177.433 Q122.941 177.063 125.001 177.063 Q130.325 177.063 133.427 179.494 Q136.529 181.901 136.529 186.021 Q136.529 188.892 134.885 190.882 Q133.242 192.85 130.209 193.614 Z" fill="#000000" fill-rule="evenodd" fill-opacity="1" /><path clip-path="url(#clip670)" d="M 0 0 M142.408 206.368 L147.292 206.368 L147.292 212.248 L142.408 212.248 L142.408 206.368 Z" fill="#000000" fill-rule="evenodd" fill-opacity="1" /><path clip-path="url(#clip670)" d="M 0 0 M162.94 193.105 Q159.792 193.105 157.94 195.257 Q156.112 197.41 156.112 201.16 Q156.112 204.887 157.94 207.063 Q159.792 209.216 162.94 209.216 Q166.089 209.216 167.917 207.063 Q169.769 204.887 169.769 201.16 Q169.769 197.41 167.917 195.257 Q166.089 193.105 162.94 193.105 M172.223 178.452 L172.223 182.711 Q170.464 181.878 168.658 181.438 Q166.876 180.998 165.116 180.998 Q160.487 180.998 158.033 184.123 Q155.603 187.248 155.255 193.568 Q156.621 191.554 158.681 190.489 Q160.741 189.401 163.218 189.401 Q168.427 189.401 171.436 192.572 Q174.468 195.72 174.468 201.16 Q174.468 206.484 171.32 209.702 Q168.172 212.919 162.94 212.919 Q156.945 212.919 153.774 208.336 Q150.603 203.73 150.603 195.003 Q150.603 186.808 154.491 181.947 Q158.38 177.063 164.931 177.063 Q166.69 177.063 168.473 177.41 Q170.278 177.757 172.223 178.452 Z" fill="#000000" fill-rule="evenodd" fill-opacity="1" /><path clip-path="url(#clip670)" d="M 0 0 M59.1993 815.533 Q55.2526 813.336 53.3747 810.281 Q51.4968 807.225 51.4968 803.088 Q51.4968 797.518 55.4117 794.494 Q59.2948 791.47 66.4881 791.47 L88.0042 791.47 L88.0042 797.358 L66.679 797.358 Q61.5546 797.358 59.072 799.173 Q56.5894 800.987 56.5894 804.711 Q56.5894 809.262 59.6131 811.904 Q62.6368 814.546 67.8567 814.546 L88.0042 814.546 L88.0042 820.434 L66.679 820.434 Q61.5228 820.434 59.072 822.248 Q56.5894 824.063 56.5894 827.85 Q56.5894 832.338 59.6449 834.98 Q62.6686 837.622 67.8567 837.622 L88.0042 837.622 L88.0042 843.51 L52.3562 843.51 L52.3562 837.622 L57.8944 837.622 Q54.616 835.616 53.0564 832.815 Q51.4968 830.015 51.4968 826.163 Q51.4968 822.28 53.4702 819.575 Q55.4436 816.838 59.1993 815.533 Z" fill="#000000" fill-rule="evenodd" fill-opacity="1" /><path clip-path="url(#clip670)" d="M 0 0 M52.3562 785.327 L52.3562 779.471 L88.0042 779.471 L88.0042 785.327 L52.3562 785.327 M38.479 785.327 L38.479 779.471 L45.895 779.471 L45.895 785.327 L38.479 785.327 Z" fill="#000000" fill-rule="evenodd" fill-opacity="1" /><path clip-path="url(#clip670)" d="M 0 0 M66.4881 743.696 L88.0042 743.696 L88.0042 749.552 L66.679 749.552 Q61.6183 749.552 59.1038 751.525 Q56.5894 753.499 56.5894 757.446 Q56.5894 762.188 59.6131 764.925 Q62.6368 767.662 67.8567 767.662 L88.0042 767.662 L88.0042 773.551 L52.3562 773.551 L52.3562 767.662 L57.8944 767.662 Q54.6797 765.562 53.0883 762.729 Q51.4968 759.864 51.4968 756.141 Q51.4968 749.998 55.3163 746.847 Q59.1038 743.696 66.4881 743.696 Z" fill="#000000" fill-rule="evenodd" fill-opacity="1" /><path clip-path="url(#clip670)" d="M 0 0 M98.8259 710.467 L103.377 710.467 L103.377 744.332 L98.8259 744.332 L98.8259 710.467 Z" fill="#000000" fill-rule="evenodd" fill-opacity="1" /><path clip-path="url(#clip670)" d="M 0 0 M57.7671 680.866 L38.479 680.866 L38.479 675.01 L88.0042 675.01 L88.0042 680.866 L82.657 680.866 Q85.8398 682.712 87.3994 685.545 Q88.9272 688.346 88.9272 692.292 Q88.9272 698.754 83.771 702.828 Q78.6147 706.87 70.212 706.87 Q61.8093 706.87 56.6531 702.828 Q51.4968 698.754 51.4968 692.292 Q51.4968 688.346 53.0564 685.545 Q54.5842 682.712 57.7671 680.866 M70.212 700.823 Q76.6732 700.823 80.3653 698.181 Q84.0256 695.507 84.0256 690.86 Q84.0256 686.213 80.3653 683.54 Q76.6732 680.866 70.212 680.866 Q63.7508 680.866 60.0905 683.54 Q56.3984 686.213 56.3984 690.86 Q56.3984 695.507 60.0905 698.181 Q63.7508 700.823 70.212 700.823 Z" fill="#000000" fill-rule="evenodd" fill-opacity="1" /><path clip-path="url(#clip670)" d="M 0 0 M52.3562 668.867 L52.3562 663.01 L88.0042 663.01 L88.0042 668.867 L52.3562 668.867 M38.479 668.867 L38.479 663.01 L45.895 663.01 L45.895 668.867 L38.479 668.867 Z" fill="#000000" fill-rule="evenodd" fill-opacity="1" /><path clip-path="url(#clip670)" d="M 0 0 M38.479 638.821 L43.3487 638.821 L43.3487 644.422 Q43.3487 647.573 44.6219 648.815 Q45.895 650.024 49.2052 650.024 L52.3562 650.024 L52.3562 640.38 L56.9077 640.38 L56.9077 650.024 L88.0042 650.024 L88.0042 655.912 L56.9077 655.912 L56.9077 661.514 L52.3562 661.514 L52.3562 655.912 L49.8736 655.912 Q43.9216 655.912 41.2162 653.143 Q38.479 650.374 38.479 644.359 L38.479 638.821 Z" fill="#000000" fill-rule="evenodd" fill-opacity="1" /><path clip-path="url(#clip670)" d="M 0 0 M38.479 614.631 L43.3487 614.631 L43.3487 620.233 Q43.3487 623.384 44.6219 624.625 Q45.895 625.835 49.2052 625.835 L52.3562 625.835 L52.3562 616.19 L56.9077 616.19 L56.9077 625.835 L88.0042 625.835 L88.0042 631.723 L56.9077 631.723 L56.9077 637.325 L52.3562 637.325 L52.3562 631.723 L49.8736 631.723 Q43.9216 631.723 41.2162 628.954 Q38.479 626.185 38.479 620.169 L38.479 614.631 Z" fill="#000000" fill-rule="evenodd" fill-opacity="1" /><polyline clip-path="url(#clip672)" style="stroke:#009af9; stroke-width:20; stroke-opacity:1; fill:none" stroke-dasharray="80, 50" points="
  271.099,85.838 606.501,1112.35 890.079,1372.3 1135.73,1347.59 1352.4,1296.66 1546.22,1316.48 1721.56,1330.07 1881.63,1234.4 2028.87,1250.46 2165.2,1307.69 
  2292.13,1311.49 
  "/>
<path clip-path="url(#clip670)" d="
M1992.3 213.659 L2281.35 213.659 L2281.35 92.6992 L1992.3 92.6992  Z
  " fill="#ffffff" fill-rule="evenodd" fill-opacity="1"/>
<polyline clip-path="url(#clip670)" style="stroke:#000000; stroke-width:4; stroke-opacity:1; fill:none" points="
  1992.3,213.659 2281.35,213.659 2281.35,92.6992 1992.3,92.6992 1992.3,213.659 
  "/>
<polyline clip-path="url(#clip670)" style="stroke:#009af9; stroke-width:4; stroke-opacity:1; fill:none" stroke-dasharray="16, 10" points="
  2016.1,153.179 2158.92,153.179 
  "/>
<path clip-path="url(#clip670)" d="M 0 0 M2196.56 172.867 Q2194.76 177.496 2193.05 178.908 Q2191.33 180.32 2188.46 180.32 L2185.06 180.32 L2185.06 176.755 L2187.56 176.755 Q2189.32 176.755 2190.29 175.922 Q2191.26 175.089 2192.44 171.987 L2193.21 170.043 L2182.72 144.533 L2187.24 144.533 L2195.34 164.811 L2203.44 144.533 L2207.95 144.533 L2196.56 172.867 Z" fill="#000000" fill-rule="evenodd" fill-opacity="1" /><path clip-path="url(#clip670)" d="M 0 0 M2213.83 166.524 L2221.47 166.524 L2221.47 140.158 L2213.16 141.825 L2213.16 137.566 L2221.43 135.899 L2226.1 135.899 L2226.1 166.524 L2233.74 166.524 L2233.74 170.459 L2213.83 170.459 L2213.83 166.524 Z" fill="#000000" fill-rule="evenodd" fill-opacity="1" /></svg>
