<?xml version="1.0" encoding="utf-8"?>
<svg xmlns="http://www.w3.org/2000/svg" xmlns:xlink="http://www.w3.org/1999/xlink" width="600" height="400" viewBox="0 0 2400 1600">
<defs>
  <clipPath id="clip670">
    <rect x="0" y="0" width="2400" height="1600"/>
  </clipPath>
</defs>
<path clip-path="url(#clip670)" d="
M0 1600 L2400 1600 L2400 0 L0 0  Z
  " fill="#ffffff" fill-rule="evenodd" fill-opacity="1"/>
<defs>
  <clipPath id="clip671">
    <rect x="480" y="0" width="1681" height="1600"/>
  </clipPath>
</defs>
<path clip-path="url(#clip670)" d="
M200.028 1410.9 L2352.76 1410.9 L2352.76 47.2441 L200.028 47.2441  Z
  " fill="#ffffff" fill-rule="evenodd" fill-opacity="1"/>
<defs>
  <clipPath id="clip672">
    <rect x="200" y="47" width="2154" height="1365"/>
  </clipPath>
</defs>
<polyline clip-path="url(#clip672)" style="stroke:#000000; stroke-width:2; stroke-opacity:0.1; fill:none" points="
  265.339,1410.9 265.339,47.2441 
  "/>
<polyline clip-path="url(#clip672)" style="stroke:#000000; stroke-width:2; stroke-opacity:0.1; fill:none" points="
  690.991,1410.9 690.991,47.2441 
  "/>
<polyline clip-path="url(#clip672)" style="stroke:#000000; stroke-width:2; stroke-opacity:0.1; fill:none" points="
  1116.64,1410.9 1116.64,47.2441 
  "/>
<polyline clip-path="url(#clip672)" style="stroke:#000000; stroke-width:2; stroke-opacity:0.1; fill:none" points="
  1542.29,1410.9 1542.29,47.2441 
  "/>
<polyline clip-path="url(#clip672)" style="stroke:#000000; stroke-width:2; stroke-opacity:0.1; fill:none" points="
  1967.95,1410.9 1967.95,47.2441 
  "/>
<polyline clip-path="url(#clip670)" style="stroke:#000000; stroke-width:4; stroke-opacity:1; fill:none" points="
  200.028,1410.9 2352.76,1410.9 
  "/>
<polyline clip-path="url(#clip670)" style="stroke:#000000; stroke-width:4; stroke-opacity:1; fill:none" points="
  265.339,1410.9 265.339,1394.53 
  "/>
<polyline clip-path="url(#clip670)" style="stroke:#000000; stroke-width:4; stroke-opacity:1; fill:none" points="
  690.991,1410.9 690.991,1394.53 
  "/>
<polyline clip-path="url(#clip670)" style="stroke:#000000; stroke-width:4; stroke-opacity:1; fill:none" points="
  1116.64,1410.9 1116.64,1394.53 
  "/>
<polyline clip-path="url(#clip670)" style="stroke:#000000; stroke-width:4; stroke-opacity:1; fill:none" points="
  1542.29,1410.9 1542.29,1394.53 
  "/>
<polyline clip-path="url(#clip670)" style="stroke:#000000; stroke-width:4; stroke-opacity:1; fill:none" points="
  1967.95,1410.9 1967.95,1394.53 
  "/>
<path clip-path="url(#clip670)" d="M 0 0 M204.429 1489.17 L212.068 1489.17 L212.068 1462.8 L203.758 1464.47 L203.758 1460.21 L212.022 1458.54 L216.698 1458.54 L216.698 1489.17 L224.336 1489.17 L224.336 1493.1 L204.429 1493.1 L204.429 1489.17 Z" fill="#000000" fill-rule="evenodd" fill-opacity="1" /><path clip-path="url(#clip670)" d="M 0 0 M239.406 1461.62 Q235.795 1461.62 233.966 1465.19 Q232.161 1468.73 232.161 1475.86 Q232.161 1482.97 233.966 1486.53 Q235.795 1490.07 239.406 1490.07 Q243.04 1490.07 244.846 1486.53 Q246.674 1482.97 246.674 1475.86 Q246.674 1468.73 244.846 1465.19 Q243.04 1461.62 239.406 1461.62 M239.406 1457.92 Q245.216 1457.92 248.272 1462.53 Q251.35 1467.11 251.35 1475.86 Q251.35 1484.59 248.272 1489.19 Q245.216 1493.78 239.406 1493.78 Q233.596 1493.78 230.517 1489.19 Q227.461 1484.59 227.461 1475.86 Q227.461 1467.11 230.517 1462.53 Q233.596 1457.92 239.406 1457.92 Z" fill="#000000" fill-rule="evenodd" fill-opacity="1" /><path clip-path="url(#clip670)" d="M 0 0 M251.35 1452.02 L275.462 1452.02 L275.462 1455.22 L251.35 1455.22 L251.35 1452.02 Z" fill="#000000" fill-rule="evenodd" fill-opacity="1" /><path clip-path="url(#clip670)" d="M 0 0 M287.706 1440.11 Q284.772 1440.11 283.286 1443.01 Q281.819 1445.89 281.819 1451.68 Q281.819 1457.46 283.286 1460.35 Q284.772 1463.23 287.706 1463.23 Q290.658 1463.23 292.125 1460.35 Q293.611 1457.46 293.611 1451.68 Q293.611 1445.89 292.125 1443.01 Q290.658 1440.11 287.706 1440.11 M287.706 1437.11 Q292.426 1437.11 294.909 1440.85 Q297.41 1444.57 297.41 1451.68 Q297.41 1458.77 294.909 1462.51 Q292.426 1466.24 287.706 1466.24 Q282.985 1466.24 280.483 1462.51 Q278.001 1458.77 278.001 1451.68 Q278.001 1444.57 280.483 1440.85 Q282.985 1437.11 287.706 1437.11 Z" fill="#000000" fill-rule="evenodd" fill-opacity="1" /><path clip-path="url(#clip670)" d="M 0 0 M301.529 1460.92 L305.498 1460.92 L305.498 1465.69 L301.529 1465.69 L301.529 1460.92 Z" fill="#000000" fill-rule="evenodd" fill-opacity="1" /><path clip-path="url(#clip670)" d="M 0 0 M321.127 1450.55 Q323.854 1451.14 325.378 1452.98 Q326.92 1454.82 326.92 1457.53 Q326.92 1461.69 324.061 1463.96 Q321.202 1466.24 315.936 1466.24 Q314.168 1466.24 312.287 1465.88 Q310.425 1465.54 308.432 1464.85 L308.432 1461.18 Q310.012 1462.1 311.892 1462.57 Q313.773 1463.04 315.823 1463.04 Q319.397 1463.04 321.259 1461.63 Q323.139 1460.22 323.139 1457.53 Q323.139 1455.05 321.39 1453.66 Q319.66 1452.25 316.557 1452.25 L313.284 1452.25 L313.284 1449.12 L316.707 1449.12 Q319.51 1449.12 320.995 1448.01 Q322.481 1446.89 322.481 1444.78 Q322.481 1442.62 320.939 1441.47 Q319.416 1440.3 316.557 1440.3 Q314.996 1440.3 313.209 1440.64 Q311.422 1440.98 309.278 1441.69 L309.278 1438.31 Q311.441 1437.71 313.322 1437.41 Q315.221 1437.11 316.895 1437.11 Q321.221 1437.11 323.741 1439.08 Q326.262 1441.04 326.262 1444.38 Q326.262 1446.72 324.926 1448.33 Q323.591 1449.93 321.127 1450.55 Z" fill="#000000" fill-rule="evenodd" fill-opacity="1" /><path clip-path="url(#clip670)" d="M 0 0 M630.466 1489.17 L638.105 1489.17 L638.105 1462.8 L629.795 1464.47 L629.795 1460.21 L638.059 1458.54 L642.735 1458.54 L642.735 1489.17 L650.374 1489.17 L650.374 1493.1 L630.466 1493.1 L630.466 1489.17 Z" fill="#000000" fill-rule="evenodd" fill-opacity="1" /><path clip-path="url(#clip670)" d="M 0 0 M665.443 1461.62 Q661.832 1461.62 660.003 1465.19 Q658.198 1468.73 658.198 1475.86 Q658.198 1482.97 660.003 1486.53 Q661.832 1490.07 665.443 1490.07 Q669.077 1490.07 670.883 1486.53 Q672.712 1482.97 672.712 1475.86 Q672.712 1468.73 670.883 1465.19 Q669.077 1461.62 665.443 1461.62 M665.443 1457.92 Q671.253 1457.92 674.309 1462.53 Q677.388 1467.11 677.388 1475.86 Q677.388 1484.59 674.309 1489.19 Q671.253 1493.78 665.443 1493.78 Q659.633 1493.78 656.554 1489.19 Q653.499 1484.59 653.499 1475.86 Q653.499 1467.11 656.554 1462.53 Q659.633 1457.92 665.443 1457.92 Z" fill="#000000" fill-rule="evenodd" fill-opacity="1" /><path clip-path="url(#clip670)" d="M 0 0 M677.388 1452.02 L701.499 1452.02 L701.499 1455.22 L677.388 1455.22 L677.388 1452.02 Z" fill="#000000" fill-rule="evenodd" fill-opacity="1" /><path clip-path="url(#clip670)" d="M 0 0 M713.743 1440.11 Q710.809 1440.11 709.323 1443.01 Q707.856 1445.89 707.856 1451.68 Q707.856 1457.46 709.323 1460.35 Q710.809 1463.23 713.743 1463.23 Q716.696 1463.23 718.163 1460.35 Q719.649 1457.46 719.649 1451.68 Q719.649 1445.89 718.163 1443.01 Q716.696 1440.11 713.743 1440.11 M713.743 1437.11 Q718.464 1437.11 720.946 1440.85 Q723.448 1444.57 723.448 1451.68 Q723.448 1458.77 720.946 1462.51 Q718.464 1466.24 713.743 1466.24 Q709.022 1466.24 706.521 1462.51 Q704.038 1458.77 704.038 1451.68 Q704.038 1444.57 706.521 1440.85 Q709.022 1437.11 713.743 1437.11 Z" fill="#000000" fill-rule="evenodd" fill-opacity="1" /><path clip-path="url(#clip670)" d="M 0 0 M727.567 1460.92 L731.535 1460.92 L731.535 1465.69 L727.567 1465.69 L727.567 1460.92 Z" fill="#000000" fill-rule="evenodd" fill-opacity="1" /><path clip-path="url(#clip670)" d="M 0 0 M738.927 1462.5 L752.186 1462.5 L752.186 1465.69 L734.356 1465.69 L734.356 1462.5 Q736.519 1460.26 740.243 1456.5 Q743.986 1452.72 744.945 1451.63 Q746.769 1449.58 747.484 1448.16 Q748.218 1446.74 748.218 1445.36 Q748.218 1443.12 746.638 1441.71 Q745.077 1440.3 742.556 1440.3 Q740.77 1440.3 738.776 1440.92 Q736.801 1441.54 734.544 1442.8 L734.544 1438.97 Q736.839 1438.05 738.833 1437.58 Q740.826 1437.11 742.481 1437.11 Q746.845 1437.11 749.44 1439.29 Q752.036 1441.47 752.036 1445.12 Q752.036 1446.85 751.377 1448.41 Q750.738 1449.95 749.026 1452.06 Q748.556 1452.6 746.036 1455.22 Q743.516 1457.81 738.927 1462.5 Z" fill="#000000" fill-rule="evenodd" fill-opacity="1" /><path clip-path="url(#clip670)" d="M 0 0 M1055.97 1489.17 L1063.61 1489.17 L1063.61 1462.8 L1055.3 1464.47 L1055.3 1460.21 L1063.56 1458.54 L1068.24 1458.54 L1068.24 1489.17 L1075.88 1489.17 L1075.88 1493.1 L1055.97 1493.1 L1055.97 1489.17 Z" fill="#000000" fill-rule="evenodd" fill-opacity="1" /><path clip-path="url(#clip670)" d="M 0 0 M1090.94 1461.62 Q1087.33 1461.62 1085.5 1465.19 Q1083.7 1468.73 1083.7 1475.86 Q1083.7 1482.97 1085.5 1486.53 Q1087.33 1490.07 1090.94 1490.07 Q1094.58 1490.07 1096.38 1486.53 Q1098.21 1482.97 1098.21 1475.86 Q1098.21 1468.73 1096.38 1465.19 Q1094.58 1461.62 1090.94 1461.62 M1090.94 1457.92 Q1096.75 1457.92 1099.81 1462.53 Q1102.89 1467.11 1102.89 1475.86 Q1102.89 1484.59 1099.81 1489.19 Q1096.75 1493.78 1090.94 1493.78 Q1085.13 1493.78 1082.06 1489.19 Q1079 1484.59 1079 1475.86 Q1079 1467.11 1082.06 1462.53 Q1085.13 1457.92 1090.94 1457.92 Z" fill="#000000" fill-rule="evenodd" fill-opacity="1" /><path clip-path="url(#clip670)" d="M 0 0 M1102.89 1452.02 L1127 1452.02 L1127 1455.22 L1102.89 1455.22 L1102.89 1452.02 Z" fill="#000000" fill-rule="evenodd" fill-opacity="1" /><path clip-path="url(#clip670)" d="M 0 0 M1139.24 1440.11 Q1136.31 1440.11 1134.82 1443.01 Q1133.36 1445.89 1133.36 1451.68 Q1133.36 1457.46 1134.82 1460.35 Q1136.31 1463.23 1139.24 1463.23 Q1142.2 1463.23 1143.66 1460.35 Q1145.15 1457.46 1145.15 1451.68 Q1145.15 1445.89 1143.66 1443.01 Q1142.2 1440.11 1139.24 1440.11 M1139.24 1437.11 Q1143.96 1437.11 1146.45 1440.85 Q1148.95 1444.57 1148.95 1451.68 Q1148.95 1458.77 1146.45 1462.51 Q1143.96 1466.24 1139.24 1466.24 Q1134.52 1466.24 1132.02 1462.51 Q1129.54 1458.77 1129.54 1451.68 Q1129.54 1444.57 1132.02 1440.85 Q1134.52 1437.11 1139.24 1437.11 Z" fill="#000000" fill-rule="evenodd" fill-opacity="1" /><path clip-path="url(#clip670)" d="M 0 0 M1153.07 1460.92 L1157.04 1460.92 L1157.04 1465.69 L1153.07 1465.69 L1153.07 1460.92 Z" fill="#000000" fill-rule="evenodd" fill-opacity="1" /><path clip-path="url(#clip670)" d="M 0 0 M1161.81 1462.5 L1168.02 1462.5 L1168.02 1441.07 L1161.27 1442.43 L1161.27 1438.97 L1167.98 1437.61 L1171.78 1437.61 L1171.78 1462.5 L1177.99 1462.5 L1177.99 1465.69 L1161.81 1465.69 L1161.81 1462.5 Z" fill="#000000" fill-rule="evenodd" fill-opacity="1" /><path clip-path="url(#clip670)" d="M 0 0 M1494.45 1489.17 L1502.09 1489.17 L1502.09 1462.8 L1493.78 1464.47 L1493.78 1460.21 L1502.04 1458.54 L1506.71 1458.54 L1506.71 1489.17 L1514.35 1489.17 L1514.35 1493.1 L1494.45 1493.1 L1494.45 1489.17 Z" fill="#000000" fill-rule="evenodd" fill-opacity="1" /><path clip-path="url(#clip670)" d="M 0 0 M1529.42 1461.62 Q1525.81 1461.62 1523.98 1465.19 Q1522.18 1468.73 1522.18 1475.86 Q1522.18 1482.97 1523.98 1486.53 Q1525.81 1490.07 1529.42 1490.07 Q1533.06 1490.07 1534.86 1486.53 Q1536.69 1482.97 1536.69 1475.86 Q1536.69 1468.73 1534.86 1465.19 Q1533.06 1461.62 1529.42 1461.62 M1529.42 1457.92 Q1535.23 1457.92 1538.29 1462.53 Q1541.37 1467.11 1541.37 1475.86 Q1541.37 1484.59 1538.29 1489.19 Q1535.23 1493.78 1529.42 1493.78 Q1523.61 1493.78 1520.53 1489.19 Q1517.48 1484.59 1517.48 1475.86 Q1517.48 1467.11 1520.53 1462.53 Q1523.61 1457.92 1529.42 1457.92 Z" fill="#000000" fill-rule="evenodd" fill-opacity="1" /><path clip-path="url(#clip670)" d="M 0 0 M1551.07 1440.11 Q1548.14 1440.11 1546.65 1443.01 Q1545.19 1445.89 1545.19 1451.68 Q1545.19 1457.46 1546.65 1460.35 Q1548.14 1463.23 1551.07 1463.23 Q1554.03 1463.23 1555.49 1460.35 Q1556.98 1457.46 1556.98 1451.68 Q1556.98 1445.89 1555.49 1443.01 Q1554.03 1440.11 1551.07 1440.11 M1551.07 1437.11 Q1555.79 1437.11 1558.28 1440.85 Q1560.78 1444.57 1560.78 1451.68 Q1560.78 1458.77 1558.28 1462.51 Q1555.79 1466.24 1551.07 1466.24 Q1546.35 1466.24 1543.85 1462.51 Q1541.37 1458.77 1541.37 1451.68 Q1541.37 1444.57 1543.85 1440.85 Q1546.35 1437.11 1551.07 1437.11 Z" fill="#000000" fill-rule="evenodd" fill-opacity="1" /><path clip-path="url(#clip670)" d="M 0 0 M1564.9 1460.92 L1568.86 1460.92 L1568.86 1465.69 L1564.9 1465.69 L1564.9 1460.92 Z" fill="#000000" fill-rule="evenodd" fill-opacity="1" /><path clip-path="url(#clip670)" d="M 0 0 M1581.11 1440.11 Q1578.17 1440.11 1576.69 1443.01 Q1575.22 1445.89 1575.22 1451.68 Q1575.22 1457.46 1576.69 1460.35 Q1578.17 1463.23 1581.11 1463.23 Q1584.06 1463.23 1585.53 1460.35 Q1587.01 1457.46 1587.01 1451.68 Q1587.01 1445.89 1585.53 1443.01 Q1584.06 1440.11 1581.11 1440.11 M1581.11 1437.11 Q1585.83 1437.11 1588.31 1440.85 Q1590.81 1444.57 1590.81 1451.68 Q1590.81 1458.77 1588.31 1462.51 Q1585.83 1466.24 1581.11 1466.24 Q1576.39 1466.24 1573.89 1462.51 Q1571.4 1458.77 1571.4 1451.68 Q1571.4 1444.57 1573.89 1440.85 Q1576.39 1437.11 1581.11 1437.11 Z" fill="#000000" fill-rule="evenodd" fill-opacity="1" /><path clip-path="url(#clip670)" d="M 0 0 M1920.6 1489.17 L1928.24 1489.17 L1928.24 1462.8 L1919.93 1464.47 L1919.93 1460.21 L1928.19 1458.54 L1932.87 1458.54 L1932.87 1489.17 L1940.5 1489.17 L1940.5 1493.1 L1920.6 1493.1 L1920.6 1489.17 Z" fill="#000000" fill-rule="evenodd" fill-opacity="1" /><path clip-path="url(#clip670)" d="M 0 0 M1955.57 1461.62 Q1951.96 1461.62 1950.13 1465.19 Q1948.33 1468.73 1948.33 1475.86 Q1948.33 1482.97 1950.13 1486.53 Q1951.96 1490.07 1955.57 1490.07 Q1959.21 1490.07 1961.01 1486.53 Q1962.84 1482.97 1962.84 1475.86 Q1962.84 1468.73 1961.01 1465.19 Q1959.21 1461.62 1955.57 1461.62 M1955.57 1457.92 Q1961.38 1457.92 1964.44 1462.53 Q1967.52 1467.11 1967.52 1475.86 Q1967.52 1484.59 1964.44 1489.19 Q1961.38 1493.78 1955.57 1493.78 Q1949.76 1493.78 1946.68 1489.19 Q1943.63 1484.59 1943.63 1475.86 Q1943.63 1467.11 1946.68 1462.53 Q1949.76 1457.92 1955.57 1457.92 Z" fill="#000000" fill-rule="evenodd" fill-opacity="1" /><path clip-path="url(#clip670)" d="M 0 0 M1977.22 1440.11 Q1974.29 1440.11 1972.8 1443.01 Q1971.34 1445.89 1971.34 1451.68 Q1971.34 1457.46 1972.8 1460.35 Q1974.29 1463.23 1977.22 1463.23 Q1980.18 1463.23 1981.64 1460.35 Q1983.13 1457.46 1983.13 1451.68 Q1983.13 1445.89 1981.64 1443.01 Q1980.18 1440.11 1977.22 1440.11 M1977.22 1437.11 Q1981.94 1437.11 1984.43 1440.85 Q1986.93 1444.57 1986.93 1451.68 Q1986.93 1458.77 1984.43 1462.51 Q1981.94 1466.24 1977.22 1466.24 Q1972.5 1466.24 1970 1462.51 Q1967.52 1458.77 1967.52 1451.68 Q1967.52 1444.57 1970 1440.85 Q1972.5 1437.11 1977.22 1437.11 Z" fill="#000000" fill-rule="evenodd" fill-opacity="1" /><path clip-path="url(#clip670)" d="M 0 0 M1991.05 1460.92 L1995.01 1460.92 L1995.01 1465.69 L1991.05 1465.69 L1991.05 1460.92 Z" fill="#000000" fill-rule="evenodd" fill-opacity="1" /><path clip-path="url(#clip670)" d="M 0 0 M1999.79 1462.5 L2006 1462.5 L2006 1441.07 L1999.25 1442.43 L1999.25 1438.97 L2005.96 1437.61 L2009.76 1437.61 L2009.76 1462.5 L2015.97 1462.5 L2015.97 1465.69 L1999.79 1465.69 L1999.79 1462.5 Z" fill="#000000" fill-rule="evenodd" fill-opacity="1" /><path clip-path="url(#clip670)" d="M 0 0 M1281.6 1545.6 L1280.2 1538.25 Q1278.76 1530.71 1273.1 1530.71 Q1268.83 1530.71 1266.89 1534.21 Q1264.44 1538.6 1264.44 1544.39 Q1264.44 1551.4 1266.83 1554.74 Q1269.25 1558.14 1273.1 1558.14 Q1277.36 1558.14 1279.65 1551.36 L1281.6 1545.6 M1284.87 1535.86 L1288.03 1526.54 L1293.25 1526.54 L1286.72 1545.86 L1287.99 1552.83 Q1288.28 1554.39 1289.39 1555.69 Q1290.7 1557.22 1291.72 1557.22 L1294.52 1557.22 L1294.52 1562.19 L1291.02 1562.19 Q1288.03 1562.19 1285.35 1559.51 Q1284.05 1558.18 1283.51 1555.37 Q1282.04 1558.91 1279.05 1561.68 Q1277.65 1562.98 1273.1 1562.98 Q1265.62 1562.98 1261.99 1558.14 Q1258.27 1553.15 1258.27 1544.39 Q1258.27 1535.04 1262.31 1530.64 Q1266.8 1525.74 1273.1 1525.74 Q1283 1525.74 1284.87 1535.86 Z" fill="#000000" fill-rule="evenodd" fill-opacity="1" /><polyline clip-path="url(#clip672)" style="stroke:#000000; stroke-width:2; stroke-opacity:0.1; fill:none" points="
  200.028,1240.35 2352.76,1240.35 
  "/>
<polyline clip-path="url(#clip672)" style="stroke:#000000; stroke-width:2; stroke-opacity:0.1; fill:none" points="
  200.028,1002.89 2352.76,1002.89 
  "/>
<polyline clip-path="url(#clip672)" style="stroke:#000000; stroke-width:2; stroke-opacity:0.1; fill:none" points="
  200.028,765.434 2352.76,765.434 
  "/>
<polyline clip-path="url(#clip672)" style="stroke:#000000; stroke-width:2; stroke-opacity:0.1; fill:none" points="
  200.028,527.977 2352.76,527.977 
  "/>
<polyline clip-path="url(#clip672)" style="stroke:#000000; stroke-width:2; stroke-opacity:0.1; fill:none" points="
  200.028,290.519 2352.76,290.519 
  "/>
<polyline clip-path="url(#clip672)" style="stroke:#000000; stroke-width:2; stroke-opacity:0.1; fill:none" points="
  200.028,53.0606 2352.76,53.0606 
  "/>
<polyline clip-path="url(#clip670)" style="stroke:#000000; stroke-width:4; stroke-opacity:1; fill:none" points="
  200.028,1410.9 200.028,47.2441 
  "/>
<polyline clip-path="url(#clip670)" style="stroke:#000000; stroke-width:4; stroke-opacity:1; fill:none" points="
  200.028,1240.35 225.861,1240.35 
  "/>
<polyline clip-path="url(#clip670)" style="stroke:#000000; stroke-width:4; stroke-opacity:1; fill:none" points="
  200.028,1002.89 225.861,1002.89 
  "/>
<polyline clip-path="url(#clip670)" style="stroke:#000000; stroke-width:4; stroke-opacity:1; fill:none" points="
  200.028,765.434 225.861,765.434 
  "/>
<polyline clip-path="url(#clip670)" style="stroke:#000000; stroke-width:4; stroke-opacity:1; fill:none" points="
  200.028,527.977 225.861,527.977 
  "/>
<polyline clip-path="url(#clip670)" style="stroke:#000000; stroke-width:4; stroke-opacity:1; fill:none" points="
  200.028,290.519 225.861,290.519 
  "/>
<polyline clip-path="url(#clip670)" style="stroke:#000000; stroke-width:4; stroke-opacity:1; fill:none" points="
  200.028,53.0606 225.861,53.0606 
  "/>
<path clip-path="url(#clip670)" d="M 0 0 M120.533 1253.7 L136.853 1253.7 L136.853 1257.63 L114.908 1257.63 L114.908 1253.7 Q117.57 1250.94 122.154 1246.31 Q126.76 1241.66 127.941 1240.32 Q130.186 1237.79 131.066 1236.06 Q131.968 1234.3 131.968 1232.61 Q131.968 1229.85 130.024 1228.12 Q128.103 1226.38 125.001 1226.38 Q122.802 1226.38 120.348 1227.14 Q117.918 1227.91 115.14 1229.46 L115.14 1224.74 Q117.964 1223.6 120.418 1223.02 Q122.871 1222.45 124.908 1222.45 Q130.279 1222.45 133.473 1225.13 Q136.667 1227.82 136.667 1232.31 Q136.667 1234.44 135.857 1236.36 Q135.07 1238.26 132.964 1240.85 Q132.385 1241.52 129.283 1244.74 Q126.181 1247.93 120.533 1253.7 Z" fill="#000000" fill-rule="evenodd" fill-opacity="1" /><path clip-path="url(#clip670)" d="M 0 0 M152.501 1238.49 Q149.353 1238.49 147.501 1240.64 Q145.672 1242.79 145.672 1246.54 Q145.672 1250.27 147.501 1252.45 Q149.353 1254.6 152.501 1254.6 Q155.649 1254.6 157.478 1252.45 Q159.329 1250.27 159.329 1246.54 Q159.329 1242.79 157.478 1240.64 Q155.649 1238.49 152.501 1238.49 M161.783 1223.83 L161.783 1228.09 Q160.024 1227.26 158.218 1226.82 Q156.436 1226.38 154.677 1226.38 Q150.047 1226.38 147.593 1229.51 Q145.163 1232.63 144.816 1238.95 Q146.181 1236.94 148.241 1235.87 Q150.302 1234.78 152.778 1234.78 Q157.987 1234.78 160.996 1237.95 Q164.028 1241.1 164.028 1246.54 Q164.028 1251.87 160.88 1255.08 Q157.732 1258.3 152.501 1258.3 Q146.505 1258.3 143.334 1253.72 Q140.163 1249.11 140.163 1240.39 Q140.163 1232.19 144.052 1227.33 Q147.941 1222.45 154.491 1222.45 Q156.251 1222.45 158.033 1222.79 Q159.839 1223.14 161.783 1223.83 Z" fill="#000000" fill-rule="evenodd" fill-opacity="1" /><path clip-path="url(#clip670)" d="M 0 0 M121.598 1016.24 L137.917 1016.24 L137.917 1020.17 L115.973 1020.17 L115.973 1016.24 Q118.635 1013.48 123.218 1008.85 Q127.825 1004.2 129.005 1002.86 Q131.251 1000.33 132.13 998.598 Q133.033 996.839 133.033 995.149 Q133.033 992.395 131.089 990.659 Q129.167 988.923 126.066 988.923 Q123.867 988.923 121.413 989.686 Q118.982 990.45 116.205 992.001 L116.205 987.279 Q119.029 986.145 121.482 985.566 Q123.936 984.987 125.973 984.987 Q131.343 984.987 134.538 987.673 Q137.732 990.358 137.732 994.849 Q137.732 996.978 136.922 998.899 Q136.135 1000.8 134.029 1003.39 Q133.45 1004.06 130.348 1007.28 Q127.246 1010.47 121.598 1016.24 Z" fill="#000000" fill-rule="evenodd" fill-opacity="1" /><path clip-path="url(#clip670)" d="M 0 0 M141.806 985.612 L164.028 985.612 L164.028 987.603 L151.482 1020.17 L146.598 1020.17 L158.403 989.548 L141.806 989.548 L141.806 985.612 Z" fill="#000000" fill-rule="evenodd" fill-opacity="1" /><path clip-path="url(#clip670)" d="M 0 0 M120.788 778.779 L137.107 778.779 L137.107 782.714 L115.163 782.714 L115.163 778.779 Q117.825 776.025 122.408 771.395 Q127.015 766.742 128.195 765.4 Q130.441 762.877 131.32 761.141 Q132.223 759.381 132.223 757.691 Q132.223 754.937 130.279 753.201 Q128.357 751.465 125.255 751.465 Q123.056 751.465 120.603 752.229 Q118.172 752.992 115.394 754.543 L115.394 749.821 Q118.218 748.687 120.672 748.108 Q123.126 747.529 125.163 747.529 Q130.533 747.529 133.728 750.215 Q136.922 752.9 136.922 757.391 Q136.922 759.52 136.112 761.441 Q135.325 763.34 133.218 765.932 Q132.64 766.603 129.538 769.821 Q126.436 773.015 120.788 778.779 Z" fill="#000000" fill-rule="evenodd" fill-opacity="1" /><path clip-path="url(#clip670)" d="M 0 0 M152.177 766.303 Q148.843 766.303 146.922 768.085 Q145.024 769.867 145.024 772.992 Q145.024 776.117 146.922 777.9 Q148.843 779.682 152.177 779.682 Q155.51 779.682 157.431 777.9 Q159.353 776.094 159.353 772.992 Q159.353 769.867 157.431 768.085 Q155.533 766.303 152.177 766.303 M147.501 764.312 Q144.491 763.571 142.802 761.511 Q141.135 759.451 141.135 756.488 Q141.135 752.344 144.075 749.937 Q147.038 747.529 152.177 747.529 Q157.339 747.529 160.278 749.937 Q163.218 752.344 163.218 756.488 Q163.218 759.451 161.528 761.511 Q159.862 763.571 156.876 764.312 Q160.255 765.099 162.13 767.39 Q164.028 769.682 164.028 772.992 Q164.028 778.015 160.95 780.701 Q157.894 783.386 152.177 783.386 Q146.459 783.386 143.38 780.701 Q140.325 778.015 140.325 772.992 Q140.325 769.682 142.223 767.39 Q144.121 765.099 147.501 764.312 M145.788 756.928 Q145.788 759.613 147.454 761.117 Q149.144 762.622 152.177 762.622 Q155.186 762.622 156.876 761.117 Q158.589 759.613 158.589 756.928 Q158.589 754.242 156.876 752.738 Q155.186 751.233 152.177 751.233 Q149.144 751.233 147.454 752.738 Q145.788 754.242 145.788 756.928 Z" fill="#000000" fill-rule="evenodd" fill-opacity="1" /><path clip-path="url(#clip670)" d="M 0 0 M120.88 541.321 L137.2 541.321 L137.2 545.257 L115.256 545.257 L115.256 541.321 Q117.918 538.567 122.501 533.937 Q127.107 529.284 128.288 527.942 Q130.533 525.419 131.413 523.683 Q132.316 521.923 132.316 520.233 Q132.316 517.479 130.371 515.743 Q128.45 514.007 125.348 514.007 Q123.149 514.007 120.695 514.771 Q118.265 515.534 115.487 517.085 L115.487 512.363 Q118.311 511.229 120.765 510.65 Q123.218 510.072 125.255 510.072 Q130.626 510.072 133.82 512.757 Q137.015 515.442 137.015 519.933 Q137.015 522.062 136.204 523.983 Q135.417 525.882 133.311 528.474 Q132.732 529.145 129.63 532.363 Q126.529 535.557 120.88 541.321 Z" fill="#000000" fill-rule="evenodd" fill-opacity="1" /><path clip-path="url(#clip670)" d="M 0 0 M142.408 544.539 L142.408 540.28 Q144.167 541.113 145.973 541.553 Q147.778 541.993 149.515 541.993 Q154.144 541.993 156.575 538.891 Q159.028 535.766 159.376 529.423 Q158.033 531.414 155.973 532.479 Q153.913 533.544 151.413 533.544 Q146.228 533.544 143.195 530.419 Q140.186 527.27 140.186 521.831 Q140.186 516.507 143.334 513.289 Q146.482 510.072 151.714 510.072 Q157.709 510.072 160.857 514.678 Q164.028 519.261 164.028 528.011 Q164.028 536.182 160.14 541.067 Q156.274 545.928 149.723 545.928 Q147.964 545.928 146.158 545.581 Q144.353 545.233 142.408 544.539 M151.714 529.886 Q154.862 529.886 156.69 527.733 Q158.542 525.581 158.542 521.831 Q158.542 518.104 156.69 515.951 Q154.862 513.775 151.714 513.775 Q148.566 513.775 146.714 515.951 Q144.885 518.104 144.885 521.831 Q144.885 525.581 146.714 527.733 Q148.566 529.886 151.714 529.886 Z" fill="#000000" fill-rule="evenodd" fill-opacity="1" /><path clip-path="url(#clip670)" d="M 0 0 M129.885 289.164 Q133.242 289.882 135.117 292.15 Q137.015 294.419 137.015 297.752 Q137.015 302.868 133.496 305.669 Q129.978 308.47 123.496 308.47 Q121.32 308.47 119.006 308.03 Q116.714 307.613 114.26 306.757 L114.26 302.243 Q116.205 303.377 118.519 303.956 Q120.834 304.535 123.357 304.535 Q127.755 304.535 130.047 302.799 Q132.362 301.062 132.362 297.752 Q132.362 294.697 130.209 292.984 Q128.08 291.248 124.26 291.248 L120.232 291.248 L120.232 287.405 L124.445 287.405 Q127.894 287.405 129.723 286.039 Q131.552 284.651 131.552 282.058 Q131.552 279.396 129.654 277.984 Q127.779 276.549 124.26 276.549 Q122.339 276.549 120.14 276.965 Q117.941 277.382 115.302 278.262 L115.302 274.095 Q117.964 273.354 120.279 272.984 Q122.617 272.614 124.677 272.614 Q130.001 272.614 133.103 275.044 Q136.204 277.451 136.204 281.572 Q136.204 284.442 134.561 286.433 Q132.917 288.4 129.885 289.164 Z" fill="#000000" fill-rule="evenodd" fill-opacity="1" /><path clip-path="url(#clip670)" d="M 0 0 M152.084 276.317 Q148.473 276.317 146.644 279.882 Q144.839 283.424 144.839 290.553 Q144.839 297.66 146.644 301.224 Q148.473 304.766 152.084 304.766 Q155.718 304.766 157.524 301.224 Q159.353 297.66 159.353 290.553 Q159.353 283.424 157.524 279.882 Q155.718 276.317 152.084 276.317 M152.084 272.614 Q157.894 272.614 160.95 277.22 Q164.028 281.803 164.028 290.553 Q164.028 299.28 160.95 303.887 Q157.894 308.47 152.084 308.47 Q146.274 308.47 143.195 303.887 Q140.14 299.28 140.14 290.553 Q140.14 281.803 143.195 277.22 Q146.274 272.614 152.084 272.614 Z" fill="#000000" fill-rule="evenodd" fill-opacity="1" /><path clip-path="url(#clip670)" d="M 0 0 M131.112 51.7064 Q134.468 52.424 136.343 54.6925 Q138.242 56.961 138.242 60.2943 Q138.242 65.41 134.723 68.2109 Q131.205 71.0119 124.723 71.0119 Q122.547 71.0119 120.232 70.572 Q117.941 70.1554 115.487 69.2989 L115.487 64.785 Q117.431 65.9193 119.746 66.498 Q122.061 67.0767 124.584 67.0767 Q128.982 67.0767 131.274 65.3406 Q133.589 63.6045 133.589 60.2943 Q133.589 57.2388 131.436 55.5258 Q129.306 53.7897 125.487 53.7897 L121.459 53.7897 L121.459 49.9472 L125.672 49.9472 Q129.121 49.9472 130.95 48.5814 Q132.779 47.1925 132.779 44.6 Q132.779 41.9379 130.88 40.5259 Q129.005 39.0907 125.487 39.0907 Q123.566 39.0907 121.367 39.5074 Q119.168 39.9241 116.529 40.8037 L116.529 36.637 Q119.191 35.8963 121.505 35.5259 Q123.843 35.1556 125.904 35.1556 Q131.228 35.1556 134.329 37.5861 Q137.431 39.9935 137.431 44.1139 Q137.431 46.9842 135.788 48.9749 Q134.144 50.9425 131.112 51.7064 Z" fill="#000000" fill-rule="evenodd" fill-opacity="1" /><path clip-path="url(#clip670)" d="M 0 0 M144.121 66.4054 L151.76 66.4054 L151.76 40.0398 L143.45 41.7065 L143.45 37.4472 L151.714 35.7806 L156.39 35.7806 L156.39 66.4054 L164.028 66.4054 L164.028 70.3406 L144.121 70.3406 L144.121 66.4054 Z" fill="#000000" fill-rule="evenodd" fill-opacity="1" /><path clip-path="url(#clip670)" d="M 0 0 M59.1993 815.533 Q55.2526 813.336 53.3747 810.281 Q51.4968 807.225 51.4968 803.088 Q51.4968 797.518 55.4117 794.494 Q59.2948 791.47 66.4881 791.47 L88.0042 791.47 L88.0042 797.358 L66.679 797.358 Q61.5546 797.358 59.072 799.173 Q56.5894 800.987 56.5894 804.711 Q56.5894 809.262 59.6131 811.904 Q62.6368 814.546 67.8567 814.546 L88.0042 814.546 L88.0042 820.434 L66.679 820.434 Q61.5228 820.434 59.072 822.248 Q56.5894 824.063 56.5894 827.85 Q56.5894 832.338 59.6449 834.98 Q62.6686 837.622 67.8567 837.622 L88.0042 837.622 L88.0042 843.51 L52.3562 843.51 L52.3562 837.622 L57.8944 837.622 Q54.616 835.616 53.0564 832.815 Q51.4968 830.015 51.4968 826.163 Q51.4968 822.28 53.4702 819.575 Q55.4436 816.838 59.1993 815.533 Z" fill="#000000" fill-rule="evenodd" fill-opacity="1" /><path clip-path="url(#clip670)" d="M 0 0 M52.3562 785.327 L52.3562 779.471 L88.0042 779.471 L88.0042 785.327 L52.3562 785.327 M38.479 785.327 L38.479 779.471 L45.895 779.471 L45.895 785.327 L38.479 785.327 Z" fill="#000000" fill-rule="evenodd" fill-opacity="1" /><path clip-path="url(#clip670)" d="M 0 0 M66.4881 743.696 L88.0042 743.696 L88.0042 749.552 L66.679 749.552 Q61.6183 749.552 59.1038 751.525 Q56.5894 753.499 56.5894 757.446 Q56.5894 762.188 59.6131 764.925 Q62.6368 767.662 67.8567 767.662 L88.0042 767.662 L88.0042 773.551 L52.3562 773.551 L52.3562 767.662 L57.8944 767.662 Q54.6797 765.562 53.0883 762.729 Q51.4968 759.864 51.4968 756.141 Q51.4968 749.998 55.3163 746.847 Q59.1038 743.696 66.4881 743.696 Z" fill="#000000" fill-rule="evenodd" fill-opacity="1" /><path clip-path="url(#clip670)" d="M 0 0 M98.8259 710.467 L103.377 710.467 L103.377 744.332 L98.8259 744.332 L98.8259 710.467 Z" fill="#000000" fill-rule="evenodd" fill-opacity="1" /><path clip-path="url(#clip670)" d="M 0 0 M57.7671 680.866 L38.479 680.866 L38.479 675.01 L88.0042 675.01 L88.0042 680.866 L82.657 680.866 Q85.8398 682.712 87.3994 685.545 Q88.9272 688.346 88.9272 692.292 Q88.9272 698.754 83.771 702.828 Q78.6147 706.87 70.212 706.87 Q61.8093 706.87 56.6531 702.828 Q51.4968 698.754 51.4968 692.292 Q51.4968 688.346 53.0564 685.545 Q54.5842 682.712 57.7671 680.866 M70.212 700.823 Q76.6732 700.823 80.3653 698.181 Q84.0256 695.507 84.0256 690.86 Q84.0256 686.213 80.3653 683.54 Q76.6732 680.866 70.212 680.866 Q63.7508 680.866 60.0905 683.54 Q56.3984 686.213 56.3984 690.86 Q56.3984 695.507 60.0905 698.181 Q63.7508 700.823 70.212 700.823 Z" fill="#000000" fill-rule="evenodd" fill-opacity="1" /><path clip-path="url(#clip670)" d="M 0 0 M52.3562 668.867 L52.3562 663.01 L88.0042 663.01 L88.0042 668.867 L52.3562 668.867 M38.479 668.867 L38.479 663.01 L45.895 663.01 L45.895 668.867 L38.479 668.867 Z" fill="#000000" fill-rule="evenodd" fill-opacity="1" /><path clip-path="url(#clip670)" d="M 0 0 M38.479 638.821 L43.3487 638.821 L43.3487 644.422 Q43.3487 647.573 44.6219 648.815 Q45.895 650.024 49.2052 650.024 L52.3562 650.024 L52.3562 640.38 L56.9077 640.38 L56.9077 650.024 L88.0042 650.024 L88.0042 655.912 L56.9077 655.912 L56.9077 661.514 L52.3562 661.514 L52.3562 655.912 L49.8736 655.912 Q43.9216 655.912 41.2162 653.143 Q38.479 650.374 38.479 644.359 L38.479 638.821 Z" fill="#000000" fill-rule="evenodd" fill-opacity="1" /><path clip-path="url(#clip670)" d="M 0 0 M38.479 614.631 L43.3487 614.631 L43.3487 620.233 Q43.3487 623.384 44.6219 624.625 Q45.895 625.835 49.2052 625.835 L52.3562 625.835 L52.3562 616.19 L56.9077 616.19 L56.9077 625.835 L88.0042 625.835 L88.0042 631.723 L56.9077 631.723 L56.9077 637.325 L52.3562 637.325 L52.3562 631.723 L49.8736 631.723 Q43.9216 631.723 41.2162 628.954 Q38.479 626.185 38.479 620.169 L38.479 614.631 Z" fill="#000000" fill-rule="evenodd" fill-opacity="1" /><polyline clip-path="url(#clip672)" style="stroke:#009af9; stroke-width:20; stroke-opacity:1; fill:none" stroke-dasharray="80, 50" points="
  260.955,85.838 597.991,413.831 882.951,596.439 1129.79,813.852 1347.53,850.467 1542.29,1074.37 1718.48,1163.39 1879.33,1163.75 2027.3,1125.6 2164.29,1272.59 
  2291.83,1372.3 
  "/>
<path clip-path="url(#clip670)" d="
M1990.79 213.659 L2281 213.659 L2281 92.6992 L1990.79 92.6992  Z
  " fill="#ffffff" fill-rule="evenodd" fill-opacity="1"/>
<polyline clip-path="url(#clip670)" style="stroke:#000000; stroke-width:4; stroke-opacity:1; fill:none" points="
  1990.79,213.659 2281,213.659 2281,92.6992 1990.79,92.6992 1990.79,213.659 
  "/>
<polyline clip-path="url(#clip670)" style="stroke:#009af9; stroke-width:4; stroke-opacity:1; fill:none" stroke-dasharray="16, 10" points="
  2014.71,153.179 2158.22,153.179 
  "/>
<path clip-path="url(#clip670)" d="M 0 0 M2195.98 172.867 Q2194.18 177.496 2192.47 178.908 Q2190.75 180.32 2187.88 180.32 L2184.48 180.32 L2184.48 176.755 L2186.98 176.755 Q2188.74 176.755 2189.71 175.922 Q2190.68 175.089 2191.86 171.987 L2192.63 170.043 L2182.14 144.533 L2186.66 144.533 L2194.76 164.811 L2202.86 144.533 L2207.37 144.533 L2195.98 172.867 Z" fill="#000000" fill-rule="evenodd" fill-opacity="1" /><path clip-path="url(#clip670)" d="M 0 0 M2213.25 166.524 L2220.89 166.524 L2220.89 140.158 L2212.58 141.825 L2212.58 137.566 L2220.85 135.899 L2225.52 135.899 L2225.52 166.524 L2233.16 166.524 L2233.16 170.459 L2213.25 170.459 L2213.25 166.524 Z" fill="#000000" fill-rule="evenodd" fill-opacity="1" /></svg>
