<?xml version="1.0" encoding="utf-8"?>
<svg xmlns="http://www.w3.org/2000/svg" xmlns:xlink="http://www.w3.org/1999/xlink" width="600" height="400" viewBox="0 0 2400 1600">
<defs>
  <clipPath id="clip670">
    <rect x="0" y="0" width="2400" height="1600"/>
  </clipPath>
</defs>
<path clip-path="url(#clip670)" d="
M0 1600 L2400 1600 L2400 0 L0 0  Z
  " fill="#ffffff" fill-rule="evenodd" fill-opacity="1"/>
<defs>
  <clipPath id="clip671">
    <rect x="480" y="0" width="1681" height="1600"/>
  </clipPath>
</defs>
<path clip-path="url(#clip670)" d="
M262.806 1410.9 L2352.76 1410.9 L2352.76 47.2441 L262.806 47.2441  Z
  " fill="#ffffff" fill-rule="evenodd" fill-opacity="1"/>
<defs>
  <clipPath id="clip672">
    <rect x="262" y="47" width="2091" height="1365"/>
  </clipPath>
</defs>
<polyline clip-path="url(#clip672)" style="stroke:#000000; stroke-width:2; stroke-opacity:0.1; fill:none" points="
  321.955,1410.9 321.955,47.2441 
  "/>
<polyline clip-path="url(#clip672)" style="stroke:#000000; stroke-width:2; stroke-opacity:0.1; fill:none" points="
  716.286,1410.9 716.286,47.2441 
  "/>
<polyline clip-path="url(#clip672)" style="stroke:#000000; stroke-width:2; stroke-opacity:0.1; fill:none" points="
  1110.62,1410.9 1110.62,47.2441 
  "/>
<polyline clip-path="url(#clip672)" style="stroke:#000000; stroke-width:2; stroke-opacity:0.1; fill:none" points="
  1504.95,1410.9 1504.95,47.2441 
  "/>
<polyline clip-path="url(#clip672)" style="stroke:#000000; stroke-width:2; stroke-opacity:0.1; fill:none" points="
  1899.28,1410.9 1899.28,47.2441 
  "/>
<polyline clip-path="url(#clip672)" style="stroke:#000000; stroke-width:2; stroke-opacity:0.1; fill:none" points="
  2293.61,1410.9 2293.61,47.2441 
  "/>
<polyline clip-path="url(#clip670)" style="stroke:#000000; stroke-width:4; stroke-opacity:1; fill:none" points="
  262.806,1410.9 2352.76,1410.9 
  "/>
<polyline clip-path="url(#clip670)" style="stroke:#000000; stroke-width:4; stroke-opacity:1; fill:none" points="
  321.955,1410.9 321.955,1394.53 
  "/>
<polyline clip-path="url(#clip670)" style="stroke:#000000; stroke-width:4; stroke-opacity:1; fill:none" points="
  716.286,1410.9 716.286,1394.53 
  "/>
<polyline clip-path="url(#clip670)" style="stroke:#000000; stroke-width:4; stroke-opacity:1; fill:none" points="
  1110.62,1410.9 1110.62,1394.53 
  "/>
<polyline clip-path="url(#clip670)" style="stroke:#000000; stroke-width:4; stroke-opacity:1; fill:none" points="
  1504.95,1410.9 1504.95,1394.53 
  "/>
<polyline clip-path="url(#clip670)" style="stroke:#000000; stroke-width:4; stroke-opacity:1; fill:none" points="
  1899.28,1410.9 1899.28,1394.53 
  "/>
<polyline clip-path="url(#clip670)" style="stroke:#000000; stroke-width:4; stroke-opacity:1; fill:none" points="
  2293.61,1410.9 2293.61,1394.53 
  "/>
<path clip-path="url(#clip670)" d="M 0 0 M260.717 1489.17 L268.355 1489.17 L268.355 1462.8 L260.045 1464.47 L260.045 1460.21 L268.309 1458.54 L272.985 1458.54 L272.985 1489.17 L280.624 1489.17 L280.624 1493.1 L260.717 1493.1 L260.717 1489.17 Z" fill="#000000" fill-rule="evenodd" fill-opacity="1" /><path clip-path="url(#clip670)" d="M 0 0 M295.693 1461.62 Q292.082 1461.62 290.253 1465.19 Q288.448 1468.73 288.448 1475.86 Q288.448 1482.97 290.253 1486.53 Q292.082 1490.07 295.693 1490.07 Q299.327 1490.07 301.133 1486.53 Q302.962 1482.97 302.962 1475.86 Q302.962 1468.73 301.133 1465.19 Q299.327 1461.62 295.693 1461.62 M295.693 1457.92 Q301.503 1457.92 304.559 1462.53 Q307.638 1467.11 307.638 1475.86 Q307.638 1484.59 304.559 1489.19 Q301.503 1493.78 295.693 1493.78 Q289.883 1493.78 286.804 1489.19 Q283.749 1484.59 283.749 1475.86 Q283.749 1467.11 286.804 1462.53 Q289.883 1457.92 295.693 1457.92 Z" fill="#000000" fill-rule="evenodd" fill-opacity="1" /><path clip-path="url(#clip670)" d="M 0 0 M307.638 1452.02 L331.749 1452.02 L331.749 1455.22 L307.638 1455.22 L307.638 1452.02 Z" fill="#000000" fill-rule="evenodd" fill-opacity="1" /><path clip-path="url(#clip670)" d="M 0 0 M344.463 1450.14 Q341.905 1450.14 340.401 1451.89 Q338.915 1453.64 338.915 1456.68 Q338.915 1459.71 340.401 1461.48 Q341.905 1463.23 344.463 1463.23 Q347.021 1463.23 348.507 1461.48 Q350.012 1459.71 350.012 1456.68 Q350.012 1453.64 348.507 1451.89 Q347.021 1450.14 344.463 1450.14 M352.005 1438.23 L352.005 1441.69 Q350.576 1441.02 349.109 1440.66 Q347.661 1440.3 346.231 1440.3 Q342.47 1440.3 340.476 1442.84 Q338.501 1445.38 338.219 1450.52 Q339.329 1448.88 341.003 1448.01 Q342.676 1447.13 344.689 1447.13 Q348.921 1447.13 351.366 1449.71 Q353.829 1452.26 353.829 1456.68 Q353.829 1461.01 351.272 1463.62 Q348.714 1466.24 344.463 1466.24 Q339.592 1466.24 337.015 1462.51 Q334.439 1458.77 334.439 1451.68 Q334.439 1445.02 337.598 1441.07 Q340.758 1437.11 346.081 1437.11 Q347.51 1437.11 348.958 1437.39 Q350.425 1437.67 352.005 1438.23 Z" fill="#000000" fill-rule="evenodd" fill-opacity="1" /><path clip-path="url(#clip670)" d="M 0 0 M357.948 1460.92 L361.917 1460.92 L361.917 1465.69 L357.948 1465.69 L357.948 1460.92 Z" fill="#000000" fill-rule="evenodd" fill-opacity="1" /><path clip-path="url(#clip670)" d="M 0 0 M374.161 1440.11 Q371.227 1440.11 369.741 1443.01 Q368.274 1445.89 368.274 1451.68 Q368.274 1457.46 369.741 1460.35 Q371.227 1463.23 374.161 1463.23 Q377.114 1463.23 378.581 1460.35 Q380.066 1457.46 380.066 1451.68 Q380.066 1445.89 378.581 1443.01 Q377.114 1440.11 374.161 1440.11 M374.161 1437.11 Q378.881 1437.11 381.364 1440.85 Q383.865 1444.57 383.865 1451.68 Q383.865 1458.77 381.364 1462.51 Q378.881 1466.24 374.161 1466.24 Q369.44 1466.24 366.939 1462.51 Q364.456 1458.77 364.456 1451.68 Q364.456 1444.57 366.939 1440.85 Q369.44 1437.11 374.161 1437.11 Z" fill="#000000" fill-rule="evenodd" fill-opacity="1" /><path clip-path="url(#clip670)" d="M 0 0 M655.592 1489.17 L663.231 1489.17 L663.231 1462.8 L654.921 1464.47 L654.921 1460.21 L663.185 1458.54 L667.861 1458.54 L667.861 1489.17 L675.499 1489.17 L675.499 1493.1 L655.592 1493.1 L655.592 1489.17 Z" fill="#000000" fill-rule="evenodd" fill-opacity="1" /><path clip-path="url(#clip670)" d="M 0 0 M690.569 1461.62 Q686.958 1461.62 685.129 1465.19 Q683.324 1468.73 683.324 1475.86 Q683.324 1482.97 685.129 1486.53 Q686.958 1490.07 690.569 1490.07 Q694.203 1490.07 696.009 1486.53 Q697.837 1482.97 697.837 1475.86 Q697.837 1468.73 696.009 1465.19 Q694.203 1461.62 690.569 1461.62 M690.569 1457.92 Q696.379 1457.92 699.435 1462.53 Q702.513 1467.11 702.513 1475.86 Q702.513 1484.59 699.435 1489.19 Q696.379 1493.78 690.569 1493.78 Q684.759 1493.78 681.68 1489.19 Q678.624 1484.59 678.624 1475.86 Q678.624 1467.11 681.68 1462.53 Q684.759 1457.92 690.569 1457.92 Z" fill="#000000" fill-rule="evenodd" fill-opacity="1" /><path clip-path="url(#clip670)" d="M 0 0 M702.513 1452.02 L726.625 1452.02 L726.625 1455.22 L702.513 1455.22 L702.513 1452.02 Z" fill="#000000" fill-rule="evenodd" fill-opacity="1" /><path clip-path="url(#clip670)" d="M 0 0 M730.781 1437.61 L745.696 1437.61 L745.696 1440.81 L734.261 1440.81 L734.261 1447.69 Q735.088 1447.41 735.916 1447.28 Q736.743 1447.13 737.571 1447.13 Q742.273 1447.13 745.019 1449.71 Q747.765 1452.28 747.765 1456.68 Q747.765 1461.22 744.944 1463.74 Q742.122 1466.24 736.988 1466.24 Q735.22 1466.24 733.377 1465.94 Q731.552 1465.64 729.596 1465.04 L729.596 1461.22 Q731.289 1462.14 733.095 1462.59 Q734.9 1463.04 736.913 1463.04 Q740.166 1463.04 742.066 1461.33 Q743.966 1459.62 743.966 1456.68 Q743.966 1453.75 742.066 1452.04 Q740.166 1450.33 736.913 1450.33 Q735.389 1450.33 733.866 1450.67 Q732.361 1451 730.781 1451.72 L730.781 1437.61 Z" fill="#000000" fill-rule="evenodd" fill-opacity="1" /><path clip-path="url(#clip670)" d="M 0 0 M751.884 1460.92 L755.852 1460.92 L755.852 1465.69 L751.884 1465.69 L751.884 1460.92 Z" fill="#000000" fill-rule="evenodd" fill-opacity="1" /><path clip-path="url(#clip670)" d="M 0 0 M760.084 1465.11 L760.084 1461.65 Q761.513 1462.33 762.98 1462.68 Q764.447 1463.04 765.858 1463.04 Q769.619 1463.04 771.594 1460.52 Q773.588 1457.98 773.87 1452.83 Q772.779 1454.45 771.105 1455.31 Q769.431 1456.18 767.4 1456.18 Q763.187 1456.18 760.723 1453.64 Q758.278 1451.08 758.278 1446.66 Q758.278 1442.33 760.836 1439.72 Q763.394 1437.11 767.645 1437.11 Q772.516 1437.11 775.074 1440.85 Q777.65 1444.57 777.65 1451.68 Q777.65 1458.32 774.491 1462.29 Q771.35 1466.24 766.027 1466.24 Q764.598 1466.24 763.131 1465.96 Q761.664 1465.67 760.084 1465.11 M767.645 1453.21 Q770.202 1453.21 771.688 1451.46 Q773.193 1449.71 773.193 1446.66 Q773.193 1443.63 771.688 1441.88 Q770.202 1440.11 767.645 1440.11 Q765.087 1440.11 763.582 1441.88 Q762.096 1443.63 762.096 1446.66 Q762.096 1449.71 763.582 1451.46 Q765.087 1453.21 767.645 1453.21 Z" fill="#000000" fill-rule="evenodd" fill-opacity="1" /><path clip-path="url(#clip670)" d="M 0 0 M1049.88 1489.17 L1057.52 1489.17 L1057.52 1462.8 L1049.21 1464.47 L1049.21 1460.21 L1057.48 1458.54 L1062.15 1458.54 L1062.15 1489.17 L1069.79 1489.17 L1069.79 1493.1 L1049.88 1493.1 L1049.88 1489.17 Z" fill="#000000" fill-rule="evenodd" fill-opacity="1" /><path clip-path="url(#clip670)" d="M 0 0 M1084.86 1461.62 Q1081.25 1461.62 1079.42 1465.19 Q1077.62 1468.73 1077.62 1475.86 Q1077.62 1482.97 1079.42 1486.53 Q1081.25 1490.07 1084.86 1490.07 Q1088.5 1490.07 1090.3 1486.53 Q1092.13 1482.97 1092.13 1475.86 Q1092.13 1468.73 1090.3 1465.19 Q1088.5 1461.62 1084.86 1461.62 M1084.86 1457.92 Q1090.67 1457.92 1093.73 1462.53 Q1096.81 1467.11 1096.81 1475.86 Q1096.81 1484.59 1093.73 1489.19 Q1090.67 1493.78 1084.86 1493.78 Q1079.05 1493.78 1075.97 1489.19 Q1072.92 1484.59 1072.92 1475.86 Q1072.92 1467.11 1075.97 1462.53 Q1079.05 1457.92 1084.86 1457.92 Z" fill="#000000" fill-rule="evenodd" fill-opacity="1" /><path clip-path="url(#clip670)" d="M 0 0 M1096.81 1452.02 L1120.92 1452.02 L1120.92 1455.22 L1096.81 1455.22 L1096.81 1452.02 Z" fill="#000000" fill-rule="evenodd" fill-opacity="1" /><path clip-path="url(#clip670)" d="M 0 0 M1125.07 1437.61 L1139.99 1437.61 L1139.99 1440.81 L1128.55 1440.81 L1128.55 1447.69 Q1129.38 1447.41 1130.21 1447.28 Q1131.04 1447.13 1131.86 1447.13 Q1136.57 1447.13 1139.31 1449.71 Q1142.06 1452.28 1142.06 1456.68 Q1142.06 1461.22 1139.24 1463.74 Q1136.41 1466.24 1131.28 1466.24 Q1129.51 1466.24 1127.67 1465.94 Q1125.85 1465.64 1123.89 1465.04 L1123.89 1461.22 Q1125.58 1462.14 1127.39 1462.59 Q1129.19 1463.04 1131.21 1463.04 Q1134.46 1463.04 1136.36 1461.33 Q1138.26 1459.62 1138.26 1456.68 Q1138.26 1453.75 1136.36 1452.04 Q1134.46 1450.33 1131.21 1450.33 Q1129.68 1450.33 1128.16 1450.67 Q1126.65 1451 1125.07 1451.72 L1125.07 1437.61 Z" fill="#000000" fill-rule="evenodd" fill-opacity="1" /><path clip-path="url(#clip670)" d="M 0 0 M1146.18 1460.92 L1150.14 1460.92 L1150.14 1465.69 L1146.18 1465.69 L1146.18 1460.92 Z" fill="#000000" fill-rule="evenodd" fill-opacity="1" /><path clip-path="url(#clip670)" d="M 0 0 M1162.39 1452.36 Q1159.68 1452.36 1158.12 1453.81 Q1156.58 1455.26 1156.58 1457.79 Q1156.58 1460.33 1158.12 1461.78 Q1159.68 1463.23 1162.39 1463.23 Q1165.1 1463.23 1166.66 1461.78 Q1168.22 1460.31 1168.22 1457.79 Q1168.22 1455.26 1166.66 1453.81 Q1165.12 1452.36 1162.39 1452.36 M1158.59 1450.74 Q1156.14 1450.14 1154.77 1448.47 Q1153.42 1446.79 1153.42 1444.38 Q1153.42 1441.02 1155.81 1439.06 Q1158.21 1437.11 1162.39 1437.11 Q1166.58 1437.11 1168.97 1439.06 Q1171.36 1441.02 1171.36 1444.38 Q1171.36 1446.79 1169.99 1448.47 Q1168.63 1450.14 1166.21 1450.74 Q1168.95 1451.38 1170.48 1453.24 Q1172.02 1455.1 1172.02 1457.79 Q1172.02 1461.88 1169.52 1464.06 Q1167.03 1466.24 1162.39 1466.24 Q1157.74 1466.24 1155.24 1464.06 Q1152.76 1461.88 1152.76 1457.79 Q1152.76 1455.1 1154.3 1453.24 Q1155.84 1451.38 1158.59 1450.74 M1157.2 1444.74 Q1157.2 1446.92 1158.55 1448.15 Q1159.92 1449.37 1162.39 1449.37 Q1164.83 1449.37 1166.21 1448.15 Q1167.6 1446.92 1167.6 1444.74 Q1167.6 1442.56 1166.21 1441.34 Q1164.83 1440.11 1162.39 1440.11 Q1159.92 1440.11 1158.55 1441.34 Q1157.2 1442.56 1157.2 1444.74 Z" fill="#000000" fill-rule="evenodd" fill-opacity="1" /><path clip-path="url(#clip670)" d="M 0 0 M1444.54 1489.17 L1452.18 1489.17 L1452.18 1462.8 L1443.87 1464.47 L1443.87 1460.21 L1452.14 1458.54 L1456.81 1458.54 L1456.81 1489.17 L1464.45 1489.17 L1464.45 1493.1 L1444.54 1493.1 L1444.54 1489.17 Z" fill="#000000" fill-rule="evenodd" fill-opacity="1" /><path clip-path="url(#clip670)" d="M 0 0 M1479.52 1461.62 Q1475.91 1461.62 1474.08 1465.19 Q1472.28 1468.73 1472.28 1475.86 Q1472.28 1482.97 1474.08 1486.53 Q1475.91 1490.07 1479.52 1490.07 Q1483.16 1490.07 1484.96 1486.53 Q1486.79 1482.97 1486.79 1475.86 Q1486.79 1468.73 1484.96 1465.19 Q1483.16 1461.62 1479.52 1461.62 M1479.52 1457.92 Q1485.33 1457.92 1488.39 1462.53 Q1491.47 1467.11 1491.47 1475.86 Q1491.47 1484.59 1488.39 1489.19 Q1485.33 1493.78 1479.52 1493.78 Q1473.71 1493.78 1470.63 1489.19 Q1467.58 1484.59 1467.58 1475.86 Q1467.58 1467.11 1470.63 1462.53 Q1473.71 1457.92 1479.52 1457.92 Z" fill="#000000" fill-rule="evenodd" fill-opacity="1" /><path clip-path="url(#clip670)" d="M 0 0 M1491.47 1452.02 L1515.58 1452.02 L1515.58 1455.22 L1491.47 1455.22 L1491.47 1452.02 Z" fill="#000000" fill-rule="evenodd" fill-opacity="1" /><path clip-path="url(#clip670)" d="M 0 0 M1519.73 1437.61 L1534.65 1437.61 L1534.65 1440.81 L1523.21 1440.81 L1523.21 1447.69 Q1524.04 1447.41 1524.87 1447.28 Q1525.7 1447.13 1526.52 1447.13 Q1531.22 1447.13 1533.97 1449.71 Q1536.72 1452.28 1536.72 1456.68 Q1536.72 1461.22 1533.9 1463.74 Q1531.07 1466.24 1525.94 1466.24 Q1524.17 1466.24 1522.33 1465.94 Q1520.5 1465.64 1518.55 1465.04 L1518.55 1461.22 Q1520.24 1462.14 1522.05 1462.59 Q1523.85 1463.04 1525.86 1463.04 Q1529.12 1463.04 1531.02 1461.33 Q1532.92 1459.62 1532.92 1456.68 Q1532.92 1453.75 1531.02 1452.04 Q1529.12 1450.33 1525.86 1450.33 Q1524.34 1450.33 1522.82 1450.67 Q1521.31 1451 1519.73 1451.72 L1519.73 1437.61 Z" fill="#000000" fill-rule="evenodd" fill-opacity="1" /><path clip-path="url(#clip670)" d="M 0 0 M1540.84 1460.92 L1544.8 1460.92 L1544.8 1465.69 L1540.84 1465.69 L1540.84 1460.92 Z" fill="#000000" fill-rule="evenodd" fill-opacity="1" /><path clip-path="url(#clip670)" d="M 0 0 M1547.96 1437.61 L1566.02 1437.61 L1566.02 1439.23 L1555.83 1465.69 L1551.86 1465.69 L1561.45 1440.81 L1547.96 1440.81 L1547.96 1437.61 Z" fill="#000000" fill-rule="evenodd" fill-opacity="1" /><path clip-path="url(#clip670)" d="M 0 0 M1838.44 1489.17 L1846.08 1489.17 L1846.08 1462.8 L1837.77 1464.47 L1837.77 1460.21 L1846.03 1458.54 L1850.71 1458.54 L1850.71 1489.17 L1858.35 1489.17 L1858.35 1493.1 L1838.44 1493.1 L1838.44 1489.17 Z" fill="#000000" fill-rule="evenodd" fill-opacity="1" /><path clip-path="url(#clip670)" d="M 0 0 M1873.42 1461.62 Q1869.81 1461.62 1867.98 1465.19 Q1866.17 1468.73 1866.17 1475.86 Q1866.17 1482.97 1867.98 1486.53 Q1869.81 1490.07 1873.42 1490.07 Q1877.05 1490.07 1878.86 1486.53 Q1880.69 1482.97 1880.69 1475.86 Q1880.69 1468.73 1878.86 1465.19 Q1877.05 1461.62 1873.42 1461.62 M1873.42 1457.92 Q1879.23 1457.92 1882.28 1462.53 Q1885.36 1467.11 1885.36 1475.86 Q1885.36 1484.59 1882.28 1489.19 Q1879.23 1493.78 1873.42 1493.78 Q1867.61 1493.78 1864.53 1489.19 Q1861.47 1484.59 1861.47 1475.86 Q1861.47 1467.11 1864.53 1462.53 Q1867.61 1457.92 1873.42 1457.92 Z" fill="#000000" fill-rule="evenodd" fill-opacity="1" /><path clip-path="url(#clip670)" d="M 0 0 M1885.36 1452.02 L1909.47 1452.02 L1909.47 1455.22 L1885.36 1455.22 L1885.36 1452.02 Z" fill="#000000" fill-rule="evenodd" fill-opacity="1" /><path clip-path="url(#clip670)" d="M 0 0 M1913.63 1437.61 L1928.55 1437.61 L1928.55 1440.81 L1917.11 1440.81 L1917.11 1447.69 Q1917.94 1447.41 1918.77 1447.28 Q1919.59 1447.13 1920.42 1447.13 Q1925.12 1447.13 1927.87 1449.71 Q1930.61 1452.28 1930.61 1456.68 Q1930.61 1461.22 1927.79 1463.74 Q1924.97 1466.24 1919.84 1466.24 Q1918.07 1466.24 1916.23 1465.94 Q1914.4 1465.64 1912.45 1465.04 L1912.45 1461.22 Q1914.14 1462.14 1915.94 1462.59 Q1917.75 1463.04 1919.76 1463.04 Q1923.02 1463.04 1924.92 1461.33 Q1926.82 1459.62 1926.82 1456.68 Q1926.82 1453.75 1924.92 1452.04 Q1923.02 1450.33 1919.76 1450.33 Q1918.24 1450.33 1916.72 1450.67 Q1915.21 1451 1913.63 1451.72 L1913.63 1437.61 Z" fill="#000000" fill-rule="evenodd" fill-opacity="1" /><path clip-path="url(#clip670)" d="M 0 0 M1934.73 1460.92 L1938.7 1460.92 L1938.7 1465.69 L1934.73 1465.69 L1934.73 1460.92 Z" fill="#000000" fill-rule="evenodd" fill-opacity="1" /><path clip-path="url(#clip670)" d="M 0 0 M1951.42 1450.14 Q1948.86 1450.14 1947.35 1451.89 Q1945.87 1453.64 1945.87 1456.68 Q1945.87 1459.71 1947.35 1461.48 Q1948.86 1463.23 1951.42 1463.23 Q1953.97 1463.23 1955.46 1461.48 Q1956.96 1459.71 1956.96 1456.68 Q1956.96 1453.64 1955.46 1451.89 Q1953.97 1450.14 1951.42 1450.14 M1958.96 1438.23 L1958.96 1441.69 Q1957.53 1441.02 1956.06 1440.66 Q1954.61 1440.3 1953.18 1440.3 Q1949.42 1440.3 1947.43 1442.84 Q1945.45 1445.38 1945.17 1450.52 Q1946.28 1448.88 1947.96 1448.01 Q1949.63 1447.13 1951.64 1447.13 Q1955.87 1447.13 1958.32 1449.71 Q1960.78 1452.26 1960.78 1456.68 Q1960.78 1461.01 1958.22 1463.62 Q1955.67 1466.24 1951.42 1466.24 Q1946.54 1466.24 1943.97 1462.51 Q1941.39 1458.77 1941.39 1451.68 Q1941.39 1445.02 1944.55 1441.07 Q1947.71 1437.11 1953.03 1437.11 Q1954.46 1437.11 1955.91 1437.39 Q1957.38 1437.67 1958.96 1438.23 Z" fill="#000000" fill-rule="evenodd" fill-opacity="1" /><path clip-path="url(#clip670)" d="M 0 0 M2233.24 1489.17 L2240.88 1489.17 L2240.88 1462.8 L2232.57 1464.47 L2232.57 1460.21 L2240.83 1458.54 L2245.51 1458.54 L2245.51 1489.17 L2253.15 1489.17 L2253.15 1493.1 L2233.24 1493.1 L2233.24 1489.17 Z" fill="#000000" fill-rule="evenodd" fill-opacity="1" /><path clip-path="url(#clip670)" d="M 0 0 M2268.22 1461.62 Q2264.61 1461.62 2262.78 1465.19 Q2260.97 1468.73 2260.97 1475.86 Q2260.97 1482.97 2262.78 1486.53 Q2264.61 1490.07 2268.22 1490.07 Q2271.85 1490.07 2273.66 1486.53 Q2275.49 1482.97 2275.49 1475.86 Q2275.49 1468.73 2273.66 1465.19 Q2271.85 1461.62 2268.22 1461.62 M2268.22 1457.92 Q2274.03 1457.92 2277.08 1462.53 Q2280.16 1467.11 2280.16 1475.86 Q2280.16 1484.59 2277.08 1489.19 Q2274.03 1493.78 2268.22 1493.78 Q2262.41 1493.78 2259.33 1489.19 Q2256.27 1484.59 2256.27 1475.86 Q2256.27 1467.11 2259.33 1462.53 Q2262.41 1457.92 2268.22 1457.92 Z" fill="#000000" fill-rule="evenodd" fill-opacity="1" /><path clip-path="url(#clip670)" d="M 0 0 M2280.16 1452.02 L2304.27 1452.02 L2304.27 1455.22 L2280.16 1455.22 L2280.16 1452.02 Z" fill="#000000" fill-rule="evenodd" fill-opacity="1" /><path clip-path="url(#clip670)" d="M 0 0 M2308.43 1437.61 L2323.35 1437.61 L2323.35 1440.81 L2311.91 1440.81 L2311.91 1447.69 Q2312.74 1447.41 2313.57 1447.28 Q2314.39 1447.13 2315.22 1447.13 Q2319.92 1447.13 2322.67 1449.71 Q2325.41 1452.28 2325.41 1456.68 Q2325.41 1461.22 2322.59 1463.74 Q2319.77 1466.24 2314.64 1466.24 Q2312.87 1466.24 2311.03 1465.94 Q2309.2 1465.64 2307.25 1465.04 L2307.25 1461.22 Q2308.94 1462.14 2310.74 1462.59 Q2312.55 1463.04 2314.56 1463.04 Q2317.82 1463.04 2319.72 1461.33 Q2321.62 1459.62 2321.62 1456.68 Q2321.62 1453.75 2319.72 1452.04 Q2317.82 1450.33 2314.56 1450.33 Q2313.04 1450.33 2311.52 1450.67 Q2310.01 1451 2308.43 1451.72 L2308.43 1437.61 Z" fill="#000000" fill-rule="evenodd" fill-opacity="1" /><path clip-path="url(#clip670)" d="M 0 0 M2329.53 1460.92 L2333.5 1460.92 L2333.5 1465.69 L2329.53 1465.69 L2329.53 1460.92 Z" fill="#000000" fill-rule="evenodd" fill-opacity="1" /><path clip-path="url(#clip670)" d="M 0 0 M2337.66 1437.61 L2352.57 1437.61 L2352.57 1440.81 L2341.14 1440.81 L2341.14 1447.69 Q2341.97 1447.41 2342.79 1447.28 Q2343.62 1447.13 2344.45 1447.13 Q2349.15 1447.13 2351.9 1449.71 Q2354.64 1452.28 2354.64 1456.68 Q2354.64 1461.22 2351.82 1463.74 Q2349 1466.24 2343.87 1466.24 Q2342.1 1466.24 2340.25 1465.94 Q2338.43 1465.64 2336.47 1465.04 L2336.47 1461.22 Q2338.17 1462.14 2339.97 1462.59 Q2341.78 1463.04 2343.79 1463.04 Q2347.04 1463.04 2348.94 1461.33 Q2350.84 1459.62 2350.84 1456.68 Q2350.84 1453.75 2348.94 1452.04 Q2347.04 1450.33 2343.79 1450.33 Q2342.27 1450.33 2340.74 1450.67 Q2339.24 1451 2337.66 1451.72 L2337.66 1437.61 Z" fill="#000000" fill-rule="evenodd" fill-opacity="1" /><path clip-path="url(#clip670)" d="M 0 0 M1200.55 1526.54 L1206.76 1526.54 L1217.9 1556.46 L1229.04 1526.54 L1235.24 1526.54 L1221.88 1562.19 L1213.92 1562.19 L1200.55 1526.54 Z" fill="#000000" fill-rule="evenodd" fill-opacity="1" /><path clip-path="url(#clip670)" d="M 0 0 M1268.47 1573.01 L1268.47 1577.56 L1234.61 1577.56 L1234.61 1573.01 L1268.47 1573.01 Z" fill="#000000" fill-rule="evenodd" fill-opacity="1" /><path clip-path="url(#clip670)" d="M 0 0 M1288.43 1530.64 Q1283.72 1530.64 1280.98 1534.34 Q1278.24 1538 1278.24 1544.39 Q1278.24 1550.79 1280.95 1554.48 Q1283.69 1558.14 1288.43 1558.14 Q1293.11 1558.14 1295.85 1554.45 Q1298.58 1550.76 1298.58 1544.39 Q1298.58 1538.06 1295.85 1534.37 Q1293.11 1530.64 1288.43 1530.64 M1288.43 1525.68 Q1296.07 1525.68 1300.43 1530.64 Q1304.79 1535.61 1304.79 1544.39 Q1304.79 1553.15 1300.43 1558.14 Q1296.07 1563.11 1288.43 1563.11 Q1280.76 1563.11 1276.4 1558.14 Q1272.07 1553.15 1272.07 1544.39 Q1272.07 1535.61 1276.4 1530.64 Q1280.76 1525.68 1288.43 1525.68 Z" fill="#000000" fill-rule="evenodd" fill-opacity="1" /><path clip-path="url(#clip670)" d="M 0 0 M1316.6 1556.84 L1316.6 1575.74 L1310.71 1575.74 L1310.71 1526.54 L1316.6 1526.54 L1316.6 1531.95 Q1318.44 1528.77 1321.24 1527.24 Q1324.08 1525.68 1327.99 1525.68 Q1334.49 1525.68 1338.53 1530.83 Q1342.6 1535.99 1342.6 1544.39 Q1342.6 1552.8 1338.53 1557.95 Q1334.49 1563.11 1327.99 1563.11 Q1324.08 1563.11 1321.24 1561.58 Q1318.44 1560.02 1316.6 1556.84 M1336.52 1544.39 Q1336.52 1537.93 1333.85 1534.27 Q1331.21 1530.58 1326.56 1530.58 Q1321.91 1530.58 1319.24 1534.27 Q1316.6 1537.93 1316.6 1544.39 Q1316.6 1550.85 1319.24 1554.55 Q1321.91 1558.21 1326.56 1558.21 Q1331.21 1558.21 1333.85 1554.55 Q1336.52 1550.85 1336.52 1544.39 Z" fill="#000000" fill-rule="evenodd" fill-opacity="1" /><path clip-path="url(#clip670)" d="M 0 0 M1379.24 1542.9 L1379.24 1545.76 L1352.31 1545.76 Q1352.69 1551.81 1355.94 1554.99 Q1359.22 1558.14 1365.04 1558.14 Q1368.41 1558.14 1371.57 1557.32 Q1374.75 1556.49 1377.87 1554.83 L1377.87 1560.37 Q1374.72 1561.71 1371.41 1562.41 Q1368.1 1563.11 1364.69 1563.11 Q1356.16 1563.11 1351.16 1558.14 Q1346.2 1553.18 1346.2 1544.71 Q1346.2 1535.96 1350.91 1530.83 Q1355.65 1525.68 1363.67 1525.68 Q1370.87 1525.68 1375.03 1530.33 Q1379.24 1534.94 1379.24 1542.9 M1373.38 1541.18 Q1373.32 1536.37 1370.67 1533.51 Q1368.06 1530.64 1363.74 1530.64 Q1358.83 1530.64 1355.87 1533.41 Q1352.95 1536.18 1352.5 1541.21 L1373.38 1541.18 Z" fill="#000000" fill-rule="evenodd" fill-opacity="1" /><path clip-path="url(#clip670)" d="M 0 0 M1415.01 1540.67 L1415.01 1562.19 L1409.15 1562.19 L1409.15 1540.86 Q1409.15 1535.8 1407.18 1533.29 Q1405.21 1530.77 1401.26 1530.77 Q1396.52 1530.77 1393.78 1533.79 Q1391.04 1536.82 1391.04 1542.04 L1391.04 1562.19 L1385.16 1562.19 L1385.16 1526.54 L1391.04 1526.54 L1391.04 1532.08 Q1393.15 1528.86 1395.98 1527.27 Q1398.84 1525.68 1402.57 1525.68 Q1408.71 1525.68 1411.86 1529.5 Q1415.01 1533.29 1415.01 1540.67 Z" fill="#000000" fill-rule="evenodd" fill-opacity="1" /><polyline clip-path="url(#clip672)" style="stroke:#000000; stroke-width:2; stroke-opacity:0.1; fill:none" points="
  262.806,1235 2352.76,1235 
  "/>
<polyline clip-path="url(#clip672)" style="stroke:#000000; stroke-width:2; stroke-opacity:0.1; fill:none" points="
  262.806,902.463 2352.76,902.463 
  "/>
<polyline clip-path="url(#clip672)" style="stroke:#000000; stroke-width:2; stroke-opacity:0.1; fill:none" points="
  262.806,569.923 2352.76,569.923 
  "/>
<polyline clip-path="url(#clip672)" style="stroke:#000000; stroke-width:2; stroke-opacity:0.1; fill:none" points="
  262.806,237.383 2352.76,237.383 
  "/>
<polyline clip-path="url(#clip670)" style="stroke:#000000; stroke-width:4; stroke-opacity:1; fill:none" points="
  262.806,1410.9 262.806,47.2441 
  "/>
<polyline clip-path="url(#clip670)" style="stroke:#000000; stroke-width:4; stroke-opacity:1; fill:none" points="
  262.806,1235 287.885,1235 
  "/>
<polyline clip-path="url(#clip670)" style="stroke:#000000; stroke-width:4; stroke-opacity:1; fill:none" points="
  262.806,902.463 287.885,902.463 
  "/>
<polyline clip-path="url(#clip670)" style="stroke:#000000; stroke-width:4; stroke-opacity:1; fill:none" points="
  262.806,569.923 287.885,569.923 
  "/>
<polyline clip-path="url(#clip670)" style="stroke:#000000; stroke-width:4; stroke-opacity:1; fill:none" points="
  262.806,237.383 287.885,237.383 
  "/>
<path clip-path="url(#clip670)" d="M 0 0 M116.066 1248.35 L123.705 1248.35 L123.705 1221.98 L115.394 1223.65 L115.394 1219.39 L123.658 1217.72 L128.334 1217.72 L128.334 1248.35 L135.973 1248.35 L135.973 1252.28 L116.066 1252.28 L116.066 1248.35 Z" fill="#000000" fill-rule="evenodd" fill-opacity="1" /><path clip-path="url(#clip670)" d="M 0 0 M153.89 1221.8 L142.084 1240.25 L153.89 1240.25 L153.89 1221.8 M152.663 1217.72 L158.542 1217.72 L158.542 1240.25 L163.473 1240.25 L163.473 1244.14 L158.542 1244.14 L158.542 1252.28 L153.89 1252.28 L153.89 1244.14 L138.288 1244.14 L138.288 1239.62 L152.663 1217.72 Z" fill="#000000" fill-rule="evenodd" fill-opacity="1" /><path clip-path="url(#clip670)" d="M 0 0 M168.542 1246.4 L173.427 1246.4 L173.427 1252.28 L168.542 1252.28 L168.542 1246.4 Z" fill="#000000" fill-rule="evenodd" fill-opacity="1" /><path clip-path="url(#clip670)" d="M 0 0 M192.663 1233.65 Q196.019 1234.37 197.894 1236.64 Q199.792 1238.9 199.792 1242.24 Q199.792 1247.35 196.274 1250.15 Q192.755 1252.95 186.274 1252.95 Q184.098 1252.95 181.783 1252.52 Q179.491 1252.1 177.038 1251.24 L177.038 1246.73 Q178.982 1247.86 181.297 1248.44 Q183.612 1249.02 186.135 1249.02 Q190.533 1249.02 192.825 1247.28 Q195.139 1245.55 195.139 1242.24 Q195.139 1239.18 192.987 1237.47 Q190.857 1235.73 187.038 1235.73 L183.01 1235.73 L183.01 1231.89 L187.223 1231.89 Q190.672 1231.89 192.5 1230.52 Q194.329 1229.14 194.329 1226.54 Q194.329 1223.88 192.431 1222.47 Q190.556 1221.03 187.038 1221.03 Q185.116 1221.03 182.917 1221.45 Q180.718 1221.87 178.079 1222.75 L178.079 1218.58 Q180.741 1217.84 183.056 1217.47 Q185.394 1217.1 187.454 1217.1 Q192.778 1217.1 195.88 1219.53 Q198.982 1221.94 198.982 1226.06 Q198.982 1228.93 197.338 1230.92 Q195.695 1232.89 192.663 1233.65 Z" fill="#000000" fill-rule="evenodd" fill-opacity="1" /><path clip-path="url(#clip670)" d="M 0 0 M214.861 1220.8 Q211.25 1220.8 209.422 1224.37 Q207.616 1227.91 207.616 1235.04 Q207.616 1242.14 209.422 1245.71 Q211.25 1249.25 214.861 1249.25 Q218.496 1249.25 220.301 1245.71 Q222.13 1242.14 222.13 1235.04 Q222.13 1227.91 220.301 1224.37 Q218.496 1220.8 214.861 1220.8 M214.861 1217.1 Q220.672 1217.1 223.727 1221.7 Q226.806 1226.29 226.806 1235.04 Q226.806 1243.77 223.727 1248.37 Q220.672 1252.95 214.861 1252.95 Q209.051 1252.95 205.973 1248.37 Q202.917 1243.77 202.917 1235.04 Q202.917 1226.29 205.973 1221.7 Q209.051 1217.1 214.861 1217.1 Z" fill="#000000" fill-rule="evenodd" fill-opacity="1" /><path clip-path="url(#clip670)" d="M 0 0 M117.061 915.808 L124.7 915.808 L124.7 889.443 L116.39 891.109 L116.39 886.85 L124.654 885.183 L129.33 885.183 L129.33 915.808 L136.968 915.808 L136.968 919.743 L117.061 919.743 L117.061 915.808 Z" fill="#000000" fill-rule="evenodd" fill-opacity="1" /><path clip-path="url(#clip670)" d="M 0 0 M154.885 889.257 L143.079 907.706 L154.885 907.706 L154.885 889.257 M153.658 885.183 L159.538 885.183 L159.538 907.706 L164.468 907.706 L164.468 911.595 L159.538 911.595 L159.538 919.743 L154.885 919.743 L154.885 911.595 L139.283 911.595 L139.283 907.081 L153.658 885.183 Z" fill="#000000" fill-rule="evenodd" fill-opacity="1" /><path clip-path="url(#clip670)" d="M 0 0 M169.538 913.864 L174.422 913.864 L174.422 919.743 L169.538 919.743 L169.538 913.864 Z" fill="#000000" fill-rule="evenodd" fill-opacity="1" /><path clip-path="url(#clip670)" d="M 0 0 M193.658 901.109 Q197.014 901.827 198.889 904.095 Q200.787 906.364 200.787 909.697 Q200.787 914.813 197.269 917.614 Q193.75 920.415 187.269 920.415 Q185.093 920.415 182.778 919.975 Q180.487 919.558 178.033 918.702 L178.033 914.188 Q179.977 915.322 182.292 915.901 Q184.607 916.479 187.13 916.479 Q191.528 916.479 193.82 914.743 Q196.135 913.007 196.135 909.697 Q196.135 906.642 193.982 904.929 Q191.852 903.192 188.033 903.192 L184.005 903.192 L184.005 899.35 L188.218 899.35 Q191.667 899.35 193.496 897.984 Q195.325 896.595 195.325 894.003 Q195.325 891.341 193.426 889.929 Q191.551 888.493 188.033 888.493 Q186.112 888.493 183.913 888.91 Q181.713 889.327 179.075 890.206 L179.075 886.04 Q181.737 885.299 184.051 884.929 Q186.389 884.558 188.45 884.558 Q193.774 884.558 196.875 886.989 Q199.977 889.396 199.977 893.517 Q199.977 896.387 198.334 898.378 Q196.69 900.345 193.658 901.109 Z" fill="#000000" fill-rule="evenodd" fill-opacity="1" /><path clip-path="url(#clip670)" d="M 0 0 M205.903 885.183 L224.26 885.183 L224.26 889.118 L210.186 889.118 L210.186 897.591 Q211.204 897.243 212.223 897.081 Q213.241 896.896 214.26 896.896 Q220.047 896.896 223.426 900.068 Q226.806 903.239 226.806 908.655 Q226.806 914.234 223.334 917.336 Q219.861 920.415 213.542 920.415 Q211.366 920.415 209.098 920.044 Q206.852 919.674 204.445 918.933 L204.445 914.234 Q206.528 915.368 208.75 915.924 Q210.973 916.479 213.449 916.479 Q217.454 916.479 219.792 914.373 Q222.13 912.267 222.13 908.655 Q222.13 905.044 219.792 902.938 Q217.454 900.831 213.449 900.831 Q211.574 900.831 209.699 901.248 Q207.848 901.665 205.903 902.544 L205.903 885.183 Z" fill="#000000" fill-rule="evenodd" fill-opacity="1" /><path clip-path="url(#clip670)" d="M 0 0 M114.931 583.268 L122.57 583.268 L122.57 556.902 L114.26 558.569 L114.26 554.31 L122.524 552.643 L127.2 552.643 L127.2 583.268 L134.839 583.268 L134.839 587.203 L114.931 587.203 L114.931 583.268 Z" fill="#000000" fill-rule="evenodd" fill-opacity="1" /><path clip-path="url(#clip670)" d="M 0 0 M152.755 556.717 L140.95 575.166 L152.755 575.166 L152.755 556.717 M151.528 552.643 L157.408 552.643 L157.408 575.166 L162.339 575.166 L162.339 579.055 L157.408 579.055 L157.408 587.203 L152.755 587.203 L152.755 579.055 L137.154 579.055 L137.154 574.541 L151.528 552.643 Z" fill="#000000" fill-rule="evenodd" fill-opacity="1" /><path clip-path="url(#clip670)" d="M 0 0 M167.408 581.324 L172.292 581.324 L172.292 587.203 L167.408 587.203 L167.408 581.324 Z" fill="#000000" fill-rule="evenodd" fill-opacity="1" /><path clip-path="url(#clip670)" d="M 0 0 M190.209 556.717 L178.403 575.166 L190.209 575.166 L190.209 556.717 M188.982 552.643 L194.862 552.643 L194.862 575.166 L199.792 575.166 L199.792 579.055 L194.862 579.055 L194.862 587.203 L190.209 587.203 L190.209 579.055 L174.607 579.055 L174.607 574.541 L188.982 552.643 Z" fill="#000000" fill-rule="evenodd" fill-opacity="1" /><path clip-path="url(#clip670)" d="M 0 0 M214.861 555.722 Q211.25 555.722 209.422 559.287 Q207.616 562.828 207.616 569.958 Q207.616 577.064 209.422 580.629 Q211.25 584.171 214.861 584.171 Q218.496 584.171 220.301 580.629 Q222.13 577.064 222.13 569.958 Q222.13 562.828 220.301 559.287 Q218.496 555.722 214.861 555.722 M214.861 552.018 Q220.672 552.018 223.727 556.625 Q226.806 561.208 226.806 569.958 Q226.806 578.685 223.727 583.291 Q220.672 587.874 214.861 587.874 Q209.051 587.874 205.973 583.291 Q202.917 578.685 202.917 569.958 Q202.917 561.208 205.973 556.625 Q209.051 552.018 214.861 552.018 Z" fill="#000000" fill-rule="evenodd" fill-opacity="1" /><path clip-path="url(#clip670)" d="M 0 0 M115.927 250.728 L123.566 250.728 L123.566 224.362 L115.256 226.029 L115.256 221.77 L123.519 220.103 L128.195 220.103 L128.195 250.728 L135.834 250.728 L135.834 254.663 L115.927 254.663 L115.927 250.728 Z" fill="#000000" fill-rule="evenodd" fill-opacity="1" /><path clip-path="url(#clip670)" d="M 0 0 M153.751 224.177 L141.945 242.626 L153.751 242.626 L153.751 224.177 M152.524 220.103 L158.403 220.103 L158.403 242.626 L163.334 242.626 L163.334 246.515 L158.403 246.515 L158.403 254.663 L153.751 254.663 L153.751 246.515 L138.149 246.515 L138.149 242.001 L152.524 220.103 Z" fill="#000000" fill-rule="evenodd" fill-opacity="1" /><path clip-path="url(#clip670)" d="M 0 0 M168.403 248.783 L173.288 248.783 L173.288 254.663 L168.403 254.663 L168.403 248.783 Z" fill="#000000" fill-rule="evenodd" fill-opacity="1" /><path clip-path="url(#clip670)" d="M 0 0 M191.204 224.177 L179.399 242.626 L191.204 242.626 L191.204 224.177 M189.977 220.103 L195.857 220.103 L195.857 242.626 L200.787 242.626 L200.787 246.515 L195.857 246.515 L195.857 254.663 L191.204 254.663 L191.204 246.515 L175.602 246.515 L175.602 242.001 L189.977 220.103 Z" fill="#000000" fill-rule="evenodd" fill-opacity="1" /><path clip-path="url(#clip670)" d="M 0 0 M205.903 220.103 L224.26 220.103 L224.26 224.038 L210.186 224.038 L210.186 232.51 Q211.204 232.163 212.223 232.001 Q213.241 231.816 214.26 231.816 Q220.047 231.816 223.426 234.987 Q226.806 238.158 226.806 243.575 Q226.806 249.154 223.334 252.256 Q219.861 255.334 213.542 255.334 Q211.366 255.334 209.098 254.964 Q206.852 254.593 204.445 253.853 L204.445 249.154 Q206.528 250.288 208.75 250.843 Q210.973 251.399 213.449 251.399 Q217.454 251.399 219.792 249.293 Q222.13 247.186 222.13 243.575 Q222.13 239.964 219.792 237.857 Q217.454 235.751 213.449 235.751 Q211.574 235.751 209.699 236.168 Q207.848 236.584 205.903 237.464 L205.903 220.103 Z" fill="#000000" fill-rule="evenodd" fill-opacity="1" /><path clip-path="url(#clip670)" d="M 0 0 M59.1993 815.533 Q55.2526 813.336 53.3747 810.281 Q51.4968 807.225 51.4968 803.088 Q51.4968 797.518 55.4117 794.494 Q59.2948 791.47 66.4881 791.47 L88.0042 791.47 L88.0042 797.358 L66.679 797.358 Q61.5546 797.358 59.072 799.173 Q56.5894 800.987 56.5894 804.711 Q56.5894 809.262 59.6131 811.904 Q62.6368 814.546 67.8567 814.546 L88.0042 814.546 L88.0042 820.434 L66.679 820.434 Q61.5228 820.434 59.072 822.248 Q56.5894 824.063 56.5894 827.85 Q56.5894 832.338 59.6449 834.98 Q62.6686 837.622 67.8567 837.622 L88.0042 837.622 L88.0042 843.51 L52.3562 843.51 L52.3562 837.622 L57.8944 837.622 Q54.616 835.616 53.0564 832.815 Q51.4968 830.015 51.4968 826.163 Q51.4968 822.28 53.4702 819.575 Q55.4436 816.838 59.1993 815.533 Z" fill="#000000" fill-rule="evenodd" fill-opacity="1" /><path clip-path="url(#clip670)" d="M 0 0 M52.3562 785.327 L52.3562 779.471 L88.0042 779.471 L88.0042 785.327 L52.3562 785.327 M38.479 785.327 L38.479 779.471 L45.895 779.471 L45.895 785.327 L38.479 785.327 Z" fill="#000000" fill-rule="evenodd" fill-opacity="1" /><path clip-path="url(#clip670)" d="M 0 0 M66.4881 743.696 L88.0042 743.696 L88.0042 749.552 L66.679 749.552 Q61.6183 749.552 59.1038 751.525 Q56.5894 753.499 56.5894 757.446 Q56.5894 762.188 59.6131 764.925 Q62.6368 767.662 67.8567 767.662 L88.0042 767.662 L88.0042 773.551 L52.3562 773.551 L52.3562 767.662 L57.8944 767.662 Q54.6797 765.562 53.0883 762.729 Q51.4968 759.864 51.4968 756.141 Q51.4968 749.998 55.3163 746.847 Q59.1038 743.696 66.4881 743.696 Z" fill="#000000" fill-rule="evenodd" fill-opacity="1" /><path clip-path="url(#clip670)" d="M 0 0 M98.8259 710.467 L103.377 710.467 L103.377 744.332 L98.8259 744.332 L98.8259 710.467 Z" fill="#000000" fill-rule="evenodd" fill-opacity="1" /><path clip-path="url(#clip670)" d="M 0 0 M57.7671 680.866 L38.479 680.866 L38.479 675.01 L88.0042 675.01 L88.0042 680.866 L82.657 680.866 Q85.8398 682.712 87.3994 685.545 Q88.9272 688.346 88.9272 692.292 Q88.9272 698.754 83.771 702.828 Q78.6147 706.87 70.212 706.87 Q61.8093 706.87 56.6531 702.828 Q51.4968 698.754 51.4968 692.292 Q51.4968 688.346 53.0564 685.545 Q54.5842 682.712 57.7671 680.866 M70.212 700.823 Q76.6732 700.823 80.3653 698.181 Q84.0256 695.507 84.0256 690.86 Q84.0256 686.213 80.3653 683.54 Q76.6732 680.866 70.212 680.866 Q63.7508 680.866 60.0905 683.54 Q56.3984 686.213 56.3984 690.86 Q56.3984 695.507 60.0905 698.181 Q63.7508 700.823 70.212 700.823 Z" fill="#000000" fill-rule="evenodd" fill-opacity="1" /><path clip-path="url(#clip670)" d="M 0 0 M52.3562 668.867 L52.3562 663.01 L88.0042 663.01 L88.0042 668.867 L52.3562 668.867 M38.479 668.867 L38.479 663.01 L45.895 663.01 L45.895 668.867 L38.479 668.867 Z" fill="#000000" fill-rule="evenodd" fill-opacity="1" /><path clip-path="url(#clip670)" d="M 0 0 M38.479 638.821 L43.3487 638.821 L43.3487 644.422 Q43.3487 647.573 44.6219 648.815 Q45.895 650.024 49.2052 650.024 L52.3562 650.024 L52.3562 640.38 L56.9077 640.38 L56.9077 650.024 L88.0042 650.024 L88.0042 655.912 L56.9077 655.912 L56.9077 661.514 L52.3562 661.514 L52.3562 655.912 L49.8736 655.912 Q43.9216 655.912 41.2162 653.143 Q38.479 650.374 38.479 644.359 L38.479 638.821 Z" fill="#000000" fill-rule="evenodd" fill-opacity="1" /><path clip-path="url(#clip670)" d="M 0 0 M38.479 614.631 L43.3487 614.631 L43.3487 620.233 Q43.3487 623.384 44.6219 624.625 Q45.895 625.835 49.2052 625.835 L52.3562 625.835 L52.3562 616.19 L56.9077 616.19 L56.9077 625.835 L88.0042 625.835 L88.0042 631.723 L56.9077 631.723 L56.9077 637.325 L52.3562 637.325 L52.3562 631.723 L49.8736 631.723 Q43.9216 631.723 41.2162 628.954 Q38.479 626.185 38.479 620.169 L38.479 614.631 Z" fill="#000000" fill-rule="evenodd" fill-opacity="1" /><polyline clip-path="url(#clip672)" style="stroke:#009af9; stroke-width:20; stroke-opacity:1; fill:none" stroke-dasharray="80, 50" points="
  321.955,85.838 2293.61,1372.3 
  "/>
<path clip-path="url(#clip670)" d="
M1999.86 213.659 L2283.09 213.659 L2283.09 92.6992 L1999.86 92.6992  Z
  " fill="#ffffff" fill-rule="evenodd" fill-opacity="1"/>
<polyline clip-path="url(#clip670)" style="stroke:#000000; stroke-width:4; stroke-opacity:1; fill:none" points="
  1999.86,213.659 2283.09,213.659 2283.09,92.6992 1999.86,92.6992 1999.86,213.659 
  "/>
<polyline clip-path="url(#clip670)" style="stroke:#009af9; stroke-width:4; stroke-opacity:1; fill:none" stroke-dasharray="16, 10" points="
  2023.08,153.179 2162.41,153.179 
  "/>
<path clip-path="url(#clip670)" d="M 0 0 M2199.47 172.867 Q2197.67 177.496 2195.95 178.908 Q2194.24 180.32 2191.37 180.32 L2187.97 180.32 L2187.97 176.755 L2190.47 176.755 Q2192.23 176.755 2193.2 175.922 Q2194.17 175.089 2195.35 171.987 L2196.12 170.043 L2185.63 144.533 L2190.14 144.533 L2198.24 164.811 L2206.35 144.533 L2210.86 144.533 L2199.47 172.867 Z" fill="#000000" fill-rule="evenodd" fill-opacity="1" /><path clip-path="url(#clip670)" d="M 0 0 M2216.74 166.524 L2224.38 166.524 L2224.38 140.158 L2216.07 141.825 L2216.07 137.566 L2224.33 135.899 L2229.01 135.899 L2229.01 166.524 L2236.65 166.524 L2236.65 170.459 L2216.74 170.459 L2216.74 166.524 Z" fill="#000000" fill-rule="evenodd" fill-opacity="1" /></svg>
