<?xml version="1.0" encoding="utf-8"?>
<svg xmlns="http://www.w3.org/2000/svg" xmlns:xlink="http://www.w3.org/1999/xlink" width="600" height="400" viewBox="0 0 2400 1600">
<defs>
  <clipPath id="clip860">
    <rect x="0" y="0" width="2400" height="1600"/>
  </clipPath>
</defs>
<path clip-path="url(#clip860)" d="
M0 1600 L2400 1600 L2400 0 L0 0  Z
  " fill="#ffffff" fill-rule="evenodd" fill-opacity="1"/>
<defs>
  <clipPath id="clip861">
    <rect x="480" y="0" width="1681" height="1600"/>
  </clipPath>
</defs>
<path clip-path="url(#clip860)" d="
M200.028 1410.9 L2352.76 1410.9 L2352.76 47.2441 L200.028 47.2441  Z
  " fill="#ffffff" fill-rule="evenodd" fill-opacity="1"/>
<defs>
  <clipPath id="clip862">
    <rect x="200" y="47" width="2154" height="1365"/>
  </clipPath>
</defs>
<polyline clip-path="url(#clip862)" style="stroke:#000000; stroke-width:2; stroke-opacity:0.1; fill:none" points="
  260.955,1410.9 260.955,47.2441 
  "/>
<polyline clip-path="url(#clip862)" style="stroke:#000000; stroke-width:2; stroke-opacity:0.1; fill:none" points="
  768.673,1410.9 768.673,47.2441 
  "/>
<polyline clip-path="url(#clip862)" style="stroke:#000000; stroke-width:2; stroke-opacity:0.1; fill:none" points="
  1276.39,1410.9 1276.39,47.2441 
  "/>
<polyline clip-path="url(#clip862)" style="stroke:#000000; stroke-width:2; stroke-opacity:0.1; fill:none" points="
  1784.11,1410.9 1784.11,47.2441 
  "/>
<polyline clip-path="url(#clip862)" style="stroke:#000000; stroke-width:2; stroke-opacity:0.1; fill:none" points="
  2291.83,1410.9 2291.83,47.2441 
  "/>
<polyline clip-path="url(#clip860)" style="stroke:#000000; stroke-width:4; stroke-opacity:1; fill:none" points="
  200.028,1410.9 2352.76,1410.9 
  "/>
<polyline clip-path="url(#clip860)" style="stroke:#000000; stroke-width:4; stroke-opacity:1; fill:none" points="
  260.955,1410.9 260.955,1394.53 
  "/>
<polyline clip-path="url(#clip860)" style="stroke:#000000; stroke-width:4; stroke-opacity:1; fill:none" points="
  768.673,1410.9 768.673,1394.53 
  "/>
<polyline clip-path="url(#clip860)" style="stroke:#000000; stroke-width:4; stroke-opacity:1; fill:none" points="
  1276.39,1410.9 1276.39,1394.53 
  "/>
<polyline clip-path="url(#clip860)" style="stroke:#000000; stroke-width:4; stroke-opacity:1; fill:none" points="
  1784.11,1410.9 1784.11,1394.53 
  "/>
<polyline clip-path="url(#clip860)" style="stroke:#000000; stroke-width:4; stroke-opacity:1; fill:none" points="
  2291.83,1410.9 2291.83,1394.53 
  "/>
<path clip-path="url(#clip860)" d="M 0 0 M199.716 1489.17 L207.355 1489.17 L207.355 1462.8 L199.045 1464.47 L199.045 1460.21 L207.308 1458.54 L211.984 1458.54 L211.984 1489.17 L219.623 1489.17 L219.623 1493.1 L199.716 1493.1 L199.716 1489.17 Z" fill="#000000" fill-rule="evenodd" fill-opacity="1" /><path clip-path="url(#clip860)" d="M 0 0 M234.693 1461.62 Q231.081 1461.62 229.253 1465.19 Q227.447 1468.73 227.447 1475.86 Q227.447 1482.97 229.253 1486.53 Q231.081 1490.07 234.693 1490.07 Q238.327 1490.07 240.132 1486.53 Q241.961 1482.97 241.961 1475.86 Q241.961 1468.73 240.132 1465.19 Q238.327 1461.62 234.693 1461.62 M234.693 1457.92 Q240.503 1457.92 243.558 1462.53 Q246.637 1467.11 246.637 1475.86 Q246.637 1484.59 243.558 1489.19 Q240.503 1493.78 234.693 1493.78 Q228.882 1493.78 225.804 1489.19 Q222.748 1484.59 222.748 1475.86 Q222.748 1467.11 225.804 1462.53 Q228.882 1457.92 234.693 1457.92 Z" fill="#000000" fill-rule="evenodd" fill-opacity="1" /><path clip-path="url(#clip860)" d="M 0 0 M246.637 1452.02 L270.748 1452.02 L270.748 1455.22 L246.637 1455.22 L246.637 1452.02 Z" fill="#000000" fill-rule="evenodd" fill-opacity="1" /><path clip-path="url(#clip860)" d="M 0 0 M283.462 1450.14 Q280.905 1450.14 279.4 1451.89 Q277.914 1453.64 277.914 1456.68 Q277.914 1459.71 279.4 1461.48 Q280.905 1463.23 283.462 1463.23 Q286.02 1463.23 287.506 1461.48 Q289.011 1459.71 289.011 1456.68 Q289.011 1453.64 287.506 1451.89 Q286.02 1450.14 283.462 1450.14 M291.004 1438.23 L291.004 1441.69 Q289.575 1441.02 288.108 1440.66 Q286.66 1440.3 285.23 1440.3 Q281.469 1440.3 279.475 1442.84 Q277.5 1445.38 277.218 1450.52 Q278.328 1448.88 280.002 1448.01 Q281.676 1447.13 283.688 1447.13 Q287.92 1447.13 290.365 1449.71 Q292.829 1452.26 292.829 1456.68 Q292.829 1461.01 290.271 1463.62 Q287.713 1466.24 283.462 1466.24 Q278.591 1466.24 276.015 1462.51 Q273.438 1458.77 273.438 1451.68 Q273.438 1445.02 276.598 1441.07 Q279.757 1437.11 285.08 1437.11 Q286.509 1437.11 287.958 1437.39 Q289.425 1437.67 291.004 1438.23 Z" fill="#000000" fill-rule="evenodd" fill-opacity="1" /><path clip-path="url(#clip860)" d="M 0 0 M296.948 1460.92 L300.916 1460.92 L300.916 1465.69 L296.948 1465.69 L296.948 1460.92 Z" fill="#000000" fill-rule="evenodd" fill-opacity="1" /><path clip-path="url(#clip860)" d="M 0 0 M313.16 1440.11 Q310.226 1440.11 308.74 1443.01 Q307.273 1445.89 307.273 1451.68 Q307.273 1457.46 308.74 1460.35 Q310.226 1463.23 313.16 1463.23 Q316.113 1463.23 317.58 1460.35 Q319.066 1457.46 319.066 1451.68 Q319.066 1445.89 317.58 1443.01 Q316.113 1440.11 313.16 1440.11 M313.16 1437.11 Q317.881 1437.11 320.363 1440.85 Q322.865 1444.57 322.865 1451.68 Q322.865 1458.77 320.363 1462.51 Q317.881 1466.24 313.16 1466.24 Q308.439 1466.24 305.938 1462.51 Q303.455 1458.77 303.455 1451.68 Q303.455 1444.57 305.938 1440.85 Q308.439 1437.11 313.16 1437.11 Z" fill="#000000" fill-rule="evenodd" fill-opacity="1" /><path clip-path="url(#clip860)" d="M 0 0 M708.309 1489.17 L715.948 1489.17 L715.948 1462.8 L707.638 1464.47 L707.638 1460.21 L715.902 1458.54 L720.578 1458.54 L720.578 1489.17 L728.216 1489.17 L728.216 1493.1 L708.309 1493.1 L708.309 1489.17 Z" fill="#000000" fill-rule="evenodd" fill-opacity="1" /><path clip-path="url(#clip860)" d="M 0 0 M743.286 1461.62 Q739.675 1461.62 737.846 1465.19 Q736.04 1468.73 736.04 1475.86 Q736.04 1482.97 737.846 1486.53 Q739.675 1490.07 743.286 1490.07 Q746.92 1490.07 748.726 1486.53 Q750.554 1482.97 750.554 1475.86 Q750.554 1468.73 748.726 1465.19 Q746.92 1461.62 743.286 1461.62 M743.286 1457.92 Q749.096 1457.92 752.152 1462.53 Q755.23 1467.11 755.23 1475.86 Q755.23 1484.59 752.152 1489.19 Q749.096 1493.78 743.286 1493.78 Q737.476 1493.78 734.397 1489.19 Q731.341 1484.59 731.341 1475.86 Q731.341 1467.11 734.397 1462.53 Q737.476 1457.92 743.286 1457.92 Z" fill="#000000" fill-rule="evenodd" fill-opacity="1" /><path clip-path="url(#clip860)" d="M 0 0 M755.23 1452.02 L779.342 1452.02 L779.342 1455.22 L755.23 1455.22 L755.23 1452.02 Z" fill="#000000" fill-rule="evenodd" fill-opacity="1" /><path clip-path="url(#clip860)" d="M 0 0 M783.498 1437.61 L798.413 1437.61 L798.413 1440.81 L786.978 1440.81 L786.978 1447.69 Q787.805 1447.41 788.633 1447.28 Q789.46 1447.13 790.288 1447.13 Q794.99 1447.13 797.736 1449.71 Q800.482 1452.28 800.482 1456.68 Q800.482 1461.22 797.661 1463.74 Q794.839 1466.24 789.705 1466.24 Q787.937 1466.24 786.094 1465.94 Q784.269 1465.64 782.313 1465.04 L782.313 1461.22 Q784.006 1462.14 785.812 1462.59 Q787.617 1463.04 789.63 1463.04 Q792.883 1463.04 794.783 1461.33 Q796.683 1459.62 796.683 1456.68 Q796.683 1453.75 794.783 1452.04 Q792.883 1450.33 789.63 1450.33 Q788.106 1450.33 786.583 1450.67 Q785.078 1451 783.498 1451.72 L783.498 1437.61 Z" fill="#000000" fill-rule="evenodd" fill-opacity="1" /><path clip-path="url(#clip860)" d="M 0 0 M804.601 1460.92 L808.569 1460.92 L808.569 1465.69 L804.601 1465.69 L804.601 1460.92 Z" fill="#000000" fill-rule="evenodd" fill-opacity="1" /><path clip-path="url(#clip860)" d="M 0 0 M812.726 1437.61 L827.64 1437.61 L827.64 1440.81 L816.205 1440.81 L816.205 1447.69 Q817.033 1447.41 817.86 1447.28 Q818.688 1447.13 819.515 1447.13 Q824.217 1447.13 826.963 1449.71 Q829.709 1452.28 829.709 1456.68 Q829.709 1461.22 826.888 1463.74 Q824.067 1466.24 818.932 1466.24 Q817.164 1466.24 815.321 1465.94 Q813.497 1465.64 811.541 1465.04 L811.541 1461.22 Q813.233 1462.14 815.039 1462.59 Q816.844 1463.04 818.857 1463.04 Q822.111 1463.04 824.01 1461.33 Q825.91 1459.62 825.91 1456.68 Q825.91 1453.75 824.01 1452.04 Q822.111 1450.33 818.857 1450.33 Q817.333 1450.33 815.81 1450.67 Q814.305 1451 812.726 1451.72 L812.726 1437.61 Z" fill="#000000" fill-rule="evenodd" fill-opacity="1" /><path clip-path="url(#clip860)" d="M 0 0 M1215.62 1489.17 L1223.26 1489.17 L1223.26 1462.8 L1214.95 1464.47 L1214.95 1460.21 L1223.22 1458.54 L1227.89 1458.54 L1227.89 1489.17 L1235.53 1489.17 L1235.53 1493.1 L1215.62 1493.1 L1215.62 1489.17 Z" fill="#000000" fill-rule="evenodd" fill-opacity="1" /><path clip-path="url(#clip860)" d="M 0 0 M1250.6 1461.62 Q1246.99 1461.62 1245.16 1465.19 Q1243.35 1468.73 1243.35 1475.86 Q1243.35 1482.97 1245.16 1486.53 Q1246.99 1490.07 1250.6 1490.07 Q1254.23 1490.07 1256.04 1486.53 Q1257.87 1482.97 1257.87 1475.86 Q1257.87 1468.73 1256.04 1465.19 Q1254.23 1461.62 1250.6 1461.62 M1250.6 1457.92 Q1256.41 1457.92 1259.47 1462.53 Q1262.54 1467.11 1262.54 1475.86 Q1262.54 1484.59 1259.47 1489.19 Q1256.41 1493.78 1250.6 1493.78 Q1244.79 1493.78 1241.71 1489.19 Q1238.66 1484.59 1238.66 1475.86 Q1238.66 1467.11 1241.71 1462.53 Q1244.79 1457.92 1250.6 1457.92 Z" fill="#000000" fill-rule="evenodd" fill-opacity="1" /><path clip-path="url(#clip860)" d="M 0 0 M1262.54 1452.02 L1286.66 1452.02 L1286.66 1455.22 L1262.54 1455.22 L1262.54 1452.02 Z" fill="#000000" fill-rule="evenodd" fill-opacity="1" /><path clip-path="url(#clip860)" d="M 0 0 M1290.81 1437.61 L1305.73 1437.61 L1305.73 1440.81 L1294.29 1440.81 L1294.29 1447.69 Q1295.12 1447.41 1295.95 1447.28 Q1296.77 1447.13 1297.6 1447.13 Q1302.3 1447.13 1305.05 1449.71 Q1307.8 1452.28 1307.8 1456.68 Q1307.8 1461.22 1304.97 1463.74 Q1302.15 1466.24 1297.02 1466.24 Q1295.25 1466.24 1293.41 1465.94 Q1291.58 1465.64 1289.63 1465.04 L1289.63 1461.22 Q1291.32 1462.14 1293.13 1462.59 Q1294.93 1463.04 1296.94 1463.04 Q1300.2 1463.04 1302.1 1461.33 Q1304 1459.62 1304 1456.68 Q1304 1453.75 1302.1 1452.04 Q1300.2 1450.33 1296.94 1450.33 Q1295.42 1450.33 1293.9 1450.67 Q1292.39 1451 1290.81 1451.72 L1290.81 1437.61 Z" fill="#000000" fill-rule="evenodd" fill-opacity="1" /><path clip-path="url(#clip860)" d="M 0 0 M1311.91 1460.92 L1315.88 1460.92 L1315.88 1465.69 L1311.91 1465.69 L1311.91 1460.92 Z" fill="#000000" fill-rule="evenodd" fill-opacity="1" /><path clip-path="url(#clip860)" d="M 0 0 M1328.13 1440.11 Q1325.19 1440.11 1323.71 1443.01 Q1322.24 1445.89 1322.24 1451.68 Q1322.24 1457.46 1323.71 1460.35 Q1325.19 1463.23 1328.13 1463.23 Q1331.08 1463.23 1332.55 1460.35 Q1334.03 1457.46 1334.03 1451.68 Q1334.03 1445.89 1332.55 1443.01 Q1331.08 1440.11 1328.13 1440.11 M1328.13 1437.11 Q1332.85 1437.11 1335.33 1440.85 Q1337.83 1444.57 1337.83 1451.68 Q1337.83 1458.77 1335.33 1462.51 Q1332.85 1466.24 1328.13 1466.24 Q1323.41 1466.24 1320.91 1462.51 Q1318.42 1458.77 1318.42 1451.68 Q1318.42 1444.57 1320.91 1440.85 Q1323.41 1437.11 1328.13 1437.11 Z" fill="#000000" fill-rule="evenodd" fill-opacity="1" /><path clip-path="url(#clip860)" d="M 0 0 M1723.14 1489.17 L1730.78 1489.17 L1730.78 1462.8 L1722.47 1464.47 L1722.47 1460.21 L1730.74 1458.54 L1735.41 1458.54 L1735.41 1489.17 L1743.05 1489.17 L1743.05 1493.1 L1723.14 1493.1 L1723.14 1489.17 Z" fill="#000000" fill-rule="evenodd" fill-opacity="1" /><path clip-path="url(#clip860)" d="M 0 0 M1758.12 1461.62 Q1754.51 1461.62 1752.68 1465.19 Q1750.88 1468.73 1750.88 1475.86 Q1750.88 1482.97 1752.68 1486.53 Q1754.51 1490.07 1758.12 1490.07 Q1761.76 1490.07 1763.56 1486.53 Q1765.39 1482.97 1765.39 1475.86 Q1765.39 1468.73 1763.56 1465.19 Q1761.76 1461.62 1758.12 1461.62 M1758.12 1457.92 Q1763.93 1457.92 1766.99 1462.53 Q1770.07 1467.11 1770.07 1475.86 Q1770.07 1484.59 1766.99 1489.19 Q1763.93 1493.78 1758.12 1493.78 Q1752.31 1493.78 1749.23 1489.19 Q1746.18 1484.59 1746.18 1475.86 Q1746.18 1467.11 1749.23 1462.53 Q1752.31 1457.92 1758.12 1457.92 Z" fill="#000000" fill-rule="evenodd" fill-opacity="1" /><path clip-path="url(#clip860)" d="M 0 0 M1770.07 1452.02 L1794.18 1452.02 L1794.18 1455.22 L1770.07 1455.22 L1770.07 1452.02 Z" fill="#000000" fill-rule="evenodd" fill-opacity="1" /><path clip-path="url(#clip860)" d="M 0 0 M1808.73 1440.92 L1799.14 1455.91 L1808.73 1455.91 L1808.73 1440.92 M1807.74 1437.61 L1812.51 1437.61 L1812.51 1455.91 L1816.52 1455.91 L1816.52 1459.07 L1812.51 1459.07 L1812.51 1465.69 L1808.73 1465.69 L1808.73 1459.07 L1796.06 1459.07 L1796.06 1455.41 L1807.74 1437.61 Z" fill="#000000" fill-rule="evenodd" fill-opacity="1" /><path clip-path="url(#clip860)" d="M 0 0 M1820.64 1460.92 L1824.61 1460.92 L1824.61 1465.69 L1820.64 1465.69 L1820.64 1460.92 Z" fill="#000000" fill-rule="evenodd" fill-opacity="1" /><path clip-path="url(#clip860)" d="M 0 0 M1828.76 1437.61 L1843.68 1437.61 L1843.68 1440.81 L1832.24 1440.81 L1832.24 1447.69 Q1833.07 1447.41 1833.9 1447.28 Q1834.73 1447.13 1835.55 1447.13 Q1840.26 1447.13 1843 1449.71 Q1845.75 1452.28 1845.75 1456.68 Q1845.75 1461.22 1842.93 1463.74 Q1840.11 1466.24 1834.97 1466.24 Q1833.2 1466.24 1831.36 1465.94 Q1829.54 1465.64 1827.58 1465.04 L1827.58 1461.22 Q1829.27 1462.14 1831.08 1462.59 Q1832.88 1463.04 1834.9 1463.04 Q1838.15 1463.04 1840.05 1461.33 Q1841.95 1459.62 1841.95 1456.68 Q1841.95 1453.75 1840.05 1452.04 Q1838.15 1450.33 1834.9 1450.33 Q1833.37 1450.33 1831.85 1450.67 Q1830.34 1451 1828.76 1451.72 L1828.76 1437.61 Z" fill="#000000" fill-rule="evenodd" fill-opacity="1" /><path clip-path="url(#clip860)" d="M 0 0 M2230.46 1489.17 L2238.1 1489.17 L2238.1 1462.8 L2229.79 1464.47 L2229.79 1460.21 L2238.05 1458.54 L2242.73 1458.54 L2242.73 1489.17 L2250.37 1489.17 L2250.37 1493.1 L2230.46 1493.1 L2230.46 1489.17 Z" fill="#000000" fill-rule="evenodd" fill-opacity="1" /><path clip-path="url(#clip860)" d="M 0 0 M2265.44 1461.62 Q2261.82 1461.62 2260 1465.19 Q2258.19 1468.73 2258.19 1475.86 Q2258.19 1482.97 2260 1486.53 Q2261.82 1490.07 2265.44 1490.07 Q2269.07 1490.07 2270.88 1486.53 Q2272.7 1482.97 2272.7 1475.86 Q2272.7 1468.73 2270.88 1465.19 Q2269.07 1461.62 2265.44 1461.62 M2265.44 1457.92 Q2271.25 1457.92 2274.3 1462.53 Q2277.38 1467.11 2277.38 1475.86 Q2277.38 1484.59 2274.3 1489.19 Q2271.25 1493.78 2265.44 1493.78 Q2259.63 1493.78 2256.55 1489.19 Q2253.49 1484.59 2253.49 1475.86 Q2253.49 1467.11 2256.55 1462.53 Q2259.63 1457.92 2265.44 1457.92 Z" fill="#000000" fill-rule="evenodd" fill-opacity="1" /><path clip-path="url(#clip860)" d="M 0 0 M2277.38 1452.02 L2301.49 1452.02 L2301.49 1455.22 L2277.38 1455.22 L2277.38 1452.02 Z" fill="#000000" fill-rule="evenodd" fill-opacity="1" /><path clip-path="url(#clip860)" d="M 0 0 M2316.05 1440.92 L2306.46 1455.91 L2316.05 1455.91 L2316.05 1440.92 M2315.05 1437.61 L2319.83 1437.61 L2319.83 1455.91 L2323.84 1455.91 L2323.84 1459.07 L2319.83 1459.07 L2319.83 1465.69 L2316.05 1465.69 L2316.05 1459.07 L2303.37 1459.07 L2303.37 1455.41 L2315.05 1437.61 Z" fill="#000000" fill-rule="evenodd" fill-opacity="1" /><path clip-path="url(#clip860)" d="M 0 0 M2327.95 1460.92 L2331.92 1460.92 L2331.92 1465.69 L2327.95 1465.69 L2327.95 1460.92 Z" fill="#000000" fill-rule="evenodd" fill-opacity="1" /><path clip-path="url(#clip860)" d="M 0 0 M2344.17 1440.11 Q2341.23 1440.11 2339.75 1443.01 Q2338.28 1445.89 2338.28 1451.68 Q2338.28 1457.46 2339.75 1460.35 Q2341.23 1463.23 2344.17 1463.23 Q2347.12 1463.23 2348.59 1460.35 Q2350.07 1457.46 2350.07 1451.68 Q2350.07 1445.89 2348.59 1443.01 Q2347.12 1440.11 2344.17 1440.11 M2344.17 1437.11 Q2348.89 1437.11 2351.37 1440.85 Q2353.87 1444.57 2353.87 1451.68 Q2353.87 1458.77 2351.37 1462.51 Q2348.89 1466.24 2344.17 1466.24 Q2339.45 1466.24 2336.94 1462.51 Q2334.46 1458.77 2334.46 1451.68 Q2334.46 1444.57 2336.94 1440.85 Q2339.45 1437.11 2344.17 1437.11 Z" fill="#000000" fill-rule="evenodd" fill-opacity="1" /><path clip-path="url(#clip860)" d="M 0 0 M1207.91 1512.66 L1213.8 1512.66 L1213.8 1541.91 L1231.28 1526.54 L1238.75 1526.54 L1219.85 1543.22 L1239.55 1562.19 L1231.91 1562.19 L1213.8 1544.78 L1213.8 1562.19 L1207.91 1562.19 L1207.91 1512.66 Z" fill="#000000" fill-rule="evenodd" fill-opacity="1" /><path clip-path="url(#clip860)" d="M 0 0 M1272.78 1573.01 L1272.78 1577.56 L1238.91 1577.56 L1238.91 1573.01 L1272.78 1573.01 Z" fill="#000000" fill-rule="evenodd" fill-opacity="1" /><path clip-path="url(#clip860)" d="M 0 0 M1292.74 1530.64 Q1288.03 1530.64 1285.29 1534.34 Q1282.55 1538 1282.55 1544.39 Q1282.55 1550.79 1285.26 1554.48 Q1287.99 1558.14 1292.74 1558.14 Q1297.41 1558.14 1300.15 1554.45 Q1302.89 1550.76 1302.89 1544.39 Q1302.89 1538.06 1300.15 1534.37 Q1297.41 1530.64 1292.74 1530.64 M1292.74 1525.68 Q1300.37 1525.68 1304.74 1530.64 Q1309.1 1535.61 1309.1 1544.39 Q1309.1 1553.15 1304.74 1558.14 Q1300.37 1563.11 1292.74 1563.11 Q1285.07 1563.11 1280.7 1558.14 Q1276.38 1553.15 1276.38 1544.39 Q1276.38 1535.61 1280.7 1530.64 Q1285.07 1525.68 1292.74 1525.68 Z" fill="#000000" fill-rule="evenodd" fill-opacity="1" /><path clip-path="url(#clip860)" d="M 0 0 M1344.87 1540.67 L1344.87 1562.19 L1339.01 1562.19 L1339.01 1540.86 Q1339.01 1535.8 1337.04 1533.29 Q1335.07 1530.77 1331.12 1530.77 Q1326.38 1530.77 1323.64 1533.79 Q1320.9 1536.82 1320.9 1542.04 L1320.9 1562.19 L1315.02 1562.19 L1315.02 1526.54 L1320.9 1526.54 L1320.9 1532.08 Q1323.01 1528.86 1325.84 1527.27 Q1328.7 1525.68 1332.43 1525.68 Q1338.57 1525.68 1341.72 1529.5 Q1344.87 1533.29 1344.87 1540.67 Z" fill="#000000" fill-rule="evenodd" fill-opacity="1" /><polyline clip-path="url(#clip862)" style="stroke:#000000; stroke-width:2; stroke-opacity:0.1; fill:none" points="
  200.028,1407.31 2352.76,1407.31 
  "/>
<polyline clip-path="url(#clip862)" style="stroke:#000000; stroke-width:2; stroke-opacity:0.1; fill:none" points="
  200.028,1153.48 2352.76,1153.48 
  "/>
<polyline clip-path="url(#clip862)" style="stroke:#000000; stroke-width:2; stroke-opacity:0.1; fill:none" points="
  200.028,899.653 2352.76,899.653 
  "/>
<polyline clip-path="url(#clip862)" style="stroke:#000000; stroke-width:2; stroke-opacity:0.1; fill:none" points="
  200.028,645.823 2352.76,645.823 
  "/>
<polyline clip-path="url(#clip862)" style="stroke:#000000; stroke-width:2; stroke-opacity:0.1; fill:none" points="
  200.028,391.992 2352.76,391.992 
  "/>
<polyline clip-path="url(#clip862)" style="stroke:#000000; stroke-width:2; stroke-opacity:0.1; fill:none" points="
  200.028,138.161 2352.76,138.161 
  "/>
<polyline clip-path="url(#clip860)" style="stroke:#000000; stroke-width:4; stroke-opacity:1; fill:none" points="
  200.028,1410.9 200.028,47.2441 
  "/>
<polyline clip-path="url(#clip860)" style="stroke:#000000; stroke-width:4; stroke-opacity:1; fill:none" points="
  200.028,1407.31 225.861,1407.31 
  "/>
<polyline clip-path="url(#clip860)" style="stroke:#000000; stroke-width:4; stroke-opacity:1; fill:none" points="
  200.028,1153.48 225.861,1153.48 
  "/>
<polyline clip-path="url(#clip860)" style="stroke:#000000; stroke-width:4; stroke-opacity:1; fill:none" points="
  200.028,899.653 225.861,899.653 
  "/>
<polyline clip-path="url(#clip860)" style="stroke:#000000; stroke-width:4; stroke-opacity:1; fill:none" points="
  200.028,645.823 225.861,645.823 
  "/>
<polyline clip-path="url(#clip860)" style="stroke:#000000; stroke-width:4; stroke-opacity:1; fill:none" points="
  200.028,391.992 225.861,391.992 
  "/>
<polyline clip-path="url(#clip860)" style="stroke:#000000; stroke-width:4; stroke-opacity:1; fill:none" points="
  200.028,138.161 225.861,138.161 
  "/>
<path clip-path="url(#clip860)" d="M 0 0 M143.126 1390.03 L161.482 1390.03 L161.482 1393.97 L147.408 1393.97 L147.408 1402.44 Q148.427 1402.09 149.445 1401.93 Q150.464 1401.75 151.482 1401.75 Q157.269 1401.75 160.649 1404.92 Q164.028 1408.09 164.028 1413.51 Q164.028 1419.09 160.556 1422.19 Q157.084 1425.27 150.765 1425.27 Q148.589 1425.27 146.32 1424.9 Q144.075 1424.53 141.667 1423.78 L141.667 1419.09 Q143.751 1420.22 145.973 1420.78 Q148.195 1421.33 150.672 1421.33 Q154.677 1421.33 157.015 1419.22 Q159.353 1417.12 159.353 1413.51 Q159.353 1409.9 157.015 1407.79 Q154.677 1405.68 150.672 1405.68 Q148.797 1405.68 146.922 1406.1 Q145.07 1406.52 143.126 1407.4 L143.126 1390.03 Z" fill="#000000" fill-rule="evenodd" fill-opacity="1" /><path clip-path="url(#clip860)" d="M 0 0 M117.107 1166.83 L124.746 1166.83 L124.746 1140.46 L116.436 1142.13 L116.436 1137.87 L124.7 1136.2 L129.376 1136.2 L129.376 1166.83 L137.015 1166.83 L137.015 1170.76 L117.107 1170.76 L117.107 1166.83 Z" fill="#000000" fill-rule="evenodd" fill-opacity="1" /><path clip-path="url(#clip860)" d="M 0 0 M152.084 1139.28 Q148.473 1139.28 146.644 1142.85 Q144.839 1146.39 144.839 1153.52 Q144.839 1160.63 146.644 1164.19 Q148.473 1167.73 152.084 1167.73 Q155.718 1167.73 157.524 1164.19 Q159.353 1160.63 159.353 1153.52 Q159.353 1146.39 157.524 1142.85 Q155.718 1139.28 152.084 1139.28 M152.084 1135.58 Q157.894 1135.58 160.95 1140.19 Q164.028 1144.77 164.028 1153.52 Q164.028 1162.25 160.95 1166.85 Q157.894 1171.44 152.084 1171.44 Q146.274 1171.44 143.195 1166.85 Q140.14 1162.25 140.14 1153.52 Q140.14 1144.77 143.195 1140.19 Q146.274 1135.58 152.084 1135.58 Z" fill="#000000" fill-rule="evenodd" fill-opacity="1" /><path clip-path="url(#clip860)" d="M 0 0 M118.103 912.998 L125.742 912.998 L125.742 886.633 L117.431 888.299 L117.431 884.04 L125.695 882.373 L130.371 882.373 L130.371 912.998 L138.01 912.998 L138.01 916.933 L118.103 916.933 L118.103 912.998 Z" fill="#000000" fill-rule="evenodd" fill-opacity="1" /><path clip-path="url(#clip860)" d="M 0 0 M143.126 882.373 L161.482 882.373 L161.482 886.308 L147.408 886.308 L147.408 894.781 Q148.427 894.433 149.445 894.271 Q150.464 894.086 151.482 894.086 Q157.269 894.086 160.649 897.258 Q164.028 900.429 164.028 905.845 Q164.028 911.424 160.556 914.526 Q157.084 917.605 150.765 917.605 Q148.589 917.605 146.32 917.234 Q144.075 916.864 141.667 916.123 L141.667 911.424 Q143.751 912.558 145.973 913.114 Q148.195 913.669 150.672 913.669 Q154.677 913.669 157.015 911.563 Q159.353 909.457 159.353 905.845 Q159.353 902.234 157.015 900.128 Q154.677 898.021 150.672 898.021 Q148.797 898.021 146.922 898.438 Q145.07 898.855 143.126 899.734 L143.126 882.373 Z" fill="#000000" fill-rule="evenodd" fill-opacity="1" /><path clip-path="url(#clip860)" d="M 0 0 M120.695 659.167 L137.015 659.167 L137.015 663.103 L115.07 663.103 L115.07 659.167 Q117.732 656.413 122.316 651.783 Q126.922 647.131 128.103 645.788 Q130.348 643.265 131.228 641.529 Q132.13 639.769 132.13 638.08 Q132.13 635.325 130.186 633.589 Q128.265 631.853 125.163 631.853 Q122.964 631.853 120.51 632.617 Q118.08 633.381 115.302 634.932 L115.302 630.209 Q118.126 629.075 120.58 628.496 Q123.033 627.918 125.07 627.918 Q130.441 627.918 133.635 630.603 Q136.829 633.288 136.829 637.779 Q136.829 639.908 136.019 641.83 Q135.232 643.728 133.126 646.32 Q132.547 646.992 129.445 650.209 Q126.343 653.404 120.695 659.167 Z" fill="#000000" fill-rule="evenodd" fill-opacity="1" /><path clip-path="url(#clip860)" d="M 0 0 M152.084 631.621 Q148.473 631.621 146.644 635.186 Q144.839 638.728 144.839 645.857 Q144.839 652.964 146.644 656.529 Q148.473 660.07 152.084 660.07 Q155.718 660.07 157.524 656.529 Q159.353 652.964 159.353 645.857 Q159.353 638.728 157.524 635.186 Q155.718 631.621 152.084 631.621 M152.084 627.918 Q157.894 627.918 160.95 632.524 Q164.028 637.107 164.028 645.857 Q164.028 654.584 160.95 659.191 Q157.894 663.774 152.084 663.774 Q146.274 663.774 143.195 659.191 Q140.14 654.584 140.14 645.857 Q140.14 637.107 143.195 632.524 Q146.274 627.918 152.084 627.918 Z" fill="#000000" fill-rule="evenodd" fill-opacity="1" /><path clip-path="url(#clip860)" d="M 0 0 M121.691 405.337 L138.01 405.337 L138.01 409.272 L116.066 409.272 L116.066 405.337 Q118.728 402.582 123.311 397.953 Q127.917 393.3 129.098 391.957 Q131.343 389.434 132.223 387.698 Q133.126 385.939 133.126 384.249 Q133.126 381.494 131.181 379.758 Q129.26 378.022 126.158 378.022 Q123.959 378.022 121.505 378.786 Q119.075 379.55 116.297 381.101 L116.297 376.379 Q119.121 375.244 121.575 374.666 Q124.029 374.087 126.066 374.087 Q131.436 374.087 134.63 376.772 Q137.825 379.457 137.825 383.948 Q137.825 386.078 137.015 387.999 Q136.228 389.897 134.121 392.49 Q133.542 393.161 130.441 396.379 Q127.339 399.573 121.691 405.337 Z" fill="#000000" fill-rule="evenodd" fill-opacity="1" /><path clip-path="url(#clip860)" d="M 0 0 M143.126 374.712 L161.482 374.712 L161.482 378.647 L147.408 378.647 L147.408 387.119 Q148.427 386.772 149.445 386.61 Q150.464 386.425 151.482 386.425 Q157.269 386.425 160.649 389.596 Q164.028 392.767 164.028 398.184 Q164.028 403.763 160.556 406.865 Q157.084 409.943 150.765 409.943 Q148.589 409.943 146.32 409.573 Q144.075 409.203 141.667 408.462 L141.667 403.763 Q143.751 404.897 145.973 405.453 Q148.195 406.008 150.672 406.008 Q154.677 406.008 157.015 403.902 Q159.353 401.795 159.353 398.184 Q159.353 394.573 157.015 392.466 Q154.677 390.36 150.672 390.36 Q148.797 390.36 146.922 390.777 Q145.07 391.193 143.126 392.073 L143.126 374.712 Z" fill="#000000" fill-rule="evenodd" fill-opacity="1" /><path clip-path="url(#clip860)" d="M 0 0 M129.885 136.807 Q133.242 137.525 135.117 139.793 Q137.015 142.062 137.015 145.395 Q137.015 150.511 133.496 153.312 Q129.978 156.113 123.496 156.113 Q121.32 156.113 119.006 155.673 Q116.714 155.256 114.26 154.4 L114.26 149.886 Q116.205 151.02 118.519 151.599 Q120.834 152.177 123.357 152.177 Q127.755 152.177 130.047 150.441 Q132.362 148.705 132.362 145.395 Q132.362 142.339 130.209 140.627 Q128.08 138.89 124.26 138.89 L120.232 138.89 L120.232 135.048 L124.445 135.048 Q127.894 135.048 129.723 133.682 Q131.552 132.293 131.552 129.701 Q131.552 127.039 129.654 125.627 Q127.779 124.191 124.26 124.191 Q122.339 124.191 120.14 124.608 Q117.941 125.025 115.302 125.904 L115.302 121.738 Q117.964 120.997 120.279 120.627 Q122.617 120.256 124.677 120.256 Q130.001 120.256 133.103 122.687 Q136.204 125.094 136.204 129.215 Q136.204 132.085 134.561 134.076 Q132.917 136.043 129.885 136.807 Z" fill="#000000" fill-rule="evenodd" fill-opacity="1" /><path clip-path="url(#clip860)" d="M 0 0 M152.084 123.96 Q148.473 123.96 146.644 127.525 Q144.839 131.066 144.839 138.196 Q144.839 145.302 146.644 148.867 Q148.473 152.409 152.084 152.409 Q155.718 152.409 157.524 148.867 Q159.353 145.302 159.353 138.196 Q159.353 131.066 157.524 127.525 Q155.718 123.96 152.084 123.96 M152.084 120.256 Q157.894 120.256 160.95 124.863 Q164.028 129.446 164.028 138.196 Q164.028 146.923 160.95 151.529 Q157.894 156.113 152.084 156.113 Q146.274 156.113 143.195 151.529 Q140.14 146.923 140.14 138.196 Q140.14 129.446 143.195 124.863 Q146.274 120.256 152.084 120.256 Z" fill="#000000" fill-rule="evenodd" fill-opacity="1" /><path clip-path="url(#clip860)" d="M 0 0 M59.1993 815.533 Q55.2526 813.336 53.3747 810.281 Q51.4968 807.225 51.4968 803.088 Q51.4968 797.518 55.4117 794.494 Q59.2948 791.47 66.4881 791.47 L88.0042 791.47 L88.0042 797.358 L66.679 797.358 Q61.5546 797.358 59.072 799.173 Q56.5894 800.987 56.5894 804.711 Q56.5894 809.262 59.6131 811.904 Q62.6368 814.546 67.8567 814.546 L88.0042 814.546 L88.0042 820.434 L66.679 820.434 Q61.5228 820.434 59.072 822.248 Q56.5894 824.063 56.5894 827.85 Q56.5894 832.338 59.6449 834.98 Q62.6686 837.622 67.8567 837.622 L88.0042 837.622 L88.0042 843.51 L52.3562 843.51 L52.3562 837.622 L57.8944 837.622 Q54.616 835.616 53.0564 832.815 Q51.4968 830.015 51.4968 826.163 Q51.4968 822.28 53.4702 819.575 Q55.4436 816.838 59.1993 815.533 Z" fill="#000000" fill-rule="evenodd" fill-opacity="1" /><path clip-path="url(#clip860)" d="M 0 0 M52.3562 785.327 L52.3562 779.471 L88.0042 779.471 L88.0042 785.327 L52.3562 785.327 M38.479 785.327 L38.479 779.471 L45.895 779.471 L45.895 785.327 L38.479 785.327 Z" fill="#000000" fill-rule="evenodd" fill-opacity="1" /><path clip-path="url(#clip860)" d="M 0 0 M66.4881 743.696 L88.0042 743.696 L88.0042 749.552 L66.679 749.552 Q61.6183 749.552 59.1038 751.525 Q56.5894 753.499 56.5894 757.446 Q56.5894 762.188 59.6131 764.925 Q62.6368 767.662 67.8567 767.662 L88.0042 767.662 L88.0042 773.551 L52.3562 773.551 L52.3562 767.662 L57.8944 767.662 Q54.6797 765.562 53.0883 762.729 Q51.4968 759.864 51.4968 756.141 Q51.4968 749.998 55.3163 746.847 Q59.1038 743.696 66.4881 743.696 Z" fill="#000000" fill-rule="evenodd" fill-opacity="1" /><path clip-path="url(#clip860)" d="M 0 0 M98.8259 710.467 L103.377 710.467 L103.377 744.332 L98.8259 744.332 L98.8259 710.467 Z" fill="#000000" fill-rule="evenodd" fill-opacity="1" /><path clip-path="url(#clip860)" d="M 0 0 M57.7671 680.866 L38.479 680.866 L38.479 675.01 L88.0042 675.01 L88.0042 680.866 L82.657 680.866 Q85.8398 682.712 87.3994 685.545 Q88.9272 688.346 88.9272 692.292 Q88.9272 698.754 83.771 702.828 Q78.6147 706.87 70.212 706.87 Q61.8093 706.87 56.6531 702.828 Q51.4968 698.754 51.4968 692.292 Q51.4968 688.346 53.0564 685.545 Q54.5842 682.712 57.7671 680.866 M70.212 700.823 Q76.6732 700.823 80.3653 698.181 Q84.0256 695.507 84.0256 690.86 Q84.0256 686.213 80.3653 683.54 Q76.6732 680.866 70.212 680.866 Q63.7508 680.866 60.0905 683.54 Q56.3984 686.213 56.3984 690.86 Q56.3984 695.507 60.0905 698.181 Q63.7508 700.823 70.212 700.823 Z" fill="#000000" fill-rule="evenodd" fill-opacity="1" /><path clip-path="url(#clip860)" d="M 0 0 M52.3562 668.867 L52.3562 663.01 L88.0042 663.01 L88.0042 668.867 L52.3562 668.867 M38.479 668.867 L38.479 663.01 L45.895 663.01 L45.895 668.867 L38.479 668.867 Z" fill="#000000" fill-rule="evenodd" fill-opacity="1" /><path clip-path="url(#clip860)" d="M 0 0 M38.479 638.821 L43.3487 638.821 L43.3487 644.422 Q43.3487 647.573 44.6219 648.815 Q45.895 650.024 49.2052 650.024 L52.3562 650.024 L52.3562 640.38 L56.9077 640.38 L56.9077 650.024 L88.0042 650.024 L88.0042 655.912 L56.9077 655.912 L56.9077 661.514 L52.3562 661.514 L52.3562 655.912 L49.8736 655.912 Q43.9216 655.912 41.2162 653.143 Q38.479 650.374 38.479 644.359 L38.479 638.821 Z" fill="#000000" fill-rule="evenodd" fill-opacity="1" /><path clip-path="url(#clip860)" d="M 0 0 M38.479 614.631 L43.3487 614.631 L43.3487 620.233 Q43.3487 623.384 44.6219 624.625 Q45.895 625.835 49.2052 625.835 L52.3562 625.835 L52.3562 616.19 L56.9077 616.19 L56.9077 625.835 L88.0042 625.835 L88.0042 631.723 L56.9077 631.723 L56.9077 637.325 L52.3562 637.325 L52.3562 631.723 L49.8736 631.723 Q43.9216 631.723 41.2162 628.954 Q38.479 626.185 38.479 620.169 L38.479 614.631 Z" fill="#000000" fill-rule="evenodd" fill-opacity="1" /><polyline clip-path="url(#clip862)" style="stroke:#009af9; stroke-width:20; stroke-opacity:1; fill:none" stroke-dasharray="80, 50" points="
  260.955,269.373 1276.39,1372.3 2291.83,85.838 
  "/>
<path clip-path="url(#clip860)" d="
M1990.79 213.659 L2281 213.659 L2281 92.6992 L1990.79 92.6992  Z
  " fill="#ffffff" fill-rule="evenodd" fill-opacity="1"/>
<polyline clip-path="url(#clip860)" style="stroke:#000000; stroke-width:4; stroke-opacity:1; fill:none" points="
  1990.79,213.659 2281,213.659 2281,92.6992 1990.79,92.6992 1990.79,213.659 
  "/>
<polyline clip-path="url(#clip860)" style="stroke:#009af9; stroke-width:4; stroke-opacity:1; fill:none" stroke-dasharray="16, 10" points="
  2014.71,153.179 2158.22,153.179 
  "/>
<path clip-path="url(#clip860)" d="M 0 0 M2195.98 172.867 Q2194.18 177.496 2192.47 178.908 Q2190.75 180.32 2187.88 180.32 L2184.48 180.32 L2184.48 176.755 L2186.98 176.755 Q2188.74 176.755 2189.71 175.922 Q2190.68 175.089 2191.86 171.987 L2192.63 170.043 L2182.14 144.533 L2186.66 144.533 L2194.76 164.811 L2202.86 144.533 L2207.37 144.533 L2195.98 172.867 Z" fill="#000000" fill-rule="evenodd" fill-opacity="1" /><path clip-path="url(#clip860)" d="M 0 0 M2213.25 166.524 L2220.89 166.524 L2220.89 140.158 L2212.58 141.825 L2212.58 137.566 L2220.85 135.899 L2225.52 135.899 L2225.52 166.524 L2233.16 166.524 L2233.16 170.459 L2213.25 170.459 L2213.25 166.524 Z" fill="#000000" fill-rule="evenodd" fill-opacity="1" /></svg>
