<?xml version="1.0" encoding="utf-8"?>
<svg xmlns="http://www.w3.org/2000/svg" xmlns:xlink="http://www.w3.org/1999/xlink" width="600" height="400" viewBox="0 0 2400 1600">
<defs>
  <clipPath id="clip790">
    <rect x="0" y="0" width="2400" height="1600"/>
  </clipPath>
</defs>
<path clip-path="url(#clip790)" d="
M0 1600 L2400 1600 L2400 0 L0 0  Z
  " fill="#ffffff" fill-rule="evenodd" fill-opacity="1"/>
<defs>
  <clipPath id="clip791">
    <rect x="480" y="0" width="1681" height="1600"/>
  </clipPath>
</defs>
<path clip-path="url(#clip790)" d="
M197.852 1410.9 L2352.76 1410.9 L2352.76 47.2441 L197.852 47.2441  Z
  " fill="#ffffff" fill-rule="evenodd" fill-opacity="1"/>
<defs>
  <clipPath id="clip792">
    <rect x="197" y="47" width="2156" height="1365"/>
  </clipPath>
</defs>
<polyline clip-path="url(#clip792)" style="stroke:#000000; stroke-width:2; stroke-opacity:0.1; fill:none" points="
  258.84,1410.9 258.84,47.2441 
  "/>
<polyline clip-path="url(#clip792)" style="stroke:#000000; stroke-width:2; stroke-opacity:0.1; fill:none" points="
  597.662,1410.9 597.662,47.2441 
  "/>
<polyline clip-path="url(#clip792)" style="stroke:#000000; stroke-width:2; stroke-opacity:0.1; fill:none" points="
  936.483,1410.9 936.483,47.2441 
  "/>
<polyline clip-path="url(#clip792)" style="stroke:#000000; stroke-width:2; stroke-opacity:0.1; fill:none" points="
  1275.3,1410.9 1275.3,47.2441 
  "/>
<polyline clip-path="url(#clip792)" style="stroke:#000000; stroke-width:2; stroke-opacity:0.1; fill:none" points="
  1614.13,1410.9 1614.13,47.2441 
  "/>
<polyline clip-path="url(#clip792)" style="stroke:#000000; stroke-width:2; stroke-opacity:0.1; fill:none" points="
  1952.95,1410.9 1952.95,47.2441 
  "/>
<polyline clip-path="url(#clip792)" style="stroke:#000000; stroke-width:2; stroke-opacity:0.1; fill:none" points="
  2291.77,1410.9 2291.77,47.2441 
  "/>
<polyline clip-path="url(#clip790)" style="stroke:#000000; stroke-width:4; stroke-opacity:1; fill:none" points="
  197.852,1410.9 2352.76,1410.9 
  "/>
<polyline clip-path="url(#clip790)" style="stroke:#000000; stroke-width:4; stroke-opacity:1; fill:none" points="
  258.84,1410.9 258.84,1394.53 
  "/>
<polyline clip-path="url(#clip790)" style="stroke:#000000; stroke-width:4; stroke-opacity:1; fill:none" points="
  597.662,1410.9 597.662,1394.53 
  "/>
<polyline clip-path="url(#clip790)" style="stroke:#000000; stroke-width:4; stroke-opacity:1; fill:none" points="
  936.483,1410.9 936.483,1394.53 
  "/>
<polyline clip-path="url(#clip790)" style="stroke:#000000; stroke-width:4; stroke-opacity:1; fill:none" points="
  1275.3,1410.9 1275.3,1394.53 
  "/>
<polyline clip-path="url(#clip790)" style="stroke:#000000; stroke-width:4; stroke-opacity:1; fill:none" points="
  1614.13,1410.9 1614.13,1394.53 
  "/>
<polyline clip-path="url(#clip790)" style="stroke:#000000; stroke-width:4; stroke-opacity:1; fill:none" points="
  1952.95,1410.9 1952.95,1394.53 
  "/>
<polyline clip-path="url(#clip790)" style="stroke:#000000; stroke-width:4; stroke-opacity:1; fill:none" points="
  2291.77,1410.9 2291.77,1394.53 
  "/>
<path clip-path="url(#clip790)" d="M 0 0 M212.62 1489.17 L220.258 1489.17 L220.258 1462.8 L211.948 1464.47 L211.948 1460.21 L220.212 1458.54 L224.888 1458.54 L224.888 1489.17 L232.527 1489.17 L232.527 1493.1 L212.62 1493.1 L212.62 1489.17 Z" fill="#000000" fill-rule="evenodd" fill-opacity="1" /><path clip-path="url(#clip790)" d="M 0 0 M247.596 1461.62 Q243.985 1461.62 242.156 1465.19 Q240.351 1468.73 240.351 1475.86 Q240.351 1482.97 242.156 1486.53 Q243.985 1490.07 247.596 1490.07 Q251.23 1490.07 253.036 1486.53 Q254.865 1482.97 254.865 1475.86 Q254.865 1468.73 253.036 1465.19 Q251.23 1461.62 247.596 1461.62 M247.596 1457.92 Q253.406 1457.92 256.462 1462.53 Q259.541 1467.11 259.541 1475.86 Q259.541 1484.59 256.462 1489.19 Q253.406 1493.78 247.596 1493.78 Q241.786 1493.78 238.707 1489.19 Q235.652 1484.59 235.652 1475.86 Q235.652 1467.11 238.707 1462.53 Q241.786 1457.92 247.596 1457.92 Z" fill="#000000" fill-rule="evenodd" fill-opacity="1" /><path clip-path="url(#clip790)" d="M 0 0 M259.541 1452.02 L283.652 1452.02 L283.652 1455.22 L259.541 1455.22 L259.541 1452.02 Z" fill="#000000" fill-rule="evenodd" fill-opacity="1" /><path clip-path="url(#clip790)" d="M 0 0 M296.366 1450.14 Q293.808 1450.14 292.304 1451.89 Q290.818 1453.64 290.818 1456.68 Q290.818 1459.71 292.304 1461.48 Q293.808 1463.23 296.366 1463.23 Q298.924 1463.23 300.41 1461.48 Q301.914 1459.71 301.914 1456.68 Q301.914 1453.64 300.41 1451.89 Q298.924 1450.14 296.366 1450.14 M303.908 1438.23 L303.908 1441.69 Q302.479 1441.02 301.012 1440.66 Q299.563 1440.3 298.134 1440.3 Q294.373 1440.3 292.379 1442.84 Q290.404 1445.38 290.122 1450.52 Q291.232 1448.88 292.906 1448.01 Q294.579 1447.13 296.592 1447.13 Q300.824 1447.13 303.269 1449.71 Q305.732 1452.26 305.732 1456.68 Q305.732 1461.01 303.175 1463.62 Q300.617 1466.24 296.366 1466.24 Q291.495 1466.24 288.918 1462.51 Q286.342 1458.77 286.342 1451.68 Q286.342 1445.02 289.501 1441.07 Q292.661 1437.11 297.984 1437.11 Q299.413 1437.11 300.861 1437.39 Q302.328 1437.67 303.908 1438.23 Z" fill="#000000" fill-rule="evenodd" fill-opacity="1" /><path clip-path="url(#clip790)" d="M 0 0 M551.911 1489.17 L559.55 1489.17 L559.55 1462.8 L551.24 1464.47 L551.24 1460.21 L559.504 1458.54 L564.179 1458.54 L564.179 1489.17 L571.818 1489.17 L571.818 1493.1 L551.911 1493.1 L551.911 1489.17 Z" fill="#000000" fill-rule="evenodd" fill-opacity="1" /><path clip-path="url(#clip790)" d="M 0 0 M586.888 1461.62 Q583.277 1461.62 581.448 1465.19 Q579.642 1468.73 579.642 1475.86 Q579.642 1482.97 581.448 1486.53 Q583.277 1490.07 586.888 1490.07 Q590.522 1490.07 592.327 1486.53 Q594.156 1482.97 594.156 1475.86 Q594.156 1468.73 592.327 1465.19 Q590.522 1461.62 586.888 1461.62 M586.888 1457.92 Q592.698 1457.92 595.753 1462.53 Q598.832 1467.11 598.832 1475.86 Q598.832 1484.59 595.753 1489.19 Q592.698 1493.78 586.888 1493.78 Q581.078 1493.78 577.999 1489.19 Q574.943 1484.59 574.943 1475.86 Q574.943 1467.11 577.999 1462.53 Q581.078 1457.92 586.888 1457.92 Z" fill="#000000" fill-rule="evenodd" fill-opacity="1" /><path clip-path="url(#clip790)" d="M 0 0 M598.832 1452.02 L622.944 1452.02 L622.944 1455.22 L598.832 1455.22 L598.832 1452.02 Z" fill="#000000" fill-rule="evenodd" fill-opacity="1" /><path clip-path="url(#clip790)" d="M 0 0 M627.1 1437.61 L642.015 1437.61 L642.015 1440.81 L630.58 1440.81 L630.58 1447.69 Q631.407 1447.41 632.235 1447.28 Q633.062 1447.13 633.89 1447.13 Q638.592 1447.13 641.338 1449.71 Q644.084 1452.28 644.084 1456.68 Q644.084 1461.22 641.262 1463.74 Q638.441 1466.24 633.307 1466.24 Q631.539 1466.24 629.696 1465.94 Q627.871 1465.64 625.915 1465.04 L625.915 1461.22 Q627.608 1462.14 629.413 1462.59 Q631.219 1463.04 633.231 1463.04 Q636.485 1463.04 638.385 1461.33 Q640.284 1459.62 640.284 1456.68 Q640.284 1453.75 638.385 1452.04 Q636.485 1450.33 633.231 1450.33 Q631.708 1450.33 630.185 1450.67 Q628.68 1451 627.1 1451.72 L627.1 1437.61 Z" fill="#000000" fill-rule="evenodd" fill-opacity="1" /><path clip-path="url(#clip790)" d="M 0 0 M890.13 1489.17 L897.769 1489.17 L897.769 1462.8 L889.459 1464.47 L889.459 1460.21 L897.723 1458.54 L902.399 1458.54 L902.399 1489.17 L910.038 1489.17 L910.038 1493.1 L890.13 1493.1 L890.13 1489.17 Z" fill="#000000" fill-rule="evenodd" fill-opacity="1" /><path clip-path="url(#clip790)" d="M 0 0 M925.107 1461.62 Q921.496 1461.62 919.667 1465.19 Q917.862 1468.73 917.862 1475.86 Q917.862 1482.97 919.667 1486.53 Q921.496 1490.07 925.107 1490.07 Q928.741 1490.07 930.547 1486.53 Q932.376 1482.97 932.376 1475.86 Q932.376 1468.73 930.547 1465.19 Q928.741 1461.62 925.107 1461.62 M925.107 1457.92 Q930.917 1457.92 933.973 1462.53 Q937.051 1467.11 937.051 1475.86 Q937.051 1484.59 933.973 1489.19 Q930.917 1493.78 925.107 1493.78 Q919.297 1493.78 916.218 1489.19 Q913.163 1484.59 913.163 1475.86 Q913.163 1467.11 916.218 1462.53 Q919.297 1457.92 925.107 1457.92 Z" fill="#000000" fill-rule="evenodd" fill-opacity="1" /><path clip-path="url(#clip790)" d="M 0 0 M937.051 1452.02 L961.163 1452.02 L961.163 1455.22 L937.051 1455.22 L937.051 1452.02 Z" fill="#000000" fill-rule="evenodd" fill-opacity="1" /><path clip-path="url(#clip790)" d="M 0 0 M975.72 1440.92 L966.128 1455.91 L975.72 1455.91 L975.72 1440.92 M974.723 1437.61 L979.501 1437.61 L979.501 1455.91 L983.507 1455.91 L983.507 1459.07 L979.501 1459.07 L979.501 1465.69 L975.72 1465.69 L975.72 1459.07 L963.044 1459.07 L963.044 1455.41 L974.723 1437.61 Z" fill="#000000" fill-rule="evenodd" fill-opacity="1" /><path clip-path="url(#clip790)" d="M 0 0 M1229.41 1489.17 L1237.05 1489.17 L1237.05 1462.8 L1228.74 1464.47 L1228.74 1460.21 L1237.01 1458.54 L1241.68 1458.54 L1241.68 1489.17 L1249.32 1489.17 L1249.32 1493.1 L1229.41 1493.1 L1229.41 1489.17 Z" fill="#000000" fill-rule="evenodd" fill-opacity="1" /><path clip-path="url(#clip790)" d="M 0 0 M1264.39 1461.62 Q1260.78 1461.62 1258.95 1465.19 Q1257.14 1468.73 1257.14 1475.86 Q1257.14 1482.97 1258.95 1486.53 Q1260.78 1490.07 1264.39 1490.07 Q1268.02 1490.07 1269.83 1486.53 Q1271.66 1482.97 1271.66 1475.86 Q1271.66 1468.73 1269.83 1465.19 Q1268.02 1461.62 1264.39 1461.62 M1264.39 1457.92 Q1270.2 1457.92 1273.25 1462.53 Q1276.33 1467.11 1276.33 1475.86 Q1276.33 1484.59 1273.25 1489.19 Q1270.2 1493.78 1264.39 1493.78 Q1258.58 1493.78 1255.5 1489.19 Q1252.44 1484.59 1252.44 1475.86 Q1252.44 1467.11 1255.5 1462.53 Q1258.58 1457.92 1264.39 1457.92 Z" fill="#000000" fill-rule="evenodd" fill-opacity="1" /><path clip-path="url(#clip790)" d="M 0 0 M1276.33 1452.02 L1300.45 1452.02 L1300.45 1455.22 L1276.33 1455.22 L1276.33 1452.02 Z" fill="#000000" fill-rule="evenodd" fill-opacity="1" /><path clip-path="url(#clip790)" d="M 0 0 M1316.07 1450.55 Q1318.8 1451.14 1320.32 1452.98 Q1321.87 1454.82 1321.87 1457.53 Q1321.87 1461.69 1319.01 1463.96 Q1316.15 1466.24 1310.88 1466.24 Q1309.12 1466.24 1307.23 1465.88 Q1305.37 1465.54 1303.38 1464.85 L1303.38 1461.18 Q1304.96 1462.1 1306.84 1462.57 Q1308.72 1463.04 1310.77 1463.04 Q1314.34 1463.04 1316.21 1461.63 Q1318.09 1460.22 1318.09 1457.53 Q1318.09 1455.05 1316.34 1453.66 Q1314.61 1452.25 1311.5 1452.25 L1308.23 1452.25 L1308.23 1449.12 L1311.65 1449.12 Q1314.46 1449.12 1315.94 1448.01 Q1317.43 1446.89 1317.43 1444.78 Q1317.43 1442.62 1315.89 1441.47 Q1314.36 1440.3 1311.5 1440.3 Q1309.94 1440.3 1308.16 1440.64 Q1306.37 1440.98 1304.23 1441.69 L1304.23 1438.31 Q1306.39 1437.71 1308.27 1437.41 Q1310.17 1437.11 1311.84 1437.11 Q1316.17 1437.11 1318.69 1439.08 Q1321.21 1441.04 1321.21 1444.38 Q1321.21 1446.72 1319.87 1448.33 Q1318.54 1449.93 1316.07 1450.55 Z" fill="#000000" fill-rule="evenodd" fill-opacity="1" /><path clip-path="url(#clip790)" d="M 0 0 M1568.62 1489.17 L1576.26 1489.17 L1576.26 1462.8 L1567.95 1464.47 L1567.95 1460.21 L1576.21 1458.54 L1580.89 1458.54 L1580.89 1489.17 L1588.53 1489.17 L1588.53 1493.1 L1568.62 1493.1 L1568.62 1489.17 Z" fill="#000000" fill-rule="evenodd" fill-opacity="1" /><path clip-path="url(#clip790)" d="M 0 0 M1603.6 1461.62 Q1599.98 1461.62 1598.16 1465.19 Q1596.35 1468.73 1596.35 1475.86 Q1596.35 1482.97 1598.16 1486.53 Q1599.98 1490.07 1603.6 1490.07 Q1607.23 1490.07 1609.04 1486.53 Q1610.86 1482.97 1610.86 1475.86 Q1610.86 1468.73 1609.04 1465.19 Q1607.23 1461.62 1603.6 1461.62 M1603.6 1457.92 Q1609.41 1457.92 1612.46 1462.53 Q1615.54 1467.11 1615.54 1475.86 Q1615.54 1484.59 1612.46 1489.19 Q1609.41 1493.78 1603.6 1493.78 Q1597.79 1493.78 1594.71 1489.19 Q1591.65 1484.59 1591.65 1475.86 Q1591.65 1467.11 1594.71 1462.53 Q1597.79 1457.92 1603.6 1457.92 Z" fill="#000000" fill-rule="evenodd" fill-opacity="1" /><path clip-path="url(#clip790)" d="M 0 0 M1615.54 1452.02 L1639.65 1452.02 L1639.65 1455.22 L1615.54 1455.22 L1615.54 1452.02 Z" fill="#000000" fill-rule="evenodd" fill-opacity="1" /><path clip-path="url(#clip790)" d="M 0 0 M1647.04 1462.5 L1660.3 1462.5 L1660.3 1465.69 L1642.47 1465.69 L1642.47 1462.5 Q1644.64 1460.26 1648.36 1456.5 Q1652.1 1452.72 1653.06 1451.63 Q1654.89 1449.58 1655.6 1448.16 Q1656.33 1446.74 1656.33 1445.36 Q1656.33 1443.12 1654.75 1441.71 Q1653.19 1440.3 1650.67 1440.3 Q1648.89 1440.3 1646.89 1440.92 Q1644.92 1441.54 1642.66 1442.8 L1642.66 1438.97 Q1644.96 1438.05 1646.95 1437.58 Q1648.94 1437.11 1650.6 1437.11 Q1654.96 1437.11 1657.56 1439.29 Q1660.15 1441.47 1660.15 1445.12 Q1660.15 1446.85 1659.49 1448.41 Q1658.85 1449.95 1657.14 1452.06 Q1656.67 1452.6 1654.15 1455.22 Q1651.63 1457.81 1647.04 1462.5 Z" fill="#000000" fill-rule="evenodd" fill-opacity="1" /><path clip-path="url(#clip790)" d="M 0 0 M1907.29 1489.17 L1914.93 1489.17 L1914.93 1462.8 L1906.62 1464.47 L1906.62 1460.21 L1914.88 1458.54 L1919.56 1458.54 L1919.56 1489.17 L1927.2 1489.17 L1927.2 1493.1 L1907.29 1493.1 L1907.29 1489.17 Z" fill="#000000" fill-rule="evenodd" fill-opacity="1" /><path clip-path="url(#clip790)" d="M 0 0 M1942.27 1461.62 Q1938.66 1461.62 1936.83 1465.19 Q1935.02 1468.73 1935.02 1475.86 Q1935.02 1482.97 1936.83 1486.53 Q1938.66 1490.07 1942.27 1490.07 Q1945.9 1490.07 1947.71 1486.53 Q1949.54 1482.97 1949.54 1475.86 Q1949.54 1468.73 1947.71 1465.19 Q1945.9 1461.62 1942.27 1461.62 M1942.27 1457.92 Q1948.08 1457.92 1951.13 1462.53 Q1954.21 1467.11 1954.21 1475.86 Q1954.21 1484.59 1951.13 1489.19 Q1948.08 1493.78 1942.27 1493.78 Q1936.46 1493.78 1933.38 1489.19 Q1930.32 1484.59 1930.32 1475.86 Q1930.32 1467.11 1933.38 1462.53 Q1936.46 1457.92 1942.27 1457.92 Z" fill="#000000" fill-rule="evenodd" fill-opacity="1" /><path clip-path="url(#clip790)" d="M 0 0 M1954.21 1452.02 L1978.32 1452.02 L1978.32 1455.22 L1954.21 1455.22 L1954.21 1452.02 Z" fill="#000000" fill-rule="evenodd" fill-opacity="1" /><path clip-path="url(#clip790)" d="M 0 0 M1983.1 1462.5 L1989.31 1462.5 L1989.31 1441.07 L1982.55 1442.43 L1982.55 1438.97 L1989.27 1437.61 L1993.07 1437.61 L1993.07 1462.5 L1999.27 1462.5 L1999.27 1465.69 L1983.1 1465.69 L1983.1 1462.5 Z" fill="#000000" fill-rule="evenodd" fill-opacity="1" /><path clip-path="url(#clip790)" d="M 0 0 M2258.94 1489.17 L2266.58 1489.17 L2266.58 1462.8 L2258.27 1464.47 L2258.27 1460.21 L2266.53 1458.54 L2271.21 1458.54 L2271.21 1489.17 L2278.85 1489.17 L2278.85 1493.1 L2258.94 1493.1 L2258.94 1489.17 Z" fill="#000000" fill-rule="evenodd" fill-opacity="1" /><path clip-path="url(#clip790)" d="M 0 0 M2293.92 1461.62 Q2290.3 1461.62 2288.48 1465.19 Q2286.67 1468.73 2286.67 1475.86 Q2286.67 1482.97 2288.48 1486.53 Q2290.3 1490.07 2293.92 1490.07 Q2297.55 1490.07 2299.35 1486.53 Q2301.18 1482.97 2301.18 1475.86 Q2301.18 1468.73 2299.35 1465.19 Q2297.55 1461.62 2293.92 1461.62 M2293.92 1457.92 Q2299.73 1457.92 2302.78 1462.53 Q2305.86 1467.11 2305.86 1475.86 Q2305.86 1484.59 2302.78 1489.19 Q2299.73 1493.78 2293.92 1493.78 Q2288.1 1493.78 2285.03 1489.19 Q2281.97 1484.59 2281.97 1475.86 Q2281.97 1467.11 2285.03 1462.53 Q2288.1 1457.92 2293.92 1457.92 Z" fill="#000000" fill-rule="evenodd" fill-opacity="1" /><path clip-path="url(#clip790)" d="M 0 0 M2315.56 1440.11 Q2312.63 1440.11 2311.14 1443.01 Q2309.68 1445.89 2309.68 1451.68 Q2309.68 1457.46 2311.14 1460.35 Q2312.63 1463.23 2315.56 1463.23 Q2318.52 1463.23 2319.98 1460.35 Q2321.47 1457.46 2321.47 1451.68 Q2321.47 1445.89 2319.98 1443.01 Q2318.52 1440.11 2315.56 1440.11 M2315.56 1437.11 Q2320.28 1437.11 2322.77 1440.85 Q2325.27 1444.57 2325.27 1451.68 Q2325.27 1458.77 2322.77 1462.51 Q2320.28 1466.24 2315.56 1466.24 Q2310.84 1466.24 2308.34 1462.51 Q2305.86 1458.77 2305.86 1451.68 Q2305.86 1444.57 2308.34 1440.85 Q2310.84 1437.11 2315.56 1437.11 Z" fill="#000000" fill-rule="evenodd" fill-opacity="1" /><path clip-path="url(#clip790)" d="M 0 0 M1168.07 1526.54 L1174.28 1526.54 L1185.42 1556.46 L1196.56 1526.54 L1202.77 1526.54 L1189.4 1562.19 L1181.44 1562.19 L1168.07 1526.54 Z" fill="#000000" fill-rule="evenodd" fill-opacity="1" /><path clip-path="url(#clip790)" d="M 0 0 M1236 1573.01 L1236 1577.56 L1202.13 1577.56 L1202.13 1573.01 L1236 1573.01 Z" fill="#000000" fill-rule="evenodd" fill-opacity="1" /><path clip-path="url(#clip790)" d="M 0 0 M1255.95 1530.64 Q1251.24 1530.64 1248.5 1534.34 Q1245.77 1538 1245.77 1544.39 Q1245.77 1550.79 1248.47 1554.48 Q1251.21 1558.14 1255.95 1558.14 Q1260.63 1558.14 1263.37 1554.45 Q1266.11 1550.76 1266.11 1544.39 Q1266.11 1538.06 1263.37 1534.37 Q1260.63 1530.64 1255.95 1530.64 M1255.95 1525.68 Q1263.59 1525.68 1267.95 1530.64 Q1272.31 1535.61 1272.31 1544.39 Q1272.31 1553.15 1267.95 1558.14 Q1263.59 1563.11 1255.95 1563.11 Q1248.28 1563.11 1243.92 1558.14 Q1239.59 1553.15 1239.59 1544.39 Q1239.59 1535.61 1243.92 1530.64 Q1248.28 1525.68 1255.95 1525.68 Z" fill="#000000" fill-rule="evenodd" fill-opacity="1" /><path clip-path="url(#clip790)" d="M 0 0 M1284.12 1556.84 L1284.12 1575.74 L1278.23 1575.74 L1278.23 1526.54 L1284.12 1526.54 L1284.12 1531.95 Q1285.97 1528.77 1288.77 1527.24 Q1291.6 1525.68 1295.52 1525.68 Q1302.01 1525.68 1306.05 1530.83 Q1310.12 1535.99 1310.12 1544.39 Q1310.12 1552.8 1306.05 1557.95 Q1302.01 1563.11 1295.52 1563.11 Q1291.6 1563.11 1288.77 1561.58 Q1285.97 1560.02 1284.12 1556.84 M1304.05 1544.39 Q1304.05 1537.93 1301.37 1534.27 Q1298.73 1530.58 1294.08 1530.58 Q1289.44 1530.58 1286.76 1534.27 Q1284.12 1537.93 1284.12 1544.39 Q1284.12 1550.85 1286.76 1554.55 Q1289.44 1558.21 1294.08 1558.21 Q1298.73 1558.21 1301.37 1554.55 Q1304.05 1550.85 1304.05 1544.39 Z" fill="#000000" fill-rule="evenodd" fill-opacity="1" /><path clip-path="url(#clip790)" d="M 0 0 M1346.76 1542.9 L1346.76 1545.76 L1319.83 1545.76 Q1320.21 1551.81 1323.46 1554.99 Q1326.74 1558.14 1332.56 1558.14 Q1335.94 1558.14 1339.09 1557.32 Q1342.27 1556.49 1345.39 1554.83 L1345.39 1560.37 Q1342.24 1561.71 1338.93 1562.41 Q1335.62 1563.11 1332.21 1563.11 Q1323.68 1563.11 1318.69 1558.14 Q1313.72 1553.18 1313.72 1544.71 Q1313.72 1535.96 1318.43 1530.83 Q1323.17 1525.68 1331.2 1525.68 Q1338.39 1525.68 1342.56 1530.33 Q1346.76 1534.94 1346.76 1542.9 M1340.9 1541.18 Q1340.84 1536.37 1338.2 1533.51 Q1335.59 1530.64 1331.26 1530.64 Q1326.36 1530.64 1323.4 1533.41 Q1320.47 1536.18 1320.02 1541.21 L1340.9 1541.18 Z" fill="#000000" fill-rule="evenodd" fill-opacity="1" /><path clip-path="url(#clip790)" d="M 0 0 M1382.53 1540.67 L1382.53 1562.19 L1376.68 1562.19 L1376.68 1540.86 Q1376.68 1535.8 1374.7 1533.29 Q1372.73 1530.77 1368.78 1530.77 Q1364.04 1530.77 1361.3 1533.79 Q1358.57 1536.82 1358.57 1542.04 L1358.57 1562.19 L1352.68 1562.19 L1352.68 1526.54 L1358.57 1526.54 L1358.57 1532.08 Q1360.67 1528.86 1363.5 1527.27 Q1366.37 1525.68 1370.09 1525.68 Q1376.23 1525.68 1379.38 1529.5 Q1382.53 1533.29 1382.53 1540.67 Z" fill="#000000" fill-rule="evenodd" fill-opacity="1" /><polyline clip-path="url(#clip792)" style="stroke:#000000; stroke-width:2; stroke-opacity:0.1; fill:none" points="
  197.852,1141.87 2352.76,1141.87 
  "/>
<polyline clip-path="url(#clip792)" style="stroke:#000000; stroke-width:2; stroke-opacity:0.1; fill:none" points="
  197.852,799.124 2352.76,799.124 
  "/>
<polyline clip-path="url(#clip792)" style="stroke:#000000; stroke-width:2; stroke-opacity:0.1; fill:none" points="
  197.852,456.378 2352.76,456.378 
  "/>
<polyline clip-path="url(#clip792)" style="stroke:#000000; stroke-width:2; stroke-opacity:0.1; fill:none" points="
  197.852,113.632 2352.76,113.632 
  "/>
<polyline clip-path="url(#clip790)" style="stroke:#000000; stroke-width:4; stroke-opacity:1; fill:none" points="
  197.852,1410.9 197.852,47.2441 
  "/>
<polyline clip-path="url(#clip790)" style="stroke:#000000; stroke-width:4; stroke-opacity:1; fill:none" points="
  197.852,1141.87 223.711,1141.87 
  "/>
<polyline clip-path="url(#clip790)" style="stroke:#000000; stroke-width:4; stroke-opacity:1; fill:none" points="
  197.852,799.124 223.711,799.124 
  "/>
<polyline clip-path="url(#clip790)" style="stroke:#000000; stroke-width:4; stroke-opacity:1; fill:none" points="
  197.852,456.378 223.711,456.378 
  "/>
<polyline clip-path="url(#clip790)" style="stroke:#000000; stroke-width:4; stroke-opacity:1; fill:none" points="
  197.852,113.632 223.711,113.632 
  "/>
<path clip-path="url(#clip790)" d="M 0 0 M150.001 1142.74 Q146.667 1142.74 144.746 1144.52 Q142.848 1146.3 142.848 1149.43 Q142.848 1152.55 144.746 1154.34 Q146.667 1156.12 150.001 1156.12 Q153.334 1156.12 155.255 1154.34 Q157.177 1152.53 157.177 1149.43 Q157.177 1146.3 155.255 1144.52 Q153.357 1142.74 150.001 1142.74 M145.325 1140.75 Q142.316 1140.01 140.626 1137.95 Q138.959 1135.89 138.959 1132.92 Q138.959 1128.78 141.899 1126.37 Q144.862 1123.97 150.001 1123.97 Q155.163 1123.97 158.103 1126.37 Q161.042 1128.78 161.042 1132.92 Q161.042 1135.89 159.353 1137.95 Q157.686 1140.01 154.7 1140.75 Q158.079 1141.53 159.954 1143.83 Q161.852 1146.12 161.852 1149.43 Q161.852 1154.45 158.774 1157.14 Q155.718 1159.82 150.001 1159.82 Q144.283 1159.82 141.204 1157.14 Q138.149 1154.45 138.149 1149.43 Q138.149 1146.12 140.047 1143.83 Q141.945 1141.53 145.325 1140.75 M143.612 1133.36 Q143.612 1136.05 145.279 1137.55 Q146.968 1139.06 150.001 1139.06 Q153.01 1139.06 154.7 1137.55 Q156.413 1136.05 156.413 1133.36 Q156.413 1130.68 154.7 1129.17 Q153.01 1127.67 150.001 1127.67 Q146.968 1127.67 145.279 1129.17 Q143.612 1130.68 143.612 1133.36 Z" fill="#000000" fill-rule="evenodd" fill-opacity="1" /><path clip-path="url(#clip790)" d="M 0 0 M140.232 815.686 L140.232 811.427 Q141.991 812.261 143.797 812.7 Q145.603 813.14 147.339 813.14 Q151.968 813.14 154.399 810.038 Q156.853 806.913 157.2 800.571 Q155.857 802.562 153.797 803.626 Q151.737 804.691 149.237 804.691 Q144.052 804.691 141.019 801.566 Q138.01 798.418 138.01 792.978 Q138.01 787.654 141.158 784.437 Q144.306 781.219 149.538 781.219 Q155.533 781.219 158.681 785.825 Q161.852 790.409 161.852 799.159 Q161.852 807.33 157.964 812.214 Q154.098 817.075 147.547 817.075 Q145.788 817.075 143.982 816.728 Q142.177 816.381 140.232 815.686 M149.538 801.034 Q152.686 801.034 154.515 798.881 Q156.366 796.728 156.366 792.978 Q156.366 789.251 154.515 787.099 Q152.686 784.923 149.538 784.923 Q146.39 784.923 144.538 787.099 Q142.709 789.251 142.709 792.978 Q142.709 796.728 144.538 798.881 Q146.39 801.034 149.538 801.034 Z" fill="#000000" fill-rule="evenodd" fill-opacity="1" /><path clip-path="url(#clip790)" d="M 0 0 M114.931 469.723 L122.57 469.723 L122.57 443.357 L114.26 445.024 L114.26 440.764 L122.524 439.098 L127.2 439.098 L127.2 469.723 L134.839 469.723 L134.839 473.658 L114.931 473.658 L114.931 469.723 Z" fill="#000000" fill-rule="evenodd" fill-opacity="1" /><path clip-path="url(#clip790)" d="M 0 0 M149.908 442.177 Q146.297 442.177 144.468 445.741 Q142.663 449.283 142.663 456.413 Q142.663 463.519 144.468 467.084 Q146.297 470.625 149.908 470.625 Q153.542 470.625 155.348 467.084 Q157.177 463.519 157.177 456.413 Q157.177 449.283 155.348 445.741 Q153.542 442.177 149.908 442.177 M149.908 438.473 Q155.718 438.473 158.774 443.079 Q161.852 447.663 161.852 456.413 Q161.852 465.139 158.774 469.746 Q155.718 474.329 149.908 474.329 Q144.098 474.329 141.019 469.746 Q137.964 465.139 137.964 456.413 Q137.964 447.663 141.019 443.079 Q144.098 438.473 149.908 438.473 Z" fill="#000000" fill-rule="evenodd" fill-opacity="1" /><path clip-path="url(#clip790)" d="M 0 0 M116.158 126.976 L123.797 126.976 L123.797 100.611 L115.487 102.278 L115.487 98.0183 L123.751 96.3516 L128.427 96.3516 L128.427 126.976 L136.066 126.976 L136.066 130.912 L116.158 130.912 L116.158 126.976 Z" fill="#000000" fill-rule="evenodd" fill-opacity="1" /><path clip-path="url(#clip790)" d="M 0 0 M141.945 126.976 L149.584 126.976 L149.584 100.611 L141.274 102.278 L141.274 98.0183 L149.538 96.3516 L154.214 96.3516 L154.214 126.976 L161.852 126.976 L161.852 130.912 L141.945 130.912 L141.945 126.976 Z" fill="#000000" fill-rule="evenodd" fill-opacity="1" /><path clip-path="url(#clip790)" d="M 0 0 M59.1993 815.533 Q55.2526 813.336 53.3747 810.281 Q51.4968 807.225 51.4968 803.088 Q51.4968 797.518 55.4117 794.494 Q59.2948 791.47 66.4881 791.47 L88.0042 791.47 L88.0042 797.358 L66.679 797.358 Q61.5546 797.358 59.072 799.173 Q56.5894 800.987 56.5894 804.711 Q56.5894 809.262 59.6131 811.904 Q62.6368 814.546 67.8567 814.546 L88.0042 814.546 L88.0042 820.434 L66.679 820.434 Q61.5228 820.434 59.072 822.248 Q56.5894 824.063 56.5894 827.85 Q56.5894 832.338 59.6449 834.98 Q62.6686 837.622 67.8567 837.622 L88.0042 837.622 L88.0042 843.51 L52.3562 843.51 L52.3562 837.622 L57.8944 837.622 Q54.616 835.616 53.0564 832.815 Q51.4968 830.015 51.4968 826.163 Q51.4968 822.28 53.4702 819.575 Q55.4436 816.838 59.1993 815.533 Z" fill="#000000" fill-rule="evenodd" fill-opacity="1" /><path clip-path="url(#clip790)" d="M 0 0 M52.3562 785.327 L52.3562 779.471 L88.0042 779.471 L88.0042 785.327 L52.3562 785.327 M38.479 785.327 L38.479 779.471 L45.895 779.471 L45.895 785.327 L38.479 785.327 Z" fill="#000000" fill-rule="evenodd" fill-opacity="1" /><path clip-path="url(#clip790)" d="M 0 0 M66.4881 743.696 L88.0042 743.696 L88.0042 749.552 L66.679 749.552 Q61.6183 749.552 59.1038 751.525 Q56.5894 753.499 56.5894 757.446 Q56.5894 762.188 59.6131 764.925 Q62.6368 767.662 67.8567 767.662 L88.0042 767.662 L88.0042 773.551 L52.3562 773.551 L52.3562 767.662 L57.8944 767.662 Q54.6797 765.562 53.0883 762.729 Q51.4968 759.864 51.4968 756.141 Q51.4968 749.998 55.3163 746.847 Q59.1038 743.696 66.4881 743.696 Z" fill="#000000" fill-rule="evenodd" fill-opacity="1" /><path clip-path="url(#clip790)" d="M 0 0 M98.8259 710.467 L103.377 710.467 L103.377 744.332 L98.8259 744.332 L98.8259 710.467 Z" fill="#000000" fill-rule="evenodd" fill-opacity="1" /><path clip-path="url(#clip790)" d="M 0 0 M57.7671 680.866 L38.479 680.866 L38.479 675.01 L88.0042 675.01 L88.0042 680.866 L82.657 680.866 Q85.8398 682.712 87.3994 685.545 Q88.9272 688.346 88.9272 692.292 Q88.9272 698.754 83.771 702.828 Q78.6147 706.87 70.212 706.87 Q61.8093 706.87 56.6531 702.828 Q51.4968 698.754 51.4968 692.292 Q51.4968 688.346 53.0564 685.545 Q54.5842 682.712 57.7671 680.866 M70.212 700.823 Q76.6732 700.823 80.3653 698.181 Q84.0256 695.507 84.0256 690.86 Q84.0256 686.213 80.3653 683.54 Q76.6732 680.866 70.212 680.866 Q63.7508 680.866 60.0905 683.54 Q56.3984 686.213 56.3984 690.86 Q56.3984 695.507 60.0905 698.181 Q63.7508 700.823 70.212 700.823 Z" fill="#000000" fill-rule="evenodd" fill-opacity="1" /><path clip-path="url(#clip790)" d="M 0 0 M52.3562 668.867 L52.3562 663.01 L88.0042 663.01 L88.0042 668.867 L52.3562 668.867 M38.479 668.867 L38.479 663.01 L45.895 663.01 L45.895 668.867 L38.479 668.867 Z" fill="#000000" fill-rule="evenodd" fill-opacity="1" /><path clip-path="url(#clip790)" d="M 0 0 M38.479 638.821 L43.3487 638.821 L43.3487 644.422 Q43.3487 647.573 44.6219 648.815 Q45.895 650.024 49.2052 650.024 L52.3562 650.024 L52.3562 640.38 L56.9077 640.38 L56.9077 650.024 L88.0042 650.024 L88.0042 655.912 L56.9077 655.912 L56.9077 661.514 L52.3562 661.514 L52.3562 655.912 L49.8736 655.912 Q43.9216 655.912 41.2162 653.143 Q38.479 650.374 38.479 644.359 L38.479 638.821 Z" fill="#000000" fill-rule="evenodd" fill-opacity="1" /><path clip-path="url(#clip790)" d="M 0 0 M38.479 614.631 L43.3487 614.631 L43.3487 620.233 Q43.3487 623.384 44.6219 624.625 Q45.895 625.835 49.2052 625.835 L52.3562 625.835 L52.3562 616.19 L56.9077 616.19 L56.9077 625.835 L88.0042 625.835 L88.0042 631.723 L56.9077 631.723 L56.9077 637.325 L52.3562 637.325 L52.3562 631.723 L49.8736 631.723 Q43.9216 631.723 41.2162 628.954 Q38.479 626.185 38.479 620.169 L38.479 614.631 Z" fill="#000000" fill-rule="evenodd" fill-opacity="1" /><polyline clip-path="url(#clip792)" style="stroke:#009af9; stroke-width:20; stroke-opacity:1; fill:none" stroke-dasharray="80, 50" points="
  258.84,129.784 936.483,85.838 1614.13,1372.3 2291.77,692.153 
  "/>
<path clip-path="url(#clip790)" d="
M1990.47 213.659 L2280.93 213.659 L2280.93 92.6992 L1990.47 92.6992  Z
  " fill="#ffffff" fill-rule="evenodd" fill-opacity="1"/>
<polyline clip-path="url(#clip790)" style="stroke:#000000; stroke-width:4; stroke-opacity:1; fill:none" points="
  1990.47,213.659 2280.93,213.659 2280.93,92.6992 1990.47,92.6992 1990.47,213.659 
  "/>
<polyline clip-path="url(#clip790)" style="stroke:#009af9; stroke-width:4; stroke-opacity:1; fill:none" stroke-dasharray="16, 10" points="
  2014.42,153.179 2158.08,153.179 
  "/>
<path clip-path="url(#clip790)" d="M 0 0 M2195.86 172.867 Q2194.06 177.496 2192.34 178.908 Q2190.63 180.32 2187.76 180.32 L2184.36 180.32 L2184.36 176.755 L2186.86 176.755 Q2188.62 176.755 2189.59 175.922 Q2190.56 175.089 2191.74 171.987 L2192.51 170.043 L2182.02 144.533 L2186.53 144.533 L2194.64 164.811 L2202.74 144.533 L2207.25 144.533 L2195.86 172.867 Z" fill="#000000" fill-rule="evenodd" fill-opacity="1" /><path clip-path="url(#clip790)" d="M 0 0 M2213.13 166.524 L2220.77 166.524 L2220.77 140.158 L2212.46 141.825 L2212.46 137.566 L2220.72 135.899 L2225.4 135.899 L2225.4 166.524 L2233.04 166.524 L2233.04 170.459 L2213.13 170.459 L2213.13 166.524 Z" fill="#000000" fill-rule="evenodd" fill-opacity="1" /></svg>
