<?xml version="1.0" encoding="utf-8"?>
<svg xmlns="http://www.w3.org/2000/svg" xmlns:xlink="http://www.w3.org/1999/xlink" width="600" height="400" viewBox="0 0 2400 1600">
<defs>
  <clipPath id="clip980">
    <rect x="0" y="0" width="2400" height="1600"/>
  </clipPath>
</defs>
<path clip-path="url(#clip980)" d="
M0 1600 L2400 1600 L2400 0 L0 0  Z
  " fill="#ffffff" fill-rule="evenodd" fill-opacity="1"/>
<defs>
  <clipPath id="clip981">
    <rect x="480" y="0" width="1681" height="1600"/>
  </clipPath>
</defs>
<path clip-path="url(#clip980)" d="
M229.473 1410.9 L2352.76 1410.9 L2352.76 47.2441 L229.473 47.2441  Z
  " fill="#ffffff" fill-rule="evenodd" fill-opacity="1"/>
<defs>
  <clipPath id="clip982">
    <rect x="229" y="47" width="2124" height="1365"/>
  </clipPath>
</defs>
<polyline clip-path="url(#clip982)" style="stroke:#000000; stroke-width:2; stroke-opacity:0.1; fill:none" points="
  445.114,1410.9 445.114,47.2441 
  "/>
<polyline clip-path="url(#clip982)" style="stroke:#000000; stroke-width:2; stroke-opacity:0.1; fill:none" points="
  753.039,1410.9 753.039,47.2441 
  "/>
<polyline clip-path="url(#clip982)" style="stroke:#000000; stroke-width:2; stroke-opacity:0.1; fill:none" points="
  1060.96,1410.9 1060.96,47.2441 
  "/>
<polyline clip-path="url(#clip982)" style="stroke:#000000; stroke-width:2; stroke-opacity:0.1; fill:none" points="
  1368.89,1410.9 1368.89,47.2441 
  "/>
<polyline clip-path="url(#clip982)" style="stroke:#000000; stroke-width:2; stroke-opacity:0.1; fill:none" points="
  1676.81,1410.9 1676.81,47.2441 
  "/>
<polyline clip-path="url(#clip982)" style="stroke:#000000; stroke-width:2; stroke-opacity:0.1; fill:none" points="
  1984.74,1410.9 1984.74,47.2441 
  "/>
<polyline clip-path="url(#clip982)" style="stroke:#000000; stroke-width:2; stroke-opacity:0.1; fill:none" points="
  2292.66,1410.9 2292.66,47.2441 
  "/>
<polyline clip-path="url(#clip980)" style="stroke:#000000; stroke-width:4; stroke-opacity:1; fill:none" points="
  229.473,1410.9 2352.76,1410.9 
  "/>
<polyline clip-path="url(#clip980)" style="stroke:#000000; stroke-width:4; stroke-opacity:1; fill:none" points="
  445.114,1410.9 445.114,1394.53 
  "/>
<polyline clip-path="url(#clip980)" style="stroke:#000000; stroke-width:4; stroke-opacity:1; fill:none" points="
  753.039,1410.9 753.039,1394.53 
  "/>
<polyline clip-path="url(#clip980)" style="stroke:#000000; stroke-width:4; stroke-opacity:1; fill:none" points="
  1060.96,1410.9 1060.96,1394.53 
  "/>
<polyline clip-path="url(#clip980)" style="stroke:#000000; stroke-width:4; stroke-opacity:1; fill:none" points="
  1368.89,1410.9 1368.89,1394.53 
  "/>
<polyline clip-path="url(#clip980)" style="stroke:#000000; stroke-width:4; stroke-opacity:1; fill:none" points="
  1676.81,1410.9 1676.81,1394.53 
  "/>
<polyline clip-path="url(#clip980)" style="stroke:#000000; stroke-width:4; stroke-opacity:1; fill:none" points="
  1984.74,1410.9 1984.74,1394.53 
  "/>
<polyline clip-path="url(#clip980)" style="stroke:#000000; stroke-width:4; stroke-opacity:1; fill:none" points="
  2292.66,1410.9 2292.66,1394.53 
  "/>
<path clip-path="url(#clip980)" d="M 0 0 M384.59 1489.17 L392.229 1489.17 L392.229 1462.8 L383.918 1464.47 L383.918 1460.21 L392.182 1458.54 L396.858 1458.54 L396.858 1489.17 L404.497 1489.17 L404.497 1493.1 L384.59 1493.1 L384.59 1489.17 Z" fill="#000000" fill-rule="evenodd" fill-opacity="1" /><path clip-path="url(#clip980)" d="M 0 0 M419.566 1461.62 Q415.955 1461.62 414.127 1465.19 Q412.321 1468.73 412.321 1475.86 Q412.321 1482.97 414.127 1486.53 Q415.955 1490.07 419.566 1490.07 Q423.201 1490.07 425.006 1486.53 Q426.835 1482.97 426.835 1475.86 Q426.835 1468.73 425.006 1465.19 Q423.201 1461.62 419.566 1461.62 M419.566 1457.92 Q425.377 1457.92 428.432 1462.53 Q431.511 1467.11 431.511 1475.86 Q431.511 1484.59 428.432 1489.19 Q425.377 1493.78 419.566 1493.78 Q413.756 1493.78 410.678 1489.19 Q407.622 1484.59 407.622 1475.86 Q407.622 1467.11 410.678 1462.53 Q413.756 1457.92 419.566 1457.92 Z" fill="#000000" fill-rule="evenodd" fill-opacity="1" /><path clip-path="url(#clip980)" d="M 0 0 M431.511 1452.02 L455.622 1452.02 L455.622 1455.22 L431.511 1455.22 L431.511 1452.02 Z" fill="#000000" fill-rule="evenodd" fill-opacity="1" /><path clip-path="url(#clip980)" d="M 0 0 M467.866 1440.11 Q464.932 1440.11 463.446 1443.01 Q461.979 1445.89 461.979 1451.68 Q461.979 1457.46 463.446 1460.35 Q464.932 1463.23 467.866 1463.23 Q470.819 1463.23 472.286 1460.35 Q473.772 1457.46 473.772 1451.68 Q473.772 1445.89 472.286 1443.01 Q470.819 1440.11 467.866 1440.11 M467.866 1437.11 Q472.587 1437.11 475.07 1440.85 Q477.571 1444.57 477.571 1451.68 Q477.571 1458.77 475.07 1462.51 Q472.587 1466.24 467.866 1466.24 Q463.145 1466.24 460.644 1462.51 Q458.161 1458.77 458.161 1451.68 Q458.161 1444.57 460.644 1440.85 Q463.145 1437.11 467.866 1437.11 Z" fill="#000000" fill-rule="evenodd" fill-opacity="1" /><path clip-path="url(#clip980)" d="M 0 0 M481.69 1460.92 L485.658 1460.92 L485.658 1465.69 L481.69 1465.69 L481.69 1460.92 Z" fill="#000000" fill-rule="evenodd" fill-opacity="1" /><path clip-path="url(#clip980)" d="M 0 0 M493.05 1462.5 L506.309 1462.5 L506.309 1465.69 L488.48 1465.69 L488.48 1462.5 Q490.642 1460.26 494.366 1456.5 Q498.109 1452.72 499.068 1451.63 Q500.893 1449.58 501.607 1448.16 Q502.341 1446.74 502.341 1445.36 Q502.341 1443.12 500.761 1441.71 Q499.2 1440.3 496.68 1440.3 Q494.893 1440.3 492.899 1440.92 Q490.925 1441.54 488.668 1442.8 L488.668 1438.97 Q490.962 1438.05 492.956 1437.58 Q494.949 1437.11 496.604 1437.11 Q500.968 1437.11 503.563 1439.29 Q506.159 1441.47 506.159 1445.12 Q506.159 1446.85 505.501 1448.41 Q504.861 1449.95 503.15 1452.06 Q502.679 1452.6 500.159 1455.22 Q497.639 1457.81 493.05 1462.5 Z" fill="#000000" fill-rule="evenodd" fill-opacity="1" /><path clip-path="url(#clip980)" d="M 0 0 M705.191 1489.17 L712.83 1489.17 L712.83 1462.8 L704.52 1464.47 L704.52 1460.21 L712.784 1458.54 L717.459 1458.54 L717.459 1489.17 L725.098 1489.17 L725.098 1493.1 L705.191 1493.1 L705.191 1489.17 Z" fill="#000000" fill-rule="evenodd" fill-opacity="1" /><path clip-path="url(#clip980)" d="M 0 0 M740.168 1461.62 Q736.557 1461.62 734.728 1465.19 Q732.922 1468.73 732.922 1475.86 Q732.922 1482.97 734.728 1486.53 Q736.557 1490.07 740.168 1490.07 Q743.802 1490.07 745.607 1486.53 Q747.436 1482.97 747.436 1475.86 Q747.436 1468.73 745.607 1465.19 Q743.802 1461.62 740.168 1461.62 M740.168 1457.92 Q745.978 1457.92 749.033 1462.53 Q752.112 1467.11 752.112 1475.86 Q752.112 1484.59 749.033 1489.19 Q745.978 1493.78 740.168 1493.78 Q734.358 1493.78 731.279 1489.19 Q728.223 1484.59 728.223 1475.86 Q728.223 1467.11 731.279 1462.53 Q734.358 1457.92 740.168 1457.92 Z" fill="#000000" fill-rule="evenodd" fill-opacity="1" /><path clip-path="url(#clip980)" d="M 0 0 M761.817 1440.11 Q758.883 1440.11 757.397 1443.01 Q755.93 1445.89 755.93 1451.68 Q755.93 1457.46 757.397 1460.35 Q758.883 1463.23 761.817 1463.23 Q764.77 1463.23 766.237 1460.35 Q767.723 1457.46 767.723 1451.68 Q767.723 1445.89 766.237 1443.01 Q764.77 1440.11 761.817 1440.11 M761.817 1437.11 Q766.538 1437.11 769.02 1440.85 Q771.522 1444.57 771.522 1451.68 Q771.522 1458.77 769.02 1462.51 Q766.538 1466.24 761.817 1466.24 Q757.096 1466.24 754.595 1462.51 Q752.112 1458.77 752.112 1451.68 Q752.112 1444.57 754.595 1440.85 Q757.096 1437.11 761.817 1437.11 Z" fill="#000000" fill-rule="evenodd" fill-opacity="1" /><path clip-path="url(#clip980)" d="M 0 0 M775.641 1460.92 L779.609 1460.92 L779.609 1465.69 L775.641 1465.69 L775.641 1460.92 Z" fill="#000000" fill-rule="evenodd" fill-opacity="1" /><path clip-path="url(#clip980)" d="M 0 0 M791.853 1440.11 Q788.919 1440.11 787.433 1443.01 Q785.966 1445.89 785.966 1451.68 Q785.966 1457.46 787.433 1460.35 Q788.919 1463.23 791.853 1463.23 Q794.806 1463.23 796.273 1460.35 Q797.759 1457.46 797.759 1451.68 Q797.759 1445.89 796.273 1443.01 Q794.806 1440.11 791.853 1440.11 M791.853 1437.11 Q796.574 1437.11 799.056 1440.85 Q801.558 1444.57 801.558 1451.68 Q801.558 1458.77 799.056 1462.51 Q796.574 1466.24 791.853 1466.24 Q787.132 1466.24 784.631 1462.51 Q782.148 1458.77 782.148 1451.68 Q782.148 1444.57 784.631 1440.85 Q787.132 1437.11 791.853 1437.11 Z" fill="#000000" fill-rule="evenodd" fill-opacity="1" /><path clip-path="url(#clip980)" d="M 0 0 M1013.76 1489.17 L1021.4 1489.17 L1021.4 1462.8 L1013.09 1464.47 L1013.09 1460.21 L1021.36 1458.54 L1026.03 1458.54 L1026.03 1489.17 L1033.67 1489.17 L1033.67 1493.1 L1013.76 1493.1 L1013.76 1489.17 Z" fill="#000000" fill-rule="evenodd" fill-opacity="1" /><path clip-path="url(#clip980)" d="M 0 0 M1048.74 1461.62 Q1045.13 1461.62 1043.3 1465.19 Q1041.5 1468.73 1041.5 1475.86 Q1041.5 1482.97 1043.3 1486.53 Q1045.13 1490.07 1048.74 1490.07 Q1052.38 1490.07 1054.18 1486.53 Q1056.01 1482.97 1056.01 1475.86 Q1056.01 1468.73 1054.18 1465.19 Q1052.38 1461.62 1048.74 1461.62 M1048.74 1457.92 Q1054.55 1457.92 1057.61 1462.53 Q1060.69 1467.11 1060.69 1475.86 Q1060.69 1484.59 1057.61 1489.19 Q1054.55 1493.78 1048.74 1493.78 Q1042.93 1493.78 1039.85 1489.19 Q1036.8 1484.59 1036.8 1475.86 Q1036.8 1467.11 1039.85 1462.53 Q1042.93 1457.92 1048.74 1457.92 Z" fill="#000000" fill-rule="evenodd" fill-opacity="1" /><path clip-path="url(#clip980)" d="M 0 0 M1070.39 1440.11 Q1067.46 1440.11 1065.97 1443.01 Q1064.5 1445.89 1064.5 1451.68 Q1064.5 1457.46 1065.97 1460.35 Q1067.46 1463.23 1070.39 1463.23 Q1073.34 1463.23 1074.81 1460.35 Q1076.3 1457.46 1076.3 1451.68 Q1076.3 1445.89 1074.81 1443.01 Q1073.34 1440.11 1070.39 1440.11 M1070.39 1437.11 Q1075.11 1437.11 1077.59 1440.85 Q1080.1 1444.57 1080.1 1451.68 Q1080.1 1458.77 1077.59 1462.51 Q1075.11 1466.24 1070.39 1466.24 Q1065.67 1466.24 1063.17 1462.51 Q1060.69 1458.77 1060.69 1451.68 Q1060.69 1444.57 1063.17 1440.85 Q1065.67 1437.11 1070.39 1437.11 Z" fill="#000000" fill-rule="evenodd" fill-opacity="1" /><path clip-path="url(#clip980)" d="M 0 0 M1084.21 1460.92 L1088.18 1460.92 L1088.18 1465.69 L1084.21 1465.69 L1084.21 1460.92 Z" fill="#000000" fill-rule="evenodd" fill-opacity="1" /><path clip-path="url(#clip980)" d="M 0 0 M1095.57 1462.5 L1108.83 1462.5 L1108.83 1465.69 L1091 1465.69 L1091 1462.5 Q1093.17 1460.26 1096.89 1456.5 Q1100.63 1452.72 1101.59 1451.63 Q1103.42 1449.58 1104.13 1448.16 Q1104.87 1446.74 1104.87 1445.36 Q1104.87 1443.12 1103.29 1441.71 Q1101.72 1440.3 1099.2 1440.3 Q1097.42 1440.3 1095.42 1440.92 Q1093.45 1441.54 1091.19 1442.8 L1091.19 1438.97 Q1093.49 1438.05 1095.48 1437.58 Q1097.47 1437.11 1099.13 1437.11 Q1103.49 1437.11 1106.09 1439.29 Q1108.68 1441.47 1108.68 1445.12 Q1108.68 1446.85 1108.02 1448.41 Q1107.39 1449.95 1105.67 1452.06 Q1105.2 1452.6 1102.68 1455.22 Q1100.16 1457.81 1095.57 1462.5 Z" fill="#000000" fill-rule="evenodd" fill-opacity="1" /><path clip-path="url(#clip980)" d="M 0 0 M1320.84 1489.17 L1328.48 1489.17 L1328.48 1462.8 L1320.17 1464.47 L1320.17 1460.21 L1328.44 1458.54 L1333.11 1458.54 L1333.11 1489.17 L1340.75 1489.17 L1340.75 1493.1 L1320.84 1493.1 L1320.84 1489.17 Z" fill="#000000" fill-rule="evenodd" fill-opacity="1" /><path clip-path="url(#clip980)" d="M 0 0 M1355.82 1461.62 Q1352.21 1461.62 1350.38 1465.19 Q1348.57 1468.73 1348.57 1475.86 Q1348.57 1482.97 1350.38 1486.53 Q1352.21 1490.07 1355.82 1490.07 Q1359.45 1490.07 1361.26 1486.53 Q1363.09 1482.97 1363.09 1475.86 Q1363.09 1468.73 1361.26 1465.19 Q1359.45 1461.62 1355.82 1461.62 M1355.82 1457.92 Q1361.63 1457.92 1364.69 1462.53 Q1367.76 1467.11 1367.76 1475.86 Q1367.76 1484.59 1364.69 1489.19 Q1361.63 1493.78 1355.82 1493.78 Q1350.01 1493.78 1346.93 1489.19 Q1343.88 1484.59 1343.88 1475.86 Q1343.88 1467.11 1346.93 1462.53 Q1350.01 1457.92 1355.82 1457.92 Z" fill="#000000" fill-rule="evenodd" fill-opacity="1" /><path clip-path="url(#clip980)" d="M 0 0 M1377.47 1440.11 Q1374.54 1440.11 1373.05 1443.01 Q1371.58 1445.89 1371.58 1451.68 Q1371.58 1457.46 1373.05 1460.35 Q1374.54 1463.23 1377.47 1463.23 Q1380.42 1463.23 1381.89 1460.35 Q1383.37 1457.46 1383.37 1451.68 Q1383.37 1445.89 1381.89 1443.01 Q1380.42 1440.11 1377.47 1440.11 M1377.47 1437.11 Q1382.19 1437.11 1384.67 1440.85 Q1387.17 1444.57 1387.17 1451.68 Q1387.17 1458.77 1384.67 1462.51 Q1382.19 1466.24 1377.47 1466.24 Q1372.75 1466.24 1370.25 1462.51 Q1367.76 1458.77 1367.76 1451.68 Q1367.76 1444.57 1370.25 1440.85 Q1372.75 1437.11 1377.47 1437.11 Z" fill="#000000" fill-rule="evenodd" fill-opacity="1" /><path clip-path="url(#clip980)" d="M 0 0 M1391.29 1460.92 L1395.26 1460.92 L1395.26 1465.69 L1391.29 1465.69 L1391.29 1460.92 Z" fill="#000000" fill-rule="evenodd" fill-opacity="1" /><path clip-path="url(#clip980)" d="M 0 0 M1409.82 1440.92 L1400.23 1455.91 L1409.82 1455.91 L1409.82 1440.92 M1408.82 1437.61 L1413.6 1437.61 L1413.6 1455.91 L1417.6 1455.91 L1417.6 1459.07 L1413.6 1459.07 L1413.6 1465.69 L1409.82 1465.69 L1409.82 1459.07 L1397.14 1459.07 L1397.14 1455.41 L1408.82 1437.61 Z" fill="#000000" fill-rule="evenodd" fill-opacity="1" /><path clip-path="url(#clip980)" d="M 0 0 M1628.9 1489.17 L1636.54 1489.17 L1636.54 1462.8 L1628.23 1464.47 L1628.23 1460.21 L1636.49 1458.54 L1641.17 1458.54 L1641.17 1489.17 L1648.81 1489.17 L1648.81 1493.1 L1628.9 1493.1 L1628.9 1489.17 Z" fill="#000000" fill-rule="evenodd" fill-opacity="1" /><path clip-path="url(#clip980)" d="M 0 0 M1663.88 1461.62 Q1660.27 1461.62 1658.44 1465.19 Q1656.63 1468.73 1656.63 1475.86 Q1656.63 1482.97 1658.44 1486.53 Q1660.27 1490.07 1663.88 1490.07 Q1667.51 1490.07 1669.32 1486.53 Q1671.14 1482.97 1671.14 1475.86 Q1671.14 1468.73 1669.32 1465.19 Q1667.51 1461.62 1663.88 1461.62 M1663.88 1457.92 Q1669.69 1457.92 1672.74 1462.53 Q1675.82 1467.11 1675.82 1475.86 Q1675.82 1484.59 1672.74 1489.19 Q1669.69 1493.78 1663.88 1493.78 Q1658.07 1493.78 1654.99 1489.19 Q1651.93 1484.59 1651.93 1475.86 Q1651.93 1467.11 1654.99 1462.53 Q1658.07 1457.92 1663.88 1457.92 Z" fill="#000000" fill-rule="evenodd" fill-opacity="1" /><path clip-path="url(#clip980)" d="M 0 0 M1685.53 1440.11 Q1682.59 1440.11 1681.11 1443.01 Q1679.64 1445.89 1679.64 1451.68 Q1679.64 1457.46 1681.11 1460.35 Q1682.59 1463.23 1685.53 1463.23 Q1688.48 1463.23 1689.95 1460.35 Q1691.43 1457.46 1691.43 1451.68 Q1691.43 1445.89 1689.95 1443.01 Q1688.48 1440.11 1685.53 1440.11 M1685.53 1437.11 Q1690.25 1437.11 1692.73 1440.85 Q1695.23 1444.57 1695.23 1451.68 Q1695.23 1458.77 1692.73 1462.51 Q1690.25 1466.24 1685.53 1466.24 Q1680.8 1466.24 1678.3 1462.51 Q1675.82 1458.77 1675.82 1451.68 Q1675.82 1444.57 1678.3 1440.85 Q1680.8 1437.11 1685.53 1437.11 Z" fill="#000000" fill-rule="evenodd" fill-opacity="1" /><path clip-path="url(#clip980)" d="M 0 0 M1699.35 1460.92 L1703.32 1460.92 L1703.32 1465.69 L1699.35 1465.69 L1699.35 1460.92 Z" fill="#000000" fill-rule="evenodd" fill-opacity="1" /><path clip-path="url(#clip980)" d="M 0 0 M1716.03 1450.14 Q1713.47 1450.14 1711.97 1451.89 Q1710.48 1453.64 1710.48 1456.68 Q1710.48 1459.71 1711.97 1461.48 Q1713.47 1463.23 1716.03 1463.23 Q1718.59 1463.23 1720.08 1461.48 Q1721.58 1459.71 1721.58 1456.68 Q1721.58 1453.64 1720.08 1451.89 Q1718.59 1450.14 1716.03 1450.14 M1723.57 1438.23 L1723.57 1441.69 Q1722.14 1441.02 1720.68 1440.66 Q1719.23 1440.3 1717.8 1440.3 Q1714.04 1440.3 1712.04 1442.84 Q1710.07 1445.38 1709.79 1450.52 Q1710.9 1448.88 1712.57 1448.01 Q1714.25 1447.13 1716.26 1447.13 Q1720.49 1447.13 1722.93 1449.71 Q1725.4 1452.26 1725.4 1456.68 Q1725.4 1461.01 1722.84 1463.62 Q1720.28 1466.24 1716.03 1466.24 Q1711.16 1466.24 1708.58 1462.51 Q1706.01 1458.77 1706.01 1451.68 Q1706.01 1445.02 1709.17 1441.07 Q1712.33 1437.11 1717.65 1437.11 Q1719.08 1437.11 1720.53 1437.39 Q1721.99 1437.67 1723.57 1438.23 Z" fill="#000000" fill-rule="evenodd" fill-opacity="1" /><path clip-path="url(#clip980)" d="M 0 0 M1936.93 1489.17 L1944.57 1489.17 L1944.57 1462.8 L1936.26 1464.47 L1936.26 1460.21 L1944.52 1458.54 L1949.2 1458.54 L1949.2 1489.17 L1956.84 1489.17 L1956.84 1493.1 L1936.93 1493.1 L1936.93 1489.17 Z" fill="#000000" fill-rule="evenodd" fill-opacity="1" /><path clip-path="url(#clip980)" d="M 0 0 M1971.9 1461.62 Q1968.29 1461.62 1966.46 1465.19 Q1964.66 1468.73 1964.66 1475.86 Q1964.66 1482.97 1966.46 1486.53 Q1968.29 1490.07 1971.9 1490.07 Q1975.54 1490.07 1977.34 1486.53 Q1979.17 1482.97 1979.17 1475.86 Q1979.17 1468.73 1977.34 1465.19 Q1975.54 1461.62 1971.9 1461.62 M1971.9 1457.92 Q1977.71 1457.92 1980.77 1462.53 Q1983.85 1467.11 1983.85 1475.86 Q1983.85 1484.59 1980.77 1489.19 Q1977.71 1493.78 1971.9 1493.78 Q1966.09 1493.78 1963.02 1489.19 Q1959.96 1484.59 1959.96 1475.86 Q1959.96 1467.11 1963.02 1462.53 Q1966.09 1457.92 1971.9 1457.92 Z" fill="#000000" fill-rule="evenodd" fill-opacity="1" /><path clip-path="url(#clip980)" d="M 0 0 M1993.55 1440.11 Q1990.62 1440.11 1989.13 1443.01 Q1987.67 1445.89 1987.67 1451.68 Q1987.67 1457.46 1989.13 1460.35 Q1990.62 1463.23 1993.55 1463.23 Q1996.51 1463.23 1997.97 1460.35 Q1999.46 1457.46 1999.46 1451.68 Q1999.46 1445.89 1997.97 1443.01 Q1996.51 1440.11 1993.55 1440.11 M1993.55 1437.11 Q1998.27 1437.11 2000.76 1440.85 Q2003.26 1444.57 2003.26 1451.68 Q2003.26 1458.77 2000.76 1462.51 Q1998.27 1466.24 1993.55 1466.24 Q1988.83 1466.24 1986.33 1462.51 Q1983.85 1458.77 1983.85 1451.68 Q1983.85 1444.57 1986.33 1440.85 Q1988.83 1437.11 1993.55 1437.11 Z" fill="#000000" fill-rule="evenodd" fill-opacity="1" /><path clip-path="url(#clip980)" d="M 0 0 M2007.38 1460.92 L2011.35 1460.92 L2011.35 1465.69 L2007.38 1465.69 L2007.38 1460.92 Z" fill="#000000" fill-rule="evenodd" fill-opacity="1" /><path clip-path="url(#clip980)" d="M 0 0 M2023.59 1452.36 Q2020.88 1452.36 2019.32 1453.81 Q2017.78 1455.26 2017.78 1457.79 Q2017.78 1460.33 2019.32 1461.78 Q2020.88 1463.23 2023.59 1463.23 Q2026.3 1463.23 2027.86 1461.78 Q2029.42 1460.31 2029.42 1457.79 Q2029.42 1455.26 2027.86 1453.81 Q2026.32 1452.36 2023.59 1452.36 M2019.79 1450.74 Q2017.35 1450.14 2015.97 1448.47 Q2014.62 1446.79 2014.62 1444.38 Q2014.62 1441.02 2017.01 1439.06 Q2019.41 1437.11 2023.59 1437.11 Q2027.78 1437.11 2030.17 1439.06 Q2032.56 1441.02 2032.56 1444.38 Q2032.56 1446.79 2031.19 1448.47 Q2029.83 1450.14 2027.41 1450.74 Q2030.15 1451.38 2031.68 1453.24 Q2033.22 1455.1 2033.22 1457.79 Q2033.22 1461.88 2030.72 1464.06 Q2028.24 1466.24 2023.59 1466.24 Q2018.94 1466.24 2016.44 1464.06 Q2013.96 1461.88 2013.96 1457.79 Q2013.96 1455.1 2015.5 1453.24 Q2017.04 1451.38 2019.79 1450.74 M2018.4 1444.74 Q2018.4 1446.92 2019.75 1448.15 Q2021.13 1449.37 2023.59 1449.37 Q2026.03 1449.37 2027.41 1448.15 Q2028.8 1446.92 2028.8 1444.74 Q2028.8 1442.56 2027.41 1441.34 Q2026.03 1440.11 2023.59 1440.11 Q2021.13 1440.11 2019.75 1441.34 Q2018.4 1442.56 2018.4 1444.74 Z" fill="#000000" fill-rule="evenodd" fill-opacity="1" /><path clip-path="url(#clip980)" d="M 0 0 M2246.16 1489.17 L2253.8 1489.17 L2253.8 1462.8 L2245.49 1464.47 L2245.49 1460.21 L2253.75 1458.54 L2258.43 1458.54 L2258.43 1489.17 L2266.07 1489.17 L2266.07 1493.1 L2246.16 1493.1 L2246.16 1489.17 Z" fill="#000000" fill-rule="evenodd" fill-opacity="1" /><path clip-path="url(#clip980)" d="M 0 0 M2281.14 1461.62 Q2277.53 1461.62 2275.7 1465.19 Q2273.89 1468.73 2273.89 1475.86 Q2273.89 1482.97 2275.7 1486.53 Q2277.53 1490.07 2281.14 1490.07 Q2284.77 1490.07 2286.58 1486.53 Q2288.41 1482.97 2288.41 1475.86 Q2288.41 1468.73 2286.58 1465.19 Q2284.77 1461.62 2281.14 1461.62 M2281.14 1457.92 Q2286.95 1457.92 2290 1462.53 Q2293.08 1467.11 2293.08 1475.86 Q2293.08 1484.59 2290 1489.19 Q2286.95 1493.78 2281.14 1493.78 Q2275.33 1493.78 2272.25 1489.19 Q2269.19 1484.59 2269.19 1475.86 Q2269.19 1467.11 2272.25 1462.53 Q2275.33 1457.92 2281.14 1457.92 Z" fill="#000000" fill-rule="evenodd" fill-opacity="1" /><path clip-path="url(#clip980)" d="M 0 0 M2293.63 1462.5 L2299.83 1462.5 L2299.83 1441.07 L2293.08 1442.43 L2293.08 1438.97 L2299.8 1437.61 L2303.59 1437.61 L2303.59 1462.5 L2309.8 1462.5 L2309.8 1465.69 L2293.63 1465.69 L2293.63 1462.5 Z" fill="#000000" fill-rule="evenodd" fill-opacity="1" /><path clip-path="url(#clip980)" d="M 0 0 M2313.92 1460.92 L2317.89 1460.92 L2317.89 1465.69 L2313.92 1465.69 L2313.92 1460.92 Z" fill="#000000" fill-rule="evenodd" fill-opacity="1" /><path clip-path="url(#clip980)" d="M 0 0 M2330.13 1440.11 Q2327.2 1440.11 2325.71 1443.01 Q2324.25 1445.89 2324.25 1451.68 Q2324.25 1457.46 2325.71 1460.35 Q2327.2 1463.23 2330.13 1463.23 Q2333.09 1463.23 2334.55 1460.35 Q2336.04 1457.46 2336.04 1451.68 Q2336.04 1445.89 2334.55 1443.01 Q2333.09 1440.11 2330.13 1440.11 M2330.13 1437.11 Q2334.85 1437.11 2337.34 1440.85 Q2339.84 1444.57 2339.84 1451.68 Q2339.84 1458.77 2337.34 1462.51 Q2334.85 1466.24 2330.13 1466.24 Q2325.41 1466.24 2322.91 1462.51 Q2320.43 1458.77 2320.43 1451.68 Q2320.43 1444.57 2322.91 1440.85 Q2325.41 1437.11 2330.13 1437.11 Z" fill="#000000" fill-rule="evenodd" fill-opacity="1" /><path clip-path="url(#clip980)" d="M 0 0 M1296.32 1545.6 L1294.92 1538.25 Q1293.49 1530.71 1287.82 1530.71 Q1283.56 1530.71 1281.61 1534.21 Q1279.16 1538.6 1279.16 1544.39 Q1279.16 1551.4 1281.55 1554.74 Q1283.97 1558.14 1287.82 1558.14 Q1292.09 1558.14 1294.38 1551.36 L1296.32 1545.6 M1299.6 1535.86 L1302.75 1526.54 L1307.97 1526.54 L1301.44 1545.86 L1302.72 1552.83 Q1303 1554.39 1304.12 1555.69 Q1305.42 1557.22 1306.44 1557.22 L1309.24 1557.22 L1309.24 1562.19 L1305.74 1562.19 Q1302.75 1562.19 1300.07 1559.51 Q1298.77 1558.18 1298.23 1555.37 Q1296.76 1558.91 1293.77 1561.68 Q1292.37 1562.98 1287.82 1562.98 Q1280.34 1562.98 1276.71 1558.14 Q1272.99 1553.15 1272.99 1544.39 Q1272.99 1535.04 1277.03 1530.64 Q1281.52 1525.74 1287.82 1525.74 Q1297.72 1525.74 1299.6 1535.86 Z" fill="#000000" fill-rule="evenodd" fill-opacity="1" /><polyline clip-path="url(#clip982)" style="stroke:#000000; stroke-width:2; stroke-opacity:0.1; fill:none" points="
  229.473,1388.84 2352.76,1388.84 
  "/>
<polyline clip-path="url(#clip982)" style="stroke:#000000; stroke-width:2; stroke-opacity:0.1; fill:none" points="
  229.473,1094.09 2352.76,1094.09 
  "/>
<polyline clip-path="url(#clip982)" style="stroke:#000000; stroke-width:2; stroke-opacity:0.1; fill:none" points="
  229.473,799.333 2352.76,799.333 
  "/>
<polyline clip-path="url(#clip982)" style="stroke:#000000; stroke-width:2; stroke-opacity:0.1; fill:none" points="
  229.473,504.579 2352.76,504.579 
  "/>
<polyline clip-path="url(#clip982)" style="stroke:#000000; stroke-width:2; stroke-opacity:0.1; fill:none" points="
  229.473,209.824 2352.76,209.824 
  "/>
<polyline clip-path="url(#clip980)" style="stroke:#000000; stroke-width:4; stroke-opacity:1; fill:none" points="
  229.473,1410.9 229.473,47.2441 
  "/>
<polyline clip-path="url(#clip980)" style="stroke:#000000; stroke-width:4; stroke-opacity:1; fill:none" points="
  229.473,1388.84 254.952,1388.84 
  "/>
<polyline clip-path="url(#clip980)" style="stroke:#000000; stroke-width:4; stroke-opacity:1; fill:none" points="
  229.473,1094.09 254.952,1094.09 
  "/>
<polyline clip-path="url(#clip980)" style="stroke:#000000; stroke-width:4; stroke-opacity:1; fill:none" points="
  229.473,799.333 254.952,799.333 
  "/>
<polyline clip-path="url(#clip980)" style="stroke:#000000; stroke-width:4; stroke-opacity:1; fill:none" points="
  229.473,504.579 254.952,504.579 
  "/>
<polyline clip-path="url(#clip980)" style="stroke:#000000; stroke-width:4; stroke-opacity:1; fill:none" points="
  229.473,209.824 254.952,209.824 
  "/>
<path clip-path="url(#clip980)" d="M 0 0 M181.528 1374.64 Q177.917 1374.64 176.089 1378.21 Q174.283 1381.75 174.283 1388.88 Q174.283 1395.98 176.089 1399.55 Q177.917 1403.09 181.528 1403.09 Q185.163 1403.09 186.968 1399.55 Q188.797 1395.98 188.797 1388.88 Q188.797 1381.75 186.968 1378.21 Q185.163 1374.64 181.528 1374.64 M181.528 1370.94 Q187.338 1370.94 190.394 1375.54 Q193.473 1380.13 193.473 1388.88 Q193.473 1397.6 190.394 1402.21 Q187.338 1406.79 181.528 1406.79 Q175.718 1406.79 172.639 1402.21 Q169.584 1397.6 169.584 1388.88 Q169.584 1380.13 172.639 1375.54 Q175.718 1370.94 181.528 1370.94 Z" fill="#000000" fill-rule="evenodd" fill-opacity="1" /><path clip-path="url(#clip980)" d="M 0 0 M119.538 1107.43 L127.177 1107.43 L127.177 1081.07 L118.867 1082.73 L118.867 1078.47 L127.13 1076.81 L131.806 1076.81 L131.806 1107.43 L139.445 1107.43 L139.445 1111.37 L119.538 1111.37 L119.538 1107.43 Z" fill="#000000" fill-rule="evenodd" fill-opacity="1" /><path clip-path="url(#clip980)" d="M 0 0 M154.515 1079.89 Q150.903 1079.89 149.075 1083.45 Q147.269 1086.99 147.269 1094.12 Q147.269 1101.23 149.075 1104.79 Q150.903 1108.33 154.515 1108.33 Q158.149 1108.33 159.954 1104.79 Q161.783 1101.23 161.783 1094.12 Q161.783 1086.99 159.954 1083.45 Q158.149 1079.89 154.515 1079.89 M154.515 1076.18 Q160.325 1076.18 163.38 1080.79 Q166.459 1085.37 166.459 1094.12 Q166.459 1102.85 163.38 1107.46 Q160.325 1112.04 154.515 1112.04 Q148.704 1112.04 145.626 1107.46 Q142.57 1102.85 142.57 1094.12 Q142.57 1085.37 145.626 1080.79 Q148.704 1076.18 154.515 1076.18 Z" fill="#000000" fill-rule="evenodd" fill-opacity="1" /><path clip-path="url(#clip980)" d="M 0 0 M181.528 1079.89 Q177.917 1079.89 176.089 1083.45 Q174.283 1086.99 174.283 1094.12 Q174.283 1101.23 176.089 1104.79 Q177.917 1108.33 181.528 1108.33 Q185.163 1108.33 186.968 1104.79 Q188.797 1101.23 188.797 1094.12 Q188.797 1086.99 186.968 1083.45 Q185.163 1079.89 181.528 1079.89 M181.528 1076.18 Q187.338 1076.18 190.394 1080.79 Q193.473 1085.37 193.473 1094.12 Q193.473 1102.85 190.394 1107.46 Q187.338 1112.04 181.528 1112.04 Q175.718 1112.04 172.639 1107.46 Q169.584 1102.85 169.584 1094.12 Q169.584 1085.37 172.639 1080.79 Q175.718 1076.18 181.528 1076.18 Z" fill="#000000" fill-rule="evenodd" fill-opacity="1" /><path clip-path="url(#clip980)" d="M 0 0 M123.126 812.678 L139.445 812.678 L139.445 816.613 L117.501 816.613 L117.501 812.678 Q120.163 809.923 124.746 805.294 Q129.353 800.641 130.533 799.298 Q132.779 796.775 133.658 795.039 Q134.561 793.28 134.561 791.59 Q134.561 788.835 132.617 787.099 Q130.695 785.363 127.593 785.363 Q125.394 785.363 122.941 786.127 Q120.51 786.891 117.732 788.442 L117.732 783.72 Q120.556 782.585 123.01 782.007 Q125.464 781.428 127.501 781.428 Q132.871 781.428 136.066 784.113 Q139.26 786.798 139.26 791.289 Q139.26 793.419 138.45 795.34 Q137.663 797.238 135.556 799.831 Q134.978 800.502 131.876 803.72 Q128.774 806.914 123.126 812.678 Z" fill="#000000" fill-rule="evenodd" fill-opacity="1" /><path clip-path="url(#clip980)" d="M 0 0 M154.515 785.132 Q150.903 785.132 149.075 788.696 Q147.269 792.238 147.269 799.368 Q147.269 806.474 149.075 810.039 Q150.903 813.581 154.515 813.581 Q158.149 813.581 159.954 810.039 Q161.783 806.474 161.783 799.368 Q161.783 792.238 159.954 788.696 Q158.149 785.132 154.515 785.132 M154.515 781.428 Q160.325 781.428 163.38 786.034 Q166.459 790.618 166.459 799.368 Q166.459 808.095 163.38 812.701 Q160.325 817.284 154.515 817.284 Q148.704 817.284 145.626 812.701 Q142.57 808.095 142.57 799.368 Q142.57 790.618 145.626 786.034 Q148.704 781.428 154.515 781.428 Z" fill="#000000" fill-rule="evenodd" fill-opacity="1" /><path clip-path="url(#clip980)" d="M 0 0 M181.528 785.132 Q177.917 785.132 176.089 788.696 Q174.283 792.238 174.283 799.368 Q174.283 806.474 176.089 810.039 Q177.917 813.581 181.528 813.581 Q185.163 813.581 186.968 810.039 Q188.797 806.474 188.797 799.368 Q188.797 792.238 186.968 788.696 Q185.163 785.132 181.528 785.132 M181.528 781.428 Q187.338 781.428 190.394 786.034 Q193.473 790.618 193.473 799.368 Q193.473 808.095 190.394 812.701 Q187.338 817.284 181.528 817.284 Q175.718 817.284 172.639 812.701 Q169.584 808.095 169.584 799.368 Q169.584 790.618 172.639 786.034 Q175.718 781.428 181.528 781.428 Z" fill="#000000" fill-rule="evenodd" fill-opacity="1" /><path clip-path="url(#clip980)" d="M 0 0 M132.316 503.225 Q135.672 503.942 137.547 506.211 Q139.445 508.479 139.445 511.812 Q139.445 516.928 135.927 519.729 Q132.408 522.53 125.927 522.53 Q123.751 522.53 121.436 522.09 Q119.144 521.674 116.691 520.817 L116.691 516.303 Q118.635 517.437 120.95 518.016 Q123.265 518.595 125.788 518.595 Q130.186 518.595 132.478 516.859 Q134.792 515.123 134.792 511.812 Q134.792 508.757 132.64 507.044 Q130.51 505.308 126.691 505.308 L122.663 505.308 L122.663 501.465 L126.876 501.465 Q130.325 501.465 132.154 500.1 Q133.982 498.711 133.982 496.118 Q133.982 493.456 132.084 492.044 Q130.209 490.609 126.691 490.609 Q124.769 490.609 122.57 491.026 Q120.371 491.442 117.732 492.322 L117.732 488.155 Q120.394 487.414 122.709 487.044 Q125.047 486.674 127.107 486.674 Q132.431 486.674 135.533 489.104 Q138.635 491.512 138.635 495.632 Q138.635 498.502 136.992 500.493 Q135.348 502.461 132.316 503.225 Z" fill="#000000" fill-rule="evenodd" fill-opacity="1" /><path clip-path="url(#clip980)" d="M 0 0 M154.515 490.377 Q150.903 490.377 149.075 493.942 Q147.269 497.484 147.269 504.613 Q147.269 511.72 149.075 515.285 Q150.903 518.826 154.515 518.826 Q158.149 518.826 159.954 515.285 Q161.783 511.72 161.783 504.613 Q161.783 497.484 159.954 493.942 Q158.149 490.377 154.515 490.377 M154.515 486.674 Q160.325 486.674 163.38 491.28 Q166.459 495.863 166.459 504.613 Q166.459 513.34 163.38 517.947 Q160.325 522.53 154.515 522.53 Q148.704 522.53 145.626 517.947 Q142.57 513.34 142.57 504.613 Q142.57 495.863 145.626 491.28 Q148.704 486.674 154.515 486.674 Z" fill="#000000" fill-rule="evenodd" fill-opacity="1" /><path clip-path="url(#clip980)" d="M 0 0 M181.528 490.377 Q177.917 490.377 176.089 493.942 Q174.283 497.484 174.283 504.613 Q174.283 511.72 176.089 515.285 Q177.917 518.826 181.528 518.826 Q185.163 518.826 186.968 515.285 Q188.797 511.72 188.797 504.613 Q188.797 497.484 186.968 493.942 Q185.163 490.377 181.528 490.377 M181.528 486.674 Q187.338 486.674 190.394 491.28 Q193.473 495.863 193.473 504.613 Q193.473 513.34 190.394 517.947 Q187.338 522.53 181.528 522.53 Q175.718 522.53 172.639 517.947 Q169.584 513.34 169.584 504.613 Q169.584 495.863 172.639 491.28 Q175.718 486.674 181.528 486.674 Z" fill="#000000" fill-rule="evenodd" fill-opacity="1" /><path clip-path="url(#clip980)" d="M 0 0 M129.862 196.618 L118.056 215.067 L129.862 215.067 L129.862 196.618 M128.635 192.544 L134.515 192.544 L134.515 215.067 L139.445 215.067 L139.445 218.956 L134.515 218.956 L134.515 227.104 L129.862 227.104 L129.862 218.956 L114.26 218.956 L114.26 214.442 L128.635 192.544 Z" fill="#000000" fill-rule="evenodd" fill-opacity="1" /><path clip-path="url(#clip980)" d="M 0 0 M154.515 195.623 Q150.903 195.623 149.075 199.188 Q147.269 202.73 147.269 209.859 Q147.269 216.966 149.075 220.53 Q150.903 224.072 154.515 224.072 Q158.149 224.072 159.954 220.53 Q161.783 216.966 161.783 209.859 Q161.783 202.73 159.954 199.188 Q158.149 195.623 154.515 195.623 M154.515 191.919 Q160.325 191.919 163.38 196.526 Q166.459 201.109 166.459 209.859 Q166.459 218.586 163.38 223.192 Q160.325 227.776 154.515 227.776 Q148.704 227.776 145.626 223.192 Q142.57 218.586 142.57 209.859 Q142.57 201.109 145.626 196.526 Q148.704 191.919 154.515 191.919 Z" fill="#000000" fill-rule="evenodd" fill-opacity="1" /><path clip-path="url(#clip980)" d="M 0 0 M181.528 195.623 Q177.917 195.623 176.089 199.188 Q174.283 202.73 174.283 209.859 Q174.283 216.966 176.089 220.53 Q177.917 224.072 181.528 224.072 Q185.163 224.072 186.968 220.53 Q188.797 216.966 188.797 209.859 Q188.797 202.73 186.968 199.188 Q185.163 195.623 181.528 195.623 M181.528 191.919 Q187.338 191.919 190.394 196.526 Q193.473 201.109 193.473 209.859 Q193.473 218.586 190.394 223.192 Q187.338 227.776 181.528 227.776 Q175.718 227.776 172.639 223.192 Q169.584 218.586 169.584 209.859 Q169.584 201.109 172.639 196.526 Q175.718 191.919 181.528 191.919 Z" fill="#000000" fill-rule="evenodd" fill-opacity="1" /><path clip-path="url(#clip980)" d="M 0 0 M59.1993 815.533 Q55.2526 813.336 53.3747 810.281 Q51.4968 807.225 51.4968 803.088 Q51.4968 797.518 55.4117 794.494 Q59.2948 791.47 66.4881 791.47 L88.0042 791.47 L88.0042 797.358 L66.679 797.358 Q61.5546 797.358 59.072 799.173 Q56.5894 800.987 56.5894 804.711 Q56.5894 809.262 59.6131 811.904 Q62.6368 814.546 67.8567 814.546 L88.0042 814.546 L88.0042 820.434 L66.679 820.434 Q61.5228 820.434 59.072 822.248 Q56.5894 824.063 56.5894 827.85 Q56.5894 832.338 59.6449 834.98 Q62.6686 837.622 67.8567 837.622 L88.0042 837.622 L88.0042 843.51 L52.3562 843.51 L52.3562 837.622 L57.8944 837.622 Q54.616 835.616 53.0564 832.815 Q51.4968 830.015 51.4968 826.163 Q51.4968 822.28 53.4702 819.575 Q55.4436 816.838 59.1993 815.533 Z" fill="#000000" fill-rule="evenodd" fill-opacity="1" /><path clip-path="url(#clip980)" d="M 0 0 M52.3562 785.327 L52.3562 779.471 L88.0042 779.471 L88.0042 785.327 L52.3562 785.327 M38.479 785.327 L38.479 779.471 L45.895 779.471 L45.895 785.327 L38.479 785.327 Z" fill="#000000" fill-rule="evenodd" fill-opacity="1" /><path clip-path="url(#clip980)" d="M 0 0 M66.4881 743.696 L88.0042 743.696 L88.0042 749.552 L66.679 749.552 Q61.6183 749.552 59.1038 751.525 Q56.5894 753.499 56.5894 757.446 Q56.5894 762.188 59.6131 764.925 Q62.6368 767.662 67.8567 767.662 L88.0042 767.662 L88.0042 773.551 L52.3562 773.551 L52.3562 767.662 L57.8944 767.662 Q54.6797 765.562 53.0883 762.729 Q51.4968 759.864 51.4968 756.141 Q51.4968 749.998 55.3163 746.847 Q59.1038 743.696 66.4881 743.696 Z" fill="#000000" fill-rule="evenodd" fill-opacity="1" /><path clip-path="url(#clip980)" d="M 0 0 M98.8259 710.467 L103.377 710.467 L103.377 744.332 L98.8259 744.332 L98.8259 710.467 Z" fill="#000000" fill-rule="evenodd" fill-opacity="1" /><path clip-path="url(#clip980)" d="M 0 0 M57.7671 680.866 L38.479 680.866 L38.479 675.01 L88.0042 675.01 L88.0042 680.866 L82.657 680.866 Q85.8398 682.712 87.3994 685.545 Q88.9272 688.346 88.9272 692.292 Q88.9272 698.754 83.771 702.828 Q78.6147 706.87 70.212 706.87 Q61.8093 706.87 56.6531 702.828 Q51.4968 698.754 51.4968 692.292 Q51.4968 688.346 53.0564 685.545 Q54.5842 682.712 57.7671 680.866 M70.212 700.823 Q76.6732 700.823 80.3653 698.181 Q84.0256 695.507 84.0256 690.86 Q84.0256 686.213 80.3653 683.54 Q76.6732 680.866 70.212 680.866 Q63.7508 680.866 60.0905 683.54 Q56.3984 686.213 56.3984 690.86 Q56.3984 695.507 60.0905 698.181 Q63.7508 700.823 70.212 700.823 Z" fill="#000000" fill-rule="evenodd" fill-opacity="1" /><path clip-path="url(#clip980)" d="M 0 0 M52.3562 668.867 L52.3562 663.01 L88.0042 663.01 L88.0042 668.867 L52.3562 668.867 M38.479 668.867 L38.479 663.01 L45.895 663.01 L45.895 668.867 L38.479 668.867 Z" fill="#000000" fill-rule="evenodd" fill-opacity="1" /><path clip-path="url(#clip980)" d="M 0 0 M38.479 638.821 L43.3487 638.821 L43.3487 644.422 Q43.3487 647.573 44.6219 648.815 Q45.895 650.024 49.2052 650.024 L52.3562 650.024 L52.3562 640.38 L56.9077 640.38 L56.9077 650.024 L88.0042 650.024 L88.0042 655.912 L56.9077 655.912 L56.9077 661.514 L52.3562 661.514 L52.3562 655.912 L49.8736 655.912 Q43.9216 655.912 41.2162 653.143 Q38.479 650.374 38.479 644.359 L38.479 638.821 Z" fill="#000000" fill-rule="evenodd" fill-opacity="1" /><path clip-path="url(#clip980)" d="M 0 0 M38.479 614.631 L43.3487 614.631 L43.3487 620.233 Q43.3487 623.384 44.6219 624.625 Q45.895 625.835 49.2052 625.835 L52.3562 625.835 L52.3562 616.19 L56.9077 616.19 L56.9077 625.835 L88.0042 625.835 L88.0042 631.723 L56.9077 631.723 L56.9077 637.325 L52.3562 637.325 L52.3562 631.723 L49.8736 631.723 Q43.9216 631.723 41.2162 628.954 Q38.479 626.185 38.479 620.169 L38.479 614.631 Z" fill="#000000" fill-rule="evenodd" fill-opacity="1" /><polyline clip-path="url(#clip982)" style="stroke:#009af9; stroke-width:20; stroke-opacity:1; fill:none" stroke-dasharray="80, 50" points="
  289.566,1001.86 753.039,1351.87 1024.15,1365.51 1216.51,1372.3 1365.72,1372.16 1487.63,1371.39 1590.7,1351.04 1679.98,1293.69 1758.74,1212.98 1829.19,1117.89 
  1892.92,1014.44 1951.1,906.674 2004.62,797.338 2054.17,688.28 2100.3,580.74 2143.46,475.536 2183.99,373.194 2222.21,274.031 2258.37,178.221 2292.66,85.838 
  
  "/>
<path clip-path="url(#clip980)" d="
M1995.04 213.659 L2281.98 213.659 L2281.98 92.6992 L1995.04 92.6992  Z
  " fill="#ffffff" fill-rule="evenodd" fill-opacity="1"/>
<polyline clip-path="url(#clip980)" style="stroke:#000000; stroke-width:4; stroke-opacity:1; fill:none" points="
  1995.04,213.659 2281.98,213.659 2281.98,92.6992 1995.04,92.6992 1995.04,213.659 
  "/>
<polyline clip-path="url(#clip980)" style="stroke:#009af9; stroke-width:4; stroke-opacity:1; fill:none" stroke-dasharray="16, 10" points="
  2018.63,153.179 2160.19,153.179 
  "/>
<path clip-path="url(#clip980)" d="M 0 0 M2197.62 172.867 Q2195.81 177.496 2194.1 178.908 Q2192.39 180.32 2189.52 180.32 L2186.12 180.32 L2186.12 176.755 L2188.62 176.755 Q2190.37 176.755 2191.35 175.922 Q2192.32 175.089 2193.5 171.987 L2194.26 170.043 L2183.78 144.533 L2188.29 144.533 L2196.39 164.811 L2204.49 144.533 L2209.01 144.533 L2197.62 172.867 Z" fill="#000000" fill-rule="evenodd" fill-opacity="1" /><path clip-path="url(#clip980)" d="M 0 0 M2214.89 166.524 L2222.53 166.524 L2222.53 140.158 L2214.22 141.825 L2214.22 137.566 L2222.48 135.899 L2227.16 135.899 L2227.16 166.524 L2234.8 166.524 L2234.8 170.459 L2214.89 170.459 L2214.89 166.524 Z" fill="#000000" fill-rule="evenodd" fill-opacity="1" /></svg>
