<?xml version="1.0" encoding="utf-8"?>
<svg xmlns="http://www.w3.org/2000/svg" xmlns:xlink="http://www.w3.org/1999/xlink" width="600" height="400" viewBox="0 0 2400 1600">
<defs>
  <clipPath id="clip720">
    <rect x="0" y="0" width="2400" height="1600"/>
  </clipPath>
</defs>
<path clip-path="url(#clip720)" d="
M0 1600 L2400 1600 L2400 0 L0 0  Z
  " fill="#ffffff" fill-rule="evenodd" fill-opacity="1"/>
<defs>
  <clipPath id="clip721">
    <rect x="480" y="0" width="1681" height="1600"/>
  </clipPath>
</defs>
<path clip-path="url(#clip720)" d="
M175.445 1410.9 L2352.76 1410.9 L2352.76 47.2441 L175.445 47.2441  Z
  " fill="#ffffff" fill-rule="evenodd" fill-opacity="1"/>
<defs>
  <clipPath id="clip722">
    <rect x="175" y="47" width="2178" height="1365"/>
  </clipPath>
</defs>
<polyline clip-path="url(#clip722)" style="stroke:#000000; stroke-width:2; stroke-opacity:0.1; fill:none" points="
  241.501,1410.9 241.501,47.2441 
  "/>
<polyline clip-path="url(#clip722)" style="stroke:#000000; stroke-width:2; stroke-opacity:0.1; fill:none" points="
  672.014,1410.9 672.014,47.2441 
  "/>
<polyline clip-path="url(#clip722)" style="stroke:#000000; stroke-width:2; stroke-opacity:0.1; fill:none" points="
  1102.53,1410.9 1102.53,47.2441 
  "/>
<polyline clip-path="url(#clip722)" style="stroke:#000000; stroke-width:2; stroke-opacity:0.1; fill:none" points="
  1533.04,1410.9 1533.04,47.2441 
  "/>
<polyline clip-path="url(#clip722)" style="stroke:#000000; stroke-width:2; stroke-opacity:0.1; fill:none" points="
  1963.55,1410.9 1963.55,47.2441 
  "/>
<polyline clip-path="url(#clip720)" style="stroke:#000000; stroke-width:4; stroke-opacity:1; fill:none" points="
  175.445,1410.9 2352.76,1410.9 
  "/>
<polyline clip-path="url(#clip720)" style="stroke:#000000; stroke-width:4; stroke-opacity:1; fill:none" points="
  241.501,1410.9 241.501,1394.53 
  "/>
<polyline clip-path="url(#clip720)" style="stroke:#000000; stroke-width:4; stroke-opacity:1; fill:none" points="
  672.014,1410.9 672.014,1394.53 
  "/>
<polyline clip-path="url(#clip720)" style="stroke:#000000; stroke-width:4; stroke-opacity:1; fill:none" points="
  1102.53,1410.9 1102.53,1394.53 
  "/>
<polyline clip-path="url(#clip720)" style="stroke:#000000; stroke-width:4; stroke-opacity:1; fill:none" points="
  1533.04,1410.9 1533.04,1394.53 
  "/>
<polyline clip-path="url(#clip720)" style="stroke:#000000; stroke-width:4; stroke-opacity:1; fill:none" points="
  1963.55,1410.9 1963.55,1394.53 
  "/>
<path clip-path="url(#clip720)" d="M 0 0 M180.592 1489.17 L188.231 1489.17 L188.231 1462.8 L179.92 1464.47 L179.92 1460.21 L188.184 1458.54 L192.86 1458.54 L192.86 1489.17 L200.499 1489.17 L200.499 1493.1 L180.592 1493.1 L180.592 1489.17 Z" fill="#000000" fill-rule="evenodd" fill-opacity="1" /><path clip-path="url(#clip720)" d="M 0 0 M215.568 1461.62 Q211.957 1461.62 210.129 1465.19 Q208.323 1468.73 208.323 1475.86 Q208.323 1482.97 210.129 1486.53 Q211.957 1490.07 215.568 1490.07 Q219.203 1490.07 221.008 1486.53 Q222.837 1482.97 222.837 1475.86 Q222.837 1468.73 221.008 1465.19 Q219.203 1461.62 215.568 1461.62 M215.568 1457.92 Q221.379 1457.92 224.434 1462.53 Q227.513 1467.11 227.513 1475.86 Q227.513 1484.59 224.434 1489.19 Q221.379 1493.78 215.568 1493.78 Q209.758 1493.78 206.68 1489.19 Q203.624 1484.59 203.624 1475.86 Q203.624 1467.11 206.68 1462.53 Q209.758 1457.92 215.568 1457.92 Z" fill="#000000" fill-rule="evenodd" fill-opacity="1" /><path clip-path="url(#clip720)" d="M 0 0 M227.513 1452.02 L251.624 1452.02 L251.624 1455.22 L227.513 1455.22 L227.513 1452.02 Z" fill="#000000" fill-rule="evenodd" fill-opacity="1" /><path clip-path="url(#clip720)" d="M 0 0 M263.868 1440.11 Q260.934 1440.11 259.448 1443.01 Q257.981 1445.89 257.981 1451.68 Q257.981 1457.46 259.448 1460.35 Q260.934 1463.23 263.868 1463.23 Q266.821 1463.23 268.288 1460.35 Q269.774 1457.46 269.774 1451.68 Q269.774 1445.89 268.288 1443.01 Q266.821 1440.11 263.868 1440.11 M263.868 1437.11 Q268.589 1437.11 271.072 1440.85 Q273.573 1444.57 273.573 1451.68 Q273.573 1458.77 271.072 1462.51 Q268.589 1466.24 263.868 1466.24 Q259.147 1466.24 256.646 1462.51 Q254.163 1458.77 254.163 1451.68 Q254.163 1444.57 256.646 1440.85 Q259.147 1437.11 263.868 1437.11 Z" fill="#000000" fill-rule="evenodd" fill-opacity="1" /><path clip-path="url(#clip720)" d="M 0 0 M277.692 1460.92 L281.66 1460.92 L281.66 1465.69 L277.692 1465.69 L277.692 1460.92 Z" fill="#000000" fill-rule="evenodd" fill-opacity="1" /><path clip-path="url(#clip720)" d="M 0 0 M297.29 1450.55 Q300.017 1451.14 301.54 1452.98 Q303.082 1454.82 303.082 1457.53 Q303.082 1461.69 300.224 1463.96 Q297.365 1466.24 292.099 1466.24 Q290.331 1466.24 288.45 1465.88 Q286.588 1465.54 284.594 1464.85 L284.594 1461.18 Q286.174 1462.1 288.055 1462.57 Q289.936 1463.04 291.986 1463.04 Q295.559 1463.04 297.421 1461.63 Q299.302 1460.22 299.302 1457.53 Q299.302 1455.05 297.553 1453.66 Q295.823 1452.25 292.719 1452.25 L289.447 1452.25 L289.447 1449.12 L292.87 1449.12 Q295.672 1449.12 297.158 1448.01 Q298.644 1446.89 298.644 1444.78 Q298.644 1442.62 297.102 1441.47 Q295.578 1440.3 292.719 1440.3 Q291.158 1440.3 289.372 1440.64 Q287.585 1440.98 285.441 1441.69 L285.441 1438.31 Q287.604 1437.71 289.484 1437.41 Q291.384 1437.11 293.058 1437.11 Q297.384 1437.11 299.904 1439.08 Q302.424 1441.04 302.424 1444.38 Q302.424 1446.72 301.089 1448.33 Q299.753 1449.93 297.29 1450.55 Z" fill="#000000" fill-rule="evenodd" fill-opacity="1" /><path clip-path="url(#clip720)" d="M 0 0 M611.49 1489.17 L619.129 1489.17 L619.129 1462.8 L610.819 1464.47 L610.819 1460.21 L619.082 1458.54 L623.758 1458.54 L623.758 1489.17 L631.397 1489.17 L631.397 1493.1 L611.49 1493.1 L611.49 1489.17 Z" fill="#000000" fill-rule="evenodd" fill-opacity="1" /><path clip-path="url(#clip720)" d="M 0 0 M646.467 1461.62 Q642.855 1461.62 641.027 1465.19 Q639.221 1468.73 639.221 1475.86 Q639.221 1482.97 641.027 1486.53 Q642.855 1490.07 646.467 1490.07 Q650.101 1490.07 651.906 1486.53 Q653.735 1482.97 653.735 1475.86 Q653.735 1468.73 651.906 1465.19 Q650.101 1461.62 646.467 1461.62 M646.467 1457.92 Q652.277 1457.92 655.332 1462.53 Q658.411 1467.11 658.411 1475.86 Q658.411 1484.59 655.332 1489.19 Q652.277 1493.78 646.467 1493.78 Q640.656 1493.78 637.578 1489.19 Q634.522 1484.59 634.522 1475.86 Q634.522 1467.11 637.578 1462.53 Q640.656 1457.92 646.467 1457.92 Z" fill="#000000" fill-rule="evenodd" fill-opacity="1" /><path clip-path="url(#clip720)" d="M 0 0 M658.411 1452.02 L682.522 1452.02 L682.522 1455.22 L658.411 1455.22 L658.411 1452.02 Z" fill="#000000" fill-rule="evenodd" fill-opacity="1" /><path clip-path="url(#clip720)" d="M 0 0 M694.766 1440.11 Q691.832 1440.11 690.346 1443.01 Q688.879 1445.89 688.879 1451.68 Q688.879 1457.46 690.346 1460.35 Q691.832 1463.23 694.766 1463.23 Q697.719 1463.23 699.186 1460.35 Q700.672 1457.46 700.672 1451.68 Q700.672 1445.89 699.186 1443.01 Q697.719 1440.11 694.766 1440.11 M694.766 1437.11 Q699.487 1437.11 701.97 1440.85 Q704.471 1444.57 704.471 1451.68 Q704.471 1458.77 701.97 1462.51 Q699.487 1466.24 694.766 1466.24 Q690.046 1466.24 687.544 1462.51 Q685.062 1458.77 685.062 1451.68 Q685.062 1444.57 687.544 1440.85 Q690.046 1437.11 694.766 1437.11 Z" fill="#000000" fill-rule="evenodd" fill-opacity="1" /><path clip-path="url(#clip720)" d="M 0 0 M708.59 1460.92 L712.558 1460.92 L712.558 1465.69 L708.59 1465.69 L708.59 1460.92 Z" fill="#000000" fill-rule="evenodd" fill-opacity="1" /><path clip-path="url(#clip720)" d="M 0 0 M719.95 1462.5 L733.209 1462.5 L733.209 1465.69 L715.38 1465.69 L715.38 1462.5 Q717.543 1460.26 721.266 1456.5 Q725.009 1452.72 725.968 1451.63 Q727.793 1449.58 728.507 1448.16 Q729.241 1446.74 729.241 1445.36 Q729.241 1443.12 727.661 1441.71 Q726.1 1440.3 723.58 1440.3 Q721.793 1440.3 719.799 1440.92 Q717.825 1441.54 715.568 1442.8 L715.568 1438.97 Q717.862 1438.05 719.856 1437.58 Q721.85 1437.11 723.505 1437.11 Q727.868 1437.11 730.463 1439.29 Q733.059 1441.47 733.059 1445.12 Q733.059 1446.85 732.401 1448.41 Q731.761 1449.95 730.05 1452.06 Q729.579 1452.6 727.059 1455.22 Q724.539 1457.81 719.95 1462.5 Z" fill="#000000" fill-rule="evenodd" fill-opacity="1" /><path clip-path="url(#clip720)" d="M 0 0 M1041.85 1489.17 L1049.49 1489.17 L1049.49 1462.8 L1041.18 1464.47 L1041.18 1460.21 L1049.44 1458.54 L1054.12 1458.54 L1054.12 1489.17 L1061.76 1489.17 L1061.76 1493.1 L1041.85 1493.1 L1041.85 1489.17 Z" fill="#000000" fill-rule="evenodd" fill-opacity="1" /><path clip-path="url(#clip720)" d="M 0 0 M1076.83 1461.62 Q1073.22 1461.62 1071.39 1465.19 Q1069.58 1468.73 1069.58 1475.86 Q1069.58 1482.97 1071.39 1486.53 Q1073.22 1490.07 1076.83 1490.07 Q1080.46 1490.07 1082.27 1486.53 Q1084.1 1482.97 1084.1 1475.86 Q1084.1 1468.73 1082.27 1465.19 Q1080.46 1461.62 1076.83 1461.62 M1076.83 1457.92 Q1082.64 1457.92 1085.69 1462.53 Q1088.77 1467.11 1088.77 1475.86 Q1088.77 1484.59 1085.69 1489.19 Q1082.64 1493.78 1076.83 1493.78 Q1071.02 1493.78 1067.94 1489.19 Q1064.88 1484.59 1064.88 1475.86 Q1064.88 1467.11 1067.94 1462.53 Q1071.02 1457.92 1076.83 1457.92 Z" fill="#000000" fill-rule="evenodd" fill-opacity="1" /><path clip-path="url(#clip720)" d="M 0 0 M1088.77 1452.02 L1112.88 1452.02 L1112.88 1455.22 L1088.77 1455.22 L1088.77 1452.02 Z" fill="#000000" fill-rule="evenodd" fill-opacity="1" /><path clip-path="url(#clip720)" d="M 0 0 M1125.13 1440.11 Q1122.19 1440.11 1120.71 1443.01 Q1119.24 1445.89 1119.24 1451.68 Q1119.24 1457.46 1120.71 1460.35 Q1122.19 1463.23 1125.13 1463.23 Q1128.08 1463.23 1129.55 1460.35 Q1131.03 1457.46 1131.03 1451.68 Q1131.03 1445.89 1129.55 1443.01 Q1128.08 1440.11 1125.13 1440.11 M1125.13 1437.11 Q1129.85 1437.11 1132.33 1440.85 Q1134.83 1444.57 1134.83 1451.68 Q1134.83 1458.77 1132.33 1462.51 Q1129.85 1466.24 1125.13 1466.24 Q1120.41 1466.24 1117.91 1462.51 Q1115.42 1458.77 1115.42 1451.68 Q1115.42 1444.57 1117.91 1440.85 Q1120.41 1437.11 1125.13 1437.11 Z" fill="#000000" fill-rule="evenodd" fill-opacity="1" /><path clip-path="url(#clip720)" d="M 0 0 M1138.95 1460.92 L1142.92 1460.92 L1142.92 1465.69 L1138.95 1465.69 L1138.95 1460.92 Z" fill="#000000" fill-rule="evenodd" fill-opacity="1" /><path clip-path="url(#clip720)" d="M 0 0 M1147.7 1462.5 L1153.9 1462.5 L1153.9 1441.07 L1147.15 1442.43 L1147.15 1438.97 L1153.87 1437.61 L1157.67 1437.61 L1157.67 1462.5 L1163.87 1462.5 L1163.87 1465.69 L1147.7 1465.69 L1147.7 1462.5 Z" fill="#000000" fill-rule="evenodd" fill-opacity="1" /><path clip-path="url(#clip720)" d="M 0 0 M1485.19 1489.17 L1492.83 1489.17 L1492.83 1462.8 L1484.52 1464.47 L1484.52 1460.21 L1492.78 1458.54 L1497.46 1458.54 L1497.46 1489.17 L1505.1 1489.17 L1505.1 1493.1 L1485.19 1493.1 L1485.19 1489.17 Z" fill="#000000" fill-rule="evenodd" fill-opacity="1" /><path clip-path="url(#clip720)" d="M 0 0 M1520.17 1461.62 Q1516.56 1461.62 1514.73 1465.19 Q1512.92 1468.73 1512.92 1475.86 Q1512.92 1482.97 1514.73 1486.53 Q1516.56 1490.07 1520.17 1490.07 Q1523.8 1490.07 1525.61 1486.53 Q1527.44 1482.97 1527.44 1475.86 Q1527.44 1468.73 1525.61 1465.19 Q1523.8 1461.62 1520.17 1461.62 M1520.17 1457.92 Q1525.98 1457.92 1529.03 1462.53 Q1532.11 1467.11 1532.11 1475.86 Q1532.11 1484.59 1529.03 1489.19 Q1525.98 1493.78 1520.17 1493.78 Q1514.36 1493.78 1511.28 1489.19 Q1508.22 1484.59 1508.22 1475.86 Q1508.22 1467.11 1511.28 1462.53 Q1514.36 1457.92 1520.17 1457.92 Z" fill="#000000" fill-rule="evenodd" fill-opacity="1" /><path clip-path="url(#clip720)" d="M 0 0 M1541.82 1440.11 Q1538.88 1440.11 1537.4 1443.01 Q1535.93 1445.89 1535.93 1451.68 Q1535.93 1457.46 1537.4 1460.35 Q1538.88 1463.23 1541.82 1463.23 Q1544.77 1463.23 1546.24 1460.35 Q1547.72 1457.46 1547.72 1451.68 Q1547.72 1445.89 1546.24 1443.01 Q1544.77 1440.11 1541.82 1440.11 M1541.82 1437.11 Q1546.54 1437.11 1549.02 1440.85 Q1551.52 1444.57 1551.52 1451.68 Q1551.52 1458.77 1549.02 1462.51 Q1546.54 1466.24 1541.82 1466.24 Q1537.1 1466.24 1534.59 1462.51 Q1532.11 1458.77 1532.11 1451.68 Q1532.11 1444.57 1534.59 1440.85 Q1537.1 1437.11 1541.82 1437.11 Z" fill="#000000" fill-rule="evenodd" fill-opacity="1" /><path clip-path="url(#clip720)" d="M 0 0 M1555.64 1460.92 L1559.61 1460.92 L1559.61 1465.69 L1555.64 1465.69 L1555.64 1460.92 Z" fill="#000000" fill-rule="evenodd" fill-opacity="1" /><path clip-path="url(#clip720)" d="M 0 0 M1571.85 1440.11 Q1568.92 1440.11 1567.43 1443.01 Q1565.97 1445.89 1565.97 1451.68 Q1565.97 1457.46 1567.43 1460.35 Q1568.92 1463.23 1571.85 1463.23 Q1574.81 1463.23 1576.27 1460.35 Q1577.76 1457.46 1577.76 1451.68 Q1577.76 1445.89 1576.27 1443.01 Q1574.81 1440.11 1571.85 1440.11 M1571.85 1437.11 Q1576.57 1437.11 1579.06 1440.85 Q1581.56 1444.57 1581.56 1451.68 Q1581.56 1458.77 1579.06 1462.51 Q1576.57 1466.24 1571.85 1466.24 Q1567.13 1466.24 1564.63 1462.51 Q1562.15 1458.77 1562.15 1451.68 Q1562.15 1444.57 1564.63 1440.85 Q1567.13 1437.11 1571.85 1437.11 Z" fill="#000000" fill-rule="evenodd" fill-opacity="1" /><path clip-path="url(#clip720)" d="M 0 0 M1916.2 1489.17 L1923.84 1489.17 L1923.84 1462.8 L1915.53 1464.47 L1915.53 1460.21 L1923.79 1458.54 L1928.47 1458.54 L1928.47 1489.17 L1936.11 1489.17 L1936.11 1493.1 L1916.2 1493.1 L1916.2 1489.17 Z" fill="#000000" fill-rule="evenodd" fill-opacity="1" /><path clip-path="url(#clip720)" d="M 0 0 M1951.18 1461.62 Q1947.57 1461.62 1945.74 1465.19 Q1943.93 1468.73 1943.93 1475.86 Q1943.93 1482.97 1945.74 1486.53 Q1947.57 1490.07 1951.18 1490.07 Q1954.81 1490.07 1956.62 1486.53 Q1958.45 1482.97 1958.45 1475.86 Q1958.45 1468.73 1956.62 1465.19 Q1954.81 1461.62 1951.18 1461.62 M1951.18 1457.92 Q1956.99 1457.92 1960.04 1462.53 Q1963.12 1467.11 1963.12 1475.86 Q1963.12 1484.59 1960.04 1489.19 Q1956.99 1493.78 1951.18 1493.78 Q1945.37 1493.78 1942.29 1489.19 Q1939.23 1484.59 1939.23 1475.86 Q1939.23 1467.11 1942.29 1462.53 Q1945.37 1457.92 1951.18 1457.92 Z" fill="#000000" fill-rule="evenodd" fill-opacity="1" /><path clip-path="url(#clip720)" d="M 0 0 M1972.83 1440.11 Q1969.89 1440.11 1968.41 1443.01 Q1966.94 1445.89 1966.94 1451.68 Q1966.94 1457.46 1968.41 1460.35 Q1969.89 1463.23 1972.83 1463.23 Q1975.78 1463.23 1977.25 1460.35 Q1978.73 1457.46 1978.73 1451.68 Q1978.73 1445.89 1977.25 1443.01 Q1975.78 1440.11 1972.83 1440.11 M1972.83 1437.11 Q1977.55 1437.11 1980.03 1440.85 Q1982.53 1444.57 1982.53 1451.68 Q1982.53 1458.77 1980.03 1462.51 Q1977.55 1466.24 1972.83 1466.24 Q1968.11 1466.24 1965.61 1462.51 Q1963.12 1458.77 1963.12 1451.68 Q1963.12 1444.57 1965.61 1440.85 Q1968.11 1437.11 1972.83 1437.11 Z" fill="#000000" fill-rule="evenodd" fill-opacity="1" /><path clip-path="url(#clip720)" d="M 0 0 M1986.65 1460.92 L1990.62 1460.92 L1990.62 1465.69 L1986.65 1465.69 L1986.65 1460.92 Z" fill="#000000" fill-rule="evenodd" fill-opacity="1" /><path clip-path="url(#clip720)" d="M 0 0 M1995.4 1462.5 L2001.6 1462.5 L2001.6 1441.07 L1994.85 1442.43 L1994.85 1438.97 L2001.57 1437.61 L2005.37 1437.61 L2005.37 1462.5 L2011.57 1462.5 L2011.57 1465.69 L1995.4 1465.69 L1995.4 1462.5 Z" fill="#000000" fill-rule="evenodd" fill-opacity="1" /><path clip-path="url(#clip720)" d="M 0 0 M1269.3 1545.6 L1267.9 1538.25 Q1266.47 1530.71 1260.81 1530.71 Q1256.54 1530.71 1254.6 1534.21 Q1252.15 1538.6 1252.15 1544.39 Q1252.15 1551.4 1254.54 1554.74 Q1256.96 1558.14 1260.81 1558.14 Q1265.07 1558.14 1267.36 1551.36 L1269.3 1545.6 M1272.58 1535.86 L1275.73 1526.54 L1280.95 1526.54 L1274.43 1545.86 L1275.7 1552.83 Q1275.99 1554.39 1277.1 1555.69 Q1278.41 1557.22 1279.43 1557.22 L1282.23 1557.22 L1282.23 1562.19 L1278.73 1562.19 Q1275.73 1562.19 1273.06 1559.51 Q1271.76 1558.18 1271.21 1555.37 Q1269.75 1558.91 1266.76 1561.68 Q1265.36 1562.98 1260.81 1562.98 Q1253.33 1562.98 1249.7 1558.14 Q1245.97 1553.15 1245.97 1544.39 Q1245.97 1535.04 1250.02 1530.64 Q1254.5 1525.74 1260.81 1525.74 Q1270.7 1525.74 1272.58 1535.86 Z" fill="#000000" fill-rule="evenodd" fill-opacity="1" /><polyline clip-path="url(#clip722)" style="stroke:#000000; stroke-width:2; stroke-opacity:0.1; fill:none" points="
  175.445,1247.25 2352.76,1247.25 
  "/>
<polyline clip-path="url(#clip722)" style="stroke:#000000; stroke-width:2; stroke-opacity:0.1; fill:none" points="
  175.445,941.319 2352.76,941.319 
  "/>
<polyline clip-path="url(#clip722)" style="stroke:#000000; stroke-width:2; stroke-opacity:0.1; fill:none" points="
  175.445,635.393 2352.76,635.393 
  "/>
<polyline clip-path="url(#clip722)" style="stroke:#000000; stroke-width:2; stroke-opacity:0.1; fill:none" points="
  175.445,329.466 2352.76,329.466 
  "/>
<polyline clip-path="url(#clip720)" style="stroke:#000000; stroke-width:4; stroke-opacity:1; fill:none" points="
  175.445,1410.9 175.445,47.2441 
  "/>
<polyline clip-path="url(#clip720)" style="stroke:#000000; stroke-width:4; stroke-opacity:1; fill:none" points="
  175.445,1247.25 201.573,1247.25 
  "/>
<polyline clip-path="url(#clip720)" style="stroke:#000000; stroke-width:4; stroke-opacity:1; fill:none" points="
  175.445,941.319 201.573,941.319 
  "/>
<polyline clip-path="url(#clip720)" style="stroke:#000000; stroke-width:4; stroke-opacity:1; fill:none" points="
  175.445,635.393 201.573,635.393 
  "/>
<polyline clip-path="url(#clip720)" style="stroke:#000000; stroke-width:4; stroke-opacity:1; fill:none" points="
  175.445,329.466 201.573,329.466 
  "/>
<path clip-path="url(#clip720)" d="M 0 0 M123.126 1260.59 L139.445 1260.59 L139.445 1264.53 L117.501 1264.53 L117.501 1260.59 Q120.163 1257.84 124.746 1253.21 Q129.353 1248.55 130.533 1247.21 Q132.779 1244.69 133.658 1242.95 Q134.561 1241.19 134.561 1239.5 Q134.561 1236.75 132.617 1235.01 Q130.695 1233.28 127.593 1233.28 Q125.394 1233.28 122.941 1234.04 Q120.51 1234.8 117.732 1236.35 L117.732 1231.63 Q120.556 1230.5 123.01 1229.92 Q125.464 1229.34 127.501 1229.34 Q132.871 1229.34 136.066 1232.03 Q139.26 1234.71 139.26 1239.2 Q139.26 1241.33 138.45 1243.25 Q137.663 1245.15 135.556 1247.74 Q134.978 1248.41 131.876 1251.63 Q128.774 1254.83 123.126 1260.59 Z" fill="#000000" fill-rule="evenodd" fill-opacity="1" /><path clip-path="url(#clip720)" d="M 0 0 M129.862 928.113 L118.056 946.562 L129.862 946.562 L129.862 928.113 M128.635 924.039 L134.515 924.039 L134.515 946.562 L139.445 946.562 L139.445 950.451 L134.515 950.451 L134.515 958.599 L129.862 958.599 L129.862 950.451 L114.26 950.451 L114.26 945.937 L128.635 924.039 Z" fill="#000000" fill-rule="evenodd" fill-opacity="1" /><path clip-path="url(#clip720)" d="M 0 0 M127.917 633.529 Q124.769 633.529 122.918 635.682 Q121.089 637.835 121.089 641.585 Q121.089 645.311 122.918 647.487 Q124.769 649.64 127.917 649.64 Q131.066 649.64 132.894 647.487 Q134.746 645.311 134.746 641.585 Q134.746 637.835 132.894 635.682 Q131.066 633.529 127.917 633.529 M137.2 618.876 L137.2 623.136 Q135.441 622.302 133.635 621.863 Q131.853 621.423 130.093 621.423 Q125.464 621.423 123.01 624.548 Q120.58 627.673 120.232 633.992 Q121.598 631.978 123.658 630.913 Q125.718 629.825 128.195 629.825 Q133.404 629.825 136.413 632.997 Q139.445 636.145 139.445 641.585 Q139.445 646.909 136.297 650.126 Q133.149 653.344 127.917 653.344 Q121.922 653.344 118.751 648.761 Q115.58 644.154 115.58 635.427 Q115.58 627.233 119.468 622.372 Q123.357 617.488 129.908 617.488 Q131.667 617.488 133.45 617.835 Q135.255 618.182 137.2 618.876 Z" fill="#000000" fill-rule="evenodd" fill-opacity="1" /><path clip-path="url(#clip720)" d="M 0 0 M127.593 330.334 Q124.26 330.334 122.339 332.117 Q120.441 333.899 120.441 337.024 Q120.441 340.149 122.339 341.931 Q124.26 343.714 127.593 343.714 Q130.927 343.714 132.848 341.931 Q134.769 340.126 134.769 337.024 Q134.769 333.899 132.848 332.117 Q130.95 330.334 127.593 330.334 M122.918 328.343 Q119.908 327.603 118.218 325.543 Q116.552 323.482 116.552 320.519 Q116.552 316.376 119.492 313.969 Q122.455 311.561 127.593 311.561 Q132.755 311.561 135.695 313.969 Q138.635 316.376 138.635 320.519 Q138.635 323.482 136.945 325.543 Q135.279 327.603 132.292 328.343 Q135.672 329.131 137.547 331.422 Q139.445 333.714 139.445 337.024 Q139.445 342.047 136.367 344.732 Q133.311 347.417 127.593 347.417 Q121.876 347.417 118.797 344.732 Q115.742 342.047 115.742 337.024 Q115.742 333.714 117.64 331.422 Q119.538 329.131 122.918 328.343 M121.205 320.959 Q121.205 323.644 122.871 325.149 Q124.561 326.654 127.593 326.654 Q130.603 326.654 132.292 325.149 Q134.005 323.644 134.005 320.959 Q134.005 318.274 132.292 316.769 Q130.603 315.265 127.593 315.265 Q124.561 315.265 122.871 316.769 Q121.205 318.274 121.205 320.959 Z" fill="#000000" fill-rule="evenodd" fill-opacity="1" /><path clip-path="url(#clip720)" d="M 0 0 M59.1993 815.533 Q55.2526 813.336 53.3747 810.281 Q51.4968 807.225 51.4968 803.088 Q51.4968 797.518 55.4117 794.494 Q59.2948 791.47 66.4881 791.47 L88.0042 791.47 L88.0042 797.358 L66.679 797.358 Q61.5546 797.358 59.072 799.173 Q56.5894 800.987 56.5894 804.711 Q56.5894 809.262 59.6131 811.904 Q62.6368 814.546 67.8567 814.546 L88.0042 814.546 L88.0042 820.434 L66.679 820.434 Q61.5228 820.434 59.072 822.248 Q56.5894 824.063 56.5894 827.85 Q56.5894 832.338 59.6449 834.98 Q62.6686 837.622 67.8567 837.622 L88.0042 837.622 L88.0042 843.51 L52.3562 843.51 L52.3562 837.622 L57.8944 837.622 Q54.616 835.616 53.0564 832.815 Q51.4968 830.015 51.4968 826.163 Q51.4968 822.28 53.4702 819.575 Q55.4436 816.838 59.1993 815.533 Z" fill="#000000" fill-rule="evenodd" fill-opacity="1" /><path clip-path="url(#clip720)" d="M 0 0 M52.3562 785.327 L52.3562 779.471 L88.0042 779.471 L88.0042 785.327 L52.3562 785.327 M38.479 785.327 L38.479 779.471 L45.895 779.471 L45.895 785.327 L38.479 785.327 Z" fill="#000000" fill-rule="evenodd" fill-opacity="1" /><path clip-path="url(#clip720)" d="M 0 0 M66.4881 743.696 L88.0042 743.696 L88.0042 749.552 L66.679 749.552 Q61.6183 749.552 59.1038 751.525 Q56.5894 753.499 56.5894 757.446 Q56.5894 762.188 59.6131 764.925 Q62.6368 767.662 67.8567 767.662 L88.0042 767.662 L88.0042 773.551 L52.3562 773.551 L52.3562 767.662 L57.8944 767.662 Q54.6797 765.562 53.0883 762.729 Q51.4968 759.864 51.4968 756.141 Q51.4968 749.998 55.3163 746.847 Q59.1038 743.696 66.4881 743.696 Z" fill="#000000" fill-rule="evenodd" fill-opacity="1" /><path clip-path="url(#clip720)" d="M 0 0 M98.8259 710.467 L103.377 710.467 L103.377 744.332 L98.8259 744.332 L98.8259 710.467 Z" fill="#000000" fill-rule="evenodd" fill-opacity="1" /><path clip-path="url(#clip720)" d="M 0 0 M57.7671 680.866 L38.479 680.866 L38.479 675.01 L88.0042 675.01 L88.0042 680.866 L82.657 680.866 Q85.8398 682.712 87.3994 685.545 Q88.9272 688.346 88.9272 692.292 Q88.9272 698.754 83.771 702.828 Q78.6147 706.87 70.212 706.87 Q61.8093 706.87 56.6531 702.828 Q51.4968 698.754 51.4968 692.292 Q51.4968 688.346 53.0564 685.545 Q54.5842 682.712 57.7671 680.866 M70.212 700.823 Q76.6732 700.823 80.3653 698.181 Q84.0256 695.507 84.0256 690.86 Q84.0256 686.213 80.3653 683.54 Q76.6732 680.866 70.212 680.866 Q63.7508 680.866 60.0905 683.54 Q56.3984 686.213 56.3984 690.86 Q56.3984 695.507 60.0905 698.181 Q63.7508 700.823 70.212 700.823 Z" fill="#000000" fill-rule="evenodd" fill-opacity="1" /><path clip-path="url(#clip720)" d="M 0 0 M52.3562 668.867 L52.3562 663.01 L88.0042 663.01 L88.0042 668.867 L52.3562 668.867 M38.479 668.867 L38.479 663.01 L45.895 663.01 L45.895 668.867 L38.479 668.867 Z" fill="#000000" fill-rule="evenodd" fill-opacity="1" /><path clip-path="url(#clip720)" d="M 0 0 M38.479 638.821 L43.3487 638.821 L43.3487 644.422 Q43.3487 647.573 44.6219 648.815 Q45.895 650.024 49.2052 650.024 L52.3562 650.024 L52.3562 640.38 L56.9077 640.38 L56.9077 650.024 L88.0042 650.024 L88.0042 655.912 L56.9077 655.912 L56.9077 661.514 L52.3562 661.514 L52.3562 655.912 L49.8736 655.912 Q43.9216 655.912 41.2162 653.143 Q38.479 650.374 38.479 644.359 L38.479 638.821 Z" fill="#000000" fill-rule="evenodd" fill-opacity="1" /><path clip-path="url(#clip720)" d="M 0 0 M38.479 614.631 L43.3487 614.631 L43.3487 620.233 Q43.3487 623.384 44.6219 624.625 Q45.895 625.835 49.2052 625.835 L52.3562 625.835 L52.3562 616.19 L56.9077 616.19 L56.9077 625.835 L88.0042 625.835 L88.0042 631.723 L56.9077 631.723 L56.9077 637.325 L52.3562 637.325 L52.3562 631.723 L49.8736 631.723 Q43.9216 631.723 41.2162 628.954 Q38.479 626.185 38.479 620.169 L38.479 614.631 Z" fill="#000000" fill-rule="evenodd" fill-opacity="1" /><polyline clip-path="url(#clip722)" style="stroke:#009af9; stroke-width:20; stroke-opacity:1; fill:none" stroke-dasharray="80, 50" points="
  237.067,85.838 577.952,837.98 866.167,1111.18 1115.83,1315.09 1336.05,1372.3 1533.04,1306.95 1711.24,1165.47 1873.92,977.423 2023.58,780.371 2162.14,660.85 
  2291.13,525.027 
  "/>
<path clip-path="url(#clip720)" d="
M1987.24 213.659 L2280.18 213.659 L2280.18 92.6992 L1987.24 92.6992  Z
  " fill="#ffffff" fill-rule="evenodd" fill-opacity="1"/>
<polyline clip-path="url(#clip720)" style="stroke:#000000; stroke-width:4; stroke-opacity:1; fill:none" points="
  1987.24,213.659 2280.18,213.659 2280.18,92.6992 1987.24,92.6992 1987.24,213.659 
  "/>
<polyline clip-path="url(#clip720)" style="stroke:#009af9; stroke-width:4; stroke-opacity:1; fill:none" stroke-dasharray="16, 10" points="
  2011.43,153.179 2156.58,153.179 
  "/>
<path clip-path="url(#clip720)" d="M 0 0 M2194.62 172.867 Q2192.81 177.496 2191.1 178.908 Q2189.39 180.32 2186.52 180.32 L2183.11 180.32 L2183.11 176.755 L2185.61 176.755 Q2187.37 176.755 2188.35 175.922 Q2189.32 175.089 2190.5 171.987 L2191.26 170.043 L2180.78 144.533 L2185.29 144.533 L2193.39 164.811 L2201.49 144.533 L2206.01 144.533 L2194.62 172.867 Z" fill="#000000" fill-rule="evenodd" fill-opacity="1" /><path clip-path="url(#clip720)" d="M 0 0 M2211.89 166.524 L2219.53 166.524 L2219.53 140.158 L2211.22 141.825 L2211.22 137.566 L2219.48 135.899 L2224.16 135.899 L2224.16 166.524 L2231.79 166.524 L2231.79 170.459 L2211.89 170.459 L2211.89 166.524 Z" fill="#000000" fill-rule="evenodd" fill-opacity="1" /></svg>
