<?xml version="1.0" encoding="utf-8"?>
<svg xmlns="http://www.w3.org/2000/svg" xmlns:xlink="http://www.w3.org/1999/xlink" width="600" height="400" viewBox="0 0 2400 1600">
<defs>
  <clipPath id="clip640">
    <rect x="0" y="0" width="2400" height="1600"/>
  </clipPath>
</defs>
<path clip-path="url(#clip640)" d="
M0 1600 L2400 1600 L2400 0 L0 0  Z
  " fill="#ffffff" fill-rule="evenodd" fill-opacity="1"/>
<defs>
  <clipPath id="clip641">
    <rect x="480" y="0" width="1681" height="1600"/>
  </clipPath>
</defs>
<path clip-path="url(#clip640)" d="
M260.607 1410.9 L2352.76 1410.9 L2352.76 47.2441 L260.607 47.2441  Z
  " fill="#ffffff" fill-rule="evenodd" fill-opacity="1"/>
<defs>
  <clipPath id="clip642">
    <rect x="260" y="47" width="2093" height="1365"/>
  </clipPath>
</defs>
<polyline clip-path="url(#clip642)" style="stroke:#000000; stroke-width:2; stroke-opacity:0.1; fill:none" points="
  319.819,1410.9 319.819,47.2441 
  "/>
<polyline clip-path="url(#clip642)" style="stroke:#000000; stroke-width:2; stroke-opacity:0.1; fill:none" points="
  813.25,1410.9 813.25,47.2441 
  "/>
<polyline clip-path="url(#clip642)" style="stroke:#000000; stroke-width:2; stroke-opacity:0.1; fill:none" points="
  1306.68,1410.9 1306.68,47.2441 
  "/>
<polyline clip-path="url(#clip642)" style="stroke:#000000; stroke-width:2; stroke-opacity:0.1; fill:none" points="
  1800.11,1410.9 1800.11,47.2441 
  "/>
<polyline clip-path="url(#clip642)" style="stroke:#000000; stroke-width:2; stroke-opacity:0.1; fill:none" points="
  2293.54,1410.9 2293.54,47.2441 
  "/>
<polyline clip-path="url(#clip640)" style="stroke:#000000; stroke-width:4; stroke-opacity:1; fill:none" points="
  260.607,1410.9 2352.76,1410.9 
  "/>
<polyline clip-path="url(#clip640)" style="stroke:#000000; stroke-width:4; stroke-opacity:1; fill:none" points="
  319.819,1410.9 319.819,1394.53 
  "/>
<polyline clip-path="url(#clip640)" style="stroke:#000000; stroke-width:4; stroke-opacity:1; fill:none" points="
  813.25,1410.9 813.25,1394.53 
  "/>
<polyline clip-path="url(#clip640)" style="stroke:#000000; stroke-width:4; stroke-opacity:1; fill:none" points="
  1306.68,1410.9 1306.68,1394.53 
  "/>
<polyline clip-path="url(#clip640)" style="stroke:#000000; stroke-width:4; stroke-opacity:1; fill:none" points="
  1800.11,1410.9 1800.11,1394.53 
  "/>
<polyline clip-path="url(#clip640)" style="stroke:#000000; stroke-width:4; stroke-opacity:1; fill:none" points="
  2293.54,1410.9 2293.54,1394.53 
  "/>
<path clip-path="url(#clip640)" d="M 0 0 M247.474 1489.17 L255.113 1489.17 L255.113 1462.8 L246.802 1464.47 L246.802 1460.21 L255.066 1458.54 L259.742 1458.54 L259.742 1489.17 L267.381 1489.17 L267.381 1493.1 L247.474 1493.1 L247.474 1489.17 Z" fill="#000000" fill-rule="evenodd" fill-opacity="1" /><path clip-path="url(#clip640)" d="M 0 0 M282.45 1461.62 Q278.839 1461.62 277.011 1465.19 Q275.205 1468.73 275.205 1475.86 Q275.205 1482.97 277.011 1486.53 Q278.839 1490.07 282.45 1490.07 Q286.085 1490.07 287.89 1486.53 Q289.719 1482.97 289.719 1475.86 Q289.719 1468.73 287.89 1465.19 Q286.085 1461.62 282.45 1461.62 M282.45 1457.92 Q288.261 1457.92 291.316 1462.53 Q294.395 1467.11 294.395 1475.86 Q294.395 1484.59 291.316 1489.19 Q288.261 1493.78 282.45 1493.78 Q276.64 1493.78 273.562 1489.19 Q270.506 1484.59 270.506 1475.86 Q270.506 1467.11 273.562 1462.53 Q276.64 1457.92 282.45 1457.92 Z" fill="#000000" fill-rule="evenodd" fill-opacity="1" /><path clip-path="url(#clip640)" d="M 0 0 M294.395 1452.02 L318.506 1452.02 L318.506 1455.22 L294.395 1455.22 L294.395 1452.02 Z" fill="#000000" fill-rule="evenodd" fill-opacity="1" /><path clip-path="url(#clip640)" d="M 0 0 M333.064 1440.92 L323.472 1455.91 L333.064 1455.91 L333.064 1440.92 M332.067 1437.61 L336.844 1437.61 L336.844 1455.91 L340.85 1455.91 L340.85 1459.07 L336.844 1459.07 L336.844 1465.69 L333.064 1465.69 L333.064 1459.07 L320.387 1459.07 L320.387 1455.41 L332.067 1437.61 Z" fill="#000000" fill-rule="evenodd" fill-opacity="1" /><path clip-path="url(#clip640)" d="M 0 0 M344.969 1460.92 L348.937 1460.92 L348.937 1465.69 L344.969 1465.69 L344.969 1460.92 Z" fill="#000000" fill-rule="evenodd" fill-opacity="1" /><path clip-path="url(#clip640)" d="M 0 0 M361.181 1440.11 Q358.247 1440.11 356.761 1443.01 Q355.294 1445.89 355.294 1451.68 Q355.294 1457.46 356.761 1460.35 Q358.247 1463.23 361.181 1463.23 Q364.134 1463.23 365.601 1460.35 Q367.087 1457.46 367.087 1451.68 Q367.087 1445.89 365.601 1443.01 Q364.134 1440.11 361.181 1440.11 M361.181 1437.11 Q365.902 1437.11 368.385 1440.85 Q370.886 1444.57 370.886 1451.68 Q370.886 1458.77 368.385 1462.51 Q365.902 1466.24 361.181 1466.24 Q356.46 1466.24 353.959 1462.51 Q351.476 1458.77 351.476 1451.68 Q351.476 1444.57 353.959 1440.85 Q356.46 1437.11 361.181 1437.11 Z" fill="#000000" fill-rule="evenodd" fill-opacity="1" /><path clip-path="url(#clip640)" d="M 0 0 M383.13 1440.11 Q380.196 1440.11 378.71 1443.01 Q377.243 1445.89 377.243 1451.68 Q377.243 1457.46 378.71 1460.35 Q380.196 1463.23 383.13 1463.23 Q386.083 1463.23 387.55 1460.35 Q389.035 1457.46 389.035 1451.68 Q389.035 1445.89 387.55 1443.01 Q386.083 1440.11 383.13 1440.11 M383.13 1437.11 Q387.851 1437.11 390.333 1440.85 Q392.835 1444.57 392.835 1451.68 Q392.835 1458.77 390.333 1462.51 Q387.851 1466.24 383.13 1466.24 Q378.409 1466.24 375.908 1462.51 Q373.425 1458.77 373.425 1451.68 Q373.425 1444.57 375.908 1440.85 Q378.409 1437.11 383.13 1437.11 Z" fill="#000000" fill-rule="evenodd" fill-opacity="1" /><path clip-path="url(#clip640)" d="M 0 0 M742.137 1489.17 L749.776 1489.17 L749.776 1462.8 L741.466 1464.47 L741.466 1460.21 L749.73 1458.54 L754.406 1458.54 L754.406 1489.17 L762.044 1489.17 L762.044 1493.1 L742.137 1493.1 L742.137 1489.17 Z" fill="#000000" fill-rule="evenodd" fill-opacity="1" /><path clip-path="url(#clip640)" d="M 0 0 M777.114 1461.62 Q773.503 1461.62 771.674 1465.19 Q769.868 1468.73 769.868 1475.86 Q769.868 1482.97 771.674 1486.53 Q773.503 1490.07 777.114 1490.07 Q780.748 1490.07 782.554 1486.53 Q784.382 1482.97 784.382 1475.86 Q784.382 1468.73 782.554 1465.19 Q780.748 1461.62 777.114 1461.62 M777.114 1457.92 Q782.924 1457.92 785.979 1462.53 Q789.058 1467.11 789.058 1475.86 Q789.058 1484.59 785.979 1489.19 Q782.924 1493.78 777.114 1493.78 Q771.304 1493.78 768.225 1489.19 Q765.169 1484.59 765.169 1475.86 Q765.169 1467.11 768.225 1462.53 Q771.304 1457.92 777.114 1457.92 Z" fill="#000000" fill-rule="evenodd" fill-opacity="1" /><path clip-path="url(#clip640)" d="M 0 0 M789.058 1452.02 L813.17 1452.02 L813.17 1455.22 L789.058 1455.22 L789.058 1452.02 Z" fill="#000000" fill-rule="evenodd" fill-opacity="1" /><path clip-path="url(#clip640)" d="M 0 0 M828.799 1450.55 Q831.526 1451.14 833.049 1452.98 Q834.592 1454.82 834.592 1457.53 Q834.592 1461.69 831.733 1463.96 Q828.874 1466.24 823.608 1466.24 Q821.84 1466.24 819.959 1465.88 Q818.097 1465.54 816.104 1464.85 L816.104 1461.18 Q817.684 1462.1 819.564 1462.57 Q821.445 1463.04 823.495 1463.04 Q827.069 1463.04 828.931 1461.63 Q830.811 1460.22 830.811 1457.53 Q830.811 1455.05 829.062 1453.66 Q827.332 1452.25 824.229 1452.25 L820.956 1452.25 L820.956 1449.12 L824.379 1449.12 Q827.181 1449.12 828.667 1448.01 Q830.153 1446.89 830.153 1444.78 Q830.153 1442.62 828.611 1441.47 Q827.087 1440.3 824.229 1440.3 Q822.668 1440.3 820.881 1440.64 Q819.094 1440.98 816.95 1441.69 L816.95 1438.31 Q819.113 1437.71 820.994 1437.41 Q822.893 1437.11 824.567 1437.11 Q828.893 1437.11 831.413 1439.08 Q833.933 1441.04 833.933 1444.38 Q833.933 1446.72 832.598 1448.33 Q831.263 1449.93 828.799 1450.55 Z" fill="#000000" fill-rule="evenodd" fill-opacity="1" /><path clip-path="url(#clip640)" d="M 0 0 M838.711 1460.92 L842.679 1460.92 L842.679 1465.69 L838.711 1465.69 L838.711 1460.92 Z" fill="#000000" fill-rule="evenodd" fill-opacity="1" /><path clip-path="url(#clip640)" d="M 0 0 M845.839 1437.61 L863.894 1437.61 L863.894 1439.23 L853.7 1465.69 L849.732 1465.69 L859.324 1440.81 L845.839 1440.81 L845.839 1437.61 Z" fill="#000000" fill-rule="evenodd" fill-opacity="1" /><path clip-path="url(#clip640)" d="M 0 0 M868.051 1437.61 L882.965 1437.61 L882.965 1440.81 L871.53 1440.81 L871.53 1447.69 Q872.358 1447.41 873.185 1447.28 Q874.013 1447.13 874.84 1447.13 Q879.542 1447.13 882.288 1449.71 Q885.034 1452.28 885.034 1456.68 Q885.034 1461.22 882.213 1463.74 Q879.392 1466.24 874.257 1466.24 Q872.489 1466.24 870.646 1465.94 Q868.822 1465.64 866.866 1465.04 L866.866 1461.22 Q868.559 1462.14 870.364 1462.59 Q872.17 1463.04 874.182 1463.04 Q877.436 1463.04 879.335 1461.33 Q881.235 1459.62 881.235 1456.68 Q881.235 1453.75 879.335 1452.04 Q877.436 1450.33 874.182 1450.33 Q872.659 1450.33 871.135 1450.67 Q869.631 1451 868.051 1451.72 L868.051 1437.61 Z" fill="#000000" fill-rule="evenodd" fill-opacity="1" /><path clip-path="url(#clip640)" d="M 0 0 M1235.2 1489.17 L1242.84 1489.17 L1242.84 1462.8 L1234.53 1464.47 L1234.53 1460.21 L1242.79 1458.54 L1247.47 1458.54 L1247.47 1489.17 L1255.11 1489.17 L1255.11 1493.1 L1235.2 1493.1 L1235.2 1489.17 Z" fill="#000000" fill-rule="evenodd" fill-opacity="1" /><path clip-path="url(#clip640)" d="M 0 0 M1270.18 1461.62 Q1266.57 1461.62 1264.74 1465.19 Q1262.93 1468.73 1262.93 1475.86 Q1262.93 1482.97 1264.74 1486.53 Q1266.57 1490.07 1270.18 1490.07 Q1273.81 1490.07 1275.62 1486.53 Q1277.45 1482.97 1277.45 1475.86 Q1277.45 1468.73 1275.62 1465.19 Q1273.81 1461.62 1270.18 1461.62 M1270.18 1457.92 Q1275.99 1457.92 1279.04 1462.53 Q1282.12 1467.11 1282.12 1475.86 Q1282.12 1484.59 1279.04 1489.19 Q1275.99 1493.78 1270.18 1493.78 Q1264.37 1493.78 1261.29 1489.19 Q1258.23 1484.59 1258.23 1475.86 Q1258.23 1467.11 1261.29 1462.53 Q1264.37 1457.92 1270.18 1457.92 Z" fill="#000000" fill-rule="evenodd" fill-opacity="1" /><path clip-path="url(#clip640)" d="M 0 0 M1282.12 1452.02 L1306.23 1452.02 L1306.23 1455.22 L1282.12 1455.22 L1282.12 1452.02 Z" fill="#000000" fill-rule="evenodd" fill-opacity="1" /><path clip-path="url(#clip640)" d="M 0 0 M1321.86 1450.55 Q1324.59 1451.14 1326.11 1452.98 Q1327.66 1454.82 1327.66 1457.53 Q1327.66 1461.69 1324.8 1463.96 Q1321.94 1466.24 1316.67 1466.24 Q1314.9 1466.24 1313.02 1465.88 Q1311.16 1465.54 1309.17 1464.85 L1309.17 1461.18 Q1310.75 1462.1 1312.63 1462.57 Q1314.51 1463.04 1316.56 1463.04 Q1320.13 1463.04 1322 1461.63 Q1323.88 1460.22 1323.88 1457.53 Q1323.88 1455.05 1322.13 1453.66 Q1320.4 1452.25 1317.29 1452.25 L1314.02 1452.25 L1314.02 1449.12 L1317.44 1449.12 Q1320.25 1449.12 1321.73 1448.01 Q1323.22 1446.89 1323.22 1444.78 Q1323.22 1442.62 1321.68 1441.47 Q1320.15 1440.3 1317.29 1440.3 Q1315.73 1440.3 1313.95 1440.64 Q1312.16 1440.98 1310.01 1441.69 L1310.01 1438.31 Q1312.18 1437.71 1314.06 1437.41 Q1315.96 1437.11 1317.63 1437.11 Q1321.96 1437.11 1324.48 1439.08 Q1327 1441.04 1327 1444.38 Q1327 1446.72 1325.66 1448.33 Q1324.33 1449.93 1321.86 1450.55 Z" fill="#000000" fill-rule="evenodd" fill-opacity="1" /><path clip-path="url(#clip640)" d="M 0 0 M1331.78 1460.92 L1335.74 1460.92 L1335.74 1465.69 L1331.78 1465.69 L1331.78 1460.92 Z" fill="#000000" fill-rule="evenodd" fill-opacity="1" /><path clip-path="url(#clip640)" d="M 0 0 M1339.9 1437.61 L1354.81 1437.61 L1354.81 1440.81 L1343.38 1440.81 L1343.38 1447.69 Q1344.21 1447.41 1345.03 1447.28 Q1345.86 1447.13 1346.69 1447.13 Q1351.39 1447.13 1354.14 1449.71 Q1356.88 1452.28 1356.88 1456.68 Q1356.88 1461.22 1354.06 1463.74 Q1351.24 1466.24 1346.11 1466.24 Q1344.34 1466.24 1342.5 1465.94 Q1340.67 1465.64 1338.72 1465.04 L1338.72 1461.22 Q1340.41 1462.14 1342.21 1462.59 Q1344.02 1463.04 1346.03 1463.04 Q1349.29 1463.04 1351.18 1461.33 Q1353.08 1459.62 1353.08 1456.68 Q1353.08 1453.75 1351.18 1452.04 Q1349.29 1450.33 1346.03 1450.33 Q1344.51 1450.33 1342.98 1450.67 Q1341.48 1451 1339.9 1451.72 L1339.9 1437.61 Z" fill="#000000" fill-rule="evenodd" fill-opacity="1" /><path clip-path="url(#clip640)" d="M 0 0 M1369.13 1440.11 Q1366.19 1440.11 1364.71 1443.01 Q1363.24 1445.89 1363.24 1451.68 Q1363.24 1457.46 1364.71 1460.35 Q1366.19 1463.23 1369.13 1463.23 Q1372.08 1463.23 1373.55 1460.35 Q1375.03 1457.46 1375.03 1451.68 Q1375.03 1445.89 1373.55 1443.01 Q1372.08 1440.11 1369.13 1440.11 M1369.13 1437.11 Q1373.85 1437.11 1376.33 1440.85 Q1378.83 1444.57 1378.83 1451.68 Q1378.83 1458.77 1376.33 1462.51 Q1373.85 1466.24 1369.13 1466.24 Q1364.41 1466.24 1361.91 1462.51 Q1359.42 1458.77 1359.42 1451.68 Q1359.42 1444.57 1361.91 1440.85 Q1364.41 1437.11 1369.13 1437.11 Z" fill="#000000" fill-rule="evenodd" fill-opacity="1" /><path clip-path="url(#clip640)" d="M 0 0 M1729.28 1489.17 L1736.92 1489.17 L1736.92 1462.8 L1728.61 1464.47 L1728.61 1460.21 L1736.87 1458.54 L1741.55 1458.54 L1741.55 1489.17 L1749.19 1489.17 L1749.19 1493.1 L1729.28 1493.1 L1729.28 1489.17 Z" fill="#000000" fill-rule="evenodd" fill-opacity="1" /><path clip-path="url(#clip640)" d="M 0 0 M1764.26 1461.62 Q1760.65 1461.62 1758.82 1465.19 Q1757.01 1468.73 1757.01 1475.86 Q1757.01 1482.97 1758.82 1486.53 Q1760.65 1490.07 1764.26 1490.07 Q1767.89 1490.07 1769.7 1486.53 Q1771.53 1482.97 1771.53 1475.86 Q1771.53 1468.73 1769.7 1465.19 Q1767.89 1461.62 1764.26 1461.62 M1764.26 1457.92 Q1770.07 1457.92 1773.12 1462.53 Q1776.2 1467.11 1776.2 1475.86 Q1776.2 1484.59 1773.12 1489.19 Q1770.07 1493.78 1764.26 1493.78 Q1758.45 1493.78 1755.37 1489.19 Q1752.31 1484.59 1752.31 1475.86 Q1752.31 1467.11 1755.37 1462.53 Q1758.45 1457.92 1764.26 1457.92 Z" fill="#000000" fill-rule="evenodd" fill-opacity="1" /><path clip-path="url(#clip640)" d="M 0 0 M1776.2 1452.02 L1800.31 1452.02 L1800.31 1455.22 L1776.2 1455.22 L1776.2 1452.02 Z" fill="#000000" fill-rule="evenodd" fill-opacity="1" /><path clip-path="url(#clip640)" d="M 0 0 M1815.94 1450.55 Q1818.67 1451.14 1820.19 1452.98 Q1821.74 1454.82 1821.74 1457.53 Q1821.74 1461.69 1818.88 1463.96 Q1816.02 1466.24 1810.75 1466.24 Q1808.98 1466.24 1807.1 1465.88 Q1805.24 1465.54 1803.25 1464.85 L1803.25 1461.18 Q1804.83 1462.1 1806.71 1462.57 Q1808.59 1463.04 1810.64 1463.04 Q1814.21 1463.04 1816.08 1461.63 Q1817.96 1460.22 1817.96 1457.53 Q1817.96 1455.05 1816.21 1453.66 Q1814.48 1452.25 1811.37 1452.25 L1808.1 1452.25 L1808.1 1449.12 L1811.52 1449.12 Q1814.33 1449.12 1815.81 1448.01 Q1817.3 1446.89 1817.3 1444.78 Q1817.3 1442.62 1815.76 1441.47 Q1814.23 1440.3 1811.37 1440.3 Q1809.81 1440.3 1808.03 1440.64 Q1806.24 1440.98 1804.09 1441.69 L1804.09 1438.31 Q1806.26 1437.71 1808.14 1437.41 Q1810.04 1437.11 1811.71 1437.11 Q1816.04 1437.11 1818.56 1439.08 Q1821.08 1441.04 1821.08 1444.38 Q1821.08 1446.72 1819.74 1448.33 Q1818.41 1449.93 1815.94 1450.55 Z" fill="#000000" fill-rule="evenodd" fill-opacity="1" /><path clip-path="url(#clip640)" d="M 0 0 M1825.86 1460.92 L1829.82 1460.92 L1829.82 1465.69 L1825.86 1465.69 L1825.86 1460.92 Z" fill="#000000" fill-rule="evenodd" fill-opacity="1" /><path clip-path="url(#clip640)" d="M 0 0 M1837.22 1462.5 L1850.47 1462.5 L1850.47 1465.69 L1832.65 1465.69 L1832.65 1462.5 Q1834.81 1460.26 1838.53 1456.5 Q1842.27 1452.72 1843.23 1451.63 Q1845.06 1449.58 1845.77 1448.16 Q1846.51 1446.74 1846.51 1445.36 Q1846.51 1443.12 1844.93 1441.71 Q1843.37 1440.3 1840.85 1440.3 Q1839.06 1440.3 1837.06 1440.92 Q1835.09 1441.54 1832.83 1442.8 L1832.83 1438.97 Q1835.13 1438.05 1837.12 1437.58 Q1839.11 1437.11 1840.77 1437.11 Q1845.13 1437.11 1847.73 1439.29 Q1850.32 1441.47 1850.32 1445.12 Q1850.32 1446.85 1849.67 1448.41 Q1849.03 1449.95 1847.32 1452.06 Q1846.84 1452.6 1844.32 1455.22 Q1841.8 1457.81 1837.22 1462.5 Z" fill="#000000" fill-rule="evenodd" fill-opacity="1" /><path clip-path="url(#clip640)" d="M 0 0 M1854.63 1437.61 L1869.55 1437.61 L1869.55 1440.81 L1858.11 1440.81 L1858.11 1447.69 Q1858.94 1447.41 1859.77 1447.28 Q1860.59 1447.13 1861.42 1447.13 Q1866.12 1447.13 1868.87 1449.71 Q1871.61 1452.28 1871.61 1456.68 Q1871.61 1461.22 1868.79 1463.74 Q1865.97 1466.24 1860.84 1466.24 Q1859.07 1466.24 1857.23 1465.94 Q1855.4 1465.64 1853.45 1465.04 L1853.45 1461.22 Q1855.14 1462.14 1856.94 1462.59 Q1858.75 1463.04 1860.76 1463.04 Q1864.02 1463.04 1865.92 1461.33 Q1867.82 1459.62 1867.82 1456.68 Q1867.82 1453.75 1865.92 1452.04 Q1864.02 1450.33 1860.76 1450.33 Q1859.24 1450.33 1857.72 1450.67 Q1856.21 1451 1854.63 1451.72 L1854.63 1437.61 Z" fill="#000000" fill-rule="evenodd" fill-opacity="1" /><path clip-path="url(#clip640)" d="M 0 0 M2221.66 1489.17 L2229.3 1489.17 L2229.3 1462.8 L2220.99 1464.47 L2220.99 1460.21 L2229.25 1458.54 L2233.93 1458.54 L2233.93 1489.17 L2241.57 1489.17 L2241.57 1493.1 L2221.66 1493.1 L2221.66 1489.17 Z" fill="#000000" fill-rule="evenodd" fill-opacity="1" /><path clip-path="url(#clip640)" d="M 0 0 M2256.64 1461.62 Q2253.03 1461.62 2251.2 1465.19 Q2249.39 1468.73 2249.39 1475.86 Q2249.39 1482.97 2251.2 1486.53 Q2253.03 1490.07 2256.64 1490.07 Q2260.27 1490.07 2262.08 1486.53 Q2263.91 1482.97 2263.91 1475.86 Q2263.91 1468.73 2262.08 1465.19 Q2260.27 1461.62 2256.64 1461.62 M2256.64 1457.92 Q2262.45 1457.92 2265.5 1462.53 Q2268.58 1467.11 2268.58 1475.86 Q2268.58 1484.59 2265.5 1489.19 Q2262.45 1493.78 2256.64 1493.78 Q2250.83 1493.78 2247.75 1489.19 Q2244.69 1484.59 2244.69 1475.86 Q2244.69 1467.11 2247.75 1462.53 Q2250.83 1457.92 2256.64 1457.92 Z" fill="#000000" fill-rule="evenodd" fill-opacity="1" /><path clip-path="url(#clip640)" d="M 0 0 M2268.58 1452.02 L2292.69 1452.02 L2292.69 1455.22 L2268.58 1455.22 L2268.58 1452.02 Z" fill="#000000" fill-rule="evenodd" fill-opacity="1" /><path clip-path="url(#clip640)" d="M 0 0 M2308.32 1450.55 Q2311.05 1451.14 2312.57 1452.98 Q2314.11 1454.82 2314.11 1457.53 Q2314.11 1461.69 2311.26 1463.96 Q2308.4 1466.24 2303.13 1466.24 Q2301.36 1466.24 2299.48 1465.88 Q2297.62 1465.54 2295.63 1464.85 L2295.63 1461.18 Q2297.21 1462.1 2299.09 1462.57 Q2300.97 1463.04 2303.02 1463.04 Q2306.59 1463.04 2308.45 1461.63 Q2310.33 1460.22 2310.33 1457.53 Q2310.33 1455.05 2308.59 1453.66 Q2306.85 1452.25 2303.75 1452.25 L2300.48 1452.25 L2300.48 1449.12 L2303.9 1449.12 Q2306.7 1449.12 2308.19 1448.01 Q2309.68 1446.89 2309.68 1444.78 Q2309.68 1442.62 2308.13 1441.47 Q2306.61 1440.3 2303.75 1440.3 Q2302.19 1440.3 2300.4 1440.64 Q2298.62 1440.98 2296.47 1441.69 L2296.47 1438.31 Q2298.64 1437.71 2300.52 1437.41 Q2302.42 1437.11 2304.09 1437.11 Q2308.42 1437.11 2310.94 1439.08 Q2313.46 1441.04 2313.46 1444.38 Q2313.46 1446.72 2312.12 1448.33 Q2310.79 1449.93 2308.32 1450.55 Z" fill="#000000" fill-rule="evenodd" fill-opacity="1" /><path clip-path="url(#clip640)" d="M 0 0 M2318.23 1460.92 L2322.2 1460.92 L2322.2 1465.69 L2318.23 1465.69 L2318.23 1460.92 Z" fill="#000000" fill-rule="evenodd" fill-opacity="1" /><path clip-path="url(#clip640)" d="M 0 0 M2334.45 1440.11 Q2331.51 1440.11 2330.03 1443.01 Q2328.56 1445.89 2328.56 1451.68 Q2328.56 1457.46 2330.03 1460.35 Q2331.51 1463.23 2334.45 1463.23 Q2337.4 1463.23 2338.87 1460.35 Q2340.35 1457.46 2340.35 1451.68 Q2340.35 1445.89 2338.87 1443.01 Q2337.4 1440.11 2334.45 1440.11 M2334.45 1437.11 Q2339.17 1437.11 2341.65 1440.85 Q2344.15 1444.57 2344.15 1451.68 Q2344.15 1458.77 2341.65 1462.51 Q2339.17 1466.24 2334.45 1466.24 Q2329.73 1466.24 2327.22 1462.51 Q2324.74 1458.77 2324.74 1451.68 Q2324.74 1444.57 2327.22 1440.85 Q2329.73 1437.11 2334.45 1437.11 Z" fill="#000000" fill-rule="evenodd" fill-opacity="1" /><path clip-path="url(#clip640)" d="M 0 0 M2356.39 1440.11 Q2353.46 1440.11 2351.97 1443.01 Q2350.51 1445.89 2350.51 1451.68 Q2350.51 1457.46 2351.97 1460.35 Q2353.46 1463.23 2356.39 1463.23 Q2359.35 1463.23 2360.81 1460.35 Q2362.3 1457.46 2362.3 1451.68 Q2362.3 1445.89 2360.81 1443.01 Q2359.35 1440.11 2356.39 1440.11 M2356.39 1437.11 Q2361.12 1437.11 2363.6 1440.85 Q2366.1 1444.57 2366.1 1451.68 Q2366.1 1458.77 2363.6 1462.51 Q2361.12 1466.24 2356.39 1466.24 Q2351.67 1466.24 2349.17 1462.51 Q2346.69 1458.77 2346.69 1451.68 Q2346.69 1444.57 2349.17 1440.85 Q2351.67 1437.11 2356.39 1437.11 Z" fill="#000000" fill-rule="evenodd" fill-opacity="1" /><path clip-path="url(#clip640)" d="M 0 0 M1199.45 1526.54 L1205.66 1526.54 L1216.8 1556.46 L1227.94 1526.54 L1234.14 1526.54 L1220.78 1562.19 L1212.82 1562.19 L1199.45 1526.54 Z" fill="#000000" fill-rule="evenodd" fill-opacity="1" /><path clip-path="url(#clip640)" d="M 0 0 M1267.37 1573.01 L1267.37 1577.56 L1233.51 1577.56 L1233.51 1573.01 L1267.37 1573.01 Z" fill="#000000" fill-rule="evenodd" fill-opacity="1" /><path clip-path="url(#clip640)" d="M 0 0 M1287.33 1530.64 Q1282.62 1530.64 1279.88 1534.34 Q1277.14 1538 1277.14 1544.39 Q1277.14 1550.79 1279.85 1554.48 Q1282.59 1558.14 1287.33 1558.14 Q1292.01 1558.14 1294.75 1554.45 Q1297.48 1550.76 1297.48 1544.39 Q1297.48 1538.06 1294.75 1534.37 Q1292.01 1530.64 1287.33 1530.64 M1287.33 1525.68 Q1294.97 1525.68 1299.33 1530.64 Q1303.69 1535.61 1303.69 1544.39 Q1303.69 1553.15 1299.33 1558.14 Q1294.97 1563.11 1287.33 1563.11 Q1279.66 1563.11 1275.3 1558.14 Q1270.97 1553.15 1270.97 1544.39 Q1270.97 1535.61 1275.3 1530.64 Q1279.66 1525.68 1287.33 1525.68 Z" fill="#000000" fill-rule="evenodd" fill-opacity="1" /><path clip-path="url(#clip640)" d="M 0 0 M1315.5 1556.84 L1315.5 1575.74 L1309.61 1575.74 L1309.61 1526.54 L1315.5 1526.54 L1315.5 1531.95 Q1317.34 1528.77 1320.14 1527.24 Q1322.98 1525.68 1326.89 1525.68 Q1333.39 1525.68 1337.43 1530.83 Q1341.5 1535.99 1341.5 1544.39 Q1341.5 1552.8 1337.43 1557.95 Q1333.39 1563.11 1326.89 1563.11 Q1322.98 1563.11 1320.14 1561.58 Q1317.34 1560.02 1315.5 1556.84 M1335.42 1544.39 Q1335.42 1537.93 1332.75 1534.27 Q1330.11 1530.58 1325.46 1530.58 Q1320.81 1530.58 1318.14 1534.27 Q1315.5 1537.93 1315.5 1544.39 Q1315.5 1550.85 1318.14 1554.55 Q1320.81 1558.21 1325.46 1558.21 Q1330.11 1558.21 1332.75 1554.55 Q1335.42 1550.85 1335.42 1544.39 Z" fill="#000000" fill-rule="evenodd" fill-opacity="1" /><path clip-path="url(#clip640)" d="M 0 0 M1378.14 1542.9 L1378.14 1545.76 L1351.21 1545.76 Q1351.59 1551.81 1354.84 1554.99 Q1358.12 1558.14 1363.94 1558.14 Q1367.31 1558.14 1370.47 1557.32 Q1373.65 1556.49 1376.77 1554.83 L1376.77 1560.37 Q1373.62 1561.71 1370.31 1562.41 Q1367 1563.11 1363.59 1563.11 Q1355.06 1563.11 1350.06 1558.14 Q1345.1 1553.18 1345.1 1544.71 Q1345.1 1535.96 1349.81 1530.83 Q1354.55 1525.68 1362.57 1525.68 Q1369.77 1525.68 1373.94 1530.33 Q1378.14 1534.94 1378.14 1542.9 M1372.28 1541.18 Q1372.22 1536.37 1369.57 1533.51 Q1366.96 1530.64 1362.64 1530.64 Q1357.73 1530.64 1354.77 1533.41 Q1351.85 1536.18 1351.4 1541.21 L1372.28 1541.18 Z" fill="#000000" fill-rule="evenodd" fill-opacity="1" /><path clip-path="url(#clip640)" d="M 0 0 M1413.91 1540.67 L1413.91 1562.19 L1408.06 1562.19 L1408.06 1540.86 Q1408.06 1535.8 1406.08 1533.29 Q1404.11 1530.77 1400.16 1530.77 Q1395.42 1530.77 1392.68 1533.79 Q1389.94 1536.82 1389.94 1542.04 L1389.94 1562.19 L1384.06 1562.19 L1384.06 1526.54 L1389.94 1526.54 L1389.94 1532.08 Q1392.05 1528.86 1394.88 1527.27 Q1397.74 1525.68 1401.47 1525.68 Q1407.61 1525.68 1410.76 1529.5 Q1413.91 1533.29 1413.91 1540.67 Z" fill="#000000" fill-rule="evenodd" fill-opacity="1" /><polyline clip-path="url(#clip642)" style="stroke:#000000; stroke-width:2; stroke-opacity:0.1; fill:none" points="
  260.607,1246.35 2352.76,1246.35 
  "/>
<polyline clip-path="url(#clip642)" style="stroke:#000000; stroke-width:2; stroke-opacity:0.1; fill:none" points="
  260.607,1053.07 2352.76,1053.07 
  "/>
<polyline clip-path="url(#clip642)" style="stroke:#000000; stroke-width:2; stroke-opacity:0.1; fill:none" points="
  260.607,859.798 2352.76,859.798 
  "/>
<polyline clip-path="url(#clip642)" style="stroke:#000000; stroke-width:2; stroke-opacity:0.1; fill:none" points="
  260.607,666.522 2352.76,666.522 
  "/>
<polyline clip-path="url(#clip642)" style="stroke:#000000; stroke-width:2; stroke-opacity:0.1; fill:none" points="
  260.607,473.246 2352.76,473.246 
  "/>
<polyline clip-path="url(#clip642)" style="stroke:#000000; stroke-width:2; stroke-opacity:0.1; fill:none" points="
  260.607,279.969 2352.76,279.969 
  "/>
<polyline clip-path="url(#clip642)" style="stroke:#000000; stroke-width:2; stroke-opacity:0.1; fill:none" points="
  260.607,86.6933 2352.76,86.6933 
  "/>
<polyline clip-path="url(#clip640)" style="stroke:#000000; stroke-width:4; stroke-opacity:1; fill:none" points="
  260.607,1410.9 260.607,47.2441 
  "/>
<polyline clip-path="url(#clip640)" style="stroke:#000000; stroke-width:4; stroke-opacity:1; fill:none" points="
  260.607,1246.35 285.713,1246.35 
  "/>
<polyline clip-path="url(#clip640)" style="stroke:#000000; stroke-width:4; stroke-opacity:1; fill:none" points="
  260.607,1053.07 285.713,1053.07 
  "/>
<polyline clip-path="url(#clip640)" style="stroke:#000000; stroke-width:4; stroke-opacity:1; fill:none" points="
  260.607,859.798 285.713,859.798 
  "/>
<polyline clip-path="url(#clip640)" style="stroke:#000000; stroke-width:4; stroke-opacity:1; fill:none" points="
  260.607,666.522 285.713,666.522 
  "/>
<polyline clip-path="url(#clip640)" style="stroke:#000000; stroke-width:4; stroke-opacity:1; fill:none" points="
  260.607,473.246 285.713,473.246 
  "/>
<polyline clip-path="url(#clip640)" style="stroke:#000000; stroke-width:4; stroke-opacity:1; fill:none" points="
  260.607,279.969 285.713,279.969 
  "/>
<polyline clip-path="url(#clip640)" style="stroke:#000000; stroke-width:4; stroke-opacity:1; fill:none" points="
  260.607,86.6933 285.713,86.6933 
  "/>
<path clip-path="url(#clip640)" d="M 0 0 M115.603 1259.69 L123.242 1259.69 L123.242 1233.33 L114.931 1235 L114.931 1230.74 L123.195 1229.07 L127.871 1229.07 L127.871 1259.69 L135.51 1259.69 L135.51 1263.63 L115.603 1263.63 L115.603 1259.69 Z" fill="#000000" fill-rule="evenodd" fill-opacity="1" /><path clip-path="url(#clip640)" d="M 0 0 M150.579 1232.15 Q146.968 1232.15 145.14 1235.71 Q143.334 1239.26 143.334 1246.38 Q143.334 1253.49 145.14 1257.06 Q146.968 1260.6 150.579 1260.6 Q154.214 1260.6 156.019 1257.06 Q157.848 1253.49 157.848 1246.38 Q157.848 1239.26 156.019 1235.71 Q154.214 1232.15 150.579 1232.15 M150.579 1228.45 Q156.39 1228.45 159.445 1233.05 Q162.524 1237.63 162.524 1246.38 Q162.524 1255.11 159.445 1259.72 Q156.39 1264.3 150.579 1264.3 Q144.769 1264.3 141.691 1259.72 Q138.635 1255.11 138.635 1246.38 Q138.635 1237.63 141.691 1233.05 Q144.769 1228.45 150.579 1228.45 Z" fill="#000000" fill-rule="evenodd" fill-opacity="1" /><path clip-path="url(#clip640)" d="M 0 0 M167.593 1257.75 L172.477 1257.75 L172.477 1263.63 L167.593 1263.63 L167.593 1257.75 Z" fill="#000000" fill-rule="evenodd" fill-opacity="1" /><path clip-path="url(#clip640)" d="M 0 0 M176.366 1229.07 L198.588 1229.07 L198.588 1231.06 L186.042 1263.63 L181.158 1263.63 L192.963 1233.01 L176.366 1233.01 L176.366 1229.07 Z" fill="#000000" fill-rule="evenodd" fill-opacity="1" /><path clip-path="url(#clip640)" d="M 0 0 M203.704 1229.07 L222.061 1229.07 L222.061 1233.01 L207.987 1233.01 L207.987 1241.48 Q209.005 1241.13 210.024 1240.97 Q211.042 1240.78 212.061 1240.78 Q217.848 1240.78 221.227 1243.95 Q224.607 1247.13 224.607 1252.54 Q224.607 1258.12 221.135 1261.22 Q217.662 1264.3 211.343 1264.3 Q209.167 1264.3 206.899 1263.93 Q204.653 1263.56 202.246 1262.82 L202.246 1258.12 Q204.329 1259.26 206.551 1259.81 Q208.774 1260.37 211.25 1260.37 Q215.255 1260.37 217.593 1258.26 Q219.931 1256.15 219.931 1252.54 Q219.931 1248.93 217.593 1246.82 Q215.255 1244.72 211.25 1244.72 Q209.375 1244.72 207.5 1245.13 Q205.649 1245.55 203.704 1246.43 L203.704 1229.07 Z" fill="#000000" fill-rule="evenodd" fill-opacity="1" /><path clip-path="url(#clip640)" d="M 0 0 M114.931 1066.42 L122.57 1066.42 L122.57 1040.05 L114.26 1041.72 L114.26 1037.46 L122.524 1035.79 L127.2 1035.79 L127.2 1066.42 L134.839 1066.42 L134.839 1070.35 L114.931 1070.35 L114.931 1066.42 Z" fill="#000000" fill-rule="evenodd" fill-opacity="1" /><path clip-path="url(#clip640)" d="M 0 0 M140.718 1066.42 L148.357 1066.42 L148.357 1040.05 L140.047 1041.72 L140.047 1037.46 L148.311 1035.79 L152.987 1035.79 L152.987 1066.42 L160.626 1066.42 L160.626 1070.35 L140.718 1070.35 L140.718 1066.42 Z" fill="#000000" fill-rule="evenodd" fill-opacity="1" /><path clip-path="url(#clip640)" d="M 0 0 M165.695 1064.47 L170.579 1064.47 L170.579 1070.35 L165.695 1070.35 L165.695 1064.47 Z" fill="#000000" fill-rule="evenodd" fill-opacity="1" /><path clip-path="url(#clip640)" d="M 0 0 M185.649 1038.87 Q182.038 1038.87 180.209 1042.44 Q178.403 1045.98 178.403 1053.11 Q178.403 1060.22 180.209 1063.78 Q182.038 1067.32 185.649 1067.32 Q189.283 1067.32 191.088 1063.78 Q192.917 1060.22 192.917 1053.11 Q192.917 1045.98 191.088 1042.44 Q189.283 1038.87 185.649 1038.87 M185.649 1035.17 Q191.459 1035.17 194.514 1039.78 Q197.593 1044.36 197.593 1053.11 Q197.593 1061.84 194.514 1066.44 Q191.459 1071.03 185.649 1071.03 Q179.839 1071.03 176.76 1066.44 Q173.704 1061.84 173.704 1053.11 Q173.704 1044.36 176.76 1039.78 Q179.839 1035.17 185.649 1035.17 Z" fill="#000000" fill-rule="evenodd" fill-opacity="1" /><path clip-path="url(#clip640)" d="M 0 0 M212.662 1038.87 Q209.051 1038.87 207.223 1042.44 Q205.417 1045.98 205.417 1053.11 Q205.417 1060.22 207.223 1063.78 Q209.051 1067.32 212.662 1067.32 Q216.297 1067.32 218.102 1063.78 Q219.931 1060.22 219.931 1053.11 Q219.931 1045.98 218.102 1042.44 Q216.297 1038.87 212.662 1038.87 M212.662 1035.17 Q218.473 1035.17 221.528 1039.78 Q224.607 1044.36 224.607 1053.11 Q224.607 1061.84 221.528 1066.44 Q218.473 1071.03 212.662 1071.03 Q206.852 1071.03 203.774 1066.44 Q200.718 1061.84 200.718 1053.11 Q200.718 1044.36 203.774 1039.78 Q206.852 1035.17 212.662 1035.17 Z" fill="#000000" fill-rule="evenodd" fill-opacity="1" /><path clip-path="url(#clip640)" d="M 0 0 M117.524 873.143 L125.163 873.143 L125.163 846.777 L116.853 848.444 L116.853 844.184 L125.117 842.518 L129.792 842.518 L129.792 873.143 L137.431 873.143 L137.431 877.078 L117.524 877.078 L117.524 873.143 Z" fill="#000000" fill-rule="evenodd" fill-opacity="1" /><path clip-path="url(#clip640)" d="M 0 0 M143.311 873.143 L150.95 873.143 L150.95 846.777 L142.64 848.444 L142.64 844.184 L150.903 842.518 L155.579 842.518 L155.579 873.143 L163.218 873.143 L163.218 877.078 L143.311 877.078 L143.311 873.143 Z" fill="#000000" fill-rule="evenodd" fill-opacity="1" /><path clip-path="url(#clip640)" d="M 0 0 M168.288 871.198 L173.172 871.198 L173.172 877.078 L168.288 877.078 L168.288 871.198 Z" fill="#000000" fill-rule="evenodd" fill-opacity="1" /><path clip-path="url(#clip640)" d="M 0 0 M182.269 873.143 L198.588 873.143 L198.588 877.078 L176.644 877.078 L176.644 873.143 Q179.306 870.388 183.889 865.758 Q188.496 861.106 189.676 859.763 Q191.922 857.24 192.801 855.504 Q193.704 853.745 193.704 852.055 Q193.704 849.3 191.76 847.564 Q189.838 845.828 186.737 845.828 Q184.538 845.828 182.084 846.592 Q179.653 847.356 176.876 848.907 L176.876 844.184 Q179.7 843.05 182.153 842.471 Q184.607 841.893 186.644 841.893 Q192.014 841.893 195.209 844.578 Q198.403 847.263 198.403 851.754 Q198.403 853.883 197.593 855.805 Q196.806 857.703 194.7 860.295 Q194.121 860.967 191.019 864.184 Q187.917 867.379 182.269 873.143 Z" fill="#000000" fill-rule="evenodd" fill-opacity="1" /><path clip-path="url(#clip640)" d="M 0 0 M203.704 842.518 L222.061 842.518 L222.061 846.453 L207.987 846.453 L207.987 854.925 Q209.005 854.578 210.024 854.416 Q211.042 854.231 212.061 854.231 Q217.848 854.231 221.227 857.402 Q224.607 860.573 224.607 865.99 Q224.607 871.569 221.135 874.67 Q217.662 877.749 211.343 877.749 Q209.167 877.749 206.899 877.379 Q204.653 877.008 202.246 876.268 L202.246 871.569 Q204.329 872.703 206.551 873.258 Q208.774 873.814 211.25 873.814 Q215.255 873.814 217.593 871.707 Q219.931 869.601 219.931 865.99 Q219.931 862.379 217.593 860.272 Q215.255 858.166 211.25 858.166 Q209.375 858.166 207.5 858.582 Q205.649 858.999 203.704 859.879 L203.704 842.518 Z" fill="#000000" fill-rule="evenodd" fill-opacity="1" /><path clip-path="url(#clip640)" d="M 0 0 M115.927 679.866 L123.566 679.866 L123.566 653.501 L115.256 655.168 L115.256 650.908 L123.519 649.242 L128.195 649.242 L128.195 679.866 L135.834 679.866 L135.834 683.802 L115.927 683.802 L115.927 679.866 Z" fill="#000000" fill-rule="evenodd" fill-opacity="1" /><path clip-path="url(#clip640)" d="M 0 0 M141.714 679.866 L149.353 679.866 L149.353 653.501 L141.042 655.168 L141.042 650.908 L149.306 649.242 L153.982 649.242 L153.982 679.866 L161.621 679.866 L161.621 683.802 L141.714 683.802 L141.714 679.866 Z" fill="#000000" fill-rule="evenodd" fill-opacity="1" /><path clip-path="url(#clip640)" d="M 0 0 M166.69 677.922 L171.575 677.922 L171.575 683.802 L166.69 683.802 L166.69 677.922 Z" fill="#000000" fill-rule="evenodd" fill-opacity="1" /><path clip-path="url(#clip640)" d="M 0 0 M176.69 649.242 L195.047 649.242 L195.047 653.177 L180.973 653.177 L180.973 661.649 Q181.991 661.302 183.01 661.14 Q184.028 660.955 185.047 660.955 Q190.834 660.955 194.213 664.126 Q197.593 667.297 197.593 672.714 Q197.593 678.292 194.121 681.394 Q190.649 684.473 184.329 684.473 Q182.153 684.473 179.885 684.103 Q177.639 683.732 175.232 682.991 L175.232 678.292 Q177.315 679.427 179.538 679.982 Q181.76 680.538 184.237 680.538 Q188.241 680.538 190.579 678.431 Q192.917 676.325 192.917 672.714 Q192.917 669.103 190.579 666.996 Q188.241 664.89 184.237 664.89 Q182.362 664.89 180.487 665.306 Q178.635 665.723 176.69 666.603 L176.69 649.242 Z" fill="#000000" fill-rule="evenodd" fill-opacity="1" /><path clip-path="url(#clip640)" d="M 0 0 M212.662 652.32 Q209.051 652.32 207.223 655.885 Q205.417 659.427 205.417 666.556 Q205.417 673.663 207.223 677.228 Q209.051 680.769 212.662 680.769 Q216.297 680.769 218.102 677.228 Q219.931 673.663 219.931 666.556 Q219.931 659.427 218.102 655.885 Q216.297 652.32 212.662 652.32 M212.662 648.617 Q218.473 648.617 221.528 653.223 Q224.607 657.806 224.607 666.556 Q224.607 675.283 221.528 679.89 Q218.473 684.473 212.662 684.473 Q206.852 684.473 203.774 679.89 Q200.718 675.283 200.718 666.556 Q200.718 657.806 203.774 653.223 Q206.852 648.617 212.662 648.617 Z" fill="#000000" fill-rule="evenodd" fill-opacity="1" /><path clip-path="url(#clip640)" d="M 0 0 M116.83 486.59 L124.468 486.59 L124.468 460.225 L116.158 461.891 L116.158 457.632 L124.422 455.966 L129.098 455.966 L129.098 486.59 L136.737 486.59 L136.737 490.526 L116.83 490.526 L116.83 486.59 Z" fill="#000000" fill-rule="evenodd" fill-opacity="1" /><path clip-path="url(#clip640)" d="M 0 0 M142.616 486.59 L150.255 486.59 L150.255 460.225 L141.945 461.891 L141.945 457.632 L150.209 455.966 L154.885 455.966 L154.885 486.59 L162.524 486.59 L162.524 490.526 L142.616 490.526 L142.616 486.59 Z" fill="#000000" fill-rule="evenodd" fill-opacity="1" /><path clip-path="url(#clip640)" d="M 0 0 M167.593 484.646 L172.477 484.646 L172.477 490.526 L167.593 490.526 L167.593 484.646 Z" fill="#000000" fill-rule="evenodd" fill-opacity="1" /><path clip-path="url(#clip640)" d="M 0 0 M176.366 455.966 L198.588 455.966 L198.588 457.956 L186.042 490.526 L181.158 490.526 L192.963 459.901 L176.366 459.901 L176.366 455.966 Z" fill="#000000" fill-rule="evenodd" fill-opacity="1" /><path clip-path="url(#clip640)" d="M 0 0 M203.704 455.966 L222.061 455.966 L222.061 459.901 L207.987 459.901 L207.987 468.373 Q209.005 468.026 210.024 467.864 Q211.042 467.678 212.061 467.678 Q217.848 467.678 221.227 470.85 Q224.607 474.021 224.607 479.438 Q224.607 485.016 221.135 488.118 Q217.662 491.197 211.343 491.197 Q209.167 491.197 206.899 490.826 Q204.653 490.456 202.246 489.715 L202.246 485.016 Q204.329 486.151 206.551 486.706 Q208.774 487.262 211.25 487.262 Q215.255 487.262 217.593 485.155 Q219.931 483.049 219.931 479.438 Q219.931 475.827 217.593 473.72 Q215.255 471.614 211.25 471.614 Q209.375 471.614 207.5 472.03 Q205.649 472.447 203.704 473.327 L203.704 455.966 Z" fill="#000000" fill-rule="evenodd" fill-opacity="1" /><path clip-path="url(#clip640)" d="M 0 0 M115.302 293.314 L122.941 293.314 L122.941 266.949 L114.631 268.615 L114.631 264.356 L122.894 262.689 L127.57 262.689 L127.57 293.314 L135.209 293.314 L135.209 297.249 L115.302 297.249 L115.302 293.314 Z" fill="#000000" fill-rule="evenodd" fill-opacity="1" /><path clip-path="url(#clip640)" d="M 0 0 M144.306 293.314 L160.626 293.314 L160.626 297.249 L138.681 297.249 L138.681 293.314 Q141.343 290.56 145.927 285.93 Q150.533 281.277 151.714 279.935 Q153.959 277.412 154.839 275.675 Q155.741 273.916 155.741 272.226 Q155.741 269.472 153.797 267.736 Q151.876 266 148.774 266 Q146.575 266 144.121 266.763 Q141.691 267.527 138.913 269.078 L138.913 264.356 Q141.737 263.222 144.191 262.643 Q146.644 262.064 148.681 262.064 Q154.052 262.064 157.246 264.75 Q160.44 267.435 160.44 271.925 Q160.44 274.055 159.63 275.976 Q158.843 277.875 156.737 280.467 Q156.158 281.138 153.056 284.356 Q149.954 287.55 144.306 293.314 Z" fill="#000000" fill-rule="evenodd" fill-opacity="1" /><path clip-path="url(#clip640)" d="M 0 0 M165.695 291.37 L170.579 291.37 L170.579 297.249 L165.695 297.249 L165.695 291.37 Z" fill="#000000" fill-rule="evenodd" fill-opacity="1" /><path clip-path="url(#clip640)" d="M 0 0 M185.649 265.768 Q182.038 265.768 180.209 269.333 Q178.403 272.875 178.403 280.004 Q178.403 287.111 180.209 290.675 Q182.038 294.217 185.649 294.217 Q189.283 294.217 191.088 290.675 Q192.917 287.111 192.917 280.004 Q192.917 272.875 191.088 269.333 Q189.283 265.768 185.649 265.768 M185.649 262.064 Q191.459 262.064 194.514 266.671 Q197.593 271.254 197.593 280.004 Q197.593 288.731 194.514 293.337 Q191.459 297.921 185.649 297.921 Q179.839 297.921 176.76 293.337 Q173.704 288.731 173.704 280.004 Q173.704 271.254 176.76 266.671 Q179.839 262.064 185.649 262.064 Z" fill="#000000" fill-rule="evenodd" fill-opacity="1" /><path clip-path="url(#clip640)" d="M 0 0 M212.662 265.768 Q209.051 265.768 207.223 269.333 Q205.417 272.875 205.417 280.004 Q205.417 287.111 207.223 290.675 Q209.051 294.217 212.662 294.217 Q216.297 294.217 218.102 290.675 Q219.931 287.111 219.931 280.004 Q219.931 272.875 218.102 269.333 Q216.297 265.768 212.662 265.768 M212.662 262.064 Q218.473 262.064 221.528 266.671 Q224.607 271.254 224.607 280.004 Q224.607 288.731 221.528 293.337 Q218.473 297.921 212.662 297.921 Q206.852 297.921 203.774 293.337 Q200.718 288.731 200.718 280.004 Q200.718 271.254 203.774 266.671 Q206.852 262.064 212.662 262.064 Z" fill="#000000" fill-rule="evenodd" fill-opacity="1" /><path clip-path="url(#clip640)" d="M 0 0 M117.894 100.038 L125.533 100.038 L125.533 73.6725 L117.223 75.3392 L117.223 71.0799 L125.487 69.4133 L130.163 69.4133 L130.163 100.038 L137.802 100.038 L137.802 103.973 L117.894 103.973 L117.894 100.038 Z" fill="#000000" fill-rule="evenodd" fill-opacity="1" /><path clip-path="url(#clip640)" d="M 0 0 M146.899 100.038 L163.218 100.038 L163.218 103.973 L141.274 103.973 L141.274 100.038 Q143.936 97.2835 148.519 92.6539 Q153.126 88.0012 154.306 86.6586 Q156.552 84.1354 157.431 82.3993 Q158.334 80.6401 158.334 78.9503 Q158.334 76.1957 156.39 74.4596 Q154.468 72.7235 151.366 72.7235 Q149.167 72.7235 146.714 73.4873 Q144.283 74.2512 141.505 75.8021 L141.505 71.0799 Q144.329 69.9457 146.783 69.367 Q149.237 68.7883 151.274 68.7883 Q156.644 68.7883 159.839 71.4735 Q163.033 74.1586 163.033 78.6494 Q163.033 80.779 162.223 82.7003 Q161.436 84.5984 159.329 87.191 Q158.751 87.8623 155.649 91.0798 Q152.547 94.2743 146.899 100.038 Z" fill="#000000" fill-rule="evenodd" fill-opacity="1" /><path clip-path="url(#clip640)" d="M 0 0 M168.288 98.0937 L173.172 98.0937 L173.172 103.973 L168.288 103.973 L168.288 98.0937 Z" fill="#000000" fill-rule="evenodd" fill-opacity="1" /><path clip-path="url(#clip640)" d="M 0 0 M182.269 100.038 L198.588 100.038 L198.588 103.973 L176.644 103.973 L176.644 100.038 Q179.306 97.2835 183.889 92.6539 Q188.496 88.0012 189.676 86.6586 Q191.922 84.1354 192.801 82.3993 Q193.704 80.6401 193.704 78.9503 Q193.704 76.1957 191.76 74.4596 Q189.838 72.7235 186.737 72.7235 Q184.538 72.7235 182.084 73.4873 Q179.653 74.2512 176.876 75.8021 L176.876 71.0799 Q179.7 69.9457 182.153 69.367 Q184.607 68.7883 186.644 68.7883 Q192.014 68.7883 195.209 71.4735 Q198.403 74.1586 198.403 78.6494 Q198.403 80.779 197.593 82.7003 Q196.806 84.5984 194.7 87.191 Q194.121 87.8623 191.019 91.0798 Q187.917 94.2743 182.269 100.038 Z" fill="#000000" fill-rule="evenodd" fill-opacity="1" /><path clip-path="url(#clip640)" d="M 0 0 M203.704 69.4133 L222.061 69.4133 L222.061 73.3485 L207.987 73.3485 L207.987 81.8206 Q209.005 81.4734 210.024 81.3114 Q211.042 81.1262 212.061 81.1262 Q217.848 81.1262 221.227 84.2975 Q224.607 87.4687 224.607 92.8854 Q224.607 98.4641 221.135 101.566 Q217.662 104.645 211.343 104.645 Q209.167 104.645 206.899 104.274 Q204.653 103.904 202.246 103.163 L202.246 98.4641 Q204.329 99.5983 206.551 100.154 Q208.774 100.709 211.25 100.709 Q215.255 100.709 217.593 98.6029 Q219.931 96.4965 219.931 92.8854 Q219.931 89.2743 217.593 87.1678 Q215.255 85.0614 211.25 85.0614 Q209.375 85.0614 207.5 85.478 Q205.649 85.8947 203.704 86.7743 L203.704 69.4133 Z" fill="#000000" fill-rule="evenodd" fill-opacity="1" /><path clip-path="url(#clip640)" d="M 0 0 M59.1993 815.533 Q55.2526 813.336 53.3747 810.281 Q51.4968 807.225 51.4968 803.088 Q51.4968 797.518 55.4117 794.494 Q59.2948 791.47 66.4881 791.47 L88.0042 791.47 L88.0042 797.358 L66.679 797.358 Q61.5546 797.358 59.072 799.173 Q56.5894 800.987 56.5894 804.711 Q56.5894 809.262 59.6131 811.904 Q62.6368 814.546 67.8567 814.546 L88.0042 814.546 L88.0042 820.434 L66.679 820.434 Q61.5228 820.434 59.072 822.248 Q56.5894 824.063 56.5894 827.85 Q56.5894 832.338 59.6449 834.98 Q62.6686 837.622 67.8567 837.622 L88.0042 837.622 L88.0042 843.51 L52.3562 843.51 L52.3562 837.622 L57.8944 837.622 Q54.616 835.616 53.0564 832.815 Q51.4968 830.015 51.4968 826.163 Q51.4968 822.28 53.4702 819.575 Q55.4436 816.838 59.1993 815.533 Z" fill="#000000" fill-rule="evenodd" fill-opacity="1" /><path clip-path="url(#clip640)" d="M 0 0 M52.3562 785.327 L52.3562 779.471 L88.0042 779.471 L88.0042 785.327 L52.3562 785.327 M38.479 785.327 L38.479 779.471 L45.895 779.471 L45.895 785.327 L38.479 785.327 Z" fill="#000000" fill-rule="evenodd" fill-opacity="1" /><path clip-path="url(#clip640)" d="M 0 0 M66.4881 743.696 L88.0042 743.696 L88.0042 749.552 L66.679 749.552 Q61.6183 749.552 59.1038 751.525 Q56.5894 753.499 56.5894 757.446 Q56.5894 762.188 59.6131 764.925 Q62.6368 767.662 67.8567 767.662 L88.0042 767.662 L88.0042 773.551 L52.3562 773.551 L52.3562 767.662 L57.8944 767.662 Q54.6797 765.562 53.0883 762.729 Q51.4968 759.864 51.4968 756.141 Q51.4968 749.998 55.3163 746.847 Q59.1038 743.696 66.4881 743.696 Z" fill="#000000" fill-rule="evenodd" fill-opacity="1" /><path clip-path="url(#clip640)" d="M 0 0 M98.8259 710.467 L103.377 710.467 L103.377 744.332 L98.8259 744.332 L98.8259 710.467 Z" fill="#000000" fill-rule="evenodd" fill-opacity="1" /><path clip-path="url(#clip640)" d="M 0 0 M57.7671 680.866 L38.479 680.866 L38.479 675.01 L88.0042 675.01 L88.0042 680.866 L82.657 680.866 Q85.8398 682.712 87.3994 685.545 Q88.9272 688.346 88.9272 692.292 Q88.9272 698.754 83.771 702.828 Q78.6147 706.87 70.212 706.87 Q61.8093 706.87 56.6531 702.828 Q51.4968 698.754 51.4968 692.292 Q51.4968 688.346 53.0564 685.545 Q54.5842 682.712 57.7671 680.866 M70.212 700.823 Q76.6732 700.823 80.3653 698.181 Q84.0256 695.507 84.0256 690.86 Q84.0256 686.213 80.3653 683.54 Q76.6732 680.866 70.212 680.866 Q63.7508 680.866 60.0905 683.54 Q56.3984 686.213 56.3984 690.86 Q56.3984 695.507 60.0905 698.181 Q63.7508 700.823 70.212 700.823 Z" fill="#000000" fill-rule="evenodd" fill-opacity="1" /><path clip-path="url(#clip640)" d="M 0 0 M52.3562 668.867 L52.3562 663.01 L88.0042 663.01 L88.0042 668.867 L52.3562 668.867 M38.479 668.867 L38.479 663.01 L45.895 663.01 L45.895 668.867 L38.479 668.867 Z" fill="#000000" fill-rule="evenodd" fill-opacity="1" /><path clip-path="url(#clip640)" d="M 0 0 M38.479 638.821 L43.3487 638.821 L43.3487 644.422 Q43.3487 647.573 44.6219 648.815 Q45.895 650.024 49.2052 650.024 L52.3562 650.024 L52.3562 640.38 L56.9077 640.38 L56.9077 650.024 L88.0042 650.024 L88.0042 655.912 L56.9077 655.912 L56.9077 661.514 L52.3562 661.514 L52.3562 655.912 L49.8736 655.912 Q43.9216 655.912 41.2162 653.143 Q38.479 650.374 38.479 644.359 L38.479 638.821 Z" fill="#000000" fill-rule="evenodd" fill-opacity="1" /><path clip-path="url(#clip640)" d="M 0 0 M38.479 614.631 L43.3487 614.631 L43.3487 620.233 Q43.3487 623.384 44.6219 624.625 Q45.895 625.835 49.2052 625.835 L52.3562 625.835 L52.3562 616.19 L56.9077 616.19 L56.9077 625.835 L88.0042 625.835 L88.0042 631.723 L56.9077 631.723 L56.9077 637.325 L52.3562 637.325 L52.3562 631.723 L49.8736 631.723 Q43.9216 631.723 41.2162 628.954 Q38.479 626.185 38.479 620.169 L38.479 614.631 Z" fill="#000000" fill-rule="evenodd" fill-opacity="1" /><polyline clip-path="url(#clip642)" style="stroke:#009af9; stroke-width:20; stroke-opacity:1; fill:none" stroke-dasharray="80, 50" points="
  319.819,85.838 1306.68,1138.6 2293.54,1372.3 
  "/>
<path clip-path="url(#clip640)" d="
M1999.54 213.659 L2283.02 213.659 L2283.02 92.6992 L1999.54 92.6992  Z
  " fill="#ffffff" fill-rule="evenodd" fill-opacity="1"/>
<polyline clip-path="url(#clip640)" style="stroke:#000000; stroke-width:4; stroke-opacity:1; fill:none" points="
  1999.54,213.659 2283.02,213.659 2283.02,92.6992 1999.54,92.6992 1999.54,213.659 
  "/>
<polyline clip-path="url(#clip640)" style="stroke:#009af9; stroke-width:4; stroke-opacity:1; fill:none" stroke-dasharray="16, 10" points="
  2022.78,153.179 2162.26,153.179 
  "/>
<path clip-path="url(#clip640)" d="M 0 0 M2199.35 172.867 Q2197.54 177.496 2195.83 178.908 Q2194.12 180.32 2191.25 180.32 L2187.85 180.32 L2187.85 176.755 L2190.35 176.755 Q2192.1 176.755 2193.08 175.922 Q2194.05 175.089 2195.23 171.987 L2195.99 170.043 L2185.51 144.533 L2190.02 144.533 L2198.12 164.811 L2206.22 144.533 L2210.74 144.533 L2199.35 172.867 Z" fill="#000000" fill-rule="evenodd" fill-opacity="1" /><path clip-path="url(#clip640)" d="M 0 0 M2216.62 166.524 L2224.26 166.524 L2224.26 140.158 L2215.95 141.825 L2215.95 137.566 L2224.21 135.899 L2228.89 135.899 L2228.89 166.524 L2236.53 166.524 L2236.53 170.459 L2216.62 170.459 L2216.62 166.524 Z" fill="#000000" fill-rule="evenodd" fill-opacity="1" /></svg>
