<?xml version="1.0" encoding="utf-8"?>
<svg xmlns="http://www.w3.org/2000/svg" xmlns:xlink="http://www.w3.org/1999/xlink" width="600" height="400" viewBox="0 0 2400 1600">
<defs>
  <clipPath id="clip710">
    <rect x="0" y="0" width="2400" height="1600"/>
  </clipPath>
</defs>
<path clip-path="url(#clip710)" d="
M0 1600 L2400 1600 L2400 0 L0 0  Z
  " fill="#ffffff" fill-rule="evenodd" fill-opacity="1"/>
<defs>
  <clipPath id="clip711">
    <rect x="480" y="0" width="1681" height="1600"/>
  </clipPath>
</defs>
<path clip-path="url(#clip710)" d="
M224.866 1410.9 L2352.76 1410.9 L2352.76 47.2441 L224.866 47.2441  Z
  " fill="#ffffff" fill-rule="evenodd" fill-opacity="1"/>
<defs>
  <clipPath id="clip712">
    <rect x="224" y="47" width="2129" height="1365"/>
  </clipPath>
</defs>
<polyline clip-path="url(#clip712)" style="stroke:#000000; stroke-width:2; stroke-opacity:0.1; fill:none" points="
  440.975,1410.9 440.975,47.2441 
  "/>
<polyline clip-path="url(#clip712)" style="stroke:#000000; stroke-width:2; stroke-opacity:0.1; fill:none" points="
  749.568,1410.9 749.568,47.2441 
  "/>
<polyline clip-path="url(#clip712)" style="stroke:#000000; stroke-width:2; stroke-opacity:0.1; fill:none" points="
  1058.16,1410.9 1058.16,47.2441 
  "/>
<polyline clip-path="url(#clip712)" style="stroke:#000000; stroke-width:2; stroke-opacity:0.1; fill:none" points="
  1366.75,1410.9 1366.75,47.2441 
  "/>
<polyline clip-path="url(#clip712)" style="stroke:#000000; stroke-width:2; stroke-opacity:0.1; fill:none" points="
  1675.35,1410.9 1675.35,47.2441 
  "/>
<polyline clip-path="url(#clip712)" style="stroke:#000000; stroke-width:2; stroke-opacity:0.1; fill:none" points="
  1983.94,1410.9 1983.94,47.2441 
  "/>
<polyline clip-path="url(#clip712)" style="stroke:#000000; stroke-width:2; stroke-opacity:0.1; fill:none" points="
  2292.53,1410.9 2292.53,47.2441 
  "/>
<polyline clip-path="url(#clip710)" style="stroke:#000000; stroke-width:4; stroke-opacity:1; fill:none" points="
  224.866,1410.9 2352.76,1410.9 
  "/>
<polyline clip-path="url(#clip710)" style="stroke:#000000; stroke-width:4; stroke-opacity:1; fill:none" points="
  440.975,1410.9 440.975,1394.53 
  "/>
<polyline clip-path="url(#clip710)" style="stroke:#000000; stroke-width:4; stroke-opacity:1; fill:none" points="
  749.568,1410.9 749.568,1394.53 
  "/>
<polyline clip-path="url(#clip710)" style="stroke:#000000; stroke-width:4; stroke-opacity:1; fill:none" points="
  1058.16,1410.9 1058.16,1394.53 
  "/>
<polyline clip-path="url(#clip710)" style="stroke:#000000; stroke-width:4; stroke-opacity:1; fill:none" points="
  1366.75,1410.9 1366.75,1394.53 
  "/>
<polyline clip-path="url(#clip710)" style="stroke:#000000; stroke-width:4; stroke-opacity:1; fill:none" points="
  1675.35,1410.9 1675.35,1394.53 
  "/>
<polyline clip-path="url(#clip710)" style="stroke:#000000; stroke-width:4; stroke-opacity:1; fill:none" points="
  1983.94,1410.9 1983.94,1394.53 
  "/>
<polyline clip-path="url(#clip710)" style="stroke:#000000; stroke-width:4; stroke-opacity:1; fill:none" points="
  2292.53,1410.9 2292.53,1394.53 
  "/>
<path clip-path="url(#clip710)" d="M 0 0 M380.451 1489.17 L388.09 1489.17 L388.09 1462.8 L379.78 1464.47 L379.78 1460.21 L388.044 1458.54 L392.72 1458.54 L392.72 1489.17 L400.358 1489.17 L400.358 1493.1 L380.451 1493.1 L380.451 1489.17 Z" fill="#000000" fill-rule="evenodd" fill-opacity="1" /><path clip-path="url(#clip710)" d="M 0 0 M415.428 1461.62 Q411.817 1461.62 409.988 1465.19 Q408.182 1468.73 408.182 1475.86 Q408.182 1482.97 409.988 1486.53 Q411.817 1490.07 415.428 1490.07 Q419.062 1490.07 420.868 1486.53 Q422.696 1482.97 422.696 1475.86 Q422.696 1468.73 420.868 1465.19 Q419.062 1461.62 415.428 1461.62 M415.428 1457.92 Q421.238 1457.92 424.293 1462.53 Q427.372 1467.11 427.372 1475.86 Q427.372 1484.59 424.293 1489.19 Q421.238 1493.78 415.428 1493.78 Q409.618 1493.78 406.539 1489.19 Q403.483 1484.59 403.483 1475.86 Q403.483 1467.11 406.539 1462.53 Q409.618 1457.92 415.428 1457.92 Z" fill="#000000" fill-rule="evenodd" fill-opacity="1" /><path clip-path="url(#clip710)" d="M 0 0 M427.372 1452.02 L451.484 1452.02 L451.484 1455.22 L427.372 1455.22 L427.372 1452.02 Z" fill="#000000" fill-rule="evenodd" fill-opacity="1" /><path clip-path="url(#clip710)" d="M 0 0 M463.728 1440.11 Q460.794 1440.11 459.308 1443.01 Q457.841 1445.89 457.841 1451.68 Q457.841 1457.46 459.308 1460.35 Q460.794 1463.23 463.728 1463.23 Q466.68 1463.23 468.147 1460.35 Q469.633 1457.46 469.633 1451.68 Q469.633 1445.89 468.147 1443.01 Q466.68 1440.11 463.728 1440.11 M463.728 1437.11 Q468.448 1437.11 470.931 1440.85 Q473.432 1444.57 473.432 1451.68 Q473.432 1458.77 470.931 1462.51 Q468.448 1466.24 463.728 1466.24 Q459.007 1466.24 456.505 1462.51 Q454.023 1458.77 454.023 1451.68 Q454.023 1444.57 456.505 1440.85 Q459.007 1437.11 463.728 1437.11 Z" fill="#000000" fill-rule="evenodd" fill-opacity="1" /><path clip-path="url(#clip710)" d="M 0 0 M477.551 1460.92 L481.52 1460.92 L481.52 1465.69 L477.551 1465.69 L477.551 1460.92 Z" fill="#000000" fill-rule="evenodd" fill-opacity="1" /><path clip-path="url(#clip710)" d="M 0 0 M488.911 1462.5 L502.171 1462.5 L502.171 1465.69 L484.341 1465.69 L484.341 1462.5 Q486.504 1460.26 490.228 1456.5 Q493.97 1452.72 494.93 1451.63 Q496.754 1449.58 497.469 1448.16 Q498.202 1446.74 498.202 1445.36 Q498.202 1443.12 496.622 1441.71 Q495.061 1440.3 492.541 1440.3 Q490.754 1440.3 488.761 1440.92 Q486.786 1441.54 484.529 1442.8 L484.529 1438.97 Q486.824 1438.05 488.817 1437.58 Q490.811 1437.11 492.466 1437.11 Q496.829 1437.11 499.425 1439.29 Q502.02 1441.47 502.02 1445.12 Q502.02 1446.85 501.362 1448.41 Q500.722 1449.95 499.011 1452.06 Q498.541 1452.6 496.021 1455.22 Q493.5 1457.81 488.911 1462.5 Z" fill="#000000" fill-rule="evenodd" fill-opacity="1" /><path clip-path="url(#clip710)" d="M 0 0 M701.72 1489.17 L709.359 1489.17 L709.359 1462.8 L701.049 1464.47 L701.049 1460.21 L709.313 1458.54 L713.989 1458.54 L713.989 1489.17 L721.628 1489.17 L721.628 1493.1 L701.72 1493.1 L701.72 1489.17 Z" fill="#000000" fill-rule="evenodd" fill-opacity="1" /><path clip-path="url(#clip710)" d="M 0 0 M736.697 1461.62 Q733.086 1461.62 731.257 1465.19 Q729.452 1468.73 729.452 1475.86 Q729.452 1482.97 731.257 1486.53 Q733.086 1490.07 736.697 1490.07 Q740.331 1490.07 742.137 1486.53 Q743.966 1482.97 743.966 1475.86 Q743.966 1468.73 742.137 1465.19 Q740.331 1461.62 736.697 1461.62 M736.697 1457.92 Q742.507 1457.92 745.563 1462.53 Q748.641 1467.11 748.641 1475.86 Q748.641 1484.59 745.563 1489.19 Q742.507 1493.78 736.697 1493.78 Q730.887 1493.78 727.808 1489.19 Q724.753 1484.59 724.753 1475.86 Q724.753 1467.11 727.808 1462.53 Q730.887 1457.92 736.697 1457.92 Z" fill="#000000" fill-rule="evenodd" fill-opacity="1" /><path clip-path="url(#clip710)" d="M 0 0 M758.346 1440.11 Q755.412 1440.11 753.926 1443.01 Q752.459 1445.89 752.459 1451.68 Q752.459 1457.46 753.926 1460.35 Q755.412 1463.23 758.346 1463.23 Q761.299 1463.23 762.766 1460.35 Q764.252 1457.46 764.252 1451.68 Q764.252 1445.89 762.766 1443.01 Q761.299 1440.11 758.346 1440.11 M758.346 1437.11 Q763.067 1437.11 765.55 1440.85 Q768.051 1444.57 768.051 1451.68 Q768.051 1458.77 765.55 1462.51 Q763.067 1466.24 758.346 1466.24 Q753.626 1466.24 751.124 1462.51 Q748.641 1458.77 748.641 1451.68 Q748.641 1444.57 751.124 1440.85 Q753.626 1437.11 758.346 1437.11 Z" fill="#000000" fill-rule="evenodd" fill-opacity="1" /><path clip-path="url(#clip710)" d="M 0 0 M772.17 1460.92 L776.138 1460.92 L776.138 1465.69 L772.17 1465.69 L772.17 1460.92 Z" fill="#000000" fill-rule="evenodd" fill-opacity="1" /><path clip-path="url(#clip710)" d="M 0 0 M788.382 1440.11 Q785.448 1440.11 783.962 1443.01 Q782.495 1445.89 782.495 1451.68 Q782.495 1457.46 783.962 1460.35 Q785.448 1463.23 788.382 1463.23 Q791.335 1463.23 792.802 1460.35 Q794.288 1457.46 794.288 1451.68 Q794.288 1445.89 792.802 1443.01 Q791.335 1440.11 788.382 1440.11 M788.382 1437.11 Q793.103 1437.11 795.586 1440.85 Q798.087 1444.57 798.087 1451.68 Q798.087 1458.77 795.586 1462.51 Q793.103 1466.24 788.382 1466.24 Q783.662 1466.24 781.16 1462.51 Q778.677 1458.77 778.677 1451.68 Q778.677 1444.57 781.16 1440.85 Q783.662 1437.11 788.382 1437.11 Z" fill="#000000" fill-rule="evenodd" fill-opacity="1" /><path clip-path="url(#clip710)" d="M 0 0 M1010.96 1489.17 L1018.6 1489.17 L1018.6 1462.8 L1010.29 1464.47 L1010.29 1460.21 L1018.55 1458.54 L1023.23 1458.54 L1023.23 1489.17 L1030.87 1489.17 L1030.87 1493.1 L1010.96 1493.1 L1010.96 1489.17 Z" fill="#000000" fill-rule="evenodd" fill-opacity="1" /><path clip-path="url(#clip710)" d="M 0 0 M1045.94 1461.62 Q1042.33 1461.62 1040.5 1465.19 Q1038.69 1468.73 1038.69 1475.86 Q1038.69 1482.97 1040.5 1486.53 Q1042.33 1490.07 1045.94 1490.07 Q1049.57 1490.07 1051.38 1486.53 Q1053.21 1482.97 1053.21 1475.86 Q1053.21 1468.73 1051.38 1465.19 Q1049.57 1461.62 1045.94 1461.62 M1045.94 1457.92 Q1051.75 1457.92 1054.8 1462.53 Q1057.88 1467.11 1057.88 1475.86 Q1057.88 1484.59 1054.8 1489.19 Q1051.75 1493.78 1045.94 1493.78 Q1040.13 1493.78 1037.05 1489.19 Q1033.99 1484.59 1033.99 1475.86 Q1033.99 1467.11 1037.05 1462.53 Q1040.13 1457.92 1045.94 1457.92 Z" fill="#000000" fill-rule="evenodd" fill-opacity="1" /><path clip-path="url(#clip710)" d="M 0 0 M1067.59 1440.11 Q1064.65 1440.11 1063.17 1443.01 Q1061.7 1445.89 1061.7 1451.68 Q1061.7 1457.46 1063.17 1460.35 Q1064.65 1463.23 1067.59 1463.23 Q1070.54 1463.23 1072.01 1460.35 Q1073.49 1457.46 1073.49 1451.68 Q1073.49 1445.89 1072.01 1443.01 Q1070.54 1440.11 1067.59 1440.11 M1067.59 1437.11 Q1072.31 1437.11 1074.79 1440.85 Q1077.29 1444.57 1077.29 1451.68 Q1077.29 1458.77 1074.79 1462.51 Q1072.31 1466.24 1067.59 1466.24 Q1062.87 1466.24 1060.37 1462.51 Q1057.88 1458.77 1057.88 1451.68 Q1057.88 1444.57 1060.37 1440.85 Q1062.87 1437.11 1067.59 1437.11 Z" fill="#000000" fill-rule="evenodd" fill-opacity="1" /><path clip-path="url(#clip710)" d="M 0 0 M1081.41 1460.92 L1085.38 1460.92 L1085.38 1465.69 L1081.41 1465.69 L1081.41 1460.92 Z" fill="#000000" fill-rule="evenodd" fill-opacity="1" /><path clip-path="url(#clip710)" d="M 0 0 M1092.77 1462.5 L1106.03 1462.5 L1106.03 1465.69 L1088.2 1465.69 L1088.2 1462.5 Q1090.36 1460.26 1094.09 1456.5 Q1097.83 1452.72 1098.79 1451.63 Q1100.61 1449.58 1101.33 1448.16 Q1102.06 1446.74 1102.06 1445.36 Q1102.06 1443.12 1100.48 1441.71 Q1098.92 1440.3 1096.4 1440.3 Q1094.61 1440.3 1092.62 1440.92 Q1090.65 1441.54 1088.39 1442.8 L1088.39 1438.97 Q1090.68 1438.05 1092.68 1437.58 Q1094.67 1437.11 1096.33 1437.11 Q1100.69 1437.11 1103.29 1439.29 Q1105.88 1441.47 1105.88 1445.12 Q1105.88 1446.85 1105.22 1448.41 Q1104.58 1449.95 1102.87 1452.06 Q1102.4 1452.6 1099.88 1455.22 Q1097.36 1457.81 1092.77 1462.5 Z" fill="#000000" fill-rule="evenodd" fill-opacity="1" /><path clip-path="url(#clip710)" d="M 0 0 M1318.71 1489.17 L1326.35 1489.17 L1326.35 1462.8 L1318.04 1464.47 L1318.04 1460.21 L1326.3 1458.54 L1330.98 1458.54 L1330.98 1489.17 L1338.62 1489.17 L1338.62 1493.1 L1318.71 1493.1 L1318.71 1489.17 Z" fill="#000000" fill-rule="evenodd" fill-opacity="1" /><path clip-path="url(#clip710)" d="M 0 0 M1353.69 1461.62 Q1350.07 1461.62 1348.25 1465.19 Q1346.44 1468.73 1346.44 1475.86 Q1346.44 1482.97 1348.25 1486.53 Q1350.07 1490.07 1353.69 1490.07 Q1357.32 1490.07 1359.13 1486.53 Q1360.95 1482.97 1360.95 1475.86 Q1360.95 1468.73 1359.13 1465.19 Q1357.32 1461.62 1353.69 1461.62 M1353.69 1457.92 Q1359.5 1457.92 1362.55 1462.53 Q1365.63 1467.11 1365.63 1475.86 Q1365.63 1484.59 1362.55 1489.19 Q1359.5 1493.78 1353.69 1493.78 Q1347.88 1493.78 1344.8 1489.19 Q1341.74 1484.59 1341.74 1475.86 Q1341.74 1467.11 1344.8 1462.53 Q1347.88 1457.92 1353.69 1457.92 Z" fill="#000000" fill-rule="evenodd" fill-opacity="1" /><path clip-path="url(#clip710)" d="M 0 0 M1375.33 1440.11 Q1372.4 1440.11 1370.91 1443.01 Q1369.45 1445.89 1369.45 1451.68 Q1369.45 1457.46 1370.91 1460.35 Q1372.4 1463.23 1375.33 1463.23 Q1378.29 1463.23 1379.75 1460.35 Q1381.24 1457.46 1381.24 1451.68 Q1381.24 1445.89 1379.75 1443.01 Q1378.29 1440.11 1375.33 1440.11 M1375.33 1437.11 Q1380.06 1437.11 1382.54 1440.85 Q1385.04 1444.57 1385.04 1451.68 Q1385.04 1458.77 1382.54 1462.51 Q1380.06 1466.24 1375.33 1466.24 Q1370.61 1466.24 1368.11 1462.51 Q1365.63 1458.77 1365.63 1451.68 Q1365.63 1444.57 1368.11 1440.85 Q1370.61 1437.11 1375.33 1437.11 Z" fill="#000000" fill-rule="evenodd" fill-opacity="1" /><path clip-path="url(#clip710)" d="M 0 0 M1389.16 1460.92 L1393.13 1460.92 L1393.13 1465.69 L1389.16 1465.69 L1389.16 1460.92 Z" fill="#000000" fill-rule="evenodd" fill-opacity="1" /><path clip-path="url(#clip710)" d="M 0 0 M1407.68 1440.92 L1398.09 1455.91 L1407.68 1455.91 L1407.68 1440.92 M1406.69 1437.61 L1411.46 1437.61 L1411.46 1455.91 L1415.47 1455.91 L1415.47 1459.07 L1411.46 1459.07 L1411.46 1465.69 L1407.68 1465.69 L1407.68 1459.07 L1395.01 1459.07 L1395.01 1455.41 L1406.69 1437.61 Z" fill="#000000" fill-rule="evenodd" fill-opacity="1" /><path clip-path="url(#clip710)" d="M 0 0 M1627.43 1489.17 L1635.07 1489.17 L1635.07 1462.8 L1626.76 1464.47 L1626.76 1460.21 L1635.03 1458.54 L1639.7 1458.54 L1639.7 1489.17 L1647.34 1489.17 L1647.34 1493.1 L1627.43 1493.1 L1627.43 1489.17 Z" fill="#000000" fill-rule="evenodd" fill-opacity="1" /><path clip-path="url(#clip710)" d="M 0 0 M1662.41 1461.62 Q1658.8 1461.62 1656.97 1465.19 Q1655.16 1468.73 1655.16 1475.86 Q1655.16 1482.97 1656.97 1486.53 Q1658.8 1490.07 1662.41 1490.07 Q1666.04 1490.07 1667.85 1486.53 Q1669.68 1482.97 1669.68 1475.86 Q1669.68 1468.73 1667.85 1465.19 Q1666.04 1461.62 1662.41 1461.62 M1662.41 1457.92 Q1668.22 1457.92 1671.28 1462.53 Q1674.35 1467.11 1674.35 1475.86 Q1674.35 1484.59 1671.28 1489.19 Q1668.22 1493.78 1662.41 1493.78 Q1656.6 1493.78 1653.52 1489.19 Q1650.47 1484.59 1650.47 1475.86 Q1650.47 1467.11 1653.52 1462.53 Q1656.6 1457.92 1662.41 1457.92 Z" fill="#000000" fill-rule="evenodd" fill-opacity="1" /><path clip-path="url(#clip710)" d="M 0 0 M1684.06 1440.11 Q1681.13 1440.11 1679.64 1443.01 Q1678.17 1445.89 1678.17 1451.68 Q1678.17 1457.46 1679.64 1460.35 Q1681.13 1463.23 1684.06 1463.23 Q1687.01 1463.23 1688.48 1460.35 Q1689.96 1457.46 1689.96 1451.68 Q1689.96 1445.89 1688.48 1443.01 Q1687.01 1440.11 1684.06 1440.11 M1684.06 1437.11 Q1688.78 1437.11 1691.26 1440.85 Q1693.76 1444.57 1693.76 1451.68 Q1693.76 1458.77 1691.26 1462.51 Q1688.78 1466.24 1684.06 1466.24 Q1679.34 1466.24 1676.84 1462.51 Q1674.35 1458.77 1674.35 1451.68 Q1674.35 1444.57 1676.84 1440.85 Q1679.34 1437.11 1684.06 1437.11 Z" fill="#000000" fill-rule="evenodd" fill-opacity="1" /><path clip-path="url(#clip710)" d="M 0 0 M1697.88 1460.92 L1701.85 1460.92 L1701.85 1465.69 L1697.88 1465.69 L1697.88 1460.92 Z" fill="#000000" fill-rule="evenodd" fill-opacity="1" /><path clip-path="url(#clip710)" d="M 0 0 M1714.57 1450.14 Q1712.01 1450.14 1710.5 1451.89 Q1709.02 1453.64 1709.02 1456.68 Q1709.02 1459.71 1710.5 1461.48 Q1712.01 1463.23 1714.57 1463.23 Q1717.12 1463.23 1718.61 1461.48 Q1720.11 1459.71 1720.11 1456.68 Q1720.11 1453.64 1718.61 1451.89 Q1717.12 1450.14 1714.57 1450.14 M1722.11 1438.23 L1722.11 1441.69 Q1720.68 1441.02 1719.21 1440.66 Q1717.76 1440.3 1716.33 1440.3 Q1712.57 1440.3 1710.58 1442.84 Q1708.6 1445.38 1708.32 1450.52 Q1709.43 1448.88 1711.1 1448.01 Q1712.78 1447.13 1714.79 1447.13 Q1719.02 1447.13 1721.47 1449.71 Q1723.93 1452.26 1723.93 1456.68 Q1723.93 1461.01 1721.37 1463.62 Q1718.82 1466.24 1714.57 1466.24 Q1709.69 1466.24 1707.12 1462.51 Q1704.54 1458.77 1704.54 1451.68 Q1704.54 1445.02 1707.7 1441.07 Q1710.86 1437.11 1716.18 1437.11 Q1717.61 1437.11 1719.06 1437.39 Q1720.53 1437.67 1722.11 1438.23 Z" fill="#000000" fill-rule="evenodd" fill-opacity="1" /><path clip-path="url(#clip710)" d="M 0 0 M1936.13 1489.17 L1943.77 1489.17 L1943.77 1462.8 L1935.46 1464.47 L1935.46 1460.21 L1943.72 1458.54 L1948.4 1458.54 L1948.4 1489.17 L1956.04 1489.17 L1956.04 1493.1 L1936.13 1493.1 L1936.13 1489.17 Z" fill="#000000" fill-rule="evenodd" fill-opacity="1" /><path clip-path="url(#clip710)" d="M 0 0 M1971.11 1461.62 Q1967.5 1461.62 1965.67 1465.19 Q1963.86 1468.73 1963.86 1475.86 Q1963.86 1482.97 1965.67 1486.53 Q1967.5 1490.07 1971.11 1490.07 Q1974.74 1490.07 1976.55 1486.53 Q1978.37 1482.97 1978.37 1475.86 Q1978.37 1468.73 1976.55 1465.19 Q1974.74 1461.62 1971.11 1461.62 M1971.11 1457.92 Q1976.92 1457.92 1979.97 1462.53 Q1983.05 1467.11 1983.05 1475.86 Q1983.05 1484.59 1979.97 1489.19 Q1976.92 1493.78 1971.11 1493.78 Q1965.3 1493.78 1962.22 1489.19 Q1959.16 1484.59 1959.16 1475.86 Q1959.16 1467.11 1962.22 1462.53 Q1965.3 1457.92 1971.11 1457.92 Z" fill="#000000" fill-rule="evenodd" fill-opacity="1" /><path clip-path="url(#clip710)" d="M 0 0 M1992.76 1440.11 Q1989.82 1440.11 1988.34 1443.01 Q1986.87 1445.89 1986.87 1451.68 Q1986.87 1457.46 1988.34 1460.35 Q1989.82 1463.23 1992.76 1463.23 Q1995.71 1463.23 1997.18 1460.35 Q1998.66 1457.46 1998.66 1451.68 Q1998.66 1445.89 1997.18 1443.01 Q1995.71 1440.11 1992.76 1440.11 M1992.76 1437.11 Q1997.48 1437.11 1999.96 1440.85 Q2002.46 1444.57 2002.46 1451.68 Q2002.46 1458.77 1999.96 1462.51 Q1997.48 1466.24 1992.76 1466.24 Q1988.03 1466.24 1985.53 1462.51 Q1983.05 1458.77 1983.05 1451.68 Q1983.05 1444.57 1985.53 1440.85 Q1988.03 1437.11 1992.76 1437.11 Z" fill="#000000" fill-rule="evenodd" fill-opacity="1" /><path clip-path="url(#clip710)" d="M 0 0 M2006.58 1460.92 L2010.55 1460.92 L2010.55 1465.69 L2006.58 1465.69 L2006.58 1460.92 Z" fill="#000000" fill-rule="evenodd" fill-opacity="1" /><path clip-path="url(#clip710)" d="M 0 0 M2022.79 1452.36 Q2020.08 1452.36 2018.52 1453.81 Q2016.98 1455.26 2016.98 1457.79 Q2016.98 1460.33 2018.52 1461.78 Q2020.08 1463.23 2022.79 1463.23 Q2025.5 1463.23 2027.06 1461.78 Q2028.62 1460.31 2028.62 1457.79 Q2028.62 1455.26 2027.06 1453.81 Q2025.52 1452.36 2022.79 1452.36 M2018.99 1450.74 Q2016.55 1450.14 2015.17 1448.47 Q2013.82 1446.79 2013.82 1444.38 Q2013.82 1441.02 2016.21 1439.06 Q2018.62 1437.11 2022.79 1437.11 Q2026.99 1437.11 2029.37 1439.06 Q2031.76 1441.02 2031.76 1444.38 Q2031.76 1446.79 2030.39 1448.47 Q2029.04 1450.14 2026.61 1450.74 Q2029.36 1451.38 2030.88 1453.24 Q2032.42 1455.1 2032.42 1457.79 Q2032.42 1461.88 2029.92 1464.06 Q2027.44 1466.24 2022.79 1466.24 Q2018.15 1466.24 2015.64 1464.06 Q2013.16 1461.88 2013.16 1457.79 Q2013.16 1455.1 2014.7 1453.24 Q2016.25 1451.38 2018.99 1450.74 M2017.6 1444.74 Q2017.6 1446.92 2018.95 1448.15 Q2020.33 1449.37 2022.79 1449.37 Q2025.24 1449.37 2026.61 1448.15 Q2028 1446.92 2028 1444.74 Q2028 1442.56 2026.61 1441.34 Q2025.24 1440.11 2022.79 1440.11 Q2020.33 1440.11 2018.95 1441.34 Q2017.6 1442.56 2017.6 1444.74 Z" fill="#000000" fill-rule="evenodd" fill-opacity="1" /><path clip-path="url(#clip710)" d="M 0 0 M2246.03 1489.17 L2253.67 1489.17 L2253.67 1462.8 L2245.36 1464.47 L2245.36 1460.21 L2253.62 1458.54 L2258.3 1458.54 L2258.3 1489.17 L2265.94 1489.17 L2265.94 1493.1 L2246.03 1493.1 L2246.03 1489.17 Z" fill="#000000" fill-rule="evenodd" fill-opacity="1" /><path clip-path="url(#clip710)" d="M 0 0 M2281.01 1461.62 Q2277.4 1461.62 2275.57 1465.19 Q2273.76 1468.73 2273.76 1475.86 Q2273.76 1482.97 2275.57 1486.53 Q2277.4 1490.07 2281.01 1490.07 Q2284.64 1490.07 2286.45 1486.53 Q2288.27 1482.97 2288.27 1475.86 Q2288.27 1468.73 2286.45 1465.19 Q2284.64 1461.62 2281.01 1461.62 M2281.01 1457.92 Q2286.82 1457.92 2289.87 1462.53 Q2292.95 1467.11 2292.95 1475.86 Q2292.95 1484.59 2289.87 1489.19 Q2286.82 1493.78 2281.01 1493.78 Q2275.2 1493.78 2272.12 1489.19 Q2269.06 1484.59 2269.06 1475.86 Q2269.06 1467.11 2272.12 1462.53 Q2275.2 1457.92 2281.01 1457.92 Z" fill="#000000" fill-rule="evenodd" fill-opacity="1" /><path clip-path="url(#clip710)" d="M 0 0 M2293.5 1462.5 L2299.7 1462.5 L2299.7 1441.07 L2292.95 1442.43 L2292.95 1438.97 L2299.67 1437.61 L2303.46 1437.61 L2303.46 1462.5 L2309.67 1462.5 L2309.67 1465.69 L2293.5 1465.69 L2293.5 1462.5 Z" fill="#000000" fill-rule="evenodd" fill-opacity="1" /><path clip-path="url(#clip710)" d="M 0 0 M2313.79 1460.92 L2317.76 1460.92 L2317.76 1465.69 L2313.79 1465.69 L2313.79 1460.92 Z" fill="#000000" fill-rule="evenodd" fill-opacity="1" /><path clip-path="url(#clip710)" d="M 0 0 M2330 1440.11 Q2327.07 1440.11 2325.58 1443.01 Q2324.12 1445.89 2324.12 1451.68 Q2324.12 1457.46 2325.58 1460.35 Q2327.07 1463.23 2330 1463.23 Q2332.95 1463.23 2334.42 1460.35 Q2335.91 1457.46 2335.91 1451.68 Q2335.91 1445.89 2334.42 1443.01 Q2332.95 1440.11 2330 1440.11 M2330 1437.11 Q2334.72 1437.11 2337.21 1440.85 Q2339.71 1444.57 2339.71 1451.68 Q2339.71 1458.77 2337.21 1462.51 Q2334.72 1466.24 2330 1466.24 Q2325.28 1466.24 2322.78 1462.51 Q2320.3 1458.77 2320.3 1451.68 Q2320.3 1444.57 2322.78 1440.85 Q2325.28 1437.11 2330 1437.11 Z" fill="#000000" fill-rule="evenodd" fill-opacity="1" /><path clip-path="url(#clip710)" d="M 0 0 M1294.02 1545.6 L1292.61 1538.25 Q1291.18 1530.71 1285.52 1530.71 Q1281.25 1530.71 1279.31 1534.21 Q1276.86 1538.6 1276.86 1544.39 Q1276.86 1551.4 1279.25 1554.74 Q1281.67 1558.14 1285.52 1558.14 Q1289.78 1558.14 1292.07 1551.36 L1294.02 1545.6 M1297.29 1535.86 L1300.44 1526.54 L1305.66 1526.54 L1299.14 1545.86 L1300.41 1552.83 Q1300.7 1554.39 1301.81 1555.69 Q1303.12 1557.22 1304.14 1557.22 L1306.94 1557.22 L1306.94 1562.19 L1303.44 1562.19 Q1300.44 1562.19 1297.77 1559.51 Q1296.47 1558.18 1295.92 1555.37 Q1294.46 1558.91 1291.47 1561.68 Q1290.07 1562.98 1285.52 1562.98 Q1278.04 1562.98 1274.41 1558.14 Q1270.68 1553.15 1270.68 1544.39 Q1270.68 1535.04 1274.73 1530.64 Q1279.21 1525.74 1285.52 1525.74 Q1295.42 1525.74 1297.29 1535.86 Z" fill="#000000" fill-rule="evenodd" fill-opacity="1" /><polyline clip-path="url(#clip712)" style="stroke:#000000; stroke-width:2; stroke-opacity:0.1; fill:none" points="
  224.866,1264.44 2352.76,1264.44 
  "/>
<polyline clip-path="url(#clip712)" style="stroke:#000000; stroke-width:2; stroke-opacity:0.1; fill:none" points="
  224.866,1074.11 2352.76,1074.11 
  "/>
<polyline clip-path="url(#clip712)" style="stroke:#000000; stroke-width:2; stroke-opacity:0.1; fill:none" points="
  224.866,883.776 2352.76,883.776 
  "/>
<polyline clip-path="url(#clip712)" style="stroke:#000000; stroke-width:2; stroke-opacity:0.1; fill:none" points="
  224.866,693.442 2352.76,693.442 
  "/>
<polyline clip-path="url(#clip712)" style="stroke:#000000; stroke-width:2; stroke-opacity:0.1; fill:none" points="
  224.866,503.108 2352.76,503.108 
  "/>
<polyline clip-path="url(#clip712)" style="stroke:#000000; stroke-width:2; stroke-opacity:0.1; fill:none" points="
  224.866,312.774 2352.76,312.774 
  "/>
<polyline clip-path="url(#clip712)" style="stroke:#000000; stroke-width:2; stroke-opacity:0.1; fill:none" points="
  224.866,122.44 2352.76,122.44 
  "/>
<polyline clip-path="url(#clip710)" style="stroke:#000000; stroke-width:4; stroke-opacity:1; fill:none" points="
  224.866,1410.9 224.866,47.2441 
  "/>
<polyline clip-path="url(#clip710)" style="stroke:#000000; stroke-width:4; stroke-opacity:1; fill:none" points="
  224.866,1264.44 250.401,1264.44 
  "/>
<polyline clip-path="url(#clip710)" style="stroke:#000000; stroke-width:4; stroke-opacity:1; fill:none" points="
  224.866,1074.11 250.401,1074.11 
  "/>
<polyline clip-path="url(#clip710)" style="stroke:#000000; stroke-width:4; stroke-opacity:1; fill:none" points="
  224.866,883.776 250.401,883.776 
  "/>
<polyline clip-path="url(#clip710)" style="stroke:#000000; stroke-width:4; stroke-opacity:1; fill:none" points="
  224.866,693.442 250.401,693.442 
  "/>
<polyline clip-path="url(#clip710)" style="stroke:#000000; stroke-width:4; stroke-opacity:1; fill:none" points="
  224.866,503.108 250.401,503.108 
  "/>
<polyline clip-path="url(#clip710)" style="stroke:#000000; stroke-width:4; stroke-opacity:1; fill:none" points="
  224.866,312.774 250.401,312.774 
  "/>
<polyline clip-path="url(#clip710)" style="stroke:#000000; stroke-width:4; stroke-opacity:1; fill:none" points="
  224.866,122.44 250.401,122.44 
  "/>
<path clip-path="url(#clip710)" d="M 0 0 M146.529 1277.79 L162.848 1277.79 L162.848 1281.72 L140.904 1281.72 L140.904 1277.79 Q143.566 1275.03 148.149 1270.4 Q152.755 1265.75 153.936 1264.41 Q156.181 1261.89 157.061 1260.15 Q157.964 1258.39 157.964 1256.7 Q157.964 1253.95 156.019 1252.21 Q154.098 1250.47 150.996 1250.47 Q148.797 1250.47 146.343 1251.24 Q143.913 1252 141.135 1253.55 L141.135 1248.83 Q143.959 1247.7 146.413 1247.12 Q148.866 1246.54 150.903 1246.54 Q156.274 1246.54 159.468 1249.22 Q162.663 1251.91 162.663 1256.4 Q162.663 1258.53 161.852 1260.45 Q161.065 1262.35 158.959 1264.94 Q158.38 1265.61 155.278 1268.83 Q152.177 1272.03 146.529 1277.79 Z" fill="#000000" fill-rule="evenodd" fill-opacity="1" /><path clip-path="url(#clip710)" d="M 0 0 M167.964 1247.16 L186.32 1247.16 L186.32 1251.1 L172.246 1251.1 L172.246 1259.57 Q173.264 1259.22 174.283 1259.06 Q175.301 1258.88 176.32 1258.88 Q182.107 1258.88 185.487 1262.05 Q188.866 1265.22 188.866 1270.64 Q188.866 1276.21 185.394 1279.32 Q181.922 1282.4 175.602 1282.4 Q173.427 1282.4 171.158 1282.03 Q168.913 1281.65 166.505 1280.91 L166.505 1276.21 Q168.589 1277.35 170.811 1277.9 Q173.033 1278.46 175.51 1278.46 Q179.514 1278.46 181.852 1276.35 Q184.19 1274.25 184.19 1270.64 Q184.19 1267.03 181.852 1264.92 Q179.514 1262.81 175.51 1262.81 Q173.635 1262.81 171.76 1263.23 Q169.908 1263.65 167.964 1264.53 L167.964 1247.16 Z" fill="#000000" fill-rule="evenodd" fill-opacity="1" /><path clip-path="url(#clip710)" d="M 0 0 M140.95 1056.83 L159.306 1056.83 L159.306 1060.77 L145.232 1060.77 L145.232 1069.24 Q146.251 1068.89 147.269 1068.73 Q148.288 1068.54 149.306 1068.54 Q155.093 1068.54 158.473 1071.71 Q161.852 1074.89 161.852 1080.3 Q161.852 1085.88 158.38 1088.98 Q154.908 1092.06 148.589 1092.06 Q146.413 1092.06 144.144 1091.69 Q141.899 1091.32 139.492 1090.58 L139.492 1085.88 Q141.575 1087.02 143.797 1087.57 Q146.019 1088.13 148.496 1088.13 Q152.501 1088.13 154.839 1086.02 Q157.177 1083.91 157.177 1080.3 Q157.177 1076.69 154.839 1074.58 Q152.501 1072.48 148.496 1072.48 Q146.621 1072.48 144.746 1072.89 Q142.894 1073.31 140.95 1074.19 L140.95 1056.83 Z" fill="#000000" fill-rule="evenodd" fill-opacity="1" /><path clip-path="url(#clip710)" d="M 0 0 M176.922 1059.91 Q173.311 1059.91 171.482 1063.47 Q169.677 1067.02 169.677 1074.14 Q169.677 1081.25 171.482 1084.82 Q173.311 1088.36 176.922 1088.36 Q180.556 1088.36 182.362 1084.82 Q184.19 1081.25 184.19 1074.14 Q184.19 1067.02 182.362 1063.47 Q180.556 1059.91 176.922 1059.91 M176.922 1056.21 Q182.732 1056.21 185.788 1060.81 Q188.866 1065.39 188.866 1074.14 Q188.866 1082.87 185.788 1087.48 Q182.732 1092.06 176.922 1092.06 Q171.112 1092.06 168.033 1087.48 Q164.977 1082.87 164.977 1074.14 Q164.977 1065.39 168.033 1060.81 Q171.112 1056.21 176.922 1056.21 Z" fill="#000000" fill-rule="evenodd" fill-opacity="1" /><path clip-path="url(#clip710)" d="M 0 0 M140.626 866.496 L162.848 866.496 L162.848 868.487 L150.302 901.056 L145.417 901.056 L157.223 870.431 L140.626 870.431 L140.626 866.496 Z" fill="#000000" fill-rule="evenodd" fill-opacity="1" /><path clip-path="url(#clip710)" d="M 0 0 M167.964 866.496 L186.32 866.496 L186.32 870.431 L172.246 870.431 L172.246 878.904 Q173.264 878.556 174.283 878.394 Q175.301 878.209 176.32 878.209 Q182.107 878.209 185.487 881.38 Q188.866 884.552 188.866 889.968 Q188.866 895.547 185.394 898.649 Q181.922 901.727 175.602 901.727 Q173.427 901.727 171.158 901.357 Q168.913 900.987 166.505 900.246 L166.505 895.547 Q168.589 896.681 170.811 897.237 Q173.033 897.792 175.51 897.792 Q179.514 897.792 181.852 895.686 Q184.19 893.579 184.19 889.968 Q184.19 886.357 181.852 884.251 Q179.514 882.144 175.51 882.144 Q173.635 882.144 171.76 882.561 Q169.908 882.978 167.964 883.857 L167.964 866.496 Z" fill="#000000" fill-rule="evenodd" fill-opacity="1" /><path clip-path="url(#clip710)" d="M 0 0 M114.931 706.787 L122.57 706.787 L122.57 680.421 L114.26 682.088 L114.26 677.829 L122.524 676.162 L127.2 676.162 L127.2 706.787 L134.839 706.787 L134.839 710.722 L114.931 710.722 L114.931 706.787 Z" fill="#000000" fill-rule="evenodd" fill-opacity="1" /><path clip-path="url(#clip710)" d="M 0 0 M149.908 679.241 Q146.297 679.241 144.468 682.806 Q142.663 686.347 142.663 693.477 Q142.663 700.583 144.468 704.148 Q146.297 707.69 149.908 707.69 Q153.542 707.69 155.348 704.148 Q157.177 700.583 157.177 693.477 Q157.177 686.347 155.348 682.806 Q153.542 679.241 149.908 679.241 M149.908 675.537 Q155.718 675.537 158.774 680.144 Q161.852 684.727 161.852 693.477 Q161.852 702.204 158.774 706.81 Q155.718 711.393 149.908 711.393 Q144.098 711.393 141.019 706.81 Q137.964 702.204 137.964 693.477 Q137.964 684.727 141.019 680.144 Q144.098 675.537 149.908 675.537 Z" fill="#000000" fill-rule="evenodd" fill-opacity="1" /><path clip-path="url(#clip710)" d="M 0 0 M176.922 679.241 Q173.311 679.241 171.482 682.806 Q169.677 686.347 169.677 693.477 Q169.677 700.583 171.482 704.148 Q173.311 707.69 176.922 707.69 Q180.556 707.69 182.362 704.148 Q184.19 700.583 184.19 693.477 Q184.19 686.347 182.362 682.806 Q180.556 679.241 176.922 679.241 M176.922 675.537 Q182.732 675.537 185.788 680.144 Q188.866 684.727 188.866 693.477 Q188.866 702.204 185.788 706.81 Q182.732 711.393 176.922 711.393 Q171.112 711.393 168.033 706.81 Q164.977 702.204 164.977 693.477 Q164.977 684.727 168.033 680.144 Q171.112 675.537 176.922 675.537 Z" fill="#000000" fill-rule="evenodd" fill-opacity="1" /><path clip-path="url(#clip710)" d="M 0 0 M117.524 516.453 L125.163 516.453 L125.163 490.087 L116.853 491.754 L116.853 487.495 L125.117 485.828 L129.792 485.828 L129.792 516.453 L137.431 516.453 L137.431 520.388 L117.524 520.388 L117.524 516.453 Z" fill="#000000" fill-rule="evenodd" fill-opacity="1" /><path clip-path="url(#clip710)" d="M 0 0 M146.529 516.453 L162.848 516.453 L162.848 520.388 L140.904 520.388 L140.904 516.453 Q143.566 513.698 148.149 509.069 Q152.755 504.416 153.936 503.073 Q156.181 500.55 157.061 498.814 Q157.964 497.055 157.964 495.365 Q157.964 492.611 156.019 490.874 Q154.098 489.138 150.996 489.138 Q148.797 489.138 146.343 489.902 Q143.913 490.666 141.135 492.217 L141.135 487.495 Q143.959 486.361 146.413 485.782 Q148.866 485.203 150.903 485.203 Q156.274 485.203 159.468 487.888 Q162.663 490.574 162.663 495.064 Q162.663 497.194 161.852 499.115 Q161.065 501.013 158.959 503.606 Q158.38 504.277 155.278 507.495 Q152.177 510.689 146.529 516.453 Z" fill="#000000" fill-rule="evenodd" fill-opacity="1" /><path clip-path="url(#clip710)" d="M 0 0 M167.964 485.828 L186.32 485.828 L186.32 489.763 L172.246 489.763 L172.246 498.235 Q173.264 497.888 174.283 497.726 Q175.301 497.541 176.32 497.541 Q182.107 497.541 185.487 500.712 Q188.866 503.884 188.866 509.3 Q188.866 514.879 185.394 517.981 Q181.922 521.059 175.602 521.059 Q173.427 521.059 171.158 520.689 Q168.913 520.319 166.505 519.578 L166.505 514.879 Q168.589 516.013 170.811 516.569 Q173.033 517.124 175.51 517.124 Q179.514 517.124 181.852 515.018 Q184.19 512.911 184.19 509.3 Q184.19 505.689 181.852 503.583 Q179.514 501.476 175.51 501.476 Q173.635 501.476 171.76 501.893 Q169.908 502.31 167.964 503.189 L167.964 485.828 Z" fill="#000000" fill-rule="evenodd" fill-opacity="1" /><path clip-path="url(#clip710)" d="M 0 0 M115.927 326.119 L123.566 326.119 L123.566 299.753 L115.256 301.42 L115.256 297.161 L123.519 295.494 L128.195 295.494 L128.195 326.119 L135.834 326.119 L135.834 330.054 L115.927 330.054 L115.927 326.119 Z" fill="#000000" fill-rule="evenodd" fill-opacity="1" /><path clip-path="url(#clip710)" d="M 0 0 M140.95 295.494 L159.306 295.494 L159.306 299.429 L145.232 299.429 L145.232 307.901 Q146.251 307.554 147.269 307.392 Q148.288 307.207 149.306 307.207 Q155.093 307.207 158.473 310.378 Q161.852 313.55 161.852 318.966 Q161.852 324.545 158.38 327.647 Q154.908 330.725 148.589 330.725 Q146.413 330.725 144.144 330.355 Q141.899 329.985 139.492 329.244 L139.492 324.545 Q141.575 325.679 143.797 326.235 Q146.019 326.79 148.496 326.79 Q152.501 326.79 154.839 324.684 Q157.177 322.577 157.177 318.966 Q157.177 315.355 154.839 313.249 Q152.501 311.142 148.496 311.142 Q146.621 311.142 144.746 311.559 Q142.894 311.976 140.95 312.855 L140.95 295.494 Z" fill="#000000" fill-rule="evenodd" fill-opacity="1" /><path clip-path="url(#clip710)" d="M 0 0 M176.922 298.573 Q173.311 298.573 171.482 302.138 Q169.677 305.679 169.677 312.809 Q169.677 319.915 171.482 323.48 Q173.311 327.022 176.922 327.022 Q180.556 327.022 182.362 323.48 Q184.19 319.915 184.19 312.809 Q184.19 305.679 182.362 302.138 Q180.556 298.573 176.922 298.573 M176.922 294.869 Q182.732 294.869 185.788 299.476 Q188.866 304.059 188.866 312.809 Q188.866 321.536 185.788 326.142 Q182.732 330.725 176.922 330.725 Q171.112 330.725 168.033 326.142 Q164.977 321.536 164.977 312.809 Q164.977 304.059 168.033 299.476 Q171.112 294.869 176.922 294.869 Z" fill="#000000" fill-rule="evenodd" fill-opacity="1" /><path clip-path="url(#clip710)" d="M 0 0 M116.83 135.785 L124.468 135.785 L124.468 109.419 L116.158 111.086 L116.158 106.827 L124.422 105.16 L129.098 105.16 L129.098 135.785 L136.737 135.785 L136.737 139.72 L116.83 139.72 L116.83 135.785 Z" fill="#000000" fill-rule="evenodd" fill-opacity="1" /><path clip-path="url(#clip710)" d="M 0 0 M140.626 105.16 L162.848 105.16 L162.848 107.151 L150.302 139.72 L145.417 139.72 L157.223 109.095 L140.626 109.095 L140.626 105.16 Z" fill="#000000" fill-rule="evenodd" fill-opacity="1" /><path clip-path="url(#clip710)" d="M 0 0 M167.964 105.16 L186.32 105.16 L186.32 109.095 L172.246 109.095 L172.246 117.567 Q173.264 117.22 174.283 117.058 Q175.301 116.873 176.32 116.873 Q182.107 116.873 185.487 120.044 Q188.866 123.216 188.866 128.632 Q188.866 134.211 185.394 137.313 Q181.922 140.391 175.602 140.391 Q173.427 140.391 171.158 140.021 Q168.913 139.651 166.505 138.91 L166.505 134.211 Q168.589 135.345 170.811 135.901 Q173.033 136.456 175.51 136.456 Q179.514 136.456 181.852 134.35 Q184.19 132.243 184.19 128.632 Q184.19 125.021 181.852 122.915 Q179.514 120.808 175.51 120.808 Q173.635 120.808 171.76 121.225 Q169.908 121.642 167.964 122.521 L167.964 105.16 Z" fill="#000000" fill-rule="evenodd" fill-opacity="1" /><path clip-path="url(#clip710)" d="M 0 0 M59.1993 815.533 Q55.2526 813.336 53.3747 810.281 Q51.4968 807.225 51.4968 803.088 Q51.4968 797.518 55.4117 794.494 Q59.2948 791.47 66.4881 791.47 L88.0042 791.47 L88.0042 797.358 L66.679 797.358 Q61.5546 797.358 59.072 799.173 Q56.5894 800.987 56.5894 804.711 Q56.5894 809.262 59.6131 811.904 Q62.6368 814.546 67.8567 814.546 L88.0042 814.546 L88.0042 820.434 L66.679 820.434 Q61.5228 820.434 59.072 822.248 Q56.5894 824.063 56.5894 827.85 Q56.5894 832.338 59.6449 834.98 Q62.6686 837.622 67.8567 837.622 L88.0042 837.622 L88.0042 843.51 L52.3562 843.51 L52.3562 837.622 L57.8944 837.622 Q54.616 835.616 53.0564 832.815 Q51.4968 830.015 51.4968 826.163 Q51.4968 822.28 53.4702 819.575 Q55.4436 816.838 59.1993 815.533 Z" fill="#000000" fill-rule="evenodd" fill-opacity="1" /><path clip-path="url(#clip710)" d="M 0 0 M52.3562 785.327 L52.3562 779.471 L88.0042 779.471 L88.0042 785.327 L52.3562 785.327 M38.479 785.327 L38.479 779.471 L45.895 779.471 L45.895 785.327 L38.479 785.327 Z" fill="#000000" fill-rule="evenodd" fill-opacity="1" /><path clip-path="url(#clip710)" d="M 0 0 M66.4881 743.696 L88.0042 743.696 L88.0042 749.552 L66.679 749.552 Q61.6183 749.552 59.1038 751.525 Q56.5894 753.499 56.5894 757.446 Q56.5894 762.188 59.6131 764.925 Q62.6368 767.662 67.8567 767.662 L88.0042 767.662 L88.0042 773.551 L52.3562 773.551 L52.3562 767.662 L57.8944 767.662 Q54.6797 765.562 53.0883 762.729 Q51.4968 759.864 51.4968 756.141 Q51.4968 749.998 55.3163 746.847 Q59.1038 743.696 66.4881 743.696 Z" fill="#000000" fill-rule="evenodd" fill-opacity="1" /><path clip-path="url(#clip710)" d="M 0 0 M98.8259 710.467 L103.377 710.467 L103.377 744.332 L98.8259 744.332 L98.8259 710.467 Z" fill="#000000" fill-rule="evenodd" fill-opacity="1" /><path clip-path="url(#clip710)" d="M 0 0 M57.7671 680.866 L38.479 680.866 L38.479 675.01 L88.0042 675.01 L88.0042 680.866 L82.657 680.866 Q85.8398 682.712 87.3994 685.545 Q88.9272 688.346 88.9272 692.292 Q88.9272 698.754 83.771 702.828 Q78.6147 706.87 70.212 706.87 Q61.8093 706.87 56.6531 702.828 Q51.4968 698.754 51.4968 692.292 Q51.4968 688.346 53.0564 685.545 Q54.5842 682.712 57.7671 680.866 M70.212 700.823 Q76.6732 700.823 80.3653 698.181 Q84.0256 695.507 84.0256 690.86 Q84.0256 686.213 80.3653 683.54 Q76.6732 680.866 70.212 680.866 Q63.7508 680.866 60.0905 683.54 Q56.3984 686.213 56.3984 690.86 Q56.3984 695.507 60.0905 698.181 Q63.7508 700.823 70.212 700.823 Z" fill="#000000" fill-rule="evenodd" fill-opacity="1" /><path clip-path="url(#clip710)" d="M 0 0 M52.3562 668.867 L52.3562 663.01 L88.0042 663.01 L88.0042 668.867 L52.3562 668.867 M38.479 668.867 L38.479 663.01 L45.895 663.01 L45.895 668.867 L38.479 668.867 Z" fill="#000000" fill-rule="evenodd" fill-opacity="1" /><path clip-path="url(#clip710)" d="M 0 0 M38.479 638.821 L43.3487 638.821 L43.3487 644.422 Q43.3487 647.573 44.6219 648.815 Q45.895 650.024 49.2052 650.024 L52.3562 650.024 L52.3562 640.38 L56.9077 640.38 L56.9077 650.024 L88.0042 650.024 L88.0042 655.912 L56.9077 655.912 L56.9077 661.514 L52.3562 661.514 L52.3562 655.912 L49.8736 655.912 Q43.9216 655.912 41.2162 653.143 Q38.479 650.374 38.479 644.359 L38.479 638.821 Z" fill="#000000" fill-rule="evenodd" fill-opacity="1" /><path clip-path="url(#clip710)" d="M 0 0 M38.479 614.631 L43.3487 614.631 L43.3487 620.233 Q43.3487 623.384 44.6219 624.625 Q45.895 625.835 49.2052 625.835 L52.3562 625.835 L52.3562 616.19 L56.9077 616.19 L56.9077 625.835 L88.0042 625.835 L88.0042 631.723 L56.9077 631.723 L56.9077 637.325 L52.3562 637.325 L52.3562 631.723 L49.8736 631.723 Q43.9216 631.723 41.2162 628.954 Q38.479 626.185 38.479 620.169 L38.479 614.631 Z" fill="#000000" fill-rule="evenodd" fill-opacity="1" /><polyline clip-path="url(#clip712)" style="stroke:#009af9; stroke-width:20; stroke-opacity:1; fill:none" stroke-dasharray="80, 50" points="
  285.09,85.838 749.568,1365.49 1021.27,1372.3 1214.05,1365.5 1363.58,1342.85 1485.75,1320.37 1589.05,1313.46 1678.53,1266.22 1757.45,1249.96 1828.05,1258.43 
  1891.92,1263.75 1950.23,1267.03 2003.86,1268.96 2053.52,1269.97 2099.76,1270.37 2143,1270.34 2183.63,1270.01 2221.93,1269.49 2258.16,1268.82 2292.53,1268.07 
  
  "/>
<path clip-path="url(#clip710)" d="
M1994.38 213.659 L2281.83 213.659 L2281.83 92.6992 L1994.38 92.6992  Z
  " fill="#ffffff" fill-rule="evenodd" fill-opacity="1"/>
<polyline clip-path="url(#clip710)" style="stroke:#000000; stroke-width:4; stroke-opacity:1; fill:none" points="
  1994.38,213.659 2281.83,213.659 2281.83,92.6992 1994.38,92.6992 1994.38,213.659 
  "/>
<polyline clip-path="url(#clip710)" style="stroke:#009af9; stroke-width:4; stroke-opacity:1; fill:none" stroke-dasharray="16, 10" points="
  2018.02,153.179 2159.88,153.179 
  "/>
<path clip-path="url(#clip710)" d="M 0 0 M2197.36 172.867 Q2195.56 177.496 2193.85 178.908 Q2192.13 180.32 2189.26 180.32 L2185.86 180.32 L2185.86 176.755 L2188.36 176.755 Q2190.12 176.755 2191.09 175.922 Q2192.06 175.089 2193.24 171.987 L2194.01 170.043 L2183.52 144.533 L2188.04 144.533 L2196.14 164.811 L2204.24 144.533 L2208.75 144.533 L2197.36 172.867 Z" fill="#000000" fill-rule="evenodd" fill-opacity="1" /><path clip-path="url(#clip710)" d="M 0 0 M2214.63 166.524 L2222.27 166.524 L2222.27 140.158 L2213.96 141.825 L2213.96 137.566 L2222.23 135.899 L2226.9 135.899 L2226.9 166.524 L2234.54 166.524 L2234.54 170.459 L2214.63 170.459 L2214.63 166.524 Z" fill="#000000" fill-rule="evenodd" fill-opacity="1" /></svg>
