<?xml version="1.0" encoding="utf-8"?>
<svg xmlns="http://www.w3.org/2000/svg" xmlns:xlink="http://www.w3.org/1999/xlink" width="600" height="400" viewBox="0 0 2400 1600">
<defs>
  <clipPath id="clip330">
    <rect x="0" y="0" width="2400" height="1600"/>
  </clipPath>
</defs>
<path clip-path="url(#clip330)" d="
M0 1600 L2400 1600 L2400 0 L0 0  Z
  " fill="#ffffff" fill-rule="evenodd" fill-opacity="1"/>
<defs>
  <clipPath id="clip331">
    <rect x="480" y="0" width="1681" height="1600"/>
  </clipPath>
</defs>
<path clip-path="url(#clip330)" d="
M233.385 1410.9 L2352.76 1410.9 L2352.76 47.2441 L233.385 47.2441  Z
  " fill="#ffffff" fill-rule="evenodd" fill-opacity="1"/>
<defs>
  <clipPath id="clip332">
    <rect x="233" y="47" width="2120" height="1365"/>
  </clipPath>
</defs>
<polyline clip-path="url(#clip332)" style="stroke:#000000; stroke-width:2; stroke-opacity:0.1; fill:none" points="
  493.308,1410.9 493.308,47.2441 
  "/>
<polyline clip-path="url(#clip332)" style="stroke:#000000; stroke-width:2; stroke-opacity:0.1; fill:none" points="
  893.189,1410.9 893.189,47.2441 
  "/>
<polyline clip-path="url(#clip332)" style="stroke:#000000; stroke-width:2; stroke-opacity:0.1; fill:none" points="
  1293.07,1410.9 1293.07,47.2441 
  "/>
<polyline clip-path="url(#clip332)" style="stroke:#000000; stroke-width:2; stroke-opacity:0.1; fill:none" points="
  1692.95,1410.9 1692.95,47.2441 
  "/>
<polyline clip-path="url(#clip332)" style="stroke:#000000; stroke-width:2; stroke-opacity:0.1; fill:none" points="
  2092.83,1410.9 2092.83,47.2441 
  "/>
<polyline clip-path="url(#clip330)" style="stroke:#000000; stroke-width:4; stroke-opacity:1; fill:none" points="
  233.385,1410.9 2352.76,1410.9 
  "/>
<polyline clip-path="url(#clip330)" style="stroke:#000000; stroke-width:4; stroke-opacity:1; fill:none" points="
  493.308,1410.9 493.308,1394.53 
  "/>
<polyline clip-path="url(#clip330)" style="stroke:#000000; stroke-width:4; stroke-opacity:1; fill:none" points="
  893.189,1410.9 893.189,1394.53 
  "/>
<polyline clip-path="url(#clip330)" style="stroke:#000000; stroke-width:4; stroke-opacity:1; fill:none" points="
  1293.07,1410.9 1293.07,1394.53 
  "/>
<polyline clip-path="url(#clip330)" style="stroke:#000000; stroke-width:4; stroke-opacity:1; fill:none" points="
  1692.95,1410.9 1692.95,1394.53 
  "/>
<polyline clip-path="url(#clip330)" style="stroke:#000000; stroke-width:4; stroke-opacity:1; fill:none" points="
  2092.83,1410.9 2092.83,1394.53 
  "/>
<path clip-path="url(#clip330)" d="M 0 0 M432.2 1489.17 L439.839 1489.17 L439.839 1462.8 L431.529 1464.47 L431.529 1460.21 L439.793 1458.54 L444.469 1458.54 L444.469 1489.17 L452.108 1489.17 L452.108 1493.1 L432.2 1493.1 L432.2 1489.17 Z" fill="#000000" fill-rule="evenodd" fill-opacity="1" /><path clip-path="url(#clip330)" d="M 0 0 M467.177 1461.62 Q463.566 1461.62 461.737 1465.19 Q459.932 1468.73 459.932 1475.86 Q459.932 1482.97 461.737 1486.53 Q463.566 1490.07 467.177 1490.07 Q470.811 1490.07 472.617 1486.53 Q474.446 1482.97 474.446 1475.86 Q474.446 1468.73 472.617 1465.19 Q470.811 1461.62 467.177 1461.62 M467.177 1457.92 Q472.987 1457.92 476.043 1462.53 Q479.121 1467.11 479.121 1475.86 Q479.121 1484.59 476.043 1489.19 Q472.987 1493.78 467.177 1493.78 Q461.367 1493.78 458.288 1489.19 Q455.233 1484.59 455.233 1475.86 Q455.233 1467.11 458.288 1462.53 Q461.367 1457.92 467.177 1457.92 Z" fill="#000000" fill-rule="evenodd" fill-opacity="1" /><path clip-path="url(#clip330)" d="M 0 0 M479.121 1452.02 L503.233 1452.02 L503.233 1455.22 L479.121 1455.22 L479.121 1452.02 Z" fill="#000000" fill-rule="evenodd" fill-opacity="1" /><path clip-path="url(#clip330)" d="M 0 0 M518.862 1450.55 Q521.589 1451.14 523.113 1452.98 Q524.655 1454.82 524.655 1457.53 Q524.655 1461.69 521.796 1463.96 Q518.938 1466.24 513.671 1466.24 Q511.903 1466.24 510.023 1465.88 Q508.161 1465.54 506.167 1464.85 L506.167 1461.18 Q507.747 1462.1 509.628 1462.57 Q511.508 1463.04 513.558 1463.04 Q517.132 1463.04 518.994 1461.63 Q520.875 1460.22 520.875 1457.53 Q520.875 1455.05 519.126 1453.66 Q517.395 1452.25 514.292 1452.25 L511.019 1452.25 L511.019 1449.12 L514.442 1449.12 Q517.245 1449.12 518.731 1448.01 Q520.216 1446.89 520.216 1444.78 Q520.216 1442.62 518.674 1441.47 Q517.151 1440.3 514.292 1440.3 Q512.731 1440.3 510.944 1440.64 Q509.157 1440.98 507.013 1441.69 L507.013 1438.31 Q509.176 1437.71 511.057 1437.41 Q512.957 1437.11 514.631 1437.11 Q518.956 1437.11 521.477 1439.08 Q523.997 1441.04 523.997 1444.38 Q523.997 1446.72 522.661 1448.33 Q521.326 1449.93 518.862 1450.55 Z" fill="#000000" fill-rule="evenodd" fill-opacity="1" /><path clip-path="url(#clip330)" d="M 0 0 M528.774 1460.92 L532.742 1460.92 L532.742 1465.69 L528.774 1465.69 L528.774 1460.92 Z" fill="#000000" fill-rule="evenodd" fill-opacity="1" /><path clip-path="url(#clip330)" d="M 0 0 M547.3 1440.92 L537.708 1455.91 L547.3 1455.91 L547.3 1440.92 M546.303 1437.61 L551.08 1437.61 L551.08 1455.91 L555.086 1455.91 L555.086 1459.07 L551.08 1459.07 L551.08 1465.69 L547.3 1465.69 L547.3 1459.07 L534.623 1459.07 L534.623 1455.41 L546.303 1437.61 Z" fill="#000000" fill-rule="evenodd" fill-opacity="1" /><path clip-path="url(#clip330)" d="M 0 0 M832.928 1489.17 L840.567 1489.17 L840.567 1462.8 L832.257 1464.47 L832.257 1460.21 L840.521 1458.54 L845.197 1458.54 L845.197 1489.17 L852.835 1489.17 L852.835 1493.1 L832.928 1493.1 L832.928 1489.17 Z" fill="#000000" fill-rule="evenodd" fill-opacity="1" /><path clip-path="url(#clip330)" d="M 0 0 M867.905 1461.62 Q864.294 1461.62 862.465 1465.19 Q860.659 1468.73 860.659 1475.86 Q860.659 1482.97 862.465 1486.53 Q864.294 1490.07 867.905 1490.07 Q871.539 1490.07 873.345 1486.53 Q875.173 1482.97 875.173 1475.86 Q875.173 1468.73 873.345 1465.19 Q871.539 1461.62 867.905 1461.62 M867.905 1457.92 Q873.715 1457.92 876.77 1462.53 Q879.849 1467.11 879.849 1475.86 Q879.849 1484.59 876.77 1489.19 Q873.715 1493.78 867.905 1493.78 Q862.095 1493.78 859.016 1489.19 Q855.96 1484.59 855.96 1475.86 Q855.96 1467.11 859.016 1462.53 Q862.095 1457.92 867.905 1457.92 Z" fill="#000000" fill-rule="evenodd" fill-opacity="1" /><path clip-path="url(#clip330)" d="M 0 0 M879.849 1452.02 L903.961 1452.02 L903.961 1455.22 L879.849 1455.22 L879.849 1452.02 Z" fill="#000000" fill-rule="evenodd" fill-opacity="1" /><path clip-path="url(#clip330)" d="M 0 0 M919.59 1450.55 Q922.317 1451.14 923.841 1452.98 Q925.383 1454.82 925.383 1457.53 Q925.383 1461.69 922.524 1463.96 Q919.665 1466.24 914.399 1466.24 Q912.631 1466.24 910.75 1465.88 Q908.888 1465.54 906.895 1464.85 L906.895 1461.18 Q908.475 1462.1 910.355 1462.57 Q912.236 1463.04 914.286 1463.04 Q917.86 1463.04 919.722 1461.63 Q921.602 1460.22 921.602 1457.53 Q921.602 1455.05 919.853 1453.66 Q918.123 1452.25 915.02 1452.25 L911.747 1452.25 L911.747 1449.12 L915.17 1449.12 Q917.973 1449.12 919.458 1448.01 Q920.944 1446.89 920.944 1444.78 Q920.944 1442.62 919.402 1441.47 Q917.878 1440.3 915.02 1440.3 Q913.459 1440.3 911.672 1440.64 Q909.885 1440.98 907.741 1441.69 L907.741 1438.31 Q909.904 1437.71 911.785 1437.41 Q913.684 1437.11 915.358 1437.11 Q919.684 1437.11 922.204 1439.08 Q924.725 1441.04 924.725 1444.38 Q924.725 1446.72 923.389 1448.33 Q922.054 1449.93 919.59 1450.55 Z" fill="#000000" fill-rule="evenodd" fill-opacity="1" /><path clip-path="url(#clip330)" d="M 0 0 M929.502 1460.92 L933.47 1460.92 L933.47 1465.69 L929.502 1465.69 L929.502 1460.92 Z" fill="#000000" fill-rule="evenodd" fill-opacity="1" /><path clip-path="url(#clip330)" d="M 0 0 M940.862 1462.5 L954.121 1462.5 L954.121 1465.69 L936.291 1465.69 L936.291 1462.5 Q938.454 1460.26 942.178 1456.5 Q945.921 1452.72 946.88 1451.63 Q948.704 1449.58 949.419 1448.16 Q950.153 1446.74 950.153 1445.36 Q950.153 1443.12 948.573 1441.71 Q947.012 1440.3 944.491 1440.3 Q942.705 1440.3 940.711 1440.92 Q938.736 1441.54 936.479 1442.8 L936.479 1438.97 Q938.774 1438.05 940.768 1437.58 Q942.761 1437.11 944.416 1437.11 Q948.78 1437.11 951.375 1439.29 Q953.971 1441.47 953.971 1445.12 Q953.971 1446.85 953.312 1448.41 Q952.673 1449.95 950.961 1452.06 Q950.491 1452.6 947.971 1455.22 Q945.451 1457.81 940.862 1462.5 Z" fill="#000000" fill-rule="evenodd" fill-opacity="1" /><path clip-path="url(#clip330)" d="M 0 0 M1232.16 1489.17 L1239.8 1489.17 L1239.8 1462.8 L1231.49 1464.47 L1231.49 1460.21 L1239.75 1458.54 L1244.43 1458.54 L1244.43 1489.17 L1252.07 1489.17 L1252.07 1493.1 L1232.16 1493.1 L1232.16 1489.17 Z" fill="#000000" fill-rule="evenodd" fill-opacity="1" /><path clip-path="url(#clip330)" d="M 0 0 M1267.14 1461.62 Q1263.53 1461.62 1261.7 1465.19 Q1259.89 1468.73 1259.89 1475.86 Q1259.89 1482.97 1261.7 1486.53 Q1263.53 1490.07 1267.14 1490.07 Q1270.77 1490.07 1272.58 1486.53 Q1274.41 1482.97 1274.41 1475.86 Q1274.41 1468.73 1272.58 1465.19 Q1270.77 1461.62 1267.14 1461.62 M1267.14 1457.92 Q1272.95 1457.92 1276 1462.53 Q1279.08 1467.11 1279.08 1475.86 Q1279.08 1484.59 1276 1489.19 Q1272.95 1493.78 1267.14 1493.78 Q1261.33 1493.78 1258.25 1489.19 Q1255.19 1484.59 1255.19 1475.86 Q1255.19 1467.11 1258.25 1462.53 Q1261.33 1457.92 1267.14 1457.92 Z" fill="#000000" fill-rule="evenodd" fill-opacity="1" /><path clip-path="url(#clip330)" d="M 0 0 M1279.08 1452.02 L1303.19 1452.02 L1303.19 1455.22 L1279.08 1455.22 L1279.08 1452.02 Z" fill="#000000" fill-rule="evenodd" fill-opacity="1" /><path clip-path="url(#clip330)" d="M 0 0 M1318.82 1450.55 Q1321.55 1451.14 1323.07 1452.98 Q1324.62 1454.82 1324.62 1457.53 Q1324.62 1461.69 1321.76 1463.96 Q1318.9 1466.24 1313.63 1466.24 Q1311.86 1466.24 1309.98 1465.88 Q1308.12 1465.54 1306.13 1464.85 L1306.13 1461.18 Q1307.71 1462.1 1309.59 1462.57 Q1311.47 1463.04 1313.52 1463.04 Q1317.09 1463.04 1318.95 1461.63 Q1320.83 1460.22 1320.83 1457.53 Q1320.83 1455.05 1319.09 1453.66 Q1317.36 1452.25 1314.25 1452.25 L1310.98 1452.25 L1310.98 1449.12 L1314.4 1449.12 Q1317.21 1449.12 1318.69 1448.01 Q1320.18 1446.89 1320.18 1444.78 Q1320.18 1442.62 1318.63 1441.47 Q1317.11 1440.3 1314.25 1440.3 Q1312.69 1440.3 1310.9 1440.64 Q1309.12 1440.98 1306.97 1441.69 L1306.97 1438.31 Q1309.14 1437.71 1311.02 1437.41 Q1312.92 1437.11 1314.59 1437.11 Q1318.92 1437.11 1321.44 1439.08 Q1323.96 1441.04 1323.96 1444.38 Q1323.96 1446.72 1322.62 1448.33 Q1321.29 1449.93 1318.82 1450.55 Z" fill="#000000" fill-rule="evenodd" fill-opacity="1" /><path clip-path="url(#clip330)" d="M 0 0 M1328.73 1460.92 L1332.7 1460.92 L1332.7 1465.69 L1328.73 1465.69 L1328.73 1460.92 Z" fill="#000000" fill-rule="evenodd" fill-opacity="1" /><path clip-path="url(#clip330)" d="M 0 0 M1344.95 1440.11 Q1342.01 1440.11 1340.53 1443.01 Q1339.06 1445.89 1339.06 1451.68 Q1339.06 1457.46 1340.53 1460.35 Q1342.01 1463.23 1344.95 1463.23 Q1347.9 1463.23 1349.37 1460.35 Q1350.85 1457.46 1350.85 1451.68 Q1350.85 1445.89 1349.37 1443.01 Q1347.9 1440.11 1344.95 1440.11 M1344.95 1437.11 Q1349.67 1437.11 1352.15 1440.85 Q1354.65 1444.57 1354.65 1451.68 Q1354.65 1458.77 1352.15 1462.51 Q1349.67 1466.24 1344.95 1466.24 Q1340.23 1466.24 1337.72 1462.51 Q1335.24 1458.77 1335.24 1451.68 Q1335.24 1444.57 1337.72 1440.85 Q1340.23 1437.11 1344.95 1437.11 Z" fill="#000000" fill-rule="evenodd" fill-opacity="1" /><path clip-path="url(#clip330)" d="M 0 0 M1632.47 1489.17 L1640.1 1489.17 L1640.1 1462.8 L1631.79 1464.47 L1631.79 1460.21 L1640.06 1458.54 L1644.73 1458.54 L1644.73 1489.17 L1652.37 1489.17 L1652.37 1493.1 L1632.47 1493.1 L1632.47 1489.17 Z" fill="#000000" fill-rule="evenodd" fill-opacity="1" /><path clip-path="url(#clip330)" d="M 0 0 M1667.44 1461.62 Q1663.83 1461.62 1662 1465.19 Q1660.2 1468.73 1660.2 1475.86 Q1660.2 1482.97 1662 1486.53 Q1663.83 1490.07 1667.44 1490.07 Q1671.08 1490.07 1672.88 1486.53 Q1674.71 1482.97 1674.71 1475.86 Q1674.71 1468.73 1672.88 1465.19 Q1671.08 1461.62 1667.44 1461.62 M1667.44 1457.92 Q1673.25 1457.92 1676.31 1462.53 Q1679.39 1467.11 1679.39 1475.86 Q1679.39 1484.59 1676.31 1489.19 Q1673.25 1493.78 1667.44 1493.78 Q1661.63 1493.78 1658.55 1489.19 Q1655.5 1484.59 1655.5 1475.86 Q1655.5 1467.11 1658.55 1462.53 Q1661.63 1457.92 1667.44 1457.92 Z" fill="#000000" fill-rule="evenodd" fill-opacity="1" /><path clip-path="url(#clip330)" d="M 0 0 M1679.39 1452.02 L1703.5 1452.02 L1703.5 1455.22 L1679.39 1455.22 L1679.39 1452.02 Z" fill="#000000" fill-rule="evenodd" fill-opacity="1" /><path clip-path="url(#clip330)" d="M 0 0 M1710.89 1462.5 L1724.15 1462.5 L1724.15 1465.69 L1706.32 1465.69 L1706.32 1462.5 Q1708.48 1460.26 1712.21 1456.5 Q1715.95 1452.72 1716.91 1451.63 Q1718.73 1449.58 1719.45 1448.16 Q1720.18 1446.74 1720.18 1445.36 Q1720.18 1443.12 1718.6 1441.71 Q1717.04 1440.3 1714.52 1440.3 Q1712.73 1440.3 1710.74 1440.92 Q1708.76 1441.54 1706.51 1442.8 L1706.51 1438.97 Q1708.8 1438.05 1710.8 1437.58 Q1712.79 1437.11 1714.44 1437.11 Q1718.81 1437.11 1721.4 1439.29 Q1724 1441.47 1724 1445.12 Q1724 1446.85 1723.34 1448.41 Q1722.7 1449.95 1720.99 1452.06 Q1720.52 1452.6 1718 1455.22 Q1715.48 1457.81 1710.89 1462.5 Z" fill="#000000" fill-rule="evenodd" fill-opacity="1" /><path clip-path="url(#clip330)" d="M 0 0 M1728.27 1460.92 L1732.24 1460.92 L1732.24 1465.69 L1728.27 1465.69 L1728.27 1460.92 Z" fill="#000000" fill-rule="evenodd" fill-opacity="1" /><path clip-path="url(#clip330)" d="M 0 0 M1744.48 1452.36 Q1741.77 1452.36 1740.21 1453.81 Q1738.67 1455.26 1738.67 1457.79 Q1738.67 1460.33 1740.21 1461.78 Q1741.77 1463.23 1744.48 1463.23 Q1747.19 1463.23 1748.75 1461.78 Q1750.31 1460.31 1750.31 1457.79 Q1750.31 1455.26 1748.75 1453.81 Q1747.21 1452.36 1744.48 1452.36 M1740.68 1450.74 Q1738.24 1450.14 1736.86 1448.47 Q1735.51 1446.79 1735.51 1444.38 Q1735.51 1441.02 1737.9 1439.06 Q1740.3 1437.11 1744.48 1437.11 Q1748.67 1437.11 1751.06 1439.06 Q1753.45 1441.02 1753.45 1444.38 Q1753.45 1446.79 1752.08 1448.47 Q1750.72 1450.14 1748.3 1450.74 Q1751.04 1451.38 1752.57 1453.24 Q1754.11 1455.1 1754.11 1457.79 Q1754.11 1461.88 1751.61 1464.06 Q1749.13 1466.24 1744.48 1466.24 Q1739.83 1466.24 1737.33 1464.06 Q1734.85 1461.88 1734.85 1457.79 Q1734.85 1455.1 1736.39 1453.24 Q1737.93 1451.38 1740.68 1450.74 M1739.29 1444.74 Q1739.29 1446.92 1740.64 1448.15 Q1742.02 1449.37 1744.48 1449.37 Q1746.92 1449.37 1748.3 1448.15 Q1749.69 1446.92 1749.69 1444.74 Q1749.69 1442.56 1748.3 1441.34 Q1746.92 1440.11 1744.48 1440.11 Q1742.02 1440.11 1740.64 1441.34 Q1739.29 1442.56 1739.29 1444.74 Z" fill="#000000" fill-rule="evenodd" fill-opacity="1" /><path clip-path="url(#clip330)" d="M 0 0 M2032.24 1489.17 L2039.88 1489.17 L2039.88 1462.8 L2031.57 1464.47 L2031.57 1460.21 L2039.84 1458.54 L2044.51 1458.54 L2044.51 1489.17 L2052.15 1489.17 L2052.15 1493.1 L2032.24 1493.1 L2032.24 1489.17 Z" fill="#000000" fill-rule="evenodd" fill-opacity="1" /><path clip-path="url(#clip330)" d="M 0 0 M2067.22 1461.62 Q2063.61 1461.62 2061.78 1465.19 Q2059.97 1468.73 2059.97 1475.86 Q2059.97 1482.97 2061.78 1486.53 Q2063.61 1490.07 2067.22 1490.07 Q2070.85 1490.07 2072.66 1486.53 Q2074.49 1482.97 2074.49 1475.86 Q2074.49 1468.73 2072.66 1465.19 Q2070.85 1461.62 2067.22 1461.62 M2067.22 1457.92 Q2073.03 1457.92 2076.09 1462.53 Q2079.16 1467.11 2079.16 1475.86 Q2079.16 1484.59 2076.09 1489.19 Q2073.03 1493.78 2067.22 1493.78 Q2061.41 1493.78 2058.33 1489.19 Q2055.28 1484.59 2055.28 1475.86 Q2055.28 1467.11 2058.33 1462.53 Q2061.41 1457.92 2067.22 1457.92 Z" fill="#000000" fill-rule="evenodd" fill-opacity="1" /><path clip-path="url(#clip330)" d="M 0 0 M2079.16 1452.02 L2103.28 1452.02 L2103.28 1455.22 L2079.16 1455.22 L2079.16 1452.02 Z" fill="#000000" fill-rule="evenodd" fill-opacity="1" /><path clip-path="url(#clip330)" d="M 0 0 M2110.67 1462.5 L2123.93 1462.5 L2123.93 1465.69 L2106.1 1465.69 L2106.1 1462.5 Q2108.26 1460.26 2111.98 1456.5 Q2115.73 1452.72 2116.69 1451.63 Q2118.51 1449.58 2119.22 1448.16 Q2119.96 1446.74 2119.96 1445.36 Q2119.96 1443.12 2118.38 1441.71 Q2116.82 1440.3 2114.3 1440.3 Q2112.51 1440.3 2110.52 1440.92 Q2108.54 1441.54 2106.28 1442.8 L2106.28 1438.97 Q2108.58 1438.05 2110.57 1437.58 Q2112.57 1437.11 2114.22 1437.11 Q2118.59 1437.11 2121.18 1439.29 Q2123.78 1441.47 2123.78 1445.12 Q2123.78 1446.85 2123.12 1448.41 Q2122.48 1449.95 2120.77 1452.06 Q2120.3 1452.6 2117.78 1455.22 Q2115.26 1457.81 2110.67 1462.5 Z" fill="#000000" fill-rule="evenodd" fill-opacity="1" /><path clip-path="url(#clip330)" d="M 0 0 M2128.05 1460.92 L2132.01 1460.92 L2132.01 1465.69 L2128.05 1465.69 L2128.05 1460.92 Z" fill="#000000" fill-rule="evenodd" fill-opacity="1" /><path clip-path="url(#clip330)" d="M 0 0 M2144.73 1450.14 Q2142.17 1450.14 2140.67 1451.89 Q2139.18 1453.64 2139.18 1456.68 Q2139.18 1459.71 2140.67 1461.48 Q2142.17 1463.23 2144.73 1463.23 Q2147.29 1463.23 2148.77 1461.48 Q2150.28 1459.71 2150.28 1456.68 Q2150.28 1453.64 2148.77 1451.89 Q2147.29 1450.14 2144.73 1450.14 M2152.27 1438.23 L2152.27 1441.69 Q2150.84 1441.02 2149.37 1440.66 Q2147.93 1440.3 2146.5 1440.3 Q2142.73 1440.3 2140.74 1442.84 Q2138.77 1445.38 2138.48 1450.52 Q2139.59 1448.88 2141.27 1448.01 Q2142.94 1447.13 2144.95 1447.13 Q2149.19 1447.13 2151.63 1449.71 Q2154.09 1452.26 2154.09 1456.68 Q2154.09 1461.01 2151.54 1463.62 Q2148.98 1466.24 2144.73 1466.24 Q2139.86 1466.24 2137.28 1462.51 Q2134.7 1458.77 2134.7 1451.68 Q2134.7 1445.02 2137.86 1441.07 Q2141.02 1437.11 2146.35 1437.11 Q2147.77 1437.11 2149.22 1437.39 Q2150.69 1437.67 2152.27 1438.23 Z" fill="#000000" fill-rule="evenodd" fill-opacity="1" /><path clip-path="url(#clip330)" d="M 0 0 M1185.35 1526.54 L1191.55 1526.54 L1202.69 1556.46 L1213.83 1526.54 L1220.04 1526.54 L1206.67 1562.19 L1198.71 1562.19 L1185.35 1526.54 Z" fill="#000000" fill-rule="evenodd" fill-opacity="1" /><path clip-path="url(#clip330)" d="M 0 0 M1253.27 1573.01 L1253.27 1577.56 L1219.4 1577.56 L1219.4 1573.01 L1253.27 1573.01 Z" fill="#000000" fill-rule="evenodd" fill-opacity="1" /><path clip-path="url(#clip330)" d="M 0 0 M1285.07 1527.91 L1285.07 1533.38 Q1282.58 1532.01 1280.07 1531.34 Q1277.59 1530.64 1275.04 1530.64 Q1269.34 1530.64 1266.19 1534.27 Q1263.04 1537.87 1263.04 1544.39 Q1263.04 1550.92 1266.19 1554.55 Q1269.34 1558.14 1275.04 1558.14 Q1277.59 1558.14 1280.07 1557.47 Q1282.58 1556.77 1285.07 1555.41 L1285.07 1560.82 Q1282.61 1561.96 1279.97 1562.54 Q1277.36 1563.11 1274.4 1563.11 Q1266.35 1563.11 1261.61 1558.05 Q1256.87 1552.99 1256.87 1544.39 Q1256.87 1535.67 1261.64 1530.68 Q1266.45 1525.68 1274.78 1525.68 Q1277.49 1525.68 1280.07 1526.25 Q1282.65 1526.79 1285.07 1527.91 Z" fill="#000000" fill-rule="evenodd" fill-opacity="1" /><path clip-path="url(#clip330)" d="M 0 0 M1291.21 1512.66 L1297.06 1512.66 L1297.06 1562.19 L1291.21 1562.19 L1291.21 1512.66 Z" fill="#000000" fill-rule="evenodd" fill-opacity="1" /><path clip-path="url(#clip330)" d="M 0 0 M1317.02 1530.64 Q1312.31 1530.64 1309.57 1534.34 Q1306.84 1538 1306.84 1544.39 Q1306.84 1550.79 1309.54 1554.48 Q1312.28 1558.14 1317.02 1558.14 Q1321.7 1558.14 1324.44 1554.45 Q1327.17 1550.76 1327.17 1544.39 Q1327.17 1538.06 1324.44 1534.37 Q1321.7 1530.64 1317.02 1530.64 M1317.02 1525.68 Q1324.66 1525.68 1329.02 1530.64 Q1333.38 1535.61 1333.38 1544.39 Q1333.38 1553.15 1329.02 1558.14 Q1324.66 1563.11 1317.02 1563.11 Q1309.35 1563.11 1304.99 1558.14 Q1300.66 1553.15 1300.66 1544.39 Q1300.66 1535.61 1304.99 1530.64 Q1309.35 1525.68 1317.02 1525.68 Z" fill="#000000" fill-rule="evenodd" fill-opacity="1" /><path clip-path="url(#clip330)" d="M 0 0 M1362.25 1527.59 L1362.25 1533.13 Q1359.77 1531.85 1357.09 1531.22 Q1354.42 1530.58 1351.56 1530.58 Q1347.19 1530.58 1345 1531.92 Q1342.83 1533.25 1342.83 1535.93 Q1342.83 1537.96 1344.39 1539.14 Q1345.95 1540.29 1350.66 1541.34 L1352.67 1541.78 Q1358.91 1543.12 1361.52 1545.57 Q1364.16 1547.99 1364.16 1552.35 Q1364.16 1557.32 1360.21 1560.21 Q1356.3 1563.11 1349.42 1563.11 Q1346.56 1563.11 1343.44 1562.54 Q1340.35 1561.99 1336.91 1560.88 L1336.91 1554.83 Q1340.16 1556.52 1343.31 1557.38 Q1346.46 1558.21 1349.55 1558.21 Q1353.69 1558.21 1355.92 1556.81 Q1358.14 1555.37 1358.14 1552.8 Q1358.14 1550.41 1356.52 1549.14 Q1354.93 1547.86 1349.49 1546.68 L1347.45 1546.21 Q1342.01 1545.06 1339.59 1542.71 Q1337.17 1540.32 1337.17 1536.18 Q1337.17 1531.15 1340.73 1528.42 Q1344.3 1525.68 1350.86 1525.68 Q1354.1 1525.68 1356.97 1526.16 Q1359.83 1526.63 1362.25 1527.59 Z" fill="#000000" fill-rule="evenodd" fill-opacity="1" /><path clip-path="url(#clip330)" d="M 0 0 M1400.79 1542.9 L1400.79 1545.76 L1373.87 1545.76 Q1374.25 1551.81 1377.5 1554.99 Q1380.77 1558.14 1386.6 1558.14 Q1389.97 1558.14 1393.12 1557.32 Q1396.31 1556.49 1399.43 1554.83 L1399.43 1560.37 Q1396.27 1561.71 1392.96 1562.41 Q1389.65 1563.11 1386.25 1563.11 Q1377.72 1563.11 1372.72 1558.14 Q1367.76 1553.18 1367.76 1544.71 Q1367.76 1535.96 1372.47 1530.83 Q1377.21 1525.68 1385.23 1525.68 Q1392.42 1525.68 1396.59 1530.33 Q1400.79 1534.94 1400.79 1542.9 M1394.94 1541.18 Q1394.87 1536.37 1392.23 1533.51 Q1389.62 1530.64 1385.29 1530.64 Q1380.39 1530.64 1377.43 1533.41 Q1374.5 1536.18 1374.06 1541.21 L1394.94 1541.18 Z" fill="#000000" fill-rule="evenodd" fill-opacity="1" /><polyline clip-path="url(#clip332)" style="stroke:#000000; stroke-width:2; stroke-opacity:0.1; fill:none" points="
  233.385,1204.72 2352.76,1204.72 
  "/>
<polyline clip-path="url(#clip332)" style="stroke:#000000; stroke-width:2; stroke-opacity:0.1; fill:none" points="
  233.385,958.188 2352.76,958.188 
  "/>
<polyline clip-path="url(#clip332)" style="stroke:#000000; stroke-width:2; stroke-opacity:0.1; fill:none" points="
  233.385,711.655 2352.76,711.655 
  "/>
<polyline clip-path="url(#clip332)" style="stroke:#000000; stroke-width:2; stroke-opacity:0.1; fill:none" points="
  233.385,465.122 2352.76,465.122 
  "/>
<polyline clip-path="url(#clip332)" style="stroke:#000000; stroke-width:2; stroke-opacity:0.1; fill:none" points="
  233.385,218.589 2352.76,218.589 
  "/>
<polyline clip-path="url(#clip330)" style="stroke:#000000; stroke-width:4; stroke-opacity:1; fill:none" points="
  233.385,1410.9 233.385,47.2441 
  "/>
<polyline clip-path="url(#clip330)" style="stroke:#000000; stroke-width:4; stroke-opacity:1; fill:none" points="
  233.385,1204.72 258.817,1204.72 
  "/>
<polyline clip-path="url(#clip330)" style="stroke:#000000; stroke-width:4; stroke-opacity:1; fill:none" points="
  233.385,958.188 258.817,958.188 
  "/>
<polyline clip-path="url(#clip330)" style="stroke:#000000; stroke-width:4; stroke-opacity:1; fill:none" points="
  233.385,711.655 258.817,711.655 
  "/>
<polyline clip-path="url(#clip330)" style="stroke:#000000; stroke-width:4; stroke-opacity:1; fill:none" points="
  233.385,465.122 258.817,465.122 
  "/>
<polyline clip-path="url(#clip330)" style="stroke:#000000; stroke-width:4; stroke-opacity:1; fill:none" points="
  233.385,218.589 258.817,218.589 
  "/>
<path clip-path="url(#clip330)" d="M 0 0 M115.742 1218.07 L123.38 1218.07 L123.38 1191.7 L115.07 1193.37 L115.07 1189.11 L123.334 1187.44 L128.01 1187.44 L128.01 1218.07 L135.649 1218.07 L135.649 1222 L115.742 1222 L115.742 1218.07 Z" fill="#000000" fill-rule="evenodd" fill-opacity="1" /><path clip-path="url(#clip330)" d="M 0 0 M144.746 1218.07 L161.065 1218.07 L161.065 1222 L139.121 1222 L139.121 1218.07 Q141.783 1215.31 146.366 1210.68 Q150.973 1206.03 152.153 1204.69 Q154.399 1202.16 155.278 1200.43 Q156.181 1198.67 156.181 1196.98 Q156.181 1194.22 154.237 1192.49 Q152.316 1190.75 149.214 1190.75 Q147.015 1190.75 144.561 1191.51 Q142.13 1192.28 139.353 1193.83 L139.353 1189.11 Q142.177 1187.97 144.63 1187.39 Q147.084 1186.82 149.121 1186.82 Q154.491 1186.82 157.686 1189.5 Q160.88 1192.19 160.88 1196.68 Q160.88 1198.81 160.07 1200.73 Q159.283 1202.63 157.177 1205.22 Q156.598 1205.89 153.496 1209.11 Q150.394 1212.3 144.746 1218.07 Z" fill="#000000" fill-rule="evenodd" fill-opacity="1" /><path clip-path="url(#clip330)" d="M 0 0 M166.135 1216.12 L171.019 1216.12 L171.019 1222 L166.135 1222 L166.135 1216.12 Z" fill="#000000" fill-rule="evenodd" fill-opacity="1" /><path clip-path="url(#clip330)" d="M 0 0 M190.255 1203.37 Q193.612 1204.08 195.487 1206.35 Q197.385 1208.62 197.385 1211.95 Q197.385 1217.07 193.866 1219.87 Q190.348 1222.67 183.866 1222.67 Q181.69 1222.67 179.376 1222.23 Q177.084 1221.82 174.63 1220.96 L174.63 1216.44 Q176.575 1217.58 178.889 1218.16 Q181.204 1218.74 183.727 1218.74 Q188.126 1218.74 190.417 1217 Q192.732 1215.26 192.732 1211.95 Q192.732 1208.9 190.579 1207.19 Q188.45 1205.45 184.63 1205.45 L180.602 1205.45 L180.602 1201.61 L184.815 1201.61 Q188.264 1201.61 190.093 1200.24 Q191.922 1198.85 191.922 1196.26 Q191.922 1193.6 190.024 1192.19 Q188.149 1190.75 184.63 1190.75 Q182.709 1190.75 180.51 1191.17 Q178.311 1191.58 175.672 1192.46 L175.672 1188.3 Q178.334 1187.56 180.649 1187.19 Q182.987 1186.82 185.047 1186.82 Q190.371 1186.82 193.473 1189.25 Q196.575 1191.65 196.575 1195.77 Q196.575 1198.64 194.931 1200.63 Q193.288 1202.6 190.255 1203.37 Z" fill="#000000" fill-rule="evenodd" fill-opacity="1" /><path clip-path="url(#clip330)" d="M 0 0 M114.931 971.533 L122.57 971.533 L122.57 945.167 L114.26 946.834 L114.26 942.574 L122.524 940.908 L127.2 940.908 L127.2 971.533 L134.839 971.533 L134.839 975.468 L114.931 975.468 L114.931 971.533 Z" fill="#000000" fill-rule="evenodd" fill-opacity="1" /><path clip-path="url(#clip330)" d="M 0 0 M143.936 971.533 L160.255 971.533 L160.255 975.468 L138.311 975.468 L138.311 971.533 Q140.973 968.778 145.556 964.148 Q150.163 959.496 151.343 958.153 Q153.589 955.63 154.468 953.894 Q155.371 952.135 155.371 950.445 Q155.371 947.69 153.427 945.954 Q151.505 944.218 148.403 944.218 Q146.204 944.218 143.751 944.982 Q141.32 945.746 138.542 947.297 L138.542 942.574 Q141.366 941.44 143.82 940.861 Q146.274 940.283 148.311 940.283 Q153.681 940.283 156.876 942.968 Q160.07 945.653 160.07 950.144 Q160.07 952.273 159.26 954.195 Q158.473 956.093 156.366 958.685 Q155.788 959.357 152.686 962.574 Q149.584 965.769 143.936 971.533 Z" fill="#000000" fill-rule="evenodd" fill-opacity="1" /><path clip-path="url(#clip330)" d="M 0 0 M165.325 969.588 L170.209 969.588 L170.209 975.468 L165.325 975.468 L165.325 969.588 Z" fill="#000000" fill-rule="evenodd" fill-opacity="1" /><path clip-path="url(#clip330)" d="M 0 0 M185.857 956.324 Q182.709 956.324 180.857 958.477 Q179.028 960.63 179.028 964.38 Q179.028 968.107 180.857 970.283 Q182.709 972.435 185.857 972.435 Q189.005 972.435 190.834 970.283 Q192.686 968.107 192.686 964.38 Q192.686 960.63 190.834 958.477 Q189.005 956.324 185.857 956.324 M195.139 941.672 L195.139 945.931 Q193.38 945.098 191.575 944.658 Q189.792 944.218 188.033 944.218 Q183.403 944.218 180.95 947.343 Q178.519 950.468 178.172 956.787 Q179.538 954.773 181.598 953.709 Q183.658 952.621 186.135 952.621 Q191.343 952.621 194.352 955.792 Q197.385 958.94 197.385 964.38 Q197.385 969.704 194.237 972.921 Q191.088 976.139 185.857 976.139 Q179.862 976.139 176.69 971.556 Q173.519 966.949 173.519 958.222 Q173.519 950.028 177.408 945.167 Q181.297 940.283 187.848 940.283 Q189.607 940.283 191.389 940.63 Q193.195 940.977 195.139 941.672 Z" fill="#000000" fill-rule="evenodd" fill-opacity="1" /><path clip-path="url(#clip330)" d="M 0 0 M115.279 725 L122.918 725 L122.918 698.634 L114.607 700.301 L114.607 696.042 L122.871 694.375 L127.547 694.375 L127.547 725 L135.186 725 L135.186 728.935 L115.279 728.935 L115.279 725 Z" fill="#000000" fill-rule="evenodd" fill-opacity="1" /><path clip-path="url(#clip330)" d="M 0 0 M144.283 725 L160.603 725 L160.603 728.935 L138.658 728.935 L138.658 725 Q141.32 722.245 145.904 717.616 Q150.51 712.963 151.691 711.62 Q153.936 709.097 154.815 707.361 Q155.718 705.602 155.718 703.912 Q155.718 701.157 153.774 699.421 Q151.853 697.685 148.751 697.685 Q146.552 697.685 144.098 698.449 Q141.667 699.213 138.89 700.764 L138.89 696.042 Q141.714 694.907 144.167 694.329 Q146.621 693.75 148.658 693.75 Q154.028 693.75 157.223 696.435 Q160.417 699.12 160.417 703.611 Q160.417 705.741 159.607 707.662 Q158.82 709.56 156.714 712.153 Q156.135 712.824 153.033 716.041 Q149.931 719.236 144.283 725 Z" fill="#000000" fill-rule="evenodd" fill-opacity="1" /><path clip-path="url(#clip330)" d="M 0 0 M165.672 723.055 L170.556 723.055 L170.556 728.935 L165.672 728.935 L165.672 723.055 Z" fill="#000000" fill-rule="evenodd" fill-opacity="1" /><path clip-path="url(#clip330)" d="M 0 0 M175.764 728.217 L175.764 723.958 Q177.524 724.791 179.329 725.231 Q181.135 725.671 182.871 725.671 Q187.501 725.671 189.931 722.569 Q192.385 719.444 192.732 713.102 Q191.389 715.092 189.329 716.157 Q187.269 717.222 184.769 717.222 Q179.584 717.222 176.551 714.097 Q173.542 710.949 173.542 705.509 Q173.542 700.185 176.69 696.967 Q179.839 693.75 185.07 693.75 Q191.065 693.75 194.213 698.356 Q197.385 702.94 197.385 711.69 Q197.385 719.861 193.496 724.745 Q189.63 729.606 183.079 729.606 Q181.32 729.606 179.514 729.259 Q177.709 728.912 175.764 728.217 M185.07 713.565 Q188.218 713.565 190.047 711.412 Q191.899 709.259 191.899 705.509 Q191.899 701.782 190.047 699.63 Q188.218 697.454 185.07 697.454 Q181.922 697.454 180.07 699.63 Q178.241 701.782 178.241 705.509 Q178.241 709.259 180.07 711.412 Q181.922 713.565 185.07 713.565 Z" fill="#000000" fill-rule="evenodd" fill-opacity="1" /><path clip-path="url(#clip330)" d="M 0 0 M115.742 478.467 L123.38 478.467 L123.38 452.101 L115.07 453.768 L115.07 449.509 L123.334 447.842 L128.01 447.842 L128.01 478.467 L135.649 478.467 L135.649 482.402 L115.742 482.402 L115.742 478.467 Z" fill="#000000" fill-rule="evenodd" fill-opacity="1" /><path clip-path="url(#clip330)" d="M 0 0 M154.885 463.768 Q158.241 464.486 160.116 466.754 Q162.015 469.023 162.015 472.356 Q162.015 477.472 158.496 480.273 Q154.978 483.073 148.496 483.073 Q146.32 483.073 144.005 482.634 Q141.714 482.217 139.26 481.36 L139.26 476.847 Q141.204 477.981 143.519 478.56 Q145.834 479.138 148.357 479.138 Q152.755 479.138 155.047 477.402 Q157.362 475.666 157.362 472.356 Q157.362 469.3 155.209 467.587 Q153.079 465.851 149.26 465.851 L145.232 465.851 L145.232 462.009 L149.445 462.009 Q152.894 462.009 154.723 460.643 Q156.552 459.254 156.552 456.662 Q156.552 453.999 154.653 452.587 Q152.778 451.152 149.26 451.152 Q147.339 451.152 145.14 451.569 Q142.941 451.986 140.302 452.865 L140.302 448.699 Q142.964 447.958 145.279 447.587 Q147.616 447.217 149.677 447.217 Q155.001 447.217 158.103 449.648 Q161.204 452.055 161.204 456.175 Q161.204 459.046 159.561 461.036 Q157.917 463.004 154.885 463.768 Z" fill="#000000" fill-rule="evenodd" fill-opacity="1" /><path clip-path="url(#clip330)" d="M 0 0 M167.084 476.523 L171.968 476.523 L171.968 482.402 L167.084 482.402 L167.084 476.523 Z" fill="#000000" fill-rule="evenodd" fill-opacity="1" /><path clip-path="url(#clip330)" d="M 0 0 M181.065 478.467 L197.385 478.467 L197.385 482.402 L175.44 482.402 L175.44 478.467 Q178.102 475.712 182.686 471.083 Q187.292 466.43 188.473 465.087 Q190.718 462.564 191.598 460.828 Q192.5 459.069 192.5 457.379 Q192.5 454.624 190.556 452.888 Q188.635 451.152 185.533 451.152 Q183.334 451.152 180.88 451.916 Q178.45 452.68 175.672 454.231 L175.672 449.509 Q178.496 448.375 180.95 447.796 Q183.403 447.217 185.44 447.217 Q190.811 447.217 194.005 449.902 Q197.2 452.587 197.2 457.078 Q197.2 459.208 196.389 461.129 Q195.602 463.027 193.496 465.62 Q192.917 466.291 189.815 469.509 Q186.713 472.703 181.065 478.467 Z" fill="#000000" fill-rule="evenodd" fill-opacity="1" /><path clip-path="url(#clip330)" d="M 0 0 M115.14 231.934 L122.779 231.934 L122.779 205.569 L114.468 207.235 L114.468 202.976 L122.732 201.309 L127.408 201.309 L127.408 231.934 L135.047 231.934 L135.047 235.869 L115.14 235.869 L115.14 231.934 Z" fill="#000000" fill-rule="evenodd" fill-opacity="1" /><path clip-path="url(#clip330)" d="M 0 0 M154.283 217.235 Q157.64 217.953 159.515 220.221 Q161.413 222.49 161.413 225.823 Q161.413 230.939 157.894 233.74 Q154.376 236.541 147.894 236.541 Q145.718 236.541 143.404 236.101 Q141.112 235.684 138.658 234.828 L138.658 230.314 Q140.603 231.448 142.917 232.027 Q145.232 232.605 147.755 232.605 Q152.153 232.605 154.445 230.869 Q156.76 229.133 156.76 225.823 Q156.76 222.768 154.607 221.055 Q152.478 219.318 148.658 219.318 L144.63 219.318 L144.63 215.476 L148.843 215.476 Q152.292 215.476 154.121 214.11 Q155.95 212.721 155.95 210.129 Q155.95 207.467 154.052 206.055 Q152.177 204.619 148.658 204.619 Q146.737 204.619 144.538 205.036 Q142.339 205.453 139.7 206.332 L139.7 202.166 Q142.362 201.425 144.677 201.055 Q147.015 200.684 149.075 200.684 Q154.399 200.684 157.501 203.115 Q160.603 205.522 160.603 209.643 Q160.603 212.513 158.959 214.504 Q157.315 216.471 154.283 217.235 Z" fill="#000000" fill-rule="evenodd" fill-opacity="1" /><path clip-path="url(#clip330)" d="M 0 0 M166.482 229.99 L171.366 229.99 L171.366 235.869 L166.482 235.869 L166.482 229.99 Z" fill="#000000" fill-rule="evenodd" fill-opacity="1" /><path clip-path="url(#clip330)" d="M 0 0 M176.482 201.309 L194.838 201.309 L194.838 205.244 L180.764 205.244 L180.764 213.717 Q181.783 213.369 182.801 213.207 Q183.82 213.022 184.838 213.022 Q190.625 213.022 194.005 216.194 Q197.385 219.365 197.385 224.781 Q197.385 230.36 193.913 233.462 Q190.44 236.541 184.121 236.541 Q181.945 236.541 179.676 236.17 Q177.431 235.8 175.024 235.059 L175.024 230.36 Q177.107 231.494 179.329 232.05 Q181.551 232.605 184.028 232.605 Q188.033 232.605 190.371 230.499 Q192.709 228.393 192.709 224.781 Q192.709 221.17 190.371 219.064 Q188.033 216.957 184.028 216.957 Q182.153 216.957 180.278 217.374 Q178.426 217.791 176.482 218.67 L176.482 201.309 Z" fill="#000000" fill-rule="evenodd" fill-opacity="1" /><path clip-path="url(#clip330)" d="M 0 0 M59.1993 815.533 Q55.2526 813.336 53.3747 810.281 Q51.4968 807.225 51.4968 803.088 Q51.4968 797.518 55.4117 794.494 Q59.2948 791.47 66.4881 791.47 L88.0042 791.47 L88.0042 797.358 L66.679 797.358 Q61.5546 797.358 59.072 799.173 Q56.5894 800.987 56.5894 804.711 Q56.5894 809.262 59.6131 811.904 Q62.6368 814.546 67.8567 814.546 L88.0042 814.546 L88.0042 820.434 L66.679 820.434 Q61.5228 820.434 59.072 822.248 Q56.5894 824.063 56.5894 827.85 Q56.5894 832.338 59.6449 834.98 Q62.6686 837.622 67.8567 837.622 L88.0042 837.622 L88.0042 843.51 L52.3562 843.51 L52.3562 837.622 L57.8944 837.622 Q54.616 835.616 53.0564 832.815 Q51.4968 830.015 51.4968 826.163 Q51.4968 822.28 53.4702 819.575 Q55.4436 816.838 59.1993 815.533 Z" fill="#000000" fill-rule="evenodd" fill-opacity="1" /><path clip-path="url(#clip330)" d="M 0 0 M52.3562 785.327 L52.3562 779.471 L88.0042 779.471 L88.0042 785.327 L52.3562 785.327 M38.479 785.327 L38.479 779.471 L45.895 779.471 L45.895 785.327 L38.479 785.327 Z" fill="#000000" fill-rule="evenodd" fill-opacity="1" /><path clip-path="url(#clip330)" d="M 0 0 M66.4881 743.696 L88.0042 743.696 L88.0042 749.552 L66.679 749.552 Q61.6183 749.552 59.1038 751.525 Q56.5894 753.499 56.5894 757.446 Q56.5894 762.188 59.6131 764.925 Q62.6368 767.662 67.8567 767.662 L88.0042 767.662 L88.0042 773.551 L52.3562 773.551 L52.3562 767.662 L57.8944 767.662 Q54.6797 765.562 53.0883 762.729 Q51.4968 759.864 51.4968 756.141 Q51.4968 749.998 55.3163 746.847 Q59.1038 743.696 66.4881 743.696 Z" fill="#000000" fill-rule="evenodd" fill-opacity="1" /><path clip-path="url(#clip330)" d="M 0 0 M98.8259 710.467 L103.377 710.467 L103.377 744.332 L98.8259 744.332 L98.8259 710.467 Z" fill="#000000" fill-rule="evenodd" fill-opacity="1" /><path clip-path="url(#clip330)" d="M 0 0 M57.7671 680.866 L38.479 680.866 L38.479 675.01 L88.0042 675.01 L88.0042 680.866 L82.657 680.866 Q85.8398 682.712 87.3994 685.545 Q88.9272 688.346 88.9272 692.292 Q88.9272 698.754 83.771 702.828 Q78.6147 706.87 70.212 706.87 Q61.8093 706.87 56.6531 702.828 Q51.4968 698.754 51.4968 692.292 Q51.4968 688.346 53.0564 685.545 Q54.5842 682.712 57.7671 680.866 M70.212 700.823 Q76.6732 700.823 80.3653 698.181 Q84.0256 695.507 84.0256 690.86 Q84.0256 686.213 80.3653 683.54 Q76.6732 680.866 70.212 680.866 Q63.7508 680.866 60.0905 683.54 Q56.3984 686.213 56.3984 690.86 Q56.3984 695.507 60.0905 698.181 Q63.7508 700.823 70.212 700.823 Z" fill="#000000" fill-rule="evenodd" fill-opacity="1" /><path clip-path="url(#clip330)" d="M 0 0 M52.3562 668.867 L52.3562 663.01 L88.0042 663.01 L88.0042 668.867 L52.3562 668.867 M38.479 668.867 L38.479 663.01 L45.895 663.01 L45.895 668.867 L38.479 668.867 Z" fill="#000000" fill-rule="evenodd" fill-opacity="1" /><path clip-path="url(#clip330)" d="M 0 0 M38.479 638.821 L43.3487 638.821 L43.3487 644.422 Q43.3487 647.573 44.6219 648.815 Q45.895 650.024 49.2052 650.024 L52.3562 650.024 L52.3562 640.38 L56.9077 640.38 L56.9077 650.024 L88.0042 650.024 L88.0042 655.912 L56.9077 655.912 L56.9077 661.514 L52.3562 661.514 L52.3562 655.912 L49.8736 655.912 Q43.9216 655.912 41.2162 653.143 Q38.479 650.374 38.479 644.359 L38.479 638.821 Z" fill="#000000" fill-rule="evenodd" fill-opacity="1" /><path clip-path="url(#clip330)" d="M 0 0 M38.479 614.631 L43.3487 614.631 L43.3487 620.233 Q43.3487 623.384 44.6219 624.625 Q45.895 625.835 49.2052 625.835 L52.3562 625.835 L52.3562 616.19 L56.9077 616.19 L56.9077 625.835 L88.0042 625.835 L88.0042 631.723 L56.9077 631.723 L56.9077 637.325 L52.3562 637.325 L52.3562 631.723 L49.8736 631.723 Q43.9216 631.723 41.2162 628.954 Q38.479 626.185 38.479 620.169 L38.479 614.631 Z" fill="#000000" fill-rule="evenodd" fill-opacity="1" /><polyline clip-path="url(#clip332)" style="stroke:#009af9; stroke-width:20; stroke-opacity:1; fill:none" stroke-dasharray="80, 50" points="
  293.367,85.838 1293.07,974.493 2292.77,1372.3 
  "/>
<path clip-path="url(#clip330)" d="
M1995.61 213.659 L2282.11 213.659 L2282.11 92.6992 L1995.61 92.6992  Z
  " fill="#ffffff" fill-rule="evenodd" fill-opacity="1"/>
<polyline clip-path="url(#clip330)" style="stroke:#000000; stroke-width:4; stroke-opacity:1; fill:none" points="
  1995.61,213.659 2282.11,213.659 2282.11,92.6992 1995.61,92.6992 1995.61,213.659 
  "/>
<polyline clip-path="url(#clip330)" style="stroke:#009af9; stroke-width:4; stroke-opacity:1; fill:none" stroke-dasharray="16, 10" points="
  2019.15,153.179 2160.45,153.179 
  "/>
<path clip-path="url(#clip330)" d="M 0 0 M2197.84 172.867 Q2196.03 177.496 2194.32 178.908 Q2192.61 180.32 2189.74 180.32 L2186.33 180.32 L2186.33 176.755 L2188.83 176.755 Q2190.59 176.755 2191.56 175.922 Q2192.54 175.089 2193.72 171.987 L2194.48 170.043 L2183.99 144.533 L2188.51 144.533 L2196.61 164.811 L2204.71 144.533 L2209.23 144.533 L2197.84 172.867 Z" fill="#000000" fill-rule="evenodd" fill-opacity="1" /><path clip-path="url(#clip330)" d="M 0 0 M2215.11 166.524 L2222.74 166.524 L2222.74 140.158 L2214.43 141.825 L2214.43 137.566 L2222.7 135.899 L2227.37 135.899 L2227.37 166.524 L2235.01 166.524 L2235.01 170.459 L2215.11 170.459 L2215.11 166.524 Z" fill="#000000" fill-rule="evenodd" fill-opacity="1" /></svg>
