<?xml version="1.0" encoding="utf-8"?>
<svg xmlns="http://www.w3.org/2000/svg" xmlns:xlink="http://www.w3.org/1999/xlink" width="600" height="400" viewBox="0 0 2400 1600">
<defs>
  <clipPath id="clip930">
    <rect x="0" y="0" width="2400" height="1600"/>
  </clipPath>
</defs>
<path clip-path="url(#clip930)" d="
M0 1600 L2400 1600 L2400 0 L0 0  Z
  " fill="#ffffff" fill-rule="evenodd" fill-opacity="1"/>
<defs>
  <clipPath id="clip931">
    <rect x="480" y="0" width="1681" height="1600"/>
  </clipPath>
</defs>
<path clip-path="url(#clip930)" d="
M236.186 1410.9 L2352.76 1410.9 L2352.76 47.2441 L236.186 47.2441  Z
  " fill="#ffffff" fill-rule="evenodd" fill-opacity="1"/>
<defs>
  <clipPath id="clip932">
    <rect x="236" y="47" width="2118" height="1365"/>
  </clipPath>
</defs>
<polyline clip-path="url(#clip932)" style="stroke:#000000; stroke-width:2; stroke-opacity:0.1; fill:none" points="
  296.089,1410.9 296.089,47.2441 
  "/>
<polyline clip-path="url(#clip932)" style="stroke:#000000; stroke-width:2; stroke-opacity:0.1; fill:none" points="
  795.28,1410.9 795.28,47.2441 
  "/>
<polyline clip-path="url(#clip932)" style="stroke:#000000; stroke-width:2; stroke-opacity:0.1; fill:none" points="
  1294.47,1410.9 1294.47,47.2441 
  "/>
<polyline clip-path="url(#clip932)" style="stroke:#000000; stroke-width:2; stroke-opacity:0.1; fill:none" points="
  1793.66,1410.9 1793.66,47.2441 
  "/>
<polyline clip-path="url(#clip932)" style="stroke:#000000; stroke-width:2; stroke-opacity:0.1; fill:none" points="
  2292.85,1410.9 2292.85,47.2441 
  "/>
<polyline clip-path="url(#clip930)" style="stroke:#000000; stroke-width:4; stroke-opacity:1; fill:none" points="
  236.186,1410.9 2352.76,1410.9 
  "/>
<polyline clip-path="url(#clip930)" style="stroke:#000000; stroke-width:4; stroke-opacity:1; fill:none" points="
  296.089,1410.9 296.089,1394.53 
  "/>
<polyline clip-path="url(#clip930)" style="stroke:#000000; stroke-width:4; stroke-opacity:1; fill:none" points="
  795.28,1410.9 795.28,1394.53 
  "/>
<polyline clip-path="url(#clip930)" style="stroke:#000000; stroke-width:4; stroke-opacity:1; fill:none" points="
  1294.47,1410.9 1294.47,1394.53 
  "/>
<polyline clip-path="url(#clip930)" style="stroke:#000000; stroke-width:4; stroke-opacity:1; fill:none" points="
  1793.66,1410.9 1793.66,1394.53 
  "/>
<polyline clip-path="url(#clip930)" style="stroke:#000000; stroke-width:4; stroke-opacity:1; fill:none" points="
  2292.85,1410.9 2292.85,1394.53 
  "/>
<path clip-path="url(#clip930)" d="M 0 0 M234.85 1489.17 L242.489 1489.17 L242.489 1462.8 L234.178 1464.47 L234.178 1460.21 L242.442 1458.54 L247.118 1458.54 L247.118 1489.17 L254.757 1489.17 L254.757 1493.1 L234.85 1493.1 L234.85 1489.17 Z" fill="#000000" fill-rule="evenodd" fill-opacity="1" /><path clip-path="url(#clip930)" d="M 0 0 M269.826 1461.62 Q266.215 1461.62 264.387 1465.19 Q262.581 1468.73 262.581 1475.86 Q262.581 1482.97 264.387 1486.53 Q266.215 1490.07 269.826 1490.07 Q273.461 1490.07 275.266 1486.53 Q277.095 1482.97 277.095 1475.86 Q277.095 1468.73 275.266 1465.19 Q273.461 1461.62 269.826 1461.62 M269.826 1457.92 Q275.637 1457.92 278.692 1462.53 Q281.771 1467.11 281.771 1475.86 Q281.771 1484.59 278.692 1489.19 Q275.637 1493.78 269.826 1493.78 Q264.016 1493.78 260.938 1489.19 Q257.882 1484.59 257.882 1475.86 Q257.882 1467.11 260.938 1462.53 Q264.016 1457.92 269.826 1457.92 Z" fill="#000000" fill-rule="evenodd" fill-opacity="1" /><path clip-path="url(#clip930)" d="M 0 0 M281.771 1452.02 L305.882 1452.02 L305.882 1455.22 L281.771 1455.22 L281.771 1452.02 Z" fill="#000000" fill-rule="evenodd" fill-opacity="1" /><path clip-path="url(#clip930)" d="M 0 0 M318.596 1450.14 Q316.039 1450.14 314.534 1451.89 Q313.048 1453.64 313.048 1456.68 Q313.048 1459.71 314.534 1461.48 Q316.039 1463.23 318.596 1463.23 Q321.154 1463.23 322.64 1461.48 Q324.145 1459.71 324.145 1456.68 Q324.145 1453.64 322.64 1451.89 Q321.154 1450.14 318.596 1450.14 M326.138 1438.23 L326.138 1441.69 Q324.709 1441.02 323.242 1440.66 Q321.794 1440.3 320.364 1440.3 Q316.603 1440.3 314.609 1442.84 Q312.634 1445.38 312.352 1450.52 Q313.462 1448.88 315.136 1448.01 Q316.81 1447.13 318.822 1447.13 Q323.054 1447.13 325.499 1449.71 Q327.963 1452.26 327.963 1456.68 Q327.963 1461.01 325.405 1463.62 Q322.847 1466.24 318.596 1466.24 Q313.725 1466.24 311.149 1462.51 Q308.572 1458.77 308.572 1451.68 Q308.572 1445.02 311.732 1441.07 Q314.891 1437.11 320.214 1437.11 Q321.643 1437.11 323.091 1437.39 Q324.558 1437.67 326.138 1438.23 Z" fill="#000000" fill-rule="evenodd" fill-opacity="1" /><path clip-path="url(#clip930)" d="M 0 0 M332.082 1460.92 L336.05 1460.92 L336.05 1465.69 L332.082 1465.69 L332.082 1460.92 Z" fill="#000000" fill-rule="evenodd" fill-opacity="1" /><path clip-path="url(#clip930)" d="M 0 0 M348.294 1440.11 Q345.36 1440.11 343.874 1443.01 Q342.407 1445.89 342.407 1451.68 Q342.407 1457.46 343.874 1460.35 Q345.36 1463.23 348.294 1463.23 Q351.247 1463.23 352.714 1460.35 Q354.199 1457.46 354.199 1451.68 Q354.199 1445.89 352.714 1443.01 Q351.247 1440.11 348.294 1440.11 M348.294 1437.11 Q353.015 1437.11 355.497 1440.85 Q357.999 1444.57 357.999 1451.68 Q357.999 1458.77 355.497 1462.51 Q353.015 1466.24 348.294 1466.24 Q343.573 1466.24 341.072 1462.51 Q338.589 1458.77 338.589 1451.68 Q338.589 1444.57 341.072 1440.85 Q343.573 1437.11 348.294 1437.11 Z" fill="#000000" fill-rule="evenodd" fill-opacity="1" /><path clip-path="url(#clip930)" d="M 0 0 M734.915 1489.17 L742.554 1489.17 L742.554 1462.8 L734.244 1464.47 L734.244 1460.21 L742.508 1458.54 L747.184 1458.54 L747.184 1489.17 L754.823 1489.17 L754.823 1493.1 L734.915 1493.1 L734.915 1489.17 Z" fill="#000000" fill-rule="evenodd" fill-opacity="1" /><path clip-path="url(#clip930)" d="M 0 0 M769.892 1461.62 Q766.281 1461.62 764.452 1465.19 Q762.647 1468.73 762.647 1475.86 Q762.647 1482.97 764.452 1486.53 Q766.281 1490.07 769.892 1490.07 Q773.526 1490.07 775.332 1486.53 Q777.161 1482.97 777.161 1475.86 Q777.161 1468.73 775.332 1465.19 Q773.526 1461.62 769.892 1461.62 M769.892 1457.92 Q775.702 1457.92 778.758 1462.53 Q781.836 1467.11 781.836 1475.86 Q781.836 1484.59 778.758 1489.19 Q775.702 1493.78 769.892 1493.78 Q764.082 1493.78 761.003 1489.19 Q757.948 1484.59 757.948 1475.86 Q757.948 1467.11 761.003 1462.53 Q764.082 1457.92 769.892 1457.92 Z" fill="#000000" fill-rule="evenodd" fill-opacity="1" /><path clip-path="url(#clip930)" d="M 0 0 M781.836 1452.02 L805.948 1452.02 L805.948 1455.22 L781.836 1455.22 L781.836 1452.02 Z" fill="#000000" fill-rule="evenodd" fill-opacity="1" /><path clip-path="url(#clip930)" d="M 0 0 M810.105 1437.61 L825.019 1437.61 L825.019 1440.81 L813.584 1440.81 L813.584 1447.69 Q814.412 1447.41 815.239 1447.28 Q816.067 1447.13 816.894 1447.13 Q821.596 1447.13 824.342 1449.71 Q827.088 1452.28 827.088 1456.68 Q827.088 1461.22 824.267 1463.74 Q821.446 1466.24 816.311 1466.24 Q814.543 1466.24 812.7 1465.94 Q810.876 1465.64 808.92 1465.04 L808.92 1461.22 Q810.612 1462.14 812.418 1462.59 Q814.223 1463.04 816.236 1463.04 Q819.49 1463.04 821.389 1461.33 Q823.289 1459.62 823.289 1456.68 Q823.289 1453.75 821.389 1452.04 Q819.49 1450.33 816.236 1450.33 Q814.712 1450.33 813.189 1450.67 Q811.684 1451 810.105 1451.72 L810.105 1437.61 Z" fill="#000000" fill-rule="evenodd" fill-opacity="1" /><path clip-path="url(#clip930)" d="M 0 0 M831.207 1460.92 L835.175 1460.92 L835.175 1465.69 L831.207 1465.69 L831.207 1460.92 Z" fill="#000000" fill-rule="evenodd" fill-opacity="1" /><path clip-path="url(#clip930)" d="M 0 0 M839.332 1437.61 L854.246 1437.61 L854.246 1440.81 L842.811 1440.81 L842.811 1447.69 Q843.639 1447.41 844.466 1447.28 Q845.294 1447.13 846.121 1447.13 Q850.823 1447.13 853.569 1449.71 Q856.315 1452.28 856.315 1456.68 Q856.315 1461.22 853.494 1463.74 Q850.673 1466.24 845.538 1466.24 Q843.77 1466.24 841.927 1465.94 Q840.103 1465.64 838.147 1465.04 L838.147 1461.22 Q839.84 1462.14 841.645 1462.59 Q843.451 1463.04 845.463 1463.04 Q848.717 1463.04 850.616 1461.33 Q852.516 1459.62 852.516 1456.68 Q852.516 1453.75 850.616 1452.04 Q848.717 1450.33 845.463 1450.33 Q843.94 1450.33 842.416 1450.67 Q840.912 1451 839.332 1451.72 L839.332 1437.61 Z" fill="#000000" fill-rule="evenodd" fill-opacity="1" /><path clip-path="url(#clip930)" d="M 0 0 M1233.7 1489.17 L1241.34 1489.17 L1241.34 1462.8 L1233.03 1464.47 L1233.03 1460.21 L1241.29 1458.54 L1245.97 1458.54 L1245.97 1489.17 L1253.61 1489.17 L1253.61 1493.1 L1233.7 1493.1 L1233.7 1489.17 Z" fill="#000000" fill-rule="evenodd" fill-opacity="1" /><path clip-path="url(#clip930)" d="M 0 0 M1268.68 1461.62 Q1265.07 1461.62 1263.24 1465.19 Q1261.43 1468.73 1261.43 1475.86 Q1261.43 1482.97 1263.24 1486.53 Q1265.07 1490.07 1268.68 1490.07 Q1272.31 1490.07 1274.12 1486.53 Q1275.95 1482.97 1275.95 1475.86 Q1275.95 1468.73 1274.12 1465.19 Q1272.31 1461.62 1268.68 1461.62 M1268.68 1457.92 Q1274.49 1457.92 1277.54 1462.53 Q1280.62 1467.11 1280.62 1475.86 Q1280.62 1484.59 1277.54 1489.19 Q1274.49 1493.78 1268.68 1493.78 Q1262.87 1493.78 1259.79 1489.19 Q1256.73 1484.59 1256.73 1475.86 Q1256.73 1467.11 1259.79 1462.53 Q1262.87 1457.92 1268.68 1457.92 Z" fill="#000000" fill-rule="evenodd" fill-opacity="1" /><path clip-path="url(#clip930)" d="M 0 0 M1280.62 1452.02 L1304.73 1452.02 L1304.73 1455.22 L1280.62 1455.22 L1280.62 1452.02 Z" fill="#000000" fill-rule="evenodd" fill-opacity="1" /><path clip-path="url(#clip930)" d="M 0 0 M1308.89 1437.61 L1323.81 1437.61 L1323.81 1440.81 L1312.37 1440.81 L1312.37 1447.69 Q1313.2 1447.41 1314.03 1447.28 Q1314.85 1447.13 1315.68 1447.13 Q1320.38 1447.13 1323.13 1449.71 Q1325.87 1452.28 1325.87 1456.68 Q1325.87 1461.22 1323.05 1463.74 Q1320.23 1466.24 1315.1 1466.24 Q1313.33 1466.24 1311.49 1465.94 Q1309.66 1465.64 1307.71 1465.04 L1307.71 1461.22 Q1309.4 1462.14 1311.2 1462.59 Q1313.01 1463.04 1315.02 1463.04 Q1318.28 1463.04 1320.18 1461.33 Q1322.08 1459.62 1322.08 1456.68 Q1322.08 1453.75 1320.18 1452.04 Q1318.28 1450.33 1315.02 1450.33 Q1313.5 1450.33 1311.98 1450.67 Q1310.47 1451 1308.89 1451.72 L1308.89 1437.61 Z" fill="#000000" fill-rule="evenodd" fill-opacity="1" /><path clip-path="url(#clip930)" d="M 0 0 M1329.99 1460.92 L1333.96 1460.92 L1333.96 1465.69 L1329.99 1465.69 L1329.99 1460.92 Z" fill="#000000" fill-rule="evenodd" fill-opacity="1" /><path clip-path="url(#clip930)" d="M 0 0 M1346.21 1440.11 Q1343.27 1440.11 1341.79 1443.01 Q1340.32 1445.89 1340.32 1451.68 Q1340.32 1457.46 1341.79 1460.35 Q1343.27 1463.23 1346.21 1463.23 Q1349.16 1463.23 1350.63 1460.35 Q1352.11 1457.46 1352.11 1451.68 Q1352.11 1445.89 1350.63 1443.01 Q1349.16 1440.11 1346.21 1440.11 M1346.21 1437.11 Q1350.93 1437.11 1353.41 1440.85 Q1355.91 1444.57 1355.91 1451.68 Q1355.91 1458.77 1353.41 1462.51 Q1350.93 1466.24 1346.21 1466.24 Q1341.49 1466.24 1338.98 1462.51 Q1336.5 1458.77 1336.5 1451.68 Q1336.5 1444.57 1338.98 1440.85 Q1341.49 1437.11 1346.21 1437.11 Z" fill="#000000" fill-rule="evenodd" fill-opacity="1" /><path clip-path="url(#clip930)" d="M 0 0 M1732.7 1489.17 L1740.33 1489.17 L1740.33 1462.8 L1732.02 1464.47 L1732.02 1460.21 L1740.29 1458.54 L1744.96 1458.54 L1744.96 1489.17 L1752.6 1489.17 L1752.6 1493.1 L1732.7 1493.1 L1732.7 1489.17 Z" fill="#000000" fill-rule="evenodd" fill-opacity="1" /><path clip-path="url(#clip930)" d="M 0 0 M1767.67 1461.62 Q1764.06 1461.62 1762.23 1465.19 Q1760.43 1468.73 1760.43 1475.86 Q1760.43 1482.97 1762.23 1486.53 Q1764.06 1490.07 1767.67 1490.07 Q1771.31 1490.07 1773.11 1486.53 Q1774.94 1482.97 1774.94 1475.86 Q1774.94 1468.73 1773.11 1465.19 Q1771.31 1461.62 1767.67 1461.62 M1767.67 1457.92 Q1773.48 1457.92 1776.54 1462.53 Q1779.62 1467.11 1779.62 1475.86 Q1779.62 1484.59 1776.54 1489.19 Q1773.48 1493.78 1767.67 1493.78 Q1761.86 1493.78 1758.78 1489.19 Q1755.73 1484.59 1755.73 1475.86 Q1755.73 1467.11 1758.78 1462.53 Q1761.86 1457.92 1767.67 1457.92 Z" fill="#000000" fill-rule="evenodd" fill-opacity="1" /><path clip-path="url(#clip930)" d="M 0 0 M1779.62 1452.02 L1803.73 1452.02 L1803.73 1455.22 L1779.62 1455.22 L1779.62 1452.02 Z" fill="#000000" fill-rule="evenodd" fill-opacity="1" /><path clip-path="url(#clip930)" d="M 0 0 M1818.29 1440.92 L1808.69 1455.91 L1818.29 1455.91 L1818.29 1440.92 M1817.29 1437.61 L1822.07 1437.61 L1822.07 1455.91 L1826.07 1455.91 L1826.07 1459.07 L1822.07 1459.07 L1822.07 1465.69 L1818.29 1465.69 L1818.29 1459.07 L1805.61 1459.07 L1805.61 1455.41 L1817.29 1437.61 Z" fill="#000000" fill-rule="evenodd" fill-opacity="1" /><path clip-path="url(#clip930)" d="M 0 0 M1830.19 1460.92 L1834.16 1460.92 L1834.16 1465.69 L1830.19 1465.69 L1830.19 1460.92 Z" fill="#000000" fill-rule="evenodd" fill-opacity="1" /><path clip-path="url(#clip930)" d="M 0 0 M1838.32 1437.61 L1853.23 1437.61 L1853.23 1440.81 L1841.8 1440.81 L1841.8 1447.69 Q1842.62 1447.41 1843.45 1447.28 Q1844.28 1447.13 1845.11 1447.13 Q1849.81 1447.13 1852.55 1449.71 Q1855.3 1452.28 1855.3 1456.68 Q1855.3 1461.22 1852.48 1463.74 Q1849.66 1466.24 1844.52 1466.24 Q1842.75 1466.24 1840.91 1465.94 Q1839.09 1465.64 1837.13 1465.04 L1837.13 1461.22 Q1838.82 1462.14 1840.63 1462.59 Q1842.43 1463.04 1844.45 1463.04 Q1847.7 1463.04 1849.6 1461.33 Q1851.5 1459.62 1851.5 1456.68 Q1851.5 1453.75 1849.6 1452.04 Q1847.7 1450.33 1844.45 1450.33 Q1842.92 1450.33 1841.4 1450.67 Q1839.9 1451 1838.32 1451.72 L1838.32 1437.61 Z" fill="#000000" fill-rule="evenodd" fill-opacity="1" /><path clip-path="url(#clip930)" d="M 0 0 M2231.48 1489.17 L2239.12 1489.17 L2239.12 1462.8 L2230.81 1464.47 L2230.81 1460.21 L2239.08 1458.54 L2243.75 1458.54 L2243.75 1489.17 L2251.39 1489.17 L2251.39 1493.1 L2231.48 1493.1 L2231.48 1489.17 Z" fill="#000000" fill-rule="evenodd" fill-opacity="1" /><path clip-path="url(#clip930)" d="M 0 0 M2266.46 1461.62 Q2262.85 1461.62 2261.02 1465.19 Q2259.21 1468.73 2259.21 1475.86 Q2259.21 1482.97 2261.02 1486.53 Q2262.85 1490.07 2266.46 1490.07 Q2270.09 1490.07 2271.9 1486.53 Q2273.73 1482.97 2273.73 1475.86 Q2273.73 1468.73 2271.9 1465.19 Q2270.09 1461.62 2266.46 1461.62 M2266.46 1457.92 Q2272.27 1457.92 2275.32 1462.53 Q2278.4 1467.11 2278.4 1475.86 Q2278.4 1484.59 2275.32 1489.19 Q2272.27 1493.78 2266.46 1493.78 Q2260.65 1493.78 2257.57 1489.19 Q2254.51 1484.59 2254.51 1475.86 Q2254.51 1467.11 2257.57 1462.53 Q2260.65 1457.92 2266.46 1457.92 Z" fill="#000000" fill-rule="evenodd" fill-opacity="1" /><path clip-path="url(#clip930)" d="M 0 0 M2278.4 1452.02 L2302.52 1452.02 L2302.52 1455.22 L2278.4 1455.22 L2278.4 1452.02 Z" fill="#000000" fill-rule="evenodd" fill-opacity="1" /><path clip-path="url(#clip930)" d="M 0 0 M2317.07 1440.92 L2307.48 1455.91 L2317.07 1455.91 L2317.07 1440.92 M2316.08 1437.61 L2320.85 1437.61 L2320.85 1455.91 L2324.86 1455.91 L2324.86 1459.07 L2320.85 1459.07 L2320.85 1465.69 L2317.07 1465.69 L2317.07 1459.07 L2304.4 1459.07 L2304.4 1455.41 L2316.08 1437.61 Z" fill="#000000" fill-rule="evenodd" fill-opacity="1" /><path clip-path="url(#clip930)" d="M 0 0 M2328.98 1460.92 L2332.95 1460.92 L2332.95 1465.69 L2328.98 1465.69 L2328.98 1460.92 Z" fill="#000000" fill-rule="evenodd" fill-opacity="1" /><path clip-path="url(#clip930)" d="M 0 0 M2345.19 1440.11 Q2342.26 1440.11 2340.77 1443.01 Q2339.3 1445.89 2339.3 1451.68 Q2339.3 1457.46 2340.77 1460.35 Q2342.26 1463.23 2345.19 1463.23 Q2348.14 1463.23 2349.61 1460.35 Q2351.1 1457.46 2351.1 1451.68 Q2351.1 1445.89 2349.61 1443.01 Q2348.14 1440.11 2345.19 1440.11 M2345.19 1437.11 Q2349.91 1437.11 2352.39 1440.85 Q2354.89 1444.57 2354.89 1451.68 Q2354.89 1458.77 2352.39 1462.51 Q2349.91 1466.24 2345.19 1466.24 Q2340.47 1466.24 2337.97 1462.51 Q2335.49 1458.77 2335.49 1451.68 Q2335.49 1444.57 2337.97 1440.85 Q2340.47 1437.11 2345.19 1437.11 Z" fill="#000000" fill-rule="evenodd" fill-opacity="1" /><path clip-path="url(#clip930)" d="M 0 0 M1219.69 1512.66 L1225.58 1512.66 L1225.58 1541.91 L1243.05 1526.54 L1250.53 1526.54 L1231.63 1543.22 L1251.33 1562.19 L1243.69 1562.19 L1225.58 1544.78 L1225.58 1562.19 L1219.69 1562.19 L1219.69 1512.66 Z" fill="#000000" fill-rule="evenodd" fill-opacity="1" /><path clip-path="url(#clip930)" d="M 0 0 M1284.56 1573.01 L1284.56 1577.56 L1250.69 1577.56 L1250.69 1573.01 L1284.56 1573.01 Z" fill="#000000" fill-rule="evenodd" fill-opacity="1" /><path clip-path="url(#clip930)" d="M 0 0 M1304.51 1530.64 Q1299.8 1530.64 1297.06 1534.34 Q1294.33 1538 1294.33 1544.39 Q1294.33 1550.79 1297.03 1554.48 Q1299.77 1558.14 1304.51 1558.14 Q1309.19 1558.14 1311.93 1554.45 Q1314.67 1550.76 1314.67 1544.39 Q1314.67 1538.06 1311.93 1534.37 Q1309.19 1530.64 1304.51 1530.64 M1304.51 1525.68 Q1312.15 1525.68 1316.51 1530.64 Q1320.87 1535.61 1320.87 1544.39 Q1320.87 1553.15 1316.51 1558.14 Q1312.15 1563.11 1304.51 1563.11 Q1296.84 1563.11 1292.48 1558.14 Q1288.15 1553.15 1288.15 1544.39 Q1288.15 1535.61 1292.48 1530.64 Q1296.84 1525.68 1304.51 1525.68 Z" fill="#000000" fill-rule="evenodd" fill-opacity="1" /><path clip-path="url(#clip930)" d="M 0 0 M1345.06 1512.66 L1345.06 1517.53 L1339.46 1517.53 Q1336.31 1517.53 1335.07 1518.8 Q1333.86 1520.08 1333.86 1523.39 L1333.86 1526.54 L1343.5 1526.54 L1343.5 1531.09 L1333.86 1531.09 L1333.86 1562.19 L1327.97 1562.19 L1327.97 1531.09 L1322.37 1531.09 L1322.37 1526.54 L1327.97 1526.54 L1327.97 1524.05 Q1327.97 1518.1 1330.74 1515.4 Q1333.51 1512.66 1339.52 1512.66 L1345.06 1512.66 Z" fill="#000000" fill-rule="evenodd" fill-opacity="1" /><path clip-path="url(#clip930)" d="M 0 0 M1369.25 1512.66 L1369.25 1517.53 L1363.65 1517.53 Q1360.5 1517.53 1359.26 1518.8 Q1358.05 1520.08 1358.05 1523.39 L1358.05 1526.54 L1367.69 1526.54 L1367.69 1531.09 L1358.05 1531.09 L1358.05 1562.19 L1352.16 1562.19 L1352.16 1531.09 L1346.56 1531.09 L1346.56 1526.54 L1352.16 1526.54 L1352.16 1524.05 Q1352.16 1518.1 1354.93 1515.4 Q1357.7 1512.66 1363.71 1512.66 L1369.25 1512.66 Z" fill="#000000" fill-rule="evenodd" fill-opacity="1" /><polyline clip-path="url(#clip932)" style="stroke:#000000; stroke-width:2; stroke-opacity:0.1; fill:none" points="
  236.186,1382.13 2352.76,1382.13 
  "/>
<polyline clip-path="url(#clip932)" style="stroke:#000000; stroke-width:2; stroke-opacity:0.1; fill:none" points="
  236.186,1151.05 2352.76,1151.05 
  "/>
<polyline clip-path="url(#clip932)" style="stroke:#000000; stroke-width:2; stroke-opacity:0.1; fill:none" points="
  236.186,919.967 2352.76,919.967 
  "/>
<polyline clip-path="url(#clip932)" style="stroke:#000000; stroke-width:2; stroke-opacity:0.1; fill:none" points="
  236.186,688.885 2352.76,688.885 
  "/>
<polyline clip-path="url(#clip932)" style="stroke:#000000; stroke-width:2; stroke-opacity:0.1; fill:none" points="
  236.186,457.802 2352.76,457.802 
  "/>
<polyline clip-path="url(#clip932)" style="stroke:#000000; stroke-width:2; stroke-opacity:0.1; fill:none" points="
  236.186,226.72 2352.76,226.72 
  "/>
<polyline clip-path="url(#clip930)" style="stroke:#000000; stroke-width:4; stroke-opacity:1; fill:none" points="
  236.186,1410.9 236.186,47.2441 
  "/>
<polyline clip-path="url(#clip930)" style="stroke:#000000; stroke-width:4; stroke-opacity:1; fill:none" points="
  236.186,1382.13 261.584,1382.13 
  "/>
<polyline clip-path="url(#clip930)" style="stroke:#000000; stroke-width:4; stroke-opacity:1; fill:none" points="
  236.186,1151.05 261.584,1151.05 
  "/>
<polyline clip-path="url(#clip930)" style="stroke:#000000; stroke-width:4; stroke-opacity:1; fill:none" points="
  236.186,919.967 261.584,919.967 
  "/>
<polyline clip-path="url(#clip930)" style="stroke:#000000; stroke-width:4; stroke-opacity:1; fill:none" points="
  236.186,688.885 261.584,688.885 
  "/>
<polyline clip-path="url(#clip930)" style="stroke:#000000; stroke-width:4; stroke-opacity:1; fill:none" points="
  236.186,457.802 261.584,457.802 
  "/>
<polyline clip-path="url(#clip930)" style="stroke:#000000; stroke-width:4; stroke-opacity:1; fill:none" points="
  236.186,226.72 261.584,226.72 
  "/>
<path clip-path="url(#clip930)" d="M 0 0 M117.431 1364.85 L135.788 1364.85 L135.788 1368.79 L121.714 1368.79 L121.714 1377.26 Q122.732 1376.91 123.751 1376.75 Q124.769 1376.57 125.788 1376.57 Q131.575 1376.57 134.954 1379.74 Q138.334 1382.91 138.334 1388.32 Q138.334 1393.9 134.862 1397.01 Q131.39 1400.08 125.07 1400.08 Q122.894 1400.08 120.626 1399.71 Q118.381 1399.34 115.973 1398.6 L115.973 1393.9 Q118.056 1395.04 120.279 1395.59 Q122.501 1396.15 124.978 1396.15 Q128.982 1396.15 131.32 1394.04 Q133.658 1391.94 133.658 1388.32 Q133.658 1384.71 131.32 1382.61 Q128.982 1380.5 124.978 1380.5 Q123.103 1380.5 121.228 1380.92 Q119.376 1381.33 117.431 1382.21 L117.431 1364.85 Z" fill="#000000" fill-rule="evenodd" fill-opacity="1" /><path clip-path="url(#clip930)" d="M 0 0 M143.404 1393.53 L148.288 1393.53 L148.288 1399.41 L143.404 1399.41 L143.404 1393.53 Z" fill="#000000" fill-rule="evenodd" fill-opacity="1" /><path clip-path="url(#clip930)" d="M 0 0 M152.177 1364.85 L174.399 1364.85 L174.399 1366.84 L161.852 1399.41 L156.968 1399.41 L168.774 1368.79 L152.177 1368.79 L152.177 1364.85 Z" fill="#000000" fill-rule="evenodd" fill-opacity="1" /><path clip-path="url(#clip930)" d="M 0 0 M180.278 1395.48 L187.917 1395.48 L187.917 1369.11 L179.607 1370.78 L179.607 1366.52 L187.871 1364.85 L192.547 1364.85 L192.547 1395.48 L200.186 1395.48 L200.186 1399.41 L180.278 1399.41 L180.278 1395.48 Z" fill="#000000" fill-rule="evenodd" fill-opacity="1" /><path clip-path="url(#clip930)" d="M 0 0 M117.802 1133.77 L136.158 1133.77 L136.158 1137.71 L122.084 1137.71 L122.084 1146.18 Q123.103 1145.83 124.121 1145.67 Q125.14 1145.48 126.158 1145.48 Q131.945 1145.48 135.325 1148.65 Q138.704 1151.83 138.704 1157.24 Q138.704 1162.82 135.232 1165.92 Q131.76 1169 125.441 1169 Q123.265 1169 120.996 1168.63 Q118.751 1168.26 116.343 1167.52 L116.343 1162.82 Q118.427 1163.95 120.649 1164.51 Q122.871 1165.07 125.348 1165.07 Q129.353 1165.07 131.691 1162.96 Q134.029 1160.85 134.029 1157.24 Q134.029 1153.63 131.691 1151.52 Q129.353 1149.42 125.348 1149.42 Q123.473 1149.42 121.598 1149.83 Q119.746 1150.25 117.802 1151.13 L117.802 1133.77 Z" fill="#000000" fill-rule="evenodd" fill-opacity="1" /><path clip-path="url(#clip930)" d="M 0 0 M143.774 1162.45 L148.658 1162.45 L148.658 1168.33 L143.774 1168.33 L143.774 1162.45 Z" fill="#000000" fill-rule="evenodd" fill-opacity="1" /><path clip-path="url(#clip930)" d="M 0 0 M152.547 1133.77 L174.769 1133.77 L174.769 1135.76 L162.223 1168.33 L157.339 1168.33 L169.144 1137.71 L152.547 1137.71 L152.547 1133.77 Z" fill="#000000" fill-rule="evenodd" fill-opacity="1" /><path clip-path="url(#clip930)" d="M 0 0 M183.866 1164.39 L200.186 1164.39 L200.186 1168.33 L178.241 1168.33 L178.241 1164.39 Q180.903 1161.64 185.487 1157.01 Q190.093 1152.36 191.274 1151.02 Q193.519 1148.49 194.399 1146.76 Q195.301 1145 195.301 1143.31 Q195.301 1140.55 193.357 1138.82 Q191.436 1137.08 188.334 1137.08 Q186.135 1137.08 183.681 1137.84 Q181.251 1138.61 178.473 1140.16 L178.473 1135.44 Q181.297 1134.3 183.751 1133.72 Q186.204 1133.14 188.241 1133.14 Q193.612 1133.14 196.806 1135.83 Q200 1138.52 200 1143.01 Q200 1145.14 199.19 1147.06 Q198.403 1148.95 196.297 1151.55 Q195.718 1152.22 192.616 1155.44 Q189.514 1158.63 183.866 1164.39 Z" fill="#000000" fill-rule="evenodd" fill-opacity="1" /><path clip-path="url(#clip930)" d="M 0 0 M116.853 902.687 L135.209 902.687 L135.209 906.622 L121.135 906.622 L121.135 915.095 Q122.154 914.747 123.172 914.585 Q124.191 914.4 125.209 914.4 Q130.996 914.4 134.376 917.571 Q137.755 920.743 137.755 926.159 Q137.755 931.738 134.283 934.84 Q130.811 937.919 124.492 937.919 Q122.316 937.919 120.047 937.548 Q117.802 937.178 115.394 936.437 L115.394 931.738 Q117.478 932.872 119.7 933.428 Q121.922 933.983 124.399 933.983 Q128.404 933.983 130.742 931.877 Q133.08 929.77 133.08 926.159 Q133.08 922.548 130.742 920.442 Q128.404 918.335 124.399 918.335 Q122.524 918.335 120.649 918.752 Q118.797 919.169 116.853 920.048 L116.853 902.687 Z" fill="#000000" fill-rule="evenodd" fill-opacity="1" /><path clip-path="url(#clip930)" d="M 0 0 M142.825 931.368 L147.709 931.368 L147.709 937.247 L142.825 937.247 L142.825 931.368 Z" fill="#000000" fill-rule="evenodd" fill-opacity="1" /><path clip-path="url(#clip930)" d="M 0 0 M151.598 902.687 L173.82 902.687 L173.82 904.678 L161.274 937.247 L156.39 937.247 L168.195 906.622 L151.598 906.622 L151.598 902.687 Z" fill="#000000" fill-rule="evenodd" fill-opacity="1" /><path clip-path="url(#clip930)" d="M 0 0 M193.056 918.613 Q196.412 919.331 198.287 921.599 Q200.186 923.868 200.186 927.201 Q200.186 932.317 196.667 935.118 Q193.149 937.919 186.667 937.919 Q184.491 937.919 182.176 937.479 Q179.885 937.062 177.431 936.206 L177.431 931.692 Q179.376 932.826 181.69 933.405 Q184.005 933.983 186.528 933.983 Q190.926 933.983 193.218 932.247 Q195.533 930.511 195.533 927.201 Q195.533 924.146 193.38 922.433 Q191.25 920.696 187.431 920.696 L183.403 920.696 L183.403 916.854 L187.616 916.854 Q191.065 916.854 192.894 915.488 Q194.723 914.099 194.723 911.507 Q194.723 908.845 192.825 907.433 Q190.95 905.997 187.431 905.997 Q185.51 905.997 183.311 906.414 Q181.112 906.831 178.473 907.71 L178.473 903.544 Q181.135 902.803 183.45 902.433 Q185.788 902.062 187.848 902.062 Q193.172 902.062 196.274 904.493 Q199.375 906.9 199.375 911.021 Q199.375 913.891 197.732 915.882 Q196.088 917.849 193.056 918.613 Z" fill="#000000" fill-rule="evenodd" fill-opacity="1" /><path clip-path="url(#clip930)" d="M 0 0 M115.718 671.605 L134.075 671.605 L134.075 675.54 L120.001 675.54 L120.001 684.012 Q121.019 683.665 122.038 683.503 Q123.056 683.318 124.075 683.318 Q129.862 683.318 133.242 686.489 Q136.621 689.66 136.621 695.077 Q136.621 700.656 133.149 703.757 Q129.677 706.836 123.357 706.836 Q121.181 706.836 118.913 706.466 Q116.668 706.095 114.26 705.355 L114.26 700.656 Q116.343 701.79 118.566 702.345 Q120.788 702.901 123.265 702.901 Q127.269 702.901 129.607 700.794 Q131.945 698.688 131.945 695.077 Q131.945 691.466 129.607 689.359 Q127.269 687.253 123.265 687.253 Q121.39 687.253 119.515 687.669 Q117.663 688.086 115.718 688.966 L115.718 671.605 Z" fill="#000000" fill-rule="evenodd" fill-opacity="1" /><path clip-path="url(#clip930)" d="M 0 0 M141.691 700.285 L146.575 700.285 L146.575 706.165 L141.691 706.165 L141.691 700.285 Z" fill="#000000" fill-rule="evenodd" fill-opacity="1" /><path clip-path="url(#clip930)" d="M 0 0 M150.464 671.605 L172.686 671.605 L172.686 673.595 L160.14 706.165 L155.255 706.165 L167.061 675.54 L150.464 675.54 L150.464 671.605 Z" fill="#000000" fill-rule="evenodd" fill-opacity="1" /><path clip-path="url(#clip930)" d="M 0 0 M190.602 675.679 L178.797 694.128 L190.602 694.128 L190.602 675.679 M189.375 671.605 L195.255 671.605 L195.255 694.128 L200.186 694.128 L200.186 698.017 L195.255 698.017 L195.255 706.165 L190.602 706.165 L190.602 698.017 L175.001 698.017 L175.001 693.503 L189.375 671.605 Z" fill="#000000" fill-rule="evenodd" fill-opacity="1" /><path clip-path="url(#clip930)" d="M 0 0 M117.2 440.522 L135.556 440.522 L135.556 444.457 L121.482 444.457 L121.482 452.93 Q122.501 452.582 123.519 452.42 Q124.538 452.235 125.556 452.235 Q131.343 452.235 134.723 455.406 Q138.103 458.578 138.103 463.994 Q138.103 469.573 134.63 472.675 Q131.158 475.753 124.839 475.753 Q122.663 475.753 120.394 475.383 Q118.149 475.013 115.742 474.272 L115.742 469.573 Q117.825 470.707 120.047 471.263 Q122.269 471.818 124.746 471.818 Q128.751 471.818 131.089 469.712 Q133.427 467.605 133.427 463.994 Q133.427 460.383 131.089 458.277 Q128.751 456.17 124.746 456.17 Q122.871 456.17 120.996 456.587 Q119.144 457.004 117.2 457.883 L117.2 440.522 Z" fill="#000000" fill-rule="evenodd" fill-opacity="1" /><path clip-path="url(#clip930)" d="M 0 0 M143.172 469.203 L148.056 469.203 L148.056 475.082 L143.172 475.082 L143.172 469.203 Z" fill="#000000" fill-rule="evenodd" fill-opacity="1" /><path clip-path="url(#clip930)" d="M 0 0 M151.945 440.522 L174.167 440.522 L174.167 442.513 L161.621 475.082 L156.737 475.082 L168.542 444.457 L151.945 444.457 L151.945 440.522 Z" fill="#000000" fill-rule="evenodd" fill-opacity="1" /><path clip-path="url(#clip930)" d="M 0 0 M179.283 440.522 L197.639 440.522 L197.639 444.457 L183.565 444.457 L183.565 452.93 Q184.584 452.582 185.602 452.42 Q186.621 452.235 187.639 452.235 Q193.426 452.235 196.806 455.406 Q200.186 458.578 200.186 463.994 Q200.186 469.573 196.713 472.675 Q193.241 475.753 186.922 475.753 Q184.746 475.753 182.477 475.383 Q180.232 475.013 177.825 474.272 L177.825 469.573 Q179.908 470.707 182.13 471.263 Q184.352 471.818 186.829 471.818 Q190.834 471.818 193.172 469.712 Q195.51 467.605 195.51 463.994 Q195.51 460.383 193.172 458.277 Q190.834 456.17 186.829 456.17 Q184.954 456.17 183.079 456.587 Q181.227 457.004 179.283 457.883 L179.283 440.522 Z" fill="#000000" fill-rule="evenodd" fill-opacity="1" /><path clip-path="url(#clip930)" d="M 0 0 M116.043 209.44 L134.399 209.44 L134.399 213.375 L120.325 213.375 L120.325 221.847 Q121.343 221.5 122.362 221.338 Q123.38 221.153 124.399 221.153 Q130.186 221.153 133.566 224.324 Q136.945 227.495 136.945 232.912 Q136.945 238.49 133.473 241.592 Q130.001 244.671 123.681 244.671 Q121.505 244.671 119.237 244.301 Q116.992 243.93 114.584 243.189 L114.584 238.49 Q116.668 239.625 118.89 240.18 Q121.112 240.736 123.589 240.736 Q127.593 240.736 129.931 238.629 Q132.269 236.523 132.269 232.912 Q132.269 229.301 129.931 227.194 Q127.593 225.088 123.589 225.088 Q121.714 225.088 119.839 225.504 Q117.987 225.921 116.043 226.801 L116.043 209.44 Z" fill="#000000" fill-rule="evenodd" fill-opacity="1" /><path clip-path="url(#clip930)" d="M 0 0 M142.015 238.12 L146.899 238.12 L146.899 244 L142.015 244 L142.015 238.12 Z" fill="#000000" fill-rule="evenodd" fill-opacity="1" /><path clip-path="url(#clip930)" d="M 0 0 M150.788 209.44 L173.01 209.44 L173.01 211.43 L160.464 244 L155.579 244 L167.385 213.375 L150.788 213.375 L150.788 209.44 Z" fill="#000000" fill-rule="evenodd" fill-opacity="1" /><path clip-path="url(#clip930)" d="M 0 0 M188.658 224.856 Q185.51 224.856 183.658 227.009 Q181.829 229.162 181.829 232.912 Q181.829 236.639 183.658 238.814 Q185.51 240.967 188.658 240.967 Q191.806 240.967 193.635 238.814 Q195.487 236.639 195.487 232.912 Q195.487 229.162 193.635 227.009 Q191.806 224.856 188.658 224.856 M197.94 210.204 L197.94 214.463 Q196.181 213.629 194.375 213.19 Q192.593 212.75 190.834 212.75 Q186.204 212.75 183.751 215.875 Q181.32 219 180.973 225.319 Q182.338 223.305 184.399 222.24 Q186.459 221.153 188.936 221.153 Q194.144 221.153 197.153 224.324 Q200.186 227.472 200.186 232.912 Q200.186 238.236 197.037 241.453 Q193.889 244.671 188.658 244.671 Q182.663 244.671 179.491 240.088 Q176.32 235.481 176.32 226.754 Q176.32 218.56 180.209 213.699 Q184.098 208.815 190.649 208.815 Q192.408 208.815 194.19 209.162 Q195.996 209.509 197.94 210.204 Z" fill="#000000" fill-rule="evenodd" fill-opacity="1" /><path clip-path="url(#clip930)" d="M 0 0 M59.1993 815.533 Q55.2526 813.336 53.3747 810.281 Q51.4968 807.225 51.4968 803.088 Q51.4968 797.518 55.4117 794.494 Q59.2948 791.47 66.4881 791.47 L88.0042 791.47 L88.0042 797.358 L66.679 797.358 Q61.5546 797.358 59.072 799.173 Q56.5894 800.987 56.5894 804.711 Q56.5894 809.262 59.6131 811.904 Q62.6368 814.546 67.8567 814.546 L88.0042 814.546 L88.0042 820.434 L66.679 820.434 Q61.5228 820.434 59.072 822.248 Q56.5894 824.063 56.5894 827.85 Q56.5894 832.338 59.6449 834.98 Q62.6686 837.622 67.8567 837.622 L88.0042 837.622 L88.0042 843.51 L52.3562 843.51 L52.3562 837.622 L57.8944 837.622 Q54.616 835.616 53.0564 832.815 Q51.4968 830.015 51.4968 826.163 Q51.4968 822.28 53.4702 819.575 Q55.4436 816.838 59.1993 815.533 Z" fill="#000000" fill-rule="evenodd" fill-opacity="1" /><path clip-path="url(#clip930)" d="M 0 0 M52.3562 785.327 L52.3562 779.471 L88.0042 779.471 L88.0042 785.327 L52.3562 785.327 M38.479 785.327 L38.479 779.471 L45.895 779.471 L45.895 785.327 L38.479 785.327 Z" fill="#000000" fill-rule="evenodd" fill-opacity="1" /><path clip-path="url(#clip930)" d="M 0 0 M66.4881 743.696 L88.0042 743.696 L88.0042 749.552 L66.679 749.552 Q61.6183 749.552 59.1038 751.525 Q56.5894 753.499 56.5894 757.446 Q56.5894 762.188 59.6131 764.925 Q62.6368 767.662 67.8567 767.662 L88.0042 767.662 L88.0042 773.551 L52.3562 773.551 L52.3562 767.662 L57.8944 767.662 Q54.6797 765.562 53.0883 762.729 Q51.4968 759.864 51.4968 756.141 Q51.4968 749.998 55.3163 746.847 Q59.1038 743.696 66.4881 743.696 Z" fill="#000000" fill-rule="evenodd" fill-opacity="1" /><path clip-path="url(#clip930)" d="M 0 0 M98.8259 710.467 L103.377 710.467 L103.377 744.332 L98.8259 744.332 L98.8259 710.467 Z" fill="#000000" fill-rule="evenodd" fill-opacity="1" /><path clip-path="url(#clip930)" d="M 0 0 M57.7671 680.866 L38.479 680.866 L38.479 675.01 L88.0042 675.01 L88.0042 680.866 L82.657 680.866 Q85.8398 682.712 87.3994 685.545 Q88.9272 688.346 88.9272 692.292 Q88.9272 698.754 83.771 702.828 Q78.6147 706.87 70.212 706.87 Q61.8093 706.87 56.6531 702.828 Q51.4968 698.754 51.4968 692.292 Q51.4968 688.346 53.0564 685.545 Q54.5842 682.712 57.7671 680.866 M70.212 700.823 Q76.6732 700.823 80.3653 698.181 Q84.0256 695.507 84.0256 690.86 Q84.0256 686.213 80.3653 683.54 Q76.6732 680.866 70.212 680.866 Q63.7508 680.866 60.0905 683.54 Q56.3984 686.213 56.3984 690.86 Q56.3984 695.507 60.0905 698.181 Q63.7508 700.823 70.212 700.823 Z" fill="#000000" fill-rule="evenodd" fill-opacity="1" /><path clip-path="url(#clip930)" d="M 0 0 M52.3562 668.867 L52.3562 663.01 L88.0042 663.01 L88.0042 668.867 L52.3562 668.867 M38.479 668.867 L38.479 663.01 L45.895 663.01 L45.895 668.867 L38.479 668.867 Z" fill="#000000" fill-rule="evenodd" fill-opacity="1" /><path clip-path="url(#clip930)" d="M 0 0 M38.479 638.821 L43.3487 638.821 L43.3487 644.422 Q43.3487 647.573 44.6219 648.815 Q45.895 650.024 49.2052 650.024 L52.3562 650.024 L52.3562 640.38 L56.9077 640.38 L56.9077 650.024 L88.0042 650.024 L88.0042 655.912 L56.9077 655.912 L56.9077 661.514 L52.3562 661.514 L52.3562 655.912 L49.8736 655.912 Q43.9216 655.912 41.2162 653.143 Q38.479 650.374 38.479 644.359 L38.479 638.821 Z" fill="#000000" fill-rule="evenodd" fill-opacity="1" /><path clip-path="url(#clip930)" d="M 0 0 M38.479 614.631 L43.3487 614.631 L43.3487 620.233 Q43.3487 623.384 44.6219 624.625 Q45.895 625.835 49.2052 625.835 L52.3562 625.835 L52.3562 616.19 L56.9077 616.19 L56.9077 625.835 L88.0042 625.835 L88.0042 631.723 L56.9077 631.723 L56.9077 637.325 L52.3562 637.325 L52.3562 631.723 L49.8736 631.723 Q43.9216 631.723 41.2162 628.954 Q38.479 626.185 38.479 620.169 L38.479 614.631 Z" fill="#000000" fill-rule="evenodd" fill-opacity="1" /><polyline clip-path="url(#clip932)" style="stroke:#009af9; stroke-width:20; stroke-opacity:1; fill:none" stroke-dasharray="80, 50" points="
  296.089,92.5375 1294.47,1372.3 2292.85,85.838 
  "/>
<path clip-path="url(#clip930)" d="
M1996.01 213.659 L2282.2 213.659 L2282.2 92.6992 L1996.01 92.6992  Z
  " fill="#ffffff" fill-rule="evenodd" fill-opacity="1"/>
<polyline clip-path="url(#clip930)" style="stroke:#000000; stroke-width:4; stroke-opacity:1; fill:none" points="
  1996.01,213.659 2282.2,213.659 2282.2,92.6992 1996.01,92.6992 1996.01,213.659 
  "/>
<polyline clip-path="url(#clip930)" style="stroke:#009af9; stroke-width:4; stroke-opacity:1; fill:none" stroke-dasharray="16, 10" points="
  2019.53,153.179 2160.63,153.179 
  "/>
<path clip-path="url(#clip930)" d="M 0 0 M2197.99 172.867 Q2196.19 177.496 2194.47 178.908 Q2192.76 180.32 2189.89 180.32 L2186.49 180.32 L2186.49 176.755 L2188.99 176.755 Q2190.75 176.755 2191.72 175.922 Q2192.69 175.089 2193.87 171.987 L2194.64 170.043 L2184.15 144.533 L2188.66 144.533 L2196.77 164.811 L2204.87 144.533 L2209.38 144.533 L2197.99 172.867 Z" fill="#000000" fill-rule="evenodd" fill-opacity="1" /><path clip-path="url(#clip930)" d="M 0 0 M2215.26 166.524 L2222.9 166.524 L2222.9 140.158 L2214.59 141.825 L2214.59 137.566 L2222.85 135.899 L2227.53 135.899 L2227.53 166.524 L2235.17 166.524 L2235.17 170.459 L2215.26 170.459 L2215.26 166.524 Z" fill="#000000" fill-rule="evenodd" fill-opacity="1" /></svg>
