<?xml version="1.0" encoding="utf-8"?>
<svg xmlns="http://www.w3.org/2000/svg" xmlns:xlink="http://www.w3.org/1999/xlink" width="600" height="400" viewBox="0 0 2400 1600">
<defs>
  <clipPath id="clip630">
    <rect x="0" y="0" width="2400" height="1600"/>
  </clipPath>
</defs>
<path clip-path="url(#clip630)" d="
M0 1600 L2400 1600 L2400 0 L0 0  Z
  " fill="#ffffff" fill-rule="evenodd" fill-opacity="1"/>
<defs>
  <clipPath id="clip631">
    <rect x="480" y="0" width="1681" height="1600"/>
  </clipPath>
</defs>
<path clip-path="url(#clip630)" d="
M174.126 1410.9 L2352.76 1410.9 L2352.76 47.2441 L174.126 47.2441  Z
  " fill="#ffffff" fill-rule="evenodd" fill-opacity="1"/>
<defs>
  <clipPath id="clip632">
    <rect x="174" y="47" width="2180" height="1365"/>
  </clipPath>
</defs>
<polyline clip-path="url(#clip632)" style="stroke:#000000; stroke-width:2; stroke-opacity:0.1; fill:none" points="
  235.785,1410.9 235.785,47.2441 
  "/>
<polyline clip-path="url(#clip632)" style="stroke:#000000; stroke-width:2; stroke-opacity:0.1; fill:none" points="
  749.613,1410.9 749.613,47.2441 
  "/>
<polyline clip-path="url(#clip632)" style="stroke:#000000; stroke-width:2; stroke-opacity:0.1; fill:none" points="
  1263.44,1410.9 1263.44,47.2441 
  "/>
<polyline clip-path="url(#clip632)" style="stroke:#000000; stroke-width:2; stroke-opacity:0.1; fill:none" points="
  1777.27,1410.9 1777.27,47.2441 
  "/>
<polyline clip-path="url(#clip632)" style="stroke:#000000; stroke-width:2; stroke-opacity:0.1; fill:none" points="
  2291.1,1410.9 2291.1,47.2441 
  "/>
<polyline clip-path="url(#clip630)" style="stroke:#000000; stroke-width:4; stroke-opacity:1; fill:none" points="
  174.126,1410.9 2352.76,1410.9 
  "/>
<polyline clip-path="url(#clip630)" style="stroke:#000000; stroke-width:4; stroke-opacity:1; fill:none" points="
  235.785,1410.9 235.785,1394.53 
  "/>
<polyline clip-path="url(#clip630)" style="stroke:#000000; stroke-width:4; stroke-opacity:1; fill:none" points="
  749.613,1410.9 749.613,1394.53 
  "/>
<polyline clip-path="url(#clip630)" style="stroke:#000000; stroke-width:4; stroke-opacity:1; fill:none" points="
  1263.44,1410.9 1263.44,1394.53 
  "/>
<polyline clip-path="url(#clip630)" style="stroke:#000000; stroke-width:4; stroke-opacity:1; fill:none" points="
  1777.27,1410.9 1777.27,1394.53 
  "/>
<polyline clip-path="url(#clip630)" style="stroke:#000000; stroke-width:4; stroke-opacity:1; fill:none" points="
  2291.1,1410.9 2291.1,1394.53 
  "/>
<path clip-path="url(#clip630)" d="M 0 0 M190.034 1489.17 L197.673 1489.17 L197.673 1462.8 L189.363 1464.47 L189.363 1460.21 L197.627 1458.54 L202.303 1458.54 L202.303 1489.17 L209.942 1489.17 L209.942 1493.1 L190.034 1493.1 L190.034 1489.17 Z" fill="#000000" fill-rule="evenodd" fill-opacity="1" /><path clip-path="url(#clip630)" d="M 0 0 M225.011 1461.62 Q221.4 1461.62 219.571 1465.19 Q217.766 1468.73 217.766 1475.86 Q217.766 1482.97 219.571 1486.53 Q221.4 1490.07 225.011 1490.07 Q228.645 1490.07 230.451 1486.53 Q232.28 1482.97 232.28 1475.86 Q232.28 1468.73 230.451 1465.19 Q228.645 1461.62 225.011 1461.62 M225.011 1457.92 Q230.821 1457.92 233.877 1462.53 Q236.956 1467.11 236.956 1475.86 Q236.956 1484.59 233.877 1489.19 Q230.821 1493.78 225.011 1493.78 Q219.201 1493.78 216.122 1489.19 Q213.067 1484.59 213.067 1475.86 Q213.067 1467.11 216.122 1462.53 Q219.201 1457.92 225.011 1457.92 Z" fill="#000000" fill-rule="evenodd" fill-opacity="1" /><path clip-path="url(#clip630)" d="M 0 0 M236.956 1452.02 L261.067 1452.02 L261.067 1455.22 L236.956 1455.22 L236.956 1452.02 Z" fill="#000000" fill-rule="evenodd" fill-opacity="1" /><path clip-path="url(#clip630)" d="M 0 0 M265.224 1437.61 L280.138 1437.61 L280.138 1440.81 L268.703 1440.81 L268.703 1447.69 Q269.531 1447.41 270.358 1447.28 Q271.186 1447.13 272.013 1447.13 Q276.715 1447.13 279.461 1449.71 Q282.207 1452.28 282.207 1456.68 Q282.207 1461.22 279.386 1463.74 Q276.565 1466.24 271.43 1466.24 Q269.662 1466.24 267.819 1465.94 Q265.995 1465.64 264.039 1465.04 L264.039 1461.22 Q265.731 1462.14 267.537 1462.59 Q269.343 1463.04 271.355 1463.04 Q274.609 1463.04 276.508 1461.33 Q278.408 1459.62 278.408 1456.68 Q278.408 1453.75 276.508 1452.04 Q274.609 1450.33 271.355 1450.33 Q269.832 1450.33 268.308 1450.67 Q266.803 1451 265.224 1451.72 L265.224 1437.61 Z" fill="#000000" fill-rule="evenodd" fill-opacity="1" /><path clip-path="url(#clip630)" d="M 0 0 M703.261 1489.17 L710.899 1489.17 L710.899 1462.8 L702.589 1464.47 L702.589 1460.21 L710.853 1458.54 L715.529 1458.54 L715.529 1489.17 L723.168 1489.17 L723.168 1493.1 L703.261 1493.1 L703.261 1489.17 Z" fill="#000000" fill-rule="evenodd" fill-opacity="1" /><path clip-path="url(#clip630)" d="M 0 0 M738.237 1461.62 Q734.626 1461.62 732.797 1465.19 Q730.992 1468.73 730.992 1475.86 Q730.992 1482.97 732.797 1486.53 Q734.626 1490.07 738.237 1490.07 Q741.871 1490.07 743.677 1486.53 Q745.506 1482.97 745.506 1475.86 Q745.506 1468.73 743.677 1465.19 Q741.871 1461.62 738.237 1461.62 M738.237 1457.92 Q744.047 1457.92 747.103 1462.53 Q750.182 1467.11 750.182 1475.86 Q750.182 1484.59 747.103 1489.19 Q744.047 1493.78 738.237 1493.78 Q732.427 1493.78 729.348 1489.19 Q726.293 1484.59 726.293 1475.86 Q726.293 1467.11 729.348 1462.53 Q732.427 1457.92 738.237 1457.92 Z" fill="#000000" fill-rule="evenodd" fill-opacity="1" /><path clip-path="url(#clip630)" d="M 0 0 M750.182 1452.02 L774.293 1452.02 L774.293 1455.22 L750.182 1455.22 L750.182 1452.02 Z" fill="#000000" fill-rule="evenodd" fill-opacity="1" /><path clip-path="url(#clip630)" d="M 0 0 M788.85 1440.92 L779.258 1455.91 L788.85 1455.91 L788.85 1440.92 M787.854 1437.61 L792.631 1437.61 L792.631 1455.91 L796.637 1455.91 L796.637 1459.07 L792.631 1459.07 L792.631 1465.69 L788.85 1465.69 L788.85 1459.07 L776.174 1459.07 L776.174 1455.41 L787.854 1437.61 Z" fill="#000000" fill-rule="evenodd" fill-opacity="1" /><path clip-path="url(#clip630)" d="M 0 0 M1217.55 1489.17 L1225.19 1489.17 L1225.19 1462.8 L1216.88 1464.47 L1216.88 1460.21 L1225.14 1458.54 L1229.82 1458.54 L1229.82 1489.17 L1237.46 1489.17 L1237.46 1493.1 L1217.55 1493.1 L1217.55 1489.17 Z" fill="#000000" fill-rule="evenodd" fill-opacity="1" /><path clip-path="url(#clip630)" d="M 0 0 M1252.53 1461.62 Q1248.91 1461.62 1247.09 1465.19 Q1245.28 1468.73 1245.28 1475.86 Q1245.28 1482.97 1247.09 1486.53 Q1248.91 1490.07 1252.53 1490.07 Q1256.16 1490.07 1257.97 1486.53 Q1259.79 1482.97 1259.79 1475.86 Q1259.79 1468.73 1257.97 1465.19 Q1256.16 1461.62 1252.53 1461.62 M1252.53 1457.92 Q1258.34 1457.92 1261.39 1462.53 Q1264.47 1467.11 1264.47 1475.86 Q1264.47 1484.59 1261.39 1489.19 Q1258.34 1493.78 1252.53 1493.78 Q1246.72 1493.78 1243.64 1489.19 Q1240.58 1484.59 1240.58 1475.86 Q1240.58 1467.11 1243.64 1462.53 Q1246.72 1457.92 1252.53 1457.92 Z" fill="#000000" fill-rule="evenodd" fill-opacity="1" /><path clip-path="url(#clip630)" d="M 0 0 M1264.47 1452.02 L1288.58 1452.02 L1288.58 1455.22 L1264.47 1455.22 L1264.47 1452.02 Z" fill="#000000" fill-rule="evenodd" fill-opacity="1" /><path clip-path="url(#clip630)" d="M 0 0 M1304.21 1450.55 Q1306.94 1451.14 1308.46 1452.98 Q1310 1454.82 1310 1457.53 Q1310 1461.69 1307.15 1463.96 Q1304.29 1466.24 1299.02 1466.24 Q1297.25 1466.24 1295.37 1465.88 Q1293.51 1465.54 1291.52 1464.85 L1291.52 1461.18 Q1293.1 1462.1 1294.98 1462.57 Q1296.86 1463.04 1298.91 1463.04 Q1302.48 1463.04 1304.34 1461.63 Q1306.22 1460.22 1306.22 1457.53 Q1306.22 1455.05 1304.47 1453.66 Q1302.74 1452.25 1299.64 1452.25 L1296.37 1452.25 L1296.37 1449.12 L1299.79 1449.12 Q1302.59 1449.12 1304.08 1448.01 Q1305.57 1446.89 1305.57 1444.78 Q1305.57 1442.62 1304.02 1441.47 Q1302.5 1440.3 1299.64 1440.3 Q1298.08 1440.3 1296.29 1440.64 Q1294.51 1440.98 1292.36 1441.69 L1292.36 1438.31 Q1294.53 1437.71 1296.41 1437.41 Q1298.31 1437.11 1299.98 1437.11 Q1304.31 1437.11 1306.83 1439.08 Q1309.35 1441.04 1309.35 1444.38 Q1309.35 1446.72 1308.01 1448.33 Q1306.67 1449.93 1304.21 1450.55 Z" fill="#000000" fill-rule="evenodd" fill-opacity="1" /><path clip-path="url(#clip630)" d="M 0 0 M1731.76 1489.17 L1739.4 1489.17 L1739.4 1462.8 L1731.09 1464.47 L1731.09 1460.21 L1739.36 1458.54 L1744.03 1458.54 L1744.03 1489.17 L1751.67 1489.17 L1751.67 1493.1 L1731.76 1493.1 L1731.76 1489.17 Z" fill="#000000" fill-rule="evenodd" fill-opacity="1" /><path clip-path="url(#clip630)" d="M 0 0 M1766.74 1461.62 Q1763.13 1461.62 1761.3 1465.19 Q1759.49 1468.73 1759.49 1475.86 Q1759.49 1482.97 1761.3 1486.53 Q1763.13 1490.07 1766.74 1490.07 Q1770.37 1490.07 1772.18 1486.53 Q1774.01 1482.97 1774.01 1475.86 Q1774.01 1468.73 1772.18 1465.19 Q1770.37 1461.62 1766.74 1461.62 M1766.74 1457.92 Q1772.55 1457.92 1775.6 1462.53 Q1778.68 1467.11 1778.68 1475.86 Q1778.68 1484.59 1775.6 1489.19 Q1772.55 1493.78 1766.74 1493.78 Q1760.93 1493.78 1757.85 1489.19 Q1754.79 1484.59 1754.79 1475.86 Q1754.79 1467.11 1757.85 1462.53 Q1760.93 1457.92 1766.74 1457.92 Z" fill="#000000" fill-rule="evenodd" fill-opacity="1" /><path clip-path="url(#clip630)" d="M 0 0 M1778.68 1452.02 L1802.8 1452.02 L1802.8 1455.22 L1778.68 1455.22 L1778.68 1452.02 Z" fill="#000000" fill-rule="evenodd" fill-opacity="1" /><path clip-path="url(#clip630)" d="M 0 0 M1810.19 1462.5 L1823.45 1462.5 L1823.45 1465.69 L1805.62 1465.69 L1805.62 1462.5 Q1807.78 1460.26 1811.5 1456.5 Q1815.25 1452.72 1816.21 1451.63 Q1818.03 1449.58 1818.74 1448.16 Q1819.48 1446.74 1819.48 1445.36 Q1819.48 1443.12 1817.9 1441.71 Q1816.34 1440.3 1813.82 1440.3 Q1812.03 1440.3 1810.04 1440.92 Q1808.06 1441.54 1805.8 1442.8 L1805.8 1438.97 Q1808.1 1438.05 1810.09 1437.58 Q1812.09 1437.11 1813.74 1437.11 Q1818.1 1437.11 1820.7 1439.29 Q1823.3 1441.47 1823.3 1445.12 Q1823.3 1446.85 1822.64 1448.41 Q1822 1449.95 1820.29 1452.06 Q1819.82 1452.6 1817.3 1455.22 Q1814.78 1457.81 1810.19 1462.5 Z" fill="#000000" fill-rule="evenodd" fill-opacity="1" /><path clip-path="url(#clip630)" d="M 0 0 M2245.44 1489.17 L2253.08 1489.17 L2253.08 1462.8 L2244.77 1464.47 L2244.77 1460.21 L2253.03 1458.54 L2257.71 1458.54 L2257.71 1489.17 L2265.35 1489.17 L2265.35 1493.1 L2245.44 1493.1 L2245.44 1489.17 Z" fill="#000000" fill-rule="evenodd" fill-opacity="1" /><path clip-path="url(#clip630)" d="M 0 0 M2280.42 1461.62 Q2276.81 1461.62 2274.98 1465.19 Q2273.17 1468.73 2273.17 1475.86 Q2273.17 1482.97 2274.98 1486.53 Q2276.81 1490.07 2280.42 1490.07 Q2284.05 1490.07 2285.86 1486.53 Q2287.69 1482.97 2287.69 1475.86 Q2287.69 1468.73 2285.86 1465.19 Q2284.05 1461.62 2280.42 1461.62 M2280.42 1457.92 Q2286.23 1457.92 2289.28 1462.53 Q2292.36 1467.11 2292.36 1475.86 Q2292.36 1484.59 2289.28 1489.19 Q2286.23 1493.78 2280.42 1493.78 Q2274.61 1493.78 2271.53 1489.19 Q2268.47 1484.59 2268.47 1475.86 Q2268.47 1467.11 2271.53 1462.53 Q2274.61 1457.92 2280.42 1457.92 Z" fill="#000000" fill-rule="evenodd" fill-opacity="1" /><path clip-path="url(#clip630)" d="M 0 0 M2292.36 1452.02 L2316.47 1452.02 L2316.47 1455.22 L2292.36 1455.22 L2292.36 1452.02 Z" fill="#000000" fill-rule="evenodd" fill-opacity="1" /><path clip-path="url(#clip630)" d="M 0 0 M2321.25 1462.5 L2327.46 1462.5 L2327.46 1441.07 L2320.7 1442.43 L2320.7 1438.97 L2327.42 1437.61 L2331.22 1437.61 L2331.22 1462.5 L2337.42 1462.5 L2337.42 1465.69 L2321.25 1465.69 L2321.25 1462.5 Z" fill="#000000" fill-rule="evenodd" fill-opacity="1" /><path clip-path="url(#clip630)" d="M 0 0 M1155.72 1526.54 L1161.92 1526.54 L1173.06 1556.46 L1184.2 1526.54 L1190.41 1526.54 L1177.04 1562.19 L1169.09 1562.19 L1155.72 1526.54 Z" fill="#000000" fill-rule="evenodd" fill-opacity="1" /><path clip-path="url(#clip630)" d="M 0 0 M1223.64 1573.01 L1223.64 1577.56 L1189.77 1577.56 L1189.77 1573.01 L1223.64 1573.01 Z" fill="#000000" fill-rule="evenodd" fill-opacity="1" /><path clip-path="url(#clip630)" d="M 0 0 M1255.44 1527.91 L1255.44 1533.38 Q1252.95 1532.01 1250.44 1531.34 Q1247.96 1530.64 1245.41 1530.64 Q1239.71 1530.64 1236.56 1534.27 Q1233.41 1537.87 1233.41 1544.39 Q1233.41 1550.92 1236.56 1554.55 Q1239.71 1558.14 1245.41 1558.14 Q1247.96 1558.14 1250.44 1557.47 Q1252.95 1556.77 1255.44 1555.41 L1255.44 1560.82 Q1252.99 1561.96 1250.34 1562.54 Q1247.73 1563.11 1244.77 1563.11 Q1236.72 1563.11 1231.98 1558.05 Q1227.24 1552.99 1227.24 1544.39 Q1227.24 1535.67 1232.01 1530.68 Q1236.82 1525.68 1245.16 1525.68 Q1247.86 1525.68 1250.44 1526.25 Q1253.02 1526.79 1255.44 1527.91 Z" fill="#000000" fill-rule="evenodd" fill-opacity="1" /><path clip-path="url(#clip630)" d="M 0 0 M1261.58 1512.66 L1267.44 1512.66 L1267.44 1562.19 L1261.58 1562.19 L1261.58 1512.66 Z" fill="#000000" fill-rule="evenodd" fill-opacity="1" /><path clip-path="url(#clip630)" d="M 0 0 M1287.39 1530.64 Q1282.68 1530.64 1279.94 1534.34 Q1277.21 1538 1277.21 1544.39 Q1277.21 1550.79 1279.91 1554.48 Q1282.65 1558.14 1287.39 1558.14 Q1292.07 1558.14 1294.81 1554.45 Q1297.55 1550.76 1297.55 1544.39 Q1297.55 1538.06 1294.81 1534.37 Q1292.07 1530.64 1287.39 1530.64 M1287.39 1525.68 Q1295.03 1525.68 1299.39 1530.64 Q1303.75 1535.61 1303.75 1544.39 Q1303.75 1553.15 1299.39 1558.14 Q1295.03 1563.11 1287.39 1563.11 Q1279.72 1563.11 1275.36 1558.14 Q1271.03 1553.15 1271.03 1544.39 Q1271.03 1535.61 1275.36 1530.64 Q1279.72 1525.68 1287.39 1525.68 Z" fill="#000000" fill-rule="evenodd" fill-opacity="1" /><path clip-path="url(#clip630)" d="M 0 0 M1332.62 1527.59 L1332.62 1533.13 Q1330.14 1531.85 1327.46 1531.22 Q1324.79 1530.58 1321.93 1530.58 Q1317.57 1530.58 1315.37 1531.92 Q1313.2 1533.25 1313.2 1535.93 Q1313.2 1537.96 1314.76 1539.14 Q1316.32 1540.29 1321.03 1541.34 L1323.04 1541.78 Q1329.28 1543.12 1331.89 1545.57 Q1334.53 1547.99 1334.53 1552.35 Q1334.53 1557.32 1330.58 1560.21 Q1326.67 1563.11 1319.79 1563.11 Q1316.93 1563.11 1313.81 1562.54 Q1310.72 1561.99 1307.28 1560.88 L1307.28 1554.83 Q1310.53 1556.52 1313.68 1557.38 Q1316.83 1558.21 1319.92 1558.21 Q1324.06 1558.21 1326.29 1556.81 Q1328.51 1555.37 1328.51 1552.8 Q1328.51 1550.41 1326.89 1549.14 Q1325.3 1547.86 1319.86 1546.68 L1317.82 1546.21 Q1312.38 1545.06 1309.96 1542.71 Q1307.54 1540.32 1307.54 1536.18 Q1307.54 1531.15 1311.1 1528.42 Q1314.67 1525.68 1321.23 1525.68 Q1324.47 1525.68 1327.34 1526.16 Q1330.2 1526.63 1332.62 1527.59 Z" fill="#000000" fill-rule="evenodd" fill-opacity="1" /><path clip-path="url(#clip630)" d="M 0 0 M1371.16 1542.9 L1371.16 1545.76 L1344.24 1545.76 Q1344.62 1551.81 1347.87 1554.99 Q1351.14 1558.14 1356.97 1558.14 Q1360.34 1558.14 1363.49 1557.32 Q1366.68 1556.49 1369.8 1554.83 L1369.8 1560.37 Q1366.64 1561.71 1363.33 1562.41 Q1360.02 1563.11 1356.62 1563.11 Q1348.09 1563.11 1343.09 1558.14 Q1338.13 1553.18 1338.13 1544.71 Q1338.13 1535.96 1342.84 1530.83 Q1347.58 1525.68 1355.6 1525.68 Q1362.79 1525.68 1366.96 1530.33 Q1371.16 1534.94 1371.16 1542.9 M1365.31 1541.18 Q1365.24 1536.37 1362.6 1533.51 Q1359.99 1530.64 1355.66 1530.64 Q1350.76 1530.64 1347.8 1533.41 Q1344.87 1536.18 1344.43 1541.21 L1365.31 1541.18 Z" fill="#000000" fill-rule="evenodd" fill-opacity="1" /><polyline clip-path="url(#clip632)" style="stroke:#000000; stroke-width:2; stroke-opacity:0.1; fill:none" points="
  174.126,1169.41 2352.76,1169.41 
  "/>
<polyline clip-path="url(#clip632)" style="stroke:#000000; stroke-width:2; stroke-opacity:0.1; fill:none" points="
  174.126,870.283 2352.76,870.283 
  "/>
<polyline clip-path="url(#clip632)" style="stroke:#000000; stroke-width:2; stroke-opacity:0.1; fill:none" points="
  174.126,571.16 2352.76,571.16 
  "/>
<polyline clip-path="url(#clip632)" style="stroke:#000000; stroke-width:2; stroke-opacity:0.1; fill:none" points="
  174.126,272.037 2352.76,272.037 
  "/>
<polyline clip-path="url(#clip630)" style="stroke:#000000; stroke-width:4; stroke-opacity:1; fill:none" points="
  174.126,1410.9 174.126,47.2441 
  "/>
<polyline clip-path="url(#clip630)" style="stroke:#000000; stroke-width:4; stroke-opacity:1; fill:none" points="
  174.126,1169.41 200.269,1169.41 
  "/>
<polyline clip-path="url(#clip630)" style="stroke:#000000; stroke-width:4; stroke-opacity:1; fill:none" points="
  174.126,870.283 200.269,870.283 
  "/>
<polyline clip-path="url(#clip630)" style="stroke:#000000; stroke-width:4; stroke-opacity:1; fill:none" points="
  174.126,571.16 200.269,571.16 
  "/>
<polyline clip-path="url(#clip630)" style="stroke:#000000; stroke-width:4; stroke-opacity:1; fill:none" points="
  174.126,272.037 200.269,272.037 
  "/>
<path clip-path="url(#clip630)" d="M 0 0 M126.598 1167.54 Q123.45 1167.54 121.598 1169.7 Q119.769 1171.85 119.769 1175.6 Q119.769 1179.33 121.598 1181.5 Q123.45 1183.65 126.598 1183.65 Q129.746 1183.65 131.575 1181.5 Q133.427 1179.33 133.427 1175.6 Q133.427 1171.85 131.575 1169.7 Q129.746 1167.54 126.598 1167.54 M135.88 1152.89 L135.88 1157.15 Q134.121 1156.32 132.316 1155.88 Q130.533 1155.44 128.774 1155.44 Q124.144 1155.44 121.691 1158.56 Q119.26 1161.69 118.913 1168.01 Q120.279 1165.99 122.339 1164.93 Q124.399 1163.84 126.876 1163.84 Q132.084 1163.84 135.093 1167.01 Q138.126 1170.16 138.126 1175.6 Q138.126 1180.92 134.978 1184.14 Q131.83 1187.36 126.598 1187.36 Q120.603 1187.36 117.431 1182.77 Q114.26 1178.17 114.26 1169.44 Q114.26 1161.25 118.149 1156.39 Q122.038 1151.5 128.589 1151.5 Q130.348 1151.5 132.13 1151.85 Q133.936 1152.2 135.88 1152.89 Z" fill="#000000" fill-rule="evenodd" fill-opacity="1" /><path clip-path="url(#clip630)" d="M 0 0 M115.904 853.003 L138.126 853.003 L138.126 854.994 L125.58 887.563 L120.695 887.563 L132.501 856.938 L115.904 856.938 L115.904 853.003 Z" fill="#000000" fill-rule="evenodd" fill-opacity="1" /><path clip-path="url(#clip630)" d="M 0 0 M126.274 572.028 Q122.941 572.028 121.019 573.811 Q119.121 575.593 119.121 578.718 Q119.121 581.843 121.019 583.626 Q122.941 585.408 126.274 585.408 Q129.607 585.408 131.529 583.626 Q133.45 581.82 133.45 578.718 Q133.45 575.593 131.529 573.811 Q129.63 572.028 126.274 572.028 M121.598 570.038 Q118.589 569.297 116.899 567.237 Q115.232 565.177 115.232 562.214 Q115.232 558.07 118.172 555.663 Q121.135 553.255 126.274 553.255 Q131.436 553.255 134.376 555.663 Q137.316 558.07 137.316 562.214 Q137.316 565.177 135.626 567.237 Q133.959 569.297 130.973 570.038 Q134.353 570.825 136.228 573.116 Q138.126 575.408 138.126 578.718 Q138.126 583.741 135.047 586.426 Q131.992 589.112 126.274 589.112 Q120.556 589.112 117.478 586.426 Q114.422 583.741 114.422 578.718 Q114.422 575.408 116.32 573.116 Q118.218 570.825 121.598 570.038 M119.885 562.653 Q119.885 565.339 121.552 566.843 Q123.242 568.348 126.274 568.348 Q129.283 568.348 130.973 566.843 Q132.686 565.339 132.686 562.653 Q132.686 559.968 130.973 558.464 Q129.283 556.959 126.274 556.959 Q123.242 556.959 121.552 558.464 Q119.885 559.968 119.885 562.653 Z" fill="#000000" fill-rule="evenodd" fill-opacity="1" /><path clip-path="url(#clip630)" d="M 0 0 M116.506 288.6 L116.506 284.341 Q118.265 285.174 120.07 285.614 Q121.876 286.053 123.612 286.053 Q128.242 286.053 130.672 282.952 Q133.126 279.827 133.473 273.484 Q132.13 275.475 130.07 276.54 Q128.01 277.604 125.51 277.604 Q120.325 277.604 117.293 274.479 Q114.283 271.331 114.283 265.892 Q114.283 260.568 117.431 257.35 Q120.58 254.132 125.811 254.132 Q131.806 254.132 134.954 258.739 Q138.126 263.322 138.126 272.072 Q138.126 280.243 134.237 285.128 Q130.371 289.989 123.82 289.989 Q122.061 289.989 120.255 289.641 Q118.45 289.294 116.506 288.6 M125.811 273.947 Q128.959 273.947 130.788 271.794 Q132.64 269.642 132.64 265.892 Q132.64 262.165 130.788 260.012 Q128.959 257.836 125.811 257.836 Q122.663 257.836 120.811 260.012 Q118.982 262.165 118.982 265.892 Q118.982 269.642 120.811 271.794 Q122.663 273.947 125.811 273.947 Z" fill="#000000" fill-rule="evenodd" fill-opacity="1" /><path clip-path="url(#clip630)" d="M 0 0 M59.1993 815.533 Q55.2526 813.336 53.3747 810.281 Q51.4968 807.225 51.4968 803.088 Q51.4968 797.518 55.4117 794.494 Q59.2948 791.47 66.4881 791.47 L88.0042 791.47 L88.0042 797.358 L66.679 797.358 Q61.5546 797.358 59.072 799.173 Q56.5894 800.987 56.5894 804.711 Q56.5894 809.262 59.6131 811.904 Q62.6368 814.546 67.8567 814.546 L88.0042 814.546 L88.0042 820.434 L66.679 820.434 Q61.5228 820.434 59.072 822.248 Q56.5894 824.063 56.5894 827.85 Q56.5894 832.338 59.6449 834.98 Q62.6686 837.622 67.8567 837.622 L88.0042 837.622 L88.0042 843.51 L52.3562 843.51 L52.3562 837.622 L57.8944 837.622 Q54.616 835.616 53.0564 832.815 Q51.4968 830.015 51.4968 826.163 Q51.4968 822.28 53.4702 819.575 Q55.4436 816.838 59.1993 815.533 Z" fill="#000000" fill-rule="evenodd" fill-opacity="1" /><path clip-path="url(#clip630)" d="M 0 0 M52.3562 785.327 L52.3562 779.471 L88.0042 779.471 L88.0042 785.327 L52.3562 785.327 M38.479 785.327 L38.479 779.471 L45.895 779.471 L45.895 785.327 L38.479 785.327 Z" fill="#000000" fill-rule="evenodd" fill-opacity="1" /><path clip-path="url(#clip630)" d="M 0 0 M66.4881 743.696 L88.0042 743.696 L88.0042 749.552 L66.679 749.552 Q61.6183 749.552 59.1038 751.525 Q56.5894 753.499 56.5894 757.446 Q56.5894 762.188 59.6131 764.925 Q62.6368 767.662 67.8567 767.662 L88.0042 767.662 L88.0042 773.551 L52.3562 773.551 L52.3562 767.662 L57.8944 767.662 Q54.6797 765.562 53.0883 762.729 Q51.4968 759.864 51.4968 756.141 Q51.4968 749.998 55.3163 746.847 Q59.1038 743.696 66.4881 743.696 Z" fill="#000000" fill-rule="evenodd" fill-opacity="1" /><path clip-path="url(#clip630)" d="M 0 0 M98.8259 710.467 L103.377 710.467 L103.377 744.332 L98.8259 744.332 L98.8259 710.467 Z" fill="#000000" fill-rule="evenodd" fill-opacity="1" /><path clip-path="url(#clip630)" d="M 0 0 M57.7671 680.866 L38.479 680.866 L38.479 675.01 L88.0042 675.01 L88.0042 680.866 L82.657 680.866 Q85.8398 682.712 87.3994 685.545 Q88.9272 688.346 88.9272 692.292 Q88.9272 698.754 83.771 702.828 Q78.6147 706.87 70.212 706.87 Q61.8093 706.87 56.6531 702.828 Q51.4968 698.754 51.4968 692.292 Q51.4968 688.346 53.0564 685.545 Q54.5842 682.712 57.7671 680.866 M70.212 700.823 Q76.6732 700.823 80.3653 698.181 Q84.0256 695.507 84.0256 690.86 Q84.0256 686.213 80.3653 683.54 Q76.6732 680.866 70.212 680.866 Q63.7508 680.866 60.0905 683.54 Q56.3984 686.213 56.3984 690.86 Q56.3984 695.507 60.0905 698.181 Q63.7508 700.823 70.212 700.823 Z" fill="#000000" fill-rule="evenodd" fill-opacity="1" /><path clip-path="url(#clip630)" d="M 0 0 M52.3562 668.867 L52.3562 663.01 L88.0042 663.01 L88.0042 668.867 L52.3562 668.867 M38.479 668.867 L38.479 663.01 L45.895 663.01 L45.895 668.867 L38.479 668.867 Z" fill="#000000" fill-rule="evenodd" fill-opacity="1" /><path clip-path="url(#clip630)" d="M 0 0 M38.479 638.821 L43.3487 638.821 L43.3487 644.422 Q43.3487 647.573 44.6219 648.815 Q45.895 650.024 49.2052 650.024 L52.3562 650.024 L52.3562 640.38 L56.9077 640.38 L56.9077 650.024 L88.0042 650.024 L88.0042 655.912 L56.9077 655.912 L56.9077 661.514 L52.3562 661.514 L52.3562 655.912 L49.8736 655.912 Q43.9216 655.912 41.2162 653.143 Q38.479 650.374 38.479 644.359 L38.479 638.821 Z" fill="#000000" fill-rule="evenodd" fill-opacity="1" /><path clip-path="url(#clip630)" d="M 0 0 M38.479 614.631 L43.3487 614.631 L43.3487 620.233 Q43.3487 623.384 44.6219 624.625 Q45.895 625.835 49.2052 625.835 L52.3562 625.835 L52.3562 616.19 L56.9077 616.19 L56.9077 625.835 L88.0042 625.835 L88.0042 631.723 L56.9077 631.723 L56.9077 637.325 L52.3562 637.325 L52.3562 631.723 L49.8736 631.723 Q43.9216 631.723 41.2162 628.954 Q38.479 626.185 38.479 620.169 L38.479 614.631 Z" fill="#000000" fill-rule="evenodd" fill-opacity="1" /><polyline clip-path="url(#clip632)" style="stroke:#009af9; stroke-width:20; stroke-opacity:1; fill:none" stroke-dasharray="80, 50" points="
  235.785,321.734 749.613,85.838 1263.44,1372.3 1777.27,1091.04 2291.1,607.557 
  "/>
<path clip-path="url(#clip630)" d="
M1987.05 213.659 L2280.13 213.659 L2280.13 92.6992 L1987.05 92.6992  Z
  " fill="#ffffff" fill-rule="evenodd" fill-opacity="1"/>
<polyline clip-path="url(#clip630)" style="stroke:#000000; stroke-width:4; stroke-opacity:1; fill:none" points="
  1987.05,213.659 2280.13,213.659 2280.13,92.6992 1987.05,92.6992 1987.05,213.659 
  "/>
<polyline clip-path="url(#clip630)" style="stroke:#009af9; stroke-width:4; stroke-opacity:1; fill:none" stroke-dasharray="16, 10" points="
  2011.25,153.179 2156.5,153.179 
  "/>
<path clip-path="url(#clip630)" d="M 0 0 M2194.55 172.867 Q2192.74 177.496 2191.03 178.908 Q2189.31 180.32 2186.44 180.32 L2183.04 180.32 L2183.04 176.755 L2185.54 176.755 Q2187.3 176.755 2188.27 175.922 Q2189.24 175.089 2190.42 171.987 L2191.19 170.043 L2180.7 144.533 L2185.22 144.533 L2193.32 164.811 L2201.42 144.533 L2205.93 144.533 L2194.55 172.867 Z" fill="#000000" fill-rule="evenodd" fill-opacity="1" /><path clip-path="url(#clip630)" d="M 0 0 M2211.81 166.524 L2219.45 166.524 L2219.45 140.158 L2211.14 141.825 L2211.14 137.566 L2219.41 135.899 L2224.08 135.899 L2224.08 166.524 L2231.72 166.524 L2231.72 170.459 L2211.81 170.459 L2211.81 166.524 Z" fill="#000000" fill-rule="evenodd" fill-opacity="1" /></svg>
