<?xml version="1.0" encoding="utf-8"?>
<svg xmlns="http://www.w3.org/2000/svg" xmlns:xlink="http://www.w3.org/1999/xlink" width="600" height="400" viewBox="0 0 2400 1600">
<defs>
  <clipPath id="clip610">
    <rect x="0" y="0" width="2400" height="1600"/>
  </clipPath>
</defs>
<path clip-path="url(#clip610)" d="
M0 1600 L2400 1600 L2400 0 L0 0  Z
  " fill="#ffffff" fill-rule="evenodd" fill-opacity="1"/>
<defs>
  <clipPath id="clip611">
    <rect x="480" y="0" width="1681" height="1600"/>
  </clipPath>
</defs>
<path clip-path="url(#clip610)" d="
M198.339 1410.9 L2352.76 1410.9 L2352.76 47.2441 L198.339 47.2441  Z
  " fill="#ffffff" fill-rule="evenodd" fill-opacity="1"/>
<defs>
  <clipPath id="clip612">
    <rect x="198" y="47" width="2155" height="1365"/>
  </clipPath>
</defs>
<polyline clip-path="url(#clip612)" style="stroke:#000000; stroke-width:2; stroke-opacity:0.1; fill:none" points="
  259.313,1410.9 259.313,47.2441 
  "/>
<polyline clip-path="url(#clip612)" style="stroke:#000000; stroke-width:2; stroke-opacity:0.1; fill:none" points="
  767.43,1410.9 767.43,47.2441 
  "/>
<polyline clip-path="url(#clip612)" style="stroke:#000000; stroke-width:2; stroke-opacity:0.1; fill:none" points="
  1275.55,1410.9 1275.55,47.2441 
  "/>
<polyline clip-path="url(#clip612)" style="stroke:#000000; stroke-width:2; stroke-opacity:0.1; fill:none" points="
  1783.66,1410.9 1783.66,47.2441 
  "/>
<polyline clip-path="url(#clip612)" style="stroke:#000000; stroke-width:2; stroke-opacity:0.1; fill:none" points="
  2291.78,1410.9 2291.78,47.2441 
  "/>
<polyline clip-path="url(#clip610)" style="stroke:#000000; stroke-width:4; stroke-opacity:1; fill:none" points="
  198.339,1410.9 2352.76,1410.9 
  "/>
<polyline clip-path="url(#clip610)" style="stroke:#000000; stroke-width:4; stroke-opacity:1; fill:none" points="
  259.313,1410.9 259.313,1394.53 
  "/>
<polyline clip-path="url(#clip610)" style="stroke:#000000; stroke-width:4; stroke-opacity:1; fill:none" points="
  767.43,1410.9 767.43,1394.53 
  "/>
<polyline clip-path="url(#clip610)" style="stroke:#000000; stroke-width:4; stroke-opacity:1; fill:none" points="
  1275.55,1410.9 1275.55,1394.53 
  "/>
<polyline clip-path="url(#clip610)" style="stroke:#000000; stroke-width:4; stroke-opacity:1; fill:none" points="
  1783.66,1410.9 1783.66,1394.53 
  "/>
<polyline clip-path="url(#clip610)" style="stroke:#000000; stroke-width:4; stroke-opacity:1; fill:none" points="
  2291.78,1410.9 2291.78,1394.53 
  "/>
<path clip-path="url(#clip610)" d="M 0 0 M187.1 1489.17 L194.738 1489.17 L194.738 1462.8 L186.428 1464.47 L186.428 1460.21 L194.692 1458.54 L199.368 1458.54 L199.368 1489.17 L207.007 1489.17 L207.007 1493.1 L187.1 1493.1 L187.1 1489.17 Z" fill="#000000" fill-rule="evenodd" fill-opacity="1" /><path clip-path="url(#clip610)" d="M 0 0 M222.076 1461.62 Q218.465 1461.62 216.636 1465.19 Q214.831 1468.73 214.831 1475.86 Q214.831 1482.97 216.636 1486.53 Q218.465 1490.07 222.076 1490.07 Q225.71 1490.07 227.516 1486.53 Q229.345 1482.97 229.345 1475.86 Q229.345 1468.73 227.516 1465.19 Q225.71 1461.62 222.076 1461.62 M222.076 1457.92 Q227.886 1457.92 230.942 1462.53 Q234.021 1467.11 234.021 1475.86 Q234.021 1484.59 230.942 1489.19 Q227.886 1493.78 222.076 1493.78 Q216.266 1493.78 213.187 1489.19 Q210.132 1484.59 210.132 1475.86 Q210.132 1467.11 213.187 1462.53 Q216.266 1457.92 222.076 1457.92 Z" fill="#000000" fill-rule="evenodd" fill-opacity="1" /><path clip-path="url(#clip610)" d="M 0 0 M234.021 1452.02 L258.132 1452.02 L258.132 1455.22 L234.021 1455.22 L234.021 1452.02 Z" fill="#000000" fill-rule="evenodd" fill-opacity="1" /><path clip-path="url(#clip610)" d="M 0 0 M270.846 1450.14 Q268.288 1450.14 266.784 1451.89 Q265.298 1453.64 265.298 1456.68 Q265.298 1459.71 266.784 1461.48 Q268.288 1463.23 270.846 1463.23 Q273.404 1463.23 274.89 1461.48 Q276.394 1459.71 276.394 1456.68 Q276.394 1453.64 274.89 1451.89 Q273.404 1450.14 270.846 1450.14 M278.388 1438.23 L278.388 1441.69 Q276.959 1441.02 275.492 1440.66 Q274.044 1440.3 272.614 1440.3 Q268.853 1440.3 266.859 1442.84 Q264.884 1445.38 264.602 1450.52 Q265.712 1448.88 267.386 1448.01 Q269.059 1447.13 271.072 1447.13 Q275.304 1447.13 277.749 1449.71 Q280.212 1452.26 280.212 1456.68 Q280.212 1461.01 277.655 1463.62 Q275.097 1466.24 270.846 1466.24 Q265.975 1466.24 263.398 1462.51 Q260.822 1458.77 260.822 1451.68 Q260.822 1445.02 263.981 1441.07 Q267.141 1437.11 272.464 1437.11 Q273.893 1437.11 275.341 1437.39 Q276.808 1437.67 278.388 1438.23 Z" fill="#000000" fill-rule="evenodd" fill-opacity="1" /><path clip-path="url(#clip610)" d="M 0 0 M284.331 1460.92 L288.3 1460.92 L288.3 1465.69 L284.331 1465.69 L284.331 1460.92 Z" fill="#000000" fill-rule="evenodd" fill-opacity="1" /><path clip-path="url(#clip610)" d="M 0 0 M300.544 1440.11 Q297.61 1440.11 296.124 1443.01 Q294.657 1445.89 294.657 1451.68 Q294.657 1457.46 296.124 1460.35 Q297.61 1463.23 300.544 1463.23 Q303.496 1463.23 304.963 1460.35 Q306.449 1457.46 306.449 1451.68 Q306.449 1445.89 304.963 1443.01 Q303.496 1440.11 300.544 1440.11 M300.544 1437.11 Q305.264 1437.11 307.747 1440.85 Q310.248 1444.57 310.248 1451.68 Q310.248 1458.77 307.747 1462.51 Q305.264 1466.24 300.544 1466.24 Q295.823 1466.24 293.321 1462.51 Q290.839 1458.77 290.839 1451.68 Q290.839 1444.57 293.321 1440.85 Q295.823 1437.11 300.544 1437.11 Z" fill="#000000" fill-rule="evenodd" fill-opacity="1" /><path clip-path="url(#clip610)" d="M 0 0 M322.492 1440.11 Q319.558 1440.11 318.072 1443.01 Q316.605 1445.89 316.605 1451.68 Q316.605 1457.46 318.072 1460.35 Q319.558 1463.23 322.492 1463.23 Q325.445 1463.23 326.912 1460.35 Q328.398 1457.46 328.398 1451.68 Q328.398 1445.89 326.912 1443.01 Q325.445 1440.11 322.492 1440.11 M322.492 1437.11 Q327.213 1437.11 329.696 1440.85 Q332.197 1444.57 332.197 1451.68 Q332.197 1458.77 329.696 1462.51 Q327.213 1466.24 322.492 1466.24 Q317.772 1466.24 315.27 1462.51 Q312.788 1458.77 312.788 1451.68 Q312.788 1444.57 315.27 1440.85 Q317.772 1437.11 322.492 1437.11 Z" fill="#000000" fill-rule="evenodd" fill-opacity="1" /><path clip-path="url(#clip610)" d="M 0 0 M696.458 1489.17 L704.097 1489.17 L704.097 1462.8 L695.787 1464.47 L695.787 1460.21 L704.051 1458.54 L708.727 1458.54 L708.727 1489.17 L716.365 1489.17 L716.365 1493.1 L696.458 1493.1 L696.458 1489.17 Z" fill="#000000" fill-rule="evenodd" fill-opacity="1" /><path clip-path="url(#clip610)" d="M 0 0 M731.435 1461.62 Q727.824 1461.62 725.995 1465.19 Q724.189 1468.73 724.189 1475.86 Q724.189 1482.97 725.995 1486.53 Q727.824 1490.07 731.435 1490.07 Q735.069 1490.07 736.875 1486.53 Q738.703 1482.97 738.703 1475.86 Q738.703 1468.73 736.875 1465.19 Q735.069 1461.62 731.435 1461.62 M731.435 1457.92 Q737.245 1457.92 740.3 1462.53 Q743.379 1467.11 743.379 1475.86 Q743.379 1484.59 740.3 1489.19 Q737.245 1493.78 731.435 1493.78 Q725.625 1493.78 722.546 1489.19 Q719.49 1484.59 719.49 1475.86 Q719.49 1467.11 722.546 1462.53 Q725.625 1457.92 731.435 1457.92 Z" fill="#000000" fill-rule="evenodd" fill-opacity="1" /><path clip-path="url(#clip610)" d="M 0 0 M743.379 1452.02 L767.491 1452.02 L767.491 1455.22 L743.379 1455.22 L743.379 1452.02 Z" fill="#000000" fill-rule="evenodd" fill-opacity="1" /><path clip-path="url(#clip610)" d="M 0 0 M771.647 1437.61 L786.562 1437.61 L786.562 1440.81 L775.127 1440.81 L775.127 1447.69 Q775.954 1447.41 776.782 1447.28 Q777.609 1447.13 778.437 1447.13 Q783.139 1447.13 785.885 1449.71 Q788.631 1452.28 788.631 1456.68 Q788.631 1461.22 785.809 1463.74 Q782.988 1466.24 777.854 1466.24 Q776.086 1466.24 774.243 1465.94 Q772.418 1465.64 770.462 1465.04 L770.462 1461.22 Q772.155 1462.14 773.961 1462.59 Q775.766 1463.04 777.779 1463.04 Q781.032 1463.04 782.932 1461.33 Q784.831 1459.62 784.831 1456.68 Q784.831 1453.75 782.932 1452.04 Q781.032 1450.33 777.779 1450.33 Q776.255 1450.33 774.732 1450.67 Q773.227 1451 771.647 1451.72 L771.647 1437.61 Z" fill="#000000" fill-rule="evenodd" fill-opacity="1" /><path clip-path="url(#clip610)" d="M 0 0 M792.75 1460.92 L796.718 1460.92 L796.718 1465.69 L792.75 1465.69 L792.75 1460.92 Z" fill="#000000" fill-rule="evenodd" fill-opacity="1" /><path clip-path="url(#clip610)" d="M 0 0 M799.878 1437.61 L817.933 1437.61 L817.933 1439.23 L807.739 1465.69 L803.771 1465.69 L813.363 1440.81 L799.878 1440.81 L799.878 1437.61 Z" fill="#000000" fill-rule="evenodd" fill-opacity="1" /><path clip-path="url(#clip610)" d="M 0 0 M822.09 1437.61 L837.004 1437.61 L837.004 1440.81 L825.569 1440.81 L825.569 1447.69 Q826.397 1447.41 827.224 1447.28 Q828.052 1447.13 828.879 1447.13 Q833.581 1447.13 836.327 1449.71 Q839.073 1452.28 839.073 1456.68 Q839.073 1461.22 836.252 1463.74 Q833.431 1466.24 828.296 1466.24 Q826.528 1466.24 824.685 1465.94 Q822.861 1465.64 820.905 1465.04 L820.905 1461.22 Q822.597 1462.14 824.403 1462.59 Q826.209 1463.04 828.221 1463.04 Q831.475 1463.04 833.374 1461.33 Q835.274 1459.62 835.274 1456.68 Q835.274 1453.75 833.374 1452.04 Q831.475 1450.33 828.221 1450.33 Q826.698 1450.33 825.174 1450.67 Q823.67 1451 822.09 1451.72 L822.09 1437.61 Z" fill="#000000" fill-rule="evenodd" fill-opacity="1" /><path clip-path="url(#clip610)" d="M 0 0 M1204.21 1489.17 L1211.85 1489.17 L1211.85 1462.8 L1203.54 1464.47 L1203.54 1460.21 L1211.8 1458.54 L1216.48 1458.54 L1216.48 1489.17 L1224.12 1489.17 L1224.12 1493.1 L1204.21 1493.1 L1204.21 1489.17 Z" fill="#000000" fill-rule="evenodd" fill-opacity="1" /><path clip-path="url(#clip610)" d="M 0 0 M1239.19 1461.62 Q1235.57 1461.62 1233.75 1465.19 Q1231.94 1468.73 1231.94 1475.86 Q1231.94 1482.97 1233.75 1486.53 Q1235.57 1490.07 1239.19 1490.07 Q1242.82 1490.07 1244.63 1486.53 Q1246.45 1482.97 1246.45 1475.86 Q1246.45 1468.73 1244.63 1465.19 Q1242.82 1461.62 1239.19 1461.62 M1239.19 1457.92 Q1245 1457.92 1248.05 1462.53 Q1251.13 1467.11 1251.13 1475.86 Q1251.13 1484.59 1248.05 1489.19 Q1245 1493.78 1239.19 1493.78 Q1233.38 1493.78 1230.3 1489.19 Q1227.24 1484.59 1227.24 1475.86 Q1227.24 1467.11 1230.3 1462.53 Q1233.38 1457.92 1239.19 1457.92 Z" fill="#000000" fill-rule="evenodd" fill-opacity="1" /><path clip-path="url(#clip610)" d="M 0 0 M1251.13 1452.02 L1275.24 1452.02 L1275.24 1455.22 L1251.13 1455.22 L1251.13 1452.02 Z" fill="#000000" fill-rule="evenodd" fill-opacity="1" /><path clip-path="url(#clip610)" d="M 0 0 M1279.4 1437.61 L1294.31 1437.61 L1294.31 1440.81 L1282.88 1440.81 L1282.88 1447.69 Q1283.7 1447.41 1284.53 1447.28 Q1285.36 1447.13 1286.19 1447.13 Q1290.89 1447.13 1293.64 1449.71 Q1296.38 1452.28 1296.38 1456.68 Q1296.38 1461.22 1293.56 1463.74 Q1290.74 1466.24 1285.6 1466.24 Q1283.84 1466.24 1281.99 1465.94 Q1280.17 1465.64 1278.21 1465.04 L1278.21 1461.22 Q1279.91 1462.14 1281.71 1462.59 Q1283.52 1463.04 1285.53 1463.04 Q1288.78 1463.04 1290.68 1461.33 Q1292.58 1459.62 1292.58 1456.68 Q1292.58 1453.75 1290.68 1452.04 Q1288.78 1450.33 1285.53 1450.33 Q1284.01 1450.33 1282.48 1450.67 Q1280.98 1451 1279.4 1451.72 L1279.4 1437.61 Z" fill="#000000" fill-rule="evenodd" fill-opacity="1" /><path clip-path="url(#clip610)" d="M 0 0 M1300.5 1460.92 L1304.47 1460.92 L1304.47 1465.69 L1300.5 1465.69 L1300.5 1460.92 Z" fill="#000000" fill-rule="evenodd" fill-opacity="1" /><path clip-path="url(#clip610)" d="M 0 0 M1308.63 1437.61 L1323.54 1437.61 L1323.54 1440.81 L1312.1 1440.81 L1312.1 1447.69 Q1312.93 1447.41 1313.76 1447.28 Q1314.59 1447.13 1315.41 1447.13 Q1320.12 1447.13 1322.86 1449.71 Q1325.61 1452.28 1325.61 1456.68 Q1325.61 1461.22 1322.79 1463.74 Q1319.97 1466.24 1314.83 1466.24 Q1313.06 1466.24 1311.22 1465.94 Q1309.4 1465.64 1307.44 1465.04 L1307.44 1461.22 Q1309.13 1462.14 1310.94 1462.59 Q1312.74 1463.04 1314.76 1463.04 Q1318.01 1463.04 1319.91 1461.33 Q1321.81 1459.62 1321.81 1456.68 Q1321.81 1453.75 1319.91 1452.04 Q1318.01 1450.33 1314.76 1450.33 Q1313.23 1450.33 1311.71 1450.67 Q1310.2 1451 1308.63 1451.72 L1308.63 1437.61 Z" fill="#000000" fill-rule="evenodd" fill-opacity="1" /><path clip-path="url(#clip610)" d="M 0 0 M1337.85 1440.11 Q1334.92 1440.11 1333.43 1443.01 Q1331.97 1445.89 1331.97 1451.68 Q1331.97 1457.46 1333.43 1460.35 Q1334.92 1463.23 1337.85 1463.23 Q1340.81 1463.23 1342.27 1460.35 Q1343.76 1457.46 1343.76 1451.68 Q1343.76 1445.89 1342.27 1443.01 Q1340.81 1440.11 1337.85 1440.11 M1337.85 1437.11 Q1342.57 1437.11 1345.06 1440.85 Q1347.56 1444.57 1347.56 1451.68 Q1347.56 1458.77 1345.06 1462.51 Q1342.57 1466.24 1337.85 1466.24 Q1333.13 1466.24 1330.63 1462.51 Q1328.15 1458.77 1328.15 1451.68 Q1328.15 1444.57 1330.63 1440.85 Q1333.13 1437.11 1337.85 1437.11 Z" fill="#000000" fill-rule="evenodd" fill-opacity="1" /><path clip-path="url(#clip610)" d="M 0 0 M1712.97 1489.17 L1720.61 1489.17 L1720.61 1462.8 L1712.3 1464.47 L1712.3 1460.21 L1720.57 1458.54 L1725.24 1458.54 L1725.24 1489.17 L1732.88 1489.17 L1732.88 1493.1 L1712.97 1493.1 L1712.97 1489.17 Z" fill="#000000" fill-rule="evenodd" fill-opacity="1" /><path clip-path="url(#clip610)" d="M 0 0 M1747.95 1461.62 Q1744.34 1461.62 1742.51 1465.19 Q1740.71 1468.73 1740.71 1475.86 Q1740.71 1482.97 1742.51 1486.53 Q1744.34 1490.07 1747.95 1490.07 Q1751.59 1490.07 1753.39 1486.53 Q1755.22 1482.97 1755.22 1475.86 Q1755.22 1468.73 1753.39 1465.19 Q1751.59 1461.62 1747.95 1461.62 M1747.95 1457.92 Q1753.76 1457.92 1756.82 1462.53 Q1759.9 1467.11 1759.9 1475.86 Q1759.9 1484.59 1756.82 1489.19 Q1753.76 1493.78 1747.95 1493.78 Q1742.14 1493.78 1739.06 1489.19 Q1736.01 1484.59 1736.01 1475.86 Q1736.01 1467.11 1739.06 1462.53 Q1742.14 1457.92 1747.95 1457.92 Z" fill="#000000" fill-rule="evenodd" fill-opacity="1" /><path clip-path="url(#clip610)" d="M 0 0 M1759.9 1452.02 L1784.01 1452.02 L1784.01 1455.22 L1759.9 1455.22 L1759.9 1452.02 Z" fill="#000000" fill-rule="evenodd" fill-opacity="1" /><path clip-path="url(#clip610)" d="M 0 0 M1788.16 1437.61 L1803.08 1437.61 L1803.08 1440.81 L1791.64 1440.81 L1791.64 1447.69 Q1792.47 1447.41 1793.3 1447.28 Q1794.13 1447.13 1794.95 1447.13 Q1799.66 1447.13 1802.4 1449.71 Q1805.15 1452.28 1805.15 1456.68 Q1805.15 1461.22 1802.33 1463.74 Q1799.51 1466.24 1794.37 1466.24 Q1792.6 1466.24 1790.76 1465.94 Q1788.94 1465.64 1786.98 1465.04 L1786.98 1461.22 Q1788.67 1462.14 1790.48 1462.59 Q1792.28 1463.04 1794.3 1463.04 Q1797.55 1463.04 1799.45 1461.33 Q1801.35 1459.62 1801.35 1456.68 Q1801.35 1453.75 1799.45 1452.04 Q1797.55 1450.33 1794.3 1450.33 Q1792.77 1450.33 1791.25 1450.67 Q1789.74 1451 1788.16 1451.72 L1788.16 1437.61 Z" fill="#000000" fill-rule="evenodd" fill-opacity="1" /><path clip-path="url(#clip610)" d="M 0 0 M1809.27 1460.92 L1813.23 1460.92 L1813.23 1465.69 L1809.27 1465.69 L1809.27 1460.92 Z" fill="#000000" fill-rule="evenodd" fill-opacity="1" /><path clip-path="url(#clip610)" d="M 0 0 M1820.63 1462.5 L1833.89 1462.5 L1833.89 1465.69 L1816.06 1465.69 L1816.06 1462.5 Q1818.22 1460.26 1821.94 1456.5 Q1825.69 1452.72 1826.64 1451.63 Q1828.47 1449.58 1829.18 1448.16 Q1829.92 1446.74 1829.92 1445.36 Q1829.92 1443.12 1828.34 1441.71 Q1826.78 1440.3 1824.26 1440.3 Q1822.47 1440.3 1820.48 1440.92 Q1818.5 1441.54 1816.24 1442.8 L1816.24 1438.97 Q1818.54 1438.05 1820.53 1437.58 Q1822.53 1437.11 1824.18 1437.11 Q1828.54 1437.11 1831.14 1439.29 Q1833.74 1441.47 1833.74 1445.12 Q1833.74 1446.85 1833.08 1448.41 Q1832.44 1449.95 1830.73 1452.06 Q1830.26 1452.6 1827.74 1455.22 Q1825.22 1457.81 1820.63 1462.5 Z" fill="#000000" fill-rule="evenodd" fill-opacity="1" /><path clip-path="url(#clip610)" d="M 0 0 M1838.04 1437.61 L1852.96 1437.61 L1852.96 1440.81 L1841.52 1440.81 L1841.52 1447.69 Q1842.35 1447.41 1843.18 1447.28 Q1844 1447.13 1844.83 1447.13 Q1849.53 1447.13 1852.28 1449.71 Q1855.03 1452.28 1855.03 1456.68 Q1855.03 1461.22 1852.2 1463.74 Q1849.38 1466.24 1844.25 1466.24 Q1842.48 1466.24 1840.64 1465.94 Q1838.81 1465.64 1836.86 1465.04 L1836.86 1461.22 Q1838.55 1462.14 1840.36 1462.59 Q1842.16 1463.04 1844.17 1463.04 Q1847.43 1463.04 1849.33 1461.33 Q1851.23 1459.62 1851.23 1456.68 Q1851.23 1453.75 1849.33 1452.04 Q1847.43 1450.33 1844.17 1450.33 Q1842.65 1450.33 1841.13 1450.67 Q1839.62 1451 1838.04 1451.72 L1838.04 1437.61 Z" fill="#000000" fill-rule="evenodd" fill-opacity="1" /><path clip-path="url(#clip610)" d="M 0 0 M2220.04 1489.17 L2227.68 1489.17 L2227.68 1462.8 L2219.37 1464.47 L2219.37 1460.21 L2227.63 1458.54 L2232.31 1458.54 L2232.31 1489.17 L2239.95 1489.17 L2239.95 1493.1 L2220.04 1493.1 L2220.04 1489.17 Z" fill="#000000" fill-rule="evenodd" fill-opacity="1" /><path clip-path="url(#clip610)" d="M 0 0 M2255.02 1461.62 Q2251.4 1461.62 2249.58 1465.19 Q2247.77 1468.73 2247.77 1475.86 Q2247.77 1482.97 2249.58 1486.53 Q2251.4 1490.07 2255.02 1490.07 Q2258.65 1490.07 2260.46 1486.53 Q2262.28 1482.97 2262.28 1475.86 Q2262.28 1468.73 2260.46 1465.19 Q2258.65 1461.62 2255.02 1461.62 M2255.02 1457.92 Q2260.83 1457.92 2263.88 1462.53 Q2266.96 1467.11 2266.96 1475.86 Q2266.96 1484.59 2263.88 1489.19 Q2260.83 1493.78 2255.02 1493.78 Q2249.21 1493.78 2246.13 1489.19 Q2243.07 1484.59 2243.07 1475.86 Q2243.07 1467.11 2246.13 1462.53 Q2249.21 1457.92 2255.02 1457.92 Z" fill="#000000" fill-rule="evenodd" fill-opacity="1" /><path clip-path="url(#clip610)" d="M 0 0 M2266.96 1452.02 L2291.07 1452.02 L2291.07 1455.22 L2266.96 1455.22 L2266.96 1452.02 Z" fill="#000000" fill-rule="evenodd" fill-opacity="1" /><path clip-path="url(#clip610)" d="M 0 0 M2295.23 1437.61 L2310.14 1437.61 L2310.14 1440.81 L2298.71 1440.81 L2298.71 1447.69 Q2299.53 1447.41 2300.36 1447.28 Q2301.19 1447.13 2302.02 1447.13 Q2306.72 1447.13 2309.47 1449.71 Q2312.21 1452.28 2312.21 1456.68 Q2312.21 1461.22 2309.39 1463.74 Q2306.57 1466.24 2301.43 1466.24 Q2299.67 1466.24 2297.82 1465.94 Q2296 1465.64 2294.04 1465.04 L2294.04 1461.22 Q2295.74 1462.14 2297.54 1462.59 Q2299.35 1463.04 2301.36 1463.04 Q2304.61 1463.04 2306.51 1461.33 Q2308.41 1459.62 2308.41 1456.68 Q2308.41 1453.75 2306.51 1452.04 Q2304.61 1450.33 2301.36 1450.33 Q2299.84 1450.33 2298.31 1450.67 Q2296.81 1451 2295.23 1451.72 L2295.23 1437.61 Z" fill="#000000" fill-rule="evenodd" fill-opacity="1" /><path clip-path="url(#clip610)" d="M 0 0 M2316.33 1460.92 L2320.3 1460.92 L2320.3 1465.69 L2316.33 1465.69 L2316.33 1460.92 Z" fill="#000000" fill-rule="evenodd" fill-opacity="1" /><path clip-path="url(#clip610)" d="M 0 0 M2332.54 1440.11 Q2329.61 1440.11 2328.12 1443.01 Q2326.66 1445.89 2326.66 1451.68 Q2326.66 1457.46 2328.12 1460.35 Q2329.61 1463.23 2332.54 1463.23 Q2335.5 1463.23 2336.96 1460.35 Q2338.45 1457.46 2338.45 1451.68 Q2338.45 1445.89 2336.96 1443.01 Q2335.5 1440.11 2332.54 1440.11 M2332.54 1437.11 Q2337.26 1437.11 2339.75 1440.85 Q2342.25 1444.57 2342.25 1451.68 Q2342.25 1458.77 2339.75 1462.51 Q2337.26 1466.24 2332.54 1466.24 Q2327.82 1466.24 2325.32 1462.51 Q2322.84 1458.77 2322.84 1451.68 Q2322.84 1444.57 2325.32 1440.85 Q2327.82 1437.11 2332.54 1437.11 Z" fill="#000000" fill-rule="evenodd" fill-opacity="1" /><path clip-path="url(#clip610)" d="M 0 0 M2354.49 1440.11 Q2351.56 1440.11 2350.07 1443.01 Q2348.6 1445.89 2348.6 1451.68 Q2348.6 1457.46 2350.07 1460.35 Q2351.56 1463.23 2354.49 1463.23 Q2357.44 1463.23 2358.91 1460.35 Q2360.4 1457.46 2360.4 1451.68 Q2360.4 1445.89 2358.91 1443.01 Q2357.44 1440.11 2354.49 1440.11 M2354.49 1437.11 Q2359.21 1437.11 2361.69 1440.85 Q2364.2 1444.57 2364.2 1451.68 Q2364.2 1458.77 2361.69 1462.51 Q2359.21 1466.24 2354.49 1466.24 Q2349.77 1466.24 2347.27 1462.51 Q2344.79 1458.77 2344.79 1451.68 Q2344.79 1444.57 2347.27 1440.85 Q2349.77 1437.11 2354.49 1437.11 Z" fill="#000000" fill-rule="evenodd" fill-opacity="1" /><path clip-path="url(#clip610)" d="M 0 0 M1207.07 1512.66 L1212.96 1512.66 L1212.96 1541.91 L1230.43 1526.54 L1237.91 1526.54 L1219 1543.22 L1238.71 1562.19 L1231.07 1562.19 L1212.96 1544.78 L1212.96 1562.19 L1207.07 1562.19 L1207.07 1512.66 Z" fill="#000000" fill-rule="evenodd" fill-opacity="1" /><path clip-path="url(#clip610)" d="M 0 0 M1271.93 1573.01 L1271.93 1577.56 L1238.07 1577.56 L1238.07 1573.01 L1271.93 1573.01 Z" fill="#000000" fill-rule="evenodd" fill-opacity="1" /><path clip-path="url(#clip610)" d="M 0 0 M1291.89 1530.64 Q1287.18 1530.64 1284.44 1534.34 Q1281.71 1538 1281.71 1544.39 Q1281.71 1550.79 1284.41 1554.48 Q1287.15 1558.14 1291.89 1558.14 Q1296.57 1558.14 1299.31 1554.45 Q1302.04 1550.76 1302.04 1544.39 Q1302.04 1538.06 1299.31 1534.37 Q1296.57 1530.64 1291.89 1530.64 M1291.89 1525.68 Q1299.53 1525.68 1303.89 1530.64 Q1308.25 1535.61 1308.25 1544.39 Q1308.25 1553.15 1303.89 1558.14 Q1299.53 1563.11 1291.89 1563.11 Q1284.22 1563.11 1279.86 1558.14 Q1275.53 1553.15 1275.53 1544.39 Q1275.53 1535.61 1279.86 1530.64 Q1284.22 1525.68 1291.89 1525.68 Z" fill="#000000" fill-rule="evenodd" fill-opacity="1" /><path clip-path="url(#clip610)" d="M 0 0 M1344.03 1540.67 L1344.03 1562.19 L1338.17 1562.19 L1338.17 1540.86 Q1338.17 1535.8 1336.2 1533.29 Q1334.22 1530.77 1330.28 1530.77 Q1325.53 1530.77 1322.8 1533.79 Q1320.06 1536.82 1320.06 1542.04 L1320.06 1562.19 L1314.17 1562.19 L1314.17 1526.54 L1320.06 1526.54 L1320.06 1532.08 Q1322.16 1528.86 1324.99 1527.27 Q1327.86 1525.68 1331.58 1525.68 Q1337.72 1525.68 1340.88 1529.5 Q1344.03 1533.29 1344.03 1540.67 Z" fill="#000000" fill-rule="evenodd" fill-opacity="1" /><polyline clip-path="url(#clip612)" style="stroke:#000000; stroke-width:2; stroke-opacity:0.1; fill:none" points="
  198.339,1234.23 2352.76,1234.23 
  "/>
<polyline clip-path="url(#clip612)" style="stroke:#000000; stroke-width:2; stroke-opacity:0.1; fill:none" points="
  198.339,1018.56 2352.76,1018.56 
  "/>
<polyline clip-path="url(#clip612)" style="stroke:#000000; stroke-width:2; stroke-opacity:0.1; fill:none" points="
  198.339,802.884 2352.76,802.884 
  "/>
<polyline clip-path="url(#clip612)" style="stroke:#000000; stroke-width:2; stroke-opacity:0.1; fill:none" points="
  198.339,587.212 2352.76,587.212 
  "/>
<polyline clip-path="url(#clip612)" style="stroke:#000000; stroke-width:2; stroke-opacity:0.1; fill:none" points="
  198.339,371.54 2352.76,371.54 
  "/>
<polyline clip-path="url(#clip612)" style="stroke:#000000; stroke-width:2; stroke-opacity:0.1; fill:none" points="
  198.339,155.868 2352.76,155.868 
  "/>
<polyline clip-path="url(#clip610)" style="stroke:#000000; stroke-width:4; stroke-opacity:1; fill:none" points="
  198.339,1410.9 198.339,47.2441 
  "/>
<polyline clip-path="url(#clip610)" style="stroke:#000000; stroke-width:4; stroke-opacity:1; fill:none" points="
  198.339,1234.23 224.192,1234.23 
  "/>
<polyline clip-path="url(#clip610)" style="stroke:#000000; stroke-width:4; stroke-opacity:1; fill:none" points="
  198.339,1018.56 224.192,1018.56 
  "/>
<polyline clip-path="url(#clip610)" style="stroke:#000000; stroke-width:4; stroke-opacity:1; fill:none" points="
  198.339,802.884 224.192,802.884 
  "/>
<polyline clip-path="url(#clip610)" style="stroke:#000000; stroke-width:4; stroke-opacity:1; fill:none" points="
  198.339,587.212 224.192,587.212 
  "/>
<polyline clip-path="url(#clip610)" style="stroke:#000000; stroke-width:4; stroke-opacity:1; fill:none" points="
  198.339,371.54 224.192,371.54 
  "/>
<polyline clip-path="url(#clip610)" style="stroke:#000000; stroke-width:4; stroke-opacity:1; fill:none" points="
  198.339,155.868 224.192,155.868 
  "/>
<path clip-path="url(#clip610)" d="M 0 0 M114.931 1247.57 L122.57 1247.57 L122.57 1221.21 L114.26 1222.87 L114.26 1218.61 L122.524 1216.95 L127.2 1216.95 L127.2 1247.57 L134.839 1247.57 L134.839 1251.51 L114.931 1251.51 L114.931 1247.57 Z" fill="#000000" fill-rule="evenodd" fill-opacity="1" /><path clip-path="url(#clip610)" d="M 0 0 M152.755 1221.02 L140.95 1239.47 L152.755 1239.47 L152.755 1221.02 M151.528 1216.95 L157.408 1216.95 L157.408 1239.47 L162.339 1239.47 L162.339 1243.36 L157.408 1243.36 L157.408 1251.51 L152.755 1251.51 L152.755 1243.36 L137.154 1243.36 L137.154 1238.85 L151.528 1216.95 Z" fill="#000000" fill-rule="evenodd" fill-opacity="1" /><path clip-path="url(#clip610)" d="M 0 0 M116.413 1031.9 L124.052 1031.9 L124.052 1005.54 L115.742 1007.2 L115.742 1002.94 L124.005 1001.28 L128.681 1001.28 L128.681 1031.9 L136.32 1031.9 L136.32 1035.84 L116.413 1035.84 L116.413 1031.9 Z" fill="#000000" fill-rule="evenodd" fill-opacity="1" /><path clip-path="url(#clip610)" d="M 0 0 M141.436 1001.28 L159.792 1001.28 L159.792 1005.21 L145.718 1005.21 L145.718 1013.68 Q146.737 1013.34 147.755 1013.17 Q148.774 1012.99 149.792 1012.99 Q155.579 1012.99 158.959 1016.16 Q162.339 1019.33 162.339 1024.75 Q162.339 1030.33 158.866 1033.43 Q155.394 1036.51 149.075 1036.51 Q146.899 1036.51 144.63 1036.14 Q142.385 1035.77 139.978 1035.03 L139.978 1030.33 Q142.061 1031.46 144.283 1032.02 Q146.505 1032.57 148.982 1032.57 Q152.987 1032.57 155.325 1030.47 Q157.663 1028.36 157.663 1024.75 Q157.663 1021.14 155.325 1019.03 Q152.987 1016.92 148.982 1016.92 Q147.107 1016.92 145.232 1017.34 Q143.38 1017.76 141.436 1018.64 L141.436 1001.28 Z" fill="#000000" fill-rule="evenodd" fill-opacity="1" /><path clip-path="url(#clip610)" d="M 0 0 M115.256 816.229 L122.894 816.229 L122.894 789.863 L114.584 791.53 L114.584 787.271 L122.848 785.604 L127.524 785.604 L127.524 816.229 L135.163 816.229 L135.163 820.164 L115.256 820.164 L115.256 816.229 Z" fill="#000000" fill-rule="evenodd" fill-opacity="1" /><path clip-path="url(#clip610)" d="M 0 0 M150.811 801.021 Q147.663 801.021 145.811 803.173 Q143.982 805.326 143.982 809.076 Q143.982 812.803 145.811 814.979 Q147.663 817.132 150.811 817.132 Q153.959 817.132 155.788 814.979 Q157.64 812.803 157.64 809.076 Q157.64 805.326 155.788 803.173 Q153.959 801.021 150.811 801.021 M160.093 786.368 L160.093 790.627 Q158.334 789.794 156.528 789.354 Q154.746 788.914 152.987 788.914 Q148.357 788.914 145.904 792.039 Q143.473 795.164 143.126 801.484 Q144.491 799.47 146.552 798.405 Q148.612 797.317 151.089 797.317 Q156.297 797.317 159.306 800.488 Q162.339 803.636 162.339 809.076 Q162.339 814.4 159.19 817.618 Q156.042 820.835 150.811 820.835 Q144.816 820.835 141.644 816.252 Q138.473 811.646 138.473 802.919 Q138.473 794.724 142.362 789.863 Q146.251 784.979 152.802 784.979 Q154.561 784.979 156.343 785.326 Q158.149 785.674 160.093 786.368 Z" fill="#000000" fill-rule="evenodd" fill-opacity="1" /><path clip-path="url(#clip610)" d="M 0 0 M116.32 600.557 L123.959 600.557 L123.959 574.191 L115.649 575.858 L115.649 571.599 L123.913 569.932 L128.589 569.932 L128.589 600.557 L136.228 600.557 L136.228 604.492 L116.32 604.492 L116.32 600.557 Z" fill="#000000" fill-rule="evenodd" fill-opacity="1" /><path clip-path="url(#clip610)" d="M 0 0 M140.117 569.932 L162.339 569.932 L162.339 571.923 L149.792 604.492 L144.908 604.492 L156.714 573.867 L140.117 573.867 L140.117 569.932 Z" fill="#000000" fill-rule="evenodd" fill-opacity="1" /><path clip-path="url(#clip610)" d="M 0 0 M115.51 384.885 L123.149 384.885 L123.149 358.519 L114.839 360.186 L114.839 355.927 L123.103 354.26 L127.779 354.26 L127.779 384.885 L135.417 384.885 L135.417 388.82 L115.51 388.82 L115.51 384.885 Z" fill="#000000" fill-rule="evenodd" fill-opacity="1" /><path clip-path="url(#clip610)" d="M 0 0 M150.487 372.408 Q147.153 372.408 145.232 374.19 Q143.334 375.973 143.334 379.098 Q143.334 382.223 145.232 384.005 Q147.153 385.788 150.487 385.788 Q153.82 385.788 155.741 384.005 Q157.663 382.2 157.663 379.098 Q157.663 375.973 155.741 374.19 Q153.843 372.408 150.487 372.408 M145.811 370.417 Q142.802 369.677 141.112 367.616 Q139.445 365.556 139.445 362.593 Q139.445 358.45 142.385 356.042 Q145.348 353.635 150.487 353.635 Q155.649 353.635 158.589 356.042 Q161.528 358.45 161.528 362.593 Q161.528 365.556 159.839 367.616 Q158.172 369.677 155.186 370.417 Q158.565 371.204 160.44 373.496 Q162.339 375.788 162.339 379.098 Q162.339 384.121 159.26 386.806 Q156.204 389.491 150.487 389.491 Q144.769 389.491 141.691 386.806 Q138.635 384.121 138.635 379.098 Q138.635 375.788 140.533 373.496 Q142.431 371.204 145.811 370.417 M144.098 363.033 Q144.098 365.718 145.765 367.223 Q147.454 368.727 150.487 368.727 Q153.496 368.727 155.186 367.223 Q156.899 365.718 156.899 363.033 Q156.899 360.348 155.186 358.843 Q153.496 357.339 150.487 357.339 Q147.454 357.339 145.765 358.843 Q144.098 360.348 144.098 363.033 Z" fill="#000000" fill-rule="evenodd" fill-opacity="1" /><path clip-path="url(#clip610)" d="M 0 0 M115.603 169.213 L123.242 169.213 L123.242 142.847 L114.931 144.514 L114.931 140.255 L123.195 138.588 L127.871 138.588 L127.871 169.213 L135.51 169.213 L135.51 173.148 L115.603 173.148 L115.603 169.213 Z" fill="#000000" fill-rule="evenodd" fill-opacity="1" /><path clip-path="url(#clip610)" d="M 0 0 M140.718 172.43 L140.718 168.171 Q142.478 169.004 144.283 169.444 Q146.089 169.884 147.825 169.884 Q152.454 169.884 154.885 166.782 Q157.339 163.657 157.686 157.315 Q156.343 159.305 154.283 160.37 Q152.223 161.435 149.723 161.435 Q144.538 161.435 141.505 158.31 Q138.496 155.162 138.496 149.722 Q138.496 144.398 141.644 141.18 Q144.792 137.963 150.024 137.963 Q156.019 137.963 159.167 142.569 Q162.339 147.153 162.339 155.903 Q162.339 164.074 158.45 168.958 Q154.584 173.819 148.033 173.819 Q146.274 173.819 144.468 173.472 Q142.663 173.125 140.718 172.43 M150.024 157.778 Q153.172 157.778 155.001 155.625 Q156.853 153.472 156.853 149.722 Q156.853 145.995 155.001 143.842 Q153.172 141.667 150.024 141.667 Q146.876 141.667 145.024 143.842 Q143.195 145.995 143.195 149.722 Q143.195 153.472 145.024 155.625 Q146.876 157.778 150.024 157.778 Z" fill="#000000" fill-rule="evenodd" fill-opacity="1" /><path clip-path="url(#clip610)" d="M 0 0 M59.1993 815.533 Q55.2526 813.336 53.3747 810.281 Q51.4968 807.225 51.4968 803.088 Q51.4968 797.518 55.4117 794.494 Q59.2948 791.47 66.4881 791.47 L88.0042 791.47 L88.0042 797.358 L66.679 797.358 Q61.5546 797.358 59.072 799.173 Q56.5894 800.987 56.5894 804.711 Q56.5894 809.262 59.6131 811.904 Q62.6368 814.546 67.8567 814.546 L88.0042 814.546 L88.0042 820.434 L66.679 820.434 Q61.5228 820.434 59.072 822.248 Q56.5894 824.063 56.5894 827.85 Q56.5894 832.338 59.6449 834.98 Q62.6686 837.622 67.8567 837.622 L88.0042 837.622 L88.0042 843.51 L52.3562 843.51 L52.3562 837.622 L57.8944 837.622 Q54.616 835.616 53.0564 832.815 Q51.4968 830.015 51.4968 826.163 Q51.4968 822.28 53.4702 819.575 Q55.4436 816.838 59.1993 815.533 Z" fill="#000000" fill-rule="evenodd" fill-opacity="1" /><path clip-path="url(#clip610)" d="M 0 0 M52.3562 785.327 L52.3562 779.471 L88.0042 779.471 L88.0042 785.327 L52.3562 785.327 M38.479 785.327 L38.479 779.471 L45.895 779.471 L45.895 785.327 L38.479 785.327 Z" fill="#000000" fill-rule="evenodd" fill-opacity="1" /><path clip-path="url(#clip610)" d="M 0 0 M66.4881 743.696 L88.0042 743.696 L88.0042 749.552 L66.679 749.552 Q61.6183 749.552 59.1038 751.525 Q56.5894 753.499 56.5894 757.446 Q56.5894 762.188 59.6131 764.925 Q62.6368 767.662 67.8567 767.662 L88.0042 767.662 L88.0042 773.551 L52.3562 773.551 L52.3562 767.662 L57.8944 767.662 Q54.6797 765.562 53.0883 762.729 Q51.4968 759.864 51.4968 756.141 Q51.4968 749.998 55.3163 746.847 Q59.1038 743.696 66.4881 743.696 Z" fill="#000000" fill-rule="evenodd" fill-opacity="1" /><path clip-path="url(#clip610)" d="M 0 0 M98.8259 710.467 L103.377 710.467 L103.377 744.332 L98.8259 744.332 L98.8259 710.467 Z" fill="#000000" fill-rule="evenodd" fill-opacity="1" /><path clip-path="url(#clip610)" d="M 0 0 M57.7671 680.866 L38.479 680.866 L38.479 675.01 L88.0042 675.01 L88.0042 680.866 L82.657 680.866 Q85.8398 682.712 87.3994 685.545 Q88.9272 688.346 88.9272 692.292 Q88.9272 698.754 83.771 702.828 Q78.6147 706.87 70.212 706.87 Q61.8093 706.87 56.6531 702.828 Q51.4968 698.754 51.4968 692.292 Q51.4968 688.346 53.0564 685.545 Q54.5842 682.712 57.7671 680.866 M70.212 700.823 Q76.6732 700.823 80.3653 698.181 Q84.0256 695.507 84.0256 690.86 Q84.0256 686.213 80.3653 683.54 Q76.6732 680.866 70.212 680.866 Q63.7508 680.866 60.0905 683.54 Q56.3984 686.213 56.3984 690.86 Q56.3984 695.507 60.0905 698.181 Q63.7508 700.823 70.212 700.823 Z" fill="#000000" fill-rule="evenodd" fill-opacity="1" /><path clip-path="url(#clip610)" d="M 0 0 M52.3562 668.867 L52.3562 663.01 L88.0042 663.01 L88.0042 668.867 L52.3562 668.867 M38.479 668.867 L38.479 663.01 L45.895 663.01 L45.895 668.867 L38.479 668.867 Z" fill="#000000" fill-rule="evenodd" fill-opacity="1" /><path clip-path="url(#clip610)" d="M 0 0 M38.479 638.821 L43.3487 638.821 L43.3487 644.422 Q43.3487 647.573 44.6219 648.815 Q45.895 650.024 49.2052 650.024 L52.3562 650.024 L52.3562 640.38 L56.9077 640.38 L56.9077 650.024 L88.0042 650.024 L88.0042 655.912 L56.9077 655.912 L56.9077 661.514 L52.3562 661.514 L52.3562 655.912 L49.8736 655.912 Q43.9216 655.912 41.2162 653.143 Q38.479 650.374 38.479 644.359 L38.479 638.821 Z" fill="#000000" fill-rule="evenodd" fill-opacity="1" /><path clip-path="url(#clip610)" d="M 0 0 M38.479 614.631 L43.3487 614.631 L43.3487 620.233 Q43.3487 623.384 44.6219 624.625 Q45.895 625.835 49.2052 625.835 L52.3562 625.835 L52.3562 616.19 L56.9077 616.19 L56.9077 625.835 L88.0042 625.835 L88.0042 631.723 L56.9077 631.723 L56.9077 637.325 L52.3562 637.325 L52.3562 631.723 L49.8736 631.723 Q43.9216 631.723 41.2162 628.954 Q38.479 626.185 38.479 620.169 L38.479 614.631 Z" fill="#000000" fill-rule="evenodd" fill-opacity="1" /><polyline clip-path="url(#clip612)" style="stroke:#009af9; stroke-width:20; stroke-opacity:1; fill:none" stroke-dasharray="80, 50" points="
  259.313,1174.17 1275.55,1372.3 2291.78,85.838 
  "/>
<path clip-path="url(#clip610)" d="
M1990.54 213.659 L2280.94 213.659 L2280.94 92.6992 L1990.54 92.6992  Z
  " fill="#ffffff" fill-rule="evenodd" fill-opacity="1"/>
<polyline clip-path="url(#clip610)" style="stroke:#000000; stroke-width:4; stroke-opacity:1; fill:none" points="
  1990.54,213.659 2280.94,213.659 2280.94,92.6992 1990.54,92.6992 1990.54,213.659 
  "/>
<polyline clip-path="url(#clip610)" style="stroke:#009af9; stroke-width:4; stroke-opacity:1; fill:none" stroke-dasharray="16, 10" points="
  2014.48,153.179 2158.11,153.179 
  "/>
<path clip-path="url(#clip610)" d="M 0 0 M2195.89 172.867 Q2194.08 177.496 2192.37 178.908 Q2190.66 180.32 2187.79 180.32 L2184.39 180.32 L2184.39 176.755 L2186.89 176.755 Q2188.64 176.755 2189.62 175.922 Q2190.59 175.089 2191.77 171.987 L2192.53 170.043 L2182.05 144.533 L2186.56 144.533 L2194.66 164.811 L2202.77 144.533 L2207.28 144.533 L2195.89 172.867 Z" fill="#000000" fill-rule="evenodd" fill-opacity="1" /><path clip-path="url(#clip610)" d="M 0 0 M2213.16 166.524 L2220.8 166.524 L2220.8 140.158 L2212.49 141.825 L2212.49 137.566 L2220.75 135.899 L2225.43 135.899 L2225.43 166.524 L2233.07 166.524 L2233.07 170.459 L2213.16 170.459 L2213.16 166.524 Z" fill="#000000" fill-rule="evenodd" fill-opacity="1" /></svg>
