<?xml version="1.0" encoding="utf-8"?>
<svg xmlns="http://www.w3.org/2000/svg" xmlns:xlink="http://www.w3.org/1999/xlink" width="600" height="400" viewBox="0 0 2400 1600">
<defs>
  <clipPath id="clip070">
    <rect x="0" y="0" width="2400" height="1600"/>
  </clipPath>
</defs>
<path clip-path="url(#clip070)" d="
M0 1600 L2400 1600 L2400 0 L0 0  Z
  " fill="#ffffff" fill-rule="evenodd" fill-opacity="1"/>
<defs>
  <clipPath id="clip071">
    <rect x="480" y="0" width="1681" height="1600"/>
  </clipPath>
</defs>
<path clip-path="url(#clip070)" d="
M211.07 1410.9 L2352.76 1410.9 L2352.76 47.2441 L211.07 47.2441  Z
  " fill="#ffffff" fill-rule="evenodd" fill-opacity="1"/>
<defs>
  <clipPath id="clip072">
    <rect x="211" y="47" width="2143" height="1365"/>
  </clipPath>
</defs>
<polyline clip-path="url(#clip072)" style="stroke:#000000; stroke-width:2; stroke-opacity:0.1; fill:none" points="
  271.684,1410.9 271.684,47.2441 
  "/>
<polyline clip-path="url(#clip072)" style="stroke:#000000; stroke-width:2; stroke-opacity:0.1; fill:none" points="
  945.17,1410.9 945.17,47.2441 
  "/>
<polyline clip-path="url(#clip072)" style="stroke:#000000; stroke-width:2; stroke-opacity:0.1; fill:none" points="
  1618.66,1410.9 1618.66,47.2441 
  "/>
<polyline clip-path="url(#clip072)" style="stroke:#000000; stroke-width:2; stroke-opacity:0.1; fill:none" points="
  2292.14,1410.9 2292.14,47.2441 
  "/>
<polyline clip-path="url(#clip070)" style="stroke:#000000; stroke-width:4; stroke-opacity:1; fill:none" points="
  211.07,1410.9 2352.76,1410.9 
  "/>
<polyline clip-path="url(#clip070)" style="stroke:#000000; stroke-width:4; stroke-opacity:1; fill:none" points="
  271.684,1410.9 271.684,1394.53 
  "/>
<polyline clip-path="url(#clip070)" style="stroke:#000000; stroke-width:4; stroke-opacity:1; fill:none" points="
  945.17,1410.9 945.17,1394.53 
  "/>
<polyline clip-path="url(#clip070)" style="stroke:#000000; stroke-width:4; stroke-opacity:1; fill:none" points="
  1618.66,1410.9 1618.66,1394.53 
  "/>
<polyline clip-path="url(#clip070)" style="stroke:#000000; stroke-width:4; stroke-opacity:1; fill:none" points="
  2292.14,1410.9 2292.14,1394.53 
  "/>
<path clip-path="url(#clip070)" d="M 0 0 M225.463 1489.17 L233.102 1489.17 L233.102 1462.8 L224.792 1464.47 L224.792 1460.21 L233.056 1458.54 L237.731 1458.54 L237.731 1489.17 L245.37 1489.17 L245.37 1493.1 L225.463 1493.1 L225.463 1489.17 Z" fill="#000000" fill-rule="evenodd" fill-opacity="1" /><path clip-path="url(#clip070)" d="M 0 0 M260.44 1461.62 Q256.829 1461.62 255 1465.19 Q253.194 1468.73 253.194 1475.86 Q253.194 1482.97 255 1486.53 Q256.829 1490.07 260.44 1490.07 Q264.074 1490.07 265.879 1486.53 Q267.708 1482.97 267.708 1475.86 Q267.708 1468.73 265.879 1465.19 Q264.074 1461.62 260.44 1461.62 M260.44 1457.92 Q266.25 1457.92 269.305 1462.53 Q272.384 1467.11 272.384 1475.86 Q272.384 1484.59 269.305 1489.19 Q266.25 1493.78 260.44 1493.78 Q254.629 1493.78 251.551 1489.19 Q248.495 1484.59 248.495 1475.86 Q248.495 1467.11 251.551 1462.53 Q254.629 1457.92 260.44 1457.92 Z" fill="#000000" fill-rule="evenodd" fill-opacity="1" /><path clip-path="url(#clip070)" d="M 0 0 M272.384 1452.02 L296.496 1452.02 L296.496 1455.22 L272.384 1455.22 L272.384 1452.02 Z" fill="#000000" fill-rule="evenodd" fill-opacity="1" /><path clip-path="url(#clip070)" d="M 0 0 M309.21 1450.14 Q306.652 1450.14 305.147 1451.89 Q303.661 1453.64 303.661 1456.68 Q303.661 1459.71 305.147 1461.48 Q306.652 1463.23 309.21 1463.23 Q311.767 1463.23 313.253 1461.48 Q314.758 1459.71 314.758 1456.68 Q314.758 1453.64 313.253 1451.89 Q311.767 1450.14 309.21 1450.14 M316.752 1438.23 L316.752 1441.69 Q315.322 1441.02 313.855 1440.66 Q312.407 1440.3 310.978 1440.3 Q307.216 1440.3 305.222 1442.84 Q303.248 1445.38 302.965 1450.52 Q304.075 1448.88 305.749 1448.01 Q307.423 1447.13 309.435 1447.13 Q313.667 1447.13 316.112 1449.71 Q318.576 1452.26 318.576 1456.68 Q318.576 1461.01 316.018 1463.62 Q313.46 1466.24 309.21 1466.24 Q304.338 1466.24 301.762 1462.51 Q299.185 1458.77 299.185 1451.68 Q299.185 1445.02 302.345 1441.07 Q305.504 1437.11 310.827 1437.11 Q312.256 1437.11 313.705 1437.39 Q315.172 1437.67 316.752 1438.23 Z" fill="#000000" fill-rule="evenodd" fill-opacity="1" /><path clip-path="url(#clip070)" d="M 0 0 M899.419 1489.17 L907.058 1489.17 L907.058 1462.8 L898.748 1464.47 L898.748 1460.21 L907.012 1458.54 L911.688 1458.54 L911.688 1489.17 L919.327 1489.17 L919.327 1493.1 L899.419 1493.1 L899.419 1489.17 Z" fill="#000000" fill-rule="evenodd" fill-opacity="1" /><path clip-path="url(#clip070)" d="M 0 0 M934.396 1461.62 Q930.785 1461.62 928.956 1465.19 Q927.151 1468.73 927.151 1475.86 Q927.151 1482.97 928.956 1486.53 Q930.785 1490.07 934.396 1490.07 Q938.03 1490.07 939.836 1486.53 Q941.664 1482.97 941.664 1475.86 Q941.664 1468.73 939.836 1465.19 Q938.03 1461.62 934.396 1461.62 M934.396 1457.92 Q940.206 1457.92 943.262 1462.53 Q946.34 1467.11 946.34 1475.86 Q946.34 1484.59 943.262 1489.19 Q940.206 1493.78 934.396 1493.78 Q928.586 1493.78 925.507 1489.19 Q922.452 1484.59 922.452 1475.86 Q922.452 1467.11 925.507 1462.53 Q928.586 1457.92 934.396 1457.92 Z" fill="#000000" fill-rule="evenodd" fill-opacity="1" /><path clip-path="url(#clip070)" d="M 0 0 M946.34 1452.02 L970.452 1452.02 L970.452 1455.22 L946.34 1455.22 L946.34 1452.02 Z" fill="#000000" fill-rule="evenodd" fill-opacity="1" /><path clip-path="url(#clip070)" d="M 0 0 M974.608 1437.61 L989.523 1437.61 L989.523 1440.81 L978.088 1440.81 L978.088 1447.69 Q978.915 1447.41 979.743 1447.28 Q980.57 1447.13 981.398 1447.13 Q986.1 1447.13 988.846 1449.71 Q991.592 1452.28 991.592 1456.68 Q991.592 1461.22 988.771 1463.74 Q985.949 1466.24 980.815 1466.24 Q979.047 1466.24 977.204 1465.94 Q975.38 1465.64 973.424 1465.04 L973.424 1461.22 Q975.116 1462.14 976.922 1462.59 Q978.727 1463.04 980.74 1463.04 Q983.993 1463.04 985.893 1461.33 Q987.793 1459.62 987.793 1456.68 Q987.793 1453.75 985.893 1452.04 Q983.993 1450.33 980.74 1450.33 Q979.216 1450.33 977.693 1450.67 Q976.188 1451 974.608 1451.72 L974.608 1437.61 Z" fill="#000000" fill-rule="evenodd" fill-opacity="1" /><path clip-path="url(#clip070)" d="M 0 0 M1572.3 1489.17 L1579.94 1489.17 L1579.94 1462.8 L1571.63 1464.47 L1571.63 1460.21 L1579.9 1458.54 L1584.57 1458.54 L1584.57 1489.17 L1592.21 1489.17 L1592.21 1493.1 L1572.3 1493.1 L1572.3 1489.17 Z" fill="#000000" fill-rule="evenodd" fill-opacity="1" /><path clip-path="url(#clip070)" d="M 0 0 M1607.28 1461.62 Q1603.67 1461.62 1601.84 1465.19 Q1600.03 1468.73 1600.03 1475.86 Q1600.03 1482.97 1601.84 1486.53 Q1603.67 1490.07 1607.28 1490.07 Q1610.91 1490.07 1612.72 1486.53 Q1614.55 1482.97 1614.55 1475.86 Q1614.55 1468.73 1612.72 1465.19 Q1610.91 1461.62 1607.28 1461.62 M1607.28 1457.92 Q1613.09 1457.92 1616.15 1462.53 Q1619.22 1467.11 1619.22 1475.86 Q1619.22 1484.59 1616.15 1489.19 Q1613.09 1493.78 1607.28 1493.78 Q1601.47 1493.78 1598.39 1489.19 Q1595.34 1484.59 1595.34 1475.86 Q1595.34 1467.11 1598.39 1462.53 Q1601.47 1457.92 1607.28 1457.92 Z" fill="#000000" fill-rule="evenodd" fill-opacity="1" /><path clip-path="url(#clip070)" d="M 0 0 M1619.22 1452.02 L1643.34 1452.02 L1643.34 1455.22 L1619.22 1455.22 L1619.22 1452.02 Z" fill="#000000" fill-rule="evenodd" fill-opacity="1" /><path clip-path="url(#clip070)" d="M 0 0 M1657.89 1440.92 L1648.3 1455.91 L1657.89 1455.91 L1657.89 1440.92 M1656.9 1437.61 L1661.67 1437.61 L1661.67 1455.91 L1665.68 1455.91 L1665.68 1459.07 L1661.67 1459.07 L1661.67 1465.69 L1657.89 1465.69 L1657.89 1459.07 L1645.22 1459.07 L1645.22 1455.41 L1656.9 1437.61 Z" fill="#000000" fill-rule="evenodd" fill-opacity="1" /><path clip-path="url(#clip070)" d="M 0 0 M2246.25 1489.17 L2253.89 1489.17 L2253.89 1462.8 L2245.58 1464.47 L2245.58 1460.21 L2253.84 1458.54 L2258.52 1458.54 L2258.52 1489.17 L2266.16 1489.17 L2266.16 1493.1 L2246.25 1493.1 L2246.25 1489.17 Z" fill="#000000" fill-rule="evenodd" fill-opacity="1" /><path clip-path="url(#clip070)" d="M 0 0 M2281.23 1461.62 Q2277.62 1461.62 2275.79 1465.19 Q2273.98 1468.73 2273.98 1475.86 Q2273.98 1482.97 2275.79 1486.53 Q2277.62 1490.07 2281.23 1490.07 Q2284.86 1490.07 2286.67 1486.53 Q2288.5 1482.97 2288.5 1475.86 Q2288.5 1468.73 2286.67 1465.19 Q2284.86 1461.62 2281.23 1461.62 M2281.23 1457.92 Q2287.04 1457.92 2290.09 1462.53 Q2293.17 1467.11 2293.17 1475.86 Q2293.17 1484.59 2290.09 1489.19 Q2287.04 1493.78 2281.23 1493.78 Q2275.42 1493.78 2272.34 1489.19 Q2269.28 1484.59 2269.28 1475.86 Q2269.28 1467.11 2272.34 1462.53 Q2275.42 1457.92 2281.23 1457.92 Z" fill="#000000" fill-rule="evenodd" fill-opacity="1" /><path clip-path="url(#clip070)" d="M 0 0 M2293.17 1452.02 L2317.28 1452.02 L2317.28 1455.22 L2293.17 1455.22 L2293.17 1452.02 Z" fill="#000000" fill-rule="evenodd" fill-opacity="1" /><path clip-path="url(#clip070)" d="M 0 0 M2332.91 1450.55 Q2335.64 1451.14 2337.16 1452.98 Q2338.71 1454.82 2338.71 1457.53 Q2338.71 1461.69 2335.85 1463.96 Q2332.99 1466.24 2327.72 1466.24 Q2325.95 1466.24 2324.07 1465.88 Q2322.21 1465.54 2320.22 1464.85 L2320.22 1461.18 Q2321.8 1462.1 2323.68 1462.57 Q2325.56 1463.04 2327.61 1463.04 Q2331.18 1463.04 2333.04 1461.63 Q2334.92 1460.22 2334.92 1457.53 Q2334.92 1455.05 2333.18 1453.66 Q2331.45 1452.25 2328.34 1452.25 L2325.07 1452.25 L2325.07 1449.12 L2328.49 1449.12 Q2331.29 1449.12 2332.78 1448.01 Q2334.27 1446.89 2334.27 1444.78 Q2334.27 1442.62 2332.72 1441.47 Q2331.2 1440.3 2328.34 1440.3 Q2326.78 1440.3 2324.99 1440.64 Q2323.21 1440.98 2321.06 1441.69 L2321.06 1438.31 Q2323.23 1437.71 2325.11 1437.41 Q2327.01 1437.11 2328.68 1437.11 Q2333.01 1437.11 2335.53 1439.08 Q2338.05 1441.04 2338.05 1444.38 Q2338.05 1446.72 2336.71 1448.33 Q2335.38 1449.93 2332.91 1450.55 Z" fill="#000000" fill-rule="evenodd" fill-opacity="1" /><path clip-path="url(#clip070)" d="M 0 0 M1207.13 1512.66 L1213.02 1512.66 L1213.02 1541.91 L1230.49 1526.54 L1237.97 1526.54 L1219.07 1543.22 L1238.77 1562.19 L1231.13 1562.19 L1213.02 1544.78 L1213.02 1562.19 L1207.13 1562.19 L1207.13 1512.66 Z" fill="#000000" fill-rule="evenodd" fill-opacity="1" /><path clip-path="url(#clip070)" d="M 0 0 M1272 1573.01 L1272 1577.56 L1238.13 1577.56 L1238.13 1573.01 L1272 1573.01 Z" fill="#000000" fill-rule="evenodd" fill-opacity="1" /><path clip-path="url(#clip070)" d="M 0 0 M1291.95 1530.64 Q1287.24 1530.64 1284.51 1534.34 Q1281.77 1538 1281.77 1544.39 Q1281.77 1550.79 1284.48 1554.48 Q1287.21 1558.14 1291.95 1558.14 Q1296.63 1558.14 1299.37 1554.45 Q1302.11 1550.76 1302.11 1544.39 Q1302.11 1538.06 1299.37 1534.37 Q1296.63 1530.64 1291.95 1530.64 M1291.95 1525.68 Q1299.59 1525.68 1303.95 1530.64 Q1308.31 1535.61 1308.31 1544.39 Q1308.31 1553.15 1303.95 1558.14 Q1299.59 1563.11 1291.95 1563.11 Q1284.28 1563.11 1279.92 1558.14 Q1275.59 1553.15 1275.59 1544.39 Q1275.59 1535.61 1279.92 1530.64 Q1284.28 1525.68 1291.95 1525.68 Z" fill="#000000" fill-rule="evenodd" fill-opacity="1" /><path clip-path="url(#clip070)" d="M 0 0 M1332.5 1512.66 L1332.5 1517.53 L1326.9 1517.53 Q1323.75 1517.53 1322.51 1518.8 Q1321.3 1520.08 1321.3 1523.39 L1321.3 1526.54 L1330.94 1526.54 L1330.94 1531.09 L1321.3 1531.09 L1321.3 1562.19 L1315.41 1562.19 L1315.41 1531.09 L1309.81 1531.09 L1309.81 1526.54 L1315.41 1526.54 L1315.41 1524.05 Q1315.41 1518.1 1318.18 1515.4 Q1320.95 1512.66 1326.97 1512.66 L1332.5 1512.66 Z" fill="#000000" fill-rule="evenodd" fill-opacity="1" /><path clip-path="url(#clip070)" d="M 0 0 M1356.69 1512.66 L1356.69 1517.53 L1351.09 1517.53 Q1347.94 1517.53 1346.7 1518.8 Q1345.49 1520.08 1345.49 1523.39 L1345.49 1526.54 L1355.13 1526.54 L1355.13 1531.09 L1345.49 1531.09 L1345.49 1562.19 L1339.6 1562.19 L1339.6 1531.09 L1334 1531.09 L1334 1526.54 L1339.6 1526.54 L1339.6 1524.05 Q1339.6 1518.1 1342.37 1515.4 Q1345.14 1512.66 1351.16 1512.66 L1356.69 1512.66 Z" fill="#000000" fill-rule="evenodd" fill-opacity="1" /><polyline clip-path="url(#clip072)" style="stroke:#000000; stroke-width:2; stroke-opacity:0.1; fill:none" points="
  211.07,1361.36 2352.76,1361.36 
  "/>
<polyline clip-path="url(#clip072)" style="stroke:#000000; stroke-width:2; stroke-opacity:0.1; fill:none" points="
  211.07,1134.99 2352.76,1134.99 
  "/>
<polyline clip-path="url(#clip072)" style="stroke:#000000; stroke-width:2; stroke-opacity:0.1; fill:none" points="
  211.07,908.619 2352.76,908.619 
  "/>
<polyline clip-path="url(#clip072)" style="stroke:#000000; stroke-width:2; stroke-opacity:0.1; fill:none" points="
  211.07,682.247 2352.76,682.247 
  "/>
<polyline clip-path="url(#clip072)" style="stroke:#000000; stroke-width:2; stroke-opacity:0.1; fill:none" points="
  211.07,455.875 2352.76,455.875 
  "/>
<polyline clip-path="url(#clip072)" style="stroke:#000000; stroke-width:2; stroke-opacity:0.1; fill:none" points="
  211.07,229.503 2352.76,229.503 
  "/>
<polyline clip-path="url(#clip070)" style="stroke:#000000; stroke-width:4; stroke-opacity:1; fill:none" points="
  211.07,1410.9 211.07,47.2441 
  "/>
<polyline clip-path="url(#clip070)" style="stroke:#000000; stroke-width:4; stroke-opacity:1; fill:none" points="
  211.07,1361.36 236.77,1361.36 
  "/>
<polyline clip-path="url(#clip070)" style="stroke:#000000; stroke-width:4; stroke-opacity:1; fill:none" points="
  211.07,1134.99 236.77,1134.99 
  "/>
<polyline clip-path="url(#clip070)" style="stroke:#000000; stroke-width:4; stroke-opacity:1; fill:none" points="
  211.07,908.619 236.77,908.619 
  "/>
<polyline clip-path="url(#clip070)" style="stroke:#000000; stroke-width:4; stroke-opacity:1; fill:none" points="
  211.07,682.247 236.77,682.247 
  "/>
<polyline clip-path="url(#clip070)" style="stroke:#000000; stroke-width:4; stroke-opacity:1; fill:none" points="
  211.07,455.875 236.77,455.875 
  "/>
<polyline clip-path="url(#clip070)" style="stroke:#000000; stroke-width:4; stroke-opacity:1; fill:none" points="
  211.07,229.503 236.77,229.503 
  "/>
<path clip-path="url(#clip070)" d="M 0 0 M127.57 1359.5 Q124.422 1359.5 122.57 1361.65 Q120.742 1363.8 120.742 1367.55 Q120.742 1371.28 122.57 1373.46 Q124.422 1375.61 127.57 1375.61 Q130.718 1375.61 132.547 1373.46 Q134.399 1371.28 134.399 1367.55 Q134.399 1363.8 132.547 1361.65 Q130.718 1359.5 127.57 1359.5 M136.853 1344.85 L136.853 1349.11 Q135.093 1348.27 133.288 1347.83 Q131.505 1347.39 129.746 1347.39 Q125.117 1347.39 122.663 1350.52 Q120.232 1353.64 119.885 1359.96 Q121.251 1357.95 123.311 1356.88 Q125.371 1355.8 127.848 1355.8 Q133.056 1355.8 136.066 1358.97 Q139.098 1362.11 139.098 1367.55 Q139.098 1372.88 135.95 1376.1 Q132.802 1379.31 127.57 1379.31 Q121.575 1379.31 118.404 1374.73 Q115.232 1370.12 115.232 1361.4 Q115.232 1353.2 119.121 1348.34 Q123.01 1343.46 129.561 1343.46 Q131.32 1343.46 133.103 1343.8 Q134.908 1344.15 136.853 1344.85 Z" fill="#000000" fill-rule="evenodd" fill-opacity="1" /><path clip-path="url(#clip070)" d="M 0 0 M144.167 1372.76 L149.052 1372.76 L149.052 1378.64 L144.167 1378.64 L144.167 1372.76 Z" fill="#000000" fill-rule="evenodd" fill-opacity="1" /><path clip-path="url(#clip070)" d="M 0 0 M154.167 1344.08 L172.524 1344.08 L172.524 1348.02 L158.45 1348.02 L158.45 1356.49 Q159.468 1356.14 160.487 1355.98 Q161.505 1355.8 162.524 1355.8 Q168.311 1355.8 171.69 1358.97 Q175.07 1362.14 175.07 1367.55 Q175.07 1373.13 171.598 1376.24 Q168.126 1379.31 161.806 1379.31 Q159.63 1379.31 157.362 1378.94 Q155.116 1378.57 152.709 1377.83 L152.709 1373.13 Q154.792 1374.27 157.015 1374.82 Q159.237 1375.38 161.714 1375.38 Q165.718 1375.38 168.056 1373.27 Q170.394 1371.17 170.394 1367.55 Q170.394 1363.94 168.056 1361.84 Q165.718 1359.73 161.714 1359.73 Q159.839 1359.73 157.964 1360.15 Q156.112 1360.56 154.167 1361.44 L154.167 1344.08 Z" fill="#000000" fill-rule="evenodd" fill-opacity="1" /><path clip-path="url(#clip070)" d="M 0 0 M115.881 1117.71 L138.103 1117.71 L138.103 1119.7 L125.556 1152.27 L120.672 1152.27 L132.478 1121.65 L115.881 1121.65 L115.881 1117.71 Z" fill="#000000" fill-rule="evenodd" fill-opacity="1" /><path clip-path="url(#clip070)" d="M 0 0 M143.172 1146.39 L148.056 1146.39 L148.056 1152.27 L143.172 1152.27 L143.172 1146.39 Z" fill="#000000" fill-rule="evenodd" fill-opacity="1" /><path clip-path="url(#clip070)" d="M 0 0 M163.126 1120.79 Q159.515 1120.79 157.686 1124.35 Q155.88 1127.9 155.88 1135.03 Q155.88 1142.13 157.686 1145.7 Q159.515 1149.24 163.126 1149.24 Q166.76 1149.24 168.565 1145.7 Q170.394 1142.13 170.394 1135.03 Q170.394 1127.9 168.565 1124.35 Q166.76 1120.79 163.126 1120.79 M163.126 1117.09 Q168.936 1117.09 171.991 1121.69 Q175.07 1126.28 175.07 1135.03 Q175.07 1143.75 171.991 1148.36 Q168.936 1152.94 163.126 1152.94 Q157.315 1152.94 154.237 1148.36 Q151.181 1143.75 151.181 1135.03 Q151.181 1126.28 154.237 1121.69 Q157.315 1117.09 163.126 1117.09 Z" fill="#000000" fill-rule="evenodd" fill-opacity="1" /><path clip-path="url(#clip070)" d="M 0 0 M116.876 891.339 L139.098 891.339 L139.098 893.33 L126.552 925.899 L121.668 925.899 L133.473 895.274 L116.876 895.274 L116.876 891.339 Z" fill="#000000" fill-rule="evenodd" fill-opacity="1" /><path clip-path="url(#clip070)" d="M 0 0 M144.167 920.019 L149.052 920.019 L149.052 925.899 L144.167 925.899 L144.167 920.019 Z" fill="#000000" fill-rule="evenodd" fill-opacity="1" /><path clip-path="url(#clip070)" d="M 0 0 M154.167 891.339 L172.524 891.339 L172.524 895.274 L158.45 895.274 L158.45 903.746 Q159.468 903.399 160.487 903.237 Q161.505 903.052 162.524 903.052 Q168.311 903.052 171.69 906.223 Q175.07 909.394 175.07 914.811 Q175.07 920.39 171.598 923.491 Q168.126 926.57 161.806 926.57 Q159.63 926.57 157.362 926.2 Q155.116 925.829 152.709 925.089 L152.709 920.39 Q154.792 921.524 157.015 922.079 Q159.237 922.635 161.714 922.635 Q165.718 922.635 168.056 920.529 Q170.394 918.422 170.394 914.811 Q170.394 911.2 168.056 909.093 Q165.718 906.987 161.714 906.987 Q159.839 906.987 157.964 907.404 Q156.112 907.82 154.167 908.7 L154.167 891.339 Z" fill="#000000" fill-rule="evenodd" fill-opacity="1" /><path clip-path="url(#clip070)" d="M 0 0 M126.251 683.115 Q122.918 683.115 120.996 684.898 Q119.098 686.68 119.098 689.805 Q119.098 692.93 120.996 694.712 Q122.918 696.495 126.251 696.495 Q129.584 696.495 131.505 694.712 Q133.427 692.907 133.427 689.805 Q133.427 686.68 131.505 684.898 Q129.607 683.115 126.251 683.115 M121.575 681.124 Q118.566 680.384 116.876 678.323 Q115.209 676.263 115.209 673.3 Q115.209 669.157 118.149 666.749 Q121.112 664.342 126.251 664.342 Q131.413 664.342 134.353 666.749 Q137.292 669.157 137.292 673.3 Q137.292 676.263 135.603 678.323 Q133.936 680.384 130.95 681.124 Q134.329 681.911 136.204 684.203 Q138.103 686.495 138.103 689.805 Q138.103 694.828 135.024 697.513 Q131.968 700.198 126.251 700.198 Q120.533 700.198 117.455 697.513 Q114.399 694.828 114.399 689.805 Q114.399 686.495 116.297 684.203 Q118.195 681.911 121.575 681.124 M119.862 673.74 Q119.862 676.425 121.529 677.93 Q123.218 679.435 126.251 679.435 Q129.26 679.435 130.95 677.93 Q132.663 676.425 132.663 673.74 Q132.663 671.055 130.95 669.55 Q129.26 668.046 126.251 668.046 Q123.218 668.046 121.529 669.55 Q119.862 671.055 119.862 673.74 Z" fill="#000000" fill-rule="evenodd" fill-opacity="1" /><path clip-path="url(#clip070)" d="M 0 0 M143.172 693.647 L148.056 693.647 L148.056 699.527 L143.172 699.527 L143.172 693.647 Z" fill="#000000" fill-rule="evenodd" fill-opacity="1" /><path clip-path="url(#clip070)" d="M 0 0 M163.126 668.046 Q159.515 668.046 157.686 671.611 Q155.88 675.152 155.88 682.282 Q155.88 689.388 157.686 692.953 Q159.515 696.495 163.126 696.495 Q166.76 696.495 168.565 692.953 Q170.394 689.388 170.394 682.282 Q170.394 675.152 168.565 671.611 Q166.76 668.046 163.126 668.046 M163.126 664.342 Q168.936 664.342 171.991 668.949 Q175.07 673.532 175.07 682.282 Q175.07 691.009 171.991 695.615 Q168.936 700.198 163.126 700.198 Q157.315 700.198 154.237 695.615 Q151.181 691.009 151.181 682.282 Q151.181 673.532 154.237 668.949 Q157.315 664.342 163.126 664.342 Z" fill="#000000" fill-rule="evenodd" fill-opacity="1" /><path clip-path="url(#clip070)" d="M 0 0 M127.246 456.743 Q123.913 456.743 121.992 458.526 Q120.093 460.308 120.093 463.433 Q120.093 466.558 121.992 468.34 Q123.913 470.123 127.246 470.123 Q130.58 470.123 132.501 468.34 Q134.422 466.535 134.422 463.433 Q134.422 460.308 132.501 458.526 Q130.603 456.743 127.246 456.743 M122.57 454.753 Q119.561 454.012 117.871 451.952 Q116.205 449.891 116.205 446.929 Q116.205 442.785 119.144 440.378 Q122.107 437.97 127.246 437.97 Q132.408 437.97 135.348 440.378 Q138.288 442.785 138.288 446.929 Q138.288 449.891 136.598 451.952 Q134.931 454.012 131.945 454.753 Q135.325 455.54 137.2 457.831 Q139.098 460.123 139.098 463.433 Q139.098 468.456 136.019 471.141 Q132.964 473.827 127.246 473.827 Q121.529 473.827 118.45 471.141 Q115.394 468.456 115.394 463.433 Q115.394 460.123 117.293 457.831 Q119.191 455.54 122.57 454.753 M120.857 447.368 Q120.857 450.054 122.524 451.558 Q124.214 453.063 127.246 453.063 Q130.255 453.063 131.945 451.558 Q133.658 450.054 133.658 447.368 Q133.658 444.683 131.945 443.179 Q130.255 441.674 127.246 441.674 Q124.214 441.674 122.524 443.179 Q120.857 444.683 120.857 447.368 Z" fill="#000000" fill-rule="evenodd" fill-opacity="1" /><path clip-path="url(#clip070)" d="M 0 0 M144.167 467.276 L149.052 467.276 L149.052 473.155 L144.167 473.155 L144.167 467.276 Z" fill="#000000" fill-rule="evenodd" fill-opacity="1" /><path clip-path="url(#clip070)" d="M 0 0 M154.167 438.595 L172.524 438.595 L172.524 442.53 L158.45 442.53 L158.45 451.003 Q159.468 450.655 160.487 450.493 Q161.505 450.308 162.524 450.308 Q168.311 450.308 171.69 453.479 Q175.07 456.651 175.07 462.067 Q175.07 467.646 171.598 470.748 Q168.126 473.827 161.806 473.827 Q159.63 473.827 157.362 473.456 Q155.116 473.086 152.709 472.345 L152.709 467.646 Q154.792 468.78 157.015 469.336 Q159.237 469.891 161.714 469.891 Q165.718 469.891 168.056 467.785 Q170.394 465.678 170.394 462.067 Q170.394 458.456 168.056 456.35 Q165.718 454.243 161.714 454.243 Q159.839 454.243 157.964 454.66 Q156.112 455.077 154.167 455.956 L154.167 438.595 Z" fill="#000000" fill-rule="evenodd" fill-opacity="1" /><path clip-path="url(#clip070)" d="M 0 0 M116.482 246.066 L116.482 241.807 Q118.242 242.64 120.047 243.08 Q121.853 243.52 123.589 243.52 Q128.218 243.52 130.649 240.418 Q133.103 237.293 133.45 230.95 Q132.107 232.941 130.047 234.006 Q127.987 235.071 125.487 235.071 Q120.302 235.071 117.269 231.946 Q114.26 228.797 114.26 223.358 Q114.26 218.034 117.408 214.816 Q120.556 211.598 125.788 211.598 Q131.783 211.598 134.931 216.205 Q138.103 220.788 138.103 229.538 Q138.103 237.709 134.214 242.594 Q130.348 247.455 123.797 247.455 Q122.038 247.455 120.232 247.108 Q118.427 246.76 116.482 246.066 M125.788 231.413 Q128.936 231.413 130.765 229.26 Q132.617 227.108 132.617 223.358 Q132.617 219.631 130.765 217.478 Q128.936 215.302 125.788 215.302 Q122.64 215.302 120.788 217.478 Q118.959 219.631 118.959 223.358 Q118.959 227.108 120.788 229.26 Q122.64 231.413 125.788 231.413 Z" fill="#000000" fill-rule="evenodd" fill-opacity="1" /><path clip-path="url(#clip070)" d="M 0 0 M143.172 240.904 L148.056 240.904 L148.056 246.783 L143.172 246.783 L143.172 240.904 Z" fill="#000000" fill-rule="evenodd" fill-opacity="1" /><path clip-path="url(#clip070)" d="M 0 0 M163.126 215.302 Q159.515 215.302 157.686 218.867 Q155.88 222.409 155.88 229.538 Q155.88 236.645 157.686 240.209 Q159.515 243.751 163.126 243.751 Q166.76 243.751 168.565 240.209 Q170.394 236.645 170.394 229.538 Q170.394 222.409 168.565 218.867 Q166.76 215.302 163.126 215.302 M163.126 211.598 Q168.936 211.598 171.991 216.205 Q175.07 220.788 175.07 229.538 Q175.07 238.265 171.991 242.871 Q168.936 247.455 163.126 247.455 Q157.315 247.455 154.237 242.871 Q151.181 238.265 151.181 229.538 Q151.181 220.788 154.237 216.205 Q157.315 211.598 163.126 211.598 Z" fill="#000000" fill-rule="evenodd" fill-opacity="1" /><path clip-path="url(#clip070)" d="M 0 0 M59.1993 815.533 Q55.2526 813.336 53.3747 810.281 Q51.4968 807.225 51.4968 803.088 Q51.4968 797.518 55.4117 794.494 Q59.2948 791.47 66.4881 791.47 L88.0042 791.47 L88.0042 797.358 L66.679 797.358 Q61.5546 797.358 59.072 799.173 Q56.5894 800.987 56.5894 804.711 Q56.5894 809.262 59.6131 811.904 Q62.6368 814.546 67.8567 814.546 L88.0042 814.546 L88.0042 820.434 L66.679 820.434 Q61.5228 820.434 59.072 822.248 Q56.5894 824.063 56.5894 827.85 Q56.5894 832.338 59.6449 834.98 Q62.6686 837.622 67.8567 837.622 L88.0042 837.622 L88.0042 843.51 L52.3562 843.51 L52.3562 837.622 L57.8944 837.622 Q54.616 835.616 53.0564 832.815 Q51.4968 830.015 51.4968 826.163 Q51.4968 822.28 53.4702 819.575 Q55.4436 816.838 59.1993 815.533 Z" fill="#000000" fill-rule="evenodd" fill-opacity="1" /><path clip-path="url(#clip070)" d="M 0 0 M52.3562 785.327 L52.3562 779.471 L88.0042 779.471 L88.0042 785.327 L52.3562 785.327 M38.479 785.327 L38.479 779.471 L45.895 779.471 L45.895 785.327 L38.479 785.327 Z" fill="#000000" fill-rule="evenodd" fill-opacity="1" /><path clip-path="url(#clip070)" d="M 0 0 M66.4881 743.696 L88.0042 743.696 L88.0042 749.552 L66.679 749.552 Q61.6183 749.552 59.1038 751.525 Q56.5894 753.499 56.5894 757.446 Q56.5894 762.188 59.6131 764.925 Q62.6368 767.662 67.8567 767.662 L88.0042 767.662 L88.0042 773.551 L52.3562 773.551 L52.3562 767.662 L57.8944 767.662 Q54.6797 765.562 53.0883 762.729 Q51.4968 759.864 51.4968 756.141 Q51.4968 749.998 55.3163 746.847 Q59.1038 743.696 66.4881 743.696 Z" fill="#000000" fill-rule="evenodd" fill-opacity="1" /><path clip-path="url(#clip070)" d="M 0 0 M98.8259 710.467 L103.377 710.467 L103.377 744.332 L98.8259 744.332 L98.8259 710.467 Z" fill="#000000" fill-rule="evenodd" fill-opacity="1" /><path clip-path="url(#clip070)" d="M 0 0 M57.7671 680.866 L38.479 680.866 L38.479 675.01 L88.0042 675.01 L88.0042 680.866 L82.657 680.866 Q85.8398 682.712 87.3994 685.545 Q88.9272 688.346 88.9272 692.292 Q88.9272 698.754 83.771 702.828 Q78.6147 706.87 70.212 706.87 Q61.8093 706.87 56.6531 702.828 Q51.4968 698.754 51.4968 692.292 Q51.4968 688.346 53.0564 685.545 Q54.5842 682.712 57.7671 680.866 M70.212 700.823 Q76.6732 700.823 80.3653 698.181 Q84.0256 695.507 84.0256 690.86 Q84.0256 686.213 80.3653 683.54 Q76.6732 680.866 70.212 680.866 Q63.7508 680.866 60.0905 683.54 Q56.3984 686.213 56.3984 690.86 Q56.3984 695.507 60.0905 698.181 Q63.7508 700.823 70.212 700.823 Z" fill="#000000" fill-rule="evenodd" fill-opacity="1" /><path clip-path="url(#clip070)" d="M 0 0 M52.3562 668.867 L52.3562 663.01 L88.0042 663.01 L88.0042 668.867 L52.3562 668.867 M38.479 668.867 L38.479 663.01 L45.895 663.01 L45.895 668.867 L38.479 668.867 Z" fill="#000000" fill-rule="evenodd" fill-opacity="1" /><path clip-path="url(#clip070)" d="M 0 0 M38.479 638.821 L43.3487 638.821 L43.3487 644.422 Q43.3487 647.573 44.6219 648.815 Q45.895 650.024 49.2052 650.024 L52.3562 650.024 L52.3562 640.38 L56.9077 640.38 L56.9077 650.024 L88.0042 650.024 L88.0042 655.912 L56.9077 655.912 L56.9077 661.514 L52.3562 661.514 L52.3562 655.912 L49.8736 655.912 Q43.9216 655.912 41.2162 653.143 Q38.479 650.374 38.479 644.359 L38.479 638.821 Z" fill="#000000" fill-rule="evenodd" fill-opacity="1" /><path clip-path="url(#clip070)" d="M 0 0 M38.479 614.631 L43.3487 614.631 L43.3487 620.233 Q43.3487 623.384 44.6219 624.625 Q45.895 625.835 49.2052 625.835 L52.3562 625.835 L52.3562 616.19 L56.9077 616.19 L56.9077 625.835 L88.0042 625.835 L88.0042 631.723 L56.9077 631.723 L56.9077 637.325 L52.3562 637.325 L52.3562 631.723 L49.8736 631.723 Q43.9216 631.723 41.2162 628.954 Q38.479 626.185 38.479 620.169 L38.479 614.631 Z" fill="#000000" fill-rule="evenodd" fill-opacity="1" /><polyline clip-path="url(#clip072)" style="stroke:#009af9; stroke-width:20; stroke-opacity:1; fill:none" stroke-dasharray="80, 50" points="
  271.684,85.838 945.17,548.634 1618.66,1372.3 2292.14,593.476 
  "/>
<path clip-path="url(#clip070)" d="
M1992.38 213.659 L2281.37 213.659 L2281.37 92.6992 L1992.38 92.6992  Z
  " fill="#ffffff" fill-rule="evenodd" fill-opacity="1"/>
<polyline clip-path="url(#clip070)" style="stroke:#000000; stroke-width:4; stroke-opacity:1; fill:none" points="
  1992.38,213.659 2281.37,213.659 2281.37,92.6992 1992.38,92.6992 1992.38,213.659 
  "/>
<polyline clip-path="url(#clip070)" style="stroke:#009af9; stroke-width:4; stroke-opacity:1; fill:none" stroke-dasharray="16, 10" points="
  2016.18,153.179 2158.96,153.179 
  "/>
<path clip-path="url(#clip070)" d="M 0 0 M2196.6 172.867 Q2194.79 177.496 2193.08 178.908 Q2191.37 180.32 2188.5 180.32 L2185.09 180.32 L2185.09 176.755 L2187.59 176.755 Q2189.35 176.755 2190.32 175.922 Q2191.3 175.089 2192.48 171.987 L2193.24 170.043 L2182.76 144.533 L2187.27 144.533 L2195.37 164.811 L2203.47 144.533 L2207.99 144.533 L2196.6 172.867 Z" fill="#000000" fill-rule="evenodd" fill-opacity="1" /><path clip-path="url(#clip070)" d="M 0 0 M2213.87 166.524 L2221.5 166.524 L2221.5 140.158 L2213.19 141.825 L2213.19 137.566 L2221.46 135.899 L2226.13 135.899 L2226.13 166.524 L2233.77 166.524 L2233.77 170.459 L2213.87 170.459 L2213.87 166.524 Z" fill="#000000" fill-rule="evenodd" fill-opacity="1" /></svg>
