<?xml version="1.0" encoding="utf-8"?>
<svg xmlns="http://www.w3.org/2000/svg" xmlns:xlink="http://www.w3.org/1999/xlink" width="600" height="400" viewBox="0 0 2400 1600">
<defs>
  <clipPath id="clip670">
    <rect x="0" y="0" width="2400" height="1600"/>
  </clipPath>
</defs>
<path clip-path="url(#clip670)" d="
M0 1600 L2400 1600 L2400 0 L0 0  Z
  " fill="#ffffff" fill-rule="evenodd" fill-opacity="1"/>
<defs>
  <clipPath id="clip671">
    <rect x="480" y="0" width="1681" height="1600"/>
  </clipPath>
</defs>
<path clip-path="url(#clip670)" d="
M260.607 1410.9 L2352.76 1410.9 L2352.76 47.2441 L260.607 47.2441  Z
  " fill="#ffffff" fill-rule="evenodd" fill-opacity="1"/>
<defs>
  <clipPath id="clip672">
    <rect x="260" y="47" width="2093" height="1365"/>
  </clipPath>
</defs>
<polyline clip-path="url(#clip672)" style="stroke:#000000; stroke-width:2; stroke-opacity:0.1; fill:none" points="
  517.191,1410.9 517.191,47.2441 
  "/>
<polyline clip-path="url(#clip672)" style="stroke:#000000; stroke-width:2; stroke-opacity:0.1; fill:none" points="
  911.936,1410.9 911.936,47.2441 
  "/>
<polyline clip-path="url(#clip672)" style="stroke:#000000; stroke-width:2; stroke-opacity:0.1; fill:none" points="
  1306.68,1410.9 1306.68,47.2441 
  "/>
<polyline clip-path="url(#clip672)" style="stroke:#000000; stroke-width:2; stroke-opacity:0.1; fill:none" points="
  1701.43,1410.9 1701.43,47.2441 
  "/>
<polyline clip-path="url(#clip672)" style="stroke:#000000; stroke-width:2; stroke-opacity:0.1; fill:none" points="
  2096.17,1410.9 2096.17,47.2441 
  "/>
<polyline clip-path="url(#clip670)" style="stroke:#000000; stroke-width:4; stroke-opacity:1; fill:none" points="
  260.607,1410.9 2352.76,1410.9 
  "/>
<polyline clip-path="url(#clip670)" style="stroke:#000000; stroke-width:4; stroke-opacity:1; fill:none" points="
  517.191,1410.9 517.191,1394.53 
  "/>
<polyline clip-path="url(#clip670)" style="stroke:#000000; stroke-width:4; stroke-opacity:1; fill:none" points="
  911.936,1410.9 911.936,1394.53 
  "/>
<polyline clip-path="url(#clip670)" style="stroke:#000000; stroke-width:4; stroke-opacity:1; fill:none" points="
  1306.68,1410.9 1306.68,1394.53 
  "/>
<polyline clip-path="url(#clip670)" style="stroke:#000000; stroke-width:4; stroke-opacity:1; fill:none" points="
  1701.43,1410.9 1701.43,1394.53 
  "/>
<polyline clip-path="url(#clip670)" style="stroke:#000000; stroke-width:4; stroke-opacity:1; fill:none" points="
  2096.17,1410.9 2096.17,1394.53 
  "/>
<path clip-path="url(#clip670)" d="M 0 0 M456.084 1489.17 L463.723 1489.17 L463.723 1462.8 L455.413 1464.47 L455.413 1460.21 L463.676 1458.54 L468.352 1458.54 L468.352 1489.17 L475.991 1489.17 L475.991 1493.1 L456.084 1493.1 L456.084 1489.17 Z" fill="#000000" fill-rule="evenodd" fill-opacity="1" /><path clip-path="url(#clip670)" d="M 0 0 M491.061 1461.62 Q487.45 1461.62 485.621 1465.19 Q483.815 1468.73 483.815 1475.86 Q483.815 1482.97 485.621 1486.53 Q487.45 1490.07 491.061 1490.07 Q494.695 1490.07 496.5 1486.53 Q498.329 1482.97 498.329 1475.86 Q498.329 1468.73 496.5 1465.19 Q494.695 1461.62 491.061 1461.62 M491.061 1457.92 Q496.871 1457.92 499.926 1462.53 Q503.005 1467.11 503.005 1475.86 Q503.005 1484.59 499.926 1489.19 Q496.871 1493.78 491.061 1493.78 Q485.25 1493.78 482.172 1489.19 Q479.116 1484.59 479.116 1475.86 Q479.116 1467.11 482.172 1462.53 Q485.25 1457.92 491.061 1457.92 Z" fill="#000000" fill-rule="evenodd" fill-opacity="1" /><path clip-path="url(#clip670)" d="M 0 0 M503.005 1452.02 L527.117 1452.02 L527.117 1455.22 L503.005 1455.22 L503.005 1452.02 Z" fill="#000000" fill-rule="evenodd" fill-opacity="1" /><path clip-path="url(#clip670)" d="M 0 0 M542.746 1450.55 Q545.473 1451.14 546.996 1452.98 Q548.539 1454.82 548.539 1457.53 Q548.539 1461.69 545.68 1463.96 Q542.821 1466.24 537.555 1466.24 Q535.787 1466.24 533.906 1465.88 Q532.044 1465.54 530.051 1464.85 L530.051 1461.18 Q531.63 1462.1 533.511 1462.57 Q535.392 1463.04 537.442 1463.04 Q541.015 1463.04 542.877 1461.63 Q544.758 1460.22 544.758 1457.53 Q544.758 1455.05 543.009 1453.66 Q541.279 1452.25 538.176 1452.25 L534.903 1452.25 L534.903 1449.12 L538.326 1449.12 Q541.128 1449.12 542.614 1448.01 Q544.1 1446.89 544.1 1444.78 Q544.1 1442.62 542.558 1441.47 Q541.034 1440.3 538.176 1440.3 Q536.614 1440.3 534.828 1440.64 Q533.041 1440.98 530.897 1441.69 L530.897 1438.31 Q533.06 1437.71 534.941 1437.41 Q536.84 1437.11 538.514 1437.11 Q542.84 1437.11 545.36 1439.08 Q547.88 1441.04 547.88 1444.38 Q547.88 1446.72 546.545 1448.33 Q545.21 1449.93 542.746 1450.55 Z" fill="#000000" fill-rule="evenodd" fill-opacity="1" /><path clip-path="url(#clip670)" d="M 0 0 M552.658 1460.92 L556.626 1460.92 L556.626 1465.69 L552.658 1465.69 L552.658 1460.92 Z" fill="#000000" fill-rule="evenodd" fill-opacity="1" /><path clip-path="url(#clip670)" d="M 0 0 M571.183 1440.92 L561.591 1455.91 L571.183 1455.91 L571.183 1440.92 M570.186 1437.61 L574.964 1437.61 L574.964 1455.91 L578.97 1455.91 L578.97 1459.07 L574.964 1459.07 L574.964 1465.69 L571.183 1465.69 L571.183 1459.07 L558.507 1459.07 L558.507 1455.41 L570.186 1437.61 Z" fill="#000000" fill-rule="evenodd" fill-opacity="1" /><path clip-path="url(#clip670)" d="M 0 0 M851.675 1489.17 L859.314 1489.17 L859.314 1462.8 L851.004 1464.47 L851.004 1460.21 L859.268 1458.54 L863.944 1458.54 L863.944 1489.17 L871.583 1489.17 L871.583 1493.1 L851.675 1493.1 L851.675 1489.17 Z" fill="#000000" fill-rule="evenodd" fill-opacity="1" /><path clip-path="url(#clip670)" d="M 0 0 M886.652 1461.62 Q883.041 1461.62 881.212 1465.19 Q879.407 1468.73 879.407 1475.86 Q879.407 1482.97 881.212 1486.53 Q883.041 1490.07 886.652 1490.07 Q890.286 1490.07 892.092 1486.53 Q893.921 1482.97 893.921 1475.86 Q893.921 1468.73 892.092 1465.19 Q890.286 1461.62 886.652 1461.62 M886.652 1457.92 Q892.462 1457.92 895.518 1462.53 Q898.596 1467.11 898.596 1475.86 Q898.596 1484.59 895.518 1489.19 Q892.462 1493.78 886.652 1493.78 Q880.842 1493.78 877.763 1489.19 Q874.708 1484.59 874.708 1475.86 Q874.708 1467.11 877.763 1462.53 Q880.842 1457.92 886.652 1457.92 Z" fill="#000000" fill-rule="evenodd" fill-opacity="1" /><path clip-path="url(#clip670)" d="M 0 0 M898.596 1452.02 L922.708 1452.02 L922.708 1455.22 L898.596 1455.22 L898.596 1452.02 Z" fill="#000000" fill-rule="evenodd" fill-opacity="1" /><path clip-path="url(#clip670)" d="M 0 0 M938.337 1450.55 Q941.064 1451.14 942.588 1452.98 Q944.13 1454.82 944.13 1457.53 Q944.13 1461.69 941.271 1463.96 Q938.413 1466.24 933.146 1466.24 Q931.378 1466.24 929.498 1465.88 Q927.636 1465.54 925.642 1464.85 L925.642 1461.18 Q927.222 1462.1 929.103 1462.57 Q930.983 1463.04 933.033 1463.04 Q936.607 1463.04 938.469 1461.63 Q940.35 1460.22 940.35 1457.53 Q940.35 1455.05 938.601 1453.66 Q936.87 1452.25 933.767 1452.25 L930.494 1452.25 L930.494 1449.12 L933.917 1449.12 Q936.72 1449.12 938.206 1448.01 Q939.691 1446.89 939.691 1444.78 Q939.691 1442.62 938.149 1441.47 Q936.626 1440.3 933.767 1440.3 Q932.206 1440.3 930.419 1440.64 Q928.632 1440.98 926.488 1441.69 L926.488 1438.31 Q928.651 1437.71 930.532 1437.41 Q932.432 1437.11 934.106 1437.11 Q938.431 1437.11 940.952 1439.08 Q943.472 1441.04 943.472 1444.38 Q943.472 1446.72 942.136 1448.33 Q940.801 1449.93 938.337 1450.55 Z" fill="#000000" fill-rule="evenodd" fill-opacity="1" /><path clip-path="url(#clip670)" d="M 0 0 M948.249 1460.92 L952.217 1460.92 L952.217 1465.69 L948.249 1465.69 L948.249 1460.92 Z" fill="#000000" fill-rule="evenodd" fill-opacity="1" /><path clip-path="url(#clip670)" d="M 0 0 M959.609 1462.5 L972.868 1462.5 L972.868 1465.69 L955.039 1465.69 L955.039 1462.5 Q957.201 1460.26 960.925 1456.5 Q964.668 1452.72 965.627 1451.63 Q967.452 1449.58 968.166 1448.16 Q968.9 1446.74 968.9 1445.36 Q968.9 1443.12 967.32 1441.71 Q965.759 1440.3 963.239 1440.3 Q961.452 1440.3 959.458 1440.92 Q957.484 1441.54 955.227 1442.8 L955.227 1438.97 Q957.521 1438.05 959.515 1437.58 Q961.508 1437.11 963.164 1437.11 Q967.527 1437.11 970.122 1439.29 Q972.718 1441.47 972.718 1445.12 Q972.718 1446.85 972.06 1448.41 Q971.42 1449.95 969.709 1452.06 Q969.238 1452.6 966.718 1455.22 Q964.198 1457.81 959.609 1462.5 Z" fill="#000000" fill-rule="evenodd" fill-opacity="1" /><path clip-path="url(#clip670)" d="M 0 0 M1245.77 1489.17 L1253.41 1489.17 L1253.41 1462.8 L1245.1 1464.47 L1245.1 1460.21 L1253.36 1458.54 L1258.04 1458.54 L1258.04 1489.17 L1265.68 1489.17 L1265.68 1493.1 L1245.77 1493.1 L1245.77 1489.17 Z" fill="#000000" fill-rule="evenodd" fill-opacity="1" /><path clip-path="url(#clip670)" d="M 0 0 M1280.75 1461.62 Q1277.14 1461.62 1275.31 1465.19 Q1273.5 1468.73 1273.5 1475.86 Q1273.5 1482.97 1275.31 1486.53 Q1277.14 1490.07 1280.75 1490.07 Q1284.38 1490.07 1286.19 1486.53 Q1288.02 1482.97 1288.02 1475.86 Q1288.02 1468.73 1286.19 1465.19 Q1284.38 1461.62 1280.75 1461.62 M1280.75 1457.92 Q1286.56 1457.92 1289.61 1462.53 Q1292.69 1467.11 1292.69 1475.86 Q1292.69 1484.59 1289.61 1489.19 Q1286.56 1493.78 1280.75 1493.78 Q1274.94 1493.78 1271.86 1489.19 Q1268.8 1484.59 1268.8 1475.86 Q1268.8 1467.11 1271.86 1462.53 Q1274.94 1457.92 1280.75 1457.92 Z" fill="#000000" fill-rule="evenodd" fill-opacity="1" /><path clip-path="url(#clip670)" d="M 0 0 M1292.69 1452.02 L1316.8 1452.02 L1316.8 1455.22 L1292.69 1455.22 L1292.69 1452.02 Z" fill="#000000" fill-rule="evenodd" fill-opacity="1" /><path clip-path="url(#clip670)" d="M 0 0 M1332.43 1450.55 Q1335.16 1451.14 1336.68 1452.98 Q1338.23 1454.82 1338.23 1457.53 Q1338.23 1461.69 1335.37 1463.96 Q1332.51 1466.24 1327.24 1466.24 Q1325.47 1466.24 1323.59 1465.88 Q1321.73 1465.54 1319.74 1464.85 L1319.74 1461.18 Q1321.32 1462.1 1323.2 1462.57 Q1325.08 1463.04 1327.13 1463.04 Q1330.7 1463.04 1332.57 1461.63 Q1334.45 1460.22 1334.45 1457.53 Q1334.45 1455.05 1332.7 1453.66 Q1330.97 1452.25 1327.86 1452.25 L1324.59 1452.25 L1324.59 1449.12 L1328.01 1449.12 Q1330.82 1449.12 1332.3 1448.01 Q1333.79 1446.89 1333.79 1444.78 Q1333.79 1442.62 1332.25 1441.47 Q1330.72 1440.3 1327.86 1440.3 Q1326.3 1440.3 1324.52 1440.64 Q1322.73 1440.98 1320.58 1441.69 L1320.58 1438.31 Q1322.75 1437.71 1324.63 1437.41 Q1326.53 1437.11 1328.2 1437.11 Q1332.53 1437.11 1335.05 1439.08 Q1337.57 1441.04 1337.57 1444.38 Q1337.57 1446.72 1336.23 1448.33 Q1334.9 1449.93 1332.43 1450.55 Z" fill="#000000" fill-rule="evenodd" fill-opacity="1" /><path clip-path="url(#clip670)" d="M 0 0 M1342.35 1460.92 L1346.31 1460.92 L1346.31 1465.69 L1342.35 1465.69 L1342.35 1460.92 Z" fill="#000000" fill-rule="evenodd" fill-opacity="1" /><path clip-path="url(#clip670)" d="M 0 0 M1358.56 1440.11 Q1355.62 1440.11 1354.14 1443.01 Q1352.67 1445.89 1352.67 1451.68 Q1352.67 1457.46 1354.14 1460.35 Q1355.62 1463.23 1358.56 1463.23 Q1361.51 1463.23 1362.98 1460.35 Q1364.46 1457.46 1364.46 1451.68 Q1364.46 1445.89 1362.98 1443.01 Q1361.51 1440.11 1358.56 1440.11 M1358.56 1437.11 Q1363.28 1437.11 1365.76 1440.85 Q1368.26 1444.57 1368.26 1451.68 Q1368.26 1458.77 1365.76 1462.51 Q1363.28 1466.24 1358.56 1466.24 Q1353.84 1466.24 1351.34 1462.51 Q1348.85 1458.77 1348.85 1451.68 Q1348.85 1444.57 1351.34 1440.85 Q1353.84 1437.11 1358.56 1437.11 Z" fill="#000000" fill-rule="evenodd" fill-opacity="1" /><path clip-path="url(#clip670)" d="M 0 0 M1640.94 1489.17 L1648.58 1489.17 L1648.58 1462.8 L1640.27 1464.47 L1640.27 1460.21 L1648.53 1458.54 L1653.21 1458.54 L1653.21 1489.17 L1660.85 1489.17 L1660.85 1493.1 L1640.94 1493.1 L1640.94 1489.17 Z" fill="#000000" fill-rule="evenodd" fill-opacity="1" /><path clip-path="url(#clip670)" d="M 0 0 M1675.92 1461.62 Q1672.31 1461.62 1670.48 1465.19 Q1668.67 1468.73 1668.67 1475.86 Q1668.67 1482.97 1670.48 1486.53 Q1672.31 1490.07 1675.92 1490.07 Q1679.55 1490.07 1681.36 1486.53 Q1683.19 1482.97 1683.19 1475.86 Q1683.19 1468.73 1681.36 1465.19 Q1679.55 1461.62 1675.92 1461.62 M1675.92 1457.92 Q1681.73 1457.92 1684.78 1462.53 Q1687.86 1467.11 1687.86 1475.86 Q1687.86 1484.59 1684.78 1489.19 Q1681.73 1493.78 1675.92 1493.78 Q1670.11 1493.78 1667.03 1489.19 Q1663.97 1484.59 1663.97 1475.86 Q1663.97 1467.11 1667.03 1462.53 Q1670.11 1457.92 1675.92 1457.92 Z" fill="#000000" fill-rule="evenodd" fill-opacity="1" /><path clip-path="url(#clip670)" d="M 0 0 M1687.86 1452.02 L1711.97 1452.02 L1711.97 1455.22 L1687.86 1455.22 L1687.86 1452.02 Z" fill="#000000" fill-rule="evenodd" fill-opacity="1" /><path clip-path="url(#clip670)" d="M 0 0 M1719.36 1462.5 L1732.62 1462.5 L1732.62 1465.69 L1714.79 1465.69 L1714.79 1462.5 Q1716.96 1460.26 1720.68 1456.5 Q1724.42 1452.72 1725.38 1451.63 Q1727.21 1449.58 1727.92 1448.16 Q1728.66 1446.74 1728.66 1445.36 Q1728.66 1443.12 1727.08 1441.71 Q1725.51 1440.3 1722.99 1440.3 Q1721.21 1440.3 1719.21 1440.92 Q1717.24 1441.54 1714.98 1442.8 L1714.98 1438.97 Q1717.28 1438.05 1719.27 1437.58 Q1721.26 1437.11 1722.92 1437.11 Q1727.28 1437.11 1729.88 1439.29 Q1732.47 1441.47 1732.47 1445.12 Q1732.47 1446.85 1731.81 1448.41 Q1731.18 1449.95 1729.46 1452.06 Q1728.99 1452.6 1726.47 1455.22 Q1723.95 1457.81 1719.36 1462.5 Z" fill="#000000" fill-rule="evenodd" fill-opacity="1" /><path clip-path="url(#clip670)" d="M 0 0 M1736.74 1460.92 L1740.71 1460.92 L1740.71 1465.69 L1736.74 1465.69 L1736.74 1460.92 Z" fill="#000000" fill-rule="evenodd" fill-opacity="1" /><path clip-path="url(#clip670)" d="M 0 0 M1752.95 1452.36 Q1750.25 1452.36 1748.69 1453.81 Q1747.14 1455.26 1747.14 1457.79 Q1747.14 1460.33 1748.69 1461.78 Q1750.25 1463.23 1752.95 1463.23 Q1755.66 1463.23 1757.22 1461.78 Q1758.79 1460.31 1758.79 1457.79 Q1758.79 1455.26 1757.22 1453.81 Q1755.68 1452.36 1752.95 1452.36 M1749.16 1450.74 Q1746.71 1450.14 1745.34 1448.47 Q1743.98 1446.79 1743.98 1444.38 Q1743.98 1441.02 1746.37 1439.06 Q1748.78 1437.11 1752.95 1437.11 Q1757.15 1437.11 1759.54 1439.06 Q1761.93 1441.02 1761.93 1444.38 Q1761.93 1446.79 1760.55 1448.47 Q1759.2 1450.14 1756.77 1450.74 Q1759.52 1451.38 1761.04 1453.24 Q1762.58 1455.1 1762.58 1457.79 Q1762.58 1461.88 1760.08 1464.06 Q1757.6 1466.24 1752.95 1466.24 Q1748.31 1466.24 1745.81 1464.06 Q1743.33 1461.88 1743.33 1457.79 Q1743.33 1455.1 1744.87 1453.24 Q1746.41 1451.38 1749.16 1450.74 M1747.76 1444.74 Q1747.76 1446.92 1749.12 1448.15 Q1750.49 1449.37 1752.95 1449.37 Q1755.4 1449.37 1756.77 1448.15 Q1758.16 1446.92 1758.16 1444.74 Q1758.16 1442.56 1756.77 1441.34 Q1755.4 1440.11 1752.95 1440.11 Q1750.49 1440.11 1749.12 1441.34 Q1747.76 1442.56 1747.76 1444.74 Z" fill="#000000" fill-rule="evenodd" fill-opacity="1" /><path clip-path="url(#clip670)" d="M 0 0 M2035.58 1489.17 L2043.22 1489.17 L2043.22 1462.8 L2034.91 1464.47 L2034.91 1460.21 L2043.17 1458.54 L2047.85 1458.54 L2047.85 1489.17 L2055.49 1489.17 L2055.49 1493.1 L2035.58 1493.1 L2035.58 1489.17 Z" fill="#000000" fill-rule="evenodd" fill-opacity="1" /><path clip-path="url(#clip670)" d="M 0 0 M2070.56 1461.62 Q2066.95 1461.62 2065.12 1465.19 Q2063.31 1468.73 2063.31 1475.86 Q2063.31 1482.97 2065.12 1486.53 Q2066.95 1490.07 2070.56 1490.07 Q2074.19 1490.07 2076 1486.53 Q2077.83 1482.97 2077.83 1475.86 Q2077.83 1468.73 2076 1465.19 Q2074.19 1461.62 2070.56 1461.62 M2070.56 1457.92 Q2076.37 1457.92 2079.42 1462.53 Q2082.5 1467.11 2082.5 1475.86 Q2082.5 1484.59 2079.42 1489.19 Q2076.37 1493.78 2070.56 1493.78 Q2064.75 1493.78 2061.67 1489.19 Q2058.61 1484.59 2058.61 1475.86 Q2058.61 1467.11 2061.67 1462.53 Q2064.75 1457.92 2070.56 1457.92 Z" fill="#000000" fill-rule="evenodd" fill-opacity="1" /><path clip-path="url(#clip670)" d="M 0 0 M2082.5 1452.02 L2106.61 1452.02 L2106.61 1455.22 L2082.5 1455.22 L2082.5 1452.02 Z" fill="#000000" fill-rule="evenodd" fill-opacity="1" /><path clip-path="url(#clip670)" d="M 0 0 M2114.01 1462.5 L2127.27 1462.5 L2127.27 1465.69 L2109.44 1465.69 L2109.44 1462.5 Q2111.6 1460.26 2115.32 1456.5 Q2119.06 1452.72 2120.02 1451.63 Q2121.85 1449.58 2122.56 1448.16 Q2123.3 1446.74 2123.3 1445.36 Q2123.3 1443.12 2121.72 1441.71 Q2120.16 1440.3 2117.64 1440.3 Q2115.85 1440.3 2113.86 1440.92 Q2111.88 1441.54 2109.62 1442.8 L2109.62 1438.97 Q2111.92 1438.05 2113.91 1437.58 Q2115.91 1437.11 2117.56 1437.11 Q2121.92 1437.11 2124.52 1439.29 Q2127.11 1441.47 2127.11 1445.12 Q2127.11 1446.85 2126.46 1448.41 Q2125.82 1449.95 2124.11 1452.06 Q2123.64 1452.6 2121.12 1455.22 Q2118.59 1457.81 2114.01 1462.5 Z" fill="#000000" fill-rule="evenodd" fill-opacity="1" /><path clip-path="url(#clip670)" d="M 0 0 M2131.38 1460.92 L2135.35 1460.92 L2135.35 1465.69 L2131.38 1465.69 L2131.38 1460.92 Z" fill="#000000" fill-rule="evenodd" fill-opacity="1" /><path clip-path="url(#clip670)" d="M 0 0 M2148.07 1450.14 Q2145.51 1450.14 2144 1451.89 Q2142.52 1453.64 2142.52 1456.68 Q2142.52 1459.71 2144 1461.48 Q2145.51 1463.23 2148.07 1463.23 Q2150.62 1463.23 2152.11 1461.48 Q2153.61 1459.71 2153.61 1456.68 Q2153.61 1453.64 2152.11 1451.89 Q2150.62 1450.14 2148.07 1450.14 M2155.61 1438.23 L2155.61 1441.69 Q2154.18 1441.02 2152.71 1440.66 Q2151.26 1440.3 2149.83 1440.3 Q2146.07 1440.3 2144.08 1442.84 Q2142.1 1445.38 2141.82 1450.52 Q2142.93 1448.88 2144.61 1448.01 Q2146.28 1447.13 2148.29 1447.13 Q2152.52 1447.13 2154.97 1449.71 Q2157.43 1452.26 2157.43 1456.68 Q2157.43 1461.01 2154.87 1463.62 Q2152.32 1466.24 2148.07 1466.24 Q2143.2 1466.24 2140.62 1462.51 Q2138.04 1458.77 2138.04 1451.68 Q2138.04 1445.02 2141.2 1441.07 Q2144.36 1437.11 2149.68 1437.11 Q2151.11 1437.11 2152.56 1437.39 Q2154.03 1437.67 2155.61 1438.23 Z" fill="#000000" fill-rule="evenodd" fill-opacity="1" /><path clip-path="url(#clip670)" d="M 0 0 M1198.96 1526.54 L1205.16 1526.54 L1216.3 1556.46 L1227.44 1526.54 L1233.65 1526.54 L1220.28 1562.19 L1212.33 1562.19 L1198.96 1526.54 Z" fill="#000000" fill-rule="evenodd" fill-opacity="1" /><path clip-path="url(#clip670)" d="M 0 0 M1266.88 1573.01 L1266.88 1577.56 L1233.01 1577.56 L1233.01 1573.01 L1266.88 1573.01 Z" fill="#000000" fill-rule="evenodd" fill-opacity="1" /><path clip-path="url(#clip670)" d="M 0 0 M1298.68 1527.91 L1298.68 1533.38 Q1296.19 1532.01 1293.68 1531.34 Q1291.2 1530.64 1288.65 1530.64 Q1282.95 1530.64 1279.8 1534.27 Q1276.65 1537.87 1276.65 1544.39 Q1276.65 1550.92 1279.8 1554.55 Q1282.95 1558.14 1288.65 1558.14 Q1291.2 1558.14 1293.68 1557.47 Q1296.19 1556.77 1298.68 1555.41 L1298.68 1560.82 Q1296.23 1561.96 1293.58 1562.54 Q1290.97 1563.11 1288.01 1563.11 Q1279.96 1563.11 1275.22 1558.05 Q1270.48 1552.99 1270.48 1544.39 Q1270.48 1535.67 1275.25 1530.68 Q1280.06 1525.68 1288.4 1525.68 Q1291.1 1525.68 1293.68 1526.25 Q1296.26 1526.79 1298.68 1527.91 Z" fill="#000000" fill-rule="evenodd" fill-opacity="1" /><path clip-path="url(#clip670)" d="M 0 0 M1304.82 1512.66 L1310.68 1512.66 L1310.68 1562.19 L1304.82 1562.19 L1304.82 1512.66 Z" fill="#000000" fill-rule="evenodd" fill-opacity="1" /><path clip-path="url(#clip670)" d="M 0 0 M1330.63 1530.64 Q1325.92 1530.64 1323.18 1534.34 Q1320.45 1538 1320.45 1544.39 Q1320.45 1550.79 1323.15 1554.48 Q1325.89 1558.14 1330.63 1558.14 Q1335.31 1558.14 1338.05 1554.45 Q1340.79 1550.76 1340.79 1544.39 Q1340.79 1538.06 1338.05 1534.37 Q1335.31 1530.64 1330.63 1530.64 M1330.63 1525.68 Q1338.27 1525.68 1342.63 1530.64 Q1346.99 1535.61 1346.99 1544.39 Q1346.99 1553.15 1342.63 1558.14 Q1338.27 1563.11 1330.63 1563.11 Q1322.96 1563.11 1318.6 1558.14 Q1314.27 1553.15 1314.27 1544.39 Q1314.27 1535.61 1318.6 1530.64 Q1322.96 1525.68 1330.63 1525.68 Z" fill="#000000" fill-rule="evenodd" fill-opacity="1" /><path clip-path="url(#clip670)" d="M 0 0 M1375.86 1527.59 L1375.86 1533.13 Q1373.38 1531.85 1370.7 1531.22 Q1368.03 1530.58 1365.17 1530.58 Q1360.81 1530.58 1358.61 1531.92 Q1356.45 1533.25 1356.45 1535.93 Q1356.45 1537.96 1358 1539.14 Q1359.56 1540.29 1364.28 1541.34 L1366.28 1541.78 Q1372.52 1543.12 1375.13 1545.57 Q1377.77 1547.99 1377.77 1552.35 Q1377.77 1557.32 1373.82 1560.21 Q1369.91 1563.11 1363.03 1563.11 Q1360.17 1563.11 1357.05 1562.54 Q1353.96 1561.99 1350.53 1560.88 L1350.53 1554.83 Q1353.77 1556.52 1356.92 1557.38 Q1360.07 1558.21 1363.16 1558.21 Q1367.3 1558.21 1369.53 1556.81 Q1371.75 1555.37 1371.75 1552.8 Q1371.75 1550.41 1370.13 1549.14 Q1368.54 1547.86 1363.1 1546.68 L1361.06 1546.21 Q1355.62 1545.06 1353.2 1542.71 Q1350.78 1540.32 1350.78 1536.18 Q1350.78 1531.15 1354.34 1528.42 Q1357.91 1525.68 1364.47 1525.68 Q1367.71 1525.68 1370.58 1526.16 Q1373.44 1526.63 1375.86 1527.59 Z" fill="#000000" fill-rule="evenodd" fill-opacity="1" /><path clip-path="url(#clip670)" d="M 0 0 M1414.41 1542.9 L1414.41 1545.76 L1387.48 1545.76 Q1387.86 1551.81 1391.11 1554.99 Q1394.38 1558.14 1400.21 1558.14 Q1403.58 1558.14 1406.73 1557.32 Q1409.92 1556.49 1413.04 1554.83 L1413.04 1560.37 Q1409.89 1561.71 1406.58 1562.41 Q1403.27 1563.11 1399.86 1563.11 Q1391.33 1563.11 1386.33 1558.14 Q1381.37 1553.18 1381.37 1544.71 Q1381.37 1535.96 1386.08 1530.83 Q1390.82 1525.68 1398.84 1525.68 Q1406.03 1525.68 1410.2 1530.33 Q1414.41 1534.94 1414.41 1542.9 M1408.55 1541.18 Q1408.48 1536.37 1405.84 1533.51 Q1403.23 1530.64 1398.9 1530.64 Q1394 1530.64 1391.04 1533.41 Q1388.11 1536.18 1387.67 1541.21 L1408.55 1541.18 Z" fill="#000000" fill-rule="evenodd" fill-opacity="1" /><polyline clip-path="url(#clip672)" style="stroke:#000000; stroke-width:2; stroke-opacity:0.1; fill:none" points="
  260.607,1255.17 2352.76,1255.17 
  "/>
<polyline clip-path="url(#clip672)" style="stroke:#000000; stroke-width:2; stroke-opacity:0.1; fill:none" points="
  260.607,1075.43 2352.76,1075.43 
  "/>
<polyline clip-path="url(#clip672)" style="stroke:#000000; stroke-width:2; stroke-opacity:0.1; fill:none" points="
  260.607,895.696 2352.76,895.696 
  "/>
<polyline clip-path="url(#clip672)" style="stroke:#000000; stroke-width:2; stroke-opacity:0.1; fill:none" points="
  260.607,715.957 2352.76,715.957 
  "/>
<polyline clip-path="url(#clip672)" style="stroke:#000000; stroke-width:2; stroke-opacity:0.1; fill:none" points="
  260.607,536.219 2352.76,536.219 
  "/>
<polyline clip-path="url(#clip672)" style="stroke:#000000; stroke-width:2; stroke-opacity:0.1; fill:none" points="
  260.607,356.481 2352.76,356.481 
  "/>
<polyline clip-path="url(#clip672)" style="stroke:#000000; stroke-width:2; stroke-opacity:0.1; fill:none" points="
  260.607,176.743 2352.76,176.743 
  "/>
<polyline clip-path="url(#clip670)" style="stroke:#000000; stroke-width:4; stroke-opacity:1; fill:none" points="
  260.607,1410.9 260.607,47.2441 
  "/>
<polyline clip-path="url(#clip670)" style="stroke:#000000; stroke-width:4; stroke-opacity:1; fill:none" points="
  260.607,1255.17 285.713,1255.17 
  "/>
<polyline clip-path="url(#clip670)" style="stroke:#000000; stroke-width:4; stroke-opacity:1; fill:none" points="
  260.607,1075.43 285.713,1075.43 
  "/>
<polyline clip-path="url(#clip670)" style="stroke:#000000; stroke-width:4; stroke-opacity:1; fill:none" points="
  260.607,895.696 285.713,895.696 
  "/>
<polyline clip-path="url(#clip670)" style="stroke:#000000; stroke-width:4; stroke-opacity:1; fill:none" points="
  260.607,715.957 285.713,715.957 
  "/>
<polyline clip-path="url(#clip670)" style="stroke:#000000; stroke-width:4; stroke-opacity:1; fill:none" points="
  260.607,536.219 285.713,536.219 
  "/>
<polyline clip-path="url(#clip670)" style="stroke:#000000; stroke-width:4; stroke-opacity:1; fill:none" points="
  260.607,356.481 285.713,356.481 
  "/>
<polyline clip-path="url(#clip670)" style="stroke:#000000; stroke-width:4; stroke-opacity:1; fill:none" points="
  260.607,176.743 285.713,176.743 
  "/>
<path clip-path="url(#clip670)" d="M 0 0 M115.603 1268.52 L123.242 1268.52 L123.242 1242.15 L114.931 1243.82 L114.931 1239.56 L123.195 1237.89 L127.871 1237.89 L127.871 1268.52 L135.51 1268.52 L135.51 1272.45 L115.603 1272.45 L115.603 1268.52 Z" fill="#000000" fill-rule="evenodd" fill-opacity="1" /><path clip-path="url(#clip670)" d="M 0 0 M150.579 1240.97 Q146.968 1240.97 145.14 1244.54 Q143.334 1248.08 143.334 1255.21 Q143.334 1262.31 145.14 1265.88 Q146.968 1269.42 150.579 1269.42 Q154.214 1269.42 156.019 1265.88 Q157.848 1262.31 157.848 1255.21 Q157.848 1248.08 156.019 1244.54 Q154.214 1240.97 150.579 1240.97 M150.579 1237.27 Q156.39 1237.27 159.445 1241.87 Q162.524 1246.46 162.524 1255.21 Q162.524 1263.93 159.445 1268.54 Q156.39 1273.12 150.579 1273.12 Q144.769 1273.12 141.691 1268.54 Q138.635 1263.93 138.635 1255.21 Q138.635 1246.46 141.691 1241.87 Q144.769 1237.27 150.579 1237.27 Z" fill="#000000" fill-rule="evenodd" fill-opacity="1" /><path clip-path="url(#clip670)" d="M 0 0 M167.593 1266.57 L172.477 1266.57 L172.477 1272.45 L167.593 1272.45 L167.593 1266.57 Z" fill="#000000" fill-rule="evenodd" fill-opacity="1" /><path clip-path="url(#clip670)" d="M 0 0 M176.366 1237.89 L198.588 1237.89 L198.588 1239.88 L186.042 1272.45 L181.158 1272.45 L192.963 1241.83 L176.366 1241.83 L176.366 1237.89 Z" fill="#000000" fill-rule="evenodd" fill-opacity="1" /><path clip-path="url(#clip670)" d="M 0 0 M203.704 1237.89 L222.061 1237.89 L222.061 1241.83 L207.987 1241.83 L207.987 1250.3 Q209.005 1249.95 210.024 1249.79 Q211.042 1249.61 212.061 1249.61 Q217.848 1249.61 221.227 1252.78 Q224.607 1255.95 224.607 1261.36 Q224.607 1266.94 221.135 1270.04 Q217.662 1273.12 211.343 1273.12 Q209.167 1273.12 206.899 1272.75 Q204.653 1272.38 202.246 1271.64 L202.246 1266.94 Q204.329 1268.08 206.551 1268.63 Q208.774 1269.19 211.25 1269.19 Q215.255 1269.19 217.593 1267.08 Q219.931 1264.98 219.931 1261.36 Q219.931 1257.75 217.593 1255.65 Q215.255 1253.54 211.25 1253.54 Q209.375 1253.54 207.5 1253.96 Q205.649 1254.37 203.704 1255.25 L203.704 1237.89 Z" fill="#000000" fill-rule="evenodd" fill-opacity="1" /><path clip-path="url(#clip670)" d="M 0 0 M114.931 1088.78 L122.57 1088.78 L122.57 1062.41 L114.26 1064.08 L114.26 1059.82 L122.524 1058.15 L127.2 1058.15 L127.2 1088.78 L134.839 1088.78 L134.839 1092.71 L114.931 1092.71 L114.931 1088.78 Z" fill="#000000" fill-rule="evenodd" fill-opacity="1" /><path clip-path="url(#clip670)" d="M 0 0 M140.718 1088.78 L148.357 1088.78 L148.357 1062.41 L140.047 1064.08 L140.047 1059.82 L148.311 1058.15 L152.987 1058.15 L152.987 1088.78 L160.626 1088.78 L160.626 1092.71 L140.718 1092.71 L140.718 1088.78 Z" fill="#000000" fill-rule="evenodd" fill-opacity="1" /><path clip-path="url(#clip670)" d="M 0 0 M165.695 1086.83 L170.579 1086.83 L170.579 1092.71 L165.695 1092.71 L165.695 1086.83 Z" fill="#000000" fill-rule="evenodd" fill-opacity="1" /><path clip-path="url(#clip670)" d="M 0 0 M185.649 1061.23 Q182.038 1061.23 180.209 1064.8 Q178.403 1068.34 178.403 1075.47 Q178.403 1082.58 180.209 1086.14 Q182.038 1089.68 185.649 1089.68 Q189.283 1089.68 191.088 1086.14 Q192.917 1082.58 192.917 1075.47 Q192.917 1068.34 191.088 1064.8 Q189.283 1061.23 185.649 1061.23 M185.649 1057.53 Q191.459 1057.53 194.514 1062.14 Q197.593 1066.72 197.593 1075.47 Q197.593 1084.2 194.514 1088.8 Q191.459 1093.39 185.649 1093.39 Q179.839 1093.39 176.76 1088.8 Q173.704 1084.2 173.704 1075.47 Q173.704 1066.72 176.76 1062.14 Q179.839 1057.53 185.649 1057.53 Z" fill="#000000" fill-rule="evenodd" fill-opacity="1" /><path clip-path="url(#clip670)" d="M 0 0 M212.662 1061.23 Q209.051 1061.23 207.223 1064.8 Q205.417 1068.34 205.417 1075.47 Q205.417 1082.58 207.223 1086.14 Q209.051 1089.68 212.662 1089.68 Q216.297 1089.68 218.102 1086.14 Q219.931 1082.58 219.931 1075.47 Q219.931 1068.34 218.102 1064.8 Q216.297 1061.23 212.662 1061.23 M212.662 1057.53 Q218.473 1057.53 221.528 1062.14 Q224.607 1066.72 224.607 1075.47 Q224.607 1084.2 221.528 1088.8 Q218.473 1093.39 212.662 1093.39 Q206.852 1093.39 203.774 1088.8 Q200.718 1084.2 200.718 1075.47 Q200.718 1066.72 203.774 1062.14 Q206.852 1057.53 212.662 1057.53 Z" fill="#000000" fill-rule="evenodd" fill-opacity="1" /><path clip-path="url(#clip670)" d="M 0 0 M117.524 909.04 L125.163 909.04 L125.163 882.675 L116.853 884.342 L116.853 880.082 L125.117 878.416 L129.792 878.416 L129.792 909.04 L137.431 909.04 L137.431 912.976 L117.524 912.976 L117.524 909.04 Z" fill="#000000" fill-rule="evenodd" fill-opacity="1" /><path clip-path="url(#clip670)" d="M 0 0 M143.311 909.04 L150.95 909.04 L150.95 882.675 L142.64 884.342 L142.64 880.082 L150.903 878.416 L155.579 878.416 L155.579 909.04 L163.218 909.04 L163.218 912.976 L143.311 912.976 L143.311 909.04 Z" fill="#000000" fill-rule="evenodd" fill-opacity="1" /><path clip-path="url(#clip670)" d="M 0 0 M168.288 907.096 L173.172 907.096 L173.172 912.976 L168.288 912.976 L168.288 907.096 Z" fill="#000000" fill-rule="evenodd" fill-opacity="1" /><path clip-path="url(#clip670)" d="M 0 0 M182.269 909.04 L198.588 909.04 L198.588 912.976 L176.644 912.976 L176.644 909.04 Q179.306 906.286 183.889 901.656 Q188.496 897.004 189.676 895.661 Q191.922 893.138 192.801 891.402 Q193.704 889.642 193.704 887.953 Q193.704 885.198 191.76 883.462 Q189.838 881.726 186.737 881.726 Q184.538 881.726 182.084 882.49 Q179.653 883.254 176.876 884.805 L176.876 880.082 Q179.7 878.948 182.153 878.369 Q184.607 877.791 186.644 877.791 Q192.014 877.791 195.209 880.476 Q198.403 883.161 198.403 887.652 Q198.403 889.781 197.593 891.703 Q196.806 893.601 194.7 896.193 Q194.121 896.865 191.019 900.082 Q187.917 903.277 182.269 909.04 Z" fill="#000000" fill-rule="evenodd" fill-opacity="1" /><path clip-path="url(#clip670)" d="M 0 0 M203.704 878.416 L222.061 878.416 L222.061 882.351 L207.987 882.351 L207.987 890.823 Q209.005 890.476 210.024 890.314 Q211.042 890.129 212.061 890.129 Q217.848 890.129 221.227 893.3 Q224.607 896.471 224.607 901.888 Q224.607 907.466 221.135 910.568 Q217.662 913.647 211.343 913.647 Q209.167 913.647 206.899 913.277 Q204.653 912.906 202.246 912.165 L202.246 907.466 Q204.329 908.601 206.551 909.156 Q208.774 909.712 211.25 909.712 Q215.255 909.712 217.593 907.605 Q219.931 905.499 219.931 901.888 Q219.931 898.277 217.593 896.17 Q215.255 894.064 211.25 894.064 Q209.375 894.064 207.5 894.48 Q205.649 894.897 203.704 895.777 L203.704 878.416 Z" fill="#000000" fill-rule="evenodd" fill-opacity="1" /><path clip-path="url(#clip670)" d="M 0 0 M115.927 729.302 L123.566 729.302 L123.566 702.937 L115.256 704.603 L115.256 700.344 L123.519 698.677 L128.195 698.677 L128.195 729.302 L135.834 729.302 L135.834 733.237 L115.927 733.237 L115.927 729.302 Z" fill="#000000" fill-rule="evenodd" fill-opacity="1" /><path clip-path="url(#clip670)" d="M 0 0 M141.714 729.302 L149.353 729.302 L149.353 702.937 L141.042 704.603 L141.042 700.344 L149.306 698.677 L153.982 698.677 L153.982 729.302 L161.621 729.302 L161.621 733.237 L141.714 733.237 L141.714 729.302 Z" fill="#000000" fill-rule="evenodd" fill-opacity="1" /><path clip-path="url(#clip670)" d="M 0 0 M166.69 727.358 L171.575 727.358 L171.575 733.237 L166.69 733.237 L166.69 727.358 Z" fill="#000000" fill-rule="evenodd" fill-opacity="1" /><path clip-path="url(#clip670)" d="M 0 0 M176.69 698.677 L195.047 698.677 L195.047 702.613 L180.973 702.613 L180.973 711.085 Q181.991 710.737 183.01 710.575 Q184.028 710.39 185.047 710.39 Q190.834 710.39 194.213 713.562 Q197.593 716.733 197.593 722.149 Q197.593 727.728 194.121 730.83 Q190.649 733.909 184.329 733.909 Q182.153 733.909 179.885 733.538 Q177.639 733.168 175.232 732.427 L175.232 727.728 Q177.315 728.862 179.538 729.418 Q181.76 729.973 184.237 729.973 Q188.241 729.973 190.579 727.867 Q192.917 725.761 192.917 722.149 Q192.917 718.538 190.579 716.432 Q188.241 714.325 184.237 714.325 Q182.362 714.325 180.487 714.742 Q178.635 715.159 176.69 716.038 L176.69 698.677 Z" fill="#000000" fill-rule="evenodd" fill-opacity="1" /><path clip-path="url(#clip670)" d="M 0 0 M212.662 701.756 Q209.051 701.756 207.223 705.321 Q205.417 708.862 205.417 715.992 Q205.417 723.099 207.223 726.663 Q209.051 730.205 212.662 730.205 Q216.297 730.205 218.102 726.663 Q219.931 723.099 219.931 715.992 Q219.931 708.862 218.102 705.321 Q216.297 701.756 212.662 701.756 M212.662 698.052 Q218.473 698.052 221.528 702.659 Q224.607 707.242 224.607 715.992 Q224.607 724.719 221.528 729.325 Q218.473 733.909 212.662 733.909 Q206.852 733.909 203.774 729.325 Q200.718 724.719 200.718 715.992 Q200.718 707.242 203.774 702.659 Q206.852 698.052 212.662 698.052 Z" fill="#000000" fill-rule="evenodd" fill-opacity="1" /><path clip-path="url(#clip670)" d="M 0 0 M116.83 549.564 L124.468 549.564 L124.468 523.198 L116.158 524.865 L116.158 520.606 L124.422 518.939 L129.098 518.939 L129.098 549.564 L136.737 549.564 L136.737 553.499 L116.83 553.499 L116.83 549.564 Z" fill="#000000" fill-rule="evenodd" fill-opacity="1" /><path clip-path="url(#clip670)" d="M 0 0 M142.616 549.564 L150.255 549.564 L150.255 523.198 L141.945 524.865 L141.945 520.606 L150.209 518.939 L154.885 518.939 L154.885 549.564 L162.524 549.564 L162.524 553.499 L142.616 553.499 L142.616 549.564 Z" fill="#000000" fill-rule="evenodd" fill-opacity="1" /><path clip-path="url(#clip670)" d="M 0 0 M167.593 547.619 L172.477 547.619 L172.477 553.499 L167.593 553.499 L167.593 547.619 Z" fill="#000000" fill-rule="evenodd" fill-opacity="1" /><path clip-path="url(#clip670)" d="M 0 0 M176.366 518.939 L198.588 518.939 L198.588 520.93 L186.042 553.499 L181.158 553.499 L192.963 522.874 L176.366 522.874 L176.366 518.939 Z" fill="#000000" fill-rule="evenodd" fill-opacity="1" /><path clip-path="url(#clip670)" d="M 0 0 M203.704 518.939 L222.061 518.939 L222.061 522.874 L207.987 522.874 L207.987 531.346 Q209.005 530.999 210.024 530.837 Q211.042 530.652 212.061 530.652 Q217.848 530.652 221.227 533.823 Q224.607 536.995 224.607 542.411 Q224.607 547.99 221.135 551.092 Q217.662 554.17 211.343 554.17 Q209.167 554.17 206.899 553.8 Q204.653 553.43 202.246 552.689 L202.246 547.99 Q204.329 549.124 206.551 549.68 Q208.774 550.235 211.25 550.235 Q215.255 550.235 217.593 548.129 Q219.931 546.022 219.931 542.411 Q219.931 538.8 217.593 536.694 Q215.255 534.587 211.25 534.587 Q209.375 534.587 207.5 535.004 Q205.649 535.42 203.704 536.3 L203.704 518.939 Z" fill="#000000" fill-rule="evenodd" fill-opacity="1" /><path clip-path="url(#clip670)" d="M 0 0 M115.302 369.826 L122.941 369.826 L122.941 343.46 L114.631 345.127 L114.631 340.867 L122.894 339.201 L127.57 339.201 L127.57 369.826 L135.209 369.826 L135.209 373.761 L115.302 373.761 L115.302 369.826 Z" fill="#000000" fill-rule="evenodd" fill-opacity="1" /><path clip-path="url(#clip670)" d="M 0 0 M144.306 369.826 L160.626 369.826 L160.626 373.761 L138.681 373.761 L138.681 369.826 Q141.343 367.071 145.927 362.441 Q150.533 357.789 151.714 356.446 Q153.959 353.923 154.839 352.187 Q155.741 350.428 155.741 348.738 Q155.741 345.983 153.797 344.247 Q151.876 342.511 148.774 342.511 Q146.575 342.511 144.121 343.275 Q141.691 344.039 138.913 345.59 L138.913 340.867 Q141.737 339.733 144.191 339.154 Q146.644 338.576 148.681 338.576 Q154.052 338.576 157.246 341.261 Q160.44 343.946 160.44 348.437 Q160.44 350.566 159.63 352.488 Q158.843 354.386 156.737 356.978 Q156.158 357.65 153.056 360.867 Q149.954 364.062 144.306 369.826 Z" fill="#000000" fill-rule="evenodd" fill-opacity="1" /><path clip-path="url(#clip670)" d="M 0 0 M165.695 367.881 L170.579 367.881 L170.579 373.761 L165.695 373.761 L165.695 367.881 Z" fill="#000000" fill-rule="evenodd" fill-opacity="1" /><path clip-path="url(#clip670)" d="M 0 0 M185.649 342.279 Q182.038 342.279 180.209 345.844 Q178.403 349.386 178.403 356.516 Q178.403 363.622 180.209 367.187 Q182.038 370.728 185.649 370.728 Q189.283 370.728 191.088 367.187 Q192.917 363.622 192.917 356.516 Q192.917 349.386 191.088 345.844 Q189.283 342.279 185.649 342.279 M185.649 338.576 Q191.459 338.576 194.514 343.182 Q197.593 347.766 197.593 356.516 Q197.593 365.242 194.514 369.849 Q191.459 374.432 185.649 374.432 Q179.839 374.432 176.76 369.849 Q173.704 365.242 173.704 356.516 Q173.704 347.766 176.76 343.182 Q179.839 338.576 185.649 338.576 Z" fill="#000000" fill-rule="evenodd" fill-opacity="1" /><path clip-path="url(#clip670)" d="M 0 0 M212.662 342.279 Q209.051 342.279 207.223 345.844 Q205.417 349.386 205.417 356.516 Q205.417 363.622 207.223 367.187 Q209.051 370.728 212.662 370.728 Q216.297 370.728 218.102 367.187 Q219.931 363.622 219.931 356.516 Q219.931 349.386 218.102 345.844 Q216.297 342.279 212.662 342.279 M212.662 338.576 Q218.473 338.576 221.528 343.182 Q224.607 347.766 224.607 356.516 Q224.607 365.242 221.528 369.849 Q218.473 374.432 212.662 374.432 Q206.852 374.432 203.774 369.849 Q200.718 365.242 200.718 356.516 Q200.718 347.766 203.774 343.182 Q206.852 338.576 212.662 338.576 Z" fill="#000000" fill-rule="evenodd" fill-opacity="1" /><path clip-path="url(#clip670)" d="M 0 0 M117.894 190.087 L125.533 190.087 L125.533 163.722 L117.223 165.388 L117.223 161.129 L125.487 159.463 L130.163 159.463 L130.163 190.087 L137.802 190.087 L137.802 194.023 L117.894 194.023 L117.894 190.087 Z" fill="#000000" fill-rule="evenodd" fill-opacity="1" /><path clip-path="url(#clip670)" d="M 0 0 M146.899 190.087 L163.218 190.087 L163.218 194.023 L141.274 194.023 L141.274 190.087 Q143.936 187.333 148.519 182.703 Q153.126 178.05 154.306 176.708 Q156.552 174.185 157.431 172.449 Q158.334 170.689 158.334 168.999 Q158.334 166.245 156.39 164.509 Q154.468 162.773 151.366 162.773 Q149.167 162.773 146.714 163.537 Q144.283 164.3 141.505 165.851 L141.505 161.129 Q144.329 159.995 146.783 159.416 Q149.237 158.838 151.274 158.838 Q156.644 158.838 159.839 161.523 Q163.033 164.208 163.033 168.699 Q163.033 170.828 162.223 172.749 Q161.436 174.648 159.329 177.24 Q158.751 177.911 155.649 181.129 Q152.547 184.323 146.899 190.087 Z" fill="#000000" fill-rule="evenodd" fill-opacity="1" /><path clip-path="url(#clip670)" d="M 0 0 M168.288 188.143 L173.172 188.143 L173.172 194.023 L168.288 194.023 L168.288 188.143 Z" fill="#000000" fill-rule="evenodd" fill-opacity="1" /><path clip-path="url(#clip670)" d="M 0 0 M182.269 190.087 L198.588 190.087 L198.588 194.023 L176.644 194.023 L176.644 190.087 Q179.306 187.333 183.889 182.703 Q188.496 178.05 189.676 176.708 Q191.922 174.185 192.801 172.449 Q193.704 170.689 193.704 168.999 Q193.704 166.245 191.76 164.509 Q189.838 162.773 186.737 162.773 Q184.538 162.773 182.084 163.537 Q179.653 164.3 176.876 165.851 L176.876 161.129 Q179.7 159.995 182.153 159.416 Q184.607 158.838 186.644 158.838 Q192.014 158.838 195.209 161.523 Q198.403 164.208 198.403 168.699 Q198.403 170.828 197.593 172.749 Q196.806 174.648 194.7 177.24 Q194.121 177.911 191.019 181.129 Q187.917 184.323 182.269 190.087 Z" fill="#000000" fill-rule="evenodd" fill-opacity="1" /><path clip-path="url(#clip670)" d="M 0 0 M203.704 159.463 L222.061 159.463 L222.061 163.398 L207.987 163.398 L207.987 171.87 Q209.005 171.523 210.024 171.361 Q211.042 171.175 212.061 171.175 Q217.848 171.175 221.227 174.347 Q224.607 177.518 224.607 182.935 Q224.607 188.513 221.135 191.615 Q217.662 194.694 211.343 194.694 Q209.167 194.694 206.899 194.323 Q204.653 193.953 202.246 193.212 L202.246 188.513 Q204.329 189.648 206.551 190.203 Q208.774 190.759 211.25 190.759 Q215.255 190.759 217.593 188.652 Q219.931 186.546 219.931 182.935 Q219.931 179.324 217.593 177.217 Q215.255 175.111 211.25 175.111 Q209.375 175.111 207.5 175.527 Q205.649 175.944 203.704 176.824 L203.704 159.463 Z" fill="#000000" fill-rule="evenodd" fill-opacity="1" /><path clip-path="url(#clip670)" d="M 0 0 M59.1993 815.533 Q55.2526 813.336 53.3747 810.281 Q51.4968 807.225 51.4968 803.088 Q51.4968 797.518 55.4117 794.494 Q59.2948 791.47 66.4881 791.47 L88.0042 791.47 L88.0042 797.358 L66.679 797.358 Q61.5546 797.358 59.072 799.173 Q56.5894 800.987 56.5894 804.711 Q56.5894 809.262 59.6131 811.904 Q62.6368 814.546 67.8567 814.546 L88.0042 814.546 L88.0042 820.434 L66.679 820.434 Q61.5228 820.434 59.072 822.248 Q56.5894 824.063 56.5894 827.85 Q56.5894 832.338 59.6449 834.98 Q62.6686 837.622 67.8567 837.622 L88.0042 837.622 L88.0042 843.51 L52.3562 843.51 L52.3562 837.622 L57.8944 837.622 Q54.616 835.616 53.0564 832.815 Q51.4968 830.015 51.4968 826.163 Q51.4968 822.28 53.4702 819.575 Q55.4436 816.838 59.1993 815.533 Z" fill="#000000" fill-rule="evenodd" fill-opacity="1" /><path clip-path="url(#clip670)" d="M 0 0 M52.3562 785.327 L52.3562 779.471 L88.0042 779.471 L88.0042 785.327 L52.3562 785.327 M38.479 785.327 L38.479 779.471 L45.895 779.471 L45.895 785.327 L38.479 785.327 Z" fill="#000000" fill-rule="evenodd" fill-opacity="1" /><path clip-path="url(#clip670)" d="M 0 0 M66.4881 743.696 L88.0042 743.696 L88.0042 749.552 L66.679 749.552 Q61.6183 749.552 59.1038 751.525 Q56.5894 753.499 56.5894 757.446 Q56.5894 762.188 59.6131 764.925 Q62.6368 767.662 67.8567 767.662 L88.0042 767.662 L88.0042 773.551 L52.3562 773.551 L52.3562 767.662 L57.8944 767.662 Q54.6797 765.562 53.0883 762.729 Q51.4968 759.864 51.4968 756.141 Q51.4968 749.998 55.3163 746.847 Q59.1038 743.696 66.4881 743.696 Z" fill="#000000" fill-rule="evenodd" fill-opacity="1" /><path clip-path="url(#clip670)" d="M 0 0 M98.8259 710.467 L103.377 710.467 L103.377 744.332 L98.8259 744.332 L98.8259 710.467 Z" fill="#000000" fill-rule="evenodd" fill-opacity="1" /><path clip-path="url(#clip670)" d="M 0 0 M57.7671 680.866 L38.479 680.866 L38.479 675.01 L88.0042 675.01 L88.0042 680.866 L82.657 680.866 Q85.8398 682.712 87.3994 685.545 Q88.9272 688.346 88.9272 692.292 Q88.9272 698.754 83.771 702.828 Q78.6147 706.87 70.212 706.87 Q61.8093 706.87 56.6531 702.828 Q51.4968 698.754 51.4968 692.292 Q51.4968 688.346 53.0564 685.545 Q54.5842 682.712 57.7671 680.866 M70.212 700.823 Q76.6732 700.823 80.3653 698.181 Q84.0256 695.507 84.0256 690.86 Q84.0256 686.213 80.3653 683.54 Q76.6732 680.866 70.212 680.866 Q63.7508 680.866 60.0905 683.54 Q56.3984 686.213 56.3984 690.86 Q56.3984 695.507 60.0905 698.181 Q63.7508 700.823 70.212 700.823 Z" fill="#000000" fill-rule="evenodd" fill-opacity="1" /><path clip-path="url(#clip670)" d="M 0 0 M52.3562 668.867 L52.3562 663.01 L88.0042 663.01 L88.0042 668.867 L52.3562 668.867 M38.479 668.867 L38.479 663.01 L45.895 663.01 L45.895 668.867 L38.479 668.867 Z" fill="#000000" fill-rule="evenodd" fill-opacity="1" /><path clip-path="url(#clip670)" d="M 0 0 M38.479 638.821 L43.3487 638.821 L43.3487 644.422 Q43.3487 647.573 44.6219 648.815 Q45.895 650.024 49.2052 650.024 L52.3562 650.024 L52.3562 640.38 L56.9077 640.38 L56.9077 650.024 L88.0042 650.024 L88.0042 655.912 L56.9077 655.912 L56.9077 661.514 L52.3562 661.514 L52.3562 655.912 L49.8736 655.912 Q43.9216 655.912 41.2162 653.143 Q38.479 650.374 38.479 644.359 L38.479 638.821 Z" fill="#000000" fill-rule="evenodd" fill-opacity="1" /><path clip-path="url(#clip670)" d="M 0 0 M38.479 614.631 L43.3487 614.631 L43.3487 620.233 Q43.3487 623.384 44.6219 624.625 Q45.895 625.835 49.2052 625.835 L52.3562 625.835 L52.3562 616.19 L56.9077 616.19 L56.9077 625.835 L88.0042 625.835 L88.0042 631.723 L56.9077 631.723 L56.9077 637.325 L52.3562 637.325 L52.3562 631.723 L49.8736 631.723 Q43.9216 631.723 41.2162 628.954 Q38.479 626.185 38.479 620.169 L38.479 614.631 Z" fill="#000000" fill-rule="evenodd" fill-opacity="1" /><polyline clip-path="url(#clip672)" style="stroke:#009af9; stroke-width:20; stroke-opacity:1; fill:none" stroke-dasharray="80, 50" points="
  319.819,85.838 1306.68,1372.3 2293.54,1154.96 
  "/>
<path clip-path="url(#clip670)" d="
M1999.54 213.659 L2283.02 213.659 L2283.02 92.6992 L1999.54 92.6992  Z
  " fill="#ffffff" fill-rule="evenodd" fill-opacity="1"/>
<polyline clip-path="url(#clip670)" style="stroke:#000000; stroke-width:4; stroke-opacity:1; fill:none" points="
  1999.54,213.659 2283.02,213.659 2283.02,92.6992 1999.54,92.6992 1999.54,213.659 
  "/>
<polyline clip-path="url(#clip670)" style="stroke:#009af9; stroke-width:4; stroke-opacity:1; fill:none" stroke-dasharray="16, 10" points="
  2022.78,153.179 2162.26,153.179 
  "/>
<path clip-path="url(#clip670)" d="M 0 0 M2199.35 172.867 Q2197.54 177.496 2195.83 178.908 Q2194.12 180.32 2191.25 180.32 L2187.85 180.32 L2187.85 176.755 L2190.35 176.755 Q2192.1 176.755 2193.08 175.922 Q2194.05 175.089 2195.23 171.987 L2195.99 170.043 L2185.51 144.533 L2190.02 144.533 L2198.12 164.811 L2206.22 144.533 L2210.74 144.533 L2199.35 172.867 Z" fill="#000000" fill-rule="evenodd" fill-opacity="1" /><path clip-path="url(#clip670)" d="M 0 0 M2216.62 166.524 L2224.26 166.524 L2224.26 140.158 L2215.95 141.825 L2215.95 137.566 L2224.21 135.899 L2228.89 135.899 L2228.89 166.524 L2236.53 166.524 L2236.53 170.459 L2216.62 170.459 L2216.62 166.524 Z" fill="#000000" fill-rule="evenodd" fill-opacity="1" /></svg>
