<?xml version="1.0" encoding="utf-8"?>
<svg xmlns="http://www.w3.org/2000/svg" xmlns:xlink="http://www.w3.org/1999/xlink" width="600" height="400" viewBox="0 0 2400 1600">
<defs>
  <clipPath id="clip240">
    <rect x="0" y="0" width="2400" height="1600"/>
  </clipPath>
</defs>
<path clip-path="url(#clip240)" d="
M0 1600 L2400 1600 L2400 0 L0 0  Z
  " fill="#ffffff" fill-rule="evenodd" fill-opacity="1"/>
<defs>
  <clipPath id="clip241">
    <rect x="480" y="0" width="1681" height="1600"/>
  </clipPath>
</defs>
<path clip-path="url(#clip240)" d="
M236.186 1410.9 L2352.76 1410.9 L2352.76 47.2441 L236.186 47.2441  Z
  " fill="#ffffff" fill-rule="evenodd" fill-opacity="1"/>
<defs>
  <clipPath id="clip242">
    <rect x="236" y="47" width="2118" height="1365"/>
  </clipPath>
</defs>
<polyline clip-path="url(#clip242)" style="stroke:#000000; stroke-width:2; stroke-opacity:0.1; fill:none" points="
  495.765,1410.9 495.765,47.2441 
  "/>
<polyline clip-path="url(#clip242)" style="stroke:#000000; stroke-width:2; stroke-opacity:0.1; fill:none" points="
  895.118,1410.9 895.118,47.2441 
  "/>
<polyline clip-path="url(#clip242)" style="stroke:#000000; stroke-width:2; stroke-opacity:0.1; fill:none" points="
  1294.47,1410.9 1294.47,47.2441 
  "/>
<polyline clip-path="url(#clip242)" style="stroke:#000000; stroke-width:2; stroke-opacity:0.1; fill:none" points="
  1693.82,1410.9 1693.82,47.2441 
  "/>
<polyline clip-path="url(#clip242)" style="stroke:#000000; stroke-width:2; stroke-opacity:0.1; fill:none" points="
  2093.18,1410.9 2093.18,47.2441 
  "/>
<polyline clip-path="url(#clip240)" style="stroke:#000000; stroke-width:4; stroke-opacity:1; fill:none" points="
  236.186,1410.9 2352.76,1410.9 
  "/>
<polyline clip-path="url(#clip240)" style="stroke:#000000; stroke-width:4; stroke-opacity:1; fill:none" points="
  495.765,1410.9 495.765,1394.53 
  "/>
<polyline clip-path="url(#clip240)" style="stroke:#000000; stroke-width:4; stroke-opacity:1; fill:none" points="
  895.118,1410.9 895.118,1394.53 
  "/>
<polyline clip-path="url(#clip240)" style="stroke:#000000; stroke-width:4; stroke-opacity:1; fill:none" points="
  1294.47,1410.9 1294.47,1394.53 
  "/>
<polyline clip-path="url(#clip240)" style="stroke:#000000; stroke-width:4; stroke-opacity:1; fill:none" points="
  1693.82,1410.9 1693.82,1394.53 
  "/>
<polyline clip-path="url(#clip240)" style="stroke:#000000; stroke-width:4; stroke-opacity:1; fill:none" points="
  2093.18,1410.9 2093.18,1394.53 
  "/>
<path clip-path="url(#clip240)" d="M 0 0 M434.799 1489.17 L442.438 1489.17 L442.438 1462.8 L434.128 1464.47 L434.128 1460.21 L442.391 1458.54 L447.067 1458.54 L447.067 1489.17 L454.706 1489.17 L454.706 1493.1 L434.799 1493.1 L434.799 1489.17 Z" fill="#000000" fill-rule="evenodd" fill-opacity="1" /><path clip-path="url(#clip240)" d="M 0 0 M469.776 1461.62 Q466.164 1461.62 464.336 1465.19 Q462.53 1468.73 462.53 1475.86 Q462.53 1482.97 464.336 1486.53 Q466.164 1490.07 469.776 1490.07 Q473.41 1490.07 475.215 1486.53 Q477.044 1482.97 477.044 1475.86 Q477.044 1468.73 475.215 1465.19 Q473.41 1461.62 469.776 1461.62 M469.776 1457.92 Q475.586 1457.92 478.641 1462.53 Q481.72 1467.11 481.72 1475.86 Q481.72 1484.59 478.641 1489.19 Q475.586 1493.78 469.776 1493.78 Q463.965 1493.78 460.887 1489.19 Q457.831 1484.59 457.831 1475.86 Q457.831 1467.11 460.887 1462.53 Q463.965 1457.92 469.776 1457.92 Z" fill="#000000" fill-rule="evenodd" fill-opacity="1" /><path clip-path="url(#clip240)" d="M 0 0 M481.72 1452.02 L505.831 1452.02 L505.831 1455.22 L481.72 1455.22 L481.72 1452.02 Z" fill="#000000" fill-rule="evenodd" fill-opacity="1" /><path clip-path="url(#clip240)" d="M 0 0 M509.988 1437.61 L524.903 1437.61 L524.903 1440.81 L513.467 1440.81 L513.467 1447.69 Q514.295 1447.41 515.123 1447.28 Q515.95 1447.13 516.778 1447.13 Q521.48 1447.13 524.225 1449.71 Q526.971 1452.28 526.971 1456.68 Q526.971 1461.22 524.15 1463.74 Q521.329 1466.24 516.195 1466.24 Q514.427 1466.24 512.583 1465.94 Q510.759 1465.64 508.803 1465.04 L508.803 1461.22 Q510.496 1462.14 512.301 1462.59 Q514.107 1463.04 516.119 1463.04 Q519.373 1463.04 521.273 1461.33 Q523.172 1459.62 523.172 1456.68 Q523.172 1453.75 521.273 1452.04 Q519.373 1450.33 516.119 1450.33 Q514.596 1450.33 513.072 1450.67 Q511.568 1451 509.988 1451.72 L509.988 1437.61 Z" fill="#000000" fill-rule="evenodd" fill-opacity="1" /><path clip-path="url(#clip240)" d="M 0 0 M531.09 1460.92 L535.059 1460.92 L535.059 1465.69 L531.09 1465.69 L531.09 1460.92 Z" fill="#000000" fill-rule="evenodd" fill-opacity="1" /><path clip-path="url(#clip240)" d="M 0 0 M549.616 1440.92 L540.024 1455.91 L549.616 1455.91 L549.616 1440.92 M548.619 1437.61 L553.396 1437.61 L553.396 1455.91 L557.402 1455.91 L557.402 1459.07 L553.396 1459.07 L553.396 1465.69 L549.616 1465.69 L549.616 1459.07 L536.94 1459.07 L536.94 1455.41 L548.619 1437.61 Z" fill="#000000" fill-rule="evenodd" fill-opacity="1" /><path clip-path="url(#clip240)" d="M 0 0 M834.998 1489.17 L842.637 1489.17 L842.637 1462.8 L834.327 1464.47 L834.327 1460.21 L842.591 1458.54 L847.267 1458.54 L847.267 1489.17 L854.905 1489.17 L854.905 1493.1 L834.998 1493.1 L834.998 1489.17 Z" fill="#000000" fill-rule="evenodd" fill-opacity="1" /><path clip-path="url(#clip240)" d="M 0 0 M869.975 1461.62 Q866.364 1461.62 864.535 1465.19 Q862.729 1468.73 862.729 1475.86 Q862.729 1482.97 864.535 1486.53 Q866.364 1490.07 869.975 1490.07 Q873.609 1490.07 875.415 1486.53 Q877.243 1482.97 877.243 1475.86 Q877.243 1468.73 875.415 1465.19 Q873.609 1461.62 869.975 1461.62 M869.975 1457.92 Q875.785 1457.92 878.84 1462.53 Q881.919 1467.11 881.919 1475.86 Q881.919 1484.59 878.84 1489.19 Q875.785 1493.78 869.975 1493.78 Q864.165 1493.78 861.086 1489.19 Q858.03 1484.59 858.03 1475.86 Q858.03 1467.11 861.086 1462.53 Q864.165 1457.92 869.975 1457.92 Z" fill="#000000" fill-rule="evenodd" fill-opacity="1" /><path clip-path="url(#clip240)" d="M 0 0 M881.919 1452.02 L906.031 1452.02 L906.031 1455.22 L881.919 1455.22 L881.919 1452.02 Z" fill="#000000" fill-rule="evenodd" fill-opacity="1" /><path clip-path="url(#clip240)" d="M 0 0 M910.187 1437.61 L925.102 1437.61 L925.102 1440.81 L913.667 1440.81 L913.667 1447.69 Q914.494 1447.41 915.322 1447.28 Q916.149 1447.13 916.977 1447.13 Q921.679 1447.13 924.425 1449.71 Q927.171 1452.28 927.171 1456.68 Q927.171 1461.22 924.349 1463.74 Q921.528 1466.24 916.394 1466.24 Q914.626 1466.24 912.783 1465.94 Q910.958 1465.64 909.002 1465.04 L909.002 1461.22 Q910.695 1462.14 912.501 1462.59 Q914.306 1463.04 916.319 1463.04 Q919.572 1463.04 921.472 1461.33 Q923.371 1459.62 923.371 1456.68 Q923.371 1453.75 921.472 1452.04 Q919.572 1450.33 916.319 1450.33 Q914.795 1450.33 913.272 1450.67 Q911.767 1451 910.187 1451.72 L910.187 1437.61 Z" fill="#000000" fill-rule="evenodd" fill-opacity="1" /><path clip-path="url(#clip240)" d="M 0 0 M931.29 1460.92 L935.258 1460.92 L935.258 1465.69 L931.29 1465.69 L931.29 1460.92 Z" fill="#000000" fill-rule="evenodd" fill-opacity="1" /><path clip-path="url(#clip240)" d="M 0 0 M942.649 1462.5 L955.909 1462.5 L955.909 1465.69 L938.079 1465.69 L938.079 1462.5 Q940.242 1460.26 943.966 1456.5 Q947.709 1452.72 948.668 1451.63 Q950.492 1449.58 951.207 1448.16 Q951.94 1446.74 951.94 1445.36 Q951.94 1443.12 950.361 1441.71 Q948.8 1440.3 946.279 1440.3 Q944.493 1440.3 942.499 1440.92 Q940.524 1441.54 938.267 1442.8 L938.267 1438.97 Q940.562 1438.05 942.555 1437.58 Q944.549 1437.11 946.204 1437.11 Q950.568 1437.11 953.163 1439.29 Q955.758 1441.47 955.758 1445.12 Q955.758 1446.85 955.1 1448.41 Q954.461 1449.95 952.749 1452.06 Q952.279 1452.6 949.759 1455.22 Q947.239 1457.81 942.649 1462.5 Z" fill="#000000" fill-rule="evenodd" fill-opacity="1" /><path clip-path="url(#clip240)" d="M 0 0 M1233.7 1489.17 L1241.34 1489.17 L1241.34 1462.8 L1233.03 1464.47 L1233.03 1460.21 L1241.29 1458.54 L1245.97 1458.54 L1245.97 1489.17 L1253.61 1489.17 L1253.61 1493.1 L1233.7 1493.1 L1233.7 1489.17 Z" fill="#000000" fill-rule="evenodd" fill-opacity="1" /><path clip-path="url(#clip240)" d="M 0 0 M1268.68 1461.62 Q1265.07 1461.62 1263.24 1465.19 Q1261.43 1468.73 1261.43 1475.86 Q1261.43 1482.97 1263.24 1486.53 Q1265.07 1490.07 1268.68 1490.07 Q1272.31 1490.07 1274.12 1486.53 Q1275.95 1482.97 1275.95 1475.86 Q1275.95 1468.73 1274.12 1465.19 Q1272.31 1461.62 1268.68 1461.62 M1268.68 1457.92 Q1274.49 1457.92 1277.54 1462.53 Q1280.62 1467.11 1280.62 1475.86 Q1280.62 1484.59 1277.54 1489.19 Q1274.49 1493.78 1268.68 1493.78 Q1262.87 1493.78 1259.79 1489.19 Q1256.73 1484.59 1256.73 1475.86 Q1256.73 1467.11 1259.79 1462.53 Q1262.87 1457.92 1268.68 1457.92 Z" fill="#000000" fill-rule="evenodd" fill-opacity="1" /><path clip-path="url(#clip240)" d="M 0 0 M1280.62 1452.02 L1304.73 1452.02 L1304.73 1455.22 L1280.62 1455.22 L1280.62 1452.02 Z" fill="#000000" fill-rule="evenodd" fill-opacity="1" /><path clip-path="url(#clip240)" d="M 0 0 M1308.89 1437.61 L1323.81 1437.61 L1323.81 1440.81 L1312.37 1440.81 L1312.37 1447.69 Q1313.2 1447.41 1314.03 1447.28 Q1314.85 1447.13 1315.68 1447.13 Q1320.38 1447.13 1323.13 1449.71 Q1325.87 1452.28 1325.87 1456.68 Q1325.87 1461.22 1323.05 1463.74 Q1320.23 1466.24 1315.1 1466.24 Q1313.33 1466.24 1311.49 1465.94 Q1309.66 1465.64 1307.71 1465.04 L1307.71 1461.22 Q1309.4 1462.14 1311.2 1462.59 Q1313.01 1463.04 1315.02 1463.04 Q1318.28 1463.04 1320.18 1461.33 Q1322.08 1459.62 1322.08 1456.68 Q1322.08 1453.75 1320.18 1452.04 Q1318.28 1450.33 1315.02 1450.33 Q1313.5 1450.33 1311.98 1450.67 Q1310.47 1451 1308.89 1451.72 L1308.89 1437.61 Z" fill="#000000" fill-rule="evenodd" fill-opacity="1" /><path clip-path="url(#clip240)" d="M 0 0 M1329.99 1460.92 L1333.96 1460.92 L1333.96 1465.69 L1329.99 1465.69 L1329.99 1460.92 Z" fill="#000000" fill-rule="evenodd" fill-opacity="1" /><path clip-path="url(#clip240)" d="M 0 0 M1346.21 1440.11 Q1343.27 1440.11 1341.79 1443.01 Q1340.32 1445.89 1340.32 1451.68 Q1340.32 1457.46 1341.79 1460.35 Q1343.27 1463.23 1346.21 1463.23 Q1349.16 1463.23 1350.63 1460.35 Q1352.11 1457.46 1352.11 1451.68 Q1352.11 1445.89 1350.63 1443.01 Q1349.16 1440.11 1346.21 1440.11 M1346.21 1437.11 Q1350.93 1437.11 1353.41 1440.85 Q1355.91 1444.57 1355.91 1451.68 Q1355.91 1458.77 1353.41 1462.51 Q1350.93 1466.24 1346.21 1466.24 Q1341.49 1466.24 1338.98 1462.51 Q1336.5 1458.77 1336.5 1451.68 Q1336.5 1444.57 1338.98 1440.85 Q1341.49 1437.11 1346.21 1437.11 Z" fill="#000000" fill-rule="evenodd" fill-opacity="1" /><path clip-path="url(#clip240)" d="M 0 0 M1632.49 1489.17 L1640.13 1489.17 L1640.13 1462.8 L1631.82 1464.47 L1631.82 1460.21 L1640.08 1458.54 L1644.76 1458.54 L1644.76 1489.17 L1652.4 1489.17 L1652.4 1493.1 L1632.49 1493.1 L1632.49 1489.17 Z" fill="#000000" fill-rule="evenodd" fill-opacity="1" /><path clip-path="url(#clip240)" d="M 0 0 M1667.47 1461.62 Q1663.86 1461.62 1662.03 1465.19 Q1660.22 1468.73 1660.22 1475.86 Q1660.22 1482.97 1662.03 1486.53 Q1663.86 1490.07 1667.47 1490.07 Q1671.1 1490.07 1672.91 1486.53 Q1674.74 1482.97 1674.74 1475.86 Q1674.74 1468.73 1672.91 1465.19 Q1671.1 1461.62 1667.47 1461.62 M1667.47 1457.92 Q1673.28 1457.92 1676.33 1462.53 Q1679.41 1467.11 1679.41 1475.86 Q1679.41 1484.59 1676.33 1489.19 Q1673.28 1493.78 1667.47 1493.78 Q1661.66 1493.78 1658.58 1489.19 Q1655.52 1484.59 1655.52 1475.86 Q1655.52 1467.11 1658.58 1462.53 Q1661.66 1457.92 1667.47 1457.92 Z" fill="#000000" fill-rule="evenodd" fill-opacity="1" /><path clip-path="url(#clip240)" d="M 0 0 M1679.41 1452.02 L1703.52 1452.02 L1703.52 1455.22 L1679.41 1455.22 L1679.41 1452.02 Z" fill="#000000" fill-rule="evenodd" fill-opacity="1" /><path clip-path="url(#clip240)" d="M 0 0 M1718.08 1440.92 L1708.49 1455.91 L1718.08 1455.91 L1718.08 1440.92 M1717.08 1437.61 L1721.86 1437.61 L1721.86 1455.91 L1725.87 1455.91 L1725.87 1459.07 L1721.86 1459.07 L1721.86 1465.69 L1718.08 1465.69 L1718.08 1459.07 L1705.4 1459.07 L1705.4 1455.41 L1717.08 1437.61 Z" fill="#000000" fill-rule="evenodd" fill-opacity="1" /><path clip-path="url(#clip240)" d="M 0 0 M1729.99 1460.92 L1733.95 1460.92 L1733.95 1465.69 L1729.99 1465.69 L1729.99 1460.92 Z" fill="#000000" fill-rule="evenodd" fill-opacity="1" /><path clip-path="url(#clip240)" d="M 0 0 M1746.2 1452.36 Q1743.49 1452.36 1741.93 1453.81 Q1740.39 1455.26 1740.39 1457.79 Q1740.39 1460.33 1741.93 1461.78 Q1743.49 1463.23 1746.2 1463.23 Q1748.91 1463.23 1750.47 1461.78 Q1752.03 1460.31 1752.03 1457.79 Q1752.03 1455.26 1750.47 1453.81 Q1748.93 1452.36 1746.2 1452.36 M1742.4 1450.74 Q1739.95 1450.14 1738.58 1448.47 Q1737.23 1446.79 1737.23 1444.38 Q1737.23 1441.02 1739.62 1439.06 Q1742.02 1437.11 1746.2 1437.11 Q1750.39 1437.11 1752.78 1439.06 Q1755.17 1441.02 1755.17 1444.38 Q1755.17 1446.79 1753.8 1448.47 Q1752.44 1450.14 1750.02 1450.74 Q1752.76 1451.38 1754.29 1453.24 Q1755.83 1455.1 1755.83 1457.79 Q1755.83 1461.88 1753.33 1464.06 Q1750.84 1466.24 1746.2 1466.24 Q1741.55 1466.24 1739.05 1464.06 Q1736.57 1461.88 1736.57 1457.79 Q1736.57 1455.1 1738.11 1453.24 Q1739.65 1451.38 1742.4 1450.74 M1741.01 1444.74 Q1741.01 1446.92 1742.36 1448.15 Q1743.73 1449.37 1746.2 1449.37 Q1748.64 1449.37 1750.02 1448.15 Q1751.41 1446.92 1751.41 1444.74 Q1751.41 1442.56 1750.02 1441.34 Q1748.64 1440.11 1746.2 1440.11 Q1743.73 1440.11 1742.36 1441.34 Q1741.01 1442.56 1741.01 1444.74 Z" fill="#000000" fill-rule="evenodd" fill-opacity="1" /><path clip-path="url(#clip240)" d="M 0 0 M2031.74 1489.17 L2039.38 1489.17 L2039.38 1462.8 L2031.07 1464.47 L2031.07 1460.21 L2039.33 1458.54 L2044.01 1458.54 L2044.01 1489.17 L2051.65 1489.17 L2051.65 1493.1 L2031.74 1493.1 L2031.74 1489.17 Z" fill="#000000" fill-rule="evenodd" fill-opacity="1" /><path clip-path="url(#clip240)" d="M 0 0 M2066.72 1461.62 Q2063.11 1461.62 2061.28 1465.19 Q2059.47 1468.73 2059.47 1475.86 Q2059.47 1482.97 2061.28 1486.53 Q2063.11 1490.07 2066.72 1490.07 Q2070.35 1490.07 2072.16 1486.53 Q2073.99 1482.97 2073.99 1475.86 Q2073.99 1468.73 2072.16 1465.19 Q2070.35 1461.62 2066.72 1461.62 M2066.72 1457.92 Q2072.53 1457.92 2075.58 1462.53 Q2078.66 1467.11 2078.66 1475.86 Q2078.66 1484.59 2075.58 1489.19 Q2072.53 1493.78 2066.72 1493.78 Q2060.91 1493.78 2057.83 1489.19 Q2054.77 1484.59 2054.77 1475.86 Q2054.77 1467.11 2057.83 1462.53 Q2060.91 1457.92 2066.72 1457.92 Z" fill="#000000" fill-rule="evenodd" fill-opacity="1" /><path clip-path="url(#clip240)" d="M 0 0 M2078.66 1452.02 L2102.77 1452.02 L2102.77 1455.22 L2078.66 1455.22 L2078.66 1452.02 Z" fill="#000000" fill-rule="evenodd" fill-opacity="1" /><path clip-path="url(#clip240)" d="M 0 0 M2117.33 1440.92 L2107.74 1455.91 L2117.33 1455.91 L2117.33 1440.92 M2116.33 1437.61 L2121.11 1437.61 L2121.11 1455.91 L2125.12 1455.91 L2125.12 1459.07 L2121.11 1459.07 L2121.11 1465.69 L2117.33 1465.69 L2117.33 1459.07 L2104.65 1459.07 L2104.65 1455.41 L2116.33 1437.61 Z" fill="#000000" fill-rule="evenodd" fill-opacity="1" /><path clip-path="url(#clip240)" d="M 0 0 M2129.24 1460.92 L2133.2 1460.92 L2133.2 1465.69 L2129.24 1465.69 L2129.24 1460.92 Z" fill="#000000" fill-rule="evenodd" fill-opacity="1" /><path clip-path="url(#clip240)" d="M 0 0 M2145.92 1450.14 Q2143.36 1450.14 2141.86 1451.89 Q2140.37 1453.64 2140.37 1456.68 Q2140.37 1459.71 2141.86 1461.48 Q2143.36 1463.23 2145.92 1463.23 Q2148.48 1463.23 2149.96 1461.48 Q2151.47 1459.71 2151.47 1456.68 Q2151.47 1453.64 2149.96 1451.89 Q2148.48 1450.14 2145.92 1450.14 M2153.46 1438.23 L2153.46 1441.69 Q2152.03 1441.02 2150.56 1440.66 Q2149.12 1440.3 2147.69 1440.3 Q2143.92 1440.3 2141.93 1442.84 Q2139.96 1445.38 2139.67 1450.52 Q2140.78 1448.88 2142.46 1448.01 Q2144.13 1447.13 2146.14 1447.13 Q2150.38 1447.13 2152.82 1449.71 Q2155.28 1452.26 2155.28 1456.68 Q2155.28 1461.01 2152.73 1463.62 Q2150.17 1466.24 2145.92 1466.24 Q2141.05 1466.24 2138.47 1462.51 Q2135.89 1458.77 2135.89 1451.68 Q2135.89 1445.02 2139.05 1441.07 Q2142.21 1437.11 2147.54 1437.11 Q2148.96 1437.11 2150.41 1437.39 Q2151.88 1437.67 2153.46 1438.23 Z" fill="#000000" fill-rule="evenodd" fill-opacity="1" /><path clip-path="url(#clip240)" d="M 0 0 M1225.99 1512.66 L1231.88 1512.66 L1231.88 1541.91 L1249.35 1526.54 L1256.83 1526.54 L1237.93 1543.22 L1257.63 1562.19 L1249.99 1562.19 L1231.88 1544.78 L1231.88 1562.19 L1225.99 1562.19 L1225.99 1512.66 Z" fill="#000000" fill-rule="evenodd" fill-opacity="1" /><path clip-path="url(#clip240)" d="M 0 0 M1290.86 1573.01 L1290.86 1577.56 L1256.99 1577.56 L1256.99 1573.01 L1290.86 1573.01 Z" fill="#000000" fill-rule="evenodd" fill-opacity="1" /><path clip-path="url(#clip240)" d="M 0 0 M1310.81 1530.64 Q1306.1 1530.64 1303.37 1534.34 Q1300.63 1538 1300.63 1544.39 Q1300.63 1550.79 1303.34 1554.48 Q1306.07 1558.14 1310.81 1558.14 Q1315.49 1558.14 1318.23 1554.45 Q1320.97 1550.76 1320.97 1544.39 Q1320.97 1538.06 1318.23 1534.37 Q1315.49 1530.64 1310.81 1530.64 M1310.81 1525.68 Q1318.45 1525.68 1322.81 1530.64 Q1327.17 1535.61 1327.17 1544.39 Q1327.17 1553.15 1322.81 1558.14 Q1318.45 1563.11 1310.81 1563.11 Q1303.14 1563.11 1298.78 1558.14 Q1294.45 1553.15 1294.45 1544.39 Q1294.45 1535.61 1298.78 1530.64 Q1303.14 1525.68 1310.81 1525.68 Z" fill="#000000" fill-rule="evenodd" fill-opacity="1" /><path clip-path="url(#clip240)" d="M 0 0 M1362.95 1540.67 L1362.95 1562.19 L1357.09 1562.19 L1357.09 1540.86 Q1357.09 1535.8 1355.12 1533.29 Q1353.15 1530.77 1349.2 1530.77 Q1344.46 1530.77 1341.72 1533.79 Q1338.98 1536.82 1338.98 1542.04 L1338.98 1562.19 L1333.09 1562.19 L1333.09 1526.54 L1338.98 1526.54 L1338.98 1532.08 Q1341.08 1528.86 1343.92 1527.27 Q1346.78 1525.68 1350.5 1525.68 Q1356.65 1525.68 1359.8 1529.5 Q1362.95 1533.29 1362.95 1540.67 Z" fill="#000000" fill-rule="evenodd" fill-opacity="1" /><polyline clip-path="url(#clip242)" style="stroke:#000000; stroke-width:2; stroke-opacity:0.1; fill:none" points="
  236.186,1339.11 2352.76,1339.11 
  "/>
<polyline clip-path="url(#clip242)" style="stroke:#000000; stroke-width:2; stroke-opacity:0.1; fill:none" points="
  236.186,1133.7 2352.76,1133.7 
  "/>
<polyline clip-path="url(#clip242)" style="stroke:#000000; stroke-width:2; stroke-opacity:0.1; fill:none" points="
  236.186,928.281 2352.76,928.281 
  "/>
<polyline clip-path="url(#clip242)" style="stroke:#000000; stroke-width:2; stroke-opacity:0.1; fill:none" points="
  236.186,722.865 2352.76,722.865 
  "/>
<polyline clip-path="url(#clip242)" style="stroke:#000000; stroke-width:2; stroke-opacity:0.1; fill:none" points="
  236.186,517.448 2352.76,517.448 
  "/>
<polyline clip-path="url(#clip242)" style="stroke:#000000; stroke-width:2; stroke-opacity:0.1; fill:none" points="
  236.186,312.032 2352.76,312.032 
  "/>
<polyline clip-path="url(#clip242)" style="stroke:#000000; stroke-width:2; stroke-opacity:0.1; fill:none" points="
  236.186,106.616 2352.76,106.616 
  "/>
<polyline clip-path="url(#clip240)" style="stroke:#000000; stroke-width:4; stroke-opacity:1; fill:none" points="
  236.186,1410.9 236.186,47.2441 
  "/>
<polyline clip-path="url(#clip240)" style="stroke:#000000; stroke-width:4; stroke-opacity:1; fill:none" points="
  236.186,1339.11 261.584,1339.11 
  "/>
<polyline clip-path="url(#clip240)" style="stroke:#000000; stroke-width:4; stroke-opacity:1; fill:none" points="
  236.186,1133.7 261.584,1133.7 
  "/>
<polyline clip-path="url(#clip240)" style="stroke:#000000; stroke-width:4; stroke-opacity:1; fill:none" points="
  236.186,928.281 261.584,928.281 
  "/>
<polyline clip-path="url(#clip240)" style="stroke:#000000; stroke-width:4; stroke-opacity:1; fill:none" points="
  236.186,722.865 261.584,722.865 
  "/>
<polyline clip-path="url(#clip240)" style="stroke:#000000; stroke-width:4; stroke-opacity:1; fill:none" points="
  236.186,517.448 261.584,517.448 
  "/>
<polyline clip-path="url(#clip240)" style="stroke:#000000; stroke-width:4; stroke-opacity:1; fill:none" points="
  236.186,312.032 261.584,312.032 
  "/>
<polyline clip-path="url(#clip240)" style="stroke:#000000; stroke-width:4; stroke-opacity:1; fill:none" points="
  236.186,106.616 261.584,106.616 
  "/>
<path clip-path="url(#clip240)" d="M 0 0 M118.89 1352.46 L126.529 1352.46 L126.529 1326.09 L118.218 1327.76 L118.218 1323.5 L126.482 1321.83 L131.158 1321.83 L131.158 1352.46 L138.797 1352.46 L138.797 1356.39 L118.89 1356.39 L118.89 1352.46 Z" fill="#000000" fill-rule="evenodd" fill-opacity="1" /><path clip-path="url(#clip240)" d="M 0 0 M147.894 1352.46 L164.214 1352.46 L164.214 1356.39 L142.269 1356.39 L142.269 1352.46 Q144.931 1349.7 149.515 1345.07 Q154.121 1340.42 155.302 1339.08 Q157.547 1336.56 158.427 1334.82 Q159.329 1333.06 159.329 1331.37 Q159.329 1328.62 157.385 1326.88 Q155.464 1325.14 152.362 1325.14 Q150.163 1325.14 147.709 1325.91 Q145.279 1326.67 142.501 1328.22 L142.501 1323.5 Q145.325 1322.37 147.778 1321.79 Q150.232 1321.21 152.269 1321.21 Q157.64 1321.21 160.834 1323.89 Q164.028 1326.58 164.028 1331.07 Q164.028 1333.2 163.218 1335.12 Q162.431 1337.02 160.325 1339.61 Q159.746 1340.28 156.644 1343.5 Q153.542 1346.69 147.894 1352.46 Z" fill="#000000" fill-rule="evenodd" fill-opacity="1" /><path clip-path="url(#clip240)" d="M 0 0 M169.283 1350.51 L174.167 1350.51 L174.167 1356.39 L169.283 1356.39 L169.283 1350.51 Z" fill="#000000" fill-rule="evenodd" fill-opacity="1" /><path clip-path="url(#clip240)" d="M 0 0 M179.283 1321.83 L197.639 1321.83 L197.639 1325.77 L183.565 1325.77 L183.565 1334.24 Q184.584 1333.89 185.602 1333.73 Q186.621 1333.55 187.639 1333.55 Q193.426 1333.55 196.806 1336.72 Q200.186 1339.89 200.186 1345.31 Q200.186 1350.88 196.713 1353.99 Q193.241 1357.06 186.922 1357.06 Q184.746 1357.06 182.477 1356.69 Q180.232 1356.32 177.825 1355.58 L177.825 1350.88 Q179.908 1352.02 182.13 1352.57 Q184.352 1353.13 186.829 1353.13 Q190.834 1353.13 193.172 1351.02 Q195.51 1348.92 195.51 1345.31 Q195.51 1341.69 193.172 1339.59 Q190.834 1337.48 186.829 1337.48 Q184.954 1337.48 183.079 1337.9 Q181.227 1338.31 179.283 1339.19 L179.283 1321.83 Z" fill="#000000" fill-rule="evenodd" fill-opacity="1" /><path clip-path="url(#clip240)" d="M 0 0 M117.293 1147.04 L124.931 1147.04 L124.931 1120.68 L116.621 1122.34 L116.621 1118.08 L124.885 1116.42 L129.561 1116.42 L129.561 1147.04 L137.2 1147.04 L137.2 1150.98 L117.293 1150.98 L117.293 1147.04 Z" fill="#000000" fill-rule="evenodd" fill-opacity="1" /><path clip-path="url(#clip240)" d="M 0 0 M142.316 1116.42 L160.672 1116.42 L160.672 1120.35 L146.598 1120.35 L146.598 1128.82 Q147.616 1128.48 148.635 1128.32 Q149.653 1128.13 150.672 1128.13 Q156.459 1128.13 159.839 1131.3 Q163.218 1134.47 163.218 1139.89 Q163.218 1145.47 159.746 1148.57 Q156.274 1151.65 149.954 1151.65 Q147.778 1151.65 145.51 1151.28 Q143.265 1150.91 140.857 1150.17 L140.857 1145.47 Q142.941 1146.6 145.163 1147.16 Q147.385 1147.71 149.862 1147.71 Q153.866 1147.71 156.204 1145.61 Q158.542 1143.5 158.542 1139.89 Q158.542 1136.28 156.204 1134.17 Q153.866 1132.07 149.862 1132.07 Q147.987 1132.07 146.112 1132.48 Q144.26 1132.9 142.316 1133.78 L142.316 1116.42 Z" fill="#000000" fill-rule="evenodd" fill-opacity="1" /><path clip-path="url(#clip240)" d="M 0 0 M168.288 1145.1 L173.172 1145.1 L173.172 1150.98 L168.288 1150.98 L168.288 1145.1 Z" fill="#000000" fill-rule="evenodd" fill-opacity="1" /><path clip-path="url(#clip240)" d="M 0 0 M188.241 1119.5 Q184.63 1119.5 182.801 1123.06 Q180.996 1126.6 180.996 1133.73 Q180.996 1140.84 182.801 1144.4 Q184.63 1147.94 188.241 1147.94 Q191.875 1147.94 193.681 1144.4 Q195.51 1140.84 195.51 1133.73 Q195.51 1126.6 193.681 1123.06 Q191.875 1119.5 188.241 1119.5 M188.241 1115.79 Q194.051 1115.79 197.107 1120.4 Q200.186 1124.98 200.186 1133.73 Q200.186 1142.46 197.107 1147.07 Q194.051 1151.65 188.241 1151.65 Q182.431 1151.65 179.352 1147.07 Q176.297 1142.46 176.297 1133.73 Q176.297 1124.98 179.352 1120.4 Q182.431 1115.79 188.241 1115.79 Z" fill="#000000" fill-rule="evenodd" fill-opacity="1" /><path clip-path="url(#clip240)" d="M 0 0 M118.195 941.626 L125.834 941.626 L125.834 915.26 L117.524 916.927 L117.524 912.668 L125.788 911.001 L130.464 911.001 L130.464 941.626 L138.103 941.626 L138.103 945.561 L118.195 945.561 L118.195 941.626 Z" fill="#000000" fill-rule="evenodd" fill-opacity="1" /><path clip-path="url(#clip240)" d="M 0 0 M141.991 911.001 L164.214 911.001 L164.214 912.992 L151.667 945.561 L146.783 945.561 L158.589 914.936 L141.991 914.936 L141.991 911.001 Z" fill="#000000" fill-rule="evenodd" fill-opacity="1" /><path clip-path="url(#clip240)" d="M 0 0 M169.283 939.681 L174.167 939.681 L174.167 945.561 L169.283 945.561 L169.283 939.681 Z" fill="#000000" fill-rule="evenodd" fill-opacity="1" /><path clip-path="url(#clip240)" d="M 0 0 M179.283 911.001 L197.639 911.001 L197.639 914.936 L183.565 914.936 L183.565 923.408 Q184.584 923.061 185.602 922.899 Q186.621 922.714 187.639 922.714 Q193.426 922.714 196.806 925.885 Q200.186 929.056 200.186 934.473 Q200.186 940.052 196.713 943.153 Q193.241 946.232 186.922 946.232 Q184.746 946.232 182.477 945.862 Q180.232 945.491 177.825 944.751 L177.825 940.052 Q179.908 941.186 182.13 941.741 Q184.352 942.297 186.829 942.297 Q190.834 942.297 193.172 940.191 Q195.51 938.084 195.51 934.473 Q195.51 930.862 193.172 928.755 Q190.834 926.649 186.829 926.649 Q184.954 926.649 183.079 927.066 Q181.227 927.482 179.283 928.362 L179.283 911.001 Z" fill="#000000" fill-rule="evenodd" fill-opacity="1" /><path clip-path="url(#clip240)" d="M 0 0 M119.885 736.209 L136.204 736.209 L136.204 740.145 L114.26 740.145 L114.26 736.209 Q116.922 733.455 121.505 728.825 Q126.112 724.172 127.292 722.83 Q129.538 720.307 130.417 718.571 Q131.32 716.811 131.32 715.122 Q131.32 712.367 129.376 710.631 Q127.455 708.895 124.353 708.895 Q122.154 708.895 119.7 709.659 Q117.269 710.422 114.492 711.973 L114.492 707.251 Q117.316 706.117 119.769 705.538 Q122.223 704.96 124.26 704.96 Q129.63 704.96 132.825 707.645 Q136.019 710.33 136.019 714.821 Q136.019 716.95 135.209 718.872 Q134.422 720.77 132.316 723.362 Q131.737 724.034 128.635 727.251 Q125.533 730.446 119.885 736.209 Z" fill="#000000" fill-rule="evenodd" fill-opacity="1" /><path clip-path="url(#clip240)" d="M 0 0 M151.274 708.663 Q147.663 708.663 145.834 712.228 Q144.029 715.77 144.029 722.899 Q144.029 730.006 145.834 733.571 Q147.663 737.112 151.274 737.112 Q154.908 737.112 156.714 733.571 Q158.542 730.006 158.542 722.899 Q158.542 715.77 156.714 712.228 Q154.908 708.663 151.274 708.663 M151.274 704.96 Q157.084 704.96 160.14 709.566 Q163.218 714.149 163.218 722.899 Q163.218 731.626 160.14 736.233 Q157.084 740.816 151.274 740.816 Q145.464 740.816 142.385 736.233 Q139.329 731.626 139.329 722.899 Q139.329 714.149 142.385 709.566 Q145.464 704.96 151.274 704.96 Z" fill="#000000" fill-rule="evenodd" fill-opacity="1" /><path clip-path="url(#clip240)" d="M 0 0 M168.288 734.265 L173.172 734.265 L173.172 740.145 L168.288 740.145 L168.288 734.265 Z" fill="#000000" fill-rule="evenodd" fill-opacity="1" /><path clip-path="url(#clip240)" d="M 0 0 M188.241 708.663 Q184.63 708.663 182.801 712.228 Q180.996 715.77 180.996 722.899 Q180.996 730.006 182.801 733.571 Q184.63 737.112 188.241 737.112 Q191.875 737.112 193.681 733.571 Q195.51 730.006 195.51 722.899 Q195.51 715.77 193.681 712.228 Q191.875 708.663 188.241 708.663 M188.241 704.96 Q194.051 704.96 197.107 709.566 Q200.186 714.149 200.186 722.899 Q200.186 731.626 197.107 736.233 Q194.051 740.816 188.241 740.816 Q182.431 740.816 179.352 736.233 Q176.297 731.626 176.297 722.899 Q176.297 714.149 179.352 709.566 Q182.431 704.96 188.241 704.96 Z" fill="#000000" fill-rule="evenodd" fill-opacity="1" /><path clip-path="url(#clip240)" d="M 0 0 M122.478 530.793 L138.797 530.793 L138.797 534.728 L116.853 534.728 L116.853 530.793 Q119.515 528.038 124.098 523.409 Q128.705 518.756 129.885 517.414 Q132.13 514.89 133.01 513.154 Q133.913 511.395 133.913 509.705 Q133.913 506.951 131.968 505.215 Q130.047 503.478 126.945 503.478 Q124.746 503.478 122.293 504.242 Q119.862 505.006 117.084 506.557 L117.084 501.835 Q119.908 500.701 122.362 500.122 Q124.816 499.543 126.853 499.543 Q132.223 499.543 135.417 502.228 Q138.612 504.914 138.612 509.404 Q138.612 511.534 137.802 513.455 Q137.015 515.353 134.908 517.946 Q134.329 518.617 131.228 521.835 Q128.126 525.029 122.478 530.793 Z" fill="#000000" fill-rule="evenodd" fill-opacity="1" /><path clip-path="url(#clip240)" d="M 0 0 M147.894 530.793 L164.214 530.793 L164.214 534.728 L142.269 534.728 L142.269 530.793 Q144.931 528.038 149.515 523.409 Q154.121 518.756 155.302 517.414 Q157.547 514.89 158.427 513.154 Q159.329 511.395 159.329 509.705 Q159.329 506.951 157.385 505.215 Q155.464 503.478 152.362 503.478 Q150.163 503.478 147.709 504.242 Q145.279 505.006 142.501 506.557 L142.501 501.835 Q145.325 500.701 147.778 500.122 Q150.232 499.543 152.269 499.543 Q157.64 499.543 160.834 502.228 Q164.028 504.914 164.028 509.404 Q164.028 511.534 163.218 513.455 Q162.431 515.353 160.325 517.946 Q159.746 518.617 156.644 521.835 Q153.542 525.029 147.894 530.793 Z" fill="#000000" fill-rule="evenodd" fill-opacity="1" /><path clip-path="url(#clip240)" d="M 0 0 M169.283 528.849 L174.167 528.849 L174.167 534.728 L169.283 534.728 L169.283 528.849 Z" fill="#000000" fill-rule="evenodd" fill-opacity="1" /><path clip-path="url(#clip240)" d="M 0 0 M179.283 500.168 L197.639 500.168 L197.639 504.103 L183.565 504.103 L183.565 512.576 Q184.584 512.228 185.602 512.066 Q186.621 511.881 187.639 511.881 Q193.426 511.881 196.806 515.052 Q200.186 518.224 200.186 523.64 Q200.186 529.219 196.713 532.321 Q193.241 535.4 186.922 535.4 Q184.746 535.4 182.477 535.029 Q180.232 534.659 177.825 533.918 L177.825 529.219 Q179.908 530.353 182.13 530.909 Q184.352 531.464 186.829 531.464 Q190.834 531.464 193.172 529.358 Q195.51 527.251 195.51 523.64 Q195.51 520.029 193.172 517.923 Q190.834 515.816 186.829 515.816 Q184.954 515.816 183.079 516.233 Q181.227 516.65 179.283 517.529 L179.283 500.168 Z" fill="#000000" fill-rule="evenodd" fill-opacity="1" /><path clip-path="url(#clip240)" d="M 0 0 M120.88 325.377 L137.2 325.377 L137.2 329.312 L115.256 329.312 L115.256 325.377 Q117.918 322.622 122.501 317.993 Q127.107 313.34 128.288 311.997 Q130.533 309.474 131.413 307.738 Q132.316 305.979 132.316 304.289 Q132.316 301.534 130.371 299.798 Q128.45 298.062 125.348 298.062 Q123.149 298.062 120.695 298.826 Q118.265 299.59 115.487 301.141 L115.487 296.419 Q118.311 295.284 120.765 294.706 Q123.218 294.127 125.255 294.127 Q130.626 294.127 133.82 296.812 Q137.015 299.497 137.015 303.988 Q137.015 306.118 136.204 308.039 Q135.417 309.937 133.311 312.53 Q132.732 313.201 129.63 316.419 Q126.529 319.613 120.88 325.377 Z" fill="#000000" fill-rule="evenodd" fill-opacity="1" /><path clip-path="url(#clip240)" d="M 0 0 M142.316 294.752 L160.672 294.752 L160.672 298.687 L146.598 298.687 L146.598 307.159 Q147.616 306.812 148.635 306.65 Q149.653 306.465 150.672 306.465 Q156.459 306.465 159.839 309.636 Q163.218 312.807 163.218 318.224 Q163.218 323.803 159.746 326.905 Q156.274 329.983 149.954 329.983 Q147.778 329.983 145.51 329.613 Q143.265 329.243 140.857 328.502 L140.857 323.803 Q142.941 324.937 145.163 325.493 Q147.385 326.048 149.862 326.048 Q153.866 326.048 156.204 323.942 Q158.542 321.835 158.542 318.224 Q158.542 314.613 156.204 312.507 Q153.866 310.4 149.862 310.4 Q147.987 310.4 146.112 310.817 Q144.26 311.233 142.316 312.113 L142.316 294.752 Z" fill="#000000" fill-rule="evenodd" fill-opacity="1" /><path clip-path="url(#clip240)" d="M 0 0 M168.288 323.432 L173.172 323.432 L173.172 329.312 L168.288 329.312 L168.288 323.432 Z" fill="#000000" fill-rule="evenodd" fill-opacity="1" /><path clip-path="url(#clip240)" d="M 0 0 M188.241 297.831 Q184.63 297.831 182.801 301.395 Q180.996 304.937 180.996 312.067 Q180.996 319.173 182.801 322.738 Q184.63 326.28 188.241 326.28 Q191.875 326.28 193.681 322.738 Q195.51 319.173 195.51 312.067 Q195.51 304.937 193.681 301.395 Q191.875 297.831 188.241 297.831 M188.241 294.127 Q194.051 294.127 197.107 298.733 Q200.186 303.317 200.186 312.067 Q200.186 320.794 197.107 325.4 Q194.051 329.983 188.241 329.983 Q182.431 329.983 179.352 325.4 Q176.297 320.794 176.297 312.067 Q176.297 303.317 179.352 298.733 Q182.431 294.127 188.241 294.127 Z" fill="#000000" fill-rule="evenodd" fill-opacity="1" /><path clip-path="url(#clip240)" d="M 0 0 M121.783 119.961 L138.103 119.961 L138.103 123.896 L116.158 123.896 L116.158 119.961 Q118.82 117.206 123.404 112.576 Q128.01 107.924 129.191 106.581 Q131.436 104.058 132.316 102.322 Q133.218 100.562 133.218 98.8727 Q133.218 96.1181 131.274 94.382 Q129.353 92.6459 126.251 92.6459 Q124.052 92.6459 121.598 93.4097 Q119.168 94.1736 116.39 95.7245 L116.39 91.0023 Q119.214 89.8681 121.668 89.2894 Q124.121 88.7107 126.158 88.7107 Q131.529 88.7107 134.723 91.3959 Q137.917 94.081 137.917 98.5717 Q137.917 100.701 137.107 102.623 Q136.32 104.521 134.214 107.113 Q133.635 107.785 130.533 111.002 Q127.431 114.197 121.783 119.961 Z" fill="#000000" fill-rule="evenodd" fill-opacity="1" /><path clip-path="url(#clip240)" d="M 0 0 M141.991 89.3357 L164.214 89.3357 L164.214 91.3264 L151.667 123.896 L146.783 123.896 L158.589 93.2708 L141.991 93.2708 L141.991 89.3357 Z" fill="#000000" fill-rule="evenodd" fill-opacity="1" /><path clip-path="url(#clip240)" d="M 0 0 M169.283 118.016 L174.167 118.016 L174.167 123.896 L169.283 123.896 L169.283 118.016 Z" fill="#000000" fill-rule="evenodd" fill-opacity="1" /><path clip-path="url(#clip240)" d="M 0 0 M179.283 89.3357 L197.639 89.3357 L197.639 93.2708 L183.565 93.2708 L183.565 101.743 Q184.584 101.396 185.602 101.234 Q186.621 101.049 187.639 101.049 Q193.426 101.049 196.806 104.22 Q200.186 107.391 200.186 112.808 Q200.186 118.386 196.713 121.488 Q193.241 124.567 186.922 124.567 Q184.746 124.567 182.477 124.197 Q180.232 123.826 177.825 123.086 L177.825 118.386 Q179.908 119.521 182.13 120.076 Q184.352 120.632 186.829 120.632 Q190.834 120.632 193.172 118.525 Q195.51 116.419 195.51 112.808 Q195.51 109.197 193.172 107.09 Q190.834 104.984 186.829 104.984 Q184.954 104.984 183.079 105.4 Q181.227 105.817 179.283 106.697 L179.283 89.3357 Z" fill="#000000" fill-rule="evenodd" fill-opacity="1" /><path clip-path="url(#clip240)" d="M 0 0 M59.1993 815.533 Q55.2526 813.336 53.3747 810.281 Q51.4968 807.225 51.4968 803.088 Q51.4968 797.518 55.4117 794.494 Q59.2948 791.47 66.4881 791.47 L88.0042 791.47 L88.0042 797.358 L66.679 797.358 Q61.5546 797.358 59.072 799.173 Q56.5894 800.987 56.5894 804.711 Q56.5894 809.262 59.6131 811.904 Q62.6368 814.546 67.8567 814.546 L88.0042 814.546 L88.0042 820.434 L66.679 820.434 Q61.5228 820.434 59.072 822.248 Q56.5894 824.063 56.5894 827.85 Q56.5894 832.338 59.6449 834.98 Q62.6686 837.622 67.8567 837.622 L88.0042 837.622 L88.0042 843.51 L52.3562 843.51 L52.3562 837.622 L57.8944 837.622 Q54.616 835.616 53.0564 832.815 Q51.4968 830.015 51.4968 826.163 Q51.4968 822.28 53.4702 819.575 Q55.4436 816.838 59.1993 815.533 Z" fill="#000000" fill-rule="evenodd" fill-opacity="1" /><path clip-path="url(#clip240)" d="M 0 0 M52.3562 785.327 L52.3562 779.471 L88.0042 779.471 L88.0042 785.327 L52.3562 785.327 M38.479 785.327 L38.479 779.471 L45.895 779.471 L45.895 785.327 L38.479 785.327 Z" fill="#000000" fill-rule="evenodd" fill-opacity="1" /><path clip-path="url(#clip240)" d="M 0 0 M66.4881 743.696 L88.0042 743.696 L88.0042 749.552 L66.679 749.552 Q61.6183 749.552 59.1038 751.525 Q56.5894 753.499 56.5894 757.446 Q56.5894 762.188 59.6131 764.925 Q62.6368 767.662 67.8567 767.662 L88.0042 767.662 L88.0042 773.551 L52.3562 773.551 L52.3562 767.662 L57.8944 767.662 Q54.6797 765.562 53.0883 762.729 Q51.4968 759.864 51.4968 756.141 Q51.4968 749.998 55.3163 746.847 Q59.1038 743.696 66.4881 743.696 Z" fill="#000000" fill-rule="evenodd" fill-opacity="1" /><path clip-path="url(#clip240)" d="M 0 0 M98.8259 710.467 L103.377 710.467 L103.377 744.332 L98.8259 744.332 L98.8259 710.467 Z" fill="#000000" fill-rule="evenodd" fill-opacity="1" /><path clip-path="url(#clip240)" d="M 0 0 M57.7671 680.866 L38.479 680.866 L38.479 675.01 L88.0042 675.01 L88.0042 680.866 L82.657 680.866 Q85.8398 682.712 87.3994 685.545 Q88.9272 688.346 88.9272 692.292 Q88.9272 698.754 83.771 702.828 Q78.6147 706.87 70.212 706.87 Q61.8093 706.87 56.6531 702.828 Q51.4968 698.754 51.4968 692.292 Q51.4968 688.346 53.0564 685.545 Q54.5842 682.712 57.7671 680.866 M70.212 700.823 Q76.6732 700.823 80.3653 698.181 Q84.0256 695.507 84.0256 690.86 Q84.0256 686.213 80.3653 683.54 Q76.6732 680.866 70.212 680.866 Q63.7508 680.866 60.0905 683.54 Q56.3984 686.213 56.3984 690.86 Q56.3984 695.507 60.0905 698.181 Q63.7508 700.823 70.212 700.823 Z" fill="#000000" fill-rule="evenodd" fill-opacity="1" /><path clip-path="url(#clip240)" d="M 0 0 M52.3562 668.867 L52.3562 663.01 L88.0042 663.01 L88.0042 668.867 L52.3562 668.867 M38.479 668.867 L38.479 663.01 L45.895 663.01 L45.895 668.867 L38.479 668.867 Z" fill="#000000" fill-rule="evenodd" fill-opacity="1" /><path clip-path="url(#clip240)" d="M 0 0 M38.479 638.821 L43.3487 638.821 L43.3487 644.422 Q43.3487 647.573 44.6219 648.815 Q45.895 650.024 49.2052 650.024 L52.3562 650.024 L52.3562 640.38 L56.9077 640.38 L56.9077 650.024 L88.0042 650.024 L88.0042 655.912 L56.9077 655.912 L56.9077 661.514 L52.3562 661.514 L52.3562 655.912 L49.8736 655.912 Q43.9216 655.912 41.2162 653.143 Q38.479 650.374 38.479 644.359 L38.479 638.821 Z" fill="#000000" fill-rule="evenodd" fill-opacity="1" /><path clip-path="url(#clip240)" d="M 0 0 M38.479 614.631 L43.3487 614.631 L43.3487 620.233 Q43.3487 623.384 44.6219 624.625 Q45.895 625.835 49.2052 625.835 L52.3562 625.835 L52.3562 616.19 L56.9077 616.19 L56.9077 625.835 L88.0042 625.835 L88.0042 631.723 L56.9077 631.723 L56.9077 637.325 L52.3562 637.325 L52.3562 631.723 L49.8736 631.723 Q43.9216 631.723 41.2162 628.954 Q38.479 626.185 38.479 620.169 L38.479 614.631 Z" fill="#000000" fill-rule="evenodd" fill-opacity="1" /><polyline clip-path="url(#clip242)" style="stroke:#009af9; stroke-width:20; stroke-opacity:1; fill:none" stroke-dasharray="80, 50" points="
  296.089,112.847 1294.47,1372.3 2292.85,85.838 
  "/>
<path clip-path="url(#clip240)" d="
M1996.01 213.659 L2282.2 213.659 L2282.2 92.6992 L1996.01 92.6992  Z
  " fill="#ffffff" fill-rule="evenodd" fill-opacity="1"/>
<polyline clip-path="url(#clip240)" style="stroke:#000000; stroke-width:4; stroke-opacity:1; fill:none" points="
  1996.01,213.659 2282.2,213.659 2282.2,92.6992 1996.01,92.6992 1996.01,213.659 
  "/>
<polyline clip-path="url(#clip240)" style="stroke:#009af9; stroke-width:4; stroke-opacity:1; fill:none" stroke-dasharray="16, 10" points="
  2019.53,153.179 2160.63,153.179 
  "/>
<path clip-path="url(#clip240)" d="M 0 0 M2197.99 172.867 Q2196.19 177.496 2194.47 178.908 Q2192.76 180.32 2189.89 180.32 L2186.49 180.32 L2186.49 176.755 L2188.99 176.755 Q2190.75 176.755 2191.72 175.922 Q2192.69 175.089 2193.87 171.987 L2194.64 170.043 L2184.15 144.533 L2188.66 144.533 L2196.77 164.811 L2204.87 144.533 L2209.38 144.533 L2197.99 172.867 Z" fill="#000000" fill-rule="evenodd" fill-opacity="1" /><path clip-path="url(#clip240)" d="M 0 0 M2215.26 166.524 L2222.9 166.524 L2222.9 140.158 L2214.59 141.825 L2214.59 137.566 L2222.85 135.899 L2227.53 135.899 L2227.53 166.524 L2235.17 166.524 L2235.17 170.459 L2215.26 170.459 L2215.26 166.524 Z" fill="#000000" fill-rule="evenodd" fill-opacity="1" /></svg>
