<?xml version="1.0" encoding="utf-8"?>
<svg xmlns="http://www.w3.org/2000/svg" xmlns:xlink="http://www.w3.org/1999/xlink" width="600" height="400" viewBox="0 0 2400 1600">
<defs>
  <clipPath id="clip920">
    <rect x="0" y="0" width="2400" height="1600"/>
  </clipPath>
</defs>
<path clip-path="url(#clip920)" d="
M0 1600 L2400 1600 L2400 0 L0 0  Z
  " fill="#ffffff" fill-rule="evenodd" fill-opacity="1"/>
<defs>
  <clipPath id="clip921">
    <rect x="480" y="0" width="1681" height="1600"/>
  </clipPath>
</defs>
<path clip-path="url(#clip920)" d="
M211.093 1410.9 L2352.76 1410.9 L2352.76 47.2441 L211.093 47.2441  Z
  " fill="#ffffff" fill-rule="evenodd" fill-opacity="1"/>
<defs>
  <clipPath id="clip922">
    <rect x="211" y="47" width="2143" height="1365"/>
  </clipPath>
</defs>
<polyline clip-path="url(#clip922)" style="stroke:#000000; stroke-width:2; stroke-opacity:0.1; fill:none" points="
  271.706,1410.9 271.706,47.2441 
  "/>
<polyline clip-path="url(#clip922)" style="stroke:#000000; stroke-width:2; stroke-opacity:0.1; fill:none" points="
  776.815,1410.9 776.815,47.2441 
  "/>
<polyline clip-path="url(#clip922)" style="stroke:#000000; stroke-width:2; stroke-opacity:0.1; fill:none" points="
  1281.92,1410.9 1281.92,47.2441 
  "/>
<polyline clip-path="url(#clip922)" style="stroke:#000000; stroke-width:2; stroke-opacity:0.1; fill:none" points="
  1787.03,1410.9 1787.03,47.2441 
  "/>
<polyline clip-path="url(#clip922)" style="stroke:#000000; stroke-width:2; stroke-opacity:0.1; fill:none" points="
  2292.14,1410.9 2292.14,47.2441 
  "/>
<polyline clip-path="url(#clip920)" style="stroke:#000000; stroke-width:4; stroke-opacity:1; fill:none" points="
  211.093,1410.9 2352.76,1410.9 
  "/>
<polyline clip-path="url(#clip920)" style="stroke:#000000; stroke-width:4; stroke-opacity:1; fill:none" points="
  271.706,1410.9 271.706,1394.53 
  "/>
<polyline clip-path="url(#clip920)" style="stroke:#000000; stroke-width:4; stroke-opacity:1; fill:none" points="
  776.815,1410.9 776.815,1394.53 
  "/>
<polyline clip-path="url(#clip920)" style="stroke:#000000; stroke-width:4; stroke-opacity:1; fill:none" points="
  1281.92,1410.9 1281.92,1394.53 
  "/>
<polyline clip-path="url(#clip920)" style="stroke:#000000; stroke-width:4; stroke-opacity:1; fill:none" points="
  1787.03,1410.9 1787.03,1394.53 
  "/>
<polyline clip-path="url(#clip920)" style="stroke:#000000; stroke-width:4; stroke-opacity:1; fill:none" points="
  2292.14,1410.9 2292.14,1394.53 
  "/>
<path clip-path="url(#clip920)" d="M 0 0 M210.797 1489.17 L218.435 1489.17 L218.435 1462.8 L210.125 1464.47 L210.125 1460.21 L218.389 1458.54 L223.065 1458.54 L223.065 1489.17 L230.704 1489.17 L230.704 1493.1 L210.797 1493.1 L210.797 1489.17 Z" fill="#000000" fill-rule="evenodd" fill-opacity="1" /><path clip-path="url(#clip920)" d="M 0 0 M245.773 1461.62 Q242.162 1461.62 240.333 1465.19 Q238.528 1468.73 238.528 1475.86 Q238.528 1482.97 240.333 1486.53 Q242.162 1490.07 245.773 1490.07 Q249.407 1490.07 251.213 1486.53 Q253.042 1482.97 253.042 1475.86 Q253.042 1468.73 251.213 1465.19 Q249.407 1461.62 245.773 1461.62 M245.773 1457.92 Q251.583 1457.92 254.639 1462.53 Q257.718 1467.11 257.718 1475.86 Q257.718 1484.59 254.639 1489.19 Q251.583 1493.78 245.773 1493.78 Q239.963 1493.78 236.884 1489.19 Q233.829 1484.59 233.829 1475.86 Q233.829 1467.11 236.884 1462.53 Q239.963 1457.92 245.773 1457.92 Z" fill="#000000" fill-rule="evenodd" fill-opacity="1" /><path clip-path="url(#clip920)" d="M 0 0 M257.718 1452.02 L281.829 1452.02 L281.829 1455.22 L257.718 1455.22 L257.718 1452.02 Z" fill="#000000" fill-rule="evenodd" fill-opacity="1" /><path clip-path="url(#clip920)" d="M 0 0 M297.458 1450.55 Q300.186 1451.14 301.709 1452.98 Q303.251 1454.82 303.251 1457.53 Q303.251 1461.69 300.392 1463.96 Q297.534 1466.24 292.267 1466.24 Q290.5 1466.24 288.619 1465.88 Q286.757 1465.54 284.763 1464.85 L284.763 1461.18 Q286.343 1462.1 288.224 1462.57 Q290.105 1463.04 292.155 1463.04 Q295.728 1463.04 297.59 1461.63 Q299.471 1460.22 299.471 1457.53 Q299.471 1455.05 297.722 1453.66 Q295.991 1452.25 292.888 1452.25 L289.616 1452.25 L289.616 1449.12 L293.039 1449.12 Q295.841 1449.12 297.327 1448.01 Q298.813 1446.89 298.813 1444.78 Q298.813 1442.62 297.27 1441.47 Q295.747 1440.3 292.888 1440.3 Q291.327 1440.3 289.54 1440.64 Q287.754 1440.98 285.61 1441.69 L285.61 1438.31 Q287.772 1437.71 289.653 1437.41 Q291.553 1437.11 293.227 1437.11 Q297.552 1437.11 300.073 1439.08 Q302.593 1441.04 302.593 1444.38 Q302.593 1446.72 301.258 1448.33 Q299.922 1449.93 297.458 1450.55 Z" fill="#000000" fill-rule="evenodd" fill-opacity="1" /><path clip-path="url(#clip920)" d="M 0 0 M307.37 1460.92 L311.339 1460.92 L311.339 1465.69 L307.37 1465.69 L307.37 1460.92 Z" fill="#000000" fill-rule="evenodd" fill-opacity="1" /><path clip-path="url(#clip920)" d="M 0 0 M323.582 1440.11 Q320.648 1440.11 319.163 1443.01 Q317.696 1445.89 317.696 1451.68 Q317.696 1457.46 319.163 1460.35 Q320.648 1463.23 323.582 1463.23 Q326.535 1463.23 328.002 1460.35 Q329.488 1457.46 329.488 1451.68 Q329.488 1445.89 328.002 1443.01 Q326.535 1440.11 323.582 1440.11 M323.582 1437.11 Q328.303 1437.11 330.786 1440.85 Q333.287 1444.57 333.287 1451.68 Q333.287 1458.77 330.786 1462.51 Q328.303 1466.24 323.582 1466.24 Q318.862 1466.24 316.36 1462.51 Q313.878 1458.77 313.878 1451.68 Q313.878 1444.57 316.36 1440.85 Q318.862 1437.11 323.582 1437.11 Z" fill="#000000" fill-rule="evenodd" fill-opacity="1" /><path clip-path="url(#clip920)" d="M 0 0 M716.696 1489.17 L724.334 1489.17 L724.334 1462.8 L716.024 1464.47 L716.024 1460.21 L724.288 1458.54 L728.964 1458.54 L728.964 1489.17 L736.603 1489.17 L736.603 1493.1 L716.696 1493.1 L716.696 1489.17 Z" fill="#000000" fill-rule="evenodd" fill-opacity="1" /><path clip-path="url(#clip920)" d="M 0 0 M751.672 1461.62 Q748.061 1461.62 746.233 1465.19 Q744.427 1468.73 744.427 1475.86 Q744.427 1482.97 746.233 1486.53 Q748.061 1490.07 751.672 1490.07 Q755.307 1490.07 757.112 1486.53 Q758.941 1482.97 758.941 1475.86 Q758.941 1468.73 757.112 1465.19 Q755.307 1461.62 751.672 1461.62 M751.672 1457.92 Q757.482 1457.92 760.538 1462.53 Q763.617 1467.11 763.617 1475.86 Q763.617 1484.59 760.538 1489.19 Q757.482 1493.78 751.672 1493.78 Q745.862 1493.78 742.783 1489.19 Q739.728 1484.59 739.728 1475.86 Q739.728 1467.11 742.783 1462.53 Q745.862 1457.92 751.672 1457.92 Z" fill="#000000" fill-rule="evenodd" fill-opacity="1" /><path clip-path="url(#clip920)" d="M 0 0 M763.617 1452.02 L787.728 1452.02 L787.728 1455.22 L763.617 1455.22 L763.617 1452.02 Z" fill="#000000" fill-rule="evenodd" fill-opacity="1" /><path clip-path="url(#clip920)" d="M 0 0 M795.12 1462.5 L808.379 1462.5 L808.379 1465.69 L790.549 1465.69 L790.549 1462.5 Q792.712 1460.26 796.436 1456.5 Q800.179 1452.72 801.138 1451.63 Q802.963 1449.58 803.677 1448.16 Q804.411 1446.74 804.411 1445.36 Q804.411 1443.12 802.831 1441.71 Q801.27 1440.3 798.75 1440.3 Q796.963 1440.3 794.969 1440.92 Q792.994 1441.54 790.737 1442.8 L790.737 1438.97 Q793.032 1438.05 795.026 1437.58 Q797.019 1437.11 798.674 1437.11 Q803.038 1437.11 805.633 1439.29 Q808.229 1441.47 808.229 1445.12 Q808.229 1446.85 807.57 1448.41 Q806.931 1449.95 805.219 1452.06 Q804.749 1452.6 802.229 1455.22 Q799.709 1457.81 795.12 1462.5 Z" fill="#000000" fill-rule="evenodd" fill-opacity="1" /><path clip-path="url(#clip920)" d="M 0 0 M812.498 1460.92 L816.467 1460.92 L816.467 1465.69 L812.498 1465.69 L812.498 1460.92 Z" fill="#000000" fill-rule="evenodd" fill-opacity="1" /><path clip-path="url(#clip920)" d="M 0 0 M820.623 1437.61 L835.538 1437.61 L835.538 1440.81 L824.102 1440.81 L824.102 1447.69 Q824.93 1447.41 825.758 1447.28 Q826.585 1447.13 827.413 1447.13 Q832.115 1447.13 834.861 1449.71 Q837.606 1452.28 837.606 1456.68 Q837.606 1461.22 834.785 1463.74 Q831.964 1466.24 826.83 1466.24 Q825.062 1466.24 823.219 1465.94 Q821.394 1465.64 819.438 1465.04 L819.438 1461.22 Q821.131 1462.14 822.936 1462.59 Q824.742 1463.04 826.754 1463.04 Q830.008 1463.04 831.908 1461.33 Q833.807 1459.62 833.807 1456.68 Q833.807 1453.75 831.908 1452.04 Q830.008 1450.33 826.754 1450.33 Q825.231 1450.33 823.708 1450.67 Q822.203 1451 820.623 1451.72 L820.623 1437.61 Z" fill="#000000" fill-rule="evenodd" fill-opacity="1" /><path clip-path="url(#clip920)" d="M 0 0 M1221.4 1489.17 L1229.04 1489.17 L1229.04 1462.8 L1220.73 1464.47 L1220.73 1460.21 L1228.99 1458.54 L1233.67 1458.54 L1233.67 1489.17 L1241.31 1489.17 L1241.31 1493.1 L1221.4 1493.1 L1221.4 1489.17 Z" fill="#000000" fill-rule="evenodd" fill-opacity="1" /><path clip-path="url(#clip920)" d="M 0 0 M1256.38 1461.62 Q1252.77 1461.62 1250.94 1465.19 Q1249.13 1468.73 1249.13 1475.86 Q1249.13 1482.97 1250.94 1486.53 Q1252.77 1490.07 1256.38 1490.07 Q1260.01 1490.07 1261.82 1486.53 Q1263.65 1482.97 1263.65 1475.86 Q1263.65 1468.73 1261.82 1465.19 Q1260.01 1461.62 1256.38 1461.62 M1256.38 1457.92 Q1262.19 1457.92 1265.24 1462.53 Q1268.32 1467.11 1268.32 1475.86 Q1268.32 1484.59 1265.24 1489.19 Q1262.19 1493.78 1256.38 1493.78 Q1250.57 1493.78 1247.49 1489.19 Q1244.43 1484.59 1244.43 1475.86 Q1244.43 1467.11 1247.49 1462.53 Q1250.57 1457.92 1256.38 1457.92 Z" fill="#000000" fill-rule="evenodd" fill-opacity="1" /><path clip-path="url(#clip920)" d="M 0 0 M1268.32 1452.02 L1292.43 1452.02 L1292.43 1455.22 L1268.32 1455.22 L1268.32 1452.02 Z" fill="#000000" fill-rule="evenodd" fill-opacity="1" /><path clip-path="url(#clip920)" d="M 0 0 M1299.82 1462.5 L1313.08 1462.5 L1313.08 1465.69 L1295.25 1465.69 L1295.25 1462.5 Q1297.42 1460.26 1301.14 1456.5 Q1304.88 1452.72 1305.84 1451.63 Q1307.67 1449.58 1308.38 1448.16 Q1309.12 1446.74 1309.12 1445.36 Q1309.12 1443.12 1307.54 1441.71 Q1305.97 1440.3 1303.45 1440.3 Q1301.67 1440.3 1299.67 1440.92 Q1297.7 1441.54 1295.44 1442.8 L1295.44 1438.97 Q1297.74 1438.05 1299.73 1437.58 Q1301.72 1437.11 1303.38 1437.11 Q1307.74 1437.11 1310.34 1439.29 Q1312.93 1441.47 1312.93 1445.12 Q1312.93 1446.85 1312.28 1448.41 Q1311.64 1449.95 1309.92 1452.06 Q1309.45 1452.6 1306.93 1455.22 Q1304.41 1457.81 1299.82 1462.5 Z" fill="#000000" fill-rule="evenodd" fill-opacity="1" /><path clip-path="url(#clip920)" d="M 0 0 M1317.2 1460.92 L1321.17 1460.92 L1321.17 1465.69 L1317.2 1465.69 L1317.2 1460.92 Z" fill="#000000" fill-rule="evenodd" fill-opacity="1" /><path clip-path="url(#clip920)" d="M 0 0 M1333.42 1440.11 Q1330.48 1440.11 1329 1443.01 Q1327.53 1445.89 1327.53 1451.68 Q1327.53 1457.46 1329 1460.35 Q1330.48 1463.23 1333.42 1463.23 Q1336.37 1463.23 1337.83 1460.35 Q1339.32 1457.46 1339.32 1451.68 Q1339.32 1445.89 1337.83 1443.01 Q1336.37 1440.11 1333.42 1440.11 M1333.42 1437.11 Q1338.14 1437.11 1340.62 1440.85 Q1343.12 1444.57 1343.12 1451.68 Q1343.12 1458.77 1340.62 1462.51 Q1338.14 1466.24 1333.42 1466.24 Q1328.69 1466.24 1326.19 1462.51 Q1323.71 1458.77 1323.71 1451.68 Q1323.71 1444.57 1326.19 1440.85 Q1328.69 1437.11 1333.42 1437.11 Z" fill="#000000" fill-rule="evenodd" fill-opacity="1" /><path clip-path="url(#clip920)" d="M 0 0 M1726.76 1489.17 L1734.4 1489.17 L1734.4 1462.8 L1726.09 1464.47 L1726.09 1460.21 L1734.36 1458.54 L1739.03 1458.54 L1739.03 1489.17 L1746.67 1489.17 L1746.67 1493.1 L1726.76 1493.1 L1726.76 1489.17 Z" fill="#000000" fill-rule="evenodd" fill-opacity="1" /><path clip-path="url(#clip920)" d="M 0 0 M1761.74 1461.62 Q1758.13 1461.62 1756.3 1465.19 Q1754.49 1468.73 1754.49 1475.86 Q1754.49 1482.97 1756.3 1486.53 Q1758.13 1490.07 1761.74 1490.07 Q1765.37 1490.07 1767.18 1486.53 Q1769.01 1482.97 1769.01 1475.86 Q1769.01 1468.73 1767.18 1465.19 Q1765.37 1461.62 1761.74 1461.62 M1761.74 1457.92 Q1767.55 1457.92 1770.61 1462.53 Q1773.68 1467.11 1773.68 1475.86 Q1773.68 1484.59 1770.61 1489.19 Q1767.55 1493.78 1761.74 1493.78 Q1755.93 1493.78 1752.85 1489.19 Q1749.8 1484.59 1749.8 1475.86 Q1749.8 1467.11 1752.85 1462.53 Q1755.93 1457.92 1761.74 1457.92 Z" fill="#000000" fill-rule="evenodd" fill-opacity="1" /><path clip-path="url(#clip920)" d="M 0 0 M1773.68 1452.02 L1797.8 1452.02 L1797.8 1455.22 L1773.68 1455.22 L1773.68 1452.02 Z" fill="#000000" fill-rule="evenodd" fill-opacity="1" /><path clip-path="url(#clip920)" d="M 0 0 M1802.57 1462.5 L1808.78 1462.5 L1808.78 1441.07 L1802.03 1442.43 L1802.03 1438.97 L1808.74 1437.61 L1812.54 1437.61 L1812.54 1462.5 L1818.75 1462.5 L1818.75 1465.69 L1802.57 1465.69 L1802.57 1462.5 Z" fill="#000000" fill-rule="evenodd" fill-opacity="1" /><path clip-path="url(#clip920)" d="M 0 0 M1822.87 1460.92 L1826.84 1460.92 L1826.84 1465.69 L1822.87 1465.69 L1822.87 1460.92 Z" fill="#000000" fill-rule="evenodd" fill-opacity="1" /><path clip-path="url(#clip920)" d="M 0 0 M1830.99 1437.61 L1845.91 1437.61 L1845.91 1440.81 L1834.47 1440.81 L1834.47 1447.69 Q1835.3 1447.41 1836.13 1447.28 Q1836.95 1447.13 1837.78 1447.13 Q1842.48 1447.13 1845.23 1449.71 Q1847.98 1452.28 1847.98 1456.68 Q1847.98 1461.22 1845.15 1463.74 Q1842.33 1466.24 1837.2 1466.24 Q1835.43 1466.24 1833.59 1465.94 Q1831.76 1465.64 1829.81 1465.04 L1829.81 1461.22 Q1831.5 1462.14 1833.31 1462.59 Q1835.11 1463.04 1837.12 1463.04 Q1840.38 1463.04 1842.28 1461.33 Q1844.18 1459.62 1844.18 1456.68 Q1844.18 1453.75 1842.28 1452.04 Q1840.38 1450.33 1837.12 1450.33 Q1835.6 1450.33 1834.08 1450.67 Q1832.57 1451 1830.99 1451.72 L1830.99 1437.61 Z" fill="#000000" fill-rule="evenodd" fill-opacity="1" /><path clip-path="url(#clip920)" d="M 0 0 M2231.47 1489.17 L2239.11 1489.17 L2239.11 1462.8 L2230.8 1464.47 L2230.8 1460.21 L2239.06 1458.54 L2243.74 1458.54 L2243.74 1489.17 L2251.38 1489.17 L2251.38 1493.1 L2231.47 1493.1 L2231.47 1489.17 Z" fill="#000000" fill-rule="evenodd" fill-opacity="1" /><path clip-path="url(#clip920)" d="M 0 0 M2266.44 1461.62 Q2262.83 1461.62 2261.01 1465.19 Q2259.2 1468.73 2259.2 1475.86 Q2259.2 1482.97 2261.01 1486.53 Q2262.83 1490.07 2266.44 1490.07 Q2270.08 1490.07 2271.88 1486.53 Q2273.71 1482.97 2273.71 1475.86 Q2273.71 1468.73 2271.88 1465.19 Q2270.08 1461.62 2266.44 1461.62 M2266.44 1457.92 Q2272.26 1457.92 2275.31 1462.53 Q2278.39 1467.11 2278.39 1475.86 Q2278.39 1484.59 2275.31 1489.19 Q2272.26 1493.78 2266.44 1493.78 Q2260.63 1493.78 2257.56 1489.19 Q2254.5 1484.59 2254.5 1475.86 Q2254.5 1467.11 2257.56 1462.53 Q2260.63 1457.92 2266.44 1457.92 Z" fill="#000000" fill-rule="evenodd" fill-opacity="1" /><path clip-path="url(#clip920)" d="M 0 0 M2278.39 1452.02 L2302.5 1452.02 L2302.5 1455.22 L2278.39 1455.22 L2278.39 1452.02 Z" fill="#000000" fill-rule="evenodd" fill-opacity="1" /><path clip-path="url(#clip920)" d="M 0 0 M2307.28 1462.5 L2313.48 1462.5 L2313.48 1441.07 L2306.73 1442.43 L2306.73 1438.97 L2313.45 1437.61 L2317.25 1437.61 L2317.25 1462.5 L2323.45 1462.5 L2323.45 1465.69 L2307.28 1465.69 L2307.28 1462.5 Z" fill="#000000" fill-rule="evenodd" fill-opacity="1" /><path clip-path="url(#clip920)" d="M 0 0 M2327.57 1460.92 L2331.54 1460.92 L2331.54 1465.69 L2327.57 1465.69 L2327.57 1460.92 Z" fill="#000000" fill-rule="evenodd" fill-opacity="1" /><path clip-path="url(#clip920)" d="M 0 0 M2343.78 1440.11 Q2340.85 1440.11 2339.36 1443.01 Q2337.9 1445.89 2337.9 1451.68 Q2337.9 1457.46 2339.36 1460.35 Q2340.85 1463.23 2343.78 1463.23 Q2346.74 1463.23 2348.2 1460.35 Q2349.69 1457.46 2349.69 1451.68 Q2349.69 1445.89 2348.2 1443.01 Q2346.74 1440.11 2343.78 1440.11 M2343.78 1437.11 Q2348.5 1437.11 2350.99 1440.85 Q2353.49 1444.57 2353.49 1451.68 Q2353.49 1458.77 2350.99 1462.51 Q2348.5 1466.24 2343.78 1466.24 Q2339.06 1466.24 2336.56 1462.51 Q2334.08 1458.77 2334.08 1451.68 Q2334.08 1444.57 2336.56 1440.85 Q2339.06 1437.11 2343.78 1437.11 Z" fill="#000000" fill-rule="evenodd" fill-opacity="1" /><path clip-path="url(#clip920)" d="M 0 0 M1174.69 1526.54 L1180.9 1526.54 L1192.04 1556.46 L1203.18 1526.54 L1209.39 1526.54 L1196.02 1562.19 L1188.06 1562.19 L1174.69 1526.54 Z" fill="#000000" fill-rule="evenodd" fill-opacity="1" /><path clip-path="url(#clip920)" d="M 0 0 M1242.62 1573.01 L1242.62 1577.56 L1208.75 1577.56 L1208.75 1573.01 L1242.62 1573.01 Z" fill="#000000" fill-rule="evenodd" fill-opacity="1" /><path clip-path="url(#clip920)" d="M 0 0 M1262.57 1530.64 Q1257.86 1530.64 1255.12 1534.34 Q1252.39 1538 1252.39 1544.39 Q1252.39 1550.79 1255.09 1554.48 Q1257.83 1558.14 1262.57 1558.14 Q1267.25 1558.14 1269.99 1554.45 Q1272.73 1550.76 1272.73 1544.39 Q1272.73 1538.06 1269.99 1534.37 Q1267.25 1530.64 1262.57 1530.64 M1262.57 1525.68 Q1270.21 1525.68 1274.57 1530.64 Q1278.93 1535.61 1278.93 1544.39 Q1278.93 1553.15 1274.57 1558.14 Q1270.21 1563.11 1262.57 1563.11 Q1254.9 1563.11 1250.54 1558.14 Q1246.21 1553.15 1246.21 1544.39 Q1246.21 1535.61 1250.54 1530.64 Q1254.9 1525.68 1262.57 1525.68 Z" fill="#000000" fill-rule="evenodd" fill-opacity="1" /><path clip-path="url(#clip920)" d="M 0 0 M1290.74 1556.84 L1290.74 1575.74 L1284.85 1575.74 L1284.85 1526.54 L1290.74 1526.54 L1290.74 1531.95 Q1292.59 1528.77 1295.39 1527.24 Q1298.22 1525.68 1302.14 1525.68 Q1308.63 1525.68 1312.67 1530.83 Q1316.74 1535.99 1316.74 1544.39 Q1316.74 1552.8 1312.67 1557.95 Q1308.63 1563.11 1302.14 1563.11 Q1298.22 1563.11 1295.39 1561.58 Q1292.59 1560.02 1290.74 1556.84 M1310.67 1544.39 Q1310.67 1537.93 1307.99 1534.27 Q1305.35 1530.58 1300.7 1530.58 Q1296.06 1530.58 1293.38 1534.27 Q1290.74 1537.93 1290.74 1544.39 Q1290.74 1550.85 1293.38 1554.55 Q1296.06 1558.21 1300.7 1558.21 Q1305.35 1558.21 1307.99 1554.55 Q1310.67 1550.85 1310.67 1544.39 Z" fill="#000000" fill-rule="evenodd" fill-opacity="1" /><path clip-path="url(#clip920)" d="M 0 0 M1353.38 1542.9 L1353.38 1545.76 L1326.45 1545.76 Q1326.83 1551.81 1330.08 1554.99 Q1333.36 1558.14 1339.18 1558.14 Q1342.56 1558.14 1345.71 1557.32 Q1348.89 1556.49 1352.01 1554.83 L1352.01 1560.37 Q1348.86 1561.71 1345.55 1562.41 Q1342.24 1563.11 1338.83 1563.11 Q1330.3 1563.11 1325.31 1558.14 Q1320.34 1553.18 1320.34 1544.71 Q1320.34 1535.96 1325.05 1530.83 Q1329.79 1525.68 1337.82 1525.68 Q1345.01 1525.68 1349.18 1530.33 Q1353.38 1534.94 1353.38 1542.9 M1347.52 1541.18 Q1347.46 1536.37 1344.82 1533.51 Q1342.21 1530.64 1337.88 1530.64 Q1332.98 1530.64 1330.02 1533.41 Q1327.09 1536.18 1326.64 1541.21 L1347.52 1541.18 Z" fill="#000000" fill-rule="evenodd" fill-opacity="1" /><path clip-path="url(#clip920)" d="M 0 0 M1389.15 1540.67 L1389.15 1562.19 L1383.3 1562.19 L1383.3 1540.86 Q1383.3 1535.8 1381.33 1533.29 Q1379.35 1530.77 1375.4 1530.77 Q1370.66 1530.77 1367.93 1533.79 Q1365.19 1536.82 1365.19 1542.04 L1365.19 1562.19 L1359.3 1562.19 L1359.3 1526.54 L1365.19 1526.54 L1365.19 1532.08 Q1367.29 1528.86 1370.12 1527.27 Q1372.99 1525.68 1376.71 1525.68 Q1382.85 1525.68 1386 1529.5 Q1389.15 1533.29 1389.15 1540.67 Z" fill="#000000" fill-rule="evenodd" fill-opacity="1" /><polyline clip-path="url(#clip922)" style="stroke:#000000; stroke-width:2; stroke-opacity:0.1; fill:none" points="
  211.093,1215.73 2352.76,1215.73 
  "/>
<polyline clip-path="url(#clip922)" style="stroke:#000000; stroke-width:2; stroke-opacity:0.1; fill:none" points="
  211.093,963.456 2352.76,963.456 
  "/>
<polyline clip-path="url(#clip922)" style="stroke:#000000; stroke-width:2; stroke-opacity:0.1; fill:none" points="
  211.093,711.183 2352.76,711.183 
  "/>
<polyline clip-path="url(#clip922)" style="stroke:#000000; stroke-width:2; stroke-opacity:0.1; fill:none" points="
  211.093,458.91 2352.76,458.91 
  "/>
<polyline clip-path="url(#clip922)" style="stroke:#000000; stroke-width:2; stroke-opacity:0.1; fill:none" points="
  211.093,206.637 2352.76,206.637 
  "/>
<polyline clip-path="url(#clip920)" style="stroke:#000000; stroke-width:4; stroke-opacity:1; fill:none" points="
  211.093,1410.9 211.093,47.2441 
  "/>
<polyline clip-path="url(#clip920)" style="stroke:#000000; stroke-width:4; stroke-opacity:1; fill:none" points="
  211.093,1215.73 236.793,1215.73 
  "/>
<polyline clip-path="url(#clip920)" style="stroke:#000000; stroke-width:4; stroke-opacity:1; fill:none" points="
  211.093,963.456 236.793,963.456 
  "/>
<polyline clip-path="url(#clip920)" style="stroke:#000000; stroke-width:4; stroke-opacity:1; fill:none" points="
  211.093,711.183 236.793,711.183 
  "/>
<polyline clip-path="url(#clip920)" style="stroke:#000000; stroke-width:4; stroke-opacity:1; fill:none" points="
  211.093,458.91 236.793,458.91 
  "/>
<polyline clip-path="url(#clip920)" style="stroke:#000000; stroke-width:4; stroke-opacity:1; fill:none" points="
  211.093,206.637 236.793,206.637 
  "/>
<path clip-path="url(#clip920)" d="M 0 0 M126.598 1213.86 Q123.45 1213.86 121.598 1216.02 Q119.769 1218.17 119.769 1221.92 Q119.769 1225.65 121.598 1227.82 Q123.45 1229.98 126.598 1229.98 Q129.746 1229.98 131.575 1227.82 Q133.427 1225.65 133.427 1221.92 Q133.427 1218.17 131.575 1216.02 Q129.746 1213.86 126.598 1213.86 M135.88 1199.21 L135.88 1203.47 Q134.121 1202.64 132.316 1202.2 Q130.533 1201.76 128.774 1201.76 Q124.144 1201.76 121.691 1204.88 Q119.26 1208.01 118.913 1214.33 Q120.279 1212.31 122.339 1211.25 Q124.399 1210.16 126.876 1210.16 Q132.084 1210.16 135.093 1213.33 Q138.126 1216.48 138.126 1221.92 Q138.126 1227.24 134.978 1230.46 Q131.83 1233.68 126.598 1233.68 Q120.603 1233.68 117.431 1229.1 Q114.26 1224.49 114.26 1215.76 Q114.26 1207.57 118.149 1202.71 Q122.038 1197.82 128.589 1197.82 Q130.348 1197.82 132.13 1198.17 Q133.936 1198.52 135.88 1199.21 Z" fill="#000000" fill-rule="evenodd" fill-opacity="1" /><path clip-path="url(#clip920)" d="M 0 0 M143.195 1227.13 L148.079 1227.13 L148.079 1233.01 L143.195 1233.01 L143.195 1227.13 Z" fill="#000000" fill-rule="evenodd" fill-opacity="1" /><path clip-path="url(#clip920)" d="M 0 0 M163.149 1201.53 Q159.538 1201.53 157.709 1205.09 Q155.903 1208.63 155.903 1215.76 Q155.903 1222.87 157.709 1226.43 Q159.538 1229.98 163.149 1229.98 Q166.783 1229.98 168.589 1226.43 Q170.417 1222.87 170.417 1215.76 Q170.417 1208.63 168.589 1205.09 Q166.783 1201.53 163.149 1201.53 M163.149 1197.82 Q168.959 1197.82 172.014 1202.43 Q175.093 1207.01 175.093 1215.76 Q175.093 1224.49 172.014 1229.1 Q168.959 1233.68 163.149 1233.68 Q157.339 1233.68 154.26 1229.1 Q151.204 1224.49 151.204 1215.76 Q151.204 1207.01 154.26 1202.43 Q157.339 1197.82 163.149 1197.82 Z" fill="#000000" fill-rule="evenodd" fill-opacity="1" /><path clip-path="url(#clip920)" d="M 0 0 M127.593 961.592 Q124.445 961.592 122.593 963.745 Q120.765 965.898 120.765 969.648 Q120.765 973.374 122.593 975.55 Q124.445 977.703 127.593 977.703 Q130.742 977.703 132.57 975.55 Q134.422 973.374 134.422 969.648 Q134.422 965.898 132.57 963.745 Q130.742 961.592 127.593 961.592 M136.876 946.939 L136.876 951.199 Q135.117 950.365 133.311 949.926 Q131.529 949.486 129.769 949.486 Q125.14 949.486 122.686 952.611 Q120.255 955.736 119.908 962.055 Q121.274 960.041 123.334 958.976 Q125.394 957.888 127.871 957.888 Q133.08 957.888 136.089 961.06 Q139.121 964.208 139.121 969.648 Q139.121 974.972 135.973 978.189 Q132.825 981.407 127.593 981.407 Q121.598 981.407 118.427 976.824 Q115.256 972.217 115.256 963.49 Q115.256 955.296 119.144 950.435 Q123.033 945.551 129.584 945.551 Q131.343 945.551 133.126 945.898 Q134.931 946.245 136.876 946.939 Z" fill="#000000" fill-rule="evenodd" fill-opacity="1" /><path clip-path="url(#clip920)" d="M 0 0 M144.191 974.856 L149.075 974.856 L149.075 980.736 L144.191 980.736 L144.191 974.856 Z" fill="#000000" fill-rule="evenodd" fill-opacity="1" /><path clip-path="url(#clip920)" d="M 0 0 M154.19 946.176 L172.547 946.176 L172.547 950.111 L158.473 950.111 L158.473 958.583 Q159.491 958.236 160.51 958.074 Q161.528 957.888 162.547 957.888 Q168.334 957.888 171.714 961.06 Q175.093 964.231 175.093 969.648 Q175.093 975.226 171.621 978.328 Q168.149 981.407 161.829 981.407 Q159.653 981.407 157.385 981.036 Q155.14 980.666 152.732 979.925 L152.732 975.226 Q154.815 976.361 157.038 976.916 Q159.26 977.472 161.737 977.472 Q165.741 977.472 168.079 975.365 Q170.417 973.259 170.417 969.648 Q170.417 966.037 168.079 963.93 Q165.741 961.824 161.737 961.824 Q159.862 961.824 157.987 962.24 Q156.135 962.657 154.19 963.537 L154.19 946.176 Z" fill="#000000" fill-rule="evenodd" fill-opacity="1" /><path clip-path="url(#clip920)" d="M 0 0 M115.904 693.903 L138.126 693.903 L138.126 695.894 L125.58 728.463 L120.695 728.463 L132.501 697.838 L115.904 697.838 L115.904 693.903 Z" fill="#000000" fill-rule="evenodd" fill-opacity="1" /><path clip-path="url(#clip920)" d="M 0 0 M143.195 722.583 L148.079 722.583 L148.079 728.463 L143.195 728.463 L143.195 722.583 Z" fill="#000000" fill-rule="evenodd" fill-opacity="1" /><path clip-path="url(#clip920)" d="M 0 0 M163.149 696.981 Q159.538 696.981 157.709 700.546 Q155.903 704.088 155.903 711.218 Q155.903 718.324 157.709 721.889 Q159.538 725.43 163.149 725.43 Q166.783 725.43 168.589 721.889 Q170.417 718.324 170.417 711.218 Q170.417 704.088 168.589 700.546 Q166.783 696.981 163.149 696.981 M163.149 693.278 Q168.959 693.278 172.014 697.884 Q175.093 702.468 175.093 711.218 Q175.093 719.944 172.014 724.551 Q168.959 729.134 163.149 729.134 Q157.339 729.134 154.26 724.551 Q151.204 719.944 151.204 711.218 Q151.204 702.468 154.26 697.884 Q157.339 693.278 163.149 693.278 Z" fill="#000000" fill-rule="evenodd" fill-opacity="1" /><path clip-path="url(#clip920)" d="M 0 0 M116.899 441.63 L139.121 441.63 L139.121 443.621 L126.575 476.19 L121.691 476.19 L133.496 445.565 L116.899 445.565 L116.899 441.63 Z" fill="#000000" fill-rule="evenodd" fill-opacity="1" /><path clip-path="url(#clip920)" d="M 0 0 M144.191 470.31 L149.075 470.31 L149.075 476.19 L144.191 476.19 L144.191 470.31 Z" fill="#000000" fill-rule="evenodd" fill-opacity="1" /><path clip-path="url(#clip920)" d="M 0 0 M154.19 441.63 L172.547 441.63 L172.547 445.565 L158.473 445.565 L158.473 454.037 Q159.491 453.69 160.51 453.528 Q161.528 453.343 162.547 453.343 Q168.334 453.343 171.714 456.514 Q175.093 459.685 175.093 465.102 Q175.093 470.681 171.621 473.783 Q168.149 476.861 161.829 476.861 Q159.653 476.861 157.385 476.491 Q155.14 476.121 152.732 475.38 L152.732 470.681 Q154.815 471.815 157.038 472.371 Q159.26 472.926 161.737 472.926 Q165.741 472.926 168.079 470.82 Q170.417 468.713 170.417 465.102 Q170.417 461.491 168.079 459.385 Q165.741 457.278 161.737 457.278 Q159.862 457.278 157.987 457.695 Q156.135 458.111 154.19 458.991 L154.19 441.63 Z" fill="#000000" fill-rule="evenodd" fill-opacity="1" /><path clip-path="url(#clip920)" d="M 0 0 M126.274 207.505 Q122.941 207.505 121.019 209.288 Q119.121 211.07 119.121 214.195 Q119.121 217.32 121.019 219.102 Q122.941 220.885 126.274 220.885 Q129.607 220.885 131.529 219.102 Q133.45 217.297 133.45 214.195 Q133.45 211.07 131.529 209.288 Q129.63 207.505 126.274 207.505 M121.598 205.515 Q118.589 204.774 116.899 202.714 Q115.232 200.653 115.232 197.691 Q115.232 193.547 118.172 191.14 Q121.135 188.732 126.274 188.732 Q131.436 188.732 134.376 191.14 Q137.316 193.547 137.316 197.691 Q137.316 200.653 135.626 202.714 Q133.959 204.774 130.973 205.515 Q134.353 206.302 136.228 208.593 Q138.126 210.885 138.126 214.195 Q138.126 219.218 135.047 221.903 Q131.992 224.589 126.274 224.589 Q120.556 224.589 117.478 221.903 Q114.422 219.218 114.422 214.195 Q114.422 210.885 116.32 208.593 Q118.218 206.302 121.598 205.515 M119.885 198.13 Q119.885 200.816 121.552 202.32 Q123.242 203.825 126.274 203.825 Q129.283 203.825 130.973 202.32 Q132.686 200.816 132.686 198.13 Q132.686 195.445 130.973 193.941 Q129.283 192.436 126.274 192.436 Q123.242 192.436 121.552 193.941 Q119.885 195.445 119.885 198.13 Z" fill="#000000" fill-rule="evenodd" fill-opacity="1" /><path clip-path="url(#clip920)" d="M 0 0 M143.195 218.038 L148.079 218.038 L148.079 223.917 L143.195 223.917 L143.195 218.038 Z" fill="#000000" fill-rule="evenodd" fill-opacity="1" /><path clip-path="url(#clip920)" d="M 0 0 M163.149 192.436 Q159.538 192.436 157.709 196.001 Q155.903 199.542 155.903 206.672 Q155.903 213.778 157.709 217.343 Q159.538 220.885 163.149 220.885 Q166.783 220.885 168.589 217.343 Q170.417 213.778 170.417 206.672 Q170.417 199.542 168.589 196.001 Q166.783 192.436 163.149 192.436 M163.149 188.732 Q168.959 188.732 172.014 193.339 Q175.093 197.922 175.093 206.672 Q175.093 215.399 172.014 220.005 Q168.959 224.589 163.149 224.589 Q157.339 224.589 154.26 220.005 Q151.204 215.399 151.204 206.672 Q151.204 197.922 154.26 193.339 Q157.339 188.732 163.149 188.732 Z" fill="#000000" fill-rule="evenodd" fill-opacity="1" /><path clip-path="url(#clip920)" d="M 0 0 M59.1993 815.533 Q55.2526 813.336 53.3747 810.281 Q51.4968 807.225 51.4968 803.088 Q51.4968 797.518 55.4117 794.494 Q59.2948 791.47 66.4881 791.47 L88.0042 791.47 L88.0042 797.358 L66.679 797.358 Q61.5546 797.358 59.072 799.173 Q56.5894 800.987 56.5894 804.711 Q56.5894 809.262 59.6131 811.904 Q62.6368 814.546 67.8567 814.546 L88.0042 814.546 L88.0042 820.434 L66.679 820.434 Q61.5228 820.434 59.072 822.248 Q56.5894 824.063 56.5894 827.85 Q56.5894 832.338 59.6449 834.98 Q62.6686 837.622 67.8567 837.622 L88.0042 837.622 L88.0042 843.51 L52.3562 843.51 L52.3562 837.622 L57.8944 837.622 Q54.616 835.616 53.0564 832.815 Q51.4968 830.015 51.4968 826.163 Q51.4968 822.28 53.4702 819.575 Q55.4436 816.838 59.1993 815.533 Z" fill="#000000" fill-rule="evenodd" fill-opacity="1" /><path clip-path="url(#clip920)" d="M 0 0 M52.3562 785.327 L52.3562 779.471 L88.0042 779.471 L88.0042 785.327 L52.3562 785.327 M38.479 785.327 L38.479 779.471 L45.895 779.471 L45.895 785.327 L38.479 785.327 Z" fill="#000000" fill-rule="evenodd" fill-opacity="1" /><path clip-path="url(#clip920)" d="M 0 0 M66.4881 743.696 L88.0042 743.696 L88.0042 749.552 L66.679 749.552 Q61.6183 749.552 59.1038 751.525 Q56.5894 753.499 56.5894 757.446 Q56.5894 762.188 59.6131 764.925 Q62.6368 767.662 67.8567 767.662 L88.0042 767.662 L88.0042 773.551 L52.3562 773.551 L52.3562 767.662 L57.8944 767.662 Q54.6797 765.562 53.0883 762.729 Q51.4968 759.864 51.4968 756.141 Q51.4968 749.998 55.3163 746.847 Q59.1038 743.696 66.4881 743.696 Z" fill="#000000" fill-rule="evenodd" fill-opacity="1" /><path clip-path="url(#clip920)" d="M 0 0 M98.8259 710.467 L103.377 710.467 L103.377 744.332 L98.8259 744.332 L98.8259 710.467 Z" fill="#000000" fill-rule="evenodd" fill-opacity="1" /><path clip-path="url(#clip920)" d="M 0 0 M57.7671 680.866 L38.479 680.866 L38.479 675.01 L88.0042 675.01 L88.0042 680.866 L82.657 680.866 Q85.8398 682.712 87.3994 685.545 Q88.9272 688.346 88.9272 692.292 Q88.9272 698.754 83.771 702.828 Q78.6147 706.87 70.212 706.87 Q61.8093 706.87 56.6531 702.828 Q51.4968 698.754 51.4968 692.292 Q51.4968 688.346 53.0564 685.545 Q54.5842 682.712 57.7671 680.866 M70.212 700.823 Q76.6732 700.823 80.3653 698.181 Q84.0256 695.507 84.0256 690.86 Q84.0256 686.213 80.3653 683.54 Q76.6732 680.866 70.212 680.866 Q63.7508 680.866 60.0905 683.54 Q56.3984 686.213 56.3984 690.86 Q56.3984 695.507 60.0905 698.181 Q63.7508 700.823 70.212 700.823 Z" fill="#000000" fill-rule="evenodd" fill-opacity="1" /><path clip-path="url(#clip920)" d="M 0 0 M52.3562 668.867 L52.3562 663.01 L88.0042 663.01 L88.0042 668.867 L52.3562 668.867 M38.479 668.867 L38.479 663.01 L45.895 663.01 L45.895 668.867 L38.479 668.867 Z" fill="#000000" fill-rule="evenodd" fill-opacity="1" /><path clip-path="url(#clip920)" d="M 0 0 M38.479 638.821 L43.3487 638.821 L43.3487 644.422 Q43.3487 647.573 44.6219 648.815 Q45.895 650.024 49.2052 650.024 L52.3562 650.024 L52.3562 640.38 L56.9077 640.38 L56.9077 650.024 L88.0042 650.024 L88.0042 655.912 L56.9077 655.912 L56.9077 661.514 L52.3562 661.514 L52.3562 655.912 L49.8736 655.912 Q43.9216 655.912 41.2162 653.143 Q38.479 650.374 38.479 644.359 L38.479 638.821 Z" fill="#000000" fill-rule="evenodd" fill-opacity="1" /><path clip-path="url(#clip920)" d="M 0 0 M38.479 614.631 L43.3487 614.631 L43.3487 620.233 Q43.3487 623.384 44.6219 624.625 Q45.895 625.835 49.2052 625.835 L52.3562 625.835 L52.3562 616.19 L56.9077 616.19 L56.9077 625.835 L88.0042 625.835 L88.0042 631.723 L56.9077 631.723 L56.9077 637.325 L52.3562 637.325 L52.3562 631.723 L49.8736 631.723 Q43.9216 631.723 41.2162 628.954 Q38.479 626.185 38.479 620.169 L38.479 614.631 Z" fill="#000000" fill-rule="evenodd" fill-opacity="1" /><polyline clip-path="url(#clip922)" style="stroke:#009af9; stroke-width:20; stroke-opacity:1; fill:none" stroke-dasharray="80, 50" points="
  271.706,1372.3 1281.92,85.838 2292.14,494.14 
  "/>
<path clip-path="url(#clip920)" d="
M1992.39 213.659 L2281.37 213.659 L2281.37 92.6992 L1992.39 92.6992  Z
  " fill="#ffffff" fill-rule="evenodd" fill-opacity="1"/>
<polyline clip-path="url(#clip920)" style="stroke:#000000; stroke-width:4; stroke-opacity:1; fill:none" points="
  1992.39,213.659 2281.37,213.659 2281.37,92.6992 1992.39,92.6992 1992.39,213.659 
  "/>
<polyline clip-path="url(#clip920)" style="stroke:#009af9; stroke-width:4; stroke-opacity:1; fill:none" stroke-dasharray="16, 10" points="
  2016.18,153.179 2158.96,153.179 
  "/>
<path clip-path="url(#clip920)" d="M 0 0 M2196.6 172.867 Q2194.79 177.496 2193.08 178.908 Q2191.37 180.32 2188.5 180.32 L2185.09 180.32 L2185.09 176.755 L2187.59 176.755 Q2189.35 176.755 2190.33 175.922 Q2191.3 175.089 2192.48 171.987 L2193.24 170.043 L2182.76 144.533 L2187.27 144.533 L2195.37 164.811 L2203.47 144.533 L2207.99 144.533 L2196.6 172.867 Z" fill="#000000" fill-rule="evenodd" fill-opacity="1" /><path clip-path="url(#clip920)" d="M 0 0 M2213.87 166.524 L2221.51 166.524 L2221.51 140.158 L2213.2 141.825 L2213.2 137.566 L2221.46 135.899 L2226.14 135.899 L2226.14 166.524 L2233.77 166.524 L2233.77 170.459 L2213.87 170.459 L2213.87 166.524 Z" fill="#000000" fill-rule="evenodd" fill-opacity="1" /></svg>
