<?xml version="1.0" encoding="utf-8"?>
<svg xmlns="http://www.w3.org/2000/svg" xmlns:xlink="http://www.w3.org/1999/xlink" width="600" height="400" viewBox="0 0 2400 1600">
<defs>
  <clipPath id="clip550">
    <rect x="0" y="0" width="2400" height="1600"/>
  </clipPath>
</defs>
<path clip-path="url(#clip550)" d="
M0 1600 L2400 1600 L2400 0 L0 0  Z
  " fill="#ffffff" fill-rule="evenodd" fill-opacity="1"/>
<defs>
  <clipPath id="clip551">
    <rect x="480" y="0" width="1681" height="1600"/>
  </clipPath>
</defs>
<path clip-path="url(#clip550)" d="
M210.075 1410.9 L2352.76 1410.9 L2352.76 47.2441 L210.075 47.2441  Z
  " fill="#ffffff" fill-rule="evenodd" fill-opacity="1"/>
<defs>
  <clipPath id="clip552">
    <rect x="210" y="47" width="2144" height="1365"/>
  </clipPath>
</defs>
<polyline clip-path="url(#clip552)" style="stroke:#000000; stroke-width:2; stroke-opacity:0.1; fill:none" points="
  270.717,1410.9 270.717,47.2441 
  "/>
<polyline clip-path="url(#clip552)" style="stroke:#000000; stroke-width:2; stroke-opacity:0.1; fill:none" points="
  776.066,1410.9 776.066,47.2441 
  "/>
<polyline clip-path="url(#clip552)" style="stroke:#000000; stroke-width:2; stroke-opacity:0.1; fill:none" points="
  1281.42,1410.9 1281.42,47.2441 
  "/>
<polyline clip-path="url(#clip552)" style="stroke:#000000; stroke-width:2; stroke-opacity:0.1; fill:none" points="
  1786.76,1410.9 1786.76,47.2441 
  "/>
<polyline clip-path="url(#clip552)" style="stroke:#000000; stroke-width:2; stroke-opacity:0.1; fill:none" points="
  2292.11,1410.9 2292.11,47.2441 
  "/>
<polyline clip-path="url(#clip550)" style="stroke:#000000; stroke-width:4; stroke-opacity:1; fill:none" points="
  210.075,1410.9 2352.76,1410.9 
  "/>
<polyline clip-path="url(#clip550)" style="stroke:#000000; stroke-width:4; stroke-opacity:1; fill:none" points="
  270.717,1410.9 270.717,1394.53 
  "/>
<polyline clip-path="url(#clip550)" style="stroke:#000000; stroke-width:4; stroke-opacity:1; fill:none" points="
  776.066,1410.9 776.066,1394.53 
  "/>
<polyline clip-path="url(#clip550)" style="stroke:#000000; stroke-width:4; stroke-opacity:1; fill:none" points="
  1281.42,1410.9 1281.42,1394.53 
  "/>
<polyline clip-path="url(#clip550)" style="stroke:#000000; stroke-width:4; stroke-opacity:1; fill:none" points="
  1786.76,1410.9 1786.76,1394.53 
  "/>
<polyline clip-path="url(#clip550)" style="stroke:#000000; stroke-width:4; stroke-opacity:1; fill:none" points="
  2292.11,1410.9 2292.11,1394.53 
  "/>
<path clip-path="url(#clip550)" d="M 0 0 M209.948 1489.17 L217.587 1489.17 L217.587 1462.8 L209.277 1464.47 L209.277 1460.21 L217.54 1458.54 L222.216 1458.54 L222.216 1489.17 L229.855 1489.17 L229.855 1493.1 L209.948 1493.1 L209.948 1489.17 Z" fill="#000000" fill-rule="evenodd" fill-opacity="1" /><path clip-path="url(#clip550)" d="M 0 0 M244.925 1461.62 Q241.314 1461.62 239.485 1465.19 Q237.679 1468.73 237.679 1475.86 Q237.679 1482.97 239.485 1486.53 Q241.314 1490.07 244.925 1490.07 Q248.559 1490.07 250.364 1486.53 Q252.193 1482.97 252.193 1475.86 Q252.193 1468.73 250.364 1465.19 Q248.559 1461.62 244.925 1461.62 M244.925 1457.92 Q250.735 1457.92 253.79 1462.53 Q256.869 1467.11 256.869 1475.86 Q256.869 1484.59 253.79 1489.19 Q250.735 1493.78 244.925 1493.78 Q239.114 1493.78 236.036 1489.19 Q232.98 1484.59 232.98 1475.86 Q232.98 1467.11 236.036 1462.53 Q239.114 1457.92 244.925 1457.92 Z" fill="#000000" fill-rule="evenodd" fill-opacity="1" /><path clip-path="url(#clip550)" d="M 0 0 M256.869 1452.02 L280.981 1452.02 L280.981 1455.22 L256.869 1455.22 L256.869 1452.02 Z" fill="#000000" fill-rule="evenodd" fill-opacity="1" /><path clip-path="url(#clip550)" d="M 0 0 M285.137 1437.61 L300.052 1437.61 L300.052 1440.81 L288.617 1440.81 L288.617 1447.69 Q289.444 1447.41 290.272 1447.28 Q291.099 1447.13 291.927 1447.13 Q296.629 1447.13 299.375 1449.71 Q302.12 1452.28 302.12 1456.68 Q302.12 1461.22 299.299 1463.74 Q296.478 1466.24 291.344 1466.24 Q289.576 1466.24 287.733 1465.94 Q285.908 1465.64 283.952 1465.04 L283.952 1461.22 Q285.645 1462.14 287.45 1462.59 Q289.256 1463.04 291.268 1463.04 Q294.522 1463.04 296.422 1461.33 Q298.321 1459.62 298.321 1456.68 Q298.321 1453.75 296.422 1452.04 Q294.522 1450.33 291.268 1450.33 Q289.745 1450.33 288.222 1450.67 Q286.717 1451 285.137 1451.72 L285.137 1437.61 Z" fill="#000000" fill-rule="evenodd" fill-opacity="1" /><path clip-path="url(#clip550)" d="M 0 0 M306.239 1460.92 L310.208 1460.92 L310.208 1465.69 L306.239 1465.69 L306.239 1460.92 Z" fill="#000000" fill-rule="evenodd" fill-opacity="1" /><path clip-path="url(#clip550)" d="M 0 0 M322.452 1440.11 Q319.518 1440.11 318.032 1443.01 Q316.565 1445.89 316.565 1451.68 Q316.565 1457.46 318.032 1460.35 Q319.518 1463.23 322.452 1463.23 Q325.405 1463.23 326.872 1460.35 Q328.357 1457.46 328.357 1451.68 Q328.357 1445.89 326.872 1443.01 Q325.405 1440.11 322.452 1440.11 M322.452 1437.11 Q327.172 1437.11 329.655 1440.85 Q332.156 1444.57 332.156 1451.68 Q332.156 1458.77 329.655 1462.51 Q327.172 1466.24 322.452 1466.24 Q317.731 1466.24 315.23 1462.51 Q312.747 1458.77 312.747 1451.68 Q312.747 1444.57 315.23 1440.85 Q317.731 1437.11 322.452 1437.11 Z" fill="#000000" fill-rule="evenodd" fill-opacity="1" /><path clip-path="url(#clip550)" d="M 0 0 M715.1 1489.17 L722.739 1489.17 L722.739 1462.8 L714.429 1464.47 L714.429 1460.21 L722.692 1458.54 L727.368 1458.54 L727.368 1489.17 L735.007 1489.17 L735.007 1493.1 L715.1 1493.1 L715.1 1489.17 Z" fill="#000000" fill-rule="evenodd" fill-opacity="1" /><path clip-path="url(#clip550)" d="M 0 0 M750.076 1461.62 Q746.465 1461.62 744.637 1465.19 Q742.831 1468.73 742.831 1475.86 Q742.831 1482.97 744.637 1486.53 Q746.465 1490.07 750.076 1490.07 Q753.711 1490.07 755.516 1486.53 Q757.345 1482.97 757.345 1475.86 Q757.345 1468.73 755.516 1465.19 Q753.711 1461.62 750.076 1461.62 M750.076 1457.92 Q755.887 1457.92 758.942 1462.53 Q762.021 1467.11 762.021 1475.86 Q762.021 1484.59 758.942 1489.19 Q755.887 1493.78 750.076 1493.78 Q744.266 1493.78 741.188 1489.19 Q738.132 1484.59 738.132 1475.86 Q738.132 1467.11 741.188 1462.53 Q744.266 1457.92 750.076 1457.92 Z" fill="#000000" fill-rule="evenodd" fill-opacity="1" /><path clip-path="url(#clip550)" d="M 0 0 M762.021 1452.02 L786.132 1452.02 L786.132 1455.22 L762.021 1455.22 L762.021 1452.02 Z" fill="#000000" fill-rule="evenodd" fill-opacity="1" /><path clip-path="url(#clip550)" d="M 0 0 M800.69 1440.92 L791.098 1455.91 L800.69 1455.91 L800.69 1440.92 M799.693 1437.61 L804.47 1437.61 L804.47 1455.91 L808.476 1455.91 L808.476 1459.07 L804.47 1459.07 L804.47 1465.69 L800.69 1465.69 L800.69 1459.07 L788.013 1459.07 L788.013 1455.41 L799.693 1437.61 Z" fill="#000000" fill-rule="evenodd" fill-opacity="1" /><path clip-path="url(#clip550)" d="M 0 0 M812.595 1460.92 L816.563 1460.92 L816.563 1465.69 L812.595 1465.69 L812.595 1460.92 Z" fill="#000000" fill-rule="evenodd" fill-opacity="1" /><path clip-path="url(#clip550)" d="M 0 0 M820.72 1437.61 L835.634 1437.61 L835.634 1440.81 L824.199 1440.81 L824.199 1447.69 Q825.027 1447.41 825.854 1447.28 Q826.682 1447.13 827.51 1447.13 Q832.211 1447.13 834.957 1449.71 Q837.703 1452.28 837.703 1456.68 Q837.703 1461.22 834.882 1463.74 Q832.061 1466.24 826.926 1466.24 Q825.159 1466.24 823.315 1465.94 Q821.491 1465.64 819.535 1465.04 L819.535 1461.22 Q821.228 1462.14 823.033 1462.59 Q824.839 1463.04 826.851 1463.04 Q830.105 1463.04 832.005 1461.33 Q833.904 1459.62 833.904 1456.68 Q833.904 1453.75 832.005 1452.04 Q830.105 1450.33 826.851 1450.33 Q825.328 1450.33 823.804 1450.67 Q822.3 1451 820.72 1451.72 L820.72 1437.61 Z" fill="#000000" fill-rule="evenodd" fill-opacity="1" /><path clip-path="url(#clip550)" d="M 0 0 M1220.04 1489.17 L1227.68 1489.17 L1227.68 1462.8 L1219.37 1464.47 L1219.37 1460.21 L1227.64 1458.54 L1232.31 1458.54 L1232.31 1489.17 L1239.95 1489.17 L1239.95 1493.1 L1220.04 1493.1 L1220.04 1489.17 Z" fill="#000000" fill-rule="evenodd" fill-opacity="1" /><path clip-path="url(#clip550)" d="M 0 0 M1255.02 1461.62 Q1251.41 1461.62 1249.58 1465.19 Q1247.78 1468.73 1247.78 1475.86 Q1247.78 1482.97 1249.58 1486.53 Q1251.41 1490.07 1255.02 1490.07 Q1258.66 1490.07 1260.46 1486.53 Q1262.29 1482.97 1262.29 1475.86 Q1262.29 1468.73 1260.46 1465.19 Q1258.66 1461.62 1255.02 1461.62 M1255.02 1457.92 Q1260.83 1457.92 1263.89 1462.53 Q1266.97 1467.11 1266.97 1475.86 Q1266.97 1484.59 1263.89 1489.19 Q1260.83 1493.78 1255.02 1493.78 Q1249.21 1493.78 1246.13 1489.19 Q1243.08 1484.59 1243.08 1475.86 Q1243.08 1467.11 1246.13 1462.53 Q1249.21 1457.92 1255.02 1457.92 Z" fill="#000000" fill-rule="evenodd" fill-opacity="1" /><path clip-path="url(#clip550)" d="M 0 0 M1266.97 1452.02 L1291.08 1452.02 L1291.08 1455.22 L1266.97 1455.22 L1266.97 1452.02 Z" fill="#000000" fill-rule="evenodd" fill-opacity="1" /><path clip-path="url(#clip550)" d="M 0 0 M1305.63 1440.92 L1296.04 1455.91 L1305.63 1455.91 L1305.63 1440.92 M1304.64 1437.61 L1309.41 1437.61 L1309.41 1455.91 L1313.42 1455.91 L1313.42 1459.07 L1309.41 1459.07 L1309.41 1465.69 L1305.63 1465.69 L1305.63 1459.07 L1292.96 1459.07 L1292.96 1455.41 L1304.64 1437.61 Z" fill="#000000" fill-rule="evenodd" fill-opacity="1" /><path clip-path="url(#clip550)" d="M 0 0 M1317.54 1460.92 L1321.51 1460.92 L1321.51 1465.69 L1317.54 1465.69 L1317.54 1460.92 Z" fill="#000000" fill-rule="evenodd" fill-opacity="1" /><path clip-path="url(#clip550)" d="M 0 0 M1333.75 1440.11 Q1330.82 1440.11 1329.33 1443.01 Q1327.87 1445.89 1327.87 1451.68 Q1327.87 1457.46 1329.33 1460.35 Q1330.82 1463.23 1333.75 1463.23 Q1336.71 1463.23 1338.17 1460.35 Q1339.66 1457.46 1339.66 1451.68 Q1339.66 1445.89 1338.17 1443.01 Q1336.71 1440.11 1333.75 1440.11 M1333.75 1437.11 Q1338.47 1437.11 1340.96 1440.85 Q1343.46 1444.57 1343.46 1451.68 Q1343.46 1458.77 1340.96 1462.51 Q1338.47 1466.24 1333.75 1466.24 Q1329.03 1466.24 1326.53 1462.51 Q1324.05 1458.77 1324.05 1451.68 Q1324.05 1444.57 1326.53 1440.85 Q1329.03 1437.11 1333.75 1437.11 Z" fill="#000000" fill-rule="evenodd" fill-opacity="1" /><path clip-path="url(#clip550)" d="M 0 0 M1726.26 1489.17 L1733.9 1489.17 L1733.9 1462.8 L1725.59 1464.47 L1725.59 1460.21 L1733.85 1458.54 L1738.53 1458.54 L1738.53 1489.17 L1746.17 1489.17 L1746.17 1493.1 L1726.26 1493.1 L1726.26 1489.17 Z" fill="#000000" fill-rule="evenodd" fill-opacity="1" /><path clip-path="url(#clip550)" d="M 0 0 M1761.24 1461.62 Q1757.62 1461.62 1755.8 1465.19 Q1753.99 1468.73 1753.99 1475.86 Q1753.99 1482.97 1755.8 1486.53 Q1757.62 1490.07 1761.24 1490.07 Q1764.87 1490.07 1766.68 1486.53 Q1768.5 1482.97 1768.5 1475.86 Q1768.5 1468.73 1766.68 1465.19 Q1764.87 1461.62 1761.24 1461.62 M1761.24 1457.92 Q1767.05 1457.92 1770.1 1462.53 Q1773.18 1467.11 1773.18 1475.86 Q1773.18 1484.59 1770.1 1489.19 Q1767.05 1493.78 1761.24 1493.78 Q1755.43 1493.78 1752.35 1489.19 Q1749.29 1484.59 1749.29 1475.86 Q1749.29 1467.11 1752.35 1462.53 Q1755.43 1457.92 1761.24 1457.92 Z" fill="#000000" fill-rule="evenodd" fill-opacity="1" /><path clip-path="url(#clip550)" d="M 0 0 M1773.18 1452.02 L1797.29 1452.02 L1797.29 1455.22 L1773.18 1455.22 L1773.18 1452.02 Z" fill="#000000" fill-rule="evenodd" fill-opacity="1" /><path clip-path="url(#clip550)" d="M 0 0 M1812.92 1450.55 Q1815.65 1451.14 1817.17 1452.98 Q1818.71 1454.82 1818.71 1457.53 Q1818.71 1461.69 1815.86 1463.96 Q1813 1466.24 1807.73 1466.24 Q1805.96 1466.24 1804.08 1465.88 Q1802.22 1465.54 1800.23 1464.85 L1800.23 1461.18 Q1801.81 1462.1 1803.69 1462.57 Q1805.57 1463.04 1807.62 1463.04 Q1811.19 1463.04 1813.05 1461.63 Q1814.93 1460.22 1814.93 1457.53 Q1814.93 1455.05 1813.18 1453.66 Q1811.45 1452.25 1808.35 1452.25 L1805.08 1452.25 L1805.08 1449.12 L1808.5 1449.12 Q1811.3 1449.12 1812.79 1448.01 Q1814.28 1446.89 1814.28 1444.78 Q1814.28 1442.62 1812.73 1441.47 Q1811.21 1440.3 1808.35 1440.3 Q1806.79 1440.3 1805 1440.64 Q1803.22 1440.98 1801.07 1441.69 L1801.07 1438.31 Q1803.24 1437.71 1805.12 1437.41 Q1807.02 1437.11 1808.69 1437.11 Q1813.02 1437.11 1815.54 1439.08 Q1818.06 1441.04 1818.06 1444.38 Q1818.06 1446.72 1816.72 1448.33 Q1815.38 1449.93 1812.92 1450.55 Z" fill="#000000" fill-rule="evenodd" fill-opacity="1" /><path clip-path="url(#clip550)" d="M 0 0 M1822.83 1460.92 L1826.8 1460.92 L1826.8 1465.69 L1822.83 1465.69 L1822.83 1460.92 Z" fill="#000000" fill-rule="evenodd" fill-opacity="1" /><path clip-path="url(#clip550)" d="M 0 0 M1830.96 1437.61 L1845.87 1437.61 L1845.87 1440.81 L1834.44 1440.81 L1834.44 1447.69 Q1835.26 1447.41 1836.09 1447.28 Q1836.92 1447.13 1837.75 1447.13 Q1842.45 1447.13 1845.2 1449.71 Q1847.94 1452.28 1847.94 1456.68 Q1847.94 1461.22 1845.12 1463.74 Q1842.3 1466.24 1837.16 1466.24 Q1835.4 1466.24 1833.55 1465.94 Q1831.73 1465.64 1829.77 1465.04 L1829.77 1461.22 Q1831.47 1462.14 1833.27 1462.59 Q1835.08 1463.04 1837.09 1463.04 Q1840.34 1463.04 1842.24 1461.33 Q1844.14 1459.62 1844.14 1456.68 Q1844.14 1453.75 1842.24 1452.04 Q1840.34 1450.33 1837.09 1450.33 Q1835.57 1450.33 1834.04 1450.67 Q1832.54 1451 1830.96 1451.72 L1830.96 1437.61 Z" fill="#000000" fill-rule="evenodd" fill-opacity="1" /><path clip-path="url(#clip550)" d="M 0 0 M2231.2 1489.17 L2238.84 1489.17 L2238.84 1462.8 L2230.53 1464.47 L2230.53 1460.21 L2238.8 1458.54 L2243.47 1458.54 L2243.47 1489.17 L2251.11 1489.17 L2251.11 1493.1 L2231.2 1493.1 L2231.2 1489.17 Z" fill="#000000" fill-rule="evenodd" fill-opacity="1" /><path clip-path="url(#clip550)" d="M 0 0 M2266.18 1461.62 Q2262.57 1461.62 2260.74 1465.19 Q2258.94 1468.73 2258.94 1475.86 Q2258.94 1482.97 2260.74 1486.53 Q2262.57 1490.07 2266.18 1490.07 Q2269.82 1490.07 2271.62 1486.53 Q2273.45 1482.97 2273.45 1475.86 Q2273.45 1468.73 2271.62 1465.19 Q2269.82 1461.62 2266.18 1461.62 M2266.18 1457.92 Q2271.99 1457.92 2275.05 1462.53 Q2278.13 1467.11 2278.13 1475.86 Q2278.13 1484.59 2275.05 1489.19 Q2271.99 1493.78 2266.18 1493.78 Q2260.37 1493.78 2257.29 1489.19 Q2254.24 1484.59 2254.24 1475.86 Q2254.24 1467.11 2257.29 1462.53 Q2260.37 1457.92 2266.18 1457.92 Z" fill="#000000" fill-rule="evenodd" fill-opacity="1" /><path clip-path="url(#clip550)" d="M 0 0 M2278.13 1452.02 L2302.24 1452.02 L2302.24 1455.22 L2278.13 1455.22 L2278.13 1452.02 Z" fill="#000000" fill-rule="evenodd" fill-opacity="1" /><path clip-path="url(#clip550)" d="M 0 0 M2317.87 1450.55 Q2320.59 1451.14 2322.12 1452.98 Q2323.66 1454.82 2323.66 1457.53 Q2323.66 1461.69 2320.8 1463.96 Q2317.94 1466.24 2312.68 1466.24 Q2310.91 1466.24 2309.03 1465.88 Q2307.16 1465.54 2305.17 1464.85 L2305.17 1461.18 Q2306.75 1462.1 2308.63 1462.57 Q2310.51 1463.04 2312.56 1463.04 Q2316.14 1463.04 2318 1461.63 Q2319.88 1460.22 2319.88 1457.53 Q2319.88 1455.05 2318.13 1453.66 Q2316.4 1452.25 2313.3 1452.25 L2310.02 1452.25 L2310.02 1449.12 L2313.45 1449.12 Q2316.25 1449.12 2317.73 1448.01 Q2319.22 1446.89 2319.22 1444.78 Q2319.22 1442.62 2317.68 1441.47 Q2316.15 1440.3 2313.3 1440.3 Q2311.73 1440.3 2309.95 1440.64 Q2308.16 1440.98 2306.02 1441.69 L2306.02 1438.31 Q2308.18 1437.71 2310.06 1437.41 Q2311.96 1437.11 2313.63 1437.11 Q2317.96 1437.11 2320.48 1439.08 Q2323 1441.04 2323 1444.38 Q2323 1446.72 2321.67 1448.33 Q2320.33 1449.93 2317.87 1450.55 Z" fill="#000000" fill-rule="evenodd" fill-opacity="1" /><path clip-path="url(#clip550)" d="M 0 0 M2327.78 1460.92 L2331.75 1460.92 L2331.75 1465.69 L2327.78 1465.69 L2327.78 1460.92 Z" fill="#000000" fill-rule="evenodd" fill-opacity="1" /><path clip-path="url(#clip550)" d="M 0 0 M2343.99 1440.11 Q2341.06 1440.11 2339.57 1443.01 Q2338.1 1445.89 2338.1 1451.68 Q2338.1 1457.46 2339.57 1460.35 Q2341.06 1463.23 2343.99 1463.23 Q2346.94 1463.23 2348.41 1460.35 Q2349.9 1457.46 2349.9 1451.68 Q2349.9 1445.89 2348.41 1443.01 Q2346.94 1440.11 2343.99 1440.11 M2343.99 1437.11 Q2348.71 1437.11 2351.19 1440.85 Q2353.69 1444.57 2353.69 1451.68 Q2353.69 1458.77 2351.19 1462.51 Q2348.71 1466.24 2343.99 1466.24 Q2339.27 1466.24 2336.77 1462.51 Q2334.29 1458.77 2334.29 1451.68 Q2334.29 1444.57 2336.77 1440.85 Q2339.27 1437.11 2343.99 1437.11 Z" fill="#000000" fill-rule="evenodd" fill-opacity="1" /><path clip-path="url(#clip550)" d="M 0 0 M1174.18 1526.54 L1180.39 1526.54 L1191.53 1556.46 L1202.67 1526.54 L1208.88 1526.54 L1195.51 1562.19 L1187.55 1562.19 L1174.18 1526.54 Z" fill="#000000" fill-rule="evenodd" fill-opacity="1" /><path clip-path="url(#clip550)" d="M 0 0 M1242.11 1573.01 L1242.11 1577.56 L1208.24 1577.56 L1208.24 1573.01 L1242.11 1573.01 Z" fill="#000000" fill-rule="evenodd" fill-opacity="1" /><path clip-path="url(#clip550)" d="M 0 0 M1262.06 1530.64 Q1257.35 1530.64 1254.62 1534.34 Q1251.88 1538 1251.88 1544.39 Q1251.88 1550.79 1254.58 1554.48 Q1257.32 1558.14 1262.06 1558.14 Q1266.74 1558.14 1269.48 1554.45 Q1272.22 1550.76 1272.22 1544.39 Q1272.22 1538.06 1269.48 1534.37 Q1266.74 1530.64 1262.06 1530.64 M1262.06 1525.68 Q1269.7 1525.68 1274.06 1530.64 Q1278.42 1535.61 1278.42 1544.39 Q1278.42 1553.15 1274.06 1558.14 Q1269.7 1563.11 1262.06 1563.11 Q1254.39 1563.11 1250.03 1558.14 Q1245.7 1553.15 1245.7 1544.39 Q1245.7 1535.61 1250.03 1530.64 Q1254.39 1525.68 1262.06 1525.68 Z" fill="#000000" fill-rule="evenodd" fill-opacity="1" /><path clip-path="url(#clip550)" d="M 0 0 M1290.23 1556.84 L1290.23 1575.74 L1284.34 1575.74 L1284.34 1526.54 L1290.23 1526.54 L1290.23 1531.95 Q1292.08 1528.77 1294.88 1527.24 Q1297.71 1525.68 1301.63 1525.68 Q1308.12 1525.68 1312.16 1530.83 Q1316.24 1535.99 1316.24 1544.39 Q1316.24 1552.8 1312.16 1557.95 Q1308.12 1563.11 1301.63 1563.11 Q1297.71 1563.11 1294.88 1561.58 Q1292.08 1560.02 1290.23 1556.84 M1310.16 1544.39 Q1310.16 1537.93 1307.48 1534.27 Q1304.84 1530.58 1300.19 1530.58 Q1295.55 1530.58 1292.87 1534.27 Q1290.23 1537.93 1290.23 1544.39 Q1290.23 1550.85 1292.87 1554.55 Q1295.55 1558.21 1300.19 1558.21 Q1304.84 1558.21 1307.48 1554.55 Q1310.16 1550.85 1310.16 1544.39 Z" fill="#000000" fill-rule="evenodd" fill-opacity="1" /><path clip-path="url(#clip550)" d="M 0 0 M1352.87 1542.9 L1352.87 1545.76 L1325.94 1545.76 Q1326.33 1551.81 1329.57 1554.99 Q1332.85 1558.14 1338.67 1558.14 Q1342.05 1558.14 1345.2 1557.32 Q1348.38 1556.49 1351.5 1554.83 L1351.5 1560.37 Q1348.35 1561.71 1345.04 1562.41 Q1341.73 1563.11 1338.32 1563.11 Q1329.79 1563.11 1324.8 1558.14 Q1319.83 1553.18 1319.83 1544.71 Q1319.83 1535.96 1324.54 1530.83 Q1329.29 1525.68 1337.31 1525.68 Q1344.5 1525.68 1348.67 1530.33 Q1352.87 1534.94 1352.87 1542.9 M1347.01 1541.18 Q1346.95 1536.37 1344.31 1533.51 Q1341.7 1530.64 1337.37 1530.64 Q1332.47 1530.64 1329.51 1533.41 Q1326.58 1536.18 1326.13 1541.21 L1347.01 1541.18 Z" fill="#000000" fill-rule="evenodd" fill-opacity="1" /><path clip-path="url(#clip550)" d="M 0 0 M1388.65 1540.67 L1388.65 1562.19 L1382.79 1562.19 L1382.79 1540.86 Q1382.79 1535.8 1380.82 1533.29 Q1378.84 1530.77 1374.9 1530.77 Q1370.15 1530.77 1367.42 1533.79 Q1364.68 1536.82 1364.68 1542.04 L1364.68 1562.19 L1358.79 1562.19 L1358.79 1526.54 L1364.68 1526.54 L1364.68 1532.08 Q1366.78 1528.86 1369.61 1527.27 Q1372.48 1525.68 1376.2 1525.68 Q1382.34 1525.68 1385.49 1529.5 Q1388.65 1533.29 1388.65 1540.67 Z" fill="#000000" fill-rule="evenodd" fill-opacity="1" /><polyline clip-path="url(#clip552)" style="stroke:#000000; stroke-width:2; stroke-opacity:0.1; fill:none" points="
  210.075,1273.03 2352.76,1273.03 
  "/>
<polyline clip-path="url(#clip552)" style="stroke:#000000; stroke-width:2; stroke-opacity:0.1; fill:none" points="
  210.075,950.802 2352.76,950.802 
  "/>
<polyline clip-path="url(#clip552)" style="stroke:#000000; stroke-width:2; stroke-opacity:0.1; fill:none" points="
  210.075,628.578 2352.76,628.578 
  "/>
<polyline clip-path="url(#clip552)" style="stroke:#000000; stroke-width:2; stroke-opacity:0.1; fill:none" points="
  210.075,306.354 2352.76,306.354 
  "/>
<polyline clip-path="url(#clip550)" style="stroke:#000000; stroke-width:4; stroke-opacity:1; fill:none" points="
  210.075,1410.9 210.075,47.2441 
  "/>
<polyline clip-path="url(#clip550)" style="stroke:#000000; stroke-width:4; stroke-opacity:1; fill:none" points="
  210.075,1273.03 235.787,1273.03 
  "/>
<polyline clip-path="url(#clip550)" style="stroke:#000000; stroke-width:4; stroke-opacity:1; fill:none" points="
  210.075,950.802 235.787,950.802 
  "/>
<polyline clip-path="url(#clip550)" style="stroke:#000000; stroke-width:4; stroke-opacity:1; fill:none" points="
  210.075,628.578 235.787,628.578 
  "/>
<polyline clip-path="url(#clip550)" style="stroke:#000000; stroke-width:4; stroke-opacity:1; fill:none" points="
  210.075,306.354 235.787,306.354 
  "/>
<path clip-path="url(#clip550)" d="M 0 0 M115.718 1255.75 L134.075 1255.75 L134.075 1259.68 L120.001 1259.68 L120.001 1268.15 Q121.019 1267.81 122.038 1267.64 Q123.056 1267.46 124.075 1267.46 Q129.862 1267.46 133.242 1270.63 Q136.621 1273.8 136.621 1279.22 Q136.621 1284.8 133.149 1287.9 Q129.677 1290.98 123.357 1290.98 Q121.181 1290.98 118.913 1290.61 Q116.668 1290.24 114.26 1289.5 L114.26 1284.8 Q116.343 1285.93 118.566 1286.49 Q120.788 1287.04 123.265 1287.04 Q127.269 1287.04 129.607 1284.94 Q131.945 1282.83 131.945 1279.22 Q131.945 1275.61 129.607 1273.5 Q127.269 1271.39 123.265 1271.39 Q121.39 1271.39 119.515 1271.81 Q117.663 1272.23 115.718 1273.11 L115.718 1255.75 Z" fill="#000000" fill-rule="evenodd" fill-opacity="1" /><path clip-path="url(#clip550)" d="M 0 0 M141.691 1284.43 L146.575 1284.43 L146.575 1290.31 L141.691 1290.31 L141.691 1284.43 Z" fill="#000000" fill-rule="evenodd" fill-opacity="1" /><path clip-path="url(#clip550)" d="M 0 0 M164.491 1259.82 L152.686 1278.27 L164.491 1278.27 L164.491 1259.82 M163.265 1255.75 L169.144 1255.75 L169.144 1278.27 L174.075 1278.27 L174.075 1282.16 L169.144 1282.16 L169.144 1290.31 L164.491 1290.31 L164.491 1282.16 L148.89 1282.16 L148.89 1277.64 L163.265 1255.75 Z" fill="#000000" fill-rule="evenodd" fill-opacity="1" /><path clip-path="url(#clip550)" d="M 0 0 M117.2 933.522 L135.556 933.522 L135.556 937.457 L121.482 937.457 L121.482 945.929 Q122.501 945.582 123.519 945.42 Q124.538 945.235 125.556 945.235 Q131.343 945.235 134.723 948.406 Q138.103 951.577 138.103 956.994 Q138.103 962.573 134.63 965.675 Q131.158 968.753 124.839 968.753 Q122.663 968.753 120.394 968.383 Q118.149 968.013 115.742 967.272 L115.742 962.573 Q117.825 963.707 120.047 964.263 Q122.269 964.818 124.746 964.818 Q128.751 964.818 131.089 962.712 Q133.427 960.605 133.427 956.994 Q133.427 953.383 131.089 951.277 Q128.751 949.17 124.746 949.17 Q122.871 949.17 120.996 949.587 Q119.144 950.003 117.2 950.883 L117.2 933.522 Z" fill="#000000" fill-rule="evenodd" fill-opacity="1" /><path clip-path="url(#clip550)" d="M 0 0 M143.172 962.202 L148.056 962.202 L148.056 968.082 L143.172 968.082 L143.172 962.202 Z" fill="#000000" fill-rule="evenodd" fill-opacity="1" /><path clip-path="url(#clip550)" d="M 0 0 M153.172 933.522 L171.528 933.522 L171.528 937.457 L157.454 937.457 L157.454 945.929 Q158.473 945.582 159.491 945.42 Q160.51 945.235 161.528 945.235 Q167.315 945.235 170.695 948.406 Q174.075 951.577 174.075 956.994 Q174.075 962.573 170.602 965.675 Q167.13 968.753 160.811 968.753 Q158.635 968.753 156.366 968.383 Q154.121 968.013 151.714 967.272 L151.714 962.573 Q153.797 963.707 156.019 964.263 Q158.241 964.818 160.718 964.818 Q164.723 964.818 167.061 962.712 Q169.399 960.605 169.399 956.994 Q169.399 953.383 167.061 951.277 Q164.723 949.17 160.718 949.17 Q158.843 949.17 156.968 949.587 Q155.116 950.003 153.172 950.883 L153.172 933.522 Z" fill="#000000" fill-rule="evenodd" fill-opacity="1" /><path clip-path="url(#clip550)" d="M 0 0 M116.043 611.298 L134.399 611.298 L134.399 615.233 L120.325 615.233 L120.325 623.705 Q121.343 623.358 122.362 623.196 Q123.38 623.011 124.399 623.011 Q130.186 623.011 133.566 626.182 Q136.945 629.353 136.945 634.77 Q136.945 640.349 133.473 643.45 Q130.001 646.529 123.681 646.529 Q121.505 646.529 119.237 646.159 Q116.992 645.788 114.584 645.048 L114.584 640.349 Q116.668 641.483 118.89 642.038 Q121.112 642.594 123.589 642.594 Q127.593 642.594 129.931 640.487 Q132.269 638.381 132.269 634.77 Q132.269 631.159 129.931 629.052 Q127.593 626.946 123.589 626.946 Q121.714 626.946 119.839 627.363 Q117.987 627.779 116.043 628.659 L116.043 611.298 Z" fill="#000000" fill-rule="evenodd" fill-opacity="1" /><path clip-path="url(#clip550)" d="M 0 0 M142.015 639.978 L146.899 639.978 L146.899 645.858 L142.015 645.858 L142.015 639.978 Z" fill="#000000" fill-rule="evenodd" fill-opacity="1" /><path clip-path="url(#clip550)" d="M 0 0 M162.547 626.714 Q159.399 626.714 157.547 628.867 Q155.718 631.02 155.718 634.77 Q155.718 638.497 157.547 640.673 Q159.399 642.825 162.547 642.825 Q165.695 642.825 167.524 640.673 Q169.376 638.497 169.376 634.77 Q169.376 631.02 167.524 628.867 Q165.695 626.714 162.547 626.714 M171.829 612.062 L171.829 616.321 Q170.07 615.488 168.264 615.048 Q166.482 614.608 164.723 614.608 Q160.093 614.608 157.64 617.733 Q155.209 620.858 154.862 627.177 Q156.228 625.163 158.288 624.099 Q160.348 623.011 162.825 623.011 Q168.033 623.011 171.042 626.182 Q174.075 629.33 174.075 634.77 Q174.075 640.094 170.927 643.312 Q167.778 646.529 162.547 646.529 Q156.552 646.529 153.38 641.946 Q150.209 637.339 150.209 628.613 Q150.209 620.418 154.098 615.557 Q157.987 610.673 164.538 610.673 Q166.297 610.673 168.079 611.02 Q169.885 611.367 171.829 612.062 Z" fill="#000000" fill-rule="evenodd" fill-opacity="1" /><path clip-path="url(#clip550)" d="M 0 0 M117.107 289.074 L135.464 289.074 L135.464 293.009 L121.39 293.009 L121.39 301.481 Q122.408 301.134 123.427 300.972 Q124.445 300.787 125.464 300.787 Q131.251 300.787 134.63 303.958 Q138.01 307.129 138.01 312.546 Q138.01 318.124 134.538 321.226 Q131.066 324.305 124.746 324.305 Q122.57 324.305 120.302 323.935 Q118.056 323.564 115.649 322.823 L115.649 318.124 Q117.732 319.259 119.955 319.814 Q122.177 320.37 124.654 320.37 Q128.658 320.37 130.996 318.263 Q133.334 316.157 133.334 312.546 Q133.334 308.935 130.996 306.828 Q128.658 304.722 124.654 304.722 Q122.779 304.722 120.904 305.138 Q119.052 305.555 117.107 306.435 L117.107 289.074 Z" fill="#000000" fill-rule="evenodd" fill-opacity="1" /><path clip-path="url(#clip550)" d="M 0 0 M143.079 317.754 L147.964 317.754 L147.964 323.634 L143.079 323.634 L143.079 317.754 Z" fill="#000000" fill-rule="evenodd" fill-opacity="1" /><path clip-path="url(#clip550)" d="M 0 0 M151.853 289.074 L174.075 289.074 L174.075 291.064 L161.528 323.634 L156.644 323.634 L168.45 293.009 L151.853 293.009 L151.853 289.074 Z" fill="#000000" fill-rule="evenodd" fill-opacity="1" /><path clip-path="url(#clip550)" d="M 0 0 M59.1993 815.533 Q55.2526 813.336 53.3747 810.281 Q51.4968 807.225 51.4968 803.088 Q51.4968 797.518 55.4117 794.494 Q59.2948 791.47 66.4881 791.47 L88.0042 791.47 L88.0042 797.358 L66.679 797.358 Q61.5546 797.358 59.072 799.173 Q56.5894 800.987 56.5894 804.711 Q56.5894 809.262 59.6131 811.904 Q62.6368 814.546 67.8567 814.546 L88.0042 814.546 L88.0042 820.434 L66.679 820.434 Q61.5228 820.434 59.072 822.248 Q56.5894 824.063 56.5894 827.85 Q56.5894 832.338 59.6449 834.98 Q62.6686 837.622 67.8567 837.622 L88.0042 837.622 L88.0042 843.51 L52.3562 843.51 L52.3562 837.622 L57.8944 837.622 Q54.616 835.616 53.0564 832.815 Q51.4968 830.015 51.4968 826.163 Q51.4968 822.28 53.4702 819.575 Q55.4436 816.838 59.1993 815.533 Z" fill="#000000" fill-rule="evenodd" fill-opacity="1" /><path clip-path="url(#clip550)" d="M 0 0 M52.3562 785.327 L52.3562 779.471 L88.0042 779.471 L88.0042 785.327 L52.3562 785.327 M38.479 785.327 L38.479 779.471 L45.895 779.471 L45.895 785.327 L38.479 785.327 Z" fill="#000000" fill-rule="evenodd" fill-opacity="1" /><path clip-path="url(#clip550)" d="M 0 0 M66.4881 743.696 L88.0042 743.696 L88.0042 749.552 L66.679 749.552 Q61.6183 749.552 59.1038 751.525 Q56.5894 753.499 56.5894 757.446 Q56.5894 762.188 59.6131 764.925 Q62.6368 767.662 67.8567 767.662 L88.0042 767.662 L88.0042 773.551 L52.3562 773.551 L52.3562 767.662 L57.8944 767.662 Q54.6797 765.562 53.0883 762.729 Q51.4968 759.864 51.4968 756.141 Q51.4968 749.998 55.3163 746.847 Q59.1038 743.696 66.4881 743.696 Z" fill="#000000" fill-rule="evenodd" fill-opacity="1" /><path clip-path="url(#clip550)" d="M 0 0 M98.8259 710.467 L103.377 710.467 L103.377 744.332 L98.8259 744.332 L98.8259 710.467 Z" fill="#000000" fill-rule="evenodd" fill-opacity="1" /><path clip-path="url(#clip550)" d="M 0 0 M57.7671 680.866 L38.479 680.866 L38.479 675.01 L88.0042 675.01 L88.0042 680.866 L82.657 680.866 Q85.8398 682.712 87.3994 685.545 Q88.9272 688.346 88.9272 692.292 Q88.9272 698.754 83.771 702.828 Q78.6147 706.87 70.212 706.87 Q61.8093 706.87 56.6531 702.828 Q51.4968 698.754 51.4968 692.292 Q51.4968 688.346 53.0564 685.545 Q54.5842 682.712 57.7671 680.866 M70.212 700.823 Q76.6732 700.823 80.3653 698.181 Q84.0256 695.507 84.0256 690.86 Q84.0256 686.213 80.3653 683.54 Q76.6732 680.866 70.212 680.866 Q63.7508 680.866 60.0905 683.54 Q56.3984 686.213 56.3984 690.86 Q56.3984 695.507 60.0905 698.181 Q63.7508 700.823 70.212 700.823 Z" fill="#000000" fill-rule="evenodd" fill-opacity="1" /><path clip-path="url(#clip550)" d="M 0 0 M52.3562 668.867 L52.3562 663.01 L88.0042 663.01 L88.0042 668.867 L52.3562 668.867 M38.479 668.867 L38.479 663.01 L45.895 663.01 L45.895 668.867 L38.479 668.867 Z" fill="#000000" fill-rule="evenodd" fill-opacity="1" /><path clip-path="url(#clip550)" d="M 0 0 M38.479 638.821 L43.3487 638.821 L43.3487 644.422 Q43.3487 647.573 44.6219 648.815 Q45.895 650.024 49.2052 650.024 L52.3562 650.024 L52.3562 640.38 L56.9077 640.38 L56.9077 650.024 L88.0042 650.024 L88.0042 655.912 L56.9077 655.912 L56.9077 661.514 L52.3562 661.514 L52.3562 655.912 L49.8736 655.912 Q43.9216 655.912 41.2162 653.143 Q38.479 650.374 38.479 644.359 L38.479 638.821 Z" fill="#000000" fill-rule="evenodd" fill-opacity="1" /><path clip-path="url(#clip550)" d="M 0 0 M38.479 614.631 L43.3487 614.631 L43.3487 620.233 Q43.3487 623.384 44.6219 624.625 Q45.895 625.835 49.2052 625.835 L52.3562 625.835 L52.3562 616.19 L56.9077 616.19 L56.9077 625.835 L88.0042 625.835 L88.0042 631.723 L56.9077 631.723 L56.9077 637.325 L52.3562 637.325 L52.3562 631.723 L49.8736 631.723 Q43.9216 631.723 41.2162 628.954 Q38.479 626.185 38.479 620.169 L38.479 614.631 Z" fill="#000000" fill-rule="evenodd" fill-opacity="1" /><polyline clip-path="url(#clip552)" style="stroke:#009af9; stroke-width:20; stroke-opacity:1; fill:none" stroke-dasharray="80, 50" points="
  270.717,1372.3 1281.42,85.838 2292.11,113.581 
  "/>
<path clip-path="url(#clip550)" d="
M1992.24 213.659 L2281.33 213.659 L2281.33 92.6992 L1992.24 92.6992  Z
  " fill="#ffffff" fill-rule="evenodd" fill-opacity="1"/>
<polyline clip-path="url(#clip550)" style="stroke:#000000; stroke-width:4; stroke-opacity:1; fill:none" points="
  1992.24,213.659 2281.33,213.659 2281.33,92.6992 1992.24,92.6992 1992.24,213.659 
  "/>
<polyline clip-path="url(#clip550)" style="stroke:#009af9; stroke-width:4; stroke-opacity:1; fill:none" stroke-dasharray="16, 10" points="
  2016.05,153.179 2158.89,153.179 
  "/>
<path clip-path="url(#clip550)" d="M 0 0 M2196.54 172.867 Q2194.74 177.496 2193.02 178.908 Q2191.31 180.32 2188.44 180.32 L2185.04 180.32 L2185.04 176.755 L2187.54 176.755 Q2189.3 176.755 2190.27 175.922 Q2191.24 175.089 2192.42 171.987 L2193.19 170.043 L2182.7 144.533 L2187.21 144.533 L2195.32 164.811 L2203.42 144.533 L2207.93 144.533 L2196.54 172.867 Z" fill="#000000" fill-rule="evenodd" fill-opacity="1" /><path clip-path="url(#clip550)" d="M 0 0 M2213.81 166.524 L2221.45 166.524 L2221.45 140.158 L2213.14 141.825 L2213.14 137.566 L2221.4 135.899 L2226.08 135.899 L2226.08 166.524 L2233.72 166.524 L2233.72 170.459 L2213.81 170.459 L2213.81 166.524 Z" fill="#000000" fill-rule="evenodd" fill-opacity="1" /></svg>
