<?xml version="1.0" encoding="utf-8"?>
<svg xmlns="http://www.w3.org/2000/svg" xmlns:xlink="http://www.w3.org/1999/xlink" width="600" height="400" viewBox="0 0 2400 1600">
<defs>
  <clipPath id="clip480">
    <rect x="0" y="0" width="2400" height="1600"/>
  </clipPath>
</defs>
<path clip-path="url(#clip480)" d="
M0 1600 L2400 1600 L2400 0 L0 0  Z
  " fill="#ffffff" fill-rule="evenodd" fill-opacity="1"/>
<defs>
  <clipPath id="clip481">
    <rect x="480" y="0" width="1681" height="1600"/>
  </clipPath>
</defs>
<path clip-path="url(#clip480)" d="
M238.454 1410.9 L2352.76 1410.9 L2352.76 47.2441 L238.454 47.2441  Z
  " fill="#ffffff" fill-rule="evenodd" fill-opacity="1"/>
<defs>
  <clipPath id="clip482">
    <rect x="238" y="47" width="2115" height="1365"/>
  </clipPath>
</defs>
<polyline clip-path="url(#clip482)" style="stroke:#000000; stroke-width:2; stroke-opacity:0.1; fill:none" points="
  497.755,1410.9 497.755,47.2441 
  "/>
<polyline clip-path="url(#clip482)" style="stroke:#000000; stroke-width:2; stroke-opacity:0.1; fill:none" points="
  896.68,1410.9 896.68,47.2441 
  "/>
<polyline clip-path="url(#clip482)" style="stroke:#000000; stroke-width:2; stroke-opacity:0.1; fill:none" points="
  1295.61,1410.9 1295.61,47.2441 
  "/>
<polyline clip-path="url(#clip482)" style="stroke:#000000; stroke-width:2; stroke-opacity:0.1; fill:none" points="
  1694.53,1410.9 1694.53,47.2441 
  "/>
<polyline clip-path="url(#clip482)" style="stroke:#000000; stroke-width:2; stroke-opacity:0.1; fill:none" points="
  2093.45,1410.9 2093.45,47.2441 
  "/>
<polyline clip-path="url(#clip480)" style="stroke:#000000; stroke-width:4; stroke-opacity:1; fill:none" points="
  238.454,1410.9 2352.76,1410.9 
  "/>
<polyline clip-path="url(#clip480)" style="stroke:#000000; stroke-width:4; stroke-opacity:1; fill:none" points="
  497.755,1410.9 497.755,1394.53 
  "/>
<polyline clip-path="url(#clip480)" style="stroke:#000000; stroke-width:4; stroke-opacity:1; fill:none" points="
  896.68,1410.9 896.68,1394.53 
  "/>
<polyline clip-path="url(#clip480)" style="stroke:#000000; stroke-width:4; stroke-opacity:1; fill:none" points="
  1295.61,1410.9 1295.61,1394.53 
  "/>
<polyline clip-path="url(#clip480)" style="stroke:#000000; stroke-width:4; stroke-opacity:1; fill:none" points="
  1694.53,1410.9 1694.53,1394.53 
  "/>
<polyline clip-path="url(#clip480)" style="stroke:#000000; stroke-width:4; stroke-opacity:1; fill:none" points="
  2093.45,1410.9 2093.45,1394.53 
  "/>
<path clip-path="url(#clip480)" d="M 0 0 M436.648 1489.17 L444.287 1489.17 L444.287 1462.8 L435.977 1464.47 L435.977 1460.21 L444.241 1458.54 L448.917 1458.54 L448.917 1489.17 L456.555 1489.17 L456.555 1493.1 L436.648 1493.1 L436.648 1489.17 Z" fill="#000000" fill-rule="evenodd" fill-opacity="1" /><path clip-path="url(#clip480)" d="M 0 0 M471.625 1461.62 Q468.014 1461.62 466.185 1465.19 Q464.379 1468.73 464.379 1475.86 Q464.379 1482.97 466.185 1486.53 Q468.014 1490.07 471.625 1490.07 Q475.259 1490.07 477.065 1486.53 Q478.893 1482.97 478.893 1475.86 Q478.893 1468.73 477.065 1465.19 Q475.259 1461.62 471.625 1461.62 M471.625 1457.92 Q477.435 1457.92 480.49 1462.53 Q483.569 1467.11 483.569 1475.86 Q483.569 1484.59 480.49 1489.19 Q477.435 1493.78 471.625 1493.78 Q465.815 1493.78 462.736 1489.19 Q459.68 1484.59 459.68 1475.86 Q459.68 1467.11 462.736 1462.53 Q465.815 1457.92 471.625 1457.92 Z" fill="#000000" fill-rule="evenodd" fill-opacity="1" /><path clip-path="url(#clip480)" d="M 0 0 M483.569 1452.02 L507.681 1452.02 L507.681 1455.22 L483.569 1455.22 L483.569 1452.02 Z" fill="#000000" fill-rule="evenodd" fill-opacity="1" /><path clip-path="url(#clip480)" d="M 0 0 M523.31 1450.55 Q526.037 1451.14 527.561 1452.98 Q529.103 1454.82 529.103 1457.53 Q529.103 1461.69 526.244 1463.96 Q523.385 1466.24 518.119 1466.24 Q516.351 1466.24 514.47 1465.88 Q512.608 1465.54 510.615 1464.85 L510.615 1461.18 Q512.195 1462.1 514.075 1462.57 Q515.956 1463.04 518.006 1463.04 Q521.58 1463.04 523.442 1461.63 Q525.322 1460.22 525.322 1457.53 Q525.322 1455.05 523.573 1453.66 Q521.843 1452.25 518.74 1452.25 L515.467 1452.25 L515.467 1449.12 L518.89 1449.12 Q521.693 1449.12 523.178 1448.01 Q524.664 1446.89 524.664 1444.78 Q524.664 1442.62 523.122 1441.47 Q521.598 1440.3 518.74 1440.3 Q517.179 1440.3 515.392 1440.64 Q513.605 1440.98 511.461 1441.69 L511.461 1438.31 Q513.624 1437.71 515.505 1437.41 Q517.404 1437.11 519.078 1437.11 Q523.404 1437.11 525.924 1439.08 Q528.445 1441.04 528.445 1444.38 Q528.445 1446.72 527.109 1448.33 Q525.774 1449.93 523.31 1450.55 Z" fill="#000000" fill-rule="evenodd" fill-opacity="1" /><path clip-path="url(#clip480)" d="M 0 0 M533.222 1460.92 L537.19 1460.92 L537.19 1465.69 L533.222 1465.69 L533.222 1460.92 Z" fill="#000000" fill-rule="evenodd" fill-opacity="1" /><path clip-path="url(#clip480)" d="M 0 0 M551.747 1440.92 L542.155 1455.91 L551.747 1455.91 L551.747 1440.92 M550.751 1437.61 L555.528 1437.61 L555.528 1455.91 L559.534 1455.91 L559.534 1459.07 L555.528 1459.07 L555.528 1465.69 L551.747 1465.69 L551.747 1459.07 L539.071 1459.07 L539.071 1455.41 L550.751 1437.61 Z" fill="#000000" fill-rule="evenodd" fill-opacity="1" /><path clip-path="url(#clip480)" d="M 0 0 M836.419 1489.17 L844.058 1489.17 L844.058 1462.8 L835.748 1464.47 L835.748 1460.21 L844.012 1458.54 L848.688 1458.54 L848.688 1489.17 L856.327 1489.17 L856.327 1493.1 L836.419 1493.1 L836.419 1489.17 Z" fill="#000000" fill-rule="evenodd" fill-opacity="1" /><path clip-path="url(#clip480)" d="M 0 0 M871.396 1461.62 Q867.785 1461.62 865.956 1465.19 Q864.151 1468.73 864.151 1475.86 Q864.151 1482.97 865.956 1486.53 Q867.785 1490.07 871.396 1490.07 Q875.03 1490.07 876.836 1486.53 Q878.664 1482.97 878.664 1475.86 Q878.664 1468.73 876.836 1465.19 Q875.03 1461.62 871.396 1461.62 M871.396 1457.92 Q877.206 1457.92 880.262 1462.53 Q883.34 1467.11 883.34 1475.86 Q883.34 1484.59 880.262 1489.19 Q877.206 1493.78 871.396 1493.78 Q865.586 1493.78 862.507 1489.19 Q859.452 1484.59 859.452 1475.86 Q859.452 1467.11 862.507 1462.53 Q865.586 1457.92 871.396 1457.92 Z" fill="#000000" fill-rule="evenodd" fill-opacity="1" /><path clip-path="url(#clip480)" d="M 0 0 M883.34 1452.02 L907.452 1452.02 L907.452 1455.22 L883.34 1455.22 L883.34 1452.02 Z" fill="#000000" fill-rule="evenodd" fill-opacity="1" /><path clip-path="url(#clip480)" d="M 0 0 M923.081 1450.55 Q925.808 1451.14 927.332 1452.98 Q928.874 1454.82 928.874 1457.53 Q928.874 1461.69 926.015 1463.96 Q923.156 1466.24 917.89 1466.24 Q916.122 1466.24 914.242 1465.88 Q912.38 1465.54 910.386 1464.85 L910.386 1461.18 Q911.966 1462.1 913.847 1462.57 Q915.727 1463.04 917.777 1463.04 Q921.351 1463.04 923.213 1461.63 Q925.094 1460.22 925.094 1457.53 Q925.094 1455.05 923.345 1453.66 Q921.614 1452.25 918.511 1452.25 L915.238 1452.25 L915.238 1449.12 L918.661 1449.12 Q921.464 1449.12 922.95 1448.01 Q924.435 1446.89 924.435 1444.78 Q924.435 1442.62 922.893 1441.47 Q921.37 1440.3 918.511 1440.3 Q916.95 1440.3 915.163 1440.64 Q913.376 1440.98 911.232 1441.69 L911.232 1438.31 Q913.395 1437.71 915.276 1437.41 Q917.176 1437.11 918.849 1437.11 Q923.175 1437.11 925.695 1439.08 Q928.216 1441.04 928.216 1444.38 Q928.216 1446.72 926.88 1448.33 Q925.545 1449.93 923.081 1450.55 Z" fill="#000000" fill-rule="evenodd" fill-opacity="1" /><path clip-path="url(#clip480)" d="M 0 0 M932.993 1460.92 L936.961 1460.92 L936.961 1465.69 L932.993 1465.69 L932.993 1460.92 Z" fill="#000000" fill-rule="evenodd" fill-opacity="1" /><path clip-path="url(#clip480)" d="M 0 0 M944.353 1462.5 L957.612 1462.5 L957.612 1465.69 L939.782 1465.69 L939.782 1462.5 Q941.945 1460.26 945.669 1456.5 Q949.412 1452.72 950.371 1451.63 Q952.196 1449.58 952.91 1448.16 Q953.644 1446.74 953.644 1445.36 Q953.644 1443.12 952.064 1441.71 Q950.503 1440.3 947.983 1440.3 Q946.196 1440.3 944.202 1440.92 Q942.228 1441.54 939.971 1442.8 L939.971 1438.97 Q942.265 1438.05 944.259 1437.58 Q946.252 1437.11 947.907 1437.11 Q952.271 1437.11 954.866 1439.29 Q957.462 1441.47 957.462 1445.12 Q957.462 1446.85 956.804 1448.41 Q956.164 1449.95 954.453 1452.06 Q953.982 1452.6 951.462 1455.22 Q948.942 1457.81 944.353 1462.5 Z" fill="#000000" fill-rule="evenodd" fill-opacity="1" /><path clip-path="url(#clip480)" d="M 0 0 M1234.7 1489.17 L1242.33 1489.17 L1242.33 1462.8 L1234.02 1464.47 L1234.02 1460.21 L1242.29 1458.54 L1246.96 1458.54 L1246.96 1489.17 L1254.6 1489.17 L1254.6 1493.1 L1234.7 1493.1 L1234.7 1489.17 Z" fill="#000000" fill-rule="evenodd" fill-opacity="1" /><path clip-path="url(#clip480)" d="M 0 0 M1269.67 1461.62 Q1266.06 1461.62 1264.23 1465.19 Q1262.43 1468.73 1262.43 1475.86 Q1262.43 1482.97 1264.23 1486.53 Q1266.06 1490.07 1269.67 1490.07 Q1273.31 1490.07 1275.11 1486.53 Q1276.94 1482.97 1276.94 1475.86 Q1276.94 1468.73 1275.11 1465.19 Q1273.31 1461.62 1269.67 1461.62 M1269.67 1457.92 Q1275.48 1457.92 1278.54 1462.53 Q1281.62 1467.11 1281.62 1475.86 Q1281.62 1484.59 1278.54 1489.19 Q1275.48 1493.78 1269.67 1493.78 Q1263.86 1493.78 1260.78 1489.19 Q1257.73 1484.59 1257.73 1475.86 Q1257.73 1467.11 1260.78 1462.53 Q1263.86 1457.92 1269.67 1457.92 Z" fill="#000000" fill-rule="evenodd" fill-opacity="1" /><path clip-path="url(#clip480)" d="M 0 0 M1281.62 1452.02 L1305.73 1452.02 L1305.73 1455.22 L1281.62 1455.22 L1281.62 1452.02 Z" fill="#000000" fill-rule="evenodd" fill-opacity="1" /><path clip-path="url(#clip480)" d="M 0 0 M1321.36 1450.55 Q1324.08 1451.14 1325.61 1452.98 Q1327.15 1454.82 1327.15 1457.53 Q1327.15 1461.69 1324.29 1463.96 Q1321.43 1466.24 1316.17 1466.24 Q1314.4 1466.24 1312.52 1465.88 Q1310.66 1465.54 1308.66 1464.85 L1308.66 1461.18 Q1310.24 1462.1 1312.12 1462.57 Q1314 1463.04 1316.05 1463.04 Q1319.63 1463.04 1321.49 1461.63 Q1323.37 1460.22 1323.37 1457.53 Q1323.37 1455.05 1321.62 1453.66 Q1319.89 1452.25 1316.79 1452.25 L1313.51 1452.25 L1313.51 1449.12 L1316.94 1449.12 Q1319.74 1449.12 1321.23 1448.01 Q1322.71 1446.89 1322.71 1444.78 Q1322.71 1442.62 1321.17 1441.47 Q1319.65 1440.3 1316.79 1440.3 Q1315.23 1440.3 1313.44 1440.64 Q1311.65 1440.98 1309.51 1441.69 L1309.51 1438.31 Q1311.67 1437.71 1313.55 1437.41 Q1315.45 1437.11 1317.13 1437.11 Q1321.45 1437.11 1323.97 1439.08 Q1326.49 1441.04 1326.49 1444.38 Q1326.49 1446.72 1325.16 1448.33 Q1323.82 1449.93 1321.36 1450.55 Z" fill="#000000" fill-rule="evenodd" fill-opacity="1" /><path clip-path="url(#clip480)" d="M 0 0 M1331.27 1460.92 L1335.24 1460.92 L1335.24 1465.69 L1331.27 1465.69 L1331.27 1460.92 Z" fill="#000000" fill-rule="evenodd" fill-opacity="1" /><path clip-path="url(#clip480)" d="M 0 0 M1347.48 1440.11 Q1344.55 1440.11 1343.06 1443.01 Q1341.59 1445.89 1341.59 1451.68 Q1341.59 1457.46 1343.06 1460.35 Q1344.55 1463.23 1347.48 1463.23 Q1350.43 1463.23 1351.9 1460.35 Q1353.39 1457.46 1353.39 1451.68 Q1353.39 1445.89 1351.9 1443.01 Q1350.43 1440.11 1347.48 1440.11 M1347.48 1437.11 Q1352.2 1437.11 1354.68 1440.85 Q1357.19 1444.57 1357.19 1451.68 Q1357.19 1458.77 1354.68 1462.51 Q1352.2 1466.24 1347.48 1466.24 Q1342.76 1466.24 1340.26 1462.51 Q1337.78 1458.77 1337.78 1451.68 Q1337.78 1444.57 1340.26 1440.85 Q1342.76 1437.11 1347.48 1437.11 Z" fill="#000000" fill-rule="evenodd" fill-opacity="1" /><path clip-path="url(#clip480)" d="M 0 0 M1634.04 1489.17 L1641.68 1489.17 L1641.68 1462.8 L1633.37 1464.47 L1633.37 1460.21 L1641.64 1458.54 L1646.31 1458.54 L1646.31 1489.17 L1653.95 1489.17 L1653.95 1493.1 L1634.04 1493.1 L1634.04 1489.17 Z" fill="#000000" fill-rule="evenodd" fill-opacity="1" /><path clip-path="url(#clip480)" d="M 0 0 M1669.02 1461.62 Q1665.41 1461.62 1663.58 1465.19 Q1661.77 1468.73 1661.77 1475.86 Q1661.77 1482.97 1663.58 1486.53 Q1665.41 1490.07 1669.02 1490.07 Q1672.65 1490.07 1674.46 1486.53 Q1676.29 1482.97 1676.29 1475.86 Q1676.29 1468.73 1674.46 1465.19 Q1672.65 1461.62 1669.02 1461.62 M1669.02 1457.92 Q1674.83 1457.92 1677.89 1462.53 Q1680.96 1467.11 1680.96 1475.86 Q1680.96 1484.59 1677.89 1489.19 Q1674.83 1493.78 1669.02 1493.78 Q1663.21 1493.78 1660.13 1489.19 Q1657.08 1484.59 1657.08 1475.86 Q1657.08 1467.11 1660.13 1462.53 Q1663.21 1457.92 1669.02 1457.92 Z" fill="#000000" fill-rule="evenodd" fill-opacity="1" /><path clip-path="url(#clip480)" d="M 0 0 M1680.96 1452.02 L1705.08 1452.02 L1705.08 1455.22 L1680.96 1455.22 L1680.96 1452.02 Z" fill="#000000" fill-rule="evenodd" fill-opacity="1" /><path clip-path="url(#clip480)" d="M 0 0 M1712.47 1462.5 L1725.73 1462.5 L1725.73 1465.69 L1707.9 1465.69 L1707.9 1462.5 Q1710.06 1460.26 1713.78 1456.5 Q1717.53 1452.72 1718.49 1451.63 Q1720.31 1449.58 1721.02 1448.16 Q1721.76 1446.74 1721.76 1445.36 Q1721.76 1443.12 1720.18 1441.71 Q1718.62 1440.3 1716.1 1440.3 Q1714.31 1440.3 1712.32 1440.92 Q1710.34 1441.54 1708.09 1442.8 L1708.09 1438.97 Q1710.38 1438.05 1712.37 1437.58 Q1714.37 1437.11 1716.02 1437.11 Q1720.39 1437.11 1722.98 1439.29 Q1725.58 1441.47 1725.58 1445.12 Q1725.58 1446.85 1724.92 1448.41 Q1724.28 1449.95 1722.57 1452.06 Q1722.1 1452.6 1719.58 1455.22 Q1717.06 1457.81 1712.47 1462.5 Z" fill="#000000" fill-rule="evenodd" fill-opacity="1" /><path clip-path="url(#clip480)" d="M 0 0 M1729.85 1460.92 L1733.81 1460.92 L1733.81 1465.69 L1729.85 1465.69 L1729.85 1460.92 Z" fill="#000000" fill-rule="evenodd" fill-opacity="1" /><path clip-path="url(#clip480)" d="M 0 0 M1746.06 1452.36 Q1743.35 1452.36 1741.79 1453.81 Q1740.25 1455.26 1740.25 1457.79 Q1740.25 1460.33 1741.79 1461.78 Q1743.35 1463.23 1746.06 1463.23 Q1748.77 1463.23 1750.33 1461.78 Q1751.89 1460.31 1751.89 1457.79 Q1751.89 1455.26 1750.33 1453.81 Q1748.79 1452.36 1746.06 1452.36 M1742.26 1450.74 Q1739.81 1450.14 1738.44 1448.47 Q1737.09 1446.79 1737.09 1444.38 Q1737.09 1441.02 1739.48 1439.06 Q1741.88 1437.11 1746.06 1437.11 Q1750.25 1437.11 1752.64 1439.06 Q1755.03 1441.02 1755.03 1444.38 Q1755.03 1446.79 1753.66 1448.47 Q1752.3 1450.14 1749.88 1450.74 Q1752.62 1451.38 1754.15 1453.24 Q1755.69 1455.1 1755.69 1457.79 Q1755.69 1461.88 1753.19 1464.06 Q1750.7 1466.24 1746.06 1466.24 Q1741.41 1466.24 1738.91 1464.06 Q1736.43 1461.88 1736.43 1457.79 Q1736.43 1455.1 1737.97 1453.24 Q1739.51 1451.38 1742.26 1450.74 M1740.87 1444.74 Q1740.87 1446.92 1742.22 1448.15 Q1743.59 1449.37 1746.06 1449.37 Q1748.5 1449.37 1749.88 1448.15 Q1751.27 1446.92 1751.27 1444.74 Q1751.27 1442.56 1749.88 1441.34 Q1748.5 1440.11 1746.06 1440.11 Q1743.59 1440.11 1742.22 1441.34 Q1740.87 1442.56 1740.87 1444.74 Z" fill="#000000" fill-rule="evenodd" fill-opacity="1" /><path clip-path="url(#clip480)" d="M 0 0 M2032.86 1489.17 L2040.5 1489.17 L2040.5 1462.8 L2032.19 1464.47 L2032.19 1460.21 L2040.46 1458.54 L2045.13 1458.54 L2045.13 1489.17 L2052.77 1489.17 L2052.77 1493.1 L2032.86 1493.1 L2032.86 1489.17 Z" fill="#000000" fill-rule="evenodd" fill-opacity="1" /><path clip-path="url(#clip480)" d="M 0 0 M2067.84 1461.62 Q2064.23 1461.62 2062.4 1465.19 Q2060.6 1468.73 2060.6 1475.86 Q2060.6 1482.97 2062.4 1486.53 Q2064.23 1490.07 2067.84 1490.07 Q2071.48 1490.07 2073.28 1486.53 Q2075.11 1482.97 2075.11 1475.86 Q2075.11 1468.73 2073.28 1465.19 Q2071.48 1461.62 2067.84 1461.62 M2067.84 1457.92 Q2073.65 1457.92 2076.71 1462.53 Q2079.79 1467.11 2079.79 1475.86 Q2079.79 1484.59 2076.71 1489.19 Q2073.65 1493.78 2067.84 1493.78 Q2062.03 1493.78 2058.95 1489.19 Q2055.9 1484.59 2055.9 1475.86 Q2055.9 1467.11 2058.95 1462.53 Q2062.03 1457.92 2067.84 1457.92 Z" fill="#000000" fill-rule="evenodd" fill-opacity="1" /><path clip-path="url(#clip480)" d="M 0 0 M2079.79 1452.02 L2103.9 1452.02 L2103.9 1455.22 L2079.79 1455.22 L2079.79 1452.02 Z" fill="#000000" fill-rule="evenodd" fill-opacity="1" /><path clip-path="url(#clip480)" d="M 0 0 M2111.29 1462.5 L2124.55 1462.5 L2124.55 1465.69 L2106.72 1465.69 L2106.72 1462.5 Q2108.88 1460.26 2112.61 1456.5 Q2116.35 1452.72 2117.31 1451.63 Q2119.13 1449.58 2119.85 1448.16 Q2120.58 1446.74 2120.58 1445.36 Q2120.58 1443.12 2119 1441.71 Q2117.44 1440.3 2114.92 1440.3 Q2113.13 1440.3 2111.14 1440.92 Q2109.16 1441.54 2106.91 1442.8 L2106.91 1438.97 Q2109.2 1438.05 2111.19 1437.58 Q2113.19 1437.11 2114.84 1437.11 Q2119.21 1437.11 2121.8 1439.29 Q2124.4 1441.47 2124.4 1445.12 Q2124.4 1446.85 2123.74 1448.41 Q2123.1 1449.95 2121.39 1452.06 Q2120.92 1452.6 2118.4 1455.22 Q2115.88 1457.81 2111.29 1462.5 Z" fill="#000000" fill-rule="evenodd" fill-opacity="1" /><path clip-path="url(#clip480)" d="M 0 0 M2128.67 1460.92 L2132.64 1460.92 L2132.64 1465.69 L2128.67 1465.69 L2128.67 1460.92 Z" fill="#000000" fill-rule="evenodd" fill-opacity="1" /><path clip-path="url(#clip480)" d="M 0 0 M2145.35 1450.14 Q2142.79 1450.14 2141.29 1451.89 Q2139.8 1453.64 2139.8 1456.68 Q2139.8 1459.71 2141.29 1461.48 Q2142.79 1463.23 2145.35 1463.23 Q2147.91 1463.23 2149.39 1461.48 Q2150.9 1459.71 2150.9 1456.68 Q2150.9 1453.64 2149.39 1451.89 Q2147.91 1450.14 2145.35 1450.14 M2152.89 1438.23 L2152.89 1441.69 Q2151.46 1441.02 2150 1440.66 Q2148.55 1440.3 2147.12 1440.3 Q2143.36 1440.3 2141.36 1442.84 Q2139.39 1445.38 2139.11 1450.52 Q2140.22 1448.88 2141.89 1448.01 Q2143.56 1447.13 2145.58 1447.13 Q2149.81 1447.13 2152.25 1449.71 Q2154.72 1452.26 2154.72 1456.68 Q2154.72 1461.01 2152.16 1463.62 Q2149.6 1466.24 2145.35 1466.24 Q2140.48 1466.24 2137.9 1462.51 Q2135.33 1458.77 2135.33 1451.68 Q2135.33 1445.02 2138.48 1441.07 Q2141.64 1437.11 2146.97 1437.11 Q2148.4 1437.11 2149.84 1437.39 Q2151.31 1437.67 2152.89 1438.23 Z" fill="#000000" fill-rule="evenodd" fill-opacity="1" /><path clip-path="url(#clip480)" d="M 0 0 M1227.13 1512.66 L1233.01 1512.66 L1233.01 1541.91 L1250.49 1526.54 L1257.97 1526.54 L1239.06 1543.22 L1258.76 1562.19 L1251.12 1562.19 L1233.01 1544.78 L1233.01 1562.19 L1227.13 1562.19 L1227.13 1512.66 Z" fill="#000000" fill-rule="evenodd" fill-opacity="1" /><path clip-path="url(#clip480)" d="M 0 0 M1291.99 1573.01 L1291.99 1577.56 L1258.13 1577.56 L1258.13 1573.01 L1291.99 1573.01 Z" fill="#000000" fill-rule="evenodd" fill-opacity="1" /><path clip-path="url(#clip480)" d="M 0 0 M1311.95 1530.64 Q1307.24 1530.64 1304.5 1534.34 Q1301.76 1538 1301.76 1544.39 Q1301.76 1550.79 1304.47 1554.48 Q1307.21 1558.14 1311.95 1558.14 Q1316.63 1558.14 1319.37 1554.45 Q1322.1 1550.76 1322.1 1544.39 Q1322.1 1538.06 1319.37 1534.37 Q1316.63 1530.64 1311.95 1530.64 M1311.95 1525.68 Q1319.59 1525.68 1323.95 1530.64 Q1328.31 1535.61 1328.31 1544.39 Q1328.31 1553.15 1323.95 1558.14 Q1319.59 1563.11 1311.95 1563.11 Q1304.28 1563.11 1299.92 1558.14 Q1295.59 1553.15 1295.59 1544.39 Q1295.59 1535.61 1299.92 1530.64 Q1304.28 1525.68 1311.95 1525.68 Z" fill="#000000" fill-rule="evenodd" fill-opacity="1" /><path clip-path="url(#clip480)" d="M 0 0 M1364.08 1540.67 L1364.08 1562.19 L1358.23 1562.19 L1358.23 1540.86 Q1358.23 1535.8 1356.25 1533.29 Q1354.28 1530.77 1350.33 1530.77 Q1345.59 1530.77 1342.85 1533.79 Q1340.12 1536.82 1340.12 1542.04 L1340.12 1562.19 L1334.23 1562.19 L1334.23 1526.54 L1340.12 1526.54 L1340.12 1532.08 Q1342.22 1528.86 1345.05 1527.27 Q1347.92 1525.68 1351.64 1525.68 Q1357.78 1525.68 1360.93 1529.5 Q1364.08 1533.29 1364.08 1540.67 Z" fill="#000000" fill-rule="evenodd" fill-opacity="1" /><polyline clip-path="url(#clip482)" style="stroke:#000000; stroke-width:2; stroke-opacity:0.1; fill:none" points="
  238.454,1200.26 2352.76,1200.26 
  "/>
<polyline clip-path="url(#clip482)" style="stroke:#000000; stroke-width:2; stroke-opacity:0.1; fill:none" points="
  238.454,963.35 2352.76,963.35 
  "/>
<polyline clip-path="url(#clip482)" style="stroke:#000000; stroke-width:2; stroke-opacity:0.1; fill:none" points="
  238.454,726.44 2352.76,726.44 
  "/>
<polyline clip-path="url(#clip482)" style="stroke:#000000; stroke-width:2; stroke-opacity:0.1; fill:none" points="
  238.454,489.531 2352.76,489.531 
  "/>
<polyline clip-path="url(#clip482)" style="stroke:#000000; stroke-width:2; stroke-opacity:0.1; fill:none" points="
  238.454,252.621 2352.76,252.621 
  "/>
<polyline clip-path="url(#clip480)" style="stroke:#000000; stroke-width:4; stroke-opacity:1; fill:none" points="
  238.454,1410.9 238.454,47.2441 
  "/>
<polyline clip-path="url(#clip480)" style="stroke:#000000; stroke-width:4; stroke-opacity:1; fill:none" points="
  238.454,1200.26 263.826,1200.26 
  "/>
<polyline clip-path="url(#clip480)" style="stroke:#000000; stroke-width:4; stroke-opacity:1; fill:none" points="
  238.454,963.35 263.826,963.35 
  "/>
<polyline clip-path="url(#clip480)" style="stroke:#000000; stroke-width:4; stroke-opacity:1; fill:none" points="
  238.454,726.44 263.826,726.44 
  "/>
<polyline clip-path="url(#clip480)" style="stroke:#000000; stroke-width:4; stroke-opacity:1; fill:none" points="
  238.454,489.531 263.826,489.531 
  "/>
<polyline clip-path="url(#clip480)" style="stroke:#000000; stroke-width:4; stroke-opacity:1; fill:none" points="
  238.454,252.621 263.826,252.621 
  "/>
<path clip-path="url(#clip480)" d="M 0 0 M127.015 1186.06 Q123.404 1186.06 121.575 1189.62 Q119.769 1193.16 119.769 1200.29 Q119.769 1207.4 121.575 1210.97 Q123.404 1214.51 127.015 1214.51 Q130.649 1214.51 132.455 1210.97 Q134.283 1207.4 134.283 1200.29 Q134.283 1193.16 132.455 1189.62 Q130.649 1186.06 127.015 1186.06 M127.015 1182.35 Q132.825 1182.35 135.88 1186.96 Q138.959 1191.54 138.959 1200.29 Q138.959 1209.02 135.88 1213.63 Q132.825 1218.21 127.015 1218.21 Q121.205 1218.21 118.126 1213.63 Q115.07 1209.02 115.07 1200.29 Q115.07 1191.54 118.126 1186.96 Q121.205 1182.35 127.015 1182.35 Z" fill="#000000" fill-rule="evenodd" fill-opacity="1" /><path clip-path="url(#clip480)" d="M 0 0 M144.029 1211.66 L148.913 1211.66 L148.913 1217.54 L144.029 1217.54 L144.029 1211.66 Z" fill="#000000" fill-rule="evenodd" fill-opacity="1" /><path clip-path="url(#clip480)" d="M 0 0 M164.561 1198.4 Q161.413 1198.4 159.561 1200.55 Q157.732 1202.7 157.732 1206.45 Q157.732 1210.18 159.561 1212.35 Q161.413 1214.51 164.561 1214.51 Q167.709 1214.51 169.538 1212.35 Q171.389 1210.18 171.389 1206.45 Q171.389 1202.7 169.538 1200.55 Q167.709 1198.4 164.561 1198.4 M173.843 1183.74 L173.843 1188 Q172.084 1187.17 170.278 1186.73 Q168.496 1186.29 166.737 1186.29 Q162.107 1186.29 159.653 1189.41 Q157.223 1192.54 156.876 1198.86 Q158.241 1196.84 160.302 1195.78 Q162.362 1194.69 164.839 1194.69 Q170.047 1194.69 173.056 1197.86 Q176.089 1201.01 176.089 1206.45 Q176.089 1211.78 172.94 1214.99 Q169.792 1218.21 164.561 1218.21 Q158.565 1218.21 155.394 1213.63 Q152.223 1209.02 152.223 1200.29 Q152.223 1192.1 156.112 1187.24 Q160.001 1182.35 166.552 1182.35 Q168.311 1182.35 170.093 1182.7 Q171.899 1183.05 173.843 1183.74 Z" fill="#000000" fill-rule="evenodd" fill-opacity="1" /><path clip-path="url(#clip480)" d="M 0 0 M195.325 1198.91 Q198.681 1199.62 200.556 1201.89 Q202.454 1204.16 202.454 1207.49 Q202.454 1212.61 198.936 1215.41 Q195.417 1218.21 188.936 1218.21 Q186.76 1218.21 184.445 1217.77 Q182.153 1217.35 179.7 1216.5 L179.7 1211.98 Q181.644 1213.12 183.959 1213.7 Q186.274 1214.28 188.797 1214.28 Q193.195 1214.28 195.487 1212.54 Q197.801 1210.8 197.801 1207.49 Q197.801 1204.44 195.649 1202.72 Q193.519 1200.99 189.7 1200.99 L185.672 1200.99 L185.672 1197.15 L189.885 1197.15 Q193.334 1197.15 195.163 1195.78 Q196.991 1194.39 196.991 1191.8 Q196.991 1189.14 195.093 1187.72 Q193.218 1186.29 189.7 1186.29 Q187.778 1186.29 185.579 1186.71 Q183.38 1187.12 180.741 1188 L180.741 1183.84 Q183.403 1183.09 185.718 1182.72 Q188.056 1182.35 190.116 1182.35 Q195.44 1182.35 198.542 1184.78 Q201.644 1187.19 201.644 1191.31 Q201.644 1194.18 200 1196.17 Q198.357 1198.14 195.325 1198.91 Z" fill="#000000" fill-rule="evenodd" fill-opacity="1" /><path clip-path="url(#clip480)" d="M 0 0 M126.205 949.148 Q122.593 949.148 120.765 952.713 Q118.959 956.255 118.959 963.385 Q118.959 970.491 120.765 974.056 Q122.593 977.597 126.205 977.597 Q129.839 977.597 131.644 974.056 Q133.473 970.491 133.473 963.385 Q133.473 956.255 131.644 952.713 Q129.839 949.148 126.205 949.148 M126.205 945.445 Q132.015 945.445 135.07 950.051 Q138.149 954.635 138.149 963.385 Q138.149 972.111 135.07 976.718 Q132.015 981.301 126.205 981.301 Q120.394 981.301 117.316 976.718 Q114.26 972.111 114.26 963.385 Q114.26 954.635 117.316 950.051 Q120.394 945.445 126.205 945.445 Z" fill="#000000" fill-rule="evenodd" fill-opacity="1" /><path clip-path="url(#clip480)" d="M 0 0 M143.218 974.75 L148.103 974.75 L148.103 980.63 L143.218 980.63 L143.218 974.75 Z" fill="#000000" fill-rule="evenodd" fill-opacity="1" /><path clip-path="url(#clip480)" d="M 0 0 M163.751 961.486 Q160.603 961.486 158.751 963.639 Q156.922 965.792 156.922 969.542 Q156.922 973.269 158.751 975.445 Q160.603 977.597 163.751 977.597 Q166.899 977.597 168.727 975.445 Q170.579 973.269 170.579 969.542 Q170.579 965.792 168.727 963.639 Q166.899 961.486 163.751 961.486 M173.033 946.834 L173.033 951.093 Q171.274 950.26 169.468 949.82 Q167.686 949.38 165.927 949.38 Q161.297 949.38 158.843 952.505 Q156.413 955.63 156.065 961.949 Q157.431 959.935 159.491 958.871 Q161.552 957.783 164.028 957.783 Q169.237 957.783 172.246 960.954 Q175.278 964.102 175.278 969.542 Q175.278 974.866 172.13 978.083 Q168.982 981.301 163.751 981.301 Q157.755 981.301 154.584 976.718 Q151.413 972.111 151.413 963.385 Q151.413 955.19 155.302 950.329 Q159.19 945.445 165.741 945.445 Q167.501 945.445 169.283 945.792 Q171.089 946.139 173.033 946.834 Z" fill="#000000" fill-rule="evenodd" fill-opacity="1" /><path clip-path="url(#clip480)" d="M 0 0 M190.926 961.486 Q187.778 961.486 185.926 963.639 Q184.098 965.792 184.098 969.542 Q184.098 973.269 185.926 975.445 Q187.778 977.597 190.926 977.597 Q194.075 977.597 195.903 975.445 Q197.755 973.269 197.755 969.542 Q197.755 965.792 195.903 963.639 Q194.075 961.486 190.926 961.486 M200.209 946.834 L200.209 951.093 Q198.45 950.26 196.644 949.82 Q194.862 949.38 193.102 949.38 Q188.473 949.38 186.019 952.505 Q183.588 955.63 183.241 961.949 Q184.607 959.935 186.667 958.871 Q188.727 957.783 191.204 957.783 Q196.412 957.783 199.422 960.954 Q202.454 964.102 202.454 969.542 Q202.454 974.866 199.306 978.083 Q196.158 981.301 190.926 981.301 Q184.931 981.301 181.76 976.718 Q178.589 972.111 178.589 963.385 Q178.589 955.19 182.477 950.329 Q186.366 945.445 192.917 945.445 Q194.676 945.445 196.459 945.792 Q198.264 946.139 200.209 946.834 Z" fill="#000000" fill-rule="evenodd" fill-opacity="1" /><path clip-path="url(#clip480)" d="M 0 0 M126.552 712.239 Q122.941 712.239 121.112 715.804 Q119.306 719.345 119.306 726.475 Q119.306 733.581 121.112 737.146 Q122.941 740.688 126.552 740.688 Q130.186 740.688 131.992 737.146 Q133.82 733.581 133.82 726.475 Q133.82 719.345 131.992 715.804 Q130.186 712.239 126.552 712.239 M126.552 708.535 Q132.362 708.535 135.417 713.142 Q138.496 717.725 138.496 726.475 Q138.496 735.202 135.417 739.808 Q132.362 744.392 126.552 744.392 Q120.742 744.392 117.663 739.808 Q114.607 735.202 114.607 726.475 Q114.607 717.725 117.663 713.142 Q120.742 708.535 126.552 708.535 Z" fill="#000000" fill-rule="evenodd" fill-opacity="1" /><path clip-path="url(#clip480)" d="M 0 0 M143.566 737.841 L148.45 737.841 L148.45 743.72 L143.566 743.72 L143.566 737.841 Z" fill="#000000" fill-rule="evenodd" fill-opacity="1" /><path clip-path="url(#clip480)" d="M 0 0 M164.098 724.577 Q160.95 724.577 159.098 726.73 Q157.269 728.882 157.269 732.632 Q157.269 736.359 159.098 738.535 Q160.95 740.688 164.098 740.688 Q167.246 740.688 169.075 738.535 Q170.927 736.359 170.927 732.632 Q170.927 728.882 169.075 726.73 Q167.246 724.577 164.098 724.577 M173.38 709.924 L173.38 714.183 Q171.621 713.35 169.815 712.91 Q168.033 712.47 166.274 712.47 Q161.644 712.47 159.19 715.595 Q156.76 718.72 156.413 725.04 Q157.778 723.026 159.839 721.961 Q161.899 720.873 164.376 720.873 Q169.584 720.873 172.593 724.045 Q175.626 727.193 175.626 732.632 Q175.626 737.956 172.477 741.174 Q169.329 744.392 164.098 744.392 Q158.103 744.392 154.931 739.808 Q151.76 735.202 151.76 726.475 Q151.76 718.281 155.649 713.42 Q159.538 708.535 166.089 708.535 Q167.848 708.535 169.63 708.883 Q171.436 709.23 173.38 709.924 Z" fill="#000000" fill-rule="evenodd" fill-opacity="1" /><path clip-path="url(#clip480)" d="M 0 0 M180.834 743.003 L180.834 738.744 Q182.593 739.577 184.399 740.017 Q186.204 740.456 187.94 740.456 Q192.57 740.456 195 737.355 Q197.454 734.23 197.801 727.887 Q196.459 729.878 194.399 730.943 Q192.338 732.007 189.838 732.007 Q184.653 732.007 181.621 728.882 Q178.612 725.734 178.612 720.295 Q178.612 714.97 181.76 711.753 Q184.908 708.535 190.139 708.535 Q196.135 708.535 199.283 713.142 Q202.454 717.725 202.454 726.475 Q202.454 734.646 198.565 739.531 Q194.7 744.392 188.149 744.392 Q186.389 744.392 184.584 744.044 Q182.778 743.697 180.834 743.003 M190.139 728.35 Q193.288 728.35 195.116 726.197 Q196.968 724.045 196.968 720.295 Q196.968 716.568 195.116 714.415 Q193.288 712.239 190.139 712.239 Q186.991 712.239 185.139 714.415 Q183.311 716.568 183.311 720.295 Q183.311 724.045 185.139 726.197 Q186.991 728.35 190.139 728.35 Z" fill="#000000" fill-rule="evenodd" fill-opacity="1" /><path clip-path="url(#clip480)" d="M 0 0 M129.029 475.33 Q125.418 475.33 123.589 478.894 Q121.783 482.436 121.783 489.566 Q121.783 496.672 123.589 500.237 Q125.418 503.778 129.029 503.778 Q132.663 503.778 134.468 500.237 Q136.297 496.672 136.297 489.566 Q136.297 482.436 134.468 478.894 Q132.663 475.33 129.029 475.33 M129.029 471.626 Q134.839 471.626 137.894 476.232 Q140.973 480.816 140.973 489.566 Q140.973 498.292 137.894 502.899 Q134.839 507.482 129.029 507.482 Q123.218 507.482 120.14 502.899 Q117.084 498.292 117.084 489.566 Q117.084 480.816 120.14 476.232 Q123.218 471.626 129.029 471.626 Z" fill="#000000" fill-rule="evenodd" fill-opacity="1" /><path clip-path="url(#clip480)" d="M 0 0 M146.042 500.931 L150.927 500.931 L150.927 506.811 L146.042 506.811 L146.042 500.931 Z" fill="#000000" fill-rule="evenodd" fill-opacity="1" /><path clip-path="url(#clip480)" d="M 0 0 M154.815 472.251 L177.038 472.251 L177.038 474.242 L164.491 506.811 L159.607 506.811 L171.413 476.186 L154.815 476.186 L154.815 472.251 Z" fill="#000000" fill-rule="evenodd" fill-opacity="1" /><path clip-path="url(#clip480)" d="M 0 0 M186.135 502.876 L202.454 502.876 L202.454 506.811 L180.51 506.811 L180.51 502.876 Q183.172 500.121 187.755 495.492 Q192.362 490.839 193.542 489.496 Q195.787 486.973 196.667 485.237 Q197.57 483.478 197.57 481.788 Q197.57 479.033 195.625 477.297 Q193.704 475.561 190.602 475.561 Q188.403 475.561 185.95 476.325 Q183.519 477.089 180.741 478.64 L180.741 473.918 Q183.565 472.783 186.019 472.205 Q188.473 471.626 190.51 471.626 Q195.88 471.626 199.075 474.311 Q202.269 476.996 202.269 481.487 Q202.269 483.617 201.459 485.538 Q200.672 487.436 198.565 490.029 Q197.987 490.7 194.885 493.917 Q191.783 497.112 186.135 502.876 Z" fill="#000000" fill-rule="evenodd" fill-opacity="1" /><path clip-path="url(#clip480)" d="M 0 0 M128.427 238.42 Q124.816 238.42 122.987 241.985 Q121.181 245.527 121.181 252.656 Q121.181 259.763 122.987 263.327 Q124.816 266.869 128.427 266.869 Q132.061 266.869 133.867 263.327 Q135.695 259.763 135.695 252.656 Q135.695 245.527 133.867 241.985 Q132.061 238.42 128.427 238.42 M128.427 234.716 Q134.237 234.716 137.292 239.323 Q140.371 243.906 140.371 252.656 Q140.371 261.383 137.292 265.989 Q134.237 270.573 128.427 270.573 Q122.617 270.573 119.538 265.989 Q116.482 261.383 116.482 252.656 Q116.482 243.906 119.538 239.323 Q122.617 234.716 128.427 234.716 Z" fill="#000000" fill-rule="evenodd" fill-opacity="1" /><path clip-path="url(#clip480)" d="M 0 0 M145.441 264.022 L150.325 264.022 L150.325 269.901 L145.441 269.901 L145.441 264.022 Z" fill="#000000" fill-rule="evenodd" fill-opacity="1" /><path clip-path="url(#clip480)" d="M 0 0 M154.214 235.341 L176.436 235.341 L176.436 237.332 L163.89 269.901 L159.005 269.901 L170.811 239.277 L154.214 239.277 L154.214 235.341 Z" fill="#000000" fill-rule="evenodd" fill-opacity="1" /><path clip-path="url(#clip480)" d="M 0 0 M181.551 235.341 L199.908 235.341 L199.908 239.277 L185.834 239.277 L185.834 247.749 Q186.852 247.402 187.871 247.24 Q188.889 247.054 189.908 247.054 Q195.695 247.054 199.075 250.226 Q202.454 253.397 202.454 258.814 Q202.454 264.392 198.982 267.494 Q195.51 270.573 189.19 270.573 Q187.014 270.573 184.746 270.202 Q182.501 269.832 180.093 269.091 L180.093 264.392 Q182.176 265.526 184.399 266.082 Q186.621 266.638 189.098 266.638 Q193.102 266.638 195.44 264.531 Q197.778 262.425 197.778 258.814 Q197.778 255.202 195.44 253.096 Q193.102 250.99 189.098 250.99 Q187.223 250.99 185.348 251.406 Q183.496 251.823 181.551 252.702 L181.551 235.341 Z" fill="#000000" fill-rule="evenodd" fill-opacity="1" /><path clip-path="url(#clip480)" d="M 0 0 M59.1993 815.533 Q55.2526 813.336 53.3747 810.281 Q51.4968 807.225 51.4968 803.088 Q51.4968 797.518 55.4117 794.494 Q59.2948 791.47 66.4881 791.47 L88.0042 791.47 L88.0042 797.358 L66.679 797.358 Q61.5546 797.358 59.072 799.173 Q56.5894 800.987 56.5894 804.711 Q56.5894 809.262 59.6131 811.904 Q62.6368 814.546 67.8567 814.546 L88.0042 814.546 L88.0042 820.434 L66.679 820.434 Q61.5228 820.434 59.072 822.248 Q56.5894 824.063 56.5894 827.85 Q56.5894 832.338 59.6449 834.98 Q62.6686 837.622 67.8567 837.622 L88.0042 837.622 L88.0042 843.51 L52.3562 843.51 L52.3562 837.622 L57.8944 837.622 Q54.616 835.616 53.0564 832.815 Q51.4968 830.015 51.4968 826.163 Q51.4968 822.28 53.4702 819.575 Q55.4436 816.838 59.1993 815.533 Z" fill="#000000" fill-rule="evenodd" fill-opacity="1" /><path clip-path="url(#clip480)" d="M 0 0 M52.3562 785.327 L52.3562 779.471 L88.0042 779.471 L88.0042 785.327 L52.3562 785.327 M38.479 785.327 L38.479 779.471 L45.895 779.471 L45.895 785.327 L38.479 785.327 Z" fill="#000000" fill-rule="evenodd" fill-opacity="1" /><path clip-path="url(#clip480)" d="M 0 0 M66.4881 743.696 L88.0042 743.696 L88.0042 749.552 L66.679 749.552 Q61.6183 749.552 59.1038 751.525 Q56.5894 753.499 56.5894 757.446 Q56.5894 762.188 59.6131 764.925 Q62.6368 767.662 67.8567 767.662 L88.0042 767.662 L88.0042 773.551 L52.3562 773.551 L52.3562 767.662 L57.8944 767.662 Q54.6797 765.562 53.0883 762.729 Q51.4968 759.864 51.4968 756.141 Q51.4968 749.998 55.3163 746.847 Q59.1038 743.696 66.4881 743.696 Z" fill="#000000" fill-rule="evenodd" fill-opacity="1" /><path clip-path="url(#clip480)" d="M 0 0 M98.8259 710.467 L103.377 710.467 L103.377 744.332 L98.8259 744.332 L98.8259 710.467 Z" fill="#000000" fill-rule="evenodd" fill-opacity="1" /><path clip-path="url(#clip480)" d="M 0 0 M57.7671 680.866 L38.479 680.866 L38.479 675.01 L88.0042 675.01 L88.0042 680.866 L82.657 680.866 Q85.8398 682.712 87.3994 685.545 Q88.9272 688.346 88.9272 692.292 Q88.9272 698.754 83.771 702.828 Q78.6147 706.87 70.212 706.87 Q61.8093 706.87 56.6531 702.828 Q51.4968 698.754 51.4968 692.292 Q51.4968 688.346 53.0564 685.545 Q54.5842 682.712 57.7671 680.866 M70.212 700.823 Q76.6732 700.823 80.3653 698.181 Q84.0256 695.507 84.0256 690.86 Q84.0256 686.213 80.3653 683.54 Q76.6732 680.866 70.212 680.866 Q63.7508 680.866 60.0905 683.54 Q56.3984 686.213 56.3984 690.86 Q56.3984 695.507 60.0905 698.181 Q63.7508 700.823 70.212 700.823 Z" fill="#000000" fill-rule="evenodd" fill-opacity="1" /><path clip-path="url(#clip480)" d="M 0 0 M52.3562 668.867 L52.3562 663.01 L88.0042 663.01 L88.0042 668.867 L52.3562 668.867 M38.479 668.867 L38.479 663.01 L45.895 663.01 L45.895 668.867 L38.479 668.867 Z" fill="#000000" fill-rule="evenodd" fill-opacity="1" /><path clip-path="url(#clip480)" d="M 0 0 M38.479 638.821 L43.3487 638.821 L43.3487 644.422 Q43.3487 647.573 44.6219 648.815 Q45.895 650.024 49.2052 650.024 L52.3562 650.024 L52.3562 640.38 L56.9077 640.38 L56.9077 650.024 L88.0042 650.024 L88.0042 655.912 L56.9077 655.912 L56.9077 661.514 L52.3562 661.514 L52.3562 655.912 L49.8736 655.912 Q43.9216 655.912 41.2162 653.143 Q38.479 650.374 38.479 644.359 L38.479 638.821 Z" fill="#000000" fill-rule="evenodd" fill-opacity="1" /><path clip-path="url(#clip480)" d="M 0 0 M38.479 614.631 L43.3487 614.631 L43.3487 620.233 Q43.3487 623.384 44.6219 624.625 Q45.895 625.835 49.2052 625.835 L52.3562 625.835 L52.3562 616.19 L56.9077 616.19 L56.9077 625.835 L88.0042 625.835 L88.0042 631.723 L56.9077 631.723 L56.9077 637.325 L52.3562 637.325 L52.3562 631.723 L49.8736 631.723 Q43.9216 631.723 41.2162 628.954 Q38.479 626.185 38.479 620.169 L38.479 614.631 Z" fill="#000000" fill-rule="evenodd" fill-opacity="1" /><polyline clip-path="url(#clip482)" style="stroke:#009af9; stroke-width:20; stroke-opacity:1; fill:none" stroke-dasharray="80, 50" points="
  298.293,85.838 1295.61,1372.3 2292.92,89.1673 
  "/>
<path clip-path="url(#clip480)" d="
M1996.34 213.659 L2282.28 213.659 L2282.28 92.6992 L1996.34 92.6992  Z
  " fill="#ffffff" fill-rule="evenodd" fill-opacity="1"/>
<polyline clip-path="url(#clip480)" style="stroke:#000000; stroke-width:4; stroke-opacity:1; fill:none" points="
  1996.34,213.659 2282.28,213.659 2282.28,92.6992 1996.34,92.6992 1996.34,213.659 
  "/>
<polyline clip-path="url(#clip480)" style="stroke:#009af9; stroke-width:4; stroke-opacity:1; fill:none" stroke-dasharray="16, 10" points="
  2019.83,153.179 2160.78,153.179 
  "/>
<path clip-path="url(#clip480)" d="M 0 0 M2198.12 172.867 Q2196.31 177.496 2194.6 178.908 Q2192.89 180.32 2190.02 180.32 L2186.61 180.32 L2186.61 176.755 L2189.11 176.755 Q2190.87 176.755 2191.85 175.922 Q2192.82 175.089 2194 171.987 L2194.76 170.043 L2184.28 144.533 L2188.79 144.533 L2196.89 164.811 L2204.99 144.533 L2209.51 144.533 L2198.12 172.867 Z" fill="#000000" fill-rule="evenodd" fill-opacity="1" /><path clip-path="url(#clip480)" d="M 0 0 M2215.39 166.524 L2223.03 166.524 L2223.03 140.158 L2214.72 141.825 L2214.72 137.566 L2222.98 135.899 L2227.66 135.899 L2227.66 166.524 L2235.29 166.524 L2235.29 170.459 L2215.39 170.459 L2215.39 166.524 Z" fill="#000000" fill-rule="evenodd" fill-opacity="1" /></svg>
