<?xml version="1.0" encoding="utf-8"?>
<svg xmlns="http://www.w3.org/2000/svg" xmlns:xlink="http://www.w3.org/1999/xlink" width="600" height="400" viewBox="0 0 2400 1600">
<defs>
  <clipPath id="clip700">
    <rect x="0" y="0" width="2400" height="1600"/>
  </clipPath>
</defs>
<path clip-path="url(#clip700)" d="
M0 1600 L2400 1600 L2400 0 L0 0  Z
  " fill="#ffffff" fill-rule="evenodd" fill-opacity="1"/>
<defs>
  <clipPath id="clip701">
    <rect x="480" y="0" width="1681" height="1600"/>
  </clipPath>
</defs>
<path clip-path="url(#clip700)" d="
M211.07 1410.9 L2352.76 1410.9 L2352.76 47.2441 L211.07 47.2441  Z
  " fill="#ffffff" fill-rule="evenodd" fill-opacity="1"/>
<defs>
  <clipPath id="clip702">
    <rect x="211" y="47" width="2143" height="1365"/>
  </clipPath>
</defs>
<polyline clip-path="url(#clip702)" style="stroke:#000000; stroke-width:2; stroke-opacity:0.1; fill:none" points="
  271.684,1410.9 271.684,47.2441 
  "/>
<polyline clip-path="url(#clip702)" style="stroke:#000000; stroke-width:2; stroke-opacity:0.1; fill:none" points="
  776.798,1410.9 776.798,47.2441 
  "/>
<polyline clip-path="url(#clip702)" style="stroke:#000000; stroke-width:2; stroke-opacity:0.1; fill:none" points="
  1281.91,1410.9 1281.91,47.2441 
  "/>
<polyline clip-path="url(#clip702)" style="stroke:#000000; stroke-width:2; stroke-opacity:0.1; fill:none" points="
  1787.03,1410.9 1787.03,47.2441 
  "/>
<polyline clip-path="url(#clip702)" style="stroke:#000000; stroke-width:2; stroke-opacity:0.1; fill:none" points="
  2292.14,1410.9 2292.14,47.2441 
  "/>
<polyline clip-path="url(#clip700)" style="stroke:#000000; stroke-width:4; stroke-opacity:1; fill:none" points="
  211.07,1410.9 2352.76,1410.9 
  "/>
<polyline clip-path="url(#clip700)" style="stroke:#000000; stroke-width:4; stroke-opacity:1; fill:none" points="
  271.684,1410.9 271.684,1394.53 
  "/>
<polyline clip-path="url(#clip700)" style="stroke:#000000; stroke-width:4; stroke-opacity:1; fill:none" points="
  776.798,1410.9 776.798,1394.53 
  "/>
<polyline clip-path="url(#clip700)" style="stroke:#000000; stroke-width:4; stroke-opacity:1; fill:none" points="
  1281.91,1410.9 1281.91,1394.53 
  "/>
<polyline clip-path="url(#clip700)" style="stroke:#000000; stroke-width:4; stroke-opacity:1; fill:none" points="
  1787.03,1410.9 1787.03,1394.53 
  "/>
<polyline clip-path="url(#clip700)" style="stroke:#000000; stroke-width:4; stroke-opacity:1; fill:none" points="
  2292.14,1410.9 2292.14,1394.53 
  "/>
<path clip-path="url(#clip700)" d="M 0 0 M210.915 1489.17 L218.554 1489.17 L218.554 1462.8 L210.244 1464.47 L210.244 1460.21 L218.508 1458.54 L223.184 1458.54 L223.184 1489.17 L230.822 1489.17 L230.822 1493.1 L210.915 1493.1 L210.915 1489.17 Z" fill="#000000" fill-rule="evenodd" fill-opacity="1" /><path clip-path="url(#clip700)" d="M 0 0 M245.892 1461.62 Q242.281 1461.62 240.452 1465.19 Q238.646 1468.73 238.646 1475.86 Q238.646 1482.97 240.452 1486.53 Q242.281 1490.07 245.892 1490.07 Q249.526 1490.07 251.332 1486.53 Q253.16 1482.97 253.16 1475.86 Q253.16 1468.73 251.332 1465.19 Q249.526 1461.62 245.892 1461.62 M245.892 1457.92 Q251.702 1457.92 254.757 1462.53 Q257.836 1467.11 257.836 1475.86 Q257.836 1484.59 254.757 1489.19 Q251.702 1493.78 245.892 1493.78 Q240.082 1493.78 237.003 1489.19 Q233.947 1484.59 233.947 1475.86 Q233.947 1467.11 237.003 1462.53 Q240.082 1457.92 245.892 1457.92 Z" fill="#000000" fill-rule="evenodd" fill-opacity="1" /><path clip-path="url(#clip700)" d="M 0 0 M257.836 1452.02 L281.948 1452.02 L281.948 1455.22 L257.836 1455.22 L257.836 1452.02 Z" fill="#000000" fill-rule="evenodd" fill-opacity="1" /><path clip-path="url(#clip700)" d="M 0 0 M286.104 1437.61 L301.019 1437.61 L301.019 1440.81 L289.584 1440.81 L289.584 1447.69 Q290.411 1447.41 291.239 1447.28 Q292.066 1447.13 292.894 1447.13 Q297.596 1447.13 300.342 1449.71 Q303.088 1452.28 303.088 1456.68 Q303.088 1461.22 300.267 1463.74 Q297.445 1466.24 292.311 1466.24 Q290.543 1466.24 288.7 1465.94 Q286.875 1465.64 284.919 1465.04 L284.919 1461.22 Q286.612 1462.14 288.418 1462.59 Q290.223 1463.04 292.236 1463.04 Q295.489 1463.04 297.389 1461.33 Q299.289 1459.62 299.289 1456.68 Q299.289 1453.75 297.389 1452.04 Q295.489 1450.33 292.236 1450.33 Q290.712 1450.33 289.189 1450.67 Q287.684 1451 286.104 1451.72 L286.104 1437.61 Z" fill="#000000" fill-rule="evenodd" fill-opacity="1" /><path clip-path="url(#clip700)" d="M 0 0 M307.207 1460.92 L311.175 1460.92 L311.175 1465.69 L307.207 1465.69 L307.207 1460.92 Z" fill="#000000" fill-rule="evenodd" fill-opacity="1" /><path clip-path="url(#clip700)" d="M 0 0 M323.419 1440.11 Q320.485 1440.11 318.999 1443.01 Q317.532 1445.89 317.532 1451.68 Q317.532 1457.46 318.999 1460.35 Q320.485 1463.23 323.419 1463.23 Q326.372 1463.23 327.839 1460.35 Q329.325 1457.46 329.325 1451.68 Q329.325 1445.89 327.839 1443.01 Q326.372 1440.11 323.419 1440.11 M323.419 1437.11 Q328.14 1437.11 330.622 1440.85 Q333.124 1444.57 333.124 1451.68 Q333.124 1458.77 330.622 1462.51 Q328.14 1466.24 323.419 1466.24 Q318.698 1466.24 316.197 1462.51 Q313.714 1458.77 313.714 1451.68 Q313.714 1444.57 316.197 1440.85 Q318.698 1437.11 323.419 1437.11 Z" fill="#000000" fill-rule="evenodd" fill-opacity="1" /><path clip-path="url(#clip700)" d="M 0 0 M715.832 1489.17 L723.471 1489.17 L723.471 1462.8 L715.161 1464.47 L715.161 1460.21 L723.425 1458.54 L728.101 1458.54 L728.101 1489.17 L735.74 1489.17 L735.74 1493.1 L715.832 1493.1 L715.832 1489.17 Z" fill="#000000" fill-rule="evenodd" fill-opacity="1" /><path clip-path="url(#clip700)" d="M 0 0 M750.809 1461.62 Q747.198 1461.62 745.369 1465.19 Q743.564 1468.73 743.564 1475.86 Q743.564 1482.97 745.369 1486.53 Q747.198 1490.07 750.809 1490.07 Q754.443 1490.07 756.249 1486.53 Q758.077 1482.97 758.077 1475.86 Q758.077 1468.73 756.249 1465.19 Q754.443 1461.62 750.809 1461.62 M750.809 1457.92 Q756.619 1457.92 759.675 1462.53 Q762.753 1467.11 762.753 1475.86 Q762.753 1484.59 759.675 1489.19 Q756.619 1493.78 750.809 1493.78 Q744.999 1493.78 741.92 1489.19 Q738.865 1484.59 738.865 1475.86 Q738.865 1467.11 741.92 1462.53 Q744.999 1457.92 750.809 1457.92 Z" fill="#000000" fill-rule="evenodd" fill-opacity="1" /><path clip-path="url(#clip700)" d="M 0 0 M762.753 1452.02 L786.865 1452.02 L786.865 1455.22 L762.753 1455.22 L762.753 1452.02 Z" fill="#000000" fill-rule="evenodd" fill-opacity="1" /><path clip-path="url(#clip700)" d="M 0 0 M801.422 1440.92 L791.83 1455.91 L801.422 1455.91 L801.422 1440.92 M800.425 1437.61 L805.202 1437.61 L805.202 1455.91 L809.208 1455.91 L809.208 1459.07 L805.202 1459.07 L805.202 1465.69 L801.422 1465.69 L801.422 1459.07 L788.746 1459.07 L788.746 1455.41 L800.425 1437.61 Z" fill="#000000" fill-rule="evenodd" fill-opacity="1" /><path clip-path="url(#clip700)" d="M 0 0 M813.327 1460.92 L817.296 1460.92 L817.296 1465.69 L813.327 1465.69 L813.327 1460.92 Z" fill="#000000" fill-rule="evenodd" fill-opacity="1" /><path clip-path="url(#clip700)" d="M 0 0 M821.452 1437.61 L836.367 1437.61 L836.367 1440.81 L824.932 1440.81 L824.932 1447.69 Q825.759 1447.41 826.587 1447.28 Q827.414 1447.13 828.242 1447.13 Q832.944 1447.13 835.69 1449.71 Q838.436 1452.28 838.436 1456.68 Q838.436 1461.22 835.615 1463.74 Q832.793 1466.24 827.659 1466.24 Q825.891 1466.24 824.048 1465.94 Q822.223 1465.64 820.267 1465.04 L820.267 1461.22 Q821.96 1462.14 823.766 1462.59 Q825.571 1463.04 827.584 1463.04 Q830.837 1463.04 832.737 1461.33 Q834.637 1459.62 834.637 1456.68 Q834.637 1453.75 832.737 1452.04 Q830.837 1450.33 827.584 1450.33 Q826.06 1450.33 824.537 1450.67 Q823.032 1451 821.452 1451.72 L821.452 1437.61 Z" fill="#000000" fill-rule="evenodd" fill-opacity="1" /><path clip-path="url(#clip700)" d="M 0 0 M1220.54 1489.17 L1228.18 1489.17 L1228.18 1462.8 L1219.87 1464.47 L1219.87 1460.21 L1228.14 1458.54 L1232.81 1458.54 L1232.81 1489.17 L1240.45 1489.17 L1240.45 1493.1 L1220.54 1493.1 L1220.54 1489.17 Z" fill="#000000" fill-rule="evenodd" fill-opacity="1" /><path clip-path="url(#clip700)" d="M 0 0 M1255.52 1461.62 Q1251.91 1461.62 1250.08 1465.19 Q1248.27 1468.73 1248.27 1475.86 Q1248.27 1482.97 1250.08 1486.53 Q1251.91 1490.07 1255.52 1490.07 Q1259.15 1490.07 1260.96 1486.53 Q1262.79 1482.97 1262.79 1475.86 Q1262.79 1468.73 1260.96 1465.19 Q1259.15 1461.62 1255.52 1461.62 M1255.52 1457.92 Q1261.33 1457.92 1264.38 1462.53 Q1267.46 1467.11 1267.46 1475.86 Q1267.46 1484.59 1264.38 1489.19 Q1261.33 1493.78 1255.52 1493.78 Q1249.71 1493.78 1246.63 1489.19 Q1243.57 1484.59 1243.57 1475.86 Q1243.57 1467.11 1246.63 1462.53 Q1249.71 1457.92 1255.52 1457.92 Z" fill="#000000" fill-rule="evenodd" fill-opacity="1" /><path clip-path="url(#clip700)" d="M 0 0 M1267.46 1452.02 L1291.58 1452.02 L1291.58 1455.22 L1267.46 1455.22 L1267.46 1452.02 Z" fill="#000000" fill-rule="evenodd" fill-opacity="1" /><path clip-path="url(#clip700)" d="M 0 0 M1306.13 1440.92 L1296.54 1455.91 L1306.13 1455.91 L1306.13 1440.92 M1305.14 1437.61 L1309.91 1437.61 L1309.91 1455.91 L1313.92 1455.91 L1313.92 1459.07 L1309.91 1459.07 L1309.91 1465.69 L1306.13 1465.69 L1306.13 1459.07 L1293.46 1459.07 L1293.46 1455.41 L1305.14 1437.61 Z" fill="#000000" fill-rule="evenodd" fill-opacity="1" /><path clip-path="url(#clip700)" d="M 0 0 M1318.04 1460.92 L1322.01 1460.92 L1322.01 1465.69 L1318.04 1465.69 L1318.04 1460.92 Z" fill="#000000" fill-rule="evenodd" fill-opacity="1" /><path clip-path="url(#clip700)" d="M 0 0 M1334.25 1440.11 Q1331.32 1440.11 1329.83 1443.01 Q1328.36 1445.89 1328.36 1451.68 Q1328.36 1457.46 1329.83 1460.35 Q1331.32 1463.23 1334.25 1463.23 Q1337.2 1463.23 1338.67 1460.35 Q1340.16 1457.46 1340.16 1451.68 Q1340.16 1445.89 1338.67 1443.01 Q1337.2 1440.11 1334.25 1440.11 M1334.25 1437.11 Q1338.97 1437.11 1341.45 1440.85 Q1343.95 1444.57 1343.95 1451.68 Q1343.95 1458.77 1341.45 1462.51 Q1338.97 1466.24 1334.25 1466.24 Q1329.53 1466.24 1327.03 1462.51 Q1324.55 1458.77 1324.55 1451.68 Q1324.55 1444.57 1327.03 1440.85 Q1329.53 1437.11 1334.25 1437.11 Z" fill="#000000" fill-rule="evenodd" fill-opacity="1" /><path clip-path="url(#clip700)" d="M 0 0 M1726.52 1489.17 L1734.16 1489.17 L1734.16 1462.8 L1725.85 1464.47 L1725.85 1460.21 L1734.11 1458.54 L1738.79 1458.54 L1738.79 1489.17 L1746.43 1489.17 L1746.43 1493.1 L1726.52 1493.1 L1726.52 1489.17 Z" fill="#000000" fill-rule="evenodd" fill-opacity="1" /><path clip-path="url(#clip700)" d="M 0 0 M1761.5 1461.62 Q1757.89 1461.62 1756.06 1465.19 Q1754.25 1468.73 1754.25 1475.86 Q1754.25 1482.97 1756.06 1486.53 Q1757.89 1490.07 1761.5 1490.07 Q1765.13 1490.07 1766.94 1486.53 Q1768.77 1482.97 1768.77 1475.86 Q1768.77 1468.73 1766.94 1465.19 Q1765.13 1461.62 1761.5 1461.62 M1761.5 1457.92 Q1767.31 1457.92 1770.36 1462.53 Q1773.44 1467.11 1773.44 1475.86 Q1773.44 1484.59 1770.36 1489.19 Q1767.31 1493.78 1761.5 1493.78 Q1755.69 1493.78 1752.61 1489.19 Q1749.55 1484.59 1749.55 1475.86 Q1749.55 1467.11 1752.61 1462.53 Q1755.69 1457.92 1761.5 1457.92 Z" fill="#000000" fill-rule="evenodd" fill-opacity="1" /><path clip-path="url(#clip700)" d="M 0 0 M1773.44 1452.02 L1797.55 1452.02 L1797.55 1455.22 L1773.44 1455.22 L1773.44 1452.02 Z" fill="#000000" fill-rule="evenodd" fill-opacity="1" /><path clip-path="url(#clip700)" d="M 0 0 M1813.18 1450.55 Q1815.91 1451.14 1817.43 1452.98 Q1818.98 1454.82 1818.98 1457.53 Q1818.98 1461.69 1816.12 1463.96 Q1813.26 1466.24 1807.99 1466.24 Q1806.23 1466.24 1804.34 1465.88 Q1802.48 1465.54 1800.49 1464.85 L1800.49 1461.18 Q1802.07 1462.1 1803.95 1462.57 Q1805.83 1463.04 1807.88 1463.04 Q1811.45 1463.04 1813.32 1461.63 Q1815.2 1460.22 1815.2 1457.53 Q1815.2 1455.05 1813.45 1453.66 Q1811.72 1452.25 1808.61 1452.25 L1805.34 1452.25 L1805.34 1449.12 L1808.76 1449.12 Q1811.57 1449.12 1813.05 1448.01 Q1814.54 1446.89 1814.54 1444.78 Q1814.54 1442.62 1813 1441.47 Q1811.47 1440.3 1808.61 1440.3 Q1807.05 1440.3 1805.27 1440.64 Q1803.48 1440.98 1801.34 1441.69 L1801.34 1438.31 Q1803.5 1437.71 1805.38 1437.41 Q1807.28 1437.11 1808.95 1437.11 Q1813.28 1437.11 1815.8 1439.08 Q1818.32 1441.04 1818.32 1444.38 Q1818.32 1446.72 1816.98 1448.33 Q1815.65 1449.93 1813.18 1450.55 Z" fill="#000000" fill-rule="evenodd" fill-opacity="1" /><path clip-path="url(#clip700)" d="M 0 0 M1823.1 1460.92 L1827.06 1460.92 L1827.06 1465.69 L1823.1 1465.69 L1823.1 1460.92 Z" fill="#000000" fill-rule="evenodd" fill-opacity="1" /><path clip-path="url(#clip700)" d="M 0 0 M1831.22 1437.61 L1846.14 1437.61 L1846.14 1440.81 L1834.7 1440.81 L1834.7 1447.69 Q1835.53 1447.41 1836.36 1447.28 Q1837.18 1447.13 1838.01 1447.13 Q1842.71 1447.13 1845.46 1449.71 Q1848.2 1452.28 1848.2 1456.68 Q1848.2 1461.22 1845.38 1463.74 Q1842.56 1466.24 1837.43 1466.24 Q1835.66 1466.24 1833.82 1465.94 Q1831.99 1465.64 1830.04 1465.04 L1830.04 1461.22 Q1831.73 1462.14 1833.53 1462.59 Q1835.34 1463.04 1837.35 1463.04 Q1840.61 1463.04 1842.51 1461.33 Q1844.4 1459.62 1844.4 1456.68 Q1844.4 1453.75 1842.51 1452.04 Q1840.61 1450.33 1837.35 1450.33 Q1835.83 1450.33 1834.31 1450.67 Q1832.8 1451 1831.22 1451.72 L1831.22 1437.61 Z" fill="#000000" fill-rule="evenodd" fill-opacity="1" /><path clip-path="url(#clip700)" d="M 0 0 M2231.23 1489.17 L2238.87 1489.17 L2238.87 1462.8 L2230.56 1464.47 L2230.56 1460.21 L2238.83 1458.54 L2243.5 1458.54 L2243.5 1489.17 L2251.14 1489.17 L2251.14 1493.1 L2231.23 1493.1 L2231.23 1489.17 Z" fill="#000000" fill-rule="evenodd" fill-opacity="1" /><path clip-path="url(#clip700)" d="M 0 0 M2266.21 1461.62 Q2262.6 1461.62 2260.77 1465.19 Q2258.96 1468.73 2258.96 1475.86 Q2258.96 1482.97 2260.77 1486.53 Q2262.6 1490.07 2266.21 1490.07 Q2269.84 1490.07 2271.65 1486.53 Q2273.48 1482.97 2273.48 1475.86 Q2273.48 1468.73 2271.65 1465.19 Q2269.84 1461.62 2266.21 1461.62 M2266.21 1457.92 Q2272.02 1457.92 2275.07 1462.53 Q2278.15 1467.11 2278.15 1475.86 Q2278.15 1484.59 2275.07 1489.19 Q2272.02 1493.78 2266.21 1493.78 Q2260.4 1493.78 2257.32 1489.19 Q2254.26 1484.59 2254.26 1475.86 Q2254.26 1467.11 2257.32 1462.53 Q2260.4 1457.92 2266.21 1457.92 Z" fill="#000000" fill-rule="evenodd" fill-opacity="1" /><path clip-path="url(#clip700)" d="M 0 0 M2278.15 1452.02 L2302.27 1452.02 L2302.27 1455.22 L2278.15 1455.22 L2278.15 1452.02 Z" fill="#000000" fill-rule="evenodd" fill-opacity="1" /><path clip-path="url(#clip700)" d="M 0 0 M2317.89 1450.55 Q2320.62 1451.14 2322.14 1452.98 Q2323.69 1454.82 2323.69 1457.53 Q2323.69 1461.69 2320.83 1463.96 Q2317.97 1466.24 2312.7 1466.24 Q2310.94 1466.24 2309.05 1465.88 Q2307.19 1465.54 2305.2 1464.85 L2305.2 1461.18 Q2306.78 1462.1 2308.66 1462.57 Q2310.54 1463.04 2312.59 1463.04 Q2316.16 1463.04 2318.03 1461.63 Q2319.91 1460.22 2319.91 1457.53 Q2319.91 1455.05 2318.16 1453.66 Q2316.43 1452.25 2313.32 1452.25 L2310.05 1452.25 L2310.05 1449.12 L2313.47 1449.12 Q2316.28 1449.12 2317.76 1448.01 Q2319.25 1446.89 2319.25 1444.78 Q2319.25 1442.62 2317.71 1441.47 Q2316.18 1440.3 2313.32 1440.3 Q2311.76 1440.3 2309.98 1440.64 Q2308.19 1440.98 2306.05 1441.69 L2306.05 1438.31 Q2308.21 1437.71 2310.09 1437.41 Q2311.99 1437.11 2313.66 1437.11 Q2317.99 1437.11 2320.51 1439.08 Q2323.03 1441.04 2323.03 1444.38 Q2323.03 1446.72 2321.69 1448.33 Q2320.36 1449.93 2317.89 1450.55 Z" fill="#000000" fill-rule="evenodd" fill-opacity="1" /><path clip-path="url(#clip700)" d="M 0 0 M2327.81 1460.92 L2331.77 1460.92 L2331.77 1465.69 L2327.81 1465.69 L2327.81 1460.92 Z" fill="#000000" fill-rule="evenodd" fill-opacity="1" /><path clip-path="url(#clip700)" d="M 0 0 M2344.02 1440.11 Q2341.08 1440.11 2339.6 1443.01 Q2338.13 1445.89 2338.13 1451.68 Q2338.13 1457.46 2339.6 1460.35 Q2341.08 1463.23 2344.02 1463.23 Q2346.97 1463.23 2348.44 1460.35 Q2349.92 1457.46 2349.92 1451.68 Q2349.92 1445.89 2348.44 1443.01 Q2346.97 1440.11 2344.02 1440.11 M2344.02 1437.11 Q2348.74 1437.11 2351.22 1440.85 Q2353.72 1444.57 2353.72 1451.68 Q2353.72 1458.77 2351.22 1462.51 Q2348.74 1466.24 2344.02 1466.24 Q2339.3 1466.24 2336.8 1462.51 Q2334.31 1458.77 2334.31 1451.68 Q2334.31 1444.57 2336.8 1440.85 Q2339.3 1437.11 2344.02 1437.11 Z" fill="#000000" fill-rule="evenodd" fill-opacity="1" /><path clip-path="url(#clip700)" d="M 0 0 M1207.13 1512.66 L1213.02 1512.66 L1213.02 1541.91 L1230.49 1526.54 L1237.97 1526.54 L1219.07 1543.22 L1238.77 1562.19 L1231.13 1562.19 L1213.02 1544.78 L1213.02 1562.19 L1207.13 1562.19 L1207.13 1512.66 Z" fill="#000000" fill-rule="evenodd" fill-opacity="1" /><path clip-path="url(#clip700)" d="M 0 0 M1272 1573.01 L1272 1577.56 L1238.13 1577.56 L1238.13 1573.01 L1272 1573.01 Z" fill="#000000" fill-rule="evenodd" fill-opacity="1" /><path clip-path="url(#clip700)" d="M 0 0 M1291.95 1530.64 Q1287.24 1530.64 1284.51 1534.34 Q1281.77 1538 1281.77 1544.39 Q1281.77 1550.79 1284.48 1554.48 Q1287.21 1558.14 1291.95 1558.14 Q1296.63 1558.14 1299.37 1554.45 Q1302.11 1550.76 1302.11 1544.39 Q1302.11 1538.06 1299.37 1534.37 Q1296.63 1530.64 1291.95 1530.64 M1291.95 1525.68 Q1299.59 1525.68 1303.95 1530.64 Q1308.31 1535.61 1308.31 1544.39 Q1308.31 1553.15 1303.95 1558.14 Q1299.59 1563.11 1291.95 1563.11 Q1284.28 1563.11 1279.92 1558.14 Q1275.59 1553.15 1275.59 1544.39 Q1275.59 1535.61 1279.92 1530.64 Q1284.28 1525.68 1291.95 1525.68 Z" fill="#000000" fill-rule="evenodd" fill-opacity="1" /><path clip-path="url(#clip700)" d="M 0 0 M1332.5 1512.66 L1332.5 1517.53 L1326.9 1517.53 Q1323.75 1517.53 1322.51 1518.8 Q1321.3 1520.08 1321.3 1523.39 L1321.3 1526.54 L1330.94 1526.54 L1330.94 1531.09 L1321.3 1531.09 L1321.3 1562.19 L1315.41 1562.19 L1315.41 1531.09 L1309.81 1531.09 L1309.81 1526.54 L1315.41 1526.54 L1315.41 1524.05 Q1315.41 1518.1 1318.18 1515.4 Q1320.95 1512.66 1326.97 1512.66 L1332.5 1512.66 Z" fill="#000000" fill-rule="evenodd" fill-opacity="1" /><path clip-path="url(#clip700)" d="M 0 0 M1356.69 1512.66 L1356.69 1517.53 L1351.09 1517.53 Q1347.94 1517.53 1346.7 1518.8 Q1345.49 1520.08 1345.49 1523.39 L1345.49 1526.54 L1355.13 1526.54 L1355.13 1531.09 L1345.49 1531.09 L1345.49 1562.19 L1339.6 1562.19 L1339.6 1531.09 L1334 1531.09 L1334 1526.54 L1339.6 1526.54 L1339.6 1524.05 Q1339.6 1518.1 1342.37 1515.4 Q1345.14 1512.66 1351.16 1512.66 L1356.69 1512.66 Z" fill="#000000" fill-rule="evenodd" fill-opacity="1" /><polyline clip-path="url(#clip702)" style="stroke:#000000; stroke-width:2; stroke-opacity:0.1; fill:none" points="
  211.07,1159.55 2352.76,1159.55 
  "/>
<polyline clip-path="url(#clip702)" style="stroke:#000000; stroke-width:2; stroke-opacity:0.1; fill:none" points="
  211.07,830.302 2352.76,830.302 
  "/>
<polyline clip-path="url(#clip702)" style="stroke:#000000; stroke-width:2; stroke-opacity:0.1; fill:none" points="
  211.07,501.056 2352.76,501.056 
  "/>
<polyline clip-path="url(#clip702)" style="stroke:#000000; stroke-width:2; stroke-opacity:0.1; fill:none" points="
  211.07,171.809 2352.76,171.809 
  "/>
<polyline clip-path="url(#clip700)" style="stroke:#000000; stroke-width:4; stroke-opacity:1; fill:none" points="
  211.07,1410.9 211.07,47.2441 
  "/>
<polyline clip-path="url(#clip700)" style="stroke:#000000; stroke-width:4; stroke-opacity:1; fill:none" points="
  211.07,1159.55 236.77,1159.55 
  "/>
<polyline clip-path="url(#clip700)" style="stroke:#000000; stroke-width:4; stroke-opacity:1; fill:none" points="
  211.07,830.302 236.77,830.302 
  "/>
<polyline clip-path="url(#clip700)" style="stroke:#000000; stroke-width:4; stroke-opacity:1; fill:none" points="
  211.07,501.056 236.77,501.056 
  "/>
<polyline clip-path="url(#clip700)" style="stroke:#000000; stroke-width:4; stroke-opacity:1; fill:none" points="
  211.07,171.809 236.77,171.809 
  "/>
<path clip-path="url(#clip700)" d="M 0 0 M126.251 1160.42 Q122.918 1160.42 120.996 1162.2 Q119.098 1163.98 119.098 1167.11 Q119.098 1170.23 120.996 1172.01 Q122.918 1173.8 126.251 1173.8 Q129.584 1173.8 131.505 1172.01 Q133.427 1170.21 133.427 1167.11 Q133.427 1163.98 131.505 1162.2 Q129.607 1160.42 126.251 1160.42 M121.575 1158.43 Q118.566 1157.68 116.876 1155.62 Q115.209 1153.56 115.209 1150.6 Q115.209 1146.46 118.149 1144.05 Q121.112 1141.64 126.251 1141.64 Q131.413 1141.64 134.353 1144.05 Q137.292 1146.46 137.292 1150.6 Q137.292 1153.56 135.603 1155.62 Q133.936 1157.68 130.95 1158.43 Q134.329 1159.21 136.204 1161.5 Q138.103 1163.8 138.103 1167.11 Q138.103 1172.13 135.024 1174.81 Q131.968 1177.5 126.251 1177.5 Q120.533 1177.5 117.455 1174.81 Q114.399 1172.13 114.399 1167.11 Q114.399 1163.8 116.297 1161.5 Q118.195 1159.21 121.575 1158.43 M119.862 1151.04 Q119.862 1153.73 121.529 1155.23 Q123.218 1156.74 126.251 1156.74 Q129.26 1156.74 130.95 1155.23 Q132.663 1153.73 132.663 1151.04 Q132.663 1148.36 130.95 1146.85 Q129.26 1145.35 126.251 1145.35 Q123.218 1145.35 121.529 1146.85 Q119.862 1148.36 119.862 1151.04 Z" fill="#000000" fill-rule="evenodd" fill-opacity="1" /><path clip-path="url(#clip700)" d="M 0 0 M143.172 1170.95 L148.056 1170.95 L148.056 1176.83 L143.172 1176.83 L143.172 1170.95 Z" fill="#000000" fill-rule="evenodd" fill-opacity="1" /><path clip-path="url(#clip700)" d="M 0 0 M163.126 1145.35 Q159.515 1145.35 157.686 1148.91 Q155.88 1152.45 155.88 1159.58 Q155.88 1166.69 157.686 1170.25 Q159.515 1173.8 163.126 1173.8 Q166.76 1173.8 168.565 1170.25 Q170.394 1166.69 170.394 1159.58 Q170.394 1152.45 168.565 1148.91 Q166.76 1145.35 163.126 1145.35 M163.126 1141.64 Q168.936 1141.64 171.991 1146.25 Q175.07 1150.83 175.07 1159.58 Q175.07 1168.31 171.991 1172.92 Q168.936 1177.5 163.126 1177.5 Q157.315 1177.5 154.237 1172.92 Q151.181 1168.31 151.181 1159.58 Q151.181 1150.83 154.237 1146.25 Q157.315 1141.64 163.126 1141.64 Z" fill="#000000" fill-rule="evenodd" fill-opacity="1" /><path clip-path="url(#clip700)" d="M 0 0 M127.246 831.17 Q123.913 831.17 121.992 832.952 Q120.093 834.735 120.093 837.86 Q120.093 840.985 121.992 842.767 Q123.913 844.55 127.246 844.55 Q130.58 844.55 132.501 842.767 Q134.422 840.962 134.422 837.86 Q134.422 834.735 132.501 832.952 Q130.603 831.17 127.246 831.17 M122.57 829.179 Q119.561 828.439 117.871 826.378 Q116.205 824.318 116.205 821.355 Q116.205 817.212 119.144 814.804 Q122.107 812.397 127.246 812.397 Q132.408 812.397 135.348 814.804 Q138.288 817.212 138.288 821.355 Q138.288 824.318 136.598 826.378 Q134.931 828.439 131.945 829.179 Q135.325 829.966 137.2 832.258 Q139.098 834.55 139.098 837.86 Q139.098 842.883 136.019 845.568 Q132.964 848.253 127.246 848.253 Q121.529 848.253 118.45 845.568 Q115.394 842.883 115.394 837.86 Q115.394 834.55 117.293 832.258 Q119.191 829.966 122.57 829.179 M120.857 821.795 Q120.857 824.48 122.524 825.985 Q124.214 827.489 127.246 827.489 Q130.255 827.489 131.945 825.985 Q133.658 824.48 133.658 821.795 Q133.658 819.11 131.945 817.605 Q130.255 816.101 127.246 816.101 Q124.214 816.101 122.524 817.605 Q120.857 819.11 120.857 821.795 Z" fill="#000000" fill-rule="evenodd" fill-opacity="1" /><path clip-path="url(#clip700)" d="M 0 0 M144.167 841.702 L149.052 841.702 L149.052 847.582 L144.167 847.582 L144.167 841.702 Z" fill="#000000" fill-rule="evenodd" fill-opacity="1" /><path clip-path="url(#clip700)" d="M 0 0 M154.167 813.022 L172.524 813.022 L172.524 816.957 L158.45 816.957 L158.45 825.429 Q159.468 825.082 160.487 824.92 Q161.505 824.735 162.524 824.735 Q168.311 824.735 171.69 827.906 Q175.07 831.077 175.07 836.494 Q175.07 842.073 171.598 845.175 Q168.126 848.253 161.806 848.253 Q159.63 848.253 157.362 847.883 Q155.116 847.512 152.709 846.772 L152.709 842.073 Q154.792 843.207 157.015 843.762 Q159.237 844.318 161.714 844.318 Q165.718 844.318 168.056 842.212 Q170.394 840.105 170.394 836.494 Q170.394 832.883 168.056 830.776 Q165.718 828.67 161.714 828.67 Q159.839 828.67 157.964 829.087 Q156.112 829.503 154.167 830.383 L154.167 813.022 Z" fill="#000000" fill-rule="evenodd" fill-opacity="1" /><path clip-path="url(#clip700)" d="M 0 0 M116.482 517.618 L116.482 513.359 Q118.242 514.192 120.047 514.632 Q121.853 515.072 123.589 515.072 Q128.218 515.072 130.649 511.97 Q133.103 508.845 133.45 502.502 Q132.107 504.493 130.047 505.558 Q127.987 506.623 125.487 506.623 Q120.302 506.623 117.269 503.498 Q114.26 500.35 114.26 494.91 Q114.26 489.586 117.408 486.368 Q120.556 483.151 125.788 483.151 Q131.783 483.151 134.931 487.757 Q138.103 492.34 138.103 501.09 Q138.103 509.262 134.214 514.146 Q130.348 519.007 123.797 519.007 Q122.038 519.007 120.232 518.66 Q118.427 518.313 116.482 517.618 M125.788 502.965 Q128.936 502.965 130.765 500.813 Q132.617 498.66 132.617 494.91 Q132.617 491.183 130.765 489.03 Q128.936 486.854 125.788 486.854 Q122.64 486.854 120.788 489.03 Q118.959 491.183 118.959 494.91 Q118.959 498.66 120.788 500.813 Q122.64 502.965 125.788 502.965 Z" fill="#000000" fill-rule="evenodd" fill-opacity="1" /><path clip-path="url(#clip700)" d="M 0 0 M143.172 512.456 L148.056 512.456 L148.056 518.336 L143.172 518.336 L143.172 512.456 Z" fill="#000000" fill-rule="evenodd" fill-opacity="1" /><path clip-path="url(#clip700)" d="M 0 0 M163.126 486.854 Q159.515 486.854 157.686 490.419 Q155.88 493.961 155.88 501.09 Q155.88 508.197 157.686 511.762 Q159.515 515.303 163.126 515.303 Q166.76 515.303 168.565 511.762 Q170.394 508.197 170.394 501.09 Q170.394 493.961 168.565 490.419 Q166.76 486.854 163.126 486.854 M163.126 483.151 Q168.936 483.151 171.991 487.757 Q175.07 492.34 175.07 501.09 Q175.07 509.817 171.991 514.424 Q168.936 519.007 163.126 519.007 Q157.315 519.007 154.237 514.424 Q151.181 509.817 151.181 501.09 Q151.181 492.34 154.237 487.757 Q157.315 483.151 163.126 483.151 Z" fill="#000000" fill-rule="evenodd" fill-opacity="1" /><path clip-path="url(#clip700)" d="M 0 0 M117.478 188.372 L117.478 184.113 Q119.237 184.946 121.043 185.386 Q122.848 185.826 124.584 185.826 Q129.214 185.826 131.644 182.724 Q134.098 179.599 134.445 173.256 Q133.103 175.247 131.042 176.312 Q128.982 177.377 126.482 177.377 Q121.297 177.377 118.265 174.252 Q115.256 171.103 115.256 165.664 Q115.256 160.34 118.404 157.122 Q121.552 153.905 126.783 153.905 Q132.779 153.905 135.927 158.511 Q139.098 163.094 139.098 171.844 Q139.098 180.015 135.209 184.9 Q131.343 189.761 124.793 189.761 Q123.033 189.761 121.228 189.414 Q119.422 189.066 117.478 188.372 M126.783 173.719 Q129.931 173.719 131.76 171.566 Q133.612 169.414 133.612 165.664 Q133.612 161.937 131.76 159.784 Q129.931 157.608 126.783 157.608 Q123.635 157.608 121.783 159.784 Q119.955 161.937 119.955 165.664 Q119.955 169.414 121.783 171.566 Q123.635 173.719 126.783 173.719 Z" fill="#000000" fill-rule="evenodd" fill-opacity="1" /><path clip-path="url(#clip700)" d="M 0 0 M144.167 183.21 L149.052 183.21 L149.052 189.089 L144.167 189.089 L144.167 183.21 Z" fill="#000000" fill-rule="evenodd" fill-opacity="1" /><path clip-path="url(#clip700)" d="M 0 0 M154.167 154.529 L172.524 154.529 L172.524 158.465 L158.45 158.465 L158.45 166.937 Q159.468 166.59 160.487 166.428 Q161.505 166.242 162.524 166.242 Q168.311 166.242 171.69 169.414 Q175.07 172.585 175.07 178.002 Q175.07 183.58 171.598 186.682 Q168.126 189.761 161.806 189.761 Q159.63 189.761 157.362 189.39 Q155.116 189.02 152.709 188.279 L152.709 183.58 Q154.792 184.715 157.015 185.27 Q159.237 185.826 161.714 185.826 Q165.718 185.826 168.056 183.719 Q170.394 181.613 170.394 178.002 Q170.394 174.391 168.056 172.284 Q165.718 170.178 161.714 170.178 Q159.839 170.178 157.964 170.594 Q156.112 171.011 154.167 171.891 L154.167 154.529 Z" fill="#000000" fill-rule="evenodd" fill-opacity="1" /><path clip-path="url(#clip700)" d="M 0 0 M59.1993 815.533 Q55.2526 813.336 53.3747 810.281 Q51.4968 807.225 51.4968 803.088 Q51.4968 797.518 55.4117 794.494 Q59.2948 791.47 66.4881 791.47 L88.0042 791.47 L88.0042 797.358 L66.679 797.358 Q61.5546 797.358 59.072 799.173 Q56.5894 800.987 56.5894 804.711 Q56.5894 809.262 59.6131 811.904 Q62.6368 814.546 67.8567 814.546 L88.0042 814.546 L88.0042 820.434 L66.679 820.434 Q61.5228 820.434 59.072 822.248 Q56.5894 824.063 56.5894 827.85 Q56.5894 832.338 59.6449 834.98 Q62.6686 837.622 67.8567 837.622 L88.0042 837.622 L88.0042 843.51 L52.3562 843.51 L52.3562 837.622 L57.8944 837.622 Q54.616 835.616 53.0564 832.815 Q51.4968 830.015 51.4968 826.163 Q51.4968 822.28 53.4702 819.575 Q55.4436 816.838 59.1993 815.533 Z" fill="#000000" fill-rule="evenodd" fill-opacity="1" /><path clip-path="url(#clip700)" d="M 0 0 M52.3562 785.327 L52.3562 779.471 L88.0042 779.471 L88.0042 785.327 L52.3562 785.327 M38.479 785.327 L38.479 779.471 L45.895 779.471 L45.895 785.327 L38.479 785.327 Z" fill="#000000" fill-rule="evenodd" fill-opacity="1" /><path clip-path="url(#clip700)" d="M 0 0 M66.4881 743.696 L88.0042 743.696 L88.0042 749.552 L66.679 749.552 Q61.6183 749.552 59.1038 751.525 Q56.5894 753.499 56.5894 757.446 Q56.5894 762.188 59.6131 764.925 Q62.6368 767.662 67.8567 767.662 L88.0042 767.662 L88.0042 773.551 L52.3562 773.551 L52.3562 767.662 L57.8944 767.662 Q54.6797 765.562 53.0883 762.729 Q51.4968 759.864 51.4968 756.141 Q51.4968 749.998 55.3163 746.847 Q59.1038 743.696 66.4881 743.696 Z" fill="#000000" fill-rule="evenodd" fill-opacity="1" /><path clip-path="url(#clip700)" d="M 0 0 M98.8259 710.467 L103.377 710.467 L103.377 744.332 L98.8259 744.332 L98.8259 710.467 Z" fill="#000000" fill-rule="evenodd" fill-opacity="1" /><path clip-path="url(#clip700)" d="M 0 0 M57.7671 680.866 L38.479 680.866 L38.479 675.01 L88.0042 675.01 L88.0042 680.866 L82.657 680.866 Q85.8398 682.712 87.3994 685.545 Q88.9272 688.346 88.9272 692.292 Q88.9272 698.754 83.771 702.828 Q78.6147 706.87 70.212 706.87 Q61.8093 706.87 56.6531 702.828 Q51.4968 698.754 51.4968 692.292 Q51.4968 688.346 53.0564 685.545 Q54.5842 682.712 57.7671 680.866 M70.212 700.823 Q76.6732 700.823 80.3653 698.181 Q84.0256 695.507 84.0256 690.86 Q84.0256 686.213 80.3653 683.54 Q76.6732 680.866 70.212 680.866 Q63.7508 680.866 60.0905 683.54 Q56.3984 686.213 56.3984 690.86 Q56.3984 695.507 60.0905 698.181 Q63.7508 700.823 70.212 700.823 Z" fill="#000000" fill-rule="evenodd" fill-opacity="1" /><path clip-path="url(#clip700)" d="M 0 0 M52.3562 668.867 L52.3562 663.01 L88.0042 663.01 L88.0042 668.867 L52.3562 668.867 M38.479 668.867 L38.479 663.01 L45.895 663.01 L45.895 668.867 L38.479 668.867 Z" fill="#000000" fill-rule="evenodd" fill-opacity="1" /><path clip-path="url(#clip700)" d="M 0 0 M38.479 638.821 L43.3487 638.821 L43.3487 644.422 Q43.3487 647.573 44.6219 648.815 Q45.895 650.024 49.2052 650.024 L52.3562 650.024 L52.3562 640.38 L56.9077 640.38 L56.9077 650.024 L88.0042 650.024 L88.0042 655.912 L56.9077 655.912 L56.9077 661.514 L52.3562 661.514 L52.3562 655.912 L49.8736 655.912 Q43.9216 655.912 41.2162 653.143 Q38.479 650.374 38.479 644.359 L38.479 638.821 Z" fill="#000000" fill-rule="evenodd" fill-opacity="1" /><path clip-path="url(#clip700)" d="M 0 0 M38.479 614.631 L43.3487 614.631 L43.3487 620.233 Q43.3487 623.384 44.6219 624.625 Q45.895 625.835 49.2052 625.835 L52.3562 625.835 L52.3562 616.19 L56.9077 616.19 L56.9077 625.835 L88.0042 625.835 L88.0042 631.723 L56.9077 631.723 L56.9077 637.325 L52.3562 637.325 L52.3562 631.723 L49.8736 631.723 Q43.9216 631.723 41.2162 628.954 Q38.479 626.185 38.479 620.169 L38.479 614.631 Z" fill="#000000" fill-rule="evenodd" fill-opacity="1" /><polyline clip-path="url(#clip702)" style="stroke:#009af9; stroke-width:20; stroke-opacity:1; fill:none" stroke-dasharray="80, 50" points="
  271.684,1150 1281.91,1372.3 2292.14,85.838 
  "/>
<path clip-path="url(#clip700)" d="
M1992.38 213.659 L2281.37 213.659 L2281.37 92.6992 L1992.38 92.6992  Z
  " fill="#ffffff" fill-rule="evenodd" fill-opacity="1"/>
<polyline clip-path="url(#clip700)" style="stroke:#000000; stroke-width:4; stroke-opacity:1; fill:none" points="
  1992.38,213.659 2281.37,213.659 2281.37,92.6992 1992.38,92.6992 1992.38,213.659 
  "/>
<polyline clip-path="url(#clip700)" style="stroke:#009af9; stroke-width:4; stroke-opacity:1; fill:none" stroke-dasharray="16, 10" points="
  2016.18,153.179 2158.96,153.179 
  "/>
<path clip-path="url(#clip700)" d="M 0 0 M2196.6 172.867 Q2194.79 177.496 2193.08 178.908 Q2191.37 180.32 2188.5 180.32 L2185.09 180.32 L2185.09 176.755 L2187.59 176.755 Q2189.35 176.755 2190.32 175.922 Q2191.3 175.089 2192.48 171.987 L2193.24 170.043 L2182.76 144.533 L2187.27 144.533 L2195.37 164.811 L2203.47 144.533 L2207.99 144.533 L2196.6 172.867 Z" fill="#000000" fill-rule="evenodd" fill-opacity="1" /><path clip-path="url(#clip700)" d="M 0 0 M2213.87 166.524 L2221.5 166.524 L2221.5 140.158 L2213.19 141.825 L2213.19 137.566 L2221.46 135.899 L2226.13 135.899 L2226.13 166.524 L2233.77 166.524 L2233.77 170.459 L2213.87 170.459 L2213.87 166.524 Z" fill="#000000" fill-rule="evenodd" fill-opacity="1" /></svg>
