<?xml version="1.0" encoding="utf-8"?>
<svg xmlns="http://www.w3.org/2000/svg" xmlns:xlink="http://www.w3.org/1999/xlink" width="600" height="400" viewBox="0 0 2400 1600">
<defs>
  <clipPath id="clip700">
    <rect x="0" y="0" width="2400" height="1600"/>
  </clipPath>
</defs>
<path clip-path="url(#clip700)" d="
M0 1600 L2400 1600 L2400 0 L0 0  Z
  " fill="#ffffff" fill-rule="evenodd" fill-opacity="1"/>
<defs>
  <clipPath id="clip701">
    <rect x="480" y="0" width="1681" height="1600"/>
  </clipPath>
</defs>
<path clip-path="url(#clip700)" d="
M235.306 1410.9 L2352.76 1410.9 L2352.76 47.2441 L235.306 47.2441  Z
  " fill="#ffffff" fill-rule="evenodd" fill-opacity="1"/>
<defs>
  <clipPath id="clip702">
    <rect x="235" y="47" width="2118" height="1365"/>
  </clipPath>
</defs>
<polyline clip-path="url(#clip702)" style="stroke:#000000; stroke-width:2; stroke-opacity:0.1; fill:none" points="
  295.234,1410.9 295.234,47.2441 
  "/>
<polyline clip-path="url(#clip702)" style="stroke:#000000; stroke-width:2; stroke-opacity:0.1; fill:none" points="
  794.632,1410.9 794.632,47.2441 
  "/>
<polyline clip-path="url(#clip702)" style="stroke:#000000; stroke-width:2; stroke-opacity:0.1; fill:none" points="
  1294.03,1410.9 1294.03,47.2441 
  "/>
<polyline clip-path="url(#clip702)" style="stroke:#000000; stroke-width:2; stroke-opacity:0.1; fill:none" points="
  1793.43,1410.9 1793.43,47.2441 
  "/>
<polyline clip-path="url(#clip702)" style="stroke:#000000; stroke-width:2; stroke-opacity:0.1; fill:none" points="
  2292.83,1410.9 2292.83,47.2441 
  "/>
<polyline clip-path="url(#clip700)" style="stroke:#000000; stroke-width:4; stroke-opacity:1; fill:none" points="
  235.306,1410.9 2352.76,1410.9 
  "/>
<polyline clip-path="url(#clip700)" style="stroke:#000000; stroke-width:4; stroke-opacity:1; fill:none" points="
  295.234,1410.9 295.234,1394.53 
  "/>
<polyline clip-path="url(#clip700)" style="stroke:#000000; stroke-width:4; stroke-opacity:1; fill:none" points="
  794.632,1410.9 794.632,1394.53 
  "/>
<polyline clip-path="url(#clip700)" style="stroke:#000000; stroke-width:4; stroke-opacity:1; fill:none" points="
  1294.03,1410.9 1294.03,1394.53 
  "/>
<polyline clip-path="url(#clip700)" style="stroke:#000000; stroke-width:4; stroke-opacity:1; fill:none" points="
  1793.43,1410.9 1793.43,1394.53 
  "/>
<polyline clip-path="url(#clip700)" style="stroke:#000000; stroke-width:4; stroke-opacity:1; fill:none" points="
  2292.83,1410.9 2292.83,1394.53 
  "/>
<path clip-path="url(#clip700)" d="M 0 0 M223.35 1489.17 L230.989 1489.17 L230.989 1462.8 L222.679 1464.47 L222.679 1460.21 L230.942 1458.54 L235.618 1458.54 L235.618 1489.17 L243.257 1489.17 L243.257 1493.1 L223.35 1493.1 L223.35 1489.17 Z" fill="#000000" fill-rule="evenodd" fill-opacity="1" /><path clip-path="url(#clip700)" d="M 0 0 M258.326 1461.62 Q254.715 1461.62 252.887 1465.19 Q251.081 1468.73 251.081 1475.86 Q251.081 1482.97 252.887 1486.53 Q254.715 1490.07 258.326 1490.07 Q261.961 1490.07 263.766 1486.53 Q265.595 1482.97 265.595 1475.86 Q265.595 1468.73 263.766 1465.19 Q261.961 1461.62 258.326 1461.62 M258.326 1457.92 Q264.137 1457.92 267.192 1462.53 Q270.271 1467.11 270.271 1475.86 Q270.271 1484.59 267.192 1489.19 Q264.137 1493.78 258.326 1493.78 Q252.516 1493.78 249.438 1489.19 Q246.382 1484.59 246.382 1475.86 Q246.382 1467.11 249.438 1462.53 Q252.516 1457.92 258.326 1457.92 Z" fill="#000000" fill-rule="evenodd" fill-opacity="1" /><path clip-path="url(#clip700)" d="M 0 0 M270.271 1452.02 L294.382 1452.02 L294.382 1455.22 L270.271 1455.22 L270.271 1452.02 Z" fill="#000000" fill-rule="evenodd" fill-opacity="1" /><path clip-path="url(#clip700)" d="M 0 0 M310.012 1450.55 Q312.739 1451.14 314.262 1452.98 Q315.804 1454.82 315.804 1457.53 Q315.804 1461.69 312.946 1463.96 Q310.087 1466.24 304.821 1466.24 Q303.053 1466.24 301.172 1465.88 Q299.31 1465.54 297.316 1464.85 L297.316 1461.18 Q298.896 1462.1 300.777 1462.57 Q302.658 1463.04 304.708 1463.04 Q308.281 1463.04 310.143 1461.63 Q312.024 1460.22 312.024 1457.53 Q312.024 1455.05 310.275 1453.66 Q308.545 1452.25 305.441 1452.25 L302.169 1452.25 L302.169 1449.12 L305.592 1449.12 Q308.394 1449.12 309.88 1448.01 Q311.366 1446.89 311.366 1444.78 Q311.366 1442.62 309.824 1441.47 Q308.3 1440.3 305.441 1440.3 Q303.88 1440.3 302.094 1440.64 Q300.307 1440.98 298.163 1441.69 L298.163 1438.31 Q300.326 1437.71 302.206 1437.41 Q304.106 1437.11 305.78 1437.11 Q310.106 1437.11 312.626 1439.08 Q315.146 1441.04 315.146 1444.38 Q315.146 1446.72 313.811 1448.33 Q312.475 1449.93 310.012 1450.55 Z" fill="#000000" fill-rule="evenodd" fill-opacity="1" /><path clip-path="url(#clip700)" d="M 0 0 M319.923 1460.92 L323.892 1460.92 L323.892 1465.69 L319.923 1465.69 L319.923 1460.92 Z" fill="#000000" fill-rule="evenodd" fill-opacity="1" /><path clip-path="url(#clip700)" d="M 0 0 M336.136 1440.11 Q333.202 1440.11 331.716 1443.01 Q330.249 1445.89 330.249 1451.68 Q330.249 1457.46 331.716 1460.35 Q333.202 1463.23 336.136 1463.23 Q339.088 1463.23 340.555 1460.35 Q342.041 1457.46 342.041 1451.68 Q342.041 1445.89 340.555 1443.01 Q339.088 1440.11 336.136 1440.11 M336.136 1437.11 Q340.856 1437.11 343.339 1440.85 Q345.84 1444.57 345.84 1451.68 Q345.84 1458.77 343.339 1462.51 Q340.856 1466.24 336.136 1466.24 Q331.415 1466.24 328.913 1462.51 Q326.431 1458.77 326.431 1451.68 Q326.431 1444.57 328.913 1440.85 Q331.415 1437.11 336.136 1437.11 Z" fill="#000000" fill-rule="evenodd" fill-opacity="1" /><path clip-path="url(#clip700)" d="M 0 0 M358.084 1440.11 Q355.15 1440.11 353.665 1443.01 Q352.197 1445.89 352.197 1451.68 Q352.197 1457.46 353.665 1460.35 Q355.15 1463.23 358.084 1463.23 Q361.037 1463.23 362.504 1460.35 Q363.99 1457.46 363.99 1451.68 Q363.99 1445.89 362.504 1443.01 Q361.037 1440.11 358.084 1440.11 M358.084 1437.11 Q362.805 1437.11 365.288 1440.85 Q367.789 1444.57 367.789 1451.68 Q367.789 1458.77 365.288 1462.51 Q362.805 1466.24 358.084 1466.24 Q353.364 1466.24 350.862 1462.51 Q348.38 1458.77 348.38 1451.68 Q348.38 1444.57 350.862 1440.85 Q353.364 1437.11 358.084 1437.11 Z" fill="#000000" fill-rule="evenodd" fill-opacity="1" /><path clip-path="url(#clip700)" d="M 0 0 M723.905 1489.17 L731.544 1489.17 L731.544 1462.8 L723.234 1464.47 L723.234 1460.21 L731.498 1458.54 L736.174 1458.54 L736.174 1489.17 L743.812 1489.17 L743.812 1493.1 L723.905 1493.1 L723.905 1489.17 Z" fill="#000000" fill-rule="evenodd" fill-opacity="1" /><path clip-path="url(#clip700)" d="M 0 0 M758.882 1461.62 Q755.271 1461.62 753.442 1465.19 Q751.636 1468.73 751.636 1475.86 Q751.636 1482.97 753.442 1486.53 Q755.271 1490.07 758.882 1490.07 Q762.516 1490.07 764.321 1486.53 Q766.15 1482.97 766.15 1475.86 Q766.15 1468.73 764.321 1465.19 Q762.516 1461.62 758.882 1461.62 M758.882 1457.92 Q764.692 1457.92 767.747 1462.53 Q770.826 1467.11 770.826 1475.86 Q770.826 1484.59 767.747 1489.19 Q764.692 1493.78 758.882 1493.78 Q753.072 1493.78 749.993 1489.19 Q746.937 1484.59 746.937 1475.86 Q746.937 1467.11 749.993 1462.53 Q753.072 1457.92 758.882 1457.92 Z" fill="#000000" fill-rule="evenodd" fill-opacity="1" /><path clip-path="url(#clip700)" d="M 0 0 M770.826 1452.02 L794.938 1452.02 L794.938 1455.22 L770.826 1455.22 L770.826 1452.02 Z" fill="#000000" fill-rule="evenodd" fill-opacity="1" /><path clip-path="url(#clip700)" d="M 0 0 M802.329 1462.5 L815.589 1462.5 L815.589 1465.69 L797.759 1465.69 L797.759 1462.5 Q799.922 1460.26 803.646 1456.5 Q807.388 1452.72 808.348 1451.63 Q810.172 1449.58 810.887 1448.16 Q811.62 1446.74 811.62 1445.36 Q811.62 1443.12 810.04 1441.71 Q808.479 1440.3 805.959 1440.3 Q804.172 1440.3 802.179 1440.92 Q800.204 1441.54 797.947 1442.8 L797.947 1438.97 Q800.241 1438.05 802.235 1437.58 Q804.229 1437.11 805.884 1437.11 Q810.247 1437.11 812.843 1439.29 Q815.438 1441.47 815.438 1445.12 Q815.438 1446.85 814.78 1448.41 Q814.14 1449.95 812.429 1452.06 Q811.959 1452.6 809.438 1455.22 Q806.918 1457.81 802.329 1462.5 Z" fill="#000000" fill-rule="evenodd" fill-opacity="1" /><path clip-path="url(#clip700)" d="M 0 0 M819.707 1460.92 L823.676 1460.92 L823.676 1465.69 L819.707 1465.69 L819.707 1460.92 Z" fill="#000000" fill-rule="evenodd" fill-opacity="1" /><path clip-path="url(#clip700)" d="M 0 0 M826.836 1437.61 L844.891 1437.61 L844.891 1439.23 L834.697 1465.69 L830.729 1465.69 L840.321 1440.81 L826.836 1440.81 L826.836 1437.61 Z" fill="#000000" fill-rule="evenodd" fill-opacity="1" /><path clip-path="url(#clip700)" d="M 0 0 M849.048 1437.61 L863.962 1437.61 L863.962 1440.81 L852.527 1440.81 L852.527 1447.69 Q853.355 1447.41 854.182 1447.28 Q855.01 1447.13 855.837 1447.13 Q860.539 1447.13 863.285 1449.71 Q866.031 1452.28 866.031 1456.68 Q866.031 1461.22 863.21 1463.74 Q860.389 1466.24 855.254 1466.24 Q853.486 1466.24 851.643 1465.94 Q849.819 1465.64 847.863 1465.04 L847.863 1461.22 Q849.555 1462.14 851.361 1462.59 Q853.167 1463.04 855.179 1463.04 Q858.433 1463.04 860.332 1461.33 Q862.232 1459.62 862.232 1456.68 Q862.232 1453.75 860.332 1452.04 Q858.433 1450.33 855.179 1450.33 Q853.656 1450.33 852.132 1450.67 Q850.627 1451 849.048 1451.72 L849.048 1437.61 Z" fill="#000000" fill-rule="evenodd" fill-opacity="1" /><path clip-path="url(#clip700)" d="M 0 0 M1222.94 1489.17 L1230.58 1489.17 L1230.58 1462.8 L1222.27 1464.47 L1222.27 1460.21 L1230.53 1458.54 L1235.21 1458.54 L1235.21 1489.17 L1242.84 1489.17 L1242.84 1493.1 L1222.94 1493.1 L1222.94 1489.17 Z" fill="#000000" fill-rule="evenodd" fill-opacity="1" /><path clip-path="url(#clip700)" d="M 0 0 M1257.91 1461.62 Q1254.3 1461.62 1252.47 1465.19 Q1250.67 1468.73 1250.67 1475.86 Q1250.67 1482.97 1252.47 1486.53 Q1254.3 1490.07 1257.91 1490.07 Q1261.55 1490.07 1263.35 1486.53 Q1265.18 1482.97 1265.18 1475.86 Q1265.18 1468.73 1263.35 1465.19 Q1261.55 1461.62 1257.91 1461.62 M1257.91 1457.92 Q1263.72 1457.92 1266.78 1462.53 Q1269.86 1467.11 1269.86 1475.86 Q1269.86 1484.59 1266.78 1489.19 Q1263.72 1493.78 1257.91 1493.78 Q1252.1 1493.78 1249.02 1489.19 Q1245.97 1484.59 1245.97 1475.86 Q1245.97 1467.11 1249.02 1462.53 Q1252.1 1457.92 1257.91 1457.92 Z" fill="#000000" fill-rule="evenodd" fill-opacity="1" /><path clip-path="url(#clip700)" d="M 0 0 M1269.86 1452.02 L1293.97 1452.02 L1293.97 1455.22 L1269.86 1455.22 L1269.86 1452.02 Z" fill="#000000" fill-rule="evenodd" fill-opacity="1" /><path clip-path="url(#clip700)" d="M 0 0 M1301.36 1462.5 L1314.62 1462.5 L1314.62 1465.69 L1296.79 1465.69 L1296.79 1462.5 Q1298.95 1460.26 1302.68 1456.5 Q1306.42 1452.72 1307.38 1451.63 Q1309.2 1449.58 1309.92 1448.16 Q1310.65 1446.74 1310.65 1445.36 Q1310.65 1443.12 1309.07 1441.71 Q1307.51 1440.3 1304.99 1440.3 Q1303.2 1440.3 1301.21 1440.92 Q1299.24 1441.54 1296.98 1442.8 L1296.98 1438.97 Q1299.27 1438.05 1301.27 1437.58 Q1303.26 1437.11 1304.92 1437.11 Q1309.28 1437.11 1311.87 1439.29 Q1314.47 1441.47 1314.47 1445.12 Q1314.47 1446.85 1313.81 1448.41 Q1313.17 1449.95 1311.46 1452.06 Q1310.99 1452.6 1308.47 1455.22 Q1305.95 1457.81 1301.36 1462.5 Z" fill="#000000" fill-rule="evenodd" fill-opacity="1" /><path clip-path="url(#clip700)" d="M 0 0 M1318.74 1460.92 L1322.71 1460.92 L1322.71 1465.69 L1318.74 1465.69 L1318.74 1460.92 Z" fill="#000000" fill-rule="evenodd" fill-opacity="1" /><path clip-path="url(#clip700)" d="M 0 0 M1326.86 1437.61 L1341.78 1437.61 L1341.78 1440.81 L1330.34 1440.81 L1330.34 1447.69 Q1331.17 1447.41 1332 1447.28 Q1332.83 1447.13 1333.65 1447.13 Q1338.36 1447.13 1341.1 1449.71 Q1343.85 1452.28 1343.85 1456.68 Q1343.85 1461.22 1341.03 1463.74 Q1338.21 1466.24 1333.07 1466.24 Q1331.3 1466.24 1329.46 1465.94 Q1327.64 1465.64 1325.68 1465.04 L1325.68 1461.22 Q1327.37 1462.14 1329.18 1462.59 Q1330.98 1463.04 1333 1463.04 Q1336.25 1463.04 1338.15 1461.33 Q1340.05 1459.62 1340.05 1456.68 Q1340.05 1453.75 1338.15 1452.04 Q1336.25 1450.33 1333 1450.33 Q1331.47 1450.33 1329.95 1450.67 Q1328.44 1451 1326.86 1451.72 L1326.86 1437.61 Z" fill="#000000" fill-rule="evenodd" fill-opacity="1" /><path clip-path="url(#clip700)" d="M 0 0 M1356.09 1440.11 Q1353.16 1440.11 1351.67 1443.01 Q1350.2 1445.89 1350.2 1451.68 Q1350.2 1457.46 1351.67 1460.35 Q1353.16 1463.23 1356.09 1463.23 Q1359.04 1463.23 1360.51 1460.35 Q1362 1457.46 1362 1451.68 Q1362 1445.89 1360.51 1443.01 Q1359.04 1440.11 1356.09 1440.11 M1356.09 1437.11 Q1360.81 1437.11 1363.29 1440.85 Q1365.8 1444.57 1365.8 1451.68 Q1365.8 1458.77 1363.29 1462.51 Q1360.81 1466.24 1356.09 1466.24 Q1351.37 1466.24 1348.87 1462.51 Q1346.39 1458.77 1346.39 1451.68 Q1346.39 1444.57 1348.87 1440.85 Q1351.37 1437.11 1356.09 1437.11 Z" fill="#000000" fill-rule="evenodd" fill-opacity="1" /><path clip-path="url(#clip700)" d="M 0 0 M1722.98 1489.17 L1730.62 1489.17 L1730.62 1462.8 L1722.31 1464.47 L1722.31 1460.21 L1730.58 1458.54 L1735.25 1458.54 L1735.25 1489.17 L1742.89 1489.17 L1742.89 1493.1 L1722.98 1493.1 L1722.98 1489.17 Z" fill="#000000" fill-rule="evenodd" fill-opacity="1" /><path clip-path="url(#clip700)" d="M 0 0 M1757.96 1461.62 Q1754.35 1461.62 1752.52 1465.19 Q1750.72 1468.73 1750.72 1475.86 Q1750.72 1482.97 1752.52 1486.53 Q1754.35 1490.07 1757.96 1490.07 Q1761.6 1490.07 1763.4 1486.53 Q1765.23 1482.97 1765.23 1475.86 Q1765.23 1468.73 1763.4 1465.19 Q1761.6 1461.62 1757.96 1461.62 M1757.96 1457.92 Q1763.77 1457.92 1766.83 1462.53 Q1769.91 1467.11 1769.91 1475.86 Q1769.91 1484.59 1766.83 1489.19 Q1763.77 1493.78 1757.96 1493.78 Q1752.15 1493.78 1749.07 1489.19 Q1746.02 1484.59 1746.02 1475.86 Q1746.02 1467.11 1749.07 1462.53 Q1752.15 1457.92 1757.96 1457.92 Z" fill="#000000" fill-rule="evenodd" fill-opacity="1" /><path clip-path="url(#clip700)" d="M 0 0 M1769.91 1452.02 L1794.02 1452.02 L1794.02 1455.22 L1769.91 1455.22 L1769.91 1452.02 Z" fill="#000000" fill-rule="evenodd" fill-opacity="1" /><path clip-path="url(#clip700)" d="M 0 0 M1801.41 1462.5 L1814.67 1462.5 L1814.67 1465.69 L1796.84 1465.69 L1796.84 1462.5 Q1799 1460.26 1802.72 1456.5 Q1806.47 1452.72 1807.43 1451.63 Q1809.25 1449.58 1809.97 1448.16 Q1810.7 1446.74 1810.7 1445.36 Q1810.7 1443.12 1809.12 1441.71 Q1807.56 1440.3 1805.04 1440.3 Q1803.25 1440.3 1801.26 1440.92 Q1799.28 1441.54 1797.03 1442.8 L1797.03 1438.97 Q1799.32 1438.05 1801.31 1437.58 Q1803.31 1437.11 1804.96 1437.11 Q1809.33 1437.11 1811.92 1439.29 Q1814.52 1441.47 1814.52 1445.12 Q1814.52 1446.85 1813.86 1448.41 Q1813.22 1449.95 1811.51 1452.06 Q1811.04 1452.6 1808.52 1455.22 Q1806 1457.81 1801.41 1462.5 Z" fill="#000000" fill-rule="evenodd" fill-opacity="1" /><path clip-path="url(#clip700)" d="M 0 0 M1818.79 1460.92 L1822.76 1460.92 L1822.76 1465.69 L1818.79 1465.69 L1818.79 1460.92 Z" fill="#000000" fill-rule="evenodd" fill-opacity="1" /><path clip-path="url(#clip700)" d="M 0 0 M1830.15 1462.5 L1843.41 1462.5 L1843.41 1465.69 L1825.58 1465.69 L1825.58 1462.5 Q1827.74 1460.26 1831.46 1456.5 Q1835.21 1452.72 1836.17 1451.63 Q1837.99 1449.58 1838.7 1448.16 Q1839.44 1446.74 1839.44 1445.36 Q1839.44 1443.12 1837.86 1441.71 Q1836.3 1440.3 1833.78 1440.3 Q1831.99 1440.3 1830 1440.92 Q1828.02 1441.54 1825.76 1442.8 L1825.76 1438.97 Q1828.06 1438.05 1830.05 1437.58 Q1832.05 1437.11 1833.7 1437.11 Q1838.06 1437.11 1840.66 1439.29 Q1843.26 1441.47 1843.26 1445.12 Q1843.26 1446.85 1842.6 1448.41 Q1841.96 1449.95 1840.25 1452.06 Q1839.78 1452.6 1837.26 1455.22 Q1834.74 1457.81 1830.15 1462.5 Z" fill="#000000" fill-rule="evenodd" fill-opacity="1" /><path clip-path="url(#clip700)" d="M 0 0 M1847.56 1437.61 L1862.48 1437.61 L1862.48 1440.81 L1851.04 1440.81 L1851.04 1447.69 Q1851.87 1447.41 1852.7 1447.28 Q1853.52 1447.13 1854.35 1447.13 Q1859.05 1447.13 1861.8 1449.71 Q1864.55 1452.28 1864.55 1456.68 Q1864.55 1461.22 1861.72 1463.74 Q1858.9 1466.24 1853.77 1466.24 Q1852 1466.24 1850.16 1465.94 Q1848.33 1465.64 1846.38 1465.04 L1846.38 1461.22 Q1848.07 1462.14 1849.88 1462.59 Q1851.68 1463.04 1853.69 1463.04 Q1856.95 1463.04 1858.85 1461.33 Q1860.75 1459.62 1860.75 1456.68 Q1860.75 1453.75 1858.85 1452.04 Q1856.95 1450.33 1853.69 1450.33 Q1852.17 1450.33 1850.65 1450.67 Q1849.14 1451 1847.56 1451.72 L1847.56 1437.61 Z" fill="#000000" fill-rule="evenodd" fill-opacity="1" /><path clip-path="url(#clip700)" d="M 0 0 M2221.33 1489.17 L2228.97 1489.17 L2228.97 1462.8 L2220.66 1464.47 L2220.66 1460.21 L2228.92 1458.54 L2233.6 1458.54 L2233.6 1489.17 L2241.24 1489.17 L2241.24 1493.1 L2221.33 1493.1 L2221.33 1489.17 Z" fill="#000000" fill-rule="evenodd" fill-opacity="1" /><path clip-path="url(#clip700)" d="M 0 0 M2256.31 1461.62 Q2252.7 1461.62 2250.87 1465.19 Q2249.06 1468.73 2249.06 1475.86 Q2249.06 1482.97 2250.87 1486.53 Q2252.7 1490.07 2256.31 1490.07 Q2259.94 1490.07 2261.75 1486.53 Q2263.57 1482.97 2263.57 1475.86 Q2263.57 1468.73 2261.75 1465.19 Q2259.94 1461.62 2256.31 1461.62 M2256.31 1457.92 Q2262.12 1457.92 2265.17 1462.53 Q2268.25 1467.11 2268.25 1475.86 Q2268.25 1484.59 2265.17 1489.19 Q2262.12 1493.78 2256.31 1493.78 Q2250.5 1493.78 2247.42 1489.19 Q2244.36 1484.59 2244.36 1475.86 Q2244.36 1467.11 2247.42 1462.53 Q2250.5 1457.92 2256.31 1457.92 Z" fill="#000000" fill-rule="evenodd" fill-opacity="1" /><path clip-path="url(#clip700)" d="M 0 0 M2268.25 1452.02 L2292.36 1452.02 L2292.36 1455.22 L2268.25 1455.22 L2268.25 1452.02 Z" fill="#000000" fill-rule="evenodd" fill-opacity="1" /><path clip-path="url(#clip700)" d="M 0 0 M2299.75 1462.5 L2313.01 1462.5 L2313.01 1465.69 L2295.18 1465.69 L2295.18 1462.5 Q2297.35 1460.26 2301.07 1456.5 Q2304.81 1452.72 2305.77 1451.63 Q2307.6 1449.58 2308.31 1448.16 Q2309.04 1446.74 2309.04 1445.36 Q2309.04 1443.12 2307.46 1441.71 Q2305.9 1440.3 2303.38 1440.3 Q2301.6 1440.3 2299.6 1440.92 Q2297.63 1441.54 2295.37 1442.8 L2295.37 1438.97 Q2297.67 1438.05 2299.66 1437.58 Q2301.65 1437.11 2303.31 1437.11 Q2307.67 1437.11 2310.27 1439.29 Q2312.86 1441.47 2312.86 1445.12 Q2312.86 1446.85 2312.2 1448.41 Q2311.56 1449.95 2309.85 1452.06 Q2309.38 1452.6 2306.86 1455.22 Q2304.34 1457.81 2299.75 1462.5 Z" fill="#000000" fill-rule="evenodd" fill-opacity="1" /><path clip-path="url(#clip700)" d="M 0 0 M2317.13 1460.92 L2321.1 1460.92 L2321.1 1465.69 L2317.13 1465.69 L2317.13 1460.92 Z" fill="#000000" fill-rule="evenodd" fill-opacity="1" /><path clip-path="url(#clip700)" d="M 0 0 M2333.34 1440.11 Q2330.41 1440.11 2328.92 1443.01 Q2327.46 1445.89 2327.46 1451.68 Q2327.46 1457.46 2328.92 1460.35 Q2330.41 1463.23 2333.34 1463.23 Q2336.3 1463.23 2337.76 1460.35 Q2339.25 1457.46 2339.25 1451.68 Q2339.25 1445.89 2337.76 1443.01 Q2336.3 1440.11 2333.34 1440.11 M2333.34 1437.11 Q2338.07 1437.11 2340.55 1440.85 Q2343.05 1444.57 2343.05 1451.68 Q2343.05 1458.77 2340.55 1462.51 Q2338.07 1466.24 2333.34 1466.24 Q2328.62 1466.24 2326.12 1462.51 Q2323.64 1458.77 2323.64 1451.68 Q2323.64 1444.57 2326.12 1440.85 Q2328.62 1437.11 2333.34 1437.11 Z" fill="#000000" fill-rule="evenodd" fill-opacity="1" /><path clip-path="url(#clip700)" d="M 0 0 M2355.29 1440.11 Q2352.36 1440.11 2350.87 1443.01 Q2349.41 1445.89 2349.41 1451.68 Q2349.41 1457.46 2350.87 1460.35 Q2352.36 1463.23 2355.29 1463.23 Q2358.25 1463.23 2359.71 1460.35 Q2361.2 1457.46 2361.2 1451.68 Q2361.2 1445.89 2359.71 1443.01 Q2358.25 1440.11 2355.29 1440.11 M2355.29 1437.11 Q2360.01 1437.11 2362.5 1440.85 Q2365 1444.57 2365 1451.68 Q2365 1458.77 2362.5 1462.51 Q2360.01 1466.24 2355.29 1466.24 Q2350.57 1466.24 2348.07 1462.51 Q2345.59 1458.77 2345.59 1451.68 Q2345.59 1444.57 2348.07 1440.85 Q2350.57 1437.11 2355.29 1437.11 Z" fill="#000000" fill-rule="evenodd" fill-opacity="1" /><path clip-path="url(#clip700)" d="M 0 0 M1186.31 1526.54 L1192.51 1526.54 L1203.65 1556.46 L1214.79 1526.54 L1221 1526.54 L1207.63 1562.19 L1199.68 1562.19 L1186.31 1526.54 Z" fill="#000000" fill-rule="evenodd" fill-opacity="1" /><path clip-path="url(#clip700)" d="M 0 0 M1254.23 1573.01 L1254.23 1577.56 L1220.36 1577.56 L1220.36 1573.01 L1254.23 1573.01 Z" fill="#000000" fill-rule="evenodd" fill-opacity="1" /><path clip-path="url(#clip700)" d="M 0 0 M1286.03 1527.91 L1286.03 1533.38 Q1283.54 1532.01 1281.03 1531.34 Q1278.55 1530.64 1276 1530.64 Q1270.3 1530.64 1267.15 1534.27 Q1264 1537.87 1264 1544.39 Q1264 1550.92 1267.15 1554.55 Q1270.3 1558.14 1276 1558.14 Q1278.55 1558.14 1281.03 1557.47 Q1283.54 1556.77 1286.03 1555.41 L1286.03 1560.82 Q1283.58 1561.96 1280.93 1562.54 Q1278.32 1563.11 1275.36 1563.11 Q1267.31 1563.11 1262.57 1558.05 Q1257.83 1552.99 1257.83 1544.39 Q1257.83 1535.67 1262.6 1530.68 Q1267.41 1525.68 1275.75 1525.68 Q1278.45 1525.68 1281.03 1526.25 Q1283.61 1526.79 1286.03 1527.91 Z" fill="#000000" fill-rule="evenodd" fill-opacity="1" /><path clip-path="url(#clip700)" d="M 0 0 M1292.17 1512.66 L1298.03 1512.66 L1298.03 1562.19 L1292.17 1562.19 L1292.17 1512.66 Z" fill="#000000" fill-rule="evenodd" fill-opacity="1" /><path clip-path="url(#clip700)" d="M 0 0 M1317.98 1530.64 Q1313.27 1530.64 1310.53 1534.34 Q1307.8 1538 1307.8 1544.39 Q1307.8 1550.79 1310.5 1554.48 Q1313.24 1558.14 1317.98 1558.14 Q1322.66 1558.14 1325.4 1554.45 Q1328.14 1550.76 1328.14 1544.39 Q1328.14 1538.06 1325.4 1534.37 Q1322.66 1530.64 1317.98 1530.64 M1317.98 1525.68 Q1325.62 1525.68 1329.98 1530.64 Q1334.34 1535.61 1334.34 1544.39 Q1334.34 1553.15 1329.98 1558.14 Q1325.62 1563.11 1317.98 1563.11 Q1310.31 1563.11 1305.95 1558.14 Q1301.62 1553.15 1301.62 1544.39 Q1301.62 1535.61 1305.95 1530.64 Q1310.31 1525.68 1317.98 1525.68 Z" fill="#000000" fill-rule="evenodd" fill-opacity="1" /><path clip-path="url(#clip700)" d="M 0 0 M1363.21 1527.59 L1363.21 1533.13 Q1360.73 1531.85 1358.05 1531.22 Q1355.38 1530.58 1352.52 1530.58 Q1348.16 1530.58 1345.96 1531.92 Q1343.79 1533.25 1343.79 1535.93 Q1343.79 1537.96 1345.35 1539.14 Q1346.91 1540.29 1351.62 1541.34 L1353.63 1541.78 Q1359.87 1543.12 1362.48 1545.57 Q1365.12 1547.99 1365.12 1552.35 Q1365.12 1557.32 1361.17 1560.21 Q1357.26 1563.11 1350.38 1563.11 Q1347.52 1563.11 1344.4 1562.54 Q1341.31 1561.99 1337.87 1560.88 L1337.87 1554.83 Q1341.12 1556.52 1344.27 1557.38 Q1347.42 1558.21 1350.51 1558.21 Q1354.65 1558.21 1356.88 1556.81 Q1359.1 1555.37 1359.1 1552.8 Q1359.1 1550.41 1357.48 1549.14 Q1355.89 1547.86 1350.45 1546.68 L1348.41 1546.21 Q1342.97 1545.06 1340.55 1542.71 Q1338.13 1540.32 1338.13 1536.18 Q1338.13 1531.15 1341.69 1528.42 Q1345.26 1525.68 1351.82 1525.68 Q1355.06 1525.68 1357.93 1526.16 Q1360.79 1526.63 1363.21 1527.59 Z" fill="#000000" fill-rule="evenodd" fill-opacity="1" /><path clip-path="url(#clip700)" d="M 0 0 M1401.75 1542.9 L1401.75 1545.76 L1374.83 1545.76 Q1375.21 1551.81 1378.46 1554.99 Q1381.73 1558.14 1387.56 1558.14 Q1390.93 1558.14 1394.08 1557.32 Q1397.27 1556.49 1400.39 1554.83 L1400.39 1560.37 Q1397.23 1561.71 1393.92 1562.41 Q1390.61 1563.11 1387.21 1563.11 Q1378.68 1563.11 1373.68 1558.14 Q1368.72 1553.18 1368.72 1544.71 Q1368.72 1535.96 1373.43 1530.83 Q1378.17 1525.68 1386.19 1525.68 Q1393.38 1525.68 1397.55 1530.33 Q1401.75 1534.94 1401.75 1542.9 M1395.9 1541.18 Q1395.83 1536.37 1393.19 1533.51 Q1390.58 1530.64 1386.25 1530.64 Q1381.35 1530.64 1378.39 1533.41 Q1375.46 1536.18 1375.02 1541.21 L1395.9 1541.18 Z" fill="#000000" fill-rule="evenodd" fill-opacity="1" /><polyline clip-path="url(#clip702)" style="stroke:#000000; stroke-width:2; stroke-opacity:0.1; fill:none" points="
  235.306,1311.16 2352.76,1311.16 
  "/>
<polyline clip-path="url(#clip702)" style="stroke:#000000; stroke-width:2; stroke-opacity:0.1; fill:none" points="
  235.306,1007.02 2352.76,1007.02 
  "/>
<polyline clip-path="url(#clip702)" style="stroke:#000000; stroke-width:2; stroke-opacity:0.1; fill:none" points="
  235.306,702.883 2352.76,702.883 
  "/>
<polyline clip-path="url(#clip702)" style="stroke:#000000; stroke-width:2; stroke-opacity:0.1; fill:none" points="
  235.306,398.744 2352.76,398.744 
  "/>
<polyline clip-path="url(#clip702)" style="stroke:#000000; stroke-width:2; stroke-opacity:0.1; fill:none" points="
  235.306,94.6045 2352.76,94.6045 
  "/>
<polyline clip-path="url(#clip700)" style="stroke:#000000; stroke-width:4; stroke-opacity:1; fill:none" points="
  235.306,1410.9 235.306,47.2441 
  "/>
<polyline clip-path="url(#clip700)" style="stroke:#000000; stroke-width:4; stroke-opacity:1; fill:none" points="
  235.306,1311.16 260.715,1311.16 
  "/>
<polyline clip-path="url(#clip700)" style="stroke:#000000; stroke-width:4; stroke-opacity:1; fill:none" points="
  235.306,1007.02 260.715,1007.02 
  "/>
<polyline clip-path="url(#clip700)" style="stroke:#000000; stroke-width:4; stroke-opacity:1; fill:none" points="
  235.306,702.883 260.715,702.883 
  "/>
<polyline clip-path="url(#clip700)" style="stroke:#000000; stroke-width:4; stroke-opacity:1; fill:none" points="
  235.306,398.744 260.715,398.744 
  "/>
<polyline clip-path="url(#clip700)" style="stroke:#000000; stroke-width:4; stroke-opacity:1; fill:none" points="
  235.306,94.6045 260.715,94.6045 
  "/>
<path clip-path="url(#clip700)" d="M 0 0 M115.58 1324.51 L123.218 1324.51 L123.218 1298.14 L114.908 1299.81 L114.908 1295.55 L123.172 1293.88 L127.848 1293.88 L127.848 1324.51 L135.487 1324.51 L135.487 1328.44 L115.58 1328.44 L115.58 1324.51 Z" fill="#000000" fill-rule="evenodd" fill-opacity="1" /><path clip-path="url(#clip700)" d="M 0 0 M154.723 1309.81 Q158.079 1310.53 159.954 1312.79 Q161.852 1315.06 161.852 1318.4 Q161.852 1323.51 158.334 1326.31 Q154.815 1329.11 148.334 1329.11 Q146.158 1329.11 143.843 1328.67 Q141.552 1328.26 139.098 1327.4 L139.098 1322.89 Q141.042 1324.02 143.357 1324.6 Q145.672 1325.18 148.195 1325.18 Q152.593 1325.18 154.885 1323.44 Q157.2 1321.71 157.2 1318.4 Q157.2 1315.34 155.047 1313.63 Q152.917 1311.89 149.098 1311.89 L145.07 1311.89 L145.07 1308.05 L149.283 1308.05 Q152.732 1308.05 154.561 1306.68 Q156.39 1305.29 156.39 1302.7 Q156.39 1300.04 154.491 1298.63 Q152.616 1297.19 149.098 1297.19 Q147.177 1297.19 144.978 1297.61 Q142.779 1298.03 140.14 1298.91 L140.14 1294.74 Q142.802 1294 145.116 1293.63 Q147.454 1293.26 149.515 1293.26 Q154.839 1293.26 157.94 1295.69 Q161.042 1298.1 161.042 1302.22 Q161.042 1305.09 159.399 1307.08 Q157.755 1309.04 154.723 1309.81 Z" fill="#000000" fill-rule="evenodd" fill-opacity="1" /><path clip-path="url(#clip700)" d="M 0 0 M166.922 1322.56 L171.806 1322.56 L171.806 1328.44 L166.922 1328.44 L166.922 1322.56 Z" fill="#000000" fill-rule="evenodd" fill-opacity="1" /><path clip-path="url(#clip700)" d="M 0 0 M189.723 1297.96 L177.917 1316.41 L189.723 1316.41 L189.723 1297.96 M188.496 1293.88 L194.375 1293.88 L194.375 1316.41 L199.306 1316.41 L199.306 1320.29 L194.375 1320.29 L194.375 1328.44 L189.723 1328.44 L189.723 1320.29 L174.121 1320.29 L174.121 1315.78 L188.496 1293.88 Z" fill="#000000" fill-rule="evenodd" fill-opacity="1" /><path clip-path="url(#clip700)" d="M 0 0 M115.904 1020.37 L123.543 1020.37 L123.543 994.002 L115.232 995.669 L115.232 991.41 L123.496 989.743 L128.172 989.743 L128.172 1020.37 L135.811 1020.37 L135.811 1024.3 L115.904 1024.3 L115.904 1020.37 Z" fill="#000000" fill-rule="evenodd" fill-opacity="1" /><path clip-path="url(#clip700)" d="M 0 0 M155.047 1005.67 Q158.403 1006.39 160.278 1008.65 Q162.177 1010.92 162.177 1014.26 Q162.177 1019.37 158.658 1022.17 Q155.14 1024.97 148.658 1024.97 Q146.482 1024.97 144.167 1024.53 Q141.876 1024.12 139.422 1023.26 L139.422 1018.75 Q141.366 1019.88 143.681 1020.46 Q145.996 1021.04 148.519 1021.04 Q152.917 1021.04 155.209 1019.3 Q157.524 1017.57 157.524 1014.26 Q157.524 1011.2 155.371 1009.49 Q153.241 1007.75 149.422 1007.75 L145.394 1007.75 L145.394 1003.91 L149.607 1003.91 Q153.056 1003.91 154.885 1002.54 Q156.714 1001.15 156.714 998.562 Q156.714 995.9 154.815 994.488 Q152.941 993.053 149.422 993.053 Q147.501 993.053 145.302 993.47 Q143.103 993.886 140.464 994.766 L140.464 990.599 Q143.126 989.859 145.441 989.488 Q147.778 989.118 149.839 989.118 Q155.163 989.118 158.265 991.549 Q161.366 993.956 161.366 998.076 Q161.366 1000.95 159.723 1002.94 Q158.079 1004.9 155.047 1005.67 Z" fill="#000000" fill-rule="evenodd" fill-opacity="1" /><path clip-path="url(#clip700)" d="M 0 0 M167.246 1018.42 L172.13 1018.42 L172.13 1024.3 L167.246 1024.3 L167.246 1018.42 Z" fill="#000000" fill-rule="evenodd" fill-opacity="1" /><path clip-path="url(#clip700)" d="M 0 0 M187.778 1005.16 Q184.63 1005.16 182.778 1007.31 Q180.95 1009.47 180.95 1013.22 Q180.95 1016.94 182.778 1019.12 Q184.63 1021.27 187.778 1021.27 Q190.926 1021.27 192.755 1019.12 Q194.607 1016.94 194.607 1013.22 Q194.607 1009.47 192.755 1007.31 Q190.926 1005.16 187.778 1005.16 M197.061 990.507 L197.061 994.766 Q195.301 993.933 193.496 993.493 Q191.713 993.053 189.954 993.053 Q185.325 993.053 182.871 996.178 Q180.44 999.303 180.093 1005.62 Q181.459 1003.61 183.519 1002.54 Q185.579 1001.46 188.056 1001.46 Q193.264 1001.46 196.274 1004.63 Q199.306 1007.78 199.306 1013.22 Q199.306 1018.54 196.158 1021.76 Q193.01 1024.97 187.778 1024.97 Q181.783 1024.97 178.612 1020.39 Q175.44 1015.78 175.44 1007.06 Q175.44 998.863 179.329 994.002 Q183.218 989.118 189.769 989.118 Q191.528 989.118 193.311 989.465 Q195.116 989.812 197.061 990.507 Z" fill="#000000" fill-rule="evenodd" fill-opacity="1" /><path clip-path="url(#clip700)" d="M 0 0 M116.158 716.228 L123.797 716.228 L123.797 689.863 L115.487 691.529 L115.487 687.27 L123.751 685.603 L128.427 685.603 L128.427 716.228 L136.066 716.228 L136.066 720.163 L116.158 720.163 L116.158 716.228 Z" fill="#000000" fill-rule="evenodd" fill-opacity="1" /><path clip-path="url(#clip700)" d="M 0 0 M155.302 701.529 Q158.658 702.247 160.533 704.515 Q162.431 706.784 162.431 710.117 Q162.431 715.233 158.913 718.034 Q155.394 720.835 148.913 720.835 Q146.737 720.835 144.422 720.395 Q142.13 719.978 139.677 719.122 L139.677 714.608 Q141.621 715.742 143.936 716.321 Q146.251 716.9 148.774 716.9 Q153.172 716.9 155.464 715.164 Q157.778 713.427 157.778 710.117 Q157.778 707.062 155.626 705.349 Q153.496 703.613 149.677 703.613 L145.649 703.613 L145.649 699.77 L149.862 699.77 Q153.311 699.77 155.14 698.404 Q156.968 697.015 156.968 694.423 Q156.968 691.761 155.07 690.349 Q153.195 688.914 149.677 688.914 Q147.755 688.914 145.556 689.33 Q143.357 689.747 140.718 690.627 L140.718 686.46 Q143.38 685.719 145.695 685.349 Q148.033 684.978 150.093 684.978 Q155.417 684.978 158.519 687.409 Q161.621 689.816 161.621 693.937 Q161.621 696.807 159.978 698.798 Q158.334 700.765 155.302 701.529 Z" fill="#000000" fill-rule="evenodd" fill-opacity="1" /><path clip-path="url(#clip700)" d="M 0 0 M167.501 714.284 L172.385 714.284 L172.385 720.163 L167.501 720.163 L167.501 714.284 Z" fill="#000000" fill-rule="evenodd" fill-opacity="1" /><path clip-path="url(#clip700)" d="M 0 0 M187.454 703.752 Q184.121 703.752 182.2 705.534 Q180.301 707.316 180.301 710.441 Q180.301 713.566 182.2 715.349 Q184.121 717.131 187.454 717.131 Q190.788 717.131 192.709 715.349 Q194.63 713.543 194.63 710.441 Q194.63 707.316 192.709 705.534 Q190.811 703.752 187.454 703.752 M182.778 701.761 Q179.769 701.02 178.079 698.96 Q176.413 696.9 176.413 693.937 Q176.413 689.793 179.352 687.386 Q182.315 684.978 187.454 684.978 Q192.616 684.978 195.556 687.386 Q198.496 689.793 198.496 693.937 Q198.496 696.9 196.806 698.96 Q195.139 701.02 192.153 701.761 Q195.533 702.548 197.408 704.84 Q199.306 707.131 199.306 710.441 Q199.306 715.464 196.227 718.15 Q193.172 720.835 187.454 720.835 Q181.737 720.835 178.658 718.15 Q175.602 715.464 175.602 710.441 Q175.602 707.131 177.501 704.84 Q179.399 702.548 182.778 701.761 M181.065 694.377 Q181.065 697.062 182.732 698.566 Q184.422 700.071 187.454 700.071 Q190.463 700.071 192.153 698.566 Q193.866 697.062 193.866 694.377 Q193.866 691.691 192.153 690.187 Q190.463 688.682 187.454 688.682 Q184.422 688.682 182.732 690.187 Q181.065 691.691 181.065 694.377 Z" fill="#000000" fill-rule="evenodd" fill-opacity="1" /><path clip-path="url(#clip700)" d="M 0 0 M114.931 412.089 L122.57 412.089 L122.57 385.723 L114.26 387.39 L114.26 383.131 L122.524 381.464 L127.2 381.464 L127.2 412.089 L134.839 412.089 L134.839 416.024 L114.931 416.024 L114.931 412.089 Z" fill="#000000" fill-rule="evenodd" fill-opacity="1" /><path clip-path="url(#clip700)" d="M 0 0 M152.755 385.538 L140.95 403.987 L152.755 403.987 L152.755 385.538 M151.528 381.464 L157.408 381.464 L157.408 403.987 L162.339 403.987 L162.339 407.876 L157.408 407.876 L157.408 416.024 L152.755 416.024 L152.755 407.876 L137.154 407.876 L137.154 403.362 L151.528 381.464 Z" fill="#000000" fill-rule="evenodd" fill-opacity="1" /><path clip-path="url(#clip700)" d="M 0 0 M167.408 410.144 L172.292 410.144 L172.292 416.024 L167.408 416.024 L167.408 410.144 Z" fill="#000000" fill-rule="evenodd" fill-opacity="1" /><path clip-path="url(#clip700)" d="M 0 0 M187.362 384.543 Q183.751 384.543 181.922 388.107 Q180.116 391.649 180.116 398.779 Q180.116 405.885 181.922 409.45 Q183.751 412.992 187.362 412.992 Q190.996 412.992 192.801 409.45 Q194.63 405.885 194.63 398.779 Q194.63 391.649 192.801 388.107 Q190.996 384.543 187.362 384.543 M187.362 380.839 Q193.172 380.839 196.227 385.445 Q199.306 390.029 199.306 398.779 Q199.306 407.506 196.227 412.112 Q193.172 416.695 187.362 416.695 Q181.551 416.695 178.473 412.112 Q175.417 407.506 175.417 398.779 Q175.417 390.029 178.473 385.445 Q181.551 380.839 187.362 380.839 Z" fill="#000000" fill-rule="evenodd" fill-opacity="1" /><path clip-path="url(#clip700)" d="M 0 0 M116.529 107.949 L124.168 107.949 L124.168 81.5837 L115.857 83.2504 L115.857 78.9912 L124.121 77.3245 L128.797 77.3245 L128.797 107.949 L136.436 107.949 L136.436 111.885 L116.529 111.885 L116.529 107.949 Z" fill="#000000" fill-rule="evenodd" fill-opacity="1" /><path clip-path="url(#clip700)" d="M 0 0 M154.353 81.3986 L142.547 99.8475 L154.353 99.8475 L154.353 81.3986 M153.126 77.3245 L159.005 77.3245 L159.005 99.8475 L163.936 99.8475 L163.936 103.736 L159.005 103.736 L159.005 111.885 L154.353 111.885 L154.353 103.736 L138.751 103.736 L138.751 99.2225 L153.126 77.3245 Z" fill="#000000" fill-rule="evenodd" fill-opacity="1" /><path clip-path="url(#clip700)" d="M 0 0 M169.005 106.005 L173.889 106.005 L173.889 111.885 L169.005 111.885 L169.005 106.005 Z" fill="#000000" fill-rule="evenodd" fill-opacity="1" /><path clip-path="url(#clip700)" d="M 0 0 M182.987 107.949 L199.306 107.949 L199.306 111.885 L177.362 111.885 L177.362 107.949 Q180.024 105.195 184.607 100.565 Q189.213 95.9124 190.394 94.5698 Q192.639 92.0466 193.519 90.3105 Q194.422 88.5513 194.422 86.8615 Q194.422 84.1069 192.477 82.3708 Q190.556 80.6347 187.454 80.6347 Q185.255 80.6347 182.801 81.3986 Q180.371 82.1624 177.593 83.7134 L177.593 78.9912 Q180.417 77.8569 182.871 77.2782 Q185.325 76.6995 187.362 76.6995 Q192.732 76.6995 195.926 79.3847 Q199.121 82.0699 199.121 86.5606 Q199.121 88.6902 198.311 90.6115 Q197.524 92.5096 195.417 95.1022 Q194.838 95.7735 191.737 98.9911 Q188.635 102.185 182.987 107.949 Z" fill="#000000" fill-rule="evenodd" fill-opacity="1" /><path clip-path="url(#clip700)" d="M 0 0 M59.1993 815.533 Q55.2526 813.336 53.3747 810.281 Q51.4968 807.225 51.4968 803.088 Q51.4968 797.518 55.4117 794.494 Q59.2948 791.47 66.4881 791.47 L88.0042 791.47 L88.0042 797.358 L66.679 797.358 Q61.5546 797.358 59.072 799.173 Q56.5894 800.987 56.5894 804.711 Q56.5894 809.262 59.6131 811.904 Q62.6368 814.546 67.8567 814.546 L88.0042 814.546 L88.0042 820.434 L66.679 820.434 Q61.5228 820.434 59.072 822.248 Q56.5894 824.063 56.5894 827.85 Q56.5894 832.338 59.6449 834.98 Q62.6686 837.622 67.8567 837.622 L88.0042 837.622 L88.0042 843.51 L52.3562 843.51 L52.3562 837.622 L57.8944 837.622 Q54.616 835.616 53.0564 832.815 Q51.4968 830.015 51.4968 826.163 Q51.4968 822.28 53.4702 819.575 Q55.4436 816.838 59.1993 815.533 Z" fill="#000000" fill-rule="evenodd" fill-opacity="1" /><path clip-path="url(#clip700)" d="M 0 0 M52.3562 785.327 L52.3562 779.471 L88.0042 779.471 L88.0042 785.327 L52.3562 785.327 M38.479 785.327 L38.479 779.471 L45.895 779.471 L45.895 785.327 L38.479 785.327 Z" fill="#000000" fill-rule="evenodd" fill-opacity="1" /><path clip-path="url(#clip700)" d="M 0 0 M66.4881 743.696 L88.0042 743.696 L88.0042 749.552 L66.679 749.552 Q61.6183 749.552 59.1038 751.525 Q56.5894 753.499 56.5894 757.446 Q56.5894 762.188 59.6131 764.925 Q62.6368 767.662 67.8567 767.662 L88.0042 767.662 L88.0042 773.551 L52.3562 773.551 L52.3562 767.662 L57.8944 767.662 Q54.6797 765.562 53.0883 762.729 Q51.4968 759.864 51.4968 756.141 Q51.4968 749.998 55.3163 746.847 Q59.1038 743.696 66.4881 743.696 Z" fill="#000000" fill-rule="evenodd" fill-opacity="1" /><path clip-path="url(#clip700)" d="M 0 0 M98.8259 710.467 L103.377 710.467 L103.377 744.332 L98.8259 744.332 L98.8259 710.467 Z" fill="#000000" fill-rule="evenodd" fill-opacity="1" /><path clip-path="url(#clip700)" d="M 0 0 M57.7671 680.866 L38.479 680.866 L38.479 675.01 L88.0042 675.01 L88.0042 680.866 L82.657 680.866 Q85.8398 682.712 87.3994 685.545 Q88.9272 688.346 88.9272 692.292 Q88.9272 698.754 83.771 702.828 Q78.6147 706.87 70.212 706.87 Q61.8093 706.87 56.6531 702.828 Q51.4968 698.754 51.4968 692.292 Q51.4968 688.346 53.0564 685.545 Q54.5842 682.712 57.7671 680.866 M70.212 700.823 Q76.6732 700.823 80.3653 698.181 Q84.0256 695.507 84.0256 690.86 Q84.0256 686.213 80.3653 683.54 Q76.6732 680.866 70.212 680.866 Q63.7508 680.866 60.0905 683.54 Q56.3984 686.213 56.3984 690.86 Q56.3984 695.507 60.0905 698.181 Q63.7508 700.823 70.212 700.823 Z" fill="#000000" fill-rule="evenodd" fill-opacity="1" /><path clip-path="url(#clip700)" d="M 0 0 M52.3562 668.867 L52.3562 663.01 L88.0042 663.01 L88.0042 668.867 L52.3562 668.867 M38.479 668.867 L38.479 663.01 L45.895 663.01 L45.895 668.867 L38.479 668.867 Z" fill="#000000" fill-rule="evenodd" fill-opacity="1" /><path clip-path="url(#clip700)" d="M 0 0 M38.479 638.821 L43.3487 638.821 L43.3487 644.422 Q43.3487 647.573 44.6219 648.815 Q45.895 650.024 49.2052 650.024 L52.3562 650.024 L52.3562 640.38 L56.9077 640.38 L56.9077 650.024 L88.0042 650.024 L88.0042 655.912 L56.9077 655.912 L56.9077 661.514 L52.3562 661.514 L52.3562 655.912 L49.8736 655.912 Q43.9216 655.912 41.2162 653.143 Q38.479 650.374 38.479 644.359 L38.479 638.821 Z" fill="#000000" fill-rule="evenodd" fill-opacity="1" /><path clip-path="url(#clip700)" d="M 0 0 M38.479 614.631 L43.3487 614.631 L43.3487 620.233 Q43.3487 623.384 44.6219 624.625 Q45.895 625.835 49.2052 625.835 L52.3562 625.835 L52.3562 616.19 L56.9077 616.19 L56.9077 625.835 L88.0042 625.835 L88.0042 631.723 L56.9077 631.723 L56.9077 637.325 L52.3562 637.325 L52.3562 631.723 L49.8736 631.723 Q43.9216 631.723 41.2162 628.954 Q38.479 626.185 38.479 620.169 L38.479 614.631 Z" fill="#000000" fill-rule="evenodd" fill-opacity="1" /><polyline clip-path="url(#clip702)" style="stroke:#009af9; stroke-width:20; stroke-opacity:1; fill:none" stroke-dasharray="80, 50" points="
  295.234,85.838 1294.03,1372.3 2292.83,1195.07 
  "/>
<path clip-path="url(#clip700)" d="
M1995.88 213.659 L2282.17 213.659 L2282.17 92.6992 L1995.88 92.6992  Z
  " fill="#ffffff" fill-rule="evenodd" fill-opacity="1"/>
<polyline clip-path="url(#clip700)" style="stroke:#000000; stroke-width:4; stroke-opacity:1; fill:none" points="
  1995.88,213.659 2282.17,213.659 2282.17,92.6992 1995.88,92.6992 1995.88,213.659 
  "/>
<polyline clip-path="url(#clip700)" style="stroke:#009af9; stroke-width:4; stroke-opacity:1; fill:none" stroke-dasharray="16, 10" points="
  2019.41,153.179 2160.57,153.179 
  "/>
<path clip-path="url(#clip700)" d="M 0 0 M2197.94 172.867 Q2196.14 177.496 2194.43 178.908 Q2192.71 180.32 2189.84 180.32 L2186.44 180.32 L2186.44 176.755 L2188.94 176.755 Q2190.7 176.755 2191.67 175.922 Q2192.64 175.089 2193.82 171.987 L2194.59 170.043 L2184.1 144.533 L2188.62 144.533 L2196.72 164.811 L2204.82 144.533 L2209.33 144.533 L2197.94 172.867 Z" fill="#000000" fill-rule="evenodd" fill-opacity="1" /><path clip-path="url(#clip700)" d="M 0 0 M2215.21 166.524 L2222.85 166.524 L2222.85 140.158 L2214.54 141.825 L2214.54 137.566 L2222.81 135.899 L2227.48 135.899 L2227.48 166.524 L2235.12 166.524 L2235.12 170.459 L2215.21 170.459 L2215.21 166.524 Z" fill="#000000" fill-rule="evenodd" fill-opacity="1" /></svg>
