<?xml version="1.0" encoding="utf-8"?>
<svg xmlns="http://www.w3.org/2000/svg" xmlns:xlink="http://www.w3.org/1999/xlink" width="600" height="400" viewBox="0 0 2400 1600">
<defs>
  <clipPath id="clip990">
    <rect x="0" y="0" width="2400" height="1600"/>
  </clipPath>
</defs>
<path clip-path="url(#clip990)" d="
M0 1600 L2400 1600 L2400 0 L0 0  Z
  " fill="#ffffff" fill-rule="evenodd" fill-opacity="1"/>
<defs>
  <clipPath id="clip991">
    <rect x="480" y="0" width="1681" height="1600"/>
  </clipPath>
</defs>
<path clip-path="url(#clip990)" d="
M229.473 1410.9 L2352.76 1410.9 L2352.76 47.2441 L229.473 47.2441  Z
  " fill="#ffffff" fill-rule="evenodd" fill-opacity="1"/>
<defs>
  <clipPath id="clip992">
    <rect x="229" y="47" width="2124" height="1365"/>
  </clipPath>
</defs>
<polyline clip-path="url(#clip992)" style="stroke:#000000; stroke-width:2; stroke-opacity:0.1; fill:none" points="
  445.114,1410.9 445.114,47.2441 
  "/>
<polyline clip-path="url(#clip992)" style="stroke:#000000; stroke-width:2; stroke-opacity:0.1; fill:none" points="
  753.039,1410.9 753.039,47.2441 
  "/>
<polyline clip-path="url(#clip992)" style="stroke:#000000; stroke-width:2; stroke-opacity:0.1; fill:none" points="
  1060.96,1410.9 1060.96,47.2441 
  "/>
<polyline clip-path="url(#clip992)" style="stroke:#000000; stroke-width:2; stroke-opacity:0.1; fill:none" points="
  1368.89,1410.9 1368.89,47.2441 
  "/>
<polyline clip-path="url(#clip992)" style="stroke:#000000; stroke-width:2; stroke-opacity:0.1; fill:none" points="
  1676.81,1410.9 1676.81,47.2441 
  "/>
<polyline clip-path="url(#clip992)" style="stroke:#000000; stroke-width:2; stroke-opacity:0.1; fill:none" points="
  1984.74,1410.9 1984.74,47.2441 
  "/>
<polyline clip-path="url(#clip992)" style="stroke:#000000; stroke-width:2; stroke-opacity:0.1; fill:none" points="
  2292.66,1410.9 2292.66,47.2441 
  "/>
<polyline clip-path="url(#clip990)" style="stroke:#000000; stroke-width:4; stroke-opacity:1; fill:none" points="
  229.473,1410.9 2352.76,1410.9 
  "/>
<polyline clip-path="url(#clip990)" style="stroke:#000000; stroke-width:4; stroke-opacity:1; fill:none" points="
  445.114,1410.9 445.114,1394.53 
  "/>
<polyline clip-path="url(#clip990)" style="stroke:#000000; stroke-width:4; stroke-opacity:1; fill:none" points="
  753.039,1410.9 753.039,1394.53 
  "/>
<polyline clip-path="url(#clip990)" style="stroke:#000000; stroke-width:4; stroke-opacity:1; fill:none" points="
  1060.96,1410.9 1060.96,1394.53 
  "/>
<polyline clip-path="url(#clip990)" style="stroke:#000000; stroke-width:4; stroke-opacity:1; fill:none" points="
  1368.89,1410.9 1368.89,1394.53 
  "/>
<polyline clip-path="url(#clip990)" style="stroke:#000000; stroke-width:4; stroke-opacity:1; fill:none" points="
  1676.81,1410.9 1676.81,1394.53 
  "/>
<polyline clip-path="url(#clip990)" style="stroke:#000000; stroke-width:4; stroke-opacity:1; fill:none" points="
  1984.74,1410.9 1984.74,1394.53 
  "/>
<polyline clip-path="url(#clip990)" style="stroke:#000000; stroke-width:4; stroke-opacity:1; fill:none" points="
  2292.66,1410.9 2292.66,1394.53 
  "/>
<path clip-path="url(#clip990)" d="M 0 0 M384.59 1489.17 L392.229 1489.17 L392.229 1462.8 L383.918 1464.47 L383.918 1460.21 L392.182 1458.54 L396.858 1458.54 L396.858 1489.17 L404.497 1489.17 L404.497 1493.1 L384.59 1493.1 L384.59 1489.17 Z" fill="#000000" fill-rule="evenodd" fill-opacity="1" /><path clip-path="url(#clip990)" d="M 0 0 M419.566 1461.62 Q415.955 1461.62 414.127 1465.19 Q412.321 1468.73 412.321 1475.86 Q412.321 1482.97 414.127 1486.53 Q415.955 1490.07 419.566 1490.07 Q423.201 1490.07 425.006 1486.53 Q426.835 1482.97 426.835 1475.86 Q426.835 1468.73 425.006 1465.19 Q423.201 1461.62 419.566 1461.62 M419.566 1457.92 Q425.377 1457.92 428.432 1462.53 Q431.511 1467.11 431.511 1475.86 Q431.511 1484.59 428.432 1489.19 Q425.377 1493.78 419.566 1493.78 Q413.756 1493.78 410.678 1489.19 Q407.622 1484.59 407.622 1475.86 Q407.622 1467.11 410.678 1462.53 Q413.756 1457.92 419.566 1457.92 Z" fill="#000000" fill-rule="evenodd" fill-opacity="1" /><path clip-path="url(#clip990)" d="M 0 0 M431.511 1452.02 L455.622 1452.02 L455.622 1455.22 L431.511 1455.22 L431.511 1452.02 Z" fill="#000000" fill-rule="evenodd" fill-opacity="1" /><path clip-path="url(#clip990)" d="M 0 0 M467.866 1440.11 Q464.932 1440.11 463.446 1443.01 Q461.979 1445.89 461.979 1451.68 Q461.979 1457.46 463.446 1460.35 Q464.932 1463.23 467.866 1463.23 Q470.819 1463.23 472.286 1460.35 Q473.772 1457.46 473.772 1451.68 Q473.772 1445.89 472.286 1443.01 Q470.819 1440.11 467.866 1440.11 M467.866 1437.11 Q472.587 1437.11 475.07 1440.85 Q477.571 1444.57 477.571 1451.68 Q477.571 1458.77 475.07 1462.51 Q472.587 1466.24 467.866 1466.24 Q463.145 1466.24 460.644 1462.51 Q458.161 1458.77 458.161 1451.68 Q458.161 1444.57 460.644 1440.85 Q463.145 1437.11 467.866 1437.11 Z" fill="#000000" fill-rule="evenodd" fill-opacity="1" /><path clip-path="url(#clip990)" d="M 0 0 M481.69 1460.92 L485.658 1460.92 L485.658 1465.69 L481.69 1465.69 L481.69 1460.92 Z" fill="#000000" fill-rule="evenodd" fill-opacity="1" /><path clip-path="url(#clip990)" d="M 0 0 M493.05 1462.5 L506.309 1462.5 L506.309 1465.69 L488.48 1465.69 L488.48 1462.5 Q490.642 1460.26 494.366 1456.5 Q498.109 1452.72 499.068 1451.63 Q500.893 1449.58 501.607 1448.16 Q502.341 1446.74 502.341 1445.36 Q502.341 1443.12 500.761 1441.71 Q499.2 1440.3 496.68 1440.3 Q494.893 1440.3 492.899 1440.92 Q490.925 1441.54 488.668 1442.8 L488.668 1438.97 Q490.962 1438.05 492.956 1437.58 Q494.949 1437.11 496.604 1437.11 Q500.968 1437.11 503.563 1439.29 Q506.159 1441.47 506.159 1445.12 Q506.159 1446.85 505.501 1448.41 Q504.861 1449.95 503.15 1452.06 Q502.679 1452.6 500.159 1455.22 Q497.639 1457.81 493.05 1462.5 Z" fill="#000000" fill-rule="evenodd" fill-opacity="1" /><path clip-path="url(#clip990)" d="M 0 0 M705.191 1489.17 L712.83 1489.17 L712.83 1462.8 L704.52 1464.47 L704.52 1460.21 L712.784 1458.54 L717.459 1458.54 L717.459 1489.17 L725.098 1489.17 L725.098 1493.1 L705.191 1493.1 L705.191 1489.17 Z" fill="#000000" fill-rule="evenodd" fill-opacity="1" /><path clip-path="url(#clip990)" d="M 0 0 M740.168 1461.62 Q736.557 1461.62 734.728 1465.19 Q732.922 1468.73 732.922 1475.86 Q732.922 1482.97 734.728 1486.53 Q736.557 1490.07 740.168 1490.07 Q743.802 1490.07 745.607 1486.53 Q747.436 1482.97 747.436 1475.86 Q747.436 1468.73 745.607 1465.19 Q743.802 1461.62 740.168 1461.62 M740.168 1457.92 Q745.978 1457.92 749.033 1462.53 Q752.112 1467.11 752.112 1475.86 Q752.112 1484.59 749.033 1489.19 Q745.978 1493.78 740.168 1493.78 Q734.358 1493.78 731.279 1489.19 Q728.223 1484.59 728.223 1475.86 Q728.223 1467.11 731.279 1462.53 Q734.358 1457.92 740.168 1457.92 Z" fill="#000000" fill-rule="evenodd" fill-opacity="1" /><path clip-path="url(#clip990)" d="M 0 0 M761.817 1440.11 Q758.883 1440.11 757.397 1443.01 Q755.93 1445.89 755.93 1451.68 Q755.93 1457.46 757.397 1460.35 Q758.883 1463.23 761.817 1463.23 Q764.77 1463.23 766.237 1460.35 Q767.723 1457.46 767.723 1451.68 Q767.723 1445.89 766.237 1443.01 Q764.77 1440.11 761.817 1440.11 M761.817 1437.11 Q766.538 1437.11 769.02 1440.85 Q771.522 1444.57 771.522 1451.68 Q771.522 1458.77 769.02 1462.51 Q766.538 1466.24 761.817 1466.24 Q757.096 1466.24 754.595 1462.51 Q752.112 1458.77 752.112 1451.68 Q752.112 1444.57 754.595 1440.85 Q757.096 1437.11 761.817 1437.11 Z" fill="#000000" fill-rule="evenodd" fill-opacity="1" /><path clip-path="url(#clip990)" d="M 0 0 M775.641 1460.92 L779.609 1460.92 L779.609 1465.69 L775.641 1465.69 L775.641 1460.92 Z" fill="#000000" fill-rule="evenodd" fill-opacity="1" /><path clip-path="url(#clip990)" d="M 0 0 M791.853 1440.11 Q788.919 1440.11 787.433 1443.01 Q785.966 1445.89 785.966 1451.68 Q785.966 1457.46 787.433 1460.35 Q788.919 1463.23 791.853 1463.23 Q794.806 1463.23 796.273 1460.35 Q797.759 1457.46 797.759 1451.68 Q797.759 1445.89 796.273 1443.01 Q794.806 1440.11 791.853 1440.11 M791.853 1437.11 Q796.574 1437.11 799.056 1440.85 Q801.558 1444.57 801.558 1451.68 Q801.558 1458.77 799.056 1462.51 Q796.574 1466.24 791.853 1466.24 Q787.132 1466.24 784.631 1462.51 Q782.148 1458.77 782.148 1451.68 Q782.148 1444.57 784.631 1440.85 Q787.132 1437.11 791.853 1437.11 Z" fill="#000000" fill-rule="evenodd" fill-opacity="1" /><path clip-path="url(#clip990)" d="M 0 0 M1013.76 1489.17 L1021.4 1489.17 L1021.4 1462.8 L1013.09 1464.47 L1013.09 1460.21 L1021.36 1458.54 L1026.03 1458.54 L1026.03 1489.17 L1033.67 1489.17 L1033.67 1493.1 L1013.76 1493.1 L1013.76 1489.17 Z" fill="#000000" fill-rule="evenodd" fill-opacity="1" /><path clip-path="url(#clip990)" d="M 0 0 M1048.74 1461.62 Q1045.13 1461.62 1043.3 1465.19 Q1041.5 1468.73 1041.5 1475.86 Q1041.5 1482.97 1043.3 1486.53 Q1045.13 1490.07 1048.74 1490.07 Q1052.38 1490.07 1054.18 1486.53 Q1056.01 1482.97 1056.01 1475.86 Q1056.01 1468.73 1054.18 1465.19 Q1052.38 1461.62 1048.74 1461.62 M1048.74 1457.92 Q1054.55 1457.92 1057.61 1462.53 Q1060.69 1467.11 1060.69 1475.86 Q1060.69 1484.59 1057.61 1489.19 Q1054.55 1493.78 1048.74 1493.78 Q1042.93 1493.78 1039.85 1489.19 Q1036.8 1484.59 1036.8 1475.86 Q1036.8 1467.11 1039.85 1462.53 Q1042.93 1457.92 1048.74 1457.92 Z" fill="#000000" fill-rule="evenodd" fill-opacity="1" /><path clip-path="url(#clip990)" d="M 0 0 M1070.39 1440.11 Q1067.46 1440.11 1065.97 1443.01 Q1064.5 1445.89 1064.5 1451.68 Q1064.5 1457.46 1065.97 1460.35 Q1067.46 1463.23 1070.39 1463.23 Q1073.34 1463.23 1074.81 1460.35 Q1076.3 1457.46 1076.3 1451.68 Q1076.3 1445.89 1074.81 1443.01 Q1073.34 1440.11 1070.39 1440.11 M1070.39 1437.11 Q1075.11 1437.11 1077.59 1440.85 Q1080.1 1444.57 1080.1 1451.68 Q1080.1 1458.77 1077.59 1462.51 Q1075.11 1466.24 1070.39 1466.24 Q1065.67 1466.24 1063.17 1462.51 Q1060.69 1458.77 1060.69 1451.68 Q1060.69 1444.57 1063.17 1440.85 Q1065.67 1437.11 1070.39 1437.11 Z" fill="#000000" fill-rule="evenodd" fill-opacity="1" /><path clip-path="url(#clip990)" d="M 0 0 M1084.21 1460.92 L1088.18 1460.92 L1088.18 1465.69 L1084.21 1465.69 L1084.21 1460.92 Z" fill="#000000" fill-rule="evenodd" fill-opacity="1" /><path clip-path="url(#clip990)" d="M 0 0 M1095.57 1462.5 L1108.83 1462.5 L1108.83 1465.69 L1091 1465.69 L1091 1462.5 Q1093.17 1460.26 1096.89 1456.5 Q1100.63 1452.72 1101.59 1451.63 Q1103.42 1449.58 1104.13 1448.16 Q1104.87 1446.74 1104.87 1445.36 Q1104.87 1443.12 1103.29 1441.71 Q1101.72 1440.3 1099.2 1440.3 Q1097.42 1440.3 1095.42 1440.92 Q1093.45 1441.54 1091.19 1442.8 L1091.19 1438.97 Q1093.49 1438.05 1095.48 1437.58 Q1097.47 1437.11 1099.13 1437.11 Q1103.49 1437.11 1106.09 1439.29 Q1108.68 1441.47 1108.68 1445.12 Q1108.68 1446.85 1108.02 1448.41 Q1107.39 1449.95 1105.67 1452.06 Q1105.2 1452.6 1102.68 1455.22 Q1100.16 1457.81 1095.57 1462.5 Z" fill="#000000" fill-rule="evenodd" fill-opacity="1" /><path clip-path="url(#clip990)" d="M 0 0 M1320.84 1489.17 L1328.48 1489.17 L1328.48 1462.8 L1320.17 1464.47 L1320.17 1460.21 L1328.44 1458.54 L1333.11 1458.54 L1333.11 1489.17 L1340.75 1489.17 L1340.75 1493.1 L1320.84 1493.1 L1320.84 1489.17 Z" fill="#000000" fill-rule="evenodd" fill-opacity="1" /><path clip-path="url(#clip990)" d="M 0 0 M1355.82 1461.62 Q1352.21 1461.62 1350.38 1465.19 Q1348.57 1468.73 1348.57 1475.86 Q1348.57 1482.97 1350.38 1486.53 Q1352.21 1490.07 1355.82 1490.07 Q1359.45 1490.07 1361.26 1486.53 Q1363.09 1482.97 1363.09 1475.86 Q1363.09 1468.73 1361.26 1465.19 Q1359.45 1461.62 1355.82 1461.62 M1355.82 1457.92 Q1361.63 1457.92 1364.69 1462.53 Q1367.76 1467.11 1367.76 1475.86 Q1367.76 1484.59 1364.69 1489.19 Q1361.63 1493.78 1355.82 1493.78 Q1350.01 1493.78 1346.93 1489.19 Q1343.88 1484.59 1343.88 1475.86 Q1343.88 1467.11 1346.93 1462.53 Q1350.01 1457.92 1355.82 1457.92 Z" fill="#000000" fill-rule="evenodd" fill-opacity="1" /><path clip-path="url(#clip990)" d="M 0 0 M1377.47 1440.11 Q1374.54 1440.11 1373.05 1443.01 Q1371.58 1445.89 1371.58 1451.68 Q1371.58 1457.46 1373.05 1460.35 Q1374.54 1463.23 1377.47 1463.23 Q1380.42 1463.23 1381.89 1460.35 Q1383.37 1457.46 1383.37 1451.68 Q1383.37 1445.89 1381.89 1443.01 Q1380.42 1440.11 1377.47 1440.11 M1377.47 1437.11 Q1382.19 1437.11 1384.67 1440.85 Q1387.17 1444.57 1387.17 1451.68 Q1387.17 1458.77 1384.67 1462.51 Q1382.19 1466.24 1377.47 1466.24 Q1372.75 1466.24 1370.25 1462.51 Q1367.76 1458.77 1367.76 1451.68 Q1367.76 1444.57 1370.25 1440.85 Q1372.75 1437.11 1377.47 1437.11 Z" fill="#000000" fill-rule="evenodd" fill-opacity="1" /><path clip-path="url(#clip990)" d="M 0 0 M1391.29 1460.92 L1395.26 1460.92 L1395.26 1465.69 L1391.29 1465.69 L1391.29 1460.92 Z" fill="#000000" fill-rule="evenodd" fill-opacity="1" /><path clip-path="url(#clip990)" d="M 0 0 M1409.82 1440.92 L1400.23 1455.91 L1409.82 1455.91 L1409.82 1440.92 M1408.82 1437.61 L1413.6 1437.61 L1413.6 1455.91 L1417.6 1455.91 L1417.6 1459.07 L1413.6 1459.07 L1413.6 1465.69 L1409.82 1465.69 L1409.82 1459.07 L1397.14 1459.07 L1397.14 1455.41 L1408.82 1437.61 Z" fill="#000000" fill-rule="evenodd" fill-opacity="1" /><path clip-path="url(#clip990)" d="M 0 0 M1628.9 1489.17 L1636.54 1489.17 L1636.54 1462.8 L1628.23 1464.47 L1628.23 1460.21 L1636.49 1458.54 L1641.17 1458.54 L1641.17 1489.17 L1648.81 1489.17 L1648.81 1493.1 L1628.9 1493.1 L1628.9 1489.17 Z" fill="#000000" fill-rule="evenodd" fill-opacity="1" /><path clip-path="url(#clip990)" d="M 0 0 M1663.88 1461.62 Q1660.27 1461.62 1658.44 1465.19 Q1656.63 1468.73 1656.63 1475.86 Q1656.63 1482.97 1658.44 1486.53 Q1660.27 1490.07 1663.88 1490.07 Q1667.51 1490.07 1669.32 1486.53 Q1671.14 1482.97 1671.14 1475.86 Q1671.14 1468.73 1669.32 1465.19 Q1667.51 1461.62 1663.88 1461.62 M1663.88 1457.92 Q1669.69 1457.92 1672.74 1462.53 Q1675.82 1467.11 1675.82 1475.86 Q1675.82 1484.59 1672.74 1489.19 Q1669.69 1493.78 1663.88 1493.78 Q1658.07 1493.78 1654.99 1489.19 Q1651.93 1484.59 1651.93 1475.86 Q1651.93 1467.11 1654.99 1462.53 Q1658.07 1457.92 1663.88 1457.92 Z" fill="#000000" fill-rule="evenodd" fill-opacity="1" /><path clip-path="url(#clip990)" d="M 0 0 M1685.53 1440.11 Q1682.59 1440.11 1681.11 1443.01 Q1679.64 1445.89 1679.64 1451.68 Q1679.64 1457.46 1681.11 1460.35 Q1682.59 1463.23 1685.53 1463.23 Q1688.48 1463.23 1689.95 1460.35 Q1691.43 1457.46 1691.43 1451.68 Q1691.43 1445.89 1689.95 1443.01 Q1688.48 1440.11 1685.53 1440.11 M1685.53 1437.11 Q1690.25 1437.11 1692.73 1440.85 Q1695.23 1444.57 1695.23 1451.68 Q1695.23 1458.77 1692.73 1462.51 Q1690.25 1466.24 1685.53 1466.24 Q1680.8 1466.24 1678.3 1462.51 Q1675.82 1458.77 1675.82 1451.68 Q1675.82 1444.57 1678.3 1440.85 Q1680.8 1437.11 1685.53 1437.11 Z" fill="#000000" fill-rule="evenodd" fill-opacity="1" /><path clip-path="url(#clip990)" d="M 0 0 M1699.35 1460.92 L1703.32 1460.92 L1703.32 1465.69 L1699.35 1465.69 L1699.35 1460.92 Z" fill="#000000" fill-rule="evenodd" fill-opacity="1" /><path clip-path="url(#clip990)" d="M 0 0 M1716.03 1450.14 Q1713.47 1450.14 1711.97 1451.89 Q1710.48 1453.64 1710.48 1456.68 Q1710.48 1459.71 1711.97 1461.48 Q1713.47 1463.23 1716.03 1463.23 Q1718.59 1463.23 1720.08 1461.48 Q1721.58 1459.71 1721.58 1456.68 Q1721.58 1453.64 1720.08 1451.89 Q1718.59 1450.14 1716.03 1450.14 M1723.57 1438.23 L1723.57 1441.69 Q1722.14 1441.02 1720.68 1440.66 Q1719.23 1440.3 1717.8 1440.3 Q1714.04 1440.3 1712.04 1442.84 Q1710.07 1445.38 1709.79 1450.52 Q1710.9 1448.88 1712.57 1448.01 Q1714.25 1447.13 1716.26 1447.13 Q1720.49 1447.13 1722.93 1449.71 Q1725.4 1452.26 1725.4 1456.68 Q1725.4 1461.01 1722.84 1463.62 Q1720.28 1466.24 1716.03 1466.24 Q1711.16 1466.24 1708.58 1462.51 Q1706.01 1458.77 1706.01 1451.68 Q1706.01 1445.02 1709.17 1441.07 Q1712.33 1437.11 1717.65 1437.11 Q1719.08 1437.11 1720.53 1437.39 Q1721.99 1437.67 1723.57 1438.23 Z" fill="#000000" fill-rule="evenodd" fill-opacity="1" /><path clip-path="url(#clip990)" d="M 0 0 M1936.93 1489.17 L1944.57 1489.17 L1944.57 1462.8 L1936.26 1464.47 L1936.26 1460.21 L1944.52 1458.54 L1949.2 1458.54 L1949.2 1489.17 L1956.84 1489.17 L1956.84 1493.1 L1936.93 1493.1 L1936.93 1489.17 Z" fill="#000000" fill-rule="evenodd" fill-opacity="1" /><path clip-path="url(#clip990)" d="M 0 0 M1971.9 1461.62 Q1968.29 1461.62 1966.46 1465.19 Q1964.66 1468.73 1964.66 1475.86 Q1964.66 1482.97 1966.46 1486.53 Q1968.29 1490.07 1971.9 1490.07 Q1975.54 1490.07 1977.34 1486.53 Q1979.17 1482.97 1979.17 1475.86 Q1979.17 1468.73 1977.34 1465.19 Q1975.54 1461.62 1971.9 1461.62 M1971.9 1457.92 Q1977.71 1457.92 1980.77 1462.53 Q1983.85 1467.11 1983.85 1475.86 Q1983.85 1484.59 1980.77 1489.19 Q1977.71 1493.78 1971.9 1493.78 Q1966.09 1493.78 1963.02 1489.19 Q1959.96 1484.59 1959.96 1475.86 Q1959.96 1467.11 1963.02 1462.53 Q1966.09 1457.92 1971.9 1457.92 Z" fill="#000000" fill-rule="evenodd" fill-opacity="1" /><path clip-path="url(#clip990)" d="M 0 0 M1993.55 1440.11 Q1990.62 1440.11 1989.13 1443.01 Q1987.67 1445.89 1987.67 1451.68 Q1987.67 1457.46 1989.13 1460.35 Q1990.62 1463.23 1993.55 1463.23 Q1996.51 1463.23 1997.97 1460.35 Q1999.46 1457.46 1999.46 1451.68 Q1999.46 1445.89 1997.97 1443.01 Q1996.51 1440.11 1993.55 1440.11 M1993.55 1437.11 Q1998.27 1437.11 2000.76 1440.85 Q2003.26 1444.57 2003.26 1451.68 Q2003.26 1458.77 2000.76 1462.51 Q1998.27 1466.24 1993.55 1466.24 Q1988.83 1466.24 1986.33 1462.51 Q1983.85 1458.77 1983.85 1451.68 Q1983.85 1444.57 1986.33 1440.85 Q1988.83 1437.11 1993.55 1437.11 Z" fill="#000000" fill-rule="evenodd" fill-opacity="1" /><path clip-path="url(#clip990)" d="M 0 0 M2007.38 1460.92 L2011.35 1460.92 L2011.35 1465.69 L2007.38 1465.69 L2007.38 1460.92 Z" fill="#000000" fill-rule="evenodd" fill-opacity="1" /><path clip-path="url(#clip990)" d="M 0 0 M2023.59 1452.36 Q2020.88 1452.36 2019.32 1453.81 Q2017.78 1455.26 2017.78 1457.79 Q2017.78 1460.33 2019.32 1461.78 Q2020.88 1463.23 2023.59 1463.23 Q2026.3 1463.23 2027.86 1461.78 Q2029.42 1460.31 2029.42 1457.79 Q2029.42 1455.26 2027.86 1453.81 Q2026.32 1452.36 2023.59 1452.36 M2019.79 1450.74 Q2017.35 1450.14 2015.97 1448.47 Q2014.62 1446.79 2014.62 1444.38 Q2014.62 1441.02 2017.01 1439.06 Q2019.41 1437.11 2023.59 1437.11 Q2027.78 1437.11 2030.17 1439.06 Q2032.56 1441.02 2032.56 1444.38 Q2032.56 1446.79 2031.19 1448.47 Q2029.83 1450.14 2027.41 1450.74 Q2030.15 1451.38 2031.68 1453.24 Q2033.22 1455.1 2033.22 1457.79 Q2033.22 1461.88 2030.72 1464.06 Q2028.24 1466.24 2023.59 1466.24 Q2018.94 1466.24 2016.44 1464.06 Q2013.96 1461.88 2013.96 1457.79 Q2013.96 1455.1 2015.5 1453.24 Q2017.04 1451.38 2019.79 1450.74 M2018.4 1444.74 Q2018.4 1446.92 2019.75 1448.15 Q2021.13 1449.37 2023.59 1449.37 Q2026.03 1449.37 2027.41 1448.15 Q2028.8 1446.92 2028.8 1444.74 Q2028.8 1442.56 2027.41 1441.34 Q2026.03 1440.11 2023.59 1440.11 Q2021.13 1440.11 2019.75 1441.34 Q2018.4 1442.56 2018.4 1444.74 Z" fill="#000000" fill-rule="evenodd" fill-opacity="1" /><path clip-path="url(#clip990)" d="M 0 0 M2246.16 1489.17 L2253.8 1489.17 L2253.8 1462.8 L2245.49 1464.47 L2245.49 1460.21 L2253.75 1458.54 L2258.43 1458.54 L2258.43 1489.17 L2266.07 1489.17 L2266.07 1493.1 L2246.16 1493.1 L2246.16 1489.17 Z" fill="#000000" fill-rule="evenodd" fill-opacity="1" /><path clip-path="url(#clip990)" d="M 0 0 M2281.14 1461.62 Q2277.53 1461.62 2275.7 1465.19 Q2273.89 1468.73 2273.89 1475.86 Q2273.89 1482.97 2275.7 1486.53 Q2277.53 1490.07 2281.14 1490.07 Q2284.77 1490.07 2286.58 1486.53 Q2288.41 1482.97 2288.41 1475.86 Q2288.41 1468.73 2286.58 1465.19 Q2284.77 1461.62 2281.14 1461.62 M2281.14 1457.92 Q2286.95 1457.92 2290 1462.53 Q2293.08 1467.11 2293.08 1475.86 Q2293.08 1484.59 2290 1489.19 Q2286.95 1493.78 2281.14 1493.78 Q2275.33 1493.78 2272.25 1489.19 Q2269.19 1484.59 2269.19 1475.86 Q2269.19 1467.11 2272.25 1462.53 Q2275.33 1457.92 2281.14 1457.92 Z" fill="#000000" fill-rule="evenodd" fill-opacity="1" /><path clip-path="url(#clip990)" d="M 0 0 M2293.63 1462.5 L2299.83 1462.5 L2299.83 1441.07 L2293.08 1442.43 L2293.08 1438.97 L2299.8 1437.61 L2303.59 1437.61 L2303.59 1462.5 L2309.8 1462.5 L2309.8 1465.69 L2293.63 1465.69 L2293.63 1462.5 Z" fill="#000000" fill-rule="evenodd" fill-opacity="1" /><path clip-path="url(#clip990)" d="M 0 0 M2313.92 1460.92 L2317.89 1460.92 L2317.89 1465.69 L2313.92 1465.69 L2313.92 1460.92 Z" fill="#000000" fill-rule="evenodd" fill-opacity="1" /><path clip-path="url(#clip990)" d="M 0 0 M2330.13 1440.11 Q2327.2 1440.11 2325.71 1443.01 Q2324.25 1445.89 2324.25 1451.68 Q2324.25 1457.46 2325.71 1460.35 Q2327.2 1463.23 2330.13 1463.23 Q2333.09 1463.23 2334.55 1460.35 Q2336.04 1457.46 2336.04 1451.68 Q2336.04 1445.89 2334.55 1443.01 Q2333.09 1440.11 2330.13 1440.11 M2330.13 1437.11 Q2334.85 1437.11 2337.34 1440.85 Q2339.84 1444.57 2339.84 1451.68 Q2339.84 1458.77 2337.34 1462.51 Q2334.85 1466.24 2330.13 1466.24 Q2325.41 1466.24 2322.91 1462.51 Q2320.43 1458.77 2320.43 1451.68 Q2320.43 1444.57 2322.91 1440.85 Q2325.41 1437.11 2330.13 1437.11 Z" fill="#000000" fill-rule="evenodd" fill-opacity="1" /><path clip-path="url(#clip990)" d="M 0 0 M1296.32 1545.6 L1294.92 1538.25 Q1293.49 1530.71 1287.82 1530.71 Q1283.56 1530.71 1281.61 1534.21 Q1279.16 1538.6 1279.16 1544.39 Q1279.16 1551.4 1281.55 1554.74 Q1283.97 1558.14 1287.82 1558.14 Q1292.09 1558.14 1294.38 1551.36 L1296.32 1545.6 M1299.6 1535.86 L1302.75 1526.54 L1307.97 1526.54 L1301.44 1545.86 L1302.72 1552.83 Q1303 1554.39 1304.12 1555.69 Q1305.42 1557.22 1306.44 1557.22 L1309.24 1557.22 L1309.24 1562.19 L1305.74 1562.19 Q1302.75 1562.19 1300.07 1559.51 Q1298.77 1558.18 1298.23 1555.37 Q1296.76 1558.91 1293.77 1561.68 Q1292.37 1562.98 1287.82 1562.98 Q1280.34 1562.98 1276.71 1558.14 Q1272.99 1553.15 1272.99 1544.39 Q1272.99 1535.04 1277.03 1530.64 Q1281.52 1525.74 1287.82 1525.74 Q1297.72 1525.74 1299.6 1535.86 Z" fill="#000000" fill-rule="evenodd" fill-opacity="1" /><polyline clip-path="url(#clip992)" style="stroke:#000000; stroke-width:2; stroke-opacity:0.1; fill:none" points="
  229.473,1387.91 2352.76,1387.91 
  "/>
<polyline clip-path="url(#clip992)" style="stroke:#000000; stroke-width:2; stroke-opacity:0.1; fill:none" points="
  229.473,1123.96 2352.76,1123.96 
  "/>
<polyline clip-path="url(#clip992)" style="stroke:#000000; stroke-width:2; stroke-opacity:0.1; fill:none" points="
  229.473,860.015 2352.76,860.015 
  "/>
<polyline clip-path="url(#clip992)" style="stroke:#000000; stroke-width:2; stroke-opacity:0.1; fill:none" points="
  229.473,596.068 2352.76,596.068 
  "/>
<polyline clip-path="url(#clip992)" style="stroke:#000000; stroke-width:2; stroke-opacity:0.1; fill:none" points="
  229.473,332.12 2352.76,332.12 
  "/>
<polyline clip-path="url(#clip992)" style="stroke:#000000; stroke-width:2; stroke-opacity:0.1; fill:none" points="
  229.473,68.1728 2352.76,68.1728 
  "/>
<polyline clip-path="url(#clip990)" style="stroke:#000000; stroke-width:4; stroke-opacity:1; fill:none" points="
  229.473,1410.9 229.473,47.2441 
  "/>
<polyline clip-path="url(#clip990)" style="stroke:#000000; stroke-width:4; stroke-opacity:1; fill:none" points="
  229.473,1387.91 254.952,1387.91 
  "/>
<polyline clip-path="url(#clip990)" style="stroke:#000000; stroke-width:4; stroke-opacity:1; fill:none" points="
  229.473,1123.96 254.952,1123.96 
  "/>
<polyline clip-path="url(#clip990)" style="stroke:#000000; stroke-width:4; stroke-opacity:1; fill:none" points="
  229.473,860.015 254.952,860.015 
  "/>
<polyline clip-path="url(#clip990)" style="stroke:#000000; stroke-width:4; stroke-opacity:1; fill:none" points="
  229.473,596.068 254.952,596.068 
  "/>
<polyline clip-path="url(#clip990)" style="stroke:#000000; stroke-width:4; stroke-opacity:1; fill:none" points="
  229.473,332.12 254.952,332.12 
  "/>
<polyline clip-path="url(#clip990)" style="stroke:#000000; stroke-width:4; stroke-opacity:1; fill:none" points="
  229.473,68.1728 254.952,68.1728 
  "/>
<path clip-path="url(#clip990)" d="M 0 0 M181.528 1373.71 Q177.917 1373.71 176.089 1377.27 Q174.283 1380.81 174.283 1387.94 Q174.283 1395.05 176.089 1398.62 Q177.917 1402.16 181.528 1402.16 Q185.163 1402.16 186.968 1398.62 Q188.797 1395.05 188.797 1387.94 Q188.797 1380.81 186.968 1377.27 Q185.163 1373.71 181.528 1373.71 M181.528 1370 Q187.338 1370 190.394 1374.61 Q193.473 1379.19 193.473 1387.94 Q193.473 1396.67 190.394 1401.28 Q187.338 1405.86 181.528 1405.86 Q175.718 1405.86 172.639 1401.28 Q169.584 1396.67 169.584 1387.94 Q169.584 1379.19 172.639 1374.61 Q175.718 1370 181.528 1370 Z" fill="#000000" fill-rule="evenodd" fill-opacity="1" /><path clip-path="url(#clip990)" d="M 0 0 M119.538 1137.31 L127.177 1137.31 L127.177 1110.94 L118.867 1112.61 L118.867 1108.35 L127.13 1106.68 L131.806 1106.68 L131.806 1137.31 L139.445 1137.31 L139.445 1141.24 L119.538 1141.24 L119.538 1137.31 Z" fill="#000000" fill-rule="evenodd" fill-opacity="1" /><path clip-path="url(#clip990)" d="M 0 0 M154.515 1109.76 Q150.903 1109.76 149.075 1113.33 Q147.269 1116.87 147.269 1124 Q147.269 1131.1 149.075 1134.67 Q150.903 1138.21 154.515 1138.21 Q158.149 1138.21 159.954 1134.67 Q161.783 1131.1 161.783 1124 Q161.783 1116.87 159.954 1113.33 Q158.149 1109.76 154.515 1109.76 M154.515 1106.06 Q160.325 1106.06 163.38 1110.66 Q166.459 1115.25 166.459 1124 Q166.459 1132.72 163.38 1137.33 Q160.325 1141.91 154.515 1141.91 Q148.704 1141.91 145.626 1137.33 Q142.57 1132.72 142.57 1124 Q142.57 1115.25 145.626 1110.66 Q148.704 1106.06 154.515 1106.06 Z" fill="#000000" fill-rule="evenodd" fill-opacity="1" /><path clip-path="url(#clip990)" d="M 0 0 M181.528 1109.76 Q177.917 1109.76 176.089 1113.33 Q174.283 1116.87 174.283 1124 Q174.283 1131.1 176.089 1134.67 Q177.917 1138.21 181.528 1138.21 Q185.163 1138.21 186.968 1134.67 Q188.797 1131.1 188.797 1124 Q188.797 1116.87 186.968 1113.33 Q185.163 1109.76 181.528 1109.76 M181.528 1106.06 Q187.338 1106.06 190.394 1110.66 Q193.473 1115.25 193.473 1124 Q193.473 1132.72 190.394 1137.33 Q187.338 1141.91 181.528 1141.91 Q175.718 1141.91 172.639 1137.33 Q169.584 1132.72 169.584 1124 Q169.584 1115.25 172.639 1110.66 Q175.718 1106.06 181.528 1106.06 Z" fill="#000000" fill-rule="evenodd" fill-opacity="1" /><path clip-path="url(#clip990)" d="M 0 0 M123.126 873.36 L139.445 873.36 L139.445 877.295 L117.501 877.295 L117.501 873.36 Q120.163 870.605 124.746 865.976 Q129.353 861.323 130.533 859.98 Q132.779 857.457 133.658 855.721 Q134.561 853.962 134.561 852.272 Q134.561 849.517 132.617 847.781 Q130.695 846.045 127.593 846.045 Q125.394 846.045 122.941 846.809 Q120.51 847.573 117.732 849.124 L117.732 844.402 Q120.556 843.267 123.01 842.689 Q125.464 842.11 127.501 842.11 Q132.871 842.11 136.066 844.795 Q139.26 847.48 139.26 851.971 Q139.26 854.101 138.45 856.022 Q137.663 857.92 135.556 860.513 Q134.978 861.184 131.876 864.401 Q128.774 867.596 123.126 873.36 Z" fill="#000000" fill-rule="evenodd" fill-opacity="1" /><path clip-path="url(#clip990)" d="M 0 0 M154.515 845.814 Q150.903 845.814 149.075 849.378 Q147.269 852.92 147.269 860.05 Q147.269 867.156 149.075 870.721 Q150.903 874.263 154.515 874.263 Q158.149 874.263 159.954 870.721 Q161.783 867.156 161.783 860.05 Q161.783 852.92 159.954 849.378 Q158.149 845.814 154.515 845.814 M154.515 842.11 Q160.325 842.11 163.38 846.716 Q166.459 851.3 166.459 860.05 Q166.459 868.776 163.38 873.383 Q160.325 877.966 154.515 877.966 Q148.704 877.966 145.626 873.383 Q142.57 868.776 142.57 860.05 Q142.57 851.3 145.626 846.716 Q148.704 842.11 154.515 842.11 Z" fill="#000000" fill-rule="evenodd" fill-opacity="1" /><path clip-path="url(#clip990)" d="M 0 0 M181.528 845.814 Q177.917 845.814 176.089 849.378 Q174.283 852.92 174.283 860.05 Q174.283 867.156 176.089 870.721 Q177.917 874.263 181.528 874.263 Q185.163 874.263 186.968 870.721 Q188.797 867.156 188.797 860.05 Q188.797 852.92 186.968 849.378 Q185.163 845.814 181.528 845.814 M181.528 842.11 Q187.338 842.11 190.394 846.716 Q193.473 851.3 193.473 860.05 Q193.473 868.776 190.394 873.383 Q187.338 877.966 181.528 877.966 Q175.718 877.966 172.639 873.383 Q169.584 868.776 169.584 860.05 Q169.584 851.3 172.639 846.716 Q175.718 842.11 181.528 842.11 Z" fill="#000000" fill-rule="evenodd" fill-opacity="1" /><path clip-path="url(#clip990)" d="M 0 0 M132.316 594.713 Q135.672 595.431 137.547 597.699 Q139.445 599.968 139.445 603.301 Q139.445 608.417 135.927 611.218 Q132.408 614.019 125.927 614.019 Q123.751 614.019 121.436 613.579 Q119.144 613.162 116.691 612.306 L116.691 607.792 Q118.635 608.926 120.95 609.505 Q123.265 610.084 125.788 610.084 Q130.186 610.084 132.478 608.348 Q134.792 606.611 134.792 603.301 Q134.792 600.246 132.64 598.533 Q130.51 596.797 126.691 596.797 L122.663 596.797 L122.663 592.954 L126.876 592.954 Q130.325 592.954 132.154 591.588 Q133.982 590.2 133.982 587.607 Q133.982 584.945 132.084 583.533 Q130.209 582.098 126.691 582.098 Q124.769 582.098 122.57 582.514 Q120.371 582.931 117.732 583.811 L117.732 579.644 Q120.394 578.903 122.709 578.533 Q125.047 578.163 127.107 578.163 Q132.431 578.163 135.533 580.593 Q138.635 583 138.635 587.121 Q138.635 589.991 136.992 591.982 Q135.348 593.949 132.316 594.713 Z" fill="#000000" fill-rule="evenodd" fill-opacity="1" /><path clip-path="url(#clip990)" d="M 0 0 M154.515 581.866 Q150.903 581.866 149.075 585.431 Q147.269 588.973 147.269 596.102 Q147.269 603.209 149.075 606.773 Q150.903 610.315 154.515 610.315 Q158.149 610.315 159.954 606.773 Q161.783 603.209 161.783 596.102 Q161.783 588.973 159.954 585.431 Q158.149 581.866 154.515 581.866 M154.515 578.163 Q160.325 578.163 163.38 582.769 Q166.459 587.352 166.459 596.102 Q166.459 604.829 163.38 609.436 Q160.325 614.019 154.515 614.019 Q148.704 614.019 145.626 609.436 Q142.57 604.829 142.57 596.102 Q142.57 587.352 145.626 582.769 Q148.704 578.163 154.515 578.163 Z" fill="#000000" fill-rule="evenodd" fill-opacity="1" /><path clip-path="url(#clip990)" d="M 0 0 M181.528 581.866 Q177.917 581.866 176.089 585.431 Q174.283 588.973 174.283 596.102 Q174.283 603.209 176.089 606.773 Q177.917 610.315 181.528 610.315 Q185.163 610.315 186.968 606.773 Q188.797 603.209 188.797 596.102 Q188.797 588.973 186.968 585.431 Q185.163 581.866 181.528 581.866 M181.528 578.163 Q187.338 578.163 190.394 582.769 Q193.473 587.352 193.473 596.102 Q193.473 604.829 190.394 609.436 Q187.338 614.019 181.528 614.019 Q175.718 614.019 172.639 609.436 Q169.584 604.829 169.584 596.102 Q169.584 587.352 172.639 582.769 Q175.718 578.163 181.528 578.163 Z" fill="#000000" fill-rule="evenodd" fill-opacity="1" /><path clip-path="url(#clip990)" d="M 0 0 M129.862 318.914 L118.056 337.363 L129.862 337.363 L129.862 318.914 M128.635 314.84 L134.515 314.84 L134.515 337.363 L139.445 337.363 L139.445 341.252 L134.515 341.252 L134.515 349.4 L129.862 349.4 L129.862 341.252 L114.26 341.252 L114.26 336.738 L128.635 314.84 Z" fill="#000000" fill-rule="evenodd" fill-opacity="1" /><path clip-path="url(#clip990)" d="M 0 0 M154.515 317.919 Q150.903 317.919 149.075 321.484 Q147.269 325.025 147.269 332.155 Q147.269 339.261 149.075 342.826 Q150.903 346.368 154.515 346.368 Q158.149 346.368 159.954 342.826 Q161.783 339.261 161.783 332.155 Q161.783 325.025 159.954 321.484 Q158.149 317.919 154.515 317.919 M154.515 314.215 Q160.325 314.215 163.38 318.822 Q166.459 323.405 166.459 332.155 Q166.459 340.882 163.38 345.488 Q160.325 350.071 154.515 350.071 Q148.704 350.071 145.626 345.488 Q142.57 340.882 142.57 332.155 Q142.57 323.405 145.626 318.822 Q148.704 314.215 154.515 314.215 Z" fill="#000000" fill-rule="evenodd" fill-opacity="1" /><path clip-path="url(#clip990)" d="M 0 0 M181.528 317.919 Q177.917 317.919 176.089 321.484 Q174.283 325.025 174.283 332.155 Q174.283 339.261 176.089 342.826 Q177.917 346.368 181.528 346.368 Q185.163 346.368 186.968 342.826 Q188.797 339.261 188.797 332.155 Q188.797 325.025 186.968 321.484 Q185.163 317.919 181.528 317.919 M181.528 314.215 Q187.338 314.215 190.394 318.822 Q193.473 323.405 193.473 332.155 Q193.473 340.882 190.394 345.488 Q187.338 350.071 181.528 350.071 Q175.718 350.071 172.639 345.488 Q169.584 340.882 169.584 332.155 Q169.584 323.405 172.639 318.822 Q175.718 314.215 181.528 314.215 Z" fill="#000000" fill-rule="evenodd" fill-opacity="1" /><path clip-path="url(#clip990)" d="M 0 0 M118.543 50.8928 L136.899 50.8928 L136.899 54.8279 L122.825 54.8279 L122.825 63.3001 Q123.843 62.9529 124.862 62.7909 Q125.88 62.6057 126.899 62.6057 Q132.686 62.6057 136.066 65.777 Q139.445 68.9482 139.445 74.3649 Q139.445 79.9435 135.973 83.0454 Q132.501 86.1241 126.181 86.1241 Q124.005 86.1241 121.737 85.7537 Q119.492 85.3833 117.084 84.6426 L117.084 79.9435 Q119.168 81.0778 121.39 81.6334 Q123.612 82.1889 126.089 82.1889 Q130.093 82.1889 132.431 80.0824 Q134.769 77.976 134.769 74.3649 Q134.769 70.7538 132.431 68.6473 Q130.093 66.5408 126.089 66.5408 Q124.214 66.5408 122.339 66.9575 Q120.487 67.3742 118.543 68.2538 L118.543 50.8928 Z" fill="#000000" fill-rule="evenodd" fill-opacity="1" /><path clip-path="url(#clip990)" d="M 0 0 M154.515 53.9715 Q150.903 53.9715 149.075 57.5363 Q147.269 61.0779 147.269 68.2075 Q147.269 75.3139 149.075 78.8787 Q150.903 82.4204 154.515 82.4204 Q158.149 82.4204 159.954 78.8787 Q161.783 75.3139 161.783 68.2075 Q161.783 61.0779 159.954 57.5363 Q158.149 53.9715 154.515 53.9715 M154.515 50.2678 Q160.325 50.2678 163.38 54.8742 Q166.459 59.4575 166.459 68.2075 Q166.459 76.9343 163.38 81.5408 Q160.325 86.1241 154.515 86.1241 Q148.704 86.1241 145.626 81.5408 Q142.57 76.9343 142.57 68.2075 Q142.57 59.4575 145.626 54.8742 Q148.704 50.2678 154.515 50.2678 Z" fill="#000000" fill-rule="evenodd" fill-opacity="1" /><path clip-path="url(#clip990)" d="M 0 0 M181.528 53.9715 Q177.917 53.9715 176.089 57.5363 Q174.283 61.0779 174.283 68.2075 Q174.283 75.3139 176.089 78.8787 Q177.917 82.4204 181.528 82.4204 Q185.163 82.4204 186.968 78.8787 Q188.797 75.3139 188.797 68.2075 Q188.797 61.0779 186.968 57.5363 Q185.163 53.9715 181.528 53.9715 M181.528 50.2678 Q187.338 50.2678 190.394 54.8742 Q193.473 59.4575 193.473 68.2075 Q193.473 76.9343 190.394 81.5408 Q187.338 86.1241 181.528 86.1241 Q175.718 86.1241 172.639 81.5408 Q169.584 76.9343 169.584 68.2075 Q169.584 59.4575 172.639 54.8742 Q175.718 50.2678 181.528 50.2678 Z" fill="#000000" fill-rule="evenodd" fill-opacity="1" /><path clip-path="url(#clip990)" d="M 0 0 M59.1993 815.533 Q55.2526 813.336 53.3747 810.281 Q51.4968 807.225 51.4968 803.088 Q51.4968 797.518 55.4117 794.494 Q59.2948 791.47 66.4881 791.47 L88.0042 791.47 L88.0042 797.358 L66.679 797.358 Q61.5546 797.358 59.072 799.173 Q56.5894 800.987 56.5894 804.711 Q56.5894 809.262 59.6131 811.904 Q62.6368 814.546 67.8567 814.546 L88.0042 814.546 L88.0042 820.434 L66.679 820.434 Q61.5228 820.434 59.072 822.248 Q56.5894 824.063 56.5894 827.85 Q56.5894 832.338 59.6449 834.98 Q62.6686 837.622 67.8567 837.622 L88.0042 837.622 L88.0042 843.51 L52.3562 843.51 L52.3562 837.622 L57.8944 837.622 Q54.616 835.616 53.0564 832.815 Q51.4968 830.015 51.4968 826.163 Q51.4968 822.28 53.4702 819.575 Q55.4436 816.838 59.1993 815.533 Z" fill="#000000" fill-rule="evenodd" fill-opacity="1" /><path clip-path="url(#clip990)" d="M 0 0 M52.3562 785.327 L52.3562 779.471 L88.0042 779.471 L88.0042 785.327 L52.3562 785.327 M38.479 785.327 L38.479 779.471 L45.895 779.471 L45.895 785.327 L38.479 785.327 Z" fill="#000000" fill-rule="evenodd" fill-opacity="1" /><path clip-path="url(#clip990)" d="M 0 0 M66.4881 743.696 L88.0042 743.696 L88.0042 749.552 L66.679 749.552 Q61.6183 749.552 59.1038 751.525 Q56.5894 753.499 56.5894 757.446 Q56.5894 762.188 59.6131 764.925 Q62.6368 767.662 67.8567 767.662 L88.0042 767.662 L88.0042 773.551 L52.3562 773.551 L52.3562 767.662 L57.8944 767.662 Q54.6797 765.562 53.0883 762.729 Q51.4968 759.864 51.4968 756.141 Q51.4968 749.998 55.3163 746.847 Q59.1038 743.696 66.4881 743.696 Z" fill="#000000" fill-rule="evenodd" fill-opacity="1" /><path clip-path="url(#clip990)" d="M 0 0 M98.8259 710.467 L103.377 710.467 L103.377 744.332 L98.8259 744.332 L98.8259 710.467 Z" fill="#000000" fill-rule="evenodd" fill-opacity="1" /><path clip-path="url(#clip990)" d="M 0 0 M57.7671 680.866 L38.479 680.866 L38.479 675.01 L88.0042 675.01 L88.0042 680.866 L82.657 680.866 Q85.8398 682.712 87.3994 685.545 Q88.9272 688.346 88.9272 692.292 Q88.9272 698.754 83.771 702.828 Q78.6147 706.87 70.212 706.87 Q61.8093 706.87 56.6531 702.828 Q51.4968 698.754 51.4968 692.292 Q51.4968 688.346 53.0564 685.545 Q54.5842 682.712 57.7671 680.866 M70.212 700.823 Q76.6732 700.823 80.3653 698.181 Q84.0256 695.507 84.0256 690.86 Q84.0256 686.213 80.3653 683.54 Q76.6732 680.866 70.212 680.866 Q63.7508 680.866 60.0905 683.54 Q56.3984 686.213 56.3984 690.86 Q56.3984 695.507 60.0905 698.181 Q63.7508 700.823 70.212 700.823 Z" fill="#000000" fill-rule="evenodd" fill-opacity="1" /><path clip-path="url(#clip990)" d="M 0 0 M52.3562 668.867 L52.3562 663.01 L88.0042 663.01 L88.0042 668.867 L52.3562 668.867 M38.479 668.867 L38.479 663.01 L45.895 663.01 L45.895 668.867 L38.479 668.867 Z" fill="#000000" fill-rule="evenodd" fill-opacity="1" /><path clip-path="url(#clip990)" d="M 0 0 M38.479 638.821 L43.3487 638.821 L43.3487 644.422 Q43.3487 647.573 44.6219 648.815 Q45.895 650.024 49.2052 650.024 L52.3562 650.024 L52.3562 640.38 L56.9077 640.38 L56.9077 650.024 L88.0042 650.024 L88.0042 655.912 L56.9077 655.912 L56.9077 661.514 L52.3562 661.514 L52.3562 655.912 L49.8736 655.912 Q43.9216 655.912 41.2162 653.143 Q38.479 650.374 38.479 644.359 L38.479 638.821 Z" fill="#000000" fill-rule="evenodd" fill-opacity="1" /><path clip-path="url(#clip990)" d="M 0 0 M38.479 614.631 L43.3487 614.631 L43.3487 620.233 Q43.3487 623.384 44.6219 624.625 Q45.895 625.835 49.2052 625.835 L52.3562 625.835 L52.3562 616.19 L56.9077 616.19 L56.9077 625.835 L88.0042 625.835 L88.0042 631.723 L56.9077 631.723 L56.9077 637.325 L52.3562 637.325 L52.3562 631.723 L49.8736 631.723 Q43.9216 631.723 41.2162 628.954 Q38.479 626.185 38.479 620.169 L38.479 614.631 Z" fill="#000000" fill-rule="evenodd" fill-opacity="1" /><polyline clip-path="url(#clip992)" style="stroke:#009af9; stroke-width:20; stroke-opacity:1; fill:none" stroke-dasharray="80, 50" points="
  289.566,1099.65 753.039,1372.3 1024.15,1368.44 1216.51,1339.22 1365.72,1257.73 1487.63,1154.46 1590.7,1045.34 1679.98,937.775 1758.74,835.125 1829.19,738.757 
  1892.92,649.047 1951.1,565.877 2004.62,488.899 2054.17,417.667 2100.3,351.707 2143.46,290.556 2183.99,233.777 2222.21,180.968 2258.37,131.765 2292.66,85.838 
  
  "/>
<path clip-path="url(#clip990)" d="
M1995.04 213.659 L2281.98 213.659 L2281.98 92.6992 L1995.04 92.6992  Z
  " fill="#ffffff" fill-rule="evenodd" fill-opacity="1"/>
<polyline clip-path="url(#clip990)" style="stroke:#000000; stroke-width:4; stroke-opacity:1; fill:none" points="
  1995.04,213.659 2281.98,213.659 2281.98,92.6992 1995.04,92.6992 1995.04,213.659 
  "/>
<polyline clip-path="url(#clip990)" style="stroke:#009af9; stroke-width:4; stroke-opacity:1; fill:none" stroke-dasharray="16, 10" points="
  2018.63,153.179 2160.19,153.179 
  "/>
<path clip-path="url(#clip990)" d="M 0 0 M2197.62 172.867 Q2195.81 177.496 2194.1 178.908 Q2192.39 180.32 2189.52 180.32 L2186.12 180.32 L2186.12 176.755 L2188.62 176.755 Q2190.37 176.755 2191.35 175.922 Q2192.32 175.089 2193.5 171.987 L2194.26 170.043 L2183.78 144.533 L2188.29 144.533 L2196.39 164.811 L2204.49 144.533 L2209.01 144.533 L2197.62 172.867 Z" fill="#000000" fill-rule="evenodd" fill-opacity="1" /><path clip-path="url(#clip990)" d="M 0 0 M2214.89 166.524 L2222.53 166.524 L2222.53 140.158 L2214.22 141.825 L2214.22 137.566 L2222.48 135.899 L2227.16 135.899 L2227.16 166.524 L2234.8 166.524 L2234.8 170.459 L2214.89 170.459 L2214.89 166.524 Z" fill="#000000" fill-rule="evenodd" fill-opacity="1" /></svg>
