<?xml version="1.0" encoding="utf-8"?>
<svg xmlns="http://www.w3.org/2000/svg" xmlns:xlink="http://www.w3.org/1999/xlink" width="600" height="400" viewBox="0 0 2400 1600">
<defs>
  <clipPath id="clip760">
    <rect x="0" y="0" width="2400" height="1600"/>
  </clipPath>
</defs>
<path clip-path="url(#clip760)" d="
M0 1600 L2400 1600 L2400 0 L0 0  Z
  " fill="#ffffff" fill-rule="evenodd" fill-opacity="1"/>
<defs>
  <clipPath id="clip761">
    <rect x="480" y="0" width="1681" height="1600"/>
  </clipPath>
</defs>
<path clip-path="url(#clip760)" d="
M234.82 1410.9 L2352.76 1410.9 L2352.76 47.2441 L234.82 47.2441  Z
  " fill="#ffffff" fill-rule="evenodd" fill-opacity="1"/>
<defs>
  <clipPath id="clip762">
    <rect x="234" y="47" width="2119" height="1365"/>
  </clipPath>
</defs>
<polyline clip-path="url(#clip762)" style="stroke:#000000; stroke-width:2; stroke-opacity:0.1; fill:none" points="
  294.761,1410.9 294.761,47.2441 
  "/>
<polyline clip-path="url(#clip762)" style="stroke:#000000; stroke-width:2; stroke-opacity:0.1; fill:none" points="
  627.77,1410.9 627.77,47.2441 
  "/>
<polyline clip-path="url(#clip762)" style="stroke:#000000; stroke-width:2; stroke-opacity:0.1; fill:none" points="
  960.779,1410.9 960.779,47.2441 
  "/>
<polyline clip-path="url(#clip762)" style="stroke:#000000; stroke-width:2; stroke-opacity:0.1; fill:none" points="
  1293.79,1410.9 1293.79,47.2441 
  "/>
<polyline clip-path="url(#clip762)" style="stroke:#000000; stroke-width:2; stroke-opacity:0.1; fill:none" points="
  1626.8,1410.9 1626.8,47.2441 
  "/>
<polyline clip-path="url(#clip762)" style="stroke:#000000; stroke-width:2; stroke-opacity:0.1; fill:none" points="
  1959.81,1410.9 1959.81,47.2441 
  "/>
<polyline clip-path="url(#clip762)" style="stroke:#000000; stroke-width:2; stroke-opacity:0.1; fill:none" points="
  2292.81,1410.9 2292.81,47.2441 
  "/>
<polyline clip-path="url(#clip760)" style="stroke:#000000; stroke-width:4; stroke-opacity:1; fill:none" points="
  234.82,1410.9 2352.76,1410.9 
  "/>
<polyline clip-path="url(#clip760)" style="stroke:#000000; stroke-width:4; stroke-opacity:1; fill:none" points="
  294.761,1410.9 294.761,1394.53 
  "/>
<polyline clip-path="url(#clip760)" style="stroke:#000000; stroke-width:4; stroke-opacity:1; fill:none" points="
  627.77,1410.9 627.77,1394.53 
  "/>
<polyline clip-path="url(#clip760)" style="stroke:#000000; stroke-width:4; stroke-opacity:1; fill:none" points="
  960.779,1410.9 960.779,1394.53 
  "/>
<polyline clip-path="url(#clip760)" style="stroke:#000000; stroke-width:4; stroke-opacity:1; fill:none" points="
  1293.79,1410.9 1293.79,1394.53 
  "/>
<polyline clip-path="url(#clip760)" style="stroke:#000000; stroke-width:4; stroke-opacity:1; fill:none" points="
  1626.8,1410.9 1626.8,1394.53 
  "/>
<polyline clip-path="url(#clip760)" style="stroke:#000000; stroke-width:4; stroke-opacity:1; fill:none" points="
  1959.81,1410.9 1959.81,1394.53 
  "/>
<polyline clip-path="url(#clip760)" style="stroke:#000000; stroke-width:4; stroke-opacity:1; fill:none" points="
  2292.81,1410.9 2292.81,1394.53 
  "/>
<path clip-path="url(#clip760)" d="M 0 0 M248.541 1489.17 L256.18 1489.17 L256.18 1462.8 L247.869 1464.47 L247.869 1460.21 L256.133 1458.54 L260.809 1458.54 L260.809 1489.17 L268.448 1489.17 L268.448 1493.1 L248.541 1493.1 L248.541 1489.17 Z" fill="#000000" fill-rule="evenodd" fill-opacity="1" /><path clip-path="url(#clip760)" d="M 0 0 M283.517 1461.62 Q279.906 1461.62 278.078 1465.19 Q276.272 1468.73 276.272 1475.86 Q276.272 1482.97 278.078 1486.53 Q279.906 1490.07 283.517 1490.07 Q287.152 1490.07 288.957 1486.53 Q290.786 1482.97 290.786 1475.86 Q290.786 1468.73 288.957 1465.19 Q287.152 1461.62 283.517 1461.62 M283.517 1457.92 Q289.327 1457.92 292.383 1462.53 Q295.462 1467.11 295.462 1475.86 Q295.462 1484.59 292.383 1489.19 Q289.327 1493.78 283.517 1493.78 Q277.707 1493.78 274.628 1489.19 Q271.573 1484.59 271.573 1475.86 Q271.573 1467.11 274.628 1462.53 Q277.707 1457.92 283.517 1457.92 Z" fill="#000000" fill-rule="evenodd" fill-opacity="1" /><path clip-path="url(#clip760)" d="M 0 0 M295.462 1452.02 L319.573 1452.02 L319.573 1455.22 L295.462 1455.22 L295.462 1452.02 Z" fill="#000000" fill-rule="evenodd" fill-opacity="1" /><path clip-path="url(#clip760)" d="M 0 0 M332.287 1450.14 Q329.729 1450.14 328.225 1451.89 Q326.739 1453.64 326.739 1456.68 Q326.739 1459.71 328.225 1461.48 Q329.729 1463.23 332.287 1463.23 Q334.845 1463.23 336.331 1461.48 Q337.836 1459.71 337.836 1456.68 Q337.836 1453.64 336.331 1451.89 Q334.845 1450.14 332.287 1450.14 M339.829 1438.23 L339.829 1441.69 Q338.4 1441.02 336.933 1440.66 Q335.485 1440.3 334.055 1440.3 Q330.294 1440.3 328.3 1442.84 Q326.325 1445.38 326.043 1450.52 Q327.153 1448.88 328.827 1448.01 Q330.501 1447.13 332.513 1447.13 Q336.745 1447.13 339.19 1449.71 Q341.654 1452.26 341.654 1456.68 Q341.654 1461.01 339.096 1463.62 Q336.538 1466.24 332.287 1466.24 Q327.416 1466.24 324.839 1462.51 Q322.263 1458.77 322.263 1451.68 Q322.263 1445.02 325.422 1441.07 Q328.582 1437.11 333.905 1437.11 Q335.334 1437.11 336.782 1437.39 Q338.249 1437.67 339.829 1438.23 Z" fill="#000000" fill-rule="evenodd" fill-opacity="1" /><path clip-path="url(#clip760)" d="M 0 0 M582.02 1489.17 L589.659 1489.17 L589.659 1462.8 L581.348 1464.47 L581.348 1460.21 L589.612 1458.54 L594.288 1458.54 L594.288 1489.17 L601.927 1489.17 L601.927 1493.1 L582.02 1493.1 L582.02 1489.17 Z" fill="#000000" fill-rule="evenodd" fill-opacity="1" /><path clip-path="url(#clip760)" d="M 0 0 M616.996 1461.62 Q613.385 1461.62 611.557 1465.19 Q609.751 1468.73 609.751 1475.86 Q609.751 1482.97 611.557 1486.53 Q613.385 1490.07 616.996 1490.07 Q620.631 1490.07 622.436 1486.53 Q624.265 1482.97 624.265 1475.86 Q624.265 1468.73 622.436 1465.19 Q620.631 1461.62 616.996 1461.62 M616.996 1457.92 Q622.806 1457.92 625.862 1462.53 Q628.941 1467.11 628.941 1475.86 Q628.941 1484.59 625.862 1489.19 Q622.806 1493.78 616.996 1493.78 Q611.186 1493.78 608.107 1489.19 Q605.052 1484.59 605.052 1475.86 Q605.052 1467.11 608.107 1462.53 Q611.186 1457.92 616.996 1457.92 Z" fill="#000000" fill-rule="evenodd" fill-opacity="1" /><path clip-path="url(#clip760)" d="M 0 0 M628.941 1452.02 L653.052 1452.02 L653.052 1455.22 L628.941 1455.22 L628.941 1452.02 Z" fill="#000000" fill-rule="evenodd" fill-opacity="1" /><path clip-path="url(#clip760)" d="M 0 0 M657.209 1437.61 L672.123 1437.61 L672.123 1440.81 L660.688 1440.81 L660.688 1447.69 Q661.516 1447.41 662.343 1447.28 Q663.171 1447.13 663.998 1447.13 Q668.7 1447.13 671.446 1449.71 Q674.192 1452.28 674.192 1456.68 Q674.192 1461.22 671.371 1463.74 Q668.55 1466.24 663.415 1466.24 Q661.647 1466.24 659.804 1465.94 Q657.98 1465.64 656.024 1465.04 L656.024 1461.22 Q657.717 1462.14 659.522 1462.59 Q661.328 1463.04 663.34 1463.04 Q666.594 1463.04 668.493 1461.33 Q670.393 1459.62 670.393 1456.68 Q670.393 1453.75 668.493 1452.04 Q666.594 1450.33 663.34 1450.33 Q661.817 1450.33 660.293 1450.67 Q658.789 1451 657.209 1451.72 L657.209 1437.61 Z" fill="#000000" fill-rule="evenodd" fill-opacity="1" /><path clip-path="url(#clip760)" d="M 0 0 M914.427 1489.17 L922.065 1489.17 L922.065 1462.8 L913.755 1464.47 L913.755 1460.21 L922.019 1458.54 L926.695 1458.54 L926.695 1489.17 L934.334 1489.17 L934.334 1493.1 L914.427 1493.1 L914.427 1489.17 Z" fill="#000000" fill-rule="evenodd" fill-opacity="1" /><path clip-path="url(#clip760)" d="M 0 0 M949.403 1461.62 Q945.792 1461.62 943.963 1465.19 Q942.158 1468.73 942.158 1475.86 Q942.158 1482.97 943.963 1486.53 Q945.792 1490.07 949.403 1490.07 Q953.038 1490.07 954.843 1486.53 Q956.672 1482.97 956.672 1475.86 Q956.672 1468.73 954.843 1465.19 Q953.038 1461.62 949.403 1461.62 M949.403 1457.92 Q955.213 1457.92 958.269 1462.53 Q961.348 1467.11 961.348 1475.86 Q961.348 1484.59 958.269 1489.19 Q955.213 1493.78 949.403 1493.78 Q943.593 1493.78 940.514 1489.19 Q937.459 1484.59 937.459 1475.86 Q937.459 1467.11 940.514 1462.53 Q943.593 1457.92 949.403 1457.92 Z" fill="#000000" fill-rule="evenodd" fill-opacity="1" /><path clip-path="url(#clip760)" d="M 0 0 M961.348 1452.02 L985.459 1452.02 L985.459 1455.22 L961.348 1455.22 L961.348 1452.02 Z" fill="#000000" fill-rule="evenodd" fill-opacity="1" /><path clip-path="url(#clip760)" d="M 0 0 M1000.02 1440.92 L990.424 1455.91 L1000.02 1455.91 L1000.02 1440.92 M999.02 1437.61 L1003.8 1437.61 L1003.8 1455.91 L1007.8 1455.91 L1007.8 1459.07 L1003.8 1459.07 L1003.8 1465.69 L1000.02 1465.69 L1000.02 1459.07 L987.34 1459.07 L987.34 1455.41 L999.02 1437.61 Z" fill="#000000" fill-rule="evenodd" fill-opacity="1" /><path clip-path="url(#clip760)" d="M 0 0 M1247.9 1489.17 L1255.54 1489.17 L1255.54 1462.8 L1247.22 1464.47 L1247.22 1460.21 L1255.49 1458.54 L1260.16 1458.54 L1260.16 1489.17 L1267.8 1489.17 L1267.8 1493.1 L1247.9 1493.1 L1247.9 1489.17 Z" fill="#000000" fill-rule="evenodd" fill-opacity="1" /><path clip-path="url(#clip760)" d="M 0 0 M1282.87 1461.62 Q1279.26 1461.62 1277.43 1465.19 Q1275.63 1468.73 1275.63 1475.86 Q1275.63 1482.97 1277.43 1486.53 Q1279.26 1490.07 1282.87 1490.07 Q1286.51 1490.07 1288.31 1486.53 Q1290.14 1482.97 1290.14 1475.86 Q1290.14 1468.73 1288.31 1465.19 Q1286.51 1461.62 1282.87 1461.62 M1282.87 1457.92 Q1288.68 1457.92 1291.74 1462.53 Q1294.82 1467.11 1294.82 1475.86 Q1294.82 1484.59 1291.74 1489.19 Q1288.68 1493.78 1282.87 1493.78 Q1277.06 1493.78 1273.98 1489.19 Q1270.93 1484.59 1270.93 1475.86 Q1270.93 1467.11 1273.98 1462.53 Q1277.06 1457.92 1282.87 1457.92 Z" fill="#000000" fill-rule="evenodd" fill-opacity="1" /><path clip-path="url(#clip760)" d="M 0 0 M1294.82 1452.02 L1318.93 1452.02 L1318.93 1455.22 L1294.82 1455.22 L1294.82 1452.02 Z" fill="#000000" fill-rule="evenodd" fill-opacity="1" /><path clip-path="url(#clip760)" d="M 0 0 M1334.56 1450.55 Q1337.29 1451.14 1338.81 1452.98 Q1340.35 1454.82 1340.35 1457.53 Q1340.35 1461.69 1337.49 1463.96 Q1334.63 1466.24 1329.37 1466.24 Q1327.6 1466.24 1325.72 1465.88 Q1323.86 1465.54 1321.86 1464.85 L1321.86 1461.18 Q1323.44 1462.1 1325.32 1462.57 Q1327.2 1463.04 1329.25 1463.04 Q1332.83 1463.04 1334.69 1461.63 Q1336.57 1460.22 1336.57 1457.53 Q1336.57 1455.05 1334.82 1453.66 Q1333.09 1452.25 1329.99 1452.25 L1326.72 1452.25 L1326.72 1449.12 L1330.14 1449.12 Q1332.94 1449.12 1334.43 1448.01 Q1335.91 1446.89 1335.91 1444.78 Q1335.91 1442.62 1334.37 1441.47 Q1332.85 1440.3 1329.99 1440.3 Q1328.43 1440.3 1326.64 1440.64 Q1324.85 1440.98 1322.71 1441.69 L1322.71 1438.31 Q1324.87 1437.71 1326.75 1437.41 Q1328.65 1437.11 1330.33 1437.11 Q1334.65 1437.11 1337.17 1439.08 Q1339.69 1441.04 1339.69 1444.38 Q1339.69 1446.72 1338.36 1448.33 Q1337.02 1449.93 1334.56 1450.55 Z" fill="#000000" fill-rule="evenodd" fill-opacity="1" /><path clip-path="url(#clip760)" d="M 0 0 M1581.29 1489.17 L1588.93 1489.17 L1588.93 1462.8 L1580.62 1464.47 L1580.62 1460.21 L1588.88 1458.54 L1593.56 1458.54 L1593.56 1489.17 L1601.2 1489.17 L1601.2 1493.1 L1581.29 1493.1 L1581.29 1489.17 Z" fill="#000000" fill-rule="evenodd" fill-opacity="1" /><path clip-path="url(#clip760)" d="M 0 0 M1616.27 1461.62 Q1612.66 1461.62 1610.83 1465.19 Q1609.02 1468.73 1609.02 1475.86 Q1609.02 1482.97 1610.83 1486.53 Q1612.66 1490.07 1616.27 1490.07 Q1619.9 1490.07 1621.71 1486.53 Q1623.54 1482.97 1623.54 1475.86 Q1623.54 1468.73 1621.71 1465.19 Q1619.9 1461.62 1616.27 1461.62 M1616.27 1457.92 Q1622.08 1457.92 1625.13 1462.53 Q1628.21 1467.11 1628.21 1475.86 Q1628.21 1484.59 1625.13 1489.19 Q1622.08 1493.78 1616.27 1493.78 Q1610.46 1493.78 1607.38 1489.19 Q1604.32 1484.59 1604.32 1475.86 Q1604.32 1467.11 1607.38 1462.53 Q1610.46 1457.92 1616.27 1457.92 Z" fill="#000000" fill-rule="evenodd" fill-opacity="1" /><path clip-path="url(#clip760)" d="M 0 0 M1628.21 1452.02 L1652.32 1452.02 L1652.32 1455.22 L1628.21 1455.22 L1628.21 1452.02 Z" fill="#000000" fill-rule="evenodd" fill-opacity="1" /><path clip-path="url(#clip760)" d="M 0 0 M1659.71 1462.5 L1672.97 1462.5 L1672.97 1465.69 L1655.14 1465.69 L1655.14 1462.5 Q1657.31 1460.26 1661.03 1456.5 Q1664.77 1452.72 1665.73 1451.63 Q1667.56 1449.58 1668.27 1448.16 Q1669.01 1446.74 1669.01 1445.36 Q1669.01 1443.12 1667.43 1441.71 Q1665.86 1440.3 1663.34 1440.3 Q1661.56 1440.3 1659.56 1440.92 Q1657.59 1441.54 1655.33 1442.8 L1655.33 1438.97 Q1657.63 1438.05 1659.62 1437.58 Q1661.61 1437.11 1663.27 1437.11 Q1667.63 1437.11 1670.23 1439.29 Q1672.82 1441.47 1672.82 1445.12 Q1672.82 1446.85 1672.17 1448.41 Q1671.53 1449.95 1669.81 1452.06 Q1669.34 1452.6 1666.82 1455.22 Q1664.3 1457.81 1659.71 1462.5 Z" fill="#000000" fill-rule="evenodd" fill-opacity="1" /><path clip-path="url(#clip760)" d="M 0 0 M1914.15 1489.17 L1921.79 1489.17 L1921.79 1462.8 L1913.48 1464.47 L1913.48 1460.21 L1921.74 1458.54 L1926.42 1458.54 L1926.42 1489.17 L1934.06 1489.17 L1934.06 1493.1 L1914.15 1493.1 L1914.15 1489.17 Z" fill="#000000" fill-rule="evenodd" fill-opacity="1" /><path clip-path="url(#clip760)" d="M 0 0 M1949.13 1461.62 Q1945.51 1461.62 1943.69 1465.19 Q1941.88 1468.73 1941.88 1475.86 Q1941.88 1482.97 1943.69 1486.53 Q1945.51 1490.07 1949.13 1490.07 Q1952.76 1490.07 1954.57 1486.53 Q1956.39 1482.97 1956.39 1475.86 Q1956.39 1468.73 1954.57 1465.19 Q1952.76 1461.62 1949.13 1461.62 M1949.13 1457.92 Q1954.94 1457.92 1957.99 1462.53 Q1961.07 1467.11 1961.07 1475.86 Q1961.07 1484.59 1957.99 1489.19 Q1954.94 1493.78 1949.13 1493.78 Q1943.32 1493.78 1940.24 1489.19 Q1937.18 1484.59 1937.18 1475.86 Q1937.18 1467.11 1940.24 1462.53 Q1943.32 1457.92 1949.13 1457.92 Z" fill="#000000" fill-rule="evenodd" fill-opacity="1" /><path clip-path="url(#clip760)" d="M 0 0 M1961.07 1452.02 L1985.18 1452.02 L1985.18 1455.22 L1961.07 1455.22 L1961.07 1452.02 Z" fill="#000000" fill-rule="evenodd" fill-opacity="1" /><path clip-path="url(#clip760)" d="M 0 0 M1989.96 1462.5 L1996.17 1462.5 L1996.17 1441.07 L1989.41 1442.43 L1989.41 1438.97 L1996.13 1437.61 L1999.93 1437.61 L1999.93 1462.5 L2006.13 1462.5 L2006.13 1465.69 L1989.96 1465.69 L1989.96 1462.5 Z" fill="#000000" fill-rule="evenodd" fill-opacity="1" /><path clip-path="url(#clip760)" d="M 0 0 M2259.98 1489.17 L2267.62 1489.17 L2267.62 1462.8 L2259.31 1464.47 L2259.31 1460.21 L2267.58 1458.54 L2272.25 1458.54 L2272.25 1489.17 L2279.89 1489.17 L2279.89 1493.1 L2259.98 1493.1 L2259.98 1489.17 Z" fill="#000000" fill-rule="evenodd" fill-opacity="1" /><path clip-path="url(#clip760)" d="M 0 0 M2294.96 1461.62 Q2291.35 1461.62 2289.52 1465.19 Q2287.72 1468.73 2287.72 1475.86 Q2287.72 1482.97 2289.52 1486.53 Q2291.35 1490.07 2294.96 1490.07 Q2298.6 1490.07 2300.4 1486.53 Q2302.23 1482.97 2302.23 1475.86 Q2302.23 1468.73 2300.4 1465.19 Q2298.6 1461.62 2294.96 1461.62 M2294.96 1457.92 Q2300.77 1457.92 2303.83 1462.53 Q2306.91 1467.11 2306.91 1475.86 Q2306.91 1484.59 2303.83 1489.19 Q2300.77 1493.78 2294.96 1493.78 Q2289.15 1493.78 2286.07 1489.19 Q2283.02 1484.59 2283.02 1475.86 Q2283.02 1467.11 2286.07 1462.53 Q2289.15 1457.92 2294.96 1457.92 Z" fill="#000000" fill-rule="evenodd" fill-opacity="1" /><path clip-path="url(#clip760)" d="M 0 0 M2316.61 1440.11 Q2313.68 1440.11 2312.19 1443.01 Q2310.72 1445.89 2310.72 1451.68 Q2310.72 1457.46 2312.19 1460.35 Q2313.68 1463.23 2316.61 1463.23 Q2319.56 1463.23 2321.03 1460.35 Q2322.52 1457.46 2322.52 1451.68 Q2322.52 1445.89 2321.03 1443.01 Q2319.56 1440.11 2316.61 1440.11 M2316.61 1437.11 Q2321.33 1437.11 2323.81 1440.85 Q2326.32 1444.57 2326.32 1451.68 Q2326.32 1458.77 2323.81 1462.51 Q2321.33 1466.24 2316.61 1466.24 Q2311.89 1466.24 2309.39 1462.51 Q2306.91 1458.77 2306.91 1451.68 Q2306.91 1444.57 2309.39 1440.85 Q2311.89 1437.11 2316.61 1437.11 Z" fill="#000000" fill-rule="evenodd" fill-opacity="1" /><path clip-path="url(#clip760)" d="M 0 0 M1219.01 1512.66 L1224.9 1512.66 L1224.9 1541.91 L1242.37 1526.54 L1249.85 1526.54 L1230.94 1543.22 L1250.64 1562.19 L1243.01 1562.19 L1224.9 1544.78 L1224.9 1562.19 L1219.01 1562.19 L1219.01 1512.66 Z" fill="#000000" fill-rule="evenodd" fill-opacity="1" /><path clip-path="url(#clip760)" d="M 0 0 M1283.87 1573.01 L1283.87 1577.56 L1250.01 1577.56 L1250.01 1573.01 L1283.87 1573.01 Z" fill="#000000" fill-rule="evenodd" fill-opacity="1" /><path clip-path="url(#clip760)" d="M 0 0 M1303.83 1530.64 Q1299.12 1530.64 1296.38 1534.34 Q1293.64 1538 1293.64 1544.39 Q1293.64 1550.79 1296.35 1554.48 Q1299.09 1558.14 1303.83 1558.14 Q1308.51 1558.14 1311.25 1554.45 Q1313.98 1550.76 1313.98 1544.39 Q1313.98 1538.06 1311.25 1534.37 Q1308.51 1530.64 1303.83 1530.64 M1303.83 1525.68 Q1311.47 1525.68 1315.83 1530.64 Q1320.19 1535.61 1320.19 1544.39 Q1320.19 1553.15 1315.83 1558.14 Q1311.47 1563.11 1303.83 1563.11 Q1296.16 1563.11 1291.8 1558.14 Q1287.47 1553.15 1287.47 1544.39 Q1287.47 1535.61 1291.8 1530.64 Q1296.16 1525.68 1303.83 1525.68 Z" fill="#000000" fill-rule="evenodd" fill-opacity="1" /><path clip-path="url(#clip760)" d="M 0 0 M1344.38 1512.66 L1344.38 1517.53 L1338.78 1517.53 Q1335.63 1517.53 1334.39 1518.8 Q1333.18 1520.08 1333.18 1523.39 L1333.18 1526.54 L1342.82 1526.54 L1342.82 1531.09 L1333.18 1531.09 L1333.18 1562.19 L1327.29 1562.19 L1327.29 1531.09 L1321.69 1531.09 L1321.69 1526.54 L1327.29 1526.54 L1327.29 1524.05 Q1327.29 1518.1 1330.06 1515.4 Q1332.83 1512.66 1338.84 1512.66 L1344.38 1512.66 Z" fill="#000000" fill-rule="evenodd" fill-opacity="1" /><path clip-path="url(#clip760)" d="M 0 0 M1368.57 1512.66 L1368.57 1517.53 L1362.97 1517.53 Q1359.82 1517.53 1358.57 1518.8 Q1357.37 1520.08 1357.37 1523.39 L1357.37 1526.54 L1367.01 1526.54 L1367.01 1531.09 L1357.37 1531.09 L1357.37 1562.19 L1351.48 1562.19 L1351.48 1531.09 L1345.88 1531.09 L1345.88 1526.54 L1351.48 1526.54 L1351.48 1524.05 Q1351.48 1518.1 1354.25 1515.4 Q1357.02 1512.66 1363.03 1512.66 L1368.57 1512.66 Z" fill="#000000" fill-rule="evenodd" fill-opacity="1" /><polyline clip-path="url(#clip762)" style="stroke:#000000; stroke-width:2; stroke-opacity:0.1; fill:none" points="
  234.82,1304.52 2352.76,1304.52 
  "/>
<polyline clip-path="url(#clip762)" style="stroke:#000000; stroke-width:2; stroke-opacity:0.1; fill:none" points="
  234.82,1107.82 2352.76,1107.82 
  "/>
<polyline clip-path="url(#clip762)" style="stroke:#000000; stroke-width:2; stroke-opacity:0.1; fill:none" points="
  234.82,911.124 2352.76,911.124 
  "/>
<polyline clip-path="url(#clip762)" style="stroke:#000000; stroke-width:2; stroke-opacity:0.1; fill:none" points="
  234.82,714.427 2352.76,714.427 
  "/>
<polyline clip-path="url(#clip762)" style="stroke:#000000; stroke-width:2; stroke-opacity:0.1; fill:none" points="
  234.82,517.731 2352.76,517.731 
  "/>
<polyline clip-path="url(#clip762)" style="stroke:#000000; stroke-width:2; stroke-opacity:0.1; fill:none" points="
  234.82,321.035 2352.76,321.035 
  "/>
<polyline clip-path="url(#clip762)" style="stroke:#000000; stroke-width:2; stroke-opacity:0.1; fill:none" points="
  234.82,124.339 2352.76,124.339 
  "/>
<polyline clip-path="url(#clip760)" style="stroke:#000000; stroke-width:4; stroke-opacity:1; fill:none" points="
  234.82,1410.9 234.82,47.2441 
  "/>
<polyline clip-path="url(#clip760)" style="stroke:#000000; stroke-width:4; stroke-opacity:1; fill:none" points="
  234.82,1304.52 260.235,1304.52 
  "/>
<polyline clip-path="url(#clip760)" style="stroke:#000000; stroke-width:4; stroke-opacity:1; fill:none" points="
  234.82,1107.82 260.235,1107.82 
  "/>
<polyline clip-path="url(#clip760)" style="stroke:#000000; stroke-width:4; stroke-opacity:1; fill:none" points="
  234.82,911.124 260.235,911.124 
  "/>
<polyline clip-path="url(#clip760)" style="stroke:#000000; stroke-width:4; stroke-opacity:1; fill:none" points="
  234.82,714.427 260.235,714.427 
  "/>
<polyline clip-path="url(#clip760)" style="stroke:#000000; stroke-width:4; stroke-opacity:1; fill:none" points="
  234.82,517.731 260.235,517.731 
  "/>
<polyline clip-path="url(#clip760)" style="stroke:#000000; stroke-width:4; stroke-opacity:1; fill:none" points="
  234.82,321.035 260.235,321.035 
  "/>
<polyline clip-path="url(#clip760)" style="stroke:#000000; stroke-width:4; stroke-opacity:1; fill:none" points="
  234.82,124.339 260.235,124.339 
  "/>
<path clip-path="url(#clip760)" d="M 0 0 M140.626 1287.24 L162.848 1287.24 L162.848 1289.23 L150.302 1321.8 L145.417 1321.8 L157.223 1291.17 L140.626 1291.17 L140.626 1287.24 Z" fill="#000000" fill-rule="evenodd" fill-opacity="1" /><path clip-path="url(#clip760)" d="M 0 0 M167.917 1315.92 L172.802 1315.92 L172.802 1321.8 L167.917 1321.8 L167.917 1315.92 Z" fill="#000000" fill-rule="evenodd" fill-opacity="1" /><path clip-path="url(#clip760)" d="M 0 0 M177.917 1287.24 L196.274 1287.24 L196.274 1291.17 L182.2 1291.17 L182.2 1299.64 Q183.218 1299.3 184.237 1299.13 Q185.255 1298.95 186.274 1298.95 Q192.061 1298.95 195.44 1302.12 Q198.82 1305.29 198.82 1310.71 Q198.82 1316.29 195.348 1319.39 Q191.875 1322.47 185.556 1322.47 Q183.38 1322.47 181.112 1322.1 Q178.866 1321.73 176.459 1320.99 L176.459 1316.29 Q178.542 1317.42 180.764 1317.98 Q182.987 1318.53 185.463 1318.53 Q189.468 1318.53 191.806 1316.43 Q194.144 1314.32 194.144 1310.71 Q194.144 1307.1 191.806 1304.99 Q189.468 1302.88 185.463 1302.88 Q183.588 1302.88 181.713 1303.3 Q179.862 1303.72 177.917 1304.6 L177.917 1287.24 Z" fill="#000000" fill-rule="evenodd" fill-opacity="1" /><path clip-path="url(#clip760)" d="M 0 0 M150.001 1108.69 Q146.667 1108.69 144.746 1110.47 Q142.848 1112.25 142.848 1115.38 Q142.848 1118.5 144.746 1120.29 Q146.667 1122.07 150.001 1122.07 Q153.334 1122.07 155.255 1120.29 Q157.177 1118.48 157.177 1115.38 Q157.177 1112.25 155.255 1110.47 Q153.357 1108.69 150.001 1108.69 M145.325 1106.7 Q142.316 1105.96 140.626 1103.9 Q138.959 1101.84 138.959 1098.87 Q138.959 1094.73 141.899 1092.32 Q144.862 1089.92 150.001 1089.92 Q155.163 1089.92 158.103 1092.32 Q161.042 1094.73 161.042 1098.87 Q161.042 1101.84 159.353 1103.9 Q157.686 1105.96 154.7 1106.7 Q158.079 1107.48 159.954 1109.78 Q161.852 1112.07 161.852 1115.38 Q161.852 1120.4 158.774 1123.09 Q155.718 1125.77 150.001 1125.77 Q144.283 1125.77 141.204 1123.09 Q138.149 1120.4 138.149 1115.38 Q138.149 1112.07 140.047 1109.78 Q141.945 1107.48 145.325 1106.7 M143.612 1099.31 Q143.612 1102 145.279 1103.5 Q146.968 1105.01 150.001 1105.01 Q153.01 1105.01 154.7 1103.5 Q156.413 1102 156.413 1099.31 Q156.413 1096.63 154.7 1095.12 Q153.01 1093.62 150.001 1093.62 Q146.968 1093.62 145.279 1095.12 Q143.612 1096.63 143.612 1099.31 Z" fill="#000000" fill-rule="evenodd" fill-opacity="1" /><path clip-path="url(#clip760)" d="M 0 0 M166.922 1119.22 L171.806 1119.22 L171.806 1125.1 L166.922 1125.1 L166.922 1119.22 Z" fill="#000000" fill-rule="evenodd" fill-opacity="1" /><path clip-path="url(#clip760)" d="M 0 0 M186.876 1093.62 Q183.264 1093.62 181.436 1097.18 Q179.63 1100.73 179.63 1107.85 Q179.63 1114.96 181.436 1118.53 Q183.264 1122.07 186.876 1122.07 Q190.51 1122.07 192.315 1118.53 Q194.144 1114.96 194.144 1107.85 Q194.144 1100.73 192.315 1097.18 Q190.51 1093.62 186.876 1093.62 M186.876 1089.92 Q192.686 1089.92 195.741 1094.52 Q198.82 1099.1 198.82 1107.85 Q198.82 1116.58 195.741 1121.19 Q192.686 1125.77 186.876 1125.77 Q181.065 1125.77 177.987 1121.19 Q174.931 1116.58 174.931 1107.85 Q174.931 1099.1 177.987 1094.52 Q181.065 1089.92 186.876 1089.92 Z" fill="#000000" fill-rule="evenodd" fill-opacity="1" /><path clip-path="url(#clip760)" d="M 0 0 M150.996 911.992 Q147.663 911.992 145.741 913.774 Q143.843 915.557 143.843 918.682 Q143.843 921.807 145.741 923.589 Q147.663 925.371 150.996 925.371 Q154.329 925.371 156.251 923.589 Q158.172 921.783 158.172 918.682 Q158.172 915.557 156.251 913.774 Q154.353 911.992 150.996 911.992 M146.32 910.001 Q143.311 909.26 141.621 907.2 Q139.954 905.14 139.954 902.177 Q139.954 898.034 142.894 895.626 Q145.857 893.219 150.996 893.219 Q156.158 893.219 159.098 895.626 Q162.038 898.034 162.038 902.177 Q162.038 905.14 160.348 907.2 Q158.681 909.26 155.695 910.001 Q159.075 910.788 160.95 913.08 Q162.848 915.371 162.848 918.682 Q162.848 923.705 159.769 926.39 Q156.714 929.075 150.996 929.075 Q145.279 929.075 142.2 926.39 Q139.144 923.705 139.144 918.682 Q139.144 915.371 141.042 913.08 Q142.941 910.788 146.32 910.001 M144.607 902.617 Q144.607 905.302 146.274 906.807 Q147.964 908.311 150.996 908.311 Q154.005 908.311 155.695 906.807 Q157.408 905.302 157.408 902.617 Q157.408 899.932 155.695 898.427 Q154.005 896.922 150.996 896.922 Q147.964 896.922 146.274 898.427 Q144.607 899.932 144.607 902.617 Z" fill="#000000" fill-rule="evenodd" fill-opacity="1" /><path clip-path="url(#clip760)" d="M 0 0 M167.917 922.524 L172.802 922.524 L172.802 928.404 L167.917 928.404 L167.917 922.524 Z" fill="#000000" fill-rule="evenodd" fill-opacity="1" /><path clip-path="url(#clip760)" d="M 0 0 M177.917 893.844 L196.274 893.844 L196.274 897.779 L182.2 897.779 L182.2 906.251 Q183.218 905.904 184.237 905.742 Q185.255 905.557 186.274 905.557 Q192.061 905.557 195.44 908.728 Q198.82 911.899 198.82 917.316 Q198.82 922.895 195.348 925.996 Q191.875 929.075 185.556 929.075 Q183.38 929.075 181.112 928.705 Q178.866 928.334 176.459 927.594 L176.459 922.895 Q178.542 924.029 180.764 924.584 Q182.987 925.14 185.463 925.14 Q189.468 925.14 191.806 923.033 Q194.144 920.927 194.144 917.316 Q194.144 913.705 191.806 911.598 Q189.468 909.492 185.463 909.492 Q183.588 909.492 181.713 909.908 Q179.862 910.325 177.917 911.205 L177.917 893.844 Z" fill="#000000" fill-rule="evenodd" fill-opacity="1" /><path clip-path="url(#clip760)" d="M 0 0 M140.232 730.99 L140.232 726.731 Q141.991 727.564 143.797 728.004 Q145.603 728.444 147.339 728.444 Q151.968 728.444 154.399 725.342 Q156.853 722.217 157.2 715.874 Q155.857 717.865 153.797 718.93 Q151.737 719.995 149.237 719.995 Q144.052 719.995 141.019 716.87 Q138.01 713.721 138.01 708.282 Q138.01 702.958 141.158 699.74 Q144.306 696.522 149.538 696.522 Q155.533 696.522 158.681 701.129 Q161.852 705.712 161.852 714.462 Q161.852 722.633 157.964 727.518 Q154.098 732.379 147.547 732.379 Q145.788 732.379 143.982 732.032 Q142.177 731.684 140.232 730.99 M149.538 716.337 Q152.686 716.337 154.515 714.184 Q156.366 712.032 156.366 708.282 Q156.366 704.555 154.515 702.402 Q152.686 700.226 149.538 700.226 Q146.39 700.226 144.538 702.402 Q142.709 704.555 142.709 708.282 Q142.709 712.032 144.538 714.184 Q146.39 716.337 149.538 716.337 Z" fill="#000000" fill-rule="evenodd" fill-opacity="1" /><path clip-path="url(#clip760)" d="M 0 0 M166.922 725.828 L171.806 725.828 L171.806 731.707 L166.922 731.707 L166.922 725.828 Z" fill="#000000" fill-rule="evenodd" fill-opacity="1" /><path clip-path="url(#clip760)" d="M 0 0 M186.876 700.226 Q183.264 700.226 181.436 703.791 Q179.63 707.333 179.63 714.462 Q179.63 721.569 181.436 725.133 Q183.264 728.675 186.876 728.675 Q190.51 728.675 192.315 725.133 Q194.144 721.569 194.144 714.462 Q194.144 707.333 192.315 703.791 Q190.51 700.226 186.876 700.226 M186.876 696.522 Q192.686 696.522 195.741 701.129 Q198.82 705.712 198.82 714.462 Q198.82 723.189 195.741 727.795 Q192.686 732.379 186.876 732.379 Q181.065 732.379 177.987 727.795 Q174.931 723.189 174.931 714.462 Q174.931 705.712 177.987 701.129 Q181.065 696.522 186.876 696.522 Z" fill="#000000" fill-rule="evenodd" fill-opacity="1" /><path clip-path="url(#clip760)" d="M 0 0 M141.228 534.294 L141.228 530.034 Q142.987 530.868 144.792 531.307 Q146.598 531.747 148.334 531.747 Q152.964 531.747 155.394 528.645 Q157.848 525.52 158.195 519.178 Q156.853 521.169 154.792 522.233 Q152.732 523.298 150.232 523.298 Q145.047 523.298 142.015 520.173 Q139.005 517.025 139.005 511.585 Q139.005 506.261 142.154 503.044 Q145.302 499.826 150.533 499.826 Q156.528 499.826 159.677 504.433 Q162.848 509.016 162.848 517.766 Q162.848 525.937 158.959 530.821 Q155.093 535.682 148.542 535.682 Q146.783 535.682 144.978 535.335 Q143.172 534.988 141.228 534.294 M150.533 519.641 Q153.681 519.641 155.51 517.488 Q157.362 515.335 157.362 511.585 Q157.362 507.859 155.51 505.706 Q153.681 503.53 150.533 503.53 Q147.385 503.53 145.533 505.706 Q143.704 507.859 143.704 511.585 Q143.704 515.335 145.533 517.488 Q147.385 519.641 150.533 519.641 Z" fill="#000000" fill-rule="evenodd" fill-opacity="1" /><path clip-path="url(#clip760)" d="M 0 0 M167.917 529.132 L172.802 529.132 L172.802 535.011 L167.917 535.011 L167.917 529.132 Z" fill="#000000" fill-rule="evenodd" fill-opacity="1" /><path clip-path="url(#clip760)" d="M 0 0 M177.917 500.451 L196.274 500.451 L196.274 504.386 L182.2 504.386 L182.2 512.858 Q183.218 512.511 184.237 512.349 Q185.255 512.164 186.274 512.164 Q192.061 512.164 195.44 515.335 Q198.82 518.507 198.82 523.923 Q198.82 529.502 195.348 532.604 Q191.875 535.682 185.556 535.682 Q183.38 535.682 181.112 535.312 Q178.866 534.942 176.459 534.201 L176.459 529.502 Q178.542 530.636 180.764 531.192 Q182.987 531.747 185.463 531.747 Q189.468 531.747 191.806 529.641 Q194.144 527.534 194.144 523.923 Q194.144 520.312 191.806 518.206 Q189.468 516.099 185.463 516.099 Q183.588 516.099 181.713 516.516 Q179.862 516.933 177.917 517.812 L177.917 500.451 Z" fill="#000000" fill-rule="evenodd" fill-opacity="1" /><path clip-path="url(#clip760)" d="M 0 0 M114.931 334.38 L122.57 334.38 L122.57 308.014 L114.26 309.681 L114.26 305.422 L122.524 303.755 L127.2 303.755 L127.2 334.38 L134.839 334.38 L134.839 338.315 L114.931 338.315 L114.931 334.38 Z" fill="#000000" fill-rule="evenodd" fill-opacity="1" /><path clip-path="url(#clip760)" d="M 0 0 M149.908 306.834 Q146.297 306.834 144.468 310.398 Q142.663 313.94 142.663 321.07 Q142.663 328.176 144.468 331.741 Q146.297 335.282 149.908 335.282 Q153.542 335.282 155.348 331.741 Q157.177 328.176 157.177 321.07 Q157.177 313.94 155.348 310.398 Q153.542 306.834 149.908 306.834 M149.908 303.13 Q155.718 303.13 158.774 307.736 Q161.852 312.32 161.852 321.07 Q161.852 329.796 158.774 334.403 Q155.718 338.986 149.908 338.986 Q144.098 338.986 141.019 334.403 Q137.964 329.796 137.964 321.07 Q137.964 312.32 141.019 307.736 Q144.098 303.13 149.908 303.13 Z" fill="#000000" fill-rule="evenodd" fill-opacity="1" /><path clip-path="url(#clip760)" d="M 0 0 M166.922 332.435 L171.806 332.435 L171.806 338.315 L166.922 338.315 L166.922 332.435 Z" fill="#000000" fill-rule="evenodd" fill-opacity="1" /><path clip-path="url(#clip760)" d="M 0 0 M186.876 306.834 Q183.264 306.834 181.436 310.398 Q179.63 313.94 179.63 321.07 Q179.63 328.176 181.436 331.741 Q183.264 335.282 186.876 335.282 Q190.51 335.282 192.315 331.741 Q194.144 328.176 194.144 321.07 Q194.144 313.94 192.315 310.398 Q190.51 306.834 186.876 306.834 M186.876 303.13 Q192.686 303.13 195.741 307.736 Q198.82 312.32 198.82 321.07 Q198.82 329.796 195.741 334.403 Q192.686 338.986 186.876 338.986 Q181.065 338.986 177.987 334.403 Q174.931 329.796 174.931 321.07 Q174.931 312.32 177.987 307.736 Q181.065 303.13 186.876 303.13 Z" fill="#000000" fill-rule="evenodd" fill-opacity="1" /><path clip-path="url(#clip760)" d="M 0 0 M115.927 137.683 L123.566 137.683 L123.566 111.318 L115.256 112.984 L115.256 108.725 L123.519 107.059 L128.195 107.059 L128.195 137.683 L135.834 137.683 L135.834 141.619 L115.927 141.619 L115.927 137.683 Z" fill="#000000" fill-rule="evenodd" fill-opacity="1" /><path clip-path="url(#clip760)" d="M 0 0 M150.903 110.137 Q147.292 110.137 145.464 113.702 Q143.658 117.244 143.658 124.373 Q143.658 131.48 145.464 135.045 Q147.292 138.586 150.903 138.586 Q154.538 138.586 156.343 135.045 Q158.172 131.48 158.172 124.373 Q158.172 117.244 156.343 113.702 Q154.538 110.137 150.903 110.137 M150.903 106.434 Q156.714 106.434 159.769 111.04 Q162.848 115.623 162.848 124.373 Q162.848 133.1 159.769 137.707 Q156.714 142.29 150.903 142.29 Q145.093 142.29 142.015 137.707 Q138.959 133.1 138.959 124.373 Q138.959 115.623 142.015 111.04 Q145.093 106.434 150.903 106.434 Z" fill="#000000" fill-rule="evenodd" fill-opacity="1" /><path clip-path="url(#clip760)" d="M 0 0 M167.917 135.739 L172.802 135.739 L172.802 141.619 L167.917 141.619 L167.917 135.739 Z" fill="#000000" fill-rule="evenodd" fill-opacity="1" /><path clip-path="url(#clip760)" d="M 0 0 M177.917 107.059 L196.274 107.059 L196.274 110.994 L182.2 110.994 L182.2 119.466 Q183.218 119.119 184.237 118.957 Q185.255 118.771 186.274 118.771 Q192.061 118.771 195.44 121.943 Q198.82 125.114 198.82 130.531 Q198.82 136.109 195.348 139.211 Q191.875 142.29 185.556 142.29 Q183.38 142.29 181.112 141.919 Q178.866 141.549 176.459 140.808 L176.459 136.109 Q178.542 137.244 180.764 137.799 Q182.987 138.355 185.463 138.355 Q189.468 138.355 191.806 136.248 Q194.144 134.142 194.144 130.531 Q194.144 126.92 191.806 124.813 Q189.468 122.707 185.463 122.707 Q183.588 122.707 181.713 123.123 Q179.862 123.54 177.917 124.42 L177.917 107.059 Z" fill="#000000" fill-rule="evenodd" fill-opacity="1" /><path clip-path="url(#clip760)" d="M 0 0 M59.1993 815.533 Q55.2526 813.336 53.3747 810.281 Q51.4968 807.225 51.4968 803.088 Q51.4968 797.518 55.4117 794.494 Q59.2948 791.47 66.4881 791.47 L88.0042 791.47 L88.0042 797.358 L66.679 797.358 Q61.5546 797.358 59.072 799.173 Q56.5894 800.987 56.5894 804.711 Q56.5894 809.262 59.6131 811.904 Q62.6368 814.546 67.8567 814.546 L88.0042 814.546 L88.0042 820.434 L66.679 820.434 Q61.5228 820.434 59.072 822.248 Q56.5894 824.063 56.5894 827.85 Q56.5894 832.338 59.6449 834.98 Q62.6686 837.622 67.8567 837.622 L88.0042 837.622 L88.0042 843.51 L52.3562 843.51 L52.3562 837.622 L57.8944 837.622 Q54.616 835.616 53.0564 832.815 Q51.4968 830.015 51.4968 826.163 Q51.4968 822.28 53.4702 819.575 Q55.4436 816.838 59.1993 815.533 Z" fill="#000000" fill-rule="evenodd" fill-opacity="1" /><path clip-path="url(#clip760)" d="M 0 0 M52.3562 785.327 L52.3562 779.471 L88.0042 779.471 L88.0042 785.327 L52.3562 785.327 M38.479 785.327 L38.479 779.471 L45.895 779.471 L45.895 785.327 L38.479 785.327 Z" fill="#000000" fill-rule="evenodd" fill-opacity="1" /><path clip-path="url(#clip760)" d="M 0 0 M66.4881 743.696 L88.0042 743.696 L88.0042 749.552 L66.679 749.552 Q61.6183 749.552 59.1038 751.525 Q56.5894 753.499 56.5894 757.446 Q56.5894 762.188 59.6131 764.925 Q62.6368 767.662 67.8567 767.662 L88.0042 767.662 L88.0042 773.551 L52.3562 773.551 L52.3562 767.662 L57.8944 767.662 Q54.6797 765.562 53.0883 762.729 Q51.4968 759.864 51.4968 756.141 Q51.4968 749.998 55.3163 746.847 Q59.1038 743.696 66.4881 743.696 Z" fill="#000000" fill-rule="evenodd" fill-opacity="1" /><path clip-path="url(#clip760)" d="M 0 0 M98.8259 710.467 L103.377 710.467 L103.377 744.332 L98.8259 744.332 L98.8259 710.467 Z" fill="#000000" fill-rule="evenodd" fill-opacity="1" /><path clip-path="url(#clip760)" d="M 0 0 M57.7671 680.866 L38.479 680.866 L38.479 675.01 L88.0042 675.01 L88.0042 680.866 L82.657 680.866 Q85.8398 682.712 87.3994 685.545 Q88.9272 688.346 88.9272 692.292 Q88.9272 698.754 83.771 702.828 Q78.6147 706.87 70.212 706.87 Q61.8093 706.87 56.6531 702.828 Q51.4968 698.754 51.4968 692.292 Q51.4968 688.346 53.0564 685.545 Q54.5842 682.712 57.7671 680.866 M70.212 700.823 Q76.6732 700.823 80.3653 698.181 Q84.0256 695.507 84.0256 690.86 Q84.0256 686.213 80.3653 683.54 Q76.6732 680.866 70.212 680.866 Q63.7508 680.866 60.0905 683.54 Q56.3984 686.213 56.3984 690.86 Q56.3984 695.507 60.0905 698.181 Q63.7508 700.823 70.212 700.823 Z" fill="#000000" fill-rule="evenodd" fill-opacity="1" /><path clip-path="url(#clip760)" d="M 0 0 M52.3562 668.867 L52.3562 663.01 L88.0042 663.01 L88.0042 668.867 L52.3562 668.867 M38.479 668.867 L38.479 663.01 L45.895 663.01 L45.895 668.867 L38.479 668.867 Z" fill="#000000" fill-rule="evenodd" fill-opacity="1" /><path clip-path="url(#clip760)" d="M 0 0 M38.479 638.821 L43.3487 638.821 L43.3487 644.422 Q43.3487 647.573 44.6219 648.815 Q45.895 650.024 49.2052 650.024 L52.3562 650.024 L52.3562 640.38 L56.9077 640.38 L56.9077 650.024 L88.0042 650.024 L88.0042 655.912 L56.9077 655.912 L56.9077 661.514 L52.3562 661.514 L52.3562 655.912 L49.8736 655.912 Q43.9216 655.912 41.2162 653.143 Q38.479 650.374 38.479 644.359 L38.479 638.821 Z" fill="#000000" fill-rule="evenodd" fill-opacity="1" /><path clip-path="url(#clip760)" d="M 0 0 M38.479 614.631 L43.3487 614.631 L43.3487 620.233 Q43.3487 623.384 44.6219 624.625 Q45.895 625.835 49.2052 625.835 L52.3562 625.835 L52.3562 616.19 L56.9077 616.19 L56.9077 625.835 L88.0042 625.835 L88.0042 631.723 L56.9077 631.723 L56.9077 637.325 L52.3562 637.325 L52.3562 631.723 L49.8736 631.723 Q43.9216 631.723 41.2162 628.954 Q38.479 626.185 38.479 620.169 L38.479 614.631 Z" fill="#000000" fill-rule="evenodd" fill-opacity="1" /><polyline clip-path="url(#clip762)" style="stroke:#009af9; stroke-width:20; stroke-opacity:1; fill:none" stroke-dasharray="80, 50" points="
  294.761,591.65 960.779,85.838 1626.8,1372.3 2292.81,309.961 
  "/>
<path clip-path="url(#clip760)" d="
M1995.81 213.659 L2282.16 213.659 L2282.16 92.6992 L1995.81 92.6992  Z
  " fill="#ffffff" fill-rule="evenodd" fill-opacity="1"/>
<polyline clip-path="url(#clip760)" style="stroke:#000000; stroke-width:4; stroke-opacity:1; fill:none" points="
  1995.81,213.659 2282.16,213.659 2282.16,92.6992 1995.81,92.6992 1995.81,213.659 
  "/>
<polyline clip-path="url(#clip760)" style="stroke:#009af9; stroke-width:4; stroke-opacity:1; fill:none" stroke-dasharray="16, 10" points="
  2019.35,153.179 2160.54,153.179 
  "/>
<path clip-path="url(#clip760)" d="M 0 0 M2197.92 172.867 Q2196.11 177.496 2194.4 178.908 Q2192.69 180.32 2189.82 180.32 L2186.41 180.32 L2186.41 176.755 L2188.91 176.755 Q2190.67 176.755 2191.64 175.922 Q2192.62 175.089 2193.8 171.987 L2194.56 170.043 L2184.07 144.533 L2188.59 144.533 L2196.69 164.811 L2204.79 144.533 L2209.31 144.533 L2197.92 172.867 Z" fill="#000000" fill-rule="evenodd" fill-opacity="1" /><path clip-path="url(#clip760)" d="M 0 0 M2215.19 166.524 L2222.82 166.524 L2222.82 140.158 L2214.51 141.825 L2214.51 137.566 L2222.78 135.899 L2227.45 135.899 L2227.45 166.524 L2235.09 166.524 L2235.09 170.459 L2215.19 170.459 L2215.19 166.524 Z" fill="#000000" fill-rule="evenodd" fill-opacity="1" /></svg>
