<?xml version="1.0" encoding="utf-8"?>
<svg xmlns="http://www.w3.org/2000/svg" xmlns:xlink="http://www.w3.org/1999/xlink" width="600" height="400" viewBox="0 0 2400 1600">
<defs>
  <clipPath id="clip090">
    <rect x="0" y="0" width="2400" height="1600"/>
  </clipPath>
</defs>
<path clip-path="url(#clip090)" d="
M0 1600 L2400 1600 L2400 0 L0 0  Z
  " fill="#ffffff" fill-rule="evenodd" fill-opacity="1"/>
<defs>
  <clipPath id="clip091">
    <rect x="480" y="0" width="1681" height="1600"/>
  </clipPath>
</defs>
<path clip-path="url(#clip090)" d="
M210.075 1410.9 L2352.76 1410.9 L2352.76 47.2441 L210.075 47.2441  Z
  " fill="#ffffff" fill-rule="evenodd" fill-opacity="1"/>
<defs>
  <clipPath id="clip092">
    <rect x="210" y="47" width="2144" height="1365"/>
  </clipPath>
</defs>
<polyline clip-path="url(#clip092)" style="stroke:#000000; stroke-width:2; stroke-opacity:0.1; fill:none" points="
  270.717,1410.9 270.717,47.2441 
  "/>
<polyline clip-path="url(#clip092)" style="stroke:#000000; stroke-width:2; stroke-opacity:0.1; fill:none" points="
  776.066,1410.9 776.066,47.2441 
  "/>
<polyline clip-path="url(#clip092)" style="stroke:#000000; stroke-width:2; stroke-opacity:0.1; fill:none" points="
  1281.42,1410.9 1281.42,47.2441 
  "/>
<polyline clip-path="url(#clip092)" style="stroke:#000000; stroke-width:2; stroke-opacity:0.1; fill:none" points="
  1786.76,1410.9 1786.76,47.2441 
  "/>
<polyline clip-path="url(#clip092)" style="stroke:#000000; stroke-width:2; stroke-opacity:0.1; fill:none" points="
  2292.11,1410.9 2292.11,47.2441 
  "/>
<polyline clip-path="url(#clip090)" style="stroke:#000000; stroke-width:4; stroke-opacity:1; fill:none" points="
  210.075,1410.9 2352.76,1410.9 
  "/>
<polyline clip-path="url(#clip090)" style="stroke:#000000; stroke-width:4; stroke-opacity:1; fill:none" points="
  270.717,1410.9 270.717,1394.53 
  "/>
<polyline clip-path="url(#clip090)" style="stroke:#000000; stroke-width:4; stroke-opacity:1; fill:none" points="
  776.066,1410.9 776.066,1394.53 
  "/>
<polyline clip-path="url(#clip090)" style="stroke:#000000; stroke-width:4; stroke-opacity:1; fill:none" points="
  1281.42,1410.9 1281.42,1394.53 
  "/>
<polyline clip-path="url(#clip090)" style="stroke:#000000; stroke-width:4; stroke-opacity:1; fill:none" points="
  1786.76,1410.9 1786.76,1394.53 
  "/>
<polyline clip-path="url(#clip090)" style="stroke:#000000; stroke-width:4; stroke-opacity:1; fill:none" points="
  2292.11,1410.9 2292.11,1394.53 
  "/>
<path clip-path="url(#clip090)" d="M 0 0 M198.372 1489.17 L206.011 1489.17 L206.011 1462.8 L197.7 1464.47 L197.7 1460.21 L205.964 1458.54 L210.64 1458.54 L210.64 1489.17 L218.279 1489.17 L218.279 1493.1 L198.372 1493.1 L198.372 1489.17 Z" fill="#000000" fill-rule="evenodd" fill-opacity="1" /><path clip-path="url(#clip090)" d="M 0 0 M233.348 1461.62 Q229.737 1461.62 227.909 1465.19 Q226.103 1468.73 226.103 1475.86 Q226.103 1482.97 227.909 1486.53 Q229.737 1490.07 233.348 1490.07 Q236.983 1490.07 238.788 1486.53 Q240.617 1482.97 240.617 1475.86 Q240.617 1468.73 238.788 1465.19 Q236.983 1461.62 233.348 1461.62 M233.348 1457.92 Q239.159 1457.92 242.214 1462.53 Q245.293 1467.11 245.293 1475.86 Q245.293 1484.59 242.214 1489.19 Q239.159 1493.78 233.348 1493.78 Q227.538 1493.78 224.46 1489.19 Q221.404 1484.59 221.404 1475.86 Q221.404 1467.11 224.46 1462.53 Q227.538 1457.92 233.348 1457.92 Z" fill="#000000" fill-rule="evenodd" fill-opacity="1" /><path clip-path="url(#clip090)" d="M 0 0 M245.293 1452.02 L269.404 1452.02 L269.404 1455.22 L245.293 1455.22 L245.293 1452.02 Z" fill="#000000" fill-rule="evenodd" fill-opacity="1" /><path clip-path="url(#clip090)" d="M 0 0 M283.962 1440.92 L274.37 1455.91 L283.962 1455.91 L283.962 1440.92 M282.965 1437.61 L287.742 1437.61 L287.742 1455.91 L291.748 1455.91 L291.748 1459.07 L287.742 1459.07 L287.742 1465.69 L283.962 1465.69 L283.962 1459.07 L271.285 1459.07 L271.285 1455.41 L282.965 1437.61 Z" fill="#000000" fill-rule="evenodd" fill-opacity="1" /><path clip-path="url(#clip090)" d="M 0 0 M295.867 1460.92 L299.835 1460.92 L299.835 1465.69 L295.867 1465.69 L295.867 1460.92 Z" fill="#000000" fill-rule="evenodd" fill-opacity="1" /><path clip-path="url(#clip090)" d="M 0 0 M312.079 1440.11 Q309.145 1440.11 307.659 1443.01 Q306.192 1445.89 306.192 1451.68 Q306.192 1457.46 307.659 1460.35 Q309.145 1463.23 312.079 1463.23 Q315.032 1463.23 316.499 1460.35 Q317.985 1457.46 317.985 1451.68 Q317.985 1445.89 316.499 1443.01 Q315.032 1440.11 312.079 1440.11 M312.079 1437.11 Q316.8 1437.11 319.283 1440.85 Q321.784 1444.57 321.784 1451.68 Q321.784 1458.77 319.283 1462.51 Q316.8 1466.24 312.079 1466.24 Q307.358 1466.24 304.857 1462.51 Q302.374 1458.77 302.374 1451.68 Q302.374 1444.57 304.857 1440.85 Q307.358 1437.11 312.079 1437.11 Z" fill="#000000" fill-rule="evenodd" fill-opacity="1" /><path clip-path="url(#clip090)" d="M 0 0 M334.028 1440.11 Q331.094 1440.11 329.608 1443.01 Q328.141 1445.89 328.141 1451.68 Q328.141 1457.46 329.608 1460.35 Q331.094 1463.23 334.028 1463.23 Q336.981 1463.23 338.448 1460.35 Q339.934 1457.46 339.934 1451.68 Q339.934 1445.89 338.448 1443.01 Q336.981 1440.11 334.028 1440.11 M334.028 1437.11 Q338.749 1437.11 341.231 1440.85 Q343.733 1444.57 343.733 1451.68 Q343.733 1458.77 341.231 1462.51 Q338.749 1466.24 334.028 1466.24 Q329.307 1466.24 326.806 1462.51 Q324.323 1458.77 324.323 1451.68 Q324.323 1444.57 326.806 1440.85 Q329.307 1437.11 334.028 1437.11 Z" fill="#000000" fill-rule="evenodd" fill-opacity="1" /><path clip-path="url(#clip090)" d="M 0 0 M704.953 1489.17 L712.592 1489.17 L712.592 1462.8 L704.282 1464.47 L704.282 1460.21 L712.546 1458.54 L717.221 1458.54 L717.221 1489.17 L724.86 1489.17 L724.86 1493.1 L704.953 1493.1 L704.953 1489.17 Z" fill="#000000" fill-rule="evenodd" fill-opacity="1" /><path clip-path="url(#clip090)" d="M 0 0 M739.93 1461.62 Q736.319 1461.62 734.49 1465.19 Q732.684 1468.73 732.684 1475.86 Q732.684 1482.97 734.49 1486.53 Q736.319 1490.07 739.93 1490.07 Q743.564 1490.07 745.369 1486.53 Q747.198 1482.97 747.198 1475.86 Q747.198 1468.73 745.369 1465.19 Q743.564 1461.62 739.93 1461.62 M739.93 1457.92 Q745.74 1457.92 748.795 1462.53 Q751.874 1467.11 751.874 1475.86 Q751.874 1484.59 748.795 1489.19 Q745.74 1493.78 739.93 1493.78 Q734.12 1493.78 731.041 1489.19 Q727.985 1484.59 727.985 1475.86 Q727.985 1467.11 731.041 1462.53 Q734.12 1457.92 739.93 1457.92 Z" fill="#000000" fill-rule="evenodd" fill-opacity="1" /><path clip-path="url(#clip090)" d="M 0 0 M751.874 1452.02 L775.986 1452.02 L775.986 1455.22 L751.874 1455.22 L751.874 1452.02 Z" fill="#000000" fill-rule="evenodd" fill-opacity="1" /><path clip-path="url(#clip090)" d="M 0 0 M791.615 1450.55 Q794.342 1451.14 795.865 1452.98 Q797.408 1454.82 797.408 1457.53 Q797.408 1461.69 794.549 1463.96 Q791.69 1466.24 786.424 1466.24 Q784.656 1466.24 782.775 1465.88 Q780.913 1465.54 778.92 1464.85 L778.92 1461.18 Q780.499 1462.1 782.38 1462.57 Q784.261 1463.04 786.311 1463.04 Q789.885 1463.04 791.747 1461.63 Q793.627 1460.22 793.627 1457.53 Q793.627 1455.05 791.878 1453.66 Q790.148 1452.25 787.045 1452.25 L783.772 1452.25 L783.772 1449.12 L787.195 1449.12 Q789.997 1449.12 791.483 1448.01 Q792.969 1446.89 792.969 1444.78 Q792.969 1442.62 791.427 1441.47 Q789.903 1440.3 787.045 1440.3 Q785.484 1440.3 783.697 1440.64 Q781.91 1440.98 779.766 1441.69 L779.766 1438.31 Q781.929 1437.71 783.81 1437.41 Q785.709 1437.11 787.383 1437.11 Q791.709 1437.11 794.229 1439.08 Q796.749 1441.04 796.749 1444.38 Q796.749 1446.72 795.414 1448.33 Q794.079 1449.93 791.615 1450.55 Z" fill="#000000" fill-rule="evenodd" fill-opacity="1" /><path clip-path="url(#clip090)" d="M 0 0 M801.527 1460.92 L805.495 1460.92 L805.495 1465.69 L801.527 1465.69 L801.527 1460.92 Z" fill="#000000" fill-rule="evenodd" fill-opacity="1" /><path clip-path="url(#clip090)" d="M 0 0 M808.655 1437.61 L826.71 1437.61 L826.71 1439.23 L816.516 1465.69 L812.548 1465.69 L822.14 1440.81 L808.655 1440.81 L808.655 1437.61 Z" fill="#000000" fill-rule="evenodd" fill-opacity="1" /><path clip-path="url(#clip090)" d="M 0 0 M830.867 1437.61 L845.781 1437.61 L845.781 1440.81 L834.346 1440.81 L834.346 1447.69 Q835.174 1447.41 836.001 1447.28 Q836.829 1447.13 837.656 1447.13 Q842.358 1447.13 845.104 1449.71 Q847.85 1452.28 847.85 1456.68 Q847.85 1461.22 845.029 1463.74 Q842.208 1466.24 837.073 1466.24 Q835.305 1466.24 833.462 1465.94 Q831.638 1465.64 829.682 1465.04 L829.682 1461.22 Q831.375 1462.14 833.18 1462.59 Q834.986 1463.04 836.998 1463.04 Q840.252 1463.04 842.151 1461.33 Q844.051 1459.62 844.051 1456.68 Q844.051 1453.75 842.151 1452.04 Q840.252 1450.33 836.998 1450.33 Q835.475 1450.33 833.951 1450.67 Q832.447 1451 830.867 1451.72 L830.867 1437.61 Z" fill="#000000" fill-rule="evenodd" fill-opacity="1" /><path clip-path="url(#clip090)" d="M 0 0 M1209.94 1489.17 L1217.57 1489.17 L1217.57 1462.8 L1209.26 1464.47 L1209.26 1460.21 L1217.53 1458.54 L1222.2 1458.54 L1222.2 1489.17 L1229.84 1489.17 L1229.84 1493.1 L1209.94 1493.1 L1209.94 1489.17 Z" fill="#000000" fill-rule="evenodd" fill-opacity="1" /><path clip-path="url(#clip090)" d="M 0 0 M1244.91 1461.62 Q1241.3 1461.62 1239.47 1465.19 Q1237.67 1468.73 1237.67 1475.86 Q1237.67 1482.97 1239.47 1486.53 Q1241.3 1490.07 1244.91 1490.07 Q1248.55 1490.07 1250.35 1486.53 Q1252.18 1482.97 1252.18 1475.86 Q1252.18 1468.73 1250.35 1465.19 Q1248.55 1461.62 1244.91 1461.62 M1244.91 1457.92 Q1250.72 1457.92 1253.78 1462.53 Q1256.86 1467.11 1256.86 1475.86 Q1256.86 1484.59 1253.78 1489.19 Q1250.72 1493.78 1244.91 1493.78 Q1239.1 1493.78 1236.02 1489.19 Q1232.97 1484.59 1232.97 1475.86 Q1232.97 1467.11 1236.02 1462.53 Q1239.1 1457.92 1244.91 1457.92 Z" fill="#000000" fill-rule="evenodd" fill-opacity="1" /><path clip-path="url(#clip090)" d="M 0 0 M1256.86 1452.02 L1280.97 1452.02 L1280.97 1455.22 L1256.86 1455.22 L1256.86 1452.02 Z" fill="#000000" fill-rule="evenodd" fill-opacity="1" /><path clip-path="url(#clip090)" d="M 0 0 M1296.6 1450.55 Q1299.32 1451.14 1300.85 1452.98 Q1302.39 1454.82 1302.39 1457.53 Q1302.39 1461.69 1299.53 1463.96 Q1296.67 1466.24 1291.41 1466.24 Q1289.64 1466.24 1287.76 1465.88 Q1285.9 1465.54 1283.9 1464.85 L1283.9 1461.18 Q1285.48 1462.1 1287.36 1462.57 Q1289.24 1463.04 1291.29 1463.04 Q1294.87 1463.04 1296.73 1461.63 Q1298.61 1460.22 1298.61 1457.53 Q1298.61 1455.05 1296.86 1453.66 Q1295.13 1452.25 1292.03 1452.25 L1288.75 1452.25 L1288.75 1449.12 L1292.18 1449.12 Q1294.98 1449.12 1296.47 1448.01 Q1297.95 1446.89 1297.95 1444.78 Q1297.95 1442.62 1296.41 1441.47 Q1294.89 1440.3 1292.03 1440.3 Q1290.47 1440.3 1288.68 1440.64 Q1286.89 1440.98 1284.75 1441.69 L1284.75 1438.31 Q1286.91 1437.71 1288.79 1437.41 Q1290.69 1437.11 1292.37 1437.11 Q1296.69 1437.11 1299.21 1439.08 Q1301.73 1441.04 1301.73 1444.38 Q1301.73 1446.72 1300.4 1448.33 Q1299.06 1449.93 1296.6 1450.55 Z" fill="#000000" fill-rule="evenodd" fill-opacity="1" /><path clip-path="url(#clip090)" d="M 0 0 M1306.51 1460.92 L1310.48 1460.92 L1310.48 1465.69 L1306.51 1465.69 L1306.51 1460.92 Z" fill="#000000" fill-rule="evenodd" fill-opacity="1" /><path clip-path="url(#clip090)" d="M 0 0 M1314.63 1437.61 L1329.55 1437.61 L1329.55 1440.81 L1318.11 1440.81 L1318.11 1447.69 Q1318.94 1447.41 1319.77 1447.28 Q1320.6 1447.13 1321.42 1447.13 Q1326.13 1447.13 1328.87 1449.71 Q1331.62 1452.28 1331.62 1456.68 Q1331.62 1461.22 1328.8 1463.74 Q1325.98 1466.24 1320.84 1466.24 Q1319.07 1466.24 1317.23 1465.94 Q1315.41 1465.64 1313.45 1465.04 L1313.45 1461.22 Q1315.14 1462.14 1316.95 1462.59 Q1318.75 1463.04 1320.77 1463.04 Q1324.02 1463.04 1325.92 1461.33 Q1327.82 1459.62 1327.82 1456.68 Q1327.82 1453.75 1325.92 1452.04 Q1324.02 1450.33 1320.77 1450.33 Q1319.24 1450.33 1317.72 1450.67 Q1316.21 1451 1314.63 1451.72 L1314.63 1437.61 Z" fill="#000000" fill-rule="evenodd" fill-opacity="1" /><path clip-path="url(#clip090)" d="M 0 0 M1343.86 1440.11 Q1340.93 1440.11 1339.44 1443.01 Q1337.97 1445.89 1337.97 1451.68 Q1337.97 1457.46 1339.44 1460.35 Q1340.93 1463.23 1343.86 1463.23 Q1346.81 1463.23 1348.28 1460.35 Q1349.77 1457.46 1349.77 1451.68 Q1349.77 1445.89 1348.28 1443.01 Q1346.81 1440.11 1343.86 1440.11 M1343.86 1437.11 Q1348.58 1437.11 1351.06 1440.85 Q1353.57 1444.57 1353.57 1451.68 Q1353.57 1458.77 1351.06 1462.51 Q1348.58 1466.24 1343.86 1466.24 Q1339.14 1466.24 1336.64 1462.51 Q1334.16 1458.77 1334.16 1451.68 Q1334.16 1444.57 1336.64 1440.85 Q1339.14 1437.11 1343.86 1437.11 Z" fill="#000000" fill-rule="evenodd" fill-opacity="1" /><path clip-path="url(#clip090)" d="M 0 0 M1715.93 1489.17 L1723.57 1489.17 L1723.57 1462.8 L1715.26 1464.47 L1715.26 1460.21 L1723.53 1458.54 L1728.2 1458.54 L1728.2 1489.17 L1735.84 1489.17 L1735.84 1493.1 L1715.93 1493.1 L1715.93 1489.17 Z" fill="#000000" fill-rule="evenodd" fill-opacity="1" /><path clip-path="url(#clip090)" d="M 0 0 M1750.91 1461.62 Q1747.3 1461.62 1745.47 1465.19 Q1743.67 1468.73 1743.67 1475.86 Q1743.67 1482.97 1745.47 1486.53 Q1747.3 1490.07 1750.91 1490.07 Q1754.54 1490.07 1756.35 1486.53 Q1758.18 1482.97 1758.18 1475.86 Q1758.18 1468.73 1756.35 1465.19 Q1754.54 1461.62 1750.91 1461.62 M1750.91 1457.92 Q1756.72 1457.92 1759.78 1462.53 Q1762.85 1467.11 1762.85 1475.86 Q1762.85 1484.59 1759.78 1489.19 Q1756.72 1493.78 1750.91 1493.78 Q1745.1 1493.78 1742.02 1489.19 Q1738.97 1484.59 1738.97 1475.86 Q1738.97 1467.11 1742.02 1462.53 Q1745.1 1457.92 1750.91 1457.92 Z" fill="#000000" fill-rule="evenodd" fill-opacity="1" /><path clip-path="url(#clip090)" d="M 0 0 M1762.85 1452.02 L1786.97 1452.02 L1786.97 1455.22 L1762.85 1455.22 L1762.85 1452.02 Z" fill="#000000" fill-rule="evenodd" fill-opacity="1" /><path clip-path="url(#clip090)" d="M 0 0 M1802.6 1450.55 Q1805.32 1451.14 1806.85 1452.98 Q1808.39 1454.82 1808.39 1457.53 Q1808.39 1461.69 1805.53 1463.96 Q1802.67 1466.24 1797.4 1466.24 Q1795.64 1466.24 1793.76 1465.88 Q1791.89 1465.54 1789.9 1464.85 L1789.9 1461.18 Q1791.48 1462.1 1793.36 1462.57 Q1795.24 1463.04 1797.29 1463.04 Q1800.87 1463.04 1802.73 1461.63 Q1804.61 1460.22 1804.61 1457.53 Q1804.61 1455.05 1802.86 1453.66 Q1801.13 1452.25 1798.03 1452.25 L1794.75 1452.25 L1794.75 1449.12 L1798.18 1449.12 Q1800.98 1449.12 1802.46 1448.01 Q1803.95 1446.89 1803.95 1444.78 Q1803.95 1442.62 1802.41 1441.47 Q1800.88 1440.3 1798.03 1440.3 Q1796.46 1440.3 1794.68 1440.64 Q1792.89 1440.98 1790.75 1441.69 L1790.75 1438.31 Q1792.91 1437.71 1794.79 1437.41 Q1796.69 1437.11 1798.36 1437.11 Q1802.69 1437.11 1805.21 1439.08 Q1807.73 1441.04 1807.73 1444.38 Q1807.73 1446.72 1806.39 1448.33 Q1805.06 1449.93 1802.6 1450.55 Z" fill="#000000" fill-rule="evenodd" fill-opacity="1" /><path clip-path="url(#clip090)" d="M 0 0 M1812.51 1460.92 L1816.48 1460.92 L1816.48 1465.69 L1812.51 1465.69 L1812.51 1460.92 Z" fill="#000000" fill-rule="evenodd" fill-opacity="1" /><path clip-path="url(#clip090)" d="M 0 0 M1823.87 1462.5 L1837.13 1462.5 L1837.13 1465.69 L1819.3 1465.69 L1819.3 1462.5 Q1821.46 1460.26 1825.18 1456.5 Q1828.93 1452.72 1829.89 1451.63 Q1831.71 1449.58 1832.42 1448.16 Q1833.16 1446.74 1833.16 1445.36 Q1833.16 1443.12 1831.58 1441.71 Q1830.02 1440.3 1827.5 1440.3 Q1825.71 1440.3 1823.72 1440.92 Q1821.74 1441.54 1819.49 1442.8 L1819.49 1438.97 Q1821.78 1438.05 1823.77 1437.58 Q1825.77 1437.11 1827.42 1437.11 Q1831.79 1437.11 1834.38 1439.29 Q1836.98 1441.47 1836.98 1445.12 Q1836.98 1446.85 1836.32 1448.41 Q1835.68 1449.95 1833.97 1452.06 Q1833.5 1452.6 1830.98 1455.22 Q1828.46 1457.81 1823.87 1462.5 Z" fill="#000000" fill-rule="evenodd" fill-opacity="1" /><path clip-path="url(#clip090)" d="M 0 0 M1841.28 1437.61 L1856.2 1437.61 L1856.2 1440.81 L1844.76 1440.81 L1844.76 1447.69 Q1845.59 1447.41 1846.42 1447.28 Q1847.25 1447.13 1848.07 1447.13 Q1852.77 1447.13 1855.52 1449.71 Q1858.27 1452.28 1858.27 1456.68 Q1858.27 1461.22 1855.45 1463.74 Q1852.62 1466.24 1847.49 1466.24 Q1845.72 1466.24 1843.88 1465.94 Q1842.05 1465.64 1840.1 1465.04 L1840.1 1461.22 Q1841.79 1462.14 1843.6 1462.59 Q1845.4 1463.04 1847.41 1463.04 Q1850.67 1463.04 1852.57 1461.33 Q1854.47 1459.62 1854.47 1456.68 Q1854.47 1453.75 1852.57 1452.04 Q1850.67 1450.33 1847.41 1450.33 Q1845.89 1450.33 1844.37 1450.67 Q1842.86 1451 1841.28 1451.72 L1841.28 1437.61 Z" fill="#000000" fill-rule="evenodd" fill-opacity="1" /><path clip-path="url(#clip090)" d="M 0 0 M2220.23 1489.17 L2227.87 1489.17 L2227.87 1462.8 L2219.56 1464.47 L2219.56 1460.21 L2227.82 1458.54 L2232.5 1458.54 L2232.5 1489.17 L2240.14 1489.17 L2240.14 1493.1 L2220.23 1493.1 L2220.23 1489.17 Z" fill="#000000" fill-rule="evenodd" fill-opacity="1" /><path clip-path="url(#clip090)" d="M 0 0 M2255.21 1461.62 Q2251.6 1461.62 2249.77 1465.19 Q2247.96 1468.73 2247.96 1475.86 Q2247.96 1482.97 2249.77 1486.53 Q2251.6 1490.07 2255.21 1490.07 Q2258.84 1490.07 2260.65 1486.53 Q2262.48 1482.97 2262.48 1475.86 Q2262.48 1468.73 2260.65 1465.19 Q2258.84 1461.62 2255.21 1461.62 M2255.21 1457.92 Q2261.02 1457.92 2264.07 1462.53 Q2267.15 1467.11 2267.15 1475.86 Q2267.15 1484.59 2264.07 1489.19 Q2261.02 1493.78 2255.21 1493.78 Q2249.4 1493.78 2246.32 1489.19 Q2243.26 1484.59 2243.26 1475.86 Q2243.26 1467.11 2246.32 1462.53 Q2249.4 1457.92 2255.21 1457.92 Z" fill="#000000" fill-rule="evenodd" fill-opacity="1" /><path clip-path="url(#clip090)" d="M 0 0 M2267.15 1452.02 L2291.26 1452.02 L2291.26 1455.22 L2267.15 1455.22 L2267.15 1452.02 Z" fill="#000000" fill-rule="evenodd" fill-opacity="1" /><path clip-path="url(#clip090)" d="M 0 0 M2306.89 1450.55 Q2309.62 1451.14 2311.14 1452.98 Q2312.68 1454.82 2312.68 1457.53 Q2312.68 1461.69 2309.83 1463.96 Q2306.97 1466.24 2301.7 1466.24 Q2299.93 1466.24 2298.05 1465.88 Q2296.19 1465.54 2294.2 1464.85 L2294.2 1461.18 Q2295.78 1462.1 2297.66 1462.57 Q2299.54 1463.04 2301.59 1463.04 Q2305.16 1463.04 2307.02 1461.63 Q2308.9 1460.22 2308.9 1457.53 Q2308.9 1455.05 2307.16 1453.66 Q2305.42 1452.25 2302.32 1452.25 L2299.05 1452.25 L2299.05 1449.12 L2302.47 1449.12 Q2305.27 1449.12 2306.76 1448.01 Q2308.25 1446.89 2308.25 1444.78 Q2308.25 1442.62 2306.7 1441.47 Q2305.18 1440.3 2302.32 1440.3 Q2300.76 1440.3 2298.97 1440.64 Q2297.19 1440.98 2295.04 1441.69 L2295.04 1438.31 Q2297.21 1437.71 2299.09 1437.41 Q2300.99 1437.11 2302.66 1437.11 Q2306.99 1437.11 2309.51 1439.08 Q2312.03 1441.04 2312.03 1444.38 Q2312.03 1446.72 2310.69 1448.33 Q2309.36 1449.93 2306.89 1450.55 Z" fill="#000000" fill-rule="evenodd" fill-opacity="1" /><path clip-path="url(#clip090)" d="M 0 0 M2316.8 1460.92 L2320.77 1460.92 L2320.77 1465.69 L2316.8 1465.69 L2316.8 1460.92 Z" fill="#000000" fill-rule="evenodd" fill-opacity="1" /><path clip-path="url(#clip090)" d="M 0 0 M2333.02 1440.11 Q2330.08 1440.11 2328.6 1443.01 Q2327.13 1445.89 2327.13 1451.68 Q2327.13 1457.46 2328.6 1460.35 Q2330.08 1463.23 2333.02 1463.23 Q2335.97 1463.23 2337.44 1460.35 Q2338.92 1457.46 2338.92 1451.68 Q2338.92 1445.89 2337.44 1443.01 Q2335.97 1440.11 2333.02 1440.11 M2333.02 1437.11 Q2337.74 1437.11 2340.22 1440.85 Q2342.72 1444.57 2342.72 1451.68 Q2342.72 1458.77 2340.22 1462.51 Q2337.74 1466.24 2333.02 1466.24 Q2328.3 1466.24 2325.79 1462.51 Q2323.31 1458.77 2323.31 1451.68 Q2323.31 1444.57 2325.79 1440.85 Q2328.3 1437.11 2333.02 1437.11 Z" fill="#000000" fill-rule="evenodd" fill-opacity="1" /><path clip-path="url(#clip090)" d="M 0 0 M2354.96 1440.11 Q2352.03 1440.11 2350.54 1443.01 Q2349.08 1445.89 2349.08 1451.68 Q2349.08 1457.46 2350.54 1460.35 Q2352.03 1463.23 2354.96 1463.23 Q2357.92 1463.23 2359.38 1460.35 Q2360.87 1457.46 2360.87 1451.68 Q2360.87 1445.89 2359.38 1443.01 Q2357.92 1440.11 2354.96 1440.11 M2354.96 1437.11 Q2359.69 1437.11 2362.17 1440.85 Q2364.67 1444.57 2364.67 1451.68 Q2364.67 1458.77 2362.17 1462.51 Q2359.69 1466.24 2354.96 1466.24 Q2350.24 1466.24 2347.74 1462.51 Q2345.26 1458.77 2345.26 1451.68 Q2345.26 1444.57 2347.74 1440.85 Q2350.24 1437.11 2354.96 1437.11 Z" fill="#000000" fill-rule="evenodd" fill-opacity="1" /><path clip-path="url(#clip090)" d="M 0 0 M1173.69 1526.54 L1179.9 1526.54 L1191.04 1556.46 L1202.18 1526.54 L1208.38 1526.54 L1195.02 1562.19 L1187.06 1562.19 L1173.69 1526.54 Z" fill="#000000" fill-rule="evenodd" fill-opacity="1" /><path clip-path="url(#clip090)" d="M 0 0 M1241.61 1573.01 L1241.61 1577.56 L1207.75 1577.56 L1207.75 1573.01 L1241.61 1573.01 Z" fill="#000000" fill-rule="evenodd" fill-opacity="1" /><path clip-path="url(#clip090)" d="M 0 0 M1273.41 1527.91 L1273.41 1533.38 Q1270.93 1532.01 1268.41 1531.34 Q1265.93 1530.64 1263.38 1530.64 Q1257.69 1530.64 1254.54 1534.27 Q1251.39 1537.87 1251.39 1544.39 Q1251.39 1550.92 1254.54 1554.55 Q1257.69 1558.14 1263.38 1558.14 Q1265.93 1558.14 1268.41 1557.47 Q1270.93 1556.77 1273.41 1555.41 L1273.41 1560.82 Q1270.96 1561.96 1268.32 1562.54 Q1265.71 1563.11 1262.75 1563.11 Q1254.7 1563.11 1249.95 1558.05 Q1245.21 1552.99 1245.21 1544.39 Q1245.21 1535.67 1249.98 1530.68 Q1254.79 1525.68 1263.13 1525.68 Q1265.84 1525.68 1268.41 1526.25 Q1270.99 1526.79 1273.41 1527.91 Z" fill="#000000" fill-rule="evenodd" fill-opacity="1" /><path clip-path="url(#clip090)" d="M 0 0 M1279.55 1512.66 L1285.41 1512.66 L1285.41 1562.19 L1279.55 1562.19 L1279.55 1512.66 Z" fill="#000000" fill-rule="evenodd" fill-opacity="1" /><path clip-path="url(#clip090)" d="M 0 0 M1305.37 1530.64 Q1300.66 1530.64 1297.92 1534.34 Q1295.18 1538 1295.18 1544.39 Q1295.18 1550.79 1297.89 1554.48 Q1300.62 1558.14 1305.37 1558.14 Q1310.05 1558.14 1312.78 1554.45 Q1315.52 1550.76 1315.52 1544.39 Q1315.52 1538.06 1312.78 1534.37 Q1310.05 1530.64 1305.37 1530.64 M1305.37 1525.68 Q1313.01 1525.68 1317.37 1530.64 Q1321.73 1535.61 1321.73 1544.39 Q1321.73 1553.15 1317.37 1558.14 Q1313.01 1563.11 1305.37 1563.11 Q1297.7 1563.11 1293.34 1558.14 Q1289.01 1553.15 1289.01 1544.39 Q1289.01 1535.61 1293.34 1530.64 Q1297.7 1525.68 1305.37 1525.68 Z" fill="#000000" fill-rule="evenodd" fill-opacity="1" /><path clip-path="url(#clip090)" d="M 0 0 M1350.59 1527.59 L1350.59 1533.13 Q1348.11 1531.85 1345.44 1531.22 Q1342.76 1530.58 1339.9 1530.58 Q1335.54 1530.58 1333.34 1531.92 Q1331.18 1533.25 1331.18 1535.93 Q1331.18 1537.96 1332.74 1539.14 Q1334.3 1540.29 1339.01 1541.34 L1341.01 1541.78 Q1347.25 1543.12 1349.86 1545.57 Q1352.5 1547.99 1352.5 1552.35 Q1352.5 1557.32 1348.56 1560.21 Q1344.64 1563.11 1337.77 1563.11 Q1334.9 1563.11 1331.78 1562.54 Q1328.7 1561.99 1325.26 1560.88 L1325.26 1554.83 Q1328.51 1556.52 1331.66 1557.38 Q1334.81 1558.21 1337.9 1558.21 Q1342.03 1558.21 1344.26 1556.81 Q1346.49 1555.37 1346.49 1552.8 Q1346.49 1550.41 1344.87 1549.14 Q1343.27 1547.86 1337.83 1546.68 L1335.79 1546.21 Q1330.35 1545.06 1327.93 1542.71 Q1325.51 1540.32 1325.51 1536.18 Q1325.51 1531.15 1329.08 1528.42 Q1332.64 1525.68 1339.2 1525.68 Q1342.45 1525.68 1345.31 1526.16 Q1348.18 1526.63 1350.59 1527.59 Z" fill="#000000" fill-rule="evenodd" fill-opacity="1" /><path clip-path="url(#clip090)" d="M 0 0 M1389.14 1542.9 L1389.14 1545.76 L1362.21 1545.76 Q1362.59 1551.81 1365.84 1554.99 Q1369.12 1558.14 1374.94 1558.14 Q1378.32 1558.14 1381.47 1557.32 Q1384.65 1556.49 1387.77 1554.83 L1387.77 1560.37 Q1384.62 1561.71 1381.31 1562.41 Q1378 1563.11 1374.59 1563.11 Q1366.06 1563.11 1361.07 1558.14 Q1356.1 1553.18 1356.1 1544.71 Q1356.1 1535.96 1360.81 1530.83 Q1365.55 1525.68 1373.57 1525.68 Q1380.77 1525.68 1384.94 1530.33 Q1389.14 1534.94 1389.14 1542.9 M1383.28 1541.18 Q1383.22 1536.37 1380.58 1533.51 Q1377.97 1530.64 1373.64 1530.64 Q1368.74 1530.64 1365.78 1533.41 Q1362.85 1536.18 1362.4 1541.21 L1383.28 1541.18 Z" fill="#000000" fill-rule="evenodd" fill-opacity="1" /><polyline clip-path="url(#clip092)" style="stroke:#000000; stroke-width:2; stroke-opacity:0.1; fill:none" points="
  210.075,1167.34 2352.76,1167.34 
  "/>
<polyline clip-path="url(#clip092)" style="stroke:#000000; stroke-width:2; stroke-opacity:0.1; fill:none" points="
  210.075,908.953 2352.76,908.953 
  "/>
<polyline clip-path="url(#clip092)" style="stroke:#000000; stroke-width:2; stroke-opacity:0.1; fill:none" points="
  210.075,650.568 2352.76,650.568 
  "/>
<polyline clip-path="url(#clip092)" style="stroke:#000000; stroke-width:2; stroke-opacity:0.1; fill:none" points="
  210.075,392.183 2352.76,392.183 
  "/>
<polyline clip-path="url(#clip092)" style="stroke:#000000; stroke-width:2; stroke-opacity:0.1; fill:none" points="
  210.075,133.799 2352.76,133.799 
  "/>
<polyline clip-path="url(#clip090)" style="stroke:#000000; stroke-width:4; stroke-opacity:1; fill:none" points="
  210.075,1410.9 210.075,47.2441 
  "/>
<polyline clip-path="url(#clip090)" style="stroke:#000000; stroke-width:4; stroke-opacity:1; fill:none" points="
  210.075,1167.34 235.787,1167.34 
  "/>
<polyline clip-path="url(#clip090)" style="stroke:#000000; stroke-width:4; stroke-opacity:1; fill:none" points="
  210.075,908.953 235.787,908.953 
  "/>
<polyline clip-path="url(#clip090)" style="stroke:#000000; stroke-width:4; stroke-opacity:1; fill:none" points="
  210.075,650.568 235.787,650.568 
  "/>
<polyline clip-path="url(#clip090)" style="stroke:#000000; stroke-width:4; stroke-opacity:1; fill:none" points="
  210.075,392.183 235.787,392.183 
  "/>
<polyline clip-path="url(#clip090)" style="stroke:#000000; stroke-width:4; stroke-opacity:1; fill:none" points="
  210.075,133.799 235.787,133.799 
  "/>
<path clip-path="url(#clip090)" d="M 0 0 M116.853 1150.06 L135.209 1150.06 L135.209 1153.99 L121.135 1153.99 L121.135 1162.47 Q122.154 1162.12 123.172 1161.96 Q124.191 1161.77 125.209 1161.77 Q130.996 1161.77 134.376 1164.94 Q137.755 1168.11 137.755 1173.53 Q137.755 1179.11 134.283 1182.21 Q130.811 1185.29 124.492 1185.29 Q122.316 1185.29 120.047 1184.92 Q117.802 1184.55 115.394 1183.81 L115.394 1179.11 Q117.478 1180.24 119.7 1180.8 Q121.922 1181.35 124.399 1181.35 Q128.404 1181.35 130.742 1179.25 Q133.08 1177.14 133.08 1173.53 Q133.08 1169.92 130.742 1167.81 Q128.404 1165.71 124.399 1165.71 Q122.524 1165.71 120.649 1166.12 Q118.797 1166.54 116.853 1167.42 L116.853 1150.06 Z" fill="#000000" fill-rule="evenodd" fill-opacity="1" /><path clip-path="url(#clip090)" d="M 0 0 M142.825 1178.74 L147.709 1178.74 L147.709 1184.62 L142.825 1184.62 L142.825 1178.74 Z" fill="#000000" fill-rule="evenodd" fill-opacity="1" /><path clip-path="url(#clip090)" d="M 0 0 M166.945 1165.98 Q170.302 1166.7 172.177 1168.97 Q174.075 1171.24 174.075 1174.57 Q174.075 1179.69 170.556 1182.49 Q167.038 1185.29 160.556 1185.29 Q158.38 1185.29 156.065 1184.85 Q153.774 1184.43 151.32 1183.58 L151.32 1179.06 Q153.265 1180.2 155.579 1180.78 Q157.894 1181.35 160.417 1181.35 Q164.815 1181.35 167.107 1179.62 Q169.422 1177.88 169.422 1174.57 Q169.422 1171.52 167.269 1169.8 Q165.14 1168.07 161.32 1168.07 L157.292 1168.07 L157.292 1164.22 L161.505 1164.22 Q164.954 1164.22 166.783 1162.86 Q168.612 1161.47 168.612 1158.88 Q168.612 1156.22 166.714 1154.8 Q164.839 1153.37 161.32 1153.37 Q159.399 1153.37 157.2 1153.78 Q155.001 1154.2 152.362 1155.08 L152.362 1150.91 Q155.024 1150.17 157.339 1149.8 Q159.677 1149.43 161.737 1149.43 Q167.061 1149.43 170.163 1151.86 Q173.264 1154.27 173.264 1158.39 Q173.264 1161.26 171.621 1163.25 Q169.977 1165.22 166.945 1165.98 Z" fill="#000000" fill-rule="evenodd" fill-opacity="1" /><path clip-path="url(#clip090)" d="M 0 0 M115.718 891.673 L134.075 891.673 L134.075 895.608 L120.001 895.608 L120.001 904.08 Q121.019 903.733 122.038 903.571 Q123.056 903.386 124.075 903.386 Q129.862 903.386 133.242 906.557 Q136.621 909.728 136.621 915.145 Q136.621 920.724 133.149 923.826 Q129.677 926.904 123.357 926.904 Q121.181 926.904 118.913 926.534 Q116.668 926.163 114.26 925.423 L114.26 920.724 Q116.343 921.858 118.566 922.413 Q120.788 922.969 123.265 922.969 Q127.269 922.969 129.607 920.863 Q131.945 918.756 131.945 915.145 Q131.945 911.534 129.607 909.427 Q127.269 907.321 123.265 907.321 Q121.39 907.321 119.515 907.738 Q117.663 908.154 115.718 909.034 L115.718 891.673 Z" fill="#000000" fill-rule="evenodd" fill-opacity="1" /><path clip-path="url(#clip090)" d="M 0 0 M141.691 920.353 L146.575 920.353 L146.575 926.233 L141.691 926.233 L141.691 920.353 Z" fill="#000000" fill-rule="evenodd" fill-opacity="1" /><path clip-path="url(#clip090)" d="M 0 0 M164.491 895.747 L152.686 914.196 L164.491 914.196 L164.491 895.747 M163.265 891.673 L169.144 891.673 L169.144 914.196 L174.075 914.196 L174.075 918.085 L169.144 918.085 L169.144 926.233 L164.491 926.233 L164.491 918.085 L148.89 918.085 L148.89 913.571 L163.265 891.673 Z" fill="#000000" fill-rule="evenodd" fill-opacity="1" /><path clip-path="url(#clip090)" d="M 0 0 M117.2 633.288 L135.556 633.288 L135.556 637.223 L121.482 637.223 L121.482 645.695 Q122.501 645.348 123.519 645.186 Q124.538 645.001 125.556 645.001 Q131.343 645.001 134.723 648.172 Q138.103 651.344 138.103 656.76 Q138.103 662.339 134.63 665.441 Q131.158 668.519 124.839 668.519 Q122.663 668.519 120.394 668.149 Q118.149 667.779 115.742 667.038 L115.742 662.339 Q117.825 663.473 120.047 664.029 Q122.269 664.584 124.746 664.584 Q128.751 664.584 131.089 662.478 Q133.427 660.371 133.427 656.76 Q133.427 653.149 131.089 651.043 Q128.751 648.936 124.746 648.936 Q122.871 648.936 120.996 649.353 Q119.144 649.77 117.2 650.649 L117.2 633.288 Z" fill="#000000" fill-rule="evenodd" fill-opacity="1" /><path clip-path="url(#clip090)" d="M 0 0 M143.172 661.969 L148.056 661.969 L148.056 667.848 L143.172 667.848 L143.172 661.969 Z" fill="#000000" fill-rule="evenodd" fill-opacity="1" /><path clip-path="url(#clip090)" d="M 0 0 M153.172 633.288 L171.528 633.288 L171.528 637.223 L157.454 637.223 L157.454 645.695 Q158.473 645.348 159.491 645.186 Q160.51 645.001 161.528 645.001 Q167.315 645.001 170.695 648.172 Q174.075 651.344 174.075 656.76 Q174.075 662.339 170.602 665.441 Q167.13 668.519 160.811 668.519 Q158.635 668.519 156.366 668.149 Q154.121 667.779 151.714 667.038 L151.714 662.339 Q153.797 663.473 156.019 664.029 Q158.241 664.584 160.718 664.584 Q164.723 664.584 167.061 662.478 Q169.399 660.371 169.399 656.76 Q169.399 653.149 167.061 651.043 Q164.723 648.936 160.718 648.936 Q158.843 648.936 156.968 649.353 Q155.116 649.77 153.172 650.649 L153.172 633.288 Z" fill="#000000" fill-rule="evenodd" fill-opacity="1" /><path clip-path="url(#clip090)" d="M 0 0 M116.043 374.903 L134.399 374.903 L134.399 378.838 L120.325 378.838 L120.325 387.311 Q121.343 386.963 122.362 386.801 Q123.38 386.616 124.399 386.616 Q130.186 386.616 133.566 389.787 Q136.945 392.959 136.945 398.375 Q136.945 403.954 133.473 407.056 Q130.001 410.135 123.681 410.135 Q121.505 410.135 119.237 409.764 Q116.992 409.394 114.584 408.653 L114.584 403.954 Q116.668 405.088 118.89 405.644 Q121.112 406.199 123.589 406.199 Q127.593 406.199 129.931 404.093 Q132.269 401.987 132.269 398.375 Q132.269 394.764 129.931 392.658 Q127.593 390.551 123.589 390.551 Q121.714 390.551 119.839 390.968 Q117.987 391.385 116.043 392.264 L116.043 374.903 Z" fill="#000000" fill-rule="evenodd" fill-opacity="1" /><path clip-path="url(#clip090)" d="M 0 0 M142.015 403.584 L146.899 403.584 L146.899 409.463 L142.015 409.463 L142.015 403.584 Z" fill="#000000" fill-rule="evenodd" fill-opacity="1" /><path clip-path="url(#clip090)" d="M 0 0 M162.547 390.32 Q159.399 390.32 157.547 392.473 Q155.718 394.625 155.718 398.375 Q155.718 402.102 157.547 404.278 Q159.399 406.431 162.547 406.431 Q165.695 406.431 167.524 404.278 Q169.376 402.102 169.376 398.375 Q169.376 394.625 167.524 392.473 Q165.695 390.32 162.547 390.32 M171.829 375.667 L171.829 379.926 Q170.07 379.093 168.264 378.653 Q166.482 378.213 164.723 378.213 Q160.093 378.213 157.64 381.338 Q155.209 384.463 154.862 390.783 Q156.228 388.769 158.288 387.704 Q160.348 386.616 162.825 386.616 Q168.033 386.616 171.042 389.787 Q174.075 392.936 174.075 398.375 Q174.075 403.699 170.927 406.917 Q167.778 410.135 162.547 410.135 Q156.552 410.135 153.38 405.551 Q150.209 400.945 150.209 392.218 Q150.209 384.024 154.098 379.163 Q157.987 374.278 164.538 374.278 Q166.297 374.278 168.079 374.626 Q169.885 374.973 171.829 375.667 Z" fill="#000000" fill-rule="evenodd" fill-opacity="1" /><path clip-path="url(#clip090)" d="M 0 0 M117.107 116.519 L135.464 116.519 L135.464 120.454 L121.39 120.454 L121.39 128.926 Q122.408 128.579 123.427 128.417 Q124.445 128.231 125.464 128.231 Q131.251 128.231 134.63 131.403 Q138.01 134.574 138.01 139.991 Q138.01 145.569 134.538 148.671 Q131.066 151.75 124.746 151.75 Q122.57 151.75 120.302 151.379 Q118.056 151.009 115.649 150.268 L115.649 145.569 Q117.732 146.704 119.955 147.259 Q122.177 147.815 124.654 147.815 Q128.658 147.815 130.996 145.708 Q133.334 143.602 133.334 139.991 Q133.334 136.38 130.996 134.273 Q128.658 132.167 124.654 132.167 Q122.779 132.167 120.904 132.583 Q119.052 133 117.107 133.88 L117.107 116.519 Z" fill="#000000" fill-rule="evenodd" fill-opacity="1" /><path clip-path="url(#clip090)" d="M 0 0 M143.079 145.199 L147.964 145.199 L147.964 151.079 L143.079 151.079 L143.079 145.199 Z" fill="#000000" fill-rule="evenodd" fill-opacity="1" /><path clip-path="url(#clip090)" d="M 0 0 M151.853 116.519 L174.075 116.519 L174.075 118.509 L161.528 151.079 L156.644 151.079 L168.45 120.454 L151.853 120.454 L151.853 116.519 Z" fill="#000000" fill-rule="evenodd" fill-opacity="1" /><path clip-path="url(#clip090)" d="M 0 0 M59.1993 815.533 Q55.2526 813.336 53.3747 810.281 Q51.4968 807.225 51.4968 803.088 Q51.4968 797.518 55.4117 794.494 Q59.2948 791.47 66.4881 791.47 L88.0042 791.47 L88.0042 797.358 L66.679 797.358 Q61.5546 797.358 59.072 799.173 Q56.5894 800.987 56.5894 804.711 Q56.5894 809.262 59.6131 811.904 Q62.6368 814.546 67.8567 814.546 L88.0042 814.546 L88.0042 820.434 L66.679 820.434 Q61.5228 820.434 59.072 822.248 Q56.5894 824.063 56.5894 827.85 Q56.5894 832.338 59.6449 834.98 Q62.6686 837.622 67.8567 837.622 L88.0042 837.622 L88.0042 843.51 L52.3562 843.51 L52.3562 837.622 L57.8944 837.622 Q54.616 835.616 53.0564 832.815 Q51.4968 830.015 51.4968 826.163 Q51.4968 822.28 53.4702 819.575 Q55.4436 816.838 59.1993 815.533 Z" fill="#000000" fill-rule="evenodd" fill-opacity="1" /><path clip-path="url(#clip090)" d="M 0 0 M52.3562 785.327 L52.3562 779.471 L88.0042 779.471 L88.0042 785.327 L52.3562 785.327 M38.479 785.327 L38.479 779.471 L45.895 779.471 L45.895 785.327 L38.479 785.327 Z" fill="#000000" fill-rule="evenodd" fill-opacity="1" /><path clip-path="url(#clip090)" d="M 0 0 M66.4881 743.696 L88.0042 743.696 L88.0042 749.552 L66.679 749.552 Q61.6183 749.552 59.1038 751.525 Q56.5894 753.499 56.5894 757.446 Q56.5894 762.188 59.6131 764.925 Q62.6368 767.662 67.8567 767.662 L88.0042 767.662 L88.0042 773.551 L52.3562 773.551 L52.3562 767.662 L57.8944 767.662 Q54.6797 765.562 53.0883 762.729 Q51.4968 759.864 51.4968 756.141 Q51.4968 749.998 55.3163 746.847 Q59.1038 743.696 66.4881 743.696 Z" fill="#000000" fill-rule="evenodd" fill-opacity="1" /><path clip-path="url(#clip090)" d="M 0 0 M98.8259 710.467 L103.377 710.467 L103.377 744.332 L98.8259 744.332 L98.8259 710.467 Z" fill="#000000" fill-rule="evenodd" fill-opacity="1" /><path clip-path="url(#clip090)" d="M 0 0 M57.7671 680.866 L38.479 680.866 L38.479 675.01 L88.0042 675.01 L88.0042 680.866 L82.657 680.866 Q85.8398 682.712 87.3994 685.545 Q88.9272 688.346 88.9272 692.292 Q88.9272 698.754 83.771 702.828 Q78.6147 706.87 70.212 706.87 Q61.8093 706.87 56.6531 702.828 Q51.4968 698.754 51.4968 692.292 Q51.4968 688.346 53.0564 685.545 Q54.5842 682.712 57.7671 680.866 M70.212 700.823 Q76.6732 700.823 80.3653 698.181 Q84.0256 695.507 84.0256 690.86 Q84.0256 686.213 80.3653 683.54 Q76.6732 680.866 70.212 680.866 Q63.7508 680.866 60.0905 683.54 Q56.3984 686.213 56.3984 690.86 Q56.3984 695.507 60.0905 698.181 Q63.7508 700.823 70.212 700.823 Z" fill="#000000" fill-rule="evenodd" fill-opacity="1" /><path clip-path="url(#clip090)" d="M 0 0 M52.3562 668.867 L52.3562 663.01 L88.0042 663.01 L88.0042 668.867 L52.3562 668.867 M38.479 668.867 L38.479 663.01 L45.895 663.01 L45.895 668.867 L38.479 668.867 Z" fill="#000000" fill-rule="evenodd" fill-opacity="1" /><path clip-path="url(#clip090)" d="M 0 0 M38.479 638.821 L43.3487 638.821 L43.3487 644.422 Q43.3487 647.573 44.6219 648.815 Q45.895 650.024 49.2052 650.024 L52.3562 650.024 L52.3562 640.38 L56.9077 640.38 L56.9077 650.024 L88.0042 650.024 L88.0042 655.912 L56.9077 655.912 L56.9077 661.514 L52.3562 661.514 L52.3562 655.912 L49.8736 655.912 Q43.9216 655.912 41.2162 653.143 Q38.479 650.374 38.479 644.359 L38.479 638.821 Z" fill="#000000" fill-rule="evenodd" fill-opacity="1" /><path clip-path="url(#clip090)" d="M 0 0 M38.479 614.631 L43.3487 614.631 L43.3487 620.233 Q43.3487 623.384 44.6219 624.625 Q45.895 625.835 49.2052 625.835 L52.3562 625.835 L52.3562 616.19 L56.9077 616.19 L56.9077 625.835 L88.0042 625.835 L88.0042 631.723 L56.9077 631.723 L56.9077 637.325 L52.3562 637.325 L52.3562 631.723 L49.8736 631.723 Q43.9216 631.723 41.2162 628.954 Q38.479 626.185 38.479 620.169 L38.479 614.631 Z" fill="#000000" fill-rule="evenodd" fill-opacity="1" /><polyline clip-path="url(#clip092)" style="stroke:#009af9; stroke-width:20; stroke-opacity:1; fill:none" stroke-dasharray="80, 50" points="
  270.717,85.838 2292.11,1372.3 
  "/>
<path clip-path="url(#clip090)" d="
M1992.24 213.659 L2281.33 213.659 L2281.33 92.6992 L1992.24 92.6992  Z
  " fill="#ffffff" fill-rule="evenodd" fill-opacity="1"/>
<polyline clip-path="url(#clip090)" style="stroke:#000000; stroke-width:4; stroke-opacity:1; fill:none" points="
  1992.24,213.659 2281.33,213.659 2281.33,92.6992 1992.24,92.6992 1992.24,213.659 
  "/>
<polyline clip-path="url(#clip090)" style="stroke:#009af9; stroke-width:4; stroke-opacity:1; fill:none" stroke-dasharray="16, 10" points="
  2016.05,153.179 2158.89,153.179 
  "/>
<path clip-path="url(#clip090)" d="M 0 0 M2196.54 172.867 Q2194.74 177.496 2193.02 178.908 Q2191.31 180.32 2188.44 180.32 L2185.04 180.32 L2185.04 176.755 L2187.54 176.755 Q2189.3 176.755 2190.27 175.922 Q2191.24 175.089 2192.42 171.987 L2193.19 170.043 L2182.7 144.533 L2187.21 144.533 L2195.32 164.811 L2203.42 144.533 L2207.93 144.533 L2196.54 172.867 Z" fill="#000000" fill-rule="evenodd" fill-opacity="1" /><path clip-path="url(#clip090)" d="M 0 0 M2213.81 166.524 L2221.45 166.524 L2221.45 140.158 L2213.14 141.825 L2213.14 137.566 L2221.4 135.899 L2226.08 135.899 L2226.08 166.524 L2233.72 166.524 L2233.72 170.459 L2213.81 170.459 L2213.81 166.524 Z" fill="#000000" fill-rule="evenodd" fill-opacity="1" /></svg>
