<?xml version="1.0" encoding="utf-8"?>
<svg xmlns="http://www.w3.org/2000/svg" xmlns:xlink="http://www.w3.org/1999/xlink" width="600" height="400" viewBox="0 0 2400 1600">
<defs>
  <clipPath id="clip070">
    <rect x="0" y="0" width="2400" height="1600"/>
  </clipPath>
</defs>
<path clip-path="url(#clip070)" d="
M0 1600 L2400 1600 L2400 0 L0 0  Z
  " fill="#ffffff" fill-rule="evenodd" fill-opacity="1"/>
<defs>
  <clipPath id="clip071">
    <rect x="480" y="0" width="1681" height="1600"/>
  </clipPath>
</defs>
<path clip-path="url(#clip070)" d="
M234.82 1410.9 L2352.76 1410.9 L2352.76 47.2441 L234.82 47.2441  Z
  " fill="#ffffff" fill-rule="evenodd" fill-opacity="1"/>
<defs>
  <clipPath id="clip072">
    <rect x="234" y="47" width="2119" height="1365"/>
  </clipPath>
</defs>
<polyline clip-path="url(#clip072)" style="stroke:#000000; stroke-width:2; stroke-opacity:0.1; fill:none" points="
  494.567,1410.9 494.567,47.2441 
  "/>
<polyline clip-path="url(#clip072)" style="stroke:#000000; stroke-width:2; stroke-opacity:0.1; fill:none" points="
  894.177,1410.9 894.177,47.2441 
  "/>
<polyline clip-path="url(#clip072)" style="stroke:#000000; stroke-width:2; stroke-opacity:0.1; fill:none" points="
  1293.79,1410.9 1293.79,47.2441 
  "/>
<polyline clip-path="url(#clip072)" style="stroke:#000000; stroke-width:2; stroke-opacity:0.1; fill:none" points="
  1693.4,1410.9 1693.4,47.2441 
  "/>
<polyline clip-path="url(#clip072)" style="stroke:#000000; stroke-width:2; stroke-opacity:0.1; fill:none" points="
  2093.01,1410.9 2093.01,47.2441 
  "/>
<polyline clip-path="url(#clip070)" style="stroke:#000000; stroke-width:4; stroke-opacity:1; fill:none" points="
  234.82,1410.9 2352.76,1410.9 
  "/>
<polyline clip-path="url(#clip070)" style="stroke:#000000; stroke-width:4; stroke-opacity:1; fill:none" points="
  494.567,1410.9 494.567,1394.53 
  "/>
<polyline clip-path="url(#clip070)" style="stroke:#000000; stroke-width:4; stroke-opacity:1; fill:none" points="
  894.177,1410.9 894.177,1394.53 
  "/>
<polyline clip-path="url(#clip070)" style="stroke:#000000; stroke-width:4; stroke-opacity:1; fill:none" points="
  1293.79,1410.9 1293.79,1394.53 
  "/>
<polyline clip-path="url(#clip070)" style="stroke:#000000; stroke-width:4; stroke-opacity:1; fill:none" points="
  1693.4,1410.9 1693.4,1394.53 
  "/>
<polyline clip-path="url(#clip070)" style="stroke:#000000; stroke-width:4; stroke-opacity:1; fill:none" points="
  2093.01,1410.9 2093.01,1394.53 
  "/>
<path clip-path="url(#clip070)" d="M 0 0 M433.601 1489.17 L441.239 1489.17 L441.239 1462.8 L432.929 1464.47 L432.929 1460.21 L441.193 1458.54 L445.869 1458.54 L445.869 1489.17 L453.508 1489.17 L453.508 1493.1 L433.601 1493.1 L433.601 1489.17 Z" fill="#000000" fill-rule="evenodd" fill-opacity="1" /><path clip-path="url(#clip070)" d="M 0 0 M468.577 1461.62 Q464.966 1461.62 463.138 1465.19 Q461.332 1468.73 461.332 1475.86 Q461.332 1482.97 463.138 1486.53 Q464.966 1490.07 468.577 1490.07 Q472.212 1490.07 474.017 1486.53 Q475.846 1482.97 475.846 1475.86 Q475.846 1468.73 474.017 1465.19 Q472.212 1461.62 468.577 1461.62 M468.577 1457.92 Q474.387 1457.92 477.443 1462.53 Q480.522 1467.11 480.522 1475.86 Q480.522 1484.59 477.443 1489.19 Q474.387 1493.78 468.577 1493.78 Q462.767 1493.78 459.688 1489.19 Q456.633 1484.59 456.633 1475.86 Q456.633 1467.11 459.688 1462.53 Q462.767 1457.92 468.577 1457.92 Z" fill="#000000" fill-rule="evenodd" fill-opacity="1" /><path clip-path="url(#clip070)" d="M 0 0 M480.522 1452.02 L504.633 1452.02 L504.633 1455.22 L480.522 1455.22 L480.522 1452.02 Z" fill="#000000" fill-rule="evenodd" fill-opacity="1" /><path clip-path="url(#clip070)" d="M 0 0 M508.79 1437.61 L523.704 1437.61 L523.704 1440.81 L512.269 1440.81 L512.269 1447.69 Q513.097 1447.41 513.924 1447.28 Q514.752 1447.13 515.579 1447.13 Q520.281 1447.13 523.027 1449.71 Q525.773 1452.28 525.773 1456.68 Q525.773 1461.22 522.952 1463.74 Q520.131 1466.24 514.996 1466.24 Q513.228 1466.24 511.385 1465.94 Q509.561 1465.64 507.605 1465.04 L507.605 1461.22 Q509.298 1462.14 511.103 1462.59 Q512.909 1463.04 514.921 1463.04 Q518.175 1463.04 520.074 1461.33 Q521.974 1459.62 521.974 1456.68 Q521.974 1453.75 520.074 1452.04 Q518.175 1450.33 514.921 1450.33 Q513.398 1450.33 511.874 1450.67 Q510.37 1451 508.79 1451.72 L508.79 1437.61 Z" fill="#000000" fill-rule="evenodd" fill-opacity="1" /><path clip-path="url(#clip070)" d="M 0 0 M529.892 1460.92 L533.861 1460.92 L533.861 1465.69 L529.892 1465.69 L529.892 1460.92 Z" fill="#000000" fill-rule="evenodd" fill-opacity="1" /><path clip-path="url(#clip070)" d="M 0 0 M548.418 1440.92 L538.826 1455.91 L548.418 1455.91 L548.418 1440.92 M547.421 1437.61 L552.198 1437.61 L552.198 1455.91 L556.204 1455.91 L556.204 1459.07 L552.198 1459.07 L552.198 1465.69 L548.418 1465.69 L548.418 1459.07 L535.741 1459.07 L535.741 1455.41 L547.421 1437.61 Z" fill="#000000" fill-rule="evenodd" fill-opacity="1" /><path clip-path="url(#clip070)" d="M 0 0 M834.058 1489.17 L841.696 1489.17 L841.696 1462.8 L833.386 1464.47 L833.386 1460.21 L841.65 1458.54 L846.326 1458.54 L846.326 1489.17 L853.965 1489.17 L853.965 1493.1 L834.058 1493.1 L834.058 1489.17 Z" fill="#000000" fill-rule="evenodd" fill-opacity="1" /><path clip-path="url(#clip070)" d="M 0 0 M869.034 1461.62 Q865.423 1461.62 863.594 1465.19 Q861.789 1468.73 861.789 1475.86 Q861.789 1482.97 863.594 1486.53 Q865.423 1490.07 869.034 1490.07 Q872.668 1490.07 874.474 1486.53 Q876.303 1482.97 876.303 1475.86 Q876.303 1468.73 874.474 1465.19 Q872.668 1461.62 869.034 1461.62 M869.034 1457.92 Q874.844 1457.92 877.9 1462.53 Q880.979 1467.11 880.979 1475.86 Q880.979 1484.59 877.9 1489.19 Q874.844 1493.78 869.034 1493.78 Q863.224 1493.78 860.145 1489.19 Q857.09 1484.59 857.09 1475.86 Q857.09 1467.11 860.145 1462.53 Q863.224 1457.92 869.034 1457.92 Z" fill="#000000" fill-rule="evenodd" fill-opacity="1" /><path clip-path="url(#clip070)" d="M 0 0 M880.979 1452.02 L905.09 1452.02 L905.09 1455.22 L880.979 1455.22 L880.979 1452.02 Z" fill="#000000" fill-rule="evenodd" fill-opacity="1" /><path clip-path="url(#clip070)" d="M 0 0 M909.247 1437.61 L924.161 1437.61 L924.161 1440.81 L912.726 1440.81 L912.726 1447.69 Q913.554 1447.41 914.381 1447.28 Q915.209 1447.13 916.036 1447.13 Q920.738 1447.13 923.484 1449.71 Q926.23 1452.28 926.23 1456.68 Q926.23 1461.22 923.409 1463.74 Q920.588 1466.24 915.453 1466.24 Q913.685 1466.24 911.842 1465.94 Q910.018 1465.64 908.062 1465.04 L908.062 1461.22 Q909.755 1462.14 911.56 1462.59 Q913.366 1463.04 915.378 1463.04 Q918.632 1463.04 920.531 1461.33 Q922.431 1459.62 922.431 1456.68 Q922.431 1453.75 920.531 1452.04 Q918.632 1450.33 915.378 1450.33 Q913.855 1450.33 912.331 1450.67 Q910.827 1451 909.247 1451.72 L909.247 1437.61 Z" fill="#000000" fill-rule="evenodd" fill-opacity="1" /><path clip-path="url(#clip070)" d="M 0 0 M930.349 1460.92 L934.317 1460.92 L934.317 1465.69 L930.349 1465.69 L930.349 1460.92 Z" fill="#000000" fill-rule="evenodd" fill-opacity="1" /><path clip-path="url(#clip070)" d="M 0 0 M941.709 1462.5 L954.968 1462.5 L954.968 1465.69 L937.139 1465.69 L937.139 1462.5 Q939.302 1460.26 943.025 1456.5 Q946.768 1452.72 947.727 1451.63 Q949.552 1449.58 950.266 1448.16 Q951 1446.74 951 1445.36 Q951 1443.12 949.42 1441.71 Q947.859 1440.3 945.339 1440.3 Q943.552 1440.3 941.558 1440.92 Q939.584 1441.54 937.327 1442.8 L937.327 1438.97 Q939.621 1438.05 941.615 1437.58 Q943.608 1437.11 945.264 1437.11 Q949.627 1437.11 952.222 1439.29 Q954.818 1441.47 954.818 1445.12 Q954.818 1446.85 954.16 1448.41 Q953.52 1449.95 951.809 1452.06 Q951.338 1452.6 948.818 1455.22 Q946.298 1457.81 941.709 1462.5 Z" fill="#000000" fill-rule="evenodd" fill-opacity="1" /><path clip-path="url(#clip070)" d="M 0 0 M1233.02 1489.17 L1240.66 1489.17 L1240.66 1462.8 L1232.35 1464.47 L1232.35 1460.21 L1240.61 1458.54 L1245.29 1458.54 L1245.29 1489.17 L1252.93 1489.17 L1252.93 1493.1 L1233.02 1493.1 L1233.02 1489.17 Z" fill="#000000" fill-rule="evenodd" fill-opacity="1" /><path clip-path="url(#clip070)" d="M 0 0 M1268 1461.62 Q1264.38 1461.62 1262.56 1465.19 Q1260.75 1468.73 1260.75 1475.86 Q1260.75 1482.97 1262.56 1486.53 Q1264.38 1490.07 1268 1490.07 Q1271.63 1490.07 1273.44 1486.53 Q1275.26 1482.97 1275.26 1475.86 Q1275.26 1468.73 1273.44 1465.19 Q1271.63 1461.62 1268 1461.62 M1268 1457.92 Q1273.81 1457.92 1276.86 1462.53 Q1279.94 1467.11 1279.94 1475.86 Q1279.94 1484.59 1276.86 1489.19 Q1273.81 1493.78 1268 1493.78 Q1262.19 1493.78 1259.11 1489.19 Q1256.05 1484.59 1256.05 1475.86 Q1256.05 1467.11 1259.11 1462.53 Q1262.19 1457.92 1268 1457.92 Z" fill="#000000" fill-rule="evenodd" fill-opacity="1" /><path clip-path="url(#clip070)" d="M 0 0 M1279.94 1452.02 L1304.05 1452.02 L1304.05 1455.22 L1279.94 1455.22 L1279.94 1452.02 Z" fill="#000000" fill-rule="evenodd" fill-opacity="1" /><path clip-path="url(#clip070)" d="M 0 0 M1308.21 1437.61 L1323.12 1437.61 L1323.12 1440.81 L1311.69 1440.81 L1311.69 1447.69 Q1312.52 1447.41 1313.34 1447.28 Q1314.17 1447.13 1315 1447.13 Q1319.7 1447.13 1322.45 1449.71 Q1325.19 1452.28 1325.19 1456.68 Q1325.19 1461.22 1322.37 1463.74 Q1319.55 1466.24 1314.41 1466.24 Q1312.65 1466.24 1310.8 1465.94 Q1308.98 1465.64 1307.02 1465.04 L1307.02 1461.22 Q1308.72 1462.14 1310.52 1462.59 Q1312.33 1463.04 1314.34 1463.04 Q1317.59 1463.04 1319.49 1461.33 Q1321.39 1459.62 1321.39 1456.68 Q1321.39 1453.75 1319.49 1452.04 Q1317.59 1450.33 1314.34 1450.33 Q1312.82 1450.33 1311.29 1450.67 Q1309.79 1451 1308.21 1451.72 L1308.21 1437.61 Z" fill="#000000" fill-rule="evenodd" fill-opacity="1" /><path clip-path="url(#clip070)" d="M 0 0 M1329.31 1460.92 L1333.28 1460.92 L1333.28 1465.69 L1329.31 1465.69 L1329.31 1460.92 Z" fill="#000000" fill-rule="evenodd" fill-opacity="1" /><path clip-path="url(#clip070)" d="M 0 0 M1345.52 1440.11 Q1342.59 1440.11 1341.1 1443.01 Q1339.64 1445.89 1339.64 1451.68 Q1339.64 1457.46 1341.1 1460.35 Q1342.59 1463.23 1345.52 1463.23 Q1348.48 1463.23 1349.94 1460.35 Q1351.43 1457.46 1351.43 1451.68 Q1351.43 1445.89 1349.94 1443.01 Q1348.48 1440.11 1345.52 1440.11 M1345.52 1437.11 Q1350.24 1437.11 1352.73 1440.85 Q1355.23 1444.57 1355.23 1451.68 Q1355.23 1458.77 1352.73 1462.51 Q1350.24 1466.24 1345.52 1466.24 Q1340.8 1466.24 1338.3 1462.51 Q1335.82 1458.77 1335.82 1451.68 Q1335.82 1444.57 1338.3 1440.85 Q1340.8 1437.11 1345.52 1437.11 Z" fill="#000000" fill-rule="evenodd" fill-opacity="1" /><path clip-path="url(#clip070)" d="M 0 0 M1632.07 1489.17 L1639.7 1489.17 L1639.7 1462.8 L1631.39 1464.47 L1631.39 1460.21 L1639.66 1458.54 L1644.33 1458.54 L1644.33 1489.17 L1651.97 1489.17 L1651.97 1493.1 L1632.07 1493.1 L1632.07 1489.17 Z" fill="#000000" fill-rule="evenodd" fill-opacity="1" /><path clip-path="url(#clip070)" d="M 0 0 M1667.04 1461.62 Q1663.43 1461.62 1661.6 1465.19 Q1659.8 1468.73 1659.8 1475.86 Q1659.8 1482.97 1661.6 1486.53 Q1663.43 1490.07 1667.04 1490.07 Q1670.68 1490.07 1672.48 1486.53 Q1674.31 1482.97 1674.31 1475.86 Q1674.31 1468.73 1672.48 1465.19 Q1670.68 1461.62 1667.04 1461.62 M1667.04 1457.92 Q1672.85 1457.92 1675.91 1462.53 Q1678.99 1467.11 1678.99 1475.86 Q1678.99 1484.59 1675.91 1489.19 Q1672.85 1493.78 1667.04 1493.78 Q1661.23 1493.78 1658.15 1489.19 Q1655.1 1484.59 1655.1 1475.86 Q1655.1 1467.11 1658.15 1462.53 Q1661.23 1457.92 1667.04 1457.92 Z" fill="#000000" fill-rule="evenodd" fill-opacity="1" /><path clip-path="url(#clip070)" d="M 0 0 M1678.99 1452.02 L1703.1 1452.02 L1703.1 1455.22 L1678.99 1455.22 L1678.99 1452.02 Z" fill="#000000" fill-rule="evenodd" fill-opacity="1" /><path clip-path="url(#clip070)" d="M 0 0 M1717.66 1440.92 L1708.06 1455.91 L1717.66 1455.91 L1717.66 1440.92 M1716.66 1437.61 L1721.44 1437.61 L1721.44 1455.91 L1725.44 1455.91 L1725.44 1459.07 L1721.44 1459.07 L1721.44 1465.69 L1717.66 1465.69 L1717.66 1459.07 L1704.98 1459.07 L1704.98 1455.41 L1716.66 1437.61 Z" fill="#000000" fill-rule="evenodd" fill-opacity="1" /><path clip-path="url(#clip070)" d="M 0 0 M1729.56 1460.92 L1733.53 1460.92 L1733.53 1465.69 L1729.56 1465.69 L1729.56 1460.92 Z" fill="#000000" fill-rule="evenodd" fill-opacity="1" /><path clip-path="url(#clip070)" d="M 0 0 M1745.77 1452.36 Q1743.06 1452.36 1741.5 1453.81 Q1739.96 1455.26 1739.96 1457.79 Q1739.96 1460.33 1741.5 1461.78 Q1743.06 1463.23 1745.77 1463.23 Q1748.48 1463.23 1750.04 1461.78 Q1751.6 1460.31 1751.6 1457.79 Q1751.6 1455.26 1750.04 1453.81 Q1748.5 1452.36 1745.77 1452.36 M1741.97 1450.74 Q1739.53 1450.14 1738.16 1448.47 Q1736.8 1446.79 1736.8 1444.38 Q1736.8 1441.02 1739.19 1439.06 Q1741.6 1437.11 1745.77 1437.11 Q1749.97 1437.11 1752.36 1439.06 Q1754.74 1441.02 1754.74 1444.38 Q1754.74 1446.79 1753.37 1448.47 Q1752.02 1450.14 1749.59 1450.74 Q1752.34 1451.38 1753.86 1453.24 Q1755.4 1455.1 1755.4 1457.79 Q1755.4 1461.88 1752.9 1464.06 Q1750.42 1466.24 1745.77 1466.24 Q1741.13 1466.24 1738.63 1464.06 Q1736.14 1461.88 1736.14 1457.79 Q1736.14 1455.1 1737.69 1453.24 Q1739.23 1451.38 1741.97 1450.74 M1740.58 1444.74 Q1740.58 1446.92 1741.94 1448.15 Q1743.31 1449.37 1745.77 1449.37 Q1748.22 1449.37 1749.59 1448.15 Q1750.98 1446.92 1750.98 1444.74 Q1750.98 1442.56 1749.59 1441.34 Q1748.22 1440.11 1745.77 1440.11 Q1743.31 1440.11 1741.94 1441.34 Q1740.58 1442.56 1740.58 1444.74 Z" fill="#000000" fill-rule="evenodd" fill-opacity="1" /><path clip-path="url(#clip070)" d="M 0 0 M2031.57 1489.17 L2039.21 1489.17 L2039.21 1462.8 L2030.9 1464.47 L2030.9 1460.21 L2039.17 1458.54 L2043.84 1458.54 L2043.84 1489.17 L2051.48 1489.17 L2051.48 1493.1 L2031.57 1493.1 L2031.57 1489.17 Z" fill="#000000" fill-rule="evenodd" fill-opacity="1" /><path clip-path="url(#clip070)" d="M 0 0 M2066.55 1461.62 Q2062.94 1461.62 2061.11 1465.19 Q2059.3 1468.73 2059.3 1475.86 Q2059.3 1482.97 2061.11 1486.53 Q2062.94 1490.07 2066.55 1490.07 Q2070.18 1490.07 2071.99 1486.53 Q2073.82 1482.97 2073.82 1475.86 Q2073.82 1468.73 2071.99 1465.19 Q2070.18 1461.62 2066.55 1461.62 M2066.55 1457.92 Q2072.36 1457.92 2075.42 1462.53 Q2078.49 1467.11 2078.49 1475.86 Q2078.49 1484.59 2075.42 1489.19 Q2072.36 1493.78 2066.55 1493.78 Q2060.74 1493.78 2057.66 1489.19 Q2054.61 1484.59 2054.61 1475.86 Q2054.61 1467.11 2057.66 1462.53 Q2060.74 1457.92 2066.55 1457.92 Z" fill="#000000" fill-rule="evenodd" fill-opacity="1" /><path clip-path="url(#clip070)" d="M 0 0 M2078.49 1452.02 L2102.61 1452.02 L2102.61 1455.22 L2078.49 1455.22 L2078.49 1452.02 Z" fill="#000000" fill-rule="evenodd" fill-opacity="1" /><path clip-path="url(#clip070)" d="M 0 0 M2117.16 1440.92 L2107.57 1455.91 L2117.16 1455.91 L2117.16 1440.92 M2116.17 1437.61 L2120.94 1437.61 L2120.94 1455.91 L2124.95 1455.91 L2124.95 1459.07 L2120.94 1459.07 L2120.94 1465.69 L2117.16 1465.69 L2117.16 1459.07 L2104.49 1459.07 L2104.49 1455.41 L2116.17 1437.61 Z" fill="#000000" fill-rule="evenodd" fill-opacity="1" /><path clip-path="url(#clip070)" d="M 0 0 M2129.07 1460.92 L2133.04 1460.92 L2133.04 1465.69 L2129.07 1465.69 L2129.07 1460.92 Z" fill="#000000" fill-rule="evenodd" fill-opacity="1" /><path clip-path="url(#clip070)" d="M 0 0 M2145.75 1450.14 Q2143.19 1450.14 2141.69 1451.89 Q2140.2 1453.64 2140.2 1456.68 Q2140.2 1459.71 2141.69 1461.48 Q2143.19 1463.23 2145.75 1463.23 Q2148.31 1463.23 2149.79 1461.48 Q2151.3 1459.71 2151.3 1456.68 Q2151.3 1453.64 2149.79 1451.89 Q2148.31 1450.14 2145.75 1450.14 M2153.29 1438.23 L2153.29 1441.69 Q2151.86 1441.02 2150.4 1440.66 Q2148.95 1440.3 2147.52 1440.3 Q2143.76 1440.3 2141.76 1442.84 Q2139.79 1445.38 2139.51 1450.52 Q2140.62 1448.88 2142.29 1448.01 Q2143.96 1447.13 2145.98 1447.13 Q2150.21 1447.13 2152.65 1449.71 Q2155.12 1452.26 2155.12 1456.68 Q2155.12 1461.01 2152.56 1463.62 Q2150 1466.24 2145.75 1466.24 Q2140.88 1466.24 2138.3 1462.51 Q2135.73 1458.77 2135.73 1451.68 Q2135.73 1445.02 2138.89 1441.07 Q2142.05 1437.11 2147.37 1437.11 Q2148.8 1437.11 2150.25 1437.39 Q2151.71 1437.67 2153.29 1438.23 Z" fill="#000000" fill-rule="evenodd" fill-opacity="1" /><path clip-path="url(#clip070)" d="M 0 0 M1219.01 1512.66 L1224.9 1512.66 L1224.9 1541.91 L1242.37 1526.54 L1249.85 1526.54 L1230.94 1543.22 L1250.64 1562.19 L1243.01 1562.19 L1224.9 1544.78 L1224.9 1562.19 L1219.01 1562.19 L1219.01 1512.66 Z" fill="#000000" fill-rule="evenodd" fill-opacity="1" /><path clip-path="url(#clip070)" d="M 0 0 M1283.87 1573.01 L1283.87 1577.56 L1250.01 1577.56 L1250.01 1573.01 L1283.87 1573.01 Z" fill="#000000" fill-rule="evenodd" fill-opacity="1" /><path clip-path="url(#clip070)" d="M 0 0 M1303.83 1530.64 Q1299.12 1530.64 1296.38 1534.34 Q1293.64 1538 1293.64 1544.39 Q1293.64 1550.79 1296.35 1554.48 Q1299.09 1558.14 1303.83 1558.14 Q1308.51 1558.14 1311.25 1554.45 Q1313.98 1550.76 1313.98 1544.39 Q1313.98 1538.06 1311.25 1534.37 Q1308.51 1530.64 1303.83 1530.64 M1303.83 1525.68 Q1311.47 1525.68 1315.83 1530.64 Q1320.19 1535.61 1320.19 1544.39 Q1320.19 1553.15 1315.83 1558.14 Q1311.47 1563.11 1303.83 1563.11 Q1296.16 1563.11 1291.8 1558.14 Q1287.47 1553.15 1287.47 1544.39 Q1287.47 1535.61 1291.8 1530.64 Q1296.16 1525.68 1303.83 1525.68 Z" fill="#000000" fill-rule="evenodd" fill-opacity="1" /><path clip-path="url(#clip070)" d="M 0 0 M1344.38 1512.66 L1344.38 1517.53 L1338.78 1517.53 Q1335.63 1517.53 1334.39 1518.8 Q1333.18 1520.08 1333.18 1523.39 L1333.18 1526.54 L1342.82 1526.54 L1342.82 1531.09 L1333.18 1531.09 L1333.18 1562.19 L1327.29 1562.19 L1327.29 1531.09 L1321.69 1531.09 L1321.69 1526.54 L1327.29 1526.54 L1327.29 1524.05 Q1327.29 1518.1 1330.06 1515.4 Q1332.83 1512.66 1338.84 1512.66 L1344.38 1512.66 Z" fill="#000000" fill-rule="evenodd" fill-opacity="1" /><path clip-path="url(#clip070)" d="M 0 0 M1368.57 1512.66 L1368.57 1517.53 L1362.97 1517.53 Q1359.82 1517.53 1358.57 1518.8 Q1357.37 1520.08 1357.37 1523.39 L1357.37 1526.54 L1367.01 1526.54 L1367.01 1531.09 L1357.37 1531.09 L1357.37 1562.19 L1351.48 1562.19 L1351.48 1531.09 L1345.88 1531.09 L1345.88 1526.54 L1351.48 1526.54 L1351.48 1524.05 Q1351.48 1518.1 1354.25 1515.4 Q1357.02 1512.66 1363.03 1512.66 L1368.57 1512.66 Z" fill="#000000" fill-rule="evenodd" fill-opacity="1" /><polyline clip-path="url(#clip072)" style="stroke:#000000; stroke-width:2; stroke-opacity:0.1; fill:none" points="
  234.82,1137.15 2352.76,1137.15 
  "/>
<polyline clip-path="url(#clip072)" style="stroke:#000000; stroke-width:2; stroke-opacity:0.1; fill:none" points="
  234.82,816.699 2352.76,816.699 
  "/>
<polyline clip-path="url(#clip072)" style="stroke:#000000; stroke-width:2; stroke-opacity:0.1; fill:none" points="
  234.82,496.25 2352.76,496.25 
  "/>
<polyline clip-path="url(#clip072)" style="stroke:#000000; stroke-width:2; stroke-opacity:0.1; fill:none" points="
  234.82,175.801 2352.76,175.801 
  "/>
<polyline clip-path="url(#clip070)" style="stroke:#000000; stroke-width:4; stroke-opacity:1; fill:none" points="
  234.82,1410.9 234.82,47.2441 
  "/>
<polyline clip-path="url(#clip070)" style="stroke:#000000; stroke-width:4; stroke-opacity:1; fill:none" points="
  234.82,1137.15 260.235,1137.15 
  "/>
<polyline clip-path="url(#clip070)" style="stroke:#000000; stroke-width:4; stroke-opacity:1; fill:none" points="
  234.82,816.699 260.235,816.699 
  "/>
<polyline clip-path="url(#clip070)" style="stroke:#000000; stroke-width:4; stroke-opacity:1; fill:none" points="
  234.82,496.25 260.235,496.25 
  "/>
<polyline clip-path="url(#clip070)" style="stroke:#000000; stroke-width:4; stroke-opacity:1; fill:none" points="
  234.82,175.801 260.235,175.801 
  "/>
<path clip-path="url(#clip070)" d="M 0 0 M141.228 1153.71 L141.228 1149.45 Q142.987 1150.29 144.792 1150.73 Q146.598 1151.16 148.334 1151.16 Q152.964 1151.16 155.394 1148.06 Q157.848 1144.94 158.195 1138.6 Q156.853 1140.59 154.792 1141.65 Q152.732 1142.72 150.232 1142.72 Q145.047 1142.72 142.015 1139.59 Q139.005 1136.44 139.005 1131 Q139.005 1125.68 142.154 1122.46 Q145.302 1119.24 150.533 1119.24 Q156.528 1119.24 159.677 1123.85 Q162.848 1128.43 162.848 1137.18 Q162.848 1145.35 158.959 1150.24 Q155.093 1155.1 148.542 1155.1 Q146.783 1155.1 144.978 1154.75 Q143.172 1154.41 141.228 1153.71 M150.533 1139.06 Q153.681 1139.06 155.51 1136.91 Q157.362 1134.75 157.362 1131 Q157.362 1127.28 155.51 1125.12 Q153.681 1122.95 150.533 1122.95 Q147.385 1122.95 145.533 1125.12 Q143.704 1127.28 143.704 1131 Q143.704 1134.75 145.533 1136.91 Q147.385 1139.06 150.533 1139.06 Z" fill="#000000" fill-rule="evenodd" fill-opacity="1" /><path clip-path="url(#clip070)" d="M 0 0 M167.917 1148.55 L172.802 1148.55 L172.802 1154.43 L167.917 1154.43 L167.917 1148.55 Z" fill="#000000" fill-rule="evenodd" fill-opacity="1" /><path clip-path="url(#clip070)" d="M 0 0 M177.917 1119.87 L196.274 1119.87 L196.274 1123.8 L182.2 1123.8 L182.2 1132.28 Q183.218 1131.93 184.237 1131.77 Q185.255 1131.58 186.274 1131.58 Q192.061 1131.58 195.44 1134.75 Q198.82 1137.92 198.82 1143.34 Q198.82 1148.92 195.348 1152.02 Q191.875 1155.1 185.556 1155.1 Q183.38 1155.1 181.112 1154.73 Q178.866 1154.36 176.459 1153.62 L176.459 1148.92 Q178.542 1150.05 180.764 1150.61 Q182.987 1151.16 185.463 1151.16 Q189.468 1151.16 191.806 1149.06 Q194.144 1146.95 194.144 1143.34 Q194.144 1139.73 191.806 1137.62 Q189.468 1135.52 185.463 1135.52 Q183.588 1135.52 181.713 1135.93 Q179.862 1136.35 177.917 1137.23 L177.917 1119.87 Z" fill="#000000" fill-rule="evenodd" fill-opacity="1" /><path clip-path="url(#clip070)" d="M 0 0 M114.931 830.044 L122.57 830.044 L122.57 803.679 L114.26 805.345 L114.26 801.086 L122.524 799.419 L127.2 799.419 L127.2 830.044 L134.839 830.044 L134.839 833.979 L114.931 833.979 L114.931 830.044 Z" fill="#000000" fill-rule="evenodd" fill-opacity="1" /><path clip-path="url(#clip070)" d="M 0 0 M149.908 802.498 Q146.297 802.498 144.468 806.063 Q142.663 809.604 142.663 816.734 Q142.663 823.841 144.468 827.405 Q146.297 830.947 149.908 830.947 Q153.542 830.947 155.348 827.405 Q157.177 823.841 157.177 816.734 Q157.177 809.604 155.348 806.063 Q153.542 802.498 149.908 802.498 M149.908 798.794 Q155.718 798.794 158.774 803.401 Q161.852 807.984 161.852 816.734 Q161.852 825.461 158.774 830.067 Q155.718 834.651 149.908 834.651 Q144.098 834.651 141.019 830.067 Q137.964 825.461 137.964 816.734 Q137.964 807.984 141.019 803.401 Q144.098 798.794 149.908 798.794 Z" fill="#000000" fill-rule="evenodd" fill-opacity="1" /><path clip-path="url(#clip070)" d="M 0 0 M166.922 828.1 L171.806 828.1 L171.806 833.979 L166.922 833.979 L166.922 828.1 Z" fill="#000000" fill-rule="evenodd" fill-opacity="1" /><path clip-path="url(#clip070)" d="M 0 0 M186.876 802.498 Q183.264 802.498 181.436 806.063 Q179.63 809.604 179.63 816.734 Q179.63 823.841 181.436 827.405 Q183.264 830.947 186.876 830.947 Q190.51 830.947 192.315 827.405 Q194.144 823.841 194.144 816.734 Q194.144 809.604 192.315 806.063 Q190.51 802.498 186.876 802.498 M186.876 798.794 Q192.686 798.794 195.741 803.401 Q198.82 807.984 198.82 816.734 Q198.82 825.461 195.741 830.067 Q192.686 834.651 186.876 834.651 Q181.065 834.651 177.987 830.067 Q174.931 825.461 174.931 816.734 Q174.931 807.984 177.987 803.401 Q181.065 798.794 186.876 798.794 Z" fill="#000000" fill-rule="evenodd" fill-opacity="1" /><path clip-path="url(#clip070)" d="M 0 0 M115.927 509.595 L123.566 509.595 L123.566 483.229 L115.256 484.896 L115.256 480.637 L123.519 478.97 L128.195 478.97 L128.195 509.595 L135.834 509.595 L135.834 513.53 L115.927 513.53 L115.927 509.595 Z" fill="#000000" fill-rule="evenodd" fill-opacity="1" /><path clip-path="url(#clip070)" d="M 0 0 M150.903 482.049 Q147.292 482.049 145.464 485.613 Q143.658 489.155 143.658 496.285 Q143.658 503.391 145.464 506.956 Q147.292 510.498 150.903 510.498 Q154.538 510.498 156.343 506.956 Q158.172 503.391 158.172 496.285 Q158.172 489.155 156.343 485.613 Q154.538 482.049 150.903 482.049 M150.903 478.345 Q156.714 478.345 159.769 482.951 Q162.848 487.535 162.848 496.285 Q162.848 505.012 159.769 509.618 Q156.714 514.201 150.903 514.201 Q145.093 514.201 142.015 509.618 Q138.959 505.012 138.959 496.285 Q138.959 487.535 142.015 482.951 Q145.093 478.345 150.903 478.345 Z" fill="#000000" fill-rule="evenodd" fill-opacity="1" /><path clip-path="url(#clip070)" d="M 0 0 M167.917 507.65 L172.802 507.65 L172.802 513.53 L167.917 513.53 L167.917 507.65 Z" fill="#000000" fill-rule="evenodd" fill-opacity="1" /><path clip-path="url(#clip070)" d="M 0 0 M177.917 478.97 L196.274 478.97 L196.274 482.905 L182.2 482.905 L182.2 491.377 Q183.218 491.03 184.237 490.868 Q185.255 490.683 186.274 490.683 Q192.061 490.683 195.44 493.854 Q198.82 497.025 198.82 502.442 Q198.82 508.021 195.348 511.123 Q191.875 514.201 185.556 514.201 Q183.38 514.201 181.112 513.831 Q178.866 513.461 176.459 512.72 L176.459 508.021 Q178.542 509.155 180.764 509.711 Q182.987 510.266 185.463 510.266 Q189.468 510.266 191.806 508.16 Q194.144 506.053 194.144 502.442 Q194.144 498.831 191.806 496.725 Q189.468 494.618 185.463 494.618 Q183.588 494.618 181.713 495.035 Q179.862 495.451 177.917 496.331 L177.917 478.97 Z" fill="#000000" fill-rule="evenodd" fill-opacity="1" /><path clip-path="url(#clip070)" d="M 0 0 M116.158 189.145 L123.797 189.145 L123.797 162.78 L115.487 164.447 L115.487 160.187 L123.751 158.521 L128.427 158.521 L128.427 189.145 L136.066 189.145 L136.066 193.081 L116.158 193.081 L116.158 189.145 Z" fill="#000000" fill-rule="evenodd" fill-opacity="1" /><path clip-path="url(#clip070)" d="M 0 0 M141.945 189.145 L149.584 189.145 L149.584 162.78 L141.274 164.447 L141.274 160.187 L149.538 158.521 L154.214 158.521 L154.214 189.145 L161.852 189.145 L161.852 193.081 L141.945 193.081 L141.945 189.145 Z" fill="#000000" fill-rule="evenodd" fill-opacity="1" /><path clip-path="url(#clip070)" d="M 0 0 M166.922 187.201 L171.806 187.201 L171.806 193.081 L166.922 193.081 L166.922 187.201 Z" fill="#000000" fill-rule="evenodd" fill-opacity="1" /><path clip-path="url(#clip070)" d="M 0 0 M186.876 161.599 Q183.264 161.599 181.436 165.164 Q179.63 168.706 179.63 175.835 Q179.63 182.942 181.436 186.507 Q183.264 190.048 186.876 190.048 Q190.51 190.048 192.315 186.507 Q194.144 182.942 194.144 175.835 Q194.144 168.706 192.315 165.164 Q190.51 161.599 186.876 161.599 M186.876 157.896 Q192.686 157.896 195.741 162.502 Q198.82 167.085 198.82 175.835 Q198.82 184.562 195.741 189.169 Q192.686 193.752 186.876 193.752 Q181.065 193.752 177.987 189.169 Q174.931 184.562 174.931 175.835 Q174.931 167.085 177.987 162.502 Q181.065 157.896 186.876 157.896 Z" fill="#000000" fill-rule="evenodd" fill-opacity="1" /><path clip-path="url(#clip070)" d="M 0 0 M59.1993 815.533 Q55.2526 813.336 53.3747 810.281 Q51.4968 807.225 51.4968 803.088 Q51.4968 797.518 55.4117 794.494 Q59.2948 791.47 66.4881 791.47 L88.0042 791.47 L88.0042 797.358 L66.679 797.358 Q61.5546 797.358 59.072 799.173 Q56.5894 800.987 56.5894 804.711 Q56.5894 809.262 59.6131 811.904 Q62.6368 814.546 67.8567 814.546 L88.0042 814.546 L88.0042 820.434 L66.679 820.434 Q61.5228 820.434 59.072 822.248 Q56.5894 824.063 56.5894 827.85 Q56.5894 832.338 59.6449 834.98 Q62.6686 837.622 67.8567 837.622 L88.0042 837.622 L88.0042 843.51 L52.3562 843.51 L52.3562 837.622 L57.8944 837.622 Q54.616 835.616 53.0564 832.815 Q51.4968 830.015 51.4968 826.163 Q51.4968 822.28 53.4702 819.575 Q55.4436 816.838 59.1993 815.533 Z" fill="#000000" fill-rule="evenodd" fill-opacity="1" /><path clip-path="url(#clip070)" d="M 0 0 M52.3562 785.327 L52.3562 779.471 L88.0042 779.471 L88.0042 785.327 L52.3562 785.327 M38.479 785.327 L38.479 779.471 L45.895 779.471 L45.895 785.327 L38.479 785.327 Z" fill="#000000" fill-rule="evenodd" fill-opacity="1" /><path clip-path="url(#clip070)" d="M 0 0 M66.4881 743.696 L88.0042 743.696 L88.0042 749.552 L66.679 749.552 Q61.6183 749.552 59.1038 751.525 Q56.5894 753.499 56.5894 757.446 Q56.5894 762.188 59.6131 764.925 Q62.6368 767.662 67.8567 767.662 L88.0042 767.662 L88.0042 773.551 L52.3562 773.551 L52.3562 767.662 L57.8944 767.662 Q54.6797 765.562 53.0883 762.729 Q51.4968 759.864 51.4968 756.141 Q51.4968 749.998 55.3163 746.847 Q59.1038 743.696 66.4881 743.696 Z" fill="#000000" fill-rule="evenodd" fill-opacity="1" /><path clip-path="url(#clip070)" d="M 0 0 M98.8259 710.467 L103.377 710.467 L103.377 744.332 L98.8259 744.332 L98.8259 710.467 Z" fill="#000000" fill-rule="evenodd" fill-opacity="1" /><path clip-path="url(#clip070)" d="M 0 0 M57.7671 680.866 L38.479 680.866 L38.479 675.01 L88.0042 675.01 L88.0042 680.866 L82.657 680.866 Q85.8398 682.712 87.3994 685.545 Q88.9272 688.346 88.9272 692.292 Q88.9272 698.754 83.771 702.828 Q78.6147 706.87 70.212 706.87 Q61.8093 706.87 56.6531 702.828 Q51.4968 698.754 51.4968 692.292 Q51.4968 688.346 53.0564 685.545 Q54.5842 682.712 57.7671 680.866 M70.212 700.823 Q76.6732 700.823 80.3653 698.181 Q84.0256 695.507 84.0256 690.86 Q84.0256 686.213 80.3653 683.54 Q76.6732 680.866 70.212 680.866 Q63.7508 680.866 60.0905 683.54 Q56.3984 686.213 56.3984 690.86 Q56.3984 695.507 60.0905 698.181 Q63.7508 700.823 70.212 700.823 Z" fill="#000000" fill-rule="evenodd" fill-opacity="1" /><path clip-path="url(#clip070)" d="M 0 0 M52.3562 668.867 L52.3562 663.01 L88.0042 663.01 L88.0042 668.867 L52.3562 668.867 M38.479 668.867 L38.479 663.01 L45.895 663.01 L45.895 668.867 L38.479 668.867 Z" fill="#000000" fill-rule="evenodd" fill-opacity="1" /><path clip-path="url(#clip070)" d="M 0 0 M38.479 638.821 L43.3487 638.821 L43.3487 644.422 Q43.3487 647.573 44.6219 648.815 Q45.895 650.024 49.2052 650.024 L52.3562 650.024 L52.3562 640.38 L56.9077 640.38 L56.9077 650.024 L88.0042 650.024 L88.0042 655.912 L56.9077 655.912 L56.9077 661.514 L52.3562 661.514 L52.3562 655.912 L49.8736 655.912 Q43.9216 655.912 41.2162 653.143 Q38.479 650.374 38.479 644.359 L38.479 638.821 Z" fill="#000000" fill-rule="evenodd" fill-opacity="1" /><path clip-path="url(#clip070)" d="M 0 0 M38.479 614.631 L43.3487 614.631 L43.3487 620.233 Q43.3487 623.384 44.6219 624.625 Q45.895 625.835 49.2052 625.835 L52.3562 625.835 L52.3562 616.19 L56.9077 616.19 L56.9077 625.835 L88.0042 625.835 L88.0042 631.723 L56.9077 631.723 L56.9077 637.325 L52.3562 637.325 L52.3562 631.723 L49.8736 631.723 Q43.9216 631.723 41.2162 628.954 Q38.479 626.185 38.479 620.169 L38.479 614.631 Z" fill="#000000" fill-rule="evenodd" fill-opacity="1" /><polyline clip-path="url(#clip072)" style="stroke:#009af9; stroke-width:20; stroke-opacity:1; fill:none" stroke-dasharray="80, 50" points="
  294.761,326.804 1293.79,85.838 2292.81,1372.3 
  "/>
<path clip-path="url(#clip070)" d="
M1995.81 213.659 L2282.16 213.659 L2282.16 92.6992 L1995.81 92.6992  Z
  " fill="#ffffff" fill-rule="evenodd" fill-opacity="1"/>
<polyline clip-path="url(#clip070)" style="stroke:#000000; stroke-width:4; stroke-opacity:1; fill:none" points="
  1995.81,213.659 2282.16,213.659 2282.16,92.6992 1995.81,92.6992 1995.81,213.659 
  "/>
<polyline clip-path="url(#clip070)" style="stroke:#009af9; stroke-width:4; stroke-opacity:1; fill:none" stroke-dasharray="16, 10" points="
  2019.35,153.179 2160.54,153.179 
  "/>
<path clip-path="url(#clip070)" d="M 0 0 M2197.92 172.867 Q2196.11 177.496 2194.4 178.908 Q2192.69 180.32 2189.82 180.32 L2186.41 180.32 L2186.41 176.755 L2188.91 176.755 Q2190.67 176.755 2191.64 175.922 Q2192.62 175.089 2193.8 171.987 L2194.56 170.043 L2184.07 144.533 L2188.59 144.533 L2196.69 164.811 L2204.79 144.533 L2209.31 144.533 L2197.92 172.867 Z" fill="#000000" fill-rule="evenodd" fill-opacity="1" /><path clip-path="url(#clip070)" d="M 0 0 M2215.19 166.524 L2222.82 166.524 L2222.82 140.158 L2214.51 141.825 L2214.51 137.566 L2222.78 135.899 L2227.45 135.899 L2227.45 166.524 L2235.09 166.524 L2235.09 170.459 L2215.19 170.459 L2215.19 166.524 Z" fill="#000000" fill-rule="evenodd" fill-opacity="1" /></svg>
