<?xml version="1.0" encoding="utf-8"?>
<svg xmlns="http://www.w3.org/2000/svg" xmlns:xlink="http://www.w3.org/1999/xlink" width="600" height="400" viewBox="0 0 2400 1600">
<defs>
  <clipPath id="clip810">
    <rect x="0" y="0" width="2400" height="1600"/>
  </clipPath>
</defs>
<path clip-path="url(#clip810)" d="
M0 1600 L2400 1600 L2400 0 L0 0  Z
  " fill="#ffffff" fill-rule="evenodd" fill-opacity="1"/>
<defs>
  <clipPath id="clip811">
    <rect x="480" y="0" width="1681" height="1600"/>
  </clipPath>
</defs>
<path clip-path="url(#clip810)" d="
M234.172 1410.9 L2352.76 1410.9 L2352.76 47.2441 L234.172 47.2441  Z
  " fill="#ffffff" fill-rule="evenodd" fill-opacity="1"/>
<defs>
  <clipPath id="clip812">
    <rect x="234" y="47" width="2120" height="1365"/>
  </clipPath>
</defs>
<polyline clip-path="url(#clip812)" style="stroke:#000000; stroke-width:2; stroke-opacity:0.1; fill:none" points="
  294.132,1410.9 294.132,47.2441 
  "/>
<polyline clip-path="url(#clip812)" style="stroke:#000000; stroke-width:2; stroke-opacity:0.1; fill:none" points="
  793.798,1410.9 793.798,47.2441 
  "/>
<polyline clip-path="url(#clip812)" style="stroke:#000000; stroke-width:2; stroke-opacity:0.1; fill:none" points="
  1293.46,1410.9 1293.46,47.2441 
  "/>
<polyline clip-path="url(#clip812)" style="stroke:#000000; stroke-width:2; stroke-opacity:0.1; fill:none" points="
  1793.13,1410.9 1793.13,47.2441 
  "/>
<polyline clip-path="url(#clip812)" style="stroke:#000000; stroke-width:2; stroke-opacity:0.1; fill:none" points="
  2292.8,1410.9 2292.8,47.2441 
  "/>
<polyline clip-path="url(#clip810)" style="stroke:#000000; stroke-width:4; stroke-opacity:1; fill:none" points="
  234.172,1410.9 2352.76,1410.9 
  "/>
<polyline clip-path="url(#clip810)" style="stroke:#000000; stroke-width:4; stroke-opacity:1; fill:none" points="
  294.132,1410.9 294.132,1394.53 
  "/>
<polyline clip-path="url(#clip810)" style="stroke:#000000; stroke-width:4; stroke-opacity:1; fill:none" points="
  793.798,1410.9 793.798,1394.53 
  "/>
<polyline clip-path="url(#clip810)" style="stroke:#000000; stroke-width:4; stroke-opacity:1; fill:none" points="
  1293.46,1410.9 1293.46,1394.53 
  "/>
<polyline clip-path="url(#clip810)" style="stroke:#000000; stroke-width:4; stroke-opacity:1; fill:none" points="
  1793.13,1410.9 1793.13,1394.53 
  "/>
<polyline clip-path="url(#clip810)" style="stroke:#000000; stroke-width:4; stroke-opacity:1; fill:none" points="
  2292.8,1410.9 2292.8,1394.53 
  "/>
<path clip-path="url(#clip810)" d="M 0 0 M221.919 1489.17 L229.557 1489.17 L229.557 1462.8 L221.247 1464.47 L221.247 1460.21 L229.511 1458.54 L234.187 1458.54 L234.187 1489.17 L241.826 1489.17 L241.826 1493.1 L221.919 1493.1 L221.919 1489.17 Z" fill="#000000" fill-rule="evenodd" fill-opacity="1" /><path clip-path="url(#clip810)" d="M 0 0 M256.895 1461.62 Q253.284 1461.62 251.455 1465.19 Q249.65 1468.73 249.65 1475.86 Q249.65 1482.97 251.455 1486.53 Q253.284 1490.07 256.895 1490.07 Q260.529 1490.07 262.335 1486.53 Q264.164 1482.97 264.164 1475.86 Q264.164 1468.73 262.335 1465.19 Q260.529 1461.62 256.895 1461.62 M256.895 1457.92 Q262.705 1457.92 265.761 1462.53 Q268.84 1467.11 268.84 1475.86 Q268.84 1484.59 265.761 1489.19 Q262.705 1493.78 256.895 1493.78 Q251.085 1493.78 248.006 1489.19 Q244.951 1484.59 244.951 1475.86 Q244.951 1467.11 248.006 1462.53 Q251.085 1457.92 256.895 1457.92 Z" fill="#000000" fill-rule="evenodd" fill-opacity="1" /><path clip-path="url(#clip810)" d="M 0 0 M268.84 1452.02 L292.951 1452.02 L292.951 1455.22 L268.84 1455.22 L268.84 1452.02 Z" fill="#000000" fill-rule="evenodd" fill-opacity="1" /><path clip-path="url(#clip810)" d="M 0 0 M305.665 1450.14 Q303.107 1450.14 301.603 1451.89 Q300.117 1453.64 300.117 1456.68 Q300.117 1459.71 301.603 1461.48 Q303.107 1463.23 305.665 1463.23 Q308.223 1463.23 309.709 1461.48 Q311.213 1459.71 311.213 1456.68 Q311.213 1453.64 309.709 1451.89 Q308.223 1450.14 305.665 1450.14 M313.207 1438.23 L313.207 1441.69 Q311.778 1441.02 310.311 1440.66 Q308.862 1440.3 307.433 1440.3 Q303.672 1440.3 301.678 1442.84 Q299.703 1445.38 299.421 1450.52 Q300.531 1448.88 302.205 1448.01 Q303.878 1447.13 305.891 1447.13 Q310.123 1447.13 312.568 1449.71 Q315.031 1452.26 315.031 1456.68 Q315.031 1461.01 312.474 1463.62 Q309.916 1466.24 305.665 1466.24 Q300.794 1466.24 298.217 1462.51 Q295.641 1458.77 295.641 1451.68 Q295.641 1445.02 298.8 1441.07 Q301.96 1437.11 307.283 1437.11 Q308.712 1437.11 310.16 1437.39 Q311.627 1437.67 313.207 1438.23 Z" fill="#000000" fill-rule="evenodd" fill-opacity="1" /><path clip-path="url(#clip810)" d="M 0 0 M319.15 1460.92 L323.119 1460.92 L323.119 1465.69 L319.15 1465.69 L319.15 1460.92 Z" fill="#000000" fill-rule="evenodd" fill-opacity="1" /><path clip-path="url(#clip810)" d="M 0 0 M335.363 1440.11 Q332.429 1440.11 330.943 1443.01 Q329.476 1445.89 329.476 1451.68 Q329.476 1457.46 330.943 1460.35 Q332.429 1463.23 335.363 1463.23 Q338.315 1463.23 339.782 1460.35 Q341.268 1457.46 341.268 1451.68 Q341.268 1445.89 339.782 1443.01 Q338.315 1440.11 335.363 1440.11 M335.363 1437.11 Q340.083 1437.11 342.566 1440.85 Q345.067 1444.57 345.067 1451.68 Q345.067 1458.77 342.566 1462.51 Q340.083 1466.24 335.363 1466.24 Q330.642 1466.24 328.14 1462.51 Q325.658 1458.77 325.658 1451.68 Q325.658 1444.57 328.14 1440.85 Q330.642 1437.11 335.363 1437.11 Z" fill="#000000" fill-rule="evenodd" fill-opacity="1" /><path clip-path="url(#clip810)" d="M 0 0 M357.311 1440.11 Q354.377 1440.11 352.891 1443.01 Q351.424 1445.89 351.424 1451.68 Q351.424 1457.46 352.891 1460.35 Q354.377 1463.23 357.311 1463.23 Q360.264 1463.23 361.731 1460.35 Q363.217 1457.46 363.217 1451.68 Q363.217 1445.89 361.731 1443.01 Q360.264 1440.11 357.311 1440.11 M357.311 1437.11 Q362.032 1437.11 364.515 1440.85 Q367.016 1444.57 367.016 1451.68 Q367.016 1458.77 364.515 1462.51 Q362.032 1466.24 357.311 1466.24 Q352.591 1466.24 350.089 1462.51 Q347.607 1458.77 347.607 1451.68 Q347.607 1444.57 350.089 1440.85 Q352.591 1437.11 357.311 1437.11 Z" fill="#000000" fill-rule="evenodd" fill-opacity="1" /><path clip-path="url(#clip810)" d="M 0 0 M722.826 1489.17 L730.465 1489.17 L730.465 1462.8 L722.155 1464.47 L722.155 1460.21 L730.418 1458.54 L735.094 1458.54 L735.094 1489.17 L742.733 1489.17 L742.733 1493.1 L722.826 1493.1 L722.826 1489.17 Z" fill="#000000" fill-rule="evenodd" fill-opacity="1" /><path clip-path="url(#clip810)" d="M 0 0 M757.803 1461.62 Q754.191 1461.62 752.363 1465.19 Q750.557 1468.73 750.557 1475.86 Q750.557 1482.97 752.363 1486.53 Q754.191 1490.07 757.803 1490.07 Q761.437 1490.07 763.242 1486.53 Q765.071 1482.97 765.071 1475.86 Q765.071 1468.73 763.242 1465.19 Q761.437 1461.62 757.803 1461.62 M757.803 1457.92 Q763.613 1457.92 766.668 1462.53 Q769.747 1467.11 769.747 1475.86 Q769.747 1484.59 766.668 1489.19 Q763.613 1493.78 757.803 1493.78 Q751.992 1493.78 748.914 1489.19 Q745.858 1484.59 745.858 1475.86 Q745.858 1467.11 748.914 1462.53 Q751.992 1457.92 757.803 1457.92 Z" fill="#000000" fill-rule="evenodd" fill-opacity="1" /><path clip-path="url(#clip810)" d="M 0 0 M769.747 1452.02 L793.859 1452.02 L793.859 1455.22 L769.747 1455.22 L769.747 1452.02 Z" fill="#000000" fill-rule="evenodd" fill-opacity="1" /><path clip-path="url(#clip810)" d="M 0 0 M798.015 1437.61 L812.93 1437.61 L812.93 1440.81 L801.494 1440.81 L801.494 1447.69 Q802.322 1447.41 803.15 1447.28 Q803.977 1447.13 804.805 1447.13 Q809.507 1447.13 812.253 1449.71 Q814.998 1452.28 814.998 1456.68 Q814.998 1461.22 812.177 1463.74 Q809.356 1466.24 804.222 1466.24 Q802.454 1466.24 800.611 1465.94 Q798.786 1465.64 796.83 1465.04 L796.83 1461.22 Q798.523 1462.14 800.328 1462.59 Q802.134 1463.04 804.146 1463.04 Q807.4 1463.04 809.3 1461.33 Q811.199 1459.62 811.199 1456.68 Q811.199 1453.75 809.3 1452.04 Q807.4 1450.33 804.146 1450.33 Q802.623 1450.33 801.1 1450.67 Q799.595 1451 798.015 1451.72 L798.015 1437.61 Z" fill="#000000" fill-rule="evenodd" fill-opacity="1" /><path clip-path="url(#clip810)" d="M 0 0 M819.117 1460.92 L823.086 1460.92 L823.086 1465.69 L819.117 1465.69 L819.117 1460.92 Z" fill="#000000" fill-rule="evenodd" fill-opacity="1" /><path clip-path="url(#clip810)" d="M 0 0 M826.245 1437.61 L844.301 1437.61 L844.301 1439.23 L834.107 1465.69 L830.139 1465.69 L839.731 1440.81 L826.245 1440.81 L826.245 1437.61 Z" fill="#000000" fill-rule="evenodd" fill-opacity="1" /><path clip-path="url(#clip810)" d="M 0 0 M848.457 1437.61 L863.372 1437.61 L863.372 1440.81 L851.937 1440.81 L851.937 1447.69 Q852.764 1447.41 853.592 1447.28 Q854.42 1447.13 855.247 1447.13 Q859.949 1447.13 862.695 1449.71 Q865.441 1452.28 865.441 1456.68 Q865.441 1461.22 862.62 1463.74 Q859.799 1466.24 854.664 1466.24 Q852.896 1466.24 851.053 1465.94 Q849.229 1465.64 847.273 1465.04 L847.273 1461.22 Q848.965 1462.14 850.771 1462.59 Q852.576 1463.04 854.589 1463.04 Q857.843 1463.04 859.742 1461.33 Q861.642 1459.62 861.642 1456.68 Q861.642 1453.75 859.742 1452.04 Q857.843 1450.33 854.589 1450.33 Q853.065 1450.33 851.542 1450.67 Q850.037 1451 848.457 1451.72 L848.457 1437.61 Z" fill="#000000" fill-rule="evenodd" fill-opacity="1" /><path clip-path="url(#clip810)" d="M 0 0 M1222.13 1489.17 L1229.76 1489.17 L1229.76 1462.8 L1221.45 1464.47 L1221.45 1460.21 L1229.72 1458.54 L1234.39 1458.54 L1234.39 1489.17 L1242.03 1489.17 L1242.03 1493.1 L1222.13 1493.1 L1222.13 1489.17 Z" fill="#000000" fill-rule="evenodd" fill-opacity="1" /><path clip-path="url(#clip810)" d="M 0 0 M1257.1 1461.62 Q1253.49 1461.62 1251.66 1465.19 Q1249.86 1468.73 1249.86 1475.86 Q1249.86 1482.97 1251.66 1486.53 Q1253.49 1490.07 1257.1 1490.07 Q1260.74 1490.07 1262.54 1486.53 Q1264.37 1482.97 1264.37 1475.86 Q1264.37 1468.73 1262.54 1465.19 Q1260.74 1461.62 1257.1 1461.62 M1257.1 1457.92 Q1262.91 1457.92 1265.97 1462.53 Q1269.05 1467.11 1269.05 1475.86 Q1269.05 1484.59 1265.97 1489.19 Q1262.91 1493.78 1257.1 1493.78 Q1251.29 1493.78 1248.21 1489.19 Q1245.16 1484.59 1245.16 1475.86 Q1245.16 1467.11 1248.21 1462.53 Q1251.29 1457.92 1257.1 1457.92 Z" fill="#000000" fill-rule="evenodd" fill-opacity="1" /><path clip-path="url(#clip810)" d="M 0 0 M1269.05 1452.02 L1293.16 1452.02 L1293.16 1455.22 L1269.05 1455.22 L1269.05 1452.02 Z" fill="#000000" fill-rule="evenodd" fill-opacity="1" /><path clip-path="url(#clip810)" d="M 0 0 M1297.31 1437.61 L1312.23 1437.61 L1312.23 1440.81 L1300.79 1440.81 L1300.79 1447.69 Q1301.62 1447.41 1302.45 1447.28 Q1303.28 1447.13 1304.1 1447.13 Q1308.81 1447.13 1311.55 1449.71 Q1314.3 1452.28 1314.3 1456.68 Q1314.3 1461.22 1311.48 1463.74 Q1308.66 1466.24 1303.52 1466.24 Q1301.75 1466.24 1299.91 1465.94 Q1298.09 1465.64 1296.13 1465.04 L1296.13 1461.22 Q1297.82 1462.14 1299.63 1462.59 Q1301.43 1463.04 1303.45 1463.04 Q1306.7 1463.04 1308.6 1461.33 Q1310.5 1459.62 1310.5 1456.68 Q1310.5 1453.75 1308.6 1452.04 Q1306.7 1450.33 1303.45 1450.33 Q1301.92 1450.33 1300.4 1450.67 Q1298.89 1451 1297.31 1451.72 L1297.31 1437.61 Z" fill="#000000" fill-rule="evenodd" fill-opacity="1" /><path clip-path="url(#clip810)" d="M 0 0 M1318.42 1460.92 L1322.39 1460.92 L1322.39 1465.69 L1318.42 1465.69 L1318.42 1460.92 Z" fill="#000000" fill-rule="evenodd" fill-opacity="1" /><path clip-path="url(#clip810)" d="M 0 0 M1326.54 1437.61 L1341.46 1437.61 L1341.46 1440.81 L1330.02 1440.81 L1330.02 1447.69 Q1330.85 1447.41 1331.68 1447.28 Q1332.5 1447.13 1333.33 1447.13 Q1338.03 1447.13 1340.78 1449.71 Q1343.53 1452.28 1343.53 1456.68 Q1343.53 1461.22 1340.7 1463.74 Q1337.88 1466.24 1332.75 1466.24 Q1330.98 1466.24 1329.14 1465.94 Q1327.31 1465.64 1325.36 1465.04 L1325.36 1461.22 Q1327.05 1462.14 1328.85 1462.59 Q1330.66 1463.04 1332.67 1463.04 Q1335.93 1463.04 1337.83 1461.33 Q1339.73 1459.62 1339.73 1456.68 Q1339.73 1453.75 1337.83 1452.04 Q1335.93 1450.33 1332.67 1450.33 Q1331.15 1450.33 1329.63 1450.67 Q1328.12 1451 1326.54 1451.72 L1326.54 1437.61 Z" fill="#000000" fill-rule="evenodd" fill-opacity="1" /><path clip-path="url(#clip810)" d="M 0 0 M1355.77 1440.11 Q1352.83 1440.11 1351.35 1443.01 Q1349.88 1445.89 1349.88 1451.68 Q1349.88 1457.46 1351.35 1460.35 Q1352.83 1463.23 1355.77 1463.23 Q1358.72 1463.23 1360.19 1460.35 Q1361.67 1457.46 1361.67 1451.68 Q1361.67 1445.89 1360.19 1443.01 Q1358.72 1440.11 1355.77 1440.11 M1355.77 1437.11 Q1360.49 1437.11 1362.97 1440.85 Q1365.47 1444.57 1365.47 1451.68 Q1365.47 1458.77 1362.97 1462.51 Q1360.49 1466.24 1355.77 1466.24 Q1351.05 1466.24 1348.55 1462.51 Q1346.06 1458.77 1346.06 1451.68 Q1346.06 1444.57 1348.55 1440.85 Q1351.05 1437.11 1355.77 1437.11 Z" fill="#000000" fill-rule="evenodd" fill-opacity="1" /><path clip-path="url(#clip810)" d="M 0 0 M1722.44 1489.17 L1730.08 1489.17 L1730.08 1462.8 L1721.77 1464.47 L1721.77 1460.21 L1730.03 1458.54 L1734.71 1458.54 L1734.71 1489.17 L1742.35 1489.17 L1742.35 1493.1 L1722.44 1493.1 L1722.44 1489.17 Z" fill="#000000" fill-rule="evenodd" fill-opacity="1" /><path clip-path="url(#clip810)" d="M 0 0 M1757.42 1461.62 Q1753.81 1461.62 1751.98 1465.19 Q1750.17 1468.73 1750.17 1475.86 Q1750.17 1482.97 1751.98 1486.53 Q1753.81 1490.07 1757.42 1490.07 Q1761.05 1490.07 1762.86 1486.53 Q1764.69 1482.97 1764.69 1475.86 Q1764.69 1468.73 1762.86 1465.19 Q1761.05 1461.62 1757.42 1461.62 M1757.42 1457.92 Q1763.23 1457.92 1766.28 1462.53 Q1769.36 1467.11 1769.36 1475.86 Q1769.36 1484.59 1766.28 1489.19 Q1763.23 1493.78 1757.42 1493.78 Q1751.61 1493.78 1748.53 1489.19 Q1745.47 1484.59 1745.47 1475.86 Q1745.47 1467.11 1748.53 1462.53 Q1751.61 1457.92 1757.42 1457.92 Z" fill="#000000" fill-rule="evenodd" fill-opacity="1" /><path clip-path="url(#clip810)" d="M 0 0 M1769.36 1452.02 L1793.47 1452.02 L1793.47 1455.22 L1769.36 1455.22 L1769.36 1452.02 Z" fill="#000000" fill-rule="evenodd" fill-opacity="1" /><path clip-path="url(#clip810)" d="M 0 0 M1797.63 1437.61 L1812.54 1437.61 L1812.54 1440.81 L1801.11 1440.81 L1801.11 1447.69 Q1801.94 1447.41 1802.76 1447.28 Q1803.59 1447.13 1804.42 1447.13 Q1809.12 1447.13 1811.87 1449.71 Q1814.61 1452.28 1814.61 1456.68 Q1814.61 1461.22 1811.79 1463.74 Q1808.97 1466.24 1803.84 1466.24 Q1802.07 1466.24 1800.22 1465.94 Q1798.4 1465.64 1796.44 1465.04 L1796.44 1461.22 Q1798.14 1462.14 1799.94 1462.59 Q1801.75 1463.04 1803.76 1463.04 Q1807.01 1463.04 1808.91 1461.33 Q1810.81 1459.62 1810.81 1456.68 Q1810.81 1453.75 1808.91 1452.04 Q1807.01 1450.33 1803.76 1450.33 Q1802.24 1450.33 1800.71 1450.67 Q1799.21 1451 1797.63 1451.72 L1797.63 1437.61 Z" fill="#000000" fill-rule="evenodd" fill-opacity="1" /><path clip-path="url(#clip810)" d="M 0 0 M1818.73 1460.92 L1822.7 1460.92 L1822.7 1465.69 L1818.73 1465.69 L1818.73 1460.92 Z" fill="#000000" fill-rule="evenodd" fill-opacity="1" /><path clip-path="url(#clip810)" d="M 0 0 M1830.09 1462.5 L1843.35 1462.5 L1843.35 1465.69 L1825.52 1465.69 L1825.52 1462.5 Q1827.68 1460.26 1831.41 1456.5 Q1835.15 1452.72 1836.11 1451.63 Q1837.93 1449.58 1838.65 1448.16 Q1839.38 1446.74 1839.38 1445.36 Q1839.38 1443.12 1837.8 1441.71 Q1836.24 1440.3 1833.72 1440.3 Q1831.93 1440.3 1829.94 1440.92 Q1827.97 1441.54 1825.71 1442.8 L1825.71 1438.97 Q1828 1438.05 1830 1437.58 Q1831.99 1437.11 1833.65 1437.11 Q1838.01 1437.11 1840.61 1439.29 Q1843.2 1441.47 1843.2 1445.12 Q1843.2 1446.85 1842.54 1448.41 Q1841.9 1449.95 1840.19 1452.06 Q1839.72 1452.6 1837.2 1455.22 Q1834.68 1457.81 1830.09 1462.5 Z" fill="#000000" fill-rule="evenodd" fill-opacity="1" /><path clip-path="url(#clip810)" d="M 0 0 M1847.51 1437.61 L1862.42 1437.61 L1862.42 1440.81 L1850.99 1440.81 L1850.99 1447.69 Q1851.81 1447.41 1852.64 1447.28 Q1853.47 1447.13 1854.3 1447.13 Q1859 1447.13 1861.74 1449.71 Q1864.49 1452.28 1864.49 1456.68 Q1864.49 1461.22 1861.67 1463.74 Q1858.85 1466.24 1853.71 1466.24 Q1851.95 1466.24 1850.1 1465.94 Q1848.28 1465.64 1846.32 1465.04 L1846.32 1461.22 Q1848.02 1462.14 1849.82 1462.59 Q1851.63 1463.04 1853.64 1463.04 Q1856.89 1463.04 1858.79 1461.33 Q1860.69 1459.62 1860.69 1456.68 Q1860.69 1453.75 1858.79 1452.04 Q1856.89 1450.33 1853.64 1450.33 Q1852.12 1450.33 1850.59 1450.67 Q1849.09 1451 1847.51 1451.72 L1847.51 1437.61 Z" fill="#000000" fill-rule="evenodd" fill-opacity="1" /><path clip-path="url(#clip810)" d="M 0 0 M2221.05 1489.17 L2228.69 1489.17 L2228.69 1462.8 L2220.38 1464.47 L2220.38 1460.21 L2228.65 1458.54 L2233.32 1458.54 L2233.32 1489.17 L2240.96 1489.17 L2240.96 1493.1 L2221.05 1493.1 L2221.05 1489.17 Z" fill="#000000" fill-rule="evenodd" fill-opacity="1" /><path clip-path="url(#clip810)" d="M 0 0 M2256.03 1461.62 Q2252.42 1461.62 2250.59 1465.19 Q2248.78 1468.73 2248.78 1475.86 Q2248.78 1482.97 2250.59 1486.53 Q2252.42 1490.07 2256.03 1490.07 Q2259.66 1490.07 2261.47 1486.53 Q2263.3 1482.97 2263.3 1475.86 Q2263.3 1468.73 2261.47 1465.19 Q2259.66 1461.62 2256.03 1461.62 M2256.03 1457.92 Q2261.84 1457.92 2264.9 1462.53 Q2267.97 1467.11 2267.97 1475.86 Q2267.97 1484.59 2264.9 1489.19 Q2261.84 1493.78 2256.03 1493.78 Q2250.22 1493.78 2247.14 1489.19 Q2244.09 1484.59 2244.09 1475.86 Q2244.09 1467.11 2247.14 1462.53 Q2250.22 1457.92 2256.03 1457.92 Z" fill="#000000" fill-rule="evenodd" fill-opacity="1" /><path clip-path="url(#clip810)" d="M 0 0 M2267.97 1452.02 L2292.09 1452.02 L2292.09 1455.22 L2267.97 1455.22 L2267.97 1452.02 Z" fill="#000000" fill-rule="evenodd" fill-opacity="1" /><path clip-path="url(#clip810)" d="M 0 0 M2296.24 1437.61 L2311.16 1437.61 L2311.16 1440.81 L2299.72 1440.81 L2299.72 1447.69 Q2300.55 1447.41 2301.38 1447.28 Q2302.2 1447.13 2303.03 1447.13 Q2307.73 1447.13 2310.48 1449.71 Q2313.23 1452.28 2313.23 1456.68 Q2313.23 1461.22 2310.4 1463.74 Q2307.58 1466.24 2302.45 1466.24 Q2300.68 1466.24 2298.84 1465.94 Q2297.01 1465.64 2295.06 1465.04 L2295.06 1461.22 Q2296.75 1462.14 2298.56 1462.59 Q2300.36 1463.04 2302.37 1463.04 Q2305.63 1463.04 2307.53 1461.33 Q2309.43 1459.62 2309.43 1456.68 Q2309.43 1453.75 2307.53 1452.04 Q2305.63 1450.33 2302.37 1450.33 Q2300.85 1450.33 2299.33 1450.67 Q2297.82 1451 2296.24 1451.72 L2296.24 1437.61 Z" fill="#000000" fill-rule="evenodd" fill-opacity="1" /><path clip-path="url(#clip810)" d="M 0 0 M2317.34 1460.92 L2321.31 1460.92 L2321.31 1465.69 L2317.34 1465.69 L2317.34 1460.92 Z" fill="#000000" fill-rule="evenodd" fill-opacity="1" /><path clip-path="url(#clip810)" d="M 0 0 M2333.56 1440.11 Q2330.62 1440.11 2329.14 1443.01 Q2327.67 1445.89 2327.67 1451.68 Q2327.67 1457.46 2329.14 1460.35 Q2330.62 1463.23 2333.56 1463.23 Q2336.51 1463.23 2337.98 1460.35 Q2339.46 1457.46 2339.46 1451.68 Q2339.46 1445.89 2337.98 1443.01 Q2336.51 1440.11 2333.56 1440.11 M2333.56 1437.11 Q2338.28 1437.11 2340.76 1440.85 Q2343.26 1444.57 2343.26 1451.68 Q2343.26 1458.77 2340.76 1462.51 Q2338.28 1466.24 2333.56 1466.24 Q2328.84 1466.24 2326.33 1462.51 Q2323.85 1458.77 2323.85 1451.68 Q2323.85 1444.57 2326.33 1440.85 Q2328.84 1437.11 2333.56 1437.11 Z" fill="#000000" fill-rule="evenodd" fill-opacity="1" /><path clip-path="url(#clip810)" d="M 0 0 M2355.51 1440.11 Q2352.57 1440.11 2351.09 1443.01 Q2349.62 1445.89 2349.62 1451.68 Q2349.62 1457.46 2351.09 1460.35 Q2352.57 1463.23 2355.51 1463.23 Q2358.46 1463.23 2359.93 1460.35 Q2361.41 1457.46 2361.41 1451.68 Q2361.41 1445.89 2359.93 1443.01 Q2358.46 1440.11 2355.51 1440.11 M2355.51 1437.11 Q2360.23 1437.11 2362.71 1440.85 Q2365.21 1444.57 2365.21 1451.68 Q2365.21 1458.77 2362.71 1462.51 Q2360.23 1466.24 2355.51 1466.24 Q2350.78 1466.24 2348.28 1462.51 Q2345.8 1458.77 2345.8 1451.68 Q2345.8 1444.57 2348.28 1440.85 Q2350.78 1437.11 2355.51 1437.11 Z" fill="#000000" fill-rule="evenodd" fill-opacity="1" /><path clip-path="url(#clip810)" d="M 0 0 M1186.23 1526.54 L1192.44 1526.54 L1203.58 1556.46 L1214.72 1526.54 L1220.93 1526.54 L1207.56 1562.19 L1199.6 1562.19 L1186.23 1526.54 Z" fill="#000000" fill-rule="evenodd" fill-opacity="1" /><path clip-path="url(#clip810)" d="M 0 0 M1254.16 1573.01 L1254.16 1577.56 L1220.29 1577.56 L1220.29 1573.01 L1254.16 1573.01 Z" fill="#000000" fill-rule="evenodd" fill-opacity="1" /><path clip-path="url(#clip810)" d="M 0 0 M1274.11 1530.64 Q1269.4 1530.64 1266.66 1534.34 Q1263.93 1538 1263.93 1544.39 Q1263.93 1550.79 1266.63 1554.48 Q1269.37 1558.14 1274.11 1558.14 Q1278.79 1558.14 1281.53 1554.45 Q1284.27 1550.76 1284.27 1544.39 Q1284.27 1538.06 1281.53 1534.37 Q1278.79 1530.64 1274.11 1530.64 M1274.11 1525.68 Q1281.75 1525.68 1286.11 1530.64 Q1290.47 1535.61 1290.47 1544.39 Q1290.47 1553.15 1286.11 1558.14 Q1281.75 1563.11 1274.11 1563.11 Q1266.44 1563.11 1262.08 1558.14 Q1257.75 1553.15 1257.75 1544.39 Q1257.75 1535.61 1262.08 1530.64 Q1266.44 1525.68 1274.11 1525.68 Z" fill="#000000" fill-rule="evenodd" fill-opacity="1" /><path clip-path="url(#clip810)" d="M 0 0 M1302.28 1556.84 L1302.28 1575.74 L1296.39 1575.74 L1296.39 1526.54 L1302.28 1526.54 L1302.28 1531.95 Q1304.13 1528.77 1306.93 1527.24 Q1309.76 1525.68 1313.67 1525.68 Q1320.17 1525.68 1324.21 1530.83 Q1328.28 1535.99 1328.28 1544.39 Q1328.28 1552.8 1324.21 1557.95 Q1320.17 1563.11 1313.67 1563.11 Q1309.76 1563.11 1306.93 1561.58 Q1304.13 1560.02 1302.28 1556.84 M1322.2 1544.39 Q1322.2 1537.93 1319.53 1534.27 Q1316.89 1530.58 1312.24 1530.58 Q1307.6 1530.58 1304.92 1534.27 Q1302.28 1537.93 1302.28 1544.39 Q1302.28 1550.85 1304.92 1554.55 Q1307.6 1558.21 1312.24 1558.21 Q1316.89 1558.21 1319.53 1554.55 Q1322.2 1550.85 1322.2 1544.39 Z" fill="#000000" fill-rule="evenodd" fill-opacity="1" /><path clip-path="url(#clip810)" d="M 0 0 M1364.92 1542.9 L1364.92 1545.76 L1337.99 1545.76 Q1338.37 1551.81 1341.62 1554.99 Q1344.9 1558.14 1350.72 1558.14 Q1354.1 1558.14 1357.25 1557.32 Q1360.43 1556.49 1363.55 1554.83 L1363.55 1560.37 Q1360.4 1561.71 1357.09 1562.41 Q1353.78 1563.11 1350.37 1563.11 Q1341.84 1563.11 1336.85 1558.14 Q1331.88 1553.18 1331.88 1544.71 Q1331.88 1535.96 1336.59 1530.83 Q1341.33 1525.68 1349.35 1525.68 Q1356.55 1525.68 1360.72 1530.33 Q1364.92 1534.94 1364.92 1542.9 M1359.06 1541.18 Q1359 1536.37 1356.36 1533.51 Q1353.75 1530.64 1349.42 1530.64 Q1344.52 1530.64 1341.56 1533.41 Q1338.63 1536.18 1338.18 1541.21 L1359.06 1541.18 Z" fill="#000000" fill-rule="evenodd" fill-opacity="1" /><path clip-path="url(#clip810)" d="M 0 0 M1400.69 1540.67 L1400.69 1562.19 L1394.84 1562.19 L1394.84 1540.86 Q1394.84 1535.8 1392.86 1533.29 Q1390.89 1530.77 1386.94 1530.77 Q1382.2 1530.77 1379.46 1533.79 Q1376.73 1536.82 1376.73 1542.04 L1376.73 1562.19 L1370.84 1562.19 L1370.84 1526.54 L1376.73 1526.54 L1376.73 1532.08 Q1378.83 1528.86 1381.66 1527.27 Q1384.53 1525.68 1388.25 1525.68 Q1394.39 1525.68 1397.54 1529.5 Q1400.69 1533.29 1400.69 1540.67 Z" fill="#000000" fill-rule="evenodd" fill-opacity="1" /><polyline clip-path="url(#clip812)" style="stroke:#000000; stroke-width:2; stroke-opacity:0.1; fill:none" points="
  234.172,1313.33 2352.76,1313.33 
  "/>
<polyline clip-path="url(#clip812)" style="stroke:#000000; stroke-width:2; stroke-opacity:0.1; fill:none" points="
  234.172,919.014 2352.76,919.014 
  "/>
<polyline clip-path="url(#clip812)" style="stroke:#000000; stroke-width:2; stroke-opacity:0.1; fill:none" points="
  234.172,524.702 2352.76,524.702 
  "/>
<polyline clip-path="url(#clip812)" style="stroke:#000000; stroke-width:2; stroke-opacity:0.1; fill:none" points="
  234.172,130.389 2352.76,130.389 
  "/>
<polyline clip-path="url(#clip810)" style="stroke:#000000; stroke-width:4; stroke-opacity:1; fill:none" points="
  234.172,1410.9 234.172,47.2441 
  "/>
<polyline clip-path="url(#clip810)" style="stroke:#000000; stroke-width:4; stroke-opacity:1; fill:none" points="
  234.172,1313.33 259.595,1313.33 
  "/>
<polyline clip-path="url(#clip810)" style="stroke:#000000; stroke-width:4; stroke-opacity:1; fill:none" points="
  234.172,919.014 259.595,919.014 
  "/>
<polyline clip-path="url(#clip810)" style="stroke:#000000; stroke-width:4; stroke-opacity:1; fill:none" points="
  234.172,524.702 259.595,524.702 
  "/>
<polyline clip-path="url(#clip810)" style="stroke:#000000; stroke-width:4; stroke-opacity:1; fill:none" points="
  234.172,130.389 259.595,130.389 
  "/>
<path clip-path="url(#clip810)" d="M 0 0 M115.881 1326.67 L123.519 1326.67 L123.519 1300.31 L115.209 1301.97 L115.209 1297.71 L123.473 1296.05 L128.149 1296.05 L128.149 1326.67 L135.788 1326.67 L135.788 1330.61 L115.881 1330.61 L115.881 1326.67 Z" fill="#000000" fill-rule="evenodd" fill-opacity="1" /><path clip-path="url(#clip810)" d="M 0 0 M144.885 1326.67 L161.204 1326.67 L161.204 1330.61 L139.26 1330.61 L139.26 1326.67 Q141.922 1323.92 146.505 1319.29 Q151.112 1314.63 152.292 1313.29 Q154.538 1310.77 155.417 1309.03 Q156.32 1307.27 156.32 1305.58 Q156.32 1302.83 154.376 1301.09 Q152.454 1299.36 149.353 1299.36 Q147.153 1299.36 144.7 1300.12 Q142.269 1300.88 139.492 1302.44 L139.492 1297.71 Q142.316 1296.58 144.769 1296 Q147.223 1295.42 149.26 1295.42 Q154.63 1295.42 157.825 1298.11 Q161.019 1300.79 161.019 1305.28 Q161.019 1307.41 160.209 1309.33 Q159.422 1311.23 157.315 1313.82 Q156.737 1314.5 153.635 1317.71 Q150.533 1320.91 144.885 1326.67 Z" fill="#000000" fill-rule="evenodd" fill-opacity="1" /><path clip-path="url(#clip810)" d="M 0 0 M166.274 1324.73 L171.158 1324.73 L171.158 1330.61 L166.274 1330.61 L166.274 1324.73 Z" fill="#000000" fill-rule="evenodd" fill-opacity="1" /><path clip-path="url(#clip810)" d="M 0 0 M186.227 1299.13 Q182.616 1299.13 180.788 1302.69 Q178.982 1306.23 178.982 1313.36 Q178.982 1320.47 180.788 1324.03 Q182.616 1327.57 186.227 1327.57 Q189.862 1327.57 191.667 1324.03 Q193.496 1320.47 193.496 1313.36 Q193.496 1306.23 191.667 1302.69 Q189.862 1299.13 186.227 1299.13 M186.227 1295.42 Q192.038 1295.42 195.093 1300.03 Q198.172 1304.61 198.172 1313.36 Q198.172 1322.09 195.093 1326.69 Q192.038 1331.28 186.227 1331.28 Q180.417 1331.28 177.339 1326.69 Q174.283 1322.09 174.283 1313.36 Q174.283 1304.61 177.339 1300.03 Q180.417 1295.42 186.227 1295.42 Z" fill="#000000" fill-rule="evenodd" fill-opacity="1" /><path clip-path="url(#clip810)" d="M 0 0 M116.876 932.359 L124.515 932.359 L124.515 905.993 L116.205 907.66 L116.205 903.401 L124.468 901.734 L129.144 901.734 L129.144 932.359 L136.783 932.359 L136.783 936.294 L116.876 936.294 L116.876 932.359 Z" fill="#000000" fill-rule="evenodd" fill-opacity="1" /><path clip-path="url(#clip810)" d="M 0 0 M145.88 932.359 L162.2 932.359 L162.2 936.294 L140.255 936.294 L140.255 932.359 Q142.917 929.604 147.501 924.975 Q152.107 920.322 153.288 918.979 Q155.533 916.456 156.413 914.72 Q157.315 912.961 157.315 911.271 Q157.315 908.516 155.371 906.78 Q153.45 905.044 150.348 905.044 Q148.149 905.044 145.695 905.808 Q143.265 906.572 140.487 908.123 L140.487 903.401 Q143.311 902.267 145.765 901.688 Q148.218 901.109 150.255 901.109 Q155.626 901.109 158.82 903.794 Q162.015 906.479 162.015 910.97 Q162.015 913.1 161.204 915.021 Q160.417 916.919 158.311 919.512 Q157.732 920.183 154.63 923.401 Q151.528 926.595 145.88 932.359 Z" fill="#000000" fill-rule="evenodd" fill-opacity="1" /><path clip-path="url(#clip810)" d="M 0 0 M167.269 930.415 L172.153 930.415 L172.153 936.294 L167.269 936.294 L167.269 930.415 Z" fill="#000000" fill-rule="evenodd" fill-opacity="1" /><path clip-path="url(#clip810)" d="M 0 0 M177.269 901.734 L195.625 901.734 L195.625 905.669 L181.551 905.669 L181.551 914.141 Q182.57 913.794 183.588 913.632 Q184.607 913.447 185.626 913.447 Q191.413 913.447 194.792 916.618 Q198.172 919.79 198.172 925.206 Q198.172 930.785 194.7 933.887 Q191.227 936.965 184.908 936.965 Q182.732 936.965 180.464 936.595 Q178.218 936.225 175.811 935.484 L175.811 930.785 Q177.894 931.919 180.116 932.475 Q182.338 933.03 184.815 933.03 Q188.82 933.03 191.158 930.924 Q193.496 928.817 193.496 925.206 Q193.496 921.595 191.158 919.489 Q188.82 917.382 184.815 917.382 Q182.94 917.382 181.065 917.799 Q179.214 918.215 177.269 919.095 L177.269 901.734 Z" fill="#000000" fill-rule="evenodd" fill-opacity="1" /><path clip-path="url(#clip810)" d="M 0 0 M114.931 538.046 L122.57 538.046 L122.57 511.681 L114.26 513.347 L114.26 509.088 L122.524 507.422 L127.2 507.422 L127.2 538.046 L134.839 538.046 L134.839 541.982 L114.931 541.982 L114.931 538.046 Z" fill="#000000" fill-rule="evenodd" fill-opacity="1" /><path clip-path="url(#clip810)" d="M 0 0 M154.075 523.347 Q157.431 524.065 159.306 526.333 Q161.204 528.602 161.204 531.935 Q161.204 537.051 157.686 539.852 Q154.167 542.653 147.686 542.653 Q145.51 542.653 143.195 542.213 Q140.904 541.796 138.45 540.94 L138.45 536.426 Q140.394 537.56 142.709 538.139 Q145.024 538.718 147.547 538.718 Q151.945 538.718 154.237 536.982 Q156.552 535.245 156.552 531.935 Q156.552 528.88 154.399 527.167 Q152.269 525.431 148.45 525.431 L144.422 525.431 L144.422 521.588 L148.635 521.588 Q152.084 521.588 153.913 520.222 Q155.741 518.833 155.741 516.241 Q155.741 513.579 153.843 512.167 Q151.968 510.732 148.45 510.732 Q146.529 510.732 144.329 511.148 Q142.13 511.565 139.492 512.445 L139.492 508.278 Q142.154 507.537 144.468 507.167 Q146.806 506.797 148.866 506.797 Q154.19 506.797 157.292 509.227 Q160.394 511.634 160.394 515.755 Q160.394 518.625 158.751 520.616 Q157.107 522.583 154.075 523.347 Z" fill="#000000" fill-rule="evenodd" fill-opacity="1" /><path clip-path="url(#clip810)" d="M 0 0 M166.274 536.102 L171.158 536.102 L171.158 541.982 L166.274 541.982 L166.274 536.102 Z" fill="#000000" fill-rule="evenodd" fill-opacity="1" /><path clip-path="url(#clip810)" d="M 0 0 M186.227 510.5 Q182.616 510.5 180.788 514.065 Q178.982 517.607 178.982 524.736 Q178.982 531.843 180.788 535.407 Q182.616 538.949 186.227 538.949 Q189.862 538.949 191.667 535.407 Q193.496 531.843 193.496 524.736 Q193.496 517.607 191.667 514.065 Q189.862 510.5 186.227 510.5 M186.227 506.797 Q192.038 506.797 195.093 511.403 Q198.172 515.986 198.172 524.736 Q198.172 533.463 195.093 538.07 Q192.038 542.653 186.227 542.653 Q180.417 542.653 177.339 538.07 Q174.283 533.463 174.283 524.736 Q174.283 515.986 177.339 511.403 Q180.417 506.797 186.227 506.797 Z" fill="#000000" fill-rule="evenodd" fill-opacity="1" /><path clip-path="url(#clip810)" d="M 0 0 M115.927 143.734 L123.566 143.734 L123.566 117.368 L115.256 119.035 L115.256 114.776 L123.519 113.109 L128.195 113.109 L128.195 143.734 L135.834 143.734 L135.834 147.669 L115.927 147.669 L115.927 143.734 Z" fill="#000000" fill-rule="evenodd" fill-opacity="1" /><path clip-path="url(#clip810)" d="M 0 0 M155.07 129.035 Q158.427 129.752 160.302 132.021 Q162.2 134.289 162.2 137.623 Q162.2 142.738 158.681 145.539 Q155.163 148.34 148.681 148.34 Q146.505 148.34 144.191 147.9 Q141.899 147.484 139.445 146.627 L139.445 142.113 Q141.39 143.248 143.704 143.826 Q146.019 144.405 148.542 144.405 Q152.941 144.405 155.232 142.669 Q157.547 140.933 157.547 137.623 Q157.547 134.567 155.394 132.854 Q153.265 131.118 149.445 131.118 L145.417 131.118 L145.417 127.276 L149.63 127.276 Q153.079 127.276 154.908 125.91 Q156.737 124.521 156.737 121.928 Q156.737 119.266 154.839 117.854 Q152.964 116.419 149.445 116.419 Q147.524 116.419 145.325 116.836 Q143.126 117.252 140.487 118.132 L140.487 113.965 Q143.149 113.225 145.464 112.854 Q147.802 112.484 149.862 112.484 Q155.186 112.484 158.288 114.914 Q161.39 117.322 161.39 121.442 Q161.39 124.313 159.746 126.303 Q158.103 128.271 155.07 129.035 Z" fill="#000000" fill-rule="evenodd" fill-opacity="1" /><path clip-path="url(#clip810)" d="M 0 0 M167.269 141.789 L172.153 141.789 L172.153 147.669 L167.269 147.669 L167.269 141.789 Z" fill="#000000" fill-rule="evenodd" fill-opacity="1" /><path clip-path="url(#clip810)" d="M 0 0 M177.269 113.109 L195.625 113.109 L195.625 117.044 L181.551 117.044 L181.551 125.516 Q182.57 125.169 183.588 125.007 Q184.607 124.822 185.626 124.822 Q191.413 124.822 194.792 127.993 Q198.172 131.164 198.172 136.581 Q198.172 142.16 194.7 145.262 Q191.227 148.34 184.908 148.34 Q182.732 148.34 180.464 147.97 Q178.218 147.599 175.811 146.859 L175.811 142.16 Q177.894 143.294 180.116 143.85 Q182.338 144.405 184.815 144.405 Q188.82 144.405 191.158 142.299 Q193.496 140.192 193.496 136.581 Q193.496 132.97 191.158 130.863 Q188.82 128.757 184.815 128.757 Q182.94 128.757 181.065 129.174 Q179.214 129.59 177.269 130.47 L177.269 113.109 Z" fill="#000000" fill-rule="evenodd" fill-opacity="1" /><path clip-path="url(#clip810)" d="M 0 0 M59.1993 815.533 Q55.2526 813.336 53.3747 810.281 Q51.4968 807.225 51.4968 803.088 Q51.4968 797.518 55.4117 794.494 Q59.2948 791.47 66.4881 791.47 L88.0042 791.47 L88.0042 797.358 L66.679 797.358 Q61.5546 797.358 59.072 799.173 Q56.5894 800.987 56.5894 804.711 Q56.5894 809.262 59.6131 811.904 Q62.6368 814.546 67.8567 814.546 L88.0042 814.546 L88.0042 820.434 L66.679 820.434 Q61.5228 820.434 59.072 822.248 Q56.5894 824.063 56.5894 827.85 Q56.5894 832.338 59.6449 834.98 Q62.6686 837.622 67.8567 837.622 L88.0042 837.622 L88.0042 843.51 L52.3562 843.51 L52.3562 837.622 L57.8944 837.622 Q54.616 835.616 53.0564 832.815 Q51.4968 830.015 51.4968 826.163 Q51.4968 822.28 53.4702 819.575 Q55.4436 816.838 59.1993 815.533 Z" fill="#000000" fill-rule="evenodd" fill-opacity="1" /><path clip-path="url(#clip810)" d="M 0 0 M52.3562 785.327 L52.3562 779.471 L88.0042 779.471 L88.0042 785.327 L52.3562 785.327 M38.479 785.327 L38.479 779.471 L45.895 779.471 L45.895 785.327 L38.479 785.327 Z" fill="#000000" fill-rule="evenodd" fill-opacity="1" /><path clip-path="url(#clip810)" d="M 0 0 M66.4881 743.696 L88.0042 743.696 L88.0042 749.552 L66.679 749.552 Q61.6183 749.552 59.1038 751.525 Q56.5894 753.499 56.5894 757.446 Q56.5894 762.188 59.6131 764.925 Q62.6368 767.662 67.8567 767.662 L88.0042 767.662 L88.0042 773.551 L52.3562 773.551 L52.3562 767.662 L57.8944 767.662 Q54.6797 765.562 53.0883 762.729 Q51.4968 759.864 51.4968 756.141 Q51.4968 749.998 55.3163 746.847 Q59.1038 743.696 66.4881 743.696 Z" fill="#000000" fill-rule="evenodd" fill-opacity="1" /><path clip-path="url(#clip810)" d="M 0 0 M98.8259 710.467 L103.377 710.467 L103.377 744.332 L98.8259 744.332 L98.8259 710.467 Z" fill="#000000" fill-rule="evenodd" fill-opacity="1" /><path clip-path="url(#clip810)" d="M 0 0 M57.7671 680.866 L38.479 680.866 L38.479 675.01 L88.0042 675.01 L88.0042 680.866 L82.657 680.866 Q85.8398 682.712 87.3994 685.545 Q88.9272 688.346 88.9272 692.292 Q88.9272 698.754 83.771 702.828 Q78.6147 706.87 70.212 706.87 Q61.8093 706.87 56.6531 702.828 Q51.4968 698.754 51.4968 692.292 Q51.4968 688.346 53.0564 685.545 Q54.5842 682.712 57.7671 680.866 M70.212 700.823 Q76.6732 700.823 80.3653 698.181 Q84.0256 695.507 84.0256 690.86 Q84.0256 686.213 80.3653 683.54 Q76.6732 680.866 70.212 680.866 Q63.7508 680.866 60.0905 683.54 Q56.3984 686.213 56.3984 690.86 Q56.3984 695.507 60.0905 698.181 Q63.7508 700.823 70.212 700.823 Z" fill="#000000" fill-rule="evenodd" fill-opacity="1" /><path clip-path="url(#clip810)" d="M 0 0 M52.3562 668.867 L52.3562 663.01 L88.0042 663.01 L88.0042 668.867 L52.3562 668.867 M38.479 668.867 L38.479 663.01 L45.895 663.01 L45.895 668.867 L38.479 668.867 Z" fill="#000000" fill-rule="evenodd" fill-opacity="1" /><path clip-path="url(#clip810)" d="M 0 0 M38.479 638.821 L43.3487 638.821 L43.3487 644.422 Q43.3487 647.573 44.6219 648.815 Q45.895 650.024 49.2052 650.024 L52.3562 650.024 L52.3562 640.38 L56.9077 640.38 L56.9077 650.024 L88.0042 650.024 L88.0042 655.912 L56.9077 655.912 L56.9077 661.514 L52.3562 661.514 L52.3562 655.912 L49.8736 655.912 Q43.9216 655.912 41.2162 653.143 Q38.479 650.374 38.479 644.359 L38.479 638.821 Z" fill="#000000" fill-rule="evenodd" fill-opacity="1" /><path clip-path="url(#clip810)" d="M 0 0 M38.479 614.631 L43.3487 614.631 L43.3487 620.233 Q43.3487 623.384 44.6219 624.625 Q45.895 625.835 49.2052 625.835 L52.3562 625.835 L52.3562 616.19 L56.9077 616.19 L56.9077 625.835 L88.0042 625.835 L88.0042 631.723 L56.9077 631.723 L56.9077 637.325 L52.3562 637.325 L52.3562 631.723 L49.8736 631.723 Q43.9216 631.723 41.2162 628.954 Q38.479 626.185 38.479 620.169 L38.479 614.631 Z" fill="#000000" fill-rule="evenodd" fill-opacity="1" /><polyline clip-path="url(#clip812)" style="stroke:#009af9; stroke-width:20; stroke-opacity:1; fill:none" stroke-dasharray="80, 50" points="
  294.132,1372.3 1293.46,376.003 2292.8,85.838 
  "/>
<path clip-path="url(#clip810)" d="
M1995.72 213.659 L2282.14 213.659 L2282.14 92.6992 L1995.72 92.6992  Z
  " fill="#ffffff" fill-rule="evenodd" fill-opacity="1"/>
<polyline clip-path="url(#clip810)" style="stroke:#000000; stroke-width:4; stroke-opacity:1; fill:none" points="
  1995.72,213.659 2282.14,213.659 2282.14,92.6992 1995.72,92.6992 1995.72,213.659 
  "/>
<polyline clip-path="url(#clip810)" style="stroke:#009af9; stroke-width:4; stroke-opacity:1; fill:none" stroke-dasharray="16, 10" points="
  2019.26,153.179 2160.5,153.179 
  "/>
<path clip-path="url(#clip810)" d="M 0 0 M2197.88 172.867 Q2196.08 177.496 2194.36 178.908 Q2192.65 180.32 2189.78 180.32 L2186.38 180.32 L2186.38 176.755 L2188.88 176.755 Q2190.64 176.755 2191.61 175.922 Q2192.58 175.089 2193.76 171.987 L2194.52 170.043 L2184.04 144.533 L2188.55 144.533 L2196.65 164.811 L2204.76 144.533 L2209.27 144.533 L2197.88 172.867 Z" fill="#000000" fill-rule="evenodd" fill-opacity="1" /><path clip-path="url(#clip810)" d="M 0 0 M2215.15 166.524 L2222.79 166.524 L2222.79 140.158 L2214.48 141.825 L2214.48 137.566 L2222.74 135.899 L2227.42 135.899 L2227.42 166.524 L2235.06 166.524 L2235.06 170.459 L2215.15 170.459 L2215.15 166.524 Z" fill="#000000" fill-rule="evenodd" fill-opacity="1" /></svg>
