<?xml version="1.0" encoding="utf-8"?>
<svg xmlns="http://www.w3.org/2000/svg" xmlns:xlink="http://www.w3.org/1999/xlink" width="600" height="400" viewBox="0 0 2400 1600">
<defs>
  <clipPath id="clip480">
    <rect x="0" y="0" width="2400" height="1600"/>
  </clipPath>
</defs>
<path clip-path="url(#clip480)" d="
M0 1600 L2400 1600 L2400 0 L0 0  Z
  " fill="#ffffff" fill-rule="evenodd" fill-opacity="1"/>
<defs>
  <clipPath id="clip481">
    <rect x="480" y="0" width="1681" height="1600"/>
  </clipPath>
</defs>
<path clip-path="url(#clip480)" d="
M175.445 1410.9 L2352.76 1410.9 L2352.76 47.2441 L175.445 47.2441  Z
  " fill="#ffffff" fill-rule="evenodd" fill-opacity="1"/>
<defs>
  <clipPath id="clip482">
    <rect x="175" y="47" width="2178" height="1365"/>
  </clipPath>
</defs>
<polyline clip-path="url(#clip482)" style="stroke:#000000; stroke-width:2; stroke-opacity:0.1; fill:none" points="
  442.474,1410.9 442.474,47.2441 
  "/>
<polyline clip-path="url(#clip482)" style="stroke:#000000; stroke-width:2; stroke-opacity:0.1; fill:none" points="
  853.287,1410.9 853.287,47.2441 
  "/>
<polyline clip-path="url(#clip482)" style="stroke:#000000; stroke-width:2; stroke-opacity:0.1; fill:none" points="
  1264.1,1410.9 1264.1,47.2441 
  "/>
<polyline clip-path="url(#clip482)" style="stroke:#000000; stroke-width:2; stroke-opacity:0.1; fill:none" points="
  1674.91,1410.9 1674.91,47.2441 
  "/>
<polyline clip-path="url(#clip482)" style="stroke:#000000; stroke-width:2; stroke-opacity:0.1; fill:none" points="
  2085.73,1410.9 2085.73,47.2441 
  "/>
<polyline clip-path="url(#clip480)" style="stroke:#000000; stroke-width:4; stroke-opacity:1; fill:none" points="
  175.445,1410.9 2352.76,1410.9 
  "/>
<polyline clip-path="url(#clip480)" style="stroke:#000000; stroke-width:4; stroke-opacity:1; fill:none" points="
  442.474,1410.9 442.474,1394.53 
  "/>
<polyline clip-path="url(#clip480)" style="stroke:#000000; stroke-width:4; stroke-opacity:1; fill:none" points="
  853.287,1410.9 853.287,1394.53 
  "/>
<polyline clip-path="url(#clip480)" style="stroke:#000000; stroke-width:4; stroke-opacity:1; fill:none" points="
  1264.1,1410.9 1264.1,1394.53 
  "/>
<polyline clip-path="url(#clip480)" style="stroke:#000000; stroke-width:4; stroke-opacity:1; fill:none" points="
  1674.91,1410.9 1674.91,1394.53 
  "/>
<polyline clip-path="url(#clip480)" style="stroke:#000000; stroke-width:4; stroke-opacity:1; fill:none" points="
  2085.73,1410.9 2085.73,1394.53 
  "/>
<path clip-path="url(#clip480)" d="M 0 0 M381.367 1489.17 L389.006 1489.17 L389.006 1462.8 L380.695 1464.47 L380.695 1460.21 L388.959 1458.54 L393.635 1458.54 L393.635 1489.17 L401.274 1489.17 L401.274 1493.1 L381.367 1493.1 L381.367 1489.17 Z" fill="#000000" fill-rule="evenodd" fill-opacity="1" /><path clip-path="url(#clip480)" d="M 0 0 M416.343 1461.62 Q412.732 1461.62 410.904 1465.19 Q409.098 1468.73 409.098 1475.86 Q409.098 1482.97 410.904 1486.53 Q412.732 1490.07 416.343 1490.07 Q419.978 1490.07 421.783 1486.53 Q423.612 1482.97 423.612 1475.86 Q423.612 1468.73 421.783 1465.19 Q419.978 1461.62 416.343 1461.62 M416.343 1457.92 Q422.154 1457.92 425.209 1462.53 Q428.288 1467.11 428.288 1475.86 Q428.288 1484.59 425.209 1489.19 Q422.154 1493.78 416.343 1493.78 Q410.533 1493.78 407.455 1489.19 Q404.399 1484.59 404.399 1475.86 Q404.399 1467.11 407.455 1462.53 Q410.533 1457.92 416.343 1457.92 Z" fill="#000000" fill-rule="evenodd" fill-opacity="1" /><path clip-path="url(#clip480)" d="M 0 0 M428.288 1452.02 L452.399 1452.02 L452.399 1455.22 L428.288 1455.22 L428.288 1452.02 Z" fill="#000000" fill-rule="evenodd" fill-opacity="1" /><path clip-path="url(#clip480)" d="M 0 0 M468.029 1450.55 Q470.756 1451.14 472.279 1452.98 Q473.821 1454.82 473.821 1457.53 Q473.821 1461.69 470.963 1463.96 Q468.104 1466.24 462.838 1466.24 Q461.07 1466.24 459.189 1465.88 Q457.327 1465.54 455.333 1464.85 L455.333 1461.18 Q456.913 1462.1 458.794 1462.57 Q460.675 1463.04 462.725 1463.04 Q466.298 1463.04 468.16 1461.63 Q470.041 1460.22 470.041 1457.53 Q470.041 1455.05 468.292 1453.66 Q466.562 1452.25 463.458 1452.25 L460.186 1452.25 L460.186 1449.12 L463.609 1449.12 Q466.411 1449.12 467.897 1448.01 Q469.383 1446.89 469.383 1444.78 Q469.383 1442.62 467.84 1441.47 Q466.317 1440.3 463.458 1440.3 Q461.897 1440.3 460.111 1440.64 Q458.324 1440.98 456.18 1441.69 L456.18 1438.31 Q458.343 1437.71 460.223 1437.41 Q462.123 1437.11 463.797 1437.11 Q468.123 1437.11 470.643 1439.08 Q473.163 1441.04 473.163 1444.38 Q473.163 1446.72 471.828 1448.33 Q470.492 1449.93 468.029 1450.55 Z" fill="#000000" fill-rule="evenodd" fill-opacity="1" /><path clip-path="url(#clip480)" d="M 0 0 M477.94 1460.92 L481.909 1460.92 L481.909 1465.69 L477.94 1465.69 L477.94 1460.92 Z" fill="#000000" fill-rule="evenodd" fill-opacity="1" /><path clip-path="url(#clip480)" d="M 0 0 M496.466 1440.92 L486.874 1455.91 L496.466 1455.91 L496.466 1440.92 M495.469 1437.61 L500.246 1437.61 L500.246 1455.91 L504.252 1455.91 L504.252 1459.07 L500.246 1459.07 L500.246 1465.69 L496.466 1465.69 L496.466 1459.07 L483.789 1459.07 L483.789 1455.41 L495.469 1437.61 Z" fill="#000000" fill-rule="evenodd" fill-opacity="1" /><path clip-path="url(#clip480)" d="M 0 0 M793.026 1489.17 L800.665 1489.17 L800.665 1462.8 L792.355 1464.47 L792.355 1460.21 L800.619 1458.54 L805.295 1458.54 L805.295 1489.17 L812.934 1489.17 L812.934 1493.1 L793.026 1493.1 L793.026 1489.17 Z" fill="#000000" fill-rule="evenodd" fill-opacity="1" /><path clip-path="url(#clip480)" d="M 0 0 M828.003 1461.62 Q824.392 1461.62 822.563 1465.19 Q820.758 1468.73 820.758 1475.86 Q820.758 1482.97 822.563 1486.53 Q824.392 1490.07 828.003 1490.07 Q831.637 1490.07 833.443 1486.53 Q835.272 1482.97 835.272 1475.86 Q835.272 1468.73 833.443 1465.19 Q831.637 1461.62 828.003 1461.62 M828.003 1457.92 Q833.813 1457.92 836.869 1462.53 Q839.947 1467.11 839.947 1475.86 Q839.947 1484.59 836.869 1489.19 Q833.813 1493.78 828.003 1493.78 Q822.193 1493.78 819.114 1489.19 Q816.059 1484.59 816.059 1475.86 Q816.059 1467.11 819.114 1462.53 Q822.193 1457.92 828.003 1457.92 Z" fill="#000000" fill-rule="evenodd" fill-opacity="1" /><path clip-path="url(#clip480)" d="M 0 0 M839.947 1452.02 L864.059 1452.02 L864.059 1455.22 L839.947 1455.22 L839.947 1452.02 Z" fill="#000000" fill-rule="evenodd" fill-opacity="1" /><path clip-path="url(#clip480)" d="M 0 0 M879.688 1450.55 Q882.415 1451.14 883.939 1452.98 Q885.481 1454.82 885.481 1457.53 Q885.481 1461.69 882.622 1463.96 Q879.763 1466.24 874.497 1466.24 Q872.729 1466.24 870.849 1465.88 Q868.987 1465.54 866.993 1464.85 L866.993 1461.18 Q868.573 1462.1 870.454 1462.57 Q872.334 1463.04 874.384 1463.04 Q877.958 1463.04 879.82 1461.63 Q881.701 1460.22 881.701 1457.53 Q881.701 1455.05 879.952 1453.66 Q878.221 1452.25 875.118 1452.25 L871.845 1452.25 L871.845 1449.12 L875.268 1449.12 Q878.071 1449.12 879.557 1448.01 Q881.042 1446.89 881.042 1444.78 Q881.042 1442.62 879.5 1441.47 Q877.977 1440.3 875.118 1440.3 Q873.557 1440.3 871.77 1440.64 Q869.983 1440.98 867.839 1441.69 L867.839 1438.31 Q870.002 1437.71 871.883 1437.41 Q873.783 1437.11 875.457 1437.11 Q879.782 1437.11 882.303 1439.08 Q884.823 1441.04 884.823 1444.38 Q884.823 1446.72 883.487 1448.33 Q882.152 1449.93 879.688 1450.55 Z" fill="#000000" fill-rule="evenodd" fill-opacity="1" /><path clip-path="url(#clip480)" d="M 0 0 M889.6 1460.92 L893.568 1460.92 L893.568 1465.69 L889.6 1465.69 L889.6 1460.92 Z" fill="#000000" fill-rule="evenodd" fill-opacity="1" /><path clip-path="url(#clip480)" d="M 0 0 M900.96 1462.5 L914.219 1462.5 L914.219 1465.69 L896.39 1465.69 L896.39 1462.5 Q898.552 1460.26 902.276 1456.5 Q906.019 1452.72 906.978 1451.63 Q908.803 1449.58 909.517 1448.16 Q910.251 1446.74 910.251 1445.36 Q910.251 1443.12 908.671 1441.71 Q907.11 1440.3 904.59 1440.3 Q902.803 1440.3 900.809 1440.92 Q898.835 1441.54 896.578 1442.8 L896.578 1438.97 Q898.872 1438.05 900.866 1437.58 Q902.859 1437.11 904.515 1437.11 Q908.878 1437.11 911.473 1439.29 Q914.069 1441.47 914.069 1445.12 Q914.069 1446.85 913.411 1448.41 Q912.771 1449.95 911.06 1452.06 Q910.589 1452.6 908.069 1455.22 Q905.549 1457.81 900.96 1462.5 Z" fill="#000000" fill-rule="evenodd" fill-opacity="1" /><path clip-path="url(#clip480)" d="M 0 0 M1203.19 1489.17 L1210.83 1489.17 L1210.83 1462.8 L1202.52 1464.47 L1202.52 1460.21 L1210.78 1458.54 L1215.46 1458.54 L1215.46 1489.17 L1223.1 1489.17 L1223.1 1493.1 L1203.19 1493.1 L1203.19 1489.17 Z" fill="#000000" fill-rule="evenodd" fill-opacity="1" /><path clip-path="url(#clip480)" d="M 0 0 M1238.17 1461.62 Q1234.56 1461.62 1232.73 1465.19 Q1230.92 1468.73 1230.92 1475.86 Q1230.92 1482.97 1232.73 1486.53 Q1234.56 1490.07 1238.17 1490.07 Q1241.8 1490.07 1243.61 1486.53 Q1245.44 1482.97 1245.44 1475.86 Q1245.44 1468.73 1243.61 1465.19 Q1241.8 1461.62 1238.17 1461.62 M1238.17 1457.92 Q1243.98 1457.92 1247.03 1462.53 Q1250.11 1467.11 1250.11 1475.86 Q1250.11 1484.59 1247.03 1489.19 Q1243.98 1493.78 1238.17 1493.78 Q1232.36 1493.78 1229.28 1489.19 Q1226.22 1484.59 1226.22 1475.86 Q1226.22 1467.11 1229.28 1462.53 Q1232.36 1457.92 1238.17 1457.92 Z" fill="#000000" fill-rule="evenodd" fill-opacity="1" /><path clip-path="url(#clip480)" d="M 0 0 M1250.11 1452.02 L1274.22 1452.02 L1274.22 1455.22 L1250.11 1455.22 L1250.11 1452.02 Z" fill="#000000" fill-rule="evenodd" fill-opacity="1" /><path clip-path="url(#clip480)" d="M 0 0 M1289.85 1450.55 Q1292.58 1451.14 1294.1 1452.98 Q1295.65 1454.82 1295.65 1457.53 Q1295.65 1461.69 1292.79 1463.96 Q1289.93 1466.24 1284.66 1466.24 Q1282.89 1466.24 1281.01 1465.88 Q1279.15 1465.54 1277.16 1464.85 L1277.16 1461.18 Q1278.74 1462.1 1280.62 1462.57 Q1282.5 1463.04 1284.55 1463.04 Q1288.12 1463.04 1289.98 1461.63 Q1291.87 1460.22 1291.87 1457.53 Q1291.87 1455.05 1290.12 1453.66 Q1288.39 1452.25 1285.28 1452.25 L1282.01 1452.25 L1282.01 1449.12 L1285.43 1449.12 Q1288.24 1449.12 1289.72 1448.01 Q1291.21 1446.89 1291.21 1444.78 Q1291.21 1442.62 1289.66 1441.47 Q1288.14 1440.3 1285.28 1440.3 Q1283.72 1440.3 1281.93 1440.64 Q1280.15 1440.98 1278 1441.69 L1278 1438.31 Q1280.17 1437.71 1282.05 1437.41 Q1283.95 1437.11 1285.62 1437.11 Q1289.95 1437.11 1292.47 1439.08 Q1294.99 1441.04 1294.99 1444.38 Q1294.99 1446.72 1293.65 1448.33 Q1292.32 1449.93 1289.85 1450.55 Z" fill="#000000" fill-rule="evenodd" fill-opacity="1" /><path clip-path="url(#clip480)" d="M 0 0 M1299.76 1460.92 L1303.73 1460.92 L1303.73 1465.69 L1299.76 1465.69 L1299.76 1460.92 Z" fill="#000000" fill-rule="evenodd" fill-opacity="1" /><path clip-path="url(#clip480)" d="M 0 0 M1315.98 1440.11 Q1313.04 1440.11 1311.56 1443.01 Q1310.09 1445.89 1310.09 1451.68 Q1310.09 1457.46 1311.56 1460.35 Q1313.04 1463.23 1315.98 1463.23 Q1318.93 1463.23 1320.4 1460.35 Q1321.88 1457.46 1321.88 1451.68 Q1321.88 1445.89 1320.4 1443.01 Q1318.93 1440.11 1315.98 1440.11 M1315.98 1437.11 Q1320.7 1437.11 1323.18 1440.85 Q1325.68 1444.57 1325.68 1451.68 Q1325.68 1458.77 1323.18 1462.51 Q1320.7 1466.24 1315.98 1466.24 Q1311.26 1466.24 1308.75 1462.51 Q1306.27 1458.77 1306.27 1451.68 Q1306.27 1444.57 1308.75 1440.85 Q1311.26 1437.11 1315.98 1437.11 Z" fill="#000000" fill-rule="evenodd" fill-opacity="1" /><path clip-path="url(#clip480)" d="M 0 0 M1614.43 1489.17 L1622.07 1489.17 L1622.07 1462.8 L1613.76 1464.47 L1613.76 1460.21 L1622.02 1458.54 L1626.7 1458.54 L1626.7 1489.17 L1634.33 1489.17 L1634.33 1493.1 L1614.43 1493.1 L1614.43 1489.17 Z" fill="#000000" fill-rule="evenodd" fill-opacity="1" /><path clip-path="url(#clip480)" d="M 0 0 M1649.4 1461.62 Q1645.79 1461.62 1643.96 1465.19 Q1642.16 1468.73 1642.16 1475.86 Q1642.16 1482.97 1643.96 1486.53 Q1645.79 1490.07 1649.4 1490.07 Q1653.04 1490.07 1654.84 1486.53 Q1656.67 1482.97 1656.67 1475.86 Q1656.67 1468.73 1654.84 1465.19 Q1653.04 1461.62 1649.4 1461.62 M1649.4 1457.92 Q1655.21 1457.92 1658.27 1462.53 Q1661.35 1467.11 1661.35 1475.86 Q1661.35 1484.59 1658.27 1489.19 Q1655.21 1493.78 1649.4 1493.78 Q1643.59 1493.78 1640.52 1489.19 Q1637.46 1484.59 1637.46 1475.86 Q1637.46 1467.11 1640.52 1462.53 Q1643.59 1457.92 1649.4 1457.92 Z" fill="#000000" fill-rule="evenodd" fill-opacity="1" /><path clip-path="url(#clip480)" d="M 0 0 M1661.35 1452.02 L1685.46 1452.02 L1685.46 1455.22 L1661.35 1455.22 L1661.35 1452.02 Z" fill="#000000" fill-rule="evenodd" fill-opacity="1" /><path clip-path="url(#clip480)" d="M 0 0 M1692.85 1462.5 L1706.11 1462.5 L1706.11 1465.69 L1688.28 1465.69 L1688.28 1462.5 Q1690.44 1460.26 1694.17 1456.5 Q1697.91 1452.72 1698.87 1451.63 Q1700.69 1449.58 1701.41 1448.16 Q1702.14 1446.74 1702.14 1445.36 Q1702.14 1443.12 1700.56 1441.71 Q1699 1440.3 1696.48 1440.3 Q1694.69 1440.3 1692.7 1440.92 Q1690.73 1441.54 1688.47 1442.8 L1688.47 1438.97 Q1690.76 1438.05 1692.76 1437.58 Q1694.75 1437.11 1696.41 1437.11 Q1700.77 1437.11 1703.36 1439.29 Q1705.96 1441.47 1705.96 1445.12 Q1705.96 1446.85 1705.3 1448.41 Q1704.66 1449.95 1702.95 1452.06 Q1702.48 1452.6 1699.96 1455.22 Q1697.44 1457.81 1692.85 1462.5 Z" fill="#000000" fill-rule="evenodd" fill-opacity="1" /><path clip-path="url(#clip480)" d="M 0 0 M1710.23 1460.92 L1714.2 1460.92 L1714.2 1465.69 L1710.23 1465.69 L1710.23 1460.92 Z" fill="#000000" fill-rule="evenodd" fill-opacity="1" /><path clip-path="url(#clip480)" d="M 0 0 M1726.44 1452.36 Q1723.73 1452.36 1722.17 1453.81 Q1720.63 1455.26 1720.63 1457.79 Q1720.63 1460.33 1722.17 1461.78 Q1723.73 1463.23 1726.44 1463.23 Q1729.15 1463.23 1730.71 1461.78 Q1732.27 1460.31 1732.27 1457.79 Q1732.27 1455.26 1730.71 1453.81 Q1729.17 1452.36 1726.44 1452.36 M1722.64 1450.74 Q1720.2 1450.14 1718.82 1448.47 Q1717.47 1446.79 1717.47 1444.38 Q1717.47 1441.02 1719.86 1439.06 Q1722.27 1437.11 1726.44 1437.11 Q1730.64 1437.11 1733.02 1439.06 Q1735.41 1441.02 1735.41 1444.38 Q1735.41 1446.79 1734.04 1448.47 Q1732.69 1450.14 1730.26 1450.74 Q1733.01 1451.38 1734.53 1453.24 Q1736.07 1455.1 1736.07 1457.79 Q1736.07 1461.88 1733.57 1464.06 Q1731.09 1466.24 1726.44 1466.24 Q1721.8 1466.24 1719.3 1464.06 Q1716.81 1461.88 1716.81 1457.79 Q1716.81 1455.1 1718.35 1453.24 Q1719.9 1451.38 1722.64 1450.74 M1721.25 1444.74 Q1721.25 1446.92 1722.61 1448.15 Q1723.98 1449.37 1726.44 1449.37 Q1728.89 1449.37 1730.26 1448.15 Q1731.65 1446.92 1731.65 1444.74 Q1731.65 1442.56 1730.26 1441.34 Q1728.89 1440.11 1726.44 1440.11 Q1723.98 1440.11 1722.61 1441.34 Q1721.25 1442.56 1721.25 1444.74 Z" fill="#000000" fill-rule="evenodd" fill-opacity="1" /><path clip-path="url(#clip480)" d="M 0 0 M2025.14 1489.17 L2032.78 1489.17 L2032.78 1462.8 L2024.47 1464.47 L2024.47 1460.21 L2032.73 1458.54 L2037.41 1458.54 L2037.41 1489.17 L2045.04 1489.17 L2045.04 1493.1 L2025.14 1493.1 L2025.14 1489.17 Z" fill="#000000" fill-rule="evenodd" fill-opacity="1" /><path clip-path="url(#clip480)" d="M 0 0 M2060.11 1461.62 Q2056.5 1461.62 2054.67 1465.19 Q2052.87 1468.73 2052.87 1475.86 Q2052.87 1482.97 2054.67 1486.53 Q2056.5 1490.07 2060.11 1490.07 Q2063.75 1490.07 2065.55 1486.53 Q2067.38 1482.97 2067.38 1475.86 Q2067.38 1468.73 2065.55 1465.19 Q2063.75 1461.62 2060.11 1461.62 M2060.11 1457.92 Q2065.92 1457.92 2068.98 1462.53 Q2072.06 1467.11 2072.06 1475.86 Q2072.06 1484.59 2068.98 1489.19 Q2065.92 1493.78 2060.11 1493.78 Q2054.3 1493.78 2051.23 1489.19 Q2048.17 1484.59 2048.17 1475.86 Q2048.17 1467.11 2051.23 1462.53 Q2054.3 1457.92 2060.11 1457.92 Z" fill="#000000" fill-rule="evenodd" fill-opacity="1" /><path clip-path="url(#clip480)" d="M 0 0 M2072.06 1452.02 L2096.17 1452.02 L2096.17 1455.22 L2072.06 1455.22 L2072.06 1452.02 Z" fill="#000000" fill-rule="evenodd" fill-opacity="1" /><path clip-path="url(#clip480)" d="M 0 0 M2103.56 1462.5 L2116.82 1462.5 L2116.82 1465.69 L2098.99 1465.69 L2098.99 1462.5 Q2101.15 1460.26 2104.88 1456.5 Q2108.62 1452.72 2109.58 1451.63 Q2111.4 1449.58 2112.12 1448.16 Q2112.85 1446.74 2112.85 1445.36 Q2112.85 1443.12 2111.27 1441.71 Q2109.71 1440.3 2107.19 1440.3 Q2105.4 1440.3 2103.41 1440.92 Q2101.44 1441.54 2099.18 1442.8 L2099.18 1438.97 Q2101.47 1438.05 2103.47 1437.58 Q2105.46 1437.11 2107.12 1437.11 Q2111.48 1437.11 2114.07 1439.29 Q2116.67 1441.47 2116.67 1445.12 Q2116.67 1446.85 2116.01 1448.41 Q2115.37 1449.95 2113.66 1452.06 Q2113.19 1452.6 2110.67 1455.22 Q2108.15 1457.81 2103.56 1462.5 Z" fill="#000000" fill-rule="evenodd" fill-opacity="1" /><path clip-path="url(#clip480)" d="M 0 0 M2120.94 1460.92 L2124.91 1460.92 L2124.91 1465.69 L2120.94 1465.69 L2120.94 1460.92 Z" fill="#000000" fill-rule="evenodd" fill-opacity="1" /><path clip-path="url(#clip480)" d="M 0 0 M2137.62 1450.14 Q2135.06 1450.14 2133.56 1451.89 Q2132.07 1453.64 2132.07 1456.68 Q2132.07 1459.71 2133.56 1461.48 Q2135.06 1463.23 2137.62 1463.23 Q2140.18 1463.23 2141.67 1461.48 Q2143.17 1459.71 2143.17 1456.68 Q2143.17 1453.64 2141.67 1451.89 Q2140.18 1450.14 2137.62 1450.14 M2145.16 1438.23 L2145.16 1441.69 Q2143.73 1441.02 2142.27 1440.66 Q2140.82 1440.3 2139.39 1440.3 Q2135.63 1440.3 2133.63 1442.84 Q2131.66 1445.38 2131.38 1450.52 Q2132.49 1448.88 2134.16 1448.01 Q2135.84 1447.13 2137.85 1447.13 Q2142.08 1447.13 2144.52 1449.71 Q2146.99 1452.26 2146.99 1456.68 Q2146.99 1461.01 2144.43 1463.62 Q2141.87 1466.24 2137.62 1466.24 Q2132.75 1466.24 2130.17 1462.51 Q2127.6 1458.77 2127.6 1451.68 Q2127.6 1445.02 2130.76 1441.07 Q2133.92 1437.11 2139.24 1437.11 Q2140.67 1437.11 2142.12 1437.39 Q2143.58 1437.67 2145.16 1438.23 Z" fill="#000000" fill-rule="evenodd" fill-opacity="1" /><path clip-path="url(#clip480)" d="M 0 0 M1195.62 1512.66 L1201.51 1512.66 L1201.51 1541.91 L1218.98 1526.54 L1226.46 1526.54 L1207.56 1543.22 L1227.26 1562.19 L1219.62 1562.19 L1201.51 1544.78 L1201.51 1562.19 L1195.62 1562.19 L1195.62 1512.66 Z" fill="#000000" fill-rule="evenodd" fill-opacity="1" /><path clip-path="url(#clip480)" d="M 0 0 M1260.49 1573.01 L1260.49 1577.56 L1226.62 1577.56 L1226.62 1573.01 L1260.49 1573.01 Z" fill="#000000" fill-rule="evenodd" fill-opacity="1" /><path clip-path="url(#clip480)" d="M 0 0 M1280.44 1530.64 Q1275.73 1530.64 1273 1534.34 Q1270.26 1538 1270.26 1544.39 Q1270.26 1550.79 1272.96 1554.48 Q1275.7 1558.14 1280.44 1558.14 Q1285.12 1558.14 1287.86 1554.45 Q1290.6 1550.76 1290.6 1544.39 Q1290.6 1538.06 1287.86 1534.37 Q1285.12 1530.64 1280.44 1530.64 M1280.44 1525.68 Q1288.08 1525.68 1292.44 1530.64 Q1296.8 1535.61 1296.8 1544.39 Q1296.8 1553.15 1292.44 1558.14 Q1288.08 1563.11 1280.44 1563.11 Q1272.77 1563.11 1268.41 1558.14 Q1264.08 1553.15 1264.08 1544.39 Q1264.08 1535.61 1268.41 1530.64 Q1272.77 1525.68 1280.44 1525.68 Z" fill="#000000" fill-rule="evenodd" fill-opacity="1" /><path clip-path="url(#clip480)" d="M 0 0 M1332.58 1540.67 L1332.58 1562.19 L1326.72 1562.19 L1326.72 1540.86 Q1326.72 1535.8 1324.75 1533.29 Q1322.78 1530.77 1318.83 1530.77 Q1314.09 1530.77 1311.35 1533.79 Q1308.61 1536.82 1308.61 1542.04 L1308.61 1562.19 L1302.72 1562.19 L1302.72 1526.54 L1308.61 1526.54 L1308.61 1532.08 Q1310.71 1528.86 1313.55 1527.27 Q1316.41 1525.68 1320.13 1525.68 Q1326.28 1525.68 1329.43 1529.5 Q1332.58 1533.29 1332.58 1540.67 Z" fill="#000000" fill-rule="evenodd" fill-opacity="1" /><polyline clip-path="url(#clip482)" style="stroke:#000000; stroke-width:2; stroke-opacity:0.1; fill:none" points="
  175.445,1304.76 2352.76,1304.76 
  "/>
<polyline clip-path="url(#clip482)" style="stroke:#000000; stroke-width:2; stroke-opacity:0.1; fill:none" points="
  175.445,1117.39 2352.76,1117.39 
  "/>
<polyline clip-path="url(#clip482)" style="stroke:#000000; stroke-width:2; stroke-opacity:0.1; fill:none" points="
  175.445,930.023 2352.76,930.023 
  "/>
<polyline clip-path="url(#clip482)" style="stroke:#000000; stroke-width:2; stroke-opacity:0.1; fill:none" points="
  175.445,742.652 2352.76,742.652 
  "/>
<polyline clip-path="url(#clip482)" style="stroke:#000000; stroke-width:2; stroke-opacity:0.1; fill:none" points="
  175.445,555.28 2352.76,555.28 
  "/>
<polyline clip-path="url(#clip482)" style="stroke:#000000; stroke-width:2; stroke-opacity:0.1; fill:none" points="
  175.445,367.909 2352.76,367.909 
  "/>
<polyline clip-path="url(#clip482)" style="stroke:#000000; stroke-width:2; stroke-opacity:0.1; fill:none" points="
  175.445,180.538 2352.76,180.538 
  "/>
<polyline clip-path="url(#clip480)" style="stroke:#000000; stroke-width:4; stroke-opacity:1; fill:none" points="
  175.445,1410.9 175.445,47.2441 
  "/>
<polyline clip-path="url(#clip480)" style="stroke:#000000; stroke-width:4; stroke-opacity:1; fill:none" points="
  175.445,1304.76 201.573,1304.76 
  "/>
<polyline clip-path="url(#clip480)" style="stroke:#000000; stroke-width:4; stroke-opacity:1; fill:none" points="
  175.445,1117.39 201.573,1117.39 
  "/>
<polyline clip-path="url(#clip480)" style="stroke:#000000; stroke-width:4; stroke-opacity:1; fill:none" points="
  175.445,930.023 201.573,930.023 
  "/>
<polyline clip-path="url(#clip480)" style="stroke:#000000; stroke-width:4; stroke-opacity:1; fill:none" points="
  175.445,742.652 201.573,742.652 
  "/>
<polyline clip-path="url(#clip480)" style="stroke:#000000; stroke-width:4; stroke-opacity:1; fill:none" points="
  175.445,555.28 201.573,555.28 
  "/>
<polyline clip-path="url(#clip480)" style="stroke:#000000; stroke-width:4; stroke-opacity:1; fill:none" points="
  175.445,367.909 201.573,367.909 
  "/>
<polyline clip-path="url(#clip480)" style="stroke:#000000; stroke-width:4; stroke-opacity:1; fill:none" points="
  175.445,180.538 201.573,180.538 
  "/>
<path clip-path="url(#clip480)" d="M 0 0 M123.126 1318.11 L139.445 1318.11 L139.445 1322.04 L117.501 1322.04 L117.501 1318.11 Q120.163 1315.36 124.746 1310.73 Q129.353 1306.07 130.533 1304.73 Q132.779 1302.21 133.658 1300.47 Q134.561 1298.71 134.561 1297.02 Q134.561 1294.27 132.617 1292.53 Q130.695 1290.8 127.593 1290.8 Q125.394 1290.8 122.941 1291.56 Q120.51 1292.32 117.732 1293.87 L117.732 1289.15 Q120.556 1288.02 123.01 1287.44 Q125.464 1286.86 127.501 1286.86 Q132.871 1286.86 136.066 1289.55 Q139.26 1292.23 139.26 1296.72 Q139.26 1298.85 138.45 1300.77 Q137.663 1302.67 135.556 1305.26 Q134.978 1305.93 131.876 1309.15 Q128.774 1312.35 123.126 1318.11 Z" fill="#000000" fill-rule="evenodd" fill-opacity="1" /><path clip-path="url(#clip480)" d="M 0 0 M132.316 1116.04 Q135.672 1116.76 137.547 1119.03 Q139.445 1121.29 139.445 1124.63 Q139.445 1129.74 135.927 1132.54 Q132.408 1135.35 125.927 1135.35 Q123.751 1135.35 121.436 1134.91 Q119.144 1134.49 116.691 1133.63 L116.691 1129.12 Q118.635 1130.25 120.95 1130.83 Q123.265 1131.41 125.788 1131.41 Q130.186 1131.41 132.478 1129.67 Q134.792 1127.94 134.792 1124.63 Q134.792 1121.57 132.64 1119.86 Q130.51 1118.12 126.691 1118.12 L122.663 1118.12 L122.663 1114.28 L126.876 1114.28 Q130.325 1114.28 132.154 1112.91 Q133.982 1111.53 133.982 1108.93 Q133.982 1106.27 132.084 1104.86 Q130.209 1103.42 126.691 1103.42 Q124.769 1103.42 122.57 1103.84 Q120.371 1104.26 117.732 1105.14 L117.732 1100.97 Q120.394 1100.23 122.709 1099.86 Q125.047 1099.49 127.107 1099.49 Q132.431 1099.49 135.533 1101.92 Q138.635 1104.33 138.635 1108.45 Q138.635 1111.32 136.992 1113.31 Q135.348 1115.28 132.316 1116.04 Z" fill="#000000" fill-rule="evenodd" fill-opacity="1" /><path clip-path="url(#clip480)" d="M 0 0 M129.862 916.817 L118.056 935.266 L129.862 935.266 L129.862 916.817 M128.635 912.743 L134.515 912.743 L134.515 935.266 L139.445 935.266 L139.445 939.155 L134.515 939.155 L134.515 947.303 L129.862 947.303 L129.862 939.155 L114.26 939.155 L114.26 934.641 L128.635 912.743 Z" fill="#000000" fill-rule="evenodd" fill-opacity="1" /><path clip-path="url(#clip480)" d="M 0 0 M118.543 725.372 L136.899 725.372 L136.899 729.307 L122.825 729.307 L122.825 737.779 Q123.843 737.432 124.862 737.27 Q125.88 737.084 126.899 737.084 Q132.686 737.084 136.066 740.256 Q139.445 743.427 139.445 748.844 Q139.445 754.422 135.973 757.524 Q132.501 760.603 126.181 760.603 Q124.005 760.603 121.737 760.232 Q119.492 759.862 117.084 759.121 L117.084 754.422 Q119.168 755.557 121.39 756.112 Q123.612 756.668 126.089 756.668 Q130.093 756.668 132.431 754.561 Q134.769 752.455 134.769 748.844 Q134.769 745.233 132.431 743.126 Q130.093 741.02 126.089 741.02 Q124.214 741.02 122.339 741.436 Q120.487 741.853 118.543 742.733 L118.543 725.372 Z" fill="#000000" fill-rule="evenodd" fill-opacity="1" /><path clip-path="url(#clip480)" d="M 0 0 M127.917 553.417 Q124.769 553.417 122.918 555.57 Q121.089 557.723 121.089 561.473 Q121.089 565.199 122.918 567.375 Q124.769 569.528 127.917 569.528 Q131.066 569.528 132.894 567.375 Q134.746 565.199 134.746 561.473 Q134.746 557.723 132.894 555.57 Q131.066 553.417 127.917 553.417 M137.2 538.764 L137.2 543.024 Q135.441 542.19 133.635 541.75 Q131.853 541.311 130.093 541.311 Q125.464 541.311 123.01 544.436 Q120.58 547.561 120.232 553.88 Q121.598 551.866 123.658 550.801 Q125.718 549.713 128.195 549.713 Q133.404 549.713 136.413 552.885 Q139.445 556.033 139.445 561.473 Q139.445 566.797 136.297 570.014 Q133.149 573.232 127.917 573.232 Q121.922 573.232 118.751 568.648 Q115.58 564.042 115.58 555.315 Q115.58 547.121 119.468 542.26 Q123.357 537.375 129.908 537.375 Q131.667 537.375 133.45 537.723 Q135.255 538.07 137.2 538.764 Z" fill="#000000" fill-rule="evenodd" fill-opacity="1" /><path clip-path="url(#clip480)" d="M 0 0 M117.223 350.629 L139.445 350.629 L139.445 352.62 L126.899 385.189 L122.015 385.189 L133.82 354.564 L117.223 354.564 L117.223 350.629 Z" fill="#000000" fill-rule="evenodd" fill-opacity="1" /><path clip-path="url(#clip480)" d="M 0 0 M127.593 181.406 Q124.26 181.406 122.339 183.189 Q120.441 184.971 120.441 188.096 Q120.441 191.221 122.339 193.003 Q124.26 194.786 127.593 194.786 Q130.927 194.786 132.848 193.003 Q134.769 191.198 134.769 188.096 Q134.769 184.971 132.848 183.189 Q130.95 181.406 127.593 181.406 M122.918 179.416 Q119.908 178.675 118.218 176.615 Q116.552 174.554 116.552 171.591 Q116.552 167.448 119.492 165.041 Q122.455 162.633 127.593 162.633 Q132.755 162.633 135.695 165.041 Q138.635 167.448 138.635 171.591 Q138.635 174.554 136.945 176.615 Q135.279 178.675 132.292 179.416 Q135.672 180.203 137.547 182.494 Q139.445 184.786 139.445 188.096 Q139.445 193.119 136.367 195.804 Q133.311 198.489 127.593 198.489 Q121.876 198.489 118.797 195.804 Q115.742 193.119 115.742 188.096 Q115.742 184.786 117.64 182.494 Q119.538 180.203 122.918 179.416 M121.205 172.031 Q121.205 174.716 122.871 176.221 Q124.561 177.726 127.593 177.726 Q130.603 177.726 132.292 176.221 Q134.005 174.716 134.005 172.031 Q134.005 169.346 132.292 167.842 Q130.603 166.337 127.593 166.337 Q124.561 166.337 122.871 167.842 Q121.205 169.346 121.205 172.031 Z" fill="#000000" fill-rule="evenodd" fill-opacity="1" /><path clip-path="url(#clip480)" d="M 0 0 M59.1993 815.533 Q55.2526 813.336 53.3747 810.281 Q51.4968 807.225 51.4968 803.088 Q51.4968 797.518 55.4117 794.494 Q59.2948 791.47 66.4881 791.47 L88.0042 791.47 L88.0042 797.358 L66.679 797.358 Q61.5546 797.358 59.072 799.173 Q56.5894 800.987 56.5894 804.711 Q56.5894 809.262 59.6131 811.904 Q62.6368 814.546 67.8567 814.546 L88.0042 814.546 L88.0042 820.434 L66.679 820.434 Q61.5228 820.434 59.072 822.248 Q56.5894 824.063 56.5894 827.85 Q56.5894 832.338 59.6449 834.98 Q62.6686 837.622 67.8567 837.622 L88.0042 837.622 L88.0042 843.51 L52.3562 843.51 L52.3562 837.622 L57.8944 837.622 Q54.616 835.616 53.0564 832.815 Q51.4968 830.015 51.4968 826.163 Q51.4968 822.28 53.4702 819.575 Q55.4436 816.838 59.1993 815.533 Z" fill="#000000" fill-rule="evenodd" fill-opacity="1" /><path clip-path="url(#clip480)" d="M 0 0 M52.3562 785.327 L52.3562 779.471 L88.0042 779.471 L88.0042 785.327 L52.3562 785.327 M38.479 785.327 L38.479 779.471 L45.895 779.471 L45.895 785.327 L38.479 785.327 Z" fill="#000000" fill-rule="evenodd" fill-opacity="1" /><path clip-path="url(#clip480)" d="M 0 0 M66.4881 743.696 L88.0042 743.696 L88.0042 749.552 L66.679 749.552 Q61.6183 749.552 59.1038 751.525 Q56.5894 753.499 56.5894 757.446 Q56.5894 762.188 59.6131 764.925 Q62.6368 767.662 67.8567 767.662 L88.0042 767.662 L88.0042 773.551 L52.3562 773.551 L52.3562 767.662 L57.8944 767.662 Q54.6797 765.562 53.0883 762.729 Q51.4968 759.864 51.4968 756.141 Q51.4968 749.998 55.3163 746.847 Q59.1038 743.696 66.4881 743.696 Z" fill="#000000" fill-rule="evenodd" fill-opacity="1" /><path clip-path="url(#clip480)" d="M 0 0 M98.8259 710.467 L103.377 710.467 L103.377 744.332 L98.8259 744.332 L98.8259 710.467 Z" fill="#000000" fill-rule="evenodd" fill-opacity="1" /><path clip-path="url(#clip480)" d="M 0 0 M57.7671 680.866 L38.479 680.866 L38.479 675.01 L88.0042 675.01 L88.0042 680.866 L82.657 680.866 Q85.8398 682.712 87.3994 685.545 Q88.9272 688.346 88.9272 692.292 Q88.9272 698.754 83.771 702.828 Q78.6147 706.87 70.212 706.87 Q61.8093 706.87 56.6531 702.828 Q51.4968 698.754 51.4968 692.292 Q51.4968 688.346 53.0564 685.545 Q54.5842 682.712 57.7671 680.866 M70.212 700.823 Q76.6732 700.823 80.3653 698.181 Q84.0256 695.507 84.0256 690.86 Q84.0256 686.213 80.3653 683.54 Q76.6732 680.866 70.212 680.866 Q63.7508 680.866 60.0905 683.54 Q56.3984 686.213 56.3984 690.86 Q56.3984 695.507 60.0905 698.181 Q63.7508 700.823 70.212 700.823 Z" fill="#000000" fill-rule="evenodd" fill-opacity="1" /><path clip-path="url(#clip480)" d="M 0 0 M52.3562 668.867 L52.3562 663.01 L88.0042 663.01 L88.0042 668.867 L52.3562 668.867 M38.479 668.867 L38.479 663.01 L45.895 663.01 L45.895 668.867 L38.479 668.867 Z" fill="#000000" fill-rule="evenodd" fill-opacity="1" /><path clip-path="url(#clip480)" d="M 0 0 M38.479 638.821 L43.3487 638.821 L43.3487 644.422 Q43.3487 647.573 44.6219 648.815 Q45.895 650.024 49.2052 650.024 L52.3562 650.024 L52.3562 640.38 L56.9077 640.38 L56.9077 650.024 L88.0042 650.024 L88.0042 655.912 L56.9077 655.912 L56.9077 661.514 L52.3562 661.514 L52.3562 655.912 L49.8736 655.912 Q43.9216 655.912 41.2162 653.143 Q38.479 650.374 38.479 644.359 L38.479 638.821 Z" fill="#000000" fill-rule="evenodd" fill-opacity="1" /><path clip-path="url(#clip480)" d="M 0 0 M38.479 614.631 L43.3487 614.631 L43.3487 620.233 Q43.3487 623.384 44.6219 624.625 Q45.895 625.835 49.2052 625.835 L52.3562 625.835 L52.3562 616.19 L56.9077 616.19 L56.9077 625.835 L88.0042 625.835 L88.0042 631.723 L56.9077 631.723 L56.9077 637.325 L52.3562 637.325 L52.3562 631.723 L49.8736 631.723 Q43.9216 631.723 41.2162 628.954 Q38.479 626.185 38.479 620.169 L38.479 614.631 Z" fill="#000000" fill-rule="evenodd" fill-opacity="1" /><polyline clip-path="url(#clip482)" style="stroke:#009af9; stroke-width:20; stroke-opacity:1; fill:none" stroke-dasharray="80, 50" points="
  237.067,114.883 1264.1,1372.3 2291.13,85.838 
  "/>
<path clip-path="url(#clip480)" d="
M1987.24 213.659 L2280.18 213.659 L2280.18 92.6992 L1987.24 92.6992  Z
  " fill="#ffffff" fill-rule="evenodd" fill-opacity="1"/>
<polyline clip-path="url(#clip480)" style="stroke:#000000; stroke-width:4; stroke-opacity:1; fill:none" points="
  1987.24,213.659 2280.18,213.659 2280.18,92.6992 1987.24,92.6992 1987.24,213.659 
  "/>
<polyline clip-path="url(#clip480)" style="stroke:#009af9; stroke-width:4; stroke-opacity:1; fill:none" stroke-dasharray="16, 10" points="
  2011.43,153.179 2156.58,153.179 
  "/>
<path clip-path="url(#clip480)" d="M 0 0 M2194.62 172.867 Q2192.81 177.496 2191.1 178.908 Q2189.39 180.32 2186.52 180.32 L2183.11 180.32 L2183.11 176.755 L2185.61 176.755 Q2187.37 176.755 2188.35 175.922 Q2189.32 175.089 2190.5 171.987 L2191.26 170.043 L2180.78 144.533 L2185.29 144.533 L2193.39 164.811 L2201.49 144.533 L2206.01 144.533 L2194.62 172.867 Z" fill="#000000" fill-rule="evenodd" fill-opacity="1" /><path clip-path="url(#clip480)" d="M 0 0 M2211.89 166.524 L2219.53 166.524 L2219.53 140.158 L2211.22 141.825 L2211.22 137.566 L2219.48 135.899 L2224.16 135.899 L2224.16 166.524 L2231.79 166.524 L2231.79 170.459 L2211.89 170.459 L2211.89 166.524 Z" fill="#000000" fill-rule="evenodd" fill-opacity="1" /></svg>
