<?xml version="1.0" encoding="utf-8"?>
<svg xmlns="http://www.w3.org/2000/svg" xmlns:xlink="http://www.w3.org/1999/xlink" width="600" height="400" viewBox="0 0 2400 1600">
<defs>
  <clipPath id="clip740">
    <rect x="0" y="0" width="2400" height="1600"/>
  </clipPath>
</defs>
<path clip-path="url(#clip740)" d="
M0 1600 L2400 1600 L2400 0 L0 0  Z
  " fill="#ffffff" fill-rule="evenodd" fill-opacity="1"/>
<defs>
  <clipPath id="clip741">
    <rect x="480" y="0" width="1681" height="1600"/>
  </clipPath>
</defs>
<path clip-path="url(#clip740)" d="
M198.339 1410.9 L2352.76 1410.9 L2352.76 47.2441 L198.339 47.2441  Z
  " fill="#ffffff" fill-rule="evenodd" fill-opacity="1"/>
<defs>
  <clipPath id="clip742">
    <rect x="198" y="47" width="2155" height="1365"/>
  </clipPath>
</defs>
<polyline clip-path="url(#clip742)" style="stroke:#000000; stroke-width:2; stroke-opacity:0.1; fill:none" points="
  259.313,1410.9 259.313,47.2441 
  "/>
<polyline clip-path="url(#clip742)" style="stroke:#000000; stroke-width:2; stroke-opacity:0.1; fill:none" points="
  936.802,1410.9 936.802,47.2441 
  "/>
<polyline clip-path="url(#clip742)" style="stroke:#000000; stroke-width:2; stroke-opacity:0.1; fill:none" points="
  1614.29,1410.9 1614.29,47.2441 
  "/>
<polyline clip-path="url(#clip742)" style="stroke:#000000; stroke-width:2; stroke-opacity:0.1; fill:none" points="
  2291.78,1410.9 2291.78,47.2441 
  "/>
<polyline clip-path="url(#clip740)" style="stroke:#000000; stroke-width:4; stroke-opacity:1; fill:none" points="
  198.339,1410.9 2352.76,1410.9 
  "/>
<polyline clip-path="url(#clip740)" style="stroke:#000000; stroke-width:4; stroke-opacity:1; fill:none" points="
  259.313,1410.9 259.313,1394.53 
  "/>
<polyline clip-path="url(#clip740)" style="stroke:#000000; stroke-width:4; stroke-opacity:1; fill:none" points="
  936.802,1410.9 936.802,1394.53 
  "/>
<polyline clip-path="url(#clip740)" style="stroke:#000000; stroke-width:4; stroke-opacity:1; fill:none" points="
  1614.29,1410.9 1614.29,1394.53 
  "/>
<polyline clip-path="url(#clip740)" style="stroke:#000000; stroke-width:4; stroke-opacity:1; fill:none" points="
  2291.78,1410.9 2291.78,1394.53 
  "/>
<path clip-path="url(#clip740)" d="M 0 0 M213.807 1489.17 L221.445 1489.17 L221.445 1462.8 L213.135 1464.47 L213.135 1460.21 L221.399 1458.54 L226.075 1458.54 L226.075 1489.17 L233.714 1489.17 L233.714 1493.1 L213.807 1493.1 L213.807 1489.17 Z" fill="#000000" fill-rule="evenodd" fill-opacity="1" /><path clip-path="url(#clip740)" d="M 0 0 M248.783 1461.62 Q245.172 1461.62 243.343 1465.19 Q241.538 1468.73 241.538 1475.86 Q241.538 1482.97 243.343 1486.53 Q245.172 1490.07 248.783 1490.07 Q252.417 1490.07 254.223 1486.53 Q256.052 1482.97 256.052 1475.86 Q256.052 1468.73 254.223 1465.19 Q252.417 1461.62 248.783 1461.62 M248.783 1457.92 Q254.593 1457.92 257.649 1462.53 Q260.728 1467.11 260.728 1475.86 Q260.728 1484.59 257.649 1489.19 Q254.593 1493.78 248.783 1493.78 Q242.973 1493.78 239.894 1489.19 Q236.839 1484.59 236.839 1475.86 Q236.839 1467.11 239.894 1462.53 Q242.973 1457.92 248.783 1457.92 Z" fill="#000000" fill-rule="evenodd" fill-opacity="1" /><path clip-path="url(#clip740)" d="M 0 0 M260.728 1452.02 L284.839 1452.02 L284.839 1455.22 L260.728 1455.22 L260.728 1452.02 Z" fill="#000000" fill-rule="evenodd" fill-opacity="1" /><path clip-path="url(#clip740)" d="M 0 0 M292.231 1462.5 L305.49 1462.5 L305.49 1465.69 L287.66 1465.69 L287.66 1462.5 Q289.823 1460.26 293.547 1456.5 Q297.29 1452.72 298.249 1451.63 Q300.073 1449.58 300.788 1448.16 Q301.522 1446.74 301.522 1445.36 Q301.522 1443.12 299.942 1441.71 Q298.381 1440.3 295.861 1440.3 Q294.074 1440.3 292.08 1440.92 Q290.105 1441.54 287.848 1442.8 L287.848 1438.97 Q290.143 1438.05 292.137 1437.58 Q294.13 1437.11 295.785 1437.11 Q300.149 1437.11 302.744 1439.29 Q305.34 1441.47 305.34 1445.12 Q305.34 1446.85 304.681 1448.41 Q304.042 1449.95 302.33 1452.06 Q301.86 1452.6 299.34 1455.22 Q296.82 1457.81 292.231 1462.5 Z" fill="#000000" fill-rule="evenodd" fill-opacity="1" /><path clip-path="url(#clip740)" d="M 0 0 M891.146 1489.17 L898.785 1489.17 L898.785 1462.8 L890.475 1464.47 L890.475 1460.21 L898.738 1458.54 L903.414 1458.54 L903.414 1489.17 L911.053 1489.17 L911.053 1493.1 L891.146 1493.1 L891.146 1489.17 Z" fill="#000000" fill-rule="evenodd" fill-opacity="1" /><path clip-path="url(#clip740)" d="M 0 0 M926.122 1461.62 Q922.511 1461.62 920.683 1465.19 Q918.877 1468.73 918.877 1475.86 Q918.877 1482.97 920.683 1486.53 Q922.511 1490.07 926.122 1490.07 Q929.757 1490.07 931.562 1486.53 Q933.391 1482.97 933.391 1475.86 Q933.391 1468.73 931.562 1465.19 Q929.757 1461.62 926.122 1461.62 M926.122 1457.92 Q931.933 1457.92 934.988 1462.53 Q938.067 1467.11 938.067 1475.86 Q938.067 1484.59 934.988 1489.19 Q931.933 1493.78 926.122 1493.78 Q920.312 1493.78 917.234 1489.19 Q914.178 1484.59 914.178 1475.86 Q914.178 1467.11 917.234 1462.53 Q920.312 1457.92 926.122 1457.92 Z" fill="#000000" fill-rule="evenodd" fill-opacity="1" /><path clip-path="url(#clip740)" d="M 0 0 M938.067 1452.02 L962.178 1452.02 L962.178 1455.22 L938.067 1455.22 L938.067 1452.02 Z" fill="#000000" fill-rule="evenodd" fill-opacity="1" /><path clip-path="url(#clip740)" d="M 0 0 M966.956 1462.5 L973.162 1462.5 L973.162 1441.07 L966.41 1442.43 L966.41 1438.97 L973.125 1437.61 L976.924 1437.61 L976.924 1462.5 L983.13 1462.5 L983.13 1465.69 L966.956 1465.69 L966.956 1462.5 Z" fill="#000000" fill-rule="evenodd" fill-opacity="1" /><path clip-path="url(#clip740)" d="M 0 0 M1581.46 1489.17 L1589.1 1489.17 L1589.1 1462.8 L1580.79 1464.47 L1580.79 1460.21 L1589.05 1458.54 L1593.73 1458.54 L1593.73 1489.17 L1601.37 1489.17 L1601.37 1493.1 L1581.46 1493.1 L1581.46 1489.17 Z" fill="#000000" fill-rule="evenodd" fill-opacity="1" /><path clip-path="url(#clip740)" d="M 0 0 M1616.44 1461.62 Q1612.83 1461.62 1611 1465.19 Q1609.19 1468.73 1609.19 1475.86 Q1609.19 1482.97 1611 1486.53 Q1612.83 1490.07 1616.44 1490.07 Q1620.07 1490.07 1621.88 1486.53 Q1623.71 1482.97 1623.71 1475.86 Q1623.71 1468.73 1621.88 1465.19 Q1620.07 1461.62 1616.44 1461.62 M1616.44 1457.92 Q1622.25 1457.92 1625.3 1462.53 Q1628.38 1467.11 1628.38 1475.86 Q1628.38 1484.59 1625.3 1489.19 Q1622.25 1493.78 1616.44 1493.78 Q1610.63 1493.78 1607.55 1489.19 Q1604.49 1484.59 1604.49 1475.86 Q1604.49 1467.11 1607.55 1462.53 Q1610.63 1457.92 1616.44 1457.92 Z" fill="#000000" fill-rule="evenodd" fill-opacity="1" /><path clip-path="url(#clip740)" d="M 0 0 M1638.09 1440.11 Q1635.15 1440.11 1633.67 1443.01 Q1632.2 1445.89 1632.2 1451.68 Q1632.2 1457.46 1633.67 1460.35 Q1635.15 1463.23 1638.09 1463.23 Q1641.04 1463.23 1642.51 1460.35 Q1643.99 1457.46 1643.99 1451.68 Q1643.99 1445.89 1642.51 1443.01 Q1641.04 1440.11 1638.09 1440.11 M1638.09 1437.11 Q1642.81 1437.11 1645.29 1440.85 Q1647.79 1444.57 1647.79 1451.68 Q1647.79 1458.77 1645.29 1462.51 Q1642.81 1466.24 1638.09 1466.24 Q1633.37 1466.24 1630.87 1462.51 Q1628.38 1458.77 1628.38 1451.68 Q1628.38 1444.57 1630.87 1440.85 Q1633.37 1437.11 1638.09 1437.11 Z" fill="#000000" fill-rule="evenodd" fill-opacity="1" /><path clip-path="url(#clip740)" d="M 0 0 M2260.3 1489.17 L2267.94 1489.17 L2267.94 1462.8 L2259.63 1464.47 L2259.63 1460.21 L2267.89 1458.54 L2272.57 1458.54 L2272.57 1489.17 L2280.2 1489.17 L2280.2 1493.1 L2260.3 1493.1 L2260.3 1489.17 Z" fill="#000000" fill-rule="evenodd" fill-opacity="1" /><path clip-path="url(#clip740)" d="M 0 0 M2295.27 1461.62 Q2291.66 1461.62 2289.83 1465.19 Q2288.03 1468.73 2288.03 1475.86 Q2288.03 1482.97 2289.83 1486.53 Q2291.66 1490.07 2295.27 1490.07 Q2298.91 1490.07 2300.71 1486.53 Q2302.54 1482.97 2302.54 1475.86 Q2302.54 1468.73 2300.71 1465.19 Q2298.91 1461.62 2295.27 1461.62 M2295.27 1457.92 Q2301.08 1457.92 2304.14 1462.53 Q2307.22 1467.11 2307.22 1475.86 Q2307.22 1484.59 2304.14 1489.19 Q2301.08 1493.78 2295.27 1493.78 Q2289.46 1493.78 2286.38 1489.19 Q2283.33 1484.59 2283.33 1475.86 Q2283.33 1467.11 2286.38 1462.53 Q2289.46 1457.92 2295.27 1457.92 Z" fill="#000000" fill-rule="evenodd" fill-opacity="1" /><path clip-path="url(#clip740)" d="M 0 0 M2307.76 1462.5 L2313.97 1462.5 L2313.97 1441.07 L2307.22 1442.43 L2307.22 1438.97 L2313.93 1437.61 L2317.73 1437.61 L2317.73 1462.5 L2323.94 1462.5 L2323.94 1465.69 L2307.76 1465.69 L2307.76 1462.5 Z" fill="#000000" fill-rule="evenodd" fill-opacity="1" /><path clip-path="url(#clip740)" d="M 0 0 M1167.82 1526.54 L1174.03 1526.54 L1185.17 1556.46 L1196.31 1526.54 L1202.52 1526.54 L1189.15 1562.19 L1181.19 1562.19 L1167.82 1526.54 Z" fill="#000000" fill-rule="evenodd" fill-opacity="1" /><path clip-path="url(#clip740)" d="M 0 0 M1235.75 1573.01 L1235.75 1577.56 L1201.88 1577.56 L1201.88 1573.01 L1235.75 1573.01 Z" fill="#000000" fill-rule="evenodd" fill-opacity="1" /><path clip-path="url(#clip740)" d="M 0 0 M1267.54 1527.91 L1267.54 1533.38 Q1265.06 1532.01 1262.55 1531.34 Q1260.06 1530.64 1257.52 1530.64 Q1251.82 1530.64 1248.67 1534.27 Q1245.52 1537.87 1245.52 1544.39 Q1245.52 1550.92 1248.67 1554.55 Q1251.82 1558.14 1257.52 1558.14 Q1260.06 1558.14 1262.55 1557.47 Q1265.06 1556.77 1267.54 1555.41 L1267.54 1560.82 Q1265.09 1561.96 1262.45 1562.54 Q1259.84 1563.11 1256.88 1563.11 Q1248.83 1563.11 1244.08 1558.05 Q1239.34 1552.99 1239.34 1544.39 Q1239.34 1535.67 1244.12 1530.68 Q1248.92 1525.68 1257.26 1525.68 Q1259.97 1525.68 1262.55 1526.25 Q1265.12 1526.79 1267.54 1527.91 Z" fill="#000000" fill-rule="evenodd" fill-opacity="1" /><path clip-path="url(#clip740)" d="M 0 0 M1273.69 1512.66 L1279.54 1512.66 L1279.54 1562.19 L1273.69 1562.19 L1273.69 1512.66 Z" fill="#000000" fill-rule="evenodd" fill-opacity="1" /><path clip-path="url(#clip740)" d="M 0 0 M1299.5 1530.64 Q1294.79 1530.64 1292.05 1534.34 Q1289.31 1538 1289.31 1544.39 Q1289.31 1550.79 1292.02 1554.48 Q1294.76 1558.14 1299.5 1558.14 Q1304.18 1558.14 1306.91 1554.45 Q1309.65 1550.76 1309.65 1544.39 Q1309.65 1538.06 1306.91 1534.37 Q1304.18 1530.64 1299.5 1530.64 M1299.5 1525.68 Q1307.14 1525.68 1311.5 1530.64 Q1315.86 1535.61 1315.86 1544.39 Q1315.86 1553.15 1311.5 1558.14 Q1307.14 1563.11 1299.5 1563.11 Q1291.83 1563.11 1287.47 1558.14 Q1283.14 1553.15 1283.14 1544.39 Q1283.14 1535.61 1287.47 1530.64 Q1291.83 1525.68 1299.5 1525.68 Z" fill="#000000" fill-rule="evenodd" fill-opacity="1" /><path clip-path="url(#clip740)" d="M 0 0 M1344.73 1527.59 L1344.73 1533.13 Q1342.24 1531.85 1339.57 1531.22 Q1336.9 1530.58 1334.03 1530.58 Q1329.67 1530.58 1327.48 1531.92 Q1325.31 1533.25 1325.31 1535.93 Q1325.31 1537.96 1326.87 1539.14 Q1328.43 1540.29 1333.14 1541.34 L1335.15 1541.78 Q1341.38 1543.12 1343.99 1545.57 Q1346.64 1547.99 1346.64 1552.35 Q1346.64 1557.32 1342.69 1560.21 Q1338.77 1563.11 1331.9 1563.11 Q1329.04 1563.11 1325.92 1562.54 Q1322.83 1561.99 1319.39 1560.88 L1319.39 1554.83 Q1322.64 1556.52 1325.79 1557.38 Q1328.94 1558.21 1332.03 1558.21 Q1336.16 1558.21 1338.39 1556.81 Q1340.62 1555.37 1340.62 1552.8 Q1340.62 1550.41 1339 1549.14 Q1337.41 1547.86 1331.96 1546.68 L1329.93 1546.21 Q1324.48 1545.06 1322.06 1542.71 Q1319.65 1540.32 1319.65 1536.18 Q1319.65 1531.15 1323.21 1528.42 Q1326.78 1525.68 1333.33 1525.68 Q1336.58 1525.68 1339.44 1526.16 Q1342.31 1526.63 1344.73 1527.59 Z" fill="#000000" fill-rule="evenodd" fill-opacity="1" /><path clip-path="url(#clip740)" d="M 0 0 M1383.27 1542.9 L1383.27 1545.76 L1356.34 1545.76 Q1356.73 1551.81 1359.97 1554.99 Q1363.25 1558.14 1369.08 1558.14 Q1372.45 1558.14 1375.6 1557.32 Q1378.78 1556.49 1381.9 1554.83 L1381.9 1560.37 Q1378.75 1561.71 1375.44 1562.41 Q1372.13 1563.11 1368.73 1563.11 Q1360.2 1563.11 1355.2 1558.14 Q1350.23 1553.18 1350.23 1544.71 Q1350.23 1535.96 1354.94 1530.83 Q1359.69 1525.68 1367.71 1525.68 Q1374.9 1525.68 1379.07 1530.33 Q1383.27 1534.94 1383.27 1542.9 M1377.41 1541.18 Q1377.35 1536.37 1374.71 1533.51 Q1372.1 1530.64 1367.77 1530.64 Q1362.87 1530.64 1359.91 1533.41 Q1356.98 1536.18 1356.53 1541.21 L1377.41 1541.18 Z" fill="#000000" fill-rule="evenodd" fill-opacity="1" /><polyline clip-path="url(#clip742)" style="stroke:#000000; stroke-width:2; stroke-opacity:0.1; fill:none" points="
  198.339,1188.34 2352.76,1188.34 
  "/>
<polyline clip-path="url(#clip742)" style="stroke:#000000; stroke-width:2; stroke-opacity:0.1; fill:none" points="
  198.339,960.982 2352.76,960.982 
  "/>
<polyline clip-path="url(#clip742)" style="stroke:#000000; stroke-width:2; stroke-opacity:0.1; fill:none" points="
  198.339,733.627 2352.76,733.627 
  "/>
<polyline clip-path="url(#clip742)" style="stroke:#000000; stroke-width:2; stroke-opacity:0.1; fill:none" points="
  198.339,506.272 2352.76,506.272 
  "/>
<polyline clip-path="url(#clip742)" style="stroke:#000000; stroke-width:2; stroke-opacity:0.1; fill:none" points="
  198.339,278.918 2352.76,278.918 
  "/>
<polyline clip-path="url(#clip742)" style="stroke:#000000; stroke-width:2; stroke-opacity:0.1; fill:none" points="
  198.339,51.5634 2352.76,51.5634 
  "/>
<polyline clip-path="url(#clip740)" style="stroke:#000000; stroke-width:4; stroke-opacity:1; fill:none" points="
  198.339,1410.9 198.339,47.2441 
  "/>
<polyline clip-path="url(#clip740)" style="stroke:#000000; stroke-width:4; stroke-opacity:1; fill:none" points="
  198.339,1188.34 224.192,1188.34 
  "/>
<polyline clip-path="url(#clip740)" style="stroke:#000000; stroke-width:4; stroke-opacity:1; fill:none" points="
  198.339,960.982 224.192,960.982 
  "/>
<polyline clip-path="url(#clip740)" style="stroke:#000000; stroke-width:4; stroke-opacity:1; fill:none" points="
  198.339,733.627 224.192,733.627 
  "/>
<polyline clip-path="url(#clip740)" style="stroke:#000000; stroke-width:4; stroke-opacity:1; fill:none" points="
  198.339,506.272 224.192,506.272 
  "/>
<polyline clip-path="url(#clip740)" style="stroke:#000000; stroke-width:4; stroke-opacity:1; fill:none" points="
  198.339,278.918 224.192,278.918 
  "/>
<polyline clip-path="url(#clip740)" style="stroke:#000000; stroke-width:4; stroke-opacity:1; fill:none" points="
  198.339,51.5634 224.192,51.5634 
  "/>
<path clip-path="url(#clip740)" d="M 0 0 M140.718 1204.9 L140.718 1200.64 Q142.478 1201.47 144.283 1201.91 Q146.089 1202.35 147.825 1202.35 Q152.454 1202.35 154.885 1199.25 Q157.339 1196.13 157.686 1189.78 Q156.343 1191.77 154.283 1192.84 Q152.223 1193.9 149.723 1193.9 Q144.538 1193.9 141.505 1190.78 Q138.496 1187.63 138.496 1182.19 Q138.496 1176.87 141.644 1173.65 Q144.792 1170.43 150.024 1170.43 Q156.019 1170.43 159.167 1175.04 Q162.339 1179.62 162.339 1188.37 Q162.339 1196.54 158.45 1201.43 Q154.584 1206.29 148.033 1206.29 Q146.274 1206.29 144.468 1205.94 Q142.663 1205.59 140.718 1204.9 M150.024 1190.25 Q153.172 1190.25 155.001 1188.09 Q156.853 1185.94 156.853 1182.19 Q156.853 1178.46 155.001 1176.31 Q153.172 1174.13 150.024 1174.13 Q146.876 1174.13 145.024 1176.31 Q143.195 1178.46 143.195 1182.19 Q143.195 1185.94 145.024 1188.09 Q146.876 1190.25 150.024 1190.25 Z" fill="#000000" fill-rule="evenodd" fill-opacity="1" /><path clip-path="url(#clip740)" d="M 0 0 M115.418 974.326 L123.056 974.326 L123.056 947.961 L114.746 949.627 L114.746 945.368 L123.01 943.702 L127.686 943.702 L127.686 974.326 L135.325 974.326 L135.325 978.262 L115.418 978.262 L115.418 974.326 Z" fill="#000000" fill-rule="evenodd" fill-opacity="1" /><path clip-path="url(#clip740)" d="M 0 0 M150.394 946.78 Q146.783 946.78 144.954 950.345 Q143.149 953.887 143.149 961.016 Q143.149 968.123 144.954 971.687 Q146.783 975.229 150.394 975.229 Q154.028 975.229 155.834 971.687 Q157.663 968.123 157.663 961.016 Q157.663 953.887 155.834 950.345 Q154.028 946.78 150.394 946.78 M150.394 943.077 Q156.204 943.077 159.26 947.683 Q162.339 952.266 162.339 961.016 Q162.339 969.743 159.26 974.349 Q156.204 978.933 150.394 978.933 Q144.584 978.933 141.505 974.349 Q138.45 969.743 138.45 961.016 Q138.45 952.266 141.505 947.683 Q144.584 943.077 150.394 943.077 Z" fill="#000000" fill-rule="evenodd" fill-opacity="1" /><path clip-path="url(#clip740)" d="M 0 0 M116.644 746.972 L124.283 746.972 L124.283 720.606 L115.973 722.273 L115.973 718.014 L124.237 716.347 L128.913 716.347 L128.913 746.972 L136.552 746.972 L136.552 750.907 L116.644 750.907 L116.644 746.972 Z" fill="#000000" fill-rule="evenodd" fill-opacity="1" /><path clip-path="url(#clip740)" d="M 0 0 M142.431 746.972 L150.07 746.972 L150.07 720.606 L141.76 722.273 L141.76 718.014 L150.024 716.347 L154.7 716.347 L154.7 746.972 L162.339 746.972 L162.339 750.907 L142.431 750.907 L142.431 746.972 Z" fill="#000000" fill-rule="evenodd" fill-opacity="1" /><path clip-path="url(#clip740)" d="M 0 0 M117.015 519.617 L124.654 519.617 L124.654 493.252 L116.343 494.918 L116.343 490.659 L124.607 488.992 L129.283 488.992 L129.283 519.617 L136.922 519.617 L136.922 523.552 L117.015 523.552 L117.015 519.617 Z" fill="#000000" fill-rule="evenodd" fill-opacity="1" /><path clip-path="url(#clip740)" d="M 0 0 M146.019 519.617 L162.339 519.617 L162.339 523.552 L140.394 523.552 L140.394 519.617 Q143.056 516.863 147.64 512.233 Q152.246 507.58 153.427 506.238 Q155.672 503.715 156.552 501.979 Q157.454 500.219 157.454 498.529 Q157.454 495.775 155.51 494.039 Q153.589 492.303 150.487 492.303 Q148.288 492.303 145.834 493.067 Q143.404 493.83 140.626 495.381 L140.626 490.659 Q143.45 489.525 145.904 488.946 Q148.357 488.367 150.394 488.367 Q155.765 488.367 158.959 491.053 Q162.153 493.738 162.153 498.229 Q162.153 500.358 161.343 502.279 Q160.556 504.178 158.45 506.77 Q157.871 507.441 154.769 510.659 Q151.667 513.853 146.019 519.617 Z" fill="#000000" fill-rule="evenodd" fill-opacity="1" /><path clip-path="url(#clip740)" d="M 0 0 M116.066 292.263 L123.705 292.263 L123.705 265.897 L115.394 267.564 L115.394 263.305 L123.658 261.638 L128.334 261.638 L128.334 292.263 L135.973 292.263 L135.973 296.198 L116.066 296.198 L116.066 292.263 Z" fill="#000000" fill-rule="evenodd" fill-opacity="1" /><path clip-path="url(#clip740)" d="M 0 0 M155.209 277.564 Q158.565 278.281 160.44 280.55 Q162.339 282.818 162.339 286.152 Q162.339 291.267 158.82 294.068 Q155.302 296.869 148.82 296.869 Q146.644 296.869 144.329 296.429 Q142.038 296.013 139.584 295.156 L139.584 290.642 Q141.529 291.777 143.843 292.355 Q146.158 292.934 148.681 292.934 Q153.079 292.934 155.371 291.198 Q157.686 289.462 157.686 286.152 Q157.686 283.096 155.533 281.383 Q153.403 279.647 149.584 279.647 L145.556 279.647 L145.556 275.805 L149.769 275.805 Q153.218 275.805 155.047 274.439 Q156.876 273.05 156.876 270.457 Q156.876 267.795 154.978 266.383 Q153.103 264.948 149.584 264.948 Q147.663 264.948 145.464 265.365 Q143.265 265.781 140.626 266.661 L140.626 262.494 Q143.288 261.754 145.603 261.383 Q147.941 261.013 150.001 261.013 Q155.325 261.013 158.427 263.444 Q161.528 265.851 161.528 269.971 Q161.528 272.842 159.885 274.832 Q158.241 276.8 155.209 277.564 Z" fill="#000000" fill-rule="evenodd" fill-opacity="1" /><path clip-path="url(#clip740)" d="M 0 0 M114.931 64.9083 L122.57 64.9083 L122.57 38.5427 L114.26 40.2093 L114.26 35.9501 L122.524 34.2834 L127.2 34.2834 L127.2 64.9083 L134.839 64.9083 L134.839 68.8434 L114.931 68.8434 L114.931 64.9083 Z" fill="#000000" fill-rule="evenodd" fill-opacity="1" /><path clip-path="url(#clip740)" d="M 0 0 M152.755 38.3575 L140.95 56.8065 L152.755 56.8065 L152.755 38.3575 M151.528 34.2834 L157.408 34.2834 L157.408 56.8065 L162.339 56.8065 L162.339 60.6953 L157.408 60.6953 L157.408 68.8434 L152.755 68.8434 L152.755 60.6953 L137.154 60.6953 L137.154 56.1815 L151.528 34.2834 Z" fill="#000000" fill-rule="evenodd" fill-opacity="1" /><path clip-path="url(#clip740)" d="M 0 0 M59.1993 815.533 Q55.2526 813.336 53.3747 810.281 Q51.4968 807.225 51.4968 803.088 Q51.4968 797.518 55.4117 794.494 Q59.2948 791.47 66.4881 791.47 L88.0042 791.47 L88.0042 797.358 L66.679 797.358 Q61.5546 797.358 59.072 799.173 Q56.5894 800.987 56.5894 804.711 Q56.5894 809.262 59.6131 811.904 Q62.6368 814.546 67.8567 814.546 L88.0042 814.546 L88.0042 820.434 L66.679 820.434 Q61.5228 820.434 59.072 822.248 Q56.5894 824.063 56.5894 827.85 Q56.5894 832.338 59.6449 834.98 Q62.6686 837.622 67.8567 837.622 L88.0042 837.622 L88.0042 843.51 L52.3562 843.51 L52.3562 837.622 L57.8944 837.622 Q54.616 835.616 53.0564 832.815 Q51.4968 830.015 51.4968 826.163 Q51.4968 822.28 53.4702 819.575 Q55.4436 816.838 59.1993 815.533 Z" fill="#000000" fill-rule="evenodd" fill-opacity="1" /><path clip-path="url(#clip740)" d="M 0 0 M52.3562 785.327 L52.3562 779.471 L88.0042 779.471 L88.0042 785.327 L52.3562 785.327 M38.479 785.327 L38.479 779.471 L45.895 779.471 L45.895 785.327 L38.479 785.327 Z" fill="#000000" fill-rule="evenodd" fill-opacity="1" /><path clip-path="url(#clip740)" d="M 0 0 M66.4881 743.696 L88.0042 743.696 L88.0042 749.552 L66.679 749.552 Q61.6183 749.552 59.1038 751.525 Q56.5894 753.499 56.5894 757.446 Q56.5894 762.188 59.6131 764.925 Q62.6368 767.662 67.8567 767.662 L88.0042 767.662 L88.0042 773.551 L52.3562 773.551 L52.3562 767.662 L57.8944 767.662 Q54.6797 765.562 53.0883 762.729 Q51.4968 759.864 51.4968 756.141 Q51.4968 749.998 55.3163 746.847 Q59.1038 743.696 66.4881 743.696 Z" fill="#000000" fill-rule="evenodd" fill-opacity="1" /><path clip-path="url(#clip740)" d="M 0 0 M98.8259 710.467 L103.377 710.467 L103.377 744.332 L98.8259 744.332 L98.8259 710.467 Z" fill="#000000" fill-rule="evenodd" fill-opacity="1" /><path clip-path="url(#clip740)" d="M 0 0 M57.7671 680.866 L38.479 680.866 L38.479 675.01 L88.0042 675.01 L88.0042 680.866 L82.657 680.866 Q85.8398 682.712 87.3994 685.545 Q88.9272 688.346 88.9272 692.292 Q88.9272 698.754 83.771 702.828 Q78.6147 706.87 70.212 706.87 Q61.8093 706.87 56.6531 702.828 Q51.4968 698.754 51.4968 692.292 Q51.4968 688.346 53.0564 685.545 Q54.5842 682.712 57.7671 680.866 M70.212 700.823 Q76.6732 700.823 80.3653 698.181 Q84.0256 695.507 84.0256 690.86 Q84.0256 686.213 80.3653 683.54 Q76.6732 680.866 70.212 680.866 Q63.7508 680.866 60.0905 683.54 Q56.3984 686.213 56.3984 690.86 Q56.3984 695.507 60.0905 698.181 Q63.7508 700.823 70.212 700.823 Z" fill="#000000" fill-rule="evenodd" fill-opacity="1" /><path clip-path="url(#clip740)" d="M 0 0 M52.3562 668.867 L52.3562 663.01 L88.0042 663.01 L88.0042 668.867 L52.3562 668.867 M38.479 668.867 L38.479 663.01 L45.895 663.01 L45.895 668.867 L38.479 668.867 Z" fill="#000000" fill-rule="evenodd" fill-opacity="1" /><path clip-path="url(#clip740)" d="M 0 0 M38.479 638.821 L43.3487 638.821 L43.3487 644.422 Q43.3487 647.573 44.6219 648.815 Q45.895 650.024 49.2052 650.024 L52.3562 650.024 L52.3562 640.38 L56.9077 640.38 L56.9077 650.024 L88.0042 650.024 L88.0042 655.912 L56.9077 655.912 L56.9077 661.514 L52.3562 661.514 L52.3562 655.912 L49.8736 655.912 Q43.9216 655.912 41.2162 653.143 Q38.479 650.374 38.479 644.359 L38.479 638.821 Z" fill="#000000" fill-rule="evenodd" fill-opacity="1" /><path clip-path="url(#clip740)" d="M 0 0 M38.479 614.631 L43.3487 614.631 L43.3487 620.233 Q43.3487 623.384 44.6219 624.625 Q45.895 625.835 49.2052 625.835 L52.3562 625.835 L52.3562 616.19 L56.9077 616.19 L56.9077 625.835 L88.0042 625.835 L88.0042 631.723 L56.9077 631.723 L56.9077 637.325 L52.3562 637.325 L52.3562 631.723 L49.8736 631.723 Q43.9216 631.723 41.2162 628.954 Q38.479 626.185 38.479 620.169 L38.479 614.631 Z" fill="#000000" fill-rule="evenodd" fill-opacity="1" /><polyline clip-path="url(#clip742)" style="stroke:#009af9; stroke-width:20; stroke-opacity:1; fill:none" stroke-dasharray="80, 50" points="
  259.313,85.838 936.802,1372.3 1614.29,616.269 2291.78,893.566 
  "/>
<path clip-path="url(#clip740)" d="
M1990.54 213.659 L2280.94 213.659 L2280.94 92.6992 L1990.54 92.6992  Z
  " fill="#ffffff" fill-rule="evenodd" fill-opacity="1"/>
<polyline clip-path="url(#clip740)" style="stroke:#000000; stroke-width:4; stroke-opacity:1; fill:none" points="
  1990.54,213.659 2280.94,213.659 2280.94,92.6992 1990.54,92.6992 1990.54,213.659 
  "/>
<polyline clip-path="url(#clip740)" style="stroke:#009af9; stroke-width:4; stroke-opacity:1; fill:none" stroke-dasharray="16, 10" points="
  2014.48,153.179 2158.11,153.179 
  "/>
<path clip-path="url(#clip740)" d="M 0 0 M2195.89 172.867 Q2194.08 177.496 2192.37 178.908 Q2190.66 180.32 2187.79 180.32 L2184.39 180.32 L2184.39 176.755 L2186.89 176.755 Q2188.64 176.755 2189.62 175.922 Q2190.59 175.089 2191.77 171.987 L2192.53 170.043 L2182.05 144.533 L2186.56 144.533 L2194.66 164.811 L2202.77 144.533 L2207.28 144.533 L2195.89 172.867 Z" fill="#000000" fill-rule="evenodd" fill-opacity="1" /><path clip-path="url(#clip740)" d="M 0 0 M2213.16 166.524 L2220.8 166.524 L2220.8 140.158 L2212.49 141.825 L2212.49 137.566 L2220.75 135.899 L2225.43 135.899 L2225.43 166.524 L2233.07 166.524 L2233.07 170.459 L2213.16 170.459 L2213.16 166.524 Z" fill="#000000" fill-rule="evenodd" fill-opacity="1" /></svg>
