<?xml version="1.0" encoding="utf-8"?>
<svg xmlns="http://www.w3.org/2000/svg" xmlns:xlink="http://www.w3.org/1999/xlink" width="600" height="400" viewBox="0 0 2400 1600">
<defs>
  <clipPath id="clip660">
    <rect x="0" y="0" width="2400" height="1600"/>
  </clipPath>
</defs>
<path clip-path="url(#clip660)" d="
M0 1600 L2400 1600 L2400 0 L0 0  Z
  " fill="#ffffff" fill-rule="evenodd" fill-opacity="1"/>
<defs>
  <clipPath id="clip661">
    <rect x="480" y="0" width="1681" height="1600"/>
  </clipPath>
</defs>
<path clip-path="url(#clip660)" d="
M202.459 1410.9 L2352.76 1410.9 L2352.76 47.2441 L202.459 47.2441  Z
  " fill="#ffffff" fill-rule="evenodd" fill-opacity="1"/>
<defs>
  <clipPath id="clip662">
    <rect x="202" y="47" width="2151" height="1365"/>
  </clipPath>
</defs>
<polyline clip-path="url(#clip662)" style="stroke:#000000; stroke-width:2; stroke-opacity:0.1; fill:none" points="
  263.316,1410.9 263.316,47.2441 
  "/>
<polyline clip-path="url(#clip662)" style="stroke:#000000; stroke-width:2; stroke-opacity:0.1; fill:none" points="
  770.462,1410.9 770.462,47.2441 
  "/>
<polyline clip-path="url(#clip662)" style="stroke:#000000; stroke-width:2; stroke-opacity:0.1; fill:none" points="
  1277.61,1410.9 1277.61,47.2441 
  "/>
<polyline clip-path="url(#clip662)" style="stroke:#000000; stroke-width:2; stroke-opacity:0.1; fill:none" points="
  1784.75,1410.9 1784.75,47.2441 
  "/>
<polyline clip-path="url(#clip662)" style="stroke:#000000; stroke-width:2; stroke-opacity:0.1; fill:none" points="
  2291.9,1410.9 2291.9,47.2441 
  "/>
<polyline clip-path="url(#clip660)" style="stroke:#000000; stroke-width:4; stroke-opacity:1; fill:none" points="
  202.459,1410.9 2352.76,1410.9 
  "/>
<polyline clip-path="url(#clip660)" style="stroke:#000000; stroke-width:4; stroke-opacity:1; fill:none" points="
  263.316,1410.9 263.316,1394.53 
  "/>
<polyline clip-path="url(#clip660)" style="stroke:#000000; stroke-width:4; stroke-opacity:1; fill:none" points="
  770.462,1410.9 770.462,1394.53 
  "/>
<polyline clip-path="url(#clip660)" style="stroke:#000000; stroke-width:4; stroke-opacity:1; fill:none" points="
  1277.61,1410.9 1277.61,1394.53 
  "/>
<polyline clip-path="url(#clip660)" style="stroke:#000000; stroke-width:4; stroke-opacity:1; fill:none" points="
  1784.75,1410.9 1784.75,1394.53 
  "/>
<polyline clip-path="url(#clip660)" style="stroke:#000000; stroke-width:4; stroke-opacity:1; fill:none" points="
  2291.9,1410.9 2291.9,1394.53 
  "/>
<path clip-path="url(#clip660)" d="M 0 0 M202.078 1489.17 L209.716 1489.17 L209.716 1462.8 L201.406 1464.47 L201.406 1460.21 L209.67 1458.54 L214.346 1458.54 L214.346 1489.17 L221.985 1489.17 L221.985 1493.1 L202.078 1493.1 L202.078 1489.17 Z" fill="#000000" fill-rule="evenodd" fill-opacity="1" /><path clip-path="url(#clip660)" d="M 0 0 M237.054 1461.62 Q233.443 1461.62 231.614 1465.19 Q229.809 1468.73 229.809 1475.86 Q229.809 1482.97 231.614 1486.53 Q233.443 1490.07 237.054 1490.07 Q240.688 1490.07 242.494 1486.53 Q244.323 1482.97 244.323 1475.86 Q244.323 1468.73 242.494 1465.19 Q240.688 1461.62 237.054 1461.62 M237.054 1457.92 Q242.864 1457.92 245.92 1462.53 Q248.999 1467.11 248.999 1475.86 Q248.999 1484.59 245.92 1489.19 Q242.864 1493.78 237.054 1493.78 Q231.244 1493.78 228.165 1489.19 Q225.11 1484.59 225.11 1475.86 Q225.11 1467.11 228.165 1462.53 Q231.244 1457.92 237.054 1457.92 Z" fill="#000000" fill-rule="evenodd" fill-opacity="1" /><path clip-path="url(#clip660)" d="M 0 0 M248.999 1452.02 L273.11 1452.02 L273.11 1455.22 L248.999 1455.22 L248.999 1452.02 Z" fill="#000000" fill-rule="evenodd" fill-opacity="1" /><path clip-path="url(#clip660)" d="M 0 0 M285.824 1450.14 Q283.266 1450.14 281.762 1451.89 Q280.276 1453.64 280.276 1456.68 Q280.276 1459.71 281.762 1461.48 Q283.266 1463.23 285.824 1463.23 Q288.382 1463.23 289.868 1461.48 Q291.373 1459.71 291.373 1456.68 Q291.373 1453.64 289.868 1451.89 Q288.382 1450.14 285.824 1450.14 M293.366 1438.23 L293.366 1441.69 Q291.937 1441.02 290.47 1440.66 Q289.022 1440.3 287.592 1440.3 Q283.831 1440.3 281.837 1442.84 Q279.862 1445.38 279.58 1450.52 Q280.69 1448.88 282.364 1448.01 Q284.038 1447.13 286.05 1447.13 Q290.282 1447.13 292.727 1449.71 Q295.191 1452.26 295.191 1456.68 Q295.191 1461.01 292.633 1463.62 Q290.075 1466.24 285.824 1466.24 Q280.953 1466.24 278.376 1462.51 Q275.8 1458.77 275.8 1451.68 Q275.8 1445.02 278.959 1441.07 Q282.119 1437.11 287.442 1437.11 Q288.871 1437.11 290.319 1437.39 Q291.786 1437.67 293.366 1438.23 Z" fill="#000000" fill-rule="evenodd" fill-opacity="1" /><path clip-path="url(#clip660)" d="M 0 0 M299.309 1460.92 L303.278 1460.92 L303.278 1465.69 L299.309 1465.69 L299.309 1460.92 Z" fill="#000000" fill-rule="evenodd" fill-opacity="1" /><path clip-path="url(#clip660)" d="M 0 0 M315.522 1440.11 Q312.588 1440.11 311.102 1443.01 Q309.635 1445.89 309.635 1451.68 Q309.635 1457.46 311.102 1460.35 Q312.588 1463.23 315.522 1463.23 Q318.475 1463.23 319.942 1460.35 Q321.427 1457.46 321.427 1451.68 Q321.427 1445.89 319.942 1443.01 Q318.475 1440.11 315.522 1440.11 M315.522 1437.11 Q320.242 1437.11 322.725 1440.85 Q325.227 1444.57 325.227 1451.68 Q325.227 1458.77 322.725 1462.51 Q320.242 1466.24 315.522 1466.24 Q310.801 1466.24 308.3 1462.51 Q305.817 1458.77 305.817 1451.68 Q305.817 1444.57 308.3 1440.85 Q310.801 1437.11 315.522 1437.11 Z" fill="#000000" fill-rule="evenodd" fill-opacity="1" /><path clip-path="url(#clip660)" d="M 0 0 M710.098 1489.17 L717.737 1489.17 L717.737 1462.8 L709.426 1464.47 L709.426 1460.21 L717.69 1458.54 L722.366 1458.54 L722.366 1489.17 L730.005 1489.17 L730.005 1493.1 L710.098 1493.1 L710.098 1489.17 Z" fill="#000000" fill-rule="evenodd" fill-opacity="1" /><path clip-path="url(#clip660)" d="M 0 0 M745.074 1461.62 Q741.463 1461.62 739.635 1465.19 Q737.829 1468.73 737.829 1475.86 Q737.829 1482.97 739.635 1486.53 Q741.463 1490.07 745.074 1490.07 Q748.709 1490.07 750.514 1486.53 Q752.343 1482.97 752.343 1475.86 Q752.343 1468.73 750.514 1465.19 Q748.709 1461.62 745.074 1461.62 M745.074 1457.92 Q750.884 1457.92 753.94 1462.53 Q757.019 1467.11 757.019 1475.86 Q757.019 1484.59 753.94 1489.19 Q750.884 1493.78 745.074 1493.78 Q739.264 1493.78 736.185 1489.19 Q733.13 1484.59 733.13 1475.86 Q733.13 1467.11 736.185 1462.53 Q739.264 1457.92 745.074 1457.92 Z" fill="#000000" fill-rule="evenodd" fill-opacity="1" /><path clip-path="url(#clip660)" d="M 0 0 M757.019 1452.02 L781.13 1452.02 L781.13 1455.22 L757.019 1455.22 L757.019 1452.02 Z" fill="#000000" fill-rule="evenodd" fill-opacity="1" /><path clip-path="url(#clip660)" d="M 0 0 M785.287 1437.61 L800.201 1437.61 L800.201 1440.81 L788.766 1440.81 L788.766 1447.69 Q789.594 1447.41 790.421 1447.28 Q791.249 1447.13 792.076 1447.13 Q796.778 1447.13 799.524 1449.71 Q802.27 1452.28 802.27 1456.68 Q802.27 1461.22 799.449 1463.74 Q796.628 1466.24 791.493 1466.24 Q789.725 1466.24 787.882 1465.94 Q786.058 1465.64 784.102 1465.04 L784.102 1461.22 Q785.795 1462.14 787.6 1462.59 Q789.406 1463.04 791.418 1463.04 Q794.672 1463.04 796.571 1461.33 Q798.471 1459.62 798.471 1456.68 Q798.471 1453.75 796.571 1452.04 Q794.672 1450.33 791.418 1450.33 Q789.895 1450.33 788.371 1450.67 Q786.867 1451 785.287 1451.72 L785.287 1437.61 Z" fill="#000000" fill-rule="evenodd" fill-opacity="1" /><path clip-path="url(#clip660)" d="M 0 0 M806.389 1460.92 L810.358 1460.92 L810.358 1465.69 L806.389 1465.69 L806.389 1460.92 Z" fill="#000000" fill-rule="evenodd" fill-opacity="1" /><path clip-path="url(#clip660)" d="M 0 0 M814.514 1437.61 L829.429 1437.61 L829.429 1440.81 L817.993 1440.81 L817.993 1447.69 Q818.821 1447.41 819.649 1447.28 Q820.476 1447.13 821.304 1447.13 Q826.006 1447.13 828.752 1449.71 Q831.497 1452.28 831.497 1456.68 Q831.497 1461.22 828.676 1463.74 Q825.855 1466.24 820.721 1466.24 Q818.953 1466.24 817.11 1465.94 Q815.285 1465.64 813.329 1465.04 L813.329 1461.22 Q815.022 1462.14 816.827 1462.59 Q818.633 1463.04 820.645 1463.04 Q823.899 1463.04 825.799 1461.33 Q827.698 1459.62 827.698 1456.68 Q827.698 1453.75 825.799 1452.04 Q823.899 1450.33 820.645 1450.33 Q819.122 1450.33 817.599 1450.67 Q816.094 1451 814.514 1451.72 L814.514 1437.61 Z" fill="#000000" fill-rule="evenodd" fill-opacity="1" /><path clip-path="url(#clip660)" d="M 0 0 M1216.84 1489.17 L1224.48 1489.17 L1224.48 1462.8 L1216.17 1464.47 L1216.17 1460.21 L1224.43 1458.54 L1229.11 1458.54 L1229.11 1489.17 L1236.75 1489.17 L1236.75 1493.1 L1216.84 1493.1 L1216.84 1489.17 Z" fill="#000000" fill-rule="evenodd" fill-opacity="1" /><path clip-path="url(#clip660)" d="M 0 0 M1251.82 1461.62 Q1248.2 1461.62 1246.38 1465.19 Q1244.57 1468.73 1244.57 1475.86 Q1244.57 1482.97 1246.38 1486.53 Q1248.2 1490.07 1251.82 1490.07 Q1255.45 1490.07 1257.26 1486.53 Q1259.08 1482.97 1259.08 1475.86 Q1259.08 1468.73 1257.26 1465.19 Q1255.45 1461.62 1251.82 1461.62 M1251.82 1457.92 Q1257.63 1457.92 1260.68 1462.53 Q1263.76 1467.11 1263.76 1475.86 Q1263.76 1484.59 1260.68 1489.19 Q1257.63 1493.78 1251.82 1493.78 Q1246.01 1493.78 1242.93 1489.19 Q1239.87 1484.59 1239.87 1475.86 Q1239.87 1467.11 1242.93 1462.53 Q1246.01 1457.92 1251.82 1457.92 Z" fill="#000000" fill-rule="evenodd" fill-opacity="1" /><path clip-path="url(#clip660)" d="M 0 0 M1263.76 1452.02 L1287.87 1452.02 L1287.87 1455.22 L1263.76 1455.22 L1263.76 1452.02 Z" fill="#000000" fill-rule="evenodd" fill-opacity="1" /><path clip-path="url(#clip660)" d="M 0 0 M1292.03 1437.61 L1306.94 1437.61 L1306.94 1440.81 L1295.51 1440.81 L1295.51 1447.69 Q1296.33 1447.41 1297.16 1447.28 Q1297.99 1447.13 1298.82 1447.13 Q1303.52 1447.13 1306.27 1449.71 Q1309.01 1452.28 1309.01 1456.68 Q1309.01 1461.22 1306.19 1463.74 Q1303.37 1466.24 1298.23 1466.24 Q1296.47 1466.24 1294.62 1465.94 Q1292.8 1465.64 1290.84 1465.04 L1290.84 1461.22 Q1292.54 1462.14 1294.34 1462.59 Q1296.15 1463.04 1298.16 1463.04 Q1301.41 1463.04 1303.31 1461.33 Q1305.21 1459.62 1305.21 1456.68 Q1305.21 1453.75 1303.31 1452.04 Q1301.41 1450.33 1298.16 1450.33 Q1296.64 1450.33 1295.11 1450.67 Q1293.61 1451 1292.03 1451.72 L1292.03 1437.61 Z" fill="#000000" fill-rule="evenodd" fill-opacity="1" /><path clip-path="url(#clip660)" d="M 0 0 M1313.13 1460.92 L1317.1 1460.92 L1317.1 1465.69 L1313.13 1465.69 L1313.13 1460.92 Z" fill="#000000" fill-rule="evenodd" fill-opacity="1" /><path clip-path="url(#clip660)" d="M 0 0 M1329.34 1440.11 Q1326.41 1440.11 1324.92 1443.01 Q1323.46 1445.89 1323.46 1451.68 Q1323.46 1457.46 1324.92 1460.35 Q1326.41 1463.23 1329.34 1463.23 Q1332.3 1463.23 1333.76 1460.35 Q1335.25 1457.46 1335.25 1451.68 Q1335.25 1445.89 1333.76 1443.01 Q1332.3 1440.11 1329.34 1440.11 M1329.34 1437.11 Q1334.06 1437.11 1336.55 1440.85 Q1339.05 1444.57 1339.05 1451.68 Q1339.05 1458.77 1336.55 1462.51 Q1334.06 1466.24 1329.34 1466.24 Q1324.62 1466.24 1322.12 1462.51 Q1319.64 1458.77 1319.64 1451.68 Q1319.64 1444.57 1322.12 1440.85 Q1324.62 1437.11 1329.34 1437.11 Z" fill="#000000" fill-rule="evenodd" fill-opacity="1" /><path clip-path="url(#clip660)" d="M 0 0 M1723.79 1489.17 L1731.43 1489.17 L1731.43 1462.8 L1723.12 1464.47 L1723.12 1460.21 L1731.38 1458.54 L1736.06 1458.54 L1736.06 1489.17 L1743.69 1489.17 L1743.69 1493.1 L1723.79 1493.1 L1723.79 1489.17 Z" fill="#000000" fill-rule="evenodd" fill-opacity="1" /><path clip-path="url(#clip660)" d="M 0 0 M1758.76 1461.62 Q1755.15 1461.62 1753.32 1465.19 Q1751.52 1468.73 1751.52 1475.86 Q1751.52 1482.97 1753.32 1486.53 Q1755.15 1490.07 1758.76 1490.07 Q1762.4 1490.07 1764.2 1486.53 Q1766.03 1482.97 1766.03 1475.86 Q1766.03 1468.73 1764.2 1465.19 Q1762.4 1461.62 1758.76 1461.62 M1758.76 1457.92 Q1764.57 1457.92 1767.63 1462.53 Q1770.71 1467.11 1770.71 1475.86 Q1770.71 1484.59 1767.63 1489.19 Q1764.57 1493.78 1758.76 1493.78 Q1752.95 1493.78 1749.87 1489.19 Q1746.82 1484.59 1746.82 1475.86 Q1746.82 1467.11 1749.87 1462.53 Q1752.95 1457.92 1758.76 1457.92 Z" fill="#000000" fill-rule="evenodd" fill-opacity="1" /><path clip-path="url(#clip660)" d="M 0 0 M1770.71 1452.02 L1794.82 1452.02 L1794.82 1455.22 L1770.71 1455.22 L1770.71 1452.02 Z" fill="#000000" fill-rule="evenodd" fill-opacity="1" /><path clip-path="url(#clip660)" d="M 0 0 M1809.38 1440.92 L1799.78 1455.91 L1809.38 1455.91 L1809.38 1440.92 M1808.38 1437.61 L1813.16 1437.61 L1813.16 1455.91 L1817.16 1455.91 L1817.16 1459.07 L1813.16 1459.07 L1813.16 1465.69 L1809.38 1465.69 L1809.38 1459.07 L1796.7 1459.07 L1796.7 1455.41 L1808.38 1437.61 Z" fill="#000000" fill-rule="evenodd" fill-opacity="1" /><path clip-path="url(#clip660)" d="M 0 0 M1821.28 1460.92 L1825.25 1460.92 L1825.25 1465.69 L1821.28 1465.69 L1821.28 1460.92 Z" fill="#000000" fill-rule="evenodd" fill-opacity="1" /><path clip-path="url(#clip660)" d="M 0 0 M1829.41 1437.61 L1844.32 1437.61 L1844.32 1440.81 L1832.89 1440.81 L1832.89 1447.69 Q1833.71 1447.41 1834.54 1447.28 Q1835.37 1447.13 1836.2 1447.13 Q1840.9 1447.13 1843.64 1449.71 Q1846.39 1452.28 1846.39 1456.68 Q1846.39 1461.22 1843.57 1463.74 Q1840.75 1466.24 1835.61 1466.24 Q1833.85 1466.24 1832 1465.94 Q1830.18 1465.64 1828.22 1465.04 L1828.22 1461.22 Q1829.91 1462.14 1831.72 1462.59 Q1833.53 1463.04 1835.54 1463.04 Q1838.79 1463.04 1840.69 1461.33 Q1842.59 1459.62 1842.59 1456.68 Q1842.59 1453.75 1840.69 1452.04 Q1838.79 1450.33 1835.54 1450.33 Q1834.01 1450.33 1832.49 1450.67 Q1830.99 1451 1829.41 1451.72 L1829.41 1437.61 Z" fill="#000000" fill-rule="evenodd" fill-opacity="1" /><path clip-path="url(#clip660)" d="M 0 0 M2230.53 1489.17 L2238.17 1489.17 L2238.17 1462.8 L2229.86 1464.47 L2229.86 1460.21 L2238.12 1458.54 L2242.8 1458.54 L2242.8 1489.17 L2250.44 1489.17 L2250.44 1493.1 L2230.53 1493.1 L2230.53 1489.17 Z" fill="#000000" fill-rule="evenodd" fill-opacity="1" /><path clip-path="url(#clip660)" d="M 0 0 M2265.5 1461.62 Q2261.89 1461.62 2260.06 1465.19 Q2258.26 1468.73 2258.26 1475.86 Q2258.26 1482.97 2260.06 1486.53 Q2261.89 1490.07 2265.5 1490.07 Q2269.14 1490.07 2270.94 1486.53 Q2272.77 1482.97 2272.77 1475.86 Q2272.77 1468.73 2270.94 1465.19 Q2269.14 1461.62 2265.5 1461.62 M2265.5 1457.92 Q2271.31 1457.92 2274.37 1462.53 Q2277.45 1467.11 2277.45 1475.86 Q2277.45 1484.59 2274.37 1489.19 Q2271.31 1493.78 2265.5 1493.78 Q2259.69 1493.78 2256.62 1489.19 Q2253.56 1484.59 2253.56 1475.86 Q2253.56 1467.11 2256.62 1462.53 Q2259.69 1457.92 2265.5 1457.92 Z" fill="#000000" fill-rule="evenodd" fill-opacity="1" /><path clip-path="url(#clip660)" d="M 0 0 M2277.45 1452.02 L2301.56 1452.02 L2301.56 1455.22 L2277.45 1455.22 L2277.45 1452.02 Z" fill="#000000" fill-rule="evenodd" fill-opacity="1" /><path clip-path="url(#clip660)" d="M 0 0 M2316.12 1440.92 L2306.53 1455.91 L2316.12 1455.91 L2316.12 1440.92 M2315.12 1437.61 L2319.9 1437.61 L2319.9 1455.91 L2323.9 1455.91 L2323.9 1459.07 L2319.9 1459.07 L2319.9 1465.69 L2316.12 1465.69 L2316.12 1459.07 L2303.44 1459.07 L2303.44 1455.41 L2315.12 1437.61 Z" fill="#000000" fill-rule="evenodd" fill-opacity="1" /><path clip-path="url(#clip660)" d="M 0 0 M2328.02 1460.92 L2331.99 1460.92 L2331.99 1465.69 L2328.02 1465.69 L2328.02 1460.92 Z" fill="#000000" fill-rule="evenodd" fill-opacity="1" /><path clip-path="url(#clip660)" d="M 0 0 M2344.24 1440.11 Q2341.3 1440.11 2339.82 1443.01 Q2338.35 1445.89 2338.35 1451.68 Q2338.35 1457.46 2339.82 1460.35 Q2341.3 1463.23 2344.24 1463.23 Q2347.19 1463.23 2348.66 1460.35 Q2350.14 1457.46 2350.14 1451.68 Q2350.14 1445.89 2348.66 1443.01 Q2347.19 1440.11 2344.24 1440.11 M2344.24 1437.11 Q2348.96 1437.11 2351.44 1440.85 Q2353.94 1444.57 2353.94 1451.68 Q2353.94 1458.77 2351.44 1462.51 Q2348.96 1466.24 2344.24 1466.24 Q2339.51 1466.24 2337.01 1462.51 Q2334.53 1458.77 2334.53 1451.68 Q2334.53 1444.57 2337.01 1440.85 Q2339.51 1437.11 2344.24 1437.11 Z" fill="#000000" fill-rule="evenodd" fill-opacity="1" /><path clip-path="url(#clip660)" d="M 0 0 M1209.13 1512.66 L1215.02 1512.66 L1215.02 1541.91 L1232.49 1526.54 L1239.97 1526.54 L1221.06 1543.22 L1240.77 1562.19 L1233.13 1562.19 L1215.02 1544.78 L1215.02 1562.19 L1209.13 1562.19 L1209.13 1512.66 Z" fill="#000000" fill-rule="evenodd" fill-opacity="1" /><path clip-path="url(#clip660)" d="M 0 0 M1273.99 1573.01 L1273.99 1577.56 L1240.13 1577.56 L1240.13 1573.01 L1273.99 1573.01 Z" fill="#000000" fill-rule="evenodd" fill-opacity="1" /><path clip-path="url(#clip660)" d="M 0 0 M1293.95 1530.64 Q1289.24 1530.64 1286.5 1534.34 Q1283.77 1538 1283.77 1544.39 Q1283.77 1550.79 1286.47 1554.48 Q1289.21 1558.14 1293.95 1558.14 Q1298.63 1558.14 1301.37 1554.45 Q1304.1 1550.76 1304.1 1544.39 Q1304.1 1538.06 1301.37 1534.37 Q1298.63 1530.64 1293.95 1530.64 M1293.95 1525.68 Q1301.59 1525.68 1305.95 1530.64 Q1310.31 1535.61 1310.31 1544.39 Q1310.31 1553.15 1305.95 1558.14 Q1301.59 1563.11 1293.95 1563.11 Q1286.28 1563.11 1281.92 1558.14 Q1277.59 1553.15 1277.59 1544.39 Q1277.59 1535.61 1281.92 1530.64 Q1286.28 1525.68 1293.95 1525.68 Z" fill="#000000" fill-rule="evenodd" fill-opacity="1" /><path clip-path="url(#clip660)" d="M 0 0 M1346.09 1540.67 L1346.09 1562.19 L1340.23 1562.19 L1340.23 1540.86 Q1340.23 1535.8 1338.26 1533.29 Q1336.28 1530.77 1332.34 1530.77 Q1327.59 1530.77 1324.86 1533.79 Q1322.12 1536.82 1322.12 1542.04 L1322.12 1562.19 L1316.23 1562.19 L1316.23 1526.54 L1322.12 1526.54 L1322.12 1532.08 Q1324.22 1528.86 1327.05 1527.27 Q1329.92 1525.68 1333.64 1525.68 Q1339.78 1525.68 1342.94 1529.5 Q1346.09 1533.29 1346.09 1540.67 Z" fill="#000000" fill-rule="evenodd" fill-opacity="1" /><polyline clip-path="url(#clip662)" style="stroke:#000000; stroke-width:2; stroke-opacity:0.1; fill:none" points="
  202.459,1160.23 2352.76,1160.23 
  "/>
<polyline clip-path="url(#clip662)" style="stroke:#000000; stroke-width:2; stroke-opacity:0.1; fill:none" points="
  202.459,871.144 2352.76,871.144 
  "/>
<polyline clip-path="url(#clip662)" style="stroke:#000000; stroke-width:2; stroke-opacity:0.1; fill:none" points="
  202.459,582.055 2352.76,582.055 
  "/>
<polyline clip-path="url(#clip662)" style="stroke:#000000; stroke-width:2; stroke-opacity:0.1; fill:none" points="
  202.459,292.966 2352.76,292.966 
  "/>
<polyline clip-path="url(#clip660)" style="stroke:#000000; stroke-width:4; stroke-opacity:1; fill:none" points="
  202.459,1410.9 202.459,47.2441 
  "/>
<polyline clip-path="url(#clip660)" style="stroke:#000000; stroke-width:4; stroke-opacity:1; fill:none" points="
  202.459,1160.23 228.263,1160.23 
  "/>
<polyline clip-path="url(#clip660)" style="stroke:#000000; stroke-width:4; stroke-opacity:1; fill:none" points="
  202.459,871.144 228.263,871.144 
  "/>
<polyline clip-path="url(#clip660)" style="stroke:#000000; stroke-width:4; stroke-opacity:1; fill:none" points="
  202.459,582.055 228.263,582.055 
  "/>
<polyline clip-path="url(#clip660)" style="stroke:#000000; stroke-width:4; stroke-opacity:1; fill:none" points="
  202.459,292.966 228.263,292.966 
  "/>
<path clip-path="url(#clip660)" d="M 0 0 M123.126 1173.58 L139.445 1173.58 L139.445 1177.51 L117.501 1177.51 L117.501 1173.58 Q120.163 1170.82 124.746 1166.19 Q129.353 1161.54 130.533 1160.2 Q132.779 1157.68 133.658 1155.94 Q134.561 1154.18 134.561 1152.49 Q134.561 1149.74 132.617 1148 Q130.695 1146.26 127.593 1146.26 Q125.394 1146.26 122.941 1147.03 Q120.51 1147.79 117.732 1149.34 L117.732 1144.62 Q120.556 1143.49 123.01 1142.91 Q125.464 1142.33 127.501 1142.33 Q132.871 1142.33 136.066 1145.01 Q139.26 1147.7 139.26 1152.19 Q139.26 1154.32 138.45 1156.24 Q137.663 1158.14 135.556 1160.73 Q134.978 1161.4 131.876 1164.62 Q128.774 1167.81 123.126 1173.58 Z" fill="#000000" fill-rule="evenodd" fill-opacity="1" /><path clip-path="url(#clip660)" d="M 0 0 M154.515 1146.03 Q150.903 1146.03 149.075 1149.6 Q147.269 1153.14 147.269 1160.27 Q147.269 1167.37 149.075 1170.94 Q150.903 1174.48 154.515 1174.48 Q158.149 1174.48 159.954 1170.94 Q161.783 1167.37 161.783 1160.27 Q161.783 1153.14 159.954 1149.6 Q158.149 1146.03 154.515 1146.03 M154.515 1142.33 Q160.325 1142.33 163.38 1146.93 Q166.459 1151.52 166.459 1160.27 Q166.459 1168.99 163.38 1173.6 Q160.325 1178.18 154.515 1178.18 Q148.704 1178.18 145.626 1173.6 Q142.57 1168.99 142.57 1160.27 Q142.57 1151.52 145.626 1146.93 Q148.704 1142.33 154.515 1142.33 Z" fill="#000000" fill-rule="evenodd" fill-opacity="1" /><path clip-path="url(#clip660)" d="M 0 0 M129.862 857.938 L118.056 876.387 L129.862 876.387 L129.862 857.938 M128.635 853.864 L134.515 853.864 L134.515 876.387 L139.445 876.387 L139.445 880.276 L134.515 880.276 L134.515 888.424 L129.862 888.424 L129.862 880.276 L114.26 880.276 L114.26 875.762 L128.635 853.864 Z" fill="#000000" fill-rule="evenodd" fill-opacity="1" /><path clip-path="url(#clip660)" d="M 0 0 M154.515 856.943 Q150.903 856.943 149.075 860.507 Q147.269 864.049 147.269 871.179 Q147.269 878.285 149.075 881.85 Q150.903 885.392 154.515 885.392 Q158.149 885.392 159.954 881.85 Q161.783 878.285 161.783 871.179 Q161.783 864.049 159.954 860.507 Q158.149 856.943 154.515 856.943 M154.515 853.239 Q160.325 853.239 163.38 857.845 Q166.459 862.429 166.459 871.179 Q166.459 879.906 163.38 884.512 Q160.325 889.095 154.515 889.095 Q148.704 889.095 145.626 884.512 Q142.57 879.906 142.57 871.179 Q142.57 862.429 145.626 857.845 Q148.704 853.239 154.515 853.239 Z" fill="#000000" fill-rule="evenodd" fill-opacity="1" /><path clip-path="url(#clip660)" d="M 0 0 M127.917 580.192 Q124.769 580.192 122.918 582.344 Q121.089 584.497 121.089 588.247 Q121.089 591.974 122.918 594.15 Q124.769 596.303 127.917 596.303 Q131.066 596.303 132.894 594.15 Q134.746 591.974 134.746 588.247 Q134.746 584.497 132.894 582.344 Q131.066 580.192 127.917 580.192 M137.2 565.539 L137.2 569.798 Q135.441 568.965 133.635 568.525 Q131.853 568.085 130.093 568.085 Q125.464 568.085 123.01 571.21 Q120.58 574.335 120.232 580.655 Q121.598 578.641 123.658 577.576 Q125.718 576.488 128.195 576.488 Q133.404 576.488 136.413 579.659 Q139.445 582.807 139.445 588.247 Q139.445 593.571 136.297 596.789 Q133.149 600.006 127.917 600.006 Q121.922 600.006 118.751 595.423 Q115.58 590.817 115.58 582.09 Q115.58 573.895 119.468 569.034 Q123.357 564.15 129.908 564.15 Q131.667 564.15 133.45 564.497 Q135.255 564.845 137.2 565.539 Z" fill="#000000" fill-rule="evenodd" fill-opacity="1" /><path clip-path="url(#clip660)" d="M 0 0 M154.515 567.854 Q150.903 567.854 149.075 571.419 Q147.269 574.96 147.269 582.09 Q147.269 589.196 149.075 592.761 Q150.903 596.303 154.515 596.303 Q158.149 596.303 159.954 592.761 Q161.783 589.196 161.783 582.09 Q161.783 574.96 159.954 571.419 Q158.149 567.854 154.515 567.854 M154.515 564.15 Q160.325 564.15 163.38 568.757 Q166.459 573.34 166.459 582.09 Q166.459 590.817 163.38 595.423 Q160.325 600.006 154.515 600.006 Q148.704 600.006 145.626 595.423 Q142.57 590.817 142.57 582.09 Q142.57 573.34 145.626 568.757 Q148.704 564.15 154.515 564.15 Z" fill="#000000" fill-rule="evenodd" fill-opacity="1" /><path clip-path="url(#clip660)" d="M 0 0 M127.593 293.834 Q124.26 293.834 122.339 295.617 Q120.441 297.399 120.441 300.524 Q120.441 303.649 122.339 305.431 Q124.26 307.214 127.593 307.214 Q130.927 307.214 132.848 305.431 Q134.769 303.626 134.769 300.524 Q134.769 297.399 132.848 295.617 Q130.95 293.834 127.593 293.834 M122.918 291.844 Q119.908 291.103 118.218 289.043 Q116.552 286.982 116.552 284.019 Q116.552 279.876 119.492 277.469 Q122.455 275.061 127.593 275.061 Q132.755 275.061 135.695 277.469 Q138.635 279.876 138.635 284.019 Q138.635 286.982 136.945 289.043 Q135.279 291.103 132.292 291.844 Q135.672 292.631 137.547 294.922 Q139.445 297.214 139.445 300.524 Q139.445 305.547 136.367 308.232 Q133.311 310.917 127.593 310.917 Q121.876 310.917 118.797 308.232 Q115.742 305.547 115.742 300.524 Q115.742 297.214 117.64 294.922 Q119.538 292.631 122.918 291.844 M121.205 284.459 Q121.205 287.144 122.871 288.649 Q124.561 290.154 127.593 290.154 Q130.603 290.154 132.292 288.649 Q134.005 287.144 134.005 284.459 Q134.005 281.774 132.292 280.269 Q130.603 278.765 127.593 278.765 Q124.561 278.765 122.871 280.269 Q121.205 281.774 121.205 284.459 Z" fill="#000000" fill-rule="evenodd" fill-opacity="1" /><path clip-path="url(#clip660)" d="M 0 0 M154.515 278.765 Q150.903 278.765 149.075 282.33 Q147.269 285.871 147.269 293.001 Q147.269 300.107 149.075 303.672 Q150.903 307.214 154.515 307.214 Q158.149 307.214 159.954 303.672 Q161.783 300.107 161.783 293.001 Q161.783 285.871 159.954 282.33 Q158.149 278.765 154.515 278.765 M154.515 275.061 Q160.325 275.061 163.38 279.668 Q166.459 284.251 166.459 293.001 Q166.459 301.728 163.38 306.334 Q160.325 310.917 154.515 310.917 Q148.704 310.917 145.626 306.334 Q142.57 301.728 142.57 293.001 Q142.57 284.251 145.626 279.668 Q148.704 275.061 154.515 275.061 Z" fill="#000000" fill-rule="evenodd" fill-opacity="1" /><path clip-path="url(#clip660)" d="M 0 0 M59.1993 815.533 Q55.2526 813.336 53.3747 810.281 Q51.4968 807.225 51.4968 803.088 Q51.4968 797.518 55.4117 794.494 Q59.2948 791.47 66.4881 791.47 L88.0042 791.47 L88.0042 797.358 L66.679 797.358 Q61.5546 797.358 59.072 799.173 Q56.5894 800.987 56.5894 804.711 Q56.5894 809.262 59.6131 811.904 Q62.6368 814.546 67.8567 814.546 L88.0042 814.546 L88.0042 820.434 L66.679 820.434 Q61.5228 820.434 59.072 822.248 Q56.5894 824.063 56.5894 827.85 Q56.5894 832.338 59.6449 834.98 Q62.6686 837.622 67.8567 837.622 L88.0042 837.622 L88.0042 843.51 L52.3562 843.51 L52.3562 837.622 L57.8944 837.622 Q54.616 835.616 53.0564 832.815 Q51.4968 830.015 51.4968 826.163 Q51.4968 822.28 53.4702 819.575 Q55.4436 816.838 59.1993 815.533 Z" fill="#000000" fill-rule="evenodd" fill-opacity="1" /><path clip-path="url(#clip660)" d="M 0 0 M52.3562 785.327 L52.3562 779.471 L88.0042 779.471 L88.0042 785.327 L52.3562 785.327 M38.479 785.327 L38.479 779.471 L45.895 779.471 L45.895 785.327 L38.479 785.327 Z" fill="#000000" fill-rule="evenodd" fill-opacity="1" /><path clip-path="url(#clip660)" d="M 0 0 M66.4881 743.696 L88.0042 743.696 L88.0042 749.552 L66.679 749.552 Q61.6183 749.552 59.1038 751.525 Q56.5894 753.499 56.5894 757.446 Q56.5894 762.188 59.6131 764.925 Q62.6368 767.662 67.8567 767.662 L88.0042 767.662 L88.0042 773.551 L52.3562 773.551 L52.3562 767.662 L57.8944 767.662 Q54.6797 765.562 53.0883 762.729 Q51.4968 759.864 51.4968 756.141 Q51.4968 749.998 55.3163 746.847 Q59.1038 743.696 66.4881 743.696 Z" fill="#000000" fill-rule="evenodd" fill-opacity="1" /><path clip-path="url(#clip660)" d="M 0 0 M98.8259 710.467 L103.377 710.467 L103.377 744.332 L98.8259 744.332 L98.8259 710.467 Z" fill="#000000" fill-rule="evenodd" fill-opacity="1" /><path clip-path="url(#clip660)" d="M 0 0 M57.7671 680.866 L38.479 680.866 L38.479 675.01 L88.0042 675.01 L88.0042 680.866 L82.657 680.866 Q85.8398 682.712 87.3994 685.545 Q88.9272 688.346 88.9272 692.292 Q88.9272 698.754 83.771 702.828 Q78.6147 706.87 70.212 706.87 Q61.8093 706.87 56.6531 702.828 Q51.4968 698.754 51.4968 692.292 Q51.4968 688.346 53.0564 685.545 Q54.5842 682.712 57.7671 680.866 M70.212 700.823 Q76.6732 700.823 80.3653 698.181 Q84.0256 695.507 84.0256 690.86 Q84.0256 686.213 80.3653 683.54 Q76.6732 680.866 70.212 680.866 Q63.7508 680.866 60.0905 683.54 Q56.3984 686.213 56.3984 690.86 Q56.3984 695.507 60.0905 698.181 Q63.7508 700.823 70.212 700.823 Z" fill="#000000" fill-rule="evenodd" fill-opacity="1" /><path clip-path="url(#clip660)" d="M 0 0 M52.3562 668.867 L52.3562 663.01 L88.0042 663.01 L88.0042 668.867 L52.3562 668.867 M38.479 668.867 L38.479 663.01 L45.895 663.01 L45.895 668.867 L38.479 668.867 Z" fill="#000000" fill-rule="evenodd" fill-opacity="1" /><path clip-path="url(#clip660)" d="M 0 0 M38.479 638.821 L43.3487 638.821 L43.3487 644.422 Q43.3487 647.573 44.6219 648.815 Q45.895 650.024 49.2052 650.024 L52.3562 650.024 L52.3562 640.38 L56.9077 640.38 L56.9077 650.024 L88.0042 650.024 L88.0042 655.912 L56.9077 655.912 L56.9077 661.514 L52.3562 661.514 L52.3562 655.912 L49.8736 655.912 Q43.9216 655.912 41.2162 653.143 Q38.479 650.374 38.479 644.359 L38.479 638.821 Z" fill="#000000" fill-rule="evenodd" fill-opacity="1" /><path clip-path="url(#clip660)" d="M 0 0 M38.479 614.631 L43.3487 614.631 L43.3487 620.233 Q43.3487 623.384 44.6219 624.625 Q45.895 625.835 49.2052 625.835 L52.3562 625.835 L52.3562 616.19 L56.9077 616.19 L56.9077 625.835 L88.0042 625.835 L88.0042 631.723 L56.9077 631.723 L56.9077 637.325 L52.3562 637.325 L52.3562 631.723 L49.8736 631.723 Q43.9216 631.723 41.2162 628.954 Q38.479 626.185 38.479 620.169 L38.479 614.631 Z" fill="#000000" fill-rule="evenodd" fill-opacity="1" /><polyline clip-path="url(#clip662)" style="stroke:#009af9; stroke-width:20; stroke-opacity:1; fill:none" stroke-dasharray="80, 50" points="
  263.316,1084.04 1277.61,1372.3 2291.9,85.838 
  "/>
<path clip-path="url(#clip660)" d="
M1991.14 213.659 L2281.08 213.659 L2281.08 92.6992 L1991.14 92.6992  Z
  " fill="#ffffff" fill-rule="evenodd" fill-opacity="1"/>
<polyline clip-path="url(#clip660)" style="stroke:#000000; stroke-width:4; stroke-opacity:1; fill:none" points="
  1991.14,213.659 2281.08,213.659 2281.08,92.6992 1991.14,92.6992 1991.14,213.659 
  "/>
<polyline clip-path="url(#clip660)" style="stroke:#009af9; stroke-width:4; stroke-opacity:1; fill:none" stroke-dasharray="16, 10" points="
  2015.03,153.179 2158.38,153.179 
  "/>
<path clip-path="url(#clip660)" d="M 0 0 M2196.12 172.867 Q2194.31 177.496 2192.6 178.908 Q2190.89 180.32 2188.02 180.32 L2184.61 180.32 L2184.61 176.755 L2187.11 176.755 Q2188.87 176.755 2189.85 175.922 Q2190.82 175.089 2192 171.987 L2192.76 170.043 L2182.28 144.533 L2186.79 144.533 L2194.89 164.811 L2202.99 144.533 L2207.51 144.533 L2196.12 172.867 Z" fill="#000000" fill-rule="evenodd" fill-opacity="1" /><path clip-path="url(#clip660)" d="M 0 0 M2213.39 166.524 L2221.03 166.524 L2221.03 140.158 L2212.72 141.825 L2212.72 137.566 L2220.98 135.899 L2225.66 135.899 L2225.66 166.524 L2233.29 166.524 L2233.29 170.459 L2213.39 170.459 L2213.39 166.524 Z" fill="#000000" fill-rule="evenodd" fill-opacity="1" /></svg>
