<?xml version="1.0" encoding="utf-8"?>
<svg xmlns="http://www.w3.org/2000/svg" xmlns:xlink="http://www.w3.org/1999/xlink" width="600" height="400" viewBox="0 0 2400 1600">
<defs>
  <clipPath id="clip400">
    <rect x="0" y="0" width="2400" height="1600"/>
  </clipPath>
</defs>
<path clip-path="url(#clip400)" d="
M0 1600 L2400 1600 L2400 0 L0 0  Z
  " fill="#ffffff" fill-rule="evenodd" fill-opacity="1"/>
<defs>
  <clipPath id="clip401">
    <rect x="480" y="0" width="1681" height="1600"/>
  </clipPath>
</defs>
<path clip-path="url(#clip400)" d="
M262.32 1410.9 L2352.76 1410.9 L2352.76 47.2441 L262.32 47.2441  Z
  " fill="#ffffff" fill-rule="evenodd" fill-opacity="1"/>
<defs>
  <clipPath id="clip402">
    <rect x="262" y="47" width="2091" height="1365"/>
  </clipPath>
</defs>
<polyline clip-path="url(#clip402)" style="stroke:#000000; stroke-width:2; stroke-opacity:0.1; fill:none" points="
  321.483,1410.9 321.483,47.2441 
  "/>
<polyline clip-path="url(#clip402)" style="stroke:#000000; stroke-width:2; stroke-opacity:0.1; fill:none" points="
  715.905,1410.9 715.905,47.2441 
  "/>
<polyline clip-path="url(#clip402)" style="stroke:#000000; stroke-width:2; stroke-opacity:0.1; fill:none" points="
  1110.33,1410.9 1110.33,47.2441 
  "/>
<polyline clip-path="url(#clip402)" style="stroke:#000000; stroke-width:2; stroke-opacity:0.1; fill:none" points="
  1504.75,1410.9 1504.75,47.2441 
  "/>
<polyline clip-path="url(#clip402)" style="stroke:#000000; stroke-width:2; stroke-opacity:0.1; fill:none" points="
  1899.17,1410.9 1899.17,47.2441 
  "/>
<polyline clip-path="url(#clip402)" style="stroke:#000000; stroke-width:2; stroke-opacity:0.1; fill:none" points="
  2293.59,1410.9 2293.59,47.2441 
  "/>
<polyline clip-path="url(#clip400)" style="stroke:#000000; stroke-width:4; stroke-opacity:1; fill:none" points="
  262.32,1410.9 2352.76,1410.9 
  "/>
<polyline clip-path="url(#clip400)" style="stroke:#000000; stroke-width:4; stroke-opacity:1; fill:none" points="
  321.483,1410.9 321.483,1394.53 
  "/>
<polyline clip-path="url(#clip400)" style="stroke:#000000; stroke-width:4; stroke-opacity:1; fill:none" points="
  715.905,1410.9 715.905,1394.53 
  "/>
<polyline clip-path="url(#clip400)" style="stroke:#000000; stroke-width:4; stroke-opacity:1; fill:none" points="
  1110.33,1410.9 1110.33,1394.53 
  "/>
<polyline clip-path="url(#clip400)" style="stroke:#000000; stroke-width:4; stroke-opacity:1; fill:none" points="
  1504.75,1410.9 1504.75,1394.53 
  "/>
<polyline clip-path="url(#clip400)" style="stroke:#000000; stroke-width:4; stroke-opacity:1; fill:none" points="
  1899.17,1410.9 1899.17,1394.53 
  "/>
<polyline clip-path="url(#clip400)" style="stroke:#000000; stroke-width:4; stroke-opacity:1; fill:none" points="
  2293.59,1410.9 2293.59,1394.53 
  "/>
<path clip-path="url(#clip400)" d="M 0 0 M260.244 1489.17 L267.883 1489.17 L267.883 1462.8 L259.573 1464.47 L259.573 1460.21 L267.837 1458.54 L272.513 1458.54 L272.513 1489.17 L280.152 1489.17 L280.152 1493.1 L260.244 1493.1 L260.244 1489.17 Z" fill="#000000" fill-rule="evenodd" fill-opacity="1" /><path clip-path="url(#clip400)" d="M 0 0 M295.221 1461.62 Q291.61 1461.62 289.781 1465.19 Q287.976 1468.73 287.976 1475.86 Q287.976 1482.97 289.781 1486.53 Q291.61 1490.07 295.221 1490.07 Q298.855 1490.07 300.661 1486.53 Q302.489 1482.97 302.489 1475.86 Q302.489 1468.73 300.661 1465.19 Q298.855 1461.62 295.221 1461.62 M295.221 1457.92 Q301.031 1457.92 304.087 1462.53 Q307.165 1467.11 307.165 1475.86 Q307.165 1484.59 304.087 1489.19 Q301.031 1493.78 295.221 1493.78 Q289.411 1493.78 286.332 1489.19 Q283.276 1484.59 283.276 1475.86 Q283.276 1467.11 286.332 1462.53 Q289.411 1457.92 295.221 1457.92 Z" fill="#000000" fill-rule="evenodd" fill-opacity="1" /><path clip-path="url(#clip400)" d="M 0 0 M307.165 1452.02 L331.277 1452.02 L331.277 1455.22 L307.165 1455.22 L307.165 1452.02 Z" fill="#000000" fill-rule="evenodd" fill-opacity="1" /><path clip-path="url(#clip400)" d="M 0 0 M343.991 1450.14 Q341.433 1450.14 339.928 1451.89 Q338.443 1453.64 338.443 1456.68 Q338.443 1459.71 339.928 1461.48 Q341.433 1463.23 343.991 1463.23 Q346.549 1463.23 348.035 1461.48 Q349.539 1459.71 349.539 1456.68 Q349.539 1453.64 348.035 1451.89 Q346.549 1450.14 343.991 1450.14 M351.533 1438.23 L351.533 1441.69 Q350.103 1441.02 348.636 1440.66 Q347.188 1440.3 345.759 1440.3 Q341.997 1440.3 340.004 1442.84 Q338.029 1445.38 337.747 1450.52 Q338.856 1448.88 340.53 1448.01 Q342.204 1447.13 344.217 1447.13 Q348.448 1447.13 350.893 1449.71 Q353.357 1452.26 353.357 1456.68 Q353.357 1461.01 350.799 1463.62 Q348.241 1466.24 343.991 1466.24 Q339.12 1466.24 336.543 1462.51 Q333.966 1458.77 333.966 1451.68 Q333.966 1445.02 337.126 1441.07 Q340.286 1437.11 345.608 1437.11 Q347.038 1437.11 348.486 1437.39 Q349.953 1437.67 351.533 1438.23 Z" fill="#000000" fill-rule="evenodd" fill-opacity="1" /><path clip-path="url(#clip400)" d="M 0 0 M357.476 1460.92 L361.444 1460.92 L361.444 1465.69 L357.476 1465.69 L357.476 1460.92 Z" fill="#000000" fill-rule="evenodd" fill-opacity="1" /><path clip-path="url(#clip400)" d="M 0 0 M373.688 1440.11 Q370.754 1440.11 369.269 1443.01 Q367.802 1445.89 367.802 1451.68 Q367.802 1457.46 369.269 1460.35 Q370.754 1463.23 373.688 1463.23 Q376.641 1463.23 378.108 1460.35 Q379.594 1457.46 379.594 1451.68 Q379.594 1445.89 378.108 1443.01 Q376.641 1440.11 373.688 1440.11 M373.688 1437.11 Q378.409 1437.11 380.892 1440.85 Q383.393 1444.57 383.393 1451.68 Q383.393 1458.77 380.892 1462.51 Q378.409 1466.24 373.688 1466.24 Q368.968 1466.24 366.466 1462.51 Q363.984 1458.77 363.984 1451.68 Q363.984 1444.57 366.466 1440.85 Q368.968 1437.11 373.688 1437.11 Z" fill="#000000" fill-rule="evenodd" fill-opacity="1" /><path clip-path="url(#clip400)" d="M 0 0 M655.212 1489.17 L662.85 1489.17 L662.85 1462.8 L654.54 1464.47 L654.54 1460.21 L662.804 1458.54 L667.48 1458.54 L667.48 1489.17 L675.119 1489.17 L675.119 1493.1 L655.212 1493.1 L655.212 1489.17 Z" fill="#000000" fill-rule="evenodd" fill-opacity="1" /><path clip-path="url(#clip400)" d="M 0 0 M690.188 1461.62 Q686.577 1461.62 684.748 1465.19 Q682.943 1468.73 682.943 1475.86 Q682.943 1482.97 684.748 1486.53 Q686.577 1490.07 690.188 1490.07 Q693.822 1490.07 695.628 1486.53 Q697.457 1482.97 697.457 1475.86 Q697.457 1468.73 695.628 1465.19 Q693.822 1461.62 690.188 1461.62 M690.188 1457.92 Q695.998 1457.92 699.054 1462.53 Q702.133 1467.11 702.133 1475.86 Q702.133 1484.59 699.054 1489.19 Q695.998 1493.78 690.188 1493.78 Q684.378 1493.78 681.299 1489.19 Q678.244 1484.59 678.244 1475.86 Q678.244 1467.11 681.299 1462.53 Q684.378 1457.92 690.188 1457.92 Z" fill="#000000" fill-rule="evenodd" fill-opacity="1" /><path clip-path="url(#clip400)" d="M 0 0 M702.133 1452.02 L726.244 1452.02 L726.244 1455.22 L702.133 1455.22 L702.133 1452.02 Z" fill="#000000" fill-rule="evenodd" fill-opacity="1" /><path clip-path="url(#clip400)" d="M 0 0 M730.401 1437.61 L745.315 1437.61 L745.315 1440.81 L733.88 1440.81 L733.88 1447.69 Q734.708 1447.41 735.535 1447.28 Q736.363 1447.13 737.19 1447.13 Q741.892 1447.13 744.638 1449.71 Q747.384 1452.28 747.384 1456.68 Q747.384 1461.22 744.563 1463.74 Q741.742 1466.24 736.607 1466.24 Q734.839 1466.24 732.996 1465.94 Q731.172 1465.64 729.216 1465.04 L729.216 1461.22 Q730.908 1462.14 732.714 1462.59 Q734.52 1463.04 736.532 1463.04 Q739.786 1463.04 741.685 1461.33 Q743.585 1459.62 743.585 1456.68 Q743.585 1453.75 741.685 1452.04 Q739.786 1450.33 736.532 1450.33 Q735.009 1450.33 733.485 1450.67 Q731.981 1451 730.401 1451.72 L730.401 1437.61 Z" fill="#000000" fill-rule="evenodd" fill-opacity="1" /><path clip-path="url(#clip400)" d="M 0 0 M751.503 1460.92 L755.471 1460.92 L755.471 1465.69 L751.503 1465.69 L751.503 1460.92 Z" fill="#000000" fill-rule="evenodd" fill-opacity="1" /><path clip-path="url(#clip400)" d="M 0 0 M759.703 1465.11 L759.703 1461.65 Q761.133 1462.33 762.6 1462.68 Q764.067 1463.04 765.477 1463.04 Q769.239 1463.04 771.214 1460.52 Q773.207 1457.98 773.489 1452.83 Q772.398 1454.45 770.725 1455.31 Q769.051 1456.18 767.019 1456.18 Q762.806 1456.18 760.343 1453.64 Q757.898 1451.08 757.898 1446.66 Q757.898 1442.33 760.455 1439.72 Q763.013 1437.11 767.264 1437.11 Q772.135 1437.11 774.693 1440.85 Q777.27 1444.57 777.27 1451.68 Q777.27 1458.32 774.11 1462.29 Q770.969 1466.24 765.646 1466.24 Q764.217 1466.24 762.75 1465.96 Q761.283 1465.67 759.703 1465.11 M767.264 1453.21 Q769.822 1453.21 771.308 1451.46 Q772.812 1449.71 772.812 1446.66 Q772.812 1443.63 771.308 1441.88 Q769.822 1440.11 767.264 1440.11 Q764.706 1440.11 763.201 1441.88 Q761.716 1443.63 761.716 1446.66 Q761.716 1449.71 763.201 1451.46 Q764.706 1453.21 767.264 1453.21 Z" fill="#000000" fill-rule="evenodd" fill-opacity="1" /><path clip-path="url(#clip400)" d="M 0 0 M1049.6 1489.17 L1057.23 1489.17 L1057.23 1462.8 L1048.92 1464.47 L1048.92 1460.21 L1057.19 1458.54 L1061.86 1458.54 L1061.86 1489.17 L1069.5 1489.17 L1069.5 1493.1 L1049.6 1493.1 L1049.6 1489.17 Z" fill="#000000" fill-rule="evenodd" fill-opacity="1" /><path clip-path="url(#clip400)" d="M 0 0 M1084.57 1461.62 Q1080.96 1461.62 1079.13 1465.19 Q1077.33 1468.73 1077.33 1475.86 Q1077.33 1482.97 1079.13 1486.53 Q1080.96 1490.07 1084.57 1490.07 Q1088.21 1490.07 1090.01 1486.53 Q1091.84 1482.97 1091.84 1475.86 Q1091.84 1468.73 1090.01 1465.19 Q1088.21 1461.62 1084.57 1461.62 M1084.57 1457.92 Q1090.38 1457.92 1093.44 1462.53 Q1096.52 1467.11 1096.52 1475.86 Q1096.52 1484.59 1093.44 1489.19 Q1090.38 1493.78 1084.57 1493.78 Q1078.76 1493.78 1075.68 1489.19 Q1072.63 1484.59 1072.63 1475.86 Q1072.63 1467.11 1075.68 1462.53 Q1078.76 1457.92 1084.57 1457.92 Z" fill="#000000" fill-rule="evenodd" fill-opacity="1" /><path clip-path="url(#clip400)" d="M 0 0 M1096.52 1452.02 L1120.63 1452.02 L1120.63 1455.22 L1096.52 1455.22 L1096.52 1452.02 Z" fill="#000000" fill-rule="evenodd" fill-opacity="1" /><path clip-path="url(#clip400)" d="M 0 0 M1124.78 1437.61 L1139.7 1437.61 L1139.7 1440.81 L1128.26 1440.81 L1128.26 1447.69 Q1129.09 1447.41 1129.92 1447.28 Q1130.75 1447.13 1131.57 1447.13 Q1136.28 1447.13 1139.02 1449.71 Q1141.77 1452.28 1141.77 1456.68 Q1141.77 1461.22 1138.95 1463.74 Q1136.13 1466.24 1130.99 1466.24 Q1129.22 1466.24 1127.38 1465.94 Q1125.56 1465.64 1123.6 1465.04 L1123.6 1461.22 Q1125.29 1462.14 1127.1 1462.59 Q1128.9 1463.04 1130.92 1463.04 Q1134.17 1463.04 1136.07 1461.33 Q1137.97 1459.62 1137.97 1456.68 Q1137.97 1453.75 1136.07 1452.04 Q1134.17 1450.33 1130.92 1450.33 Q1129.39 1450.33 1127.87 1450.67 Q1126.36 1451 1124.78 1451.72 L1124.78 1437.61 Z" fill="#000000" fill-rule="evenodd" fill-opacity="1" /><path clip-path="url(#clip400)" d="M 0 0 M1145.89 1460.92 L1149.86 1460.92 L1149.86 1465.69 L1145.89 1465.69 L1145.89 1460.92 Z" fill="#000000" fill-rule="evenodd" fill-opacity="1" /><path clip-path="url(#clip400)" d="M 0 0 M1162.1 1452.36 Q1159.39 1452.36 1157.83 1453.81 Q1156.29 1455.26 1156.29 1457.79 Q1156.29 1460.33 1157.83 1461.78 Q1159.39 1463.23 1162.1 1463.23 Q1164.81 1463.23 1166.37 1461.78 Q1167.93 1460.31 1167.93 1457.79 Q1167.93 1455.26 1166.37 1453.81 Q1164.83 1452.36 1162.1 1452.36 M1158.3 1450.74 Q1155.86 1450.14 1154.48 1448.47 Q1153.13 1446.79 1153.13 1444.38 Q1153.13 1441.02 1155.52 1439.06 Q1157.92 1437.11 1162.1 1437.11 Q1166.29 1437.11 1168.68 1439.06 Q1171.07 1441.02 1171.07 1444.38 Q1171.07 1446.79 1169.7 1448.47 Q1168.34 1450.14 1165.92 1450.74 Q1168.66 1451.38 1170.19 1453.24 Q1171.73 1455.1 1171.73 1457.79 Q1171.73 1461.88 1169.23 1464.06 Q1166.75 1466.24 1162.1 1466.24 Q1157.45 1466.24 1154.95 1464.06 Q1152.47 1461.88 1152.47 1457.79 Q1152.47 1455.1 1154.01 1453.24 Q1155.55 1451.38 1158.3 1450.74 M1156.91 1444.74 Q1156.91 1446.92 1158.26 1448.15 Q1159.64 1449.37 1162.1 1449.37 Q1164.54 1449.37 1165.92 1448.15 Q1167.31 1446.92 1167.31 1444.74 Q1167.31 1442.56 1165.92 1441.34 Q1164.54 1440.11 1162.1 1440.11 Q1159.64 1440.11 1158.26 1441.34 Q1156.91 1442.56 1156.91 1444.74 Z" fill="#000000" fill-rule="evenodd" fill-opacity="1" /><path clip-path="url(#clip400)" d="M 0 0 M1444.35 1489.17 L1451.99 1489.17 L1451.99 1462.8 L1443.68 1464.47 L1443.68 1460.21 L1451.94 1458.54 L1456.62 1458.54 L1456.62 1489.17 L1464.25 1489.17 L1464.25 1493.1 L1444.35 1493.1 L1444.35 1489.17 Z" fill="#000000" fill-rule="evenodd" fill-opacity="1" /><path clip-path="url(#clip400)" d="M 0 0 M1479.32 1461.62 Q1475.71 1461.62 1473.88 1465.19 Q1472.08 1468.73 1472.08 1475.86 Q1472.08 1482.97 1473.88 1486.53 Q1475.71 1490.07 1479.32 1490.07 Q1482.96 1490.07 1484.76 1486.53 Q1486.59 1482.97 1486.59 1475.86 Q1486.59 1468.73 1484.76 1465.19 Q1482.96 1461.62 1479.32 1461.62 M1479.32 1457.92 Q1485.13 1457.92 1488.19 1462.53 Q1491.27 1467.11 1491.27 1475.86 Q1491.27 1484.59 1488.19 1489.19 Q1485.13 1493.78 1479.32 1493.78 Q1473.51 1493.78 1470.43 1489.19 Q1467.38 1484.59 1467.38 1475.86 Q1467.38 1467.11 1470.43 1462.53 Q1473.51 1457.92 1479.32 1457.92 Z" fill="#000000" fill-rule="evenodd" fill-opacity="1" /><path clip-path="url(#clip400)" d="M 0 0 M1491.27 1452.02 L1515.38 1452.02 L1515.38 1455.22 L1491.27 1455.22 L1491.27 1452.02 Z" fill="#000000" fill-rule="evenodd" fill-opacity="1" /><path clip-path="url(#clip400)" d="M 0 0 M1519.54 1437.61 L1534.45 1437.61 L1534.45 1440.81 L1523.02 1440.81 L1523.02 1447.69 Q1523.84 1447.41 1524.67 1447.28 Q1525.5 1447.13 1526.33 1447.13 Q1531.03 1447.13 1533.77 1449.71 Q1536.52 1452.28 1536.52 1456.68 Q1536.52 1461.22 1533.7 1463.74 Q1530.88 1466.24 1525.74 1466.24 Q1523.97 1466.24 1522.13 1465.94 Q1520.31 1465.64 1518.35 1465.04 L1518.35 1461.22 Q1520.04 1462.14 1521.85 1462.59 Q1523.65 1463.04 1525.67 1463.04 Q1528.92 1463.04 1530.82 1461.33 Q1532.72 1459.62 1532.72 1456.68 Q1532.72 1453.75 1530.82 1452.04 Q1528.92 1450.33 1525.67 1450.33 Q1524.14 1450.33 1522.62 1450.67 Q1521.12 1451 1519.54 1451.72 L1519.54 1437.61 Z" fill="#000000" fill-rule="evenodd" fill-opacity="1" /><path clip-path="url(#clip400)" d="M 0 0 M1540.64 1460.92 L1544.61 1460.92 L1544.61 1465.69 L1540.64 1465.69 L1540.64 1460.92 Z" fill="#000000" fill-rule="evenodd" fill-opacity="1" /><path clip-path="url(#clip400)" d="M 0 0 M1547.77 1437.61 L1565.82 1437.61 L1565.82 1439.23 L1555.63 1465.69 L1551.66 1465.69 L1561.25 1440.81 L1547.77 1440.81 L1547.77 1437.61 Z" fill="#000000" fill-rule="evenodd" fill-opacity="1" /><path clip-path="url(#clip400)" d="M 0 0 M1838.34 1489.17 L1845.98 1489.17 L1845.98 1462.8 L1837.66 1464.47 L1837.66 1460.21 L1845.93 1458.54 L1850.6 1458.54 L1850.6 1489.17 L1858.24 1489.17 L1858.24 1493.1 L1838.34 1493.1 L1838.34 1489.17 Z" fill="#000000" fill-rule="evenodd" fill-opacity="1" /><path clip-path="url(#clip400)" d="M 0 0 M1873.31 1461.62 Q1869.7 1461.62 1867.87 1465.19 Q1866.07 1468.73 1866.07 1475.86 Q1866.07 1482.97 1867.87 1486.53 Q1869.7 1490.07 1873.31 1490.07 Q1876.95 1490.07 1878.75 1486.53 Q1880.58 1482.97 1880.58 1475.86 Q1880.58 1468.73 1878.75 1465.19 Q1876.95 1461.62 1873.31 1461.62 M1873.31 1457.92 Q1879.12 1457.92 1882.18 1462.53 Q1885.26 1467.11 1885.26 1475.86 Q1885.26 1484.59 1882.18 1489.19 Q1879.12 1493.78 1873.31 1493.78 Q1867.5 1493.78 1864.42 1489.19 Q1861.37 1484.59 1861.37 1475.86 Q1861.37 1467.11 1864.42 1462.53 Q1867.5 1457.92 1873.31 1457.92 Z" fill="#000000" fill-rule="evenodd" fill-opacity="1" /><path clip-path="url(#clip400)" d="M 0 0 M1885.26 1452.02 L1909.37 1452.02 L1909.37 1455.22 L1885.26 1455.22 L1885.26 1452.02 Z" fill="#000000" fill-rule="evenodd" fill-opacity="1" /><path clip-path="url(#clip400)" d="M 0 0 M1913.53 1437.61 L1928.44 1437.61 L1928.44 1440.81 L1917 1440.81 L1917 1447.69 Q1917.83 1447.41 1918.66 1447.28 Q1919.49 1447.13 1920.31 1447.13 Q1925.02 1447.13 1927.76 1449.71 Q1930.51 1452.28 1930.51 1456.68 Q1930.51 1461.22 1927.69 1463.74 Q1924.87 1466.24 1919.73 1466.24 Q1917.96 1466.24 1916.12 1465.94 Q1914.3 1465.64 1912.34 1465.04 L1912.34 1461.22 Q1914.03 1462.14 1915.84 1462.59 Q1917.64 1463.04 1919.66 1463.04 Q1922.91 1463.04 1924.81 1461.33 Q1926.71 1459.62 1926.71 1456.68 Q1926.71 1453.75 1924.81 1452.04 Q1922.91 1450.33 1919.66 1450.33 Q1918.13 1450.33 1916.61 1450.67 Q1915.11 1451 1913.53 1451.72 L1913.53 1437.61 Z" fill="#000000" fill-rule="evenodd" fill-opacity="1" /><path clip-path="url(#clip400)" d="M 0 0 M1934.63 1460.92 L1938.6 1460.92 L1938.6 1465.69 L1934.63 1465.69 L1934.63 1460.92 Z" fill="#000000" fill-rule="evenodd" fill-opacity="1" /><path clip-path="url(#clip400)" d="M 0 0 M1951.31 1450.14 Q1948.75 1450.14 1947.25 1451.89 Q1945.76 1453.64 1945.76 1456.68 Q1945.76 1459.71 1947.25 1461.48 Q1948.75 1463.23 1951.31 1463.23 Q1953.87 1463.23 1955.35 1461.48 Q1956.86 1459.71 1956.86 1456.68 Q1956.86 1453.64 1955.35 1451.89 Q1953.87 1450.14 1951.31 1450.14 M1958.85 1438.23 L1958.85 1441.69 Q1957.42 1441.02 1955.96 1440.66 Q1954.51 1440.3 1953.08 1440.3 Q1949.32 1440.3 1947.32 1442.84 Q1945.35 1445.38 1945.07 1450.52 Q1946.18 1448.88 1947.85 1448.01 Q1949.52 1447.13 1951.54 1447.13 Q1955.77 1447.13 1958.21 1449.71 Q1960.68 1452.26 1960.68 1456.68 Q1960.68 1461.01 1958.12 1463.62 Q1955.56 1466.24 1951.31 1466.24 Q1946.44 1466.24 1943.86 1462.51 Q1941.29 1458.77 1941.29 1451.68 Q1941.29 1445.02 1944.45 1441.07 Q1947.61 1437.11 1952.93 1437.11 Q1954.36 1437.11 1955.81 1437.39 Q1957.27 1437.67 1958.85 1438.23 Z" fill="#000000" fill-rule="evenodd" fill-opacity="1" /><path clip-path="url(#clip400)" d="M 0 0 M2233.23 1489.17 L2240.87 1489.17 L2240.87 1462.8 L2232.56 1464.47 L2232.56 1460.21 L2240.82 1458.54 L2245.5 1458.54 L2245.5 1489.17 L2253.14 1489.17 L2253.14 1493.1 L2233.23 1493.1 L2233.23 1489.17 Z" fill="#000000" fill-rule="evenodd" fill-opacity="1" /><path clip-path="url(#clip400)" d="M 0 0 M2268.21 1461.62 Q2264.59 1461.62 2262.77 1465.19 Q2260.96 1468.73 2260.96 1475.86 Q2260.96 1482.97 2262.77 1486.53 Q2264.59 1490.07 2268.21 1490.07 Q2271.84 1490.07 2273.64 1486.53 Q2275.47 1482.97 2275.47 1475.86 Q2275.47 1468.73 2273.64 1465.19 Q2271.84 1461.62 2268.21 1461.62 M2268.21 1457.92 Q2274.02 1457.92 2277.07 1462.53 Q2280.15 1467.11 2280.15 1475.86 Q2280.15 1484.59 2277.07 1489.19 Q2274.02 1493.78 2268.21 1493.78 Q2262.39 1493.78 2259.32 1489.19 Q2256.26 1484.59 2256.26 1475.86 Q2256.26 1467.11 2259.32 1462.53 Q2262.39 1457.92 2268.21 1457.92 Z" fill="#000000" fill-rule="evenodd" fill-opacity="1" /><path clip-path="url(#clip400)" d="M 0 0 M2280.15 1452.02 L2304.26 1452.02 L2304.26 1455.22 L2280.15 1455.22 L2280.15 1452.02 Z" fill="#000000" fill-rule="evenodd" fill-opacity="1" /><path clip-path="url(#clip400)" d="M 0 0 M2308.42 1437.61 L2323.33 1437.61 L2323.33 1440.81 L2311.9 1440.81 L2311.9 1447.69 Q2312.72 1447.41 2313.55 1447.28 Q2314.38 1447.13 2315.21 1447.13 Q2319.91 1447.13 2322.65 1449.71 Q2325.4 1452.28 2325.4 1456.68 Q2325.4 1461.22 2322.58 1463.74 Q2319.76 1466.24 2314.62 1466.24 Q2312.86 1466.24 2311.01 1465.94 Q2309.19 1465.64 2307.23 1465.04 L2307.23 1461.22 Q2308.93 1462.14 2310.73 1462.59 Q2312.54 1463.04 2314.55 1463.04 Q2317.8 1463.04 2319.7 1461.33 Q2321.6 1459.62 2321.6 1456.68 Q2321.6 1453.75 2319.7 1452.04 Q2317.8 1450.33 2314.55 1450.33 Q2313.03 1450.33 2311.5 1450.67 Q2310 1451 2308.42 1451.72 L2308.42 1437.61 Z" fill="#000000" fill-rule="evenodd" fill-opacity="1" /><path clip-path="url(#clip400)" d="M 0 0 M2329.52 1460.92 L2333.49 1460.92 L2333.49 1465.69 L2329.52 1465.69 L2329.52 1460.92 Z" fill="#000000" fill-rule="evenodd" fill-opacity="1" /><path clip-path="url(#clip400)" d="M 0 0 M2337.64 1437.61 L2352.56 1437.61 L2352.56 1440.81 L2341.12 1440.81 L2341.12 1447.69 Q2341.95 1447.41 2342.78 1447.28 Q2343.61 1447.13 2344.43 1447.13 Q2349.14 1447.13 2351.88 1449.71 Q2354.63 1452.28 2354.63 1456.68 Q2354.63 1461.22 2351.81 1463.74 Q2348.99 1466.24 2343.85 1466.24 Q2342.08 1466.24 2340.24 1465.94 Q2338.42 1465.64 2336.46 1465.04 L2336.46 1461.22 Q2338.15 1462.14 2339.96 1462.59 Q2341.76 1463.04 2343.78 1463.04 Q2347.03 1463.04 2348.93 1461.33 Q2350.83 1459.62 2350.83 1456.68 Q2350.83 1453.75 2348.93 1452.04 Q2347.03 1450.33 2343.78 1450.33 Q2342.25 1450.33 2340.73 1450.67 Q2339.22 1451 2337.64 1451.72 L2337.64 1437.61 Z" fill="#000000" fill-rule="evenodd" fill-opacity="1" /><path clip-path="url(#clip400)" d="M 0 0 M1200.31 1526.54 L1206.51 1526.54 L1217.65 1556.46 L1228.79 1526.54 L1235 1526.54 L1221.63 1562.19 L1213.68 1562.19 L1200.31 1526.54 Z" fill="#000000" fill-rule="evenodd" fill-opacity="1" /><path clip-path="url(#clip400)" d="M 0 0 M1268.23 1573.01 L1268.23 1577.56 L1234.36 1577.56 L1234.36 1573.01 L1268.23 1573.01 Z" fill="#000000" fill-rule="evenodd" fill-opacity="1" /><path clip-path="url(#clip400)" d="M 0 0 M1288.19 1530.64 Q1283.48 1530.64 1280.74 1534.34 Q1278 1538 1278 1544.39 Q1278 1550.79 1280.71 1554.48 Q1283.44 1558.14 1288.19 1558.14 Q1292.86 1558.14 1295.6 1554.45 Q1298.34 1550.76 1298.34 1544.39 Q1298.34 1538.06 1295.6 1534.37 Q1292.86 1530.64 1288.19 1530.64 M1288.19 1525.68 Q1295.82 1525.68 1300.19 1530.64 Q1304.55 1535.61 1304.55 1544.39 Q1304.55 1553.15 1300.19 1558.14 Q1295.82 1563.11 1288.19 1563.11 Q1280.52 1563.11 1276.15 1558.14 Q1271.83 1553.15 1271.83 1544.39 Q1271.83 1535.61 1276.15 1530.64 Q1280.52 1525.68 1288.19 1525.68 Z" fill="#000000" fill-rule="evenodd" fill-opacity="1" /><path clip-path="url(#clip400)" d="M 0 0 M1316.35 1556.84 L1316.35 1575.74 L1310.47 1575.74 L1310.47 1526.54 L1316.35 1526.54 L1316.35 1531.95 Q1318.2 1528.77 1321 1527.24 Q1323.83 1525.68 1327.75 1525.68 Q1334.24 1525.68 1338.28 1530.83 Q1342.36 1535.99 1342.36 1544.39 Q1342.36 1552.8 1338.28 1557.95 Q1334.24 1563.11 1327.75 1563.11 Q1323.83 1563.11 1321 1561.58 Q1318.2 1560.02 1316.35 1556.84 M1336.28 1544.39 Q1336.28 1537.93 1333.61 1534.27 Q1330.96 1530.58 1326.32 1530.58 Q1321.67 1530.58 1319 1534.27 Q1316.35 1537.93 1316.35 1544.39 Q1316.35 1550.85 1319 1554.55 Q1321.67 1558.21 1326.32 1558.21 Q1330.96 1558.21 1333.61 1554.55 Q1336.28 1550.85 1336.28 1544.39 Z" fill="#000000" fill-rule="evenodd" fill-opacity="1" /><path clip-path="url(#clip400)" d="M 0 0 M1378.99 1542.9 L1378.99 1545.76 L1352.07 1545.76 Q1352.45 1551.81 1355.69 1554.99 Q1358.97 1558.14 1364.8 1558.14 Q1368.17 1558.14 1371.32 1557.32 Q1374.51 1556.49 1377.62 1554.83 L1377.62 1560.37 Q1374.47 1561.71 1371.16 1562.41 Q1367.85 1563.11 1364.45 1563.11 Q1355.92 1563.11 1350.92 1558.14 Q1345.95 1553.18 1345.95 1544.71 Q1345.95 1535.96 1350.67 1530.83 Q1355.41 1525.68 1363.43 1525.68 Q1370.62 1525.68 1374.79 1530.33 Q1378.99 1534.94 1378.99 1542.9 M1373.14 1541.18 Q1373.07 1536.37 1370.43 1533.51 Q1367.82 1530.64 1363.49 1530.64 Q1358.59 1530.64 1355.63 1533.41 Q1352.7 1536.18 1352.26 1541.21 L1373.14 1541.18 Z" fill="#000000" fill-rule="evenodd" fill-opacity="1" /><path clip-path="url(#clip400)" d="M 0 0 M1414.77 1540.67 L1414.77 1562.19 L1408.91 1562.19 L1408.91 1540.86 Q1408.91 1535.8 1406.94 1533.29 Q1404.96 1530.77 1401.02 1530.77 Q1396.28 1530.77 1393.54 1533.79 Q1390.8 1536.82 1390.8 1542.04 L1390.8 1562.19 L1384.91 1562.19 L1384.91 1526.54 L1390.8 1526.54 L1390.8 1532.08 Q1392.9 1528.86 1395.73 1527.27 Q1398.6 1525.68 1402.32 1525.68 Q1408.47 1525.68 1411.62 1529.5 Q1414.77 1533.29 1414.77 1540.67 Z" fill="#000000" fill-rule="evenodd" fill-opacity="1" /><polyline clip-path="url(#clip402)" style="stroke:#000000; stroke-width:2; stroke-opacity:0.1; fill:none" points="
  262.32,1166 2352.76,1166 
  "/>
<polyline clip-path="url(#clip402)" style="stroke:#000000; stroke-width:2; stroke-opacity:0.1; fill:none" points="
  262.32,897.825 2352.76,897.825 
  "/>
<polyline clip-path="url(#clip402)" style="stroke:#000000; stroke-width:2; stroke-opacity:0.1; fill:none" points="
  262.32,629.655 2352.76,629.655 
  "/>
<polyline clip-path="url(#clip402)" style="stroke:#000000; stroke-width:2; stroke-opacity:0.1; fill:none" points="
  262.32,361.484 2352.76,361.484 
  "/>
<polyline clip-path="url(#clip402)" style="stroke:#000000; stroke-width:2; stroke-opacity:0.1; fill:none" points="
  262.32,93.314 2352.76,93.314 
  "/>
<polyline clip-path="url(#clip400)" style="stroke:#000000; stroke-width:4; stroke-opacity:1; fill:none" points="
  262.32,1410.9 262.32,47.2441 
  "/>
<polyline clip-path="url(#clip400)" style="stroke:#000000; stroke-width:4; stroke-opacity:1; fill:none" points="
  262.32,1166 287.405,1166 
  "/>
<polyline clip-path="url(#clip400)" style="stroke:#000000; stroke-width:4; stroke-opacity:1; fill:none" points="
  262.32,897.825 287.405,897.825 
  "/>
<polyline clip-path="url(#clip400)" style="stroke:#000000; stroke-width:4; stroke-opacity:1; fill:none" points="
  262.32,629.655 287.405,629.655 
  "/>
<polyline clip-path="url(#clip400)" style="stroke:#000000; stroke-width:4; stroke-opacity:1; fill:none" points="
  262.32,361.484 287.405,361.484 
  "/>
<polyline clip-path="url(#clip400)" style="stroke:#000000; stroke-width:4; stroke-opacity:1; fill:none" points="
  262.32,93.314 287.405,93.314 
  "/>
<path clip-path="url(#clip400)" d="M 0 0 M117.061 1179.34 L124.7 1179.34 L124.7 1152.97 L116.39 1154.64 L116.39 1150.38 L124.654 1148.72 L129.33 1148.72 L129.33 1179.34 L136.968 1179.34 L136.968 1183.28 L117.061 1183.28 L117.061 1179.34 Z" fill="#000000" fill-rule="evenodd" fill-opacity="1" /><path clip-path="url(#clip400)" d="M 0 0 M156.204 1164.64 Q159.561 1165.36 161.436 1167.63 Q163.334 1169.9 163.334 1173.23 Q163.334 1178.35 159.815 1181.15 Q156.297 1183.95 149.816 1183.95 Q147.64 1183.95 145.325 1183.51 Q143.033 1183.09 140.579 1182.23 L140.579 1177.72 Q142.524 1178.85 144.839 1179.43 Q147.153 1180.01 149.677 1180.01 Q154.075 1180.01 156.366 1178.28 Q158.681 1176.54 158.681 1173.23 Q158.681 1170.17 156.528 1168.46 Q154.399 1166.72 150.579 1166.72 L146.552 1166.72 L146.552 1162.88 L150.765 1162.88 Q154.214 1162.88 156.042 1161.52 Q157.871 1160.13 157.871 1157.53 Q157.871 1154.87 155.973 1153.46 Q154.098 1152.03 150.579 1152.03 Q148.658 1152.03 146.459 1152.44 Q144.26 1152.86 141.621 1153.74 L141.621 1149.57 Q144.283 1148.83 146.598 1148.46 Q148.936 1148.09 150.996 1148.09 Q156.32 1148.09 159.422 1150.52 Q162.524 1152.93 162.524 1157.05 Q162.524 1159.92 160.88 1161.91 Q159.237 1163.88 156.204 1164.64 Z" fill="#000000" fill-rule="evenodd" fill-opacity="1" /><path clip-path="url(#clip400)" d="M 0 0 M168.403 1177.4 L173.288 1177.4 L173.288 1183.28 L168.403 1183.28 L168.403 1177.4 Z" fill="#000000" fill-rule="evenodd" fill-opacity="1" /><path clip-path="url(#clip400)" d="M 0 0 M178.403 1148.72 L196.76 1148.72 L196.76 1152.65 L182.686 1152.65 L182.686 1161.12 Q183.704 1160.78 184.723 1160.61 Q185.741 1160.43 186.76 1160.43 Q192.547 1160.43 195.926 1163.6 Q199.306 1166.77 199.306 1172.19 Q199.306 1177.77 195.834 1180.87 Q192.362 1183.95 186.042 1183.95 Q183.866 1183.95 181.598 1183.58 Q179.352 1183.21 176.945 1182.47 L176.945 1177.77 Q179.028 1178.9 181.251 1179.46 Q183.473 1180.01 185.95 1180.01 Q189.954 1180.01 192.292 1177.91 Q194.63 1175.8 194.63 1172.19 Q194.63 1168.58 192.292 1166.47 Q189.954 1164.36 185.95 1164.36 Q184.075 1164.36 182.2 1164.78 Q180.348 1165.2 178.403 1166.08 L178.403 1148.72 Z" fill="#000000" fill-rule="evenodd" fill-opacity="1" /><path clip-path="url(#clip400)" d="M 0 0 M214.375 1151.79 Q210.764 1151.79 208.936 1155.36 Q207.13 1158.9 207.13 1166.03 Q207.13 1173.14 208.936 1176.7 Q210.764 1180.24 214.375 1180.24 Q218.01 1180.24 219.815 1176.7 Q221.644 1173.14 221.644 1166.03 Q221.644 1158.9 219.815 1155.36 Q218.01 1151.79 214.375 1151.79 M214.375 1148.09 Q220.186 1148.09 223.241 1152.7 Q226.32 1157.28 226.32 1166.03 Q226.32 1174.76 223.241 1179.36 Q220.186 1183.95 214.375 1183.95 Q208.565 1183.95 205.487 1179.36 Q202.431 1174.76 202.431 1166.03 Q202.431 1157.28 205.487 1152.7 Q208.565 1148.09 214.375 1148.09 Z" fill="#000000" fill-rule="evenodd" fill-opacity="1" /><path clip-path="url(#clip400)" d="M 0 0 M117.964 911.17 L125.603 911.17 L125.603 884.804 L117.293 886.471 L117.293 882.212 L125.556 880.545 L130.232 880.545 L130.232 911.17 L137.871 911.17 L137.871 915.105 L117.964 915.105 L117.964 911.17 Z" fill="#000000" fill-rule="evenodd" fill-opacity="1" /><path clip-path="url(#clip400)" d="M 0 0 M157.107 896.471 Q160.464 897.189 162.339 899.457 Q164.237 901.726 164.237 905.059 Q164.237 910.175 160.718 912.976 Q157.2 915.776 150.718 915.776 Q148.542 915.776 146.228 915.337 Q143.936 914.92 141.482 914.063 L141.482 909.55 Q143.427 910.684 145.741 911.263 Q148.056 911.841 150.579 911.841 Q154.978 911.841 157.269 910.105 Q159.584 908.369 159.584 905.059 Q159.584 902.003 157.431 900.29 Q155.302 898.554 151.482 898.554 L147.454 898.554 L147.454 894.712 L151.667 894.712 Q155.116 894.712 156.945 893.346 Q158.774 891.957 158.774 889.365 Q158.774 886.703 156.876 885.291 Q155.001 883.855 151.482 883.855 Q149.561 883.855 147.362 884.272 Q145.163 884.689 142.524 885.568 L142.524 881.402 Q145.186 880.661 147.501 880.291 Q149.839 879.92 151.899 879.92 Q157.223 879.92 160.325 882.351 Q163.427 884.758 163.427 888.878 Q163.427 891.749 161.783 893.74 Q160.14 895.707 157.107 896.471 Z" fill="#000000" fill-rule="evenodd" fill-opacity="1" /><path clip-path="url(#clip400)" d="M 0 0 M169.306 909.226 L174.19 909.226 L174.19 915.105 L169.306 915.105 L169.306 909.226 Z" fill="#000000" fill-rule="evenodd" fill-opacity="1" /><path clip-path="url(#clip400)" d="M 0 0 M178.079 880.545 L200.301 880.545 L200.301 882.536 L187.755 915.105 L182.871 915.105 L194.676 884.48 L178.079 884.48 L178.079 880.545 Z" fill="#000000" fill-rule="evenodd" fill-opacity="1" /><path clip-path="url(#clip400)" d="M 0 0 M205.417 880.545 L223.773 880.545 L223.773 884.48 L209.699 884.48 L209.699 892.952 Q210.718 892.605 211.736 892.443 Q212.755 892.258 213.774 892.258 Q219.561 892.258 222.94 895.429 Q226.32 898.601 226.32 904.017 Q226.32 909.596 222.848 912.698 Q219.375 915.776 213.056 915.776 Q210.88 915.776 208.612 915.406 Q206.366 915.036 203.959 914.295 L203.959 909.596 Q206.042 910.73 208.264 911.286 Q210.486 911.841 212.963 911.841 Q216.968 911.841 219.306 909.735 Q221.644 907.628 221.644 904.017 Q221.644 900.406 219.306 898.3 Q216.968 896.193 212.963 896.193 Q211.088 896.193 209.213 896.61 Q207.362 897.027 205.417 897.906 L205.417 880.545 Z" fill="#000000" fill-rule="evenodd" fill-opacity="1" /><path clip-path="url(#clip400)" d="M 0 0 M114.931 643 L122.57 643 L122.57 616.634 L114.26 618.301 L114.26 614.041 L122.524 612.375 L127.2 612.375 L127.2 643 L134.839 643 L134.839 646.935 L114.931 646.935 L114.931 643 Z" fill="#000000" fill-rule="evenodd" fill-opacity="1" /><path clip-path="url(#clip400)" d="M 0 0 M152.755 616.449 L140.95 634.898 L152.755 634.898 L152.755 616.449 M151.528 612.375 L157.408 612.375 L157.408 634.898 L162.339 634.898 L162.339 638.787 L157.408 638.787 L157.408 646.935 L152.755 646.935 L152.755 638.787 L137.154 638.787 L137.154 634.273 L151.528 612.375 Z" fill="#000000" fill-rule="evenodd" fill-opacity="1" /><path clip-path="url(#clip400)" d="M 0 0 M167.408 641.055 L172.292 641.055 L172.292 646.935 L167.408 646.935 L167.408 641.055 Z" fill="#000000" fill-rule="evenodd" fill-opacity="1" /><path clip-path="url(#clip400)" d="M 0 0 M187.362 615.453 Q183.751 615.453 181.922 619.018 Q180.116 622.56 180.116 629.69 Q180.116 636.796 181.922 640.361 Q183.751 643.902 187.362 643.902 Q190.996 643.902 192.801 640.361 Q194.63 636.796 194.63 629.69 Q194.63 622.56 192.801 619.018 Q190.996 615.453 187.362 615.453 M187.362 611.75 Q193.172 611.75 196.227 616.356 Q199.306 620.94 199.306 629.69 Q199.306 638.416 196.227 643.023 Q193.172 647.606 187.362 647.606 Q181.551 647.606 178.473 643.023 Q175.417 638.416 175.417 629.69 Q175.417 620.94 178.473 616.356 Q181.551 611.75 187.362 611.75 Z" fill="#000000" fill-rule="evenodd" fill-opacity="1" /><path clip-path="url(#clip400)" d="M 0 0 M214.375 615.453 Q210.764 615.453 208.936 619.018 Q207.13 622.56 207.13 629.69 Q207.13 636.796 208.936 640.361 Q210.764 643.902 214.375 643.902 Q218.01 643.902 219.815 640.361 Q221.644 636.796 221.644 629.69 Q221.644 622.56 219.815 619.018 Q218.01 615.453 214.375 615.453 M214.375 611.75 Q220.186 611.75 223.241 616.356 Q226.32 620.94 226.32 629.69 Q226.32 638.416 223.241 643.023 Q220.186 647.606 214.375 647.606 Q208.565 647.606 205.487 643.023 Q202.431 638.416 202.431 629.69 Q202.431 620.94 205.487 616.356 Q208.565 611.75 214.375 611.75 Z" fill="#000000" fill-rule="evenodd" fill-opacity="1" /><path clip-path="url(#clip400)" d="M 0 0 M117.524 374.829 L125.163 374.829 L125.163 348.464 L116.853 350.13 L116.853 345.871 L125.117 344.204 L129.792 344.204 L129.792 374.829 L137.431 374.829 L137.431 378.764 L117.524 378.764 L117.524 374.829 Z" fill="#000000" fill-rule="evenodd" fill-opacity="1" /><path clip-path="url(#clip400)" d="M 0 0 M155.348 348.278 L143.542 366.727 L155.348 366.727 L155.348 348.278 M154.121 344.204 L160.001 344.204 L160.001 366.727 L164.931 366.727 L164.931 370.616 L160.001 370.616 L160.001 378.764 L155.348 378.764 L155.348 370.616 L139.746 370.616 L139.746 366.102 L154.121 344.204 Z" fill="#000000" fill-rule="evenodd" fill-opacity="1" /><path clip-path="url(#clip400)" d="M 0 0 M170.001 372.885 L174.885 372.885 L174.885 378.764 L170.001 378.764 L170.001 372.885 Z" fill="#000000" fill-rule="evenodd" fill-opacity="1" /><path clip-path="url(#clip400)" d="M 0 0 M183.982 374.829 L200.301 374.829 L200.301 378.764 L178.357 378.764 L178.357 374.829 Q181.019 372.075 185.602 367.445 Q190.209 362.792 191.389 361.45 Q193.635 358.927 194.514 357.19 Q195.417 355.431 195.417 353.741 Q195.417 350.987 193.473 349.251 Q191.551 347.515 188.45 347.515 Q186.251 347.515 183.797 348.278 Q181.366 349.042 178.589 350.593 L178.589 345.871 Q181.413 344.737 183.866 344.158 Q186.32 343.579 188.357 343.579 Q193.727 343.579 196.922 346.265 Q200.116 348.95 200.116 353.44 Q200.116 355.57 199.306 357.491 Q198.519 359.39 196.412 361.982 Q195.834 362.653 192.732 365.871 Q189.63 369.065 183.982 374.829 Z" fill="#000000" fill-rule="evenodd" fill-opacity="1" /><path clip-path="url(#clip400)" d="M 0 0 M205.417 344.204 L223.773 344.204 L223.773 348.14 L209.699 348.14 L209.699 356.612 Q210.718 356.265 211.736 356.102 Q212.755 355.917 213.774 355.917 Q219.561 355.917 222.94 359.089 Q226.32 362.26 226.32 367.677 Q226.32 373.255 222.848 376.357 Q219.375 379.436 213.056 379.436 Q210.88 379.436 208.612 379.065 Q206.366 378.695 203.959 377.954 L203.959 373.255 Q206.042 374.389 208.264 374.945 Q210.486 375.501 212.963 375.501 Q216.968 375.501 219.306 373.394 Q221.644 371.288 221.644 367.677 Q221.644 364.065 219.306 361.959 Q216.968 359.852 212.963 359.852 Q211.088 359.852 209.213 360.269 Q207.362 360.686 205.417 361.565 L205.417 344.204 Z" fill="#000000" fill-rule="evenodd" fill-opacity="1" /><path clip-path="url(#clip400)" d="M 0 0 M115.927 106.659 L123.566 106.659 L123.566 80.2933 L115.256 81.9599 L115.256 77.7007 L123.519 76.034 L128.195 76.034 L128.195 106.659 L135.834 106.659 L135.834 110.594 L115.927 110.594 L115.927 106.659 Z" fill="#000000" fill-rule="evenodd" fill-opacity="1" /><path clip-path="url(#clip400)" d="M 0 0 M153.751 80.1081 L141.945 98.5571 L153.751 98.5571 L153.751 80.1081 M152.524 76.034 L158.403 76.034 L158.403 98.5571 L163.334 98.5571 L163.334 102.446 L158.403 102.446 L158.403 110.594 L153.751 110.594 L153.751 102.446 L138.149 102.446 L138.149 97.9321 L152.524 76.034 Z" fill="#000000" fill-rule="evenodd" fill-opacity="1" /><path clip-path="url(#clip400)" d="M 0 0 M168.403 104.714 L173.288 104.714 L173.288 110.594 L168.403 110.594 L168.403 104.714 Z" fill="#000000" fill-rule="evenodd" fill-opacity="1" /><path clip-path="url(#clip400)" d="M 0 0 M178.403 76.034 L196.76 76.034 L196.76 79.9692 L182.686 79.9692 L182.686 88.4414 Q183.704 88.0942 184.723 87.9321 Q185.741 87.7469 186.76 87.7469 Q192.547 87.7469 195.926 90.9182 Q199.306 94.0895 199.306 99.5061 Q199.306 105.085 195.834 108.187 Q192.362 111.265 186.042 111.265 Q183.866 111.265 181.598 110.895 Q179.352 110.525 176.945 109.784 L176.945 105.085 Q179.028 106.219 181.251 106.775 Q183.473 107.33 185.95 107.33 Q189.954 107.33 192.292 105.224 Q194.63 103.117 194.63 99.5061 Q194.63 95.895 192.292 93.7886 Q189.954 91.6821 185.95 91.6821 Q184.075 91.6821 182.2 92.0988 Q180.348 92.5154 178.403 93.3951 L178.403 76.034 Z" fill="#000000" fill-rule="evenodd" fill-opacity="1" /><path clip-path="url(#clip400)" d="M 0 0 M214.375 79.1127 Q210.764 79.1127 208.936 82.6775 Q207.13 86.2192 207.13 93.3488 Q207.13 100.455 208.936 104.02 Q210.764 107.562 214.375 107.562 Q218.01 107.562 219.815 104.02 Q221.644 100.455 221.644 93.3488 Q221.644 86.2192 219.815 82.6775 Q218.01 79.1127 214.375 79.1127 M214.375 75.409 Q220.186 75.409 223.241 80.0155 Q226.32 84.5988 226.32 93.3488 Q226.32 102.076 223.241 106.682 Q220.186 111.265 214.375 111.265 Q208.565 111.265 205.487 106.682 Q202.431 102.076 202.431 93.3488 Q202.431 84.5988 205.487 80.0155 Q208.565 75.409 214.375 75.409 Z" fill="#000000" fill-rule="evenodd" fill-opacity="1" /><path clip-path="url(#clip400)" d="M 0 0 M59.1993 815.533 Q55.2526 813.336 53.3747 810.281 Q51.4968 807.225 51.4968 803.088 Q51.4968 797.518 55.4117 794.494 Q59.2948 791.47 66.4881 791.47 L88.0042 791.47 L88.0042 797.358 L66.679 797.358 Q61.5546 797.358 59.072 799.173 Q56.5894 800.987 56.5894 804.711 Q56.5894 809.262 59.6131 811.904 Q62.6368 814.546 67.8567 814.546 L88.0042 814.546 L88.0042 820.434 L66.679 820.434 Q61.5228 820.434 59.072 822.248 Q56.5894 824.063 56.5894 827.85 Q56.5894 832.338 59.6449 834.98 Q62.6686 837.622 67.8567 837.622 L88.0042 837.622 L88.0042 843.51 L52.3562 843.51 L52.3562 837.622 L57.8944 837.622 Q54.616 835.616 53.0564 832.815 Q51.4968 830.015 51.4968 826.163 Q51.4968 822.28 53.4702 819.575 Q55.4436 816.838 59.1993 815.533 Z" fill="#000000" fill-rule="evenodd" fill-opacity="1" /><path clip-path="url(#clip400)" d="M 0 0 M52.3562 785.327 L52.3562 779.471 L88.0042 779.471 L88.0042 785.327 L52.3562 785.327 M38.479 785.327 L38.479 779.471 L45.895 779.471 L45.895 785.327 L38.479 785.327 Z" fill="#000000" fill-rule="evenodd" fill-opacity="1" /><path clip-path="url(#clip400)" d="M 0 0 M66.4881 743.696 L88.0042 743.696 L88.0042 749.552 L66.679 749.552 Q61.6183 749.552 59.1038 751.525 Q56.5894 753.499 56.5894 757.446 Q56.5894 762.188 59.6131 764.925 Q62.6368 767.662 67.8567 767.662 L88.0042 767.662 L88.0042 773.551 L52.3562 773.551 L52.3562 767.662 L57.8944 767.662 Q54.6797 765.562 53.0883 762.729 Q51.4968 759.864 51.4968 756.141 Q51.4968 749.998 55.3163 746.847 Q59.1038 743.696 66.4881 743.696 Z" fill="#000000" fill-rule="evenodd" fill-opacity="1" /><path clip-path="url(#clip400)" d="M 0 0 M98.8259 710.467 L103.377 710.467 L103.377 744.332 L98.8259 744.332 L98.8259 710.467 Z" fill="#000000" fill-rule="evenodd" fill-opacity="1" /><path clip-path="url(#clip400)" d="M 0 0 M57.7671 680.866 L38.479 680.866 L38.479 675.01 L88.0042 675.01 L88.0042 680.866 L82.657 680.866 Q85.8398 682.712 87.3994 685.545 Q88.9272 688.346 88.9272 692.292 Q88.9272 698.754 83.771 702.828 Q78.6147 706.87 70.212 706.87 Q61.8093 706.87 56.6531 702.828 Q51.4968 698.754 51.4968 692.292 Q51.4968 688.346 53.0564 685.545 Q54.5842 682.712 57.7671 680.866 M70.212 700.823 Q76.6732 700.823 80.3653 698.181 Q84.0256 695.507 84.0256 690.86 Q84.0256 686.213 80.3653 683.54 Q76.6732 680.866 70.212 680.866 Q63.7508 680.866 60.0905 683.54 Q56.3984 686.213 56.3984 690.86 Q56.3984 695.507 60.0905 698.181 Q63.7508 700.823 70.212 700.823 Z" fill="#000000" fill-rule="evenodd" fill-opacity="1" /><path clip-path="url(#clip400)" d="M 0 0 M52.3562 668.867 L52.3562 663.01 L88.0042 663.01 L88.0042 668.867 L52.3562 668.867 M38.479 668.867 L38.479 663.01 L45.895 663.01 L45.895 668.867 L38.479 668.867 Z" fill="#000000" fill-rule="evenodd" fill-opacity="1" /><path clip-path="url(#clip400)" d="M 0 0 M38.479 638.821 L43.3487 638.821 L43.3487 644.422 Q43.3487 647.573 44.6219 648.815 Q45.895 650.024 49.2052 650.024 L52.3562 650.024 L52.3562 640.38 L56.9077 640.38 L56.9077 650.024 L88.0042 650.024 L88.0042 655.912 L56.9077 655.912 L56.9077 661.514 L52.3562 661.514 L52.3562 655.912 L49.8736 655.912 Q43.9216 655.912 41.2162 653.143 Q38.479 650.374 38.479 644.359 L38.479 638.821 Z" fill="#000000" fill-rule="evenodd" fill-opacity="1" /><path clip-path="url(#clip400)" d="M 0 0 M38.479 614.631 L43.3487 614.631 L43.3487 620.233 Q43.3487 623.384 44.6219 624.625 Q45.895 625.835 49.2052 625.835 L52.3562 625.835 L52.3562 616.19 L56.9077 616.19 L56.9077 625.835 L88.0042 625.835 L88.0042 631.723 L56.9077 631.723 L56.9077 637.325 L52.3562 637.325 L52.3562 631.723 L49.8736 631.723 Q43.9216 631.723 41.2162 628.954 Q38.479 626.185 38.479 620.169 L38.479 614.631 Z" fill="#000000" fill-rule="evenodd" fill-opacity="1" /><polyline clip-path="url(#clip402)" style="stroke:#009af9; stroke-width:20; stroke-opacity:1; fill:none" stroke-dasharray="80, 50" points="
  321.483,1372.3 2293.59,85.838 
  "/>
<path clip-path="url(#clip400)" d="
M1999.79 213.659 L2283.07 213.659 L2283.07 92.6992 L1999.79 92.6992  Z
  " fill="#ffffff" fill-rule="evenodd" fill-opacity="1"/>
<polyline clip-path="url(#clip400)" style="stroke:#000000; stroke-width:4; stroke-opacity:1; fill:none" points="
  1999.79,213.659 2283.07,213.659 2283.07,92.6992 1999.79,92.6992 1999.79,213.659 
  "/>
<polyline clip-path="url(#clip400)" style="stroke:#009af9; stroke-width:4; stroke-opacity:1; fill:none" stroke-dasharray="16, 10" points="
  2023.01,153.179 2162.38,153.179 
  "/>
<path clip-path="url(#clip400)" d="M 0 0 M2199.44 172.867 Q2197.64 177.496 2195.93 178.908 Q2194.21 180.32 2191.34 180.32 L2187.94 180.32 L2187.94 176.755 L2190.44 176.755 Q2192.2 176.755 2193.17 175.922 Q2194.14 175.089 2195.32 171.987 L2196.09 170.043 L2185.6 144.533 L2190.12 144.533 L2198.22 164.811 L2206.32 144.533 L2210.83 144.533 L2199.44 172.867 Z" fill="#000000" fill-rule="evenodd" fill-opacity="1" /><path clip-path="url(#clip400)" d="M 0 0 M2216.71 166.524 L2224.35 166.524 L2224.35 140.158 L2216.04 141.825 L2216.04 137.566 L2224.31 135.899 L2228.98 135.899 L2228.98 166.524 L2236.62 166.524 L2236.62 170.459 L2216.71 170.459 L2216.71 166.524 Z" fill="#000000" fill-rule="evenodd" fill-opacity="1" /></svg>
