<?xml version="1.0" encoding="utf-8"?>
<svg xmlns="http://www.w3.org/2000/svg" xmlns:xlink="http://www.w3.org/1999/xlink" width="600" height="400" viewBox="0 0 2400 1600">
<defs>
  <clipPath id="clip680">
    <rect x="0" y="0" width="2400" height="1600"/>
  </clipPath>
</defs>
<path clip-path="url(#clip680)" d="
M0 1600 L2400 1600 L2400 0 L0 0  Z
  " fill="#ffffff" fill-rule="evenodd" fill-opacity="1"/>
<defs>
  <clipPath id="clip681">
    <rect x="480" y="0" width="1681" height="1600"/>
  </clipPath>
</defs>
<path clip-path="url(#clip680)" d="
M197.852 1410.9 L2352.76 1410.9 L2352.76 47.2441 L197.852 47.2441  Z
  " fill="#ffffff" fill-rule="evenodd" fill-opacity="1"/>
<defs>
  <clipPath id="clip682">
    <rect x="197" y="47" width="2156" height="1365"/>
  </clipPath>
</defs>
<polyline clip-path="url(#clip682)" style="stroke:#000000; stroke-width:2; stroke-opacity:0.1; fill:none" points="
  258.84,1410.9 258.84,47.2441 
  "/>
<polyline clip-path="url(#clip682)" style="stroke:#000000; stroke-width:2; stroke-opacity:0.1; fill:none" points="
  767.072,1410.9 767.072,47.2441 
  "/>
<polyline clip-path="url(#clip682)" style="stroke:#000000; stroke-width:2; stroke-opacity:0.1; fill:none" points="
  1275.3,1410.9 1275.3,47.2441 
  "/>
<polyline clip-path="url(#clip682)" style="stroke:#000000; stroke-width:2; stroke-opacity:0.1; fill:none" points="
  1783.54,1410.9 1783.54,47.2441 
  "/>
<polyline clip-path="url(#clip682)" style="stroke:#000000; stroke-width:2; stroke-opacity:0.1; fill:none" points="
  2291.77,1410.9 2291.77,47.2441 
  "/>
<polyline clip-path="url(#clip680)" style="stroke:#000000; stroke-width:4; stroke-opacity:1; fill:none" points="
  197.852,1410.9 2352.76,1410.9 
  "/>
<polyline clip-path="url(#clip680)" style="stroke:#000000; stroke-width:4; stroke-opacity:1; fill:none" points="
  258.84,1410.9 258.84,1394.53 
  "/>
<polyline clip-path="url(#clip680)" style="stroke:#000000; stroke-width:4; stroke-opacity:1; fill:none" points="
  767.072,1410.9 767.072,1394.53 
  "/>
<polyline clip-path="url(#clip680)" style="stroke:#000000; stroke-width:4; stroke-opacity:1; fill:none" points="
  1275.3,1410.9 1275.3,1394.53 
  "/>
<polyline clip-path="url(#clip680)" style="stroke:#000000; stroke-width:4; stroke-opacity:1; fill:none" points="
  1783.54,1410.9 1783.54,1394.53 
  "/>
<polyline clip-path="url(#clip680)" style="stroke:#000000; stroke-width:4; stroke-opacity:1; fill:none" points="
  2291.77,1410.9 2291.77,1394.53 
  "/>
<path clip-path="url(#clip680)" d="M 0 0 M198.072 1489.17 L205.711 1489.17 L205.711 1462.8 L197.4 1464.47 L197.4 1460.21 L205.664 1458.54 L210.34 1458.54 L210.34 1489.17 L217.979 1489.17 L217.979 1493.1 L198.072 1493.1 L198.072 1489.17 Z" fill="#000000" fill-rule="evenodd" fill-opacity="1" /><path clip-path="url(#clip680)" d="M 0 0 M233.048 1461.62 Q229.437 1461.62 227.609 1465.19 Q225.803 1468.73 225.803 1475.86 Q225.803 1482.97 227.609 1486.53 Q229.437 1490.07 233.048 1490.07 Q236.683 1490.07 238.488 1486.53 Q240.317 1482.97 240.317 1475.86 Q240.317 1468.73 238.488 1465.19 Q236.683 1461.62 233.048 1461.62 M233.048 1457.92 Q238.859 1457.92 241.914 1462.53 Q244.993 1467.11 244.993 1475.86 Q244.993 1484.59 241.914 1489.19 Q238.859 1493.78 233.048 1493.78 Q227.238 1493.78 224.16 1489.19 Q221.104 1484.59 221.104 1475.86 Q221.104 1467.11 224.16 1462.53 Q227.238 1457.92 233.048 1457.92 Z" fill="#000000" fill-rule="evenodd" fill-opacity="1" /><path clip-path="url(#clip680)" d="M 0 0 M244.993 1452.02 L269.104 1452.02 L269.104 1455.22 L244.993 1455.22 L244.993 1452.02 Z" fill="#000000" fill-rule="evenodd" fill-opacity="1" /><path clip-path="url(#clip680)" d="M 0 0 M273.261 1437.61 L288.175 1437.61 L288.175 1440.81 L276.74 1440.81 L276.74 1447.69 Q277.568 1447.41 278.395 1447.28 Q279.223 1447.13 280.05 1447.13 Q284.752 1447.13 287.498 1449.71 Q290.244 1452.28 290.244 1456.68 Q290.244 1461.22 287.423 1463.74 Q284.602 1466.24 279.467 1466.24 Q277.699 1466.24 275.856 1465.94 Q274.032 1465.64 272.076 1465.04 L272.076 1461.22 Q273.769 1462.14 275.574 1462.59 Q277.38 1463.04 279.392 1463.04 Q282.646 1463.04 284.545 1461.33 Q286.445 1459.62 286.445 1456.68 Q286.445 1453.75 284.545 1452.04 Q282.646 1450.33 279.392 1450.33 Q277.869 1450.33 276.345 1450.67 Q274.841 1451 273.261 1451.72 L273.261 1437.61 Z" fill="#000000" fill-rule="evenodd" fill-opacity="1" /><path clip-path="url(#clip680)" d="M 0 0 M294.363 1460.92 L298.332 1460.92 L298.332 1465.69 L294.363 1465.69 L294.363 1460.92 Z" fill="#000000" fill-rule="evenodd" fill-opacity="1" /><path clip-path="url(#clip680)" d="M 0 0 M310.575 1440.11 Q307.641 1440.11 306.156 1443.01 Q304.689 1445.89 304.689 1451.68 Q304.689 1457.46 306.156 1460.35 Q307.641 1463.23 310.575 1463.23 Q313.528 1463.23 314.995 1460.35 Q316.481 1457.46 316.481 1451.68 Q316.481 1445.89 314.995 1443.01 Q313.528 1440.11 310.575 1440.11 M310.575 1437.11 Q315.296 1437.11 317.779 1440.85 Q320.28 1444.57 320.28 1451.68 Q320.28 1458.77 317.779 1462.51 Q315.296 1466.24 310.575 1466.24 Q305.855 1466.24 303.353 1462.51 Q300.871 1458.77 300.871 1451.68 Q300.871 1444.57 303.353 1440.85 Q305.855 1437.11 310.575 1437.11 Z" fill="#000000" fill-rule="evenodd" fill-opacity="1" /><path clip-path="url(#clip680)" d="M 0 0 M706.106 1489.17 L713.745 1489.17 L713.745 1462.8 L705.435 1464.47 L705.435 1460.21 L713.699 1458.54 L718.375 1458.54 L718.375 1489.17 L726.013 1489.17 L726.013 1493.1 L706.106 1493.1 L706.106 1489.17 Z" fill="#000000" fill-rule="evenodd" fill-opacity="1" /><path clip-path="url(#clip680)" d="M 0 0 M741.083 1461.62 Q737.472 1461.62 735.643 1465.19 Q733.837 1468.73 733.837 1475.86 Q733.837 1482.97 735.643 1486.53 Q737.472 1490.07 741.083 1490.07 Q744.717 1490.07 746.523 1486.53 Q748.351 1482.97 748.351 1475.86 Q748.351 1468.73 746.523 1465.19 Q744.717 1461.62 741.083 1461.62 M741.083 1457.92 Q746.893 1457.92 749.949 1462.53 Q753.027 1467.11 753.027 1475.86 Q753.027 1484.59 749.949 1489.19 Q746.893 1493.78 741.083 1493.78 Q735.273 1493.78 732.194 1489.19 Q729.138 1484.59 729.138 1475.86 Q729.138 1467.11 732.194 1462.53 Q735.273 1457.92 741.083 1457.92 Z" fill="#000000" fill-rule="evenodd" fill-opacity="1" /><path clip-path="url(#clip680)" d="M 0 0 M753.027 1452.02 L777.139 1452.02 L777.139 1455.22 L753.027 1455.22 L753.027 1452.02 Z" fill="#000000" fill-rule="evenodd" fill-opacity="1" /><path clip-path="url(#clip680)" d="M 0 0 M791.696 1440.92 L782.104 1455.91 L791.696 1455.91 L791.696 1440.92 M790.699 1437.61 L795.476 1437.61 L795.476 1455.91 L799.482 1455.91 L799.482 1459.07 L795.476 1459.07 L795.476 1465.69 L791.696 1465.69 L791.696 1459.07 L779.02 1459.07 L779.02 1455.41 L790.699 1437.61 Z" fill="#000000" fill-rule="evenodd" fill-opacity="1" /><path clip-path="url(#clip680)" d="M 0 0 M803.601 1460.92 L807.57 1460.92 L807.57 1465.69 L803.601 1465.69 L803.601 1460.92 Z" fill="#000000" fill-rule="evenodd" fill-opacity="1" /><path clip-path="url(#clip680)" d="M 0 0 M811.726 1437.61 L826.641 1437.61 L826.641 1440.81 L815.206 1440.81 L815.206 1447.69 Q816.033 1447.41 816.861 1447.28 Q817.688 1447.13 818.516 1447.13 Q823.218 1447.13 825.964 1449.71 Q828.71 1452.28 828.71 1456.68 Q828.71 1461.22 825.888 1463.74 Q823.067 1466.24 817.933 1466.24 Q816.165 1466.24 814.322 1465.94 Q812.497 1465.64 810.541 1465.04 L810.541 1461.22 Q812.234 1462.14 814.04 1462.59 Q815.845 1463.04 817.858 1463.04 Q821.111 1463.04 823.011 1461.33 Q824.91 1459.62 824.91 1456.68 Q824.91 1453.75 823.011 1452.04 Q821.111 1450.33 817.858 1450.33 Q816.334 1450.33 814.811 1450.67 Q813.306 1451 811.726 1451.72 L811.726 1437.61 Z" fill="#000000" fill-rule="evenodd" fill-opacity="1" /><path clip-path="url(#clip680)" d="M 0 0 M1213.93 1489.17 L1221.57 1489.17 L1221.57 1462.8 L1213.26 1464.47 L1213.26 1460.21 L1221.53 1458.54 L1226.2 1458.54 L1226.2 1489.17 L1233.84 1489.17 L1233.84 1493.1 L1213.93 1493.1 L1213.93 1489.17 Z" fill="#000000" fill-rule="evenodd" fill-opacity="1" /><path clip-path="url(#clip680)" d="M 0 0 M1248.91 1461.62 Q1245.3 1461.62 1243.47 1465.19 Q1241.67 1468.73 1241.67 1475.86 Q1241.67 1482.97 1243.47 1486.53 Q1245.3 1490.07 1248.91 1490.07 Q1252.54 1490.07 1254.35 1486.53 Q1256.18 1482.97 1256.18 1475.86 Q1256.18 1468.73 1254.35 1465.19 Q1252.54 1461.62 1248.91 1461.62 M1248.91 1457.92 Q1254.72 1457.92 1257.78 1462.53 Q1260.85 1467.11 1260.85 1475.86 Q1260.85 1484.59 1257.78 1489.19 Q1254.72 1493.78 1248.91 1493.78 Q1243.1 1493.78 1240.02 1489.19 Q1236.97 1484.59 1236.97 1475.86 Q1236.97 1467.11 1240.02 1462.53 Q1243.1 1457.92 1248.91 1457.92 Z" fill="#000000" fill-rule="evenodd" fill-opacity="1" /><path clip-path="url(#clip680)" d="M 0 0 M1260.85 1452.02 L1284.97 1452.02 L1284.97 1455.22 L1260.85 1455.22 L1260.85 1452.02 Z" fill="#000000" fill-rule="evenodd" fill-opacity="1" /><path clip-path="url(#clip680)" d="M 0 0 M1299.52 1440.92 L1289.93 1455.91 L1299.52 1455.91 L1299.52 1440.92 M1298.53 1437.61 L1303.3 1437.61 L1303.3 1455.91 L1307.31 1455.91 L1307.31 1459.07 L1303.3 1459.07 L1303.3 1465.69 L1299.52 1465.69 L1299.52 1459.07 L1286.85 1459.07 L1286.85 1455.41 L1298.53 1437.61 Z" fill="#000000" fill-rule="evenodd" fill-opacity="1" /><path clip-path="url(#clip680)" d="M 0 0 M1311.43 1460.92 L1315.4 1460.92 L1315.4 1465.69 L1311.43 1465.69 L1311.43 1460.92 Z" fill="#000000" fill-rule="evenodd" fill-opacity="1" /><path clip-path="url(#clip680)" d="M 0 0 M1327.64 1440.11 Q1324.71 1440.11 1323.22 1443.01 Q1321.75 1445.89 1321.75 1451.68 Q1321.75 1457.46 1323.22 1460.35 Q1324.71 1463.23 1327.64 1463.23 Q1330.59 1463.23 1332.06 1460.35 Q1333.55 1457.46 1333.55 1451.68 Q1333.55 1445.89 1332.06 1443.01 Q1330.59 1440.11 1327.64 1440.11 M1327.64 1437.11 Q1332.36 1437.11 1334.84 1440.85 Q1337.35 1444.57 1337.35 1451.68 Q1337.35 1458.77 1334.84 1462.51 Q1332.36 1466.24 1327.64 1466.24 Q1322.92 1466.24 1320.42 1462.51 Q1317.94 1458.77 1317.94 1451.68 Q1317.94 1444.57 1320.42 1440.85 Q1322.92 1437.11 1327.64 1437.11 Z" fill="#000000" fill-rule="evenodd" fill-opacity="1" /><path clip-path="url(#clip680)" d="M 0 0 M1723.03 1489.17 L1730.67 1489.17 L1730.67 1462.8 L1722.36 1464.47 L1722.36 1460.21 L1730.62 1458.54 L1735.3 1458.54 L1735.3 1489.17 L1742.94 1489.17 L1742.94 1493.1 L1723.03 1493.1 L1723.03 1489.17 Z" fill="#000000" fill-rule="evenodd" fill-opacity="1" /><path clip-path="url(#clip680)" d="M 0 0 M1758.01 1461.62 Q1754.4 1461.62 1752.57 1465.19 Q1750.76 1468.73 1750.76 1475.86 Q1750.76 1482.97 1752.57 1486.53 Q1754.4 1490.07 1758.01 1490.07 Q1761.64 1490.07 1763.45 1486.53 Q1765.28 1482.97 1765.28 1475.86 Q1765.28 1468.73 1763.45 1465.19 Q1761.64 1461.62 1758.01 1461.62 M1758.01 1457.92 Q1763.82 1457.92 1766.87 1462.53 Q1769.95 1467.11 1769.95 1475.86 Q1769.95 1484.59 1766.87 1489.19 Q1763.82 1493.78 1758.01 1493.78 Q1752.2 1493.78 1749.12 1489.19 Q1746.06 1484.59 1746.06 1475.86 Q1746.06 1467.11 1749.12 1462.53 Q1752.2 1457.92 1758.01 1457.92 Z" fill="#000000" fill-rule="evenodd" fill-opacity="1" /><path clip-path="url(#clip680)" d="M 0 0 M1769.95 1452.02 L1794.06 1452.02 L1794.06 1455.22 L1769.95 1455.22 L1769.95 1452.02 Z" fill="#000000" fill-rule="evenodd" fill-opacity="1" /><path clip-path="url(#clip680)" d="M 0 0 M1809.69 1450.55 Q1812.42 1451.14 1813.94 1452.98 Q1815.49 1454.82 1815.49 1457.53 Q1815.49 1461.69 1812.63 1463.96 Q1809.77 1466.24 1804.5 1466.24 Q1802.73 1466.24 1800.85 1465.88 Q1798.99 1465.54 1797 1464.85 L1797 1461.18 Q1798.58 1462.1 1800.46 1462.57 Q1802.34 1463.04 1804.39 1463.04 Q1807.96 1463.04 1809.82 1461.63 Q1811.71 1460.22 1811.71 1457.53 Q1811.71 1455.05 1809.96 1453.66 Q1808.23 1452.25 1805.12 1452.25 L1801.85 1452.25 L1801.85 1449.12 L1805.27 1449.12 Q1808.08 1449.12 1809.56 1448.01 Q1811.05 1446.89 1811.05 1444.78 Q1811.05 1442.62 1809.5 1441.47 Q1807.98 1440.3 1805.12 1440.3 Q1803.56 1440.3 1801.77 1440.64 Q1799.99 1440.98 1797.84 1441.69 L1797.84 1438.31 Q1800.01 1437.71 1801.89 1437.41 Q1803.79 1437.11 1805.46 1437.11 Q1809.79 1437.11 1812.31 1439.08 Q1814.83 1441.04 1814.83 1444.38 Q1814.83 1446.72 1813.49 1448.33 Q1812.16 1449.93 1809.69 1450.55 Z" fill="#000000" fill-rule="evenodd" fill-opacity="1" /><path clip-path="url(#clip680)" d="M 0 0 M1819.6 1460.92 L1823.57 1460.92 L1823.57 1465.69 L1819.6 1465.69 L1819.6 1460.92 Z" fill="#000000" fill-rule="evenodd" fill-opacity="1" /><path clip-path="url(#clip680)" d="M 0 0 M1827.73 1437.61 L1842.64 1437.61 L1842.64 1440.81 L1831.21 1440.81 L1831.21 1447.69 Q1832.04 1447.41 1832.86 1447.28 Q1833.69 1447.13 1834.52 1447.13 Q1839.22 1447.13 1841.97 1449.71 Q1844.71 1452.28 1844.71 1456.68 Q1844.71 1461.22 1841.89 1463.74 Q1839.07 1466.24 1833.94 1466.24 Q1832.17 1466.24 1830.32 1465.94 Q1828.5 1465.64 1826.54 1465.04 L1826.54 1461.22 Q1828.24 1462.14 1830.04 1462.59 Q1831.85 1463.04 1833.86 1463.04 Q1837.11 1463.04 1839.01 1461.33 Q1840.91 1459.62 1840.91 1456.68 Q1840.91 1453.75 1839.01 1452.04 Q1837.11 1450.33 1833.86 1450.33 Q1832.34 1450.33 1830.81 1450.67 Q1829.31 1451 1827.73 1451.72 L1827.73 1437.61 Z" fill="#000000" fill-rule="evenodd" fill-opacity="1" /><path clip-path="url(#clip680)" d="M 0 0 M2230.86 1489.17 L2238.5 1489.17 L2238.5 1462.8 L2230.19 1464.47 L2230.19 1460.21 L2238.45 1458.54 L2243.13 1458.54 L2243.13 1489.17 L2250.77 1489.17 L2250.77 1493.1 L2230.86 1493.1 L2230.86 1489.17 Z" fill="#000000" fill-rule="evenodd" fill-opacity="1" /><path clip-path="url(#clip680)" d="M 0 0 M2265.84 1461.62 Q2262.22 1461.62 2260.4 1465.19 Q2258.59 1468.73 2258.59 1475.86 Q2258.59 1482.97 2260.4 1486.53 Q2262.22 1490.07 2265.84 1490.07 Q2269.47 1490.07 2271.27 1486.53 Q2273.1 1482.97 2273.1 1475.86 Q2273.1 1468.73 2271.27 1465.19 Q2269.47 1461.62 2265.84 1461.62 M2265.84 1457.92 Q2271.65 1457.92 2274.7 1462.53 Q2277.78 1467.11 2277.78 1475.86 Q2277.78 1484.59 2274.7 1489.19 Q2271.65 1493.78 2265.84 1493.78 Q2260.02 1493.78 2256.95 1489.19 Q2253.89 1484.59 2253.89 1475.86 Q2253.89 1467.11 2256.95 1462.53 Q2260.02 1457.92 2265.84 1457.92 Z" fill="#000000" fill-rule="evenodd" fill-opacity="1" /><path clip-path="url(#clip680)" d="M 0 0 M2277.78 1452.02 L2301.89 1452.02 L2301.89 1455.22 L2277.78 1455.22 L2277.78 1452.02 Z" fill="#000000" fill-rule="evenodd" fill-opacity="1" /><path clip-path="url(#clip680)" d="M 0 0 M2317.52 1450.55 Q2320.25 1451.14 2321.77 1452.98 Q2323.31 1454.82 2323.31 1457.53 Q2323.31 1461.69 2320.45 1463.96 Q2317.6 1466.24 2312.33 1466.24 Q2310.56 1466.24 2308.68 1465.88 Q2306.82 1465.54 2304.83 1464.85 L2304.83 1461.18 Q2306.4 1462.1 2308.29 1462.57 Q2310.17 1463.04 2312.22 1463.04 Q2315.79 1463.04 2317.65 1461.63 Q2319.53 1460.22 2319.53 1457.53 Q2319.53 1455.05 2317.78 1453.66 Q2316.05 1452.25 2312.95 1452.25 L2309.68 1452.25 L2309.68 1449.12 L2313.1 1449.12 Q2315.9 1449.12 2317.39 1448.01 Q2318.87 1446.89 2318.87 1444.78 Q2318.87 1442.62 2317.33 1441.47 Q2315.81 1440.3 2312.95 1440.3 Q2311.39 1440.3 2309.6 1440.64 Q2307.82 1440.98 2305.67 1441.69 L2305.67 1438.31 Q2307.83 1437.71 2309.72 1437.41 Q2311.61 1437.11 2313.29 1437.11 Q2317.61 1437.11 2320.13 1439.08 Q2322.65 1441.04 2322.65 1444.38 Q2322.65 1446.72 2321.32 1448.33 Q2319.98 1449.93 2317.52 1450.55 Z" fill="#000000" fill-rule="evenodd" fill-opacity="1" /><path clip-path="url(#clip680)" d="M 0 0 M2327.43 1460.92 L2331.4 1460.92 L2331.4 1465.69 L2327.43 1465.69 L2327.43 1460.92 Z" fill="#000000" fill-rule="evenodd" fill-opacity="1" /><path clip-path="url(#clip680)" d="M 0 0 M2343.64 1440.11 Q2340.71 1440.11 2339.22 1443.01 Q2337.76 1445.89 2337.76 1451.68 Q2337.76 1457.46 2339.22 1460.35 Q2340.71 1463.23 2343.64 1463.23 Q2346.6 1463.23 2348.06 1460.35 Q2349.55 1457.46 2349.55 1451.68 Q2349.55 1445.89 2348.06 1443.01 Q2346.6 1440.11 2343.64 1440.11 M2343.64 1437.11 Q2348.36 1437.11 2350.85 1440.85 Q2353.35 1444.57 2353.35 1451.68 Q2353.35 1458.77 2350.85 1462.51 Q2348.36 1466.24 2343.64 1466.24 Q2338.92 1466.24 2336.42 1462.51 Q2333.94 1458.77 2333.94 1451.68 Q2333.94 1444.57 2336.42 1440.85 Q2338.92 1437.11 2343.64 1437.11 Z" fill="#000000" fill-rule="evenodd" fill-opacity="1" /><path clip-path="url(#clip680)" d="M 0 0 M1200.52 1512.66 L1206.41 1512.66 L1206.41 1541.91 L1223.89 1526.54 L1231.36 1526.54 L1212.46 1543.22 L1232.16 1562.19 L1224.52 1562.19 L1206.41 1544.78 L1206.41 1562.19 L1200.52 1562.19 L1200.52 1512.66 Z" fill="#000000" fill-rule="evenodd" fill-opacity="1" /><path clip-path="url(#clip680)" d="M 0 0 M1265.39 1573.01 L1265.39 1577.56 L1231.52 1577.56 L1231.52 1573.01 L1265.39 1573.01 Z" fill="#000000" fill-rule="evenodd" fill-opacity="1" /><path clip-path="url(#clip680)" d="M 0 0 M1285.35 1530.64 Q1280.64 1530.64 1277.9 1534.34 Q1275.16 1538 1275.16 1544.39 Q1275.16 1550.79 1277.87 1554.48 Q1280.6 1558.14 1285.35 1558.14 Q1290.02 1558.14 1292.76 1554.45 Q1295.5 1550.76 1295.5 1544.39 Q1295.5 1538.06 1292.76 1534.37 Q1290.02 1530.64 1285.35 1530.64 M1285.35 1525.68 Q1292.98 1525.68 1297.35 1530.64 Q1301.71 1535.61 1301.71 1544.39 Q1301.71 1553.15 1297.35 1558.14 Q1292.98 1563.11 1285.35 1563.11 Q1277.68 1563.11 1273.31 1558.14 Q1268.99 1553.15 1268.99 1544.39 Q1268.99 1535.61 1273.31 1530.64 Q1277.68 1525.68 1285.35 1525.68 Z" fill="#000000" fill-rule="evenodd" fill-opacity="1" /><path clip-path="url(#clip680)" d="M 0 0 M1325.9 1512.66 L1325.9 1517.53 L1320.29 1517.53 Q1317.14 1517.53 1315.9 1518.8 Q1314.69 1520.08 1314.69 1523.39 L1314.69 1526.54 L1324.34 1526.54 L1324.34 1531.09 L1314.69 1531.09 L1314.69 1562.19 L1308.8 1562.19 L1308.8 1531.09 L1303.2 1531.09 L1303.2 1526.54 L1308.8 1526.54 L1308.8 1524.05 Q1308.8 1518.1 1311.57 1515.4 Q1314.34 1512.66 1320.36 1512.66 L1325.9 1512.66 Z" fill="#000000" fill-rule="evenodd" fill-opacity="1" /><path clip-path="url(#clip680)" d="M 0 0 M1350.09 1512.66 L1350.09 1517.53 L1344.48 1517.53 Q1341.33 1517.53 1340.09 1518.8 Q1338.88 1520.08 1338.88 1523.39 L1338.88 1526.54 L1348.53 1526.54 L1348.53 1531.09 L1338.88 1531.09 L1338.88 1562.19 L1332.99 1562.19 L1332.99 1531.09 L1327.39 1531.09 L1327.39 1526.54 L1332.99 1526.54 L1332.99 1524.05 Q1332.99 1518.1 1335.76 1515.4 Q1338.53 1512.66 1344.55 1512.66 L1350.09 1512.66 Z" fill="#000000" fill-rule="evenodd" fill-opacity="1" /><polyline clip-path="url(#clip682)" style="stroke:#000000; stroke-width:2; stroke-opacity:0.1; fill:none" points="
  197.852,1128.61 2352.76,1128.61 
  "/>
<polyline clip-path="url(#clip682)" style="stroke:#000000; stroke-width:2; stroke-opacity:0.1; fill:none" points="
  197.852,827.438 2352.76,827.438 
  "/>
<polyline clip-path="url(#clip682)" style="stroke:#000000; stroke-width:2; stroke-opacity:0.1; fill:none" points="
  197.852,526.268 2352.76,526.268 
  "/>
<polyline clip-path="url(#clip682)" style="stroke:#000000; stroke-width:2; stroke-opacity:0.1; fill:none" points="
  197.852,225.098 2352.76,225.098 
  "/>
<polyline clip-path="url(#clip680)" style="stroke:#000000; stroke-width:4; stroke-opacity:1; fill:none" points="
  197.852,1410.9 197.852,47.2441 
  "/>
<polyline clip-path="url(#clip680)" style="stroke:#000000; stroke-width:4; stroke-opacity:1; fill:none" points="
  197.852,1128.61 223.711,1128.61 
  "/>
<polyline clip-path="url(#clip680)" style="stroke:#000000; stroke-width:4; stroke-opacity:1; fill:none" points="
  197.852,827.438 223.711,827.438 
  "/>
<polyline clip-path="url(#clip680)" style="stroke:#000000; stroke-width:4; stroke-opacity:1; fill:none" points="
  197.852,526.268 223.711,526.268 
  "/>
<polyline clip-path="url(#clip680)" style="stroke:#000000; stroke-width:4; stroke-opacity:1; fill:none" points="
  197.852,225.098 223.711,225.098 
  "/>
<path clip-path="url(#clip680)" d="M 0 0 M140.232 1145.17 L140.232 1140.91 Q141.991 1141.74 143.797 1142.18 Q145.603 1142.62 147.339 1142.62 Q151.968 1142.62 154.399 1139.52 Q156.853 1136.4 157.2 1130.05 Q155.857 1132.04 153.797 1133.11 Q151.737 1134.17 149.237 1134.17 Q144.052 1134.17 141.019 1131.05 Q138.01 1127.9 138.01 1122.46 Q138.01 1117.14 141.158 1113.92 Q144.306 1110.7 149.538 1110.7 Q155.533 1110.7 158.681 1115.31 Q161.852 1119.89 161.852 1128.64 Q161.852 1136.81 157.964 1141.7 Q154.098 1146.56 147.547 1146.56 Q145.788 1146.56 143.982 1146.21 Q142.177 1145.86 140.232 1145.17 M149.538 1130.52 Q152.686 1130.52 154.515 1128.36 Q156.366 1126.21 156.366 1122.46 Q156.366 1118.73 154.515 1116.58 Q152.686 1114.41 149.538 1114.41 Q146.39 1114.41 144.538 1116.58 Q142.709 1118.73 142.709 1122.46 Q142.709 1126.21 144.538 1128.36 Q146.39 1130.52 149.538 1130.52 Z" fill="#000000" fill-rule="evenodd" fill-opacity="1" /><path clip-path="url(#clip680)" d="M 0 0 M114.931 840.782 L122.57 840.782 L122.57 814.417 L114.26 816.083 L114.26 811.824 L122.524 810.158 L127.2 810.158 L127.2 840.782 L134.839 840.782 L134.839 844.718 L114.931 844.718 L114.931 840.782 Z" fill="#000000" fill-rule="evenodd" fill-opacity="1" /><path clip-path="url(#clip680)" d="M 0 0 M149.908 813.236 Q146.297 813.236 144.468 816.801 Q142.663 820.343 142.663 827.472 Q142.663 834.579 144.468 838.143 Q146.297 841.685 149.908 841.685 Q153.542 841.685 155.348 838.143 Q157.177 834.579 157.177 827.472 Q157.177 820.343 155.348 816.801 Q153.542 813.236 149.908 813.236 M149.908 809.533 Q155.718 809.533 158.774 814.139 Q161.852 818.722 161.852 827.472 Q161.852 836.199 158.774 840.805 Q155.718 845.389 149.908 845.389 Q144.098 845.389 141.019 840.805 Q137.964 836.199 137.964 827.472 Q137.964 818.722 141.019 814.139 Q144.098 809.533 149.908 809.533 Z" fill="#000000" fill-rule="evenodd" fill-opacity="1" /><path clip-path="url(#clip680)" d="M 0 0 M116.158 539.612 L123.797 539.612 L123.797 513.247 L115.487 514.913 L115.487 510.654 L123.751 508.988 L128.427 508.988 L128.427 539.612 L136.066 539.612 L136.066 543.548 L116.158 543.548 L116.158 539.612 Z" fill="#000000" fill-rule="evenodd" fill-opacity="1" /><path clip-path="url(#clip680)" d="M 0 0 M141.945 539.612 L149.584 539.612 L149.584 513.247 L141.274 514.913 L141.274 510.654 L149.538 508.988 L154.214 508.988 L154.214 539.612 L161.852 539.612 L161.852 543.548 L141.945 543.548 L141.945 539.612 Z" fill="#000000" fill-rule="evenodd" fill-opacity="1" /><path clip-path="url(#clip680)" d="M 0 0 M116.529 238.443 L124.168 238.443 L124.168 212.077 L115.857 213.744 L115.857 209.484 L124.121 207.818 L128.797 207.818 L128.797 238.443 L136.436 238.443 L136.436 242.378 L116.529 242.378 L116.529 238.443 Z" fill="#000000" fill-rule="evenodd" fill-opacity="1" /><path clip-path="url(#clip680)" d="M 0 0 M145.533 238.443 L161.852 238.443 L161.852 242.378 L139.908 242.378 L139.908 238.443 Q142.57 235.688 147.153 231.058 Q151.76 226.406 152.941 225.063 Q155.186 222.54 156.065 220.804 Q156.968 219.044 156.968 217.355 Q156.968 214.6 155.024 212.864 Q153.103 211.128 150.001 211.128 Q147.802 211.128 145.348 211.892 Q142.917 212.656 140.14 214.207 L140.14 209.484 Q142.964 208.35 145.417 207.771 Q147.871 207.193 149.908 207.193 Q155.278 207.193 158.473 209.878 Q161.667 212.563 161.667 217.054 Q161.667 219.183 160.857 221.105 Q160.07 223.003 157.964 225.595 Q157.385 226.267 154.283 229.484 Q151.181 232.679 145.533 238.443 Z" fill="#000000" fill-rule="evenodd" fill-opacity="1" /><path clip-path="url(#clip680)" d="M 0 0 M59.1993 815.533 Q55.2526 813.336 53.3747 810.281 Q51.4968 807.225 51.4968 803.088 Q51.4968 797.518 55.4117 794.494 Q59.2948 791.47 66.4881 791.47 L88.0042 791.47 L88.0042 797.358 L66.679 797.358 Q61.5546 797.358 59.072 799.173 Q56.5894 800.987 56.5894 804.711 Q56.5894 809.262 59.6131 811.904 Q62.6368 814.546 67.8567 814.546 L88.0042 814.546 L88.0042 820.434 L66.679 820.434 Q61.5228 820.434 59.072 822.248 Q56.5894 824.063 56.5894 827.85 Q56.5894 832.338 59.6449 834.98 Q62.6686 837.622 67.8567 837.622 L88.0042 837.622 L88.0042 843.51 L52.3562 843.51 L52.3562 837.622 L57.8944 837.622 Q54.616 835.616 53.0564 832.815 Q51.4968 830.015 51.4968 826.163 Q51.4968 822.28 53.4702 819.575 Q55.4436 816.838 59.1993 815.533 Z" fill="#000000" fill-rule="evenodd" fill-opacity="1" /><path clip-path="url(#clip680)" d="M 0 0 M52.3562 785.327 L52.3562 779.471 L88.0042 779.471 L88.0042 785.327 L52.3562 785.327 M38.479 785.327 L38.479 779.471 L45.895 779.471 L45.895 785.327 L38.479 785.327 Z" fill="#000000" fill-rule="evenodd" fill-opacity="1" /><path clip-path="url(#clip680)" d="M 0 0 M66.4881 743.696 L88.0042 743.696 L88.0042 749.552 L66.679 749.552 Q61.6183 749.552 59.1038 751.525 Q56.5894 753.499 56.5894 757.446 Q56.5894 762.188 59.6131 764.925 Q62.6368 767.662 67.8567 767.662 L88.0042 767.662 L88.0042 773.551 L52.3562 773.551 L52.3562 767.662 L57.8944 767.662 Q54.6797 765.562 53.0883 762.729 Q51.4968 759.864 51.4968 756.141 Q51.4968 749.998 55.3163 746.847 Q59.1038 743.696 66.4881 743.696 Z" fill="#000000" fill-rule="evenodd" fill-opacity="1" /><path clip-path="url(#clip680)" d="M 0 0 M98.8259 710.467 L103.377 710.467 L103.377 744.332 L98.8259 744.332 L98.8259 710.467 Z" fill="#000000" fill-rule="evenodd" fill-opacity="1" /><path clip-path="url(#clip680)" d="M 0 0 M57.7671 680.866 L38.479 680.866 L38.479 675.01 L88.0042 675.01 L88.0042 680.866 L82.657 680.866 Q85.8398 682.712 87.3994 685.545 Q88.9272 688.346 88.9272 692.292 Q88.9272 698.754 83.771 702.828 Q78.6147 706.87 70.212 706.87 Q61.8093 706.87 56.6531 702.828 Q51.4968 698.754 51.4968 692.292 Q51.4968 688.346 53.0564 685.545 Q54.5842 682.712 57.7671 680.866 M70.212 700.823 Q76.6732 700.823 80.3653 698.181 Q84.0256 695.507 84.0256 690.86 Q84.0256 686.213 80.3653 683.54 Q76.6732 680.866 70.212 680.866 Q63.7508 680.866 60.0905 683.54 Q56.3984 686.213 56.3984 690.86 Q56.3984 695.507 60.0905 698.181 Q63.7508 700.823 70.212 700.823 Z" fill="#000000" fill-rule="evenodd" fill-opacity="1" /><path clip-path="url(#clip680)" d="M 0 0 M52.3562 668.867 L52.3562 663.01 L88.0042 663.01 L88.0042 668.867 L52.3562 668.867 M38.479 668.867 L38.479 663.01 L45.895 663.01 L45.895 668.867 L38.479 668.867 Z" fill="#000000" fill-rule="evenodd" fill-opacity="1" /><path clip-path="url(#clip680)" d="M 0 0 M38.479 638.821 L43.3487 638.821 L43.3487 644.422 Q43.3487 647.573 44.6219 648.815 Q45.895 650.024 49.2052 650.024 L52.3562 650.024 L52.3562 640.38 L56.9077 640.38 L56.9077 650.024 L88.0042 650.024 L88.0042 655.912 L56.9077 655.912 L56.9077 661.514 L52.3562 661.514 L52.3562 655.912 L49.8736 655.912 Q43.9216 655.912 41.2162 653.143 Q38.479 650.374 38.479 644.359 L38.479 638.821 Z" fill="#000000" fill-rule="evenodd" fill-opacity="1" /><path clip-path="url(#clip680)" d="M 0 0 M38.479 614.631 L43.3487 614.631 L43.3487 620.233 Q43.3487 623.384 44.6219 624.625 Q45.895 625.835 49.2052 625.835 L52.3562 625.835 L52.3562 616.19 L56.9077 616.19 L56.9077 625.835 L88.0042 625.835 L88.0042 631.723 L56.9077 631.723 L56.9077 637.325 L52.3562 637.325 L52.3562 631.723 L49.8736 631.723 Q43.9216 631.723 41.2162 628.954 Q38.479 626.185 38.479 620.169 L38.479 614.631 Z" fill="#000000" fill-rule="evenodd" fill-opacity="1" /><polyline clip-path="url(#clip682)" style="stroke:#009af9; stroke-width:20; stroke-opacity:1; fill:none" stroke-dasharray="80, 50" points="
  258.84,738.134 1275.3,1372.3 2291.77,85.838 
  "/>
<path clip-path="url(#clip680)" d="
M1990.47 213.659 L2280.93 213.659 L2280.93 92.6992 L1990.47 92.6992  Z
  " fill="#ffffff" fill-rule="evenodd" fill-opacity="1"/>
<polyline clip-path="url(#clip680)" style="stroke:#000000; stroke-width:4; stroke-opacity:1; fill:none" points="
  1990.47,213.659 2280.93,213.659 2280.93,92.6992 1990.47,92.6992 1990.47,213.659 
  "/>
<polyline clip-path="url(#clip680)" style="stroke:#009af9; stroke-width:4; stroke-opacity:1; fill:none" stroke-dasharray="16, 10" points="
  2014.42,153.179 2158.08,153.179 
  "/>
<path clip-path="url(#clip680)" d="M 0 0 M2195.86 172.867 Q2194.06 177.496 2192.34 178.908 Q2190.63 180.32 2187.76 180.32 L2184.36 180.32 L2184.36 176.755 L2186.86 176.755 Q2188.62 176.755 2189.59 175.922 Q2190.56 175.089 2191.74 171.987 L2192.51 170.043 L2182.02 144.533 L2186.53 144.533 L2194.64 164.811 L2202.74 144.533 L2207.25 144.533 L2195.86 172.867 Z" fill="#000000" fill-rule="evenodd" fill-opacity="1" /><path clip-path="url(#clip680)" d="M 0 0 M2213.13 166.524 L2220.77 166.524 L2220.77 140.158 L2212.46 141.825 L2212.46 137.566 L2220.72 135.899 L2225.4 135.899 L2225.4 166.524 L2233.04 166.524 L2233.04 170.459 L2213.13 170.459 L2213.13 166.524 Z" fill="#000000" fill-rule="evenodd" fill-opacity="1" /></svg>
