<?xml version="1.0" encoding="utf-8"?>
<svg xmlns="http://www.w3.org/2000/svg" xmlns:xlink="http://www.w3.org/1999/xlink" width="600" height="400" viewBox="0 0 2400 1600">
<defs>
  <clipPath id="clip700">
    <rect x="0" y="0" width="2400" height="1600"/>
  </clipPath>
</defs>
<path clip-path="url(#clip700)" d="
M0 1600 L2400 1600 L2400 0 L0 0  Z
  " fill="#ffffff" fill-rule="evenodd" fill-opacity="1"/>
<defs>
  <clipPath id="clip701">
    <rect x="480" y="0" width="1681" height="1600"/>
  </clipPath>
</defs>
<path clip-path="url(#clip700)" d="
M262.806 1410.9 L2352.76 1410.9 L2352.76 47.2441 L262.806 47.2441  Z
  " fill="#ffffff" fill-rule="evenodd" fill-opacity="1"/>
<defs>
  <clipPath id="clip702">
    <rect x="262" y="47" width="2091" height="1365"/>
  </clipPath>
</defs>
<polyline clip-path="url(#clip702)" style="stroke:#000000; stroke-width:2; stroke-opacity:0.1; fill:none" points="
  519.12,1410.9 519.12,47.2441 
  "/>
<polyline clip-path="url(#clip702)" style="stroke:#000000; stroke-width:2; stroke-opacity:0.1; fill:none" points="
  913.451,1410.9 913.451,47.2441 
  "/>
<polyline clip-path="url(#clip702)" style="stroke:#000000; stroke-width:2; stroke-opacity:0.1; fill:none" points="
  1307.78,1410.9 1307.78,47.2441 
  "/>
<polyline clip-path="url(#clip702)" style="stroke:#000000; stroke-width:2; stroke-opacity:0.1; fill:none" points="
  1702.11,1410.9 1702.11,47.2441 
  "/>
<polyline clip-path="url(#clip702)" style="stroke:#000000; stroke-width:2; stroke-opacity:0.1; fill:none" points="
  2096.44,1410.9 2096.44,47.2441 
  "/>
<polyline clip-path="url(#clip700)" style="stroke:#000000; stroke-width:4; stroke-opacity:1; fill:none" points="
  262.806,1410.9 2352.76,1410.9 
  "/>
<polyline clip-path="url(#clip700)" style="stroke:#000000; stroke-width:4; stroke-opacity:1; fill:none" points="
  519.12,1410.9 519.12,1394.53 
  "/>
<polyline clip-path="url(#clip700)" style="stroke:#000000; stroke-width:4; stroke-opacity:1; fill:none" points="
  913.451,1410.9 913.451,1394.53 
  "/>
<polyline clip-path="url(#clip700)" style="stroke:#000000; stroke-width:4; stroke-opacity:1; fill:none" points="
  1307.78,1410.9 1307.78,1394.53 
  "/>
<polyline clip-path="url(#clip700)" style="stroke:#000000; stroke-width:4; stroke-opacity:1; fill:none" points="
  1702.11,1410.9 1702.11,1394.53 
  "/>
<polyline clip-path="url(#clip700)" style="stroke:#000000; stroke-width:4; stroke-opacity:1; fill:none" points="
  2096.44,1410.9 2096.44,1394.53 
  "/>
<path clip-path="url(#clip700)" d="M 0 0 M458.013 1489.17 L465.652 1489.17 L465.652 1462.8 L457.342 1464.47 L457.342 1460.21 L465.606 1458.54 L470.282 1458.54 L470.282 1489.17 L477.921 1489.17 L477.921 1493.1 L458.013 1493.1 L458.013 1489.17 Z" fill="#000000" fill-rule="evenodd" fill-opacity="1" /><path clip-path="url(#clip700)" d="M 0 0 M492.99 1461.62 Q489.379 1461.62 487.55 1465.19 Q485.745 1468.73 485.745 1475.86 Q485.745 1482.97 487.55 1486.53 Q489.379 1490.07 492.99 1490.07 Q496.624 1490.07 498.43 1486.53 Q500.258 1482.97 500.258 1475.86 Q500.258 1468.73 498.43 1465.19 Q496.624 1461.62 492.99 1461.62 M492.99 1457.92 Q498.8 1457.92 501.856 1462.53 Q504.934 1467.11 504.934 1475.86 Q504.934 1484.59 501.856 1489.19 Q498.8 1493.78 492.99 1493.78 Q487.18 1493.78 484.101 1489.19 Q481.046 1484.59 481.046 1475.86 Q481.046 1467.11 484.101 1462.53 Q487.18 1457.92 492.99 1457.92 Z" fill="#000000" fill-rule="evenodd" fill-opacity="1" /><path clip-path="url(#clip700)" d="M 0 0 M504.934 1452.02 L529.046 1452.02 L529.046 1455.22 L504.934 1455.22 L504.934 1452.02 Z" fill="#000000" fill-rule="evenodd" fill-opacity="1" /><path clip-path="url(#clip700)" d="M 0 0 M544.675 1450.55 Q547.402 1451.14 548.926 1452.98 Q550.468 1454.82 550.468 1457.53 Q550.468 1461.69 547.609 1463.96 Q544.75 1466.24 539.484 1466.24 Q537.716 1466.24 535.836 1465.88 Q533.974 1465.54 531.98 1464.85 L531.98 1461.18 Q533.56 1462.1 535.441 1462.57 Q537.321 1463.04 539.371 1463.04 Q542.945 1463.04 544.807 1461.63 Q546.688 1460.22 546.688 1457.53 Q546.688 1455.05 544.938 1453.66 Q543.208 1452.25 540.105 1452.25 L536.832 1452.25 L536.832 1449.12 L540.255 1449.12 Q543.058 1449.12 544.544 1448.01 Q546.029 1446.89 546.029 1444.78 Q546.029 1442.62 544.487 1441.47 Q542.964 1440.3 540.105 1440.3 Q538.544 1440.3 536.757 1440.64 Q534.97 1440.98 532.826 1441.69 L532.826 1438.31 Q534.989 1437.71 536.87 1437.41 Q538.77 1437.11 540.443 1437.11 Q544.769 1437.11 547.289 1439.08 Q549.81 1441.04 549.81 1444.38 Q549.81 1446.72 548.474 1448.33 Q547.139 1449.93 544.675 1450.55 Z" fill="#000000" fill-rule="evenodd" fill-opacity="1" /><path clip-path="url(#clip700)" d="M 0 0 M554.587 1460.92 L558.555 1460.92 L558.555 1465.69 L554.587 1465.69 L554.587 1460.92 Z" fill="#000000" fill-rule="evenodd" fill-opacity="1" /><path clip-path="url(#clip700)" d="M 0 0 M573.113 1440.92 L563.521 1455.91 L573.113 1455.91 L573.113 1440.92 M572.116 1437.61 L576.893 1437.61 L576.893 1455.91 L580.899 1455.91 L580.899 1459.07 L576.893 1459.07 L576.893 1465.69 L573.113 1465.69 L573.113 1459.07 L560.436 1459.07 L560.436 1455.41 L572.116 1437.61 Z" fill="#000000" fill-rule="evenodd" fill-opacity="1" /><path clip-path="url(#clip700)" d="M 0 0 M853.19 1489.17 L860.829 1489.17 L860.829 1462.8 L852.519 1464.47 L852.519 1460.21 L860.782 1458.54 L865.458 1458.54 L865.458 1489.17 L873.097 1489.17 L873.097 1493.1 L853.19 1493.1 L853.19 1489.17 Z" fill="#000000" fill-rule="evenodd" fill-opacity="1" /><path clip-path="url(#clip700)" d="M 0 0 M888.167 1461.62 Q884.555 1461.62 882.727 1465.19 Q880.921 1468.73 880.921 1475.86 Q880.921 1482.97 882.727 1486.53 Q884.555 1490.07 888.167 1490.07 Q891.801 1490.07 893.606 1486.53 Q895.435 1482.97 895.435 1475.86 Q895.435 1468.73 893.606 1465.19 Q891.801 1461.62 888.167 1461.62 M888.167 1457.92 Q893.977 1457.92 897.032 1462.53 Q900.111 1467.11 900.111 1475.86 Q900.111 1484.59 897.032 1489.19 Q893.977 1493.78 888.167 1493.78 Q882.356 1493.78 879.278 1489.19 Q876.222 1484.59 876.222 1475.86 Q876.222 1467.11 879.278 1462.53 Q882.356 1457.92 888.167 1457.92 Z" fill="#000000" fill-rule="evenodd" fill-opacity="1" /><path clip-path="url(#clip700)" d="M 0 0 M900.111 1452.02 L924.222 1452.02 L924.222 1455.22 L900.111 1455.22 L900.111 1452.02 Z" fill="#000000" fill-rule="evenodd" fill-opacity="1" /><path clip-path="url(#clip700)" d="M 0 0 M939.852 1450.55 Q942.579 1451.14 944.102 1452.98 Q945.645 1454.82 945.645 1457.53 Q945.645 1461.69 942.786 1463.96 Q939.927 1466.24 934.661 1466.24 Q932.893 1466.24 931.012 1465.88 Q929.15 1465.54 927.156 1464.85 L927.156 1461.18 Q928.736 1462.1 930.617 1462.57 Q932.498 1463.04 934.548 1463.04 Q938.121 1463.04 939.983 1461.63 Q941.864 1460.22 941.864 1457.53 Q941.864 1455.05 940.115 1453.66 Q938.385 1452.25 935.281 1452.25 L932.009 1452.25 L932.009 1449.12 L935.432 1449.12 Q938.234 1449.12 939.72 1448.01 Q941.206 1446.89 941.206 1444.78 Q941.206 1442.62 939.664 1441.47 Q938.14 1440.3 935.281 1440.3 Q933.72 1440.3 931.934 1440.64 Q930.147 1440.98 928.003 1441.69 L928.003 1438.31 Q930.166 1437.71 932.046 1437.41 Q933.946 1437.11 935.62 1437.11 Q939.946 1437.11 942.466 1439.08 Q944.986 1441.04 944.986 1444.38 Q944.986 1446.72 943.651 1448.33 Q942.316 1449.93 939.852 1450.55 Z" fill="#000000" fill-rule="evenodd" fill-opacity="1" /><path clip-path="url(#clip700)" d="M 0 0 M949.763 1460.92 L953.732 1460.92 L953.732 1465.69 L949.763 1465.69 L949.763 1460.92 Z" fill="#000000" fill-rule="evenodd" fill-opacity="1" /><path clip-path="url(#clip700)" d="M 0 0 M961.123 1462.5 L974.383 1462.5 L974.383 1465.69 L956.553 1465.69 L956.553 1462.5 Q958.716 1460.26 962.44 1456.5 Q966.183 1452.72 967.142 1451.63 Q968.966 1449.58 969.681 1448.16 Q970.414 1446.74 970.414 1445.36 Q970.414 1443.12 968.834 1441.71 Q967.273 1440.3 964.753 1440.3 Q962.966 1440.3 960.973 1440.92 Q958.998 1441.54 956.741 1442.8 L956.741 1438.97 Q959.036 1438.05 961.029 1437.58 Q963.023 1437.11 964.678 1437.11 Q969.041 1437.11 971.637 1439.29 Q974.232 1441.47 974.232 1445.12 Q974.232 1446.85 973.574 1448.41 Q972.935 1449.95 971.223 1452.06 Q970.753 1452.6 968.233 1455.22 Q965.712 1457.81 961.123 1462.5 Z" fill="#000000" fill-rule="evenodd" fill-opacity="1" /><path clip-path="url(#clip700)" d="M 0 0 M1246.87 1489.17 L1254.51 1489.17 L1254.51 1462.8 L1246.2 1464.47 L1246.2 1460.21 L1254.46 1458.54 L1259.14 1458.54 L1259.14 1489.17 L1266.78 1489.17 L1266.78 1493.1 L1246.87 1493.1 L1246.87 1489.17 Z" fill="#000000" fill-rule="evenodd" fill-opacity="1" /><path clip-path="url(#clip700)" d="M 0 0 M1281.85 1461.62 Q1278.24 1461.62 1276.41 1465.19 Q1274.6 1468.73 1274.6 1475.86 Q1274.6 1482.97 1276.41 1486.53 Q1278.24 1490.07 1281.85 1490.07 Q1285.48 1490.07 1287.29 1486.53 Q1289.12 1482.97 1289.12 1475.86 Q1289.12 1468.73 1287.29 1465.19 Q1285.48 1461.62 1281.85 1461.62 M1281.85 1457.92 Q1287.66 1457.92 1290.71 1462.53 Q1293.79 1467.11 1293.79 1475.86 Q1293.79 1484.59 1290.71 1489.19 Q1287.66 1493.78 1281.85 1493.78 Q1276.04 1493.78 1272.96 1489.19 Q1269.9 1484.59 1269.9 1475.86 Q1269.9 1467.11 1272.96 1462.53 Q1276.04 1457.92 1281.85 1457.92 Z" fill="#000000" fill-rule="evenodd" fill-opacity="1" /><path clip-path="url(#clip700)" d="M 0 0 M1293.79 1452.02 L1317.9 1452.02 L1317.9 1455.22 L1293.79 1455.22 L1293.79 1452.02 Z" fill="#000000" fill-rule="evenodd" fill-opacity="1" /><path clip-path="url(#clip700)" d="M 0 0 M1333.53 1450.55 Q1336.26 1451.14 1337.78 1452.98 Q1339.33 1454.82 1339.33 1457.53 Q1339.33 1461.69 1336.47 1463.96 Q1333.61 1466.24 1328.34 1466.24 Q1326.57 1466.24 1324.69 1465.88 Q1322.83 1465.54 1320.84 1464.85 L1320.84 1461.18 Q1322.42 1462.1 1324.3 1462.57 Q1326.18 1463.04 1328.23 1463.04 Q1331.8 1463.04 1333.66 1461.63 Q1335.55 1460.22 1335.55 1457.53 Q1335.55 1455.05 1333.8 1453.66 Q1332.07 1452.25 1328.96 1452.25 L1325.69 1452.25 L1325.69 1449.12 L1329.11 1449.12 Q1331.92 1449.12 1333.4 1448.01 Q1334.89 1446.89 1334.89 1444.78 Q1334.89 1442.62 1333.34 1441.47 Q1331.82 1440.3 1328.96 1440.3 Q1327.4 1440.3 1325.61 1440.64 Q1323.83 1440.98 1321.68 1441.69 L1321.68 1438.31 Q1323.85 1437.71 1325.73 1437.41 Q1327.63 1437.11 1329.3 1437.11 Q1333.63 1437.11 1336.15 1439.08 Q1338.67 1441.04 1338.67 1444.38 Q1338.67 1446.72 1337.33 1448.33 Q1336 1449.93 1333.53 1450.55 Z" fill="#000000" fill-rule="evenodd" fill-opacity="1" /><path clip-path="url(#clip700)" d="M 0 0 M1343.44 1460.92 L1347.41 1460.92 L1347.41 1465.69 L1343.44 1465.69 L1343.44 1460.92 Z" fill="#000000" fill-rule="evenodd" fill-opacity="1" /><path clip-path="url(#clip700)" d="M 0 0 M1359.66 1440.11 Q1356.72 1440.11 1355.24 1443.01 Q1353.77 1445.89 1353.77 1451.68 Q1353.77 1457.46 1355.24 1460.35 Q1356.72 1463.23 1359.66 1463.23 Q1362.61 1463.23 1364.08 1460.35 Q1365.56 1457.46 1365.56 1451.68 Q1365.56 1445.89 1364.08 1443.01 Q1362.61 1440.11 1359.66 1440.11 M1359.66 1437.11 Q1364.38 1437.11 1366.86 1440.85 Q1369.36 1444.57 1369.36 1451.68 Q1369.36 1458.77 1366.86 1462.51 Q1364.38 1466.24 1359.66 1466.24 Q1354.94 1466.24 1352.43 1462.51 Q1349.95 1458.77 1349.95 1451.68 Q1349.95 1444.57 1352.43 1440.85 Q1354.94 1437.11 1359.66 1437.11 Z" fill="#000000" fill-rule="evenodd" fill-opacity="1" /><path clip-path="url(#clip700)" d="M 0 0 M1641.62 1489.17 L1649.26 1489.17 L1649.26 1462.8 L1640.95 1464.47 L1640.95 1460.21 L1649.22 1458.54 L1653.89 1458.54 L1653.89 1489.17 L1661.53 1489.17 L1661.53 1493.1 L1641.62 1493.1 L1641.62 1489.17 Z" fill="#000000" fill-rule="evenodd" fill-opacity="1" /><path clip-path="url(#clip700)" d="M 0 0 M1676.6 1461.62 Q1672.99 1461.62 1671.16 1465.19 Q1669.36 1468.73 1669.36 1475.86 Q1669.36 1482.97 1671.16 1486.53 Q1672.99 1490.07 1676.6 1490.07 Q1680.24 1490.07 1682.04 1486.53 Q1683.87 1482.97 1683.87 1475.86 Q1683.87 1468.73 1682.04 1465.19 Q1680.24 1461.62 1676.6 1461.62 M1676.6 1457.92 Q1682.41 1457.92 1685.47 1462.53 Q1688.55 1467.11 1688.55 1475.86 Q1688.55 1484.59 1685.47 1489.19 Q1682.41 1493.78 1676.6 1493.78 Q1670.79 1493.78 1667.71 1489.19 Q1664.66 1484.59 1664.66 1475.86 Q1664.66 1467.11 1667.71 1462.53 Q1670.79 1457.92 1676.6 1457.92 Z" fill="#000000" fill-rule="evenodd" fill-opacity="1" /><path clip-path="url(#clip700)" d="M 0 0 M1688.55 1452.02 L1712.66 1452.02 L1712.66 1455.22 L1688.55 1455.22 L1688.55 1452.02 Z" fill="#000000" fill-rule="evenodd" fill-opacity="1" /><path clip-path="url(#clip700)" d="M 0 0 M1720.05 1462.5 L1733.31 1462.5 L1733.31 1465.69 L1715.48 1465.69 L1715.48 1462.5 Q1717.64 1460.26 1721.37 1456.5 Q1725.11 1452.72 1726.07 1451.63 Q1727.89 1449.58 1728.61 1448.16 Q1729.34 1446.74 1729.34 1445.36 Q1729.34 1443.12 1727.76 1441.71 Q1726.2 1440.3 1723.68 1440.3 Q1721.89 1440.3 1719.9 1440.92 Q1717.92 1441.54 1715.67 1442.8 L1715.67 1438.97 Q1717.96 1438.05 1719.95 1437.58 Q1721.95 1437.11 1723.6 1437.11 Q1727.97 1437.11 1730.56 1439.29 Q1733.16 1441.47 1733.16 1445.12 Q1733.16 1446.85 1732.5 1448.41 Q1731.86 1449.95 1730.15 1452.06 Q1729.68 1452.6 1727.16 1455.22 Q1724.64 1457.81 1720.05 1462.5 Z" fill="#000000" fill-rule="evenodd" fill-opacity="1" /><path clip-path="url(#clip700)" d="M 0 0 M1737.43 1460.92 L1741.4 1460.92 L1741.4 1465.69 L1737.43 1465.69 L1737.43 1460.92 Z" fill="#000000" fill-rule="evenodd" fill-opacity="1" /><path clip-path="url(#clip700)" d="M 0 0 M1753.64 1452.36 Q1750.93 1452.36 1749.37 1453.81 Q1747.83 1455.26 1747.83 1457.79 Q1747.83 1460.33 1749.37 1461.78 Q1750.93 1463.23 1753.64 1463.23 Q1756.35 1463.23 1757.91 1461.78 Q1759.47 1460.31 1759.47 1457.79 Q1759.47 1455.26 1757.91 1453.81 Q1756.37 1452.36 1753.64 1452.36 M1749.84 1450.74 Q1747.4 1450.14 1746.02 1448.47 Q1744.67 1446.79 1744.67 1444.38 Q1744.67 1441.02 1747.06 1439.06 Q1749.46 1437.11 1753.64 1437.11 Q1757.83 1437.11 1760.22 1439.06 Q1762.61 1441.02 1762.61 1444.38 Q1762.61 1446.79 1761.24 1448.47 Q1759.88 1450.14 1757.46 1450.74 Q1760.2 1451.38 1761.73 1453.24 Q1763.27 1455.1 1763.27 1457.79 Q1763.27 1461.88 1760.77 1464.06 Q1758.28 1466.24 1753.64 1466.24 Q1748.99 1466.24 1746.49 1464.06 Q1744.01 1461.88 1744.01 1457.79 Q1744.01 1455.1 1745.55 1453.24 Q1747.09 1451.38 1749.84 1450.74 M1748.45 1444.74 Q1748.45 1446.92 1749.8 1448.15 Q1751.18 1449.37 1753.64 1449.37 Q1756.08 1449.37 1757.46 1448.15 Q1758.85 1446.92 1758.85 1444.74 Q1758.85 1442.56 1757.46 1441.34 Q1756.08 1440.11 1753.64 1440.11 Q1751.18 1440.11 1749.8 1441.34 Q1748.45 1442.56 1748.45 1444.74 Z" fill="#000000" fill-rule="evenodd" fill-opacity="1" /><path clip-path="url(#clip700)" d="M 0 0 M2035.85 1489.17 L2043.49 1489.17 L2043.49 1462.8 L2035.18 1464.47 L2035.18 1460.21 L2043.44 1458.54 L2048.12 1458.54 L2048.12 1489.17 L2055.76 1489.17 L2055.76 1493.1 L2035.85 1493.1 L2035.85 1489.17 Z" fill="#000000" fill-rule="evenodd" fill-opacity="1" /><path clip-path="url(#clip700)" d="M 0 0 M2070.83 1461.62 Q2067.22 1461.62 2065.39 1465.19 Q2063.58 1468.73 2063.58 1475.86 Q2063.58 1482.97 2065.39 1486.53 Q2067.22 1490.07 2070.83 1490.07 Q2074.46 1490.07 2076.27 1486.53 Q2078.1 1482.97 2078.1 1475.86 Q2078.1 1468.73 2076.27 1465.19 Q2074.46 1461.62 2070.83 1461.62 M2070.83 1457.92 Q2076.64 1457.92 2079.69 1462.53 Q2082.77 1467.11 2082.77 1475.86 Q2082.77 1484.59 2079.69 1489.19 Q2076.64 1493.78 2070.83 1493.78 Q2065.02 1493.78 2061.94 1489.19 Q2058.88 1484.59 2058.88 1475.86 Q2058.88 1467.11 2061.94 1462.53 Q2065.02 1457.92 2070.83 1457.92 Z" fill="#000000" fill-rule="evenodd" fill-opacity="1" /><path clip-path="url(#clip700)" d="M 0 0 M2082.77 1452.02 L2106.88 1452.02 L2106.88 1455.22 L2082.77 1455.22 L2082.77 1452.02 Z" fill="#000000" fill-rule="evenodd" fill-opacity="1" /><path clip-path="url(#clip700)" d="M 0 0 M2114.28 1462.5 L2127.53 1462.5 L2127.53 1465.69 L2109.71 1465.69 L2109.71 1462.5 Q2111.87 1460.26 2115.59 1456.5 Q2119.33 1452.72 2120.29 1451.63 Q2122.12 1449.58 2122.83 1448.16 Q2123.57 1446.74 2123.57 1445.36 Q2123.57 1443.12 2121.99 1441.71 Q2120.43 1440.3 2117.91 1440.3 Q2116.12 1440.3 2114.12 1440.92 Q2112.15 1441.54 2109.89 1442.8 L2109.89 1438.97 Q2112.19 1438.05 2114.18 1437.58 Q2116.17 1437.11 2117.83 1437.11 Q2122.19 1437.11 2124.79 1439.29 Q2127.38 1441.47 2127.38 1445.12 Q2127.38 1446.85 2126.73 1448.41 Q2126.09 1449.95 2124.38 1452.06 Q2123.9 1452.6 2121.38 1455.22 Q2118.86 1457.81 2114.28 1462.5 Z" fill="#000000" fill-rule="evenodd" fill-opacity="1" /><path clip-path="url(#clip700)" d="M 0 0 M2131.65 1460.92 L2135.62 1460.92 L2135.62 1465.69 L2131.65 1465.69 L2131.65 1460.92 Z" fill="#000000" fill-rule="evenodd" fill-opacity="1" /><path clip-path="url(#clip700)" d="M 0 0 M2148.34 1450.14 Q2145.78 1450.14 2144.27 1451.89 Q2142.79 1453.64 2142.79 1456.68 Q2142.79 1459.71 2144.27 1461.48 Q2145.78 1463.23 2148.34 1463.23 Q2150.89 1463.23 2152.38 1461.48 Q2153.88 1459.71 2153.88 1456.68 Q2153.88 1453.64 2152.38 1451.89 Q2150.89 1450.14 2148.34 1450.14 M2155.88 1438.23 L2155.88 1441.69 Q2154.45 1441.02 2152.98 1440.66 Q2151.53 1440.3 2150.1 1440.3 Q2146.34 1440.3 2144.35 1442.84 Q2142.37 1445.38 2142.09 1450.52 Q2143.2 1448.88 2144.88 1448.01 Q2146.55 1447.13 2148.56 1447.13 Q2152.79 1447.13 2155.24 1449.71 Q2157.7 1452.26 2157.7 1456.68 Q2157.7 1461.01 2155.14 1463.62 Q2152.59 1466.24 2148.34 1466.24 Q2143.47 1466.24 2140.89 1462.51 Q2138.31 1458.77 2138.31 1451.68 Q2138.31 1445.02 2141.47 1441.07 Q2144.63 1437.11 2149.95 1437.11 Q2151.38 1437.11 2152.83 1437.39 Q2154.3 1437.67 2155.88 1438.23 Z" fill="#000000" fill-rule="evenodd" fill-opacity="1" /><path clip-path="url(#clip700)" d="M 0 0 M1200.06 1526.54 L1206.26 1526.54 L1217.4 1556.46 L1228.54 1526.54 L1234.75 1526.54 L1221.38 1562.19 L1213.43 1562.19 L1200.06 1526.54 Z" fill="#000000" fill-rule="evenodd" fill-opacity="1" /><path clip-path="url(#clip700)" d="M 0 0 M1267.98 1573.01 L1267.98 1577.56 L1234.11 1577.56 L1234.11 1573.01 L1267.98 1573.01 Z" fill="#000000" fill-rule="evenodd" fill-opacity="1" /><path clip-path="url(#clip700)" d="M 0 0 M1299.78 1527.91 L1299.78 1533.38 Q1297.29 1532.01 1294.78 1531.34 Q1292.3 1530.64 1289.75 1530.64 Q1284.05 1530.64 1280.9 1534.27 Q1277.75 1537.87 1277.75 1544.39 Q1277.75 1550.92 1280.9 1554.55 Q1284.05 1558.14 1289.75 1558.14 Q1292.3 1558.14 1294.78 1557.47 Q1297.29 1556.77 1299.78 1555.41 L1299.78 1560.82 Q1297.33 1561.96 1294.68 1562.54 Q1292.07 1563.11 1289.11 1563.11 Q1281.06 1563.11 1276.32 1558.05 Q1271.58 1552.99 1271.58 1544.39 Q1271.58 1535.67 1276.35 1530.68 Q1281.16 1525.68 1289.5 1525.68 Q1292.2 1525.68 1294.78 1526.25 Q1297.36 1526.79 1299.78 1527.91 Z" fill="#000000" fill-rule="evenodd" fill-opacity="1" /><path clip-path="url(#clip700)" d="M 0 0 M1305.92 1512.66 L1311.78 1512.66 L1311.78 1562.19 L1305.92 1562.19 L1305.92 1512.66 Z" fill="#000000" fill-rule="evenodd" fill-opacity="1" /><path clip-path="url(#clip700)" d="M 0 0 M1331.73 1530.64 Q1327.02 1530.64 1324.28 1534.34 Q1321.55 1538 1321.55 1544.39 Q1321.55 1550.79 1324.25 1554.48 Q1326.99 1558.14 1331.73 1558.14 Q1336.41 1558.14 1339.15 1554.45 Q1341.89 1550.76 1341.89 1544.39 Q1341.89 1538.06 1339.15 1534.37 Q1336.41 1530.64 1331.73 1530.64 M1331.73 1525.68 Q1339.37 1525.68 1343.73 1530.64 Q1348.09 1535.61 1348.09 1544.39 Q1348.09 1553.15 1343.73 1558.14 Q1339.37 1563.11 1331.73 1563.11 Q1324.06 1563.11 1319.7 1558.14 Q1315.37 1553.15 1315.37 1544.39 Q1315.37 1535.61 1319.7 1530.64 Q1324.06 1525.68 1331.73 1525.68 Z" fill="#000000" fill-rule="evenodd" fill-opacity="1" /><path clip-path="url(#clip700)" d="M 0 0 M1376.96 1527.59 L1376.96 1533.13 Q1374.48 1531.85 1371.8 1531.22 Q1369.13 1530.58 1366.27 1530.58 Q1361.91 1530.58 1359.71 1531.92 Q1357.54 1533.25 1357.54 1535.93 Q1357.54 1537.96 1359.1 1539.14 Q1360.66 1540.29 1365.37 1541.34 L1367.38 1541.78 Q1373.62 1543.12 1376.23 1545.57 Q1378.87 1547.99 1378.87 1552.35 Q1378.87 1557.32 1374.92 1560.21 Q1371.01 1563.11 1364.13 1563.11 Q1361.27 1563.11 1358.15 1562.54 Q1355.06 1561.99 1351.62 1560.88 L1351.62 1554.83 Q1354.87 1556.52 1358.02 1557.38 Q1361.17 1558.21 1364.26 1558.21 Q1368.4 1558.21 1370.63 1556.81 Q1372.85 1555.37 1372.85 1552.8 Q1372.85 1550.41 1371.23 1549.14 Q1369.64 1547.86 1364.2 1546.68 L1362.16 1546.21 Q1356.72 1545.06 1354.3 1542.71 Q1351.88 1540.32 1351.88 1536.18 Q1351.88 1531.15 1355.44 1528.42 Q1359.01 1525.68 1365.57 1525.68 Q1368.81 1525.68 1371.68 1526.16 Q1374.54 1526.63 1376.96 1527.59 Z" fill="#000000" fill-rule="evenodd" fill-opacity="1" /><path clip-path="url(#clip700)" d="M 0 0 M1415.5 1542.9 L1415.5 1545.76 L1388.58 1545.76 Q1388.96 1551.81 1392.21 1554.99 Q1395.48 1558.14 1401.31 1558.14 Q1404.68 1558.14 1407.83 1557.32 Q1411.02 1556.49 1414.14 1554.83 L1414.14 1560.37 Q1410.98 1561.71 1407.67 1562.41 Q1404.36 1563.11 1400.96 1563.11 Q1392.43 1563.11 1387.43 1558.14 Q1382.47 1553.18 1382.47 1544.71 Q1382.47 1535.96 1387.18 1530.83 Q1391.92 1525.68 1399.94 1525.68 Q1407.13 1525.68 1411.3 1530.33 Q1415.5 1534.94 1415.5 1542.9 M1409.65 1541.18 Q1409.58 1536.37 1406.94 1533.51 Q1404.33 1530.64 1400 1530.64 Q1395.1 1530.64 1392.14 1533.41 Q1389.21 1536.18 1388.77 1541.21 L1409.65 1541.18 Z" fill="#000000" fill-rule="evenodd" fill-opacity="1" /><polyline clip-path="url(#clip702)" style="stroke:#000000; stroke-width:2; stroke-opacity:0.1; fill:none" points="
  262.806,1235 2352.76,1235 
  "/>
<polyline clip-path="url(#clip702)" style="stroke:#000000; stroke-width:2; stroke-opacity:0.1; fill:none" points="
  262.806,902.463 2352.76,902.463 
  "/>
<polyline clip-path="url(#clip702)" style="stroke:#000000; stroke-width:2; stroke-opacity:0.1; fill:none" points="
  262.806,569.923 2352.76,569.923 
  "/>
<polyline clip-path="url(#clip702)" style="stroke:#000000; stroke-width:2; stroke-opacity:0.1; fill:none" points="
  262.806,237.383 2352.76,237.383 
  "/>
<polyline clip-path="url(#clip700)" style="stroke:#000000; stroke-width:4; stroke-opacity:1; fill:none" points="
  262.806,1410.9 262.806,47.2441 
  "/>
<polyline clip-path="url(#clip700)" style="stroke:#000000; stroke-width:4; stroke-opacity:1; fill:none" points="
  262.806,1235 287.885,1235 
  "/>
<polyline clip-path="url(#clip700)" style="stroke:#000000; stroke-width:4; stroke-opacity:1; fill:none" points="
  262.806,902.463 287.885,902.463 
  "/>
<polyline clip-path="url(#clip700)" style="stroke:#000000; stroke-width:4; stroke-opacity:1; fill:none" points="
  262.806,569.923 287.885,569.923 
  "/>
<polyline clip-path="url(#clip700)" style="stroke:#000000; stroke-width:4; stroke-opacity:1; fill:none" points="
  262.806,237.383 287.885,237.383 
  "/>
<path clip-path="url(#clip700)" d="M 0 0 M116.066 1248.35 L123.705 1248.35 L123.705 1221.98 L115.394 1223.65 L115.394 1219.39 L123.658 1217.72 L128.334 1217.72 L128.334 1248.35 L135.973 1248.35 L135.973 1252.28 L116.066 1252.28 L116.066 1248.35 Z" fill="#000000" fill-rule="evenodd" fill-opacity="1" /><path clip-path="url(#clip700)" d="M 0 0 M153.89 1221.8 L142.084 1240.25 L153.89 1240.25 L153.89 1221.8 M152.663 1217.72 L158.542 1217.72 L158.542 1240.25 L163.473 1240.25 L163.473 1244.14 L158.542 1244.14 L158.542 1252.28 L153.89 1252.28 L153.89 1244.14 L138.288 1244.14 L138.288 1239.62 L152.663 1217.72 Z" fill="#000000" fill-rule="evenodd" fill-opacity="1" /><path clip-path="url(#clip700)" d="M 0 0 M168.542 1246.4 L173.427 1246.4 L173.427 1252.28 L168.542 1252.28 L168.542 1246.4 Z" fill="#000000" fill-rule="evenodd" fill-opacity="1" /><path clip-path="url(#clip700)" d="M 0 0 M192.663 1233.65 Q196.019 1234.37 197.894 1236.64 Q199.792 1238.9 199.792 1242.24 Q199.792 1247.35 196.274 1250.15 Q192.755 1252.95 186.274 1252.95 Q184.098 1252.95 181.783 1252.52 Q179.491 1252.1 177.038 1251.24 L177.038 1246.73 Q178.982 1247.86 181.297 1248.44 Q183.612 1249.02 186.135 1249.02 Q190.533 1249.02 192.825 1247.28 Q195.139 1245.55 195.139 1242.24 Q195.139 1239.18 192.987 1237.47 Q190.857 1235.73 187.038 1235.73 L183.01 1235.73 L183.01 1231.89 L187.223 1231.89 Q190.672 1231.89 192.5 1230.52 Q194.329 1229.14 194.329 1226.54 Q194.329 1223.88 192.431 1222.47 Q190.556 1221.03 187.038 1221.03 Q185.116 1221.03 182.917 1221.45 Q180.718 1221.87 178.079 1222.75 L178.079 1218.58 Q180.741 1217.84 183.056 1217.47 Q185.394 1217.1 187.454 1217.1 Q192.778 1217.1 195.88 1219.53 Q198.982 1221.94 198.982 1226.06 Q198.982 1228.93 197.338 1230.92 Q195.695 1232.89 192.663 1233.65 Z" fill="#000000" fill-rule="evenodd" fill-opacity="1" /><path clip-path="url(#clip700)" d="M 0 0 M214.861 1220.8 Q211.25 1220.8 209.422 1224.37 Q207.616 1227.91 207.616 1235.04 Q207.616 1242.14 209.422 1245.71 Q211.25 1249.25 214.861 1249.25 Q218.496 1249.25 220.301 1245.71 Q222.13 1242.14 222.13 1235.04 Q222.13 1227.91 220.301 1224.37 Q218.496 1220.8 214.861 1220.8 M214.861 1217.1 Q220.672 1217.1 223.727 1221.7 Q226.806 1226.29 226.806 1235.04 Q226.806 1243.77 223.727 1248.37 Q220.672 1252.95 214.861 1252.95 Q209.051 1252.95 205.973 1248.37 Q202.917 1243.77 202.917 1235.04 Q202.917 1226.29 205.973 1221.7 Q209.051 1217.1 214.861 1217.1 Z" fill="#000000" fill-rule="evenodd" fill-opacity="1" /><path clip-path="url(#clip700)" d="M 0 0 M117.061 915.808 L124.7 915.808 L124.7 889.443 L116.39 891.109 L116.39 886.85 L124.654 885.183 L129.33 885.183 L129.33 915.808 L136.968 915.808 L136.968 919.743 L117.061 919.743 L117.061 915.808 Z" fill="#000000" fill-rule="evenodd" fill-opacity="1" /><path clip-path="url(#clip700)" d="M 0 0 M154.885 889.257 L143.079 907.706 L154.885 907.706 L154.885 889.257 M153.658 885.183 L159.538 885.183 L159.538 907.706 L164.468 907.706 L164.468 911.595 L159.538 911.595 L159.538 919.743 L154.885 919.743 L154.885 911.595 L139.283 911.595 L139.283 907.081 L153.658 885.183 Z" fill="#000000" fill-rule="evenodd" fill-opacity="1" /><path clip-path="url(#clip700)" d="M 0 0 M169.538 913.864 L174.422 913.864 L174.422 919.743 L169.538 919.743 L169.538 913.864 Z" fill="#000000" fill-rule="evenodd" fill-opacity="1" /><path clip-path="url(#clip700)" d="M 0 0 M193.658 901.109 Q197.014 901.827 198.889 904.095 Q200.787 906.364 200.787 909.697 Q200.787 914.813 197.269 917.614 Q193.75 920.415 187.269 920.415 Q185.093 920.415 182.778 919.975 Q180.487 919.558 178.033 918.702 L178.033 914.188 Q179.977 915.322 182.292 915.901 Q184.607 916.479 187.13 916.479 Q191.528 916.479 193.82 914.743 Q196.135 913.007 196.135 909.697 Q196.135 906.642 193.982 904.929 Q191.852 903.192 188.033 903.192 L184.005 903.192 L184.005 899.35 L188.218 899.35 Q191.667 899.35 193.496 897.984 Q195.325 896.595 195.325 894.003 Q195.325 891.341 193.426 889.929 Q191.551 888.493 188.033 888.493 Q186.112 888.493 183.913 888.91 Q181.713 889.327 179.075 890.206 L179.075 886.04 Q181.737 885.299 184.051 884.929 Q186.389 884.558 188.45 884.558 Q193.774 884.558 196.875 886.989 Q199.977 889.396 199.977 893.517 Q199.977 896.387 198.334 898.378 Q196.69 900.345 193.658 901.109 Z" fill="#000000" fill-rule="evenodd" fill-opacity="1" /><path clip-path="url(#clip700)" d="M 0 0 M205.903 885.183 L224.26 885.183 L224.26 889.118 L210.186 889.118 L210.186 897.591 Q211.204 897.243 212.223 897.081 Q213.241 896.896 214.26 896.896 Q220.047 896.896 223.426 900.068 Q226.806 903.239 226.806 908.655 Q226.806 914.234 223.334 917.336 Q219.861 920.415 213.542 920.415 Q211.366 920.415 209.098 920.044 Q206.852 919.674 204.445 918.933 L204.445 914.234 Q206.528 915.368 208.75 915.924 Q210.973 916.479 213.449 916.479 Q217.454 916.479 219.792 914.373 Q222.13 912.267 222.13 908.655 Q222.13 905.044 219.792 902.938 Q217.454 900.831 213.449 900.831 Q211.574 900.831 209.699 901.248 Q207.848 901.665 205.903 902.544 L205.903 885.183 Z" fill="#000000" fill-rule="evenodd" fill-opacity="1" /><path clip-path="url(#clip700)" d="M 0 0 M114.931 583.268 L122.57 583.268 L122.57 556.902 L114.26 558.569 L114.26 554.31 L122.524 552.643 L127.2 552.643 L127.2 583.268 L134.839 583.268 L134.839 587.203 L114.931 587.203 L114.931 583.268 Z" fill="#000000" fill-rule="evenodd" fill-opacity="1" /><path clip-path="url(#clip700)" d="M 0 0 M152.755 556.717 L140.95 575.166 L152.755 575.166 L152.755 556.717 M151.528 552.643 L157.408 552.643 L157.408 575.166 L162.339 575.166 L162.339 579.055 L157.408 579.055 L157.408 587.203 L152.755 587.203 L152.755 579.055 L137.154 579.055 L137.154 574.541 L151.528 552.643 Z" fill="#000000" fill-rule="evenodd" fill-opacity="1" /><path clip-path="url(#clip700)" d="M 0 0 M167.408 581.324 L172.292 581.324 L172.292 587.203 L167.408 587.203 L167.408 581.324 Z" fill="#000000" fill-rule="evenodd" fill-opacity="1" /><path clip-path="url(#clip700)" d="M 0 0 M190.209 556.717 L178.403 575.166 L190.209 575.166 L190.209 556.717 M188.982 552.643 L194.862 552.643 L194.862 575.166 L199.792 575.166 L199.792 579.055 L194.862 579.055 L194.862 587.203 L190.209 587.203 L190.209 579.055 L174.607 579.055 L174.607 574.541 L188.982 552.643 Z" fill="#000000" fill-rule="evenodd" fill-opacity="1" /><path clip-path="url(#clip700)" d="M 0 0 M214.861 555.722 Q211.25 555.722 209.422 559.287 Q207.616 562.828 207.616 569.958 Q207.616 577.064 209.422 580.629 Q211.25 584.171 214.861 584.171 Q218.496 584.171 220.301 580.629 Q222.13 577.064 222.13 569.958 Q222.13 562.828 220.301 559.287 Q218.496 555.722 214.861 555.722 M214.861 552.018 Q220.672 552.018 223.727 556.625 Q226.806 561.208 226.806 569.958 Q226.806 578.685 223.727 583.291 Q220.672 587.874 214.861 587.874 Q209.051 587.874 205.973 583.291 Q202.917 578.685 202.917 569.958 Q202.917 561.208 205.973 556.625 Q209.051 552.018 214.861 552.018 Z" fill="#000000" fill-rule="evenodd" fill-opacity="1" /><path clip-path="url(#clip700)" d="M 0 0 M115.927 250.728 L123.566 250.728 L123.566 224.362 L115.256 226.029 L115.256 221.77 L123.519 220.103 L128.195 220.103 L128.195 250.728 L135.834 250.728 L135.834 254.663 L115.927 254.663 L115.927 250.728 Z" fill="#000000" fill-rule="evenodd" fill-opacity="1" /><path clip-path="url(#clip700)" d="M 0 0 M153.751 224.177 L141.945 242.626 L153.751 242.626 L153.751 224.177 M152.524 220.103 L158.403 220.103 L158.403 242.626 L163.334 242.626 L163.334 246.515 L158.403 246.515 L158.403 254.663 L153.751 254.663 L153.751 246.515 L138.149 246.515 L138.149 242.001 L152.524 220.103 Z" fill="#000000" fill-rule="evenodd" fill-opacity="1" /><path clip-path="url(#clip700)" d="M 0 0 M168.403 248.783 L173.288 248.783 L173.288 254.663 L168.403 254.663 L168.403 248.783 Z" fill="#000000" fill-rule="evenodd" fill-opacity="1" /><path clip-path="url(#clip700)" d="M 0 0 M191.204 224.177 L179.399 242.626 L191.204 242.626 L191.204 224.177 M189.977 220.103 L195.857 220.103 L195.857 242.626 L200.787 242.626 L200.787 246.515 L195.857 246.515 L195.857 254.663 L191.204 254.663 L191.204 246.515 L175.602 246.515 L175.602 242.001 L189.977 220.103 Z" fill="#000000" fill-rule="evenodd" fill-opacity="1" /><path clip-path="url(#clip700)" d="M 0 0 M205.903 220.103 L224.26 220.103 L224.26 224.038 L210.186 224.038 L210.186 232.51 Q211.204 232.163 212.223 232.001 Q213.241 231.816 214.26 231.816 Q220.047 231.816 223.426 234.987 Q226.806 238.158 226.806 243.575 Q226.806 249.154 223.334 252.256 Q219.861 255.334 213.542 255.334 Q211.366 255.334 209.098 254.964 Q206.852 254.593 204.445 253.853 L204.445 249.154 Q206.528 250.288 208.75 250.843 Q210.973 251.399 213.449 251.399 Q217.454 251.399 219.792 249.293 Q222.13 247.186 222.13 243.575 Q222.13 239.964 219.792 237.857 Q217.454 235.751 213.449 235.751 Q211.574 235.751 209.699 236.168 Q207.848 236.584 205.903 237.464 L205.903 220.103 Z" fill="#000000" fill-rule="evenodd" fill-opacity="1" /><path clip-path="url(#clip700)" d="M 0 0 M59.1993 815.533 Q55.2526 813.336 53.3747 810.281 Q51.4968 807.225 51.4968 803.088 Q51.4968 797.518 55.4117 794.494 Q59.2948 791.47 66.4881 791.47 L88.0042 791.47 L88.0042 797.358 L66.679 797.358 Q61.5546 797.358 59.072 799.173 Q56.5894 800.987 56.5894 804.711 Q56.5894 809.262 59.6131 811.904 Q62.6368 814.546 67.8567 814.546 L88.0042 814.546 L88.0042 820.434 L66.679 820.434 Q61.5228 820.434 59.072 822.248 Q56.5894 824.063 56.5894 827.85 Q56.5894 832.338 59.6449 834.98 Q62.6686 837.622 67.8567 837.622 L88.0042 837.622 L88.0042 843.51 L52.3562 843.51 L52.3562 837.622 L57.8944 837.622 Q54.616 835.616 53.0564 832.815 Q51.4968 830.015 51.4968 826.163 Q51.4968 822.28 53.4702 819.575 Q55.4436 816.838 59.1993 815.533 Z" fill="#000000" fill-rule="evenodd" fill-opacity="1" /><path clip-path="url(#clip700)" d="M 0 0 M52.3562 785.327 L52.3562 779.471 L88.0042 779.471 L88.0042 785.327 L52.3562 785.327 M38.479 785.327 L38.479 779.471 L45.895 779.471 L45.895 785.327 L38.479 785.327 Z" fill="#000000" fill-rule="evenodd" fill-opacity="1" /><path clip-path="url(#clip700)" d="M 0 0 M66.4881 743.696 L88.0042 743.696 L88.0042 749.552 L66.679 749.552 Q61.6183 749.552 59.1038 751.525 Q56.5894 753.499 56.5894 757.446 Q56.5894 762.188 59.6131 764.925 Q62.6368 767.662 67.8567 767.662 L88.0042 767.662 L88.0042 773.551 L52.3562 773.551 L52.3562 767.662 L57.8944 767.662 Q54.6797 765.562 53.0883 762.729 Q51.4968 759.864 51.4968 756.141 Q51.4968 749.998 55.3163 746.847 Q59.1038 743.696 66.4881 743.696 Z" fill="#000000" fill-rule="evenodd" fill-opacity="1" /><path clip-path="url(#clip700)" d="M 0 0 M98.8259 710.467 L103.377 710.467 L103.377 744.332 L98.8259 744.332 L98.8259 710.467 Z" fill="#000000" fill-rule="evenodd" fill-opacity="1" /><path clip-path="url(#clip700)" d="M 0 0 M57.7671 680.866 L38.479 680.866 L38.479 675.01 L88.0042 675.01 L88.0042 680.866 L82.657 680.866 Q85.8398 682.712 87.3994 685.545 Q88.9272 688.346 88.9272 692.292 Q88.9272 698.754 83.771 702.828 Q78.6147 706.87 70.212 706.87 Q61.8093 706.87 56.6531 702.828 Q51.4968 698.754 51.4968 692.292 Q51.4968 688.346 53.0564 685.545 Q54.5842 682.712 57.7671 680.866 M70.212 700.823 Q76.6732 700.823 80.3653 698.181 Q84.0256 695.507 84.0256 690.86 Q84.0256 686.213 80.3653 683.54 Q76.6732 680.866 70.212 680.866 Q63.7508 680.866 60.0905 683.54 Q56.3984 686.213 56.3984 690.86 Q56.3984 695.507 60.0905 698.181 Q63.7508 700.823 70.212 700.823 Z" fill="#000000" fill-rule="evenodd" fill-opacity="1" /><path clip-path="url(#clip700)" d="M 0 0 M52.3562 668.867 L52.3562 663.01 L88.0042 663.01 L88.0042 668.867 L52.3562 668.867 M38.479 668.867 L38.479 663.01 L45.895 663.01 L45.895 668.867 L38.479 668.867 Z" fill="#000000" fill-rule="evenodd" fill-opacity="1" /><path clip-path="url(#clip700)" d="M 0 0 M38.479 638.821 L43.3487 638.821 L43.3487 644.422 Q43.3487 647.573 44.6219 648.815 Q45.895 650.024 49.2052 650.024 L52.3562 650.024 L52.3562 640.38 L56.9077 640.38 L56.9077 650.024 L88.0042 650.024 L88.0042 655.912 L56.9077 655.912 L56.9077 661.514 L52.3562 661.514 L52.3562 655.912 L49.8736 655.912 Q43.9216 655.912 41.2162 653.143 Q38.479 650.374 38.479 644.359 L38.479 638.821 Z" fill="#000000" fill-rule="evenodd" fill-opacity="1" /><path clip-path="url(#clip700)" d="M 0 0 M38.479 614.631 L43.3487 614.631 L43.3487 620.233 Q43.3487 623.384 44.6219 624.625 Q45.895 625.835 49.2052 625.835 L52.3562 625.835 L52.3562 616.19 L56.9077 616.19 L56.9077 625.835 L88.0042 625.835 L88.0042 631.723 L56.9077 631.723 L56.9077 637.325 L52.3562 637.325 L52.3562 631.723 L49.8736 631.723 Q43.9216 631.723 41.2162 628.954 Q38.479 626.185 38.479 620.169 L38.479 614.631 Z" fill="#000000" fill-rule="evenodd" fill-opacity="1" /><polyline clip-path="url(#clip702)" style="stroke:#009af9; stroke-width:20; stroke-opacity:1; fill:none" stroke-dasharray="80, 50" points="
  321.955,85.838 1307.78,1372.3 2293.61,1176.77 
  "/>
<path clip-path="url(#clip700)" d="
M1999.86 213.659 L2283.09 213.659 L2283.09 92.6992 L1999.86 92.6992  Z
  " fill="#ffffff" fill-rule="evenodd" fill-opacity="1"/>
<polyline clip-path="url(#clip700)" style="stroke:#000000; stroke-width:4; stroke-opacity:1; fill:none" points="
  1999.86,213.659 2283.09,213.659 2283.09,92.6992 1999.86,92.6992 1999.86,213.659 
  "/>
<polyline clip-path="url(#clip700)" style="stroke:#009af9; stroke-width:4; stroke-opacity:1; fill:none" stroke-dasharray="16, 10" points="
  2023.08,153.179 2162.41,153.179 
  "/>
<path clip-path="url(#clip700)" d="M 0 0 M2199.47 172.867 Q2197.67 177.496 2195.95 178.908 Q2194.24 180.32 2191.37 180.32 L2187.97 180.32 L2187.97 176.755 L2190.47 176.755 Q2192.23 176.755 2193.2 175.922 Q2194.17 175.089 2195.35 171.987 L2196.12 170.043 L2185.63 144.533 L2190.14 144.533 L2198.24 164.811 L2206.35 144.533 L2210.86 144.533 L2199.47 172.867 Z" fill="#000000" fill-rule="evenodd" fill-opacity="1" /><path clip-path="url(#clip700)" d="M 0 0 M2216.74 166.524 L2224.38 166.524 L2224.38 140.158 L2216.07 141.825 L2216.07 137.566 L2224.33 135.899 L2229.01 135.899 L2229.01 166.524 L2236.65 166.524 L2236.65 170.459 L2216.74 170.459 L2216.74 166.524 Z" fill="#000000" fill-rule="evenodd" fill-opacity="1" /></svg>
