<?xml version="1.0" encoding="utf-8"?>
<svg xmlns="http://www.w3.org/2000/svg" xmlns:xlink="http://www.w3.org/1999/xlink" width="600" height="400" viewBox="0 0 2400 1600">
<defs>
  <clipPath id="clip540">
    <rect x="0" y="0" width="2400" height="1600"/>
  </clipPath>
</defs>
<path clip-path="url(#clip540)" d="
M0 1600 L2400 1600 L2400 0 L0 0  Z
  " fill="#ffffff" fill-rule="evenodd" fill-opacity="1"/>
<defs>
  <clipPath id="clip541">
    <rect x="480" y="0" width="1681" height="1600"/>
  </clipPath>
</defs>
<path clip-path="url(#clip540)" d="
M210.931 1410.9 L2352.76 1410.9 L2352.76 47.2441 L210.931 47.2441  Z
  " fill="#ffffff" fill-rule="evenodd" fill-opacity="1"/>
<defs>
  <clipPath id="clip542">
    <rect x="210" y="47" width="2143" height="1365"/>
  </clipPath>
</defs>
<polyline clip-path="url(#clip542)" style="stroke:#000000; stroke-width:2; stroke-opacity:0.1; fill:none" points="
  271.549,1410.9 271.549,47.2441 
  "/>
<polyline clip-path="url(#clip542)" style="stroke:#000000; stroke-width:2; stroke-opacity:0.1; fill:none" points="
  630.815,1410.9 630.815,47.2441 
  "/>
<polyline clip-path="url(#clip542)" style="stroke:#000000; stroke-width:2; stroke-opacity:0.1; fill:none" points="
  990.082,1410.9 990.082,47.2441 
  "/>
<polyline clip-path="url(#clip542)" style="stroke:#000000; stroke-width:2; stroke-opacity:0.1; fill:none" points="
  1349.35,1410.9 1349.35,47.2441 
  "/>
<polyline clip-path="url(#clip542)" style="stroke:#000000; stroke-width:2; stroke-opacity:0.1; fill:none" points="
  1708.61,1410.9 1708.61,47.2441 
  "/>
<polyline clip-path="url(#clip542)" style="stroke:#000000; stroke-width:2; stroke-opacity:0.1; fill:none" points="
  2067.88,1410.9 2067.88,47.2441 
  "/>
<polyline clip-path="url(#clip540)" style="stroke:#000000; stroke-width:4; stroke-opacity:1; fill:none" points="
  210.931,1410.9 2352.76,1410.9 
  "/>
<polyline clip-path="url(#clip540)" style="stroke:#000000; stroke-width:4; stroke-opacity:1; fill:none" points="
  271.549,1410.9 271.549,1394.53 
  "/>
<polyline clip-path="url(#clip540)" style="stroke:#000000; stroke-width:4; stroke-opacity:1; fill:none" points="
  630.815,1410.9 630.815,1394.53 
  "/>
<polyline clip-path="url(#clip540)" style="stroke:#000000; stroke-width:4; stroke-opacity:1; fill:none" points="
  990.082,1410.9 990.082,1394.53 
  "/>
<polyline clip-path="url(#clip540)" style="stroke:#000000; stroke-width:4; stroke-opacity:1; fill:none" points="
  1349.35,1410.9 1349.35,1394.53 
  "/>
<polyline clip-path="url(#clip540)" style="stroke:#000000; stroke-width:4; stroke-opacity:1; fill:none" points="
  1708.61,1410.9 1708.61,1394.53 
  "/>
<polyline clip-path="url(#clip540)" style="stroke:#000000; stroke-width:4; stroke-opacity:1; fill:none" points="
  2067.88,1410.9 2067.88,1394.53 
  "/>
<path clip-path="url(#clip540)" d="M 0 0 M212.727 1489.17 L220.366 1489.17 L220.366 1462.8 L212.055 1464.47 L212.055 1460.21 L220.319 1458.54 L224.995 1458.54 L224.995 1489.17 L232.634 1489.17 L232.634 1493.1 L212.727 1493.1 L212.727 1489.17 Z" fill="#000000" fill-rule="evenodd" fill-opacity="1" /><path clip-path="url(#clip540)" d="M 0 0 M247.703 1461.62 Q244.092 1461.62 242.264 1465.19 Q240.458 1468.73 240.458 1475.86 Q240.458 1482.97 242.264 1486.53 Q244.092 1490.07 247.703 1490.07 Q251.338 1490.07 253.143 1486.53 Q254.972 1482.97 254.972 1475.86 Q254.972 1468.73 253.143 1465.19 Q251.338 1461.62 247.703 1461.62 M247.703 1457.92 Q253.514 1457.92 256.569 1462.53 Q259.648 1467.11 259.648 1475.86 Q259.648 1484.59 256.569 1489.19 Q253.514 1493.78 247.703 1493.78 Q241.893 1493.78 238.815 1489.19 Q235.759 1484.59 235.759 1475.86 Q235.759 1467.11 238.815 1462.53 Q241.893 1457.92 247.703 1457.92 Z" fill="#000000" fill-rule="evenodd" fill-opacity="1" /><path clip-path="url(#clip540)" d="M 0 0 M269.353 1440.11 Q266.419 1440.11 264.933 1443.01 Q263.466 1445.89 263.466 1451.68 Q263.466 1457.46 264.933 1460.35 Q266.419 1463.23 269.353 1463.23 Q272.305 1463.23 273.772 1460.35 Q275.258 1457.46 275.258 1451.68 Q275.258 1445.89 273.772 1443.01 Q272.305 1440.11 269.353 1440.11 M269.353 1437.11 Q274.073 1437.11 276.556 1440.85 Q279.057 1444.57 279.057 1451.68 Q279.057 1458.77 276.556 1462.51 Q274.073 1466.24 269.353 1466.24 Q264.632 1466.24 262.13 1462.51 Q259.648 1458.77 259.648 1451.68 Q259.648 1444.57 262.13 1440.85 Q264.632 1437.11 269.353 1437.11 Z" fill="#000000" fill-rule="evenodd" fill-opacity="1" /><path clip-path="url(#clip540)" d="M 0 0 M283.176 1460.92 L287.145 1460.92 L287.145 1465.69 L283.176 1465.69 L283.176 1460.92 Z" fill="#000000" fill-rule="evenodd" fill-opacity="1" /><path clip-path="url(#clip540)" d="M 0 0 M299.389 1440.11 Q296.455 1440.11 294.969 1443.01 Q293.502 1445.89 293.502 1451.68 Q293.502 1457.46 294.969 1460.35 Q296.455 1463.23 299.389 1463.23 Q302.341 1463.23 303.808 1460.35 Q305.294 1457.46 305.294 1451.68 Q305.294 1445.89 303.808 1443.01 Q302.341 1440.11 299.389 1440.11 M299.389 1437.11 Q304.109 1437.11 306.592 1440.85 Q309.093 1444.57 309.093 1451.68 Q309.093 1458.77 306.592 1462.51 Q304.109 1466.24 299.389 1466.24 Q294.668 1466.24 292.166 1462.51 Q289.684 1458.77 289.684 1451.68 Q289.684 1444.57 292.166 1440.85 Q294.668 1437.11 299.389 1437.11 Z" fill="#000000" fill-rule="evenodd" fill-opacity="1" /><path clip-path="url(#clip540)" d="M 0 0 M321.337 1440.11 Q318.403 1440.11 316.917 1443.01 Q315.45 1445.89 315.45 1451.68 Q315.45 1457.46 316.917 1460.35 Q318.403 1463.23 321.337 1463.23 Q324.29 1463.23 325.757 1460.35 Q327.243 1457.46 327.243 1451.68 Q327.243 1445.89 325.757 1443.01 Q324.29 1440.11 321.337 1440.11 M321.337 1437.11 Q326.058 1437.11 328.541 1440.85 Q331.042 1444.57 331.042 1451.68 Q331.042 1458.77 328.541 1462.51 Q326.058 1466.24 321.337 1466.24 Q316.617 1466.24 314.115 1462.51 Q311.633 1458.77 311.633 1451.68 Q311.633 1444.57 314.115 1440.85 Q316.617 1437.11 321.337 1437.11 Z" fill="#000000" fill-rule="evenodd" fill-opacity="1" /><path clip-path="url(#clip540)" d="M 0 0 M573.047 1489.17 L580.685 1489.17 L580.685 1462.8 L572.375 1464.47 L572.375 1460.21 L580.639 1458.54 L585.315 1458.54 L585.315 1489.17 L592.954 1489.17 L592.954 1493.1 L573.047 1493.1 L573.047 1489.17 Z" fill="#000000" fill-rule="evenodd" fill-opacity="1" /><path clip-path="url(#clip540)" d="M 0 0 M608.023 1461.62 Q604.412 1461.62 602.583 1465.19 Q600.778 1468.73 600.778 1475.86 Q600.778 1482.97 602.583 1486.53 Q604.412 1490.07 608.023 1490.07 Q611.657 1490.07 613.463 1486.53 Q615.292 1482.97 615.292 1475.86 Q615.292 1468.73 613.463 1465.19 Q611.657 1461.62 608.023 1461.62 M608.023 1457.92 Q613.833 1457.92 616.889 1462.53 Q619.968 1467.11 619.968 1475.86 Q619.968 1484.59 616.889 1489.19 Q613.833 1493.78 608.023 1493.78 Q602.213 1493.78 599.134 1489.19 Q596.079 1484.59 596.079 1475.86 Q596.079 1467.11 599.134 1462.53 Q602.213 1457.92 608.023 1457.92 Z" fill="#000000" fill-rule="evenodd" fill-opacity="1" /><path clip-path="url(#clip540)" d="M 0 0 M629.672 1440.11 Q626.738 1440.11 625.253 1443.01 Q623.786 1445.89 623.786 1451.68 Q623.786 1457.46 625.253 1460.35 Q626.738 1463.23 629.672 1463.23 Q632.625 1463.23 634.092 1460.35 Q635.578 1457.46 635.578 1451.68 Q635.578 1445.89 634.092 1443.01 Q632.625 1440.11 629.672 1440.11 M629.672 1437.11 Q634.393 1437.11 636.876 1440.85 Q639.377 1444.57 639.377 1451.68 Q639.377 1458.77 636.876 1462.51 Q634.393 1466.24 629.672 1466.24 Q624.952 1466.24 622.45 1462.51 Q619.968 1458.77 619.968 1451.68 Q619.968 1444.57 622.45 1440.85 Q624.952 1437.11 629.672 1437.11 Z" fill="#000000" fill-rule="evenodd" fill-opacity="1" /><path clip-path="url(#clip540)" d="M 0 0 M643.496 1460.92 L647.465 1460.92 L647.465 1465.69 L643.496 1465.69 L643.496 1460.92 Z" fill="#000000" fill-rule="evenodd" fill-opacity="1" /><path clip-path="url(#clip540)" d="M 0 0 M654.856 1462.5 L668.116 1462.5 L668.116 1465.69 L650.286 1465.69 L650.286 1462.5 Q652.449 1460.26 656.173 1456.5 Q659.915 1452.72 660.875 1451.63 Q662.699 1449.58 663.414 1448.16 Q664.147 1446.74 664.147 1445.36 Q664.147 1443.12 662.567 1441.71 Q661.006 1440.3 658.486 1440.3 Q656.699 1440.3 654.706 1440.92 Q652.731 1441.54 650.474 1442.8 L650.474 1438.97 Q652.768 1438.05 654.762 1437.58 Q656.756 1437.11 658.411 1437.11 Q662.774 1437.11 665.37 1439.29 Q667.965 1441.47 667.965 1445.12 Q667.965 1446.85 667.307 1448.41 Q666.667 1449.95 664.956 1452.06 Q664.486 1452.6 661.965 1455.22 Q659.445 1457.81 654.856 1462.5 Z" fill="#000000" fill-rule="evenodd" fill-opacity="1" /><path clip-path="url(#clip540)" d="M 0 0 M672.272 1437.61 L687.187 1437.61 L687.187 1440.81 L675.751 1440.81 L675.751 1447.69 Q676.579 1447.41 677.407 1447.28 Q678.234 1447.13 679.062 1447.13 Q683.764 1447.13 686.51 1449.71 Q689.255 1452.28 689.255 1456.68 Q689.255 1461.22 686.434 1463.74 Q683.613 1466.24 678.479 1466.24 Q676.711 1466.24 674.867 1465.94 Q673.043 1465.64 671.087 1465.04 L671.087 1461.22 Q672.78 1462.14 674.585 1462.59 Q676.391 1463.04 678.403 1463.04 Q681.657 1463.04 683.557 1461.33 Q685.456 1459.62 685.456 1456.68 Q685.456 1453.75 683.557 1452.04 Q681.657 1450.33 678.403 1450.33 Q676.88 1450.33 675.356 1450.67 Q673.852 1451 672.272 1451.72 L672.272 1437.61 Z" fill="#000000" fill-rule="evenodd" fill-opacity="1" /><path clip-path="url(#clip540)" d="M 0 0 M931.664 1489.17 L939.303 1489.17 L939.303 1462.8 L930.993 1464.47 L930.993 1460.21 L939.257 1458.54 L943.933 1458.54 L943.933 1489.17 L951.572 1489.17 L951.572 1493.1 L931.664 1493.1 L931.664 1489.17 Z" fill="#000000" fill-rule="evenodd" fill-opacity="1" /><path clip-path="url(#clip540)" d="M 0 0 M966.641 1461.62 Q963.03 1461.62 961.201 1465.19 Q959.396 1468.73 959.396 1475.86 Q959.396 1482.97 961.201 1486.53 Q963.03 1490.07 966.641 1490.07 Q970.275 1490.07 972.081 1486.53 Q973.909 1482.97 973.909 1475.86 Q973.909 1468.73 972.081 1465.19 Q970.275 1461.62 966.641 1461.62 M966.641 1457.92 Q972.451 1457.92 975.507 1462.53 Q978.585 1467.11 978.585 1475.86 Q978.585 1484.59 975.507 1489.19 Q972.451 1493.78 966.641 1493.78 Q960.831 1493.78 957.752 1489.19 Q954.697 1484.59 954.697 1475.86 Q954.697 1467.11 957.752 1462.53 Q960.831 1457.92 966.641 1457.92 Z" fill="#000000" fill-rule="evenodd" fill-opacity="1" /><path clip-path="url(#clip540)" d="M 0 0 M988.29 1440.11 Q985.356 1440.11 983.87 1443.01 Q982.403 1445.89 982.403 1451.68 Q982.403 1457.46 983.87 1460.35 Q985.356 1463.23 988.29 1463.23 Q991.243 1463.23 992.71 1460.35 Q994.196 1457.46 994.196 1451.68 Q994.196 1445.89 992.71 1443.01 Q991.243 1440.11 988.29 1440.11 M988.29 1437.11 Q993.011 1437.11 995.493 1440.85 Q997.995 1444.57 997.995 1451.68 Q997.995 1458.77 995.493 1462.51 Q993.011 1466.24 988.29 1466.24 Q983.569 1466.24 981.068 1462.51 Q978.585 1458.77 978.585 1451.68 Q978.585 1444.57 981.068 1440.85 Q983.569 1437.11 988.29 1437.11 Z" fill="#000000" fill-rule="evenodd" fill-opacity="1" /><path clip-path="url(#clip540)" d="M 0 0 M1002.11 1460.92 L1006.08 1460.92 L1006.08 1465.69 L1002.11 1465.69 L1002.11 1460.92 Z" fill="#000000" fill-rule="evenodd" fill-opacity="1" /><path clip-path="url(#clip540)" d="M 0 0 M1010.24 1437.61 L1025.15 1437.61 L1025.15 1440.81 L1013.72 1440.81 L1013.72 1447.69 Q1014.55 1447.41 1015.37 1447.28 Q1016.2 1447.13 1017.03 1447.13 Q1021.73 1447.13 1024.48 1449.71 Q1027.22 1452.28 1027.22 1456.68 Q1027.22 1461.22 1024.4 1463.74 Q1021.58 1466.24 1016.45 1466.24 Q1014.68 1466.24 1012.83 1465.94 Q1011.01 1465.64 1009.05 1465.04 L1009.05 1461.22 Q1010.75 1462.14 1012.55 1462.59 Q1014.36 1463.04 1016.37 1463.04 Q1019.62 1463.04 1021.52 1461.33 Q1023.42 1459.62 1023.42 1456.68 Q1023.42 1453.75 1021.52 1452.04 Q1019.62 1450.33 1016.37 1450.33 Q1014.85 1450.33 1013.32 1450.67 Q1011.82 1451 1010.24 1451.72 L1010.24 1437.61 Z" fill="#000000" fill-rule="evenodd" fill-opacity="1" /><path clip-path="url(#clip540)" d="M 0 0 M1039.47 1440.11 Q1036.53 1440.11 1035.05 1443.01 Q1033.58 1445.89 1033.58 1451.68 Q1033.58 1457.46 1035.05 1460.35 Q1036.53 1463.23 1039.47 1463.23 Q1042.42 1463.23 1043.89 1460.35 Q1045.37 1457.46 1045.37 1451.68 Q1045.37 1445.89 1043.89 1443.01 Q1042.42 1440.11 1039.47 1440.11 M1039.47 1437.11 Q1044.19 1437.11 1046.67 1440.85 Q1049.17 1444.57 1049.17 1451.68 Q1049.17 1458.77 1046.67 1462.51 Q1044.19 1466.24 1039.47 1466.24 Q1034.75 1466.24 1032.24 1462.51 Q1029.76 1458.77 1029.76 1451.68 Q1029.76 1444.57 1032.24 1440.85 Q1034.75 1437.11 1039.47 1437.11 Z" fill="#000000" fill-rule="evenodd" fill-opacity="1" /><path clip-path="url(#clip540)" d="M 0 0 M1291.3 1489.17 L1298.94 1489.17 L1298.94 1462.8 L1290.63 1464.47 L1290.63 1460.21 L1298.89 1458.54 L1303.57 1458.54 L1303.57 1489.17 L1311.2 1489.17 L1311.2 1493.1 L1291.3 1493.1 L1291.3 1489.17 Z" fill="#000000" fill-rule="evenodd" fill-opacity="1" /><path clip-path="url(#clip540)" d="M 0 0 M1326.27 1461.62 Q1322.66 1461.62 1320.83 1465.19 Q1319.03 1468.73 1319.03 1475.86 Q1319.03 1482.97 1320.83 1486.53 Q1322.66 1490.07 1326.27 1490.07 Q1329.91 1490.07 1331.71 1486.53 Q1333.54 1482.97 1333.54 1475.86 Q1333.54 1468.73 1331.71 1465.19 Q1329.91 1461.62 1326.27 1461.62 M1326.27 1457.92 Q1332.08 1457.92 1335.14 1462.53 Q1338.22 1467.11 1338.22 1475.86 Q1338.22 1484.59 1335.14 1489.19 Q1332.08 1493.78 1326.27 1493.78 Q1320.46 1493.78 1317.39 1489.19 Q1314.33 1484.59 1314.33 1475.86 Q1314.33 1467.11 1317.39 1462.53 Q1320.46 1457.92 1326.27 1457.92 Z" fill="#000000" fill-rule="evenodd" fill-opacity="1" /><path clip-path="url(#clip540)" d="M 0 0 M1347.92 1440.11 Q1344.99 1440.11 1343.5 1443.01 Q1342.04 1445.89 1342.04 1451.68 Q1342.04 1457.46 1343.5 1460.35 Q1344.99 1463.23 1347.92 1463.23 Q1350.88 1463.23 1352.34 1460.35 Q1353.83 1457.46 1353.83 1451.68 Q1353.83 1445.89 1352.34 1443.01 Q1350.88 1440.11 1347.92 1440.11 M1347.92 1437.11 Q1352.64 1437.11 1355.13 1440.85 Q1357.63 1444.57 1357.63 1451.68 Q1357.63 1458.77 1355.13 1462.51 Q1352.64 1466.24 1347.92 1466.24 Q1343.2 1466.24 1340.7 1462.51 Q1338.22 1458.77 1338.22 1451.68 Q1338.22 1444.57 1340.7 1440.85 Q1343.2 1437.11 1347.92 1437.11 Z" fill="#000000" fill-rule="evenodd" fill-opacity="1" /><path clip-path="url(#clip540)" d="M 0 0 M1361.75 1460.92 L1365.72 1460.92 L1365.72 1465.69 L1361.75 1465.69 L1361.75 1460.92 Z" fill="#000000" fill-rule="evenodd" fill-opacity="1" /><path clip-path="url(#clip540)" d="M 0 0 M1368.88 1437.61 L1386.93 1437.61 L1386.93 1439.23 L1376.74 1465.69 L1372.77 1465.69 L1382.36 1440.81 L1368.88 1440.81 L1368.88 1437.61 Z" fill="#000000" fill-rule="evenodd" fill-opacity="1" /><path clip-path="url(#clip540)" d="M 0 0 M1391.09 1437.61 L1406 1437.61 L1406 1440.81 L1394.57 1440.81 L1394.57 1447.69 Q1395.39 1447.41 1396.22 1447.28 Q1397.05 1447.13 1397.88 1447.13 Q1402.58 1447.13 1405.32 1449.71 Q1408.07 1452.28 1408.07 1456.68 Q1408.07 1461.22 1405.25 1463.74 Q1402.43 1466.24 1397.29 1466.24 Q1395.53 1466.24 1393.68 1465.94 Q1391.86 1465.64 1389.9 1465.04 L1389.9 1461.22 Q1391.6 1462.14 1393.4 1462.59 Q1395.21 1463.04 1397.22 1463.04 Q1400.47 1463.04 1402.37 1461.33 Q1404.27 1459.62 1404.27 1456.68 Q1404.27 1453.75 1402.37 1452.04 Q1400.47 1450.33 1397.22 1450.33 Q1395.7 1450.33 1394.17 1450.67 Q1392.67 1451 1391.09 1451.72 L1391.09 1437.61 Z" fill="#000000" fill-rule="evenodd" fill-opacity="1" /><path clip-path="url(#clip540)" d="M 0 0 M1651.14 1489.17 L1658.78 1489.17 L1658.78 1462.8 L1650.47 1464.47 L1650.47 1460.21 L1658.73 1458.54 L1663.41 1458.54 L1663.41 1489.17 L1671.05 1489.17 L1671.05 1493.1 L1651.14 1493.1 L1651.14 1489.17 Z" fill="#000000" fill-rule="evenodd" fill-opacity="1" /><path clip-path="url(#clip540)" d="M 0 0 M1686.11 1461.62 Q1682.5 1461.62 1680.67 1465.19 Q1678.87 1468.73 1678.87 1475.86 Q1678.87 1482.97 1680.67 1486.53 Q1682.5 1490.07 1686.11 1490.07 Q1689.75 1490.07 1691.55 1486.53 Q1693.38 1482.97 1693.38 1475.86 Q1693.38 1468.73 1691.55 1465.19 Q1689.75 1461.62 1686.11 1461.62 M1686.11 1457.92 Q1691.92 1457.92 1694.98 1462.53 Q1698.06 1467.11 1698.06 1475.86 Q1698.06 1484.59 1694.98 1489.19 Q1691.92 1493.78 1686.11 1493.78 Q1680.3 1493.78 1677.23 1489.19 Q1674.17 1484.59 1674.17 1475.86 Q1674.17 1467.11 1677.23 1462.53 Q1680.3 1457.92 1686.11 1457.92 Z" fill="#000000" fill-rule="evenodd" fill-opacity="1" /><path clip-path="url(#clip540)" d="M 0 0 M1698.6 1462.5 L1704.81 1462.5 L1704.81 1441.07 L1698.06 1442.43 L1698.06 1438.97 L1704.77 1437.61 L1708.57 1437.61 L1708.57 1462.5 L1714.78 1462.5 L1714.78 1465.69 L1698.6 1465.69 L1698.6 1462.5 Z" fill="#000000" fill-rule="evenodd" fill-opacity="1" /><path clip-path="url(#clip540)" d="M 0 0 M1718.9 1460.92 L1722.87 1460.92 L1722.87 1465.69 L1718.9 1465.69 L1718.9 1460.92 Z" fill="#000000" fill-rule="evenodd" fill-opacity="1" /><path clip-path="url(#clip540)" d="M 0 0 M1735.11 1440.11 Q1732.18 1440.11 1730.69 1443.01 Q1729.22 1445.89 1729.22 1451.68 Q1729.22 1457.46 1730.69 1460.35 Q1732.18 1463.23 1735.11 1463.23 Q1738.06 1463.23 1739.53 1460.35 Q1741.02 1457.46 1741.02 1451.68 Q1741.02 1445.89 1739.53 1443.01 Q1738.06 1440.11 1735.11 1440.11 M1735.11 1437.11 Q1739.83 1437.11 1742.31 1440.85 Q1744.81 1444.57 1744.81 1451.68 Q1744.81 1458.77 1742.31 1462.51 Q1739.83 1466.24 1735.11 1466.24 Q1730.39 1466.24 1727.89 1462.51 Q1725.41 1458.77 1725.41 1451.68 Q1725.41 1444.57 1727.89 1440.85 Q1730.39 1437.11 1735.11 1437.11 Z" fill="#000000" fill-rule="evenodd" fill-opacity="1" /><path clip-path="url(#clip540)" d="M 0 0 M1757.06 1440.11 Q1754.12 1440.11 1752.64 1443.01 Q1751.17 1445.89 1751.17 1451.68 Q1751.17 1457.46 1752.64 1460.35 Q1754.12 1463.23 1757.06 1463.23 Q1760.01 1463.23 1761.48 1460.35 Q1762.96 1457.46 1762.96 1451.68 Q1762.96 1445.89 1761.48 1443.01 Q1760.01 1440.11 1757.06 1440.11 M1757.06 1437.11 Q1761.78 1437.11 1764.26 1440.85 Q1766.76 1444.57 1766.76 1451.68 Q1766.76 1458.77 1764.26 1462.51 Q1761.78 1466.24 1757.06 1466.24 Q1752.34 1466.24 1749.84 1462.51 Q1747.35 1458.77 1747.35 1451.68 Q1747.35 1444.57 1749.84 1440.85 Q1752.34 1437.11 1757.06 1437.11 Z" fill="#000000" fill-rule="evenodd" fill-opacity="1" /><path clip-path="url(#clip540)" d="M 0 0 M2011.46 1489.17 L2019.1 1489.17 L2019.1 1462.8 L2010.79 1464.47 L2010.79 1460.21 L2019.05 1458.54 L2023.73 1458.54 L2023.73 1489.17 L2031.36 1489.17 L2031.36 1493.1 L2011.46 1493.1 L2011.46 1489.17 Z" fill="#000000" fill-rule="evenodd" fill-opacity="1" /><path clip-path="url(#clip540)" d="M 0 0 M2046.43 1461.62 Q2042.82 1461.62 2040.99 1465.19 Q2039.19 1468.73 2039.19 1475.86 Q2039.19 1482.97 2040.99 1486.53 Q2042.82 1490.07 2046.43 1490.07 Q2050.07 1490.07 2051.87 1486.53 Q2053.7 1482.97 2053.7 1475.86 Q2053.7 1468.73 2051.87 1465.19 Q2050.07 1461.62 2046.43 1461.62 M2046.43 1457.92 Q2052.24 1457.92 2055.3 1462.53 Q2058.38 1467.11 2058.38 1475.86 Q2058.38 1484.59 2055.3 1489.19 Q2052.24 1493.78 2046.43 1493.78 Q2040.62 1493.78 2037.55 1489.19 Q2034.49 1484.59 2034.49 1475.86 Q2034.49 1467.11 2037.55 1462.53 Q2040.62 1457.92 2046.43 1457.92 Z" fill="#000000" fill-rule="evenodd" fill-opacity="1" /><path clip-path="url(#clip540)" d="M 0 0 M2058.92 1462.5 L2065.13 1462.5 L2065.13 1441.07 L2058.38 1442.43 L2058.38 1438.97 L2065.09 1437.61 L2068.89 1437.61 L2068.89 1462.5 L2075.1 1462.5 L2075.1 1465.69 L2058.92 1465.69 L2058.92 1462.5 Z" fill="#000000" fill-rule="evenodd" fill-opacity="1" /><path clip-path="url(#clip540)" d="M 0 0 M2079.22 1460.92 L2083.19 1460.92 L2083.19 1465.69 L2079.22 1465.69 L2079.22 1460.92 Z" fill="#000000" fill-rule="evenodd" fill-opacity="1" /><path clip-path="url(#clip540)" d="M 0 0 M2090.58 1462.5 L2103.84 1462.5 L2103.84 1465.69 L2086.01 1465.69 L2086.01 1462.5 Q2088.17 1460.26 2091.89 1456.5 Q2095.64 1452.72 2096.6 1451.63 Q2098.42 1449.58 2099.13 1448.16 Q2099.87 1446.74 2099.87 1445.36 Q2099.87 1443.12 2098.29 1441.71 Q2096.73 1440.3 2094.21 1440.3 Q2092.42 1440.3 2090.43 1440.92 Q2088.45 1441.54 2086.2 1442.8 L2086.2 1438.97 Q2088.49 1438.05 2090.48 1437.58 Q2092.48 1437.11 2094.13 1437.11 Q2098.5 1437.11 2101.09 1439.29 Q2103.69 1441.47 2103.69 1445.12 Q2103.69 1446.85 2103.03 1448.41 Q2102.39 1449.95 2100.68 1452.06 Q2100.21 1452.6 2097.69 1455.22 Q2095.17 1457.81 2090.58 1462.5 Z" fill="#000000" fill-rule="evenodd" fill-opacity="1" /><path clip-path="url(#clip540)" d="M 0 0 M2107.99 1437.61 L2122.91 1437.61 L2122.91 1440.81 L2111.47 1440.81 L2111.47 1447.69 Q2112.3 1447.41 2113.13 1447.28 Q2113.96 1447.13 2114.78 1447.13 Q2119.48 1447.13 2122.23 1449.71 Q2124.98 1452.28 2124.98 1456.68 Q2124.98 1461.22 2122.16 1463.74 Q2119.33 1466.24 2114.2 1466.24 Q2112.43 1466.24 2110.59 1465.94 Q2108.76 1465.64 2106.81 1465.04 L2106.81 1461.22 Q2108.5 1462.14 2110.31 1462.59 Q2112.11 1463.04 2114.12 1463.04 Q2117.38 1463.04 2119.28 1461.33 Q2121.18 1459.62 2121.18 1456.68 Q2121.18 1453.75 2119.28 1452.04 Q2117.38 1450.33 2114.12 1450.33 Q2112.6 1450.33 2111.08 1450.67 Q2109.57 1451 2107.99 1451.72 L2107.99 1437.61 Z" fill="#000000" fill-rule="evenodd" fill-opacity="1" /><path clip-path="url(#clip540)" d="M 0 0 M1287.05 1545.6 L1285.65 1538.25 Q1284.21 1530.71 1278.55 1530.71 Q1274.28 1530.71 1272.34 1534.21 Q1269.89 1538.6 1269.89 1544.39 Q1269.89 1551.4 1272.28 1554.74 Q1274.7 1558.14 1278.55 1558.14 Q1282.81 1558.14 1285.11 1551.36 L1287.05 1545.6 M1290.33 1535.86 L1293.48 1526.54 L1298.7 1526.54 L1292.17 1545.86 L1293.45 1552.83 Q1293.73 1554.39 1294.85 1555.69 Q1296.15 1557.22 1297.17 1557.22 L1299.97 1557.22 L1299.97 1562.19 L1296.47 1562.19 Q1293.48 1562.19 1290.8 1559.51 Q1289.5 1558.18 1288.96 1555.37 Q1287.49 1558.91 1284.5 1561.68 Q1283.1 1562.98 1278.55 1562.98 Q1271.07 1562.98 1267.44 1558.14 Q1263.72 1553.15 1263.72 1544.39 Q1263.72 1535.04 1267.76 1530.64 Q1272.25 1525.74 1278.55 1525.74 Q1288.45 1525.74 1290.33 1535.86 Z" fill="#000000" fill-rule="evenodd" fill-opacity="1" /><polyline clip-path="url(#clip542)" style="stroke:#000000; stroke-width:2; stroke-opacity:0.1; fill:none" points="
  210.931,1277.36 2352.76,1277.36 
  "/>
<polyline clip-path="url(#clip542)" style="stroke:#000000; stroke-width:2; stroke-opacity:0.1; fill:none" points="
  210.931,1024.38 2352.76,1024.38 
  "/>
<polyline clip-path="url(#clip542)" style="stroke:#000000; stroke-width:2; stroke-opacity:0.1; fill:none" points="
  210.931,771.395 2352.76,771.395 
  "/>
<polyline clip-path="url(#clip542)" style="stroke:#000000; stroke-width:2; stroke-opacity:0.1; fill:none" points="
  210.931,518.413 2352.76,518.413 
  "/>
<polyline clip-path="url(#clip542)" style="stroke:#000000; stroke-width:2; stroke-opacity:0.1; fill:none" points="
  210.931,265.432 2352.76,265.432 
  "/>
<polyline clip-path="url(#clip540)" style="stroke:#000000; stroke-width:4; stroke-opacity:1; fill:none" points="
  210.931,1410.9 210.931,47.2441 
  "/>
<polyline clip-path="url(#clip540)" style="stroke:#000000; stroke-width:4; stroke-opacity:1; fill:none" points="
  210.931,1277.36 236.633,1277.36 
  "/>
<polyline clip-path="url(#clip540)" style="stroke:#000000; stroke-width:4; stroke-opacity:1; fill:none" points="
  210.931,1024.38 236.633,1024.38 
  "/>
<polyline clip-path="url(#clip540)" style="stroke:#000000; stroke-width:4; stroke-opacity:1; fill:none" points="
  210.931,771.395 236.633,771.395 
  "/>
<polyline clip-path="url(#clip540)" style="stroke:#000000; stroke-width:4; stroke-opacity:1; fill:none" points="
  210.931,518.413 236.633,518.413 
  "/>
<polyline clip-path="url(#clip540)" style="stroke:#000000; stroke-width:4; stroke-opacity:1; fill:none" points="
  210.931,265.432 236.633,265.432 
  "/>
<path clip-path="url(#clip540)" d="M 0 0 M126.205 1263.16 Q122.593 1263.16 120.765 1266.72 Q118.959 1270.26 118.959 1277.39 Q118.959 1284.5 120.765 1288.06 Q122.593 1291.61 126.205 1291.61 Q129.839 1291.61 131.644 1288.06 Q133.473 1284.5 133.473 1277.39 Q133.473 1270.26 131.644 1266.72 Q129.839 1263.16 126.205 1263.16 M126.205 1259.45 Q132.015 1259.45 135.07 1264.06 Q138.149 1268.64 138.149 1277.39 Q138.149 1286.12 135.07 1290.73 Q132.015 1295.31 126.205 1295.31 Q120.394 1295.31 117.316 1290.73 Q114.26 1286.12 114.26 1277.39 Q114.26 1268.64 117.316 1264.06 Q120.394 1259.45 126.205 1259.45 Z" fill="#000000" fill-rule="evenodd" fill-opacity="1" /><path clip-path="url(#clip540)" d="M 0 0 M143.218 1288.76 L148.103 1288.76 L148.103 1294.64 L143.218 1294.64 L143.218 1288.76 Z" fill="#000000" fill-rule="evenodd" fill-opacity="1" /><path clip-path="url(#clip540)" d="M 0 0 M153.311 1293.92 L153.311 1289.66 Q155.07 1290.49 156.876 1290.93 Q158.681 1291.37 160.417 1291.37 Q165.047 1291.37 167.477 1288.27 Q169.931 1285.15 170.278 1278.8 Q168.936 1280.8 166.876 1281.86 Q164.815 1282.93 162.315 1282.93 Q157.13 1282.93 154.098 1279.8 Q151.089 1276.65 151.089 1271.21 Q151.089 1265.89 154.237 1262.67 Q157.385 1259.45 162.616 1259.45 Q168.612 1259.45 171.76 1264.06 Q174.931 1268.64 174.931 1277.39 Q174.931 1285.56 171.042 1290.45 Q167.177 1295.31 160.626 1295.31 Q158.866 1295.31 157.061 1294.96 Q155.255 1294.61 153.311 1293.92 M162.616 1279.27 Q165.765 1279.27 167.593 1277.11 Q169.445 1274.96 169.445 1271.21 Q169.445 1267.49 167.593 1265.33 Q165.765 1263.16 162.616 1263.16 Q159.468 1263.16 157.616 1265.33 Q155.788 1267.49 155.788 1271.21 Q155.788 1274.96 157.616 1277.11 Q159.468 1279.27 162.616 1279.27 Z" fill="#000000" fill-rule="evenodd" fill-opacity="1" /><path clip-path="url(#clip540)" d="M 0 0 M119.654 1037.72 L127.292 1037.72 L127.292 1011.36 L118.982 1013.02 L118.982 1008.76 L127.246 1007.1 L131.922 1007.1 L131.922 1037.72 L139.561 1037.72 L139.561 1041.66 L119.654 1041.66 L119.654 1037.72 Z" fill="#000000" fill-rule="evenodd" fill-opacity="1" /><path clip-path="url(#clip540)" d="M 0 0 M144.63 1035.78 L149.515 1035.78 L149.515 1041.66 L144.63 1041.66 L144.63 1035.78 Z" fill="#000000" fill-rule="evenodd" fill-opacity="1" /><path clip-path="url(#clip540)" d="M 0 0 M158.612 1037.72 L174.931 1037.72 L174.931 1041.66 L152.987 1041.66 L152.987 1037.72 Q155.649 1034.97 160.232 1030.34 Q164.839 1025.68 166.019 1024.34 Q168.264 1021.82 169.144 1020.08 Q170.047 1018.32 170.047 1016.63 Q170.047 1013.88 168.102 1012.14 Q166.181 1010.41 163.079 1010.41 Q160.88 1010.41 158.427 1011.17 Q155.996 1011.93 153.218 1013.49 L153.218 1008.76 Q156.042 1007.63 158.496 1007.05 Q160.95 1006.47 162.987 1006.47 Q168.357 1006.47 171.552 1009.16 Q174.746 1011.84 174.746 1016.33 Q174.746 1018.46 173.936 1020.38 Q173.149 1022.28 171.042 1024.87 Q170.464 1025.55 167.362 1028.76 Q164.26 1031.96 158.612 1037.72 Z" fill="#000000" fill-rule="evenodd" fill-opacity="1" /><path clip-path="url(#clip540)" d="M 0 0 M119.052 784.74 L126.691 784.74 L126.691 758.374 L118.381 760.041 L118.381 755.782 L126.644 754.115 L131.32 754.115 L131.32 784.74 L138.959 784.74 L138.959 788.675 L119.052 788.675 L119.052 784.74 Z" fill="#000000" fill-rule="evenodd" fill-opacity="1" /><path clip-path="url(#clip540)" d="M 0 0 M144.029 782.795 L148.913 782.795 L148.913 788.675 L144.029 788.675 L144.029 782.795 Z" fill="#000000" fill-rule="evenodd" fill-opacity="1" /><path clip-path="url(#clip540)" d="M 0 0 M154.028 754.115 L172.385 754.115 L172.385 758.05 L158.311 758.05 L158.311 766.522 Q159.329 766.175 160.348 766.013 Q161.366 765.828 162.385 765.828 Q168.172 765.828 171.552 768.999 Q174.931 772.17 174.931 777.587 Q174.931 783.166 171.459 786.267 Q167.987 789.346 161.667 789.346 Q159.491 789.346 157.223 788.976 Q154.978 788.605 152.57 787.865 L152.57 783.166 Q154.653 784.3 156.876 784.855 Q159.098 785.411 161.575 785.411 Q165.579 785.411 167.917 783.305 Q170.255 781.198 170.255 777.587 Q170.255 773.976 167.917 771.869 Q165.579 769.763 161.575 769.763 Q159.7 769.763 157.825 770.18 Q155.973 770.596 154.028 771.476 L154.028 754.115 Z" fill="#000000" fill-rule="evenodd" fill-opacity="1" /><path clip-path="url(#clip540)" d="M 0 0 M118.149 531.758 L125.788 531.758 L125.788 505.393 L117.478 507.059 L117.478 502.8 L125.742 501.133 L130.417 501.133 L130.417 531.758 L138.056 531.758 L138.056 535.693 L118.149 535.693 L118.149 531.758 Z" fill="#000000" fill-rule="evenodd" fill-opacity="1" /><path clip-path="url(#clip540)" d="M 0 0 M143.126 529.814 L148.01 529.814 L148.01 535.693 L143.126 535.693 L143.126 529.814 Z" fill="#000000" fill-rule="evenodd" fill-opacity="1" /><path clip-path="url(#clip540)" d="M 0 0 M163.079 519.281 Q159.746 519.281 157.825 521.064 Q155.927 522.846 155.927 525.971 Q155.927 529.096 157.825 530.879 Q159.746 532.661 163.079 532.661 Q166.413 532.661 168.334 530.879 Q170.255 529.073 170.255 525.971 Q170.255 522.846 168.334 521.064 Q166.436 519.281 163.079 519.281 M158.403 517.291 Q155.394 516.55 153.704 514.49 Q152.038 512.43 152.038 509.467 Q152.038 505.323 154.978 502.916 Q157.94 500.508 163.079 500.508 Q168.241 500.508 171.181 502.916 Q174.121 505.323 174.121 509.467 Q174.121 512.43 172.431 514.49 Q170.764 516.55 167.778 517.291 Q171.158 518.078 173.033 520.369 Q174.931 522.661 174.931 525.971 Q174.931 530.994 171.852 533.679 Q168.797 536.365 163.079 536.365 Q157.362 536.365 154.283 533.679 Q151.228 530.994 151.228 525.971 Q151.228 522.661 153.126 520.369 Q155.024 518.078 158.403 517.291 M156.69 509.906 Q156.69 512.592 158.357 514.096 Q160.047 515.601 163.079 515.601 Q166.089 515.601 167.778 514.096 Q169.491 512.592 169.491 509.906 Q169.491 507.221 167.778 505.717 Q166.089 504.212 163.079 504.212 Q160.047 504.212 158.357 505.717 Q156.69 507.221 156.69 509.906 Z" fill="#000000" fill-rule="evenodd" fill-opacity="1" /><path clip-path="url(#clip540)" d="M 0 0 M122.871 278.777 L139.191 278.777 L139.191 282.712 L117.246 282.712 L117.246 278.777 Q119.908 276.022 124.492 271.392 Q129.098 266.74 130.279 265.397 Q132.524 262.874 133.404 261.138 Q134.306 259.379 134.306 257.689 Q134.306 254.934 132.362 253.198 Q130.441 251.462 127.339 251.462 Q125.14 251.462 122.686 252.226 Q120.255 252.99 117.478 254.541 L117.478 249.818 Q120.302 248.684 122.755 248.105 Q125.209 247.527 127.246 247.527 Q132.617 247.527 135.811 250.212 Q139.005 252.897 139.005 257.388 Q139.005 259.517 138.195 261.439 Q137.408 263.337 135.302 265.929 Q134.723 266.601 131.621 269.818 Q128.519 273.013 122.871 278.777 Z" fill="#000000" fill-rule="evenodd" fill-opacity="1" /><path clip-path="url(#clip540)" d="M 0 0 M144.26 276.832 L149.144 276.832 L149.144 282.712 L144.26 282.712 L144.26 276.832 Z" fill="#000000" fill-rule="evenodd" fill-opacity="1" /><path clip-path="url(#clip540)" d="M 0 0 M155.024 278.777 L162.663 278.777 L162.663 252.411 L154.353 254.078 L154.353 249.818 L162.616 248.152 L167.292 248.152 L167.292 278.777 L174.931 278.777 L174.931 282.712 L155.024 282.712 L155.024 278.777 Z" fill="#000000" fill-rule="evenodd" fill-opacity="1" /><path clip-path="url(#clip540)" d="M 0 0 M59.1993 815.533 Q55.2526 813.336 53.3747 810.281 Q51.4968 807.225 51.4968 803.088 Q51.4968 797.518 55.4117 794.494 Q59.2948 791.47 66.4881 791.47 L88.0042 791.47 L88.0042 797.358 L66.679 797.358 Q61.5546 797.358 59.072 799.173 Q56.5894 800.987 56.5894 804.711 Q56.5894 809.262 59.6131 811.904 Q62.6368 814.546 67.8567 814.546 L88.0042 814.546 L88.0042 820.434 L66.679 820.434 Q61.5228 820.434 59.072 822.248 Q56.5894 824.063 56.5894 827.85 Q56.5894 832.338 59.6449 834.98 Q62.6686 837.622 67.8567 837.622 L88.0042 837.622 L88.0042 843.51 L52.3562 843.51 L52.3562 837.622 L57.8944 837.622 Q54.616 835.616 53.0564 832.815 Q51.4968 830.015 51.4968 826.163 Q51.4968 822.28 53.4702 819.575 Q55.4436 816.838 59.1993 815.533 Z" fill="#000000" fill-rule="evenodd" fill-opacity="1" /><path clip-path="url(#clip540)" d="M 0 0 M52.3562 785.327 L52.3562 779.471 L88.0042 779.471 L88.0042 785.327 L52.3562 785.327 M38.479 785.327 L38.479 779.471 L45.895 779.471 L45.895 785.327 L38.479 785.327 Z" fill="#000000" fill-rule="evenodd" fill-opacity="1" /><path clip-path="url(#clip540)" d="M 0 0 M66.4881 743.696 L88.0042 743.696 L88.0042 749.552 L66.679 749.552 Q61.6183 749.552 59.1038 751.525 Q56.5894 753.499 56.5894 757.446 Q56.5894 762.188 59.6131 764.925 Q62.6368 767.662 67.8567 767.662 L88.0042 767.662 L88.0042 773.551 L52.3562 773.551 L52.3562 767.662 L57.8944 767.662 Q54.6797 765.562 53.0883 762.729 Q51.4968 759.864 51.4968 756.141 Q51.4968 749.998 55.3163 746.847 Q59.1038 743.696 66.4881 743.696 Z" fill="#000000" fill-rule="evenodd" fill-opacity="1" /><path clip-path="url(#clip540)" d="M 0 0 M98.8259 710.467 L103.377 710.467 L103.377 744.332 L98.8259 744.332 L98.8259 710.467 Z" fill="#000000" fill-rule="evenodd" fill-opacity="1" /><path clip-path="url(#clip540)" d="M 0 0 M57.7671 680.866 L38.479 680.866 L38.479 675.01 L88.0042 675.01 L88.0042 680.866 L82.657 680.866 Q85.8398 682.712 87.3994 685.545 Q88.9272 688.346 88.9272 692.292 Q88.9272 698.754 83.771 702.828 Q78.6147 706.87 70.212 706.87 Q61.8093 706.87 56.6531 702.828 Q51.4968 698.754 51.4968 692.292 Q51.4968 688.346 53.0564 685.545 Q54.5842 682.712 57.7671 680.866 M70.212 700.823 Q76.6732 700.823 80.3653 698.181 Q84.0256 695.507 84.0256 690.86 Q84.0256 686.213 80.3653 683.54 Q76.6732 680.866 70.212 680.866 Q63.7508 680.866 60.0905 683.54 Q56.3984 686.213 56.3984 690.86 Q56.3984 695.507 60.0905 698.181 Q63.7508 700.823 70.212 700.823 Z" fill="#000000" fill-rule="evenodd" fill-opacity="1" /><path clip-path="url(#clip540)" d="M 0 0 M52.3562 668.867 L52.3562 663.01 L88.0042 663.01 L88.0042 668.867 L52.3562 668.867 M38.479 668.867 L38.479 663.01 L45.895 663.01 L45.895 668.867 L38.479 668.867 Z" fill="#000000" fill-rule="evenodd" fill-opacity="1" /><path clip-path="url(#clip540)" d="M 0 0 M38.479 638.821 L43.3487 638.821 L43.3487 644.422 Q43.3487 647.573 44.6219 648.815 Q45.895 650.024 49.2052 650.024 L52.3562 650.024 L52.3562 640.38 L56.9077 640.38 L56.9077 650.024 L88.0042 650.024 L88.0042 655.912 L56.9077 655.912 L56.9077 661.514 L52.3562 661.514 L52.3562 655.912 L49.8736 655.912 Q43.9216 655.912 41.2162 653.143 Q38.479 650.374 38.479 644.359 L38.479 638.821 Z" fill="#000000" fill-rule="evenodd" fill-opacity="1" /><path clip-path="url(#clip540)" d="M 0 0 M38.479 614.631 L43.3487 614.631 L43.3487 620.233 Q43.3487 623.384 44.6219 624.625 Q45.895 625.835 49.2052 625.835 L52.3562 625.835 L52.3562 616.19 L56.9077 616.19 L56.9077 625.835 L88.0042 625.835 L88.0042 631.723 L56.9077 631.723 L56.9077 637.325 L52.3562 637.325 L52.3562 631.723 L49.8736 631.723 Q43.9216 631.723 41.2162 628.954 Q38.479 626.185 38.479 620.169 L38.479 614.631 Z" fill="#000000" fill-rule="evenodd" fill-opacity="1" /><polyline clip-path="url(#clip542)" style="stroke:#009af9; stroke-width:20; stroke-opacity:1; fill:none" stroke-dasharray="80, 50" points="
  271.549,1372.3 272.03,1370.61 273.476,1365.47 275.89,1356.65 279.28,1343.79 283.658,1326.36 289.036,1303.71 295.432,1275 302.868,1239.27 311.368,1195.38 
  320.962,1157.26 331.684,1142.42 343.573,1121.47 356.676,1093.09 371.043,1055.85 386.735,1008.17 403.82,948.352 422.376,874.543 442.494,784.763 464.278,676.888 
  487.849,580.024 513.346,559.368 540.935,579.463 570.808,619.077 603.197,691.857 638.376,750.648 676.679,793.217 718.516,817.237 764.395,820.286 814.959,799.853 
  871.036,753.347 933.716,678.101 1004.48,571.382 1085.4,473.862 1179.51,483.783 1291.53,466.833 1429.35,420.777 1607.77,343.387 1860.02,232.461 2292.14,85.838 
  
  "/>
<path clip-path="url(#clip540)" d="
M1992.36 213.659 L2281.36 213.659 L2281.36 92.6992 L1992.36 92.6992  Z
  " fill="#ffffff" fill-rule="evenodd" fill-opacity="1"/>
<polyline clip-path="url(#clip540)" style="stroke:#000000; stroke-width:4; stroke-opacity:1; fill:none" points="
  1992.36,213.659 2281.36,213.659 2281.36,92.6992 1992.36,92.6992 1992.36,213.659 
  "/>
<polyline clip-path="url(#clip540)" style="stroke:#009af9; stroke-width:4; stroke-opacity:1; fill:none" stroke-dasharray="16, 10" points="
  2016.16,153.179 2158.95,153.179 
  "/>
<path clip-path="url(#clip540)" d="M 0 0 M2196.59 172.867 Q2194.78 177.496 2193.07 178.908 Q2191.36 180.32 2188.49 180.32 L2185.09 180.32 L2185.09 176.755 L2187.59 176.755 Q2189.34 176.755 2190.32 175.922 Q2191.29 175.089 2192.47 171.987 L2193.23 170.043 L2182.75 144.533 L2187.26 144.533 L2195.36 164.811 L2203.46 144.533 L2207.98 144.533 L2196.59 172.867 Z" fill="#000000" fill-rule="evenodd" fill-opacity="1" /><path clip-path="url(#clip540)" d="M 0 0 M2213.86 166.524 L2221.5 166.524 L2221.5 140.158 L2213.19 141.825 L2213.19 137.566 L2221.45 135.899 L2226.13 135.899 L2226.13 166.524 L2233.77 166.524 L2233.77 170.459 L2213.86 170.459 L2213.86 166.524 Z" fill="#000000" fill-rule="evenodd" fill-opacity="1" /></svg>
