<?xml version="1.0" encoding="utf-8"?>
<svg xmlns="http://www.w3.org/2000/svg" xmlns:xlink="http://www.w3.org/1999/xlink" width="600" height="400" viewBox="0 0 2400 1600">
<defs>
  <clipPath id="clip760">
    <rect x="0" y="0" width="2400" height="1600"/>
  </clipPath>
</defs>
<path clip-path="url(#clip760)" d="
M0 1600 L2400 1600 L2400 0 L0 0  Z
  " fill="#ffffff" fill-rule="evenodd" fill-opacity="1"/>
<defs>
  <clipPath id="clip761">
    <rect x="480" y="0" width="1681" height="1600"/>
  </clipPath>
</defs>
<path clip-path="url(#clip760)" d="
M175.445 1410.9 L2352.76 1410.9 L2352.76 47.2441 L175.445 47.2441  Z
  " fill="#ffffff" fill-rule="evenodd" fill-opacity="1"/>
<defs>
  <clipPath id="clip762">
    <rect x="175" y="47" width="2178" height="1365"/>
  </clipPath>
</defs>
<polyline clip-path="url(#clip762)" style="stroke:#000000; stroke-width:2; stroke-opacity:0.1; fill:none" points="
  237.067,1410.9 237.067,47.2441 
  "/>
<polyline clip-path="url(#clip762)" style="stroke:#000000; stroke-width:2; stroke-opacity:0.1; fill:none" points="
  750.584,1410.9 750.584,47.2441 
  "/>
<polyline clip-path="url(#clip762)" style="stroke:#000000; stroke-width:2; stroke-opacity:0.1; fill:none" points="
  1264.1,1410.9 1264.1,47.2441 
  "/>
<polyline clip-path="url(#clip762)" style="stroke:#000000; stroke-width:2; stroke-opacity:0.1; fill:none" points="
  1777.62,1410.9 1777.62,47.2441 
  "/>
<polyline clip-path="url(#clip762)" style="stroke:#000000; stroke-width:2; stroke-opacity:0.1; fill:none" points="
  2291.13,1410.9 2291.13,47.2441 
  "/>
<polyline clip-path="url(#clip760)" style="stroke:#000000; stroke-width:4; stroke-opacity:1; fill:none" points="
  175.445,1410.9 2352.76,1410.9 
  "/>
<polyline clip-path="url(#clip760)" style="stroke:#000000; stroke-width:4; stroke-opacity:1; fill:none" points="
  237.067,1410.9 237.067,1394.53 
  "/>
<polyline clip-path="url(#clip760)" style="stroke:#000000; stroke-width:4; stroke-opacity:1; fill:none" points="
  750.584,1410.9 750.584,1394.53 
  "/>
<polyline clip-path="url(#clip760)" style="stroke:#000000; stroke-width:4; stroke-opacity:1; fill:none" points="
  1264.1,1410.9 1264.1,1394.53 
  "/>
<polyline clip-path="url(#clip760)" style="stroke:#000000; stroke-width:4; stroke-opacity:1; fill:none" points="
  1777.62,1410.9 1777.62,1394.53 
  "/>
<polyline clip-path="url(#clip760)" style="stroke:#000000; stroke-width:4; stroke-opacity:1; fill:none" points="
  2291.13,1410.9 2291.13,1394.53 
  "/>
<path clip-path="url(#clip760)" d="M 0 0 M176.158 1489.17 L183.796 1489.17 L183.796 1462.8 L175.486 1464.47 L175.486 1460.21 L183.75 1458.54 L188.426 1458.54 L188.426 1489.17 L196.065 1489.17 L196.065 1493.1 L176.158 1493.1 L176.158 1489.17 Z" fill="#000000" fill-rule="evenodd" fill-opacity="1" /><path clip-path="url(#clip760)" d="M 0 0 M211.134 1461.62 Q207.523 1461.62 205.694 1465.19 Q203.889 1468.73 203.889 1475.86 Q203.889 1482.97 205.694 1486.53 Q207.523 1490.07 211.134 1490.07 Q214.768 1490.07 216.574 1486.53 Q218.403 1482.97 218.403 1475.86 Q218.403 1468.73 216.574 1465.19 Q214.768 1461.62 211.134 1461.62 M211.134 1457.92 Q216.944 1457.92 220 1462.53 Q223.079 1467.11 223.079 1475.86 Q223.079 1484.59 220 1489.19 Q216.944 1493.78 211.134 1493.78 Q205.324 1493.78 202.245 1489.19 Q199.19 1484.59 199.19 1475.86 Q199.19 1467.11 202.245 1462.53 Q205.324 1457.92 211.134 1457.92 Z" fill="#000000" fill-rule="evenodd" fill-opacity="1" /><path clip-path="url(#clip760)" d="M 0 0 M223.079 1452.02 L247.19 1452.02 L247.19 1455.22 L223.079 1455.22 L223.079 1452.02 Z" fill="#000000" fill-rule="evenodd" fill-opacity="1" /><path clip-path="url(#clip760)" d="M 0 0 M262.819 1450.55 Q265.547 1451.14 267.07 1452.98 Q268.612 1454.82 268.612 1457.53 Q268.612 1461.69 265.753 1463.96 Q262.895 1466.24 257.628 1466.24 Q255.861 1466.24 253.98 1465.88 Q252.118 1465.54 250.124 1464.85 L250.124 1461.18 Q251.704 1462.1 253.585 1462.57 Q255.466 1463.04 257.516 1463.04 Q261.089 1463.04 262.951 1461.63 Q264.832 1460.22 264.832 1457.53 Q264.832 1455.05 263.083 1453.66 Q261.352 1452.25 258.249 1452.25 L254.977 1452.25 L254.977 1449.12 L258.4 1449.12 Q261.202 1449.12 262.688 1448.01 Q264.174 1446.89 264.174 1444.78 Q264.174 1442.62 262.631 1441.47 Q261.108 1440.3 258.249 1440.3 Q256.688 1440.3 254.901 1440.64 Q253.115 1440.98 250.97 1441.69 L250.97 1438.31 Q253.133 1437.71 255.014 1437.41 Q256.914 1437.11 258.588 1437.11 Q262.913 1437.11 265.434 1439.08 Q267.954 1441.04 267.954 1444.38 Q267.954 1446.72 266.619 1448.33 Q265.283 1449.93 262.819 1450.55 Z" fill="#000000" fill-rule="evenodd" fill-opacity="1" /><path clip-path="url(#clip760)" d="M 0 0 M272.731 1460.92 L276.7 1460.92 L276.7 1465.69 L272.731 1465.69 L272.731 1460.92 Z" fill="#000000" fill-rule="evenodd" fill-opacity="1" /><path clip-path="url(#clip760)" d="M 0 0 M288.943 1440.11 Q286.009 1440.11 284.524 1443.01 Q283.057 1445.89 283.057 1451.68 Q283.057 1457.46 284.524 1460.35 Q286.009 1463.23 288.943 1463.23 Q291.896 1463.23 293.363 1460.35 Q294.849 1457.46 294.849 1451.68 Q294.849 1445.89 293.363 1443.01 Q291.896 1440.11 288.943 1440.11 M288.943 1437.11 Q293.664 1437.11 296.147 1440.85 Q298.648 1444.57 298.648 1451.68 Q298.648 1458.77 296.147 1462.51 Q293.664 1466.24 288.943 1466.24 Q284.223 1466.24 281.721 1462.51 Q279.239 1458.77 279.239 1451.68 Q279.239 1444.57 281.721 1440.85 Q284.223 1437.11 288.943 1437.11 Z" fill="#000000" fill-rule="evenodd" fill-opacity="1" /><path clip-path="url(#clip760)" d="M 0 0 M690.464 1489.17 L698.103 1489.17 L698.103 1462.8 L689.793 1464.47 L689.793 1460.21 L698.057 1458.54 L702.733 1458.54 L702.733 1489.17 L710.371 1489.17 L710.371 1493.1 L690.464 1493.1 L690.464 1489.17 Z" fill="#000000" fill-rule="evenodd" fill-opacity="1" /><path clip-path="url(#clip760)" d="M 0 0 M725.441 1461.62 Q721.83 1461.62 720.001 1465.19 Q718.195 1468.73 718.195 1475.86 Q718.195 1482.97 720.001 1486.53 Q721.83 1490.07 725.441 1490.07 Q729.075 1490.07 730.881 1486.53 Q732.709 1482.97 732.709 1475.86 Q732.709 1468.73 730.881 1465.19 Q729.075 1461.62 725.441 1461.62 M725.441 1457.92 Q731.251 1457.92 734.306 1462.53 Q737.385 1467.11 737.385 1475.86 Q737.385 1484.59 734.306 1489.19 Q731.251 1493.78 725.441 1493.78 Q719.631 1493.78 716.552 1489.19 Q713.496 1484.59 713.496 1475.86 Q713.496 1467.11 716.552 1462.53 Q719.631 1457.92 725.441 1457.92 Z" fill="#000000" fill-rule="evenodd" fill-opacity="1" /><path clip-path="url(#clip760)" d="M 0 0 M737.385 1452.02 L761.497 1452.02 L761.497 1455.22 L737.385 1455.22 L737.385 1452.02 Z" fill="#000000" fill-rule="evenodd" fill-opacity="1" /><path clip-path="url(#clip760)" d="M 0 0 M768.888 1462.5 L782.148 1462.5 L782.148 1465.69 L764.318 1465.69 L764.318 1462.5 Q766.481 1460.26 770.205 1456.5 Q773.947 1452.72 774.907 1451.63 Q776.731 1449.58 777.446 1448.16 Q778.179 1446.74 778.179 1445.36 Q778.179 1443.12 776.599 1441.71 Q775.038 1440.3 772.518 1440.3 Q770.731 1440.3 768.738 1440.92 Q766.763 1441.54 764.506 1442.8 L764.506 1438.97 Q766.801 1438.05 768.794 1437.58 Q770.788 1437.11 772.443 1437.11 Q776.806 1437.11 779.402 1439.29 Q781.997 1441.47 781.997 1445.12 Q781.997 1446.85 781.339 1448.41 Q780.699 1449.95 778.988 1452.06 Q778.518 1452.6 775.998 1455.22 Q773.477 1457.81 768.888 1462.5 Z" fill="#000000" fill-rule="evenodd" fill-opacity="1" /><path clip-path="url(#clip760)" d="M 0 0 M786.267 1460.92 L790.235 1460.92 L790.235 1465.69 L786.267 1465.69 L786.267 1460.92 Z" fill="#000000" fill-rule="evenodd" fill-opacity="1" /><path clip-path="url(#clip760)" d="M 0 0 M794.392 1437.61 L809.306 1437.61 L809.306 1440.81 L797.871 1440.81 L797.871 1447.69 Q798.698 1447.41 799.526 1447.28 Q800.354 1447.13 801.181 1447.13 Q805.883 1447.13 808.629 1449.71 Q811.375 1452.28 811.375 1456.68 Q811.375 1461.22 808.554 1463.74 Q805.733 1466.24 800.598 1466.24 Q798.83 1466.24 796.987 1465.94 Q795.163 1465.64 793.207 1465.04 L793.207 1461.22 Q794.899 1462.14 796.705 1462.59 Q798.51 1463.04 800.523 1463.04 Q803.777 1463.04 805.676 1461.33 Q807.576 1459.62 807.576 1456.68 Q807.576 1453.75 805.676 1452.04 Q803.777 1450.33 800.523 1450.33 Q798.999 1450.33 797.476 1450.67 Q795.971 1451 794.392 1451.72 L794.392 1437.61 Z" fill="#000000" fill-rule="evenodd" fill-opacity="1" /><path clip-path="url(#clip760)" d="M 0 0 M1203.58 1489.17 L1211.22 1489.17 L1211.22 1462.8 L1202.91 1464.47 L1202.91 1460.21 L1211.17 1458.54 L1215.84 1458.54 L1215.84 1489.17 L1223.48 1489.17 L1223.48 1493.1 L1203.58 1493.1 L1203.58 1489.17 Z" fill="#000000" fill-rule="evenodd" fill-opacity="1" /><path clip-path="url(#clip760)" d="M 0 0 M1238.55 1461.62 Q1234.94 1461.62 1233.11 1465.19 Q1231.31 1468.73 1231.31 1475.86 Q1231.31 1482.97 1233.11 1486.53 Q1234.94 1490.07 1238.55 1490.07 Q1242.19 1490.07 1243.99 1486.53 Q1245.82 1482.97 1245.82 1475.86 Q1245.82 1468.73 1243.99 1465.19 Q1242.19 1461.62 1238.55 1461.62 M1238.55 1457.92 Q1244.36 1457.92 1247.42 1462.53 Q1250.5 1467.11 1250.5 1475.86 Q1250.5 1484.59 1247.42 1489.19 Q1244.36 1493.78 1238.55 1493.78 Q1232.74 1493.78 1229.66 1489.19 Q1226.61 1484.59 1226.61 1475.86 Q1226.61 1467.11 1229.66 1462.53 Q1232.74 1457.92 1238.55 1457.92 Z" fill="#000000" fill-rule="evenodd" fill-opacity="1" /><path clip-path="url(#clip760)" d="M 0 0 M1250.5 1452.02 L1274.61 1452.02 L1274.61 1455.22 L1250.5 1455.22 L1250.5 1452.02 Z" fill="#000000" fill-rule="evenodd" fill-opacity="1" /><path clip-path="url(#clip760)" d="M 0 0 M1282 1462.5 L1295.26 1462.5 L1295.26 1465.69 L1277.43 1465.69 L1277.43 1462.5 Q1279.59 1460.26 1283.32 1456.5 Q1287.06 1452.72 1288.02 1451.63 Q1289.84 1449.58 1290.56 1448.16 Q1291.29 1446.74 1291.29 1445.36 Q1291.29 1443.12 1289.71 1441.71 Q1288.15 1440.3 1285.63 1440.3 Q1283.84 1440.3 1281.85 1440.92 Q1279.88 1441.54 1277.62 1442.8 L1277.62 1438.97 Q1279.91 1438.05 1281.91 1437.58 Q1283.9 1437.11 1285.56 1437.11 Q1289.92 1437.11 1292.51 1439.29 Q1295.11 1441.47 1295.11 1445.12 Q1295.11 1446.85 1294.45 1448.41 Q1293.81 1449.95 1292.1 1452.06 Q1291.63 1452.6 1289.11 1455.22 Q1286.59 1457.81 1282 1462.5 Z" fill="#000000" fill-rule="evenodd" fill-opacity="1" /><path clip-path="url(#clip760)" d="M 0 0 M1299.38 1460.92 L1303.35 1460.92 L1303.35 1465.69 L1299.38 1465.69 L1299.38 1460.92 Z" fill="#000000" fill-rule="evenodd" fill-opacity="1" /><path clip-path="url(#clip760)" d="M 0 0 M1315.59 1440.11 Q1312.66 1440.11 1311.17 1443.01 Q1309.7 1445.89 1309.7 1451.68 Q1309.7 1457.46 1311.17 1460.35 Q1312.66 1463.23 1315.59 1463.23 Q1318.54 1463.23 1320.01 1460.35 Q1321.5 1457.46 1321.5 1451.68 Q1321.5 1445.89 1320.01 1443.01 Q1318.54 1440.11 1315.59 1440.11 M1315.59 1437.11 Q1320.31 1437.11 1322.79 1440.85 Q1325.3 1444.57 1325.3 1451.68 Q1325.3 1458.77 1322.79 1462.51 Q1320.31 1466.24 1315.59 1466.24 Q1310.87 1466.24 1308.37 1462.51 Q1305.89 1458.77 1305.89 1451.68 Q1305.89 1444.57 1308.37 1440.85 Q1310.87 1437.11 1315.59 1437.11 Z" fill="#000000" fill-rule="evenodd" fill-opacity="1" /><path clip-path="url(#clip760)" d="M 0 0 M1717.35 1489.17 L1724.99 1489.17 L1724.99 1462.8 L1716.68 1464.47 L1716.68 1460.21 L1724.94 1458.54 L1729.62 1458.54 L1729.62 1489.17 L1737.25 1489.17 L1737.25 1493.1 L1717.35 1493.1 L1717.35 1489.17 Z" fill="#000000" fill-rule="evenodd" fill-opacity="1" /><path clip-path="url(#clip760)" d="M 0 0 M1752.32 1461.62 Q1748.71 1461.62 1746.88 1465.19 Q1745.08 1468.73 1745.08 1475.86 Q1745.08 1482.97 1746.88 1486.53 Q1748.71 1490.07 1752.32 1490.07 Q1755.96 1490.07 1757.76 1486.53 Q1759.59 1482.97 1759.59 1475.86 Q1759.59 1468.73 1757.76 1465.19 Q1755.96 1461.62 1752.32 1461.62 M1752.32 1457.92 Q1758.13 1457.92 1761.19 1462.53 Q1764.27 1467.11 1764.27 1475.86 Q1764.27 1484.59 1761.19 1489.19 Q1758.13 1493.78 1752.32 1493.78 Q1746.51 1493.78 1743.43 1489.19 Q1740.38 1484.59 1740.38 1475.86 Q1740.38 1467.11 1743.43 1462.53 Q1746.51 1457.92 1752.32 1457.92 Z" fill="#000000" fill-rule="evenodd" fill-opacity="1" /><path clip-path="url(#clip760)" d="M 0 0 M1764.27 1452.02 L1788.38 1452.02 L1788.38 1455.22 L1764.27 1455.22 L1764.27 1452.02 Z" fill="#000000" fill-rule="evenodd" fill-opacity="1" /><path clip-path="url(#clip760)" d="M 0 0 M1793.16 1462.5 L1799.36 1462.5 L1799.36 1441.07 L1792.61 1442.43 L1792.61 1438.97 L1799.33 1437.61 L1803.12 1437.61 L1803.12 1462.5 L1809.33 1462.5 L1809.33 1465.69 L1793.16 1465.69 L1793.16 1462.5 Z" fill="#000000" fill-rule="evenodd" fill-opacity="1" /><path clip-path="url(#clip760)" d="M 0 0 M1813.45 1460.92 L1817.42 1460.92 L1817.42 1465.69 L1813.45 1465.69 L1813.45 1460.92 Z" fill="#000000" fill-rule="evenodd" fill-opacity="1" /><path clip-path="url(#clip760)" d="M 0 0 M1821.58 1437.61 L1836.49 1437.61 L1836.49 1440.81 L1825.05 1440.81 L1825.05 1447.69 Q1825.88 1447.41 1826.71 1447.28 Q1827.54 1447.13 1828.36 1447.13 Q1833.07 1447.13 1835.81 1449.71 Q1838.56 1452.28 1838.56 1456.68 Q1838.56 1461.22 1835.74 1463.74 Q1832.92 1466.24 1827.78 1466.24 Q1826.01 1466.24 1824.17 1465.94 Q1822.35 1465.64 1820.39 1465.04 L1820.39 1461.22 Q1822.08 1462.14 1823.89 1462.59 Q1825.69 1463.04 1827.71 1463.04 Q1830.96 1463.04 1832.86 1461.33 Q1834.76 1459.62 1834.76 1456.68 Q1834.76 1453.75 1832.86 1452.04 Q1830.96 1450.33 1827.71 1450.33 Q1826.18 1450.33 1824.66 1450.67 Q1823.16 1451 1821.58 1451.72 L1821.58 1437.61 Z" fill="#000000" fill-rule="evenodd" fill-opacity="1" /><path clip-path="url(#clip760)" d="M 0 0 M2230.46 1489.17 L2238.1 1489.17 L2238.1 1462.8 L2229.79 1464.47 L2229.79 1460.21 L2238.05 1458.54 L2242.73 1458.54 L2242.73 1489.17 L2250.37 1489.17 L2250.37 1493.1 L2230.46 1493.1 L2230.46 1489.17 Z" fill="#000000" fill-rule="evenodd" fill-opacity="1" /><path clip-path="url(#clip760)" d="M 0 0 M2265.44 1461.62 Q2261.82 1461.62 2260 1465.19 Q2258.19 1468.73 2258.19 1475.86 Q2258.19 1482.97 2260 1486.53 Q2261.82 1490.07 2265.44 1490.07 Q2269.07 1490.07 2270.88 1486.53 Q2272.7 1482.97 2272.7 1475.86 Q2272.7 1468.73 2270.88 1465.19 Q2269.07 1461.62 2265.44 1461.62 M2265.44 1457.92 Q2271.25 1457.92 2274.3 1462.53 Q2277.38 1467.11 2277.38 1475.86 Q2277.38 1484.59 2274.3 1489.19 Q2271.25 1493.78 2265.44 1493.78 Q2259.63 1493.78 2256.55 1489.19 Q2253.49 1484.59 2253.49 1475.86 Q2253.49 1467.11 2256.55 1462.53 Q2259.63 1457.92 2265.44 1457.92 Z" fill="#000000" fill-rule="evenodd" fill-opacity="1" /><path clip-path="url(#clip760)" d="M 0 0 M2277.38 1452.02 L2301.49 1452.02 L2301.49 1455.22 L2277.38 1455.22 L2277.38 1452.02 Z" fill="#000000" fill-rule="evenodd" fill-opacity="1" /><path clip-path="url(#clip760)" d="M 0 0 M2306.27 1462.5 L2312.48 1462.5 L2312.48 1441.07 L2305.72 1442.43 L2305.72 1438.97 L2312.44 1437.61 L2316.24 1437.61 L2316.24 1462.5 L2322.44 1462.5 L2322.44 1465.69 L2306.27 1465.69 L2306.27 1462.5 Z" fill="#000000" fill-rule="evenodd" fill-opacity="1" /><path clip-path="url(#clip760)" d="M 0 0 M2326.56 1460.92 L2330.53 1460.92 L2330.53 1465.69 L2326.56 1465.69 L2326.56 1460.92 Z" fill="#000000" fill-rule="evenodd" fill-opacity="1" /><path clip-path="url(#clip760)" d="M 0 0 M2342.77 1440.11 Q2339.84 1440.11 2338.36 1443.01 Q2336.89 1445.89 2336.89 1451.68 Q2336.89 1457.46 2338.36 1460.35 Q2339.84 1463.23 2342.77 1463.23 Q2345.73 1463.23 2347.19 1460.35 Q2348.68 1457.46 2348.68 1451.68 Q2348.68 1445.89 2347.19 1443.01 Q2345.73 1440.11 2342.77 1440.11 M2342.77 1437.11 Q2347.5 1437.11 2349.98 1440.85 Q2352.48 1444.57 2352.48 1451.68 Q2352.48 1458.77 2349.98 1462.51 Q2347.5 1466.24 2342.77 1466.24 Q2338.05 1466.24 2335.55 1462.51 Q2333.07 1458.77 2333.07 1451.68 Q2333.07 1444.57 2335.55 1440.85 Q2338.05 1437.11 2342.77 1437.11 Z" fill="#000000" fill-rule="evenodd" fill-opacity="1" /><path clip-path="url(#clip760)" d="M 0 0 M1156.87 1526.54 L1163.08 1526.54 L1174.22 1556.46 L1185.36 1526.54 L1191.56 1526.54 L1178.2 1562.19 L1170.24 1562.19 L1156.87 1526.54 Z" fill="#000000" fill-rule="evenodd" fill-opacity="1" /><path clip-path="url(#clip760)" d="M 0 0 M1224.79 1573.01 L1224.79 1577.56 L1190.93 1577.56 L1190.93 1573.01 L1224.79 1573.01 Z" fill="#000000" fill-rule="evenodd" fill-opacity="1" /><path clip-path="url(#clip760)" d="M 0 0 M1244.75 1530.64 Q1240.04 1530.64 1237.3 1534.34 Q1234.56 1538 1234.56 1544.39 Q1234.56 1550.79 1237.27 1554.48 Q1240.01 1558.14 1244.75 1558.14 Q1249.43 1558.14 1252.16 1554.45 Q1254.9 1550.76 1254.9 1544.39 Q1254.9 1538.06 1252.16 1534.37 Q1249.43 1530.64 1244.75 1530.64 M1244.75 1525.68 Q1252.39 1525.68 1256.75 1530.64 Q1261.11 1535.61 1261.11 1544.39 Q1261.11 1553.15 1256.75 1558.14 Q1252.39 1563.11 1244.75 1563.11 Q1237.08 1563.11 1232.72 1558.14 Q1228.39 1553.15 1228.39 1544.39 Q1228.39 1535.61 1232.72 1530.64 Q1237.08 1525.68 1244.75 1525.68 Z" fill="#000000" fill-rule="evenodd" fill-opacity="1" /><path clip-path="url(#clip760)" d="M 0 0 M1272.92 1556.84 L1272.92 1575.74 L1267.03 1575.74 L1267.03 1526.54 L1272.92 1526.54 L1272.92 1531.95 Q1274.76 1528.77 1277.56 1527.24 Q1280.4 1525.68 1284.31 1525.68 Q1290.8 1525.68 1294.85 1530.83 Q1298.92 1535.99 1298.92 1544.39 Q1298.92 1552.8 1294.85 1557.95 Q1290.8 1563.11 1284.31 1563.11 Q1280.4 1563.11 1277.56 1561.58 Q1274.76 1560.02 1272.92 1556.84 M1292.84 1544.39 Q1292.84 1537.93 1290.17 1534.27 Q1287.53 1530.58 1282.88 1530.58 Q1278.23 1530.58 1275.56 1534.27 Q1272.92 1537.93 1272.92 1544.39 Q1272.92 1550.85 1275.56 1554.55 Q1278.23 1558.21 1282.88 1558.21 Q1287.53 1558.21 1290.17 1554.55 Q1292.84 1550.85 1292.84 1544.39 Z" fill="#000000" fill-rule="evenodd" fill-opacity="1" /><path clip-path="url(#clip760)" d="M 0 0 M1335.56 1542.9 L1335.56 1545.76 L1308.63 1545.76 Q1309.01 1551.81 1312.26 1554.99 Q1315.54 1558.14 1321.36 1558.14 Q1324.73 1558.14 1327.88 1557.32 Q1331.07 1556.49 1334.19 1554.83 L1334.19 1560.37 Q1331.04 1561.71 1327.73 1562.41 Q1324.42 1563.11 1321.01 1563.11 Q1312.48 1563.11 1307.48 1558.14 Q1302.52 1553.18 1302.52 1544.71 Q1302.52 1535.96 1307.23 1530.83 Q1311.97 1525.68 1319.99 1525.68 Q1327.18 1525.68 1331.35 1530.33 Q1335.56 1534.94 1335.56 1542.9 M1329.7 1541.18 Q1329.64 1536.37 1326.99 1533.51 Q1324.38 1530.64 1320.06 1530.64 Q1315.15 1530.64 1312.19 1533.41 Q1309.27 1536.18 1308.82 1541.21 L1329.7 1541.18 Z" fill="#000000" fill-rule="evenodd" fill-opacity="1" /><path clip-path="url(#clip760)" d="M 0 0 M1371.33 1540.67 L1371.33 1562.19 L1365.47 1562.19 L1365.47 1540.86 Q1365.47 1535.8 1363.5 1533.29 Q1361.53 1530.77 1357.58 1530.77 Q1352.84 1530.77 1350.1 1533.79 Q1347.36 1536.82 1347.36 1542.04 L1347.36 1562.19 L1341.48 1562.19 L1341.48 1526.54 L1347.36 1526.54 L1347.36 1532.08 Q1349.46 1528.86 1352.3 1527.27 Q1355.16 1525.68 1358.89 1525.68 Q1365.03 1525.68 1368.18 1529.5 Q1371.33 1533.29 1371.33 1540.67 Z" fill="#000000" fill-rule="evenodd" fill-opacity="1" /><polyline clip-path="url(#clip762)" style="stroke:#000000; stroke-width:2; stroke-opacity:0.1; fill:none" points="
  175.445,1363.15 2352.76,1363.15 
  "/>
<polyline clip-path="url(#clip762)" style="stroke:#000000; stroke-width:2; stroke-opacity:0.1; fill:none" points="
  175.445,1060.42 2352.76,1060.42 
  "/>
<polyline clip-path="url(#clip762)" style="stroke:#000000; stroke-width:2; stroke-opacity:0.1; fill:none" points="
  175.445,757.694 2352.76,757.694 
  "/>
<polyline clip-path="url(#clip762)" style="stroke:#000000; stroke-width:2; stroke-opacity:0.1; fill:none" points="
  175.445,454.965 2352.76,454.965 
  "/>
<polyline clip-path="url(#clip762)" style="stroke:#000000; stroke-width:2; stroke-opacity:0.1; fill:none" points="
  175.445,152.237 2352.76,152.237 
  "/>
<polyline clip-path="url(#clip760)" style="stroke:#000000; stroke-width:4; stroke-opacity:1; fill:none" points="
  175.445,1410.9 175.445,47.2441 
  "/>
<polyline clip-path="url(#clip760)" style="stroke:#000000; stroke-width:4; stroke-opacity:1; fill:none" points="
  175.445,1363.15 201.573,1363.15 
  "/>
<polyline clip-path="url(#clip760)" style="stroke:#000000; stroke-width:4; stroke-opacity:1; fill:none" points="
  175.445,1060.42 201.573,1060.42 
  "/>
<polyline clip-path="url(#clip760)" style="stroke:#000000; stroke-width:4; stroke-opacity:1; fill:none" points="
  175.445,757.694 201.573,757.694 
  "/>
<polyline clip-path="url(#clip760)" style="stroke:#000000; stroke-width:4; stroke-opacity:1; fill:none" points="
  175.445,454.965 201.573,454.965 
  "/>
<polyline clip-path="url(#clip760)" style="stroke:#000000; stroke-width:4; stroke-opacity:1; fill:none" points="
  175.445,152.237 201.573,152.237 
  "/>
<path clip-path="url(#clip760)" d="M 0 0 M132.316 1361.8 Q135.672 1362.51 137.547 1364.78 Q139.445 1367.05 139.445 1370.38 Q139.445 1375.5 135.927 1378.3 Q132.408 1381.1 125.927 1381.1 Q123.751 1381.1 121.436 1380.66 Q119.144 1380.25 116.691 1379.39 L116.691 1374.88 Q118.635 1376.01 120.95 1376.59 Q123.265 1377.17 125.788 1377.17 Q130.186 1377.17 132.478 1375.43 Q134.792 1373.69 134.792 1370.38 Q134.792 1367.33 132.64 1365.62 Q130.51 1363.88 126.691 1363.88 L122.663 1363.88 L122.663 1360.04 L126.876 1360.04 Q130.325 1360.04 132.154 1358.67 Q133.982 1357.28 133.982 1354.69 Q133.982 1352.03 132.084 1350.62 Q130.209 1349.18 126.691 1349.18 Q124.769 1349.18 122.57 1349.6 Q120.371 1350.01 117.732 1350.89 L117.732 1346.73 Q120.394 1345.99 122.709 1345.62 Q125.047 1345.25 127.107 1345.25 Q132.431 1345.25 135.533 1347.68 Q138.635 1350.08 138.635 1354.2 Q138.635 1357.07 136.992 1359.07 Q135.348 1361.03 132.316 1361.8 Z" fill="#000000" fill-rule="evenodd" fill-opacity="1" /><path clip-path="url(#clip760)" d="M 0 0 M129.862 1047.22 L118.056 1065.67 L129.862 1065.67 L129.862 1047.22 M128.635 1043.14 L134.515 1043.14 L134.515 1065.67 L139.445 1065.67 L139.445 1069.55 L134.515 1069.55 L134.515 1077.7 L129.862 1077.7 L129.862 1069.55 L114.26 1069.55 L114.26 1065.04 L128.635 1043.14 Z" fill="#000000" fill-rule="evenodd" fill-opacity="1" /><path clip-path="url(#clip760)" d="M 0 0 M118.543 740.414 L136.899 740.414 L136.899 744.349 L122.825 744.349 L122.825 752.821 Q123.843 752.474 124.862 752.312 Q125.88 752.127 126.899 752.127 Q132.686 752.127 136.066 755.298 Q139.445 758.469 139.445 763.886 Q139.445 769.465 135.973 772.566 Q132.501 775.645 126.181 775.645 Q124.005 775.645 121.737 775.275 Q119.492 774.904 117.084 774.164 L117.084 769.465 Q119.168 770.599 121.39 771.154 Q123.612 771.71 126.089 771.71 Q130.093 771.71 132.431 769.603 Q134.769 767.497 134.769 763.886 Q134.769 760.275 132.431 758.168 Q130.093 756.062 126.089 756.062 Q124.214 756.062 122.339 756.478 Q120.487 756.895 118.543 757.775 L118.543 740.414 Z" fill="#000000" fill-rule="evenodd" fill-opacity="1" /><path clip-path="url(#clip760)" d="M 0 0 M127.917 453.102 Q124.769 453.102 122.918 455.255 Q121.089 457.407 121.089 461.157 Q121.089 464.884 122.918 467.06 Q124.769 469.213 127.917 469.213 Q131.066 469.213 132.894 467.06 Q134.746 464.884 134.746 461.157 Q134.746 457.407 132.894 455.255 Q131.066 453.102 127.917 453.102 M137.2 438.449 L137.2 442.708 Q135.441 441.875 133.635 441.435 Q131.853 440.995 130.093 440.995 Q125.464 440.995 123.01 444.12 Q120.58 447.245 120.232 453.565 Q121.598 451.551 123.658 450.486 Q125.718 449.398 128.195 449.398 Q133.404 449.398 136.413 452.569 Q139.445 455.718 139.445 461.157 Q139.445 466.481 136.297 469.699 Q133.149 472.917 127.917 472.917 Q121.922 472.917 118.751 468.333 Q115.58 463.727 115.58 455 Q115.58 446.806 119.468 441.944 Q123.357 437.06 129.908 437.06 Q131.667 437.06 133.45 437.407 Q135.255 437.755 137.2 438.449 Z" fill="#000000" fill-rule="evenodd" fill-opacity="1" /><path clip-path="url(#clip760)" d="M 0 0 M117.223 134.957 L139.445 134.957 L139.445 136.947 L126.899 169.517 L122.015 169.517 L133.82 138.892 L117.223 138.892 L117.223 134.957 Z" fill="#000000" fill-rule="evenodd" fill-opacity="1" /><path clip-path="url(#clip760)" d="M 0 0 M59.1993 815.533 Q55.2526 813.336 53.3747 810.281 Q51.4968 807.225 51.4968 803.088 Q51.4968 797.518 55.4117 794.494 Q59.2948 791.47 66.4881 791.47 L88.0042 791.47 L88.0042 797.358 L66.679 797.358 Q61.5546 797.358 59.072 799.173 Q56.5894 800.987 56.5894 804.711 Q56.5894 809.262 59.6131 811.904 Q62.6368 814.546 67.8567 814.546 L88.0042 814.546 L88.0042 820.434 L66.679 820.434 Q61.5228 820.434 59.072 822.248 Q56.5894 824.063 56.5894 827.85 Q56.5894 832.338 59.6449 834.98 Q62.6686 837.622 67.8567 837.622 L88.0042 837.622 L88.0042 843.51 L52.3562 843.51 L52.3562 837.622 L57.8944 837.622 Q54.616 835.616 53.0564 832.815 Q51.4968 830.015 51.4968 826.163 Q51.4968 822.28 53.4702 819.575 Q55.4436 816.838 59.1993 815.533 Z" fill="#000000" fill-rule="evenodd" fill-opacity="1" /><path clip-path="url(#clip760)" d="M 0 0 M52.3562 785.327 L52.3562 779.471 L88.0042 779.471 L88.0042 785.327 L52.3562 785.327 M38.479 785.327 L38.479 779.471 L45.895 779.471 L45.895 785.327 L38.479 785.327 Z" fill="#000000" fill-rule="evenodd" fill-opacity="1" /><path clip-path="url(#clip760)" d="M 0 0 M66.4881 743.696 L88.0042 743.696 L88.0042 749.552 L66.679 749.552 Q61.6183 749.552 59.1038 751.525 Q56.5894 753.499 56.5894 757.446 Q56.5894 762.188 59.6131 764.925 Q62.6368 767.662 67.8567 767.662 L88.0042 767.662 L88.0042 773.551 L52.3562 773.551 L52.3562 767.662 L57.8944 767.662 Q54.6797 765.562 53.0883 762.729 Q51.4968 759.864 51.4968 756.141 Q51.4968 749.998 55.3163 746.847 Q59.1038 743.696 66.4881 743.696 Z" fill="#000000" fill-rule="evenodd" fill-opacity="1" /><path clip-path="url(#clip760)" d="M 0 0 M98.8259 710.467 L103.377 710.467 L103.377 744.332 L98.8259 744.332 L98.8259 710.467 Z" fill="#000000" fill-rule="evenodd" fill-opacity="1" /><path clip-path="url(#clip760)" d="M 0 0 M57.7671 680.866 L38.479 680.866 L38.479 675.01 L88.0042 675.01 L88.0042 680.866 L82.657 680.866 Q85.8398 682.712 87.3994 685.545 Q88.9272 688.346 88.9272 692.292 Q88.9272 698.754 83.771 702.828 Q78.6147 706.87 70.212 706.87 Q61.8093 706.87 56.6531 702.828 Q51.4968 698.754 51.4968 692.292 Q51.4968 688.346 53.0564 685.545 Q54.5842 682.712 57.7671 680.866 M70.212 700.823 Q76.6732 700.823 80.3653 698.181 Q84.0256 695.507 84.0256 690.86 Q84.0256 686.213 80.3653 683.54 Q76.6732 680.866 70.212 680.866 Q63.7508 680.866 60.0905 683.54 Q56.3984 686.213 56.3984 690.86 Q56.3984 695.507 60.0905 698.181 Q63.7508 700.823 70.212 700.823 Z" fill="#000000" fill-rule="evenodd" fill-opacity="1" /><path clip-path="url(#clip760)" d="M 0 0 M52.3562 668.867 L52.3562 663.01 L88.0042 663.01 L88.0042 668.867 L52.3562 668.867 M38.479 668.867 L38.479 663.01 L45.895 663.01 L45.895 668.867 L38.479 668.867 Z" fill="#000000" fill-rule="evenodd" fill-opacity="1" /><path clip-path="url(#clip760)" d="M 0 0 M38.479 638.821 L43.3487 638.821 L43.3487 644.422 Q43.3487 647.573 44.6219 648.815 Q45.895 650.024 49.2052 650.024 L52.3562 650.024 L52.3562 640.38 L56.9077 640.38 L56.9077 650.024 L88.0042 650.024 L88.0042 655.912 L56.9077 655.912 L56.9077 661.514 L52.3562 661.514 L52.3562 655.912 L49.8736 655.912 Q43.9216 655.912 41.2162 653.143 Q38.479 650.374 38.479 644.359 L38.479 638.821 Z" fill="#000000" fill-rule="evenodd" fill-opacity="1" /><path clip-path="url(#clip760)" d="M 0 0 M38.479 614.631 L43.3487 614.631 L43.3487 620.233 Q43.3487 623.384 44.6219 624.625 Q45.895 625.835 49.2052 625.835 L52.3562 625.835 L52.3562 616.19 L56.9077 616.19 L56.9077 625.835 L88.0042 625.835 L88.0042 631.723 L56.9077 631.723 L56.9077 637.325 L52.3562 637.325 L52.3562 631.723 L49.8736 631.723 Q43.9216 631.723 41.2162 628.954 Q38.479 626.185 38.479 620.169 L38.479 614.631 Z" fill="#000000" fill-rule="evenodd" fill-opacity="1" /><polyline clip-path="url(#clip762)" style="stroke:#009af9; stroke-width:20; stroke-opacity:1; fill:none" stroke-dasharray="80, 50" points="
  237.067,185.124 750.584,85.838 1264.1,929.367 1777.62,1226.81 2291.13,1372.3 
  "/>
<path clip-path="url(#clip760)" d="
M1987.24 213.659 L2280.18 213.659 L2280.18 92.6992 L1987.24 92.6992  Z
  " fill="#ffffff" fill-rule="evenodd" fill-opacity="1"/>
<polyline clip-path="url(#clip760)" style="stroke:#000000; stroke-width:4; stroke-opacity:1; fill:none" points="
  1987.24,213.659 2280.18,213.659 2280.18,92.6992 1987.24,92.6992 1987.24,213.659 
  "/>
<polyline clip-path="url(#clip760)" style="stroke:#009af9; stroke-width:4; stroke-opacity:1; fill:none" stroke-dasharray="16, 10" points="
  2011.43,153.179 2156.58,153.179 
  "/>
<path clip-path="url(#clip760)" d="M 0 0 M2194.62 172.867 Q2192.81 177.496 2191.1 178.908 Q2189.39 180.32 2186.52 180.32 L2183.11 180.32 L2183.11 176.755 L2185.61 176.755 Q2187.37 176.755 2188.35 175.922 Q2189.32 175.089 2190.5 171.987 L2191.26 170.043 L2180.78 144.533 L2185.29 144.533 L2193.39 164.811 L2201.49 144.533 L2206.01 144.533 L2194.62 172.867 Z" fill="#000000" fill-rule="evenodd" fill-opacity="1" /><path clip-path="url(#clip760)" d="M 0 0 M2211.89 166.524 L2219.53 166.524 L2219.53 140.158 L2211.22 141.825 L2211.22 137.566 L2219.48 135.899 L2224.16 135.899 L2224.16 166.524 L2231.79 166.524 L2231.79 170.459 L2211.89 170.459 L2211.89 166.524 Z" fill="#000000" fill-rule="evenodd" fill-opacity="1" /></svg>
