<?xml version="1.0" encoding="utf-8"?>
<svg xmlns="http://www.w3.org/2000/svg" xmlns:xlink="http://www.w3.org/1999/xlink" width="600" height="400" viewBox="0 0 2400 1600">
<defs>
  <clipPath id="clip450">
    <rect x="0" y="0" width="2400" height="1600"/>
  </clipPath>
</defs>
<path clip-path="url(#clip450)" d="
M0 1600 L2400 1600 L2400 0 L0 0  Z
  " fill="#ffffff" fill-rule="evenodd" fill-opacity="1"/>
<defs>
  <clipPath id="clip451">
    <rect x="480" y="0" width="1681" height="1600"/>
  </clipPath>
</defs>
<path clip-path="url(#clip450)" d="
M199.218 1410.9 L2352.76 1410.9 L2352.76 47.2441 L199.218 47.2441  Z
  " fill="#ffffff" fill-rule="evenodd" fill-opacity="1"/>
<defs>
  <clipPath id="clip452">
    <rect x="199" y="47" width="2155" height="1365"/>
  </clipPath>
</defs>
<polyline clip-path="url(#clip452)" style="stroke:#000000; stroke-width:2; stroke-opacity:0.1; fill:none" points="
  260.167,1410.9 260.167,47.2441 
  "/>
<polyline clip-path="url(#clip452)" style="stroke:#000000; stroke-width:2; stroke-opacity:0.1; fill:none" points="
  598.774,1410.9 598.774,47.2441 
  "/>
<polyline clip-path="url(#clip452)" style="stroke:#000000; stroke-width:2; stroke-opacity:0.1; fill:none" points="
  937.381,1410.9 937.381,47.2441 
  "/>
<polyline clip-path="url(#clip452)" style="stroke:#000000; stroke-width:2; stroke-opacity:0.1; fill:none" points="
  1275.99,1410.9 1275.99,47.2441 
  "/>
<polyline clip-path="url(#clip452)" style="stroke:#000000; stroke-width:2; stroke-opacity:0.1; fill:none" points="
  1614.59,1410.9 1614.59,47.2441 
  "/>
<polyline clip-path="url(#clip452)" style="stroke:#000000; stroke-width:2; stroke-opacity:0.1; fill:none" points="
  1953.2,1410.9 1953.2,47.2441 
  "/>
<polyline clip-path="url(#clip452)" style="stroke:#000000; stroke-width:2; stroke-opacity:0.1; fill:none" points="
  2291.81,1410.9 2291.81,47.2441 
  "/>
<polyline clip-path="url(#clip450)" style="stroke:#000000; stroke-width:4; stroke-opacity:1; fill:none" points="
  199.218,1410.9 2352.76,1410.9 
  "/>
<polyline clip-path="url(#clip450)" style="stroke:#000000; stroke-width:4; stroke-opacity:1; fill:none" points="
  260.167,1410.9 260.167,1394.53 
  "/>
<polyline clip-path="url(#clip450)" style="stroke:#000000; stroke-width:4; stroke-opacity:1; fill:none" points="
  598.774,1410.9 598.774,1394.53 
  "/>
<polyline clip-path="url(#clip450)" style="stroke:#000000; stroke-width:4; stroke-opacity:1; fill:none" points="
  937.381,1410.9 937.381,1394.53 
  "/>
<polyline clip-path="url(#clip450)" style="stroke:#000000; stroke-width:4; stroke-opacity:1; fill:none" points="
  1275.99,1410.9 1275.99,1394.53 
  "/>
<polyline clip-path="url(#clip450)" style="stroke:#000000; stroke-width:4; stroke-opacity:1; fill:none" points="
  1614.59,1410.9 1614.59,1394.53 
  "/>
<polyline clip-path="url(#clip450)" style="stroke:#000000; stroke-width:4; stroke-opacity:1; fill:none" points="
  1953.2,1410.9 1953.2,1394.53 
  "/>
<polyline clip-path="url(#clip450)" style="stroke:#000000; stroke-width:4; stroke-opacity:1; fill:none" points="
  2291.81,1410.9 2291.81,1394.53 
  "/>
<path clip-path="url(#clip450)" d="M 0 0 M213.947 1489.17 L221.585 1489.17 L221.585 1462.8 L213.275 1464.47 L213.275 1460.21 L221.539 1458.54 L226.215 1458.54 L226.215 1489.17 L233.854 1489.17 L233.854 1493.1 L213.947 1493.1 L213.947 1489.17 Z" fill="#000000" fill-rule="evenodd" fill-opacity="1" /><path clip-path="url(#clip450)" d="M 0 0 M248.923 1461.62 Q245.312 1461.62 243.483 1465.19 Q241.678 1468.73 241.678 1475.86 Q241.678 1482.97 243.483 1486.53 Q245.312 1490.07 248.923 1490.07 Q252.557 1490.07 254.363 1486.53 Q256.192 1482.97 256.192 1475.86 Q256.192 1468.73 254.363 1465.19 Q252.557 1461.62 248.923 1461.62 M248.923 1457.92 Q254.733 1457.92 257.789 1462.53 Q260.868 1467.11 260.868 1475.86 Q260.868 1484.59 257.789 1489.19 Q254.733 1493.78 248.923 1493.78 Q243.113 1493.78 240.034 1489.19 Q236.979 1484.59 236.979 1475.86 Q236.979 1467.11 240.034 1462.53 Q243.113 1457.92 248.923 1457.92 Z" fill="#000000" fill-rule="evenodd" fill-opacity="1" /><path clip-path="url(#clip450)" d="M 0 0 M260.868 1452.02 L284.979 1452.02 L284.979 1455.22 L260.868 1455.22 L260.868 1452.02 Z" fill="#000000" fill-rule="evenodd" fill-opacity="1" /><path clip-path="url(#clip450)" d="M 0 0 M297.693 1450.14 Q295.135 1450.14 293.631 1451.89 Q292.145 1453.64 292.145 1456.68 Q292.145 1459.71 293.631 1461.48 Q295.135 1463.23 297.693 1463.23 Q300.251 1463.23 301.737 1461.48 Q303.242 1459.71 303.242 1456.68 Q303.242 1453.64 301.737 1451.89 Q300.251 1450.14 297.693 1450.14 M305.235 1438.23 L305.235 1441.69 Q303.806 1441.02 302.339 1440.66 Q300.891 1440.3 299.461 1440.3 Q295.7 1440.3 293.706 1442.84 Q291.731 1445.38 291.449 1450.52 Q292.559 1448.88 294.233 1448.01 Q295.907 1447.13 297.919 1447.13 Q302.151 1447.13 304.596 1449.71 Q307.06 1452.26 307.06 1456.68 Q307.06 1461.01 304.502 1463.62 Q301.944 1466.24 297.693 1466.24 Q292.822 1466.24 290.245 1462.51 Q287.669 1458.77 287.669 1451.68 Q287.669 1445.02 290.828 1441.07 Q293.988 1437.11 299.311 1437.11 Q300.74 1437.11 302.188 1437.39 Q303.655 1437.67 305.235 1438.23 Z" fill="#000000" fill-rule="evenodd" fill-opacity="1" /><path clip-path="url(#clip450)" d="M 0 0 M553.023 1489.17 L560.662 1489.17 L560.662 1462.8 L552.352 1464.47 L552.352 1460.21 L560.616 1458.54 L565.292 1458.54 L565.292 1489.17 L572.931 1489.17 L572.931 1493.1 L553.023 1493.1 L553.023 1489.17 Z" fill="#000000" fill-rule="evenodd" fill-opacity="1" /><path clip-path="url(#clip450)" d="M 0 0 M588 1461.62 Q584.389 1461.62 582.56 1465.19 Q580.755 1468.73 580.755 1475.86 Q580.755 1482.97 582.56 1486.53 Q584.389 1490.07 588 1490.07 Q591.634 1490.07 593.44 1486.53 Q595.268 1482.97 595.268 1475.86 Q595.268 1468.73 593.44 1465.19 Q591.634 1461.62 588 1461.62 M588 1457.92 Q593.81 1457.92 596.866 1462.53 Q599.944 1467.11 599.944 1475.86 Q599.944 1484.59 596.866 1489.19 Q593.81 1493.78 588 1493.78 Q582.19 1493.78 579.111 1489.19 Q576.056 1484.59 576.056 1475.86 Q576.056 1467.11 579.111 1462.53 Q582.19 1457.92 588 1457.92 Z" fill="#000000" fill-rule="evenodd" fill-opacity="1" /><path clip-path="url(#clip450)" d="M 0 0 M599.944 1452.02 L624.056 1452.02 L624.056 1455.22 L599.944 1455.22 L599.944 1452.02 Z" fill="#000000" fill-rule="evenodd" fill-opacity="1" /><path clip-path="url(#clip450)" d="M 0 0 M628.212 1437.61 L643.127 1437.61 L643.127 1440.81 L631.692 1440.81 L631.692 1447.69 Q632.519 1447.41 633.347 1447.28 Q634.175 1447.13 635.002 1447.13 Q639.704 1447.13 642.45 1449.71 Q645.196 1452.28 645.196 1456.68 Q645.196 1461.22 642.375 1463.74 Q639.554 1466.24 634.419 1466.24 Q632.651 1466.24 630.808 1465.94 Q628.984 1465.64 627.028 1465.04 L627.028 1461.22 Q628.72 1462.14 630.526 1462.59 Q632.331 1463.04 634.344 1463.04 Q637.598 1463.04 639.497 1461.33 Q641.397 1459.62 641.397 1456.68 Q641.397 1453.75 639.497 1452.04 Q637.598 1450.33 634.344 1450.33 Q632.82 1450.33 631.297 1450.67 Q629.792 1451 628.212 1451.72 L628.212 1437.61 Z" fill="#000000" fill-rule="evenodd" fill-opacity="1" /><path clip-path="url(#clip450)" d="M 0 0 M891.028 1489.17 L898.667 1489.17 L898.667 1462.8 L890.357 1464.47 L890.357 1460.21 L898.621 1458.54 L903.296 1458.54 L903.296 1489.17 L910.935 1489.17 L910.935 1493.1 L891.028 1493.1 L891.028 1489.17 Z" fill="#000000" fill-rule="evenodd" fill-opacity="1" /><path clip-path="url(#clip450)" d="M 0 0 M926.005 1461.62 Q922.394 1461.62 920.565 1465.19 Q918.759 1468.73 918.759 1475.86 Q918.759 1482.97 920.565 1486.53 Q922.394 1490.07 926.005 1490.07 Q929.639 1490.07 931.444 1486.53 Q933.273 1482.97 933.273 1475.86 Q933.273 1468.73 931.444 1465.19 Q929.639 1461.62 926.005 1461.62 M926.005 1457.92 Q931.815 1457.92 934.87 1462.53 Q937.949 1467.11 937.949 1475.86 Q937.949 1484.59 934.87 1489.19 Q931.815 1493.78 926.005 1493.78 Q920.195 1493.78 917.116 1489.19 Q914.06 1484.59 914.06 1475.86 Q914.06 1467.11 917.116 1462.53 Q920.195 1457.92 926.005 1457.92 Z" fill="#000000" fill-rule="evenodd" fill-opacity="1" /><path clip-path="url(#clip450)" d="M 0 0 M937.949 1452.02 L962.061 1452.02 L962.061 1455.22 L937.949 1455.22 L937.949 1452.02 Z" fill="#000000" fill-rule="evenodd" fill-opacity="1" /><path clip-path="url(#clip450)" d="M 0 0 M976.618 1440.92 L967.026 1455.91 L976.618 1455.91 L976.618 1440.92 M975.621 1437.61 L980.398 1437.61 L980.398 1455.91 L984.404 1455.91 L984.404 1459.07 L980.398 1459.07 L980.398 1465.69 L976.618 1465.69 L976.618 1459.07 L963.941 1459.07 L963.941 1455.41 L975.621 1437.61 Z" fill="#000000" fill-rule="evenodd" fill-opacity="1" /><path clip-path="url(#clip450)" d="M 0 0 M1230.1 1489.17 L1237.73 1489.17 L1237.73 1462.8 L1229.42 1464.47 L1229.42 1460.21 L1237.69 1458.54 L1242.36 1458.54 L1242.36 1489.17 L1250 1489.17 L1250 1493.1 L1230.1 1493.1 L1230.1 1489.17 Z" fill="#000000" fill-rule="evenodd" fill-opacity="1" /><path clip-path="url(#clip450)" d="M 0 0 M1265.07 1461.62 Q1261.46 1461.62 1259.63 1465.19 Q1257.83 1468.73 1257.83 1475.86 Q1257.83 1482.97 1259.63 1486.53 Q1261.46 1490.07 1265.07 1490.07 Q1268.71 1490.07 1270.51 1486.53 Q1272.34 1482.97 1272.34 1475.86 Q1272.34 1468.73 1270.51 1465.19 Q1268.71 1461.62 1265.07 1461.62 M1265.07 1457.92 Q1270.88 1457.92 1273.94 1462.53 Q1277.02 1467.11 1277.02 1475.86 Q1277.02 1484.59 1273.94 1489.19 Q1270.88 1493.78 1265.07 1493.78 Q1259.26 1493.78 1256.18 1489.19 Q1253.13 1484.59 1253.13 1475.86 Q1253.13 1467.11 1256.18 1462.53 Q1259.26 1457.92 1265.07 1457.92 Z" fill="#000000" fill-rule="evenodd" fill-opacity="1" /><path clip-path="url(#clip450)" d="M 0 0 M1277.02 1452.02 L1301.13 1452.02 L1301.13 1455.22 L1277.02 1455.22 L1277.02 1452.02 Z" fill="#000000" fill-rule="evenodd" fill-opacity="1" /><path clip-path="url(#clip450)" d="M 0 0 M1316.76 1450.55 Q1319.48 1451.14 1321.01 1452.98 Q1322.55 1454.82 1322.55 1457.53 Q1322.55 1461.69 1319.69 1463.96 Q1316.83 1466.24 1311.57 1466.24 Q1309.8 1466.24 1307.92 1465.88 Q1306.06 1465.54 1304.06 1464.85 L1304.06 1461.18 Q1305.64 1462.1 1307.52 1462.57 Q1309.4 1463.04 1311.45 1463.04 Q1315.03 1463.04 1316.89 1461.63 Q1318.77 1460.22 1318.77 1457.53 Q1318.77 1455.05 1317.02 1453.66 Q1315.29 1452.25 1312.19 1452.25 L1308.91 1452.25 L1308.91 1449.12 L1312.34 1449.12 Q1315.14 1449.12 1316.63 1448.01 Q1318.11 1446.89 1318.11 1444.78 Q1318.11 1442.62 1316.57 1441.47 Q1315.05 1440.3 1312.19 1440.3 Q1310.63 1440.3 1308.84 1440.64 Q1307.05 1440.98 1304.91 1441.69 L1304.91 1438.31 Q1307.07 1437.71 1308.95 1437.41 Q1310.85 1437.11 1312.53 1437.11 Q1316.85 1437.11 1319.37 1439.08 Q1321.89 1441.04 1321.89 1444.38 Q1321.89 1446.72 1320.56 1448.33 Q1319.22 1449.93 1316.76 1450.55 Z" fill="#000000" fill-rule="evenodd" fill-opacity="1" /><path clip-path="url(#clip450)" d="M 0 0 M1569.09 1489.17 L1576.73 1489.17 L1576.73 1462.8 L1568.42 1464.47 L1568.42 1460.21 L1576.68 1458.54 L1581.36 1458.54 L1581.36 1489.17 L1588.99 1489.17 L1588.99 1493.1 L1569.09 1493.1 L1569.09 1489.17 Z" fill="#000000" fill-rule="evenodd" fill-opacity="1" /><path clip-path="url(#clip450)" d="M 0 0 M1604.06 1461.62 Q1600.45 1461.62 1598.62 1465.19 Q1596.82 1468.73 1596.82 1475.86 Q1596.82 1482.97 1598.62 1486.53 Q1600.45 1490.07 1604.06 1490.07 Q1607.7 1490.07 1609.5 1486.53 Q1611.33 1482.97 1611.33 1475.86 Q1611.33 1468.73 1609.5 1465.19 Q1607.7 1461.62 1604.06 1461.62 M1604.06 1457.92 Q1609.87 1457.92 1612.93 1462.53 Q1616.01 1467.11 1616.01 1475.86 Q1616.01 1484.59 1612.93 1489.19 Q1609.87 1493.78 1604.06 1493.78 Q1598.25 1493.78 1595.18 1489.19 Q1592.12 1484.59 1592.12 1475.86 Q1592.12 1467.11 1595.18 1462.53 Q1598.25 1457.92 1604.06 1457.92 Z" fill="#000000" fill-rule="evenodd" fill-opacity="1" /><path clip-path="url(#clip450)" d="M 0 0 M1616.01 1452.02 L1640.12 1452.02 L1640.12 1455.22 L1616.01 1455.22 L1616.01 1452.02 Z" fill="#000000" fill-rule="evenodd" fill-opacity="1" /><path clip-path="url(#clip450)" d="M 0 0 M1647.51 1462.5 L1660.77 1462.5 L1660.77 1465.69 L1642.94 1465.69 L1642.94 1462.5 Q1645.1 1460.26 1648.83 1456.5 Q1652.57 1452.72 1653.53 1451.63 Q1655.35 1449.58 1656.07 1448.16 Q1656.8 1446.74 1656.8 1445.36 Q1656.8 1443.12 1655.22 1441.71 Q1653.66 1440.3 1651.14 1440.3 Q1649.35 1440.3 1647.36 1440.92 Q1645.39 1441.54 1643.13 1442.8 L1643.13 1438.97 Q1645.42 1438.05 1647.42 1437.58 Q1649.41 1437.11 1651.07 1437.11 Q1655.43 1437.11 1658.03 1439.29 Q1660.62 1441.47 1660.62 1445.12 Q1660.62 1446.85 1659.96 1448.41 Q1659.32 1449.95 1657.61 1452.06 Q1657.14 1452.6 1654.62 1455.22 Q1652.1 1457.81 1647.51 1462.5 Z" fill="#000000" fill-rule="evenodd" fill-opacity="1" /><path clip-path="url(#clip450)" d="M 0 0 M1907.54 1489.17 L1915.18 1489.17 L1915.18 1462.8 L1906.87 1464.47 L1906.87 1460.21 L1915.14 1458.54 L1919.81 1458.54 L1919.81 1489.17 L1927.45 1489.17 L1927.45 1493.1 L1907.54 1493.1 L1907.54 1489.17 Z" fill="#000000" fill-rule="evenodd" fill-opacity="1" /><path clip-path="url(#clip450)" d="M 0 0 M1942.52 1461.62 Q1938.91 1461.62 1937.08 1465.19 Q1935.27 1468.73 1935.27 1475.86 Q1935.27 1482.97 1937.08 1486.53 Q1938.91 1490.07 1942.52 1490.07 Q1946.15 1490.07 1947.96 1486.53 Q1949.79 1482.97 1949.79 1475.86 Q1949.79 1468.73 1947.96 1465.19 Q1946.15 1461.62 1942.52 1461.62 M1942.52 1457.92 Q1948.33 1457.92 1951.39 1462.53 Q1954.46 1467.11 1954.46 1475.86 Q1954.46 1484.59 1951.39 1489.19 Q1948.33 1493.78 1942.52 1493.78 Q1936.71 1493.78 1933.63 1489.19 Q1930.58 1484.59 1930.58 1475.86 Q1930.58 1467.11 1933.63 1462.53 Q1936.71 1457.92 1942.52 1457.92 Z" fill="#000000" fill-rule="evenodd" fill-opacity="1" /><path clip-path="url(#clip450)" d="M 0 0 M1954.46 1452.02 L1978.58 1452.02 L1978.58 1455.22 L1954.46 1455.22 L1954.46 1452.02 Z" fill="#000000" fill-rule="evenodd" fill-opacity="1" /><path clip-path="url(#clip450)" d="M 0 0 M1983.35 1462.5 L1989.56 1462.5 L1989.56 1441.07 L1982.81 1442.43 L1982.81 1438.97 L1989.52 1437.61 L1993.32 1437.61 L1993.32 1462.5 L1999.53 1462.5 L1999.53 1465.69 L1983.35 1465.69 L1983.35 1462.5 Z" fill="#000000" fill-rule="evenodd" fill-opacity="1" /><path clip-path="url(#clip450)" d="M 0 0 M2258.98 1489.17 L2266.62 1489.17 L2266.62 1462.8 L2258.31 1464.47 L2258.31 1460.21 L2266.57 1458.54 L2271.25 1458.54 L2271.25 1489.17 L2278.88 1489.17 L2278.88 1493.1 L2258.98 1493.1 L2258.98 1489.17 Z" fill="#000000" fill-rule="evenodd" fill-opacity="1" /><path clip-path="url(#clip450)" d="M 0 0 M2293.95 1461.62 Q2290.34 1461.62 2288.51 1465.19 Q2286.71 1468.73 2286.71 1475.86 Q2286.71 1482.97 2288.51 1486.53 Q2290.34 1490.07 2293.95 1490.07 Q2297.59 1490.07 2299.39 1486.53 Q2301.22 1482.97 2301.22 1475.86 Q2301.22 1468.73 2299.39 1465.19 Q2297.59 1461.62 2293.95 1461.62 M2293.95 1457.92 Q2299.76 1457.92 2302.82 1462.53 Q2305.9 1467.11 2305.9 1475.86 Q2305.9 1484.59 2302.82 1489.19 Q2299.76 1493.78 2293.95 1493.78 Q2288.14 1493.78 2285.06 1489.19 Q2282.01 1484.59 2282.01 1475.86 Q2282.01 1467.11 2285.06 1462.53 Q2288.14 1457.92 2293.95 1457.92 Z" fill="#000000" fill-rule="evenodd" fill-opacity="1" /><path clip-path="url(#clip450)" d="M 0 0 M2315.6 1440.11 Q2312.67 1440.11 2311.18 1443.01 Q2309.72 1445.89 2309.72 1451.68 Q2309.72 1457.46 2311.18 1460.35 Q2312.67 1463.23 2315.6 1463.23 Q2318.56 1463.23 2320.02 1460.35 Q2321.51 1457.46 2321.51 1451.68 Q2321.51 1445.89 2320.02 1443.01 Q2318.56 1440.11 2315.6 1440.11 M2315.6 1437.11 Q2320.32 1437.11 2322.81 1440.85 Q2325.31 1444.57 2325.31 1451.68 Q2325.31 1458.77 2322.81 1462.51 Q2320.32 1466.24 2315.6 1466.24 Q2310.88 1466.24 2308.38 1462.51 Q2305.9 1458.77 2305.9 1451.68 Q2305.9 1444.57 2308.38 1440.85 Q2310.88 1437.11 2315.6 1437.11 Z" fill="#000000" fill-rule="evenodd" fill-opacity="1" /><path clip-path="url(#clip450)" d="M 0 0 M1201.21 1512.66 L1207.09 1512.66 L1207.09 1541.91 L1224.57 1526.54 L1232.05 1526.54 L1213.14 1543.22 L1232.84 1562.19 L1225.2 1562.19 L1207.09 1544.78 L1207.09 1562.19 L1201.21 1562.19 L1201.21 1512.66 Z" fill="#000000" fill-rule="evenodd" fill-opacity="1" /><path clip-path="url(#clip450)" d="M 0 0 M1266.07 1573.01 L1266.07 1577.56 L1232.21 1577.56 L1232.21 1573.01 L1266.07 1573.01 Z" fill="#000000" fill-rule="evenodd" fill-opacity="1" /><path clip-path="url(#clip450)" d="M 0 0 M1286.03 1530.64 Q1281.32 1530.64 1278.58 1534.34 Q1275.84 1538 1275.84 1544.39 Q1275.84 1550.79 1278.55 1554.48 Q1281.29 1558.14 1286.03 1558.14 Q1290.71 1558.14 1293.45 1554.45 Q1296.18 1550.76 1296.18 1544.39 Q1296.18 1538.06 1293.45 1534.37 Q1290.71 1530.64 1286.03 1530.64 M1286.03 1525.68 Q1293.67 1525.68 1298.03 1530.64 Q1302.39 1535.61 1302.39 1544.39 Q1302.39 1553.15 1298.03 1558.14 Q1293.67 1563.11 1286.03 1563.11 Q1278.36 1563.11 1274 1558.14 Q1269.67 1553.15 1269.67 1544.39 Q1269.67 1535.61 1274 1530.64 Q1278.36 1525.68 1286.03 1525.68 Z" fill="#000000" fill-rule="evenodd" fill-opacity="1" /><path clip-path="url(#clip450)" d="M 0 0 M1326.58 1512.66 L1326.58 1517.53 L1320.98 1517.53 Q1317.83 1517.53 1316.58 1518.8 Q1315.37 1520.08 1315.37 1523.39 L1315.37 1526.54 L1325.02 1526.54 L1325.02 1531.09 L1315.37 1531.09 L1315.37 1562.19 L1309.49 1562.19 L1309.49 1531.09 L1303.88 1531.09 L1303.88 1526.54 L1309.49 1526.54 L1309.49 1524.05 Q1309.49 1518.1 1312.26 1515.4 Q1315.02 1512.66 1321.04 1512.66 L1326.58 1512.66 Z" fill="#000000" fill-rule="evenodd" fill-opacity="1" /><path clip-path="url(#clip450)" d="M 0 0 M1350.77 1512.66 L1350.77 1517.53 L1345.17 1517.53 Q1342.02 1517.53 1340.77 1518.8 Q1339.56 1520.08 1339.56 1523.39 L1339.56 1526.54 L1349.21 1526.54 L1349.21 1531.09 L1339.56 1531.09 L1339.56 1562.19 L1333.68 1562.19 L1333.68 1531.09 L1328.07 1531.09 L1328.07 1526.54 L1333.68 1526.54 L1333.68 1524.05 Q1333.68 1518.1 1336.45 1515.4 Q1339.21 1512.66 1345.23 1512.66 L1350.77 1512.66 Z" fill="#000000" fill-rule="evenodd" fill-opacity="1" /><polyline clip-path="url(#clip452)" style="stroke:#000000; stroke-width:2; stroke-opacity:0.1; fill:none" points="
  199.218,1120.1 2352.76,1120.1 
  "/>
<polyline clip-path="url(#clip452)" style="stroke:#000000; stroke-width:2; stroke-opacity:0.1; fill:none" points="
  199.218,820.753 2352.76,820.753 
  "/>
<polyline clip-path="url(#clip452)" style="stroke:#000000; stroke-width:2; stroke-opacity:0.1; fill:none" points="
  199.218,521.407 2352.76,521.407 
  "/>
<polyline clip-path="url(#clip452)" style="stroke:#000000; stroke-width:2; stroke-opacity:0.1; fill:none" points="
  199.218,222.061 2352.76,222.061 
  "/>
<polyline clip-path="url(#clip450)" style="stroke:#000000; stroke-width:4; stroke-opacity:1; fill:none" points="
  199.218,1410.9 199.218,47.2441 
  "/>
<polyline clip-path="url(#clip450)" style="stroke:#000000; stroke-width:4; stroke-opacity:1; fill:none" points="
  199.218,1120.1 225.061,1120.1 
  "/>
<polyline clip-path="url(#clip450)" style="stroke:#000000; stroke-width:4; stroke-opacity:1; fill:none" points="
  199.218,820.753 225.061,820.753 
  "/>
<polyline clip-path="url(#clip450)" style="stroke:#000000; stroke-width:4; stroke-opacity:1; fill:none" points="
  199.218,521.407 225.061,521.407 
  "/>
<polyline clip-path="url(#clip450)" style="stroke:#000000; stroke-width:4; stroke-opacity:1; fill:none" points="
  199.218,222.061 225.061,222.061 
  "/>
<path clip-path="url(#clip450)" d="M 0 0 M142.316 1102.82 L160.672 1102.82 L160.672 1106.75 L146.598 1106.75 L146.598 1115.23 Q147.616 1114.88 148.635 1114.72 Q149.653 1114.53 150.672 1114.53 Q156.459 1114.53 159.839 1117.7 Q163.218 1120.87 163.218 1126.29 Q163.218 1131.87 159.746 1134.97 Q156.274 1138.05 149.954 1138.05 Q147.778 1138.05 145.51 1137.68 Q143.265 1137.31 140.857 1136.57 L140.857 1131.87 Q142.941 1133 145.163 1133.56 Q147.385 1134.11 149.862 1134.11 Q153.866 1134.11 156.204 1132.01 Q158.542 1129.9 158.542 1126.29 Q158.542 1122.68 156.204 1120.57 Q153.866 1118.47 149.862 1118.47 Q147.987 1118.47 146.112 1118.88 Q144.26 1119.3 142.316 1120.18 L142.316 1102.82 Z" fill="#000000" fill-rule="evenodd" fill-opacity="1" /><path clip-path="url(#clip450)" d="M 0 0 M116.297 834.097 L123.936 834.097 L123.936 807.732 L115.626 809.399 L115.626 805.139 L123.89 803.473 L128.566 803.473 L128.566 834.097 L136.204 834.097 L136.204 838.033 L116.297 838.033 L116.297 834.097 Z" fill="#000000" fill-rule="evenodd" fill-opacity="1" /><path clip-path="url(#clip450)" d="M 0 0 M151.274 806.551 Q147.663 806.551 145.834 810.116 Q144.029 813.658 144.029 820.787 Q144.029 827.894 145.834 831.459 Q147.663 835 151.274 835 Q154.908 835 156.714 831.459 Q158.542 827.894 158.542 820.787 Q158.542 813.658 156.714 810.116 Q154.908 806.551 151.274 806.551 M151.274 802.848 Q157.084 802.848 160.14 807.454 Q163.218 812.037 163.218 820.787 Q163.218 829.514 160.14 834.121 Q157.084 838.704 151.274 838.704 Q145.464 838.704 142.385 834.121 Q139.329 829.514 139.329 820.787 Q139.329 812.037 142.385 807.454 Q145.464 802.848 151.274 802.848 Z" fill="#000000" fill-rule="evenodd" fill-opacity="1" /><path clip-path="url(#clip450)" d="M 0 0 M117.293 534.752 L124.931 534.752 L124.931 508.386 L116.621 510.053 L116.621 505.793 L124.885 504.127 L129.561 504.127 L129.561 534.752 L137.2 534.752 L137.2 538.687 L117.293 538.687 L117.293 534.752 Z" fill="#000000" fill-rule="evenodd" fill-opacity="1" /><path clip-path="url(#clip450)" d="M 0 0 M142.316 504.127 L160.672 504.127 L160.672 508.062 L146.598 508.062 L146.598 516.534 Q147.616 516.187 148.635 516.025 Q149.653 515.84 150.672 515.84 Q156.459 515.84 159.839 519.011 Q163.218 522.182 163.218 527.599 Q163.218 533.178 159.746 536.279 Q156.274 539.358 149.954 539.358 Q147.778 539.358 145.51 538.988 Q143.265 538.617 140.857 537.877 L140.857 533.178 Q142.941 534.312 145.163 534.867 Q147.385 535.423 149.862 535.423 Q153.866 535.423 156.204 533.316 Q158.542 531.21 158.542 527.599 Q158.542 523.988 156.204 521.881 Q153.866 519.775 149.862 519.775 Q147.987 519.775 146.112 520.192 Q144.26 520.608 142.316 521.488 L142.316 504.127 Z" fill="#000000" fill-rule="evenodd" fill-opacity="1" /><path clip-path="url(#clip450)" d="M 0 0 M119.885 235.406 L136.204 235.406 L136.204 239.341 L114.26 239.341 L114.26 235.406 Q116.922 232.651 121.505 228.022 Q126.112 223.369 127.292 222.026 Q129.538 219.503 130.417 217.767 Q131.32 216.008 131.32 214.318 Q131.32 211.563 129.376 209.827 Q127.455 208.091 124.353 208.091 Q122.154 208.091 119.7 208.855 Q117.269 209.619 114.492 211.17 L114.492 206.448 Q117.316 205.313 119.769 204.735 Q122.223 204.156 124.26 204.156 Q129.63 204.156 132.825 206.841 Q136.019 209.526 136.019 214.017 Q136.019 216.147 135.209 218.068 Q134.422 219.966 132.316 222.559 Q131.737 223.23 128.635 226.448 Q125.533 229.642 119.885 235.406 Z" fill="#000000" fill-rule="evenodd" fill-opacity="1" /><path clip-path="url(#clip450)" d="M 0 0 M151.274 207.86 Q147.663 207.86 145.834 211.425 Q144.029 214.966 144.029 222.096 Q144.029 229.202 145.834 232.767 Q147.663 236.309 151.274 236.309 Q154.908 236.309 156.714 232.767 Q158.542 229.202 158.542 222.096 Q158.542 214.966 156.714 211.425 Q154.908 207.86 151.274 207.86 M151.274 204.156 Q157.084 204.156 160.14 208.762 Q163.218 213.346 163.218 222.096 Q163.218 230.823 160.14 235.429 Q157.084 240.012 151.274 240.012 Q145.464 240.012 142.385 235.429 Q139.329 230.823 139.329 222.096 Q139.329 213.346 142.385 208.762 Q145.464 204.156 151.274 204.156 Z" fill="#000000" fill-rule="evenodd" fill-opacity="1" /><path clip-path="url(#clip450)" d="M 0 0 M59.1993 815.533 Q55.2526 813.336 53.3747 810.281 Q51.4968 807.225 51.4968 803.088 Q51.4968 797.518 55.4117 794.494 Q59.2948 791.47 66.4881 791.47 L88.0042 791.47 L88.0042 797.358 L66.679 797.358 Q61.5546 797.358 59.072 799.173 Q56.5894 800.987 56.5894 804.711 Q56.5894 809.262 59.6131 811.904 Q62.6368 814.546 67.8567 814.546 L88.0042 814.546 L88.0042 820.434 L66.679 820.434 Q61.5228 820.434 59.072 822.248 Q56.5894 824.063 56.5894 827.85 Q56.5894 832.338 59.6449 834.98 Q62.6686 837.622 67.8567 837.622 L88.0042 837.622 L88.0042 843.51 L52.3562 843.51 L52.3562 837.622 L57.8944 837.622 Q54.616 835.616 53.0564 832.815 Q51.4968 830.015 51.4968 826.163 Q51.4968 822.28 53.4702 819.575 Q55.4436 816.838 59.1993 815.533 Z" fill="#000000" fill-rule="evenodd" fill-opacity="1" /><path clip-path="url(#clip450)" d="M 0 0 M52.3562 785.327 L52.3562 779.471 L88.0042 779.471 L88.0042 785.327 L52.3562 785.327 M38.479 785.327 L38.479 779.471 L45.895 779.471 L45.895 785.327 L38.479 785.327 Z" fill="#000000" fill-rule="evenodd" fill-opacity="1" /><path clip-path="url(#clip450)" d="M 0 0 M66.4881 743.696 L88.0042 743.696 L88.0042 749.552 L66.679 749.552 Q61.6183 749.552 59.1038 751.525 Q56.5894 753.499 56.5894 757.446 Q56.5894 762.188 59.6131 764.925 Q62.6368 767.662 67.8567 767.662 L88.0042 767.662 L88.0042 773.551 L52.3562 773.551 L52.3562 767.662 L57.8944 767.662 Q54.6797 765.562 53.0883 762.729 Q51.4968 759.864 51.4968 756.141 Q51.4968 749.998 55.3163 746.847 Q59.1038 743.696 66.4881 743.696 Z" fill="#000000" fill-rule="evenodd" fill-opacity="1" /><path clip-path="url(#clip450)" d="M 0 0 M98.8259 710.467 L103.377 710.467 L103.377 744.332 L98.8259 744.332 L98.8259 710.467 Z" fill="#000000" fill-rule="evenodd" fill-opacity="1" /><path clip-path="url(#clip450)" d="M 0 0 M57.7671 680.866 L38.479 680.866 L38.479 675.01 L88.0042 675.01 L88.0042 680.866 L82.657 680.866 Q85.8398 682.712 87.3994 685.545 Q88.9272 688.346 88.9272 692.292 Q88.9272 698.754 83.771 702.828 Q78.6147 706.87 70.212 706.87 Q61.8093 706.87 56.6531 702.828 Q51.4968 698.754 51.4968 692.292 Q51.4968 688.346 53.0564 685.545 Q54.5842 682.712 57.7671 680.866 M70.212 700.823 Q76.6732 700.823 80.3653 698.181 Q84.0256 695.507 84.0256 690.86 Q84.0256 686.213 80.3653 683.54 Q76.6732 680.866 70.212 680.866 Q63.7508 680.866 60.0905 683.54 Q56.3984 686.213 56.3984 690.86 Q56.3984 695.507 60.0905 698.181 Q63.7508 700.823 70.212 700.823 Z" fill="#000000" fill-rule="evenodd" fill-opacity="1" /><path clip-path="url(#clip450)" d="M 0 0 M52.3562 668.867 L52.3562 663.01 L88.0042 663.01 L88.0042 668.867 L52.3562 668.867 M38.479 668.867 L38.479 663.01 L45.895 663.01 L45.895 668.867 L38.479 668.867 Z" fill="#000000" fill-rule="evenodd" fill-opacity="1" /><path clip-path="url(#clip450)" d="M 0 0 M38.479 638.821 L43.3487 638.821 L43.3487 644.422 Q43.3487 647.573 44.6219 648.815 Q45.895 650.024 49.2052 650.024 L52.3562 650.024 L52.3562 640.38 L56.9077 640.38 L56.9077 650.024 L88.0042 650.024 L88.0042 655.912 L56.9077 655.912 L56.9077 661.514 L52.3562 661.514 L52.3562 655.912 L49.8736 655.912 Q43.9216 655.912 41.2162 653.143 Q38.479 650.374 38.479 644.359 L38.479 638.821 Z" fill="#000000" fill-rule="evenodd" fill-opacity="1" /><path clip-path="url(#clip450)" d="M 0 0 M38.479 614.631 L43.3487 614.631 L43.3487 620.233 Q43.3487 623.384 44.6219 624.625 Q45.895 625.835 49.2052 625.835 L52.3562 625.835 L52.3562 616.19 L56.9077 616.19 L56.9077 625.835 L88.0042 625.835 L88.0042 631.723 L56.9077 631.723 L56.9077 637.325 L52.3562 637.325 L52.3562 631.723 L49.8736 631.723 Q43.9216 631.723 41.2162 628.954 Q38.479 626.185 38.479 620.169 L38.479 614.631 Z" fill="#000000" fill-rule="evenodd" fill-opacity="1" /><polyline clip-path="url(#clip452)" style="stroke:#009af9; stroke-width:20; stroke-opacity:1; fill:none" stroke-dasharray="80, 50" points="
  260.167,1309.22 429.471,1300.85 598.774,1295.88 700.705,1322.43 768.077,1294.11 835.45,1333.11 870.008,1291.77 937.381,1306.73 1004.75,1304.7 1039.31,1316.13 
  1106.68,1302.41 1174.06,1331.18 1208.61,1295.44 1275.99,1316.01 1343.36,1297.09 1377.92,1119.51 1445.29,1341.39 1512.66,1236.09 1547.22,102.377 1614.59,1372.3 
  1681.97,947.221 1716.52,85.838 1783.9,1347.38 1851.27,565.703 1953.2,1248.26 2122.5,1271.96 2291.81,1325.64 
  "/>
<path clip-path="url(#clip450)" d="
M1990.67 213.659 L2280.97 213.659 L2280.97 92.6992 L1990.67 92.6992  Z
  " fill="#ffffff" fill-rule="evenodd" fill-opacity="1"/>
<polyline clip-path="url(#clip450)" style="stroke:#000000; stroke-width:4; stroke-opacity:1; fill:none" points="
  1990.67,213.659 2280.97,213.659 2280.97,92.6992 1990.67,92.6992 1990.67,213.659 
  "/>
<polyline clip-path="url(#clip450)" style="stroke:#009af9; stroke-width:4; stroke-opacity:1; fill:none" stroke-dasharray="16, 10" points="
  2014.6,153.179 2158.17,153.179 
  "/>
<path clip-path="url(#clip450)" d="M 0 0 M2195.94 172.867 Q2194.13 177.496 2192.42 178.908 Q2190.71 180.32 2187.84 180.32 L2184.43 180.32 L2184.43 176.755 L2186.93 176.755 Q2188.69 176.755 2189.67 175.922 Q2190.64 175.089 2191.82 171.987 L2192.58 170.043 L2182.1 144.533 L2186.61 144.533 L2194.71 164.811 L2202.81 144.533 L2207.33 144.533 L2195.94 172.867 Z" fill="#000000" fill-rule="evenodd" fill-opacity="1" /><path clip-path="url(#clip450)" d="M 0 0 M2213.21 166.524 L2220.85 166.524 L2220.85 140.158 L2212.54 141.825 L2212.54 137.566 L2220.8 135.899 L2225.48 135.899 L2225.48 166.524 L2233.11 166.524 L2233.11 170.459 L2213.21 170.459 L2213.21 166.524 Z" fill="#000000" fill-rule="evenodd" fill-opacity="1" /></svg>
