<?xml version="1.0" encoding="utf-8"?>
<svg xmlns="http://www.w3.org/2000/svg" xmlns:xlink="http://www.w3.org/1999/xlink" width="600" height="400" viewBox="0 0 2400 1600">
<defs>
  <clipPath id="clip790">
    <rect x="0" y="0" width="2400" height="1600"/>
  </clipPath>
</defs>
<path clip-path="url(#clip790)" d="
M0 1600 L2400 1600 L2400 0 L0 0  Z
  " fill="#ffffff" fill-rule="evenodd" fill-opacity="1"/>
<defs>
  <clipPath id="clip791">
    <rect x="480" y="0" width="1681" height="1600"/>
  </clipPath>
</defs>
<path clip-path="url(#clip790)" d="
M201.464 1410.9 L2352.76 1410.9 L2352.76 47.2441 L201.464 47.2441  Z
  " fill="#ffffff" fill-rule="evenodd" fill-opacity="1"/>
<defs>
  <clipPath id="clip792">
    <rect x="201" y="47" width="2152" height="1365"/>
  </clipPath>
</defs>
<polyline clip-path="url(#clip792)" style="stroke:#000000; stroke-width:2; stroke-opacity:0.1; fill:none" points="
  262.349,1410.9 262.349,47.2441 
  "/>
<polyline clip-path="url(#clip792)" style="stroke:#000000; stroke-width:2; stroke-opacity:0.1; fill:none" points="
  668.253,1410.9 668.253,47.2441 
  "/>
<polyline clip-path="url(#clip792)" style="stroke:#000000; stroke-width:2; stroke-opacity:0.1; fill:none" points="
  1074.16,1410.9 1074.16,47.2441 
  "/>
<polyline clip-path="url(#clip792)" style="stroke:#000000; stroke-width:2; stroke-opacity:0.1; fill:none" points="
  1480.06,1410.9 1480.06,47.2441 
  "/>
<polyline clip-path="url(#clip792)" style="stroke:#000000; stroke-width:2; stroke-opacity:0.1; fill:none" points="
  1885.97,1410.9 1885.97,47.2441 
  "/>
<polyline clip-path="url(#clip792)" style="stroke:#000000; stroke-width:2; stroke-opacity:0.1; fill:none" points="
  2291.87,1410.9 2291.87,47.2441 
  "/>
<polyline clip-path="url(#clip790)" style="stroke:#000000; stroke-width:4; stroke-opacity:1; fill:none" points="
  201.464,1410.9 2352.76,1410.9 
  "/>
<polyline clip-path="url(#clip790)" style="stroke:#000000; stroke-width:4; stroke-opacity:1; fill:none" points="
  262.349,1410.9 262.349,1394.53 
  "/>
<polyline clip-path="url(#clip790)" style="stroke:#000000; stroke-width:4; stroke-opacity:1; fill:none" points="
  668.253,1410.9 668.253,1394.53 
  "/>
<polyline clip-path="url(#clip790)" style="stroke:#000000; stroke-width:4; stroke-opacity:1; fill:none" points="
  1074.16,1410.9 1074.16,1394.53 
  "/>
<polyline clip-path="url(#clip790)" style="stroke:#000000; stroke-width:4; stroke-opacity:1; fill:none" points="
  1480.06,1410.9 1480.06,1394.53 
  "/>
<polyline clip-path="url(#clip790)" style="stroke:#000000; stroke-width:4; stroke-opacity:1; fill:none" points="
  1885.97,1410.9 1885.97,1394.53 
  "/>
<polyline clip-path="url(#clip790)" style="stroke:#000000; stroke-width:4; stroke-opacity:1; fill:none" points="
  2291.87,1410.9 2291.87,1394.53 
  "/>
<path clip-path="url(#clip790)" d="M 0 0 M201.581 1489.17 L209.219 1489.17 L209.219 1462.8 L200.909 1464.47 L200.909 1460.21 L209.173 1458.54 L213.849 1458.54 L213.849 1489.17 L221.488 1489.17 L221.488 1493.1 L201.581 1493.1 L201.581 1489.17 Z" fill="#000000" fill-rule="evenodd" fill-opacity="1" /><path clip-path="url(#clip790)" d="M 0 0 M236.557 1461.62 Q232.946 1461.62 231.117 1465.19 Q229.312 1468.73 229.312 1475.86 Q229.312 1482.97 231.117 1486.53 Q232.946 1490.07 236.557 1490.07 Q240.191 1490.07 241.997 1486.53 Q243.826 1482.97 243.826 1475.86 Q243.826 1468.73 241.997 1465.19 Q240.191 1461.62 236.557 1461.62 M236.557 1457.92 Q242.367 1457.92 245.423 1462.53 Q248.502 1467.11 248.502 1475.86 Q248.502 1484.59 245.423 1489.19 Q242.367 1493.78 236.557 1493.78 Q230.747 1493.78 227.668 1489.19 Q224.613 1484.59 224.613 1475.86 Q224.613 1467.11 227.668 1462.53 Q230.747 1457.92 236.557 1457.92 Z" fill="#000000" fill-rule="evenodd" fill-opacity="1" /><path clip-path="url(#clip790)" d="M 0 0 M248.502 1452.02 L272.613 1452.02 L272.613 1455.22 L248.502 1455.22 L248.502 1452.02 Z" fill="#000000" fill-rule="evenodd" fill-opacity="1" /><path clip-path="url(#clip790)" d="M 0 0 M276.77 1437.61 L291.684 1437.61 L291.684 1440.81 L280.249 1440.81 L280.249 1447.69 Q281.077 1447.41 281.904 1447.28 Q282.732 1447.13 283.559 1447.13 Q288.261 1447.13 291.007 1449.71 Q293.753 1452.28 293.753 1456.68 Q293.753 1461.22 290.932 1463.74 Q288.111 1466.24 282.976 1466.24 Q281.208 1466.24 279.365 1465.94 Q277.541 1465.64 275.585 1465.04 L275.585 1461.22 Q277.278 1462.14 279.083 1462.59 Q280.889 1463.04 282.901 1463.04 Q286.155 1463.04 288.054 1461.33 Q289.954 1459.62 289.954 1456.68 Q289.954 1453.75 288.054 1452.04 Q286.155 1450.33 282.901 1450.33 Q281.378 1450.33 279.854 1450.67 Q278.35 1451 276.77 1451.72 L276.77 1437.61 Z" fill="#000000" fill-rule="evenodd" fill-opacity="1" /><path clip-path="url(#clip790)" d="M 0 0 M297.872 1460.92 L301.84 1460.92 L301.84 1465.69 L297.872 1465.69 L297.872 1460.92 Z" fill="#000000" fill-rule="evenodd" fill-opacity="1" /><path clip-path="url(#clip790)" d="M 0 0 M314.084 1440.11 Q311.15 1440.11 309.665 1443.01 Q308.197 1445.89 308.197 1451.68 Q308.197 1457.46 309.665 1460.35 Q311.15 1463.23 314.084 1463.23 Q317.037 1463.23 318.504 1460.35 Q319.99 1457.46 319.99 1451.68 Q319.99 1445.89 318.504 1443.01 Q317.037 1440.11 314.084 1440.11 M314.084 1437.11 Q318.805 1437.11 321.288 1440.85 Q323.789 1444.57 323.789 1451.68 Q323.789 1458.77 321.288 1462.51 Q318.805 1466.24 314.084 1466.24 Q309.364 1466.24 306.862 1462.51 Q304.38 1458.77 304.38 1451.68 Q304.38 1444.57 306.862 1440.85 Q309.364 1437.11 314.084 1437.11 Z" fill="#000000" fill-rule="evenodd" fill-opacity="1" /><path clip-path="url(#clip790)" d="M 0 0 M606.958 1489.17 L614.597 1489.17 L614.597 1462.8 L606.287 1464.47 L606.287 1460.21 L614.551 1458.54 L619.227 1458.54 L619.227 1489.17 L626.865 1489.17 L626.865 1493.1 L606.958 1493.1 L606.958 1489.17 Z" fill="#000000" fill-rule="evenodd" fill-opacity="1" /><path clip-path="url(#clip790)" d="M 0 0 M641.935 1461.62 Q638.324 1461.62 636.495 1465.19 Q634.69 1468.73 634.69 1475.86 Q634.69 1482.97 636.495 1486.53 Q638.324 1490.07 641.935 1490.07 Q645.569 1490.07 647.375 1486.53 Q649.203 1482.97 649.203 1475.86 Q649.203 1468.73 647.375 1465.19 Q645.569 1461.62 641.935 1461.62 M641.935 1457.92 Q647.745 1457.92 650.801 1462.53 Q653.879 1467.11 653.879 1475.86 Q653.879 1484.59 650.801 1489.19 Q647.745 1493.78 641.935 1493.78 Q636.125 1493.78 633.046 1489.19 Q629.99 1484.59 629.99 1475.86 Q629.99 1467.11 633.046 1462.53 Q636.125 1457.92 641.935 1457.92 Z" fill="#000000" fill-rule="evenodd" fill-opacity="1" /><path clip-path="url(#clip790)" d="M 0 0 M653.879 1452.02 L677.991 1452.02 L677.991 1455.22 L653.879 1455.22 L653.879 1452.02 Z" fill="#000000" fill-rule="evenodd" fill-opacity="1" /><path clip-path="url(#clip790)" d="M 0 0 M692.548 1440.92 L682.956 1455.91 L692.548 1455.91 L692.548 1440.92 M691.551 1437.61 L696.328 1437.61 L696.328 1455.91 L700.334 1455.91 L700.334 1459.07 L696.328 1459.07 L696.328 1465.69 L692.548 1465.69 L692.548 1459.07 L679.872 1459.07 L679.872 1455.41 L691.551 1437.61 Z" fill="#000000" fill-rule="evenodd" fill-opacity="1" /><path clip-path="url(#clip790)" d="M 0 0 M704.453 1460.92 L708.422 1460.92 L708.422 1465.69 L704.453 1465.69 L704.453 1460.92 Z" fill="#000000" fill-rule="evenodd" fill-opacity="1" /><path clip-path="url(#clip790)" d="M 0 0 M712.654 1465.11 L712.654 1461.65 Q714.083 1462.33 715.55 1462.68 Q717.017 1463.04 718.427 1463.04 Q722.189 1463.04 724.164 1460.52 Q726.157 1457.98 726.44 1452.83 Q725.349 1454.45 723.675 1455.31 Q722.001 1456.18 719.97 1456.18 Q715.757 1456.18 713.293 1453.64 Q710.848 1451.08 710.848 1446.66 Q710.848 1442.33 713.406 1439.72 Q715.964 1437.11 720.214 1437.11 Q725.085 1437.11 727.643 1440.85 Q730.22 1444.57 730.22 1451.68 Q730.22 1458.32 727.06 1462.29 Q723.919 1466.24 718.597 1466.24 Q717.167 1466.24 715.7 1465.96 Q714.233 1465.67 712.654 1465.11 M720.214 1453.21 Q722.772 1453.21 724.258 1451.46 Q725.763 1449.71 725.763 1446.66 Q725.763 1443.63 724.258 1441.88 Q722.772 1440.11 720.214 1440.11 Q717.656 1440.11 716.152 1441.88 Q714.666 1443.63 714.666 1446.66 Q714.666 1449.71 716.152 1451.46 Q717.656 1453.21 720.214 1453.21 Z" fill="#000000" fill-rule="evenodd" fill-opacity="1" /><path clip-path="url(#clip790)" d="M 0 0 M1012.82 1489.17 L1020.46 1489.17 L1020.46 1462.8 L1012.15 1464.47 L1012.15 1460.21 L1020.42 1458.54 L1025.09 1458.54 L1025.09 1489.17 L1032.73 1489.17 L1032.73 1493.1 L1012.82 1493.1 L1012.82 1489.17 Z" fill="#000000" fill-rule="evenodd" fill-opacity="1" /><path clip-path="url(#clip790)" d="M 0 0 M1047.8 1461.62 Q1044.19 1461.62 1042.36 1465.19 Q1040.56 1468.73 1040.56 1475.86 Q1040.56 1482.97 1042.36 1486.53 Q1044.19 1490.07 1047.8 1490.07 Q1051.44 1490.07 1053.24 1486.53 Q1055.07 1482.97 1055.07 1475.86 Q1055.07 1468.73 1053.24 1465.19 Q1051.44 1461.62 1047.8 1461.62 M1047.8 1457.92 Q1053.61 1457.92 1056.67 1462.53 Q1059.75 1467.11 1059.75 1475.86 Q1059.75 1484.59 1056.67 1489.19 Q1053.61 1493.78 1047.8 1493.78 Q1041.99 1493.78 1038.91 1489.19 Q1035.86 1484.59 1035.86 1475.86 Q1035.86 1467.11 1038.91 1462.53 Q1041.99 1457.92 1047.8 1457.92 Z" fill="#000000" fill-rule="evenodd" fill-opacity="1" /><path clip-path="url(#clip790)" d="M 0 0 M1059.75 1452.02 L1083.86 1452.02 L1083.86 1455.22 L1059.75 1455.22 L1059.75 1452.02 Z" fill="#000000" fill-rule="evenodd" fill-opacity="1" /><path clip-path="url(#clip790)" d="M 0 0 M1098.41 1440.92 L1088.82 1455.91 L1098.41 1455.91 L1098.41 1440.92 M1097.42 1437.61 L1102.19 1437.61 L1102.19 1455.91 L1106.2 1455.91 L1106.2 1459.07 L1102.19 1459.07 L1102.19 1465.69 L1098.41 1465.69 L1098.41 1459.07 L1085.74 1459.07 L1085.74 1455.41 L1097.42 1437.61 Z" fill="#000000" fill-rule="evenodd" fill-opacity="1" /><path clip-path="url(#clip790)" d="M 0 0 M1110.32 1460.92 L1114.29 1460.92 L1114.29 1465.69 L1110.32 1465.69 L1110.32 1460.92 Z" fill="#000000" fill-rule="evenodd" fill-opacity="1" /><path clip-path="url(#clip790)" d="M 0 0 M1126.53 1452.36 Q1123.82 1452.36 1122.26 1453.81 Q1120.72 1455.26 1120.72 1457.79 Q1120.72 1460.33 1122.26 1461.78 Q1123.82 1463.23 1126.53 1463.23 Q1129.24 1463.23 1130.8 1461.78 Q1132.36 1460.31 1132.36 1457.79 Q1132.36 1455.26 1130.8 1453.81 Q1129.26 1452.36 1126.53 1452.36 M1122.73 1450.74 Q1120.29 1450.14 1118.92 1448.47 Q1117.56 1446.79 1117.56 1444.38 Q1117.56 1441.02 1119.95 1439.06 Q1122.36 1437.11 1126.53 1437.11 Q1130.73 1437.11 1133.11 1439.06 Q1135.5 1441.02 1135.5 1444.38 Q1135.5 1446.79 1134.13 1448.47 Q1132.78 1450.14 1130.35 1450.74 Q1133.1 1451.38 1134.62 1453.24 Q1136.16 1455.1 1136.16 1457.79 Q1136.16 1461.88 1133.66 1464.06 Q1131.18 1466.24 1126.53 1466.24 Q1121.89 1466.24 1119.39 1464.06 Q1116.9 1461.88 1116.9 1457.79 Q1116.9 1455.1 1118.44 1453.24 Q1119.99 1451.38 1122.73 1450.74 M1121.34 1444.74 Q1121.34 1446.92 1122.7 1448.15 Q1124.07 1449.37 1126.53 1449.37 Q1128.98 1449.37 1130.35 1448.15 Q1131.74 1446.92 1131.74 1444.74 Q1131.74 1442.56 1130.35 1441.34 Q1128.98 1440.11 1126.53 1440.11 Q1124.07 1440.11 1122.7 1441.34 Q1121.34 1442.56 1121.34 1444.74 Z" fill="#000000" fill-rule="evenodd" fill-opacity="1" /><path clip-path="url(#clip790)" d="M 0 0 M1419.06 1489.17 L1426.7 1489.17 L1426.7 1462.8 L1418.39 1464.47 L1418.39 1460.21 L1426.65 1458.54 L1431.33 1458.54 L1431.33 1489.17 L1438.97 1489.17 L1438.97 1493.1 L1419.06 1493.1 L1419.06 1489.17 Z" fill="#000000" fill-rule="evenodd" fill-opacity="1" /><path clip-path="url(#clip790)" d="M 0 0 M1454.03 1461.62 Q1450.42 1461.62 1448.6 1465.19 Q1446.79 1468.73 1446.79 1475.86 Q1446.79 1482.97 1448.6 1486.53 Q1450.42 1490.07 1454.03 1490.07 Q1457.67 1490.07 1459.47 1486.53 Q1461.3 1482.97 1461.3 1475.86 Q1461.3 1468.73 1459.47 1465.19 Q1457.67 1461.62 1454.03 1461.62 M1454.03 1457.92 Q1459.84 1457.92 1462.9 1462.53 Q1465.98 1467.11 1465.98 1475.86 Q1465.98 1484.59 1462.9 1489.19 Q1459.84 1493.78 1454.03 1493.78 Q1448.22 1493.78 1445.15 1489.19 Q1442.09 1484.59 1442.09 1475.86 Q1442.09 1467.11 1445.15 1462.53 Q1448.22 1457.92 1454.03 1457.92 Z" fill="#000000" fill-rule="evenodd" fill-opacity="1" /><path clip-path="url(#clip790)" d="M 0 0 M1465.98 1452.02 L1490.09 1452.02 L1490.09 1455.22 L1465.98 1455.22 L1465.98 1452.02 Z" fill="#000000" fill-rule="evenodd" fill-opacity="1" /><path clip-path="url(#clip790)" d="M 0 0 M1504.65 1440.92 L1495.06 1455.91 L1504.65 1455.91 L1504.65 1440.92 M1503.65 1437.61 L1508.43 1437.61 L1508.43 1455.91 L1512.43 1455.91 L1512.43 1459.07 L1508.43 1459.07 L1508.43 1465.69 L1504.65 1465.69 L1504.65 1459.07 L1491.97 1459.07 L1491.97 1455.41 L1503.65 1437.61 Z" fill="#000000" fill-rule="evenodd" fill-opacity="1" /><path clip-path="url(#clip790)" d="M 0 0 M1516.55 1460.92 L1520.52 1460.92 L1520.52 1465.69 L1516.55 1465.69 L1516.55 1460.92 Z" fill="#000000" fill-rule="evenodd" fill-opacity="1" /><path clip-path="url(#clip790)" d="M 0 0 M1523.68 1437.61 L1541.74 1437.61 L1541.74 1439.23 L1531.54 1465.69 L1527.57 1465.69 L1537.17 1440.81 L1523.68 1440.81 L1523.68 1437.61 Z" fill="#000000" fill-rule="evenodd" fill-opacity="1" /><path clip-path="url(#clip790)" d="M 0 0 M1824.53 1489.17 L1832.17 1489.17 L1832.17 1462.8 L1823.86 1464.47 L1823.86 1460.21 L1832.12 1458.54 L1836.8 1458.54 L1836.8 1489.17 L1844.44 1489.17 L1844.44 1493.1 L1824.53 1493.1 L1824.53 1489.17 Z" fill="#000000" fill-rule="evenodd" fill-opacity="1" /><path clip-path="url(#clip790)" d="M 0 0 M1859.51 1461.62 Q1855.9 1461.62 1854.07 1465.19 Q1852.26 1468.73 1852.26 1475.86 Q1852.26 1482.97 1854.07 1486.53 Q1855.9 1490.07 1859.51 1490.07 Q1863.14 1490.07 1864.95 1486.53 Q1866.77 1482.97 1866.77 1475.86 Q1866.77 1468.73 1864.95 1465.19 Q1863.14 1461.62 1859.51 1461.62 M1859.51 1457.92 Q1865.32 1457.92 1868.37 1462.53 Q1871.45 1467.11 1871.45 1475.86 Q1871.45 1484.59 1868.37 1489.19 Q1865.32 1493.78 1859.51 1493.78 Q1853.7 1493.78 1850.62 1489.19 Q1847.56 1484.59 1847.56 1475.86 Q1847.56 1467.11 1850.62 1462.53 Q1853.7 1457.92 1859.51 1457.92 Z" fill="#000000" fill-rule="evenodd" fill-opacity="1" /><path clip-path="url(#clip790)" d="M 0 0 M1871.45 1452.02 L1895.56 1452.02 L1895.56 1455.22 L1871.45 1455.22 L1871.45 1452.02 Z" fill="#000000" fill-rule="evenodd" fill-opacity="1" /><path clip-path="url(#clip790)" d="M 0 0 M1910.12 1440.92 L1900.53 1455.91 L1910.12 1455.91 L1910.12 1440.92 M1909.12 1437.61 L1913.9 1437.61 L1913.9 1455.91 L1917.91 1455.91 L1917.91 1459.07 L1913.9 1459.07 L1913.9 1465.69 L1910.12 1465.69 L1910.12 1459.07 L1897.44 1459.07 L1897.44 1455.41 L1909.12 1437.61 Z" fill="#000000" fill-rule="evenodd" fill-opacity="1" /><path clip-path="url(#clip790)" d="M 0 0 M1922.02 1460.92 L1925.99 1460.92 L1925.99 1465.69 L1922.02 1465.69 L1922.02 1460.92 Z" fill="#000000" fill-rule="evenodd" fill-opacity="1" /><path clip-path="url(#clip790)" d="M 0 0 M1938.71 1450.14 Q1936.15 1450.14 1934.64 1451.89 Q1933.16 1453.64 1933.16 1456.68 Q1933.16 1459.71 1934.64 1461.48 Q1936.15 1463.23 1938.71 1463.23 Q1941.27 1463.23 1942.75 1461.48 Q1944.26 1459.71 1944.26 1456.68 Q1944.26 1453.64 1942.75 1451.89 Q1941.27 1450.14 1938.71 1450.14 M1946.25 1438.23 L1946.25 1441.69 Q1944.82 1441.02 1943.35 1440.66 Q1941.9 1440.3 1940.48 1440.3 Q1936.71 1440.3 1934.72 1442.84 Q1932.75 1445.38 1932.46 1450.52 Q1933.57 1448.88 1935.25 1448.01 Q1936.92 1447.13 1938.93 1447.13 Q1943.16 1447.13 1945.61 1449.71 Q1948.07 1452.26 1948.07 1456.68 Q1948.07 1461.01 1945.52 1463.62 Q1942.96 1466.24 1938.71 1466.24 Q1933.84 1466.24 1931.26 1462.51 Q1928.68 1458.77 1928.68 1451.68 Q1928.68 1445.02 1931.84 1441.07 Q1935 1437.11 1940.32 1437.11 Q1941.75 1437.11 1943.2 1437.39 Q1944.67 1437.67 1946.25 1438.23 Z" fill="#000000" fill-rule="evenodd" fill-opacity="1" /><path clip-path="url(#clip790)" d="M 0 0 M2230.9 1489.17 L2238.54 1489.17 L2238.54 1462.8 L2230.23 1464.47 L2230.23 1460.21 L2238.5 1458.54 L2243.17 1458.54 L2243.17 1489.17 L2250.81 1489.17 L2250.81 1493.1 L2230.9 1493.1 L2230.9 1489.17 Z" fill="#000000" fill-rule="evenodd" fill-opacity="1" /><path clip-path="url(#clip790)" d="M 0 0 M2265.88 1461.62 Q2262.27 1461.62 2260.44 1465.19 Q2258.64 1468.73 2258.64 1475.86 Q2258.64 1482.97 2260.44 1486.53 Q2262.27 1490.07 2265.88 1490.07 Q2269.52 1490.07 2271.32 1486.53 Q2273.15 1482.97 2273.15 1475.86 Q2273.15 1468.73 2271.32 1465.19 Q2269.52 1461.62 2265.88 1461.62 M2265.88 1457.92 Q2271.69 1457.92 2274.75 1462.53 Q2277.83 1467.11 2277.83 1475.86 Q2277.83 1484.59 2274.75 1489.19 Q2271.69 1493.78 2265.88 1493.78 Q2260.07 1493.78 2256.99 1489.19 Q2253.94 1484.59 2253.94 1475.86 Q2253.94 1467.11 2256.99 1462.53 Q2260.07 1457.92 2265.88 1457.92 Z" fill="#000000" fill-rule="evenodd" fill-opacity="1" /><path clip-path="url(#clip790)" d="M 0 0 M2277.83 1452.02 L2301.94 1452.02 L2301.94 1455.22 L2277.83 1455.22 L2277.83 1452.02 Z" fill="#000000" fill-rule="evenodd" fill-opacity="1" /><path clip-path="url(#clip790)" d="M 0 0 M2316.49 1440.92 L2306.9 1455.91 L2316.49 1455.91 L2316.49 1440.92 M2315.5 1437.61 L2320.27 1437.61 L2320.27 1455.91 L2324.28 1455.91 L2324.28 1459.07 L2320.27 1459.07 L2320.27 1465.69 L2316.49 1465.69 L2316.49 1459.07 L2303.82 1459.07 L2303.82 1455.41 L2315.5 1437.61 Z" fill="#000000" fill-rule="evenodd" fill-opacity="1" /><path clip-path="url(#clip790)" d="M 0 0 M2328.4 1460.92 L2332.37 1460.92 L2332.37 1465.69 L2328.4 1465.69 L2328.4 1460.92 Z" fill="#000000" fill-rule="evenodd" fill-opacity="1" /><path clip-path="url(#clip790)" d="M 0 0 M2336.52 1437.61 L2351.44 1437.61 L2351.44 1440.81 L2340 1440.81 L2340 1447.69 Q2340.83 1447.41 2341.66 1447.28 Q2342.49 1447.13 2343.31 1447.13 Q2348.02 1447.13 2350.76 1449.71 Q2353.51 1452.28 2353.51 1456.68 Q2353.51 1461.22 2350.69 1463.74 Q2347.87 1466.24 2342.73 1466.24 Q2340.96 1466.24 2339.12 1465.94 Q2337.3 1465.64 2335.34 1465.04 L2335.34 1461.22 Q2337.03 1462.14 2338.84 1462.59 Q2340.64 1463.04 2342.66 1463.04 Q2345.91 1463.04 2347.81 1461.33 Q2349.71 1459.62 2349.71 1456.68 Q2349.71 1453.75 2347.81 1452.04 Q2345.91 1450.33 2342.66 1450.33 Q2341.13 1450.33 2339.61 1450.67 Q2338.1 1451 2336.52 1451.72 L2336.52 1437.61 Z" fill="#000000" fill-rule="evenodd" fill-opacity="1" /><path clip-path="url(#clip790)" d="M 0 0 M1208.63 1512.66 L1214.52 1512.66 L1214.52 1541.91 L1231.99 1526.54 L1239.47 1526.54 L1220.57 1543.22 L1240.27 1562.19 L1232.63 1562.19 L1214.52 1544.78 L1214.52 1562.19 L1208.63 1562.19 L1208.63 1512.66 Z" fill="#000000" fill-rule="evenodd" fill-opacity="1" /><path clip-path="url(#clip790)" d="M 0 0 M1273.5 1573.01 L1273.5 1577.56 L1239.63 1577.56 L1239.63 1573.01 L1273.5 1573.01 Z" fill="#000000" fill-rule="evenodd" fill-opacity="1" /><path clip-path="url(#clip790)" d="M 0 0 M1293.45 1530.64 Q1288.74 1530.64 1286.01 1534.34 Q1283.27 1538 1283.27 1544.39 Q1283.27 1550.79 1285.97 1554.48 Q1288.71 1558.14 1293.45 1558.14 Q1298.13 1558.14 1300.87 1554.45 Q1303.61 1550.76 1303.61 1544.39 Q1303.61 1538.06 1300.87 1534.37 Q1298.13 1530.64 1293.45 1530.64 M1293.45 1525.68 Q1301.09 1525.68 1305.45 1530.64 Q1309.81 1535.61 1309.81 1544.39 Q1309.81 1553.15 1305.45 1558.14 Q1301.09 1563.11 1293.45 1563.11 Q1285.78 1563.11 1281.42 1558.14 Q1277.09 1553.15 1277.09 1544.39 Q1277.09 1535.61 1281.42 1530.64 Q1285.78 1525.68 1293.45 1525.68 Z" fill="#000000" fill-rule="evenodd" fill-opacity="1" /><path clip-path="url(#clip790)" d="M 0 0 M1345.59 1540.67 L1345.59 1562.19 L1339.73 1562.19 L1339.73 1540.86 Q1339.73 1535.8 1337.76 1533.29 Q1335.79 1530.77 1331.84 1530.77 Q1327.1 1530.77 1324.36 1533.79 Q1321.62 1536.82 1321.62 1542.04 L1321.62 1562.19 L1315.73 1562.19 L1315.73 1526.54 L1321.62 1526.54 L1321.62 1532.08 Q1323.72 1528.86 1326.56 1527.27 Q1329.42 1525.68 1333.14 1525.68 Q1339.29 1525.68 1342.44 1529.5 Q1345.59 1533.29 1345.59 1540.67 Z" fill="#000000" fill-rule="evenodd" fill-opacity="1" /><polyline clip-path="url(#clip792)" style="stroke:#000000; stroke-width:2; stroke-opacity:0.1; fill:none" points="
  201.464,1236.29 2352.76,1236.29 
  "/>
<polyline clip-path="url(#clip792)" style="stroke:#000000; stroke-width:2; stroke-opacity:0.1; fill:none" points="
  201.464,995.348 2352.76,995.348 
  "/>
<polyline clip-path="url(#clip792)" style="stroke:#000000; stroke-width:2; stroke-opacity:0.1; fill:none" points="
  201.464,754.406 2352.76,754.406 
  "/>
<polyline clip-path="url(#clip792)" style="stroke:#000000; stroke-width:2; stroke-opacity:0.1; fill:none" points="
  201.464,513.463 2352.76,513.463 
  "/>
<polyline clip-path="url(#clip792)" style="stroke:#000000; stroke-width:2; stroke-opacity:0.1; fill:none" points="
  201.464,272.521 2352.76,272.521 
  "/>
<polyline clip-path="url(#clip790)" style="stroke:#000000; stroke-width:4; stroke-opacity:1; fill:none" points="
  201.464,1410.9 201.464,47.2441 
  "/>
<polyline clip-path="url(#clip790)" style="stroke:#000000; stroke-width:4; stroke-opacity:1; fill:none" points="
  201.464,1236.29 227.279,1236.29 
  "/>
<polyline clip-path="url(#clip790)" style="stroke:#000000; stroke-width:4; stroke-opacity:1; fill:none" points="
  201.464,995.348 227.279,995.348 
  "/>
<polyline clip-path="url(#clip790)" style="stroke:#000000; stroke-width:4; stroke-opacity:1; fill:none" points="
  201.464,754.406 227.279,754.406 
  "/>
<polyline clip-path="url(#clip790)" style="stroke:#000000; stroke-width:4; stroke-opacity:1; fill:none" points="
  201.464,513.463 227.279,513.463 
  "/>
<polyline clip-path="url(#clip790)" style="stroke:#000000; stroke-width:4; stroke-opacity:1; fill:none" points="
  201.464,272.521 227.279,272.521 
  "/>
<path clip-path="url(#clip790)" d="M 0 0 M129.862 1223.08 L118.056 1241.53 L129.862 1241.53 L129.862 1223.08 M128.635 1219.01 L134.515 1219.01 L134.515 1241.53 L139.445 1241.53 L139.445 1245.42 L134.515 1245.42 L134.515 1253.57 L129.862 1253.57 L129.862 1245.42 L114.26 1245.42 L114.26 1240.91 L128.635 1219.01 Z" fill="#000000" fill-rule="evenodd" fill-opacity="1" /><path clip-path="url(#clip790)" d="M 0 0 M144.561 1219.01 L162.917 1219.01 L162.917 1222.95 L148.843 1222.95 L148.843 1231.42 Q149.862 1231.07 150.88 1230.91 Q151.899 1230.72 152.917 1230.72 Q158.704 1230.72 162.084 1233.89 Q165.464 1237.07 165.464 1242.48 Q165.464 1248.06 161.991 1251.16 Q158.519 1254.24 152.2 1254.24 Q150.024 1254.24 147.755 1253.87 Q145.51 1253.5 143.103 1252.76 L143.103 1248.06 Q145.186 1249.2 147.408 1249.75 Q149.63 1250.31 152.107 1250.31 Q156.112 1250.31 158.45 1248.2 Q160.788 1246.09 160.788 1242.48 Q160.788 1238.87 158.45 1236.77 Q156.112 1234.66 152.107 1234.66 Q150.232 1234.66 148.357 1235.08 Q146.505 1235.49 144.561 1236.37 L144.561 1219.01 Z" fill="#000000" fill-rule="evenodd" fill-opacity="1" /><path clip-path="url(#clip790)" d="M 0 0 M117.547 978.068 L135.904 978.068 L135.904 982.003 L121.83 982.003 L121.83 990.476 Q122.848 990.128 123.867 989.966 Q124.885 989.781 125.904 989.781 Q131.691 989.781 135.07 992.952 Q138.45 996.124 138.45 1001.54 Q138.45 1007.12 134.978 1010.22 Q131.505 1013.3 125.186 1013.3 Q123.01 1013.3 120.742 1012.93 Q118.496 1012.56 116.089 1011.82 L116.089 1007.12 Q118.172 1008.25 120.394 1008.81 Q122.617 1009.36 125.093 1009.36 Q129.098 1009.36 131.436 1007.26 Q133.774 1005.15 133.774 1001.54 Q133.774 997.929 131.436 995.823 Q129.098 993.716 125.093 993.716 Q123.218 993.716 121.343 994.133 Q119.492 994.55 117.547 995.429 L117.547 978.068 Z" fill="#000000" fill-rule="evenodd" fill-opacity="1" /><path clip-path="url(#clip790)" d="M 0 0 M153.519 981.147 Q149.908 981.147 148.079 984.712 Q146.274 988.253 146.274 995.383 Q146.274 1002.49 148.079 1006.05 Q149.908 1009.6 153.519 1009.6 Q157.153 1009.6 158.959 1006.05 Q160.788 1002.49 160.788 995.383 Q160.788 988.253 158.959 984.712 Q157.153 981.147 153.519 981.147 M153.519 977.443 Q159.329 977.443 162.385 982.05 Q165.464 986.633 165.464 995.383 Q165.464 1004.11 162.385 1008.72 Q159.329 1013.3 153.519 1013.3 Q147.709 1013.3 144.63 1008.72 Q141.575 1004.11 141.575 995.383 Q141.575 986.633 144.63 982.05 Q147.709 977.443 153.519 977.443 Z" fill="#000000" fill-rule="evenodd" fill-opacity="1" /><path clip-path="url(#clip790)" d="M 0 0 M118.543 737.126 L136.899 737.126 L136.899 741.061 L122.825 741.061 L122.825 749.533 Q123.843 749.186 124.862 749.024 Q125.88 748.839 126.899 748.839 Q132.686 748.839 136.066 752.01 Q139.445 755.181 139.445 760.598 Q139.445 766.176 135.973 769.278 Q132.501 772.357 126.181 772.357 Q124.005 772.357 121.737 771.987 Q119.492 771.616 117.084 770.876 L117.084 766.176 Q119.168 767.311 121.39 767.866 Q123.612 768.422 126.089 768.422 Q130.093 768.422 132.431 766.315 Q134.769 764.209 134.769 760.598 Q134.769 756.987 132.431 754.88 Q130.093 752.774 126.089 752.774 Q124.214 752.774 122.339 753.19 Q120.487 753.607 118.543 754.487 L118.543 737.126 Z" fill="#000000" fill-rule="evenodd" fill-opacity="1" /><path clip-path="url(#clip790)" d="M 0 0 M144.561 737.126 L162.917 737.126 L162.917 741.061 L148.843 741.061 L148.843 749.533 Q149.862 749.186 150.88 749.024 Q151.899 748.839 152.917 748.839 Q158.704 748.839 162.084 752.01 Q165.464 755.181 165.464 760.598 Q165.464 766.176 161.991 769.278 Q158.519 772.357 152.2 772.357 Q150.024 772.357 147.755 771.987 Q145.51 771.616 143.103 770.876 L143.103 766.176 Q145.186 767.311 147.408 767.866 Q149.63 768.422 152.107 768.422 Q156.112 768.422 158.45 766.315 Q160.788 764.209 160.788 760.598 Q160.788 756.987 158.45 754.88 Q156.112 752.774 152.107 752.774 Q150.232 752.774 148.357 753.19 Q146.505 753.607 144.561 754.487 L144.561 737.126 Z" fill="#000000" fill-rule="evenodd" fill-opacity="1" /><path clip-path="url(#clip790)" d="M 0 0 M126.922 511.6 Q123.774 511.6 121.922 513.753 Q120.093 515.905 120.093 519.655 Q120.093 523.382 121.922 525.558 Q123.774 527.711 126.922 527.711 Q130.07 527.711 131.899 525.558 Q133.751 523.382 133.751 519.655 Q133.751 515.905 131.899 513.753 Q130.07 511.6 126.922 511.6 M136.204 496.947 L136.204 501.206 Q134.445 500.373 132.64 499.933 Q130.857 499.493 129.098 499.493 Q124.468 499.493 122.015 502.618 Q119.584 505.743 119.237 512.063 Q120.603 510.049 122.663 508.984 Q124.723 507.896 127.2 507.896 Q132.408 507.896 135.417 511.067 Q138.45 514.216 138.45 519.655 Q138.45 524.979 135.302 528.197 Q132.154 531.414 126.922 531.414 Q120.927 531.414 117.756 526.831 Q114.584 522.225 114.584 513.498 Q114.584 505.304 118.473 500.442 Q122.362 495.558 128.913 495.558 Q130.672 495.558 132.455 495.905 Q134.26 496.253 136.204 496.947 Z" fill="#000000" fill-rule="evenodd" fill-opacity="1" /><path clip-path="url(#clip790)" d="M 0 0 M153.519 499.262 Q149.908 499.262 148.079 502.827 Q146.274 506.368 146.274 513.498 Q146.274 520.604 148.079 524.169 Q149.908 527.711 153.519 527.711 Q157.153 527.711 158.959 524.169 Q160.788 520.604 160.788 513.498 Q160.788 506.368 158.959 502.827 Q157.153 499.262 153.519 499.262 M153.519 495.558 Q159.329 495.558 162.385 500.165 Q165.464 504.748 165.464 513.498 Q165.464 522.225 162.385 526.831 Q159.329 531.414 153.519 531.414 Q147.709 531.414 144.63 526.831 Q141.575 522.225 141.575 513.498 Q141.575 504.748 144.63 500.165 Q147.709 495.558 153.519 495.558 Z" fill="#000000" fill-rule="evenodd" fill-opacity="1" /><path clip-path="url(#clip790)" d="M 0 0 M127.917 270.657 Q124.769 270.657 122.918 272.81 Q121.089 274.963 121.089 278.713 Q121.089 282.44 122.918 284.616 Q124.769 286.768 127.917 286.768 Q131.066 286.768 132.894 284.616 Q134.746 282.44 134.746 278.713 Q134.746 274.963 132.894 272.81 Q131.066 270.657 127.917 270.657 M137.2 256.005 L137.2 260.264 Q135.441 259.43 133.635 258.991 Q131.853 258.551 130.093 258.551 Q125.464 258.551 123.01 261.676 Q120.58 264.801 120.232 271.12 Q121.598 269.106 123.658 268.042 Q125.718 266.954 128.195 266.954 Q133.404 266.954 136.413 270.125 Q139.445 273.273 139.445 278.713 Q139.445 284.037 136.297 287.254 Q133.149 290.472 127.917 290.472 Q121.922 290.472 118.751 285.889 Q115.58 281.282 115.58 272.555 Q115.58 264.361 119.468 259.5 Q123.357 254.616 129.908 254.616 Q131.667 254.616 133.45 254.963 Q135.255 255.31 137.2 256.005 Z" fill="#000000" fill-rule="evenodd" fill-opacity="1" /><path clip-path="url(#clip790)" d="M 0 0 M144.561 255.241 L162.917 255.241 L162.917 259.176 L148.843 259.176 L148.843 267.648 Q149.862 267.301 150.88 267.139 Q151.899 266.954 152.917 266.954 Q158.704 266.954 162.084 270.125 Q165.464 273.296 165.464 278.713 Q165.464 284.291 161.991 287.393 Q158.519 290.472 152.2 290.472 Q150.024 290.472 147.755 290.102 Q145.51 289.731 143.103 288.991 L143.103 284.291 Q145.186 285.426 147.408 285.981 Q149.63 286.537 152.107 286.537 Q156.112 286.537 158.45 284.43 Q160.788 282.324 160.788 278.713 Q160.788 275.102 158.45 272.995 Q156.112 270.889 152.107 270.889 Q150.232 270.889 148.357 271.305 Q146.505 271.722 144.561 272.602 L144.561 255.241 Z" fill="#000000" fill-rule="evenodd" fill-opacity="1" /><path clip-path="url(#clip790)" d="M 0 0 M59.1993 815.533 Q55.2526 813.336 53.3747 810.281 Q51.4968 807.225 51.4968 803.088 Q51.4968 797.518 55.4117 794.494 Q59.2948 791.47 66.4881 791.47 L88.0042 791.47 L88.0042 797.358 L66.679 797.358 Q61.5546 797.358 59.072 799.173 Q56.5894 800.987 56.5894 804.711 Q56.5894 809.262 59.6131 811.904 Q62.6368 814.546 67.8567 814.546 L88.0042 814.546 L88.0042 820.434 L66.679 820.434 Q61.5228 820.434 59.072 822.248 Q56.5894 824.063 56.5894 827.85 Q56.5894 832.338 59.6449 834.98 Q62.6686 837.622 67.8567 837.622 L88.0042 837.622 L88.0042 843.51 L52.3562 843.51 L52.3562 837.622 L57.8944 837.622 Q54.616 835.616 53.0564 832.815 Q51.4968 830.015 51.4968 826.163 Q51.4968 822.28 53.4702 819.575 Q55.4436 816.838 59.1993 815.533 Z" fill="#000000" fill-rule="evenodd" fill-opacity="1" /><path clip-path="url(#clip790)" d="M 0 0 M52.3562 785.327 L52.3562 779.471 L88.0042 779.471 L88.0042 785.327 L52.3562 785.327 M38.479 785.327 L38.479 779.471 L45.895 779.471 L45.895 785.327 L38.479 785.327 Z" fill="#000000" fill-rule="evenodd" fill-opacity="1" /><path clip-path="url(#clip790)" d="M 0 0 M66.4881 743.696 L88.0042 743.696 L88.0042 749.552 L66.679 749.552 Q61.6183 749.552 59.1038 751.525 Q56.5894 753.499 56.5894 757.446 Q56.5894 762.188 59.6131 764.925 Q62.6368 767.662 67.8567 767.662 L88.0042 767.662 L88.0042 773.551 L52.3562 773.551 L52.3562 767.662 L57.8944 767.662 Q54.6797 765.562 53.0883 762.729 Q51.4968 759.864 51.4968 756.141 Q51.4968 749.998 55.3163 746.847 Q59.1038 743.696 66.4881 743.696 Z" fill="#000000" fill-rule="evenodd" fill-opacity="1" /><path clip-path="url(#clip790)" d="M 0 0 M98.8259 710.467 L103.377 710.467 L103.377 744.332 L98.8259 744.332 L98.8259 710.467 Z" fill="#000000" fill-rule="evenodd" fill-opacity="1" /><path clip-path="url(#clip790)" d="M 0 0 M57.7671 680.866 L38.479 680.866 L38.479 675.01 L88.0042 675.01 L88.0042 680.866 L82.657 680.866 Q85.8398 682.712 87.3994 685.545 Q88.9272 688.346 88.9272 692.292 Q88.9272 698.754 83.771 702.828 Q78.6147 706.87 70.212 706.87 Q61.8093 706.87 56.6531 702.828 Q51.4968 698.754 51.4968 692.292 Q51.4968 688.346 53.0564 685.545 Q54.5842 682.712 57.7671 680.866 M70.212 700.823 Q76.6732 700.823 80.3653 698.181 Q84.0256 695.507 84.0256 690.86 Q84.0256 686.213 80.3653 683.54 Q76.6732 680.866 70.212 680.866 Q63.7508 680.866 60.0905 683.54 Q56.3984 686.213 56.3984 690.86 Q56.3984 695.507 60.0905 698.181 Q63.7508 700.823 70.212 700.823 Z" fill="#000000" fill-rule="evenodd" fill-opacity="1" /><path clip-path="url(#clip790)" d="M 0 0 M52.3562 668.867 L52.3562 663.01 L88.0042 663.01 L88.0042 668.867 L52.3562 668.867 M38.479 668.867 L38.479 663.01 L45.895 663.01 L45.895 668.867 L38.479 668.867 Z" fill="#000000" fill-rule="evenodd" fill-opacity="1" /><path clip-path="url(#clip790)" d="M 0 0 M38.479 638.821 L43.3487 638.821 L43.3487 644.422 Q43.3487 647.573 44.6219 648.815 Q45.895 650.024 49.2052 650.024 L52.3562 650.024 L52.3562 640.38 L56.9077 640.38 L56.9077 650.024 L88.0042 650.024 L88.0042 655.912 L56.9077 655.912 L56.9077 661.514 L52.3562 661.514 L52.3562 655.912 L49.8736 655.912 Q43.9216 655.912 41.2162 653.143 Q38.479 650.374 38.479 644.359 L38.479 638.821 Z" fill="#000000" fill-rule="evenodd" fill-opacity="1" /><path clip-path="url(#clip790)" d="M 0 0 M38.479 614.631 L43.3487 614.631 L43.3487 620.233 Q43.3487 623.384 44.6219 624.625 Q45.895 625.835 49.2052 625.835 L52.3562 625.835 L52.3562 616.19 L56.9077 616.19 L56.9077 625.835 L88.0042 625.835 L88.0042 631.723 L56.9077 631.723 L56.9077 637.325 L52.3562 637.325 L52.3562 631.723 L49.8736 631.723 Q43.9216 631.723 41.2162 628.954 Q38.479 626.185 38.479 620.169 L38.479 614.631 Z" fill="#000000" fill-rule="evenodd" fill-opacity="1" /><polyline clip-path="url(#clip792)" style="stroke:#009af9; stroke-width:20; stroke-opacity:1; fill:none" stroke-dasharray="80, 50" points="
  262.349,1372.3 1277.11,1032.94 2291.87,85.838 
  "/>
<path clip-path="url(#clip790)" d="
M1991 213.659 L2281.05 213.659 L2281.05 92.6992 L1991 92.6992  Z
  " fill="#ffffff" fill-rule="evenodd" fill-opacity="1"/>
<polyline clip-path="url(#clip790)" style="stroke:#000000; stroke-width:4; stroke-opacity:1; fill:none" points="
  1991,213.659 2281.05,213.659 2281.05,92.6992 1991,92.6992 1991,213.659 
  "/>
<polyline clip-path="url(#clip790)" style="stroke:#009af9; stroke-width:4; stroke-opacity:1; fill:none" stroke-dasharray="16, 10" points="
  2014.9,153.179 2158.32,153.179 
  "/>
<path clip-path="url(#clip790)" d="M 0 0 M2196.06 172.867 Q2194.26 177.496 2192.55 178.908 Q2190.83 180.32 2187.96 180.32 L2184.56 180.32 L2184.56 176.755 L2187.06 176.755 Q2188.82 176.755 2189.79 175.922 Q2190.76 175.089 2191.94 171.987 L2192.71 170.043 L2182.22 144.533 L2186.74 144.533 L2194.84 164.811 L2202.94 144.533 L2207.45 144.533 L2196.06 172.867 Z" fill="#000000" fill-rule="evenodd" fill-opacity="1" /><path clip-path="url(#clip790)" d="M 0 0 M2213.33 166.524 L2220.97 166.524 L2220.97 140.158 L2212.66 141.825 L2212.66 137.566 L2220.92 135.899 L2225.6 135.899 L2225.6 166.524 L2233.24 166.524 L2233.24 170.459 L2213.33 170.459 L2213.33 166.524 Z" fill="#000000" fill-rule="evenodd" fill-opacity="1" /></svg>
