<?xml version="1.0" encoding="utf-8"?>
<svg xmlns="http://www.w3.org/2000/svg" xmlns:xlink="http://www.w3.org/1999/xlink" width="600" height="400" viewBox="0 0 2400 1600">
<defs>
  <clipPath id="clip100">
    <rect x="0" y="0" width="2400" height="1600"/>
  </clipPath>
</defs>
<path clip-path="url(#clip100)" d="
M0 1600 L2400 1600 L2400 0 L0 0  Z
  " fill="#ffffff" fill-rule="evenodd" fill-opacity="1"/>
<defs>
  <clipPath id="clip101">
    <rect x="480" y="0" width="1681" height="1600"/>
  </clipPath>
</defs>
<path clip-path="url(#clip100)" d="
M220.19 1410.9 L2352.76 1410.9 L2352.76 47.2441 L220.19 47.2441  Z
  " fill="#ffffff" fill-rule="evenodd" fill-opacity="1"/>
<defs>
  <clipPath id="clip102">
    <rect x="220" y="47" width="2134" height="1365"/>
  </clipPath>
</defs>
<polyline clip-path="url(#clip102)" style="stroke:#000000; stroke-linecap:butt; stroke-linejoin:round; stroke-width:2; stroke-opacity:0.1; fill:none" points="
  280.546,1410.9 280.546,47.2441 
  "/>
<polyline clip-path="url(#clip102)" style="stroke:#000000; stroke-linecap:butt; stroke-linejoin:round; stroke-width:2; stroke-opacity:0.1; fill:none" points="
  1085.29,1410.9 1085.29,47.2441 
  "/>
<polyline clip-path="url(#clip102)" style="stroke:#000000; stroke-linecap:butt; stroke-linejoin:round; stroke-width:2; stroke-opacity:0.1; fill:none" points="
  1890.03,1410.9 1890.03,47.2441 
  "/>
<polyline clip-path="url(#clip100)" style="stroke:#000000; stroke-linecap:butt; stroke-linejoin:round; stroke-width:4; stroke-opacity:1; fill:none" points="
  220.19,1410.9 2352.76,1410.9 
  "/>
<polyline clip-path="url(#clip100)" style="stroke:#000000; stroke-linecap:butt; stroke-linejoin:round; stroke-width:4; stroke-opacity:1; fill:none" points="
  280.546,1410.9 280.546,1392 
  "/>
<polyline clip-path="url(#clip100)" style="stroke:#000000; stroke-linecap:butt; stroke-linejoin:round; stroke-width:4; stroke-opacity:1; fill:none" points="
  1085.29,1410.9 1085.29,1392 
  "/>
<polyline clip-path="url(#clip100)" style="stroke:#000000; stroke-linecap:butt; stroke-linejoin:round; stroke-width:4; stroke-opacity:1; fill:none" points="
  1890.03,1410.9 1890.03,1392 
  "/>
<path clip-path="url(#clip100)" d="M212.192 1485.02 L219.831 1485.02 L219.831 1458.66 L211.521 1460.32 L211.521 1456.06 L219.785 1454.4 L224.46 1454.4 L224.46 1485.02 L232.099 1485.02 L232.099 1488.96 L212.192 1488.96 L212.192 1485.02 Z" fill="#000000" fill-rule="evenodd" fill-opacity="1" /><path clip-path="url(#clip100)" d="M251.544 1457.48 Q247.933 1457.48 246.104 1461.04 Q244.298 1464.58 244.298 1471.71 Q244.298 1478.82 246.104 1482.38 Q247.933 1485.92 251.544 1485.92 Q255.178 1485.92 256.983 1482.38 Q258.812 1478.82 258.812 1471.71 Q258.812 1464.58 256.983 1461.04 Q255.178 1457.48 251.544 1457.48 M251.544 1453.77 Q257.354 1453.77 260.409 1458.38 Q263.488 1462.96 263.488 1471.71 Q263.488 1480.44 260.409 1485.04 Q257.354 1489.63 251.544 1489.63 Q245.734 1489.63 242.655 1485.04 Q239.599 1480.44 239.599 1471.71 Q239.599 1462.96 242.655 1458.38 Q245.734 1453.77 251.544 1453.77 Z" fill="#000000" fill-rule="evenodd" fill-opacity="1" /><path clip-path="url(#clip100)" d="M263.488 1447.87 L287.6 1447.87 L287.6 1451.07 L263.488 1451.07 L263.488 1447.87 Z" fill="#000000" fill-rule="evenodd" fill-opacity="1" /><path clip-path="url(#clip100)" d="M295.837 1433.47 L310.752 1433.47 L310.752 1436.66 L299.317 1436.66 L299.317 1443.55 Q300.144 1443.27 300.972 1443.13 Q301.799 1442.98 302.627 1442.98 Q307.329 1442.98 310.075 1445.56 Q312.821 1448.14 312.821 1452.54 Q312.821 1457.07 310 1459.59 Q307.178 1462.09 302.044 1462.09 Q300.276 1462.09 298.433 1461.79 Q296.609 1461.49 294.653 1460.89 L294.653 1457.07 Q296.345 1457.99 298.151 1458.44 Q299.956 1458.89 301.969 1458.89 Q305.222 1458.89 307.122 1457.18 Q309.022 1455.47 309.022 1452.54 Q309.022 1449.6 307.122 1447.89 Q305.222 1446.18 301.969 1446.18 Q300.445 1446.18 298.922 1446.52 Q297.417 1446.86 295.837 1447.57 L295.837 1433.47 Z" fill="#000000" fill-rule="evenodd" fill-opacity="1" /><path clip-path="url(#clip100)" d="M320.306 1456.77 L324.275 1456.77 L324.275 1461.55 L320.306 1461.55 L320.306 1456.77 Z" fill="#000000" fill-rule="evenodd" fill-opacity="1" /><path clip-path="url(#clip100)" d="M332.588 1433.47 L347.502 1433.47 L347.502 1436.66 L336.067 1436.66 L336.067 1443.55 Q336.895 1443.27 337.722 1443.13 Q338.55 1442.98 339.377 1442.98 Q344.079 1442.98 346.825 1445.56 Q349.571 1448.14 349.571 1452.54 Q349.571 1457.07 346.75 1459.59 Q343.929 1462.09 338.794 1462.09 Q337.026 1462.09 335.183 1461.79 Q333.359 1461.49 331.403 1460.89 L331.403 1457.07 Q333.096 1457.99 334.901 1458.44 Q336.707 1458.89 338.719 1458.89 Q341.973 1458.89 343.872 1457.18 Q345.772 1455.47 345.772 1452.54 Q345.772 1449.6 343.872 1447.89 Q341.973 1446.18 338.719 1446.18 Q337.196 1446.18 335.672 1446.52 Q334.168 1446.86 332.588 1447.57 L332.588 1433.47 Z" fill="#000000" fill-rule="evenodd" fill-opacity="1" /><path clip-path="url(#clip100)" d="M1016.33 1485.02 L1023.97 1485.02 L1023.97 1458.66 L1015.66 1460.32 L1015.66 1456.06 L1023.92 1454.4 L1028.6 1454.4 L1028.6 1485.02 L1036.24 1485.02 L1036.24 1488.96 L1016.33 1488.96 L1016.33 1485.02 Z" fill="#000000" fill-rule="evenodd" fill-opacity="1" /><path clip-path="url(#clip100)" d="M1055.68 1457.48 Q1052.07 1457.48 1050.24 1461.04 Q1048.44 1464.58 1048.44 1471.71 Q1048.44 1478.82 1050.24 1482.38 Q1052.07 1485.92 1055.68 1485.92 Q1059.32 1485.92 1061.12 1482.38 Q1062.95 1478.82 1062.95 1471.71 Q1062.95 1464.58 1061.12 1461.04 Q1059.32 1457.48 1055.68 1457.48 M1055.68 1453.77 Q1061.49 1453.77 1064.55 1458.38 Q1067.63 1462.96 1067.63 1471.71 Q1067.63 1480.44 1064.55 1485.04 Q1061.49 1489.63 1055.68 1489.63 Q1049.87 1489.63 1046.79 1485.04 Q1043.74 1480.44 1043.74 1471.71 Q1043.74 1462.96 1046.79 1458.38 Q1049.87 1453.77 1055.68 1453.77 Z" fill="#000000" fill-rule="evenodd" fill-opacity="1" /><path clip-path="url(#clip100)" d="M1067.63 1447.87 L1091.74 1447.87 L1091.74 1451.07 L1067.63 1451.07 L1067.63 1447.87 Z" fill="#000000" fill-rule="evenodd" fill-opacity="1" /><path clip-path="url(#clip100)" d="M1099.98 1433.47 L1114.89 1433.47 L1114.89 1436.66 L1103.46 1436.66 L1103.46 1443.55 Q1104.28 1443.27 1105.11 1443.13 Q1105.94 1442.98 1106.77 1442.98 Q1111.47 1442.98 1114.21 1445.56 Q1116.96 1448.14 1116.96 1452.54 Q1116.96 1457.07 1114.14 1459.59 Q1111.32 1462.09 1106.18 1462.09 Q1104.42 1462.09 1102.57 1461.79 Q1100.75 1461.49 1098.79 1460.89 L1098.79 1457.07 Q1100.49 1457.99 1102.29 1458.44 Q1104.1 1458.89 1106.11 1458.89 Q1109.36 1458.89 1111.26 1457.18 Q1113.16 1455.47 1113.16 1452.54 Q1113.16 1449.6 1111.26 1447.89 Q1109.36 1446.18 1106.11 1446.18 Q1104.59 1446.18 1103.06 1446.52 Q1101.56 1446.86 1099.98 1447.57 L1099.98 1433.47 Z" fill="#000000" fill-rule="evenodd" fill-opacity="1" /><path clip-path="url(#clip100)" d="M1124.45 1456.77 L1128.41 1456.77 L1128.41 1461.55 L1124.45 1461.55 L1124.45 1456.77 Z" fill="#000000" fill-rule="evenodd" fill-opacity="1" /><path clip-path="url(#clip100)" d="M1147.13 1436.78 L1137.54 1451.77 L1147.13 1451.77 L1147.13 1436.78 M1146.13 1433.47 L1150.91 1433.47 L1150.91 1451.77 L1154.91 1451.77 L1154.91 1454.93 L1150.91 1454.93 L1150.91 1461.55 L1147.13 1461.55 L1147.13 1454.93 L1134.45 1454.93 L1134.45 1451.26 L1146.13 1433.47 Z" fill="#000000" fill-rule="evenodd" fill-opacity="1" /><path clip-path="url(#clip100)" d="M1821.53 1485.02 L1829.17 1485.02 L1829.17 1458.66 L1820.86 1460.32 L1820.86 1456.06 L1829.13 1454.4 L1833.8 1454.4 L1833.8 1485.02 L1841.44 1485.02 L1841.44 1488.96 L1821.53 1488.96 L1821.53 1485.02 Z" fill="#000000" fill-rule="evenodd" fill-opacity="1" /><path clip-path="url(#clip100)" d="M1860.89 1457.48 Q1857.27 1457.48 1855.45 1461.04 Q1853.64 1464.58 1853.64 1471.71 Q1853.64 1478.82 1855.45 1482.38 Q1857.27 1485.92 1860.89 1485.92 Q1864.52 1485.92 1866.33 1482.38 Q1868.15 1478.82 1868.15 1471.71 Q1868.15 1464.58 1866.33 1461.04 Q1864.52 1457.48 1860.89 1457.48 M1860.89 1453.77 Q1866.7 1453.77 1869.75 1458.38 Q1872.83 1462.96 1872.83 1471.71 Q1872.83 1480.44 1869.75 1485.04 Q1866.7 1489.63 1860.89 1489.63 Q1855.08 1489.63 1852 1485.04 Q1848.94 1480.44 1848.94 1471.71 Q1848.94 1462.96 1852 1458.38 Q1855.08 1453.77 1860.89 1453.77 Z" fill="#000000" fill-rule="evenodd" fill-opacity="1" /><path clip-path="url(#clip100)" d="M1872.83 1447.87 L1896.94 1447.87 L1896.94 1451.07 L1872.83 1451.07 L1872.83 1447.87 Z" fill="#000000" fill-rule="evenodd" fill-opacity="1" /><path clip-path="url(#clip100)" d="M1905.18 1433.47 L1920.09 1433.47 L1920.09 1436.66 L1908.66 1436.66 L1908.66 1443.55 Q1909.49 1443.27 1910.31 1443.13 Q1911.14 1442.98 1911.97 1442.98 Q1916.67 1442.98 1919.42 1445.56 Q1922.16 1448.14 1922.16 1452.54 Q1922.16 1457.07 1919.34 1459.59 Q1916.52 1462.09 1911.39 1462.09 Q1909.62 1462.09 1907.78 1461.79 Q1905.95 1461.49 1903.99 1460.89 L1903.99 1457.07 Q1905.69 1457.99 1907.49 1458.44 Q1909.3 1458.89 1911.31 1458.89 Q1914.56 1458.89 1916.46 1457.18 Q1918.36 1455.47 1918.36 1452.54 Q1918.36 1449.6 1916.46 1447.89 Q1914.56 1446.18 1911.31 1446.18 Q1909.79 1446.18 1908.26 1446.52 Q1906.76 1446.86 1905.18 1447.57 L1905.18 1433.47 Z" fill="#000000" fill-rule="evenodd" fill-opacity="1" /><path clip-path="url(#clip100)" d="M1929.65 1456.77 L1933.62 1456.77 L1933.62 1461.55 L1929.65 1461.55 L1929.65 1456.77 Z" fill="#000000" fill-rule="evenodd" fill-opacity="1" /><path clip-path="url(#clip100)" d="M1953.4 1446.41 Q1956.13 1446.99 1957.65 1448.83 Q1959.2 1450.68 1959.2 1453.38 Q1959.2 1457.54 1956.34 1459.82 Q1953.48 1462.09 1948.21 1462.09 Q1946.44 1462.09 1944.56 1461.73 Q1942.7 1461.4 1940.71 1460.7 L1940.71 1457.03 Q1942.29 1457.95 1944.17 1458.42 Q1946.05 1458.89 1948.1 1458.89 Q1951.67 1458.89 1953.53 1457.48 Q1955.42 1456.07 1955.42 1453.38 Q1955.42 1450.9 1953.67 1449.51 Q1951.94 1448.1 1948.83 1448.1 L1945.56 1448.1 L1945.56 1444.98 L1948.98 1444.98 Q1951.79 1444.98 1953.27 1443.87 Q1954.76 1442.74 1954.76 1440.63 Q1954.76 1438.47 1953.21 1437.32 Q1951.69 1436.16 1948.83 1436.16 Q1947.27 1436.16 1945.48 1436.49 Q1943.7 1436.83 1941.55 1437.55 L1941.55 1434.16 Q1943.72 1433.56 1945.6 1433.26 Q1947.5 1432.96 1949.17 1432.96 Q1953.5 1432.96 1956.02 1434.93 Q1958.54 1436.89 1958.54 1440.24 Q1958.54 1442.57 1957.2 1444.19 Q1955.87 1445.79 1953.4 1446.41 Z" fill="#000000" fill-rule="evenodd" fill-opacity="1" /><path clip-path="url(#clip100)" d="M1216.43 1524.66 L1222.32 1524.66 L1222.32 1553.91 L1239.8 1538.54 L1247.28 1538.54 L1228.37 1555.22 L1248.07 1574.19 L1240.43 1574.19 L1222.32 1556.78 L1222.32 1574.19 L1216.43 1574.19 L1216.43 1524.66 Z" fill="#000000" fill-rule="evenodd" fill-opacity="1" /><path clip-path="url(#clip100)" d="M1281.49 1585.01 L1281.49 1589.56 L1247.63 1589.56 L1247.63 1585.01 L1281.49 1585.01 Z" fill="#000000" fill-rule="evenodd" fill-opacity="1" /><path clip-path="url(#clip100)" d="M1300.81 1542.64 Q1296.1 1542.64 1293.36 1546.34 Q1290.63 1550 1290.63 1556.39 Q1290.63 1562.79 1293.33 1566.48 Q1296.07 1570.14 1300.81 1570.14 Q1305.49 1570.14 1308.23 1566.45 Q1310.97 1562.76 1310.97 1556.39 Q1310.97 1550.06 1308.23 1546.37 Q1305.49 1542.64 1300.81 1542.64 M1300.81 1537.68 Q1308.45 1537.68 1312.81 1542.64 Q1317.17 1547.61 1317.17 1556.39 Q1317.17 1565.15 1312.81 1570.14 Q1308.45 1575.11 1300.81 1575.11 Q1293.14 1575.11 1288.78 1570.14 Q1284.45 1565.15 1284.45 1556.39 Q1284.45 1547.61 1288.78 1542.64 Q1293.14 1537.68 1300.81 1537.68 Z" fill="#000000" fill-rule="evenodd" fill-opacity="1" /><path clip-path="url(#clip100)" d="M1356.51 1552.67 L1356.51 1574.19 L1350.66 1574.19 L1350.66 1552.86 Q1350.66 1547.8 1348.68 1545.29 Q1346.71 1542.77 1342.76 1542.77 Q1338.02 1542.77 1335.28 1545.79 Q1332.54 1548.82 1332.54 1554.04 L1332.54 1574.19 L1326.66 1574.19 L1326.66 1538.54 L1332.54 1538.54 L1332.54 1544.08 Q1334.65 1540.86 1337.48 1539.27 Q1340.34 1537.68 1344.07 1537.68 Q1350.21 1537.68 1353.36 1541.5 Q1356.51 1545.29 1356.51 1552.67 Z" fill="#000000" fill-rule="evenodd" fill-opacity="1" /><polyline clip-path="url(#clip102)" style="stroke:#000000; stroke-linecap:butt; stroke-linejoin:round; stroke-width:2; stroke-opacity:0.1; fill:none" points="
  220.19,1327.96 2352.76,1327.96 
  "/>
<polyline clip-path="url(#clip102)" style="stroke:#000000; stroke-linecap:butt; stroke-linejoin:round; stroke-width:2; stroke-opacity:0.1; fill:none" points="
  220.19,1141.94 2352.76,1141.94 
  "/>
<polyline clip-path="url(#clip102)" style="stroke:#000000; stroke-linecap:butt; stroke-linejoin:round; stroke-width:2; stroke-opacity:0.1; fill:none" points="
  220.19,955.924 2352.76,955.924 
  "/>
<polyline clip-path="url(#clip102)" style="stroke:#000000; stroke-linecap:butt; stroke-linejoin:round; stroke-width:2; stroke-opacity:0.1; fill:none" points="
  220.19,769.906 2352.76,769.906 
  "/>
<polyline clip-path="url(#clip102)" style="stroke:#000000; stroke-linecap:butt; stroke-linejoin:round; stroke-width:2; stroke-opacity:0.1; fill:none" points="
  220.19,583.888 2352.76,583.888 
  "/>
<polyline clip-path="url(#clip102)" style="stroke:#000000; stroke-linecap:butt; stroke-linejoin:round; stroke-width:2; stroke-opacity:0.1; fill:none" points="
  220.19,397.87 2352.76,397.87 
  "/>
<polyline clip-path="url(#clip102)" style="stroke:#000000; stroke-linecap:butt; stroke-linejoin:round; stroke-width:2; stroke-opacity:0.1; fill:none" points="
  220.19,211.852 2352.76,211.852 
  "/>
<polyline clip-path="url(#clip100)" style="stroke:#000000; stroke-linecap:butt; stroke-linejoin:round; stroke-width:4; stroke-opacity:1; fill:none" points="
  220.19,1410.9 220.19,47.2441 
  "/>
<polyline clip-path="url(#clip100)" style="stroke:#000000; stroke-linecap:butt; stroke-linejoin:round; stroke-width:4; stroke-opacity:1; fill:none" points="
  220.19,1327.96 239.088,1327.96 
  "/>
<polyline clip-path="url(#clip100)" style="stroke:#000000; stroke-linecap:butt; stroke-linejoin:round; stroke-width:4; stroke-opacity:1; fill:none" points="
  220.19,1141.94 239.088,1141.94 
  "/>
<polyline clip-path="url(#clip100)" style="stroke:#000000; stroke-linecap:butt; stroke-linejoin:round; stroke-width:4; stroke-opacity:1; fill:none" points="
  220.19,955.924 239.088,955.924 
  "/>
<polyline clip-path="url(#clip100)" style="stroke:#000000; stroke-linecap:butt; stroke-linejoin:round; stroke-width:4; stroke-opacity:1; fill:none" points="
  220.19,769.906 239.088,769.906 
  "/>
<polyline clip-path="url(#clip100)" style="stroke:#000000; stroke-linecap:butt; stroke-linejoin:round; stroke-width:4; stroke-opacity:1; fill:none" points="
  220.19,583.888 239.088,583.888 
  "/>
<polyline clip-path="url(#clip100)" style="stroke:#000000; stroke-linecap:butt; stroke-linejoin:round; stroke-width:4; stroke-opacity:1; fill:none" points="
  220.19,397.87 239.088,397.87 
  "/>
<polyline clip-path="url(#clip100)" style="stroke:#000000; stroke-linecap:butt; stroke-linejoin:round; stroke-width:4; stroke-opacity:1; fill:none" points="
  220.19,211.852 239.088,211.852 
  "/>
<path clip-path="url(#clip100)" d="M131.019 1326.61 Q134.376 1327.32 136.251 1329.59 Q138.149 1331.86 138.149 1335.19 Q138.149 1340.31 134.63 1343.11 Q131.112 1345.91 124.63 1345.91 Q122.455 1345.91 120.14 1345.47 Q117.848 1345.05 115.394 1344.2 L115.394 1339.68 Q117.339 1340.82 119.654 1341.4 Q121.968 1341.98 124.492 1341.98 Q128.89 1341.98 131.181 1340.24 Q133.496 1338.5 133.496 1335.19 Q133.496 1332.14 131.343 1330.42 Q129.214 1328.69 125.394 1328.69 L121.367 1328.69 L121.367 1324.85 L125.58 1324.85 Q129.029 1324.85 130.857 1323.48 Q132.686 1322.09 132.686 1319.5 Q132.686 1316.84 130.788 1315.42 Q128.913 1313.99 125.394 1313.99 Q123.473 1313.99 121.274 1314.41 Q119.075 1314.82 116.436 1315.7 L116.436 1311.54 Q119.098 1310.8 121.413 1310.42 Q123.751 1310.05 125.811 1310.05 Q131.135 1310.05 134.237 1312.49 Q137.339 1314.89 137.339 1319.01 Q137.339 1321.88 135.695 1323.87 Q134.052 1325.84 131.019 1326.61 Z" fill="#000000" fill-rule="evenodd" fill-opacity="1" /><path clip-path="url(#clip100)" d="M147.015 1339.36 L151.899 1339.36 L151.899 1345.24 L147.015 1345.24 L147.015 1339.36 Z" fill="#000000" fill-rule="evenodd" fill-opacity="1" /><path clip-path="url(#clip100)" d="M172.663 1326.1 Q169.514 1326.1 167.663 1328.25 Q165.834 1330.4 165.834 1334.15 Q165.834 1337.88 167.663 1340.05 Q169.514 1342.21 172.663 1342.21 Q175.811 1342.21 177.639 1340.05 Q179.491 1337.88 179.491 1334.15 Q179.491 1330.4 177.639 1328.25 Q175.811 1326.1 172.663 1326.1 M181.945 1311.44 L181.945 1315.7 Q180.186 1314.87 178.38 1314.43 Q176.598 1313.99 174.839 1313.99 Q170.209 1313.99 167.755 1317.11 Q165.325 1320.24 164.977 1326.56 Q166.343 1324.55 168.403 1323.48 Q170.464 1322.39 172.94 1322.39 Q178.149 1322.39 181.158 1325.56 Q184.19 1328.71 184.19 1334.15 Q184.19 1339.48 181.042 1342.69 Q177.894 1345.91 172.663 1345.91 Q166.667 1345.91 163.496 1341.33 Q160.325 1336.72 160.325 1327.99 Q160.325 1319.8 164.214 1314.94 Q168.102 1310.05 174.653 1310.05 Q176.413 1310.05 178.195 1310.4 Q180.001 1310.75 181.945 1311.44 Z" fill="#000000" fill-rule="evenodd" fill-opacity="1" /><path clip-path="url(#clip100)" d="M132.084 1140.59 Q135.441 1141.31 137.316 1143.57 Q139.214 1145.84 139.214 1149.18 Q139.214 1154.29 135.695 1157.09 Q132.177 1159.89 125.695 1159.89 Q123.519 1159.89 121.205 1159.45 Q118.913 1159.04 116.459 1158.18 L116.459 1153.67 Q118.404 1154.8 120.718 1155.38 Q123.033 1155.96 125.556 1155.96 Q129.955 1155.96 132.246 1154.22 Q134.561 1152.49 134.561 1149.18 Q134.561 1146.12 132.408 1144.41 Q130.279 1142.67 126.459 1142.67 L122.431 1142.67 L122.431 1138.83 L126.644 1138.83 Q130.093 1138.83 131.922 1137.46 Q133.751 1136.07 133.751 1133.48 Q133.751 1130.82 131.853 1129.41 Q129.978 1127.97 126.459 1127.97 Q124.538 1127.97 122.339 1128.39 Q120.14 1128.81 117.501 1129.68 L117.501 1125.52 Q120.163 1124.78 122.478 1124.41 Q124.816 1124.04 126.876 1124.04 Q132.2 1124.04 135.302 1126.47 Q138.404 1128.87 138.404 1132.99 Q138.404 1135.87 136.76 1137.86 Q135.117 1139.82 132.084 1140.59 Z" fill="#000000" fill-rule="evenodd" fill-opacity="1" /><path clip-path="url(#clip100)" d="M148.079 1153.34 L152.964 1153.34 L152.964 1159.22 L148.079 1159.22 L148.079 1153.34 Z" fill="#000000" fill-rule="evenodd" fill-opacity="1" /><path clip-path="url(#clip100)" d="M161.968 1124.66 L184.19 1124.66 L184.19 1126.65 L171.644 1159.22 L166.76 1159.22 L178.565 1128.6 L161.968 1128.6 L161.968 1124.66 Z" fill="#000000" fill-rule="evenodd" fill-opacity="1" /><path clip-path="url(#clip100)" d="M131.274 954.57 Q134.63 955.287 136.505 957.556 Q138.404 959.824 138.404 963.158 Q138.404 968.273 134.885 971.074 Q131.367 973.875 124.885 973.875 Q122.709 973.875 120.394 973.435 Q118.103 973.019 115.649 972.162 L115.649 967.648 Q117.593 968.783 119.908 969.361 Q122.223 969.94 124.746 969.94 Q129.144 969.94 131.436 968.204 Q133.751 966.468 133.751 963.158 Q133.751 960.102 131.598 958.389 Q129.468 956.653 125.649 956.653 L121.621 956.653 L121.621 952.81 L125.834 952.81 Q129.283 952.81 131.112 951.445 Q132.941 950.056 132.941 947.463 Q132.941 944.801 131.042 943.389 Q129.167 941.954 125.649 941.954 Q123.728 941.954 121.529 942.371 Q119.33 942.787 116.691 943.667 L116.691 939.5 Q119.353 938.76 121.668 938.389 Q124.005 938.019 126.066 938.019 Q131.39 938.019 134.492 940.449 Q137.593 942.857 137.593 946.977 Q137.593 949.847 135.95 951.838 Q134.306 953.806 131.274 954.57 Z" fill="#000000" fill-rule="evenodd" fill-opacity="1" /><path clip-path="url(#clip100)" d="M147.269 967.324 L152.153 967.324 L152.153 973.204 L147.269 973.204 L147.269 967.324 Z" fill="#000000" fill-rule="evenodd" fill-opacity="1" /><path clip-path="url(#clip100)" d="M172.339 956.792 Q169.005 956.792 167.084 958.574 Q165.186 960.357 165.186 963.482 Q165.186 966.607 167.084 968.389 Q169.005 970.171 172.339 970.171 Q175.672 970.171 177.593 968.389 Q179.514 966.583 179.514 963.482 Q179.514 960.357 177.593 958.574 Q175.695 956.792 172.339 956.792 M167.663 954.801 Q164.653 954.06 162.964 952 Q161.297 949.94 161.297 946.977 Q161.297 942.834 164.237 940.426 Q167.2 938.019 172.339 938.019 Q177.501 938.019 180.44 940.426 Q183.38 942.834 183.38 946.977 Q183.38 949.94 181.69 952 Q180.024 954.06 177.038 954.801 Q180.417 955.588 182.292 957.88 Q184.19 960.171 184.19 963.482 Q184.19 968.505 181.112 971.19 Q178.056 973.875 172.339 973.875 Q166.621 973.875 163.542 971.19 Q160.487 968.505 160.487 963.482 Q160.487 960.171 162.385 957.88 Q164.283 955.588 167.663 954.801 M165.95 947.417 Q165.95 950.102 167.616 951.607 Q169.306 953.111 172.339 953.111 Q175.348 953.111 177.038 951.607 Q178.751 950.102 178.751 947.417 Q178.751 944.732 177.038 943.227 Q175.348 941.722 172.339 941.722 Q169.306 941.722 167.616 943.227 Q165.95 944.732 165.95 947.417 Z" fill="#000000" fill-rule="evenodd" fill-opacity="1" /><path clip-path="url(#clip100)" d="M131.367 768.552 Q134.723 769.269 136.598 771.538 Q138.496 773.806 138.496 777.14 Q138.496 782.255 134.978 785.056 Q131.459 787.857 124.978 787.857 Q122.802 787.857 120.487 787.417 Q118.195 787.001 115.742 786.144 L115.742 781.63 Q117.686 782.765 120.001 783.343 Q122.316 783.922 124.839 783.922 Q129.237 783.922 131.529 782.186 Q133.843 780.45 133.843 777.14 Q133.843 774.084 131.691 772.371 Q129.561 770.635 125.742 770.635 L121.714 770.635 L121.714 766.793 L125.927 766.793 Q129.376 766.793 131.205 765.427 Q133.033 764.038 133.033 761.445 Q133.033 758.783 131.135 757.371 Q129.26 755.936 125.742 755.936 Q123.82 755.936 121.621 756.353 Q119.422 756.769 116.783 757.649 L116.783 753.482 Q119.445 752.742 121.76 752.371 Q124.098 752.001 126.158 752.001 Q131.482 752.001 134.584 754.431 Q137.686 756.839 137.686 760.959 Q137.686 763.83 136.042 765.82 Q134.399 767.788 131.367 768.552 Z" fill="#000000" fill-rule="evenodd" fill-opacity="1" /><path clip-path="url(#clip100)" d="M147.362 781.306 L152.246 781.306 L152.246 787.186 L147.362 787.186 L147.362 781.306 Z" fill="#000000" fill-rule="evenodd" fill-opacity="1" /><path clip-path="url(#clip100)" d="M162.57 786.468 L162.57 782.209 Q164.329 783.042 166.135 783.482 Q167.94 783.922 169.677 783.922 Q174.306 783.922 176.737 780.82 Q179.19 777.695 179.538 771.353 Q178.195 773.343 176.135 774.408 Q174.075 775.473 171.575 775.473 Q166.39 775.473 163.357 772.348 Q160.348 769.2 160.348 763.76 Q160.348 758.436 163.496 755.218 Q166.644 752.001 171.876 752.001 Q177.871 752.001 181.019 756.607 Q184.19 761.191 184.19 769.941 Q184.19 778.112 180.301 782.996 Q176.436 787.857 169.885 787.857 Q168.126 787.857 166.32 787.51 Q164.515 787.163 162.57 786.468 M171.876 771.816 Q175.024 771.816 176.852 769.663 Q178.704 767.51 178.704 763.76 Q178.704 760.033 176.852 757.881 Q175.024 755.705 171.876 755.705 Q168.727 755.705 166.876 757.881 Q165.047 760.033 165.047 763.76 Q165.047 767.51 166.876 769.663 Q168.727 771.816 171.876 771.816 Z" fill="#000000" fill-rule="evenodd" fill-opacity="1" /><path clip-path="url(#clip100)" d="M129.862 570.682 L118.056 589.131 L129.862 589.131 L129.862 570.682 M128.635 566.608 L134.515 566.608 L134.515 589.131 L139.445 589.131 L139.445 593.02 L134.515 593.02 L134.515 601.168 L129.862 601.168 L129.862 593.02 L114.26 593.02 L114.26 588.506 L128.635 566.608 Z" fill="#000000" fill-rule="evenodd" fill-opacity="1" /><path clip-path="url(#clip100)" d="M147.177 595.288 L152.061 595.288 L152.061 601.168 L147.177 601.168 L147.177 595.288 Z" fill="#000000" fill-rule="evenodd" fill-opacity="1" /><path clip-path="url(#clip100)" d="M172.246 569.687 Q168.635 569.687 166.806 573.252 Q165.001 576.793 165.001 583.923 Q165.001 591.029 166.806 594.594 Q168.635 598.136 172.246 598.136 Q175.88 598.136 177.686 594.594 Q179.514 591.029 179.514 583.923 Q179.514 576.793 177.686 573.252 Q175.88 569.687 172.246 569.687 M172.246 565.983 Q178.056 565.983 181.112 570.59 Q184.19 575.173 184.19 583.923 Q184.19 592.65 181.112 597.256 Q178.056 601.839 172.246 601.839 Q166.436 601.839 163.357 597.256 Q160.302 592.65 160.302 583.923 Q160.302 575.173 163.357 570.59 Q166.436 565.983 172.246 565.983 Z" fill="#000000" fill-rule="evenodd" fill-opacity="1" /><path clip-path="url(#clip100)" d="M131.089 384.664 L119.283 403.113 L131.089 403.113 L131.089 384.664 M129.862 380.59 L135.742 380.59 L135.742 403.113 L140.672 403.113 L140.672 407.002 L135.742 407.002 L135.742 415.15 L131.089 415.15 L131.089 407.002 L115.487 407.002 L115.487 402.488 L129.862 380.59 Z" fill="#000000" fill-rule="evenodd" fill-opacity="1" /><path clip-path="url(#clip100)" d="M148.403 409.271 L153.288 409.271 L153.288 415.15 L148.403 415.15 L148.403 409.271 Z" fill="#000000" fill-rule="evenodd" fill-opacity="1" /><path clip-path="url(#clip100)" d="M164.283 411.215 L171.922 411.215 L171.922 384.849 L163.612 386.516 L163.612 382.257 L171.876 380.59 L176.551 380.59 L176.551 411.215 L184.19 411.215 L184.19 415.15 L164.283 415.15 L164.283 411.215 Z" fill="#000000" fill-rule="evenodd" fill-opacity="1" /><path clip-path="url(#clip100)" d="M131.459 198.646 L119.654 217.095 L131.459 217.095 L131.459 198.646 M130.232 194.572 L136.112 194.572 L136.112 217.095 L141.042 217.095 L141.042 220.984 L136.112 220.984 L136.112 229.132 L131.459 229.132 L131.459 220.984 L115.857 220.984 L115.857 216.47 L130.232 194.572 Z" fill="#000000" fill-rule="evenodd" fill-opacity="1" /><path clip-path="url(#clip100)" d="M148.774 223.253 L153.658 223.253 L153.658 229.132 L148.774 229.132 L148.774 223.253 Z" fill="#000000" fill-rule="evenodd" fill-opacity="1" /><path clip-path="url(#clip100)" d="M167.871 225.197 L184.19 225.197 L184.19 229.132 L162.246 229.132 L162.246 225.197 Q164.908 222.443 169.491 217.813 Q174.098 213.16 175.278 211.818 Q177.524 209.294 178.403 207.558 Q179.306 205.799 179.306 204.109 Q179.306 201.355 177.362 199.619 Q175.44 197.882 172.339 197.882 Q170.139 197.882 167.686 198.646 Q165.255 199.41 162.477 200.961 L162.477 196.239 Q165.302 195.105 167.755 194.526 Q170.209 193.947 172.246 193.947 Q177.616 193.947 180.811 196.632 Q184.005 199.318 184.005 203.808 Q184.005 205.938 183.195 207.859 Q182.408 209.757 180.301 212.35 Q179.723 213.021 176.621 216.239 Q173.519 219.433 167.871 225.197 Z" fill="#000000" fill-rule="evenodd" fill-opacity="1" /><path clip-path="url(#clip100)" d="M35.1993 829.203 Q31.2526 827.007 29.3747 823.951 Q27.4968 820.896 27.4968 816.758 Q27.4968 811.188 31.4117 808.164 Q35.2948 805.141 42.4881 805.141 L64.0042 805.141 L64.0042 811.029 L42.679 811.029 Q37.5546 811.029 35.072 812.843 Q32.5894 814.657 32.5894 818.381 Q32.5894 822.933 35.6131 825.574 Q38.6368 828.216 43.8567 828.216 L64.0042 828.216 L64.0042 834.105 L42.679 834.105 Q37.5228 834.105 35.072 835.919 Q32.5894 837.733 32.5894 841.521 Q32.5894 846.008 35.6449 848.65 Q38.6686 851.292 43.8567 851.292 L64.0042 851.292 L64.0042 857.18 L28.3562 857.18 L28.3562 851.292 L33.8944 851.292 Q30.616 849.287 29.0564 846.486 Q27.4968 843.685 27.4968 839.834 Q27.4968 835.951 29.4702 833.245 Q31.4436 830.508 35.1993 829.203 Z" fill="#000000" fill-rule="evenodd" fill-opacity="1" /><path clip-path="url(#clip100)" d="M28.3562 793.459 L28.3562 787.603 L64.0042 787.603 L64.0042 793.459 L28.3562 793.459 M14.479 793.459 L14.479 787.603 L21.895 787.603 L21.895 793.459 L14.479 793.459 Z" fill="#000000" fill-rule="evenodd" fill-opacity="1" /><path clip-path="url(#clip100)" d="M42.4881 745.717 L64.0042 745.717 L64.0042 751.573 L42.679 751.573 Q37.6183 751.573 35.1038 753.547 Q32.5894 755.52 32.5894 759.467 Q32.5894 764.209 35.6131 766.946 Q38.6368 769.684 43.8567 769.684 L64.0042 769.684 L64.0042 775.572 L28.3562 775.572 L28.3562 769.684 L33.8944 769.684 Q30.6797 767.583 29.0883 764.75 Q27.4968 761.886 27.4968 758.162 Q27.4968 752.019 31.3163 748.868 Q35.1038 745.717 42.4881 745.717 Z" fill="#000000" fill-rule="evenodd" fill-opacity="1" /><path clip-path="url(#clip100)" d="M74.8259 706.95 L79.3773 706.95 L79.3773 740.815 L74.8259 740.815 L74.8259 706.95 Z" fill="#000000" fill-rule="evenodd" fill-opacity="1" /><path clip-path="url(#clip100)" d="M33.7671 677.986 L14.479 677.986 L14.479 672.129 L64.0042 672.129 L64.0042 677.986 L58.657 677.986 Q61.8398 679.832 63.3994 682.664 Q64.9272 685.465 64.9272 689.412 Q64.9272 695.873 59.771 699.947 Q54.6147 703.989 46.212 703.989 Q37.8093 703.989 32.6531 699.947 Q27.4968 695.873 27.4968 689.412 Q27.4968 685.465 29.0564 682.664 Q30.5842 679.832 33.7671 677.986 M46.212 697.942 Q52.6732 697.942 56.3653 695.3 Q60.0256 692.627 60.0256 687.98 Q60.0256 683.333 56.3653 680.659 Q52.6732 677.986 46.212 677.986 Q39.7508 677.986 36.0905 680.659 Q32.3984 683.333 32.3984 687.98 Q32.3984 692.627 36.0905 695.3 Q39.7508 697.942 46.212 697.942 Z" fill="#000000" fill-rule="evenodd" fill-opacity="1" /><path clip-path="url(#clip100)" d="M28.3562 660.066 L28.3562 654.21 L64.0042 654.21 L64.0042 660.066 L28.3562 660.066 M14.479 660.066 L14.479 654.21 L21.895 654.21 L21.895 660.066 L14.479 660.066 Z" fill="#000000" fill-rule="evenodd" fill-opacity="1" /><path clip-path="url(#clip100)" d="M14.479 623.909 L19.3487 623.909 L19.3487 629.511 Q19.3487 632.662 20.6219 633.903 Q21.895 635.113 25.2052 635.113 L28.3562 635.113 L28.3562 625.468 L32.9077 625.468 L32.9077 635.113 L64.0042 635.113 L64.0042 641.001 L32.9077 641.001 L32.9077 646.603 L28.3562 646.603 L28.3562 641.001 L25.8736 641.001 Q19.9216 641.001 17.2162 638.232 Q14.479 635.463 14.479 629.447 L14.479 623.909 Z" fill="#000000" fill-rule="evenodd" fill-opacity="1" /><path clip-path="url(#clip100)" d="M14.479 600.961 L19.3487 600.961 L19.3487 606.562 Q19.3487 609.713 20.6219 610.955 Q21.895 612.164 25.2052 612.164 L28.3562 612.164 L28.3562 602.52 L32.9077 602.52 L32.9077 612.164 L64.0042 612.164 L64.0042 618.052 L32.9077 618.052 L32.9077 623.654 L28.3562 623.654 L28.3562 618.052 L25.8736 618.052 Q19.9216 618.052 17.2162 615.283 Q14.479 612.514 14.479 606.499 L14.479 600.961 Z" fill="#000000" fill-rule="evenodd" fill-opacity="1" /><polyline clip-path="url(#clip102)" style="stroke:#009af9; stroke-linecap:butt; stroke-linejoin:round; stroke-width:20; stroke-opacity:1; fill:none" stroke-dasharray="80, 50" points="
  280.546,85.838 1286.47,1186.15 2292.4,1372.3 
  "/>
<path clip-path="url(#clip100)" d="
M1992.29 196.379 L2281.67 196.379 L2281.67 92.6992 L1992.29 92.6992  Z
  " fill="#ffffff" fill-rule="evenodd" fill-opacity="1"/>
<polyline clip-path="url(#clip100)" style="stroke:#000000; stroke-linecap:butt; stroke-linejoin:round; stroke-width:4; stroke-opacity:1; fill:none" points="
  1992.29,196.379 2281.67,196.379 2281.67,92.6992 1992.29,92.6992 1992.29,196.379 
  "/>
<polyline clip-path="url(#clip100)" style="stroke:#009af9; stroke-linecap:butt; stroke-linejoin:round; stroke-width:4; stroke-opacity:1; fill:none" stroke-dasharray="16, 10" points="
  2015.98,144.539 2158.15,144.539 
  "/>
<path clip-path="url(#clip100)" d="M2195.69 164.227 Q2193.89 168.856 2192.17 170.268 Q2190.46 171.68 2187.59 171.68 L2184.19 171.68 L2184.19 168.115 L2186.69 168.115 Q2188.45 168.115 2189.42 167.282 Q2190.39 166.449 2191.57 163.347 L2192.34 161.403 L2181.85 135.893 L2186.36 135.893 L2194.47 156.171 L2202.57 135.893 L2207.08 135.893 L2195.69 164.227 Z" fill="#000000" fill-rule="evenodd" fill-opacity="1" /><path clip-path="url(#clip100)" d="M2214.37 157.884 L2222.01 157.884 L2222.01 131.518 L2213.7 133.185 L2213.7 128.926 L2221.97 127.259 L2226.64 127.259 L2226.64 157.884 L2234.28 157.884 L2234.28 161.819 L2214.37 161.819 L2214.37 157.884 Z" fill="#000000" fill-rule="evenodd" fill-opacity="1" /></svg>
