<?xml version="1.0" encoding="utf-8"?>
<svg xmlns="http://www.w3.org/2000/svg" xmlns:xlink="http://www.w3.org/1999/xlink" width="600" height="400" viewBox="0 0 2400 1600">
<defs>
  <clipPath id="clip560">
    <rect x="0" y="0" width="2400" height="1600"/>
  </clipPath>
</defs>
<path clip-path="url(#clip560)" d="
M0 1600 L2400 1600 L2400 0 L0 0  Z
  " fill="#ffffff" fill-rule="evenodd" fill-opacity="1"/>
<defs>
  <clipPath id="clip561">
    <rect x="480" y="0" width="1681" height="1600"/>
  </clipPath>
</defs>
<path clip-path="url(#clip560)" d="
M235.283 1410.9 L2352.76 1410.9 L2352.76 47.2441 L235.283 47.2441  Z
  " fill="#ffffff" fill-rule="evenodd" fill-opacity="1"/>
<defs>
  <clipPath id="clip562">
    <rect x="235" y="47" width="2118" height="1365"/>
  </clipPath>
</defs>
<polyline clip-path="url(#clip562)" style="stroke:#000000; stroke-linecap:butt; stroke-linejoin:round; stroke-width:2; stroke-opacity:0.1; fill:none" points="
  757.416,1410.9 757.416,47.2441 
  "/>
<polyline clip-path="url(#clip562)" style="stroke:#000000; stroke-linecap:butt; stroke-linejoin:round; stroke-width:2; stroke-opacity:0.1; fill:none" points="
  1525.12,1410.9 1525.12,47.2441 
  "/>
<polyline clip-path="url(#clip562)" style="stroke:#000000; stroke-linecap:butt; stroke-linejoin:round; stroke-width:2; stroke-opacity:0.1; fill:none" points="
  2292.83,1410.9 2292.83,47.2441 
  "/>
<polyline clip-path="url(#clip560)" style="stroke:#000000; stroke-linecap:butt; stroke-linejoin:round; stroke-width:4; stroke-opacity:1; fill:none" points="
  235.283,1410.9 2352.76,1410.9 
  "/>
<polyline clip-path="url(#clip560)" style="stroke:#000000; stroke-linecap:butt; stroke-linejoin:round; stroke-width:4; stroke-opacity:1; fill:none" points="
  757.416,1410.9 757.416,1392 
  "/>
<polyline clip-path="url(#clip560)" style="stroke:#000000; stroke-linecap:butt; stroke-linejoin:round; stroke-width:4; stroke-opacity:1; fill:none" points="
  1525.12,1410.9 1525.12,1392 
  "/>
<polyline clip-path="url(#clip560)" style="stroke:#000000; stroke-linecap:butt; stroke-linejoin:round; stroke-width:4; stroke-opacity:1; fill:none" points="
  2292.83,1410.9 2292.83,1392 
  "/>
<path clip-path="url(#clip560)" d="M704.024 1485.02 L711.663 1485.02 L711.663 1458.66 L703.353 1460.32 L703.353 1456.06 L711.616 1454.4 L716.292 1454.4 L716.292 1485.02 L723.931 1485.02 L723.931 1488.96 L704.024 1488.96 L704.024 1485.02 Z" fill="#000000" fill-rule="evenodd" fill-opacity="1" /><path clip-path="url(#clip560)" d="M743.375 1457.48 Q739.764 1457.48 737.936 1461.04 Q736.13 1464.58 736.13 1471.71 Q736.13 1478.82 737.936 1482.38 Q739.764 1485.92 743.375 1485.92 Q747.01 1485.92 748.815 1482.38 Q750.644 1478.82 750.644 1471.71 Q750.644 1464.58 748.815 1461.04 Q747.01 1457.48 743.375 1457.48 M743.375 1453.77 Q749.186 1453.77 752.241 1458.38 Q755.32 1462.96 755.32 1471.71 Q755.32 1480.44 752.241 1485.04 Q749.186 1489.63 743.375 1489.63 Q737.565 1489.63 734.487 1485.04 Q731.431 1480.44 731.431 1471.71 Q731.431 1462.96 734.487 1458.38 Q737.565 1453.77 743.375 1453.77 Z" fill="#000000" fill-rule="evenodd" fill-opacity="1" /><path clip-path="url(#clip560)" d="M765.025 1435.97 Q762.091 1435.97 760.605 1438.86 Q759.138 1441.74 759.138 1447.53 Q759.138 1453.31 760.605 1456.2 Q762.091 1459.08 765.025 1459.08 Q767.977 1459.08 769.444 1456.2 Q770.93 1453.31 770.93 1447.53 Q770.93 1441.74 769.444 1438.86 Q767.977 1435.97 765.025 1435.97 M765.025 1432.96 Q769.745 1432.96 772.228 1436.7 Q774.729 1440.43 774.729 1447.53 Q774.729 1454.62 772.228 1458.37 Q769.745 1462.09 765.025 1462.09 Q760.304 1462.09 757.802 1458.37 Q755.32 1454.62 755.32 1447.53 Q755.32 1440.43 757.802 1436.7 Q760.304 1432.96 765.025 1432.96 Z" fill="#000000" fill-rule="evenodd" fill-opacity="1" /><path clip-path="url(#clip560)" d="M781.406 1456.77 L785.375 1456.77 L785.375 1461.55 L781.406 1461.55 L781.406 1456.77 Z" fill="#000000" fill-rule="evenodd" fill-opacity="1" /><path clip-path="url(#clip560)" d="M801.775 1435.97 Q798.841 1435.97 797.355 1438.86 Q795.888 1441.74 795.888 1447.53 Q795.888 1453.31 797.355 1456.2 Q798.841 1459.08 801.775 1459.08 Q804.728 1459.08 806.195 1456.2 Q807.681 1453.31 807.681 1447.53 Q807.681 1441.74 806.195 1438.86 Q804.728 1435.97 801.775 1435.97 M801.775 1432.96 Q806.496 1432.96 808.978 1436.7 Q811.48 1440.43 811.48 1447.53 Q811.48 1454.62 808.978 1458.37 Q806.496 1462.09 801.775 1462.09 Q797.054 1462.09 794.553 1458.37 Q792.07 1454.62 792.07 1447.53 Q792.07 1440.43 794.553 1436.7 Q797.054 1432.96 801.775 1432.96 Z" fill="#000000" fill-rule="evenodd" fill-opacity="1" /><path clip-path="url(#clip560)" d="M1472.13 1485.02 L1479.77 1485.02 L1479.77 1458.66 L1471.46 1460.32 L1471.46 1456.06 L1479.73 1454.4 L1484.4 1454.4 L1484.4 1485.02 L1492.04 1485.02 L1492.04 1488.96 L1472.13 1488.96 L1472.13 1485.02 Z" fill="#000000" fill-rule="evenodd" fill-opacity="1" /><path clip-path="url(#clip560)" d="M1511.49 1457.48 Q1507.87 1457.48 1506.05 1461.04 Q1504.24 1464.58 1504.24 1471.71 Q1504.24 1478.82 1506.05 1482.38 Q1507.87 1485.92 1511.49 1485.92 Q1515.12 1485.92 1516.93 1482.38 Q1518.75 1478.82 1518.75 1471.71 Q1518.75 1464.58 1516.93 1461.04 Q1515.12 1457.48 1511.49 1457.48 M1511.49 1453.77 Q1517.3 1453.77 1520.35 1458.38 Q1523.43 1462.96 1523.43 1471.71 Q1523.43 1480.44 1520.35 1485.04 Q1517.3 1489.63 1511.49 1489.63 Q1505.68 1489.63 1502.6 1485.04 Q1499.54 1480.44 1499.54 1471.71 Q1499.54 1462.96 1502.6 1458.38 Q1505.68 1453.77 1511.49 1453.77 Z" fill="#000000" fill-rule="evenodd" fill-opacity="1" /><path clip-path="url(#clip560)" d="M1533.13 1435.97 Q1530.2 1435.97 1528.71 1438.86 Q1527.25 1441.74 1527.25 1447.53 Q1527.25 1453.31 1528.71 1456.2 Q1530.2 1459.08 1533.13 1459.08 Q1536.09 1459.08 1537.55 1456.2 Q1539.04 1453.31 1539.04 1447.53 Q1539.04 1441.74 1537.55 1438.86 Q1536.09 1435.97 1533.13 1435.97 M1533.13 1432.96 Q1537.86 1432.96 1540.34 1436.7 Q1542.84 1440.43 1542.84 1447.53 Q1542.84 1454.62 1540.34 1458.37 Q1537.86 1462.09 1533.13 1462.09 Q1528.41 1462.09 1525.91 1458.37 Q1523.43 1454.62 1523.43 1447.53 Q1523.43 1440.43 1525.91 1436.7 Q1528.41 1432.96 1533.13 1432.96 Z" fill="#000000" fill-rule="evenodd" fill-opacity="1" /><path clip-path="url(#clip560)" d="M1549.52 1456.77 L1553.48 1456.77 L1553.48 1461.55 L1549.52 1461.55 L1549.52 1456.77 Z" fill="#000000" fill-rule="evenodd" fill-opacity="1" /><path clip-path="url(#clip560)" d="M1561.8 1433.47 L1576.71 1433.47 L1576.71 1436.66 L1565.28 1436.66 L1565.28 1443.55 Q1566.1 1443.27 1566.93 1443.13 Q1567.76 1442.98 1568.59 1442.98 Q1573.29 1442.98 1576.04 1445.56 Q1578.78 1448.14 1578.78 1452.54 Q1578.78 1457.07 1575.96 1459.59 Q1573.14 1462.09 1568 1462.09 Q1566.24 1462.09 1564.39 1461.79 Q1562.57 1461.49 1560.61 1460.89 L1560.61 1457.07 Q1562.31 1457.99 1564.11 1458.44 Q1565.92 1458.89 1567.93 1458.89 Q1571.18 1458.89 1573.08 1457.18 Q1574.98 1455.47 1574.98 1452.54 Q1574.98 1449.6 1573.08 1447.89 Q1571.18 1446.18 1567.93 1446.18 Q1566.41 1446.18 1564.88 1446.52 Q1563.38 1446.86 1561.8 1447.57 L1561.8 1433.47 Z" fill="#000000" fill-rule="evenodd" fill-opacity="1" /><path clip-path="url(#clip560)" d="M2240.28 1485.02 L2247.92 1485.02 L2247.92 1458.66 L2239.61 1460.32 L2239.61 1456.06 L2247.87 1454.4 L2252.55 1454.4 L2252.55 1485.02 L2260.19 1485.02 L2260.19 1488.96 L2240.28 1488.96 L2240.28 1485.02 Z" fill="#000000" fill-rule="evenodd" fill-opacity="1" /><path clip-path="url(#clip560)" d="M2279.63 1457.48 Q2276.02 1457.48 2274.19 1461.04 Q2272.39 1464.58 2272.39 1471.71 Q2272.39 1478.82 2274.19 1482.38 Q2276.02 1485.92 2279.63 1485.92 Q2283.27 1485.92 2285.07 1482.38 Q2286.9 1478.82 2286.9 1471.71 Q2286.9 1464.58 2285.07 1461.04 Q2283.27 1457.48 2279.63 1457.48 M2279.63 1453.77 Q2285.44 1453.77 2288.5 1458.38 Q2291.58 1462.96 2291.58 1471.71 Q2291.58 1480.44 2288.5 1485.04 Q2285.44 1489.63 2279.63 1489.63 Q2273.82 1489.63 2270.74 1485.04 Q2267.69 1480.44 2267.69 1471.71 Q2267.69 1462.96 2270.74 1458.38 Q2273.82 1453.77 2279.63 1453.77 Z" fill="#000000" fill-rule="evenodd" fill-opacity="1" /><path clip-path="url(#clip560)" d="M2292.12 1458.35 L2298.33 1458.35 L2298.33 1436.93 L2291.58 1438.28 L2291.58 1434.82 L2298.29 1433.47 L2302.09 1433.47 L2302.09 1458.35 L2308.3 1458.35 L2308.3 1461.55 L2292.12 1461.55 L2292.12 1458.35 Z" fill="#000000" fill-rule="evenodd" fill-opacity="1" /><path clip-path="url(#clip560)" d="M2315.97 1456.77 L2319.94 1456.77 L2319.94 1461.55 L2315.97 1461.55 L2315.97 1456.77 Z" fill="#000000" fill-rule="evenodd" fill-opacity="1" /><path clip-path="url(#clip560)" d="M2336.34 1435.97 Q2333.41 1435.97 2331.92 1438.86 Q2330.45 1441.74 2330.45 1447.53 Q2330.45 1453.31 2331.92 1456.2 Q2333.41 1459.08 2336.34 1459.08 Q2339.29 1459.08 2340.76 1456.2 Q2342.25 1453.31 2342.25 1447.53 Q2342.25 1441.74 2340.76 1438.86 Q2339.29 1435.97 2336.34 1435.97 M2336.34 1432.96 Q2341.06 1432.96 2343.54 1436.7 Q2346.04 1440.43 2346.04 1447.53 Q2346.04 1454.62 2343.54 1458.37 Q2341.06 1462.09 2336.34 1462.09 Q2331.62 1462.09 2329.12 1458.37 Q2326.64 1454.62 2326.64 1447.53 Q2326.64 1440.43 2329.12 1436.7 Q2331.62 1432.96 2336.34 1432.96 Z" fill="#000000" fill-rule="evenodd" fill-opacity="1" /><path clip-path="url(#clip560)" d="M1299.22 1557.6 L1297.82 1550.25 Q1296.39 1542.71 1290.73 1542.71 Q1286.46 1542.71 1284.52 1546.21 Q1282.07 1550.6 1282.07 1556.39 Q1282.07 1563.4 1284.45 1566.74 Q1286.87 1570.14 1290.73 1570.14 Q1294.99 1570.14 1297.28 1563.36 L1299.22 1557.6 M1302.5 1547.86 L1305.65 1538.54 L1310.87 1538.54 L1304.35 1557.86 L1305.62 1564.83 Q1305.91 1566.39 1307.02 1567.69 Q1308.33 1569.22 1309.34 1569.22 L1312.15 1569.22 L1312.15 1574.19 L1308.64 1574.19 Q1305.65 1574.19 1302.98 1571.51 Q1301.67 1570.18 1301.13 1567.37 Q1299.67 1570.91 1296.68 1573.68 Q1295.28 1574.98 1290.73 1574.98 Q1283.25 1574.98 1279.62 1570.14 Q1275.89 1565.15 1275.89 1556.39 Q1275.89 1547.04 1279.94 1542.64 Q1284.42 1537.74 1290.73 1537.74 Q1300.62 1537.74 1302.5 1547.86 Z" fill="#000000" fill-rule="evenodd" fill-opacity="1" /><polyline clip-path="url(#clip562)" style="stroke:#000000; stroke-linecap:butt; stroke-linejoin:round; stroke-width:2; stroke-opacity:0.1; fill:none" points="
  235.283,1377.63 2352.76,1377.63 
  "/>
<polyline clip-path="url(#clip562)" style="stroke:#000000; stroke-linecap:butt; stroke-linejoin:round; stroke-width:2; stroke-opacity:0.1; fill:none" points="
  235.283,1072.1 2352.76,1072.1 
  "/>
<polyline clip-path="url(#clip562)" style="stroke:#000000; stroke-linecap:butt; stroke-linejoin:round; stroke-width:2; stroke-opacity:0.1; fill:none" points="
  235.283,766.58 2352.76,766.58 
  "/>
<polyline clip-path="url(#clip562)" style="stroke:#000000; stroke-linecap:butt; stroke-linejoin:round; stroke-width:2; stroke-opacity:0.1; fill:none" points="
  235.283,461.056 2352.76,461.056 
  "/>
<polyline clip-path="url(#clip562)" style="stroke:#000000; stroke-linecap:butt; stroke-linejoin:round; stroke-width:2; stroke-opacity:0.1; fill:none" points="
  235.283,155.532 2352.76,155.532 
  "/>
<polyline clip-path="url(#clip560)" style="stroke:#000000; stroke-linecap:butt; stroke-linejoin:round; stroke-width:4; stroke-opacity:1; fill:none" points="
  235.283,1410.9 235.283,47.2441 
  "/>
<polyline clip-path="url(#clip560)" style="stroke:#000000; stroke-linecap:butt; stroke-linejoin:round; stroke-width:4; stroke-opacity:1; fill:none" points="
  235.283,1377.63 254.18,1377.63 
  "/>
<polyline clip-path="url(#clip560)" style="stroke:#000000; stroke-linecap:butt; stroke-linejoin:round; stroke-width:4; stroke-opacity:1; fill:none" points="
  235.283,1072.1 254.18,1072.1 
  "/>
<polyline clip-path="url(#clip560)" style="stroke:#000000; stroke-linecap:butt; stroke-linejoin:round; stroke-width:4; stroke-opacity:1; fill:none" points="
  235.283,766.58 254.18,766.58 
  "/>
<polyline clip-path="url(#clip560)" style="stroke:#000000; stroke-linecap:butt; stroke-linejoin:round; stroke-width:4; stroke-opacity:1; fill:none" points="
  235.283,461.056 254.18,461.056 
  "/>
<polyline clip-path="url(#clip560)" style="stroke:#000000; stroke-linecap:butt; stroke-linejoin:round; stroke-width:4; stroke-opacity:1; fill:none" points="
  235.283,155.532 254.18,155.532 
  "/>
<path clip-path="url(#clip560)" d="M187.338 1363.43 Q183.727 1363.43 181.899 1366.99 Q180.093 1370.53 180.093 1377.66 Q180.093 1384.77 181.899 1388.33 Q183.727 1391.87 187.338 1391.87 Q190.973 1391.87 192.778 1388.33 Q194.607 1384.77 194.607 1377.66 Q194.607 1370.53 192.778 1366.99 Q190.973 1363.43 187.338 1363.43 M187.338 1359.72 Q193.149 1359.72 196.204 1364.33 Q199.283 1368.91 199.283 1377.66 Q199.283 1386.39 196.204 1390.99 Q193.149 1395.58 187.338 1395.58 Q181.528 1395.58 178.45 1390.99 Q175.394 1386.39 175.394 1377.66 Q175.394 1368.91 178.45 1364.33 Q181.528 1359.72 187.338 1359.72 Z" fill="#000000" fill-rule="evenodd" fill-opacity="1" /><path clip-path="url(#clip560)" d="M121.043 1085.45 L137.362 1085.45 L137.362 1089.38 L115.418 1089.38 L115.418 1085.45 Q118.08 1082.69 122.663 1078.06 Q127.269 1073.41 128.45 1072.07 Q130.695 1069.55 131.575 1067.81 Q132.478 1066.05 132.478 1064.36 Q132.478 1061.61 130.533 1059.87 Q128.612 1058.13 125.51 1058.13 Q123.311 1058.13 120.857 1058.9 Q118.427 1059.66 115.649 1061.21 L115.649 1056.49 Q118.473 1055.36 120.927 1054.78 Q123.38 1054.2 125.418 1054.2 Q130.788 1054.2 133.982 1056.88 Q137.177 1059.57 137.177 1064.06 Q137.177 1066.19 136.367 1068.11 Q135.579 1070.01 133.473 1072.6 Q132.894 1073.27 129.792 1076.49 Q126.691 1079.68 121.043 1085.45 Z" fill="#000000" fill-rule="evenodd" fill-opacity="1" /><path clip-path="url(#clip560)" d="M157.177 1057.9 Q153.566 1057.9 151.737 1061.47 Q149.931 1065.01 149.931 1072.14 Q149.931 1079.24 151.737 1082.81 Q153.566 1086.35 157.177 1086.35 Q160.811 1086.35 162.616 1082.81 Q164.445 1079.24 164.445 1072.14 Q164.445 1065.01 162.616 1061.47 Q160.811 1057.9 157.177 1057.9 M157.177 1054.2 Q162.987 1054.2 166.042 1058.8 Q169.121 1063.39 169.121 1072.14 Q169.121 1080.86 166.042 1085.47 Q162.987 1090.05 157.177 1090.05 Q151.366 1090.05 148.288 1085.47 Q145.232 1080.86 145.232 1072.14 Q145.232 1063.39 148.288 1058.8 Q151.366 1054.2 157.177 1054.2 Z" fill="#000000" fill-rule="evenodd" fill-opacity="1" /><path clip-path="url(#clip560)" d="M187.338 1057.9 Q183.727 1057.9 181.899 1061.47 Q180.093 1065.01 180.093 1072.14 Q180.093 1079.24 181.899 1082.81 Q183.727 1086.35 187.338 1086.35 Q190.973 1086.35 192.778 1082.81 Q194.607 1079.24 194.607 1072.14 Q194.607 1065.01 192.778 1061.47 Q190.973 1057.9 187.338 1057.9 M187.338 1054.2 Q193.149 1054.2 196.204 1058.8 Q199.283 1063.39 199.283 1072.14 Q199.283 1080.86 196.204 1085.47 Q193.149 1090.05 187.338 1090.05 Q181.528 1090.05 178.45 1085.47 Q175.394 1080.86 175.394 1072.14 Q175.394 1063.39 178.45 1058.8 Q181.528 1054.2 187.338 1054.2 Z" fill="#000000" fill-rule="evenodd" fill-opacity="1" /><path clip-path="url(#clip560)" d="M129.862 753.374 L118.056 771.823 L129.862 771.823 L129.862 753.374 M128.635 749.3 L134.515 749.3 L134.515 771.823 L139.445 771.823 L139.445 775.712 L134.515 775.712 L134.515 783.86 L129.862 783.86 L129.862 775.712 L114.26 775.712 L114.26 771.198 L128.635 749.3 Z" fill="#000000" fill-rule="evenodd" fill-opacity="1" /><path clip-path="url(#clip560)" d="M157.177 752.378 Q153.566 752.378 151.737 755.943 Q149.931 759.485 149.931 766.614 Q149.931 773.721 151.737 777.286 Q153.566 780.827 157.177 780.827 Q160.811 780.827 162.616 777.286 Q164.445 773.721 164.445 766.614 Q164.445 759.485 162.616 755.943 Q160.811 752.378 157.177 752.378 M157.177 748.675 Q162.987 748.675 166.042 753.281 Q169.121 757.864 169.121 766.614 Q169.121 775.341 166.042 779.948 Q162.987 784.531 157.177 784.531 Q151.366 784.531 148.288 779.948 Q145.232 775.341 145.232 766.614 Q145.232 757.864 148.288 753.281 Q151.366 748.675 157.177 748.675 Z" fill="#000000" fill-rule="evenodd" fill-opacity="1" /><path clip-path="url(#clip560)" d="M187.338 752.378 Q183.727 752.378 181.899 755.943 Q180.093 759.485 180.093 766.614 Q180.093 773.721 181.899 777.286 Q183.727 780.827 187.338 780.827 Q190.973 780.827 192.778 777.286 Q194.607 773.721 194.607 766.614 Q194.607 759.485 192.778 755.943 Q190.973 752.378 187.338 752.378 M187.338 748.675 Q193.149 748.675 196.204 753.281 Q199.283 757.864 199.283 766.614 Q199.283 775.341 196.204 779.948 Q193.149 784.531 187.338 784.531 Q181.528 784.531 178.45 779.948 Q175.394 775.341 175.394 766.614 Q175.394 757.864 178.45 753.281 Q181.528 748.675 187.338 748.675 Z" fill="#000000" fill-rule="evenodd" fill-opacity="1" /><path clip-path="url(#clip560)" d="M127.593 459.193 Q124.445 459.193 122.593 461.345 Q120.765 463.498 120.765 467.248 Q120.765 470.975 122.593 473.151 Q124.445 475.304 127.593 475.304 Q130.742 475.304 132.57 473.151 Q134.422 470.975 134.422 467.248 Q134.422 463.498 132.57 461.345 Q130.742 459.193 127.593 459.193 M136.876 444.54 L136.876 448.799 Q135.117 447.966 133.311 447.526 Q131.529 447.086 129.769 447.086 Q125.14 447.086 122.686 450.211 Q120.255 453.336 119.908 459.656 Q121.274 457.642 123.334 456.577 Q125.394 455.489 127.871 455.489 Q133.08 455.489 136.089 458.66 Q139.121 461.808 139.121 467.248 Q139.121 472.572 135.973 475.79 Q132.825 479.007 127.593 479.007 Q121.598 479.007 118.427 474.424 Q115.256 469.818 115.256 461.091 Q115.256 452.896 119.144 448.035 Q123.033 443.151 129.584 443.151 Q131.343 443.151 133.126 443.498 Q134.931 443.845 136.876 444.54 Z" fill="#000000" fill-rule="evenodd" fill-opacity="1" /><path clip-path="url(#clip560)" d="M157.177 446.855 Q153.566 446.855 151.737 450.42 Q149.931 453.961 149.931 461.091 Q149.931 468.197 151.737 471.762 Q153.566 475.304 157.177 475.304 Q160.811 475.304 162.616 471.762 Q164.445 468.197 164.445 461.091 Q164.445 453.961 162.616 450.42 Q160.811 446.855 157.177 446.855 M157.177 443.151 Q162.987 443.151 166.042 447.758 Q169.121 452.341 169.121 461.091 Q169.121 469.818 166.042 474.424 Q162.987 479.007 157.177 479.007 Q151.366 479.007 148.288 474.424 Q145.232 469.818 145.232 461.091 Q145.232 452.341 148.288 447.758 Q151.366 443.151 157.177 443.151 Z" fill="#000000" fill-rule="evenodd" fill-opacity="1" /><path clip-path="url(#clip560)" d="M187.338 446.855 Q183.727 446.855 181.899 450.42 Q180.093 453.961 180.093 461.091 Q180.093 468.197 181.899 471.762 Q183.727 475.304 187.338 475.304 Q190.973 475.304 192.778 471.762 Q194.607 468.197 194.607 461.091 Q194.607 453.961 192.778 450.42 Q190.973 446.855 187.338 446.855 M187.338 443.151 Q193.149 443.151 196.204 447.758 Q199.283 452.341 199.283 461.091 Q199.283 469.818 196.204 474.424 Q193.149 479.007 187.338 479.007 Q181.528 479.007 178.45 474.424 Q175.394 469.818 175.394 461.091 Q175.394 452.341 178.45 447.758 Q181.528 443.151 187.338 443.151 Z" fill="#000000" fill-rule="evenodd" fill-opacity="1" /><path clip-path="url(#clip560)" d="M127.015 156.4 Q123.681 156.4 121.76 158.183 Q119.862 159.965 119.862 163.09 Q119.862 166.215 121.76 167.998 Q123.681 169.78 127.015 169.78 Q130.348 169.78 132.269 167.998 Q134.191 166.192 134.191 163.09 Q134.191 159.965 132.269 158.183 Q130.371 156.4 127.015 156.4 M122.339 154.41 Q119.33 153.669 117.64 151.609 Q115.973 149.549 115.973 146.586 Q115.973 142.442 118.913 140.035 Q121.876 137.627 127.015 137.627 Q132.177 137.627 135.117 140.035 Q138.056 142.442 138.056 146.586 Q138.056 149.549 136.367 151.609 Q134.7 153.669 131.714 154.41 Q135.093 155.197 136.968 157.488 Q138.867 159.78 138.867 163.09 Q138.867 168.113 135.788 170.799 Q132.732 173.484 127.015 173.484 Q121.297 173.484 118.218 170.799 Q115.163 168.113 115.163 163.09 Q115.163 159.78 117.061 157.488 Q118.959 155.197 122.339 154.41 M120.626 147.026 Q120.626 149.711 122.293 151.215 Q123.982 152.72 127.015 152.72 Q130.024 152.72 131.714 151.215 Q133.427 149.711 133.427 147.026 Q133.427 144.34 131.714 142.836 Q130.024 141.331 127.015 141.331 Q123.982 141.331 122.293 142.836 Q120.626 144.34 120.626 147.026 Z" fill="#000000" fill-rule="evenodd" fill-opacity="1" /><path clip-path="url(#clip560)" d="M157.177 141.331 Q153.566 141.331 151.737 144.896 Q149.931 148.438 149.931 155.567 Q149.931 162.674 151.737 166.238 Q153.566 169.78 157.177 169.78 Q160.811 169.78 162.616 166.238 Q164.445 162.674 164.445 155.567 Q164.445 148.438 162.616 144.896 Q160.811 141.331 157.177 141.331 M157.177 137.627 Q162.987 137.627 166.042 142.234 Q169.121 146.817 169.121 155.567 Q169.121 164.294 166.042 168.9 Q162.987 173.484 157.177 173.484 Q151.366 173.484 148.288 168.9 Q145.232 164.294 145.232 155.567 Q145.232 146.817 148.288 142.234 Q151.366 137.627 157.177 137.627 Z" fill="#000000" fill-rule="evenodd" fill-opacity="1" /><path clip-path="url(#clip560)" d="M187.338 141.331 Q183.727 141.331 181.899 144.896 Q180.093 148.438 180.093 155.567 Q180.093 162.674 181.899 166.238 Q183.727 169.78 187.338 169.78 Q190.973 169.78 192.778 166.238 Q194.607 162.674 194.607 155.567 Q194.607 148.438 192.778 144.896 Q190.973 141.331 187.338 141.331 M187.338 137.627 Q193.149 137.627 196.204 142.234 Q199.283 146.817 199.283 155.567 Q199.283 164.294 196.204 168.9 Q193.149 173.484 187.338 173.484 Q181.528 173.484 178.45 168.9 Q175.394 164.294 175.394 155.567 Q175.394 146.817 178.45 142.234 Q181.528 137.627 187.338 137.627 Z" fill="#000000" fill-rule="evenodd" fill-opacity="1" /><path clip-path="url(#clip560)" d="M35.1993 829.203 Q31.2526 827.007 29.3747 823.951 Q27.4968 820.896 27.4968 816.758 Q27.4968 811.188 31.4117 808.164 Q35.2948 805.141 42.4881 805.141 L64.0042 805.141 L64.0042 811.029 L42.679 811.029 Q37.5546 811.029 35.072 812.843 Q32.5894 814.657 32.5894 818.381 Q32.5894 822.933 35.6131 825.574 Q38.6368 828.216 43.8567 828.216 L64.0042 828.216 L64.0042 834.105 L42.679 834.105 Q37.5228 834.105 35.072 835.919 Q32.5894 837.733 32.5894 841.521 Q32.5894 846.008 35.6449 848.65 Q38.6686 851.292 43.8567 851.292 L64.0042 851.292 L64.0042 857.18 L28.3562 857.18 L28.3562 851.292 L33.8944 851.292 Q30.616 849.287 29.0564 846.486 Q27.4968 843.685 27.4968 839.834 Q27.4968 835.951 29.4702 833.245 Q31.4436 830.508 35.1993 829.203 Z" fill="#000000" fill-rule="evenodd" fill-opacity="1" /><path clip-path="url(#clip560)" d="M28.3562 793.459 L28.3562 787.603 L64.0042 787.603 L64.0042 793.459 L28.3562 793.459 M14.479 793.459 L14.479 787.603 L21.895 787.603 L21.895 793.459 L14.479 793.459 Z" fill="#000000" fill-rule="evenodd" fill-opacity="1" /><path clip-path="url(#clip560)" d="M42.4881 745.717 L64.0042 745.717 L64.0042 751.573 L42.679 751.573 Q37.6183 751.573 35.1038 753.547 Q32.5894 755.52 32.5894 759.467 Q32.5894 764.209 35.6131 766.946 Q38.6368 769.684 43.8567 769.684 L64.0042 769.684 L64.0042 775.572 L28.3562 775.572 L28.3562 769.684 L33.8944 769.684 Q30.6797 767.583 29.0883 764.75 Q27.4968 761.886 27.4968 758.162 Q27.4968 752.019 31.3163 748.868 Q35.1038 745.717 42.4881 745.717 Z" fill="#000000" fill-rule="evenodd" fill-opacity="1" /><path clip-path="url(#clip560)" d="M74.8259 706.95 L79.3773 706.95 L79.3773 740.815 L74.8259 740.815 L74.8259 706.95 Z" fill="#000000" fill-rule="evenodd" fill-opacity="1" /><path clip-path="url(#clip560)" d="M33.7671 677.986 L14.479 677.986 L14.479 672.129 L64.0042 672.129 L64.0042 677.986 L58.657 677.986 Q61.8398 679.832 63.3994 682.664 Q64.9272 685.465 64.9272 689.412 Q64.9272 695.873 59.771 699.947 Q54.6147 703.989 46.212 703.989 Q37.8093 703.989 32.6531 699.947 Q27.4968 695.873 27.4968 689.412 Q27.4968 685.465 29.0564 682.664 Q30.5842 679.832 33.7671 677.986 M46.212 697.942 Q52.6732 697.942 56.3653 695.3 Q60.0256 692.627 60.0256 687.98 Q60.0256 683.333 56.3653 680.659 Q52.6732 677.986 46.212 677.986 Q39.7508 677.986 36.0905 680.659 Q32.3984 683.333 32.3984 687.98 Q32.3984 692.627 36.0905 695.3 Q39.7508 697.942 46.212 697.942 Z" fill="#000000" fill-rule="evenodd" fill-opacity="1" /><path clip-path="url(#clip560)" d="M28.3562 660.066 L28.3562 654.21 L64.0042 654.21 L64.0042 660.066 L28.3562 660.066 M14.479 660.066 L14.479 654.21 L21.895 654.21 L21.895 660.066 L14.479 660.066 Z" fill="#000000" fill-rule="evenodd" fill-opacity="1" /><path clip-path="url(#clip560)" d="M14.479 623.909 L19.3487 623.909 L19.3487 629.511 Q19.3487 632.662 20.6219 633.903 Q21.895 635.113 25.2052 635.113 L28.3562 635.113 L28.3562 625.468 L32.9077 625.468 L32.9077 635.113 L64.0042 635.113 L64.0042 641.001 L32.9077 641.001 L32.9077 646.603 L28.3562 646.603 L28.3562 641.001 L25.8736 641.001 Q19.9216 641.001 17.2162 638.232 Q14.479 635.463 14.479 629.447 L14.479 623.909 Z" fill="#000000" fill-rule="evenodd" fill-opacity="1" /><path clip-path="url(#clip560)" d="M14.479 600.961 L19.3487 600.961 L19.3487 606.562 Q19.3487 609.713 20.6219 610.955 Q21.895 612.164 25.2052 612.164 L28.3562 612.164 L28.3562 602.52 L32.9077 602.52 L32.9077 612.164 L64.0042 612.164 L64.0042 618.052 L32.9077 618.052 L32.9077 623.654 L28.3562 623.654 L28.3562 618.052 L25.8736 618.052 Q19.9216 618.052 17.2162 615.283 Q14.479 612.514 14.479 606.499 L14.479 600.961 Z" fill="#000000" fill-rule="evenodd" fill-opacity="1" /><polyline clip-path="url(#clip562)" style="stroke:#009af9; stroke-linecap:butt; stroke-linejoin:round; stroke-width:20; stroke-opacity:1; fill:none" stroke-dasharray="80, 50" points="
  295.211,1321.35 757.416,1369.23 1027.79,1372.3 1219.62,1360.02 1368.42,1293.84 1489.99,1204.26 1592.78,1103.9 1681.83,1000.81 1760.37,899.235 1830.62,801.372 
  1894.18,708.274 1952.2,620.355 2005.57,537.67 2054.99,460.078 2101,387.334 2144.03,319.147 2184.46,255.205 2222.57,195.201 2258.62,138.838 2292.83,85.838 
  
  "/>
<path clip-path="url(#clip560)" d="
M1994.47 196.379 L2282.17 196.379 L2282.17 92.6992 L1994.47 92.6992  Z
  " fill="#ffffff" fill-rule="evenodd" fill-opacity="1"/>
<polyline clip-path="url(#clip560)" style="stroke:#000000; stroke-linecap:butt; stroke-linejoin:round; stroke-width:4; stroke-opacity:1; fill:none" points="
  1994.47,196.379 2282.17,196.379 2282.17,92.6992 1994.47,92.6992 1994.47,196.379 
  "/>
<polyline clip-path="url(#clip560)" style="stroke:#009af9; stroke-linecap:butt; stroke-linejoin:round; stroke-width:4; stroke-opacity:1; fill:none" stroke-dasharray="16, 10" points="
  2018,144.539 2159.16,144.539 
  "/>
<path clip-path="url(#clip560)" d="M2196.53 164.227 Q2194.73 168.856 2193.01 170.268 Q2191.3 171.68 2188.43 171.68 L2185.03 171.68 L2185.03 168.115 L2187.53 168.115 Q2189.29 168.115 2190.26 167.282 Q2191.23 166.449 2192.41 163.347 L2193.17 161.403 L2182.69 135.893 L2187.2 135.893 L2195.3 156.171 L2203.41 135.893 L2207.92 135.893 L2196.53 164.227 Z" fill="#000000" fill-rule="evenodd" fill-opacity="1" /><path clip-path="url(#clip560)" d="M2215.21 157.884 L2222.85 157.884 L2222.85 131.518 L2214.54 133.185 L2214.54 128.926 L2222.8 127.259 L2227.48 127.259 L2227.48 157.884 L2235.12 157.884 L2235.12 161.819 L2215.21 161.819 L2215.21 157.884 Z" fill="#000000" fill-rule="evenodd" fill-opacity="1" /></svg>
