<?xml version="1.0" encoding="utf-8"?>
<svg xmlns="http://www.w3.org/2000/svg" xmlns:xlink="http://www.w3.org/1999/xlink" width="600" height="400" viewBox="0 0 2400 1600">
<defs>
  <clipPath id="clip170">
    <rect x="0" y="0" width="2400" height="1600"/>
  </clipPath>
</defs>
<path clip-path="url(#clip170)" d="
M0 1600 L2400 1600 L2400 0 L0 0  Z
  " fill="#ffffff" fill-rule="evenodd" fill-opacity="1"/>
<defs>
  <clipPath id="clip171">
    <rect x="480" y="0" width="1681" height="1600"/>
  </clipPath>
</defs>
<path clip-path="url(#clip170)" d="
M227.042 1410.9 L2352.76 1410.9 L2352.76 47.2441 L227.042 47.2441  Z
  " fill="#ffffff" fill-rule="evenodd" fill-opacity="1"/>
<defs>
  <clipPath id="clip172">
    <rect x="227" y="47" width="2127" height="1365"/>
  </clipPath>
</defs>
<polyline clip-path="url(#clip172)" style="stroke:#000000; stroke-width:2; stroke-opacity:0.1; fill:none" points="
  287.204,1410.9 287.204,47.2441 
  "/>
<polyline clip-path="url(#clip172)" style="stroke:#000000; stroke-width:2; stroke-opacity:0.1; fill:none" points="
  955.667,1410.9 955.667,47.2441 
  "/>
<polyline clip-path="url(#clip172)" style="stroke:#000000; stroke-width:2; stroke-opacity:0.1; fill:none" points="
  1624.13,1410.9 1624.13,47.2441 
  "/>
<polyline clip-path="url(#clip172)" style="stroke:#000000; stroke-width:2; stroke-opacity:0.1; fill:none" points="
  2292.59,1410.9 2292.59,47.2441 
  "/>
<polyline clip-path="url(#clip170)" style="stroke:#000000; stroke-width:4; stroke-opacity:1; fill:none" points="
  227.042,1410.9 2352.76,1410.9 
  "/>
<polyline clip-path="url(#clip170)" style="stroke:#000000; stroke-width:4; stroke-opacity:1; fill:none" points="
  287.204,1410.9 287.204,1394.53 
  "/>
<polyline clip-path="url(#clip170)" style="stroke:#000000; stroke-width:4; stroke-opacity:1; fill:none" points="
  955.667,1410.9 955.667,1394.53 
  "/>
<polyline clip-path="url(#clip170)" style="stroke:#000000; stroke-width:4; stroke-opacity:1; fill:none" points="
  1624.13,1410.9 1624.13,1394.53 
  "/>
<polyline clip-path="url(#clip170)" style="stroke:#000000; stroke-width:4; stroke-opacity:1; fill:none" points="
  2292.59,1410.9 2292.59,1394.53 
  "/>
<path clip-path="url(#clip170)" d="M 0 0 M240.983 1489.17 L248.622 1489.17 L248.622 1462.8 L240.312 1464.47 L240.312 1460.21 L248.576 1458.54 L253.251 1458.54 L253.251 1489.17 L260.89 1489.17 L260.89 1493.1 L240.983 1493.1 L240.983 1489.17 Z" fill="#000000" fill-rule="evenodd" fill-opacity="1" /><path clip-path="url(#clip170)" d="M 0 0 M275.96 1461.62 Q272.349 1461.62 270.52 1465.19 Q268.714 1468.73 268.714 1475.86 Q268.714 1482.97 270.52 1486.53 Q272.349 1490.07 275.96 1490.07 Q279.594 1490.07 281.399 1486.53 Q283.228 1482.97 283.228 1475.86 Q283.228 1468.73 281.399 1465.19 Q279.594 1461.62 275.96 1461.62 M275.96 1457.92 Q281.77 1457.92 284.825 1462.53 Q287.904 1467.11 287.904 1475.86 Q287.904 1484.59 284.825 1489.19 Q281.77 1493.78 275.96 1493.78 Q270.15 1493.78 267.071 1489.19 Q264.015 1484.59 264.015 1475.86 Q264.015 1467.11 267.071 1462.53 Q270.15 1457.92 275.96 1457.92 Z" fill="#000000" fill-rule="evenodd" fill-opacity="1" /><path clip-path="url(#clip170)" d="M 0 0 M287.904 1452.02 L312.016 1452.02 L312.016 1455.22 L287.904 1455.22 L287.904 1452.02 Z" fill="#000000" fill-rule="evenodd" fill-opacity="1" /><path clip-path="url(#clip170)" d="M 0 0 M324.73 1450.14 Q322.172 1450.14 320.667 1451.89 Q319.181 1453.64 319.181 1456.68 Q319.181 1459.71 320.667 1461.48 Q322.172 1463.23 324.73 1463.23 Q327.288 1463.23 328.773 1461.48 Q330.278 1459.71 330.278 1456.68 Q330.278 1453.64 328.773 1451.89 Q327.288 1450.14 324.73 1450.14 M332.272 1438.23 L332.272 1441.69 Q330.842 1441.02 329.375 1440.66 Q327.927 1440.3 326.498 1440.3 Q322.736 1440.3 320.742 1442.84 Q318.768 1445.38 318.486 1450.52 Q319.595 1448.88 321.269 1448.01 Q322.943 1447.13 324.955 1447.13 Q329.187 1447.13 331.632 1449.71 Q334.096 1452.26 334.096 1456.68 Q334.096 1461.01 331.538 1463.62 Q328.98 1466.24 324.73 1466.24 Q319.858 1466.24 317.282 1462.51 Q314.705 1458.77 314.705 1451.68 Q314.705 1445.02 317.865 1441.07 Q321.025 1437.11 326.347 1437.11 Q327.777 1437.11 329.225 1437.39 Q330.692 1437.67 332.272 1438.23 Z" fill="#000000" fill-rule="evenodd" fill-opacity="1" /><path clip-path="url(#clip170)" d="M 0 0 M909.917 1489.17 L917.556 1489.17 L917.556 1462.8 L909.245 1464.47 L909.245 1460.21 L917.509 1458.54 L922.185 1458.54 L922.185 1489.17 L929.824 1489.17 L929.824 1493.1 L909.917 1493.1 L909.917 1489.17 Z" fill="#000000" fill-rule="evenodd" fill-opacity="1" /><path clip-path="url(#clip170)" d="M 0 0 M944.893 1461.62 Q941.282 1461.62 939.454 1465.19 Q937.648 1468.73 937.648 1475.86 Q937.648 1482.97 939.454 1486.53 Q941.282 1490.07 944.893 1490.07 Q948.528 1490.07 950.333 1486.53 Q952.162 1482.97 952.162 1475.86 Q952.162 1468.73 950.333 1465.19 Q948.528 1461.62 944.893 1461.62 M944.893 1457.92 Q950.704 1457.92 953.759 1462.53 Q956.838 1467.11 956.838 1475.86 Q956.838 1484.59 953.759 1489.19 Q950.704 1493.78 944.893 1493.78 Q939.083 1493.78 936.005 1489.19 Q932.949 1484.59 932.949 1475.86 Q932.949 1467.11 936.005 1462.53 Q939.083 1457.92 944.893 1457.92 Z" fill="#000000" fill-rule="evenodd" fill-opacity="1" /><path clip-path="url(#clip170)" d="M 0 0 M956.838 1452.02 L980.949 1452.02 L980.949 1455.22 L956.838 1455.22 L956.838 1452.02 Z" fill="#000000" fill-rule="evenodd" fill-opacity="1" /><path clip-path="url(#clip170)" d="M 0 0 M985.106 1437.61 L1000.02 1437.61 L1000.02 1440.81 L988.585 1440.81 L988.585 1447.69 Q989.413 1447.41 990.24 1447.28 Q991.068 1447.13 991.895 1447.13 Q996.597 1447.13 999.343 1449.71 Q1002.09 1452.28 1002.09 1456.68 Q1002.09 1461.22 999.268 1463.74 Q996.447 1466.24 991.312 1466.24 Q989.544 1466.24 987.701 1465.94 Q985.877 1465.64 983.921 1465.04 L983.921 1461.22 Q985.614 1462.14 987.419 1462.59 Q989.225 1463.04 991.237 1463.04 Q994.491 1463.04 996.39 1461.33 Q998.29 1459.62 998.29 1456.68 Q998.29 1453.75 996.39 1452.04 Q994.491 1450.33 991.237 1450.33 Q989.714 1450.33 988.19 1450.67 Q986.686 1451 985.106 1451.72 L985.106 1437.61 Z" fill="#000000" fill-rule="evenodd" fill-opacity="1" /><path clip-path="url(#clip170)" d="M 0 0 M1577.78 1489.17 L1585.42 1489.17 L1585.42 1462.8 L1577.11 1464.47 L1577.11 1460.21 L1585.37 1458.54 L1590.05 1458.54 L1590.05 1489.17 L1597.69 1489.17 L1597.69 1493.1 L1577.78 1493.1 L1577.78 1489.17 Z" fill="#000000" fill-rule="evenodd" fill-opacity="1" /><path clip-path="url(#clip170)" d="M 0 0 M1612.75 1461.62 Q1609.14 1461.62 1607.32 1465.19 Q1605.51 1468.73 1605.51 1475.86 Q1605.51 1482.97 1607.32 1486.53 Q1609.14 1490.07 1612.75 1490.07 Q1616.39 1490.07 1618.19 1486.53 Q1620.02 1482.97 1620.02 1475.86 Q1620.02 1468.73 1618.19 1465.19 Q1616.39 1461.62 1612.75 1461.62 M1612.75 1457.92 Q1618.57 1457.92 1621.62 1462.53 Q1624.7 1467.11 1624.7 1475.86 Q1624.7 1484.59 1621.62 1489.19 Q1618.57 1493.78 1612.75 1493.78 Q1606.94 1493.78 1603.87 1489.19 Q1600.81 1484.59 1600.81 1475.86 Q1600.81 1467.11 1603.87 1462.53 Q1606.94 1457.92 1612.75 1457.92 Z" fill="#000000" fill-rule="evenodd" fill-opacity="1" /><path clip-path="url(#clip170)" d="M 0 0 M1624.7 1452.02 L1648.81 1452.02 L1648.81 1455.22 L1624.7 1455.22 L1624.7 1452.02 Z" fill="#000000" fill-rule="evenodd" fill-opacity="1" /><path clip-path="url(#clip170)" d="M 0 0 M1663.37 1440.92 L1653.78 1455.91 L1663.37 1455.91 L1663.37 1440.92 M1662.37 1437.61 L1667.15 1437.61 L1667.15 1455.91 L1671.15 1455.91 L1671.15 1459.07 L1667.15 1459.07 L1667.15 1465.69 L1663.37 1465.69 L1663.37 1459.07 L1650.69 1459.07 L1650.69 1455.41 L1662.37 1437.61 Z" fill="#000000" fill-rule="evenodd" fill-opacity="1" /><path clip-path="url(#clip170)" d="M 0 0 M2246.7 1489.17 L2254.34 1489.17 L2254.34 1462.8 L2246.03 1464.47 L2246.03 1460.21 L2254.3 1458.54 L2258.97 1458.54 L2258.97 1489.17 L2266.61 1489.17 L2266.61 1493.1 L2246.7 1493.1 L2246.7 1489.17 Z" fill="#000000" fill-rule="evenodd" fill-opacity="1" /><path clip-path="url(#clip170)" d="M 0 0 M2281.68 1461.62 Q2278.07 1461.62 2276.24 1465.19 Q2274.43 1468.73 2274.43 1475.86 Q2274.43 1482.97 2276.24 1486.53 Q2278.07 1490.07 2281.68 1490.07 Q2285.31 1490.07 2287.12 1486.53 Q2288.95 1482.97 2288.95 1475.86 Q2288.95 1468.73 2287.12 1465.19 Q2285.31 1461.62 2281.68 1461.62 M2281.68 1457.92 Q2287.49 1457.92 2290.54 1462.53 Q2293.62 1467.11 2293.62 1475.86 Q2293.62 1484.59 2290.54 1489.19 Q2287.49 1493.78 2281.68 1493.78 Q2275.87 1493.78 2272.79 1489.19 Q2269.73 1484.59 2269.73 1475.86 Q2269.73 1467.11 2272.79 1462.53 Q2275.87 1457.92 2281.68 1457.92 Z" fill="#000000" fill-rule="evenodd" fill-opacity="1" /><path clip-path="url(#clip170)" d="M 0 0 M2293.62 1452.02 L2317.74 1452.02 L2317.74 1455.22 L2293.62 1455.22 L2293.62 1452.02 Z" fill="#000000" fill-rule="evenodd" fill-opacity="1" /><path clip-path="url(#clip170)" d="M 0 0 M2333.36 1450.55 Q2336.09 1451.14 2337.61 1452.98 Q2339.16 1454.82 2339.16 1457.53 Q2339.16 1461.69 2336.3 1463.96 Q2333.44 1466.24 2328.17 1466.24 Q2326.41 1466.24 2324.52 1465.88 Q2322.66 1465.54 2320.67 1464.85 L2320.67 1461.18 Q2322.25 1462.1 2324.13 1462.57 Q2326.01 1463.04 2328.06 1463.04 Q2331.63 1463.04 2333.5 1461.63 Q2335.38 1460.22 2335.38 1457.53 Q2335.38 1455.05 2333.63 1453.66 Q2331.9 1452.25 2328.79 1452.25 L2325.52 1452.25 L2325.52 1449.12 L2328.94 1449.12 Q2331.75 1449.12 2333.23 1448.01 Q2334.72 1446.89 2334.72 1444.78 Q2334.72 1442.62 2333.18 1441.47 Q2331.65 1440.3 2328.79 1440.3 Q2327.23 1440.3 2325.45 1440.64 Q2323.66 1440.98 2321.52 1441.69 L2321.52 1438.31 Q2323.68 1437.71 2325.56 1437.41 Q2327.46 1437.11 2329.13 1437.11 Q2333.46 1437.11 2335.98 1439.08 Q2338.5 1441.04 2338.5 1444.38 Q2338.5 1446.72 2337.16 1448.33 Q2335.83 1449.93 2333.36 1450.55 Z" fill="#000000" fill-rule="evenodd" fill-opacity="1" /><path clip-path="url(#clip170)" d="M 0 0 M1221.42 1512.66 L1227.31 1512.66 L1227.31 1541.91 L1244.78 1526.54 L1252.26 1526.54 L1233.36 1543.22 L1253.06 1562.19 L1245.42 1562.19 L1227.31 1544.78 L1227.31 1562.19 L1221.42 1562.19 L1221.42 1512.66 Z" fill="#000000" fill-rule="evenodd" fill-opacity="1" /><path clip-path="url(#clip170)" d="M 0 0 M1286.29 1573.01 L1286.29 1577.56 L1252.42 1577.56 L1252.42 1573.01 L1286.29 1573.01 Z" fill="#000000" fill-rule="evenodd" fill-opacity="1" /><path clip-path="url(#clip170)" d="M 0 0 M1306.24 1530.64 Q1301.53 1530.64 1298.8 1534.34 Q1296.06 1538 1296.06 1544.39 Q1296.06 1550.79 1298.76 1554.48 Q1301.5 1558.14 1306.24 1558.14 Q1310.92 1558.14 1313.66 1554.45 Q1316.4 1550.76 1316.4 1544.39 Q1316.4 1538.06 1313.66 1534.37 Q1310.92 1530.64 1306.24 1530.64 M1306.24 1525.68 Q1313.88 1525.68 1318.24 1530.64 Q1322.6 1535.61 1322.6 1544.39 Q1322.6 1553.15 1318.24 1558.14 Q1313.88 1563.11 1306.24 1563.11 Q1298.57 1563.11 1294.21 1558.14 Q1289.88 1553.15 1289.88 1544.39 Q1289.88 1535.61 1294.21 1530.64 Q1298.57 1525.68 1306.24 1525.68 Z" fill="#000000" fill-rule="evenodd" fill-opacity="1" /><path clip-path="url(#clip170)" d="M 0 0 M1358.38 1540.67 L1358.38 1562.19 L1352.52 1562.19 L1352.52 1540.86 Q1352.52 1535.8 1350.55 1533.29 Q1348.57 1530.77 1344.63 1530.77 Q1339.89 1530.77 1337.15 1533.79 Q1334.41 1536.82 1334.41 1542.04 L1334.41 1562.19 L1328.52 1562.19 L1328.52 1526.54 L1334.41 1526.54 L1334.41 1532.08 Q1336.51 1528.86 1339.34 1527.27 Q1342.21 1525.68 1345.93 1525.68 Q1352.08 1525.68 1355.23 1529.5 Q1358.38 1533.29 1358.38 1540.67 Z" fill="#000000" fill-rule="evenodd" fill-opacity="1" /><polyline clip-path="url(#clip172)" style="stroke:#000000; stroke-width:2; stroke-opacity:0.1; fill:none" points="
  227.042,1392.84 2352.76,1392.84 
  "/>
<polyline clip-path="url(#clip172)" style="stroke:#000000; stroke-width:2; stroke-opacity:0.1; fill:none" points="
  227.042,1013.68 2352.76,1013.68 
  "/>
<polyline clip-path="url(#clip172)" style="stroke:#000000; stroke-width:2; stroke-opacity:0.1; fill:none" points="
  227.042,634.527 2352.76,634.527 
  "/>
<polyline clip-path="url(#clip172)" style="stroke:#000000; stroke-width:2; stroke-opacity:0.1; fill:none" points="
  227.042,255.369 2352.76,255.369 
  "/>
<polyline clip-path="url(#clip170)" style="stroke:#000000; stroke-width:4; stroke-opacity:1; fill:none" points="
  227.042,1410.9 227.042,47.2441 
  "/>
<polyline clip-path="url(#clip170)" style="stroke:#000000; stroke-width:4; stroke-opacity:1; fill:none" points="
  227.042,1392.84 252.551,1392.84 
  "/>
<polyline clip-path="url(#clip170)" style="stroke:#000000; stroke-width:4; stroke-opacity:1; fill:none" points="
  227.042,1013.68 252.551,1013.68 
  "/>
<polyline clip-path="url(#clip170)" style="stroke:#000000; stroke-width:4; stroke-opacity:1; fill:none" points="
  227.042,634.527 252.551,634.527 
  "/>
<polyline clip-path="url(#clip170)" style="stroke:#000000; stroke-width:4; stroke-opacity:1; fill:none" points="
  227.042,255.369 252.551,255.369 
  "/>
<path clip-path="url(#clip170)" d="M 0 0 M179.098 1378.64 Q175.487 1378.64 173.658 1382.21 Q171.852 1385.75 171.852 1392.88 Q171.852 1399.98 173.658 1403.55 Q175.487 1407.09 179.098 1407.09 Q182.732 1407.09 184.538 1403.55 Q186.366 1399.98 186.366 1392.88 Q186.366 1385.75 184.538 1382.21 Q182.732 1378.64 179.098 1378.64 M179.098 1374.94 Q184.908 1374.94 187.963 1379.54 Q191.042 1384.13 191.042 1392.88 Q191.042 1401.6 187.963 1406.21 Q184.908 1410.79 179.098 1410.79 Q173.288 1410.79 170.209 1406.21 Q167.153 1401.6 167.153 1392.88 Q167.153 1384.13 170.209 1379.54 Q173.288 1374.94 179.098 1374.94 Z" fill="#000000" fill-rule="evenodd" fill-opacity="1" /><path clip-path="url(#clip170)" d="M 0 0 M117.107 1027.03 L124.746 1027.03 L124.746 1000.66 L116.436 1002.33 L116.436 998.072 L124.7 996.405 L129.376 996.405 L129.376 1027.03 L137.015 1027.03 L137.015 1030.96 L117.107 1030.96 L117.107 1027.03 Z" fill="#000000" fill-rule="evenodd" fill-opacity="1" /><path clip-path="url(#clip170)" d="M 0 0 M152.084 999.484 Q148.473 999.484 146.644 1003.05 Q144.839 1006.59 144.839 1013.72 Q144.839 1020.83 146.644 1024.39 Q148.473 1027.93 152.084 1027.93 Q155.718 1027.93 157.524 1024.39 Q159.353 1020.83 159.353 1013.72 Q159.353 1006.59 157.524 1003.05 Q155.718 999.484 152.084 999.484 M152.084 995.78 Q157.894 995.78 160.95 1000.39 Q164.028 1004.97 164.028 1013.72 Q164.028 1022.45 160.95 1027.05 Q157.894 1031.64 152.084 1031.64 Q146.274 1031.64 143.195 1027.05 Q140.14 1022.45 140.14 1013.72 Q140.14 1004.97 143.195 1000.39 Q146.274 995.78 152.084 995.78 Z" fill="#000000" fill-rule="evenodd" fill-opacity="1" /><path clip-path="url(#clip170)" d="M 0 0 M179.098 999.484 Q175.487 999.484 173.658 1003.05 Q171.852 1006.59 171.852 1013.72 Q171.852 1020.83 173.658 1024.39 Q175.487 1027.93 179.098 1027.93 Q182.732 1027.93 184.538 1024.39 Q186.366 1020.83 186.366 1013.72 Q186.366 1006.59 184.538 1003.05 Q182.732 999.484 179.098 999.484 M179.098 995.78 Q184.908 995.78 187.963 1000.39 Q191.042 1004.97 191.042 1013.72 Q191.042 1022.45 187.963 1027.05 Q184.908 1031.64 179.098 1031.64 Q173.288 1031.64 170.209 1027.05 Q167.153 1022.45 167.153 1013.72 Q167.153 1004.97 170.209 1000.39 Q173.288 995.78 179.098 995.78 Z" fill="#000000" fill-rule="evenodd" fill-opacity="1" /><path clip-path="url(#clip170)" d="M 0 0 M120.695 647.872 L137.015 647.872 L137.015 651.807 L115.07 651.807 L115.07 647.872 Q117.732 645.117 122.316 640.487 Q126.922 635.835 128.103 634.492 Q130.348 631.969 131.228 630.233 Q132.13 628.474 132.13 626.784 Q132.13 624.029 130.186 622.293 Q128.265 620.557 125.163 620.557 Q122.964 620.557 120.51 621.321 Q118.08 622.085 115.302 623.636 L115.302 618.913 Q118.126 617.779 120.58 617.201 Q123.033 616.622 125.07 616.622 Q130.441 616.622 133.635 619.307 Q136.829 621.992 136.829 626.483 Q136.829 628.613 136.019 630.534 Q135.232 632.432 133.126 635.025 Q132.547 635.696 129.445 638.913 Q126.343 642.108 120.695 647.872 Z" fill="#000000" fill-rule="evenodd" fill-opacity="1" /><path clip-path="url(#clip170)" d="M 0 0 M152.084 620.326 Q148.473 620.326 146.644 623.89 Q144.839 627.432 144.839 634.562 Q144.839 641.668 146.644 645.233 Q148.473 648.774 152.084 648.774 Q155.718 648.774 157.524 645.233 Q159.353 641.668 159.353 634.562 Q159.353 627.432 157.524 623.89 Q155.718 620.326 152.084 620.326 M152.084 616.622 Q157.894 616.622 160.95 621.228 Q164.028 625.812 164.028 634.562 Q164.028 643.288 160.95 647.895 Q157.894 652.478 152.084 652.478 Q146.274 652.478 143.195 647.895 Q140.14 643.288 140.14 634.562 Q140.14 625.812 143.195 621.228 Q146.274 616.622 152.084 616.622 Z" fill="#000000" fill-rule="evenodd" fill-opacity="1" /><path clip-path="url(#clip170)" d="M 0 0 M179.098 620.326 Q175.487 620.326 173.658 623.89 Q171.852 627.432 171.852 634.562 Q171.852 641.668 173.658 645.233 Q175.487 648.774 179.098 648.774 Q182.732 648.774 184.538 645.233 Q186.366 641.668 186.366 634.562 Q186.366 627.432 184.538 623.89 Q182.732 620.326 179.098 620.326 M179.098 616.622 Q184.908 616.622 187.963 621.228 Q191.042 625.812 191.042 634.562 Q191.042 643.288 187.963 647.895 Q184.908 652.478 179.098 652.478 Q173.288 652.478 170.209 647.895 Q167.153 643.288 167.153 634.562 Q167.153 625.812 170.209 621.228 Q173.288 616.622 179.098 616.622 Z" fill="#000000" fill-rule="evenodd" fill-opacity="1" /><path clip-path="url(#clip170)" d="M 0 0 M129.885 254.015 Q133.242 254.732 135.117 257.001 Q137.015 259.269 137.015 262.602 Q137.015 267.718 133.496 270.519 Q129.978 273.32 123.496 273.32 Q121.32 273.32 119.006 272.88 Q116.714 272.464 114.26 271.607 L114.26 267.093 Q116.205 268.227 118.519 268.806 Q120.834 269.385 123.357 269.385 Q127.755 269.385 130.047 267.649 Q132.362 265.913 132.362 262.602 Q132.362 259.547 130.209 257.834 Q128.08 256.098 124.26 256.098 L120.232 256.098 L120.232 252.255 L124.445 252.255 Q127.894 252.255 129.723 250.89 Q131.552 249.501 131.552 246.908 Q131.552 244.246 129.654 242.834 Q127.779 241.399 124.26 241.399 Q122.339 241.399 120.14 241.816 Q117.941 242.232 115.302 243.112 L115.302 238.945 Q117.964 238.204 120.279 237.834 Q122.617 237.464 124.677 237.464 Q130.001 237.464 133.103 239.894 Q136.204 242.302 136.204 246.422 Q136.204 249.292 134.561 251.283 Q132.917 253.251 129.885 254.015 Z" fill="#000000" fill-rule="evenodd" fill-opacity="1" /><path clip-path="url(#clip170)" d="M 0 0 M152.084 241.167 Q148.473 241.167 146.644 244.732 Q144.839 248.274 144.839 255.403 Q144.839 262.51 146.644 266.075 Q148.473 269.616 152.084 269.616 Q155.718 269.616 157.524 266.075 Q159.353 262.51 159.353 255.403 Q159.353 248.274 157.524 244.732 Q155.718 241.167 152.084 241.167 M152.084 237.464 Q157.894 237.464 160.95 242.07 Q164.028 246.654 164.028 255.403 Q164.028 264.13 160.95 268.737 Q157.894 273.32 152.084 273.32 Q146.274 273.32 143.195 268.737 Q140.14 264.13 140.14 255.403 Q140.14 246.654 143.195 242.07 Q146.274 237.464 152.084 237.464 Z" fill="#000000" fill-rule="evenodd" fill-opacity="1" /><path clip-path="url(#clip170)" d="M 0 0 M179.098 241.167 Q175.487 241.167 173.658 244.732 Q171.852 248.274 171.852 255.403 Q171.852 262.51 173.658 266.075 Q175.487 269.616 179.098 269.616 Q182.732 269.616 184.538 266.075 Q186.366 262.51 186.366 255.403 Q186.366 248.274 184.538 244.732 Q182.732 241.167 179.098 241.167 M179.098 237.464 Q184.908 237.464 187.963 242.07 Q191.042 246.654 191.042 255.403 Q191.042 264.13 187.963 268.737 Q184.908 273.32 179.098 273.32 Q173.288 273.32 170.209 268.737 Q167.153 264.13 167.153 255.403 Q167.153 246.654 170.209 242.07 Q173.288 237.464 179.098 237.464 Z" fill="#000000" fill-rule="evenodd" fill-opacity="1" /><path clip-path="url(#clip170)" d="M 0 0 M59.1993 815.533 Q55.2526 813.336 53.3747 810.281 Q51.4968 807.225 51.4968 803.088 Q51.4968 797.518 55.4117 794.494 Q59.2948 791.47 66.4881 791.47 L88.0042 791.47 L88.0042 797.358 L66.679 797.358 Q61.5546 797.358 59.072 799.173 Q56.5894 800.987 56.5894 804.711 Q56.5894 809.262 59.6131 811.904 Q62.6368 814.546 67.8567 814.546 L88.0042 814.546 L88.0042 820.434 L66.679 820.434 Q61.5228 820.434 59.072 822.248 Q56.5894 824.063 56.5894 827.85 Q56.5894 832.338 59.6449 834.98 Q62.6686 837.622 67.8567 837.622 L88.0042 837.622 L88.0042 843.51 L52.3562 843.51 L52.3562 837.622 L57.8944 837.622 Q54.616 835.616 53.0564 832.815 Q51.4968 830.015 51.4968 826.163 Q51.4968 822.28 53.4702 819.575 Q55.4436 816.838 59.1993 815.533 Z" fill="#000000" fill-rule="evenodd" fill-opacity="1" /><path clip-path="url(#clip170)" d="M 0 0 M52.3562 785.327 L52.3562 779.471 L88.0042 779.471 L88.0042 785.327 L52.3562 785.327 M38.479 785.327 L38.479 779.471 L45.895 779.471 L45.895 785.327 L38.479 785.327 Z" fill="#000000" fill-rule="evenodd" fill-opacity="1" /><path clip-path="url(#clip170)" d="M 0 0 M66.4881 743.696 L88.0042 743.696 L88.0042 749.552 L66.679 749.552 Q61.6183 749.552 59.1038 751.525 Q56.5894 753.499 56.5894 757.446 Q56.5894 762.188 59.6131 764.925 Q62.6368 767.662 67.8567 767.662 L88.0042 767.662 L88.0042 773.551 L52.3562 773.551 L52.3562 767.662 L57.8944 767.662 Q54.6797 765.562 53.0883 762.729 Q51.4968 759.864 51.4968 756.141 Q51.4968 749.998 55.3163 746.847 Q59.1038 743.696 66.4881 743.696 Z" fill="#000000" fill-rule="evenodd" fill-opacity="1" /><path clip-path="url(#clip170)" d="M 0 0 M98.8259 710.467 L103.377 710.467 L103.377 744.332 L98.8259 744.332 L98.8259 710.467 Z" fill="#000000" fill-rule="evenodd" fill-opacity="1" /><path clip-path="url(#clip170)" d="M 0 0 M57.7671 680.866 L38.479 680.866 L38.479 675.01 L88.0042 675.01 L88.0042 680.866 L82.657 680.866 Q85.8398 682.712 87.3994 685.545 Q88.9272 688.346 88.9272 692.292 Q88.9272 698.754 83.771 702.828 Q78.6147 706.87 70.212 706.87 Q61.8093 706.87 56.6531 702.828 Q51.4968 698.754 51.4968 692.292 Q51.4968 688.346 53.0564 685.545 Q54.5842 682.712 57.7671 680.866 M70.212 700.823 Q76.6732 700.823 80.3653 698.181 Q84.0256 695.507 84.0256 690.86 Q84.0256 686.213 80.3653 683.54 Q76.6732 680.866 70.212 680.866 Q63.7508 680.866 60.0905 683.54 Q56.3984 686.213 56.3984 690.86 Q56.3984 695.507 60.0905 698.181 Q63.7508 700.823 70.212 700.823 Z" fill="#000000" fill-rule="evenodd" fill-opacity="1" /><path clip-path="url(#clip170)" d="M 0 0 M52.3562 668.867 L52.3562 663.01 L88.0042 663.01 L88.0042 668.867 L52.3562 668.867 M38.479 668.867 L38.479 663.01 L45.895 663.01 L45.895 668.867 L38.479 668.867 Z" fill="#000000" fill-rule="evenodd" fill-opacity="1" /><path clip-path="url(#clip170)" d="M 0 0 M38.479 638.821 L43.3487 638.821 L43.3487 644.422 Q43.3487 647.573 44.6219 648.815 Q45.895 650.024 49.2052 650.024 L52.3562 650.024 L52.3562 640.38 L56.9077 640.38 L56.9077 650.024 L88.0042 650.024 L88.0042 655.912 L56.9077 655.912 L56.9077 661.514 L52.3562 661.514 L52.3562 655.912 L49.8736 655.912 Q43.9216 655.912 41.2162 653.143 Q38.479 650.374 38.479 644.359 L38.479 638.821 Z" fill="#000000" fill-rule="evenodd" fill-opacity="1" /><path clip-path="url(#clip170)" d="M 0 0 M38.479 614.631 L43.3487 614.631 L43.3487 620.233 Q43.3487 623.384 44.6219 624.625 Q45.895 625.835 49.2052 625.835 L52.3562 625.835 L52.3562 616.19 L56.9077 616.19 L56.9077 625.835 L88.0042 625.835 L88.0042 631.723 L56.9077 631.723 L56.9077 637.325 L52.3562 637.325 L52.3562 631.723 L49.8736 631.723 Q43.9216 631.723 41.2162 628.954 Q38.479 626.185 38.479 620.169 L38.479 614.631 Z" fill="#000000" fill-rule="evenodd" fill-opacity="1" /><polyline clip-path="url(#clip172)" style="stroke:#009af9; stroke-width:20; stroke-opacity:1; fill:none" stroke-dasharray="80, 50" points="
  287.204,965.984 621.436,1335.7 955.667,1372.3 1289.9,946.323 1624.13,304.002 1958.36,119.046 2292.59,85.838 
  "/>
<path clip-path="url(#clip170)" d="
M1994.69 213.659 L2281.9 213.659 L2281.9 92.6992 L1994.69 92.6992  Z
  " fill="#ffffff" fill-rule="evenodd" fill-opacity="1"/>
<polyline clip-path="url(#clip170)" style="stroke:#000000; stroke-width:4; stroke-opacity:1; fill:none" points="
  1994.69,213.659 2281.9,213.659 2281.9,92.6992 1994.69,92.6992 1994.69,213.659 
  "/>
<polyline clip-path="url(#clip170)" style="stroke:#009af9; stroke-width:4; stroke-opacity:1; fill:none" stroke-dasharray="16, 10" points="
  2018.31,153.179 2160.02,153.179 
  "/>
<path clip-path="url(#clip170)" d="M 0 0 M2197.48 172.867 Q2195.68 177.496 2193.97 178.908 Q2192.25 180.32 2189.38 180.32 L2185.98 180.32 L2185.98 176.755 L2188.48 176.755 Q2190.24 176.755 2191.21 175.922 Q2192.18 175.089 2193.36 171.987 L2194.13 170.043 L2183.64 144.533 L2188.16 144.533 L2196.26 164.811 L2204.36 144.533 L2208.87 144.533 L2197.48 172.867 Z" fill="#000000" fill-rule="evenodd" fill-opacity="1" /><path clip-path="url(#clip170)" d="M 0 0 M2214.75 166.524 L2222.39 166.524 L2222.39 140.158 L2214.08 141.825 L2214.08 137.566 L2222.35 135.899 L2227.02 135.899 L2227.02 166.524 L2234.66 166.524 L2234.66 170.459 L2214.75 170.459 L2214.75 166.524 Z" fill="#000000" fill-rule="evenodd" fill-opacity="1" /></svg>
