<?xml version="1.0" encoding="utf-8"?>
<svg xmlns="http://www.w3.org/2000/svg" xmlns:xlink="http://www.w3.org/1999/xlink" width="600" height="400" viewBox="0 0 2400 1600">
<defs>
  <clipPath id="clip210">
    <rect x="0" y="0" width="2400" height="1600"/>
  </clipPath>
</defs>
<path clip-path="url(#clip210)" d="
M0 1600 L2400 1600 L2400 0 L0 0  Z
  " fill="#ffffff" fill-rule="evenodd" fill-opacity="1"/>
<defs>
  <clipPath id="clip211">
    <rect x="480" y="0" width="1681" height="1600"/>
  </clipPath>
</defs>
<path clip-path="url(#clip210)" d="
M199.218 1410.9 L2352.76 1410.9 L2352.76 47.2441 L199.218 47.2441  Z
  " fill="#ffffff" fill-rule="evenodd" fill-opacity="1"/>
<defs>
  <clipPath id="clip212">
    <rect x="199" y="47" width="2155" height="1365"/>
  </clipPath>
</defs>
<polyline clip-path="url(#clip212)" style="stroke:#000000; stroke-width:2; stroke-opacity:0.1; fill:none" points="
  260.167,1410.9 260.167,47.2441 
  "/>
<polyline clip-path="url(#clip212)" style="stroke:#000000; stroke-width:2; stroke-opacity:0.1; fill:none" points="
  768.077,1410.9 768.077,47.2441 
  "/>
<polyline clip-path="url(#clip212)" style="stroke:#000000; stroke-width:2; stroke-opacity:0.1; fill:none" points="
  1275.99,1410.9 1275.99,47.2441 
  "/>
<polyline clip-path="url(#clip212)" style="stroke:#000000; stroke-width:2; stroke-opacity:0.1; fill:none" points="
  1783.9,1410.9 1783.9,47.2441 
  "/>
<polyline clip-path="url(#clip212)" style="stroke:#000000; stroke-width:2; stroke-opacity:0.1; fill:none" points="
  2291.81,1410.9 2291.81,47.2441 
  "/>
<polyline clip-path="url(#clip210)" style="stroke:#000000; stroke-width:4; stroke-opacity:1; fill:none" points="
  199.218,1410.9 2352.76,1410.9 
  "/>
<polyline clip-path="url(#clip210)" style="stroke:#000000; stroke-width:4; stroke-opacity:1; fill:none" points="
  260.167,1410.9 260.167,1394.53 
  "/>
<polyline clip-path="url(#clip210)" style="stroke:#000000; stroke-width:4; stroke-opacity:1; fill:none" points="
  768.077,1410.9 768.077,1394.53 
  "/>
<polyline clip-path="url(#clip210)" style="stroke:#000000; stroke-width:4; stroke-opacity:1; fill:none" points="
  1275.99,1410.9 1275.99,1394.53 
  "/>
<polyline clip-path="url(#clip210)" style="stroke:#000000; stroke-width:4; stroke-opacity:1; fill:none" points="
  1783.9,1410.9 1783.9,1394.53 
  "/>
<polyline clip-path="url(#clip210)" style="stroke:#000000; stroke-width:4; stroke-opacity:1; fill:none" points="
  2291.81,1410.9 2291.81,1394.53 
  "/>
<path clip-path="url(#clip210)" d="M 0 0 M214.417 1489.17 L222.056 1489.17 L222.056 1462.8 L213.745 1464.47 L213.745 1460.21 L222.009 1458.54 L226.685 1458.54 L226.685 1489.17 L234.324 1489.17 L234.324 1493.1 L214.417 1493.1 L214.417 1489.17 Z" fill="#000000" fill-rule="evenodd" fill-opacity="1" /><path clip-path="url(#clip210)" d="M 0 0 M249.393 1461.62 Q245.782 1461.62 243.954 1465.19 Q242.148 1468.73 242.148 1475.86 Q242.148 1482.97 243.954 1486.53 Q245.782 1490.07 249.393 1490.07 Q253.028 1490.07 254.833 1486.53 Q256.662 1482.97 256.662 1475.86 Q256.662 1468.73 254.833 1465.19 Q253.028 1461.62 249.393 1461.62 M249.393 1457.92 Q255.204 1457.92 258.259 1462.53 Q261.338 1467.11 261.338 1475.86 Q261.338 1484.59 258.259 1489.19 Q255.204 1493.78 249.393 1493.78 Q243.583 1493.78 240.505 1489.19 Q237.449 1484.59 237.449 1475.86 Q237.449 1467.11 240.505 1462.53 Q243.583 1457.92 249.393 1457.92 Z" fill="#000000" fill-rule="evenodd" fill-opacity="1" /><path clip-path="url(#clip210)" d="M 0 0 M261.338 1452.02 L285.449 1452.02 L285.449 1455.22 L261.338 1455.22 L261.338 1452.02 Z" fill="#000000" fill-rule="evenodd" fill-opacity="1" /><path clip-path="url(#clip210)" d="M 0 0 M289.606 1437.61 L304.52 1437.61 L304.52 1440.81 L293.085 1440.81 L293.085 1447.69 Q293.913 1447.41 294.74 1447.28 Q295.568 1447.13 296.396 1447.13 Q301.097 1447.13 303.843 1449.71 Q306.589 1452.28 306.589 1456.68 Q306.589 1461.22 303.768 1463.74 Q300.947 1466.24 295.812 1466.24 Q294.045 1466.24 292.201 1465.94 Q290.377 1465.64 288.421 1465.04 L288.421 1461.22 Q290.114 1462.14 291.919 1462.59 Q293.725 1463.04 295.737 1463.04 Q298.991 1463.04 300.891 1461.33 Q302.79 1459.62 302.79 1456.68 Q302.79 1453.75 300.891 1452.04 Q298.991 1450.33 295.737 1450.33 Q294.214 1450.33 292.69 1450.67 Q291.186 1451 289.606 1451.72 L289.606 1437.61 Z" fill="#000000" fill-rule="evenodd" fill-opacity="1" /><path clip-path="url(#clip210)" d="M 0 0 M721.725 1489.17 L729.364 1489.17 L729.364 1462.8 L721.053 1464.47 L721.053 1460.21 L729.317 1458.54 L733.993 1458.54 L733.993 1489.17 L741.632 1489.17 L741.632 1493.1 L721.725 1493.1 L721.725 1489.17 Z" fill="#000000" fill-rule="evenodd" fill-opacity="1" /><path clip-path="url(#clip210)" d="M 0 0 M756.701 1461.62 Q753.09 1461.62 751.262 1465.19 Q749.456 1468.73 749.456 1475.86 Q749.456 1482.97 751.262 1486.53 Q753.09 1490.07 756.701 1490.07 Q760.336 1490.07 762.141 1486.53 Q763.97 1482.97 763.97 1475.86 Q763.97 1468.73 762.141 1465.19 Q760.336 1461.62 756.701 1461.62 M756.701 1457.92 Q762.512 1457.92 765.567 1462.53 Q768.646 1467.11 768.646 1475.86 Q768.646 1484.59 765.567 1489.19 Q762.512 1493.78 756.701 1493.78 Q750.891 1493.78 747.813 1489.19 Q744.757 1484.59 744.757 1475.86 Q744.757 1467.11 747.813 1462.53 Q750.891 1457.92 756.701 1457.92 Z" fill="#000000" fill-rule="evenodd" fill-opacity="1" /><path clip-path="url(#clip210)" d="M 0 0 M768.646 1452.02 L792.757 1452.02 L792.757 1455.22 L768.646 1455.22 L768.646 1452.02 Z" fill="#000000" fill-rule="evenodd" fill-opacity="1" /><path clip-path="url(#clip210)" d="M 0 0 M807.315 1440.92 L797.723 1455.91 L807.315 1455.91 L807.315 1440.92 M806.318 1437.61 L811.095 1437.61 L811.095 1455.91 L815.101 1455.91 L815.101 1459.07 L811.095 1459.07 L811.095 1465.69 L807.315 1465.69 L807.315 1459.07 L794.638 1459.07 L794.638 1455.41 L806.318 1437.61 Z" fill="#000000" fill-rule="evenodd" fill-opacity="1" /><path clip-path="url(#clip210)" d="M 0 0 M1230.1 1489.17 L1237.73 1489.17 L1237.73 1462.8 L1229.42 1464.47 L1229.42 1460.21 L1237.69 1458.54 L1242.36 1458.54 L1242.36 1489.17 L1250 1489.17 L1250 1493.1 L1230.1 1493.1 L1230.1 1489.17 Z" fill="#000000" fill-rule="evenodd" fill-opacity="1" /><path clip-path="url(#clip210)" d="M 0 0 M1265.07 1461.62 Q1261.46 1461.62 1259.63 1465.19 Q1257.83 1468.73 1257.83 1475.86 Q1257.83 1482.97 1259.63 1486.53 Q1261.46 1490.07 1265.07 1490.07 Q1268.71 1490.07 1270.51 1486.53 Q1272.34 1482.97 1272.34 1475.86 Q1272.34 1468.73 1270.51 1465.19 Q1268.71 1461.62 1265.07 1461.62 M1265.07 1457.92 Q1270.88 1457.92 1273.94 1462.53 Q1277.02 1467.11 1277.02 1475.86 Q1277.02 1484.59 1273.94 1489.19 Q1270.88 1493.78 1265.07 1493.78 Q1259.26 1493.78 1256.18 1489.19 Q1253.13 1484.59 1253.13 1475.86 Q1253.13 1467.11 1256.18 1462.53 Q1259.26 1457.92 1265.07 1457.92 Z" fill="#000000" fill-rule="evenodd" fill-opacity="1" /><path clip-path="url(#clip210)" d="M 0 0 M1277.02 1452.02 L1301.13 1452.02 L1301.13 1455.22 L1277.02 1455.22 L1277.02 1452.02 Z" fill="#000000" fill-rule="evenodd" fill-opacity="1" /><path clip-path="url(#clip210)" d="M 0 0 M1316.76 1450.55 Q1319.48 1451.14 1321.01 1452.98 Q1322.55 1454.82 1322.55 1457.53 Q1322.55 1461.69 1319.69 1463.96 Q1316.83 1466.24 1311.57 1466.24 Q1309.8 1466.24 1307.92 1465.88 Q1306.06 1465.54 1304.06 1464.85 L1304.06 1461.18 Q1305.64 1462.1 1307.52 1462.57 Q1309.4 1463.04 1311.45 1463.04 Q1315.03 1463.04 1316.89 1461.63 Q1318.77 1460.22 1318.77 1457.53 Q1318.77 1455.05 1317.02 1453.66 Q1315.29 1452.25 1312.19 1452.25 L1308.91 1452.25 L1308.91 1449.12 L1312.34 1449.12 Q1315.14 1449.12 1316.63 1448.01 Q1318.11 1446.89 1318.11 1444.78 Q1318.11 1442.62 1316.57 1441.47 Q1315.05 1440.3 1312.19 1440.3 Q1310.63 1440.3 1308.84 1440.64 Q1307.05 1440.98 1304.91 1441.69 L1304.91 1438.31 Q1307.07 1437.71 1308.95 1437.41 Q1310.85 1437.11 1312.53 1437.11 Q1316.85 1437.11 1319.37 1439.08 Q1321.89 1441.04 1321.89 1444.38 Q1321.89 1446.72 1320.56 1448.33 Q1319.22 1449.93 1316.76 1450.55 Z" fill="#000000" fill-rule="evenodd" fill-opacity="1" /><path clip-path="url(#clip210)" d="M 0 0 M1738.39 1489.17 L1746.03 1489.17 L1746.03 1462.8 L1737.72 1464.47 L1737.72 1460.21 L1745.98 1458.54 L1750.66 1458.54 L1750.66 1489.17 L1758.3 1489.17 L1758.3 1493.1 L1738.39 1493.1 L1738.39 1489.17 Z" fill="#000000" fill-rule="evenodd" fill-opacity="1" /><path clip-path="url(#clip210)" d="M 0 0 M1773.37 1461.62 Q1769.76 1461.62 1767.93 1465.19 Q1766.12 1468.73 1766.12 1475.86 Q1766.12 1482.97 1767.93 1486.53 Q1769.76 1490.07 1773.37 1490.07 Q1777 1490.07 1778.81 1486.53 Q1780.64 1482.97 1780.64 1475.86 Q1780.64 1468.73 1778.81 1465.19 Q1777 1461.62 1773.37 1461.62 M1773.37 1457.92 Q1779.18 1457.92 1782.23 1462.53 Q1785.31 1467.11 1785.31 1475.86 Q1785.31 1484.59 1782.23 1489.19 Q1779.18 1493.78 1773.37 1493.78 Q1767.56 1493.78 1764.48 1489.19 Q1761.42 1484.59 1761.42 1475.86 Q1761.42 1467.11 1764.48 1462.53 Q1767.56 1457.92 1773.37 1457.92 Z" fill="#000000" fill-rule="evenodd" fill-opacity="1" /><path clip-path="url(#clip210)" d="M 0 0 M1785.31 1452.02 L1809.42 1452.02 L1809.42 1455.22 L1785.31 1455.22 L1785.31 1452.02 Z" fill="#000000" fill-rule="evenodd" fill-opacity="1" /><path clip-path="url(#clip210)" d="M 0 0 M1816.81 1462.5 L1830.07 1462.5 L1830.07 1465.69 L1812.24 1465.69 L1812.24 1462.5 Q1814.41 1460.26 1818.13 1456.5 Q1821.87 1452.72 1822.83 1451.63 Q1824.66 1449.58 1825.37 1448.16 Q1826.11 1446.74 1826.11 1445.36 Q1826.11 1443.12 1824.53 1441.71 Q1822.96 1440.3 1820.44 1440.3 Q1818.66 1440.3 1816.66 1440.92 Q1814.69 1441.54 1812.43 1442.8 L1812.43 1438.97 Q1814.73 1438.05 1816.72 1437.58 Q1818.71 1437.11 1820.37 1437.11 Q1824.73 1437.11 1827.33 1439.29 Q1829.92 1441.47 1829.92 1445.12 Q1829.92 1446.85 1829.27 1448.41 Q1828.63 1449.95 1826.91 1452.06 Q1826.44 1452.6 1823.92 1455.22 Q1821.4 1457.81 1816.81 1462.5 Z" fill="#000000" fill-rule="evenodd" fill-opacity="1" /><path clip-path="url(#clip210)" d="M 0 0 M2246.15 1489.17 L2253.79 1489.17 L2253.79 1462.8 L2245.48 1464.47 L2245.48 1460.21 L2253.74 1458.54 L2258.42 1458.54 L2258.42 1489.17 L2266.06 1489.17 L2266.06 1493.1 L2246.15 1493.1 L2246.15 1489.17 Z" fill="#000000" fill-rule="evenodd" fill-opacity="1" /><path clip-path="url(#clip210)" d="M 0 0 M2281.13 1461.62 Q2277.52 1461.62 2275.69 1465.19 Q2273.88 1468.73 2273.88 1475.86 Q2273.88 1482.97 2275.69 1486.53 Q2277.52 1490.07 2281.13 1490.07 Q2284.76 1490.07 2286.57 1486.53 Q2288.4 1482.97 2288.4 1475.86 Q2288.4 1468.73 2286.57 1465.19 Q2284.76 1461.62 2281.13 1461.62 M2281.13 1457.92 Q2286.94 1457.92 2289.99 1462.53 Q2293.07 1467.11 2293.07 1475.86 Q2293.07 1484.59 2289.99 1489.19 Q2286.94 1493.78 2281.13 1493.78 Q2275.32 1493.78 2272.24 1489.19 Q2269.18 1484.59 2269.18 1475.86 Q2269.18 1467.11 2272.24 1462.53 Q2275.32 1457.92 2281.13 1457.92 Z" fill="#000000" fill-rule="evenodd" fill-opacity="1" /><path clip-path="url(#clip210)" d="M 0 0 M2293.07 1452.02 L2317.18 1452.02 L2317.18 1455.22 L2293.07 1455.22 L2293.07 1452.02 Z" fill="#000000" fill-rule="evenodd" fill-opacity="1" /><path clip-path="url(#clip210)" d="M 0 0 M2321.96 1462.5 L2328.17 1462.5 L2328.17 1441.07 L2321.41 1442.43 L2321.41 1438.97 L2328.13 1437.61 L2331.93 1437.61 L2331.93 1462.5 L2338.13 1462.5 L2338.13 1465.69 L2321.96 1465.69 L2321.96 1462.5 Z" fill="#000000" fill-rule="evenodd" fill-opacity="1" /><path clip-path="url(#clip210)" d="M 0 0 M1168.26 1526.54 L1174.47 1526.54 L1185.61 1556.46 L1196.75 1526.54 L1202.96 1526.54 L1189.59 1562.19 L1181.63 1562.19 L1168.26 1526.54 Z" fill="#000000" fill-rule="evenodd" fill-opacity="1" /><path clip-path="url(#clip210)" d="M 0 0 M1236.19 1573.01 L1236.19 1577.56 L1202.32 1577.56 L1202.32 1573.01 L1236.19 1573.01 Z" fill="#000000" fill-rule="evenodd" fill-opacity="1" /><path clip-path="url(#clip210)" d="M 0 0 M1267.98 1527.91 L1267.98 1533.38 Q1265.5 1532.01 1262.99 1531.34 Q1260.5 1530.64 1257.96 1530.64 Q1252.26 1530.64 1249.11 1534.27 Q1245.96 1537.87 1245.96 1544.39 Q1245.96 1550.92 1249.11 1554.55 Q1252.26 1558.14 1257.96 1558.14 Q1260.5 1558.14 1262.99 1557.47 Q1265.5 1556.77 1267.98 1555.41 L1267.98 1560.82 Q1265.53 1561.96 1262.89 1562.54 Q1260.28 1563.11 1257.32 1563.11 Q1249.27 1563.11 1244.52 1558.05 Q1239.78 1552.99 1239.78 1544.39 Q1239.78 1535.67 1244.56 1530.68 Q1249.36 1525.68 1257.7 1525.68 Q1260.41 1525.68 1262.99 1526.25 Q1265.56 1526.79 1267.98 1527.91 Z" fill="#000000" fill-rule="evenodd" fill-opacity="1" /><path clip-path="url(#clip210)" d="M 0 0 M1274.13 1512.66 L1279.98 1512.66 L1279.98 1562.19 L1274.13 1562.19 L1274.13 1512.66 Z" fill="#000000" fill-rule="evenodd" fill-opacity="1" /><path clip-path="url(#clip210)" d="M 0 0 M1299.94 1530.64 Q1295.23 1530.64 1292.49 1534.34 Q1289.75 1538 1289.75 1544.39 Q1289.75 1550.79 1292.46 1554.48 Q1295.2 1558.14 1299.94 1558.14 Q1304.62 1558.14 1307.35 1554.45 Q1310.09 1550.76 1310.09 1544.39 Q1310.09 1538.06 1307.35 1534.37 Q1304.62 1530.64 1299.94 1530.64 M1299.94 1525.68 Q1307.58 1525.68 1311.94 1530.64 Q1316.3 1535.61 1316.3 1544.39 Q1316.3 1553.15 1311.94 1558.14 Q1307.58 1563.11 1299.94 1563.11 Q1292.27 1563.11 1287.91 1558.14 Q1283.58 1553.15 1283.58 1544.39 Q1283.58 1535.61 1287.91 1530.64 Q1292.27 1525.68 1299.94 1525.68 Z" fill="#000000" fill-rule="evenodd" fill-opacity="1" /><path clip-path="url(#clip210)" d="M 0 0 M1345.17 1527.59 L1345.17 1533.13 Q1342.68 1531.85 1340.01 1531.22 Q1337.34 1530.58 1334.47 1530.58 Q1330.11 1530.58 1327.92 1531.92 Q1325.75 1533.25 1325.75 1535.93 Q1325.75 1537.96 1327.31 1539.14 Q1328.87 1540.29 1333.58 1541.34 L1335.59 1541.78 Q1341.82 1543.12 1344.43 1545.57 Q1347.08 1547.99 1347.08 1552.35 Q1347.08 1557.32 1343.13 1560.21 Q1339.21 1563.11 1332.34 1563.11 Q1329.47 1563.11 1326.36 1562.54 Q1323.27 1561.99 1319.83 1560.88 L1319.83 1554.83 Q1323.08 1556.52 1326.23 1557.38 Q1329.38 1558.21 1332.47 1558.21 Q1336.6 1558.21 1338.83 1556.81 Q1341.06 1555.37 1341.06 1552.8 Q1341.06 1550.41 1339.44 1549.14 Q1337.85 1547.86 1332.4 1546.68 L1330.37 1546.21 Q1324.92 1545.06 1322.5 1542.71 Q1320.09 1540.32 1320.09 1536.18 Q1320.09 1531.15 1323.65 1528.42 Q1327.22 1525.68 1333.77 1525.68 Q1337.02 1525.68 1339.88 1526.16 Q1342.75 1526.63 1345.17 1527.59 Z" fill="#000000" fill-rule="evenodd" fill-opacity="1" /><path clip-path="url(#clip210)" d="M 0 0 M1383.71 1542.9 L1383.71 1545.76 L1356.78 1545.76 Q1357.17 1551.81 1360.41 1554.99 Q1363.69 1558.14 1369.52 1558.14 Q1372.89 1558.14 1376.04 1557.32 Q1379.22 1556.49 1382.34 1554.83 L1382.34 1560.37 Q1379.19 1561.71 1375.88 1562.41 Q1372.57 1563.11 1369.17 1563.11 Q1360.64 1563.11 1355.64 1558.14 Q1350.67 1553.18 1350.67 1544.71 Q1350.67 1535.96 1355.38 1530.83 Q1360.13 1525.68 1368.15 1525.68 Q1375.34 1525.68 1379.51 1530.33 Q1383.71 1534.94 1383.71 1542.9 M1377.85 1541.18 Q1377.79 1536.37 1375.15 1533.51 Q1372.54 1530.64 1368.21 1530.64 Q1363.31 1530.64 1360.35 1533.41 Q1357.42 1536.18 1356.97 1541.21 L1377.85 1541.18 Z" fill="#000000" fill-rule="evenodd" fill-opacity="1" /><polyline clip-path="url(#clip212)" style="stroke:#000000; stroke-width:2; stroke-opacity:0.1; fill:none" points="
  199.218,1393.44 2352.76,1393.44 
  "/>
<polyline clip-path="url(#clip212)" style="stroke:#000000; stroke-width:2; stroke-opacity:0.1; fill:none" points="
  199.218,1082.54 2352.76,1082.54 
  "/>
<polyline clip-path="url(#clip212)" style="stroke:#000000; stroke-width:2; stroke-opacity:0.1; fill:none" points="
  199.218,771.649 2352.76,771.649 
  "/>
<polyline clip-path="url(#clip212)" style="stroke:#000000; stroke-width:2; stroke-opacity:0.1; fill:none" points="
  199.218,460.755 2352.76,460.755 
  "/>
<polyline clip-path="url(#clip212)" style="stroke:#000000; stroke-width:2; stroke-opacity:0.1; fill:none" points="
  199.218,149.861 2352.76,149.861 
  "/>
<polyline clip-path="url(#clip210)" style="stroke:#000000; stroke-width:4; stroke-opacity:1; fill:none" points="
  199.218,1410.9 199.218,47.2441 
  "/>
<polyline clip-path="url(#clip210)" style="stroke:#000000; stroke-width:4; stroke-opacity:1; fill:none" points="
  199.218,1393.44 225.061,1393.44 
  "/>
<polyline clip-path="url(#clip210)" style="stroke:#000000; stroke-width:4; stroke-opacity:1; fill:none" points="
  199.218,1082.54 225.061,1082.54 
  "/>
<polyline clip-path="url(#clip210)" style="stroke:#000000; stroke-width:4; stroke-opacity:1; fill:none" points="
  199.218,771.649 225.061,771.649 
  "/>
<polyline clip-path="url(#clip210)" style="stroke:#000000; stroke-width:4; stroke-opacity:1; fill:none" points="
  199.218,460.755 225.061,460.755 
  "/>
<polyline clip-path="url(#clip210)" style="stroke:#000000; stroke-width:4; stroke-opacity:1; fill:none" points="
  199.218,149.861 225.061,149.861 
  "/>
<path clip-path="url(#clip210)" d="M 0 0 M142.316 1376.16 L160.672 1376.16 L160.672 1380.09 L146.598 1380.09 L146.598 1388.56 Q147.616 1388.22 148.635 1388.06 Q149.653 1387.87 150.672 1387.87 Q156.459 1387.87 159.839 1391.04 Q163.218 1394.21 163.218 1399.63 Q163.218 1405.21 159.746 1408.31 Q156.274 1411.39 149.954 1411.39 Q147.778 1411.39 145.51 1411.02 Q143.265 1410.65 140.857 1409.91 L140.857 1405.21 Q142.941 1406.34 145.163 1406.9 Q147.385 1407.45 149.862 1407.45 Q153.866 1407.45 156.204 1405.35 Q158.542 1403.24 158.542 1399.63 Q158.542 1396.02 156.204 1393.91 Q153.866 1391.81 149.862 1391.81 Q147.987 1391.81 146.112 1392.22 Q144.26 1392.64 142.316 1393.52 L142.316 1376.16 Z" fill="#000000" fill-rule="evenodd" fill-opacity="1" /><path clip-path="url(#clip210)" d="M 0 0 M116.297 1095.89 L123.936 1095.89 L123.936 1069.52 L115.626 1071.19 L115.626 1066.93 L123.89 1065.26 L128.566 1065.26 L128.566 1095.89 L136.204 1095.89 L136.204 1099.82 L116.297 1099.82 L116.297 1095.89 Z" fill="#000000" fill-rule="evenodd" fill-opacity="1" /><path clip-path="url(#clip210)" d="M 0 0 M151.274 1068.34 Q147.663 1068.34 145.834 1071.91 Q144.029 1075.45 144.029 1082.58 Q144.029 1089.68 145.834 1093.25 Q147.663 1096.79 151.274 1096.79 Q154.908 1096.79 156.714 1093.25 Q158.542 1089.68 158.542 1082.58 Q158.542 1075.45 156.714 1071.91 Q154.908 1068.34 151.274 1068.34 M151.274 1064.64 Q157.084 1064.64 160.14 1069.24 Q163.218 1073.83 163.218 1082.58 Q163.218 1091.3 160.14 1095.91 Q157.084 1100.49 151.274 1100.49 Q145.464 1100.49 142.385 1095.91 Q139.329 1091.3 139.329 1082.58 Q139.329 1073.83 142.385 1069.24 Q145.464 1064.64 151.274 1064.64 Z" fill="#000000" fill-rule="evenodd" fill-opacity="1" /><path clip-path="url(#clip210)" d="M 0 0 M117.293 784.994 L124.931 784.994 L124.931 758.628 L116.621 760.295 L116.621 756.036 L124.885 754.369 L129.561 754.369 L129.561 784.994 L137.2 784.994 L137.2 788.929 L117.293 788.929 L117.293 784.994 Z" fill="#000000" fill-rule="evenodd" fill-opacity="1" /><path clip-path="url(#clip210)" d="M 0 0 M142.316 754.369 L160.672 754.369 L160.672 758.304 L146.598 758.304 L146.598 766.777 Q147.616 766.429 148.635 766.267 Q149.653 766.082 150.672 766.082 Q156.459 766.082 159.839 769.253 Q163.218 772.425 163.218 777.841 Q163.218 783.42 159.746 786.522 Q156.274 789.601 149.954 789.601 Q147.778 789.601 145.51 789.23 Q143.265 788.86 140.857 788.119 L140.857 783.42 Q142.941 784.554 145.163 785.11 Q147.385 785.665 149.862 785.665 Q153.866 785.665 156.204 783.559 Q158.542 781.452 158.542 777.841 Q158.542 774.23 156.204 772.124 Q153.866 770.017 149.862 770.017 Q147.987 770.017 146.112 770.434 Q144.26 770.851 142.316 771.73 L142.316 754.369 Z" fill="#000000" fill-rule="evenodd" fill-opacity="1" /><path clip-path="url(#clip210)" d="M 0 0 M119.885 474.1 L136.204 474.1 L136.204 478.035 L114.26 478.035 L114.26 474.1 Q116.922 471.346 121.505 466.716 Q126.112 462.063 127.292 460.721 Q129.538 458.197 130.417 456.461 Q131.32 454.702 131.32 453.012 Q131.32 450.258 129.376 448.522 Q127.455 446.785 124.353 446.785 Q122.154 446.785 119.7 447.549 Q117.269 448.313 114.492 449.864 L114.492 445.142 Q117.316 444.008 119.769 443.429 Q122.223 442.85 124.26 442.85 Q129.63 442.85 132.825 445.535 Q136.019 448.221 136.019 452.711 Q136.019 454.841 135.209 456.762 Q134.422 458.66 132.316 461.253 Q131.737 461.924 128.635 465.142 Q125.533 468.336 119.885 474.1 Z" fill="#000000" fill-rule="evenodd" fill-opacity="1" /><path clip-path="url(#clip210)" d="M 0 0 M151.274 446.554 Q147.663 446.554 145.834 450.119 Q144.029 453.66 144.029 460.79 Q144.029 467.896 145.834 471.461 Q147.663 475.003 151.274 475.003 Q154.908 475.003 156.714 471.461 Q158.542 467.896 158.542 460.79 Q158.542 453.66 156.714 450.119 Q154.908 446.554 151.274 446.554 M151.274 442.85 Q157.084 442.85 160.14 447.457 Q163.218 452.04 163.218 460.79 Q163.218 469.517 160.14 474.123 Q157.084 478.707 151.274 478.707 Q145.464 478.707 142.385 474.123 Q139.329 469.517 139.329 460.79 Q139.329 452.04 142.385 447.457 Q145.464 442.85 151.274 442.85 Z" fill="#000000" fill-rule="evenodd" fill-opacity="1" /><path clip-path="url(#clip210)" d="M 0 0 M120.88 163.206 L137.2 163.206 L137.2 167.141 L115.256 167.141 L115.256 163.206 Q117.918 160.452 122.501 155.822 Q127.107 151.169 128.288 149.827 Q130.533 147.303 131.413 145.567 Q132.316 143.808 132.316 142.118 Q132.316 139.364 130.371 137.628 Q128.45 135.892 125.348 135.892 Q123.149 135.892 120.695 136.655 Q118.265 137.419 115.487 138.97 L115.487 134.248 Q118.311 133.114 120.765 132.535 Q123.218 131.956 125.255 131.956 Q130.626 131.956 133.82 134.642 Q137.015 137.327 137.015 141.817 Q137.015 143.947 136.204 145.868 Q135.417 147.766 133.311 150.359 Q132.732 151.03 129.63 154.248 Q126.529 157.442 120.88 163.206 Z" fill="#000000" fill-rule="evenodd" fill-opacity="1" /><path clip-path="url(#clip210)" d="M 0 0 M142.316 132.581 L160.672 132.581 L160.672 136.517 L146.598 136.517 L146.598 144.989 Q147.616 144.641 148.635 144.479 Q149.653 144.294 150.672 144.294 Q156.459 144.294 159.839 147.466 Q163.218 150.637 163.218 156.053 Q163.218 161.632 159.746 164.734 Q156.274 167.813 149.954 167.813 Q147.778 167.813 145.51 167.442 Q143.265 167.072 140.857 166.331 L140.857 161.632 Q142.941 162.766 145.163 163.322 Q147.385 163.877 149.862 163.877 Q153.866 163.877 156.204 161.771 Q158.542 159.665 158.542 156.053 Q158.542 152.442 156.204 150.336 Q153.866 148.229 149.862 148.229 Q147.987 148.229 146.112 148.646 Q144.26 149.063 142.316 149.942 L142.316 132.581 Z" fill="#000000" fill-rule="evenodd" fill-opacity="1" /><path clip-path="url(#clip210)" d="M 0 0 M59.1993 815.533 Q55.2526 813.336 53.3747 810.281 Q51.4968 807.225 51.4968 803.088 Q51.4968 797.518 55.4117 794.494 Q59.2948 791.47 66.4881 791.47 L88.0042 791.47 L88.0042 797.358 L66.679 797.358 Q61.5546 797.358 59.072 799.173 Q56.5894 800.987 56.5894 804.711 Q56.5894 809.262 59.6131 811.904 Q62.6368 814.546 67.8567 814.546 L88.0042 814.546 L88.0042 820.434 L66.679 820.434 Q61.5228 820.434 59.072 822.248 Q56.5894 824.063 56.5894 827.85 Q56.5894 832.338 59.6449 834.98 Q62.6686 837.622 67.8567 837.622 L88.0042 837.622 L88.0042 843.51 L52.3562 843.51 L52.3562 837.622 L57.8944 837.622 Q54.616 835.616 53.0564 832.815 Q51.4968 830.015 51.4968 826.163 Q51.4968 822.28 53.4702 819.575 Q55.4436 816.838 59.1993 815.533 Z" fill="#000000" fill-rule="evenodd" fill-opacity="1" /><path clip-path="url(#clip210)" d="M 0 0 M52.3562 785.327 L52.3562 779.471 L88.0042 779.471 L88.0042 785.327 L52.3562 785.327 M38.479 785.327 L38.479 779.471 L45.895 779.471 L45.895 785.327 L38.479 785.327 Z" fill="#000000" fill-rule="evenodd" fill-opacity="1" /><path clip-path="url(#clip210)" d="M 0 0 M66.4881 743.696 L88.0042 743.696 L88.0042 749.552 L66.679 749.552 Q61.6183 749.552 59.1038 751.525 Q56.5894 753.499 56.5894 757.446 Q56.5894 762.188 59.6131 764.925 Q62.6368 767.662 67.8567 767.662 L88.0042 767.662 L88.0042 773.551 L52.3562 773.551 L52.3562 767.662 L57.8944 767.662 Q54.6797 765.562 53.0883 762.729 Q51.4968 759.864 51.4968 756.141 Q51.4968 749.998 55.3163 746.847 Q59.1038 743.696 66.4881 743.696 Z" fill="#000000" fill-rule="evenodd" fill-opacity="1" /><path clip-path="url(#clip210)" d="M 0 0 M98.8259 710.467 L103.377 710.467 L103.377 744.332 L98.8259 744.332 L98.8259 710.467 Z" fill="#000000" fill-rule="evenodd" fill-opacity="1" /><path clip-path="url(#clip210)" d="M 0 0 M57.7671 680.866 L38.479 680.866 L38.479 675.01 L88.0042 675.01 L88.0042 680.866 L82.657 680.866 Q85.8398 682.712 87.3994 685.545 Q88.9272 688.346 88.9272 692.292 Q88.9272 698.754 83.771 702.828 Q78.6147 706.87 70.212 706.87 Q61.8093 706.87 56.6531 702.828 Q51.4968 698.754 51.4968 692.292 Q51.4968 688.346 53.0564 685.545 Q54.5842 682.712 57.7671 680.866 M70.212 700.823 Q76.6732 700.823 80.3653 698.181 Q84.0256 695.507 84.0256 690.86 Q84.0256 686.213 80.3653 683.54 Q76.6732 680.866 70.212 680.866 Q63.7508 680.866 60.0905 683.54 Q56.3984 686.213 56.3984 690.86 Q56.3984 695.507 60.0905 698.181 Q63.7508 700.823 70.212 700.823 Z" fill="#000000" fill-rule="evenodd" fill-opacity="1" /><path clip-path="url(#clip210)" d="M 0 0 M52.3562 668.867 L52.3562 663.01 L88.0042 663.01 L88.0042 668.867 L52.3562 668.867 M38.479 668.867 L38.479 663.01 L45.895 663.01 L45.895 668.867 L38.479 668.867 Z" fill="#000000" fill-rule="evenodd" fill-opacity="1" /><path clip-path="url(#clip210)" d="M 0 0 M38.479 638.821 L43.3487 638.821 L43.3487 644.422 Q43.3487 647.573 44.6219 648.815 Q45.895 650.024 49.2052 650.024 L52.3562 650.024 L52.3562 640.38 L56.9077 640.38 L56.9077 650.024 L88.0042 650.024 L88.0042 655.912 L56.9077 655.912 L56.9077 661.514 L52.3562 661.514 L52.3562 655.912 L49.8736 655.912 Q43.9216 655.912 41.2162 653.143 Q38.479 650.374 38.479 644.359 L38.479 638.821 Z" fill="#000000" fill-rule="evenodd" fill-opacity="1" /><path clip-path="url(#clip210)" d="M 0 0 M38.479 614.631 L43.3487 614.631 L43.3487 620.233 Q43.3487 623.384 44.6219 624.625 Q45.895 625.835 49.2052 625.835 L52.3562 625.835 L52.3562 616.19 L56.9077 616.19 L56.9077 625.835 L88.0042 625.835 L88.0042 631.723 L56.9077 631.723 L56.9077 637.325 L52.3562 637.325 L52.3562 631.723 L49.8736 631.723 Q43.9216 631.723 41.2162 628.954 Q38.479 626.185 38.479 620.169 L38.479 614.631 Z" fill="#000000" fill-rule="evenodd" fill-opacity="1" /><polyline clip-path="url(#clip212)" style="stroke:#009af9; stroke-width:20; stroke-opacity:1; fill:none" stroke-dasharray="80, 50" points="
  260.167,1019.46 514.122,1070.91 768.077,1100.43 1022.03,1272.99 1275.99,1372.3 1529.94,1128.72 1783.9,640.331 2037.85,305.489 2291.81,85.838 
  "/>
<path clip-path="url(#clip210)" d="
M1990.67 213.659 L2280.97 213.659 L2280.97 92.6992 L1990.67 92.6992  Z
  " fill="#ffffff" fill-rule="evenodd" fill-opacity="1"/>
<polyline clip-path="url(#clip210)" style="stroke:#000000; stroke-width:4; stroke-opacity:1; fill:none" points="
  1990.67,213.659 2280.97,213.659 2280.97,92.6992 1990.67,92.6992 1990.67,213.659 
  "/>
<polyline clip-path="url(#clip210)" style="stroke:#009af9; stroke-width:4; stroke-opacity:1; fill:none" stroke-dasharray="16, 10" points="
  2014.6,153.179 2158.17,153.179 
  "/>
<path clip-path="url(#clip210)" d="M 0 0 M2195.94 172.867 Q2194.13 177.496 2192.42 178.908 Q2190.71 180.32 2187.84 180.32 L2184.43 180.32 L2184.43 176.755 L2186.93 176.755 Q2188.69 176.755 2189.67 175.922 Q2190.64 175.089 2191.82 171.987 L2192.58 170.043 L2182.1 144.533 L2186.61 144.533 L2194.71 164.811 L2202.81 144.533 L2207.33 144.533 L2195.94 172.867 Z" fill="#000000" fill-rule="evenodd" fill-opacity="1" /><path clip-path="url(#clip210)" d="M 0 0 M2213.21 166.524 L2220.85 166.524 L2220.85 140.158 L2212.54 141.825 L2212.54 137.566 L2220.8 135.899 L2225.48 135.899 L2225.48 166.524 L2233.11 166.524 L2233.11 170.459 L2213.21 170.459 L2213.21 166.524 Z" fill="#000000" fill-rule="evenodd" fill-opacity="1" /></svg>
