<?xml version="1.0" encoding="utf-8"?>
<svg xmlns="http://www.w3.org/2000/svg" xmlns:xlink="http://www.w3.org/1999/xlink" width="600" height="400" viewBox="0 0 2400 1600">
<defs>
  <clipPath id="clip200">
    <rect x="0" y="0" width="2400" height="1600"/>
  </clipPath>
</defs>
<path clip-path="url(#clip200)" d="
M0 1600 L2400 1600 L2400 0 L0 0  Z
  " fill="#ffffff" fill-rule="evenodd" fill-opacity="1"/>
<defs>
  <clipPath id="clip201">
    <rect x="480" y="0" width="1681" height="1600"/>
  </clipPath>
</defs>
<path clip-path="url(#clip200)" d="
M220.19 1410.9 L2352.76 1410.9 L2352.76 47.2441 L220.19 47.2441  Z
  " fill="#ffffff" fill-rule="evenodd" fill-opacity="1"/>
<defs>
  <clipPath id="clip202">
    <rect x="220" y="47" width="2134" height="1365"/>
  </clipPath>
</defs>
<polyline clip-path="url(#clip202)" style="stroke:#000000; stroke-linecap:round; stroke-linejoin:round; stroke-width:2; stroke-opacity:0.1; fill:none" points="
  280.546,1410.9 280.546,47.2441 
  "/>
<polyline clip-path="url(#clip202)" style="stroke:#000000; stroke-linecap:round; stroke-linejoin:round; stroke-width:2; stroke-opacity:0.1; fill:none" points="
  835.54,1410.9 835.54,47.2441 
  "/>
<polyline clip-path="url(#clip202)" style="stroke:#000000; stroke-linecap:round; stroke-linejoin:round; stroke-width:2; stroke-opacity:0.1; fill:none" points="
  1390.53,1410.9 1390.53,47.2441 
  "/>
<polyline clip-path="url(#clip202)" style="stroke:#000000; stroke-linecap:round; stroke-linejoin:round; stroke-width:2; stroke-opacity:0.1; fill:none" points="
  1945.53,1410.9 1945.53,47.2441 
  "/>
<polyline clip-path="url(#clip200)" style="stroke:#000000; stroke-linecap:round; stroke-linejoin:round; stroke-width:4; stroke-opacity:1; fill:none" points="
  220.19,1410.9 2352.76,1410.9 
  "/>
<polyline clip-path="url(#clip200)" style="stroke:#000000; stroke-linecap:round; stroke-linejoin:round; stroke-width:4; stroke-opacity:1; fill:none" points="
  280.546,1410.9 280.546,1392 
  "/>
<polyline clip-path="url(#clip200)" style="stroke:#000000; stroke-linecap:round; stroke-linejoin:round; stroke-width:4; stroke-opacity:1; fill:none" points="
  835.54,1410.9 835.54,1392 
  "/>
<polyline clip-path="url(#clip200)" style="stroke:#000000; stroke-linecap:round; stroke-linejoin:round; stroke-width:4; stroke-opacity:1; fill:none" points="
  1390.53,1410.9 1390.53,1392 
  "/>
<polyline clip-path="url(#clip200)" style="stroke:#000000; stroke-linecap:round; stroke-linejoin:round; stroke-width:4; stroke-opacity:1; fill:none" points="
  1945.53,1410.9 1945.53,1392 
  "/>
<path clip-path="url(#clip200)" d="M230.097 1485.02 L237.736 1485.02 L237.736 1458.66 L229.426 1460.32 L229.426 1456.06 L237.69 1454.4 L242.365 1454.4 L242.365 1485.02 L250.004 1485.02 L250.004 1488.96 L230.097 1488.96 L230.097 1485.02 Z" fill="#000000" fill-rule="evenodd" fill-opacity="1" /><path clip-path="url(#clip200)" d="M269.449 1457.48 Q265.838 1457.48 264.009 1461.04 Q262.203 1464.58 262.203 1471.71 Q262.203 1478.82 264.009 1482.38 Q265.838 1485.92 269.449 1485.92 Q273.083 1485.92 274.888 1482.38 Q276.717 1478.82 276.717 1471.71 Q276.717 1464.58 274.888 1461.04 Q273.083 1457.48 269.449 1457.48 M269.449 1453.77 Q275.259 1453.77 278.314 1458.38 Q281.393 1462.96 281.393 1471.71 Q281.393 1480.44 278.314 1485.04 Q275.259 1489.63 269.449 1489.63 Q263.639 1489.63 260.56 1485.04 Q257.504 1480.44 257.504 1471.71 Q257.504 1462.96 260.56 1458.38 Q263.639 1453.77 269.449 1453.77 Z" fill="#000000" fill-rule="evenodd" fill-opacity="1" /><path clip-path="url(#clip200)" d="M281.393 1447.87 L305.505 1447.87 L305.505 1451.07 L281.393 1451.07 L281.393 1447.87 Z" fill="#000000" fill-rule="evenodd" fill-opacity="1" /><path clip-path="url(#clip200)" d="M322.3 1445.99 Q319.742 1445.99 318.237 1447.74 Q316.752 1449.49 316.752 1452.54 Q316.752 1455.57 318.237 1457.33 Q319.742 1459.08 322.3 1459.08 Q324.858 1459.08 326.344 1457.33 Q327.848 1455.57 327.848 1452.54 Q327.848 1449.49 326.344 1447.74 Q324.858 1445.99 322.3 1445.99 M329.842 1434.09 L329.842 1437.55 Q328.412 1436.87 326.945 1436.51 Q325.497 1436.16 324.068 1436.16 Q320.306 1436.16 318.313 1438.69 Q316.338 1441.23 316.056 1446.37 Q317.165 1444.73 318.839 1443.87 Q320.513 1442.98 322.526 1442.98 Q326.757 1442.98 329.202 1445.56 Q331.666 1448.12 331.666 1452.54 Q331.666 1456.86 329.108 1459.48 Q326.55 1462.09 322.3 1462.09 Q317.429 1462.09 314.852 1458.37 Q312.275 1454.62 312.275 1447.53 Q312.275 1440.88 315.435 1436.93 Q318.595 1432.96 323.917 1432.96 Q325.347 1432.96 326.795 1433.24 Q328.262 1433.52 329.842 1434.09 Z" fill="#000000" fill-rule="evenodd" fill-opacity="1" /><path clip-path="url(#clip200)" d="M785.562 1485.02 L793.2 1485.02 L793.2 1458.66 L784.89 1460.32 L784.89 1456.06 L793.154 1454.4 L797.83 1454.4 L797.83 1485.02 L805.469 1485.02 L805.469 1488.96 L785.562 1488.96 L785.562 1485.02 Z" fill="#000000" fill-rule="evenodd" fill-opacity="1" /><path clip-path="url(#clip200)" d="M824.913 1457.48 Q821.302 1457.48 819.473 1461.04 Q817.668 1464.58 817.668 1471.71 Q817.668 1478.82 819.473 1482.38 Q821.302 1485.92 824.913 1485.92 Q828.547 1485.92 830.353 1482.38 Q832.182 1478.82 832.182 1471.71 Q832.182 1464.58 830.353 1461.04 Q828.547 1457.48 824.913 1457.48 M824.913 1453.77 Q830.723 1453.77 833.779 1458.38 Q836.858 1462.96 836.858 1471.71 Q836.858 1480.44 833.779 1485.04 Q830.723 1489.63 824.913 1489.63 Q819.103 1489.63 816.024 1485.04 Q812.969 1480.44 812.969 1471.71 Q812.969 1462.96 816.024 1458.38 Q819.103 1453.77 824.913 1453.77 Z" fill="#000000" fill-rule="evenodd" fill-opacity="1" /><path clip-path="url(#clip200)" d="M836.858 1447.87 L860.969 1447.87 L860.969 1451.07 L836.858 1451.07 L836.858 1447.87 Z" fill="#000000" fill-rule="evenodd" fill-opacity="1" /><path clip-path="url(#clip200)" d="M869.207 1433.47 L884.121 1433.47 L884.121 1436.66 L872.686 1436.66 L872.686 1443.55 Q873.514 1443.27 874.341 1443.13 Q875.169 1442.98 875.996 1442.98 Q880.698 1442.98 883.444 1445.56 Q886.19 1448.14 886.19 1452.54 Q886.19 1457.07 883.369 1459.59 Q880.548 1462.09 875.413 1462.09 Q873.646 1462.09 871.802 1461.79 Q869.978 1461.49 868.022 1460.89 L868.022 1457.07 Q869.715 1457.99 871.52 1458.44 Q873.326 1458.89 875.338 1458.89 Q878.592 1458.89 880.492 1457.18 Q882.391 1455.47 882.391 1452.54 Q882.391 1449.6 880.492 1447.89 Q878.592 1446.18 875.338 1446.18 Q873.815 1446.18 872.291 1446.52 Q870.787 1446.86 869.207 1447.57 L869.207 1433.47 Z" fill="#000000" fill-rule="evenodd" fill-opacity="1" /><path clip-path="url(#clip200)" d="M1339.95 1485.02 L1347.59 1485.02 L1347.59 1458.66 L1339.28 1460.32 L1339.28 1456.06 L1347.55 1454.4 L1352.22 1454.4 L1352.22 1485.02 L1359.86 1485.02 L1359.86 1488.96 L1339.95 1488.96 L1339.95 1485.02 Z" fill="#000000" fill-rule="evenodd" fill-opacity="1" /><path clip-path="url(#clip200)" d="M1379.31 1457.48 Q1375.69 1457.48 1373.87 1461.04 Q1372.06 1464.58 1372.06 1471.71 Q1372.06 1478.82 1373.87 1482.38 Q1375.69 1485.92 1379.31 1485.92 Q1382.94 1485.92 1384.75 1482.38 Q1386.57 1478.82 1386.57 1471.71 Q1386.57 1464.58 1384.75 1461.04 Q1382.94 1457.48 1379.31 1457.48 M1379.31 1453.77 Q1385.12 1453.77 1388.17 1458.38 Q1391.25 1462.96 1391.25 1471.71 Q1391.25 1480.44 1388.17 1485.04 Q1385.12 1489.63 1379.31 1489.63 Q1373.5 1489.63 1370.42 1485.04 Q1367.36 1480.44 1367.36 1471.71 Q1367.36 1462.96 1370.42 1458.38 Q1373.5 1453.77 1379.31 1453.77 Z" fill="#000000" fill-rule="evenodd" fill-opacity="1" /><path clip-path="url(#clip200)" d="M1391.25 1447.87 L1415.36 1447.87 L1415.36 1451.07 L1391.25 1451.07 L1391.25 1447.87 Z" fill="#000000" fill-rule="evenodd" fill-opacity="1" /><path clip-path="url(#clip200)" d="M1434 1436.78 L1424.41 1451.77 L1434 1451.77 L1434 1436.78 M1433 1433.47 L1437.78 1433.47 L1437.78 1451.77 L1441.79 1451.77 L1441.79 1454.93 L1437.78 1454.93 L1437.78 1461.55 L1434 1461.55 L1434 1454.93 L1421.32 1454.93 L1421.32 1451.26 L1433 1433.47 Z" fill="#000000" fill-rule="evenodd" fill-opacity="1" /><path clip-path="url(#clip200)" d="M1895.41 1485.02 L1903.05 1485.02 L1903.05 1458.66 L1894.74 1460.32 L1894.74 1456.06 L1903 1454.4 L1907.68 1454.4 L1907.68 1485.02 L1915.32 1485.02 L1915.32 1488.96 L1895.41 1488.96 L1895.41 1485.02 Z" fill="#000000" fill-rule="evenodd" fill-opacity="1" /><path clip-path="url(#clip200)" d="M1934.76 1457.48 Q1931.15 1457.48 1929.32 1461.04 Q1927.52 1464.58 1927.52 1471.71 Q1927.52 1478.82 1929.32 1482.38 Q1931.15 1485.92 1934.76 1485.92 Q1938.39 1485.92 1940.2 1482.38 Q1942.03 1478.82 1942.03 1471.71 Q1942.03 1464.58 1940.2 1461.04 Q1938.39 1457.48 1934.76 1457.48 M1934.76 1453.77 Q1940.57 1453.77 1943.63 1458.38 Q1946.71 1462.96 1946.71 1471.71 Q1946.71 1480.44 1943.63 1485.04 Q1940.57 1489.63 1934.76 1489.63 Q1928.95 1489.63 1925.87 1485.04 Q1922.82 1480.44 1922.82 1471.71 Q1922.82 1462.96 1925.87 1458.38 Q1928.95 1453.77 1934.76 1453.77 Z" fill="#000000" fill-rule="evenodd" fill-opacity="1" /><path clip-path="url(#clip200)" d="M1946.71 1447.87 L1970.82 1447.87 L1970.82 1451.07 L1946.71 1451.07 L1946.71 1447.87 Z" fill="#000000" fill-rule="evenodd" fill-opacity="1" /><path clip-path="url(#clip200)" d="M1990.53 1446.41 Q1993.25 1446.99 1994.78 1448.83 Q1996.32 1450.68 1996.32 1453.38 Q1996.32 1457.54 1993.46 1459.82 Q1990.6 1462.09 1985.34 1462.09 Q1983.57 1462.09 1981.69 1461.73 Q1979.83 1461.4 1977.83 1460.7 L1977.83 1457.03 Q1979.41 1457.95 1981.29 1458.42 Q1983.17 1458.89 1985.22 1458.89 Q1988.8 1458.89 1990.66 1457.48 Q1992.54 1456.07 1992.54 1453.38 Q1992.54 1450.9 1990.79 1449.51 Q1989.06 1448.1 1985.96 1448.1 L1982.68 1448.1 L1982.68 1444.98 L1986.11 1444.98 Q1988.91 1444.98 1990.4 1443.87 Q1991.88 1442.74 1991.88 1440.63 Q1991.88 1438.47 1990.34 1437.32 Q1988.82 1436.16 1985.96 1436.16 Q1984.4 1436.16 1982.61 1436.49 Q1980.82 1436.83 1978.68 1437.55 L1978.68 1434.16 Q1980.84 1433.56 1982.72 1433.26 Q1984.62 1432.96 1986.3 1432.96 Q1990.62 1432.96 1993.14 1434.93 Q1995.66 1436.89 1995.66 1440.24 Q1995.66 1442.57 1994.33 1444.19 Q1992.99 1445.79 1990.53 1446.41 Z" fill="#000000" fill-rule="evenodd" fill-opacity="1" /><path clip-path="url(#clip200)" d="M1173.29 1538.54 L1179.5 1538.54 L1190.64 1568.46 L1201.78 1538.54 L1207.98 1538.54 L1194.62 1574.19 L1186.66 1574.19 L1173.29 1538.54 Z" fill="#000000" fill-rule="evenodd" fill-opacity="1" /><path clip-path="url(#clip200)" d="M1243.15 1585.01 L1243.15 1589.56 L1209.29 1589.56 L1209.29 1585.01 L1243.15 1585.01 Z" fill="#000000" fill-rule="evenodd" fill-opacity="1" /><path clip-path="url(#clip200)" d="M1262.47 1542.64 Q1257.76 1542.64 1255.03 1546.34 Q1252.29 1550 1252.29 1556.39 Q1252.29 1562.79 1254.99 1566.48 Q1257.73 1570.14 1262.47 1570.14 Q1267.15 1570.14 1269.89 1566.45 Q1272.63 1562.76 1272.63 1556.39 Q1272.63 1550.06 1269.89 1546.37 Q1267.15 1542.64 1262.47 1542.64 M1262.47 1537.68 Q1270.11 1537.68 1274.47 1542.64 Q1278.83 1547.61 1278.83 1556.39 Q1278.83 1565.15 1274.47 1570.14 Q1270.11 1575.11 1262.47 1575.11 Q1254.8 1575.11 1250.44 1570.14 Q1246.11 1565.15 1246.11 1556.39 Q1246.11 1547.61 1250.44 1542.64 Q1254.8 1537.68 1262.47 1537.68 Z" fill="#000000" fill-rule="evenodd" fill-opacity="1" /><path clip-path="url(#clip200)" d="M1294.21 1568.84 L1294.21 1587.74 L1288.32 1587.74 L1288.32 1538.54 L1294.21 1538.54 L1294.21 1543.95 Q1296.05 1540.77 1298.85 1539.24 Q1301.69 1537.68 1305.6 1537.68 Q1312.1 1537.68 1316.14 1542.83 Q1320.21 1547.99 1320.21 1556.39 Q1320.21 1564.8 1316.14 1569.95 Q1312.1 1575.11 1305.6 1575.11 Q1301.69 1575.11 1298.85 1573.58 Q1296.05 1572.02 1294.21 1568.84 M1314.13 1556.39 Q1314.13 1549.93 1311.46 1546.27 Q1308.82 1542.58 1304.17 1542.58 Q1299.52 1542.58 1296.85 1546.27 Q1294.21 1549.93 1294.21 1556.39 Q1294.21 1562.85 1296.85 1566.55 Q1299.52 1570.21 1304.17 1570.21 Q1308.82 1570.21 1311.46 1566.55 Q1314.13 1562.85 1314.13 1556.39 Z" fill="#000000" fill-rule="evenodd" fill-opacity="1" /><path clip-path="url(#clip200)" d="M1360.41 1554.9 L1360.41 1557.76 L1333.48 1557.76 Q1333.87 1563.81 1337.11 1566.99 Q1340.39 1570.14 1346.22 1570.14 Q1349.59 1570.14 1352.74 1569.32 Q1355.92 1568.49 1359.04 1566.83 L1359.04 1572.37 Q1355.89 1573.71 1352.58 1574.41 Q1349.27 1575.11 1345.87 1575.11 Q1337.34 1575.11 1332.34 1570.14 Q1327.37 1565.18 1327.37 1556.71 Q1327.37 1547.96 1332.08 1542.83 Q1336.83 1537.68 1344.85 1537.68 Q1352.04 1537.68 1356.21 1542.33 Q1360.41 1546.94 1360.41 1554.9 M1354.55 1553.18 Q1354.49 1548.37 1351.85 1545.51 Q1349.24 1542.64 1344.91 1542.64 Q1340.01 1542.64 1337.05 1545.41 Q1334.12 1548.18 1333.67 1553.21 L1354.55 1553.18 Z" fill="#000000" fill-rule="evenodd" fill-opacity="1" /><path clip-path="url(#clip200)" d="M1399.66 1552.67 L1399.66 1574.19 L1393.8 1574.19 L1393.8 1552.86 Q1393.8 1547.8 1391.83 1545.29 Q1389.85 1542.77 1385.91 1542.77 Q1381.16 1542.77 1378.43 1545.79 Q1375.69 1548.82 1375.69 1554.04 L1375.69 1574.19 L1369.8 1574.19 L1369.8 1538.54 L1375.69 1538.54 L1375.69 1544.08 Q1377.79 1540.86 1380.62 1539.27 Q1383.49 1537.68 1387.21 1537.68 Q1393.35 1537.68 1396.5 1541.5 Q1399.66 1545.29 1399.66 1552.67 Z" fill="#000000" fill-rule="evenodd" fill-opacity="1" /><polyline clip-path="url(#clip202)" style="stroke:#000000; stroke-linecap:round; stroke-linejoin:round; stroke-width:2; stroke-opacity:0.1; fill:none" points="
  220.19,1184.82 2352.76,1184.82 
  "/>
<polyline clip-path="url(#clip202)" style="stroke:#000000; stroke-linecap:round; stroke-linejoin:round; stroke-width:2; stroke-opacity:0.1; fill:none" points="
  220.19,856.516 2352.76,856.516 
  "/>
<polyline clip-path="url(#clip202)" style="stroke:#000000; stroke-linecap:round; stroke-linejoin:round; stroke-width:2; stroke-opacity:0.1; fill:none" points="
  220.19,528.214 2352.76,528.214 
  "/>
<polyline clip-path="url(#clip202)" style="stroke:#000000; stroke-linecap:round; stroke-linejoin:round; stroke-width:2; stroke-opacity:0.1; fill:none" points="
  220.19,199.912 2352.76,199.912 
  "/>
<polyline clip-path="url(#clip200)" style="stroke:#000000; stroke-linecap:round; stroke-linejoin:round; stroke-width:4; stroke-opacity:1; fill:none" points="
  220.19,1410.9 220.19,47.2441 
  "/>
<polyline clip-path="url(#clip200)" style="stroke:#000000; stroke-linecap:round; stroke-linejoin:round; stroke-width:4; stroke-opacity:1; fill:none" points="
  220.19,1184.82 239.088,1184.82 
  "/>
<polyline clip-path="url(#clip200)" style="stroke:#000000; stroke-linecap:round; stroke-linejoin:round; stroke-width:4; stroke-opacity:1; fill:none" points="
  220.19,856.516 239.088,856.516 
  "/>
<polyline clip-path="url(#clip200)" style="stroke:#000000; stroke-linecap:round; stroke-linejoin:round; stroke-width:4; stroke-opacity:1; fill:none" points="
  220.19,528.214 239.088,528.214 
  "/>
<polyline clip-path="url(#clip200)" style="stroke:#000000; stroke-linecap:round; stroke-linejoin:round; stroke-width:4; stroke-opacity:1; fill:none" points="
  220.19,199.912 239.088,199.912 
  "/>
<path clip-path="url(#clip200)" d="M131.019 1183.46 Q134.376 1184.18 136.251 1186.45 Q138.149 1188.72 138.149 1192.05 Q138.149 1197.17 134.63 1199.97 Q131.112 1202.77 124.63 1202.77 Q122.455 1202.77 120.14 1202.33 Q117.848 1201.91 115.394 1201.06 L115.394 1196.54 Q117.339 1197.68 119.654 1198.26 Q121.968 1198.83 124.492 1198.83 Q128.89 1198.83 131.181 1197.1 Q133.496 1195.36 133.496 1192.05 Q133.496 1189 131.343 1187.28 Q129.214 1185.55 125.394 1185.55 L121.367 1185.55 L121.367 1181.7 L125.58 1181.7 Q129.029 1181.7 130.857 1180.34 Q132.686 1178.95 132.686 1176.36 Q132.686 1173.7 130.788 1172.28 Q128.913 1170.85 125.394 1170.85 Q123.473 1170.85 121.274 1171.26 Q119.075 1171.68 116.436 1172.56 L116.436 1168.39 Q119.098 1167.65 121.413 1167.28 Q123.751 1166.91 125.811 1166.91 Q131.135 1166.91 134.237 1169.34 Q137.339 1171.75 137.339 1175.87 Q137.339 1178.74 135.695 1180.73 Q134.052 1182.7 131.019 1183.46 Z" fill="#000000" fill-rule="evenodd" fill-opacity="1" /><path clip-path="url(#clip200)" d="M147.015 1196.22 L151.899 1196.22 L151.899 1202.1 L147.015 1202.1 L147.015 1196.22 Z" fill="#000000" fill-rule="evenodd" fill-opacity="1" /><path clip-path="url(#clip200)" d="M172.663 1182.95 Q169.514 1182.95 167.663 1185.11 Q165.834 1187.26 165.834 1191.01 Q165.834 1194.74 167.663 1196.91 Q169.514 1199.07 172.663 1199.07 Q175.811 1199.07 177.639 1196.91 Q179.491 1194.74 179.491 1191.01 Q179.491 1187.26 177.639 1185.11 Q175.811 1182.95 172.663 1182.95 M181.945 1168.3 L181.945 1172.56 Q180.186 1171.73 178.38 1171.29 Q176.598 1170.85 174.839 1170.85 Q170.209 1170.85 167.755 1173.97 Q165.325 1177.1 164.977 1183.42 Q166.343 1181.4 168.403 1180.34 Q170.464 1179.25 172.94 1179.25 Q178.149 1179.25 181.158 1182.42 Q184.19 1185.57 184.19 1191.01 Q184.19 1196.33 181.042 1199.55 Q177.894 1202.77 172.663 1202.77 Q166.667 1202.77 163.496 1198.19 Q160.325 1193.58 160.325 1184.85 Q160.325 1176.66 164.214 1171.8 Q168.102 1166.91 174.653 1166.91 Q176.413 1166.91 178.195 1167.26 Q180.001 1167.61 181.945 1168.3 Z" fill="#000000" fill-rule="evenodd" fill-opacity="1" /><path clip-path="url(#clip200)" d="M131.274 855.161 Q134.63 855.879 136.505 858.148 Q138.404 860.416 138.404 863.749 Q138.404 868.865 134.885 871.666 Q131.367 874.467 124.885 874.467 Q122.709 874.467 120.394 874.027 Q118.103 873.61 115.649 872.754 L115.649 868.24 Q117.593 869.374 119.908 869.953 Q122.223 870.532 124.746 870.532 Q129.144 870.532 131.436 868.796 Q133.751 867.06 133.751 863.749 Q133.751 860.694 131.598 858.981 Q129.468 857.245 125.649 857.245 L121.621 857.245 L121.621 853.402 L125.834 853.402 Q129.283 853.402 131.112 852.037 Q132.941 850.648 132.941 848.055 Q132.941 845.393 131.042 843.981 Q129.167 842.546 125.649 842.546 Q123.728 842.546 121.529 842.962 Q119.33 843.379 116.691 844.259 L116.691 840.092 Q119.353 839.351 121.668 838.981 Q124.005 838.611 126.066 838.611 Q131.39 838.611 134.492 841.041 Q137.593 843.449 137.593 847.569 Q137.593 850.439 135.95 852.43 Q134.306 854.398 131.274 855.161 Z" fill="#000000" fill-rule="evenodd" fill-opacity="1" /><path clip-path="url(#clip200)" d="M147.269 867.916 L152.153 867.916 L152.153 873.796 L147.269 873.796 L147.269 867.916 Z" fill="#000000" fill-rule="evenodd" fill-opacity="1" /><path clip-path="url(#clip200)" d="M172.339 857.384 Q169.005 857.384 167.084 859.166 Q165.186 860.948 165.186 864.073 Q165.186 867.198 167.084 868.981 Q169.005 870.763 172.339 870.763 Q175.672 870.763 177.593 868.981 Q179.514 867.175 179.514 864.073 Q179.514 860.948 177.593 859.166 Q175.695 857.384 172.339 857.384 M167.663 855.393 Q164.653 854.652 162.964 852.592 Q161.297 850.532 161.297 847.569 Q161.297 843.425 164.237 841.018 Q167.2 838.611 172.339 838.611 Q177.501 838.611 180.44 841.018 Q183.38 843.425 183.38 847.569 Q183.38 850.532 181.69 852.592 Q180.024 854.652 177.038 855.393 Q180.417 856.18 182.292 858.472 Q184.19 860.763 184.19 864.073 Q184.19 869.097 181.112 871.782 Q178.056 874.467 172.339 874.467 Q166.621 874.467 163.542 871.782 Q160.487 869.097 160.487 864.073 Q160.487 860.763 162.385 858.472 Q164.283 856.18 167.663 855.393 M165.95 848.009 Q165.95 850.694 167.616 852.199 Q169.306 853.703 172.339 853.703 Q175.348 853.703 177.038 852.199 Q178.751 850.694 178.751 848.009 Q178.751 845.324 177.038 843.819 Q175.348 842.314 172.339 842.314 Q169.306 842.314 167.616 843.819 Q165.95 845.324 165.95 848.009 Z" fill="#000000" fill-rule="evenodd" fill-opacity="1" /><path clip-path="url(#clip200)" d="M129.862 515.008 L118.056 533.457 L129.862 533.457 L129.862 515.008 M128.635 510.934 L134.515 510.934 L134.515 533.457 L139.445 533.457 L139.445 537.346 L134.515 537.346 L134.515 545.494 L129.862 545.494 L129.862 537.346 L114.26 537.346 L114.26 532.832 L128.635 510.934 Z" fill="#000000" fill-rule="evenodd" fill-opacity="1" /><path clip-path="url(#clip200)" d="M147.177 539.614 L152.061 539.614 L152.061 545.494 L147.177 545.494 L147.177 539.614 Z" fill="#000000" fill-rule="evenodd" fill-opacity="1" /><path clip-path="url(#clip200)" d="M172.246 514.012 Q168.635 514.012 166.806 517.577 Q165.001 521.119 165.001 528.248 Q165.001 535.355 166.806 538.92 Q168.635 542.461 172.246 542.461 Q175.88 542.461 177.686 538.92 Q179.514 535.355 179.514 528.248 Q179.514 521.119 177.686 517.577 Q175.88 514.012 172.246 514.012 M172.246 510.309 Q178.056 510.309 181.112 514.915 Q184.19 519.498 184.19 528.248 Q184.19 536.975 181.112 541.582 Q178.056 546.165 172.246 546.165 Q166.436 546.165 163.357 541.582 Q160.302 536.975 160.302 528.248 Q160.302 519.498 163.357 514.915 Q166.436 510.309 172.246 510.309 Z" fill="#000000" fill-rule="evenodd" fill-opacity="1" /><path clip-path="url(#clip200)" d="M131.459 186.706 L119.654 205.155 L131.459 205.155 L131.459 186.706 M130.232 182.632 L136.112 182.632 L136.112 205.155 L141.042 205.155 L141.042 209.044 L136.112 209.044 L136.112 217.192 L131.459 217.192 L131.459 209.044 L115.857 209.044 L115.857 204.53 L130.232 182.632 Z" fill="#000000" fill-rule="evenodd" fill-opacity="1" /><path clip-path="url(#clip200)" d="M148.774 211.312 L153.658 211.312 L153.658 217.192 L148.774 217.192 L148.774 211.312 Z" fill="#000000" fill-rule="evenodd" fill-opacity="1" /><path clip-path="url(#clip200)" d="M167.871 213.256 L184.19 213.256 L184.19 217.192 L162.246 217.192 L162.246 213.256 Q164.908 210.502 169.491 205.872 Q174.098 201.22 175.278 199.877 Q177.524 197.354 178.403 195.618 Q179.306 193.858 179.306 192.169 Q179.306 189.414 177.362 187.678 Q175.44 185.942 172.339 185.942 Q170.139 185.942 167.686 186.706 Q165.255 187.47 162.477 189.021 L162.477 184.298 Q165.302 183.164 167.755 182.585 Q170.209 182.007 172.246 182.007 Q177.616 182.007 180.811 184.692 Q184.005 187.377 184.005 191.868 Q184.005 193.997 183.195 195.919 Q182.408 197.817 180.301 200.409 Q179.723 201.081 176.621 204.298 Q173.519 207.493 167.871 213.256 Z" fill="#000000" fill-rule="evenodd" fill-opacity="1" /><path clip-path="url(#clip200)" d="M35.1993 829.203 Q31.2526 827.007 29.3747 823.951 Q27.4968 820.896 27.4968 816.758 Q27.4968 811.188 31.4117 808.164 Q35.2948 805.141 42.4881 805.141 L64.0042 805.141 L64.0042 811.029 L42.679 811.029 Q37.5546 811.029 35.072 812.843 Q32.5894 814.657 32.5894 818.381 Q32.5894 822.933 35.6131 825.574 Q38.6368 828.216 43.8567 828.216 L64.0042 828.216 L64.0042 834.105 L42.679 834.105 Q37.5228 834.105 35.072 835.919 Q32.5894 837.733 32.5894 841.521 Q32.5894 846.008 35.6449 848.65 Q38.6686 851.292 43.8567 851.292 L64.0042 851.292 L64.0042 857.18 L28.3562 857.18 L28.3562 851.292 L33.8944 851.292 Q30.616 849.287 29.0564 846.486 Q27.4968 843.685 27.4968 839.834 Q27.4968 835.951 29.4702 833.245 Q31.4436 830.508 35.1993 829.203 Z" fill="#000000" fill-rule="evenodd" fill-opacity="1" /><path clip-path="url(#clip200)" d="M28.3562 793.459 L28.3562 787.603 L64.0042 787.603 L64.0042 793.459 L28.3562 793.459 M14.479 793.459 L14.479 787.603 L21.895 787.603 L21.895 793.459 L14.479 793.459 Z" fill="#000000" fill-rule="evenodd" fill-opacity="1" /><path clip-path="url(#clip200)" d="M42.4881 745.717 L64.0042 745.717 L64.0042 751.573 L42.679 751.573 Q37.6183 751.573 35.1038 753.547 Q32.5894 755.52 32.5894 759.467 Q32.5894 764.209 35.6131 766.946 Q38.6368 769.684 43.8567 769.684 L64.0042 769.684 L64.0042 775.572 L28.3562 775.572 L28.3562 769.684 L33.8944 769.684 Q30.6797 767.583 29.0883 764.75 Q27.4968 761.886 27.4968 758.162 Q27.4968 752.019 31.3163 748.868 Q35.1038 745.717 42.4881 745.717 Z" fill="#000000" fill-rule="evenodd" fill-opacity="1" /><path clip-path="url(#clip200)" d="M74.8259 706.95 L79.3773 706.95 L79.3773 740.815 L74.8259 740.815 L74.8259 706.95 Z" fill="#000000" fill-rule="evenodd" fill-opacity="1" /><path clip-path="url(#clip200)" d="M33.7671 677.986 L14.479 677.986 L14.479 672.129 L64.0042 672.129 L64.0042 677.986 L58.657 677.986 Q61.8398 679.832 63.3994 682.664 Q64.9272 685.465 64.9272 689.412 Q64.9272 695.873 59.771 699.947 Q54.6147 703.989 46.212 703.989 Q37.8093 703.989 32.6531 699.947 Q27.4968 695.873 27.4968 689.412 Q27.4968 685.465 29.0564 682.664 Q30.5842 679.832 33.7671 677.986 M46.212 697.942 Q52.6732 697.942 56.3653 695.3 Q60.0256 692.627 60.0256 687.98 Q60.0256 683.333 56.3653 680.659 Q52.6732 677.986 46.212 677.986 Q39.7508 677.986 36.0905 680.659 Q32.3984 683.333 32.3984 687.98 Q32.3984 692.627 36.0905 695.3 Q39.7508 697.942 46.212 697.942 Z" fill="#000000" fill-rule="evenodd" fill-opacity="1" /><path clip-path="url(#clip200)" d="M28.3562 660.066 L28.3562 654.21 L64.0042 654.21 L64.0042 660.066 L28.3562 660.066 M14.479 660.066 L14.479 654.21 L21.895 654.21 L21.895 660.066 L14.479 660.066 Z" fill="#000000" fill-rule="evenodd" fill-opacity="1" /><path clip-path="url(#clip200)" d="M14.479 623.909 L19.3487 623.909 L19.3487 629.511 Q19.3487 632.662 20.6219 633.903 Q21.895 635.113 25.2052 635.113 L28.3562 635.113 L28.3562 625.468 L32.9077 625.468 L32.9077 635.113 L64.0042 635.113 L64.0042 641.001 L32.9077 641.001 L32.9077 646.603 L28.3562 646.603 L28.3562 641.001 L25.8736 641.001 Q19.9216 641.001 17.2162 638.232 Q14.479 635.463 14.479 629.447 L14.479 623.909 Z" fill="#000000" fill-rule="evenodd" fill-opacity="1" /><path clip-path="url(#clip200)" d="M14.479 600.961 L19.3487 600.961 L19.3487 606.562 Q19.3487 609.713 20.6219 610.955 Q21.895 612.164 25.2052 612.164 L28.3562 612.164 L28.3562 602.52 L32.9077 602.52 L32.9077 612.164 L64.0042 612.164 L64.0042 618.052 L32.9077 618.052 L32.9077 623.654 L28.3562 623.654 L28.3562 618.052 L25.8736 618.052 Q19.9216 618.052 17.2162 615.283 Q14.479 612.514 14.479 606.499 L14.479 600.961 Z" fill="#000000" fill-rule="evenodd" fill-opacity="1" /><polyline clip-path="url(#clip202)" style="stroke:#009af9; stroke-linecap:round; stroke-linejoin:round; stroke-width:20; stroke-opacity:1; fill:none" stroke-dasharray="80, 50" points="
  280.546,1064.32 349.92,613.146 627.417,1017.29 904.915,1078.57 1182.41,1372.3 1459.91,802.586 1737.41,319.377 2014.9,85.838 2292.4,1042.66 
  "/>
<path clip-path="url(#clip200)" d="
M2015.98 196.379 L2281.67 196.379 L2281.67 92.6992 L2015.98 92.6992  Z
  " fill="#ffffff" fill-rule="evenodd" fill-opacity="1"/>
<polyline clip-path="url(#clip200)" style="stroke:#000000; stroke-linecap:round; stroke-linejoin:round; stroke-width:4; stroke-opacity:1; fill:none" points="
  2015.98,196.379 2281.67,196.379 2281.67,92.6992 2015.98,92.6992 2015.98,196.379 
  "/>
<polyline clip-path="url(#clip200)" style="stroke:#009af9; stroke-linecap:round; stroke-linejoin:round; stroke-width:4; stroke-opacity:1; fill:none" stroke-dasharray="16, 10" points="
  2039.68,144.539 2181.85,144.539 
  "/>
<path clip-path="url(#clip200)" d="M2219.39 164.227 Q2217.58 168.856 2215.87 170.268 Q2214.16 171.68 2211.29 171.68 L2207.88 171.68 L2207.88 168.115 L2210.38 168.115 Q2212.14 168.115 2213.11 167.282 Q2214.09 166.449 2215.27 163.347 L2216.03 161.403 L2205.54 135.893 L2210.06 135.893 L2218.16 156.171 L2226.26 135.893 L2230.78 135.893 L2219.39 164.227 Z" fill="#000000" fill-rule="evenodd" fill-opacity="1" /><path clip-path="url(#clip200)" d="M2238.07 157.884 L2245.71 157.884 L2245.71 131.518 L2237.4 133.185 L2237.4 128.926 L2245.66 127.259 L2250.34 127.259 L2250.34 157.884 L2257.98 157.884 L2257.98 161.819 L2238.07 161.819 L2238.07 157.884 Z" fill="#000000" fill-rule="evenodd" fill-opacity="1" /></svg>
