<?xml version="1.0" encoding="utf-8"?>
<svg xmlns="http://www.w3.org/2000/svg" xmlns:xlink="http://www.w3.org/1999/xlink" width="600" height="400" viewBox="0 0 2400 1600">
<defs>
  <clipPath id="clip190">
    <rect x="0" y="0" width="2400" height="1600"/>
  </clipPath>
</defs>
<path clip-path="url(#clip190)" d="
M0 1600 L2400 1600 L2400 0 L0 0  Z
  " fill="#ffffff" fill-rule="evenodd" fill-opacity="1"/>
<defs>
  <clipPath id="clip191">
    <rect x="480" y="0" width="1681" height="1600"/>
  </clipPath>
</defs>
<path clip-path="url(#clip190)" d="
M249.542 1410.9 L2352.76 1410.9 L2352.76 47.2441 L249.542 47.2441  Z
  " fill="#ffffff" fill-rule="evenodd" fill-opacity="1"/>
<defs>
  <clipPath id="clip192">
    <rect x="249" y="47" width="2104" height="1365"/>
  </clipPath>
</defs>
<polyline clip-path="url(#clip192)" style="stroke:#000000; stroke-linecap:butt; stroke-linejoin:round; stroke-width:2; stroke-opacity:0.1; fill:none" points="
  309.067,1410.9 309.067,47.2441 
  "/>
<polyline clip-path="url(#clip192)" style="stroke:#000000; stroke-linecap:butt; stroke-linejoin:round; stroke-width:2; stroke-opacity:0.1; fill:none" points="
  1102.73,1410.9 1102.73,47.2441 
  "/>
<polyline clip-path="url(#clip192)" style="stroke:#000000; stroke-linecap:butt; stroke-linejoin:round; stroke-width:2; stroke-opacity:0.1; fill:none" points="
  1896.4,1410.9 1896.4,47.2441 
  "/>
<polyline clip-path="url(#clip190)" style="stroke:#000000; stroke-linecap:butt; stroke-linejoin:round; stroke-width:4; stroke-opacity:1; fill:none" points="
  249.542,1410.9 2352.76,1410.9 
  "/>
<polyline clip-path="url(#clip190)" style="stroke:#000000; stroke-linecap:butt; stroke-linejoin:round; stroke-width:4; stroke-opacity:1; fill:none" points="
  309.067,1410.9 309.067,1392 
  "/>
<polyline clip-path="url(#clip190)" style="stroke:#000000; stroke-linecap:butt; stroke-linejoin:round; stroke-width:4; stroke-opacity:1; fill:none" points="
  1102.73,1410.9 1102.73,1392 
  "/>
<polyline clip-path="url(#clip190)" style="stroke:#000000; stroke-linecap:butt; stroke-linejoin:round; stroke-width:4; stroke-opacity:1; fill:none" points="
  1896.4,1410.9 1896.4,1392 
  "/>
<path clip-path="url(#clip190)" d="M240.309 1485.02 L247.947 1485.02 L247.947 1458.66 L239.637 1460.32 L239.637 1456.06 L247.901 1454.4 L252.577 1454.4 L252.577 1485.02 L260.216 1485.02 L260.216 1488.96 L240.309 1488.96 L240.309 1485.02 Z" fill="#000000" fill-rule="evenodd" fill-opacity="1" /><path clip-path="url(#clip190)" d="M279.66 1457.48 Q276.049 1457.48 274.22 1461.04 Q272.415 1464.58 272.415 1471.71 Q272.415 1478.82 274.22 1482.38 Q276.049 1485.92 279.66 1485.92 Q283.295 1485.92 285.1 1482.38 Q286.929 1478.82 286.929 1471.71 Q286.929 1464.58 285.1 1461.04 Q283.295 1457.48 279.66 1457.48 M279.66 1453.77 Q285.47 1453.77 288.526 1458.38 Q291.605 1462.96 291.605 1471.71 Q291.605 1480.44 288.526 1485.04 Q285.47 1489.63 279.66 1489.63 Q273.85 1489.63 270.771 1485.04 Q267.716 1480.44 267.716 1471.71 Q267.716 1462.96 270.771 1458.38 Q273.85 1453.77 279.66 1453.77 Z" fill="#000000" fill-rule="evenodd" fill-opacity="1" /><path clip-path="url(#clip190)" d="M291.605 1447.87 L315.716 1447.87 L315.716 1451.07 L291.605 1451.07 L291.605 1447.87 Z" fill="#000000" fill-rule="evenodd" fill-opacity="1" /><path clip-path="url(#clip190)" d="M335.427 1446.41 Q338.154 1446.99 339.677 1448.83 Q341.22 1450.68 341.22 1453.38 Q341.22 1457.54 338.361 1459.82 Q335.502 1462.09 330.236 1462.09 Q328.468 1462.09 326.587 1461.73 Q324.725 1461.4 322.732 1460.7 L322.732 1457.03 Q324.311 1457.95 326.192 1458.42 Q328.073 1458.89 330.123 1458.89 Q333.696 1458.89 335.558 1457.48 Q337.439 1456.07 337.439 1453.38 Q337.439 1450.9 335.69 1449.51 Q333.96 1448.1 330.856 1448.1 L327.584 1448.1 L327.584 1444.98 L331.007 1444.98 Q333.809 1444.98 335.295 1443.87 Q336.781 1442.74 336.781 1440.63 Q336.781 1438.47 335.239 1437.32 Q333.715 1436.16 330.856 1436.16 Q329.295 1436.16 327.509 1436.49 Q325.722 1436.83 323.578 1437.55 L323.578 1434.16 Q325.741 1433.56 327.622 1433.26 Q329.521 1432.96 331.195 1432.96 Q335.521 1432.96 338.041 1434.93 Q340.561 1436.89 340.561 1440.24 Q340.561 1442.57 339.226 1444.19 Q337.891 1445.79 335.427 1446.41 Z" fill="#000000" fill-rule="evenodd" fill-opacity="1" /><path clip-path="url(#clip190)" d="M348.423 1456.77 L352.391 1456.77 L352.391 1461.55 L348.423 1461.55 L348.423 1456.77 Z" fill="#000000" fill-rule="evenodd" fill-opacity="1" /><path clip-path="url(#clip190)" d="M368.792 1435.97 Q365.858 1435.97 364.372 1438.86 Q362.905 1441.74 362.905 1447.53 Q362.905 1453.31 364.372 1456.2 Q365.858 1459.08 368.792 1459.08 Q371.745 1459.08 373.212 1456.2 Q374.697 1453.31 374.697 1447.53 Q374.697 1441.74 373.212 1438.86 Q371.745 1435.97 368.792 1435.97 M368.792 1432.96 Q373.512 1432.96 375.995 1436.7 Q378.497 1440.43 378.497 1447.53 Q378.497 1454.62 375.995 1458.37 Q373.512 1462.09 368.792 1462.09 Q364.071 1462.09 361.57 1458.37 Q359.087 1454.62 359.087 1447.53 Q359.087 1440.43 361.57 1436.7 Q364.071 1432.96 368.792 1432.96 Z" fill="#000000" fill-rule="evenodd" fill-opacity="1" /><path clip-path="url(#clip190)" d="M1034.05 1485.02 L1041.69 1485.02 L1041.69 1458.66 L1033.38 1460.32 L1033.38 1456.06 L1041.64 1454.4 L1046.32 1454.4 L1046.32 1485.02 L1053.96 1485.02 L1053.96 1488.96 L1034.05 1488.96 L1034.05 1485.02 Z" fill="#000000" fill-rule="evenodd" fill-opacity="1" /><path clip-path="url(#clip190)" d="M1073.4 1457.48 Q1069.79 1457.48 1067.96 1461.04 Q1066.16 1464.58 1066.16 1471.71 Q1066.16 1478.82 1067.96 1482.38 Q1069.79 1485.92 1073.4 1485.92 Q1077.04 1485.92 1078.84 1482.38 Q1080.67 1478.82 1080.67 1471.71 Q1080.67 1464.58 1078.84 1461.04 Q1077.04 1457.48 1073.4 1457.48 M1073.4 1453.77 Q1079.21 1453.77 1082.27 1458.38 Q1085.35 1462.96 1085.35 1471.71 Q1085.35 1480.44 1082.27 1485.04 Q1079.21 1489.63 1073.4 1489.63 Q1067.59 1489.63 1064.51 1485.04 Q1061.46 1480.44 1061.46 1471.71 Q1061.46 1462.96 1064.51 1458.38 Q1067.59 1453.77 1073.4 1453.77 Z" fill="#000000" fill-rule="evenodd" fill-opacity="1" /><path clip-path="url(#clip190)" d="M1085.35 1447.87 L1109.46 1447.87 L1109.46 1451.07 L1085.35 1451.07 L1085.35 1447.87 Z" fill="#000000" fill-rule="evenodd" fill-opacity="1" /><path clip-path="url(#clip190)" d="M1120.93 1458.35 L1134.19 1458.35 L1134.19 1461.55 L1116.36 1461.55 L1116.36 1458.35 Q1118.52 1456.11 1122.25 1452.35 Q1125.99 1448.57 1126.95 1447.48 Q1128.77 1445.43 1129.49 1444.02 Q1130.22 1442.59 1130.22 1441.22 Q1130.22 1438.98 1128.64 1437.57 Q1127.08 1436.16 1124.56 1436.16 Q1122.77 1436.16 1120.78 1436.78 Q1118.8 1437.4 1116.55 1438.66 L1116.55 1434.82 Q1118.84 1433.9 1120.84 1433.43 Q1122.83 1432.96 1124.48 1432.96 Q1128.85 1432.96 1131.44 1435.14 Q1134.04 1437.32 1134.04 1440.97 Q1134.04 1442.7 1133.38 1444.26 Q1132.74 1445.8 1131.03 1447.91 Q1130.56 1448.46 1128.04 1451.07 Q1125.52 1453.67 1120.93 1458.35 Z" fill="#000000" fill-rule="evenodd" fill-opacity="1" /><path clip-path="url(#clip190)" d="M1142.16 1456.77 L1146.13 1456.77 L1146.13 1461.55 L1142.16 1461.55 L1142.16 1456.77 Z" fill="#000000" fill-rule="evenodd" fill-opacity="1" /><path clip-path="url(#clip190)" d="M1154.52 1460.96 L1154.52 1457.5 Q1155.95 1458.18 1157.42 1458.54 Q1158.88 1458.89 1160.29 1458.89 Q1164.06 1458.89 1166.03 1456.37 Q1168.02 1453.84 1168.31 1448.68 Q1167.22 1450.3 1165.54 1451.16 Q1163.87 1452.03 1161.84 1452.03 Q1157.62 1452.03 1155.16 1449.49 Q1152.71 1446.93 1152.71 1442.51 Q1152.71 1438.19 1155.27 1435.57 Q1157.83 1432.96 1162.08 1432.96 Q1166.95 1432.96 1169.51 1436.7 Q1172.09 1440.43 1172.09 1447.53 Q1172.09 1454.17 1168.93 1458.14 Q1165.79 1462.09 1160.46 1462.09 Q1159.03 1462.09 1157.57 1461.81 Q1156.1 1461.53 1154.52 1460.96 M1162.08 1449.06 Q1164.64 1449.06 1166.12 1447.31 Q1167.63 1445.56 1167.63 1442.51 Q1167.63 1439.48 1166.12 1437.74 Q1164.64 1435.97 1162.08 1435.97 Q1159.52 1435.97 1158.02 1437.74 Q1156.53 1439.48 1156.53 1442.51 Q1156.53 1445.56 1158.02 1447.31 Q1159.52 1449.06 1162.08 1449.06 Z" fill="#000000" fill-rule="evenodd" fill-opacity="1" /><path clip-path="url(#clip190)" d="M1827.68 1485.02 L1835.32 1485.02 L1835.32 1458.66 L1827.01 1460.32 L1827.01 1456.06 L1835.27 1454.4 L1839.95 1454.4 L1839.95 1485.02 L1847.58 1485.02 L1847.58 1488.96 L1827.68 1488.96 L1827.68 1485.02 Z" fill="#000000" fill-rule="evenodd" fill-opacity="1" /><path clip-path="url(#clip190)" d="M1867.03 1457.48 Q1863.42 1457.48 1861.59 1461.04 Q1859.78 1464.58 1859.78 1471.71 Q1859.78 1478.82 1861.59 1482.38 Q1863.42 1485.92 1867.03 1485.92 Q1870.66 1485.92 1872.47 1482.38 Q1874.3 1478.82 1874.3 1471.71 Q1874.3 1464.58 1872.47 1461.04 Q1870.66 1457.48 1867.03 1457.48 M1867.03 1453.77 Q1872.84 1453.77 1875.89 1458.38 Q1878.97 1462.96 1878.97 1471.71 Q1878.97 1480.44 1875.89 1485.04 Q1872.84 1489.63 1867.03 1489.63 Q1861.22 1489.63 1858.14 1485.04 Q1855.08 1480.44 1855.08 1471.71 Q1855.08 1462.96 1858.14 1458.38 Q1861.22 1453.77 1867.03 1453.77 Z" fill="#000000" fill-rule="evenodd" fill-opacity="1" /><path clip-path="url(#clip190)" d="M1878.97 1447.87 L1903.09 1447.87 L1903.09 1451.07 L1878.97 1451.07 L1878.97 1447.87 Z" fill="#000000" fill-rule="evenodd" fill-opacity="1" /><path clip-path="url(#clip190)" d="M1914.56 1458.35 L1927.82 1458.35 L1927.82 1461.55 L1909.99 1461.55 L1909.99 1458.35 Q1912.15 1456.11 1915.87 1452.35 Q1919.62 1448.57 1920.58 1447.48 Q1922.4 1445.43 1923.12 1444.02 Q1923.85 1442.59 1923.85 1441.22 Q1923.85 1438.98 1922.27 1437.57 Q1920.71 1436.16 1918.19 1436.16 Q1916.4 1436.16 1914.41 1436.78 Q1912.43 1437.4 1910.18 1438.66 L1910.18 1434.82 Q1912.47 1433.9 1914.46 1433.43 Q1916.46 1432.96 1918.11 1432.96 Q1922.48 1432.96 1925.07 1435.14 Q1927.67 1437.32 1927.67 1440.97 Q1927.67 1442.7 1927.01 1444.26 Q1926.37 1445.8 1924.66 1447.91 Q1924.19 1448.46 1921.67 1451.07 Q1919.15 1453.67 1914.56 1458.35 Z" fill="#000000" fill-rule="evenodd" fill-opacity="1" /><path clip-path="url(#clip190)" d="M1935.79 1456.77 L1939.76 1456.77 L1939.76 1461.55 L1935.79 1461.55 L1935.79 1456.77 Z" fill="#000000" fill-rule="evenodd" fill-opacity="1" /><path clip-path="url(#clip190)" d="M1956.16 1448.21 Q1953.45 1448.21 1951.89 1449.66 Q1950.35 1451.11 1950.35 1453.65 Q1950.35 1456.19 1951.89 1457.63 Q1953.45 1459.08 1956.16 1459.08 Q1958.87 1459.08 1960.43 1457.63 Q1961.99 1456.17 1961.99 1453.65 Q1961.99 1451.11 1960.43 1449.66 Q1958.89 1448.21 1956.16 1448.21 M1952.36 1446.59 Q1949.92 1445.99 1948.54 1444.32 Q1947.19 1442.64 1947.19 1440.24 Q1947.19 1436.87 1949.58 1434.91 Q1951.99 1432.96 1956.16 1432.96 Q1960.35 1432.96 1962.74 1434.91 Q1965.13 1436.87 1965.13 1440.24 Q1965.13 1442.64 1963.76 1444.32 Q1962.4 1445.99 1959.98 1446.59 Q1962.72 1447.23 1964.25 1449.1 Q1965.79 1450.96 1965.79 1453.65 Q1965.79 1457.73 1963.29 1459.91 Q1960.81 1462.09 1956.16 1462.09 Q1951.52 1462.09 1949.01 1459.91 Q1946.53 1457.73 1946.53 1453.65 Q1946.53 1450.96 1948.07 1449.1 Q1949.62 1447.23 1952.36 1446.59 M1950.97 1440.59 Q1950.97 1442.78 1952.32 1444 Q1953.7 1445.22 1956.16 1445.22 Q1958.61 1445.22 1959.98 1444 Q1961.37 1442.78 1961.37 1440.59 Q1961.37 1438.41 1959.98 1437.19 Q1958.61 1435.97 1956.16 1435.97 Q1953.7 1435.97 1952.32 1437.19 Q1950.97 1438.41 1950.97 1440.59 Z" fill="#000000" fill-rule="evenodd" fill-opacity="1" /><path clip-path="url(#clip190)" d="M1184.32 1538.54 L1190.53 1538.54 L1201.67 1568.46 L1212.81 1538.54 L1219.02 1538.54 L1205.65 1574.19 L1197.69 1574.19 L1184.32 1538.54 Z" fill="#000000" fill-rule="evenodd" fill-opacity="1" /><path clip-path="url(#clip190)" d="M1254.19 1585.01 L1254.19 1589.56 L1220.32 1589.56 L1220.32 1585.01 L1254.19 1585.01 Z" fill="#000000" fill-rule="evenodd" fill-opacity="1" /><path clip-path="url(#clip190)" d="M1285.35 1539.91 L1285.35 1545.38 Q1282.86 1544.01 1280.35 1543.34 Q1277.87 1542.64 1275.32 1542.64 Q1269.62 1542.64 1266.47 1546.27 Q1263.32 1549.87 1263.32 1556.39 Q1263.32 1562.92 1266.47 1566.55 Q1269.62 1570.14 1275.32 1570.14 Q1277.87 1570.14 1280.35 1569.47 Q1282.86 1568.77 1285.35 1567.41 L1285.35 1572.82 Q1282.9 1573.96 1280.25 1574.54 Q1277.64 1575.11 1274.68 1575.11 Q1266.63 1575.11 1261.89 1570.05 Q1257.15 1564.99 1257.15 1556.39 Q1257.15 1547.67 1261.92 1542.68 Q1266.73 1537.68 1275.07 1537.68 Q1277.77 1537.68 1280.35 1538.25 Q1282.93 1538.79 1285.35 1539.91 Z" fill="#000000" fill-rule="evenodd" fill-opacity="1" /><path clip-path="url(#clip190)" d="M1295.53 1524.66 L1301.39 1524.66 L1301.39 1574.19 L1295.53 1574.19 L1295.53 1524.66 Z" fill="#000000" fill-rule="evenodd" fill-opacity="1" /><path clip-path="url(#clip190)" d="M1327.46 1542.64 Q1322.74 1542.64 1320.01 1546.34 Q1317.27 1550 1317.27 1556.39 Q1317.27 1562.79 1319.98 1566.48 Q1322.71 1570.14 1327.46 1570.14 Q1332.13 1570.14 1334.87 1566.45 Q1337.61 1562.76 1337.61 1556.39 Q1337.61 1550.06 1334.87 1546.37 Q1332.13 1542.64 1327.46 1542.64 M1327.46 1537.68 Q1335.09 1537.68 1339.45 1542.64 Q1343.82 1547.61 1343.82 1556.39 Q1343.82 1565.15 1339.45 1570.14 Q1335.09 1575.11 1327.46 1575.11 Q1319.78 1575.11 1315.42 1570.14 Q1311.1 1565.15 1311.1 1556.39 Q1311.1 1547.61 1315.42 1542.64 Q1319.78 1537.68 1327.46 1537.68 Z" fill="#000000" fill-rule="evenodd" fill-opacity="1" /><path clip-path="url(#clip190)" d="M1376.25 1539.59 L1376.25 1545.13 Q1373.77 1543.85 1371.09 1543.22 Q1368.42 1542.58 1365.55 1542.58 Q1361.19 1542.58 1359 1543.92 Q1356.83 1545.25 1356.83 1547.93 Q1356.83 1549.96 1358.39 1551.14 Q1359.95 1552.29 1364.66 1553.34 L1366.67 1553.78 Q1372.91 1555.12 1375.52 1557.57 Q1378.16 1559.99 1378.16 1564.35 Q1378.16 1569.32 1374.21 1572.21 Q1370.3 1575.11 1363.42 1575.11 Q1360.56 1575.11 1357.44 1574.54 Q1354.35 1573.99 1350.91 1572.88 L1350.91 1566.83 Q1354.16 1568.52 1357.31 1569.38 Q1360.46 1570.21 1363.55 1570.21 Q1367.69 1570.21 1369.91 1568.81 Q1372.14 1567.37 1372.14 1564.8 Q1372.14 1562.41 1370.52 1561.14 Q1368.93 1559.86 1363.49 1558.68 L1361.45 1558.21 Q1356.01 1557.06 1353.59 1554.71 Q1351.17 1552.32 1351.17 1548.18 Q1351.17 1543.15 1354.73 1540.42 Q1358.3 1537.68 1364.85 1537.68 Q1368.1 1537.68 1370.96 1538.16 Q1373.83 1538.63 1376.25 1539.59 Z" fill="#000000" fill-rule="evenodd" fill-opacity="1" /><path clip-path="url(#clip190)" d="M1417.98 1554.9 L1417.98 1557.76 L1391.05 1557.76 Q1391.43 1563.81 1394.68 1566.99 Q1397.96 1570.14 1403.78 1570.14 Q1407.15 1570.14 1410.3 1569.32 Q1413.49 1568.49 1416.61 1566.83 L1416.61 1572.37 Q1413.46 1573.71 1410.15 1574.41 Q1406.84 1575.11 1403.43 1575.11 Q1394.9 1575.11 1389.9 1570.14 Q1384.94 1565.18 1384.94 1556.71 Q1384.94 1547.96 1389.65 1542.83 Q1394.39 1537.68 1402.41 1537.68 Q1409.6 1537.68 1413.77 1542.33 Q1417.98 1546.94 1417.98 1554.9 M1412.12 1553.18 Q1412.06 1548.37 1409.41 1545.51 Q1406.8 1542.64 1402.48 1542.64 Q1397.57 1542.64 1394.61 1545.41 Q1391.69 1548.18 1391.24 1553.21 L1412.12 1553.18 Z" fill="#000000" fill-rule="evenodd" fill-opacity="1" /><polyline clip-path="url(#clip192)" style="stroke:#000000; stroke-linecap:butt; stroke-linejoin:round; stroke-width:2; stroke-opacity:0.1; fill:none" points="
  249.542,1322.96 2352.76,1322.96 
  "/>
<polyline clip-path="url(#clip192)" style="stroke:#000000; stroke-linecap:butt; stroke-linejoin:round; stroke-width:2; stroke-opacity:0.1; fill:none" points="
  249.542,1065.85 2352.76,1065.85 
  "/>
<polyline clip-path="url(#clip192)" style="stroke:#000000; stroke-linecap:butt; stroke-linejoin:round; stroke-width:2; stroke-opacity:0.1; fill:none" points="
  249.542,808.744 2352.76,808.744 
  "/>
<polyline clip-path="url(#clip192)" style="stroke:#000000; stroke-linecap:butt; stroke-linejoin:round; stroke-width:2; stroke-opacity:0.1; fill:none" points="
  249.542,551.636 2352.76,551.636 
  "/>
<polyline clip-path="url(#clip192)" style="stroke:#000000; stroke-linecap:butt; stroke-linejoin:round; stroke-width:2; stroke-opacity:0.1; fill:none" points="
  249.542,294.527 2352.76,294.527 
  "/>
<polyline clip-path="url(#clip190)" style="stroke:#000000; stroke-linecap:butt; stroke-linejoin:round; stroke-width:4; stroke-opacity:1; fill:none" points="
  249.542,1410.9 249.542,47.2441 
  "/>
<polyline clip-path="url(#clip190)" style="stroke:#000000; stroke-linecap:butt; stroke-linejoin:round; stroke-width:4; stroke-opacity:1; fill:none" points="
  249.542,1322.96 268.44,1322.96 
  "/>
<polyline clip-path="url(#clip190)" style="stroke:#000000; stroke-linecap:butt; stroke-linejoin:round; stroke-width:4; stroke-opacity:1; fill:none" points="
  249.542,1065.85 268.44,1065.85 
  "/>
<polyline clip-path="url(#clip190)" style="stroke:#000000; stroke-linecap:butt; stroke-linejoin:round; stroke-width:4; stroke-opacity:1; fill:none" points="
  249.542,808.744 268.44,808.744 
  "/>
<polyline clip-path="url(#clip190)" style="stroke:#000000; stroke-linecap:butt; stroke-linejoin:round; stroke-width:4; stroke-opacity:1; fill:none" points="
  249.542,551.636 268.44,551.636 
  "/>
<polyline clip-path="url(#clip190)" style="stroke:#000000; stroke-linecap:butt; stroke-linejoin:round; stroke-width:4; stroke-opacity:1; fill:none" points="
  249.542,294.527 268.44,294.527 
  "/>
<path clip-path="url(#clip190)" d="M130.464 1321.61 Q133.82 1322.33 135.695 1324.59 Q137.593 1326.86 137.593 1330.2 Q137.593 1335.31 134.075 1338.11 Q130.556 1340.91 124.075 1340.91 Q121.899 1340.91 119.584 1340.47 Q117.293 1340.06 114.839 1339.2 L114.839 1334.69 Q116.783 1335.82 119.098 1336.4 Q121.413 1336.98 123.936 1336.98 Q128.334 1336.98 130.626 1335.24 Q132.941 1333.51 132.941 1330.2 Q132.941 1327.14 130.788 1325.43 Q128.658 1323.69 124.839 1323.69 L120.811 1323.69 L120.811 1319.85 L125.024 1319.85 Q128.473 1319.85 130.302 1318.48 Q132.13 1317.09 132.13 1314.5 Q132.13 1311.84 130.232 1310.43 Q128.357 1308.99 124.839 1308.99 Q122.918 1308.99 120.718 1309.41 Q118.519 1309.83 115.881 1310.7 L115.881 1306.54 Q118.543 1305.8 120.857 1305.43 Q123.195 1305.06 125.255 1305.06 Q130.58 1305.06 133.681 1307.49 Q136.783 1309.89 136.783 1314.02 Q136.783 1316.89 135.14 1318.88 Q133.496 1320.84 130.464 1321.61 Z" fill="#000000" fill-rule="evenodd" fill-opacity="1" /><path clip-path="url(#clip190)" d="M146.459 1334.36 L151.343 1334.36 L151.343 1340.24 L146.459 1340.24 L146.459 1334.36 Z" fill="#000000" fill-rule="evenodd" fill-opacity="1" /><path clip-path="url(#clip190)" d="M161.575 1305.68 L179.931 1305.68 L179.931 1309.62 L165.857 1309.62 L165.857 1318.09 Q166.876 1317.74 167.894 1317.58 Q168.913 1317.39 169.931 1317.39 Q175.718 1317.39 179.098 1320.57 Q182.477 1323.74 182.477 1329.15 Q182.477 1334.73 179.005 1337.83 Q175.533 1340.91 169.214 1340.91 Q167.038 1340.91 164.769 1340.54 Q162.524 1340.17 160.116 1339.43 L160.116 1334.73 Q162.2 1335.87 164.422 1336.42 Q166.644 1336.98 169.121 1336.98 Q173.126 1336.98 175.464 1334.87 Q177.801 1332.76 177.801 1329.15 Q177.801 1325.54 175.464 1323.44 Q173.126 1321.33 169.121 1321.33 Q167.246 1321.33 165.371 1321.75 Q163.519 1322.16 161.575 1323.04 L161.575 1305.68 Z" fill="#000000" fill-rule="evenodd" fill-opacity="1" /><path clip-path="url(#clip190)" d="M201.69 1323.83 Q198.357 1323.83 196.436 1325.61 Q194.538 1327.39 194.538 1330.52 Q194.538 1333.64 196.436 1335.43 Q198.357 1337.21 201.69 1337.21 Q205.024 1337.21 206.945 1335.43 Q208.866 1333.62 208.866 1330.52 Q208.866 1327.39 206.945 1325.61 Q205.047 1323.83 201.69 1323.83 M197.014 1321.84 Q194.005 1321.1 192.315 1319.04 Q190.649 1316.98 190.649 1314.02 Q190.649 1309.87 193.588 1307.46 Q196.551 1305.06 201.69 1305.06 Q206.852 1305.06 209.792 1307.46 Q212.732 1309.87 212.732 1314.02 Q212.732 1316.98 211.042 1319.04 Q209.375 1321.1 206.389 1321.84 Q209.769 1322.63 211.644 1324.92 Q213.542 1327.21 213.542 1330.52 Q213.542 1335.54 210.463 1338.23 Q207.408 1340.91 201.69 1340.91 Q195.973 1340.91 192.894 1338.23 Q189.838 1335.54 189.838 1330.52 Q189.838 1327.21 191.737 1324.92 Q193.635 1322.63 197.014 1321.84 M195.301 1314.45 Q195.301 1317.14 196.968 1318.64 Q198.658 1320.15 201.69 1320.15 Q204.699 1320.15 206.389 1318.64 Q208.102 1317.14 208.102 1314.45 Q208.102 1311.77 206.389 1310.27 Q204.699 1308.76 201.69 1308.76 Q198.658 1308.76 196.968 1310.27 Q195.301 1311.77 195.301 1314.45 Z" fill="#000000" fill-rule="evenodd" fill-opacity="1" /><path clip-path="url(#clip190)" d="M130.371 1064.5 Q133.728 1065.22 135.603 1067.49 Q137.501 1069.75 137.501 1073.09 Q137.501 1078.2 133.982 1081 Q130.464 1083.8 123.982 1083.8 Q121.806 1083.8 119.492 1083.36 Q117.2 1082.95 114.746 1082.09 L114.746 1077.58 Q116.691 1078.71 119.006 1079.29 Q121.32 1079.87 123.843 1079.87 Q128.242 1079.87 130.533 1078.13 Q132.848 1076.4 132.848 1073.09 Q132.848 1070.03 130.695 1068.32 Q128.566 1066.58 124.746 1066.58 L120.718 1066.58 L120.718 1062.74 L124.931 1062.74 Q128.38 1062.74 130.209 1061.37 Q132.038 1059.99 132.038 1057.39 Q132.038 1054.73 130.14 1053.32 Q128.265 1051.88 124.746 1051.88 Q122.825 1051.88 120.626 1052.3 Q118.427 1052.72 115.788 1053.6 L115.788 1049.43 Q118.45 1048.69 120.765 1048.32 Q123.103 1047.95 125.163 1047.95 Q130.487 1047.95 133.589 1050.38 Q136.691 1052.79 136.691 1056.91 Q136.691 1059.78 135.047 1061.77 Q133.404 1063.74 130.371 1064.5 Z" fill="#000000" fill-rule="evenodd" fill-opacity="1" /><path clip-path="url(#clip190)" d="M146.366 1077.25 L151.251 1077.25 L151.251 1083.13 L146.366 1083.13 L146.366 1077.25 Z" fill="#000000" fill-rule="evenodd" fill-opacity="1" /><path clip-path="url(#clip190)" d="M172.014 1063.99 Q168.866 1063.99 167.015 1066.14 Q165.186 1068.3 165.186 1072.05 Q165.186 1075.77 167.015 1077.95 Q168.866 1080.1 172.014 1080.1 Q175.163 1080.1 176.991 1077.95 Q178.843 1075.77 178.843 1072.05 Q178.843 1068.3 176.991 1066.14 Q175.163 1063.99 172.014 1063.99 M181.297 1049.34 L181.297 1053.6 Q179.538 1052.76 177.732 1052.32 Q175.95 1051.88 174.19 1051.88 Q169.561 1051.88 167.107 1055.01 Q164.677 1058.13 164.329 1064.45 Q165.695 1062.44 167.755 1061.37 Q169.815 1060.29 172.292 1060.29 Q177.501 1060.29 180.51 1063.46 Q183.542 1066.61 183.542 1072.05 Q183.542 1077.37 180.394 1080.59 Q177.246 1083.8 172.014 1083.8 Q166.019 1083.8 162.848 1079.22 Q159.677 1074.61 159.677 1065.89 Q159.677 1057.69 163.565 1052.83 Q167.454 1047.95 174.005 1047.95 Q175.764 1047.95 177.547 1048.3 Q179.352 1048.64 181.297 1049.34 Z" fill="#000000" fill-rule="evenodd" fill-opacity="1" /><path clip-path="url(#clip190)" d="M201.598 1051.65 Q197.987 1051.65 196.158 1055.22 Q194.352 1058.76 194.352 1065.89 Q194.352 1072.99 196.158 1076.56 Q197.987 1080.1 201.598 1080.1 Q205.232 1080.1 207.037 1076.56 Q208.866 1072.99 208.866 1065.89 Q208.866 1058.76 207.037 1055.22 Q205.232 1051.65 201.598 1051.65 M201.598 1047.95 Q207.408 1047.95 210.463 1052.55 Q213.542 1057.14 213.542 1065.89 Q213.542 1074.61 210.463 1079.22 Q207.408 1083.8 201.598 1083.8 Q195.787 1083.8 192.709 1079.22 Q189.653 1074.61 189.653 1065.89 Q189.653 1057.14 192.709 1052.55 Q195.787 1047.95 201.598 1047.95 Z" fill="#000000" fill-rule="evenodd" fill-opacity="1" /><path clip-path="url(#clip190)" d="M131.968 807.39 Q135.325 808.108 137.2 810.376 Q139.098 812.645 139.098 815.978 Q139.098 821.094 135.579 823.895 Q132.061 826.696 125.58 826.696 Q123.404 826.696 121.089 826.256 Q118.797 825.839 116.343 824.983 L116.343 820.469 Q118.288 821.603 120.603 822.182 Q122.918 822.761 125.441 822.761 Q129.839 822.761 132.13 821.024 Q134.445 819.288 134.445 815.978 Q134.445 812.923 132.292 811.21 Q130.163 809.474 126.343 809.474 L122.316 809.474 L122.316 805.631 L126.529 805.631 Q129.978 805.631 131.806 804.265 Q133.635 802.876 133.635 800.284 Q133.635 797.622 131.737 796.21 Q129.862 794.775 126.343 794.775 Q124.422 794.775 122.223 795.191 Q120.024 795.608 117.385 796.488 L117.385 792.321 Q120.047 791.58 122.362 791.21 Q124.7 790.839 126.76 790.839 Q132.084 790.839 135.186 793.27 Q138.288 795.677 138.288 799.798 Q138.288 802.668 136.644 804.659 Q135.001 806.626 131.968 807.39 Z" fill="#000000" fill-rule="evenodd" fill-opacity="1" /><path clip-path="url(#clip190)" d="M147.964 820.145 L152.848 820.145 L152.848 826.024 L147.964 826.024 L147.964 820.145 Z" fill="#000000" fill-rule="evenodd" fill-opacity="1" /><path clip-path="url(#clip190)" d="M173.612 806.881 Q170.464 806.881 168.612 809.034 Q166.783 811.187 166.783 814.937 Q166.783 818.663 168.612 820.839 Q170.464 822.992 173.612 822.992 Q176.76 822.992 178.589 820.839 Q180.44 818.663 180.44 814.937 Q180.44 811.187 178.589 809.034 Q176.76 806.881 173.612 806.881 M182.894 792.228 L182.894 796.488 Q181.135 795.654 179.329 795.214 Q177.547 794.775 175.788 794.775 Q171.158 794.775 168.704 797.9 Q166.274 801.025 165.927 807.344 Q167.292 805.33 169.352 804.265 Q171.413 803.177 173.889 803.177 Q179.098 803.177 182.107 806.349 Q185.139 809.497 185.139 814.937 Q185.139 820.261 181.991 823.478 Q178.843 826.696 173.612 826.696 Q167.616 826.696 164.445 822.112 Q161.274 817.506 161.274 808.779 Q161.274 800.585 165.163 795.724 Q169.052 790.839 175.602 790.839 Q177.362 790.839 179.144 791.187 Q180.95 791.534 182.894 792.228 Z" fill="#000000" fill-rule="evenodd" fill-opacity="1" /><path clip-path="url(#clip190)" d="M197.223 822.089 L213.542 822.089 L213.542 826.024 L191.598 826.024 L191.598 822.089 Q194.26 819.335 198.843 814.705 Q203.449 810.052 204.63 808.71 Q206.875 806.187 207.755 804.45 Q208.658 802.691 208.658 801.001 Q208.658 798.247 206.713 796.511 Q204.792 794.775 201.69 794.775 Q199.491 794.775 197.037 795.538 Q194.607 796.302 191.829 797.853 L191.829 793.131 Q194.653 791.997 197.107 791.418 Q199.561 790.839 201.598 790.839 Q206.968 790.839 210.162 793.525 Q213.357 796.21 213.357 800.7 Q213.357 802.83 212.547 804.751 Q211.76 806.65 209.653 809.242 Q209.074 809.913 205.973 813.131 Q202.871 816.325 197.223 822.089 Z" fill="#000000" fill-rule="evenodd" fill-opacity="1" /><path clip-path="url(#clip190)" d="M129.885 550.282 Q133.242 550.999 135.117 553.268 Q137.015 555.536 137.015 558.87 Q137.015 563.985 133.496 566.786 Q129.978 569.587 123.496 569.587 Q121.32 569.587 119.006 569.147 Q116.714 568.731 114.26 567.874 L114.26 563.36 Q116.205 564.494 118.519 565.073 Q120.834 565.652 123.357 565.652 Q127.755 565.652 130.047 563.916 Q132.362 562.18 132.362 558.87 Q132.362 555.814 130.209 554.101 Q128.08 552.365 124.26 552.365 L120.232 552.365 L120.232 548.522 L124.445 548.522 Q127.894 548.522 129.723 547.157 Q131.552 545.768 131.552 543.175 Q131.552 540.513 129.654 539.101 Q127.779 537.666 124.26 537.666 Q122.339 537.666 120.14 538.083 Q117.941 538.499 115.302 539.379 L115.302 535.212 Q117.964 534.472 120.279 534.101 Q122.617 533.731 124.677 533.731 Q130.001 533.731 133.103 536.161 Q136.204 538.569 136.204 542.689 Q136.204 545.559 134.561 547.55 Q132.917 549.518 129.885 550.282 Z" fill="#000000" fill-rule="evenodd" fill-opacity="1" /><path clip-path="url(#clip190)" d="M145.88 563.036 L150.765 563.036 L150.765 568.916 L145.88 568.916 L145.88 563.036 Z" fill="#000000" fill-rule="evenodd" fill-opacity="1" /><path clip-path="url(#clip190)" d="M171.528 549.772 Q168.38 549.772 166.528 551.925 Q164.7 554.078 164.7 557.828 Q164.7 561.555 166.528 563.731 Q168.38 565.883 171.528 565.883 Q174.677 565.883 176.505 563.731 Q178.357 561.555 178.357 557.828 Q178.357 554.078 176.505 551.925 Q174.677 549.772 171.528 549.772 M180.811 535.12 L180.811 539.379 Q179.051 538.546 177.246 538.106 Q175.464 537.666 173.704 537.666 Q169.075 537.666 166.621 540.791 Q164.19 543.916 163.843 550.235 Q165.209 548.221 167.269 547.157 Q169.329 546.069 171.806 546.069 Q177.014 546.069 180.024 549.24 Q183.056 552.388 183.056 557.828 Q183.056 563.152 179.908 566.369 Q176.76 569.587 171.528 569.587 Q165.533 569.587 162.362 565.004 Q159.19 560.397 159.19 551.67 Q159.19 543.476 163.079 538.615 Q166.968 533.731 173.519 533.731 Q175.278 533.731 177.061 534.078 Q178.866 534.425 180.811 535.12 Z" fill="#000000" fill-rule="evenodd" fill-opacity="1" /><path clip-path="url(#clip190)" d="M203.959 538.43 L192.153 556.879 L203.959 556.879 L203.959 538.43 M202.732 534.356 L208.612 534.356 L208.612 556.879 L213.542 556.879 L213.542 560.768 L208.612 560.768 L208.612 568.916 L203.959 568.916 L203.959 560.768 L188.357 560.768 L188.357 556.254 L202.732 534.356 Z" fill="#000000" fill-rule="evenodd" fill-opacity="1" /><path clip-path="url(#clip190)" d="M130.209 293.173 Q133.566 293.891 135.441 296.159 Q137.339 298.428 137.339 301.761 Q137.339 306.877 133.82 309.677 Q130.302 312.478 123.82 312.478 Q121.644 312.478 119.33 312.039 Q117.038 311.622 114.584 310.765 L114.584 306.252 Q116.529 307.386 118.843 307.965 Q121.158 308.543 123.681 308.543 Q128.08 308.543 130.371 306.807 Q132.686 305.071 132.686 301.761 Q132.686 298.705 130.533 296.992 Q128.404 295.256 124.584 295.256 L120.556 295.256 L120.556 291.414 L124.769 291.414 Q128.218 291.414 130.047 290.048 Q131.876 288.659 131.876 286.066 Q131.876 283.404 129.978 281.992 Q128.103 280.557 124.584 280.557 Q122.663 280.557 120.464 280.974 Q118.265 281.391 115.626 282.27 L115.626 278.104 Q118.288 277.363 120.603 276.992 Q122.941 276.622 125.001 276.622 Q130.325 276.622 133.427 279.053 Q136.529 281.46 136.529 285.58 Q136.529 288.451 134.885 290.441 Q133.242 292.409 130.209 293.173 Z" fill="#000000" fill-rule="evenodd" fill-opacity="1" /><path clip-path="url(#clip190)" d="M146.204 305.928 L151.089 305.928 L151.089 311.807 L146.204 311.807 L146.204 305.928 Z" fill="#000000" fill-rule="evenodd" fill-opacity="1" /><path clip-path="url(#clip190)" d="M171.852 292.664 Q168.704 292.664 166.852 294.816 Q165.024 296.969 165.024 300.719 Q165.024 304.446 166.852 306.622 Q168.704 308.775 171.852 308.775 Q175.001 308.775 176.829 306.622 Q178.681 304.446 178.681 300.719 Q178.681 296.969 176.829 294.816 Q175.001 292.664 171.852 292.664 M181.135 278.011 L181.135 282.27 Q179.376 281.437 177.57 280.997 Q175.788 280.557 174.028 280.557 Q169.399 280.557 166.945 283.682 Q164.515 286.807 164.167 293.127 Q165.533 291.113 167.593 290.048 Q169.653 288.96 172.13 288.96 Q177.339 288.96 180.348 292.131 Q183.38 295.279 183.38 300.719 Q183.38 306.043 180.232 309.261 Q177.084 312.478 171.852 312.478 Q165.857 312.478 162.686 307.895 Q159.515 303.289 159.515 294.562 Q159.515 286.367 163.403 281.506 Q167.292 276.622 173.843 276.622 Q175.602 276.622 177.385 276.969 Q179.19 277.317 181.135 278.011 Z" fill="#000000" fill-rule="evenodd" fill-opacity="1" /><path clip-path="url(#clip190)" d="M202.014 292.664 Q198.866 292.664 197.014 294.816 Q195.186 296.969 195.186 300.719 Q195.186 304.446 197.014 306.622 Q198.866 308.775 202.014 308.775 Q205.162 308.775 206.991 306.622 Q208.843 304.446 208.843 300.719 Q208.843 296.969 206.991 294.816 Q205.162 292.664 202.014 292.664 M211.297 278.011 L211.297 282.27 Q209.537 281.437 207.732 280.997 Q205.949 280.557 204.19 280.557 Q199.561 280.557 197.107 283.682 Q194.676 286.807 194.329 293.127 Q195.695 291.113 197.755 290.048 Q199.815 288.96 202.292 288.96 Q207.5 288.96 210.51 292.131 Q213.542 295.279 213.542 300.719 Q213.542 306.043 210.394 309.261 Q207.246 312.478 202.014 312.478 Q196.019 312.478 192.848 307.895 Q189.676 303.289 189.676 294.562 Q189.676 286.367 193.565 281.506 Q197.454 276.622 204.005 276.622 Q205.764 276.622 207.547 276.969 Q209.352 277.317 211.297 278.011 Z" fill="#000000" fill-rule="evenodd" fill-opacity="1" /><path clip-path="url(#clip190)" d="M35.1993 829.203 Q31.2526 827.007 29.3747 823.951 Q27.4968 820.896 27.4968 816.758 Q27.4968 811.188 31.4117 808.164 Q35.2948 805.141 42.4881 805.141 L64.0042 805.141 L64.0042 811.029 L42.679 811.029 Q37.5546 811.029 35.072 812.843 Q32.5894 814.657 32.5894 818.381 Q32.5894 822.933 35.6131 825.574 Q38.6368 828.216 43.8567 828.216 L64.0042 828.216 L64.0042 834.105 L42.679 834.105 Q37.5228 834.105 35.072 835.919 Q32.5894 837.733 32.5894 841.521 Q32.5894 846.008 35.6449 848.65 Q38.6686 851.292 43.8567 851.292 L64.0042 851.292 L64.0042 857.18 L28.3562 857.18 L28.3562 851.292 L33.8944 851.292 Q30.616 849.287 29.0564 846.486 Q27.4968 843.685 27.4968 839.834 Q27.4968 835.951 29.4702 833.245 Q31.4436 830.508 35.1993 829.203 Z" fill="#000000" fill-rule="evenodd" fill-opacity="1" /><path clip-path="url(#clip190)" d="M28.3562 793.459 L28.3562 787.603 L64.0042 787.603 L64.0042 793.459 L28.3562 793.459 M14.479 793.459 L14.479 787.603 L21.895 787.603 L21.895 793.459 L14.479 793.459 Z" fill="#000000" fill-rule="evenodd" fill-opacity="1" /><path clip-path="url(#clip190)" d="M42.4881 745.717 L64.0042 745.717 L64.0042 751.573 L42.679 751.573 Q37.6183 751.573 35.1038 753.547 Q32.5894 755.52 32.5894 759.467 Q32.5894 764.209 35.6131 766.946 Q38.6368 769.684 43.8567 769.684 L64.0042 769.684 L64.0042 775.572 L28.3562 775.572 L28.3562 769.684 L33.8944 769.684 Q30.6797 767.583 29.0883 764.75 Q27.4968 761.886 27.4968 758.162 Q27.4968 752.019 31.3163 748.868 Q35.1038 745.717 42.4881 745.717 Z" fill="#000000" fill-rule="evenodd" fill-opacity="1" /><path clip-path="url(#clip190)" d="M74.8259 706.95 L79.3773 706.95 L79.3773 740.815 L74.8259 740.815 L74.8259 706.95 Z" fill="#000000" fill-rule="evenodd" fill-opacity="1" /><path clip-path="url(#clip190)" d="M33.7671 677.986 L14.479 677.986 L14.479 672.129 L64.0042 672.129 L64.0042 677.986 L58.657 677.986 Q61.8398 679.832 63.3994 682.664 Q64.9272 685.465 64.9272 689.412 Q64.9272 695.873 59.771 699.947 Q54.6147 703.989 46.212 703.989 Q37.8093 703.989 32.6531 699.947 Q27.4968 695.873 27.4968 689.412 Q27.4968 685.465 29.0564 682.664 Q30.5842 679.832 33.7671 677.986 M46.212 697.942 Q52.6732 697.942 56.3653 695.3 Q60.0256 692.627 60.0256 687.98 Q60.0256 683.333 56.3653 680.659 Q52.6732 677.986 46.212 677.986 Q39.7508 677.986 36.0905 680.659 Q32.3984 683.333 32.3984 687.98 Q32.3984 692.627 36.0905 695.3 Q39.7508 697.942 46.212 697.942 Z" fill="#000000" fill-rule="evenodd" fill-opacity="1" /><path clip-path="url(#clip190)" d="M28.3562 660.066 L28.3562 654.21 L64.0042 654.21 L64.0042 660.066 L28.3562 660.066 M14.479 660.066 L14.479 654.21 L21.895 654.21 L21.895 660.066 L14.479 660.066 Z" fill="#000000" fill-rule="evenodd" fill-opacity="1" /><path clip-path="url(#clip190)" d="M14.479 623.909 L19.3487 623.909 L19.3487 629.511 Q19.3487 632.662 20.6219 633.903 Q21.895 635.113 25.2052 635.113 L28.3562 635.113 L28.3562 625.468 L32.9077 625.468 L32.9077 635.113 L64.0042 635.113 L64.0042 641.001 L32.9077 641.001 L32.9077 646.603 L28.3562 646.603 L28.3562 641.001 L25.8736 641.001 Q19.9216 641.001 17.2162 638.232 Q14.479 635.463 14.479 629.447 L14.479 623.909 Z" fill="#000000" fill-rule="evenodd" fill-opacity="1" /><path clip-path="url(#clip190)" d="M14.479 600.961 L19.3487 600.961 L19.3487 606.562 Q19.3487 609.713 20.6219 610.955 Q21.895 612.164 25.2052 612.164 L28.3562 612.164 L28.3562 602.52 L32.9077 602.52 L32.9077 612.164 L64.0042 612.164 L64.0042 618.052 L32.9077 618.052 L32.9077 623.654 L28.3562 623.654 L28.3562 618.052 L25.8736 618.052 Q19.9216 618.052 17.2162 615.283 Q14.479 612.514 14.479 606.499 L14.479 600.961 Z" fill="#000000" fill-rule="evenodd" fill-opacity="1" /><polyline clip-path="url(#clip192)" style="stroke:#009af9; stroke-linecap:butt; stroke-linejoin:round; stroke-width:20; stroke-opacity:1; fill:none" stroke-dasharray="80, 50" points="
  309.067,85.838 1301.15,704.929 2293.23,1372.3 
  "/>
<path clip-path="url(#clip190)" d="
M1996.53 196.379 L2282.65 196.379 L2282.65 92.6992 L1996.53 92.6992  Z
  " fill="#ffffff" fill-rule="evenodd" fill-opacity="1"/>
<polyline clip-path="url(#clip190)" style="stroke:#000000; stroke-linecap:butt; stroke-linejoin:round; stroke-width:4; stroke-opacity:1; fill:none" points="
  1996.53,196.379 2282.65,196.379 2282.65,92.6992 1996.53,92.6992 1996.53,196.379 
  "/>
<polyline clip-path="url(#clip190)" style="stroke:#009af9; stroke-linecap:butt; stroke-linejoin:round; stroke-width:4; stroke-opacity:1; fill:none" stroke-dasharray="16, 10" points="
  2019.9,144.539 2160.11,144.539 
  "/>
<path clip-path="url(#clip190)" d="M2197.32 164.227 Q2195.52 168.856 2193.8 170.268 Q2192.09 171.68 2189.22 171.68 L2185.82 171.68 L2185.82 168.115 L2188.32 168.115 Q2190.08 168.115 2191.05 167.282 Q2192.02 166.449 2193.2 163.347 L2193.97 161.403 L2183.48 135.893 L2187.99 135.893 L2196.1 156.171 L2204.2 135.893 L2208.71 135.893 L2197.32 164.227 Z" fill="#000000" fill-rule="evenodd" fill-opacity="1" /><path clip-path="url(#clip190)" d="M2216 157.884 L2223.64 157.884 L2223.64 131.518 L2215.33 133.185 L2215.33 128.926 L2223.6 127.259 L2228.27 127.259 L2228.27 157.884 L2235.91 157.884 L2235.91 161.819 L2216 161.819 L2216 157.884 Z" fill="#000000" fill-rule="evenodd" fill-opacity="1" /></svg>
