<?xml version="1.0" encoding="utf-8"?>
<svg xmlns="http://www.w3.org/2000/svg" xmlns:xlink="http://www.w3.org/1999/xlink" width="600" height="400" viewBox="0 0 2400 1600">
<defs>
  <clipPath id="clip680">
    <rect x="0" y="0" width="2400" height="1600"/>
  </clipPath>
</defs>
<path clip-path="url(#clip680)" d="
M0 1600 L2400 1600 L2400 0 L0 0  Z
  " fill="#ffffff" fill-rule="evenodd" fill-opacity="1"/>
<defs>
  <clipPath id="clip681">
    <rect x="480" y="0" width="1681" height="1600"/>
  </clipPath>
</defs>
<path clip-path="url(#clip680)" d="
M211.579 1410.9 L2352.76 1410.9 L2352.76 47.2441 L211.579 47.2441  Z
  " fill="#ffffff" fill-rule="evenodd" fill-opacity="1"/>
<defs>
  <clipPath id="clip682">
    <rect x="211" y="47" width="2142" height="1365"/>
  </clipPath>
</defs>
<polyline clip-path="url(#clip682)" style="stroke:#000000; stroke-width:2; stroke-opacity:0.1; fill:none" points="
  272.179,1410.9 272.179,47.2441 
  "/>
<polyline clip-path="url(#clip682)" style="stroke:#000000; stroke-width:2; stroke-opacity:0.1; fill:none" points="
  945.407,1410.9 945.407,47.2441 
  "/>
<polyline clip-path="url(#clip682)" style="stroke:#000000; stroke-width:2; stroke-opacity:0.1; fill:none" points="
  1618.64,1410.9 1618.64,47.2441 
  "/>
<polyline clip-path="url(#clip682)" style="stroke:#000000; stroke-width:2; stroke-opacity:0.1; fill:none" points="
  2291.86,1410.9 2291.86,47.2441 
  "/>
<polyline clip-path="url(#clip680)" style="stroke:#000000; stroke-width:4; stroke-opacity:1; fill:none" points="
  211.579,1410.9 2352.76,1410.9 
  "/>
<polyline clip-path="url(#clip680)" style="stroke:#000000; stroke-width:4; stroke-opacity:1; fill:none" points="
  272.179,1410.9 272.179,1394.53 
  "/>
<polyline clip-path="url(#clip680)" style="stroke:#000000; stroke-width:4; stroke-opacity:1; fill:none" points="
  945.407,1410.9 945.407,1394.53 
  "/>
<polyline clip-path="url(#clip680)" style="stroke:#000000; stroke-width:4; stroke-opacity:1; fill:none" points="
  1618.64,1410.9 1618.64,1394.53 
  "/>
<polyline clip-path="url(#clip680)" style="stroke:#000000; stroke-width:4; stroke-opacity:1; fill:none" points="
  2291.86,1410.9 2291.86,1394.53 
  "/>
<path clip-path="url(#clip680)" d="M 0 0 M226.287 1489.17 L233.926 1489.17 L233.926 1462.8 L225.616 1464.47 L225.616 1460.21 L233.879 1458.54 L238.555 1458.54 L238.555 1489.17 L246.194 1489.17 L246.194 1493.1 L226.287 1493.1 L226.287 1489.17 Z" fill="#000000" fill-rule="evenodd" fill-opacity="1" /><path clip-path="url(#clip680)" d="M 0 0 M261.264 1461.62 Q257.653 1461.62 255.824 1465.19 Q254.018 1468.73 254.018 1475.86 Q254.018 1482.97 255.824 1486.53 Q257.653 1490.07 261.264 1490.07 Q264.898 1490.07 266.703 1486.53 Q268.532 1482.97 268.532 1475.86 Q268.532 1468.73 266.703 1465.19 Q264.898 1461.62 261.264 1461.62 M261.264 1457.92 Q267.074 1457.92 270.129 1462.53 Q273.208 1467.11 273.208 1475.86 Q273.208 1484.59 270.129 1489.19 Q267.074 1493.78 261.264 1493.78 Q255.453 1493.78 252.375 1489.19 Q249.319 1484.59 249.319 1475.86 Q249.319 1467.11 252.375 1462.53 Q255.453 1457.92 261.264 1457.92 Z" fill="#000000" fill-rule="evenodd" fill-opacity="1" /><path clip-path="url(#clip680)" d="M 0 0 M273.208 1452.02 L297.32 1452.02 L297.32 1455.22 L273.208 1455.22 L273.208 1452.02 Z" fill="#000000" fill-rule="evenodd" fill-opacity="1" /><path clip-path="url(#clip680)" d="M 0 0 M312.949 1450.55 Q315.676 1451.14 317.199 1452.98 Q318.742 1454.82 318.742 1457.53 Q318.742 1461.69 315.883 1463.96 Q313.024 1466.24 307.758 1466.24 Q305.99 1466.24 304.109 1465.88 Q302.247 1465.54 300.254 1464.85 L300.254 1461.18 Q301.833 1462.1 303.714 1462.57 Q305.595 1463.04 307.645 1463.04 Q311.218 1463.04 313.08 1461.63 Q314.961 1460.22 314.961 1457.53 Q314.961 1455.05 313.212 1453.66 Q311.482 1452.25 308.379 1452.25 L305.106 1452.25 L305.106 1449.12 L308.529 1449.12 Q311.331 1449.12 312.817 1448.01 Q314.303 1446.89 314.303 1444.78 Q314.303 1442.62 312.761 1441.47 Q311.237 1440.3 308.379 1440.3 Q306.817 1440.3 305.031 1440.64 Q303.244 1440.98 301.1 1441.69 L301.1 1438.31 Q303.263 1437.71 305.144 1437.41 Q307.043 1437.11 308.717 1437.11 Q313.043 1437.11 315.563 1439.08 Q318.083 1441.04 318.083 1444.38 Q318.083 1446.72 316.748 1448.33 Q315.413 1449.93 312.949 1450.55 Z" fill="#000000" fill-rule="evenodd" fill-opacity="1" /><path clip-path="url(#clip680)" d="M 0 0 M899.901 1489.17 L907.54 1489.17 L907.54 1462.8 L899.23 1464.47 L899.23 1460.21 L907.494 1458.54 L912.17 1458.54 L912.17 1489.17 L919.808 1489.17 L919.808 1493.1 L899.901 1493.1 L899.901 1489.17 Z" fill="#000000" fill-rule="evenodd" fill-opacity="1" /><path clip-path="url(#clip680)" d="M 0 0 M934.878 1461.62 Q931.267 1461.62 929.438 1465.19 Q927.632 1468.73 927.632 1475.86 Q927.632 1482.97 929.438 1486.53 Q931.267 1490.07 934.878 1490.07 Q938.512 1490.07 940.318 1486.53 Q942.146 1482.97 942.146 1475.86 Q942.146 1468.73 940.318 1465.19 Q938.512 1461.62 934.878 1461.62 M934.878 1457.92 Q940.688 1457.92 943.743 1462.53 Q946.822 1467.11 946.822 1475.86 Q946.822 1484.59 943.743 1489.19 Q940.688 1493.78 934.878 1493.78 Q929.068 1493.78 925.989 1489.19 Q922.933 1484.59 922.933 1475.86 Q922.933 1467.11 925.989 1462.53 Q929.068 1457.92 934.878 1457.92 Z" fill="#000000" fill-rule="evenodd" fill-opacity="1" /><path clip-path="url(#clip680)" d="M 0 0 M946.822 1452.02 L970.934 1452.02 L970.934 1455.22 L946.822 1455.22 L946.822 1452.02 Z" fill="#000000" fill-rule="evenodd" fill-opacity="1" /><path clip-path="url(#clip680)" d="M 0 0 M978.325 1462.5 L991.585 1462.5 L991.585 1465.69 L973.755 1465.69 L973.755 1462.5 Q975.918 1460.26 979.642 1456.5 Q983.384 1452.72 984.344 1451.63 Q986.168 1449.58 986.883 1448.16 Q987.616 1446.74 987.616 1445.36 Q987.616 1443.12 986.036 1441.71 Q984.475 1440.3 981.955 1440.3 Q980.168 1440.3 978.175 1440.92 Q976.2 1441.54 973.943 1442.8 L973.943 1438.97 Q976.237 1438.05 978.231 1437.58 Q980.225 1437.11 981.88 1437.11 Q986.243 1437.11 988.839 1439.29 Q991.434 1441.47 991.434 1445.12 Q991.434 1446.85 990.776 1448.41 Q990.136 1449.95 988.425 1452.06 Q987.955 1452.6 985.434 1455.22 Q982.914 1457.81 978.325 1462.5 Z" fill="#000000" fill-rule="evenodd" fill-opacity="1" /><path clip-path="url(#clip680)" d="M 0 0 M1572.98 1489.17 L1580.62 1489.17 L1580.62 1462.8 L1572.31 1464.47 L1572.31 1460.21 L1580.57 1458.54 L1585.25 1458.54 L1585.25 1489.17 L1592.89 1489.17 L1592.89 1493.1 L1572.98 1493.1 L1572.98 1489.17 Z" fill="#000000" fill-rule="evenodd" fill-opacity="1" /><path clip-path="url(#clip680)" d="M 0 0 M1607.96 1461.62 Q1604.34 1461.62 1602.52 1465.19 Q1600.71 1468.73 1600.71 1475.86 Q1600.71 1482.97 1602.52 1486.53 Q1604.34 1490.07 1607.96 1490.07 Q1611.59 1490.07 1613.4 1486.53 Q1615.22 1482.97 1615.22 1475.86 Q1615.22 1468.73 1613.4 1465.19 Q1611.59 1461.62 1607.96 1461.62 M1607.96 1457.92 Q1613.77 1457.92 1616.82 1462.53 Q1619.9 1467.11 1619.9 1475.86 Q1619.9 1484.59 1616.82 1489.19 Q1613.77 1493.78 1607.96 1493.78 Q1602.15 1493.78 1599.07 1489.19 Q1596.01 1484.59 1596.01 1475.86 Q1596.01 1467.11 1599.07 1462.53 Q1602.15 1457.92 1607.96 1457.92 Z" fill="#000000" fill-rule="evenodd" fill-opacity="1" /><path clip-path="url(#clip680)" d="M 0 0 M1619.9 1452.02 L1644.01 1452.02 L1644.01 1455.22 L1619.9 1455.22 L1619.9 1452.02 Z" fill="#000000" fill-rule="evenodd" fill-opacity="1" /><path clip-path="url(#clip680)" d="M 0 0 M1648.79 1462.5 L1655 1462.5 L1655 1441.07 L1648.24 1442.43 L1648.24 1438.97 L1654.96 1437.61 L1658.76 1437.61 L1658.76 1462.5 L1664.96 1462.5 L1664.96 1465.69 L1648.79 1465.69 L1648.79 1462.5 Z" fill="#000000" fill-rule="evenodd" fill-opacity="1" /><path clip-path="url(#clip680)" d="M 0 0 M2259.03 1489.17 L2266.67 1489.17 L2266.67 1462.8 L2258.36 1464.47 L2258.36 1460.21 L2266.63 1458.54 L2271.3 1458.54 L2271.3 1489.17 L2278.94 1489.17 L2278.94 1493.1 L2259.03 1493.1 L2259.03 1489.17 Z" fill="#000000" fill-rule="evenodd" fill-opacity="1" /><path clip-path="url(#clip680)" d="M 0 0 M2294.01 1461.62 Q2290.4 1461.62 2288.57 1465.19 Q2286.77 1468.73 2286.77 1475.86 Q2286.77 1482.97 2288.57 1486.53 Q2290.4 1490.07 2294.01 1490.07 Q2297.65 1490.07 2299.45 1486.53 Q2301.28 1482.97 2301.28 1475.86 Q2301.28 1468.73 2299.45 1465.19 Q2297.65 1461.62 2294.01 1461.62 M2294.01 1457.92 Q2299.82 1457.92 2302.88 1462.53 Q2305.96 1467.11 2305.96 1475.86 Q2305.96 1484.59 2302.88 1489.19 Q2299.82 1493.78 2294.01 1493.78 Q2288.2 1493.78 2285.12 1489.19 Q2282.07 1484.59 2282.07 1475.86 Q2282.07 1467.11 2285.12 1462.53 Q2288.2 1457.92 2294.01 1457.92 Z" fill="#000000" fill-rule="evenodd" fill-opacity="1" /><path clip-path="url(#clip680)" d="M 0 0 M2315.66 1440.11 Q2312.73 1440.11 2311.24 1443.01 Q2309.77 1445.89 2309.77 1451.68 Q2309.77 1457.46 2311.24 1460.35 Q2312.73 1463.23 2315.66 1463.23 Q2318.61 1463.23 2320.08 1460.35 Q2321.57 1457.46 2321.57 1451.68 Q2321.57 1445.89 2320.08 1443.01 Q2318.61 1440.11 2315.66 1440.11 M2315.66 1437.11 Q2320.38 1437.11 2322.86 1440.85 Q2325.37 1444.57 2325.37 1451.68 Q2325.37 1458.77 2322.86 1462.51 Q2320.38 1466.24 2315.66 1466.24 Q2310.94 1466.24 2308.44 1462.51 Q2305.96 1458.77 2305.96 1451.68 Q2305.96 1444.57 2308.44 1440.85 Q2310.94 1437.11 2315.66 1437.11 Z" fill="#000000" fill-rule="evenodd" fill-opacity="1" /><path clip-path="url(#clip680)" d="M 0 0 M1174.44 1526.54 L1180.65 1526.54 L1191.79 1556.46 L1202.93 1526.54 L1209.14 1526.54 L1195.77 1562.19 L1187.81 1562.19 L1174.44 1526.54 Z" fill="#000000" fill-rule="evenodd" fill-opacity="1" /><path clip-path="url(#clip680)" d="M 0 0 M1242.37 1573.01 L1242.37 1577.56 L1208.5 1577.56 L1208.5 1573.01 L1242.37 1573.01 Z" fill="#000000" fill-rule="evenodd" fill-opacity="1" /><path clip-path="url(#clip680)" d="M 0 0 M1274.16 1527.91 L1274.16 1533.38 Q1271.68 1532.01 1269.17 1531.34 Q1266.68 1530.64 1264.14 1530.64 Q1258.44 1530.64 1255.29 1534.27 Q1252.14 1537.87 1252.14 1544.39 Q1252.14 1550.92 1255.29 1554.55 Q1258.44 1558.14 1264.14 1558.14 Q1266.68 1558.14 1269.17 1557.47 Q1271.68 1556.77 1274.16 1555.41 L1274.16 1560.82 Q1271.71 1561.96 1269.07 1562.54 Q1266.46 1563.11 1263.5 1563.11 Q1255.45 1563.11 1250.71 1558.05 Q1245.96 1552.99 1245.96 1544.39 Q1245.96 1535.67 1250.74 1530.68 Q1255.54 1525.68 1263.88 1525.68 Q1266.59 1525.68 1269.17 1526.25 Q1271.74 1526.79 1274.16 1527.91 Z" fill="#000000" fill-rule="evenodd" fill-opacity="1" /><path clip-path="url(#clip680)" d="M 0 0 M1280.31 1512.66 L1286.16 1512.66 L1286.16 1562.19 L1280.31 1562.19 L1280.31 1512.66 Z" fill="#000000" fill-rule="evenodd" fill-opacity="1" /><path clip-path="url(#clip680)" d="M 0 0 M1306.12 1530.64 Q1301.41 1530.64 1298.67 1534.34 Q1295.93 1538 1295.93 1544.39 Q1295.93 1550.79 1298.64 1554.48 Q1301.38 1558.14 1306.12 1558.14 Q1310.8 1558.14 1313.53 1554.45 Q1316.27 1550.76 1316.27 1544.39 Q1316.27 1538.06 1313.53 1534.37 Q1310.8 1530.64 1306.12 1530.64 M1306.12 1525.68 Q1313.76 1525.68 1318.12 1530.64 Q1322.48 1535.61 1322.48 1544.39 Q1322.48 1553.15 1318.12 1558.14 Q1313.76 1563.11 1306.12 1563.11 Q1298.45 1563.11 1294.09 1558.14 Q1289.76 1553.15 1289.76 1544.39 Q1289.76 1535.61 1294.09 1530.64 Q1298.45 1525.68 1306.12 1525.68 Z" fill="#000000" fill-rule="evenodd" fill-opacity="1" /><path clip-path="url(#clip680)" d="M 0 0 M1351.35 1527.59 L1351.35 1533.13 Q1348.86 1531.85 1346.19 1531.22 Q1343.52 1530.58 1340.65 1530.58 Q1336.29 1530.58 1334.1 1531.92 Q1331.93 1533.25 1331.93 1535.93 Q1331.93 1537.96 1333.49 1539.14 Q1335.05 1540.29 1339.76 1541.34 L1341.77 1541.78 Q1348 1543.12 1350.61 1545.57 Q1353.26 1547.99 1353.26 1552.35 Q1353.26 1557.32 1349.31 1560.21 Q1345.39 1563.11 1338.52 1563.11 Q1335.66 1563.11 1332.54 1562.54 Q1329.45 1561.99 1326.01 1560.88 L1326.01 1554.83 Q1329.26 1556.52 1332.41 1557.38 Q1335.56 1558.21 1338.65 1558.21 Q1342.79 1558.21 1345.01 1556.81 Q1347.24 1555.37 1347.24 1552.8 Q1347.24 1550.41 1345.62 1549.14 Q1344.03 1547.86 1338.58 1546.68 L1336.55 1546.21 Q1331.1 1545.06 1328.68 1542.71 Q1326.27 1540.32 1326.27 1536.18 Q1326.27 1531.15 1329.83 1528.42 Q1333.4 1525.68 1339.95 1525.68 Q1343.2 1525.68 1346.06 1526.16 Q1348.93 1526.63 1351.35 1527.59 Z" fill="#000000" fill-rule="evenodd" fill-opacity="1" /><path clip-path="url(#clip680)" d="M 0 0 M1389.89 1542.9 L1389.89 1545.76 L1362.96 1545.76 Q1363.35 1551.81 1366.59 1554.99 Q1369.87 1558.14 1375.7 1558.14 Q1379.07 1558.14 1382.22 1557.32 Q1385.4 1556.49 1388.52 1554.83 L1388.52 1560.37 Q1385.37 1561.71 1382.06 1562.41 Q1378.75 1563.11 1375.35 1563.11 Q1366.82 1563.11 1361.82 1558.14 Q1356.85 1553.18 1356.85 1544.71 Q1356.85 1535.96 1361.56 1530.83 Q1366.31 1525.68 1374.33 1525.68 Q1381.52 1525.68 1385.69 1530.33 Q1389.89 1534.94 1389.89 1542.9 M1384.03 1541.18 Q1383.97 1536.37 1381.33 1533.51 Q1378.72 1530.64 1374.39 1530.64 Q1369.49 1530.64 1366.53 1533.41 Q1363.6 1536.18 1363.16 1541.21 L1384.03 1541.18 Z" fill="#000000" fill-rule="evenodd" fill-opacity="1" /><polyline clip-path="url(#clip682)" style="stroke:#000000; stroke-width:2; stroke-opacity:0.1; fill:none" points="
  211.579,1272.52 2352.76,1272.52 
  "/>
<polyline clip-path="url(#clip682)" style="stroke:#000000; stroke-width:2; stroke-opacity:0.1; fill:none" points="
  211.579,1015.23 2352.76,1015.23 
  "/>
<polyline clip-path="url(#clip682)" style="stroke:#000000; stroke-width:2; stroke-opacity:0.1; fill:none" points="
  211.579,757.936 2352.76,757.936 
  "/>
<polyline clip-path="url(#clip682)" style="stroke:#000000; stroke-width:2; stroke-opacity:0.1; fill:none" points="
  211.579,500.643 2352.76,500.643 
  "/>
<polyline clip-path="url(#clip682)" style="stroke:#000000; stroke-width:2; stroke-opacity:0.1; fill:none" points="
  211.579,243.35 2352.76,243.35 
  "/>
<polyline clip-path="url(#clip680)" style="stroke:#000000; stroke-width:4; stroke-opacity:1; fill:none" points="
  211.579,1410.9 211.579,47.2441 
  "/>
<polyline clip-path="url(#clip680)" style="stroke:#000000; stroke-width:4; stroke-opacity:1; fill:none" points="
  211.579,1272.52 237.273,1272.52 
  "/>
<polyline clip-path="url(#clip680)" style="stroke:#000000; stroke-width:4; stroke-opacity:1; fill:none" points="
  211.579,1015.23 237.273,1015.23 
  "/>
<polyline clip-path="url(#clip680)" style="stroke:#000000; stroke-width:4; stroke-opacity:1; fill:none" points="
  211.579,757.936 237.273,757.936 
  "/>
<polyline clip-path="url(#clip680)" style="stroke:#000000; stroke-width:4; stroke-opacity:1; fill:none" points="
  211.579,500.643 237.273,500.643 
  "/>
<polyline clip-path="url(#clip680)" style="stroke:#000000; stroke-width:4; stroke-opacity:1; fill:none" points="
  211.579,243.35 237.273,243.35 
  "/>
<path clip-path="url(#clip680)" d="M 0 0 M128.681 1270.66 Q125.533 1270.66 123.681 1272.81 Q121.853 1274.96 121.853 1278.71 Q121.853 1282.44 123.681 1284.62 Q125.533 1286.77 128.681 1286.77 Q131.83 1286.77 133.658 1284.62 Q135.51 1282.44 135.51 1278.71 Q135.51 1274.96 133.658 1272.81 Q131.83 1270.66 128.681 1270.66 M137.964 1256.01 L137.964 1260.26 Q136.204 1259.43 134.399 1258.99 Q132.617 1258.55 130.857 1258.55 Q126.228 1258.55 123.774 1261.68 Q121.343 1264.8 120.996 1271.12 Q122.362 1269.11 124.422 1268.04 Q126.482 1266.95 128.959 1266.95 Q134.167 1266.95 137.177 1270.13 Q140.209 1273.27 140.209 1278.71 Q140.209 1284.04 137.061 1287.26 Q133.913 1290.47 128.681 1290.47 Q122.686 1290.47 119.515 1285.89 Q116.343 1281.28 116.343 1272.56 Q116.343 1264.36 120.232 1259.5 Q124.121 1254.62 130.672 1254.62 Q132.431 1254.62 134.214 1254.96 Q136.019 1255.31 137.964 1256.01 Z" fill="#000000" fill-rule="evenodd" fill-opacity="1" /><path clip-path="url(#clip680)" d="M 0 0 M145.279 1283.92 L150.163 1283.92 L150.163 1289.8 L145.279 1289.8 L145.279 1283.92 Z" fill="#000000" fill-rule="evenodd" fill-opacity="1" /><path clip-path="url(#clip680)" d="M 0 0 M159.26 1285.87 L175.579 1285.87 L175.579 1289.8 L153.635 1289.8 L153.635 1285.87 Q156.297 1283.11 160.88 1278.48 Q165.487 1273.83 166.667 1272.49 Q168.913 1269.96 169.792 1268.23 Q170.695 1266.47 170.695 1264.78 Q170.695 1262.02 168.751 1260.29 Q166.829 1258.55 163.727 1258.55 Q161.528 1258.55 159.075 1259.32 Q156.644 1260.08 153.866 1261.63 L153.866 1256.91 Q156.69 1255.77 159.144 1255.2 Q161.598 1254.62 163.635 1254.62 Q169.005 1254.62 172.2 1257.3 Q175.394 1259.99 175.394 1264.48 Q175.394 1266.61 174.584 1268.53 Q173.797 1270.43 171.69 1273.02 Q171.112 1273.69 168.01 1276.91 Q164.908 1280.1 159.26 1285.87 Z" fill="#000000" fill-rule="evenodd" fill-opacity="1" /><path clip-path="url(#clip680)" d="M 0 0 M126.598 1013.37 Q123.45 1013.37 121.598 1015.52 Q119.769 1017.67 119.769 1021.42 Q119.769 1025.15 121.598 1027.32 Q123.45 1029.48 126.598 1029.48 Q129.746 1029.48 131.575 1027.32 Q133.427 1025.15 133.427 1021.42 Q133.427 1017.67 131.575 1015.52 Q129.746 1013.37 126.598 1013.37 M135.88 998.713 L135.88 1002.97 Q134.121 1002.14 132.316 1001.7 Q130.533 1001.26 128.774 1001.26 Q124.144 1001.26 121.691 1004.38 Q119.26 1007.51 118.913 1013.83 Q120.279 1011.81 122.339 1010.75 Q124.399 1009.66 126.876 1009.66 Q132.084 1009.66 135.093 1012.83 Q138.126 1015.98 138.126 1021.42 Q138.126 1026.75 134.978 1029.96 Q131.83 1033.18 126.598 1033.18 Q120.603 1033.18 117.431 1028.6 Q114.26 1023.99 114.26 1015.26 Q114.26 1007.07 118.149 1002.21 Q122.038 997.324 128.589 997.324 Q130.348 997.324 132.13 997.671 Q133.936 998.018 135.88 998.713 Z" fill="#000000" fill-rule="evenodd" fill-opacity="1" /><path clip-path="url(#clip680)" d="M 0 0 M143.195 1026.63 L148.079 1026.63 L148.079 1032.51 L143.195 1032.51 L143.195 1026.63 Z" fill="#000000" fill-rule="evenodd" fill-opacity="1" /><path clip-path="url(#clip680)" d="M 0 0 M165.996 1002.02 L154.19 1020.47 L165.996 1020.47 L165.996 1002.02 M164.769 997.949 L170.649 997.949 L170.649 1020.47 L175.579 1020.47 L175.579 1024.36 L170.649 1024.36 L170.649 1032.51 L165.996 1032.51 L165.996 1024.36 L150.394 1024.36 L150.394 1019.85 L164.769 997.949 Z" fill="#000000" fill-rule="evenodd" fill-opacity="1" /><path clip-path="url(#clip680)" d="M 0 0 M126.922 756.073 Q123.774 756.073 121.922 758.225 Q120.093 760.378 120.093 764.128 Q120.093 767.855 121.922 770.031 Q123.774 772.184 126.922 772.184 Q130.07 772.184 131.899 770.031 Q133.751 767.855 133.751 764.128 Q133.751 760.378 131.899 758.225 Q130.07 756.073 126.922 756.073 M136.204 741.42 L136.204 745.679 Q134.445 744.846 132.64 744.406 Q130.857 743.966 129.098 743.966 Q124.468 743.966 122.015 747.091 Q119.584 750.216 119.237 756.536 Q120.603 754.522 122.663 753.457 Q124.723 752.369 127.2 752.369 Q132.408 752.369 135.417 755.54 Q138.45 758.688 138.45 764.128 Q138.45 769.452 135.302 772.67 Q132.154 775.887 126.922 775.887 Q120.927 775.887 117.756 771.304 Q114.584 766.698 114.584 757.971 Q114.584 749.776 118.473 744.915 Q122.362 740.031 128.913 740.031 Q130.672 740.031 132.455 740.378 Q134.26 740.725 136.204 741.42 Z" fill="#000000" fill-rule="evenodd" fill-opacity="1" /><path clip-path="url(#clip680)" d="M 0 0 M143.519 769.336 L148.403 769.336 L148.403 775.216 L143.519 775.216 L143.519 769.336 Z" fill="#000000" fill-rule="evenodd" fill-opacity="1" /><path clip-path="url(#clip680)" d="M 0 0 M164.052 756.073 Q160.903 756.073 159.052 758.225 Q157.223 760.378 157.223 764.128 Q157.223 767.855 159.052 770.031 Q160.903 772.184 164.052 772.184 Q167.2 772.184 169.028 770.031 Q170.88 767.855 170.88 764.128 Q170.88 760.378 169.028 758.225 Q167.2 756.073 164.052 756.073 M173.334 741.42 L173.334 745.679 Q171.575 744.846 169.769 744.406 Q167.987 743.966 166.227 743.966 Q161.598 743.966 159.144 747.091 Q156.714 750.216 156.366 756.536 Q157.732 754.522 159.792 753.457 Q161.852 752.369 164.329 752.369 Q169.538 752.369 172.547 755.54 Q175.579 758.688 175.579 764.128 Q175.579 769.452 172.431 772.67 Q169.283 775.887 164.052 775.887 Q158.056 775.887 154.885 771.304 Q151.714 766.698 151.714 757.971 Q151.714 749.776 155.603 744.915 Q159.491 740.031 166.042 740.031 Q167.802 740.031 169.584 740.378 Q171.389 740.725 173.334 741.42 Z" fill="#000000" fill-rule="evenodd" fill-opacity="1" /><path clip-path="url(#clip680)" d="M 0 0 M127.177 498.78 Q124.029 498.78 122.177 500.932 Q120.348 503.085 120.348 506.835 Q120.348 510.562 122.177 512.738 Q124.029 514.891 127.177 514.891 Q130.325 514.891 132.154 512.738 Q134.005 510.562 134.005 506.835 Q134.005 503.085 132.154 500.932 Q130.325 498.78 127.177 498.78 M136.459 484.127 L136.459 488.386 Q134.7 487.553 132.894 487.113 Q131.112 486.673 129.353 486.673 Q124.723 486.673 122.269 489.798 Q119.839 492.923 119.492 499.243 Q120.857 497.229 122.918 496.164 Q124.978 495.076 127.455 495.076 Q132.663 495.076 135.672 498.247 Q138.704 501.395 138.704 506.835 Q138.704 512.159 135.556 515.377 Q132.408 518.594 127.177 518.594 Q121.181 518.594 118.01 514.011 Q114.839 509.405 114.839 500.678 Q114.839 492.483 118.728 487.622 Q122.617 482.738 129.167 482.738 Q130.927 482.738 132.709 483.085 Q134.515 483.433 136.459 484.127 Z" fill="#000000" fill-rule="evenodd" fill-opacity="1" /><path clip-path="url(#clip680)" d="M 0 0 M143.774 512.043 L148.658 512.043 L148.658 517.923 L143.774 517.923 L143.774 512.043 Z" fill="#000000" fill-rule="evenodd" fill-opacity="1" /><path clip-path="url(#clip680)" d="M 0 0 M163.727 501.511 Q160.394 501.511 158.473 503.294 Q156.575 505.076 156.575 508.201 Q156.575 511.326 158.473 513.108 Q160.394 514.891 163.727 514.891 Q167.061 514.891 168.982 513.108 Q170.903 511.303 170.903 508.201 Q170.903 505.076 168.982 503.294 Q167.084 501.511 163.727 501.511 M159.052 499.52 Q156.042 498.78 154.353 496.719 Q152.686 494.659 152.686 491.696 Q152.686 487.553 155.626 485.145 Q158.589 482.738 163.727 482.738 Q168.889 482.738 171.829 485.145 Q174.769 487.553 174.769 491.696 Q174.769 494.659 173.079 496.719 Q171.413 498.78 168.427 499.52 Q171.806 500.307 173.681 502.599 Q175.579 504.891 175.579 508.201 Q175.579 513.224 172.501 515.909 Q169.445 518.594 163.727 518.594 Q158.01 518.594 154.931 515.909 Q151.876 513.224 151.876 508.201 Q151.876 504.891 153.774 502.599 Q155.672 500.307 159.052 499.52 M157.339 492.136 Q157.339 494.821 159.005 496.326 Q160.695 497.831 163.727 497.831 Q166.737 497.831 168.427 496.326 Q170.139 494.821 170.139 492.136 Q170.139 489.451 168.427 487.946 Q166.737 486.442 163.727 486.442 Q160.695 486.442 159.005 487.946 Q157.339 489.451 157.339 492.136 Z" fill="#000000" fill-rule="evenodd" fill-opacity="1" /><path clip-path="url(#clip680)" d="M 0 0 M116.39 226.07 L138.612 226.07 L138.612 228.061 L126.066 260.63 L121.181 260.63 L132.987 230.005 L116.39 230.005 L116.39 226.07 Z" fill="#000000" fill-rule="evenodd" fill-opacity="1" /><path clip-path="url(#clip680)" d="M 0 0 M143.681 254.751 L148.566 254.751 L148.566 260.63 L143.681 260.63 L143.681 254.751 Z" fill="#000000" fill-rule="evenodd" fill-opacity="1" /><path clip-path="url(#clip680)" d="M 0 0 M163.635 229.149 Q160.024 229.149 158.195 232.714 Q156.39 236.255 156.39 243.385 Q156.39 250.491 158.195 254.056 Q160.024 257.598 163.635 257.598 Q167.269 257.598 169.075 254.056 Q170.903 250.491 170.903 243.385 Q170.903 236.255 169.075 232.714 Q167.269 229.149 163.635 229.149 M163.635 225.445 Q169.445 225.445 172.501 230.052 Q175.579 234.635 175.579 243.385 Q175.579 252.112 172.501 256.718 Q169.445 261.301 163.635 261.301 Q157.825 261.301 154.746 256.718 Q151.691 252.112 151.691 243.385 Q151.691 234.635 154.746 230.052 Q157.825 225.445 163.635 225.445 Z" fill="#000000" fill-rule="evenodd" fill-opacity="1" /><path clip-path="url(#clip680)" d="M 0 0 M59.1993 815.533 Q55.2526 813.336 53.3747 810.281 Q51.4968 807.225 51.4968 803.088 Q51.4968 797.518 55.4117 794.494 Q59.2948 791.47 66.4881 791.47 L88.0042 791.47 L88.0042 797.358 L66.679 797.358 Q61.5546 797.358 59.072 799.173 Q56.5894 800.987 56.5894 804.711 Q56.5894 809.262 59.6131 811.904 Q62.6368 814.546 67.8567 814.546 L88.0042 814.546 L88.0042 820.434 L66.679 820.434 Q61.5228 820.434 59.072 822.248 Q56.5894 824.063 56.5894 827.85 Q56.5894 832.338 59.6449 834.98 Q62.6686 837.622 67.8567 837.622 L88.0042 837.622 L88.0042 843.51 L52.3562 843.51 L52.3562 837.622 L57.8944 837.622 Q54.616 835.616 53.0564 832.815 Q51.4968 830.015 51.4968 826.163 Q51.4968 822.28 53.4702 819.575 Q55.4436 816.838 59.1993 815.533 Z" fill="#000000" fill-rule="evenodd" fill-opacity="1" /><path clip-path="url(#clip680)" d="M 0 0 M52.3562 785.327 L52.3562 779.471 L88.0042 779.471 L88.0042 785.327 L52.3562 785.327 M38.479 785.327 L38.479 779.471 L45.895 779.471 L45.895 785.327 L38.479 785.327 Z" fill="#000000" fill-rule="evenodd" fill-opacity="1" /><path clip-path="url(#clip680)" d="M 0 0 M66.4881 743.696 L88.0042 743.696 L88.0042 749.552 L66.679 749.552 Q61.6183 749.552 59.1038 751.525 Q56.5894 753.499 56.5894 757.446 Q56.5894 762.188 59.6131 764.925 Q62.6368 767.662 67.8567 767.662 L88.0042 767.662 L88.0042 773.551 L52.3562 773.551 L52.3562 767.662 L57.8944 767.662 Q54.6797 765.562 53.0883 762.729 Q51.4968 759.864 51.4968 756.141 Q51.4968 749.998 55.3163 746.847 Q59.1038 743.696 66.4881 743.696 Z" fill="#000000" fill-rule="evenodd" fill-opacity="1" /><path clip-path="url(#clip680)" d="M 0 0 M98.8259 710.467 L103.377 710.467 L103.377 744.332 L98.8259 744.332 L98.8259 710.467 Z" fill="#000000" fill-rule="evenodd" fill-opacity="1" /><path clip-path="url(#clip680)" d="M 0 0 M57.7671 680.866 L38.479 680.866 L38.479 675.01 L88.0042 675.01 L88.0042 680.866 L82.657 680.866 Q85.8398 682.712 87.3994 685.545 Q88.9272 688.346 88.9272 692.292 Q88.9272 698.754 83.771 702.828 Q78.6147 706.87 70.212 706.87 Q61.8093 706.87 56.6531 702.828 Q51.4968 698.754 51.4968 692.292 Q51.4968 688.346 53.0564 685.545 Q54.5842 682.712 57.7671 680.866 M70.212 700.823 Q76.6732 700.823 80.3653 698.181 Q84.0256 695.507 84.0256 690.86 Q84.0256 686.213 80.3653 683.54 Q76.6732 680.866 70.212 680.866 Q63.7508 680.866 60.0905 683.54 Q56.3984 686.213 56.3984 690.86 Q56.3984 695.507 60.0905 698.181 Q63.7508 700.823 70.212 700.823 Z" fill="#000000" fill-rule="evenodd" fill-opacity="1" /><path clip-path="url(#clip680)" d="M 0 0 M52.3562 668.867 L52.3562 663.01 L88.0042 663.01 L88.0042 668.867 L52.3562 668.867 M38.479 668.867 L38.479 663.01 L45.895 663.01 L45.895 668.867 L38.479 668.867 Z" fill="#000000" fill-rule="evenodd" fill-opacity="1" /><path clip-path="url(#clip680)" d="M 0 0 M38.479 638.821 L43.3487 638.821 L43.3487 644.422 Q43.3487 647.573 44.6219 648.815 Q45.895 650.024 49.2052 650.024 L52.3562 650.024 L52.3562 640.38 L56.9077 640.38 L56.9077 650.024 L88.0042 650.024 L88.0042 655.912 L56.9077 655.912 L56.9077 661.514 L52.3562 661.514 L52.3562 655.912 L49.8736 655.912 Q43.9216 655.912 41.2162 653.143 Q38.479 650.374 38.479 644.359 L38.479 638.821 Z" fill="#000000" fill-rule="evenodd" fill-opacity="1" /><path clip-path="url(#clip680)" d="M 0 0 M38.479 614.631 L43.3487 614.631 L43.3487 620.233 Q43.3487 623.384 44.6219 624.625 Q45.895 625.835 49.2052 625.835 L52.3562 625.835 L52.3562 616.19 L56.9077 616.19 L56.9077 625.835 L88.0042 625.835 L88.0042 631.723 L56.9077 631.723 L56.9077 637.325 L52.3562 637.325 L52.3562 631.723 L49.8736 631.723 Q43.9216 631.723 41.2162 628.954 Q38.479 626.185 38.479 620.169 L38.479 614.631 Z" fill="#000000" fill-rule="evenodd" fill-opacity="1" /><path clip-path="url(#clip680)" d="
M1992.46 213.659 L2281.38 213.659 L2281.38 92.6992 L1992.46 92.6992  Z
  " fill="#ffffff" fill-rule="evenodd" fill-opacity="1"/>
<polyline clip-path="url(#clip680)" style="stroke:#000000; stroke-width:4; stroke-opacity:1; fill:none" points="
  1992.46,213.659 2281.38,213.659 2281.38,92.6992 1992.46,92.6992 1992.46,213.659 
  "/>
<polyline clip-path="url(#clip680)" style="stroke:#009af9; stroke-width:4; stroke-opacity:1; fill:none" stroke-dasharray="16, 10" points="
  2016.25,153.179 2158.99,153.179 
  "/>
<path clip-path="url(#clip680)" d="M 0 0 M2196.63 172.867 Q2194.82 177.496 2193.11 178.908 Q2191.39 180.32 2188.52 180.32 L2185.12 180.32 L2185.12 176.755 L2187.62 176.755 Q2189.38 176.755 2190.35 175.922 Q2191.33 175.089 2192.51 171.987 L2193.27 170.043 L2182.78 144.533 L2187.3 144.533 L2195.4 164.811 L2203.5 144.533 L2208.01 144.533 L2196.63 172.867 Z" fill="#000000" fill-rule="evenodd" fill-opacity="1" /><path clip-path="url(#clip680)" d="M 0 0 M2213.89 166.524 L2221.53 166.524 L2221.53 140.158 L2213.22 141.825 L2213.22 137.566 L2221.49 135.899 L2226.16 135.899 L2226.16 166.524 L2233.8 166.524 L2233.8 170.459 L2213.89 170.459 L2213.89 166.524 Z" fill="#000000" fill-rule="evenodd" fill-opacity="1" /></svg>
