<?xml version="1.0" encoding="utf-8"?>
<svg xmlns="http://www.w3.org/2000/svg" xmlns:xlink="http://www.w3.org/1999/xlink" width="600" height="400" viewBox="0 0 2400 1600">
<defs>
  <clipPath id="clip860">
    <rect x="0" y="0" width="2400" height="1600"/>
  </clipPath>
</defs>
<path clip-path="url(#clip860)" d="
M0 1600 L2400 1600 L2400 0 L0 0  Z
  " fill="#ffffff" fill-rule="evenodd" fill-opacity="1"/>
<defs>
  <clipPath id="clip861">
    <rect x="480" y="0" width="1681" height="1600"/>
  </clipPath>
</defs>
<path clip-path="url(#clip860)" d="
M202.459 1410.9 L2352.76 1410.9 L2352.76 47.2441 L202.459 47.2441  Z
  " fill="#ffffff" fill-rule="evenodd" fill-opacity="1"/>
<defs>
  <clipPath id="clip862">
    <rect x="202" y="47" width="2151" height="1365"/>
  </clipPath>
</defs>
<polyline clip-path="url(#clip862)" style="stroke:#000000; stroke-width:2; stroke-opacity:0.1; fill:none" points="
  263.316,1410.9 263.316,47.2441 
  "/>
<polyline clip-path="url(#clip862)" style="stroke:#000000; stroke-width:2; stroke-opacity:0.1; fill:none" points="
  669.033,1410.9 669.033,47.2441 
  "/>
<polyline clip-path="url(#clip862)" style="stroke:#000000; stroke-width:2; stroke-opacity:0.1; fill:none" points="
  1074.75,1410.9 1074.75,47.2441 
  "/>
<polyline clip-path="url(#clip862)" style="stroke:#000000; stroke-width:2; stroke-opacity:0.1; fill:none" points="
  1480.47,1410.9 1480.47,47.2441 
  "/>
<polyline clip-path="url(#clip862)" style="stroke:#000000; stroke-width:2; stroke-opacity:0.1; fill:none" points="
  1886.18,1410.9 1886.18,47.2441 
  "/>
<polyline clip-path="url(#clip862)" style="stroke:#000000; stroke-width:2; stroke-opacity:0.1; fill:none" points="
  2291.9,1410.9 2291.9,47.2441 
  "/>
<polyline clip-path="url(#clip860)" style="stroke:#000000; stroke-width:4; stroke-opacity:1; fill:none" points="
  202.459,1410.9 2352.76,1410.9 
  "/>
<polyline clip-path="url(#clip860)" style="stroke:#000000; stroke-width:4; stroke-opacity:1; fill:none" points="
  263.316,1410.9 263.316,1394.53 
  "/>
<polyline clip-path="url(#clip860)" style="stroke:#000000; stroke-width:4; stroke-opacity:1; fill:none" points="
  669.033,1410.9 669.033,1394.53 
  "/>
<polyline clip-path="url(#clip860)" style="stroke:#000000; stroke-width:4; stroke-opacity:1; fill:none" points="
  1074.75,1410.9 1074.75,1394.53 
  "/>
<polyline clip-path="url(#clip860)" style="stroke:#000000; stroke-width:4; stroke-opacity:1; fill:none" points="
  1480.47,1410.9 1480.47,1394.53 
  "/>
<polyline clip-path="url(#clip860)" style="stroke:#000000; stroke-width:4; stroke-opacity:1; fill:none" points="
  1886.18,1410.9 1886.18,1394.53 
  "/>
<polyline clip-path="url(#clip860)" style="stroke:#000000; stroke-width:4; stroke-opacity:1; fill:none" points="
  2291.9,1410.9 2291.9,1394.53 
  "/>
<path clip-path="url(#clip860)" d="M 0 0 M202.548 1489.17 L210.187 1489.17 L210.187 1462.8 L201.876 1464.47 L201.876 1460.21 L210.14 1458.54 L214.816 1458.54 L214.816 1489.17 L222.455 1489.17 L222.455 1493.1 L202.548 1493.1 L202.548 1489.17 Z" fill="#000000" fill-rule="evenodd" fill-opacity="1" /><path clip-path="url(#clip860)" d="M 0 0 M237.524 1461.62 Q233.913 1461.62 232.085 1465.19 Q230.279 1468.73 230.279 1475.86 Q230.279 1482.97 232.085 1486.53 Q233.913 1490.07 237.524 1490.07 Q241.159 1490.07 242.964 1486.53 Q244.793 1482.97 244.793 1475.86 Q244.793 1468.73 242.964 1465.19 Q241.159 1461.62 237.524 1461.62 M237.524 1457.92 Q243.335 1457.92 246.39 1462.53 Q249.469 1467.11 249.469 1475.86 Q249.469 1484.59 246.39 1489.19 Q243.335 1493.78 237.524 1493.78 Q231.714 1493.78 228.636 1489.19 Q225.58 1484.59 225.58 1475.86 Q225.58 1467.11 228.636 1462.53 Q231.714 1457.92 237.524 1457.92 Z" fill="#000000" fill-rule="evenodd" fill-opacity="1" /><path clip-path="url(#clip860)" d="M 0 0 M249.469 1452.02 L273.58 1452.02 L273.58 1455.22 L249.469 1455.22 L249.469 1452.02 Z" fill="#000000" fill-rule="evenodd" fill-opacity="1" /><path clip-path="url(#clip860)" d="M 0 0 M277.737 1437.61 L292.651 1437.61 L292.651 1440.81 L281.216 1440.81 L281.216 1447.69 Q282.044 1447.41 282.871 1447.28 Q283.699 1447.13 284.527 1447.13 Q289.228 1447.13 291.974 1449.71 Q294.72 1452.28 294.72 1456.68 Q294.72 1461.22 291.899 1463.74 Q289.078 1466.24 283.943 1466.24 Q282.176 1466.24 280.332 1465.94 Q278.508 1465.64 276.552 1465.04 L276.552 1461.22 Q278.245 1462.14 280.05 1462.59 Q281.856 1463.04 283.868 1463.04 Q287.122 1463.04 289.022 1461.33 Q290.921 1459.62 290.921 1456.68 Q290.921 1453.75 289.022 1452.04 Q287.122 1450.33 283.868 1450.33 Q282.345 1450.33 280.821 1450.67 Q279.317 1451 277.737 1451.72 L277.737 1437.61 Z" fill="#000000" fill-rule="evenodd" fill-opacity="1" /><path clip-path="url(#clip860)" d="M 0 0 M298.839 1460.92 L302.808 1460.92 L302.808 1465.69 L298.839 1465.69 L298.839 1460.92 Z" fill="#000000" fill-rule="evenodd" fill-opacity="1" /><path clip-path="url(#clip860)" d="M 0 0 M315.052 1440.11 Q312.118 1440.11 310.632 1443.01 Q309.165 1445.89 309.165 1451.68 Q309.165 1457.46 310.632 1460.35 Q312.118 1463.23 315.052 1463.23 Q318.004 1463.23 319.471 1460.35 Q320.957 1457.46 320.957 1451.68 Q320.957 1445.89 319.471 1443.01 Q318.004 1440.11 315.052 1440.11 M315.052 1437.11 Q319.772 1437.11 322.255 1440.85 Q324.756 1444.57 324.756 1451.68 Q324.756 1458.77 322.255 1462.51 Q319.772 1466.24 315.052 1466.24 Q310.331 1466.24 307.829 1462.51 Q305.347 1458.77 305.347 1451.68 Q305.347 1444.57 307.829 1440.85 Q310.331 1437.11 315.052 1437.11 Z" fill="#000000" fill-rule="evenodd" fill-opacity="1" /><path clip-path="url(#clip860)" d="M 0 0 M607.738 1489.17 L615.376 1489.17 L615.376 1462.8 L607.066 1464.47 L607.066 1460.21 L615.33 1458.54 L620.006 1458.54 L620.006 1489.17 L627.645 1489.17 L627.645 1493.1 L607.738 1493.1 L607.738 1489.17 Z" fill="#000000" fill-rule="evenodd" fill-opacity="1" /><path clip-path="url(#clip860)" d="M 0 0 M642.714 1461.62 Q639.103 1461.62 637.274 1465.19 Q635.469 1468.73 635.469 1475.86 Q635.469 1482.97 637.274 1486.53 Q639.103 1490.07 642.714 1490.07 Q646.348 1490.07 648.154 1486.53 Q649.983 1482.97 649.983 1475.86 Q649.983 1468.73 648.154 1465.19 Q646.348 1461.62 642.714 1461.62 M642.714 1457.92 Q648.524 1457.92 651.58 1462.53 Q654.659 1467.11 654.659 1475.86 Q654.659 1484.59 651.58 1489.19 Q648.524 1493.78 642.714 1493.78 Q636.904 1493.78 633.825 1489.19 Q630.77 1484.59 630.77 1475.86 Q630.77 1467.11 633.825 1462.53 Q636.904 1457.92 642.714 1457.92 Z" fill="#000000" fill-rule="evenodd" fill-opacity="1" /><path clip-path="url(#clip860)" d="M 0 0 M654.659 1452.02 L678.77 1452.02 L678.77 1455.22 L654.659 1455.22 L654.659 1452.02 Z" fill="#000000" fill-rule="evenodd" fill-opacity="1" /><path clip-path="url(#clip860)" d="M 0 0 M693.327 1440.92 L683.735 1455.91 L693.327 1455.91 L693.327 1440.92 M692.331 1437.61 L697.108 1437.61 L697.108 1455.91 L701.114 1455.91 L701.114 1459.07 L697.108 1459.07 L697.108 1465.69 L693.327 1465.69 L693.327 1459.07 L680.651 1459.07 L680.651 1455.41 L692.331 1437.61 Z" fill="#000000" fill-rule="evenodd" fill-opacity="1" /><path clip-path="url(#clip860)" d="M 0 0 M705.233 1460.92 L709.201 1460.92 L709.201 1465.69 L705.233 1465.69 L705.233 1460.92 Z" fill="#000000" fill-rule="evenodd" fill-opacity="1" /><path clip-path="url(#clip860)" d="M 0 0 M713.433 1465.11 L713.433 1461.65 Q714.862 1462.33 716.329 1462.68 Q717.796 1463.04 719.207 1463.04 Q722.968 1463.04 724.943 1460.52 Q726.937 1457.98 727.219 1452.83 Q726.128 1454.45 724.454 1455.31 Q722.78 1456.18 720.749 1456.18 Q716.536 1456.18 714.072 1453.64 Q711.627 1451.08 711.627 1446.66 Q711.627 1442.33 714.185 1439.72 Q716.743 1437.11 720.994 1437.11 Q725.865 1437.11 728.423 1440.85 Q730.999 1444.57 730.999 1451.68 Q730.999 1458.32 727.84 1462.29 Q724.699 1466.24 719.376 1466.24 Q717.947 1466.24 716.48 1465.96 Q715.013 1465.67 713.433 1465.11 M720.994 1453.21 Q723.551 1453.21 725.037 1451.46 Q726.542 1449.71 726.542 1446.66 Q726.542 1443.63 725.037 1441.88 Q723.551 1440.11 720.994 1440.11 Q718.436 1440.11 716.931 1441.88 Q715.445 1443.63 715.445 1446.66 Q715.445 1449.71 716.931 1451.46 Q718.436 1453.21 720.994 1453.21 Z" fill="#000000" fill-rule="evenodd" fill-opacity="1" /><path clip-path="url(#clip860)" d="M 0 0 M1013.42 1489.17 L1021.06 1489.17 L1021.06 1462.8 L1012.75 1464.47 L1012.75 1460.21 L1021.01 1458.54 L1025.68 1458.54 L1025.68 1489.17 L1033.32 1489.17 L1033.32 1493.1 L1013.42 1493.1 L1013.42 1489.17 Z" fill="#000000" fill-rule="evenodd" fill-opacity="1" /><path clip-path="url(#clip860)" d="M 0 0 M1048.39 1461.62 Q1044.78 1461.62 1042.95 1465.19 Q1041.15 1468.73 1041.15 1475.86 Q1041.15 1482.97 1042.95 1486.53 Q1044.78 1490.07 1048.39 1490.07 Q1052.03 1490.07 1053.83 1486.53 Q1055.66 1482.97 1055.66 1475.86 Q1055.66 1468.73 1053.83 1465.19 Q1052.03 1461.62 1048.39 1461.62 M1048.39 1457.92 Q1054.2 1457.92 1057.26 1462.53 Q1060.34 1467.11 1060.34 1475.86 Q1060.34 1484.59 1057.26 1489.19 Q1054.2 1493.78 1048.39 1493.78 Q1042.58 1493.78 1039.5 1489.19 Q1036.45 1484.59 1036.45 1475.86 Q1036.45 1467.11 1039.5 1462.53 Q1042.58 1457.92 1048.39 1457.92 Z" fill="#000000" fill-rule="evenodd" fill-opacity="1" /><path clip-path="url(#clip860)" d="M 0 0 M1060.34 1452.02 L1084.45 1452.02 L1084.45 1455.22 L1060.34 1455.22 L1060.34 1452.02 Z" fill="#000000" fill-rule="evenodd" fill-opacity="1" /><path clip-path="url(#clip860)" d="M 0 0 M1099.01 1440.92 L1089.41 1455.91 L1099.01 1455.91 L1099.01 1440.92 M1098.01 1437.61 L1102.79 1437.61 L1102.79 1455.91 L1106.79 1455.91 L1106.79 1459.07 L1102.79 1459.07 L1102.79 1465.69 L1099.01 1465.69 L1099.01 1459.07 L1086.33 1459.07 L1086.33 1455.41 L1098.01 1437.61 Z" fill="#000000" fill-rule="evenodd" fill-opacity="1" /><path clip-path="url(#clip860)" d="M 0 0 M1110.91 1460.92 L1114.88 1460.92 L1114.88 1465.69 L1110.91 1465.69 L1110.91 1460.92 Z" fill="#000000" fill-rule="evenodd" fill-opacity="1" /><path clip-path="url(#clip860)" d="M 0 0 M1127.12 1452.36 Q1124.42 1452.36 1122.85 1453.81 Q1121.31 1455.26 1121.31 1457.79 Q1121.31 1460.33 1122.85 1461.78 Q1124.42 1463.23 1127.12 1463.23 Q1129.83 1463.23 1131.39 1461.78 Q1132.95 1460.31 1132.95 1457.79 Q1132.95 1455.26 1131.39 1453.81 Q1129.85 1452.36 1127.12 1452.36 M1123.32 1450.74 Q1120.88 1450.14 1119.51 1448.47 Q1118.15 1446.79 1118.15 1444.38 Q1118.15 1441.02 1120.54 1439.06 Q1122.95 1437.11 1127.12 1437.11 Q1131.32 1437.11 1133.71 1439.06 Q1136.1 1441.02 1136.1 1444.38 Q1136.1 1446.79 1134.72 1448.47 Q1133.37 1450.14 1130.94 1450.74 Q1133.69 1451.38 1135.21 1453.24 Q1136.75 1455.1 1136.75 1457.79 Q1136.75 1461.88 1134.25 1464.06 Q1131.77 1466.24 1127.12 1466.24 Q1122.48 1466.24 1119.98 1464.06 Q1117.49 1461.88 1117.49 1457.79 Q1117.49 1455.1 1119.04 1453.24 Q1120.58 1451.38 1123.32 1450.74 M1121.93 1444.74 Q1121.93 1446.92 1123.29 1448.15 Q1124.66 1449.37 1127.12 1449.37 Q1129.57 1449.37 1130.94 1448.15 Q1132.33 1446.92 1132.33 1444.74 Q1132.33 1442.56 1130.94 1441.34 Q1129.57 1440.11 1127.12 1440.11 Q1124.66 1440.11 1123.29 1441.34 Q1121.93 1442.56 1121.93 1444.74 Z" fill="#000000" fill-rule="evenodd" fill-opacity="1" /><path clip-path="url(#clip860)" d="M 0 0 M1419.46 1489.17 L1427.1 1489.17 L1427.1 1462.8 L1418.79 1464.47 L1418.79 1460.21 L1427.05 1458.54 L1431.73 1458.54 L1431.73 1489.17 L1439.37 1489.17 L1439.37 1493.1 L1419.46 1493.1 L1419.46 1489.17 Z" fill="#000000" fill-rule="evenodd" fill-opacity="1" /><path clip-path="url(#clip860)" d="M 0 0 M1454.44 1461.62 Q1450.83 1461.62 1449 1465.19 Q1447.19 1468.73 1447.19 1475.86 Q1447.19 1482.97 1449 1486.53 Q1450.83 1490.07 1454.44 1490.07 Q1458.07 1490.07 1459.88 1486.53 Q1461.71 1482.97 1461.71 1475.86 Q1461.71 1468.73 1459.88 1465.19 Q1458.07 1461.62 1454.44 1461.62 M1454.44 1457.92 Q1460.25 1457.92 1463.3 1462.53 Q1466.38 1467.11 1466.38 1475.86 Q1466.38 1484.59 1463.3 1489.19 Q1460.25 1493.78 1454.44 1493.78 Q1448.63 1493.78 1445.55 1489.19 Q1442.49 1484.59 1442.49 1475.86 Q1442.49 1467.11 1445.55 1462.53 Q1448.63 1457.92 1454.44 1457.92 Z" fill="#000000" fill-rule="evenodd" fill-opacity="1" /><path clip-path="url(#clip860)" d="M 0 0 M1466.38 1452.02 L1490.49 1452.02 L1490.49 1455.22 L1466.38 1455.22 L1466.38 1452.02 Z" fill="#000000" fill-rule="evenodd" fill-opacity="1" /><path clip-path="url(#clip860)" d="M 0 0 M1505.05 1440.92 L1495.46 1455.91 L1505.05 1455.91 L1505.05 1440.92 M1504.05 1437.61 L1508.83 1437.61 L1508.83 1455.91 L1512.84 1455.91 L1512.84 1459.07 L1508.83 1459.07 L1508.83 1465.69 L1505.05 1465.69 L1505.05 1459.07 L1492.38 1459.07 L1492.38 1455.41 L1504.05 1437.61 Z" fill="#000000" fill-rule="evenodd" fill-opacity="1" /><path clip-path="url(#clip860)" d="M 0 0 M1516.96 1460.92 L1520.93 1460.92 L1520.93 1465.69 L1516.96 1465.69 L1516.96 1460.92 Z" fill="#000000" fill-rule="evenodd" fill-opacity="1" /><path clip-path="url(#clip860)" d="M 0 0 M1524.09 1437.61 L1542.14 1437.61 L1542.14 1439.23 L1531.95 1465.69 L1527.98 1465.69 L1537.57 1440.81 L1524.09 1440.81 L1524.09 1437.61 Z" fill="#000000" fill-rule="evenodd" fill-opacity="1" /><path clip-path="url(#clip860)" d="M 0 0 M1824.75 1489.17 L1832.38 1489.17 L1832.38 1462.8 L1824.07 1464.47 L1824.07 1460.21 L1832.34 1458.54 L1837.01 1458.54 L1837.01 1489.17 L1844.65 1489.17 L1844.65 1493.1 L1824.75 1493.1 L1824.75 1489.17 Z" fill="#000000" fill-rule="evenodd" fill-opacity="1" /><path clip-path="url(#clip860)" d="M 0 0 M1859.72 1461.62 Q1856.11 1461.62 1854.28 1465.19 Q1852.48 1468.73 1852.48 1475.86 Q1852.48 1482.97 1854.28 1486.53 Q1856.11 1490.07 1859.72 1490.07 Q1863.36 1490.07 1865.16 1486.53 Q1866.99 1482.97 1866.99 1475.86 Q1866.99 1468.73 1865.16 1465.19 Q1863.36 1461.62 1859.72 1461.62 M1859.72 1457.92 Q1865.53 1457.92 1868.59 1462.53 Q1871.67 1467.11 1871.67 1475.86 Q1871.67 1484.59 1868.59 1489.19 Q1865.53 1493.78 1859.72 1493.78 Q1853.91 1493.78 1850.83 1489.19 Q1847.78 1484.59 1847.78 1475.86 Q1847.78 1467.11 1850.83 1462.53 Q1853.91 1457.92 1859.72 1457.92 Z" fill="#000000" fill-rule="evenodd" fill-opacity="1" /><path clip-path="url(#clip860)" d="M 0 0 M1871.67 1452.02 L1895.78 1452.02 L1895.78 1455.22 L1871.67 1455.22 L1871.67 1452.02 Z" fill="#000000" fill-rule="evenodd" fill-opacity="1" /><path clip-path="url(#clip860)" d="M 0 0 M1910.34 1440.92 L1900.74 1455.91 L1910.34 1455.91 L1910.34 1440.92 M1909.34 1437.61 L1914.12 1437.61 L1914.12 1455.91 L1918.12 1455.91 L1918.12 1459.07 L1914.12 1459.07 L1914.12 1465.69 L1910.34 1465.69 L1910.34 1459.07 L1897.66 1459.07 L1897.66 1455.41 L1909.34 1437.61 Z" fill="#000000" fill-rule="evenodd" fill-opacity="1" /><path clip-path="url(#clip860)" d="M 0 0 M1922.24 1460.92 L1926.21 1460.92 L1926.21 1465.69 L1922.24 1465.69 L1922.24 1460.92 Z" fill="#000000" fill-rule="evenodd" fill-opacity="1" /><path clip-path="url(#clip860)" d="M 0 0 M1938.92 1450.14 Q1936.37 1450.14 1934.86 1451.89 Q1933.38 1453.64 1933.38 1456.68 Q1933.38 1459.71 1934.86 1461.48 Q1936.37 1463.23 1938.92 1463.23 Q1941.48 1463.23 1942.97 1461.48 Q1944.47 1459.71 1944.47 1456.68 Q1944.47 1453.64 1942.97 1451.89 Q1941.48 1450.14 1938.92 1450.14 M1946.47 1438.23 L1946.47 1441.69 Q1945.04 1441.02 1943.57 1440.66 Q1942.12 1440.3 1940.69 1440.3 Q1936.93 1440.3 1934.94 1442.84 Q1932.96 1445.38 1932.68 1450.52 Q1933.79 1448.88 1935.46 1448.01 Q1937.14 1447.13 1939.15 1447.13 Q1943.38 1447.13 1945.83 1449.71 Q1948.29 1452.26 1948.29 1456.68 Q1948.29 1461.01 1945.73 1463.62 Q1943.17 1466.24 1938.92 1466.24 Q1934.05 1466.24 1931.48 1462.51 Q1928.9 1458.77 1928.9 1451.68 Q1928.9 1445.02 1932.06 1441.07 Q1935.22 1437.11 1940.54 1437.11 Q1941.97 1437.11 1943.42 1437.39 Q1944.89 1437.67 1946.47 1438.23 Z" fill="#000000" fill-rule="evenodd" fill-opacity="1" /><path clip-path="url(#clip860)" d="M 0 0 M2230.93 1489.17 L2238.57 1489.17 L2238.57 1462.8 L2230.26 1464.47 L2230.26 1460.21 L2238.52 1458.54 L2243.2 1458.54 L2243.2 1489.17 L2250.84 1489.17 L2250.84 1493.1 L2230.93 1493.1 L2230.93 1489.17 Z" fill="#000000" fill-rule="evenodd" fill-opacity="1" /><path clip-path="url(#clip860)" d="M 0 0 M2265.91 1461.62 Q2262.3 1461.62 2260.47 1465.19 Q2258.66 1468.73 2258.66 1475.86 Q2258.66 1482.97 2260.47 1486.53 Q2262.3 1490.07 2265.91 1490.07 Q2269.54 1490.07 2271.35 1486.53 Q2273.18 1482.97 2273.18 1475.86 Q2273.18 1468.73 2271.35 1465.19 Q2269.54 1461.62 2265.91 1461.62 M2265.91 1457.92 Q2271.72 1457.92 2274.77 1462.53 Q2277.85 1467.11 2277.85 1475.86 Q2277.85 1484.59 2274.77 1489.19 Q2271.72 1493.78 2265.91 1493.78 Q2260.1 1493.78 2257.02 1489.19 Q2253.96 1484.59 2253.96 1475.86 Q2253.96 1467.11 2257.02 1462.53 Q2260.1 1457.92 2265.91 1457.92 Z" fill="#000000" fill-rule="evenodd" fill-opacity="1" /><path clip-path="url(#clip860)" d="M 0 0 M2277.85 1452.02 L2301.96 1452.02 L2301.96 1455.22 L2277.85 1455.22 L2277.85 1452.02 Z" fill="#000000" fill-rule="evenodd" fill-opacity="1" /><path clip-path="url(#clip860)" d="M 0 0 M2316.52 1440.92 L2306.93 1455.91 L2316.52 1455.91 L2316.52 1440.92 M2315.53 1437.61 L2320.3 1437.61 L2320.3 1455.91 L2324.31 1455.91 L2324.31 1459.07 L2320.3 1459.07 L2320.3 1465.69 L2316.52 1465.69 L2316.52 1459.07 L2303.85 1459.07 L2303.85 1455.41 L2315.53 1437.61 Z" fill="#000000" fill-rule="evenodd" fill-opacity="1" /><path clip-path="url(#clip860)" d="M 0 0 M2328.43 1460.92 L2332.4 1460.92 L2332.4 1465.69 L2328.43 1465.69 L2328.43 1460.92 Z" fill="#000000" fill-rule="evenodd" fill-opacity="1" /><path clip-path="url(#clip860)" d="M 0 0 M2336.55 1437.61 L2351.47 1437.61 L2351.47 1440.81 L2340.03 1440.81 L2340.03 1447.69 Q2340.86 1447.41 2341.69 1447.28 Q2342.51 1447.13 2343.34 1447.13 Q2348.04 1447.13 2350.79 1449.71 Q2353.54 1452.28 2353.54 1456.68 Q2353.54 1461.22 2350.71 1463.74 Q2347.89 1466.24 2342.76 1466.24 Q2340.99 1466.24 2339.15 1465.94 Q2337.32 1465.64 2335.37 1465.04 L2335.37 1461.22 Q2337.06 1462.14 2338.87 1462.59 Q2340.67 1463.04 2342.68 1463.04 Q2345.94 1463.04 2347.84 1461.33 Q2349.74 1459.62 2349.74 1456.68 Q2349.74 1453.75 2347.84 1452.04 Q2345.94 1450.33 2342.68 1450.33 Q2341.16 1450.33 2339.64 1450.67 Q2338.13 1451 2336.55 1451.72 L2336.55 1437.61 Z" fill="#000000" fill-rule="evenodd" fill-opacity="1" /><path clip-path="url(#clip860)" d="M 0 0 M1209.13 1512.66 L1215.02 1512.66 L1215.02 1541.91 L1232.49 1526.54 L1239.97 1526.54 L1221.06 1543.22 L1240.77 1562.19 L1233.13 1562.19 L1215.02 1544.78 L1215.02 1562.19 L1209.13 1562.19 L1209.13 1512.66 Z" fill="#000000" fill-rule="evenodd" fill-opacity="1" /><path clip-path="url(#clip860)" d="M 0 0 M1273.99 1573.01 L1273.99 1577.56 L1240.13 1577.56 L1240.13 1573.01 L1273.99 1573.01 Z" fill="#000000" fill-rule="evenodd" fill-opacity="1" /><path clip-path="url(#clip860)" d="M 0 0 M1293.95 1530.64 Q1289.24 1530.64 1286.5 1534.34 Q1283.77 1538 1283.77 1544.39 Q1283.77 1550.79 1286.47 1554.48 Q1289.21 1558.14 1293.95 1558.14 Q1298.63 1558.14 1301.37 1554.45 Q1304.1 1550.76 1304.1 1544.39 Q1304.1 1538.06 1301.37 1534.37 Q1298.63 1530.64 1293.95 1530.64 M1293.95 1525.68 Q1301.59 1525.68 1305.95 1530.64 Q1310.31 1535.61 1310.31 1544.39 Q1310.31 1553.15 1305.95 1558.14 Q1301.59 1563.11 1293.95 1563.11 Q1286.28 1563.11 1281.92 1558.14 Q1277.59 1553.15 1277.59 1544.39 Q1277.59 1535.61 1281.92 1530.64 Q1286.28 1525.68 1293.95 1525.68 Z" fill="#000000" fill-rule="evenodd" fill-opacity="1" /><path clip-path="url(#clip860)" d="M 0 0 M1346.09 1540.67 L1346.09 1562.19 L1340.23 1562.19 L1340.23 1540.86 Q1340.23 1535.8 1338.26 1533.29 Q1336.28 1530.77 1332.34 1530.77 Q1327.59 1530.77 1324.86 1533.79 Q1322.12 1536.82 1322.12 1542.04 L1322.12 1562.19 L1316.23 1562.19 L1316.23 1526.54 L1322.12 1526.54 L1322.12 1532.08 Q1324.22 1528.86 1327.05 1527.27 Q1329.92 1525.68 1333.64 1525.68 Q1339.78 1525.68 1342.94 1529.5 Q1346.09 1533.29 1346.09 1540.67 Z" fill="#000000" fill-rule="evenodd" fill-opacity="1" /><polyline clip-path="url(#clip862)" style="stroke:#000000; stroke-width:2; stroke-opacity:0.1; fill:none" points="
  202.459,1220.12 2352.76,1220.12 
  "/>
<polyline clip-path="url(#clip862)" style="stroke:#000000; stroke-width:2; stroke-opacity:0.1; fill:none" points="
  202.459,936.518 2352.76,936.518 
  "/>
<polyline clip-path="url(#clip862)" style="stroke:#000000; stroke-width:2; stroke-opacity:0.1; fill:none" points="
  202.459,652.919 2352.76,652.919 
  "/>
<polyline clip-path="url(#clip862)" style="stroke:#000000; stroke-width:2; stroke-opacity:0.1; fill:none" points="
  202.459,369.32 2352.76,369.32 
  "/>
<polyline clip-path="url(#clip862)" style="stroke:#000000; stroke-width:2; stroke-opacity:0.1; fill:none" points="
  202.459,85.7205 2352.76,85.7205 
  "/>
<polyline clip-path="url(#clip860)" style="stroke:#000000; stroke-width:4; stroke-opacity:1; fill:none" points="
  202.459,1410.9 202.459,47.2441 
  "/>
<polyline clip-path="url(#clip860)" style="stroke:#000000; stroke-width:4; stroke-opacity:1; fill:none" points="
  202.459,1220.12 228.263,1220.12 
  "/>
<polyline clip-path="url(#clip860)" style="stroke:#000000; stroke-width:4; stroke-opacity:1; fill:none" points="
  202.459,936.518 228.263,936.518 
  "/>
<polyline clip-path="url(#clip860)" style="stroke:#000000; stroke-width:4; stroke-opacity:1; fill:none" points="
  202.459,652.919 228.263,652.919 
  "/>
<polyline clip-path="url(#clip860)" style="stroke:#000000; stroke-width:4; stroke-opacity:1; fill:none" points="
  202.459,369.32 228.263,369.32 
  "/>
<polyline clip-path="url(#clip860)" style="stroke:#000000; stroke-width:4; stroke-opacity:1; fill:none" points="
  202.459,85.7205 228.263,85.7205 
  "/>
<path clip-path="url(#clip860)" d="M 0 0 M132.316 1218.76 Q135.672 1219.48 137.547 1221.75 Q139.445 1224.02 139.445 1227.35 Q139.445 1232.47 135.927 1235.27 Q132.408 1238.07 125.927 1238.07 Q123.751 1238.07 121.436 1237.63 Q119.144 1237.21 116.691 1236.36 L116.691 1231.84 Q118.635 1232.98 120.95 1233.55 Q123.265 1234.13 125.788 1234.13 Q130.186 1234.13 132.478 1232.4 Q134.792 1230.66 134.792 1227.35 Q134.792 1224.3 132.64 1222.58 Q130.51 1220.85 126.691 1220.85 L122.663 1220.85 L122.663 1217 L126.876 1217 Q130.325 1217 132.154 1215.64 Q133.982 1214.25 133.982 1211.66 Q133.982 1208.99 132.084 1207.58 Q130.209 1206.15 126.691 1206.15 Q124.769 1206.15 122.57 1206.56 Q120.371 1206.98 117.732 1207.86 L117.732 1203.69 Q120.394 1202.95 122.709 1202.58 Q125.047 1202.21 127.107 1202.21 Q132.431 1202.21 135.533 1204.64 Q138.635 1207.05 138.635 1211.17 Q138.635 1214.04 136.992 1216.03 Q135.348 1218 132.316 1218.76 Z" fill="#000000" fill-rule="evenodd" fill-opacity="1" /><path clip-path="url(#clip860)" d="M 0 0 M154.515 1205.92 Q150.903 1205.92 149.075 1209.48 Q147.269 1213.02 147.269 1220.15 Q147.269 1227.26 149.075 1230.82 Q150.903 1234.36 154.515 1234.36 Q158.149 1234.36 159.954 1230.82 Q161.783 1227.26 161.783 1220.15 Q161.783 1213.02 159.954 1209.48 Q158.149 1205.92 154.515 1205.92 M154.515 1202.21 Q160.325 1202.21 163.38 1206.82 Q166.459 1211.4 166.459 1220.15 Q166.459 1228.88 163.38 1233.48 Q160.325 1238.07 154.515 1238.07 Q148.704 1238.07 145.626 1233.48 Q142.57 1228.88 142.57 1220.15 Q142.57 1211.4 145.626 1206.82 Q148.704 1202.21 154.515 1202.21 Z" fill="#000000" fill-rule="evenodd" fill-opacity="1" /><path clip-path="url(#clip860)" d="M 0 0 M129.862 923.312 L118.056 941.761 L129.862 941.761 L129.862 923.312 M128.635 919.238 L134.515 919.238 L134.515 941.761 L139.445 941.761 L139.445 945.65 L134.515 945.65 L134.515 953.798 L129.862 953.798 L129.862 945.65 L114.26 945.65 L114.26 941.136 L128.635 919.238 Z" fill="#000000" fill-rule="evenodd" fill-opacity="1" /><path clip-path="url(#clip860)" d="M 0 0 M154.515 922.316 Q150.903 922.316 149.075 925.881 Q147.269 929.423 147.269 936.552 Q147.269 943.659 149.075 947.224 Q150.903 950.765 154.515 950.765 Q158.149 950.765 159.954 947.224 Q161.783 943.659 161.783 936.552 Q161.783 929.423 159.954 925.881 Q158.149 922.316 154.515 922.316 M154.515 918.613 Q160.325 918.613 163.38 923.219 Q166.459 927.803 166.459 936.552 Q166.459 945.279 163.38 949.886 Q160.325 954.469 154.515 954.469 Q148.704 954.469 145.626 949.886 Q142.57 945.279 142.57 936.552 Q142.57 927.803 145.626 923.219 Q148.704 918.613 154.515 918.613 Z" fill="#000000" fill-rule="evenodd" fill-opacity="1" /><path clip-path="url(#clip860)" d="M 0 0 M118.543 635.639 L136.899 635.639 L136.899 639.574 L122.825 639.574 L122.825 648.046 Q123.843 647.699 124.862 647.537 Q125.88 647.352 126.899 647.352 Q132.686 647.352 136.066 650.523 Q139.445 653.694 139.445 659.111 Q139.445 664.689 135.973 667.791 Q132.501 670.87 126.181 670.87 Q124.005 670.87 121.737 670.5 Q119.492 670.129 117.084 669.388 L117.084 664.689 Q119.168 665.824 121.39 666.379 Q123.612 666.935 126.089 666.935 Q130.093 666.935 132.431 664.828 Q134.769 662.722 134.769 659.111 Q134.769 655.5 132.431 653.393 Q130.093 651.287 126.089 651.287 Q124.214 651.287 122.339 651.703 Q120.487 652.12 118.543 653 L118.543 635.639 Z" fill="#000000" fill-rule="evenodd" fill-opacity="1" /><path clip-path="url(#clip860)" d="M 0 0 M154.515 638.717 Q150.903 638.717 149.075 642.282 Q147.269 645.824 147.269 652.953 Q147.269 660.06 149.075 663.625 Q150.903 667.166 154.515 667.166 Q158.149 667.166 159.954 663.625 Q161.783 660.06 161.783 652.953 Q161.783 645.824 159.954 642.282 Q158.149 638.717 154.515 638.717 M154.515 635.014 Q160.325 635.014 163.38 639.62 Q166.459 644.203 166.459 652.953 Q166.459 661.68 163.38 666.287 Q160.325 670.87 154.515 670.87 Q148.704 670.87 145.626 666.287 Q142.57 661.68 142.57 652.953 Q142.57 644.203 145.626 639.62 Q148.704 635.014 154.515 635.014 Z" fill="#000000" fill-rule="evenodd" fill-opacity="1" /><path clip-path="url(#clip860)" d="M 0 0 M127.917 367.456 Q124.769 367.456 122.918 369.609 Q121.089 371.762 121.089 375.512 Q121.089 379.239 122.918 381.414 Q124.769 383.567 127.917 383.567 Q131.066 383.567 132.894 381.414 Q134.746 379.239 134.746 375.512 Q134.746 371.762 132.894 369.609 Q131.066 367.456 127.917 367.456 M137.2 352.803 L137.2 357.063 Q135.441 356.229 133.635 355.79 Q131.853 355.35 130.093 355.35 Q125.464 355.35 123.01 358.475 Q120.58 361.6 120.232 367.919 Q121.598 365.905 123.658 364.84 Q125.718 363.753 128.195 363.753 Q133.404 363.753 136.413 366.924 Q139.445 370.072 139.445 375.512 Q139.445 380.836 136.297 384.053 Q133.149 387.271 127.917 387.271 Q121.922 387.271 118.751 382.688 Q115.58 378.081 115.58 369.354 Q115.58 361.16 119.468 356.299 Q123.357 351.415 129.908 351.415 Q131.667 351.415 133.45 351.762 Q135.255 352.109 137.2 352.803 Z" fill="#000000" fill-rule="evenodd" fill-opacity="1" /><path clip-path="url(#clip860)" d="M 0 0 M154.515 355.118 Q150.903 355.118 149.075 358.683 Q147.269 362.225 147.269 369.354 Q147.269 376.461 149.075 380.026 Q150.903 383.567 154.515 383.567 Q158.149 383.567 159.954 380.026 Q161.783 376.461 161.783 369.354 Q161.783 362.225 159.954 358.683 Q158.149 355.118 154.515 355.118 M154.515 351.415 Q160.325 351.415 163.38 356.021 Q166.459 360.604 166.459 369.354 Q166.459 378.081 163.38 382.688 Q160.325 387.271 154.515 387.271 Q148.704 387.271 145.626 382.688 Q142.57 378.081 142.57 369.354 Q142.57 360.604 145.626 356.021 Q148.704 351.415 154.515 351.415 Z" fill="#000000" fill-rule="evenodd" fill-opacity="1" /><path clip-path="url(#clip860)" d="M 0 0 M117.223 68.4405 L139.445 68.4405 L139.445 70.4313 L126.899 103.001 L122.015 103.001 L133.82 72.3757 L117.223 72.3757 L117.223 68.4405 Z" fill="#000000" fill-rule="evenodd" fill-opacity="1" /><path clip-path="url(#clip860)" d="M 0 0 M154.515 71.5192 Q150.903 71.5192 149.075 75.084 Q147.269 78.6257 147.269 85.7553 Q147.269 92.8617 149.075 96.4265 Q150.903 99.9682 154.515 99.9682 Q158.149 99.9682 159.954 96.4265 Q161.783 92.8617 161.783 85.7553 Q161.783 78.6257 159.954 75.084 Q158.149 71.5192 154.515 71.5192 M154.515 67.8155 Q160.325 67.8155 163.38 72.422 Q166.459 77.0053 166.459 85.7553 Q166.459 94.4821 163.38 99.0885 Q160.325 103.672 154.515 103.672 Q148.704 103.672 145.626 99.0885 Q142.57 94.4821 142.57 85.7553 Q142.57 77.0053 145.626 72.422 Q148.704 67.8155 154.515 67.8155 Z" fill="#000000" fill-rule="evenodd" fill-opacity="1" /><path clip-path="url(#clip860)" d="M 0 0 M59.1993 815.533 Q55.2526 813.336 53.3747 810.281 Q51.4968 807.225 51.4968 803.088 Q51.4968 797.518 55.4117 794.494 Q59.2948 791.47 66.4881 791.47 L88.0042 791.47 L88.0042 797.358 L66.679 797.358 Q61.5546 797.358 59.072 799.173 Q56.5894 800.987 56.5894 804.711 Q56.5894 809.262 59.6131 811.904 Q62.6368 814.546 67.8567 814.546 L88.0042 814.546 L88.0042 820.434 L66.679 820.434 Q61.5228 820.434 59.072 822.248 Q56.5894 824.063 56.5894 827.85 Q56.5894 832.338 59.6449 834.98 Q62.6686 837.622 67.8567 837.622 L88.0042 837.622 L88.0042 843.51 L52.3562 843.51 L52.3562 837.622 L57.8944 837.622 Q54.616 835.616 53.0564 832.815 Q51.4968 830.015 51.4968 826.163 Q51.4968 822.28 53.4702 819.575 Q55.4436 816.838 59.1993 815.533 Z" fill="#000000" fill-rule="evenodd" fill-opacity="1" /><path clip-path="url(#clip860)" d="M 0 0 M52.3562 785.327 L52.3562 779.471 L88.0042 779.471 L88.0042 785.327 L52.3562 785.327 M38.479 785.327 L38.479 779.471 L45.895 779.471 L45.895 785.327 L38.479 785.327 Z" fill="#000000" fill-rule="evenodd" fill-opacity="1" /><path clip-path="url(#clip860)" d="M 0 0 M66.4881 743.696 L88.0042 743.696 L88.0042 749.552 L66.679 749.552 Q61.6183 749.552 59.1038 751.525 Q56.5894 753.499 56.5894 757.446 Q56.5894 762.188 59.6131 764.925 Q62.6368 767.662 67.8567 767.662 L88.0042 767.662 L88.0042 773.551 L52.3562 773.551 L52.3562 767.662 L57.8944 767.662 Q54.6797 765.562 53.0883 762.729 Q51.4968 759.864 51.4968 756.141 Q51.4968 749.998 55.3163 746.847 Q59.1038 743.696 66.4881 743.696 Z" fill="#000000" fill-rule="evenodd" fill-opacity="1" /><path clip-path="url(#clip860)" d="M 0 0 M98.8259 710.467 L103.377 710.467 L103.377 744.332 L98.8259 744.332 L98.8259 710.467 Z" fill="#000000" fill-rule="evenodd" fill-opacity="1" /><path clip-path="url(#clip860)" d="M 0 0 M57.7671 680.866 L38.479 680.866 L38.479 675.01 L88.0042 675.01 L88.0042 680.866 L82.657 680.866 Q85.8398 682.712 87.3994 685.545 Q88.9272 688.346 88.9272 692.292 Q88.9272 698.754 83.771 702.828 Q78.6147 706.87 70.212 706.87 Q61.8093 706.87 56.6531 702.828 Q51.4968 698.754 51.4968 692.292 Q51.4968 688.346 53.0564 685.545 Q54.5842 682.712 57.7671 680.866 M70.212 700.823 Q76.6732 700.823 80.3653 698.181 Q84.0256 695.507 84.0256 690.86 Q84.0256 686.213 80.3653 683.54 Q76.6732 680.866 70.212 680.866 Q63.7508 680.866 60.0905 683.54 Q56.3984 686.213 56.3984 690.86 Q56.3984 695.507 60.0905 698.181 Q63.7508 700.823 70.212 700.823 Z" fill="#000000" fill-rule="evenodd" fill-opacity="1" /><path clip-path="url(#clip860)" d="M 0 0 M52.3562 668.867 L52.3562 663.01 L88.0042 663.01 L88.0042 668.867 L52.3562 668.867 M38.479 668.867 L38.479 663.01 L45.895 663.01 L45.895 668.867 L38.479 668.867 Z" fill="#000000" fill-rule="evenodd" fill-opacity="1" /><path clip-path="url(#clip860)" d="M 0 0 M38.479 638.821 L43.3487 638.821 L43.3487 644.422 Q43.3487 647.573 44.6219 648.815 Q45.895 650.024 49.2052 650.024 L52.3562 650.024 L52.3562 640.38 L56.9077 640.38 L56.9077 650.024 L88.0042 650.024 L88.0042 655.912 L56.9077 655.912 L56.9077 661.514 L52.3562 661.514 L52.3562 655.912 L49.8736 655.912 Q43.9216 655.912 41.2162 653.143 Q38.479 650.374 38.479 644.359 L38.479 638.821 Z" fill="#000000" fill-rule="evenodd" fill-opacity="1" /><path clip-path="url(#clip860)" d="M 0 0 M38.479 614.631 L43.3487 614.631 L43.3487 620.233 Q43.3487 623.384 44.6219 624.625 Q45.895 625.835 49.2052 625.835 L52.3562 625.835 L52.3562 616.19 L56.9077 616.19 L56.9077 625.835 L88.0042 625.835 L88.0042 631.723 L56.9077 631.723 L56.9077 637.325 L52.3562 637.325 L52.3562 631.723 L49.8736 631.723 Q43.9216 631.723 41.2162 628.954 Q38.479 626.185 38.479 620.169 L38.479 614.631 Z" fill="#000000" fill-rule="evenodd" fill-opacity="1" /><polyline clip-path="url(#clip862)" style="stroke:#009af9; stroke-width:20; stroke-opacity:1; fill:none" stroke-dasharray="80, 50" points="
  263.316,1067.27 1277.61,1372.3 2291.9,85.838 
  "/>
<path clip-path="url(#clip860)" d="
M1991.14 213.659 L2281.08 213.659 L2281.08 92.6992 L1991.14 92.6992  Z
  " fill="#ffffff" fill-rule="evenodd" fill-opacity="1"/>
<polyline clip-path="url(#clip860)" style="stroke:#000000; stroke-width:4; stroke-opacity:1; fill:none" points="
  1991.14,213.659 2281.08,213.659 2281.08,92.6992 1991.14,92.6992 1991.14,213.659 
  "/>
<polyline clip-path="url(#clip860)" style="stroke:#009af9; stroke-width:4; stroke-opacity:1; fill:none" stroke-dasharray="16, 10" points="
  2015.03,153.179 2158.38,153.179 
  "/>
<path clip-path="url(#clip860)" d="M 0 0 M2196.12 172.867 Q2194.31 177.496 2192.6 178.908 Q2190.89 180.32 2188.02 180.32 L2184.61 180.32 L2184.61 176.755 L2187.11 176.755 Q2188.87 176.755 2189.85 175.922 Q2190.82 175.089 2192 171.987 L2192.76 170.043 L2182.28 144.533 L2186.79 144.533 L2194.89 164.811 L2202.99 144.533 L2207.51 144.533 L2196.12 172.867 Z" fill="#000000" fill-rule="evenodd" fill-opacity="1" /><path clip-path="url(#clip860)" d="M 0 0 M2213.39 166.524 L2221.03 166.524 L2221.03 140.158 L2212.72 141.825 L2212.72 137.566 L2220.98 135.899 L2225.66 135.899 L2225.66 166.524 L2233.29 166.524 L2233.29 170.459 L2213.39 170.459 L2213.39 166.524 Z" fill="#000000" fill-rule="evenodd" fill-opacity="1" /></svg>
