<?xml version="1.0" encoding="utf-8"?>
<svg xmlns="http://www.w3.org/2000/svg" xmlns:xlink="http://www.w3.org/1999/xlink" width="600" height="400" viewBox="0 0 2400 1600">
<defs>
  <clipPath id="clip180">
    <rect x="0" y="0" width="2400" height="1600"/>
  </clipPath>
</defs>
<path clip-path="url(#clip180)" d="
M0 1600 L2400 1600 L2400 0 L0 0  Z
  " fill="#ffffff" fill-rule="evenodd" fill-opacity="1"/>
<defs>
  <clipPath id="clip181">
    <rect x="480" y="0" width="1681" height="1600"/>
  </clipPath>
</defs>
<path clip-path="url(#clip180)" d="
M211.093 1410.9 L2352.76 1410.9 L2352.76 47.2441 L211.093 47.2441  Z
  " fill="#ffffff" fill-rule="evenodd" fill-opacity="1"/>
<defs>
  <clipPath id="clip182">
    <rect x="211" y="47" width="2143" height="1365"/>
  </clipPath>
</defs>
<polyline clip-path="url(#clip182)" style="stroke:#000000; stroke-width:2; stroke-opacity:0.1; fill:none" points="
  271.706,1410.9 271.706,47.2441 
  "/>
<polyline clip-path="url(#clip182)" style="stroke:#000000; stroke-width:2; stroke-opacity:0.1; fill:none" points="
  945.185,1410.9 945.185,47.2441 
  "/>
<polyline clip-path="url(#clip182)" style="stroke:#000000; stroke-width:2; stroke-opacity:0.1; fill:none" points="
  1618.66,1410.9 1618.66,47.2441 
  "/>
<polyline clip-path="url(#clip182)" style="stroke:#000000; stroke-width:2; stroke-opacity:0.1; fill:none" points="
  2292.14,1410.9 2292.14,47.2441 
  "/>
<polyline clip-path="url(#clip180)" style="stroke:#000000; stroke-width:4; stroke-opacity:1; fill:none" points="
  211.093,1410.9 2352.76,1410.9 
  "/>
<polyline clip-path="url(#clip180)" style="stroke:#000000; stroke-width:4; stroke-opacity:1; fill:none" points="
  271.706,1410.9 271.706,1394.53 
  "/>
<polyline clip-path="url(#clip180)" style="stroke:#000000; stroke-width:4; stroke-opacity:1; fill:none" points="
  945.185,1410.9 945.185,1394.53 
  "/>
<polyline clip-path="url(#clip180)" style="stroke:#000000; stroke-width:4; stroke-opacity:1; fill:none" points="
  1618.66,1410.9 1618.66,1394.53 
  "/>
<polyline clip-path="url(#clip180)" style="stroke:#000000; stroke-width:4; stroke-opacity:1; fill:none" points="
  2292.14,1410.9 2292.14,1394.53 
  "/>
<path clip-path="url(#clip180)" d="M 0 0 M225.485 1489.17 L233.124 1489.17 L233.124 1462.8 L224.814 1464.47 L224.814 1460.21 L233.078 1458.54 L237.754 1458.54 L237.754 1489.17 L245.393 1489.17 L245.393 1493.1 L225.485 1493.1 L225.485 1489.17 Z" fill="#000000" fill-rule="evenodd" fill-opacity="1" /><path clip-path="url(#clip180)" d="M 0 0 M260.462 1461.62 Q256.851 1461.62 255.022 1465.19 Q253.217 1468.73 253.217 1475.86 Q253.217 1482.97 255.022 1486.53 Q256.851 1490.07 260.462 1490.07 Q264.096 1490.07 265.902 1486.53 Q267.731 1482.97 267.731 1475.86 Q267.731 1468.73 265.902 1465.19 Q264.096 1461.62 260.462 1461.62 M260.462 1457.92 Q266.272 1457.92 269.328 1462.53 Q272.406 1467.11 272.406 1475.86 Q272.406 1484.59 269.328 1489.19 Q266.272 1493.78 260.462 1493.78 Q254.652 1493.78 251.573 1489.19 Q248.518 1484.59 248.518 1475.86 Q248.518 1467.11 251.573 1462.53 Q254.652 1457.92 260.462 1457.92 Z" fill="#000000" fill-rule="evenodd" fill-opacity="1" /><path clip-path="url(#clip180)" d="M 0 0 M272.406 1452.02 L296.518 1452.02 L296.518 1455.22 L272.406 1455.22 L272.406 1452.02 Z" fill="#000000" fill-rule="evenodd" fill-opacity="1" /><path clip-path="url(#clip180)" d="M 0 0 M309.232 1450.14 Q306.674 1450.14 305.17 1451.89 Q303.684 1453.64 303.684 1456.68 Q303.684 1459.71 305.17 1461.48 Q306.674 1463.23 309.232 1463.23 Q311.79 1463.23 313.276 1461.48 Q314.78 1459.71 314.78 1456.68 Q314.78 1453.64 313.276 1451.89 Q311.79 1450.14 309.232 1450.14 M316.774 1438.23 L316.774 1441.69 Q315.345 1441.02 313.878 1440.66 Q312.429 1440.3 311 1440.3 Q307.238 1440.3 305.245 1442.84 Q303.27 1445.38 302.988 1450.52 Q304.098 1448.88 305.771 1448.01 Q307.445 1447.13 309.458 1447.13 Q313.69 1447.13 316.135 1449.71 Q318.598 1452.26 318.598 1456.68 Q318.598 1461.01 316.041 1463.62 Q313.483 1466.24 309.232 1466.24 Q304.361 1466.24 301.784 1462.51 Q299.208 1458.77 299.208 1451.68 Q299.208 1445.02 302.367 1441.07 Q305.527 1437.11 310.85 1437.11 Q312.279 1437.11 313.727 1437.39 Q315.194 1437.67 316.774 1438.23 Z" fill="#000000" fill-rule="evenodd" fill-opacity="1" /><path clip-path="url(#clip180)" d="M 0 0 M899.434 1489.17 L907.073 1489.17 L907.073 1462.8 L898.763 1464.47 L898.763 1460.21 L907.027 1458.54 L911.703 1458.54 L911.703 1489.17 L919.342 1489.17 L919.342 1493.1 L899.434 1493.1 L899.434 1489.17 Z" fill="#000000" fill-rule="evenodd" fill-opacity="1" /><path clip-path="url(#clip180)" d="M 0 0 M934.411 1461.62 Q930.8 1461.62 928.971 1465.19 Q927.166 1468.73 927.166 1475.86 Q927.166 1482.97 928.971 1486.53 Q930.8 1490.07 934.411 1490.07 Q938.045 1490.07 939.851 1486.53 Q941.68 1482.97 941.68 1475.86 Q941.68 1468.73 939.851 1465.19 Q938.045 1461.62 934.411 1461.62 M934.411 1457.92 Q940.221 1457.92 943.277 1462.53 Q946.356 1467.11 946.356 1475.86 Q946.356 1484.59 943.277 1489.19 Q940.221 1493.78 934.411 1493.78 Q928.601 1493.78 925.522 1489.19 Q922.467 1484.59 922.467 1475.86 Q922.467 1467.11 925.522 1462.53 Q928.601 1457.92 934.411 1457.92 Z" fill="#000000" fill-rule="evenodd" fill-opacity="1" /><path clip-path="url(#clip180)" d="M 0 0 M946.356 1452.02 L970.467 1452.02 L970.467 1455.22 L946.356 1455.22 L946.356 1452.02 Z" fill="#000000" fill-rule="evenodd" fill-opacity="1" /><path clip-path="url(#clip180)" d="M 0 0 M974.624 1437.61 L989.538 1437.61 L989.538 1440.81 L978.103 1440.81 L978.103 1447.69 Q978.931 1447.41 979.758 1447.28 Q980.586 1447.13 981.413 1447.13 Q986.115 1447.13 988.861 1449.71 Q991.607 1452.28 991.607 1456.68 Q991.607 1461.22 988.786 1463.74 Q985.965 1466.24 980.83 1466.24 Q979.062 1466.24 977.219 1465.94 Q975.395 1465.64 973.439 1465.04 L973.439 1461.22 Q975.131 1462.14 976.937 1462.59 Q978.743 1463.04 980.755 1463.04 Q984.009 1463.04 985.908 1461.33 Q987.808 1459.62 987.808 1456.68 Q987.808 1453.75 985.908 1452.04 Q984.009 1450.33 980.755 1450.33 Q979.232 1450.33 977.708 1450.67 Q976.203 1451 974.624 1451.72 L974.624 1437.61 Z" fill="#000000" fill-rule="evenodd" fill-opacity="1" /><path clip-path="url(#clip180)" d="M 0 0 M1572.31 1489.17 L1579.95 1489.17 L1579.95 1462.8 L1571.64 1464.47 L1571.64 1460.21 L1579.9 1458.54 L1584.58 1458.54 L1584.58 1489.17 L1592.22 1489.17 L1592.22 1493.1 L1572.31 1493.1 L1572.31 1489.17 Z" fill="#000000" fill-rule="evenodd" fill-opacity="1" /><path clip-path="url(#clip180)" d="M 0 0 M1607.29 1461.62 Q1603.68 1461.62 1601.85 1465.19 Q1600.04 1468.73 1600.04 1475.86 Q1600.04 1482.97 1601.85 1486.53 Q1603.68 1490.07 1607.29 1490.07 Q1610.92 1490.07 1612.73 1486.53 Q1614.56 1482.97 1614.56 1475.86 Q1614.56 1468.73 1612.73 1465.19 Q1610.92 1461.62 1607.29 1461.62 M1607.29 1457.92 Q1613.1 1457.92 1616.15 1462.53 Q1619.23 1467.11 1619.23 1475.86 Q1619.23 1484.59 1616.15 1489.19 Q1613.1 1493.78 1607.29 1493.78 Q1601.48 1493.78 1598.4 1489.19 Q1595.34 1484.59 1595.34 1475.86 Q1595.34 1467.11 1598.4 1462.53 Q1601.48 1457.92 1607.29 1457.92 Z" fill="#000000" fill-rule="evenodd" fill-opacity="1" /><path clip-path="url(#clip180)" d="M 0 0 M1619.23 1452.02 L1643.34 1452.02 L1643.34 1455.22 L1619.23 1455.22 L1619.23 1452.02 Z" fill="#000000" fill-rule="evenodd" fill-opacity="1" /><path clip-path="url(#clip180)" d="M 0 0 M1657.9 1440.92 L1648.31 1455.91 L1657.9 1455.91 L1657.9 1440.92 M1656.9 1437.61 L1661.68 1437.61 L1661.68 1455.91 L1665.69 1455.91 L1665.69 1459.07 L1661.68 1459.07 L1661.68 1465.69 L1657.9 1465.69 L1657.9 1459.07 L1645.22 1459.07 L1645.22 1455.41 L1656.9 1437.61 Z" fill="#000000" fill-rule="evenodd" fill-opacity="1" /><path clip-path="url(#clip180)" d="M 0 0 M2246.25 1489.17 L2253.89 1489.17 L2253.89 1462.8 L2245.58 1464.47 L2245.58 1460.21 L2253.84 1458.54 L2258.52 1458.54 L2258.52 1489.17 L2266.16 1489.17 L2266.16 1493.1 L2246.25 1493.1 L2246.25 1489.17 Z" fill="#000000" fill-rule="evenodd" fill-opacity="1" /><path clip-path="url(#clip180)" d="M 0 0 M2281.23 1461.62 Q2277.62 1461.62 2275.79 1465.19 Q2273.98 1468.73 2273.98 1475.86 Q2273.98 1482.97 2275.79 1486.53 Q2277.62 1490.07 2281.23 1490.07 Q2284.86 1490.07 2286.67 1486.53 Q2288.5 1482.97 2288.5 1475.86 Q2288.5 1468.73 2286.67 1465.19 Q2284.86 1461.62 2281.23 1461.62 M2281.23 1457.92 Q2287.04 1457.92 2290.09 1462.53 Q2293.17 1467.11 2293.17 1475.86 Q2293.17 1484.59 2290.09 1489.19 Q2287.04 1493.78 2281.23 1493.78 Q2275.42 1493.78 2272.34 1489.19 Q2269.28 1484.59 2269.28 1475.86 Q2269.28 1467.11 2272.34 1462.53 Q2275.42 1457.92 2281.23 1457.92 Z" fill="#000000" fill-rule="evenodd" fill-opacity="1" /><path clip-path="url(#clip180)" d="M 0 0 M2293.17 1452.02 L2317.28 1452.02 L2317.28 1455.22 L2293.17 1455.22 L2293.17 1452.02 Z" fill="#000000" fill-rule="evenodd" fill-opacity="1" /><path clip-path="url(#clip180)" d="M 0 0 M2332.91 1450.55 Q2335.64 1451.14 2337.16 1452.98 Q2338.71 1454.82 2338.71 1457.53 Q2338.71 1461.69 2335.85 1463.96 Q2332.99 1466.24 2327.72 1466.24 Q2325.95 1466.24 2324.07 1465.88 Q2322.21 1465.54 2320.22 1464.85 L2320.22 1461.18 Q2321.8 1462.1 2323.68 1462.57 Q2325.56 1463.04 2327.61 1463.04 Q2331.18 1463.04 2333.04 1461.63 Q2334.93 1460.22 2334.93 1457.53 Q2334.93 1455.05 2333.18 1453.66 Q2331.45 1452.25 2328.34 1452.25 L2325.07 1452.25 L2325.07 1449.12 L2328.49 1449.12 Q2331.3 1449.12 2332.78 1448.01 Q2334.27 1446.89 2334.27 1444.78 Q2334.27 1442.62 2332.72 1441.47 Q2331.2 1440.3 2328.34 1440.3 Q2326.78 1440.3 2324.99 1440.64 Q2323.21 1440.98 2321.06 1441.69 L2321.06 1438.31 Q2323.23 1437.71 2325.11 1437.41 Q2327.01 1437.11 2328.68 1437.11 Q2333.01 1437.11 2335.53 1439.08 Q2338.05 1441.04 2338.05 1444.38 Q2338.05 1446.72 2336.71 1448.33 Q2335.38 1449.93 2332.91 1450.55 Z" fill="#000000" fill-rule="evenodd" fill-opacity="1" /><path clip-path="url(#clip180)" d="M 0 0 M1174.69 1526.54 L1180.9 1526.54 L1192.04 1556.46 L1203.18 1526.54 L1209.39 1526.54 L1196.02 1562.19 L1188.06 1562.19 L1174.69 1526.54 Z" fill="#000000" fill-rule="evenodd" fill-opacity="1" /><path clip-path="url(#clip180)" d="M 0 0 M1242.62 1573.01 L1242.62 1577.56 L1208.75 1577.56 L1208.75 1573.01 L1242.62 1573.01 Z" fill="#000000" fill-rule="evenodd" fill-opacity="1" /><path clip-path="url(#clip180)" d="M 0 0 M1262.57 1530.64 Q1257.86 1530.64 1255.12 1534.34 Q1252.39 1538 1252.39 1544.39 Q1252.39 1550.79 1255.09 1554.48 Q1257.83 1558.14 1262.57 1558.14 Q1267.25 1558.14 1269.99 1554.45 Q1272.73 1550.76 1272.73 1544.39 Q1272.73 1538.06 1269.99 1534.37 Q1267.25 1530.64 1262.57 1530.64 M1262.57 1525.68 Q1270.21 1525.68 1274.57 1530.64 Q1278.93 1535.61 1278.93 1544.39 Q1278.93 1553.15 1274.57 1558.14 Q1270.21 1563.11 1262.57 1563.11 Q1254.9 1563.11 1250.54 1558.14 Q1246.21 1553.15 1246.21 1544.39 Q1246.21 1535.61 1250.54 1530.64 Q1254.9 1525.68 1262.57 1525.68 Z" fill="#000000" fill-rule="evenodd" fill-opacity="1" /><path clip-path="url(#clip180)" d="M 0 0 M1290.74 1556.84 L1290.74 1575.74 L1284.85 1575.74 L1284.85 1526.54 L1290.74 1526.54 L1290.74 1531.95 Q1292.59 1528.77 1295.39 1527.24 Q1298.22 1525.68 1302.14 1525.68 Q1308.63 1525.68 1312.67 1530.83 Q1316.74 1535.99 1316.74 1544.39 Q1316.74 1552.8 1312.67 1557.95 Q1308.63 1563.11 1302.14 1563.11 Q1298.22 1563.11 1295.39 1561.58 Q1292.59 1560.02 1290.74 1556.84 M1310.67 1544.39 Q1310.67 1537.93 1307.99 1534.27 Q1305.35 1530.58 1300.7 1530.58 Q1296.06 1530.58 1293.38 1534.27 Q1290.74 1537.93 1290.74 1544.39 Q1290.74 1550.85 1293.38 1554.55 Q1296.06 1558.21 1300.7 1558.21 Q1305.35 1558.21 1307.99 1554.55 Q1310.67 1550.85 1310.67 1544.39 Z" fill="#000000" fill-rule="evenodd" fill-opacity="1" /><path clip-path="url(#clip180)" d="M 0 0 M1353.38 1542.9 L1353.38 1545.76 L1326.45 1545.76 Q1326.83 1551.81 1330.08 1554.99 Q1333.36 1558.14 1339.18 1558.14 Q1342.56 1558.14 1345.71 1557.32 Q1348.89 1556.49 1352.01 1554.83 L1352.01 1560.37 Q1348.86 1561.71 1345.55 1562.41 Q1342.24 1563.11 1338.83 1563.11 Q1330.3 1563.11 1325.31 1558.14 Q1320.34 1553.18 1320.34 1544.71 Q1320.34 1535.96 1325.05 1530.83 Q1329.79 1525.68 1337.82 1525.68 Q1345.01 1525.68 1349.18 1530.33 Q1353.38 1534.94 1353.38 1542.9 M1347.52 1541.18 Q1347.46 1536.37 1344.82 1533.51 Q1342.21 1530.64 1337.88 1530.64 Q1332.98 1530.64 1330.02 1533.41 Q1327.09 1536.18 1326.64 1541.21 L1347.52 1541.18 Z" fill="#000000" fill-rule="evenodd" fill-opacity="1" /><path clip-path="url(#clip180)" d="M 0 0 M1389.15 1540.67 L1389.15 1562.19 L1383.3 1562.19 L1383.3 1540.86 Q1383.3 1535.8 1381.33 1533.29 Q1379.35 1530.77 1375.4 1530.77 Q1370.66 1530.77 1367.93 1533.79 Q1365.19 1536.82 1365.19 1542.04 L1365.19 1562.19 L1359.3 1562.19 L1359.3 1526.54 L1365.19 1526.54 L1365.19 1532.08 Q1367.29 1528.86 1370.12 1527.27 Q1372.99 1525.68 1376.71 1525.68 Q1382.85 1525.68 1386 1529.5 Q1389.15 1533.29 1389.15 1540.67 Z" fill="#000000" fill-rule="evenodd" fill-opacity="1" /><polyline clip-path="url(#clip182)" style="stroke:#000000; stroke-width:2; stroke-opacity:0.1; fill:none" points="
  211.093,1297.75 2352.76,1297.75 
  "/>
<polyline clip-path="url(#clip182)" style="stroke:#000000; stroke-width:2; stroke-opacity:0.1; fill:none" points="
  211.093,1064.91 2352.76,1064.91 
  "/>
<polyline clip-path="url(#clip182)" style="stroke:#000000; stroke-width:2; stroke-opacity:0.1; fill:none" points="
  211.093,832.073 2352.76,832.073 
  "/>
<polyline clip-path="url(#clip182)" style="stroke:#000000; stroke-width:2; stroke-opacity:0.1; fill:none" points="
  211.093,599.236 2352.76,599.236 
  "/>
<polyline clip-path="url(#clip182)" style="stroke:#000000; stroke-width:2; stroke-opacity:0.1; fill:none" points="
  211.093,366.399 2352.76,366.399 
  "/>
<polyline clip-path="url(#clip182)" style="stroke:#000000; stroke-width:2; stroke-opacity:0.1; fill:none" points="
  211.093,133.562 2352.76,133.562 
  "/>
<polyline clip-path="url(#clip180)" style="stroke:#000000; stroke-width:4; stroke-opacity:1; fill:none" points="
  211.093,1410.9 211.093,47.2441 
  "/>
<polyline clip-path="url(#clip180)" style="stroke:#000000; stroke-width:4; stroke-opacity:1; fill:none" points="
  211.093,1297.75 236.793,1297.75 
  "/>
<polyline clip-path="url(#clip180)" style="stroke:#000000; stroke-width:4; stroke-opacity:1; fill:none" points="
  211.093,1064.91 236.793,1064.91 
  "/>
<polyline clip-path="url(#clip180)" style="stroke:#000000; stroke-width:4; stroke-opacity:1; fill:none" points="
  211.093,832.073 236.793,832.073 
  "/>
<polyline clip-path="url(#clip180)" style="stroke:#000000; stroke-width:4; stroke-opacity:1; fill:none" points="
  211.093,599.236 236.793,599.236 
  "/>
<polyline clip-path="url(#clip180)" style="stroke:#000000; stroke-width:4; stroke-opacity:1; fill:none" points="
  211.093,366.399 236.793,366.399 
  "/>
<polyline clip-path="url(#clip180)" style="stroke:#000000; stroke-width:4; stroke-opacity:1; fill:none" points="
  211.093,133.562 236.793,133.562 
  "/>
<path clip-path="url(#clip180)" d="M 0 0 M118.218 1280.47 L136.575 1280.47 L136.575 1284.4 L122.501 1284.4 L122.501 1292.87 Q123.519 1292.53 124.538 1292.37 Q125.556 1292.18 126.575 1292.18 Q132.362 1292.18 135.742 1295.35 Q139.121 1298.52 139.121 1303.94 Q139.121 1309.52 135.649 1312.62 Q132.177 1315.7 125.857 1315.7 Q123.681 1315.7 121.413 1315.33 Q119.168 1314.96 116.76 1314.22 L116.76 1309.52 Q118.843 1310.65 121.066 1311.21 Q123.288 1311.76 125.765 1311.76 Q129.769 1311.76 132.107 1309.66 Q134.445 1307.55 134.445 1303.94 Q134.445 1300.33 132.107 1298.22 Q129.769 1296.12 125.765 1296.12 Q123.89 1296.12 122.015 1296.53 Q120.163 1296.95 118.218 1297.83 L118.218 1280.47 Z" fill="#000000" fill-rule="evenodd" fill-opacity="1" /><path clip-path="url(#clip180)" d="M 0 0 M144.191 1309.15 L149.075 1309.15 L149.075 1315.03 L144.191 1315.03 L144.191 1309.15 Z" fill="#000000" fill-rule="evenodd" fill-opacity="1" /><path clip-path="url(#clip180)" d="M 0 0 M154.19 1280.47 L172.547 1280.47 L172.547 1284.4 L158.473 1284.4 L158.473 1292.87 Q159.491 1292.53 160.51 1292.37 Q161.528 1292.18 162.547 1292.18 Q168.334 1292.18 171.714 1295.35 Q175.093 1298.52 175.093 1303.94 Q175.093 1309.52 171.621 1312.62 Q168.149 1315.7 161.829 1315.7 Q159.653 1315.7 157.385 1315.33 Q155.14 1314.96 152.732 1314.22 L152.732 1309.52 Q154.815 1310.65 157.038 1311.21 Q159.26 1311.76 161.737 1311.76 Q165.741 1311.76 168.079 1309.66 Q170.417 1307.55 170.417 1303.94 Q170.417 1300.33 168.079 1298.22 Q165.741 1296.12 161.737 1296.12 Q159.862 1296.12 157.987 1296.53 Q156.135 1296.95 154.19 1297.83 L154.19 1280.47 Z" fill="#000000" fill-rule="evenodd" fill-opacity="1" /><path clip-path="url(#clip180)" d="M 0 0 M126.598 1063.05 Q123.45 1063.05 121.598 1065.2 Q119.769 1067.35 119.769 1071.1 Q119.769 1074.83 121.598 1077 Q123.45 1079.16 126.598 1079.16 Q129.746 1079.16 131.575 1077 Q133.427 1074.83 133.427 1071.1 Q133.427 1067.35 131.575 1065.2 Q129.746 1063.05 126.598 1063.05 M135.88 1048.39 L135.88 1052.65 Q134.121 1051.82 132.316 1051.38 Q130.533 1050.94 128.774 1050.94 Q124.144 1050.94 121.691 1054.07 Q119.26 1057.19 118.913 1063.51 Q120.279 1061.5 122.339 1060.43 Q124.399 1059.34 126.876 1059.34 Q132.084 1059.34 135.093 1062.51 Q138.126 1065.66 138.126 1071.1 Q138.126 1076.43 134.978 1079.64 Q131.83 1082.86 126.598 1082.86 Q120.603 1082.86 117.431 1078.28 Q114.26 1073.67 114.26 1064.94 Q114.26 1056.75 118.149 1051.89 Q122.038 1047.01 128.589 1047.01 Q130.348 1047.01 132.13 1047.35 Q133.936 1047.7 135.88 1048.39 Z" fill="#000000" fill-rule="evenodd" fill-opacity="1" /><path clip-path="url(#clip180)" d="M 0 0 M143.195 1076.31 L148.079 1076.31 L148.079 1082.19 L143.195 1082.19 L143.195 1076.31 Z" fill="#000000" fill-rule="evenodd" fill-opacity="1" /><path clip-path="url(#clip180)" d="M 0 0 M163.149 1050.71 Q159.538 1050.71 157.709 1054.27 Q155.903 1057.82 155.903 1064.94 Q155.903 1072.05 157.709 1075.62 Q159.538 1079.16 163.149 1079.16 Q166.783 1079.16 168.589 1075.62 Q170.417 1072.05 170.417 1064.94 Q170.417 1057.82 168.589 1054.27 Q166.783 1050.71 163.149 1050.71 M163.149 1047.01 Q168.959 1047.01 172.014 1051.61 Q175.093 1056.19 175.093 1064.94 Q175.093 1073.67 172.014 1078.28 Q168.959 1082.86 163.149 1082.86 Q157.339 1082.86 154.26 1078.28 Q151.204 1073.67 151.204 1064.94 Q151.204 1056.19 154.26 1051.61 Q157.339 1047.01 163.149 1047.01 Z" fill="#000000" fill-rule="evenodd" fill-opacity="1" /><path clip-path="url(#clip180)" d="M 0 0 M127.593 830.21 Q124.445 830.21 122.593 832.363 Q120.765 834.515 120.765 838.265 Q120.765 841.992 122.593 844.168 Q124.445 846.321 127.593 846.321 Q130.742 846.321 132.57 844.168 Q134.422 841.992 134.422 838.265 Q134.422 834.515 132.57 832.363 Q130.742 830.21 127.593 830.21 M136.876 815.557 L136.876 819.816 Q135.117 818.983 133.311 818.543 Q131.529 818.103 129.769 818.103 Q125.14 818.103 122.686 821.228 Q120.255 824.353 119.908 830.673 Q121.274 828.659 123.334 827.594 Q125.394 826.506 127.871 826.506 Q133.08 826.506 136.089 829.677 Q139.121 832.826 139.121 838.265 Q139.121 843.589 135.973 846.807 Q132.825 850.024 127.593 850.024 Q121.598 850.024 118.427 845.441 Q115.256 840.835 115.256 832.108 Q115.256 823.914 119.144 819.052 Q123.033 814.168 129.584 814.168 Q131.343 814.168 133.126 814.515 Q134.931 814.863 136.876 815.557 Z" fill="#000000" fill-rule="evenodd" fill-opacity="1" /><path clip-path="url(#clip180)" d="M 0 0 M144.191 843.474 L149.075 843.474 L149.075 849.353 L144.191 849.353 L144.191 843.474 Z" fill="#000000" fill-rule="evenodd" fill-opacity="1" /><path clip-path="url(#clip180)" d="M 0 0 M154.19 814.793 L172.547 814.793 L172.547 818.728 L158.473 818.728 L158.473 827.201 Q159.491 826.853 160.51 826.691 Q161.528 826.506 162.547 826.506 Q168.334 826.506 171.714 829.677 Q175.093 832.849 175.093 838.265 Q175.093 843.844 171.621 846.946 Q168.149 850.024 161.829 850.024 Q159.653 850.024 157.385 849.654 Q155.14 849.284 152.732 848.543 L152.732 843.844 Q154.815 844.978 157.038 845.534 Q159.26 846.089 161.737 846.089 Q165.741 846.089 168.079 843.983 Q170.417 841.876 170.417 838.265 Q170.417 834.654 168.079 832.548 Q165.741 830.441 161.737 830.441 Q159.862 830.441 157.987 830.858 Q156.135 831.275 154.19 832.154 L154.19 814.793 Z" fill="#000000" fill-rule="evenodd" fill-opacity="1" /><path clip-path="url(#clip180)" d="M 0 0 M115.904 581.956 L138.126 581.956 L138.126 583.947 L125.58 616.516 L120.695 616.516 L132.501 585.891 L115.904 585.891 L115.904 581.956 Z" fill="#000000" fill-rule="evenodd" fill-opacity="1" /><path clip-path="url(#clip180)" d="M 0 0 M143.195 610.637 L148.079 610.637 L148.079 616.516 L143.195 616.516 L143.195 610.637 Z" fill="#000000" fill-rule="evenodd" fill-opacity="1" /><path clip-path="url(#clip180)" d="M 0 0 M163.149 585.035 Q159.538 585.035 157.709 588.6 Q155.903 592.141 155.903 599.271 Q155.903 606.377 157.709 609.942 Q159.538 613.484 163.149 613.484 Q166.783 613.484 168.589 609.942 Q170.417 606.377 170.417 599.271 Q170.417 592.141 168.589 588.6 Q166.783 585.035 163.149 585.035 M163.149 581.331 Q168.959 581.331 172.014 585.938 Q175.093 590.521 175.093 599.271 Q175.093 607.998 172.014 612.604 Q168.959 617.188 163.149 617.188 Q157.339 617.188 154.26 612.604 Q151.204 607.998 151.204 599.271 Q151.204 590.521 154.26 585.938 Q157.339 581.331 163.149 581.331 Z" fill="#000000" fill-rule="evenodd" fill-opacity="1" /><path clip-path="url(#clip180)" d="M 0 0 M116.899 349.119 L139.121 349.119 L139.121 351.11 L126.575 383.679 L121.691 383.679 L133.496 353.055 L116.899 353.055 L116.899 349.119 Z" fill="#000000" fill-rule="evenodd" fill-opacity="1" /><path clip-path="url(#clip180)" d="M 0 0 M144.191 377.8 L149.075 377.8 L149.075 383.679 L144.191 383.679 L144.191 377.8 Z" fill="#000000" fill-rule="evenodd" fill-opacity="1" /><path clip-path="url(#clip180)" d="M 0 0 M154.19 349.119 L172.547 349.119 L172.547 353.055 L158.473 353.055 L158.473 361.527 Q159.491 361.18 160.51 361.017 Q161.528 360.832 162.547 360.832 Q168.334 360.832 171.714 364.004 Q175.093 367.175 175.093 372.591 Q175.093 378.17 171.621 381.272 Q168.149 384.351 161.829 384.351 Q159.653 384.351 157.385 383.98 Q155.14 383.61 152.732 382.869 L152.732 378.17 Q154.815 379.304 157.038 379.86 Q159.26 380.416 161.737 380.416 Q165.741 380.416 168.079 378.309 Q170.417 376.203 170.417 372.591 Q170.417 368.98 168.079 366.874 Q165.741 364.767 161.737 364.767 Q159.862 364.767 157.987 365.184 Q156.135 365.601 154.19 366.48 L154.19 349.119 Z" fill="#000000" fill-rule="evenodd" fill-opacity="1" /><path clip-path="url(#clip180)" d="M 0 0 M126.274 134.431 Q122.941 134.431 121.019 136.213 Q119.121 137.995 119.121 141.12 Q119.121 144.245 121.019 146.028 Q122.941 147.81 126.274 147.81 Q129.607 147.81 131.529 146.028 Q133.45 144.222 133.45 141.12 Q133.45 137.995 131.529 136.213 Q129.63 134.431 126.274 134.431 M121.598 132.44 Q118.589 131.699 116.899 129.639 Q115.232 127.579 115.232 124.616 Q115.232 120.472 118.172 118.065 Q121.135 115.657 126.274 115.657 Q131.436 115.657 134.376 118.065 Q137.316 120.472 137.316 124.616 Q137.316 127.579 135.626 129.639 Q133.959 131.699 130.973 132.44 Q134.353 133.227 136.228 135.518 Q138.126 137.81 138.126 141.12 Q138.126 146.143 135.047 148.829 Q131.992 151.514 126.274 151.514 Q120.556 151.514 117.478 148.829 Q114.422 146.143 114.422 141.12 Q114.422 137.81 116.32 135.518 Q118.218 133.227 121.598 132.44 M119.885 125.056 Q119.885 127.741 121.552 129.245 Q123.242 130.75 126.274 130.75 Q129.283 130.75 130.973 129.245 Q132.686 127.741 132.686 125.056 Q132.686 122.37 130.973 120.866 Q129.283 119.361 126.274 119.361 Q123.242 119.361 121.552 120.866 Q119.885 122.37 119.885 125.056 Z" fill="#000000" fill-rule="evenodd" fill-opacity="1" /><path clip-path="url(#clip180)" d="M 0 0 M143.195 144.963 L148.079 144.963 L148.079 150.842 L143.195 150.842 L143.195 144.963 Z" fill="#000000" fill-rule="evenodd" fill-opacity="1" /><path clip-path="url(#clip180)" d="M 0 0 M163.149 119.361 Q159.538 119.361 157.709 122.926 Q155.903 126.468 155.903 133.597 Q155.903 140.704 157.709 144.268 Q159.538 147.81 163.149 147.81 Q166.783 147.81 168.589 144.268 Q170.417 140.704 170.417 133.597 Q170.417 126.468 168.589 122.926 Q166.783 119.361 163.149 119.361 M163.149 115.657 Q168.959 115.657 172.014 120.264 Q175.093 124.847 175.093 133.597 Q175.093 142.324 172.014 146.93 Q168.959 151.514 163.149 151.514 Q157.339 151.514 154.26 146.93 Q151.204 142.324 151.204 133.597 Q151.204 124.847 154.26 120.264 Q157.339 115.657 163.149 115.657 Z" fill="#000000" fill-rule="evenodd" fill-opacity="1" /><path clip-path="url(#clip180)" d="M 0 0 M59.1993 815.533 Q55.2526 813.336 53.3747 810.281 Q51.4968 807.225 51.4968 803.088 Q51.4968 797.518 55.4117 794.494 Q59.2948 791.47 66.4881 791.47 L88.0042 791.47 L88.0042 797.358 L66.679 797.358 Q61.5546 797.358 59.072 799.173 Q56.5894 800.987 56.5894 804.711 Q56.5894 809.262 59.6131 811.904 Q62.6368 814.546 67.8567 814.546 L88.0042 814.546 L88.0042 820.434 L66.679 820.434 Q61.5228 820.434 59.072 822.248 Q56.5894 824.063 56.5894 827.85 Q56.5894 832.338 59.6449 834.98 Q62.6686 837.622 67.8567 837.622 L88.0042 837.622 L88.0042 843.51 L52.3562 843.51 L52.3562 837.622 L57.8944 837.622 Q54.616 835.616 53.0564 832.815 Q51.4968 830.015 51.4968 826.163 Q51.4968 822.28 53.4702 819.575 Q55.4436 816.838 59.1993 815.533 Z" fill="#000000" fill-rule="evenodd" fill-opacity="1" /><path clip-path="url(#clip180)" d="M 0 0 M52.3562 785.327 L52.3562 779.471 L88.0042 779.471 L88.0042 785.327 L52.3562 785.327 M38.479 785.327 L38.479 779.471 L45.895 779.471 L45.895 785.327 L38.479 785.327 Z" fill="#000000" fill-rule="evenodd" fill-opacity="1" /><path clip-path="url(#clip180)" d="M 0 0 M66.4881 743.696 L88.0042 743.696 L88.0042 749.552 L66.679 749.552 Q61.6183 749.552 59.1038 751.525 Q56.5894 753.499 56.5894 757.446 Q56.5894 762.188 59.6131 764.925 Q62.6368 767.662 67.8567 767.662 L88.0042 767.662 L88.0042 773.551 L52.3562 773.551 L52.3562 767.662 L57.8944 767.662 Q54.6797 765.562 53.0883 762.729 Q51.4968 759.864 51.4968 756.141 Q51.4968 749.998 55.3163 746.847 Q59.1038 743.696 66.4881 743.696 Z" fill="#000000" fill-rule="evenodd" fill-opacity="1" /><path clip-path="url(#clip180)" d="M 0 0 M98.8259 710.467 L103.377 710.467 L103.377 744.332 L98.8259 744.332 L98.8259 710.467 Z" fill="#000000" fill-rule="evenodd" fill-opacity="1" /><path clip-path="url(#clip180)" d="M 0 0 M57.7671 680.866 L38.479 680.866 L38.479 675.01 L88.0042 675.01 L88.0042 680.866 L82.657 680.866 Q85.8398 682.712 87.3994 685.545 Q88.9272 688.346 88.9272 692.292 Q88.9272 698.754 83.771 702.828 Q78.6147 706.87 70.212 706.87 Q61.8093 706.87 56.6531 702.828 Q51.4968 698.754 51.4968 692.292 Q51.4968 688.346 53.0564 685.545 Q54.5842 682.712 57.7671 680.866 M70.212 700.823 Q76.6732 700.823 80.3653 698.181 Q84.0256 695.507 84.0256 690.86 Q84.0256 686.213 80.3653 683.54 Q76.6732 680.866 70.212 680.866 Q63.7508 680.866 60.0905 683.54 Q56.3984 686.213 56.3984 690.86 Q56.3984 695.507 60.0905 698.181 Q63.7508 700.823 70.212 700.823 Z" fill="#000000" fill-rule="evenodd" fill-opacity="1" /><path clip-path="url(#clip180)" d="M 0 0 M52.3562 668.867 L52.3562 663.01 L88.0042 663.01 L88.0042 668.867 L52.3562 668.867 M38.479 668.867 L38.479 663.01 L45.895 663.01 L45.895 668.867 L38.479 668.867 Z" fill="#000000" fill-rule="evenodd" fill-opacity="1" /><path clip-path="url(#clip180)" d="M 0 0 M38.479 638.821 L43.3487 638.821 L43.3487 644.422 Q43.3487 647.573 44.6219 648.815 Q45.895 650.024 49.2052 650.024 L52.3562 650.024 L52.3562 640.38 L56.9077 640.38 L56.9077 650.024 L88.0042 650.024 L88.0042 655.912 L56.9077 655.912 L56.9077 661.514 L52.3562 661.514 L52.3562 655.912 L49.8736 655.912 Q43.9216 655.912 41.2162 653.143 Q38.479 650.374 38.479 644.359 L38.479 638.821 Z" fill="#000000" fill-rule="evenodd" fill-opacity="1" /><path clip-path="url(#clip180)" d="M 0 0 M38.479 614.631 L43.3487 614.631 L43.3487 620.233 Q43.3487 623.384 44.6219 624.625 Q45.895 625.835 49.2052 625.835 L52.3562 625.835 L52.3562 616.19 L56.9077 616.19 L56.9077 625.835 L88.0042 625.835 L88.0042 631.723 L56.9077 631.723 L56.9077 637.325 L52.3562 637.325 L52.3562 631.723 L49.8736 631.723 Q43.9216 631.723 41.2162 628.954 Q38.479 626.185 38.479 620.169 L38.479 614.631 Z" fill="#000000" fill-rule="evenodd" fill-opacity="1" /><polyline clip-path="url(#clip182)" style="stroke:#009af9; stroke-width:20; stroke-opacity:1; fill:none" stroke-dasharray="80, 50" points="
  271.706,990.564 271.706,1329.92 608.446,1001.34 945.185,1372.3 1281.92,1100.19 1618.66,1257.19 1955.4,950.039 2292.14,85.838 
  "/>
<path clip-path="url(#clip180)" d="
M1992.39 213.659 L2281.37 213.659 L2281.37 92.6992 L1992.39 92.6992  Z
  " fill="#ffffff" fill-rule="evenodd" fill-opacity="1"/>
<polyline clip-path="url(#clip180)" style="stroke:#000000; stroke-width:4; stroke-opacity:1; fill:none" points="
  1992.39,213.659 2281.37,213.659 2281.37,92.6992 1992.39,92.6992 1992.39,213.659 
  "/>
<polyline clip-path="url(#clip180)" style="stroke:#009af9; stroke-width:4; stroke-opacity:1; fill:none" stroke-dasharray="16, 10" points="
  2016.18,153.179 2158.96,153.179 
  "/>
<path clip-path="url(#clip180)" d="M 0 0 M2196.6 172.867 Q2194.79 177.496 2193.08 178.908 Q2191.37 180.32 2188.5 180.32 L2185.09 180.32 L2185.09 176.755 L2187.59 176.755 Q2189.35 176.755 2190.33 175.922 Q2191.3 175.089 2192.48 171.987 L2193.24 170.043 L2182.76 144.533 L2187.27 144.533 L2195.37 164.811 L2203.47 144.533 L2207.99 144.533 L2196.6 172.867 Z" fill="#000000" fill-rule="evenodd" fill-opacity="1" /><path clip-path="url(#clip180)" d="M 0 0 M2213.87 166.524 L2221.51 166.524 L2221.51 140.158 L2213.2 141.825 L2213.2 137.566 L2221.46 135.899 L2226.14 135.899 L2226.14 166.524 L2233.77 166.524 L2233.77 170.459 L2213.87 170.459 L2213.87 166.524 Z" fill="#000000" fill-rule="evenodd" fill-opacity="1" /></svg>
