<?xml version="1.0" encoding="utf-8"?>
<svg xmlns="http://www.w3.org/2000/svg" xmlns:xlink="http://www.w3.org/1999/xlink" width="600" height="400" viewBox="0 0 2400 1600">
<defs>
  <clipPath id="clip830">
    <rect x="0" y="0" width="2400" height="1600"/>
  </clipPath>
</defs>
<path clip-path="url(#clip830)" d="
M0 1600 L2400 1600 L2400 0 L0 0  Z
  " fill="#ffffff" fill-rule="evenodd" fill-opacity="1"/>
<defs>
  <clipPath id="clip831">
    <rect x="480" y="0" width="1681" height="1600"/>
  </clipPath>
</defs>
<path clip-path="url(#clip830)" d="
M224.866 1410.9 L2352.76 1410.9 L2352.76 47.2441 L224.866 47.2441  Z
  " fill="#ffffff" fill-rule="evenodd" fill-opacity="1"/>
<defs>
  <clipPath id="clip832">
    <rect x="224" y="47" width="2129" height="1365"/>
  </clipPath>
</defs>
<polyline clip-path="url(#clip832)" style="stroke:#000000; stroke-width:2; stroke-opacity:0.1; fill:none" points="
  485.834,1410.9 485.834,47.2441 
  "/>
<polyline clip-path="url(#clip832)" style="stroke:#000000; stroke-width:2; stroke-opacity:0.1; fill:none" points="
  887.322,1410.9 887.322,47.2441 
  "/>
<polyline clip-path="url(#clip832)" style="stroke:#000000; stroke-width:2; stroke-opacity:0.1; fill:none" points="
  1288.81,1410.9 1288.81,47.2441 
  "/>
<polyline clip-path="url(#clip832)" style="stroke:#000000; stroke-width:2; stroke-opacity:0.1; fill:none" points="
  1690.3,1410.9 1690.3,47.2441 
  "/>
<polyline clip-path="url(#clip832)" style="stroke:#000000; stroke-width:2; stroke-opacity:0.1; fill:none" points="
  2091.79,1410.9 2091.79,47.2441 
  "/>
<polyline clip-path="url(#clip830)" style="stroke:#000000; stroke-width:4; stroke-opacity:1; fill:none" points="
  224.866,1410.9 2352.76,1410.9 
  "/>
<polyline clip-path="url(#clip830)" style="stroke:#000000; stroke-width:4; stroke-opacity:1; fill:none" points="
  485.834,1410.9 485.834,1394.53 
  "/>
<polyline clip-path="url(#clip830)" style="stroke:#000000; stroke-width:4; stroke-opacity:1; fill:none" points="
  887.322,1410.9 887.322,1394.53 
  "/>
<polyline clip-path="url(#clip830)" style="stroke:#000000; stroke-width:4; stroke-opacity:1; fill:none" points="
  1288.81,1410.9 1288.81,1394.53 
  "/>
<polyline clip-path="url(#clip830)" style="stroke:#000000; stroke-width:4; stroke-opacity:1; fill:none" points="
  1690.3,1410.9 1690.3,1394.53 
  "/>
<polyline clip-path="url(#clip830)" style="stroke:#000000; stroke-width:4; stroke-opacity:1; fill:none" points="
  2091.79,1410.9 2091.79,1394.53 
  "/>
<path clip-path="url(#clip830)" d="M 0 0 M425.573 1489.17 L433.212 1489.17 L433.212 1462.8 L424.902 1464.47 L424.902 1460.21 L433.166 1458.54 L437.841 1458.54 L437.841 1489.17 L445.48 1489.17 L445.48 1493.1 L425.573 1493.1 L425.573 1489.17 Z" fill="#000000" fill-rule="evenodd" fill-opacity="1" /><path clip-path="url(#clip830)" d="M 0 0 M460.55 1461.62 Q456.939 1461.62 455.11 1465.19 Q453.304 1468.73 453.304 1475.86 Q453.304 1482.97 455.11 1486.53 Q456.939 1490.07 460.55 1490.07 Q464.184 1490.07 465.989 1486.53 Q467.818 1482.97 467.818 1475.86 Q467.818 1468.73 465.989 1465.19 Q464.184 1461.62 460.55 1461.62 M460.55 1457.92 Q466.36 1457.92 469.415 1462.53 Q472.494 1467.11 472.494 1475.86 Q472.494 1484.59 469.415 1489.19 Q466.36 1493.78 460.55 1493.78 Q454.74 1493.78 451.661 1489.19 Q448.605 1484.59 448.605 1475.86 Q448.605 1467.11 451.661 1462.53 Q454.74 1457.92 460.55 1457.92 Z" fill="#000000" fill-rule="evenodd" fill-opacity="1" /><path clip-path="url(#clip830)" d="M 0 0 M472.494 1452.02 L496.606 1452.02 L496.606 1455.22 L472.494 1455.22 L472.494 1452.02 Z" fill="#000000" fill-rule="evenodd" fill-opacity="1" /><path clip-path="url(#clip830)" d="M 0 0 M512.235 1450.55 Q514.962 1451.14 516.485 1452.98 Q518.028 1454.82 518.028 1457.53 Q518.028 1461.69 515.169 1463.96 Q512.31 1466.24 507.044 1466.24 Q505.276 1466.24 503.395 1465.88 Q501.533 1465.54 499.54 1464.85 L499.54 1461.18 Q501.119 1462.1 503 1462.57 Q504.881 1463.04 506.931 1463.04 Q510.505 1463.04 512.367 1461.63 Q514.247 1460.22 514.247 1457.53 Q514.247 1455.05 512.498 1453.66 Q510.768 1452.25 507.665 1452.25 L504.392 1452.25 L504.392 1449.12 L507.815 1449.12 Q510.617 1449.12 512.103 1448.01 Q513.589 1446.89 513.589 1444.78 Q513.589 1442.62 512.047 1441.47 Q510.523 1440.3 507.665 1440.3 Q506.104 1440.3 504.317 1440.64 Q502.53 1440.98 500.386 1441.69 L500.386 1438.31 Q502.549 1437.71 504.43 1437.41 Q506.329 1437.11 508.003 1437.11 Q512.329 1437.11 514.849 1439.08 Q517.369 1441.04 517.369 1444.38 Q517.369 1446.72 516.034 1448.33 Q514.699 1449.93 512.235 1450.55 Z" fill="#000000" fill-rule="evenodd" fill-opacity="1" /><path clip-path="url(#clip830)" d="M 0 0 M522.147 1460.92 L526.115 1460.92 L526.115 1465.69 L522.147 1465.69 L522.147 1460.92 Z" fill="#000000" fill-rule="evenodd" fill-opacity="1" /><path clip-path="url(#clip830)" d="M 0 0 M533.506 1462.5 L546.766 1462.5 L546.766 1465.69 L528.936 1465.69 L528.936 1462.5 Q531.099 1460.26 534.823 1456.5 Q538.566 1452.72 539.525 1451.63 Q541.349 1449.58 542.064 1448.16 Q542.798 1446.74 542.798 1445.36 Q542.798 1443.12 541.218 1441.71 Q539.657 1440.3 537.136 1440.3 Q535.35 1440.3 533.356 1440.92 Q531.381 1441.54 529.124 1442.8 L529.124 1438.97 Q531.419 1438.05 533.412 1437.58 Q535.406 1437.11 537.061 1437.11 Q541.425 1437.11 544.02 1439.29 Q546.615 1441.47 546.615 1445.12 Q546.615 1446.85 545.957 1448.41 Q545.318 1449.95 543.606 1452.06 Q543.136 1452.6 540.616 1455.22 Q538.096 1457.81 533.506 1462.5 Z" fill="#000000" fill-rule="evenodd" fill-opacity="1" /><path clip-path="url(#clip830)" d="M 0 0 M826.911 1489.17 L834.55 1489.17 L834.55 1462.8 L826.24 1464.47 L826.24 1460.21 L834.504 1458.54 L839.18 1458.54 L839.18 1489.17 L846.818 1489.17 L846.818 1493.1 L826.911 1493.1 L826.911 1489.17 Z" fill="#000000" fill-rule="evenodd" fill-opacity="1" /><path clip-path="url(#clip830)" d="M 0 0 M861.888 1461.62 Q858.277 1461.62 856.448 1465.19 Q854.643 1468.73 854.643 1475.86 Q854.643 1482.97 856.448 1486.53 Q858.277 1490.07 861.888 1490.07 Q865.522 1490.07 867.328 1486.53 Q869.156 1482.97 869.156 1475.86 Q869.156 1468.73 867.328 1465.19 Q865.522 1461.62 861.888 1461.62 M861.888 1457.92 Q867.698 1457.92 870.754 1462.53 Q873.832 1467.11 873.832 1475.86 Q873.832 1484.59 870.754 1489.19 Q867.698 1493.78 861.888 1493.78 Q856.078 1493.78 852.999 1489.19 Q849.943 1484.59 849.943 1475.86 Q849.943 1467.11 852.999 1462.53 Q856.078 1457.92 861.888 1457.92 Z" fill="#000000" fill-rule="evenodd" fill-opacity="1" /><path clip-path="url(#clip830)" d="M 0 0 M873.832 1452.02 L897.944 1452.02 L897.944 1455.22 L873.832 1455.22 L873.832 1452.02 Z" fill="#000000" fill-rule="evenodd" fill-opacity="1" /><path clip-path="url(#clip830)" d="M 0 0 M913.573 1450.55 Q916.3 1451.14 917.824 1452.98 Q919.366 1454.82 919.366 1457.53 Q919.366 1461.69 916.507 1463.96 Q913.648 1466.24 908.382 1466.24 Q906.614 1466.24 904.733 1465.88 Q902.871 1465.54 900.878 1464.85 L900.878 1461.18 Q902.458 1462.1 904.338 1462.57 Q906.219 1463.04 908.269 1463.04 Q911.843 1463.04 913.705 1461.63 Q915.585 1460.22 915.585 1457.53 Q915.585 1455.05 913.836 1453.66 Q912.106 1452.25 909.003 1452.25 L905.73 1452.25 L905.73 1449.12 L909.153 1449.12 Q911.956 1449.12 913.441 1448.01 Q914.927 1446.89 914.927 1444.78 Q914.927 1442.62 913.385 1441.47 Q911.862 1440.3 909.003 1440.3 Q907.442 1440.3 905.655 1440.64 Q903.868 1440.98 901.724 1441.69 L901.724 1438.31 Q903.887 1437.71 905.768 1437.41 Q907.667 1437.11 909.341 1437.11 Q913.667 1437.11 916.187 1439.08 Q918.708 1441.04 918.708 1444.38 Q918.708 1446.72 917.372 1448.33 Q916.037 1449.93 913.573 1450.55 Z" fill="#000000" fill-rule="evenodd" fill-opacity="1" /><path clip-path="url(#clip830)" d="M 0 0 M923.485 1460.92 L927.453 1460.92 L927.453 1465.69 L923.485 1465.69 L923.485 1460.92 Z" fill="#000000" fill-rule="evenodd" fill-opacity="1" /><path clip-path="url(#clip830)" d="M 0 0 M932.23 1462.5 L938.437 1462.5 L938.437 1441.07 L931.685 1442.43 L931.685 1438.97 L938.399 1437.61 L942.198 1437.61 L942.198 1462.5 L948.405 1462.5 L948.405 1465.69 L932.23 1465.69 L932.23 1462.5 Z" fill="#000000" fill-rule="evenodd" fill-opacity="1" /><path clip-path="url(#clip830)" d="M 0 0 M1227.9 1489.17 L1235.54 1489.17 L1235.54 1462.8 L1227.23 1464.47 L1227.23 1460.21 L1235.49 1458.54 L1240.17 1458.54 L1240.17 1489.17 L1247.81 1489.17 L1247.81 1493.1 L1227.9 1493.1 L1227.9 1489.17 Z" fill="#000000" fill-rule="evenodd" fill-opacity="1" /><path clip-path="url(#clip830)" d="M 0 0 M1262.88 1461.62 Q1259.27 1461.62 1257.44 1465.19 Q1255.63 1468.73 1255.63 1475.86 Q1255.63 1482.97 1257.44 1486.53 Q1259.27 1490.07 1262.88 1490.07 Q1266.51 1490.07 1268.32 1486.53 Q1270.15 1482.97 1270.15 1475.86 Q1270.15 1468.73 1268.32 1465.19 Q1266.51 1461.62 1262.88 1461.62 M1262.88 1457.92 Q1268.69 1457.92 1271.74 1462.53 Q1274.82 1467.11 1274.82 1475.86 Q1274.82 1484.59 1271.74 1489.19 Q1268.69 1493.78 1262.88 1493.78 Q1257.07 1493.78 1253.99 1489.19 Q1250.93 1484.59 1250.93 1475.86 Q1250.93 1467.11 1253.99 1462.53 Q1257.07 1457.92 1262.88 1457.92 Z" fill="#000000" fill-rule="evenodd" fill-opacity="1" /><path clip-path="url(#clip830)" d="M 0 0 M1274.82 1452.02 L1298.93 1452.02 L1298.93 1455.22 L1274.82 1455.22 L1274.82 1452.02 Z" fill="#000000" fill-rule="evenodd" fill-opacity="1" /><path clip-path="url(#clip830)" d="M 0 0 M1314.56 1450.55 Q1317.29 1451.14 1318.81 1452.98 Q1320.36 1454.82 1320.36 1457.53 Q1320.36 1461.69 1317.5 1463.96 Q1314.64 1466.24 1309.37 1466.24 Q1307.6 1466.24 1305.72 1465.88 Q1303.86 1465.54 1301.87 1464.85 L1301.87 1461.18 Q1303.45 1462.1 1305.33 1462.57 Q1307.21 1463.04 1309.26 1463.04 Q1312.83 1463.04 1314.69 1461.63 Q1316.58 1460.22 1316.58 1457.53 Q1316.58 1455.05 1314.83 1453.66 Q1313.1 1452.25 1309.99 1452.25 L1306.72 1452.25 L1306.72 1449.12 L1310.14 1449.12 Q1312.95 1449.12 1314.43 1448.01 Q1315.92 1446.89 1315.92 1444.78 Q1315.92 1442.62 1314.38 1441.47 Q1312.85 1440.3 1309.99 1440.3 Q1308.43 1440.3 1306.65 1440.64 Q1304.86 1440.98 1302.71 1441.69 L1302.71 1438.31 Q1304.88 1437.71 1306.76 1437.41 Q1308.66 1437.11 1310.33 1437.11 Q1314.66 1437.11 1317.18 1439.08 Q1319.7 1441.04 1319.7 1444.38 Q1319.7 1446.72 1318.36 1448.33 Q1317.03 1449.93 1314.56 1450.55 Z" fill="#000000" fill-rule="evenodd" fill-opacity="1" /><path clip-path="url(#clip830)" d="M 0 0 M1324.47 1460.92 L1328.44 1460.92 L1328.44 1465.69 L1324.47 1465.69 L1324.47 1460.92 Z" fill="#000000" fill-rule="evenodd" fill-opacity="1" /><path clip-path="url(#clip830)" d="M 0 0 M1340.69 1440.11 Q1337.75 1440.11 1336.27 1443.01 Q1334.8 1445.89 1334.8 1451.68 Q1334.8 1457.46 1336.27 1460.35 Q1337.75 1463.23 1340.69 1463.23 Q1343.64 1463.23 1345.11 1460.35 Q1346.59 1457.46 1346.59 1451.68 Q1346.59 1445.89 1345.11 1443.01 Q1343.64 1440.11 1340.69 1440.11 M1340.69 1437.11 Q1345.41 1437.11 1347.89 1440.85 Q1350.39 1444.57 1350.39 1451.68 Q1350.39 1458.77 1347.89 1462.51 Q1345.41 1466.24 1340.69 1466.24 Q1335.97 1466.24 1333.47 1462.51 Q1330.98 1458.77 1330.98 1451.68 Q1330.98 1444.57 1333.47 1440.85 Q1335.97 1437.11 1340.69 1437.11 Z" fill="#000000" fill-rule="evenodd" fill-opacity="1" /><path clip-path="url(#clip830)" d="M 0 0 M1629.85 1489.17 L1637.49 1489.17 L1637.49 1462.8 L1629.18 1464.47 L1629.18 1460.21 L1637.44 1458.54 L1642.12 1458.54 L1642.12 1489.17 L1649.76 1489.17 L1649.76 1493.1 L1629.85 1493.1 L1629.85 1489.17 Z" fill="#000000" fill-rule="evenodd" fill-opacity="1" /><path clip-path="url(#clip830)" d="M 0 0 M1664.83 1461.62 Q1661.22 1461.62 1659.39 1465.19 Q1657.58 1468.73 1657.58 1475.86 Q1657.58 1482.97 1659.39 1486.53 Q1661.22 1490.07 1664.83 1490.07 Q1668.46 1490.07 1670.27 1486.53 Q1672.1 1482.97 1672.1 1475.86 Q1672.1 1468.73 1670.27 1465.19 Q1668.46 1461.62 1664.83 1461.62 M1664.83 1457.92 Q1670.64 1457.92 1673.69 1462.53 Q1676.77 1467.11 1676.77 1475.86 Q1676.77 1484.59 1673.69 1489.19 Q1670.64 1493.78 1664.83 1493.78 Q1659.02 1493.78 1655.94 1489.19 Q1652.88 1484.59 1652.88 1475.86 Q1652.88 1467.11 1655.94 1462.53 Q1659.02 1457.92 1664.83 1457.92 Z" fill="#000000" fill-rule="evenodd" fill-opacity="1" /><path clip-path="url(#clip830)" d="M 0 0 M1676.77 1452.02 L1700.88 1452.02 L1700.88 1455.22 L1676.77 1455.22 L1676.77 1452.02 Z" fill="#000000" fill-rule="evenodd" fill-opacity="1" /><path clip-path="url(#clip830)" d="M 0 0 M1708.27 1462.5 L1721.53 1462.5 L1721.53 1465.69 L1703.7 1465.69 L1703.7 1462.5 Q1705.87 1460.26 1709.59 1456.5 Q1713.33 1452.72 1714.29 1451.63 Q1716.12 1449.58 1716.83 1448.16 Q1717.57 1446.74 1717.57 1445.36 Q1717.57 1443.12 1715.99 1441.71 Q1714.42 1440.3 1711.9 1440.3 Q1710.12 1440.3 1708.12 1440.92 Q1706.15 1441.54 1703.89 1442.8 L1703.89 1438.97 Q1706.19 1438.05 1708.18 1437.58 Q1710.17 1437.11 1711.83 1437.11 Q1716.19 1437.11 1718.79 1439.29 Q1721.38 1441.47 1721.38 1445.12 Q1721.38 1446.85 1720.73 1448.41 Q1720.09 1449.95 1718.37 1452.06 Q1717.9 1452.6 1715.38 1455.22 Q1712.86 1457.81 1708.27 1462.5 Z" fill="#000000" fill-rule="evenodd" fill-opacity="1" /><path clip-path="url(#clip830)" d="M 0 0 M1725.65 1460.92 L1729.62 1460.92 L1729.62 1465.69 L1725.65 1465.69 L1725.65 1460.92 Z" fill="#000000" fill-rule="evenodd" fill-opacity="1" /><path clip-path="url(#clip830)" d="M 0 0 M1733.85 1465.11 L1733.85 1461.65 Q1735.28 1462.33 1736.75 1462.68 Q1738.22 1463.04 1739.63 1463.04 Q1743.39 1463.04 1745.36 1460.52 Q1747.36 1457.98 1747.64 1452.83 Q1746.55 1454.45 1744.87 1455.31 Q1743.2 1456.18 1741.17 1456.18 Q1736.96 1456.18 1734.49 1453.64 Q1732.05 1451.08 1732.05 1446.66 Q1732.05 1442.33 1734.61 1439.72 Q1737.16 1437.11 1741.41 1437.11 Q1746.29 1437.11 1748.84 1440.85 Q1751.42 1444.57 1751.42 1451.68 Q1751.42 1458.32 1748.26 1462.29 Q1745.12 1466.24 1739.8 1466.24 Q1738.37 1466.24 1736.9 1465.96 Q1735.43 1465.67 1733.85 1465.11 M1741.41 1453.21 Q1743.97 1453.21 1745.46 1451.46 Q1746.96 1449.71 1746.96 1446.66 Q1746.96 1443.63 1745.46 1441.88 Q1743.97 1440.11 1741.41 1440.11 Q1738.86 1440.11 1737.35 1441.88 Q1735.87 1443.63 1735.87 1446.66 Q1735.87 1449.71 1737.35 1451.46 Q1738.86 1453.21 1741.41 1453.21 Z" fill="#000000" fill-rule="evenodd" fill-opacity="1" /><path clip-path="url(#clip830)" d="M 0 0 M2031.3 1489.17 L2038.94 1489.17 L2038.94 1462.8 L2030.63 1464.47 L2030.63 1460.21 L2038.89 1458.54 L2043.57 1458.54 L2043.57 1489.17 L2051.21 1489.17 L2051.21 1493.1 L2031.3 1493.1 L2031.3 1489.17 Z" fill="#000000" fill-rule="evenodd" fill-opacity="1" /><path clip-path="url(#clip830)" d="M 0 0 M2066.28 1461.62 Q2062.67 1461.62 2060.84 1465.19 Q2059.03 1468.73 2059.03 1475.86 Q2059.03 1482.97 2060.84 1486.53 Q2062.67 1490.07 2066.28 1490.07 Q2069.91 1490.07 2071.72 1486.53 Q2073.55 1482.97 2073.55 1475.86 Q2073.55 1468.73 2071.72 1465.19 Q2069.91 1461.62 2066.28 1461.62 M2066.28 1457.92 Q2072.09 1457.92 2075.14 1462.53 Q2078.22 1467.11 2078.22 1475.86 Q2078.22 1484.59 2075.14 1489.19 Q2072.09 1493.78 2066.28 1493.78 Q2060.47 1493.78 2057.39 1489.19 Q2054.33 1484.59 2054.33 1475.86 Q2054.33 1467.11 2057.39 1462.53 Q2060.47 1457.92 2066.28 1457.92 Z" fill="#000000" fill-rule="evenodd" fill-opacity="1" /><path clip-path="url(#clip830)" d="M 0 0 M2078.22 1452.02 L2102.33 1452.02 L2102.33 1455.22 L2078.22 1455.22 L2078.22 1452.02 Z" fill="#000000" fill-rule="evenodd" fill-opacity="1" /><path clip-path="url(#clip830)" d="M 0 0 M2109.73 1462.5 L2122.99 1462.5 L2122.99 1465.69 L2105.16 1465.69 L2105.16 1462.5 Q2107.32 1460.26 2111.04 1456.5 Q2114.79 1452.72 2115.74 1451.63 Q2117.57 1449.58 2118.28 1448.16 Q2119.02 1446.74 2119.02 1445.36 Q2119.02 1443.12 2117.44 1441.71 Q2115.88 1440.3 2113.36 1440.3 Q2111.57 1440.3 2109.58 1440.92 Q2107.6 1441.54 2105.34 1442.8 L2105.34 1438.97 Q2107.64 1438.05 2109.63 1437.58 Q2111.63 1437.11 2113.28 1437.11 Q2117.64 1437.11 2120.24 1439.29 Q2122.83 1441.47 2122.83 1445.12 Q2122.83 1446.85 2122.18 1448.41 Q2121.54 1449.95 2119.83 1452.06 Q2119.36 1452.6 2116.84 1455.22 Q2114.31 1457.81 2109.73 1462.5 Z" fill="#000000" fill-rule="evenodd" fill-opacity="1" /><path clip-path="url(#clip830)" d="M 0 0 M2127.1 1460.92 L2131.07 1460.92 L2131.07 1465.69 L2127.1 1465.69 L2127.1 1460.92 Z" fill="#000000" fill-rule="evenodd" fill-opacity="1" /><path clip-path="url(#clip830)" d="M 0 0 M2143.32 1452.36 Q2140.61 1452.36 2139.05 1453.81 Q2137.5 1455.26 2137.5 1457.79 Q2137.5 1460.33 2139.05 1461.78 Q2140.61 1463.23 2143.32 1463.23 Q2146.02 1463.23 2147.59 1461.78 Q2149.15 1460.31 2149.15 1457.79 Q2149.15 1455.26 2147.59 1453.81 Q2146.04 1452.36 2143.32 1452.36 M2139.52 1450.74 Q2137.07 1450.14 2135.7 1448.47 Q2134.35 1446.79 2134.35 1444.38 Q2134.35 1441.02 2136.73 1439.06 Q2139.14 1437.11 2143.32 1437.11 Q2147.51 1437.11 2149.9 1439.06 Q2152.29 1441.02 2152.29 1444.38 Q2152.29 1446.79 2150.91 1448.47 Q2149.56 1450.14 2147.13 1450.74 Q2149.88 1451.38 2151.4 1453.24 Q2152.95 1455.1 2152.95 1457.79 Q2152.95 1461.88 2150.44 1464.06 Q2147.96 1466.24 2143.32 1466.24 Q2138.67 1466.24 2136.17 1464.06 Q2133.69 1461.88 2133.69 1457.79 Q2133.69 1455.1 2135.23 1453.24 Q2136.77 1451.38 2139.52 1450.74 M2138.13 1444.74 Q2138.13 1446.92 2139.48 1448.15 Q2140.85 1449.37 2143.32 1449.37 Q2145.76 1449.37 2147.13 1448.15 Q2148.53 1446.92 2148.53 1444.74 Q2148.53 1442.56 2147.13 1441.34 Q2145.76 1440.11 2143.32 1440.11 Q2140.85 1440.11 2139.48 1441.34 Q2138.13 1442.56 2138.13 1444.74 Z" fill="#000000" fill-rule="evenodd" fill-opacity="1" /><path clip-path="url(#clip830)" d="M 0 0 M1181.09 1526.54 L1187.29 1526.54 L1198.43 1556.46 L1209.57 1526.54 L1215.78 1526.54 L1202.41 1562.19 L1194.46 1562.19 L1181.09 1526.54 Z" fill="#000000" fill-rule="evenodd" fill-opacity="1" /><path clip-path="url(#clip830)" d="M 0 0 M1249.01 1573.01 L1249.01 1577.56 L1215.14 1577.56 L1215.14 1573.01 L1249.01 1573.01 Z" fill="#000000" fill-rule="evenodd" fill-opacity="1" /><path clip-path="url(#clip830)" d="M 0 0 M1280.81 1527.91 L1280.81 1533.38 Q1278.32 1532.01 1275.81 1531.34 Q1273.33 1530.64 1270.78 1530.64 Q1265.08 1530.64 1261.93 1534.27 Q1258.78 1537.87 1258.78 1544.39 Q1258.78 1550.92 1261.93 1554.55 Q1265.08 1558.14 1270.78 1558.14 Q1273.33 1558.14 1275.81 1557.47 Q1278.32 1556.77 1280.81 1555.41 L1280.81 1560.82 Q1278.36 1561.96 1275.71 1562.54 Q1273.1 1563.11 1270.14 1563.11 Q1262.09 1563.11 1257.35 1558.05 Q1252.61 1552.99 1252.61 1544.39 Q1252.61 1535.67 1257.38 1530.68 Q1262.19 1525.68 1270.53 1525.68 Q1273.23 1525.68 1275.81 1526.25 Q1278.39 1526.79 1280.81 1527.91 Z" fill="#000000" fill-rule="evenodd" fill-opacity="1" /><path clip-path="url(#clip830)" d="M 0 0 M1286.95 1512.66 L1292.81 1512.66 L1292.81 1562.19 L1286.95 1562.19 L1286.95 1512.66 Z" fill="#000000" fill-rule="evenodd" fill-opacity="1" /><path clip-path="url(#clip830)" d="M 0 0 M1312.76 1530.64 Q1308.05 1530.64 1305.31 1534.34 Q1302.58 1538 1302.58 1544.39 Q1302.58 1550.79 1305.28 1554.48 Q1308.02 1558.14 1312.76 1558.14 Q1317.44 1558.14 1320.18 1554.45 Q1322.92 1550.76 1322.92 1544.39 Q1322.92 1538.06 1320.18 1534.37 Q1317.44 1530.64 1312.76 1530.64 M1312.76 1525.68 Q1320.4 1525.68 1324.76 1530.64 Q1329.12 1535.61 1329.12 1544.39 Q1329.12 1553.15 1324.76 1558.14 Q1320.4 1563.11 1312.76 1563.11 Q1305.09 1563.11 1300.73 1558.14 Q1296.4 1553.15 1296.4 1544.39 Q1296.4 1535.61 1300.73 1530.64 Q1305.09 1525.68 1312.76 1525.68 Z" fill="#000000" fill-rule="evenodd" fill-opacity="1" /><path clip-path="url(#clip830)" d="M 0 0 M1357.99 1527.59 L1357.99 1533.13 Q1355.51 1531.85 1352.83 1531.22 Q1350.16 1530.58 1347.3 1530.58 Q1342.94 1530.58 1340.74 1531.92 Q1338.57 1533.25 1338.57 1535.93 Q1338.57 1537.96 1340.13 1539.14 Q1341.69 1540.29 1346.4 1541.34 L1348.41 1541.78 Q1354.65 1543.12 1357.26 1545.57 Q1359.9 1547.99 1359.9 1552.35 Q1359.9 1557.32 1355.95 1560.21 Q1352.04 1563.11 1345.16 1563.11 Q1342.3 1563.11 1339.18 1562.54 Q1336.09 1561.99 1332.65 1560.88 L1332.65 1554.83 Q1335.9 1556.52 1339.05 1557.38 Q1342.2 1558.21 1345.29 1558.21 Q1349.43 1558.21 1351.66 1556.81 Q1353.88 1555.37 1353.88 1552.8 Q1353.88 1550.41 1352.26 1549.14 Q1350.67 1547.86 1345.23 1546.68 L1343.19 1546.21 Q1337.75 1545.06 1335.33 1542.71 Q1332.91 1540.32 1332.91 1536.18 Q1332.91 1531.15 1336.47 1528.42 Q1340.04 1525.68 1346.6 1525.68 Q1349.84 1525.68 1352.71 1526.16 Q1355.57 1526.63 1357.99 1527.59 Z" fill="#000000" fill-rule="evenodd" fill-opacity="1" /><path clip-path="url(#clip830)" d="M 0 0 M1396.53 1542.9 L1396.53 1545.76 L1369.61 1545.76 Q1369.99 1551.81 1373.24 1554.99 Q1376.51 1558.14 1382.34 1558.14 Q1385.71 1558.14 1388.86 1557.32 Q1392.05 1556.49 1395.17 1554.83 L1395.17 1560.37 Q1392.02 1561.71 1388.7 1562.41 Q1385.39 1563.11 1381.99 1563.11 Q1373.46 1563.11 1368.46 1558.14 Q1363.5 1553.18 1363.5 1544.71 Q1363.5 1535.96 1368.21 1530.83 Q1372.95 1525.68 1380.97 1525.68 Q1388.16 1525.68 1392.33 1530.33 Q1396.53 1534.94 1396.53 1542.9 M1390.68 1541.18 Q1390.61 1536.37 1387.97 1533.51 Q1385.36 1530.64 1381.03 1530.64 Q1376.13 1530.64 1373.17 1533.41 Q1370.24 1536.18 1369.8 1541.21 L1390.68 1541.18 Z" fill="#000000" fill-rule="evenodd" fill-opacity="1" /><polyline clip-path="url(#clip832)" style="stroke:#000000; stroke-width:2; stroke-opacity:0.1; fill:none" points="
  224.866,1149.68 2352.76,1149.68 
  "/>
<polyline clip-path="url(#clip832)" style="stroke:#000000; stroke-width:2; stroke-opacity:0.1; fill:none" points="
  224.866,830.376 2352.76,830.376 
  "/>
<polyline clip-path="url(#clip832)" style="stroke:#000000; stroke-width:2; stroke-opacity:0.1; fill:none" points="
  224.866,511.076 2352.76,511.076 
  "/>
<polyline clip-path="url(#clip832)" style="stroke:#000000; stroke-width:2; stroke-opacity:0.1; fill:none" points="
  224.866,191.776 2352.76,191.776 
  "/>
<polyline clip-path="url(#clip830)" style="stroke:#000000; stroke-width:4; stroke-opacity:1; fill:none" points="
  224.866,1410.9 224.866,47.2441 
  "/>
<polyline clip-path="url(#clip830)" style="stroke:#000000; stroke-width:4; stroke-opacity:1; fill:none" points="
  224.866,1149.68 250.401,1149.68 
  "/>
<polyline clip-path="url(#clip830)" style="stroke:#000000; stroke-width:4; stroke-opacity:1; fill:none" points="
  224.866,830.376 250.401,830.376 
  "/>
<polyline clip-path="url(#clip830)" style="stroke:#000000; stroke-width:4; stroke-opacity:1; fill:none" points="
  224.866,511.076 250.401,511.076 
  "/>
<polyline clip-path="url(#clip830)" style="stroke:#000000; stroke-width:4; stroke-opacity:1; fill:none" points="
  224.866,191.776 250.401,191.776 
  "/>
<path clip-path="url(#clip830)" d="M 0 0 M139.63 1132.4 L161.852 1132.4 L161.852 1134.39 L149.306 1166.96 L144.422 1166.96 L156.228 1136.33 L139.63 1136.33 L139.63 1132.4 Z" fill="#000000" fill-rule="evenodd" fill-opacity="1" /><path clip-path="url(#clip830)" d="M 0 0 M176.922 1135.48 Q173.311 1135.48 171.482 1139.04 Q169.677 1142.58 169.677 1149.71 Q169.677 1156.82 171.482 1160.38 Q173.311 1163.92 176.922 1163.92 Q180.556 1163.92 182.362 1160.38 Q184.19 1156.82 184.19 1149.71 Q184.19 1142.58 182.362 1139.04 Q180.556 1135.48 176.922 1135.48 M176.922 1131.77 Q182.732 1131.77 185.788 1136.38 Q188.866 1140.96 188.866 1149.71 Q188.866 1158.44 185.788 1163.04 Q182.732 1167.63 176.922 1167.63 Q171.112 1167.63 168.033 1163.04 Q164.977 1158.44 164.977 1149.71 Q164.977 1140.96 168.033 1136.38 Q171.112 1131.77 176.922 1131.77 Z" fill="#000000" fill-rule="evenodd" fill-opacity="1" /><path clip-path="url(#clip830)" d="M 0 0 M150.001 831.244 Q146.667 831.244 144.746 833.027 Q142.848 834.809 142.848 837.934 Q142.848 841.059 144.746 842.842 Q146.667 844.624 150.001 844.624 Q153.334 844.624 155.255 842.842 Q157.177 841.036 157.177 837.934 Q157.177 834.809 155.255 833.027 Q153.357 831.244 150.001 831.244 M145.325 829.254 Q142.316 828.513 140.626 826.453 Q138.959 824.393 138.959 821.43 Q138.959 817.286 141.899 814.879 Q144.862 812.471 150.001 812.471 Q155.163 812.471 158.103 814.879 Q161.042 817.286 161.042 821.43 Q161.042 824.393 159.353 826.453 Q157.686 828.513 154.7 829.254 Q158.079 830.041 159.954 832.332 Q161.852 834.624 161.852 837.934 Q161.852 842.957 158.774 845.642 Q155.718 848.328 150.001 848.328 Q144.283 848.328 141.204 845.642 Q138.149 842.957 138.149 837.934 Q138.149 834.624 140.047 832.332 Q141.945 830.041 145.325 829.254 M143.612 821.869 Q143.612 824.555 145.279 826.059 Q146.968 827.564 150.001 827.564 Q153.01 827.564 154.7 826.059 Q156.413 824.555 156.413 821.869 Q156.413 819.184 154.7 817.68 Q153.01 816.175 150.001 816.175 Q146.968 816.175 145.279 817.68 Q143.612 819.184 143.612 821.869 Z" fill="#000000" fill-rule="evenodd" fill-opacity="1" /><path clip-path="url(#clip830)" d="M 0 0 M176.922 816.175 Q173.311 816.175 171.482 819.74 Q169.677 823.281 169.677 830.411 Q169.677 837.517 171.482 841.082 Q173.311 844.624 176.922 844.624 Q180.556 844.624 182.362 841.082 Q184.19 837.517 184.19 830.411 Q184.19 823.281 182.362 819.74 Q180.556 816.175 176.922 816.175 M176.922 812.471 Q182.732 812.471 185.788 817.078 Q188.866 821.661 188.866 830.411 Q188.866 839.138 185.788 843.744 Q182.732 848.328 176.922 848.328 Q171.112 848.328 168.033 843.744 Q164.977 839.138 164.977 830.411 Q164.977 821.661 168.033 817.078 Q171.112 812.471 176.922 812.471 Z" fill="#000000" fill-rule="evenodd" fill-opacity="1" /><path clip-path="url(#clip830)" d="M 0 0 M140.232 527.638 L140.232 523.379 Q141.991 524.213 143.797 524.652 Q145.603 525.092 147.339 525.092 Q151.968 525.092 154.399 521.99 Q156.853 518.865 157.2 512.523 Q155.857 514.514 153.797 515.578 Q151.737 516.643 149.237 516.643 Q144.052 516.643 141.019 513.518 Q138.01 510.37 138.01 504.93 Q138.01 499.606 141.158 496.389 Q144.306 493.171 149.538 493.171 Q155.533 493.171 158.681 497.778 Q161.852 502.361 161.852 511.111 Q161.852 519.282 157.964 524.166 Q154.098 529.027 147.547 529.027 Q145.788 529.027 143.982 528.68 Q142.177 528.333 140.232 527.638 M149.538 512.986 Q152.686 512.986 154.515 510.833 Q156.366 508.68 156.366 504.93 Q156.366 501.203 154.515 499.051 Q152.686 496.875 149.538 496.875 Q146.39 496.875 144.538 499.051 Q142.709 501.203 142.709 504.93 Q142.709 508.68 144.538 510.833 Q146.39 512.986 149.538 512.986 Z" fill="#000000" fill-rule="evenodd" fill-opacity="1" /><path clip-path="url(#clip830)" d="M 0 0 M176.922 496.875 Q173.311 496.875 171.482 500.44 Q169.677 503.981 169.677 511.111 Q169.677 518.217 171.482 521.782 Q173.311 525.324 176.922 525.324 Q180.556 525.324 182.362 521.782 Q184.19 518.217 184.19 511.111 Q184.19 503.981 182.362 500.44 Q180.556 496.875 176.922 496.875 M176.922 493.171 Q182.732 493.171 185.788 497.778 Q188.866 502.361 188.866 511.111 Q188.866 519.838 185.788 524.444 Q182.732 529.027 176.922 529.027 Q171.112 529.027 168.033 524.444 Q164.977 519.838 164.977 511.111 Q164.977 502.361 168.033 497.778 Q171.112 493.171 176.922 493.171 Z" fill="#000000" fill-rule="evenodd" fill-opacity="1" /><path clip-path="url(#clip830)" d="M 0 0 M114.931 205.121 L122.57 205.121 L122.57 178.755 L114.26 180.422 L114.26 176.162 L122.524 174.496 L127.2 174.496 L127.2 205.121 L134.839 205.121 L134.839 209.056 L114.931 209.056 L114.931 205.121 Z" fill="#000000" fill-rule="evenodd" fill-opacity="1" /><path clip-path="url(#clip830)" d="M 0 0 M149.908 177.574 Q146.297 177.574 144.468 181.139 Q142.663 184.681 142.663 191.811 Q142.663 198.917 144.468 202.482 Q146.297 206.023 149.908 206.023 Q153.542 206.023 155.348 202.482 Q157.177 198.917 157.177 191.811 Q157.177 184.681 155.348 181.139 Q153.542 177.574 149.908 177.574 M149.908 173.871 Q155.718 173.871 158.774 178.477 Q161.852 183.061 161.852 191.811 Q161.852 200.537 158.774 205.144 Q155.718 209.727 149.908 209.727 Q144.098 209.727 141.019 205.144 Q137.964 200.537 137.964 191.811 Q137.964 183.061 141.019 178.477 Q144.098 173.871 149.908 173.871 Z" fill="#000000" fill-rule="evenodd" fill-opacity="1" /><path clip-path="url(#clip830)" d="M 0 0 M176.922 177.574 Q173.311 177.574 171.482 181.139 Q169.677 184.681 169.677 191.811 Q169.677 198.917 171.482 202.482 Q173.311 206.023 176.922 206.023 Q180.556 206.023 182.362 202.482 Q184.19 198.917 184.19 191.811 Q184.19 184.681 182.362 181.139 Q180.556 177.574 176.922 177.574 M176.922 173.871 Q182.732 173.871 185.788 178.477 Q188.866 183.061 188.866 191.811 Q188.866 200.537 185.788 205.144 Q182.732 209.727 176.922 209.727 Q171.112 209.727 168.033 205.144 Q164.977 200.537 164.977 191.811 Q164.977 183.061 168.033 178.477 Q171.112 173.871 176.922 173.871 Z" fill="#000000" fill-rule="evenodd" fill-opacity="1" /><path clip-path="url(#clip830)" d="M 0 0 M59.1993 815.533 Q55.2526 813.336 53.3747 810.281 Q51.4968 807.225 51.4968 803.088 Q51.4968 797.518 55.4117 794.494 Q59.2948 791.47 66.4881 791.47 L88.0042 791.47 L88.0042 797.358 L66.679 797.358 Q61.5546 797.358 59.072 799.173 Q56.5894 800.987 56.5894 804.711 Q56.5894 809.262 59.6131 811.904 Q62.6368 814.546 67.8567 814.546 L88.0042 814.546 L88.0042 820.434 L66.679 820.434 Q61.5228 820.434 59.072 822.248 Q56.5894 824.063 56.5894 827.85 Q56.5894 832.338 59.6449 834.98 Q62.6686 837.622 67.8567 837.622 L88.0042 837.622 L88.0042 843.51 L52.3562 843.51 L52.3562 837.622 L57.8944 837.622 Q54.616 835.616 53.0564 832.815 Q51.4968 830.015 51.4968 826.163 Q51.4968 822.28 53.4702 819.575 Q55.4436 816.838 59.1993 815.533 Z" fill="#000000" fill-rule="evenodd" fill-opacity="1" /><path clip-path="url(#clip830)" d="M 0 0 M52.3562 785.327 L52.3562 779.471 L88.0042 779.471 L88.0042 785.327 L52.3562 785.327 M38.479 785.327 L38.479 779.471 L45.895 779.471 L45.895 785.327 L38.479 785.327 Z" fill="#000000" fill-rule="evenodd" fill-opacity="1" /><path clip-path="url(#clip830)" d="M 0 0 M66.4881 743.696 L88.0042 743.696 L88.0042 749.552 L66.679 749.552 Q61.6183 749.552 59.1038 751.525 Q56.5894 753.499 56.5894 757.446 Q56.5894 762.188 59.6131 764.925 Q62.6368 767.662 67.8567 767.662 L88.0042 767.662 L88.0042 773.551 L52.3562 773.551 L52.3562 767.662 L57.8944 767.662 Q54.6797 765.562 53.0883 762.729 Q51.4968 759.864 51.4968 756.141 Q51.4968 749.998 55.3163 746.847 Q59.1038 743.696 66.4881 743.696 Z" fill="#000000" fill-rule="evenodd" fill-opacity="1" /><path clip-path="url(#clip830)" d="M 0 0 M98.8259 710.467 L103.377 710.467 L103.377 744.332 L98.8259 744.332 L98.8259 710.467 Z" fill="#000000" fill-rule="evenodd" fill-opacity="1" /><path clip-path="url(#clip830)" d="M 0 0 M57.7671 680.866 L38.479 680.866 L38.479 675.01 L88.0042 675.01 L88.0042 680.866 L82.657 680.866 Q85.8398 682.712 87.3994 685.545 Q88.9272 688.346 88.9272 692.292 Q88.9272 698.754 83.771 702.828 Q78.6147 706.87 70.212 706.87 Q61.8093 706.87 56.6531 702.828 Q51.4968 698.754 51.4968 692.292 Q51.4968 688.346 53.0564 685.545 Q54.5842 682.712 57.7671 680.866 M70.212 700.823 Q76.6732 700.823 80.3653 698.181 Q84.0256 695.507 84.0256 690.86 Q84.0256 686.213 80.3653 683.54 Q76.6732 680.866 70.212 680.866 Q63.7508 680.866 60.0905 683.54 Q56.3984 686.213 56.3984 690.86 Q56.3984 695.507 60.0905 698.181 Q63.7508 700.823 70.212 700.823 Z" fill="#000000" fill-rule="evenodd" fill-opacity="1" /><path clip-path="url(#clip830)" d="M 0 0 M52.3562 668.867 L52.3562 663.01 L88.0042 663.01 L88.0042 668.867 L52.3562 668.867 M38.479 668.867 L38.479 663.01 L45.895 663.01 L45.895 668.867 L38.479 668.867 Z" fill="#000000" fill-rule="evenodd" fill-opacity="1" /><path clip-path="url(#clip830)" d="M 0 0 M38.479 638.821 L43.3487 638.821 L43.3487 644.422 Q43.3487 647.573 44.6219 648.815 Q45.895 650.024 49.2052 650.024 L52.3562 650.024 L52.3562 640.38 L56.9077 640.38 L56.9077 650.024 L88.0042 650.024 L88.0042 655.912 L56.9077 655.912 L56.9077 661.514 L52.3562 661.514 L52.3562 655.912 L49.8736 655.912 Q43.9216 655.912 41.2162 653.143 Q38.479 650.374 38.479 644.359 L38.479 638.821 Z" fill="#000000" fill-rule="evenodd" fill-opacity="1" /><path clip-path="url(#clip830)" d="M 0 0 M38.479 614.631 L43.3487 614.631 L43.3487 620.233 Q43.3487 623.384 44.6219 624.625 Q45.895 625.835 49.2052 625.835 L52.3562 625.835 L52.3562 616.19 L56.9077 616.19 L56.9077 625.835 L88.0042 625.835 L88.0042 631.723 L56.9077 631.723 L56.9077 637.325 L52.3562 637.325 L52.3562 631.723 L49.8736 631.723 Q43.9216 631.723 41.2162 628.954 Q38.479 626.185 38.479 620.169 L38.479 614.631 Z" fill="#000000" fill-rule="evenodd" fill-opacity="1" /><polyline clip-path="url(#clip832)" style="stroke:#009af9; stroke-width:20; stroke-opacity:1; fill:none" stroke-dasharray="80, 50" points="
  285.09,85.838 1288.81,448.997 2292.53,1372.3 
  "/>
<path clip-path="url(#clip830)" d="
M1994.38 213.659 L2281.83 213.659 L2281.83 92.6992 L1994.38 92.6992  Z
  " fill="#ffffff" fill-rule="evenodd" fill-opacity="1"/>
<polyline clip-path="url(#clip830)" style="stroke:#000000; stroke-width:4; stroke-opacity:1; fill:none" points="
  1994.38,213.659 2281.83,213.659 2281.83,92.6992 1994.38,92.6992 1994.38,213.659 
  "/>
<polyline clip-path="url(#clip830)" style="stroke:#009af9; stroke-width:4; stroke-opacity:1; fill:none" stroke-dasharray="16, 10" points="
  2018.02,153.179 2159.88,153.179 
  "/>
<path clip-path="url(#clip830)" d="M 0 0 M2197.36 172.867 Q2195.56 177.496 2193.85 178.908 Q2192.13 180.32 2189.26 180.32 L2185.86 180.32 L2185.86 176.755 L2188.36 176.755 Q2190.12 176.755 2191.09 175.922 Q2192.06 175.089 2193.24 171.987 L2194.01 170.043 L2183.52 144.533 L2188.04 144.533 L2196.14 164.811 L2204.24 144.533 L2208.75 144.533 L2197.36 172.867 Z" fill="#000000" fill-rule="evenodd" fill-opacity="1" /><path clip-path="url(#clip830)" d="M 0 0 M2214.63 166.524 L2222.27 166.524 L2222.27 140.158 L2213.96 141.825 L2213.96 137.566 L2222.23 135.899 L2226.9 135.899 L2226.9 166.524 L2234.54 166.524 L2234.54 170.459 L2214.63 170.459 L2214.63 166.524 Z" fill="#000000" fill-rule="evenodd" fill-opacity="1" /></svg>
