<?xml version="1.0" encoding="utf-8"?>
<svg xmlns="http://www.w3.org/2000/svg" xmlns:xlink="http://www.w3.org/1999/xlink" width="600" height="400" viewBox="0 0 2400 1600">
<defs>
  <clipPath id="clip640">
    <rect x="0" y="0" width="2400" height="1600"/>
  </clipPath>
</defs>
<path clip-path="url(#clip640)" d="
M0 1600 L2400 1600 L2400 0 L0 0  Z
  " fill="#ffffff" fill-rule="evenodd" fill-opacity="1"/>
<defs>
  <clipPath id="clip641">
    <rect x="480" y="0" width="1681" height="1600"/>
  </clipPath>
</defs>
<path clip-path="url(#clip640)" d="
M202.459 1410.9 L2352.76 1410.9 L2352.76 47.2441 L202.459 47.2441  Z
  " fill="#ffffff" fill-rule="evenodd" fill-opacity="1"/>
<defs>
  <clipPath id="clip642">
    <rect x="202" y="47" width="2151" height="1365"/>
  </clipPath>
</defs>
<polyline clip-path="url(#clip642)" style="stroke:#000000; stroke-width:2; stroke-opacity:0.1; fill:none" points="
  516.889,1410.9 516.889,47.2441 
  "/>
<polyline clip-path="url(#clip642)" style="stroke:#000000; stroke-width:2; stroke-opacity:0.1; fill:none" points="
  1024.03,1410.9 1024.03,47.2441 
  "/>
<polyline clip-path="url(#clip642)" style="stroke:#000000; stroke-width:2; stroke-opacity:0.1; fill:none" points="
  1531.18,1410.9 1531.18,47.2441 
  "/>
<polyline clip-path="url(#clip642)" style="stroke:#000000; stroke-width:2; stroke-opacity:0.1; fill:none" points="
  2038.33,1410.9 2038.33,47.2441 
  "/>
<polyline clip-path="url(#clip640)" style="stroke:#000000; stroke-width:4; stroke-opacity:1; fill:none" points="
  202.459,1410.9 2352.76,1410.9 
  "/>
<polyline clip-path="url(#clip640)" style="stroke:#000000; stroke-width:4; stroke-opacity:1; fill:none" points="
  516.889,1410.9 516.889,1394.53 
  "/>
<polyline clip-path="url(#clip640)" style="stroke:#000000; stroke-width:4; stroke-opacity:1; fill:none" points="
  1024.03,1410.9 1024.03,1394.53 
  "/>
<polyline clip-path="url(#clip640)" style="stroke:#000000; stroke-width:4; stroke-opacity:1; fill:none" points="
  1531.18,1410.9 1531.18,1394.53 
  "/>
<polyline clip-path="url(#clip640)" style="stroke:#000000; stroke-width:4; stroke-opacity:1; fill:none" points="
  2038.33,1410.9 2038.33,1394.53 
  "/>
<path clip-path="url(#clip640)" d="M 0 0 M470.997 1489.17 L478.636 1489.17 L478.636 1462.8 L470.326 1464.47 L470.326 1460.21 L478.59 1458.54 L483.266 1458.54 L483.266 1489.17 L490.905 1489.17 L490.905 1493.1 L470.997 1493.1 L470.997 1489.17 Z" fill="#000000" fill-rule="evenodd" fill-opacity="1" /><path clip-path="url(#clip640)" d="M 0 0 M505.974 1461.62 Q502.363 1461.62 500.534 1465.19 Q498.729 1468.73 498.729 1475.86 Q498.729 1482.97 500.534 1486.53 Q502.363 1490.07 505.974 1490.07 Q509.608 1490.07 511.414 1486.53 Q513.243 1482.97 513.243 1475.86 Q513.243 1468.73 511.414 1465.19 Q509.608 1461.62 505.974 1461.62 M505.974 1457.92 Q511.784 1457.92 514.84 1462.53 Q517.919 1467.11 517.919 1475.86 Q517.919 1484.59 514.84 1489.19 Q511.784 1493.78 505.974 1493.78 Q500.164 1493.78 497.085 1489.19 Q494.03 1484.59 494.03 1475.86 Q494.03 1467.11 497.085 1462.53 Q500.164 1457.92 505.974 1457.92 Z" fill="#000000" fill-rule="evenodd" fill-opacity="1" /><path clip-path="url(#clip640)" d="M 0 0 M517.919 1452.02 L542.03 1452.02 L542.03 1455.22 L517.919 1455.22 L517.919 1452.02 Z" fill="#000000" fill-rule="evenodd" fill-opacity="1" /><path clip-path="url(#clip640)" d="M 0 0 M557.659 1450.55 Q560.386 1451.14 561.91 1452.98 Q563.452 1454.82 563.452 1457.53 Q563.452 1461.69 560.593 1463.96 Q557.735 1466.24 552.468 1466.24 Q550.7 1466.24 548.82 1465.88 Q546.958 1465.54 544.964 1464.85 L544.964 1461.18 Q546.544 1462.1 548.425 1462.57 Q550.306 1463.04 552.356 1463.04 Q555.929 1463.04 557.791 1461.63 Q559.672 1460.22 559.672 1457.53 Q559.672 1455.05 557.923 1453.66 Q556.192 1452.25 553.089 1452.25 L549.817 1452.25 L549.817 1449.12 L553.24 1449.12 Q556.042 1449.12 557.528 1448.01 Q559.014 1446.89 559.014 1444.78 Q559.014 1442.62 557.471 1441.47 Q555.948 1440.3 553.089 1440.3 Q551.528 1440.3 549.741 1440.64 Q547.955 1440.98 545.81 1441.69 L545.81 1438.31 Q547.973 1437.71 549.854 1437.41 Q551.754 1437.11 553.428 1437.11 Q557.753 1437.11 560.274 1439.08 Q562.794 1441.04 562.794 1444.38 Q562.794 1446.72 561.459 1448.33 Q560.123 1449.93 557.659 1450.55 Z" fill="#000000" fill-rule="evenodd" fill-opacity="1" /><path clip-path="url(#clip640)" d="M 0 0 M978.529 1489.17 L986.167 1489.17 L986.167 1462.8 L977.857 1464.47 L977.857 1460.21 L986.121 1458.54 L990.797 1458.54 L990.797 1489.17 L998.436 1489.17 L998.436 1493.1 L978.529 1493.1 L978.529 1489.17 Z" fill="#000000" fill-rule="evenodd" fill-opacity="1" /><path clip-path="url(#clip640)" d="M 0 0 M1013.51 1461.62 Q1009.89 1461.62 1008.07 1465.19 Q1006.26 1468.73 1006.26 1475.86 Q1006.26 1482.97 1008.07 1486.53 Q1009.89 1490.07 1013.51 1490.07 Q1017.14 1490.07 1018.95 1486.53 Q1020.77 1482.97 1020.77 1475.86 Q1020.77 1468.73 1018.95 1465.19 Q1017.14 1461.62 1013.51 1461.62 M1013.51 1457.92 Q1019.32 1457.92 1022.37 1462.53 Q1025.45 1467.11 1025.45 1475.86 Q1025.45 1484.59 1022.37 1489.19 Q1019.32 1493.78 1013.51 1493.78 Q1007.7 1493.78 1004.62 1489.19 Q1001.56 1484.59 1001.56 1475.86 Q1001.56 1467.11 1004.62 1462.53 Q1007.7 1457.92 1013.51 1457.92 Z" fill="#000000" fill-rule="evenodd" fill-opacity="1" /><path clip-path="url(#clip640)" d="M 0 0 M1025.45 1452.02 L1049.56 1452.02 L1049.56 1455.22 L1025.45 1455.22 L1025.45 1452.02 Z" fill="#000000" fill-rule="evenodd" fill-opacity="1" /><path clip-path="url(#clip640)" d="M 0 0 M1056.95 1462.5 L1070.21 1462.5 L1070.21 1465.69 L1052.38 1465.69 L1052.38 1462.5 Q1054.55 1460.26 1058.27 1456.5 Q1062.01 1452.72 1062.97 1451.63 Q1064.8 1449.58 1065.51 1448.16 Q1066.24 1446.74 1066.24 1445.36 Q1066.24 1443.12 1064.66 1441.71 Q1063.1 1440.3 1060.58 1440.3 Q1058.8 1440.3 1056.8 1440.92 Q1054.83 1441.54 1052.57 1442.8 L1052.57 1438.97 Q1054.86 1438.05 1056.86 1437.58 Q1058.85 1437.11 1060.51 1437.11 Q1064.87 1437.11 1067.47 1439.29 Q1070.06 1441.47 1070.06 1445.12 Q1070.06 1446.85 1069.4 1448.41 Q1068.76 1449.95 1067.05 1452.06 Q1066.58 1452.6 1064.06 1455.22 Q1061.54 1457.81 1056.95 1462.5 Z" fill="#000000" fill-rule="evenodd" fill-opacity="1" /><path clip-path="url(#clip640)" d="M 0 0 M1485.52 1489.17 L1493.16 1489.17 L1493.16 1462.8 L1484.85 1464.47 L1484.85 1460.21 L1493.12 1458.54 L1497.79 1458.54 L1497.79 1489.17 L1505.43 1489.17 L1505.43 1493.1 L1485.52 1493.1 L1485.52 1489.17 Z" fill="#000000" fill-rule="evenodd" fill-opacity="1" /><path clip-path="url(#clip640)" d="M 0 0 M1520.5 1461.62 Q1516.89 1461.62 1515.06 1465.19 Q1513.25 1468.73 1513.25 1475.86 Q1513.25 1482.97 1515.06 1486.53 Q1516.89 1490.07 1520.5 1490.07 Q1524.13 1490.07 1525.94 1486.53 Q1527.77 1482.97 1527.77 1475.86 Q1527.77 1468.73 1525.94 1465.19 Q1524.13 1461.62 1520.5 1461.62 M1520.5 1457.92 Q1526.31 1457.92 1529.37 1462.53 Q1532.44 1467.11 1532.44 1475.86 Q1532.44 1484.59 1529.37 1489.19 Q1526.31 1493.78 1520.5 1493.78 Q1514.69 1493.78 1511.61 1489.19 Q1508.56 1484.59 1508.56 1475.86 Q1508.56 1467.11 1511.61 1462.53 Q1514.69 1457.92 1520.5 1457.92 Z" fill="#000000" fill-rule="evenodd" fill-opacity="1" /><path clip-path="url(#clip640)" d="M 0 0 M1532.44 1452.02 L1556.56 1452.02 L1556.56 1455.22 L1532.44 1455.22 L1532.44 1452.02 Z" fill="#000000" fill-rule="evenodd" fill-opacity="1" /><path clip-path="url(#clip640)" d="M 0 0 M1561.33 1462.5 L1567.54 1462.5 L1567.54 1441.07 L1560.79 1442.43 L1560.79 1438.97 L1567.5 1437.61 L1571.3 1437.61 L1571.3 1462.5 L1577.51 1462.5 L1577.51 1465.69 L1561.33 1465.69 L1561.33 1462.5 Z" fill="#000000" fill-rule="evenodd" fill-opacity="1" /><path clip-path="url(#clip640)" d="M 0 0 M2005.5 1489.17 L2013.13 1489.17 L2013.13 1462.8 L2004.82 1464.47 L2004.82 1460.21 L2013.09 1458.54 L2017.76 1458.54 L2017.76 1489.17 L2025.4 1489.17 L2025.4 1493.1 L2005.5 1493.1 L2005.5 1489.17 Z" fill="#000000" fill-rule="evenodd" fill-opacity="1" /><path clip-path="url(#clip640)" d="M 0 0 M2040.47 1461.62 Q2036.86 1461.62 2035.03 1465.19 Q2033.23 1468.73 2033.23 1475.86 Q2033.23 1482.97 2035.03 1486.53 Q2036.86 1490.07 2040.47 1490.07 Q2044.11 1490.07 2045.91 1486.53 Q2047.74 1482.97 2047.74 1475.86 Q2047.74 1468.73 2045.91 1465.19 Q2044.11 1461.62 2040.47 1461.62 M2040.47 1457.92 Q2046.28 1457.92 2049.34 1462.53 Q2052.42 1467.11 2052.42 1475.86 Q2052.42 1484.59 2049.34 1489.19 Q2046.28 1493.78 2040.47 1493.78 Q2034.66 1493.78 2031.58 1489.19 Q2028.53 1484.59 2028.53 1475.86 Q2028.53 1467.11 2031.58 1462.53 Q2034.66 1457.92 2040.47 1457.92 Z" fill="#000000" fill-rule="evenodd" fill-opacity="1" /><path clip-path="url(#clip640)" d="M 0 0 M2062.12 1440.11 Q2059.19 1440.11 2057.7 1443.01 Q2056.24 1445.89 2056.24 1451.68 Q2056.24 1457.46 2057.7 1460.35 Q2059.19 1463.23 2062.12 1463.23 Q2065.07 1463.23 2066.54 1460.35 Q2068.03 1457.46 2068.03 1451.68 Q2068.03 1445.89 2066.54 1443.01 Q2065.07 1440.11 2062.12 1440.11 M2062.12 1437.11 Q2066.84 1437.11 2069.33 1440.85 Q2071.83 1444.57 2071.83 1451.68 Q2071.83 1458.77 2069.33 1462.51 Q2066.84 1466.24 2062.12 1466.24 Q2057.4 1466.24 2054.9 1462.51 Q2052.42 1458.77 2052.42 1451.68 Q2052.42 1444.57 2054.9 1440.85 Q2057.4 1437.11 2062.12 1437.11 Z" fill="#000000" fill-rule="evenodd" fill-opacity="1" /><path clip-path="url(#clip640)" d="M 0 0 M1170.38 1526.54 L1176.58 1526.54 L1187.72 1556.46 L1198.86 1526.54 L1205.07 1526.54 L1191.7 1562.19 L1183.75 1562.19 L1170.38 1526.54 Z" fill="#000000" fill-rule="evenodd" fill-opacity="1" /><path clip-path="url(#clip640)" d="M 0 0 M1238.3 1573.01 L1238.3 1577.56 L1204.43 1577.56 L1204.43 1573.01 L1238.3 1573.01 Z" fill="#000000" fill-rule="evenodd" fill-opacity="1" /><path clip-path="url(#clip640)" d="M 0 0 M1258.26 1530.64 Q1253.55 1530.64 1250.81 1534.34 Q1248.07 1538 1248.07 1544.39 Q1248.07 1550.79 1250.78 1554.48 Q1253.51 1558.14 1258.26 1558.14 Q1262.93 1558.14 1265.67 1554.45 Q1268.41 1550.76 1268.41 1544.39 Q1268.41 1538.06 1265.67 1534.37 Q1262.93 1530.64 1258.26 1530.64 M1258.26 1525.68 Q1265.89 1525.68 1270.26 1530.64 Q1274.62 1535.61 1274.62 1544.39 Q1274.62 1553.15 1270.26 1558.14 Q1265.89 1563.11 1258.26 1563.11 Q1250.59 1563.11 1246.22 1558.14 Q1241.9 1553.15 1241.9 1544.39 Q1241.9 1535.61 1246.22 1530.64 Q1250.59 1525.68 1258.26 1525.68 Z" fill="#000000" fill-rule="evenodd" fill-opacity="1" /><path clip-path="url(#clip640)" d="M 0 0 M1286.42 1556.84 L1286.42 1575.74 L1280.54 1575.74 L1280.54 1526.54 L1286.42 1526.54 L1286.42 1531.95 Q1288.27 1528.77 1291.07 1527.24 Q1293.9 1525.68 1297.82 1525.68 Q1304.31 1525.68 1308.35 1530.83 Q1312.43 1535.99 1312.43 1544.39 Q1312.43 1552.8 1308.35 1557.95 Q1304.31 1563.11 1297.82 1563.11 Q1293.9 1563.11 1291.07 1561.58 Q1288.27 1560.02 1286.42 1556.84 M1306.35 1544.39 Q1306.35 1537.93 1303.67 1534.27 Q1301.03 1530.58 1296.39 1530.58 Q1291.74 1530.58 1289.07 1534.27 Q1286.42 1537.93 1286.42 1544.39 Q1286.42 1550.85 1289.07 1554.55 Q1291.74 1558.21 1296.39 1558.21 Q1301.03 1558.21 1303.67 1554.55 Q1306.35 1550.85 1306.35 1544.39 Z" fill="#000000" fill-rule="evenodd" fill-opacity="1" /><path clip-path="url(#clip640)" d="M 0 0 M1349.06 1542.9 L1349.06 1545.76 L1322.14 1545.76 Q1322.52 1551.81 1325.76 1554.99 Q1329.04 1558.14 1334.87 1558.14 Q1338.24 1558.14 1341.39 1557.32 Q1344.57 1556.49 1347.69 1554.83 L1347.69 1560.37 Q1344.54 1561.71 1341.23 1562.41 Q1337.92 1563.11 1334.52 1563.11 Q1325.99 1563.11 1320.99 1558.14 Q1316.02 1553.18 1316.02 1544.71 Q1316.02 1535.96 1320.74 1530.83 Q1325.48 1525.68 1333.5 1525.68 Q1340.69 1525.68 1344.86 1530.33 Q1349.06 1534.94 1349.06 1542.9 M1343.21 1541.18 Q1343.14 1536.37 1340.5 1533.51 Q1337.89 1530.64 1333.56 1530.64 Q1328.66 1530.64 1325.7 1533.41 Q1322.77 1536.18 1322.33 1541.21 L1343.21 1541.18 Z" fill="#000000" fill-rule="evenodd" fill-opacity="1" /><path clip-path="url(#clip640)" d="M 0 0 M1384.84 1540.67 L1384.84 1562.19 L1378.98 1562.19 L1378.98 1540.86 Q1378.98 1535.8 1377.01 1533.29 Q1375.03 1530.77 1371.09 1530.77 Q1366.35 1530.77 1363.61 1533.79 Q1360.87 1536.82 1360.87 1542.04 L1360.87 1562.19 L1354.98 1562.19 L1354.98 1526.54 L1360.87 1526.54 L1360.87 1532.08 Q1362.97 1528.86 1365.8 1527.27 Q1368.67 1525.68 1372.39 1525.68 Q1378.54 1525.68 1381.69 1529.5 Q1384.84 1533.29 1384.84 1540.67 Z" fill="#000000" fill-rule="evenodd" fill-opacity="1" /><polyline clip-path="url(#clip642)" style="stroke:#000000; stroke-width:2; stroke-opacity:0.1; fill:none" points="
  202.459,1226.59 2352.76,1226.59 
  "/>
<polyline clip-path="url(#clip642)" style="stroke:#000000; stroke-width:2; stroke-opacity:0.1; fill:none" points="
  202.459,976.412 2352.76,976.412 
  "/>
<polyline clip-path="url(#clip642)" style="stroke:#000000; stroke-width:2; stroke-opacity:0.1; fill:none" points="
  202.459,726.234 2352.76,726.234 
  "/>
<polyline clip-path="url(#clip642)" style="stroke:#000000; stroke-width:2; stroke-opacity:0.1; fill:none" points="
  202.459,476.057 2352.76,476.057 
  "/>
<polyline clip-path="url(#clip642)" style="stroke:#000000; stroke-width:2; stroke-opacity:0.1; fill:none" points="
  202.459,225.879 2352.76,225.879 
  "/>
<polyline clip-path="url(#clip640)" style="stroke:#000000; stroke-width:4; stroke-opacity:1; fill:none" points="
  202.459,1410.9 202.459,47.2441 
  "/>
<polyline clip-path="url(#clip640)" style="stroke:#000000; stroke-width:4; stroke-opacity:1; fill:none" points="
  202.459,1226.59 228.263,1226.59 
  "/>
<polyline clip-path="url(#clip640)" style="stroke:#000000; stroke-width:4; stroke-opacity:1; fill:none" points="
  202.459,976.412 228.263,976.412 
  "/>
<polyline clip-path="url(#clip640)" style="stroke:#000000; stroke-width:4; stroke-opacity:1; fill:none" points="
  202.459,726.234 228.263,726.234 
  "/>
<polyline clip-path="url(#clip640)" style="stroke:#000000; stroke-width:4; stroke-opacity:1; fill:none" points="
  202.459,476.057 228.263,476.057 
  "/>
<polyline clip-path="url(#clip640)" style="stroke:#000000; stroke-width:4; stroke-opacity:1; fill:none" points="
  202.459,225.879 228.263,225.879 
  "/>
<path clip-path="url(#clip640)" d="M 0 0 M119.538 1239.93 L127.177 1239.93 L127.177 1213.57 L118.867 1215.24 L118.867 1210.98 L127.13 1209.31 L131.806 1209.31 L131.806 1239.93 L139.445 1239.93 L139.445 1243.87 L119.538 1243.87 L119.538 1239.93 Z" fill="#000000" fill-rule="evenodd" fill-opacity="1" /><path clip-path="url(#clip640)" d="M 0 0 M154.515 1212.39 Q150.903 1212.39 149.075 1215.95 Q147.269 1219.49 147.269 1226.62 Q147.269 1233.73 149.075 1237.3 Q150.903 1240.84 154.515 1240.84 Q158.149 1240.84 159.954 1237.3 Q161.783 1233.73 161.783 1226.62 Q161.783 1219.49 159.954 1215.95 Q158.149 1212.39 154.515 1212.39 M154.515 1208.68 Q160.325 1208.68 163.38 1213.29 Q166.459 1217.87 166.459 1226.62 Q166.459 1235.35 163.38 1239.96 Q160.325 1244.54 154.515 1244.54 Q148.704 1244.54 145.626 1239.96 Q142.57 1235.35 142.57 1226.62 Q142.57 1217.87 145.626 1213.29 Q148.704 1208.68 154.515 1208.68 Z" fill="#000000" fill-rule="evenodd" fill-opacity="1" /><path clip-path="url(#clip640)" d="M 0 0 M123.126 989.757 L139.445 989.757 L139.445 993.692 L117.501 993.692 L117.501 989.757 Q120.163 987.002 124.746 982.373 Q129.353 977.72 130.533 976.377 Q132.779 973.854 133.658 972.118 Q134.561 970.359 134.561 968.669 Q134.561 965.914 132.617 964.178 Q130.695 962.442 127.593 962.442 Q125.394 962.442 122.941 963.206 Q120.51 963.97 117.732 965.521 L117.732 960.799 Q120.556 959.664 123.01 959.086 Q125.464 958.507 127.501 958.507 Q132.871 958.507 136.066 961.192 Q139.26 963.877 139.26 968.368 Q139.26 970.498 138.45 972.419 Q137.663 974.317 135.556 976.91 Q134.978 977.581 131.876 980.798 Q128.774 983.993 123.126 989.757 Z" fill="#000000" fill-rule="evenodd" fill-opacity="1" /><path clip-path="url(#clip640)" d="M 0 0 M154.515 962.211 Q150.903 962.211 149.075 965.775 Q147.269 969.317 147.269 976.447 Q147.269 983.553 149.075 987.118 Q150.903 990.66 154.515 990.66 Q158.149 990.66 159.954 987.118 Q161.783 983.553 161.783 976.447 Q161.783 969.317 159.954 965.775 Q158.149 962.211 154.515 962.211 M154.515 958.507 Q160.325 958.507 163.38 963.113 Q166.459 967.697 166.459 976.447 Q166.459 985.173 163.38 989.78 Q160.325 994.363 154.515 994.363 Q148.704 994.363 145.626 989.78 Q142.57 985.173 142.57 976.447 Q142.57 967.697 145.626 963.113 Q148.704 958.507 154.515 958.507 Z" fill="#000000" fill-rule="evenodd" fill-opacity="1" /><path clip-path="url(#clip640)" d="M 0 0 M132.316 724.88 Q135.672 725.598 137.547 727.866 Q139.445 730.135 139.445 733.468 Q139.445 738.584 135.927 741.385 Q132.408 744.186 125.927 744.186 Q123.751 744.186 121.436 743.746 Q119.144 743.329 116.691 742.473 L116.691 737.959 Q118.635 739.093 120.95 739.672 Q123.265 740.25 125.788 740.25 Q130.186 740.25 132.478 738.514 Q134.792 736.778 134.792 733.468 Q134.792 730.413 132.64 728.7 Q130.51 726.964 126.691 726.964 L122.663 726.964 L122.663 723.121 L126.876 723.121 Q130.325 723.121 132.154 721.755 Q133.982 720.366 133.982 717.774 Q133.982 715.112 132.084 713.7 Q130.209 712.265 126.691 712.265 Q124.769 712.265 122.57 712.681 Q120.371 713.098 117.732 713.977 L117.732 709.811 Q120.394 709.07 122.709 708.7 Q125.047 708.329 127.107 708.329 Q132.431 708.329 135.533 710.76 Q138.635 713.167 138.635 717.288 Q138.635 720.158 136.992 722.149 Q135.348 724.116 132.316 724.88 Z" fill="#000000" fill-rule="evenodd" fill-opacity="1" /><path clip-path="url(#clip640)" d="M 0 0 M154.515 712.033 Q150.903 712.033 149.075 715.598 Q147.269 719.139 147.269 726.269 Q147.269 733.376 149.075 736.94 Q150.903 740.482 154.515 740.482 Q158.149 740.482 159.954 736.94 Q161.783 733.376 161.783 726.269 Q161.783 719.139 159.954 715.598 Q158.149 712.033 154.515 712.033 M154.515 708.329 Q160.325 708.329 163.38 712.936 Q166.459 717.519 166.459 726.269 Q166.459 734.996 163.38 739.602 Q160.325 744.186 154.515 744.186 Q148.704 744.186 145.626 739.602 Q142.57 734.996 142.57 726.269 Q142.57 717.519 145.626 712.936 Q148.704 708.329 154.515 708.329 Z" fill="#000000" fill-rule="evenodd" fill-opacity="1" /><path clip-path="url(#clip640)" d="M 0 0 M129.862 462.851 L118.056 481.3 L129.862 481.3 L129.862 462.851 M128.635 458.777 L134.515 458.777 L134.515 481.3 L139.445 481.3 L139.445 485.189 L134.515 485.189 L134.515 493.337 L129.862 493.337 L129.862 485.189 L114.26 485.189 L114.26 480.675 L128.635 458.777 Z" fill="#000000" fill-rule="evenodd" fill-opacity="1" /><path clip-path="url(#clip640)" d="M 0 0 M154.515 461.855 Q150.903 461.855 149.075 465.42 Q147.269 468.962 147.269 476.091 Q147.269 483.198 149.075 486.763 Q150.903 490.304 154.515 490.304 Q158.149 490.304 159.954 486.763 Q161.783 483.198 161.783 476.091 Q161.783 468.962 159.954 465.42 Q158.149 461.855 154.515 461.855 M154.515 458.152 Q160.325 458.152 163.38 462.758 Q166.459 467.342 166.459 476.091 Q166.459 484.818 163.38 489.425 Q160.325 494.008 154.515 494.008 Q148.704 494.008 145.626 489.425 Q142.57 484.818 142.57 476.091 Q142.57 467.342 145.626 462.758 Q148.704 458.152 154.515 458.152 Z" fill="#000000" fill-rule="evenodd" fill-opacity="1" /><path clip-path="url(#clip640)" d="M 0 0 M118.543 208.599 L136.899 208.599 L136.899 212.534 L122.825 212.534 L122.825 221.006 Q123.843 220.659 124.862 220.497 Q125.88 220.312 126.899 220.312 Q132.686 220.312 136.066 223.483 Q139.445 226.655 139.445 232.071 Q139.445 237.65 135.973 240.752 Q132.501 243.83 126.181 243.83 Q124.005 243.83 121.737 243.46 Q119.492 243.09 117.084 242.349 L117.084 237.65 Q119.168 238.784 121.39 239.34 Q123.612 239.895 126.089 239.895 Q130.093 239.895 132.431 237.789 Q134.769 235.682 134.769 232.071 Q134.769 228.46 132.431 226.354 Q130.093 224.247 126.089 224.247 Q124.214 224.247 122.339 224.664 Q120.487 225.081 118.543 225.96 L118.543 208.599 Z" fill="#000000" fill-rule="evenodd" fill-opacity="1" /><path clip-path="url(#clip640)" d="M 0 0 M154.515 211.678 Q150.903 211.678 149.075 215.243 Q147.269 218.784 147.269 225.914 Q147.269 233.02 149.075 236.585 Q150.903 240.127 154.515 240.127 Q158.149 240.127 159.954 236.585 Q161.783 233.02 161.783 225.914 Q161.783 218.784 159.954 215.243 Q158.149 211.678 154.515 211.678 M154.515 207.974 Q160.325 207.974 163.38 212.581 Q166.459 217.164 166.459 225.914 Q166.459 234.641 163.38 239.247 Q160.325 243.83 154.515 243.83 Q148.704 243.83 145.626 239.247 Q142.57 234.641 142.57 225.914 Q142.57 217.164 145.626 212.581 Q148.704 207.974 154.515 207.974 Z" fill="#000000" fill-rule="evenodd" fill-opacity="1" /><path clip-path="url(#clip640)" d="M 0 0 M59.1993 815.533 Q55.2526 813.336 53.3747 810.281 Q51.4968 807.225 51.4968 803.088 Q51.4968 797.518 55.4117 794.494 Q59.2948 791.47 66.4881 791.47 L88.0042 791.47 L88.0042 797.358 L66.679 797.358 Q61.5546 797.358 59.072 799.173 Q56.5894 800.987 56.5894 804.711 Q56.5894 809.262 59.6131 811.904 Q62.6368 814.546 67.8567 814.546 L88.0042 814.546 L88.0042 820.434 L66.679 820.434 Q61.5228 820.434 59.072 822.248 Q56.5894 824.063 56.5894 827.85 Q56.5894 832.338 59.6449 834.98 Q62.6686 837.622 67.8567 837.622 L88.0042 837.622 L88.0042 843.51 L52.3562 843.51 L52.3562 837.622 L57.8944 837.622 Q54.616 835.616 53.0564 832.815 Q51.4968 830.015 51.4968 826.163 Q51.4968 822.28 53.4702 819.575 Q55.4436 816.838 59.1993 815.533 Z" fill="#000000" fill-rule="evenodd" fill-opacity="1" /><path clip-path="url(#clip640)" d="M 0 0 M52.3562 785.327 L52.3562 779.471 L88.0042 779.471 L88.0042 785.327 L52.3562 785.327 M38.479 785.327 L38.479 779.471 L45.895 779.471 L45.895 785.327 L38.479 785.327 Z" fill="#000000" fill-rule="evenodd" fill-opacity="1" /><path clip-path="url(#clip640)" d="M 0 0 M66.4881 743.696 L88.0042 743.696 L88.0042 749.552 L66.679 749.552 Q61.6183 749.552 59.1038 751.525 Q56.5894 753.499 56.5894 757.446 Q56.5894 762.188 59.6131 764.925 Q62.6368 767.662 67.8567 767.662 L88.0042 767.662 L88.0042 773.551 L52.3562 773.551 L52.3562 767.662 L57.8944 767.662 Q54.6797 765.562 53.0883 762.729 Q51.4968 759.864 51.4968 756.141 Q51.4968 749.998 55.3163 746.847 Q59.1038 743.696 66.4881 743.696 Z" fill="#000000" fill-rule="evenodd" fill-opacity="1" /><path clip-path="url(#clip640)" d="M 0 0 M98.8259 710.467 L103.377 710.467 L103.377 744.332 L98.8259 744.332 L98.8259 710.467 Z" fill="#000000" fill-rule="evenodd" fill-opacity="1" /><path clip-path="url(#clip640)" d="M 0 0 M57.7671 680.866 L38.479 680.866 L38.479 675.01 L88.0042 675.01 L88.0042 680.866 L82.657 680.866 Q85.8398 682.712 87.3994 685.545 Q88.9272 688.346 88.9272 692.292 Q88.9272 698.754 83.771 702.828 Q78.6147 706.87 70.212 706.87 Q61.8093 706.87 56.6531 702.828 Q51.4968 698.754 51.4968 692.292 Q51.4968 688.346 53.0564 685.545 Q54.5842 682.712 57.7671 680.866 M70.212 700.823 Q76.6732 700.823 80.3653 698.181 Q84.0256 695.507 84.0256 690.86 Q84.0256 686.213 80.3653 683.54 Q76.6732 680.866 70.212 680.866 Q63.7508 680.866 60.0905 683.54 Q56.3984 686.213 56.3984 690.86 Q56.3984 695.507 60.0905 698.181 Q63.7508 700.823 70.212 700.823 Z" fill="#000000" fill-rule="evenodd" fill-opacity="1" /><path clip-path="url(#clip640)" d="M 0 0 M52.3562 668.867 L52.3562 663.01 L88.0042 663.01 L88.0042 668.867 L52.3562 668.867 M38.479 668.867 L38.479 663.01 L45.895 663.01 L45.895 668.867 L38.479 668.867 Z" fill="#000000" fill-rule="evenodd" fill-opacity="1" /><path clip-path="url(#clip640)" d="M 0 0 M38.479 638.821 L43.3487 638.821 L43.3487 644.422 Q43.3487 647.573 44.6219 648.815 Q45.895 650.024 49.2052 650.024 L52.3562 650.024 L52.3562 640.38 L56.9077 640.38 L56.9077 650.024 L88.0042 650.024 L88.0042 655.912 L56.9077 655.912 L56.9077 661.514 L52.3562 661.514 L52.3562 655.912 L49.8736 655.912 Q43.9216 655.912 41.2162 653.143 Q38.479 650.374 38.479 644.359 L38.479 638.821 Z" fill="#000000" fill-rule="evenodd" fill-opacity="1" /><path clip-path="url(#clip640)" d="M 0 0 M38.479 614.631 L43.3487 614.631 L43.3487 620.233 Q43.3487 623.384 44.6219 624.625 Q45.895 625.835 49.2052 625.835 L52.3562 625.835 L52.3562 616.19 L56.9077 616.19 L56.9077 625.835 L88.0042 625.835 L88.0042 631.723 L56.9077 631.723 L56.9077 637.325 L52.3562 637.325 L52.3562 631.723 L49.8736 631.723 Q43.9216 631.723 41.2162 628.954 Q38.479 626.185 38.479 620.169 L38.479 614.631 Z" fill="#000000" fill-rule="evenodd" fill-opacity="1" /><polyline clip-path="url(#clip642)" style="stroke:#009af9; stroke-width:20; stroke-opacity:1; fill:none" stroke-dasharray="80, 50" points="
  263.316,1338.44 516.889,1345.7 770.462,1354.64 1024.03,1367.11 1277.61,1372.3 1531.18,1255.55 1784.75,902.407 2038.33,408.833 2291.9,85.838 
  "/>
<path clip-path="url(#clip640)" d="
M1991.14 213.659 L2281.08 213.659 L2281.08 92.6992 L1991.14 92.6992  Z
  " fill="#ffffff" fill-rule="evenodd" fill-opacity="1"/>
<polyline clip-path="url(#clip640)" style="stroke:#000000; stroke-width:4; stroke-opacity:1; fill:none" points="
  1991.14,213.659 2281.08,213.659 2281.08,92.6992 1991.14,92.6992 1991.14,213.659 
  "/>
<polyline clip-path="url(#clip640)" style="stroke:#009af9; stroke-width:4; stroke-opacity:1; fill:none" stroke-dasharray="16, 10" points="
  2015.03,153.179 2158.38,153.179 
  "/>
<path clip-path="url(#clip640)" d="M 0 0 M2196.12 172.867 Q2194.31 177.496 2192.6 178.908 Q2190.89 180.32 2188.02 180.32 L2184.61 180.32 L2184.61 176.755 L2187.11 176.755 Q2188.87 176.755 2189.85 175.922 Q2190.82 175.089 2192 171.987 L2192.76 170.043 L2182.28 144.533 L2186.79 144.533 L2194.89 164.811 L2202.99 144.533 L2207.51 144.533 L2196.12 172.867 Z" fill="#000000" fill-rule="evenodd" fill-opacity="1" /><path clip-path="url(#clip640)" d="M 0 0 M2213.39 166.524 L2221.03 166.524 L2221.03 140.158 L2212.72 141.825 L2212.72 137.566 L2220.98 135.899 L2225.66 135.899 L2225.66 166.524 L2233.29 166.524 L2233.29 170.459 L2213.39 170.459 L2213.39 166.524 Z" fill="#000000" fill-rule="evenodd" fill-opacity="1" /></svg>
