<?xml version="1.0" encoding="utf-8"?>
<svg xmlns="http://www.w3.org/2000/svg" xmlns:xlink="http://www.w3.org/1999/xlink" width="600" height="400" viewBox="0 0 2400 1600">
<defs>
  <clipPath id="clip070">
    <rect x="0" y="0" width="2400" height="1600"/>
  </clipPath>
</defs>
<path clip-path="url(#clip070)" d="
M0 1600 L2400 1600 L2400 0 L0 0  Z
  " fill="#ffffff" fill-rule="evenodd" fill-opacity="1"/>
<defs>
  <clipPath id="clip071">
    <rect x="480" y="0" width="1681" height="1600"/>
  </clipPath>
</defs>
<path clip-path="url(#clip070)" d="
M220.352 1410.9 L2352.76 1410.9 L2352.76 47.2441 L220.352 47.2441  Z
  " fill="#ffffff" fill-rule="evenodd" fill-opacity="1"/>
<defs>
  <clipPath id="clip072">
    <rect x="220" y="47" width="2133" height="1365"/>
  </clipPath>
</defs>
<polyline clip-path="url(#clip072)" style="stroke:#000000; stroke-linecap:butt; stroke-linejoin:round; stroke-width:2; stroke-opacity:0.1; fill:none" points="
  884.214,1410.9 884.214,47.2441 
  "/>
<polyline clip-path="url(#clip072)" style="stroke:#000000; stroke-linecap:butt; stroke-linejoin:round; stroke-width:2; stroke-opacity:0.1; fill:none" points="
  1688.89,1410.9 1688.89,47.2441 
  "/>
<polyline clip-path="url(#clip070)" style="stroke:#000000; stroke-linecap:butt; stroke-linejoin:round; stroke-width:4; stroke-opacity:1; fill:none" points="
  220.352,1410.9 2352.76,1410.9 
  "/>
<polyline clip-path="url(#clip070)" style="stroke:#000000; stroke-linecap:butt; stroke-linejoin:round; stroke-width:4; stroke-opacity:1; fill:none" points="
  884.214,1410.9 884.214,1392 
  "/>
<polyline clip-path="url(#clip070)" style="stroke:#000000; stroke-linecap:butt; stroke-linejoin:round; stroke-width:4; stroke-opacity:1; fill:none" points="
  1688.89,1410.9 1688.89,1392 
  "/>
<path clip-path="url(#clip070)" d="M815.39 1485.02 L823.029 1485.02 L823.029 1458.66 L814.718 1460.32 L814.718 1456.06 L822.982 1454.4 L827.658 1454.4 L827.658 1485.02 L835.297 1485.02 L835.297 1488.96 L815.39 1488.96 L815.39 1485.02 Z" fill="#000000" fill-rule="evenodd" fill-opacity="1" /><path clip-path="url(#clip070)" d="M854.741 1457.48 Q851.13 1457.48 849.302 1461.04 Q847.496 1464.58 847.496 1471.71 Q847.496 1478.82 849.302 1482.38 Q851.13 1485.92 854.741 1485.92 Q858.376 1485.92 860.181 1482.38 Q862.01 1478.82 862.01 1471.71 Q862.01 1464.58 860.181 1461.04 Q858.376 1457.48 854.741 1457.48 M854.741 1453.77 Q860.552 1453.77 863.607 1458.38 Q866.686 1462.96 866.686 1471.71 Q866.686 1480.44 863.607 1485.04 Q860.552 1489.63 854.741 1489.63 Q848.931 1489.63 845.853 1485.04 Q842.797 1480.44 842.797 1471.71 Q842.797 1462.96 845.853 1458.38 Q848.931 1453.77 854.741 1453.77 Z" fill="#000000" fill-rule="evenodd" fill-opacity="1" /><path clip-path="url(#clip070)" d="M866.686 1447.87 L890.797 1447.87 L890.797 1451.07 L866.686 1451.07 L866.686 1447.87 Z" fill="#000000" fill-rule="evenodd" fill-opacity="1" /><path clip-path="url(#clip070)" d="M910.508 1446.41 Q913.235 1446.99 914.758 1448.83 Q916.301 1450.68 916.301 1453.38 Q916.301 1457.54 913.442 1459.82 Q910.583 1462.09 905.317 1462.09 Q903.549 1462.09 901.668 1461.73 Q899.806 1461.4 897.813 1460.7 L897.813 1457.03 Q899.392 1457.95 901.273 1458.42 Q903.154 1458.89 905.204 1458.89 Q908.778 1458.89 910.639 1457.48 Q912.52 1456.07 912.52 1453.38 Q912.52 1450.9 910.771 1449.51 Q909.041 1448.1 905.938 1448.1 L902.665 1448.1 L902.665 1444.98 L906.088 1444.98 Q908.89 1444.98 910.376 1443.87 Q911.862 1442.74 911.862 1440.63 Q911.862 1438.47 910.32 1437.32 Q908.796 1436.16 905.938 1436.16 Q904.377 1436.16 902.59 1436.49 Q900.803 1436.83 898.659 1437.55 L898.659 1434.16 Q900.822 1433.56 902.703 1433.26 Q904.602 1432.96 906.276 1432.96 Q910.602 1432.96 913.122 1434.93 Q915.642 1436.89 915.642 1440.24 Q915.642 1442.57 914.307 1444.19 Q912.972 1445.79 910.508 1446.41 Z" fill="#000000" fill-rule="evenodd" fill-opacity="1" /><path clip-path="url(#clip070)" d="M923.504 1456.77 L927.472 1456.77 L927.472 1461.55 L923.504 1461.55 L923.504 1456.77 Z" fill="#000000" fill-rule="evenodd" fill-opacity="1" /><path clip-path="url(#clip070)" d="M944.343 1445.99 Q941.785 1445.99 940.281 1447.74 Q938.795 1449.49 938.795 1452.54 Q938.795 1455.57 940.281 1457.33 Q941.785 1459.08 944.343 1459.08 Q946.901 1459.08 948.387 1457.33 Q949.891 1455.57 949.891 1452.54 Q949.891 1449.49 948.387 1447.74 Q946.901 1445.99 944.343 1445.99 M951.885 1434.09 L951.885 1437.55 Q950.456 1436.87 948.989 1436.51 Q947.54 1436.16 946.111 1436.16 Q942.349 1436.16 940.356 1438.69 Q938.381 1441.23 938.099 1446.37 Q939.208 1444.73 940.882 1443.87 Q942.556 1442.98 944.569 1442.98 Q948.8 1442.98 951.245 1445.56 Q953.709 1448.12 953.709 1452.54 Q953.709 1456.86 951.151 1459.48 Q948.594 1462.09 944.343 1462.09 Q939.472 1462.09 936.895 1458.37 Q934.318 1454.62 934.318 1447.53 Q934.318 1440.88 937.478 1436.93 Q940.638 1432.96 945.96 1432.96 Q947.39 1432.96 948.838 1433.24 Q950.305 1433.52 951.885 1434.09 Z" fill="#000000" fill-rule="evenodd" fill-opacity="1" /><path clip-path="url(#clip070)" d="M1619.94 1485.02 L1627.58 1485.02 L1627.58 1458.66 L1619.27 1460.32 L1619.27 1456.06 L1627.53 1454.4 L1632.21 1454.4 L1632.21 1485.02 L1639.85 1485.02 L1639.85 1488.96 L1619.94 1488.96 L1619.94 1485.02 Z" fill="#000000" fill-rule="evenodd" fill-opacity="1" /><path clip-path="url(#clip070)" d="M1659.29 1457.48 Q1655.68 1457.48 1653.85 1461.04 Q1652.04 1464.58 1652.04 1471.71 Q1652.04 1478.82 1653.85 1482.38 Q1655.68 1485.92 1659.29 1485.92 Q1662.92 1485.92 1664.73 1482.38 Q1666.56 1478.82 1666.56 1471.71 Q1666.56 1464.58 1664.73 1461.04 Q1662.92 1457.48 1659.29 1457.48 M1659.29 1453.77 Q1665.1 1453.77 1668.16 1458.38 Q1671.23 1462.96 1671.23 1471.71 Q1671.23 1480.44 1668.16 1485.04 Q1665.1 1489.63 1659.29 1489.63 Q1653.48 1489.63 1650.4 1485.04 Q1647.35 1480.44 1647.35 1471.71 Q1647.35 1462.96 1650.4 1458.38 Q1653.48 1453.77 1659.29 1453.77 Z" fill="#000000" fill-rule="evenodd" fill-opacity="1" /><path clip-path="url(#clip070)" d="M1671.23 1447.87 L1695.35 1447.87 L1695.35 1451.07 L1671.23 1451.07 L1671.23 1447.87 Z" fill="#000000" fill-rule="evenodd" fill-opacity="1" /><path clip-path="url(#clip070)" d="M1715.06 1446.41 Q1717.78 1446.99 1719.31 1448.83 Q1720.85 1450.68 1720.85 1453.38 Q1720.85 1457.54 1717.99 1459.82 Q1715.13 1462.09 1709.87 1462.09 Q1708.1 1462.09 1706.22 1461.73 Q1704.36 1461.4 1702.36 1460.7 L1702.36 1457.03 Q1703.94 1457.95 1705.82 1458.42 Q1707.7 1458.89 1709.75 1458.89 Q1713.33 1458.89 1715.19 1457.48 Q1717.07 1456.07 1717.07 1453.38 Q1717.07 1450.9 1715.32 1449.51 Q1713.59 1448.1 1710.49 1448.1 L1707.21 1448.1 L1707.21 1444.98 L1710.64 1444.98 Q1713.44 1444.98 1714.93 1443.87 Q1716.41 1442.74 1716.41 1440.63 Q1716.41 1438.47 1714.87 1437.32 Q1713.35 1436.16 1710.49 1436.16 Q1708.93 1436.16 1707.14 1436.49 Q1705.35 1436.83 1703.21 1437.55 L1703.21 1434.16 Q1705.37 1433.56 1707.25 1433.26 Q1709.15 1432.96 1710.83 1432.96 Q1715.15 1432.96 1717.67 1434.93 Q1720.19 1436.89 1720.19 1440.24 Q1720.19 1442.57 1718.86 1444.19 Q1717.52 1445.79 1715.06 1446.41 Z" fill="#000000" fill-rule="evenodd" fill-opacity="1" /><path clip-path="url(#clip070)" d="M1728.05 1456.77 L1732.02 1456.77 L1732.02 1461.55 L1728.05 1461.55 L1728.05 1456.77 Z" fill="#000000" fill-rule="evenodd" fill-opacity="1" /><path clip-path="url(#clip070)" d="M1750.74 1436.78 L1741.14 1451.77 L1750.74 1451.77 L1750.74 1436.78 M1749.74 1433.47 L1754.52 1433.47 L1754.52 1451.77 L1758.52 1451.77 L1758.52 1454.93 L1754.52 1454.93 L1754.52 1461.55 L1750.74 1461.55 L1750.74 1454.93 L1738.06 1454.93 L1738.06 1451.26 L1749.74 1433.47 Z" fill="#000000" fill-rule="evenodd" fill-opacity="1" /><path clip-path="url(#clip070)" d="M1169.73 1538.54 L1175.93 1538.54 L1187.07 1568.46 L1198.21 1538.54 L1204.42 1538.54 L1191.05 1574.19 L1183.1 1574.19 L1169.73 1538.54 Z" fill="#000000" fill-rule="evenodd" fill-opacity="1" /><path clip-path="url(#clip070)" d="M1239.59 1585.01 L1239.59 1589.56 L1205.73 1589.56 L1205.73 1585.01 L1239.59 1585.01 Z" fill="#000000" fill-rule="evenodd" fill-opacity="1" /><path clip-path="url(#clip070)" d="M1270.75 1539.91 L1270.75 1545.38 Q1268.27 1544.01 1265.75 1543.34 Q1263.27 1542.64 1260.73 1542.64 Q1255.03 1542.64 1251.88 1546.27 Q1248.73 1549.87 1248.73 1556.39 Q1248.73 1562.92 1251.88 1566.55 Q1255.03 1570.14 1260.73 1570.14 Q1263.27 1570.14 1265.75 1569.47 Q1268.27 1568.77 1270.75 1567.41 L1270.75 1572.82 Q1268.3 1573.96 1265.66 1574.54 Q1263.05 1575.11 1260.09 1575.11 Q1252.04 1575.11 1247.29 1570.05 Q1242.55 1564.99 1242.55 1556.39 Q1242.55 1547.67 1247.33 1542.68 Q1252.13 1537.68 1260.47 1537.68 Q1263.18 1537.68 1265.75 1538.25 Q1268.33 1538.79 1270.75 1539.91 Z" fill="#000000" fill-rule="evenodd" fill-opacity="1" /><path clip-path="url(#clip070)" d="M1280.94 1524.66 L1286.79 1524.66 L1286.79 1574.19 L1280.94 1574.19 L1280.94 1524.66 Z" fill="#000000" fill-rule="evenodd" fill-opacity="1" /><path clip-path="url(#clip070)" d="M1312.86 1542.64 Q1308.15 1542.64 1305.41 1546.34 Q1302.68 1550 1302.68 1556.39 Q1302.68 1562.79 1305.38 1566.48 Q1308.12 1570.14 1312.86 1570.14 Q1317.54 1570.14 1320.28 1566.45 Q1323.01 1562.76 1323.01 1556.39 Q1323.01 1550.06 1320.28 1546.37 Q1317.54 1542.64 1312.86 1542.64 M1312.86 1537.68 Q1320.5 1537.68 1324.86 1542.64 Q1329.22 1547.61 1329.22 1556.39 Q1329.22 1565.15 1324.86 1570.14 Q1320.5 1575.11 1312.86 1575.11 Q1305.19 1575.11 1300.83 1570.14 Q1296.5 1565.15 1296.5 1556.39 Q1296.5 1547.61 1300.83 1542.64 Q1305.19 1537.68 1312.86 1537.68 Z" fill="#000000" fill-rule="evenodd" fill-opacity="1" /><path clip-path="url(#clip070)" d="M1361.65 1539.59 L1361.65 1545.13 Q1359.17 1543.85 1356.5 1543.22 Q1353.82 1542.58 1350.96 1542.58 Q1346.6 1542.58 1344.4 1543.92 Q1342.24 1545.25 1342.24 1547.93 Q1342.24 1549.96 1343.8 1551.14 Q1345.36 1552.29 1350.07 1553.34 L1352.07 1553.78 Q1358.31 1555.12 1360.92 1557.57 Q1363.56 1559.99 1363.56 1564.35 Q1363.56 1569.32 1359.62 1572.21 Q1355.7 1575.11 1348.83 1575.11 Q1345.96 1575.11 1342.84 1574.54 Q1339.76 1573.99 1336.32 1572.88 L1336.32 1566.83 Q1339.56 1568.52 1342.72 1569.38 Q1345.87 1570.21 1348.95 1570.21 Q1353.09 1570.21 1355.32 1568.81 Q1357.55 1567.37 1357.55 1564.8 Q1357.55 1562.41 1355.92 1561.14 Q1354.33 1559.86 1348.89 1558.68 L1346.85 1558.21 Q1341.41 1557.06 1338.99 1554.71 Q1336.57 1552.32 1336.57 1548.18 Q1336.57 1543.15 1340.14 1540.42 Q1343.7 1537.68 1350.26 1537.68 Q1353.51 1537.68 1356.37 1538.16 Q1359.23 1538.63 1361.65 1539.59 Z" fill="#000000" fill-rule="evenodd" fill-opacity="1" /><path clip-path="url(#clip070)" d="M1403.38 1554.9 L1403.38 1557.76 L1376.45 1557.76 Q1376.84 1563.81 1380.08 1566.99 Q1383.36 1570.14 1389.19 1570.14 Q1392.56 1570.14 1395.71 1569.32 Q1398.89 1568.49 1402.01 1566.83 L1402.01 1572.37 Q1398.86 1573.71 1395.55 1574.41 Q1392.24 1575.11 1388.84 1575.11 Q1380.31 1575.11 1375.31 1570.14 Q1370.34 1565.18 1370.34 1556.71 Q1370.34 1547.96 1375.05 1542.83 Q1379.8 1537.68 1387.82 1537.68 Q1395.01 1537.68 1399.18 1542.33 Q1403.38 1546.94 1403.38 1554.9 M1397.52 1553.18 Q1397.46 1548.37 1394.82 1545.51 Q1392.21 1542.64 1387.88 1542.64 Q1382.98 1542.64 1380.02 1545.41 Q1377.09 1548.18 1376.64 1553.21 L1397.52 1553.18 Z" fill="#000000" fill-rule="evenodd" fill-opacity="1" /><polyline clip-path="url(#clip072)" style="stroke:#000000; stroke-linecap:butt; stroke-linejoin:round; stroke-width:2; stroke-opacity:0.1; fill:none" points="
  220.352,1284.68 2352.76,1284.68 
  "/>
<polyline clip-path="url(#clip072)" style="stroke:#000000; stroke-linecap:butt; stroke-linejoin:round; stroke-width:2; stroke-opacity:0.1; fill:none" points="
  220.352,1104.28 2352.76,1104.28 
  "/>
<polyline clip-path="url(#clip072)" style="stroke:#000000; stroke-linecap:butt; stroke-linejoin:round; stroke-width:2; stroke-opacity:0.1; fill:none" points="
  220.352,923.872 2352.76,923.872 
  "/>
<polyline clip-path="url(#clip072)" style="stroke:#000000; stroke-linecap:butt; stroke-linejoin:round; stroke-width:2; stroke-opacity:0.1; fill:none" points="
  220.352,743.468 2352.76,743.468 
  "/>
<polyline clip-path="url(#clip072)" style="stroke:#000000; stroke-linecap:butt; stroke-linejoin:round; stroke-width:2; stroke-opacity:0.1; fill:none" points="
  220.352,563.065 2352.76,563.065 
  "/>
<polyline clip-path="url(#clip072)" style="stroke:#000000; stroke-linecap:butt; stroke-linejoin:round; stroke-width:2; stroke-opacity:0.1; fill:none" points="
  220.352,382.661 2352.76,382.661 
  "/>
<polyline clip-path="url(#clip072)" style="stroke:#000000; stroke-linecap:butt; stroke-linejoin:round; stroke-width:2; stroke-opacity:0.1; fill:none" points="
  220.352,202.258 2352.76,202.258 
  "/>
<polyline clip-path="url(#clip070)" style="stroke:#000000; stroke-linecap:butt; stroke-linejoin:round; stroke-width:4; stroke-opacity:1; fill:none" points="
  220.352,1410.9 220.352,47.2441 
  "/>
<polyline clip-path="url(#clip070)" style="stroke:#000000; stroke-linecap:butt; stroke-linejoin:round; stroke-width:4; stroke-opacity:1; fill:none" points="
  220.352,1284.68 239.25,1284.68 
  "/>
<polyline clip-path="url(#clip070)" style="stroke:#000000; stroke-linecap:butt; stroke-linejoin:round; stroke-width:4; stroke-opacity:1; fill:none" points="
  220.352,1104.28 239.25,1104.28 
  "/>
<polyline clip-path="url(#clip070)" style="stroke:#000000; stroke-linecap:butt; stroke-linejoin:round; stroke-width:4; stroke-opacity:1; fill:none" points="
  220.352,923.872 239.25,923.872 
  "/>
<polyline clip-path="url(#clip070)" style="stroke:#000000; stroke-linecap:butt; stroke-linejoin:round; stroke-width:4; stroke-opacity:1; fill:none" points="
  220.352,743.468 239.25,743.468 
  "/>
<polyline clip-path="url(#clip070)" style="stroke:#000000; stroke-linecap:butt; stroke-linejoin:round; stroke-width:4; stroke-opacity:1; fill:none" points="
  220.352,563.065 239.25,563.065 
  "/>
<polyline clip-path="url(#clip070)" style="stroke:#000000; stroke-linecap:butt; stroke-linejoin:round; stroke-width:4; stroke-opacity:1; fill:none" points="
  220.352,382.661 239.25,382.661 
  "/>
<polyline clip-path="url(#clip070)" style="stroke:#000000; stroke-linecap:butt; stroke-linejoin:round; stroke-width:4; stroke-opacity:1; fill:none" points="
  220.352,202.258 239.25,202.258 
  "/>
<path clip-path="url(#clip070)" d="M129.862 1271.47 L118.056 1289.92 L129.862 1289.92 L129.862 1271.47 M128.635 1267.4 L134.515 1267.4 L134.515 1289.92 L139.445 1289.92 L139.445 1293.81 L134.515 1293.81 L134.515 1301.96 L129.862 1301.96 L129.862 1293.81 L114.26 1293.81 L114.26 1289.3 L128.635 1267.4 Z" fill="#000000" fill-rule="evenodd" fill-opacity="1" /><path clip-path="url(#clip070)" d="M147.177 1296.08 L152.061 1296.08 L152.061 1301.96 L147.177 1301.96 L147.177 1296.08 Z" fill="#000000" fill-rule="evenodd" fill-opacity="1" /><path clip-path="url(#clip070)" d="M172.825 1282.82 Q169.677 1282.82 167.825 1284.97 Q165.996 1287.12 165.996 1290.87 Q165.996 1294.6 167.825 1296.77 Q169.677 1298.93 172.825 1298.93 Q175.973 1298.93 177.801 1296.77 Q179.653 1294.6 179.653 1290.87 Q179.653 1287.12 177.801 1284.97 Q175.973 1282.82 172.825 1282.82 M182.107 1268.16 L182.107 1272.42 Q180.348 1271.59 178.542 1271.15 Q176.76 1270.71 175.001 1270.71 Q170.371 1270.71 167.917 1273.83 Q165.487 1276.96 165.14 1283.28 Q166.505 1281.26 168.565 1280.2 Q170.626 1279.11 173.102 1279.11 Q178.311 1279.11 181.32 1282.28 Q184.352 1285.43 184.352 1290.87 Q184.352 1296.19 181.204 1299.41 Q178.056 1302.63 172.825 1302.63 Q166.829 1302.63 163.658 1298.05 Q160.487 1293.44 160.487 1284.71 Q160.487 1276.52 164.376 1271.66 Q168.264 1266.77 174.815 1266.77 Q176.575 1266.77 178.357 1267.12 Q180.163 1267.47 182.107 1268.16 Z" fill="#000000" fill-rule="evenodd" fill-opacity="1" /><path clip-path="url(#clip070)" d="M130.927 1091.07 L119.121 1109.52 L130.927 1109.52 L130.927 1091.07 M129.7 1087 L135.579 1087 L135.579 1109.52 L140.51 1109.52 L140.51 1113.41 L135.579 1113.41 L135.579 1121.56 L130.927 1121.56 L130.927 1113.41 L115.325 1113.41 L115.325 1108.89 L129.7 1087 Z" fill="#000000" fill-rule="evenodd" fill-opacity="1" /><path clip-path="url(#clip070)" d="M148.241 1115.68 L153.126 1115.68 L153.126 1121.56 L148.241 1121.56 L148.241 1115.68 Z" fill="#000000" fill-rule="evenodd" fill-opacity="1" /><path clip-path="url(#clip070)" d="M162.13 1087 L184.352 1087 L184.352 1088.99 L171.806 1121.56 L166.922 1121.56 L178.727 1090.93 L162.13 1090.93 L162.13 1087 Z" fill="#000000" fill-rule="evenodd" fill-opacity="1" /><path clip-path="url(#clip070)" d="M130.117 910.666 L118.311 929.115 L130.117 929.115 L130.117 910.666 M128.89 906.592 L134.769 906.592 L134.769 929.115 L139.7 929.115 L139.7 933.004 L134.769 933.004 L134.769 941.152 L130.117 941.152 L130.117 933.004 L114.515 933.004 L114.515 928.49 L128.89 906.592 Z" fill="#000000" fill-rule="evenodd" fill-opacity="1" /><path clip-path="url(#clip070)" d="M147.431 935.272 L152.316 935.272 L152.316 941.152 L147.431 941.152 L147.431 935.272 Z" fill="#000000" fill-rule="evenodd" fill-opacity="1" /><path clip-path="url(#clip070)" d="M172.501 924.74 Q169.167 924.74 167.246 926.522 Q165.348 928.305 165.348 931.43 Q165.348 934.554 167.246 936.337 Q169.167 938.119 172.501 938.119 Q175.834 938.119 177.755 936.337 Q179.676 934.531 179.676 931.43 Q179.676 928.305 177.755 926.522 Q175.857 924.74 172.501 924.74 M167.825 922.749 Q164.815 922.008 163.126 919.948 Q161.459 917.888 161.459 914.925 Q161.459 910.781 164.399 908.374 Q167.362 905.967 172.501 905.967 Q177.663 905.967 180.602 908.374 Q183.542 910.781 183.542 914.925 Q183.542 917.888 181.852 919.948 Q180.186 922.008 177.2 922.749 Q180.579 923.536 182.454 925.828 Q184.352 928.119 184.352 931.43 Q184.352 936.453 181.274 939.138 Q178.218 941.823 172.501 941.823 Q166.783 941.823 163.704 939.138 Q160.649 936.453 160.649 931.43 Q160.649 928.119 162.547 925.828 Q164.445 923.536 167.825 922.749 M166.112 915.365 Q166.112 918.05 167.778 919.555 Q169.468 921.059 172.501 921.059 Q175.51 921.059 177.2 919.555 Q178.913 918.05 178.913 915.365 Q178.913 912.68 177.2 911.175 Q175.51 909.67 172.501 909.67 Q169.468 909.67 167.778 911.175 Q166.112 912.68 166.112 915.365 Z" fill="#000000" fill-rule="evenodd" fill-opacity="1" /><path clip-path="url(#clip070)" d="M130.209 730.262 L118.404 748.711 L130.209 748.711 L130.209 730.262 M128.982 726.188 L134.862 726.188 L134.862 748.711 L139.792 748.711 L139.792 752.6 L134.862 752.6 L134.862 760.748 L130.209 760.748 L130.209 752.6 L114.607 752.6 L114.607 748.086 L128.982 726.188 Z" fill="#000000" fill-rule="evenodd" fill-opacity="1" /><path clip-path="url(#clip070)" d="M147.524 754.869 L152.408 754.869 L152.408 760.748 L147.524 760.748 L147.524 754.869 Z" fill="#000000" fill-rule="evenodd" fill-opacity="1" /><path clip-path="url(#clip070)" d="M162.732 760.031 L162.732 755.771 Q164.491 756.605 166.297 757.045 Q168.102 757.484 169.839 757.484 Q174.468 757.484 176.899 754.383 Q179.352 751.258 179.7 744.915 Q178.357 746.906 176.297 747.971 Q174.237 749.035 171.737 749.035 Q166.552 749.035 163.519 745.91 Q160.51 742.762 160.51 737.322 Q160.51 731.998 163.658 728.781 Q166.806 725.563 172.038 725.563 Q178.033 725.563 181.181 730.17 Q184.352 734.753 184.352 743.503 Q184.352 751.674 180.464 756.558 Q176.598 761.42 170.047 761.42 Q168.288 761.42 166.482 761.072 Q164.677 760.725 162.732 760.031 M172.038 745.378 Q175.186 745.378 177.014 743.225 Q178.866 741.072 178.866 737.322 Q178.866 733.596 177.014 731.443 Q175.186 729.267 172.038 729.267 Q168.889 729.267 167.038 731.443 Q165.209 733.596 165.209 737.322 Q165.209 741.072 167.038 743.225 Q168.889 745.378 172.038 745.378 Z" fill="#000000" fill-rule="evenodd" fill-opacity="1" /><path clip-path="url(#clip070)" d="M117.223 545.785 L135.579 545.785 L135.579 549.72 L121.505 549.72 L121.505 558.192 Q122.524 557.845 123.543 557.683 Q124.561 557.498 125.58 557.498 Q131.367 557.498 134.746 560.669 Q138.126 563.84 138.126 569.257 Q138.126 574.836 134.654 577.937 Q131.181 581.016 124.862 581.016 Q122.686 581.016 120.418 580.646 Q118.172 580.275 115.765 579.535 L115.765 574.836 Q117.848 575.97 120.07 576.525 Q122.293 577.081 124.769 577.081 Q128.774 577.081 131.112 574.974 Q133.45 572.868 133.45 569.257 Q133.45 565.646 131.112 563.539 Q128.774 561.433 124.769 561.433 Q122.894 561.433 121.019 561.849 Q119.168 562.266 117.223 563.146 L117.223 545.785 Z" fill="#000000" fill-rule="evenodd" fill-opacity="1" /><path clip-path="url(#clip070)" d="M147.339 574.465 L152.223 574.465 L152.223 580.345 L147.339 580.345 L147.339 574.465 Z" fill="#000000" fill-rule="evenodd" fill-opacity="1" /><path clip-path="url(#clip070)" d="M172.408 548.863 Q168.797 548.863 166.968 552.428 Q165.163 555.97 165.163 563.099 Q165.163 570.206 166.968 573.771 Q168.797 577.312 172.408 577.312 Q176.042 577.312 177.848 573.771 Q179.676 570.206 179.676 563.099 Q179.676 555.97 177.848 552.428 Q176.042 548.863 172.408 548.863 M172.408 545.16 Q178.218 545.16 181.274 549.766 Q184.352 554.35 184.352 563.099 Q184.352 571.826 181.274 576.433 Q178.218 581.016 172.408 581.016 Q166.598 581.016 163.519 576.433 Q160.464 571.826 160.464 563.099 Q160.464 554.35 163.519 549.766 Q166.598 545.16 172.408 545.16 Z" fill="#000000" fill-rule="evenodd" fill-opacity="1" /><path clip-path="url(#clip070)" d="M118.45 365.381 L136.806 365.381 L136.806 369.316 L122.732 369.316 L122.732 377.789 Q123.751 377.441 124.769 377.279 Q125.788 377.094 126.806 377.094 Q132.593 377.094 135.973 380.266 Q139.353 383.437 139.353 388.853 Q139.353 394.432 135.88 397.534 Q132.408 400.613 126.089 400.613 Q123.913 400.613 121.644 400.242 Q119.399 399.872 116.992 399.131 L116.992 394.432 Q119.075 395.566 121.297 396.122 Q123.519 396.677 125.996 396.677 Q130.001 396.677 132.339 394.571 Q134.677 392.465 134.677 388.853 Q134.677 385.242 132.339 383.136 Q130.001 381.029 125.996 381.029 Q124.121 381.029 122.246 381.446 Q120.394 381.863 118.45 382.742 L118.45 365.381 Z" fill="#000000" fill-rule="evenodd" fill-opacity="1" /><path clip-path="url(#clip070)" d="M148.566 394.062 L153.45 394.062 L153.45 399.941 L148.566 399.941 L148.566 394.062 Z" fill="#000000" fill-rule="evenodd" fill-opacity="1" /><path clip-path="url(#clip070)" d="M164.445 396.006 L172.084 396.006 L172.084 369.641 L163.774 371.307 L163.774 367.048 L172.038 365.381 L176.714 365.381 L176.714 396.006 L184.352 396.006 L184.352 399.941 L164.445 399.941 L164.445 396.006 Z" fill="#000000" fill-rule="evenodd" fill-opacity="1" /><path clip-path="url(#clip070)" d="M118.82 184.978 L137.177 184.978 L137.177 188.913 L123.103 188.913 L123.103 197.385 Q124.121 197.038 125.14 196.876 Q126.158 196.691 127.177 196.691 Q132.964 196.691 136.343 199.862 Q139.723 203.033 139.723 208.45 Q139.723 214.029 136.251 217.13 Q132.779 220.209 126.459 220.209 Q124.283 220.209 122.015 219.839 Q119.769 219.468 117.362 218.728 L117.362 214.029 Q119.445 215.163 121.668 215.718 Q123.89 216.274 126.367 216.274 Q130.371 216.274 132.709 214.168 Q135.047 212.061 135.047 208.45 Q135.047 204.839 132.709 202.732 Q130.371 200.626 126.367 200.626 Q124.492 200.626 122.617 201.043 Q120.765 201.459 118.82 202.339 L118.82 184.978 Z" fill="#000000" fill-rule="evenodd" fill-opacity="1" /><path clip-path="url(#clip070)" d="M148.936 213.658 L153.82 213.658 L153.82 219.538 L148.936 219.538 L148.936 213.658 Z" fill="#000000" fill-rule="evenodd" fill-opacity="1" /><path clip-path="url(#clip070)" d="M168.033 215.603 L184.352 215.603 L184.352 219.538 L162.408 219.538 L162.408 215.603 Q165.07 212.848 169.653 208.218 Q174.26 203.566 175.44 202.223 Q177.686 199.7 178.565 197.964 Q179.468 196.205 179.468 194.515 Q179.468 191.76 177.524 190.024 Q175.602 188.288 172.501 188.288 Q170.302 188.288 167.848 189.052 Q165.417 189.816 162.64 191.367 L162.64 186.645 Q165.464 185.51 167.917 184.932 Q170.371 184.353 172.408 184.353 Q177.778 184.353 180.973 187.038 Q184.167 189.723 184.167 194.214 Q184.167 196.344 183.357 198.265 Q182.57 200.163 180.464 202.756 Q179.885 203.427 176.783 206.644 Q173.681 209.839 168.033 215.603 Z" fill="#000000" fill-rule="evenodd" fill-opacity="1" /><path clip-path="url(#clip070)" d="M35.1993 829.203 Q31.2526 827.007 29.3747 823.951 Q27.4968 820.896 27.4968 816.758 Q27.4968 811.188 31.4117 808.164 Q35.2948 805.141 42.4881 805.141 L64.0042 805.141 L64.0042 811.029 L42.679 811.029 Q37.5546 811.029 35.072 812.843 Q32.5894 814.657 32.5894 818.381 Q32.5894 822.933 35.6131 825.574 Q38.6368 828.216 43.8567 828.216 L64.0042 828.216 L64.0042 834.105 L42.679 834.105 Q37.5228 834.105 35.072 835.919 Q32.5894 837.733 32.5894 841.521 Q32.5894 846.008 35.6449 848.65 Q38.6686 851.292 43.8567 851.292 L64.0042 851.292 L64.0042 857.18 L28.3562 857.18 L28.3562 851.292 L33.8944 851.292 Q30.616 849.287 29.0564 846.486 Q27.4968 843.685 27.4968 839.834 Q27.4968 835.951 29.4702 833.245 Q31.4436 830.508 35.1993 829.203 Z" fill="#000000" fill-rule="evenodd" fill-opacity="1" /><path clip-path="url(#clip070)" d="M28.3562 793.459 L28.3562 787.603 L64.0042 787.603 L64.0042 793.459 L28.3562 793.459 M14.479 793.459 L14.479 787.603 L21.895 787.603 L21.895 793.459 L14.479 793.459 Z" fill="#000000" fill-rule="evenodd" fill-opacity="1" /><path clip-path="url(#clip070)" d="M42.4881 745.717 L64.0042 745.717 L64.0042 751.573 L42.679 751.573 Q37.6183 751.573 35.1038 753.547 Q32.5894 755.52 32.5894 759.467 Q32.5894 764.209 35.6131 766.946 Q38.6368 769.684 43.8567 769.684 L64.0042 769.684 L64.0042 775.572 L28.3562 775.572 L28.3562 769.684 L33.8944 769.684 Q30.6797 767.583 29.0883 764.75 Q27.4968 761.886 27.4968 758.162 Q27.4968 752.019 31.3163 748.868 Q35.1038 745.717 42.4881 745.717 Z" fill="#000000" fill-rule="evenodd" fill-opacity="1" /><path clip-path="url(#clip070)" d="M74.8259 706.95 L79.3773 706.95 L79.3773 740.815 L74.8259 740.815 L74.8259 706.95 Z" fill="#000000" fill-rule="evenodd" fill-opacity="1" /><path clip-path="url(#clip070)" d="M33.7671 677.986 L14.479 677.986 L14.479 672.129 L64.0042 672.129 L64.0042 677.986 L58.657 677.986 Q61.8398 679.832 63.3994 682.664 Q64.9272 685.465 64.9272 689.412 Q64.9272 695.873 59.771 699.947 Q54.6147 703.989 46.212 703.989 Q37.8093 703.989 32.6531 699.947 Q27.4968 695.873 27.4968 689.412 Q27.4968 685.465 29.0564 682.664 Q30.5842 679.832 33.7671 677.986 M46.212 697.942 Q52.6732 697.942 56.3653 695.3 Q60.0256 692.627 60.0256 687.98 Q60.0256 683.333 56.3653 680.659 Q52.6732 677.986 46.212 677.986 Q39.7508 677.986 36.0905 680.659 Q32.3984 683.333 32.3984 687.98 Q32.3984 692.627 36.0905 695.3 Q39.7508 697.942 46.212 697.942 Z" fill="#000000" fill-rule="evenodd" fill-opacity="1" /><path clip-path="url(#clip070)" d="M28.3562 660.066 L28.3562 654.21 L64.0042 654.21 L64.0042 660.066 L28.3562 660.066 M14.479 660.066 L14.479 654.21 L21.895 654.21 L21.895 660.066 L14.479 660.066 Z" fill="#000000" fill-rule="evenodd" fill-opacity="1" /><path clip-path="url(#clip070)" d="M14.479 623.909 L19.3487 623.909 L19.3487 629.511 Q19.3487 632.662 20.6219 633.903 Q21.895 635.113 25.2052 635.113 L28.3562 635.113 L28.3562 625.468 L32.9077 625.468 L32.9077 635.113 L64.0042 635.113 L64.0042 641.001 L32.9077 641.001 L32.9077 646.603 L28.3562 646.603 L28.3562 641.001 L25.8736 641.001 Q19.9216 641.001 17.2162 638.232 Q14.479 635.463 14.479 629.447 L14.479 623.909 Z" fill="#000000" fill-rule="evenodd" fill-opacity="1" /><path clip-path="url(#clip070)" d="M14.479 600.961 L19.3487 600.961 L19.3487 606.562 Q19.3487 609.713 20.6219 610.955 Q21.895 612.164 25.2052 612.164 L28.3562 612.164 L28.3562 602.52 L32.9077 602.52 L32.9077 612.164 L64.0042 612.164 L64.0042 618.052 L32.9077 618.052 L32.9077 623.654 L28.3562 623.654 L28.3562 618.052 L25.8736 618.052 Q19.9216 618.052 17.2162 615.283 Q14.479 612.514 14.479 606.499 L14.479 600.961 Z" fill="#000000" fill-rule="evenodd" fill-opacity="1" /><polyline clip-path="url(#clip072)" style="stroke:#009af9; stroke-linecap:butt; stroke-linejoin:round; stroke-width:20; stroke-opacity:1; fill:none" stroke-dasharray="80, 50" points="
  280.703,1372.3 1286.55,703.109 2292.4,85.838 
  "/>
<path clip-path="url(#clip070)" d="
M1992.31 196.379 L2281.68 196.379 L2281.68 92.6992 L1992.31 92.6992  Z
  " fill="#ffffff" fill-rule="evenodd" fill-opacity="1"/>
<polyline clip-path="url(#clip070)" style="stroke:#000000; stroke-linecap:butt; stroke-linejoin:round; stroke-width:4; stroke-opacity:1; fill:none" points="
  1992.31,196.379 2281.68,196.379 2281.68,92.6992 1992.31,92.6992 1992.31,196.379 
  "/>
<polyline clip-path="url(#clip070)" style="stroke:#009af9; stroke-linecap:butt; stroke-linejoin:round; stroke-width:4; stroke-opacity:1; fill:none" stroke-dasharray="16, 10" points="
  2016.01,144.539 2158.17,144.539 
  "/>
<path clip-path="url(#clip070)" d="M2195.7 164.227 Q2193.9 168.856 2192.18 170.268 Q2190.47 171.68 2187.6 171.68 L2184.2 171.68 L2184.2 168.115 L2186.7 168.115 Q2188.46 168.115 2189.43 167.282 Q2190.4 166.449 2191.58 163.347 L2192.34 161.403 L2181.86 135.893 L2186.37 135.893 L2194.47 156.171 L2202.58 135.893 L2207.09 135.893 L2195.7 164.227 Z" fill="#000000" fill-rule="evenodd" fill-opacity="1" /><path clip-path="url(#clip070)" d="M2214.38 157.884 L2222.02 157.884 L2222.02 131.518 L2213.71 133.185 L2213.71 128.926 L2221.97 127.259 L2226.65 127.259 L2226.65 157.884 L2234.29 157.884 L2234.29 161.819 L2214.38 161.819 L2214.38 157.884 Z" fill="#000000" fill-rule="evenodd" fill-opacity="1" /></svg>
