<?xml version="1.0" encoding="utf-8"?>
<svg xmlns="http://www.w3.org/2000/svg" xmlns:xlink="http://www.w3.org/1999/xlink" width="600" height="400" viewBox="0 0 2400 1600">
<defs>
  <clipPath id="clip670">
    <rect x="0" y="0" width="2400" height="1600"/>
  </clipPath>
</defs>
<path clip-path="url(#clip670)" d="
M0 1600 L2400 1600 L2400 0 L0 0  Z
  " fill="#ffffff" fill-rule="evenodd" fill-opacity="1"/>
<defs>
  <clipPath id="clip671">
    <rect x="480" y="0" width="1681" height="1600"/>
  </clipPath>
</defs>
<path clip-path="url(#clip670)" d="
M262.551 1410.9 L2352.76 1410.9 L2352.76 47.2441 L262.551 47.2441  Z
  " fill="#ffffff" fill-rule="evenodd" fill-opacity="1"/>
<defs>
  <clipPath id="clip672">
    <rect x="262" y="47" width="2091" height="1365"/>
  </clipPath>
</defs>
<polyline clip-path="url(#clip672)" style="stroke:#000000; stroke-linecap:butt; stroke-linejoin:round; stroke-width:2; stroke-opacity:0.1; fill:none" points="
  495.559,1410.9 495.559,47.2441 
  "/>
<polyline clip-path="url(#clip672)" style="stroke:#000000; stroke-linecap:butt; stroke-linejoin:round; stroke-width:2; stroke-opacity:0.1; fill:none" points="
  1617.89,1410.9 1617.89,47.2441 
  "/>
<polyline clip-path="url(#clip670)" style="stroke:#000000; stroke-linecap:butt; stroke-linejoin:round; stroke-width:4; stroke-opacity:1; fill:none" points="
  262.551,1410.9 2352.76,1410.9 
  "/>
<polyline clip-path="url(#clip670)" style="stroke:#000000; stroke-linecap:butt; stroke-linejoin:round; stroke-width:4; stroke-opacity:1; fill:none" points="
  495.559,1410.9 495.559,1392 
  "/>
<polyline clip-path="url(#clip670)" style="stroke:#000000; stroke-linecap:butt; stroke-linejoin:round; stroke-width:4; stroke-opacity:1; fill:none" points="
  1617.89,1410.9 1617.89,1392 
  "/>
<path clip-path="url(#clip670)" d="M460.542 1485.02 L468.181 1485.02 L468.181 1458.66 L459.871 1460.32 L459.871 1456.06 L468.134 1454.4 L472.81 1454.4 L472.81 1485.02 L480.449 1485.02 L480.449 1488.96 L460.542 1488.96 L460.542 1485.02 Z" fill="#000000" fill-rule="evenodd" fill-opacity="1" /><path clip-path="url(#clip670)" d="M499.894 1457.48 Q496.282 1457.48 494.454 1461.04 Q492.648 1464.58 492.648 1471.71 Q492.648 1478.82 494.454 1482.38 Q496.282 1485.92 499.894 1485.92 Q503.528 1485.92 505.333 1482.38 Q507.162 1478.82 507.162 1471.71 Q507.162 1464.58 505.333 1461.04 Q503.528 1457.48 499.894 1457.48 M499.894 1453.77 Q505.704 1453.77 508.759 1458.38 Q511.838 1462.96 511.838 1471.71 Q511.838 1480.44 508.759 1485.04 Q505.704 1489.63 499.894 1489.63 Q494.083 1489.63 491.005 1485.04 Q487.949 1480.44 487.949 1471.71 Q487.949 1462.96 491.005 1458.38 Q494.083 1453.77 499.894 1453.77 Z" fill="#000000" fill-rule="evenodd" fill-opacity="1" /><path clip-path="url(#clip670)" d="M521.543 1435.97 Q518.609 1435.97 517.123 1438.86 Q515.656 1441.74 515.656 1447.53 Q515.656 1453.31 517.123 1456.2 Q518.609 1459.08 521.543 1459.08 Q524.496 1459.08 525.963 1456.2 Q527.448 1453.31 527.448 1447.53 Q527.448 1441.74 525.963 1438.86 Q524.496 1435.97 521.543 1435.97 M521.543 1432.96 Q526.263 1432.96 528.746 1436.7 Q531.248 1440.43 531.248 1447.53 Q531.248 1454.62 528.746 1458.37 Q526.263 1462.09 521.543 1462.09 Q516.822 1462.09 514.321 1458.37 Q511.838 1454.62 511.838 1447.53 Q511.838 1440.43 514.321 1436.7 Q516.822 1432.96 521.543 1432.96 Z" fill="#000000" fill-rule="evenodd" fill-opacity="1" /><path clip-path="url(#clip670)" d="M1584.22 1485.02 L1591.86 1485.02 L1591.86 1458.66 L1583.55 1460.32 L1583.55 1456.06 L1591.81 1454.4 L1596.49 1454.4 L1596.49 1485.02 L1604.12 1485.02 L1604.12 1488.96 L1584.22 1488.96 L1584.22 1485.02 Z" fill="#000000" fill-rule="evenodd" fill-opacity="1" /><path clip-path="url(#clip670)" d="M1623.57 1457.48 Q1619.96 1457.48 1618.13 1461.04 Q1616.32 1464.58 1616.32 1471.71 Q1616.32 1478.82 1618.13 1482.38 Q1619.96 1485.92 1623.57 1485.92 Q1627.2 1485.92 1629.01 1482.38 Q1630.84 1478.82 1630.84 1471.71 Q1630.84 1464.58 1629.01 1461.04 Q1627.2 1457.48 1623.57 1457.48 M1623.57 1453.77 Q1629.38 1453.77 1632.43 1458.38 Q1635.51 1462.96 1635.51 1471.71 Q1635.51 1480.44 1632.43 1485.04 Q1629.38 1489.63 1623.57 1489.63 Q1617.76 1489.63 1614.68 1485.04 Q1611.62 1480.44 1611.62 1471.71 Q1611.62 1462.96 1614.68 1458.38 Q1617.76 1453.77 1623.57 1453.77 Z" fill="#000000" fill-rule="evenodd" fill-opacity="1" /><path clip-path="url(#clip670)" d="M1636.06 1458.35 L1642.26 1458.35 L1642.26 1436.93 L1635.51 1438.28 L1635.51 1434.82 L1642.23 1433.47 L1646.03 1433.47 L1646.03 1458.35 L1652.23 1458.35 L1652.23 1461.55 L1636.06 1461.55 L1636.06 1458.35 Z" fill="#000000" fill-rule="evenodd" fill-opacity="1" /><path clip-path="url(#clip670)" d="M1298.14 1571.99 L1298.14 1587.74 L1292.25 1587.74 L1292.25 1538.76 Q1292.25 1524.25 1305.81 1524.25 Q1319.62 1524.25 1319.62 1536.5 Q1319.62 1545.22 1314.15 1548.4 Q1323.06 1551.27 1323.06 1559.77 Q1323.06 1574.85 1307.72 1574.85 Q1300.97 1574.85 1298.14 1571.99 M1298.14 1564.35 Q1301.67 1569.86 1307.94 1569.86 Q1317.11 1569.86 1317.11 1559.86 Q1317.11 1550.89 1302.34 1551.59 L1302.34 1546.18 Q1313.89 1546.18 1313.89 1535.99 Q1313.89 1529.02 1306.44 1529.02 Q1298.14 1529.02 1298.14 1538.95 L1298.14 1564.35 Z" fill="#000000" fill-rule="evenodd" fill-opacity="1" /><polyline clip-path="url(#clip672)" style="stroke:#000000; stroke-linecap:butt; stroke-linejoin:round; stroke-width:2; stroke-opacity:0.1; fill:none" points="
  262.551,1374.9 2352.76,1374.9 
  "/>
<polyline clip-path="url(#clip672)" style="stroke:#000000; stroke-linecap:butt; stroke-linejoin:round; stroke-width:2; stroke-opacity:0.1; fill:none" points="
  262.551,1022.65 2352.76,1022.65 
  "/>
<polyline clip-path="url(#clip672)" style="stroke:#000000; stroke-linecap:butt; stroke-linejoin:round; stroke-width:2; stroke-opacity:0.1; fill:none" points="
  262.551,670.403 2352.76,670.403 
  "/>
<polyline clip-path="url(#clip672)" style="stroke:#000000; stroke-linecap:butt; stroke-linejoin:round; stroke-width:2; stroke-opacity:0.1; fill:none" points="
  262.551,318.154 2352.76,318.154 
  "/>
<polyline clip-path="url(#clip670)" style="stroke:#000000; stroke-linecap:butt; stroke-linejoin:round; stroke-width:4; stroke-opacity:1; fill:none" points="
  262.551,1410.9 262.551,47.2441 
  "/>
<polyline clip-path="url(#clip670)" style="stroke:#000000; stroke-linecap:butt; stroke-linejoin:round; stroke-width:4; stroke-opacity:1; fill:none" points="
  262.551,1374.9 281.449,1374.9 
  "/>
<polyline clip-path="url(#clip670)" style="stroke:#000000; stroke-linecap:butt; stroke-linejoin:round; stroke-width:4; stroke-opacity:1; fill:none" points="
  262.551,1022.65 281.449,1022.65 
  "/>
<polyline clip-path="url(#clip670)" style="stroke:#000000; stroke-linecap:butt; stroke-linejoin:round; stroke-width:4; stroke-opacity:1; fill:none" points="
  262.551,670.403 281.449,670.403 
  "/>
<polyline clip-path="url(#clip670)" style="stroke:#000000; stroke-linecap:butt; stroke-linejoin:round; stroke-width:4; stroke-opacity:1; fill:none" points="
  262.551,318.154 281.449,318.154 
  "/>
<path clip-path="url(#clip670)" d="M214.607 1360.7 Q210.996 1360.7 209.167 1364.27 Q207.362 1367.81 207.362 1374.94 Q207.362 1382.04 209.167 1385.61 Q210.996 1389.15 214.607 1389.15 Q218.241 1389.15 220.047 1385.61 Q221.875 1382.04 221.875 1374.94 Q221.875 1367.81 220.047 1364.27 Q218.241 1360.7 214.607 1360.7 M214.607 1357 Q220.417 1357 223.473 1361.6 Q226.551 1366.19 226.551 1374.94 Q226.551 1383.66 223.473 1388.27 Q220.417 1392.85 214.607 1392.85 Q208.797 1392.85 205.718 1388.27 Q202.662 1383.66 202.662 1374.94 Q202.662 1366.19 205.718 1361.6 Q208.797 1357 214.607 1357 Z" fill="#000000" fill-rule="evenodd" fill-opacity="1" /><path clip-path="url(#clip670)" d="M144.329 1005.37 L162.686 1005.37 L162.686 1009.31 L148.612 1009.31 L148.612 1017.78 Q149.63 1017.43 150.649 1017.27 Q151.667 1017.09 152.686 1017.09 Q158.473 1017.09 161.852 1020.26 Q165.232 1023.43 165.232 1028.84 Q165.232 1034.42 161.76 1037.53 Q158.288 1040.6 151.968 1040.6 Q149.792 1040.6 147.524 1040.23 Q145.279 1039.86 142.871 1039.12 L142.871 1034.42 Q144.954 1035.56 147.177 1036.11 Q149.399 1036.67 151.876 1036.67 Q155.88 1036.67 158.218 1034.56 Q160.556 1032.46 160.556 1028.84 Q160.556 1025.23 158.218 1023.13 Q155.88 1021.02 151.876 1021.02 Q150.001 1021.02 148.126 1021.44 Q146.274 1021.85 144.329 1022.73 L144.329 1005.37 Z" fill="#000000" fill-rule="evenodd" fill-opacity="1" /><path clip-path="url(#clip670)" d="M184.445 1008.45 Q180.834 1008.45 179.005 1012.02 Q177.2 1015.56 177.2 1022.69 Q177.2 1029.79 179.005 1033.36 Q180.834 1036.9 184.445 1036.9 Q188.079 1036.9 189.885 1033.36 Q191.713 1029.79 191.713 1022.69 Q191.713 1015.56 189.885 1012.02 Q188.079 1008.45 184.445 1008.45 M184.445 1004.75 Q190.255 1004.75 193.311 1009.35 Q196.389 1013.94 196.389 1022.69 Q196.389 1031.41 193.311 1036.02 Q190.255 1040.6 184.445 1040.6 Q178.635 1040.6 175.556 1036.02 Q172.501 1031.41 172.501 1022.69 Q172.501 1013.94 175.556 1009.35 Q178.635 1004.75 184.445 1004.75 Z" fill="#000000" fill-rule="evenodd" fill-opacity="1" /><path clip-path="url(#clip670)" d="M214.607 1008.45 Q210.996 1008.45 209.167 1012.02 Q207.362 1015.56 207.362 1022.69 Q207.362 1029.79 209.167 1033.36 Q210.996 1036.9 214.607 1036.9 Q218.241 1036.9 220.047 1033.36 Q221.875 1029.79 221.875 1022.69 Q221.875 1015.56 220.047 1012.02 Q218.241 1008.45 214.607 1008.45 M214.607 1004.75 Q220.417 1004.75 223.473 1009.35 Q226.551 1013.94 226.551 1022.69 Q226.551 1031.41 223.473 1036.02 Q220.417 1040.6 214.607 1040.6 Q208.797 1040.6 205.718 1036.02 Q202.662 1031.41 202.662 1022.69 Q202.662 1013.94 205.718 1009.35 Q208.797 1004.75 214.607 1004.75 Z" fill="#000000" fill-rule="evenodd" fill-opacity="1" /><path clip-path="url(#clip670)" d="M114.931 683.748 L122.57 683.748 L122.57 657.382 L114.26 659.049 L114.26 654.79 L122.524 653.123 L127.2 653.123 L127.2 683.748 L134.839 683.748 L134.839 687.683 L114.931 687.683 L114.931 683.748 Z" fill="#000000" fill-rule="evenodd" fill-opacity="1" /><path clip-path="url(#clip670)" d="M154.283 656.202 Q150.672 656.202 148.843 659.767 Q147.038 663.308 147.038 670.438 Q147.038 677.544 148.843 681.109 Q150.672 684.651 154.283 684.651 Q157.917 684.651 159.723 681.109 Q161.552 677.544 161.552 670.438 Q161.552 663.308 159.723 659.767 Q157.917 656.202 154.283 656.202 M154.283 652.498 Q160.093 652.498 163.149 657.105 Q166.227 661.688 166.227 670.438 Q166.227 679.165 163.149 683.771 Q160.093 688.355 154.283 688.355 Q148.473 688.355 145.394 683.771 Q142.339 679.165 142.339 670.438 Q142.339 661.688 145.394 657.105 Q148.473 652.498 154.283 652.498 Z" fill="#000000" fill-rule="evenodd" fill-opacity="1" /><path clip-path="url(#clip670)" d="M184.445 656.202 Q180.834 656.202 179.005 659.767 Q177.2 663.308 177.2 670.438 Q177.2 677.544 179.005 681.109 Q180.834 684.651 184.445 684.651 Q188.079 684.651 189.885 681.109 Q191.713 677.544 191.713 670.438 Q191.713 663.308 189.885 659.767 Q188.079 656.202 184.445 656.202 M184.445 652.498 Q190.255 652.498 193.311 657.105 Q196.389 661.688 196.389 670.438 Q196.389 679.165 193.311 683.771 Q190.255 688.355 184.445 688.355 Q178.635 688.355 175.556 683.771 Q172.501 679.165 172.501 670.438 Q172.501 661.688 175.556 657.105 Q178.635 652.498 184.445 652.498 Z" fill="#000000" fill-rule="evenodd" fill-opacity="1" /><path clip-path="url(#clip670)" d="M214.607 656.202 Q210.996 656.202 209.167 659.767 Q207.362 663.308 207.362 670.438 Q207.362 677.544 209.167 681.109 Q210.996 684.651 214.607 684.651 Q218.241 684.651 220.047 681.109 Q221.875 677.544 221.875 670.438 Q221.875 663.308 220.047 659.767 Q218.241 656.202 214.607 656.202 M214.607 652.498 Q220.417 652.498 223.473 657.105 Q226.551 661.688 226.551 670.438 Q226.551 679.165 223.473 683.771 Q220.417 688.355 214.607 688.355 Q208.797 688.355 205.718 683.771 Q202.662 679.165 202.662 670.438 Q202.662 661.688 205.718 657.105 Q208.797 652.498 214.607 652.498 Z" fill="#000000" fill-rule="evenodd" fill-opacity="1" /><path clip-path="url(#clip670)" d="M114.931 331.499 L122.57 331.499 L122.57 305.133 L114.26 306.8 L114.26 302.54 L122.524 300.874 L127.2 300.874 L127.2 331.499 L134.839 331.499 L134.839 335.434 L114.931 335.434 L114.931 331.499 Z" fill="#000000" fill-rule="evenodd" fill-opacity="1" /><path clip-path="url(#clip670)" d="M144.329 300.874 L162.686 300.874 L162.686 304.809 L148.612 304.809 L148.612 313.281 Q149.63 312.934 150.649 312.772 Q151.667 312.587 152.686 312.587 Q158.473 312.587 161.852 315.758 Q165.232 318.929 165.232 324.346 Q165.232 329.924 161.76 333.026 Q158.288 336.105 151.968 336.105 Q149.792 336.105 147.524 335.735 Q145.279 335.364 142.871 334.624 L142.871 329.924 Q144.954 331.059 147.177 331.614 Q149.399 332.17 151.876 332.17 Q155.88 332.17 158.218 330.063 Q160.556 327.957 160.556 324.346 Q160.556 320.735 158.218 318.628 Q155.88 316.522 151.876 316.522 Q150.001 316.522 148.126 316.938 Q146.274 317.355 144.329 318.235 L144.329 300.874 Z" fill="#000000" fill-rule="evenodd" fill-opacity="1" /><path clip-path="url(#clip670)" d="M184.445 303.952 Q180.834 303.952 179.005 307.517 Q177.2 311.059 177.2 318.188 Q177.2 325.295 179.005 328.86 Q180.834 332.401 184.445 332.401 Q188.079 332.401 189.885 328.86 Q191.713 325.295 191.713 318.188 Q191.713 311.059 189.885 307.517 Q188.079 303.952 184.445 303.952 M184.445 300.249 Q190.255 300.249 193.311 304.855 Q196.389 309.438 196.389 318.188 Q196.389 326.915 193.311 331.522 Q190.255 336.105 184.445 336.105 Q178.635 336.105 175.556 331.522 Q172.501 326.915 172.501 318.188 Q172.501 309.438 175.556 304.855 Q178.635 300.249 184.445 300.249 Z" fill="#000000" fill-rule="evenodd" fill-opacity="1" /><path clip-path="url(#clip670)" d="M214.607 303.952 Q210.996 303.952 209.167 307.517 Q207.362 311.059 207.362 318.188 Q207.362 325.295 209.167 328.86 Q210.996 332.401 214.607 332.401 Q218.241 332.401 220.047 328.86 Q221.875 325.295 221.875 318.188 Q221.875 311.059 220.047 307.517 Q218.241 303.952 214.607 303.952 M214.607 300.249 Q220.417 300.249 223.473 304.855 Q226.551 309.438 226.551 318.188 Q226.551 326.915 223.473 331.522 Q220.417 336.105 214.607 336.105 Q208.797 336.105 205.718 331.522 Q202.662 326.915 202.662 318.188 Q202.662 309.438 205.718 304.855 Q208.797 300.249 214.607 300.249 Z" fill="#000000" fill-rule="evenodd" fill-opacity="1" /><path clip-path="url(#clip670)" d="M35.1993 829.203 Q31.2526 827.007 29.3747 823.951 Q27.4968 820.896 27.4968 816.758 Q27.4968 811.188 31.4117 808.164 Q35.2948 805.141 42.4881 805.141 L64.0042 805.141 L64.0042 811.029 L42.679 811.029 Q37.5546 811.029 35.072 812.843 Q32.5894 814.657 32.5894 818.381 Q32.5894 822.933 35.6131 825.574 Q38.6368 828.216 43.8567 828.216 L64.0042 828.216 L64.0042 834.105 L42.679 834.105 Q37.5228 834.105 35.072 835.919 Q32.5894 837.733 32.5894 841.521 Q32.5894 846.008 35.6449 848.65 Q38.6686 851.292 43.8567 851.292 L64.0042 851.292 L64.0042 857.18 L28.3562 857.18 L28.3562 851.292 L33.8944 851.292 Q30.616 849.287 29.0564 846.486 Q27.4968 843.685 27.4968 839.834 Q27.4968 835.951 29.4702 833.245 Q31.4436 830.508 35.1993 829.203 Z" fill="#000000" fill-rule="evenodd" fill-opacity="1" /><path clip-path="url(#clip670)" d="M28.3562 793.459 L28.3562 787.603 L64.0042 787.603 L64.0042 793.459 L28.3562 793.459 M14.479 793.459 L14.479 787.603 L21.895 787.603 L21.895 793.459 L14.479 793.459 Z" fill="#000000" fill-rule="evenodd" fill-opacity="1" /><path clip-path="url(#clip670)" d="M42.4881 745.717 L64.0042 745.717 L64.0042 751.573 L42.679 751.573 Q37.6183 751.573 35.1038 753.547 Q32.5894 755.52 32.5894 759.467 Q32.5894 764.209 35.6131 766.946 Q38.6368 769.684 43.8567 769.684 L64.0042 769.684 L64.0042 775.572 L28.3562 775.572 L28.3562 769.684 L33.8944 769.684 Q30.6797 767.583 29.0883 764.75 Q27.4968 761.886 27.4968 758.162 Q27.4968 752.019 31.3163 748.868 Q35.1038 745.717 42.4881 745.717 Z" fill="#000000" fill-rule="evenodd" fill-opacity="1" /><path clip-path="url(#clip670)" d="M74.8259 706.95 L79.3773 706.95 L79.3773 740.815 L74.8259 740.815 L74.8259 706.95 Z" fill="#000000" fill-rule="evenodd" fill-opacity="1" /><path clip-path="url(#clip670)" d="M33.7671 677.986 L14.479 677.986 L14.479 672.129 L64.0042 672.129 L64.0042 677.986 L58.657 677.986 Q61.8398 679.832 63.3994 682.664 Q64.9272 685.465 64.9272 689.412 Q64.9272 695.873 59.771 699.947 Q54.6147 703.989 46.212 703.989 Q37.8093 703.989 32.6531 699.947 Q27.4968 695.873 27.4968 689.412 Q27.4968 685.465 29.0564 682.664 Q30.5842 679.832 33.7671 677.986 M46.212 697.942 Q52.6732 697.942 56.3653 695.3 Q60.0256 692.627 60.0256 687.98 Q60.0256 683.333 56.3653 680.659 Q52.6732 677.986 46.212 677.986 Q39.7508 677.986 36.0905 680.659 Q32.3984 683.333 32.3984 687.98 Q32.3984 692.627 36.0905 695.3 Q39.7508 697.942 46.212 697.942 Z" fill="#000000" fill-rule="evenodd" fill-opacity="1" /><path clip-path="url(#clip670)" d="M28.3562 660.066 L28.3562 654.21 L64.0042 654.21 L64.0042 660.066 L28.3562 660.066 M14.479 660.066 L14.479 654.21 L21.895 654.21 L21.895 660.066 L14.479 660.066 Z" fill="#000000" fill-rule="evenodd" fill-opacity="1" /><path clip-path="url(#clip670)" d="M14.479 623.909 L19.3487 623.909 L19.3487 629.511 Q19.3487 632.662 20.6219 633.903 Q21.895 635.113 25.2052 635.113 L28.3562 635.113 L28.3562 625.468 L32.9077 625.468 L32.9077 635.113 L64.0042 635.113 L64.0042 641.001 L32.9077 641.001 L32.9077 646.603 L28.3562 646.603 L28.3562 641.001 L25.8736 641.001 Q19.9216 641.001 17.2162 638.232 Q14.479 635.463 14.479 629.447 L14.479 623.909 Z" fill="#000000" fill-rule="evenodd" fill-opacity="1" /><path clip-path="url(#clip670)" d="M14.479 600.961 L19.3487 600.961 L19.3487 606.562 Q19.3487 609.713 20.6219 610.955 Q21.895 612.164 25.2052 612.164 L28.3562 612.164 L28.3562 602.52 L32.9077 602.52 L32.9077 612.164 L64.0042 612.164 L64.0042 618.052 L32.9077 618.052 L32.9077 623.654 L28.3562 623.654 L28.3562 618.052 L25.8736 618.052 Q19.9216 618.052 17.2162 615.283 Q14.479 612.514 14.479 606.499 L14.479 600.961 Z" fill="#000000" fill-rule="evenodd" fill-opacity="1" /><polyline clip-path="url(#clip672)" style="stroke:#009af9; stroke-linecap:butt; stroke-linejoin:round; stroke-width:20; stroke-opacity:1; fill:none" stroke-dasharray="80, 50" points="
  321.708,1211.11 386.794,1226.36 444.204,1240.71 495.559,1254.19 542.015,1266.81 584.427,1278.6 623.441,1289.56 659.563,1328.74 693.192,1313.11 724.649,1344.85 
  754.199,1332.57 782.059,1356.47 808.413,1346.65 833.414,1364.05 857.195,1371.57 879.87,1369 922.282,1372.3 961.296,1370.24 979.692,1371.84 997.418,1370.7 
  1031.05,1371.61 1062.5,1369.08 1077.5,1370 1092.05,1369.47 1106.18,1351.81 1119.91,1368.88 1146.27,1367.25 1158.93,1360.54 1171.27,1364.69 1195.05,1352.72 
  1217.73,1332.07 1228.68,1342.93 1260.14,1331.21 1270.19,1298.09 1280.03,1299.27 1289.69,1317.63 1299.15,1294.13 1317.55,1302.26 1326.49,1275.38 1335.27,1270.91 
  1343.9,1285.13 1368.9,1266.31 1392.68,1241.6 1400.36,1236.21 1407.92,1219.87 1415.36,1219.96 1429.91,1191.04 1444.04,1215.23 1457.77,1203.69 1477.67,1155.68 
  1484.12,1131.72 1490.49,1190.52 1496.78,1149.39 1509.12,1173.23 1515.18,1162.04 1532.91,1167.49 1538.67,1084.52 1555.58,1144.94 1566.53,1127.53 1571.92,1146.1 
  1592.89,1007.79 1597.99,1118.76 1608.04,1126.25 1612.99,1095.7 1617.89,1078.64 1627.54,985 1637.01,1094.57 1641.67,1107.82 1655.4,1066.42 1664.35,1043.35 
  1673.13,1090.71 1681.76,894.52 1694.42,1039.49 1702.68,1074.79 1706.76,1051.55 1710.8,988.339 1730.54,1059.97 1738.21,1032.42 1745.77,981.418 1753.21,953.064 
  1756.89,1046.14 1764.17,991.851 1767.76,1014.68 1781.89,1033.23 1792.23,920.855 1795.62,998.201 1815.52,929.288 1821.98,982.86 1825.17,951.239 1828.35,891.389 
  1834.64,858.222 1846.98,968.555 1853.03,933.146 1861.98,864.369 1870.76,826.529 1873.65,793.891 1876.53,885.054 1879.39,916.336 1893.44,839.53 1904.39,900.685 
  1909.78,760.053 1922.99,816.637 1930.74,847.173 1935.85,770.918 1943.4,729.147 1945.9,692.286 1950.85,795.484 1955.74,830.225 1965.4,746.431 1974.86,700.834 
  1977.2,775.89 1979.53,659.552 1993.26,723.837 2002.2,757.696 2004.41,674.818 2010.98,629.607 2013.15,589.03 2019.61,702.933 2032.27,650.843 2040.53,602.128 
  2044.61,683.545 2058.62,628.687 2068.39,576.834 2074.16,528.648 2076.07,484.835 2083.63,608.158 2094.75,553.482 2102.02,502.095 2105.62,454.625 2119.75,531.865 
  2128.38,477.605 2133.48,426.874 2135.17,380.274 2153.38,454.953 2159.83,401.301 2163.03,351.384 2184.83,377.665 2189.38,324.782 2190.89,275.808 2214.38,300.213 
  2217.24,248.23 2242.24,222.778 2243.6,171.804 2268.6,145.515 2293.6,85.838 
  "/>
<path clip-path="url(#clip670)" d="
M1998.41 196.379 L2283.08 196.379 L2283.08 92.6992 L1998.41 92.6992  Z
  " fill="#ffffff" fill-rule="evenodd" fill-opacity="1"/>
<polyline clip-path="url(#clip670)" style="stroke:#000000; stroke-linecap:butt; stroke-linejoin:round; stroke-width:4; stroke-opacity:1; fill:none" points="
  1998.41,196.379 2283.08,196.379 2283.08,92.6992 1998.41,92.6992 1998.41,196.379 
  "/>
<polyline clip-path="url(#clip670)" style="stroke:#009af9; stroke-linecap:butt; stroke-linejoin:round; stroke-width:4; stroke-opacity:1; fill:none" stroke-dasharray="16, 10" points="
  2021.63,144.539 2160.98,144.539 
  "/>
<path clip-path="url(#clip670)" d="M2198.05 164.227 Q2196.24 168.856 2194.53 170.268 Q2192.81 171.68 2189.94 171.68 L2186.54 171.68 L2186.54 168.115 L2189.04 168.115 Q2190.8 168.115 2191.77 167.282 Q2192.74 166.449 2193.93 163.347 L2194.69 161.403 L2184.2 135.893 L2188.72 135.893 L2196.82 156.171 L2204.92 135.893 L2209.43 135.893 L2198.05 164.227 Z" fill="#000000" fill-rule="evenodd" fill-opacity="1" /><path clip-path="url(#clip670)" d="M2216.73 157.884 L2224.36 157.884 L2224.36 131.518 L2216.05 133.185 L2216.05 128.926 L2224.32 127.259 L2228.99 127.259 L2228.99 157.884 L2236.63 157.884 L2236.63 161.819 L2216.73 161.819 L2216.73 157.884 Z" fill="#000000" fill-rule="evenodd" fill-opacity="1" /></svg>
