<?xml version="1.0" encoding="utf-8"?>
<svg xmlns="http://www.w3.org/2000/svg" xmlns:xlink="http://www.w3.org/1999/xlink" width="600" height="400" viewBox="0 0 2400 1600">
<defs>
  <clipPath id="clip990">
    <rect x="0" y="0" width="2400" height="1600"/>
  </clipPath>
</defs>
<path clip-path="url(#clip990)" d="
M0 1600 L2400 1600 L2400 0 L0 0  Z
  " fill="#ffffff" fill-rule="evenodd" fill-opacity="1"/>
<defs>
  <clipPath id="clip991">
    <rect x="480" y="0" width="1681" height="1600"/>
  </clipPath>
</defs>
<path clip-path="url(#clip990)" d="
M208.292 1410.9 L2352.76 1410.9 L2352.76 47.2441 L208.292 47.2441  Z
  " fill="#ffffff" fill-rule="evenodd" fill-opacity="1"/>
<defs>
  <clipPath id="clip992">
    <rect x="208" y="47" width="2145" height="1365"/>
  </clipPath>
</defs>
<polyline clip-path="url(#clip992)" style="stroke:#000000; stroke-width:2; stroke-opacity:0.1; fill:none" points="
  471.293,1410.9 471.293,47.2441 
  "/>
<polyline clip-path="url(#clip992)" style="stroke:#000000; stroke-width:2; stroke-opacity:0.1; fill:none" points="
  875.908,1410.9 875.908,47.2441 
  "/>
<polyline clip-path="url(#clip992)" style="stroke:#000000; stroke-width:2; stroke-opacity:0.1; fill:none" points="
  1280.52,1410.9 1280.52,47.2441 
  "/>
<polyline clip-path="url(#clip992)" style="stroke:#000000; stroke-width:2; stroke-opacity:0.1; fill:none" points="
  1685.14,1410.9 1685.14,47.2441 
  "/>
<polyline clip-path="url(#clip992)" style="stroke:#000000; stroke-width:2; stroke-opacity:0.1; fill:none" points="
  2089.76,1410.9 2089.76,47.2441 
  "/>
<polyline clip-path="url(#clip990)" style="stroke:#000000; stroke-width:4; stroke-opacity:1; fill:none" points="
  208.292,1410.9 2352.76,1410.9 
  "/>
<polyline clip-path="url(#clip990)" style="stroke:#000000; stroke-width:4; stroke-opacity:1; fill:none" points="
  471.293,1410.9 471.293,1394.53 
  "/>
<polyline clip-path="url(#clip990)" style="stroke:#000000; stroke-width:4; stroke-opacity:1; fill:none" points="
  875.908,1410.9 875.908,1394.53 
  "/>
<polyline clip-path="url(#clip990)" style="stroke:#000000; stroke-width:4; stroke-opacity:1; fill:none" points="
  1280.52,1410.9 1280.52,1394.53 
  "/>
<polyline clip-path="url(#clip990)" style="stroke:#000000; stroke-width:4; stroke-opacity:1; fill:none" points="
  1685.14,1410.9 1685.14,1394.53 
  "/>
<polyline clip-path="url(#clip990)" style="stroke:#000000; stroke-width:4; stroke-opacity:1; fill:none" points="
  2089.76,1410.9 2089.76,1394.53 
  "/>
<path clip-path="url(#clip990)" d="M 0 0 M410.571 1489.17 L418.21 1489.17 L418.21 1462.8 L409.9 1464.47 L409.9 1460.21 L418.163 1458.54 L422.839 1458.54 L422.839 1489.17 L430.478 1489.17 L430.478 1493.1 L410.571 1493.1 L410.571 1489.17 Z" fill="#000000" fill-rule="evenodd" fill-opacity="1" /><path clip-path="url(#clip990)" d="M 0 0 M445.548 1461.62 Q441.936 1461.62 440.108 1465.19 Q438.302 1468.73 438.302 1475.86 Q438.302 1482.97 440.108 1486.53 Q441.936 1490.07 445.548 1490.07 Q449.182 1490.07 450.987 1486.53 Q452.816 1482.97 452.816 1475.86 Q452.816 1468.73 450.987 1465.19 Q449.182 1461.62 445.548 1461.62 M445.548 1457.92 Q451.358 1457.92 454.413 1462.53 Q457.492 1467.11 457.492 1475.86 Q457.492 1484.59 454.413 1489.19 Q451.358 1493.78 445.548 1493.78 Q439.737 1493.78 436.659 1489.19 Q433.603 1484.59 433.603 1475.86 Q433.603 1467.11 436.659 1462.53 Q439.737 1457.92 445.548 1457.92 Z" fill="#000000" fill-rule="evenodd" fill-opacity="1" /><path clip-path="url(#clip990)" d="M 0 0 M457.492 1452.02 L481.604 1452.02 L481.604 1455.22 L457.492 1455.22 L457.492 1452.02 Z" fill="#000000" fill-rule="evenodd" fill-opacity="1" /><path clip-path="url(#clip990)" d="M 0 0 M488.995 1462.5 L502.254 1462.5 L502.254 1465.69 L484.425 1465.69 L484.425 1462.5 Q486.588 1460.26 490.312 1456.5 Q494.054 1452.72 495.013 1451.63 Q496.838 1449.58 497.552 1448.16 Q498.286 1446.74 498.286 1445.36 Q498.286 1443.12 496.706 1441.71 Q495.145 1440.3 492.625 1440.3 Q490.838 1440.3 488.845 1440.92 Q486.87 1441.54 484.613 1442.8 L484.613 1438.97 Q486.907 1438.05 488.901 1437.58 Q490.895 1437.11 492.55 1437.11 Q496.913 1437.11 499.509 1439.29 Q502.104 1441.47 502.104 1445.12 Q502.104 1446.85 501.446 1448.41 Q500.806 1449.95 499.095 1452.06 Q498.625 1452.6 496.104 1455.22 Q493.584 1457.81 488.995 1462.5 Z" fill="#000000" fill-rule="evenodd" fill-opacity="1" /><path clip-path="url(#clip990)" d="M 0 0 M506.373 1460.92 L510.342 1460.92 L510.342 1465.69 L506.373 1465.69 L506.373 1460.92 Z" fill="#000000" fill-rule="evenodd" fill-opacity="1" /><path clip-path="url(#clip990)" d="M 0 0 M524.899 1440.92 L515.307 1455.91 L524.899 1455.91 L524.899 1440.92 M523.902 1437.61 L528.679 1437.61 L528.679 1455.91 L532.685 1455.91 L532.685 1459.07 L528.679 1459.07 L528.679 1465.69 L524.899 1465.69 L524.899 1459.07 L512.223 1459.07 L512.223 1455.41 L523.902 1437.61 Z" fill="#000000" fill-rule="evenodd" fill-opacity="1" /><path clip-path="url(#clip990)" d="M 0 0 M816.033 1489.17 L823.672 1489.17 L823.672 1462.8 L815.362 1464.47 L815.362 1460.21 L823.626 1458.54 L828.301 1458.54 L828.301 1489.17 L835.94 1489.17 L835.94 1493.1 L816.033 1493.1 L816.033 1489.17 Z" fill="#000000" fill-rule="evenodd" fill-opacity="1" /><path clip-path="url(#clip990)" d="M 0 0 M851.01 1461.62 Q847.399 1461.62 845.57 1465.19 Q843.764 1468.73 843.764 1475.86 Q843.764 1482.97 845.57 1486.53 Q847.399 1490.07 851.01 1490.07 Q854.644 1490.07 856.449 1486.53 Q858.278 1482.97 858.278 1475.86 Q858.278 1468.73 856.449 1465.19 Q854.644 1461.62 851.01 1461.62 M851.01 1457.92 Q856.82 1457.92 859.875 1462.53 Q862.954 1467.11 862.954 1475.86 Q862.954 1484.59 859.875 1489.19 Q856.82 1493.78 851.01 1493.78 Q845.2 1493.78 842.121 1489.19 Q839.065 1484.59 839.065 1475.86 Q839.065 1467.11 842.121 1462.53 Q845.2 1457.92 851.01 1457.92 Z" fill="#000000" fill-rule="evenodd" fill-opacity="1" /><path clip-path="url(#clip990)" d="M 0 0 M862.954 1452.02 L887.066 1452.02 L887.066 1455.22 L862.954 1455.22 L862.954 1452.02 Z" fill="#000000" fill-rule="evenodd" fill-opacity="1" /><path clip-path="url(#clip990)" d="M 0 0 M894.457 1462.5 L907.717 1462.5 L907.717 1465.69 L889.887 1465.69 L889.887 1462.5 Q892.05 1460.26 895.774 1456.5 Q899.516 1452.72 900.476 1451.63 Q902.3 1449.58 903.015 1448.16 Q903.748 1446.74 903.748 1445.36 Q903.748 1443.12 902.168 1441.71 Q900.607 1440.3 898.087 1440.3 Q896.3 1440.3 894.307 1440.92 Q892.332 1441.54 890.075 1442.8 L890.075 1438.97 Q892.369 1438.05 894.363 1437.58 Q896.357 1437.11 898.012 1437.11 Q902.375 1437.11 904.971 1439.29 Q907.566 1441.47 907.566 1445.12 Q907.566 1446.85 906.908 1448.41 Q906.268 1449.95 904.557 1452.06 Q904.087 1452.6 901.566 1455.22 Q899.046 1457.81 894.457 1462.5 Z" fill="#000000" fill-rule="evenodd" fill-opacity="1" /><path clip-path="url(#clip990)" d="M 0 0 M911.835 1460.92 L915.804 1460.92 L915.804 1465.69 L911.835 1465.69 L911.835 1460.92 Z" fill="#000000" fill-rule="evenodd" fill-opacity="1" /><path clip-path="url(#clip990)" d="M 0 0 M923.195 1462.5 L936.455 1462.5 L936.455 1465.69 L918.625 1465.69 L918.625 1462.5 Q920.788 1460.26 924.512 1456.5 Q928.255 1452.72 929.214 1451.63 Q931.038 1449.58 931.753 1448.16 Q932.486 1446.74 932.486 1445.36 Q932.486 1443.12 930.907 1441.71 Q929.346 1440.3 926.825 1440.3 Q925.039 1440.3 923.045 1440.92 Q921.07 1441.54 918.813 1442.8 L918.813 1438.97 Q921.108 1438.05 923.101 1437.58 Q925.095 1437.11 926.75 1437.11 Q931.113 1437.11 933.709 1439.29 Q936.304 1441.47 936.304 1445.12 Q936.304 1446.85 935.646 1448.41 Q935.007 1449.95 933.295 1452.06 Q932.825 1452.6 930.305 1455.22 Q927.784 1457.81 923.195 1462.5 Z" fill="#000000" fill-rule="evenodd" fill-opacity="1" /><path clip-path="url(#clip990)" d="M 0 0 M1220 1489.17 L1227.64 1489.17 L1227.64 1462.8 L1219.33 1464.47 L1219.33 1460.21 L1227.59 1458.54 L1232.27 1458.54 L1232.27 1489.17 L1239.91 1489.17 L1239.91 1493.1 L1220 1493.1 L1220 1489.17 Z" fill="#000000" fill-rule="evenodd" fill-opacity="1" /><path clip-path="url(#clip990)" d="M 0 0 M1254.98 1461.62 Q1251.37 1461.62 1249.54 1465.19 Q1247.73 1468.73 1247.73 1475.86 Q1247.73 1482.97 1249.54 1486.53 Q1251.37 1490.07 1254.98 1490.07 Q1258.61 1490.07 1260.42 1486.53 Q1262.25 1482.97 1262.25 1475.86 Q1262.25 1468.73 1260.42 1465.19 Q1258.61 1461.62 1254.98 1461.62 M1254.98 1457.92 Q1260.79 1457.92 1263.84 1462.53 Q1266.92 1467.11 1266.92 1475.86 Q1266.92 1484.59 1263.84 1489.19 Q1260.79 1493.78 1254.98 1493.78 Q1249.17 1493.78 1246.09 1489.19 Q1243.03 1484.59 1243.03 1475.86 Q1243.03 1467.11 1246.09 1462.53 Q1249.17 1457.92 1254.98 1457.92 Z" fill="#000000" fill-rule="evenodd" fill-opacity="1" /><path clip-path="url(#clip990)" d="M 0 0 M1266.92 1452.02 L1291.03 1452.02 L1291.03 1455.22 L1266.92 1455.22 L1266.92 1452.02 Z" fill="#000000" fill-rule="evenodd" fill-opacity="1" /><path clip-path="url(#clip990)" d="M 0 0 M1298.42 1462.5 L1311.68 1462.5 L1311.68 1465.69 L1293.85 1465.69 L1293.85 1462.5 Q1296.02 1460.26 1299.74 1456.5 Q1303.48 1452.72 1304.44 1451.63 Q1306.27 1449.58 1306.98 1448.16 Q1307.72 1446.74 1307.72 1445.36 Q1307.72 1443.12 1306.14 1441.71 Q1304.57 1440.3 1302.05 1440.3 Q1300.27 1440.3 1298.27 1440.92 Q1296.3 1441.54 1294.04 1442.8 L1294.04 1438.97 Q1296.34 1438.05 1298.33 1437.58 Q1300.32 1437.11 1301.98 1437.11 Q1306.34 1437.11 1308.94 1439.29 Q1311.53 1441.47 1311.53 1445.12 Q1311.53 1446.85 1310.87 1448.41 Q1310.24 1449.95 1308.52 1452.06 Q1308.05 1452.6 1305.53 1455.22 Q1303.01 1457.81 1298.42 1462.5 Z" fill="#000000" fill-rule="evenodd" fill-opacity="1" /><path clip-path="url(#clip990)" d="M 0 0 M1315.8 1460.92 L1319.77 1460.92 L1319.77 1465.69 L1315.8 1465.69 L1315.8 1460.92 Z" fill="#000000" fill-rule="evenodd" fill-opacity="1" /><path clip-path="url(#clip990)" d="M 0 0 M1332.01 1440.11 Q1329.08 1440.11 1327.59 1443.01 Q1326.13 1445.89 1326.13 1451.68 Q1326.13 1457.46 1327.59 1460.35 Q1329.08 1463.23 1332.01 1463.23 Q1334.97 1463.23 1336.43 1460.35 Q1337.92 1457.46 1337.92 1451.68 Q1337.92 1445.89 1336.43 1443.01 Q1334.97 1440.11 1332.01 1440.11 M1332.01 1437.11 Q1336.74 1437.11 1339.22 1440.85 Q1341.72 1444.57 1341.72 1451.68 Q1341.72 1458.77 1339.22 1462.51 Q1336.74 1466.24 1332.01 1466.24 Q1327.29 1466.24 1324.79 1462.51 Q1322.31 1458.77 1322.31 1451.68 Q1322.31 1444.57 1324.79 1440.85 Q1327.29 1437.11 1332.01 1437.11 Z" fill="#000000" fill-rule="evenodd" fill-opacity="1" /><path clip-path="url(#clip990)" d="M 0 0 M1624.5 1489.17 L1632.14 1489.17 L1632.14 1462.8 L1623.83 1464.47 L1623.83 1460.21 L1632.1 1458.54 L1636.77 1458.54 L1636.77 1489.17 L1644.41 1489.17 L1644.41 1493.1 L1624.5 1493.1 L1624.5 1489.17 Z" fill="#000000" fill-rule="evenodd" fill-opacity="1" /><path clip-path="url(#clip990)" d="M 0 0 M1659.48 1461.62 Q1655.87 1461.62 1654.04 1465.19 Q1652.23 1468.73 1652.23 1475.86 Q1652.23 1482.97 1654.04 1486.53 Q1655.87 1490.07 1659.48 1490.07 Q1663.11 1490.07 1664.92 1486.53 Q1666.75 1482.97 1666.75 1475.86 Q1666.75 1468.73 1664.92 1465.19 Q1663.11 1461.62 1659.48 1461.62 M1659.48 1457.92 Q1665.29 1457.92 1668.35 1462.53 Q1671.42 1467.11 1671.42 1475.86 Q1671.42 1484.59 1668.35 1489.19 Q1665.29 1493.78 1659.48 1493.78 Q1653.67 1493.78 1650.59 1489.19 Q1647.54 1484.59 1647.54 1475.86 Q1647.54 1467.11 1650.59 1462.53 Q1653.67 1457.92 1659.48 1457.92 Z" fill="#000000" fill-rule="evenodd" fill-opacity="1" /><path clip-path="url(#clip990)" d="M 0 0 M1671.42 1452.02 L1695.54 1452.02 L1695.54 1455.22 L1671.42 1455.22 L1671.42 1452.02 Z" fill="#000000" fill-rule="evenodd" fill-opacity="1" /><path clip-path="url(#clip990)" d="M 0 0 M1700.31 1462.5 L1706.52 1462.5 L1706.52 1441.07 L1699.77 1442.43 L1699.77 1438.97 L1706.48 1437.61 L1710.28 1437.61 L1710.28 1462.5 L1716.49 1462.5 L1716.49 1465.69 L1700.31 1465.69 L1700.31 1462.5 Z" fill="#000000" fill-rule="evenodd" fill-opacity="1" /><path clip-path="url(#clip990)" d="M 0 0 M1720.61 1460.92 L1724.57 1460.92 L1724.57 1465.69 L1720.61 1465.69 L1720.61 1460.92 Z" fill="#000000" fill-rule="evenodd" fill-opacity="1" /><path clip-path="url(#clip990)" d="M 0 0 M1736.82 1452.36 Q1734.11 1452.36 1732.55 1453.81 Q1731.01 1455.26 1731.01 1457.79 Q1731.01 1460.33 1732.55 1461.78 Q1734.11 1463.23 1736.82 1463.23 Q1739.53 1463.23 1741.09 1461.78 Q1742.65 1460.31 1742.65 1457.79 Q1742.65 1455.26 1741.09 1453.81 Q1739.55 1452.36 1736.82 1452.36 M1733.02 1450.74 Q1730.57 1450.14 1729.2 1448.47 Q1727.85 1446.79 1727.85 1444.38 Q1727.85 1441.02 1730.24 1439.06 Q1732.64 1437.11 1736.82 1437.11 Q1741.01 1437.11 1743.4 1439.06 Q1745.79 1441.02 1745.79 1444.38 Q1745.79 1446.79 1744.42 1448.47 Q1743.06 1450.14 1740.64 1450.74 Q1743.38 1451.38 1744.91 1453.24 Q1746.45 1455.1 1746.45 1457.79 Q1746.45 1461.88 1743.95 1464.06 Q1741.46 1466.24 1736.82 1466.24 Q1732.17 1466.24 1729.67 1464.06 Q1727.19 1461.88 1727.19 1457.79 Q1727.19 1455.1 1728.73 1453.24 Q1730.27 1451.38 1733.02 1450.74 M1731.63 1444.74 Q1731.63 1446.92 1732.98 1448.15 Q1734.35 1449.37 1736.82 1449.37 Q1739.26 1449.37 1740.64 1448.15 Q1742.03 1446.92 1742.03 1444.74 Q1742.03 1442.56 1740.64 1441.34 Q1739.26 1440.11 1736.82 1440.11 Q1734.35 1440.11 1732.98 1441.34 Q1731.63 1442.56 1731.63 1444.74 Z" fill="#000000" fill-rule="evenodd" fill-opacity="1" /><path clip-path="url(#clip990)" d="M 0 0 M2029.02 1489.17 L2036.65 1489.17 L2036.65 1462.8 L2028.34 1464.47 L2028.34 1460.21 L2036.61 1458.54 L2041.28 1458.54 L2041.28 1489.17 L2048.92 1489.17 L2048.92 1493.1 L2029.02 1493.1 L2029.02 1489.17 Z" fill="#000000" fill-rule="evenodd" fill-opacity="1" /><path clip-path="url(#clip990)" d="M 0 0 M2063.99 1461.62 Q2060.38 1461.62 2058.55 1465.19 Q2056.75 1468.73 2056.75 1475.86 Q2056.75 1482.97 2058.55 1486.53 Q2060.38 1490.07 2063.99 1490.07 Q2067.63 1490.07 2069.43 1486.53 Q2071.26 1482.97 2071.26 1475.86 Q2071.26 1468.73 2069.43 1465.19 Q2067.63 1461.62 2063.99 1461.62 M2063.99 1457.92 Q2069.8 1457.92 2072.86 1462.53 Q2075.94 1467.11 2075.94 1475.86 Q2075.94 1484.59 2072.86 1489.19 Q2069.8 1493.78 2063.99 1493.78 Q2058.18 1493.78 2055.1 1489.19 Q2052.05 1484.59 2052.05 1475.86 Q2052.05 1467.11 2055.1 1462.53 Q2058.18 1457.92 2063.99 1457.92 Z" fill="#000000" fill-rule="evenodd" fill-opacity="1" /><path clip-path="url(#clip990)" d="M 0 0 M2075.94 1452.02 L2100.05 1452.02 L2100.05 1455.22 L2075.94 1455.22 L2075.94 1452.02 Z" fill="#000000" fill-rule="evenodd" fill-opacity="1" /><path clip-path="url(#clip990)" d="M 0 0 M2104.83 1462.5 L2111.03 1462.5 L2111.03 1441.07 L2104.28 1442.43 L2104.28 1438.97 L2110.99 1437.61 L2114.79 1437.61 L2114.79 1462.5 L2121 1462.5 L2121 1465.69 L2104.83 1465.69 L2104.83 1462.5 Z" fill="#000000" fill-rule="evenodd" fill-opacity="1" /><path clip-path="url(#clip990)" d="M 0 0 M2125.12 1460.92 L2129.09 1460.92 L2129.09 1465.69 L2125.12 1465.69 L2125.12 1460.92 Z" fill="#000000" fill-rule="evenodd" fill-opacity="1" /><path clip-path="url(#clip990)" d="M 0 0 M2141.8 1450.14 Q2139.24 1450.14 2137.74 1451.89 Q2136.25 1453.64 2136.25 1456.68 Q2136.25 1459.71 2137.74 1461.48 Q2139.24 1463.23 2141.8 1463.23 Q2144.36 1463.23 2145.84 1461.48 Q2147.35 1459.71 2147.35 1456.68 Q2147.35 1453.64 2145.84 1451.89 Q2144.36 1450.14 2141.8 1450.14 M2149.34 1438.23 L2149.34 1441.69 Q2147.91 1441.02 2146.45 1440.66 Q2145 1440.3 2143.57 1440.3 Q2139.81 1440.3 2137.81 1442.84 Q2135.84 1445.38 2135.56 1450.52 Q2136.67 1448.88 2138.34 1448.01 Q2140.01 1447.13 2142.03 1447.13 Q2146.26 1447.13 2148.7 1449.71 Q2151.17 1452.26 2151.17 1456.68 Q2151.17 1461.01 2148.61 1463.62 Q2146.05 1466.24 2141.8 1466.24 Q2136.93 1466.24 2134.35 1462.51 Q2131.78 1458.77 2131.78 1451.68 Q2131.78 1445.02 2134.94 1441.07 Q2138.1 1437.11 2143.42 1437.11 Q2144.85 1437.11 2146.3 1437.39 Q2147.76 1437.67 2149.34 1438.23 Z" fill="#000000" fill-rule="evenodd" fill-opacity="1" /><path clip-path="url(#clip990)" d="M 0 0 M1205.74 1512.66 L1211.63 1512.66 L1211.63 1541.91 L1229.11 1526.54 L1236.58 1526.54 L1217.68 1543.22 L1237.38 1562.19 L1229.74 1562.19 L1211.63 1544.78 L1211.63 1562.19 L1205.74 1562.19 L1205.74 1512.66 Z" fill="#000000" fill-rule="evenodd" fill-opacity="1" /><path clip-path="url(#clip990)" d="M 0 0 M1270.61 1573.01 L1270.61 1577.56 L1236.74 1577.56 L1236.74 1573.01 L1270.61 1573.01 Z" fill="#000000" fill-rule="evenodd" fill-opacity="1" /><path clip-path="url(#clip990)" d="M 0 0 M1290.57 1530.64 Q1285.86 1530.64 1283.12 1534.34 Q1280.38 1538 1280.38 1544.39 Q1280.38 1550.79 1283.09 1554.48 Q1285.82 1558.14 1290.57 1558.14 Q1295.24 1558.14 1297.98 1554.45 Q1300.72 1550.76 1300.72 1544.39 Q1300.72 1538.06 1297.98 1534.37 Q1295.24 1530.64 1290.57 1530.64 M1290.57 1525.68 Q1298.2 1525.68 1302.57 1530.64 Q1306.93 1535.61 1306.93 1544.39 Q1306.93 1553.15 1302.57 1558.14 Q1298.2 1563.11 1290.57 1563.11 Q1282.9 1563.11 1278.53 1558.14 Q1274.21 1553.15 1274.21 1544.39 Q1274.21 1535.61 1278.53 1530.64 Q1282.9 1525.68 1290.57 1525.68 Z" fill="#000000" fill-rule="evenodd" fill-opacity="1" /><path clip-path="url(#clip990)" d="M 0 0 M1331.12 1512.66 L1331.12 1517.53 L1325.51 1517.53 Q1322.36 1517.53 1321.12 1518.8 Q1319.91 1520.08 1319.91 1523.39 L1319.91 1526.54 L1329.56 1526.54 L1329.56 1531.09 L1319.91 1531.09 L1319.91 1562.19 L1314.02 1562.19 L1314.02 1531.09 L1308.42 1531.09 L1308.42 1526.54 L1314.02 1526.54 L1314.02 1524.05 Q1314.02 1518.1 1316.79 1515.4 Q1319.56 1512.66 1325.58 1512.66 L1331.12 1512.66 Z" fill="#000000" fill-rule="evenodd" fill-opacity="1" /><path clip-path="url(#clip990)" d="M 0 0 M1355.31 1512.66 L1355.31 1517.53 L1349.7 1517.53 Q1346.55 1517.53 1345.31 1518.8 Q1344.1 1520.08 1344.1 1523.39 L1344.1 1526.54 L1353.75 1526.54 L1353.75 1531.09 L1344.1 1531.09 L1344.1 1562.19 L1338.21 1562.19 L1338.21 1531.09 L1332.61 1531.09 L1332.61 1526.54 L1338.21 1526.54 L1338.21 1524.05 Q1338.21 1518.1 1340.98 1515.4 Q1343.75 1512.66 1349.77 1512.66 L1355.31 1512.66 Z" fill="#000000" fill-rule="evenodd" fill-opacity="1" /><polyline clip-path="url(#clip992)" style="stroke:#000000; stroke-width:2; stroke-opacity:0.1; fill:none" points="
  208.292,1135.72 2352.76,1135.72 
  "/>
<polyline clip-path="url(#clip992)" style="stroke:#000000; stroke-width:2; stroke-opacity:0.1; fill:none" points="
  208.292,776.243 2352.76,776.243 
  "/>
<polyline clip-path="url(#clip992)" style="stroke:#000000; stroke-width:2; stroke-opacity:0.1; fill:none" points="
  208.292,416.77 2352.76,416.77 
  "/>
<polyline clip-path="url(#clip992)" style="stroke:#000000; stroke-width:2; stroke-opacity:0.1; fill:none" points="
  208.292,57.2969 2352.76,57.2969 
  "/>
<polyline clip-path="url(#clip990)" style="stroke:#000000; stroke-width:4; stroke-opacity:1; fill:none" points="
  208.292,1410.9 208.292,47.2441 
  "/>
<polyline clip-path="url(#clip990)" style="stroke:#000000; stroke-width:4; stroke-opacity:1; fill:none" points="
  208.292,1135.72 234.026,1135.72 
  "/>
<polyline clip-path="url(#clip990)" style="stroke:#000000; stroke-width:4; stroke-opacity:1; fill:none" points="
  208.292,776.243 234.026,776.243 
  "/>
<polyline clip-path="url(#clip990)" style="stroke:#000000; stroke-width:4; stroke-opacity:1; fill:none" points="
  208.292,416.77 234.026,416.77 
  "/>
<polyline clip-path="url(#clip990)" style="stroke:#000000; stroke-width:4; stroke-opacity:1; fill:none" points="
  208.292,57.2969 234.026,57.2969 
  "/>
<path clip-path="url(#clip990)" d="M 0 0 M116.644 1149.06 L124.283 1149.06 L124.283 1122.7 L115.973 1124.36 L115.973 1120.1 L124.237 1118.44 L128.913 1118.44 L128.913 1149.06 L136.552 1149.06 L136.552 1153 L116.644 1153 L116.644 1149.06 Z" fill="#000000" fill-rule="evenodd" fill-opacity="1" /><path clip-path="url(#clip990)" d="M 0 0 M141.621 1147.12 L146.505 1147.12 L146.505 1153 L141.621 1153 L141.621 1147.12 Z" fill="#000000" fill-rule="evenodd" fill-opacity="1" /><path clip-path="url(#clip990)" d="M 0 0 M152.385 1149.06 L160.024 1149.06 L160.024 1122.7 L151.714 1124.36 L151.714 1120.1 L159.978 1118.44 L164.653 1118.44 L164.653 1149.06 L172.292 1149.06 L172.292 1153 L152.385 1153 L152.385 1149.06 Z" fill="#000000" fill-rule="evenodd" fill-opacity="1" /><path clip-path="url(#clip990)" d="M 0 0 M117.015 789.588 L124.654 789.588 L124.654 763.223 L116.343 764.889 L116.343 760.63 L124.607 758.963 L129.283 758.963 L129.283 789.588 L136.922 789.588 L136.922 793.523 L117.015 793.523 L117.015 789.588 Z" fill="#000000" fill-rule="evenodd" fill-opacity="1" /><path clip-path="url(#clip990)" d="M 0 0 M141.991 787.644 L146.876 787.644 L146.876 793.523 L141.991 793.523 L141.991 787.644 Z" fill="#000000" fill-rule="evenodd" fill-opacity="1" /><path clip-path="url(#clip990)" d="M 0 0 M155.973 789.588 L172.292 789.588 L172.292 793.523 L150.348 793.523 L150.348 789.588 Q153.01 786.833 157.593 782.204 Q162.2 777.551 163.38 776.209 Q165.626 773.685 166.505 771.949 Q167.408 770.19 167.408 768.5 Q167.408 765.746 165.464 764.01 Q163.542 762.273 160.44 762.273 Q158.241 762.273 155.788 763.037 Q153.357 763.801 150.579 765.352 L150.579 760.63 Q153.403 759.496 155.857 758.917 Q158.311 758.338 160.348 758.338 Q165.718 758.338 168.913 761.023 Q172.107 763.709 172.107 768.199 Q172.107 770.329 171.297 772.25 Q170.51 774.148 168.403 776.741 Q167.825 777.412 164.723 780.63 Q161.621 783.824 155.973 789.588 Z" fill="#000000" fill-rule="evenodd" fill-opacity="1" /><path clip-path="url(#clip990)" d="M 0 0 M116.066 430.115 L123.705 430.115 L123.705 403.749 L115.394 405.416 L115.394 401.157 L123.658 399.49 L128.334 399.49 L128.334 430.115 L135.973 430.115 L135.973 434.05 L116.066 434.05 L116.066 430.115 Z" fill="#000000" fill-rule="evenodd" fill-opacity="1" /><path clip-path="url(#clip990)" d="M 0 0 M141.042 428.17 L145.927 428.17 L145.927 434.05 L141.042 434.05 L141.042 428.17 Z" fill="#000000" fill-rule="evenodd" fill-opacity="1" /><path clip-path="url(#clip990)" d="M 0 0 M165.163 415.416 Q168.519 416.133 170.394 418.402 Q172.292 420.671 172.292 424.004 Q172.292 429.12 168.774 431.92 Q165.255 434.721 158.774 434.721 Q156.598 434.721 154.283 434.282 Q151.991 433.865 149.538 433.008 L149.538 428.495 Q151.482 429.629 153.797 430.207 Q156.112 430.786 158.635 430.786 Q163.033 430.786 165.325 429.05 Q167.64 427.314 167.64 424.004 Q167.64 420.948 165.487 419.235 Q163.357 417.499 159.538 417.499 L155.51 417.499 L155.51 413.657 L159.723 413.657 Q163.172 413.657 165.001 412.291 Q166.829 410.902 166.829 408.309 Q166.829 405.647 164.931 404.235 Q163.056 402.8 159.538 402.8 Q157.616 402.8 155.417 403.217 Q153.218 403.634 150.579 404.513 L150.579 400.347 Q153.241 399.606 155.556 399.235 Q157.894 398.865 159.954 398.865 Q165.278 398.865 168.38 401.296 Q171.482 403.703 171.482 407.823 Q171.482 410.694 169.839 412.684 Q168.195 414.652 165.163 415.416 Z" fill="#000000" fill-rule="evenodd" fill-opacity="1" /><path clip-path="url(#clip990)" d="M 0 0 M114.931 70.6417 L122.57 70.6417 L122.57 44.2761 L114.26 45.9428 L114.26 41.6835 L122.524 40.0169 L127.2 40.0169 L127.2 70.6417 L134.839 70.6417 L134.839 74.5769 L114.931 74.5769 L114.931 70.6417 Z" fill="#000000" fill-rule="evenodd" fill-opacity="1" /><path clip-path="url(#clip990)" d="M 0 0 M139.908 68.6973 L144.792 68.6973 L144.792 74.5769 L139.908 74.5769 L139.908 68.6973 Z" fill="#000000" fill-rule="evenodd" fill-opacity="1" /><path clip-path="url(#clip990)" d="M 0 0 M162.709 44.0909 L150.903 62.5399 L162.709 62.5399 L162.709 44.0909 M161.482 40.0169 L167.362 40.0169 L167.362 62.5399 L172.292 62.5399 L172.292 66.4288 L167.362 66.4288 L167.362 74.5769 L162.709 74.5769 L162.709 66.4288 L147.107 66.4288 L147.107 61.9149 L161.482 40.0169 Z" fill="#000000" fill-rule="evenodd" fill-opacity="1" /><path clip-path="url(#clip990)" d="M 0 0 M59.1993 815.533 Q55.2526 813.336 53.3747 810.281 Q51.4968 807.225 51.4968 803.088 Q51.4968 797.518 55.4117 794.494 Q59.2948 791.47 66.4881 791.47 L88.0042 791.47 L88.0042 797.358 L66.679 797.358 Q61.5546 797.358 59.072 799.173 Q56.5894 800.987 56.5894 804.711 Q56.5894 809.262 59.6131 811.904 Q62.6368 814.546 67.8567 814.546 L88.0042 814.546 L88.0042 820.434 L66.679 820.434 Q61.5228 820.434 59.072 822.248 Q56.5894 824.063 56.5894 827.85 Q56.5894 832.338 59.6449 834.98 Q62.6686 837.622 67.8567 837.622 L88.0042 837.622 L88.0042 843.51 L52.3562 843.51 L52.3562 837.622 L57.8944 837.622 Q54.616 835.616 53.0564 832.815 Q51.4968 830.015 51.4968 826.163 Q51.4968 822.28 53.4702 819.575 Q55.4436 816.838 59.1993 815.533 Z" fill="#000000" fill-rule="evenodd" fill-opacity="1" /><path clip-path="url(#clip990)" d="M 0 0 M52.3562 785.327 L52.3562 779.471 L88.0042 779.471 L88.0042 785.327 L52.3562 785.327 M38.479 785.327 L38.479 779.471 L45.895 779.471 L45.895 785.327 L38.479 785.327 Z" fill="#000000" fill-rule="evenodd" fill-opacity="1" /><path clip-path="url(#clip990)" d="M 0 0 M66.4881 743.696 L88.0042 743.696 L88.0042 749.552 L66.679 749.552 Q61.6183 749.552 59.1038 751.525 Q56.5894 753.499 56.5894 757.446 Q56.5894 762.188 59.6131 764.925 Q62.6368 767.662 67.8567 767.662 L88.0042 767.662 L88.0042 773.551 L52.3562 773.551 L52.3562 767.662 L57.8944 767.662 Q54.6797 765.562 53.0883 762.729 Q51.4968 759.864 51.4968 756.141 Q51.4968 749.998 55.3163 746.847 Q59.1038 743.696 66.4881 743.696 Z" fill="#000000" fill-rule="evenodd" fill-opacity="1" /><path clip-path="url(#clip990)" d="M 0 0 M98.8259 710.467 L103.377 710.467 L103.377 744.332 L98.8259 744.332 L98.8259 710.467 Z" fill="#000000" fill-rule="evenodd" fill-opacity="1" /><path clip-path="url(#clip990)" d="M 0 0 M57.7671 680.866 L38.479 680.866 L38.479 675.01 L88.0042 675.01 L88.0042 680.866 L82.657 680.866 Q85.8398 682.712 87.3994 685.545 Q88.9272 688.346 88.9272 692.292 Q88.9272 698.754 83.771 702.828 Q78.6147 706.87 70.212 706.87 Q61.8093 706.87 56.6531 702.828 Q51.4968 698.754 51.4968 692.292 Q51.4968 688.346 53.0564 685.545 Q54.5842 682.712 57.7671 680.866 M70.212 700.823 Q76.6732 700.823 80.3653 698.181 Q84.0256 695.507 84.0256 690.86 Q84.0256 686.213 80.3653 683.54 Q76.6732 680.866 70.212 680.866 Q63.7508 680.866 60.0905 683.54 Q56.3984 686.213 56.3984 690.86 Q56.3984 695.507 60.0905 698.181 Q63.7508 700.823 70.212 700.823 Z" fill="#000000" fill-rule="evenodd" fill-opacity="1" /><path clip-path="url(#clip990)" d="M 0 0 M52.3562 668.867 L52.3562 663.01 L88.0042 663.01 L88.0042 668.867 L52.3562 668.867 M38.479 668.867 L38.479 663.01 L45.895 663.01 L45.895 668.867 L38.479 668.867 Z" fill="#000000" fill-rule="evenodd" fill-opacity="1" /><path clip-path="url(#clip990)" d="M 0 0 M38.479 638.821 L43.3487 638.821 L43.3487 644.422 Q43.3487 647.573 44.6219 648.815 Q45.895 650.024 49.2052 650.024 L52.3562 650.024 L52.3562 640.38 L56.9077 640.38 L56.9077 650.024 L88.0042 650.024 L88.0042 655.912 L56.9077 655.912 L56.9077 661.514 L52.3562 661.514 L52.3562 655.912 L49.8736 655.912 Q43.9216 655.912 41.2162 653.143 Q38.479 650.374 38.479 644.359 L38.479 638.821 Z" fill="#000000" fill-rule="evenodd" fill-opacity="1" /><path clip-path="url(#clip990)" d="M 0 0 M38.479 614.631 L43.3487 614.631 L43.3487 620.233 Q43.3487 623.384 44.6219 624.625 Q45.895 625.835 49.2052 625.835 L52.3562 625.835 L52.3562 616.19 L56.9077 616.19 L56.9077 625.835 L88.0042 625.835 L88.0042 631.723 L56.9077 631.723 L56.9077 637.325 L52.3562 637.325 L52.3562 631.723 L49.8736 631.723 Q43.9216 631.723 41.2162 628.954 Q38.479 626.185 38.479 620.169 L38.479 614.631 Z" fill="#000000" fill-rule="evenodd" fill-opacity="1" /><polyline clip-path="url(#clip992)" style="stroke:#009af9; stroke-width:20; stroke-opacity:1; fill:none" stroke-dasharray="80, 50" points="
  268.985,625.035 268.985,85.838 1280.52,932.41 1280.52,839.215 2292.06,1372.3 
  "/>
<path clip-path="url(#clip990)" d="
M1991.98 213.659 L2281.27 213.659 L2281.27 92.6992 L1991.98 92.6992  Z
  " fill="#ffffff" fill-rule="evenodd" fill-opacity="1"/>
<polyline clip-path="url(#clip990)" style="stroke:#000000; stroke-width:4; stroke-opacity:1; fill:none" points="
  1991.98,213.659 2281.27,213.659 2281.27,92.6992 1991.98,92.6992 1991.98,213.659 
  "/>
<polyline clip-path="url(#clip990)" style="stroke:#009af9; stroke-width:4; stroke-opacity:1; fill:none" stroke-dasharray="16, 10" points="
  2015.81,153.179 2158.77,153.179 
  "/>
<path clip-path="url(#clip990)" d="M 0 0 M2196.44 172.867 Q2194.64 177.496 2192.92 178.908 Q2191.21 180.32 2188.34 180.32 L2184.94 180.32 L2184.94 176.755 L2187.44 176.755 Q2189.2 176.755 2190.17 175.922 Q2191.14 175.089 2192.32 171.987 L2193.09 170.043 L2182.6 144.533 L2187.11 144.533 L2195.22 164.811 L2203.32 144.533 L2207.83 144.533 L2196.44 172.867 Z" fill="#000000" fill-rule="evenodd" fill-opacity="1" /><path clip-path="url(#clip990)" d="M 0 0 M2213.71 166.524 L2221.35 166.524 L2221.35 140.158 L2213.04 141.825 L2213.04 137.566 L2221.3 135.899 L2225.98 135.899 L2225.98 166.524 L2233.62 166.524 L2233.62 170.459 L2213.71 170.459 L2213.71 166.524 Z" fill="#000000" fill-rule="evenodd" fill-opacity="1" /></svg>
