<?xml version="1.0" encoding="utf-8"?>
<svg xmlns="http://www.w3.org/2000/svg" xmlns:xlink="http://www.w3.org/1999/xlink" width="600" height="400" viewBox="0 0 2400 1600">
<defs>
  <clipPath id="clip620">
    <rect x="0" y="0" width="2400" height="1600"/>
  </clipPath>
</defs>
<path clip-path="url(#clip620)" d="
M0 1600 L2400 1600 L2400 0 L0 0  Z
  " fill="#ffffff" fill-rule="evenodd" fill-opacity="1"/>
<defs>
  <clipPath id="clip621">
    <rect x="480" y="0" width="1681" height="1600"/>
  </clipPath>
</defs>
<path clip-path="url(#clip620)" d="
M236.996 1410.9 L2352.76 1410.9 L2352.76 47.2441 L236.996 47.2441  Z
  " fill="#ffffff" fill-rule="evenodd" fill-opacity="1"/>
<defs>
  <clipPath id="clip622">
    <rect x="236" y="47" width="2117" height="1365"/>
  </clipPath>
</defs>
<polyline clip-path="url(#clip622)" style="stroke:#000000; stroke-width:2; stroke-opacity:0.1; fill:none" points="
  496.476,1410.9 496.476,47.2441 
  "/>
<polyline clip-path="url(#clip622)" style="stroke:#000000; stroke-width:2; stroke-opacity:0.1; fill:none" points="
  895.676,1410.9 895.676,47.2441 
  "/>
<polyline clip-path="url(#clip622)" style="stroke:#000000; stroke-width:2; stroke-opacity:0.1; fill:none" points="
  1294.88,1410.9 1294.88,47.2441 
  "/>
<polyline clip-path="url(#clip622)" style="stroke:#000000; stroke-width:2; stroke-opacity:0.1; fill:none" points="
  1694.08,1410.9 1694.08,47.2441 
  "/>
<polyline clip-path="url(#clip622)" style="stroke:#000000; stroke-width:2; stroke-opacity:0.1; fill:none" points="
  2093.28,1410.9 2093.28,47.2441 
  "/>
<polyline clip-path="url(#clip620)" style="stroke:#000000; stroke-width:4; stroke-opacity:1; fill:none" points="
  236.996,1410.9 2352.76,1410.9 
  "/>
<polyline clip-path="url(#clip620)" style="stroke:#000000; stroke-width:4; stroke-opacity:1; fill:none" points="
  496.476,1410.9 496.476,1394.53 
  "/>
<polyline clip-path="url(#clip620)" style="stroke:#000000; stroke-width:4; stroke-opacity:1; fill:none" points="
  895.676,1410.9 895.676,1394.53 
  "/>
<polyline clip-path="url(#clip620)" style="stroke:#000000; stroke-width:4; stroke-opacity:1; fill:none" points="
  1294.88,1410.9 1294.88,1394.53 
  "/>
<polyline clip-path="url(#clip620)" style="stroke:#000000; stroke-width:4; stroke-opacity:1; fill:none" points="
  1694.08,1410.9 1694.08,1394.53 
  "/>
<polyline clip-path="url(#clip620)" style="stroke:#000000; stroke-width:4; stroke-opacity:1; fill:none" points="
  2093.28,1410.9 2093.28,1394.53 
  "/>
<path clip-path="url(#clip620)" d="M 0 0 M435.472 1489.17 L443.111 1489.17 L443.111 1462.8 L434.801 1464.47 L434.801 1460.21 L443.065 1458.54 L447.741 1458.54 L447.741 1489.17 L455.379 1489.17 L455.379 1493.1 L435.472 1493.1 L435.472 1489.17 Z" fill="#000000" fill-rule="evenodd" fill-opacity="1" /><path clip-path="url(#clip620)" d="M 0 0 M470.449 1461.62 Q466.838 1461.62 465.009 1465.19 Q463.203 1468.73 463.203 1475.86 Q463.203 1482.97 465.009 1486.53 Q466.838 1490.07 470.449 1490.07 Q474.083 1490.07 475.889 1486.53 Q477.717 1482.97 477.717 1475.86 Q477.717 1468.73 475.889 1465.19 Q474.083 1461.62 470.449 1461.62 M470.449 1457.92 Q476.259 1457.92 479.314 1462.53 Q482.393 1467.11 482.393 1475.86 Q482.393 1484.59 479.314 1489.19 Q476.259 1493.78 470.449 1493.78 Q464.639 1493.78 461.56 1489.19 Q458.504 1484.59 458.504 1475.86 Q458.504 1467.11 461.56 1462.53 Q464.639 1457.92 470.449 1457.92 Z" fill="#000000" fill-rule="evenodd" fill-opacity="1" /><path clip-path="url(#clip620)" d="M 0 0 M482.393 1452.02 L506.505 1452.02 L506.505 1455.22 L482.393 1455.22 L482.393 1452.02 Z" fill="#000000" fill-rule="evenodd" fill-opacity="1" /><path clip-path="url(#clip620)" d="M 0 0 M521.062 1440.92 L511.47 1455.91 L521.062 1455.91 L521.062 1440.92 M520.065 1437.61 L524.842 1437.61 L524.842 1455.91 L528.848 1455.91 L528.848 1459.07 L524.842 1459.07 L524.842 1465.69 L521.062 1465.69 L521.062 1459.07 L508.385 1459.07 L508.385 1455.41 L520.065 1437.61 Z" fill="#000000" fill-rule="evenodd" fill-opacity="1" /><path clip-path="url(#clip620)" d="M 0 0 M532.967 1460.92 L536.936 1460.92 L536.936 1465.69 L532.967 1465.69 L532.967 1460.92 Z" fill="#000000" fill-rule="evenodd" fill-opacity="1" /><path clip-path="url(#clip620)" d="M 0 0 M540.095 1437.61 L558.151 1437.61 L558.151 1439.23 L547.957 1465.69 L543.989 1465.69 L553.581 1440.81 L540.095 1440.81 L540.095 1437.61 Z" fill="#000000" fill-rule="evenodd" fill-opacity="1" /><path clip-path="url(#clip620)" d="M 0 0 M834.24 1489.17 L841.878 1489.17 L841.878 1462.8 L833.568 1464.47 L833.568 1460.21 L841.832 1458.54 L846.508 1458.54 L846.508 1489.17 L854.147 1489.17 L854.147 1493.1 L834.24 1493.1 L834.24 1489.17 Z" fill="#000000" fill-rule="evenodd" fill-opacity="1" /><path clip-path="url(#clip620)" d="M 0 0 M869.216 1461.62 Q865.605 1461.62 863.776 1465.19 Q861.971 1468.73 861.971 1475.86 Q861.971 1482.97 863.776 1486.53 Q865.605 1490.07 869.216 1490.07 Q872.85 1490.07 874.656 1486.53 Q876.485 1482.97 876.485 1475.86 Q876.485 1468.73 874.656 1465.19 Q872.85 1461.62 869.216 1461.62 M869.216 1457.92 Q875.026 1457.92 878.082 1462.53 Q881.161 1467.11 881.161 1475.86 Q881.161 1484.59 878.082 1489.19 Q875.026 1493.78 869.216 1493.78 Q863.406 1493.78 860.327 1489.19 Q857.272 1484.59 857.272 1475.86 Q857.272 1467.11 860.327 1462.53 Q863.406 1457.92 869.216 1457.92 Z" fill="#000000" fill-rule="evenodd" fill-opacity="1" /><path clip-path="url(#clip620)" d="M 0 0 M881.161 1452.02 L905.272 1452.02 L905.272 1455.22 L881.161 1455.22 L881.161 1452.02 Z" fill="#000000" fill-rule="evenodd" fill-opacity="1" /><path clip-path="url(#clip620)" d="M 0 0 M919.829 1440.92 L910.237 1455.91 L919.829 1455.91 L919.829 1440.92 M918.833 1437.61 L923.61 1437.61 L923.61 1455.91 L927.616 1455.91 L927.616 1459.07 L923.61 1459.07 L923.61 1465.69 L919.829 1465.69 L919.829 1459.07 L907.153 1459.07 L907.153 1455.41 L918.833 1437.61 Z" fill="#000000" fill-rule="evenodd" fill-opacity="1" /><path clip-path="url(#clip620)" d="M 0 0 M931.735 1460.92 L935.703 1460.92 L935.703 1465.69 L931.735 1465.69 L931.735 1460.92 Z" fill="#000000" fill-rule="evenodd" fill-opacity="1" /><path clip-path="url(#clip620)" d="M 0 0 M948.417 1450.14 Q945.859 1450.14 944.355 1451.89 Q942.869 1453.64 942.869 1456.68 Q942.869 1459.71 944.355 1461.48 Q945.859 1463.23 948.417 1463.23 Q950.975 1463.23 952.461 1461.48 Q953.965 1459.71 953.965 1456.68 Q953.965 1453.64 952.461 1451.89 Q950.975 1450.14 948.417 1450.14 M955.959 1438.23 L955.959 1441.69 Q954.53 1441.02 953.063 1440.66 Q951.614 1440.3 950.185 1440.3 Q946.424 1440.3 944.43 1442.84 Q942.455 1445.38 942.173 1450.52 Q943.283 1448.88 944.957 1448.01 Q946.63 1447.13 948.643 1447.13 Q952.875 1447.13 955.32 1449.71 Q957.783 1452.26 957.783 1456.68 Q957.783 1461.01 955.226 1463.62 Q952.668 1466.24 948.417 1466.24 Q943.546 1466.24 940.969 1462.51 Q938.393 1458.77 938.393 1451.68 Q938.393 1445.02 941.552 1441.07 Q944.712 1437.11 950.035 1437.11 Q951.464 1437.11 952.912 1437.39 Q954.379 1437.67 955.959 1438.23 Z" fill="#000000" fill-rule="evenodd" fill-opacity="1" /><path clip-path="url(#clip620)" d="M 0 0 M1233.91 1489.17 L1241.55 1489.17 L1241.55 1462.8 L1233.24 1464.47 L1233.24 1460.21 L1241.5 1458.54 L1246.18 1458.54 L1246.18 1489.17 L1253.82 1489.17 L1253.82 1493.1 L1233.91 1493.1 L1233.91 1489.17 Z" fill="#000000" fill-rule="evenodd" fill-opacity="1" /><path clip-path="url(#clip620)" d="M 0 0 M1268.89 1461.62 Q1265.28 1461.62 1263.45 1465.19 Q1261.64 1468.73 1261.64 1475.86 Q1261.64 1482.97 1263.45 1486.53 Q1265.28 1490.07 1268.89 1490.07 Q1272.52 1490.07 1274.33 1486.53 Q1276.15 1482.97 1276.15 1475.86 Q1276.15 1468.73 1274.33 1465.19 Q1272.52 1461.62 1268.89 1461.62 M1268.89 1457.92 Q1274.7 1457.92 1277.75 1462.53 Q1280.83 1467.11 1280.83 1475.86 Q1280.83 1484.59 1277.75 1489.19 Q1274.7 1493.78 1268.89 1493.78 Q1263.08 1493.78 1260 1489.19 Q1256.94 1484.59 1256.94 1475.86 Q1256.94 1467.11 1260 1462.53 Q1263.08 1457.92 1268.89 1457.92 Z" fill="#000000" fill-rule="evenodd" fill-opacity="1" /><path clip-path="url(#clip620)" d="M 0 0 M1280.83 1452.02 L1304.94 1452.02 L1304.94 1455.22 L1280.83 1455.22 L1280.83 1452.02 Z" fill="#000000" fill-rule="evenodd" fill-opacity="1" /><path clip-path="url(#clip620)" d="M 0 0 M1319.5 1440.92 L1309.91 1455.91 L1319.5 1455.91 L1319.5 1440.92 M1318.5 1437.61 L1323.28 1437.61 L1323.28 1455.91 L1327.29 1455.91 L1327.29 1459.07 L1323.28 1459.07 L1323.28 1465.69 L1319.5 1465.69 L1319.5 1459.07 L1306.82 1459.07 L1306.82 1455.41 L1318.5 1437.61 Z" fill="#000000" fill-rule="evenodd" fill-opacity="1" /><path clip-path="url(#clip620)" d="M 0 0 M1331.4 1460.92 L1335.37 1460.92 L1335.37 1465.69 L1331.4 1465.69 L1331.4 1460.92 Z" fill="#000000" fill-rule="evenodd" fill-opacity="1" /><path clip-path="url(#clip620)" d="M 0 0 M1339.53 1437.61 L1354.44 1437.61 L1354.44 1440.81 L1343.01 1440.81 L1343.01 1447.69 Q1343.84 1447.41 1344.66 1447.28 Q1345.49 1447.13 1346.32 1447.13 Q1351.02 1447.13 1353.77 1449.71 Q1356.51 1452.28 1356.51 1456.68 Q1356.51 1461.22 1353.69 1463.74 Q1350.87 1466.24 1345.74 1466.24 Q1343.97 1466.24 1342.13 1465.94 Q1340.3 1465.64 1338.34 1465.04 L1338.34 1461.22 Q1340.04 1462.14 1341.84 1462.59 Q1343.65 1463.04 1345.66 1463.04 Q1348.91 1463.04 1350.81 1461.33 Q1352.71 1459.62 1352.71 1456.68 Q1352.71 1453.75 1350.81 1452.04 Q1348.91 1450.33 1345.66 1450.33 Q1344.14 1450.33 1342.61 1450.67 Q1341.11 1451 1339.53 1451.72 L1339.53 1437.61 Z" fill="#000000" fill-rule="evenodd" fill-opacity="1" /><path clip-path="url(#clip620)" d="M 0 0 M1632.51 1489.17 L1640.15 1489.17 L1640.15 1462.8 L1631.84 1464.47 L1631.84 1460.21 L1640.1 1458.54 L1644.78 1458.54 L1644.78 1489.17 L1652.42 1489.17 L1652.42 1493.1 L1632.51 1493.1 L1632.51 1489.17 Z" fill="#000000" fill-rule="evenodd" fill-opacity="1" /><path clip-path="url(#clip620)" d="M 0 0 M1667.48 1461.62 Q1663.87 1461.62 1662.04 1465.19 Q1660.24 1468.73 1660.24 1475.86 Q1660.24 1482.97 1662.04 1486.53 Q1663.87 1490.07 1667.48 1490.07 Q1671.12 1490.07 1672.92 1486.53 Q1674.75 1482.97 1674.75 1475.86 Q1674.75 1468.73 1672.92 1465.19 Q1671.12 1461.62 1667.48 1461.62 M1667.48 1457.92 Q1673.29 1457.92 1676.35 1462.53 Q1679.43 1467.11 1679.43 1475.86 Q1679.43 1484.59 1676.35 1489.19 Q1673.29 1493.78 1667.48 1493.78 Q1661.67 1493.78 1658.6 1489.19 Q1655.54 1484.59 1655.54 1475.86 Q1655.54 1467.11 1658.6 1462.53 Q1661.67 1457.92 1667.48 1457.92 Z" fill="#000000" fill-rule="evenodd" fill-opacity="1" /><path clip-path="url(#clip620)" d="M 0 0 M1679.43 1452.02 L1703.54 1452.02 L1703.54 1455.22 L1679.43 1455.22 L1679.43 1452.02 Z" fill="#000000" fill-rule="evenodd" fill-opacity="1" /><path clip-path="url(#clip620)" d="M 0 0 M1718.1 1440.92 L1708.51 1455.91 L1718.1 1455.91 L1718.1 1440.92 M1717.1 1437.61 L1721.88 1437.61 L1721.88 1455.91 L1725.88 1455.91 L1725.88 1459.07 L1721.88 1459.07 L1721.88 1465.69 L1718.1 1465.69 L1718.1 1459.07 L1705.42 1459.07 L1705.42 1455.41 L1717.1 1437.61 Z" fill="#000000" fill-rule="evenodd" fill-opacity="1" /><path clip-path="url(#clip620)" d="M 0 0 M1730 1460.92 L1733.97 1460.92 L1733.97 1465.69 L1730 1465.69 L1730 1460.92 Z" fill="#000000" fill-rule="evenodd" fill-opacity="1" /><path clip-path="url(#clip620)" d="M 0 0 M1748.53 1440.92 L1738.94 1455.91 L1748.53 1455.91 L1748.53 1440.92 M1747.53 1437.61 L1752.31 1437.61 L1752.31 1455.91 L1756.32 1455.91 L1756.32 1459.07 L1752.31 1459.07 L1752.31 1465.69 L1748.53 1465.69 L1748.53 1459.07 L1735.85 1459.07 L1735.85 1455.41 L1747.53 1437.61 Z" fill="#000000" fill-rule="evenodd" fill-opacity="1" /><path clip-path="url(#clip620)" d="M 0 0 M2032.17 1489.17 L2039.81 1489.17 L2039.81 1462.8 L2031.5 1464.47 L2031.5 1460.21 L2039.76 1458.54 L2044.44 1458.54 L2044.44 1489.17 L2052.08 1489.17 L2052.08 1493.1 L2032.17 1493.1 L2032.17 1489.17 Z" fill="#000000" fill-rule="evenodd" fill-opacity="1" /><path clip-path="url(#clip620)" d="M 0 0 M2067.15 1461.62 Q2063.53 1461.62 2061.71 1465.19 Q2059.9 1468.73 2059.9 1475.86 Q2059.9 1482.97 2061.71 1486.53 Q2063.53 1490.07 2067.15 1490.07 Q2070.78 1490.07 2072.59 1486.53 Q2074.41 1482.97 2074.41 1475.86 Q2074.41 1468.73 2072.59 1465.19 Q2070.78 1461.62 2067.15 1461.62 M2067.15 1457.92 Q2072.96 1457.92 2076.01 1462.53 Q2079.09 1467.11 2079.09 1475.86 Q2079.09 1484.59 2076.01 1489.19 Q2072.96 1493.78 2067.15 1493.78 Q2061.34 1493.78 2058.26 1489.19 Q2055.2 1484.59 2055.2 1475.86 Q2055.2 1467.11 2058.26 1462.53 Q2061.34 1457.92 2067.15 1457.92 Z" fill="#000000" fill-rule="evenodd" fill-opacity="1" /><path clip-path="url(#clip620)" d="M 0 0 M2079.09 1452.02 L2103.2 1452.02 L2103.2 1455.22 L2079.09 1455.22 L2079.09 1452.02 Z" fill="#000000" fill-rule="evenodd" fill-opacity="1" /><path clip-path="url(#clip620)" d="M 0 0 M2117.76 1440.92 L2108.17 1455.91 L2117.76 1455.91 L2117.76 1440.92 M2116.76 1437.61 L2121.54 1437.61 L2121.54 1455.91 L2125.54 1455.91 L2125.54 1459.07 L2121.54 1459.07 L2121.54 1465.69 L2117.76 1465.69 L2117.76 1459.07 L2105.08 1459.07 L2105.08 1455.41 L2116.76 1437.61 Z" fill="#000000" fill-rule="evenodd" fill-opacity="1" /><path clip-path="url(#clip620)" d="M 0 0 M2129.66 1460.92 L2133.63 1460.92 L2133.63 1465.69 L2129.66 1465.69 L2129.66 1460.92 Z" fill="#000000" fill-rule="evenodd" fill-opacity="1" /><path clip-path="url(#clip620)" d="M 0 0 M2149.26 1450.55 Q2151.99 1451.14 2153.51 1452.98 Q2155.05 1454.82 2155.05 1457.53 Q2155.05 1461.69 2152.2 1463.96 Q2149.34 1466.24 2144.07 1466.24 Q2142.3 1466.24 2140.42 1465.88 Q2138.56 1465.54 2136.57 1464.85 L2136.57 1461.18 Q2138.15 1462.1 2140.03 1462.57 Q2141.91 1463.04 2143.96 1463.04 Q2147.53 1463.04 2149.39 1461.63 Q2151.27 1460.22 2151.27 1457.53 Q2151.27 1455.05 2149.52 1453.66 Q2147.79 1452.25 2144.69 1452.25 L2141.42 1452.25 L2141.42 1449.12 L2144.84 1449.12 Q2147.64 1449.12 2149.13 1448.01 Q2150.62 1446.89 2150.62 1444.78 Q2150.62 1442.62 2149.07 1441.47 Q2147.55 1440.3 2144.69 1440.3 Q2143.13 1440.3 2141.34 1440.64 Q2139.56 1440.98 2137.41 1441.69 L2137.41 1438.31 Q2139.58 1437.71 2141.46 1437.41 Q2143.36 1437.11 2145.03 1437.11 Q2149.36 1437.11 2151.88 1439.08 Q2154.4 1441.04 2154.4 1444.38 Q2154.4 1446.72 2153.06 1448.33 Q2151.73 1449.93 2149.26 1450.55 Z" fill="#000000" fill-rule="evenodd" fill-opacity="1" /><path clip-path="url(#clip620)" d="M 0 0 M1187.65 1526.54 L1193.85 1526.54 L1204.99 1556.46 L1216.13 1526.54 L1222.34 1526.54 L1208.97 1562.19 L1201.01 1562.19 L1187.65 1526.54 Z" fill="#000000" fill-rule="evenodd" fill-opacity="1" /><path clip-path="url(#clip620)" d="M 0 0 M1255.57 1573.01 L1255.57 1577.56 L1221.7 1577.56 L1221.7 1573.01 L1255.57 1573.01 Z" fill="#000000" fill-rule="evenodd" fill-opacity="1" /><path clip-path="url(#clip620)" d="M 0 0 M1275.52 1530.64 Q1270.81 1530.64 1268.08 1534.34 Q1265.34 1538 1265.34 1544.39 Q1265.34 1550.79 1268.04 1554.48 Q1270.78 1558.14 1275.52 1558.14 Q1280.2 1558.14 1282.94 1554.45 Q1285.68 1550.76 1285.68 1544.39 Q1285.68 1538.06 1282.94 1534.37 Q1280.2 1530.64 1275.52 1530.64 M1275.52 1525.68 Q1283.16 1525.68 1287.52 1530.64 Q1291.88 1535.61 1291.88 1544.39 Q1291.88 1553.15 1287.52 1558.14 Q1283.16 1563.11 1275.52 1563.11 Q1267.85 1563.11 1263.49 1558.14 Q1259.16 1553.15 1259.16 1544.39 Q1259.16 1535.61 1263.49 1530.64 Q1267.85 1525.68 1275.52 1525.68 Z" fill="#000000" fill-rule="evenodd" fill-opacity="1" /><path clip-path="url(#clip620)" d="M 0 0 M1303.69 1556.84 L1303.69 1575.74 L1297.8 1575.74 L1297.8 1526.54 L1303.69 1526.54 L1303.69 1531.95 Q1305.54 1528.77 1308.34 1527.24 Q1311.17 1525.68 1315.09 1525.68 Q1321.58 1525.68 1325.62 1530.83 Q1329.7 1535.99 1329.7 1544.39 Q1329.7 1552.8 1325.62 1557.95 Q1321.58 1563.11 1315.09 1563.11 Q1311.17 1563.11 1308.34 1561.58 Q1305.54 1560.02 1303.69 1556.84 M1323.62 1544.39 Q1323.62 1537.93 1320.94 1534.27 Q1318.3 1530.58 1313.65 1530.58 Q1309.01 1530.58 1306.33 1534.27 Q1303.69 1537.93 1303.69 1544.39 Q1303.69 1550.85 1306.33 1554.55 Q1309.01 1558.21 1313.65 1558.21 Q1318.3 1558.21 1320.94 1554.55 Q1323.62 1550.85 1323.62 1544.39 Z" fill="#000000" fill-rule="evenodd" fill-opacity="1" /><path clip-path="url(#clip620)" d="M 0 0 M1366.33 1542.9 L1366.33 1545.76 L1339.4 1545.76 Q1339.79 1551.81 1343.03 1554.99 Q1346.31 1558.14 1352.14 1558.14 Q1355.51 1558.14 1358.66 1557.32 Q1361.84 1556.49 1364.96 1554.83 L1364.96 1560.37 Q1361.81 1561.71 1358.5 1562.41 Q1355.19 1563.11 1351.79 1563.11 Q1343.26 1563.11 1338.26 1558.14 Q1333.29 1553.18 1333.29 1544.71 Q1333.29 1535.96 1338 1530.83 Q1342.75 1525.68 1350.77 1525.68 Q1357.96 1525.68 1362.13 1530.33 Q1366.33 1534.94 1366.33 1542.9 M1360.47 1541.18 Q1360.41 1536.37 1357.77 1533.51 Q1355.16 1530.64 1350.83 1530.64 Q1345.93 1530.64 1342.97 1533.41 Q1340.04 1536.18 1339.59 1541.21 L1360.47 1541.18 Z" fill="#000000" fill-rule="evenodd" fill-opacity="1" /><path clip-path="url(#clip620)" d="M 0 0 M1402.11 1540.67 L1402.11 1562.19 L1396.25 1562.19 L1396.25 1540.86 Q1396.25 1535.8 1394.28 1533.29 Q1392.3 1530.77 1388.36 1530.77 Q1383.61 1530.77 1380.88 1533.79 Q1378.14 1536.82 1378.14 1542.04 L1378.14 1562.19 L1372.25 1562.19 L1372.25 1526.54 L1378.14 1526.54 L1378.14 1532.08 Q1380.24 1528.86 1383.07 1527.27 Q1385.94 1525.68 1389.66 1525.68 Q1395.8 1525.68 1398.96 1529.5 Q1402.11 1533.29 1402.11 1540.67 Z" fill="#000000" fill-rule="evenodd" fill-opacity="1" /><polyline clip-path="url(#clip622)" style="stroke:#000000; stroke-width:2; stroke-opacity:0.1; fill:none" points="
  236.996,1378.24 2352.76,1378.24 
  "/>
<polyline clip-path="url(#clip622)" style="stroke:#000000; stroke-width:2; stroke-opacity:0.1; fill:none" points="
  236.996,1159.79 2352.76,1159.79 
  "/>
<polyline clip-path="url(#clip622)" style="stroke:#000000; stroke-width:2; stroke-opacity:0.1; fill:none" points="
  236.996,941.341 2352.76,941.341 
  "/>
<polyline clip-path="url(#clip622)" style="stroke:#000000; stroke-width:2; stroke-opacity:0.1; fill:none" points="
  236.996,722.89 2352.76,722.89 
  "/>
<polyline clip-path="url(#clip622)" style="stroke:#000000; stroke-width:2; stroke-opacity:0.1; fill:none" points="
  236.996,504.438 2352.76,504.438 
  "/>
<polyline clip-path="url(#clip622)" style="stroke:#000000; stroke-width:2; stroke-opacity:0.1; fill:none" points="
  236.996,285.986 2352.76,285.986 
  "/>
<polyline clip-path="url(#clip622)" style="stroke:#000000; stroke-width:2; stroke-opacity:0.1; fill:none" points="
  236.996,67.5348 2352.76,67.5348 
  "/>
<polyline clip-path="url(#clip620)" style="stroke:#000000; stroke-width:4; stroke-opacity:1; fill:none" points="
  236.996,1410.9 236.996,47.2441 
  "/>
<polyline clip-path="url(#clip620)" style="stroke:#000000; stroke-width:4; stroke-opacity:1; fill:none" points="
  236.996,1378.24 262.385,1378.24 
  "/>
<polyline clip-path="url(#clip620)" style="stroke:#000000; stroke-width:4; stroke-opacity:1; fill:none" points="
  236.996,1159.79 262.385,1159.79 
  "/>
<polyline clip-path="url(#clip620)" style="stroke:#000000; stroke-width:4; stroke-opacity:1; fill:none" points="
  236.996,941.341 262.385,941.341 
  "/>
<polyline clip-path="url(#clip620)" style="stroke:#000000; stroke-width:4; stroke-opacity:1; fill:none" points="
  236.996,722.89 262.385,722.89 
  "/>
<polyline clip-path="url(#clip620)" style="stroke:#000000; stroke-width:4; stroke-opacity:1; fill:none" points="
  236.996,504.438 262.385,504.438 
  "/>
<polyline clip-path="url(#clip620)" style="stroke:#000000; stroke-width:4; stroke-opacity:1; fill:none" points="
  236.996,285.986 262.385,285.986 
  "/>
<polyline clip-path="url(#clip620)" style="stroke:#000000; stroke-width:4; stroke-opacity:1; fill:none" points="
  236.996,67.5348 262.385,67.5348 
  "/>
<path clip-path="url(#clip620)" d="M 0 0 M122.593 1391.59 L138.913 1391.59 L138.913 1395.52 L116.968 1395.52 L116.968 1391.59 Q119.63 1388.83 124.214 1384.2 Q128.82 1379.55 130.001 1378.21 Q132.246 1375.69 133.126 1373.95 Q134.029 1372.19 134.029 1370.5 Q134.029 1367.75 132.084 1366.01 Q130.163 1364.27 127.061 1364.27 Q124.862 1364.27 122.408 1365.04 Q119.978 1365.8 117.2 1367.35 L117.2 1362.63 Q120.024 1361.5 122.478 1360.92 Q124.931 1360.34 126.968 1360.34 Q132.339 1360.34 135.533 1363.02 Q138.728 1365.71 138.728 1370.2 Q138.728 1372.33 137.917 1374.25 Q137.13 1376.15 135.024 1378.74 Q134.445 1379.41 131.343 1382.63 Q128.242 1385.83 122.593 1391.59 Z" fill="#000000" fill-rule="evenodd" fill-opacity="1" /><path clip-path="url(#clip620)" d="M 0 0 M142.802 1360.96 L165.024 1360.96 L165.024 1362.96 L152.478 1395.52 L147.593 1395.52 L159.399 1364.9 L142.802 1364.9 L142.802 1360.96 Z" fill="#000000" fill-rule="evenodd" fill-opacity="1" /><path clip-path="url(#clip620)" d="M 0 0 M170.093 1389.64 L174.977 1389.64 L174.977 1395.52 L170.093 1395.52 L170.093 1389.64 Z" fill="#000000" fill-rule="evenodd" fill-opacity="1" /><path clip-path="url(#clip620)" d="M 0 0 M180.093 1360.96 L198.45 1360.96 L198.45 1364.9 L184.376 1364.9 L184.376 1373.37 Q185.394 1373.02 186.413 1372.86 Q187.431 1372.68 188.45 1372.68 Q194.237 1372.68 197.616 1375.85 Q200.996 1379.02 200.996 1384.44 Q200.996 1390.02 197.524 1393.12 Q194.051 1396.2 187.732 1396.2 Q185.556 1396.2 183.288 1395.83 Q181.042 1395.45 178.635 1394.71 L178.635 1390.02 Q180.718 1391.15 182.94 1391.7 Q185.163 1392.26 187.639 1392.26 Q191.644 1392.26 193.982 1390.15 Q196.32 1388.05 196.32 1384.44 Q196.32 1380.83 193.982 1378.72 Q191.644 1376.61 187.639 1376.61 Q185.764 1376.61 183.889 1377.03 Q182.038 1377.45 180.093 1378.33 L180.093 1360.96 Z" fill="#000000" fill-rule="evenodd" fill-opacity="1" /><path clip-path="url(#clip620)" d="M 0 0 M120.788 1173.14 L137.107 1173.14 L137.107 1177.07 L115.163 1177.07 L115.163 1173.14 Q117.825 1170.38 122.408 1165.75 Q127.015 1161.1 128.195 1159.76 Q130.441 1157.23 131.32 1155.5 Q132.223 1153.74 132.223 1152.05 Q132.223 1149.3 130.279 1147.56 Q128.357 1145.82 125.255 1145.82 Q123.056 1145.82 120.603 1146.59 Q118.172 1147.35 115.394 1148.9 L115.394 1144.18 Q118.218 1143.05 120.672 1142.47 Q123.126 1141.89 125.163 1141.89 Q130.533 1141.89 133.728 1144.57 Q136.922 1147.26 136.922 1151.75 Q136.922 1153.88 136.112 1155.8 Q135.325 1157.7 133.218 1160.29 Q132.64 1160.96 129.538 1164.18 Q126.436 1167.37 120.788 1173.14 Z" fill="#000000" fill-rule="evenodd" fill-opacity="1" /><path clip-path="url(#clip620)" d="M 0 0 M152.177 1160.66 Q148.843 1160.66 146.922 1162.44 Q145.024 1164.23 145.024 1167.35 Q145.024 1170.48 146.922 1172.26 Q148.843 1174.04 152.177 1174.04 Q155.51 1174.04 157.431 1172.26 Q159.353 1170.45 159.353 1167.35 Q159.353 1164.23 157.431 1162.44 Q155.533 1160.66 152.177 1160.66 M147.501 1158.67 Q144.491 1157.93 142.802 1155.87 Q141.135 1153.81 141.135 1150.85 Q141.135 1146.7 144.075 1144.3 Q147.038 1141.89 152.177 1141.89 Q157.339 1141.89 160.278 1144.3 Q163.218 1146.7 163.218 1150.85 Q163.218 1153.81 161.528 1155.87 Q159.862 1157.93 156.876 1158.67 Q160.255 1159.46 162.13 1161.75 Q164.028 1164.04 164.028 1167.35 Q164.028 1172.37 160.95 1175.06 Q157.894 1177.74 152.177 1177.74 Q146.459 1177.74 143.38 1175.06 Q140.325 1172.37 140.325 1167.35 Q140.325 1164.04 142.223 1161.75 Q144.121 1159.46 147.501 1158.67 M145.788 1151.29 Q145.788 1153.97 147.454 1155.48 Q149.144 1156.98 152.177 1156.98 Q155.186 1156.98 156.876 1155.48 Q158.589 1153.97 158.589 1151.29 Q158.589 1148.6 156.876 1147.1 Q155.186 1145.59 152.177 1145.59 Q149.144 1145.59 147.454 1147.1 Q145.788 1148.6 145.788 1151.29 Z" fill="#000000" fill-rule="evenodd" fill-opacity="1" /><path clip-path="url(#clip620)" d="M 0 0 M169.098 1171.19 L173.982 1171.19 L173.982 1177.07 L169.098 1177.07 L169.098 1171.19 Z" fill="#000000" fill-rule="evenodd" fill-opacity="1" /><path clip-path="url(#clip620)" d="M 0 0 M189.051 1145.59 Q185.44 1145.59 183.612 1149.16 Q181.806 1152.7 181.806 1159.83 Q181.806 1166.93 183.612 1170.5 Q185.44 1174.04 189.051 1174.04 Q192.686 1174.04 194.491 1170.5 Q196.32 1166.93 196.32 1159.83 Q196.32 1152.7 194.491 1149.16 Q192.686 1145.59 189.051 1145.59 M189.051 1141.89 Q194.862 1141.89 197.917 1146.49 Q200.996 1151.08 200.996 1159.83 Q200.996 1168.55 197.917 1173.16 Q194.862 1177.74 189.051 1177.74 Q183.241 1177.74 180.163 1173.16 Q177.107 1168.55 177.107 1159.83 Q177.107 1151.08 180.163 1146.49 Q183.241 1141.89 189.051 1141.89 Z" fill="#000000" fill-rule="evenodd" fill-opacity="1" /><path clip-path="url(#clip620)" d="M 0 0 M121.783 954.686 L138.103 954.686 L138.103 958.621 L116.158 958.621 L116.158 954.686 Q118.82 951.931 123.404 947.302 Q128.01 942.649 129.191 941.306 Q131.436 938.783 132.316 937.047 Q133.218 935.288 133.218 933.598 Q133.218 930.844 131.274 929.107 Q129.353 927.371 126.251 927.371 Q124.052 927.371 121.598 928.135 Q119.168 928.899 116.39 930.45 L116.39 925.728 Q119.214 924.594 121.668 924.015 Q124.121 923.436 126.158 923.436 Q131.529 923.436 134.723 926.121 Q137.917 928.807 137.917 933.297 Q137.917 935.427 137.107 937.348 Q136.32 939.246 134.214 941.839 Q133.635 942.51 130.533 945.728 Q127.431 948.922 121.783 954.686 Z" fill="#000000" fill-rule="evenodd" fill-opacity="1" /><path clip-path="url(#clip620)" d="M 0 0 M153.172 942.209 Q149.839 942.209 147.917 943.992 Q146.019 945.774 146.019 948.899 Q146.019 952.024 147.917 953.806 Q149.839 955.589 153.172 955.589 Q156.505 955.589 158.427 953.806 Q160.348 952.001 160.348 948.899 Q160.348 945.774 158.427 943.992 Q156.528 942.209 153.172 942.209 M148.496 940.218 Q145.487 939.478 143.797 937.418 Q142.13 935.357 142.13 932.394 Q142.13 928.251 145.07 925.844 Q148.033 923.436 153.172 923.436 Q158.334 923.436 161.274 925.844 Q164.214 928.251 164.214 932.394 Q164.214 935.357 162.524 937.418 Q160.857 939.478 157.871 940.218 Q161.251 941.006 163.126 943.297 Q165.024 945.589 165.024 948.899 Q165.024 953.922 161.945 956.607 Q158.89 959.292 153.172 959.292 Q147.454 959.292 144.376 956.607 Q141.32 953.922 141.32 948.899 Q141.32 945.589 143.218 943.297 Q145.116 941.006 148.496 940.218 M146.783 932.834 Q146.783 935.519 148.45 937.024 Q150.14 938.529 153.172 938.529 Q156.181 938.529 157.871 937.024 Q159.584 935.519 159.584 932.834 Q159.584 930.149 157.871 928.644 Q156.181 927.14 153.172 927.14 Q150.14 927.14 148.45 928.644 Q146.783 930.149 146.783 932.834 Z" fill="#000000" fill-rule="evenodd" fill-opacity="1" /><path clip-path="url(#clip620)" d="M 0 0 M170.093 952.742 L174.977 952.742 L174.977 958.621 L170.093 958.621 L170.093 952.742 Z" fill="#000000" fill-rule="evenodd" fill-opacity="1" /><path clip-path="url(#clip620)" d="M 0 0 M180.093 924.061 L198.45 924.061 L198.45 927.996 L184.376 927.996 L184.376 936.469 Q185.394 936.121 186.413 935.959 Q187.431 935.774 188.45 935.774 Q194.237 935.774 197.616 938.945 Q200.996 942.117 200.996 947.533 Q200.996 953.112 197.524 956.214 Q194.051 959.292 187.732 959.292 Q185.556 959.292 183.288 958.922 Q181.042 958.552 178.635 957.811 L178.635 953.112 Q180.718 954.246 182.94 954.802 Q185.163 955.357 187.639 955.357 Q191.644 955.357 193.982 953.251 Q196.32 951.144 196.32 947.533 Q196.32 943.922 193.982 941.816 Q191.644 939.709 187.639 939.709 Q185.764 939.709 183.889 940.126 Q182.038 940.543 180.093 941.422 L180.093 924.061 Z" fill="#000000" fill-rule="evenodd" fill-opacity="1" /><path clip-path="url(#clip620)" d="M 0 0 M120.88 736.234 L137.2 736.234 L137.2 740.17 L115.256 740.17 L115.256 736.234 Q117.918 733.48 122.501 728.85 Q127.107 724.197 128.288 722.855 Q130.533 720.332 131.413 718.596 Q132.316 716.836 132.316 715.147 Q132.316 712.392 130.371 710.656 Q128.45 708.92 125.348 708.92 Q123.149 708.92 120.695 709.684 Q118.265 710.448 115.487 711.998 L115.487 707.276 Q118.311 706.142 120.765 705.563 Q123.218 704.985 125.255 704.985 Q130.626 704.985 133.82 707.67 Q137.015 710.355 137.015 714.846 Q137.015 716.975 136.204 718.897 Q135.417 720.795 133.311 723.387 Q132.732 724.059 129.63 727.276 Q126.529 730.471 120.88 736.234 Z" fill="#000000" fill-rule="evenodd" fill-opacity="1" /><path clip-path="url(#clip620)" d="M 0 0 M142.408 739.452 L142.408 735.193 Q144.167 736.026 145.973 736.466 Q147.778 736.906 149.515 736.906 Q154.144 736.906 156.575 733.804 Q159.028 730.679 159.376 724.336 Q158.033 726.327 155.973 727.392 Q153.913 728.457 151.413 728.457 Q146.228 728.457 143.195 725.332 Q140.186 722.184 140.186 716.744 Q140.186 711.42 143.334 708.202 Q146.482 704.985 151.714 704.985 Q157.709 704.985 160.857 709.591 Q164.028 714.174 164.028 722.924 Q164.028 731.096 160.14 735.98 Q156.274 740.841 149.723 740.841 Q147.964 740.841 146.158 740.494 Q144.353 740.146 142.408 739.452 M151.714 724.799 Q154.862 724.799 156.69 722.647 Q158.542 720.494 158.542 716.744 Q158.542 713.017 156.69 710.864 Q154.862 708.688 151.714 708.688 Q148.566 708.688 146.714 710.864 Q144.885 713.017 144.885 716.744 Q144.885 720.494 146.714 722.647 Q148.566 724.799 151.714 724.799 Z" fill="#000000" fill-rule="evenodd" fill-opacity="1" /><path clip-path="url(#clip620)" d="M 0 0 M169.098 734.29 L173.982 734.29 L173.982 740.17 L169.098 740.17 L169.098 734.29 Z" fill="#000000" fill-rule="evenodd" fill-opacity="1" /><path clip-path="url(#clip620)" d="M 0 0 M189.051 708.688 Q185.44 708.688 183.612 712.253 Q181.806 715.795 181.806 722.924 Q181.806 730.031 183.612 733.596 Q185.44 737.137 189.051 737.137 Q192.686 737.137 194.491 733.596 Q196.32 730.031 196.32 722.924 Q196.32 715.795 194.491 712.253 Q192.686 708.688 189.051 708.688 M189.051 704.985 Q194.862 704.985 197.917 709.591 Q200.996 714.174 200.996 722.924 Q200.996 731.651 197.917 736.258 Q194.862 740.841 189.051 740.841 Q183.241 740.841 180.163 736.258 Q177.107 731.651 177.107 722.924 Q177.107 714.174 180.163 709.591 Q183.241 704.985 189.051 704.985 Z" fill="#000000" fill-rule="evenodd" fill-opacity="1" /><path clip-path="url(#clip620)" d="M 0 0 M121.876 517.783 L138.195 517.783 L138.195 521.718 L116.251 521.718 L116.251 517.783 Q118.913 515.028 123.496 510.399 Q128.103 505.746 129.283 504.403 Q131.529 501.88 132.408 500.144 Q133.311 498.385 133.311 496.695 Q133.311 493.94 131.367 492.204 Q129.445 490.468 126.343 490.468 Q124.144 490.468 121.691 491.232 Q119.26 491.996 116.482 493.547 L116.482 488.825 Q119.306 487.69 121.76 487.112 Q124.214 486.533 126.251 486.533 Q131.621 486.533 134.816 489.218 Q138.01 491.903 138.01 496.394 Q138.01 498.524 137.2 500.445 Q136.413 502.343 134.306 504.936 Q133.728 505.607 130.626 508.825 Q127.524 512.019 121.876 517.783 Z" fill="#000000" fill-rule="evenodd" fill-opacity="1" /><path clip-path="url(#clip620)" d="M 0 0 M143.404 521 L143.404 516.741 Q145.163 517.575 146.968 518.014 Q148.774 518.454 150.51 518.454 Q155.14 518.454 157.57 515.352 Q160.024 512.227 160.371 505.885 Q159.028 507.875 156.968 508.94 Q154.908 510.005 152.408 510.005 Q147.223 510.005 144.191 506.88 Q141.181 503.732 141.181 498.292 Q141.181 492.968 144.329 489.751 Q147.478 486.533 152.709 486.533 Q158.704 486.533 161.852 491.139 Q165.024 495.723 165.024 504.473 Q165.024 512.644 161.135 517.528 Q157.269 522.389 150.718 522.389 Q148.959 522.389 147.153 522.042 Q145.348 521.695 143.404 521 M152.709 506.348 Q155.857 506.348 157.686 504.195 Q159.538 502.042 159.538 498.292 Q159.538 494.565 157.686 492.413 Q155.857 490.237 152.709 490.237 Q149.561 490.237 147.709 492.413 Q145.88 494.565 145.88 498.292 Q145.88 502.042 147.709 504.195 Q149.561 506.348 152.709 506.348 Z" fill="#000000" fill-rule="evenodd" fill-opacity="1" /><path clip-path="url(#clip620)" d="M 0 0 M170.093 515.838 L174.977 515.838 L174.977 521.718 L170.093 521.718 L170.093 515.838 Z" fill="#000000" fill-rule="evenodd" fill-opacity="1" /><path clip-path="url(#clip620)" d="M 0 0 M180.093 487.158 L198.45 487.158 L198.45 491.093 L184.376 491.093 L184.376 499.565 Q185.394 499.218 186.413 499.056 Q187.431 498.871 188.45 498.871 Q194.237 498.871 197.616 502.042 Q200.996 505.213 200.996 510.63 Q200.996 516.209 197.524 519.311 Q194.051 522.389 187.732 522.389 Q185.556 522.389 183.288 522.019 Q181.042 521.649 178.635 520.908 L178.635 516.209 Q180.718 517.343 182.94 517.899 Q185.163 518.454 187.639 518.454 Q191.644 518.454 193.982 516.348 Q196.32 514.241 196.32 510.63 Q196.32 507.019 193.982 504.913 Q191.644 502.806 187.639 502.806 Q185.764 502.806 183.889 503.223 Q182.038 503.639 180.093 504.519 L180.093 487.158 Z" fill="#000000" fill-rule="evenodd" fill-opacity="1" /><path clip-path="url(#clip620)" d="M 0 0 M129.885 284.632 Q133.242 285.35 135.117 287.618 Q137.015 289.887 137.015 293.22 Q137.015 298.336 133.496 301.137 Q129.978 303.938 123.496 303.938 Q121.32 303.938 119.006 303.498 Q116.714 303.081 114.26 302.225 L114.26 297.711 Q116.205 298.845 118.519 299.424 Q120.834 300.003 123.357 300.003 Q127.755 300.003 130.047 298.266 Q132.362 296.53 132.362 293.22 Q132.362 290.165 130.209 288.452 Q128.08 286.716 124.26 286.716 L120.232 286.716 L120.232 282.873 L124.445 282.873 Q127.894 282.873 129.723 281.507 Q131.552 280.118 131.552 277.526 Q131.552 274.864 129.654 273.452 Q127.779 272.017 124.26 272.017 Q122.339 272.017 120.14 272.433 Q117.941 272.85 115.302 273.73 L115.302 269.563 Q117.964 268.822 120.279 268.452 Q122.617 268.081 124.677 268.081 Q130.001 268.081 133.103 270.512 Q136.204 272.919 136.204 277.04 Q136.204 279.91 134.561 281.901 Q132.917 283.868 129.885 284.632 Z" fill="#000000" fill-rule="evenodd" fill-opacity="1" /><path clip-path="url(#clip620)" d="M 0 0 M152.084 271.785 Q148.473 271.785 146.644 275.35 Q144.839 278.892 144.839 286.021 Q144.839 293.128 146.644 296.692 Q148.473 300.234 152.084 300.234 Q155.718 300.234 157.524 296.692 Q159.353 293.128 159.353 286.021 Q159.353 278.892 157.524 275.35 Q155.718 271.785 152.084 271.785 M152.084 268.081 Q157.894 268.081 160.95 272.688 Q164.028 277.271 164.028 286.021 Q164.028 294.748 160.95 299.354 Q157.894 303.938 152.084 303.938 Q146.274 303.938 143.195 299.354 Q140.14 294.748 140.14 286.021 Q140.14 277.271 143.195 272.688 Q146.274 268.081 152.084 268.081 Z" fill="#000000" fill-rule="evenodd" fill-opacity="1" /><path clip-path="url(#clip620)" d="M 0 0 M169.098 297.387 L173.982 297.387 L173.982 303.266 L169.098 303.266 L169.098 297.387 Z" fill="#000000" fill-rule="evenodd" fill-opacity="1" /><path clip-path="url(#clip620)" d="M 0 0 M189.051 271.785 Q185.44 271.785 183.612 275.35 Q181.806 278.892 181.806 286.021 Q181.806 293.128 183.612 296.692 Q185.44 300.234 189.051 300.234 Q192.686 300.234 194.491 296.692 Q196.32 293.128 196.32 286.021 Q196.32 278.892 194.491 275.35 Q192.686 271.785 189.051 271.785 M189.051 268.081 Q194.862 268.081 197.917 272.688 Q200.996 277.271 200.996 286.021 Q200.996 294.748 197.917 299.354 Q194.862 303.938 189.051 303.938 Q183.241 303.938 180.163 299.354 Q177.107 294.748 177.107 286.021 Q177.107 277.271 180.163 272.688 Q183.241 268.081 189.051 268.081 Z" fill="#000000" fill-rule="evenodd" fill-opacity="1" /><path clip-path="url(#clip620)" d="M 0 0 M130.88 66.1807 Q134.237 66.8983 136.112 69.1668 Q138.01 71.4353 138.01 74.7686 Q138.01 79.8843 134.492 82.6852 Q130.973 85.4861 124.492 85.4861 Q122.316 85.4861 120.001 85.0463 Q117.709 84.6297 115.256 83.7732 L115.256 79.2593 Q117.2 80.3936 119.515 80.9723 Q121.83 81.551 124.353 81.551 Q128.751 81.551 131.042 79.8149 Q133.357 78.0788 133.357 74.7686 Q133.357 71.7131 131.205 70.0001 Q129.075 68.264 125.255 68.264 L121.228 68.264 L121.228 64.4214 L125.441 64.4214 Q128.89 64.4214 130.718 63.0557 Q132.547 61.6668 132.547 59.0742 Q132.547 56.4122 130.649 55.0002 Q128.774 53.565 125.255 53.565 Q123.334 53.565 121.135 53.9817 Q118.936 54.3983 116.297 55.278 L116.297 51.1113 Q118.959 50.3706 121.274 50.0002 Q123.612 49.6299 125.672 49.6299 Q130.996 49.6299 134.098 52.0604 Q137.2 54.4678 137.2 58.5881 Q137.2 61.4585 135.556 63.4492 Q133.913 65.4168 130.88 66.1807 Z" fill="#000000" fill-rule="evenodd" fill-opacity="1" /><path clip-path="url(#clip620)" d="M 0 0 M153.079 53.3335 Q149.468 53.3335 147.64 56.8983 Q145.834 60.44 145.834 67.5696 Q145.834 74.676 147.64 78.2408 Q149.468 81.7825 153.079 81.7825 Q156.714 81.7825 158.519 78.2408 Q160.348 74.676 160.348 67.5696 Q160.348 60.44 158.519 56.8983 Q156.714 53.3335 153.079 53.3335 M153.079 49.6299 Q158.89 49.6299 161.945 54.2363 Q165.024 58.8196 165.024 67.5696 Q165.024 76.2964 161.945 80.9028 Q158.89 85.4861 153.079 85.4861 Q147.269 85.4861 144.191 80.9028 Q141.135 76.2964 141.135 67.5696 Q141.135 58.8196 144.191 54.2363 Q147.269 49.6299 153.079 49.6299 Z" fill="#000000" fill-rule="evenodd" fill-opacity="1" /><path clip-path="url(#clip620)" d="M 0 0 M170.093 78.9353 L174.977 78.9353 L174.977 84.8148 L170.093 84.8148 L170.093 78.9353 Z" fill="#000000" fill-rule="evenodd" fill-opacity="1" /><path clip-path="url(#clip620)" d="M 0 0 M180.093 50.2548 L198.45 50.2548 L198.45 54.19 L184.376 54.19 L184.376 62.6622 Q185.394 62.315 186.413 62.1529 Q187.431 61.9677 188.45 61.9677 Q194.237 61.9677 197.616 65.139 Q200.996 68.3103 200.996 73.7269 Q200.996 79.3056 197.524 82.4075 Q194.051 85.4861 187.732 85.4861 Q185.556 85.4861 183.288 85.1158 Q181.042 84.7454 178.635 84.0047 L178.635 79.3056 Q180.718 80.4399 182.94 80.9954 Q185.163 81.551 187.639 81.551 Q191.644 81.551 193.982 79.4445 Q196.32 77.338 196.32 73.7269 Q196.32 70.1159 193.982 68.0094 Q191.644 65.9029 187.639 65.9029 Q185.764 65.9029 183.889 66.3196 Q182.038 66.7362 180.093 67.6159 L180.093 50.2548 Z" fill="#000000" fill-rule="evenodd" fill-opacity="1" /><path clip-path="url(#clip620)" d="M 0 0 M59.1993 815.533 Q55.2526 813.336 53.3747 810.281 Q51.4968 807.225 51.4968 803.088 Q51.4968 797.518 55.4117 794.494 Q59.2948 791.47 66.4881 791.47 L88.0042 791.47 L88.0042 797.358 L66.679 797.358 Q61.5546 797.358 59.072 799.173 Q56.5894 800.987 56.5894 804.711 Q56.5894 809.262 59.6131 811.904 Q62.6368 814.546 67.8567 814.546 L88.0042 814.546 L88.0042 820.434 L66.679 820.434 Q61.5228 820.434 59.072 822.248 Q56.5894 824.063 56.5894 827.85 Q56.5894 832.338 59.6449 834.98 Q62.6686 837.622 67.8567 837.622 L88.0042 837.622 L88.0042 843.51 L52.3562 843.51 L52.3562 837.622 L57.8944 837.622 Q54.616 835.616 53.0564 832.815 Q51.4968 830.015 51.4968 826.163 Q51.4968 822.28 53.4702 819.575 Q55.4436 816.838 59.1993 815.533 Z" fill="#000000" fill-rule="evenodd" fill-opacity="1" /><path clip-path="url(#clip620)" d="M 0 0 M52.3562 785.327 L52.3562 779.471 L88.0042 779.471 L88.0042 785.327 L52.3562 785.327 M38.479 785.327 L38.479 779.471 L45.895 779.471 L45.895 785.327 L38.479 785.327 Z" fill="#000000" fill-rule="evenodd" fill-opacity="1" /><path clip-path="url(#clip620)" d="M 0 0 M66.4881 743.696 L88.0042 743.696 L88.0042 749.552 L66.679 749.552 Q61.6183 749.552 59.1038 751.525 Q56.5894 753.499 56.5894 757.446 Q56.5894 762.188 59.6131 764.925 Q62.6368 767.662 67.8567 767.662 L88.0042 767.662 L88.0042 773.551 L52.3562 773.551 L52.3562 767.662 L57.8944 767.662 Q54.6797 765.562 53.0883 762.729 Q51.4968 759.864 51.4968 756.141 Q51.4968 749.998 55.3163 746.847 Q59.1038 743.696 66.4881 743.696 Z" fill="#000000" fill-rule="evenodd" fill-opacity="1" /><path clip-path="url(#clip620)" d="M 0 0 M98.8259 710.467 L103.377 710.467 L103.377 744.332 L98.8259 744.332 L98.8259 710.467 Z" fill="#000000" fill-rule="evenodd" fill-opacity="1" /><path clip-path="url(#clip620)" d="M 0 0 M57.7671 680.866 L38.479 680.866 L38.479 675.01 L88.0042 675.01 L88.0042 680.866 L82.657 680.866 Q85.8398 682.712 87.3994 685.545 Q88.9272 688.346 88.9272 692.292 Q88.9272 698.754 83.771 702.828 Q78.6147 706.87 70.212 706.87 Q61.8093 706.87 56.6531 702.828 Q51.4968 698.754 51.4968 692.292 Q51.4968 688.346 53.0564 685.545 Q54.5842 682.712 57.7671 680.866 M70.212 700.823 Q76.6732 700.823 80.3653 698.181 Q84.0256 695.507 84.0256 690.86 Q84.0256 686.213 80.3653 683.54 Q76.6732 680.866 70.212 680.866 Q63.7508 680.866 60.0905 683.54 Q56.3984 686.213 56.3984 690.86 Q56.3984 695.507 60.0905 698.181 Q63.7508 700.823 70.212 700.823 Z" fill="#000000" fill-rule="evenodd" fill-opacity="1" /><path clip-path="url(#clip620)" d="M 0 0 M52.3562 668.867 L52.3562 663.01 L88.0042 663.01 L88.0042 668.867 L52.3562 668.867 M38.479 668.867 L38.479 663.01 L45.895 663.01 L45.895 668.867 L38.479 668.867 Z" fill="#000000" fill-rule="evenodd" fill-opacity="1" /><path clip-path="url(#clip620)" d="M 0 0 M38.479 638.821 L43.3487 638.821 L43.3487 644.422 Q43.3487 647.573 44.6219 648.815 Q45.895 650.024 49.2052 650.024 L52.3562 650.024 L52.3562 640.38 L56.9077 640.38 L56.9077 650.024 L88.0042 650.024 L88.0042 655.912 L56.9077 655.912 L56.9077 661.514 L52.3562 661.514 L52.3562 655.912 L49.8736 655.912 Q43.9216 655.912 41.2162 653.143 Q38.479 650.374 38.479 644.359 L38.479 638.821 Z" fill="#000000" fill-rule="evenodd" fill-opacity="1" /><path clip-path="url(#clip620)" d="M 0 0 M38.479 614.631 L43.3487 614.631 L43.3487 620.233 Q43.3487 623.384 44.6219 624.625 Q45.895 625.835 49.2052 625.835 L52.3562 625.835 L52.3562 616.19 L56.9077 616.19 L56.9077 625.835 L88.0042 625.835 L88.0042 631.723 L56.9077 631.723 L56.9077 637.325 L52.3562 637.325 L52.3562 631.723 L49.8736 631.723 Q43.9216 631.723 41.2162 628.954 Q38.479 626.185 38.479 620.169 L38.479 614.631 Z" fill="#000000" fill-rule="evenodd" fill-opacity="1" /><polyline clip-path="url(#clip622)" style="stroke:#009af9; stroke-width:20; stroke-opacity:1; fill:none" stroke-dasharray="80, 50" points="
  296.876,1372.3 1294.88,740.198 2292.88,85.838 
  "/>
<path clip-path="url(#clip620)" d="
M1996.13 213.659 L2282.23 213.659 L2282.23 92.6992 L1996.13 92.6992  Z
  " fill="#ffffff" fill-rule="evenodd" fill-opacity="1"/>
<polyline clip-path="url(#clip620)" style="stroke:#000000; stroke-width:4; stroke-opacity:1; fill:none" points="
  1996.13,213.659 2282.23,213.659 2282.23,92.6992 1996.13,92.6992 1996.13,213.659 
  "/>
<polyline clip-path="url(#clip620)" style="stroke:#009af9; stroke-width:4; stroke-opacity:1; fill:none" stroke-dasharray="16, 10" points="
  2019.64,153.179 2160.69,153.179 
  "/>
<path clip-path="url(#clip620)" d="M 0 0 M2198.04 172.867 Q2196.23 177.496 2194.52 178.908 Q2192.81 180.32 2189.94 180.32 L2186.53 180.32 L2186.53 176.755 L2189.03 176.755 Q2190.79 176.755 2191.76 175.922 Q2192.74 175.089 2193.92 171.987 L2194.68 170.043 L2184.2 144.533 L2188.71 144.533 L2196.81 164.811 L2204.91 144.533 L2209.43 144.533 L2198.04 172.867 Z" fill="#000000" fill-rule="evenodd" fill-opacity="1" /><path clip-path="url(#clip620)" d="M 0 0 M2215.31 166.524 L2222.95 166.524 L2222.95 140.158 L2214.64 141.825 L2214.64 137.566 L2222.9 135.899 L2227.57 135.899 L2227.57 166.524 L2235.21 166.524 L2235.21 170.459 L2215.31 170.459 L2215.31 166.524 Z" fill="#000000" fill-rule="evenodd" fill-opacity="1" /></svg>
