<?xml version="1.0" encoding="utf-8"?>
<svg xmlns="http://www.w3.org/2000/svg" xmlns:xlink="http://www.w3.org/1999/xlink" width="600" height="400" viewBox="0 0 2400 1600">
<defs>
  <clipPath id="clip720">
    <rect x="0" y="0" width="2400" height="1600"/>
  </clipPath>
</defs>
<path clip-path="url(#clip720)" d="
M0 1600 L2400 1600 L2400 0 L0 0  Z
  " fill="#ffffff" fill-rule="evenodd" fill-opacity="1"/>
<defs>
  <clipPath id="clip721">
    <rect x="480" y="0" width="1681" height="1600"/>
  </clipPath>
</defs>
<path clip-path="url(#clip720)" d="
M264.287 1410.9 L2352.76 1410.9 L2352.76 47.2441 L264.287 47.2441  Z
  " fill="#ffffff" fill-rule="evenodd" fill-opacity="1"/>
<defs>
  <clipPath id="clip722">
    <rect x="264" y="47" width="2089" height="1365"/>
  </clipPath>
</defs>
<polyline clip-path="url(#clip722)" style="stroke:#000000; stroke-linecap:butt; stroke-linejoin:round; stroke-width:2; stroke-opacity:0.1; fill:none" points="
  497.102,1410.9 497.102,47.2441 
  "/>
<polyline clip-path="url(#clip722)" style="stroke:#000000; stroke-linecap:butt; stroke-linejoin:round; stroke-width:2; stroke-opacity:0.1; fill:none" points="
  1618.5,1410.9 1618.5,47.2441 
  "/>
<polyline clip-path="url(#clip720)" style="stroke:#000000; stroke-linecap:butt; stroke-linejoin:round; stroke-width:4; stroke-opacity:1; fill:none" points="
  264.287,1410.9 2352.76,1410.9 
  "/>
<polyline clip-path="url(#clip720)" style="stroke:#000000; stroke-linecap:butt; stroke-linejoin:round; stroke-width:4; stroke-opacity:1; fill:none" points="
  497.102,1410.9 497.102,1392 
  "/>
<polyline clip-path="url(#clip720)" style="stroke:#000000; stroke-linecap:butt; stroke-linejoin:round; stroke-width:4; stroke-opacity:1; fill:none" points="
  1618.5,1410.9 1618.5,1392 
  "/>
<path clip-path="url(#clip720)" d="M462.084 1485.02 L469.723 1485.02 L469.723 1458.66 L461.413 1460.32 L461.413 1456.06 L469.677 1454.4 L474.353 1454.4 L474.353 1485.02 L481.992 1485.02 L481.992 1488.96 L462.084 1488.96 L462.084 1485.02 Z" fill="#000000" fill-rule="evenodd" fill-opacity="1" /><path clip-path="url(#clip720)" d="M501.436 1457.48 Q497.825 1457.48 495.996 1461.04 Q494.191 1464.58 494.191 1471.71 Q494.191 1478.82 495.996 1482.38 Q497.825 1485.92 501.436 1485.92 Q505.07 1485.92 506.876 1482.38 Q508.705 1478.82 508.705 1471.71 Q508.705 1464.58 506.876 1461.04 Q505.07 1457.48 501.436 1457.48 M501.436 1453.77 Q507.246 1453.77 510.302 1458.38 Q513.381 1462.96 513.381 1471.71 Q513.381 1480.44 510.302 1485.04 Q507.246 1489.63 501.436 1489.63 Q495.626 1489.63 492.547 1485.04 Q489.492 1480.44 489.492 1471.71 Q489.492 1462.96 492.547 1458.38 Q495.626 1453.77 501.436 1453.77 Z" fill="#000000" fill-rule="evenodd" fill-opacity="1" /><path clip-path="url(#clip720)" d="M523.085 1435.97 Q520.151 1435.97 518.665 1438.86 Q517.198 1441.74 517.198 1447.53 Q517.198 1453.31 518.665 1456.2 Q520.151 1459.08 523.085 1459.08 Q526.038 1459.08 527.505 1456.2 Q528.991 1453.31 528.991 1447.53 Q528.991 1441.74 527.505 1438.86 Q526.038 1435.97 523.085 1435.97 M523.085 1432.96 Q527.806 1432.96 530.289 1436.7 Q532.79 1440.43 532.79 1447.53 Q532.79 1454.62 530.289 1458.37 Q527.806 1462.09 523.085 1462.09 Q518.365 1462.09 515.863 1458.37 Q513.381 1454.62 513.381 1447.53 Q513.381 1440.43 515.863 1436.7 Q518.365 1432.96 523.085 1432.96 Z" fill="#000000" fill-rule="evenodd" fill-opacity="1" /><path clip-path="url(#clip720)" d="M1584.83 1485.02 L1592.47 1485.02 L1592.47 1458.66 L1584.16 1460.32 L1584.16 1456.06 L1592.42 1454.4 L1597.1 1454.4 L1597.1 1485.02 L1604.73 1485.02 L1604.73 1488.96 L1584.83 1488.96 L1584.83 1485.02 Z" fill="#000000" fill-rule="evenodd" fill-opacity="1" /><path clip-path="url(#clip720)" d="M1624.18 1457.48 Q1620.57 1457.48 1618.74 1461.04 Q1616.93 1464.58 1616.93 1471.71 Q1616.93 1478.82 1618.74 1482.38 Q1620.57 1485.92 1624.18 1485.92 Q1627.81 1485.92 1629.62 1482.38 Q1631.45 1478.82 1631.45 1471.71 Q1631.45 1464.58 1629.62 1461.04 Q1627.81 1457.48 1624.18 1457.48 M1624.18 1453.77 Q1629.99 1453.77 1633.04 1458.38 Q1636.12 1462.96 1636.12 1471.71 Q1636.12 1480.44 1633.04 1485.04 Q1629.99 1489.63 1624.18 1489.63 Q1618.37 1489.63 1615.29 1485.04 Q1612.23 1480.44 1612.23 1471.71 Q1612.23 1462.96 1615.29 1458.38 Q1618.37 1453.77 1624.18 1453.77 Z" fill="#000000" fill-rule="evenodd" fill-opacity="1" /><path clip-path="url(#clip720)" d="M1636.67 1458.35 L1642.88 1458.35 L1642.88 1436.93 L1636.12 1438.28 L1636.12 1434.82 L1642.84 1433.47 L1646.64 1433.47 L1646.64 1458.35 L1652.84 1458.35 L1652.84 1461.55 L1636.67 1461.55 L1636.67 1458.35 Z" fill="#000000" fill-rule="evenodd" fill-opacity="1" /><path clip-path="url(#clip720)" d="M1299 1571.99 L1299 1587.74 L1293.12 1587.74 L1293.12 1538.76 Q1293.12 1524.25 1306.68 1524.25 Q1320.49 1524.25 1320.49 1536.5 Q1320.49 1545.22 1315.01 1548.4 Q1323.93 1551.27 1323.93 1559.77 Q1323.93 1574.85 1308.59 1574.85 Q1301.84 1574.85 1299 1571.99 M1299 1564.35 Q1302.54 1569.86 1308.81 1569.86 Q1317.97 1569.86 1317.97 1559.86 Q1317.97 1550.89 1303.21 1551.59 L1303.21 1546.18 Q1314.76 1546.18 1314.76 1535.99 Q1314.76 1529.02 1307.31 1529.02 Q1299 1529.02 1299 1538.95 L1299 1564.35 Z" fill="#000000" fill-rule="evenodd" fill-opacity="1" /><polyline clip-path="url(#clip722)" style="stroke:#000000; stroke-linecap:butt; stroke-linejoin:round; stroke-width:2; stroke-opacity:0.1; fill:none" points="
  264.287,1374.08 2352.76,1374.08 
  "/>
<polyline clip-path="url(#clip722)" style="stroke:#000000; stroke-linecap:butt; stroke-linejoin:round; stroke-width:2; stroke-opacity:0.1; fill:none" points="
  264.287,1124.36 2352.76,1124.36 
  "/>
<polyline clip-path="url(#clip722)" style="stroke:#000000; stroke-linecap:butt; stroke-linejoin:round; stroke-width:2; stroke-opacity:0.1; fill:none" points="
  264.287,874.65 2352.76,874.65 
  "/>
<polyline clip-path="url(#clip722)" style="stroke:#000000; stroke-linecap:butt; stroke-linejoin:round; stroke-width:2; stroke-opacity:0.1; fill:none" points="
  264.287,624.936 2352.76,624.936 
  "/>
<polyline clip-path="url(#clip722)" style="stroke:#000000; stroke-linecap:butt; stroke-linejoin:round; stroke-width:2; stroke-opacity:0.1; fill:none" points="
  264.287,375.222 2352.76,375.222 
  "/>
<polyline clip-path="url(#clip722)" style="stroke:#000000; stroke-linecap:butt; stroke-linejoin:round; stroke-width:2; stroke-opacity:0.1; fill:none" points="
  264.287,125.508 2352.76,125.508 
  "/>
<polyline clip-path="url(#clip720)" style="stroke:#000000; stroke-linecap:butt; stroke-linejoin:round; stroke-width:4; stroke-opacity:1; fill:none" points="
  264.287,1410.9 264.287,47.2441 
  "/>
<polyline clip-path="url(#clip720)" style="stroke:#000000; stroke-linecap:butt; stroke-linejoin:round; stroke-width:4; stroke-opacity:1; fill:none" points="
  264.287,1374.08 283.185,1374.08 
  "/>
<polyline clip-path="url(#clip720)" style="stroke:#000000; stroke-linecap:butt; stroke-linejoin:round; stroke-width:4; stroke-opacity:1; fill:none" points="
  264.287,1124.36 283.185,1124.36 
  "/>
<polyline clip-path="url(#clip720)" style="stroke:#000000; stroke-linecap:butt; stroke-linejoin:round; stroke-width:4; stroke-opacity:1; fill:none" points="
  264.287,874.65 283.185,874.65 
  "/>
<polyline clip-path="url(#clip720)" style="stroke:#000000; stroke-linecap:butt; stroke-linejoin:round; stroke-width:4; stroke-opacity:1; fill:none" points="
  264.287,624.936 283.185,624.936 
  "/>
<polyline clip-path="url(#clip720)" style="stroke:#000000; stroke-linecap:butt; stroke-linejoin:round; stroke-width:4; stroke-opacity:1; fill:none" points="
  264.287,375.222 283.185,375.222 
  "/>
<polyline clip-path="url(#clip720)" style="stroke:#000000; stroke-linecap:butt; stroke-linejoin:round; stroke-width:4; stroke-opacity:1; fill:none" points="
  264.287,125.508 283.185,125.508 
  "/>
<path clip-path="url(#clip720)" d="M216.343 1359.88 Q212.732 1359.88 210.903 1363.44 Q209.098 1366.98 209.098 1374.11 Q209.098 1381.22 210.903 1384.78 Q212.732 1388.33 216.343 1388.33 Q219.977 1388.33 221.783 1384.78 Q223.611 1381.22 223.611 1374.11 Q223.611 1366.98 221.783 1363.44 Q219.977 1359.88 216.343 1359.88 M216.343 1356.17 Q222.153 1356.17 225.209 1360.78 Q228.287 1365.36 228.287 1374.11 Q228.287 1382.84 225.209 1387.45 Q222.153 1392.03 216.343 1392.03 Q210.533 1392.03 207.454 1387.45 Q204.399 1382.84 204.399 1374.11 Q204.399 1365.36 207.454 1360.78 Q210.533 1356.17 216.343 1356.17 Z" fill="#000000" fill-rule="evenodd" fill-opacity="1" /><path clip-path="url(#clip720)" d="M146.066 1107.08 L164.422 1107.08 L164.422 1111.02 L150.348 1111.02 L150.348 1119.49 Q151.366 1119.14 152.385 1118.98 Q153.403 1118.8 154.422 1118.8 Q160.209 1118.8 163.589 1121.97 Q166.968 1125.14 166.968 1130.56 Q166.968 1136.13 163.496 1139.24 Q160.024 1142.32 153.704 1142.32 Q151.528 1142.32 149.26 1141.95 Q147.015 1141.57 144.607 1140.83 L144.607 1136.13 Q146.691 1137.27 148.913 1137.82 Q151.135 1138.38 153.612 1138.38 Q157.616 1138.38 159.954 1136.27 Q162.292 1134.17 162.292 1130.56 Q162.292 1126.95 159.954 1124.84 Q157.616 1122.73 153.612 1122.73 Q151.737 1122.73 149.862 1123.15 Q148.01 1123.57 146.066 1124.45 L146.066 1107.08 Z" fill="#000000" fill-rule="evenodd" fill-opacity="1" /><path clip-path="url(#clip720)" d="M186.181 1110.16 Q182.57 1110.16 180.741 1113.73 Q178.936 1117.27 178.936 1124.4 Q178.936 1131.51 180.741 1135.07 Q182.57 1138.61 186.181 1138.61 Q189.815 1138.61 191.621 1135.07 Q193.45 1131.51 193.45 1124.4 Q193.45 1117.27 191.621 1113.73 Q189.815 1110.16 186.181 1110.16 M186.181 1106.46 Q191.991 1106.46 195.047 1111.07 Q198.125 1115.65 198.125 1124.4 Q198.125 1133.13 195.047 1137.73 Q191.991 1142.32 186.181 1142.32 Q180.371 1142.32 177.292 1137.73 Q174.237 1133.13 174.237 1124.4 Q174.237 1115.65 177.292 1111.07 Q180.371 1106.46 186.181 1106.46 Z" fill="#000000" fill-rule="evenodd" fill-opacity="1" /><path clip-path="url(#clip720)" d="M216.343 1110.16 Q212.732 1110.16 210.903 1113.73 Q209.098 1117.27 209.098 1124.4 Q209.098 1131.51 210.903 1135.07 Q212.732 1138.61 216.343 1138.61 Q219.977 1138.61 221.783 1135.07 Q223.611 1131.51 223.611 1124.4 Q223.611 1117.27 221.783 1113.73 Q219.977 1110.16 216.343 1110.16 M216.343 1106.46 Q222.153 1106.46 225.209 1111.07 Q228.287 1115.65 228.287 1124.4 Q228.287 1133.13 225.209 1137.73 Q222.153 1142.32 216.343 1142.32 Q210.533 1142.32 207.454 1137.73 Q204.399 1133.13 204.399 1124.4 Q204.399 1115.65 207.454 1111.07 Q210.533 1106.46 216.343 1106.46 Z" fill="#000000" fill-rule="evenodd" fill-opacity="1" /><path clip-path="url(#clip720)" d="M116.668 887.995 L124.306 887.995 L124.306 861.629 L115.996 863.296 L115.996 859.037 L124.26 857.37 L128.936 857.37 L128.936 887.995 L136.575 887.995 L136.575 891.93 L116.668 891.93 L116.668 887.995 Z" fill="#000000" fill-rule="evenodd" fill-opacity="1" /><path clip-path="url(#clip720)" d="M156.019 860.449 Q152.408 860.449 150.579 864.013 Q148.774 867.555 148.774 874.685 Q148.774 881.791 150.579 885.356 Q152.408 888.898 156.019 888.898 Q159.653 888.898 161.459 885.356 Q163.288 881.791 163.288 874.685 Q163.288 867.555 161.459 864.013 Q159.653 860.449 156.019 860.449 M156.019 856.745 Q161.829 856.745 164.885 861.351 Q167.964 865.935 167.964 874.685 Q167.964 883.412 164.885 888.018 Q161.829 892.601 156.019 892.601 Q150.209 892.601 147.13 888.018 Q144.075 883.412 144.075 874.685 Q144.075 865.935 147.13 861.351 Q150.209 856.745 156.019 856.745 Z" fill="#000000" fill-rule="evenodd" fill-opacity="1" /><path clip-path="url(#clip720)" d="M186.181 860.449 Q182.57 860.449 180.741 864.013 Q178.936 867.555 178.936 874.685 Q178.936 881.791 180.741 885.356 Q182.57 888.898 186.181 888.898 Q189.815 888.898 191.621 885.356 Q193.45 881.791 193.45 874.685 Q193.45 867.555 191.621 864.013 Q189.815 860.449 186.181 860.449 M186.181 856.745 Q191.991 856.745 195.047 861.351 Q198.125 865.935 198.125 874.685 Q198.125 883.412 195.047 888.018 Q191.991 892.601 186.181 892.601 Q180.371 892.601 177.292 888.018 Q174.237 883.412 174.237 874.685 Q174.237 865.935 177.292 861.351 Q180.371 856.745 186.181 856.745 Z" fill="#000000" fill-rule="evenodd" fill-opacity="1" /><path clip-path="url(#clip720)" d="M216.343 860.449 Q212.732 860.449 210.903 864.013 Q209.098 867.555 209.098 874.685 Q209.098 881.791 210.903 885.356 Q212.732 888.898 216.343 888.898 Q219.977 888.898 221.783 885.356 Q223.611 881.791 223.611 874.685 Q223.611 867.555 221.783 864.013 Q219.977 860.449 216.343 860.449 M216.343 856.745 Q222.153 856.745 225.209 861.351 Q228.287 865.935 228.287 874.685 Q228.287 883.412 225.209 888.018 Q222.153 892.601 216.343 892.601 Q210.533 892.601 207.454 888.018 Q204.399 883.412 204.399 874.685 Q204.399 865.935 207.454 861.351 Q210.533 856.745 216.343 856.745 Z" fill="#000000" fill-rule="evenodd" fill-opacity="1" /><path clip-path="url(#clip720)" d="M116.668 638.281 L124.306 638.281 L124.306 611.915 L115.996 613.582 L115.996 609.323 L124.26 607.656 L128.936 607.656 L128.936 638.281 L136.575 638.281 L136.575 642.216 L116.668 642.216 L116.668 638.281 Z" fill="#000000" fill-rule="evenodd" fill-opacity="1" /><path clip-path="url(#clip720)" d="M146.066 607.656 L164.422 607.656 L164.422 611.591 L150.348 611.591 L150.348 620.063 Q151.366 619.716 152.385 619.554 Q153.403 619.369 154.422 619.369 Q160.209 619.369 163.589 622.54 Q166.968 625.711 166.968 631.128 Q166.968 636.707 163.496 639.809 Q160.024 642.887 153.704 642.887 Q151.528 642.887 149.26 642.517 Q147.015 642.147 144.607 641.406 L144.607 636.707 Q146.691 637.841 148.913 638.397 Q151.135 638.952 153.612 638.952 Q157.616 638.952 159.954 636.846 Q162.292 634.739 162.292 631.128 Q162.292 627.517 159.954 625.41 Q157.616 623.304 153.612 623.304 Q151.737 623.304 149.862 623.721 Q148.01 624.137 146.066 625.017 L146.066 607.656 Z" fill="#000000" fill-rule="evenodd" fill-opacity="1" /><path clip-path="url(#clip720)" d="M186.181 610.735 Q182.57 610.735 180.741 614.299 Q178.936 617.841 178.936 624.971 Q178.936 632.077 180.741 635.642 Q182.57 639.184 186.181 639.184 Q189.815 639.184 191.621 635.642 Q193.45 632.077 193.45 624.971 Q193.45 617.841 191.621 614.299 Q189.815 610.735 186.181 610.735 M186.181 607.031 Q191.991 607.031 195.047 611.637 Q198.125 616.221 198.125 624.971 Q198.125 633.697 195.047 638.304 Q191.991 642.887 186.181 642.887 Q180.371 642.887 177.292 638.304 Q174.237 633.697 174.237 624.971 Q174.237 616.221 177.292 611.637 Q180.371 607.031 186.181 607.031 Z" fill="#000000" fill-rule="evenodd" fill-opacity="1" /><path clip-path="url(#clip720)" d="M216.343 610.735 Q212.732 610.735 210.903 614.299 Q209.098 617.841 209.098 624.971 Q209.098 632.077 210.903 635.642 Q212.732 639.184 216.343 639.184 Q219.977 639.184 221.783 635.642 Q223.611 632.077 223.611 624.971 Q223.611 617.841 221.783 614.299 Q219.977 610.735 216.343 610.735 M216.343 607.031 Q222.153 607.031 225.209 611.637 Q228.287 616.221 228.287 624.971 Q228.287 633.697 225.209 638.304 Q222.153 642.887 216.343 642.887 Q210.533 642.887 207.454 638.304 Q204.399 633.697 204.399 624.971 Q204.399 616.221 207.454 611.637 Q210.533 607.031 216.343 607.031 Z" fill="#000000" fill-rule="evenodd" fill-opacity="1" /><path clip-path="url(#clip720)" d="M119.885 388.567 L136.204 388.567 L136.204 392.502 L114.26 392.502 L114.26 388.567 Q116.922 385.812 121.505 381.183 Q126.112 376.53 127.292 375.187 Q129.538 372.664 130.417 370.928 Q131.32 369.169 131.32 367.479 Q131.32 364.724 129.376 362.988 Q127.455 361.252 124.353 361.252 Q122.154 361.252 119.7 362.016 Q117.269 362.78 114.492 364.331 L114.492 359.609 Q117.316 358.474 119.769 357.896 Q122.223 357.317 124.26 357.317 Q129.63 357.317 132.825 360.002 Q136.019 362.687 136.019 367.178 Q136.019 369.308 135.209 371.229 Q134.422 373.127 132.316 375.72 Q131.737 376.391 128.635 379.608 Q125.533 382.803 119.885 388.567 Z" fill="#000000" fill-rule="evenodd" fill-opacity="1" /><path clip-path="url(#clip720)" d="M156.019 361.021 Q152.408 361.021 150.579 364.585 Q148.774 368.127 148.774 375.257 Q148.774 382.363 150.579 385.928 Q152.408 389.469 156.019 389.469 Q159.653 389.469 161.459 385.928 Q163.288 382.363 163.288 375.257 Q163.288 368.127 161.459 364.585 Q159.653 361.021 156.019 361.021 M156.019 357.317 Q161.829 357.317 164.885 361.923 Q167.964 366.507 167.964 375.257 Q167.964 383.983 164.885 388.59 Q161.829 393.173 156.019 393.173 Q150.209 393.173 147.13 388.59 Q144.075 383.983 144.075 375.257 Q144.075 366.507 147.13 361.923 Q150.209 357.317 156.019 357.317 Z" fill="#000000" fill-rule="evenodd" fill-opacity="1" /><path clip-path="url(#clip720)" d="M186.181 361.021 Q182.57 361.021 180.741 364.585 Q178.936 368.127 178.936 375.257 Q178.936 382.363 180.741 385.928 Q182.57 389.469 186.181 389.469 Q189.815 389.469 191.621 385.928 Q193.45 382.363 193.45 375.257 Q193.45 368.127 191.621 364.585 Q189.815 361.021 186.181 361.021 M186.181 357.317 Q191.991 357.317 195.047 361.923 Q198.125 366.507 198.125 375.257 Q198.125 383.983 195.047 388.59 Q191.991 393.173 186.181 393.173 Q180.371 393.173 177.292 388.59 Q174.237 383.983 174.237 375.257 Q174.237 366.507 177.292 361.923 Q180.371 357.317 186.181 357.317 Z" fill="#000000" fill-rule="evenodd" fill-opacity="1" /><path clip-path="url(#clip720)" d="M216.343 361.021 Q212.732 361.021 210.903 364.585 Q209.098 368.127 209.098 375.257 Q209.098 382.363 210.903 385.928 Q212.732 389.469 216.343 389.469 Q219.977 389.469 221.783 385.928 Q223.611 382.363 223.611 375.257 Q223.611 368.127 221.783 364.585 Q219.977 361.021 216.343 361.021 M216.343 357.317 Q222.153 357.317 225.209 361.923 Q228.287 366.507 228.287 375.257 Q228.287 383.983 225.209 388.59 Q222.153 393.173 216.343 393.173 Q210.533 393.173 207.454 388.59 Q204.399 383.983 204.399 375.257 Q204.399 366.507 207.454 361.923 Q210.533 357.317 216.343 357.317 Z" fill="#000000" fill-rule="evenodd" fill-opacity="1" /><path clip-path="url(#clip720)" d="M119.885 138.853 L136.204 138.853 L136.204 142.788 L114.26 142.788 L114.26 138.853 Q116.922 136.098 121.505 131.468 Q126.112 126.816 127.292 125.473 Q129.538 122.95 130.417 121.214 Q131.32 119.455 131.32 117.765 Q131.32 115.01 129.376 113.274 Q127.455 111.538 124.353 111.538 Q122.154 111.538 119.7 112.302 Q117.269 113.066 114.492 114.617 L114.492 109.894 Q117.316 108.76 119.769 108.182 Q122.223 107.603 124.26 107.603 Q129.63 107.603 132.825 110.288 Q136.019 112.973 136.019 117.464 Q136.019 119.594 135.209 121.515 Q134.422 123.413 132.316 126.006 Q131.737 126.677 128.635 129.894 Q125.533 133.089 119.885 138.853 Z" fill="#000000" fill-rule="evenodd" fill-opacity="1" /><path clip-path="url(#clip720)" d="M146.066 108.228 L164.422 108.228 L164.422 112.163 L150.348 112.163 L150.348 120.635 Q151.366 120.288 152.385 120.126 Q153.403 119.941 154.422 119.941 Q160.209 119.941 163.589 123.112 Q166.968 126.283 166.968 131.7 Q166.968 137.279 163.496 140.38 Q160.024 143.459 153.704 143.459 Q151.528 143.459 149.26 143.089 Q147.015 142.718 144.607 141.978 L144.607 137.279 Q146.691 138.413 148.913 138.968 Q151.135 139.524 153.612 139.524 Q157.616 139.524 159.954 137.417 Q162.292 135.311 162.292 131.7 Q162.292 128.089 159.954 125.982 Q157.616 123.876 153.612 123.876 Q151.737 123.876 149.862 124.293 Q148.01 124.709 146.066 125.589 L146.066 108.228 Z" fill="#000000" fill-rule="evenodd" fill-opacity="1" /><path clip-path="url(#clip720)" d="M186.181 111.307 Q182.57 111.307 180.741 114.871 Q178.936 118.413 178.936 125.543 Q178.936 132.649 180.741 136.214 Q182.57 139.755 186.181 139.755 Q189.815 139.755 191.621 136.214 Q193.45 132.649 193.45 125.543 Q193.45 118.413 191.621 114.871 Q189.815 111.307 186.181 111.307 M186.181 107.603 Q191.991 107.603 195.047 112.209 Q198.125 116.793 198.125 125.543 Q198.125 134.269 195.047 138.876 Q191.991 143.459 186.181 143.459 Q180.371 143.459 177.292 138.876 Q174.237 134.269 174.237 125.543 Q174.237 116.793 177.292 112.209 Q180.371 107.603 186.181 107.603 Z" fill="#000000" fill-rule="evenodd" fill-opacity="1" /><path clip-path="url(#clip720)" d="M216.343 111.307 Q212.732 111.307 210.903 114.871 Q209.098 118.413 209.098 125.543 Q209.098 132.649 210.903 136.214 Q212.732 139.755 216.343 139.755 Q219.977 139.755 221.783 136.214 Q223.611 132.649 223.611 125.543 Q223.611 118.413 221.783 114.871 Q219.977 111.307 216.343 111.307 M216.343 107.603 Q222.153 107.603 225.209 112.209 Q228.287 116.793 228.287 125.543 Q228.287 134.269 225.209 138.876 Q222.153 143.459 216.343 143.459 Q210.533 143.459 207.454 138.876 Q204.399 134.269 204.399 125.543 Q204.399 116.793 207.454 112.209 Q210.533 107.603 216.343 107.603 Z" fill="#000000" fill-rule="evenodd" fill-opacity="1" /><path clip-path="url(#clip720)" d="M35.1993 829.203 Q31.2526 827.007 29.3747 823.951 Q27.4968 820.896 27.4968 816.758 Q27.4968 811.188 31.4117 808.164 Q35.2948 805.141 42.4881 805.141 L64.0042 805.141 L64.0042 811.029 L42.679 811.029 Q37.5546 811.029 35.072 812.843 Q32.5894 814.657 32.5894 818.381 Q32.5894 822.933 35.6131 825.574 Q38.6368 828.216 43.8567 828.216 L64.0042 828.216 L64.0042 834.105 L42.679 834.105 Q37.5228 834.105 35.072 835.919 Q32.5894 837.733 32.5894 841.521 Q32.5894 846.008 35.6449 848.65 Q38.6686 851.292 43.8567 851.292 L64.0042 851.292 L64.0042 857.18 L28.3562 857.18 L28.3562 851.292 L33.8944 851.292 Q30.616 849.287 29.0564 846.486 Q27.4968 843.685 27.4968 839.834 Q27.4968 835.951 29.4702 833.245 Q31.4436 830.508 35.1993 829.203 Z" fill="#000000" fill-rule="evenodd" fill-opacity="1" /><path clip-path="url(#clip720)" d="M28.3562 793.459 L28.3562 787.603 L64.0042 787.603 L64.0042 793.459 L28.3562 793.459 M14.479 793.459 L14.479 787.603 L21.895 787.603 L21.895 793.459 L14.479 793.459 Z" fill="#000000" fill-rule="evenodd" fill-opacity="1" /><path clip-path="url(#clip720)" d="M42.4881 745.717 L64.0042 745.717 L64.0042 751.573 L42.679 751.573 Q37.6183 751.573 35.1038 753.547 Q32.5894 755.52 32.5894 759.467 Q32.5894 764.209 35.6131 766.946 Q38.6368 769.684 43.8567 769.684 L64.0042 769.684 L64.0042 775.572 L28.3562 775.572 L28.3562 769.684 L33.8944 769.684 Q30.6797 767.583 29.0883 764.75 Q27.4968 761.886 27.4968 758.162 Q27.4968 752.019 31.3163 748.868 Q35.1038 745.717 42.4881 745.717 Z" fill="#000000" fill-rule="evenodd" fill-opacity="1" /><path clip-path="url(#clip720)" d="M74.8259 706.95 L79.3773 706.95 L79.3773 740.815 L74.8259 740.815 L74.8259 706.95 Z" fill="#000000" fill-rule="evenodd" fill-opacity="1" /><path clip-path="url(#clip720)" d="M33.7671 677.986 L14.479 677.986 L14.479 672.129 L64.0042 672.129 L64.0042 677.986 L58.657 677.986 Q61.8398 679.832 63.3994 682.664 Q64.9272 685.465 64.9272 689.412 Q64.9272 695.873 59.771 699.947 Q54.6147 703.989 46.212 703.989 Q37.8093 703.989 32.6531 699.947 Q27.4968 695.873 27.4968 689.412 Q27.4968 685.465 29.0564 682.664 Q30.5842 679.832 33.7671 677.986 M46.212 697.942 Q52.6732 697.942 56.3653 695.3 Q60.0256 692.627 60.0256 687.98 Q60.0256 683.333 56.3653 680.659 Q52.6732 677.986 46.212 677.986 Q39.7508 677.986 36.0905 680.659 Q32.3984 683.333 32.3984 687.98 Q32.3984 692.627 36.0905 695.3 Q39.7508 697.942 46.212 697.942 Z" fill="#000000" fill-rule="evenodd" fill-opacity="1" /><path clip-path="url(#clip720)" d="M28.3562 660.066 L28.3562 654.21 L64.0042 654.21 L64.0042 660.066 L28.3562 660.066 M14.479 660.066 L14.479 654.21 L21.895 654.21 L21.895 660.066 L14.479 660.066 Z" fill="#000000" fill-rule="evenodd" fill-opacity="1" /><path clip-path="url(#clip720)" d="M14.479 623.909 L19.3487 623.909 L19.3487 629.511 Q19.3487 632.662 20.6219 633.903 Q21.895 635.113 25.2052 635.113 L28.3562 635.113 L28.3562 625.468 L32.9077 625.468 L32.9077 635.113 L64.0042 635.113 L64.0042 641.001 L32.9077 641.001 L32.9077 646.603 L28.3562 646.603 L28.3562 641.001 L25.8736 641.001 Q19.9216 641.001 17.2162 638.232 Q14.479 635.463 14.479 629.447 L14.479 623.909 Z" fill="#000000" fill-rule="evenodd" fill-opacity="1" /><path clip-path="url(#clip720)" d="M14.479 600.961 L19.3487 600.961 L19.3487 606.562 Q19.3487 609.713 20.6219 610.955 Q21.895 612.164 25.2052 612.164 L28.3562 612.164 L28.3562 602.52 L32.9077 602.52 L32.9077 612.164 L64.0042 612.164 L64.0042 618.052 L32.9077 618.052 L32.9077 623.654 L28.3562 623.654 L28.3562 618.052 L25.8736 618.052 Q19.9216 618.052 17.2162 615.283 Q14.479 612.514 14.479 606.499 L14.479 600.961 Z" fill="#000000" fill-rule="evenodd" fill-opacity="1" /><polyline clip-path="url(#clip722)" style="stroke:#009af9; stroke-linecap:butt; stroke-linejoin:round; stroke-width:20; stroke-opacity:1; fill:none" stroke-dasharray="80, 50" points="
  323.395,1242.12 388.427,1255.19 445.789,1267.41 497.102,1278.82 543.519,1289.43 585.895,1299.27 624.877,1308.36 660.969,1339.26 694.57,1324.71 726.001,1350.54 
  755.527,1339.09 783.364,1359.11 809.695,1350.14 834.676,1365.16 858.438,1371.4 881.094,1368.93 923.47,1372.3 962.452,1371.2 980.832,1372.06 998.544,1370.93 
  1032.14,1370.56 1063.58,1369.34 1078.56,1365.24 1093.1,1366.96 1107.22,1346.65 1120.94,1363.62 1147.27,1359.23 1159.92,1349.78 1172.25,1353.81 1196.01,1339.19 
  1218.67,1321.93 1229.61,1326.77 1261.04,1312.62 1271.09,1284.01 1280.93,1290.17 1290.57,1296.84 1300.03,1284.97 1318.41,1279.51 1327.34,1265.94 1336.12,1263.7 
  1344.74,1260.72 1369.72,1241.11 1393.48,1220.4 1401.15,1216.53 1408.7,1211.09 1416.14,1205.53 1430.68,1190.93 1444.79,1184.56 1458.51,1175.32 1478.39,1149.35 
  1484.84,1136.4 1491.21,1153.96 1497.49,1135.5 1509.82,1138.53 1515.87,1130.83 1533.59,1125.07 1539.35,1082.32 1556.24,1103.83 1567.19,1089.52 1572.57,1097.89 
  1593.52,1011.3 1598.62,1071.3 1608.66,1072.39 1613.6,1050.86 1618.5,1038.1 1628.14,978.115 1637.6,1040.88 1642.26,1048.49 1655.98,1014.82 1664.92,995.613 
  1673.69,1026.08 1682.31,893.896 1694.96,981.28 1703.22,1005.07 1707.29,985.949 1711.33,938.575 1731.05,985.355 1738.72,961.172 1746.28,919.675 1753.71,895.937 
  1757.39,966.836 1764.66,921.056 1768.25,938.009 1782.37,949.423 1792.69,856.568 1796.09,916.331 1815.97,854.416 1822.42,896.017 1825.61,868.816 1828.78,820.191 
  1835.07,792.378 1847.4,876.955 1853.45,845.279 1862.39,786.535 1871.16,753.612 1874.05,727.455 1876.92,798.107 1879.78,823.269 1893.82,755.346 1904.76,802.655 
  1910.14,686.436 1923.34,726.39 1931.09,749.214 1936.19,684.744 1943.74,648.657 1946.23,618.954 1951.18,699.457 1956.07,727.141 1965.72,654.082 1975.18,613.787 
  1977.51,674.357 1979.84,579.299 1993.56,625.608 2002.49,650.92 2004.7,581.527 2011.27,542.76 2013.44,515.77 2019.89,599.111 2032.54,551.615 2040.79,511.516 
  2044.87,574.403 2058.87,523.816 2068.63,483.097 2074.39,450.033 2076.3,422.486 2083.85,497.926 2094.96,456.801 2102.23,421.03 2105.82,390.438 2119.94,432.406 
  2128.56,394.229 2133.66,360.946 2135.35,332.736 2153.54,369.394 2159.99,333.726 2163.19,302.84 2184.97,308.531 2189.52,275.277 2191.02,246.687 2214.5,249.792 
  2217.36,218.85 2242.34,193.134 2243.69,164.397 2268.67,138.504 2293.65,85.838 
  "/>
<path clip-path="url(#clip720)" d="
M1998.66 196.379 L2283.14 196.379 L2283.14 92.6992 L1998.66 92.6992  Z
  " fill="#ffffff" fill-rule="evenodd" fill-opacity="1"/>
<polyline clip-path="url(#clip720)" style="stroke:#000000; stroke-linecap:butt; stroke-linejoin:round; stroke-width:4; stroke-opacity:1; fill:none" points="
  1998.66,196.379 2283.14,196.379 2283.14,92.6992 1998.66,92.6992 1998.66,196.379 
  "/>
<polyline clip-path="url(#clip720)" style="stroke:#009af9; stroke-linecap:butt; stroke-linejoin:round; stroke-width:4; stroke-opacity:1; fill:none" stroke-dasharray="16, 10" points="
  2021.86,144.539 2161.09,144.539 
  "/>
<path clip-path="url(#clip720)" d="M2198.14 164.227 Q2196.34 168.856 2194.62 170.268 Q2192.91 171.68 2190.04 171.68 L2186.64 171.68 L2186.64 168.115 L2189.14 168.115 Q2190.9 168.115 2191.87 167.282 Q2192.84 166.449 2194.02 163.347 L2194.79 161.403 L2184.3 135.893 L2188.81 135.893 L2196.92 156.171 L2205.02 135.893 L2209.53 135.893 L2198.14 164.227 Z" fill="#000000" fill-rule="evenodd" fill-opacity="1" /><path clip-path="url(#clip720)" d="M2216.82 157.884 L2224.46 157.884 L2224.46 131.518 L2216.15 133.185 L2216.15 128.926 L2224.42 127.259 L2229.09 127.259 L2229.09 157.884 L2236.73 157.884 L2236.73 161.819 L2216.82 161.819 L2216.82 157.884 Z" fill="#000000" fill-rule="evenodd" fill-opacity="1" /></svg>
