<?xml version="1.0" encoding="utf-8"?>
<svg xmlns="http://www.w3.org/2000/svg" xmlns:xlink="http://www.w3.org/1999/xlink" width="600" height="400" viewBox="0 0 2400 1600">
<defs>
  <clipPath id="clip970">
    <rect x="0" y="0" width="2400" height="1600"/>
  </clipPath>
</defs>
<path clip-path="url(#clip970)" d="
M0 1600 L2400 1600 L2400 0 L0 0  Z
  " fill="#ffffff" fill-rule="evenodd" fill-opacity="1"/>
<defs>
  <clipPath id="clip971">
    <rect x="480" y="0" width="1681" height="1600"/>
  </clipPath>
</defs>
<path clip-path="url(#clip970)" d="
M238.431 1410.9 L2352.76 1410.9 L2352.76 47.2441 L238.431 47.2441  Z
  " fill="#ffffff" fill-rule="evenodd" fill-opacity="1"/>
<defs>
  <clipPath id="clip972">
    <rect x="238" y="47" width="2115" height="1365"/>
  </clipPath>
</defs>
<polyline clip-path="url(#clip972)" style="stroke:#000000; stroke-width:2; stroke-opacity:0.1; fill:none" points="
  298.27,1410.9 298.27,47.2441 
  "/>
<polyline clip-path="url(#clip972)" style="stroke:#000000; stroke-width:2; stroke-opacity:0.1; fill:none" points="
  796.926,1410.9 796.926,47.2441 
  "/>
<polyline clip-path="url(#clip972)" style="stroke:#000000; stroke-width:2; stroke-opacity:0.1; fill:none" points="
  1295.58,1410.9 1295.58,47.2441 
  "/>
<polyline clip-path="url(#clip972)" style="stroke:#000000; stroke-width:2; stroke-opacity:0.1; fill:none" points="
  1794.24,1410.9 1794.24,47.2441 
  "/>
<polyline clip-path="url(#clip972)" style="stroke:#000000; stroke-width:2; stroke-opacity:0.1; fill:none" points="
  2292.89,1410.9 2292.89,47.2441 
  "/>
<polyline clip-path="url(#clip970)" style="stroke:#000000; stroke-width:4; stroke-opacity:1; fill:none" points="
  238.431,1410.9 2352.76,1410.9 
  "/>
<polyline clip-path="url(#clip970)" style="stroke:#000000; stroke-width:4; stroke-opacity:1; fill:none" points="
  298.27,1410.9 298.27,1394.53 
  "/>
<polyline clip-path="url(#clip970)" style="stroke:#000000; stroke-width:4; stroke-opacity:1; fill:none" points="
  796.926,1410.9 796.926,1394.53 
  "/>
<polyline clip-path="url(#clip970)" style="stroke:#000000; stroke-width:4; stroke-opacity:1; fill:none" points="
  1295.58,1410.9 1295.58,1394.53 
  "/>
<polyline clip-path="url(#clip970)" style="stroke:#000000; stroke-width:4; stroke-opacity:1; fill:none" points="
  1794.24,1410.9 1794.24,1394.53 
  "/>
<polyline clip-path="url(#clip970)" style="stroke:#000000; stroke-width:4; stroke-opacity:1; fill:none" points="
  2292.89,1410.9 2292.89,1394.53 
  "/>
<path clip-path="url(#clip970)" d="M 0 0 M251.918 1489.17 L259.557 1489.17 L259.557 1462.8 L251.247 1464.47 L251.247 1460.21 L259.51 1458.54 L264.186 1458.54 L264.186 1489.17 L271.825 1489.17 L271.825 1493.1 L251.918 1493.1 L251.918 1489.17 Z" fill="#000000" fill-rule="evenodd" fill-opacity="1" /><path clip-path="url(#clip970)" d="M 0 0 M286.895 1461.62 Q283.283 1461.62 281.455 1465.19 Q279.649 1468.73 279.649 1475.86 Q279.649 1482.97 281.455 1486.53 Q283.283 1490.07 286.895 1490.07 Q290.529 1490.07 292.334 1486.53 Q294.163 1482.97 294.163 1475.86 Q294.163 1468.73 292.334 1465.19 Q290.529 1461.62 286.895 1461.62 M286.895 1457.92 Q292.705 1457.92 295.76 1462.53 Q298.839 1467.11 298.839 1475.86 Q298.839 1484.59 295.76 1489.19 Q292.705 1493.78 286.895 1493.78 Q281.084 1493.78 278.006 1489.19 Q274.95 1484.59 274.95 1475.86 Q274.95 1467.11 278.006 1462.53 Q281.084 1457.92 286.895 1457.92 Z" fill="#000000" fill-rule="evenodd" fill-opacity="1" /><path clip-path="url(#clip970)" d="M 0 0 M298.839 1452.02 L322.95 1452.02 L322.95 1455.22 L298.839 1455.22 L298.839 1452.02 Z" fill="#000000" fill-rule="evenodd" fill-opacity="1" /><path clip-path="url(#clip970)" d="M 0 0 M337.508 1440.92 L327.916 1455.91 L337.508 1455.91 L337.508 1440.92 M336.511 1437.61 L341.288 1437.61 L341.288 1455.91 L345.294 1455.91 L345.294 1459.07 L341.288 1459.07 L341.288 1465.69 L337.508 1465.69 L337.508 1459.07 L324.831 1459.07 L324.831 1455.41 L336.511 1437.61 Z" fill="#000000" fill-rule="evenodd" fill-opacity="1" /><path clip-path="url(#clip970)" d="M 0 0 M751.035 1489.17 L758.674 1489.17 L758.674 1462.8 L750.364 1464.47 L750.364 1460.21 L758.627 1458.54 L763.303 1458.54 L763.303 1489.17 L770.942 1489.17 L770.942 1493.1 L751.035 1493.1 L751.035 1489.17 Z" fill="#000000" fill-rule="evenodd" fill-opacity="1" /><path clip-path="url(#clip970)" d="M 0 0 M786.011 1461.62 Q782.4 1461.62 780.572 1465.19 Q778.766 1468.73 778.766 1475.86 Q778.766 1482.97 780.572 1486.53 Q782.4 1490.07 786.011 1490.07 Q789.646 1490.07 791.451 1486.53 Q793.28 1482.97 793.28 1475.86 Q793.28 1468.73 791.451 1465.19 Q789.646 1461.62 786.011 1461.62 M786.011 1457.92 Q791.822 1457.92 794.877 1462.53 Q797.956 1467.11 797.956 1475.86 Q797.956 1484.59 794.877 1489.19 Q791.822 1493.78 786.011 1493.78 Q780.201 1493.78 777.123 1489.19 Q774.067 1484.59 774.067 1475.86 Q774.067 1467.11 777.123 1462.53 Q780.201 1457.92 786.011 1457.92 Z" fill="#000000" fill-rule="evenodd" fill-opacity="1" /><path clip-path="url(#clip970)" d="M 0 0 M797.956 1452.02 L822.067 1452.02 L822.067 1455.22 L797.956 1455.22 L797.956 1452.02 Z" fill="#000000" fill-rule="evenodd" fill-opacity="1" /><path clip-path="url(#clip970)" d="M 0 0 M837.697 1450.55 Q840.424 1451.14 841.947 1452.98 Q843.489 1454.82 843.489 1457.53 Q843.489 1461.69 840.631 1463.96 Q837.772 1466.24 832.506 1466.24 Q830.738 1466.24 828.857 1465.88 Q826.995 1465.54 825.001 1464.85 L825.001 1461.18 Q826.581 1462.1 828.462 1462.57 Q830.343 1463.04 832.393 1463.04 Q835.966 1463.04 837.828 1461.63 Q839.709 1460.22 839.709 1457.53 Q839.709 1455.05 837.96 1453.66 Q836.23 1452.25 833.126 1452.25 L829.854 1452.25 L829.854 1449.12 L833.277 1449.12 Q836.079 1449.12 837.565 1448.01 Q839.051 1446.89 839.051 1444.78 Q839.051 1442.62 837.509 1441.47 Q835.985 1440.3 833.126 1440.3 Q831.565 1440.3 829.779 1440.64 Q827.992 1440.98 825.848 1441.69 L825.848 1438.31 Q828.011 1437.71 829.891 1437.41 Q831.791 1437.11 833.465 1437.11 Q837.791 1437.11 840.311 1439.08 Q842.831 1441.04 842.831 1444.38 Q842.831 1446.72 841.496 1448.33 Q840.16 1449.93 837.697 1450.55 Z" fill="#000000" fill-rule="evenodd" fill-opacity="1" /><path clip-path="url(#clip970)" d="M 0 0 M1250.08 1489.17 L1257.72 1489.17 L1257.72 1462.8 L1249.41 1464.47 L1249.41 1460.21 L1257.67 1458.54 L1262.34 1458.54 L1262.34 1489.17 L1269.98 1489.17 L1269.98 1493.1 L1250.08 1493.1 L1250.08 1489.17 Z" fill="#000000" fill-rule="evenodd" fill-opacity="1" /><path clip-path="url(#clip970)" d="M 0 0 M1285.05 1461.62 Q1281.44 1461.62 1279.61 1465.19 Q1277.81 1468.73 1277.81 1475.86 Q1277.81 1482.97 1279.61 1486.53 Q1281.44 1490.07 1285.05 1490.07 Q1288.69 1490.07 1290.49 1486.53 Q1292.32 1482.97 1292.32 1475.86 Q1292.32 1468.73 1290.49 1465.19 Q1288.69 1461.62 1285.05 1461.62 M1285.05 1457.92 Q1290.86 1457.92 1293.92 1462.53 Q1297 1467.11 1297 1475.86 Q1297 1484.59 1293.92 1489.19 Q1290.86 1493.78 1285.05 1493.78 Q1279.24 1493.78 1276.16 1489.19 Q1273.11 1484.59 1273.11 1475.86 Q1273.11 1467.11 1276.16 1462.53 Q1279.24 1457.92 1285.05 1457.92 Z" fill="#000000" fill-rule="evenodd" fill-opacity="1" /><path clip-path="url(#clip970)" d="M 0 0 M1297 1452.02 L1321.11 1452.02 L1321.11 1455.22 L1297 1455.22 L1297 1452.02 Z" fill="#000000" fill-rule="evenodd" fill-opacity="1" /><path clip-path="url(#clip970)" d="M 0 0 M1328.5 1462.5 L1341.76 1462.5 L1341.76 1465.69 L1323.93 1465.69 L1323.93 1462.5 Q1326.09 1460.26 1329.82 1456.5 Q1333.56 1452.72 1334.52 1451.63 Q1336.34 1449.58 1337.06 1448.16 Q1337.79 1446.74 1337.79 1445.36 Q1337.79 1443.12 1336.21 1441.71 Q1334.65 1440.3 1332.13 1440.3 Q1330.34 1440.3 1328.35 1440.92 Q1326.38 1441.54 1324.12 1442.8 L1324.12 1438.97 Q1326.41 1438.05 1328.41 1437.58 Q1330.4 1437.11 1332.06 1437.11 Q1336.42 1437.11 1339.01 1439.29 Q1341.61 1441.47 1341.61 1445.12 Q1341.61 1446.85 1340.95 1448.41 Q1340.31 1449.95 1338.6 1452.06 Q1338.13 1452.6 1335.61 1455.22 Q1333.09 1457.81 1328.5 1462.5 Z" fill="#000000" fill-rule="evenodd" fill-opacity="1" /><path clip-path="url(#clip970)" d="M 0 0 M1748.58 1489.17 L1756.22 1489.17 L1756.22 1462.8 L1747.91 1464.47 L1747.91 1460.21 L1756.17 1458.54 L1760.85 1458.54 L1760.85 1489.17 L1768.49 1489.17 L1768.49 1493.1 L1748.58 1493.1 L1748.58 1489.17 Z" fill="#000000" fill-rule="evenodd" fill-opacity="1" /><path clip-path="url(#clip970)" d="M 0 0 M1783.56 1461.62 Q1779.95 1461.62 1778.12 1465.19 Q1776.31 1468.73 1776.31 1475.86 Q1776.31 1482.97 1778.12 1486.53 Q1779.95 1490.07 1783.56 1490.07 Q1787.19 1490.07 1789 1486.53 Q1790.83 1482.97 1790.83 1475.86 Q1790.83 1468.73 1789 1465.19 Q1787.19 1461.62 1783.56 1461.62 M1783.56 1457.92 Q1789.37 1457.92 1792.42 1462.53 Q1795.5 1467.11 1795.5 1475.86 Q1795.5 1484.59 1792.42 1489.19 Q1789.37 1493.78 1783.56 1493.78 Q1777.75 1493.78 1774.67 1489.19 Q1771.61 1484.59 1771.61 1475.86 Q1771.61 1467.11 1774.67 1462.53 Q1777.75 1457.92 1783.56 1457.92 Z" fill="#000000" fill-rule="evenodd" fill-opacity="1" /><path clip-path="url(#clip970)" d="M 0 0 M1795.5 1452.02 L1819.61 1452.02 L1819.61 1455.22 L1795.5 1455.22 L1795.5 1452.02 Z" fill="#000000" fill-rule="evenodd" fill-opacity="1" /><path clip-path="url(#clip970)" d="M 0 0 M1824.39 1462.5 L1830.6 1462.5 L1830.6 1441.07 L1823.85 1442.43 L1823.85 1438.97 L1830.56 1437.61 L1834.36 1437.61 L1834.36 1462.5 L1840.57 1462.5 L1840.57 1465.69 L1824.39 1465.69 L1824.39 1462.5 Z" fill="#000000" fill-rule="evenodd" fill-opacity="1" /><path clip-path="url(#clip970)" d="M 0 0 M2260.07 1489.17 L2267.7 1489.17 L2267.7 1462.8 L2259.39 1464.47 L2259.39 1460.21 L2267.66 1458.54 L2272.33 1458.54 L2272.33 1489.17 L2279.97 1489.17 L2279.97 1493.1 L2260.07 1493.1 L2260.07 1489.17 Z" fill="#000000" fill-rule="evenodd" fill-opacity="1" /><path clip-path="url(#clip970)" d="M 0 0 M2295.04 1461.62 Q2291.43 1461.62 2289.6 1465.19 Q2287.8 1468.73 2287.8 1475.86 Q2287.8 1482.97 2289.6 1486.53 Q2291.43 1490.07 2295.04 1490.07 Q2298.68 1490.07 2300.48 1486.53 Q2302.31 1482.97 2302.31 1475.86 Q2302.31 1468.73 2300.48 1465.19 Q2298.68 1461.62 2295.04 1461.62 M2295.04 1457.92 Q2300.85 1457.92 2303.91 1462.53 Q2306.99 1467.11 2306.99 1475.86 Q2306.99 1484.59 2303.91 1489.19 Q2300.85 1493.78 2295.04 1493.78 Q2289.23 1493.78 2286.15 1489.19 Q2283.1 1484.59 2283.1 1475.86 Q2283.1 1467.11 2286.15 1462.53 Q2289.23 1457.92 2295.04 1457.92 Z" fill="#000000" fill-rule="evenodd" fill-opacity="1" /><path clip-path="url(#clip970)" d="M 0 0 M2316.69 1440.11 Q2313.76 1440.11 2312.27 1443.01 Q2310.8 1445.89 2310.8 1451.68 Q2310.8 1457.46 2312.27 1460.35 Q2313.76 1463.23 2316.69 1463.23 Q2319.64 1463.23 2321.11 1460.35 Q2322.6 1457.46 2322.6 1451.68 Q2322.6 1445.89 2321.11 1443.01 Q2319.64 1440.11 2316.69 1440.11 M2316.69 1437.11 Q2321.41 1437.11 2323.89 1440.85 Q2326.4 1444.57 2326.4 1451.68 Q2326.4 1458.77 2323.89 1462.51 Q2321.41 1466.24 2316.69 1466.24 Q2311.97 1466.24 2309.47 1462.51 Q2306.99 1458.77 2306.99 1451.68 Q2306.99 1444.57 2309.47 1440.85 Q2311.97 1437.11 2316.69 1437.11 Z" fill="#000000" fill-rule="evenodd" fill-opacity="1" /><path clip-path="url(#clip970)" d="M 0 0 M1220.81 1512.66 L1226.7 1512.66 L1226.7 1541.91 L1244.17 1526.54 L1251.65 1526.54 L1232.75 1543.22 L1252.45 1562.19 L1244.81 1562.19 L1226.7 1544.78 L1226.7 1562.19 L1220.81 1562.19 L1220.81 1512.66 Z" fill="#000000" fill-rule="evenodd" fill-opacity="1" /><path clip-path="url(#clip970)" d="M 0 0 M1285.68 1573.01 L1285.68 1577.56 L1251.81 1577.56 L1251.81 1573.01 L1285.68 1573.01 Z" fill="#000000" fill-rule="evenodd" fill-opacity="1" /><path clip-path="url(#clip970)" d="M 0 0 M1305.64 1530.64 Q1300.92 1530.64 1298.19 1534.34 Q1295.45 1538 1295.45 1544.39 Q1295.45 1550.79 1298.16 1554.48 Q1300.89 1558.14 1305.64 1558.14 Q1310.31 1558.14 1313.05 1554.45 Q1315.79 1550.76 1315.79 1544.39 Q1315.79 1538.06 1313.05 1534.37 Q1310.31 1530.64 1305.64 1530.64 M1305.64 1525.68 Q1313.27 1525.68 1317.63 1530.64 Q1322 1535.61 1322 1544.39 Q1322 1553.15 1317.63 1558.14 Q1313.27 1563.11 1305.64 1563.11 Q1297.96 1563.11 1293.6 1558.14 Q1289.28 1553.15 1289.28 1544.39 Q1289.28 1535.61 1293.6 1530.64 Q1297.96 1525.68 1305.64 1525.68 Z" fill="#000000" fill-rule="evenodd" fill-opacity="1" /><path clip-path="url(#clip970)" d="M 0 0 M1346.18 1512.66 L1346.18 1517.53 L1340.58 1517.53 Q1337.43 1517.53 1336.19 1518.8 Q1334.98 1520.08 1334.98 1523.39 L1334.98 1526.54 L1344.63 1526.54 L1344.63 1531.09 L1334.98 1531.09 L1334.98 1562.19 L1329.09 1562.19 L1329.09 1531.09 L1323.49 1531.09 L1323.49 1526.54 L1329.09 1526.54 L1329.09 1524.05 Q1329.09 1518.1 1331.86 1515.4 Q1334.63 1512.66 1340.65 1512.66 L1346.18 1512.66 Z" fill="#000000" fill-rule="evenodd" fill-opacity="1" /><path clip-path="url(#clip970)" d="M 0 0 M1370.37 1512.66 L1370.37 1517.53 L1364.77 1517.53 Q1361.62 1517.53 1360.38 1518.8 Q1359.17 1520.08 1359.17 1523.39 L1359.17 1526.54 L1368.81 1526.54 L1368.81 1531.09 L1359.17 1531.09 L1359.17 1562.19 L1353.28 1562.19 L1353.28 1531.09 L1347.68 1531.09 L1347.68 1526.54 L1353.28 1526.54 L1353.28 1524.05 Q1353.28 1518.1 1356.05 1515.4 Q1358.82 1512.66 1364.84 1512.66 L1370.37 1512.66 Z" fill="#000000" fill-rule="evenodd" fill-opacity="1" /><polyline clip-path="url(#clip972)" style="stroke:#000000; stroke-width:2; stroke-opacity:0.1; fill:none" points="
  238.431,1335.23 2352.76,1335.23 
  "/>
<polyline clip-path="url(#clip972)" style="stroke:#000000; stroke-width:2; stroke-opacity:0.1; fill:none" points="
  238.431,1013.61 2352.76,1013.61 
  "/>
<polyline clip-path="url(#clip972)" style="stroke:#000000; stroke-width:2; stroke-opacity:0.1; fill:none" points="
  238.431,691.994 2352.76,691.994 
  "/>
<polyline clip-path="url(#clip972)" style="stroke:#000000; stroke-width:2; stroke-opacity:0.1; fill:none" points="
  238.431,370.378 2352.76,370.378 
  "/>
<polyline clip-path="url(#clip972)" style="stroke:#000000; stroke-width:2; stroke-opacity:0.1; fill:none" points="
  238.431,48.7621 2352.76,48.7621 
  "/>
<polyline clip-path="url(#clip970)" style="stroke:#000000; stroke-width:4; stroke-opacity:1; fill:none" points="
  238.431,1410.9 238.431,47.2441 
  "/>
<polyline clip-path="url(#clip970)" style="stroke:#000000; stroke-width:4; stroke-opacity:1; fill:none" points="
  238.431,1335.23 263.803,1335.23 
  "/>
<polyline clip-path="url(#clip970)" style="stroke:#000000; stroke-width:4; stroke-opacity:1; fill:none" points="
  238.431,1013.61 263.803,1013.61 
  "/>
<polyline clip-path="url(#clip970)" style="stroke:#000000; stroke-width:4; stroke-opacity:1; fill:none" points="
  238.431,691.994 263.803,691.994 
  "/>
<polyline clip-path="url(#clip970)" style="stroke:#000000; stroke-width:4; stroke-opacity:1; fill:none" points="
  238.431,370.378 263.803,370.378 
  "/>
<polyline clip-path="url(#clip970)" style="stroke:#000000; stroke-width:4; stroke-opacity:1; fill:none" points="
  238.431,48.7621 263.803,48.7621 
  "/>
<path clip-path="url(#clip970)" d="M 0 0 M131.459 1322.02 L119.654 1340.47 L131.459 1340.47 L131.459 1322.02 M130.232 1317.95 L136.112 1317.95 L136.112 1340.47 L141.042 1340.47 L141.042 1344.36 L136.112 1344.36 L136.112 1352.51 L131.459 1352.51 L131.459 1344.36 L115.857 1344.36 L115.857 1339.84 L130.232 1317.95 Z" fill="#000000" fill-rule="evenodd" fill-opacity="1" /><path clip-path="url(#clip970)" d="M 0 0 M146.112 1346.63 L150.996 1346.63 L150.996 1352.51 L146.112 1352.51 L146.112 1346.63 Z" fill="#000000" fill-rule="evenodd" fill-opacity="1" /><path clip-path="url(#clip970)" d="M 0 0 M160.093 1348.57 L176.413 1348.57 L176.413 1352.51 L154.468 1352.51 L154.468 1348.57 Q157.13 1345.82 161.714 1341.19 Q166.32 1336.53 167.501 1335.19 Q169.746 1332.67 170.626 1330.93 Q171.528 1329.17 171.528 1327.48 Q171.528 1324.73 169.584 1322.99 Q167.663 1321.26 164.561 1321.26 Q162.362 1321.26 159.908 1322.02 Q157.478 1322.78 154.7 1324.34 L154.7 1319.61 Q157.524 1318.48 159.978 1317.9 Q162.431 1317.32 164.468 1317.32 Q169.839 1317.32 173.033 1320.01 Q176.227 1322.69 176.227 1327.18 Q176.227 1329.31 175.417 1331.23 Q174.63 1333.13 172.524 1335.72 Q171.945 1336.4 168.843 1339.61 Q165.741 1342.81 160.093 1348.57 Z" fill="#000000" fill-rule="evenodd" fill-opacity="1" /><path clip-path="url(#clip970)" d="M 0 0 M181.528 1317.95 L199.885 1317.95 L199.885 1321.88 L185.811 1321.88 L185.811 1330.35 Q186.829 1330.01 187.848 1329.84 Q188.866 1329.66 189.885 1329.66 Q195.672 1329.66 199.051 1332.83 Q202.431 1336 202.431 1341.42 Q202.431 1347 198.959 1350.1 Q195.487 1353.18 189.167 1353.18 Q186.991 1353.18 184.723 1352.81 Q182.477 1352.44 180.07 1351.7 L180.07 1347 Q182.153 1348.13 184.376 1348.69 Q186.598 1349.24 189.075 1349.24 Q193.079 1349.24 195.417 1347.14 Q197.755 1345.03 197.755 1341.42 Q197.755 1337.81 195.417 1335.7 Q193.079 1333.59 189.075 1333.59 Q187.2 1333.59 185.325 1334.01 Q183.473 1334.43 181.528 1335.31 L181.528 1317.95 Z" fill="#000000" fill-rule="evenodd" fill-opacity="1" /><path clip-path="url(#clip970)" d="M 0 0 M129.862 1000.4 L118.056 1018.85 L129.862 1018.85 L129.862 1000.4 M128.635 996.331 L134.515 996.331 L134.515 1018.85 L139.445 1018.85 L139.445 1022.74 L134.515 1022.74 L134.515 1030.89 L129.862 1030.89 L129.862 1022.74 L114.26 1022.74 L114.26 1018.23 L128.635 996.331 Z" fill="#000000" fill-rule="evenodd" fill-opacity="1" /><path clip-path="url(#clip970)" d="M 0 0 M144.515 1025.01 L149.399 1025.01 L149.399 1030.89 L144.515 1030.89 L144.515 1025.01 Z" fill="#000000" fill-rule="evenodd" fill-opacity="1" /><path clip-path="url(#clip970)" d="M 0 0 M154.515 996.331 L172.871 996.331 L172.871 1000.27 L158.797 1000.27 L158.797 1008.74 Q159.815 1008.39 160.834 1008.23 Q161.852 1008.04 162.871 1008.04 Q168.658 1008.04 172.038 1011.21 Q175.417 1014.39 175.417 1019.8 Q175.417 1025.38 171.945 1028.48 Q168.473 1031.56 162.153 1031.56 Q159.978 1031.56 157.709 1031.19 Q155.464 1030.82 153.056 1030.08 L153.056 1025.38 Q155.14 1026.52 157.362 1027.07 Q159.584 1027.63 162.061 1027.63 Q166.065 1027.63 168.403 1025.52 Q170.741 1023.41 170.741 1019.8 Q170.741 1016.19 168.403 1014.09 Q166.065 1011.98 162.061 1011.98 Q160.186 1011.98 158.311 1012.4 Q156.459 1012.81 154.515 1013.69 L154.515 996.331 Z" fill="#000000" fill-rule="evenodd" fill-opacity="1" /><path clip-path="url(#clip970)" d="M 0 0 M190.487 999.409 Q186.876 999.409 185.047 1002.97 Q183.241 1006.52 183.241 1013.65 Q183.241 1020.75 185.047 1024.32 Q186.876 1027.86 190.487 1027.86 Q194.121 1027.86 195.926 1024.32 Q197.755 1020.75 197.755 1013.65 Q197.755 1006.52 195.926 1002.97 Q194.121 999.409 190.487 999.409 M190.487 995.706 Q196.297 995.706 199.352 1000.31 Q202.431 1004.9 202.431 1013.65 Q202.431 1022.37 199.352 1026.98 Q196.297 1031.56 190.487 1031.56 Q184.676 1031.56 181.598 1026.98 Q178.542 1022.37 178.542 1013.65 Q178.542 1004.9 181.598 1000.31 Q184.676 995.706 190.487 995.706 Z" fill="#000000" fill-rule="evenodd" fill-opacity="1" /><path clip-path="url(#clip970)" d="M 0 0 M130.765 678.788 L118.959 697.237 L130.765 697.237 L130.765 678.788 M129.538 674.714 L135.417 674.714 L135.417 697.237 L140.348 697.237 L140.348 701.126 L135.417 701.126 L135.417 709.274 L130.765 709.274 L130.765 701.126 L115.163 701.126 L115.163 696.612 L129.538 674.714 Z" fill="#000000" fill-rule="evenodd" fill-opacity="1" /><path clip-path="url(#clip970)" d="M 0 0 M145.417 703.395 L150.302 703.395 L150.302 709.274 L145.417 709.274 L145.417 703.395 Z" fill="#000000" fill-rule="evenodd" fill-opacity="1" /><path clip-path="url(#clip970)" d="M 0 0 M154.19 674.714 L176.413 674.714 L176.413 676.705 L163.866 709.274 L158.982 709.274 L170.788 678.65 L154.19 678.65 L154.19 674.714 Z" fill="#000000" fill-rule="evenodd" fill-opacity="1" /><path clip-path="url(#clip970)" d="M 0 0 M181.528 674.714 L199.885 674.714 L199.885 678.65 L185.811 678.65 L185.811 687.122 Q186.829 686.775 187.848 686.612 Q188.866 686.427 189.885 686.427 Q195.672 686.427 199.051 689.599 Q202.431 692.77 202.431 698.187 Q202.431 703.765 198.959 706.867 Q195.487 709.946 189.167 709.946 Q186.991 709.946 184.723 709.575 Q182.477 709.205 180.07 708.464 L180.07 703.765 Q182.153 704.899 184.376 705.455 Q186.598 706.011 189.075 706.011 Q193.079 706.011 195.417 703.904 Q197.755 701.798 197.755 698.187 Q197.755 694.575 195.417 692.469 Q193.079 690.362 189.075 690.362 Q187.2 690.362 185.325 690.779 Q183.473 691.196 181.528 692.075 L181.528 674.714 Z" fill="#000000" fill-rule="evenodd" fill-opacity="1" /><path clip-path="url(#clip970)" d="M 0 0 M117.547 353.098 L135.904 353.098 L135.904 357.033 L121.83 357.033 L121.83 365.506 Q122.848 365.158 123.867 364.996 Q124.885 364.811 125.904 364.811 Q131.691 364.811 135.07 367.982 Q138.45 371.154 138.45 376.57 Q138.45 382.149 134.978 385.251 Q131.505 388.33 125.186 388.33 Q123.01 388.33 120.742 387.959 Q118.496 387.589 116.089 386.848 L116.089 382.149 Q118.172 383.283 120.394 383.839 Q122.617 384.394 125.093 384.394 Q129.098 384.394 131.436 382.288 Q133.774 380.181 133.774 376.57 Q133.774 372.959 131.436 370.853 Q129.098 368.746 125.093 368.746 Q123.218 368.746 121.343 369.163 Q119.492 369.58 117.547 370.459 L117.547 353.098 Z" fill="#000000" fill-rule="evenodd" fill-opacity="1" /><path clip-path="url(#clip970)" d="M 0 0 M143.519 381.779 L148.403 381.779 L148.403 387.658 L143.519 387.658 L143.519 381.779 Z" fill="#000000" fill-rule="evenodd" fill-opacity="1" /><path clip-path="url(#clip970)" d="M 0 0 M163.473 356.177 Q159.862 356.177 158.033 359.742 Q156.228 363.283 156.228 370.413 Q156.228 377.519 158.033 381.084 Q159.862 384.626 163.473 384.626 Q167.107 384.626 168.913 381.084 Q170.741 377.519 170.741 370.413 Q170.741 363.283 168.913 359.742 Q167.107 356.177 163.473 356.177 M163.473 352.473 Q169.283 352.473 172.339 357.08 Q175.417 361.663 175.417 370.413 Q175.417 379.14 172.339 383.746 Q169.283 388.33 163.473 388.33 Q157.663 388.33 154.584 383.746 Q151.528 379.14 151.528 370.413 Q151.528 361.663 154.584 357.08 Q157.663 352.473 163.473 352.473 Z" fill="#000000" fill-rule="evenodd" fill-opacity="1" /><path clip-path="url(#clip970)" d="M 0 0 M190.487 356.177 Q186.876 356.177 185.047 359.742 Q183.241 363.283 183.241 370.413 Q183.241 377.519 185.047 381.084 Q186.876 384.626 190.487 384.626 Q194.121 384.626 195.926 381.084 Q197.755 377.519 197.755 370.413 Q197.755 363.283 195.926 359.742 Q194.121 356.177 190.487 356.177 M190.487 352.473 Q196.297 352.473 199.352 357.08 Q202.431 361.663 202.431 370.413 Q202.431 379.14 199.352 383.746 Q196.297 388.33 190.487 388.33 Q184.676 388.33 181.598 383.746 Q178.542 379.14 178.542 370.413 Q178.542 361.663 181.598 357.08 Q184.676 352.473 190.487 352.473 Z" fill="#000000" fill-rule="evenodd" fill-opacity="1" /><path clip-path="url(#clip970)" d="M 0 0 M120.14 31.4821 L138.496 31.4821 L138.496 35.4172 L124.422 35.4172 L124.422 43.8894 Q125.441 43.5422 126.459 43.3802 Q127.478 43.195 128.496 43.195 Q134.283 43.195 137.663 46.3663 Q141.042 49.5375 141.042 54.9542 Q141.042 60.5328 137.57 63.6347 Q134.098 66.7134 127.779 66.7134 Q125.603 66.7134 123.334 66.343 Q121.089 65.9726 118.681 65.2319 L118.681 60.5328 Q120.765 61.6671 122.987 62.2227 Q125.209 62.7782 127.686 62.7782 Q131.691 62.7782 134.029 60.6717 Q136.367 58.5653 136.367 54.9542 Q136.367 51.3431 134.029 49.2366 Q131.691 47.1301 127.686 47.1301 Q125.811 47.1301 123.936 47.5468 Q122.084 47.9635 120.14 48.8431 L120.14 31.4821 Z" fill="#000000" fill-rule="evenodd" fill-opacity="1" /><path clip-path="url(#clip970)" d="M 0 0 M146.112 60.1625 L150.996 60.1625 L150.996 66.0421 L146.112 66.0421 L146.112 60.1625 Z" fill="#000000" fill-rule="evenodd" fill-opacity="1" /><path clip-path="url(#clip970)" d="M 0 0 M160.093 62.1069 L176.413 62.1069 L176.413 66.0421 L154.468 66.0421 L154.468 62.1069 Q157.13 59.3523 161.714 54.7227 Q166.32 50.0699 167.501 48.7274 Q169.746 46.2042 170.626 44.4681 Q171.528 42.7089 171.528 41.0191 Q171.528 38.2644 169.584 36.5283 Q167.663 34.7922 164.561 34.7922 Q162.362 34.7922 159.908 35.5561 Q157.478 36.32 154.7 37.8709 L154.7 33.1487 Q157.524 32.0145 159.978 31.4358 Q162.431 30.8571 164.468 30.8571 Q169.839 30.8571 173.033 33.5422 Q176.227 36.2274 176.227 40.7181 Q176.227 42.8478 175.417 44.769 Q174.63 46.6672 172.524 49.2598 Q171.945 49.931 168.843 53.1486 Q165.741 56.3431 160.093 62.1069 Z" fill="#000000" fill-rule="evenodd" fill-opacity="1" /><path clip-path="url(#clip970)" d="M 0 0 M181.528 31.4821 L199.885 31.4821 L199.885 35.4172 L185.811 35.4172 L185.811 43.8894 Q186.829 43.5422 187.848 43.3802 Q188.866 43.195 189.885 43.195 Q195.672 43.195 199.051 46.3663 Q202.431 49.5375 202.431 54.9542 Q202.431 60.5328 198.959 63.6347 Q195.487 66.7134 189.167 66.7134 Q186.991 66.7134 184.723 66.343 Q182.477 65.9726 180.07 65.2319 L180.07 60.5328 Q182.153 61.6671 184.376 62.2227 Q186.598 62.7782 189.075 62.7782 Q193.079 62.7782 195.417 60.6717 Q197.755 58.5653 197.755 54.9542 Q197.755 51.3431 195.417 49.2366 Q193.079 47.1301 189.075 47.1301 Q187.2 47.1301 185.325 47.5468 Q183.473 47.9635 181.528 48.8431 L181.528 31.4821 Z" fill="#000000" fill-rule="evenodd" fill-opacity="1" /><path clip-path="url(#clip970)" d="M 0 0 M59.1993 815.533 Q55.2526 813.336 53.3747 810.281 Q51.4968 807.225 51.4968 803.088 Q51.4968 797.518 55.4117 794.494 Q59.2948 791.47 66.4881 791.47 L88.0042 791.47 L88.0042 797.358 L66.679 797.358 Q61.5546 797.358 59.072 799.173 Q56.5894 800.987 56.5894 804.711 Q56.5894 809.262 59.6131 811.904 Q62.6368 814.546 67.8567 814.546 L88.0042 814.546 L88.0042 820.434 L66.679 820.434 Q61.5228 820.434 59.072 822.248 Q56.5894 824.063 56.5894 827.85 Q56.5894 832.338 59.6449 834.98 Q62.6686 837.622 67.8567 837.622 L88.0042 837.622 L88.0042 843.51 L52.3562 843.51 L52.3562 837.622 L57.8944 837.622 Q54.616 835.616 53.0564 832.815 Q51.4968 830.015 51.4968 826.163 Q51.4968 822.28 53.4702 819.575 Q55.4436 816.838 59.1993 815.533 Z" fill="#000000" fill-rule="evenodd" fill-opacity="1" /><path clip-path="url(#clip970)" d="M 0 0 M52.3562 785.327 L52.3562 779.471 L88.0042 779.471 L88.0042 785.327 L52.3562 785.327 M38.479 785.327 L38.479 779.471 L45.895 779.471 L45.895 785.327 L38.479 785.327 Z" fill="#000000" fill-rule="evenodd" fill-opacity="1" /><path clip-path="url(#clip970)" d="M 0 0 M66.4881 743.696 L88.0042 743.696 L88.0042 749.552 L66.679 749.552 Q61.6183 749.552 59.1038 751.525 Q56.5894 753.499 56.5894 757.446 Q56.5894 762.188 59.6131 764.925 Q62.6368 767.662 67.8567 767.662 L88.0042 767.662 L88.0042 773.551 L52.3562 773.551 L52.3562 767.662 L57.8944 767.662 Q54.6797 765.562 53.0883 762.729 Q51.4968 759.864 51.4968 756.141 Q51.4968 749.998 55.3163 746.847 Q59.1038 743.696 66.4881 743.696 Z" fill="#000000" fill-rule="evenodd" fill-opacity="1" /><path clip-path="url(#clip970)" d="M 0 0 M98.8259 710.467 L103.377 710.467 L103.377 744.332 L98.8259 744.332 L98.8259 710.467 Z" fill="#000000" fill-rule="evenodd" fill-opacity="1" /><path clip-path="url(#clip970)" d="M 0 0 M57.7671 680.866 L38.479 680.866 L38.479 675.01 L88.0042 675.01 L88.0042 680.866 L82.657 680.866 Q85.8398 682.712 87.3994 685.545 Q88.9272 688.346 88.9272 692.292 Q88.9272 698.754 83.771 702.828 Q78.6147 706.87 70.212 706.87 Q61.8093 706.87 56.6531 702.828 Q51.4968 698.754 51.4968 692.292 Q51.4968 688.346 53.0564 685.545 Q54.5842 682.712 57.7671 680.866 M70.212 700.823 Q76.6732 700.823 80.3653 698.181 Q84.0256 695.507 84.0256 690.86 Q84.0256 686.213 80.3653 683.54 Q76.6732 680.866 70.212 680.866 Q63.7508 680.866 60.0905 683.54 Q56.3984 686.213 56.3984 690.86 Q56.3984 695.507 60.0905 698.181 Q63.7508 700.823 70.212 700.823 Z" fill="#000000" fill-rule="evenodd" fill-opacity="1" /><path clip-path="url(#clip970)" d="M 0 0 M52.3562 668.867 L52.3562 663.01 L88.0042 663.01 L88.0042 668.867 L52.3562 668.867 M38.479 668.867 L38.479 663.01 L45.895 663.01 L45.895 668.867 L38.479 668.867 Z" fill="#000000" fill-rule="evenodd" fill-opacity="1" /><path clip-path="url(#clip970)" d="M 0 0 M38.479 638.821 L43.3487 638.821 L43.3487 644.422 Q43.3487 647.573 44.6219 648.815 Q45.895 650.024 49.2052 650.024 L52.3562 650.024 L52.3562 640.38 L56.9077 640.38 L56.9077 650.024 L88.0042 650.024 L88.0042 655.912 L56.9077 655.912 L56.9077 661.514 L52.3562 661.514 L52.3562 655.912 L49.8736 655.912 Q43.9216 655.912 41.2162 653.143 Q38.479 650.374 38.479 644.359 L38.479 638.821 Z" fill="#000000" fill-rule="evenodd" fill-opacity="1" /><path clip-path="url(#clip970)" d="M 0 0 M38.479 614.631 L43.3487 614.631 L43.3487 620.233 Q43.3487 623.384 44.6219 624.625 Q45.895 625.835 49.2052 625.835 L52.3562 625.835 L52.3562 616.19 L56.9077 616.19 L56.9077 625.835 L88.0042 625.835 L88.0042 631.723 L56.9077 631.723 L56.9077 637.325 L52.3562 637.325 L52.3562 631.723 L49.8736 631.723 Q43.9216 631.723 41.2162 628.954 Q38.479 626.185 38.479 620.169 L38.479 614.631 Z" fill="#000000" fill-rule="evenodd" fill-opacity="1" /><path clip-path="url(#clip970)" d="
M1996.34 213.659 L2282.28 213.659 L2282.28 92.6992 L1996.34 92.6992  Z
  " fill="#ffffff" fill-rule="evenodd" fill-opacity="1"/>
<polyline clip-path="url(#clip970)" style="stroke:#000000; stroke-width:4; stroke-opacity:1; fill:none" points="
  1996.34,213.659 2282.28,213.659 2282.28,92.6992 1996.34,92.6992 1996.34,213.659 
  "/>
<polyline clip-path="url(#clip970)" style="stroke:#009af9; stroke-width:4; stroke-opacity:1; fill:none" stroke-dasharray="16, 10" points="
  2019.83,153.179 2160.78,153.179 
  "/>
<path clip-path="url(#clip970)" d="M 0 0 M2198.12 172.867 Q2196.31 177.496 2194.6 178.908 Q2192.89 180.32 2190.02 180.32 L2186.61 180.32 L2186.61 176.755 L2189.11 176.755 Q2190.87 176.755 2191.84 175.922 Q2192.82 175.089 2194 171.987 L2194.76 170.043 L2184.28 144.533 L2188.79 144.533 L2196.89 164.811 L2204.99 144.533 L2209.51 144.533 L2198.12 172.867 Z" fill="#000000" fill-rule="evenodd" fill-opacity="1" /><path clip-path="url(#clip970)" d="M 0 0 M2215.39 166.524 L2223.02 166.524 L2223.02 140.158 L2214.71 141.825 L2214.71 137.566 L2222.98 135.899 L2227.65 135.899 L2227.65 166.524 L2235.29 166.524 L2235.29 170.459 L2215.39 170.459 L2215.39 166.524 Z" fill="#000000" fill-rule="evenodd" fill-opacity="1" /></svg>
