<?xml version="1.0" encoding="utf-8"?>
<svg xmlns="http://www.w3.org/2000/svg" xmlns:xlink="http://www.w3.org/1999/xlink" width="600" height="400" viewBox="0 0 2400 1600">
<defs>
  <clipPath id="clip190">
    <rect x="0" y="0" width="2400" height="1600"/>
  </clipPath>
</defs>
<path clip-path="url(#clip190)" d="
M0 1600 L2400 1600 L2400 0 L0 0  Z
  " fill="#ffffff" fill-rule="evenodd" fill-opacity="1"/>
<defs>
  <clipPath id="clip191">
    <rect x="480" y="0" width="1681" height="1600"/>
  </clipPath>
</defs>
<path clip-path="url(#clip190)" d="
M202.459 1410.9 L2352.76 1410.9 L2352.76 47.2441 L202.459 47.2441  Z
  " fill="#ffffff" fill-rule="evenodd" fill-opacity="1"/>
<defs>
  <clipPath id="clip192">
    <rect x="202" y="47" width="2151" height="1365"/>
  </clipPath>
</defs>
<polyline clip-path="url(#clip192)" style="stroke:#000000; stroke-width:2; stroke-opacity:0.1; fill:none" points="
  263.316,1410.9 263.316,47.2441 
  "/>
<polyline clip-path="url(#clip192)" style="stroke:#000000; stroke-width:2; stroke-opacity:0.1; fill:none" points="
  939.51,1410.9 939.51,47.2441 
  "/>
<polyline clip-path="url(#clip192)" style="stroke:#000000; stroke-width:2; stroke-opacity:0.1; fill:none" points="
  1615.7,1410.9 1615.7,47.2441 
  "/>
<polyline clip-path="url(#clip192)" style="stroke:#000000; stroke-width:2; stroke-opacity:0.1; fill:none" points="
  2291.9,1410.9 2291.9,47.2441 
  "/>
<polyline clip-path="url(#clip190)" style="stroke:#000000; stroke-width:4; stroke-opacity:1; fill:none" points="
  202.459,1410.9 2352.76,1410.9 
  "/>
<polyline clip-path="url(#clip190)" style="stroke:#000000; stroke-width:4; stroke-opacity:1; fill:none" points="
  263.316,1410.9 263.316,1394.53 
  "/>
<polyline clip-path="url(#clip190)" style="stroke:#000000; stroke-width:4; stroke-opacity:1; fill:none" points="
  939.51,1410.9 939.51,1394.53 
  "/>
<polyline clip-path="url(#clip190)" style="stroke:#000000; stroke-width:4; stroke-opacity:1; fill:none" points="
  1615.7,1410.9 1615.7,1394.53 
  "/>
<polyline clip-path="url(#clip190)" style="stroke:#000000; stroke-width:4; stroke-opacity:1; fill:none" points="
  2291.9,1410.9 2291.9,1394.53 
  "/>
<path clip-path="url(#clip190)" d="M 0 0 M217.096 1489.17 L224.734 1489.17 L224.734 1462.8 L216.424 1464.47 L216.424 1460.21 L224.688 1458.54 L229.364 1458.54 L229.364 1489.17 L237.003 1489.17 L237.003 1493.1 L217.096 1493.1 L217.096 1489.17 Z" fill="#000000" fill-rule="evenodd" fill-opacity="1" /><path clip-path="url(#clip190)" d="M 0 0 M252.072 1461.62 Q248.461 1461.62 246.632 1465.19 Q244.827 1468.73 244.827 1475.86 Q244.827 1482.97 246.632 1486.53 Q248.461 1490.07 252.072 1490.07 Q255.706 1490.07 257.512 1486.53 Q259.341 1482.97 259.341 1475.86 Q259.341 1468.73 257.512 1465.19 Q255.706 1461.62 252.072 1461.62 M252.072 1457.92 Q257.882 1457.92 260.938 1462.53 Q264.017 1467.11 264.017 1475.86 Q264.017 1484.59 260.938 1489.19 Q257.882 1493.78 252.072 1493.78 Q246.262 1493.78 243.183 1489.19 Q240.128 1484.59 240.128 1475.86 Q240.128 1467.11 243.183 1462.53 Q246.262 1457.92 252.072 1457.92 Z" fill="#000000" fill-rule="evenodd" fill-opacity="1" /><path clip-path="url(#clip190)" d="M 0 0 M264.017 1452.02 L288.128 1452.02 L288.128 1455.22 L264.017 1455.22 L264.017 1452.02 Z" fill="#000000" fill-rule="evenodd" fill-opacity="1" /><path clip-path="url(#clip190)" d="M 0 0 M300.842 1450.14 Q298.284 1450.14 296.78 1451.89 Q295.294 1453.64 295.294 1456.68 Q295.294 1459.71 296.78 1461.48 Q298.284 1463.23 300.842 1463.23 Q303.4 1463.23 304.886 1461.48 Q306.391 1459.71 306.391 1456.68 Q306.391 1453.64 304.886 1451.89 Q303.4 1450.14 300.842 1450.14 M308.384 1438.23 L308.384 1441.69 Q306.955 1441.02 305.488 1440.66 Q304.04 1440.3 302.61 1440.3 Q298.849 1440.3 296.855 1442.84 Q294.88 1445.38 294.598 1450.52 Q295.708 1448.88 297.382 1448.01 Q299.056 1447.13 301.068 1447.13 Q305.3 1447.13 307.745 1449.71 Q310.209 1452.26 310.209 1456.68 Q310.209 1461.01 307.651 1463.62 Q305.093 1466.24 300.842 1466.24 Q295.971 1466.24 293.394 1462.51 Q290.818 1458.77 290.818 1451.68 Q290.818 1445.02 293.977 1441.07 Q297.137 1437.11 302.46 1437.11 Q303.889 1437.11 305.337 1437.39 Q306.804 1437.67 308.384 1438.23 Z" fill="#000000" fill-rule="evenodd" fill-opacity="1" /><path clip-path="url(#clip190)" d="M 0 0 M893.76 1489.17 L901.399 1489.17 L901.399 1462.8 L893.089 1464.47 L893.089 1460.21 L901.352 1458.54 L906.028 1458.54 L906.028 1489.17 L913.667 1489.17 L913.667 1493.1 L893.76 1493.1 L893.76 1489.17 Z" fill="#000000" fill-rule="evenodd" fill-opacity="1" /><path clip-path="url(#clip190)" d="M 0 0 M928.736 1461.62 Q925.125 1461.62 923.297 1465.19 Q921.491 1468.73 921.491 1475.86 Q921.491 1482.97 923.297 1486.53 Q925.125 1490.07 928.736 1490.07 Q932.371 1490.07 934.176 1486.53 Q936.005 1482.97 936.005 1475.86 Q936.005 1468.73 934.176 1465.19 Q932.371 1461.62 928.736 1461.62 M928.736 1457.92 Q934.547 1457.92 937.602 1462.53 Q940.681 1467.11 940.681 1475.86 Q940.681 1484.59 937.602 1489.19 Q934.547 1493.78 928.736 1493.78 Q922.926 1493.78 919.848 1489.19 Q916.792 1484.59 916.792 1475.86 Q916.792 1467.11 919.848 1462.53 Q922.926 1457.92 928.736 1457.92 Z" fill="#000000" fill-rule="evenodd" fill-opacity="1" /><path clip-path="url(#clip190)" d="M 0 0 M940.681 1452.02 L964.792 1452.02 L964.792 1455.22 L940.681 1455.22 L940.681 1452.02 Z" fill="#000000" fill-rule="evenodd" fill-opacity="1" /><path clip-path="url(#clip190)" d="M 0 0 M968.949 1437.61 L983.863 1437.61 L983.863 1440.81 L972.428 1440.81 L972.428 1447.69 Q973.256 1447.41 974.083 1447.28 Q974.911 1447.13 975.739 1447.13 Q980.44 1447.13 983.186 1449.71 Q985.932 1452.28 985.932 1456.68 Q985.932 1461.22 983.111 1463.74 Q980.29 1466.24 975.155 1466.24 Q973.388 1466.24 971.544 1465.94 Q969.72 1465.64 967.764 1465.04 L967.764 1461.22 Q969.457 1462.14 971.262 1462.59 Q973.068 1463.04 975.08 1463.04 Q978.334 1463.04 980.234 1461.33 Q982.133 1459.62 982.133 1456.68 Q982.133 1453.75 980.234 1452.04 Q978.334 1450.33 975.08 1450.33 Q973.557 1450.33 972.033 1450.67 Q970.529 1451 968.949 1451.72 L968.949 1437.61 Z" fill="#000000" fill-rule="evenodd" fill-opacity="1" /><path clip-path="url(#clip190)" d="M 0 0 M1569.35 1489.17 L1576.99 1489.17 L1576.99 1462.8 L1568.68 1464.47 L1568.68 1460.21 L1576.94 1458.54 L1581.62 1458.54 L1581.62 1489.17 L1589.26 1489.17 L1589.26 1493.1 L1569.35 1493.1 L1569.35 1489.17 Z" fill="#000000" fill-rule="evenodd" fill-opacity="1" /><path clip-path="url(#clip190)" d="M 0 0 M1604.33 1461.62 Q1600.72 1461.62 1598.89 1465.19 Q1597.08 1468.73 1597.08 1475.86 Q1597.08 1482.97 1598.89 1486.53 Q1600.72 1490.07 1604.33 1490.07 Q1607.96 1490.07 1609.77 1486.53 Q1611.6 1482.97 1611.6 1475.86 Q1611.6 1468.73 1609.77 1465.19 Q1607.96 1461.62 1604.33 1461.62 M1604.33 1457.92 Q1610.14 1457.92 1613.19 1462.53 Q1616.27 1467.11 1616.27 1475.86 Q1616.27 1484.59 1613.19 1489.19 Q1610.14 1493.78 1604.33 1493.78 Q1598.52 1493.78 1595.44 1489.19 Q1592.38 1484.59 1592.38 1475.86 Q1592.38 1467.11 1595.44 1462.53 Q1598.52 1457.92 1604.33 1457.92 Z" fill="#000000" fill-rule="evenodd" fill-opacity="1" /><path clip-path="url(#clip190)" d="M 0 0 M1616.27 1452.02 L1640.38 1452.02 L1640.38 1455.22 L1616.27 1455.22 L1616.27 1452.02 Z" fill="#000000" fill-rule="evenodd" fill-opacity="1" /><path clip-path="url(#clip190)" d="M 0 0 M1654.94 1440.92 L1645.35 1455.91 L1654.94 1455.91 L1654.94 1440.92 M1653.94 1437.61 L1658.72 1437.61 L1658.72 1455.91 L1662.73 1455.91 L1662.73 1459.07 L1658.72 1459.07 L1658.72 1465.69 L1654.94 1465.69 L1654.94 1459.07 L1642.27 1459.07 L1642.27 1455.41 L1653.94 1437.61 Z" fill="#000000" fill-rule="evenodd" fill-opacity="1" /><path clip-path="url(#clip190)" d="M 0 0 M2246.01 1489.17 L2253.65 1489.17 L2253.65 1462.8 L2245.34 1464.47 L2245.34 1460.21 L2253.6 1458.54 L2258.28 1458.54 L2258.28 1489.17 L2265.91 1489.17 L2265.91 1493.1 L2246.01 1493.1 L2246.01 1489.17 Z" fill="#000000" fill-rule="evenodd" fill-opacity="1" /><path clip-path="url(#clip190)" d="M 0 0 M2280.98 1461.62 Q2277.37 1461.62 2275.54 1465.19 Q2273.74 1468.73 2273.74 1475.86 Q2273.74 1482.97 2275.54 1486.53 Q2277.37 1490.07 2280.98 1490.07 Q2284.62 1490.07 2286.42 1486.53 Q2288.25 1482.97 2288.25 1475.86 Q2288.25 1468.73 2286.42 1465.19 Q2284.62 1461.62 2280.98 1461.62 M2280.98 1457.92 Q2286.79 1457.92 2289.85 1462.53 Q2292.93 1467.11 2292.93 1475.86 Q2292.93 1484.59 2289.85 1489.19 Q2286.79 1493.78 2280.98 1493.78 Q2275.17 1493.78 2272.09 1489.19 Q2269.04 1484.59 2269.04 1475.86 Q2269.04 1467.11 2272.09 1462.53 Q2275.17 1457.92 2280.98 1457.92 Z" fill="#000000" fill-rule="evenodd" fill-opacity="1" /><path clip-path="url(#clip190)" d="M 0 0 M2292.93 1452.02 L2317.04 1452.02 L2317.04 1455.22 L2292.93 1455.22 L2292.93 1452.02 Z" fill="#000000" fill-rule="evenodd" fill-opacity="1" /><path clip-path="url(#clip190)" d="M 0 0 M2332.67 1450.55 Q2335.4 1451.14 2336.92 1452.98 Q2338.46 1454.82 2338.46 1457.53 Q2338.46 1461.69 2335.6 1463.96 Q2332.74 1466.24 2327.48 1466.24 Q2325.71 1466.24 2323.83 1465.88 Q2321.97 1465.54 2319.97 1464.85 L2319.97 1461.18 Q2321.55 1462.1 2323.43 1462.57 Q2325.31 1463.04 2327.36 1463.04 Q2330.94 1463.04 2332.8 1461.63 Q2334.68 1460.22 2334.68 1457.53 Q2334.68 1455.05 2332.93 1453.66 Q2331.2 1452.25 2328.1 1452.25 L2324.83 1452.25 L2324.83 1449.12 L2328.25 1449.12 Q2331.05 1449.12 2332.54 1448.01 Q2334.02 1446.89 2334.02 1444.78 Q2334.02 1442.62 2332.48 1441.47 Q2330.96 1440.3 2328.1 1440.3 Q2326.54 1440.3 2324.75 1440.64 Q2322.96 1440.98 2320.82 1441.69 L2320.82 1438.31 Q2322.98 1437.71 2324.86 1437.41 Q2326.76 1437.11 2328.44 1437.11 Q2332.76 1437.11 2335.28 1439.08 Q2337.8 1441.04 2337.8 1444.38 Q2337.8 1446.72 2336.47 1448.33 Q2335.13 1449.93 2332.67 1450.55 Z" fill="#000000" fill-rule="evenodd" fill-opacity="1" /><path clip-path="url(#clip190)" d="M 0 0 M1209.13 1512.66 L1215.02 1512.66 L1215.02 1541.91 L1232.49 1526.54 L1239.97 1526.54 L1221.06 1543.22 L1240.77 1562.19 L1233.13 1562.19 L1215.02 1544.78 L1215.02 1562.19 L1209.13 1562.19 L1209.13 1512.66 Z" fill="#000000" fill-rule="evenodd" fill-opacity="1" /><path clip-path="url(#clip190)" d="M 0 0 M1273.99 1573.01 L1273.99 1577.56 L1240.13 1577.56 L1240.13 1573.01 L1273.99 1573.01 Z" fill="#000000" fill-rule="evenodd" fill-opacity="1" /><path clip-path="url(#clip190)" d="M 0 0 M1293.95 1530.64 Q1289.24 1530.64 1286.5 1534.34 Q1283.77 1538 1283.77 1544.39 Q1283.77 1550.79 1286.47 1554.48 Q1289.21 1558.14 1293.95 1558.14 Q1298.63 1558.14 1301.37 1554.45 Q1304.1 1550.76 1304.1 1544.39 Q1304.1 1538.06 1301.37 1534.37 Q1298.63 1530.64 1293.95 1530.64 M1293.95 1525.68 Q1301.59 1525.68 1305.95 1530.64 Q1310.31 1535.61 1310.31 1544.39 Q1310.31 1553.15 1305.95 1558.14 Q1301.59 1563.11 1293.95 1563.11 Q1286.28 1563.11 1281.92 1558.14 Q1277.59 1553.15 1277.59 1544.39 Q1277.59 1535.61 1281.92 1530.64 Q1286.28 1525.68 1293.95 1525.68 Z" fill="#000000" fill-rule="evenodd" fill-opacity="1" /><path clip-path="url(#clip190)" d="M 0 0 M1346.09 1540.67 L1346.09 1562.19 L1340.23 1562.19 L1340.23 1540.86 Q1340.23 1535.8 1338.26 1533.29 Q1336.28 1530.77 1332.34 1530.77 Q1327.59 1530.77 1324.86 1533.79 Q1322.12 1536.82 1322.12 1542.04 L1322.12 1562.19 L1316.23 1562.19 L1316.23 1526.54 L1322.12 1526.54 L1322.12 1532.08 Q1324.22 1528.86 1327.05 1527.27 Q1329.92 1525.68 1333.64 1525.68 Q1339.78 1525.68 1342.94 1529.5 Q1346.09 1533.29 1346.09 1540.67 Z" fill="#000000" fill-rule="evenodd" fill-opacity="1" /><polyline clip-path="url(#clip192)" style="stroke:#000000; stroke-width:2; stroke-opacity:0.1; fill:none" points="
  202.459,1225.31 2352.76,1225.31 
  "/>
<polyline clip-path="url(#clip192)" style="stroke:#000000; stroke-width:2; stroke-opacity:0.1; fill:none" points="
  202.459,972.754 2352.76,972.754 
  "/>
<polyline clip-path="url(#clip192)" style="stroke:#000000; stroke-width:2; stroke-opacity:0.1; fill:none" points="
  202.459,720.202 2352.76,720.202 
  "/>
<polyline clip-path="url(#clip192)" style="stroke:#000000; stroke-width:2; stroke-opacity:0.1; fill:none" points="
  202.459,467.65 2352.76,467.65 
  "/>
<polyline clip-path="url(#clip192)" style="stroke:#000000; stroke-width:2; stroke-opacity:0.1; fill:none" points="
  202.459,215.098 2352.76,215.098 
  "/>
<polyline clip-path="url(#clip190)" style="stroke:#000000; stroke-width:4; stroke-opacity:1; fill:none" points="
  202.459,1410.9 202.459,47.2441 
  "/>
<polyline clip-path="url(#clip190)" style="stroke:#000000; stroke-width:4; stroke-opacity:1; fill:none" points="
  202.459,1225.31 228.263,1225.31 
  "/>
<polyline clip-path="url(#clip190)" style="stroke:#000000; stroke-width:4; stroke-opacity:1; fill:none" points="
  202.459,972.754 228.263,972.754 
  "/>
<polyline clip-path="url(#clip190)" style="stroke:#000000; stroke-width:4; stroke-opacity:1; fill:none" points="
  202.459,720.202 228.263,720.202 
  "/>
<polyline clip-path="url(#clip190)" style="stroke:#000000; stroke-width:4; stroke-opacity:1; fill:none" points="
  202.459,467.65 228.263,467.65 
  "/>
<polyline clip-path="url(#clip190)" style="stroke:#000000; stroke-width:4; stroke-opacity:1; fill:none" points="
  202.459,215.098 228.263,215.098 
  "/>
<path clip-path="url(#clip190)" d="M 0 0 M119.538 1238.65 L127.177 1238.65 L127.177 1212.29 L118.867 1213.95 L118.867 1209.69 L127.13 1208.03 L131.806 1208.03 L131.806 1238.65 L139.445 1238.65 L139.445 1242.59 L119.538 1242.59 L119.538 1238.65 Z" fill="#000000" fill-rule="evenodd" fill-opacity="1" /><path clip-path="url(#clip190)" d="M 0 0 M154.515 1211.1 Q150.903 1211.1 149.075 1214.67 Q147.269 1218.21 147.269 1225.34 Q147.269 1232.45 149.075 1236.01 Q150.903 1239.55 154.515 1239.55 Q158.149 1239.55 159.954 1236.01 Q161.783 1232.45 161.783 1225.34 Q161.783 1218.21 159.954 1214.67 Q158.149 1211.1 154.515 1211.1 M154.515 1207.4 Q160.325 1207.4 163.38 1212.01 Q166.459 1216.59 166.459 1225.34 Q166.459 1234.07 163.38 1238.67 Q160.325 1243.26 154.515 1243.26 Q148.704 1243.26 145.626 1238.67 Q142.57 1234.07 142.57 1225.34 Q142.57 1216.59 145.626 1212.01 Q148.704 1207.4 154.515 1207.4 Z" fill="#000000" fill-rule="evenodd" fill-opacity="1" /><path clip-path="url(#clip190)" d="M 0 0 M123.126 986.099 L139.445 986.099 L139.445 990.034 L117.501 990.034 L117.501 986.099 Q120.163 983.344 124.746 978.715 Q129.353 974.062 130.533 972.719 Q132.779 970.196 133.658 968.46 Q134.561 966.701 134.561 965.011 Q134.561 962.256 132.617 960.52 Q130.695 958.784 127.593 958.784 Q125.394 958.784 122.941 959.548 Q120.51 960.312 117.732 961.863 L117.732 957.141 Q120.556 956.007 123.01 955.428 Q125.464 954.849 127.501 954.849 Q132.871 954.849 136.066 957.534 Q139.26 960.219 139.26 964.71 Q139.26 966.84 138.45 968.761 Q137.663 970.659 135.556 973.252 Q134.978 973.923 131.876 977.141 Q128.774 980.335 123.126 986.099 Z" fill="#000000" fill-rule="evenodd" fill-opacity="1" /><path clip-path="url(#clip190)" d="M 0 0 M154.515 958.553 Q150.903 958.553 149.075 962.118 Q147.269 965.659 147.269 972.789 Q147.269 979.895 149.075 983.46 Q150.903 987.002 154.515 987.002 Q158.149 987.002 159.954 983.46 Q161.783 979.895 161.783 972.789 Q161.783 965.659 159.954 962.118 Q158.149 958.553 154.515 958.553 M154.515 954.849 Q160.325 954.849 163.38 959.456 Q166.459 964.039 166.459 972.789 Q166.459 981.516 163.38 986.122 Q160.325 990.705 154.515 990.705 Q148.704 990.705 145.626 986.122 Q142.57 981.516 142.57 972.789 Q142.57 964.039 145.626 959.456 Q148.704 954.849 154.515 954.849 Z" fill="#000000" fill-rule="evenodd" fill-opacity="1" /><path clip-path="url(#clip190)" d="M 0 0 M132.316 718.848 Q135.672 719.565 137.547 721.834 Q139.445 724.103 139.445 727.436 Q139.445 732.552 135.927 735.352 Q132.408 738.153 125.927 738.153 Q123.751 738.153 121.436 737.714 Q119.144 737.297 116.691 736.44 L116.691 731.927 Q118.635 733.061 120.95 733.639 Q123.265 734.218 125.788 734.218 Q130.186 734.218 132.478 732.482 Q134.792 730.746 134.792 727.436 Q134.792 724.38 132.64 722.667 Q130.51 720.931 126.691 720.931 L122.663 720.931 L122.663 717.089 L126.876 717.089 Q130.325 717.089 132.154 715.723 Q133.982 714.334 133.982 711.741 Q133.982 709.079 132.084 707.667 Q130.209 706.232 126.691 706.232 Q124.769 706.232 122.57 706.649 Q120.371 707.066 117.732 707.945 L117.732 703.779 Q120.394 703.038 122.709 702.667 Q125.047 702.297 127.107 702.297 Q132.431 702.297 135.533 704.728 Q138.635 707.135 138.635 711.255 Q138.635 714.126 136.992 716.116 Q135.348 718.084 132.316 718.848 Z" fill="#000000" fill-rule="evenodd" fill-opacity="1" /><path clip-path="url(#clip190)" d="M 0 0 M154.515 706.001 Q150.903 706.001 149.075 709.566 Q147.269 713.107 147.269 720.237 Q147.269 727.343 149.075 730.908 Q150.903 734.45 154.515 734.45 Q158.149 734.45 159.954 730.908 Q161.783 727.343 161.783 720.237 Q161.783 713.107 159.954 709.566 Q158.149 706.001 154.515 706.001 M154.515 702.297 Q160.325 702.297 163.38 706.904 Q166.459 711.487 166.459 720.237 Q166.459 728.964 163.38 733.57 Q160.325 738.153 154.515 738.153 Q148.704 738.153 145.626 733.57 Q142.57 728.964 142.57 720.237 Q142.57 711.487 145.626 706.904 Q148.704 702.297 154.515 702.297 Z" fill="#000000" fill-rule="evenodd" fill-opacity="1" /><path clip-path="url(#clip190)" d="M 0 0 M129.862 454.444 L118.056 472.893 L129.862 472.893 L129.862 454.444 M128.635 450.37 L134.515 450.37 L134.515 472.893 L139.445 472.893 L139.445 476.782 L134.515 476.782 L134.515 484.93 L129.862 484.93 L129.862 476.782 L114.26 476.782 L114.26 472.268 L128.635 450.37 Z" fill="#000000" fill-rule="evenodd" fill-opacity="1" /><path clip-path="url(#clip190)" d="M 0 0 M154.515 453.449 Q150.903 453.449 149.075 457.013 Q147.269 460.555 147.269 467.685 Q147.269 474.791 149.075 478.356 Q150.903 481.898 154.515 481.898 Q158.149 481.898 159.954 478.356 Q161.783 474.791 161.783 467.685 Q161.783 460.555 159.954 457.013 Q158.149 453.449 154.515 453.449 M154.515 449.745 Q160.325 449.745 163.38 454.351 Q166.459 458.935 166.459 467.685 Q166.459 476.412 163.38 481.018 Q160.325 485.601 154.515 485.601 Q148.704 485.601 145.626 481.018 Q142.57 476.412 142.57 467.685 Q142.57 458.935 145.626 454.351 Q148.704 449.745 154.515 449.745 Z" fill="#000000" fill-rule="evenodd" fill-opacity="1" /><path clip-path="url(#clip190)" d="M 0 0 M118.543 197.818 L136.899 197.818 L136.899 201.753 L122.825 201.753 L122.825 210.225 Q123.843 209.878 124.862 209.716 Q125.88 209.531 126.899 209.531 Q132.686 209.531 136.066 212.702 Q139.445 215.873 139.445 221.29 Q139.445 226.869 135.973 229.971 Q132.501 233.049 126.181 233.049 Q124.005 233.049 121.737 232.679 Q119.492 232.308 117.084 231.568 L117.084 226.869 Q119.168 228.003 121.39 228.559 Q123.612 229.114 126.089 229.114 Q130.093 229.114 132.431 227.008 Q134.769 224.901 134.769 221.29 Q134.769 217.679 132.431 215.572 Q130.093 213.466 126.089 213.466 Q124.214 213.466 122.339 213.883 Q120.487 214.299 118.543 215.179 L118.543 197.818 Z" fill="#000000" fill-rule="evenodd" fill-opacity="1" /><path clip-path="url(#clip190)" d="M 0 0 M154.515 200.897 Q150.903 200.897 149.075 204.461 Q147.269 208.003 147.269 215.133 Q147.269 222.239 149.075 225.804 Q150.903 229.346 154.515 229.346 Q158.149 229.346 159.954 225.804 Q161.783 222.239 161.783 215.133 Q161.783 208.003 159.954 204.461 Q158.149 200.897 154.515 200.897 M154.515 197.193 Q160.325 197.193 163.38 201.799 Q166.459 206.383 166.459 215.133 Q166.459 223.859 163.38 228.466 Q160.325 233.049 154.515 233.049 Q148.704 233.049 145.626 228.466 Q142.57 223.859 142.57 215.133 Q142.57 206.383 145.626 201.799 Q148.704 197.193 154.515 197.193 Z" fill="#000000" fill-rule="evenodd" fill-opacity="1" /><path clip-path="url(#clip190)" d="M 0 0 M59.1993 815.533 Q55.2526 813.336 53.3747 810.281 Q51.4968 807.225 51.4968 803.088 Q51.4968 797.518 55.4117 794.494 Q59.2948 791.47 66.4881 791.47 L88.0042 791.47 L88.0042 797.358 L66.679 797.358 Q61.5546 797.358 59.072 799.173 Q56.5894 800.987 56.5894 804.711 Q56.5894 809.262 59.6131 811.904 Q62.6368 814.546 67.8567 814.546 L88.0042 814.546 L88.0042 820.434 L66.679 820.434 Q61.5228 820.434 59.072 822.248 Q56.5894 824.063 56.5894 827.85 Q56.5894 832.338 59.6449 834.98 Q62.6686 837.622 67.8567 837.622 L88.0042 837.622 L88.0042 843.51 L52.3562 843.51 L52.3562 837.622 L57.8944 837.622 Q54.616 835.616 53.0564 832.815 Q51.4968 830.015 51.4968 826.163 Q51.4968 822.28 53.4702 819.575 Q55.4436 816.838 59.1993 815.533 Z" fill="#000000" fill-rule="evenodd" fill-opacity="1" /><path clip-path="url(#clip190)" d="M 0 0 M52.3562 785.327 L52.3562 779.471 L88.0042 779.471 L88.0042 785.327 L52.3562 785.327 M38.479 785.327 L38.479 779.471 L45.895 779.471 L45.895 785.327 L38.479 785.327 Z" fill="#000000" fill-rule="evenodd" fill-opacity="1" /><path clip-path="url(#clip190)" d="M 0 0 M66.4881 743.696 L88.0042 743.696 L88.0042 749.552 L66.679 749.552 Q61.6183 749.552 59.1038 751.525 Q56.5894 753.499 56.5894 757.446 Q56.5894 762.188 59.6131 764.925 Q62.6368 767.662 67.8567 767.662 L88.0042 767.662 L88.0042 773.551 L52.3562 773.551 L52.3562 767.662 L57.8944 767.662 Q54.6797 765.562 53.0883 762.729 Q51.4968 759.864 51.4968 756.141 Q51.4968 749.998 55.3163 746.847 Q59.1038 743.696 66.4881 743.696 Z" fill="#000000" fill-rule="evenodd" fill-opacity="1" /><path clip-path="url(#clip190)" d="M 0 0 M98.8259 710.467 L103.377 710.467 L103.377 744.332 L98.8259 744.332 L98.8259 710.467 Z" fill="#000000" fill-rule="evenodd" fill-opacity="1" /><path clip-path="url(#clip190)" d="M 0 0 M57.7671 680.866 L38.479 680.866 L38.479 675.01 L88.0042 675.01 L88.0042 680.866 L82.657 680.866 Q85.8398 682.712 87.3994 685.545 Q88.9272 688.346 88.9272 692.292 Q88.9272 698.754 83.771 702.828 Q78.6147 706.87 70.212 706.87 Q61.8093 706.87 56.6531 702.828 Q51.4968 698.754 51.4968 692.292 Q51.4968 688.346 53.0564 685.545 Q54.5842 682.712 57.7671 680.866 M70.212 700.823 Q76.6732 700.823 80.3653 698.181 Q84.0256 695.507 84.0256 690.86 Q84.0256 686.213 80.3653 683.54 Q76.6732 680.866 70.212 680.866 Q63.7508 680.866 60.0905 683.54 Q56.3984 686.213 56.3984 690.86 Q56.3984 695.507 60.0905 698.181 Q63.7508 700.823 70.212 700.823 Z" fill="#000000" fill-rule="evenodd" fill-opacity="1" /><path clip-path="url(#clip190)" d="M 0 0 M52.3562 668.867 L52.3562 663.01 L88.0042 663.01 L88.0042 668.867 L52.3562 668.867 M38.479 668.867 L38.479 663.01 L45.895 663.01 L45.895 668.867 L38.479 668.867 Z" fill="#000000" fill-rule="evenodd" fill-opacity="1" /><path clip-path="url(#clip190)" d="M 0 0 M38.479 638.821 L43.3487 638.821 L43.3487 644.422 Q43.3487 647.573 44.6219 648.815 Q45.895 650.024 49.2052 650.024 L52.3562 650.024 L52.3562 640.38 L56.9077 640.38 L56.9077 650.024 L88.0042 650.024 L88.0042 655.912 L56.9077 655.912 L56.9077 661.514 L52.3562 661.514 L52.3562 655.912 L49.8736 655.912 Q43.9216 655.912 41.2162 653.143 Q38.479 650.374 38.479 644.359 L38.479 638.821 Z" fill="#000000" fill-rule="evenodd" fill-opacity="1" /><path clip-path="url(#clip190)" d="M 0 0 M38.479 614.631 L43.3487 614.631 L43.3487 620.233 Q43.3487 623.384 44.6219 624.625 Q45.895 625.835 49.2052 625.835 L52.3562 625.835 L52.3562 616.19 L56.9077 616.19 L56.9077 625.835 L88.0042 625.835 L88.0042 631.723 L56.9077 631.723 L56.9077 637.325 L52.3562 637.325 L52.3562 631.723 L49.8736 631.723 Q43.9216 631.723 41.2162 628.954 Q38.479 626.185 38.479 620.169 L38.479 614.631 Z" fill="#000000" fill-rule="evenodd" fill-opacity="1" /><polyline clip-path="url(#clip192)" style="stroke:#009af9; stroke-width:20; stroke-opacity:1; fill:none" stroke-dasharray="80, 50" points="
  263.316,231.734 601.413,1266.25 939.51,1372.3 1277.61,1118.08 1615.7,457.224 1953.8,347.979 2291.9,85.838 
  "/>
<path clip-path="url(#clip190)" d="
M1991.14 213.659 L2281.08 213.659 L2281.08 92.6992 L1991.14 92.6992  Z
  " fill="#ffffff" fill-rule="evenodd" fill-opacity="1"/>
<polyline clip-path="url(#clip190)" style="stroke:#000000; stroke-width:4; stroke-opacity:1; fill:none" points="
  1991.14,213.659 2281.08,213.659 2281.08,92.6992 1991.14,92.6992 1991.14,213.659 
  "/>
<polyline clip-path="url(#clip190)" style="stroke:#009af9; stroke-width:4; stroke-opacity:1; fill:none" stroke-dasharray="16, 10" points="
  2015.03,153.179 2158.38,153.179 
  "/>
<path clip-path="url(#clip190)" d="M 0 0 M2196.12 172.867 Q2194.31 177.496 2192.6 178.908 Q2190.89 180.32 2188.02 180.32 L2184.61 180.32 L2184.61 176.755 L2187.11 176.755 Q2188.87 176.755 2189.85 175.922 Q2190.82 175.089 2192 171.987 L2192.76 170.043 L2182.28 144.533 L2186.79 144.533 L2194.89 164.811 L2202.99 144.533 L2207.51 144.533 L2196.12 172.867 Z" fill="#000000" fill-rule="evenodd" fill-opacity="1" /><path clip-path="url(#clip190)" d="M 0 0 M2213.39 166.524 L2221.03 166.524 L2221.03 140.158 L2212.72 141.825 L2212.72 137.566 L2220.98 135.899 L2225.66 135.899 L2225.66 166.524 L2233.29 166.524 L2233.29 170.459 L2213.39 170.459 L2213.39 166.524 Z" fill="#000000" fill-rule="evenodd" fill-opacity="1" /></svg>
