<?xml version="1.0" encoding="utf-8"?>
<svg xmlns="http://www.w3.org/2000/svg" xmlns:xlink="http://www.w3.org/1999/xlink" width="600" height="400" viewBox="0 0 2400 1600">
<defs>
  <clipPath id="clip060">
    <rect x="0" y="0" width="2400" height="1600"/>
  </clipPath>
</defs>
<path clip-path="url(#clip060)" d="
M0 1600 L2400 1600 L2400 0 L0 0  Z
  " fill="#ffffff" fill-rule="evenodd" fill-opacity="1"/>
<defs>
  <clipPath id="clip061">
    <rect x="480" y="0" width="1681" height="1600"/>
  </clipPath>
</defs>
<path clip-path="url(#clip060)" d="
M202.945 1410.9 L2352.76 1410.9 L2352.76 47.2441 L202.945 47.2441  Z
  " fill="#ffffff" fill-rule="evenodd" fill-opacity="1"/>
<defs>
  <clipPath id="clip062">
    <rect x="202" y="47" width="2151" height="1365"/>
  </clipPath>
</defs>
<polyline clip-path="url(#clip062)" style="stroke:#000000; stroke-width:2; stroke-opacity:0.1; fill:none" points="
  263.789,1410.9 263.789,47.2441 
  "/>
<polyline clip-path="url(#clip062)" style="stroke:#000000; stroke-width:2; stroke-opacity:0.1; fill:none" points="
  770.82,1410.9 770.82,47.2441 
  "/>
<polyline clip-path="url(#clip062)" style="stroke:#000000; stroke-width:2; stroke-opacity:0.1; fill:none" points="
  1277.85,1410.9 1277.85,47.2441 
  "/>
<polyline clip-path="url(#clip062)" style="stroke:#000000; stroke-width:2; stroke-opacity:0.1; fill:none" points="
  1784.88,1410.9 1784.88,47.2441 
  "/>
<polyline clip-path="url(#clip062)" style="stroke:#000000; stroke-width:2; stroke-opacity:0.1; fill:none" points="
  2291.91,1410.9 2291.91,47.2441 
  "/>
<polyline clip-path="url(#clip060)" style="stroke:#000000; stroke-width:4; stroke-opacity:1; fill:none" points="
  202.945,1410.9 2352.76,1410.9 
  "/>
<polyline clip-path="url(#clip060)" style="stroke:#000000; stroke-width:4; stroke-opacity:1; fill:none" points="
  263.789,1410.9 263.789,1394.53 
  "/>
<polyline clip-path="url(#clip060)" style="stroke:#000000; stroke-width:4; stroke-opacity:1; fill:none" points="
  770.82,1410.9 770.82,1394.53 
  "/>
<polyline clip-path="url(#clip060)" style="stroke:#000000; stroke-width:4; stroke-opacity:1; fill:none" points="
  1277.85,1410.9 1277.85,1394.53 
  "/>
<polyline clip-path="url(#clip060)" style="stroke:#000000; stroke-width:4; stroke-opacity:1; fill:none" points="
  1784.88,1410.9 1784.88,1394.53 
  "/>
<polyline clip-path="url(#clip060)" style="stroke:#000000; stroke-width:4; stroke-opacity:1; fill:none" points="
  2291.91,1410.9 2291.91,1394.53 
  "/>
<path clip-path="url(#clip060)" d="M 0 0 M191.576 1489.17 L199.214 1489.17 L199.214 1462.8 L190.904 1464.47 L190.904 1460.21 L199.168 1458.54 L203.844 1458.54 L203.844 1489.17 L211.483 1489.17 L211.483 1493.1 L191.576 1493.1 L191.576 1489.17 Z" fill="#000000" fill-rule="evenodd" fill-opacity="1" /><path clip-path="url(#clip060)" d="M 0 0 M226.552 1461.62 Q222.941 1461.62 221.112 1465.19 Q219.307 1468.73 219.307 1475.86 Q219.307 1482.97 221.112 1486.53 Q222.941 1490.07 226.552 1490.07 Q230.187 1490.07 231.992 1486.53 Q233.821 1482.97 233.821 1475.86 Q233.821 1468.73 231.992 1465.19 Q230.187 1461.62 226.552 1461.62 M226.552 1457.92 Q232.362 1457.92 235.418 1462.53 Q238.497 1467.11 238.497 1475.86 Q238.497 1484.59 235.418 1489.19 Q232.362 1493.78 226.552 1493.78 Q220.742 1493.78 217.663 1489.19 Q214.608 1484.59 214.608 1475.86 Q214.608 1467.11 217.663 1462.53 Q220.742 1457.92 226.552 1457.92 Z" fill="#000000" fill-rule="evenodd" fill-opacity="1" /><path clip-path="url(#clip060)" d="M 0 0 M238.497 1452.02 L262.608 1452.02 L262.608 1455.22 L238.497 1455.22 L238.497 1452.02 Z" fill="#000000" fill-rule="evenodd" fill-opacity="1" /><path clip-path="url(#clip060)" d="M 0 0 M275.322 1450.14 Q272.764 1450.14 271.26 1451.89 Q269.774 1453.64 269.774 1456.68 Q269.774 1459.71 271.26 1461.48 Q272.764 1463.23 275.322 1463.23 Q277.88 1463.23 279.366 1461.48 Q280.871 1459.71 280.871 1456.68 Q280.871 1453.64 279.366 1451.89 Q277.88 1450.14 275.322 1450.14 M282.864 1438.23 L282.864 1441.69 Q281.435 1441.02 279.968 1440.66 Q278.52 1440.3 277.09 1440.3 Q273.329 1440.3 271.335 1442.84 Q269.36 1445.38 269.078 1450.52 Q270.188 1448.88 271.862 1448.01 Q273.536 1447.13 275.548 1447.13 Q279.78 1447.13 282.225 1449.71 Q284.689 1452.26 284.689 1456.68 Q284.689 1461.01 282.131 1463.62 Q279.573 1466.24 275.322 1466.24 Q270.451 1466.24 267.874 1462.51 Q265.298 1458.77 265.298 1451.68 Q265.298 1445.02 268.457 1441.07 Q271.617 1437.11 276.94 1437.11 Q278.369 1437.11 279.817 1437.39 Q281.284 1437.67 282.864 1438.23 Z" fill="#000000" fill-rule="evenodd" fill-opacity="1" /><path clip-path="url(#clip060)" d="M 0 0 M288.807 1460.92 L292.776 1460.92 L292.776 1465.69 L288.807 1465.69 L288.807 1460.92 Z" fill="#000000" fill-rule="evenodd" fill-opacity="1" /><path clip-path="url(#clip060)" d="M 0 0 M305.02 1440.11 Q302.086 1440.11 300.6 1443.01 Q299.133 1445.89 299.133 1451.68 Q299.133 1457.46 300.6 1460.35 Q302.086 1463.23 305.02 1463.23 Q307.973 1463.23 309.44 1460.35 Q310.925 1457.46 310.925 1451.68 Q310.925 1445.89 309.44 1443.01 Q307.973 1440.11 305.02 1440.11 M305.02 1437.11 Q309.74 1437.11 312.223 1440.85 Q314.725 1444.57 314.725 1451.68 Q314.725 1458.77 312.223 1462.51 Q309.74 1466.24 305.02 1466.24 Q300.299 1466.24 297.798 1462.51 Q295.315 1458.77 295.315 1451.68 Q295.315 1444.57 297.798 1440.85 Q300.299 1437.11 305.02 1437.11 Z" fill="#000000" fill-rule="evenodd" fill-opacity="1" /><path clip-path="url(#clip060)" d="M 0 0 M326.968 1440.11 Q324.034 1440.11 322.549 1443.01 Q321.082 1445.89 321.082 1451.68 Q321.082 1457.46 322.549 1460.35 Q324.034 1463.23 326.968 1463.23 Q329.921 1463.23 331.388 1460.35 Q332.874 1457.46 332.874 1451.68 Q332.874 1445.89 331.388 1443.01 Q329.921 1440.11 326.968 1440.11 M326.968 1437.11 Q331.689 1437.11 334.172 1440.85 Q336.673 1444.57 336.673 1451.68 Q336.673 1458.77 334.172 1462.51 Q331.689 1466.24 326.968 1466.24 Q322.248 1466.24 319.746 1462.51 Q317.264 1458.77 317.264 1451.68 Q317.264 1444.57 319.746 1440.85 Q322.248 1437.11 326.968 1437.11 Z" fill="#000000" fill-rule="evenodd" fill-opacity="1" /><path clip-path="url(#clip060)" d="M 0 0 M699.848 1489.17 L707.487 1489.17 L707.487 1462.8 L699.176 1464.47 L699.176 1460.21 L707.44 1458.54 L712.116 1458.54 L712.116 1489.17 L719.755 1489.17 L719.755 1493.1 L699.848 1493.1 L699.848 1489.17 Z" fill="#000000" fill-rule="evenodd" fill-opacity="1" /><path clip-path="url(#clip060)" d="M 0 0 M734.824 1461.62 Q731.213 1461.62 729.385 1465.19 Q727.579 1468.73 727.579 1475.86 Q727.579 1482.97 729.385 1486.53 Q731.213 1490.07 734.824 1490.07 Q738.459 1490.07 740.264 1486.53 Q742.093 1482.97 742.093 1475.86 Q742.093 1468.73 740.264 1465.19 Q738.459 1461.62 734.824 1461.62 M734.824 1457.92 Q740.635 1457.92 743.69 1462.53 Q746.769 1467.11 746.769 1475.86 Q746.769 1484.59 743.69 1489.19 Q740.635 1493.78 734.824 1493.78 Q729.014 1493.78 725.936 1489.19 Q722.88 1484.59 722.88 1475.86 Q722.88 1467.11 725.936 1462.53 Q729.014 1457.92 734.824 1457.92 Z" fill="#000000" fill-rule="evenodd" fill-opacity="1" /><path clip-path="url(#clip060)" d="M 0 0 M746.769 1452.02 L770.88 1452.02 L770.88 1455.22 L746.769 1455.22 L746.769 1452.02 Z" fill="#000000" fill-rule="evenodd" fill-opacity="1" /><path clip-path="url(#clip060)" d="M 0 0 M775.037 1437.61 L789.951 1437.61 L789.951 1440.81 L778.516 1440.81 L778.516 1447.69 Q779.344 1447.41 780.171 1447.28 Q780.999 1447.13 781.827 1447.13 Q786.528 1447.13 789.274 1449.71 Q792.02 1452.28 792.02 1456.68 Q792.02 1461.22 789.199 1463.74 Q786.378 1466.24 781.243 1466.24 Q779.476 1466.24 777.632 1465.94 Q775.808 1465.64 773.852 1465.04 L773.852 1461.22 Q775.545 1462.14 777.35 1462.59 Q779.156 1463.04 781.168 1463.04 Q784.422 1463.04 786.322 1461.33 Q788.221 1459.62 788.221 1456.68 Q788.221 1453.75 786.322 1452.04 Q784.422 1450.33 781.168 1450.33 Q779.645 1450.33 778.121 1450.67 Q776.617 1451 775.037 1451.72 L775.037 1437.61 Z" fill="#000000" fill-rule="evenodd" fill-opacity="1" /><path clip-path="url(#clip060)" d="M 0 0 M796.139 1460.92 L800.108 1460.92 L800.108 1465.69 L796.139 1465.69 L796.139 1460.92 Z" fill="#000000" fill-rule="evenodd" fill-opacity="1" /><path clip-path="url(#clip060)" d="M 0 0 M803.267 1437.61 L821.323 1437.61 L821.323 1439.23 L811.129 1465.69 L807.161 1465.69 L816.753 1440.81 L803.267 1440.81 L803.267 1437.61 Z" fill="#000000" fill-rule="evenodd" fill-opacity="1" /><path clip-path="url(#clip060)" d="M 0 0 M825.479 1437.61 L840.394 1437.61 L840.394 1440.81 L828.959 1440.81 L828.959 1447.69 Q829.786 1447.41 830.614 1447.28 Q831.441 1447.13 832.269 1447.13 Q836.971 1447.13 839.717 1449.71 Q842.463 1452.28 842.463 1456.68 Q842.463 1461.22 839.642 1463.74 Q836.82 1466.24 831.686 1466.24 Q829.918 1466.24 828.075 1465.94 Q826.25 1465.64 824.294 1465.04 L824.294 1461.22 Q825.987 1462.14 827.793 1462.59 Q829.598 1463.04 831.611 1463.04 Q834.864 1463.04 836.764 1461.33 Q838.664 1459.62 838.664 1456.68 Q838.664 1453.75 836.764 1452.04 Q834.864 1450.33 831.611 1450.33 Q830.087 1450.33 828.564 1450.67 Q827.059 1451 825.479 1451.72 L825.479 1437.61 Z" fill="#000000" fill-rule="evenodd" fill-opacity="1" /><path clip-path="url(#clip060)" d="M 0 0 M1206.51 1489.17 L1214.15 1489.17 L1214.15 1462.8 L1205.84 1464.47 L1205.84 1460.21 L1214.1 1458.54 L1218.78 1458.54 L1218.78 1489.17 L1226.42 1489.17 L1226.42 1493.1 L1206.51 1493.1 L1206.51 1489.17 Z" fill="#000000" fill-rule="evenodd" fill-opacity="1" /><path clip-path="url(#clip060)" d="M 0 0 M1241.49 1461.62 Q1237.88 1461.62 1236.05 1465.19 Q1234.24 1468.73 1234.24 1475.86 Q1234.24 1482.97 1236.05 1486.53 Q1237.88 1490.07 1241.49 1490.07 Q1245.12 1490.07 1246.93 1486.53 Q1248.76 1482.97 1248.76 1475.86 Q1248.76 1468.73 1246.93 1465.19 Q1245.12 1461.62 1241.49 1461.62 M1241.49 1457.92 Q1247.3 1457.92 1250.35 1462.53 Q1253.43 1467.11 1253.43 1475.86 Q1253.43 1484.59 1250.35 1489.19 Q1247.3 1493.78 1241.49 1493.78 Q1235.68 1493.78 1232.6 1489.19 Q1229.54 1484.59 1229.54 1475.86 Q1229.54 1467.11 1232.6 1462.53 Q1235.68 1457.92 1241.49 1457.92 Z" fill="#000000" fill-rule="evenodd" fill-opacity="1" /><path clip-path="url(#clip060)" d="M 0 0 M1253.43 1452.02 L1277.54 1452.02 L1277.54 1455.22 L1253.43 1455.22 L1253.43 1452.02 Z" fill="#000000" fill-rule="evenodd" fill-opacity="1" /><path clip-path="url(#clip060)" d="M 0 0 M1281.7 1437.61 L1296.62 1437.61 L1296.62 1440.81 L1285.18 1440.81 L1285.18 1447.69 Q1286.01 1447.41 1286.84 1447.28 Q1287.66 1447.13 1288.49 1447.13 Q1293.19 1447.13 1295.94 1449.71 Q1298.68 1452.28 1298.68 1456.68 Q1298.68 1461.22 1295.86 1463.74 Q1293.04 1466.24 1287.91 1466.24 Q1286.14 1466.24 1284.3 1465.94 Q1282.47 1465.64 1280.52 1465.04 L1280.52 1461.22 Q1282.21 1462.14 1284.01 1462.59 Q1285.82 1463.04 1287.83 1463.04 Q1291.09 1463.04 1292.99 1461.33 Q1294.89 1459.62 1294.89 1456.68 Q1294.89 1453.75 1292.99 1452.04 Q1291.09 1450.33 1287.83 1450.33 Q1286.31 1450.33 1284.79 1450.67 Q1283.28 1451 1281.7 1451.72 L1281.7 1437.61 Z" fill="#000000" fill-rule="evenodd" fill-opacity="1" /><path clip-path="url(#clip060)" d="M 0 0 M1302.8 1460.92 L1306.77 1460.92 L1306.77 1465.69 L1302.8 1465.69 L1302.8 1460.92 Z" fill="#000000" fill-rule="evenodd" fill-opacity="1" /><path clip-path="url(#clip060)" d="M 0 0 M1310.93 1437.61 L1325.84 1437.61 L1325.84 1440.81 L1314.41 1440.81 L1314.41 1447.69 Q1315.24 1447.41 1316.06 1447.28 Q1316.89 1447.13 1317.72 1447.13 Q1322.42 1447.13 1325.17 1449.71 Q1327.91 1452.28 1327.91 1456.68 Q1327.91 1461.22 1325.09 1463.74 Q1322.27 1466.24 1317.13 1466.24 Q1315.37 1466.24 1313.52 1465.94 Q1311.7 1465.64 1309.74 1465.04 L1309.74 1461.22 Q1311.44 1462.14 1313.24 1462.59 Q1315.05 1463.04 1317.06 1463.04 Q1320.31 1463.04 1322.21 1461.33 Q1324.11 1459.62 1324.11 1456.68 Q1324.11 1453.75 1322.21 1452.04 Q1320.31 1450.33 1317.06 1450.33 Q1315.54 1450.33 1314.01 1450.67 Q1312.51 1451 1310.93 1451.72 L1310.93 1437.61 Z" fill="#000000" fill-rule="evenodd" fill-opacity="1" /><path clip-path="url(#clip060)" d="M 0 0 M1340.16 1440.11 Q1337.22 1440.11 1335.74 1443.01 Q1334.27 1445.89 1334.27 1451.68 Q1334.27 1457.46 1335.74 1460.35 Q1337.22 1463.23 1340.16 1463.23 Q1343.11 1463.23 1344.58 1460.35 Q1346.06 1457.46 1346.06 1451.68 Q1346.06 1445.89 1344.58 1443.01 Q1343.11 1440.11 1340.16 1440.11 M1340.16 1437.11 Q1344.88 1437.11 1347.36 1440.85 Q1349.86 1444.57 1349.86 1451.68 Q1349.86 1458.77 1347.36 1462.51 Q1344.88 1466.24 1340.16 1466.24 Q1335.43 1466.24 1332.93 1462.51 Q1330.45 1458.77 1330.45 1451.68 Q1330.45 1444.57 1332.93 1440.85 Q1335.43 1437.11 1340.16 1437.11 Z" fill="#000000" fill-rule="evenodd" fill-opacity="1" /><path clip-path="url(#clip060)" d="M 0 0 M1714.19 1489.17 L1721.83 1489.17 L1721.83 1462.8 L1713.52 1464.47 L1713.52 1460.21 L1721.78 1458.54 L1726.46 1458.54 L1726.46 1489.17 L1734.1 1489.17 L1734.1 1493.1 L1714.19 1493.1 L1714.19 1489.17 Z" fill="#000000" fill-rule="evenodd" fill-opacity="1" /><path clip-path="url(#clip060)" d="M 0 0 M1749.17 1461.62 Q1745.56 1461.62 1743.73 1465.19 Q1741.92 1468.73 1741.92 1475.86 Q1741.92 1482.97 1743.73 1486.53 Q1745.56 1490.07 1749.17 1490.07 Q1752.8 1490.07 1754.61 1486.53 Q1756.44 1482.97 1756.44 1475.86 Q1756.44 1468.73 1754.61 1465.19 Q1752.8 1461.62 1749.17 1461.62 M1749.17 1457.92 Q1754.98 1457.92 1758.03 1462.53 Q1761.11 1467.11 1761.11 1475.86 Q1761.11 1484.59 1758.03 1489.19 Q1754.98 1493.78 1749.17 1493.78 Q1743.36 1493.78 1740.28 1489.19 Q1737.22 1484.59 1737.22 1475.86 Q1737.22 1467.11 1740.28 1462.53 Q1743.36 1457.92 1749.17 1457.92 Z" fill="#000000" fill-rule="evenodd" fill-opacity="1" /><path clip-path="url(#clip060)" d="M 0 0 M1761.11 1452.02 L1785.22 1452.02 L1785.22 1455.22 L1761.11 1455.22 L1761.11 1452.02 Z" fill="#000000" fill-rule="evenodd" fill-opacity="1" /><path clip-path="url(#clip060)" d="M 0 0 M1789.38 1437.61 L1804.3 1437.61 L1804.3 1440.81 L1792.86 1440.81 L1792.86 1447.69 Q1793.69 1447.41 1794.52 1447.28 Q1795.34 1447.13 1796.17 1447.13 Q1800.87 1447.13 1803.62 1449.71 Q1806.36 1452.28 1806.36 1456.68 Q1806.36 1461.22 1803.54 1463.74 Q1800.72 1466.24 1795.59 1466.24 Q1793.82 1466.24 1791.98 1465.94 Q1790.15 1465.64 1788.2 1465.04 L1788.2 1461.22 Q1789.89 1462.14 1791.69 1462.59 Q1793.5 1463.04 1795.51 1463.04 Q1798.77 1463.04 1800.67 1461.33 Q1802.56 1459.62 1802.56 1456.68 Q1802.56 1453.75 1800.67 1452.04 Q1798.77 1450.33 1795.51 1450.33 Q1793.99 1450.33 1792.47 1450.67 Q1790.96 1451 1789.38 1451.72 L1789.38 1437.61 Z" fill="#000000" fill-rule="evenodd" fill-opacity="1" /><path clip-path="url(#clip060)" d="M 0 0 M1810.48 1460.92 L1814.45 1460.92 L1814.45 1465.69 L1810.48 1465.69 L1810.48 1460.92 Z" fill="#000000" fill-rule="evenodd" fill-opacity="1" /><path clip-path="url(#clip060)" d="M 0 0 M1821.84 1462.5 L1835.1 1462.5 L1835.1 1465.69 L1817.27 1465.69 L1817.27 1462.5 Q1819.44 1460.26 1823.16 1456.5 Q1826.9 1452.72 1827.86 1451.63 Q1829.69 1449.58 1830.4 1448.16 Q1831.13 1446.74 1831.13 1445.36 Q1831.13 1443.12 1829.55 1441.71 Q1827.99 1440.3 1825.47 1440.3 Q1823.69 1440.3 1821.69 1440.92 Q1819.72 1441.54 1817.46 1442.8 L1817.46 1438.97 Q1819.76 1438.05 1821.75 1437.58 Q1823.74 1437.11 1825.4 1437.11 Q1829.76 1437.11 1832.36 1439.29 Q1834.95 1441.47 1834.95 1445.12 Q1834.95 1446.85 1834.29 1448.41 Q1833.65 1449.95 1831.94 1452.06 Q1831.47 1452.6 1828.95 1455.22 Q1826.43 1457.81 1821.84 1462.5 Z" fill="#000000" fill-rule="evenodd" fill-opacity="1" /><path clip-path="url(#clip060)" d="M 0 0 M1839.26 1437.61 L1854.17 1437.61 L1854.17 1440.81 L1842.74 1440.81 L1842.74 1447.69 Q1843.57 1447.41 1844.39 1447.28 Q1845.22 1447.13 1846.05 1447.13 Q1850.75 1447.13 1853.5 1449.71 Q1856.24 1452.28 1856.24 1456.68 Q1856.24 1461.22 1853.42 1463.74 Q1850.6 1466.24 1845.47 1466.24 Q1843.7 1466.24 1841.85 1465.94 Q1840.03 1465.64 1838.07 1465.04 L1838.07 1461.22 Q1839.77 1462.14 1841.57 1462.59 Q1843.38 1463.04 1845.39 1463.04 Q1848.64 1463.04 1850.54 1461.33 Q1852.44 1459.62 1852.44 1456.68 Q1852.44 1453.75 1850.54 1452.04 Q1848.64 1450.33 1845.39 1450.33 Q1843.87 1450.33 1842.34 1450.67 Q1840.84 1451 1839.26 1451.72 L1839.26 1437.61 Z" fill="#000000" fill-rule="evenodd" fill-opacity="1" /><path clip-path="url(#clip060)" d="M 0 0 M2220.17 1489.17 L2227.81 1489.17 L2227.81 1462.8 L2219.5 1464.47 L2219.5 1460.21 L2227.76 1458.54 L2232.44 1458.54 L2232.44 1489.17 L2240.08 1489.17 L2240.08 1493.1 L2220.17 1493.1 L2220.17 1489.17 Z" fill="#000000" fill-rule="evenodd" fill-opacity="1" /><path clip-path="url(#clip060)" d="M 0 0 M2255.15 1461.62 Q2251.53 1461.62 2249.71 1465.19 Q2247.9 1468.73 2247.9 1475.86 Q2247.9 1482.97 2249.71 1486.53 Q2251.53 1490.07 2255.15 1490.07 Q2258.78 1490.07 2260.59 1486.53 Q2262.41 1482.97 2262.41 1475.86 Q2262.41 1468.73 2260.59 1465.19 Q2258.78 1461.62 2255.15 1461.62 M2255.15 1457.92 Q2260.96 1457.92 2264.01 1462.53 Q2267.09 1467.11 2267.09 1475.86 Q2267.09 1484.59 2264.01 1489.19 Q2260.96 1493.78 2255.15 1493.78 Q2249.34 1493.78 2246.26 1489.19 Q2243.2 1484.59 2243.2 1475.86 Q2243.2 1467.11 2246.26 1462.53 Q2249.34 1457.92 2255.15 1457.92 Z" fill="#000000" fill-rule="evenodd" fill-opacity="1" /><path clip-path="url(#clip060)" d="M 0 0 M2267.09 1452.02 L2291.2 1452.02 L2291.2 1455.22 L2267.09 1455.22 L2267.09 1452.02 Z" fill="#000000" fill-rule="evenodd" fill-opacity="1" /><path clip-path="url(#clip060)" d="M 0 0 M2295.36 1437.61 L2310.27 1437.61 L2310.27 1440.81 L2298.84 1440.81 L2298.84 1447.69 Q2299.67 1447.41 2300.49 1447.28 Q2301.32 1447.13 2302.15 1447.13 Q2306.85 1447.13 2309.6 1449.71 Q2312.34 1452.28 2312.34 1456.68 Q2312.34 1461.22 2309.52 1463.74 Q2306.7 1466.24 2301.56 1466.24 Q2299.8 1466.24 2297.95 1465.94 Q2296.13 1465.64 2294.17 1465.04 L2294.17 1461.22 Q2295.87 1462.14 2297.67 1462.59 Q2299.48 1463.04 2301.49 1463.04 Q2304.74 1463.04 2306.64 1461.33 Q2308.54 1459.62 2308.54 1456.68 Q2308.54 1453.75 2306.64 1452.04 Q2304.74 1450.33 2301.49 1450.33 Q2299.97 1450.33 2298.44 1450.67 Q2296.94 1451 2295.36 1451.72 L2295.36 1437.61 Z" fill="#000000" fill-rule="evenodd" fill-opacity="1" /><path clip-path="url(#clip060)" d="M 0 0 M2316.46 1460.92 L2320.43 1460.92 L2320.43 1465.69 L2316.46 1465.69 L2316.46 1460.92 Z" fill="#000000" fill-rule="evenodd" fill-opacity="1" /><path clip-path="url(#clip060)" d="M 0 0 M2332.67 1440.11 Q2329.74 1440.11 2328.25 1443.01 Q2326.79 1445.89 2326.79 1451.68 Q2326.79 1457.46 2328.25 1460.35 Q2329.74 1463.23 2332.67 1463.23 Q2335.63 1463.23 2337.09 1460.35 Q2338.58 1457.46 2338.58 1451.68 Q2338.58 1445.89 2337.09 1443.01 Q2335.63 1440.11 2332.67 1440.11 M2332.67 1437.11 Q2337.39 1437.11 2339.88 1440.85 Q2342.38 1444.57 2342.38 1451.68 Q2342.38 1458.77 2339.88 1462.51 Q2337.39 1466.24 2332.67 1466.24 Q2327.95 1466.24 2325.45 1462.51 Q2322.97 1458.77 2322.97 1451.68 Q2322.97 1444.57 2325.45 1440.85 Q2327.95 1437.11 2332.67 1437.11 Z" fill="#000000" fill-rule="evenodd" fill-opacity="1" /><path clip-path="url(#clip060)" d="M 0 0 M2354.62 1440.11 Q2351.69 1440.11 2350.2 1443.01 Q2348.73 1445.89 2348.73 1451.68 Q2348.73 1457.46 2350.2 1460.35 Q2351.69 1463.23 2354.62 1463.23 Q2357.57 1463.23 2359.04 1460.35 Q2360.53 1457.46 2360.53 1451.68 Q2360.53 1445.89 2359.04 1443.01 Q2357.57 1440.11 2354.62 1440.11 M2354.62 1437.11 Q2359.34 1437.11 2361.83 1440.85 Q2364.33 1444.57 2364.33 1451.68 Q2364.33 1458.77 2361.83 1462.51 Q2359.34 1466.24 2354.62 1466.24 Q2349.9 1466.24 2347.4 1462.51 Q2344.92 1458.77 2344.92 1451.68 Q2344.92 1444.57 2347.4 1440.85 Q2349.9 1437.11 2354.62 1437.11 Z" fill="#000000" fill-rule="evenodd" fill-opacity="1" /><path clip-path="url(#clip060)" d="M 0 0 M1170.62 1526.54 L1176.83 1526.54 L1187.97 1556.46 L1199.11 1526.54 L1205.31 1526.54 L1191.95 1562.19 L1183.99 1562.19 L1170.62 1526.54 Z" fill="#000000" fill-rule="evenodd" fill-opacity="1" /><path clip-path="url(#clip060)" d="M 0 0 M1238.54 1573.01 L1238.54 1577.56 L1204.68 1577.56 L1204.68 1573.01 L1238.54 1573.01 Z" fill="#000000" fill-rule="evenodd" fill-opacity="1" /><path clip-path="url(#clip060)" d="M 0 0 M1258.5 1530.64 Q1253.79 1530.64 1251.05 1534.34 Q1248.31 1538 1248.31 1544.39 Q1248.31 1550.79 1251.02 1554.48 Q1253.76 1558.14 1258.5 1558.14 Q1263.18 1558.14 1265.91 1554.45 Q1268.65 1550.76 1268.65 1544.39 Q1268.65 1538.06 1265.91 1534.37 Q1263.18 1530.64 1258.5 1530.64 M1258.5 1525.68 Q1266.14 1525.68 1270.5 1530.64 Q1274.86 1535.61 1274.86 1544.39 Q1274.86 1553.15 1270.5 1558.14 Q1266.14 1563.11 1258.5 1563.11 Q1250.83 1563.11 1246.47 1558.14 Q1242.14 1553.15 1242.14 1544.39 Q1242.14 1535.61 1246.47 1530.64 Q1250.83 1525.68 1258.5 1525.68 Z" fill="#000000" fill-rule="evenodd" fill-opacity="1" /><path clip-path="url(#clip060)" d="M 0 0 M1286.67 1556.84 L1286.67 1575.74 L1280.78 1575.74 L1280.78 1526.54 L1286.67 1526.54 L1286.67 1531.95 Q1288.51 1528.77 1291.31 1527.24 Q1294.15 1525.68 1298.06 1525.68 Q1304.55 1525.68 1308.6 1530.83 Q1312.67 1535.99 1312.67 1544.39 Q1312.67 1552.8 1308.6 1557.95 Q1304.55 1563.11 1298.06 1563.11 Q1294.15 1563.11 1291.31 1561.58 Q1288.51 1560.02 1286.67 1556.84 M1306.59 1544.39 Q1306.59 1537.93 1303.92 1534.27 Q1301.28 1530.58 1296.63 1530.58 Q1291.98 1530.58 1289.31 1534.27 Q1286.67 1537.93 1286.67 1544.39 Q1286.67 1550.85 1289.31 1554.55 Q1291.98 1558.21 1296.63 1558.21 Q1301.28 1558.21 1303.92 1554.55 Q1306.59 1550.85 1306.59 1544.39 Z" fill="#000000" fill-rule="evenodd" fill-opacity="1" /><path clip-path="url(#clip060)" d="M 0 0 M1349.31 1542.9 L1349.31 1545.76 L1322.38 1545.76 Q1322.76 1551.81 1326.01 1554.99 Q1329.29 1558.14 1335.11 1558.14 Q1338.48 1558.14 1341.63 1557.32 Q1344.82 1556.49 1347.94 1554.83 L1347.94 1560.37 Q1344.79 1561.71 1341.48 1562.41 Q1338.17 1563.11 1334.76 1563.11 Q1326.23 1563.11 1321.23 1558.14 Q1316.27 1553.18 1316.27 1544.71 Q1316.27 1535.96 1320.98 1530.83 Q1325.72 1525.68 1333.74 1525.68 Q1340.93 1525.68 1345.1 1530.33 Q1349.31 1534.94 1349.31 1542.9 M1343.45 1541.18 Q1343.39 1536.37 1340.74 1533.51 Q1338.13 1530.64 1333.81 1530.64 Q1328.9 1530.64 1325.94 1533.41 Q1323.02 1536.18 1322.57 1541.21 L1343.45 1541.18 Z" fill="#000000" fill-rule="evenodd" fill-opacity="1" /><path clip-path="url(#clip060)" d="M 0 0 M1385.08 1540.67 L1385.08 1562.19 L1379.22 1562.19 L1379.22 1540.86 Q1379.22 1535.8 1377.25 1533.29 Q1375.28 1530.77 1371.33 1530.77 Q1366.59 1530.77 1363.85 1533.79 Q1361.11 1536.82 1361.11 1542.04 L1361.11 1562.19 L1355.23 1562.19 L1355.23 1526.54 L1361.11 1526.54 L1361.11 1532.08 Q1363.21 1528.86 1366.05 1527.27 Q1368.91 1525.68 1372.64 1525.68 Q1378.78 1525.68 1381.93 1529.5 Q1385.08 1533.29 1385.08 1540.67 Z" fill="#000000" fill-rule="evenodd" fill-opacity="1" /><polyline clip-path="url(#clip062)" style="stroke:#000000; stroke-width:2; stroke-opacity:0.1; fill:none" points="
  202.945,1398.75 2352.76,1398.75 
  "/>
<polyline clip-path="url(#clip062)" style="stroke:#000000; stroke-width:2; stroke-opacity:0.1; fill:none" points="
  202.945,1051.56 2352.76,1051.56 
  "/>
<polyline clip-path="url(#clip062)" style="stroke:#000000; stroke-width:2; stroke-opacity:0.1; fill:none" points="
  202.945,704.379 2352.76,704.379 
  "/>
<polyline clip-path="url(#clip062)" style="stroke:#000000; stroke-width:2; stroke-opacity:0.1; fill:none" points="
  202.945,357.195 2352.76,357.195 
  "/>
<polyline clip-path="url(#clip060)" style="stroke:#000000; stroke-width:4; stroke-opacity:1; fill:none" points="
  202.945,1410.9 202.945,47.2441 
  "/>
<polyline clip-path="url(#clip060)" style="stroke:#000000; stroke-width:4; stroke-opacity:1; fill:none" points="
  202.945,1398.75 228.743,1398.75 
  "/>
<polyline clip-path="url(#clip060)" style="stroke:#000000; stroke-width:4; stroke-opacity:1; fill:none" points="
  202.945,1051.56 228.743,1051.56 
  "/>
<polyline clip-path="url(#clip060)" style="stroke:#000000; stroke-width:4; stroke-opacity:1; fill:none" points="
  202.945,704.379 228.743,704.379 
  "/>
<polyline clip-path="url(#clip060)" style="stroke:#000000; stroke-width:4; stroke-opacity:1; fill:none" points="
  202.945,357.195 228.743,357.195 
  "/>
<path clip-path="url(#clip060)" d="M 0 0 M131.945 1385.54 L120.14 1403.99 L131.945 1403.99 L131.945 1385.54 M130.718 1381.47 L136.598 1381.47 L136.598 1403.99 L141.529 1403.99 L141.529 1407.88 L136.598 1407.88 L136.598 1416.03 L131.945 1416.03 L131.945 1407.88 L116.343 1407.88 L116.343 1403.37 L130.718 1381.47 Z" fill="#000000" fill-rule="evenodd" fill-opacity="1" /><path clip-path="url(#clip060)" d="M 0 0 M150.626 1412.09 L166.945 1412.09 L166.945 1416.03 L145.001 1416.03 L145.001 1412.09 Q147.663 1409.34 152.246 1404.71 Q156.853 1400.05 158.033 1398.71 Q160.278 1396.19 161.158 1394.45 Q162.061 1392.69 162.061 1391 Q162.061 1388.25 160.116 1386.51 Q158.195 1384.78 155.093 1384.78 Q152.894 1384.78 150.441 1385.54 Q148.01 1386.3 145.232 1387.86 L145.232 1383.13 Q148.056 1382 150.51 1381.42 Q152.964 1380.84 155.001 1380.84 Q160.371 1380.84 163.565 1383.53 Q166.76 1386.21 166.76 1390.7 Q166.76 1392.83 165.95 1394.75 Q165.163 1396.65 163.056 1399.24 Q162.477 1399.92 159.376 1403.13 Q156.274 1406.33 150.626 1412.09 Z" fill="#000000" fill-rule="evenodd" fill-opacity="1" /><path clip-path="url(#clip060)" d="M 0 0 M129.862 1038.36 L118.056 1056.81 L129.862 1056.81 L129.862 1038.36 M128.635 1034.28 L134.515 1034.28 L134.515 1056.81 L139.445 1056.81 L139.445 1060.69 L134.515 1060.69 L134.515 1068.84 L129.862 1068.84 L129.862 1060.69 L114.26 1060.69 L114.26 1056.18 L128.635 1034.28 Z" fill="#000000" fill-rule="evenodd" fill-opacity="1" /><path clip-path="url(#clip060)" d="M 0 0 M157.362 1038.36 L145.556 1056.81 L157.362 1056.81 L157.362 1038.36 M156.135 1034.28 L162.015 1034.28 L162.015 1056.81 L166.945 1056.81 L166.945 1060.69 L162.015 1060.69 L162.015 1068.84 L157.362 1068.84 L157.362 1060.69 L141.76 1060.69 L141.76 1056.18 L156.135 1034.28 Z" fill="#000000" fill-rule="evenodd" fill-opacity="1" /><path clip-path="url(#clip060)" d="M 0 0 M130.186 691.173 L118.381 709.622 L130.186 709.622 L130.186 691.173 M128.959 687.099 L134.839 687.099 L134.839 709.622 L139.769 709.622 L139.769 713.511 L134.839 713.511 L134.839 721.659 L130.186 721.659 L130.186 713.511 L114.584 713.511 L114.584 708.997 L128.959 687.099 Z" fill="#000000" fill-rule="evenodd" fill-opacity="1" /><path clip-path="url(#clip060)" d="M 0 0 M155.417 702.515 Q152.269 702.515 150.417 704.668 Q148.589 706.821 148.589 710.571 Q148.589 714.298 150.417 716.474 Q152.269 718.626 155.417 718.626 Q158.565 718.626 160.394 716.474 Q162.246 714.298 162.246 710.571 Q162.246 706.821 160.394 704.668 Q158.565 702.515 155.417 702.515 M164.7 687.863 L164.7 692.122 Q162.94 691.289 161.135 690.849 Q159.353 690.409 157.593 690.409 Q152.964 690.409 150.51 693.534 Q148.079 696.659 147.732 702.978 Q149.098 700.965 151.158 699.9 Q153.218 698.812 155.695 698.812 Q160.903 698.812 163.913 701.983 Q166.945 705.131 166.945 710.571 Q166.945 715.895 163.797 719.113 Q160.649 722.33 155.417 722.33 Q149.422 722.33 146.251 717.747 Q143.079 713.14 143.079 704.414 Q143.079 696.219 146.968 691.358 Q150.857 686.474 157.408 686.474 Q159.167 686.474 160.95 686.821 Q162.755 687.168 164.7 687.863 Z" fill="#000000" fill-rule="evenodd" fill-opacity="1" /><path clip-path="url(#clip060)" d="M 0 0 M130.441 343.989 L118.635 362.438 L130.441 362.438 L130.441 343.989 M129.214 339.915 L135.093 339.915 L135.093 362.438 L140.024 362.438 L140.024 366.327 L135.093 366.327 L135.093 374.475 L130.441 374.475 L130.441 366.327 L114.839 366.327 L114.839 361.813 L129.214 339.915 Z" fill="#000000" fill-rule="evenodd" fill-opacity="1" /><path clip-path="url(#clip060)" d="M 0 0 M155.093 358.063 Q151.76 358.063 149.839 359.845 Q147.941 361.628 147.941 364.753 Q147.941 367.878 149.839 369.66 Q151.76 371.442 155.093 371.442 Q158.427 371.442 160.348 369.66 Q162.269 367.854 162.269 364.753 Q162.269 361.628 160.348 359.845 Q158.45 358.063 155.093 358.063 M150.417 356.072 Q147.408 355.331 145.718 353.271 Q144.052 351.211 144.052 348.248 Q144.052 344.105 146.991 341.697 Q149.954 339.29 155.093 339.29 Q160.255 339.29 163.195 341.697 Q166.135 344.105 166.135 348.248 Q166.135 351.211 164.445 353.271 Q162.778 355.331 159.792 356.072 Q163.172 356.859 165.047 359.151 Q166.945 361.442 166.945 364.753 Q166.945 369.776 163.866 372.461 Q160.811 375.146 155.093 375.146 Q149.376 375.146 146.297 372.461 Q143.241 369.776 143.241 364.753 Q143.241 361.442 145.14 359.151 Q147.038 356.859 150.417 356.072 M148.704 348.688 Q148.704 351.373 150.371 352.878 Q152.061 354.382 155.093 354.382 Q158.103 354.382 159.792 352.878 Q161.505 351.373 161.505 348.688 Q161.505 346.003 159.792 344.498 Q158.103 342.993 155.093 342.993 Q152.061 342.993 150.371 344.498 Q148.704 346.003 148.704 348.688 Z" fill="#000000" fill-rule="evenodd" fill-opacity="1" /><path clip-path="url(#clip060)" d="M 0 0 M59.1993 815.533 Q55.2526 813.336 53.3747 810.281 Q51.4968 807.225 51.4968 803.088 Q51.4968 797.518 55.4117 794.494 Q59.2948 791.47 66.4881 791.47 L88.0042 791.47 L88.0042 797.358 L66.679 797.358 Q61.5546 797.358 59.072 799.173 Q56.5894 800.987 56.5894 804.711 Q56.5894 809.262 59.6131 811.904 Q62.6368 814.546 67.8567 814.546 L88.0042 814.546 L88.0042 820.434 L66.679 820.434 Q61.5228 820.434 59.072 822.248 Q56.5894 824.063 56.5894 827.85 Q56.5894 832.338 59.6449 834.98 Q62.6686 837.622 67.8567 837.622 L88.0042 837.622 L88.0042 843.51 L52.3562 843.51 L52.3562 837.622 L57.8944 837.622 Q54.616 835.616 53.0564 832.815 Q51.4968 830.015 51.4968 826.163 Q51.4968 822.28 53.4702 819.575 Q55.4436 816.838 59.1993 815.533 Z" fill="#000000" fill-rule="evenodd" fill-opacity="1" /><path clip-path="url(#clip060)" d="M 0 0 M52.3562 785.327 L52.3562 779.471 L88.0042 779.471 L88.0042 785.327 L52.3562 785.327 M38.479 785.327 L38.479 779.471 L45.895 779.471 L45.895 785.327 L38.479 785.327 Z" fill="#000000" fill-rule="evenodd" fill-opacity="1" /><path clip-path="url(#clip060)" d="M 0 0 M66.4881 743.696 L88.0042 743.696 L88.0042 749.552 L66.679 749.552 Q61.6183 749.552 59.1038 751.525 Q56.5894 753.499 56.5894 757.446 Q56.5894 762.188 59.6131 764.925 Q62.6368 767.662 67.8567 767.662 L88.0042 767.662 L88.0042 773.551 L52.3562 773.551 L52.3562 767.662 L57.8944 767.662 Q54.6797 765.562 53.0883 762.729 Q51.4968 759.864 51.4968 756.141 Q51.4968 749.998 55.3163 746.847 Q59.1038 743.696 66.4881 743.696 Z" fill="#000000" fill-rule="evenodd" fill-opacity="1" /><path clip-path="url(#clip060)" d="M 0 0 M98.8259 710.467 L103.377 710.467 L103.377 744.332 L98.8259 744.332 L98.8259 710.467 Z" fill="#000000" fill-rule="evenodd" fill-opacity="1" /><path clip-path="url(#clip060)" d="M 0 0 M57.7671 680.866 L38.479 680.866 L38.479 675.01 L88.0042 675.01 L88.0042 680.866 L82.657 680.866 Q85.8398 682.712 87.3994 685.545 Q88.9272 688.346 88.9272 692.292 Q88.9272 698.754 83.771 702.828 Q78.6147 706.87 70.212 706.87 Q61.8093 706.87 56.6531 702.828 Q51.4968 698.754 51.4968 692.292 Q51.4968 688.346 53.0564 685.545 Q54.5842 682.712 57.7671 680.866 M70.212 700.823 Q76.6732 700.823 80.3653 698.181 Q84.0256 695.507 84.0256 690.86 Q84.0256 686.213 80.3653 683.54 Q76.6732 680.866 70.212 680.866 Q63.7508 680.866 60.0905 683.54 Q56.3984 686.213 56.3984 690.86 Q56.3984 695.507 60.0905 698.181 Q63.7508 700.823 70.212 700.823 Z" fill="#000000" fill-rule="evenodd" fill-opacity="1" /><path clip-path="url(#clip060)" d="M 0 0 M52.3562 668.867 L52.3562 663.01 L88.0042 663.01 L88.0042 668.867 L52.3562 668.867 M38.479 668.867 L38.479 663.01 L45.895 663.01 L45.895 668.867 L38.479 668.867 Z" fill="#000000" fill-rule="evenodd" fill-opacity="1" /><path clip-path="url(#clip060)" d="M 0 0 M38.479 638.821 L43.3487 638.821 L43.3487 644.422 Q43.3487 647.573 44.6219 648.815 Q45.895 650.024 49.2052 650.024 L52.3562 650.024 L52.3562 640.38 L56.9077 640.38 L56.9077 650.024 L88.0042 650.024 L88.0042 655.912 L56.9077 655.912 L56.9077 661.514 L52.3562 661.514 L52.3562 655.912 L49.8736 655.912 Q43.9216 655.912 41.2162 653.143 Q38.479 650.374 38.479 644.359 L38.479 638.821 Z" fill="#000000" fill-rule="evenodd" fill-opacity="1" /><path clip-path="url(#clip060)" d="M 0 0 M38.479 614.631 L43.3487 614.631 L43.3487 620.233 Q43.3487 623.384 44.6219 624.625 Q45.895 625.835 49.2052 625.835 L52.3562 625.835 L52.3562 616.19 L56.9077 616.19 L56.9077 625.835 L88.0042 625.835 L88.0042 631.723 L56.9077 631.723 L56.9077 637.325 L52.3562 637.325 L52.3562 631.723 L49.8736 631.723 Q43.9216 631.723 41.2162 628.954 Q38.479 626.185 38.479 620.169 L38.479 614.631 Z" fill="#000000" fill-rule="evenodd" fill-opacity="1" /><polyline clip-path="url(#clip062)" style="stroke:#009af9; stroke-width:20; stroke-opacity:1; fill:none" stroke-dasharray="80, 50" points="
  263.789,1372.3 1277.85,85.838 2291.91,591.929 
  "/>
<path clip-path="url(#clip060)" d="
M1991.21 213.659 L2281.1 213.659 L2281.1 92.6992 L1991.21 92.6992  Z
  " fill="#ffffff" fill-rule="evenodd" fill-opacity="1"/>
<polyline clip-path="url(#clip060)" style="stroke:#000000; stroke-width:4; stroke-opacity:1; fill:none" points="
  1991.21,213.659 2281.1,213.659 2281.1,92.6992 1991.21,92.6992 1991.21,213.659 
  "/>
<polyline clip-path="url(#clip060)" style="stroke:#009af9; stroke-width:4; stroke-opacity:1; fill:none" stroke-dasharray="16, 10" points="
  2015.1,153.179 2158.42,153.179 
  "/>
<path clip-path="url(#clip060)" d="M 0 0 M2196.15 172.867 Q2194.34 177.496 2192.63 178.908 Q2190.91 180.32 2188.04 180.32 L2184.64 180.32 L2184.64 176.755 L2187.14 176.755 Q2188.9 176.755 2189.87 175.922 Q2190.85 175.089 2192.03 171.987 L2192.79 170.043 L2182.3 144.533 L2186.82 144.533 L2194.92 164.811 L2203.02 144.533 L2207.54 144.533 L2196.15 172.867 Z" fill="#000000" fill-rule="evenodd" fill-opacity="1" /><path clip-path="url(#clip060)" d="M 0 0 M2213.41 166.524 L2221.05 166.524 L2221.05 140.158 L2212.74 141.825 L2212.74 137.566 L2221.01 135.899 L2225.68 135.899 L2225.68 166.524 L2233.32 166.524 L2233.32 170.459 L2213.41 170.459 L2213.41 166.524 Z" fill="#000000" fill-rule="evenodd" fill-opacity="1" /></svg>
