<?xml version="1.0" encoding="utf-8"?>
<svg xmlns="http://www.w3.org/2000/svg" xmlns:xlink="http://www.w3.org/1999/xlink" width="600" height="400" viewBox="0 0 2400 1600">
<defs>
  <clipPath id="clip170">
    <rect x="0" y="0" width="2400" height="1600"/>
  </clipPath>
</defs>
<path clip-path="url(#clip170)" d="
M0 1600 L2400 1600 L2400 0 L0 0  Z
  " fill="#ffffff" fill-rule="evenodd" fill-opacity="1"/>
<defs>
  <clipPath id="clip171">
    <rect x="480" y="0" width="1681" height="1600"/>
  </clipPath>
</defs>
<path clip-path="url(#clip170)" d="
M227.042 1410.9 L2352.76 1410.9 L2352.76 47.2441 L227.042 47.2441  Z
  " fill="#ffffff" fill-rule="evenodd" fill-opacity="1"/>
<defs>
  <clipPath id="clip172">
    <rect x="227" y="47" width="2127" height="1365"/>
  </clipPath>
</defs>
<polyline clip-path="url(#clip172)" style="stroke:#000000; stroke-width:2; stroke-opacity:0.1; fill:none" points="
  511.55,1410.9 511.55,47.2441 
  "/>
<polyline clip-path="url(#clip172)" style="stroke:#000000; stroke-width:2; stroke-opacity:0.1; fill:none" points="
  955.667,1410.9 955.667,47.2441 
  "/>
<polyline clip-path="url(#clip172)" style="stroke:#000000; stroke-width:2; stroke-opacity:0.1; fill:none" points="
  1399.78,1410.9 1399.78,47.2441 
  "/>
<polyline clip-path="url(#clip172)" style="stroke:#000000; stroke-width:2; stroke-opacity:0.1; fill:none" points="
  1843.9,1410.9 1843.9,47.2441 
  "/>
<polyline clip-path="url(#clip172)" style="stroke:#000000; stroke-width:2; stroke-opacity:0.1; fill:none" points="
  2288.02,1410.9 2288.02,47.2441 
  "/>
<polyline clip-path="url(#clip170)" style="stroke:#000000; stroke-width:4; stroke-opacity:1; fill:none" points="
  227.042,1410.9 2352.76,1410.9 
  "/>
<polyline clip-path="url(#clip170)" style="stroke:#000000; stroke-width:4; stroke-opacity:1; fill:none" points="
  511.55,1410.9 511.55,1394.53 
  "/>
<polyline clip-path="url(#clip170)" style="stroke:#000000; stroke-width:4; stroke-opacity:1; fill:none" points="
  955.667,1410.9 955.667,1394.53 
  "/>
<polyline clip-path="url(#clip170)" style="stroke:#000000; stroke-width:4; stroke-opacity:1; fill:none" points="
  1399.78,1410.9 1399.78,1394.53 
  "/>
<polyline clip-path="url(#clip170)" style="stroke:#000000; stroke-width:4; stroke-opacity:1; fill:none" points="
  1843.9,1410.9 1843.9,1394.53 
  "/>
<polyline clip-path="url(#clip170)" style="stroke:#000000; stroke-width:4; stroke-opacity:1; fill:none" points="
  2288.02,1410.9 2288.02,1394.53 
  "/>
<path clip-path="url(#clip170)" d="M 0 0 M451.026 1489.17 L458.665 1489.17 L458.665 1462.8 L450.354 1464.47 L450.354 1460.21 L458.618 1458.54 L463.294 1458.54 L463.294 1489.17 L470.933 1489.17 L470.933 1493.1 L451.026 1493.1 L451.026 1489.17 Z" fill="#000000" fill-rule="evenodd" fill-opacity="1" /><path clip-path="url(#clip170)" d="M 0 0 M486.002 1461.62 Q482.391 1461.62 480.563 1465.19 Q478.757 1468.73 478.757 1475.86 Q478.757 1482.97 480.563 1486.53 Q482.391 1490.07 486.002 1490.07 Q489.637 1490.07 491.442 1486.53 Q493.271 1482.97 493.271 1475.86 Q493.271 1468.73 491.442 1465.19 Q489.637 1461.62 486.002 1461.62 M486.002 1457.92 Q491.813 1457.92 494.868 1462.53 Q497.947 1467.11 497.947 1475.86 Q497.947 1484.59 494.868 1489.19 Q491.813 1493.78 486.002 1493.78 Q480.192 1493.78 477.114 1489.19 Q474.058 1484.59 474.058 1475.86 Q474.058 1467.11 477.114 1462.53 Q480.192 1457.92 486.002 1457.92 Z" fill="#000000" fill-rule="evenodd" fill-opacity="1" /><path clip-path="url(#clip170)" d="M 0 0 M497.947 1452.02 L522.058 1452.02 L522.058 1455.22 L497.947 1455.22 L497.947 1452.02 Z" fill="#000000" fill-rule="evenodd" fill-opacity="1" /><path clip-path="url(#clip170)" d="M 0 0 M534.302 1440.11 Q531.368 1440.11 529.882 1443.01 Q528.415 1445.89 528.415 1451.68 Q528.415 1457.46 529.882 1460.35 Q531.368 1463.23 534.302 1463.23 Q537.255 1463.23 538.722 1460.35 Q540.208 1457.46 540.208 1451.68 Q540.208 1445.89 538.722 1443.01 Q537.255 1440.11 534.302 1440.11 M534.302 1437.11 Q539.023 1437.11 541.506 1440.85 Q544.007 1444.57 544.007 1451.68 Q544.007 1458.77 541.506 1462.51 Q539.023 1466.24 534.302 1466.24 Q529.581 1466.24 527.08 1462.51 Q524.597 1458.77 524.597 1451.68 Q524.597 1444.57 527.08 1440.85 Q529.581 1437.11 534.302 1437.11 Z" fill="#000000" fill-rule="evenodd" fill-opacity="1" /><path clip-path="url(#clip170)" d="M 0 0 M548.126 1460.92 L552.094 1460.92 L552.094 1465.69 L548.126 1465.69 L548.126 1460.92 Z" fill="#000000" fill-rule="evenodd" fill-opacity="1" /><path clip-path="url(#clip170)" d="M 0 0 M559.486 1462.5 L572.745 1462.5 L572.745 1465.69 L554.915 1465.69 L554.915 1462.5 Q557.078 1460.26 560.802 1456.5 Q564.545 1452.72 565.504 1451.63 Q567.329 1449.58 568.043 1448.16 Q568.777 1446.74 568.777 1445.36 Q568.777 1443.12 567.197 1441.71 Q565.636 1440.3 563.116 1440.3 Q561.329 1440.3 559.335 1440.92 Q557.36 1441.54 555.104 1442.8 L555.104 1438.97 Q557.398 1438.05 559.392 1437.58 Q561.385 1437.11 563.04 1437.11 Q567.404 1437.11 569.999 1439.29 Q572.595 1441.47 572.595 1445.12 Q572.595 1446.85 571.936 1448.41 Q571.297 1449.95 569.586 1452.06 Q569.115 1452.6 566.595 1455.22 Q564.075 1457.81 559.486 1462.5 Z" fill="#000000" fill-rule="evenodd" fill-opacity="1" /><path clip-path="url(#clip170)" d="M 0 0 M907.82 1489.17 L915.458 1489.17 L915.458 1462.8 L907.148 1464.47 L907.148 1460.21 L915.412 1458.54 L920.088 1458.54 L920.088 1489.17 L927.727 1489.17 L927.727 1493.1 L907.82 1493.1 L907.82 1489.17 Z" fill="#000000" fill-rule="evenodd" fill-opacity="1" /><path clip-path="url(#clip170)" d="M 0 0 M942.796 1461.62 Q939.185 1461.62 937.356 1465.19 Q935.551 1468.73 935.551 1475.86 Q935.551 1482.97 937.356 1486.53 Q939.185 1490.07 942.796 1490.07 Q946.431 1490.07 948.236 1486.53 Q950.065 1482.97 950.065 1475.86 Q950.065 1468.73 948.236 1465.19 Q946.431 1461.62 942.796 1461.62 M942.796 1457.92 Q948.606 1457.92 951.662 1462.53 Q954.741 1467.11 954.741 1475.86 Q954.741 1484.59 951.662 1489.19 Q948.606 1493.78 942.796 1493.78 Q936.986 1493.78 933.907 1489.19 Q930.852 1484.59 930.852 1475.86 Q930.852 1467.11 933.907 1462.53 Q936.986 1457.92 942.796 1457.92 Z" fill="#000000" fill-rule="evenodd" fill-opacity="1" /><path clip-path="url(#clip170)" d="M 0 0 M964.445 1440.11 Q961.511 1440.11 960.026 1443.01 Q958.559 1445.89 958.559 1451.68 Q958.559 1457.46 960.026 1460.35 Q961.511 1463.23 964.445 1463.23 Q967.398 1463.23 968.865 1460.35 Q970.351 1457.46 970.351 1451.68 Q970.351 1445.89 968.865 1443.01 Q967.398 1440.11 964.445 1440.11 M964.445 1437.11 Q969.166 1437.11 971.649 1440.85 Q974.15 1444.57 974.15 1451.68 Q974.15 1458.77 971.649 1462.51 Q969.166 1466.24 964.445 1466.24 Q959.725 1466.24 957.223 1462.51 Q954.741 1458.77 954.741 1451.68 Q954.741 1444.57 957.223 1440.85 Q959.725 1437.11 964.445 1437.11 Z" fill="#000000" fill-rule="evenodd" fill-opacity="1" /><path clip-path="url(#clip170)" d="M 0 0 M978.269 1460.92 L982.238 1460.92 L982.238 1465.69 L978.269 1465.69 L978.269 1460.92 Z" fill="#000000" fill-rule="evenodd" fill-opacity="1" /><path clip-path="url(#clip170)" d="M 0 0 M994.481 1440.11 Q991.547 1440.11 990.062 1443.01 Q988.595 1445.89 988.595 1451.68 Q988.595 1457.46 990.062 1460.35 Q991.547 1463.23 994.481 1463.23 Q997.434 1463.23 998.901 1460.35 Q1000.39 1457.46 1000.39 1451.68 Q1000.39 1445.89 998.901 1443.01 Q997.434 1440.11 994.481 1440.11 M994.481 1437.11 Q999.202 1437.11 1001.68 1440.85 Q1004.19 1444.57 1004.19 1451.68 Q1004.19 1458.77 1001.68 1462.51 Q999.202 1466.24 994.481 1466.24 Q989.761 1466.24 987.259 1462.51 Q984.777 1458.77 984.777 1451.68 Q984.777 1444.57 987.259 1440.85 Q989.761 1437.11 994.481 1437.11 Z" fill="#000000" fill-rule="evenodd" fill-opacity="1" /><path clip-path="url(#clip170)" d="M 0 0 M1352.59 1489.17 L1360.22 1489.17 L1360.22 1462.8 L1351.91 1464.47 L1351.91 1460.21 L1360.18 1458.54 L1364.85 1458.54 L1364.85 1489.17 L1372.49 1489.17 L1372.49 1493.1 L1352.59 1493.1 L1352.59 1489.17 Z" fill="#000000" fill-rule="evenodd" fill-opacity="1" /><path clip-path="url(#clip170)" d="M 0 0 M1387.56 1461.62 Q1383.95 1461.62 1382.12 1465.19 Q1380.32 1468.73 1380.32 1475.86 Q1380.32 1482.97 1382.12 1486.53 Q1383.95 1490.07 1387.56 1490.07 Q1391.2 1490.07 1393 1486.53 Q1394.83 1482.97 1394.83 1475.86 Q1394.83 1468.73 1393 1465.19 Q1391.2 1461.62 1387.56 1461.62 M1387.56 1457.92 Q1393.37 1457.92 1396.43 1462.53 Q1399.51 1467.11 1399.51 1475.86 Q1399.51 1484.59 1396.43 1489.19 Q1393.37 1493.78 1387.56 1493.78 Q1381.75 1493.78 1378.67 1489.19 Q1375.62 1484.59 1375.62 1475.86 Q1375.62 1467.11 1378.67 1462.53 Q1381.75 1457.92 1387.56 1457.92 Z" fill="#000000" fill-rule="evenodd" fill-opacity="1" /><path clip-path="url(#clip170)" d="M 0 0 M1409.21 1440.11 Q1406.28 1440.11 1404.79 1443.01 Q1403.33 1445.89 1403.33 1451.68 Q1403.33 1457.46 1404.79 1460.35 Q1406.28 1463.23 1409.21 1463.23 Q1412.16 1463.23 1413.63 1460.35 Q1415.12 1457.46 1415.12 1451.68 Q1415.12 1445.89 1413.63 1443.01 Q1412.16 1440.11 1409.21 1440.11 M1409.21 1437.11 Q1413.93 1437.11 1416.42 1440.85 Q1418.92 1444.57 1418.92 1451.68 Q1418.92 1458.77 1416.42 1462.51 Q1413.93 1466.24 1409.21 1466.24 Q1404.49 1466.24 1401.99 1462.51 Q1399.51 1458.77 1399.51 1451.68 Q1399.51 1444.57 1401.99 1440.85 Q1404.49 1437.11 1409.21 1437.11 Z" fill="#000000" fill-rule="evenodd" fill-opacity="1" /><path clip-path="url(#clip170)" d="M 0 0 M1423.04 1460.92 L1427 1460.92 L1427 1465.69 L1423.04 1465.69 L1423.04 1460.92 Z" fill="#000000" fill-rule="evenodd" fill-opacity="1" /><path clip-path="url(#clip170)" d="M 0 0 M1434.4 1462.5 L1447.65 1462.5 L1447.65 1465.69 L1429.83 1465.69 L1429.83 1462.5 Q1431.99 1460.26 1435.71 1456.5 Q1439.45 1452.72 1440.41 1451.63 Q1442.24 1449.58 1442.95 1448.16 Q1443.69 1446.74 1443.69 1445.36 Q1443.69 1443.12 1442.11 1441.71 Q1440.55 1440.3 1438.03 1440.3 Q1436.24 1440.3 1434.24 1440.92 Q1432.27 1441.54 1430.01 1442.8 L1430.01 1438.97 Q1432.31 1438.05 1434.3 1437.58 Q1436.3 1437.11 1437.95 1437.11 Q1442.31 1437.11 1444.91 1439.29 Q1447.5 1441.47 1447.5 1445.12 Q1447.5 1446.85 1446.85 1448.41 Q1446.21 1449.95 1444.5 1452.06 Q1444.03 1452.6 1441.5 1455.22 Q1438.98 1457.81 1434.4 1462.5 Z" fill="#000000" fill-rule="evenodd" fill-opacity="1" /><path clip-path="url(#clip170)" d="M 0 0 M1795.86 1489.17 L1803.5 1489.17 L1803.5 1462.8 L1795.19 1464.47 L1795.19 1460.21 L1803.45 1458.54 L1808.13 1458.54 L1808.13 1489.17 L1815.76 1489.17 L1815.76 1493.1 L1795.86 1493.1 L1795.86 1489.17 Z" fill="#000000" fill-rule="evenodd" fill-opacity="1" /><path clip-path="url(#clip170)" d="M 0 0 M1830.83 1461.62 Q1827.22 1461.62 1825.39 1465.19 Q1823.59 1468.73 1823.59 1475.86 Q1823.59 1482.97 1825.39 1486.53 Q1827.22 1490.07 1830.83 1490.07 Q1834.47 1490.07 1836.27 1486.53 Q1838.1 1482.97 1838.1 1475.86 Q1838.1 1468.73 1836.27 1465.19 Q1834.47 1461.62 1830.83 1461.62 M1830.83 1457.92 Q1836.64 1457.92 1839.7 1462.53 Q1842.78 1467.11 1842.78 1475.86 Q1842.78 1484.59 1839.7 1489.19 Q1836.64 1493.78 1830.83 1493.78 Q1825.02 1493.78 1821.94 1489.19 Q1818.89 1484.59 1818.89 1475.86 Q1818.89 1467.11 1821.94 1462.53 Q1825.02 1457.92 1830.83 1457.92 Z" fill="#000000" fill-rule="evenodd" fill-opacity="1" /><path clip-path="url(#clip170)" d="M 0 0 M1852.48 1440.11 Q1849.55 1440.11 1848.06 1443.01 Q1846.6 1445.89 1846.6 1451.68 Q1846.6 1457.46 1848.06 1460.35 Q1849.55 1463.23 1852.48 1463.23 Q1855.44 1463.23 1856.9 1460.35 Q1858.39 1457.46 1858.39 1451.68 Q1858.39 1445.89 1856.9 1443.01 Q1855.44 1440.11 1852.48 1440.11 M1852.48 1437.11 Q1857.2 1437.11 1859.69 1440.85 Q1862.19 1444.57 1862.19 1451.68 Q1862.19 1458.77 1859.69 1462.51 Q1857.2 1466.24 1852.48 1466.24 Q1847.76 1466.24 1845.26 1462.51 Q1842.78 1458.77 1842.78 1451.68 Q1842.78 1444.57 1845.26 1440.85 Q1847.76 1437.11 1852.48 1437.11 Z" fill="#000000" fill-rule="evenodd" fill-opacity="1" /><path clip-path="url(#clip170)" d="M 0 0 M1866.31 1460.92 L1870.28 1460.92 L1870.28 1465.69 L1866.31 1465.69 L1866.31 1460.92 Z" fill="#000000" fill-rule="evenodd" fill-opacity="1" /><path clip-path="url(#clip170)" d="M 0 0 M1884.83 1440.92 L1875.24 1455.91 L1884.83 1455.91 L1884.83 1440.92 M1883.84 1437.61 L1888.61 1437.61 L1888.61 1455.91 L1892.62 1455.91 L1892.62 1459.07 L1888.61 1459.07 L1888.61 1465.69 L1884.83 1465.69 L1884.83 1459.07 L1872.16 1459.07 L1872.16 1455.41 L1883.84 1437.61 Z" fill="#000000" fill-rule="evenodd" fill-opacity="1" /><path clip-path="url(#clip170)" d="M 0 0 M2240.11 1489.17 L2247.75 1489.17 L2247.75 1462.8 L2239.43 1464.47 L2239.43 1460.21 L2247.7 1458.54 L2252.37 1458.54 L2252.37 1489.17 L2260.01 1489.17 L2260.01 1493.1 L2240.11 1493.1 L2240.11 1489.17 Z" fill="#000000" fill-rule="evenodd" fill-opacity="1" /><path clip-path="url(#clip170)" d="M 0 0 M2275.08 1461.62 Q2271.47 1461.62 2269.64 1465.19 Q2267.84 1468.73 2267.84 1475.86 Q2267.84 1482.97 2269.64 1486.53 Q2271.47 1490.07 2275.08 1490.07 Q2278.72 1490.07 2280.52 1486.53 Q2282.35 1482.97 2282.35 1475.86 Q2282.35 1468.73 2280.52 1465.19 Q2278.72 1461.62 2275.08 1461.62 M2275.08 1457.92 Q2280.89 1457.92 2283.95 1462.53 Q2287.03 1467.11 2287.03 1475.86 Q2287.03 1484.59 2283.95 1489.19 Q2280.89 1493.78 2275.08 1493.78 Q2269.27 1493.78 2266.19 1489.19 Q2263.14 1484.59 2263.14 1475.86 Q2263.14 1467.11 2266.19 1462.53 Q2269.27 1457.92 2275.08 1457.92 Z" fill="#000000" fill-rule="evenodd" fill-opacity="1" /><path clip-path="url(#clip170)" d="M 0 0 M2296.73 1440.11 Q2293.8 1440.11 2292.31 1443.01 Q2290.85 1445.89 2290.85 1451.68 Q2290.85 1457.46 2292.31 1460.35 Q2293.8 1463.23 2296.73 1463.23 Q2299.68 1463.23 2301.15 1460.35 Q2302.64 1457.46 2302.64 1451.68 Q2302.64 1445.89 2301.15 1443.01 Q2299.68 1440.11 2296.73 1440.11 M2296.73 1437.11 Q2301.45 1437.11 2303.94 1440.85 Q2306.44 1444.57 2306.44 1451.68 Q2306.44 1458.77 2303.94 1462.51 Q2301.45 1466.24 2296.73 1466.24 Q2292.01 1466.24 2289.51 1462.51 Q2287.03 1458.77 2287.03 1451.68 Q2287.03 1444.57 2289.51 1440.85 Q2292.01 1437.11 2296.73 1437.11 Z" fill="#000000" fill-rule="evenodd" fill-opacity="1" /><path clip-path="url(#clip170)" d="M 0 0 M2310.56 1460.92 L2314.52 1460.92 L2314.52 1465.69 L2310.56 1465.69 L2310.56 1460.92 Z" fill="#000000" fill-rule="evenodd" fill-opacity="1" /><path clip-path="url(#clip170)" d="M 0 0 M2327.24 1450.14 Q2324.68 1450.14 2323.18 1451.89 Q2321.69 1453.64 2321.69 1456.68 Q2321.69 1459.71 2323.18 1461.48 Q2324.68 1463.23 2327.24 1463.23 Q2329.8 1463.23 2331.28 1461.48 Q2332.79 1459.71 2332.79 1456.68 Q2332.79 1453.64 2331.28 1451.89 Q2329.8 1450.14 2327.24 1450.14 M2334.78 1438.23 L2334.78 1441.69 Q2333.35 1441.02 2331.88 1440.66 Q2330.44 1440.3 2329.01 1440.3 Q2325.24 1440.3 2323.25 1442.84 Q2321.28 1445.38 2320.99 1450.52 Q2322.1 1448.88 2323.78 1448.01 Q2325.45 1447.13 2327.46 1447.13 Q2331.7 1447.13 2334.14 1449.71 Q2336.6 1452.26 2336.6 1456.68 Q2336.6 1461.01 2334.05 1463.62 Q2331.49 1466.24 2327.24 1466.24 Q2322.37 1466.24 2319.79 1462.51 Q2317.21 1458.77 2317.21 1451.68 Q2317.21 1445.02 2320.37 1441.07 Q2323.53 1437.11 2328.86 1437.11 Q2330.29 1437.11 2331.73 1437.39 Q2333.2 1437.67 2334.78 1438.23 Z" fill="#000000" fill-rule="evenodd" fill-opacity="1" /><path clip-path="url(#clip170)" d="M 0 0 M1280.38 1559.99 L1280.38 1575.74 L1274.49 1575.74 L1274.49 1526.76 Q1274.49 1512.25 1288.05 1512.25 Q1301.87 1512.25 1301.87 1524.5 Q1301.87 1533.22 1296.39 1536.4 Q1305.3 1539.27 1305.3 1547.77 Q1305.3 1562.85 1289.96 1562.85 Q1283.22 1562.85 1280.38 1559.99 M1280.38 1552.35 Q1283.92 1557.86 1290.19 1557.86 Q1299.35 1557.86 1299.35 1547.86 Q1299.35 1538.89 1284.58 1539.59 L1284.58 1534.18 Q1296.14 1534.18 1296.14 1523.99 Q1296.14 1517.02 1288.69 1517.02 Q1280.38 1517.02 1280.38 1526.95 L1280.38 1552.35 Z" fill="#000000" fill-rule="evenodd" fill-opacity="1" /><polyline clip-path="url(#clip172)" style="stroke:#000000; stroke-width:2; stroke-opacity:0.1; fill:none" points="
  227.042,1386.8 2352.76,1386.8 
  "/>
<polyline clip-path="url(#clip172)" style="stroke:#000000; stroke-width:2; stroke-opacity:0.1; fill:none" points="
  227.042,1043.47 2352.76,1043.47 
  "/>
<polyline clip-path="url(#clip172)" style="stroke:#000000; stroke-width:2; stroke-opacity:0.1; fill:none" points="
  227.042,700.145 2352.76,700.145 
  "/>
<polyline clip-path="url(#clip172)" style="stroke:#000000; stroke-width:2; stroke-opacity:0.1; fill:none" points="
  227.042,356.82 2352.76,356.82 
  "/>
<polyline clip-path="url(#clip170)" style="stroke:#000000; stroke-width:4; stroke-opacity:1; fill:none" points="
  227.042,1410.9 227.042,47.2441 
  "/>
<polyline clip-path="url(#clip170)" style="stroke:#000000; stroke-width:4; stroke-opacity:1; fill:none" points="
  227.042,1386.8 252.551,1386.8 
  "/>
<polyline clip-path="url(#clip170)" style="stroke:#000000; stroke-width:4; stroke-opacity:1; fill:none" points="
  227.042,1043.47 252.551,1043.47 
  "/>
<polyline clip-path="url(#clip170)" style="stroke:#000000; stroke-width:4; stroke-opacity:1; fill:none" points="
  227.042,700.145 252.551,700.145 
  "/>
<polyline clip-path="url(#clip170)" style="stroke:#000000; stroke-width:4; stroke-opacity:1; fill:none" points="
  227.042,356.82 252.551,356.82 
  "/>
<path clip-path="url(#clip170)" d="M 0 0 M179.098 1372.59 Q175.487 1372.59 173.658 1376.16 Q171.852 1379.7 171.852 1386.83 Q171.852 1393.94 173.658 1397.5 Q175.487 1401.04 179.098 1401.04 Q182.732 1401.04 184.538 1397.5 Q186.366 1393.94 186.366 1386.83 Q186.366 1379.7 184.538 1376.16 Q182.732 1372.59 179.098 1372.59 M179.098 1368.89 Q184.908 1368.89 187.963 1373.5 Q191.042 1378.08 191.042 1386.83 Q191.042 1395.56 187.963 1400.16 Q184.908 1404.75 179.098 1404.75 Q173.288 1404.75 170.209 1400.16 Q167.153 1395.56 167.153 1386.83 Q167.153 1378.08 170.209 1373.5 Q173.288 1368.89 179.098 1368.89 Z" fill="#000000" fill-rule="evenodd" fill-opacity="1" /><path clip-path="url(#clip170)" d="M 0 0 M117.107 1056.81 L124.746 1056.81 L124.746 1030.45 L116.436 1032.12 L116.436 1027.86 L124.7 1026.19 L129.376 1026.19 L129.376 1056.81 L137.015 1056.81 L137.015 1060.75 L117.107 1060.75 L117.107 1056.81 Z" fill="#000000" fill-rule="evenodd" fill-opacity="1" /><path clip-path="url(#clip170)" d="M 0 0 M152.084 1029.27 Q148.473 1029.27 146.644 1032.83 Q144.839 1036.38 144.839 1043.5 Q144.839 1050.61 146.644 1054.18 Q148.473 1057.72 152.084 1057.72 Q155.718 1057.72 157.524 1054.18 Q159.353 1050.61 159.353 1043.5 Q159.353 1036.38 157.524 1032.83 Q155.718 1029.27 152.084 1029.27 M152.084 1025.57 Q157.894 1025.57 160.95 1030.17 Q164.028 1034.75 164.028 1043.5 Q164.028 1052.23 160.95 1056.84 Q157.894 1061.42 152.084 1061.42 Q146.274 1061.42 143.195 1056.84 Q140.14 1052.23 140.14 1043.5 Q140.14 1034.75 143.195 1030.17 Q146.274 1025.57 152.084 1025.57 Z" fill="#000000" fill-rule="evenodd" fill-opacity="1" /><path clip-path="url(#clip170)" d="M 0 0 M179.098 1029.27 Q175.487 1029.27 173.658 1032.83 Q171.852 1036.38 171.852 1043.5 Q171.852 1050.61 173.658 1054.18 Q175.487 1057.72 179.098 1057.72 Q182.732 1057.72 184.538 1054.18 Q186.366 1050.61 186.366 1043.5 Q186.366 1036.38 184.538 1032.83 Q182.732 1029.27 179.098 1029.27 M179.098 1025.57 Q184.908 1025.57 187.963 1030.17 Q191.042 1034.75 191.042 1043.5 Q191.042 1052.23 187.963 1056.84 Q184.908 1061.42 179.098 1061.42 Q173.288 1061.42 170.209 1056.84 Q167.153 1052.23 167.153 1043.5 Q167.153 1034.75 170.209 1030.17 Q173.288 1025.57 179.098 1025.57 Z" fill="#000000" fill-rule="evenodd" fill-opacity="1" /><path clip-path="url(#clip170)" d="M 0 0 M120.695 713.49 L137.015 713.49 L137.015 717.425 L115.07 717.425 L115.07 713.49 Q117.732 710.735 122.316 706.106 Q126.922 701.453 128.103 700.11 Q130.348 697.587 131.228 695.851 Q132.13 694.092 132.13 692.402 Q132.13 689.647 130.186 687.911 Q128.265 686.175 125.163 686.175 Q122.964 686.175 120.51 686.939 Q118.08 687.703 115.302 689.254 L115.302 684.532 Q118.126 683.397 120.58 682.819 Q123.033 682.24 125.07 682.24 Q130.441 682.24 133.635 684.925 Q136.829 687.61 136.829 692.101 Q136.829 694.231 136.019 696.152 Q135.232 698.05 133.126 700.643 Q132.547 701.314 129.445 704.532 Q126.343 707.726 120.695 713.49 Z" fill="#000000" fill-rule="evenodd" fill-opacity="1" /><path clip-path="url(#clip170)" d="M 0 0 M152.084 685.944 Q148.473 685.944 146.644 689.509 Q144.839 693.05 144.839 700.18 Q144.839 707.286 146.644 710.851 Q148.473 714.393 152.084 714.393 Q155.718 714.393 157.524 710.851 Q159.353 707.286 159.353 700.18 Q159.353 693.05 157.524 689.509 Q155.718 685.944 152.084 685.944 M152.084 682.24 Q157.894 682.24 160.95 686.847 Q164.028 691.43 164.028 700.18 Q164.028 708.907 160.95 713.513 Q157.894 718.096 152.084 718.096 Q146.274 718.096 143.195 713.513 Q140.14 708.907 140.14 700.18 Q140.14 691.43 143.195 686.847 Q146.274 682.24 152.084 682.24 Z" fill="#000000" fill-rule="evenodd" fill-opacity="1" /><path clip-path="url(#clip170)" d="M 0 0 M179.098 685.944 Q175.487 685.944 173.658 689.509 Q171.852 693.05 171.852 700.18 Q171.852 707.286 173.658 710.851 Q175.487 714.393 179.098 714.393 Q182.732 714.393 184.538 710.851 Q186.366 707.286 186.366 700.18 Q186.366 693.05 184.538 689.509 Q182.732 685.944 179.098 685.944 M179.098 682.24 Q184.908 682.24 187.963 686.847 Q191.042 691.43 191.042 700.18 Q191.042 708.907 187.963 713.513 Q184.908 718.096 179.098 718.096 Q173.288 718.096 170.209 713.513 Q167.153 708.907 167.153 700.18 Q167.153 691.43 170.209 686.847 Q173.288 682.24 179.098 682.24 Z" fill="#000000" fill-rule="evenodd" fill-opacity="1" /><path clip-path="url(#clip170)" d="M 0 0 M129.885 355.466 Q133.242 356.183 135.117 358.452 Q137.015 360.72 137.015 364.054 Q137.015 369.17 133.496 371.97 Q129.978 374.771 123.496 374.771 Q121.32 374.771 119.006 374.332 Q116.714 373.915 114.26 373.058 L114.26 368.545 Q116.205 369.679 118.519 370.257 Q120.834 370.836 123.357 370.836 Q127.755 370.836 130.047 369.1 Q132.362 367.364 132.362 364.054 Q132.362 360.998 130.209 359.285 Q128.08 357.549 124.26 357.549 L120.232 357.549 L120.232 353.707 L124.445 353.707 Q127.894 353.707 129.723 352.341 Q131.552 350.952 131.552 348.359 Q131.552 345.697 129.654 344.285 Q127.779 342.85 124.26 342.85 Q122.339 342.85 120.14 343.267 Q117.941 343.684 115.302 344.563 L115.302 340.397 Q117.964 339.656 120.279 339.285 Q122.617 338.915 124.677 338.915 Q130.001 338.915 133.103 341.346 Q136.204 343.753 136.204 347.873 Q136.204 350.744 134.561 352.734 Q132.917 354.702 129.885 355.466 Z" fill="#000000" fill-rule="evenodd" fill-opacity="1" /><path clip-path="url(#clip170)" d="M 0 0 M152.084 342.619 Q148.473 342.619 146.644 346.184 Q144.839 349.725 144.839 356.855 Q144.839 363.961 146.644 367.526 Q148.473 371.068 152.084 371.068 Q155.718 371.068 157.524 367.526 Q159.353 363.961 159.353 356.855 Q159.353 349.725 157.524 346.184 Q155.718 342.619 152.084 342.619 M152.084 338.915 Q157.894 338.915 160.95 343.521 Q164.028 348.105 164.028 356.855 Q164.028 365.582 160.95 370.188 Q157.894 374.771 152.084 374.771 Q146.274 374.771 143.195 370.188 Q140.14 365.582 140.14 356.855 Q140.14 348.105 143.195 343.521 Q146.274 338.915 152.084 338.915 Z" fill="#000000" fill-rule="evenodd" fill-opacity="1" /><path clip-path="url(#clip170)" d="M 0 0 M179.098 342.619 Q175.487 342.619 173.658 346.184 Q171.852 349.725 171.852 356.855 Q171.852 363.961 173.658 367.526 Q175.487 371.068 179.098 371.068 Q182.732 371.068 184.538 367.526 Q186.366 363.961 186.366 356.855 Q186.366 349.725 184.538 346.184 Q182.732 342.619 179.098 342.619 M179.098 338.915 Q184.908 338.915 187.963 343.521 Q191.042 348.105 191.042 356.855 Q191.042 365.582 187.963 370.188 Q184.908 374.771 179.098 374.771 Q173.288 374.771 170.209 370.188 Q167.153 365.582 167.153 356.855 Q167.153 348.105 170.209 343.521 Q173.288 338.915 179.098 338.915 Z" fill="#000000" fill-rule="evenodd" fill-opacity="1" /><path clip-path="url(#clip170)" d="M 0 0 M59.1993 815.533 Q55.2526 813.336 53.3747 810.281 Q51.4968 807.225 51.4968 803.088 Q51.4968 797.518 55.4117 794.494 Q59.2948 791.47 66.4881 791.47 L88.0042 791.47 L88.0042 797.358 L66.679 797.358 Q61.5546 797.358 59.072 799.173 Q56.5894 800.987 56.5894 804.711 Q56.5894 809.262 59.6131 811.904 Q62.6368 814.546 67.8567 814.546 L88.0042 814.546 L88.0042 820.434 L66.679 820.434 Q61.5228 820.434 59.072 822.248 Q56.5894 824.063 56.5894 827.85 Q56.5894 832.338 59.6449 834.98 Q62.6686 837.622 67.8567 837.622 L88.0042 837.622 L88.0042 843.51 L52.3562 843.51 L52.3562 837.622 L57.8944 837.622 Q54.616 835.616 53.0564 832.815 Q51.4968 830.015 51.4968 826.163 Q51.4968 822.28 53.4702 819.575 Q55.4436 816.838 59.1993 815.533 Z" fill="#000000" fill-rule="evenodd" fill-opacity="1" /><path clip-path="url(#clip170)" d="M 0 0 M52.3562 785.327 L52.3562 779.471 L88.0042 779.471 L88.0042 785.327 L52.3562 785.327 M38.479 785.327 L38.479 779.471 L45.895 779.471 L45.895 785.327 L38.479 785.327 Z" fill="#000000" fill-rule="evenodd" fill-opacity="1" /><path clip-path="url(#clip170)" d="M 0 0 M66.4881 743.696 L88.0042 743.696 L88.0042 749.552 L66.679 749.552 Q61.6183 749.552 59.1038 751.525 Q56.5894 753.499 56.5894 757.446 Q56.5894 762.188 59.6131 764.925 Q62.6368 767.662 67.8567 767.662 L88.0042 767.662 L88.0042 773.551 L52.3562 773.551 L52.3562 767.662 L57.8944 767.662 Q54.6797 765.562 53.0883 762.729 Q51.4968 759.864 51.4968 756.141 Q51.4968 749.998 55.3163 746.847 Q59.1038 743.696 66.4881 743.696 Z" fill="#000000" fill-rule="evenodd" fill-opacity="1" /><path clip-path="url(#clip170)" d="M 0 0 M98.8259 710.467 L103.377 710.467 L103.377 744.332 L98.8259 744.332 L98.8259 710.467 Z" fill="#000000" fill-rule="evenodd" fill-opacity="1" /><path clip-path="url(#clip170)" d="M 0 0 M57.7671 680.866 L38.479 680.866 L38.479 675.01 L88.0042 675.01 L88.0042 680.866 L82.657 680.866 Q85.8398 682.712 87.3994 685.545 Q88.9272 688.346 88.9272 692.292 Q88.9272 698.754 83.771 702.828 Q78.6147 706.87 70.212 706.87 Q61.8093 706.87 56.6531 702.828 Q51.4968 698.754 51.4968 692.292 Q51.4968 688.346 53.0564 685.545 Q54.5842 682.712 57.7671 680.866 M70.212 700.823 Q76.6732 700.823 80.3653 698.181 Q84.0256 695.507 84.0256 690.86 Q84.0256 686.213 80.3653 683.54 Q76.6732 680.866 70.212 680.866 Q63.7508 680.866 60.0905 683.54 Q56.3984 686.213 56.3984 690.86 Q56.3984 695.507 60.0905 698.181 Q63.7508 700.823 70.212 700.823 Z" fill="#000000" fill-rule="evenodd" fill-opacity="1" /><path clip-path="url(#clip170)" d="M 0 0 M52.3562 668.867 L52.3562 663.01 L88.0042 663.01 L88.0042 668.867 L52.3562 668.867 M38.479 668.867 L38.479 663.01 L45.895 663.01 L45.895 668.867 L38.479 668.867 Z" fill="#000000" fill-rule="evenodd" fill-opacity="1" /><path clip-path="url(#clip170)" d="M 0 0 M38.479 638.821 L43.3487 638.821 L43.3487 644.422 Q43.3487 647.573 44.6219 648.815 Q45.895 650.024 49.2052 650.024 L52.3562 650.024 L52.3562 640.38 L56.9077 640.38 L56.9077 650.024 L88.0042 650.024 L88.0042 655.912 L56.9077 655.912 L56.9077 661.514 L52.3562 661.514 L52.3562 655.912 L49.8736 655.912 Q43.9216 655.912 41.2162 653.143 Q38.479 650.374 38.479 644.359 L38.479 638.821 Z" fill="#000000" fill-rule="evenodd" fill-opacity="1" /><path clip-path="url(#clip170)" d="M 0 0 M38.479 614.631 L43.3487 614.631 L43.3487 620.233 Q43.3487 623.384 44.6219 624.625 Q45.895 625.835 49.2052 625.835 L52.3562 625.835 L52.3562 616.19 L56.9077 616.19 L56.9077 625.835 L88.0042 625.835 L88.0042 631.723 L56.9077 631.723 L56.9077 637.325 L52.3562 637.325 L52.3562 631.723 L49.8736 631.723 Q43.9216 631.723 41.2162 628.954 Q38.479 626.185 38.479 620.169 L38.479 614.631 Z" fill="#000000" fill-rule="evenodd" fill-opacity="1" /><polyline clip-path="url(#clip172)" style="stroke:#009af9; stroke-width:20; stroke-opacity:1; fill:none" stroke-dasharray="80, 50" points="
  287.204,85.838 463.033,164.367 611.694,239.662 740.47,311.804 854.059,380.875 955.667,952.676 1131.5,1021.27 1280.16,1082.83 1346.69,1286.93 1408.93,1137.64 
  1522.52,1314.98 1624.13,1363.13 1671.18,1341.99 1799.96,1363.64 1913.55,1369.9 1948.62,1358.3 2015.16,1372.3 2077.4,1344.8 2190.99,1326.98 2292.59,1303.81 
  
  "/>
<path clip-path="url(#clip170)" d="
M1994.69 213.659 L2281.9 213.659 L2281.9 92.6992 L1994.69 92.6992  Z
  " fill="#ffffff" fill-rule="evenodd" fill-opacity="1"/>
<polyline clip-path="url(#clip170)" style="stroke:#000000; stroke-width:4; stroke-opacity:1; fill:none" points="
  1994.69,213.659 2281.9,213.659 2281.9,92.6992 1994.69,92.6992 1994.69,213.659 
  "/>
<polyline clip-path="url(#clip170)" style="stroke:#009af9; stroke-width:4; stroke-opacity:1; fill:none" stroke-dasharray="16, 10" points="
  2018.31,153.179 2160.02,153.179 
  "/>
<path clip-path="url(#clip170)" d="M 0 0 M2197.48 172.867 Q2195.68 177.496 2193.97 178.908 Q2192.25 180.32 2189.38 180.32 L2185.98 180.32 L2185.98 176.755 L2188.48 176.755 Q2190.24 176.755 2191.21 175.922 Q2192.18 175.089 2193.36 171.987 L2194.13 170.043 L2183.64 144.533 L2188.16 144.533 L2196.26 164.811 L2204.36 144.533 L2208.87 144.533 L2197.48 172.867 Z" fill="#000000" fill-rule="evenodd" fill-opacity="1" /><path clip-path="url(#clip170)" d="M 0 0 M2214.75 166.524 L2222.39 166.524 L2222.39 140.158 L2214.08 141.825 L2214.08 137.566 L2222.35 135.899 L2227.02 135.899 L2227.02 166.524 L2234.66 166.524 L2234.66 170.459 L2214.75 170.459 L2214.75 166.524 Z" fill="#000000" fill-rule="evenodd" fill-opacity="1" /></svg>
