<?xml version="1.0" encoding="utf-8"?>
<svg xmlns="http://www.w3.org/2000/svg" xmlns:xlink="http://www.w3.org/1999/xlink" width="600" height="400" viewBox="0 0 2400 1600">
<defs>
  <clipPath id="clip730">
    <rect x="0" y="0" width="2400" height="1600"/>
  </clipPath>
</defs>
<path clip-path="url(#clip730)" d="
M0 1600 L2400 1600 L2400 0 L0 0  Z
  " fill="#ffffff" fill-rule="evenodd" fill-opacity="1"/>
<defs>
  <clipPath id="clip731">
    <rect x="480" y="0" width="1681" height="1600"/>
  </clipPath>
</defs>
<path clip-path="url(#clip730)" d="
M236.903 1410.9 L2352.76 1410.9 L2352.76 47.2441 L236.903 47.2441  Z
  " fill="#ffffff" fill-rule="evenodd" fill-opacity="1"/>
<defs>
  <clipPath id="clip732">
    <rect x="236" y="47" width="2117" height="1365"/>
  </clipPath>
</defs>
<polyline clip-path="url(#clip732)" style="stroke:#000000; stroke-width:2; stroke-opacity:0.1; fill:none" points="
  296.786,1410.9 296.786,47.2441 
  "/>
<polyline clip-path="url(#clip732)" style="stroke:#000000; stroke-width:2; stroke-opacity:0.1; fill:none" points="
  795.808,1410.9 795.808,47.2441 
  "/>
<polyline clip-path="url(#clip732)" style="stroke:#000000; stroke-width:2; stroke-opacity:0.1; fill:none" points="
  1294.83,1410.9 1294.83,47.2441 
  "/>
<polyline clip-path="url(#clip732)" style="stroke:#000000; stroke-width:2; stroke-opacity:0.1; fill:none" points="
  1793.85,1410.9 1793.85,47.2441 
  "/>
<polyline clip-path="url(#clip732)" style="stroke:#000000; stroke-width:2; stroke-opacity:0.1; fill:none" points="
  2292.87,1410.9 2292.87,47.2441 
  "/>
<polyline clip-path="url(#clip730)" style="stroke:#000000; stroke-width:4; stroke-opacity:1; fill:none" points="
  236.903,1410.9 2352.76,1410.9 
  "/>
<polyline clip-path="url(#clip730)" style="stroke:#000000; stroke-width:4; stroke-opacity:1; fill:none" points="
  296.786,1410.9 296.786,1394.53 
  "/>
<polyline clip-path="url(#clip730)" style="stroke:#000000; stroke-width:4; stroke-opacity:1; fill:none" points="
  795.808,1410.9 795.808,1394.53 
  "/>
<polyline clip-path="url(#clip730)" style="stroke:#000000; stroke-width:4; stroke-opacity:1; fill:none" points="
  1294.83,1410.9 1294.83,1394.53 
  "/>
<polyline clip-path="url(#clip730)" style="stroke:#000000; stroke-width:4; stroke-opacity:1; fill:none" points="
  1793.85,1410.9 1793.85,1394.53 
  "/>
<polyline clip-path="url(#clip730)" style="stroke:#000000; stroke-width:4; stroke-opacity:1; fill:none" points="
  2292.87,1410.9 2292.87,1394.53 
  "/>
<path clip-path="url(#clip730)" d="M 0 0 M224.902 1489.17 L232.541 1489.17 L232.541 1462.8 L224.231 1464.47 L224.231 1460.21 L232.494 1458.54 L237.17 1458.54 L237.17 1489.17 L244.809 1489.17 L244.809 1493.1 L224.902 1493.1 L224.902 1489.17 Z" fill="#000000" fill-rule="evenodd" fill-opacity="1" /><path clip-path="url(#clip730)" d="M 0 0 M259.878 1461.62 Q256.267 1461.62 254.439 1465.19 Q252.633 1468.73 252.633 1475.86 Q252.633 1482.97 254.439 1486.53 Q256.267 1490.07 259.878 1490.07 Q263.513 1490.07 265.318 1486.53 Q267.147 1482.97 267.147 1475.86 Q267.147 1468.73 265.318 1465.19 Q263.513 1461.62 259.878 1461.62 M259.878 1457.92 Q265.689 1457.92 268.744 1462.53 Q271.823 1467.11 271.823 1475.86 Q271.823 1484.59 268.744 1489.19 Q265.689 1493.78 259.878 1493.78 Q254.068 1493.78 250.99 1489.19 Q247.934 1484.59 247.934 1475.86 Q247.934 1467.11 250.99 1462.53 Q254.068 1457.92 259.878 1457.92 Z" fill="#000000" fill-rule="evenodd" fill-opacity="1" /><path clip-path="url(#clip730)" d="M 0 0 M271.823 1452.02 L295.934 1452.02 L295.934 1455.22 L271.823 1455.22 L271.823 1452.02 Z" fill="#000000" fill-rule="evenodd" fill-opacity="1" /><path clip-path="url(#clip730)" d="M 0 0 M311.564 1450.55 Q314.291 1451.14 315.814 1452.98 Q317.356 1454.82 317.356 1457.53 Q317.356 1461.69 314.498 1463.96 Q311.639 1466.24 306.373 1466.24 Q304.605 1466.24 302.724 1465.88 Q300.862 1465.54 298.868 1464.85 L298.868 1461.18 Q300.448 1462.1 302.329 1462.57 Q304.21 1463.04 306.26 1463.04 Q309.833 1463.04 311.695 1461.63 Q313.576 1460.22 313.576 1457.53 Q313.576 1455.05 311.827 1453.66 Q310.097 1452.25 306.993 1452.25 L303.721 1452.25 L303.721 1449.12 L307.144 1449.12 Q309.946 1449.12 311.432 1448.01 Q312.918 1446.89 312.918 1444.78 Q312.918 1442.62 311.376 1441.47 Q309.852 1440.3 306.993 1440.3 Q305.432 1440.3 303.646 1440.64 Q301.859 1440.98 299.715 1441.69 L299.715 1438.31 Q301.878 1437.71 303.758 1437.41 Q305.658 1437.11 307.332 1437.11 Q311.658 1437.11 314.178 1439.08 Q316.698 1441.04 316.698 1444.38 Q316.698 1446.72 315.363 1448.33 Q314.027 1449.93 311.564 1450.55 Z" fill="#000000" fill-rule="evenodd" fill-opacity="1" /><path clip-path="url(#clip730)" d="M 0 0 M321.475 1460.92 L325.444 1460.92 L325.444 1465.69 L321.475 1465.69 L321.475 1460.92 Z" fill="#000000" fill-rule="evenodd" fill-opacity="1" /><path clip-path="url(#clip730)" d="M 0 0 M337.688 1440.11 Q334.754 1440.11 333.268 1443.01 Q331.801 1445.89 331.801 1451.68 Q331.801 1457.46 333.268 1460.35 Q334.754 1463.23 337.688 1463.23 Q340.64 1463.23 342.107 1460.35 Q343.593 1457.46 343.593 1451.68 Q343.593 1445.89 342.107 1443.01 Q340.64 1440.11 337.688 1440.11 M337.688 1437.11 Q342.408 1437.11 344.891 1440.85 Q347.392 1444.57 347.392 1451.68 Q347.392 1458.77 344.891 1462.51 Q342.408 1466.24 337.688 1466.24 Q332.967 1466.24 330.465 1462.51 Q327.983 1458.77 327.983 1451.68 Q327.983 1444.57 330.465 1440.85 Q332.967 1437.11 337.688 1437.11 Z" fill="#000000" fill-rule="evenodd" fill-opacity="1" /><path clip-path="url(#clip730)" d="M 0 0 M359.636 1440.11 Q356.702 1440.11 355.217 1443.01 Q353.75 1445.89 353.75 1451.68 Q353.75 1457.46 355.217 1460.35 Q356.702 1463.23 359.636 1463.23 Q362.589 1463.23 364.056 1460.35 Q365.542 1457.46 365.542 1451.68 Q365.542 1445.89 364.056 1443.01 Q362.589 1440.11 359.636 1440.11 M359.636 1437.11 Q364.357 1437.11 366.84 1440.85 Q369.341 1444.57 369.341 1451.68 Q369.341 1458.77 366.84 1462.51 Q364.357 1466.24 359.636 1466.24 Q354.916 1466.24 352.414 1462.51 Q349.932 1458.77 349.932 1451.68 Q349.932 1444.57 352.414 1440.85 Q354.916 1437.11 359.636 1437.11 Z" fill="#000000" fill-rule="evenodd" fill-opacity="1" /><path clip-path="url(#clip730)" d="M 0 0 M725.08 1489.17 L732.719 1489.17 L732.719 1462.8 L724.409 1464.47 L724.409 1460.21 L732.673 1458.54 L737.349 1458.54 L737.349 1489.17 L744.988 1489.17 L744.988 1493.1 L725.08 1493.1 L725.08 1489.17 Z" fill="#000000" fill-rule="evenodd" fill-opacity="1" /><path clip-path="url(#clip730)" d="M 0 0 M760.057 1461.62 Q756.446 1461.62 754.617 1465.19 Q752.812 1468.73 752.812 1475.86 Q752.812 1482.97 754.617 1486.53 Q756.446 1490.07 760.057 1490.07 Q763.691 1490.07 765.497 1486.53 Q767.325 1482.97 767.325 1475.86 Q767.325 1468.73 765.497 1465.19 Q763.691 1461.62 760.057 1461.62 M760.057 1457.92 Q765.867 1457.92 768.923 1462.53 Q772.001 1467.11 772.001 1475.86 Q772.001 1484.59 768.923 1489.19 Q765.867 1493.78 760.057 1493.78 Q754.247 1493.78 751.168 1489.19 Q748.113 1484.59 748.113 1475.86 Q748.113 1467.11 751.168 1462.53 Q754.247 1457.92 760.057 1457.92 Z" fill="#000000" fill-rule="evenodd" fill-opacity="1" /><path clip-path="url(#clip730)" d="M 0 0 M772.001 1452.02 L796.113 1452.02 L796.113 1455.22 L772.001 1455.22 L772.001 1452.02 Z" fill="#000000" fill-rule="evenodd" fill-opacity="1" /><path clip-path="url(#clip730)" d="M 0 0 M803.504 1462.5 L816.764 1462.5 L816.764 1465.69 L798.934 1465.69 L798.934 1462.5 Q801.097 1460.26 804.821 1456.5 Q808.564 1452.72 809.523 1451.63 Q811.347 1449.58 812.062 1448.16 Q812.795 1446.74 812.795 1445.36 Q812.795 1443.12 811.216 1441.71 Q809.655 1440.3 807.134 1440.3 Q805.348 1440.3 803.354 1440.92 Q801.379 1441.54 799.122 1442.8 L799.122 1438.97 Q801.417 1438.05 803.41 1437.58 Q805.404 1437.11 807.059 1437.11 Q811.422 1437.11 814.018 1439.29 Q816.613 1441.47 816.613 1445.12 Q816.613 1446.85 815.955 1448.41 Q815.316 1449.95 813.604 1452.06 Q813.134 1452.6 810.614 1455.22 Q808.094 1457.81 803.504 1462.5 Z" fill="#000000" fill-rule="evenodd" fill-opacity="1" /><path clip-path="url(#clip730)" d="M 0 0 M820.883 1460.92 L824.851 1460.92 L824.851 1465.69 L820.883 1465.69 L820.883 1460.92 Z" fill="#000000" fill-rule="evenodd" fill-opacity="1" /><path clip-path="url(#clip730)" d="M 0 0 M828.011 1437.61 L846.066 1437.61 L846.066 1439.23 L835.873 1465.69 L831.904 1465.69 L841.496 1440.81 L828.011 1440.81 L828.011 1437.61 Z" fill="#000000" fill-rule="evenodd" fill-opacity="1" /><path clip-path="url(#clip730)" d="M 0 0 M850.223 1437.61 L865.137 1437.61 L865.137 1440.81 L853.702 1440.81 L853.702 1447.69 Q854.53 1447.41 855.357 1447.28 Q856.185 1447.13 857.013 1447.13 Q861.714 1447.13 864.46 1449.71 Q867.206 1452.28 867.206 1456.68 Q867.206 1461.22 864.385 1463.74 Q861.564 1466.24 856.429 1466.24 Q854.662 1466.24 852.818 1465.94 Q850.994 1465.64 849.038 1465.04 L849.038 1461.22 Q850.731 1462.14 852.536 1462.59 Q854.342 1463.04 856.354 1463.04 Q859.608 1463.04 861.508 1461.33 Q863.407 1459.62 863.407 1456.68 Q863.407 1453.75 861.508 1452.04 Q859.608 1450.33 856.354 1450.33 Q854.831 1450.33 853.307 1450.67 Q851.803 1451 850.223 1451.72 L850.223 1437.61 Z" fill="#000000" fill-rule="evenodd" fill-opacity="1" /><path clip-path="url(#clip730)" d="M 0 0 M1223.74 1489.17 L1231.37 1489.17 L1231.37 1462.8 L1223.06 1464.47 L1223.06 1460.21 L1231.33 1458.54 L1236 1458.54 L1236 1489.17 L1243.64 1489.17 L1243.64 1493.1 L1223.74 1493.1 L1223.74 1489.17 Z" fill="#000000" fill-rule="evenodd" fill-opacity="1" /><path clip-path="url(#clip730)" d="M 0 0 M1258.71 1461.62 Q1255.1 1461.62 1253.27 1465.19 Q1251.47 1468.73 1251.47 1475.86 Q1251.47 1482.97 1253.27 1486.53 Q1255.1 1490.07 1258.71 1490.07 Q1262.35 1490.07 1264.15 1486.53 Q1265.98 1482.97 1265.98 1475.86 Q1265.98 1468.73 1264.15 1465.19 Q1262.35 1461.62 1258.71 1461.62 M1258.71 1457.92 Q1264.52 1457.92 1267.58 1462.53 Q1270.66 1467.11 1270.66 1475.86 Q1270.66 1484.59 1267.58 1489.19 Q1264.52 1493.78 1258.71 1493.78 Q1252.9 1493.78 1249.82 1489.19 Q1246.77 1484.59 1246.77 1475.86 Q1246.77 1467.11 1249.82 1462.53 Q1252.9 1457.92 1258.71 1457.92 Z" fill="#000000" fill-rule="evenodd" fill-opacity="1" /><path clip-path="url(#clip730)" d="M 0 0 M1270.66 1452.02 L1294.77 1452.02 L1294.77 1455.22 L1270.66 1455.22 L1270.66 1452.02 Z" fill="#000000" fill-rule="evenodd" fill-opacity="1" /><path clip-path="url(#clip730)" d="M 0 0 M1302.16 1462.5 L1315.42 1462.5 L1315.42 1465.69 L1297.59 1465.69 L1297.59 1462.5 Q1299.75 1460.26 1303.48 1456.5 Q1307.22 1452.72 1308.18 1451.63 Q1310 1449.58 1310.72 1448.16 Q1311.45 1446.74 1311.45 1445.36 Q1311.45 1443.12 1309.87 1441.71 Q1308.31 1440.3 1305.79 1440.3 Q1304 1440.3 1302.01 1440.92 Q1300.03 1441.54 1297.78 1442.8 L1297.78 1438.97 Q1300.07 1438.05 1302.07 1437.58 Q1304.06 1437.11 1305.71 1437.11 Q1310.08 1437.11 1312.67 1439.29 Q1315.27 1441.47 1315.27 1445.12 Q1315.27 1446.85 1314.61 1448.41 Q1313.97 1449.95 1312.26 1452.06 Q1311.79 1452.6 1309.27 1455.22 Q1306.75 1457.81 1302.16 1462.5 Z" fill="#000000" fill-rule="evenodd" fill-opacity="1" /><path clip-path="url(#clip730)" d="M 0 0 M1319.54 1460.92 L1323.51 1460.92 L1323.51 1465.69 L1319.54 1465.69 L1319.54 1460.92 Z" fill="#000000" fill-rule="evenodd" fill-opacity="1" /><path clip-path="url(#clip730)" d="M 0 0 M1327.66 1437.61 L1342.58 1437.61 L1342.58 1440.81 L1331.14 1440.81 L1331.14 1447.69 Q1331.97 1447.41 1332.8 1447.28 Q1333.62 1447.13 1334.45 1447.13 Q1339.15 1447.13 1341.9 1449.71 Q1344.65 1452.28 1344.65 1456.68 Q1344.65 1461.22 1341.83 1463.74 Q1339 1466.24 1333.87 1466.24 Q1332.1 1466.24 1330.26 1465.94 Q1328.43 1465.64 1326.48 1465.04 L1326.48 1461.22 Q1328.17 1462.14 1329.98 1462.59 Q1331.78 1463.04 1333.79 1463.04 Q1337.05 1463.04 1338.95 1461.33 Q1340.85 1459.62 1340.85 1456.68 Q1340.85 1453.75 1338.95 1452.04 Q1337.05 1450.33 1333.79 1450.33 Q1332.27 1450.33 1330.75 1450.67 Q1329.24 1451 1327.66 1451.72 L1327.66 1437.61 Z" fill="#000000" fill-rule="evenodd" fill-opacity="1" /><path clip-path="url(#clip730)" d="M 0 0 M1356.89 1440.11 Q1353.96 1440.11 1352.47 1443.01 Q1351 1445.89 1351 1451.68 Q1351 1457.46 1352.47 1460.35 Q1353.96 1463.23 1356.89 1463.23 Q1359.84 1463.23 1361.31 1460.35 Q1362.8 1457.46 1362.8 1451.68 Q1362.8 1445.89 1361.31 1443.01 Q1359.84 1440.11 1356.89 1440.11 M1356.89 1437.11 Q1361.61 1437.11 1364.09 1440.85 Q1366.59 1444.57 1366.59 1451.68 Q1366.59 1458.77 1364.09 1462.51 Q1361.61 1466.24 1356.89 1466.24 Q1352.17 1466.24 1349.67 1462.51 Q1347.19 1458.77 1347.19 1451.68 Q1347.19 1444.57 1349.67 1440.85 Q1352.17 1437.11 1356.89 1437.11 Z" fill="#000000" fill-rule="evenodd" fill-opacity="1" /><path clip-path="url(#clip730)" d="M 0 0 M1723.41 1489.17 L1731.05 1489.17 L1731.05 1462.8 L1722.73 1464.47 L1722.73 1460.21 L1731 1458.54 L1735.67 1458.54 L1735.67 1489.17 L1743.31 1489.17 L1743.31 1493.1 L1723.41 1493.1 L1723.41 1489.17 Z" fill="#000000" fill-rule="evenodd" fill-opacity="1" /><path clip-path="url(#clip730)" d="M 0 0 M1758.38 1461.62 Q1754.77 1461.62 1752.94 1465.19 Q1751.14 1468.73 1751.14 1475.86 Q1751.14 1482.97 1752.94 1486.53 Q1754.77 1490.07 1758.38 1490.07 Q1762.02 1490.07 1763.82 1486.53 Q1765.65 1482.97 1765.65 1475.86 Q1765.65 1468.73 1763.82 1465.19 Q1762.02 1461.62 1758.38 1461.62 M1758.38 1457.92 Q1764.19 1457.92 1767.25 1462.53 Q1770.33 1467.11 1770.33 1475.86 Q1770.33 1484.59 1767.25 1489.19 Q1764.19 1493.78 1758.38 1493.78 Q1752.57 1493.78 1749.49 1489.19 Q1746.44 1484.59 1746.44 1475.86 Q1746.44 1467.11 1749.49 1462.53 Q1752.57 1457.92 1758.38 1457.92 Z" fill="#000000" fill-rule="evenodd" fill-opacity="1" /><path clip-path="url(#clip730)" d="M 0 0 M1770.33 1452.02 L1794.44 1452.02 L1794.44 1455.22 L1770.33 1455.22 L1770.33 1452.02 Z" fill="#000000" fill-rule="evenodd" fill-opacity="1" /><path clip-path="url(#clip730)" d="M 0 0 M1801.83 1462.5 L1815.09 1462.5 L1815.09 1465.69 L1797.26 1465.69 L1797.26 1462.5 Q1799.42 1460.26 1803.15 1456.5 Q1806.89 1452.72 1807.85 1451.63 Q1809.67 1449.58 1810.39 1448.16 Q1811.12 1446.74 1811.12 1445.36 Q1811.12 1443.12 1809.54 1441.71 Q1807.98 1440.3 1805.46 1440.3 Q1803.67 1440.3 1801.68 1440.92 Q1799.7 1441.54 1797.45 1442.8 L1797.45 1438.97 Q1799.74 1438.05 1801.74 1437.58 Q1803.73 1437.11 1805.38 1437.11 Q1809.75 1437.11 1812.34 1439.29 Q1814.94 1441.47 1814.94 1445.12 Q1814.94 1446.85 1814.28 1448.41 Q1813.64 1449.95 1811.93 1452.06 Q1811.46 1452.6 1808.94 1455.22 Q1806.42 1457.81 1801.83 1462.5 Z" fill="#000000" fill-rule="evenodd" fill-opacity="1" /><path clip-path="url(#clip730)" d="M 0 0 M1819.21 1460.92 L1823.18 1460.92 L1823.18 1465.69 L1819.21 1465.69 L1819.21 1460.92 Z" fill="#000000" fill-rule="evenodd" fill-opacity="1" /><path clip-path="url(#clip730)" d="M 0 0 M1830.57 1462.5 L1843.83 1462.5 L1843.83 1465.69 L1826 1465.69 L1826 1462.5 Q1828.16 1460.26 1831.89 1456.5 Q1835.63 1452.72 1836.59 1451.63 Q1838.41 1449.58 1839.13 1448.16 Q1839.86 1446.74 1839.86 1445.36 Q1839.86 1443.12 1838.28 1441.71 Q1836.72 1440.3 1834.2 1440.3 Q1832.41 1440.3 1830.42 1440.92 Q1828.44 1441.54 1826.19 1442.8 L1826.19 1438.97 Q1828.48 1438.05 1830.47 1437.58 Q1832.47 1437.11 1834.12 1437.11 Q1838.49 1437.11 1841.08 1439.29 Q1843.68 1441.47 1843.68 1445.12 Q1843.68 1446.85 1843.02 1448.41 Q1842.38 1449.95 1840.67 1452.06 Q1840.2 1452.6 1837.68 1455.22 Q1835.16 1457.81 1830.57 1462.5 Z" fill="#000000" fill-rule="evenodd" fill-opacity="1" /><path clip-path="url(#clip730)" d="M 0 0 M1847.98 1437.61 L1862.9 1437.61 L1862.9 1440.81 L1851.46 1440.81 L1851.46 1447.69 Q1852.29 1447.41 1853.12 1447.28 Q1853.95 1447.13 1854.77 1447.13 Q1859.48 1447.13 1862.22 1449.71 Q1864.97 1452.28 1864.97 1456.68 Q1864.97 1461.22 1862.15 1463.74 Q1859.33 1466.24 1854.19 1466.24 Q1852.42 1466.24 1850.58 1465.94 Q1848.76 1465.64 1846.8 1465.04 L1846.8 1461.22 Q1848.49 1462.14 1850.3 1462.59 Q1852.1 1463.04 1854.12 1463.04 Q1857.37 1463.04 1859.27 1461.33 Q1861.17 1459.62 1861.17 1456.68 Q1861.17 1453.75 1859.27 1452.04 Q1857.37 1450.33 1854.12 1450.33 Q1852.59 1450.33 1851.07 1450.67 Q1849.56 1451 1847.98 1451.72 L1847.98 1437.61 Z" fill="#000000" fill-rule="evenodd" fill-opacity="1" /><path clip-path="url(#clip730)" d="M 0 0 M2221.37 1489.17 L2229.01 1489.17 L2229.01 1462.8 L2220.7 1464.47 L2220.7 1460.21 L2228.97 1458.54 L2233.64 1458.54 L2233.64 1489.17 L2241.28 1489.17 L2241.28 1493.1 L2221.37 1493.1 L2221.37 1489.17 Z" fill="#000000" fill-rule="evenodd" fill-opacity="1" /><path clip-path="url(#clip730)" d="M 0 0 M2256.35 1461.62 Q2252.74 1461.62 2250.91 1465.19 Q2249.11 1468.73 2249.11 1475.86 Q2249.11 1482.97 2250.91 1486.53 Q2252.74 1490.07 2256.35 1490.07 Q2259.99 1490.07 2261.79 1486.53 Q2263.62 1482.97 2263.62 1475.86 Q2263.62 1468.73 2261.79 1465.19 Q2259.99 1461.62 2256.35 1461.62 M2256.35 1457.92 Q2262.16 1457.92 2265.22 1462.53 Q2268.3 1467.11 2268.3 1475.86 Q2268.3 1484.59 2265.22 1489.19 Q2262.16 1493.78 2256.35 1493.78 Q2250.54 1493.78 2247.46 1489.19 Q2244.41 1484.59 2244.41 1475.86 Q2244.41 1467.11 2247.46 1462.53 Q2250.54 1457.92 2256.35 1457.92 Z" fill="#000000" fill-rule="evenodd" fill-opacity="1" /><path clip-path="url(#clip730)" d="M 0 0 M2268.3 1452.02 L2292.41 1452.02 L2292.41 1455.22 L2268.3 1455.22 L2268.3 1452.02 Z" fill="#000000" fill-rule="evenodd" fill-opacity="1" /><path clip-path="url(#clip730)" d="M 0 0 M2299.8 1462.5 L2313.06 1462.5 L2313.06 1465.69 L2295.23 1465.69 L2295.23 1462.5 Q2297.39 1460.26 2301.12 1456.5 Q2304.86 1452.72 2305.82 1451.63 Q2307.64 1449.58 2308.36 1448.16 Q2309.09 1446.74 2309.09 1445.36 Q2309.09 1443.12 2307.51 1441.71 Q2305.95 1440.3 2303.43 1440.3 Q2301.64 1440.3 2299.65 1440.92 Q2297.67 1441.54 2295.42 1442.8 L2295.42 1438.97 Q2297.71 1438.05 2299.7 1437.58 Q2301.7 1437.11 2303.35 1437.11 Q2307.72 1437.11 2310.31 1439.29 Q2312.91 1441.47 2312.91 1445.12 Q2312.91 1446.85 2312.25 1448.41 Q2311.61 1449.95 2309.9 1452.06 Q2309.43 1452.6 2306.91 1455.22 Q2304.39 1457.81 2299.8 1462.5 Z" fill="#000000" fill-rule="evenodd" fill-opacity="1" /><path clip-path="url(#clip730)" d="M 0 0 M2317.18 1460.92 L2321.15 1460.92 L2321.15 1465.69 L2317.18 1465.69 L2317.18 1460.92 Z" fill="#000000" fill-rule="evenodd" fill-opacity="1" /><path clip-path="url(#clip730)" d="M 0 0 M2333.39 1440.11 Q2330.46 1440.11 2328.97 1443.01 Q2327.5 1445.89 2327.5 1451.68 Q2327.5 1457.46 2328.97 1460.35 Q2330.46 1463.23 2333.39 1463.23 Q2336.34 1463.23 2337.81 1460.35 Q2339.3 1457.46 2339.3 1451.68 Q2339.3 1445.89 2337.81 1443.01 Q2336.34 1440.11 2333.39 1440.11 M2333.39 1437.11 Q2338.11 1437.11 2340.59 1440.85 Q2343.09 1444.57 2343.09 1451.68 Q2343.09 1458.77 2340.59 1462.51 Q2338.11 1466.24 2333.39 1466.24 Q2328.67 1466.24 2326.17 1462.51 Q2323.68 1458.77 2323.68 1451.68 Q2323.68 1444.57 2326.17 1440.85 Q2328.67 1437.11 2333.39 1437.11 Z" fill="#000000" fill-rule="evenodd" fill-opacity="1" /><path clip-path="url(#clip730)" d="M 0 0 M2355.34 1440.11 Q2352.4 1440.11 2350.92 1443.01 Q2349.45 1445.89 2349.45 1451.68 Q2349.45 1457.46 2350.92 1460.35 Q2352.4 1463.23 2355.34 1463.23 Q2358.29 1463.23 2359.76 1460.35 Q2361.24 1457.46 2361.24 1451.68 Q2361.24 1445.89 2359.76 1443.01 Q2358.29 1440.11 2355.34 1440.11 M2355.34 1437.11 Q2360.06 1437.11 2362.54 1440.85 Q2365.04 1444.57 2365.04 1451.68 Q2365.04 1458.77 2362.54 1462.51 Q2360.06 1466.24 2355.34 1466.24 Q2350.62 1466.24 2348.12 1462.51 Q2345.63 1458.77 2345.63 1451.68 Q2345.63 1444.57 2348.12 1440.85 Q2350.62 1437.11 2355.34 1437.11 Z" fill="#000000" fill-rule="evenodd" fill-opacity="1" /><path clip-path="url(#clip730)" d="M 0 0 M1220.05 1512.66 L1225.94 1512.66 L1225.94 1541.91 L1243.41 1526.54 L1250.89 1526.54 L1231.98 1543.22 L1251.69 1562.19 L1244.05 1562.19 L1225.94 1544.78 L1225.94 1562.19 L1220.05 1562.19 L1220.05 1512.66 Z" fill="#000000" fill-rule="evenodd" fill-opacity="1" /><path clip-path="url(#clip730)" d="M 0 0 M1284.91 1573.01 L1284.91 1577.56 L1251.05 1577.56 L1251.05 1573.01 L1284.91 1573.01 Z" fill="#000000" fill-rule="evenodd" fill-opacity="1" /><path clip-path="url(#clip730)" d="M 0 0 M1304.87 1530.64 Q1300.16 1530.64 1297.42 1534.34 Q1294.69 1538 1294.69 1544.39 Q1294.69 1550.79 1297.39 1554.48 Q1300.13 1558.14 1304.87 1558.14 Q1309.55 1558.14 1312.29 1554.45 Q1315.02 1550.76 1315.02 1544.39 Q1315.02 1538.06 1312.29 1534.37 Q1309.55 1530.64 1304.87 1530.64 M1304.87 1525.68 Q1312.51 1525.68 1316.87 1530.64 Q1321.23 1535.61 1321.23 1544.39 Q1321.23 1553.15 1316.87 1558.14 Q1312.51 1563.11 1304.87 1563.11 Q1297.2 1563.11 1292.84 1558.14 Q1288.51 1553.15 1288.51 1544.39 Q1288.51 1535.61 1292.84 1530.64 Q1297.2 1525.68 1304.87 1525.68 Z" fill="#000000" fill-rule="evenodd" fill-opacity="1" /><path clip-path="url(#clip730)" d="M 0 0 M1345.42 1512.66 L1345.42 1517.53 L1339.82 1517.53 Q1336.67 1517.53 1335.43 1518.8 Q1334.22 1520.08 1334.22 1523.39 L1334.22 1526.54 L1343.86 1526.54 L1343.86 1531.09 L1334.22 1531.09 L1334.22 1562.19 L1328.33 1562.19 L1328.33 1531.09 L1322.73 1531.09 L1322.73 1526.54 L1328.33 1526.54 L1328.33 1524.05 Q1328.33 1518.1 1331.1 1515.4 Q1333.87 1512.66 1339.88 1512.66 L1345.42 1512.66 Z" fill="#000000" fill-rule="evenodd" fill-opacity="1" /><path clip-path="url(#clip730)" d="M 0 0 M1369.61 1512.66 L1369.61 1517.53 L1364.01 1517.53 Q1360.86 1517.53 1359.62 1518.8 Q1358.41 1520.08 1358.41 1523.39 L1358.41 1526.54 L1368.05 1526.54 L1368.05 1531.09 L1358.41 1531.09 L1358.41 1562.19 L1352.52 1562.19 L1352.52 1531.09 L1346.92 1531.09 L1346.92 1526.54 L1352.52 1526.54 L1352.52 1524.05 Q1352.52 1518.1 1355.29 1515.4 Q1358.06 1512.66 1364.07 1512.66 L1369.61 1512.66 Z" fill="#000000" fill-rule="evenodd" fill-opacity="1" /><polyline clip-path="url(#clip732)" style="stroke:#000000; stroke-width:2; stroke-opacity:0.1; fill:none" points="
  236.903,1224.19 2352.76,1224.19 
  "/>
<polyline clip-path="url(#clip732)" style="stroke:#000000; stroke-width:2; stroke-opacity:0.1; fill:none" points="
  236.903,943.969 2352.76,943.969 
  "/>
<polyline clip-path="url(#clip732)" style="stroke:#000000; stroke-width:2; stroke-opacity:0.1; fill:none" points="
  236.903,663.753 2352.76,663.753 
  "/>
<polyline clip-path="url(#clip732)" style="stroke:#000000; stroke-width:2; stroke-opacity:0.1; fill:none" points="
  236.903,383.536 2352.76,383.536 
  "/>
<polyline clip-path="url(#clip732)" style="stroke:#000000; stroke-width:2; stroke-opacity:0.1; fill:none" points="
  236.903,103.32 2352.76,103.32 
  "/>
<polyline clip-path="url(#clip730)" style="stroke:#000000; stroke-width:4; stroke-opacity:1; fill:none" points="
  236.903,1410.9 236.903,47.2441 
  "/>
<polyline clip-path="url(#clip730)" style="stroke:#000000; stroke-width:4; stroke-opacity:1; fill:none" points="
  236.903,1224.19 262.293,1224.19 
  "/>
<polyline clip-path="url(#clip730)" style="stroke:#000000; stroke-width:4; stroke-opacity:1; fill:none" points="
  236.903,943.969 262.293,943.969 
  "/>
<polyline clip-path="url(#clip730)" style="stroke:#000000; stroke-width:4; stroke-opacity:1; fill:none" points="
  236.903,663.753 262.293,663.753 
  "/>
<polyline clip-path="url(#clip730)" style="stroke:#000000; stroke-width:4; stroke-opacity:1; fill:none" points="
  236.903,383.536 262.293,383.536 
  "/>
<polyline clip-path="url(#clip730)" style="stroke:#000000; stroke-width:4; stroke-opacity:1; fill:none" points="
  236.903,103.32 262.293,103.32 
  "/>
<path clip-path="url(#clip730)" d="M 0 0 M130.626 1222.83 Q133.982 1223.55 135.857 1225.82 Q137.755 1228.09 137.755 1231.42 Q137.755 1236.53 134.237 1239.34 Q130.718 1242.14 124.237 1242.14 Q122.061 1242.14 119.746 1241.7 Q117.455 1241.28 115.001 1240.42 L115.001 1235.91 Q116.945 1237.04 119.26 1237.62 Q121.575 1238.2 124.098 1238.2 Q128.496 1238.2 130.788 1236.47 Q133.103 1234.73 133.103 1231.42 Q133.103 1228.36 130.95 1226.65 Q128.82 1224.91 125.001 1224.91 L120.973 1224.91 L120.973 1221.07 L125.186 1221.07 Q128.635 1221.07 130.464 1219.71 Q132.292 1218.32 132.292 1215.72 Q132.292 1213.06 130.394 1211.65 Q128.519 1210.22 125.001 1210.22 Q123.08 1210.22 120.88 1210.63 Q118.681 1211.05 116.043 1211.93 L116.043 1207.76 Q118.705 1207.02 121.019 1206.65 Q123.357 1206.28 125.418 1206.28 Q130.742 1206.28 133.843 1208.71 Q136.945 1211.12 136.945 1215.24 Q136.945 1218.11 135.302 1220.1 Q133.658 1222.07 130.626 1222.83 Z" fill="#000000" fill-rule="evenodd" fill-opacity="1" /><path clip-path="url(#clip730)" d="M 0 0 M142.825 1235.59 L147.709 1235.59 L147.709 1241.47 L142.825 1241.47 L142.825 1235.59 Z" fill="#000000" fill-rule="evenodd" fill-opacity="1" /><path clip-path="url(#clip730)" d="M 0 0 M163.357 1222.32 Q160.209 1222.32 158.357 1224.47 Q156.528 1226.63 156.528 1230.38 Q156.528 1234.1 158.357 1236.28 Q160.209 1238.43 163.357 1238.43 Q166.505 1238.43 168.334 1236.28 Q170.186 1234.1 170.186 1230.38 Q170.186 1226.63 168.334 1224.47 Q166.505 1222.32 163.357 1222.32 M172.639 1207.67 L172.639 1211.93 Q170.88 1211.1 169.075 1210.66 Q167.292 1210.22 165.533 1210.22 Q160.903 1210.22 158.45 1213.34 Q156.019 1216.47 155.672 1222.79 Q157.038 1220.77 159.098 1219.71 Q161.158 1218.62 163.635 1218.62 Q168.843 1218.62 171.852 1221.79 Q174.885 1224.94 174.885 1230.38 Q174.885 1235.7 171.737 1238.92 Q168.589 1242.14 163.357 1242.14 Q157.362 1242.14 154.19 1237.55 Q151.019 1232.95 151.019 1224.22 Q151.019 1216.03 154.908 1211.16 Q158.797 1206.28 165.348 1206.28 Q167.107 1206.28 168.889 1206.63 Q170.695 1206.97 172.639 1207.67 Z" fill="#000000" fill-rule="evenodd" fill-opacity="1" /><path clip-path="url(#clip730)" d="M 0 0 M180.001 1206.91 L198.357 1206.91 L198.357 1210.84 L184.283 1210.84 L184.283 1219.31 Q185.301 1218.97 186.32 1218.8 Q187.338 1218.62 188.357 1218.62 Q194.144 1218.62 197.524 1221.79 Q200.903 1224.96 200.903 1230.38 Q200.903 1235.96 197.431 1239.06 Q193.959 1242.14 187.639 1242.14 Q185.463 1242.14 183.195 1241.77 Q180.95 1241.4 178.542 1240.66 L178.542 1235.96 Q180.626 1237.09 182.848 1237.65 Q185.07 1238.2 187.547 1238.2 Q191.551 1238.2 193.889 1236.1 Q196.227 1233.99 196.227 1230.38 Q196.227 1226.77 193.889 1224.66 Q191.551 1222.55 187.547 1222.55 Q185.672 1222.55 183.797 1222.97 Q181.945 1223.39 180.001 1224.27 L180.001 1206.91 Z" fill="#000000" fill-rule="evenodd" fill-opacity="1" /><path clip-path="url(#clip730)" d="M 0 0 M130.695 942.615 Q134.052 943.333 135.927 945.601 Q137.825 947.87 137.825 951.203 Q137.825 956.319 134.306 959.119 Q130.788 961.92 124.306 961.92 Q122.13 961.92 119.816 961.481 Q117.524 961.064 115.07 960.207 L115.07 955.694 Q117.015 956.828 119.33 957.407 Q121.644 957.985 124.168 957.985 Q128.566 957.985 130.857 956.249 Q133.172 954.513 133.172 951.203 Q133.172 948.147 131.019 946.434 Q128.89 944.698 125.07 944.698 L121.043 944.698 L121.043 940.856 L125.255 940.856 Q128.705 940.856 130.533 939.49 Q132.362 938.101 132.362 935.509 Q132.362 932.846 130.464 931.434 Q128.589 929.999 125.07 929.999 Q123.149 929.999 120.95 930.416 Q118.751 930.833 116.112 931.712 L116.112 927.546 Q118.774 926.805 121.089 926.434 Q123.427 926.064 125.487 926.064 Q130.811 926.064 133.913 928.495 Q137.015 930.902 137.015 935.022 Q137.015 937.893 135.371 939.883 Q133.728 941.851 130.695 942.615 Z" fill="#000000" fill-rule="evenodd" fill-opacity="1" /><path clip-path="url(#clip730)" d="M 0 0 M142.894 955.37 L147.778 955.37 L147.778 961.249 L142.894 961.249 L142.894 955.37 Z" fill="#000000" fill-rule="evenodd" fill-opacity="1" /><path clip-path="url(#clip730)" d="M 0 0 M151.667 926.689 L173.889 926.689 L173.889 928.68 L161.343 961.249 L156.459 961.249 L168.264 930.624 L151.667 930.624 L151.667 926.689 Z" fill="#000000" fill-rule="evenodd" fill-opacity="1" /><path clip-path="url(#clip730)" d="M 0 0 M188.959 929.768 Q185.348 929.768 183.519 933.333 Q181.713 936.874 181.713 944.004 Q181.713 951.11 183.519 954.675 Q185.348 958.217 188.959 958.217 Q192.593 958.217 194.399 954.675 Q196.227 951.11 196.227 944.004 Q196.227 936.874 194.399 933.333 Q192.593 929.768 188.959 929.768 M188.959 926.064 Q194.769 926.064 197.825 930.671 Q200.903 935.254 200.903 944.004 Q200.903 952.731 197.825 957.337 Q194.769 961.92 188.959 961.92 Q183.149 961.92 180.07 957.337 Q177.014 952.731 177.014 944.004 Q177.014 935.254 180.07 930.671 Q183.149 926.064 188.959 926.064 Z" fill="#000000" fill-rule="evenodd" fill-opacity="1" /><path clip-path="url(#clip730)" d="M 0 0 M131.691 662.399 Q135.047 663.116 136.922 665.385 Q138.82 667.653 138.82 670.987 Q138.82 676.102 135.302 678.903 Q131.783 681.704 125.302 681.704 Q123.126 681.704 120.811 681.264 Q118.519 680.848 116.066 679.991 L116.066 675.477 Q118.01 676.611 120.325 677.19 Q122.64 677.769 125.163 677.769 Q129.561 677.769 131.853 676.033 Q134.167 674.297 134.167 670.987 Q134.167 667.931 132.015 666.218 Q129.885 664.482 126.066 664.482 L122.038 664.482 L122.038 660.639 L126.251 660.639 Q129.7 660.639 131.529 659.274 Q133.357 657.885 133.357 655.292 Q133.357 652.63 131.459 651.218 Q129.584 649.783 126.066 649.783 Q124.144 649.783 121.945 650.2 Q119.746 650.616 117.107 651.496 L117.107 647.329 Q119.769 646.588 122.084 646.218 Q124.422 645.848 126.482 645.848 Q131.806 645.848 134.908 648.278 Q138.01 650.686 138.01 654.806 Q138.01 657.676 136.367 659.667 Q134.723 661.635 131.691 662.399 Z" fill="#000000" fill-rule="evenodd" fill-opacity="1" /><path clip-path="url(#clip730)" d="M 0 0 M143.89 675.153 L148.774 675.153 L148.774 681.033 L143.89 681.033 L143.89 675.153 Z" fill="#000000" fill-rule="evenodd" fill-opacity="1" /><path clip-path="url(#clip730)" d="M 0 0 M152.663 646.473 L174.885 646.473 L174.885 648.463 L162.339 681.033 L157.454 681.033 L169.26 650.408 L152.663 650.408 L152.663 646.473 Z" fill="#000000" fill-rule="evenodd" fill-opacity="1" /><path clip-path="url(#clip730)" d="M 0 0 M180.001 646.473 L198.357 646.473 L198.357 650.408 L184.283 650.408 L184.283 658.88 Q185.301 658.533 186.32 658.371 Q187.338 658.186 188.357 658.186 Q194.144 658.186 197.524 661.357 Q200.903 664.528 200.903 669.945 Q200.903 675.524 197.431 678.625 Q193.959 681.704 187.639 681.704 Q185.463 681.704 183.195 681.334 Q180.95 680.963 178.542 680.223 L178.542 675.524 Q180.626 676.658 182.848 677.213 Q185.07 677.769 187.547 677.769 Q191.551 677.769 193.889 675.662 Q196.227 673.556 196.227 669.945 Q196.227 666.334 193.889 664.227 Q191.551 662.121 187.547 662.121 Q185.672 662.121 183.797 662.537 Q181.945 662.954 180.001 663.834 L180.001 646.473 Z" fill="#000000" fill-rule="evenodd" fill-opacity="1" /><path clip-path="url(#clip730)" d="M 0 0 M129.885 382.182 Q133.242 382.9 135.117 385.168 Q137.015 387.437 137.015 390.77 Q137.015 395.886 133.496 398.687 Q129.978 401.488 123.496 401.488 Q121.32 401.488 119.006 401.048 Q116.714 400.631 114.26 399.775 L114.26 395.261 Q116.205 396.395 118.519 396.974 Q120.834 397.553 123.357 397.553 Q127.755 397.553 130.047 395.816 Q132.362 394.08 132.362 390.77 Q132.362 387.715 130.209 386.002 Q128.08 384.266 124.26 384.266 L120.232 384.266 L120.232 380.423 L124.445 380.423 Q127.894 380.423 129.723 379.057 Q131.552 377.668 131.552 375.076 Q131.552 372.414 129.654 371.002 Q127.779 369.567 124.26 369.567 Q122.339 369.567 120.14 369.983 Q117.941 370.4 115.302 371.28 L115.302 367.113 Q117.964 366.372 120.279 366.002 Q122.617 365.631 124.677 365.631 Q130.001 365.631 133.103 368.062 Q136.204 370.469 136.204 374.59 Q136.204 377.46 134.561 379.451 Q132.917 381.418 129.885 382.182 Z" fill="#000000" fill-rule="evenodd" fill-opacity="1" /><path clip-path="url(#clip730)" d="M 0 0 M142.084 394.937 L146.968 394.937 L146.968 400.816 L142.084 400.816 L142.084 394.937 Z" fill="#000000" fill-rule="evenodd" fill-opacity="1" /><path clip-path="url(#clip730)" d="M 0 0 M162.038 384.404 Q158.704 384.404 156.783 386.187 Q154.885 387.969 154.885 391.094 Q154.885 394.219 156.783 396.002 Q158.704 397.784 162.038 397.784 Q165.371 397.784 167.292 396.002 Q169.214 394.196 169.214 391.094 Q169.214 387.969 167.292 386.187 Q165.394 384.404 162.038 384.404 M157.362 382.414 Q154.353 381.673 152.663 379.613 Q150.996 377.553 150.996 374.59 Q150.996 370.446 153.936 368.039 Q156.899 365.631 162.038 365.631 Q167.2 365.631 170.139 368.039 Q173.079 370.446 173.079 374.59 Q173.079 377.553 171.389 379.613 Q169.723 381.673 166.737 382.414 Q170.116 383.201 171.991 385.492 Q173.889 387.784 173.889 391.094 Q173.889 396.117 170.811 398.803 Q167.755 401.488 162.038 401.488 Q156.32 401.488 153.241 398.803 Q150.186 396.117 150.186 391.094 Q150.186 387.784 152.084 385.492 Q153.982 383.201 157.362 382.414 M155.649 375.029 Q155.649 377.715 157.315 379.219 Q159.005 380.724 162.038 380.724 Q165.047 380.724 166.737 379.219 Q168.45 377.715 168.45 375.029 Q168.45 372.344 166.737 370.84 Q165.047 369.335 162.038 369.335 Q159.005 369.335 157.315 370.84 Q155.649 372.344 155.649 375.029 Z" fill="#000000" fill-rule="evenodd" fill-opacity="1" /><path clip-path="url(#clip730)" d="M 0 0 M188.959 369.335 Q185.348 369.335 183.519 372.9 Q181.713 376.442 181.713 383.571 Q181.713 390.678 183.519 394.242 Q185.348 397.784 188.959 397.784 Q192.593 397.784 194.399 394.242 Q196.227 390.678 196.227 383.571 Q196.227 376.442 194.399 372.9 Q192.593 369.335 188.959 369.335 M188.959 365.631 Q194.769 365.631 197.825 370.238 Q200.903 374.821 200.903 383.571 Q200.903 392.298 197.825 396.904 Q194.769 401.488 188.959 401.488 Q183.149 401.488 180.07 396.904 Q177.014 392.298 177.014 383.571 Q177.014 374.821 180.07 370.238 Q183.149 365.631 188.959 365.631 Z" fill="#000000" fill-rule="evenodd" fill-opacity="1" /><path clip-path="url(#clip730)" d="M 0 0 M130.88 101.966 Q134.237 102.683 136.112 104.952 Q138.01 107.22 138.01 110.554 Q138.01 115.669 134.492 118.47 Q130.973 121.271 124.492 121.271 Q122.316 121.271 120.001 120.832 Q117.709 120.415 115.256 119.558 L115.256 115.044 Q117.2 116.179 119.515 116.757 Q121.83 117.336 124.353 117.336 Q128.751 117.336 131.042 115.6 Q133.357 113.864 133.357 110.554 Q133.357 107.498 131.205 105.785 Q129.075 104.049 125.255 104.049 L121.228 104.049 L121.228 100.207 L125.441 100.207 Q128.89 100.207 130.718 98.8409 Q132.547 97.452 132.547 94.8594 Q132.547 92.1974 130.649 90.7854 Q128.774 89.3502 125.255 89.3502 Q123.334 89.3502 121.135 89.7669 Q118.936 90.1835 116.297 91.0631 L116.297 86.8965 Q118.959 86.1558 121.274 85.7854 Q123.612 85.415 125.672 85.415 Q130.996 85.415 134.098 87.8456 Q137.2 90.253 137.2 94.3733 Q137.2 97.2437 135.556 99.2344 Q133.913 101.202 130.88 101.966 Z" fill="#000000" fill-rule="evenodd" fill-opacity="1" /><path clip-path="url(#clip730)" d="M 0 0 M143.079 114.72 L147.964 114.72 L147.964 120.6 L143.079 120.6 L143.079 114.72 Z" fill="#000000" fill-rule="evenodd" fill-opacity="1" /><path clip-path="url(#clip730)" d="M 0 0 M163.033 104.188 Q159.7 104.188 157.778 105.97 Q155.88 107.753 155.88 110.878 Q155.88 114.003 157.778 115.785 Q159.7 117.568 163.033 117.568 Q166.366 117.568 168.288 115.785 Q170.209 113.98 170.209 110.878 Q170.209 107.753 168.288 105.97 Q166.39 104.188 163.033 104.188 M158.357 102.197 Q155.348 101.457 153.658 99.3964 Q151.991 97.3363 151.991 94.3733 Q151.991 90.2298 154.931 87.8224 Q157.894 85.415 163.033 85.415 Q168.195 85.415 171.135 87.8224 Q174.075 90.2298 174.075 94.3733 Q174.075 97.3363 172.385 99.3964 Q170.718 101.457 167.732 102.197 Q171.112 102.984 172.987 105.276 Q174.885 107.568 174.885 110.878 Q174.885 115.901 171.806 118.586 Q168.751 121.271 163.033 121.271 Q157.315 121.271 154.237 118.586 Q151.181 115.901 151.181 110.878 Q151.181 107.568 153.079 105.276 Q154.978 102.984 158.357 102.197 M156.644 94.8131 Q156.644 97.4983 158.311 99.0029 Q160.001 100.508 163.033 100.508 Q166.042 100.508 167.732 99.0029 Q169.445 97.4983 169.445 94.8131 Q169.445 92.128 167.732 90.6233 Q166.042 89.1187 163.033 89.1187 Q160.001 89.1187 158.311 90.6233 Q156.644 92.128 156.644 94.8131 Z" fill="#000000" fill-rule="evenodd" fill-opacity="1" /><path clip-path="url(#clip730)" d="M 0 0 M180.001 86.04 L198.357 86.04 L198.357 89.9752 L184.283 89.9752 L184.283 98.4474 Q185.301 98.1001 186.32 97.9381 Q187.338 97.7529 188.357 97.7529 Q194.144 97.7529 197.524 100.924 Q200.903 104.095 200.903 109.512 Q200.903 115.091 197.431 118.193 Q193.959 121.271 187.639 121.271 Q185.463 121.271 183.195 120.901 Q180.95 120.531 178.542 119.79 L178.542 115.091 Q180.626 116.225 182.848 116.781 Q185.07 117.336 187.547 117.336 Q191.551 117.336 193.889 115.23 Q196.227 113.123 196.227 109.512 Q196.227 105.901 193.889 103.795 Q191.551 101.688 187.547 101.688 Q185.672 101.688 183.797 102.105 Q181.945 102.521 180.001 103.401 L180.001 86.04 Z" fill="#000000" fill-rule="evenodd" fill-opacity="1" /><path clip-path="url(#clip730)" d="M 0 0 M59.1993 815.533 Q55.2526 813.336 53.3747 810.281 Q51.4968 807.225 51.4968 803.088 Q51.4968 797.518 55.4117 794.494 Q59.2948 791.47 66.4881 791.47 L88.0042 791.47 L88.0042 797.358 L66.679 797.358 Q61.5546 797.358 59.072 799.173 Q56.5894 800.987 56.5894 804.711 Q56.5894 809.262 59.6131 811.904 Q62.6368 814.546 67.8567 814.546 L88.0042 814.546 L88.0042 820.434 L66.679 820.434 Q61.5228 820.434 59.072 822.248 Q56.5894 824.063 56.5894 827.85 Q56.5894 832.338 59.6449 834.98 Q62.6686 837.622 67.8567 837.622 L88.0042 837.622 L88.0042 843.51 L52.3562 843.51 L52.3562 837.622 L57.8944 837.622 Q54.616 835.616 53.0564 832.815 Q51.4968 830.015 51.4968 826.163 Q51.4968 822.28 53.4702 819.575 Q55.4436 816.838 59.1993 815.533 Z" fill="#000000" fill-rule="evenodd" fill-opacity="1" /><path clip-path="url(#clip730)" d="M 0 0 M52.3562 785.327 L52.3562 779.471 L88.0042 779.471 L88.0042 785.327 L52.3562 785.327 M38.479 785.327 L38.479 779.471 L45.895 779.471 L45.895 785.327 L38.479 785.327 Z" fill="#000000" fill-rule="evenodd" fill-opacity="1" /><path clip-path="url(#clip730)" d="M 0 0 M66.4881 743.696 L88.0042 743.696 L88.0042 749.552 L66.679 749.552 Q61.6183 749.552 59.1038 751.525 Q56.5894 753.499 56.5894 757.446 Q56.5894 762.188 59.6131 764.925 Q62.6368 767.662 67.8567 767.662 L88.0042 767.662 L88.0042 773.551 L52.3562 773.551 L52.3562 767.662 L57.8944 767.662 Q54.6797 765.562 53.0883 762.729 Q51.4968 759.864 51.4968 756.141 Q51.4968 749.998 55.3163 746.847 Q59.1038 743.696 66.4881 743.696 Z" fill="#000000" fill-rule="evenodd" fill-opacity="1" /><path clip-path="url(#clip730)" d="M 0 0 M98.8259 710.467 L103.377 710.467 L103.377 744.332 L98.8259 744.332 L98.8259 710.467 Z" fill="#000000" fill-rule="evenodd" fill-opacity="1" /><path clip-path="url(#clip730)" d="M 0 0 M57.7671 680.866 L38.479 680.866 L38.479 675.01 L88.0042 675.01 L88.0042 680.866 L82.657 680.866 Q85.8398 682.712 87.3994 685.545 Q88.9272 688.346 88.9272 692.292 Q88.9272 698.754 83.771 702.828 Q78.6147 706.87 70.212 706.87 Q61.8093 706.87 56.6531 702.828 Q51.4968 698.754 51.4968 692.292 Q51.4968 688.346 53.0564 685.545 Q54.5842 682.712 57.7671 680.866 M70.212 700.823 Q76.6732 700.823 80.3653 698.181 Q84.0256 695.507 84.0256 690.86 Q84.0256 686.213 80.3653 683.54 Q76.6732 680.866 70.212 680.866 Q63.7508 680.866 60.0905 683.54 Q56.3984 686.213 56.3984 690.86 Q56.3984 695.507 60.0905 698.181 Q63.7508 700.823 70.212 700.823 Z" fill="#000000" fill-rule="evenodd" fill-opacity="1" /><path clip-path="url(#clip730)" d="M 0 0 M52.3562 668.867 L52.3562 663.01 L88.0042 663.01 L88.0042 668.867 L52.3562 668.867 M38.479 668.867 L38.479 663.01 L45.895 663.01 L45.895 668.867 L38.479 668.867 Z" fill="#000000" fill-rule="evenodd" fill-opacity="1" /><path clip-path="url(#clip730)" d="M 0 0 M38.479 638.821 L43.3487 638.821 L43.3487 644.422 Q43.3487 647.573 44.6219 648.815 Q45.895 650.024 49.2052 650.024 L52.3562 650.024 L52.3562 640.38 L56.9077 640.38 L56.9077 650.024 L88.0042 650.024 L88.0042 655.912 L56.9077 655.912 L56.9077 661.514 L52.3562 661.514 L52.3562 655.912 L49.8736 655.912 Q43.9216 655.912 41.2162 653.143 Q38.479 650.374 38.479 644.359 L38.479 638.821 Z" fill="#000000" fill-rule="evenodd" fill-opacity="1" /><path clip-path="url(#clip730)" d="M 0 0 M38.479 614.631 L43.3487 614.631 L43.3487 620.233 Q43.3487 623.384 44.6219 624.625 Q45.895 625.835 49.2052 625.835 L52.3562 625.835 L52.3562 616.19 L56.9077 616.19 L56.9077 625.835 L88.0042 625.835 L88.0042 631.723 L56.9077 631.723 L56.9077 637.325 L52.3562 637.325 L52.3562 631.723 L49.8736 631.723 Q43.9216 631.723 41.2162 628.954 Q38.479 626.185 38.479 620.169 L38.479 614.631 Z" fill="#000000" fill-rule="evenodd" fill-opacity="1" /><polyline clip-path="url(#clip732)" style="stroke:#009af9; stroke-width:20; stroke-opacity:1; fill:none" stroke-dasharray="80, 50" points="
  296.786,85.838 1294.83,1372.3 2292.87,179.712 
  "/>
<path clip-path="url(#clip730)" d="
M1996.11 213.659 L2282.23 213.659 L2282.23 92.6992 L1996.11 92.6992  Z
  " fill="#ffffff" fill-rule="evenodd" fill-opacity="1"/>
<polyline clip-path="url(#clip730)" style="stroke:#000000; stroke-width:4; stroke-opacity:1; fill:none" points="
  1996.11,213.659 2282.23,213.659 2282.23,92.6992 1996.11,92.6992 1996.11,213.659 
  "/>
<polyline clip-path="url(#clip730)" style="stroke:#009af9; stroke-width:4; stroke-opacity:1; fill:none" stroke-dasharray="16, 10" points="
  2019.62,153.179 2160.68,153.179 
  "/>
<path clip-path="url(#clip730)" d="M 0 0 M2198.03 172.867 Q2196.23 177.496 2194.51 178.908 Q2192.8 180.32 2189.93 180.32 L2186.53 180.32 L2186.53 176.755 L2189.03 176.755 Q2190.79 176.755 2191.76 175.922 Q2192.73 175.089 2193.91 171.987 L2194.68 170.043 L2184.19 144.533 L2188.7 144.533 L2196.81 164.811 L2204.91 144.533 L2209.42 144.533 L2198.03 172.867 Z" fill="#000000" fill-rule="evenodd" fill-opacity="1" /><path clip-path="url(#clip730)" d="M 0 0 M2215.3 166.524 L2222.94 166.524 L2222.94 140.158 L2214.63 141.825 L2214.63 137.566 L2222.89 135.899 L2227.57 135.899 L2227.57 166.524 L2235.21 166.524 L2235.21 170.459 L2215.3 170.459 L2215.3 166.524 Z" fill="#000000" fill-rule="evenodd" fill-opacity="1" /></svg>
