<?xml version="1.0" encoding="utf-8"?>
<svg xmlns="http://www.w3.org/2000/svg" xmlns:xlink="http://www.w3.org/1999/xlink" width="600" height="400" viewBox="0 0 2400 1600">
<defs>
  <clipPath id="clip430">
    <rect x="0" y="0" width="2400" height="1600"/>
  </clipPath>
</defs>
<path clip-path="url(#clip430)" d="
M0 1600 L2400 1600 L2400 0 L0 0  Z
  " fill="#ffffff" fill-rule="evenodd" fill-opacity="1"/>
<defs>
  <clipPath id="clip431">
    <rect x="480" y="0" width="1681" height="1600"/>
  </clipPath>
</defs>
<path clip-path="url(#clip430)" d="
M202.459 1410.9 L2352.76 1410.9 L2352.76 47.2441 L202.459 47.2441  Z
  " fill="#ffffff" fill-rule="evenodd" fill-opacity="1"/>
<defs>
  <clipPath id="clip432">
    <rect x="202" y="47" width="2151" height="1365"/>
  </clipPath>
</defs>
<polyline clip-path="url(#clip432)" style="stroke:#000000; stroke-width:2; stroke-opacity:0.1; fill:none" points="
  420.844,1410.9 420.844,47.2441 
  "/>
<polyline clip-path="url(#clip432)" style="stroke:#000000; stroke-width:2; stroke-opacity:0.1; fill:none" points="
  732.686,1410.9 732.686,47.2441 
  "/>
<polyline clip-path="url(#clip432)" style="stroke:#000000; stroke-width:2; stroke-opacity:0.1; fill:none" points="
  1044.53,1410.9 1044.53,47.2441 
  "/>
<polyline clip-path="url(#clip432)" style="stroke:#000000; stroke-width:2; stroke-opacity:0.1; fill:none" points="
  1356.37,1410.9 1356.37,47.2441 
  "/>
<polyline clip-path="url(#clip432)" style="stroke:#000000; stroke-width:2; stroke-opacity:0.1; fill:none" points="
  1668.21,1410.9 1668.21,47.2441 
  "/>
<polyline clip-path="url(#clip432)" style="stroke:#000000; stroke-width:2; stroke-opacity:0.1; fill:none" points="
  1980.06,1410.9 1980.06,47.2441 
  "/>
<polyline clip-path="url(#clip432)" style="stroke:#000000; stroke-width:2; stroke-opacity:0.1; fill:none" points="
  2291.9,1410.9 2291.9,47.2441 
  "/>
<polyline clip-path="url(#clip430)" style="stroke:#000000; stroke-width:4; stroke-opacity:1; fill:none" points="
  202.459,1410.9 2352.76,1410.9 
  "/>
<polyline clip-path="url(#clip430)" style="stroke:#000000; stroke-width:4; stroke-opacity:1; fill:none" points="
  420.844,1410.9 420.844,1394.53 
  "/>
<polyline clip-path="url(#clip430)" style="stroke:#000000; stroke-width:4; stroke-opacity:1; fill:none" points="
  732.686,1410.9 732.686,1394.53 
  "/>
<polyline clip-path="url(#clip430)" style="stroke:#000000; stroke-width:4; stroke-opacity:1; fill:none" points="
  1044.53,1410.9 1044.53,1394.53 
  "/>
<polyline clip-path="url(#clip430)" style="stroke:#000000; stroke-width:4; stroke-opacity:1; fill:none" points="
  1356.37,1410.9 1356.37,1394.53 
  "/>
<polyline clip-path="url(#clip430)" style="stroke:#000000; stroke-width:4; stroke-opacity:1; fill:none" points="
  1668.21,1410.9 1668.21,1394.53 
  "/>
<polyline clip-path="url(#clip430)" style="stroke:#000000; stroke-width:4; stroke-opacity:1; fill:none" points="
  1980.06,1410.9 1980.06,1394.53 
  "/>
<polyline clip-path="url(#clip430)" style="stroke:#000000; stroke-width:4; stroke-opacity:1; fill:none" points="
  2291.9,1410.9 2291.9,1394.53 
  "/>
<path clip-path="url(#clip430)" d="M 0 0 M360.32 1489.17 L367.958 1489.17 L367.958 1462.8 L359.648 1464.47 L359.648 1460.21 L367.912 1458.54 L372.588 1458.54 L372.588 1489.17 L380.227 1489.17 L380.227 1493.1 L360.32 1493.1 L360.32 1489.17 Z" fill="#000000" fill-rule="evenodd" fill-opacity="1" /><path clip-path="url(#clip430)" d="M 0 0 M395.296 1461.62 Q391.685 1461.62 389.856 1465.19 Q388.051 1468.73 388.051 1475.86 Q388.051 1482.97 389.856 1486.53 Q391.685 1490.07 395.296 1490.07 Q398.93 1490.07 400.736 1486.53 Q402.565 1482.97 402.565 1475.86 Q402.565 1468.73 400.736 1465.19 Q398.93 1461.62 395.296 1461.62 M395.296 1457.92 Q401.106 1457.92 404.162 1462.53 Q407.241 1467.11 407.241 1475.86 Q407.241 1484.59 404.162 1489.19 Q401.106 1493.78 395.296 1493.78 Q389.486 1493.78 386.407 1489.19 Q383.352 1484.59 383.352 1475.86 Q383.352 1467.11 386.407 1462.53 Q389.486 1457.92 395.296 1457.92 Z" fill="#000000" fill-rule="evenodd" fill-opacity="1" /><path clip-path="url(#clip430)" d="M 0 0 M407.241 1452.02 L431.352 1452.02 L431.352 1455.22 L407.241 1455.22 L407.241 1452.02 Z" fill="#000000" fill-rule="evenodd" fill-opacity="1" /><path clip-path="url(#clip430)" d="M 0 0 M443.596 1440.11 Q440.662 1440.11 439.176 1443.01 Q437.709 1445.89 437.709 1451.68 Q437.709 1457.46 439.176 1460.35 Q440.662 1463.23 443.596 1463.23 Q446.549 1463.23 448.016 1460.35 Q449.502 1457.46 449.502 1451.68 Q449.502 1445.89 448.016 1443.01 Q446.549 1440.11 443.596 1440.11 M443.596 1437.11 Q448.317 1437.11 450.799 1440.85 Q453.301 1444.57 453.301 1451.68 Q453.301 1458.77 450.799 1462.51 Q448.317 1466.24 443.596 1466.24 Q438.875 1466.24 436.374 1462.51 Q433.891 1458.77 433.891 1451.68 Q433.891 1444.57 436.374 1440.85 Q438.875 1437.11 443.596 1437.11 Z" fill="#000000" fill-rule="evenodd" fill-opacity="1" /><path clip-path="url(#clip430)" d="M 0 0 M457.42 1460.92 L461.388 1460.92 L461.388 1465.69 L457.42 1465.69 L457.42 1460.92 Z" fill="#000000" fill-rule="evenodd" fill-opacity="1" /><path clip-path="url(#clip430)" d="M 0 0 M468.78 1462.5 L482.039 1462.5 L482.039 1465.69 L464.209 1465.69 L464.209 1462.5 Q466.372 1460.26 470.096 1456.5 Q473.839 1452.72 474.798 1451.63 Q476.622 1449.58 477.337 1448.16 Q478.071 1446.74 478.071 1445.36 Q478.071 1443.12 476.491 1441.71 Q474.93 1440.3 472.409 1440.3 Q470.623 1440.3 468.629 1440.92 Q466.654 1441.54 464.397 1442.8 L464.397 1438.97 Q466.692 1438.05 468.686 1437.58 Q470.679 1437.11 472.334 1437.11 Q476.698 1437.11 479.293 1439.29 Q481.889 1441.47 481.889 1445.12 Q481.889 1446.85 481.23 1448.41 Q480.591 1449.95 478.879 1452.06 Q478.409 1452.6 475.889 1455.22 Q473.369 1457.81 468.78 1462.5 Z" fill="#000000" fill-rule="evenodd" fill-opacity="1" /><path clip-path="url(#clip430)" d="M 0 0 M684.838 1489.17 L692.477 1489.17 L692.477 1462.8 L684.167 1464.47 L684.167 1460.21 L692.431 1458.54 L697.107 1458.54 L697.107 1489.17 L704.746 1489.17 L704.746 1493.1 L684.838 1493.1 L684.838 1489.17 Z" fill="#000000" fill-rule="evenodd" fill-opacity="1" /><path clip-path="url(#clip430)" d="M 0 0 M719.815 1461.62 Q716.204 1461.62 714.375 1465.19 Q712.57 1468.73 712.57 1475.86 Q712.57 1482.97 714.375 1486.53 Q716.204 1490.07 719.815 1490.07 Q723.449 1490.07 725.255 1486.53 Q727.084 1482.97 727.084 1475.86 Q727.084 1468.73 725.255 1465.19 Q723.449 1461.62 719.815 1461.62 M719.815 1457.92 Q725.625 1457.92 728.681 1462.53 Q731.759 1467.11 731.759 1475.86 Q731.759 1484.59 728.681 1489.19 Q725.625 1493.78 719.815 1493.78 Q714.005 1493.78 710.926 1489.19 Q707.871 1484.59 707.871 1475.86 Q707.871 1467.11 710.926 1462.53 Q714.005 1457.92 719.815 1457.92 Z" fill="#000000" fill-rule="evenodd" fill-opacity="1" /><path clip-path="url(#clip430)" d="M 0 0 M741.464 1440.11 Q738.53 1440.11 737.044 1443.01 Q735.577 1445.89 735.577 1451.68 Q735.577 1457.46 737.044 1460.35 Q738.53 1463.23 741.464 1463.23 Q744.417 1463.23 745.884 1460.35 Q747.37 1457.46 747.37 1451.68 Q747.37 1445.89 745.884 1443.01 Q744.417 1440.11 741.464 1440.11 M741.464 1437.11 Q746.185 1437.11 748.668 1440.85 Q751.169 1444.57 751.169 1451.68 Q751.169 1458.77 748.668 1462.51 Q746.185 1466.24 741.464 1466.24 Q736.744 1466.24 734.242 1462.51 Q731.759 1458.77 731.759 1451.68 Q731.759 1444.57 734.242 1440.85 Q736.744 1437.11 741.464 1437.11 Z" fill="#000000" fill-rule="evenodd" fill-opacity="1" /><path clip-path="url(#clip430)" d="M 0 0 M755.288 1460.92 L759.256 1460.92 L759.256 1465.69 L755.288 1465.69 L755.288 1460.92 Z" fill="#000000" fill-rule="evenodd" fill-opacity="1" /><path clip-path="url(#clip430)" d="M 0 0 M771.5 1440.11 Q768.566 1440.11 767.08 1443.01 Q765.613 1445.89 765.613 1451.68 Q765.613 1457.46 767.08 1460.35 Q768.566 1463.23 771.5 1463.23 Q774.453 1463.23 775.92 1460.35 Q777.406 1457.46 777.406 1451.68 Q777.406 1445.89 775.92 1443.01 Q774.453 1440.11 771.5 1440.11 M771.5 1437.11 Q776.221 1437.11 778.704 1440.85 Q781.205 1444.57 781.205 1451.68 Q781.205 1458.77 778.704 1462.51 Q776.221 1466.24 771.5 1466.24 Q766.78 1466.24 764.278 1462.51 Q761.795 1458.77 761.795 1451.68 Q761.795 1444.57 764.278 1440.85 Q766.78 1437.11 771.5 1437.11 Z" fill="#000000" fill-rule="evenodd" fill-opacity="1" /><path clip-path="url(#clip430)" d="M 0 0 M997.33 1489.17 L1004.97 1489.17 L1004.97 1462.8 L996.658 1464.47 L996.658 1460.21 L1004.92 1458.54 L1009.6 1458.54 L1009.6 1489.17 L1017.24 1489.17 L1017.24 1493.1 L997.33 1493.1 L997.33 1489.17 Z" fill="#000000" fill-rule="evenodd" fill-opacity="1" /><path clip-path="url(#clip430)" d="M 0 0 M1032.31 1461.62 Q1028.7 1461.62 1026.87 1465.19 Q1025.06 1468.73 1025.06 1475.86 Q1025.06 1482.97 1026.87 1486.53 Q1028.7 1490.07 1032.31 1490.07 Q1035.94 1490.07 1037.75 1486.53 Q1039.57 1482.97 1039.57 1475.86 Q1039.57 1468.73 1037.75 1465.19 Q1035.94 1461.62 1032.31 1461.62 M1032.31 1457.92 Q1038.12 1457.92 1041.17 1462.53 Q1044.25 1467.11 1044.25 1475.86 Q1044.25 1484.59 1041.17 1489.19 Q1038.12 1493.78 1032.31 1493.78 Q1026.5 1493.78 1023.42 1489.19 Q1020.36 1484.59 1020.36 1475.86 Q1020.36 1467.11 1023.42 1462.53 Q1026.5 1457.92 1032.31 1457.92 Z" fill="#000000" fill-rule="evenodd" fill-opacity="1" /><path clip-path="url(#clip430)" d="M 0 0 M1053.96 1440.11 Q1051.02 1440.11 1049.54 1443.01 Q1048.07 1445.89 1048.07 1451.68 Q1048.07 1457.46 1049.54 1460.35 Q1051.02 1463.23 1053.96 1463.23 Q1056.91 1463.23 1058.38 1460.35 Q1059.86 1457.46 1059.86 1451.68 Q1059.86 1445.89 1058.38 1443.01 Q1056.91 1440.11 1053.96 1440.11 M1053.96 1437.11 Q1058.68 1437.11 1061.16 1440.85 Q1063.66 1444.57 1063.66 1451.68 Q1063.66 1458.77 1061.16 1462.51 Q1058.68 1466.24 1053.96 1466.24 Q1049.23 1466.24 1046.73 1462.51 Q1044.25 1458.77 1044.25 1451.68 Q1044.25 1444.57 1046.73 1440.85 Q1049.23 1437.11 1053.96 1437.11 Z" fill="#000000" fill-rule="evenodd" fill-opacity="1" /><path clip-path="url(#clip430)" d="M 0 0 M1067.78 1460.92 L1071.75 1460.92 L1071.75 1465.69 L1067.78 1465.69 L1067.78 1460.92 Z" fill="#000000" fill-rule="evenodd" fill-opacity="1" /><path clip-path="url(#clip430)" d="M 0 0 M1079.14 1462.5 L1092.4 1462.5 L1092.4 1465.69 L1074.57 1465.69 L1074.57 1462.5 Q1076.73 1460.26 1080.46 1456.5 Q1084.2 1452.72 1085.16 1451.63 Q1086.98 1449.58 1087.7 1448.16 Q1088.43 1446.74 1088.43 1445.36 Q1088.43 1443.12 1086.85 1441.71 Q1085.29 1440.3 1082.77 1440.3 Q1080.98 1440.3 1078.99 1440.92 Q1077.01 1441.54 1074.76 1442.8 L1074.76 1438.97 Q1077.05 1438.05 1079.05 1437.58 Q1081.04 1437.11 1082.69 1437.11 Q1087.06 1437.11 1089.65 1439.29 Q1092.25 1441.47 1092.25 1445.12 Q1092.25 1446.85 1091.59 1448.41 Q1090.95 1449.95 1089.24 1452.06 Q1088.77 1452.6 1086.25 1455.22 Q1083.73 1457.81 1079.14 1462.5 Z" fill="#000000" fill-rule="evenodd" fill-opacity="1" /><path clip-path="url(#clip430)" d="M 0 0 M1308.33 1489.17 L1315.96 1489.17 L1315.96 1462.8 L1307.65 1464.47 L1307.65 1460.21 L1315.92 1458.54 L1320.59 1458.54 L1320.59 1489.17 L1328.23 1489.17 L1328.23 1493.1 L1308.33 1493.1 L1308.33 1489.17 Z" fill="#000000" fill-rule="evenodd" fill-opacity="1" /><path clip-path="url(#clip430)" d="M 0 0 M1343.3 1461.62 Q1339.69 1461.62 1337.86 1465.19 Q1336.06 1468.73 1336.06 1475.86 Q1336.06 1482.97 1337.86 1486.53 Q1339.69 1490.07 1343.3 1490.07 Q1346.94 1490.07 1348.74 1486.53 Q1350.57 1482.97 1350.57 1475.86 Q1350.57 1468.73 1348.74 1465.19 Q1346.94 1461.62 1343.3 1461.62 M1343.3 1457.92 Q1349.11 1457.92 1352.17 1462.53 Q1355.25 1467.11 1355.25 1475.86 Q1355.25 1484.59 1352.17 1489.19 Q1349.11 1493.78 1343.3 1493.78 Q1337.49 1493.78 1334.41 1489.19 Q1331.36 1484.59 1331.36 1475.86 Q1331.36 1467.11 1334.41 1462.53 Q1337.49 1457.92 1343.3 1457.92 Z" fill="#000000" fill-rule="evenodd" fill-opacity="1" /><path clip-path="url(#clip430)" d="M 0 0 M1364.95 1440.11 Q1362.02 1440.11 1360.53 1443.01 Q1359.06 1445.89 1359.06 1451.68 Q1359.06 1457.46 1360.53 1460.35 Q1362.02 1463.23 1364.95 1463.23 Q1367.9 1463.23 1369.37 1460.35 Q1370.86 1457.46 1370.86 1451.68 Q1370.86 1445.89 1369.37 1443.01 Q1367.9 1440.11 1364.95 1440.11 M1364.95 1437.11 Q1369.67 1437.11 1372.16 1440.85 Q1374.66 1444.57 1374.66 1451.68 Q1374.66 1458.77 1372.16 1462.51 Q1369.67 1466.24 1364.95 1466.24 Q1360.23 1466.24 1357.73 1462.51 Q1355.25 1458.77 1355.25 1451.68 Q1355.25 1444.57 1357.73 1440.85 Q1360.23 1437.11 1364.95 1437.11 Z" fill="#000000" fill-rule="evenodd" fill-opacity="1" /><path clip-path="url(#clip430)" d="M 0 0 M1378.78 1460.92 L1382.74 1460.92 L1382.74 1465.69 L1378.78 1465.69 L1378.78 1460.92 Z" fill="#000000" fill-rule="evenodd" fill-opacity="1" /><path clip-path="url(#clip430)" d="M 0 0 M1397.3 1440.92 L1387.71 1455.91 L1397.3 1455.91 L1397.3 1440.92 M1396.3 1437.61 L1401.08 1437.61 L1401.08 1455.91 L1405.09 1455.91 L1405.09 1459.07 L1401.08 1459.07 L1401.08 1465.69 L1397.3 1465.69 L1397.3 1459.07 L1384.62 1459.07 L1384.62 1455.41 L1396.3 1437.61 Z" fill="#000000" fill-rule="evenodd" fill-opacity="1" /><path clip-path="url(#clip430)" d="M 0 0 M1620.3 1489.17 L1627.94 1489.17 L1627.94 1462.8 L1619.63 1464.47 L1619.63 1460.21 L1627.89 1458.54 L1632.57 1458.54 L1632.57 1489.17 L1640.21 1489.17 L1640.21 1493.1 L1620.3 1493.1 L1620.3 1489.17 Z" fill="#000000" fill-rule="evenodd" fill-opacity="1" /><path clip-path="url(#clip430)" d="M 0 0 M1655.28 1461.62 Q1651.67 1461.62 1649.84 1465.19 Q1648.03 1468.73 1648.03 1475.86 Q1648.03 1482.97 1649.84 1486.53 Q1651.67 1490.07 1655.28 1490.07 Q1658.91 1490.07 1660.72 1486.53 Q1662.55 1482.97 1662.55 1475.86 Q1662.55 1468.73 1660.72 1465.19 Q1658.91 1461.62 1655.28 1461.62 M1655.28 1457.92 Q1661.09 1457.92 1664.14 1462.53 Q1667.22 1467.11 1667.22 1475.86 Q1667.22 1484.59 1664.14 1489.19 Q1661.09 1493.78 1655.28 1493.78 Q1649.47 1493.78 1646.39 1489.19 Q1643.33 1484.59 1643.33 1475.86 Q1643.33 1467.11 1646.39 1462.53 Q1649.47 1457.92 1655.28 1457.92 Z" fill="#000000" fill-rule="evenodd" fill-opacity="1" /><path clip-path="url(#clip430)" d="M 0 0 M1676.93 1440.11 Q1673.99 1440.11 1672.51 1443.01 Q1671.04 1445.89 1671.04 1451.68 Q1671.04 1457.46 1672.51 1460.35 Q1673.99 1463.23 1676.93 1463.23 Q1679.88 1463.23 1681.35 1460.35 Q1682.83 1457.46 1682.83 1451.68 Q1682.83 1445.89 1681.35 1443.01 Q1679.88 1440.11 1676.93 1440.11 M1676.93 1437.11 Q1681.65 1437.11 1684.13 1440.85 Q1686.63 1444.57 1686.63 1451.68 Q1686.63 1458.77 1684.13 1462.51 Q1681.65 1466.24 1676.93 1466.24 Q1672.21 1466.24 1669.7 1462.51 Q1667.22 1458.77 1667.22 1451.68 Q1667.22 1444.57 1669.7 1440.85 Q1672.21 1437.11 1676.93 1437.11 Z" fill="#000000" fill-rule="evenodd" fill-opacity="1" /><path clip-path="url(#clip430)" d="M 0 0 M1690.75 1460.92 L1694.72 1460.92 L1694.72 1465.69 L1690.75 1465.69 L1690.75 1460.92 Z" fill="#000000" fill-rule="evenodd" fill-opacity="1" /><path clip-path="url(#clip430)" d="M 0 0 M1707.43 1450.14 Q1704.87 1450.14 1703.37 1451.89 Q1701.88 1453.64 1701.88 1456.68 Q1701.88 1459.71 1703.37 1461.48 Q1704.87 1463.23 1707.43 1463.23 Q1709.99 1463.23 1711.48 1461.48 Q1712.98 1459.71 1712.98 1456.68 Q1712.98 1453.64 1711.48 1451.89 Q1709.99 1450.14 1707.43 1450.14 M1714.97 1438.23 L1714.97 1441.69 Q1713.54 1441.02 1712.08 1440.66 Q1710.63 1440.3 1709.2 1440.3 Q1705.44 1440.3 1703.44 1442.84 Q1701.47 1445.38 1701.19 1450.52 Q1702.3 1448.88 1703.97 1448.01 Q1705.65 1447.13 1707.66 1447.13 Q1711.89 1447.13 1714.33 1449.71 Q1716.8 1452.26 1716.8 1456.68 Q1716.8 1461.01 1714.24 1463.62 Q1711.68 1466.24 1707.43 1466.24 Q1702.56 1466.24 1699.98 1462.51 Q1697.41 1458.77 1697.41 1451.68 Q1697.41 1445.02 1700.57 1441.07 Q1703.73 1437.11 1709.05 1437.11 Q1710.48 1437.11 1711.93 1437.39 Q1713.39 1437.67 1714.97 1438.23 Z" fill="#000000" fill-rule="evenodd" fill-opacity="1" /><path clip-path="url(#clip430)" d="M 0 0 M1932.25 1489.17 L1939.88 1489.17 L1939.88 1462.8 L1931.57 1464.47 L1931.57 1460.21 L1939.84 1458.54 L1944.51 1458.54 L1944.51 1489.17 L1952.15 1489.17 L1952.15 1493.1 L1932.25 1493.1 L1932.25 1489.17 Z" fill="#000000" fill-rule="evenodd" fill-opacity="1" /><path clip-path="url(#clip430)" d="M 0 0 M1967.22 1461.62 Q1963.61 1461.62 1961.78 1465.19 Q1959.98 1468.73 1959.98 1475.86 Q1959.98 1482.97 1961.78 1486.53 Q1963.61 1490.07 1967.22 1490.07 Q1970.86 1490.07 1972.66 1486.53 Q1974.49 1482.97 1974.49 1475.86 Q1974.49 1468.73 1972.66 1465.19 Q1970.86 1461.62 1967.22 1461.62 M1967.22 1457.92 Q1973.03 1457.92 1976.09 1462.53 Q1979.17 1467.11 1979.17 1475.86 Q1979.17 1484.59 1976.09 1489.19 Q1973.03 1493.78 1967.22 1493.78 Q1961.41 1493.78 1958.33 1489.19 Q1955.28 1484.59 1955.28 1475.86 Q1955.28 1467.11 1958.33 1462.53 Q1961.41 1457.92 1967.22 1457.92 Z" fill="#000000" fill-rule="evenodd" fill-opacity="1" /><path clip-path="url(#clip430)" d="M 0 0 M1988.87 1440.11 Q1985.94 1440.11 1984.45 1443.01 Q1982.98 1445.89 1982.98 1451.68 Q1982.98 1457.46 1984.45 1460.35 Q1985.94 1463.23 1988.87 1463.23 Q1991.82 1463.23 1993.29 1460.35 Q1994.78 1457.46 1994.78 1451.68 Q1994.78 1445.89 1993.29 1443.01 Q1991.82 1440.11 1988.87 1440.11 M1988.87 1437.11 Q1993.59 1437.11 1996.08 1440.85 Q1998.58 1444.57 1998.58 1451.68 Q1998.58 1458.77 1996.08 1462.51 Q1993.59 1466.24 1988.87 1466.24 Q1984.15 1466.24 1981.65 1462.51 Q1979.17 1458.77 1979.17 1451.68 Q1979.17 1444.57 1981.65 1440.85 Q1984.15 1437.11 1988.87 1437.11 Z" fill="#000000" fill-rule="evenodd" fill-opacity="1" /><path clip-path="url(#clip430)" d="M 0 0 M2002.7 1460.92 L2006.66 1460.92 L2006.66 1465.69 L2002.7 1465.69 L2002.7 1460.92 Z" fill="#000000" fill-rule="evenodd" fill-opacity="1" /><path clip-path="url(#clip430)" d="M 0 0 M2018.91 1452.36 Q2016.2 1452.36 2014.64 1453.81 Q2013.1 1455.26 2013.1 1457.79 Q2013.1 1460.33 2014.64 1461.78 Q2016.2 1463.23 2018.91 1463.23 Q2021.62 1463.23 2023.18 1461.78 Q2024.74 1460.31 2024.74 1457.79 Q2024.74 1455.26 2023.18 1453.81 Q2021.63 1452.36 2018.91 1452.36 M2015.11 1450.74 Q2012.66 1450.14 2011.29 1448.47 Q2009.94 1446.79 2009.94 1444.38 Q2009.94 1441.02 2012.33 1439.06 Q2014.73 1437.11 2018.91 1437.11 Q2023.1 1437.11 2025.49 1439.06 Q2027.88 1441.02 2027.88 1444.38 Q2027.88 1446.79 2026.51 1448.47 Q2025.15 1450.14 2022.73 1450.74 Q2025.47 1451.38 2027 1453.24 Q2028.54 1455.1 2028.54 1457.79 Q2028.54 1461.88 2026.04 1464.06 Q2023.55 1466.24 2018.91 1466.24 Q2014.26 1466.24 2011.76 1464.06 Q2009.28 1461.88 2009.28 1457.79 Q2009.28 1455.1 2010.82 1453.24 Q2012.36 1451.38 2015.11 1450.74 M2013.72 1444.74 Q2013.72 1446.92 2015.07 1448.15 Q2016.44 1449.37 2018.91 1449.37 Q2021.35 1449.37 2022.73 1448.15 Q2024.12 1446.92 2024.12 1444.74 Q2024.12 1442.56 2022.73 1441.34 Q2021.35 1440.11 2018.91 1440.11 Q2016.44 1440.11 2015.07 1441.34 Q2013.72 1442.56 2013.72 1444.74 Z" fill="#000000" fill-rule="evenodd" fill-opacity="1" /><path clip-path="url(#clip430)" d="M 0 0 M2245.4 1489.17 L2253.03 1489.17 L2253.03 1462.8 L2244.72 1464.47 L2244.72 1460.21 L2252.99 1458.54 L2257.66 1458.54 L2257.66 1489.17 L2265.3 1489.17 L2265.3 1493.1 L2245.4 1493.1 L2245.4 1489.17 Z" fill="#000000" fill-rule="evenodd" fill-opacity="1" /><path clip-path="url(#clip430)" d="M 0 0 M2280.37 1461.62 Q2276.76 1461.62 2274.93 1465.19 Q2273.13 1468.73 2273.13 1475.86 Q2273.13 1482.97 2274.93 1486.53 Q2276.76 1490.07 2280.37 1490.07 Q2284.01 1490.07 2285.81 1486.53 Q2287.64 1482.97 2287.64 1475.86 Q2287.64 1468.73 2285.81 1465.19 Q2284.01 1461.62 2280.37 1461.62 M2280.37 1457.92 Q2286.18 1457.92 2289.24 1462.53 Q2292.32 1467.11 2292.32 1475.86 Q2292.32 1484.59 2289.24 1489.19 Q2286.18 1493.78 2280.37 1493.78 Q2274.56 1493.78 2271.48 1489.19 Q2268.43 1484.59 2268.43 1475.86 Q2268.43 1467.11 2271.48 1462.53 Q2274.56 1457.92 2280.37 1457.92 Z" fill="#000000" fill-rule="evenodd" fill-opacity="1" /><path clip-path="url(#clip430)" d="M 0 0 M2292.86 1462.5 L2299.07 1462.5 L2299.07 1441.07 L2292.32 1442.43 L2292.32 1438.97 L2299.03 1437.61 L2302.83 1437.61 L2302.83 1462.5 L2309.04 1462.5 L2309.04 1465.69 L2292.86 1465.69 L2292.86 1462.5 Z" fill="#000000" fill-rule="evenodd" fill-opacity="1" /><path clip-path="url(#clip430)" d="M 0 0 M2313.16 1460.92 L2317.12 1460.92 L2317.12 1465.69 L2313.16 1465.69 L2313.16 1460.92 Z" fill="#000000" fill-rule="evenodd" fill-opacity="1" /><path clip-path="url(#clip430)" d="M 0 0 M2329.37 1440.11 Q2326.43 1440.11 2324.95 1443.01 Q2323.48 1445.89 2323.48 1451.68 Q2323.48 1457.46 2324.95 1460.35 Q2326.43 1463.23 2329.37 1463.23 Q2332.32 1463.23 2333.79 1460.35 Q2335.27 1457.46 2335.27 1451.68 Q2335.27 1445.89 2333.79 1443.01 Q2332.32 1440.11 2329.37 1440.11 M2329.37 1437.11 Q2334.09 1437.11 2336.57 1440.85 Q2339.07 1444.57 2339.07 1451.68 Q2339.07 1458.77 2336.57 1462.51 Q2334.09 1466.24 2329.37 1466.24 Q2324.65 1466.24 2322.15 1462.51 Q2319.66 1458.77 2319.66 1451.68 Q2319.66 1444.57 2322.15 1440.85 Q2324.65 1437.11 2329.37 1437.11 Z" fill="#000000" fill-rule="evenodd" fill-opacity="1" /><path clip-path="url(#clip430)" d="M 0 0 M1282.81 1545.6 L1281.41 1538.25 Q1279.98 1530.71 1274.31 1530.71 Q1270.05 1530.71 1268.11 1534.21 Q1265.66 1538.6 1265.66 1544.39 Q1265.66 1551.4 1268.04 1554.74 Q1270.46 1558.14 1274.31 1558.14 Q1278.58 1558.14 1280.87 1551.36 L1282.81 1545.6 M1286.09 1535.86 L1289.24 1526.54 L1294.46 1526.54 L1287.94 1545.86 L1289.21 1552.83 Q1289.5 1554.39 1290.61 1555.69 Q1291.91 1557.22 1292.93 1557.22 L1295.73 1557.22 L1295.73 1562.19 L1292.23 1562.19 Q1289.24 1562.19 1286.57 1559.51 Q1285.26 1558.18 1284.72 1555.37 Q1283.26 1558.91 1280.27 1561.68 Q1278.86 1562.98 1274.31 1562.98 Q1266.83 1562.98 1263.21 1558.14 Q1259.48 1553.15 1259.48 1544.39 Q1259.48 1535.04 1263.52 1530.64 Q1268.01 1525.74 1274.31 1525.74 Q1284.21 1525.74 1286.09 1535.86 Z" fill="#000000" fill-rule="evenodd" fill-opacity="1" /><polyline clip-path="url(#clip432)" style="stroke:#000000; stroke-width:2; stroke-opacity:0.1; fill:none" points="
  202.459,1108.78 2352.76,1108.78 
  "/>
<polyline clip-path="url(#clip432)" style="stroke:#000000; stroke-width:2; stroke-opacity:0.1; fill:none" points="
  202.459,787.462 2352.76,787.462 
  "/>
<polyline clip-path="url(#clip432)" style="stroke:#000000; stroke-width:2; stroke-opacity:0.1; fill:none" points="
  202.459,466.14 2352.76,466.14 
  "/>
<polyline clip-path="url(#clip432)" style="stroke:#000000; stroke-width:2; stroke-opacity:0.1; fill:none" points="
  202.459,144.817 2352.76,144.817 
  "/>
<polyline clip-path="url(#clip430)" style="stroke:#000000; stroke-width:4; stroke-opacity:1; fill:none" points="
  202.459,1410.9 202.459,47.2441 
  "/>
<polyline clip-path="url(#clip430)" style="stroke:#000000; stroke-width:4; stroke-opacity:1; fill:none" points="
  202.459,1108.78 228.263,1108.78 
  "/>
<polyline clip-path="url(#clip430)" style="stroke:#000000; stroke-width:4; stroke-opacity:1; fill:none" points="
  202.459,787.462 228.263,787.462 
  "/>
<polyline clip-path="url(#clip430)" style="stroke:#000000; stroke-width:4; stroke-opacity:1; fill:none" points="
  202.459,466.14 228.263,466.14 
  "/>
<polyline clip-path="url(#clip430)" style="stroke:#000000; stroke-width:4; stroke-opacity:1; fill:none" points="
  202.459,144.817 228.263,144.817 
  "/>
<path clip-path="url(#clip430)" d="M 0 0 M123.126 1122.13 L139.445 1122.13 L139.445 1126.06 L117.501 1126.06 L117.501 1122.13 Q120.163 1119.38 124.746 1114.75 Q129.353 1110.09 130.533 1108.75 Q132.779 1106.23 133.658 1104.49 Q134.561 1102.73 134.561 1101.04 Q134.561 1098.29 132.617 1096.55 Q130.695 1094.81 127.593 1094.81 Q125.394 1094.81 122.941 1095.58 Q120.51 1096.34 117.732 1097.89 L117.732 1093.17 Q120.556 1092.04 123.01 1091.46 Q125.464 1090.88 127.501 1090.88 Q132.871 1090.88 136.066 1093.56 Q139.26 1096.25 139.26 1100.74 Q139.26 1102.87 138.45 1104.79 Q137.663 1106.69 135.556 1109.28 Q134.978 1109.95 131.876 1113.17 Q128.774 1116.37 123.126 1122.13 Z" fill="#000000" fill-rule="evenodd" fill-opacity="1" /><path clip-path="url(#clip430)" d="M 0 0 M154.515 1094.58 Q150.903 1094.58 149.075 1098.15 Q147.269 1101.69 147.269 1108.82 Q147.269 1115.93 149.075 1119.49 Q150.903 1123.03 154.515 1123.03 Q158.149 1123.03 159.954 1119.49 Q161.783 1115.93 161.783 1108.82 Q161.783 1101.69 159.954 1098.15 Q158.149 1094.58 154.515 1094.58 M154.515 1090.88 Q160.325 1090.88 163.38 1095.49 Q166.459 1100.07 166.459 1108.82 Q166.459 1117.55 163.38 1122.15 Q160.325 1126.74 154.515 1126.74 Q148.704 1126.74 145.626 1122.15 Q142.57 1117.55 142.57 1108.82 Q142.57 1100.07 145.626 1095.49 Q148.704 1090.88 154.515 1090.88 Z" fill="#000000" fill-rule="evenodd" fill-opacity="1" /><path clip-path="url(#clip430)" d="M 0 0 M129.862 774.256 L118.056 792.705 L129.862 792.705 L129.862 774.256 M128.635 770.182 L134.515 770.182 L134.515 792.705 L139.445 792.705 L139.445 796.594 L134.515 796.594 L134.515 804.742 L129.862 804.742 L129.862 796.594 L114.26 796.594 L114.26 792.08 L128.635 770.182 Z" fill="#000000" fill-rule="evenodd" fill-opacity="1" /><path clip-path="url(#clip430)" d="M 0 0 M154.515 773.261 Q150.903 773.261 149.075 776.826 Q147.269 780.367 147.269 787.497 Q147.269 794.603 149.075 798.168 Q150.903 801.71 154.515 801.71 Q158.149 801.71 159.954 798.168 Q161.783 794.603 161.783 787.497 Q161.783 780.367 159.954 776.826 Q158.149 773.261 154.515 773.261 M154.515 769.557 Q160.325 769.557 163.38 774.164 Q166.459 778.747 166.459 787.497 Q166.459 796.224 163.38 800.83 Q160.325 805.413 154.515 805.413 Q148.704 805.413 145.626 800.83 Q142.57 796.224 142.57 787.497 Q142.57 778.747 145.626 774.164 Q148.704 769.557 154.515 769.557 Z" fill="#000000" fill-rule="evenodd" fill-opacity="1" /><path clip-path="url(#clip430)" d="M 0 0 M127.917 464.276 Q124.769 464.276 122.918 466.429 Q121.089 468.582 121.089 472.332 Q121.089 476.058 122.918 478.234 Q124.769 480.387 127.917 480.387 Q131.066 480.387 132.894 478.234 Q134.746 476.058 134.746 472.332 Q134.746 468.582 132.894 466.429 Q131.066 464.276 127.917 464.276 M137.2 449.623 L137.2 453.883 Q135.441 453.049 133.635 452.609 Q131.853 452.17 130.093 452.17 Q125.464 452.17 123.01 455.295 Q120.58 458.42 120.232 464.739 Q121.598 462.725 123.658 461.66 Q125.718 460.572 128.195 460.572 Q133.404 460.572 136.413 463.744 Q139.445 466.892 139.445 472.332 Q139.445 477.656 136.297 480.873 Q133.149 484.091 127.917 484.091 Q121.922 484.091 118.751 479.508 Q115.58 474.901 115.58 466.174 Q115.58 457.98 119.468 453.119 Q123.357 448.235 129.908 448.235 Q131.667 448.235 133.45 448.582 Q135.255 448.929 137.2 449.623 Z" fill="#000000" fill-rule="evenodd" fill-opacity="1" /><path clip-path="url(#clip430)" d="M 0 0 M154.515 451.938 Q150.903 451.938 149.075 455.503 Q147.269 459.045 147.269 466.174 Q147.269 473.281 149.075 476.845 Q150.903 480.387 154.515 480.387 Q158.149 480.387 159.954 476.845 Q161.783 473.281 161.783 466.174 Q161.783 459.045 159.954 455.503 Q158.149 451.938 154.515 451.938 M154.515 448.235 Q160.325 448.235 163.38 452.841 Q166.459 457.424 166.459 466.174 Q166.459 474.901 163.38 479.508 Q160.325 484.091 154.515 484.091 Q148.704 484.091 145.626 479.508 Q142.57 474.901 142.57 466.174 Q142.57 457.424 145.626 452.841 Q148.704 448.235 154.515 448.235 Z" fill="#000000" fill-rule="evenodd" fill-opacity="1" /><path clip-path="url(#clip430)" d="M 0 0 M127.593 145.685 Q124.26 145.685 122.339 147.467 Q120.441 149.25 120.441 152.375 Q120.441 155.5 122.339 157.282 Q124.26 159.064 127.593 159.064 Q130.927 159.064 132.848 157.282 Q134.769 155.477 134.769 152.375 Q134.769 149.25 132.848 147.467 Q130.95 145.685 127.593 145.685 M122.918 143.694 Q119.908 142.953 118.218 140.893 Q116.552 138.833 116.552 135.87 Q116.552 131.727 119.492 129.319 Q122.455 126.912 127.593 126.912 Q132.755 126.912 135.695 129.319 Q138.635 131.727 138.635 135.87 Q138.635 138.833 136.945 140.893 Q135.279 142.953 132.292 143.694 Q135.672 144.481 137.547 146.773 Q139.445 149.065 139.445 152.375 Q139.445 157.398 136.367 160.083 Q133.311 162.768 127.593 162.768 Q121.876 162.768 118.797 160.083 Q115.742 157.398 115.742 152.375 Q115.742 149.065 117.64 146.773 Q119.538 144.481 122.918 143.694 M121.205 136.31 Q121.205 138.995 122.871 140.5 Q124.561 142.004 127.593 142.004 Q130.603 142.004 132.292 140.5 Q134.005 138.995 134.005 136.31 Q134.005 133.625 132.292 132.12 Q130.603 130.616 127.593 130.616 Q124.561 130.616 122.871 132.12 Q121.205 133.625 121.205 136.31 Z" fill="#000000" fill-rule="evenodd" fill-opacity="1" /><path clip-path="url(#clip430)" d="M 0 0 M154.515 130.616 Q150.903 130.616 149.075 134.18 Q147.269 137.722 147.269 144.852 Q147.269 151.958 149.075 155.523 Q150.903 159.064 154.515 159.064 Q158.149 159.064 159.954 155.523 Q161.783 151.958 161.783 144.852 Q161.783 137.722 159.954 134.18 Q158.149 130.616 154.515 130.616 M154.515 126.912 Q160.325 126.912 163.38 131.518 Q166.459 136.102 166.459 144.852 Q166.459 153.578 163.38 158.185 Q160.325 162.768 154.515 162.768 Q148.704 162.768 145.626 158.185 Q142.57 153.578 142.57 144.852 Q142.57 136.102 145.626 131.518 Q148.704 126.912 154.515 126.912 Z" fill="#000000" fill-rule="evenodd" fill-opacity="1" /><path clip-path="url(#clip430)" d="M 0 0 M59.1993 815.533 Q55.2526 813.336 53.3747 810.281 Q51.4968 807.225 51.4968 803.088 Q51.4968 797.518 55.4117 794.494 Q59.2948 791.47 66.4881 791.47 L88.0042 791.47 L88.0042 797.358 L66.679 797.358 Q61.5546 797.358 59.072 799.173 Q56.5894 800.987 56.5894 804.711 Q56.5894 809.262 59.6131 811.904 Q62.6368 814.546 67.8567 814.546 L88.0042 814.546 L88.0042 820.434 L66.679 820.434 Q61.5228 820.434 59.072 822.248 Q56.5894 824.063 56.5894 827.85 Q56.5894 832.338 59.6449 834.98 Q62.6686 837.622 67.8567 837.622 L88.0042 837.622 L88.0042 843.51 L52.3562 843.51 L52.3562 837.622 L57.8944 837.622 Q54.616 835.616 53.0564 832.815 Q51.4968 830.015 51.4968 826.163 Q51.4968 822.28 53.4702 819.575 Q55.4436 816.838 59.1993 815.533 Z" fill="#000000" fill-rule="evenodd" fill-opacity="1" /><path clip-path="url(#clip430)" d="M 0 0 M52.3562 785.327 L52.3562 779.471 L88.0042 779.471 L88.0042 785.327 L52.3562 785.327 M38.479 785.327 L38.479 779.471 L45.895 779.471 L45.895 785.327 L38.479 785.327 Z" fill="#000000" fill-rule="evenodd" fill-opacity="1" /><path clip-path="url(#clip430)" d="M 0 0 M66.4881 743.696 L88.0042 743.696 L88.0042 749.552 L66.679 749.552 Q61.6183 749.552 59.1038 751.525 Q56.5894 753.499 56.5894 757.446 Q56.5894 762.188 59.6131 764.925 Q62.6368 767.662 67.8567 767.662 L88.0042 767.662 L88.0042 773.551 L52.3562 773.551 L52.3562 767.662 L57.8944 767.662 Q54.6797 765.562 53.0883 762.729 Q51.4968 759.864 51.4968 756.141 Q51.4968 749.998 55.3163 746.847 Q59.1038 743.696 66.4881 743.696 Z" fill="#000000" fill-rule="evenodd" fill-opacity="1" /><path clip-path="url(#clip430)" d="M 0 0 M98.8259 710.467 L103.377 710.467 L103.377 744.332 L98.8259 744.332 L98.8259 710.467 Z" fill="#000000" fill-rule="evenodd" fill-opacity="1" /><path clip-path="url(#clip430)" d="M 0 0 M57.7671 680.866 L38.479 680.866 L38.479 675.01 L88.0042 675.01 L88.0042 680.866 L82.657 680.866 Q85.8398 682.712 87.3994 685.545 Q88.9272 688.346 88.9272 692.292 Q88.9272 698.754 83.771 702.828 Q78.6147 706.87 70.212 706.87 Q61.8093 706.87 56.6531 702.828 Q51.4968 698.754 51.4968 692.292 Q51.4968 688.346 53.0564 685.545 Q54.5842 682.712 57.7671 680.866 M70.212 700.823 Q76.6732 700.823 80.3653 698.181 Q84.0256 695.507 84.0256 690.86 Q84.0256 686.213 80.3653 683.54 Q76.6732 680.866 70.212 680.866 Q63.7508 680.866 60.0905 683.54 Q56.3984 686.213 56.3984 690.86 Q56.3984 695.507 60.0905 698.181 Q63.7508 700.823 70.212 700.823 Z" fill="#000000" fill-rule="evenodd" fill-opacity="1" /><path clip-path="url(#clip430)" d="M 0 0 M52.3562 668.867 L52.3562 663.01 L88.0042 663.01 L88.0042 668.867 L52.3562 668.867 M38.479 668.867 L38.479 663.01 L45.895 663.01 L45.895 668.867 L38.479 668.867 Z" fill="#000000" fill-rule="evenodd" fill-opacity="1" /><path clip-path="url(#clip430)" d="M 0 0 M38.479 638.821 L43.3487 638.821 L43.3487 644.422 Q43.3487 647.573 44.6219 648.815 Q45.895 650.024 49.2052 650.024 L52.3562 650.024 L52.3562 640.38 L56.9077 640.38 L56.9077 650.024 L88.0042 650.024 L88.0042 655.912 L56.9077 655.912 L56.9077 661.514 L52.3562 661.514 L52.3562 655.912 L49.8736 655.912 Q43.9216 655.912 41.2162 653.143 Q38.479 650.374 38.479 644.359 L38.479 638.821 Z" fill="#000000" fill-rule="evenodd" fill-opacity="1" /><path clip-path="url(#clip430)" d="M 0 0 M38.479 614.631 L43.3487 614.631 L43.3487 620.233 Q43.3487 623.384 44.6219 624.625 Q45.895 625.835 49.2052 625.835 L52.3562 625.835 L52.3562 616.19 L56.9077 616.19 L56.9077 625.835 L88.0042 625.835 L88.0042 631.723 L56.9077 631.723 L56.9077 637.325 L52.3562 637.325 L52.3562 631.723 L49.8736 631.723 Q43.9216 631.723 41.2162 628.954 Q38.479 626.185 38.479 620.169 L38.479 614.631 Z" fill="#000000" fill-rule="evenodd" fill-opacity="1" /><polyline clip-path="url(#clip432)" style="stroke:#009af9; stroke-width:20; stroke-opacity:1; fill:none" stroke-dasharray="80, 50" points="
  263.316,85.838 732.686,1353.1 1007.25,1363.56 1202.06,1372.3 1353.16,1325.8 1476.62,1300.76 1581,1228.48 1671.43,1215.95 1751.18,1205.31 1822.53,1191.18 
  1887.07,1186.43 1945.99,1180.55 2000.19,1173.55 2050.37,1166.01 2097.09,1158.28 2140.8,1152.67 2181.85,1150.58 2220.55,1148.16 2257.16,1145.53 2291.9,1143.18 
  
  "/>
<path clip-path="url(#clip430)" d="
M1991.14 213.659 L2281.08 213.659 L2281.08 92.6992 L1991.14 92.6992  Z
  " fill="#ffffff" fill-rule="evenodd" fill-opacity="1"/>
<polyline clip-path="url(#clip430)" style="stroke:#000000; stroke-width:4; stroke-opacity:1; fill:none" points="
  1991.14,213.659 2281.08,213.659 2281.08,92.6992 1991.14,92.6992 1991.14,213.659 
  "/>
<polyline clip-path="url(#clip430)" style="stroke:#009af9; stroke-width:4; stroke-opacity:1; fill:none" stroke-dasharray="16, 10" points="
  2015.03,153.179 2158.38,153.179 
  "/>
<path clip-path="url(#clip430)" d="M 0 0 M2196.12 172.867 Q2194.31 177.496 2192.6 178.908 Q2190.89 180.32 2188.02 180.32 L2184.61 180.32 L2184.61 176.755 L2187.11 176.755 Q2188.87 176.755 2189.85 175.922 Q2190.82 175.089 2192 171.987 L2192.76 170.043 L2182.28 144.533 L2186.79 144.533 L2194.89 164.811 L2202.99 144.533 L2207.51 144.533 L2196.12 172.867 Z" fill="#000000" fill-rule="evenodd" fill-opacity="1" /><path clip-path="url(#clip430)" d="M 0 0 M2213.39 166.524 L2221.03 166.524 L2221.03 140.158 L2212.72 141.825 L2212.72 137.566 L2220.98 135.899 L2225.66 135.899 L2225.66 166.524 L2233.29 166.524 L2233.29 170.459 L2213.39 170.459 L2213.39 166.524 Z" fill="#000000" fill-rule="evenodd" fill-opacity="1" /></svg>
