<?xml version="1.0" encoding="utf-8"?>
<svg xmlns="http://www.w3.org/2000/svg" xmlns:xlink="http://www.w3.org/1999/xlink" width="600" height="400" viewBox="0 0 2400 1600">
<defs>
  <clipPath id="clip160">
    <rect x="0" y="0" width="2400" height="1600"/>
  </clipPath>
</defs>
<path clip-path="url(#clip160)" d="
M0 1600 L2400 1600 L2400 0 L0 0  Z
  " fill="#ffffff" fill-rule="evenodd" fill-opacity="1"/>
<defs>
  <clipPath id="clip161">
    <rect x="480" y="0" width="1681" height="1600"/>
  </clipPath>
</defs>
<path clip-path="url(#clip160)" d="
M415.097 1410.9 L2352.76 1410.9 L2352.76 47.2441 L415.097 47.2441  Z
  " fill="#ffffff" fill-rule="evenodd" fill-opacity="1"/>
<defs>
  <clipPath id="clip162">
    <rect x="415" y="47" width="1939" height="1365"/>
  </clipPath>
</defs>
<polyline clip-path="url(#clip162)" style="stroke:#000000; stroke-linecap:round; stroke-linejoin:round; stroke-width:2; stroke-opacity:0.1; fill:none" points="
  892.891,1410.9 892.891,47.2441 
  "/>
<polyline clip-path="url(#clip162)" style="stroke:#000000; stroke-linecap:round; stroke-linejoin:round; stroke-width:2; stroke-opacity:0.1; fill:none" points="
  1595.4,1410.9 1595.4,47.2441 
  "/>
<polyline clip-path="url(#clip162)" style="stroke:#000000; stroke-linecap:round; stroke-linejoin:round; stroke-width:2; stroke-opacity:0.1; fill:none" points="
  2297.92,1410.9 2297.92,47.2441 
  "/>
<polyline clip-path="url(#clip160)" style="stroke:#000000; stroke-linecap:round; stroke-linejoin:round; stroke-width:4; stroke-opacity:1; fill:none" points="
  415.097,1410.9 2352.76,1410.9 
  "/>
<polyline clip-path="url(#clip160)" style="stroke:#000000; stroke-linecap:round; stroke-linejoin:round; stroke-width:4; stroke-opacity:1; fill:none" points="
  892.891,1410.9 892.891,1392 
  "/>
<polyline clip-path="url(#clip160)" style="stroke:#000000; stroke-linecap:round; stroke-linejoin:round; stroke-width:4; stroke-opacity:1; fill:none" points="
  1595.4,1410.9 1595.4,1392 
  "/>
<polyline clip-path="url(#clip160)" style="stroke:#000000; stroke-linecap:round; stroke-linejoin:round; stroke-width:4; stroke-opacity:1; fill:none" points="
  2297.92,1410.9 2297.92,1392 
  "/>
<path clip-path="url(#clip160)" d="M839.499 1485.02 L847.137 1485.02 L847.137 1458.66 L838.827 1460.32 L838.827 1456.06 L847.091 1454.4 L851.767 1454.4 L851.767 1485.02 L859.406 1485.02 L859.406 1488.96 L839.499 1488.96 L839.499 1485.02 Z" fill="#000000" fill-rule="evenodd" fill-opacity="1" /><path clip-path="url(#clip160)" d="M878.85 1457.48 Q875.239 1457.48 873.41 1461.04 Q871.605 1464.58 871.605 1471.71 Q871.605 1478.82 873.41 1482.38 Q875.239 1485.92 878.85 1485.92 Q882.484 1485.92 884.29 1482.38 Q886.119 1478.82 886.119 1471.71 Q886.119 1464.58 884.29 1461.04 Q882.484 1457.48 878.85 1457.48 M878.85 1453.77 Q884.66 1453.77 887.716 1458.38 Q890.795 1462.96 890.795 1471.71 Q890.795 1480.44 887.716 1485.04 Q884.66 1489.63 878.85 1489.63 Q873.04 1489.63 869.961 1485.04 Q866.906 1480.44 866.906 1471.71 Q866.906 1462.96 869.961 1458.38 Q873.04 1453.77 878.85 1453.77 Z" fill="#000000" fill-rule="evenodd" fill-opacity="1" /><path clip-path="url(#clip160)" d="M900.499 1435.97 Q897.565 1435.97 896.08 1438.86 Q894.613 1441.74 894.613 1447.53 Q894.613 1453.31 896.08 1456.2 Q897.565 1459.08 900.499 1459.08 Q903.452 1459.08 904.919 1456.2 Q906.405 1453.31 906.405 1447.53 Q906.405 1441.74 904.919 1438.86 Q903.452 1435.97 900.499 1435.97 M900.499 1432.96 Q905.22 1432.96 907.703 1436.7 Q910.204 1440.43 910.204 1447.53 Q910.204 1454.62 907.703 1458.37 Q905.22 1462.09 900.499 1462.09 Q895.779 1462.09 893.277 1458.37 Q890.795 1454.62 890.795 1447.53 Q890.795 1440.43 893.277 1436.7 Q895.779 1432.96 900.499 1432.96 Z" fill="#000000" fill-rule="evenodd" fill-opacity="1" /><path clip-path="url(#clip160)" d="M916.881 1456.77 L920.849 1456.77 L920.849 1461.55 L916.881 1461.55 L916.881 1456.77 Z" fill="#000000" fill-rule="evenodd" fill-opacity="1" /><path clip-path="url(#clip160)" d="M937.25 1435.97 Q934.316 1435.97 932.83 1438.86 Q931.363 1441.74 931.363 1447.53 Q931.363 1453.31 932.83 1456.2 Q934.316 1459.08 937.25 1459.08 Q940.203 1459.08 941.67 1456.2 Q943.155 1453.31 943.155 1447.53 Q943.155 1441.74 941.67 1438.86 Q940.203 1435.97 937.25 1435.97 M937.25 1432.96 Q941.971 1432.96 944.453 1436.7 Q946.955 1440.43 946.955 1447.53 Q946.955 1454.62 944.453 1458.37 Q941.971 1462.09 937.25 1462.09 Q932.529 1462.09 930.028 1458.37 Q927.545 1454.62 927.545 1447.53 Q927.545 1440.43 930.028 1436.7 Q932.529 1432.96 937.25 1432.96 Z" fill="#000000" fill-rule="evenodd" fill-opacity="1" /><path clip-path="url(#clip160)" d="M1542.42 1485.02 L1550.05 1485.02 L1550.05 1458.66 L1541.74 1460.32 L1541.74 1456.06 L1550.01 1454.4 L1554.68 1454.4 L1554.68 1485.02 L1562.32 1485.02 L1562.32 1488.96 L1542.42 1488.96 L1542.42 1485.02 Z" fill="#000000" fill-rule="evenodd" fill-opacity="1" /><path clip-path="url(#clip160)" d="M1581.77 1457.48 Q1578.16 1457.48 1576.33 1461.04 Q1574.52 1464.58 1574.52 1471.71 Q1574.52 1478.82 1576.33 1482.38 Q1578.16 1485.92 1581.77 1485.92 Q1585.4 1485.92 1587.21 1482.38 Q1589.04 1478.82 1589.04 1471.71 Q1589.04 1464.58 1587.21 1461.04 Q1585.4 1457.48 1581.77 1457.48 M1581.77 1453.77 Q1587.58 1453.77 1590.63 1458.38 Q1593.71 1462.96 1593.71 1471.71 Q1593.71 1480.44 1590.63 1485.04 Q1587.58 1489.63 1581.77 1489.63 Q1575.96 1489.63 1572.88 1485.04 Q1569.82 1480.44 1569.82 1471.71 Q1569.82 1462.96 1572.88 1458.38 Q1575.96 1453.77 1581.77 1453.77 Z" fill="#000000" fill-rule="evenodd" fill-opacity="1" /><path clip-path="url(#clip160)" d="M1603.42 1435.97 Q1600.48 1435.97 1599 1438.86 Q1597.53 1441.74 1597.53 1447.53 Q1597.53 1453.31 1599 1456.2 Q1600.48 1459.08 1603.42 1459.08 Q1606.37 1459.08 1607.84 1456.2 Q1609.32 1453.31 1609.32 1447.53 Q1609.32 1441.74 1607.84 1438.86 Q1606.37 1435.97 1603.42 1435.97 M1603.42 1432.96 Q1608.14 1432.96 1610.62 1436.7 Q1613.12 1440.43 1613.12 1447.53 Q1613.12 1454.62 1610.62 1458.37 Q1608.14 1462.09 1603.42 1462.09 Q1598.7 1462.09 1596.19 1458.37 Q1593.71 1454.62 1593.71 1447.53 Q1593.71 1440.43 1596.19 1436.7 Q1598.7 1432.96 1603.42 1432.96 Z" fill="#000000" fill-rule="evenodd" fill-opacity="1" /><path clip-path="url(#clip160)" d="M1619.8 1456.77 L1623.77 1456.77 L1623.77 1461.55 L1619.8 1461.55 L1619.8 1456.77 Z" fill="#000000" fill-rule="evenodd" fill-opacity="1" /><path clip-path="url(#clip160)" d="M1632.08 1433.47 L1646.99 1433.47 L1646.99 1436.66 L1635.56 1436.66 L1635.56 1443.55 Q1636.39 1443.27 1637.21 1443.13 Q1638.04 1442.98 1638.87 1442.98 Q1643.57 1442.98 1646.32 1445.56 Q1649.06 1448.14 1649.06 1452.54 Q1649.06 1457.07 1646.24 1459.59 Q1643.42 1462.09 1638.29 1462.09 Q1636.52 1462.09 1634.68 1461.79 Q1632.85 1461.49 1630.89 1460.89 L1630.89 1457.07 Q1632.59 1457.99 1634.39 1458.44 Q1636.2 1458.89 1638.21 1458.89 Q1641.46 1458.89 1643.36 1457.18 Q1645.26 1455.47 1645.26 1452.54 Q1645.26 1449.6 1643.36 1447.89 Q1641.46 1446.18 1638.21 1446.18 Q1636.69 1446.18 1635.16 1446.52 Q1633.66 1446.86 1632.08 1447.57 L1632.08 1433.47 Z" fill="#000000" fill-rule="evenodd" fill-opacity="1" /><path clip-path="url(#clip160)" d="M2245.37 1485.02 L2253.01 1485.02 L2253.01 1458.66 L2244.7 1460.32 L2244.7 1456.06 L2252.96 1454.4 L2257.64 1454.4 L2257.64 1485.02 L2265.28 1485.02 L2265.28 1488.96 L2245.37 1488.96 L2245.37 1485.02 Z" fill="#000000" fill-rule="evenodd" fill-opacity="1" /><path clip-path="url(#clip160)" d="M2284.72 1457.48 Q2281.11 1457.48 2279.28 1461.04 Q2277.48 1464.58 2277.48 1471.71 Q2277.48 1478.82 2279.28 1482.38 Q2281.11 1485.92 2284.72 1485.92 Q2288.36 1485.92 2290.16 1482.38 Q2291.99 1478.82 2291.99 1471.71 Q2291.99 1464.58 2290.16 1461.04 Q2288.36 1457.48 2284.72 1457.48 M2284.72 1453.77 Q2290.53 1453.77 2293.59 1458.38 Q2296.67 1462.96 2296.67 1471.71 Q2296.67 1480.44 2293.59 1485.04 Q2290.53 1489.63 2284.72 1489.63 Q2278.91 1489.63 2275.83 1485.04 Q2272.78 1480.44 2272.78 1471.71 Q2272.78 1462.96 2275.83 1458.38 Q2278.91 1453.77 2284.72 1453.77 Z" fill="#000000" fill-rule="evenodd" fill-opacity="1" /><path clip-path="url(#clip160)" d="M2297.21 1458.35 L2303.42 1458.35 L2303.42 1436.93 L2296.67 1438.28 L2296.67 1434.82 L2303.38 1433.47 L2307.18 1433.47 L2307.18 1458.35 L2313.39 1458.35 L2313.39 1461.55 L2297.21 1461.55 L2297.21 1458.35 Z" fill="#000000" fill-rule="evenodd" fill-opacity="1" /><path clip-path="url(#clip160)" d="M2321.06 1456.77 L2325.03 1456.77 L2325.03 1461.55 L2321.06 1461.55 L2321.06 1456.77 Z" fill="#000000" fill-rule="evenodd" fill-opacity="1" /><path clip-path="url(#clip160)" d="M2341.43 1435.97 Q2338.49 1435.97 2337.01 1438.86 Q2335.54 1441.74 2335.54 1447.53 Q2335.54 1453.31 2337.01 1456.2 Q2338.49 1459.08 2341.43 1459.08 Q2344.38 1459.08 2345.85 1456.2 Q2347.33 1453.31 2347.33 1447.53 Q2347.33 1441.74 2345.85 1438.86 Q2344.38 1435.97 2341.43 1435.97 M2341.43 1432.96 Q2346.15 1432.96 2348.63 1436.7 Q2351.13 1440.43 2351.13 1447.53 Q2351.13 1454.62 2348.63 1458.37 Q2346.15 1462.09 2341.43 1462.09 Q2336.71 1462.09 2334.21 1458.37 Q2331.72 1454.62 2331.72 1447.53 Q2331.72 1440.43 2334.21 1436.7 Q2336.71 1432.96 2341.43 1432.96 Z" fill="#000000" fill-rule="evenodd" fill-opacity="1" /><path clip-path="url(#clip160)" d="M1389.13 1557.6 L1387.73 1550.25 Q1386.3 1542.71 1380.63 1542.71 Q1376.37 1542.71 1374.43 1546.21 Q1371.97 1550.6 1371.97 1556.39 Q1371.97 1563.4 1374.36 1566.74 Q1376.78 1570.14 1380.63 1570.14 Q1384.9 1570.14 1387.19 1563.36 L1389.13 1557.6 M1392.41 1547.86 L1395.56 1538.54 L1400.78 1538.54 L1394.25 1557.86 L1395.53 1564.83 Q1395.81 1566.39 1396.93 1567.69 Q1398.23 1569.22 1399.25 1569.22 L1402.05 1569.22 L1402.05 1574.19 L1398.55 1574.19 Q1395.56 1574.19 1392.89 1571.51 Q1391.58 1570.18 1391.04 1567.37 Q1389.58 1570.91 1386.58 1573.68 Q1385.18 1574.98 1380.63 1574.98 Q1373.15 1574.98 1369.52 1570.14 Q1365.8 1565.15 1365.8 1556.39 Q1365.8 1547.04 1369.84 1542.64 Q1374.33 1537.74 1380.63 1537.74 Q1390.53 1537.74 1392.41 1547.86 Z" fill="#000000" fill-rule="evenodd" fill-opacity="1" /><polyline clip-path="url(#clip162)" style="stroke:#000000; stroke-linecap:round; stroke-linejoin:round; stroke-width:2; stroke-opacity:0.1; fill:none" points="
  415.097,1364.46 2352.76,1364.46 
  "/>
<polyline clip-path="url(#clip162)" style="stroke:#000000; stroke-linecap:round; stroke-linejoin:round; stroke-width:2; stroke-opacity:0.1; fill:none" points="
  415.097,1168.35 2352.76,1168.35 
  "/>
<polyline clip-path="url(#clip162)" style="stroke:#000000; stroke-linecap:round; stroke-linejoin:round; stroke-width:2; stroke-opacity:0.1; fill:none" points="
  415.097,972.244 2352.76,972.244 
  "/>
<polyline clip-path="url(#clip162)" style="stroke:#000000; stroke-linecap:round; stroke-linejoin:round; stroke-width:2; stroke-opacity:0.1; fill:none" points="
  415.097,776.136 2352.76,776.136 
  "/>
<polyline clip-path="url(#clip162)" style="stroke:#000000; stroke-linecap:round; stroke-linejoin:round; stroke-width:2; stroke-opacity:0.1; fill:none" points="
  415.097,580.029 2352.76,580.029 
  "/>
<polyline clip-path="url(#clip162)" style="stroke:#000000; stroke-linecap:round; stroke-linejoin:round; stroke-width:2; stroke-opacity:0.1; fill:none" points="
  415.097,383.921 2352.76,383.921 
  "/>
<polyline clip-path="url(#clip162)" style="stroke:#000000; stroke-linecap:round; stroke-linejoin:round; stroke-width:2; stroke-opacity:0.1; fill:none" points="
  415.097,187.814 2352.76,187.814 
  "/>
<polyline clip-path="url(#clip160)" style="stroke:#000000; stroke-linecap:round; stroke-linejoin:round; stroke-width:4; stroke-opacity:1; fill:none" points="
  415.097,1410.9 415.097,47.2441 
  "/>
<polyline clip-path="url(#clip160)" style="stroke:#000000; stroke-linecap:round; stroke-linejoin:round; stroke-width:4; stroke-opacity:1; fill:none" points="
  415.097,1364.46 433.994,1364.46 
  "/>
<polyline clip-path="url(#clip160)" style="stroke:#000000; stroke-linecap:round; stroke-linejoin:round; stroke-width:4; stroke-opacity:1; fill:none" points="
  415.097,1168.35 433.994,1168.35 
  "/>
<polyline clip-path="url(#clip160)" style="stroke:#000000; stroke-linecap:round; stroke-linejoin:round; stroke-width:4; stroke-opacity:1; fill:none" points="
  415.097,972.244 433.994,972.244 
  "/>
<polyline clip-path="url(#clip160)" style="stroke:#000000; stroke-linecap:round; stroke-linejoin:round; stroke-width:4; stroke-opacity:1; fill:none" points="
  415.097,776.136 433.994,776.136 
  "/>
<polyline clip-path="url(#clip160)" style="stroke:#000000; stroke-linecap:round; stroke-linejoin:round; stroke-width:4; stroke-opacity:1; fill:none" points="
  415.097,580.029 433.994,580.029 
  "/>
<polyline clip-path="url(#clip160)" style="stroke:#000000; stroke-linecap:round; stroke-linejoin:round; stroke-width:4; stroke-opacity:1; fill:none" points="
  415.097,383.921 433.994,383.921 
  "/>
<polyline clip-path="url(#clip160)" style="stroke:#000000; stroke-linecap:round; stroke-linejoin:round; stroke-width:4; stroke-opacity:1; fill:none" points="
  415.097,187.814 433.994,187.814 
  "/>
<path clip-path="url(#clip160)" d="M119.885 1377.8 L136.204 1377.8 L136.204 1381.74 L114.26 1381.74 L114.26 1377.8 Q116.922 1375.05 121.505 1370.42 Q126.112 1365.77 127.292 1364.42 Q129.538 1361.9 130.417 1360.16 Q131.32 1358.41 131.32 1356.72 Q131.32 1353.96 129.376 1352.22 Q127.455 1350.49 124.353 1350.49 Q122.154 1350.49 119.7 1351.25 Q117.269 1352.02 114.492 1353.57 L114.492 1348.85 Q117.316 1347.71 119.769 1347.13 Q122.223 1346.55 124.26 1346.55 Q129.63 1346.55 132.825 1349.24 Q136.019 1351.92 136.019 1356.41 Q136.019 1358.54 135.209 1360.47 Q134.422 1362.36 132.316 1364.96 Q131.737 1365.63 128.635 1368.84 Q125.533 1372.04 119.885 1377.8 Z" fill="#000000" fill-rule="evenodd" fill-opacity="1" /><path clip-path="url(#clip160)" d="M150.047 1377.8 L166.366 1377.8 L166.366 1381.74 L144.422 1381.74 L144.422 1377.8 Q147.084 1375.05 151.667 1370.42 Q156.274 1365.77 157.454 1364.42 Q159.7 1361.9 160.579 1360.16 Q161.482 1358.41 161.482 1356.72 Q161.482 1353.96 159.538 1352.22 Q157.616 1350.49 154.515 1350.49 Q152.316 1350.49 149.862 1351.25 Q147.431 1352.02 144.654 1353.57 L144.654 1348.85 Q147.478 1347.71 149.931 1347.13 Q152.385 1346.55 154.422 1346.55 Q159.792 1346.55 162.987 1349.24 Q166.181 1351.92 166.181 1356.41 Q166.181 1358.54 165.371 1360.47 Q164.584 1362.36 162.477 1364.96 Q161.899 1365.63 158.797 1368.84 Q155.695 1372.04 150.047 1377.8 Z" fill="#000000" fill-rule="evenodd" fill-opacity="1" /><path clip-path="url(#clip160)" d="M190.348 1363.1 Q193.704 1363.82 195.579 1366.09 Q197.477 1368.36 197.477 1371.69 Q197.477 1376.81 193.959 1379.61 Q190.44 1382.41 183.959 1382.41 Q181.783 1382.41 179.468 1381.97 Q177.176 1381.55 174.723 1380.7 L174.723 1376.18 Q176.667 1377.32 178.982 1377.9 Q181.297 1378.47 183.82 1378.47 Q188.218 1378.47 190.51 1376.74 Q192.825 1375 192.825 1371.69 Q192.825 1368.64 190.672 1366.92 Q188.542 1365.19 184.723 1365.19 L180.695 1365.19 L180.695 1361.34 L184.908 1361.34 Q188.357 1361.34 190.186 1359.98 Q192.014 1358.59 192.014 1356 Q192.014 1353.34 190.116 1351.92 Q188.241 1350.49 184.723 1350.49 Q182.801 1350.49 180.602 1350.91 Q178.403 1351.32 175.764 1352.2 L175.764 1348.03 Q178.426 1347.29 180.741 1346.92 Q183.079 1346.55 185.139 1346.55 Q190.463 1346.55 193.565 1348.98 Q196.667 1351.39 196.667 1355.51 Q196.667 1358.38 195.024 1360.37 Q193.38 1362.34 190.348 1363.1 Z" fill="#000000" fill-rule="evenodd" fill-opacity="1" /><path clip-path="url(#clip160)" d="M220.51 1363.1 Q223.866 1363.82 225.741 1366.09 Q227.639 1368.36 227.639 1371.69 Q227.639 1376.81 224.121 1379.61 Q220.602 1382.41 214.121 1382.41 Q211.945 1382.41 209.63 1381.97 Q207.338 1381.55 204.885 1380.7 L204.885 1376.18 Q206.829 1377.32 209.144 1377.9 Q211.459 1378.47 213.982 1378.47 Q218.38 1378.47 220.672 1376.74 Q222.986 1375 222.986 1371.69 Q222.986 1368.64 220.834 1366.92 Q218.704 1365.19 214.885 1365.19 L210.857 1365.19 L210.857 1361.34 L215.07 1361.34 Q218.519 1361.34 220.348 1359.98 Q222.176 1358.59 222.176 1356 Q222.176 1353.34 220.278 1351.92 Q218.403 1350.49 214.885 1350.49 Q212.963 1350.49 210.764 1350.91 Q208.565 1351.32 205.926 1352.2 L205.926 1348.03 Q208.588 1347.29 210.903 1346.92 Q213.241 1346.55 215.301 1346.55 Q220.625 1346.55 223.727 1348.98 Q226.829 1351.39 226.829 1355.51 Q226.829 1358.38 225.185 1360.37 Q223.542 1362.34 220.51 1363.1 Z" fill="#000000" fill-rule="evenodd" fill-opacity="1" /><path clip-path="url(#clip160)" d="M247.084 1362.59 Q243.935 1362.59 242.084 1364.75 Q240.255 1366.9 240.255 1370.65 Q240.255 1374.38 242.084 1376.55 Q243.935 1378.71 247.084 1378.71 Q250.232 1378.71 252.06 1376.55 Q253.912 1374.38 253.912 1370.65 Q253.912 1366.9 252.06 1364.75 Q250.232 1362.59 247.084 1362.59 M256.366 1347.94 L256.366 1352.2 Q254.607 1351.37 252.801 1350.93 Q251.019 1350.49 249.259 1350.49 Q244.63 1350.49 242.176 1353.61 Q239.746 1356.74 239.398 1363.06 Q240.764 1361.04 242.824 1359.98 Q244.884 1358.89 247.361 1358.89 Q252.57 1358.89 255.579 1362.06 Q258.611 1365.21 258.611 1370.65 Q258.611 1375.97 255.463 1379.19 Q252.315 1382.41 247.084 1382.41 Q241.088 1382.41 237.917 1377.83 Q234.746 1373.22 234.746 1364.49 Q234.746 1356.3 238.634 1351.44 Q242.523 1346.55 249.074 1346.55 Q250.833 1346.55 252.616 1346.9 Q254.421 1347.25 256.366 1347.94 Z" fill="#000000" fill-rule="evenodd" fill-opacity="1" /><path clip-path="url(#clip160)" d="M265.486 1347.18 L287.708 1347.18 L287.708 1349.17 L275.162 1381.74 L270.278 1381.74 L282.083 1351.11 L265.486 1351.11 L265.486 1347.18 Z" fill="#000000" fill-rule="evenodd" fill-opacity="1" /><path clip-path="url(#clip160)" d="M295.648 1347.18 L317.87 1347.18 L317.87 1349.17 L305.324 1381.74 L300.44 1381.74 L312.245 1351.11 L295.648 1351.11 L295.648 1347.18 Z" fill="#000000" fill-rule="evenodd" fill-opacity="1" /><path clip-path="url(#clip160)" d="M336.99 1350.26 Q333.379 1350.26 331.551 1353.82 Q329.745 1357.36 329.745 1364.49 Q329.745 1371.6 331.551 1375.16 Q333.379 1378.71 336.99 1378.71 Q340.625 1378.71 342.43 1375.16 Q344.259 1371.6 344.259 1364.49 Q344.259 1357.36 342.43 1353.82 Q340.625 1350.26 336.99 1350.26 M336.99 1346.55 Q342.801 1346.55 345.856 1351.16 Q348.935 1355.74 348.935 1364.49 Q348.935 1373.22 345.856 1377.83 Q342.801 1382.41 336.99 1382.41 Q331.18 1382.41 328.102 1377.83 Q325.046 1373.22 325.046 1364.49 Q325.046 1355.74 328.102 1351.16 Q331.18 1346.55 336.99 1346.55 Z" fill="#000000" fill-rule="evenodd" fill-opacity="1" /><path clip-path="url(#clip160)" d="M367.152 1350.26 Q363.541 1350.26 361.713 1353.82 Q359.907 1357.36 359.907 1364.49 Q359.907 1371.6 361.713 1375.16 Q363.541 1378.71 367.152 1378.71 Q370.787 1378.71 372.592 1375.16 Q374.421 1371.6 374.421 1364.49 Q374.421 1357.36 372.592 1353.82 Q370.787 1350.26 367.152 1350.26 M367.152 1346.55 Q372.962 1346.55 376.018 1351.16 Q379.097 1355.74 379.097 1364.49 Q379.097 1373.22 376.018 1377.83 Q372.962 1382.41 367.152 1382.41 Q361.342 1382.41 358.263 1377.83 Q355.208 1373.22 355.208 1364.49 Q355.208 1355.74 358.263 1351.16 Q361.342 1346.55 367.152 1346.55 Z" fill="#000000" fill-rule="evenodd" fill-opacity="1" /><path clip-path="url(#clip160)" d="M119.885 1181.7 L136.204 1181.7 L136.204 1185.63 L114.26 1185.63 L114.26 1181.7 Q116.922 1178.94 121.505 1174.31 Q126.112 1169.66 127.292 1168.32 Q129.538 1165.79 130.417 1164.06 Q131.32 1162.3 131.32 1160.61 Q131.32 1157.85 129.376 1156.12 Q127.455 1154.38 124.353 1154.38 Q122.154 1154.38 119.7 1155.15 Q117.269 1155.91 114.492 1157.46 L114.492 1152.74 Q117.316 1151.6 119.769 1151.02 Q122.223 1150.45 124.26 1150.45 Q129.63 1150.45 132.825 1153.13 Q136.019 1155.82 136.019 1160.31 Q136.019 1162.44 135.209 1164.36 Q134.422 1166.26 132.316 1168.85 Q131.737 1169.52 128.635 1172.74 Q125.533 1175.93 119.885 1181.7 Z" fill="#000000" fill-rule="evenodd" fill-opacity="1" /><path clip-path="url(#clip160)" d="M150.047 1181.7 L166.366 1181.7 L166.366 1185.63 L144.422 1185.63 L144.422 1181.7 Q147.084 1178.94 151.667 1174.31 Q156.274 1169.66 157.454 1168.32 Q159.7 1165.79 160.579 1164.06 Q161.482 1162.3 161.482 1160.61 Q161.482 1157.85 159.538 1156.12 Q157.616 1154.38 154.515 1154.38 Q152.316 1154.38 149.862 1155.15 Q147.431 1155.91 144.654 1157.46 L144.654 1152.74 Q147.478 1151.6 149.931 1151.02 Q152.385 1150.45 154.422 1150.45 Q159.792 1150.45 162.987 1153.13 Q166.181 1155.82 166.181 1160.31 Q166.181 1162.44 165.371 1164.36 Q164.584 1166.26 162.477 1168.85 Q161.899 1169.52 158.797 1172.74 Q155.695 1175.93 150.047 1181.7 Z" fill="#000000" fill-rule="evenodd" fill-opacity="1" /><path clip-path="url(#clip160)" d="M190.348 1167 Q193.704 1167.71 195.579 1169.98 Q197.477 1172.25 197.477 1175.58 Q197.477 1180.7 193.959 1183.5 Q190.44 1186.3 183.959 1186.3 Q181.783 1186.3 179.468 1185.86 Q177.176 1185.45 174.723 1184.59 L174.723 1180.08 Q176.667 1181.21 178.982 1181.79 Q181.297 1182.37 183.82 1182.37 Q188.218 1182.37 190.51 1180.63 Q192.825 1178.89 192.825 1175.58 Q192.825 1172.53 190.672 1170.82 Q188.542 1169.08 184.723 1169.08 L180.695 1169.08 L180.695 1165.24 L184.908 1165.24 Q188.357 1165.24 190.186 1163.87 Q192.014 1162.48 192.014 1159.89 Q192.014 1157.23 190.116 1155.82 Q188.241 1154.38 184.723 1154.38 Q182.801 1154.38 180.602 1154.8 Q178.403 1155.21 175.764 1156.09 L175.764 1151.93 Q178.426 1151.19 180.741 1150.82 Q183.079 1150.45 185.139 1150.45 Q190.463 1150.45 193.565 1152.88 Q196.667 1155.28 196.667 1159.4 Q196.667 1162.27 195.024 1164.27 Q193.38 1166.23 190.348 1167 Z" fill="#000000" fill-rule="evenodd" fill-opacity="1" /><path clip-path="url(#clip160)" d="M220.51 1167 Q223.866 1167.71 225.741 1169.98 Q227.639 1172.25 227.639 1175.58 Q227.639 1180.7 224.121 1183.5 Q220.602 1186.3 214.121 1186.3 Q211.945 1186.3 209.63 1185.86 Q207.338 1185.45 204.885 1184.59 L204.885 1180.08 Q206.829 1181.21 209.144 1181.79 Q211.459 1182.37 213.982 1182.37 Q218.38 1182.37 220.672 1180.63 Q222.986 1178.89 222.986 1175.58 Q222.986 1172.53 220.834 1170.82 Q218.704 1169.08 214.885 1169.08 L210.857 1169.08 L210.857 1165.24 L215.07 1165.24 Q218.519 1165.24 220.348 1163.87 Q222.176 1162.48 222.176 1159.89 Q222.176 1157.23 220.278 1155.82 Q218.403 1154.38 214.885 1154.38 Q212.963 1154.38 210.764 1154.8 Q208.565 1155.21 205.926 1156.09 L205.926 1151.93 Q208.588 1151.19 210.903 1150.82 Q213.241 1150.45 215.301 1150.45 Q220.625 1150.45 223.727 1152.88 Q226.829 1155.28 226.829 1159.4 Q226.829 1162.27 225.185 1164.27 Q223.542 1166.23 220.51 1167 Z" fill="#000000" fill-rule="evenodd" fill-opacity="1" /><path clip-path="url(#clip160)" d="M247.084 1166.49 Q243.935 1166.49 242.084 1168.64 Q240.255 1170.79 240.255 1174.54 Q240.255 1178.27 242.084 1180.45 Q243.935 1182.6 247.084 1182.6 Q250.232 1182.6 252.06 1180.45 Q253.912 1178.27 253.912 1174.54 Q253.912 1170.79 252.06 1168.64 Q250.232 1166.49 247.084 1166.49 M256.366 1151.83 L256.366 1156.09 Q254.607 1155.26 252.801 1154.82 Q251.019 1154.38 249.259 1154.38 Q244.63 1154.38 242.176 1157.51 Q239.746 1160.63 239.398 1166.95 Q240.764 1164.94 242.824 1163.87 Q244.884 1162.78 247.361 1162.78 Q252.57 1162.78 255.579 1165.96 Q258.611 1169.1 258.611 1174.54 Q258.611 1179.87 255.463 1183.08 Q252.315 1186.3 247.084 1186.3 Q241.088 1186.3 237.917 1181.72 Q234.746 1177.11 234.746 1168.39 Q234.746 1160.19 238.634 1155.33 Q242.523 1150.45 249.074 1150.45 Q250.833 1150.45 252.616 1150.79 Q254.421 1151.14 256.366 1151.83 Z" fill="#000000" fill-rule="evenodd" fill-opacity="1" /><path clip-path="url(#clip160)" d="M265.486 1151.07 L287.708 1151.07 L287.708 1153.06 L275.162 1185.63 L270.278 1185.63 L282.083 1155.01 L265.486 1155.01 L265.486 1151.07 Z" fill="#000000" fill-rule="evenodd" fill-opacity="1" /><path clip-path="url(#clip160)" d="M306.829 1169.22 Q303.495 1169.22 301.574 1171 Q299.676 1172.78 299.676 1175.91 Q299.676 1179.03 301.574 1180.82 Q303.495 1182.6 306.829 1182.6 Q310.162 1182.6 312.083 1180.82 Q314.004 1179.01 314.004 1175.91 Q314.004 1172.78 312.083 1171 Q310.185 1169.22 306.829 1169.22 M302.153 1167.23 Q299.143 1166.49 297.454 1164.43 Q295.787 1162.37 295.787 1159.4 Q295.787 1155.26 298.727 1152.85 Q301.69 1150.45 306.829 1150.45 Q311.991 1150.45 314.93 1152.85 Q317.87 1155.26 317.87 1159.4 Q317.87 1162.37 316.18 1164.43 Q314.514 1166.49 311.528 1167.23 Q314.907 1168.02 316.782 1170.31 Q318.68 1172.6 318.68 1175.91 Q318.68 1180.93 315.602 1183.62 Q312.546 1186.3 306.829 1186.3 Q301.111 1186.3 298.032 1183.62 Q294.977 1180.93 294.977 1175.91 Q294.977 1172.6 296.875 1170.31 Q298.773 1168.02 302.153 1167.23 M300.44 1159.84 Q300.44 1162.53 302.106 1164.03 Q303.796 1165.54 306.829 1165.54 Q309.838 1165.54 311.528 1164.03 Q313.241 1162.53 313.241 1159.84 Q313.241 1157.16 311.528 1155.65 Q309.838 1154.15 306.829 1154.15 Q303.796 1154.15 302.106 1155.65 Q300.44 1157.16 300.44 1159.84 Z" fill="#000000" fill-rule="evenodd" fill-opacity="1" /><path clip-path="url(#clip160)" d="M336.99 1154.15 Q333.379 1154.15 331.551 1157.71 Q329.745 1161.26 329.745 1168.39 Q329.745 1175.49 331.551 1179.06 Q333.379 1182.6 336.99 1182.6 Q340.625 1182.6 342.43 1179.06 Q344.259 1175.49 344.259 1168.39 Q344.259 1161.26 342.43 1157.71 Q340.625 1154.15 336.99 1154.15 M336.99 1150.45 Q342.801 1150.45 345.856 1155.05 Q348.935 1159.64 348.935 1168.39 Q348.935 1177.11 345.856 1181.72 Q342.801 1186.3 336.99 1186.3 Q331.18 1186.3 328.102 1181.72 Q325.046 1177.11 325.046 1168.39 Q325.046 1159.64 328.102 1155.05 Q331.18 1150.45 336.99 1150.45 Z" fill="#000000" fill-rule="evenodd" fill-opacity="1" /><path clip-path="url(#clip160)" d="M367.152 1154.15 Q363.541 1154.15 361.713 1157.71 Q359.907 1161.26 359.907 1168.39 Q359.907 1175.49 361.713 1179.06 Q363.541 1182.6 367.152 1182.6 Q370.787 1182.6 372.592 1179.06 Q374.421 1175.49 374.421 1168.39 Q374.421 1161.26 372.592 1157.71 Q370.787 1154.15 367.152 1154.15 M367.152 1150.45 Q372.962 1150.45 376.018 1155.05 Q379.097 1159.64 379.097 1168.39 Q379.097 1177.11 376.018 1181.72 Q372.962 1186.3 367.152 1186.3 Q361.342 1186.3 358.263 1181.72 Q355.208 1177.11 355.208 1168.39 Q355.208 1159.64 358.263 1155.05 Q361.342 1150.45 367.152 1150.45 Z" fill="#000000" fill-rule="evenodd" fill-opacity="1" /><path clip-path="url(#clip160)" d="M119.885 985.588 L136.204 985.588 L136.204 989.524 L114.26 989.524 L114.26 985.588 Q116.922 982.834 121.505 978.204 Q126.112 973.551 127.292 972.209 Q129.538 969.686 130.417 967.95 Q131.32 966.19 131.32 964.501 Q131.32 961.746 129.376 960.01 Q127.455 958.274 124.353 958.274 Q122.154 958.274 119.7 959.038 Q117.269 959.802 114.492 961.352 L114.492 956.63 Q117.316 955.496 119.769 954.917 Q122.223 954.339 124.26 954.339 Q129.63 954.339 132.825 957.024 Q136.019 959.709 136.019 964.2 Q136.019 966.329 135.209 968.251 Q134.422 970.149 132.316 972.741 Q131.737 973.413 128.635 976.63 Q125.533 979.825 119.885 985.588 Z" fill="#000000" fill-rule="evenodd" fill-opacity="1" /><path clip-path="url(#clip160)" d="M150.047 985.588 L166.366 985.588 L166.366 989.524 L144.422 989.524 L144.422 985.588 Q147.084 982.834 151.667 978.204 Q156.274 973.551 157.454 972.209 Q159.7 969.686 160.579 967.95 Q161.482 966.19 161.482 964.501 Q161.482 961.746 159.538 960.01 Q157.616 958.274 154.515 958.274 Q152.316 958.274 149.862 959.038 Q147.431 959.802 144.654 961.352 L144.654 956.63 Q147.478 955.496 149.931 954.917 Q152.385 954.339 154.422 954.339 Q159.792 954.339 162.987 957.024 Q166.181 959.709 166.181 964.2 Q166.181 966.329 165.371 968.251 Q164.584 970.149 162.477 972.741 Q161.899 973.413 158.797 976.63 Q155.695 979.825 150.047 985.588 Z" fill="#000000" fill-rule="evenodd" fill-opacity="1" /><path clip-path="url(#clip160)" d="M190.348 970.889 Q193.704 971.607 195.579 973.876 Q197.477 976.144 197.477 979.477 Q197.477 984.593 193.959 987.394 Q190.44 990.195 183.959 990.195 Q181.783 990.195 179.468 989.755 Q177.176 989.338 174.723 988.482 L174.723 983.968 Q176.667 985.102 178.982 985.681 Q181.297 986.26 183.82 986.26 Q188.218 986.26 190.51 984.524 Q192.825 982.787 192.825 979.477 Q192.825 976.422 190.672 974.709 Q188.542 972.973 184.723 972.973 L180.695 972.973 L180.695 969.13 L184.908 969.13 Q188.357 969.13 190.186 967.764 Q192.014 966.376 192.014 963.783 Q192.014 961.121 190.116 959.709 Q188.241 958.274 184.723 958.274 Q182.801 958.274 180.602 958.69 Q178.403 959.107 175.764 959.987 L175.764 955.82 Q178.426 955.079 180.741 954.709 Q183.079 954.339 185.139 954.339 Q190.463 954.339 193.565 956.769 Q196.667 959.177 196.667 963.297 Q196.667 966.167 195.024 968.158 Q193.38 970.126 190.348 970.889 Z" fill="#000000" fill-rule="evenodd" fill-opacity="1" /><path clip-path="url(#clip160)" d="M220.51 970.889 Q223.866 971.607 225.741 973.876 Q227.639 976.144 227.639 979.477 Q227.639 984.593 224.121 987.394 Q220.602 990.195 214.121 990.195 Q211.945 990.195 209.63 989.755 Q207.338 989.338 204.885 988.482 L204.885 983.968 Q206.829 985.102 209.144 985.681 Q211.459 986.26 213.982 986.26 Q218.38 986.26 220.672 984.524 Q222.986 982.787 222.986 979.477 Q222.986 976.422 220.834 974.709 Q218.704 972.973 214.885 972.973 L210.857 972.973 L210.857 969.13 L215.07 969.13 Q218.519 969.13 220.348 967.764 Q222.176 966.376 222.176 963.783 Q222.176 961.121 220.278 959.709 Q218.403 958.274 214.885 958.274 Q212.963 958.274 210.764 958.69 Q208.565 959.107 205.926 959.987 L205.926 955.82 Q208.588 955.079 210.903 954.709 Q213.241 954.339 215.301 954.339 Q220.625 954.339 223.727 956.769 Q226.829 959.177 226.829 963.297 Q226.829 966.167 225.185 968.158 Q223.542 970.126 220.51 970.889 Z" fill="#000000" fill-rule="evenodd" fill-opacity="1" /><path clip-path="url(#clip160)" d="M247.084 970.38 Q243.935 970.38 242.084 972.533 Q240.255 974.686 240.255 978.436 Q240.255 982.162 242.084 984.338 Q243.935 986.491 247.084 986.491 Q250.232 986.491 252.06 984.338 Q253.912 982.162 253.912 978.436 Q253.912 974.686 252.06 972.533 Q250.232 970.38 247.084 970.38 M256.366 955.727 L256.366 959.987 Q254.607 959.153 252.801 958.714 Q251.019 958.274 249.259 958.274 Q244.63 958.274 242.176 961.399 Q239.746 964.524 239.398 970.843 Q240.764 968.829 242.824 967.764 Q244.884 966.676 247.361 966.676 Q252.57 966.676 255.579 969.848 Q258.611 972.996 258.611 978.436 Q258.611 983.76 255.463 986.977 Q252.315 990.195 247.084 990.195 Q241.088 990.195 237.917 985.612 Q234.746 981.005 234.746 972.278 Q234.746 964.084 238.634 959.223 Q242.523 954.339 249.074 954.339 Q250.833 954.339 252.616 954.686 Q254.421 955.033 256.366 955.727 Z" fill="#000000" fill-rule="evenodd" fill-opacity="1" /><path clip-path="url(#clip160)" d="M265.486 954.964 L287.708 954.964 L287.708 956.954 L275.162 989.524 L270.278 989.524 L282.083 958.899 L265.486 958.899 L265.486 954.964 Z" fill="#000000" fill-rule="evenodd" fill-opacity="1" /><path clip-path="url(#clip160)" d="M296.968 988.806 L296.968 984.547 Q298.727 985.38 300.532 985.82 Q302.338 986.26 304.074 986.26 Q308.704 986.26 311.134 983.158 Q313.588 980.033 313.935 973.69 Q312.592 975.681 310.532 976.746 Q308.472 977.811 305.972 977.811 Q300.787 977.811 297.755 974.686 Q294.745 971.538 294.745 966.098 Q294.745 960.774 297.893 957.556 Q301.042 954.339 306.273 954.339 Q312.268 954.339 315.416 958.945 Q318.588 963.528 318.588 972.278 Q318.588 980.45 314.699 985.334 Q310.833 990.195 304.282 990.195 Q302.523 990.195 300.717 989.848 Q298.912 989.5 296.968 988.806 M306.273 974.153 Q309.421 974.153 311.25 972.001 Q313.102 969.848 313.102 966.098 Q313.102 962.371 311.25 960.218 Q309.421 958.042 306.273 958.042 Q303.125 958.042 301.273 960.218 Q299.444 962.371 299.444 966.098 Q299.444 969.848 301.273 972.001 Q303.125 974.153 306.273 974.153 Z" fill="#000000" fill-rule="evenodd" fill-opacity="1" /><path clip-path="url(#clip160)" d="M336.99 958.042 Q333.379 958.042 331.551 961.607 Q329.745 965.149 329.745 972.278 Q329.745 979.385 331.551 982.95 Q333.379 986.491 336.99 986.491 Q340.625 986.491 342.43 982.95 Q344.259 979.385 344.259 972.278 Q344.259 965.149 342.43 961.607 Q340.625 958.042 336.99 958.042 M336.99 954.339 Q342.801 954.339 345.856 958.945 Q348.935 963.528 348.935 972.278 Q348.935 981.005 345.856 985.612 Q342.801 990.195 336.99 990.195 Q331.18 990.195 328.102 985.612 Q325.046 981.005 325.046 972.278 Q325.046 963.528 328.102 958.945 Q331.18 954.339 336.99 954.339 Z" fill="#000000" fill-rule="evenodd" fill-opacity="1" /><path clip-path="url(#clip160)" d="M367.152 958.042 Q363.541 958.042 361.713 961.607 Q359.907 965.149 359.907 972.278 Q359.907 979.385 361.713 982.95 Q363.541 986.491 367.152 986.491 Q370.787 986.491 372.592 982.95 Q374.421 979.385 374.421 972.278 Q374.421 965.149 372.592 961.607 Q370.787 958.042 367.152 958.042 M367.152 954.339 Q372.962 954.339 376.018 958.945 Q379.097 963.528 379.097 972.278 Q379.097 981.005 376.018 985.612 Q372.962 990.195 367.152 990.195 Q361.342 990.195 358.263 985.612 Q355.208 981.005 355.208 972.278 Q355.208 963.528 358.263 958.945 Q361.342 954.339 367.152 954.339 Z" fill="#000000" fill-rule="evenodd" fill-opacity="1" /><path clip-path="url(#clip160)" d="M119.885 789.481 L136.204 789.481 L136.204 793.416 L114.26 793.416 L114.26 789.481 Q116.922 786.726 121.505 782.097 Q126.112 777.444 127.292 776.101 Q129.538 773.578 130.417 771.842 Q131.32 770.083 131.32 768.393 Q131.32 765.639 129.376 763.902 Q127.455 762.166 124.353 762.166 Q122.154 762.166 119.7 762.93 Q117.269 763.694 114.492 765.245 L114.492 760.523 Q117.316 759.389 119.769 758.81 Q122.223 758.231 124.26 758.231 Q129.63 758.231 132.825 760.916 Q136.019 763.601 136.019 768.092 Q136.019 770.222 135.209 772.143 Q134.422 774.041 132.316 776.634 Q131.737 777.305 128.635 780.523 Q125.533 783.717 119.885 789.481 Z" fill="#000000" fill-rule="evenodd" fill-opacity="1" /><path clip-path="url(#clip160)" d="M150.047 789.481 L166.366 789.481 L166.366 793.416 L144.422 793.416 L144.422 789.481 Q147.084 786.726 151.667 782.097 Q156.274 777.444 157.454 776.101 Q159.7 773.578 160.579 771.842 Q161.482 770.083 161.482 768.393 Q161.482 765.639 159.538 763.902 Q157.616 762.166 154.515 762.166 Q152.316 762.166 149.862 762.93 Q147.431 763.694 144.654 765.245 L144.654 760.523 Q147.478 759.389 149.931 758.81 Q152.385 758.231 154.422 758.231 Q159.792 758.231 162.987 760.916 Q166.181 763.601 166.181 768.092 Q166.181 770.222 165.371 772.143 Q164.584 774.041 162.477 776.634 Q161.899 777.305 158.797 780.523 Q155.695 783.717 150.047 789.481 Z" fill="#000000" fill-rule="evenodd" fill-opacity="1" /><path clip-path="url(#clip160)" d="M190.348 774.782 Q193.704 775.5 195.579 777.768 Q197.477 780.037 197.477 783.37 Q197.477 788.486 193.959 791.287 Q190.44 794.087 183.959 794.087 Q181.783 794.087 179.468 793.648 Q177.176 793.231 174.723 792.374 L174.723 787.861 Q176.667 788.995 178.982 789.574 Q181.297 790.152 183.82 790.152 Q188.218 790.152 190.51 788.416 Q192.825 786.68 192.825 783.37 Q192.825 780.314 190.672 778.601 Q188.542 776.865 184.723 776.865 L180.695 776.865 L180.695 773.023 L184.908 773.023 Q188.357 773.023 190.186 771.657 Q192.014 770.268 192.014 767.676 Q192.014 765.014 190.116 763.601 Q188.241 762.166 184.723 762.166 Q182.801 762.166 180.602 762.583 Q178.403 763 175.764 763.879 L175.764 759.713 Q178.426 758.972 180.741 758.602 Q183.079 758.231 185.139 758.231 Q190.463 758.231 193.565 760.662 Q196.667 763.069 196.667 767.189 Q196.667 770.06 195.024 772.051 Q193.38 774.018 190.348 774.782 Z" fill="#000000" fill-rule="evenodd" fill-opacity="1" /><path clip-path="url(#clip160)" d="M220.51 774.782 Q223.866 775.5 225.741 777.768 Q227.639 780.037 227.639 783.37 Q227.639 788.486 224.121 791.287 Q220.602 794.087 214.121 794.087 Q211.945 794.087 209.63 793.648 Q207.338 793.231 204.885 792.374 L204.885 787.861 Q206.829 788.995 209.144 789.574 Q211.459 790.152 213.982 790.152 Q218.38 790.152 220.672 788.416 Q222.986 786.68 222.986 783.37 Q222.986 780.314 220.834 778.601 Q218.704 776.865 214.885 776.865 L210.857 776.865 L210.857 773.023 L215.07 773.023 Q218.519 773.023 220.348 771.657 Q222.176 770.268 222.176 767.676 Q222.176 765.014 220.278 763.601 Q218.403 762.166 214.885 762.166 Q212.963 762.166 210.764 762.583 Q208.565 763 205.926 763.879 L205.926 759.713 Q208.588 758.972 210.903 758.602 Q213.241 758.231 215.301 758.231 Q220.625 758.231 223.727 760.662 Q226.829 763.069 226.829 767.189 Q226.829 770.06 225.185 772.051 Q223.542 774.018 220.51 774.782 Z" fill="#000000" fill-rule="evenodd" fill-opacity="1" /><path clip-path="url(#clip160)" d="M247.084 774.273 Q243.935 774.273 242.084 776.425 Q240.255 778.578 240.255 782.328 Q240.255 786.055 242.084 788.231 Q243.935 790.384 247.084 790.384 Q250.232 790.384 252.06 788.231 Q253.912 786.055 253.912 782.328 Q253.912 778.578 252.06 776.425 Q250.232 774.273 247.084 774.273 M256.366 759.62 L256.366 763.879 Q254.607 763.046 252.801 762.606 Q251.019 762.166 249.259 762.166 Q244.63 762.166 242.176 765.291 Q239.746 768.416 239.398 774.736 Q240.764 772.722 242.824 771.657 Q244.884 770.569 247.361 770.569 Q252.57 770.569 255.579 773.74 Q258.611 776.888 258.611 782.328 Q258.611 787.652 255.463 790.87 Q252.315 794.087 247.084 794.087 Q241.088 794.087 237.917 789.504 Q234.746 784.898 234.746 776.171 Q234.746 767.976 238.634 763.115 Q242.523 758.231 249.074 758.231 Q250.833 758.231 252.616 758.578 Q254.421 758.926 256.366 759.62 Z" fill="#000000" fill-rule="evenodd" fill-opacity="1" /><path clip-path="url(#clip160)" d="M276.667 777.004 Q273.333 777.004 271.412 778.787 Q269.514 780.569 269.514 783.694 Q269.514 786.819 271.412 788.601 Q273.333 790.384 276.667 790.384 Q280 790.384 281.921 788.601 Q283.843 786.796 283.843 783.694 Q283.843 780.569 281.921 778.787 Q280.023 777.004 276.667 777.004 M271.991 775.013 Q268.982 774.273 267.292 772.213 Q265.625 770.152 265.625 767.189 Q265.625 763.046 268.565 760.639 Q271.528 758.231 276.667 758.231 Q281.829 758.231 284.769 760.639 Q287.708 763.046 287.708 767.189 Q287.708 770.152 286.018 772.213 Q284.352 774.273 281.366 775.013 Q284.745 775.801 286.62 778.092 Q288.518 780.384 288.518 783.694 Q288.518 788.717 285.44 791.402 Q282.384 794.087 276.667 794.087 Q270.949 794.087 267.87 791.402 Q264.815 788.717 264.815 783.694 Q264.815 780.384 266.713 778.092 Q268.611 775.801 271.991 775.013 M270.278 767.629 Q270.278 770.314 271.944 771.819 Q273.634 773.324 276.667 773.324 Q279.676 773.324 281.366 771.819 Q283.079 770.314 283.079 767.629 Q283.079 764.944 281.366 763.439 Q279.676 761.935 276.667 761.935 Q273.634 761.935 271.944 763.439 Q270.278 764.944 270.278 767.629 Z" fill="#000000" fill-rule="evenodd" fill-opacity="1" /><path clip-path="url(#clip160)" d="M306.829 761.935 Q303.217 761.935 301.389 765.5 Q299.583 769.041 299.583 776.171 Q299.583 783.277 301.389 786.842 Q303.217 790.384 306.829 790.384 Q310.463 790.384 312.268 786.842 Q314.097 783.277 314.097 776.171 Q314.097 769.041 312.268 765.5 Q310.463 761.935 306.829 761.935 M306.829 758.231 Q312.639 758.231 315.694 762.838 Q318.773 767.421 318.773 776.171 Q318.773 784.898 315.694 789.504 Q312.639 794.087 306.829 794.087 Q301.018 794.087 297.94 789.504 Q294.884 784.898 294.884 776.171 Q294.884 767.421 297.94 762.838 Q301.018 758.231 306.829 758.231 Z" fill="#000000" fill-rule="evenodd" fill-opacity="1" /><path clip-path="url(#clip160)" d="M336.99 761.935 Q333.379 761.935 331.551 765.5 Q329.745 769.041 329.745 776.171 Q329.745 783.277 331.551 786.842 Q333.379 790.384 336.99 790.384 Q340.625 790.384 342.43 786.842 Q344.259 783.277 344.259 776.171 Q344.259 769.041 342.43 765.5 Q340.625 761.935 336.99 761.935 M336.99 758.231 Q342.801 758.231 345.856 762.838 Q348.935 767.421 348.935 776.171 Q348.935 784.898 345.856 789.504 Q342.801 794.087 336.99 794.087 Q331.18 794.087 328.102 789.504 Q325.046 784.898 325.046 776.171 Q325.046 767.421 328.102 762.838 Q331.18 758.231 336.99 758.231 Z" fill="#000000" fill-rule="evenodd" fill-opacity="1" /><path clip-path="url(#clip160)" d="M367.152 761.935 Q363.541 761.935 361.713 765.5 Q359.907 769.041 359.907 776.171 Q359.907 783.277 361.713 786.842 Q363.541 790.384 367.152 790.384 Q370.787 790.384 372.592 786.842 Q374.421 783.277 374.421 776.171 Q374.421 769.041 372.592 765.5 Q370.787 761.935 367.152 761.935 M367.152 758.231 Q372.962 758.231 376.018 762.838 Q379.097 767.421 379.097 776.171 Q379.097 784.898 376.018 789.504 Q372.962 794.087 367.152 794.087 Q361.342 794.087 358.263 789.504 Q355.208 784.898 355.208 776.171 Q355.208 767.421 358.263 762.838 Q361.342 758.231 367.152 758.231 Z" fill="#000000" fill-rule="evenodd" fill-opacity="1" /><path clip-path="url(#clip160)" d="M119.885 593.374 L136.204 593.374 L136.204 597.309 L114.26 597.309 L114.26 593.374 Q116.922 590.619 121.505 585.989 Q126.112 581.337 127.292 579.994 Q129.538 577.471 130.417 575.735 Q131.32 573.976 131.32 572.286 Q131.32 569.531 129.376 567.795 Q127.455 566.059 124.353 566.059 Q122.154 566.059 119.7 566.823 Q117.269 567.587 114.492 569.138 L114.492 564.415 Q117.316 563.281 119.769 562.702 Q122.223 562.124 124.26 562.124 Q129.63 562.124 132.825 564.809 Q136.019 567.494 136.019 571.985 Q136.019 574.114 135.209 576.036 Q134.422 577.934 132.316 580.526 Q131.737 581.198 128.635 584.415 Q125.533 587.61 119.885 593.374 Z" fill="#000000" fill-rule="evenodd" fill-opacity="1" /><path clip-path="url(#clip160)" d="M150.047 593.374 L166.366 593.374 L166.366 597.309 L144.422 597.309 L144.422 593.374 Q147.084 590.619 151.667 585.989 Q156.274 581.337 157.454 579.994 Q159.7 577.471 160.579 575.735 Q161.482 573.976 161.482 572.286 Q161.482 569.531 159.538 567.795 Q157.616 566.059 154.515 566.059 Q152.316 566.059 149.862 566.823 Q147.431 567.587 144.654 569.138 L144.654 564.415 Q147.478 563.281 149.931 562.702 Q152.385 562.124 154.422 562.124 Q159.792 562.124 162.987 564.809 Q166.181 567.494 166.181 571.985 Q166.181 574.114 165.371 576.036 Q164.584 577.934 162.477 580.526 Q161.899 581.198 158.797 584.415 Q155.695 587.61 150.047 593.374 Z" fill="#000000" fill-rule="evenodd" fill-opacity="1" /><path clip-path="url(#clip160)" d="M190.348 578.675 Q193.704 579.392 195.579 581.661 Q197.477 583.929 197.477 587.262 Q197.477 592.378 193.959 595.179 Q190.44 597.98 183.959 597.98 Q181.783 597.98 179.468 597.54 Q177.176 597.124 174.723 596.267 L174.723 591.753 Q176.667 592.887 178.982 593.466 Q181.297 594.045 183.82 594.045 Q188.218 594.045 190.51 592.309 Q192.825 590.573 192.825 587.262 Q192.825 584.207 190.672 582.494 Q188.542 580.758 184.723 580.758 L180.695 580.758 L180.695 576.915 L184.908 576.915 Q188.357 576.915 190.186 575.55 Q192.014 574.161 192.014 571.568 Q192.014 568.906 190.116 567.494 Q188.241 566.059 184.723 566.059 Q182.801 566.059 180.602 566.476 Q178.403 566.892 175.764 567.772 L175.764 563.605 Q178.426 562.864 180.741 562.494 Q183.079 562.124 185.139 562.124 Q190.463 562.124 193.565 564.554 Q196.667 566.962 196.667 571.082 Q196.667 573.952 195.024 575.943 Q193.38 577.911 190.348 578.675 Z" fill="#000000" fill-rule="evenodd" fill-opacity="1" /><path clip-path="url(#clip160)" d="M220.51 578.675 Q223.866 579.392 225.741 581.661 Q227.639 583.929 227.639 587.262 Q227.639 592.378 224.121 595.179 Q220.602 597.98 214.121 597.98 Q211.945 597.98 209.63 597.54 Q207.338 597.124 204.885 596.267 L204.885 591.753 Q206.829 592.887 209.144 593.466 Q211.459 594.045 213.982 594.045 Q218.38 594.045 220.672 592.309 Q222.986 590.573 222.986 587.262 Q222.986 584.207 220.834 582.494 Q218.704 580.758 214.885 580.758 L210.857 580.758 L210.857 576.915 L215.07 576.915 Q218.519 576.915 220.348 575.55 Q222.176 574.161 222.176 571.568 Q222.176 568.906 220.278 567.494 Q218.403 566.059 214.885 566.059 Q212.963 566.059 210.764 566.476 Q208.565 566.892 205.926 567.772 L205.926 563.605 Q208.588 562.864 210.903 562.494 Q213.241 562.124 215.301 562.124 Q220.625 562.124 223.727 564.554 Q226.829 566.962 226.829 571.082 Q226.829 573.952 225.185 575.943 Q223.542 577.911 220.51 578.675 Z" fill="#000000" fill-rule="evenodd" fill-opacity="1" /><path clip-path="url(#clip160)" d="M247.084 578.165 Q243.935 578.165 242.084 580.318 Q240.255 582.471 240.255 586.221 Q240.255 589.948 242.084 592.124 Q243.935 594.276 247.084 594.276 Q250.232 594.276 252.06 592.124 Q253.912 589.948 253.912 586.221 Q253.912 582.471 252.06 580.318 Q250.232 578.165 247.084 578.165 M256.366 563.513 L256.366 567.772 Q254.607 566.939 252.801 566.499 Q251.019 566.059 249.259 566.059 Q244.63 566.059 242.176 569.184 Q239.746 572.309 239.398 578.628 Q240.764 576.614 242.824 575.55 Q244.884 574.462 247.361 574.462 Q252.57 574.462 255.579 577.633 Q258.611 580.781 258.611 586.221 Q258.611 591.545 255.463 594.762 Q252.315 597.98 247.084 597.98 Q241.088 597.98 237.917 593.397 Q234.746 588.79 234.746 580.063 Q234.746 571.869 238.634 567.008 Q242.523 562.124 249.074 562.124 Q250.833 562.124 252.616 562.471 Q254.421 562.818 256.366 563.513 Z" fill="#000000" fill-rule="evenodd" fill-opacity="1" /><path clip-path="url(#clip160)" d="M276.667 580.897 Q273.333 580.897 271.412 582.679 Q269.514 584.462 269.514 587.587 Q269.514 590.712 271.412 592.494 Q273.333 594.276 276.667 594.276 Q280 594.276 281.921 592.494 Q283.843 590.688 283.843 587.587 Q283.843 584.462 281.921 582.679 Q280.023 580.897 276.667 580.897 M271.991 578.906 Q268.982 578.165 267.292 576.105 Q265.625 574.045 265.625 571.082 Q265.625 566.939 268.565 564.531 Q271.528 562.124 276.667 562.124 Q281.829 562.124 284.769 564.531 Q287.708 566.939 287.708 571.082 Q287.708 574.045 286.018 576.105 Q284.352 578.165 281.366 578.906 Q284.745 579.693 286.62 581.985 Q288.518 584.276 288.518 587.587 Q288.518 592.61 285.44 595.295 Q282.384 597.98 276.667 597.98 Q270.949 597.98 267.87 595.295 Q264.815 592.61 264.815 587.587 Q264.815 584.276 266.713 581.985 Q268.611 579.693 271.991 578.906 M270.278 571.522 Q270.278 574.207 271.944 575.712 Q273.634 577.216 276.667 577.216 Q279.676 577.216 281.366 575.712 Q283.079 574.207 283.079 571.522 Q283.079 568.837 281.366 567.332 Q279.676 565.827 276.667 565.827 Q273.634 565.827 271.944 567.332 Q270.278 568.837 270.278 571.522 Z" fill="#000000" fill-rule="evenodd" fill-opacity="1" /><path clip-path="url(#clip160)" d="M297.639 593.374 L305.278 593.374 L305.278 567.008 L296.968 568.675 L296.968 564.415 L305.231 562.749 L309.907 562.749 L309.907 593.374 L317.546 593.374 L317.546 597.309 L297.639 597.309 L297.639 593.374 Z" fill="#000000" fill-rule="evenodd" fill-opacity="1" /><path clip-path="url(#clip160)" d="M336.99 565.827 Q333.379 565.827 331.551 569.392 Q329.745 572.934 329.745 580.063 Q329.745 587.17 331.551 590.735 Q333.379 594.276 336.99 594.276 Q340.625 594.276 342.43 590.735 Q344.259 587.17 344.259 580.063 Q344.259 572.934 342.43 569.392 Q340.625 565.827 336.99 565.827 M336.99 562.124 Q342.801 562.124 345.856 566.73 Q348.935 571.313 348.935 580.063 Q348.935 588.79 345.856 593.397 Q342.801 597.98 336.99 597.98 Q331.18 597.98 328.102 593.397 Q325.046 588.79 325.046 580.063 Q325.046 571.313 328.102 566.73 Q331.18 562.124 336.99 562.124 Z" fill="#000000" fill-rule="evenodd" fill-opacity="1" /><path clip-path="url(#clip160)" d="M367.152 565.827 Q363.541 565.827 361.713 569.392 Q359.907 572.934 359.907 580.063 Q359.907 587.17 361.713 590.735 Q363.541 594.276 367.152 594.276 Q370.787 594.276 372.592 590.735 Q374.421 587.17 374.421 580.063 Q374.421 572.934 372.592 569.392 Q370.787 565.827 367.152 565.827 M367.152 562.124 Q372.962 562.124 376.018 566.73 Q379.097 571.313 379.097 580.063 Q379.097 588.79 376.018 593.397 Q372.962 597.98 367.152 597.98 Q361.342 597.98 358.263 593.397 Q355.208 588.79 355.208 580.063 Q355.208 571.313 358.263 566.73 Q361.342 562.124 367.152 562.124 Z" fill="#000000" fill-rule="evenodd" fill-opacity="1" /><path clip-path="url(#clip160)" d="M119.885 397.266 L136.204 397.266 L136.204 401.201 L114.26 401.201 L114.26 397.266 Q116.922 394.512 121.505 389.882 Q126.112 385.229 127.292 383.887 Q129.538 381.363 130.417 379.627 Q131.32 377.868 131.32 376.178 Q131.32 373.424 129.376 371.688 Q127.455 369.951 124.353 369.951 Q122.154 369.951 119.7 370.715 Q117.269 371.479 114.492 373.03 L114.492 368.308 Q117.316 367.174 119.769 366.595 Q122.223 366.016 124.26 366.016 Q129.63 366.016 132.825 368.701 Q136.019 371.387 136.019 375.877 Q136.019 378.007 135.209 379.928 Q134.422 381.826 132.316 384.419 Q131.737 385.09 128.635 388.308 Q125.533 391.502 119.885 397.266 Z" fill="#000000" fill-rule="evenodd" fill-opacity="1" /><path clip-path="url(#clip160)" d="M150.047 397.266 L166.366 397.266 L166.366 401.201 L144.422 401.201 L144.422 397.266 Q147.084 394.512 151.667 389.882 Q156.274 385.229 157.454 383.887 Q159.7 381.363 160.579 379.627 Q161.482 377.868 161.482 376.178 Q161.482 373.424 159.538 371.688 Q157.616 369.951 154.515 369.951 Q152.316 369.951 149.862 370.715 Q147.431 371.479 144.654 373.03 L144.654 368.308 Q147.478 367.174 149.931 366.595 Q152.385 366.016 154.422 366.016 Q159.792 366.016 162.987 368.701 Q166.181 371.387 166.181 375.877 Q166.181 378.007 165.371 379.928 Q164.584 381.826 162.477 384.419 Q161.899 385.09 158.797 388.308 Q155.695 391.502 150.047 397.266 Z" fill="#000000" fill-rule="evenodd" fill-opacity="1" /><path clip-path="url(#clip160)" d="M190.348 382.567 Q193.704 383.285 195.579 385.553 Q197.477 387.822 197.477 391.155 Q197.477 396.271 193.959 399.072 Q190.44 401.873 183.959 401.873 Q181.783 401.873 179.468 401.433 Q177.176 401.016 174.723 400.16 L174.723 395.646 Q176.667 396.78 178.982 397.359 Q181.297 397.937 183.82 397.937 Q188.218 397.937 190.51 396.201 Q192.825 394.465 192.825 391.155 Q192.825 388.1 190.672 386.387 Q188.542 384.65 184.723 384.65 L180.695 384.65 L180.695 380.808 L184.908 380.808 Q188.357 380.808 190.186 379.442 Q192.014 378.053 192.014 375.461 Q192.014 372.799 190.116 371.387 Q188.241 369.951 184.723 369.951 Q182.801 369.951 180.602 370.368 Q178.403 370.785 175.764 371.664 L175.764 367.498 Q178.426 366.757 180.741 366.387 Q183.079 366.016 185.139 366.016 Q190.463 366.016 193.565 368.447 Q196.667 370.854 196.667 374.975 Q196.667 377.845 195.024 379.836 Q193.38 381.803 190.348 382.567 Z" fill="#000000" fill-rule="evenodd" fill-opacity="1" /><path clip-path="url(#clip160)" d="M220.51 382.567 Q223.866 383.285 225.741 385.553 Q227.639 387.822 227.639 391.155 Q227.639 396.271 224.121 399.072 Q220.602 401.873 214.121 401.873 Q211.945 401.873 209.63 401.433 Q207.338 401.016 204.885 400.16 L204.885 395.646 Q206.829 396.78 209.144 397.359 Q211.459 397.937 213.982 397.937 Q218.38 397.937 220.672 396.201 Q222.986 394.465 222.986 391.155 Q222.986 388.1 220.834 386.387 Q218.704 384.65 214.885 384.65 L210.857 384.65 L210.857 380.808 L215.07 380.808 Q218.519 380.808 220.348 379.442 Q222.176 378.053 222.176 375.461 Q222.176 372.799 220.278 371.387 Q218.403 369.951 214.885 369.951 Q212.963 369.951 210.764 370.368 Q208.565 370.785 205.926 371.664 L205.926 367.498 Q208.588 366.757 210.903 366.387 Q213.241 366.016 215.301 366.016 Q220.625 366.016 223.727 368.447 Q226.829 370.854 226.829 374.975 Q226.829 377.845 225.185 379.836 Q223.542 381.803 220.51 382.567 Z" fill="#000000" fill-rule="evenodd" fill-opacity="1" /><path clip-path="url(#clip160)" d="M247.084 382.058 Q243.935 382.058 242.084 384.211 Q240.255 386.363 240.255 390.113 Q240.255 393.84 242.084 396.016 Q243.935 398.169 247.084 398.169 Q250.232 398.169 252.06 396.016 Q253.912 393.84 253.912 390.113 Q253.912 386.363 252.06 384.211 Q250.232 382.058 247.084 382.058 M256.366 367.405 L256.366 371.664 Q254.607 370.831 252.801 370.391 Q251.019 369.951 249.259 369.951 Q244.63 369.951 242.176 373.076 Q239.746 376.201 239.398 382.521 Q240.764 380.507 242.824 379.442 Q244.884 378.354 247.361 378.354 Q252.57 378.354 255.579 381.525 Q258.611 384.674 258.611 390.113 Q258.611 395.437 255.463 398.655 Q252.315 401.873 247.084 401.873 Q241.088 401.873 237.917 397.289 Q234.746 392.683 234.746 383.956 Q234.746 375.762 238.634 370.901 Q242.523 366.016 249.074 366.016 Q250.833 366.016 252.616 366.364 Q254.421 366.711 256.366 367.405 Z" fill="#000000" fill-rule="evenodd" fill-opacity="1" /><path clip-path="url(#clip160)" d="M276.667 384.789 Q273.333 384.789 271.412 386.572 Q269.514 388.354 269.514 391.479 Q269.514 394.604 271.412 396.387 Q273.333 398.169 276.667 398.169 Q280 398.169 281.921 396.387 Q283.843 394.581 283.843 391.479 Q283.843 388.354 281.921 386.572 Q280.023 384.789 276.667 384.789 M271.991 382.799 Q268.982 382.058 267.292 379.998 Q265.625 377.938 265.625 374.975 Q265.625 370.831 268.565 368.424 Q271.528 366.016 276.667 366.016 Q281.829 366.016 284.769 368.424 Q287.708 370.831 287.708 374.975 Q287.708 377.938 286.018 379.998 Q284.352 382.058 281.366 382.799 Q284.745 383.586 286.62 385.877 Q288.518 388.169 288.518 391.479 Q288.518 396.502 285.44 399.187 Q282.384 401.873 276.667 401.873 Q270.949 401.873 267.87 399.187 Q264.815 396.502 264.815 391.479 Q264.815 388.169 266.713 385.877 Q268.611 383.586 271.991 382.799 M270.278 375.414 Q270.278 378.1 271.944 379.604 Q273.634 381.109 276.667 381.109 Q279.676 381.109 281.366 379.604 Q283.079 378.1 283.079 375.414 Q283.079 372.729 281.366 371.225 Q279.676 369.72 276.667 369.72 Q273.634 369.72 271.944 371.225 Q270.278 372.729 270.278 375.414 Z" fill="#000000" fill-rule="evenodd" fill-opacity="1" /><path clip-path="url(#clip160)" d="M300.856 397.266 L317.176 397.266 L317.176 401.201 L295.231 401.201 L295.231 397.266 Q297.893 394.512 302.477 389.882 Q307.083 385.229 308.264 383.887 Q310.509 381.363 311.389 379.627 Q312.292 377.868 312.292 376.178 Q312.292 373.424 310.347 371.688 Q308.426 369.951 305.324 369.951 Q303.125 369.951 300.671 370.715 Q298.241 371.479 295.463 373.03 L295.463 368.308 Q298.287 367.174 300.741 366.595 Q303.194 366.016 305.231 366.016 Q310.602 366.016 313.796 368.701 Q316.991 371.387 316.991 375.877 Q316.991 378.007 316.18 379.928 Q315.393 381.826 313.287 384.419 Q312.708 385.09 309.606 388.308 Q306.504 391.502 300.856 397.266 Z" fill="#000000" fill-rule="evenodd" fill-opacity="1" /><path clip-path="url(#clip160)" d="M336.99 369.72 Q333.379 369.72 331.551 373.285 Q329.745 376.826 329.745 383.956 Q329.745 391.062 331.551 394.627 Q333.379 398.169 336.99 398.169 Q340.625 398.169 342.43 394.627 Q344.259 391.062 344.259 383.956 Q344.259 376.826 342.43 373.285 Q340.625 369.72 336.99 369.72 M336.99 366.016 Q342.801 366.016 345.856 370.623 Q348.935 375.206 348.935 383.956 Q348.935 392.683 345.856 397.289 Q342.801 401.873 336.99 401.873 Q331.18 401.873 328.102 397.289 Q325.046 392.683 325.046 383.956 Q325.046 375.206 328.102 370.623 Q331.18 366.016 336.99 366.016 Z" fill="#000000" fill-rule="evenodd" fill-opacity="1" /><path clip-path="url(#clip160)" d="M367.152 369.72 Q363.541 369.72 361.713 373.285 Q359.907 376.826 359.907 383.956 Q359.907 391.062 361.713 394.627 Q363.541 398.169 367.152 398.169 Q370.787 398.169 372.592 394.627 Q374.421 391.062 374.421 383.956 Q374.421 376.826 372.592 373.285 Q370.787 369.72 367.152 369.72 M367.152 366.016 Q372.962 366.016 376.018 370.623 Q379.097 375.206 379.097 383.956 Q379.097 392.683 376.018 397.289 Q372.962 401.873 367.152 401.873 Q361.342 401.873 358.263 397.289 Q355.208 392.683 355.208 383.956 Q355.208 375.206 358.263 370.623 Q361.342 366.016 367.152 366.016 Z" fill="#000000" fill-rule="evenodd" fill-opacity="1" /><path clip-path="url(#clip160)" d="M119.885 201.159 L136.204 201.159 L136.204 205.094 L114.26 205.094 L114.26 201.159 Q116.922 198.404 121.505 193.775 Q126.112 189.122 127.292 187.779 Q129.538 185.256 130.417 183.52 Q131.32 181.761 131.32 180.071 Q131.32 177.316 129.376 175.58 Q127.455 173.844 124.353 173.844 Q122.154 173.844 119.7 174.608 Q117.269 175.372 114.492 176.923 L114.492 172.201 Q117.316 171.066 119.769 170.488 Q122.223 169.909 124.26 169.909 Q129.63 169.909 132.825 172.594 Q136.019 175.279 136.019 179.77 Q136.019 181.9 135.209 183.821 Q134.422 185.719 132.316 188.312 Q131.737 188.983 128.635 192.2 Q125.533 195.395 119.885 201.159 Z" fill="#000000" fill-rule="evenodd" fill-opacity="1" /><path clip-path="url(#clip160)" d="M150.047 201.159 L166.366 201.159 L166.366 205.094 L144.422 205.094 L144.422 201.159 Q147.084 198.404 151.667 193.775 Q156.274 189.122 157.454 187.779 Q159.7 185.256 160.579 183.52 Q161.482 181.761 161.482 180.071 Q161.482 177.316 159.538 175.58 Q157.616 173.844 154.515 173.844 Q152.316 173.844 149.862 174.608 Q147.431 175.372 144.654 176.923 L144.654 172.201 Q147.478 171.066 149.931 170.488 Q152.385 169.909 154.422 169.909 Q159.792 169.909 162.987 172.594 Q166.181 175.279 166.181 179.77 Q166.181 181.9 165.371 183.821 Q164.584 185.719 162.477 188.312 Q161.899 188.983 158.797 192.2 Q155.695 195.395 150.047 201.159 Z" fill="#000000" fill-rule="evenodd" fill-opacity="1" /><path clip-path="url(#clip160)" d="M190.348 186.46 Q193.704 187.177 195.579 189.446 Q197.477 191.714 197.477 195.048 Q197.477 200.163 193.959 202.964 Q190.44 205.765 183.959 205.765 Q181.783 205.765 179.468 205.325 Q177.176 204.909 174.723 204.052 L174.723 199.538 Q176.667 200.673 178.982 201.251 Q181.297 201.83 183.82 201.83 Q188.218 201.83 190.51 200.094 Q192.825 198.358 192.825 195.048 Q192.825 191.992 190.672 190.279 Q188.542 188.543 184.723 188.543 L180.695 188.543 L180.695 184.7 L184.908 184.7 Q188.357 184.7 190.186 183.335 Q192.014 181.946 192.014 179.353 Q192.014 176.691 190.116 175.279 Q188.241 173.844 184.723 173.844 Q182.801 173.844 180.602 174.261 Q178.403 174.677 175.764 175.557 L175.764 171.39 Q178.426 170.65 180.741 170.279 Q183.079 169.909 185.139 169.909 Q190.463 169.909 193.565 172.339 Q196.667 174.747 196.667 178.867 Q196.667 181.738 195.024 183.728 Q193.38 185.696 190.348 186.46 Z" fill="#000000" fill-rule="evenodd" fill-opacity="1" /><path clip-path="url(#clip160)" d="M220.51 186.46 Q223.866 187.177 225.741 189.446 Q227.639 191.714 227.639 195.048 Q227.639 200.163 224.121 202.964 Q220.602 205.765 214.121 205.765 Q211.945 205.765 209.63 205.325 Q207.338 204.909 204.885 204.052 L204.885 199.538 Q206.829 200.673 209.144 201.251 Q211.459 201.83 213.982 201.83 Q218.38 201.83 220.672 200.094 Q222.986 198.358 222.986 195.048 Q222.986 191.992 220.834 190.279 Q218.704 188.543 214.885 188.543 L210.857 188.543 L210.857 184.7 L215.07 184.7 Q218.519 184.7 220.348 183.335 Q222.176 181.946 222.176 179.353 Q222.176 176.691 220.278 175.279 Q218.403 173.844 214.885 173.844 Q212.963 173.844 210.764 174.261 Q208.565 174.677 205.926 175.557 L205.926 171.39 Q208.588 170.65 210.903 170.279 Q213.241 169.909 215.301 169.909 Q220.625 169.909 223.727 172.339 Q226.829 174.747 226.829 178.867 Q226.829 181.738 225.185 183.728 Q223.542 185.696 220.51 186.46 Z" fill="#000000" fill-rule="evenodd" fill-opacity="1" /><path clip-path="url(#clip160)" d="M247.084 185.95 Q243.935 185.95 242.084 188.103 Q240.255 190.256 240.255 194.006 Q240.255 197.733 242.084 199.909 Q243.935 202.062 247.084 202.062 Q250.232 202.062 252.06 199.909 Q253.912 197.733 253.912 194.006 Q253.912 190.256 252.06 188.103 Q250.232 185.95 247.084 185.95 M256.366 171.298 L256.366 175.557 Q254.607 174.724 252.801 174.284 Q251.019 173.844 249.259 173.844 Q244.63 173.844 242.176 176.969 Q239.746 180.094 239.398 186.413 Q240.764 184.4 242.824 183.335 Q244.884 182.247 247.361 182.247 Q252.57 182.247 255.579 185.418 Q258.611 188.566 258.611 194.006 Q258.611 199.33 255.463 202.548 Q252.315 205.765 247.084 205.765 Q241.088 205.765 237.917 201.182 Q234.746 196.575 234.746 187.849 Q234.746 179.654 238.634 174.793 Q242.523 169.909 249.074 169.909 Q250.833 169.909 252.616 170.256 Q254.421 170.603 256.366 171.298 Z" fill="#000000" fill-rule="evenodd" fill-opacity="1" /><path clip-path="url(#clip160)" d="M276.667 188.682 Q273.333 188.682 271.412 190.464 Q269.514 192.247 269.514 195.372 Q269.514 198.497 271.412 200.279 Q273.333 202.062 276.667 202.062 Q280 202.062 281.921 200.279 Q283.843 198.474 283.843 195.372 Q283.843 192.247 281.921 190.464 Q280.023 188.682 276.667 188.682 M271.991 186.691 Q268.982 185.95 267.292 183.89 Q265.625 181.83 265.625 178.867 Q265.625 174.724 268.565 172.316 Q271.528 169.909 276.667 169.909 Q281.829 169.909 284.769 172.316 Q287.708 174.724 287.708 178.867 Q287.708 181.83 286.018 183.89 Q284.352 185.95 281.366 186.691 Q284.745 187.478 286.62 189.77 Q288.518 192.062 288.518 195.372 Q288.518 200.395 285.44 203.08 Q282.384 205.765 276.667 205.765 Q270.949 205.765 267.87 203.08 Q264.815 200.395 264.815 195.372 Q264.815 192.062 266.713 189.77 Q268.611 187.478 271.991 186.691 M270.278 179.307 Q270.278 181.992 271.944 183.497 Q273.634 185.001 276.667 185.001 Q279.676 185.001 281.366 183.497 Q283.079 181.992 283.079 179.307 Q283.079 176.622 281.366 175.117 Q279.676 173.613 276.667 173.613 Q273.634 173.613 271.944 175.117 Q270.278 176.622 270.278 179.307 Z" fill="#000000" fill-rule="evenodd" fill-opacity="1" /><path clip-path="url(#clip160)" d="M310.995 186.46 Q314.352 187.177 316.227 189.446 Q318.125 191.714 318.125 195.048 Q318.125 200.163 314.606 202.964 Q311.088 205.765 304.606 205.765 Q302.43 205.765 300.116 205.325 Q297.824 204.909 295.37 204.052 L295.37 199.538 Q297.315 200.673 299.63 201.251 Q301.944 201.83 304.467 201.83 Q308.866 201.83 311.157 200.094 Q313.472 198.358 313.472 195.048 Q313.472 191.992 311.319 190.279 Q309.19 188.543 305.37 188.543 L301.342 188.543 L301.342 184.7 L305.555 184.7 Q309.004 184.7 310.833 183.335 Q312.662 181.946 312.662 179.353 Q312.662 176.691 310.764 175.279 Q308.889 173.844 305.37 173.844 Q303.449 173.844 301.25 174.261 Q299.051 174.677 296.412 175.557 L296.412 171.39 Q299.074 170.65 301.389 170.279 Q303.727 169.909 305.787 169.909 Q311.111 169.909 314.213 172.339 Q317.315 174.747 317.315 178.867 Q317.315 181.738 315.671 183.728 Q314.028 185.696 310.995 186.46 Z" fill="#000000" fill-rule="evenodd" fill-opacity="1" /><path clip-path="url(#clip160)" d="M336.99 173.613 Q333.379 173.613 331.551 177.177 Q329.745 180.719 329.745 187.849 Q329.745 194.955 331.551 198.52 Q333.379 202.062 336.99 202.062 Q340.625 202.062 342.43 198.52 Q344.259 194.955 344.259 187.849 Q344.259 180.719 342.43 177.177 Q340.625 173.613 336.99 173.613 M336.99 169.909 Q342.801 169.909 345.856 174.515 Q348.935 179.099 348.935 187.849 Q348.935 196.575 345.856 201.182 Q342.801 205.765 336.99 205.765 Q331.18 205.765 328.102 201.182 Q325.046 196.575 325.046 187.849 Q325.046 179.099 328.102 174.515 Q331.18 169.909 336.99 169.909 Z" fill="#000000" fill-rule="evenodd" fill-opacity="1" /><path clip-path="url(#clip160)" d="M367.152 173.613 Q363.541 173.613 361.713 177.177 Q359.907 180.719 359.907 187.849 Q359.907 194.955 361.713 198.52 Q363.541 202.062 367.152 202.062 Q370.787 202.062 372.592 198.52 Q374.421 194.955 374.421 187.849 Q374.421 180.719 372.592 177.177 Q370.787 173.613 367.152 173.613 M367.152 169.909 Q372.962 169.909 376.018 174.515 Q379.097 179.099 379.097 187.849 Q379.097 196.575 376.018 201.182 Q372.962 205.765 367.152 205.765 Q361.342 205.765 358.263 201.182 Q355.208 196.575 355.208 187.849 Q355.208 179.099 358.263 174.515 Q361.342 169.909 367.152 169.909 Z" fill="#000000" fill-rule="evenodd" fill-opacity="1" /><path clip-path="url(#clip160)" d="M35.1993 829.203 Q31.2526 827.007 29.3747 823.951 Q27.4968 820.896 27.4968 816.758 Q27.4968 811.188 31.4117 808.164 Q35.2948 805.141 42.4881 805.141 L64.0042 805.141 L64.0042 811.029 L42.679 811.029 Q37.5546 811.029 35.072 812.843 Q32.5894 814.657 32.5894 818.381 Q32.5894 822.933 35.6131 825.574 Q38.6368 828.216 43.8567 828.216 L64.0042 828.216 L64.0042 834.105 L42.679 834.105 Q37.5228 834.105 35.072 835.919 Q32.5894 837.733 32.5894 841.521 Q32.5894 846.008 35.6449 848.65 Q38.6686 851.292 43.8567 851.292 L64.0042 851.292 L64.0042 857.18 L28.3562 857.18 L28.3562 851.292 L33.8944 851.292 Q30.616 849.287 29.0564 846.486 Q27.4968 843.685 27.4968 839.834 Q27.4968 835.951 29.4702 833.245 Q31.4436 830.508 35.1993 829.203 Z" fill="#000000" fill-rule="evenodd" fill-opacity="1" /><path clip-path="url(#clip160)" d="M28.3562 793.459 L28.3562 787.603 L64.0042 787.603 L64.0042 793.459 L28.3562 793.459 M14.479 793.459 L14.479 787.603 L21.895 787.603 L21.895 793.459 L14.479 793.459 Z" fill="#000000" fill-rule="evenodd" fill-opacity="1" /><path clip-path="url(#clip160)" d="M42.4881 745.717 L64.0042 745.717 L64.0042 751.573 L42.679 751.573 Q37.6183 751.573 35.1038 753.547 Q32.5894 755.52 32.5894 759.467 Q32.5894 764.209 35.6131 766.946 Q38.6368 769.684 43.8567 769.684 L64.0042 769.684 L64.0042 775.572 L28.3562 775.572 L28.3562 769.684 L33.8944 769.684 Q30.6797 767.583 29.0883 764.75 Q27.4968 761.886 27.4968 758.162 Q27.4968 752.019 31.3163 748.868 Q35.1038 745.717 42.4881 745.717 Z" fill="#000000" fill-rule="evenodd" fill-opacity="1" /><path clip-path="url(#clip160)" d="M74.8259 706.95 L79.3773 706.95 L79.3773 740.815 L74.8259 740.815 L74.8259 706.95 Z" fill="#000000" fill-rule="evenodd" fill-opacity="1" /><path clip-path="url(#clip160)" d="M33.7671 677.986 L14.479 677.986 L14.479 672.129 L64.0042 672.129 L64.0042 677.986 L58.657 677.986 Q61.8398 679.832 63.3994 682.664 Q64.9272 685.465 64.9272 689.412 Q64.9272 695.873 59.771 699.947 Q54.6147 703.989 46.212 703.989 Q37.8093 703.989 32.6531 699.947 Q27.4968 695.873 27.4968 689.412 Q27.4968 685.465 29.0564 682.664 Q30.5842 679.832 33.7671 677.986 M46.212 697.942 Q52.6732 697.942 56.3653 695.3 Q60.0256 692.627 60.0256 687.98 Q60.0256 683.333 56.3653 680.659 Q52.6732 677.986 46.212 677.986 Q39.7508 677.986 36.0905 680.659 Q32.3984 683.333 32.3984 687.98 Q32.3984 692.627 36.0905 695.3 Q39.7508 697.942 46.212 697.942 Z" fill="#000000" fill-rule="evenodd" fill-opacity="1" /><path clip-path="url(#clip160)" d="M28.3562 660.066 L28.3562 654.21 L64.0042 654.21 L64.0042 660.066 L28.3562 660.066 M14.479 660.066 L14.479 654.21 L21.895 654.21 L21.895 660.066 L14.479 660.066 Z" fill="#000000" fill-rule="evenodd" fill-opacity="1" /><path clip-path="url(#clip160)" d="M14.479 623.909 L19.3487 623.909 L19.3487 629.511 Q19.3487 632.662 20.6219 633.903 Q21.895 635.113 25.2052 635.113 L28.3562 635.113 L28.3562 625.468 L32.9077 625.468 L32.9077 635.113 L64.0042 635.113 L64.0042 641.001 L32.9077 641.001 L32.9077 646.603 L28.3562 646.603 L28.3562 641.001 L25.8736 641.001 Q19.9216 641.001 17.2162 638.232 Q14.479 635.463 14.479 629.447 L14.479 623.909 Z" fill="#000000" fill-rule="evenodd" fill-opacity="1" /><path clip-path="url(#clip160)" d="M14.479 600.961 L19.3487 600.961 L19.3487 606.562 Q19.3487 609.713 20.6219 610.955 Q21.895 612.164 25.2052 612.164 L28.3562 612.164 L28.3562 602.52 L32.9077 602.52 L32.9077 612.164 L64.0042 612.164 L64.0042 618.052 L32.9077 618.052 L32.9077 623.654 L28.3562 623.654 L28.3562 618.052 L25.8736 618.052 Q19.9216 618.052 17.2162 615.283 Q14.479 612.514 14.479 606.499 L14.479 600.961 Z" fill="#000000" fill-rule="evenodd" fill-opacity="1" /><polyline clip-path="url(#clip162)" style="stroke:#009af9; stroke-linecap:round; stroke-linejoin:round; stroke-width:20; stroke-opacity:1; fill:none" stroke-dasharray="80, 50" points="
  469.936,1215.42 892.891,1372.3 1140.3,1372.3 1315.85,1372.3 1452.01,1340.93 1563.26,1278.17 1657.32,1215.42 1738.8,1089.91 1810.67,964.399 1874.96,870.268 
  1933.12,776.136 1986.21,682.005 2035.05,556.496 2080.28,525.119 2122.37,430.987 2161.76,305.478 2198.75,274.101 2233.63,211.347 2266.62,148.592 2297.92,85.838 
  
  "/>
<path clip-path="url(#clip160)" d="
M2041.97 196.379 L2288.17 196.379 L2288.17 92.6992 L2041.97 92.6992  Z
  " fill="#ffffff" fill-rule="evenodd" fill-opacity="1"/>
<polyline clip-path="url(#clip160)" style="stroke:#000000; stroke-linecap:round; stroke-linejoin:round; stroke-width:4; stroke-opacity:1; fill:none" points="
  2041.97,196.379 2288.17,196.379 2288.17,92.6992 2041.97,92.6992 2041.97,196.379 
  "/>
<polyline clip-path="url(#clip160)" style="stroke:#009af9; stroke-linecap:round; stroke-linejoin:round; stroke-width:4; stroke-opacity:1; fill:none" stroke-dasharray="16, 10" points="
  2063.5,144.539 2192.68,144.539 
  "/>
<path clip-path="url(#clip160)" d="M2228.05 164.227 Q2226.24 168.856 2224.53 170.268 Q2222.82 171.68 2219.95 171.68 L2216.55 171.68 L2216.55 168.115 L2219.05 168.115 Q2220.8 168.115 2221.78 167.282 Q2222.75 166.449 2223.93 163.347 L2224.69 161.403 L2214.21 135.893 L2218.72 135.893 L2226.82 156.171 L2234.92 135.893 L2239.44 135.893 L2228.05 164.227 Z" fill="#000000" fill-rule="evenodd" fill-opacity="1" /><path clip-path="url(#clip160)" d="M2246.73 157.884 L2254.37 157.884 L2254.37 131.518 L2246.06 133.185 L2246.06 128.926 L2254.32 127.259 L2259 127.259 L2259 157.884 L2266.64 157.884 L2266.64 161.819 L2246.73 161.819 L2246.73 157.884 Z" fill="#000000" fill-rule="evenodd" fill-opacity="1" /></svg>
