<?xml version="1.0" encoding="utf-8"?>
<svg xmlns="http://www.w3.org/2000/svg" xmlns:xlink="http://www.w3.org/1999/xlink" width="600" height="400" viewBox="0 0 2400 1600">
<defs>
  <clipPath id="clip980">
    <rect x="0" y="0" width="2400" height="1600"/>
  </clipPath>
</defs>
<path clip-path="url(#clip980)" d="
M0 1600 L2400 1600 L2400 0 L0 0  Z
  " fill="#ffffff" fill-rule="evenodd" fill-opacity="1"/>
<defs>
  <clipPath id="clip981">
    <rect x="480" y="0" width="1681" height="1600"/>
  </clipPath>
</defs>
<path clip-path="url(#clip980)" d="
M211.579 1410.9 L2352.76 1410.9 L2352.76 47.2441 L211.579 47.2441  Z
  " fill="#ffffff" fill-rule="evenodd" fill-opacity="1"/>
<defs>
  <clipPath id="clip982">
    <rect x="211" y="47" width="2142" height="1365"/>
  </clipPath>
</defs>
<polyline clip-path="url(#clip982)" style="stroke:#000000; stroke-width:2; stroke-opacity:0.1; fill:none" points="
  272.179,1410.9 272.179,47.2441 
  "/>
<polyline clip-path="url(#clip982)" style="stroke:#000000; stroke-width:2; stroke-opacity:0.1; fill:none" points="
  676.174,1410.9 676.174,47.2441 
  "/>
<polyline clip-path="url(#clip982)" style="stroke:#000000; stroke-width:2; stroke-opacity:0.1; fill:none" points="
  1080.17,1410.9 1080.17,47.2441 
  "/>
<polyline clip-path="url(#clip982)" style="stroke:#000000; stroke-width:2; stroke-opacity:0.1; fill:none" points="
  1484.16,1410.9 1484.16,47.2441 
  "/>
<polyline clip-path="url(#clip982)" style="stroke:#000000; stroke-width:2; stroke-opacity:0.1; fill:none" points="
  1888.16,1410.9 1888.16,47.2441 
  "/>
<polyline clip-path="url(#clip982)" style="stroke:#000000; stroke-width:2; stroke-opacity:0.1; fill:none" points="
  2292.15,1410.9 2292.15,47.2441 
  "/>
<polyline clip-path="url(#clip980)" style="stroke:#000000; stroke-width:4; stroke-opacity:1; fill:none" points="
  211.579,1410.9 2352.76,1410.9 
  "/>
<polyline clip-path="url(#clip980)" style="stroke:#000000; stroke-width:4; stroke-opacity:1; fill:none" points="
  272.179,1410.9 272.179,1394.53 
  "/>
<polyline clip-path="url(#clip980)" style="stroke:#000000; stroke-width:4; stroke-opacity:1; fill:none" points="
  676.174,1410.9 676.174,1394.53 
  "/>
<polyline clip-path="url(#clip980)" style="stroke:#000000; stroke-width:4; stroke-opacity:1; fill:none" points="
  1080.17,1410.9 1080.17,1394.53 
  "/>
<polyline clip-path="url(#clip980)" style="stroke:#000000; stroke-width:4; stroke-opacity:1; fill:none" points="
  1484.16,1410.9 1484.16,1394.53 
  "/>
<polyline clip-path="url(#clip980)" style="stroke:#000000; stroke-width:4; stroke-opacity:1; fill:none" points="
  1888.16,1410.9 1888.16,1394.53 
  "/>
<polyline clip-path="url(#clip980)" style="stroke:#000000; stroke-width:4; stroke-opacity:1; fill:none" points="
  2292.15,1410.9 2292.15,1394.53 
  "/>
<path clip-path="url(#clip980)" d="M 0 0 M226.428 1489.17 L234.067 1489.17 L234.067 1462.8 L225.757 1464.47 L225.757 1460.21 L234.021 1458.54 L238.696 1458.54 L238.696 1489.17 L246.335 1489.17 L246.335 1493.1 L226.428 1493.1 L226.428 1489.17 Z" fill="#000000" fill-rule="evenodd" fill-opacity="1" /><path clip-path="url(#clip980)" d="M 0 0 M261.405 1461.62 Q257.794 1461.62 255.965 1465.19 Q254.159 1468.73 254.159 1475.86 Q254.159 1482.97 255.965 1486.53 Q257.794 1490.07 261.405 1490.07 Q265.039 1490.07 266.844 1486.53 Q268.673 1482.97 268.673 1475.86 Q268.673 1468.73 266.844 1465.19 Q265.039 1461.62 261.405 1461.62 M261.405 1457.92 Q267.215 1457.92 270.27 1462.53 Q273.349 1467.11 273.349 1475.86 Q273.349 1484.59 270.27 1489.19 Q267.215 1493.78 261.405 1493.78 Q255.594 1493.78 252.516 1489.19 Q249.46 1484.59 249.46 1475.86 Q249.46 1467.11 252.516 1462.53 Q255.594 1457.92 261.405 1457.92 Z" fill="#000000" fill-rule="evenodd" fill-opacity="1" /><path clip-path="url(#clip980)" d="M 0 0 M273.349 1452.02 L297.461 1452.02 L297.461 1455.22 L273.349 1455.22 L273.349 1452.02 Z" fill="#000000" fill-rule="evenodd" fill-opacity="1" /><path clip-path="url(#clip980)" d="M 0 0 M301.617 1437.61 L316.532 1437.61 L316.532 1440.81 L305.097 1440.81 L305.097 1447.69 Q305.924 1447.41 306.752 1447.28 Q307.579 1447.13 308.407 1447.13 Q313.109 1447.13 315.855 1449.71 Q318.601 1452.28 318.601 1456.68 Q318.601 1461.22 315.779 1463.74 Q312.958 1466.24 307.824 1466.24 Q306.056 1466.24 304.213 1465.94 Q302.388 1465.64 300.432 1465.04 L300.432 1461.22 Q302.125 1462.14 303.93 1462.59 Q305.736 1463.04 307.748 1463.04 Q311.002 1463.04 312.902 1461.33 Q314.801 1459.62 314.801 1456.68 Q314.801 1453.75 312.902 1452.04 Q311.002 1450.33 307.748 1450.33 Q306.225 1450.33 304.702 1450.67 Q303.197 1451 301.617 1451.72 L301.617 1437.61 Z" fill="#000000" fill-rule="evenodd" fill-opacity="1" /><path clip-path="url(#clip980)" d="M 0 0 M629.821 1489.17 L637.46 1489.17 L637.46 1462.8 L629.15 1464.47 L629.15 1460.21 L637.414 1458.54 L642.09 1458.54 L642.09 1489.17 L649.729 1489.17 L649.729 1493.1 L629.821 1493.1 L629.821 1489.17 Z" fill="#000000" fill-rule="evenodd" fill-opacity="1" /><path clip-path="url(#clip980)" d="M 0 0 M664.798 1461.62 Q661.187 1461.62 659.358 1465.19 Q657.553 1468.73 657.553 1475.86 Q657.553 1482.97 659.358 1486.53 Q661.187 1490.07 664.798 1490.07 Q668.432 1490.07 670.238 1486.53 Q672.067 1482.97 672.067 1475.86 Q672.067 1468.73 670.238 1465.19 Q668.432 1461.62 664.798 1461.62 M664.798 1457.92 Q670.608 1457.92 673.664 1462.53 Q676.742 1467.11 676.742 1475.86 Q676.742 1484.59 673.664 1489.19 Q670.608 1493.78 664.798 1493.78 Q658.988 1493.78 655.909 1489.19 Q652.854 1484.59 652.854 1475.86 Q652.854 1467.11 655.909 1462.53 Q658.988 1457.92 664.798 1457.92 Z" fill="#000000" fill-rule="evenodd" fill-opacity="1" /><path clip-path="url(#clip980)" d="M 0 0 M676.742 1452.02 L700.854 1452.02 L700.854 1455.22 L676.742 1455.22 L676.742 1452.02 Z" fill="#000000" fill-rule="evenodd" fill-opacity="1" /><path clip-path="url(#clip980)" d="M 0 0 M715.411 1440.92 L705.819 1455.91 L715.411 1455.91 L715.411 1440.92 M714.414 1437.61 L719.192 1437.61 L719.192 1455.91 L723.198 1455.91 L723.198 1459.07 L719.192 1459.07 L719.192 1465.69 L715.411 1465.69 L715.411 1459.07 L702.735 1459.07 L702.735 1455.41 L714.414 1437.61 Z" fill="#000000" fill-rule="evenodd" fill-opacity="1" /><path clip-path="url(#clip980)" d="M 0 0 M1034.28 1489.17 L1041.92 1489.17 L1041.92 1462.8 L1033.61 1464.47 L1033.61 1460.21 L1041.87 1458.54 L1046.55 1458.54 L1046.55 1489.17 L1054.18 1489.17 L1054.18 1493.1 L1034.28 1493.1 L1034.28 1489.17 Z" fill="#000000" fill-rule="evenodd" fill-opacity="1" /><path clip-path="url(#clip980)" d="M 0 0 M1069.25 1461.62 Q1065.64 1461.62 1063.81 1465.19 Q1062.01 1468.73 1062.01 1475.86 Q1062.01 1482.97 1063.81 1486.53 Q1065.64 1490.07 1069.25 1490.07 Q1072.89 1490.07 1074.69 1486.53 Q1076.52 1482.97 1076.52 1475.86 Q1076.52 1468.73 1074.69 1465.19 Q1072.89 1461.62 1069.25 1461.62 M1069.25 1457.92 Q1075.06 1457.92 1078.12 1462.53 Q1081.2 1467.11 1081.2 1475.86 Q1081.2 1484.59 1078.12 1489.19 Q1075.06 1493.78 1069.25 1493.78 Q1063.44 1493.78 1060.37 1489.19 Q1057.31 1484.59 1057.31 1475.86 Q1057.31 1467.11 1060.37 1462.53 Q1063.44 1457.92 1069.25 1457.92 Z" fill="#000000" fill-rule="evenodd" fill-opacity="1" /><path clip-path="url(#clip980)" d="M 0 0 M1081.2 1452.02 L1105.31 1452.02 L1105.31 1455.22 L1081.2 1455.22 L1081.2 1452.02 Z" fill="#000000" fill-rule="evenodd" fill-opacity="1" /><path clip-path="url(#clip980)" d="M 0 0 M1120.94 1450.55 Q1123.67 1451.14 1125.19 1452.98 Q1126.73 1454.82 1126.73 1457.53 Q1126.73 1461.69 1123.87 1463.96 Q1121.01 1466.24 1115.75 1466.24 Q1113.98 1466.24 1112.1 1465.88 Q1110.24 1465.54 1108.24 1464.85 L1108.24 1461.18 Q1109.82 1462.1 1111.7 1462.57 Q1113.59 1463.04 1115.64 1463.04 Q1119.21 1463.04 1121.07 1461.63 Q1122.95 1460.22 1122.95 1457.53 Q1122.95 1455.05 1121.2 1453.66 Q1119.47 1452.25 1116.37 1452.25 L1113.1 1452.25 L1113.1 1449.12 L1116.52 1449.12 Q1119.32 1449.12 1120.81 1448.01 Q1122.29 1446.89 1122.29 1444.78 Q1122.29 1442.62 1120.75 1441.47 Q1119.23 1440.3 1116.37 1440.3 Q1114.81 1440.3 1113.02 1440.64 Q1111.23 1440.98 1109.09 1441.69 L1109.09 1438.31 Q1111.25 1437.71 1113.13 1437.41 Q1115.03 1437.11 1116.71 1437.11 Q1121.03 1437.11 1123.55 1439.08 Q1126.07 1441.04 1126.07 1444.38 Q1126.07 1446.72 1124.74 1448.33 Q1123.4 1449.93 1120.94 1450.55 Z" fill="#000000" fill-rule="evenodd" fill-opacity="1" /><path clip-path="url(#clip980)" d="M 0 0 M1438.66 1489.17 L1446.3 1489.17 L1446.3 1462.8 L1437.99 1464.47 L1437.99 1460.21 L1446.25 1458.54 L1450.93 1458.54 L1450.93 1489.17 L1458.57 1489.17 L1458.57 1493.1 L1438.66 1493.1 L1438.66 1489.17 Z" fill="#000000" fill-rule="evenodd" fill-opacity="1" /><path clip-path="url(#clip980)" d="M 0 0 M1473.63 1461.62 Q1470.02 1461.62 1468.2 1465.19 Q1466.39 1468.73 1466.39 1475.86 Q1466.39 1482.97 1468.2 1486.53 Q1470.02 1490.07 1473.63 1490.07 Q1477.27 1490.07 1479.07 1486.53 Q1480.9 1482.97 1480.9 1475.86 Q1480.9 1468.73 1479.07 1465.19 Q1477.27 1461.62 1473.63 1461.62 M1473.63 1457.92 Q1479.45 1457.92 1482.5 1462.53 Q1485.58 1467.11 1485.58 1475.86 Q1485.58 1484.59 1482.5 1489.19 Q1479.45 1493.78 1473.63 1493.78 Q1467.82 1493.78 1464.75 1489.19 Q1461.69 1484.59 1461.69 1475.86 Q1461.69 1467.11 1464.75 1462.53 Q1467.82 1457.92 1473.63 1457.92 Z" fill="#000000" fill-rule="evenodd" fill-opacity="1" /><path clip-path="url(#clip980)" d="M 0 0 M1485.58 1452.02 L1509.69 1452.02 L1509.69 1455.22 L1485.58 1455.22 L1485.58 1452.02 Z" fill="#000000" fill-rule="evenodd" fill-opacity="1" /><path clip-path="url(#clip980)" d="M 0 0 M1517.08 1462.5 L1530.34 1462.5 L1530.34 1465.69 L1512.51 1465.69 L1512.51 1462.5 Q1514.67 1460.26 1518.4 1456.5 Q1522.14 1452.72 1523.1 1451.63 Q1524.93 1449.58 1525.64 1448.16 Q1526.37 1446.74 1526.37 1445.36 Q1526.37 1443.12 1524.79 1441.71 Q1523.23 1440.3 1520.71 1440.3 Q1518.93 1440.3 1516.93 1440.92 Q1514.96 1441.54 1512.7 1442.8 L1512.7 1438.97 Q1514.99 1438.05 1516.99 1437.58 Q1518.98 1437.11 1520.64 1437.11 Q1525 1437.11 1527.6 1439.29 Q1530.19 1441.47 1530.19 1445.12 Q1530.19 1446.85 1529.53 1448.41 Q1528.89 1449.95 1527.18 1452.06 Q1526.71 1452.6 1524.19 1455.22 Q1521.67 1457.81 1517.08 1462.5 Z" fill="#000000" fill-rule="evenodd" fill-opacity="1" /><path clip-path="url(#clip980)" d="M 0 0 M1842.5 1489.17 L1850.14 1489.17 L1850.14 1462.8 L1841.83 1464.47 L1841.83 1460.21 L1850.1 1458.54 L1854.77 1458.54 L1854.77 1489.17 L1862.41 1489.17 L1862.41 1493.1 L1842.5 1493.1 L1842.5 1489.17 Z" fill="#000000" fill-rule="evenodd" fill-opacity="1" /><path clip-path="url(#clip980)" d="M 0 0 M1877.48 1461.62 Q1873.87 1461.62 1872.04 1465.19 Q1870.23 1468.73 1870.23 1475.86 Q1870.23 1482.97 1872.04 1486.53 Q1873.87 1490.07 1877.48 1490.07 Q1881.11 1490.07 1882.92 1486.53 Q1884.75 1482.97 1884.75 1475.86 Q1884.75 1468.73 1882.92 1465.19 Q1881.11 1461.62 1877.48 1461.62 M1877.48 1457.92 Q1883.29 1457.92 1886.35 1462.53 Q1889.42 1467.11 1889.42 1475.86 Q1889.42 1484.59 1886.35 1489.19 Q1883.29 1493.78 1877.48 1493.78 Q1871.67 1493.78 1868.59 1489.19 Q1865.54 1484.59 1865.54 1475.86 Q1865.54 1467.11 1868.59 1462.53 Q1871.67 1457.92 1877.48 1457.92 Z" fill="#000000" fill-rule="evenodd" fill-opacity="1" /><path clip-path="url(#clip980)" d="M 0 0 M1889.42 1452.02 L1913.54 1452.02 L1913.54 1455.22 L1889.42 1455.22 L1889.42 1452.02 Z" fill="#000000" fill-rule="evenodd" fill-opacity="1" /><path clip-path="url(#clip980)" d="M 0 0 M1918.31 1462.5 L1924.52 1462.5 L1924.52 1441.07 L1917.77 1442.43 L1917.77 1438.97 L1924.48 1437.61 L1928.28 1437.61 L1928.28 1462.5 L1934.49 1462.5 L1934.49 1465.69 L1918.31 1465.69 L1918.31 1462.5 Z" fill="#000000" fill-rule="evenodd" fill-opacity="1" /><path clip-path="url(#clip980)" d="M 0 0 M2259.33 1489.17 L2266.96 1489.17 L2266.96 1462.8 L2258.65 1464.47 L2258.65 1460.21 L2266.92 1458.54 L2271.59 1458.54 L2271.59 1489.17 L2279.23 1489.17 L2279.23 1493.1 L2259.33 1493.1 L2259.33 1489.17 Z" fill="#000000" fill-rule="evenodd" fill-opacity="1" /><path clip-path="url(#clip980)" d="M 0 0 M2294.3 1461.62 Q2290.69 1461.62 2288.86 1465.19 Q2287.06 1468.73 2287.06 1475.86 Q2287.06 1482.97 2288.86 1486.53 Q2290.69 1490.07 2294.3 1490.07 Q2297.94 1490.07 2299.74 1486.53 Q2301.57 1482.97 2301.57 1475.86 Q2301.57 1468.73 2299.74 1465.19 Q2297.94 1461.62 2294.3 1461.62 M2294.3 1457.92 Q2300.11 1457.92 2303.17 1462.53 Q2306.25 1467.11 2306.25 1475.86 Q2306.25 1484.59 2303.17 1489.19 Q2300.11 1493.78 2294.3 1493.78 Q2288.49 1493.78 2285.41 1489.19 Q2282.36 1484.59 2282.36 1475.86 Q2282.36 1467.11 2285.41 1462.53 Q2288.49 1457.92 2294.3 1457.92 Z" fill="#000000" fill-rule="evenodd" fill-opacity="1" /><path clip-path="url(#clip980)" d="M 0 0 M2315.95 1440.11 Q2313.02 1440.11 2311.53 1443.01 Q2310.06 1445.89 2310.06 1451.68 Q2310.06 1457.46 2311.53 1460.35 Q2313.02 1463.23 2315.95 1463.23 Q2318.9 1463.23 2320.37 1460.35 Q2321.86 1457.46 2321.86 1451.68 Q2321.86 1445.89 2320.37 1443.01 Q2318.9 1440.11 2315.95 1440.11 M2315.95 1437.11 Q2320.67 1437.11 2323.15 1440.85 Q2325.66 1444.57 2325.66 1451.68 Q2325.66 1458.77 2323.15 1462.51 Q2320.67 1466.24 2315.95 1466.24 Q2311.23 1466.24 2308.73 1462.51 Q2306.25 1458.77 2306.25 1451.68 Q2306.25 1444.57 2308.73 1440.85 Q2311.23 1437.11 2315.95 1437.11 Z" fill="#000000" fill-rule="evenodd" fill-opacity="1" /><path clip-path="url(#clip980)" d="M 0 0 M1174.94 1526.54 L1181.14 1526.54 L1192.28 1556.46 L1203.42 1526.54 L1209.63 1526.54 L1196.26 1562.19 L1188.31 1562.19 L1174.94 1526.54 Z" fill="#000000" fill-rule="evenodd" fill-opacity="1" /><path clip-path="url(#clip980)" d="M 0 0 M1242.86 1573.01 L1242.86 1577.56 L1208.99 1577.56 L1208.99 1573.01 L1242.86 1573.01 Z" fill="#000000" fill-rule="evenodd" fill-opacity="1" /><path clip-path="url(#clip980)" d="M 0 0 M1262.82 1530.64 Q1258.11 1530.64 1255.37 1534.34 Q1252.63 1538 1252.63 1544.39 Q1252.63 1550.79 1255.34 1554.48 Q1258.07 1558.14 1262.82 1558.14 Q1267.49 1558.14 1270.23 1554.45 Q1272.97 1550.76 1272.97 1544.39 Q1272.97 1538.06 1270.23 1534.37 Q1267.49 1530.64 1262.82 1530.64 M1262.82 1525.68 Q1270.45 1525.68 1274.82 1530.64 Q1279.18 1535.61 1279.18 1544.39 Q1279.18 1553.15 1274.82 1558.14 Q1270.45 1563.11 1262.82 1563.11 Q1255.15 1563.11 1250.78 1558.14 Q1246.46 1553.15 1246.46 1544.39 Q1246.46 1535.61 1250.78 1530.64 Q1255.15 1525.68 1262.82 1525.68 Z" fill="#000000" fill-rule="evenodd" fill-opacity="1" /><path clip-path="url(#clip980)" d="M 0 0 M1290.98 1556.84 L1290.98 1575.74 L1285.1 1575.74 L1285.1 1526.54 L1290.98 1526.54 L1290.98 1531.95 Q1292.83 1528.77 1295.63 1527.24 Q1298.46 1525.68 1302.38 1525.68 Q1308.87 1525.68 1312.91 1530.83 Q1316.99 1535.99 1316.99 1544.39 Q1316.99 1552.8 1312.91 1557.95 Q1308.87 1563.11 1302.38 1563.11 Q1298.46 1563.11 1295.63 1561.58 Q1292.83 1560.02 1290.98 1556.84 M1310.91 1544.39 Q1310.91 1537.93 1308.24 1534.27 Q1305.59 1530.58 1300.95 1530.58 Q1296.3 1530.58 1293.63 1534.27 Q1290.98 1537.93 1290.98 1544.39 Q1290.98 1550.85 1293.63 1554.55 Q1296.3 1558.21 1300.95 1558.21 Q1305.59 1558.21 1308.24 1554.55 Q1310.91 1550.85 1310.91 1544.39 Z" fill="#000000" fill-rule="evenodd" fill-opacity="1" /><path clip-path="url(#clip980)" d="M 0 0 M1353.62 1542.9 L1353.62 1545.76 L1326.7 1545.76 Q1327.08 1551.81 1330.32 1554.99 Q1333.6 1558.14 1339.43 1558.14 Q1342.8 1558.14 1345.95 1557.32 Q1349.13 1556.49 1352.25 1554.83 L1352.25 1560.37 Q1349.1 1561.71 1345.79 1562.41 Q1342.48 1563.11 1339.08 1563.11 Q1330.55 1563.11 1325.55 1558.14 Q1320.58 1553.18 1320.58 1544.71 Q1320.58 1535.96 1325.3 1530.83 Q1330.04 1525.68 1338.06 1525.68 Q1345.25 1525.68 1349.42 1530.33 Q1353.62 1534.94 1353.62 1542.9 M1347.77 1541.18 Q1347.7 1536.37 1345.06 1533.51 Q1342.45 1530.64 1338.12 1530.64 Q1333.22 1530.64 1330.26 1533.41 Q1327.33 1536.18 1326.89 1541.21 L1347.77 1541.18 Z" fill="#000000" fill-rule="evenodd" fill-opacity="1" /><path clip-path="url(#clip980)" d="M 0 0 M1389.4 1540.67 L1389.4 1562.19 L1383.54 1562.19 L1383.54 1540.86 Q1383.54 1535.8 1381.57 1533.29 Q1379.59 1530.77 1375.65 1530.77 Q1370.91 1530.77 1368.17 1533.79 Q1365.43 1536.82 1365.43 1542.04 L1365.43 1562.19 L1359.54 1562.19 L1359.54 1526.54 L1365.43 1526.54 L1365.43 1532.08 Q1367.53 1528.86 1370.36 1527.27 Q1373.23 1525.68 1376.95 1525.68 Q1383.1 1525.68 1386.25 1529.5 Q1389.4 1533.29 1389.4 1540.67 Z" fill="#000000" fill-rule="evenodd" fill-opacity="1" /><polyline clip-path="url(#clip982)" style="stroke:#000000; stroke-width:2; stroke-opacity:0.1; fill:none" points="
  211.579,1262.82 2352.76,1262.82 
  "/>
<polyline clip-path="url(#clip982)" style="stroke:#000000; stroke-width:2; stroke-opacity:0.1; fill:none" points="
  211.579,1005.52 2352.76,1005.52 
  "/>
<polyline clip-path="url(#clip982)" style="stroke:#000000; stroke-width:2; stroke-opacity:0.1; fill:none" points="
  211.579,748.23 2352.76,748.23 
  "/>
<polyline clip-path="url(#clip982)" style="stroke:#000000; stroke-width:2; stroke-opacity:0.1; fill:none" points="
  211.579,490.937 2352.76,490.937 
  "/>
<polyline clip-path="url(#clip982)" style="stroke:#000000; stroke-width:2; stroke-opacity:0.1; fill:none" points="
  211.579,233.644 2352.76,233.644 
  "/>
<polyline clip-path="url(#clip980)" style="stroke:#000000; stroke-width:4; stroke-opacity:1; fill:none" points="
  211.579,1410.9 211.579,47.2441 
  "/>
<polyline clip-path="url(#clip980)" style="stroke:#000000; stroke-width:4; stroke-opacity:1; fill:none" points="
  211.579,1262.82 237.273,1262.82 
  "/>
<polyline clip-path="url(#clip980)" style="stroke:#000000; stroke-width:4; stroke-opacity:1; fill:none" points="
  211.579,1005.52 237.273,1005.52 
  "/>
<polyline clip-path="url(#clip980)" style="stroke:#000000; stroke-width:4; stroke-opacity:1; fill:none" points="
  211.579,748.23 237.273,748.23 
  "/>
<polyline clip-path="url(#clip980)" style="stroke:#000000; stroke-width:4; stroke-opacity:1; fill:none" points="
  211.579,490.937 237.273,490.937 
  "/>
<polyline clip-path="url(#clip980)" style="stroke:#000000; stroke-width:4; stroke-opacity:1; fill:none" points="
  211.579,233.644 237.273,233.644 
  "/>
<path clip-path="url(#clip980)" d="M 0 0 M128.681 1260.95 Q125.533 1260.95 123.681 1263.1 Q121.853 1265.26 121.853 1269.01 Q121.853 1272.73 123.681 1274.91 Q125.533 1277.06 128.681 1277.06 Q131.83 1277.06 133.658 1274.91 Q135.51 1272.73 135.51 1269.01 Q135.51 1265.26 133.658 1263.1 Q131.83 1260.95 128.681 1260.95 M137.964 1246.3 L137.964 1250.56 Q136.204 1249.73 134.399 1249.29 Q132.617 1248.85 130.857 1248.85 Q126.228 1248.85 123.774 1251.97 Q121.343 1255.1 120.996 1261.42 Q122.362 1259.4 124.422 1258.34 Q126.482 1257.25 128.959 1257.25 Q134.167 1257.25 137.177 1260.42 Q140.209 1263.57 140.209 1269.01 Q140.209 1274.33 137.061 1277.55 Q133.913 1280.77 128.681 1280.77 Q122.686 1280.77 119.515 1276.18 Q116.343 1271.58 116.343 1262.85 Q116.343 1254.66 120.232 1249.79 Q124.121 1244.91 130.672 1244.91 Q132.431 1244.91 134.214 1245.26 Q136.019 1245.6 137.964 1246.3 Z" fill="#000000" fill-rule="evenodd" fill-opacity="1" /><path clip-path="url(#clip980)" d="M 0 0 M145.279 1274.22 L150.163 1274.22 L150.163 1280.1 L145.279 1280.1 L145.279 1274.22 Z" fill="#000000" fill-rule="evenodd" fill-opacity="1" /><path clip-path="url(#clip980)" d="M 0 0 M159.26 1276.16 L175.579 1276.16 L175.579 1280.1 L153.635 1280.1 L153.635 1276.16 Q156.297 1273.41 160.88 1268.78 Q165.487 1264.12 166.667 1262.78 Q168.913 1260.26 169.792 1258.52 Q170.695 1256.76 170.695 1255.07 Q170.695 1252.32 168.751 1250.58 Q166.829 1248.85 163.727 1248.85 Q161.528 1248.85 159.075 1249.61 Q156.644 1250.37 153.866 1251.92 L153.866 1247.2 Q156.69 1246.07 159.144 1245.49 Q161.598 1244.91 163.635 1244.91 Q169.005 1244.91 172.2 1247.6 Q175.394 1250.28 175.394 1254.77 Q175.394 1256.9 174.584 1258.82 Q173.797 1260.72 171.69 1263.31 Q171.112 1263.98 168.01 1267.2 Q164.908 1270.4 159.26 1276.16 Z" fill="#000000" fill-rule="evenodd" fill-opacity="1" /><path clip-path="url(#clip980)" d="M 0 0 M126.598 1003.66 Q123.45 1003.66 121.598 1005.81 Q119.769 1007.96 119.769 1011.71 Q119.769 1015.44 121.598 1017.62 Q123.45 1019.77 126.598 1019.77 Q129.746 1019.77 131.575 1017.62 Q133.427 1015.44 133.427 1011.71 Q133.427 1007.96 131.575 1005.81 Q129.746 1003.66 126.598 1003.66 M135.88 989.006 L135.88 993.266 Q134.121 992.432 132.316 991.993 Q130.533 991.553 128.774 991.553 Q124.144 991.553 121.691 994.678 Q119.26 997.803 118.913 1004.12 Q120.279 1002.11 122.339 1001.04 Q124.399 999.955 126.876 999.955 Q132.084 999.955 135.093 1003.13 Q138.126 1006.27 138.126 1011.71 Q138.126 1017.04 134.978 1020.26 Q131.83 1023.47 126.598 1023.47 Q120.603 1023.47 117.431 1018.89 Q114.26 1014.28 114.26 1005.56 Q114.26 997.363 118.149 992.502 Q122.038 987.618 128.589 987.618 Q130.348 987.618 132.13 987.965 Q133.936 988.312 135.88 989.006 Z" fill="#000000" fill-rule="evenodd" fill-opacity="1" /><path clip-path="url(#clip980)" d="M 0 0 M143.195 1016.92 L148.079 1016.92 L148.079 1022.8 L143.195 1022.8 L143.195 1016.92 Z" fill="#000000" fill-rule="evenodd" fill-opacity="1" /><path clip-path="url(#clip980)" d="M 0 0 M165.996 992.317 L154.19 1010.77 L165.996 1010.77 L165.996 992.317 M164.769 988.243 L170.649 988.243 L170.649 1010.77 L175.579 1010.77 L175.579 1014.65 L170.649 1014.65 L170.649 1022.8 L165.996 1022.8 L165.996 1014.65 L150.394 1014.65 L150.394 1010.14 L164.769 988.243 Z" fill="#000000" fill-rule="evenodd" fill-opacity="1" /><path clip-path="url(#clip980)" d="M 0 0 M126.922 746.366 Q123.774 746.366 121.922 748.519 Q120.093 750.672 120.093 754.422 Q120.093 758.149 121.922 760.324 Q123.774 762.477 126.922 762.477 Q130.07 762.477 131.899 760.324 Q133.751 758.149 133.751 754.422 Q133.751 750.672 131.899 748.519 Q130.07 746.366 126.922 746.366 M136.204 731.714 L136.204 735.973 Q134.445 735.139 132.64 734.7 Q130.857 734.26 129.098 734.26 Q124.468 734.26 122.015 737.385 Q119.584 740.51 119.237 746.829 Q120.603 744.815 122.663 743.75 Q124.723 742.663 127.2 742.663 Q132.408 742.663 135.417 745.834 Q138.45 748.982 138.45 754.422 Q138.45 759.746 135.302 762.963 Q132.154 766.181 126.922 766.181 Q120.927 766.181 117.756 761.598 Q114.584 756.991 114.584 748.264 Q114.584 740.07 118.473 735.209 Q122.362 730.325 128.913 730.325 Q130.672 730.325 132.455 730.672 Q134.26 731.019 136.204 731.714 Z" fill="#000000" fill-rule="evenodd" fill-opacity="1" /><path clip-path="url(#clip980)" d="M 0 0 M143.519 759.63 L148.403 759.63 L148.403 765.51 L143.519 765.51 L143.519 759.63 Z" fill="#000000" fill-rule="evenodd" fill-opacity="1" /><path clip-path="url(#clip980)" d="M 0 0 M164.052 746.366 Q160.903 746.366 159.052 748.519 Q157.223 750.672 157.223 754.422 Q157.223 758.149 159.052 760.324 Q160.903 762.477 164.052 762.477 Q167.2 762.477 169.028 760.324 Q170.88 758.149 170.88 754.422 Q170.88 750.672 169.028 748.519 Q167.2 746.366 164.052 746.366 M173.334 731.714 L173.334 735.973 Q171.575 735.139 169.769 734.7 Q167.987 734.26 166.227 734.26 Q161.598 734.26 159.144 737.385 Q156.714 740.51 156.366 746.829 Q157.732 744.815 159.792 743.75 Q161.852 742.663 164.329 742.663 Q169.538 742.663 172.547 745.834 Q175.579 748.982 175.579 754.422 Q175.579 759.746 172.431 762.963 Q169.283 766.181 164.052 766.181 Q158.056 766.181 154.885 761.598 Q151.714 756.991 151.714 748.264 Q151.714 740.07 155.603 735.209 Q159.491 730.325 166.042 730.325 Q167.802 730.325 169.584 730.672 Q171.389 731.019 173.334 731.714 Z" fill="#000000" fill-rule="evenodd" fill-opacity="1" /><path clip-path="url(#clip980)" d="M 0 0 M127.177 489.073 Q124.029 489.073 122.177 491.226 Q120.348 493.379 120.348 497.129 Q120.348 500.856 122.177 503.032 Q124.029 505.184 127.177 505.184 Q130.325 505.184 132.154 503.032 Q134.005 500.856 134.005 497.129 Q134.005 493.379 132.154 491.226 Q130.325 489.073 127.177 489.073 M136.459 474.421 L136.459 478.68 Q134.7 477.846 132.894 477.407 Q131.112 476.967 129.353 476.967 Q124.723 476.967 122.269 480.092 Q119.839 483.217 119.492 489.536 Q120.857 487.522 122.918 486.458 Q124.978 485.37 127.455 485.37 Q132.663 485.37 135.672 488.541 Q138.704 491.689 138.704 497.129 Q138.704 502.453 135.556 505.67 Q132.408 508.888 127.177 508.888 Q121.181 508.888 118.01 504.305 Q114.839 499.698 114.839 490.971 Q114.839 482.777 118.728 477.916 Q122.617 473.032 129.167 473.032 Q130.927 473.032 132.709 473.379 Q134.515 473.726 136.459 474.421 Z" fill="#000000" fill-rule="evenodd" fill-opacity="1" /><path clip-path="url(#clip980)" d="M 0 0 M143.774 502.337 L148.658 502.337 L148.658 508.217 L143.774 508.217 L143.774 502.337 Z" fill="#000000" fill-rule="evenodd" fill-opacity="1" /><path clip-path="url(#clip980)" d="M 0 0 M163.727 491.805 Q160.394 491.805 158.473 493.587 Q156.575 495.37 156.575 498.495 Q156.575 501.62 158.473 503.402 Q160.394 505.184 163.727 505.184 Q167.061 505.184 168.982 503.402 Q170.903 501.596 170.903 498.495 Q170.903 495.37 168.982 493.587 Q167.084 491.805 163.727 491.805 M159.052 489.814 Q156.042 489.073 154.353 487.013 Q152.686 484.953 152.686 481.99 Q152.686 477.846 155.626 475.439 Q158.589 473.032 163.727 473.032 Q168.889 473.032 171.829 475.439 Q174.769 477.846 174.769 481.99 Q174.769 484.953 173.079 487.013 Q171.413 489.073 168.427 489.814 Q171.806 490.601 173.681 492.893 Q175.579 495.184 175.579 498.495 Q175.579 503.518 172.501 506.203 Q169.445 508.888 163.727 508.888 Q158.01 508.888 154.931 506.203 Q151.876 503.518 151.876 498.495 Q151.876 495.184 153.774 492.893 Q155.672 490.601 159.052 489.814 M157.339 482.43 Q157.339 485.115 159.005 486.62 Q160.695 488.124 163.727 488.124 Q166.737 488.124 168.427 486.62 Q170.139 485.115 170.139 482.43 Q170.139 479.745 168.427 478.24 Q166.737 476.735 163.727 476.735 Q160.695 476.735 159.005 478.24 Q157.339 479.745 157.339 482.43 Z" fill="#000000" fill-rule="evenodd" fill-opacity="1" /><path clip-path="url(#clip980)" d="M 0 0 M116.39 216.364 L138.612 216.364 L138.612 218.354 L126.066 250.924 L121.181 250.924 L132.987 220.299 L116.39 220.299 L116.39 216.364 Z" fill="#000000" fill-rule="evenodd" fill-opacity="1" /><path clip-path="url(#clip980)" d="M 0 0 M143.681 245.044 L148.566 245.044 L148.566 250.924 L143.681 250.924 L143.681 245.044 Z" fill="#000000" fill-rule="evenodd" fill-opacity="1" /><path clip-path="url(#clip980)" d="M 0 0 M163.635 219.442 Q160.024 219.442 158.195 223.007 Q156.39 226.549 156.39 233.678 Q156.39 240.785 158.195 244.35 Q160.024 247.891 163.635 247.891 Q167.269 247.891 169.075 244.35 Q170.903 240.785 170.903 233.678 Q170.903 226.549 169.075 223.007 Q167.269 219.442 163.635 219.442 M163.635 215.739 Q169.445 215.739 172.501 220.345 Q175.579 224.929 175.579 233.678 Q175.579 242.405 172.501 247.012 Q169.445 251.595 163.635 251.595 Q157.825 251.595 154.746 247.012 Q151.691 242.405 151.691 233.678 Q151.691 224.929 154.746 220.345 Q157.825 215.739 163.635 215.739 Z" fill="#000000" fill-rule="evenodd" fill-opacity="1" /><path clip-path="url(#clip980)" d="M 0 0 M59.1993 815.533 Q55.2526 813.336 53.3747 810.281 Q51.4968 807.225 51.4968 803.088 Q51.4968 797.518 55.4117 794.494 Q59.2948 791.47 66.4881 791.47 L88.0042 791.47 L88.0042 797.358 L66.679 797.358 Q61.5546 797.358 59.072 799.173 Q56.5894 800.987 56.5894 804.711 Q56.5894 809.262 59.6131 811.904 Q62.6368 814.546 67.8567 814.546 L88.0042 814.546 L88.0042 820.434 L66.679 820.434 Q61.5228 820.434 59.072 822.248 Q56.5894 824.063 56.5894 827.85 Q56.5894 832.338 59.6449 834.98 Q62.6686 837.622 67.8567 837.622 L88.0042 837.622 L88.0042 843.51 L52.3562 843.51 L52.3562 837.622 L57.8944 837.622 Q54.616 835.616 53.0564 832.815 Q51.4968 830.015 51.4968 826.163 Q51.4968 822.28 53.4702 819.575 Q55.4436 816.838 59.1993 815.533 Z" fill="#000000" fill-rule="evenodd" fill-opacity="1" /><path clip-path="url(#clip980)" d="M 0 0 M52.3562 785.327 L52.3562 779.471 L88.0042 779.471 L88.0042 785.327 L52.3562 785.327 M38.479 785.327 L38.479 779.471 L45.895 779.471 L45.895 785.327 L38.479 785.327 Z" fill="#000000" fill-rule="evenodd" fill-opacity="1" /><path clip-path="url(#clip980)" d="M 0 0 M66.4881 743.696 L88.0042 743.696 L88.0042 749.552 L66.679 749.552 Q61.6183 749.552 59.1038 751.525 Q56.5894 753.499 56.5894 757.446 Q56.5894 762.188 59.6131 764.925 Q62.6368 767.662 67.8567 767.662 L88.0042 767.662 L88.0042 773.551 L52.3562 773.551 L52.3562 767.662 L57.8944 767.662 Q54.6797 765.562 53.0883 762.729 Q51.4968 759.864 51.4968 756.141 Q51.4968 749.998 55.3163 746.847 Q59.1038 743.696 66.4881 743.696 Z" fill="#000000" fill-rule="evenodd" fill-opacity="1" /><path clip-path="url(#clip980)" d="M 0 0 M98.8259 710.467 L103.377 710.467 L103.377 744.332 L98.8259 744.332 L98.8259 710.467 Z" fill="#000000" fill-rule="evenodd" fill-opacity="1" /><path clip-path="url(#clip980)" d="M 0 0 M57.7671 680.866 L38.479 680.866 L38.479 675.01 L88.0042 675.01 L88.0042 680.866 L82.657 680.866 Q85.8398 682.712 87.3994 685.545 Q88.9272 688.346 88.9272 692.292 Q88.9272 698.754 83.771 702.828 Q78.6147 706.87 70.212 706.87 Q61.8093 706.87 56.6531 702.828 Q51.4968 698.754 51.4968 692.292 Q51.4968 688.346 53.0564 685.545 Q54.5842 682.712 57.7671 680.866 M70.212 700.823 Q76.6732 700.823 80.3653 698.181 Q84.0256 695.507 84.0256 690.86 Q84.0256 686.213 80.3653 683.54 Q76.6732 680.866 70.212 680.866 Q63.7508 680.866 60.0905 683.54 Q56.3984 686.213 56.3984 690.86 Q56.3984 695.507 60.0905 698.181 Q63.7508 700.823 70.212 700.823 Z" fill="#000000" fill-rule="evenodd" fill-opacity="1" /><path clip-path="url(#clip980)" d="M 0 0 M52.3562 668.867 L52.3562 663.01 L88.0042 663.01 L88.0042 668.867 L52.3562 668.867 M38.479 668.867 L38.479 663.01 L45.895 663.01 L45.895 668.867 L38.479 668.867 Z" fill="#000000" fill-rule="evenodd" fill-opacity="1" /><path clip-path="url(#clip980)" d="M 0 0 M38.479 638.821 L43.3487 638.821 L43.3487 644.422 Q43.3487 647.573 44.6219 648.815 Q45.895 650.024 49.2052 650.024 L52.3562 650.024 L52.3562 640.38 L56.9077 640.38 L56.9077 650.024 L88.0042 650.024 L88.0042 655.912 L56.9077 655.912 L56.9077 661.514 L52.3562 661.514 L52.3562 655.912 L49.8736 655.912 Q43.9216 655.912 41.2162 653.143 Q38.479 650.374 38.479 644.359 L38.479 638.821 Z" fill="#000000" fill-rule="evenodd" fill-opacity="1" /><path clip-path="url(#clip980)" d="M 0 0 M38.479 614.631 L43.3487 614.631 L43.3487 620.233 Q43.3487 623.384 44.6219 624.625 Q45.895 625.835 49.2052 625.835 L52.3562 625.835 L52.3562 616.19 L56.9077 616.19 L56.9077 625.835 L88.0042 625.835 L88.0042 631.723 L56.9077 631.723 L56.9077 637.325 L52.3562 637.325 L52.3562 631.723 L49.8736 631.723 Q43.9216 631.723 41.2162 628.954 Q38.479 626.185 38.479 620.169 L38.479 614.631 Z" fill="#000000" fill-rule="evenodd" fill-opacity="1" /><path clip-path="url(#clip980)" d="
M1992.46 213.659 L2281.38 213.659 L2281.38 92.6992 L1992.46 92.6992  Z
  " fill="#ffffff" fill-rule="evenodd" fill-opacity="1"/>
<polyline clip-path="url(#clip980)" style="stroke:#000000; stroke-width:4; stroke-opacity:1; fill:none" points="
  1992.46,213.659 2281.38,213.659 2281.38,92.6992 1992.46,92.6992 1992.46,213.659 
  "/>
<polyline clip-path="url(#clip980)" style="stroke:#009af9; stroke-width:4; stroke-opacity:1; fill:none" stroke-dasharray="16, 10" points="
  2016.25,153.179 2158.99,153.179 
  "/>
<path clip-path="url(#clip980)" d="M 0 0 M2196.63 172.867 Q2194.82 177.496 2193.11 178.908 Q2191.39 180.32 2188.52 180.32 L2185.12 180.32 L2185.12 176.755 L2187.62 176.755 Q2189.38 176.755 2190.35 175.922 Q2191.33 175.089 2192.51 171.987 L2193.27 170.043 L2182.78 144.533 L2187.3 144.533 L2195.4 164.811 L2203.5 144.533 L2208.01 144.533 L2196.63 172.867 Z" fill="#000000" fill-rule="evenodd" fill-opacity="1" /><path clip-path="url(#clip980)" d="M 0 0 M2213.89 166.524 L2221.53 166.524 L2221.53 140.158 L2213.22 141.825 L2213.22 137.566 L2221.49 135.899 L2226.16 135.899 L2226.16 166.524 L2233.8 166.524 L2233.8 170.459 L2213.89 170.459 L2213.89 166.524 Z" fill="#000000" fill-rule="evenodd" fill-opacity="1" /></svg>
