<?xml version="1.0" encoding="utf-8"?>
<svg xmlns="http://www.w3.org/2000/svg" xmlns:xlink="http://www.w3.org/1999/xlink" width="600" height="400" viewBox="0 0 2400 1600">
<defs>
  <clipPath id="clip660">
    <rect x="0" y="0" width="2400" height="1600"/>
  </clipPath>
</defs>
<path clip-path="url(#clip660)" d="
M0 1600 L2400 1600 L2400 0 L0 0  Z
  " fill="#ffffff" fill-rule="evenodd" fill-opacity="1"/>
<defs>
  <clipPath id="clip661">
    <rect x="480" y="0" width="1681" height="1600"/>
  </clipPath>
</defs>
<path clip-path="url(#clip660)" d="
M235.283 1410.9 L2352.76 1410.9 L2352.76 47.2441 L235.283 47.2441  Z
  " fill="#ffffff" fill-rule="evenodd" fill-opacity="1"/>
<defs>
  <clipPath id="clip662">
    <rect x="235" y="47" width="2118" height="1365"/>
  </clipPath>
</defs>
<polyline clip-path="url(#clip662)" style="stroke:#000000; stroke-linecap:butt; stroke-linejoin:round; stroke-width:2; stroke-opacity:0.1; fill:none" points="
  611.193,1410.9 611.193,47.2441 
  "/>
<polyline clip-path="url(#clip662)" style="stroke:#000000; stroke-linecap:butt; stroke-linejoin:round; stroke-width:2; stroke-opacity:0.1; fill:none" points="
  1660.86,1410.9 1660.86,47.2441 
  "/>
<polyline clip-path="url(#clip660)" style="stroke:#000000; stroke-linecap:butt; stroke-linejoin:round; stroke-width:4; stroke-opacity:1; fill:none" points="
  235.283,1410.9 2352.76,1410.9 
  "/>
<polyline clip-path="url(#clip660)" style="stroke:#000000; stroke-linecap:butt; stroke-linejoin:round; stroke-width:4; stroke-opacity:1; fill:none" points="
  611.193,1410.9 611.193,1392 
  "/>
<polyline clip-path="url(#clip660)" style="stroke:#000000; stroke-linecap:butt; stroke-linejoin:round; stroke-width:4; stroke-opacity:1; fill:none" points="
  1660.86,1410.9 1660.86,1392 
  "/>
<path clip-path="url(#clip660)" d="M576.176 1485.02 L583.815 1485.02 L583.815 1458.66 L575.505 1460.32 L575.505 1456.06 L583.769 1454.4 L588.445 1454.4 L588.445 1485.02 L596.084 1485.02 L596.084 1488.96 L576.176 1488.96 L576.176 1485.02 Z" fill="#000000" fill-rule="evenodd" fill-opacity="1" /><path clip-path="url(#clip660)" d="M615.528 1457.48 Q611.917 1457.48 610.088 1461.04 Q608.283 1464.58 608.283 1471.71 Q608.283 1478.82 610.088 1482.38 Q611.917 1485.92 615.528 1485.92 Q619.162 1485.92 620.968 1482.38 Q622.796 1478.82 622.796 1471.71 Q622.796 1464.58 620.968 1461.04 Q619.162 1457.48 615.528 1457.48 M615.528 1453.77 Q621.338 1453.77 624.394 1458.38 Q627.472 1462.96 627.472 1471.71 Q627.472 1480.44 624.394 1485.04 Q621.338 1489.63 615.528 1489.63 Q609.718 1489.63 606.639 1485.04 Q603.584 1480.44 603.584 1471.71 Q603.584 1462.96 606.639 1458.38 Q609.718 1453.77 615.528 1453.77 Z" fill="#000000" fill-rule="evenodd" fill-opacity="1" /><path clip-path="url(#clip660)" d="M637.177 1435.97 Q634.243 1435.97 632.757 1438.86 Q631.29 1441.74 631.29 1447.53 Q631.29 1453.31 632.757 1456.2 Q634.243 1459.08 637.177 1459.08 Q640.13 1459.08 641.597 1456.2 Q643.083 1453.31 643.083 1447.53 Q643.083 1441.74 641.597 1438.86 Q640.13 1435.97 637.177 1435.97 M637.177 1432.96 Q641.898 1432.96 644.38 1436.7 Q646.882 1440.43 646.882 1447.53 Q646.882 1454.62 644.38 1458.37 Q641.898 1462.09 637.177 1462.09 Q632.456 1462.09 629.955 1458.37 Q627.472 1454.62 627.472 1447.53 Q627.472 1440.43 629.955 1436.7 Q632.456 1432.96 637.177 1432.96 Z" fill="#000000" fill-rule="evenodd" fill-opacity="1" /><path clip-path="url(#clip660)" d="M1627.19 1485.02 L1634.83 1485.02 L1634.83 1458.66 L1626.52 1460.32 L1626.52 1456.06 L1634.78 1454.4 L1639.46 1454.4 L1639.46 1485.02 L1647.1 1485.02 L1647.1 1488.96 L1627.19 1488.96 L1627.19 1485.02 Z" fill="#000000" fill-rule="evenodd" fill-opacity="1" /><path clip-path="url(#clip660)" d="M1666.54 1457.48 Q1662.93 1457.48 1661.1 1461.04 Q1659.3 1464.58 1659.3 1471.71 Q1659.3 1478.82 1661.1 1482.38 Q1662.93 1485.92 1666.54 1485.92 Q1670.18 1485.92 1671.98 1482.38 Q1673.81 1478.82 1673.81 1471.71 Q1673.81 1464.58 1671.98 1461.04 Q1670.18 1457.48 1666.54 1457.48 M1666.54 1453.77 Q1672.35 1453.77 1675.41 1458.38 Q1678.49 1462.96 1678.49 1471.71 Q1678.49 1480.44 1675.41 1485.04 Q1672.35 1489.63 1666.54 1489.63 Q1660.73 1489.63 1657.65 1485.04 Q1654.6 1480.44 1654.6 1471.71 Q1654.6 1462.96 1657.65 1458.38 Q1660.73 1453.77 1666.54 1453.77 Z" fill="#000000" fill-rule="evenodd" fill-opacity="1" /><path clip-path="url(#clip660)" d="M1679.03 1458.35 L1685.24 1458.35 L1685.24 1436.93 L1678.49 1438.28 L1678.49 1434.82 L1685.2 1433.47 L1689 1433.47 L1689 1458.35 L1695.21 1458.35 L1695.21 1461.55 L1679.03 1461.55 L1679.03 1458.35 Z" fill="#000000" fill-rule="evenodd" fill-opacity="1" /><path clip-path="url(#clip660)" d="M1284.5 1571.99 L1284.5 1587.74 L1278.61 1587.74 L1278.61 1538.76 Q1278.61 1524.25 1292.17 1524.25 Q1305.99 1524.25 1305.99 1536.5 Q1305.99 1545.22 1300.51 1548.4 Q1309.42 1551.27 1309.42 1559.77 Q1309.42 1574.85 1294.08 1574.85 Q1287.34 1574.85 1284.5 1571.99 M1284.5 1564.35 Q1288.04 1569.86 1294.31 1569.86 Q1303.47 1569.86 1303.47 1559.86 Q1303.47 1550.89 1288.7 1551.59 L1288.7 1546.18 Q1300.26 1546.18 1300.26 1535.99 Q1300.26 1529.02 1292.81 1529.02 Q1284.5 1529.02 1284.5 1538.95 L1284.5 1564.35 Z" fill="#000000" fill-rule="evenodd" fill-opacity="1" /><polyline clip-path="url(#clip662)" style="stroke:#000000; stroke-linecap:butt; stroke-linejoin:round; stroke-width:2; stroke-opacity:0.1; fill:none" points="
  235.283,1381.73 2352.76,1381.73 
  "/>
<polyline clip-path="url(#clip662)" style="stroke:#000000; stroke-linecap:butt; stroke-linejoin:round; stroke-width:2; stroke-opacity:0.1; fill:none" points="
  235.283,1182.12 2352.76,1182.12 
  "/>
<polyline clip-path="url(#clip662)" style="stroke:#000000; stroke-linecap:butt; stroke-linejoin:round; stroke-width:2; stroke-opacity:0.1; fill:none" points="
  235.283,982.514 2352.76,982.514 
  "/>
<polyline clip-path="url(#clip662)" style="stroke:#000000; stroke-linecap:butt; stroke-linejoin:round; stroke-width:2; stroke-opacity:0.1; fill:none" points="
  235.283,782.904 2352.76,782.904 
  "/>
<polyline clip-path="url(#clip662)" style="stroke:#000000; stroke-linecap:butt; stroke-linejoin:round; stroke-width:2; stroke-opacity:0.1; fill:none" points="
  235.283,583.295 2352.76,583.295 
  "/>
<polyline clip-path="url(#clip662)" style="stroke:#000000; stroke-linecap:butt; stroke-linejoin:round; stroke-width:2; stroke-opacity:0.1; fill:none" points="
  235.283,383.686 2352.76,383.686 
  "/>
<polyline clip-path="url(#clip662)" style="stroke:#000000; stroke-linecap:butt; stroke-linejoin:round; stroke-width:2; stroke-opacity:0.1; fill:none" points="
  235.283,184.076 2352.76,184.076 
  "/>
<polyline clip-path="url(#clip660)" style="stroke:#000000; stroke-linecap:butt; stroke-linejoin:round; stroke-width:4; stroke-opacity:1; fill:none" points="
  235.283,1410.9 235.283,47.2441 
  "/>
<polyline clip-path="url(#clip660)" style="stroke:#000000; stroke-linecap:butt; stroke-linejoin:round; stroke-width:4; stroke-opacity:1; fill:none" points="
  235.283,1381.73 254.18,1381.73 
  "/>
<polyline clip-path="url(#clip660)" style="stroke:#000000; stroke-linecap:butt; stroke-linejoin:round; stroke-width:4; stroke-opacity:1; fill:none" points="
  235.283,1182.12 254.18,1182.12 
  "/>
<polyline clip-path="url(#clip660)" style="stroke:#000000; stroke-linecap:butt; stroke-linejoin:round; stroke-width:4; stroke-opacity:1; fill:none" points="
  235.283,982.514 254.18,982.514 
  "/>
<polyline clip-path="url(#clip660)" style="stroke:#000000; stroke-linecap:butt; stroke-linejoin:round; stroke-width:4; stroke-opacity:1; fill:none" points="
  235.283,782.904 254.18,782.904 
  "/>
<polyline clip-path="url(#clip660)" style="stroke:#000000; stroke-linecap:butt; stroke-linejoin:round; stroke-width:4; stroke-opacity:1; fill:none" points="
  235.283,583.295 254.18,583.295 
  "/>
<polyline clip-path="url(#clip660)" style="stroke:#000000; stroke-linecap:butt; stroke-linejoin:round; stroke-width:4; stroke-opacity:1; fill:none" points="
  235.283,383.686 254.18,383.686 
  "/>
<polyline clip-path="url(#clip660)" style="stroke:#000000; stroke-linecap:butt; stroke-linejoin:round; stroke-width:4; stroke-opacity:1; fill:none" points="
  235.283,184.076 254.18,184.076 
  "/>
<path clip-path="url(#clip660)" d="M187.338 1367.53 Q183.727 1367.53 181.899 1371.1 Q180.093 1374.64 180.093 1381.77 Q180.093 1388.87 181.899 1392.44 Q183.727 1395.98 187.338 1395.98 Q190.973 1395.98 192.778 1392.44 Q194.607 1388.87 194.607 1381.77 Q194.607 1374.64 192.778 1371.1 Q190.973 1367.53 187.338 1367.53 M187.338 1363.83 Q193.149 1363.83 196.204 1368.43 Q199.283 1373.02 199.283 1381.77 Q199.283 1390.49 196.204 1395.1 Q193.149 1399.68 187.338 1399.68 Q181.528 1399.68 178.45 1395.1 Q175.394 1390.49 175.394 1381.77 Q175.394 1373.02 178.45 1368.43 Q181.528 1363.83 187.338 1363.83 Z" fill="#000000" fill-rule="evenodd" fill-opacity="1" /><path clip-path="url(#clip660)" d="M117.825 1195.47 L125.464 1195.47 L125.464 1169.1 L117.154 1170.77 L117.154 1166.51 L125.418 1164.84 L130.093 1164.84 L130.093 1195.47 L137.732 1195.47 L137.732 1199.4 L117.825 1199.4 L117.825 1195.47 Z" fill="#000000" fill-rule="evenodd" fill-opacity="1" /><path clip-path="url(#clip660)" d="M157.177 1167.92 Q153.566 1167.92 151.737 1171.49 Q149.931 1175.03 149.931 1182.16 Q149.931 1189.26 151.737 1192.83 Q153.566 1196.37 157.177 1196.37 Q160.811 1196.37 162.616 1192.83 Q164.445 1189.26 164.445 1182.16 Q164.445 1175.03 162.616 1171.49 Q160.811 1167.92 157.177 1167.92 M157.177 1164.22 Q162.987 1164.22 166.042 1168.82 Q169.121 1173.41 169.121 1182.16 Q169.121 1190.88 166.042 1195.49 Q162.987 1200.07 157.177 1200.07 Q151.366 1200.07 148.288 1195.49 Q145.232 1190.88 145.232 1182.16 Q145.232 1173.41 148.288 1168.82 Q151.366 1164.22 157.177 1164.22 Z" fill="#000000" fill-rule="evenodd" fill-opacity="1" /><path clip-path="url(#clip660)" d="M187.338 1167.92 Q183.727 1167.92 181.899 1171.49 Q180.093 1175.03 180.093 1182.16 Q180.093 1189.26 181.899 1192.83 Q183.727 1196.37 187.338 1196.37 Q190.973 1196.37 192.778 1192.83 Q194.607 1189.26 194.607 1182.16 Q194.607 1175.03 192.778 1171.49 Q190.973 1167.92 187.338 1167.92 M187.338 1164.22 Q193.149 1164.22 196.204 1168.82 Q199.283 1173.41 199.283 1182.16 Q199.283 1190.88 196.204 1195.49 Q193.149 1200.07 187.338 1200.07 Q181.528 1200.07 178.45 1195.49 Q175.394 1190.88 175.394 1182.16 Q175.394 1173.41 178.45 1168.82 Q181.528 1164.22 187.338 1164.22 Z" fill="#000000" fill-rule="evenodd" fill-opacity="1" /><path clip-path="url(#clip660)" d="M121.043 995.859 L137.362 995.859 L137.362 999.794 L115.418 999.794 L115.418 995.859 Q118.08 993.104 122.663 988.474 Q127.269 983.822 128.45 982.479 Q130.695 979.956 131.575 978.22 Q132.478 976.461 132.478 974.771 Q132.478 972.016 130.533 970.28 Q128.612 968.544 125.51 968.544 Q123.311 968.544 120.857 969.308 Q118.427 970.072 115.649 971.623 L115.649 966.9 Q118.473 965.766 120.927 965.187 Q123.38 964.609 125.418 964.609 Q130.788 964.609 133.982 967.294 Q137.177 969.979 137.177 974.47 Q137.177 976.599 136.367 978.521 Q135.579 980.419 133.473 983.011 Q132.894 983.683 129.792 986.9 Q126.691 990.095 121.043 995.859 Z" fill="#000000" fill-rule="evenodd" fill-opacity="1" /><path clip-path="url(#clip660)" d="M157.177 968.312 Q153.566 968.312 151.737 971.877 Q149.931 975.419 149.931 982.548 Q149.931 989.655 151.737 993.22 Q153.566 996.761 157.177 996.761 Q160.811 996.761 162.616 993.22 Q164.445 989.655 164.445 982.548 Q164.445 975.419 162.616 971.877 Q160.811 968.312 157.177 968.312 M157.177 964.609 Q162.987 964.609 166.042 969.215 Q169.121 973.799 169.121 982.548 Q169.121 991.275 166.042 995.882 Q162.987 1000.47 157.177 1000.47 Q151.366 1000.47 148.288 995.882 Q145.232 991.275 145.232 982.548 Q145.232 973.799 148.288 969.215 Q151.366 964.609 157.177 964.609 Z" fill="#000000" fill-rule="evenodd" fill-opacity="1" /><path clip-path="url(#clip660)" d="M187.338 968.312 Q183.727 968.312 181.899 971.877 Q180.093 975.419 180.093 982.548 Q180.093 989.655 181.899 993.22 Q183.727 996.761 187.338 996.761 Q190.973 996.761 192.778 993.22 Q194.607 989.655 194.607 982.548 Q194.607 975.419 192.778 971.877 Q190.973 968.312 187.338 968.312 M187.338 964.609 Q193.149 964.609 196.204 969.215 Q199.283 973.799 199.283 982.548 Q199.283 991.275 196.204 995.882 Q193.149 1000.47 187.338 1000.47 Q181.528 1000.47 178.45 995.882 Q175.394 991.275 175.394 982.548 Q175.394 973.799 178.45 969.215 Q181.528 964.609 187.338 964.609 Z" fill="#000000" fill-rule="evenodd" fill-opacity="1" /><path clip-path="url(#clip660)" d="M131.181 781.55 Q134.538 782.268 136.413 784.536 Q138.311 786.805 138.311 790.138 Q138.311 795.254 134.792 798.055 Q131.274 800.856 124.793 800.856 Q122.617 800.856 120.302 800.416 Q118.01 799.999 115.556 799.143 L115.556 794.629 Q117.501 795.763 119.816 796.342 Q122.13 796.921 124.654 796.921 Q129.052 796.921 131.343 795.184 Q133.658 793.448 133.658 790.138 Q133.658 787.083 131.505 785.37 Q129.376 783.634 125.556 783.634 L121.529 783.634 L121.529 779.791 L125.742 779.791 Q129.191 779.791 131.019 778.425 Q132.848 777.036 132.848 774.444 Q132.848 771.782 130.95 770.37 Q129.075 768.935 125.556 768.935 Q123.635 768.935 121.436 769.351 Q119.237 769.768 116.598 770.648 L116.598 766.481 Q119.26 765.74 121.575 765.37 Q123.913 764.999 125.973 764.999 Q131.297 764.999 134.399 767.43 Q137.501 769.837 137.501 773.958 Q137.501 776.828 135.857 778.819 Q134.214 780.786 131.181 781.55 Z" fill="#000000" fill-rule="evenodd" fill-opacity="1" /><path clip-path="url(#clip660)" d="M157.177 768.703 Q153.566 768.703 151.737 772.268 Q149.931 775.81 149.931 782.939 Q149.931 790.046 151.737 793.61 Q153.566 797.152 157.177 797.152 Q160.811 797.152 162.616 793.61 Q164.445 790.046 164.445 782.939 Q164.445 775.81 162.616 772.268 Q160.811 768.703 157.177 768.703 M157.177 764.999 Q162.987 764.999 166.042 769.606 Q169.121 774.189 169.121 782.939 Q169.121 791.666 166.042 796.272 Q162.987 800.856 157.177 800.856 Q151.366 800.856 148.288 796.272 Q145.232 791.666 145.232 782.939 Q145.232 774.189 148.288 769.606 Q151.366 764.999 157.177 764.999 Z" fill="#000000" fill-rule="evenodd" fill-opacity="1" /><path clip-path="url(#clip660)" d="M187.338 768.703 Q183.727 768.703 181.899 772.268 Q180.093 775.81 180.093 782.939 Q180.093 790.046 181.899 793.61 Q183.727 797.152 187.338 797.152 Q190.973 797.152 192.778 793.61 Q194.607 790.046 194.607 782.939 Q194.607 775.81 192.778 772.268 Q190.973 768.703 187.338 768.703 M187.338 764.999 Q193.149 764.999 196.204 769.606 Q199.283 774.189 199.283 782.939 Q199.283 791.666 196.204 796.272 Q193.149 800.856 187.338 800.856 Q181.528 800.856 178.45 796.272 Q175.394 791.666 175.394 782.939 Q175.394 774.189 178.45 769.606 Q181.528 764.999 187.338 764.999 Z" fill="#000000" fill-rule="evenodd" fill-opacity="1" /><path clip-path="url(#clip660)" d="M129.862 570.089 L118.056 588.538 L129.862 588.538 L129.862 570.089 M128.635 566.015 L134.515 566.015 L134.515 588.538 L139.445 588.538 L139.445 592.427 L134.515 592.427 L134.515 600.575 L129.862 600.575 L129.862 592.427 L114.26 592.427 L114.26 587.913 L128.635 566.015 Z" fill="#000000" fill-rule="evenodd" fill-opacity="1" /><path clip-path="url(#clip660)" d="M157.177 569.094 Q153.566 569.094 151.737 572.659 Q149.931 576.2 149.931 583.33 Q149.931 590.436 151.737 594.001 Q153.566 597.543 157.177 597.543 Q160.811 597.543 162.616 594.001 Q164.445 590.436 164.445 583.33 Q164.445 576.2 162.616 572.659 Q160.811 569.094 157.177 569.094 M157.177 565.39 Q162.987 565.39 166.042 569.997 Q169.121 574.58 169.121 583.33 Q169.121 592.057 166.042 596.663 Q162.987 601.246 157.177 601.246 Q151.366 601.246 148.288 596.663 Q145.232 592.057 145.232 583.33 Q145.232 574.58 148.288 569.997 Q151.366 565.39 157.177 565.39 Z" fill="#000000" fill-rule="evenodd" fill-opacity="1" /><path clip-path="url(#clip660)" d="M187.338 569.094 Q183.727 569.094 181.899 572.659 Q180.093 576.2 180.093 583.33 Q180.093 590.436 181.899 594.001 Q183.727 597.543 187.338 597.543 Q190.973 597.543 192.778 594.001 Q194.607 590.436 194.607 583.33 Q194.607 576.2 192.778 572.659 Q190.973 569.094 187.338 569.094 M187.338 565.39 Q193.149 565.39 196.204 569.997 Q199.283 574.58 199.283 583.33 Q199.283 592.057 196.204 596.663 Q193.149 601.246 187.338 601.246 Q181.528 601.246 178.45 596.663 Q175.394 592.057 175.394 583.33 Q175.394 574.58 178.45 569.997 Q181.528 565.39 187.338 565.39 Z" fill="#000000" fill-rule="evenodd" fill-opacity="1" /><path clip-path="url(#clip660)" d="M117.061 366.406 L135.417 366.406 L135.417 370.341 L121.343 370.341 L121.343 378.813 Q122.362 378.466 123.38 378.304 Q124.399 378.119 125.418 378.119 Q131.205 378.119 134.584 381.29 Q137.964 384.461 137.964 389.878 Q137.964 395.456 134.492 398.558 Q131.019 401.637 124.7 401.637 Q122.524 401.637 120.255 401.267 Q118.01 400.896 115.603 400.156 L115.603 395.456 Q117.686 396.591 119.908 397.146 Q122.13 397.702 124.607 397.702 Q128.612 397.702 130.95 395.595 Q133.288 393.489 133.288 389.878 Q133.288 386.267 130.95 384.16 Q128.612 382.054 124.607 382.054 Q122.732 382.054 120.857 382.47 Q119.006 382.887 117.061 383.767 L117.061 366.406 Z" fill="#000000" fill-rule="evenodd" fill-opacity="1" /><path clip-path="url(#clip660)" d="M157.177 369.484 Q153.566 369.484 151.737 373.049 Q149.931 376.591 149.931 383.72 Q149.931 390.827 151.737 394.392 Q153.566 397.933 157.177 397.933 Q160.811 397.933 162.616 394.392 Q164.445 390.827 164.445 383.72 Q164.445 376.591 162.616 373.049 Q160.811 369.484 157.177 369.484 M157.177 365.781 Q162.987 365.781 166.042 370.387 Q169.121 374.97 169.121 383.72 Q169.121 392.447 166.042 397.054 Q162.987 401.637 157.177 401.637 Q151.366 401.637 148.288 397.054 Q145.232 392.447 145.232 383.72 Q145.232 374.97 148.288 370.387 Q151.366 365.781 157.177 365.781 Z" fill="#000000" fill-rule="evenodd" fill-opacity="1" /><path clip-path="url(#clip660)" d="M187.338 369.484 Q183.727 369.484 181.899 373.049 Q180.093 376.591 180.093 383.72 Q180.093 390.827 181.899 394.392 Q183.727 397.933 187.338 397.933 Q190.973 397.933 192.778 394.392 Q194.607 390.827 194.607 383.72 Q194.607 376.591 192.778 373.049 Q190.973 369.484 187.338 369.484 M187.338 365.781 Q193.149 365.781 196.204 370.387 Q199.283 374.97 199.283 383.72 Q199.283 392.447 196.204 397.054 Q193.149 401.637 187.338 401.637 Q181.528 401.637 178.45 397.054 Q175.394 392.447 175.394 383.72 Q175.394 374.97 178.45 370.387 Q181.528 365.781 187.338 365.781 Z" fill="#000000" fill-rule="evenodd" fill-opacity="1" /><path clip-path="url(#clip660)" d="M127.593 182.213 Q124.445 182.213 122.593 184.366 Q120.765 186.518 120.765 190.268 Q120.765 193.995 122.593 196.171 Q124.445 198.324 127.593 198.324 Q130.742 198.324 132.57 196.171 Q134.422 193.995 134.422 190.268 Q134.422 186.518 132.57 184.366 Q130.742 182.213 127.593 182.213 M136.876 167.56 L136.876 171.819 Q135.117 170.986 133.311 170.546 Q131.529 170.106 129.769 170.106 Q125.14 170.106 122.686 173.231 Q120.255 176.356 119.908 182.676 Q121.274 180.662 123.334 179.597 Q125.394 178.509 127.871 178.509 Q133.08 178.509 136.089 181.681 Q139.121 184.829 139.121 190.268 Q139.121 195.592 135.973 198.81 Q132.825 202.028 127.593 202.028 Q121.598 202.028 118.427 197.444 Q115.256 192.838 115.256 184.111 Q115.256 175.917 119.144 171.056 Q123.033 166.171 129.584 166.171 Q131.343 166.171 133.126 166.519 Q134.931 166.866 136.876 167.56 Z" fill="#000000" fill-rule="evenodd" fill-opacity="1" /><path clip-path="url(#clip660)" d="M157.177 169.875 Q153.566 169.875 151.737 173.44 Q149.931 176.981 149.931 184.111 Q149.931 191.217 151.737 194.782 Q153.566 198.324 157.177 198.324 Q160.811 198.324 162.616 194.782 Q164.445 191.217 164.445 184.111 Q164.445 176.981 162.616 173.44 Q160.811 169.875 157.177 169.875 M157.177 166.171 Q162.987 166.171 166.042 170.778 Q169.121 175.361 169.121 184.111 Q169.121 192.838 166.042 197.444 Q162.987 202.028 157.177 202.028 Q151.366 202.028 148.288 197.444 Q145.232 192.838 145.232 184.111 Q145.232 175.361 148.288 170.778 Q151.366 166.171 157.177 166.171 Z" fill="#000000" fill-rule="evenodd" fill-opacity="1" /><path clip-path="url(#clip660)" d="M187.338 169.875 Q183.727 169.875 181.899 173.44 Q180.093 176.981 180.093 184.111 Q180.093 191.217 181.899 194.782 Q183.727 198.324 187.338 198.324 Q190.973 198.324 192.778 194.782 Q194.607 191.217 194.607 184.111 Q194.607 176.981 192.778 173.44 Q190.973 169.875 187.338 169.875 M187.338 166.171 Q193.149 166.171 196.204 170.778 Q199.283 175.361 199.283 184.111 Q199.283 192.838 196.204 197.444 Q193.149 202.028 187.338 202.028 Q181.528 202.028 178.45 197.444 Q175.394 192.838 175.394 184.111 Q175.394 175.361 178.45 170.778 Q181.528 166.171 187.338 166.171 Z" fill="#000000" fill-rule="evenodd" fill-opacity="1" /><path clip-path="url(#clip660)" d="M35.1993 829.203 Q31.2526 827.007 29.3747 823.951 Q27.4968 820.896 27.4968 816.758 Q27.4968 811.188 31.4117 808.164 Q35.2948 805.141 42.4881 805.141 L64.0042 805.141 L64.0042 811.029 L42.679 811.029 Q37.5546 811.029 35.072 812.843 Q32.5894 814.657 32.5894 818.381 Q32.5894 822.933 35.6131 825.574 Q38.6368 828.216 43.8567 828.216 L64.0042 828.216 L64.0042 834.105 L42.679 834.105 Q37.5228 834.105 35.072 835.919 Q32.5894 837.733 32.5894 841.521 Q32.5894 846.008 35.6449 848.65 Q38.6686 851.292 43.8567 851.292 L64.0042 851.292 L64.0042 857.18 L28.3562 857.18 L28.3562 851.292 L33.8944 851.292 Q30.616 849.287 29.0564 846.486 Q27.4968 843.685 27.4968 839.834 Q27.4968 835.951 29.4702 833.245 Q31.4436 830.508 35.1993 829.203 Z" fill="#000000" fill-rule="evenodd" fill-opacity="1" /><path clip-path="url(#clip660)" d="M28.3562 793.459 L28.3562 787.603 L64.0042 787.603 L64.0042 793.459 L28.3562 793.459 M14.479 793.459 L14.479 787.603 L21.895 787.603 L21.895 793.459 L14.479 793.459 Z" fill="#000000" fill-rule="evenodd" fill-opacity="1" /><path clip-path="url(#clip660)" d="M42.4881 745.717 L64.0042 745.717 L64.0042 751.573 L42.679 751.573 Q37.6183 751.573 35.1038 753.547 Q32.5894 755.52 32.5894 759.467 Q32.5894 764.209 35.6131 766.946 Q38.6368 769.684 43.8567 769.684 L64.0042 769.684 L64.0042 775.572 L28.3562 775.572 L28.3562 769.684 L33.8944 769.684 Q30.6797 767.583 29.0883 764.75 Q27.4968 761.886 27.4968 758.162 Q27.4968 752.019 31.3163 748.868 Q35.1038 745.717 42.4881 745.717 Z" fill="#000000" fill-rule="evenodd" fill-opacity="1" /><path clip-path="url(#clip660)" d="M74.8259 706.95 L79.3773 706.95 L79.3773 740.815 L74.8259 740.815 L74.8259 706.95 Z" fill="#000000" fill-rule="evenodd" fill-opacity="1" /><path clip-path="url(#clip660)" d="M33.7671 677.986 L14.479 677.986 L14.479 672.129 L64.0042 672.129 L64.0042 677.986 L58.657 677.986 Q61.8398 679.832 63.3994 682.664 Q64.9272 685.465 64.9272 689.412 Q64.9272 695.873 59.771 699.947 Q54.6147 703.989 46.212 703.989 Q37.8093 703.989 32.6531 699.947 Q27.4968 695.873 27.4968 689.412 Q27.4968 685.465 29.0564 682.664 Q30.5842 679.832 33.7671 677.986 M46.212 697.942 Q52.6732 697.942 56.3653 695.3 Q60.0256 692.627 60.0256 687.98 Q60.0256 683.333 56.3653 680.659 Q52.6732 677.986 46.212 677.986 Q39.7508 677.986 36.0905 680.659 Q32.3984 683.333 32.3984 687.98 Q32.3984 692.627 36.0905 695.3 Q39.7508 697.942 46.212 697.942 Z" fill="#000000" fill-rule="evenodd" fill-opacity="1" /><path clip-path="url(#clip660)" d="M28.3562 660.066 L28.3562 654.21 L64.0042 654.21 L64.0042 660.066 L28.3562 660.066 M14.479 660.066 L14.479 654.21 L21.895 654.21 L21.895 660.066 L14.479 660.066 Z" fill="#000000" fill-rule="evenodd" fill-opacity="1" /><path clip-path="url(#clip660)" d="M14.479 623.909 L19.3487 623.909 L19.3487 629.511 Q19.3487 632.662 20.6219 633.903 Q21.895 635.113 25.2052 635.113 L28.3562 635.113 L28.3562 625.468 L32.9077 625.468 L32.9077 635.113 L64.0042 635.113 L64.0042 641.001 L32.9077 641.001 L32.9077 646.603 L28.3562 646.603 L28.3562 641.001 L25.8736 641.001 Q19.9216 641.001 17.2162 638.232 Q14.479 635.463 14.479 629.447 L14.479 623.909 Z" fill="#000000" fill-rule="evenodd" fill-opacity="1" /><path clip-path="url(#clip660)" d="M14.479 600.961 L19.3487 600.961 L19.3487 606.562 Q19.3487 609.713 20.6219 610.955 Q21.895 612.164 25.2052 612.164 L28.3562 612.164 L28.3562 602.52 L32.9077 602.52 L32.9077 612.164 L64.0042 612.164 L64.0042 618.052 L32.9077 618.052 L32.9077 623.654 L28.3562 623.654 L28.3562 618.052 L25.8736 618.052 Q19.9216 618.052 17.2162 615.283 Q14.479 612.514 14.479 606.499 L14.479 600.961 Z" fill="#000000" fill-rule="evenodd" fill-opacity="1" /><polyline clip-path="url(#clip662)" style="stroke:#009af9; stroke-linecap:butt; stroke-linejoin:round; stroke-width:20; stroke-opacity:1; fill:none" stroke-dasharray="80, 50" points="
  295.211,85.838 378.325,196.478 448.598,299.714 509.47,395.963 563.163,485.616 611.193,684.162 654.642,648.77 694.308,822.233 730.796,792.394 764.58,937.793 
  796.031,1052.23 825.452,1035.16 853.089,1019.03 879.145,1160.3 903.793,1105.64 927.176,1248.99 949.417,1245.03 970.624,1241.38 1010.29,1319.16 1028.9,1339.58 
  1046.78,1317.84 1063.98,1343.19 1080.56,1358.03 1112.01,1366.83 1141.43,1369.19 1155.46,1368.66 1169.07,1366.58 1182.29,1369.9 1195.13,1372.3 1219.77,1368.25 
  1231.62,1368.82 1243.16,1372.3 1265.4,1365.87 1286.61,1365.35 1296.85,1362.24 1326.27,1359.45 1335.67,1352.17 1344.88,1360.56 1353.91,1360.96 1362.76,1363.11 
  1379.97,1362.39 1388.33,1363.93 1396.54,1363.95 1404.61,1362.36 1428,1364.46 1450.24,1361 1457.42,1361.7 1464.48,1362.81 1471.44,1362.98 1485.05,1358.93 
  1498.27,1360.64 1511.11,1360.03 1529.72,1355.07 1535.76,1350.45 1541.72,1357.42 1547.6,1355.51 1559.14,1355.17 1564.8,1353.26 1581.38,1351.89 1586.78,1341.55 
  1602.59,1349.54 1612.83,1348.3 1617.87,1344.1 1637.48,1326.92 1642.25,1342.45 1651.65,1339.48 1656.28,1341.28 1660.86,1340.58 1669.89,1332.38 1678.74,1337.41 
  1683.1,1336.03 1695.95,1334.84 1704.31,1332.64 1712.53,1332.54 1720.59,1328.13 1732.44,1328.45 1740.16,1329.07 1743.98,1327.32 1747.76,1321.39 1766.22,1325.69 
  1773.4,1322.46 1780.47,1317.32 1787.43,1312.41 1790.87,1322.4 1797.67,1316.32 1801.03,1317.77 1814.25,1319.22 1823.91,1303.94 1827.09,1313.29 1845.7,1303.46 
  1851.74,1309.02 1854.73,1305.34 1857.7,1296.01 1863.58,1289.04 1875.12,1304.96 1880.78,1300.29 1889.15,1288.62 1897.36,1280.44 1900.07,1273.14 1902.76,1291.21 
  1905.43,1295.53 1918.57,1281.74 1928.82,1291.05 1933.85,1263.98 1946.21,1275.33 1953.46,1280.47 1958.24,1265.14 1965.3,1255.57 1967.64,1247.02 1972.26,1269.37 
  1976.85,1275.61 1985.87,1258.34 1994.72,1247.84 1996.91,1263.82 1999.09,1238.23 2011.93,1252.04 2020.29,1258.64 2022.36,1240.71 2028.51,1230.17 2030.54,1220.71 
  2036.58,1246.19 2048.42,1234.13 2056.14,1222.78 2059.96,1240.76 2073.07,1228.05 2082.2,1215.98 2087.6,1204.79 2089.38,1197.77 2096.45,1222.41 2106.85,1209.7 
  2113.65,1197.81 2117.02,1190.55 2130.23,1203.9 2138.3,1191.38 2143.07,1183.96 2144.65,1178.55 2161.68,1185.45 2167.72,1177.91 2170.71,1171.99 2191.1,1172.34 
  2195.36,1165.99 2196.77,1160.58 2218.74,1160.48 2221.41,1154.63 2244.8,1149.18 2246.06,1143.82 2269.44,1138.43 2292.83,1128.2 
  "/>
<path clip-path="url(#clip660)" d="
M1994.47 196.379 L2282.17 196.379 L2282.17 92.6992 L1994.47 92.6992  Z
  " fill="#ffffff" fill-rule="evenodd" fill-opacity="1"/>
<polyline clip-path="url(#clip660)" style="stroke:#000000; stroke-linecap:butt; stroke-linejoin:round; stroke-width:4; stroke-opacity:1; fill:none" points="
  1994.47,196.379 2282.17,196.379 2282.17,92.6992 1994.47,92.6992 1994.47,196.379 
  "/>
<polyline clip-path="url(#clip660)" style="stroke:#009af9; stroke-linecap:butt; stroke-linejoin:round; stroke-width:4; stroke-opacity:1; fill:none" stroke-dasharray="16, 10" points="
  2018,144.539 2159.16,144.539 
  "/>
<path clip-path="url(#clip660)" d="M2196.53 164.227 Q2194.73 168.856 2193.01 170.268 Q2191.3 171.68 2188.43 171.68 L2185.03 171.68 L2185.03 168.115 L2187.53 168.115 Q2189.29 168.115 2190.26 167.282 Q2191.23 166.449 2192.41 163.347 L2193.17 161.403 L2182.69 135.893 L2187.2 135.893 L2195.3 156.171 L2203.41 135.893 L2207.92 135.893 L2196.53 164.227 Z" fill="#000000" fill-rule="evenodd" fill-opacity="1" /><path clip-path="url(#clip660)" d="M2215.21 157.884 L2222.85 157.884 L2222.85 131.518 L2214.54 133.185 L2214.54 128.926 L2222.8 127.259 L2227.48 127.259 L2227.48 157.884 L2235.12 157.884 L2235.12 161.819 L2215.21 161.819 L2215.21 157.884 Z" fill="#000000" fill-rule="evenodd" fill-opacity="1" /></svg>
