<?xml version="1.0" encoding="utf-8"?>
<svg xmlns="http://www.w3.org/2000/svg" xmlns:xlink="http://www.w3.org/1999/xlink" width="600" height="400" viewBox="0 0 2400 1600">
<defs>
  <clipPath id="clip820">
    <rect x="0" y="0" width="2400" height="1600"/>
  </clipPath>
</defs>
<path clip-path="url(#clip820)" d="
M0 1600 L2400 1600 L2400 0 L0 0  Z
  " fill="#ffffff" fill-rule="evenodd" fill-opacity="1"/>
<defs>
  <clipPath id="clip821">
    <rect x="480" y="0" width="1681" height="1600"/>
  </clipPath>
</defs>
<path clip-path="url(#clip820)" d="
M234.079 1410.9 L2352.76 1410.9 L2352.76 47.2441 L234.079 47.2441  Z
  " fill="#ffffff" fill-rule="evenodd" fill-opacity="1"/>
<defs>
  <clipPath id="clip822">
    <rect x="234" y="47" width="2120" height="1365"/>
  </clipPath>
</defs>
<polyline clip-path="url(#clip822)" style="stroke:#000000; stroke-width:2; stroke-opacity:0.1; fill:none" points="
  294.042,1410.9 294.042,47.2441 
  "/>
<polyline clip-path="url(#clip822)" style="stroke:#000000; stroke-width:2; stroke-opacity:0.1; fill:none" points="
  627.167,1410.9 627.167,47.2441 
  "/>
<polyline clip-path="url(#clip822)" style="stroke:#000000; stroke-width:2; stroke-opacity:0.1; fill:none" points="
  960.292,1410.9 960.292,47.2441 
  "/>
<polyline clip-path="url(#clip822)" style="stroke:#000000; stroke-width:2; stroke-opacity:0.1; fill:none" points="
  1293.42,1410.9 1293.42,47.2441 
  "/>
<polyline clip-path="url(#clip822)" style="stroke:#000000; stroke-width:2; stroke-opacity:0.1; fill:none" points="
  1626.54,1410.9 1626.54,47.2441 
  "/>
<polyline clip-path="url(#clip822)" style="stroke:#000000; stroke-width:2; stroke-opacity:0.1; fill:none" points="
  1959.67,1410.9 1959.67,47.2441 
  "/>
<polyline clip-path="url(#clip822)" style="stroke:#000000; stroke-width:2; stroke-opacity:0.1; fill:none" points="
  2292.79,1410.9 2292.79,47.2441 
  "/>
<polyline clip-path="url(#clip820)" style="stroke:#000000; stroke-width:4; stroke-opacity:1; fill:none" points="
  234.079,1410.9 2352.76,1410.9 
  "/>
<polyline clip-path="url(#clip820)" style="stroke:#000000; stroke-width:4; stroke-opacity:1; fill:none" points="
  294.042,1410.9 294.042,1394.53 
  "/>
<polyline clip-path="url(#clip820)" style="stroke:#000000; stroke-width:4; stroke-opacity:1; fill:none" points="
  627.167,1410.9 627.167,1394.53 
  "/>
<polyline clip-path="url(#clip820)" style="stroke:#000000; stroke-width:4; stroke-opacity:1; fill:none" points="
  960.292,1410.9 960.292,1394.53 
  "/>
<polyline clip-path="url(#clip820)" style="stroke:#000000; stroke-width:4; stroke-opacity:1; fill:none" points="
  1293.42,1410.9 1293.42,1394.53 
  "/>
<polyline clip-path="url(#clip820)" style="stroke:#000000; stroke-width:4; stroke-opacity:1; fill:none" points="
  1626.54,1410.9 1626.54,1394.53 
  "/>
<polyline clip-path="url(#clip820)" style="stroke:#000000; stroke-width:4; stroke-opacity:1; fill:none" points="
  1959.67,1410.9 1959.67,1394.53 
  "/>
<polyline clip-path="url(#clip820)" style="stroke:#000000; stroke-width:4; stroke-opacity:1; fill:none" points="
  2292.79,1410.9 2292.79,1394.53 
  "/>
<path clip-path="url(#clip820)" d="M 0 0 M247.821 1489.17 L255.46 1489.17 L255.46 1462.8 L247.15 1464.47 L247.15 1460.21 L255.413 1458.54 L260.089 1458.54 L260.089 1489.17 L267.728 1489.17 L267.728 1493.1 L247.821 1493.1 L247.821 1489.17 Z" fill="#000000" fill-rule="evenodd" fill-opacity="1" /><path clip-path="url(#clip820)" d="M 0 0 M282.798 1461.62 Q279.186 1461.62 277.358 1465.19 Q275.552 1468.73 275.552 1475.86 Q275.552 1482.97 277.358 1486.53 Q279.186 1490.07 282.798 1490.07 Q286.432 1490.07 288.237 1486.53 Q290.066 1482.97 290.066 1475.86 Q290.066 1468.73 288.237 1465.19 Q286.432 1461.62 282.798 1461.62 M282.798 1457.92 Q288.608 1457.92 291.663 1462.53 Q294.742 1467.11 294.742 1475.86 Q294.742 1484.59 291.663 1489.19 Q288.608 1493.78 282.798 1493.78 Q276.987 1493.78 273.909 1489.19 Q270.853 1484.59 270.853 1475.86 Q270.853 1467.11 273.909 1462.53 Q276.987 1457.92 282.798 1457.92 Z" fill="#000000" fill-rule="evenodd" fill-opacity="1" /><path clip-path="url(#clip820)" d="M 0 0 M294.742 1452.02 L318.853 1452.02 L318.853 1455.22 L294.742 1455.22 L294.742 1452.02 Z" fill="#000000" fill-rule="evenodd" fill-opacity="1" /><path clip-path="url(#clip820)" d="M 0 0 M331.568 1450.14 Q329.01 1450.14 327.505 1451.89 Q326.019 1453.64 326.019 1456.68 Q326.019 1459.71 327.505 1461.48 Q329.01 1463.23 331.568 1463.23 Q334.125 1463.23 335.611 1461.48 Q337.116 1459.71 337.116 1456.68 Q337.116 1453.64 335.611 1451.89 Q334.125 1450.14 331.568 1450.14 M339.109 1438.23 L339.109 1441.69 Q337.68 1441.02 336.213 1440.66 Q334.765 1440.3 333.335 1440.3 Q329.574 1440.3 327.58 1442.84 Q325.605 1445.38 325.323 1450.52 Q326.433 1448.88 328.107 1448.01 Q329.781 1447.13 331.793 1447.13 Q336.025 1447.13 338.47 1449.71 Q340.934 1452.26 340.934 1456.68 Q340.934 1461.01 338.376 1463.62 Q335.818 1466.24 331.568 1466.24 Q326.696 1466.24 324.12 1462.51 Q321.543 1458.77 321.543 1451.68 Q321.543 1445.02 324.703 1441.07 Q327.862 1437.11 333.185 1437.11 Q334.614 1437.11 336.063 1437.39 Q337.53 1437.67 339.109 1438.23 Z" fill="#000000" fill-rule="evenodd" fill-opacity="1" /><path clip-path="url(#clip820)" d="M 0 0 M581.416 1489.17 L589.055 1489.17 L589.055 1462.8 L580.745 1464.47 L580.745 1460.21 L589.009 1458.54 L593.685 1458.54 L593.685 1489.17 L601.324 1489.17 L601.324 1493.1 L581.416 1493.1 L581.416 1489.17 Z" fill="#000000" fill-rule="evenodd" fill-opacity="1" /><path clip-path="url(#clip820)" d="M 0 0 M616.393 1461.62 Q612.782 1461.62 610.953 1465.19 Q609.148 1468.73 609.148 1475.86 Q609.148 1482.97 610.953 1486.53 Q612.782 1490.07 616.393 1490.07 Q620.027 1490.07 621.833 1486.53 Q623.661 1482.97 623.661 1475.86 Q623.661 1468.73 621.833 1465.19 Q620.027 1461.62 616.393 1461.62 M616.393 1457.92 Q622.203 1457.92 625.259 1462.53 Q628.337 1467.11 628.337 1475.86 Q628.337 1484.59 625.259 1489.19 Q622.203 1493.78 616.393 1493.78 Q610.583 1493.78 607.504 1489.19 Q604.449 1484.59 604.449 1475.86 Q604.449 1467.11 607.504 1462.53 Q610.583 1457.92 616.393 1457.92 Z" fill="#000000" fill-rule="evenodd" fill-opacity="1" /><path clip-path="url(#clip820)" d="M 0 0 M628.337 1452.02 L652.449 1452.02 L652.449 1455.22 L628.337 1455.22 L628.337 1452.02 Z" fill="#000000" fill-rule="evenodd" fill-opacity="1" /><path clip-path="url(#clip820)" d="M 0 0 M656.605 1437.61 L671.52 1437.61 L671.52 1440.81 L660.085 1440.81 L660.085 1447.69 Q660.912 1447.41 661.74 1447.28 Q662.568 1447.13 663.395 1447.13 Q668.097 1447.13 670.843 1449.71 Q673.589 1452.28 673.589 1456.68 Q673.589 1461.22 670.768 1463.74 Q667.947 1466.24 662.812 1466.24 Q661.044 1466.24 659.201 1465.94 Q657.377 1465.64 655.421 1465.04 L655.421 1461.22 Q657.113 1462.14 658.919 1462.59 Q660.724 1463.04 662.737 1463.04 Q665.991 1463.04 667.89 1461.33 Q669.79 1459.62 669.79 1456.68 Q669.79 1453.75 667.89 1452.04 Q665.991 1450.33 662.737 1450.33 Q661.213 1450.33 659.69 1450.67 Q658.185 1451 656.605 1451.72 L656.605 1437.61 Z" fill="#000000" fill-rule="evenodd" fill-opacity="1" /><path clip-path="url(#clip820)" d="M 0 0 M913.94 1489.17 L921.579 1489.17 L921.579 1462.8 L913.268 1464.47 L913.268 1460.21 L921.532 1458.54 L926.208 1458.54 L926.208 1489.17 L933.847 1489.17 L933.847 1493.1 L913.94 1493.1 L913.94 1489.17 Z" fill="#000000" fill-rule="evenodd" fill-opacity="1" /><path clip-path="url(#clip820)" d="M 0 0 M948.916 1461.62 Q945.305 1461.62 943.477 1465.19 Q941.671 1468.73 941.671 1475.86 Q941.671 1482.97 943.477 1486.53 Q945.305 1490.07 948.916 1490.07 Q952.551 1490.07 954.356 1486.53 Q956.185 1482.97 956.185 1475.86 Q956.185 1468.73 954.356 1465.19 Q952.551 1461.62 948.916 1461.62 M948.916 1457.92 Q954.727 1457.92 957.782 1462.53 Q960.861 1467.11 960.861 1475.86 Q960.861 1484.59 957.782 1489.19 Q954.727 1493.78 948.916 1493.78 Q943.106 1493.78 940.028 1489.19 Q936.972 1484.59 936.972 1475.86 Q936.972 1467.11 940.028 1462.53 Q943.106 1457.92 948.916 1457.92 Z" fill="#000000" fill-rule="evenodd" fill-opacity="1" /><path clip-path="url(#clip820)" d="M 0 0 M960.861 1452.02 L984.972 1452.02 L984.972 1455.22 L960.861 1455.22 L960.861 1452.02 Z" fill="#000000" fill-rule="evenodd" fill-opacity="1" /><path clip-path="url(#clip820)" d="M 0 0 M999.53 1440.92 L989.938 1455.91 L999.53 1455.91 L999.53 1440.92 M998.533 1437.61 L1003.31 1437.61 L1003.31 1455.91 L1007.32 1455.91 L1007.32 1459.07 L1003.31 1459.07 L1003.31 1465.69 L999.53 1465.69 L999.53 1459.07 L986.853 1459.07 L986.853 1455.41 L998.533 1437.61 Z" fill="#000000" fill-rule="evenodd" fill-opacity="1" /><path clip-path="url(#clip820)" d="M 0 0 M1247.53 1489.17 L1255.16 1489.17 L1255.16 1462.8 L1246.85 1464.47 L1246.85 1460.21 L1255.12 1458.54 L1259.79 1458.54 L1259.79 1489.17 L1267.43 1489.17 L1267.43 1493.1 L1247.53 1493.1 L1247.53 1489.17 Z" fill="#000000" fill-rule="evenodd" fill-opacity="1" /><path clip-path="url(#clip820)" d="M 0 0 M1282.5 1461.62 Q1278.89 1461.62 1277.06 1465.19 Q1275.26 1468.73 1275.26 1475.86 Q1275.26 1482.97 1277.06 1486.53 Q1278.89 1490.07 1282.5 1490.07 Q1286.14 1490.07 1287.94 1486.53 Q1289.77 1482.97 1289.77 1475.86 Q1289.77 1468.73 1287.94 1465.19 Q1286.14 1461.62 1282.5 1461.62 M1282.5 1457.92 Q1288.31 1457.92 1291.37 1462.53 Q1294.45 1467.11 1294.45 1475.86 Q1294.45 1484.59 1291.37 1489.19 Q1288.31 1493.78 1282.5 1493.78 Q1276.69 1493.78 1273.61 1489.19 Q1270.56 1484.59 1270.56 1475.86 Q1270.56 1467.11 1273.61 1462.53 Q1276.69 1457.92 1282.5 1457.92 Z" fill="#000000" fill-rule="evenodd" fill-opacity="1" /><path clip-path="url(#clip820)" d="M 0 0 M1294.45 1452.02 L1318.56 1452.02 L1318.56 1455.22 L1294.45 1455.22 L1294.45 1452.02 Z" fill="#000000" fill-rule="evenodd" fill-opacity="1" /><path clip-path="url(#clip820)" d="M 0 0 M1334.19 1450.55 Q1336.91 1451.14 1338.44 1452.98 Q1339.98 1454.82 1339.98 1457.53 Q1339.98 1461.69 1337.12 1463.96 Q1334.26 1466.24 1329 1466.24 Q1327.23 1466.24 1325.35 1465.88 Q1323.49 1465.54 1321.49 1464.85 L1321.49 1461.18 Q1323.07 1462.1 1324.95 1462.57 Q1326.83 1463.04 1328.88 1463.04 Q1332.46 1463.04 1334.32 1461.63 Q1336.2 1460.22 1336.2 1457.53 Q1336.2 1455.05 1334.45 1453.66 Q1332.72 1452.25 1329.62 1452.25 L1326.34 1452.25 L1326.34 1449.12 L1329.77 1449.12 Q1332.57 1449.12 1334.06 1448.01 Q1335.54 1446.89 1335.54 1444.78 Q1335.54 1442.62 1334 1441.47 Q1332.48 1440.3 1329.62 1440.3 Q1328.06 1440.3 1326.27 1440.64 Q1324.48 1440.98 1322.34 1441.69 L1322.34 1438.31 Q1324.5 1437.71 1326.38 1437.41 Q1328.28 1437.11 1329.96 1437.11 Q1334.28 1437.11 1336.8 1439.08 Q1339.32 1441.04 1339.32 1444.38 Q1339.32 1446.72 1337.99 1448.33 Q1336.65 1449.93 1334.19 1450.55 Z" fill="#000000" fill-rule="evenodd" fill-opacity="1" /><path clip-path="url(#clip820)" d="M 0 0 M1581.04 1489.17 L1588.68 1489.17 L1588.68 1462.8 L1580.37 1464.47 L1580.37 1460.21 L1588.63 1458.54 L1593.31 1458.54 L1593.31 1489.17 L1600.94 1489.17 L1600.94 1493.1 L1581.04 1493.1 L1581.04 1489.17 Z" fill="#000000" fill-rule="evenodd" fill-opacity="1" /><path clip-path="url(#clip820)" d="M 0 0 M1616.01 1461.62 Q1612.4 1461.62 1610.57 1465.19 Q1608.77 1468.73 1608.77 1475.86 Q1608.77 1482.97 1610.57 1486.53 Q1612.4 1490.07 1616.01 1490.07 Q1619.65 1490.07 1621.45 1486.53 Q1623.28 1482.97 1623.28 1475.86 Q1623.28 1468.73 1621.45 1465.19 Q1619.65 1461.62 1616.01 1461.62 M1616.01 1457.92 Q1621.82 1457.92 1624.88 1462.53 Q1627.96 1467.11 1627.96 1475.86 Q1627.96 1484.59 1624.88 1489.19 Q1621.82 1493.78 1616.01 1493.78 Q1610.2 1493.78 1607.12 1489.19 Q1604.07 1484.59 1604.07 1475.86 Q1604.07 1467.11 1607.12 1462.53 Q1610.2 1457.92 1616.01 1457.92 Z" fill="#000000" fill-rule="evenodd" fill-opacity="1" /><path clip-path="url(#clip820)" d="M 0 0 M1627.96 1452.02 L1652.07 1452.02 L1652.07 1455.22 L1627.96 1455.22 L1627.96 1452.02 Z" fill="#000000" fill-rule="evenodd" fill-opacity="1" /><path clip-path="url(#clip820)" d="M 0 0 M1659.46 1462.5 L1672.72 1462.5 L1672.72 1465.69 L1654.89 1465.69 L1654.89 1462.5 Q1657.05 1460.26 1660.78 1456.5 Q1664.52 1452.72 1665.48 1451.63 Q1667.3 1449.58 1668.02 1448.16 Q1668.75 1446.74 1668.75 1445.36 Q1668.75 1443.12 1667.17 1441.71 Q1665.61 1440.3 1663.09 1440.3 Q1661.3 1440.3 1659.31 1440.92 Q1657.34 1441.54 1655.08 1442.8 L1655.08 1438.97 Q1657.37 1438.05 1659.37 1437.58 Q1661.36 1437.11 1663.02 1437.11 Q1667.38 1437.11 1669.97 1439.29 Q1672.57 1441.47 1672.57 1445.12 Q1672.57 1446.85 1671.91 1448.41 Q1671.27 1449.95 1669.56 1452.06 Q1669.09 1452.6 1666.57 1455.22 Q1664.05 1457.81 1659.46 1462.5 Z" fill="#000000" fill-rule="evenodd" fill-opacity="1" /><path clip-path="url(#clip820)" d="M 0 0 M1914.01 1489.17 L1921.65 1489.17 L1921.65 1462.8 L1913.34 1464.47 L1913.34 1460.21 L1921.6 1458.54 L1926.28 1458.54 L1926.28 1489.17 L1933.92 1489.17 L1933.92 1493.1 L1914.01 1493.1 L1914.01 1489.17 Z" fill="#000000" fill-rule="evenodd" fill-opacity="1" /><path clip-path="url(#clip820)" d="M 0 0 M1948.99 1461.62 Q1945.38 1461.62 1943.55 1465.19 Q1941.74 1468.73 1941.74 1475.86 Q1941.74 1482.97 1943.55 1486.53 Q1945.38 1490.07 1948.99 1490.07 Q1952.62 1490.07 1954.43 1486.53 Q1956.26 1482.97 1956.26 1475.86 Q1956.26 1468.73 1954.43 1465.19 Q1952.62 1461.62 1948.99 1461.62 M1948.99 1457.92 Q1954.8 1457.92 1957.85 1462.53 Q1960.93 1467.11 1960.93 1475.86 Q1960.93 1484.59 1957.85 1489.19 Q1954.8 1493.78 1948.99 1493.78 Q1943.18 1493.78 1940.1 1489.19 Q1937.04 1484.59 1937.04 1475.86 Q1937.04 1467.11 1940.1 1462.53 Q1943.18 1457.92 1948.99 1457.92 Z" fill="#000000" fill-rule="evenodd" fill-opacity="1" /><path clip-path="url(#clip820)" d="M 0 0 M1960.93 1452.02 L1985.04 1452.02 L1985.04 1455.22 L1960.93 1455.22 L1960.93 1452.02 Z" fill="#000000" fill-rule="evenodd" fill-opacity="1" /><path clip-path="url(#clip820)" d="M 0 0 M1989.82 1462.5 L1996.03 1462.5 L1996.03 1441.07 L1989.28 1442.43 L1989.28 1438.97 L1995.99 1437.61 L1999.79 1437.61 L1999.79 1462.5 L2006 1462.5 L2006 1465.69 L1989.82 1465.69 L1989.82 1462.5 Z" fill="#000000" fill-rule="evenodd" fill-opacity="1" /><path clip-path="url(#clip820)" d="M 0 0 M2259.96 1489.17 L2267.6 1489.17 L2267.6 1462.8 L2259.29 1464.47 L2259.29 1460.21 L2267.56 1458.54 L2272.23 1458.54 L2272.23 1489.17 L2279.87 1489.17 L2279.87 1493.1 L2259.96 1493.1 L2259.96 1489.17 Z" fill="#000000" fill-rule="evenodd" fill-opacity="1" /><path clip-path="url(#clip820)" d="M 0 0 M2294.94 1461.62 Q2291.33 1461.62 2289.5 1465.19 Q2287.69 1468.73 2287.69 1475.86 Q2287.69 1482.97 2289.5 1486.53 Q2291.33 1490.07 2294.94 1490.07 Q2298.57 1490.07 2300.38 1486.53 Q2302.21 1482.97 2302.21 1475.86 Q2302.21 1468.73 2300.38 1465.19 Q2298.57 1461.62 2294.94 1461.62 M2294.94 1457.92 Q2300.75 1457.92 2303.81 1462.53 Q2306.88 1467.11 2306.88 1475.86 Q2306.88 1484.59 2303.81 1489.19 Q2300.75 1493.78 2294.94 1493.78 Q2289.13 1493.78 2286.05 1489.19 Q2283 1484.59 2283 1475.86 Q2283 1467.11 2286.05 1462.53 Q2289.13 1457.92 2294.94 1457.92 Z" fill="#000000" fill-rule="evenodd" fill-opacity="1" /><path clip-path="url(#clip820)" d="M 0 0 M2316.59 1440.11 Q2313.66 1440.11 2312.17 1443.01 Q2310.7 1445.89 2310.7 1451.68 Q2310.7 1457.46 2312.17 1460.35 Q2313.66 1463.23 2316.59 1463.23 Q2319.54 1463.23 2321.01 1460.35 Q2322.5 1457.46 2322.5 1451.68 Q2322.5 1445.89 2321.01 1443.01 Q2319.54 1440.11 2316.59 1440.11 M2316.59 1437.11 Q2321.31 1437.11 2323.79 1440.85 Q2326.29 1444.57 2326.29 1451.68 Q2326.29 1458.77 2323.79 1462.51 Q2321.31 1466.24 2316.59 1466.24 Q2311.87 1466.24 2309.37 1462.51 Q2306.88 1458.77 2306.88 1451.68 Q2306.88 1444.57 2309.37 1440.85 Q2311.87 1437.11 2316.59 1437.11 Z" fill="#000000" fill-rule="evenodd" fill-opacity="1" /><path clip-path="url(#clip820)" d="M 0 0 M1218.64 1512.66 L1224.52 1512.66 L1224.52 1541.91 L1242 1526.54 L1249.48 1526.54 L1230.57 1543.22 L1250.27 1562.19 L1242.64 1562.19 L1224.52 1544.78 L1224.52 1562.19 L1218.64 1562.19 L1218.64 1512.66 Z" fill="#000000" fill-rule="evenodd" fill-opacity="1" /><path clip-path="url(#clip820)" d="M 0 0 M1283.5 1573.01 L1283.5 1577.56 L1249.64 1577.56 L1249.64 1573.01 L1283.5 1573.01 Z" fill="#000000" fill-rule="evenodd" fill-opacity="1" /><path clip-path="url(#clip820)" d="M 0 0 M1303.46 1530.64 Q1298.75 1530.64 1296.01 1534.34 Q1293.27 1538 1293.27 1544.39 Q1293.27 1550.79 1295.98 1554.48 Q1298.72 1558.14 1303.46 1558.14 Q1308.14 1558.14 1310.88 1554.45 Q1313.61 1550.76 1313.61 1544.39 Q1313.61 1538.06 1310.88 1534.37 Q1308.14 1530.64 1303.46 1530.64 M1303.46 1525.68 Q1311.1 1525.68 1315.46 1530.64 Q1319.82 1535.61 1319.82 1544.39 Q1319.82 1553.15 1315.46 1558.14 Q1311.1 1563.11 1303.46 1563.11 Q1295.79 1563.11 1291.43 1558.14 Q1287.1 1553.15 1287.1 1544.39 Q1287.1 1535.61 1291.43 1530.64 Q1295.79 1525.68 1303.46 1525.68 Z" fill="#000000" fill-rule="evenodd" fill-opacity="1" /><path clip-path="url(#clip820)" d="M 0 0 M1344.01 1512.66 L1344.01 1517.53 L1338.41 1517.53 Q1335.26 1517.53 1334.01 1518.8 Q1332.81 1520.08 1332.81 1523.39 L1332.81 1526.54 L1342.45 1526.54 L1342.45 1531.09 L1332.81 1531.09 L1332.81 1562.19 L1326.92 1562.19 L1326.92 1531.09 L1321.32 1531.09 L1321.32 1526.54 L1326.92 1526.54 L1326.92 1524.05 Q1326.92 1518.1 1329.69 1515.4 Q1332.46 1512.66 1338.47 1512.66 L1344.01 1512.66 Z" fill="#000000" fill-rule="evenodd" fill-opacity="1" /><path clip-path="url(#clip820)" d="M 0 0 M1368.2 1512.66 L1368.2 1517.53 L1362.6 1517.53 Q1359.45 1517.53 1358.2 1518.8 Q1357 1520.08 1357 1523.39 L1357 1526.54 L1366.64 1526.54 L1366.64 1531.09 L1357 1531.09 L1357 1562.19 L1351.11 1562.19 L1351.11 1531.09 L1345.5 1531.09 L1345.5 1526.54 L1351.11 1526.54 L1351.11 1524.05 Q1351.11 1518.1 1353.88 1515.4 Q1356.64 1512.66 1362.66 1512.66 L1368.2 1512.66 Z" fill="#000000" fill-rule="evenodd" fill-opacity="1" /><polyline clip-path="url(#clip822)" style="stroke:#000000; stroke-width:2; stroke-opacity:0.1; fill:none" points="
  234.079,1171.19 2352.76,1171.19 
  "/>
<polyline clip-path="url(#clip822)" style="stroke:#000000; stroke-width:2; stroke-opacity:0.1; fill:none" points="
  234.079,913.894 2352.76,913.894 
  "/>
<polyline clip-path="url(#clip822)" style="stroke:#000000; stroke-width:2; stroke-opacity:0.1; fill:none" points="
  234.079,656.601 2352.76,656.601 
  "/>
<polyline clip-path="url(#clip822)" style="stroke:#000000; stroke-width:2; stroke-opacity:0.1; fill:none" points="
  234.079,399.308 2352.76,399.308 
  "/>
<polyline clip-path="url(#clip822)" style="stroke:#000000; stroke-width:2; stroke-opacity:0.1; fill:none" points="
  234.079,142.015 2352.76,142.015 
  "/>
<polyline clip-path="url(#clip820)" style="stroke:#000000; stroke-width:4; stroke-opacity:1; fill:none" points="
  234.079,1410.9 234.079,47.2441 
  "/>
<polyline clip-path="url(#clip820)" style="stroke:#000000; stroke-width:4; stroke-opacity:1; fill:none" points="
  234.079,1171.19 259.503,1171.19 
  "/>
<polyline clip-path="url(#clip820)" style="stroke:#000000; stroke-width:4; stroke-opacity:1; fill:none" points="
  234.079,913.894 259.503,913.894 
  "/>
<polyline clip-path="url(#clip820)" style="stroke:#000000; stroke-width:4; stroke-opacity:1; fill:none" points="
  234.079,656.601 259.503,656.601 
  "/>
<polyline clip-path="url(#clip820)" style="stroke:#000000; stroke-width:4; stroke-opacity:1; fill:none" points="
  234.079,399.308 259.503,399.308 
  "/>
<polyline clip-path="url(#clip820)" style="stroke:#000000; stroke-width:4; stroke-opacity:1; fill:none" points="
  234.079,142.015 259.503,142.015 
  "/>
<path clip-path="url(#clip820)" d="M 0 0 M115.418 1184.53 L123.056 1184.53 L123.056 1158.17 L114.746 1159.83 L114.746 1155.57 L123.01 1153.91 L127.686 1153.91 L127.686 1184.53 L135.325 1184.53 L135.325 1188.47 L115.418 1188.47 L115.418 1184.53 Z" fill="#000000" fill-rule="evenodd" fill-opacity="1" /><path clip-path="url(#clip820)" d="M 0 0 M141.204 1184.53 L148.843 1184.53 L148.843 1158.17 L140.533 1159.83 L140.533 1155.57 L148.797 1153.91 L153.473 1153.91 L153.473 1184.53 L161.112 1184.53 L161.112 1188.47 L141.204 1188.47 L141.204 1184.53 Z" fill="#000000" fill-rule="evenodd" fill-opacity="1" /><path clip-path="url(#clip820)" d="M 0 0 M166.181 1182.59 L171.065 1182.59 L171.065 1188.47 L166.181 1188.47 L166.181 1182.59 Z" fill="#000000" fill-rule="evenodd" fill-opacity="1" /><path clip-path="url(#clip820)" d="M 0 0 M186.135 1156.99 Q182.524 1156.99 180.695 1160.55 Q178.889 1164.09 178.889 1171.22 Q178.889 1178.33 180.695 1181.89 Q182.524 1185.43 186.135 1185.43 Q189.769 1185.43 191.575 1181.89 Q193.403 1178.33 193.403 1171.22 Q193.403 1164.09 191.575 1160.55 Q189.769 1156.99 186.135 1156.99 M186.135 1153.28 Q191.945 1153.28 195 1157.89 Q198.079 1162.47 198.079 1171.22 Q198.079 1179.95 195 1184.56 Q191.945 1189.14 186.135 1189.14 Q180.325 1189.14 177.246 1184.56 Q174.19 1179.95 174.19 1171.22 Q174.19 1162.47 177.246 1157.89 Q180.325 1153.28 186.135 1153.28 Z" fill="#000000" fill-rule="evenodd" fill-opacity="1" /><path clip-path="url(#clip820)" d="M 0 0 M117.015 927.239 L124.654 927.239 L124.654 900.873 L116.343 902.54 L116.343 898.281 L124.607 896.614 L129.283 896.614 L129.283 927.239 L136.922 927.239 L136.922 931.174 L117.015 931.174 L117.015 927.239 Z" fill="#000000" fill-rule="evenodd" fill-opacity="1" /><path clip-path="url(#clip820)" d="M 0 0 M142.802 927.239 L150.441 927.239 L150.441 900.873 L142.13 902.54 L142.13 898.281 L150.394 896.614 L155.07 896.614 L155.07 927.239 L162.709 927.239 L162.709 931.174 L142.802 931.174 L142.802 927.239 Z" fill="#000000" fill-rule="evenodd" fill-opacity="1" /><path clip-path="url(#clip820)" d="M 0 0 M167.778 925.295 L172.663 925.295 L172.663 931.174 L167.778 931.174 L167.778 925.295 Z" fill="#000000" fill-rule="evenodd" fill-opacity="1" /><path clip-path="url(#clip820)" d="M 0 0 M181.76 927.239 L198.079 927.239 L198.079 931.174 L176.135 931.174 L176.135 927.239 Q178.797 924.484 183.38 919.855 Q187.987 915.202 189.167 913.859 Q191.413 911.336 192.292 909.6 Q193.195 907.841 193.195 906.151 Q193.195 903.397 191.25 901.66 Q189.329 899.924 186.227 899.924 Q184.028 899.924 181.575 900.688 Q179.144 901.452 176.366 903.003 L176.366 898.281 Q179.19 897.147 181.644 896.568 Q184.098 895.989 186.135 895.989 Q191.505 895.989 194.7 898.674 Q197.894 901.359 197.894 905.85 Q197.894 907.98 197.084 909.901 Q196.297 911.799 194.19 914.392 Q193.612 915.063 190.51 918.281 Q187.408 921.475 181.76 927.239 Z" fill="#000000" fill-rule="evenodd" fill-opacity="1" /><path clip-path="url(#clip820)" d="M 0 0 M114.931 669.946 L122.57 669.946 L122.57 643.58 L114.26 645.247 L114.26 640.988 L122.524 639.321 L127.2 639.321 L127.2 669.946 L134.839 669.946 L134.839 673.881 L114.931 673.881 L114.931 669.946 Z" fill="#000000" fill-rule="evenodd" fill-opacity="1" /><path clip-path="url(#clip820)" d="M 0 0 M140.718 669.946 L148.357 669.946 L148.357 643.58 L140.047 645.247 L140.047 640.988 L148.311 639.321 L152.987 639.321 L152.987 669.946 L160.626 669.946 L160.626 673.881 L140.718 673.881 L140.718 669.946 Z" fill="#000000" fill-rule="evenodd" fill-opacity="1" /><path clip-path="url(#clip820)" d="M 0 0 M165.695 668.002 L170.579 668.002 L170.579 673.881 L165.695 673.881 L165.695 668.002 Z" fill="#000000" fill-rule="evenodd" fill-opacity="1" /><path clip-path="url(#clip820)" d="M 0 0 M188.496 643.395 L176.69 661.844 L188.496 661.844 L188.496 643.395 M187.269 639.321 L193.149 639.321 L193.149 661.844 L198.079 661.844 L198.079 665.733 L193.149 665.733 L193.149 673.881 L188.496 673.881 L188.496 665.733 L172.894 665.733 L172.894 661.219 L187.269 639.321 Z" fill="#000000" fill-rule="evenodd" fill-opacity="1" /><path clip-path="url(#clip820)" d="M 0 0 M115.256 412.653 L122.894 412.653 L122.894 386.288 L114.584 387.954 L114.584 383.695 L122.848 382.028 L127.524 382.028 L127.524 412.653 L135.163 412.653 L135.163 416.588 L115.256 416.588 L115.256 412.653 Z" fill="#000000" fill-rule="evenodd" fill-opacity="1" /><path clip-path="url(#clip820)" d="M 0 0 M141.042 412.653 L148.681 412.653 L148.681 386.288 L140.371 387.954 L140.371 383.695 L148.635 382.028 L153.311 382.028 L153.311 412.653 L160.95 412.653 L160.95 416.588 L141.042 416.588 L141.042 412.653 Z" fill="#000000" fill-rule="evenodd" fill-opacity="1" /><path clip-path="url(#clip820)" d="M 0 0 M166.019 410.709 L170.903 410.709 L170.903 416.588 L166.019 416.588 L166.019 410.709 Z" fill="#000000" fill-rule="evenodd" fill-opacity="1" /><path clip-path="url(#clip820)" d="M 0 0 M186.551 397.445 Q183.403 397.445 181.551 399.598 Q179.723 401.75 179.723 405.5 Q179.723 409.227 181.551 411.403 Q183.403 413.556 186.551 413.556 Q189.7 413.556 191.528 411.403 Q193.38 409.227 193.38 405.5 Q193.38 401.75 191.528 399.598 Q189.7 397.445 186.551 397.445 M195.834 382.792 L195.834 387.051 Q194.075 386.218 192.269 385.778 Q190.487 385.338 188.727 385.338 Q184.098 385.338 181.644 388.463 Q179.214 391.588 178.866 397.908 Q180.232 395.894 182.292 394.829 Q184.352 393.741 186.829 393.741 Q192.038 393.741 195.047 396.912 Q198.079 400.061 198.079 405.5 Q198.079 410.824 194.931 414.042 Q191.783 417.26 186.551 417.26 Q180.556 417.26 177.385 412.676 Q174.214 408.07 174.214 399.343 Q174.214 391.149 178.102 386.288 Q181.991 381.403 188.542 381.403 Q190.301 381.403 192.084 381.751 Q193.889 382.098 195.834 382.792 Z" fill="#000000" fill-rule="evenodd" fill-opacity="1" /><path clip-path="url(#clip820)" d="M 0 0 M115.51 155.36 L123.149 155.36 L123.149 128.995 L114.839 130.661 L114.839 126.402 L123.103 124.735 L127.779 124.735 L127.779 155.36 L135.417 155.36 L135.417 159.295 L115.51 159.295 L115.51 155.36 Z" fill="#000000" fill-rule="evenodd" fill-opacity="1" /><path clip-path="url(#clip820)" d="M 0 0 M141.297 155.36 L148.936 155.36 L148.936 128.995 L140.626 130.661 L140.626 126.402 L148.89 124.735 L153.566 124.735 L153.566 155.36 L161.204 155.36 L161.204 159.295 L141.297 159.295 L141.297 155.36 Z" fill="#000000" fill-rule="evenodd" fill-opacity="1" /><path clip-path="url(#clip820)" d="M 0 0 M166.274 153.416 L171.158 153.416 L171.158 159.295 L166.274 159.295 L166.274 153.416 Z" fill="#000000" fill-rule="evenodd" fill-opacity="1" /><path clip-path="url(#clip820)" d="M 0 0 M186.227 142.883 Q182.894 142.883 180.973 144.666 Q179.075 146.448 179.075 149.573 Q179.075 152.698 180.973 154.481 Q182.894 156.263 186.227 156.263 Q189.561 156.263 191.482 154.481 Q193.403 152.675 193.403 149.573 Q193.403 146.448 191.482 144.666 Q189.584 142.883 186.227 142.883 M181.551 140.893 Q178.542 140.152 176.852 138.092 Q175.186 136.032 175.186 133.069 Q175.186 128.925 178.126 126.518 Q181.089 124.11 186.227 124.11 Q191.389 124.11 194.329 126.518 Q197.269 128.925 197.269 133.069 Q197.269 136.032 195.579 138.092 Q193.913 140.152 190.926 140.893 Q194.306 141.68 196.181 143.971 Q198.079 146.263 198.079 149.573 Q198.079 154.596 195 157.281 Q191.945 159.967 186.227 159.967 Q180.51 159.967 177.431 157.281 Q174.376 154.596 174.376 149.573 Q174.376 146.263 176.274 143.971 Q178.172 141.68 181.551 140.893 M179.839 133.508 Q179.839 136.194 181.505 137.698 Q183.195 139.203 186.227 139.203 Q189.237 139.203 190.926 137.698 Q192.639 136.194 192.639 133.508 Q192.639 130.823 190.926 129.319 Q189.237 127.814 186.227 127.814 Q183.195 127.814 181.505 129.319 Q179.839 130.823 179.839 133.508 Z" fill="#000000" fill-rule="evenodd" fill-opacity="1" /><path clip-path="url(#clip820)" d="M 0 0 M59.1993 815.533 Q55.2526 813.336 53.3747 810.281 Q51.4968 807.225 51.4968 803.088 Q51.4968 797.518 55.4117 794.494 Q59.2948 791.47 66.4881 791.47 L88.0042 791.47 L88.0042 797.358 L66.679 797.358 Q61.5546 797.358 59.072 799.173 Q56.5894 800.987 56.5894 804.711 Q56.5894 809.262 59.6131 811.904 Q62.6368 814.546 67.8567 814.546 L88.0042 814.546 L88.0042 820.434 L66.679 820.434 Q61.5228 820.434 59.072 822.248 Q56.5894 824.063 56.5894 827.85 Q56.5894 832.338 59.6449 834.98 Q62.6686 837.622 67.8567 837.622 L88.0042 837.622 L88.0042 843.51 L52.3562 843.51 L52.3562 837.622 L57.8944 837.622 Q54.616 835.616 53.0564 832.815 Q51.4968 830.015 51.4968 826.163 Q51.4968 822.28 53.4702 819.575 Q55.4436 816.838 59.1993 815.533 Z" fill="#000000" fill-rule="evenodd" fill-opacity="1" /><path clip-path="url(#clip820)" d="M 0 0 M52.3562 785.327 L52.3562 779.471 L88.0042 779.471 L88.0042 785.327 L52.3562 785.327 M38.479 785.327 L38.479 779.471 L45.895 779.471 L45.895 785.327 L38.479 785.327 Z" fill="#000000" fill-rule="evenodd" fill-opacity="1" /><path clip-path="url(#clip820)" d="M 0 0 M66.4881 743.696 L88.0042 743.696 L88.0042 749.552 L66.679 749.552 Q61.6183 749.552 59.1038 751.525 Q56.5894 753.499 56.5894 757.446 Q56.5894 762.188 59.6131 764.925 Q62.6368 767.662 67.8567 767.662 L88.0042 767.662 L88.0042 773.551 L52.3562 773.551 L52.3562 767.662 L57.8944 767.662 Q54.6797 765.562 53.0883 762.729 Q51.4968 759.864 51.4968 756.141 Q51.4968 749.998 55.3163 746.847 Q59.1038 743.696 66.4881 743.696 Z" fill="#000000" fill-rule="evenodd" fill-opacity="1" /><path clip-path="url(#clip820)" d="M 0 0 M98.8259 710.467 L103.377 710.467 L103.377 744.332 L98.8259 744.332 L98.8259 710.467 Z" fill="#000000" fill-rule="evenodd" fill-opacity="1" /><path clip-path="url(#clip820)" d="M 0 0 M57.7671 680.866 L38.479 680.866 L38.479 675.01 L88.0042 675.01 L88.0042 680.866 L82.657 680.866 Q85.8398 682.712 87.3994 685.545 Q88.9272 688.346 88.9272 692.292 Q88.9272 698.754 83.771 702.828 Q78.6147 706.87 70.212 706.87 Q61.8093 706.87 56.6531 702.828 Q51.4968 698.754 51.4968 692.292 Q51.4968 688.346 53.0564 685.545 Q54.5842 682.712 57.7671 680.866 M70.212 700.823 Q76.6732 700.823 80.3653 698.181 Q84.0256 695.507 84.0256 690.86 Q84.0256 686.213 80.3653 683.54 Q76.6732 680.866 70.212 680.866 Q63.7508 680.866 60.0905 683.54 Q56.3984 686.213 56.3984 690.86 Q56.3984 695.507 60.0905 698.181 Q63.7508 700.823 70.212 700.823 Z" fill="#000000" fill-rule="evenodd" fill-opacity="1" /><path clip-path="url(#clip820)" d="M 0 0 M52.3562 668.867 L52.3562 663.01 L88.0042 663.01 L88.0042 668.867 L52.3562 668.867 M38.479 668.867 L38.479 663.01 L45.895 663.01 L45.895 668.867 L38.479 668.867 Z" fill="#000000" fill-rule="evenodd" fill-opacity="1" /><path clip-path="url(#clip820)" d="M 0 0 M38.479 638.821 L43.3487 638.821 L43.3487 644.422 Q43.3487 647.573 44.6219 648.815 Q45.895 650.024 49.2052 650.024 L52.3562 650.024 L52.3562 640.38 L56.9077 640.38 L56.9077 650.024 L88.0042 650.024 L88.0042 655.912 L56.9077 655.912 L56.9077 661.514 L52.3562 661.514 L52.3562 655.912 L49.8736 655.912 Q43.9216 655.912 41.2162 653.143 Q38.479 650.374 38.479 644.359 L38.479 638.821 Z" fill="#000000" fill-rule="evenodd" fill-opacity="1" /><path clip-path="url(#clip820)" d="M 0 0 M38.479 614.631 L43.3487 614.631 L43.3487 620.233 Q43.3487 623.384 44.6219 624.625 Q45.895 625.835 49.2052 625.835 L52.3562 625.835 L52.3562 616.19 L56.9077 616.19 L56.9077 625.835 L88.0042 625.835 L88.0042 631.723 L56.9077 631.723 L56.9077 637.325 L52.3562 637.325 L52.3562 631.723 L49.8736 631.723 Q43.9216 631.723 41.2162 628.954 Q38.479 626.185 38.479 620.169 L38.479 614.631 Z" fill="#000000" fill-rule="evenodd" fill-opacity="1" /><path clip-path="url(#clip820)" d="
M1995.71 213.659 L2282.13 213.659 L2282.13 92.6992 L1995.71 92.6992  Z
  " fill="#ffffff" fill-rule="evenodd" fill-opacity="1"/>
<polyline clip-path="url(#clip820)" style="stroke:#000000; stroke-width:4; stroke-opacity:1; fill:none" points="
  1995.71,213.659 2282.13,213.659 2282.13,92.6992 1995.71,92.6992 1995.71,213.659 
  "/>
<polyline clip-path="url(#clip820)" style="stroke:#009af9; stroke-width:4; stroke-opacity:1; fill:none" stroke-dasharray="16, 10" points="
  2019.25,153.179 2160.49,153.179 
  "/>
<path clip-path="url(#clip820)" d="M 0 0 M2197.88 172.867 Q2196.07 177.496 2194.36 178.908 Q2192.64 180.32 2189.77 180.32 L2186.37 180.32 L2186.37 176.755 L2188.87 176.755 Q2190.63 176.755 2191.6 175.922 Q2192.58 175.089 2193.76 171.987 L2194.52 170.043 L2184.03 144.533 L2188.55 144.533 L2196.65 164.811 L2204.75 144.533 L2209.26 144.533 L2197.88 172.867 Z" fill="#000000" fill-rule="evenodd" fill-opacity="1" /><path clip-path="url(#clip820)" d="M 0 0 M2215.14 166.524 L2222.78 166.524 L2222.78 140.158 L2214.47 141.825 L2214.47 137.566 L2222.74 135.899 L2227.41 135.899 L2227.41 166.524 L2235.05 166.524 L2235.05 170.459 L2215.14 170.459 L2215.14 166.524 Z" fill="#000000" fill-rule="evenodd" fill-opacity="1" /></svg>
