<?xml version="1.0" encoding="utf-8"?>
<svg xmlns="http://www.w3.org/2000/svg" xmlns:xlink="http://www.w3.org/1999/xlink" width="600" height="400" viewBox="0 0 2400 1600">
<defs>
  <clipPath id="clip780">
    <rect x="0" y="0" width="2400" height="1600"/>
  </clipPath>
</defs>
<path clip-path="url(#clip780)" d="
M0 1600 L2400 1600 L2400 0 L0 0  Z
  " fill="#ffffff" fill-rule="evenodd" fill-opacity="1"/>
<defs>
  <clipPath id="clip781">
    <rect x="480" y="0" width="1681" height="1600"/>
  </clipPath>
</defs>
<path clip-path="url(#clip780)" d="
M220.676 1410.9 L2352.76 1410.9 L2352.76 47.2441 L220.676 47.2441  Z
  " fill="#ffffff" fill-rule="evenodd" fill-opacity="1"/>
<defs>
  <clipPath id="clip782">
    <rect x="220" y="47" width="2133" height="1365"/>
  </clipPath>
</defs>
<polyline clip-path="url(#clip782)" style="stroke:#000000; stroke-linecap:butt; stroke-linejoin:round; stroke-width:2; stroke-opacity:0.1; fill:none" points="
  281.018,1410.9 281.018,47.2441 
  "/>
<polyline clip-path="url(#clip782)" style="stroke:#000000; stroke-linecap:butt; stroke-linejoin:round; stroke-width:2; stroke-opacity:0.1; fill:none" points="
  1487.86,1410.9 1487.86,47.2441 
  "/>
<polyline clip-path="url(#clip780)" style="stroke:#000000; stroke-linecap:butt; stroke-linejoin:round; stroke-width:4; stroke-opacity:1; fill:none" points="
  220.676,1410.9 2352.76,1410.9 
  "/>
<polyline clip-path="url(#clip780)" style="stroke:#000000; stroke-linecap:butt; stroke-linejoin:round; stroke-width:4; stroke-opacity:1; fill:none" points="
  281.018,1410.9 281.018,1392 
  "/>
<polyline clip-path="url(#clip780)" style="stroke:#000000; stroke-linecap:butt; stroke-linejoin:round; stroke-width:4; stroke-opacity:1; fill:none" points="
  1487.86,1410.9 1487.86,1392 
  "/>
<path clip-path="url(#clip780)" d="M212.26 1485.02 L219.899 1485.02 L219.899 1458.66 L211.589 1460.32 L211.589 1456.06 L219.853 1454.4 L224.528 1454.4 L224.528 1485.02 L232.167 1485.02 L232.167 1488.96 L212.26 1488.96 L212.26 1485.02 Z" fill="#000000" fill-rule="evenodd" fill-opacity="1" /><path clip-path="url(#clip780)" d="M251.612 1457.48 Q248.001 1457.48 246.172 1461.04 Q244.366 1464.58 244.366 1471.71 Q244.366 1478.82 246.172 1482.38 Q248.001 1485.92 251.612 1485.92 Q255.246 1485.92 257.051 1482.38 Q258.88 1478.82 258.88 1471.71 Q258.88 1464.58 257.051 1461.04 Q255.246 1457.48 251.612 1457.48 M251.612 1453.77 Q257.422 1453.77 260.477 1458.38 Q263.556 1462.96 263.556 1471.71 Q263.556 1480.44 260.477 1485.04 Q257.422 1489.63 251.612 1489.63 Q245.801 1489.63 242.723 1485.04 Q239.667 1480.44 239.667 1471.71 Q239.667 1462.96 242.723 1458.38 Q245.801 1453.77 251.612 1453.77 Z" fill="#000000" fill-rule="evenodd" fill-opacity="1" /><path clip-path="url(#clip780)" d="M263.556 1447.87 L287.668 1447.87 L287.668 1451.07 L263.556 1451.07 L263.556 1447.87 Z" fill="#000000" fill-rule="evenodd" fill-opacity="1" /><path clip-path="url(#clip780)" d="M307.378 1446.41 Q310.105 1446.99 311.629 1448.83 Q313.171 1450.68 313.171 1453.38 Q313.171 1457.54 310.312 1459.82 Q307.453 1462.09 302.187 1462.09 Q300.419 1462.09 298.538 1461.73 Q296.677 1461.4 294.683 1460.7 L294.683 1457.03 Q296.263 1457.95 298.144 1458.42 Q300.024 1458.89 302.074 1458.89 Q305.648 1458.89 307.51 1457.48 Q309.391 1456.07 309.391 1453.38 Q309.391 1450.9 307.641 1449.51 Q305.911 1448.1 302.808 1448.1 L299.535 1448.1 L299.535 1444.98 L302.958 1444.98 Q305.761 1444.98 307.246 1443.87 Q308.732 1442.74 308.732 1440.63 Q308.732 1438.47 307.19 1437.32 Q305.667 1436.16 302.808 1436.16 Q301.247 1436.16 299.46 1436.49 Q297.673 1436.83 295.529 1437.55 L295.529 1434.16 Q297.692 1433.56 299.573 1433.26 Q301.472 1432.96 303.146 1432.96 Q307.472 1432.96 309.992 1434.93 Q312.513 1436.89 312.513 1440.24 Q312.513 1442.57 311.177 1444.19 Q309.842 1445.79 307.378 1446.41 Z" fill="#000000" fill-rule="evenodd" fill-opacity="1" /><path clip-path="url(#clip780)" d="M320.374 1456.77 L324.343 1456.77 L324.343 1461.55 L320.374 1461.55 L320.374 1456.77 Z" fill="#000000" fill-rule="evenodd" fill-opacity="1" /><path clip-path="url(#clip780)" d="M340.743 1435.97 Q337.809 1435.97 336.323 1438.86 Q334.856 1441.74 334.856 1447.53 Q334.856 1453.31 336.323 1456.2 Q337.809 1459.08 340.743 1459.08 Q343.696 1459.08 345.163 1456.2 Q346.649 1453.31 346.649 1447.53 Q346.649 1441.74 345.163 1438.86 Q343.696 1435.97 340.743 1435.97 M340.743 1432.96 Q345.464 1432.96 347.946 1436.7 Q350.448 1440.43 350.448 1447.53 Q350.448 1454.62 347.946 1458.37 Q345.464 1462.09 340.743 1462.09 Q336.022 1462.09 333.521 1458.37 Q331.038 1454.62 331.038 1447.53 Q331.038 1440.43 333.521 1436.7 Q336.022 1432.96 340.743 1432.96 Z" fill="#000000" fill-rule="evenodd" fill-opacity="1" /><path clip-path="url(#clip780)" d="M1419.46 1485.02 L1427.1 1485.02 L1427.1 1458.66 L1418.79 1460.32 L1418.79 1456.06 L1427.06 1454.4 L1431.73 1454.4 L1431.73 1485.02 L1439.37 1485.02 L1439.37 1488.96 L1419.46 1488.96 L1419.46 1485.02 Z" fill="#000000" fill-rule="evenodd" fill-opacity="1" /><path clip-path="url(#clip780)" d="M1458.82 1457.48 Q1455.2 1457.48 1453.38 1461.04 Q1451.57 1464.58 1451.57 1471.71 Q1451.57 1478.82 1453.38 1482.38 Q1455.2 1485.92 1458.82 1485.92 Q1462.45 1485.92 1464.26 1482.38 Q1466.08 1478.82 1466.08 1471.71 Q1466.08 1464.58 1464.26 1461.04 Q1462.45 1457.48 1458.82 1457.48 M1458.82 1453.77 Q1464.63 1453.77 1467.68 1458.38 Q1470.76 1462.96 1470.76 1471.71 Q1470.76 1480.44 1467.68 1485.04 Q1464.63 1489.63 1458.82 1489.63 Q1453.01 1489.63 1449.93 1485.04 Q1446.87 1480.44 1446.87 1471.71 Q1446.87 1462.96 1449.93 1458.38 Q1453.01 1453.77 1458.82 1453.77 Z" fill="#000000" fill-rule="evenodd" fill-opacity="1" /><path clip-path="url(#clip780)" d="M1470.76 1447.87 L1494.87 1447.87 L1494.87 1451.07 L1470.76 1451.07 L1470.76 1447.87 Z" fill="#000000" fill-rule="evenodd" fill-opacity="1" /><path clip-path="url(#clip780)" d="M1506.34 1458.35 L1519.6 1458.35 L1519.6 1461.55 L1501.77 1461.55 L1501.77 1458.35 Q1503.94 1456.11 1507.66 1452.35 Q1511.4 1448.57 1512.36 1447.48 Q1514.19 1445.43 1514.9 1444.02 Q1515.64 1442.59 1515.64 1441.22 Q1515.64 1438.98 1514.06 1437.57 Q1512.49 1436.16 1509.97 1436.16 Q1508.19 1436.16 1506.19 1436.78 Q1504.22 1437.4 1501.96 1438.66 L1501.96 1434.82 Q1504.26 1433.9 1506.25 1433.43 Q1508.24 1432.96 1509.9 1432.96 Q1514.26 1432.96 1516.86 1435.14 Q1519.45 1437.32 1519.45 1440.97 Q1519.45 1442.7 1518.8 1444.26 Q1518.16 1445.8 1516.44 1447.91 Q1515.97 1448.46 1513.45 1451.07 Q1510.93 1453.67 1506.34 1458.35 Z" fill="#000000" fill-rule="evenodd" fill-opacity="1" /><path clip-path="url(#clip780)" d="M1527.58 1456.77 L1531.55 1456.77 L1531.55 1461.55 L1527.58 1461.55 L1527.58 1456.77 Z" fill="#000000" fill-rule="evenodd" fill-opacity="1" /><path clip-path="url(#clip780)" d="M1538.86 1433.47 L1556.92 1433.47 L1556.92 1435.08 L1546.72 1461.55 L1542.76 1461.55 L1552.35 1436.66 L1538.86 1436.66 L1538.86 1433.47 Z" fill="#000000" fill-rule="evenodd" fill-opacity="1" /><path clip-path="url(#clip780)" d="M1169.89 1538.54 L1176.1 1538.54 L1187.24 1568.46 L1198.38 1538.54 L1204.58 1538.54 L1191.21 1574.19 L1183.26 1574.19 L1169.89 1538.54 Z" fill="#000000" fill-rule="evenodd" fill-opacity="1" /><path clip-path="url(#clip780)" d="M1239.75 1585.01 L1239.75 1589.56 L1205.89 1589.56 L1205.89 1585.01 L1239.75 1585.01 Z" fill="#000000" fill-rule="evenodd" fill-opacity="1" /><path clip-path="url(#clip780)" d="M1270.91 1539.91 L1270.91 1545.38 Q1268.43 1544.01 1265.92 1543.34 Q1263.43 1542.64 1260.89 1542.64 Q1255.19 1542.64 1252.04 1546.27 Q1248.89 1549.87 1248.89 1556.39 Q1248.89 1562.92 1252.04 1566.55 Q1255.19 1570.14 1260.89 1570.14 Q1263.43 1570.14 1265.92 1569.47 Q1268.43 1568.77 1270.91 1567.41 L1270.91 1572.82 Q1268.46 1573.96 1265.82 1574.54 Q1263.21 1575.11 1260.25 1575.11 Q1252.2 1575.11 1247.46 1570.05 Q1242.71 1564.99 1242.71 1556.39 Q1242.71 1547.67 1247.49 1542.68 Q1252.29 1537.68 1260.63 1537.68 Q1263.34 1537.68 1265.92 1538.25 Q1268.49 1538.79 1270.91 1539.91 Z" fill="#000000" fill-rule="evenodd" fill-opacity="1" /><path clip-path="url(#clip780)" d="M1281.1 1524.66 L1286.95 1524.66 L1286.95 1574.19 L1281.1 1574.19 L1281.1 1524.66 Z" fill="#000000" fill-rule="evenodd" fill-opacity="1" /><path clip-path="url(#clip780)" d="M1313.02 1542.64 Q1308.31 1542.64 1305.57 1546.34 Q1302.84 1550 1302.84 1556.39 Q1302.84 1562.79 1305.54 1566.48 Q1308.28 1570.14 1313.02 1570.14 Q1317.7 1570.14 1320.44 1566.45 Q1323.18 1562.76 1323.18 1556.39 Q1323.18 1550.06 1320.44 1546.37 Q1317.7 1542.64 1313.02 1542.64 M1313.02 1537.68 Q1320.66 1537.68 1325.02 1542.64 Q1329.38 1547.61 1329.38 1556.39 Q1329.38 1565.15 1325.02 1570.14 Q1320.66 1575.11 1313.02 1575.11 Q1305.35 1575.11 1300.99 1570.14 Q1296.66 1565.15 1296.66 1556.39 Q1296.66 1547.61 1300.99 1542.64 Q1305.35 1537.68 1313.02 1537.68 Z" fill="#000000" fill-rule="evenodd" fill-opacity="1" /><path clip-path="url(#clip780)" d="M1361.82 1539.59 L1361.82 1545.13 Q1359.33 1543.85 1356.66 1543.22 Q1353.99 1542.58 1351.12 1542.58 Q1346.76 1542.58 1344.56 1543.92 Q1342.4 1545.25 1342.4 1547.93 Q1342.4 1549.96 1343.96 1551.14 Q1345.52 1552.29 1350.23 1553.34 L1352.24 1553.78 Q1358.47 1555.12 1361.08 1557.57 Q1363.73 1559.99 1363.73 1564.35 Q1363.73 1569.32 1359.78 1572.21 Q1355.86 1575.11 1348.99 1575.11 Q1346.12 1575.11 1343 1574.54 Q1339.92 1573.99 1336.48 1572.88 L1336.48 1566.83 Q1339.73 1568.52 1342.88 1569.38 Q1346.03 1570.21 1349.12 1570.21 Q1353.25 1570.21 1355.48 1568.81 Q1357.71 1567.37 1357.71 1564.8 Q1357.71 1562.41 1356.09 1561.14 Q1354.5 1559.86 1349.05 1558.68 L1347.02 1558.21 Q1341.57 1557.06 1339.15 1554.71 Q1336.73 1552.32 1336.73 1548.18 Q1336.73 1543.15 1340.3 1540.42 Q1343.86 1537.68 1350.42 1537.68 Q1353.67 1537.68 1356.53 1538.16 Q1359.4 1538.63 1361.82 1539.59 Z" fill="#000000" fill-rule="evenodd" fill-opacity="1" /><path clip-path="url(#clip780)" d="M1403.54 1554.9 L1403.54 1557.76 L1376.62 1557.76 Q1377 1563.81 1380.24 1566.99 Q1383.52 1570.14 1389.35 1570.14 Q1392.72 1570.14 1395.87 1569.32 Q1399.05 1568.49 1402.17 1566.83 L1402.17 1572.37 Q1399.02 1573.71 1395.71 1574.41 Q1392.4 1575.11 1389 1575.11 Q1380.47 1575.11 1375.47 1570.14 Q1370.5 1565.18 1370.5 1556.71 Q1370.5 1547.96 1375.22 1542.83 Q1379.96 1537.68 1387.98 1537.68 Q1395.17 1537.68 1399.34 1542.33 Q1403.54 1546.94 1403.54 1554.9 M1397.69 1553.18 Q1397.62 1548.37 1394.98 1545.51 Q1392.37 1542.64 1388.04 1542.64 Q1383.14 1542.64 1380.18 1545.41 Q1377.25 1548.18 1376.81 1553.21 L1397.69 1553.18 Z" fill="#000000" fill-rule="evenodd" fill-opacity="1" /><polyline clip-path="url(#clip782)" style="stroke:#000000; stroke-linecap:butt; stroke-linejoin:round; stroke-width:2; stroke-opacity:0.1; fill:none" points="
  220.676,1240.1 2352.76,1240.1 
  "/>
<polyline clip-path="url(#clip782)" style="stroke:#000000; stroke-linecap:butt; stroke-linejoin:round; stroke-width:2; stroke-opacity:0.1; fill:none" points="
  220.676,1031.97 2352.76,1031.97 
  "/>
<polyline clip-path="url(#clip782)" style="stroke:#000000; stroke-linecap:butt; stroke-linejoin:round; stroke-width:2; stroke-opacity:0.1; fill:none" points="
  220.676,823.838 2352.76,823.838 
  "/>
<polyline clip-path="url(#clip782)" style="stroke:#000000; stroke-linecap:butt; stroke-linejoin:round; stroke-width:2; stroke-opacity:0.1; fill:none" points="
  220.676,615.709 2352.76,615.709 
  "/>
<polyline clip-path="url(#clip782)" style="stroke:#000000; stroke-linecap:butt; stroke-linejoin:round; stroke-width:2; stroke-opacity:0.1; fill:none" points="
  220.676,407.579 2352.76,407.579 
  "/>
<polyline clip-path="url(#clip782)" style="stroke:#000000; stroke-linecap:butt; stroke-linejoin:round; stroke-width:2; stroke-opacity:0.1; fill:none" points="
  220.676,199.45 2352.76,199.45 
  "/>
<polyline clip-path="url(#clip780)" style="stroke:#000000; stroke-linecap:butt; stroke-linejoin:round; stroke-width:4; stroke-opacity:1; fill:none" points="
  220.676,1410.9 220.676,47.2441 
  "/>
<polyline clip-path="url(#clip780)" style="stroke:#000000; stroke-linecap:butt; stroke-linejoin:round; stroke-width:4; stroke-opacity:1; fill:none" points="
  220.676,1240.1 239.574,1240.1 
  "/>
<polyline clip-path="url(#clip780)" style="stroke:#000000; stroke-linecap:butt; stroke-linejoin:round; stroke-width:4; stroke-opacity:1; fill:none" points="
  220.676,1031.97 239.574,1031.97 
  "/>
<polyline clip-path="url(#clip780)" style="stroke:#000000; stroke-linecap:butt; stroke-linejoin:round; stroke-width:4; stroke-opacity:1; fill:none" points="
  220.676,823.838 239.574,823.838 
  "/>
<polyline clip-path="url(#clip780)" style="stroke:#000000; stroke-linecap:butt; stroke-linejoin:round; stroke-width:4; stroke-opacity:1; fill:none" points="
  220.676,615.709 239.574,615.709 
  "/>
<polyline clip-path="url(#clip780)" style="stroke:#000000; stroke-linecap:butt; stroke-linejoin:round; stroke-width:4; stroke-opacity:1; fill:none" points="
  220.676,407.579 239.574,407.579 
  "/>
<polyline clip-path="url(#clip780)" style="stroke:#000000; stroke-linecap:butt; stroke-linejoin:round; stroke-width:4; stroke-opacity:1; fill:none" points="
  220.676,199.45 239.574,199.45 
  "/>
<path clip-path="url(#clip780)" d="M131.945 1226.89 L120.14 1245.34 L131.945 1245.34 L131.945 1226.89 M130.718 1222.82 L136.598 1222.82 L136.598 1245.34 L141.529 1245.34 L141.529 1249.23 L136.598 1249.23 L136.598 1257.38 L131.945 1257.38 L131.945 1249.23 L116.343 1249.23 L116.343 1244.71 L130.718 1222.82 Z" fill="#000000" fill-rule="evenodd" fill-opacity="1" /><path clip-path="url(#clip780)" d="M149.26 1251.5 L154.144 1251.5 L154.144 1257.38 L149.26 1257.38 L149.26 1251.5 Z" fill="#000000" fill-rule="evenodd" fill-opacity="1" /><path clip-path="url(#clip780)" d="M168.357 1253.44 L184.676 1253.44 L184.676 1257.38 L162.732 1257.38 L162.732 1253.44 Q165.394 1250.69 169.977 1246.06 Q174.584 1241.4 175.764 1240.06 Q178.01 1237.54 178.889 1235.8 Q179.792 1234.04 179.792 1232.35 Q179.792 1229.6 177.848 1227.86 Q175.926 1226.13 172.825 1226.13 Q170.626 1226.13 168.172 1226.89 Q165.741 1227.65 162.964 1229.21 L162.964 1224.48 Q165.788 1223.35 168.241 1222.77 Q170.695 1222.19 172.732 1222.19 Q178.102 1222.19 181.297 1224.88 Q184.491 1227.56 184.491 1232.05 Q184.491 1234.18 183.681 1236.1 Q182.894 1238 180.788 1240.59 Q180.209 1241.27 177.107 1244.48 Q174.005 1247.68 168.357 1253.44 Z" fill="#000000" fill-rule="evenodd" fill-opacity="1" /><path clip-path="url(#clip780)" d="M130.996 1018.76 L119.191 1037.21 L130.996 1037.21 L130.996 1018.76 M129.769 1014.69 L135.649 1014.69 L135.649 1037.21 L140.579 1037.21 L140.579 1041.1 L135.649 1041.1 L135.649 1049.25 L130.996 1049.25 L130.996 1041.1 L115.394 1041.1 L115.394 1036.59 L129.769 1014.69 Z" fill="#000000" fill-rule="evenodd" fill-opacity="1" /><path clip-path="url(#clip780)" d="M148.311 1043.37 L153.195 1043.37 L153.195 1049.25 L148.311 1049.25 L148.311 1043.37 Z" fill="#000000" fill-rule="evenodd" fill-opacity="1" /><path clip-path="url(#clip780)" d="M177.547 1030.61 Q180.903 1031.33 182.778 1033.6 Q184.676 1035.87 184.676 1039.2 Q184.676 1044.32 181.158 1047.12 Q177.639 1049.92 171.158 1049.92 Q168.982 1049.92 166.667 1049.48 Q164.376 1049.06 161.922 1048.21 L161.922 1043.69 Q163.866 1044.83 166.181 1045.4 Q168.496 1045.98 171.019 1045.98 Q175.417 1045.98 177.709 1044.25 Q180.024 1042.51 180.024 1039.2 Q180.024 1036.15 177.871 1034.43 Q175.741 1032.7 171.922 1032.7 L167.894 1032.7 L167.894 1028.85 L172.107 1028.85 Q175.556 1028.85 177.385 1027.49 Q179.214 1026.1 179.214 1023.51 Q179.214 1020.84 177.315 1019.43 Q175.44 1018 171.922 1018 Q170.001 1018 167.802 1018.41 Q165.602 1018.83 162.964 1019.71 L162.964 1015.54 Q165.626 1014.8 167.94 1014.43 Q170.278 1014.06 172.339 1014.06 Q177.663 1014.06 180.764 1016.49 Q183.866 1018.9 183.866 1023.02 Q183.866 1025.89 182.223 1027.88 Q180.579 1029.85 177.547 1030.61 Z" fill="#000000" fill-rule="evenodd" fill-opacity="1" /><path clip-path="url(#clip780)" d="M129.862 810.632 L118.056 829.081 L129.862 829.081 L129.862 810.632 M128.635 806.558 L134.515 806.558 L134.515 829.081 L139.445 829.081 L139.445 832.97 L134.515 832.97 L134.515 841.118 L129.862 841.118 L129.862 832.97 L114.26 832.97 L114.26 828.456 L128.635 806.558 Z" fill="#000000" fill-rule="evenodd" fill-opacity="1" /><path clip-path="url(#clip780)" d="M147.177 835.238 L152.061 835.238 L152.061 841.118 L147.177 841.118 L147.177 835.238 Z" fill="#000000" fill-rule="evenodd" fill-opacity="1" /><path clip-path="url(#clip780)" d="M175.093 810.632 L163.288 829.081 L175.093 829.081 L175.093 810.632 M173.866 806.558 L179.746 806.558 L179.746 829.081 L184.676 829.081 L184.676 832.97 L179.746 832.97 L179.746 841.118 L175.093 841.118 L175.093 832.97 L159.491 832.97 L159.491 828.456 L173.866 806.558 Z" fill="#000000" fill-rule="evenodd" fill-opacity="1" /><path clip-path="url(#clip780)" d="M131.343 602.503 L119.538 620.952 L131.343 620.952 L131.343 602.503 M130.117 598.429 L135.996 598.429 L135.996 620.952 L140.927 620.952 L140.927 624.841 L135.996 624.841 L135.996 632.989 L131.343 632.989 L131.343 624.841 L115.742 624.841 L115.742 620.327 L130.117 598.429 Z" fill="#000000" fill-rule="evenodd" fill-opacity="1" /><path clip-path="url(#clip780)" d="M148.658 627.109 L153.542 627.109 L153.542 632.989 L148.658 632.989 L148.658 627.109 Z" fill="#000000" fill-rule="evenodd" fill-opacity="1" /><path clip-path="url(#clip780)" d="M163.774 598.429 L182.13 598.429 L182.13 602.364 L168.056 602.364 L168.056 610.836 Q169.075 610.489 170.093 610.327 Q171.112 610.142 172.13 610.142 Q177.917 610.142 181.297 613.313 Q184.676 616.484 184.676 621.901 Q184.676 627.479 181.204 630.581 Q177.732 633.66 171.413 633.66 Q169.237 633.66 166.968 633.29 Q164.723 632.919 162.315 632.178 L162.315 627.479 Q164.399 628.614 166.621 629.169 Q168.843 629.725 171.32 629.725 Q175.325 629.725 177.663 627.618 Q180.001 625.512 180.001 621.901 Q180.001 618.29 177.663 616.183 Q175.325 614.077 171.32 614.077 Q169.445 614.077 167.57 614.493 Q165.718 614.91 163.774 615.79 L163.774 598.429 Z" fill="#000000" fill-rule="evenodd" fill-opacity="1" /><path clip-path="url(#clip780)" d="M130.186 394.373 L118.381 412.822 L130.186 412.822 L130.186 394.373 M128.959 390.299 L134.839 390.299 L134.839 412.822 L139.769 412.822 L139.769 416.711 L134.839 416.711 L134.839 424.859 L130.186 424.859 L130.186 416.711 L114.584 416.711 L114.584 412.197 L128.959 390.299 Z" fill="#000000" fill-rule="evenodd" fill-opacity="1" /><path clip-path="url(#clip780)" d="M147.501 418.98 L152.385 418.98 L152.385 424.859 L147.501 424.859 L147.501 418.98 Z" fill="#000000" fill-rule="evenodd" fill-opacity="1" /><path clip-path="url(#clip780)" d="M173.149 405.716 Q170.001 405.716 168.149 407.869 Q166.32 410.021 166.32 413.771 Q166.32 417.498 168.149 419.674 Q170.001 421.827 173.149 421.827 Q176.297 421.827 178.126 419.674 Q179.977 417.498 179.977 413.771 Q179.977 410.021 178.126 407.869 Q176.297 405.716 173.149 405.716 M182.431 391.063 L182.431 395.322 Q180.672 394.489 178.866 394.049 Q177.084 393.609 175.325 393.609 Q170.695 393.609 168.241 396.734 Q165.811 399.859 165.464 406.179 Q166.829 404.165 168.889 403.1 Q170.95 402.012 173.427 402.012 Q178.635 402.012 181.644 405.183 Q184.676 408.332 184.676 413.771 Q184.676 419.095 181.528 422.313 Q178.38 425.531 173.149 425.531 Q167.153 425.531 163.982 420.947 Q160.811 416.341 160.811 407.614 Q160.811 399.42 164.7 394.559 Q168.589 389.674 175.139 389.674 Q176.899 389.674 178.681 390.022 Q180.487 390.369 182.431 391.063 Z" fill="#000000" fill-rule="evenodd" fill-opacity="1" /><path clip-path="url(#clip780)" d="M131.251 186.244 L119.445 204.693 L131.251 204.693 L131.251 186.244 M130.024 182.17 L135.904 182.17 L135.904 204.693 L140.834 204.693 L140.834 208.582 L135.904 208.582 L135.904 216.73 L131.251 216.73 L131.251 208.582 L115.649 208.582 L115.649 204.068 L130.024 182.17 Z" fill="#000000" fill-rule="evenodd" fill-opacity="1" /><path clip-path="url(#clip780)" d="M148.566 210.85 L153.45 210.85 L153.45 216.73 L148.566 216.73 L148.566 210.85 Z" fill="#000000" fill-rule="evenodd" fill-opacity="1" /><path clip-path="url(#clip780)" d="M162.454 182.17 L184.676 182.17 L184.676 184.161 L172.13 216.73 L167.246 216.73 L179.051 186.105 L162.454 186.105 L162.454 182.17 Z" fill="#000000" fill-rule="evenodd" fill-opacity="1" /><path clip-path="url(#clip780)" d="M35.1993 829.203 Q31.2526 827.007 29.3747 823.951 Q27.4968 820.896 27.4968 816.758 Q27.4968 811.188 31.4117 808.164 Q35.2948 805.141 42.4881 805.141 L64.0042 805.141 L64.0042 811.029 L42.679 811.029 Q37.5546 811.029 35.072 812.843 Q32.5894 814.657 32.5894 818.381 Q32.5894 822.933 35.6131 825.574 Q38.6368 828.216 43.8567 828.216 L64.0042 828.216 L64.0042 834.105 L42.679 834.105 Q37.5228 834.105 35.072 835.919 Q32.5894 837.733 32.5894 841.521 Q32.5894 846.008 35.6449 848.65 Q38.6686 851.292 43.8567 851.292 L64.0042 851.292 L64.0042 857.18 L28.3562 857.18 L28.3562 851.292 L33.8944 851.292 Q30.616 849.287 29.0564 846.486 Q27.4968 843.685 27.4968 839.834 Q27.4968 835.951 29.4702 833.245 Q31.4436 830.508 35.1993 829.203 Z" fill="#000000" fill-rule="evenodd" fill-opacity="1" /><path clip-path="url(#clip780)" d="M28.3562 793.459 L28.3562 787.603 L64.0042 787.603 L64.0042 793.459 L28.3562 793.459 M14.479 793.459 L14.479 787.603 L21.895 787.603 L21.895 793.459 L14.479 793.459 Z" fill="#000000" fill-rule="evenodd" fill-opacity="1" /><path clip-path="url(#clip780)" d="M42.4881 745.717 L64.0042 745.717 L64.0042 751.573 L42.679 751.573 Q37.6183 751.573 35.1038 753.547 Q32.5894 755.52 32.5894 759.467 Q32.5894 764.209 35.6131 766.946 Q38.6368 769.684 43.8567 769.684 L64.0042 769.684 L64.0042 775.572 L28.3562 775.572 L28.3562 769.684 L33.8944 769.684 Q30.6797 767.583 29.0883 764.75 Q27.4968 761.886 27.4968 758.162 Q27.4968 752.019 31.3163 748.868 Q35.1038 745.717 42.4881 745.717 Z" fill="#000000" fill-rule="evenodd" fill-opacity="1" /><path clip-path="url(#clip780)" d="M74.8259 706.95 L79.3773 706.95 L79.3773 740.815 L74.8259 740.815 L74.8259 706.95 Z" fill="#000000" fill-rule="evenodd" fill-opacity="1" /><path clip-path="url(#clip780)" d="M33.7671 677.986 L14.479 677.986 L14.479 672.129 L64.0042 672.129 L64.0042 677.986 L58.657 677.986 Q61.8398 679.832 63.3994 682.664 Q64.9272 685.465 64.9272 689.412 Q64.9272 695.873 59.771 699.947 Q54.6147 703.989 46.212 703.989 Q37.8093 703.989 32.6531 699.947 Q27.4968 695.873 27.4968 689.412 Q27.4968 685.465 29.0564 682.664 Q30.5842 679.832 33.7671 677.986 M46.212 697.942 Q52.6732 697.942 56.3653 695.3 Q60.0256 692.627 60.0256 687.98 Q60.0256 683.333 56.3653 680.659 Q52.6732 677.986 46.212 677.986 Q39.7508 677.986 36.0905 680.659 Q32.3984 683.333 32.3984 687.98 Q32.3984 692.627 36.0905 695.3 Q39.7508 697.942 46.212 697.942 Z" fill="#000000" fill-rule="evenodd" fill-opacity="1" /><path clip-path="url(#clip780)" d="M28.3562 660.066 L28.3562 654.21 L64.0042 654.21 L64.0042 660.066 L28.3562 660.066 M14.479 660.066 L14.479 654.21 L21.895 654.21 L21.895 660.066 L14.479 660.066 Z" fill="#000000" fill-rule="evenodd" fill-opacity="1" /><path clip-path="url(#clip780)" d="M14.479 623.909 L19.3487 623.909 L19.3487 629.511 Q19.3487 632.662 20.6219 633.903 Q21.895 635.113 25.2052 635.113 L28.3562 635.113 L28.3562 625.468 L32.9077 625.468 L32.9077 635.113 L64.0042 635.113 L64.0042 641.001 L32.9077 641.001 L32.9077 646.603 L28.3562 646.603 L28.3562 641.001 L25.8736 641.001 Q19.9216 641.001 17.2162 638.232 Q14.479 635.463 14.479 629.447 L14.479 623.909 Z" fill="#000000" fill-rule="evenodd" fill-opacity="1" /><path clip-path="url(#clip780)" d="M14.479 600.961 L19.3487 600.961 L19.3487 606.562 Q19.3487 609.713 20.6219 610.955 Q21.895 612.164 25.2052 612.164 L28.3562 612.164 L28.3562 602.52 L32.9077 602.52 L32.9077 612.164 L64.0042 612.164 L64.0042 618.052 L32.9077 618.052 L32.9077 623.654 L28.3562 623.654 L28.3562 618.052 L25.8736 618.052 Q19.9216 618.052 17.2162 615.283 Q14.479 612.514 14.479 606.499 L14.479 600.961 Z" fill="#000000" fill-rule="evenodd" fill-opacity="1" /><polyline clip-path="url(#clip782)" style="stroke:#009af9; stroke-linecap:butt; stroke-linejoin:round; stroke-width:20; stroke-opacity:1; fill:none" stroke-dasharray="80, 50" points="
  281.018,85.838 1286.72,1372.3 2292.41,889.741 
  "/>
<path clip-path="url(#clip780)" d="
M1992.36 196.379 L2281.69 196.379 L2281.69 92.6992 L1992.36 92.6992  Z
  " fill="#ffffff" fill-rule="evenodd" fill-opacity="1"/>
<polyline clip-path="url(#clip780)" style="stroke:#000000; stroke-linecap:butt; stroke-linejoin:round; stroke-width:4; stroke-opacity:1; fill:none" points="
  1992.36,196.379 2281.69,196.379 2281.69,92.6992 1992.36,92.6992 1992.36,196.379 
  "/>
<polyline clip-path="url(#clip780)" style="stroke:#009af9; stroke-linecap:butt; stroke-linejoin:round; stroke-width:4; stroke-opacity:1; fill:none" stroke-dasharray="16, 10" points="
  2016.05,144.539 2158.19,144.539 
  "/>
<path clip-path="url(#clip780)" d="M2195.72 164.227 Q2193.91 168.856 2192.2 170.268 Q2190.49 171.68 2187.62 171.68 L2184.21 171.68 L2184.21 168.115 L2186.71 168.115 Q2188.47 168.115 2189.45 167.282 Q2190.42 166.449 2191.6 163.347 L2192.36 161.403 L2181.88 135.893 L2186.39 135.893 L2194.49 156.171 L2202.59 135.893 L2207.11 135.893 L2195.72 164.227 Z" fill="#000000" fill-rule="evenodd" fill-opacity="1" /><path clip-path="url(#clip780)" d="M2214.4 157.884 L2222.04 157.884 L2222.04 131.518 L2213.73 133.185 L2213.73 128.926 L2221.99 127.259 L2226.67 127.259 L2226.67 157.884 L2234.31 157.884 L2234.31 161.819 L2214.4 161.819 L2214.4 157.884 Z" fill="#000000" fill-rule="evenodd" fill-opacity="1" /></svg>
