<?xml version="1.0" encoding="utf-8"?>
<svg xmlns="http://www.w3.org/2000/svg" xmlns:xlink="http://www.w3.org/1999/xlink" width="600" height="400" viewBox="0 0 2400 1600">
<defs>
  <clipPath id="clip050">
    <rect x="0" y="0" width="2400" height="1600"/>
  </clipPath>
</defs>
<path clip-path="url(#clip050)" d="
M0 1600 L2400 1600 L2400 0 L0 0  Z
  " fill="#ffffff" fill-rule="evenodd" fill-opacity="1"/>
<defs>
  <clipPath id="clip051">
    <rect x="480" y="0" width="1681" height="1600"/>
  </clipPath>
</defs>
<path clip-path="url(#clip050)" d="
M238.431 1410.9 L2352.76 1410.9 L2352.76 47.2441 L238.431 47.2441  Z
  " fill="#ffffff" fill-rule="evenodd" fill-opacity="1"/>
<defs>
  <clipPath id="clip052">
    <rect x="238" y="47" width="2115" height="1365"/>
  </clipPath>
</defs>
<polyline clip-path="url(#clip052)" style="stroke:#000000; stroke-width:2; stroke-opacity:0.1; fill:none" points="
  298.27,1410.9 298.27,47.2441 
  "/>
<polyline clip-path="url(#clip052)" style="stroke:#000000; stroke-width:2; stroke-opacity:0.1; fill:none" points="
  620.335,1410.9 620.335,47.2441 
  "/>
<polyline clip-path="url(#clip052)" style="stroke:#000000; stroke-width:2; stroke-opacity:0.1; fill:none" points="
  942.4,1410.9 942.4,47.2441 
  "/>
<polyline clip-path="url(#clip052)" style="stroke:#000000; stroke-width:2; stroke-opacity:0.1; fill:none" points="
  1264.46,1410.9 1264.46,47.2441 
  "/>
<polyline clip-path="url(#clip052)" style="stroke:#000000; stroke-width:2; stroke-opacity:0.1; fill:none" points="
  1586.53,1410.9 1586.53,47.2441 
  "/>
<polyline clip-path="url(#clip052)" style="stroke:#000000; stroke-width:2; stroke-opacity:0.1; fill:none" points="
  1908.59,1410.9 1908.59,47.2441 
  "/>
<polyline clip-path="url(#clip052)" style="stroke:#000000; stroke-width:2; stroke-opacity:0.1; fill:none" points="
  2230.66,1410.9 2230.66,47.2441 
  "/>
<polyline clip-path="url(#clip050)" style="stroke:#000000; stroke-width:4; stroke-opacity:1; fill:none" points="
  238.431,1410.9 2352.76,1410.9 
  "/>
<polyline clip-path="url(#clip050)" style="stroke:#000000; stroke-width:4; stroke-opacity:1; fill:none" points="
  298.27,1410.9 298.27,1394.53 
  "/>
<polyline clip-path="url(#clip050)" style="stroke:#000000; stroke-width:4; stroke-opacity:1; fill:none" points="
  620.335,1410.9 620.335,1394.53 
  "/>
<polyline clip-path="url(#clip050)" style="stroke:#000000; stroke-width:4; stroke-opacity:1; fill:none" points="
  942.4,1410.9 942.4,1394.53 
  "/>
<polyline clip-path="url(#clip050)" style="stroke:#000000; stroke-width:4; stroke-opacity:1; fill:none" points="
  1264.46,1410.9 1264.46,1394.53 
  "/>
<polyline clip-path="url(#clip050)" style="stroke:#000000; stroke-width:4; stroke-opacity:1; fill:none" points="
  1586.53,1410.9 1586.53,1394.53 
  "/>
<polyline clip-path="url(#clip050)" style="stroke:#000000; stroke-width:4; stroke-opacity:1; fill:none" points="
  1908.59,1410.9 1908.59,1394.53 
  "/>
<polyline clip-path="url(#clip050)" style="stroke:#000000; stroke-width:4; stroke-opacity:1; fill:none" points="
  2230.66,1410.9 2230.66,1394.53 
  "/>
<path clip-path="url(#clip050)" d="M 0 0 M237.502 1489.17 L245.141 1489.17 L245.141 1462.8 L236.83 1464.47 L236.83 1460.21 L245.094 1458.54 L249.77 1458.54 L249.77 1489.17 L257.409 1489.17 L257.409 1493.1 L237.502 1493.1 L237.502 1489.17 Z" fill="#000000" fill-rule="evenodd" fill-opacity="1" /><path clip-path="url(#clip050)" d="M 0 0 M272.478 1461.62 Q268.867 1461.62 267.039 1465.19 Q265.233 1468.73 265.233 1475.86 Q265.233 1482.97 267.039 1486.53 Q268.867 1490.07 272.478 1490.07 Q276.113 1490.07 277.918 1486.53 Q279.747 1482.97 279.747 1475.86 Q279.747 1468.73 277.918 1465.19 Q276.113 1461.62 272.478 1461.62 M272.478 1457.92 Q278.289 1457.92 281.344 1462.53 Q284.423 1467.11 284.423 1475.86 Q284.423 1484.59 281.344 1489.19 Q278.289 1493.78 272.478 1493.78 Q266.668 1493.78 263.59 1489.19 Q260.534 1484.59 260.534 1475.86 Q260.534 1467.11 263.59 1462.53 Q266.668 1457.92 272.478 1457.92 Z" fill="#000000" fill-rule="evenodd" fill-opacity="1" /><path clip-path="url(#clip050)" d="M 0 0 M284.423 1452.02 L308.534 1452.02 L308.534 1455.22 L284.423 1455.22 L284.423 1452.02 Z" fill="#000000" fill-rule="evenodd" fill-opacity="1" /><path clip-path="url(#clip050)" d="M 0 0 M320.778 1440.11 Q317.844 1440.11 316.358 1443.01 Q314.891 1445.89 314.891 1451.68 Q314.891 1457.46 316.358 1460.35 Q317.844 1463.23 320.778 1463.23 Q323.731 1463.23 325.198 1460.35 Q326.684 1457.46 326.684 1451.68 Q326.684 1445.89 325.198 1443.01 Q323.731 1440.11 320.778 1440.11 M320.778 1437.11 Q325.499 1437.11 327.982 1440.85 Q330.483 1444.57 330.483 1451.68 Q330.483 1458.77 327.982 1462.51 Q325.499 1466.24 320.778 1466.24 Q316.057 1466.24 313.556 1462.51 Q311.073 1458.77 311.073 1451.68 Q311.073 1444.57 313.556 1440.85 Q316.057 1437.11 320.778 1437.11 Z" fill="#000000" fill-rule="evenodd" fill-opacity="1" /><path clip-path="url(#clip050)" d="M 0 0 M334.602 1460.92 L338.57 1460.92 L338.57 1465.69 L334.602 1465.69 L334.602 1460.92 Z" fill="#000000" fill-rule="evenodd" fill-opacity="1" /><path clip-path="url(#clip050)" d="M 0 0 M342.727 1437.61 L357.641 1437.61 L357.641 1440.81 L346.206 1440.81 L346.206 1447.69 Q347.034 1447.41 347.861 1447.28 Q348.689 1447.13 349.516 1447.13 Q354.218 1447.13 356.964 1449.71 Q359.71 1452.28 359.71 1456.68 Q359.71 1461.22 356.889 1463.74 Q354.068 1466.24 348.933 1466.24 Q347.166 1466.24 345.322 1465.94 Q343.498 1465.64 341.542 1465.04 L341.542 1461.22 Q343.235 1462.14 345.04 1462.59 Q346.846 1463.04 348.858 1463.04 Q352.112 1463.04 354.012 1461.33 Q355.911 1459.62 355.911 1456.68 Q355.911 1453.75 354.012 1452.04 Q352.112 1450.33 348.858 1450.33 Q347.335 1450.33 345.811 1450.67 Q344.307 1451 342.727 1451.72 L342.727 1437.61 Z" fill="#000000" fill-rule="evenodd" fill-opacity="1" /><path clip-path="url(#clip050)" d="M 0 0 M558.965 1489.17 L566.603 1489.17 L566.603 1462.8 L558.293 1464.47 L558.293 1460.21 L566.557 1458.54 L571.233 1458.54 L571.233 1489.17 L578.872 1489.17 L578.872 1493.1 L558.965 1493.1 L558.965 1489.17 Z" fill="#000000" fill-rule="evenodd" fill-opacity="1" /><path clip-path="url(#clip050)" d="M 0 0 M593.941 1461.62 Q590.33 1461.62 588.501 1465.19 Q586.696 1468.73 586.696 1475.86 Q586.696 1482.97 588.501 1486.53 Q590.33 1490.07 593.941 1490.07 Q597.575 1490.07 599.381 1486.53 Q601.21 1482.97 601.21 1475.86 Q601.21 1468.73 599.381 1465.19 Q597.575 1461.62 593.941 1461.62 M593.941 1457.92 Q599.751 1457.92 602.807 1462.53 Q605.886 1467.11 605.886 1475.86 Q605.886 1484.59 602.807 1489.19 Q599.751 1493.78 593.941 1493.78 Q588.131 1493.78 585.052 1489.19 Q581.997 1484.59 581.997 1475.86 Q581.997 1467.11 585.052 1462.53 Q588.131 1457.92 593.941 1457.92 Z" fill="#000000" fill-rule="evenodd" fill-opacity="1" /><path clip-path="url(#clip050)" d="M 0 0 M605.886 1452.02 L629.997 1452.02 L629.997 1455.22 L605.886 1455.22 L605.886 1452.02 Z" fill="#000000" fill-rule="evenodd" fill-opacity="1" /><path clip-path="url(#clip050)" d="M 0 0 M642.241 1440.11 Q639.307 1440.11 637.821 1443.01 Q636.354 1445.89 636.354 1451.68 Q636.354 1457.46 637.821 1460.35 Q639.307 1463.23 642.241 1463.23 Q645.194 1463.23 646.661 1460.35 Q648.147 1457.46 648.147 1451.68 Q648.147 1445.89 646.661 1443.01 Q645.194 1440.11 642.241 1440.11 M642.241 1437.11 Q646.962 1437.11 649.444 1440.85 Q651.946 1444.57 651.946 1451.68 Q651.946 1458.77 649.444 1462.51 Q646.962 1466.24 642.241 1466.24 Q637.52 1466.24 635.019 1462.51 Q632.536 1458.77 632.536 1451.68 Q632.536 1444.57 635.019 1440.85 Q637.52 1437.11 642.241 1437.11 Z" fill="#000000" fill-rule="evenodd" fill-opacity="1" /><path clip-path="url(#clip050)" d="M 0 0 M656.065 1460.92 L660.033 1460.92 L660.033 1465.69 L656.065 1465.69 L656.065 1460.92 Z" fill="#000000" fill-rule="evenodd" fill-opacity="1" /><path clip-path="url(#clip050)" d="M 0 0 M674.59 1440.92 L664.998 1455.91 L674.59 1455.91 L674.59 1440.92 M673.594 1437.61 L678.371 1437.61 L678.371 1455.91 L682.377 1455.91 L682.377 1459.07 L678.371 1459.07 L678.371 1465.69 L674.59 1465.69 L674.59 1459.07 L661.914 1459.07 L661.914 1455.41 L673.594 1437.61 Z" fill="#000000" fill-rule="evenodd" fill-opacity="1" /><path clip-path="url(#clip050)" d="M 0 0 M881.49 1489.17 L889.129 1489.17 L889.129 1462.8 L880.819 1464.47 L880.819 1460.21 L889.082 1458.54 L893.758 1458.54 L893.758 1489.17 L901.397 1489.17 L901.397 1493.1 L881.49 1493.1 L881.49 1489.17 Z" fill="#000000" fill-rule="evenodd" fill-opacity="1" /><path clip-path="url(#clip050)" d="M 0 0 M916.467 1461.62 Q912.855 1461.62 911.027 1465.19 Q909.221 1468.73 909.221 1475.86 Q909.221 1482.97 911.027 1486.53 Q912.855 1490.07 916.467 1490.07 Q920.101 1490.07 921.906 1486.53 Q923.735 1482.97 923.735 1475.86 Q923.735 1468.73 921.906 1465.19 Q920.101 1461.62 916.467 1461.62 M916.467 1457.92 Q922.277 1457.92 925.332 1462.53 Q928.411 1467.11 928.411 1475.86 Q928.411 1484.59 925.332 1489.19 Q922.277 1493.78 916.467 1493.78 Q910.656 1493.78 907.578 1489.19 Q904.522 1484.59 904.522 1475.86 Q904.522 1467.11 907.578 1462.53 Q910.656 1457.92 916.467 1457.92 Z" fill="#000000" fill-rule="evenodd" fill-opacity="1" /><path clip-path="url(#clip050)" d="M 0 0 M928.411 1452.02 L952.523 1452.02 L952.523 1455.22 L928.411 1455.22 L928.411 1452.02 Z" fill="#000000" fill-rule="evenodd" fill-opacity="1" /><path clip-path="url(#clip050)" d="M 0 0 M964.766 1440.11 Q961.832 1440.11 960.347 1443.01 Q958.88 1445.89 958.88 1451.68 Q958.88 1457.46 960.347 1460.35 Q961.832 1463.23 964.766 1463.23 Q967.719 1463.23 969.186 1460.35 Q970.672 1457.46 970.672 1451.68 Q970.672 1445.89 969.186 1443.01 Q967.719 1440.11 964.766 1440.11 M964.766 1437.11 Q969.487 1437.11 971.97 1440.85 Q974.471 1444.57 974.471 1451.68 Q974.471 1458.77 971.97 1462.51 Q969.487 1466.24 964.766 1466.24 Q960.046 1466.24 957.544 1462.51 Q955.062 1458.77 955.062 1451.68 Q955.062 1444.57 957.544 1440.85 Q960.046 1437.11 964.766 1437.11 Z" fill="#000000" fill-rule="evenodd" fill-opacity="1" /><path clip-path="url(#clip050)" d="M 0 0 M978.59 1460.92 L982.559 1460.92 L982.559 1465.69 L978.59 1465.69 L978.59 1460.92 Z" fill="#000000" fill-rule="evenodd" fill-opacity="1" /><path clip-path="url(#clip050)" d="M 0 0 M998.188 1450.55 Q1000.91 1451.14 1002.44 1452.98 Q1003.98 1454.82 1003.98 1457.53 Q1003.98 1461.69 1001.12 1463.96 Q998.263 1466.24 992.997 1466.24 Q991.229 1466.24 989.348 1465.88 Q987.486 1465.54 985.493 1464.85 L985.493 1461.18 Q987.072 1462.1 988.953 1462.57 Q990.834 1463.04 992.884 1463.04 Q996.457 1463.04 998.319 1461.63 Q1000.2 1460.22 1000.2 1457.53 Q1000.2 1455.05 998.451 1453.66 Q996.721 1452.25 993.617 1452.25 L990.345 1452.25 L990.345 1449.12 L993.768 1449.12 Q996.57 1449.12 998.056 1448.01 Q999.542 1446.89 999.542 1444.78 Q999.542 1442.62 998 1441.47 Q996.476 1440.3 993.617 1440.3 Q992.056 1440.3 990.27 1440.64 Q988.483 1440.98 986.339 1441.69 L986.339 1438.31 Q988.502 1437.71 990.383 1437.41 Q992.282 1437.11 993.956 1437.11 Q998.282 1437.11 1000.8 1439.08 Q1003.32 1441.04 1003.32 1444.38 Q1003.32 1446.72 1001.99 1448.33 Q1000.65 1449.93 998.188 1450.55 Z" fill="#000000" fill-rule="evenodd" fill-opacity="1" /><path clip-path="url(#clip050)" d="M 0 0 M1203.94 1489.17 L1211.58 1489.17 L1211.58 1462.8 L1203.27 1464.47 L1203.27 1460.21 L1211.53 1458.54 L1216.21 1458.54 L1216.21 1489.17 L1223.85 1489.17 L1223.85 1493.1 L1203.94 1493.1 L1203.94 1489.17 Z" fill="#000000" fill-rule="evenodd" fill-opacity="1" /><path clip-path="url(#clip050)" d="M 0 0 M1238.92 1461.62 Q1235.31 1461.62 1233.48 1465.19 Q1231.67 1468.73 1231.67 1475.86 Q1231.67 1482.97 1233.48 1486.53 Q1235.31 1490.07 1238.92 1490.07 Q1242.55 1490.07 1244.36 1486.53 Q1246.19 1482.97 1246.19 1475.86 Q1246.19 1468.73 1244.36 1465.19 Q1242.55 1461.62 1238.92 1461.62 M1238.92 1457.92 Q1244.73 1457.92 1247.78 1462.53 Q1250.86 1467.11 1250.86 1475.86 Q1250.86 1484.59 1247.78 1489.19 Q1244.73 1493.78 1238.92 1493.78 Q1233.11 1493.78 1230.03 1489.19 Q1226.97 1484.59 1226.97 1475.86 Q1226.97 1467.11 1230.03 1462.53 Q1233.11 1457.92 1238.92 1457.92 Z" fill="#000000" fill-rule="evenodd" fill-opacity="1" /><path clip-path="url(#clip050)" d="M 0 0 M1250.86 1452.02 L1274.97 1452.02 L1274.97 1455.22 L1250.86 1455.22 L1250.86 1452.02 Z" fill="#000000" fill-rule="evenodd" fill-opacity="1" /><path clip-path="url(#clip050)" d="M 0 0 M1287.22 1440.11 Q1284.28 1440.11 1282.8 1443.01 Q1281.33 1445.89 1281.33 1451.68 Q1281.33 1457.46 1282.8 1460.35 Q1284.28 1463.23 1287.22 1463.23 Q1290.17 1463.23 1291.64 1460.35 Q1293.12 1457.46 1293.12 1451.68 Q1293.12 1445.89 1291.64 1443.01 Q1290.17 1440.11 1287.22 1440.11 M1287.22 1437.11 Q1291.94 1437.11 1294.42 1440.85 Q1296.92 1444.57 1296.92 1451.68 Q1296.92 1458.77 1294.42 1462.51 Q1291.94 1466.24 1287.22 1466.24 Q1282.5 1466.24 1279.99 1462.51 Q1277.51 1458.77 1277.51 1451.68 Q1277.51 1444.57 1279.99 1440.85 Q1282.5 1437.11 1287.22 1437.11 Z" fill="#000000" fill-rule="evenodd" fill-opacity="1" /><path clip-path="url(#clip050)" d="M 0 0 M1301.04 1460.92 L1305.01 1460.92 L1305.01 1465.69 L1301.04 1465.69 L1301.04 1460.92 Z" fill="#000000" fill-rule="evenodd" fill-opacity="1" /><path clip-path="url(#clip050)" d="M 0 0 M1312.4 1462.5 L1325.66 1462.5 L1325.66 1465.69 L1307.83 1465.69 L1307.83 1462.5 Q1309.99 1460.26 1313.72 1456.5 Q1317.46 1452.72 1318.42 1451.63 Q1320.24 1449.58 1320.96 1448.16 Q1321.69 1446.74 1321.69 1445.36 Q1321.69 1443.12 1320.11 1441.71 Q1318.55 1440.3 1316.03 1440.3 Q1314.24 1440.3 1312.25 1440.92 Q1310.27 1441.54 1308.02 1442.8 L1308.02 1438.97 Q1310.31 1438.05 1312.31 1437.58 Q1314.3 1437.11 1315.95 1437.11 Q1320.32 1437.11 1322.91 1439.29 Q1325.51 1441.47 1325.51 1445.12 Q1325.51 1446.85 1324.85 1448.41 Q1324.21 1449.95 1322.5 1452.06 Q1322.03 1452.6 1319.51 1455.22 Q1316.99 1457.81 1312.4 1462.5 Z" fill="#000000" fill-rule="evenodd" fill-opacity="1" /><path clip-path="url(#clip050)" d="M 0 0 M1525.85 1489.17 L1533.49 1489.17 L1533.49 1462.8 L1525.18 1464.47 L1525.18 1460.21 L1533.45 1458.54 L1538.12 1458.54 L1538.12 1489.17 L1545.76 1489.17 L1545.76 1493.1 L1525.85 1493.1 L1525.85 1489.17 Z" fill="#000000" fill-rule="evenodd" fill-opacity="1" /><path clip-path="url(#clip050)" d="M 0 0 M1560.83 1461.62 Q1557.22 1461.62 1555.39 1465.19 Q1553.59 1468.73 1553.59 1475.86 Q1553.59 1482.97 1555.39 1486.53 Q1557.22 1490.07 1560.83 1490.07 Q1564.47 1490.07 1566.27 1486.53 Q1568.1 1482.97 1568.1 1475.86 Q1568.1 1468.73 1566.27 1465.19 Q1564.47 1461.62 1560.83 1461.62 M1560.83 1457.92 Q1566.64 1457.92 1569.7 1462.53 Q1572.78 1467.11 1572.78 1475.86 Q1572.78 1484.59 1569.7 1489.19 Q1566.64 1493.78 1560.83 1493.78 Q1555.02 1493.78 1551.94 1489.19 Q1548.89 1484.59 1548.89 1475.86 Q1548.89 1467.11 1551.94 1462.53 Q1555.02 1457.92 1560.83 1457.92 Z" fill="#000000" fill-rule="evenodd" fill-opacity="1" /><path clip-path="url(#clip050)" d="M 0 0 M1572.78 1452.02 L1596.89 1452.02 L1596.89 1455.22 L1572.78 1455.22 L1572.78 1452.02 Z" fill="#000000" fill-rule="evenodd" fill-opacity="1" /><path clip-path="url(#clip050)" d="M 0 0 M1609.13 1440.11 Q1606.2 1440.11 1604.71 1443.01 Q1603.24 1445.89 1603.24 1451.68 Q1603.24 1457.46 1604.71 1460.35 Q1606.2 1463.23 1609.13 1463.23 Q1612.08 1463.23 1613.55 1460.35 Q1615.04 1457.46 1615.04 1451.68 Q1615.04 1445.89 1613.55 1443.01 Q1612.08 1440.11 1609.13 1440.11 M1609.13 1437.11 Q1613.85 1437.11 1616.33 1440.85 Q1618.84 1444.57 1618.84 1451.68 Q1618.84 1458.77 1616.33 1462.51 Q1613.85 1466.24 1609.13 1466.24 Q1604.41 1466.24 1601.91 1462.51 Q1599.43 1458.77 1599.43 1451.68 Q1599.43 1444.57 1601.91 1440.85 Q1604.41 1437.11 1609.13 1437.11 Z" fill="#000000" fill-rule="evenodd" fill-opacity="1" /><path clip-path="url(#clip050)" d="M 0 0 M1622.95 1460.92 L1626.92 1460.92 L1626.92 1465.69 L1622.95 1465.69 L1622.95 1460.92 Z" fill="#000000" fill-rule="evenodd" fill-opacity="1" /><path clip-path="url(#clip050)" d="M 0 0 M1631.7 1462.5 L1637.91 1462.5 L1637.91 1441.07 L1631.15 1442.43 L1631.15 1438.97 L1637.87 1437.61 L1641.67 1437.61 L1641.67 1462.5 L1647.87 1462.5 L1647.87 1465.69 L1631.7 1465.69 L1631.7 1462.5 Z" fill="#000000" fill-rule="evenodd" fill-opacity="1" /><path clip-path="url(#clip050)" d="M 0 0 M1860.75 1489.17 L1868.38 1489.17 L1868.38 1462.8 L1860.07 1464.47 L1860.07 1460.21 L1868.34 1458.54 L1873.01 1458.54 L1873.01 1489.17 L1880.65 1489.17 L1880.65 1493.1 L1860.75 1493.1 L1860.75 1489.17 Z" fill="#000000" fill-rule="evenodd" fill-opacity="1" /><path clip-path="url(#clip050)" d="M 0 0 M1895.72 1461.62 Q1892.11 1461.62 1890.28 1465.19 Q1888.48 1468.73 1888.48 1475.86 Q1888.48 1482.97 1890.28 1486.53 Q1892.11 1490.07 1895.72 1490.07 Q1899.36 1490.07 1901.16 1486.53 Q1902.99 1482.97 1902.99 1475.86 Q1902.99 1468.73 1901.16 1465.19 Q1899.36 1461.62 1895.72 1461.62 M1895.72 1457.92 Q1901.53 1457.92 1904.59 1462.53 Q1907.67 1467.11 1907.67 1475.86 Q1907.67 1484.59 1904.59 1489.19 Q1901.53 1493.78 1895.72 1493.78 Q1889.91 1493.78 1886.83 1489.19 Q1883.78 1484.59 1883.78 1475.86 Q1883.78 1467.11 1886.83 1462.53 Q1889.91 1457.92 1895.72 1457.92 Z" fill="#000000" fill-rule="evenodd" fill-opacity="1" /><path clip-path="url(#clip050)" d="M 0 0 M1917.37 1440.11 Q1914.44 1440.11 1912.95 1443.01 Q1911.48 1445.89 1911.48 1451.68 Q1911.48 1457.46 1912.95 1460.35 Q1914.44 1463.23 1917.37 1463.23 Q1920.32 1463.23 1921.79 1460.35 Q1923.28 1457.46 1923.28 1451.68 Q1923.28 1445.89 1921.79 1443.01 Q1920.32 1440.11 1917.37 1440.11 M1917.37 1437.11 Q1922.09 1437.11 1924.57 1440.85 Q1927.08 1444.57 1927.08 1451.68 Q1927.08 1458.77 1924.57 1462.51 Q1922.09 1466.24 1917.37 1466.24 Q1912.65 1466.24 1910.15 1462.51 Q1907.67 1458.77 1907.67 1451.68 Q1907.67 1444.57 1910.15 1440.85 Q1912.65 1437.11 1917.37 1437.11 Z" fill="#000000" fill-rule="evenodd" fill-opacity="1" /><path clip-path="url(#clip050)" d="M 0 0 M1931.2 1460.92 L1935.16 1460.92 L1935.16 1465.69 L1931.2 1465.69 L1931.2 1460.92 Z" fill="#000000" fill-rule="evenodd" fill-opacity="1" /><path clip-path="url(#clip050)" d="M 0 0 M1947.41 1440.11 Q1944.47 1440.11 1942.99 1443.01 Q1941.52 1445.89 1941.52 1451.68 Q1941.52 1457.46 1942.99 1460.35 Q1944.47 1463.23 1947.41 1463.23 Q1950.36 1463.23 1951.83 1460.35 Q1953.31 1457.46 1953.31 1451.68 Q1953.31 1445.89 1951.83 1443.01 Q1950.36 1440.11 1947.41 1440.11 M1947.41 1437.11 Q1952.13 1437.11 1954.61 1440.85 Q1957.11 1444.57 1957.11 1451.68 Q1957.11 1458.77 1954.61 1462.51 Q1952.13 1466.24 1947.41 1466.24 Q1942.69 1466.24 1940.19 1462.51 Q1937.7 1458.77 1937.7 1451.68 Q1937.7 1444.57 1940.19 1440.85 Q1942.69 1437.11 1947.41 1437.11 Z" fill="#000000" fill-rule="evenodd" fill-opacity="1" /><path clip-path="url(#clip050)" d="M 0 0 M2183.31 1489.17 L2190.95 1489.17 L2190.95 1462.8 L2182.64 1464.47 L2182.64 1460.21 L2190.9 1458.54 L2195.58 1458.54 L2195.58 1489.17 L2203.22 1489.17 L2203.22 1493.1 L2183.31 1493.1 L2183.31 1489.17 Z" fill="#000000" fill-rule="evenodd" fill-opacity="1" /><path clip-path="url(#clip050)" d="M 0 0 M2218.29 1461.62 Q2214.67 1461.62 2212.85 1465.19 Q2211.04 1468.73 2211.04 1475.86 Q2211.04 1482.97 2212.85 1486.53 Q2214.67 1490.07 2218.29 1490.07 Q2221.92 1490.07 2223.73 1486.53 Q2225.55 1482.97 2225.55 1475.86 Q2225.55 1468.73 2223.73 1465.19 Q2221.92 1461.62 2218.29 1461.62 M2218.29 1457.92 Q2224.1 1457.92 2227.15 1462.53 Q2230.23 1467.11 2230.23 1475.86 Q2230.23 1484.59 2227.15 1489.19 Q2224.1 1493.78 2218.29 1493.78 Q2212.48 1493.78 2209.4 1489.19 Q2206.34 1484.59 2206.34 1475.86 Q2206.34 1467.11 2209.4 1462.53 Q2212.48 1457.92 2218.29 1457.92 Z" fill="#000000" fill-rule="evenodd" fill-opacity="1" /><path clip-path="url(#clip050)" d="M 0 0 M2239.93 1440.11 Q2237 1440.11 2235.51 1443.01 Q2234.05 1445.89 2234.05 1451.68 Q2234.05 1457.46 2235.51 1460.35 Q2237 1463.23 2239.93 1463.23 Q2242.89 1463.23 2244.35 1460.35 Q2245.84 1457.46 2245.84 1451.68 Q2245.84 1445.89 2244.35 1443.01 Q2242.89 1440.11 2239.93 1440.11 M2239.93 1437.11 Q2244.66 1437.11 2247.14 1440.85 Q2249.64 1444.57 2249.64 1451.68 Q2249.64 1458.77 2247.14 1462.51 Q2244.66 1466.24 2239.93 1466.24 Q2235.21 1466.24 2232.71 1462.51 Q2230.23 1458.77 2230.23 1451.68 Q2230.23 1444.57 2232.71 1440.85 Q2235.21 1437.11 2239.93 1437.11 Z" fill="#000000" fill-rule="evenodd" fill-opacity="1" /><path clip-path="url(#clip050)" d="M 0 0 M2253.76 1460.92 L2257.73 1460.92 L2257.73 1465.69 L2253.76 1465.69 L2253.76 1460.92 Z" fill="#000000" fill-rule="evenodd" fill-opacity="1" /><path clip-path="url(#clip050)" d="M 0 0 M2262.5 1462.5 L2268.71 1462.5 L2268.71 1441.07 L2261.96 1442.43 L2261.96 1438.97 L2268.67 1437.61 L2272.47 1437.61 L2272.47 1462.5 L2278.68 1462.5 L2278.68 1465.69 L2262.5 1465.69 L2262.5 1462.5 Z" fill="#000000" fill-rule="evenodd" fill-opacity="1" /><path clip-path="url(#clip050)" d="M 0 0 M1187.87 1526.54 L1194.08 1526.54 L1205.22 1556.46 L1216.36 1526.54 L1222.56 1526.54 L1209.19 1562.19 L1201.24 1562.19 L1187.87 1526.54 Z" fill="#000000" fill-rule="evenodd" fill-opacity="1" /><path clip-path="url(#clip050)" d="M 0 0 M1255.79 1573.01 L1255.79 1577.56 L1221.93 1577.56 L1221.93 1573.01 L1255.79 1573.01 Z" fill="#000000" fill-rule="evenodd" fill-opacity="1" /><path clip-path="url(#clip050)" d="M 0 0 M1287.59 1527.91 L1287.59 1533.38 Q1285.11 1532.01 1282.59 1531.34 Q1280.11 1530.64 1277.56 1530.64 Q1271.87 1530.64 1268.71 1534.27 Q1265.56 1537.87 1265.56 1544.39 Q1265.56 1550.92 1268.71 1554.55 Q1271.87 1558.14 1277.56 1558.14 Q1280.11 1558.14 1282.59 1557.47 Q1285.11 1556.77 1287.59 1555.41 L1287.59 1560.82 Q1285.14 1561.96 1282.5 1562.54 Q1279.89 1563.11 1276.93 1563.11 Q1268.87 1563.11 1264.13 1558.05 Q1259.39 1552.99 1259.39 1544.39 Q1259.39 1535.67 1264.16 1530.68 Q1268.97 1525.68 1277.31 1525.68 Q1280.01 1525.68 1282.59 1526.25 Q1285.17 1526.79 1287.59 1527.91 Z" fill="#000000" fill-rule="evenodd" fill-opacity="1" /><path clip-path="url(#clip050)" d="M 0 0 M1293.73 1512.66 L1299.59 1512.66 L1299.59 1562.19 L1293.73 1562.19 L1293.73 1512.66 Z" fill="#000000" fill-rule="evenodd" fill-opacity="1" /><path clip-path="url(#clip050)" d="M 0 0 M1319.54 1530.64 Q1314.83 1530.64 1312.1 1534.34 Q1309.36 1538 1309.36 1544.39 Q1309.36 1550.79 1312.06 1554.48 Q1314.8 1558.14 1319.54 1558.14 Q1324.22 1558.14 1326.96 1554.45 Q1329.7 1550.76 1329.7 1544.39 Q1329.7 1538.06 1326.96 1534.37 Q1324.22 1530.64 1319.54 1530.64 M1319.54 1525.68 Q1327.18 1525.68 1331.54 1530.64 Q1335.9 1535.61 1335.9 1544.39 Q1335.9 1553.15 1331.54 1558.14 Q1327.18 1563.11 1319.54 1563.11 Q1311.87 1563.11 1307.51 1558.14 Q1303.18 1553.15 1303.18 1544.39 Q1303.18 1535.61 1307.51 1530.64 Q1311.87 1525.68 1319.54 1525.68 Z" fill="#000000" fill-rule="evenodd" fill-opacity="1" /><path clip-path="url(#clip050)" d="M 0 0 M1364.77 1527.59 L1364.77 1533.13 Q1362.29 1531.85 1359.62 1531.22 Q1356.94 1530.58 1354.08 1530.58 Q1349.72 1530.58 1347.52 1531.92 Q1345.36 1533.25 1345.36 1535.93 Q1345.36 1537.96 1346.92 1539.14 Q1348.48 1540.29 1353.19 1541.34 L1355.19 1541.78 Q1361.43 1543.12 1364.04 1545.57 Q1366.68 1547.99 1366.68 1552.35 Q1366.68 1557.32 1362.74 1560.21 Q1358.82 1563.11 1351.95 1563.11 Q1349.08 1563.11 1345.96 1562.54 Q1342.87 1561.99 1339.44 1560.88 L1339.44 1554.83 Q1342.68 1556.52 1345.83 1557.38 Q1348.99 1558.21 1352.07 1558.21 Q1356.21 1558.21 1358.44 1556.81 Q1360.67 1555.37 1360.67 1552.8 Q1360.67 1550.41 1359.04 1549.14 Q1357.45 1547.86 1352.01 1546.68 L1349.97 1546.21 Q1344.53 1545.06 1342.11 1542.71 Q1339.69 1540.32 1339.69 1536.18 Q1339.69 1531.15 1343.26 1528.42 Q1346.82 1525.68 1353.38 1525.68 Q1356.62 1525.68 1359.49 1526.16 Q1362.35 1526.63 1364.77 1527.59 Z" fill="#000000" fill-rule="evenodd" fill-opacity="1" /><path clip-path="url(#clip050)" d="M 0 0 M1403.32 1542.9 L1403.32 1545.76 L1376.39 1545.76 Q1376.77 1551.81 1380.02 1554.99 Q1383.3 1558.14 1389.12 1558.14 Q1392.5 1558.14 1395.65 1557.32 Q1398.83 1556.49 1401.95 1554.83 L1401.95 1560.37 Q1398.8 1561.71 1395.49 1562.41 Q1392.18 1563.11 1388.77 1563.11 Q1380.24 1563.11 1375.24 1558.14 Q1370.28 1553.18 1370.28 1544.71 Q1370.28 1535.96 1374.99 1530.83 Q1379.73 1525.68 1387.75 1525.68 Q1394.95 1525.68 1399.12 1530.33 Q1403.32 1534.94 1403.32 1542.9 M1397.46 1541.18 Q1397.4 1536.37 1394.76 1533.51 Q1392.15 1530.64 1387.82 1530.64 Q1382.92 1530.64 1379.95 1533.41 Q1377.03 1536.18 1376.58 1541.21 L1397.46 1541.18 Z" fill="#000000" fill-rule="evenodd" fill-opacity="1" /><polyline clip-path="url(#clip052)" style="stroke:#000000; stroke-width:2; stroke-opacity:0.1; fill:none" points="
  238.431,1335.23 2352.76,1335.23 
  "/>
<polyline clip-path="url(#clip052)" style="stroke:#000000; stroke-width:2; stroke-opacity:0.1; fill:none" points="
  238.431,1013.61 2352.76,1013.61 
  "/>
<polyline clip-path="url(#clip052)" style="stroke:#000000; stroke-width:2; stroke-opacity:0.1; fill:none" points="
  238.431,691.994 2352.76,691.994 
  "/>
<polyline clip-path="url(#clip052)" style="stroke:#000000; stroke-width:2; stroke-opacity:0.1; fill:none" points="
  238.431,370.378 2352.76,370.378 
  "/>
<polyline clip-path="url(#clip052)" style="stroke:#000000; stroke-width:2; stroke-opacity:0.1; fill:none" points="
  238.431,48.7621 2352.76,48.7621 
  "/>
<polyline clip-path="url(#clip050)" style="stroke:#000000; stroke-width:4; stroke-opacity:1; fill:none" points="
  238.431,1410.9 238.431,47.2441 
  "/>
<polyline clip-path="url(#clip050)" style="stroke:#000000; stroke-width:4; stroke-opacity:1; fill:none" points="
  238.431,1335.23 263.803,1335.23 
  "/>
<polyline clip-path="url(#clip050)" style="stroke:#000000; stroke-width:4; stroke-opacity:1; fill:none" points="
  238.431,1013.61 263.803,1013.61 
  "/>
<polyline clip-path="url(#clip050)" style="stroke:#000000; stroke-width:4; stroke-opacity:1; fill:none" points="
  238.431,691.994 263.803,691.994 
  "/>
<polyline clip-path="url(#clip050)" style="stroke:#000000; stroke-width:4; stroke-opacity:1; fill:none" points="
  238.431,370.378 263.803,370.378 
  "/>
<polyline clip-path="url(#clip050)" style="stroke:#000000; stroke-width:4; stroke-opacity:1; fill:none" points="
  238.431,48.7621 263.803,48.7621 
  "/>
<path clip-path="url(#clip050)" d="M 0 0 M131.459 1322.02 L119.654 1340.47 L131.459 1340.47 L131.459 1322.02 M130.232 1317.95 L136.112 1317.95 L136.112 1340.47 L141.042 1340.47 L141.042 1344.36 L136.112 1344.36 L136.112 1352.51 L131.459 1352.51 L131.459 1344.36 L115.857 1344.36 L115.857 1339.84 L130.232 1317.95 Z" fill="#000000" fill-rule="evenodd" fill-opacity="1" /><path clip-path="url(#clip050)" d="M 0 0 M146.112 1346.63 L150.996 1346.63 L150.996 1352.51 L146.112 1352.51 L146.112 1346.63 Z" fill="#000000" fill-rule="evenodd" fill-opacity="1" /><path clip-path="url(#clip050)" d="M 0 0 M160.093 1348.57 L176.413 1348.57 L176.413 1352.51 L154.468 1352.51 L154.468 1348.57 Q157.13 1345.82 161.714 1341.19 Q166.32 1336.53 167.501 1335.19 Q169.746 1332.67 170.626 1330.93 Q171.528 1329.17 171.528 1327.48 Q171.528 1324.73 169.584 1322.99 Q167.663 1321.26 164.561 1321.26 Q162.362 1321.26 159.908 1322.02 Q157.478 1322.78 154.7 1324.34 L154.7 1319.61 Q157.524 1318.48 159.978 1317.9 Q162.431 1317.32 164.468 1317.32 Q169.839 1317.32 173.033 1320.01 Q176.227 1322.69 176.227 1327.18 Q176.227 1329.31 175.417 1331.23 Q174.63 1333.13 172.524 1335.72 Q171.945 1336.4 168.843 1339.61 Q165.741 1342.81 160.093 1348.57 Z" fill="#000000" fill-rule="evenodd" fill-opacity="1" /><path clip-path="url(#clip050)" d="M 0 0 M181.528 1317.95 L199.885 1317.95 L199.885 1321.88 L185.811 1321.88 L185.811 1330.35 Q186.829 1330.01 187.848 1329.84 Q188.866 1329.66 189.885 1329.66 Q195.672 1329.66 199.051 1332.83 Q202.431 1336 202.431 1341.42 Q202.431 1347 198.959 1350.1 Q195.487 1353.18 189.167 1353.18 Q186.991 1353.18 184.723 1352.81 Q182.477 1352.44 180.07 1351.7 L180.07 1347 Q182.153 1348.13 184.376 1348.69 Q186.598 1349.24 189.075 1349.24 Q193.079 1349.24 195.417 1347.14 Q197.755 1345.03 197.755 1341.42 Q197.755 1337.81 195.417 1335.7 Q193.079 1333.59 189.075 1333.59 Q187.2 1333.59 185.325 1334.01 Q183.473 1334.43 181.528 1335.31 L181.528 1317.95 Z" fill="#000000" fill-rule="evenodd" fill-opacity="1" /><path clip-path="url(#clip050)" d="M 0 0 M129.862 1000.4 L118.056 1018.85 L129.862 1018.85 L129.862 1000.4 M128.635 996.331 L134.515 996.331 L134.515 1018.85 L139.445 1018.85 L139.445 1022.74 L134.515 1022.74 L134.515 1030.89 L129.862 1030.89 L129.862 1022.74 L114.26 1022.74 L114.26 1018.23 L128.635 996.331 Z" fill="#000000" fill-rule="evenodd" fill-opacity="1" /><path clip-path="url(#clip050)" d="M 0 0 M144.515 1025.01 L149.399 1025.01 L149.399 1030.89 L144.515 1030.89 L144.515 1025.01 Z" fill="#000000" fill-rule="evenodd" fill-opacity="1" /><path clip-path="url(#clip050)" d="M 0 0 M154.515 996.331 L172.871 996.331 L172.871 1000.27 L158.797 1000.27 L158.797 1008.74 Q159.815 1008.39 160.834 1008.23 Q161.852 1008.04 162.871 1008.04 Q168.658 1008.04 172.038 1011.21 Q175.417 1014.39 175.417 1019.8 Q175.417 1025.38 171.945 1028.48 Q168.473 1031.56 162.153 1031.56 Q159.978 1031.56 157.709 1031.19 Q155.464 1030.82 153.056 1030.08 L153.056 1025.38 Q155.14 1026.52 157.362 1027.07 Q159.584 1027.63 162.061 1027.63 Q166.065 1027.63 168.403 1025.52 Q170.741 1023.41 170.741 1019.8 Q170.741 1016.19 168.403 1014.09 Q166.065 1011.98 162.061 1011.98 Q160.186 1011.98 158.311 1012.4 Q156.459 1012.81 154.515 1013.69 L154.515 996.331 Z" fill="#000000" fill-rule="evenodd" fill-opacity="1" /><path clip-path="url(#clip050)" d="M 0 0 M190.487 999.409 Q186.876 999.409 185.047 1002.97 Q183.241 1006.52 183.241 1013.65 Q183.241 1020.75 185.047 1024.32 Q186.876 1027.86 190.487 1027.86 Q194.121 1027.86 195.926 1024.32 Q197.755 1020.75 197.755 1013.65 Q197.755 1006.52 195.926 1002.97 Q194.121 999.409 190.487 999.409 M190.487 995.706 Q196.297 995.706 199.352 1000.31 Q202.431 1004.9 202.431 1013.65 Q202.431 1022.37 199.352 1026.98 Q196.297 1031.56 190.487 1031.56 Q184.676 1031.56 181.598 1026.98 Q178.542 1022.37 178.542 1013.65 Q178.542 1004.9 181.598 1000.31 Q184.676 995.706 190.487 995.706 Z" fill="#000000" fill-rule="evenodd" fill-opacity="1" /><path clip-path="url(#clip050)" d="M 0 0 M130.765 678.788 L118.959 697.237 L130.765 697.237 L130.765 678.788 M129.538 674.714 L135.417 674.714 L135.417 697.237 L140.348 697.237 L140.348 701.126 L135.417 701.126 L135.417 709.274 L130.765 709.274 L130.765 701.126 L115.163 701.126 L115.163 696.612 L129.538 674.714 Z" fill="#000000" fill-rule="evenodd" fill-opacity="1" /><path clip-path="url(#clip050)" d="M 0 0 M145.417 703.395 L150.302 703.395 L150.302 709.274 L145.417 709.274 L145.417 703.395 Z" fill="#000000" fill-rule="evenodd" fill-opacity="1" /><path clip-path="url(#clip050)" d="M 0 0 M154.19 674.714 L176.413 674.714 L176.413 676.705 L163.866 709.274 L158.982 709.274 L170.788 678.65 L154.19 678.65 L154.19 674.714 Z" fill="#000000" fill-rule="evenodd" fill-opacity="1" /><path clip-path="url(#clip050)" d="M 0 0 M181.528 674.714 L199.885 674.714 L199.885 678.65 L185.811 678.65 L185.811 687.122 Q186.829 686.775 187.848 686.612 Q188.866 686.427 189.885 686.427 Q195.672 686.427 199.051 689.599 Q202.431 692.77 202.431 698.187 Q202.431 703.765 198.959 706.867 Q195.487 709.946 189.167 709.946 Q186.991 709.946 184.723 709.575 Q182.477 709.205 180.07 708.464 L180.07 703.765 Q182.153 704.899 184.376 705.455 Q186.598 706.011 189.075 706.011 Q193.079 706.011 195.417 703.904 Q197.755 701.798 197.755 698.187 Q197.755 694.575 195.417 692.469 Q193.079 690.362 189.075 690.362 Q187.2 690.362 185.325 690.779 Q183.473 691.196 181.528 692.075 L181.528 674.714 Z" fill="#000000" fill-rule="evenodd" fill-opacity="1" /><path clip-path="url(#clip050)" d="M 0 0 M117.547 353.098 L135.904 353.098 L135.904 357.033 L121.83 357.033 L121.83 365.506 Q122.848 365.158 123.867 364.996 Q124.885 364.811 125.904 364.811 Q131.691 364.811 135.07 367.982 Q138.45 371.154 138.45 376.57 Q138.45 382.149 134.978 385.251 Q131.505 388.33 125.186 388.33 Q123.01 388.33 120.742 387.959 Q118.496 387.589 116.089 386.848 L116.089 382.149 Q118.172 383.283 120.394 383.839 Q122.617 384.394 125.093 384.394 Q129.098 384.394 131.436 382.288 Q133.774 380.181 133.774 376.57 Q133.774 372.959 131.436 370.853 Q129.098 368.746 125.093 368.746 Q123.218 368.746 121.343 369.163 Q119.492 369.58 117.547 370.459 L117.547 353.098 Z" fill="#000000" fill-rule="evenodd" fill-opacity="1" /><path clip-path="url(#clip050)" d="M 0 0 M143.519 381.779 L148.403 381.779 L148.403 387.658 L143.519 387.658 L143.519 381.779 Z" fill="#000000" fill-rule="evenodd" fill-opacity="1" /><path clip-path="url(#clip050)" d="M 0 0 M163.473 356.177 Q159.862 356.177 158.033 359.742 Q156.228 363.283 156.228 370.413 Q156.228 377.519 158.033 381.084 Q159.862 384.626 163.473 384.626 Q167.107 384.626 168.913 381.084 Q170.741 377.519 170.741 370.413 Q170.741 363.283 168.913 359.742 Q167.107 356.177 163.473 356.177 M163.473 352.473 Q169.283 352.473 172.339 357.08 Q175.417 361.663 175.417 370.413 Q175.417 379.14 172.339 383.746 Q169.283 388.33 163.473 388.33 Q157.663 388.33 154.584 383.746 Q151.528 379.14 151.528 370.413 Q151.528 361.663 154.584 357.08 Q157.663 352.473 163.473 352.473 Z" fill="#000000" fill-rule="evenodd" fill-opacity="1" /><path clip-path="url(#clip050)" d="M 0 0 M190.487 356.177 Q186.876 356.177 185.047 359.742 Q183.241 363.283 183.241 370.413 Q183.241 377.519 185.047 381.084 Q186.876 384.626 190.487 384.626 Q194.121 384.626 195.926 381.084 Q197.755 377.519 197.755 370.413 Q197.755 363.283 195.926 359.742 Q194.121 356.177 190.487 356.177 M190.487 352.473 Q196.297 352.473 199.352 357.08 Q202.431 361.663 202.431 370.413 Q202.431 379.14 199.352 383.746 Q196.297 388.33 190.487 388.33 Q184.676 388.33 181.598 383.746 Q178.542 379.14 178.542 370.413 Q178.542 361.663 181.598 357.08 Q184.676 352.473 190.487 352.473 Z" fill="#000000" fill-rule="evenodd" fill-opacity="1" /><path clip-path="url(#clip050)" d="M 0 0 M120.14 31.4821 L138.496 31.4821 L138.496 35.4172 L124.422 35.4172 L124.422 43.8894 Q125.441 43.5422 126.459 43.3802 Q127.478 43.195 128.496 43.195 Q134.283 43.195 137.663 46.3663 Q141.042 49.5375 141.042 54.9542 Q141.042 60.5328 137.57 63.6347 Q134.098 66.7134 127.779 66.7134 Q125.603 66.7134 123.334 66.343 Q121.089 65.9726 118.681 65.2319 L118.681 60.5328 Q120.765 61.6671 122.987 62.2227 Q125.209 62.7782 127.686 62.7782 Q131.691 62.7782 134.029 60.6717 Q136.367 58.5653 136.367 54.9542 Q136.367 51.3431 134.029 49.2366 Q131.691 47.1301 127.686 47.1301 Q125.811 47.1301 123.936 47.5468 Q122.084 47.9635 120.14 48.8431 L120.14 31.4821 Z" fill="#000000" fill-rule="evenodd" fill-opacity="1" /><path clip-path="url(#clip050)" d="M 0 0 M146.112 60.1625 L150.996 60.1625 L150.996 66.0421 L146.112 66.0421 L146.112 60.1625 Z" fill="#000000" fill-rule="evenodd" fill-opacity="1" /><path clip-path="url(#clip050)" d="M 0 0 M160.093 62.1069 L176.413 62.1069 L176.413 66.0421 L154.468 66.0421 L154.468 62.1069 Q157.13 59.3523 161.714 54.7227 Q166.32 50.0699 167.501 48.7274 Q169.746 46.2042 170.626 44.4681 Q171.528 42.7089 171.528 41.0191 Q171.528 38.2644 169.584 36.5283 Q167.663 34.7922 164.561 34.7922 Q162.362 34.7922 159.908 35.5561 Q157.478 36.32 154.7 37.8709 L154.7 33.1487 Q157.524 32.0145 159.978 31.4358 Q162.431 30.8571 164.468 30.8571 Q169.839 30.8571 173.033 33.5422 Q176.227 36.2274 176.227 40.7181 Q176.227 42.8478 175.417 44.769 Q174.63 46.6672 172.524 49.2598 Q171.945 49.931 168.843 53.1486 Q165.741 56.3431 160.093 62.1069 Z" fill="#000000" fill-rule="evenodd" fill-opacity="1" /><path clip-path="url(#clip050)" d="M 0 0 M181.528 31.4821 L199.885 31.4821 L199.885 35.4172 L185.811 35.4172 L185.811 43.8894 Q186.829 43.5422 187.848 43.3802 Q188.866 43.195 189.885 43.195 Q195.672 43.195 199.051 46.3663 Q202.431 49.5375 202.431 54.9542 Q202.431 60.5328 198.959 63.6347 Q195.487 66.7134 189.167 66.7134 Q186.991 66.7134 184.723 66.343 Q182.477 65.9726 180.07 65.2319 L180.07 60.5328 Q182.153 61.6671 184.376 62.2227 Q186.598 62.7782 189.075 62.7782 Q193.079 62.7782 195.417 60.6717 Q197.755 58.5653 197.755 54.9542 Q197.755 51.3431 195.417 49.2366 Q193.079 47.1301 189.075 47.1301 Q187.2 47.1301 185.325 47.5468 Q183.473 47.9635 181.528 48.8431 L181.528 31.4821 Z" fill="#000000" fill-rule="evenodd" fill-opacity="1" /><path clip-path="url(#clip050)" d="M 0 0 M59.1993 815.533 Q55.2526 813.336 53.3747 810.281 Q51.4968 807.225 51.4968 803.088 Q51.4968 797.518 55.4117 794.494 Q59.2948 791.47 66.4881 791.47 L88.0042 791.47 L88.0042 797.358 L66.679 797.358 Q61.5546 797.358 59.072 799.173 Q56.5894 800.987 56.5894 804.711 Q56.5894 809.262 59.6131 811.904 Q62.6368 814.546 67.8567 814.546 L88.0042 814.546 L88.0042 820.434 L66.679 820.434 Q61.5228 820.434 59.072 822.248 Q56.5894 824.063 56.5894 827.85 Q56.5894 832.338 59.6449 834.98 Q62.6686 837.622 67.8567 837.622 L88.0042 837.622 L88.0042 843.51 L52.3562 843.51 L52.3562 837.622 L57.8944 837.622 Q54.616 835.616 53.0564 832.815 Q51.4968 830.015 51.4968 826.163 Q51.4968 822.28 53.4702 819.575 Q55.4436 816.838 59.1993 815.533 Z" fill="#000000" fill-rule="evenodd" fill-opacity="1" /><path clip-path="url(#clip050)" d="M 0 0 M52.3562 785.327 L52.3562 779.471 L88.0042 779.471 L88.0042 785.327 L52.3562 785.327 M38.479 785.327 L38.479 779.471 L45.895 779.471 L45.895 785.327 L38.479 785.327 Z" fill="#000000" fill-rule="evenodd" fill-opacity="1" /><path clip-path="url(#clip050)" d="M 0 0 M66.4881 743.696 L88.0042 743.696 L88.0042 749.552 L66.679 749.552 Q61.6183 749.552 59.1038 751.525 Q56.5894 753.499 56.5894 757.446 Q56.5894 762.188 59.6131 764.925 Q62.6368 767.662 67.8567 767.662 L88.0042 767.662 L88.0042 773.551 L52.3562 773.551 L52.3562 767.662 L57.8944 767.662 Q54.6797 765.562 53.0883 762.729 Q51.4968 759.864 51.4968 756.141 Q51.4968 749.998 55.3163 746.847 Q59.1038 743.696 66.4881 743.696 Z" fill="#000000" fill-rule="evenodd" fill-opacity="1" /><path clip-path="url(#clip050)" d="M 0 0 M98.8259 710.467 L103.377 710.467 L103.377 744.332 L98.8259 744.332 L98.8259 710.467 Z" fill="#000000" fill-rule="evenodd" fill-opacity="1" /><path clip-path="url(#clip050)" d="M 0 0 M57.7671 680.866 L38.479 680.866 L38.479 675.01 L88.0042 675.01 L88.0042 680.866 L82.657 680.866 Q85.8398 682.712 87.3994 685.545 Q88.9272 688.346 88.9272 692.292 Q88.9272 698.754 83.771 702.828 Q78.6147 706.87 70.212 706.87 Q61.8093 706.87 56.6531 702.828 Q51.4968 698.754 51.4968 692.292 Q51.4968 688.346 53.0564 685.545 Q54.5842 682.712 57.7671 680.866 M70.212 700.823 Q76.6732 700.823 80.3653 698.181 Q84.0256 695.507 84.0256 690.86 Q84.0256 686.213 80.3653 683.54 Q76.6732 680.866 70.212 680.866 Q63.7508 680.866 60.0905 683.54 Q56.3984 686.213 56.3984 690.86 Q56.3984 695.507 60.0905 698.181 Q63.7508 700.823 70.212 700.823 Z" fill="#000000" fill-rule="evenodd" fill-opacity="1" /><path clip-path="url(#clip050)" d="M 0 0 M52.3562 668.867 L52.3562 663.01 L88.0042 663.01 L88.0042 668.867 L52.3562 668.867 M38.479 668.867 L38.479 663.01 L45.895 663.01 L45.895 668.867 L38.479 668.867 Z" fill="#000000" fill-rule="evenodd" fill-opacity="1" /><path clip-path="url(#clip050)" d="M 0 0 M38.479 638.821 L43.3487 638.821 L43.3487 644.422 Q43.3487 647.573 44.6219 648.815 Q45.895 650.024 49.2052 650.024 L52.3562 650.024 L52.3562 640.38 L56.9077 640.38 L56.9077 650.024 L88.0042 650.024 L88.0042 655.912 L56.9077 655.912 L56.9077 661.514 L52.3562 661.514 L52.3562 655.912 L49.8736 655.912 Q43.9216 655.912 41.2162 653.143 Q38.479 650.374 38.479 644.359 L38.479 638.821 Z" fill="#000000" fill-rule="evenodd" fill-opacity="1" /><path clip-path="url(#clip050)" d="M 0 0 M38.479 614.631 L43.3487 614.631 L43.3487 620.233 Q43.3487 623.384 44.6219 624.625 Q45.895 625.835 49.2052 625.835 L52.3562 625.835 L52.3562 616.19 L56.9077 616.19 L56.9077 625.835 L88.0042 625.835 L88.0042 631.723 L56.9077 631.723 L56.9077 637.325 L52.3562 637.325 L52.3562 631.723 L49.8736 631.723 Q43.9216 631.723 41.2162 628.954 Q38.479 626.185 38.479 620.169 L38.479 614.631 Z" fill="#000000" fill-rule="evenodd" fill-opacity="1" /><path clip-path="url(#clip050)" d="
M1996.34 213.659 L2282.28 213.659 L2282.28 92.6992 L1996.34 92.6992  Z
  " fill="#ffffff" fill-rule="evenodd" fill-opacity="1"/>
<polyline clip-path="url(#clip050)" style="stroke:#000000; stroke-width:4; stroke-opacity:1; fill:none" points="
  1996.34,213.659 2282.28,213.659 2282.28,92.6992 1996.34,92.6992 1996.34,213.659 
  "/>
<polyline clip-path="url(#clip050)" style="stroke:#009af9; stroke-width:4; stroke-opacity:1; fill:none" stroke-dasharray="16, 10" points="
  2019.83,153.179 2160.78,153.179 
  "/>
<path clip-path="url(#clip050)" d="M 0 0 M2198.12 172.867 Q2196.31 177.496 2194.6 178.908 Q2192.89 180.32 2190.02 180.32 L2186.61 180.32 L2186.61 176.755 L2189.11 176.755 Q2190.87 176.755 2191.84 175.922 Q2192.82 175.089 2194 171.987 L2194.76 170.043 L2184.28 144.533 L2188.79 144.533 L2196.89 164.811 L2204.99 144.533 L2209.51 144.533 L2198.12 172.867 Z" fill="#000000" fill-rule="evenodd" fill-opacity="1" /><path clip-path="url(#clip050)" d="M 0 0 M2215.39 166.524 L2223.02 166.524 L2223.02 140.158 L2214.71 141.825 L2214.71 137.566 L2222.98 135.899 L2227.65 135.899 L2227.65 166.524 L2235.29 166.524 L2235.29 170.459 L2215.39 170.459 L2215.39 166.524 Z" fill="#000000" fill-rule="evenodd" fill-opacity="1" /></svg>
