<?xml version="1.0" encoding="utf-8"?>
<svg xmlns="http://www.w3.org/2000/svg" xmlns:xlink="http://www.w3.org/1999/xlink" width="600" height="400" viewBox="0 0 2400 1600">
<defs>
  <clipPath id="clip140">
    <rect x="0" y="0" width="2400" height="1600"/>
  </clipPath>
</defs>
<path clip-path="url(#clip140)" d="
M0 1600 L2400 1600 L2400 0 L0 0  Z
  " fill="#ffffff" fill-rule="evenodd" fill-opacity="1"/>
<defs>
  <clipPath id="clip141">
    <rect x="480" y="0" width="1681" height="1600"/>
  </clipPath>
</defs>
<path clip-path="url(#clip140)" d="
M279.519 1410.9 L2352.76 1410.9 L2352.76 47.2441 L279.519 47.2441  Z
  " fill="#ffffff" fill-rule="evenodd" fill-opacity="1"/>
<defs>
  <clipPath id="clip142">
    <rect x="279" y="47" width="2074" height="1365"/>
  </clipPath>
</defs>
<polyline clip-path="url(#clip142)" style="stroke:#000000; stroke-width:2; stroke-opacity:0.1; fill:none" points="
  490.077,1410.9 490.077,47.2441 
  "/>
<polyline clip-path="url(#clip142)" style="stroke:#000000; stroke-width:2; stroke-opacity:0.1; fill:none" points="
  790.744,1410.9 790.744,47.2441 
  "/>
<polyline clip-path="url(#clip142)" style="stroke:#000000; stroke-width:2; stroke-opacity:0.1; fill:none" points="
  1091.41,1410.9 1091.41,47.2441 
  "/>
<polyline clip-path="url(#clip142)" style="stroke:#000000; stroke-width:2; stroke-opacity:0.1; fill:none" points="
  1392.08,1410.9 1392.08,47.2441 
  "/>
<polyline clip-path="url(#clip142)" style="stroke:#000000; stroke-width:2; stroke-opacity:0.1; fill:none" points="
  1692.75,1410.9 1692.75,47.2441 
  "/>
<polyline clip-path="url(#clip142)" style="stroke:#000000; stroke-width:2; stroke-opacity:0.1; fill:none" points="
  1993.41,1410.9 1993.41,47.2441 
  "/>
<polyline clip-path="url(#clip142)" style="stroke:#000000; stroke-width:2; stroke-opacity:0.1; fill:none" points="
  2294.08,1410.9 2294.08,47.2441 
  "/>
<polyline clip-path="url(#clip140)" style="stroke:#000000; stroke-width:4; stroke-opacity:1; fill:none" points="
  279.519,1410.9 2352.76,1410.9 
  "/>
<polyline clip-path="url(#clip140)" style="stroke:#000000; stroke-width:4; stroke-opacity:1; fill:none" points="
  490.077,1410.9 490.077,1394.53 
  "/>
<polyline clip-path="url(#clip140)" style="stroke:#000000; stroke-width:4; stroke-opacity:1; fill:none" points="
  790.744,1410.9 790.744,1394.53 
  "/>
<polyline clip-path="url(#clip140)" style="stroke:#000000; stroke-width:4; stroke-opacity:1; fill:none" points="
  1091.41,1410.9 1091.41,1394.53 
  "/>
<polyline clip-path="url(#clip140)" style="stroke:#000000; stroke-width:4; stroke-opacity:1; fill:none" points="
  1392.08,1410.9 1392.08,1394.53 
  "/>
<polyline clip-path="url(#clip140)" style="stroke:#000000; stroke-width:4; stroke-opacity:1; fill:none" points="
  1692.75,1410.9 1692.75,1394.53 
  "/>
<polyline clip-path="url(#clip140)" style="stroke:#000000; stroke-width:4; stroke-opacity:1; fill:none" points="
  1993.41,1410.9 1993.41,1394.53 
  "/>
<polyline clip-path="url(#clip140)" style="stroke:#000000; stroke-width:4; stroke-opacity:1; fill:none" points="
  2294.08,1410.9 2294.08,1394.53 
  "/>
<path clip-path="url(#clip140)" d="M 0 0 M429.553 1489.17 L437.192 1489.17 L437.192 1462.8 L428.882 1464.47 L428.882 1460.21 L437.146 1458.54 L441.822 1458.54 L441.822 1489.17 L449.46 1489.17 L449.46 1493.1 L429.553 1493.1 L429.553 1489.17 Z" fill="#000000" fill-rule="evenodd" fill-opacity="1" /><path clip-path="url(#clip140)" d="M 0 0 M464.53 1461.62 Q460.919 1461.62 459.09 1465.19 Q457.284 1468.73 457.284 1475.86 Q457.284 1482.97 459.09 1486.53 Q460.919 1490.07 464.53 1490.07 Q468.164 1490.07 469.97 1486.53 Q471.798 1482.97 471.798 1475.86 Q471.798 1468.73 469.97 1465.19 Q468.164 1461.62 464.53 1461.62 M464.53 1457.92 Q470.34 1457.92 473.395 1462.53 Q476.474 1467.11 476.474 1475.86 Q476.474 1484.59 473.395 1489.19 Q470.34 1493.78 464.53 1493.78 Q458.72 1493.78 455.641 1489.19 Q452.585 1484.59 452.585 1475.86 Q452.585 1467.11 455.641 1462.53 Q458.72 1457.92 464.53 1457.92 Z" fill="#000000" fill-rule="evenodd" fill-opacity="1" /><path clip-path="url(#clip140)" d="M 0 0 M476.474 1452.02 L500.586 1452.02 L500.586 1455.22 L476.474 1455.22 L476.474 1452.02 Z" fill="#000000" fill-rule="evenodd" fill-opacity="1" /><path clip-path="url(#clip140)" d="M 0 0 M512.83 1440.11 Q509.896 1440.11 508.41 1443.01 Q506.943 1445.89 506.943 1451.68 Q506.943 1457.46 508.41 1460.35 Q509.896 1463.23 512.83 1463.23 Q515.782 1463.23 517.249 1460.35 Q518.735 1457.46 518.735 1451.68 Q518.735 1445.89 517.249 1443.01 Q515.782 1440.11 512.83 1440.11 M512.83 1437.11 Q517.55 1437.11 520.033 1440.85 Q522.534 1444.57 522.534 1451.68 Q522.534 1458.77 520.033 1462.51 Q517.55 1466.24 512.83 1466.24 Q508.109 1466.24 505.607 1462.51 Q503.125 1458.77 503.125 1451.68 Q503.125 1444.57 505.607 1440.85 Q508.109 1437.11 512.83 1437.11 Z" fill="#000000" fill-rule="evenodd" fill-opacity="1" /><path clip-path="url(#clip140)" d="M 0 0 M526.653 1460.92 L530.622 1460.92 L530.622 1465.69 L526.653 1465.69 L526.653 1460.92 Z" fill="#000000" fill-rule="evenodd" fill-opacity="1" /><path clip-path="url(#clip140)" d="M 0 0 M538.013 1462.5 L551.273 1462.5 L551.273 1465.69 L533.443 1465.69 L533.443 1462.5 Q535.606 1460.26 539.33 1456.5 Q543.072 1452.72 544.032 1451.63 Q545.856 1449.58 546.571 1448.16 Q547.304 1446.74 547.304 1445.36 Q547.304 1443.12 545.724 1441.71 Q544.163 1440.3 541.643 1440.3 Q539.856 1440.3 537.863 1440.92 Q535.888 1441.54 533.631 1442.8 L533.631 1438.97 Q535.925 1438.05 537.919 1437.58 Q539.913 1437.11 541.568 1437.11 Q545.931 1437.11 548.527 1439.29 Q551.122 1441.47 551.122 1445.12 Q551.122 1446.85 550.464 1448.41 Q549.824 1449.95 548.113 1452.06 Q547.643 1452.6 545.122 1455.22 Q542.602 1457.81 538.013 1462.5 Z" fill="#000000" fill-rule="evenodd" fill-opacity="1" /><path clip-path="url(#clip140)" d="M 0 0 M742.897 1489.17 L750.535 1489.17 L750.535 1462.8 L742.225 1464.47 L742.225 1460.21 L750.489 1458.54 L755.165 1458.54 L755.165 1489.17 L762.804 1489.17 L762.804 1493.1 L742.897 1493.1 L742.897 1489.17 Z" fill="#000000" fill-rule="evenodd" fill-opacity="1" /><path clip-path="url(#clip140)" d="M 0 0 M777.873 1461.62 Q774.262 1461.62 772.433 1465.19 Q770.628 1468.73 770.628 1475.86 Q770.628 1482.97 772.433 1486.53 Q774.262 1490.07 777.873 1490.07 Q781.507 1490.07 783.313 1486.53 Q785.142 1482.97 785.142 1475.86 Q785.142 1468.73 783.313 1465.19 Q781.507 1461.62 777.873 1461.62 M777.873 1457.92 Q783.683 1457.92 786.739 1462.53 Q789.818 1467.11 789.818 1475.86 Q789.818 1484.59 786.739 1489.19 Q783.683 1493.78 777.873 1493.78 Q772.063 1493.78 768.984 1489.19 Q765.929 1484.59 765.929 1475.86 Q765.929 1467.11 768.984 1462.53 Q772.063 1457.92 777.873 1457.92 Z" fill="#000000" fill-rule="evenodd" fill-opacity="1" /><path clip-path="url(#clip140)" d="M 0 0 M799.522 1440.11 Q796.588 1440.11 795.103 1443.01 Q793.636 1445.89 793.636 1451.68 Q793.636 1457.46 795.103 1460.35 Q796.588 1463.23 799.522 1463.23 Q802.475 1463.23 803.942 1460.35 Q805.428 1457.46 805.428 1451.68 Q805.428 1445.89 803.942 1443.01 Q802.475 1440.11 799.522 1440.11 M799.522 1437.11 Q804.243 1437.11 806.726 1440.85 Q809.227 1444.57 809.227 1451.68 Q809.227 1458.77 806.726 1462.51 Q804.243 1466.24 799.522 1466.24 Q794.802 1466.24 792.3 1462.51 Q789.818 1458.77 789.818 1451.68 Q789.818 1444.57 792.3 1440.85 Q794.802 1437.11 799.522 1437.11 Z" fill="#000000" fill-rule="evenodd" fill-opacity="1" /><path clip-path="url(#clip140)" d="M 0 0 M813.346 1460.92 L817.315 1460.92 L817.315 1465.69 L813.346 1465.69 L813.346 1460.92 Z" fill="#000000" fill-rule="evenodd" fill-opacity="1" /><path clip-path="url(#clip140)" d="M 0 0 M829.558 1440.11 Q826.624 1440.11 825.139 1443.01 Q823.672 1445.89 823.672 1451.68 Q823.672 1457.46 825.139 1460.35 Q826.624 1463.23 829.558 1463.23 Q832.511 1463.23 833.978 1460.35 Q835.464 1457.46 835.464 1451.68 Q835.464 1445.89 833.978 1443.01 Q832.511 1440.11 829.558 1440.11 M829.558 1437.11 Q834.279 1437.11 836.762 1440.85 Q839.263 1444.57 839.263 1451.68 Q839.263 1458.77 836.762 1462.51 Q834.279 1466.24 829.558 1466.24 Q824.838 1466.24 822.336 1462.51 Q819.854 1458.77 819.854 1451.68 Q819.854 1444.57 822.336 1440.85 Q824.838 1437.11 829.558 1437.11 Z" fill="#000000" fill-rule="evenodd" fill-opacity="1" /><path clip-path="url(#clip140)" d="M 0 0 M1044.21 1489.17 L1051.85 1489.17 L1051.85 1462.8 L1043.54 1464.47 L1043.54 1460.21 L1051.8 1458.54 L1056.48 1458.54 L1056.48 1489.17 L1064.12 1489.17 L1064.12 1493.1 L1044.21 1493.1 L1044.21 1489.17 Z" fill="#000000" fill-rule="evenodd" fill-opacity="1" /><path clip-path="url(#clip140)" d="M 0 0 M1079.19 1461.62 Q1075.58 1461.62 1073.75 1465.19 Q1071.94 1468.73 1071.94 1475.86 Q1071.94 1482.97 1073.75 1486.53 Q1075.58 1490.07 1079.19 1490.07 Q1082.82 1490.07 1084.63 1486.53 Q1086.46 1482.97 1086.46 1475.86 Q1086.46 1468.73 1084.63 1465.19 Q1082.82 1461.62 1079.19 1461.62 M1079.19 1457.92 Q1085 1457.92 1088.05 1462.53 Q1091.13 1467.11 1091.13 1475.86 Q1091.13 1484.59 1088.05 1489.19 Q1085 1493.78 1079.19 1493.78 Q1073.38 1493.78 1070.3 1489.19 Q1067.24 1484.59 1067.24 1475.86 Q1067.24 1467.11 1070.3 1462.53 Q1073.38 1457.92 1079.19 1457.92 Z" fill="#000000" fill-rule="evenodd" fill-opacity="1" /><path clip-path="url(#clip140)" d="M 0 0 M1100.84 1440.11 Q1097.9 1440.11 1096.42 1443.01 Q1094.95 1445.89 1094.95 1451.68 Q1094.95 1457.46 1096.42 1460.35 Q1097.9 1463.23 1100.84 1463.23 Q1103.79 1463.23 1105.26 1460.35 Q1106.74 1457.46 1106.74 1451.68 Q1106.74 1445.89 1105.26 1443.01 Q1103.79 1440.11 1100.84 1440.11 M1100.84 1437.11 Q1105.56 1437.11 1108.04 1440.85 Q1110.54 1444.57 1110.54 1451.68 Q1110.54 1458.77 1108.04 1462.51 Q1105.56 1466.24 1100.84 1466.24 Q1096.12 1466.24 1093.62 1462.51 Q1091.13 1458.77 1091.13 1451.68 Q1091.13 1444.57 1093.62 1440.85 Q1096.12 1437.11 1100.84 1437.11 Z" fill="#000000" fill-rule="evenodd" fill-opacity="1" /><path clip-path="url(#clip140)" d="M 0 0 M1114.66 1460.92 L1118.63 1460.92 L1118.63 1465.69 L1114.66 1465.69 L1114.66 1460.92 Z" fill="#000000" fill-rule="evenodd" fill-opacity="1" /><path clip-path="url(#clip140)" d="M 0 0 M1126.02 1462.5 L1139.28 1462.5 L1139.28 1465.69 L1121.45 1465.69 L1121.45 1462.5 Q1123.61 1460.26 1127.34 1456.5 Q1131.08 1452.72 1132.04 1451.63 Q1133.86 1449.58 1134.58 1448.16 Q1135.31 1446.74 1135.31 1445.36 Q1135.31 1443.12 1133.73 1441.71 Q1132.17 1440.3 1129.65 1440.3 Q1127.87 1440.3 1125.87 1440.92 Q1123.9 1441.54 1121.64 1442.8 L1121.64 1438.97 Q1123.93 1438.05 1125.93 1437.58 Q1127.92 1437.11 1129.58 1437.11 Q1133.94 1437.11 1136.54 1439.29 Q1139.13 1441.47 1139.13 1445.12 Q1139.13 1446.85 1138.47 1448.41 Q1137.83 1449.95 1136.12 1452.06 Q1135.65 1452.6 1133.13 1455.22 Q1130.61 1457.81 1126.02 1462.5 Z" fill="#000000" fill-rule="evenodd" fill-opacity="1" /><path clip-path="url(#clip140)" d="M 0 0 M1344.03 1489.17 L1351.67 1489.17 L1351.67 1462.8 L1343.36 1464.47 L1343.36 1460.21 L1351.63 1458.54 L1356.3 1458.54 L1356.3 1489.17 L1363.94 1489.17 L1363.94 1493.1 L1344.03 1493.1 L1344.03 1489.17 Z" fill="#000000" fill-rule="evenodd" fill-opacity="1" /><path clip-path="url(#clip140)" d="M 0 0 M1379.01 1461.62 Q1375.4 1461.62 1373.57 1465.19 Q1371.76 1468.73 1371.76 1475.86 Q1371.76 1482.97 1373.57 1486.53 Q1375.4 1490.07 1379.01 1490.07 Q1382.64 1490.07 1384.45 1486.53 Q1386.28 1482.97 1386.28 1475.86 Q1386.28 1468.73 1384.45 1465.19 Q1382.64 1461.62 1379.01 1461.62 M1379.01 1457.92 Q1384.82 1457.92 1387.88 1462.53 Q1390.95 1467.11 1390.95 1475.86 Q1390.95 1484.59 1387.88 1489.19 Q1384.82 1493.78 1379.01 1493.78 Q1373.2 1493.78 1370.12 1489.19 Q1367.07 1484.59 1367.07 1475.86 Q1367.07 1467.11 1370.12 1462.53 Q1373.2 1457.92 1379.01 1457.92 Z" fill="#000000" fill-rule="evenodd" fill-opacity="1" /><path clip-path="url(#clip140)" d="M 0 0 M1400.66 1440.11 Q1397.72 1440.11 1396.24 1443.01 Q1394.77 1445.89 1394.77 1451.68 Q1394.77 1457.46 1396.24 1460.35 Q1397.72 1463.23 1400.66 1463.23 Q1403.61 1463.23 1405.08 1460.35 Q1406.56 1457.46 1406.56 1451.68 Q1406.56 1445.89 1405.08 1443.01 Q1403.61 1440.11 1400.66 1440.11 M1400.66 1437.11 Q1405.38 1437.11 1407.86 1440.85 Q1410.36 1444.57 1410.36 1451.68 Q1410.36 1458.77 1407.86 1462.51 Q1405.38 1466.24 1400.66 1466.24 Q1395.94 1466.24 1393.44 1462.51 Q1390.95 1458.77 1390.95 1451.68 Q1390.95 1444.57 1393.44 1440.85 Q1395.94 1437.11 1400.66 1437.11 Z" fill="#000000" fill-rule="evenodd" fill-opacity="1" /><path clip-path="url(#clip140)" d="M 0 0 M1414.48 1460.92 L1418.45 1460.92 L1418.45 1465.69 L1414.48 1465.69 L1414.48 1460.92 Z" fill="#000000" fill-rule="evenodd" fill-opacity="1" /><path clip-path="url(#clip140)" d="M 0 0 M1433.01 1440.92 L1423.42 1455.91 L1433.01 1455.91 L1433.01 1440.92 M1432.01 1437.61 L1436.79 1437.61 L1436.79 1455.91 L1440.79 1455.91 L1440.79 1459.07 L1436.79 1459.07 L1436.79 1465.69 L1433.01 1465.69 L1433.01 1459.07 L1420.33 1459.07 L1420.33 1455.41 L1432.01 1437.61 Z" fill="#000000" fill-rule="evenodd" fill-opacity="1" /><path clip-path="url(#clip140)" d="M 0 0 M1644.83 1489.17 L1652.47 1489.17 L1652.47 1462.8 L1644.16 1464.47 L1644.16 1460.21 L1652.42 1458.54 L1657.1 1458.54 L1657.1 1489.17 L1664.74 1489.17 L1664.74 1493.1 L1644.83 1493.1 L1644.83 1489.17 Z" fill="#000000" fill-rule="evenodd" fill-opacity="1" /><path clip-path="url(#clip140)" d="M 0 0 M1679.81 1461.62 Q1676.2 1461.62 1674.37 1465.19 Q1672.56 1468.73 1672.56 1475.86 Q1672.56 1482.97 1674.37 1486.53 Q1676.2 1490.07 1679.81 1490.07 Q1683.44 1490.07 1685.25 1486.53 Q1687.08 1482.97 1687.08 1475.86 Q1687.08 1468.73 1685.25 1465.19 Q1683.44 1461.62 1679.81 1461.62 M1679.81 1457.92 Q1685.62 1457.92 1688.67 1462.53 Q1691.75 1467.11 1691.75 1475.86 Q1691.75 1484.59 1688.67 1489.19 Q1685.62 1493.78 1679.81 1493.78 Q1674 1493.78 1670.92 1489.19 Q1667.86 1484.59 1667.86 1475.86 Q1667.86 1467.11 1670.92 1462.53 Q1674 1457.92 1679.81 1457.92 Z" fill="#000000" fill-rule="evenodd" fill-opacity="1" /><path clip-path="url(#clip140)" d="M 0 0 M1701.46 1440.11 Q1698.52 1440.11 1697.04 1443.01 Q1695.57 1445.89 1695.57 1451.68 Q1695.57 1457.46 1697.04 1460.35 Q1698.52 1463.23 1701.46 1463.23 Q1704.41 1463.23 1705.88 1460.35 Q1707.36 1457.46 1707.36 1451.68 Q1707.36 1445.89 1705.88 1443.01 Q1704.41 1440.11 1701.46 1440.11 M1701.46 1437.11 Q1706.18 1437.11 1708.66 1440.85 Q1711.16 1444.57 1711.16 1451.68 Q1711.16 1458.77 1708.66 1462.51 Q1706.18 1466.24 1701.46 1466.24 Q1696.74 1466.24 1694.24 1462.51 Q1691.75 1458.77 1691.75 1451.68 Q1691.75 1444.57 1694.24 1440.85 Q1696.74 1437.11 1701.46 1437.11 Z" fill="#000000" fill-rule="evenodd" fill-opacity="1" /><path clip-path="url(#clip140)" d="M 0 0 M1715.28 1460.92 L1719.25 1460.92 L1719.25 1465.69 L1715.28 1465.69 L1715.28 1460.92 Z" fill="#000000" fill-rule="evenodd" fill-opacity="1" /><path clip-path="url(#clip140)" d="M 0 0 M1731.96 1450.14 Q1729.41 1450.14 1727.9 1451.89 Q1726.42 1453.64 1726.42 1456.68 Q1726.42 1459.71 1727.9 1461.48 Q1729.41 1463.23 1731.96 1463.23 Q1734.52 1463.23 1736.01 1461.48 Q1737.51 1459.71 1737.51 1456.68 Q1737.51 1453.64 1736.01 1451.89 Q1734.52 1450.14 1731.96 1450.14 M1739.51 1438.23 L1739.51 1441.69 Q1738.08 1441.02 1736.61 1440.66 Q1735.16 1440.3 1733.73 1440.3 Q1729.97 1440.3 1727.98 1442.84 Q1726 1445.38 1725.72 1450.52 Q1726.83 1448.88 1728.5 1448.01 Q1730.18 1447.13 1732.19 1447.13 Q1736.42 1447.13 1738.87 1449.71 Q1741.33 1452.26 1741.33 1456.68 Q1741.33 1461.01 1738.77 1463.62 Q1736.21 1466.24 1731.96 1466.24 Q1727.09 1466.24 1724.52 1462.51 Q1721.94 1458.77 1721.94 1451.68 Q1721.94 1445.02 1725.1 1441.07 Q1728.26 1437.11 1733.58 1437.11 Q1735.01 1437.11 1736.46 1437.39 Q1737.93 1437.67 1739.51 1438.23 Z" fill="#000000" fill-rule="evenodd" fill-opacity="1" /><path clip-path="url(#clip140)" d="M 0 0 M1945.6 1489.17 L1953.24 1489.17 L1953.24 1462.8 L1944.93 1464.47 L1944.93 1460.21 L1953.19 1458.54 L1957.87 1458.54 L1957.87 1489.17 L1965.51 1489.17 L1965.51 1493.1 L1945.6 1493.1 L1945.6 1489.17 Z" fill="#000000" fill-rule="evenodd" fill-opacity="1" /><path clip-path="url(#clip140)" d="M 0 0 M1980.58 1461.62 Q1976.97 1461.62 1975.14 1465.19 Q1973.33 1468.73 1973.33 1475.86 Q1973.33 1482.97 1975.14 1486.53 Q1976.97 1490.07 1980.58 1490.07 Q1984.21 1490.07 1986.02 1486.53 Q1987.85 1482.97 1987.85 1475.86 Q1987.85 1468.73 1986.02 1465.19 Q1984.21 1461.62 1980.58 1461.62 M1980.58 1457.92 Q1986.39 1457.92 1989.44 1462.53 Q1992.52 1467.11 1992.52 1475.86 Q1992.52 1484.59 1989.44 1489.19 Q1986.39 1493.78 1980.58 1493.78 Q1974.77 1493.78 1971.69 1489.19 Q1968.63 1484.59 1968.63 1475.86 Q1968.63 1467.11 1971.69 1462.53 Q1974.77 1457.92 1980.58 1457.92 Z" fill="#000000" fill-rule="evenodd" fill-opacity="1" /><path clip-path="url(#clip140)" d="M 0 0 M2002.23 1440.11 Q1999.29 1440.11 1997.81 1443.01 Q1996.34 1445.89 1996.34 1451.68 Q1996.34 1457.46 1997.81 1460.35 Q1999.29 1463.23 2002.23 1463.23 Q2005.18 1463.23 2006.65 1460.35 Q2008.13 1457.46 2008.13 1451.68 Q2008.13 1445.89 2006.65 1443.01 Q2005.18 1440.11 2002.23 1440.11 M2002.23 1437.11 Q2006.95 1437.11 2009.43 1440.85 Q2011.93 1444.57 2011.93 1451.68 Q2011.93 1458.77 2009.43 1462.51 Q2006.95 1466.24 2002.23 1466.24 Q1997.51 1466.24 1995.01 1462.51 Q1992.52 1458.77 1992.52 1451.68 Q1992.52 1444.57 1995.01 1440.85 Q1997.51 1437.11 2002.23 1437.11 Z" fill="#000000" fill-rule="evenodd" fill-opacity="1" /><path clip-path="url(#clip140)" d="M 0 0 M2016.05 1460.92 L2020.02 1460.92 L2020.02 1465.69 L2016.05 1465.69 L2016.05 1460.92 Z" fill="#000000" fill-rule="evenodd" fill-opacity="1" /><path clip-path="url(#clip140)" d="M 0 0 M2032.26 1452.36 Q2029.56 1452.36 2027.99 1453.81 Q2026.45 1455.26 2026.45 1457.79 Q2026.45 1460.33 2027.99 1461.78 Q2029.56 1463.23 2032.26 1463.23 Q2034.97 1463.23 2036.53 1461.78 Q2038.09 1460.31 2038.09 1457.79 Q2038.09 1455.26 2036.53 1453.81 Q2034.99 1452.36 2032.26 1452.36 M2028.46 1450.74 Q2026.02 1450.14 2024.65 1448.47 Q2023.29 1446.79 2023.29 1444.38 Q2023.29 1441.02 2025.68 1439.06 Q2028.09 1437.11 2032.26 1437.11 Q2036.46 1437.11 2038.85 1439.06 Q2041.24 1441.02 2041.24 1444.38 Q2041.24 1446.79 2039.86 1448.47 Q2038.51 1450.14 2036.08 1450.74 Q2038.83 1451.38 2040.35 1453.24 Q2041.89 1455.1 2041.89 1457.79 Q2041.89 1461.88 2039.39 1464.06 Q2036.91 1466.24 2032.26 1466.24 Q2027.62 1466.24 2025.12 1464.06 Q2022.63 1461.88 2022.63 1457.79 Q2022.63 1455.1 2024.18 1453.24 Q2025.72 1451.38 2028.46 1450.74 M2027.07 1444.74 Q2027.07 1446.92 2028.43 1448.15 Q2029.8 1449.37 2032.26 1449.37 Q2034.71 1449.37 2036.08 1448.15 Q2037.47 1446.92 2037.47 1444.74 Q2037.47 1442.56 2036.08 1441.34 Q2034.71 1440.11 2032.26 1440.11 Q2029.8 1440.11 2028.43 1441.34 Q2027.07 1442.56 2027.07 1444.74 Z" fill="#000000" fill-rule="evenodd" fill-opacity="1" /><path clip-path="url(#clip140)" d="M 0 0 M2247.58 1489.17 L2255.22 1489.17 L2255.22 1462.8 L2246.91 1464.47 L2246.91 1460.21 L2255.17 1458.54 L2259.84 1458.54 L2259.84 1489.17 L2267.48 1489.17 L2267.48 1493.1 L2247.58 1493.1 L2247.58 1489.17 Z" fill="#000000" fill-rule="evenodd" fill-opacity="1" /><path clip-path="url(#clip140)" d="M 0 0 M2282.55 1461.62 Q2278.94 1461.62 2277.11 1465.19 Q2275.31 1468.73 2275.31 1475.86 Q2275.31 1482.97 2277.11 1486.53 Q2278.94 1490.07 2282.55 1490.07 Q2286.19 1490.07 2287.99 1486.53 Q2289.82 1482.97 2289.82 1475.86 Q2289.82 1468.73 2287.99 1465.19 Q2286.19 1461.62 2282.55 1461.62 M2282.55 1457.92 Q2288.36 1457.92 2291.42 1462.53 Q2294.5 1467.11 2294.5 1475.86 Q2294.5 1484.59 2291.42 1489.19 Q2288.36 1493.78 2282.55 1493.78 Q2276.74 1493.78 2273.66 1489.19 Q2270.61 1484.59 2270.61 1475.86 Q2270.61 1467.11 2273.66 1462.53 Q2276.74 1457.92 2282.55 1457.92 Z" fill="#000000" fill-rule="evenodd" fill-opacity="1" /><path clip-path="url(#clip140)" d="M 0 0 M2295.04 1462.5 L2301.25 1462.5 L2301.25 1441.07 L2294.5 1442.43 L2294.5 1438.97 L2301.21 1437.61 L2305.01 1437.61 L2305.01 1462.5 L2311.22 1462.5 L2311.22 1465.69 L2295.04 1465.69 L2295.04 1462.5 Z" fill="#000000" fill-rule="evenodd" fill-opacity="1" /><path clip-path="url(#clip140)" d="M 0 0 M2315.34 1460.92 L2319.3 1460.92 L2319.3 1465.69 L2315.34 1465.69 L2315.34 1460.92 Z" fill="#000000" fill-rule="evenodd" fill-opacity="1" /><path clip-path="url(#clip140)" d="M 0 0 M2331.55 1440.11 Q2328.61 1440.11 2327.13 1443.01 Q2325.66 1445.89 2325.66 1451.68 Q2325.66 1457.46 2327.13 1460.35 Q2328.61 1463.23 2331.55 1463.23 Q2334.5 1463.23 2335.97 1460.35 Q2337.45 1457.46 2337.45 1451.68 Q2337.45 1445.89 2335.97 1443.01 Q2334.5 1440.11 2331.55 1440.11 M2331.55 1437.11 Q2336.27 1437.11 2338.75 1440.85 Q2341.25 1444.57 2341.25 1451.68 Q2341.25 1458.77 2338.75 1462.51 Q2336.27 1466.24 2331.55 1466.24 Q2326.83 1466.24 2324.33 1462.51 Q2321.84 1458.77 2321.84 1451.68 Q2321.84 1444.57 2324.33 1440.85 Q2326.83 1437.11 2331.55 1437.11 Z" fill="#000000" fill-rule="evenodd" fill-opacity="1" /><path clip-path="url(#clip140)" d="M 0 0 M1321.34 1545.6 L1319.94 1538.25 Q1318.51 1530.71 1312.84 1530.71 Q1308.58 1530.71 1306.64 1534.21 Q1304.19 1538.6 1304.19 1544.39 Q1304.19 1551.4 1306.57 1554.74 Q1308.99 1558.14 1312.84 1558.14 Q1317.11 1558.14 1319.4 1551.36 L1321.34 1545.6 M1324.62 1535.86 L1327.77 1526.54 L1332.99 1526.54 L1326.47 1545.86 L1327.74 1552.83 Q1328.03 1554.39 1329.14 1555.69 Q1330.44 1557.22 1331.46 1557.22 L1334.26 1557.22 L1334.26 1562.19 L1330.76 1562.19 Q1327.77 1562.19 1325.1 1559.51 Q1323.79 1558.18 1323.25 1555.37 Q1321.79 1558.91 1318.79 1561.68 Q1317.39 1562.98 1312.84 1562.98 Q1305.36 1562.98 1301.73 1558.14 Q1298.01 1553.15 1298.01 1544.39 Q1298.01 1535.04 1302.05 1530.64 Q1306.54 1525.74 1312.84 1525.74 Q1322.74 1525.74 1324.62 1535.86 Z" fill="#000000" fill-rule="evenodd" fill-opacity="1" /><polyline clip-path="url(#clip142)" style="stroke:#000000; stroke-width:2; stroke-opacity:0.1; fill:none" points="
  279.519,1373.08 2352.76,1373.08 
  "/>
<polyline clip-path="url(#clip142)" style="stroke:#000000; stroke-width:2; stroke-opacity:0.1; fill:none" points="
  279.519,1039.26 2352.76,1039.26 
  "/>
<polyline clip-path="url(#clip142)" style="stroke:#000000; stroke-width:2; stroke-opacity:0.1; fill:none" points="
  279.519,705.434 2352.76,705.434 
  "/>
<polyline clip-path="url(#clip142)" style="stroke:#000000; stroke-width:2; stroke-opacity:0.1; fill:none" points="
  279.519,371.613 2352.76,371.613 
  "/>
<polyline clip-path="url(#clip140)" style="stroke:#000000; stroke-width:4; stroke-opacity:1; fill:none" points="
  279.519,1410.9 279.519,47.2441 
  "/>
<polyline clip-path="url(#clip140)" style="stroke:#000000; stroke-width:4; stroke-opacity:1; fill:none" points="
  279.519,1373.08 304.398,1373.08 
  "/>
<polyline clip-path="url(#clip140)" style="stroke:#000000; stroke-width:4; stroke-opacity:1; fill:none" points="
  279.519,1039.26 304.398,1039.26 
  "/>
<polyline clip-path="url(#clip140)" style="stroke:#000000; stroke-width:4; stroke-opacity:1; fill:none" points="
  279.519,705.434 304.398,705.434 
  "/>
<polyline clip-path="url(#clip140)" style="stroke:#000000; stroke-width:4; stroke-opacity:1; fill:none" points="
  279.519,371.613 304.398,371.613 
  "/>
<path clip-path="url(#clip140)" d="M 0 0 M231.574 1358.88 Q227.963 1358.88 226.135 1362.44 Q224.329 1365.98 224.329 1373.11 Q224.329 1380.22 226.135 1383.78 Q227.963 1387.32 231.574 1387.32 Q235.209 1387.32 237.014 1383.78 Q238.843 1380.22 238.843 1373.11 Q238.843 1365.98 237.014 1362.44 Q235.209 1358.88 231.574 1358.88 M231.574 1355.17 Q237.384 1355.17 240.44 1359.78 Q243.519 1364.36 243.519 1373.11 Q243.519 1381.84 240.44 1386.45 Q237.384 1391.03 231.574 1391.03 Q225.764 1391.03 222.686 1386.45 Q219.63 1381.84 219.63 1373.11 Q219.63 1364.36 222.686 1359.78 Q225.764 1355.17 231.574 1355.17 Z" fill="#000000" fill-rule="evenodd" fill-opacity="1" /><path clip-path="url(#clip140)" d="M 0 0 M117.107 1059.05 L124.746 1059.05 L124.746 1032.68 L116.436 1034.35 L116.436 1030.09 L124.7 1028.42 L129.376 1028.42 L129.376 1059.05 L137.015 1059.05 L137.015 1062.98 L117.107 1062.98 L117.107 1059.05 Z" fill="#000000" fill-rule="evenodd" fill-opacity="1" /><path clip-path="url(#clip140)" d="M 0 0 M170.255 1037.52 L159.677 1048.15 L170.255 1058.72 L167.501 1061.53 L156.876 1050.9 L146.251 1061.53 L143.519 1058.72 L154.075 1048.15 L143.519 1037.52 L146.251 1034.72 L156.876 1045.34 L167.501 1034.72 L170.255 1037.52 Z" fill="#000000" fill-rule="evenodd" fill-opacity="1" /><path clip-path="url(#clip140)" d="M 0 0 M176.135 1059.05 L183.774 1059.05 L183.774 1032.68 L175.464 1034.35 L175.464 1030.09 L183.727 1028.42 L188.403 1028.42 L188.403 1059.05 L196.042 1059.05 L196.042 1062.98 L176.135 1062.98 L176.135 1059.05 Z" fill="#000000" fill-rule="evenodd" fill-opacity="1" /><path clip-path="url(#clip140)" d="M 0 0 M211.111 1031.5 Q207.5 1031.5 205.672 1035.07 Q203.866 1038.61 203.866 1045.74 Q203.866 1052.84 205.672 1056.41 Q207.5 1059.95 211.111 1059.95 Q214.746 1059.95 216.551 1056.41 Q218.38 1052.84 218.38 1045.74 Q218.38 1038.61 216.551 1035.07 Q214.746 1031.5 211.111 1031.5 M211.111 1027.8 Q216.922 1027.8 219.977 1032.4 Q223.056 1036.99 223.056 1045.74 Q223.056 1054.46 219.977 1059.07 Q216.922 1063.65 211.111 1063.65 Q205.301 1063.65 202.223 1059.07 Q199.167 1054.46 199.167 1045.74 Q199.167 1036.99 202.223 1032.4 Q205.301 1027.8 211.111 1027.8 Z" fill="#000000" fill-rule="evenodd" fill-opacity="1" /><path clip-path="url(#clip140)" d="M 0 0 M235.732 1010.8 L226.14 1025.79 L235.732 1025.79 L235.732 1010.8 M234.735 1007.49 L239.513 1007.49 L239.513 1025.79 L243.519 1025.79 L243.519 1028.95 L239.513 1028.95 L239.513 1035.57 L235.732 1035.57 L235.732 1028.95 L223.056 1028.95 L223.056 1025.29 L234.735 1007.49 Z" fill="#000000" fill-rule="evenodd" fill-opacity="1" /><path clip-path="url(#clip140)" d="M 0 0 M120.695 725.227 L137.015 725.227 L137.015 729.162 L115.07 729.162 L115.07 725.227 Q117.732 722.472 122.316 717.843 Q126.922 713.19 128.103 711.847 Q130.348 709.324 131.228 707.588 Q132.13 705.829 132.13 704.139 Q132.13 701.384 130.186 699.648 Q128.265 697.912 125.163 697.912 Q122.964 697.912 120.51 698.676 Q118.08 699.44 115.302 700.991 L115.302 696.269 Q118.126 695.134 120.58 694.556 Q123.033 693.977 125.07 693.977 Q130.441 693.977 133.635 696.662 Q136.829 699.347 136.829 703.838 Q136.829 705.968 136.019 707.889 Q135.232 709.787 133.126 712.38 Q132.547 713.051 129.445 716.268 Q126.343 719.463 120.695 725.227 Z" fill="#000000" fill-rule="evenodd" fill-opacity="1" /><path clip-path="url(#clip140)" d="M 0 0 M170.255 703.699 L159.677 714.324 L170.255 724.903 L167.501 727.704 L156.876 717.079 L146.251 727.704 L143.519 724.903 L154.075 714.324 L143.519 703.699 L146.251 700.898 L156.876 711.523 L167.501 700.898 L170.255 703.699 Z" fill="#000000" fill-rule="evenodd" fill-opacity="1" /><path clip-path="url(#clip140)" d="M 0 0 M176.135 725.227 L183.774 725.227 L183.774 698.861 L175.464 700.528 L175.464 696.269 L183.727 694.602 L188.403 694.602 L188.403 725.227 L196.042 725.227 L196.042 729.162 L176.135 729.162 L176.135 725.227 Z" fill="#000000" fill-rule="evenodd" fill-opacity="1" /><path clip-path="url(#clip140)" d="M 0 0 M211.111 697.681 Q207.5 697.681 205.672 701.245 Q203.866 704.787 203.866 711.917 Q203.866 719.023 205.672 722.588 Q207.5 726.13 211.111 726.13 Q214.746 726.13 216.551 722.588 Q218.38 719.023 218.38 711.917 Q218.38 704.787 216.551 701.245 Q214.746 697.681 211.111 697.681 M211.111 693.977 Q216.922 693.977 219.977 698.583 Q223.056 703.167 223.056 711.917 Q223.056 720.643 219.977 725.25 Q216.922 729.833 211.111 729.833 Q205.301 729.833 202.223 725.25 Q199.167 720.643 199.167 711.917 Q199.167 703.167 202.223 698.583 Q205.301 693.977 211.111 693.977 Z" fill="#000000" fill-rule="evenodd" fill-opacity="1" /><path clip-path="url(#clip140)" d="M 0 0 M235.732 676.982 L226.14 691.971 L235.732 691.971 L235.732 676.982 M234.735 673.672 L239.513 673.672 L239.513 691.971 L243.519 691.971 L243.519 695.131 L239.513 695.131 L239.513 701.752 L235.732 701.752 L235.732 695.131 L223.056 695.131 L223.056 691.464 L234.735 673.672 Z" fill="#000000" fill-rule="evenodd" fill-opacity="1" /><path clip-path="url(#clip140)" d="M 0 0 M129.885 376.706 Q133.242 377.424 135.117 379.692 Q137.015 381.961 137.015 385.294 Q137.015 390.41 133.496 393.211 Q129.978 396.012 123.496 396.012 Q121.32 396.012 119.006 395.572 Q116.714 395.155 114.26 394.299 L114.26 389.785 Q116.205 390.919 118.519 391.498 Q120.834 392.077 123.357 392.077 Q127.755 392.077 130.047 390.341 Q132.362 388.604 132.362 385.294 Q132.362 382.239 130.209 380.526 Q128.08 378.79 124.26 378.79 L120.232 378.79 L120.232 374.947 L124.445 374.947 Q127.894 374.947 129.723 373.581 Q131.552 372.192 131.552 369.6 Q131.552 366.938 129.654 365.526 Q127.779 364.091 124.26 364.091 Q122.339 364.091 120.14 364.507 Q117.941 364.924 115.302 365.804 L115.302 361.637 Q117.964 360.896 120.279 360.526 Q122.617 360.156 124.677 360.156 Q130.001 360.156 133.103 362.586 Q136.204 364.993 136.204 369.114 Q136.204 371.984 134.561 373.975 Q132.917 375.942 129.885 376.706 Z" fill="#000000" fill-rule="evenodd" fill-opacity="1" /><path clip-path="url(#clip140)" d="M 0 0 M170.255 369.878 L159.677 380.503 L170.255 391.081 L167.501 393.882 L156.876 383.257 L146.251 393.882 L143.519 391.081 L154.075 380.503 L143.519 369.878 L146.251 367.077 L156.876 377.702 L167.501 367.077 L170.255 369.878 Z" fill="#000000" fill-rule="evenodd" fill-opacity="1" /><path clip-path="url(#clip140)" d="M 0 0 M176.135 391.405 L183.774 391.405 L183.774 365.04 L175.464 366.706 L175.464 362.447 L183.727 360.781 L188.403 360.781 L188.403 391.405 L196.042 391.405 L196.042 395.341 L176.135 395.341 L176.135 391.405 Z" fill="#000000" fill-rule="evenodd" fill-opacity="1" /><path clip-path="url(#clip140)" d="M 0 0 M211.111 363.859 Q207.5 363.859 205.672 367.424 Q203.866 370.966 203.866 378.095 Q203.866 385.202 205.672 388.766 Q207.5 392.308 211.111 392.308 Q214.746 392.308 216.551 388.766 Q218.38 385.202 218.38 378.095 Q218.38 370.966 216.551 367.424 Q214.746 363.859 211.111 363.859 M211.111 360.156 Q216.922 360.156 219.977 364.762 Q223.056 369.345 223.056 378.095 Q223.056 386.822 219.977 391.428 Q216.922 396.012 211.111 396.012 Q205.301 396.012 202.223 391.428 Q199.167 386.822 199.167 378.095 Q199.167 369.345 202.223 364.762 Q205.301 360.156 211.111 360.156 Z" fill="#000000" fill-rule="evenodd" fill-opacity="1" /><path clip-path="url(#clip140)" d="M 0 0 M235.732 343.16 L226.14 358.15 L235.732 358.15 L235.732 343.16 M234.735 339.85 L239.513 339.85 L239.513 358.15 L243.519 358.15 L243.519 361.31 L239.513 361.31 L239.513 367.93 L235.732 367.93 L235.732 361.31 L223.056 361.31 L223.056 357.642 L234.735 339.85 Z" fill="#000000" fill-rule="evenodd" fill-opacity="1" /><path clip-path="url(#clip140)" d="M 0 0 M59.1993 815.533 Q55.2526 813.336 53.3747 810.281 Q51.4968 807.225 51.4968 803.088 Q51.4968 797.518 55.4117 794.494 Q59.2948 791.47 66.4881 791.47 L88.0042 791.47 L88.0042 797.358 L66.679 797.358 Q61.5546 797.358 59.072 799.173 Q56.5894 800.987 56.5894 804.711 Q56.5894 809.262 59.6131 811.904 Q62.6368 814.546 67.8567 814.546 L88.0042 814.546 L88.0042 820.434 L66.679 820.434 Q61.5228 820.434 59.072 822.248 Q56.5894 824.063 56.5894 827.85 Q56.5894 832.338 59.6449 834.98 Q62.6686 837.622 67.8567 837.622 L88.0042 837.622 L88.0042 843.51 L52.3562 843.51 L52.3562 837.622 L57.8944 837.622 Q54.616 835.616 53.0564 832.815 Q51.4968 830.015 51.4968 826.163 Q51.4968 822.28 53.4702 819.575 Q55.4436 816.838 59.1993 815.533 Z" fill="#000000" fill-rule="evenodd" fill-opacity="1" /><path clip-path="url(#clip140)" d="M 0 0 M52.3562 785.327 L52.3562 779.471 L88.0042 779.471 L88.0042 785.327 L52.3562 785.327 M38.479 785.327 L38.479 779.471 L45.895 779.471 L45.895 785.327 L38.479 785.327 Z" fill="#000000" fill-rule="evenodd" fill-opacity="1" /><path clip-path="url(#clip140)" d="M 0 0 M66.4881 743.696 L88.0042 743.696 L88.0042 749.552 L66.679 749.552 Q61.6183 749.552 59.1038 751.525 Q56.5894 753.499 56.5894 757.446 Q56.5894 762.188 59.6131 764.925 Q62.6368 767.662 67.8567 767.662 L88.0042 767.662 L88.0042 773.551 L52.3562 773.551 L52.3562 767.662 L57.8944 767.662 Q54.6797 765.562 53.0883 762.729 Q51.4968 759.864 51.4968 756.141 Q51.4968 749.998 55.3163 746.847 Q59.1038 743.696 66.4881 743.696 Z" fill="#000000" fill-rule="evenodd" fill-opacity="1" /><path clip-path="url(#clip140)" d="M 0 0 M98.8259 710.467 L103.377 710.467 L103.377 744.332 L98.8259 744.332 L98.8259 710.467 Z" fill="#000000" fill-rule="evenodd" fill-opacity="1" /><path clip-path="url(#clip140)" d="M 0 0 M57.7671 680.866 L38.479 680.866 L38.479 675.01 L88.0042 675.01 L88.0042 680.866 L82.657 680.866 Q85.8398 682.712 87.3994 685.545 Q88.9272 688.346 88.9272 692.292 Q88.9272 698.754 83.771 702.828 Q78.6147 706.87 70.212 706.87 Q61.8093 706.87 56.6531 702.828 Q51.4968 698.754 51.4968 692.292 Q51.4968 688.346 53.0564 685.545 Q54.5842 682.712 57.7671 680.866 M70.212 700.823 Q76.6732 700.823 80.3653 698.181 Q84.0256 695.507 84.0256 690.86 Q84.0256 686.213 80.3653 683.54 Q76.6732 680.866 70.212 680.866 Q63.7508 680.866 60.0905 683.54 Q56.3984 686.213 56.3984 690.86 Q56.3984 695.507 60.0905 698.181 Q63.7508 700.823 70.212 700.823 Z" fill="#000000" fill-rule="evenodd" fill-opacity="1" /><path clip-path="url(#clip140)" d="M 0 0 M52.3562 668.867 L52.3562 663.01 L88.0042 663.01 L88.0042 668.867 L52.3562 668.867 M38.479 668.867 L38.479 663.01 L45.895 663.01 L45.895 668.867 L38.479 668.867 Z" fill="#000000" fill-rule="evenodd" fill-opacity="1" /><path clip-path="url(#clip140)" d="M 0 0 M38.479 638.821 L43.3487 638.821 L43.3487 644.422 Q43.3487 647.573 44.6219 648.815 Q45.895 650.024 49.2052 650.024 L52.3562 650.024 L52.3562 640.38 L56.9077 640.38 L56.9077 650.024 L88.0042 650.024 L88.0042 655.912 L56.9077 655.912 L56.9077 661.514 L52.3562 661.514 L52.3562 655.912 L49.8736 655.912 Q43.9216 655.912 41.2162 653.143 Q38.479 650.374 38.479 644.359 L38.479 638.821 Z" fill="#000000" fill-rule="evenodd" fill-opacity="1" /><path clip-path="url(#clip140)" d="M 0 0 M38.479 614.631 L43.3487 614.631 L43.3487 620.233 Q43.3487 623.384 44.6219 624.625 Q45.895 625.835 49.2052 625.835 L52.3562 625.835 L52.3562 616.19 L56.9077 616.19 L56.9077 625.835 L88.0042 625.835 L88.0042 631.723 L56.9077 631.723 L56.9077 637.325 L52.3562 637.325 L52.3562 631.723 L49.8736 631.723 Q43.9216 631.723 41.2162 628.954 Q38.479 626.185 38.479 620.169 L38.479 614.631 Z" fill="#000000" fill-rule="evenodd" fill-opacity="1" /><polyline clip-path="url(#clip142)" style="stroke:#009af9; stroke-width:20; stroke-opacity:1; fill:none" stroke-dasharray="80, 50" points="
  338.195,1254.88 790.744,1332.17 1055.47,1367.89 1243.29,1372.3 1388.98,1371.95 1508.02,1370.76 1608.66,1363.75 1695.84,1343.95 1772.74,1311.07 1841.53,1265.1 
  1903.76,1206.05 1960.57,1133.91 2012.83,1048.7 2061.21,950.397 2106.25,839.012 2148.39,714.544 2187.97,576.993 2225.29,426.358 2260.59,262.64 2294.08,85.838 
  
  "/>
<path clip-path="url(#clip140)" d="
M2002.27 213.659 L2283.65 213.659 L2283.65 92.6992 L2002.27 92.6992  Z
  " fill="#ffffff" fill-rule="evenodd" fill-opacity="1"/>
<polyline clip-path="url(#clip140)" style="stroke:#000000; stroke-width:4; stroke-opacity:1; fill:none" points="
  2002.27,213.659 2283.65,213.659 2283.65,92.6992 2002.27,92.6992 2002.27,213.659 
  "/>
<polyline clip-path="url(#clip140)" style="stroke:#009af9; stroke-width:4; stroke-opacity:1; fill:none" stroke-dasharray="16, 10" points="
  2025.31,153.179 2163.52,153.179 
  "/>
<path clip-path="url(#clip140)" d="M 0 0 M2200.4 172.867 Q2198.59 177.496 2196.88 178.908 Q2195.17 180.32 2192.3 180.32 L2188.9 180.32 L2188.9 176.755 L2191.4 176.755 Q2193.16 176.755 2194.13 175.922 Q2195.1 175.089 2196.28 171.987 L2197.04 170.043 L2186.56 144.533 L2191.07 144.533 L2199.17 164.811 L2207.28 144.533 L2211.79 144.533 L2200.4 172.867 Z" fill="#000000" fill-rule="evenodd" fill-opacity="1" /><path clip-path="url(#clip140)" d="M 0 0 M2217.67 166.524 L2225.31 166.524 L2225.31 140.158 L2217 141.825 L2217 137.566 L2225.26 135.899 L2229.94 135.899 L2229.94 166.524 L2237.58 166.524 L2237.58 170.459 L2217.67 170.459 L2217.67 166.524 Z" fill="#000000" fill-rule="evenodd" fill-opacity="1" /></svg>
