<?xml version="1.0" encoding="utf-8"?>
<svg xmlns="http://www.w3.org/2000/svg" xmlns:xlink="http://www.w3.org/1999/xlink" width="600" height="400" viewBox="0 0 2400 1600">
<defs>
  <clipPath id="clip250">
    <rect x="0" y="0" width="2400" height="1600"/>
  </clipPath>
</defs>
<path clip-path="url(#clip250)" d="
M0 1600 L2400 1600 L2400 0 L0 0  Z
  " fill="#ffffff" fill-rule="evenodd" fill-opacity="1"/>
<defs>
  <clipPath id="clip251">
    <rect x="480" y="0" width="1681" height="1600"/>
  </clipPath>
</defs>
<path clip-path="url(#clip250)" d="
M202.459 1410.9 L2352.76 1410.9 L2352.76 47.2441 L202.459 47.2441  Z
  " fill="#ffffff" fill-rule="evenodd" fill-opacity="1"/>
<defs>
  <clipPath id="clip252">
    <rect x="202" y="47" width="2151" height="1365"/>
  </clipPath>
</defs>
<polyline clip-path="url(#clip252)" style="stroke:#000000; stroke-width:2; stroke-opacity:0.1; fill:none" points="
  516.889,1410.9 516.889,47.2441 
  "/>
<polyline clip-path="url(#clip252)" style="stroke:#000000; stroke-width:2; stroke-opacity:0.1; fill:none" points="
  1024.03,1410.9 1024.03,47.2441 
  "/>
<polyline clip-path="url(#clip252)" style="stroke:#000000; stroke-width:2; stroke-opacity:0.1; fill:none" points="
  1531.18,1410.9 1531.18,47.2441 
  "/>
<polyline clip-path="url(#clip252)" style="stroke:#000000; stroke-width:2; stroke-opacity:0.1; fill:none" points="
  2038.33,1410.9 2038.33,47.2441 
  "/>
<polyline clip-path="url(#clip250)" style="stroke:#000000; stroke-width:4; stroke-opacity:1; fill:none" points="
  202.459,1410.9 2352.76,1410.9 
  "/>
<polyline clip-path="url(#clip250)" style="stroke:#000000; stroke-width:4; stroke-opacity:1; fill:none" points="
  516.889,1410.9 516.889,1394.53 
  "/>
<polyline clip-path="url(#clip250)" style="stroke:#000000; stroke-width:4; stroke-opacity:1; fill:none" points="
  1024.03,1410.9 1024.03,1394.53 
  "/>
<polyline clip-path="url(#clip250)" style="stroke:#000000; stroke-width:4; stroke-opacity:1; fill:none" points="
  1531.18,1410.9 1531.18,1394.53 
  "/>
<polyline clip-path="url(#clip250)" style="stroke:#000000; stroke-width:4; stroke-opacity:1; fill:none" points="
  2038.33,1410.9 2038.33,1394.53 
  "/>
<path clip-path="url(#clip250)" d="M 0 0 M470.997 1489.17 L478.636 1489.17 L478.636 1462.8 L470.326 1464.47 L470.326 1460.21 L478.59 1458.54 L483.266 1458.54 L483.266 1489.17 L490.905 1489.17 L490.905 1493.1 L470.997 1493.1 L470.997 1489.17 Z" fill="#000000" fill-rule="evenodd" fill-opacity="1" /><path clip-path="url(#clip250)" d="M 0 0 M505.974 1461.62 Q502.363 1461.62 500.534 1465.19 Q498.729 1468.73 498.729 1475.86 Q498.729 1482.97 500.534 1486.53 Q502.363 1490.07 505.974 1490.07 Q509.608 1490.07 511.414 1486.53 Q513.243 1482.97 513.243 1475.86 Q513.243 1468.73 511.414 1465.19 Q509.608 1461.62 505.974 1461.62 M505.974 1457.92 Q511.784 1457.92 514.84 1462.53 Q517.919 1467.11 517.919 1475.86 Q517.919 1484.59 514.84 1489.19 Q511.784 1493.78 505.974 1493.78 Q500.164 1493.78 497.085 1489.19 Q494.03 1484.59 494.03 1475.86 Q494.03 1467.11 497.085 1462.53 Q500.164 1457.92 505.974 1457.92 Z" fill="#000000" fill-rule="evenodd" fill-opacity="1" /><path clip-path="url(#clip250)" d="M 0 0 M517.919 1452.02 L542.03 1452.02 L542.03 1455.22 L517.919 1455.22 L517.919 1452.02 Z" fill="#000000" fill-rule="evenodd" fill-opacity="1" /><path clip-path="url(#clip250)" d="M 0 0 M557.659 1450.55 Q560.386 1451.14 561.91 1452.98 Q563.452 1454.82 563.452 1457.53 Q563.452 1461.69 560.593 1463.96 Q557.735 1466.24 552.468 1466.24 Q550.7 1466.24 548.82 1465.88 Q546.958 1465.54 544.964 1464.85 L544.964 1461.18 Q546.544 1462.1 548.425 1462.57 Q550.306 1463.04 552.356 1463.04 Q555.929 1463.04 557.791 1461.63 Q559.672 1460.22 559.672 1457.53 Q559.672 1455.05 557.923 1453.66 Q556.192 1452.25 553.089 1452.25 L549.817 1452.25 L549.817 1449.12 L553.24 1449.12 Q556.042 1449.12 557.528 1448.01 Q559.014 1446.89 559.014 1444.78 Q559.014 1442.62 557.471 1441.47 Q555.948 1440.3 553.089 1440.3 Q551.528 1440.3 549.741 1440.64 Q547.955 1440.98 545.81 1441.69 L545.81 1438.31 Q547.973 1437.71 549.854 1437.41 Q551.754 1437.11 553.428 1437.11 Q557.753 1437.11 560.274 1439.08 Q562.794 1441.04 562.794 1444.38 Q562.794 1446.72 561.459 1448.33 Q560.123 1449.93 557.659 1450.55 Z" fill="#000000" fill-rule="evenodd" fill-opacity="1" /><path clip-path="url(#clip250)" d="M 0 0 M978.529 1489.17 L986.167 1489.17 L986.167 1462.8 L977.857 1464.47 L977.857 1460.21 L986.121 1458.54 L990.797 1458.54 L990.797 1489.17 L998.436 1489.17 L998.436 1493.1 L978.529 1493.1 L978.529 1489.17 Z" fill="#000000" fill-rule="evenodd" fill-opacity="1" /><path clip-path="url(#clip250)" d="M 0 0 M1013.51 1461.62 Q1009.89 1461.62 1008.07 1465.19 Q1006.26 1468.73 1006.26 1475.86 Q1006.26 1482.97 1008.07 1486.53 Q1009.89 1490.07 1013.51 1490.07 Q1017.14 1490.07 1018.95 1486.53 Q1020.77 1482.97 1020.77 1475.86 Q1020.77 1468.73 1018.95 1465.19 Q1017.14 1461.62 1013.51 1461.62 M1013.51 1457.92 Q1019.32 1457.92 1022.37 1462.53 Q1025.45 1467.11 1025.45 1475.86 Q1025.45 1484.59 1022.37 1489.19 Q1019.32 1493.78 1013.51 1493.78 Q1007.7 1493.78 1004.62 1489.19 Q1001.56 1484.59 1001.56 1475.86 Q1001.56 1467.11 1004.62 1462.53 Q1007.7 1457.92 1013.51 1457.92 Z" fill="#000000" fill-rule="evenodd" fill-opacity="1" /><path clip-path="url(#clip250)" d="M 0 0 M1025.45 1452.02 L1049.56 1452.02 L1049.56 1455.22 L1025.45 1455.22 L1025.45 1452.02 Z" fill="#000000" fill-rule="evenodd" fill-opacity="1" /><path clip-path="url(#clip250)" d="M 0 0 M1056.95 1462.5 L1070.21 1462.5 L1070.21 1465.69 L1052.38 1465.69 L1052.38 1462.5 Q1054.55 1460.26 1058.27 1456.5 Q1062.01 1452.72 1062.97 1451.63 Q1064.8 1449.58 1065.51 1448.16 Q1066.24 1446.74 1066.24 1445.36 Q1066.24 1443.12 1064.66 1441.71 Q1063.1 1440.3 1060.58 1440.3 Q1058.8 1440.3 1056.8 1440.92 Q1054.83 1441.54 1052.57 1442.8 L1052.57 1438.97 Q1054.86 1438.05 1056.86 1437.58 Q1058.85 1437.11 1060.51 1437.11 Q1064.87 1437.11 1067.47 1439.29 Q1070.06 1441.47 1070.06 1445.12 Q1070.06 1446.85 1069.4 1448.41 Q1068.76 1449.95 1067.05 1452.06 Q1066.58 1452.6 1064.06 1455.22 Q1061.54 1457.81 1056.95 1462.5 Z" fill="#000000" fill-rule="evenodd" fill-opacity="1" /><path clip-path="url(#clip250)" d="M 0 0 M1485.52 1489.17 L1493.16 1489.17 L1493.16 1462.8 L1484.85 1464.47 L1484.85 1460.21 L1493.12 1458.54 L1497.79 1458.54 L1497.79 1489.17 L1505.43 1489.17 L1505.43 1493.1 L1485.52 1493.1 L1485.52 1489.17 Z" fill="#000000" fill-rule="evenodd" fill-opacity="1" /><path clip-path="url(#clip250)" d="M 0 0 M1520.5 1461.62 Q1516.89 1461.62 1515.06 1465.19 Q1513.25 1468.73 1513.25 1475.86 Q1513.25 1482.97 1515.06 1486.53 Q1516.89 1490.07 1520.5 1490.07 Q1524.13 1490.07 1525.94 1486.53 Q1527.77 1482.97 1527.77 1475.86 Q1527.77 1468.73 1525.94 1465.19 Q1524.13 1461.62 1520.5 1461.62 M1520.5 1457.92 Q1526.31 1457.92 1529.37 1462.53 Q1532.44 1467.11 1532.44 1475.86 Q1532.44 1484.59 1529.37 1489.19 Q1526.31 1493.78 1520.5 1493.78 Q1514.69 1493.78 1511.61 1489.19 Q1508.56 1484.59 1508.56 1475.86 Q1508.56 1467.11 1511.61 1462.53 Q1514.69 1457.92 1520.5 1457.92 Z" fill="#000000" fill-rule="evenodd" fill-opacity="1" /><path clip-path="url(#clip250)" d="M 0 0 M1532.44 1452.02 L1556.56 1452.02 L1556.56 1455.22 L1532.44 1455.22 L1532.44 1452.02 Z" fill="#000000" fill-rule="evenodd" fill-opacity="1" /><path clip-path="url(#clip250)" d="M 0 0 M1561.33 1462.5 L1567.54 1462.5 L1567.54 1441.07 L1560.79 1442.43 L1560.79 1438.97 L1567.5 1437.61 L1571.3 1437.61 L1571.3 1462.5 L1577.51 1462.5 L1577.51 1465.69 L1561.33 1465.69 L1561.33 1462.5 Z" fill="#000000" fill-rule="evenodd" fill-opacity="1" /><path clip-path="url(#clip250)" d="M 0 0 M2005.5 1489.17 L2013.13 1489.17 L2013.13 1462.8 L2004.82 1464.47 L2004.82 1460.21 L2013.09 1458.54 L2017.76 1458.54 L2017.76 1489.17 L2025.4 1489.17 L2025.4 1493.1 L2005.5 1493.1 L2005.5 1489.17 Z" fill="#000000" fill-rule="evenodd" fill-opacity="1" /><path clip-path="url(#clip250)" d="M 0 0 M2040.47 1461.62 Q2036.86 1461.62 2035.03 1465.19 Q2033.23 1468.73 2033.23 1475.86 Q2033.23 1482.97 2035.03 1486.53 Q2036.86 1490.07 2040.47 1490.07 Q2044.11 1490.07 2045.91 1486.53 Q2047.74 1482.97 2047.74 1475.86 Q2047.74 1468.73 2045.91 1465.19 Q2044.11 1461.62 2040.47 1461.62 M2040.47 1457.92 Q2046.28 1457.92 2049.34 1462.53 Q2052.42 1467.11 2052.42 1475.86 Q2052.42 1484.59 2049.34 1489.19 Q2046.28 1493.78 2040.47 1493.78 Q2034.66 1493.78 2031.58 1489.19 Q2028.53 1484.59 2028.53 1475.86 Q2028.53 1467.11 2031.58 1462.53 Q2034.66 1457.92 2040.47 1457.92 Z" fill="#000000" fill-rule="evenodd" fill-opacity="1" /><path clip-path="url(#clip250)" d="M 0 0 M2062.12 1440.11 Q2059.19 1440.11 2057.7 1443.01 Q2056.24 1445.89 2056.24 1451.68 Q2056.24 1457.46 2057.7 1460.35 Q2059.19 1463.23 2062.12 1463.23 Q2065.07 1463.23 2066.54 1460.35 Q2068.03 1457.46 2068.03 1451.68 Q2068.03 1445.89 2066.54 1443.01 Q2065.07 1440.11 2062.12 1440.11 M2062.12 1437.11 Q2066.84 1437.11 2069.33 1440.85 Q2071.83 1444.57 2071.83 1451.68 Q2071.83 1458.77 2069.33 1462.51 Q2066.84 1466.24 2062.12 1466.24 Q2057.4 1466.24 2054.9 1462.51 Q2052.42 1458.77 2052.42 1451.68 Q2052.42 1444.57 2054.9 1440.85 Q2057.4 1437.11 2062.12 1437.11 Z" fill="#000000" fill-rule="evenodd" fill-opacity="1" /><path clip-path="url(#clip250)" d="M 0 0 M1170.38 1526.54 L1176.58 1526.54 L1187.72 1556.46 L1198.86 1526.54 L1205.07 1526.54 L1191.7 1562.19 L1183.75 1562.19 L1170.38 1526.54 Z" fill="#000000" fill-rule="evenodd" fill-opacity="1" /><path clip-path="url(#clip250)" d="M 0 0 M1238.3 1573.01 L1238.3 1577.56 L1204.43 1577.56 L1204.43 1573.01 L1238.3 1573.01 Z" fill="#000000" fill-rule="evenodd" fill-opacity="1" /><path clip-path="url(#clip250)" d="M 0 0 M1258.26 1530.64 Q1253.55 1530.64 1250.81 1534.34 Q1248.07 1538 1248.07 1544.39 Q1248.07 1550.79 1250.78 1554.48 Q1253.51 1558.14 1258.26 1558.14 Q1262.93 1558.14 1265.67 1554.45 Q1268.41 1550.76 1268.41 1544.39 Q1268.41 1538.06 1265.67 1534.37 Q1262.93 1530.64 1258.26 1530.64 M1258.26 1525.68 Q1265.89 1525.68 1270.26 1530.64 Q1274.62 1535.61 1274.62 1544.39 Q1274.62 1553.15 1270.26 1558.14 Q1265.89 1563.11 1258.26 1563.11 Q1250.59 1563.11 1246.22 1558.14 Q1241.9 1553.15 1241.9 1544.39 Q1241.9 1535.61 1246.22 1530.64 Q1250.59 1525.68 1258.26 1525.68 Z" fill="#000000" fill-rule="evenodd" fill-opacity="1" /><path clip-path="url(#clip250)" d="M 0 0 M1286.42 1556.84 L1286.42 1575.74 L1280.54 1575.74 L1280.54 1526.54 L1286.42 1526.54 L1286.42 1531.95 Q1288.27 1528.77 1291.07 1527.24 Q1293.9 1525.68 1297.82 1525.68 Q1304.31 1525.68 1308.35 1530.83 Q1312.43 1535.99 1312.43 1544.39 Q1312.43 1552.8 1308.35 1557.95 Q1304.31 1563.11 1297.82 1563.11 Q1293.9 1563.11 1291.07 1561.58 Q1288.27 1560.02 1286.42 1556.84 M1306.35 1544.39 Q1306.35 1537.93 1303.67 1534.27 Q1301.03 1530.58 1296.39 1530.58 Q1291.74 1530.58 1289.07 1534.27 Q1286.42 1537.93 1286.42 1544.39 Q1286.42 1550.85 1289.07 1554.55 Q1291.74 1558.21 1296.39 1558.21 Q1301.03 1558.21 1303.67 1554.55 Q1306.35 1550.85 1306.35 1544.39 Z" fill="#000000" fill-rule="evenodd" fill-opacity="1" /><path clip-path="url(#clip250)" d="M 0 0 M1349.06 1542.9 L1349.06 1545.76 L1322.14 1545.76 Q1322.52 1551.81 1325.76 1554.99 Q1329.04 1558.14 1334.87 1558.14 Q1338.24 1558.14 1341.39 1557.32 Q1344.57 1556.49 1347.69 1554.83 L1347.69 1560.37 Q1344.54 1561.71 1341.23 1562.41 Q1337.92 1563.11 1334.52 1563.11 Q1325.99 1563.11 1320.99 1558.14 Q1316.02 1553.18 1316.02 1544.71 Q1316.02 1535.96 1320.74 1530.83 Q1325.48 1525.68 1333.5 1525.68 Q1340.69 1525.68 1344.86 1530.33 Q1349.06 1534.94 1349.06 1542.9 M1343.21 1541.18 Q1343.14 1536.37 1340.5 1533.51 Q1337.89 1530.64 1333.56 1530.64 Q1328.66 1530.64 1325.7 1533.41 Q1322.77 1536.18 1322.33 1541.21 L1343.21 1541.18 Z" fill="#000000" fill-rule="evenodd" fill-opacity="1" /><path clip-path="url(#clip250)" d="M 0 0 M1384.84 1540.67 L1384.84 1562.19 L1378.98 1562.19 L1378.98 1540.86 Q1378.98 1535.8 1377.01 1533.29 Q1375.03 1530.77 1371.09 1530.77 Q1366.35 1530.77 1363.61 1533.79 Q1360.87 1536.82 1360.87 1542.04 L1360.87 1562.19 L1354.98 1562.19 L1354.98 1526.54 L1360.87 1526.54 L1360.87 1532.08 Q1362.97 1528.86 1365.8 1527.27 Q1368.67 1525.68 1372.39 1525.68 Q1378.54 1525.68 1381.69 1529.5 Q1384.84 1533.29 1384.84 1540.67 Z" fill="#000000" fill-rule="evenodd" fill-opacity="1" /><polyline clip-path="url(#clip252)" style="stroke:#000000; stroke-width:2; stroke-opacity:0.1; fill:none" points="
  202.459,1221.42 2352.76,1221.42 
  "/>
<polyline clip-path="url(#clip252)" style="stroke:#000000; stroke-width:2; stroke-opacity:0.1; fill:none" points="
  202.459,962.193 2352.76,962.193 
  "/>
<polyline clip-path="url(#clip252)" style="stroke:#000000; stroke-width:2; stroke-opacity:0.1; fill:none" points="
  202.459,702.965 2352.76,702.965 
  "/>
<polyline clip-path="url(#clip252)" style="stroke:#000000; stroke-width:2; stroke-opacity:0.1; fill:none" points="
  202.459,443.738 2352.76,443.738 
  "/>
<polyline clip-path="url(#clip252)" style="stroke:#000000; stroke-width:2; stroke-opacity:0.1; fill:none" points="
  202.459,184.51 2352.76,184.51 
  "/>
<polyline clip-path="url(#clip250)" style="stroke:#000000; stroke-width:4; stroke-opacity:1; fill:none" points="
  202.459,1410.9 202.459,47.2441 
  "/>
<polyline clip-path="url(#clip250)" style="stroke:#000000; stroke-width:4; stroke-opacity:1; fill:none" points="
  202.459,1221.42 228.263,1221.42 
  "/>
<polyline clip-path="url(#clip250)" style="stroke:#000000; stroke-width:4; stroke-opacity:1; fill:none" points="
  202.459,962.193 228.263,962.193 
  "/>
<polyline clip-path="url(#clip250)" style="stroke:#000000; stroke-width:4; stroke-opacity:1; fill:none" points="
  202.459,702.965 228.263,702.965 
  "/>
<polyline clip-path="url(#clip250)" style="stroke:#000000; stroke-width:4; stroke-opacity:1; fill:none" points="
  202.459,443.738 228.263,443.738 
  "/>
<polyline clip-path="url(#clip250)" style="stroke:#000000; stroke-width:4; stroke-opacity:1; fill:none" points="
  202.459,184.51 228.263,184.51 
  "/>
<path clip-path="url(#clip250)" d="M 0 0 M119.538 1234.77 L127.177 1234.77 L127.177 1208.4 L118.867 1210.07 L118.867 1205.81 L127.13 1204.14 L131.806 1204.14 L131.806 1234.77 L139.445 1234.77 L139.445 1238.7 L119.538 1238.7 L119.538 1234.77 Z" fill="#000000" fill-rule="evenodd" fill-opacity="1" /><path clip-path="url(#clip250)" d="M 0 0 M154.515 1207.22 Q150.903 1207.22 149.075 1210.78 Q147.269 1214.33 147.269 1221.46 Q147.269 1228.56 149.075 1232.13 Q150.903 1235.67 154.515 1235.67 Q158.149 1235.67 159.954 1232.13 Q161.783 1228.56 161.783 1221.46 Q161.783 1214.33 159.954 1210.78 Q158.149 1207.22 154.515 1207.22 M154.515 1203.52 Q160.325 1203.52 163.38 1208.12 Q166.459 1212.71 166.459 1221.46 Q166.459 1230.18 163.38 1234.79 Q160.325 1239.37 154.515 1239.37 Q148.704 1239.37 145.626 1234.79 Q142.57 1230.18 142.57 1221.46 Q142.57 1212.71 145.626 1208.12 Q148.704 1203.52 154.515 1203.52 Z" fill="#000000" fill-rule="evenodd" fill-opacity="1" /><path clip-path="url(#clip250)" d="M 0 0 M123.126 975.538 L139.445 975.538 L139.445 979.473 L117.501 979.473 L117.501 975.538 Q120.163 972.783 124.746 968.154 Q129.353 963.501 130.533 962.158 Q132.779 959.635 133.658 957.899 Q134.561 956.14 134.561 954.45 Q134.561 951.695 132.617 949.959 Q130.695 948.223 127.593 948.223 Q125.394 948.223 122.941 948.987 Q120.51 949.751 117.732 951.302 L117.732 946.58 Q120.556 945.445 123.01 944.867 Q125.464 944.288 127.501 944.288 Q132.871 944.288 136.066 946.973 Q139.26 949.658 139.26 954.149 Q139.26 956.279 138.45 958.2 Q137.663 960.098 135.556 962.691 Q134.978 963.362 131.876 966.58 Q128.774 969.774 123.126 975.538 Z" fill="#000000" fill-rule="evenodd" fill-opacity="1" /><path clip-path="url(#clip250)" d="M 0 0 M154.515 947.992 Q150.903 947.992 149.075 951.557 Q147.269 955.098 147.269 962.228 Q147.269 969.334 149.075 972.899 Q150.903 976.441 154.515 976.441 Q158.149 976.441 159.954 972.899 Q161.783 969.334 161.783 962.228 Q161.783 955.098 159.954 951.557 Q158.149 947.992 154.515 947.992 M154.515 944.288 Q160.325 944.288 163.38 948.895 Q166.459 953.478 166.459 962.228 Q166.459 970.955 163.38 975.561 Q160.325 980.144 154.515 980.144 Q148.704 980.144 145.626 975.561 Q142.57 970.955 142.57 962.228 Q142.57 953.478 145.626 948.895 Q148.704 944.288 154.515 944.288 Z" fill="#000000" fill-rule="evenodd" fill-opacity="1" /><path clip-path="url(#clip250)" d="M 0 0 M132.316 701.611 Q135.672 702.329 137.547 704.597 Q139.445 706.866 139.445 710.199 Q139.445 715.315 135.927 718.116 Q132.408 720.917 125.927 720.917 Q123.751 720.917 121.436 720.477 Q119.144 720.06 116.691 719.204 L116.691 714.69 Q118.635 715.824 120.95 716.403 Q123.265 716.982 125.788 716.982 Q130.186 716.982 132.478 715.245 Q134.792 713.509 134.792 710.199 Q134.792 707.144 132.64 705.431 Q130.51 703.695 126.691 703.695 L122.663 703.695 L122.663 699.852 L126.876 699.852 Q130.325 699.852 132.154 698.486 Q133.982 697.097 133.982 694.505 Q133.982 691.843 132.084 690.431 Q130.209 688.996 126.691 688.996 Q124.769 688.996 122.57 689.412 Q120.371 689.829 117.732 690.709 L117.732 686.542 Q120.394 685.801 122.709 685.431 Q125.047 685.06 127.107 685.06 Q132.431 685.06 135.533 687.491 Q138.635 689.898 138.635 694.019 Q138.635 696.889 136.992 698.88 Q135.348 700.847 132.316 701.611 Z" fill="#000000" fill-rule="evenodd" fill-opacity="1" /><path clip-path="url(#clip250)" d="M 0 0 M154.515 688.764 Q150.903 688.764 149.075 692.329 Q147.269 695.871 147.269 703 Q147.269 710.107 149.075 713.671 Q150.903 717.213 154.515 717.213 Q158.149 717.213 159.954 713.671 Q161.783 710.107 161.783 703 Q161.783 695.871 159.954 692.329 Q158.149 688.764 154.515 688.764 M154.515 685.06 Q160.325 685.06 163.38 689.667 Q166.459 694.25 166.459 703 Q166.459 711.727 163.38 716.333 Q160.325 720.917 154.515 720.917 Q148.704 720.917 145.626 716.333 Q142.57 711.727 142.57 703 Q142.57 694.25 145.626 689.667 Q148.704 685.06 154.515 685.06 Z" fill="#000000" fill-rule="evenodd" fill-opacity="1" /><path clip-path="url(#clip250)" d="M 0 0 M129.862 430.532 L118.056 448.981 L129.862 448.981 L129.862 430.532 M128.635 426.458 L134.515 426.458 L134.515 448.981 L139.445 448.981 L139.445 452.87 L134.515 452.87 L134.515 461.018 L129.862 461.018 L129.862 452.87 L114.26 452.87 L114.26 448.356 L128.635 426.458 Z" fill="#000000" fill-rule="evenodd" fill-opacity="1" /><path clip-path="url(#clip250)" d="M 0 0 M154.515 429.536 Q150.903 429.536 149.075 433.101 Q147.269 436.643 147.269 443.773 Q147.269 450.879 149.075 454.444 Q150.903 457.985 154.515 457.985 Q158.149 457.985 159.954 454.444 Q161.783 450.879 161.783 443.773 Q161.783 436.643 159.954 433.101 Q158.149 429.536 154.515 429.536 M154.515 425.833 Q160.325 425.833 163.38 430.439 Q166.459 435.023 166.459 443.773 Q166.459 452.499 163.38 457.106 Q160.325 461.689 154.515 461.689 Q148.704 461.689 145.626 457.106 Q142.57 452.499 142.57 443.773 Q142.57 435.023 145.626 430.439 Q148.704 425.833 154.515 425.833 Z" fill="#000000" fill-rule="evenodd" fill-opacity="1" /><path clip-path="url(#clip250)" d="M 0 0 M118.543 167.23 L136.899 167.23 L136.899 171.165 L122.825 171.165 L122.825 179.637 Q123.843 179.29 124.862 179.128 Q125.88 178.943 126.899 178.943 Q132.686 178.943 136.066 182.114 Q139.445 185.286 139.445 190.702 Q139.445 196.281 135.973 199.383 Q132.501 202.461 126.181 202.461 Q124.005 202.461 121.737 202.091 Q119.492 201.721 117.084 200.98 L117.084 196.281 Q119.168 197.415 121.39 197.971 Q123.612 198.526 126.089 198.526 Q130.093 198.526 132.431 196.42 Q134.769 194.313 134.769 190.702 Q134.769 187.091 132.431 184.985 Q130.093 182.878 126.089 182.878 Q124.214 182.878 122.339 183.295 Q120.487 183.712 118.543 184.591 L118.543 167.23 Z" fill="#000000" fill-rule="evenodd" fill-opacity="1" /><path clip-path="url(#clip250)" d="M 0 0 M154.515 170.309 Q150.903 170.309 149.075 173.874 Q147.269 177.415 147.269 184.545 Q147.269 191.651 149.075 195.216 Q150.903 198.758 154.515 198.758 Q158.149 198.758 159.954 195.216 Q161.783 191.651 161.783 184.545 Q161.783 177.415 159.954 173.874 Q158.149 170.309 154.515 170.309 M154.515 166.605 Q160.325 166.605 163.38 171.212 Q166.459 175.795 166.459 184.545 Q166.459 193.272 163.38 197.878 Q160.325 202.461 154.515 202.461 Q148.704 202.461 145.626 197.878 Q142.57 193.272 142.57 184.545 Q142.57 175.795 145.626 171.212 Q148.704 166.605 154.515 166.605 Z" fill="#000000" fill-rule="evenodd" fill-opacity="1" /><path clip-path="url(#clip250)" d="M 0 0 M59.1993 815.533 Q55.2526 813.336 53.3747 810.281 Q51.4968 807.225 51.4968 803.088 Q51.4968 797.518 55.4117 794.494 Q59.2948 791.47 66.4881 791.47 L88.0042 791.47 L88.0042 797.358 L66.679 797.358 Q61.5546 797.358 59.072 799.173 Q56.5894 800.987 56.5894 804.711 Q56.5894 809.262 59.6131 811.904 Q62.6368 814.546 67.8567 814.546 L88.0042 814.546 L88.0042 820.434 L66.679 820.434 Q61.5228 820.434 59.072 822.248 Q56.5894 824.063 56.5894 827.85 Q56.5894 832.338 59.6449 834.98 Q62.6686 837.622 67.8567 837.622 L88.0042 837.622 L88.0042 843.51 L52.3562 843.51 L52.3562 837.622 L57.8944 837.622 Q54.616 835.616 53.0564 832.815 Q51.4968 830.015 51.4968 826.163 Q51.4968 822.28 53.4702 819.575 Q55.4436 816.838 59.1993 815.533 Z" fill="#000000" fill-rule="evenodd" fill-opacity="1" /><path clip-path="url(#clip250)" d="M 0 0 M52.3562 785.327 L52.3562 779.471 L88.0042 779.471 L88.0042 785.327 L52.3562 785.327 M38.479 785.327 L38.479 779.471 L45.895 779.471 L45.895 785.327 L38.479 785.327 Z" fill="#000000" fill-rule="evenodd" fill-opacity="1" /><path clip-path="url(#clip250)" d="M 0 0 M66.4881 743.696 L88.0042 743.696 L88.0042 749.552 L66.679 749.552 Q61.6183 749.552 59.1038 751.525 Q56.5894 753.499 56.5894 757.446 Q56.5894 762.188 59.6131 764.925 Q62.6368 767.662 67.8567 767.662 L88.0042 767.662 L88.0042 773.551 L52.3562 773.551 L52.3562 767.662 L57.8944 767.662 Q54.6797 765.562 53.0883 762.729 Q51.4968 759.864 51.4968 756.141 Q51.4968 749.998 55.3163 746.847 Q59.1038 743.696 66.4881 743.696 Z" fill="#000000" fill-rule="evenodd" fill-opacity="1" /><path clip-path="url(#clip250)" d="M 0 0 M98.8259 710.467 L103.377 710.467 L103.377 744.332 L98.8259 744.332 L98.8259 710.467 Z" fill="#000000" fill-rule="evenodd" fill-opacity="1" /><path clip-path="url(#clip250)" d="M 0 0 M57.7671 680.866 L38.479 680.866 L38.479 675.01 L88.0042 675.01 L88.0042 680.866 L82.657 680.866 Q85.8398 682.712 87.3994 685.545 Q88.9272 688.346 88.9272 692.292 Q88.9272 698.754 83.771 702.828 Q78.6147 706.87 70.212 706.87 Q61.8093 706.87 56.6531 702.828 Q51.4968 698.754 51.4968 692.292 Q51.4968 688.346 53.0564 685.545 Q54.5842 682.712 57.7671 680.866 M70.212 700.823 Q76.6732 700.823 80.3653 698.181 Q84.0256 695.507 84.0256 690.86 Q84.0256 686.213 80.3653 683.54 Q76.6732 680.866 70.212 680.866 Q63.7508 680.866 60.0905 683.54 Q56.3984 686.213 56.3984 690.86 Q56.3984 695.507 60.0905 698.181 Q63.7508 700.823 70.212 700.823 Z" fill="#000000" fill-rule="evenodd" fill-opacity="1" /><path clip-path="url(#clip250)" d="M 0 0 M52.3562 668.867 L52.3562 663.01 L88.0042 663.01 L88.0042 668.867 L52.3562 668.867 M38.479 668.867 L38.479 663.01 L45.895 663.01 L45.895 668.867 L38.479 668.867 Z" fill="#000000" fill-rule="evenodd" fill-opacity="1" /><path clip-path="url(#clip250)" d="M 0 0 M38.479 638.821 L43.3487 638.821 L43.3487 644.422 Q43.3487 647.573 44.6219 648.815 Q45.895 650.024 49.2052 650.024 L52.3562 650.024 L52.3562 640.38 L56.9077 640.38 L56.9077 650.024 L88.0042 650.024 L88.0042 655.912 L56.9077 655.912 L56.9077 661.514 L52.3562 661.514 L52.3562 655.912 L49.8736 655.912 Q43.9216 655.912 41.2162 653.143 Q38.479 650.374 38.479 644.359 L38.479 638.821 Z" fill="#000000" fill-rule="evenodd" fill-opacity="1" /><path clip-path="url(#clip250)" d="M 0 0 M38.479 614.631 L43.3487 614.631 L43.3487 620.233 Q43.3487 623.384 44.6219 624.625 Q45.895 625.835 49.2052 625.835 L52.3562 625.835 L52.3562 616.19 L56.9077 616.19 L56.9077 625.835 L88.0042 625.835 L88.0042 631.723 L56.9077 631.723 L56.9077 637.325 L52.3562 637.325 L52.3562 631.723 L49.8736 631.723 Q43.9216 631.723 41.2162 628.954 Q38.479 626.185 38.479 620.169 L38.479 614.631 Z" fill="#000000" fill-rule="evenodd" fill-opacity="1" /><polyline clip-path="url(#clip252)" style="stroke:#009af9; stroke-width:20; stroke-opacity:1; fill:none" stroke-dasharray="80, 50" points="
  263.316,1349.9 516.889,1347.28 770.462,1360.36 1024.03,1366.14 1277.61,1372.3 1531.18,1247.22 1784.75,834.552 2038.33,362.868 2291.9,85.838 
  "/>
<path clip-path="url(#clip250)" d="
M1991.14 213.659 L2281.08 213.659 L2281.08 92.6992 L1991.14 92.6992  Z
  " fill="#ffffff" fill-rule="evenodd" fill-opacity="1"/>
<polyline clip-path="url(#clip250)" style="stroke:#000000; stroke-width:4; stroke-opacity:1; fill:none" points="
  1991.14,213.659 2281.08,213.659 2281.08,92.6992 1991.14,92.6992 1991.14,213.659 
  "/>
<polyline clip-path="url(#clip250)" style="stroke:#009af9; stroke-width:4; stroke-opacity:1; fill:none" stroke-dasharray="16, 10" points="
  2015.03,153.179 2158.38,153.179 
  "/>
<path clip-path="url(#clip250)" d="M 0 0 M2196.12 172.867 Q2194.31 177.496 2192.6 178.908 Q2190.89 180.32 2188.02 180.32 L2184.61 180.32 L2184.61 176.755 L2187.11 176.755 Q2188.87 176.755 2189.85 175.922 Q2190.82 175.089 2192 171.987 L2192.76 170.043 L2182.28 144.533 L2186.79 144.533 L2194.89 164.811 L2202.99 144.533 L2207.51 144.533 L2196.12 172.867 Z" fill="#000000" fill-rule="evenodd" fill-opacity="1" /><path clip-path="url(#clip250)" d="M 0 0 M2213.39 166.524 L2221.03 166.524 L2221.03 140.158 L2212.72 141.825 L2212.72 137.566 L2220.98 135.899 L2225.66 135.899 L2225.66 166.524 L2233.29 166.524 L2233.29 170.459 L2213.39 170.459 L2213.39 166.524 Z" fill="#000000" fill-rule="evenodd" fill-opacity="1" /></svg>
