<?xml version="1.0" encoding="utf-8"?>
<svg xmlns="http://www.w3.org/2000/svg" xmlns:xlink="http://www.w3.org/1999/xlink" width="600" height="400" viewBox="0 0 2400 1600">
<defs>
  <clipPath id="clip270">
    <rect x="0" y="0" width="2400" height="1600"/>
  </clipPath>
</defs>
<path clip-path="url(#clip270)" d="
M0 1600 L2400 1600 L2400 0 L0 0  Z
  " fill="#ffffff" fill-rule="evenodd" fill-opacity="1"/>
<defs>
  <clipPath id="clip271">
    <rect x="480" y="0" width="1681" height="1600"/>
  </clipPath>
</defs>
<path clip-path="url(#clip270)" d="
M256.486 1410.9 L2352.76 1410.9 L2352.76 47.2441 L256.486 47.2441  Z
  " fill="#ffffff" fill-rule="evenodd" fill-opacity="1"/>
<defs>
  <clipPath id="clip272">
    <rect x="256" y="47" width="2097" height="1365"/>
  </clipPath>
</defs>
<polyline clip-path="url(#clip272)" style="stroke:#000000; stroke-width:2; stroke-opacity:0.1; fill:none" points="
  628.633,1410.9 628.633,47.2441 
  "/>
<polyline clip-path="url(#clip272)" style="stroke:#000000; stroke-width:2; stroke-opacity:0.1; fill:none" points="
  1148.21,1410.9 1148.21,47.2441 
  "/>
<polyline clip-path="url(#clip272)" style="stroke:#000000; stroke-width:2; stroke-opacity:0.1; fill:none" points="
  1667.79,1410.9 1667.79,47.2441 
  "/>
<polyline clip-path="url(#clip272)" style="stroke:#000000; stroke-width:2; stroke-opacity:0.1; fill:none" points="
  2187.37,1410.9 2187.37,47.2441 
  "/>
<polyline clip-path="url(#clip270)" style="stroke:#000000; stroke-width:4; stroke-opacity:1; fill:none" points="
  256.486,1410.9 2352.76,1410.9 
  "/>
<polyline clip-path="url(#clip270)" style="stroke:#000000; stroke-width:4; stroke-opacity:1; fill:none" points="
  628.633,1410.9 628.633,1394.53 
  "/>
<polyline clip-path="url(#clip270)" style="stroke:#000000; stroke-width:4; stroke-opacity:1; fill:none" points="
  1148.21,1410.9 1148.21,1394.53 
  "/>
<polyline clip-path="url(#clip270)" style="stroke:#000000; stroke-width:4; stroke-opacity:1; fill:none" points="
  1667.79,1410.9 1667.79,1394.53 
  "/>
<polyline clip-path="url(#clip270)" style="stroke:#000000; stroke-width:4; stroke-opacity:1; fill:none" points="
  2187.37,1410.9 2187.37,1394.53 
  "/>
<path clip-path="url(#clip270)" d="M 0 0 M580.785 1489.17 L588.424 1489.17 L588.424 1462.8 L580.114 1464.47 L580.114 1460.21 L588.378 1458.54 L593.054 1458.54 L593.054 1489.17 L600.692 1489.17 L600.692 1493.1 L580.785 1493.1 L580.785 1489.17 Z" fill="#000000" fill-rule="evenodd" fill-opacity="1" /><path clip-path="url(#clip270)" d="M 0 0 M615.762 1461.62 Q612.151 1461.62 610.322 1465.19 Q608.516 1468.73 608.516 1475.86 Q608.516 1482.97 610.322 1486.53 Q612.151 1490.07 615.762 1490.07 Q619.396 1490.07 621.202 1486.53 Q623.03 1482.97 623.03 1475.86 Q623.03 1468.73 621.202 1465.19 Q619.396 1461.62 615.762 1461.62 M615.762 1457.92 Q621.572 1457.92 624.627 1462.53 Q627.706 1467.11 627.706 1475.86 Q627.706 1484.59 624.627 1489.19 Q621.572 1493.78 615.762 1493.78 Q609.952 1493.78 606.873 1489.19 Q603.817 1484.59 603.817 1475.86 Q603.817 1467.11 606.873 1462.53 Q609.952 1457.92 615.762 1457.92 Z" fill="#000000" fill-rule="evenodd" fill-opacity="1" /><path clip-path="url(#clip270)" d="M 0 0 M637.411 1440.11 Q634.477 1440.11 632.991 1443.01 Q631.524 1445.89 631.524 1451.68 Q631.524 1457.46 632.991 1460.35 Q634.477 1463.23 637.411 1463.23 Q640.364 1463.23 641.831 1460.35 Q643.317 1457.46 643.317 1451.68 Q643.317 1445.89 641.831 1443.01 Q640.364 1440.11 637.411 1440.11 M637.411 1437.11 Q642.132 1437.11 644.614 1440.85 Q647.116 1444.57 647.116 1451.68 Q647.116 1458.77 644.614 1462.51 Q642.132 1466.24 637.411 1466.24 Q632.69 1466.24 630.189 1462.51 Q627.706 1458.77 627.706 1451.68 Q627.706 1444.57 630.189 1440.85 Q632.69 1437.11 637.411 1437.11 Z" fill="#000000" fill-rule="evenodd" fill-opacity="1" /><path clip-path="url(#clip270)" d="M 0 0 M651.235 1460.92 L655.203 1460.92 L655.203 1465.69 L651.235 1465.69 L651.235 1460.92 Z" fill="#000000" fill-rule="evenodd" fill-opacity="1" /><path clip-path="url(#clip270)" d="M 0 0 M667.447 1440.11 Q664.513 1440.11 663.027 1443.01 Q661.56 1445.89 661.56 1451.68 Q661.56 1457.46 663.027 1460.35 Q664.513 1463.23 667.447 1463.23 Q670.4 1463.23 671.867 1460.35 Q673.353 1457.46 673.353 1451.68 Q673.353 1445.89 671.867 1443.01 Q670.4 1440.11 667.447 1440.11 M667.447 1437.11 Q672.168 1437.11 674.65 1440.85 Q677.152 1444.57 677.152 1451.68 Q677.152 1458.77 674.65 1462.51 Q672.168 1466.24 667.447 1466.24 Q662.726 1466.24 660.225 1462.51 Q657.742 1458.77 657.742 1451.68 Q657.742 1444.57 660.225 1440.85 Q662.726 1437.11 667.447 1437.11 Z" fill="#000000" fill-rule="evenodd" fill-opacity="1" /><path clip-path="url(#clip270)" d="M 0 0 M1100.77 1489.17 L1108.41 1489.17 L1108.41 1462.8 L1100.1 1464.47 L1100.1 1460.21 L1108.36 1458.54 L1113.04 1458.54 L1113.04 1489.17 L1120.68 1489.17 L1120.68 1493.1 L1100.77 1493.1 L1100.77 1489.17 Z" fill="#000000" fill-rule="evenodd" fill-opacity="1" /><path clip-path="url(#clip270)" d="M 0 0 M1135.75 1461.62 Q1132.13 1461.62 1130.31 1465.19 Q1128.5 1468.73 1128.5 1475.86 Q1128.5 1482.97 1130.31 1486.53 Q1132.13 1490.07 1135.75 1490.07 Q1139.38 1490.07 1141.19 1486.53 Q1143.01 1482.97 1143.01 1475.86 Q1143.01 1468.73 1141.19 1465.19 Q1139.38 1461.62 1135.75 1461.62 M1135.75 1457.92 Q1141.56 1457.92 1144.61 1462.53 Q1147.69 1467.11 1147.69 1475.86 Q1147.69 1484.59 1144.61 1489.19 Q1141.56 1493.78 1135.75 1493.78 Q1129.94 1493.78 1126.86 1489.19 Q1123.8 1484.59 1123.8 1475.86 Q1123.8 1467.11 1126.86 1462.53 Q1129.94 1457.92 1135.75 1457.92 Z" fill="#000000" fill-rule="evenodd" fill-opacity="1" /><path clip-path="url(#clip270)" d="M 0 0 M1157.39 1440.11 Q1154.46 1440.11 1152.97 1443.01 Q1151.51 1445.89 1151.51 1451.68 Q1151.51 1457.46 1152.97 1460.35 Q1154.46 1463.23 1157.39 1463.23 Q1160.35 1463.23 1161.81 1460.35 Q1163.3 1457.46 1163.3 1451.68 Q1163.3 1445.89 1161.81 1443.01 Q1160.35 1440.11 1157.39 1440.11 M1157.39 1437.11 Q1162.12 1437.11 1164.6 1440.85 Q1167.1 1444.57 1167.1 1451.68 Q1167.1 1458.77 1164.6 1462.51 Q1162.12 1466.24 1157.39 1466.24 Q1152.67 1466.24 1150.17 1462.51 Q1147.69 1458.77 1147.69 1451.68 Q1147.69 1444.57 1150.17 1440.85 Q1152.67 1437.11 1157.39 1437.11 Z" fill="#000000" fill-rule="evenodd" fill-opacity="1" /><path clip-path="url(#clip270)" d="M 0 0 M1171.22 1460.92 L1175.19 1460.92 L1175.19 1465.69 L1171.22 1465.69 L1171.22 1460.92 Z" fill="#000000" fill-rule="evenodd" fill-opacity="1" /><path clip-path="url(#clip270)" d="M 0 0 M1179.34 1437.61 L1194.26 1437.61 L1194.26 1440.81 L1182.82 1440.81 L1182.82 1447.69 Q1183.65 1447.41 1184.48 1447.28 Q1185.31 1447.13 1186.13 1447.13 Q1190.83 1447.13 1193.58 1449.71 Q1196.33 1452.28 1196.33 1456.68 Q1196.33 1461.22 1193.51 1463.74 Q1190.68 1466.24 1185.55 1466.24 Q1183.78 1466.24 1181.94 1465.94 Q1180.11 1465.64 1178.16 1465.04 L1178.16 1461.22 Q1179.85 1462.14 1181.66 1462.59 Q1183.46 1463.04 1185.47 1463.04 Q1188.73 1463.04 1190.63 1461.33 Q1192.53 1459.62 1192.53 1456.68 Q1192.53 1453.75 1190.63 1452.04 Q1188.73 1450.33 1185.47 1450.33 Q1183.95 1450.33 1182.43 1450.67 Q1180.92 1451 1179.34 1451.72 L1179.34 1437.61 Z" fill="#000000" fill-rule="evenodd" fill-opacity="1" /><path clip-path="url(#clip270)" d="M 0 0 M1621.29 1489.17 L1628.93 1489.17 L1628.93 1462.8 L1620.62 1464.47 L1620.62 1460.21 L1628.88 1458.54 L1633.56 1458.54 L1633.56 1489.17 L1641.2 1489.17 L1641.2 1493.1 L1621.29 1493.1 L1621.29 1489.17 Z" fill="#000000" fill-rule="evenodd" fill-opacity="1" /><path clip-path="url(#clip270)" d="M 0 0 M1656.27 1461.62 Q1652.65 1461.62 1650.83 1465.19 Q1649.02 1468.73 1649.02 1475.86 Q1649.02 1482.97 1650.83 1486.53 Q1652.65 1490.07 1656.27 1490.07 Q1659.9 1490.07 1661.71 1486.53 Q1663.53 1482.97 1663.53 1475.86 Q1663.53 1468.73 1661.71 1465.19 Q1659.9 1461.62 1656.27 1461.62 M1656.27 1457.92 Q1662.08 1457.92 1665.13 1462.53 Q1668.21 1467.11 1668.21 1475.86 Q1668.21 1484.59 1665.13 1489.19 Q1662.08 1493.78 1656.27 1493.78 Q1650.46 1493.78 1647.38 1489.19 Q1644.32 1484.59 1644.32 1475.86 Q1644.32 1467.11 1647.38 1462.53 Q1650.46 1457.92 1656.27 1457.92 Z" fill="#000000" fill-rule="evenodd" fill-opacity="1" /><path clip-path="url(#clip270)" d="M 0 0 M1668.76 1462.5 L1674.96 1462.5 L1674.96 1441.07 L1668.21 1442.43 L1668.21 1438.97 L1674.92 1437.61 L1678.72 1437.61 L1678.72 1462.5 L1684.93 1462.5 L1684.93 1465.69 L1668.76 1465.69 L1668.76 1462.5 Z" fill="#000000" fill-rule="evenodd" fill-opacity="1" /><path clip-path="url(#clip270)" d="M 0 0 M1689.05 1460.92 L1693.02 1460.92 L1693.02 1465.69 L1689.05 1465.69 L1689.05 1460.92 Z" fill="#000000" fill-rule="evenodd" fill-opacity="1" /><path clip-path="url(#clip270)" d="M 0 0 M1705.26 1440.11 Q1702.33 1440.11 1700.84 1443.01 Q1699.37 1445.89 1699.37 1451.68 Q1699.37 1457.46 1700.84 1460.35 Q1702.33 1463.23 1705.26 1463.23 Q1708.21 1463.23 1709.68 1460.35 Q1711.17 1457.46 1711.17 1451.68 Q1711.17 1445.89 1709.68 1443.01 Q1708.21 1440.11 1705.26 1440.11 M1705.26 1437.11 Q1709.98 1437.11 1712.46 1440.85 Q1714.97 1444.57 1714.97 1451.68 Q1714.97 1458.77 1712.46 1462.51 Q1709.98 1466.24 1705.26 1466.24 Q1700.54 1466.24 1698.04 1462.51 Q1695.56 1458.77 1695.56 1451.68 Q1695.56 1444.57 1698.04 1440.85 Q1700.54 1437.11 1705.26 1437.11 Z" fill="#000000" fill-rule="evenodd" fill-opacity="1" /><path clip-path="url(#clip270)" d="M 0 0 M2141.27 1489.17 L2148.91 1489.17 L2148.91 1462.8 L2140.6 1464.47 L2140.6 1460.21 L2148.86 1458.54 L2153.54 1458.54 L2153.54 1489.17 L2161.18 1489.17 L2161.18 1493.1 L2141.27 1493.1 L2141.27 1489.17 Z" fill="#000000" fill-rule="evenodd" fill-opacity="1" /><path clip-path="url(#clip270)" d="M 0 0 M2176.25 1461.62 Q2172.64 1461.62 2170.81 1465.19 Q2169 1468.73 2169 1475.86 Q2169 1482.97 2170.81 1486.53 Q2172.64 1490.07 2176.25 1490.07 Q2179.88 1490.07 2181.69 1486.53 Q2183.52 1482.97 2183.52 1475.86 Q2183.52 1468.73 2181.69 1465.19 Q2179.88 1461.62 2176.25 1461.62 M2176.25 1457.92 Q2182.06 1457.92 2185.11 1462.53 Q2188.19 1467.11 2188.19 1475.86 Q2188.19 1484.59 2185.11 1489.19 Q2182.06 1493.78 2176.25 1493.78 Q2170.44 1493.78 2167.36 1489.19 Q2164.3 1484.59 2164.3 1475.86 Q2164.3 1467.11 2167.36 1462.53 Q2170.44 1457.92 2176.25 1457.92 Z" fill="#000000" fill-rule="evenodd" fill-opacity="1" /><path clip-path="url(#clip270)" d="M 0 0 M2188.74 1462.5 L2194.95 1462.5 L2194.95 1441.07 L2188.19 1442.43 L2188.19 1438.97 L2194.91 1437.61 L2198.71 1437.61 L2198.71 1462.5 L2204.91 1462.5 L2204.91 1465.69 L2188.74 1465.69 L2188.74 1462.5 Z" fill="#000000" fill-rule="evenodd" fill-opacity="1" /><path clip-path="url(#clip270)" d="M 0 0 M2209.03 1460.92 L2213 1460.92 L2213 1465.69 L2209.03 1465.69 L2209.03 1460.92 Z" fill="#000000" fill-rule="evenodd" fill-opacity="1" /><path clip-path="url(#clip270)" d="M 0 0 M2217.16 1437.61 L2232.07 1437.61 L2232.07 1440.81 L2220.64 1440.81 L2220.64 1447.69 Q2221.46 1447.41 2222.29 1447.28 Q2223.12 1447.13 2223.95 1447.13 Q2228.65 1447.13 2231.39 1449.71 Q2234.14 1452.28 2234.14 1456.68 Q2234.14 1461.22 2231.32 1463.74 Q2228.5 1466.24 2223.36 1466.24 Q2221.6 1466.24 2219.75 1465.94 Q2217.93 1465.64 2215.97 1465.04 L2215.97 1461.22 Q2217.67 1462.14 2219.47 1462.59 Q2221.28 1463.04 2223.29 1463.04 Q2226.54 1463.04 2228.44 1461.33 Q2230.34 1459.62 2230.34 1456.68 Q2230.34 1453.75 2228.44 1452.04 Q2226.54 1450.33 2223.29 1450.33 Q2221.77 1450.33 2220.24 1450.67 Q2218.74 1451 2217.16 1451.72 L2217.16 1437.61 Z" fill="#000000" fill-rule="evenodd" fill-opacity="1" /><path clip-path="url(#clip270)" d="M 0 0 M1295.1 1559.99 L1295.1 1575.74 L1289.22 1575.74 L1289.22 1526.76 Q1289.22 1512.25 1302.78 1512.25 Q1316.59 1512.25 1316.59 1524.5 Q1316.59 1533.22 1311.11 1536.4 Q1320.03 1539.27 1320.03 1547.77 Q1320.03 1562.85 1304.68 1562.85 Q1297.94 1562.85 1295.1 1559.99 M1295.1 1552.35 Q1298.64 1557.86 1304.91 1557.86 Q1314.07 1557.86 1314.07 1547.86 Q1314.07 1538.89 1299.31 1539.59 L1299.31 1534.18 Q1310.86 1534.18 1310.86 1523.99 Q1310.86 1517.02 1303.41 1517.02 Q1295.1 1517.02 1295.1 1526.95 L1295.1 1552.35 Z" fill="#000000" fill-rule="evenodd" fill-opacity="1" /><polyline clip-path="url(#clip272)" style="stroke:#000000; stroke-width:2; stroke-opacity:0.1; fill:none" points="
  256.486,1381.57 2352.76,1381.57 
  "/>
<polyline clip-path="url(#clip272)" style="stroke:#000000; stroke-width:2; stroke-opacity:0.1; fill:none" points="
  256.486,1152.15 2352.76,1152.15 
  "/>
<polyline clip-path="url(#clip272)" style="stroke:#000000; stroke-width:2; stroke-opacity:0.1; fill:none" points="
  256.486,922.735 2352.76,922.735 
  "/>
<polyline clip-path="url(#clip272)" style="stroke:#000000; stroke-width:2; stroke-opacity:0.1; fill:none" points="
  256.486,693.317 2352.76,693.317 
  "/>
<polyline clip-path="url(#clip272)" style="stroke:#000000; stroke-width:2; stroke-opacity:0.1; fill:none" points="
  256.486,463.899 2352.76,463.899 
  "/>
<polyline clip-path="url(#clip272)" style="stroke:#000000; stroke-width:2; stroke-opacity:0.1; fill:none" points="
  256.486,234.481 2352.76,234.481 
  "/>
<polyline clip-path="url(#clip270)" style="stroke:#000000; stroke-width:4; stroke-opacity:1; fill:none" points="
  256.486,1410.9 256.486,47.2441 
  "/>
<polyline clip-path="url(#clip270)" style="stroke:#000000; stroke-width:4; stroke-opacity:1; fill:none" points="
  256.486,1381.57 281.642,1381.57 
  "/>
<polyline clip-path="url(#clip270)" style="stroke:#000000; stroke-width:4; stroke-opacity:1; fill:none" points="
  256.486,1152.15 281.642,1152.15 
  "/>
<polyline clip-path="url(#clip270)" style="stroke:#000000; stroke-width:4; stroke-opacity:1; fill:none" points="
  256.486,922.735 281.642,922.735 
  "/>
<polyline clip-path="url(#clip270)" style="stroke:#000000; stroke-width:4; stroke-opacity:1; fill:none" points="
  256.486,693.317 281.642,693.317 
  "/>
<polyline clip-path="url(#clip270)" style="stroke:#000000; stroke-width:4; stroke-opacity:1; fill:none" points="
  256.486,463.899 281.642,463.899 
  "/>
<polyline clip-path="url(#clip270)" style="stroke:#000000; stroke-width:4; stroke-opacity:1; fill:none" points="
  256.486,234.481 281.642,234.481 
  "/>
<path clip-path="url(#clip270)" d="M 0 0 M208.542 1367.37 Q204.931 1367.37 203.102 1370.93 Q201.297 1374.48 201.297 1381.61 Q201.297 1388.71 203.102 1392.28 Q204.931 1395.82 208.542 1395.82 Q212.176 1395.82 213.982 1392.28 Q215.811 1388.71 215.811 1381.61 Q215.811 1374.48 213.982 1370.93 Q212.176 1367.37 208.542 1367.37 M208.542 1363.67 Q214.352 1363.67 217.408 1368.27 Q220.486 1372.86 220.486 1381.61 Q220.486 1390.33 217.408 1394.94 Q214.352 1399.52 208.542 1399.52 Q202.732 1399.52 199.653 1394.94 Q196.598 1390.33 196.598 1381.61 Q196.598 1372.86 199.653 1368.27 Q202.732 1363.67 208.542 1363.67 Z" fill="#000000" fill-rule="evenodd" fill-opacity="1" /><path clip-path="url(#clip270)" d="M 0 0 M119.538 1165.5 L127.177 1165.5 L127.177 1139.13 L118.867 1140.8 L118.867 1136.54 L127.13 1134.87 L131.806 1134.87 L131.806 1165.5 L139.445 1165.5 L139.445 1169.43 L119.538 1169.43 L119.538 1165.5 Z" fill="#000000" fill-rule="evenodd" fill-opacity="1" /><path clip-path="url(#clip270)" d="M 0 0 M154.515 1137.95 Q150.903 1137.95 149.075 1141.52 Q147.269 1145.06 147.269 1152.19 Q147.269 1159.29 149.075 1162.86 Q150.903 1166.4 154.515 1166.4 Q158.149 1166.4 159.954 1162.86 Q161.783 1159.29 161.783 1152.19 Q161.783 1145.06 159.954 1141.52 Q158.149 1137.95 154.515 1137.95 M154.515 1134.25 Q160.325 1134.25 163.38 1138.85 Q166.459 1143.44 166.459 1152.19 Q166.459 1160.91 163.38 1165.52 Q160.325 1170.1 154.515 1170.1 Q148.704 1170.1 145.626 1165.52 Q142.57 1160.91 142.57 1152.19 Q142.57 1143.44 145.626 1138.85 Q148.704 1134.25 154.515 1134.25 Z" fill="#000000" fill-rule="evenodd" fill-opacity="1" /><path clip-path="url(#clip270)" d="M 0 0 M181.528 1137.95 Q177.917 1137.95 176.089 1141.52 Q174.283 1145.06 174.283 1152.19 Q174.283 1159.29 176.089 1162.86 Q177.917 1166.4 181.528 1166.4 Q185.163 1166.4 186.968 1162.86 Q188.797 1159.29 188.797 1152.19 Q188.797 1145.06 186.968 1141.52 Q185.163 1137.95 181.528 1137.95 M181.528 1134.25 Q187.338 1134.25 190.394 1138.85 Q193.473 1143.44 193.473 1152.19 Q193.473 1160.91 190.394 1165.52 Q187.338 1170.1 181.528 1170.1 Q175.718 1170.1 172.639 1165.52 Q169.584 1160.91 169.584 1152.19 Q169.584 1143.44 172.639 1138.85 Q175.718 1134.25 181.528 1134.25 Z" fill="#000000" fill-rule="evenodd" fill-opacity="1" /><path clip-path="url(#clip270)" d="M 0 0 M208.542 1137.95 Q204.931 1137.95 203.102 1141.52 Q201.297 1145.06 201.297 1152.19 Q201.297 1159.29 203.102 1162.86 Q204.931 1166.4 208.542 1166.4 Q212.176 1166.4 213.982 1162.86 Q215.811 1159.29 215.811 1152.19 Q215.811 1145.06 213.982 1141.52 Q212.176 1137.95 208.542 1137.95 M208.542 1134.25 Q214.352 1134.25 217.408 1138.85 Q220.486 1143.44 220.486 1152.19 Q220.486 1160.91 217.408 1165.52 Q214.352 1170.1 208.542 1170.1 Q202.732 1170.1 199.653 1165.52 Q196.598 1160.91 196.598 1152.19 Q196.598 1143.44 199.653 1138.85 Q202.732 1134.25 208.542 1134.25 Z" fill="#000000" fill-rule="evenodd" fill-opacity="1" /><path clip-path="url(#clip270)" d="M 0 0 M123.126 936.08 L139.445 936.08 L139.445 940.015 L117.501 940.015 L117.501 936.08 Q120.163 933.325 124.746 928.696 Q129.353 924.043 130.533 922.7 Q132.779 920.177 133.658 918.441 Q134.561 916.682 134.561 914.992 Q134.561 912.237 132.617 910.501 Q130.695 908.765 127.593 908.765 Q125.394 908.765 122.941 909.529 Q120.51 910.293 117.732 911.844 L117.732 907.122 Q120.556 905.987 123.01 905.409 Q125.464 904.83 127.501 904.83 Q132.871 904.83 136.066 907.515 Q139.26 910.2 139.26 914.691 Q139.26 916.821 138.45 918.742 Q137.663 920.64 135.556 923.233 Q134.978 923.904 131.876 927.122 Q128.774 930.316 123.126 936.08 Z" fill="#000000" fill-rule="evenodd" fill-opacity="1" /><path clip-path="url(#clip270)" d="M 0 0 M154.515 908.534 Q150.903 908.534 149.075 912.099 Q147.269 915.64 147.269 922.77 Q147.269 929.876 149.075 933.441 Q150.903 936.983 154.515 936.983 Q158.149 936.983 159.954 933.441 Q161.783 929.876 161.783 922.77 Q161.783 915.64 159.954 912.099 Q158.149 908.534 154.515 908.534 M154.515 904.83 Q160.325 904.83 163.38 909.436 Q166.459 914.02 166.459 922.77 Q166.459 931.497 163.38 936.103 Q160.325 940.686 154.515 940.686 Q148.704 940.686 145.626 936.103 Q142.57 931.497 142.57 922.77 Q142.57 914.02 145.626 909.436 Q148.704 904.83 154.515 904.83 Z" fill="#000000" fill-rule="evenodd" fill-opacity="1" /><path clip-path="url(#clip270)" d="M 0 0 M181.528 908.534 Q177.917 908.534 176.089 912.099 Q174.283 915.64 174.283 922.77 Q174.283 929.876 176.089 933.441 Q177.917 936.983 181.528 936.983 Q185.163 936.983 186.968 933.441 Q188.797 929.876 188.797 922.77 Q188.797 915.64 186.968 912.099 Q185.163 908.534 181.528 908.534 M181.528 904.83 Q187.338 904.83 190.394 909.436 Q193.473 914.02 193.473 922.77 Q193.473 931.497 190.394 936.103 Q187.338 940.686 181.528 940.686 Q175.718 940.686 172.639 936.103 Q169.584 931.497 169.584 922.77 Q169.584 914.02 172.639 909.436 Q175.718 904.83 181.528 904.83 Z" fill="#000000" fill-rule="evenodd" fill-opacity="1" /><path clip-path="url(#clip270)" d="M 0 0 M208.542 908.534 Q204.931 908.534 203.102 912.099 Q201.297 915.64 201.297 922.77 Q201.297 929.876 203.102 933.441 Q204.931 936.983 208.542 936.983 Q212.176 936.983 213.982 933.441 Q215.811 929.876 215.811 922.77 Q215.811 915.64 213.982 912.099 Q212.176 908.534 208.542 908.534 M208.542 904.83 Q214.352 904.83 217.408 909.436 Q220.486 914.02 220.486 922.77 Q220.486 931.497 217.408 936.103 Q214.352 940.686 208.542 940.686 Q202.732 940.686 199.653 936.103 Q196.598 931.497 196.598 922.77 Q196.598 914.02 199.653 909.436 Q202.732 904.83 208.542 904.83 Z" fill="#000000" fill-rule="evenodd" fill-opacity="1" /><path clip-path="url(#clip270)" d="M 0 0 M132.316 691.963 Q135.672 692.68 137.547 694.949 Q139.445 697.218 139.445 700.551 Q139.445 705.667 135.927 708.467 Q132.408 711.268 125.927 711.268 Q123.751 711.268 121.436 710.829 Q119.144 710.412 116.691 709.555 L116.691 705.042 Q118.635 706.176 120.95 706.754 Q123.265 707.333 125.788 707.333 Q130.186 707.333 132.478 705.597 Q134.792 703.861 134.792 700.551 Q134.792 697.495 132.64 695.782 Q130.51 694.046 126.691 694.046 L122.663 694.046 L122.663 690.204 L126.876 690.204 Q130.325 690.204 132.154 688.838 Q133.982 687.449 133.982 684.856 Q133.982 682.194 132.084 680.782 Q130.209 679.347 126.691 679.347 Q124.769 679.347 122.57 679.764 Q120.371 680.181 117.732 681.06 L117.732 676.894 Q120.394 676.153 122.709 675.782 Q125.047 675.412 127.107 675.412 Q132.431 675.412 135.533 677.843 Q138.635 680.25 138.635 684.37 Q138.635 687.241 136.992 689.231 Q135.348 691.199 132.316 691.963 Z" fill="#000000" fill-rule="evenodd" fill-opacity="1" /><path clip-path="url(#clip270)" d="M 0 0 M154.515 679.116 Q150.903 679.116 149.075 682.681 Q147.269 686.222 147.269 693.352 Q147.269 700.458 149.075 704.023 Q150.903 707.565 154.515 707.565 Q158.149 707.565 159.954 704.023 Q161.783 700.458 161.783 693.352 Q161.783 686.222 159.954 682.681 Q158.149 679.116 154.515 679.116 M154.515 675.412 Q160.325 675.412 163.38 680.019 Q166.459 684.602 166.459 693.352 Q166.459 702.079 163.38 706.685 Q160.325 711.268 154.515 711.268 Q148.704 711.268 145.626 706.685 Q142.57 702.079 142.57 693.352 Q142.57 684.602 145.626 680.019 Q148.704 675.412 154.515 675.412 Z" fill="#000000" fill-rule="evenodd" fill-opacity="1" /><path clip-path="url(#clip270)" d="M 0 0 M181.528 679.116 Q177.917 679.116 176.089 682.681 Q174.283 686.222 174.283 693.352 Q174.283 700.458 176.089 704.023 Q177.917 707.565 181.528 707.565 Q185.163 707.565 186.968 704.023 Q188.797 700.458 188.797 693.352 Q188.797 686.222 186.968 682.681 Q185.163 679.116 181.528 679.116 M181.528 675.412 Q187.338 675.412 190.394 680.019 Q193.473 684.602 193.473 693.352 Q193.473 702.079 190.394 706.685 Q187.338 711.268 181.528 711.268 Q175.718 711.268 172.639 706.685 Q169.584 702.079 169.584 693.352 Q169.584 684.602 172.639 680.019 Q175.718 675.412 181.528 675.412 Z" fill="#000000" fill-rule="evenodd" fill-opacity="1" /><path clip-path="url(#clip270)" d="M 0 0 M208.542 679.116 Q204.931 679.116 203.102 682.681 Q201.297 686.222 201.297 693.352 Q201.297 700.458 203.102 704.023 Q204.931 707.565 208.542 707.565 Q212.176 707.565 213.982 704.023 Q215.811 700.458 215.811 693.352 Q215.811 686.222 213.982 682.681 Q212.176 679.116 208.542 679.116 M208.542 675.412 Q214.352 675.412 217.408 680.019 Q220.486 684.602 220.486 693.352 Q220.486 702.079 217.408 706.685 Q214.352 711.268 208.542 711.268 Q202.732 711.268 199.653 706.685 Q196.598 702.079 196.598 693.352 Q196.598 684.602 199.653 680.019 Q202.732 675.412 208.542 675.412 Z" fill="#000000" fill-rule="evenodd" fill-opacity="1" /><path clip-path="url(#clip270)" d="M 0 0 M129.862 450.693 L118.056 469.142 L129.862 469.142 L129.862 450.693 M128.635 446.619 L134.515 446.619 L134.515 469.142 L139.445 469.142 L139.445 473.031 L134.515 473.031 L134.515 481.179 L129.862 481.179 L129.862 473.031 L114.26 473.031 L114.26 468.517 L128.635 446.619 Z" fill="#000000" fill-rule="evenodd" fill-opacity="1" /><path clip-path="url(#clip270)" d="M 0 0 M154.515 449.698 Q150.903 449.698 149.075 453.263 Q147.269 456.804 147.269 463.934 Q147.269 471.04 149.075 474.605 Q150.903 478.147 154.515 478.147 Q158.149 478.147 159.954 474.605 Q161.783 471.04 161.783 463.934 Q161.783 456.804 159.954 453.263 Q158.149 449.698 154.515 449.698 M154.515 445.994 Q160.325 445.994 163.38 450.601 Q166.459 455.184 166.459 463.934 Q166.459 472.661 163.38 477.267 Q160.325 481.85 154.515 481.85 Q148.704 481.85 145.626 477.267 Q142.57 472.661 142.57 463.934 Q142.57 455.184 145.626 450.601 Q148.704 445.994 154.515 445.994 Z" fill="#000000" fill-rule="evenodd" fill-opacity="1" /><path clip-path="url(#clip270)" d="M 0 0 M181.528 449.698 Q177.917 449.698 176.089 453.263 Q174.283 456.804 174.283 463.934 Q174.283 471.04 176.089 474.605 Q177.917 478.147 181.528 478.147 Q185.163 478.147 186.968 474.605 Q188.797 471.04 188.797 463.934 Q188.797 456.804 186.968 453.263 Q185.163 449.698 181.528 449.698 M181.528 445.994 Q187.338 445.994 190.394 450.601 Q193.473 455.184 193.473 463.934 Q193.473 472.661 190.394 477.267 Q187.338 481.85 181.528 481.85 Q175.718 481.85 172.639 477.267 Q169.584 472.661 169.584 463.934 Q169.584 455.184 172.639 450.601 Q175.718 445.994 181.528 445.994 Z" fill="#000000" fill-rule="evenodd" fill-opacity="1" /><path clip-path="url(#clip270)" d="M 0 0 M208.542 449.698 Q204.931 449.698 203.102 453.263 Q201.297 456.804 201.297 463.934 Q201.297 471.04 203.102 474.605 Q204.931 478.147 208.542 478.147 Q212.176 478.147 213.982 474.605 Q215.811 471.04 215.811 463.934 Q215.811 456.804 213.982 453.263 Q212.176 449.698 208.542 449.698 M208.542 445.994 Q214.352 445.994 217.408 450.601 Q220.486 455.184 220.486 463.934 Q220.486 472.661 217.408 477.267 Q214.352 481.85 208.542 481.85 Q202.732 481.85 199.653 477.267 Q196.598 472.661 196.598 463.934 Q196.598 455.184 199.653 450.601 Q202.732 445.994 208.542 445.994 Z" fill="#000000" fill-rule="evenodd" fill-opacity="1" /><path clip-path="url(#clip270)" d="M 0 0 M118.543 217.201 L136.899 217.201 L136.899 221.136 L122.825 221.136 L122.825 229.608 Q123.843 229.261 124.862 229.099 Q125.88 228.914 126.899 228.914 Q132.686 228.914 136.066 232.085 Q139.445 235.257 139.445 240.673 Q139.445 246.252 135.973 249.354 Q132.501 252.432 126.181 252.432 Q124.005 252.432 121.737 252.062 Q119.492 251.692 117.084 250.951 L117.084 246.252 Q119.168 247.386 121.39 247.942 Q123.612 248.497 126.089 248.497 Q130.093 248.497 132.431 246.391 Q134.769 244.284 134.769 240.673 Q134.769 237.062 132.431 234.956 Q130.093 232.849 126.089 232.849 Q124.214 232.849 122.339 233.266 Q120.487 233.683 118.543 234.562 L118.543 217.201 Z" fill="#000000" fill-rule="evenodd" fill-opacity="1" /><path clip-path="url(#clip270)" d="M 0 0 M154.515 220.28 Q150.903 220.28 149.075 223.845 Q147.269 227.386 147.269 234.516 Q147.269 241.622 149.075 245.187 Q150.903 248.729 154.515 248.729 Q158.149 248.729 159.954 245.187 Q161.783 241.622 161.783 234.516 Q161.783 227.386 159.954 223.845 Q158.149 220.28 154.515 220.28 M154.515 216.576 Q160.325 216.576 163.38 221.183 Q166.459 225.766 166.459 234.516 Q166.459 243.243 163.38 247.849 Q160.325 252.432 154.515 252.432 Q148.704 252.432 145.626 247.849 Q142.57 243.243 142.57 234.516 Q142.57 225.766 145.626 221.183 Q148.704 216.576 154.515 216.576 Z" fill="#000000" fill-rule="evenodd" fill-opacity="1" /><path clip-path="url(#clip270)" d="M 0 0 M181.528 220.28 Q177.917 220.28 176.089 223.845 Q174.283 227.386 174.283 234.516 Q174.283 241.622 176.089 245.187 Q177.917 248.729 181.528 248.729 Q185.163 248.729 186.968 245.187 Q188.797 241.622 188.797 234.516 Q188.797 227.386 186.968 223.845 Q185.163 220.28 181.528 220.28 M181.528 216.576 Q187.338 216.576 190.394 221.183 Q193.473 225.766 193.473 234.516 Q193.473 243.243 190.394 247.849 Q187.338 252.432 181.528 252.432 Q175.718 252.432 172.639 247.849 Q169.584 243.243 169.584 234.516 Q169.584 225.766 172.639 221.183 Q175.718 216.576 181.528 216.576 Z" fill="#000000" fill-rule="evenodd" fill-opacity="1" /><path clip-path="url(#clip270)" d="M 0 0 M208.542 220.28 Q204.931 220.28 203.102 223.845 Q201.297 227.386 201.297 234.516 Q201.297 241.622 203.102 245.187 Q204.931 248.729 208.542 248.729 Q212.176 248.729 213.982 245.187 Q215.811 241.622 215.811 234.516 Q215.811 227.386 213.982 223.845 Q212.176 220.28 208.542 220.28 M208.542 216.576 Q214.352 216.576 217.408 221.183 Q220.486 225.766 220.486 234.516 Q220.486 243.243 217.408 247.849 Q214.352 252.432 208.542 252.432 Q202.732 252.432 199.653 247.849 Q196.598 243.243 196.598 234.516 Q196.598 225.766 199.653 221.183 Q202.732 216.576 208.542 216.576 Z" fill="#000000" fill-rule="evenodd" fill-opacity="1" /><path clip-path="url(#clip270)" d="M 0 0 M59.1993 815.533 Q55.2526 813.336 53.3747 810.281 Q51.4968 807.225 51.4968 803.088 Q51.4968 797.518 55.4117 794.494 Q59.2948 791.47 66.4881 791.47 L88.0042 791.47 L88.0042 797.358 L66.679 797.358 Q61.5546 797.358 59.072 799.173 Q56.5894 800.987 56.5894 804.711 Q56.5894 809.262 59.6131 811.904 Q62.6368 814.546 67.8567 814.546 L88.0042 814.546 L88.0042 820.434 L66.679 820.434 Q61.5228 820.434 59.072 822.248 Q56.5894 824.063 56.5894 827.85 Q56.5894 832.338 59.6449 834.98 Q62.6686 837.622 67.8567 837.622 L88.0042 837.622 L88.0042 843.51 L52.3562 843.51 L52.3562 837.622 L57.8944 837.622 Q54.616 835.616 53.0564 832.815 Q51.4968 830.015 51.4968 826.163 Q51.4968 822.28 53.4702 819.575 Q55.4436 816.838 59.1993 815.533 Z" fill="#000000" fill-rule="evenodd" fill-opacity="1" /><path clip-path="url(#clip270)" d="M 0 0 M52.3562 785.327 L52.3562 779.471 L88.0042 779.471 L88.0042 785.327 L52.3562 785.327 M38.479 785.327 L38.479 779.471 L45.895 779.471 L45.895 785.327 L38.479 785.327 Z" fill="#000000" fill-rule="evenodd" fill-opacity="1" /><path clip-path="url(#clip270)" d="M 0 0 M66.4881 743.696 L88.0042 743.696 L88.0042 749.552 L66.679 749.552 Q61.6183 749.552 59.1038 751.525 Q56.5894 753.499 56.5894 757.446 Q56.5894 762.188 59.6131 764.925 Q62.6368 767.662 67.8567 767.662 L88.0042 767.662 L88.0042 773.551 L52.3562 773.551 L52.3562 767.662 L57.8944 767.662 Q54.6797 765.562 53.0883 762.729 Q51.4968 759.864 51.4968 756.141 Q51.4968 749.998 55.3163 746.847 Q59.1038 743.696 66.4881 743.696 Z" fill="#000000" fill-rule="evenodd" fill-opacity="1" /><path clip-path="url(#clip270)" d="M 0 0 M98.8259 710.467 L103.377 710.467 L103.377 744.332 L98.8259 744.332 L98.8259 710.467 Z" fill="#000000" fill-rule="evenodd" fill-opacity="1" /><path clip-path="url(#clip270)" d="M 0 0 M57.7671 680.866 L38.479 680.866 L38.479 675.01 L88.0042 675.01 L88.0042 680.866 L82.657 680.866 Q85.8398 682.712 87.3994 685.545 Q88.9272 688.346 88.9272 692.292 Q88.9272 698.754 83.771 702.828 Q78.6147 706.87 70.212 706.87 Q61.8093 706.87 56.6531 702.828 Q51.4968 698.754 51.4968 692.292 Q51.4968 688.346 53.0564 685.545 Q54.5842 682.712 57.7671 680.866 M70.212 700.823 Q76.6732 700.823 80.3653 698.181 Q84.0256 695.507 84.0256 690.86 Q84.0256 686.213 80.3653 683.54 Q76.6732 680.866 70.212 680.866 Q63.7508 680.866 60.0905 683.54 Q56.3984 686.213 56.3984 690.86 Q56.3984 695.507 60.0905 698.181 Q63.7508 700.823 70.212 700.823 Z" fill="#000000" fill-rule="evenodd" fill-opacity="1" /><path clip-path="url(#clip270)" d="M 0 0 M52.3562 668.867 L52.3562 663.01 L88.0042 663.01 L88.0042 668.867 L52.3562 668.867 M38.479 668.867 L38.479 663.01 L45.895 663.01 L45.895 668.867 L38.479 668.867 Z" fill="#000000" fill-rule="evenodd" fill-opacity="1" /><path clip-path="url(#clip270)" d="M 0 0 M38.479 638.821 L43.3487 638.821 L43.3487 644.422 Q43.3487 647.573 44.6219 648.815 Q45.895 650.024 49.2052 650.024 L52.3562 650.024 L52.3562 640.38 L56.9077 640.38 L56.9077 650.024 L88.0042 650.024 L88.0042 655.912 L56.9077 655.912 L56.9077 661.514 L52.3562 661.514 L52.3562 655.912 L49.8736 655.912 Q43.9216 655.912 41.2162 653.143 Q38.479 650.374 38.479 644.359 L38.479 638.821 Z" fill="#000000" fill-rule="evenodd" fill-opacity="1" /><path clip-path="url(#clip270)" d="M 0 0 M38.479 614.631 L43.3487 614.631 L43.3487 620.233 Q43.3487 623.384 44.6219 624.625 Q45.895 625.835 49.2052 625.835 L52.3562 625.835 L52.3562 616.19 L56.9077 616.19 L56.9077 625.835 L88.0042 625.835 L88.0042 631.723 L56.9077 631.723 L56.9077 637.325 L52.3562 637.325 L52.3562 631.723 L49.8736 631.723 Q43.9216 631.723 41.2162 628.954 Q38.479 626.185 38.479 620.169 L38.479 614.631 Z" fill="#000000" fill-rule="evenodd" fill-opacity="1" /><polyline clip-path="url(#clip272)" style="stroke:#009af9; stroke-width:20; stroke-opacity:1; fill:none" stroke-dasharray="80, 50" points="
  315.815,85.838 398.097,92.795 467.665,99.7322 527.928,106.65 581.083,113.547 628.633,810.391 671.646,127.283 710.915,819.461 747.038,140.94 780.483,828.451 
  811.62,1233.59 840.746,837.363 868.106,168.657 893.901,1239.93 918.302,182.599 941.451,1356.34 963.47,1246.09 984.464,863.623 1023.73,1355.49 1042.16,1347.7 
  1059.86,880.735 1076.89,1257.88 1093.3,1354.34 1124.44,1358.58 1153.56,1352.91 1167.45,1268.95 1180.92,914.076 1194.01,1358.38 1206.72,1360.91 1231.12,930.765 
  1242.84,1279.32 1254.27,1362.59 1276.29,1362.15 1297.28,1353.66 1307.42,1366.04 1336.55,1362.84 1345.86,1303.31 1354.97,1368.74 1363.91,1297.91 1372.67,1353.5 
  1389.71,1362.49 1397.99,1370.68 1406.12,1352.95 1414.11,1306.14 1437.26,1371.87 1459.27,1323.72 1466.38,1350.91 1473.38,1372.3 1480.27,1358.62 1493.74,1349.42 
  1506.82,1371.98 1519.54,1355.1 1537.96,1370.9 1543.94,1345.5 1549.84,1321.9 1555.66,1350.52 1567.09,1369.45 1572.69,1309.12 1589.11,1344.89 1594.45,1367.42 
  1610.1,1337.75 1620.24,1366.32 1625.23,1335.95 1644.64,1367.9 1649.37,1335.38 1658.67,1340.87 1663.26,1285.67 1667.79,1368.72 1676.73,1321.67 1685.49,1331.46 
  1689.81,1344.4 1702.52,1316.05 1710.81,1299.81 1718.94,1346.51 1726.92,1324.33 1738.65,1300.48 1746.3,1347.23 1750.07,1331.59 1753.82,1275.12 1772.09,1346.55 
  1779.2,1308.65 1786.2,1300.6 1793.09,1265.1 1796.49,1344.47 1803.23,1312.01 1806.56,1303.78 1819.64,1340.98 1829.21,1279.71 1832.36,1314.65 1850.78,1311.38 
  1856.76,1317.13 1859.72,1315.21 1862.66,1305.6 1868.48,1292.15 1879.9,1322.32 1885.51,1313.68 1893.79,1315.99 1901.92,1314.48 1904.6,1303.89 1907.26,1290.64 
  1909.91,1310.11 1922.92,1306.39 1933.06,1316.83 1938.05,1320.06 1950.28,1286.52 1957.46,1264.02 1962.19,1308.06 1969.18,1321.21 1971.49,1322.34 1976.07,1297.89 
  1980.61,1278.05 1989.55,1317.44 1998.31,1325.6 2000.47,1307.14 2002.63,1321.33 2015.34,1324.4 2023.62,1315.74 2025.67,1327.15 2031.75,1317.02 2033.77,1296.62 
  2039.74,1328.94 2051.47,1325.85 2059.11,1309.41 2062.89,1331.05 2075.87,1321.72 2084.91,1298.5 2090.25,1264.21 2092.02,1221.47 2099.01,1314.74 2109.31,1284.29 
  2116.05,1242.33 2119.38,1191.57 2132.46,1266.79 2140.45,1216.67 2145.17,1157.36 2146.74,1091.48 2163.6,1187.22 2169.57,1118.84 2172.53,1043.58 2192.72,1076.02 
  2196.93,990.815 2198.33,900.988 2220.08,933.19 2222.73,832.587 2245.88,758.735 2247.13,644.158 2270.28,552.652 2293.43,314.943 
  "/>
<path clip-path="url(#clip270)" d="
M1998.94 213.659 L2282.88 213.659 L2282.88 92.6992 L1998.94 92.6992  Z
  " fill="#ffffff" fill-rule="evenodd" fill-opacity="1"/>
<polyline clip-path="url(#clip270)" style="stroke:#000000; stroke-width:4; stroke-opacity:1; fill:none" points="
  1998.94,213.659 2282.88,213.659 2282.88,92.6992 1998.94,92.6992 1998.94,213.659 
  "/>
<polyline clip-path="url(#clip270)" style="stroke:#009af9; stroke-width:4; stroke-opacity:1; fill:none" stroke-dasharray="16, 10" points="
  2022.24,153.179 2161.99,153.179 
  "/>
<path clip-path="url(#clip270)" d="M 0 0 M2199.12 172.867 Q2197.32 177.496 2195.6 178.908 Q2193.89 180.32 2191.02 180.32 L2187.62 180.32 L2187.62 176.755 L2190.12 176.755 Q2191.88 176.755 2192.85 175.922 Q2193.82 175.089 2195 171.987 L2195.76 170.043 L2185.28 144.533 L2189.79 144.533 L2197.89 164.811 L2206 144.533 L2210.51 144.533 L2199.12 172.867 Z" fill="#000000" fill-rule="evenodd" fill-opacity="1" /><path clip-path="url(#clip270)" d="M 0 0 M2216.39 166.524 L2224.03 166.524 L2224.03 140.158 L2215.72 141.825 L2215.72 137.566 L2223.98 135.899 L2228.66 135.899 L2228.66 166.524 L2236.3 166.524 L2236.3 170.459 L2216.39 170.459 L2216.39 166.524 Z" fill="#000000" fill-rule="evenodd" fill-opacity="1" /></svg>
