<?xml version="1.0" encoding="utf-8"?>
<svg xmlns="http://www.w3.org/2000/svg" xmlns:xlink="http://www.w3.org/1999/xlink" width="600" height="400" viewBox="0 0 2400 1600">
<defs>
  <clipPath id="clip880">
    <rect x="0" y="0" width="2400" height="1600"/>
  </clipPath>
</defs>
<path clip-path="url(#clip880)" d="
M0 1600 L2400 1600 L2400 0 L0 0  Z
  " fill="#ffffff" fill-rule="evenodd" fill-opacity="1"/>
<defs>
  <clipPath id="clip881">
    <rect x="480" y="0" width="1681" height="1600"/>
  </clipPath>
</defs>
<path clip-path="url(#clip880)" d="
M234.079 1410.9 L2352.76 1410.9 L2352.76 47.2441 L234.079 47.2441  Z
  " fill="#ffffff" fill-rule="evenodd" fill-opacity="1"/>
<defs>
  <clipPath id="clip882">
    <rect x="234" y="47" width="2120" height="1365"/>
  </clipPath>
</defs>
<polyline clip-path="url(#clip882)" style="stroke:#000000; stroke-width:2; stroke-opacity:0.1; fill:none" points="
  294.042,1410.9 294.042,47.2441 
  "/>
<polyline clip-path="url(#clip882)" style="stroke:#000000; stroke-width:2; stroke-opacity:0.1; fill:none" points="
  960.196,1410.9 960.196,47.2441 
  "/>
<polyline clip-path="url(#clip882)" style="stroke:#000000; stroke-width:2; stroke-opacity:0.1; fill:none" points="
  1626.35,1410.9 1626.35,47.2441 
  "/>
<polyline clip-path="url(#clip882)" style="stroke:#000000; stroke-width:2; stroke-opacity:0.1; fill:none" points="
  2292.5,1410.9 2292.5,47.2441 
  "/>
<polyline clip-path="url(#clip880)" style="stroke:#000000; stroke-width:4; stroke-opacity:1; fill:none" points="
  234.079,1410.9 2352.76,1410.9 
  "/>
<polyline clip-path="url(#clip880)" style="stroke:#000000; stroke-width:4; stroke-opacity:1; fill:none" points="
  294.042,1410.9 294.042,1394.53 
  "/>
<polyline clip-path="url(#clip880)" style="stroke:#000000; stroke-width:4; stroke-opacity:1; fill:none" points="
  960.196,1410.9 960.196,1394.53 
  "/>
<polyline clip-path="url(#clip880)" style="stroke:#000000; stroke-width:4; stroke-opacity:1; fill:none" points="
  1626.35,1410.9 1626.35,1394.53 
  "/>
<polyline clip-path="url(#clip880)" style="stroke:#000000; stroke-width:4; stroke-opacity:1; fill:none" points="
  2292.5,1410.9 2292.5,1394.53 
  "/>
<path clip-path="url(#clip880)" d="M 0 0 M248.15 1489.17 L255.789 1489.17 L255.789 1462.8 L247.479 1464.47 L247.479 1460.21 L255.743 1458.54 L260.418 1458.54 L260.418 1489.17 L268.057 1489.17 L268.057 1493.1 L248.15 1493.1 L248.15 1489.17 Z" fill="#000000" fill-rule="evenodd" fill-opacity="1" /><path clip-path="url(#clip880)" d="M 0 0 M283.127 1461.62 Q279.516 1461.62 277.687 1465.19 Q275.881 1468.73 275.881 1475.86 Q275.881 1482.97 277.687 1486.53 Q279.516 1490.07 283.127 1490.07 Q286.761 1490.07 288.566 1486.53 Q290.395 1482.97 290.395 1475.86 Q290.395 1468.73 288.566 1465.19 Q286.761 1461.62 283.127 1461.62 M283.127 1457.92 Q288.937 1457.92 291.992 1462.53 Q295.071 1467.11 295.071 1475.86 Q295.071 1484.59 291.992 1489.19 Q288.937 1493.78 283.127 1493.78 Q277.317 1493.78 274.238 1489.19 Q271.182 1484.59 271.182 1475.86 Q271.182 1467.11 274.238 1462.53 Q277.317 1457.92 283.127 1457.92 Z" fill="#000000" fill-rule="evenodd" fill-opacity="1" /><path clip-path="url(#clip880)" d="M 0 0 M295.071 1452.02 L319.183 1452.02 L319.183 1455.22 L295.071 1455.22 L295.071 1452.02 Z" fill="#000000" fill-rule="evenodd" fill-opacity="1" /><path clip-path="url(#clip880)" d="M 0 0 M334.812 1450.55 Q337.539 1451.14 339.062 1452.98 Q340.605 1454.82 340.605 1457.53 Q340.605 1461.69 337.746 1463.96 Q334.887 1466.24 329.621 1466.24 Q327.853 1466.24 325.972 1465.88 Q324.11 1465.54 322.117 1464.85 L322.117 1461.18 Q323.696 1462.1 325.577 1462.57 Q327.458 1463.04 329.508 1463.04 Q333.082 1463.04 334.944 1461.63 Q336.824 1460.22 336.824 1457.53 Q336.824 1455.05 335.075 1453.66 Q333.345 1452.25 330.242 1452.25 L326.969 1452.25 L326.969 1449.12 L330.392 1449.12 Q333.194 1449.12 334.68 1448.01 Q336.166 1446.89 336.166 1444.78 Q336.166 1442.62 334.624 1441.47 Q333.1 1440.3 330.242 1440.3 Q328.681 1440.3 326.894 1440.64 Q325.107 1440.98 322.963 1441.69 L322.963 1438.31 Q325.126 1437.71 327.007 1437.41 Q328.906 1437.11 330.58 1437.11 Q334.906 1437.11 337.426 1439.08 Q339.946 1441.04 339.946 1444.38 Q339.946 1446.72 338.611 1448.33 Q337.276 1449.93 334.812 1450.55 Z" fill="#000000" fill-rule="evenodd" fill-opacity="1" /><path clip-path="url(#clip880)" d="M 0 0 M914.69 1489.17 L922.329 1489.17 L922.329 1462.8 L914.018 1464.47 L914.018 1460.21 L922.282 1458.54 L926.958 1458.54 L926.958 1489.17 L934.597 1489.17 L934.597 1493.1 L914.69 1493.1 L914.69 1489.17 Z" fill="#000000" fill-rule="evenodd" fill-opacity="1" /><path clip-path="url(#clip880)" d="M 0 0 M949.666 1461.62 Q946.055 1461.62 944.227 1465.19 Q942.421 1468.73 942.421 1475.86 Q942.421 1482.97 944.227 1486.53 Q946.055 1490.07 949.666 1490.07 Q953.301 1490.07 955.106 1486.53 Q956.935 1482.97 956.935 1475.86 Q956.935 1468.73 955.106 1465.19 Q953.301 1461.62 949.666 1461.62 M949.666 1457.92 Q955.477 1457.92 958.532 1462.53 Q961.611 1467.11 961.611 1475.86 Q961.611 1484.59 958.532 1489.19 Q955.477 1493.78 949.666 1493.78 Q943.856 1493.78 940.778 1489.19 Q937.722 1484.59 937.722 1475.86 Q937.722 1467.11 940.778 1462.53 Q943.856 1457.92 949.666 1457.92 Z" fill="#000000" fill-rule="evenodd" fill-opacity="1" /><path clip-path="url(#clip880)" d="M 0 0 M961.611 1452.02 L985.722 1452.02 L985.722 1455.22 L961.611 1455.22 L961.611 1452.02 Z" fill="#000000" fill-rule="evenodd" fill-opacity="1" /><path clip-path="url(#clip880)" d="M 0 0 M993.114 1462.5 L1006.37 1462.5 L1006.37 1465.69 L988.544 1465.69 L988.544 1462.5 Q990.706 1460.26 994.43 1456.5 Q998.173 1452.72 999.132 1451.63 Q1000.96 1449.58 1001.67 1448.16 Q1002.4 1446.74 1002.4 1445.36 Q1002.4 1443.12 1000.82 1441.71 Q999.264 1440.3 996.744 1440.3 Q994.957 1440.3 992.963 1440.92 Q990.989 1441.54 988.732 1442.8 L988.732 1438.97 Q991.026 1438.05 993.02 1437.58 Q995.013 1437.11 996.668 1437.11 Q1001.03 1437.11 1003.63 1439.29 Q1006.22 1441.47 1006.22 1445.12 Q1006.22 1446.85 1005.56 1448.41 Q1004.93 1449.95 1003.21 1452.06 Q1002.74 1452.6 1000.22 1455.22 Q997.703 1457.81 993.114 1462.5 Z" fill="#000000" fill-rule="evenodd" fill-opacity="1" /><path clip-path="url(#clip880)" d="M 0 0 M1580.69 1489.17 L1588.33 1489.17 L1588.33 1462.8 L1580.02 1464.47 L1580.02 1460.21 L1588.29 1458.54 L1592.96 1458.54 L1592.96 1489.17 L1600.6 1489.17 L1600.6 1493.1 L1580.69 1493.1 L1580.69 1489.17 Z" fill="#000000" fill-rule="evenodd" fill-opacity="1" /><path clip-path="url(#clip880)" d="M 0 0 M1615.67 1461.62 Q1612.06 1461.62 1610.23 1465.19 Q1608.42 1468.73 1608.42 1475.86 Q1608.42 1482.97 1610.23 1486.53 Q1612.06 1490.07 1615.67 1490.07 Q1619.3 1490.07 1621.11 1486.53 Q1622.94 1482.97 1622.94 1475.86 Q1622.94 1468.73 1621.11 1465.19 Q1619.3 1461.62 1615.67 1461.62 M1615.67 1457.92 Q1621.48 1457.92 1624.54 1462.53 Q1627.61 1467.11 1627.61 1475.86 Q1627.61 1484.59 1624.54 1489.19 Q1621.48 1493.78 1615.67 1493.78 Q1609.86 1493.78 1606.78 1489.19 Q1603.73 1484.59 1603.73 1475.86 Q1603.73 1467.11 1606.78 1462.53 Q1609.86 1457.92 1615.67 1457.92 Z" fill="#000000" fill-rule="evenodd" fill-opacity="1" /><path clip-path="url(#clip880)" d="M 0 0 M1627.61 1452.02 L1651.73 1452.02 L1651.73 1455.22 L1627.61 1455.22 L1627.61 1452.02 Z" fill="#000000" fill-rule="evenodd" fill-opacity="1" /><path clip-path="url(#clip880)" d="M 0 0 M1656.5 1462.5 L1662.71 1462.5 L1662.71 1441.07 L1655.96 1442.43 L1655.96 1438.97 L1662.67 1437.61 L1666.47 1437.61 L1666.47 1462.5 L1672.68 1462.5 L1672.68 1465.69 L1656.5 1465.69 L1656.5 1462.5 Z" fill="#000000" fill-rule="evenodd" fill-opacity="1" /><path clip-path="url(#clip880)" d="M 0 0 M2259.67 1489.17 L2267.31 1489.17 L2267.31 1462.8 L2259 1464.47 L2259 1460.21 L2267.27 1458.54 L2271.94 1458.54 L2271.94 1489.17 L2279.58 1489.17 L2279.58 1493.1 L2259.67 1493.1 L2259.67 1489.17 Z" fill="#000000" fill-rule="evenodd" fill-opacity="1" /><path clip-path="url(#clip880)" d="M 0 0 M2294.65 1461.62 Q2291.04 1461.62 2289.21 1465.19 Q2287.41 1468.73 2287.41 1475.86 Q2287.41 1482.97 2289.21 1486.53 Q2291.04 1490.07 2294.65 1490.07 Q2298.29 1490.07 2300.09 1486.53 Q2301.92 1482.97 2301.92 1475.86 Q2301.92 1468.73 2300.09 1465.19 Q2298.29 1461.62 2294.65 1461.62 M2294.65 1457.92 Q2300.46 1457.92 2303.52 1462.53 Q2306.6 1467.11 2306.6 1475.86 Q2306.6 1484.59 2303.52 1489.19 Q2300.46 1493.78 2294.65 1493.78 Q2288.84 1493.78 2285.76 1489.19 Q2282.71 1484.59 2282.71 1475.86 Q2282.71 1467.11 2285.76 1462.53 Q2288.84 1457.92 2294.65 1457.92 Z" fill="#000000" fill-rule="evenodd" fill-opacity="1" /><path clip-path="url(#clip880)" d="M 0 0 M2316.3 1440.11 Q2313.37 1440.11 2311.88 1443.01 Q2310.41 1445.89 2310.41 1451.68 Q2310.41 1457.46 2311.88 1460.35 Q2313.37 1463.23 2316.3 1463.23 Q2319.25 1463.23 2320.72 1460.35 Q2322.21 1457.46 2322.21 1451.68 Q2322.21 1445.89 2320.72 1443.01 Q2319.25 1440.11 2316.3 1440.11 M2316.3 1437.11 Q2321.02 1437.11 2323.5 1440.85 Q2326.01 1444.57 2326.01 1451.68 Q2326.01 1458.77 2323.5 1462.51 Q2321.02 1466.24 2316.3 1466.24 Q2311.58 1466.24 2309.08 1462.51 Q2306.6 1458.77 2306.6 1451.68 Q2306.6 1444.57 2309.08 1440.85 Q2311.58 1437.11 2316.3 1437.11 Z" fill="#000000" fill-rule="evenodd" fill-opacity="1" /><path clip-path="url(#clip880)" d="M 0 0 M1185.69 1526.54 L1191.9 1526.54 L1203.04 1556.46 L1214.18 1526.54 L1220.39 1526.54 L1207.02 1562.19 L1199.06 1562.19 L1185.69 1526.54 Z" fill="#000000" fill-rule="evenodd" fill-opacity="1" /><path clip-path="url(#clip880)" d="M 0 0 M1253.62 1573.01 L1253.62 1577.56 L1219.75 1577.56 L1219.75 1573.01 L1253.62 1573.01 Z" fill="#000000" fill-rule="evenodd" fill-opacity="1" /><path clip-path="url(#clip880)" d="M 0 0 M1285.41 1527.91 L1285.41 1533.38 Q1282.93 1532.01 1280.42 1531.34 Q1277.93 1530.64 1275.39 1530.64 Q1269.69 1530.64 1266.54 1534.27 Q1263.39 1537.87 1263.39 1544.39 Q1263.39 1550.92 1266.54 1554.55 Q1269.69 1558.14 1275.39 1558.14 Q1277.93 1558.14 1280.42 1557.47 Q1282.93 1556.77 1285.41 1555.41 L1285.41 1560.82 Q1282.96 1561.96 1280.32 1562.54 Q1277.71 1563.11 1274.75 1563.11 Q1266.7 1563.11 1261.96 1558.05 Q1257.21 1552.99 1257.21 1544.39 Q1257.21 1535.67 1261.99 1530.68 Q1266.79 1525.68 1275.13 1525.68 Q1277.84 1525.68 1280.42 1526.25 Q1282.99 1526.79 1285.41 1527.91 Z" fill="#000000" fill-rule="evenodd" fill-opacity="1" /><path clip-path="url(#clip880)" d="M 0 0 M1291.56 1512.66 L1297.41 1512.66 L1297.41 1562.19 L1291.56 1562.19 L1291.56 1512.66 Z" fill="#000000" fill-rule="evenodd" fill-opacity="1" /><path clip-path="url(#clip880)" d="M 0 0 M1317.37 1530.64 Q1312.66 1530.64 1309.92 1534.34 Q1307.18 1538 1307.18 1544.39 Q1307.18 1550.79 1309.89 1554.48 Q1312.63 1558.14 1317.37 1558.14 Q1322.05 1558.14 1324.78 1554.45 Q1327.52 1550.76 1327.52 1544.39 Q1327.52 1538.06 1324.78 1534.37 Q1322.05 1530.64 1317.37 1530.64 M1317.37 1525.68 Q1325.01 1525.68 1329.37 1530.64 Q1333.73 1535.61 1333.73 1544.39 Q1333.73 1553.15 1329.37 1558.14 Q1325.01 1563.11 1317.37 1563.11 Q1309.7 1563.11 1305.34 1558.14 Q1301.01 1553.15 1301.01 1544.39 Q1301.01 1535.61 1305.34 1530.64 Q1309.7 1525.68 1317.37 1525.68 Z" fill="#000000" fill-rule="evenodd" fill-opacity="1" /><path clip-path="url(#clip880)" d="M 0 0 M1362.6 1527.59 L1362.6 1533.13 Q1360.11 1531.85 1357.44 1531.22 Q1354.77 1530.58 1351.9 1530.58 Q1347.54 1530.58 1345.35 1531.92 Q1343.18 1533.25 1343.18 1535.93 Q1343.18 1537.96 1344.74 1539.14 Q1346.3 1540.29 1351.01 1541.34 L1353.02 1541.78 Q1359.25 1543.12 1361.86 1545.57 Q1364.51 1547.99 1364.51 1552.35 Q1364.51 1557.32 1360.56 1560.21 Q1356.64 1563.11 1349.77 1563.11 Q1346.91 1563.11 1343.79 1562.54 Q1340.7 1561.99 1337.26 1560.88 L1337.26 1554.83 Q1340.51 1556.52 1343.66 1557.38 Q1346.81 1558.21 1349.9 1558.21 Q1354.03 1558.21 1356.26 1556.81 Q1358.49 1555.37 1358.49 1552.8 Q1358.49 1550.41 1356.87 1549.14 Q1355.28 1547.86 1349.83 1546.68 L1347.8 1546.21 Q1342.35 1545.06 1339.93 1542.71 Q1337.52 1540.32 1337.52 1536.18 Q1337.52 1531.15 1341.08 1528.42 Q1344.65 1525.68 1351.2 1525.68 Q1354.45 1525.68 1357.31 1526.16 Q1360.18 1526.63 1362.6 1527.59 Z" fill="#000000" fill-rule="evenodd" fill-opacity="1" /><path clip-path="url(#clip880)" d="M 0 0 M1401.14 1542.9 L1401.14 1545.76 L1374.21 1545.76 Q1374.6 1551.81 1377.84 1554.99 Q1381.12 1558.14 1386.95 1558.14 Q1390.32 1558.14 1393.47 1557.32 Q1396.65 1556.49 1399.77 1554.83 L1399.77 1560.37 Q1396.62 1561.71 1393.31 1562.41 Q1390 1563.11 1386.6 1563.11 Q1378.07 1563.11 1373.07 1558.14 Q1368.1 1553.18 1368.1 1544.71 Q1368.1 1535.96 1372.81 1530.83 Q1377.56 1525.68 1385.58 1525.68 Q1392.77 1525.68 1396.94 1530.33 Q1401.14 1534.94 1401.14 1542.9 M1395.28 1541.18 Q1395.22 1536.37 1392.58 1533.51 Q1389.97 1530.64 1385.64 1530.64 Q1380.74 1530.64 1377.78 1533.41 Q1374.85 1536.18 1374.41 1541.21 L1395.28 1541.18 Z" fill="#000000" fill-rule="evenodd" fill-opacity="1" /><polyline clip-path="url(#clip882)" style="stroke:#000000; stroke-width:2; stroke-opacity:0.1; fill:none" points="
  234.079,1171.19 2352.76,1171.19 
  "/>
<polyline clip-path="url(#clip882)" style="stroke:#000000; stroke-width:2; stroke-opacity:0.1; fill:none" points="
  234.079,913.894 2352.76,913.894 
  "/>
<polyline clip-path="url(#clip882)" style="stroke:#000000; stroke-width:2; stroke-opacity:0.1; fill:none" points="
  234.079,656.601 2352.76,656.601 
  "/>
<polyline clip-path="url(#clip882)" style="stroke:#000000; stroke-width:2; stroke-opacity:0.1; fill:none" points="
  234.079,399.308 2352.76,399.308 
  "/>
<polyline clip-path="url(#clip882)" style="stroke:#000000; stroke-width:2; stroke-opacity:0.1; fill:none" points="
  234.079,142.015 2352.76,142.015 
  "/>
<polyline clip-path="url(#clip880)" style="stroke:#000000; stroke-width:4; stroke-opacity:1; fill:none" points="
  234.079,1410.9 234.079,47.2441 
  "/>
<polyline clip-path="url(#clip880)" style="stroke:#000000; stroke-width:4; stroke-opacity:1; fill:none" points="
  234.079,1171.19 259.503,1171.19 
  "/>
<polyline clip-path="url(#clip880)" style="stroke:#000000; stroke-width:4; stroke-opacity:1; fill:none" points="
  234.079,913.894 259.503,913.894 
  "/>
<polyline clip-path="url(#clip880)" style="stroke:#000000; stroke-width:4; stroke-opacity:1; fill:none" points="
  234.079,656.601 259.503,656.601 
  "/>
<polyline clip-path="url(#clip880)" style="stroke:#000000; stroke-width:4; stroke-opacity:1; fill:none" points="
  234.079,399.308 259.503,399.308 
  "/>
<polyline clip-path="url(#clip880)" style="stroke:#000000; stroke-width:4; stroke-opacity:1; fill:none" points="
  234.079,142.015 259.503,142.015 
  "/>
<path clip-path="url(#clip880)" d="M 0 0 M115.418 1184.53 L123.056 1184.53 L123.056 1158.17 L114.746 1159.83 L114.746 1155.57 L123.01 1153.91 L127.686 1153.91 L127.686 1184.53 L135.325 1184.53 L135.325 1188.47 L115.418 1188.47 L115.418 1184.53 Z" fill="#000000" fill-rule="evenodd" fill-opacity="1" /><path clip-path="url(#clip880)" d="M 0 0 M141.204 1184.53 L148.843 1184.53 L148.843 1158.17 L140.533 1159.83 L140.533 1155.57 L148.797 1153.91 L153.473 1153.91 L153.473 1184.53 L161.112 1184.53 L161.112 1188.47 L141.204 1188.47 L141.204 1184.53 Z" fill="#000000" fill-rule="evenodd" fill-opacity="1" /><path clip-path="url(#clip880)" d="M 0 0 M166.181 1182.59 L171.065 1182.59 L171.065 1188.47 L166.181 1188.47 L166.181 1182.59 Z" fill="#000000" fill-rule="evenodd" fill-opacity="1" /><path clip-path="url(#clip880)" d="M 0 0 M186.135 1156.99 Q182.524 1156.99 180.695 1160.55 Q178.889 1164.09 178.889 1171.22 Q178.889 1178.33 180.695 1181.89 Q182.524 1185.43 186.135 1185.43 Q189.769 1185.43 191.575 1181.89 Q193.403 1178.33 193.403 1171.22 Q193.403 1164.09 191.575 1160.55 Q189.769 1156.99 186.135 1156.99 M186.135 1153.28 Q191.945 1153.28 195 1157.89 Q198.079 1162.47 198.079 1171.22 Q198.079 1179.95 195 1184.56 Q191.945 1189.14 186.135 1189.14 Q180.325 1189.14 177.246 1184.56 Q174.19 1179.95 174.19 1171.22 Q174.19 1162.47 177.246 1157.89 Q180.325 1153.28 186.135 1153.28 Z" fill="#000000" fill-rule="evenodd" fill-opacity="1" /><path clip-path="url(#clip880)" d="M 0 0 M117.015 927.239 L124.654 927.239 L124.654 900.873 L116.343 902.54 L116.343 898.281 L124.607 896.614 L129.283 896.614 L129.283 927.239 L136.922 927.239 L136.922 931.174 L117.015 931.174 L117.015 927.239 Z" fill="#000000" fill-rule="evenodd" fill-opacity="1" /><path clip-path="url(#clip880)" d="M 0 0 M142.802 927.239 L150.441 927.239 L150.441 900.873 L142.13 902.54 L142.13 898.281 L150.394 896.614 L155.07 896.614 L155.07 927.239 L162.709 927.239 L162.709 931.174 L142.802 931.174 L142.802 927.239 Z" fill="#000000" fill-rule="evenodd" fill-opacity="1" /><path clip-path="url(#clip880)" d="M 0 0 M167.778 925.295 L172.663 925.295 L172.663 931.174 L167.778 931.174 L167.778 925.295 Z" fill="#000000" fill-rule="evenodd" fill-opacity="1" /><path clip-path="url(#clip880)" d="M 0 0 M181.76 927.239 L198.079 927.239 L198.079 931.174 L176.135 931.174 L176.135 927.239 Q178.797 924.484 183.38 919.855 Q187.987 915.202 189.167 913.859 Q191.413 911.336 192.292 909.6 Q193.195 907.841 193.195 906.151 Q193.195 903.397 191.25 901.66 Q189.329 899.924 186.227 899.924 Q184.028 899.924 181.575 900.688 Q179.144 901.452 176.366 903.003 L176.366 898.281 Q179.19 897.147 181.644 896.568 Q184.098 895.989 186.135 895.989 Q191.505 895.989 194.7 898.674 Q197.894 901.359 197.894 905.85 Q197.894 907.98 197.084 909.901 Q196.297 911.799 194.19 914.392 Q193.612 915.063 190.51 918.281 Q187.408 921.475 181.76 927.239 Z" fill="#000000" fill-rule="evenodd" fill-opacity="1" /><path clip-path="url(#clip880)" d="M 0 0 M114.931 669.946 L122.57 669.946 L122.57 643.58 L114.26 645.247 L114.26 640.988 L122.524 639.321 L127.2 639.321 L127.2 669.946 L134.839 669.946 L134.839 673.881 L114.931 673.881 L114.931 669.946 Z" fill="#000000" fill-rule="evenodd" fill-opacity="1" /><path clip-path="url(#clip880)" d="M 0 0 M140.718 669.946 L148.357 669.946 L148.357 643.58 L140.047 645.247 L140.047 640.988 L148.311 639.321 L152.987 639.321 L152.987 669.946 L160.626 669.946 L160.626 673.881 L140.718 673.881 L140.718 669.946 Z" fill="#000000" fill-rule="evenodd" fill-opacity="1" /><path clip-path="url(#clip880)" d="M 0 0 M165.695 668.002 L170.579 668.002 L170.579 673.881 L165.695 673.881 L165.695 668.002 Z" fill="#000000" fill-rule="evenodd" fill-opacity="1" /><path clip-path="url(#clip880)" d="M 0 0 M188.496 643.395 L176.69 661.844 L188.496 661.844 L188.496 643.395 M187.269 639.321 L193.149 639.321 L193.149 661.844 L198.079 661.844 L198.079 665.733 L193.149 665.733 L193.149 673.881 L188.496 673.881 L188.496 665.733 L172.894 665.733 L172.894 661.219 L187.269 639.321 Z" fill="#000000" fill-rule="evenodd" fill-opacity="1" /><path clip-path="url(#clip880)" d="M 0 0 M115.256 412.653 L122.894 412.653 L122.894 386.288 L114.584 387.954 L114.584 383.695 L122.848 382.028 L127.524 382.028 L127.524 412.653 L135.163 412.653 L135.163 416.588 L115.256 416.588 L115.256 412.653 Z" fill="#000000" fill-rule="evenodd" fill-opacity="1" /><path clip-path="url(#clip880)" d="M 0 0 M141.042 412.653 L148.681 412.653 L148.681 386.288 L140.371 387.954 L140.371 383.695 L148.635 382.028 L153.311 382.028 L153.311 412.653 L160.95 412.653 L160.95 416.588 L141.042 416.588 L141.042 412.653 Z" fill="#000000" fill-rule="evenodd" fill-opacity="1" /><path clip-path="url(#clip880)" d="M 0 0 M166.019 410.709 L170.903 410.709 L170.903 416.588 L166.019 416.588 L166.019 410.709 Z" fill="#000000" fill-rule="evenodd" fill-opacity="1" /><path clip-path="url(#clip880)" d="M 0 0 M186.551 397.445 Q183.403 397.445 181.551 399.598 Q179.723 401.75 179.723 405.5 Q179.723 409.227 181.551 411.403 Q183.403 413.556 186.551 413.556 Q189.7 413.556 191.528 411.403 Q193.38 409.227 193.38 405.5 Q193.38 401.75 191.528 399.598 Q189.7 397.445 186.551 397.445 M195.834 382.792 L195.834 387.051 Q194.075 386.218 192.269 385.778 Q190.487 385.338 188.727 385.338 Q184.098 385.338 181.644 388.463 Q179.214 391.588 178.866 397.908 Q180.232 395.894 182.292 394.829 Q184.352 393.741 186.829 393.741 Q192.038 393.741 195.047 396.912 Q198.079 400.061 198.079 405.5 Q198.079 410.824 194.931 414.042 Q191.783 417.26 186.551 417.26 Q180.556 417.26 177.385 412.676 Q174.214 408.07 174.214 399.343 Q174.214 391.149 178.102 386.288 Q181.991 381.403 188.542 381.403 Q190.301 381.403 192.084 381.751 Q193.889 382.098 195.834 382.792 Z" fill="#000000" fill-rule="evenodd" fill-opacity="1" /><path clip-path="url(#clip880)" d="M 0 0 M115.51 155.36 L123.149 155.36 L123.149 128.995 L114.839 130.661 L114.839 126.402 L123.103 124.735 L127.779 124.735 L127.779 155.36 L135.417 155.36 L135.417 159.295 L115.51 159.295 L115.51 155.36 Z" fill="#000000" fill-rule="evenodd" fill-opacity="1" /><path clip-path="url(#clip880)" d="M 0 0 M141.297 155.36 L148.936 155.36 L148.936 128.995 L140.626 130.661 L140.626 126.402 L148.89 124.735 L153.566 124.735 L153.566 155.36 L161.204 155.36 L161.204 159.295 L141.297 159.295 L141.297 155.36 Z" fill="#000000" fill-rule="evenodd" fill-opacity="1" /><path clip-path="url(#clip880)" d="M 0 0 M166.274 153.416 L171.158 153.416 L171.158 159.295 L166.274 159.295 L166.274 153.416 Z" fill="#000000" fill-rule="evenodd" fill-opacity="1" /><path clip-path="url(#clip880)" d="M 0 0 M186.227 142.883 Q182.894 142.883 180.973 144.666 Q179.075 146.448 179.075 149.573 Q179.075 152.698 180.973 154.481 Q182.894 156.263 186.227 156.263 Q189.561 156.263 191.482 154.481 Q193.403 152.675 193.403 149.573 Q193.403 146.448 191.482 144.666 Q189.584 142.883 186.227 142.883 M181.551 140.893 Q178.542 140.152 176.852 138.092 Q175.186 136.032 175.186 133.069 Q175.186 128.925 178.126 126.518 Q181.089 124.11 186.227 124.11 Q191.389 124.11 194.329 126.518 Q197.269 128.925 197.269 133.069 Q197.269 136.032 195.579 138.092 Q193.913 140.152 190.926 140.893 Q194.306 141.68 196.181 143.971 Q198.079 146.263 198.079 149.573 Q198.079 154.596 195 157.281 Q191.945 159.967 186.227 159.967 Q180.51 159.967 177.431 157.281 Q174.376 154.596 174.376 149.573 Q174.376 146.263 176.274 143.971 Q178.172 141.68 181.551 140.893 M179.839 133.508 Q179.839 136.194 181.505 137.698 Q183.195 139.203 186.227 139.203 Q189.237 139.203 190.926 137.698 Q192.639 136.194 192.639 133.508 Q192.639 130.823 190.926 129.319 Q189.237 127.814 186.227 127.814 Q183.195 127.814 181.505 129.319 Q179.839 130.823 179.839 133.508 Z" fill="#000000" fill-rule="evenodd" fill-opacity="1" /><path clip-path="url(#clip880)" d="M 0 0 M59.1993 815.533 Q55.2526 813.336 53.3747 810.281 Q51.4968 807.225 51.4968 803.088 Q51.4968 797.518 55.4117 794.494 Q59.2948 791.47 66.4881 791.47 L88.0042 791.47 L88.0042 797.358 L66.679 797.358 Q61.5546 797.358 59.072 799.173 Q56.5894 800.987 56.5894 804.711 Q56.5894 809.262 59.6131 811.904 Q62.6368 814.546 67.8567 814.546 L88.0042 814.546 L88.0042 820.434 L66.679 820.434 Q61.5228 820.434 59.072 822.248 Q56.5894 824.063 56.5894 827.85 Q56.5894 832.338 59.6449 834.98 Q62.6686 837.622 67.8567 837.622 L88.0042 837.622 L88.0042 843.51 L52.3562 843.51 L52.3562 837.622 L57.8944 837.622 Q54.616 835.616 53.0564 832.815 Q51.4968 830.015 51.4968 826.163 Q51.4968 822.28 53.4702 819.575 Q55.4436 816.838 59.1993 815.533 Z" fill="#000000" fill-rule="evenodd" fill-opacity="1" /><path clip-path="url(#clip880)" d="M 0 0 M52.3562 785.327 L52.3562 779.471 L88.0042 779.471 L88.0042 785.327 L52.3562 785.327 M38.479 785.327 L38.479 779.471 L45.895 779.471 L45.895 785.327 L38.479 785.327 Z" fill="#000000" fill-rule="evenodd" fill-opacity="1" /><path clip-path="url(#clip880)" d="M 0 0 M66.4881 743.696 L88.0042 743.696 L88.0042 749.552 L66.679 749.552 Q61.6183 749.552 59.1038 751.525 Q56.5894 753.499 56.5894 757.446 Q56.5894 762.188 59.6131 764.925 Q62.6368 767.662 67.8567 767.662 L88.0042 767.662 L88.0042 773.551 L52.3562 773.551 L52.3562 767.662 L57.8944 767.662 Q54.6797 765.562 53.0883 762.729 Q51.4968 759.864 51.4968 756.141 Q51.4968 749.998 55.3163 746.847 Q59.1038 743.696 66.4881 743.696 Z" fill="#000000" fill-rule="evenodd" fill-opacity="1" /><path clip-path="url(#clip880)" d="M 0 0 M98.8259 710.467 L103.377 710.467 L103.377 744.332 L98.8259 744.332 L98.8259 710.467 Z" fill="#000000" fill-rule="evenodd" fill-opacity="1" /><path clip-path="url(#clip880)" d="M 0 0 M57.7671 680.866 L38.479 680.866 L38.479 675.01 L88.0042 675.01 L88.0042 680.866 L82.657 680.866 Q85.8398 682.712 87.3994 685.545 Q88.9272 688.346 88.9272 692.292 Q88.9272 698.754 83.771 702.828 Q78.6147 706.87 70.212 706.87 Q61.8093 706.87 56.6531 702.828 Q51.4968 698.754 51.4968 692.292 Q51.4968 688.346 53.0564 685.545 Q54.5842 682.712 57.7671 680.866 M70.212 700.823 Q76.6732 700.823 80.3653 698.181 Q84.0256 695.507 84.0256 690.86 Q84.0256 686.213 80.3653 683.54 Q76.6732 680.866 70.212 680.866 Q63.7508 680.866 60.0905 683.54 Q56.3984 686.213 56.3984 690.86 Q56.3984 695.507 60.0905 698.181 Q63.7508 700.823 70.212 700.823 Z" fill="#000000" fill-rule="evenodd" fill-opacity="1" /><path clip-path="url(#clip880)" d="M 0 0 M52.3562 668.867 L52.3562 663.01 L88.0042 663.01 L88.0042 668.867 L52.3562 668.867 M38.479 668.867 L38.479 663.01 L45.895 663.01 L45.895 668.867 L38.479 668.867 Z" fill="#000000" fill-rule="evenodd" fill-opacity="1" /><path clip-path="url(#clip880)" d="M 0 0 M38.479 638.821 L43.3487 638.821 L43.3487 644.422 Q43.3487 647.573 44.6219 648.815 Q45.895 650.024 49.2052 650.024 L52.3562 650.024 L52.3562 640.38 L56.9077 640.38 L56.9077 650.024 L88.0042 650.024 L88.0042 655.912 L56.9077 655.912 L56.9077 661.514 L52.3562 661.514 L52.3562 655.912 L49.8736 655.912 Q43.9216 655.912 41.2162 653.143 Q38.479 650.374 38.479 644.359 L38.479 638.821 Z" fill="#000000" fill-rule="evenodd" fill-opacity="1" /><path clip-path="url(#clip880)" d="M 0 0 M38.479 614.631 L43.3487 614.631 L43.3487 620.233 Q43.3487 623.384 44.6219 624.625 Q45.895 625.835 49.2052 625.835 L52.3562 625.835 L52.3562 616.19 L56.9077 616.19 L56.9077 625.835 L88.0042 625.835 L88.0042 631.723 L56.9077 631.723 L56.9077 637.325 L52.3562 637.325 L52.3562 631.723 L49.8736 631.723 Q43.9216 631.723 41.2162 628.954 Q38.479 626.185 38.479 620.169 L38.479 614.631 Z" fill="#000000" fill-rule="evenodd" fill-opacity="1" /><path clip-path="url(#clip880)" d="
M1995.71 213.659 L2282.13 213.659 L2282.13 92.6992 L1995.71 92.6992  Z
  " fill="#ffffff" fill-rule="evenodd" fill-opacity="1"/>
<polyline clip-path="url(#clip880)" style="stroke:#000000; stroke-width:4; stroke-opacity:1; fill:none" points="
  1995.71,213.659 2282.13,213.659 2282.13,92.6992 1995.71,92.6992 1995.71,213.659 
  "/>
<polyline clip-path="url(#clip880)" style="stroke:#009af9; stroke-width:4; stroke-opacity:1; fill:none" stroke-dasharray="16, 10" points="
  2019.25,153.179 2160.49,153.179 
  "/>
<path clip-path="url(#clip880)" d="M 0 0 M2197.88 172.867 Q2196.07 177.496 2194.36 178.908 Q2192.64 180.32 2189.77 180.32 L2186.37 180.32 L2186.37 176.755 L2188.87 176.755 Q2190.63 176.755 2191.6 175.922 Q2192.58 175.089 2193.76 171.987 L2194.52 170.043 L2184.03 144.533 L2188.55 144.533 L2196.65 164.811 L2204.75 144.533 L2209.26 144.533 L2197.88 172.867 Z" fill="#000000" fill-rule="evenodd" fill-opacity="1" /><path clip-path="url(#clip880)" d="M 0 0 M2215.14 166.524 L2222.78 166.524 L2222.78 140.158 L2214.47 141.825 L2214.47 137.566 L2222.74 135.899 L2227.41 135.899 L2227.41 166.524 L2235.05 166.524 L2235.05 170.459 L2215.14 170.459 L2215.14 166.524 Z" fill="#000000" fill-rule="evenodd" fill-opacity="1" /></svg>
