<?xml version="1.0" encoding="utf-8"?>
<svg xmlns="http://www.w3.org/2000/svg" xmlns:xlink="http://www.w3.org/1999/xlink" width="600" height="400" viewBox="0 0 2400 1600">
<defs>
  <clipPath id="clip570">
    <rect x="0" y="0" width="2400" height="1600"/>
  </clipPath>
</defs>
<path clip-path="url(#clip570)" d="
M0 1600 L2400 1600 L2400 0 L0 0  Z
  " fill="#ffffff" fill-rule="evenodd" fill-opacity="1"/>
<defs>
  <clipPath id="clip571">
    <rect x="480" y="0" width="1681" height="1600"/>
  </clipPath>
</defs>
<path clip-path="url(#clip570)" d="
M280.514 1410.9 L2352.76 1410.9 L2352.76 47.2441 L280.514 47.2441  Z
  " fill="#ffffff" fill-rule="evenodd" fill-opacity="1"/>
<defs>
  <clipPath id="clip572">
    <rect x="280" y="47" width="2073" height="1365"/>
  </clipPath>
</defs>
<polyline clip-path="url(#clip572)" style="stroke:#000000; stroke-linecap:butt; stroke-linejoin:round; stroke-width:2; stroke-opacity:0.1; fill:none" points="
  339.162,1410.9 339.162,47.2441 
  "/>
<polyline clip-path="url(#clip572)" style="stroke:#000000; stroke-linecap:butt; stroke-linejoin:round; stroke-width:2; stroke-opacity:0.1; fill:none" points="
  1512.13,1410.9 1512.13,47.2441 
  "/>
<polyline clip-path="url(#clip570)" style="stroke:#000000; stroke-linecap:butt; stroke-linejoin:round; stroke-width:4; stroke-opacity:1; fill:none" points="
  280.514,1410.9 2352.76,1410.9 
  "/>
<polyline clip-path="url(#clip570)" style="stroke:#000000; stroke-linecap:butt; stroke-linejoin:round; stroke-width:4; stroke-opacity:1; fill:none" points="
  339.162,1410.9 339.162,1392 
  "/>
<polyline clip-path="url(#clip570)" style="stroke:#000000; stroke-linecap:butt; stroke-linejoin:round; stroke-width:4; stroke-opacity:1; fill:none" points="
  1512.13,1410.9 1512.13,1392 
  "/>
<path clip-path="url(#clip570)" d="M270.404 1485.02 L278.043 1485.02 L278.043 1458.66 L269.733 1460.32 L269.733 1456.06 L277.997 1454.4 L282.673 1454.4 L282.673 1485.02 L290.311 1485.02 L290.311 1488.96 L270.404 1488.96 L270.404 1485.02 Z" fill="#000000" fill-rule="evenodd" fill-opacity="1" /><path clip-path="url(#clip570)" d="M309.756 1457.48 Q306.145 1457.48 304.316 1461.04 Q302.51 1464.58 302.51 1471.71 Q302.51 1478.82 304.316 1482.38 Q306.145 1485.92 309.756 1485.92 Q313.39 1485.92 315.196 1482.38 Q317.024 1478.82 317.024 1471.71 Q317.024 1464.58 315.196 1461.04 Q313.39 1457.48 309.756 1457.48 M309.756 1453.77 Q315.566 1453.77 318.621 1458.38 Q321.7 1462.96 321.7 1471.71 Q321.7 1480.44 318.621 1485.04 Q315.566 1489.63 309.756 1489.63 Q303.946 1489.63 300.867 1485.04 Q297.811 1480.44 297.811 1471.71 Q297.811 1462.96 300.867 1458.38 Q303.946 1453.77 309.756 1453.77 Z" fill="#000000" fill-rule="evenodd" fill-opacity="1" /><path clip-path="url(#clip570)" d="M321.7 1447.87 L345.812 1447.87 L345.812 1451.07 L321.7 1451.07 L321.7 1447.87 Z" fill="#000000" fill-rule="evenodd" fill-opacity="1" /><path clip-path="url(#clip570)" d="M362.607 1445.99 Q360.049 1445.99 358.545 1447.74 Q357.059 1449.49 357.059 1452.54 Q357.059 1455.57 358.545 1457.33 Q360.049 1459.08 362.607 1459.08 Q365.165 1459.08 366.651 1457.33 Q368.155 1455.57 368.155 1452.54 Q368.155 1449.49 366.651 1447.74 Q365.165 1445.99 362.607 1445.99 M370.149 1434.09 L370.149 1437.55 Q368.72 1436.87 367.253 1436.51 Q365.804 1436.16 364.375 1436.16 Q360.613 1436.16 358.62 1438.69 Q356.645 1441.23 356.363 1446.37 Q357.473 1444.73 359.146 1443.87 Q360.82 1442.98 362.833 1442.98 Q367.064 1442.98 369.51 1445.56 Q371.973 1448.12 371.973 1452.54 Q371.973 1456.86 369.415 1459.48 Q366.858 1462.09 362.607 1462.09 Q357.736 1462.09 355.159 1458.37 Q352.583 1454.62 352.583 1447.53 Q352.583 1440.88 355.742 1436.93 Q358.902 1432.96 364.225 1432.96 Q365.654 1432.96 367.102 1433.24 Q368.569 1433.52 370.149 1434.09 Z" fill="#000000" fill-rule="evenodd" fill-opacity="1" /><path clip-path="url(#clip570)" d="M378.518 1456.77 L382.487 1456.77 L382.487 1461.55 L378.518 1461.55 L378.518 1456.77 Z" fill="#000000" fill-rule="evenodd" fill-opacity="1" /><path clip-path="url(#clip570)" d="M398.887 1435.97 Q395.953 1435.97 394.467 1438.86 Q393 1441.74 393 1447.53 Q393 1453.31 394.467 1456.2 Q395.953 1459.08 398.887 1459.08 Q401.84 1459.08 403.307 1456.2 Q404.793 1453.31 404.793 1447.53 Q404.793 1441.74 403.307 1438.86 Q401.84 1435.97 398.887 1435.97 M398.887 1432.96 Q403.608 1432.96 406.091 1436.7 Q408.592 1440.43 408.592 1447.53 Q408.592 1454.62 406.091 1458.37 Q403.608 1462.09 398.887 1462.09 Q394.166 1462.09 391.665 1458.37 Q389.182 1454.62 389.182 1447.53 Q389.182 1440.43 391.665 1436.7 Q394.166 1432.96 398.887 1432.96 Z" fill="#000000" fill-rule="evenodd" fill-opacity="1" /><path clip-path="url(#clip570)" d="M1443.74 1485.02 L1451.38 1485.02 L1451.38 1458.66 L1443.07 1460.32 L1443.07 1456.06 L1451.33 1454.4 L1456.01 1454.4 L1456.01 1485.02 L1463.65 1485.02 L1463.65 1488.96 L1443.74 1488.96 L1443.74 1485.02 Z" fill="#000000" fill-rule="evenodd" fill-opacity="1" /><path clip-path="url(#clip570)" d="M1483.09 1457.48 Q1479.48 1457.48 1477.65 1461.04 Q1475.84 1464.58 1475.84 1471.71 Q1475.84 1478.82 1477.65 1482.38 Q1479.48 1485.92 1483.09 1485.92 Q1486.72 1485.92 1488.53 1482.38 Q1490.36 1478.82 1490.36 1471.71 Q1490.36 1464.58 1488.53 1461.04 Q1486.72 1457.48 1483.09 1457.48 M1483.09 1453.77 Q1488.9 1453.77 1491.96 1458.38 Q1495.03 1462.96 1495.03 1471.71 Q1495.03 1480.44 1491.96 1485.04 Q1488.9 1489.63 1483.09 1489.63 Q1477.28 1489.63 1474.2 1485.04 Q1471.15 1480.44 1471.15 1471.71 Q1471.15 1462.96 1474.2 1458.38 Q1477.28 1453.77 1483.09 1453.77 Z" fill="#000000" fill-rule="evenodd" fill-opacity="1" /><path clip-path="url(#clip570)" d="M1495.03 1447.87 L1519.15 1447.87 L1519.15 1451.07 L1495.03 1451.07 L1495.03 1447.87 Z" fill="#000000" fill-rule="evenodd" fill-opacity="1" /><path clip-path="url(#clip570)" d="M1527.38 1433.47 L1542.3 1433.47 L1542.3 1436.66 L1530.86 1436.66 L1530.86 1443.55 Q1531.69 1443.27 1532.52 1443.13 Q1533.35 1442.98 1534.17 1442.98 Q1538.87 1442.98 1541.62 1445.56 Q1544.37 1448.14 1544.37 1452.54 Q1544.37 1457.07 1541.55 1459.59 Q1538.72 1462.09 1533.59 1462.09 Q1531.82 1462.09 1529.98 1461.79 Q1528.15 1461.49 1526.2 1460.89 L1526.2 1457.07 Q1527.89 1457.99 1529.7 1458.44 Q1531.5 1458.89 1533.51 1458.89 Q1536.77 1458.89 1538.67 1457.18 Q1540.57 1455.47 1540.57 1452.54 Q1540.57 1449.6 1538.67 1447.89 Q1536.77 1446.18 1533.51 1446.18 Q1531.99 1446.18 1530.47 1446.52 Q1528.96 1446.86 1527.38 1447.57 L1527.38 1433.47 Z" fill="#000000" fill-rule="evenodd" fill-opacity="1" /><path clip-path="url(#clip570)" d="M1551.85 1456.77 L1555.82 1456.77 L1555.82 1461.55 L1551.85 1461.55 L1551.85 1456.77 Z" fill="#000000" fill-rule="evenodd" fill-opacity="1" /><path clip-path="url(#clip570)" d="M1563.14 1433.47 L1581.19 1433.47 L1581.19 1435.08 L1571 1461.55 L1567.03 1461.55 L1576.62 1436.66 L1563.14 1436.66 L1563.14 1433.47 Z" fill="#000000" fill-rule="evenodd" fill-opacity="1" /><path clip-path="url(#clip570)" d="M1203.45 1538.54 L1209.66 1538.54 L1220.8 1568.46 L1231.94 1538.54 L1238.15 1538.54 L1224.78 1574.19 L1216.82 1574.19 L1203.45 1538.54 Z" fill="#000000" fill-rule="evenodd" fill-opacity="1" /><path clip-path="url(#clip570)" d="M1273.32 1585.01 L1273.32 1589.56 L1239.45 1589.56 L1239.45 1585.01 L1273.32 1585.01 Z" fill="#000000" fill-rule="evenodd" fill-opacity="1" /><path clip-path="url(#clip570)" d="M1292.64 1542.64 Q1287.93 1542.64 1285.19 1546.34 Q1282.45 1550 1282.45 1556.39 Q1282.45 1562.79 1285.16 1566.48 Q1287.89 1570.14 1292.64 1570.14 Q1297.32 1570.14 1300.05 1566.45 Q1302.79 1562.76 1302.79 1556.39 Q1302.79 1550.06 1300.05 1546.37 Q1297.32 1542.64 1292.64 1542.64 M1292.64 1537.68 Q1300.28 1537.68 1304.64 1542.64 Q1309 1547.61 1309 1556.39 Q1309 1565.15 1304.64 1570.14 Q1300.28 1575.11 1292.64 1575.11 Q1284.97 1575.11 1280.61 1570.14 Q1276.28 1565.15 1276.28 1556.39 Q1276.28 1547.61 1280.61 1542.64 Q1284.97 1537.68 1292.64 1537.68 Z" fill="#000000" fill-rule="evenodd" fill-opacity="1" /><path clip-path="url(#clip570)" d="M1324.37 1568.84 L1324.37 1587.74 L1318.48 1587.74 L1318.48 1538.54 L1324.37 1538.54 L1324.37 1543.95 Q1326.22 1540.77 1329.02 1539.24 Q1331.85 1537.68 1335.76 1537.68 Q1342.26 1537.68 1346.3 1542.83 Q1350.37 1547.99 1350.37 1556.39 Q1350.37 1564.8 1346.3 1569.95 Q1342.26 1575.11 1335.76 1575.11 Q1331.85 1575.11 1329.02 1573.58 Q1326.22 1572.02 1324.37 1568.84 M1344.29 1556.39 Q1344.29 1549.93 1341.62 1546.27 Q1338.98 1542.58 1334.33 1542.58 Q1329.68 1542.58 1327.01 1546.27 Q1324.37 1549.93 1324.37 1556.39 Q1324.37 1562.85 1327.01 1566.55 Q1329.68 1570.21 1334.33 1570.21 Q1338.98 1570.21 1341.62 1566.55 Q1344.29 1562.85 1344.29 1556.39 Z" fill="#000000" fill-rule="evenodd" fill-opacity="1" /><path clip-path="url(#clip570)" d="M1390.57 1554.9 L1390.57 1557.76 L1363.65 1557.76 Q1364.03 1563.81 1367.27 1566.99 Q1370.55 1570.14 1376.38 1570.14 Q1379.75 1570.14 1382.9 1569.32 Q1386.08 1568.49 1389.2 1566.83 L1389.2 1572.37 Q1386.05 1573.71 1382.74 1574.41 Q1379.43 1575.11 1376.03 1575.11 Q1367.5 1575.11 1362.5 1570.14 Q1357.53 1565.18 1357.53 1556.71 Q1357.53 1547.96 1362.25 1542.83 Q1366.99 1537.68 1375.01 1537.68 Q1382.2 1537.68 1386.37 1542.33 Q1390.57 1546.94 1390.57 1554.9 M1384.72 1553.18 Q1384.65 1548.37 1382.01 1545.51 Q1379.4 1542.64 1375.07 1542.64 Q1370.17 1542.64 1367.21 1545.41 Q1364.28 1548.18 1363.84 1553.21 L1384.72 1553.18 Z" fill="#000000" fill-rule="evenodd" fill-opacity="1" /><path clip-path="url(#clip570)" d="M1429.82 1552.67 L1429.82 1574.19 L1423.96 1574.19 L1423.96 1552.86 Q1423.96 1547.8 1421.99 1545.29 Q1420.01 1542.77 1416.07 1542.77 Q1411.32 1542.77 1408.59 1545.79 Q1405.85 1548.82 1405.85 1554.04 L1405.85 1574.19 L1399.96 1574.19 L1399.96 1538.54 L1405.85 1538.54 L1405.85 1544.08 Q1407.95 1540.86 1410.78 1539.27 Q1413.65 1537.68 1417.37 1537.68 Q1423.52 1537.68 1426.67 1541.5 Q1429.82 1545.29 1429.82 1552.67 Z" fill="#000000" fill-rule="evenodd" fill-opacity="1" /><polyline clip-path="url(#clip572)" style="stroke:#000000; stroke-linecap:butt; stroke-linejoin:round; stroke-width:2; stroke-opacity:0.1; fill:none" points="
  280.514,1362.85 2352.76,1362.85 
  "/>
<polyline clip-path="url(#clip572)" style="stroke:#000000; stroke-linecap:butt; stroke-linejoin:round; stroke-width:2; stroke-opacity:0.1; fill:none" points="
  280.514,1095.96 2352.76,1095.96 
  "/>
<polyline clip-path="url(#clip572)" style="stroke:#000000; stroke-linecap:butt; stroke-linejoin:round; stroke-width:2; stroke-opacity:0.1; fill:none" points="
  280.514,829.072 2352.76,829.072 
  "/>
<polyline clip-path="url(#clip572)" style="stroke:#000000; stroke-linecap:butt; stroke-linejoin:round; stroke-width:2; stroke-opacity:0.1; fill:none" points="
  280.514,562.182 2352.76,562.182 
  "/>
<polyline clip-path="url(#clip572)" style="stroke:#000000; stroke-linecap:butt; stroke-linejoin:round; stroke-width:2; stroke-opacity:0.1; fill:none" points="
  280.514,295.291 2352.76,295.291 
  "/>
<polyline clip-path="url(#clip570)" style="stroke:#000000; stroke-linecap:butt; stroke-linejoin:round; stroke-width:4; stroke-opacity:1; fill:none" points="
  280.514,1410.9 280.514,47.2441 
  "/>
<polyline clip-path="url(#clip570)" style="stroke:#000000; stroke-linecap:butt; stroke-linejoin:round; stroke-width:4; stroke-opacity:1; fill:none" points="
  280.514,1362.85 299.412,1362.85 
  "/>
<polyline clip-path="url(#clip570)" style="stroke:#000000; stroke-linecap:butt; stroke-linejoin:round; stroke-width:4; stroke-opacity:1; fill:none" points="
  280.514,1095.96 299.412,1095.96 
  "/>
<polyline clip-path="url(#clip570)" style="stroke:#000000; stroke-linecap:butt; stroke-linejoin:round; stroke-width:4; stroke-opacity:1; fill:none" points="
  280.514,829.072 299.412,829.072 
  "/>
<polyline clip-path="url(#clip570)" style="stroke:#000000; stroke-linecap:butt; stroke-linejoin:round; stroke-width:4; stroke-opacity:1; fill:none" points="
  280.514,562.182 299.412,562.182 
  "/>
<polyline clip-path="url(#clip570)" style="stroke:#000000; stroke-linecap:butt; stroke-linejoin:round; stroke-width:4; stroke-opacity:1; fill:none" points="
  280.514,295.291 299.412,295.291 
  "/>
<path clip-path="url(#clip570)" d="M130.857 1349.65 L119.052 1368.1 L130.857 1368.1 L130.857 1349.65 M129.63 1345.57 L135.51 1345.57 L135.51 1368.1 L140.441 1368.1 L140.441 1371.99 L135.51 1371.99 L135.51 1380.13 L130.857 1380.13 L130.857 1371.99 L115.256 1371.99 L115.256 1367.47 L129.63 1345.57 Z" fill="#000000" fill-rule="evenodd" fill-opacity="1" /><path clip-path="url(#clip570)" d="M148.172 1374.25 L153.056 1374.25 L153.056 1380.13 L148.172 1380.13 L148.172 1374.25 Z" fill="#000000" fill-rule="evenodd" fill-opacity="1" /><path clip-path="url(#clip570)" d="M162.061 1345.57 L184.283 1345.57 L184.283 1347.56 L171.737 1380.13 L166.852 1380.13 L178.658 1349.51 L162.061 1349.51 L162.061 1345.57 Z" fill="#000000" fill-rule="evenodd" fill-opacity="1" /><path clip-path="url(#clip570)" d="M197.431 1376.2 L213.75 1376.2 L213.75 1380.13 L191.806 1380.13 L191.806 1376.2 Q194.468 1373.44 199.051 1368.81 Q203.658 1364.16 204.838 1362.82 Q207.084 1360.3 207.963 1358.56 Q208.866 1356.8 208.866 1355.11 Q208.866 1352.36 206.922 1350.62 Q205 1348.88 201.899 1348.88 Q199.7 1348.88 197.246 1349.65 Q194.815 1350.41 192.038 1351.96 L192.038 1347.24 Q194.862 1346.11 197.315 1345.53 Q199.769 1344.95 201.806 1344.95 Q207.176 1344.95 210.371 1347.63 Q213.565 1350.32 213.565 1354.81 Q213.565 1356.94 212.755 1358.86 Q211.968 1360.76 209.861 1363.35 Q209.283 1364.02 206.181 1367.24 Q203.079 1370.43 197.431 1376.2 Z" fill="#000000" fill-rule="evenodd" fill-opacity="1" /><path clip-path="url(#clip570)" d="M223.611 1345.57 L241.968 1345.57 L241.968 1349.51 L227.894 1349.51 L227.894 1357.98 Q228.912 1357.63 229.931 1357.47 Q230.949 1357.29 231.968 1357.29 Q237.755 1357.29 241.134 1360.46 Q244.514 1363.63 244.514 1369.05 Q244.514 1374.62 241.042 1377.73 Q237.57 1380.8 231.25 1380.8 Q229.074 1380.8 226.806 1380.43 Q224.56 1380.06 222.153 1379.32 L222.153 1374.62 Q224.236 1375.76 226.459 1376.31 Q228.681 1376.87 231.158 1376.87 Q235.162 1376.87 237.5 1374.76 Q239.838 1372.66 239.838 1369.05 Q239.838 1365.43 237.5 1363.33 Q235.162 1361.22 231.158 1361.22 Q229.283 1361.22 227.408 1361.64 Q225.556 1362.06 223.611 1362.93 L223.611 1345.57 Z" fill="#000000" fill-rule="evenodd" fill-opacity="1" /><path clip-path="url(#clip570)" d="M129.862 1082.76 L118.056 1101.21 L129.862 1101.21 L129.862 1082.76 M128.635 1078.68 L134.515 1078.68 L134.515 1101.21 L139.445 1101.21 L139.445 1105.09 L134.515 1105.09 L134.515 1113.24 L129.862 1113.24 L129.862 1105.09 L114.26 1105.09 L114.26 1100.58 L128.635 1078.68 Z" fill="#000000" fill-rule="evenodd" fill-opacity="1" /><path clip-path="url(#clip570)" d="M147.177 1107.36 L152.061 1107.36 L152.061 1113.24 L147.177 1113.24 L147.177 1107.36 Z" fill="#000000" fill-rule="evenodd" fill-opacity="1" /><path clip-path="url(#clip570)" d="M161.065 1078.68 L183.288 1078.68 L183.288 1080.67 L170.741 1113.24 L165.857 1113.24 L177.663 1082.62 L161.065 1082.62 L161.065 1078.68 Z" fill="#000000" fill-rule="evenodd" fill-opacity="1" /><path clip-path="url(#clip570)" d="M192.454 1078.68 L210.811 1078.68 L210.811 1082.62 L196.737 1082.62 L196.737 1091.09 Q197.755 1090.74 198.774 1090.58 Q199.792 1090.4 200.811 1090.4 Q206.598 1090.4 209.977 1093.57 Q213.357 1096.74 213.357 1102.16 Q213.357 1107.73 209.885 1110.84 Q206.412 1113.91 200.093 1113.91 Q197.917 1113.91 195.649 1113.54 Q193.403 1113.17 190.996 1112.43 L190.996 1107.73 Q193.079 1108.87 195.301 1109.42 Q197.524 1109.98 200 1109.98 Q204.005 1109.98 206.343 1107.87 Q208.681 1105.77 208.681 1102.16 Q208.681 1098.54 206.343 1096.44 Q204.005 1094.33 200 1094.33 Q198.125 1094.33 196.25 1094.75 Q194.399 1095.16 192.454 1096.04 L192.454 1078.68 Z" fill="#000000" fill-rule="evenodd" fill-opacity="1" /><path clip-path="url(#clip570)" d="M232.57 1081.76 Q228.959 1081.76 227.13 1085.33 Q225.324 1088.87 225.324 1096 Q225.324 1103.1 227.13 1106.67 Q228.959 1110.21 232.57 1110.21 Q236.204 1110.21 238.009 1106.67 Q239.838 1103.1 239.838 1096 Q239.838 1088.87 238.009 1085.33 Q236.204 1081.76 232.57 1081.76 M232.57 1078.06 Q238.38 1078.06 241.435 1082.66 Q244.514 1087.25 244.514 1096 Q244.514 1104.72 241.435 1109.33 Q238.38 1113.91 232.57 1113.91 Q226.76 1113.91 223.681 1109.33 Q220.625 1104.72 220.625 1096 Q220.625 1087.25 223.681 1082.66 Q226.76 1078.06 232.57 1078.06 Z" fill="#000000" fill-rule="evenodd" fill-opacity="1" /><path clip-path="url(#clip570)" d="M130.857 815.866 L119.052 834.315 L130.857 834.315 L130.857 815.866 M129.63 811.792 L135.51 811.792 L135.51 834.315 L140.441 834.315 L140.441 838.204 L135.51 838.204 L135.51 846.352 L130.857 846.352 L130.857 838.204 L115.256 838.204 L115.256 833.69 L129.63 811.792 Z" fill="#000000" fill-rule="evenodd" fill-opacity="1" /><path clip-path="url(#clip570)" d="M148.172 840.473 L153.056 840.473 L153.056 846.352 L148.172 846.352 L148.172 840.473 Z" fill="#000000" fill-rule="evenodd" fill-opacity="1" /><path clip-path="url(#clip570)" d="M162.061 811.792 L184.283 811.792 L184.283 813.783 L171.737 846.352 L166.852 846.352 L178.658 815.728 L162.061 815.728 L162.061 811.792 Z" fill="#000000" fill-rule="evenodd" fill-opacity="1" /><path clip-path="url(#clip570)" d="M192.223 811.792 L214.445 811.792 L214.445 813.783 L201.899 846.352 L197.014 846.352 L208.82 815.728 L192.223 815.728 L192.223 811.792 Z" fill="#000000" fill-rule="evenodd" fill-opacity="1" /><path clip-path="url(#clip570)" d="M223.611 811.792 L241.968 811.792 L241.968 815.728 L227.894 815.728 L227.894 824.2 Q228.912 823.853 229.931 823.69 Q230.949 823.505 231.968 823.505 Q237.755 823.505 241.134 826.677 Q244.514 829.848 244.514 835.264 Q244.514 840.843 241.042 843.945 Q237.57 847.024 231.25 847.024 Q229.074 847.024 226.806 846.653 Q224.56 846.283 222.153 845.542 L222.153 840.843 Q224.236 841.977 226.459 842.533 Q228.681 843.089 231.158 843.089 Q235.162 843.089 237.5 840.982 Q239.838 838.876 239.838 835.264 Q239.838 831.653 237.5 829.547 Q235.162 827.44 231.158 827.44 Q229.283 827.44 227.408 827.857 Q225.556 828.274 223.611 829.153 L223.611 811.792 Z" fill="#000000" fill-rule="evenodd" fill-opacity="1" /><path clip-path="url(#clip570)" d="M129.862 548.976 L118.056 567.425 L129.862 567.425 L129.862 548.976 M128.635 544.902 L134.515 544.902 L134.515 567.425 L139.445 567.425 L139.445 571.314 L134.515 571.314 L134.515 579.462 L129.862 579.462 L129.862 571.314 L114.26 571.314 L114.26 566.8 L128.635 544.902 Z" fill="#000000" fill-rule="evenodd" fill-opacity="1" /><path clip-path="url(#clip570)" d="M147.177 573.582 L152.061 573.582 L152.061 579.462 L147.177 579.462 L147.177 573.582 Z" fill="#000000" fill-rule="evenodd" fill-opacity="1" /><path clip-path="url(#clip570)" d="M172.246 563.05 Q168.913 563.05 166.991 564.832 Q165.093 566.615 165.093 569.74 Q165.093 572.865 166.991 574.647 Q168.913 576.429 172.246 576.429 Q175.579 576.429 177.501 574.647 Q179.422 572.841 179.422 569.74 Q179.422 566.615 177.501 564.832 Q175.602 563.05 172.246 563.05 M167.57 561.059 Q164.561 560.318 162.871 558.258 Q161.204 556.198 161.204 553.235 Q161.204 549.092 164.144 546.684 Q167.107 544.277 172.246 544.277 Q177.408 544.277 180.348 546.684 Q183.288 549.092 183.288 553.235 Q183.288 556.198 181.598 558.258 Q179.931 560.318 176.945 561.059 Q180.325 561.846 182.2 564.138 Q184.098 566.429 184.098 569.74 Q184.098 574.763 181.019 577.448 Q177.964 580.133 172.246 580.133 Q166.528 580.133 163.45 577.448 Q160.394 574.763 160.394 569.74 Q160.394 566.429 162.292 564.138 Q164.19 561.846 167.57 561.059 M165.857 553.675 Q165.857 556.36 167.524 557.865 Q169.214 559.369 172.246 559.369 Q175.255 559.369 176.945 557.865 Q178.658 556.36 178.658 553.675 Q178.658 550.99 176.945 549.485 Q175.255 547.98 172.246 547.98 Q169.214 547.98 167.524 549.485 Q165.857 550.99 165.857 553.675 Z" fill="#000000" fill-rule="evenodd" fill-opacity="1" /><path clip-path="url(#clip570)" d="M202.408 547.98 Q198.797 547.98 196.968 551.545 Q195.163 555.087 195.163 562.216 Q195.163 569.323 196.968 572.888 Q198.797 576.429 202.408 576.429 Q206.042 576.429 207.848 572.888 Q209.676 569.323 209.676 562.216 Q209.676 555.087 207.848 551.545 Q206.042 547.98 202.408 547.98 M202.408 544.277 Q208.218 544.277 211.274 548.883 Q214.352 553.467 214.352 562.216 Q214.352 570.943 211.274 575.55 Q208.218 580.133 202.408 580.133 Q196.598 580.133 193.519 575.55 Q190.463 570.943 190.463 562.216 Q190.463 553.467 193.519 548.883 Q196.598 544.277 202.408 544.277 Z" fill="#000000" fill-rule="evenodd" fill-opacity="1" /><path clip-path="url(#clip570)" d="M232.57 547.98 Q228.959 547.98 227.13 551.545 Q225.324 555.087 225.324 562.216 Q225.324 569.323 227.13 572.888 Q228.959 576.429 232.57 576.429 Q236.204 576.429 238.009 572.888 Q239.838 569.323 239.838 562.216 Q239.838 555.087 238.009 551.545 Q236.204 547.98 232.57 547.98 M232.57 544.277 Q238.38 544.277 241.435 548.883 Q244.514 553.467 244.514 562.216 Q244.514 570.943 241.435 575.55 Q238.38 580.133 232.57 580.133 Q226.76 580.133 223.681 575.55 Q220.625 570.943 220.625 562.216 Q220.625 553.467 223.681 548.883 Q226.76 544.277 232.57 544.277 Z" fill="#000000" fill-rule="evenodd" fill-opacity="1" /><path clip-path="url(#clip570)" d="M130.857 282.085 L119.052 300.534 L130.857 300.534 L130.857 282.085 M129.63 278.011 L135.51 278.011 L135.51 300.534 L140.441 300.534 L140.441 304.423 L135.51 304.423 L135.51 312.571 L130.857 312.571 L130.857 304.423 L115.256 304.423 L115.256 299.909 L129.63 278.011 Z" fill="#000000" fill-rule="evenodd" fill-opacity="1" /><path clip-path="url(#clip570)" d="M148.172 306.692 L153.056 306.692 L153.056 312.571 L148.172 312.571 L148.172 306.692 Z" fill="#000000" fill-rule="evenodd" fill-opacity="1" /><path clip-path="url(#clip570)" d="M173.241 296.159 Q169.908 296.159 167.987 297.942 Q166.089 299.724 166.089 302.849 Q166.089 305.974 167.987 307.756 Q169.908 309.539 173.241 309.539 Q176.575 309.539 178.496 307.756 Q180.417 305.951 180.417 302.849 Q180.417 299.724 178.496 297.942 Q176.598 296.159 173.241 296.159 M168.565 294.168 Q165.556 293.428 163.866 291.368 Q162.2 289.307 162.2 286.344 Q162.2 282.201 165.14 279.794 Q168.102 277.386 173.241 277.386 Q178.403 277.386 181.343 279.794 Q184.283 282.201 184.283 286.344 Q184.283 289.307 182.593 291.368 Q180.926 293.428 177.94 294.168 Q181.32 294.955 183.195 297.247 Q185.093 299.539 185.093 302.849 Q185.093 307.872 182.014 310.557 Q178.959 313.242 173.241 313.242 Q167.524 313.242 164.445 310.557 Q161.39 307.872 161.39 302.849 Q161.39 299.539 163.288 297.247 Q165.186 294.955 168.565 294.168 M166.852 286.784 Q166.852 289.469 168.519 290.974 Q170.209 292.479 173.241 292.479 Q176.251 292.479 177.94 290.974 Q179.653 289.469 179.653 286.784 Q179.653 284.099 177.94 282.594 Q176.251 281.09 173.241 281.09 Q170.209 281.09 168.519 282.594 Q166.852 284.099 166.852 286.784 Z" fill="#000000" fill-rule="evenodd" fill-opacity="1" /><path clip-path="url(#clip570)" d="M197.431 308.636 L213.75 308.636 L213.75 312.571 L191.806 312.571 L191.806 308.636 Q194.468 305.881 199.051 301.252 Q203.658 296.599 204.838 295.256 Q207.084 292.733 207.963 290.997 Q208.866 289.238 208.866 287.548 Q208.866 284.794 206.922 283.057 Q205 281.321 201.899 281.321 Q199.7 281.321 197.246 282.085 Q194.815 282.849 192.038 284.4 L192.038 279.678 Q194.862 278.544 197.315 277.965 Q199.769 277.386 201.806 277.386 Q207.176 277.386 210.371 280.071 Q213.565 282.756 213.565 287.247 Q213.565 289.377 212.755 291.298 Q211.968 293.196 209.861 295.789 Q209.283 296.46 206.181 299.678 Q203.079 302.872 197.431 308.636 Z" fill="#000000" fill-rule="evenodd" fill-opacity="1" /><path clip-path="url(#clip570)" d="M223.611 278.011 L241.968 278.011 L241.968 281.946 L227.894 281.946 L227.894 290.418 Q228.912 290.071 229.931 289.909 Q230.949 289.724 231.968 289.724 Q237.755 289.724 241.134 292.895 Q244.514 296.067 244.514 301.483 Q244.514 307.062 241.042 310.164 Q237.57 313.242 231.25 313.242 Q229.074 313.242 226.806 312.872 Q224.56 312.502 222.153 311.761 L222.153 307.062 Q224.236 308.196 226.459 308.752 Q228.681 309.307 231.158 309.307 Q235.162 309.307 237.5 307.201 Q239.838 305.094 239.838 301.483 Q239.838 297.872 237.5 295.766 Q235.162 293.659 231.158 293.659 Q229.283 293.659 227.408 294.076 Q225.556 294.493 223.611 295.372 L223.611 278.011 Z" fill="#000000" fill-rule="evenodd" fill-opacity="1" /><path clip-path="url(#clip570)" d="M35.1993 829.203 Q31.2526 827.007 29.3747 823.951 Q27.4968 820.896 27.4968 816.758 Q27.4968 811.188 31.4117 808.164 Q35.2948 805.141 42.4881 805.141 L64.0042 805.141 L64.0042 811.029 L42.679 811.029 Q37.5546 811.029 35.072 812.843 Q32.5894 814.657 32.5894 818.381 Q32.5894 822.933 35.6131 825.574 Q38.6368 828.216 43.8567 828.216 L64.0042 828.216 L64.0042 834.105 L42.679 834.105 Q37.5228 834.105 35.072 835.919 Q32.5894 837.733 32.5894 841.521 Q32.5894 846.008 35.6449 848.65 Q38.6686 851.292 43.8567 851.292 L64.0042 851.292 L64.0042 857.18 L28.3562 857.18 L28.3562 851.292 L33.8944 851.292 Q30.616 849.287 29.0564 846.486 Q27.4968 843.685 27.4968 839.834 Q27.4968 835.951 29.4702 833.245 Q31.4436 830.508 35.1993 829.203 Z" fill="#000000" fill-rule="evenodd" fill-opacity="1" /><path clip-path="url(#clip570)" d="M28.3562 793.459 L28.3562 787.603 L64.0042 787.603 L64.0042 793.459 L28.3562 793.459 M14.479 793.459 L14.479 787.603 L21.895 787.603 L21.895 793.459 L14.479 793.459 Z" fill="#000000" fill-rule="evenodd" fill-opacity="1" /><path clip-path="url(#clip570)" d="M42.4881 745.717 L64.0042 745.717 L64.0042 751.573 L42.679 751.573 Q37.6183 751.573 35.1038 753.547 Q32.5894 755.52 32.5894 759.467 Q32.5894 764.209 35.6131 766.946 Q38.6368 769.684 43.8567 769.684 L64.0042 769.684 L64.0042 775.572 L28.3562 775.572 L28.3562 769.684 L33.8944 769.684 Q30.6797 767.583 29.0883 764.75 Q27.4968 761.886 27.4968 758.162 Q27.4968 752.019 31.3163 748.868 Q35.1038 745.717 42.4881 745.717 Z" fill="#000000" fill-rule="evenodd" fill-opacity="1" /><path clip-path="url(#clip570)" d="M74.8259 706.95 L79.3773 706.95 L79.3773 740.815 L74.8259 740.815 L74.8259 706.95 Z" fill="#000000" fill-rule="evenodd" fill-opacity="1" /><path clip-path="url(#clip570)" d="M33.7671 677.986 L14.479 677.986 L14.479 672.129 L64.0042 672.129 L64.0042 677.986 L58.657 677.986 Q61.8398 679.832 63.3994 682.664 Q64.9272 685.465 64.9272 689.412 Q64.9272 695.873 59.771 699.947 Q54.6147 703.989 46.212 703.989 Q37.8093 703.989 32.6531 699.947 Q27.4968 695.873 27.4968 689.412 Q27.4968 685.465 29.0564 682.664 Q30.5842 679.832 33.7671 677.986 M46.212 697.942 Q52.6732 697.942 56.3653 695.3 Q60.0256 692.627 60.0256 687.98 Q60.0256 683.333 56.3653 680.659 Q52.6732 677.986 46.212 677.986 Q39.7508 677.986 36.0905 680.659 Q32.3984 683.333 32.3984 687.98 Q32.3984 692.627 36.0905 695.3 Q39.7508 697.942 46.212 697.942 Z" fill="#000000" fill-rule="evenodd" fill-opacity="1" /><path clip-path="url(#clip570)" d="M28.3562 660.066 L28.3562 654.21 L64.0042 654.21 L64.0042 660.066 L28.3562 660.066 M14.479 660.066 L14.479 654.21 L21.895 654.21 L21.895 660.066 L14.479 660.066 Z" fill="#000000" fill-rule="evenodd" fill-opacity="1" /><path clip-path="url(#clip570)" d="M14.479 623.909 L19.3487 623.909 L19.3487 629.511 Q19.3487 632.662 20.6219 633.903 Q21.895 635.113 25.2052 635.113 L28.3562 635.113 L28.3562 625.468 L32.9077 625.468 L32.9077 635.113 L64.0042 635.113 L64.0042 641.001 L32.9077 641.001 L32.9077 646.603 L28.3562 646.603 L28.3562 641.001 L25.8736 641.001 Q19.9216 641.001 17.2162 638.232 Q14.479 635.463 14.479 629.447 L14.479 623.909 Z" fill="#000000" fill-rule="evenodd" fill-opacity="1" /><path clip-path="url(#clip570)" d="M14.479 600.961 L19.3487 600.961 L19.3487 606.562 Q19.3487 609.713 20.6219 610.955 Q21.895 612.164 25.2052 612.164 L28.3562 612.164 L28.3562 602.52 L32.9077 602.52 L32.9077 612.164 L64.0042 612.164 L64.0042 618.052 L32.9077 618.052 L32.9077 623.654 L28.3562 623.654 L28.3562 618.052 L25.8736 618.052 Q19.9216 618.052 17.2162 615.283 Q14.479 612.514 14.479 606.499 L14.479 600.961 Z" fill="#000000" fill-rule="evenodd" fill-opacity="1" /><polyline clip-path="url(#clip572)" style="stroke:#009af9; stroke-linecap:butt; stroke-linejoin:round; stroke-width:20; stroke-opacity:1; fill:none" stroke-dasharray="80, 50" points="
  339.162,1364.32 1316.63,85.838 2294.11,1372.3 
  "/>
<path clip-path="url(#clip570)" d="
M2001 196.379 L2283.68 196.379 L2283.68 92.6992 L2001 92.6992  Z
  " fill="#ffffff" fill-rule="evenodd" fill-opacity="1"/>
<polyline clip-path="url(#clip570)" style="stroke:#000000; stroke-linecap:butt; stroke-linejoin:round; stroke-width:4; stroke-opacity:1; fill:none" points="
  2001,196.379 2283.68,196.379 2283.68,92.6992 2001,92.6992 2001,196.379 
  "/>
<polyline clip-path="url(#clip570)" style="stroke:#009af9; stroke-linecap:butt; stroke-linejoin:round; stroke-width:4; stroke-opacity:1; fill:none" stroke-dasharray="16, 10" points="
  2024.03,144.539 2162.18,144.539 
  "/>
<path clip-path="url(#clip570)" d="M2199.04 164.227 Q2197.24 168.856 2195.53 170.268 Q2193.81 171.68 2190.94 171.68 L2187.54 171.68 L2187.54 168.115 L2190.04 168.115 Q2191.8 168.115 2192.77 167.282 Q2193.74 166.449 2194.92 163.347 L2195.69 161.403 L2185.2 135.893 L2189.71 135.893 L2197.82 156.171 L2205.92 135.893 L2210.43 135.893 L2199.04 164.227 Z" fill="#000000" fill-rule="evenodd" fill-opacity="1" /><path clip-path="url(#clip570)" d="M2217.72 157.884 L2225.36 157.884 L2225.36 131.518 L2217.05 133.185 L2217.05 128.926 L2225.32 127.259 L2229.99 127.259 L2229.99 157.884 L2237.63 157.884 L2237.63 161.819 L2217.72 161.819 L2217.72 157.884 Z" fill="#000000" fill-rule="evenodd" fill-opacity="1" /></svg>
