<?xml version="1.0" encoding="utf-8"?>
<svg xmlns="http://www.w3.org/2000/svg" xmlns:xlink="http://www.w3.org/1999/xlink" width="600" height="400" viewBox="0 0 2400 1600">
<defs>
  <clipPath id="clip900">
    <rect x="0" y="0" width="2400" height="1600"/>
  </clipPath>
</defs>
<path clip-path="url(#clip900)" d="
M0 1600 L2400 1600 L2400 0 L0 0  Z
  " fill="#ffffff" fill-rule="evenodd" fill-opacity="1"/>
<defs>
  <clipPath id="clip901">
    <rect x="480" y="0" width="1681" height="1600"/>
  </clipPath>
</defs>
<path clip-path="url(#clip900)" d="
M197.852 1410.9 L2352.76 1410.9 L2352.76 47.2441 L197.852 47.2441  Z
  " fill="#ffffff" fill-rule="evenodd" fill-opacity="1"/>
<defs>
  <clipPath id="clip902">
    <rect x="197" y="47" width="2156" height="1365"/>
  </clipPath>
</defs>
<polyline clip-path="url(#clip902)" style="stroke:#000000; stroke-width:2; stroke-opacity:0.1; fill:none" points="
  258.84,1410.9 258.84,47.2441 
  "/>
<polyline clip-path="url(#clip902)" style="stroke:#000000; stroke-width:2; stroke-opacity:0.1; fill:none" points="
  767.072,1410.9 767.072,47.2441 
  "/>
<polyline clip-path="url(#clip902)" style="stroke:#000000; stroke-width:2; stroke-opacity:0.1; fill:none" points="
  1275.3,1410.9 1275.3,47.2441 
  "/>
<polyline clip-path="url(#clip902)" style="stroke:#000000; stroke-width:2; stroke-opacity:0.1; fill:none" points="
  1783.54,1410.9 1783.54,47.2441 
  "/>
<polyline clip-path="url(#clip902)" style="stroke:#000000; stroke-width:2; stroke-opacity:0.1; fill:none" points="
  2291.77,1410.9 2291.77,47.2441 
  "/>
<polyline clip-path="url(#clip900)" style="stroke:#000000; stroke-width:4; stroke-opacity:1; fill:none" points="
  197.852,1410.9 2352.76,1410.9 
  "/>
<polyline clip-path="url(#clip900)" style="stroke:#000000; stroke-width:4; stroke-opacity:1; fill:none" points="
  258.84,1410.9 258.84,1394.53 
  "/>
<polyline clip-path="url(#clip900)" style="stroke:#000000; stroke-width:4; stroke-opacity:1; fill:none" points="
  767.072,1410.9 767.072,1394.53 
  "/>
<polyline clip-path="url(#clip900)" style="stroke:#000000; stroke-width:4; stroke-opacity:1; fill:none" points="
  1275.3,1410.9 1275.3,1394.53 
  "/>
<polyline clip-path="url(#clip900)" style="stroke:#000000; stroke-width:4; stroke-opacity:1; fill:none" points="
  1783.54,1410.9 1783.54,1394.53 
  "/>
<polyline clip-path="url(#clip900)" style="stroke:#000000; stroke-width:4; stroke-opacity:1; fill:none" points="
  2291.77,1410.9 2291.77,1394.53 
  "/>
<path clip-path="url(#clip900)" d="M 0 0 M212.62 1489.17 L220.258 1489.17 L220.258 1462.8 L211.948 1464.47 L211.948 1460.21 L220.212 1458.54 L224.888 1458.54 L224.888 1489.17 L232.527 1489.17 L232.527 1493.1 L212.62 1493.1 L212.62 1489.17 Z" fill="#000000" fill-rule="evenodd" fill-opacity="1" /><path clip-path="url(#clip900)" d="M 0 0 M247.596 1461.62 Q243.985 1461.62 242.156 1465.19 Q240.351 1468.73 240.351 1475.86 Q240.351 1482.97 242.156 1486.53 Q243.985 1490.07 247.596 1490.07 Q251.23 1490.07 253.036 1486.53 Q254.865 1482.97 254.865 1475.86 Q254.865 1468.73 253.036 1465.19 Q251.23 1461.62 247.596 1461.62 M247.596 1457.92 Q253.406 1457.92 256.462 1462.53 Q259.541 1467.11 259.541 1475.86 Q259.541 1484.59 256.462 1489.19 Q253.406 1493.78 247.596 1493.78 Q241.786 1493.78 238.707 1489.19 Q235.652 1484.59 235.652 1475.86 Q235.652 1467.11 238.707 1462.53 Q241.786 1457.92 247.596 1457.92 Z" fill="#000000" fill-rule="evenodd" fill-opacity="1" /><path clip-path="url(#clip900)" d="M 0 0 M259.541 1452.02 L283.652 1452.02 L283.652 1455.22 L259.541 1455.22 L259.541 1452.02 Z" fill="#000000" fill-rule="evenodd" fill-opacity="1" /><path clip-path="url(#clip900)" d="M 0 0 M296.366 1450.14 Q293.808 1450.14 292.304 1451.89 Q290.818 1453.64 290.818 1456.68 Q290.818 1459.71 292.304 1461.48 Q293.808 1463.23 296.366 1463.23 Q298.924 1463.23 300.41 1461.48 Q301.914 1459.71 301.914 1456.68 Q301.914 1453.64 300.41 1451.89 Q298.924 1450.14 296.366 1450.14 M303.908 1438.23 L303.908 1441.69 Q302.479 1441.02 301.012 1440.66 Q299.563 1440.3 298.134 1440.3 Q294.373 1440.3 292.379 1442.84 Q290.404 1445.38 290.122 1450.52 Q291.232 1448.88 292.906 1448.01 Q294.579 1447.13 296.592 1447.13 Q300.824 1447.13 303.269 1449.71 Q305.732 1452.26 305.732 1456.68 Q305.732 1461.01 303.175 1463.62 Q300.617 1466.24 296.366 1466.24 Q291.495 1466.24 288.918 1462.51 Q286.342 1458.77 286.342 1451.68 Q286.342 1445.02 289.501 1441.07 Q292.661 1437.11 297.984 1437.11 Q299.413 1437.11 300.861 1437.39 Q302.328 1437.67 303.908 1438.23 Z" fill="#000000" fill-rule="evenodd" fill-opacity="1" /><path clip-path="url(#clip900)" d="M 0 0 M721.322 1489.17 L728.96 1489.17 L728.96 1462.8 L720.65 1464.47 L720.65 1460.21 L728.914 1458.54 L733.59 1458.54 L733.59 1489.17 L741.229 1489.17 L741.229 1493.1 L721.322 1493.1 L721.322 1489.17 Z" fill="#000000" fill-rule="evenodd" fill-opacity="1" /><path clip-path="url(#clip900)" d="M 0 0 M756.298 1461.62 Q752.687 1461.62 750.859 1465.19 Q749.053 1468.73 749.053 1475.86 Q749.053 1482.97 750.859 1486.53 Q752.687 1490.07 756.298 1490.07 Q759.933 1490.07 761.738 1486.53 Q763.567 1482.97 763.567 1475.86 Q763.567 1468.73 761.738 1465.19 Q759.933 1461.62 756.298 1461.62 M756.298 1457.92 Q762.108 1457.92 765.164 1462.53 Q768.243 1467.11 768.243 1475.86 Q768.243 1484.59 765.164 1489.19 Q762.108 1493.78 756.298 1493.78 Q750.488 1493.78 747.409 1489.19 Q744.354 1484.59 744.354 1475.86 Q744.354 1467.11 747.409 1462.53 Q750.488 1457.92 756.298 1457.92 Z" fill="#000000" fill-rule="evenodd" fill-opacity="1" /><path clip-path="url(#clip900)" d="M 0 0 M768.243 1452.02 L792.354 1452.02 L792.354 1455.22 L768.243 1455.22 L768.243 1452.02 Z" fill="#000000" fill-rule="evenodd" fill-opacity="1" /><path clip-path="url(#clip900)" d="M 0 0 M796.511 1437.61 L811.425 1437.61 L811.425 1440.81 L799.99 1440.81 L799.99 1447.69 Q800.818 1447.41 801.645 1447.28 Q802.473 1447.13 803.3 1447.13 Q808.002 1447.13 810.748 1449.71 Q813.494 1452.28 813.494 1456.68 Q813.494 1461.22 810.673 1463.74 Q807.852 1466.24 802.717 1466.24 Q800.949 1466.24 799.106 1465.94 Q797.282 1465.64 795.326 1465.04 L795.326 1461.22 Q797.019 1462.14 798.824 1462.59 Q800.63 1463.04 802.642 1463.04 Q805.896 1463.04 807.795 1461.33 Q809.695 1459.62 809.695 1456.68 Q809.695 1453.75 807.795 1452.04 Q805.896 1450.33 802.642 1450.33 Q801.119 1450.33 799.595 1450.67 Q798.091 1451 796.511 1451.72 L796.511 1437.61 Z" fill="#000000" fill-rule="evenodd" fill-opacity="1" /><path clip-path="url(#clip900)" d="M 0 0 M1228.95 1489.17 L1236.59 1489.17 L1236.59 1462.8 L1228.28 1464.47 L1228.28 1460.21 L1236.54 1458.54 L1241.22 1458.54 L1241.22 1489.17 L1248.86 1489.17 L1248.86 1493.1 L1228.95 1493.1 L1228.95 1489.17 Z" fill="#000000" fill-rule="evenodd" fill-opacity="1" /><path clip-path="url(#clip900)" d="M 0 0 M1263.93 1461.62 Q1260.32 1461.62 1258.49 1465.19 Q1256.68 1468.73 1256.68 1475.86 Q1256.68 1482.97 1258.49 1486.53 Q1260.32 1490.07 1263.93 1490.07 Q1267.56 1490.07 1269.37 1486.53 Q1271.2 1482.97 1271.2 1475.86 Q1271.2 1468.73 1269.37 1465.19 Q1267.56 1461.62 1263.93 1461.62 M1263.93 1457.92 Q1269.74 1457.92 1272.79 1462.53 Q1275.87 1467.11 1275.87 1475.86 Q1275.87 1484.59 1272.79 1489.19 Q1269.74 1493.78 1263.93 1493.78 Q1258.12 1493.78 1255.04 1489.19 Q1251.98 1484.59 1251.98 1475.86 Q1251.98 1467.11 1255.04 1462.53 Q1258.12 1457.92 1263.93 1457.92 Z" fill="#000000" fill-rule="evenodd" fill-opacity="1" /><path clip-path="url(#clip900)" d="M 0 0 M1275.87 1452.02 L1299.98 1452.02 L1299.98 1455.22 L1275.87 1455.22 L1275.87 1452.02 Z" fill="#000000" fill-rule="evenodd" fill-opacity="1" /><path clip-path="url(#clip900)" d="M 0 0 M1314.54 1440.92 L1304.95 1455.91 L1314.54 1455.91 L1314.54 1440.92 M1313.54 1437.61 L1318.32 1437.61 L1318.32 1455.91 L1322.33 1455.91 L1322.33 1459.07 L1318.32 1459.07 L1318.32 1465.69 L1314.54 1465.69 L1314.54 1459.07 L1301.87 1459.07 L1301.87 1455.41 L1313.54 1437.61 Z" fill="#000000" fill-rule="evenodd" fill-opacity="1" /><path clip-path="url(#clip900)" d="M 0 0 M1737.64 1489.17 L1745.28 1489.17 L1745.28 1462.8 L1736.97 1464.47 L1736.97 1460.21 L1745.24 1458.54 L1749.91 1458.54 L1749.91 1489.17 L1757.55 1489.17 L1757.55 1493.1 L1737.64 1493.1 L1737.64 1489.17 Z" fill="#000000" fill-rule="evenodd" fill-opacity="1" /><path clip-path="url(#clip900)" d="M 0 0 M1772.62 1461.62 Q1769.01 1461.62 1767.18 1465.19 Q1765.38 1468.73 1765.38 1475.86 Q1765.38 1482.97 1767.18 1486.53 Q1769.01 1490.07 1772.62 1490.07 Q1776.26 1490.07 1778.06 1486.53 Q1779.89 1482.97 1779.89 1475.86 Q1779.89 1468.73 1778.06 1465.19 Q1776.26 1461.62 1772.62 1461.62 M1772.62 1457.92 Q1778.43 1457.92 1781.49 1462.53 Q1784.57 1467.11 1784.57 1475.86 Q1784.57 1484.59 1781.49 1489.19 Q1778.43 1493.78 1772.62 1493.78 Q1766.81 1493.78 1763.73 1489.19 Q1760.68 1484.59 1760.68 1475.86 Q1760.68 1467.11 1763.73 1462.53 Q1766.81 1457.92 1772.62 1457.92 Z" fill="#000000" fill-rule="evenodd" fill-opacity="1" /><path clip-path="url(#clip900)" d="M 0 0 M1784.57 1452.02 L1808.68 1452.02 L1808.68 1455.22 L1784.57 1455.22 L1784.57 1452.02 Z" fill="#000000" fill-rule="evenodd" fill-opacity="1" /><path clip-path="url(#clip900)" d="M 0 0 M1824.31 1450.55 Q1827.03 1451.14 1828.56 1452.98 Q1830.1 1454.82 1830.1 1457.53 Q1830.1 1461.69 1827.24 1463.96 Q1824.38 1466.24 1819.12 1466.24 Q1817.35 1466.24 1815.47 1465.88 Q1813.6 1465.54 1811.61 1464.85 L1811.61 1461.18 Q1813.19 1462.1 1815.07 1462.57 Q1816.95 1463.04 1819 1463.04 Q1822.58 1463.04 1824.44 1461.63 Q1826.32 1460.22 1826.32 1457.53 Q1826.32 1455.05 1824.57 1453.66 Q1822.84 1452.25 1819.74 1452.25 L1816.46 1452.25 L1816.46 1449.12 L1819.89 1449.12 Q1822.69 1449.12 1824.17 1448.01 Q1825.66 1446.89 1825.66 1444.78 Q1825.66 1442.62 1824.12 1441.47 Q1822.59 1440.3 1819.74 1440.3 Q1818.17 1440.3 1816.39 1440.64 Q1814.6 1440.98 1812.46 1441.69 L1812.46 1438.31 Q1814.62 1437.71 1816.5 1437.41 Q1818.4 1437.11 1820.07 1437.11 Q1824.4 1437.11 1826.92 1439.08 Q1829.44 1441.04 1829.44 1444.38 Q1829.44 1446.72 1828.11 1448.33 Q1826.77 1449.93 1824.31 1450.55 Z" fill="#000000" fill-rule="evenodd" fill-opacity="1" /><path clip-path="url(#clip900)" d="M 0 0 M2246.26 1489.17 L2253.9 1489.17 L2253.9 1462.8 L2245.59 1464.47 L2245.59 1460.21 L2253.85 1458.54 L2258.53 1458.54 L2258.53 1489.17 L2266.17 1489.17 L2266.17 1493.1 L2246.26 1493.1 L2246.26 1489.17 Z" fill="#000000" fill-rule="evenodd" fill-opacity="1" /><path clip-path="url(#clip900)" d="M 0 0 M2281.24 1461.62 Q2277.63 1461.62 2275.8 1465.19 Q2273.99 1468.73 2273.99 1475.86 Q2273.99 1482.97 2275.8 1486.53 Q2277.63 1490.07 2281.24 1490.07 Q2284.87 1490.07 2286.68 1486.53 Q2288.51 1482.97 2288.51 1475.86 Q2288.51 1468.73 2286.68 1465.19 Q2284.87 1461.62 2281.24 1461.62 M2281.24 1457.92 Q2287.05 1457.92 2290.1 1462.53 Q2293.18 1467.11 2293.18 1475.86 Q2293.18 1484.59 2290.1 1489.19 Q2287.05 1493.78 2281.24 1493.78 Q2275.43 1493.78 2272.35 1489.19 Q2269.29 1484.59 2269.29 1475.86 Q2269.29 1467.11 2272.35 1462.53 Q2275.43 1457.92 2281.24 1457.92 Z" fill="#000000" fill-rule="evenodd" fill-opacity="1" /><path clip-path="url(#clip900)" d="M 0 0 M2293.18 1452.02 L2317.29 1452.02 L2317.29 1455.22 L2293.18 1455.22 L2293.18 1452.02 Z" fill="#000000" fill-rule="evenodd" fill-opacity="1" /><path clip-path="url(#clip900)" d="M 0 0 M2324.69 1462.5 L2337.95 1462.5 L2337.95 1465.69 L2320.12 1465.69 L2320.12 1462.5 Q2322.28 1460.26 2326 1456.5 Q2329.75 1452.72 2330.7 1451.63 Q2332.53 1449.58 2333.24 1448.16 Q2333.98 1446.74 2333.98 1445.36 Q2333.98 1443.12 2332.4 1441.71 Q2330.84 1440.3 2328.32 1440.3 Q2326.53 1440.3 2324.54 1440.92 Q2322.56 1441.54 2320.3 1442.8 L2320.3 1438.97 Q2322.6 1438.05 2324.59 1437.58 Q2326.59 1437.11 2328.24 1437.11 Q2332.6 1437.11 2335.2 1439.29 Q2337.8 1441.47 2337.8 1445.12 Q2337.8 1446.85 2337.14 1448.41 Q2336.5 1449.95 2334.79 1452.06 Q2334.32 1452.6 2331.8 1455.22 Q2329.28 1457.81 2324.69 1462.5 Z" fill="#000000" fill-rule="evenodd" fill-opacity="1" /><path clip-path="url(#clip900)" d="M 0 0 M1200.52 1512.66 L1206.41 1512.66 L1206.41 1541.91 L1223.89 1526.54 L1231.36 1526.54 L1212.46 1543.22 L1232.16 1562.19 L1224.52 1562.19 L1206.41 1544.78 L1206.41 1562.19 L1200.52 1562.19 L1200.52 1512.66 Z" fill="#000000" fill-rule="evenodd" fill-opacity="1" /><path clip-path="url(#clip900)" d="M 0 0 M1265.39 1573.01 L1265.39 1577.56 L1231.52 1577.56 L1231.52 1573.01 L1265.39 1573.01 Z" fill="#000000" fill-rule="evenodd" fill-opacity="1" /><path clip-path="url(#clip900)" d="M 0 0 M1285.35 1530.64 Q1280.64 1530.64 1277.9 1534.34 Q1275.16 1538 1275.16 1544.39 Q1275.16 1550.79 1277.87 1554.48 Q1280.6 1558.14 1285.35 1558.14 Q1290.02 1558.14 1292.76 1554.45 Q1295.5 1550.76 1295.5 1544.39 Q1295.5 1538.06 1292.76 1534.37 Q1290.02 1530.64 1285.35 1530.64 M1285.35 1525.68 Q1292.98 1525.68 1297.35 1530.64 Q1301.71 1535.61 1301.71 1544.39 Q1301.71 1553.15 1297.35 1558.14 Q1292.98 1563.11 1285.35 1563.11 Q1277.68 1563.11 1273.31 1558.14 Q1268.99 1553.15 1268.99 1544.39 Q1268.99 1535.61 1273.31 1530.64 Q1277.68 1525.68 1285.35 1525.68 Z" fill="#000000" fill-rule="evenodd" fill-opacity="1" /><path clip-path="url(#clip900)" d="M 0 0 M1325.9 1512.66 L1325.9 1517.53 L1320.29 1517.53 Q1317.14 1517.53 1315.9 1518.8 Q1314.69 1520.08 1314.69 1523.39 L1314.69 1526.54 L1324.34 1526.54 L1324.34 1531.09 L1314.69 1531.09 L1314.69 1562.19 L1308.8 1562.19 L1308.8 1531.09 L1303.2 1531.09 L1303.2 1526.54 L1308.8 1526.54 L1308.8 1524.05 Q1308.8 1518.1 1311.57 1515.4 Q1314.34 1512.66 1320.36 1512.66 L1325.9 1512.66 Z" fill="#000000" fill-rule="evenodd" fill-opacity="1" /><path clip-path="url(#clip900)" d="M 0 0 M1350.09 1512.66 L1350.09 1517.53 L1344.48 1517.53 Q1341.33 1517.53 1340.09 1518.8 Q1338.88 1520.08 1338.88 1523.39 L1338.88 1526.54 L1348.53 1526.54 L1348.53 1531.09 L1338.88 1531.09 L1338.88 1562.19 L1332.99 1562.19 L1332.99 1531.09 L1327.39 1531.09 L1327.39 1526.54 L1332.99 1526.54 L1332.99 1524.05 Q1332.99 1518.1 1335.76 1515.4 Q1338.53 1512.66 1344.55 1512.66 L1350.09 1512.66 Z" fill="#000000" fill-rule="evenodd" fill-opacity="1" /><polyline clip-path="url(#clip902)" style="stroke:#000000; stroke-width:2; stroke-opacity:0.1; fill:none" points="
  197.852,1237.71 2352.76,1237.71 
  "/>
<polyline clip-path="url(#clip902)" style="stroke:#000000; stroke-width:2; stroke-opacity:0.1; fill:none" points="
  197.852,1050.46 2352.76,1050.46 
  "/>
<polyline clip-path="url(#clip902)" style="stroke:#000000; stroke-width:2; stroke-opacity:0.1; fill:none" points="
  197.852,863.204 2352.76,863.204 
  "/>
<polyline clip-path="url(#clip902)" style="stroke:#000000; stroke-width:2; stroke-opacity:0.1; fill:none" points="
  197.852,675.951 2352.76,675.951 
  "/>
<polyline clip-path="url(#clip902)" style="stroke:#000000; stroke-width:2; stroke-opacity:0.1; fill:none" points="
  197.852,488.698 2352.76,488.698 
  "/>
<polyline clip-path="url(#clip902)" style="stroke:#000000; stroke-width:2; stroke-opacity:0.1; fill:none" points="
  197.852,301.446 2352.76,301.446 
  "/>
<polyline clip-path="url(#clip902)" style="stroke:#000000; stroke-width:2; stroke-opacity:0.1; fill:none" points="
  197.852,114.193 2352.76,114.193 
  "/>
<polyline clip-path="url(#clip900)" style="stroke:#000000; stroke-width:4; stroke-opacity:1; fill:none" points="
  197.852,1410.9 197.852,47.2441 
  "/>
<polyline clip-path="url(#clip900)" style="stroke:#000000; stroke-width:4; stroke-opacity:1; fill:none" points="
  197.852,1237.71 223.711,1237.71 
  "/>
<polyline clip-path="url(#clip900)" style="stroke:#000000; stroke-width:4; stroke-opacity:1; fill:none" points="
  197.852,1050.46 223.711,1050.46 
  "/>
<polyline clip-path="url(#clip900)" style="stroke:#000000; stroke-width:4; stroke-opacity:1; fill:none" points="
  197.852,863.204 223.711,863.204 
  "/>
<polyline clip-path="url(#clip900)" style="stroke:#000000; stroke-width:4; stroke-opacity:1; fill:none" points="
  197.852,675.951 223.711,675.951 
  "/>
<polyline clip-path="url(#clip900)" style="stroke:#000000; stroke-width:4; stroke-opacity:1; fill:none" points="
  197.852,488.698 223.711,488.698 
  "/>
<polyline clip-path="url(#clip900)" style="stroke:#000000; stroke-width:4; stroke-opacity:1; fill:none" points="
  197.852,301.446 223.711,301.446 
  "/>
<polyline clip-path="url(#clip900)" style="stroke:#000000; stroke-width:4; stroke-opacity:1; fill:none" points="
  197.852,114.193 223.711,114.193 
  "/>
<path clip-path="url(#clip900)" d="M 0 0 M140.95 1220.43 L159.306 1220.43 L159.306 1224.36 L145.232 1224.36 L145.232 1232.84 Q146.251 1232.49 147.269 1232.33 Q148.288 1232.14 149.306 1232.14 Q155.093 1232.14 158.473 1235.31 Q161.852 1238.49 161.852 1243.9 Q161.852 1249.48 158.38 1252.58 Q154.908 1255.66 148.589 1255.66 Q146.413 1255.66 144.144 1255.29 Q141.899 1254.92 139.492 1254.18 L139.492 1249.48 Q141.575 1250.61 143.797 1251.17 Q146.019 1251.73 148.496 1251.73 Q152.501 1251.73 154.839 1249.62 Q157.177 1247.51 157.177 1243.9 Q157.177 1240.29 154.839 1238.18 Q152.501 1236.08 148.496 1236.08 Q146.621 1236.08 144.746 1236.49 Q142.894 1236.91 140.95 1237.79 L140.95 1220.43 Z" fill="#000000" fill-rule="evenodd" fill-opacity="1" /><path clip-path="url(#clip900)" d="M 0 0 M150.325 1048.59 Q147.177 1048.59 145.325 1050.75 Q143.496 1052.9 143.496 1056.65 Q143.496 1060.38 145.325 1062.55 Q147.177 1064.7 150.325 1064.7 Q153.473 1064.7 155.302 1062.55 Q157.153 1060.38 157.153 1056.65 Q157.153 1052.9 155.302 1050.75 Q153.473 1048.59 150.325 1048.59 M159.607 1033.94 L159.607 1038.2 Q157.848 1037.37 156.042 1036.93 Q154.26 1036.49 152.501 1036.49 Q147.871 1036.49 145.417 1039.61 Q142.987 1042.74 142.64 1049.06 Q144.005 1047.04 146.066 1045.98 Q148.126 1044.89 150.603 1044.89 Q155.811 1044.89 158.82 1048.06 Q161.852 1051.21 161.852 1056.65 Q161.852 1061.97 158.704 1065.19 Q155.556 1068.41 150.325 1068.41 Q144.329 1068.41 141.158 1063.82 Q137.987 1059.22 137.987 1050.49 Q137.987 1042.3 141.876 1037.44 Q145.765 1032.55 152.316 1032.55 Q154.075 1032.55 155.857 1032.9 Q157.663 1033.25 159.607 1033.94 Z" fill="#000000" fill-rule="evenodd" fill-opacity="1" /><path clip-path="url(#clip900)" d="M 0 0 M139.63 845.924 L161.852 845.924 L161.852 847.915 L149.306 880.484 L144.422 880.484 L156.228 849.859 L139.63 849.859 L139.63 845.924 Z" fill="#000000" fill-rule="evenodd" fill-opacity="1" /><path clip-path="url(#clip900)" d="M 0 0 M150.001 676.819 Q146.667 676.819 144.746 678.602 Q142.848 680.384 142.848 683.509 Q142.848 686.634 144.746 688.416 Q146.667 690.199 150.001 690.199 Q153.334 690.199 155.255 688.416 Q157.177 686.611 157.177 683.509 Q157.177 680.384 155.255 678.602 Q153.357 676.819 150.001 676.819 M145.325 674.829 Q142.316 674.088 140.626 672.028 Q138.959 669.967 138.959 667.005 Q138.959 662.861 141.899 660.454 Q144.862 658.046 150.001 658.046 Q155.163 658.046 158.103 660.454 Q161.042 662.861 161.042 667.005 Q161.042 669.967 159.353 672.028 Q157.686 674.088 154.7 674.829 Q158.079 675.616 159.954 677.907 Q161.852 680.199 161.852 683.509 Q161.852 688.532 158.774 691.217 Q155.718 693.903 150.001 693.903 Q144.283 693.903 141.204 691.217 Q138.149 688.532 138.149 683.509 Q138.149 680.199 140.047 677.907 Q141.945 675.616 145.325 674.829 M143.612 667.444 Q143.612 670.13 145.279 671.634 Q146.968 673.139 150.001 673.139 Q153.01 673.139 154.7 671.634 Q156.413 670.13 156.413 667.444 Q156.413 664.759 154.7 663.255 Q153.01 661.75 150.001 661.75 Q146.968 661.75 145.279 663.255 Q143.612 664.759 143.612 667.444 Z" fill="#000000" fill-rule="evenodd" fill-opacity="1" /><path clip-path="url(#clip900)" d="M 0 0 M140.232 505.261 L140.232 501.002 Q141.991 501.835 143.797 502.275 Q145.603 502.715 147.339 502.715 Q151.968 502.715 154.399 499.613 Q156.853 496.488 157.2 490.145 Q155.857 492.136 153.797 493.201 Q151.737 494.265 149.237 494.265 Q144.052 494.265 141.019 491.141 Q138.01 487.992 138.01 482.553 Q138.01 477.229 141.158 474.011 Q144.306 470.793 149.538 470.793 Q155.533 470.793 158.681 475.4 Q161.852 479.983 161.852 488.733 Q161.852 496.904 157.964 501.789 Q154.098 506.65 147.547 506.65 Q145.788 506.65 143.982 506.302 Q142.177 505.955 140.232 505.261 M149.538 490.608 Q152.686 490.608 154.515 488.455 Q156.366 486.303 156.366 482.553 Q156.366 478.826 154.515 476.673 Q152.686 474.497 149.538 474.497 Q146.39 474.497 144.538 476.673 Q142.709 478.826 142.709 482.553 Q142.709 486.303 144.538 488.455 Q146.39 490.608 149.538 490.608 Z" fill="#000000" fill-rule="evenodd" fill-opacity="1" /><path clip-path="url(#clip900)" d="M 0 0 M114.931 314.79 L122.57 314.79 L122.57 288.425 L114.26 290.091 L114.26 285.832 L122.524 284.166 L127.2 284.166 L127.2 314.79 L134.839 314.79 L134.839 318.726 L114.931 318.726 L114.931 314.79 Z" fill="#000000" fill-rule="evenodd" fill-opacity="1" /><path clip-path="url(#clip900)" d="M 0 0 M149.908 287.244 Q146.297 287.244 144.468 290.809 Q142.663 294.351 142.663 301.48 Q142.663 308.587 144.468 312.152 Q146.297 315.693 149.908 315.693 Q153.542 315.693 155.348 312.152 Q157.177 308.587 157.177 301.48 Q157.177 294.351 155.348 290.809 Q153.542 287.244 149.908 287.244 M149.908 283.541 Q155.718 283.541 158.774 288.147 Q161.852 292.73 161.852 301.48 Q161.852 310.207 158.774 314.814 Q155.718 319.397 149.908 319.397 Q144.098 319.397 141.019 314.814 Q137.964 310.207 137.964 301.48 Q137.964 292.73 141.019 288.147 Q144.098 283.541 149.908 283.541 Z" fill="#000000" fill-rule="evenodd" fill-opacity="1" /><path clip-path="url(#clip900)" d="M 0 0 M116.158 127.538 L123.797 127.538 L123.797 101.172 L115.487 102.839 L115.487 98.5793 L123.751 96.9127 L128.427 96.9127 L128.427 127.538 L136.066 127.538 L136.066 131.473 L116.158 131.473 L116.158 127.538 Z" fill="#000000" fill-rule="evenodd" fill-opacity="1" /><path clip-path="url(#clip900)" d="M 0 0 M141.945 127.538 L149.584 127.538 L149.584 101.172 L141.274 102.839 L141.274 98.5793 L149.538 96.9127 L154.214 96.9127 L154.214 127.538 L161.852 127.538 L161.852 131.473 L141.945 131.473 L141.945 127.538 Z" fill="#000000" fill-rule="evenodd" fill-opacity="1" /><path clip-path="url(#clip900)" d="M 0 0 M59.1993 815.533 Q55.2526 813.336 53.3747 810.281 Q51.4968 807.225 51.4968 803.088 Q51.4968 797.518 55.4117 794.494 Q59.2948 791.47 66.4881 791.47 L88.0042 791.47 L88.0042 797.358 L66.679 797.358 Q61.5546 797.358 59.072 799.173 Q56.5894 800.987 56.5894 804.711 Q56.5894 809.262 59.6131 811.904 Q62.6368 814.546 67.8567 814.546 L88.0042 814.546 L88.0042 820.434 L66.679 820.434 Q61.5228 820.434 59.072 822.248 Q56.5894 824.063 56.5894 827.85 Q56.5894 832.338 59.6449 834.98 Q62.6686 837.622 67.8567 837.622 L88.0042 837.622 L88.0042 843.51 L52.3562 843.51 L52.3562 837.622 L57.8944 837.622 Q54.616 835.616 53.0564 832.815 Q51.4968 830.015 51.4968 826.163 Q51.4968 822.28 53.4702 819.575 Q55.4436 816.838 59.1993 815.533 Z" fill="#000000" fill-rule="evenodd" fill-opacity="1" /><path clip-path="url(#clip900)" d="M 0 0 M52.3562 785.327 L52.3562 779.471 L88.0042 779.471 L88.0042 785.327 L52.3562 785.327 M38.479 785.327 L38.479 779.471 L45.895 779.471 L45.895 785.327 L38.479 785.327 Z" fill="#000000" fill-rule="evenodd" fill-opacity="1" /><path clip-path="url(#clip900)" d="M 0 0 M66.4881 743.696 L88.0042 743.696 L88.0042 749.552 L66.679 749.552 Q61.6183 749.552 59.1038 751.525 Q56.5894 753.499 56.5894 757.446 Q56.5894 762.188 59.6131 764.925 Q62.6368 767.662 67.8567 767.662 L88.0042 767.662 L88.0042 773.551 L52.3562 773.551 L52.3562 767.662 L57.8944 767.662 Q54.6797 765.562 53.0883 762.729 Q51.4968 759.864 51.4968 756.141 Q51.4968 749.998 55.3163 746.847 Q59.1038 743.696 66.4881 743.696 Z" fill="#000000" fill-rule="evenodd" fill-opacity="1" /><path clip-path="url(#clip900)" d="M 0 0 M98.8259 710.467 L103.377 710.467 L103.377 744.332 L98.8259 744.332 L98.8259 710.467 Z" fill="#000000" fill-rule="evenodd" fill-opacity="1" /><path clip-path="url(#clip900)" d="M 0 0 M57.7671 680.866 L38.479 680.866 L38.479 675.01 L88.0042 675.01 L88.0042 680.866 L82.657 680.866 Q85.8398 682.712 87.3994 685.545 Q88.9272 688.346 88.9272 692.292 Q88.9272 698.754 83.771 702.828 Q78.6147 706.87 70.212 706.87 Q61.8093 706.87 56.6531 702.828 Q51.4968 698.754 51.4968 692.292 Q51.4968 688.346 53.0564 685.545 Q54.5842 682.712 57.7671 680.866 M70.212 700.823 Q76.6732 700.823 80.3653 698.181 Q84.0256 695.507 84.0256 690.86 Q84.0256 686.213 80.3653 683.54 Q76.6732 680.866 70.212 680.866 Q63.7508 680.866 60.0905 683.54 Q56.3984 686.213 56.3984 690.86 Q56.3984 695.507 60.0905 698.181 Q63.7508 700.823 70.212 700.823 Z" fill="#000000" fill-rule="evenodd" fill-opacity="1" /><path clip-path="url(#clip900)" d="M 0 0 M52.3562 668.867 L52.3562 663.01 L88.0042 663.01 L88.0042 668.867 L52.3562 668.867 M38.479 668.867 L38.479 663.01 L45.895 663.01 L45.895 668.867 L38.479 668.867 Z" fill="#000000" fill-rule="evenodd" fill-opacity="1" /><path clip-path="url(#clip900)" d="M 0 0 M38.479 638.821 L43.3487 638.821 L43.3487 644.422 Q43.3487 647.573 44.6219 648.815 Q45.895 650.024 49.2052 650.024 L52.3562 650.024 L52.3562 640.38 L56.9077 640.38 L56.9077 650.024 L88.0042 650.024 L88.0042 655.912 L56.9077 655.912 L56.9077 661.514 L52.3562 661.514 L52.3562 655.912 L49.8736 655.912 Q43.9216 655.912 41.2162 653.143 Q38.479 650.374 38.479 644.359 L38.479 638.821 Z" fill="#000000" fill-rule="evenodd" fill-opacity="1" /><path clip-path="url(#clip900)" d="M 0 0 M38.479 614.631 L43.3487 614.631 L43.3487 620.233 Q43.3487 623.384 44.6219 624.625 Q45.895 625.835 49.2052 625.835 L52.3562 625.835 L52.3562 616.19 L56.9077 616.19 L56.9077 625.835 L88.0042 625.835 L88.0042 631.723 L56.9077 631.723 L56.9077 637.325 L52.3562 637.325 L52.3562 631.723 L49.8736 631.723 Q43.9216 631.723 41.2162 628.954 Q38.479 626.185 38.479 620.169 L38.479 614.631 Z" fill="#000000" fill-rule="evenodd" fill-opacity="1" /><polyline clip-path="url(#clip902)" style="stroke:#009af9; stroke-width:20; stroke-opacity:1; fill:none" stroke-dasharray="80, 50" points="
  258.84,1372.3 512.956,1345.17 767.072,1359.31 1021.19,1344.7 1275.3,1369.75 1529.42,1363.26 1783.54,1225.29 2037.65,728.775 2291.77,85.838 
  "/>
<path clip-path="url(#clip900)" d="
M1990.47 213.659 L2280.93 213.659 L2280.93 92.6992 L1990.47 92.6992  Z
  " fill="#ffffff" fill-rule="evenodd" fill-opacity="1"/>
<polyline clip-path="url(#clip900)" style="stroke:#000000; stroke-width:4; stroke-opacity:1; fill:none" points="
  1990.47,213.659 2280.93,213.659 2280.93,92.6992 1990.47,92.6992 1990.47,213.659 
  "/>
<polyline clip-path="url(#clip900)" style="stroke:#009af9; stroke-width:4; stroke-opacity:1; fill:none" stroke-dasharray="16, 10" points="
  2014.42,153.179 2158.08,153.179 
  "/>
<path clip-path="url(#clip900)" d="M 0 0 M2195.86 172.867 Q2194.06 177.496 2192.34 178.908 Q2190.63 180.32 2187.76 180.32 L2184.36 180.32 L2184.36 176.755 L2186.86 176.755 Q2188.62 176.755 2189.59 175.922 Q2190.56 175.089 2191.74 171.987 L2192.51 170.043 L2182.02 144.533 L2186.53 144.533 L2194.64 164.811 L2202.74 144.533 L2207.25 144.533 L2195.86 172.867 Z" fill="#000000" fill-rule="evenodd" fill-opacity="1" /><path clip-path="url(#clip900)" d="M 0 0 M2213.13 166.524 L2220.77 166.524 L2220.77 140.158 L2212.46 141.825 L2212.46 137.566 L2220.72 135.899 L2225.4 135.899 L2225.4 166.524 L2233.04 166.524 L2233.04 170.459 L2213.13 170.459 L2213.13 166.524 Z" fill="#000000" fill-rule="evenodd" fill-opacity="1" /></svg>
