<?xml version="1.0" encoding="utf-8"?>
<svg xmlns="http://www.w3.org/2000/svg" xmlns:xlink="http://www.w3.org/1999/xlink" width="600" height="400" viewBox="0 0 2400 1600">
<defs>
  <clipPath id="clip300">
    <rect x="0" y="0" width="2400" height="1600"/>
  </clipPath>
</defs>
<path clip-path="url(#clip300)" d="
M0 1600 L2400 1600 L2400 0 L0 0  Z
  " fill="#ffffff" fill-rule="evenodd" fill-opacity="1"/>
<defs>
  <clipPath id="clip301">
    <rect x="480" y="0" width="1681" height="1600"/>
  </clipPath>
</defs>
<path clip-path="url(#clip300)" d="
M212.899 1410.9 L2352.76 1410.9 L2352.76 47.2441 L212.899 47.2441  Z
  " fill="#ffffff" fill-rule="evenodd" fill-opacity="1"/>
<defs>
  <clipPath id="clip302">
    <rect x="212" y="47" width="2141" height="1365"/>
  </clipPath>
</defs>
<polyline clip-path="url(#clip302)" style="stroke:#000000; stroke-width:2; stroke-opacity:0.1; fill:none" points="
  273.461,1410.9 273.461,47.2441 
  "/>
<polyline clip-path="url(#clip302)" style="stroke:#000000; stroke-width:2; stroke-opacity:0.1; fill:none" points="
  778.139,1410.9 778.139,47.2441 
  "/>
<polyline clip-path="url(#clip302)" style="stroke:#000000; stroke-width:2; stroke-opacity:0.1; fill:none" points="
  1282.82,1410.9 1282.82,47.2441 
  "/>
<polyline clip-path="url(#clip302)" style="stroke:#000000; stroke-width:2; stroke-opacity:0.1; fill:none" points="
  1787.49,1410.9 1787.49,47.2441 
  "/>
<polyline clip-path="url(#clip302)" style="stroke:#000000; stroke-width:2; stroke-opacity:0.1; fill:none" points="
  2292.17,1410.9 2292.17,47.2441 
  "/>
<polyline clip-path="url(#clip300)" style="stroke:#000000; stroke-width:4; stroke-opacity:1; fill:none" points="
  212.899,1410.9 2352.76,1410.9 
  "/>
<polyline clip-path="url(#clip300)" style="stroke:#000000; stroke-width:4; stroke-opacity:1; fill:none" points="
  273.461,1410.9 273.461,1394.53 
  "/>
<polyline clip-path="url(#clip300)" style="stroke:#000000; stroke-width:4; stroke-opacity:1; fill:none" points="
  778.139,1410.9 778.139,1394.53 
  "/>
<polyline clip-path="url(#clip300)" style="stroke:#000000; stroke-width:4; stroke-opacity:1; fill:none" points="
  1282.82,1410.9 1282.82,1394.53 
  "/>
<polyline clip-path="url(#clip300)" style="stroke:#000000; stroke-width:4; stroke-opacity:1; fill:none" points="
  1787.49,1410.9 1787.49,1394.53 
  "/>
<polyline clip-path="url(#clip300)" style="stroke:#000000; stroke-width:4; stroke-opacity:1; fill:none" points="
  2292.17,1410.9 2292.17,1394.53 
  "/>
<path clip-path="url(#clip300)" d="M 0 0 M227.108 1489.17 L234.747 1489.17 L234.747 1462.8 L226.437 1464.47 L226.437 1460.21 L234.701 1458.54 L239.377 1458.54 L239.377 1489.17 L247.016 1489.17 L247.016 1493.1 L227.108 1493.1 L227.108 1489.17 Z" fill="#000000" fill-rule="evenodd" fill-opacity="1" /><path clip-path="url(#clip300)" d="M 0 0 M262.085 1461.62 Q258.474 1461.62 256.645 1465.19 Q254.84 1468.73 254.84 1475.86 Q254.84 1482.97 256.645 1486.53 Q258.474 1490.07 262.085 1490.07 Q265.719 1490.07 267.525 1486.53 Q269.353 1482.97 269.353 1475.86 Q269.353 1468.73 267.525 1465.19 Q265.719 1461.62 262.085 1461.62 M262.085 1457.92 Q267.895 1457.92 270.951 1462.53 Q274.029 1467.11 274.029 1475.86 Q274.029 1484.59 270.951 1489.19 Q267.895 1493.78 262.085 1493.78 Q256.275 1493.78 253.196 1489.19 Q250.141 1484.59 250.141 1475.86 Q250.141 1467.11 253.196 1462.53 Q256.275 1457.92 262.085 1457.92 Z" fill="#000000" fill-rule="evenodd" fill-opacity="1" /><path clip-path="url(#clip300)" d="M 0 0 M274.029 1452.02 L298.141 1452.02 L298.141 1455.22 L274.029 1455.22 L274.029 1452.02 Z" fill="#000000" fill-rule="evenodd" fill-opacity="1" /><path clip-path="url(#clip300)" d="M 0 0 M312.698 1440.92 L303.106 1455.91 L312.698 1455.91 L312.698 1440.92 M311.701 1437.61 L316.478 1437.61 L316.478 1455.91 L320.484 1455.91 L320.484 1459.07 L316.478 1459.07 L316.478 1465.69 L312.698 1465.69 L312.698 1459.07 L300.022 1459.07 L300.022 1455.41 L311.701 1437.61 Z" fill="#000000" fill-rule="evenodd" fill-opacity="1" /><path clip-path="url(#clip300)" d="M 0 0 M732.247 1489.17 L739.886 1489.17 L739.886 1462.8 L731.576 1464.47 L731.576 1460.21 L739.839 1458.54 L744.515 1458.54 L744.515 1489.17 L752.154 1489.17 L752.154 1493.1 L732.247 1493.1 L732.247 1489.17 Z" fill="#000000" fill-rule="evenodd" fill-opacity="1" /><path clip-path="url(#clip300)" d="M 0 0 M767.224 1461.62 Q763.612 1461.62 761.784 1465.19 Q759.978 1468.73 759.978 1475.86 Q759.978 1482.97 761.784 1486.53 Q763.612 1490.07 767.224 1490.07 Q770.858 1490.07 772.663 1486.53 Q774.492 1482.97 774.492 1475.86 Q774.492 1468.73 772.663 1465.19 Q770.858 1461.62 767.224 1461.62 M767.224 1457.92 Q773.034 1457.92 776.089 1462.53 Q779.168 1467.11 779.168 1475.86 Q779.168 1484.59 776.089 1489.19 Q773.034 1493.78 767.224 1493.78 Q761.413 1493.78 758.335 1489.19 Q755.279 1484.59 755.279 1475.86 Q755.279 1467.11 758.335 1462.53 Q761.413 1457.92 767.224 1457.92 Z" fill="#000000" fill-rule="evenodd" fill-opacity="1" /><path clip-path="url(#clip300)" d="M 0 0 M779.168 1452.02 L803.279 1452.02 L803.279 1455.22 L779.168 1455.22 L779.168 1452.02 Z" fill="#000000" fill-rule="evenodd" fill-opacity="1" /><path clip-path="url(#clip300)" d="M 0 0 M818.909 1450.55 Q821.636 1451.14 823.159 1452.98 Q824.702 1454.82 824.702 1457.53 Q824.702 1461.69 821.843 1463.96 Q818.984 1466.24 813.718 1466.24 Q811.95 1466.24 810.069 1465.88 Q808.207 1465.54 806.213 1464.85 L806.213 1461.18 Q807.793 1462.1 809.674 1462.57 Q811.555 1463.04 813.605 1463.04 Q817.178 1463.04 819.04 1461.63 Q820.921 1460.22 820.921 1457.53 Q820.921 1455.05 819.172 1453.66 Q817.442 1452.25 814.338 1452.25 L811.066 1452.25 L811.066 1449.12 L814.489 1449.12 Q817.291 1449.12 818.777 1448.01 Q820.263 1446.89 820.263 1444.78 Q820.263 1442.62 818.721 1441.47 Q817.197 1440.3 814.338 1440.3 Q812.777 1440.3 810.991 1440.64 Q809.204 1440.98 807.06 1441.69 L807.06 1438.31 Q809.223 1437.71 811.103 1437.41 Q813.003 1437.11 814.677 1437.11 Q819.003 1437.11 821.523 1439.08 Q824.043 1441.04 824.043 1444.38 Q824.043 1446.72 822.708 1448.33 Q821.373 1449.93 818.909 1450.55 Z" fill="#000000" fill-rule="evenodd" fill-opacity="1" /><path clip-path="url(#clip300)" d="M 0 0 M1237.31 1489.17 L1244.95 1489.17 L1244.95 1462.8 L1236.64 1464.47 L1236.64 1460.21 L1244.9 1458.54 L1249.58 1458.54 L1249.58 1489.17 L1257.22 1489.17 L1257.22 1493.1 L1237.31 1493.1 L1237.31 1489.17 Z" fill="#000000" fill-rule="evenodd" fill-opacity="1" /><path clip-path="url(#clip300)" d="M 0 0 M1272.29 1461.62 Q1268.68 1461.62 1266.85 1465.19 Q1265.04 1468.73 1265.04 1475.86 Q1265.04 1482.97 1266.85 1486.53 Q1268.68 1490.07 1272.29 1490.07 Q1275.92 1490.07 1277.73 1486.53 Q1279.56 1482.97 1279.56 1475.86 Q1279.56 1468.73 1277.73 1465.19 Q1275.92 1461.62 1272.29 1461.62 M1272.29 1457.92 Q1278.1 1457.92 1281.15 1462.53 Q1284.23 1467.11 1284.23 1475.86 Q1284.23 1484.59 1281.15 1489.19 Q1278.1 1493.78 1272.29 1493.78 Q1266.48 1493.78 1263.4 1489.19 Q1260.34 1484.59 1260.34 1475.86 Q1260.34 1467.11 1263.4 1462.53 Q1266.48 1457.92 1272.29 1457.92 Z" fill="#000000" fill-rule="evenodd" fill-opacity="1" /><path clip-path="url(#clip300)" d="M 0 0 M1284.23 1452.02 L1308.34 1452.02 L1308.34 1455.22 L1284.23 1455.22 L1284.23 1452.02 Z" fill="#000000" fill-rule="evenodd" fill-opacity="1" /><path clip-path="url(#clip300)" d="M 0 0 M1315.73 1462.5 L1328.99 1462.5 L1328.99 1465.69 L1311.16 1465.69 L1311.16 1462.5 Q1313.33 1460.26 1317.05 1456.5 Q1320.79 1452.72 1321.75 1451.63 Q1323.58 1449.58 1324.29 1448.16 Q1325.03 1446.74 1325.03 1445.36 Q1325.03 1443.12 1323.45 1441.71 Q1321.88 1440.3 1319.36 1440.3 Q1317.58 1440.3 1315.58 1440.92 Q1313.61 1441.54 1311.35 1442.8 L1311.35 1438.97 Q1313.65 1438.05 1315.64 1437.58 Q1317.63 1437.11 1319.29 1437.11 Q1323.65 1437.11 1326.25 1439.29 Q1328.84 1441.47 1328.84 1445.12 Q1328.84 1446.85 1328.19 1448.41 Q1327.55 1449.95 1325.83 1452.06 Q1325.36 1452.6 1322.84 1455.22 Q1320.32 1457.81 1315.73 1462.5 Z" fill="#000000" fill-rule="evenodd" fill-opacity="1" /><path clip-path="url(#clip300)" d="M 0 0 M1741.84 1489.17 L1749.48 1489.17 L1749.48 1462.8 L1741.17 1464.47 L1741.17 1460.21 L1749.43 1458.54 L1754.11 1458.54 L1754.11 1489.17 L1761.74 1489.17 L1761.74 1493.1 L1741.84 1493.1 L1741.84 1489.17 Z" fill="#000000" fill-rule="evenodd" fill-opacity="1" /><path clip-path="url(#clip300)" d="M 0 0 M1776.81 1461.62 Q1773.2 1461.62 1771.37 1465.19 Q1769.57 1468.73 1769.57 1475.86 Q1769.57 1482.97 1771.37 1486.53 Q1773.2 1490.07 1776.81 1490.07 Q1780.45 1490.07 1782.25 1486.53 Q1784.08 1482.97 1784.08 1475.86 Q1784.08 1468.73 1782.25 1465.19 Q1780.45 1461.62 1776.81 1461.62 M1776.81 1457.92 Q1782.62 1457.92 1785.68 1462.53 Q1788.76 1467.11 1788.76 1475.86 Q1788.76 1484.59 1785.68 1489.19 Q1782.62 1493.78 1776.81 1493.78 Q1771 1493.78 1767.93 1489.19 Q1764.87 1484.59 1764.87 1475.86 Q1764.87 1467.11 1767.93 1462.53 Q1771 1457.92 1776.81 1457.92 Z" fill="#000000" fill-rule="evenodd" fill-opacity="1" /><path clip-path="url(#clip300)" d="M 0 0 M1788.76 1452.02 L1812.87 1452.02 L1812.87 1455.22 L1788.76 1455.22 L1788.76 1452.02 Z" fill="#000000" fill-rule="evenodd" fill-opacity="1" /><path clip-path="url(#clip300)" d="M 0 0 M1817.65 1462.5 L1823.85 1462.5 L1823.85 1441.07 L1817.1 1442.43 L1817.1 1438.97 L1823.82 1437.61 L1827.62 1437.61 L1827.62 1462.5 L1833.82 1462.5 L1833.82 1465.69 L1817.65 1465.69 L1817.65 1462.5 Z" fill="#000000" fill-rule="evenodd" fill-opacity="1" /><path clip-path="url(#clip300)" d="M 0 0 M2259.34 1489.17 L2266.98 1489.17 L2266.98 1462.8 L2258.67 1464.47 L2258.67 1460.21 L2266.93 1458.54 L2271.61 1458.54 L2271.61 1489.17 L2279.25 1489.17 L2279.25 1493.1 L2259.34 1493.1 L2259.34 1489.17 Z" fill="#000000" fill-rule="evenodd" fill-opacity="1" /><path clip-path="url(#clip300)" d="M 0 0 M2294.32 1461.62 Q2290.71 1461.62 2288.88 1465.19 Q2287.07 1468.73 2287.07 1475.86 Q2287.07 1482.97 2288.88 1486.53 Q2290.71 1490.07 2294.32 1490.07 Q2297.95 1490.07 2299.76 1486.53 Q2301.59 1482.97 2301.59 1475.86 Q2301.59 1468.73 2299.76 1465.19 Q2297.95 1461.62 2294.32 1461.62 M2294.32 1457.92 Q2300.13 1457.92 2303.18 1462.53 Q2306.26 1467.11 2306.26 1475.86 Q2306.26 1484.59 2303.18 1489.19 Q2300.13 1493.78 2294.32 1493.78 Q2288.51 1493.78 2285.43 1489.19 Q2282.37 1484.59 2282.37 1475.86 Q2282.37 1467.11 2285.43 1462.53 Q2288.51 1457.92 2294.32 1457.92 Z" fill="#000000" fill-rule="evenodd" fill-opacity="1" /><path clip-path="url(#clip300)" d="M 0 0 M2315.97 1440.11 Q2313.03 1440.11 2311.55 1443.01 Q2310.08 1445.89 2310.08 1451.68 Q2310.08 1457.46 2311.55 1460.35 Q2313.03 1463.23 2315.97 1463.23 Q2318.92 1463.23 2320.39 1460.35 Q2321.87 1457.46 2321.87 1451.68 Q2321.87 1445.89 2320.39 1443.01 Q2318.92 1440.11 2315.97 1440.11 M2315.97 1437.11 Q2320.69 1437.11 2323.17 1440.85 Q2325.67 1444.57 2325.67 1451.68 Q2325.67 1458.77 2323.17 1462.51 Q2320.69 1466.24 2315.97 1466.24 Q2311.25 1466.24 2308.75 1462.51 Q2306.26 1458.77 2306.26 1451.68 Q2306.26 1444.57 2308.75 1440.85 Q2311.25 1437.11 2315.97 1437.11 Z" fill="#000000" fill-rule="evenodd" fill-opacity="1" /><path clip-path="url(#clip300)" d="M 0 0 M1208.05 1512.66 L1213.93 1512.66 L1213.93 1541.91 L1231.41 1526.54 L1238.89 1526.54 L1219.98 1543.22 L1239.68 1562.19 L1232.04 1562.19 L1213.93 1544.78 L1213.93 1562.19 L1208.05 1562.19 L1208.05 1512.66 Z" fill="#000000" fill-rule="evenodd" fill-opacity="1" /><path clip-path="url(#clip300)" d="M 0 0 M1272.91 1573.01 L1272.91 1577.56 L1239.05 1577.56 L1239.05 1573.01 L1272.91 1573.01 Z" fill="#000000" fill-rule="evenodd" fill-opacity="1" /><path clip-path="url(#clip300)" d="M 0 0 M1292.87 1530.64 Q1288.16 1530.64 1285.42 1534.34 Q1282.68 1538 1282.68 1544.39 Q1282.68 1550.79 1285.39 1554.48 Q1288.13 1558.14 1292.87 1558.14 Q1297.55 1558.14 1300.29 1554.45 Q1303.02 1550.76 1303.02 1544.39 Q1303.02 1538.06 1300.29 1534.37 Q1297.55 1530.64 1292.87 1530.64 M1292.87 1525.68 Q1300.51 1525.68 1304.87 1530.64 Q1309.23 1535.61 1309.23 1544.39 Q1309.23 1553.15 1304.87 1558.14 Q1300.51 1563.11 1292.87 1563.11 Q1285.2 1563.11 1280.84 1558.14 Q1276.51 1553.15 1276.51 1544.39 Q1276.51 1535.61 1280.84 1530.64 Q1285.2 1525.68 1292.87 1525.68 Z" fill="#000000" fill-rule="evenodd" fill-opacity="1" /><path clip-path="url(#clip300)" d="M 0 0 M1333.42 1512.66 L1333.42 1517.53 L1327.82 1517.53 Q1324.67 1517.53 1323.42 1518.8 Q1322.22 1520.08 1322.22 1523.39 L1322.22 1526.54 L1331.86 1526.54 L1331.86 1531.09 L1322.22 1531.09 L1322.22 1562.19 L1316.33 1562.19 L1316.33 1531.09 L1310.73 1531.09 L1310.73 1526.54 L1316.33 1526.54 L1316.33 1524.05 Q1316.33 1518.1 1319.1 1515.4 Q1321.87 1512.66 1327.88 1512.66 L1333.42 1512.66 Z" fill="#000000" fill-rule="evenodd" fill-opacity="1" /><path clip-path="url(#clip300)" d="M 0 0 M1357.61 1512.66 L1357.61 1517.53 L1352.01 1517.53 Q1348.86 1517.53 1347.61 1518.8 Q1346.4 1520.08 1346.4 1523.39 L1346.4 1526.54 L1356.05 1526.54 L1356.05 1531.09 L1346.4 1531.09 L1346.4 1562.19 L1340.52 1562.19 L1340.52 1531.09 L1334.91 1531.09 L1334.91 1526.54 L1340.52 1526.54 L1340.52 1524.05 Q1340.52 1518.1 1343.29 1515.4 Q1346.05 1512.66 1352.07 1512.66 L1357.61 1512.66 Z" fill="#000000" fill-rule="evenodd" fill-opacity="1" /><polyline clip-path="url(#clip302)" style="stroke:#000000; stroke-width:2; stroke-opacity:0.1; fill:none" points="
  212.899,1285.4 2352.76,1285.4 
  "/>
<polyline clip-path="url(#clip302)" style="stroke:#000000; stroke-width:2; stroke-opacity:0.1; fill:none" points="
  212.899,1028.11 2352.76,1028.11 
  "/>
<polyline clip-path="url(#clip302)" style="stroke:#000000; stroke-width:2; stroke-opacity:0.1; fill:none" points="
  212.899,770.815 2352.76,770.815 
  "/>
<polyline clip-path="url(#clip302)" style="stroke:#000000; stroke-width:2; stroke-opacity:0.1; fill:none" points="
  212.899,513.522 2352.76,513.522 
  "/>
<polyline clip-path="url(#clip302)" style="stroke:#000000; stroke-width:2; stroke-opacity:0.1; fill:none" points="
  212.899,256.229 2352.76,256.229 
  "/>
<polyline clip-path="url(#clip300)" style="stroke:#000000; stroke-width:4; stroke-opacity:1; fill:none" points="
  212.899,1410.9 212.899,47.2441 
  "/>
<polyline clip-path="url(#clip300)" style="stroke:#000000; stroke-width:4; stroke-opacity:1; fill:none" points="
  212.899,1285.4 238.577,1285.4 
  "/>
<polyline clip-path="url(#clip300)" style="stroke:#000000; stroke-width:4; stroke-opacity:1; fill:none" points="
  212.899,1028.11 238.577,1028.11 
  "/>
<polyline clip-path="url(#clip300)" style="stroke:#000000; stroke-width:4; stroke-opacity:1; fill:none" points="
  212.899,770.815 238.577,770.815 
  "/>
<polyline clip-path="url(#clip300)" style="stroke:#000000; stroke-width:4; stroke-opacity:1; fill:none" points="
  212.899,513.522 238.577,513.522 
  "/>
<polyline clip-path="url(#clip300)" style="stroke:#000000; stroke-width:4; stroke-opacity:1; fill:none" points="
  212.899,256.229 238.577,256.229 
  "/>
<path clip-path="url(#clip300)" d="M 0 0 M130.348 1272.2 L118.543 1290.64 L130.348 1290.64 L130.348 1272.2 M129.121 1268.12 L135.001 1268.12 L135.001 1290.64 L139.931 1290.64 L139.931 1294.53 L135.001 1294.53 L135.001 1302.68 L130.348 1302.68 L130.348 1294.53 L114.746 1294.53 L114.746 1290.02 L129.121 1268.12 Z" fill="#000000" fill-rule="evenodd" fill-opacity="1" /><path clip-path="url(#clip300)" d="M 0 0 M145.001 1296.8 L149.885 1296.8 L149.885 1302.68 L145.001 1302.68 L145.001 1296.8 Z" fill="#000000" fill-rule="evenodd" fill-opacity="1" /><path clip-path="url(#clip300)" d="M 0 0 M164.954 1271.2 Q161.343 1271.2 159.515 1274.76 Q157.709 1278.31 157.709 1285.44 Q157.709 1292.54 159.515 1296.11 Q161.343 1299.65 164.954 1299.65 Q168.589 1299.65 170.394 1296.11 Q172.223 1292.54 172.223 1285.44 Q172.223 1278.31 170.394 1274.76 Q168.589 1271.2 164.954 1271.2 M164.954 1267.5 Q170.764 1267.5 173.82 1272.1 Q176.899 1276.69 176.899 1285.44 Q176.899 1294.16 173.82 1298.77 Q170.764 1303.35 164.954 1303.35 Q159.144 1303.35 156.065 1298.77 Q153.01 1294.16 153.01 1285.44 Q153.01 1276.69 156.065 1272.1 Q159.144 1267.5 164.954 1267.5 Z" fill="#000000" fill-rule="evenodd" fill-opacity="1" /><path clip-path="url(#clip300)" d="M 0 0 M131.945 1014.9 L120.14 1033.35 L131.945 1033.35 L131.945 1014.9 M130.718 1010.83 L136.598 1010.83 L136.598 1033.35 L141.529 1033.35 L141.529 1037.24 L136.598 1037.24 L136.598 1045.39 L131.945 1045.39 L131.945 1037.24 L116.343 1037.24 L116.343 1032.73 L130.718 1010.83 Z" fill="#000000" fill-rule="evenodd" fill-opacity="1" /><path clip-path="url(#clip300)" d="M 0 0 M146.598 1039.51 L151.482 1039.51 L151.482 1045.39 L146.598 1045.39 L146.598 1039.51 Z" fill="#000000" fill-rule="evenodd" fill-opacity="1" /><path clip-path="url(#clip300)" d="M 0 0 M160.579 1041.45 L176.899 1041.45 L176.899 1045.39 L154.954 1045.39 L154.954 1041.45 Q157.616 1038.7 162.2 1034.07 Q166.806 1029.42 167.987 1028.07 Q170.232 1025.55 171.112 1023.81 Q172.014 1022.06 172.014 1020.37 Q172.014 1017.61 170.07 1015.87 Q168.149 1014.14 165.047 1014.14 Q162.848 1014.14 160.394 1014.9 Q157.964 1015.67 155.186 1017.22 L155.186 1012.49 Q158.01 1011.36 160.464 1010.78 Q162.917 1010.2 164.954 1010.2 Q170.325 1010.2 173.519 1012.89 Q176.714 1015.57 176.714 1020.06 Q176.714 1022.19 175.903 1024.12 Q175.116 1026.01 173.01 1028.61 Q172.431 1029.28 169.329 1032.49 Q166.227 1035.69 160.579 1041.45 Z" fill="#000000" fill-rule="evenodd" fill-opacity="1" /><path clip-path="url(#clip300)" d="M 0 0 M129.862 757.609 L118.056 776.058 L129.862 776.058 L129.862 757.609 M128.635 753.535 L134.515 753.535 L134.515 776.058 L139.445 776.058 L139.445 779.947 L134.515 779.947 L134.515 788.095 L129.862 788.095 L129.862 779.947 L114.26 779.947 L114.26 775.433 L128.635 753.535 Z" fill="#000000" fill-rule="evenodd" fill-opacity="1" /><path clip-path="url(#clip300)" d="M 0 0 M144.515 782.216 L149.399 782.216 L149.399 788.095 L144.515 788.095 L144.515 782.216 Z" fill="#000000" fill-rule="evenodd" fill-opacity="1" /><path clip-path="url(#clip300)" d="M 0 0 M167.315 757.609 L155.51 776.058 L167.315 776.058 L167.315 757.609 M166.089 753.535 L171.968 753.535 L171.968 776.058 L176.899 776.058 L176.899 779.947 L171.968 779.947 L171.968 788.095 L167.315 788.095 L167.315 779.947 L151.714 779.947 L151.714 775.433 L166.089 753.535 Z" fill="#000000" fill-rule="evenodd" fill-opacity="1" /><path clip-path="url(#clip300)" d="M 0 0 M130.186 500.316 L118.381 518.765 L130.186 518.765 L130.186 500.316 M128.959 496.242 L134.839 496.242 L134.839 518.765 L139.769 518.765 L139.769 522.654 L134.839 522.654 L134.839 530.802 L130.186 530.802 L130.186 522.654 L114.584 522.654 L114.584 518.14 L128.959 496.242 Z" fill="#000000" fill-rule="evenodd" fill-opacity="1" /><path clip-path="url(#clip300)" d="M 0 0 M144.839 524.923 L149.723 524.923 L149.723 530.802 L144.839 530.802 L144.839 524.923 Z" fill="#000000" fill-rule="evenodd" fill-opacity="1" /><path clip-path="url(#clip300)" d="M 0 0 M165.371 511.659 Q162.223 511.659 160.371 513.812 Q158.542 515.964 158.542 519.714 Q158.542 523.441 160.371 525.617 Q162.223 527.77 165.371 527.77 Q168.519 527.77 170.348 525.617 Q172.2 523.441 172.2 519.714 Q172.2 515.964 170.348 513.812 Q168.519 511.659 165.371 511.659 M174.653 497.006 L174.653 501.265 Q172.894 500.432 171.089 499.992 Q169.306 499.553 167.547 499.553 Q162.917 499.553 160.464 502.678 Q158.033 505.802 157.686 512.122 Q159.052 510.108 161.112 509.043 Q163.172 507.955 165.649 507.955 Q170.857 507.955 173.866 511.127 Q176.899 514.275 176.899 519.714 Q176.899 525.039 173.751 528.256 Q170.602 531.474 165.371 531.474 Q159.376 531.474 156.204 526.89 Q153.033 522.284 153.033 513.557 Q153.033 505.363 156.922 500.502 Q160.811 495.617 167.362 495.617 Q169.121 495.617 170.903 495.965 Q172.709 496.312 174.653 497.006 Z" fill="#000000" fill-rule="evenodd" fill-opacity="1" /><path clip-path="url(#clip300)" d="M 0 0 M130.441 243.023 L118.635 261.472 L130.441 261.472 L130.441 243.023 M129.214 238.949 L135.093 238.949 L135.093 261.472 L140.024 261.472 L140.024 265.361 L135.093 265.361 L135.093 273.509 L130.441 273.509 L130.441 265.361 L114.839 265.361 L114.839 260.847 L129.214 238.949 Z" fill="#000000" fill-rule="evenodd" fill-opacity="1" /><path clip-path="url(#clip300)" d="M 0 0 M145.093 267.63 L149.978 267.63 L149.978 273.509 L145.093 273.509 L145.093 267.63 Z" fill="#000000" fill-rule="evenodd" fill-opacity="1" /><path clip-path="url(#clip300)" d="M 0 0 M165.047 257.097 Q161.714 257.097 159.792 258.88 Q157.894 260.662 157.894 263.787 Q157.894 266.912 159.792 268.695 Q161.714 270.477 165.047 270.477 Q168.38 270.477 170.302 268.695 Q172.223 266.889 172.223 263.787 Q172.223 260.662 170.302 258.88 Q168.403 257.097 165.047 257.097 M160.371 255.107 Q157.362 254.366 155.672 252.306 Q154.005 250.246 154.005 247.283 Q154.005 243.139 156.945 240.732 Q159.908 238.324 165.047 238.324 Q170.209 238.324 173.149 240.732 Q176.089 243.139 176.089 247.283 Q176.089 250.246 174.399 252.306 Q172.732 254.366 169.746 255.107 Q173.126 255.894 175.001 258.185 Q176.899 260.477 176.899 263.787 Q176.899 268.81 173.82 271.496 Q170.764 274.181 165.047 274.181 Q159.329 274.181 156.251 271.496 Q153.195 268.81 153.195 263.787 Q153.195 260.477 155.093 258.185 Q156.991 255.894 160.371 255.107 M158.658 247.723 Q158.658 250.408 160.325 251.912 Q162.015 253.417 165.047 253.417 Q168.056 253.417 169.746 251.912 Q171.459 250.408 171.459 247.723 Q171.459 245.037 169.746 243.533 Q168.056 242.028 165.047 242.028 Q162.015 242.028 160.325 243.533 Q158.658 245.037 158.658 247.723 Z" fill="#000000" fill-rule="evenodd" fill-opacity="1" /><path clip-path="url(#clip300)" d="M 0 0 M59.1993 815.533 Q55.2526 813.336 53.3747 810.281 Q51.4968 807.225 51.4968 803.088 Q51.4968 797.518 55.4117 794.494 Q59.2948 791.47 66.4881 791.47 L88.0042 791.47 L88.0042 797.358 L66.679 797.358 Q61.5546 797.358 59.072 799.173 Q56.5894 800.987 56.5894 804.711 Q56.5894 809.262 59.6131 811.904 Q62.6368 814.546 67.8567 814.546 L88.0042 814.546 L88.0042 820.434 L66.679 820.434 Q61.5228 820.434 59.072 822.248 Q56.5894 824.063 56.5894 827.85 Q56.5894 832.338 59.6449 834.98 Q62.6686 837.622 67.8567 837.622 L88.0042 837.622 L88.0042 843.51 L52.3562 843.51 L52.3562 837.622 L57.8944 837.622 Q54.616 835.616 53.0564 832.815 Q51.4968 830.015 51.4968 826.163 Q51.4968 822.28 53.4702 819.575 Q55.4436 816.838 59.1993 815.533 Z" fill="#000000" fill-rule="evenodd" fill-opacity="1" /><path clip-path="url(#clip300)" d="M 0 0 M52.3562 785.327 L52.3562 779.471 L88.0042 779.471 L88.0042 785.327 L52.3562 785.327 M38.479 785.327 L38.479 779.471 L45.895 779.471 L45.895 785.327 L38.479 785.327 Z" fill="#000000" fill-rule="evenodd" fill-opacity="1" /><path clip-path="url(#clip300)" d="M 0 0 M66.4881 743.696 L88.0042 743.696 L88.0042 749.552 L66.679 749.552 Q61.6183 749.552 59.1038 751.525 Q56.5894 753.499 56.5894 757.446 Q56.5894 762.188 59.6131 764.925 Q62.6368 767.662 67.8567 767.662 L88.0042 767.662 L88.0042 773.551 L52.3562 773.551 L52.3562 767.662 L57.8944 767.662 Q54.6797 765.562 53.0883 762.729 Q51.4968 759.864 51.4968 756.141 Q51.4968 749.998 55.3163 746.847 Q59.1038 743.696 66.4881 743.696 Z" fill="#000000" fill-rule="evenodd" fill-opacity="1" /><path clip-path="url(#clip300)" d="M 0 0 M98.8259 710.467 L103.377 710.467 L103.377 744.332 L98.8259 744.332 L98.8259 710.467 Z" fill="#000000" fill-rule="evenodd" fill-opacity="1" /><path clip-path="url(#clip300)" d="M 0 0 M57.7671 680.866 L38.479 680.866 L38.479 675.01 L88.0042 675.01 L88.0042 680.866 L82.657 680.866 Q85.8398 682.712 87.3994 685.545 Q88.9272 688.346 88.9272 692.292 Q88.9272 698.754 83.771 702.828 Q78.6147 706.87 70.212 706.87 Q61.8093 706.87 56.6531 702.828 Q51.4968 698.754 51.4968 692.292 Q51.4968 688.346 53.0564 685.545 Q54.5842 682.712 57.7671 680.866 M70.212 700.823 Q76.6732 700.823 80.3653 698.181 Q84.0256 695.507 84.0256 690.86 Q84.0256 686.213 80.3653 683.54 Q76.6732 680.866 70.212 680.866 Q63.7508 680.866 60.0905 683.54 Q56.3984 686.213 56.3984 690.86 Q56.3984 695.507 60.0905 698.181 Q63.7508 700.823 70.212 700.823 Z" fill="#000000" fill-rule="evenodd" fill-opacity="1" /><path clip-path="url(#clip300)" d="M 0 0 M52.3562 668.867 L52.3562 663.01 L88.0042 663.01 L88.0042 668.867 L52.3562 668.867 M38.479 668.867 L38.479 663.01 L45.895 663.01 L45.895 668.867 L38.479 668.867 Z" fill="#000000" fill-rule="evenodd" fill-opacity="1" /><path clip-path="url(#clip300)" d="M 0 0 M38.479 638.821 L43.3487 638.821 L43.3487 644.422 Q43.3487 647.573 44.6219 648.815 Q45.895 650.024 49.2052 650.024 L52.3562 650.024 L52.3562 640.38 L56.9077 640.38 L56.9077 650.024 L88.0042 650.024 L88.0042 655.912 L56.9077 655.912 L56.9077 661.514 L52.3562 661.514 L52.3562 655.912 L49.8736 655.912 Q43.9216 655.912 41.2162 653.143 Q38.479 650.374 38.479 644.359 L38.479 638.821 Z" fill="#000000" fill-rule="evenodd" fill-opacity="1" /><path clip-path="url(#clip300)" d="M 0 0 M38.479 614.631 L43.3487 614.631 L43.3487 620.233 Q43.3487 623.384 44.6219 624.625 Q45.895 625.835 49.2052 625.835 L52.3562 625.835 L52.3562 616.19 L56.9077 616.19 L56.9077 625.835 L88.0042 625.835 L88.0042 631.723 L56.9077 631.723 L56.9077 637.325 L52.3562 637.325 L52.3562 631.723 L49.8736 631.723 Q43.9216 631.723 41.2162 628.954 Q38.479 626.185 38.479 620.169 L38.479 614.631 Z" fill="#000000" fill-rule="evenodd" fill-opacity="1" /><path clip-path="url(#clip300)" d="
M1992.65 213.659 L2281.43 213.659 L2281.43 92.6992 L1992.65 92.6992  Z
  " fill="#ffffff" fill-rule="evenodd" fill-opacity="1"/>
<polyline clip-path="url(#clip300)" style="stroke:#000000; stroke-width:4; stroke-opacity:1; fill:none" points="
  1992.65,213.659 2281.43,213.659 2281.43,92.6992 1992.65,92.6992 1992.65,213.659 
  "/>
<polyline clip-path="url(#clip300)" style="stroke:#009af9; stroke-width:4; stroke-opacity:1; fill:none" stroke-dasharray="16, 10" points="
  2016.42,153.179 2159.08,153.179 
  "/>
<path clip-path="url(#clip300)" d="M 0 0 M2196.7 172.867 Q2194.89 177.496 2193.18 178.908 Q2191.47 180.32 2188.6 180.32 L2185.19 180.32 L2185.19 176.755 L2187.69 176.755 Q2189.45 176.755 2190.43 175.922 Q2191.4 175.089 2192.58 171.987 L2193.34 170.043 L2182.86 144.533 L2187.37 144.533 L2195.47 164.811 L2203.57 144.533 L2208.09 144.533 L2196.7 172.867 Z" fill="#000000" fill-rule="evenodd" fill-opacity="1" /><path clip-path="url(#clip300)" d="M 0 0 M2213.97 166.524 L2221.61 166.524 L2221.61 140.158 L2213.3 141.825 L2213.3 137.566 L2221.56 135.899 L2226.24 135.899 L2226.24 166.524 L2233.87 166.524 L2233.87 170.459 L2213.97 170.459 L2213.97 166.524 Z" fill="#000000" fill-rule="evenodd" fill-opacity="1" /></svg>
