<?xml version="1.0" encoding="utf-8"?>
<svg xmlns="http://www.w3.org/2000/svg" xmlns:xlink="http://www.w3.org/1999/xlink" width="600" height="400" viewBox="0 0 2400 1600">
<defs>
  <clipPath id="clip900">
    <rect x="0" y="0" width="2400" height="1600"/>
  </clipPath>
</defs>
<path clip-path="url(#clip900)" d="
M0 1600 L2400 1600 L2400 0 L0 0  Z
  " fill="#ffffff" fill-rule="evenodd" fill-opacity="1"/>
<defs>
  <clipPath id="clip901">
    <rect x="480" y="0" width="1681" height="1600"/>
  </clipPath>
</defs>
<path clip-path="url(#clip900)" d="
M175.445 1410.9 L2352.76 1410.9 L2352.76 47.2441 L175.445 47.2441  Z
  " fill="#ffffff" fill-rule="evenodd" fill-opacity="1"/>
<defs>
  <clipPath id="clip902">
    <rect x="175" y="47" width="2178" height="1365"/>
  </clipPath>
</defs>
<polyline clip-path="url(#clip902)" style="stroke:#000000; stroke-linecap:round; stroke-linejoin:round; stroke-width:2; stroke-opacity:0.1; fill:none" points="
  237.067,1410.9 237.067,47.2441 
  "/>
<polyline clip-path="url(#clip902)" style="stroke:#000000; stroke-linecap:round; stroke-linejoin:round; stroke-width:2; stroke-opacity:0.1; fill:none" points="
  823.943,1410.9 823.943,47.2441 
  "/>
<polyline clip-path="url(#clip902)" style="stroke:#000000; stroke-linecap:round; stroke-linejoin:round; stroke-width:2; stroke-opacity:0.1; fill:none" points="
  1410.82,1410.9 1410.82,47.2441 
  "/>
<polyline clip-path="url(#clip902)" style="stroke:#000000; stroke-linecap:round; stroke-linejoin:round; stroke-width:2; stroke-opacity:0.1; fill:none" points="
  1997.7,1410.9 1997.7,47.2441 
  "/>
<polyline clip-path="url(#clip900)" style="stroke:#000000; stroke-linecap:round; stroke-linejoin:round; stroke-width:4; stroke-opacity:1; fill:none" points="
  175.445,1410.9 2352.76,1410.9 
  "/>
<polyline clip-path="url(#clip900)" style="stroke:#000000; stroke-linecap:round; stroke-linejoin:round; stroke-width:4; stroke-opacity:1; fill:none" points="
  237.067,1410.9 237.067,1392 
  "/>
<polyline clip-path="url(#clip900)" style="stroke:#000000; stroke-linecap:round; stroke-linejoin:round; stroke-width:4; stroke-opacity:1; fill:none" points="
  823.943,1410.9 823.943,1392 
  "/>
<polyline clip-path="url(#clip900)" style="stroke:#000000; stroke-linecap:round; stroke-linejoin:round; stroke-width:4; stroke-opacity:1; fill:none" points="
  1410.82,1410.9 1410.82,1392 
  "/>
<polyline clip-path="url(#clip900)" style="stroke:#000000; stroke-linecap:round; stroke-linejoin:round; stroke-width:4; stroke-opacity:1; fill:none" points="
  1997.7,1410.9 1997.7,1392 
  "/>
<path clip-path="url(#clip900)" d="M186.618 1485.02 L194.257 1485.02 L194.257 1458.66 L185.947 1460.32 L185.947 1456.06 L194.211 1454.4 L198.887 1454.4 L198.887 1485.02 L206.526 1485.02 L206.526 1488.96 L186.618 1488.96 L186.618 1485.02 Z" fill="#000000" fill-rule="evenodd" fill-opacity="1" /><path clip-path="url(#clip900)" d="M225.97 1457.48 Q222.359 1457.48 220.53 1461.04 Q218.725 1464.58 218.725 1471.71 Q218.725 1478.82 220.53 1482.38 Q222.359 1485.92 225.97 1485.92 Q229.604 1485.92 231.41 1482.38 Q233.238 1478.82 233.238 1471.71 Q233.238 1464.58 231.41 1461.04 Q229.604 1457.48 225.97 1457.48 M225.97 1453.77 Q231.78 1453.77 234.836 1458.38 Q237.914 1462.96 237.914 1471.71 Q237.914 1480.44 234.836 1485.04 Q231.78 1489.63 225.97 1489.63 Q220.16 1489.63 217.081 1485.04 Q214.026 1480.44 214.026 1471.71 Q214.026 1462.96 217.081 1458.38 Q220.16 1453.77 225.97 1453.77 Z" fill="#000000" fill-rule="evenodd" fill-opacity="1" /><path clip-path="url(#clip900)" d="M237.914 1447.87 L262.026 1447.87 L262.026 1451.07 L237.914 1451.07 L237.914 1447.87 Z" fill="#000000" fill-rule="evenodd" fill-opacity="1" /><path clip-path="url(#clip900)" d="M278.821 1445.99 Q276.263 1445.99 274.759 1447.74 Q273.273 1449.49 273.273 1452.54 Q273.273 1455.57 274.759 1457.33 Q276.263 1459.08 278.821 1459.08 Q281.379 1459.08 282.865 1457.33 Q284.369 1455.57 284.369 1452.54 Q284.369 1449.49 282.865 1447.74 Q281.379 1445.99 278.821 1445.99 M286.363 1434.09 L286.363 1437.55 Q284.934 1436.87 283.467 1436.51 Q282.019 1436.16 280.589 1436.16 Q276.828 1436.16 274.834 1438.69 Q272.859 1441.23 272.577 1446.37 Q273.687 1444.73 275.361 1443.87 Q277.034 1442.98 279.047 1442.98 Q283.279 1442.98 285.724 1445.56 Q288.187 1448.12 288.187 1452.54 Q288.187 1456.86 285.63 1459.48 Q283.072 1462.09 278.821 1462.09 Q273.95 1462.09 271.373 1458.37 Q268.797 1454.62 268.797 1447.53 Q268.797 1440.88 271.956 1436.93 Q275.116 1432.96 280.439 1432.96 Q281.868 1432.96 283.316 1433.24 Q284.783 1433.52 286.363 1434.09 Z" fill="#000000" fill-rule="evenodd" fill-opacity="1" /><path clip-path="url(#clip900)" d="M773.965 1485.02 L781.604 1485.02 L781.604 1458.66 L773.293 1460.32 L773.293 1456.06 L781.557 1454.4 L786.233 1454.4 L786.233 1485.02 L793.872 1485.02 L793.872 1488.96 L773.965 1488.96 L773.965 1485.02 Z" fill="#000000" fill-rule="evenodd" fill-opacity="1" /><path clip-path="url(#clip900)" d="M813.316 1457.48 Q809.705 1457.48 807.877 1461.04 Q806.071 1464.58 806.071 1471.71 Q806.071 1478.82 807.877 1482.38 Q809.705 1485.92 813.316 1485.92 Q816.951 1485.92 818.756 1482.38 Q820.585 1478.82 820.585 1471.71 Q820.585 1464.58 818.756 1461.04 Q816.951 1457.48 813.316 1457.48 M813.316 1453.77 Q819.126 1453.77 822.182 1458.38 Q825.261 1462.96 825.261 1471.71 Q825.261 1480.44 822.182 1485.04 Q819.126 1489.63 813.316 1489.63 Q807.506 1489.63 804.427 1485.04 Q801.372 1480.44 801.372 1471.71 Q801.372 1462.96 804.427 1458.38 Q807.506 1453.77 813.316 1453.77 Z" fill="#000000" fill-rule="evenodd" fill-opacity="1" /><path clip-path="url(#clip900)" d="M825.261 1447.87 L849.372 1447.87 L849.372 1451.07 L825.261 1451.07 L825.261 1447.87 Z" fill="#000000" fill-rule="evenodd" fill-opacity="1" /><path clip-path="url(#clip900)" d="M857.61 1433.47 L872.525 1433.47 L872.525 1436.66 L861.089 1436.66 L861.089 1443.55 Q861.917 1443.27 862.745 1443.13 Q863.572 1442.98 864.4 1442.98 Q869.102 1442.98 871.848 1445.56 Q874.593 1448.14 874.593 1452.54 Q874.593 1457.07 871.772 1459.59 Q868.951 1462.09 863.817 1462.09 Q862.049 1462.09 860.206 1461.79 Q858.381 1461.49 856.425 1460.89 L856.425 1457.07 Q858.118 1457.99 859.923 1458.44 Q861.729 1458.89 863.741 1458.89 Q866.995 1458.89 868.895 1457.18 Q870.794 1455.47 870.794 1452.54 Q870.794 1449.6 868.895 1447.89 Q866.995 1446.18 863.741 1446.18 Q862.218 1446.18 860.695 1446.52 Q859.19 1446.86 857.61 1447.57 L857.61 1433.47 Z" fill="#000000" fill-rule="evenodd" fill-opacity="1" /><path clip-path="url(#clip900)" d="M1360.24 1485.02 L1367.88 1485.02 L1367.88 1458.66 L1359.57 1460.32 L1359.57 1456.06 L1367.83 1454.4 L1372.51 1454.4 L1372.51 1485.02 L1380.15 1485.02 L1380.15 1488.96 L1360.24 1488.96 L1360.24 1485.02 Z" fill="#000000" fill-rule="evenodd" fill-opacity="1" /><path clip-path="url(#clip900)" d="M1399.59 1457.48 Q1395.98 1457.48 1394.15 1461.04 Q1392.35 1464.58 1392.35 1471.71 Q1392.35 1478.82 1394.15 1482.38 Q1395.98 1485.92 1399.59 1485.92 Q1403.22 1485.92 1405.03 1482.38 Q1406.86 1478.82 1406.86 1471.71 Q1406.86 1464.58 1405.03 1461.04 Q1403.22 1457.48 1399.59 1457.48 M1399.59 1453.77 Q1405.4 1453.77 1408.46 1458.38 Q1411.54 1462.96 1411.54 1471.71 Q1411.54 1480.44 1408.46 1485.04 Q1405.4 1489.63 1399.59 1489.63 Q1393.78 1489.63 1390.7 1485.04 Q1387.65 1480.44 1387.65 1471.71 Q1387.65 1462.96 1390.7 1458.38 Q1393.78 1453.77 1399.59 1453.77 Z" fill="#000000" fill-rule="evenodd" fill-opacity="1" /><path clip-path="url(#clip900)" d="M1411.54 1447.87 L1435.65 1447.87 L1435.65 1451.07 L1411.54 1451.07 L1411.54 1447.87 Z" fill="#000000" fill-rule="evenodd" fill-opacity="1" /><path clip-path="url(#clip900)" d="M1454.29 1436.78 L1444.69 1451.77 L1454.29 1451.77 L1454.29 1436.78 M1453.29 1433.47 L1458.07 1433.47 L1458.07 1451.77 L1462.07 1451.77 L1462.07 1454.93 L1458.07 1454.93 L1458.07 1461.55 L1454.29 1461.55 L1454.29 1454.93 L1441.61 1454.93 L1441.61 1451.26 L1453.29 1433.47 Z" fill="#000000" fill-rule="evenodd" fill-opacity="1" /><path clip-path="url(#clip900)" d="M1947.58 1485.02 L1955.21 1485.02 L1955.21 1458.66 L1946.9 1460.32 L1946.9 1456.06 L1955.17 1454.4 L1959.84 1454.4 L1959.84 1485.02 L1967.48 1485.02 L1967.48 1488.96 L1947.58 1488.96 L1947.58 1485.02 Z" fill="#000000" fill-rule="evenodd" fill-opacity="1" /><path clip-path="url(#clip900)" d="M1986.93 1457.48 Q1983.32 1457.48 1981.49 1461.04 Q1979.68 1464.58 1979.68 1471.71 Q1979.68 1478.82 1981.49 1482.38 Q1983.32 1485.92 1986.93 1485.92 Q1990.56 1485.92 1992.37 1482.38 Q1994.2 1478.82 1994.2 1471.71 Q1994.2 1464.58 1992.37 1461.04 Q1990.56 1457.48 1986.93 1457.48 M1986.93 1453.77 Q1992.74 1453.77 1995.79 1458.38 Q1998.87 1462.96 1998.87 1471.71 Q1998.87 1480.44 1995.79 1485.04 Q1992.74 1489.63 1986.93 1489.63 Q1981.12 1489.63 1978.04 1485.04 Q1974.98 1480.44 1974.98 1471.71 Q1974.98 1462.96 1978.04 1458.38 Q1981.12 1453.77 1986.93 1453.77 Z" fill="#000000" fill-rule="evenodd" fill-opacity="1" /><path clip-path="url(#clip900)" d="M1998.87 1447.87 L2022.98 1447.87 L2022.98 1451.07 L1998.87 1451.07 L1998.87 1447.87 Z" fill="#000000" fill-rule="evenodd" fill-opacity="1" /><path clip-path="url(#clip900)" d="M2042.69 1446.41 Q2045.42 1446.99 2046.94 1448.83 Q2048.49 1450.68 2048.49 1453.38 Q2048.49 1457.54 2045.63 1459.82 Q2042.77 1462.09 2037.5 1462.09 Q2035.74 1462.09 2033.85 1461.73 Q2031.99 1461.4 2030 1460.7 L2030 1457.03 Q2031.58 1457.95 2033.46 1458.42 Q2035.34 1458.89 2037.39 1458.89 Q2040.96 1458.89 2042.83 1457.48 Q2044.71 1456.07 2044.71 1453.38 Q2044.71 1450.9 2042.96 1449.51 Q2041.23 1448.1 2038.12 1448.1 L2034.85 1448.1 L2034.85 1444.98 L2038.27 1444.98 Q2041.08 1444.98 2042.56 1443.87 Q2044.05 1442.74 2044.05 1440.63 Q2044.05 1438.47 2042.51 1437.32 Q2040.98 1436.16 2038.12 1436.16 Q2036.56 1436.16 2034.78 1436.49 Q2032.99 1436.83 2030.85 1437.55 L2030.85 1434.16 Q2033.01 1433.56 2034.89 1433.26 Q2036.79 1432.96 2038.46 1432.96 Q2042.79 1432.96 2045.31 1434.93 Q2047.83 1436.89 2047.83 1440.24 Q2047.83 1442.57 2046.49 1444.19 Q2045.16 1445.79 2042.69 1446.41 Z" fill="#000000" fill-rule="evenodd" fill-opacity="1" /><path clip-path="url(#clip900)" d="M1188.38 1524.66 L1194.27 1524.66 L1194.27 1553.91 L1211.74 1538.54 L1219.22 1538.54 L1200.32 1555.22 L1220.02 1574.19 L1212.38 1574.19 L1194.27 1556.78 L1194.27 1574.19 L1188.38 1574.19 L1188.38 1524.66 Z" fill="#000000" fill-rule="evenodd" fill-opacity="1" /><path clip-path="url(#clip900)" d="M1253.44 1585.01 L1253.44 1589.56 L1219.57 1589.56 L1219.57 1585.01 L1253.44 1585.01 Z" fill="#000000" fill-rule="evenodd" fill-opacity="1" /><path clip-path="url(#clip900)" d="M1272.76 1542.64 Q1268.05 1542.64 1265.31 1546.34 Q1262.57 1550 1262.57 1556.39 Q1262.57 1562.79 1265.28 1566.48 Q1268.02 1570.14 1272.76 1570.14 Q1277.44 1570.14 1280.17 1566.45 Q1282.91 1562.76 1282.91 1556.39 Q1282.91 1550.06 1280.17 1546.37 Q1277.44 1542.64 1272.76 1542.64 M1272.76 1537.68 Q1280.4 1537.68 1284.76 1542.64 Q1289.12 1547.61 1289.12 1556.39 Q1289.12 1565.15 1284.76 1570.14 Q1280.4 1575.11 1272.76 1575.11 Q1265.09 1575.11 1260.73 1570.14 Q1256.4 1565.15 1256.4 1556.39 Q1256.4 1547.61 1260.73 1542.64 Q1265.09 1537.68 1272.76 1537.68 Z" fill="#000000" fill-rule="evenodd" fill-opacity="1" /><path clip-path="url(#clip900)" d="M1316.87 1524.66 L1316.87 1529.53 L1311.27 1529.53 Q1308.12 1529.53 1306.88 1530.8 Q1305.67 1532.08 1305.67 1535.39 L1305.67 1538.54 L1315.31 1538.54 L1315.31 1543.09 L1305.67 1543.09 L1305.67 1574.19 L1299.78 1574.19 L1299.78 1543.09 L1294.18 1543.09 L1294.18 1538.54 L1299.78 1538.54 L1299.78 1536.05 Q1299.78 1530.1 1302.55 1527.4 Q1305.32 1524.66 1311.33 1524.66 L1316.87 1524.66 Z" fill="#000000" fill-rule="evenodd" fill-opacity="1" /><path clip-path="url(#clip900)" d="M1339.82 1524.66 L1339.82 1529.53 L1334.22 1529.53 Q1331.07 1529.53 1329.83 1530.8 Q1328.62 1532.08 1328.62 1535.39 L1328.62 1538.54 L1338.26 1538.54 L1338.26 1543.09 L1328.62 1543.09 L1328.62 1574.19 L1322.73 1574.19 L1322.73 1543.09 L1317.13 1543.09 L1317.13 1538.54 L1322.73 1538.54 L1322.73 1536.05 Q1322.73 1530.1 1325.5 1527.4 Q1328.27 1524.66 1334.28 1524.66 L1339.82 1524.66 Z" fill="#000000" fill-rule="evenodd" fill-opacity="1" /><polyline clip-path="url(#clip902)" style="stroke:#000000; stroke-linecap:round; stroke-linejoin:round; stroke-width:2; stroke-opacity:0.1; fill:none" points="
  175.445,1172.47 2352.76,1172.47 
  "/>
<polyline clip-path="url(#clip902)" style="stroke:#000000; stroke-linecap:round; stroke-linejoin:round; stroke-width:2; stroke-opacity:0.1; fill:none" points="
  175.445,810.369 2352.76,810.369 
  "/>
<polyline clip-path="url(#clip902)" style="stroke:#000000; stroke-linecap:round; stroke-linejoin:round; stroke-width:2; stroke-opacity:0.1; fill:none" points="
  175.445,448.269 2352.76,448.269 
  "/>
<polyline clip-path="url(#clip902)" style="stroke:#000000; stroke-linecap:round; stroke-linejoin:round; stroke-width:2; stroke-opacity:0.1; fill:none" points="
  175.445,86.1694 2352.76,86.1694 
  "/>
<polyline clip-path="url(#clip900)" style="stroke:#000000; stroke-linecap:round; stroke-linejoin:round; stroke-width:4; stroke-opacity:1; fill:none" points="
  175.445,1410.9 175.445,47.2441 
  "/>
<polyline clip-path="url(#clip900)" style="stroke:#000000; stroke-linecap:round; stroke-linejoin:round; stroke-width:4; stroke-opacity:1; fill:none" points="
  175.445,1172.47 194.343,1172.47 
  "/>
<polyline clip-path="url(#clip900)" style="stroke:#000000; stroke-linecap:round; stroke-linejoin:round; stroke-width:4; stroke-opacity:1; fill:none" points="
  175.445,810.369 194.343,810.369 
  "/>
<polyline clip-path="url(#clip900)" style="stroke:#000000; stroke-linecap:round; stroke-linejoin:round; stroke-width:4; stroke-opacity:1; fill:none" points="
  175.445,448.269 194.343,448.269 
  "/>
<polyline clip-path="url(#clip900)" style="stroke:#000000; stroke-linecap:round; stroke-linejoin:round; stroke-width:4; stroke-opacity:1; fill:none" points="
  175.445,86.1694 194.343,86.1694 
  "/>
<path clip-path="url(#clip900)" d="M129.862 1159.26 L118.056 1177.71 L129.862 1177.71 L129.862 1159.26 M128.635 1155.19 L134.515 1155.19 L134.515 1177.71 L139.445 1177.71 L139.445 1181.6 L134.515 1181.6 L134.515 1189.75 L129.862 1189.75 L129.862 1181.6 L114.26 1181.6 L114.26 1177.09 L128.635 1155.19 Z" fill="#000000" fill-rule="evenodd" fill-opacity="1" /><path clip-path="url(#clip900)" d="M118.543 793.089 L136.899 793.089 L136.899 797.024 L122.825 797.024 L122.825 805.496 Q123.843 805.149 124.862 804.987 Q125.88 804.802 126.899 804.802 Q132.686 804.802 136.066 807.973 Q139.445 811.144 139.445 816.561 Q139.445 822.14 135.973 825.242 Q132.501 828.32 126.181 828.32 Q124.005 828.32 121.737 827.95 Q119.492 827.579 117.084 826.839 L117.084 822.14 Q119.168 823.274 121.39 823.829 Q123.612 824.385 126.089 824.385 Q130.093 824.385 132.431 822.279 Q134.769 820.172 134.769 816.561 Q134.769 812.95 132.431 810.843 Q130.093 808.737 126.089 808.737 Q124.214 808.737 122.339 809.154 Q120.487 809.57 118.543 810.45 L118.543 793.089 Z" fill="#000000" fill-rule="evenodd" fill-opacity="1" /><path clip-path="url(#clip900)" d="M127.917 446.406 Q124.769 446.406 122.918 448.558 Q121.089 450.711 121.089 454.461 Q121.089 458.188 122.918 460.364 Q124.769 462.517 127.917 462.517 Q131.066 462.517 132.894 460.364 Q134.746 458.188 134.746 454.461 Q134.746 450.711 132.894 448.558 Q131.066 446.406 127.917 446.406 M137.2 431.753 L137.2 436.012 Q135.441 435.179 133.635 434.739 Q131.853 434.299 130.093 434.299 Q125.464 434.299 123.01 437.424 Q120.58 440.549 120.232 446.869 Q121.598 444.855 123.658 443.79 Q125.718 442.702 128.195 442.702 Q133.404 442.702 136.413 445.873 Q139.445 449.021 139.445 454.461 Q139.445 459.785 136.297 463.003 Q133.149 466.22 127.917 466.22 Q121.922 466.22 118.751 461.637 Q115.58 457.031 115.58 448.304 Q115.58 440.109 119.468 435.248 Q123.357 430.364 129.908 430.364 Q131.667 430.364 133.45 430.711 Q135.255 431.059 137.2 431.753 Z" fill="#000000" fill-rule="evenodd" fill-opacity="1" /><path clip-path="url(#clip900)" d="M117.223 68.8894 L139.445 68.8894 L139.445 70.8801 L126.899 103.449 L122.015 103.449 L133.82 72.8245 L117.223 72.8245 L117.223 68.8894 Z" fill="#000000" fill-rule="evenodd" fill-opacity="1" /><path clip-path="url(#clip900)" d="M35.1993 829.203 Q31.2526 827.007 29.3747 823.951 Q27.4968 820.896 27.4968 816.758 Q27.4968 811.188 31.4117 808.164 Q35.2948 805.141 42.4881 805.141 L64.0042 805.141 L64.0042 811.029 L42.679 811.029 Q37.5546 811.029 35.072 812.843 Q32.5894 814.657 32.5894 818.381 Q32.5894 822.933 35.6131 825.574 Q38.6368 828.216 43.8567 828.216 L64.0042 828.216 L64.0042 834.105 L42.679 834.105 Q37.5228 834.105 35.072 835.919 Q32.5894 837.733 32.5894 841.521 Q32.5894 846.008 35.6449 848.65 Q38.6686 851.292 43.8567 851.292 L64.0042 851.292 L64.0042 857.18 L28.3562 857.18 L28.3562 851.292 L33.8944 851.292 Q30.616 849.287 29.0564 846.486 Q27.4968 843.685 27.4968 839.834 Q27.4968 835.951 29.4702 833.245 Q31.4436 830.508 35.1993 829.203 Z" fill="#000000" fill-rule="evenodd" fill-opacity="1" /><path clip-path="url(#clip900)" d="M28.3562 793.459 L28.3562 787.603 L64.0042 787.603 L64.0042 793.459 L28.3562 793.459 M14.479 793.459 L14.479 787.603 L21.895 787.603 L21.895 793.459 L14.479 793.459 Z" fill="#000000" fill-rule="evenodd" fill-opacity="1" /><path clip-path="url(#clip900)" d="M42.4881 745.717 L64.0042 745.717 L64.0042 751.573 L42.679 751.573 Q37.6183 751.573 35.1038 753.547 Q32.5894 755.52 32.5894 759.467 Q32.5894 764.209 35.6131 766.946 Q38.6368 769.684 43.8567 769.684 L64.0042 769.684 L64.0042 775.572 L28.3562 775.572 L28.3562 769.684 L33.8944 769.684 Q30.6797 767.583 29.0883 764.75 Q27.4968 761.886 27.4968 758.162 Q27.4968 752.019 31.3163 748.868 Q35.1038 745.717 42.4881 745.717 Z" fill="#000000" fill-rule="evenodd" fill-opacity="1" /><path clip-path="url(#clip900)" d="M74.8259 706.95 L79.3773 706.95 L79.3773 740.815 L74.8259 740.815 L74.8259 706.95 Z" fill="#000000" fill-rule="evenodd" fill-opacity="1" /><path clip-path="url(#clip900)" d="M33.7671 677.986 L14.479 677.986 L14.479 672.129 L64.0042 672.129 L64.0042 677.986 L58.657 677.986 Q61.8398 679.832 63.3994 682.664 Q64.9272 685.465 64.9272 689.412 Q64.9272 695.873 59.771 699.947 Q54.6147 703.989 46.212 703.989 Q37.8093 703.989 32.6531 699.947 Q27.4968 695.873 27.4968 689.412 Q27.4968 685.465 29.0564 682.664 Q30.5842 679.832 33.7671 677.986 M46.212 697.942 Q52.6732 697.942 56.3653 695.3 Q60.0256 692.627 60.0256 687.98 Q60.0256 683.333 56.3653 680.659 Q52.6732 677.986 46.212 677.986 Q39.7508 677.986 36.0905 680.659 Q32.3984 683.333 32.3984 687.98 Q32.3984 692.627 36.0905 695.3 Q39.7508 697.942 46.212 697.942 Z" fill="#000000" fill-rule="evenodd" fill-opacity="1" /><path clip-path="url(#clip900)" d="M28.3562 660.066 L28.3562 654.21 L64.0042 654.21 L64.0042 660.066 L28.3562 660.066 M14.479 660.066 L14.479 654.21 L21.895 654.21 L21.895 660.066 L14.479 660.066 Z" fill="#000000" fill-rule="evenodd" fill-opacity="1" /><path clip-path="url(#clip900)" d="M14.479 623.909 L19.3487 623.909 L19.3487 629.511 Q19.3487 632.662 20.6219 633.903 Q21.895 635.113 25.2052 635.113 L28.3562 635.113 L28.3562 625.468 L32.9077 625.468 L32.9077 635.113 L64.0042 635.113 L64.0042 641.001 L32.9077 641.001 L32.9077 646.603 L28.3562 646.603 L28.3562 641.001 L25.8736 641.001 Q19.9216 641.001 17.2162 638.232 Q14.479 635.463 14.479 629.447 L14.479 623.909 Z" fill="#000000" fill-rule="evenodd" fill-opacity="1" /><path clip-path="url(#clip900)" d="M14.479 600.961 L19.3487 600.961 L19.3487 606.562 Q19.3487 609.713 20.6219 610.955 Q21.895 612.164 25.2052 612.164 L28.3562 612.164 L28.3562 602.52 L32.9077 602.52 L32.9077 612.164 L64.0042 612.164 L64.0042 618.052 L32.9077 618.052 L32.9077 623.654 L28.3562 623.654 L28.3562 618.052 L25.8736 618.052 Q19.9216 618.052 17.2162 615.283 Q14.479 612.514 14.479 606.499 L14.479 600.961 Z" fill="#000000" fill-rule="evenodd" fill-opacity="1" /><polyline clip-path="url(#clip902)" style="stroke:#009af9; stroke-linecap:round; stroke-linejoin:round; stroke-width:20; stroke-opacity:1; fill:none" stroke-dasharray="80, 50" points="
  237.067,1193.34 237.067,1243.47 530.505,1297.52 823.943,1347.52 1117.38,1372.3 1410.82,1254.22 1704.26,1045.01 1997.7,831.352 2291.13,85.838 
  "/>
<path clip-path="url(#clip900)" d="
M2010.02 196.379 L2280.18 196.379 L2280.18 92.6992 L2010.02 92.6992  Z
  " fill="#ffffff" fill-rule="evenodd" fill-opacity="1"/>
<polyline clip-path="url(#clip900)" style="stroke:#000000; stroke-linecap:round; stroke-linejoin:round; stroke-width:4; stroke-opacity:1; fill:none" points="
  2010.02,196.379 2280.18,196.379 2280.18,92.6992 2010.02,92.6992 2010.02,196.379 
  "/>
<polyline clip-path="url(#clip900)" style="stroke:#009af9; stroke-linecap:round; stroke-linejoin:round; stroke-width:4; stroke-opacity:1; fill:none" stroke-dasharray="16, 10" points="
  2034.21,144.539 2179.36,144.539 
  "/>
<path clip-path="url(#clip900)" d="M2217.4 164.227 Q2215.59 168.856 2213.88 170.268 Q2212.17 171.68 2209.3 171.68 L2205.89 171.68 L2205.89 168.115 L2208.39 168.115 Q2210.15 168.115 2211.13 167.282 Q2212.1 166.449 2213.28 163.347 L2214.04 161.403 L2203.56 135.893 L2208.07 135.893 L2216.17 156.171 L2224.27 135.893 L2228.79 135.893 L2217.4 164.227 Z" fill="#000000" fill-rule="evenodd" fill-opacity="1" /><path clip-path="url(#clip900)" d="M2236.08 157.884 L2243.72 157.884 L2243.72 131.518 L2235.41 133.185 L2235.41 128.926 L2243.67 127.259 L2248.35 127.259 L2248.35 157.884 L2255.99 157.884 L2255.99 161.819 L2236.08 161.819 L2236.08 157.884 Z" fill="#000000" fill-rule="evenodd" fill-opacity="1" /></svg>
