<?xml version="1.0" encoding="utf-8"?>
<svg xmlns="http://www.w3.org/2000/svg" xmlns:xlink="http://www.w3.org/1999/xlink" width="600" height="400" viewBox="0 0 2400 1600">
<defs>
  <clipPath id="clip400">
    <rect x="0" y="0" width="2400" height="1600"/>
  </clipPath>
</defs>
<path clip-path="url(#clip400)" d="
M0 1600 L2400 1600 L2400 0 L0 0  Z
  " fill="#ffffff" fill-rule="evenodd" fill-opacity="1"/>
<defs>
  <clipPath id="clip401">
    <rect x="480" y="0" width="1681" height="1600"/>
  </clipPath>
</defs>
<path clip-path="url(#clip400)" d="
M235.283 1410.9 L2352.76 1410.9 L2352.76 47.2441 L235.283 47.2441  Z
  " fill="#ffffff" fill-rule="evenodd" fill-opacity="1"/>
<defs>
  <clipPath id="clip402">
    <rect x="235" y="47" width="2118" height="1365"/>
  </clipPath>
</defs>
<polyline clip-path="url(#clip402)" style="stroke:#000000; stroke-linecap:butt; stroke-linejoin:round; stroke-width:2; stroke-opacity:0.1; fill:none" points="
  757.416,1410.9 757.416,47.2441 
  "/>
<polyline clip-path="url(#clip402)" style="stroke:#000000; stroke-linecap:butt; stroke-linejoin:round; stroke-width:2; stroke-opacity:0.1; fill:none" points="
  1525.12,1410.9 1525.12,47.2441 
  "/>
<polyline clip-path="url(#clip402)" style="stroke:#000000; stroke-linecap:butt; stroke-linejoin:round; stroke-width:2; stroke-opacity:0.1; fill:none" points="
  2292.83,1410.9 2292.83,47.2441 
  "/>
<polyline clip-path="url(#clip400)" style="stroke:#000000; stroke-linecap:butt; stroke-linejoin:round; stroke-width:4; stroke-opacity:1; fill:none" points="
  235.283,1410.9 2352.76,1410.9 
  "/>
<polyline clip-path="url(#clip400)" style="stroke:#000000; stroke-linecap:butt; stroke-linejoin:round; stroke-width:4; stroke-opacity:1; fill:none" points="
  757.416,1410.9 757.416,1392 
  "/>
<polyline clip-path="url(#clip400)" style="stroke:#000000; stroke-linecap:butt; stroke-linejoin:round; stroke-width:4; stroke-opacity:1; fill:none" points="
  1525.12,1410.9 1525.12,1392 
  "/>
<polyline clip-path="url(#clip400)" style="stroke:#000000; stroke-linecap:butt; stroke-linejoin:round; stroke-width:4; stroke-opacity:1; fill:none" points="
  2292.83,1410.9 2292.83,1392 
  "/>
<path clip-path="url(#clip400)" d="M704.024 1485.02 L711.663 1485.02 L711.663 1458.66 L703.353 1460.32 L703.353 1456.06 L711.616 1454.4 L716.292 1454.4 L716.292 1485.02 L723.931 1485.02 L723.931 1488.96 L704.024 1488.96 L704.024 1485.02 Z" fill="#000000" fill-rule="evenodd" fill-opacity="1" /><path clip-path="url(#clip400)" d="M743.375 1457.48 Q739.764 1457.48 737.936 1461.04 Q736.13 1464.58 736.13 1471.71 Q736.13 1478.82 737.936 1482.38 Q739.764 1485.92 743.375 1485.92 Q747.01 1485.92 748.815 1482.38 Q750.644 1478.82 750.644 1471.71 Q750.644 1464.58 748.815 1461.04 Q747.01 1457.48 743.375 1457.48 M743.375 1453.77 Q749.186 1453.77 752.241 1458.38 Q755.32 1462.96 755.32 1471.71 Q755.32 1480.44 752.241 1485.04 Q749.186 1489.63 743.375 1489.63 Q737.565 1489.63 734.487 1485.04 Q731.431 1480.44 731.431 1471.71 Q731.431 1462.96 734.487 1458.38 Q737.565 1453.77 743.375 1453.77 Z" fill="#000000" fill-rule="evenodd" fill-opacity="1" /><path clip-path="url(#clip400)" d="M765.025 1435.97 Q762.091 1435.97 760.605 1438.86 Q759.138 1441.74 759.138 1447.53 Q759.138 1453.31 760.605 1456.2 Q762.091 1459.08 765.025 1459.08 Q767.977 1459.08 769.444 1456.2 Q770.93 1453.31 770.93 1447.53 Q770.93 1441.74 769.444 1438.86 Q767.977 1435.97 765.025 1435.97 M765.025 1432.96 Q769.745 1432.96 772.228 1436.7 Q774.729 1440.43 774.729 1447.53 Q774.729 1454.62 772.228 1458.37 Q769.745 1462.09 765.025 1462.09 Q760.304 1462.09 757.802 1458.37 Q755.32 1454.62 755.32 1447.53 Q755.32 1440.43 757.802 1436.7 Q760.304 1432.96 765.025 1432.96 Z" fill="#000000" fill-rule="evenodd" fill-opacity="1" /><path clip-path="url(#clip400)" d="M781.406 1456.77 L785.375 1456.77 L785.375 1461.55 L781.406 1461.55 L781.406 1456.77 Z" fill="#000000" fill-rule="evenodd" fill-opacity="1" /><path clip-path="url(#clip400)" d="M801.775 1435.97 Q798.841 1435.97 797.355 1438.86 Q795.888 1441.74 795.888 1447.53 Q795.888 1453.31 797.355 1456.2 Q798.841 1459.08 801.775 1459.08 Q804.728 1459.08 806.195 1456.2 Q807.681 1453.31 807.681 1447.53 Q807.681 1441.74 806.195 1438.86 Q804.728 1435.97 801.775 1435.97 M801.775 1432.96 Q806.496 1432.96 808.978 1436.7 Q811.48 1440.43 811.48 1447.53 Q811.48 1454.62 808.978 1458.37 Q806.496 1462.09 801.775 1462.09 Q797.054 1462.09 794.553 1458.37 Q792.07 1454.62 792.07 1447.53 Q792.07 1440.43 794.553 1436.7 Q797.054 1432.96 801.775 1432.96 Z" fill="#000000" fill-rule="evenodd" fill-opacity="1" /><path clip-path="url(#clip400)" d="M1472.13 1485.02 L1479.77 1485.02 L1479.77 1458.66 L1471.46 1460.32 L1471.46 1456.06 L1479.73 1454.4 L1484.4 1454.4 L1484.4 1485.02 L1492.04 1485.02 L1492.04 1488.96 L1472.13 1488.96 L1472.13 1485.02 Z" fill="#000000" fill-rule="evenodd" fill-opacity="1" /><path clip-path="url(#clip400)" d="M1511.49 1457.48 Q1507.87 1457.48 1506.05 1461.04 Q1504.24 1464.58 1504.24 1471.71 Q1504.24 1478.82 1506.05 1482.38 Q1507.87 1485.92 1511.49 1485.92 Q1515.12 1485.92 1516.93 1482.38 Q1518.75 1478.82 1518.75 1471.71 Q1518.75 1464.58 1516.93 1461.04 Q1515.12 1457.48 1511.49 1457.48 M1511.49 1453.77 Q1517.3 1453.77 1520.35 1458.38 Q1523.43 1462.96 1523.43 1471.71 Q1523.43 1480.44 1520.35 1485.04 Q1517.3 1489.63 1511.49 1489.63 Q1505.68 1489.63 1502.6 1485.04 Q1499.54 1480.44 1499.54 1471.71 Q1499.54 1462.96 1502.6 1458.38 Q1505.68 1453.77 1511.49 1453.77 Z" fill="#000000" fill-rule="evenodd" fill-opacity="1" /><path clip-path="url(#clip400)" d="M1533.13 1435.97 Q1530.2 1435.97 1528.71 1438.86 Q1527.25 1441.74 1527.25 1447.53 Q1527.25 1453.31 1528.71 1456.2 Q1530.2 1459.08 1533.13 1459.08 Q1536.09 1459.08 1537.55 1456.2 Q1539.04 1453.31 1539.04 1447.53 Q1539.04 1441.74 1537.55 1438.86 Q1536.09 1435.97 1533.13 1435.97 M1533.13 1432.96 Q1537.86 1432.96 1540.34 1436.7 Q1542.84 1440.43 1542.84 1447.53 Q1542.84 1454.62 1540.34 1458.37 Q1537.86 1462.09 1533.13 1462.09 Q1528.41 1462.09 1525.91 1458.37 Q1523.43 1454.62 1523.43 1447.53 Q1523.43 1440.43 1525.91 1436.7 Q1528.41 1432.96 1533.13 1432.96 Z" fill="#000000" fill-rule="evenodd" fill-opacity="1" /><path clip-path="url(#clip400)" d="M1549.52 1456.77 L1553.48 1456.77 L1553.48 1461.55 L1549.52 1461.55 L1549.52 1456.77 Z" fill="#000000" fill-rule="evenodd" fill-opacity="1" /><path clip-path="url(#clip400)" d="M1561.8 1433.47 L1576.71 1433.47 L1576.71 1436.66 L1565.28 1436.66 L1565.28 1443.55 Q1566.1 1443.27 1566.93 1443.13 Q1567.76 1442.98 1568.59 1442.98 Q1573.29 1442.98 1576.04 1445.56 Q1578.78 1448.14 1578.78 1452.54 Q1578.78 1457.07 1575.96 1459.59 Q1573.14 1462.09 1568 1462.09 Q1566.24 1462.09 1564.39 1461.79 Q1562.57 1461.49 1560.61 1460.89 L1560.61 1457.07 Q1562.31 1457.99 1564.11 1458.44 Q1565.92 1458.89 1567.93 1458.89 Q1571.18 1458.89 1573.08 1457.18 Q1574.98 1455.47 1574.98 1452.54 Q1574.98 1449.6 1573.08 1447.89 Q1571.18 1446.18 1567.93 1446.18 Q1566.41 1446.18 1564.88 1446.52 Q1563.38 1446.86 1561.8 1447.57 L1561.8 1433.47 Z" fill="#000000" fill-rule="evenodd" fill-opacity="1" /><path clip-path="url(#clip400)" d="M2240.28 1485.02 L2247.92 1485.02 L2247.92 1458.66 L2239.61 1460.32 L2239.61 1456.06 L2247.87 1454.4 L2252.55 1454.4 L2252.55 1485.02 L2260.19 1485.02 L2260.19 1488.96 L2240.28 1488.96 L2240.28 1485.02 Z" fill="#000000" fill-rule="evenodd" fill-opacity="1" /><path clip-path="url(#clip400)" d="M2279.63 1457.48 Q2276.02 1457.48 2274.19 1461.04 Q2272.39 1464.58 2272.39 1471.71 Q2272.39 1478.82 2274.19 1482.38 Q2276.02 1485.92 2279.63 1485.92 Q2283.27 1485.92 2285.07 1482.38 Q2286.9 1478.82 2286.9 1471.71 Q2286.9 1464.58 2285.07 1461.04 Q2283.27 1457.48 2279.63 1457.48 M2279.63 1453.77 Q2285.44 1453.77 2288.5 1458.38 Q2291.58 1462.96 2291.58 1471.71 Q2291.58 1480.44 2288.5 1485.04 Q2285.44 1489.63 2279.63 1489.63 Q2273.82 1489.63 2270.74 1485.04 Q2267.69 1480.44 2267.69 1471.71 Q2267.69 1462.96 2270.74 1458.38 Q2273.82 1453.77 2279.63 1453.77 Z" fill="#000000" fill-rule="evenodd" fill-opacity="1" /><path clip-path="url(#clip400)" d="M2292.12 1458.35 L2298.33 1458.35 L2298.33 1436.93 L2291.58 1438.28 L2291.58 1434.82 L2298.29 1433.47 L2302.09 1433.47 L2302.09 1458.35 L2308.3 1458.35 L2308.3 1461.55 L2292.12 1461.55 L2292.12 1458.35 Z" fill="#000000" fill-rule="evenodd" fill-opacity="1" /><path clip-path="url(#clip400)" d="M2315.97 1456.77 L2319.94 1456.77 L2319.94 1461.55 L2315.97 1461.55 L2315.97 1456.77 Z" fill="#000000" fill-rule="evenodd" fill-opacity="1" /><path clip-path="url(#clip400)" d="M2336.34 1435.97 Q2333.41 1435.97 2331.92 1438.86 Q2330.45 1441.74 2330.45 1447.53 Q2330.45 1453.31 2331.92 1456.2 Q2333.41 1459.08 2336.34 1459.08 Q2339.29 1459.08 2340.76 1456.2 Q2342.25 1453.31 2342.25 1447.53 Q2342.25 1441.74 2340.76 1438.86 Q2339.29 1435.97 2336.34 1435.97 M2336.34 1432.96 Q2341.06 1432.96 2343.54 1436.7 Q2346.04 1440.43 2346.04 1447.53 Q2346.04 1454.62 2343.54 1458.37 Q2341.06 1462.09 2336.34 1462.09 Q2331.62 1462.09 2329.12 1458.37 Q2326.64 1454.62 2326.64 1447.53 Q2326.64 1440.43 2329.12 1436.7 Q2331.62 1432.96 2336.34 1432.96 Z" fill="#000000" fill-rule="evenodd" fill-opacity="1" /><path clip-path="url(#clip400)" d="M1299.22 1557.6 L1297.82 1550.25 Q1296.39 1542.71 1290.73 1542.71 Q1286.46 1542.71 1284.52 1546.21 Q1282.07 1550.6 1282.07 1556.39 Q1282.07 1563.4 1284.45 1566.74 Q1286.87 1570.14 1290.73 1570.14 Q1294.99 1570.14 1297.28 1563.36 L1299.22 1557.6 M1302.5 1547.86 L1305.65 1538.54 L1310.87 1538.54 L1304.35 1557.86 L1305.62 1564.83 Q1305.91 1566.39 1307.02 1567.69 Q1308.33 1569.22 1309.34 1569.22 L1312.15 1569.22 L1312.15 1574.19 L1308.64 1574.19 Q1305.65 1574.19 1302.98 1571.51 Q1301.67 1570.18 1301.13 1567.37 Q1299.67 1570.91 1296.68 1573.68 Q1295.28 1574.98 1290.73 1574.98 Q1283.25 1574.98 1279.62 1570.14 Q1275.89 1565.15 1275.89 1556.39 Q1275.89 1547.04 1279.94 1542.64 Q1284.42 1537.74 1290.73 1537.74 Q1300.62 1537.74 1302.5 1547.86 Z" fill="#000000" fill-rule="evenodd" fill-opacity="1" /><polyline clip-path="url(#clip402)" style="stroke:#000000; stroke-linecap:butt; stroke-linejoin:round; stroke-width:2; stroke-opacity:0.1; fill:none" points="
  235.283,1380.74 2352.76,1380.74 
  "/>
<polyline clip-path="url(#clip402)" style="stroke:#000000; stroke-linecap:butt; stroke-linejoin:round; stroke-width:2; stroke-opacity:0.1; fill:none" points="
  235.283,1139.42 2352.76,1139.42 
  "/>
<polyline clip-path="url(#clip402)" style="stroke:#000000; stroke-linecap:butt; stroke-linejoin:round; stroke-width:2; stroke-opacity:0.1; fill:none" points="
  235.283,898.107 2352.76,898.107 
  "/>
<polyline clip-path="url(#clip402)" style="stroke:#000000; stroke-linecap:butt; stroke-linejoin:round; stroke-width:2; stroke-opacity:0.1; fill:none" points="
  235.283,656.789 2352.76,656.789 
  "/>
<polyline clip-path="url(#clip402)" style="stroke:#000000; stroke-linecap:butt; stroke-linejoin:round; stroke-width:2; stroke-opacity:0.1; fill:none" points="
  235.283,415.471 2352.76,415.471 
  "/>
<polyline clip-path="url(#clip402)" style="stroke:#000000; stroke-linecap:butt; stroke-linejoin:round; stroke-width:2; stroke-opacity:0.1; fill:none" points="
  235.283,174.153 2352.76,174.153 
  "/>
<polyline clip-path="url(#clip400)" style="stroke:#000000; stroke-linecap:butt; stroke-linejoin:round; stroke-width:4; stroke-opacity:1; fill:none" points="
  235.283,1410.9 235.283,47.2441 
  "/>
<polyline clip-path="url(#clip400)" style="stroke:#000000; stroke-linecap:butt; stroke-linejoin:round; stroke-width:4; stroke-opacity:1; fill:none" points="
  235.283,1380.74 254.18,1380.74 
  "/>
<polyline clip-path="url(#clip400)" style="stroke:#000000; stroke-linecap:butt; stroke-linejoin:round; stroke-width:4; stroke-opacity:1; fill:none" points="
  235.283,1139.42 254.18,1139.42 
  "/>
<polyline clip-path="url(#clip400)" style="stroke:#000000; stroke-linecap:butt; stroke-linejoin:round; stroke-width:4; stroke-opacity:1; fill:none" points="
  235.283,898.107 254.18,898.107 
  "/>
<polyline clip-path="url(#clip400)" style="stroke:#000000; stroke-linecap:butt; stroke-linejoin:round; stroke-width:4; stroke-opacity:1; fill:none" points="
  235.283,656.789 254.18,656.789 
  "/>
<polyline clip-path="url(#clip400)" style="stroke:#000000; stroke-linecap:butt; stroke-linejoin:round; stroke-width:4; stroke-opacity:1; fill:none" points="
  235.283,415.471 254.18,415.471 
  "/>
<polyline clip-path="url(#clip400)" style="stroke:#000000; stroke-linecap:butt; stroke-linejoin:round; stroke-width:4; stroke-opacity:1; fill:none" points="
  235.283,174.153 254.18,174.153 
  "/>
<path clip-path="url(#clip400)" d="M187.338 1366.54 Q183.727 1366.54 181.899 1370.11 Q180.093 1373.65 180.093 1380.78 Q180.093 1387.88 181.899 1391.45 Q183.727 1394.99 187.338 1394.99 Q190.973 1394.99 192.778 1391.45 Q194.607 1387.88 194.607 1380.78 Q194.607 1373.65 192.778 1370.11 Q190.973 1366.54 187.338 1366.54 M187.338 1362.84 Q193.149 1362.84 196.204 1367.44 Q199.283 1372.03 199.283 1380.78 Q199.283 1389.5 196.204 1394.11 Q193.149 1398.69 187.338 1398.69 Q181.528 1398.69 178.45 1394.11 Q175.394 1389.5 175.394 1380.78 Q175.394 1372.03 178.45 1367.44 Q181.528 1362.84 187.338 1362.84 Z" fill="#000000" fill-rule="evenodd" fill-opacity="1" /><path clip-path="url(#clip400)" d="M117.825 1152.77 L125.464 1152.77 L125.464 1126.4 L117.154 1128.07 L117.154 1123.81 L125.418 1122.14 L130.093 1122.14 L130.093 1152.77 L137.732 1152.77 L137.732 1156.7 L117.825 1156.7 L117.825 1152.77 Z" fill="#000000" fill-rule="evenodd" fill-opacity="1" /><path clip-path="url(#clip400)" d="M157.177 1125.22 Q153.566 1125.22 151.737 1128.79 Q149.931 1132.33 149.931 1139.46 Q149.931 1146.57 151.737 1150.13 Q153.566 1153.67 157.177 1153.67 Q160.811 1153.67 162.616 1150.13 Q164.445 1146.57 164.445 1139.46 Q164.445 1132.33 162.616 1128.79 Q160.811 1125.22 157.177 1125.22 M157.177 1121.52 Q162.987 1121.52 166.042 1126.13 Q169.121 1130.71 169.121 1139.46 Q169.121 1148.19 166.042 1152.79 Q162.987 1157.38 157.177 1157.38 Q151.366 1157.38 148.288 1152.79 Q145.232 1148.19 145.232 1139.46 Q145.232 1130.71 148.288 1126.13 Q151.366 1121.52 157.177 1121.52 Z" fill="#000000" fill-rule="evenodd" fill-opacity="1" /><path clip-path="url(#clip400)" d="M187.338 1125.22 Q183.727 1125.22 181.899 1128.79 Q180.093 1132.33 180.093 1139.46 Q180.093 1146.57 181.899 1150.13 Q183.727 1153.67 187.338 1153.67 Q190.973 1153.67 192.778 1150.13 Q194.607 1146.57 194.607 1139.46 Q194.607 1132.33 192.778 1128.79 Q190.973 1125.22 187.338 1125.22 M187.338 1121.52 Q193.149 1121.52 196.204 1126.13 Q199.283 1130.71 199.283 1139.46 Q199.283 1148.19 196.204 1152.79 Q193.149 1157.38 187.338 1157.38 Q181.528 1157.38 178.45 1152.79 Q175.394 1148.19 175.394 1139.46 Q175.394 1130.71 178.45 1126.13 Q181.528 1121.52 187.338 1121.52 Z" fill="#000000" fill-rule="evenodd" fill-opacity="1" /><path clip-path="url(#clip400)" d="M121.043 911.451 L137.362 911.451 L137.362 915.387 L115.418 915.387 L115.418 911.451 Q118.08 908.697 122.663 904.067 Q127.269 899.414 128.45 898.072 Q130.695 895.549 131.575 893.813 Q132.478 892.053 132.478 890.363 Q132.478 887.609 130.533 885.873 Q128.612 884.137 125.51 884.137 Q123.311 884.137 120.857 884.901 Q118.427 885.664 115.649 887.215 L115.649 882.493 Q118.473 881.359 120.927 880.78 Q123.38 880.202 125.418 880.202 Q130.788 880.202 133.982 882.887 Q137.177 885.572 137.177 890.063 Q137.177 892.192 136.367 894.113 Q135.579 896.012 133.473 898.604 Q132.894 899.275 129.792 902.493 Q126.691 905.687 121.043 911.451 Z" fill="#000000" fill-rule="evenodd" fill-opacity="1" /><path clip-path="url(#clip400)" d="M157.177 883.905 Q153.566 883.905 151.737 887.47 Q149.931 891.012 149.931 898.141 Q149.931 905.248 151.737 908.812 Q153.566 912.354 157.177 912.354 Q160.811 912.354 162.616 908.812 Q164.445 905.248 164.445 898.141 Q164.445 891.012 162.616 887.47 Q160.811 883.905 157.177 883.905 M157.177 880.202 Q162.987 880.202 166.042 884.808 Q169.121 889.391 169.121 898.141 Q169.121 906.868 166.042 911.474 Q162.987 916.058 157.177 916.058 Q151.366 916.058 148.288 911.474 Q145.232 906.868 145.232 898.141 Q145.232 889.391 148.288 884.808 Q151.366 880.202 157.177 880.202 Z" fill="#000000" fill-rule="evenodd" fill-opacity="1" /><path clip-path="url(#clip400)" d="M187.338 883.905 Q183.727 883.905 181.899 887.47 Q180.093 891.012 180.093 898.141 Q180.093 905.248 181.899 908.812 Q183.727 912.354 187.338 912.354 Q190.973 912.354 192.778 908.812 Q194.607 905.248 194.607 898.141 Q194.607 891.012 192.778 887.47 Q190.973 883.905 187.338 883.905 M187.338 880.202 Q193.149 880.202 196.204 884.808 Q199.283 889.391 199.283 898.141 Q199.283 906.868 196.204 911.474 Q193.149 916.058 187.338 916.058 Q181.528 916.058 178.45 911.474 Q175.394 906.868 175.394 898.141 Q175.394 889.391 178.45 884.808 Q181.528 880.202 187.338 880.202 Z" fill="#000000" fill-rule="evenodd" fill-opacity="1" /><path clip-path="url(#clip400)" d="M131.181 655.434 Q134.538 656.152 136.413 658.42 Q138.311 660.689 138.311 664.022 Q138.311 669.138 134.792 671.939 Q131.274 674.74 124.793 674.74 Q122.617 674.74 120.302 674.3 Q118.01 673.883 115.556 673.027 L115.556 668.513 Q117.501 669.647 119.816 670.226 Q122.13 670.805 124.654 670.805 Q129.052 670.805 131.343 669.069 Q133.658 667.332 133.658 664.022 Q133.658 660.967 131.505 659.254 Q129.376 657.518 125.556 657.518 L121.529 657.518 L121.529 653.675 L125.742 653.675 Q129.191 653.675 131.019 652.309 Q132.848 650.921 132.848 648.328 Q132.848 645.666 130.95 644.254 Q129.075 642.819 125.556 642.819 Q123.635 642.819 121.436 643.235 Q119.237 643.652 116.598 644.532 L116.598 640.365 Q119.26 639.624 121.575 639.254 Q123.913 638.884 125.973 638.884 Q131.297 638.884 134.399 641.314 Q137.501 643.721 137.501 647.842 Q137.501 650.712 135.857 652.703 Q134.214 654.67 131.181 655.434 Z" fill="#000000" fill-rule="evenodd" fill-opacity="1" /><path clip-path="url(#clip400)" d="M157.177 642.587 Q153.566 642.587 151.737 646.152 Q149.931 649.694 149.931 656.823 Q149.931 663.93 151.737 667.494 Q153.566 671.036 157.177 671.036 Q160.811 671.036 162.616 667.494 Q164.445 663.93 164.445 656.823 Q164.445 649.694 162.616 646.152 Q160.811 642.587 157.177 642.587 M157.177 638.884 Q162.987 638.884 166.042 643.49 Q169.121 648.073 169.121 656.823 Q169.121 665.55 166.042 670.157 Q162.987 674.74 157.177 674.74 Q151.366 674.74 148.288 670.157 Q145.232 665.55 145.232 656.823 Q145.232 648.073 148.288 643.49 Q151.366 638.884 157.177 638.884 Z" fill="#000000" fill-rule="evenodd" fill-opacity="1" /><path clip-path="url(#clip400)" d="M187.338 642.587 Q183.727 642.587 181.899 646.152 Q180.093 649.694 180.093 656.823 Q180.093 663.93 181.899 667.494 Q183.727 671.036 187.338 671.036 Q190.973 671.036 192.778 667.494 Q194.607 663.93 194.607 656.823 Q194.607 649.694 192.778 646.152 Q190.973 642.587 187.338 642.587 M187.338 638.884 Q193.149 638.884 196.204 643.49 Q199.283 648.073 199.283 656.823 Q199.283 665.55 196.204 670.157 Q193.149 674.74 187.338 674.74 Q181.528 674.74 178.45 670.157 Q175.394 665.55 175.394 656.823 Q175.394 648.073 178.45 643.49 Q181.528 638.884 187.338 638.884 Z" fill="#000000" fill-rule="evenodd" fill-opacity="1" /><path clip-path="url(#clip400)" d="M129.862 402.265 L118.056 420.714 L129.862 420.714 L129.862 402.265 M128.635 398.191 L134.515 398.191 L134.515 420.714 L139.445 420.714 L139.445 424.602 L134.515 424.602 L134.515 432.751 L129.862 432.751 L129.862 424.602 L114.26 424.602 L114.26 420.089 L128.635 398.191 Z" fill="#000000" fill-rule="evenodd" fill-opacity="1" /><path clip-path="url(#clip400)" d="M157.177 401.269 Q153.566 401.269 151.737 404.834 Q149.931 408.376 149.931 415.505 Q149.931 422.612 151.737 426.176 Q153.566 429.718 157.177 429.718 Q160.811 429.718 162.616 426.176 Q164.445 422.612 164.445 415.505 Q164.445 408.376 162.616 404.834 Q160.811 401.269 157.177 401.269 M157.177 397.566 Q162.987 397.566 166.042 402.172 Q169.121 406.755 169.121 415.505 Q169.121 424.232 166.042 428.839 Q162.987 433.422 157.177 433.422 Q151.366 433.422 148.288 428.839 Q145.232 424.232 145.232 415.505 Q145.232 406.755 148.288 402.172 Q151.366 397.566 157.177 397.566 Z" fill="#000000" fill-rule="evenodd" fill-opacity="1" /><path clip-path="url(#clip400)" d="M187.338 401.269 Q183.727 401.269 181.899 404.834 Q180.093 408.376 180.093 415.505 Q180.093 422.612 181.899 426.176 Q183.727 429.718 187.338 429.718 Q190.973 429.718 192.778 426.176 Q194.607 422.612 194.607 415.505 Q194.607 408.376 192.778 404.834 Q190.973 401.269 187.338 401.269 M187.338 397.566 Q193.149 397.566 196.204 402.172 Q199.283 406.755 199.283 415.505 Q199.283 424.232 196.204 428.839 Q193.149 433.422 187.338 433.422 Q181.528 433.422 178.45 428.839 Q175.394 424.232 175.394 415.505 Q175.394 406.755 178.45 402.172 Q181.528 397.566 187.338 397.566 Z" fill="#000000" fill-rule="evenodd" fill-opacity="1" /><path clip-path="url(#clip400)" d="M117.061 156.873 L135.417 156.873 L135.417 160.808 L121.343 160.808 L121.343 169.28 Q122.362 168.933 123.38 168.771 Q124.399 168.585 125.418 168.585 Q131.205 168.585 134.584 171.757 Q137.964 174.928 137.964 180.345 Q137.964 185.923 134.492 189.025 Q131.019 192.104 124.7 192.104 Q122.524 192.104 120.255 191.733 Q118.01 191.363 115.603 190.622 L115.603 185.923 Q117.686 187.058 119.908 187.613 Q122.13 188.169 124.607 188.169 Q128.612 188.169 130.95 186.062 Q133.288 183.956 133.288 180.345 Q133.288 176.734 130.95 174.627 Q128.612 172.521 124.607 172.521 Q122.732 172.521 120.857 172.937 Q119.006 173.354 117.061 174.234 L117.061 156.873 Z" fill="#000000" fill-rule="evenodd" fill-opacity="1" /><path clip-path="url(#clip400)" d="M157.177 159.951 Q153.566 159.951 151.737 163.516 Q149.931 167.058 149.931 174.187 Q149.931 181.294 151.737 184.859 Q153.566 188.4 157.177 188.4 Q160.811 188.4 162.616 184.859 Q164.445 181.294 164.445 174.187 Q164.445 167.058 162.616 163.516 Q160.811 159.951 157.177 159.951 M157.177 156.248 Q162.987 156.248 166.042 160.854 Q169.121 165.437 169.121 174.187 Q169.121 182.914 166.042 187.521 Q162.987 192.104 157.177 192.104 Q151.366 192.104 148.288 187.521 Q145.232 182.914 145.232 174.187 Q145.232 165.437 148.288 160.854 Q151.366 156.248 157.177 156.248 Z" fill="#000000" fill-rule="evenodd" fill-opacity="1" /><path clip-path="url(#clip400)" d="M187.338 159.951 Q183.727 159.951 181.899 163.516 Q180.093 167.058 180.093 174.187 Q180.093 181.294 181.899 184.859 Q183.727 188.4 187.338 188.4 Q190.973 188.4 192.778 184.859 Q194.607 181.294 194.607 174.187 Q194.607 167.058 192.778 163.516 Q190.973 159.951 187.338 159.951 M187.338 156.248 Q193.149 156.248 196.204 160.854 Q199.283 165.437 199.283 174.187 Q199.283 182.914 196.204 187.521 Q193.149 192.104 187.338 192.104 Q181.528 192.104 178.45 187.521 Q175.394 182.914 175.394 174.187 Q175.394 165.437 178.45 160.854 Q181.528 156.248 187.338 156.248 Z" fill="#000000" fill-rule="evenodd" fill-opacity="1" /><path clip-path="url(#clip400)" d="M35.1993 829.203 Q31.2526 827.007 29.3747 823.951 Q27.4968 820.896 27.4968 816.758 Q27.4968 811.188 31.4117 808.164 Q35.2948 805.141 42.4881 805.141 L64.0042 805.141 L64.0042 811.029 L42.679 811.029 Q37.5546 811.029 35.072 812.843 Q32.5894 814.657 32.5894 818.381 Q32.5894 822.933 35.6131 825.574 Q38.6368 828.216 43.8567 828.216 L64.0042 828.216 L64.0042 834.105 L42.679 834.105 Q37.5228 834.105 35.072 835.919 Q32.5894 837.733 32.5894 841.521 Q32.5894 846.008 35.6449 848.65 Q38.6686 851.292 43.8567 851.292 L64.0042 851.292 L64.0042 857.18 L28.3562 857.18 L28.3562 851.292 L33.8944 851.292 Q30.616 849.287 29.0564 846.486 Q27.4968 843.685 27.4968 839.834 Q27.4968 835.951 29.4702 833.245 Q31.4436 830.508 35.1993 829.203 Z" fill="#000000" fill-rule="evenodd" fill-opacity="1" /><path clip-path="url(#clip400)" d="M28.3562 793.459 L28.3562 787.603 L64.0042 787.603 L64.0042 793.459 L28.3562 793.459 M14.479 793.459 L14.479 787.603 L21.895 787.603 L21.895 793.459 L14.479 793.459 Z" fill="#000000" fill-rule="evenodd" fill-opacity="1" /><path clip-path="url(#clip400)" d="M42.4881 745.717 L64.0042 745.717 L64.0042 751.573 L42.679 751.573 Q37.6183 751.573 35.1038 753.547 Q32.5894 755.52 32.5894 759.467 Q32.5894 764.209 35.6131 766.946 Q38.6368 769.684 43.8567 769.684 L64.0042 769.684 L64.0042 775.572 L28.3562 775.572 L28.3562 769.684 L33.8944 769.684 Q30.6797 767.583 29.0883 764.75 Q27.4968 761.886 27.4968 758.162 Q27.4968 752.019 31.3163 748.868 Q35.1038 745.717 42.4881 745.717 Z" fill="#000000" fill-rule="evenodd" fill-opacity="1" /><path clip-path="url(#clip400)" d="M74.8259 706.95 L79.3773 706.95 L79.3773 740.815 L74.8259 740.815 L74.8259 706.95 Z" fill="#000000" fill-rule="evenodd" fill-opacity="1" /><path clip-path="url(#clip400)" d="M33.7671 677.986 L14.479 677.986 L14.479 672.129 L64.0042 672.129 L64.0042 677.986 L58.657 677.986 Q61.8398 679.832 63.3994 682.664 Q64.9272 685.465 64.9272 689.412 Q64.9272 695.873 59.771 699.947 Q54.6147 703.989 46.212 703.989 Q37.8093 703.989 32.6531 699.947 Q27.4968 695.873 27.4968 689.412 Q27.4968 685.465 29.0564 682.664 Q30.5842 679.832 33.7671 677.986 M46.212 697.942 Q52.6732 697.942 56.3653 695.3 Q60.0256 692.627 60.0256 687.98 Q60.0256 683.333 56.3653 680.659 Q52.6732 677.986 46.212 677.986 Q39.7508 677.986 36.0905 680.659 Q32.3984 683.333 32.3984 687.98 Q32.3984 692.627 36.0905 695.3 Q39.7508 697.942 46.212 697.942 Z" fill="#000000" fill-rule="evenodd" fill-opacity="1" /><path clip-path="url(#clip400)" d="M28.3562 660.066 L28.3562 654.21 L64.0042 654.21 L64.0042 660.066 L28.3562 660.066 M14.479 660.066 L14.479 654.21 L21.895 654.21 L21.895 660.066 L14.479 660.066 Z" fill="#000000" fill-rule="evenodd" fill-opacity="1" /><path clip-path="url(#clip400)" d="M14.479 623.909 L19.3487 623.909 L19.3487 629.511 Q19.3487 632.662 20.6219 633.903 Q21.895 635.113 25.2052 635.113 L28.3562 635.113 L28.3562 625.468 L32.9077 625.468 L32.9077 635.113 L64.0042 635.113 L64.0042 641.001 L32.9077 641.001 L32.9077 646.603 L28.3562 646.603 L28.3562 641.001 L25.8736 641.001 Q19.9216 641.001 17.2162 638.232 Q14.479 635.463 14.479 629.447 L14.479 623.909 Z" fill="#000000" fill-rule="evenodd" fill-opacity="1" /><path clip-path="url(#clip400)" d="M14.479 600.961 L19.3487 600.961 L19.3487 606.562 Q19.3487 609.713 20.6219 610.955 Q21.895 612.164 25.2052 612.164 L28.3562 612.164 L28.3562 602.52 L32.9077 602.52 L32.9077 612.164 L64.0042 612.164 L64.0042 618.052 L32.9077 618.052 L32.9077 623.654 L28.3562 623.654 L28.3562 618.052 L25.8736 618.052 Q19.9216 618.052 17.2162 615.283 Q14.479 612.514 14.479 606.499 L14.479 600.961 Z" fill="#000000" fill-rule="evenodd" fill-opacity="1" /><polyline clip-path="url(#clip402)" style="stroke:#009af9; stroke-linecap:butt; stroke-linejoin:round; stroke-width:20; stroke-opacity:1; fill:none" stroke-dasharray="80, 50" points="
  295.211,1308.51 757.416,1367.12 1027.79,1372.3 1219.62,1366.8 1368.42,1292.19 1489.99,1194.66 1592.78,1087.11 1681.83,978.307 1760.37,872.788 1830.62,772.634 
  1894.18,678.651 1952.2,590.988 2005.57,509.461 2054.99,433.724 2101,363.516 2144.03,299.771 2184.46,240.513 2222.57,185.343 2258.62,133.896 2292.83,85.838 
  
  "/>
<path clip-path="url(#clip400)" d="
M1994.47 196.379 L2282.17 196.379 L2282.17 92.6992 L1994.47 92.6992  Z
  " fill="#ffffff" fill-rule="evenodd" fill-opacity="1"/>
<polyline clip-path="url(#clip400)" style="stroke:#000000; stroke-linecap:butt; stroke-linejoin:round; stroke-width:4; stroke-opacity:1; fill:none" points="
  1994.47,196.379 2282.17,196.379 2282.17,92.6992 1994.47,92.6992 1994.47,196.379 
  "/>
<polyline clip-path="url(#clip400)" style="stroke:#009af9; stroke-linecap:butt; stroke-linejoin:round; stroke-width:4; stroke-opacity:1; fill:none" stroke-dasharray="16, 10" points="
  2018,144.539 2159.16,144.539 
  "/>
<path clip-path="url(#clip400)" d="M2196.53 164.227 Q2194.73 168.856 2193.01 170.268 Q2191.3 171.68 2188.43 171.68 L2185.03 171.68 L2185.03 168.115 L2187.53 168.115 Q2189.29 168.115 2190.26 167.282 Q2191.23 166.449 2192.41 163.347 L2193.17 161.403 L2182.69 135.893 L2187.2 135.893 L2195.3 156.171 L2203.41 135.893 L2207.92 135.893 L2196.53 164.227 Z" fill="#000000" fill-rule="evenodd" fill-opacity="1" /><path clip-path="url(#clip400)" d="M2215.21 157.884 L2222.85 157.884 L2222.85 131.518 L2214.54 133.185 L2214.54 128.926 L2222.8 127.259 L2227.48 127.259 L2227.48 157.884 L2235.12 157.884 L2235.12 161.819 L2215.21 161.819 L2215.21 157.884 Z" fill="#000000" fill-rule="evenodd" fill-opacity="1" /></svg>
