<?xml version="1.0" encoding="utf-8"?>
<svg xmlns="http://www.w3.org/2000/svg" xmlns:xlink="http://www.w3.org/1999/xlink" width="600" height="400" viewBox="0 0 2400 1600">
<defs>
  <clipPath id="clip770">
    <rect x="0" y="0" width="2400" height="1600"/>
  </clipPath>
</defs>
<path clip-path="url(#clip770)" d="
M0 1600 L2400 1600 L2400 0 L0 0  Z
  " fill="#ffffff" fill-rule="evenodd" fill-opacity="1"/>
<defs>
  <clipPath id="clip771">
    <rect x="480" y="0" width="1681" height="1600"/>
  </clipPath>
</defs>
<path clip-path="url(#clip770)" d="
M236.764 1410.9 L2352.76 1410.9 L2352.76 47.2441 L236.764 47.2441  Z
  " fill="#ffffff" fill-rule="evenodd" fill-opacity="1"/>
<defs>
  <clipPath id="clip772">
    <rect x="236" y="47" width="2117" height="1365"/>
  </clipPath>
</defs>
<polyline clip-path="url(#clip772)" style="stroke:#000000; stroke-width:2; stroke-opacity:0.1; fill:none" points="
  496.273,1410.9 496.273,47.2441 
  "/>
<polyline clip-path="url(#clip772)" style="stroke:#000000; stroke-width:2; stroke-opacity:0.1; fill:none" points="
  895.516,1410.9 895.516,47.2441 
  "/>
<polyline clip-path="url(#clip772)" style="stroke:#000000; stroke-width:2; stroke-opacity:0.1; fill:none" points="
  1294.76,1410.9 1294.76,47.2441 
  "/>
<polyline clip-path="url(#clip772)" style="stroke:#000000; stroke-width:2; stroke-opacity:0.1; fill:none" points="
  1694,1410.9 1694,47.2441 
  "/>
<polyline clip-path="url(#clip772)" style="stroke:#000000; stroke-width:2; stroke-opacity:0.1; fill:none" points="
  2093.25,1410.9 2093.25,47.2441 
  "/>
<polyline clip-path="url(#clip770)" style="stroke:#000000; stroke-width:4; stroke-opacity:1; fill:none" points="
  236.764,1410.9 2352.76,1410.9 
  "/>
<polyline clip-path="url(#clip770)" style="stroke:#000000; stroke-width:4; stroke-opacity:1; fill:none" points="
  496.273,1410.9 496.273,1394.53 
  "/>
<polyline clip-path="url(#clip770)" style="stroke:#000000; stroke-width:4; stroke-opacity:1; fill:none" points="
  895.516,1410.9 895.516,1394.53 
  "/>
<polyline clip-path="url(#clip770)" style="stroke:#000000; stroke-width:4; stroke-opacity:1; fill:none" points="
  1294.76,1410.9 1294.76,1394.53 
  "/>
<polyline clip-path="url(#clip770)" style="stroke:#000000; stroke-width:4; stroke-opacity:1; fill:none" points="
  1694,1410.9 1694,1394.53 
  "/>
<polyline clip-path="url(#clip770)" style="stroke:#000000; stroke-width:4; stroke-opacity:1; fill:none" points="
  2093.25,1410.9 2093.25,1394.53 
  "/>
<path clip-path="url(#clip770)" d="M 0 0 M435.166 1489.17 L442.804 1489.17 L442.804 1462.8 L434.494 1464.47 L434.494 1460.21 L442.758 1458.54 L447.434 1458.54 L447.434 1489.17 L455.073 1489.17 L455.073 1493.1 L435.166 1493.1 L435.166 1489.17 Z" fill="#000000" fill-rule="evenodd" fill-opacity="1" /><path clip-path="url(#clip770)" d="M 0 0 M470.142 1461.62 Q466.531 1461.62 464.702 1465.19 Q462.897 1468.73 462.897 1475.86 Q462.897 1482.97 464.702 1486.53 Q466.531 1490.07 470.142 1490.07 Q473.776 1490.07 475.582 1486.53 Q477.411 1482.97 477.411 1475.86 Q477.411 1468.73 475.582 1465.19 Q473.776 1461.62 470.142 1461.62 M470.142 1457.92 Q475.952 1457.92 479.008 1462.53 Q482.087 1467.11 482.087 1475.86 Q482.087 1484.59 479.008 1489.19 Q475.952 1493.78 470.142 1493.78 Q464.332 1493.78 461.253 1489.19 Q458.198 1484.59 458.198 1475.86 Q458.198 1467.11 461.253 1462.53 Q464.332 1457.92 470.142 1457.92 Z" fill="#000000" fill-rule="evenodd" fill-opacity="1" /><path clip-path="url(#clip770)" d="M 0 0 M482.087 1452.02 L506.198 1452.02 L506.198 1455.22 L482.087 1455.22 L482.087 1452.02 Z" fill="#000000" fill-rule="evenodd" fill-opacity="1" /><path clip-path="url(#clip770)" d="M 0 0 M521.827 1450.55 Q524.555 1451.14 526.078 1452.98 Q527.62 1454.82 527.62 1457.53 Q527.62 1461.69 524.761 1463.96 Q521.903 1466.24 516.636 1466.24 Q514.869 1466.24 512.988 1465.88 Q511.126 1465.54 509.132 1464.85 L509.132 1461.18 Q510.712 1462.1 512.593 1462.57 Q514.474 1463.04 516.524 1463.04 Q520.097 1463.04 521.959 1461.63 Q523.84 1460.22 523.84 1457.53 Q523.84 1455.05 522.091 1453.66 Q520.36 1452.25 517.257 1452.25 L513.985 1452.25 L513.985 1449.12 L517.408 1449.12 Q520.21 1449.12 521.696 1448.01 Q523.182 1446.89 523.182 1444.78 Q523.182 1442.62 521.639 1441.47 Q520.116 1440.3 517.257 1440.3 Q515.696 1440.3 513.909 1440.64 Q512.123 1440.98 509.979 1441.69 L509.979 1438.31 Q512.141 1437.71 514.022 1437.41 Q515.922 1437.11 517.596 1437.11 Q521.921 1437.11 524.442 1439.08 Q526.962 1441.04 526.962 1444.38 Q526.962 1446.72 525.627 1448.33 Q524.291 1449.93 521.827 1450.55 Z" fill="#000000" fill-rule="evenodd" fill-opacity="1" /><path clip-path="url(#clip770)" d="M 0 0 M531.739 1460.92 L535.708 1460.92 L535.708 1465.69 L531.739 1465.69 L531.739 1460.92 Z" fill="#000000" fill-rule="evenodd" fill-opacity="1" /><path clip-path="url(#clip770)" d="M 0 0 M550.265 1440.92 L540.673 1455.91 L550.265 1455.91 L550.265 1440.92 M549.268 1437.61 L554.045 1437.61 L554.045 1455.91 L558.051 1455.91 L558.051 1459.07 L554.045 1459.07 L554.045 1465.69 L550.265 1465.69 L550.265 1459.07 L537.588 1459.07 L537.588 1455.41 L549.268 1437.61 Z" fill="#000000" fill-rule="evenodd" fill-opacity="1" /><path clip-path="url(#clip770)" d="M 0 0 M835.256 1489.17 L842.894 1489.17 L842.894 1462.8 L834.584 1464.47 L834.584 1460.21 L842.848 1458.54 L847.524 1458.54 L847.524 1489.17 L855.163 1489.17 L855.163 1493.1 L835.256 1493.1 L835.256 1489.17 Z" fill="#000000" fill-rule="evenodd" fill-opacity="1" /><path clip-path="url(#clip770)" d="M 0 0 M870.232 1461.62 Q866.621 1461.62 864.792 1465.19 Q862.987 1468.73 862.987 1475.86 Q862.987 1482.97 864.792 1486.53 Q866.621 1490.07 870.232 1490.07 Q873.867 1490.07 875.672 1486.53 Q877.501 1482.97 877.501 1475.86 Q877.501 1468.73 875.672 1465.19 Q873.867 1461.62 870.232 1461.62 M870.232 1457.92 Q876.042 1457.92 879.098 1462.53 Q882.177 1467.11 882.177 1475.86 Q882.177 1484.59 879.098 1489.19 Q876.042 1493.78 870.232 1493.78 Q864.422 1493.78 861.343 1489.19 Q858.288 1484.59 858.288 1475.86 Q858.288 1467.11 861.343 1462.53 Q864.422 1457.92 870.232 1457.92 Z" fill="#000000" fill-rule="evenodd" fill-opacity="1" /><path clip-path="url(#clip770)" d="M 0 0 M882.177 1452.02 L906.288 1452.02 L906.288 1455.22 L882.177 1455.22 L882.177 1452.02 Z" fill="#000000" fill-rule="evenodd" fill-opacity="1" /><path clip-path="url(#clip770)" d="M 0 0 M921.917 1450.55 Q924.645 1451.14 926.168 1452.98 Q927.71 1454.82 927.71 1457.53 Q927.71 1461.69 924.851 1463.96 Q921.993 1466.24 916.727 1466.24 Q914.959 1466.24 913.078 1465.88 Q911.216 1465.54 909.222 1464.85 L909.222 1461.18 Q910.802 1462.1 912.683 1462.57 Q914.564 1463.04 916.614 1463.04 Q920.187 1463.04 922.049 1461.63 Q923.93 1460.22 923.93 1457.53 Q923.93 1455.05 922.181 1453.66 Q920.45 1452.25 917.347 1452.25 L914.075 1452.25 L914.075 1449.12 L917.498 1449.12 Q920.3 1449.12 921.786 1448.01 Q923.272 1446.89 923.272 1444.78 Q923.272 1442.62 921.729 1441.47 Q920.206 1440.3 917.347 1440.3 Q915.786 1440.3 913.999 1440.64 Q912.213 1440.98 910.069 1441.69 L910.069 1438.31 Q912.231 1437.71 914.112 1437.41 Q916.012 1437.11 917.686 1437.11 Q922.012 1437.11 924.532 1439.08 Q927.052 1441.04 927.052 1444.38 Q927.052 1446.72 925.717 1448.33 Q924.381 1449.93 921.917 1450.55 Z" fill="#000000" fill-rule="evenodd" fill-opacity="1" /><path clip-path="url(#clip770)" d="M 0 0 M931.829 1460.92 L935.798 1460.92 L935.798 1465.69 L931.829 1465.69 L931.829 1460.92 Z" fill="#000000" fill-rule="evenodd" fill-opacity="1" /><path clip-path="url(#clip770)" d="M 0 0 M943.189 1462.5 L956.449 1462.5 L956.449 1465.69 L938.619 1465.69 L938.619 1462.5 Q940.782 1460.26 944.506 1456.5 Q948.248 1452.72 949.208 1451.63 Q951.032 1449.58 951.747 1448.16 Q952.48 1446.74 952.48 1445.36 Q952.48 1443.12 950.9 1441.71 Q949.339 1440.3 946.819 1440.3 Q945.032 1440.3 943.039 1440.92 Q941.064 1441.54 938.807 1442.8 L938.807 1438.97 Q941.101 1438.05 943.095 1437.58 Q945.089 1437.11 946.744 1437.11 Q951.107 1437.11 953.703 1439.29 Q956.298 1441.47 956.298 1445.12 Q956.298 1446.85 955.64 1448.41 Q955 1449.95 953.289 1452.06 Q952.819 1452.6 950.298 1455.22 Q947.778 1457.81 943.189 1462.5 Z" fill="#000000" fill-rule="evenodd" fill-opacity="1" /><path clip-path="url(#clip770)" d="M 0 0 M1233.85 1489.17 L1241.49 1489.17 L1241.49 1462.8 L1233.18 1464.47 L1233.18 1460.21 L1241.44 1458.54 L1246.12 1458.54 L1246.12 1489.17 L1253.76 1489.17 L1253.76 1493.1 L1233.85 1493.1 L1233.85 1489.17 Z" fill="#000000" fill-rule="evenodd" fill-opacity="1" /><path clip-path="url(#clip770)" d="M 0 0 M1268.83 1461.62 Q1265.22 1461.62 1263.39 1465.19 Q1261.58 1468.73 1261.58 1475.86 Q1261.58 1482.97 1263.39 1486.53 Q1265.22 1490.07 1268.83 1490.07 Q1272.46 1490.07 1274.27 1486.53 Q1276.1 1482.97 1276.1 1475.86 Q1276.1 1468.73 1274.27 1465.19 Q1272.46 1461.62 1268.83 1461.62 M1268.83 1457.92 Q1274.64 1457.92 1277.69 1462.53 Q1280.77 1467.11 1280.77 1475.86 Q1280.77 1484.59 1277.69 1489.19 Q1274.64 1493.78 1268.83 1493.78 Q1263.02 1493.78 1259.94 1489.19 Q1256.88 1484.59 1256.88 1475.86 Q1256.88 1467.11 1259.94 1462.53 Q1263.02 1457.92 1268.83 1457.92 Z" fill="#000000" fill-rule="evenodd" fill-opacity="1" /><path clip-path="url(#clip770)" d="M 0 0 M1280.77 1452.02 L1304.88 1452.02 L1304.88 1455.22 L1280.77 1455.22 L1280.77 1452.02 Z" fill="#000000" fill-rule="evenodd" fill-opacity="1" /><path clip-path="url(#clip770)" d="M 0 0 M1320.51 1450.55 Q1323.24 1451.14 1324.76 1452.98 Q1326.31 1454.82 1326.31 1457.53 Q1326.31 1461.69 1323.45 1463.96 Q1320.59 1466.24 1315.32 1466.24 Q1313.55 1466.24 1311.67 1465.88 Q1309.81 1465.54 1307.82 1464.85 L1307.82 1461.18 Q1309.4 1462.1 1311.28 1462.57 Q1313.16 1463.04 1315.21 1463.04 Q1318.78 1463.04 1320.64 1461.63 Q1322.52 1460.22 1322.52 1457.53 Q1322.52 1455.05 1320.78 1453.66 Q1319.05 1452.25 1315.94 1452.25 L1312.67 1452.25 L1312.67 1449.12 L1316.09 1449.12 Q1318.89 1449.12 1320.38 1448.01 Q1321.87 1446.89 1321.87 1444.78 Q1321.87 1442.62 1320.32 1441.47 Q1318.8 1440.3 1315.94 1440.3 Q1314.38 1440.3 1312.59 1440.64 Q1310.81 1440.98 1308.66 1441.69 L1308.66 1438.31 Q1310.83 1437.71 1312.71 1437.41 Q1314.61 1437.11 1316.28 1437.11 Q1320.61 1437.11 1323.13 1439.08 Q1325.65 1441.04 1325.65 1444.38 Q1325.65 1446.72 1324.31 1448.33 Q1322.98 1449.93 1320.51 1450.55 Z" fill="#000000" fill-rule="evenodd" fill-opacity="1" /><path clip-path="url(#clip770)" d="M 0 0 M1330.42 1460.92 L1334.39 1460.92 L1334.39 1465.69 L1330.42 1465.69 L1330.42 1460.92 Z" fill="#000000" fill-rule="evenodd" fill-opacity="1" /><path clip-path="url(#clip770)" d="M 0 0 M1346.64 1440.11 Q1343.7 1440.11 1342.22 1443.01 Q1340.75 1445.89 1340.75 1451.68 Q1340.75 1457.46 1342.22 1460.35 Q1343.7 1463.23 1346.64 1463.23 Q1349.59 1463.23 1351.06 1460.35 Q1352.54 1457.46 1352.54 1451.68 Q1352.54 1445.89 1351.06 1443.01 Q1349.59 1440.11 1346.64 1440.11 M1346.64 1437.11 Q1351.36 1437.11 1353.84 1440.85 Q1356.34 1444.57 1356.34 1451.68 Q1356.34 1458.77 1353.84 1462.51 Q1351.36 1466.24 1346.64 1466.24 Q1341.92 1466.24 1339.41 1462.51 Q1336.93 1458.77 1336.93 1451.68 Q1336.93 1444.57 1339.41 1440.85 Q1341.92 1437.11 1346.64 1437.11 Z" fill="#000000" fill-rule="evenodd" fill-opacity="1" /><path clip-path="url(#clip770)" d="M 0 0 M1633.52 1489.17 L1641.16 1489.17 L1641.16 1462.8 L1632.85 1464.47 L1632.85 1460.21 L1641.11 1458.54 L1645.79 1458.54 L1645.79 1489.17 L1653.42 1489.17 L1653.42 1493.1 L1633.52 1493.1 L1633.52 1489.17 Z" fill="#000000" fill-rule="evenodd" fill-opacity="1" /><path clip-path="url(#clip770)" d="M 0 0 M1668.49 1461.62 Q1664.88 1461.62 1663.05 1465.19 Q1661.25 1468.73 1661.25 1475.86 Q1661.25 1482.97 1663.05 1486.53 Q1664.88 1490.07 1668.49 1490.07 Q1672.13 1490.07 1673.93 1486.53 Q1675.76 1482.97 1675.76 1475.86 Q1675.76 1468.73 1673.93 1465.19 Q1672.13 1461.62 1668.49 1461.62 M1668.49 1457.92 Q1674.3 1457.92 1677.36 1462.53 Q1680.44 1467.11 1680.44 1475.86 Q1680.44 1484.59 1677.36 1489.19 Q1674.3 1493.78 1668.49 1493.78 Q1662.68 1493.78 1659.61 1489.19 Q1656.55 1484.59 1656.55 1475.86 Q1656.55 1467.11 1659.61 1462.53 Q1662.68 1457.92 1668.49 1457.92 Z" fill="#000000" fill-rule="evenodd" fill-opacity="1" /><path clip-path="url(#clip770)" d="M 0 0 M1680.44 1452.02 L1704.55 1452.02 L1704.55 1455.22 L1680.44 1455.22 L1680.44 1452.02 Z" fill="#000000" fill-rule="evenodd" fill-opacity="1" /><path clip-path="url(#clip770)" d="M 0 0 M1711.94 1462.5 L1725.2 1462.5 L1725.2 1465.69 L1707.37 1465.69 L1707.37 1462.5 Q1709.53 1460.26 1713.26 1456.5 Q1717 1452.72 1717.96 1451.63 Q1719.78 1449.58 1720.5 1448.16 Q1721.23 1446.74 1721.23 1445.36 Q1721.23 1443.12 1719.65 1441.71 Q1718.09 1440.3 1715.57 1440.3 Q1713.78 1440.3 1711.79 1440.92 Q1709.82 1441.54 1707.56 1442.8 L1707.56 1438.97 Q1709.85 1438.05 1711.85 1437.58 Q1713.84 1437.11 1715.5 1437.11 Q1719.86 1437.11 1722.45 1439.29 Q1725.05 1441.47 1725.05 1445.12 Q1725.05 1446.85 1724.39 1448.41 Q1723.75 1449.95 1722.04 1452.06 Q1721.57 1452.6 1719.05 1455.22 Q1716.53 1457.81 1711.94 1462.5 Z" fill="#000000" fill-rule="evenodd" fill-opacity="1" /><path clip-path="url(#clip770)" d="M 0 0 M1729.32 1460.92 L1733.29 1460.92 L1733.29 1465.69 L1729.32 1465.69 L1729.32 1460.92 Z" fill="#000000" fill-rule="evenodd" fill-opacity="1" /><path clip-path="url(#clip770)" d="M 0 0 M1745.53 1452.36 Q1742.82 1452.36 1741.26 1453.81 Q1739.72 1455.26 1739.72 1457.79 Q1739.72 1460.33 1741.26 1461.78 Q1742.82 1463.23 1745.53 1463.23 Q1748.24 1463.23 1749.8 1461.78 Q1751.36 1460.31 1751.36 1457.79 Q1751.36 1455.26 1749.8 1453.81 Q1748.26 1452.36 1745.53 1452.36 M1741.73 1450.74 Q1739.29 1450.14 1737.91 1448.47 Q1736.56 1446.79 1736.56 1444.38 Q1736.56 1441.02 1738.95 1439.06 Q1741.36 1437.11 1745.53 1437.11 Q1749.73 1437.11 1752.11 1439.06 Q1754.5 1441.02 1754.5 1444.38 Q1754.5 1446.79 1753.13 1448.47 Q1751.78 1450.14 1749.35 1450.74 Q1752.1 1451.38 1753.62 1453.24 Q1755.16 1455.1 1755.16 1457.79 Q1755.16 1461.88 1752.66 1464.06 Q1750.18 1466.24 1745.53 1466.24 Q1740.89 1466.24 1738.39 1464.06 Q1735.9 1461.88 1735.9 1457.79 Q1735.9 1455.1 1737.44 1453.24 Q1738.99 1451.38 1741.73 1450.74 M1740.34 1444.74 Q1740.34 1446.92 1741.7 1448.15 Q1743.07 1449.37 1745.53 1449.37 Q1747.98 1449.37 1749.35 1448.15 Q1750.74 1446.92 1750.74 1444.74 Q1750.74 1442.56 1749.35 1441.34 Q1747.98 1440.11 1745.53 1440.11 Q1743.07 1440.11 1741.7 1441.34 Q1740.34 1442.56 1740.34 1444.74 Z" fill="#000000" fill-rule="evenodd" fill-opacity="1" /><path clip-path="url(#clip770)" d="M 0 0 M2032.66 1489.17 L2040.3 1489.17 L2040.3 1462.8 L2031.99 1464.47 L2031.99 1460.21 L2040.25 1458.54 L2044.93 1458.54 L2044.93 1489.17 L2052.56 1489.17 L2052.56 1493.1 L2032.66 1493.1 L2032.66 1489.17 Z" fill="#000000" fill-rule="evenodd" fill-opacity="1" /><path clip-path="url(#clip770)" d="M 0 0 M2067.63 1461.62 Q2064.02 1461.62 2062.19 1465.19 Q2060.39 1468.73 2060.39 1475.86 Q2060.39 1482.97 2062.19 1486.53 Q2064.02 1490.07 2067.63 1490.07 Q2071.27 1490.07 2073.07 1486.53 Q2074.9 1482.97 2074.9 1475.86 Q2074.9 1468.73 2073.07 1465.19 Q2071.27 1461.62 2067.63 1461.62 M2067.63 1457.92 Q2073.44 1457.92 2076.5 1462.53 Q2079.58 1467.11 2079.58 1475.86 Q2079.58 1484.59 2076.5 1489.19 Q2073.44 1493.78 2067.63 1493.78 Q2061.82 1493.78 2058.75 1489.19 Q2055.69 1484.59 2055.69 1475.86 Q2055.69 1467.11 2058.75 1462.53 Q2061.82 1457.92 2067.63 1457.92 Z" fill="#000000" fill-rule="evenodd" fill-opacity="1" /><path clip-path="url(#clip770)" d="M 0 0 M2079.58 1452.02 L2103.69 1452.02 L2103.69 1455.22 L2079.58 1455.22 L2079.58 1452.02 Z" fill="#000000" fill-rule="evenodd" fill-opacity="1" /><path clip-path="url(#clip770)" d="M 0 0 M2111.08 1462.5 L2124.34 1462.5 L2124.34 1465.69 L2106.51 1465.69 L2106.51 1462.5 Q2108.67 1460.26 2112.4 1456.5 Q2116.14 1452.72 2117.1 1451.63 Q2118.92 1449.58 2119.64 1448.16 Q2120.37 1446.74 2120.37 1445.36 Q2120.37 1443.12 2118.79 1441.71 Q2117.23 1440.3 2114.71 1440.3 Q2112.92 1440.3 2110.93 1440.92 Q2108.96 1441.54 2106.7 1442.8 L2106.7 1438.97 Q2108.99 1438.05 2110.99 1437.58 Q2112.98 1437.11 2114.64 1437.11 Q2119 1437.11 2121.6 1439.29 Q2124.19 1441.47 2124.19 1445.12 Q2124.19 1446.85 2123.53 1448.41 Q2122.89 1449.95 2121.18 1452.06 Q2120.71 1452.6 2118.19 1455.22 Q2115.67 1457.81 2111.08 1462.5 Z" fill="#000000" fill-rule="evenodd" fill-opacity="1" /><path clip-path="url(#clip770)" d="M 0 0 M2128.46 1460.92 L2132.43 1460.92 L2132.43 1465.69 L2128.46 1465.69 L2128.46 1460.92 Z" fill="#000000" fill-rule="evenodd" fill-opacity="1" /><path clip-path="url(#clip770)" d="M 0 0 M2145.14 1450.14 Q2142.58 1450.14 2141.08 1451.89 Q2139.59 1453.64 2139.59 1456.68 Q2139.59 1459.71 2141.08 1461.48 Q2142.58 1463.23 2145.14 1463.23 Q2147.7 1463.23 2149.19 1461.48 Q2150.69 1459.71 2150.69 1456.68 Q2150.69 1453.64 2149.19 1451.89 Q2147.7 1450.14 2145.14 1450.14 M2152.68 1438.23 L2152.68 1441.69 Q2151.26 1441.02 2149.79 1440.66 Q2148.34 1440.3 2146.91 1440.3 Q2143.15 1440.3 2141.16 1442.84 Q2139.18 1445.38 2138.9 1450.52 Q2140.01 1448.88 2141.68 1448.01 Q2143.36 1447.13 2145.37 1447.13 Q2149.6 1447.13 2152.04 1449.71 Q2154.51 1452.26 2154.51 1456.68 Q2154.51 1461.01 2151.95 1463.62 Q2149.39 1466.24 2145.14 1466.24 Q2140.27 1466.24 2137.69 1462.51 Q2135.12 1458.77 2135.12 1451.68 Q2135.12 1445.02 2138.28 1441.07 Q2141.44 1437.11 2146.76 1437.11 Q2148.19 1437.11 2149.64 1437.39 Q2151.1 1437.67 2152.68 1438.23 Z" fill="#000000" fill-rule="evenodd" fill-opacity="1" /><path clip-path="url(#clip770)" d="M 0 0 M1187.04 1526.54 L1193.24 1526.54 L1204.38 1556.46 L1215.52 1526.54 L1221.73 1526.54 L1208.36 1562.19 L1200.4 1562.19 L1187.04 1526.54 Z" fill="#000000" fill-rule="evenodd" fill-opacity="1" /><path clip-path="url(#clip770)" d="M 0 0 M1254.96 1573.01 L1254.96 1577.56 L1221.09 1577.56 L1221.09 1573.01 L1254.96 1573.01 Z" fill="#000000" fill-rule="evenodd" fill-opacity="1" /><path clip-path="url(#clip770)" d="M 0 0 M1286.76 1527.91 L1286.76 1533.38 Q1284.27 1532.01 1281.76 1531.34 Q1279.28 1530.64 1276.73 1530.64 Q1271.03 1530.64 1267.88 1534.27 Q1264.73 1537.87 1264.73 1544.39 Q1264.73 1550.92 1267.88 1554.55 Q1271.03 1558.14 1276.73 1558.14 Q1279.28 1558.14 1281.76 1557.47 Q1284.27 1556.77 1286.76 1555.41 L1286.76 1560.82 Q1284.3 1561.96 1281.66 1562.54 Q1279.05 1563.11 1276.09 1563.11 Q1268.04 1563.11 1263.3 1558.05 Q1258.56 1552.99 1258.56 1544.39 Q1258.56 1535.67 1263.33 1530.68 Q1268.14 1525.68 1276.47 1525.68 Q1279.18 1525.68 1281.76 1526.25 Q1284.34 1526.79 1286.76 1527.91 Z" fill="#000000" fill-rule="evenodd" fill-opacity="1" /><path clip-path="url(#clip770)" d="M 0 0 M1292.9 1512.66 L1298.75 1512.66 L1298.75 1562.19 L1292.9 1562.19 L1292.9 1512.66 Z" fill="#000000" fill-rule="evenodd" fill-opacity="1" /><path clip-path="url(#clip770)" d="M 0 0 M1318.71 1530.64 Q1314 1530.64 1311.26 1534.34 Q1308.53 1538 1308.53 1544.39 Q1308.53 1550.79 1311.23 1554.48 Q1313.97 1558.14 1318.71 1558.14 Q1323.39 1558.14 1326.13 1554.45 Q1328.86 1550.76 1328.86 1544.39 Q1328.86 1538.06 1326.13 1534.37 Q1323.39 1530.64 1318.71 1530.64 M1318.71 1525.68 Q1326.35 1525.68 1330.71 1530.64 Q1335.07 1535.61 1335.07 1544.39 Q1335.07 1553.15 1330.71 1558.14 Q1326.35 1563.11 1318.71 1563.11 Q1311.04 1563.11 1306.68 1558.14 Q1302.35 1553.15 1302.35 1544.39 Q1302.35 1535.61 1306.68 1530.64 Q1311.04 1525.68 1318.71 1525.68 Z" fill="#000000" fill-rule="evenodd" fill-opacity="1" /><path clip-path="url(#clip770)" d="M 0 0 M1363.94 1527.59 L1363.94 1533.13 Q1361.46 1531.85 1358.78 1531.22 Q1356.11 1530.58 1353.25 1530.58 Q1348.88 1530.58 1346.69 1531.92 Q1344.52 1533.25 1344.52 1535.93 Q1344.52 1537.96 1346.08 1539.14 Q1347.64 1540.29 1352.35 1541.34 L1354.36 1541.78 Q1360.6 1543.12 1363.21 1545.57 Q1365.85 1547.99 1365.85 1552.35 Q1365.85 1557.32 1361.9 1560.21 Q1357.99 1563.11 1351.11 1563.11 Q1348.25 1563.11 1345.13 1562.54 Q1342.04 1561.99 1338.6 1560.88 L1338.6 1554.83 Q1341.85 1556.52 1345 1557.38 Q1348.15 1558.21 1351.24 1558.21 Q1355.38 1558.21 1357.61 1556.81 Q1359.83 1555.37 1359.83 1552.8 Q1359.83 1550.41 1358.21 1549.14 Q1356.62 1547.86 1351.18 1546.68 L1349.14 1546.21 Q1343.7 1545.06 1341.28 1542.71 Q1338.86 1540.32 1338.86 1536.18 Q1338.86 1531.15 1342.42 1528.42 Q1345.99 1525.68 1352.54 1525.68 Q1355.79 1525.68 1358.66 1526.16 Q1361.52 1526.63 1363.94 1527.59 Z" fill="#000000" fill-rule="evenodd" fill-opacity="1" /><path clip-path="url(#clip770)" d="M 0 0 M1402.48 1542.9 L1402.48 1545.76 L1375.56 1545.76 Q1375.94 1551.81 1379.19 1554.99 Q1382.46 1558.14 1388.29 1558.14 Q1391.66 1558.14 1394.81 1557.32 Q1398 1556.49 1401.12 1554.83 L1401.12 1560.37 Q1397.96 1561.71 1394.65 1562.41 Q1391.34 1563.11 1387.94 1563.11 Q1379.41 1563.11 1374.41 1558.14 Q1369.45 1553.18 1369.45 1544.71 Q1369.45 1535.96 1374.16 1530.83 Q1378.9 1525.68 1386.92 1525.68 Q1394.11 1525.68 1398.28 1530.33 Q1402.48 1534.94 1402.48 1542.9 M1396.63 1541.18 Q1396.56 1536.37 1393.92 1533.51 Q1391.31 1530.64 1386.98 1530.64 Q1382.08 1530.64 1379.12 1533.41 Q1376.19 1536.18 1375.75 1541.21 L1396.63 1541.18 Z" fill="#000000" fill-rule="evenodd" fill-opacity="1" /><polyline clip-path="url(#clip772)" style="stroke:#000000; stroke-width:2; stroke-opacity:0.1; fill:none" points="
  236.764,1346.59 2352.76,1346.59 
  "/>
<polyline clip-path="url(#clip772)" style="stroke:#000000; stroke-width:2; stroke-opacity:0.1; fill:none" points="
  236.764,1117.52 2352.76,1117.52 
  "/>
<polyline clip-path="url(#clip772)" style="stroke:#000000; stroke-width:2; stroke-opacity:0.1; fill:none" points="
  236.764,888.449 2352.76,888.449 
  "/>
<polyline clip-path="url(#clip772)" style="stroke:#000000; stroke-width:2; stroke-opacity:0.1; fill:none" points="
  236.764,659.378 2352.76,659.378 
  "/>
<polyline clip-path="url(#clip772)" style="stroke:#000000; stroke-width:2; stroke-opacity:0.1; fill:none" points="
  236.764,430.308 2352.76,430.308 
  "/>
<polyline clip-path="url(#clip772)" style="stroke:#000000; stroke-width:2; stroke-opacity:0.1; fill:none" points="
  236.764,201.238 2352.76,201.238 
  "/>
<polyline clip-path="url(#clip770)" style="stroke:#000000; stroke-width:4; stroke-opacity:1; fill:none" points="
  236.764,1410.9 236.764,47.2441 
  "/>
<polyline clip-path="url(#clip770)" style="stroke:#000000; stroke-width:4; stroke-opacity:1; fill:none" points="
  236.764,1346.59 262.156,1346.59 
  "/>
<polyline clip-path="url(#clip770)" style="stroke:#000000; stroke-width:4; stroke-opacity:1; fill:none" points="
  236.764,1117.52 262.156,1117.52 
  "/>
<polyline clip-path="url(#clip770)" style="stroke:#000000; stroke-width:4; stroke-opacity:1; fill:none" points="
  236.764,888.449 262.156,888.449 
  "/>
<polyline clip-path="url(#clip770)" style="stroke:#000000; stroke-width:4; stroke-opacity:1; fill:none" points="
  236.764,659.378 262.156,659.378 
  "/>
<polyline clip-path="url(#clip770)" style="stroke:#000000; stroke-width:4; stroke-opacity:1; fill:none" points="
  236.764,430.308 262.156,430.308 
  "/>
<polyline clip-path="url(#clip770)" style="stroke:#000000; stroke-width:4; stroke-opacity:1; fill:none" points="
  236.764,201.238 262.156,201.238 
  "/>
<path clip-path="url(#clip770)" d="M 0 0 M116.39 1329.31 L134.746 1329.31 L134.746 1333.24 L120.672 1333.24 L120.672 1341.72 Q121.691 1341.37 122.709 1341.21 Q123.728 1341.02 124.746 1341.02 Q130.533 1341.02 133.913 1344.19 Q137.292 1347.36 137.292 1352.78 Q137.292 1358.36 133.82 1361.46 Q130.348 1364.54 124.029 1364.54 Q121.853 1364.54 119.584 1364.17 Q117.339 1363.8 114.931 1363.06 L114.931 1358.36 Q117.015 1359.49 119.237 1360.05 Q121.459 1360.61 123.936 1360.61 Q127.941 1360.61 130.279 1358.5 Q132.617 1356.39 132.617 1352.78 Q132.617 1349.17 130.279 1347.06 Q127.941 1344.96 123.936 1344.96 Q122.061 1344.96 120.186 1345.37 Q118.334 1345.79 116.39 1346.67 L116.39 1329.31 Z" fill="#000000" fill-rule="evenodd" fill-opacity="1" /><path clip-path="url(#clip770)" d="M 0 0 M142.362 1357.99 L147.246 1357.99 L147.246 1363.87 L142.362 1363.87 L142.362 1357.99 Z" fill="#000000" fill-rule="evenodd" fill-opacity="1" /><path clip-path="url(#clip770)" d="M 0 0 M165.163 1333.38 L153.357 1351.83 L165.163 1351.83 L165.163 1333.38 M163.936 1329.31 L169.815 1329.31 L169.815 1351.83 L174.746 1351.83 L174.746 1355.72 L169.815 1355.72 L169.815 1363.87 L165.163 1363.87 L165.163 1355.72 L149.561 1355.72 L149.561 1351.21 L163.936 1329.31 Z" fill="#000000" fill-rule="evenodd" fill-opacity="1" /><path clip-path="url(#clip770)" d="M 0 0 M179.862 1329.31 L198.218 1329.31 L198.218 1333.24 L184.144 1333.24 L184.144 1341.72 Q185.163 1341.37 186.181 1341.21 Q187.2 1341.02 188.218 1341.02 Q194.005 1341.02 197.385 1344.19 Q200.764 1347.36 200.764 1352.78 Q200.764 1358.36 197.292 1361.46 Q193.82 1364.54 187.501 1364.54 Q185.325 1364.54 183.056 1364.17 Q180.811 1363.8 178.403 1363.06 L178.403 1358.36 Q180.487 1359.49 182.709 1360.05 Q184.931 1360.61 187.408 1360.61 Q191.413 1360.61 193.75 1358.5 Q196.088 1356.39 196.088 1352.78 Q196.088 1349.17 193.75 1347.06 Q191.413 1344.96 187.408 1344.96 Q185.533 1344.96 183.658 1345.37 Q181.806 1345.79 179.862 1346.67 L179.862 1329.31 Z" fill="#000000" fill-rule="evenodd" fill-opacity="1" /><path clip-path="url(#clip770)" d="M 0 0 M116.876 1100.24 L135.232 1100.24 L135.232 1104.17 L121.158 1104.17 L121.158 1112.65 Q122.177 1112.3 123.195 1112.14 Q124.214 1111.95 125.232 1111.95 Q131.019 1111.95 134.399 1115.12 Q137.779 1118.29 137.779 1123.71 Q137.779 1129.29 134.306 1132.39 Q130.834 1135.47 124.515 1135.47 Q122.339 1135.47 120.07 1135.1 Q117.825 1134.73 115.418 1133.99 L115.418 1129.29 Q117.501 1130.42 119.723 1130.98 Q121.945 1131.54 124.422 1131.54 Q128.427 1131.54 130.765 1129.43 Q133.103 1127.32 133.103 1123.71 Q133.103 1120.1 130.765 1117.99 Q128.427 1115.89 124.422 1115.89 Q122.547 1115.89 120.672 1116.3 Q118.82 1116.72 116.876 1117.6 L116.876 1100.24 Z" fill="#000000" fill-rule="evenodd" fill-opacity="1" /><path clip-path="url(#clip770)" d="M 0 0 M142.848 1128.92 L147.732 1128.92 L147.732 1134.8 L142.848 1134.8 L142.848 1128.92 Z" fill="#000000" fill-rule="evenodd" fill-opacity="1" /><path clip-path="url(#clip770)" d="M 0 0 M152.848 1100.24 L171.204 1100.24 L171.204 1104.17 L157.13 1104.17 L157.13 1112.65 Q158.149 1112.3 159.167 1112.14 Q160.186 1111.95 161.204 1111.95 Q166.991 1111.95 170.371 1115.12 Q173.751 1118.29 173.751 1123.71 Q173.751 1129.29 170.278 1132.39 Q166.806 1135.47 160.487 1135.47 Q158.311 1135.47 156.042 1135.1 Q153.797 1134.73 151.39 1133.99 L151.39 1129.29 Q153.473 1130.42 155.695 1130.98 Q157.917 1131.54 160.394 1131.54 Q164.399 1131.54 166.737 1129.43 Q169.075 1127.32 169.075 1123.71 Q169.075 1120.1 166.737 1117.99 Q164.399 1115.89 160.394 1115.89 Q158.519 1115.89 156.644 1116.3 Q154.792 1116.72 152.848 1117.6 L152.848 1100.24 Z" fill="#000000" fill-rule="evenodd" fill-opacity="1" /><path clip-path="url(#clip770)" d="M 0 0 M188.82 1103.32 Q185.209 1103.32 183.38 1106.88 Q181.575 1110.42 181.575 1117.55 Q181.575 1124.66 183.38 1128.22 Q185.209 1131.77 188.82 1131.77 Q192.454 1131.77 194.26 1128.22 Q196.088 1124.66 196.088 1117.55 Q196.088 1110.42 194.26 1106.88 Q192.454 1103.32 188.82 1103.32 M188.82 1099.61 Q194.63 1099.61 197.686 1104.22 Q200.764 1108.8 200.764 1117.55 Q200.764 1126.28 197.686 1130.89 Q194.63 1135.47 188.82 1135.47 Q183.01 1135.47 179.931 1130.89 Q176.876 1126.28 176.876 1117.55 Q176.876 1108.8 179.931 1104.22 Q183.01 1099.61 188.82 1099.61 Z" fill="#000000" fill-rule="evenodd" fill-opacity="1" /><path clip-path="url(#clip770)" d="M 0 0 M117.871 871.169 L136.228 871.169 L136.228 875.104 L122.154 875.104 L122.154 883.576 Q123.172 883.229 124.191 883.067 Q125.209 882.882 126.228 882.882 Q132.015 882.882 135.394 886.053 Q138.774 889.224 138.774 894.641 Q138.774 900.219 135.302 903.321 Q131.83 906.4 125.51 906.4 Q123.334 906.4 121.066 906.03 Q118.82 905.659 116.413 904.919 L116.413 900.219 Q118.496 901.354 120.718 901.909 Q122.941 902.465 125.418 902.465 Q129.422 902.465 131.76 900.358 Q134.098 898.252 134.098 894.641 Q134.098 891.03 131.76 888.923 Q129.422 886.817 125.418 886.817 Q123.543 886.817 121.668 887.233 Q119.816 887.65 117.871 888.53 L117.871 871.169 Z" fill="#000000" fill-rule="evenodd" fill-opacity="1" /><path clip-path="url(#clip770)" d="M 0 0 M143.843 899.849 L148.728 899.849 L148.728 905.729 L143.843 905.729 L143.843 899.849 Z" fill="#000000" fill-rule="evenodd" fill-opacity="1" /><path clip-path="url(#clip770)" d="M 0 0 M153.843 871.169 L172.2 871.169 L172.2 875.104 L158.126 875.104 L158.126 883.576 Q159.144 883.229 160.163 883.067 Q161.181 882.882 162.2 882.882 Q167.987 882.882 171.366 886.053 Q174.746 889.224 174.746 894.641 Q174.746 900.219 171.274 903.321 Q167.802 906.4 161.482 906.4 Q159.306 906.4 157.038 906.03 Q154.792 905.659 152.385 904.919 L152.385 900.219 Q154.468 901.354 156.69 901.909 Q158.913 902.465 161.39 902.465 Q165.394 902.465 167.732 900.358 Q170.07 898.252 170.07 894.641 Q170.07 891.03 167.732 888.923 Q165.394 886.817 161.39 886.817 Q159.515 886.817 157.64 887.233 Q155.788 887.65 153.843 888.53 L153.843 871.169 Z" fill="#000000" fill-rule="evenodd" fill-opacity="1" /><path clip-path="url(#clip770)" d="M 0 0 M179.862 871.169 L198.218 871.169 L198.218 875.104 L184.144 875.104 L184.144 883.576 Q185.163 883.229 186.181 883.067 Q187.2 882.882 188.218 882.882 Q194.005 882.882 197.385 886.053 Q200.764 889.224 200.764 894.641 Q200.764 900.219 197.292 903.321 Q193.82 906.4 187.501 906.4 Q185.325 906.4 183.056 906.03 Q180.811 905.659 178.403 904.919 L178.403 900.219 Q180.487 901.354 182.709 901.909 Q184.931 902.465 187.408 902.465 Q191.413 902.465 193.75 900.358 Q196.088 898.252 196.088 894.641 Q196.088 891.03 193.75 888.923 Q191.413 886.817 187.408 886.817 Q185.533 886.817 183.658 887.233 Q181.806 887.65 179.862 888.53 L179.862 871.169 Z" fill="#000000" fill-rule="evenodd" fill-opacity="1" /><path clip-path="url(#clip770)" d="M 0 0 M115.718 642.098 L134.075 642.098 L134.075 646.034 L120.001 646.034 L120.001 654.506 Q121.019 654.159 122.038 653.996 Q123.056 653.811 124.075 653.811 Q129.862 653.811 133.242 656.983 Q136.621 660.154 136.621 665.571 Q136.621 671.149 133.149 674.251 Q129.677 677.33 123.357 677.33 Q121.181 677.33 118.913 676.959 Q116.668 676.589 114.26 675.848 L114.26 671.149 Q116.343 672.283 118.566 672.839 Q120.788 673.395 123.265 673.395 Q127.269 673.395 129.607 671.288 Q131.945 669.182 131.945 665.571 Q131.945 661.959 129.607 659.853 Q127.269 657.746 123.265 657.746 Q121.39 657.746 119.515 658.163 Q117.663 658.58 115.718 659.459 L115.718 642.098 Z" fill="#000000" fill-rule="evenodd" fill-opacity="1" /><path clip-path="url(#clip770)" d="M 0 0 M141.691 670.779 L146.575 670.779 L146.575 676.658 L141.691 676.658 L141.691 670.779 Z" fill="#000000" fill-rule="evenodd" fill-opacity="1" /><path clip-path="url(#clip770)" d="M 0 0 M162.223 657.515 Q159.075 657.515 157.223 659.668 Q155.394 661.821 155.394 665.571 Q155.394 669.297 157.223 671.473 Q159.075 673.626 162.223 673.626 Q165.371 673.626 167.2 671.473 Q169.052 669.297 169.052 665.571 Q169.052 661.821 167.2 659.668 Q165.371 657.515 162.223 657.515 M171.505 642.862 L171.505 647.122 Q169.746 646.288 167.94 645.848 Q166.158 645.409 164.399 645.409 Q159.769 645.409 157.315 648.534 Q154.885 651.659 154.538 657.978 Q155.903 655.964 157.964 654.899 Q160.024 653.811 162.501 653.811 Q167.709 653.811 170.718 656.983 Q173.751 660.131 173.751 665.571 Q173.751 670.895 170.602 674.112 Q167.454 677.33 162.223 677.33 Q156.228 677.33 153.056 672.746 Q149.885 668.14 149.885 659.413 Q149.885 651.219 153.774 646.358 Q157.663 641.473 164.214 641.473 Q165.973 641.473 167.755 641.821 Q169.561 642.168 171.505 642.862 Z" fill="#000000" fill-rule="evenodd" fill-opacity="1" /><path clip-path="url(#clip770)" d="M 0 0 M188.82 645.177 Q185.209 645.177 183.38 648.742 Q181.575 652.284 181.575 659.413 Q181.575 666.52 183.38 670.084 Q185.209 673.626 188.82 673.626 Q192.454 673.626 194.26 670.084 Q196.088 666.52 196.088 659.413 Q196.088 652.284 194.26 648.742 Q192.454 645.177 188.82 645.177 M188.82 641.473 Q194.63 641.473 197.686 646.08 Q200.764 650.663 200.764 659.413 Q200.764 668.14 197.686 672.746 Q194.63 677.33 188.82 677.33 Q183.01 677.33 179.931 672.746 Q176.876 668.14 176.876 659.413 Q176.876 650.663 179.931 646.08 Q183.01 641.473 188.82 641.473 Z" fill="#000000" fill-rule="evenodd" fill-opacity="1" /><path clip-path="url(#clip770)" d="M 0 0 M116.714 413.028 L135.07 413.028 L135.07 416.963 L120.996 416.963 L120.996 425.435 Q122.015 425.088 123.033 424.926 Q124.052 424.741 125.07 424.741 Q130.857 424.741 134.237 427.912 Q137.617 431.084 137.617 436.5 Q137.617 442.079 134.144 445.181 Q130.672 448.259 124.353 448.259 Q122.177 448.259 119.908 447.889 Q117.663 447.519 115.256 446.778 L115.256 442.079 Q117.339 443.213 119.561 443.769 Q121.783 444.324 124.26 444.324 Q128.265 444.324 130.603 442.218 Q132.941 440.111 132.941 436.5 Q132.941 432.889 130.603 430.783 Q128.265 428.676 124.26 428.676 Q122.385 428.676 120.51 429.093 Q118.658 429.51 116.714 430.389 L116.714 413.028 Z" fill="#000000" fill-rule="evenodd" fill-opacity="1" /><path clip-path="url(#clip770)" d="M 0 0 M142.686 441.709 L147.57 441.709 L147.57 447.588 L142.686 447.588 L142.686 441.709 Z" fill="#000000" fill-rule="evenodd" fill-opacity="1" /><path clip-path="url(#clip770)" d="M 0 0 M163.218 428.445 Q160.07 428.445 158.218 430.597 Q156.39 432.75 156.39 436.5 Q156.39 440.227 158.218 442.403 Q160.07 444.556 163.218 444.556 Q166.366 444.556 168.195 442.403 Q170.047 440.227 170.047 436.5 Q170.047 432.75 168.195 430.597 Q166.366 428.445 163.218 428.445 M172.501 413.792 L172.501 418.051 Q170.741 417.218 168.936 416.778 Q167.153 416.338 165.394 416.338 Q160.765 416.338 158.311 419.463 Q155.88 422.588 155.533 428.908 Q156.899 426.894 158.959 425.829 Q161.019 424.741 163.496 424.741 Q168.704 424.741 171.714 427.912 Q174.746 431.06 174.746 436.5 Q174.746 441.824 171.598 445.042 Q168.45 448.259 163.218 448.259 Q157.223 448.259 154.052 443.676 Q150.88 439.07 150.88 430.343 Q150.88 422.148 154.769 417.287 Q158.658 412.403 165.209 412.403 Q166.968 412.403 168.751 412.75 Q170.556 413.098 172.501 413.792 Z" fill="#000000" fill-rule="evenodd" fill-opacity="1" /><path clip-path="url(#clip770)" d="M 0 0 M179.862 413.028 L198.218 413.028 L198.218 416.963 L184.144 416.963 L184.144 425.435 Q185.163 425.088 186.181 424.926 Q187.2 424.741 188.218 424.741 Q194.005 424.741 197.385 427.912 Q200.764 431.084 200.764 436.5 Q200.764 442.079 197.292 445.181 Q193.82 448.259 187.501 448.259 Q185.325 448.259 183.056 447.889 Q180.811 447.519 178.403 446.778 L178.403 442.079 Q180.487 443.213 182.709 443.769 Q184.931 444.324 187.408 444.324 Q191.413 444.324 193.75 442.218 Q196.088 440.111 196.088 436.5 Q196.088 432.889 193.75 430.783 Q191.413 428.676 187.408 428.676 Q185.533 428.676 183.658 429.093 Q181.806 429.51 179.862 430.389 L179.862 413.028 Z" fill="#000000" fill-rule="evenodd" fill-opacity="1" /><path clip-path="url(#clip770)" d="M 0 0 M116.783 183.958 L135.14 183.958 L135.14 187.893 L121.066 187.893 L121.066 196.365 Q122.084 196.018 123.103 195.856 Q124.121 195.671 125.14 195.671 Q130.927 195.671 134.306 198.842 Q137.686 202.013 137.686 207.43 Q137.686 213.009 134.214 216.11 Q130.742 219.189 124.422 219.189 Q122.246 219.189 119.978 218.819 Q117.732 218.448 115.325 217.708 L115.325 213.009 Q117.408 214.143 119.63 214.698 Q121.853 215.254 124.33 215.254 Q128.334 215.254 130.672 213.147 Q133.01 211.041 133.01 207.43 Q133.01 203.819 130.672 201.712 Q128.334 199.606 124.33 199.606 Q122.455 199.606 120.58 200.023 Q118.728 200.439 116.783 201.319 L116.783 183.958 Z" fill="#000000" fill-rule="evenodd" fill-opacity="1" /><path clip-path="url(#clip770)" d="M 0 0 M142.755 212.638 L147.64 212.638 L147.64 218.518 L142.755 218.518 L142.755 212.638 Z" fill="#000000" fill-rule="evenodd" fill-opacity="1" /><path clip-path="url(#clip770)" d="M 0 0 M151.528 183.958 L173.751 183.958 L173.751 185.949 L161.204 218.518 L156.32 218.518 L168.126 187.893 L151.528 187.893 L151.528 183.958 Z" fill="#000000" fill-rule="evenodd" fill-opacity="1" /><path clip-path="url(#clip770)" d="M 0 0 M188.82 187.037 Q185.209 187.037 183.38 190.601 Q181.575 194.143 181.575 201.273 Q181.575 208.379 183.38 211.944 Q185.209 215.485 188.82 215.485 Q192.454 215.485 194.26 211.944 Q196.088 208.379 196.088 201.273 Q196.088 194.143 194.26 190.601 Q192.454 187.037 188.82 187.037 M188.82 183.333 Q194.63 183.333 197.686 187.939 Q200.764 192.523 200.764 201.273 Q200.764 209.999 197.686 214.606 Q194.63 219.189 188.82 219.189 Q183.01 219.189 179.931 214.606 Q176.876 209.999 176.876 201.273 Q176.876 192.523 179.931 187.939 Q183.01 183.333 188.82 183.333 Z" fill="#000000" fill-rule="evenodd" fill-opacity="1" /><path clip-path="url(#clip770)" d="M 0 0 M59.1993 815.533 Q55.2526 813.336 53.3747 810.281 Q51.4968 807.225 51.4968 803.088 Q51.4968 797.518 55.4117 794.494 Q59.2948 791.47 66.4881 791.47 L88.0042 791.47 L88.0042 797.358 L66.679 797.358 Q61.5546 797.358 59.072 799.173 Q56.5894 800.987 56.5894 804.711 Q56.5894 809.262 59.6131 811.904 Q62.6368 814.546 67.8567 814.546 L88.0042 814.546 L88.0042 820.434 L66.679 820.434 Q61.5228 820.434 59.072 822.248 Q56.5894 824.063 56.5894 827.85 Q56.5894 832.338 59.6449 834.98 Q62.6686 837.622 67.8567 837.622 L88.0042 837.622 L88.0042 843.51 L52.3562 843.51 L52.3562 837.622 L57.8944 837.622 Q54.616 835.616 53.0564 832.815 Q51.4968 830.015 51.4968 826.163 Q51.4968 822.28 53.4702 819.575 Q55.4436 816.838 59.1993 815.533 Z" fill="#000000" fill-rule="evenodd" fill-opacity="1" /><path clip-path="url(#clip770)" d="M 0 0 M52.3562 785.327 L52.3562 779.471 L88.0042 779.471 L88.0042 785.327 L52.3562 785.327 M38.479 785.327 L38.479 779.471 L45.895 779.471 L45.895 785.327 L38.479 785.327 Z" fill="#000000" fill-rule="evenodd" fill-opacity="1" /><path clip-path="url(#clip770)" d="M 0 0 M66.4881 743.696 L88.0042 743.696 L88.0042 749.552 L66.679 749.552 Q61.6183 749.552 59.1038 751.525 Q56.5894 753.499 56.5894 757.446 Q56.5894 762.188 59.6131 764.925 Q62.6368 767.662 67.8567 767.662 L88.0042 767.662 L88.0042 773.551 L52.3562 773.551 L52.3562 767.662 L57.8944 767.662 Q54.6797 765.562 53.0883 762.729 Q51.4968 759.864 51.4968 756.141 Q51.4968 749.998 55.3163 746.847 Q59.1038 743.696 66.4881 743.696 Z" fill="#000000" fill-rule="evenodd" fill-opacity="1" /><path clip-path="url(#clip770)" d="M 0 0 M98.8259 710.467 L103.377 710.467 L103.377 744.332 L98.8259 744.332 L98.8259 710.467 Z" fill="#000000" fill-rule="evenodd" fill-opacity="1" /><path clip-path="url(#clip770)" d="M 0 0 M57.7671 680.866 L38.479 680.866 L38.479 675.01 L88.0042 675.01 L88.0042 680.866 L82.657 680.866 Q85.8398 682.712 87.3994 685.545 Q88.9272 688.346 88.9272 692.292 Q88.9272 698.754 83.771 702.828 Q78.6147 706.87 70.212 706.87 Q61.8093 706.87 56.6531 702.828 Q51.4968 698.754 51.4968 692.292 Q51.4968 688.346 53.0564 685.545 Q54.5842 682.712 57.7671 680.866 M70.212 700.823 Q76.6732 700.823 80.3653 698.181 Q84.0256 695.507 84.0256 690.86 Q84.0256 686.213 80.3653 683.54 Q76.6732 680.866 70.212 680.866 Q63.7508 680.866 60.0905 683.54 Q56.3984 686.213 56.3984 690.86 Q56.3984 695.507 60.0905 698.181 Q63.7508 700.823 70.212 700.823 Z" fill="#000000" fill-rule="evenodd" fill-opacity="1" /><path clip-path="url(#clip770)" d="M 0 0 M52.3562 668.867 L52.3562 663.01 L88.0042 663.01 L88.0042 668.867 L52.3562 668.867 M38.479 668.867 L38.479 663.01 L45.895 663.01 L45.895 668.867 L38.479 668.867 Z" fill="#000000" fill-rule="evenodd" fill-opacity="1" /><path clip-path="url(#clip770)" d="M 0 0 M38.479 638.821 L43.3487 638.821 L43.3487 644.422 Q43.3487 647.573 44.6219 648.815 Q45.895 650.024 49.2052 650.024 L52.3562 650.024 L52.3562 640.38 L56.9077 640.38 L56.9077 650.024 L88.0042 650.024 L88.0042 655.912 L56.9077 655.912 L56.9077 661.514 L52.3562 661.514 L52.3562 655.912 L49.8736 655.912 Q43.9216 655.912 41.2162 653.143 Q38.479 650.374 38.479 644.359 L38.479 638.821 Z" fill="#000000" fill-rule="evenodd" fill-opacity="1" /><path clip-path="url(#clip770)" d="M 0 0 M38.479 614.631 L43.3487 614.631 L43.3487 620.233 Q43.3487 623.384 44.6219 624.625 Q45.895 625.835 49.2052 625.835 L52.3562 625.835 L52.3562 616.19 L56.9077 616.19 L56.9077 625.835 L88.0042 625.835 L88.0042 631.723 L56.9077 631.723 L56.9077 637.325 L52.3562 637.325 L52.3562 631.723 L49.8736 631.723 Q43.9216 631.723 41.2162 628.954 Q38.479 626.185 38.479 620.169 L38.479 614.631 Z" fill="#000000" fill-rule="evenodd" fill-opacity="1" /><polyline clip-path="url(#clip772)" style="stroke:#009af9; stroke-width:20; stroke-opacity:1; fill:none" stroke-dasharray="80, 50" points="
  296.651,85.838 1294.76,1372.3 2292.87,793.753 
  "/>
<path clip-path="url(#clip770)" d="
M1996.09 213.659 L2282.22 213.659 L2282.22 92.6992 L1996.09 92.6992  Z
  " fill="#ffffff" fill-rule="evenodd" fill-opacity="1"/>
<polyline clip-path="url(#clip770)" style="stroke:#000000; stroke-width:4; stroke-opacity:1; fill:none" points="
  1996.09,213.659 2282.22,213.659 2282.22,92.6992 1996.09,92.6992 1996.09,213.659 
  "/>
<polyline clip-path="url(#clip770)" style="stroke:#009af9; stroke-width:4; stroke-opacity:1; fill:none" stroke-dasharray="16, 10" points="
  2019.61,153.179 2160.67,153.179 
  "/>
<path clip-path="url(#clip770)" d="M 0 0 M2198.03 172.867 Q2196.22 177.496 2194.51 178.908 Q2192.79 180.32 2189.92 180.32 L2186.52 180.32 L2186.52 176.755 L2189.02 176.755 Q2190.78 176.755 2191.75 175.922 Q2192.72 175.089 2193.9 171.987 L2194.67 170.043 L2184.18 144.533 L2188.7 144.533 L2196.8 164.811 L2204.9 144.533 L2209.41 144.533 L2198.03 172.867 Z" fill="#000000" fill-rule="evenodd" fill-opacity="1" /><path clip-path="url(#clip770)" d="M 0 0 M2215.29 166.524 L2222.93 166.524 L2222.93 140.158 L2214.62 141.825 L2214.62 137.566 L2222.89 135.899 L2227.56 135.899 L2227.56 166.524 L2235.2 166.524 L2235.2 170.459 L2215.29 170.459 L2215.29 166.524 Z" fill="#000000" fill-rule="evenodd" fill-opacity="1" /></svg>
