<?xml version="1.0" encoding="utf-8"?>
<svg xmlns="http://www.w3.org/2000/svg" xmlns:xlink="http://www.w3.org/1999/xlink" width="600" height="400" viewBox="0 0 2400 1600">
<defs>
  <clipPath id="clip550">
    <rect x="0" y="0" width="2400" height="1600"/>
  </clipPath>
</defs>
<path clip-path="url(#clip550)" d="
M0 1600 L2400 1600 L2400 0 L0 0  Z
  " fill="#ffffff" fill-rule="evenodd" fill-opacity="1"/>
<defs>
  <clipPath id="clip551">
    <rect x="480" y="0" width="1681" height="1600"/>
  </clipPath>
</defs>
<path clip-path="url(#clip550)" d="
M236.463 1410.9 L2352.76 1410.9 L2352.76 47.2441 L236.463 47.2441  Z
  " fill="#ffffff" fill-rule="evenodd" fill-opacity="1"/>
<defs>
  <clipPath id="clip552">
    <rect x="236" y="47" width="2117" height="1365"/>
  </clipPath>
</defs>
<polyline clip-path="url(#clip552)" style="stroke:#000000; stroke-width:2; stroke-opacity:0.1; fill:none" points="
  296.358,1410.9 296.358,47.2441 
  "/>
<polyline clip-path="url(#clip552)" style="stroke:#000000; stroke-width:2; stroke-opacity:0.1; fill:none" points="
  795.479,1410.9 795.479,47.2441 
  "/>
<polyline clip-path="url(#clip552)" style="stroke:#000000; stroke-width:2; stroke-opacity:0.1; fill:none" points="
  1294.6,1410.9 1294.6,47.2441 
  "/>
<polyline clip-path="url(#clip552)" style="stroke:#000000; stroke-width:2; stroke-opacity:0.1; fill:none" points="
  1793.72,1410.9 1793.72,47.2441 
  "/>
<polyline clip-path="url(#clip552)" style="stroke:#000000; stroke-width:2; stroke-opacity:0.1; fill:none" points="
  2292.84,1410.9 2292.84,47.2441 
  "/>
<polyline clip-path="url(#clip550)" style="stroke:#000000; stroke-width:4; stroke-opacity:1; fill:none" points="
  236.463,1410.9 2352.76,1410.9 
  "/>
<polyline clip-path="url(#clip550)" style="stroke:#000000; stroke-width:4; stroke-opacity:1; fill:none" points="
  296.358,1410.9 296.358,1394.53 
  "/>
<polyline clip-path="url(#clip550)" style="stroke:#000000; stroke-width:4; stroke-opacity:1; fill:none" points="
  795.479,1410.9 795.479,1394.53 
  "/>
<polyline clip-path="url(#clip550)" style="stroke:#000000; stroke-width:4; stroke-opacity:1; fill:none" points="
  1294.6,1410.9 1294.6,1394.53 
  "/>
<polyline clip-path="url(#clip550)" style="stroke:#000000; stroke-width:4; stroke-opacity:1; fill:none" points="
  1793.72,1410.9 1793.72,1394.53 
  "/>
<polyline clip-path="url(#clip550)" style="stroke:#000000; stroke-width:4; stroke-opacity:1; fill:none" points="
  2292.84,1410.9 2292.84,1394.53 
  "/>
<path clip-path="url(#clip550)" d="M 0 0 M250.006 1489.17 L257.645 1489.17 L257.645 1462.8 L249.335 1464.47 L249.335 1460.21 L257.599 1458.54 L262.274 1458.54 L262.274 1489.17 L269.913 1489.17 L269.913 1493.1 L250.006 1493.1 L250.006 1489.17 Z" fill="#000000" fill-rule="evenodd" fill-opacity="1" /><path clip-path="url(#clip550)" d="M 0 0 M284.983 1461.62 Q281.372 1461.62 279.543 1465.19 Q277.737 1468.73 277.737 1475.86 Q277.737 1482.97 279.543 1486.53 Q281.372 1490.07 284.983 1490.07 Q288.617 1490.07 290.422 1486.53 Q292.251 1482.97 292.251 1475.86 Q292.251 1468.73 290.422 1465.19 Q288.617 1461.62 284.983 1461.62 M284.983 1457.92 Q290.793 1457.92 293.848 1462.53 Q296.927 1467.11 296.927 1475.86 Q296.927 1484.59 293.848 1489.19 Q290.793 1493.78 284.983 1493.78 Q279.173 1493.78 276.094 1489.19 Q273.038 1484.59 273.038 1475.86 Q273.038 1467.11 276.094 1462.53 Q279.173 1457.92 284.983 1457.92 Z" fill="#000000" fill-rule="evenodd" fill-opacity="1" /><path clip-path="url(#clip550)" d="M 0 0 M296.927 1452.02 L321.039 1452.02 L321.039 1455.22 L296.927 1455.22 L296.927 1452.02 Z" fill="#000000" fill-rule="evenodd" fill-opacity="1" /><path clip-path="url(#clip550)" d="M 0 0 M335.596 1440.92 L326.004 1455.91 L335.596 1455.91 L335.596 1440.92 M334.599 1437.61 L339.376 1437.61 L339.376 1455.91 L343.382 1455.91 L343.382 1459.07 L339.376 1459.07 L339.376 1465.69 L335.596 1465.69 L335.596 1459.07 L322.919 1459.07 L322.919 1455.41 L334.599 1437.61 Z" fill="#000000" fill-rule="evenodd" fill-opacity="1" /><path clip-path="url(#clip550)" d="M 0 0 M749.587 1489.17 L757.226 1489.17 L757.226 1462.8 L748.916 1464.47 L748.916 1460.21 L757.18 1458.54 L761.855 1458.54 L761.855 1489.17 L769.494 1489.17 L769.494 1493.1 L749.587 1493.1 L749.587 1489.17 Z" fill="#000000" fill-rule="evenodd" fill-opacity="1" /><path clip-path="url(#clip550)" d="M 0 0 M784.564 1461.62 Q780.953 1461.62 779.124 1465.19 Q777.318 1468.73 777.318 1475.86 Q777.318 1482.97 779.124 1486.53 Q780.953 1490.07 784.564 1490.07 Q788.198 1490.07 790.003 1486.53 Q791.832 1482.97 791.832 1475.86 Q791.832 1468.73 790.003 1465.19 Q788.198 1461.62 784.564 1461.62 M784.564 1457.92 Q790.374 1457.92 793.429 1462.53 Q796.508 1467.11 796.508 1475.86 Q796.508 1484.59 793.429 1489.19 Q790.374 1493.78 784.564 1493.78 Q778.753 1493.78 775.675 1489.19 Q772.619 1484.59 772.619 1475.86 Q772.619 1467.11 775.675 1462.53 Q778.753 1457.92 784.564 1457.92 Z" fill="#000000" fill-rule="evenodd" fill-opacity="1" /><path clip-path="url(#clip550)" d="M 0 0 M796.508 1452.02 L820.62 1452.02 L820.62 1455.22 L796.508 1455.22 L796.508 1452.02 Z" fill="#000000" fill-rule="evenodd" fill-opacity="1" /><path clip-path="url(#clip550)" d="M 0 0 M836.249 1450.55 Q838.976 1451.14 840.499 1452.98 Q842.042 1454.82 842.042 1457.53 Q842.042 1461.69 839.183 1463.96 Q836.324 1466.24 831.058 1466.24 Q829.29 1466.24 827.409 1465.88 Q825.547 1465.54 823.554 1464.85 L823.554 1461.18 Q825.133 1462.1 827.014 1462.57 Q828.895 1463.04 830.945 1463.04 Q834.519 1463.04 836.38 1461.63 Q838.261 1460.22 838.261 1457.53 Q838.261 1455.05 836.512 1453.66 Q834.782 1452.25 831.679 1452.25 L828.406 1452.25 L828.406 1449.12 L831.829 1449.12 Q834.631 1449.12 836.117 1448.01 Q837.603 1446.89 837.603 1444.78 Q837.603 1442.62 836.061 1441.47 Q834.537 1440.3 831.679 1440.3 Q830.117 1440.3 828.331 1440.64 Q826.544 1440.98 824.4 1441.69 L824.4 1438.31 Q826.563 1437.71 828.444 1437.41 Q830.343 1437.11 832.017 1437.11 Q836.343 1437.11 838.863 1439.08 Q841.383 1441.04 841.383 1444.38 Q841.383 1446.72 840.048 1448.33 Q838.713 1449.93 836.249 1450.55 Z" fill="#000000" fill-rule="evenodd" fill-opacity="1" /><path clip-path="url(#clip550)" d="M 0 0 M1249.09 1489.17 L1256.73 1489.17 L1256.73 1462.8 L1248.42 1464.47 L1248.42 1460.21 L1256.69 1458.54 L1261.36 1458.54 L1261.36 1489.17 L1269 1489.17 L1269 1493.1 L1249.09 1493.1 L1249.09 1489.17 Z" fill="#000000" fill-rule="evenodd" fill-opacity="1" /><path clip-path="url(#clip550)" d="M 0 0 M1284.07 1461.62 Q1280.46 1461.62 1278.63 1465.19 Q1276.82 1468.73 1276.82 1475.86 Q1276.82 1482.97 1278.63 1486.53 Q1280.46 1490.07 1284.07 1490.07 Q1287.7 1490.07 1289.51 1486.53 Q1291.34 1482.97 1291.34 1475.86 Q1291.34 1468.73 1289.51 1465.19 Q1287.7 1461.62 1284.07 1461.62 M1284.07 1457.92 Q1289.88 1457.92 1292.94 1462.53 Q1296.01 1467.11 1296.01 1475.86 Q1296.01 1484.59 1292.94 1489.19 Q1289.88 1493.78 1284.07 1493.78 Q1278.26 1493.78 1275.18 1489.19 Q1272.12 1484.59 1272.12 1475.86 Q1272.12 1467.11 1275.18 1462.53 Q1278.26 1457.92 1284.07 1457.92 Z" fill="#000000" fill-rule="evenodd" fill-opacity="1" /><path clip-path="url(#clip550)" d="M 0 0 M1296.01 1452.02 L1320.13 1452.02 L1320.13 1455.22 L1296.01 1455.22 L1296.01 1452.02 Z" fill="#000000" fill-rule="evenodd" fill-opacity="1" /><path clip-path="url(#clip550)" d="M 0 0 M1327.52 1462.5 L1340.78 1462.5 L1340.78 1465.69 L1322.95 1465.69 L1322.95 1462.5 Q1325.11 1460.26 1328.83 1456.5 Q1332.58 1452.72 1333.54 1451.63 Q1335.36 1449.58 1336.07 1448.16 Q1336.81 1446.74 1336.81 1445.36 Q1336.81 1443.12 1335.23 1441.71 Q1333.67 1440.3 1331.15 1440.3 Q1329.36 1440.3 1327.37 1440.92 Q1325.39 1441.54 1323.13 1442.8 L1323.13 1438.97 Q1325.43 1438.05 1327.42 1437.58 Q1329.42 1437.11 1331.07 1437.11 Q1335.43 1437.11 1338.03 1439.29 Q1340.63 1441.47 1340.63 1445.12 Q1340.63 1446.85 1339.97 1448.41 Q1339.33 1449.95 1337.62 1452.06 Q1337.15 1452.6 1334.63 1455.22 Q1332.11 1457.81 1327.52 1462.5 Z" fill="#000000" fill-rule="evenodd" fill-opacity="1" /><path clip-path="url(#clip550)" d="M 0 0 M1748.06 1489.17 L1755.7 1489.17 L1755.7 1462.8 L1747.39 1464.47 L1747.39 1460.21 L1755.65 1458.54 L1760.33 1458.54 L1760.33 1489.17 L1767.97 1489.17 L1767.97 1493.1 L1748.06 1493.1 L1748.06 1489.17 Z" fill="#000000" fill-rule="evenodd" fill-opacity="1" /><path clip-path="url(#clip550)" d="M 0 0 M1783.04 1461.62 Q1779.43 1461.62 1777.6 1465.19 Q1775.79 1468.73 1775.79 1475.86 Q1775.79 1482.97 1777.6 1486.53 Q1779.43 1490.07 1783.04 1490.07 Q1786.67 1490.07 1788.48 1486.53 Q1790.31 1482.97 1790.31 1475.86 Q1790.31 1468.73 1788.48 1465.19 Q1786.67 1461.62 1783.04 1461.62 M1783.04 1457.92 Q1788.85 1457.92 1791.9 1462.53 Q1794.98 1467.11 1794.98 1475.86 Q1794.98 1484.59 1791.9 1489.19 Q1788.85 1493.78 1783.04 1493.78 Q1777.23 1493.78 1774.15 1489.19 Q1771.09 1484.59 1771.09 1475.86 Q1771.09 1467.11 1774.15 1462.53 Q1777.23 1457.92 1783.04 1457.92 Z" fill="#000000" fill-rule="evenodd" fill-opacity="1" /><path clip-path="url(#clip550)" d="M 0 0 M1794.98 1452.02 L1819.1 1452.02 L1819.1 1455.22 L1794.98 1455.22 L1794.98 1452.02 Z" fill="#000000" fill-rule="evenodd" fill-opacity="1" /><path clip-path="url(#clip550)" d="M 0 0 M1823.87 1462.5 L1830.08 1462.5 L1830.08 1441.07 L1823.33 1442.43 L1823.33 1438.97 L1830.04 1437.61 L1833.84 1437.61 L1833.84 1462.5 L1840.05 1462.5 L1840.05 1465.69 L1823.87 1465.69 L1823.87 1462.5 Z" fill="#000000" fill-rule="evenodd" fill-opacity="1" /><path clip-path="url(#clip550)" d="M 0 0 M2260.01 1489.17 L2267.65 1489.17 L2267.65 1462.8 L2259.34 1464.47 L2259.34 1460.21 L2267.6 1458.54 L2272.28 1458.54 L2272.28 1489.17 L2279.92 1489.17 L2279.92 1493.1 L2260.01 1493.1 L2260.01 1489.17 Z" fill="#000000" fill-rule="evenodd" fill-opacity="1" /><path clip-path="url(#clip550)" d="M 0 0 M2294.99 1461.62 Q2291.38 1461.62 2289.55 1465.19 Q2287.74 1468.73 2287.74 1475.86 Q2287.74 1482.97 2289.55 1486.53 Q2291.38 1490.07 2294.99 1490.07 Q2298.62 1490.07 2300.43 1486.53 Q2302.25 1482.97 2302.25 1475.86 Q2302.25 1468.73 2300.43 1465.19 Q2298.62 1461.62 2294.99 1461.62 M2294.99 1457.92 Q2300.8 1457.92 2303.85 1462.53 Q2306.93 1467.11 2306.93 1475.86 Q2306.93 1484.59 2303.85 1489.19 Q2300.8 1493.78 2294.99 1493.78 Q2289.18 1493.78 2286.1 1489.19 Q2283.04 1484.59 2283.04 1475.86 Q2283.04 1467.11 2286.1 1462.53 Q2289.18 1457.92 2294.99 1457.92 Z" fill="#000000" fill-rule="evenodd" fill-opacity="1" /><path clip-path="url(#clip550)" d="M 0 0 M2316.64 1440.11 Q2313.7 1440.11 2312.22 1443.01 Q2310.75 1445.89 2310.75 1451.68 Q2310.75 1457.46 2312.22 1460.35 Q2313.7 1463.23 2316.64 1463.23 Q2319.59 1463.23 2321.06 1460.35 Q2322.54 1457.46 2322.54 1451.68 Q2322.54 1445.89 2321.06 1443.01 Q2319.59 1440.11 2316.64 1440.11 M2316.64 1437.11 Q2321.36 1437.11 2323.84 1440.85 Q2326.34 1444.57 2326.34 1451.68 Q2326.34 1458.77 2323.84 1462.51 Q2321.36 1466.24 2316.64 1466.24 Q2311.91 1466.24 2309.41 1462.51 Q2306.93 1458.77 2306.93 1451.68 Q2306.93 1444.57 2309.41 1440.85 Q2311.91 1437.11 2316.64 1437.11 Z" fill="#000000" fill-rule="evenodd" fill-opacity="1" /><path clip-path="url(#clip550)" d="M 0 0 M1219.83 1512.66 L1225.72 1512.66 L1225.72 1541.91 L1243.19 1526.54 L1250.67 1526.54 L1231.76 1543.22 L1251.47 1562.19 L1243.83 1562.19 L1225.72 1544.78 L1225.72 1562.19 L1219.83 1562.19 L1219.83 1512.66 Z" fill="#000000" fill-rule="evenodd" fill-opacity="1" /><path clip-path="url(#clip550)" d="M 0 0 M1284.7 1573.01 L1284.7 1577.56 L1250.83 1577.56 L1250.83 1573.01 L1284.7 1573.01 Z" fill="#000000" fill-rule="evenodd" fill-opacity="1" /><path clip-path="url(#clip550)" d="M 0 0 M1304.65 1530.64 Q1299.94 1530.64 1297.2 1534.34 Q1294.47 1538 1294.47 1544.39 Q1294.47 1550.79 1297.17 1554.48 Q1299.91 1558.14 1304.65 1558.14 Q1309.33 1558.14 1312.07 1554.45 Q1314.8 1550.76 1314.8 1544.39 Q1314.8 1538.06 1312.07 1534.37 Q1309.33 1530.64 1304.65 1530.64 M1304.65 1525.68 Q1312.29 1525.68 1316.65 1530.64 Q1321.01 1535.61 1321.01 1544.39 Q1321.01 1553.15 1316.65 1558.14 Q1312.29 1563.11 1304.65 1563.11 Q1296.98 1563.11 1292.62 1558.14 Q1288.29 1553.15 1288.29 1544.39 Q1288.29 1535.61 1292.62 1530.64 Q1296.98 1525.68 1304.65 1525.68 Z" fill="#000000" fill-rule="evenodd" fill-opacity="1" /><path clip-path="url(#clip550)" d="M 0 0 M1345.2 1512.66 L1345.2 1517.53 L1339.6 1517.53 Q1336.45 1517.53 1335.21 1518.8 Q1334 1520.08 1334 1523.39 L1334 1526.54 L1343.64 1526.54 L1343.64 1531.09 L1334 1531.09 L1334 1562.19 L1328.11 1562.19 L1328.11 1531.09 L1322.51 1531.09 L1322.51 1526.54 L1328.11 1526.54 L1328.11 1524.05 Q1328.11 1518.1 1330.88 1515.4 Q1333.65 1512.66 1339.66 1512.66 L1345.2 1512.66 Z" fill="#000000" fill-rule="evenodd" fill-opacity="1" /><path clip-path="url(#clip550)" d="M 0 0 M1369.39 1512.66 L1369.39 1517.53 L1363.79 1517.53 Q1360.64 1517.53 1359.4 1518.8 Q1358.19 1520.08 1358.19 1523.39 L1358.19 1526.54 L1367.83 1526.54 L1367.83 1531.09 L1358.19 1531.09 L1358.19 1562.19 L1352.3 1562.19 L1352.3 1531.09 L1346.7 1531.09 L1346.7 1526.54 L1352.3 1526.54 L1352.3 1524.05 Q1352.3 1518.1 1355.07 1515.4 Q1357.84 1512.66 1363.85 1512.66 L1369.39 1512.66 Z" fill="#000000" fill-rule="evenodd" fill-opacity="1" /><polyline clip-path="url(#clip552)" style="stroke:#000000; stroke-width:2; stroke-opacity:0.1; fill:none" points="
  236.463,1141.61 2352.76,1141.61 
  "/>
<polyline clip-path="url(#clip552)" style="stroke:#000000; stroke-width:2; stroke-opacity:0.1; fill:none" points="
  236.463,819.995 2352.76,819.995 
  "/>
<polyline clip-path="url(#clip552)" style="stroke:#000000; stroke-width:2; stroke-opacity:0.1; fill:none" points="
  236.463,498.379 2352.76,498.379 
  "/>
<polyline clip-path="url(#clip552)" style="stroke:#000000; stroke-width:2; stroke-opacity:0.1; fill:none" points="
  236.463,176.762 2352.76,176.762 
  "/>
<polyline clip-path="url(#clip550)" style="stroke:#000000; stroke-width:4; stroke-opacity:1; fill:none" points="
  236.463,1410.9 236.463,47.2441 
  "/>
<polyline clip-path="url(#clip550)" style="stroke:#000000; stroke-width:4; stroke-opacity:1; fill:none" points="
  236.463,1141.61 261.859,1141.61 
  "/>
<polyline clip-path="url(#clip550)" style="stroke:#000000; stroke-width:4; stroke-opacity:1; fill:none" points="
  236.463,819.995 261.859,819.995 
  "/>
<polyline clip-path="url(#clip550)" style="stroke:#000000; stroke-width:4; stroke-opacity:1; fill:none" points="
  236.463,498.379 261.859,498.379 
  "/>
<polyline clip-path="url(#clip550)" style="stroke:#000000; stroke-width:4; stroke-opacity:1; fill:none" points="
  236.463,176.762 261.859,176.762 
  "/>
<path clip-path="url(#clip550)" d="M 0 0 M126.853 1139.75 Q123.705 1139.75 121.853 1141.9 Q120.024 1144.05 120.024 1147.8 Q120.024 1151.53 121.853 1153.71 Q123.705 1155.86 126.853 1155.86 Q130.001 1155.86 131.83 1153.71 Q133.681 1151.53 133.681 1147.8 Q133.681 1144.05 131.83 1141.9 Q130.001 1139.75 126.853 1139.75 M136.135 1125.09 L136.135 1129.35 Q134.376 1128.52 132.57 1128.08 Q130.788 1127.64 129.029 1127.64 Q124.399 1127.64 121.945 1130.77 Q119.515 1133.89 119.168 1140.21 Q120.533 1138.2 122.593 1137.13 Q124.654 1136.04 127.13 1136.04 Q132.339 1136.04 135.348 1139.22 Q138.38 1142.36 138.38 1147.8 Q138.38 1153.13 135.232 1156.34 Q132.084 1159.56 126.853 1159.56 Q120.857 1159.56 117.686 1154.98 Q114.515 1150.37 114.515 1141.65 Q114.515 1133.45 118.404 1128.59 Q122.293 1123.71 128.843 1123.71 Q130.603 1123.71 132.385 1124.05 Q134.191 1124.4 136.135 1125.09 Z" fill="#000000" fill-rule="evenodd" fill-opacity="1" /><path clip-path="url(#clip550)" d="M 0 0 M143.45 1153.01 L148.334 1153.01 L148.334 1158.89 L143.45 1158.89 L143.45 1153.01 Z" fill="#000000" fill-rule="evenodd" fill-opacity="1" /><path clip-path="url(#clip550)" d="M 0 0 M152.223 1124.33 L174.445 1124.33 L174.445 1126.32 L161.899 1158.89 L157.015 1158.89 L168.82 1128.27 L152.223 1128.27 L152.223 1124.33 Z" fill="#000000" fill-rule="evenodd" fill-opacity="1" /><path clip-path="url(#clip550)" d="M 0 0 M179.561 1124.33 L197.917 1124.33 L197.917 1128.27 L183.843 1128.27 L183.843 1136.74 Q184.862 1136.39 185.88 1136.23 Q186.899 1136.04 187.917 1136.04 Q193.704 1136.04 197.084 1139.22 Q200.463 1142.39 200.463 1147.8 Q200.463 1153.38 196.991 1156.48 Q193.519 1159.56 187.2 1159.56 Q185.024 1159.56 182.755 1159.19 Q180.51 1158.82 178.102 1158.08 L178.102 1153.38 Q180.186 1154.52 182.408 1155.07 Q184.63 1155.63 187.107 1155.63 Q191.112 1155.63 193.45 1153.52 Q195.787 1151.41 195.787 1147.8 Q195.787 1144.19 193.45 1142.09 Q191.112 1139.98 187.107 1139.98 Q185.232 1139.98 183.357 1140.4 Q181.505 1140.81 179.561 1141.69 L179.561 1124.33 Z" fill="#000000" fill-rule="evenodd" fill-opacity="1" /><path clip-path="url(#clip550)" d="M 0 0 M114.26 802.715 L136.482 802.715 L136.482 804.706 L123.936 837.275 L119.052 837.275 L130.857 806.65 L114.26 806.65 L114.26 802.715 Z" fill="#000000" fill-rule="evenodd" fill-opacity="1" /><path clip-path="url(#clip550)" d="M 0 0 M141.552 831.395 L146.436 831.395 L146.436 837.275 L141.552 837.275 L141.552 831.395 Z" fill="#000000" fill-rule="evenodd" fill-opacity="1" /><path clip-path="url(#clip550)" d="M 0 0 M161.505 805.793 Q157.894 805.793 156.065 809.358 Q154.26 812.9 154.26 820.03 Q154.26 827.136 156.065 830.701 Q157.894 834.242 161.505 834.242 Q165.14 834.242 166.945 830.701 Q168.774 827.136 168.774 820.03 Q168.774 812.9 166.945 809.358 Q165.14 805.793 161.505 805.793 M161.505 802.09 Q167.315 802.09 170.371 806.696 Q173.45 811.28 173.45 820.03 Q173.45 828.756 170.371 833.363 Q167.315 837.946 161.505 837.946 Q155.695 837.946 152.616 833.363 Q149.561 828.756 149.561 820.03 Q149.561 811.28 152.616 806.696 Q155.695 802.09 161.505 802.09 Z" fill="#000000" fill-rule="evenodd" fill-opacity="1" /><path clip-path="url(#clip550)" d="M 0 0 M188.519 805.793 Q184.908 805.793 183.079 809.358 Q181.274 812.9 181.274 820.03 Q181.274 827.136 183.079 830.701 Q184.908 834.242 188.519 834.242 Q192.153 834.242 193.959 830.701 Q195.787 827.136 195.787 820.03 Q195.787 812.9 193.959 809.358 Q192.153 805.793 188.519 805.793 M188.519 802.09 Q194.329 802.09 197.385 806.696 Q200.463 811.28 200.463 820.03 Q200.463 828.756 197.385 833.363 Q194.329 837.946 188.519 837.946 Q182.709 837.946 179.63 833.363 Q176.575 828.756 176.575 820.03 Q176.575 811.28 179.63 806.696 Q182.709 802.09 188.519 802.09 Z" fill="#000000" fill-rule="evenodd" fill-opacity="1" /><path clip-path="url(#clip550)" d="M 0 0 M116.853 481.099 L139.075 481.099 L139.075 483.089 L126.529 515.659 L121.644 515.659 L133.45 485.034 L116.853 485.034 L116.853 481.099 Z" fill="#000000" fill-rule="evenodd" fill-opacity="1" /><path clip-path="url(#clip550)" d="M 0 0 M144.144 509.779 L149.028 509.779 L149.028 515.659 L144.144 515.659 L144.144 509.779 Z" fill="#000000" fill-rule="evenodd" fill-opacity="1" /><path clip-path="url(#clip550)" d="M 0 0 M158.126 511.723 L174.445 511.723 L174.445 515.659 L152.501 515.659 L152.501 511.723 Q155.163 508.969 159.746 504.339 Q164.352 499.687 165.533 498.344 Q167.778 495.821 168.658 494.085 Q169.561 492.325 169.561 490.636 Q169.561 487.881 167.616 486.145 Q165.695 484.409 162.593 484.409 Q160.394 484.409 157.94 485.173 Q155.51 485.937 152.732 487.487 L152.732 482.765 Q155.556 481.631 158.01 481.052 Q160.464 480.474 162.501 480.474 Q167.871 480.474 171.065 483.159 Q174.26 485.844 174.26 490.335 Q174.26 492.464 173.45 494.386 Q172.663 496.284 170.556 498.876 Q169.977 499.548 166.876 502.765 Q163.774 505.96 158.126 511.723 Z" fill="#000000" fill-rule="evenodd" fill-opacity="1" /><path clip-path="url(#clip550)" d="M 0 0 M179.561 481.099 L197.917 481.099 L197.917 485.034 L183.843 485.034 L183.843 493.506 Q184.862 493.159 185.88 492.997 Q186.899 492.812 187.917 492.812 Q193.704 492.812 197.084 495.983 Q200.463 499.154 200.463 504.571 Q200.463 510.149 196.991 513.251 Q193.519 516.33 187.2 516.33 Q185.024 516.33 182.755 515.96 Q180.51 515.589 178.102 514.848 L178.102 510.149 Q180.186 511.284 182.408 511.839 Q184.63 512.395 187.107 512.395 Q191.112 512.395 193.45 510.288 Q195.787 508.182 195.787 504.571 Q195.787 500.96 193.45 498.853 Q191.112 496.747 187.107 496.747 Q185.232 496.747 183.357 497.163 Q181.505 497.58 179.561 498.46 L179.561 481.099 Z" fill="#000000" fill-rule="evenodd" fill-opacity="1" /><path clip-path="url(#clip550)" d="M 0 0 M115.256 159.482 L137.478 159.482 L137.478 161.473 L124.931 194.042 L120.047 194.042 L131.853 163.418 L115.256 163.418 L115.256 159.482 Z" fill="#000000" fill-rule="evenodd" fill-opacity="1" /><path clip-path="url(#clip550)" d="M 0 0 M142.547 188.163 L147.431 188.163 L147.431 194.042 L142.547 194.042 L142.547 188.163 Z" fill="#000000" fill-rule="evenodd" fill-opacity="1" /><path clip-path="url(#clip550)" d="M 0 0 M152.547 159.482 L170.903 159.482 L170.903 163.418 L156.829 163.418 L156.829 171.89 Q157.848 171.543 158.866 171.381 Q159.885 171.195 160.903 171.195 Q166.69 171.195 170.07 174.367 Q173.45 177.538 173.45 182.955 Q173.45 188.533 169.977 191.635 Q166.505 194.714 160.186 194.714 Q158.01 194.714 155.741 194.343 Q153.496 193.973 151.089 193.232 L151.089 188.533 Q153.172 189.667 155.394 190.223 Q157.616 190.779 160.093 190.779 Q164.098 190.779 166.436 188.672 Q168.774 186.566 168.774 182.955 Q168.774 179.343 166.436 177.237 Q164.098 175.131 160.093 175.131 Q158.218 175.131 156.343 175.547 Q154.491 175.964 152.547 176.843 L152.547 159.482 Z" fill="#000000" fill-rule="evenodd" fill-opacity="1" /><path clip-path="url(#clip550)" d="M 0 0 M188.519 162.561 Q184.908 162.561 183.079 166.126 Q181.274 169.668 181.274 176.797 Q181.274 183.904 183.079 187.468 Q184.908 191.01 188.519 191.01 Q192.153 191.01 193.959 187.468 Q195.787 183.904 195.787 176.797 Q195.787 169.668 193.959 166.126 Q192.153 162.561 188.519 162.561 M188.519 158.857 Q194.329 158.857 197.385 163.464 Q200.463 168.047 200.463 176.797 Q200.463 185.524 197.385 190.13 Q194.329 194.714 188.519 194.714 Q182.709 194.714 179.63 190.13 Q176.575 185.524 176.575 176.797 Q176.575 168.047 179.63 163.464 Q182.709 158.857 188.519 158.857 Z" fill="#000000" fill-rule="evenodd" fill-opacity="1" /><path clip-path="url(#clip550)" d="M 0 0 M59.1993 815.533 Q55.2526 813.336 53.3747 810.281 Q51.4968 807.225 51.4968 803.088 Q51.4968 797.518 55.4117 794.494 Q59.2948 791.47 66.4881 791.47 L88.0042 791.47 L88.0042 797.358 L66.679 797.358 Q61.5546 797.358 59.072 799.173 Q56.5894 800.987 56.5894 804.711 Q56.5894 809.262 59.6131 811.904 Q62.6368 814.546 67.8567 814.546 L88.0042 814.546 L88.0042 820.434 L66.679 820.434 Q61.5228 820.434 59.072 822.248 Q56.5894 824.063 56.5894 827.85 Q56.5894 832.338 59.6449 834.98 Q62.6686 837.622 67.8567 837.622 L88.0042 837.622 L88.0042 843.51 L52.3562 843.51 L52.3562 837.622 L57.8944 837.622 Q54.616 835.616 53.0564 832.815 Q51.4968 830.015 51.4968 826.163 Q51.4968 822.28 53.4702 819.575 Q55.4436 816.838 59.1993 815.533 Z" fill="#000000" fill-rule="evenodd" fill-opacity="1" /><path clip-path="url(#clip550)" d="M 0 0 M52.3562 785.327 L52.3562 779.471 L88.0042 779.471 L88.0042 785.327 L52.3562 785.327 M38.479 785.327 L38.479 779.471 L45.895 779.471 L45.895 785.327 L38.479 785.327 Z" fill="#000000" fill-rule="evenodd" fill-opacity="1" /><path clip-path="url(#clip550)" d="M 0 0 M66.4881 743.696 L88.0042 743.696 L88.0042 749.552 L66.679 749.552 Q61.6183 749.552 59.1038 751.525 Q56.5894 753.499 56.5894 757.446 Q56.5894 762.188 59.6131 764.925 Q62.6368 767.662 67.8567 767.662 L88.0042 767.662 L88.0042 773.551 L52.3562 773.551 L52.3562 767.662 L57.8944 767.662 Q54.6797 765.562 53.0883 762.729 Q51.4968 759.864 51.4968 756.141 Q51.4968 749.998 55.3163 746.847 Q59.1038 743.696 66.4881 743.696 Z" fill="#000000" fill-rule="evenodd" fill-opacity="1" /><path clip-path="url(#clip550)" d="M 0 0 M98.8259 710.467 L103.377 710.467 L103.377 744.332 L98.8259 744.332 L98.8259 710.467 Z" fill="#000000" fill-rule="evenodd" fill-opacity="1" /><path clip-path="url(#clip550)" d="M 0 0 M57.7671 680.866 L38.479 680.866 L38.479 675.01 L88.0042 675.01 L88.0042 680.866 L82.657 680.866 Q85.8398 682.712 87.3994 685.545 Q88.9272 688.346 88.9272 692.292 Q88.9272 698.754 83.771 702.828 Q78.6147 706.87 70.212 706.87 Q61.8093 706.87 56.6531 702.828 Q51.4968 698.754 51.4968 692.292 Q51.4968 688.346 53.0564 685.545 Q54.5842 682.712 57.7671 680.866 M70.212 700.823 Q76.6732 700.823 80.3653 698.181 Q84.0256 695.507 84.0256 690.86 Q84.0256 686.213 80.3653 683.54 Q76.6732 680.866 70.212 680.866 Q63.7508 680.866 60.0905 683.54 Q56.3984 686.213 56.3984 690.86 Q56.3984 695.507 60.0905 698.181 Q63.7508 700.823 70.212 700.823 Z" fill="#000000" fill-rule="evenodd" fill-opacity="1" /><path clip-path="url(#clip550)" d="M 0 0 M52.3562 668.867 L52.3562 663.01 L88.0042 663.01 L88.0042 668.867 L52.3562 668.867 M38.479 668.867 L38.479 663.01 L45.895 663.01 L45.895 668.867 L38.479 668.867 Z" fill="#000000" fill-rule="evenodd" fill-opacity="1" /><path clip-path="url(#clip550)" d="M 0 0 M38.479 638.821 L43.3487 638.821 L43.3487 644.422 Q43.3487 647.573 44.6219 648.815 Q45.895 650.024 49.2052 650.024 L52.3562 650.024 L52.3562 640.38 L56.9077 640.38 L56.9077 650.024 L88.0042 650.024 L88.0042 655.912 L56.9077 655.912 L56.9077 661.514 L52.3562 661.514 L52.3562 655.912 L49.8736 655.912 Q43.9216 655.912 41.2162 653.143 Q38.479 650.374 38.479 644.359 L38.479 638.821 Z" fill="#000000" fill-rule="evenodd" fill-opacity="1" /><path clip-path="url(#clip550)" d="M 0 0 M38.479 614.631 L43.3487 614.631 L43.3487 620.233 Q43.3487 623.384 44.6219 624.625 Q45.895 625.835 49.2052 625.835 L52.3562 625.835 L52.3562 616.19 L56.9077 616.19 L56.9077 625.835 L88.0042 625.835 L88.0042 631.723 L56.9077 631.723 L56.9077 637.325 L52.3562 637.325 L52.3562 631.723 L49.8736 631.723 Q43.9216 631.723 41.2162 628.954 Q38.479 626.185 38.479 620.169 L38.479 614.631 Z" fill="#000000" fill-rule="evenodd" fill-opacity="1" /><path clip-path="url(#clip550)" d="
M1996.05 213.659 L2282.21 213.659 L2282.21 92.6992 L1996.05 92.6992  Z
  " fill="#ffffff" fill-rule="evenodd" fill-opacity="1"/>
<polyline clip-path="url(#clip550)" style="stroke:#000000; stroke-width:4; stroke-opacity:1; fill:none" points="
  1996.05,213.659 2282.21,213.659 2282.21,92.6992 1996.05,92.6992 1996.05,213.659 
  "/>
<polyline clip-path="url(#clip550)" style="stroke:#009af9; stroke-width:4; stroke-opacity:1; fill:none" stroke-dasharray="16, 10" points="
  2019.57,153.179 2160.65,153.179 
  "/>
<path clip-path="url(#clip550)" d="M 0 0 M2198.01 172.867 Q2196.2 177.496 2194.49 178.908 Q2192.78 180.32 2189.91 180.32 L2186.5 180.32 L2186.5 176.755 L2189 176.755 Q2190.76 176.755 2191.74 175.922 Q2192.71 175.089 2193.89 171.987 L2194.65 170.043 L2184.17 144.533 L2188.68 144.533 L2196.78 164.811 L2204.88 144.533 L2209.4 144.533 L2198.01 172.867 Z" fill="#000000" fill-rule="evenodd" fill-opacity="1" /><path clip-path="url(#clip550)" d="M 0 0 M2215.28 166.524 L2222.92 166.524 L2222.92 140.158 L2214.61 141.825 L2214.61 137.566 L2222.87 135.899 L2227.55 135.899 L2227.55 166.524 L2235.18 166.524 L2235.18 170.459 L2215.28 170.459 L2215.28 166.524 Z" fill="#000000" fill-rule="evenodd" fill-opacity="1" /></svg>
