<?xml version="1.0" encoding="utf-8"?>
<svg xmlns="http://www.w3.org/2000/svg" xmlns:xlink="http://www.w3.org/1999/xlink" width="600" height="400" viewBox="0 0 2400 1600">
<defs>
  <clipPath id="clip600">
    <rect x="0" y="0" width="2400" height="1600"/>
  </clipPath>
</defs>
<path clip-path="url(#clip600)" d="
M0 1600 L2400 1600 L2400 0 L0 0  Z
  " fill="#ffffff" fill-rule="evenodd" fill-opacity="1"/>
<defs>
  <clipPath id="clip601">
    <rect x="480" y="0" width="1681" height="1600"/>
  </clipPath>
</defs>
<path clip-path="url(#clip600)" d="
M199.704 1410.9 L2352.76 1410.9 L2352.76 47.2441 L199.704 47.2441  Z
  " fill="#ffffff" fill-rule="evenodd" fill-opacity="1"/>
<defs>
  <clipPath id="clip602">
    <rect x="199" y="47" width="2154" height="1365"/>
  </clipPath>
</defs>
<polyline clip-path="url(#clip602)" style="stroke:#000000; stroke-width:2; stroke-opacity:0.1; fill:none" points="
  260.64,1410.9 260.64,47.2441 
  "/>
<polyline clip-path="url(#clip602)" style="stroke:#000000; stroke-width:2; stroke-opacity:0.1; fill:none" points="
  666.876,1410.9 666.876,47.2441 
  "/>
<polyline clip-path="url(#clip602)" style="stroke:#000000; stroke-width:2; stroke-opacity:0.1; fill:none" points="
  1073.11,1410.9 1073.11,47.2441 
  "/>
<polyline clip-path="url(#clip602)" style="stroke:#000000; stroke-width:2; stroke-opacity:0.1; fill:none" points="
  1479.35,1410.9 1479.35,47.2441 
  "/>
<polyline clip-path="url(#clip602)" style="stroke:#000000; stroke-width:2; stroke-opacity:0.1; fill:none" points="
  1885.58,1410.9 1885.58,47.2441 
  "/>
<polyline clip-path="url(#clip602)" style="stroke:#000000; stroke-width:2; stroke-opacity:0.1; fill:none" points="
  2291.82,1410.9 2291.82,47.2441 
  "/>
<polyline clip-path="url(#clip600)" style="stroke:#000000; stroke-width:4; stroke-opacity:1; fill:none" points="
  199.704,1410.9 2352.76,1410.9 
  "/>
<polyline clip-path="url(#clip600)" style="stroke:#000000; stroke-width:4; stroke-opacity:1; fill:none" points="
  260.64,1410.9 260.64,1394.53 
  "/>
<polyline clip-path="url(#clip600)" style="stroke:#000000; stroke-width:4; stroke-opacity:1; fill:none" points="
  666.876,1410.9 666.876,1394.53 
  "/>
<polyline clip-path="url(#clip600)" style="stroke:#000000; stroke-width:4; stroke-opacity:1; fill:none" points="
  1073.11,1410.9 1073.11,1394.53 
  "/>
<polyline clip-path="url(#clip600)" style="stroke:#000000; stroke-width:4; stroke-opacity:1; fill:none" points="
  1479.35,1410.9 1479.35,1394.53 
  "/>
<polyline clip-path="url(#clip600)" style="stroke:#000000; stroke-width:4; stroke-opacity:1; fill:none" points="
  1885.58,1410.9 1885.58,1394.53 
  "/>
<polyline clip-path="url(#clip600)" style="stroke:#000000; stroke-width:4; stroke-opacity:1; fill:none" points="
  2291.82,1410.9 2291.82,1394.53 
  "/>
<path clip-path="url(#clip600)" d="M 0 0 M200.116 1489.17 L207.754 1489.17 L207.754 1462.8 L199.444 1464.47 L199.444 1460.21 L207.708 1458.54 L212.384 1458.54 L212.384 1489.17 L220.023 1489.17 L220.023 1493.1 L200.116 1493.1 L200.116 1489.17 Z" fill="#000000" fill-rule="evenodd" fill-opacity="1" /><path clip-path="url(#clip600)" d="M 0 0 M235.092 1461.62 Q231.481 1461.62 229.653 1465.19 Q227.847 1468.73 227.847 1475.86 Q227.847 1482.97 229.653 1486.53 Q231.481 1490.07 235.092 1490.07 Q238.727 1490.07 240.532 1486.53 Q242.361 1482.97 242.361 1475.86 Q242.361 1468.73 240.532 1465.19 Q238.727 1461.62 235.092 1461.62 M235.092 1457.92 Q240.902 1457.92 243.958 1462.53 Q247.037 1467.11 247.037 1475.86 Q247.037 1484.59 243.958 1489.19 Q240.902 1493.78 235.092 1493.78 Q229.282 1493.78 226.203 1489.19 Q223.148 1484.59 223.148 1475.86 Q223.148 1467.11 226.203 1462.53 Q229.282 1457.92 235.092 1457.92 Z" fill="#000000" fill-rule="evenodd" fill-opacity="1" /><path clip-path="url(#clip600)" d="M 0 0 M247.037 1452.02 L271.148 1452.02 L271.148 1455.22 L247.037 1455.22 L247.037 1452.02 Z" fill="#000000" fill-rule="evenodd" fill-opacity="1" /><path clip-path="url(#clip600)" d="M 0 0 M278.54 1462.5 L291.799 1462.5 L291.799 1465.69 L273.969 1465.69 L273.969 1462.5 Q276.132 1460.26 279.856 1456.5 Q283.599 1452.72 284.558 1451.63 Q286.383 1449.58 287.097 1448.16 Q287.831 1446.74 287.831 1445.36 Q287.831 1443.12 286.251 1441.71 Q284.69 1440.3 282.17 1440.3 Q280.383 1440.3 278.389 1440.92 Q276.414 1441.54 274.157 1442.8 L274.157 1438.97 Q276.452 1438.05 278.446 1437.58 Q280.439 1437.11 282.094 1437.11 Q286.458 1437.11 289.053 1439.29 Q291.649 1441.47 291.649 1445.12 Q291.649 1446.85 290.99 1448.41 Q290.351 1449.95 288.639 1452.06 Q288.169 1452.6 285.649 1455.22 Q283.129 1457.81 278.54 1462.5 Z" fill="#000000" fill-rule="evenodd" fill-opacity="1" /><path clip-path="url(#clip600)" d="M 0 0 M295.918 1460.92 L299.887 1460.92 L299.887 1465.69 L295.918 1465.69 L295.918 1460.92 Z" fill="#000000" fill-rule="evenodd" fill-opacity="1" /><path clip-path="url(#clip600)" d="M 0 0 M312.13 1440.11 Q309.196 1440.11 307.711 1443.01 Q306.244 1445.89 306.244 1451.68 Q306.244 1457.46 307.711 1460.35 Q309.196 1463.23 312.13 1463.23 Q315.083 1463.23 316.55 1460.35 Q318.036 1457.46 318.036 1451.68 Q318.036 1445.89 316.55 1443.01 Q315.083 1440.11 312.13 1440.11 M312.13 1437.11 Q316.851 1437.11 319.334 1440.85 Q321.835 1444.57 321.835 1451.68 Q321.835 1458.77 319.334 1462.51 Q316.851 1466.24 312.13 1466.24 Q307.41 1466.24 304.908 1462.51 Q302.426 1458.77 302.426 1451.68 Q302.426 1444.57 304.908 1440.85 Q307.41 1437.11 312.13 1437.11 Z" fill="#000000" fill-rule="evenodd" fill-opacity="1" /><path clip-path="url(#clip600)" d="M 0 0 M606.277 1489.17 L613.915 1489.17 L613.915 1462.8 L605.605 1464.47 L605.605 1460.21 L613.869 1458.54 L618.545 1458.54 L618.545 1489.17 L626.184 1489.17 L626.184 1493.1 L606.277 1493.1 L606.277 1489.17 Z" fill="#000000" fill-rule="evenodd" fill-opacity="1" /><path clip-path="url(#clip600)" d="M 0 0 M641.253 1461.62 Q637.642 1461.62 635.813 1465.19 Q634.008 1468.73 634.008 1475.86 Q634.008 1482.97 635.813 1486.53 Q637.642 1490.07 641.253 1490.07 Q644.887 1490.07 646.693 1486.53 Q648.522 1482.97 648.522 1475.86 Q648.522 1468.73 646.693 1465.19 Q644.887 1461.62 641.253 1461.62 M641.253 1457.92 Q647.063 1457.92 650.119 1462.53 Q653.198 1467.11 653.198 1475.86 Q653.198 1484.59 650.119 1489.19 Q647.063 1493.78 641.253 1493.78 Q635.443 1493.78 632.364 1489.19 Q629.309 1484.59 629.309 1475.86 Q629.309 1467.11 632.364 1462.53 Q635.443 1457.92 641.253 1457.92 Z" fill="#000000" fill-rule="evenodd" fill-opacity="1" /><path clip-path="url(#clip600)" d="M 0 0 M653.198 1452.02 L677.309 1452.02 L677.309 1455.22 L653.198 1455.22 L653.198 1452.02 Z" fill="#000000" fill-rule="evenodd" fill-opacity="1" /><path clip-path="url(#clip600)" d="M 0 0 M682.086 1462.5 L688.293 1462.5 L688.293 1441.07 L681.541 1442.43 L681.541 1438.97 L688.255 1437.61 L692.054 1437.61 L692.054 1462.5 L698.261 1462.5 L698.261 1465.69 L682.086 1465.69 L682.086 1462.5 Z" fill="#000000" fill-rule="evenodd" fill-opacity="1" /><path clip-path="url(#clip600)" d="M 0 0 M702.38 1460.92 L706.348 1460.92 L706.348 1465.69 L702.38 1465.69 L702.38 1460.92 Z" fill="#000000" fill-rule="evenodd" fill-opacity="1" /><path clip-path="url(#clip600)" d="M 0 0 M710.58 1465.11 L710.58 1461.65 Q712.009 1462.33 713.476 1462.68 Q714.943 1463.04 716.354 1463.04 Q720.116 1463.04 722.09 1460.52 Q724.084 1457.98 724.366 1452.83 Q723.275 1454.45 721.601 1455.31 Q719.928 1456.18 717.896 1456.18 Q713.683 1456.18 711.22 1453.64 Q708.775 1451.08 708.775 1446.66 Q708.775 1442.33 711.332 1439.72 Q713.89 1437.11 718.141 1437.11 Q723.012 1437.11 725.57 1440.85 Q728.147 1444.57 728.147 1451.68 Q728.147 1458.32 724.987 1462.29 Q721.846 1466.24 716.523 1466.24 Q715.094 1466.24 713.627 1465.96 Q712.16 1465.67 710.58 1465.11 M718.141 1453.21 Q720.699 1453.21 722.184 1451.46 Q723.689 1449.71 723.689 1446.66 Q723.689 1443.63 722.184 1441.88 Q720.699 1440.11 718.141 1440.11 Q715.583 1440.11 714.078 1441.88 Q712.593 1443.63 712.593 1446.66 Q712.593 1449.71 714.078 1451.46 Q715.583 1453.21 718.141 1453.21 Z" fill="#000000" fill-rule="evenodd" fill-opacity="1" /><path clip-path="url(#clip600)" d="M 0 0 M1012.48 1489.17 L1020.11 1489.17 L1020.11 1462.8 L1011.8 1464.47 L1011.8 1460.21 L1020.07 1458.54 L1024.74 1458.54 L1024.74 1489.17 L1032.38 1489.17 L1032.38 1493.1 L1012.48 1493.1 L1012.48 1489.17 Z" fill="#000000" fill-rule="evenodd" fill-opacity="1" /><path clip-path="url(#clip600)" d="M 0 0 M1047.45 1461.62 Q1043.84 1461.62 1042.01 1465.19 Q1040.21 1468.73 1040.21 1475.86 Q1040.21 1482.97 1042.01 1486.53 Q1043.84 1490.07 1047.45 1490.07 Q1051.09 1490.07 1052.89 1486.53 Q1054.72 1482.97 1054.72 1475.86 Q1054.72 1468.73 1052.89 1465.19 Q1051.09 1461.62 1047.45 1461.62 M1047.45 1457.92 Q1053.26 1457.92 1056.32 1462.53 Q1059.4 1467.11 1059.4 1475.86 Q1059.4 1484.59 1056.32 1489.19 Q1053.26 1493.78 1047.45 1493.78 Q1041.64 1493.78 1038.56 1489.19 Q1035.51 1484.59 1035.51 1475.86 Q1035.51 1467.11 1038.56 1462.53 Q1041.64 1457.92 1047.45 1457.92 Z" fill="#000000" fill-rule="evenodd" fill-opacity="1" /><path clip-path="url(#clip600)" d="M 0 0 M1059.4 1452.02 L1083.51 1452.02 L1083.51 1455.22 L1059.4 1455.22 L1059.4 1452.02 Z" fill="#000000" fill-rule="evenodd" fill-opacity="1" /><path clip-path="url(#clip600)" d="M 0 0 M1088.28 1462.5 L1094.49 1462.5 L1094.49 1441.07 L1087.74 1442.43 L1087.74 1438.97 L1094.45 1437.61 L1098.25 1437.61 L1098.25 1462.5 L1104.46 1462.5 L1104.46 1465.69 L1088.28 1465.69 L1088.28 1462.5 Z" fill="#000000" fill-rule="evenodd" fill-opacity="1" /><path clip-path="url(#clip600)" d="M 0 0 M1108.58 1460.92 L1112.55 1460.92 L1112.55 1465.69 L1108.58 1465.69 L1108.58 1460.92 Z" fill="#000000" fill-rule="evenodd" fill-opacity="1" /><path clip-path="url(#clip600)" d="M 0 0 M1124.79 1452.36 Q1122.08 1452.36 1120.52 1453.81 Q1118.98 1455.26 1118.98 1457.79 Q1118.98 1460.33 1120.52 1461.78 Q1122.08 1463.23 1124.79 1463.23 Q1127.5 1463.23 1129.06 1461.78 Q1130.62 1460.31 1130.62 1457.79 Q1130.62 1455.26 1129.06 1453.81 Q1127.52 1452.36 1124.79 1452.36 M1120.99 1450.74 Q1118.55 1450.14 1117.17 1448.47 Q1115.82 1446.79 1115.82 1444.38 Q1115.82 1441.02 1118.21 1439.06 Q1120.62 1437.11 1124.79 1437.11 Q1128.98 1437.11 1131.37 1439.06 Q1133.76 1441.02 1133.76 1444.38 Q1133.76 1446.79 1132.39 1448.47 Q1131.03 1450.14 1128.61 1450.74 Q1131.35 1451.38 1132.88 1453.24 Q1134.42 1455.1 1134.42 1457.79 Q1134.42 1461.88 1131.92 1464.06 Q1129.44 1466.24 1124.79 1466.24 Q1120.15 1466.24 1117.64 1464.06 Q1115.16 1461.88 1115.16 1457.79 Q1115.16 1455.1 1116.7 1453.24 Q1118.25 1451.38 1120.99 1450.74 M1119.6 1444.74 Q1119.6 1446.92 1120.95 1448.15 Q1122.33 1449.37 1124.79 1449.37 Q1127.24 1449.37 1128.61 1448.15 Q1130 1446.92 1130 1444.74 Q1130 1442.56 1128.61 1441.34 Q1127.24 1440.11 1124.79 1440.11 Q1122.33 1440.11 1120.95 1441.34 Q1119.6 1442.56 1119.6 1444.74 Z" fill="#000000" fill-rule="evenodd" fill-opacity="1" /><path clip-path="url(#clip600)" d="M 0 0 M1419.04 1489.17 L1426.68 1489.17 L1426.68 1462.8 L1418.37 1464.47 L1418.37 1460.21 L1426.63 1458.54 L1431.31 1458.54 L1431.31 1489.17 L1438.95 1489.17 L1438.95 1493.1 L1419.04 1493.1 L1419.04 1489.17 Z" fill="#000000" fill-rule="evenodd" fill-opacity="1" /><path clip-path="url(#clip600)" d="M 0 0 M1454.02 1461.62 Q1450.41 1461.62 1448.58 1465.19 Q1446.77 1468.73 1446.77 1475.86 Q1446.77 1482.97 1448.58 1486.53 Q1450.41 1490.07 1454.02 1490.07 Q1457.65 1490.07 1459.46 1486.53 Q1461.29 1482.97 1461.29 1475.86 Q1461.29 1468.73 1459.46 1465.19 Q1457.65 1461.62 1454.02 1461.62 M1454.02 1457.92 Q1459.83 1457.92 1462.88 1462.53 Q1465.96 1467.11 1465.96 1475.86 Q1465.96 1484.59 1462.88 1489.19 Q1459.83 1493.78 1454.02 1493.78 Q1448.21 1493.78 1445.13 1489.19 Q1442.07 1484.59 1442.07 1475.86 Q1442.07 1467.11 1445.13 1462.53 Q1448.21 1457.92 1454.02 1457.92 Z" fill="#000000" fill-rule="evenodd" fill-opacity="1" /><path clip-path="url(#clip600)" d="M 0 0 M1465.96 1452.02 L1490.07 1452.02 L1490.07 1455.22 L1465.96 1455.22 L1465.96 1452.02 Z" fill="#000000" fill-rule="evenodd" fill-opacity="1" /><path clip-path="url(#clip600)" d="M 0 0 M1494.85 1462.5 L1501.06 1462.5 L1501.06 1441.07 L1494.3 1442.43 L1494.3 1438.97 L1501.02 1437.61 L1504.82 1437.61 L1504.82 1462.5 L1511.02 1462.5 L1511.02 1465.69 L1494.85 1465.69 L1494.85 1462.5 Z" fill="#000000" fill-rule="evenodd" fill-opacity="1" /><path clip-path="url(#clip600)" d="M 0 0 M1515.14 1460.92 L1519.11 1460.92 L1519.11 1465.69 L1515.14 1465.69 L1515.14 1460.92 Z" fill="#000000" fill-rule="evenodd" fill-opacity="1" /><path clip-path="url(#clip600)" d="M 0 0 M1522.27 1437.61 L1540.33 1437.61 L1540.33 1439.23 L1530.13 1465.69 L1526.17 1465.69 L1535.76 1440.81 L1522.27 1440.81 L1522.27 1437.61 Z" fill="#000000" fill-rule="evenodd" fill-opacity="1" /><path clip-path="url(#clip600)" d="M 0 0 M1824.84 1489.17 L1832.48 1489.17 L1832.48 1462.8 L1824.17 1464.47 L1824.17 1460.21 L1832.44 1458.54 L1837.11 1458.54 L1837.11 1489.17 L1844.75 1489.17 L1844.75 1493.1 L1824.84 1493.1 L1824.84 1489.17 Z" fill="#000000" fill-rule="evenodd" fill-opacity="1" /><path clip-path="url(#clip600)" d="M 0 0 M1859.82 1461.62 Q1856.21 1461.62 1854.38 1465.19 Q1852.58 1468.73 1852.58 1475.86 Q1852.58 1482.97 1854.38 1486.53 Q1856.21 1490.07 1859.82 1490.07 Q1863.45 1490.07 1865.26 1486.53 Q1867.09 1482.97 1867.09 1475.86 Q1867.09 1468.73 1865.26 1465.19 Q1863.45 1461.62 1859.82 1461.62 M1859.82 1457.92 Q1865.63 1457.92 1868.69 1462.53 Q1871.76 1467.11 1871.76 1475.86 Q1871.76 1484.59 1868.69 1489.19 Q1865.63 1493.78 1859.82 1493.78 Q1854.01 1493.78 1850.93 1489.19 Q1847.88 1484.59 1847.88 1475.86 Q1847.88 1467.11 1850.93 1462.53 Q1854.01 1457.92 1859.82 1457.92 Z" fill="#000000" fill-rule="evenodd" fill-opacity="1" /><path clip-path="url(#clip600)" d="M 0 0 M1871.76 1452.02 L1895.88 1452.02 L1895.88 1455.22 L1871.76 1455.22 L1871.76 1452.02 Z" fill="#000000" fill-rule="evenodd" fill-opacity="1" /><path clip-path="url(#clip600)" d="M 0 0 M1900.65 1462.5 L1906.86 1462.5 L1906.86 1441.07 L1900.11 1442.43 L1900.11 1438.97 L1906.82 1437.61 L1910.62 1437.61 L1910.62 1462.5 L1916.83 1462.5 L1916.83 1465.69 L1900.65 1465.69 L1900.65 1462.5 Z" fill="#000000" fill-rule="evenodd" fill-opacity="1" /><path clip-path="url(#clip600)" d="M 0 0 M1920.95 1460.92 L1924.92 1460.92 L1924.92 1465.69 L1920.95 1465.69 L1920.95 1460.92 Z" fill="#000000" fill-rule="evenodd" fill-opacity="1" /><path clip-path="url(#clip600)" d="M 0 0 M1937.63 1450.14 Q1935.07 1450.14 1933.57 1451.89 Q1932.08 1453.64 1932.08 1456.68 Q1932.08 1459.71 1933.57 1461.48 Q1935.07 1463.23 1937.63 1463.23 Q1940.19 1463.23 1941.67 1461.48 Q1943.18 1459.71 1943.18 1456.68 Q1943.18 1453.64 1941.67 1451.89 Q1940.19 1450.14 1937.63 1450.14 M1945.17 1438.23 L1945.17 1441.69 Q1943.74 1441.02 1942.28 1440.66 Q1940.83 1440.3 1939.4 1440.3 Q1935.64 1440.3 1933.64 1442.84 Q1931.67 1445.38 1931.39 1450.52 Q1932.5 1448.88 1934.17 1448.01 Q1935.84 1447.13 1937.86 1447.13 Q1942.09 1447.13 1944.53 1449.71 Q1947 1452.26 1947 1456.68 Q1947 1461.01 1944.44 1463.62 Q1941.88 1466.24 1937.63 1466.24 Q1932.76 1466.24 1930.18 1462.51 Q1927.61 1458.77 1927.61 1451.68 Q1927.61 1445.02 1930.76 1441.07 Q1933.92 1437.11 1939.25 1437.11 Q1940.68 1437.11 1942.12 1437.39 Q1943.59 1437.67 1945.17 1438.23 Z" fill="#000000" fill-rule="evenodd" fill-opacity="1" /><path clip-path="url(#clip600)" d="M 0 0 M2231.55 1489.17 L2239.19 1489.17 L2239.19 1462.8 L2230.88 1464.47 L2230.88 1460.21 L2239.14 1458.54 L2243.82 1458.54 L2243.82 1489.17 L2251.46 1489.17 L2251.46 1493.1 L2231.55 1493.1 L2231.55 1489.17 Z" fill="#000000" fill-rule="evenodd" fill-opacity="1" /><path clip-path="url(#clip600)" d="M 0 0 M2266.53 1461.62 Q2262.92 1461.62 2261.09 1465.19 Q2259.28 1468.73 2259.28 1475.86 Q2259.28 1482.97 2261.09 1486.53 Q2262.92 1490.07 2266.53 1490.07 Q2270.16 1490.07 2271.97 1486.53 Q2273.8 1482.97 2273.8 1475.86 Q2273.8 1468.73 2271.97 1465.19 Q2270.16 1461.62 2266.53 1461.62 M2266.53 1457.92 Q2272.34 1457.92 2275.39 1462.53 Q2278.47 1467.11 2278.47 1475.86 Q2278.47 1484.59 2275.39 1489.19 Q2272.34 1493.78 2266.53 1493.78 Q2260.72 1493.78 2257.64 1489.19 Q2254.58 1484.59 2254.58 1475.86 Q2254.58 1467.11 2257.64 1462.53 Q2260.72 1457.92 2266.53 1457.92 Z" fill="#000000" fill-rule="evenodd" fill-opacity="1" /><path clip-path="url(#clip600)" d="M 0 0 M2278.47 1452.02 L2302.58 1452.02 L2302.58 1455.22 L2278.47 1455.22 L2278.47 1452.02 Z" fill="#000000" fill-rule="evenodd" fill-opacity="1" /><path clip-path="url(#clip600)" d="M 0 0 M2307.36 1462.5 L2313.57 1462.5 L2313.57 1441.07 L2306.81 1442.43 L2306.81 1438.97 L2313.53 1437.61 L2317.33 1437.61 L2317.33 1462.5 L2323.53 1462.5 L2323.53 1465.69 L2307.36 1465.69 L2307.36 1462.5 Z" fill="#000000" fill-rule="evenodd" fill-opacity="1" /><path clip-path="url(#clip600)" d="M 0 0 M2327.65 1460.92 L2331.62 1460.92 L2331.62 1465.69 L2327.65 1465.69 L2327.65 1460.92 Z" fill="#000000" fill-rule="evenodd" fill-opacity="1" /><path clip-path="url(#clip600)" d="M 0 0 M2335.78 1437.61 L2350.69 1437.61 L2350.69 1440.81 L2339.26 1440.81 L2339.26 1447.69 Q2340.09 1447.41 2340.91 1447.28 Q2341.74 1447.13 2342.57 1447.13 Q2347.27 1447.13 2350.02 1449.71 Q2352.76 1452.28 2352.76 1456.68 Q2352.76 1461.22 2349.94 1463.74 Q2347.12 1466.24 2341.99 1466.24 Q2340.22 1466.24 2338.37 1465.94 Q2336.55 1465.64 2334.59 1465.04 L2334.59 1461.22 Q2336.29 1462.14 2338.09 1462.59 Q2339.9 1463.04 2341.91 1463.04 Q2345.16 1463.04 2347.06 1461.33 Q2348.96 1459.62 2348.96 1456.68 Q2348.96 1453.75 2347.06 1452.04 Q2345.16 1450.33 2341.91 1450.33 Q2340.39 1450.33 2338.86 1450.67 Q2337.36 1451 2335.78 1451.72 L2335.78 1437.61 Z" fill="#000000" fill-rule="evenodd" fill-opacity="1" /><path clip-path="url(#clip600)" d="M 0 0 M1168.51 1526.54 L1174.71 1526.54 L1185.85 1556.46 L1196.99 1526.54 L1203.2 1526.54 L1189.83 1562.19 L1181.87 1562.19 L1168.51 1526.54 Z" fill="#000000" fill-rule="evenodd" fill-opacity="1" /><path clip-path="url(#clip600)" d="M 0 0 M1236.43 1573.01 L1236.43 1577.56 L1202.56 1577.56 L1202.56 1573.01 L1236.43 1573.01 Z" fill="#000000" fill-rule="evenodd" fill-opacity="1" /><path clip-path="url(#clip600)" d="M 0 0 M1268.23 1527.91 L1268.23 1533.38 Q1265.74 1532.01 1263.23 1531.34 Q1260.75 1530.64 1258.2 1530.64 Q1252.5 1530.64 1249.35 1534.27 Q1246.2 1537.87 1246.2 1544.39 Q1246.2 1550.92 1249.35 1554.55 Q1252.5 1558.14 1258.2 1558.14 Q1260.75 1558.14 1263.23 1557.47 Q1265.74 1556.77 1268.23 1555.41 L1268.23 1560.82 Q1265.77 1561.96 1263.13 1562.54 Q1260.52 1563.11 1257.56 1563.11 Q1249.51 1563.11 1244.77 1558.05 Q1240.03 1552.99 1240.03 1544.39 Q1240.03 1535.67 1244.8 1530.68 Q1249.61 1525.68 1257.94 1525.68 Q1260.65 1525.68 1263.23 1526.25 Q1265.81 1526.79 1268.23 1527.91 Z" fill="#000000" fill-rule="evenodd" fill-opacity="1" /><path clip-path="url(#clip600)" d="M 0 0 M1274.37 1512.66 L1280.22 1512.66 L1280.22 1562.19 L1274.37 1562.19 L1274.37 1512.66 Z" fill="#000000" fill-rule="evenodd" fill-opacity="1" /><path clip-path="url(#clip600)" d="M 0 0 M1300.18 1530.64 Q1295.47 1530.64 1292.73 1534.34 Q1290 1538 1290 1544.39 Q1290 1550.79 1292.7 1554.48 Q1295.44 1558.14 1300.18 1558.14 Q1304.86 1558.14 1307.6 1554.45 Q1310.33 1550.76 1310.33 1544.39 Q1310.33 1538.06 1307.6 1534.37 Q1304.86 1530.64 1300.18 1530.64 M1300.18 1525.68 Q1307.82 1525.68 1312.18 1530.64 Q1316.54 1535.61 1316.54 1544.39 Q1316.54 1553.15 1312.18 1558.14 Q1307.82 1563.11 1300.18 1563.11 Q1292.51 1563.11 1288.15 1558.14 Q1283.82 1553.15 1283.82 1544.39 Q1283.82 1535.61 1288.15 1530.64 Q1292.51 1525.68 1300.18 1525.68 Z" fill="#000000" fill-rule="evenodd" fill-opacity="1" /><path clip-path="url(#clip600)" d="M 0 0 M1345.41 1527.59 L1345.41 1533.13 Q1342.93 1531.85 1340.25 1531.22 Q1337.58 1530.58 1334.72 1530.58 Q1330.35 1530.58 1328.16 1531.92 Q1325.99 1533.25 1325.99 1535.93 Q1325.99 1537.96 1327.55 1539.14 Q1329.11 1540.29 1333.82 1541.34 L1335.83 1541.78 Q1342.07 1543.12 1344.68 1545.57 Q1347.32 1547.99 1347.32 1552.35 Q1347.32 1557.32 1343.37 1560.21 Q1339.46 1563.11 1332.58 1563.11 Q1329.72 1563.11 1326.6 1562.54 Q1323.51 1561.99 1320.07 1560.88 L1320.07 1554.83 Q1323.32 1556.52 1326.47 1557.38 Q1329.62 1558.21 1332.71 1558.21 Q1336.85 1558.21 1339.08 1556.81 Q1341.3 1555.37 1341.3 1552.8 Q1341.3 1550.41 1339.68 1549.14 Q1338.09 1547.86 1332.65 1546.68 L1330.61 1546.21 Q1325.17 1545.06 1322.75 1542.71 Q1320.33 1540.32 1320.33 1536.18 Q1320.33 1531.15 1323.89 1528.42 Q1327.46 1525.68 1334.01 1525.68 Q1337.26 1525.68 1340.13 1526.16 Q1342.99 1526.63 1345.41 1527.59 Z" fill="#000000" fill-rule="evenodd" fill-opacity="1" /><path clip-path="url(#clip600)" d="M 0 0 M1383.95 1542.9 L1383.95 1545.76 L1357.03 1545.76 Q1357.41 1551.81 1360.66 1554.99 Q1363.93 1558.14 1369.76 1558.14 Q1373.13 1558.14 1376.28 1557.32 Q1379.47 1556.49 1382.59 1554.83 L1382.59 1560.37 Q1379.43 1561.71 1376.12 1562.41 Q1372.81 1563.11 1369.41 1563.11 Q1360.88 1563.11 1355.88 1558.14 Q1350.92 1553.18 1350.92 1544.71 Q1350.92 1535.96 1355.63 1530.83 Q1360.37 1525.68 1368.39 1525.68 Q1375.58 1525.68 1379.75 1530.33 Q1383.95 1534.94 1383.95 1542.9 M1378.1 1541.18 Q1378.03 1536.37 1375.39 1533.51 Q1372.78 1530.64 1368.45 1530.64 Q1363.55 1530.64 1360.59 1533.41 Q1357.66 1536.18 1357.22 1541.21 L1378.1 1541.18 Z" fill="#000000" fill-rule="evenodd" fill-opacity="1" /><polyline clip-path="url(#clip602)" style="stroke:#000000; stroke-width:2; stroke-opacity:0.1; fill:none" points="
  199.704,1111.78 2352.76,1111.78 
  "/>
<polyline clip-path="url(#clip602)" style="stroke:#000000; stroke-width:2; stroke-opacity:0.1; fill:none" points="
  199.704,791.374 2352.76,791.374 
  "/>
<polyline clip-path="url(#clip602)" style="stroke:#000000; stroke-width:2; stroke-opacity:0.1; fill:none" points="
  199.704,470.965 2352.76,470.965 
  "/>
<polyline clip-path="url(#clip602)" style="stroke:#000000; stroke-width:2; stroke-opacity:0.1; fill:none" points="
  199.704,150.556 2352.76,150.556 
  "/>
<polyline clip-path="url(#clip600)" style="stroke:#000000; stroke-width:4; stroke-opacity:1; fill:none" points="
  199.704,1410.9 199.704,47.2441 
  "/>
<polyline clip-path="url(#clip600)" style="stroke:#000000; stroke-width:4; stroke-opacity:1; fill:none" points="
  199.704,1111.78 225.541,1111.78 
  "/>
<polyline clip-path="url(#clip600)" style="stroke:#000000; stroke-width:4; stroke-opacity:1; fill:none" points="
  199.704,791.374 225.541,791.374 
  "/>
<polyline clip-path="url(#clip600)" style="stroke:#000000; stroke-width:4; stroke-opacity:1; fill:none" points="
  199.704,470.965 225.541,470.965 
  "/>
<polyline clip-path="url(#clip600)" style="stroke:#000000; stroke-width:4; stroke-opacity:1; fill:none" points="
  199.704,150.556 225.541,150.556 
  "/>
<path clip-path="url(#clip600)" d="M 0 0 M121.019 1125.13 L137.339 1125.13 L137.339 1129.06 L115.394 1129.06 L115.394 1125.13 Q118.056 1122.37 122.64 1117.74 Q127.246 1113.09 128.427 1111.75 Q130.672 1109.23 131.552 1107.49 Q132.455 1105.73 132.455 1104.04 Q132.455 1101.29 130.51 1099.55 Q128.589 1097.81 125.487 1097.81 Q123.288 1097.81 120.834 1098.58 Q118.404 1099.34 115.626 1100.89 L115.626 1096.17 Q118.45 1095.04 120.904 1094.46 Q123.357 1093.88 125.394 1093.88 Q130.765 1093.88 133.959 1096.56 Q137.154 1099.25 137.154 1103.74 Q137.154 1105.87 136.343 1107.79 Q135.556 1109.69 133.45 1112.28 Q132.871 1112.95 129.769 1116.17 Q126.667 1119.36 121.019 1125.13 Z" fill="#000000" fill-rule="evenodd" fill-opacity="1" /><path clip-path="url(#clip600)" d="M 0 0 M156.575 1110.43 Q159.931 1111.15 161.806 1113.42 Q163.704 1115.68 163.704 1119.02 Q163.704 1124.13 160.186 1126.93 Q156.667 1129.73 150.186 1129.73 Q148.01 1129.73 145.695 1129.29 Q143.404 1128.88 140.95 1128.02 L140.95 1123.51 Q142.894 1124.64 145.209 1125.22 Q147.524 1125.8 150.047 1125.8 Q154.445 1125.8 156.737 1124.06 Q159.052 1122.33 159.052 1119.02 Q159.052 1115.96 156.899 1114.25 Q154.769 1112.51 150.95 1112.51 L146.922 1112.51 L146.922 1108.67 L151.135 1108.67 Q154.584 1108.67 156.413 1107.3 Q158.241 1105.92 158.241 1103.32 Q158.241 1100.66 156.343 1099.25 Q154.468 1097.81 150.95 1097.81 Q149.028 1097.81 146.829 1098.23 Q144.63 1098.65 141.991 1099.53 L141.991 1095.36 Q144.654 1094.62 146.968 1094.25 Q149.306 1093.88 151.366 1093.88 Q156.69 1093.88 159.792 1096.31 Q162.894 1098.72 162.894 1102.84 Q162.894 1105.71 161.251 1107.7 Q159.607 1109.67 156.575 1110.43 Z" fill="#000000" fill-rule="evenodd" fill-opacity="1" /><path clip-path="url(#clip600)" d="M 0 0 M119.885 804.719 L136.204 804.719 L136.204 808.654 L114.26 808.654 L114.26 804.719 Q116.922 801.965 121.505 797.335 Q126.112 792.682 127.292 791.34 Q129.538 788.816 130.417 787.08 Q131.32 785.321 131.32 783.631 Q131.32 780.877 129.376 779.141 Q127.455 777.404 124.353 777.404 Q122.154 777.404 119.7 778.168 Q117.269 778.932 114.492 780.483 L114.492 775.761 Q117.316 774.627 119.769 774.048 Q122.223 773.469 124.26 773.469 Q129.63 773.469 132.825 776.155 Q136.019 778.84 136.019 783.33 Q136.019 785.46 135.209 787.381 Q134.422 789.279 132.316 791.872 Q131.737 792.543 128.635 795.761 Q125.533 798.955 119.885 804.719 Z" fill="#000000" fill-rule="evenodd" fill-opacity="1" /><path clip-path="url(#clip600)" d="M 0 0 M154.121 778.168 L142.316 796.617 L154.121 796.617 L154.121 778.168 M152.894 774.094 L158.774 774.094 L158.774 796.617 L163.704 796.617 L163.704 800.506 L158.774 800.506 L158.774 808.654 L154.121 808.654 L154.121 800.506 L138.519 800.506 L138.519 795.992 L152.894 774.094 Z" fill="#000000" fill-rule="evenodd" fill-opacity="1" /><path clip-path="url(#clip600)" d="M 0 0 M121.367 484.31 L137.686 484.31 L137.686 488.245 L115.742 488.245 L115.742 484.31 Q118.404 481.556 122.987 476.926 Q127.593 472.273 128.774 470.931 Q131.019 468.407 131.899 466.671 Q132.802 464.912 132.802 463.222 Q132.802 460.468 130.857 458.732 Q128.936 456.995 125.834 456.995 Q123.635 456.995 121.181 457.759 Q118.751 458.523 115.973 460.074 L115.973 455.352 Q118.797 454.218 121.251 453.639 Q123.705 453.06 125.742 453.06 Q131.112 453.06 134.306 455.745 Q137.501 458.431 137.501 462.921 Q137.501 465.051 136.691 466.972 Q135.904 468.87 133.797 471.463 Q133.218 472.134 130.117 475.352 Q127.015 478.546 121.367 484.31 Z" fill="#000000" fill-rule="evenodd" fill-opacity="1" /><path clip-path="url(#clip600)" d="M 0 0 M142.802 453.685 L161.158 453.685 L161.158 457.62 L147.084 457.62 L147.084 466.093 Q148.103 465.745 149.121 465.583 Q150.14 465.398 151.158 465.398 Q156.945 465.398 160.325 468.569 Q163.704 471.741 163.704 477.157 Q163.704 482.736 160.232 485.838 Q156.76 488.917 150.441 488.917 Q148.265 488.917 145.996 488.546 Q143.751 488.176 141.343 487.435 L141.343 482.736 Q143.427 483.87 145.649 484.426 Q147.871 484.981 150.348 484.981 Q154.353 484.981 156.69 482.875 Q159.028 480.768 159.028 477.157 Q159.028 473.546 156.69 471.44 Q154.353 469.333 150.348 469.333 Q148.473 469.333 146.598 469.75 Q144.746 470.167 142.802 471.046 L142.802 453.685 Z" fill="#000000" fill-rule="evenodd" fill-opacity="1" /><path clip-path="url(#clip600)" d="M 0 0 M120.209 163.901 L136.529 163.901 L136.529 167.836 L114.584 167.836 L114.584 163.901 Q117.246 161.146 121.83 156.517 Q126.436 151.864 127.617 150.522 Q129.862 147.998 130.742 146.262 Q131.644 144.503 131.644 142.813 Q131.644 140.059 129.7 138.323 Q127.779 136.586 124.677 136.586 Q122.478 136.586 120.024 137.35 Q117.593 138.114 114.816 139.665 L114.816 134.943 Q117.64 133.809 120.093 133.23 Q122.547 132.651 124.584 132.651 Q129.955 132.651 133.149 135.336 Q136.343 138.022 136.343 142.512 Q136.343 144.642 135.533 146.563 Q134.746 148.461 132.64 151.054 Q132.061 151.725 128.959 154.943 Q125.857 158.137 120.209 163.901 Z" fill="#000000" fill-rule="evenodd" fill-opacity="1" /><path clip-path="url(#clip600)" d="M 0 0 M152.177 148.693 Q149.028 148.693 147.177 150.846 Q145.348 152.998 145.348 156.748 Q145.348 160.475 147.177 162.651 Q149.028 164.804 152.177 164.804 Q155.325 164.804 157.153 162.651 Q159.005 160.475 159.005 156.748 Q159.005 152.998 157.153 150.846 Q155.325 148.693 152.177 148.693 M161.459 134.04 L161.459 138.299 Q159.7 137.466 157.894 137.026 Q156.112 136.586 154.353 136.586 Q149.723 136.586 147.269 139.711 Q144.839 142.836 144.491 149.156 Q145.857 147.142 147.917 146.077 Q149.978 144.989 152.454 144.989 Q157.663 144.989 160.672 148.16 Q163.704 151.309 163.704 156.748 Q163.704 162.072 160.556 165.29 Q157.408 168.508 152.177 168.508 Q146.181 168.508 143.01 163.924 Q139.839 159.318 139.839 150.591 Q139.839 142.397 143.728 137.536 Q147.616 132.651 154.167 132.651 Q155.927 132.651 157.709 132.998 Q159.515 133.346 161.459 134.04 Z" fill="#000000" fill-rule="evenodd" fill-opacity="1" /><path clip-path="url(#clip600)" d="M 0 0 M59.1993 815.533 Q55.2526 813.336 53.3747 810.281 Q51.4968 807.225 51.4968 803.088 Q51.4968 797.518 55.4117 794.494 Q59.2948 791.47 66.4881 791.47 L88.0042 791.47 L88.0042 797.358 L66.679 797.358 Q61.5546 797.358 59.072 799.173 Q56.5894 800.987 56.5894 804.711 Q56.5894 809.262 59.6131 811.904 Q62.6368 814.546 67.8567 814.546 L88.0042 814.546 L88.0042 820.434 L66.679 820.434 Q61.5228 820.434 59.072 822.248 Q56.5894 824.063 56.5894 827.85 Q56.5894 832.338 59.6449 834.98 Q62.6686 837.622 67.8567 837.622 L88.0042 837.622 L88.0042 843.51 L52.3562 843.51 L52.3562 837.622 L57.8944 837.622 Q54.616 835.616 53.0564 832.815 Q51.4968 830.015 51.4968 826.163 Q51.4968 822.28 53.4702 819.575 Q55.4436 816.838 59.1993 815.533 Z" fill="#000000" fill-rule="evenodd" fill-opacity="1" /><path clip-path="url(#clip600)" d="M 0 0 M52.3562 785.327 L52.3562 779.471 L88.0042 779.471 L88.0042 785.327 L52.3562 785.327 M38.479 785.327 L38.479 779.471 L45.895 779.471 L45.895 785.327 L38.479 785.327 Z" fill="#000000" fill-rule="evenodd" fill-opacity="1" /><path clip-path="url(#clip600)" d="M 0 0 M66.4881 743.696 L88.0042 743.696 L88.0042 749.552 L66.679 749.552 Q61.6183 749.552 59.1038 751.525 Q56.5894 753.499 56.5894 757.446 Q56.5894 762.188 59.6131 764.925 Q62.6368 767.662 67.8567 767.662 L88.0042 767.662 L88.0042 773.551 L52.3562 773.551 L52.3562 767.662 L57.8944 767.662 Q54.6797 765.562 53.0883 762.729 Q51.4968 759.864 51.4968 756.141 Q51.4968 749.998 55.3163 746.847 Q59.1038 743.696 66.4881 743.696 Z" fill="#000000" fill-rule="evenodd" fill-opacity="1" /><path clip-path="url(#clip600)" d="M 0 0 M98.8259 710.467 L103.377 710.467 L103.377 744.332 L98.8259 744.332 L98.8259 710.467 Z" fill="#000000" fill-rule="evenodd" fill-opacity="1" /><path clip-path="url(#clip600)" d="M 0 0 M57.7671 680.866 L38.479 680.866 L38.479 675.01 L88.0042 675.01 L88.0042 680.866 L82.657 680.866 Q85.8398 682.712 87.3994 685.545 Q88.9272 688.346 88.9272 692.292 Q88.9272 698.754 83.771 702.828 Q78.6147 706.87 70.212 706.87 Q61.8093 706.87 56.6531 702.828 Q51.4968 698.754 51.4968 692.292 Q51.4968 688.346 53.0564 685.545 Q54.5842 682.712 57.7671 680.866 M70.212 700.823 Q76.6732 700.823 80.3653 698.181 Q84.0256 695.507 84.0256 690.86 Q84.0256 686.213 80.3653 683.54 Q76.6732 680.866 70.212 680.866 Q63.7508 680.866 60.0905 683.54 Q56.3984 686.213 56.3984 690.86 Q56.3984 695.507 60.0905 698.181 Q63.7508 700.823 70.212 700.823 Z" fill="#000000" fill-rule="evenodd" fill-opacity="1" /><path clip-path="url(#clip600)" d="M 0 0 M52.3562 668.867 L52.3562 663.01 L88.0042 663.01 L88.0042 668.867 L52.3562 668.867 M38.479 668.867 L38.479 663.01 L45.895 663.01 L45.895 668.867 L38.479 668.867 Z" fill="#000000" fill-rule="evenodd" fill-opacity="1" /><path clip-path="url(#clip600)" d="M 0 0 M38.479 638.821 L43.3487 638.821 L43.3487 644.422 Q43.3487 647.573 44.6219 648.815 Q45.895 650.024 49.2052 650.024 L52.3562 650.024 L52.3562 640.38 L56.9077 640.38 L56.9077 650.024 L88.0042 650.024 L88.0042 655.912 L56.9077 655.912 L56.9077 661.514 L52.3562 661.514 L52.3562 655.912 L49.8736 655.912 Q43.9216 655.912 41.2162 653.143 Q38.479 650.374 38.479 644.359 L38.479 638.821 Z" fill="#000000" fill-rule="evenodd" fill-opacity="1" /><path clip-path="url(#clip600)" d="M 0 0 M38.479 614.631 L43.3487 614.631 L43.3487 620.233 Q43.3487 623.384 44.6219 624.625 Q45.895 625.835 49.2052 625.835 L52.3562 625.835 L52.3562 616.19 L56.9077 616.19 L56.9077 625.835 L88.0042 625.835 L88.0042 631.723 L56.9077 631.723 L56.9077 637.325 L52.3562 637.325 L52.3562 631.723 L49.8736 631.723 Q43.9216 631.723 41.2162 628.954 Q38.479 626.185 38.479 620.169 L38.479 614.631 Z" fill="#000000" fill-rule="evenodd" fill-opacity="1" /><polyline clip-path="url(#clip602)" style="stroke:#009af9; stroke-width:20; stroke-opacity:1; fill:none" stroke-dasharray="80, 50" points="
  260.64,85.838 1276.23,1372.3 2291.82,1236.79 
  "/>
<path clip-path="url(#clip600)" d="
M1990.74 213.659 L2280.99 213.659 L2280.99 92.6992 L1990.74 92.6992  Z
  " fill="#ffffff" fill-rule="evenodd" fill-opacity="1"/>
<polyline clip-path="url(#clip600)" style="stroke:#000000; stroke-width:4; stroke-opacity:1; fill:none" points="
  1990.74,213.659 2280.99,213.659 2280.99,92.6992 1990.74,92.6992 1990.74,213.659 
  "/>
<polyline clip-path="url(#clip600)" style="stroke:#009af9; stroke-width:4; stroke-opacity:1; fill:none" stroke-dasharray="16, 10" points="
  2014.66,153.179 2158.2,153.179 
  "/>
<path clip-path="url(#clip600)" d="M 0 0 M2195.97 172.867 Q2194.16 177.496 2192.45 178.908 Q2190.73 180.32 2187.86 180.32 L2184.46 180.32 L2184.46 176.755 L2186.96 176.755 Q2188.72 176.755 2189.69 175.922 Q2190.67 175.089 2191.85 171.987 L2192.61 170.043 L2182.12 144.533 L2186.64 144.533 L2194.74 164.811 L2202.84 144.533 L2207.36 144.533 L2195.97 172.867 Z" fill="#000000" fill-rule="evenodd" fill-opacity="1" /><path clip-path="url(#clip600)" d="M 0 0 M2213.23 166.524 L2220.87 166.524 L2220.87 140.158 L2212.56 141.825 L2212.56 137.566 L2220.83 135.899 L2225.5 135.899 L2225.5 166.524 L2233.14 166.524 L2233.14 170.459 L2213.23 170.459 L2213.23 166.524 Z" fill="#000000" fill-rule="evenodd" fill-opacity="1" /></svg>
