<?xml version="1.0" encoding="utf-8"?>
<svg xmlns="http://www.w3.org/2000/svg" xmlns:xlink="http://www.w3.org/1999/xlink" width="600" height="400" viewBox="0 0 2400 1600">
<defs>
  <clipPath id="clip610">
    <rect x="0" y="0" width="2400" height="1600"/>
  </clipPath>
</defs>
<path clip-path="url(#clip610)" d="
M0 1600 L2400 1600 L2400 0 L0 0  Z
  " fill="#ffffff" fill-rule="evenodd" fill-opacity="1"/>
<defs>
  <clipPath id="clip611">
    <rect x="480" y="0" width="1681" height="1600"/>
  </clipPath>
</defs>
<path clip-path="url(#clip610)" d="
M202.459 1410.9 L2352.76 1410.9 L2352.76 47.2441 L202.459 47.2441  Z
  " fill="#ffffff" fill-rule="evenodd" fill-opacity="1"/>
<defs>
  <clipPath id="clip612">
    <rect x="202" y="47" width="2151" height="1365"/>
  </clipPath>
</defs>
<polyline clip-path="url(#clip612)" style="stroke:#000000; stroke-width:2; stroke-opacity:0.1; fill:none" points="
  516.889,1410.9 516.889,47.2441 
  "/>
<polyline clip-path="url(#clip612)" style="stroke:#000000; stroke-width:2; stroke-opacity:0.1; fill:none" points="
  1024.03,1410.9 1024.03,47.2441 
  "/>
<polyline clip-path="url(#clip612)" style="stroke:#000000; stroke-width:2; stroke-opacity:0.1; fill:none" points="
  1531.18,1410.9 1531.18,47.2441 
  "/>
<polyline clip-path="url(#clip612)" style="stroke:#000000; stroke-width:2; stroke-opacity:0.1; fill:none" points="
  2038.33,1410.9 2038.33,47.2441 
  "/>
<polyline clip-path="url(#clip610)" style="stroke:#000000; stroke-width:4; stroke-opacity:1; fill:none" points="
  202.459,1410.9 2352.76,1410.9 
  "/>
<polyline clip-path="url(#clip610)" style="stroke:#000000; stroke-width:4; stroke-opacity:1; fill:none" points="
  516.889,1410.9 516.889,1394.53 
  "/>
<polyline clip-path="url(#clip610)" style="stroke:#000000; stroke-width:4; stroke-opacity:1; fill:none" points="
  1024.03,1410.9 1024.03,1394.53 
  "/>
<polyline clip-path="url(#clip610)" style="stroke:#000000; stroke-width:4; stroke-opacity:1; fill:none" points="
  1531.18,1410.9 1531.18,1394.53 
  "/>
<polyline clip-path="url(#clip610)" style="stroke:#000000; stroke-width:4; stroke-opacity:1; fill:none" points="
  2038.33,1410.9 2038.33,1394.53 
  "/>
<path clip-path="url(#clip610)" d="M 0 0 M470.997 1489.17 L478.636 1489.17 L478.636 1462.8 L470.326 1464.47 L470.326 1460.21 L478.59 1458.54 L483.266 1458.54 L483.266 1489.17 L490.905 1489.17 L490.905 1493.1 L470.997 1493.1 L470.997 1489.17 Z" fill="#000000" fill-rule="evenodd" fill-opacity="1" /><path clip-path="url(#clip610)" d="M 0 0 M505.974 1461.62 Q502.363 1461.62 500.534 1465.19 Q498.729 1468.73 498.729 1475.86 Q498.729 1482.97 500.534 1486.53 Q502.363 1490.07 505.974 1490.07 Q509.608 1490.07 511.414 1486.53 Q513.243 1482.97 513.243 1475.86 Q513.243 1468.73 511.414 1465.19 Q509.608 1461.62 505.974 1461.62 M505.974 1457.92 Q511.784 1457.92 514.84 1462.53 Q517.919 1467.11 517.919 1475.86 Q517.919 1484.59 514.84 1489.19 Q511.784 1493.78 505.974 1493.78 Q500.164 1493.78 497.085 1489.19 Q494.03 1484.59 494.03 1475.86 Q494.03 1467.11 497.085 1462.53 Q500.164 1457.92 505.974 1457.92 Z" fill="#000000" fill-rule="evenodd" fill-opacity="1" /><path clip-path="url(#clip610)" d="M 0 0 M517.919 1452.02 L542.03 1452.02 L542.03 1455.22 L517.919 1455.22 L517.919 1452.02 Z" fill="#000000" fill-rule="evenodd" fill-opacity="1" /><path clip-path="url(#clip610)" d="M 0 0 M557.659 1450.55 Q560.386 1451.14 561.91 1452.98 Q563.452 1454.82 563.452 1457.53 Q563.452 1461.69 560.593 1463.96 Q557.735 1466.24 552.468 1466.24 Q550.7 1466.24 548.82 1465.88 Q546.958 1465.54 544.964 1464.85 L544.964 1461.18 Q546.544 1462.1 548.425 1462.57 Q550.306 1463.04 552.356 1463.04 Q555.929 1463.04 557.791 1461.63 Q559.672 1460.22 559.672 1457.53 Q559.672 1455.05 557.923 1453.66 Q556.192 1452.25 553.089 1452.25 L549.817 1452.25 L549.817 1449.12 L553.24 1449.12 Q556.042 1449.12 557.528 1448.01 Q559.014 1446.89 559.014 1444.78 Q559.014 1442.62 557.471 1441.47 Q555.948 1440.3 553.089 1440.3 Q551.528 1440.3 549.741 1440.64 Q547.955 1440.98 545.81 1441.69 L545.81 1438.31 Q547.973 1437.71 549.854 1437.41 Q551.754 1437.11 553.428 1437.11 Q557.753 1437.11 560.274 1439.08 Q562.794 1441.04 562.794 1444.38 Q562.794 1446.72 561.459 1448.33 Q560.123 1449.93 557.659 1450.55 Z" fill="#000000" fill-rule="evenodd" fill-opacity="1" /><path clip-path="url(#clip610)" d="M 0 0 M978.529 1489.17 L986.167 1489.17 L986.167 1462.8 L977.857 1464.47 L977.857 1460.21 L986.121 1458.54 L990.797 1458.54 L990.797 1489.17 L998.436 1489.17 L998.436 1493.1 L978.529 1493.1 L978.529 1489.17 Z" fill="#000000" fill-rule="evenodd" fill-opacity="1" /><path clip-path="url(#clip610)" d="M 0 0 M1013.51 1461.62 Q1009.89 1461.62 1008.07 1465.19 Q1006.26 1468.73 1006.26 1475.86 Q1006.26 1482.97 1008.07 1486.53 Q1009.89 1490.07 1013.51 1490.07 Q1017.14 1490.07 1018.95 1486.53 Q1020.77 1482.97 1020.77 1475.86 Q1020.77 1468.73 1018.95 1465.19 Q1017.14 1461.62 1013.51 1461.62 M1013.51 1457.92 Q1019.32 1457.92 1022.37 1462.53 Q1025.45 1467.11 1025.45 1475.86 Q1025.45 1484.59 1022.37 1489.19 Q1019.32 1493.78 1013.51 1493.78 Q1007.7 1493.78 1004.62 1489.19 Q1001.56 1484.59 1001.56 1475.86 Q1001.56 1467.11 1004.62 1462.53 Q1007.7 1457.92 1013.51 1457.92 Z" fill="#000000" fill-rule="evenodd" fill-opacity="1" /><path clip-path="url(#clip610)" d="M 0 0 M1025.45 1452.02 L1049.56 1452.02 L1049.56 1455.22 L1025.45 1455.22 L1025.45 1452.02 Z" fill="#000000" fill-rule="evenodd" fill-opacity="1" /><path clip-path="url(#clip610)" d="M 0 0 M1056.95 1462.5 L1070.21 1462.5 L1070.21 1465.69 L1052.38 1465.69 L1052.38 1462.5 Q1054.55 1460.26 1058.27 1456.5 Q1062.01 1452.72 1062.97 1451.63 Q1064.8 1449.58 1065.51 1448.16 Q1066.24 1446.74 1066.24 1445.36 Q1066.24 1443.12 1064.66 1441.71 Q1063.1 1440.3 1060.58 1440.3 Q1058.8 1440.3 1056.8 1440.92 Q1054.83 1441.54 1052.57 1442.8 L1052.57 1438.97 Q1054.86 1438.05 1056.86 1437.58 Q1058.85 1437.11 1060.51 1437.11 Q1064.87 1437.11 1067.47 1439.29 Q1070.06 1441.47 1070.06 1445.12 Q1070.06 1446.85 1069.4 1448.41 Q1068.76 1449.95 1067.05 1452.06 Q1066.58 1452.6 1064.06 1455.22 Q1061.54 1457.81 1056.95 1462.5 Z" fill="#000000" fill-rule="evenodd" fill-opacity="1" /><path clip-path="url(#clip610)" d="M 0 0 M1485.52 1489.17 L1493.16 1489.17 L1493.16 1462.8 L1484.85 1464.47 L1484.85 1460.21 L1493.12 1458.54 L1497.79 1458.54 L1497.79 1489.17 L1505.43 1489.17 L1505.43 1493.1 L1485.52 1493.1 L1485.52 1489.17 Z" fill="#000000" fill-rule="evenodd" fill-opacity="1" /><path clip-path="url(#clip610)" d="M 0 0 M1520.5 1461.62 Q1516.89 1461.62 1515.06 1465.19 Q1513.25 1468.73 1513.25 1475.86 Q1513.25 1482.97 1515.06 1486.53 Q1516.89 1490.07 1520.5 1490.07 Q1524.13 1490.07 1525.94 1486.53 Q1527.77 1482.97 1527.77 1475.86 Q1527.77 1468.73 1525.94 1465.19 Q1524.13 1461.62 1520.5 1461.62 M1520.5 1457.92 Q1526.31 1457.92 1529.37 1462.53 Q1532.44 1467.11 1532.44 1475.86 Q1532.44 1484.59 1529.37 1489.19 Q1526.31 1493.78 1520.5 1493.78 Q1514.69 1493.78 1511.61 1489.19 Q1508.56 1484.59 1508.56 1475.86 Q1508.56 1467.11 1511.61 1462.53 Q1514.69 1457.92 1520.5 1457.92 Z" fill="#000000" fill-rule="evenodd" fill-opacity="1" /><path clip-path="url(#clip610)" d="M 0 0 M1532.44 1452.02 L1556.56 1452.02 L1556.56 1455.22 L1532.44 1455.22 L1532.44 1452.02 Z" fill="#000000" fill-rule="evenodd" fill-opacity="1" /><path clip-path="url(#clip610)" d="M 0 0 M1561.33 1462.5 L1567.54 1462.5 L1567.54 1441.07 L1560.79 1442.43 L1560.79 1438.97 L1567.5 1437.61 L1571.3 1437.61 L1571.3 1462.5 L1577.51 1462.5 L1577.51 1465.69 L1561.33 1465.69 L1561.33 1462.5 Z" fill="#000000" fill-rule="evenodd" fill-opacity="1" /><path clip-path="url(#clip610)" d="M 0 0 M2005.5 1489.17 L2013.13 1489.17 L2013.13 1462.8 L2004.82 1464.47 L2004.82 1460.21 L2013.09 1458.54 L2017.76 1458.54 L2017.76 1489.17 L2025.4 1489.17 L2025.4 1493.1 L2005.5 1493.1 L2005.5 1489.17 Z" fill="#000000" fill-rule="evenodd" fill-opacity="1" /><path clip-path="url(#clip610)" d="M 0 0 M2040.47 1461.62 Q2036.86 1461.62 2035.03 1465.19 Q2033.23 1468.73 2033.23 1475.86 Q2033.23 1482.97 2035.03 1486.53 Q2036.86 1490.07 2040.47 1490.07 Q2044.11 1490.07 2045.91 1486.53 Q2047.74 1482.97 2047.74 1475.86 Q2047.74 1468.73 2045.91 1465.19 Q2044.11 1461.62 2040.47 1461.62 M2040.47 1457.92 Q2046.28 1457.92 2049.34 1462.53 Q2052.42 1467.11 2052.42 1475.86 Q2052.42 1484.59 2049.34 1489.19 Q2046.28 1493.78 2040.47 1493.78 Q2034.66 1493.78 2031.58 1489.19 Q2028.53 1484.59 2028.53 1475.86 Q2028.53 1467.11 2031.58 1462.53 Q2034.66 1457.92 2040.47 1457.92 Z" fill="#000000" fill-rule="evenodd" fill-opacity="1" /><path clip-path="url(#clip610)" d="M 0 0 M2062.12 1440.11 Q2059.19 1440.11 2057.7 1443.01 Q2056.24 1445.89 2056.24 1451.68 Q2056.24 1457.46 2057.7 1460.35 Q2059.19 1463.23 2062.12 1463.23 Q2065.07 1463.23 2066.54 1460.35 Q2068.03 1457.46 2068.03 1451.68 Q2068.03 1445.89 2066.54 1443.01 Q2065.07 1440.11 2062.12 1440.11 M2062.12 1437.11 Q2066.84 1437.11 2069.33 1440.85 Q2071.83 1444.57 2071.83 1451.68 Q2071.83 1458.77 2069.33 1462.51 Q2066.84 1466.24 2062.12 1466.24 Q2057.4 1466.24 2054.9 1462.51 Q2052.42 1458.77 2052.42 1451.68 Q2052.42 1444.57 2054.9 1440.85 Q2057.4 1437.11 2062.12 1437.11 Z" fill="#000000" fill-rule="evenodd" fill-opacity="1" /><path clip-path="url(#clip610)" d="M 0 0 M1170.38 1526.54 L1176.58 1526.54 L1187.72 1556.46 L1198.86 1526.54 L1205.07 1526.54 L1191.7 1562.19 L1183.75 1562.19 L1170.38 1526.54 Z" fill="#000000" fill-rule="evenodd" fill-opacity="1" /><path clip-path="url(#clip610)" d="M 0 0 M1238.3 1573.01 L1238.3 1577.56 L1204.43 1577.56 L1204.43 1573.01 L1238.3 1573.01 Z" fill="#000000" fill-rule="evenodd" fill-opacity="1" /><path clip-path="url(#clip610)" d="M 0 0 M1258.26 1530.64 Q1253.55 1530.64 1250.81 1534.34 Q1248.07 1538 1248.07 1544.39 Q1248.07 1550.79 1250.78 1554.48 Q1253.51 1558.14 1258.26 1558.14 Q1262.93 1558.14 1265.67 1554.45 Q1268.41 1550.76 1268.41 1544.39 Q1268.41 1538.06 1265.67 1534.37 Q1262.93 1530.64 1258.26 1530.64 M1258.26 1525.68 Q1265.89 1525.68 1270.26 1530.64 Q1274.62 1535.61 1274.62 1544.39 Q1274.62 1553.15 1270.26 1558.14 Q1265.89 1563.11 1258.26 1563.11 Q1250.59 1563.11 1246.22 1558.14 Q1241.9 1553.15 1241.9 1544.39 Q1241.9 1535.61 1246.22 1530.64 Q1250.59 1525.68 1258.26 1525.68 Z" fill="#000000" fill-rule="evenodd" fill-opacity="1" /><path clip-path="url(#clip610)" d="M 0 0 M1286.42 1556.84 L1286.42 1575.74 L1280.54 1575.74 L1280.54 1526.54 L1286.42 1526.54 L1286.42 1531.95 Q1288.27 1528.77 1291.07 1527.24 Q1293.9 1525.68 1297.82 1525.68 Q1304.31 1525.68 1308.35 1530.83 Q1312.43 1535.99 1312.43 1544.39 Q1312.43 1552.8 1308.35 1557.95 Q1304.31 1563.11 1297.82 1563.11 Q1293.9 1563.11 1291.07 1561.58 Q1288.27 1560.02 1286.42 1556.84 M1306.35 1544.39 Q1306.35 1537.93 1303.67 1534.27 Q1301.03 1530.58 1296.39 1530.58 Q1291.74 1530.58 1289.07 1534.27 Q1286.42 1537.93 1286.42 1544.39 Q1286.42 1550.85 1289.07 1554.55 Q1291.74 1558.21 1296.39 1558.21 Q1301.03 1558.21 1303.67 1554.55 Q1306.35 1550.85 1306.35 1544.39 Z" fill="#000000" fill-rule="evenodd" fill-opacity="1" /><path clip-path="url(#clip610)" d="M 0 0 M1349.06 1542.9 L1349.06 1545.76 L1322.14 1545.76 Q1322.52 1551.81 1325.76 1554.99 Q1329.04 1558.14 1334.87 1558.14 Q1338.24 1558.14 1341.39 1557.32 Q1344.57 1556.49 1347.69 1554.83 L1347.69 1560.37 Q1344.54 1561.71 1341.23 1562.41 Q1337.92 1563.11 1334.52 1563.11 Q1325.99 1563.11 1320.99 1558.14 Q1316.02 1553.18 1316.02 1544.71 Q1316.02 1535.96 1320.74 1530.83 Q1325.48 1525.68 1333.5 1525.68 Q1340.69 1525.68 1344.86 1530.33 Q1349.06 1534.94 1349.06 1542.9 M1343.21 1541.18 Q1343.14 1536.37 1340.5 1533.51 Q1337.89 1530.64 1333.56 1530.64 Q1328.66 1530.64 1325.7 1533.41 Q1322.77 1536.18 1322.33 1541.21 L1343.21 1541.18 Z" fill="#000000" fill-rule="evenodd" fill-opacity="1" /><path clip-path="url(#clip610)" d="M 0 0 M1384.84 1540.67 L1384.84 1562.19 L1378.98 1562.19 L1378.98 1540.86 Q1378.98 1535.8 1377.01 1533.29 Q1375.03 1530.77 1371.09 1530.77 Q1366.35 1530.77 1363.61 1533.79 Q1360.87 1536.82 1360.87 1542.04 L1360.87 1562.19 L1354.98 1562.19 L1354.98 1526.54 L1360.87 1526.54 L1360.87 1532.08 Q1362.97 1528.86 1365.8 1527.27 Q1368.67 1525.68 1372.39 1525.68 Q1378.54 1525.68 1381.69 1529.5 Q1384.84 1533.29 1384.84 1540.67 Z" fill="#000000" fill-rule="evenodd" fill-opacity="1" /><polyline clip-path="url(#clip612)" style="stroke:#000000; stroke-width:2; stroke-opacity:0.1; fill:none" points="
  202.459,1223.76 2352.76,1223.76 
  "/>
<polyline clip-path="url(#clip612)" style="stroke:#000000; stroke-width:2; stroke-opacity:0.1; fill:none" points="
  202.459,968.289 2352.76,968.289 
  "/>
<polyline clip-path="url(#clip612)" style="stroke:#000000; stroke-width:2; stroke-opacity:0.1; fill:none" points="
  202.459,712.819 2352.76,712.819 
  "/>
<polyline clip-path="url(#clip612)" style="stroke:#000000; stroke-width:2; stroke-opacity:0.1; fill:none" points="
  202.459,457.35 2352.76,457.35 
  "/>
<polyline clip-path="url(#clip612)" style="stroke:#000000; stroke-width:2; stroke-opacity:0.1; fill:none" points="
  202.459,201.88 2352.76,201.88 
  "/>
<polyline clip-path="url(#clip610)" style="stroke:#000000; stroke-width:4; stroke-opacity:1; fill:none" points="
  202.459,1410.9 202.459,47.2441 
  "/>
<polyline clip-path="url(#clip610)" style="stroke:#000000; stroke-width:4; stroke-opacity:1; fill:none" points="
  202.459,1223.76 228.263,1223.76 
  "/>
<polyline clip-path="url(#clip610)" style="stroke:#000000; stroke-width:4; stroke-opacity:1; fill:none" points="
  202.459,968.289 228.263,968.289 
  "/>
<polyline clip-path="url(#clip610)" style="stroke:#000000; stroke-width:4; stroke-opacity:1; fill:none" points="
  202.459,712.819 228.263,712.819 
  "/>
<polyline clip-path="url(#clip610)" style="stroke:#000000; stroke-width:4; stroke-opacity:1; fill:none" points="
  202.459,457.35 228.263,457.35 
  "/>
<polyline clip-path="url(#clip610)" style="stroke:#000000; stroke-width:4; stroke-opacity:1; fill:none" points="
  202.459,201.88 228.263,201.88 
  "/>
<path clip-path="url(#clip610)" d="M 0 0 M119.538 1237.1 L127.177 1237.1 L127.177 1210.74 L118.867 1212.4 L118.867 1208.14 L127.13 1206.48 L131.806 1206.48 L131.806 1237.1 L139.445 1237.1 L139.445 1241.04 L119.538 1241.04 L119.538 1237.1 Z" fill="#000000" fill-rule="evenodd" fill-opacity="1" /><path clip-path="url(#clip610)" d="M 0 0 M154.515 1209.56 Q150.903 1209.56 149.075 1213.12 Q147.269 1216.66 147.269 1223.79 Q147.269 1230.9 149.075 1234.46 Q150.903 1238.01 154.515 1238.01 Q158.149 1238.01 159.954 1234.46 Q161.783 1230.9 161.783 1223.79 Q161.783 1216.66 159.954 1213.12 Q158.149 1209.56 154.515 1209.56 M154.515 1205.85 Q160.325 1205.85 163.38 1210.46 Q166.459 1215.04 166.459 1223.79 Q166.459 1232.52 163.38 1237.13 Q160.325 1241.71 154.515 1241.71 Q148.704 1241.71 145.626 1237.13 Q142.57 1232.52 142.57 1223.79 Q142.57 1215.04 145.626 1210.46 Q148.704 1205.85 154.515 1205.85 Z" fill="#000000" fill-rule="evenodd" fill-opacity="1" /><path clip-path="url(#clip610)" d="M 0 0 M123.126 981.634 L139.445 981.634 L139.445 985.569 L117.501 985.569 L117.501 981.634 Q120.163 978.879 124.746 974.249 Q129.353 969.597 130.533 968.254 Q132.779 965.731 133.658 963.995 Q134.561 962.236 134.561 960.546 Q134.561 957.791 132.617 956.055 Q130.695 954.319 127.593 954.319 Q125.394 954.319 122.941 955.083 Q120.51 955.847 117.732 957.398 L117.732 952.675 Q120.556 951.541 123.01 950.962 Q125.464 950.384 127.501 950.384 Q132.871 950.384 136.066 953.069 Q139.26 955.754 139.26 960.245 Q139.26 962.374 138.45 964.296 Q137.663 966.194 135.556 968.786 Q134.978 969.458 131.876 972.675 Q128.774 975.87 123.126 981.634 Z" fill="#000000" fill-rule="evenodd" fill-opacity="1" /><path clip-path="url(#clip610)" d="M 0 0 M154.515 954.087 Q150.903 954.087 149.075 957.652 Q147.269 961.194 147.269 968.323 Q147.269 975.43 149.075 978.995 Q150.903 982.536 154.515 982.536 Q158.149 982.536 159.954 978.995 Q161.783 975.43 161.783 968.323 Q161.783 961.194 159.954 957.652 Q158.149 954.087 154.515 954.087 M154.515 950.384 Q160.325 950.384 163.38 954.99 Q166.459 959.573 166.459 968.323 Q166.459 977.05 163.38 981.657 Q160.325 986.24 154.515 986.24 Q148.704 986.24 145.626 981.657 Q142.57 977.05 142.57 968.323 Q142.57 959.573 145.626 954.99 Q148.704 950.384 154.515 950.384 Z" fill="#000000" fill-rule="evenodd" fill-opacity="1" /><path clip-path="url(#clip610)" d="M 0 0 M132.316 711.465 Q135.672 712.183 137.547 714.451 Q139.445 716.72 139.445 720.053 Q139.445 725.169 135.927 727.97 Q132.408 730.771 125.927 730.771 Q123.751 730.771 121.436 730.331 Q119.144 729.914 116.691 729.058 L116.691 724.544 Q118.635 725.678 120.95 726.257 Q123.265 726.835 125.788 726.835 Q130.186 726.835 132.478 725.099 Q134.792 723.363 134.792 720.053 Q134.792 716.997 132.64 715.285 Q130.51 713.548 126.691 713.548 L122.663 713.548 L122.663 709.706 L126.876 709.706 Q130.325 709.706 132.154 708.34 Q133.982 706.951 133.982 704.359 Q133.982 701.697 132.084 700.285 Q130.209 698.849 126.691 698.849 Q124.769 698.849 122.57 699.266 Q120.371 699.683 117.732 700.562 L117.732 696.396 Q120.394 695.655 122.709 695.285 Q125.047 694.914 127.107 694.914 Q132.431 694.914 135.533 697.345 Q138.635 699.752 138.635 703.873 Q138.635 706.743 136.992 708.734 Q135.348 710.701 132.316 711.465 Z" fill="#000000" fill-rule="evenodd" fill-opacity="1" /><path clip-path="url(#clip610)" d="M 0 0 M154.515 698.618 Q150.903 698.618 149.075 702.183 Q147.269 705.724 147.269 712.854 Q147.269 719.96 149.075 723.525 Q150.903 727.067 154.515 727.067 Q158.149 727.067 159.954 723.525 Q161.783 719.96 161.783 712.854 Q161.783 705.724 159.954 702.183 Q158.149 698.618 154.515 698.618 M154.515 694.914 Q160.325 694.914 163.38 699.521 Q166.459 704.104 166.459 712.854 Q166.459 721.581 163.38 726.187 Q160.325 730.771 154.515 730.771 Q148.704 730.771 145.626 726.187 Q142.57 721.581 142.57 712.854 Q142.57 704.104 145.626 699.521 Q148.704 694.914 154.515 694.914 Z" fill="#000000" fill-rule="evenodd" fill-opacity="1" /><path clip-path="url(#clip610)" d="M 0 0 M129.862 444.144 L118.056 462.593 L129.862 462.593 L129.862 444.144 M128.635 440.07 L134.515 440.07 L134.515 462.593 L139.445 462.593 L139.445 466.482 L134.515 466.482 L134.515 474.63 L129.862 474.63 L129.862 466.482 L114.26 466.482 L114.26 461.968 L128.635 440.07 Z" fill="#000000" fill-rule="evenodd" fill-opacity="1" /><path clip-path="url(#clip610)" d="M 0 0 M154.515 443.148 Q150.903 443.148 149.075 446.713 Q147.269 450.255 147.269 457.385 Q147.269 464.491 149.075 468.056 Q150.903 471.597 154.515 471.597 Q158.149 471.597 159.954 468.056 Q161.783 464.491 161.783 457.385 Q161.783 450.255 159.954 446.713 Q158.149 443.148 154.515 443.148 M154.515 439.445 Q160.325 439.445 163.38 444.051 Q166.459 448.635 166.459 457.385 Q166.459 466.111 163.38 470.718 Q160.325 475.301 154.515 475.301 Q148.704 475.301 145.626 470.718 Q142.57 466.111 142.57 457.385 Q142.57 448.635 145.626 444.051 Q148.704 439.445 154.515 439.445 Z" fill="#000000" fill-rule="evenodd" fill-opacity="1" /><path clip-path="url(#clip610)" d="M 0 0 M118.543 184.6 L136.899 184.6 L136.899 188.536 L122.825 188.536 L122.825 197.008 Q123.843 196.66 124.862 196.498 Q125.88 196.313 126.899 196.313 Q132.686 196.313 136.066 199.485 Q139.445 202.656 139.445 208.072 Q139.445 213.651 135.973 216.753 Q132.501 219.832 126.181 219.832 Q124.005 219.832 121.737 219.461 Q119.492 219.091 117.084 218.35 L117.084 213.651 Q119.168 214.785 121.39 215.341 Q123.612 215.896 126.089 215.896 Q130.093 215.896 132.431 213.79 Q134.769 211.684 134.769 208.072 Q134.769 204.461 132.431 202.355 Q130.093 200.248 126.089 200.248 Q124.214 200.248 122.339 200.665 Q120.487 201.082 118.543 201.961 L118.543 184.6 Z" fill="#000000" fill-rule="evenodd" fill-opacity="1" /><path clip-path="url(#clip610)" d="M 0 0 M154.515 187.679 Q150.903 187.679 149.075 191.244 Q147.269 194.785 147.269 201.915 Q147.269 209.022 149.075 212.586 Q150.903 216.128 154.515 216.128 Q158.149 216.128 159.954 212.586 Q161.783 209.022 161.783 201.915 Q161.783 194.785 159.954 191.244 Q158.149 187.679 154.515 187.679 M154.515 183.975 Q160.325 183.975 163.38 188.582 Q166.459 193.165 166.459 201.915 Q166.459 210.642 163.38 215.248 Q160.325 219.832 154.515 219.832 Q148.704 219.832 145.626 215.248 Q142.57 210.642 142.57 201.915 Q142.57 193.165 145.626 188.582 Q148.704 183.975 154.515 183.975 Z" fill="#000000" fill-rule="evenodd" fill-opacity="1" /><path clip-path="url(#clip610)" d="M 0 0 M59.1993 815.533 Q55.2526 813.336 53.3747 810.281 Q51.4968 807.225 51.4968 803.088 Q51.4968 797.518 55.4117 794.494 Q59.2948 791.47 66.4881 791.47 L88.0042 791.47 L88.0042 797.358 L66.679 797.358 Q61.5546 797.358 59.072 799.173 Q56.5894 800.987 56.5894 804.711 Q56.5894 809.262 59.6131 811.904 Q62.6368 814.546 67.8567 814.546 L88.0042 814.546 L88.0042 820.434 L66.679 820.434 Q61.5228 820.434 59.072 822.248 Q56.5894 824.063 56.5894 827.85 Q56.5894 832.338 59.6449 834.98 Q62.6686 837.622 67.8567 837.622 L88.0042 837.622 L88.0042 843.51 L52.3562 843.51 L52.3562 837.622 L57.8944 837.622 Q54.616 835.616 53.0564 832.815 Q51.4968 830.015 51.4968 826.163 Q51.4968 822.28 53.4702 819.575 Q55.4436 816.838 59.1993 815.533 Z" fill="#000000" fill-rule="evenodd" fill-opacity="1" /><path clip-path="url(#clip610)" d="M 0 0 M52.3562 785.327 L52.3562 779.471 L88.0042 779.471 L88.0042 785.327 L52.3562 785.327 M38.479 785.327 L38.479 779.471 L45.895 779.471 L45.895 785.327 L38.479 785.327 Z" fill="#000000" fill-rule="evenodd" fill-opacity="1" /><path clip-path="url(#clip610)" d="M 0 0 M66.4881 743.696 L88.0042 743.696 L88.0042 749.552 L66.679 749.552 Q61.6183 749.552 59.1038 751.525 Q56.5894 753.499 56.5894 757.446 Q56.5894 762.188 59.6131 764.925 Q62.6368 767.662 67.8567 767.662 L88.0042 767.662 L88.0042 773.551 L52.3562 773.551 L52.3562 767.662 L57.8944 767.662 Q54.6797 765.562 53.0883 762.729 Q51.4968 759.864 51.4968 756.141 Q51.4968 749.998 55.3163 746.847 Q59.1038 743.696 66.4881 743.696 Z" fill="#000000" fill-rule="evenodd" fill-opacity="1" /><path clip-path="url(#clip610)" d="M 0 0 M98.8259 710.467 L103.377 710.467 L103.377 744.332 L98.8259 744.332 L98.8259 710.467 Z" fill="#000000" fill-rule="evenodd" fill-opacity="1" /><path clip-path="url(#clip610)" d="M 0 0 M57.7671 680.866 L38.479 680.866 L38.479 675.01 L88.0042 675.01 L88.0042 680.866 L82.657 680.866 Q85.8398 682.712 87.3994 685.545 Q88.9272 688.346 88.9272 692.292 Q88.9272 698.754 83.771 702.828 Q78.6147 706.87 70.212 706.87 Q61.8093 706.87 56.6531 702.828 Q51.4968 698.754 51.4968 692.292 Q51.4968 688.346 53.0564 685.545 Q54.5842 682.712 57.7671 680.866 M70.212 700.823 Q76.6732 700.823 80.3653 698.181 Q84.0256 695.507 84.0256 690.86 Q84.0256 686.213 80.3653 683.54 Q76.6732 680.866 70.212 680.866 Q63.7508 680.866 60.0905 683.54 Q56.3984 686.213 56.3984 690.86 Q56.3984 695.507 60.0905 698.181 Q63.7508 700.823 70.212 700.823 Z" fill="#000000" fill-rule="evenodd" fill-opacity="1" /><path clip-path="url(#clip610)" d="M 0 0 M52.3562 668.867 L52.3562 663.01 L88.0042 663.01 L88.0042 668.867 L52.3562 668.867 M38.479 668.867 L38.479 663.01 L45.895 663.01 L45.895 668.867 L38.479 668.867 Z" fill="#000000" fill-rule="evenodd" fill-opacity="1" /><path clip-path="url(#clip610)" d="M 0 0 M38.479 638.821 L43.3487 638.821 L43.3487 644.422 Q43.3487 647.573 44.6219 648.815 Q45.895 650.024 49.2052 650.024 L52.3562 650.024 L52.3562 640.38 L56.9077 640.38 L56.9077 650.024 L88.0042 650.024 L88.0042 655.912 L56.9077 655.912 L56.9077 661.514 L52.3562 661.514 L52.3562 655.912 L49.8736 655.912 Q43.9216 655.912 41.2162 653.143 Q38.479 650.374 38.479 644.359 L38.479 638.821 Z" fill="#000000" fill-rule="evenodd" fill-opacity="1" /><path clip-path="url(#clip610)" d="M 0 0 M38.479 614.631 L43.3487 614.631 L43.3487 620.233 Q43.3487 623.384 44.6219 624.625 Q45.895 625.835 49.2052 625.835 L52.3562 625.835 L52.3562 616.19 L56.9077 616.19 L56.9077 625.835 L88.0042 625.835 L88.0042 631.723 L56.9077 631.723 L56.9077 637.325 L52.3562 637.325 L52.3562 631.723 L49.8736 631.723 Q43.9216 631.723 41.2162 628.954 Q38.479 626.185 38.479 620.169 L38.479 614.631 Z" fill="#000000" fill-rule="evenodd" fill-opacity="1" /><polyline clip-path="url(#clip612)" style="stroke:#009af9; stroke-width:20; stroke-opacity:1; fill:none" stroke-dasharray="80, 50" points="
  263.316,1343.84 516.889,1343.43 770.462,1360.74 1024.03,1366.73 1277.61,1372.3 1531.18,1265.03 1784.75,816.011 2038.33,345.518 2291.9,85.838 
  "/>
<path clip-path="url(#clip610)" d="
M1991.14 213.659 L2281.08 213.659 L2281.08 92.6992 L1991.14 92.6992  Z
  " fill="#ffffff" fill-rule="evenodd" fill-opacity="1"/>
<polyline clip-path="url(#clip610)" style="stroke:#000000; stroke-width:4; stroke-opacity:1; fill:none" points="
  1991.14,213.659 2281.08,213.659 2281.08,92.6992 1991.14,92.6992 1991.14,213.659 
  "/>
<polyline clip-path="url(#clip610)" style="stroke:#009af9; stroke-width:4; stroke-opacity:1; fill:none" stroke-dasharray="16, 10" points="
  2015.03,153.179 2158.38,153.179 
  "/>
<path clip-path="url(#clip610)" d="M 0 0 M2196.12 172.867 Q2194.31 177.496 2192.6 178.908 Q2190.89 180.32 2188.02 180.32 L2184.61 180.32 L2184.61 176.755 L2187.11 176.755 Q2188.87 176.755 2189.85 175.922 Q2190.82 175.089 2192 171.987 L2192.76 170.043 L2182.28 144.533 L2186.79 144.533 L2194.89 164.811 L2202.99 144.533 L2207.51 144.533 L2196.12 172.867 Z" fill="#000000" fill-rule="evenodd" fill-opacity="1" /><path clip-path="url(#clip610)" d="M 0 0 M2213.39 166.524 L2221.03 166.524 L2221.03 140.158 L2212.72 141.825 L2212.72 137.566 L2220.98 135.899 L2225.66 135.899 L2225.66 166.524 L2233.29 166.524 L2233.29 170.459 L2213.39 170.459 L2213.39 166.524 Z" fill="#000000" fill-rule="evenodd" fill-opacity="1" /></svg>
