<?xml version="1.0" encoding="utf-8"?>
<svg xmlns="http://www.w3.org/2000/svg" xmlns:xlink="http://www.w3.org/1999/xlink" width="600" height="400" viewBox="0 0 2400 1600">
<defs>
  <clipPath id="clip520">
    <rect x="0" y="0" width="2400" height="1600"/>
  </clipPath>
</defs>
<path clip-path="url(#clip520)" d="
M0 1600 L2400 1600 L2400 0 L0 0  Z
  " fill="#ffffff" fill-rule="evenodd" fill-opacity="1"/>
<defs>
  <clipPath id="clip521">
    <rect x="480" y="0" width="1681" height="1600"/>
  </clipPath>
</defs>
<path clip-path="url(#clip520)" d="
M220.098 1410.9 L2352.76 1410.9 L2352.76 47.2441 L220.098 47.2441  Z
  " fill="#ffffff" fill-rule="evenodd" fill-opacity="1"/>
<defs>
  <clipPath id="clip522">
    <rect x="220" y="47" width="2134" height="1365"/>
  </clipPath>
</defs>
<polyline clip-path="url(#clip522)" style="stroke:#000000; stroke-linecap:butt; stroke-linejoin:round; stroke-width:2; stroke-opacity:0.1; fill:none" points="
  682.844,1410.9 682.844,47.2441 
  "/>
<polyline clip-path="url(#clip522)" style="stroke:#000000; stroke-linecap:butt; stroke-linejoin:round; stroke-width:2; stroke-opacity:0.1; fill:none" points="
  1890.01,1410.9 1890.01,47.2441 
  "/>
<polyline clip-path="url(#clip520)" style="stroke:#000000; stroke-linecap:butt; stroke-linejoin:round; stroke-width:4; stroke-opacity:1; fill:none" points="
  220.098,1410.9 2352.76,1410.9 
  "/>
<polyline clip-path="url(#clip520)" style="stroke:#000000; stroke-linecap:butt; stroke-linejoin:round; stroke-width:4; stroke-opacity:1; fill:none" points="
  682.844,1410.9 682.844,1392 
  "/>
<polyline clip-path="url(#clip520)" style="stroke:#000000; stroke-linecap:butt; stroke-linejoin:round; stroke-width:4; stroke-opacity:1; fill:none" points="
  1890.01,1410.9 1890.01,1392 
  "/>
<path clip-path="url(#clip520)" d="M613.889 1485.02 L621.527 1485.02 L621.527 1458.66 L613.217 1460.32 L613.217 1456.06 L621.481 1454.4 L626.157 1454.4 L626.157 1485.02 L633.796 1485.02 L633.796 1488.96 L613.889 1488.96 L613.889 1485.02 Z" fill="#000000" fill-rule="evenodd" fill-opacity="1" /><path clip-path="url(#clip520)" d="M653.24 1457.48 Q649.629 1457.48 647.8 1461.04 Q645.995 1464.58 645.995 1471.71 Q645.995 1478.82 647.8 1482.38 Q649.629 1485.92 653.24 1485.92 Q656.874 1485.92 658.68 1482.38 Q660.509 1478.82 660.509 1471.71 Q660.509 1464.58 658.68 1461.04 Q656.874 1457.48 653.24 1457.48 M653.24 1453.77 Q659.05 1453.77 662.106 1458.38 Q665.185 1462.96 665.185 1471.71 Q665.185 1480.44 662.106 1485.04 Q659.05 1489.63 653.24 1489.63 Q647.43 1489.63 644.351 1485.04 Q641.296 1480.44 641.296 1471.71 Q641.296 1462.96 644.351 1458.38 Q647.43 1453.77 653.24 1453.77 Z" fill="#000000" fill-rule="evenodd" fill-opacity="1" /><path clip-path="url(#clip520)" d="M665.185 1447.87 L689.296 1447.87 L689.296 1451.07 L665.185 1451.07 L665.185 1447.87 Z" fill="#000000" fill-rule="evenodd" fill-opacity="1" /><path clip-path="url(#clip520)" d="M697.534 1433.47 L712.448 1433.47 L712.448 1436.66 L701.013 1436.66 L701.013 1443.55 Q701.841 1443.27 702.668 1443.13 Q703.496 1442.98 704.324 1442.98 Q709.025 1442.98 711.771 1445.56 Q714.517 1448.14 714.517 1452.54 Q714.517 1457.07 711.696 1459.59 Q708.875 1462.09 703.74 1462.09 Q701.973 1462.09 700.129 1461.79 Q698.305 1461.49 696.349 1460.89 L696.349 1457.07 Q698.042 1457.99 699.847 1458.44 Q701.653 1458.89 703.665 1458.89 Q706.919 1458.89 708.819 1457.18 Q710.718 1455.47 710.718 1452.54 Q710.718 1449.6 708.819 1447.89 Q706.919 1446.18 703.665 1446.18 Q702.142 1446.18 700.618 1446.52 Q699.114 1446.86 697.534 1447.57 L697.534 1433.47 Z" fill="#000000" fill-rule="evenodd" fill-opacity="1" /><path clip-path="url(#clip520)" d="M722.003 1456.77 L725.971 1456.77 L725.971 1461.55 L722.003 1461.55 L722.003 1456.77 Z" fill="#000000" fill-rule="evenodd" fill-opacity="1" /><path clip-path="url(#clip520)" d="M744.685 1436.78 L735.093 1451.77 L744.685 1451.77 L744.685 1436.78 M743.688 1433.47 L748.465 1433.47 L748.465 1451.77 L752.471 1451.77 L752.471 1454.93 L748.465 1454.93 L748.465 1461.55 L744.685 1461.55 L744.685 1454.93 L732.009 1454.93 L732.009 1451.26 L743.688 1433.47 Z" fill="#000000" fill-rule="evenodd" fill-opacity="1" /><path clip-path="url(#clip520)" d="M1821.75 1485.02 L1829.39 1485.02 L1829.39 1458.66 L1821.08 1460.32 L1821.08 1456.06 L1829.34 1454.4 L1834.02 1454.4 L1834.02 1485.02 L1841.66 1485.02 L1841.66 1488.96 L1821.75 1488.96 L1821.75 1485.02 Z" fill="#000000" fill-rule="evenodd" fill-opacity="1" /><path clip-path="url(#clip520)" d="M1861.1 1457.48 Q1857.49 1457.48 1855.66 1461.04 Q1853.86 1464.58 1853.86 1471.71 Q1853.86 1478.82 1855.66 1482.38 Q1857.49 1485.92 1861.1 1485.92 Q1864.74 1485.92 1866.54 1482.38 Q1868.37 1478.82 1868.37 1471.71 Q1868.37 1464.58 1866.54 1461.04 Q1864.74 1457.48 1861.1 1457.48 M1861.1 1453.77 Q1866.91 1453.77 1869.97 1458.38 Q1873.05 1462.96 1873.05 1471.71 Q1873.05 1480.44 1869.97 1485.04 Q1866.91 1489.63 1861.1 1489.63 Q1855.29 1489.63 1852.21 1485.04 Q1849.16 1480.44 1849.16 1471.71 Q1849.16 1462.96 1852.21 1458.38 Q1855.29 1453.77 1861.1 1453.77 Z" fill="#000000" fill-rule="evenodd" fill-opacity="1" /><path clip-path="url(#clip520)" d="M1873.05 1447.87 L1897.16 1447.87 L1897.16 1451.07 L1873.05 1451.07 L1873.05 1447.87 Z" fill="#000000" fill-rule="evenodd" fill-opacity="1" /><path clip-path="url(#clip520)" d="M1905.39 1433.47 L1920.31 1433.47 L1920.31 1436.66 L1908.87 1436.66 L1908.87 1443.55 Q1909.7 1443.27 1910.53 1443.13 Q1911.36 1442.98 1912.18 1442.98 Q1916.89 1442.98 1919.63 1445.56 Q1922.38 1448.14 1922.38 1452.54 Q1922.38 1457.07 1919.56 1459.59 Q1916.74 1462.09 1911.6 1462.09 Q1909.83 1462.09 1907.99 1461.79 Q1906.17 1461.49 1904.21 1460.89 L1904.21 1457.07 Q1905.9 1457.99 1907.71 1458.44 Q1909.51 1458.89 1911.53 1458.89 Q1914.78 1458.89 1916.68 1457.18 Q1918.58 1455.47 1918.58 1452.54 Q1918.58 1449.6 1916.68 1447.89 Q1914.78 1446.18 1911.53 1446.18 Q1910 1446.18 1908.48 1446.52 Q1906.97 1446.86 1905.39 1447.57 L1905.39 1433.47 Z" fill="#000000" fill-rule="evenodd" fill-opacity="1" /><path clip-path="url(#clip520)" d="M1929.86 1456.77 L1933.83 1456.77 L1933.83 1461.55 L1929.86 1461.55 L1929.86 1456.77 Z" fill="#000000" fill-rule="evenodd" fill-opacity="1" /><path clip-path="url(#clip520)" d="M1942.77 1458.35 L1948.97 1458.35 L1948.97 1436.93 L1942.22 1438.28 L1942.22 1434.82 L1948.93 1433.47 L1952.73 1433.47 L1952.73 1458.35 L1958.94 1458.35 L1958.94 1461.55 L1942.77 1461.55 L1942.77 1458.35 Z" fill="#000000" fill-rule="evenodd" fill-opacity="1" /><path clip-path="url(#clip520)" d="M1216.39 1524.66 L1222.28 1524.66 L1222.28 1553.91 L1239.75 1538.54 L1247.23 1538.54 L1228.32 1555.22 L1248.03 1574.19 L1240.39 1574.19 L1222.28 1556.78 L1222.28 1574.19 L1216.39 1574.19 L1216.39 1524.66 Z" fill="#000000" fill-rule="evenodd" fill-opacity="1" /><path clip-path="url(#clip520)" d="M1281.45 1585.01 L1281.45 1589.56 L1247.58 1589.56 L1247.58 1585.01 L1281.45 1585.01 Z" fill="#000000" fill-rule="evenodd" fill-opacity="1" /><path clip-path="url(#clip520)" d="M1300.77 1542.64 Q1296.05 1542.64 1293.32 1546.34 Q1290.58 1550 1290.58 1556.39 Q1290.58 1562.79 1293.29 1566.48 Q1296.02 1570.14 1300.77 1570.14 Q1305.44 1570.14 1308.18 1566.45 Q1310.92 1562.76 1310.92 1556.39 Q1310.92 1550.06 1308.18 1546.37 Q1305.44 1542.64 1300.77 1542.64 M1300.77 1537.68 Q1308.4 1537.68 1312.76 1542.64 Q1317.13 1547.61 1317.13 1556.39 Q1317.13 1565.15 1312.76 1570.14 Q1308.4 1575.11 1300.77 1575.11 Q1293.09 1575.11 1288.73 1570.14 Q1284.41 1565.15 1284.41 1556.39 Q1284.41 1547.61 1288.73 1542.64 Q1293.09 1537.68 1300.77 1537.68 Z" fill="#000000" fill-rule="evenodd" fill-opacity="1" /><path clip-path="url(#clip520)" d="M1356.47 1552.67 L1356.47 1574.19 L1350.61 1574.19 L1350.61 1552.86 Q1350.61 1547.8 1348.64 1545.29 Q1346.66 1542.77 1342.72 1542.77 Q1337.97 1542.77 1335.24 1545.79 Q1332.5 1548.82 1332.5 1554.04 L1332.5 1574.19 L1326.61 1574.19 L1326.61 1538.54 L1332.5 1538.54 L1332.5 1544.08 Q1334.6 1540.86 1337.43 1539.27 Q1340.3 1537.68 1344.02 1537.68 Q1350.16 1537.68 1353.31 1541.5 Q1356.47 1545.29 1356.47 1552.67 Z" fill="#000000" fill-rule="evenodd" fill-opacity="1" /><polyline clip-path="url(#clip522)" style="stroke:#000000; stroke-linecap:butt; stroke-linejoin:round; stroke-width:2; stroke-opacity:0.1; fill:none" points="
  220.098,1164.26 2352.76,1164.26 
  "/>
<polyline clip-path="url(#clip522)" style="stroke:#000000; stroke-linecap:butt; stroke-linejoin:round; stroke-width:2; stroke-opacity:0.1; fill:none" points="
  220.098,867.233 2352.76,867.233 
  "/>
<polyline clip-path="url(#clip522)" style="stroke:#000000; stroke-linecap:butt; stroke-linejoin:round; stroke-width:2; stroke-opacity:0.1; fill:none" points="
  220.098,570.201 2352.76,570.201 
  "/>
<polyline clip-path="url(#clip522)" style="stroke:#000000; stroke-linecap:butt; stroke-linejoin:round; stroke-width:2; stroke-opacity:0.1; fill:none" points="
  220.098,273.169 2352.76,273.169 
  "/>
<polyline clip-path="url(#clip520)" style="stroke:#000000; stroke-linecap:butt; stroke-linejoin:round; stroke-width:4; stroke-opacity:1; fill:none" points="
  220.098,1410.9 220.098,47.2441 
  "/>
<polyline clip-path="url(#clip520)" style="stroke:#000000; stroke-linecap:butt; stroke-linejoin:round; stroke-width:4; stroke-opacity:1; fill:none" points="
  220.098,1164.26 238.995,1164.26 
  "/>
<polyline clip-path="url(#clip520)" style="stroke:#000000; stroke-linecap:butt; stroke-linejoin:round; stroke-width:4; stroke-opacity:1; fill:none" points="
  220.098,867.233 238.995,867.233 
  "/>
<polyline clip-path="url(#clip520)" style="stroke:#000000; stroke-linecap:butt; stroke-linejoin:round; stroke-width:4; stroke-opacity:1; fill:none" points="
  220.098,570.201 238.995,570.201 
  "/>
<polyline clip-path="url(#clip520)" style="stroke:#000000; stroke-linecap:butt; stroke-linejoin:round; stroke-width:4; stroke-opacity:1; fill:none" points="
  220.098,273.169 238.995,273.169 
  "/>
<path clip-path="url(#clip520)" d="M131.274 1162.91 Q134.63 1163.63 136.505 1165.9 Q138.404 1168.17 138.404 1171.5 Q138.404 1176.61 134.885 1179.42 Q131.367 1182.22 124.885 1182.22 Q122.709 1182.22 120.394 1181.78 Q118.103 1181.36 115.649 1180.5 L115.649 1175.99 Q117.593 1177.12 119.908 1177.7 Q122.223 1178.28 124.746 1178.28 Q129.144 1178.28 131.436 1176.54 Q133.751 1174.81 133.751 1171.5 Q133.751 1168.44 131.598 1166.73 Q129.468 1164.99 125.649 1164.99 L121.621 1164.99 L121.621 1161.15 L125.834 1161.15 Q129.283 1161.15 131.112 1159.79 Q132.941 1158.4 132.941 1155.8 Q132.941 1153.14 131.042 1151.73 Q129.167 1150.29 125.649 1150.29 Q123.728 1150.29 121.529 1150.71 Q119.33 1151.13 116.691 1152.01 L116.691 1147.84 Q119.353 1147.1 121.668 1146.73 Q124.005 1146.36 126.066 1146.36 Q131.39 1146.36 134.492 1148.79 Q137.593 1151.2 137.593 1155.32 Q137.593 1158.19 135.95 1160.18 Q134.306 1162.15 131.274 1162.91 Z" fill="#000000" fill-rule="evenodd" fill-opacity="1" /><path clip-path="url(#clip520)" d="M147.269 1175.67 L152.153 1175.67 L152.153 1181.54 L147.269 1181.54 L147.269 1175.67 Z" fill="#000000" fill-rule="evenodd" fill-opacity="1" /><path clip-path="url(#clip520)" d="M162.477 1180.83 L162.477 1176.57 Q164.237 1177.4 166.042 1177.84 Q167.848 1178.28 169.584 1178.28 Q174.214 1178.28 176.644 1175.18 Q179.098 1172.05 179.445 1165.71 Q178.102 1167.7 176.042 1168.77 Q173.982 1169.83 171.482 1169.83 Q166.297 1169.83 163.265 1166.71 Q160.255 1163.56 160.255 1158.12 Q160.255 1152.79 163.403 1149.58 Q166.552 1146.36 171.783 1146.36 Q177.778 1146.36 180.926 1150.97 Q184.098 1155.55 184.098 1164.3 Q184.098 1172.47 180.209 1177.35 Q176.343 1182.22 169.792 1182.22 Q168.033 1182.22 166.227 1181.87 Q164.422 1181.52 162.477 1180.83 M171.783 1166.17 Q174.931 1166.17 176.76 1164.02 Q178.612 1161.87 178.612 1158.12 Q178.612 1154.39 176.76 1152.24 Q174.931 1150.06 171.783 1150.06 Q168.635 1150.06 166.783 1152.24 Q164.954 1154.39 164.954 1158.12 Q164.954 1161.87 166.783 1164.02 Q168.635 1166.17 171.783 1166.17 Z" fill="#000000" fill-rule="evenodd" fill-opacity="1" /><path clip-path="url(#clip520)" d="M131.367 854.027 L119.561 872.476 L131.367 872.476 L131.367 854.027 M130.14 849.953 L136.019 849.953 L136.019 872.476 L140.95 872.476 L140.95 876.365 L136.019 876.365 L136.019 884.513 L131.367 884.513 L131.367 876.365 L115.765 876.365 L115.765 871.851 L130.14 849.953 Z" fill="#000000" fill-rule="evenodd" fill-opacity="1" /><path clip-path="url(#clip520)" d="M148.681 878.633 L153.566 878.633 L153.566 884.513 L148.681 884.513 L148.681 878.633 Z" fill="#000000" fill-rule="evenodd" fill-opacity="1" /><path clip-path="url(#clip520)" d="M167.778 880.578 L184.098 880.578 L184.098 884.513 L162.153 884.513 L162.153 880.578 Q164.815 877.823 169.399 873.193 Q174.005 868.541 175.186 867.198 Q177.431 864.675 178.311 862.939 Q179.214 861.18 179.214 859.49 Q179.214 856.735 177.269 854.999 Q175.348 853.263 172.246 853.263 Q170.047 853.263 167.593 854.027 Q165.163 854.791 162.385 856.342 L162.385 851.62 Q165.209 850.485 167.663 849.907 Q170.116 849.328 172.153 849.328 Q177.524 849.328 180.718 852.013 Q183.913 854.698 183.913 859.189 Q183.913 861.319 183.102 863.24 Q182.315 865.138 180.209 867.731 Q179.63 868.402 176.528 871.619 Q173.427 874.814 167.778 880.578 Z" fill="#000000" fill-rule="evenodd" fill-opacity="1" /><path clip-path="url(#clip520)" d="M130.765 556.995 L118.959 575.444 L130.765 575.444 L130.765 556.995 M129.538 552.921 L135.417 552.921 L135.417 575.444 L140.348 575.444 L140.348 579.333 L135.417 579.333 L135.417 587.481 L130.765 587.481 L130.765 579.333 L115.163 579.333 L115.163 574.819 L129.538 552.921 Z" fill="#000000" fill-rule="evenodd" fill-opacity="1" /><path clip-path="url(#clip520)" d="M148.079 581.601 L152.964 581.601 L152.964 587.481 L148.079 587.481 L148.079 581.601 Z" fill="#000000" fill-rule="evenodd" fill-opacity="1" /><path clip-path="url(#clip520)" d="M163.195 552.921 L181.551 552.921 L181.551 556.856 L167.477 556.856 L167.477 565.328 Q168.496 564.981 169.514 564.819 Q170.533 564.634 171.552 564.634 Q177.339 564.634 180.718 567.805 Q184.098 570.976 184.098 576.393 Q184.098 581.972 180.626 585.074 Q177.153 588.152 170.834 588.152 Q168.658 588.152 166.39 587.782 Q164.144 587.412 161.737 586.671 L161.737 581.972 Q163.82 583.106 166.042 583.662 Q168.264 584.217 170.741 584.217 Q174.746 584.217 177.084 582.111 Q179.422 580.004 179.422 576.393 Q179.422 572.782 177.084 570.676 Q174.746 568.569 170.741 568.569 Q168.866 568.569 166.991 568.986 Q165.14 569.402 163.195 570.282 L163.195 552.921 Z" fill="#000000" fill-rule="evenodd" fill-opacity="1" /><path clip-path="url(#clip520)" d="M129.862 259.963 L118.056 278.412 L129.862 278.412 L129.862 259.963 M128.635 255.889 L134.515 255.889 L134.515 278.412 L139.445 278.412 L139.445 282.301 L134.515 282.301 L134.515 290.449 L129.862 290.449 L129.862 282.301 L114.26 282.301 L114.26 277.787 L128.635 255.889 Z" fill="#000000" fill-rule="evenodd" fill-opacity="1" /><path clip-path="url(#clip520)" d="M147.177 284.569 L152.061 284.569 L152.061 290.449 L147.177 290.449 L147.177 284.569 Z" fill="#000000" fill-rule="evenodd" fill-opacity="1" /><path clip-path="url(#clip520)" d="M172.246 274.037 Q168.913 274.037 166.991 275.82 Q165.093 277.602 165.093 280.727 Q165.093 283.852 166.991 285.634 Q168.913 287.417 172.246 287.417 Q175.579 287.417 177.501 285.634 Q179.422 283.829 179.422 280.727 Q179.422 277.602 177.501 275.82 Q175.602 274.037 172.246 274.037 M167.57 272.046 Q164.561 271.306 162.871 269.246 Q161.204 267.185 161.204 264.222 Q161.204 260.079 164.144 257.671 Q167.107 255.264 172.246 255.264 Q177.408 255.264 180.348 257.671 Q183.288 260.079 183.288 264.222 Q183.288 267.185 181.598 269.246 Q179.931 271.306 176.945 272.046 Q180.325 272.833 182.2 275.125 Q184.098 277.417 184.098 280.727 Q184.098 285.75 181.019 288.435 Q177.964 291.12 172.246 291.12 Q166.528 291.12 163.45 288.435 Q160.394 285.75 160.394 280.727 Q160.394 277.417 162.292 275.125 Q164.19 272.833 167.57 272.046 M165.857 264.662 Q165.857 267.347 167.524 268.852 Q169.214 270.357 172.246 270.357 Q175.255 270.357 176.945 268.852 Q178.658 267.347 178.658 264.662 Q178.658 261.977 176.945 260.472 Q175.255 258.968 172.246 258.968 Q169.214 258.968 167.524 260.472 Q165.857 261.977 165.857 264.662 Z" fill="#000000" fill-rule="evenodd" fill-opacity="1" /><path clip-path="url(#clip520)" d="M35.1993 829.203 Q31.2526 827.007 29.3747 823.951 Q27.4968 820.896 27.4968 816.758 Q27.4968 811.188 31.4117 808.164 Q35.2948 805.141 42.4881 805.141 L64.0042 805.141 L64.0042 811.029 L42.679 811.029 Q37.5546 811.029 35.072 812.843 Q32.5894 814.657 32.5894 818.381 Q32.5894 822.933 35.6131 825.574 Q38.6368 828.216 43.8567 828.216 L64.0042 828.216 L64.0042 834.105 L42.679 834.105 Q37.5228 834.105 35.072 835.919 Q32.5894 837.733 32.5894 841.521 Q32.5894 846.008 35.6449 848.65 Q38.6686 851.292 43.8567 851.292 L64.0042 851.292 L64.0042 857.18 L28.3562 857.18 L28.3562 851.292 L33.8944 851.292 Q30.616 849.287 29.0564 846.486 Q27.4968 843.685 27.4968 839.834 Q27.4968 835.951 29.4702 833.245 Q31.4436 830.508 35.1993 829.203 Z" fill="#000000" fill-rule="evenodd" fill-opacity="1" /><path clip-path="url(#clip520)" d="M28.3562 793.459 L28.3562 787.603 L64.0042 787.603 L64.0042 793.459 L28.3562 793.459 M14.479 793.459 L14.479 787.603 L21.895 787.603 L21.895 793.459 L14.479 793.459 Z" fill="#000000" fill-rule="evenodd" fill-opacity="1" /><path clip-path="url(#clip520)" d="M42.4881 745.717 L64.0042 745.717 L64.0042 751.573 L42.679 751.573 Q37.6183 751.573 35.1038 753.547 Q32.5894 755.52 32.5894 759.467 Q32.5894 764.209 35.6131 766.946 Q38.6368 769.684 43.8567 769.684 L64.0042 769.684 L64.0042 775.572 L28.3562 775.572 L28.3562 769.684 L33.8944 769.684 Q30.6797 767.583 29.0883 764.75 Q27.4968 761.886 27.4968 758.162 Q27.4968 752.019 31.3163 748.868 Q35.1038 745.717 42.4881 745.717 Z" fill="#000000" fill-rule="evenodd" fill-opacity="1" /><path clip-path="url(#clip520)" d="M74.8259 706.95 L79.3773 706.95 L79.3773 740.815 L74.8259 740.815 L74.8259 706.95 Z" fill="#000000" fill-rule="evenodd" fill-opacity="1" /><path clip-path="url(#clip520)" d="M33.7671 677.986 L14.479 677.986 L14.479 672.129 L64.0042 672.129 L64.0042 677.986 L58.657 677.986 Q61.8398 679.832 63.3994 682.664 Q64.9272 685.465 64.9272 689.412 Q64.9272 695.873 59.771 699.947 Q54.6147 703.989 46.212 703.989 Q37.8093 703.989 32.6531 699.947 Q27.4968 695.873 27.4968 689.412 Q27.4968 685.465 29.0564 682.664 Q30.5842 679.832 33.7671 677.986 M46.212 697.942 Q52.6732 697.942 56.3653 695.3 Q60.0256 692.627 60.0256 687.98 Q60.0256 683.333 56.3653 680.659 Q52.6732 677.986 46.212 677.986 Q39.7508 677.986 36.0905 680.659 Q32.3984 683.333 32.3984 687.98 Q32.3984 692.627 36.0905 695.3 Q39.7508 697.942 46.212 697.942 Z" fill="#000000" fill-rule="evenodd" fill-opacity="1" /><path clip-path="url(#clip520)" d="M28.3562 660.066 L28.3562 654.21 L64.0042 654.21 L64.0042 660.066 L28.3562 660.066 M14.479 660.066 L14.479 654.21 L21.895 654.21 L21.895 660.066 L14.479 660.066 Z" fill="#000000" fill-rule="evenodd" fill-opacity="1" /><path clip-path="url(#clip520)" d="M14.479 623.909 L19.3487 623.909 L19.3487 629.511 Q19.3487 632.662 20.6219 633.903 Q21.895 635.113 25.2052 635.113 L28.3562 635.113 L28.3562 625.468 L32.9077 625.468 L32.9077 635.113 L64.0042 635.113 L64.0042 641.001 L32.9077 641.001 L32.9077 646.603 L28.3562 646.603 L28.3562 641.001 L25.8736 641.001 Q19.9216 641.001 17.2162 638.232 Q14.479 635.463 14.479 629.447 L14.479 623.909 Z" fill="#000000" fill-rule="evenodd" fill-opacity="1" /><path clip-path="url(#clip520)" d="M14.479 600.961 L19.3487 600.961 L19.3487 606.562 Q19.3487 609.713 20.6219 610.955 Q21.895 612.164 25.2052 612.164 L28.3562 612.164 L28.3562 602.52 L32.9077 602.52 L32.9077 612.164 L64.0042 612.164 L64.0042 618.052 L32.9077 618.052 L32.9077 623.654 L28.3562 623.654 L28.3562 618.052 L25.8736 618.052 Q19.9216 618.052 17.2162 615.283 Q14.479 612.514 14.479 606.499 L14.479 600.961 Z" fill="#000000" fill-rule="evenodd" fill-opacity="1" /><polyline clip-path="url(#clip522)" style="stroke:#009af9; stroke-linecap:butt; stroke-linejoin:round; stroke-width:20; stroke-opacity:1; fill:none" stroke-dasharray="80, 50" points="
  280.456,614.282 1286.43,1372.3 2292.4,85.838 
  "/>
<path clip-path="url(#clip520)" d="
M1992.28 196.379 L2281.67 196.379 L2281.67 92.6992 L1992.28 92.6992  Z
  " fill="#ffffff" fill-rule="evenodd" fill-opacity="1"/>
<polyline clip-path="url(#clip520)" style="stroke:#000000; stroke-linecap:butt; stroke-linejoin:round; stroke-width:4; stroke-opacity:1; fill:none" points="
  1992.28,196.379 2281.67,196.379 2281.67,92.6992 1992.28,92.6992 1992.28,196.379 
  "/>
<polyline clip-path="url(#clip520)" style="stroke:#009af9; stroke-linecap:butt; stroke-linejoin:round; stroke-width:4; stroke-opacity:1; fill:none" stroke-dasharray="16, 10" points="
  2015.97,144.539 2158.15,144.539 
  "/>
<path clip-path="url(#clip520)" d="M2195.69 164.227 Q2193.88 168.856 2192.17 170.268 Q2190.46 171.68 2187.59 171.68 L2184.18 171.68 L2184.18 168.115 L2186.68 168.115 Q2188.44 168.115 2189.41 167.282 Q2190.39 166.449 2191.57 163.347 L2192.33 161.403 L2181.84 135.893 L2186.36 135.893 L2194.46 156.171 L2202.56 135.893 L2207.08 135.893 L2195.69 164.227 Z" fill="#000000" fill-rule="evenodd" fill-opacity="1" /><path clip-path="url(#clip520)" d="M2214.37 157.884 L2222.01 157.884 L2222.01 131.518 L2213.7 133.185 L2213.7 128.926 L2221.96 127.259 L2226.64 127.259 L2226.64 157.884 L2234.27 157.884 L2234.27 161.819 L2214.37 161.819 L2214.37 157.884 Z" fill="#000000" fill-rule="evenodd" fill-opacity="1" /></svg>
