<?xml version="1.0" encoding="utf-8"?>
<svg xmlns="http://www.w3.org/2000/svg" xmlns:xlink="http://www.w3.org/1999/xlink" width="600" height="400" viewBox="0 0 2400 1600">
<defs>
  <clipPath id="clip540">
    <rect x="0" y="0" width="2400" height="1600"/>
  </clipPath>
</defs>
<path clip-path="url(#clip540)" d="
M0 1600 L2400 1600 L2400 0 L0 0  Z
  " fill="#ffffff" fill-rule="evenodd" fill-opacity="1"/>
<defs>
  <clipPath id="clip541">
    <rect x="480" y="0" width="1681" height="1600"/>
  </clipPath>
</defs>
<path clip-path="url(#clip540)" d="
M199.704 1410.9 L2352.76 1410.9 L2352.76 47.2441 L199.704 47.2441  Z
  " fill="#ffffff" fill-rule="evenodd" fill-opacity="1"/>
<defs>
  <clipPath id="clip542">
    <rect x="199" y="47" width="2154" height="1365"/>
  </clipPath>
</defs>
<polyline clip-path="url(#clip542)" style="stroke:#000000; stroke-width:2; stroke-opacity:0.1; fill:none" points="
  260.64,1410.9 260.64,47.2441 
  "/>
<polyline clip-path="url(#clip542)" style="stroke:#000000; stroke-width:2; stroke-opacity:0.1; fill:none" points="
  666.876,1410.9 666.876,47.2441 
  "/>
<polyline clip-path="url(#clip542)" style="stroke:#000000; stroke-width:2; stroke-opacity:0.1; fill:none" points="
  1073.11,1410.9 1073.11,47.2441 
  "/>
<polyline clip-path="url(#clip542)" style="stroke:#000000; stroke-width:2; stroke-opacity:0.1; fill:none" points="
  1479.35,1410.9 1479.35,47.2441 
  "/>
<polyline clip-path="url(#clip542)" style="stroke:#000000; stroke-width:2; stroke-opacity:0.1; fill:none" points="
  1885.58,1410.9 1885.58,47.2441 
  "/>
<polyline clip-path="url(#clip542)" style="stroke:#000000; stroke-width:2; stroke-opacity:0.1; fill:none" points="
  2291.82,1410.9 2291.82,47.2441 
  "/>
<polyline clip-path="url(#clip540)" style="stroke:#000000; stroke-width:4; stroke-opacity:1; fill:none" points="
  199.704,1410.9 2352.76,1410.9 
  "/>
<polyline clip-path="url(#clip540)" style="stroke:#000000; stroke-width:4; stroke-opacity:1; fill:none" points="
  260.64,1410.9 260.64,1394.53 
  "/>
<polyline clip-path="url(#clip540)" style="stroke:#000000; stroke-width:4; stroke-opacity:1; fill:none" points="
  666.876,1410.9 666.876,1394.53 
  "/>
<polyline clip-path="url(#clip540)" style="stroke:#000000; stroke-width:4; stroke-opacity:1; fill:none" points="
  1073.11,1410.9 1073.11,1394.53 
  "/>
<polyline clip-path="url(#clip540)" style="stroke:#000000; stroke-width:4; stroke-opacity:1; fill:none" points="
  1479.35,1410.9 1479.35,1394.53 
  "/>
<polyline clip-path="url(#clip540)" style="stroke:#000000; stroke-width:4; stroke-opacity:1; fill:none" points="
  1885.58,1410.9 1885.58,1394.53 
  "/>
<polyline clip-path="url(#clip540)" style="stroke:#000000; stroke-width:4; stroke-opacity:1; fill:none" points="
  2291.82,1410.9 2291.82,1394.53 
  "/>
<path clip-path="url(#clip540)" d="M 0 0 M199.674 1489.17 L207.312 1489.17 L207.312 1462.8 L199.002 1464.47 L199.002 1460.21 L207.266 1458.54 L211.942 1458.54 L211.942 1489.17 L219.581 1489.17 L219.581 1493.1 L199.674 1493.1 L199.674 1489.17 Z" fill="#000000" fill-rule="evenodd" fill-opacity="1" /><path clip-path="url(#clip540)" d="M 0 0 M234.65 1461.62 Q231.039 1461.62 229.211 1465.19 Q227.405 1468.73 227.405 1475.86 Q227.405 1482.97 229.211 1486.53 Q231.039 1490.07 234.65 1490.07 Q238.285 1490.07 240.09 1486.53 Q241.919 1482.97 241.919 1475.86 Q241.919 1468.73 240.09 1465.19 Q238.285 1461.62 234.65 1461.62 M234.65 1457.92 Q240.46 1457.92 243.516 1462.53 Q246.595 1467.11 246.595 1475.86 Q246.595 1484.59 243.516 1489.19 Q240.46 1493.78 234.65 1493.78 Q228.84 1493.78 225.761 1489.19 Q222.706 1484.59 222.706 1475.86 Q222.706 1467.11 225.761 1462.53 Q228.84 1457.92 234.65 1457.92 Z" fill="#000000" fill-rule="evenodd" fill-opacity="1" /><path clip-path="url(#clip540)" d="M 0 0 M246.595 1452.02 L270.706 1452.02 L270.706 1455.22 L246.595 1455.22 L246.595 1452.02 Z" fill="#000000" fill-rule="evenodd" fill-opacity="1" /><path clip-path="url(#clip540)" d="M 0 0 M285.263 1440.92 L275.672 1455.91 L285.263 1455.91 L285.263 1440.92 M284.267 1437.61 L289.044 1437.61 L289.044 1455.91 L293.05 1455.91 L293.05 1459.07 L289.044 1459.07 L289.044 1465.69 L285.263 1465.69 L285.263 1459.07 L272.587 1459.07 L272.587 1455.41 L284.267 1437.61 Z" fill="#000000" fill-rule="evenodd" fill-opacity="1" /><path clip-path="url(#clip540)" d="M 0 0 M297.169 1460.92 L301.137 1460.92 L301.137 1465.69 L297.169 1465.69 L297.169 1460.92 Z" fill="#000000" fill-rule="evenodd" fill-opacity="1" /><path clip-path="url(#clip540)" d="M 0 0 M305.294 1437.61 L320.208 1437.61 L320.208 1440.81 L308.773 1440.81 L308.773 1447.69 Q309.601 1447.41 310.428 1447.28 Q311.256 1447.13 312.083 1447.13 Q316.785 1447.13 319.531 1449.71 Q322.277 1452.28 322.277 1456.68 Q322.277 1461.22 319.456 1463.74 Q316.635 1466.24 311.5 1466.24 Q309.732 1466.24 307.889 1465.94 Q306.065 1465.64 304.109 1465.04 L304.109 1461.22 Q305.802 1462.14 307.607 1462.59 Q309.413 1463.04 311.425 1463.04 Q314.679 1463.04 316.578 1461.33 Q318.478 1459.62 318.478 1456.68 Q318.478 1453.75 316.578 1452.04 Q314.679 1450.33 311.425 1450.33 Q309.902 1450.33 308.378 1450.67 Q306.874 1451 305.294 1451.72 L305.294 1437.61 Z" fill="#000000" fill-rule="evenodd" fill-opacity="1" /><path clip-path="url(#clip540)" d="M 0 0 M605.308 1489.17 L612.947 1489.17 L612.947 1462.8 L604.637 1464.47 L604.637 1460.21 L612.9 1458.54 L617.576 1458.54 L617.576 1489.17 L625.215 1489.17 L625.215 1493.1 L605.308 1493.1 L605.308 1489.17 Z" fill="#000000" fill-rule="evenodd" fill-opacity="1" /><path clip-path="url(#clip540)" d="M 0 0 M640.285 1461.62 Q636.674 1461.62 634.845 1465.19 Q633.039 1468.73 633.039 1475.86 Q633.039 1482.97 634.845 1486.53 Q636.674 1490.07 640.285 1490.07 Q643.919 1490.07 645.724 1486.53 Q647.553 1482.97 647.553 1475.86 Q647.553 1468.73 645.724 1465.19 Q643.919 1461.62 640.285 1461.62 M640.285 1457.92 Q646.095 1457.92 649.15 1462.53 Q652.229 1467.11 652.229 1475.86 Q652.229 1484.59 649.15 1489.19 Q646.095 1493.78 640.285 1493.78 Q634.474 1493.78 631.396 1489.19 Q628.34 1484.59 628.34 1475.86 Q628.34 1467.11 631.396 1462.53 Q634.474 1457.92 640.285 1457.92 Z" fill="#000000" fill-rule="evenodd" fill-opacity="1" /><path clip-path="url(#clip540)" d="M 0 0 M652.229 1452.02 L676.341 1452.02 L676.341 1455.22 L652.229 1455.22 L652.229 1452.02 Z" fill="#000000" fill-rule="evenodd" fill-opacity="1" /><path clip-path="url(#clip540)" d="M 0 0 M690.898 1440.92 L681.306 1455.91 L690.898 1455.91 L690.898 1440.92 M689.901 1437.61 L694.678 1437.61 L694.678 1455.91 L698.684 1455.91 L698.684 1459.07 L694.678 1459.07 L694.678 1465.69 L690.898 1465.69 L690.898 1459.07 L678.221 1459.07 L678.221 1455.41 L689.901 1437.61 Z" fill="#000000" fill-rule="evenodd" fill-opacity="1" /><path clip-path="url(#clip540)" d="M 0 0 M702.803 1460.92 L706.772 1460.92 L706.772 1465.69 L702.803 1465.69 L702.803 1460.92 Z" fill="#000000" fill-rule="evenodd" fill-opacity="1" /><path clip-path="url(#clip540)" d="M 0 0 M721.329 1440.92 L711.737 1455.91 L721.329 1455.91 L721.329 1440.92 M720.332 1437.61 L725.109 1437.61 L725.109 1455.91 L729.115 1455.91 L729.115 1459.07 L725.109 1459.07 L725.109 1465.69 L721.329 1465.69 L721.329 1459.07 L708.652 1459.07 L708.652 1455.41 L720.332 1437.61 Z" fill="#000000" fill-rule="evenodd" fill-opacity="1" /><path clip-path="url(#clip540)" d="M 0 0 M1012 1489.17 L1019.64 1489.17 L1019.64 1462.8 L1011.33 1464.47 L1011.33 1460.21 L1019.6 1458.54 L1024.27 1458.54 L1024.27 1489.17 L1031.91 1489.17 L1031.91 1493.1 L1012 1493.1 L1012 1489.17 Z" fill="#000000" fill-rule="evenodd" fill-opacity="1" /><path clip-path="url(#clip540)" d="M 0 0 M1046.98 1461.62 Q1043.37 1461.62 1041.54 1465.19 Q1039.74 1468.73 1039.74 1475.86 Q1039.74 1482.97 1041.54 1486.53 Q1043.37 1490.07 1046.98 1490.07 Q1050.62 1490.07 1052.42 1486.53 Q1054.25 1482.97 1054.25 1475.86 Q1054.25 1468.73 1052.42 1465.19 Q1050.62 1461.62 1046.98 1461.62 M1046.98 1457.92 Q1052.79 1457.92 1055.85 1462.53 Q1058.93 1467.11 1058.93 1475.86 Q1058.93 1484.59 1055.85 1489.19 Q1052.79 1493.78 1046.98 1493.78 Q1041.17 1493.78 1038.09 1489.19 Q1035.04 1484.59 1035.04 1475.86 Q1035.04 1467.11 1038.09 1462.53 Q1041.17 1457.92 1046.98 1457.92 Z" fill="#000000" fill-rule="evenodd" fill-opacity="1" /><path clip-path="url(#clip540)" d="M 0 0 M1058.93 1452.02 L1083.04 1452.02 L1083.04 1455.22 L1058.93 1455.22 L1058.93 1452.02 Z" fill="#000000" fill-rule="evenodd" fill-opacity="1" /><path clip-path="url(#clip540)" d="M 0 0 M1097.59 1440.92 L1088 1455.91 L1097.59 1455.91 L1097.59 1440.92 M1096.6 1437.61 L1101.38 1437.61 L1101.38 1455.91 L1105.38 1455.91 L1105.38 1459.07 L1101.38 1459.07 L1101.38 1465.69 L1097.59 1465.69 L1097.59 1459.07 L1084.92 1459.07 L1084.92 1455.41 L1096.6 1437.61 Z" fill="#000000" fill-rule="evenodd" fill-opacity="1" /><path clip-path="url(#clip540)" d="M 0 0 M1109.5 1460.92 L1113.47 1460.92 L1113.47 1465.69 L1109.5 1465.69 L1109.5 1460.92 Z" fill="#000000" fill-rule="evenodd" fill-opacity="1" /><path clip-path="url(#clip540)" d="M 0 0 M1129.1 1450.55 Q1131.82 1451.14 1133.35 1452.98 Q1134.89 1454.82 1134.89 1457.53 Q1134.89 1461.69 1132.03 1463.96 Q1129.17 1466.24 1123.91 1466.24 Q1122.14 1466.24 1120.26 1465.88 Q1118.4 1465.54 1116.4 1464.85 L1116.4 1461.18 Q1117.98 1462.1 1119.86 1462.57 Q1121.74 1463.04 1123.79 1463.04 Q1127.37 1463.04 1129.23 1461.63 Q1131.11 1460.22 1131.11 1457.53 Q1131.11 1455.05 1129.36 1453.66 Q1127.63 1452.25 1124.53 1452.25 L1121.25 1452.25 L1121.25 1449.12 L1124.68 1449.12 Q1127.48 1449.12 1128.97 1448.01 Q1130.45 1446.89 1130.45 1444.78 Q1130.45 1442.62 1128.91 1441.47 Q1127.39 1440.3 1124.53 1440.3 Q1122.97 1440.3 1121.18 1440.64 Q1119.39 1440.98 1117.25 1441.69 L1117.25 1438.31 Q1119.41 1437.71 1121.29 1437.41 Q1123.19 1437.11 1124.87 1437.11 Q1129.19 1437.11 1131.71 1439.08 Q1134.23 1441.04 1134.23 1444.38 Q1134.23 1446.72 1132.9 1448.33 Q1131.56 1449.93 1129.1 1450.55 Z" fill="#000000" fill-rule="evenodd" fill-opacity="1" /><path clip-path="url(#clip540)" d="M 0 0 M1418.63 1489.17 L1426.27 1489.17 L1426.27 1462.8 L1417.96 1464.47 L1417.96 1460.21 L1426.22 1458.54 L1430.9 1458.54 L1430.9 1489.17 L1438.53 1489.17 L1438.53 1493.1 L1418.63 1493.1 L1418.63 1489.17 Z" fill="#000000" fill-rule="evenodd" fill-opacity="1" /><path clip-path="url(#clip540)" d="M 0 0 M1453.6 1461.62 Q1449.99 1461.62 1448.16 1465.19 Q1446.36 1468.73 1446.36 1475.86 Q1446.36 1482.97 1448.16 1486.53 Q1449.99 1490.07 1453.6 1490.07 Q1457.24 1490.07 1459.04 1486.53 Q1460.87 1482.97 1460.87 1475.86 Q1460.87 1468.73 1459.04 1465.19 Q1457.24 1461.62 1453.6 1461.62 M1453.6 1457.92 Q1459.41 1457.92 1462.47 1462.53 Q1465.55 1467.11 1465.55 1475.86 Q1465.55 1484.59 1462.47 1489.19 Q1459.41 1493.78 1453.6 1493.78 Q1447.79 1493.78 1444.71 1489.19 Q1441.66 1484.59 1441.66 1475.86 Q1441.66 1467.11 1444.71 1462.53 Q1447.79 1457.92 1453.6 1457.92 Z" fill="#000000" fill-rule="evenodd" fill-opacity="1" /><path clip-path="url(#clip540)" d="M 0 0 M1465.55 1452.02 L1489.66 1452.02 L1489.66 1455.22 L1465.55 1455.22 L1465.55 1452.02 Z" fill="#000000" fill-rule="evenodd" fill-opacity="1" /><path clip-path="url(#clip540)" d="M 0 0 M1504.22 1440.92 L1494.62 1455.91 L1504.22 1455.91 L1504.22 1440.92 M1503.22 1437.61 L1508 1437.61 L1508 1455.91 L1512 1455.91 L1512 1459.07 L1508 1459.07 L1508 1465.69 L1504.22 1465.69 L1504.22 1459.07 L1491.54 1459.07 L1491.54 1455.41 L1503.22 1437.61 Z" fill="#000000" fill-rule="evenodd" fill-opacity="1" /><path clip-path="url(#clip540)" d="M 0 0 M1516.12 1460.92 L1520.09 1460.92 L1520.09 1465.69 L1516.12 1465.69 L1516.12 1460.92 Z" fill="#000000" fill-rule="evenodd" fill-opacity="1" /><path clip-path="url(#clip540)" d="M 0 0 M1527.48 1462.5 L1540.74 1462.5 L1540.74 1465.69 L1522.91 1465.69 L1522.91 1462.5 Q1525.07 1460.26 1528.8 1456.5 Q1532.54 1452.72 1533.5 1451.63 Q1535.32 1449.58 1536.04 1448.16 Q1536.77 1446.74 1536.77 1445.36 Q1536.77 1443.12 1535.19 1441.71 Q1533.63 1440.3 1531.11 1440.3 Q1529.32 1440.3 1527.33 1440.92 Q1525.36 1441.54 1523.1 1442.8 L1523.1 1438.97 Q1525.39 1438.05 1527.39 1437.58 Q1529.38 1437.11 1531.04 1437.11 Q1535.4 1437.11 1538 1439.29 Q1540.59 1441.47 1540.59 1445.12 Q1540.59 1446.85 1539.93 1448.41 Q1539.29 1449.95 1537.58 1452.06 Q1537.11 1452.6 1534.59 1455.22 Q1532.07 1457.81 1527.48 1462.5 Z" fill="#000000" fill-rule="evenodd" fill-opacity="1" /><path clip-path="url(#clip540)" d="M 0 0 M1824.71 1489.17 L1832.35 1489.17 L1832.35 1462.8 L1824.04 1464.47 L1824.04 1460.21 L1832.3 1458.54 L1836.98 1458.54 L1836.98 1489.17 L1844.62 1489.17 L1844.62 1493.1 L1824.71 1493.1 L1824.71 1489.17 Z" fill="#000000" fill-rule="evenodd" fill-opacity="1" /><path clip-path="url(#clip540)" d="M 0 0 M1859.69 1461.62 Q1856.08 1461.62 1854.25 1465.19 Q1852.44 1468.73 1852.44 1475.86 Q1852.44 1482.97 1854.25 1486.53 Q1856.08 1490.07 1859.69 1490.07 Q1863.32 1490.07 1865.13 1486.53 Q1866.96 1482.97 1866.96 1475.86 Q1866.96 1468.73 1865.13 1465.19 Q1863.32 1461.62 1859.69 1461.62 M1859.69 1457.92 Q1865.5 1457.92 1868.55 1462.53 Q1871.63 1467.11 1871.63 1475.86 Q1871.63 1484.59 1868.55 1489.19 Q1865.5 1493.78 1859.69 1493.78 Q1853.88 1493.78 1850.8 1489.19 Q1847.74 1484.59 1847.74 1475.86 Q1847.74 1467.11 1850.8 1462.53 Q1853.88 1457.92 1859.69 1457.92 Z" fill="#000000" fill-rule="evenodd" fill-opacity="1" /><path clip-path="url(#clip540)" d="M 0 0 M1871.63 1452.02 L1895.74 1452.02 L1895.74 1455.22 L1871.63 1455.22 L1871.63 1452.02 Z" fill="#000000" fill-rule="evenodd" fill-opacity="1" /><path clip-path="url(#clip540)" d="M 0 0 M1910.3 1440.92 L1900.71 1455.91 L1910.3 1455.91 L1910.3 1440.92 M1909.31 1437.61 L1914.08 1437.61 L1914.08 1455.91 L1918.09 1455.91 L1918.09 1459.07 L1914.08 1459.07 L1914.08 1465.69 L1910.3 1465.69 L1910.3 1459.07 L1897.63 1459.07 L1897.63 1455.41 L1909.31 1437.61 Z" fill="#000000" fill-rule="evenodd" fill-opacity="1" /><path clip-path="url(#clip540)" d="M 0 0 M1922.21 1460.92 L1926.18 1460.92 L1926.18 1465.69 L1922.21 1465.69 L1922.21 1460.92 Z" fill="#000000" fill-rule="evenodd" fill-opacity="1" /><path clip-path="url(#clip540)" d="M 0 0 M1930.95 1462.5 L1937.16 1462.5 L1937.16 1441.07 L1930.41 1442.43 L1930.41 1438.97 L1937.12 1437.61 L1940.92 1437.61 L1940.92 1462.5 L1947.13 1462.5 L1947.13 1465.69 L1930.95 1465.69 L1930.95 1462.5 Z" fill="#000000" fill-rule="evenodd" fill-opacity="1" /><path clip-path="url(#clip540)" d="M 0 0 M2230.45 1489.17 L2238.09 1489.17 L2238.09 1462.8 L2229.78 1464.47 L2229.78 1460.21 L2238.04 1458.54 L2242.72 1458.54 L2242.72 1489.17 L2250.36 1489.17 L2250.36 1493.1 L2230.45 1493.1 L2230.45 1489.17 Z" fill="#000000" fill-rule="evenodd" fill-opacity="1" /><path clip-path="url(#clip540)" d="M 0 0 M2265.43 1461.62 Q2261.82 1461.62 2259.99 1465.19 Q2258.18 1468.73 2258.18 1475.86 Q2258.18 1482.97 2259.99 1486.53 Q2261.82 1490.07 2265.43 1490.07 Q2269.06 1490.07 2270.87 1486.53 Q2272.7 1482.97 2272.7 1475.86 Q2272.7 1468.73 2270.87 1465.19 Q2269.06 1461.62 2265.43 1461.62 M2265.43 1457.92 Q2271.24 1457.92 2274.29 1462.53 Q2277.37 1467.11 2277.37 1475.86 Q2277.37 1484.59 2274.29 1489.19 Q2271.24 1493.78 2265.43 1493.78 Q2259.62 1493.78 2256.54 1489.19 Q2253.48 1484.59 2253.48 1475.86 Q2253.48 1467.11 2256.54 1462.53 Q2259.62 1457.92 2265.43 1457.92 Z" fill="#000000" fill-rule="evenodd" fill-opacity="1" /><path clip-path="url(#clip540)" d="M 0 0 M2277.37 1452.02 L2301.48 1452.02 L2301.48 1455.22 L2277.37 1455.22 L2277.37 1452.02 Z" fill="#000000" fill-rule="evenodd" fill-opacity="1" /><path clip-path="url(#clip540)" d="M 0 0 M2316.04 1440.92 L2306.45 1455.91 L2316.04 1455.91 L2316.04 1440.92 M2315.04 1437.61 L2319.82 1437.61 L2319.82 1455.91 L2323.83 1455.91 L2323.83 1459.07 L2319.82 1459.07 L2319.82 1465.69 L2316.04 1465.69 L2316.04 1459.07 L2303.36 1459.07 L2303.36 1455.41 L2315.04 1437.61 Z" fill="#000000" fill-rule="evenodd" fill-opacity="1" /><path clip-path="url(#clip540)" d="M 0 0 M2327.95 1460.92 L2331.91 1460.92 L2331.91 1465.69 L2327.95 1465.69 L2327.95 1460.92 Z" fill="#000000" fill-rule="evenodd" fill-opacity="1" /><path clip-path="url(#clip540)" d="M 0 0 M2344.16 1440.11 Q2341.22 1440.11 2339.74 1443.01 Q2338.27 1445.89 2338.27 1451.68 Q2338.27 1457.46 2339.74 1460.35 Q2341.22 1463.23 2344.16 1463.23 Q2347.11 1463.23 2348.58 1460.35 Q2350.06 1457.46 2350.06 1451.68 Q2350.06 1445.89 2348.58 1443.01 Q2347.11 1440.11 2344.16 1440.11 M2344.16 1437.11 Q2348.88 1437.11 2351.36 1440.85 Q2353.86 1444.57 2353.86 1451.68 Q2353.86 1458.77 2351.36 1462.51 Q2348.88 1466.24 2344.16 1466.24 Q2339.44 1466.24 2336.94 1462.51 Q2334.45 1458.77 2334.45 1451.68 Q2334.45 1444.57 2336.94 1440.85 Q2339.44 1437.11 2344.16 1437.11 Z" fill="#000000" fill-rule="evenodd" fill-opacity="1" /><path clip-path="url(#clip540)" d="M 0 0 M1201.45 1512.66 L1207.34 1512.66 L1207.34 1541.91 L1224.81 1526.54 L1232.29 1526.54 L1213.38 1543.22 L1233.09 1562.19 L1225.45 1562.19 L1207.34 1544.78 L1207.34 1562.19 L1201.45 1562.19 L1201.45 1512.66 Z" fill="#000000" fill-rule="evenodd" fill-opacity="1" /><path clip-path="url(#clip540)" d="M 0 0 M1266.32 1573.01 L1266.32 1577.56 L1232.45 1577.56 L1232.45 1573.01 L1266.32 1573.01 Z" fill="#000000" fill-rule="evenodd" fill-opacity="1" /><path clip-path="url(#clip540)" d="M 0 0 M1286.27 1530.64 Q1281.56 1530.64 1278.82 1534.34 Q1276.09 1538 1276.09 1544.39 Q1276.09 1550.79 1278.79 1554.48 Q1281.53 1558.14 1286.27 1558.14 Q1290.95 1558.14 1293.69 1554.45 Q1296.43 1550.76 1296.43 1544.39 Q1296.43 1538.06 1293.69 1534.37 Q1290.95 1530.64 1286.27 1530.64 M1286.27 1525.68 Q1293.91 1525.68 1298.27 1530.64 Q1302.63 1535.61 1302.63 1544.39 Q1302.63 1553.15 1298.27 1558.14 Q1293.91 1563.11 1286.27 1563.11 Q1278.6 1563.11 1274.24 1558.14 Q1269.91 1553.15 1269.91 1544.39 Q1269.91 1535.61 1274.24 1530.64 Q1278.6 1525.68 1286.27 1525.68 Z" fill="#000000" fill-rule="evenodd" fill-opacity="1" /><path clip-path="url(#clip540)" d="M 0 0 M1326.82 1512.66 L1326.82 1517.53 L1321.22 1517.53 Q1318.07 1517.53 1316.83 1518.8 Q1315.62 1520.08 1315.62 1523.39 L1315.62 1526.54 L1325.26 1526.54 L1325.26 1531.09 L1315.62 1531.09 L1315.62 1562.19 L1309.73 1562.19 L1309.73 1531.09 L1304.13 1531.09 L1304.13 1526.54 L1309.73 1526.54 L1309.73 1524.05 Q1309.73 1518.1 1312.5 1515.4 Q1315.27 1512.66 1321.28 1512.66 L1326.82 1512.66 Z" fill="#000000" fill-rule="evenodd" fill-opacity="1" /><path clip-path="url(#clip540)" d="M 0 0 M1351.01 1512.66 L1351.01 1517.53 L1345.41 1517.53 Q1342.26 1517.53 1341.02 1518.8 Q1339.81 1520.08 1339.81 1523.39 L1339.81 1526.54 L1349.45 1526.54 L1349.45 1531.09 L1339.81 1531.09 L1339.81 1562.19 L1333.92 1562.19 L1333.92 1531.09 L1328.32 1531.09 L1328.32 1526.54 L1333.92 1526.54 L1333.92 1524.05 Q1333.92 1518.1 1336.69 1515.4 Q1339.46 1512.66 1345.47 1512.66 L1351.01 1512.66 Z" fill="#000000" fill-rule="evenodd" fill-opacity="1" /><polyline clip-path="url(#clip542)" style="stroke:#000000; stroke-width:2; stroke-opacity:0.1; fill:none" points="
  199.704,1126.46 2352.76,1126.46 
  "/>
<polyline clip-path="url(#clip542)" style="stroke:#000000; stroke-width:2; stroke-opacity:0.1; fill:none" points="
  199.704,824.101 2352.76,824.101 
  "/>
<polyline clip-path="url(#clip542)" style="stroke:#000000; stroke-width:2; stroke-opacity:0.1; fill:none" points="
  199.704,521.742 2352.76,521.742 
  "/>
<polyline clip-path="url(#clip542)" style="stroke:#000000; stroke-width:2; stroke-opacity:0.1; fill:none" points="
  199.704,219.383 2352.76,219.383 
  "/>
<polyline clip-path="url(#clip540)" style="stroke:#000000; stroke-width:4; stroke-opacity:1; fill:none" points="
  199.704,1410.9 199.704,47.2441 
  "/>
<polyline clip-path="url(#clip540)" style="stroke:#000000; stroke-width:4; stroke-opacity:1; fill:none" points="
  199.704,1126.46 225.541,1126.46 
  "/>
<polyline clip-path="url(#clip540)" style="stroke:#000000; stroke-width:4; stroke-opacity:1; fill:none" points="
  199.704,824.101 225.541,824.101 
  "/>
<polyline clip-path="url(#clip540)" style="stroke:#000000; stroke-width:4; stroke-opacity:1; fill:none" points="
  199.704,521.742 225.541,521.742 
  "/>
<polyline clip-path="url(#clip540)" style="stroke:#000000; stroke-width:4; stroke-opacity:1; fill:none" points="
  199.704,219.383 225.541,219.383 
  "/>
<path clip-path="url(#clip540)" d="M 0 0 M121.019 1139.8 L137.339 1139.8 L137.339 1143.74 L115.394 1143.74 L115.394 1139.8 Q118.056 1137.05 122.64 1132.42 Q127.246 1127.77 128.427 1126.42 Q130.672 1123.9 131.552 1122.17 Q132.455 1120.41 132.455 1118.72 Q132.455 1115.96 130.51 1114.23 Q128.589 1112.49 125.487 1112.49 Q123.288 1112.49 120.834 1113.25 Q118.404 1114.02 115.626 1115.57 L115.626 1110.85 Q118.45 1109.71 120.904 1109.13 Q123.357 1108.55 125.394 1108.55 Q130.765 1108.55 133.959 1111.24 Q137.154 1113.92 137.154 1118.42 Q137.154 1120.55 136.343 1122.47 Q135.556 1124.36 133.45 1126.96 Q132.871 1127.63 129.769 1130.85 Q126.667 1134.04 121.019 1139.8 Z" fill="#000000" fill-rule="evenodd" fill-opacity="1" /><path clip-path="url(#clip540)" d="M 0 0 M156.575 1125.11 Q159.931 1125.82 161.806 1128.09 Q163.704 1130.36 163.704 1133.69 Q163.704 1138.81 160.186 1141.61 Q156.667 1144.41 150.186 1144.41 Q148.01 1144.41 145.695 1143.97 Q143.404 1143.55 140.95 1142.7 L140.95 1138.18 Q142.894 1139.32 145.209 1139.9 Q147.524 1140.48 150.047 1140.48 Q154.445 1140.48 156.737 1138.74 Q159.052 1137 159.052 1133.69 Q159.052 1130.64 156.899 1128.92 Q154.769 1127.19 150.95 1127.19 L146.922 1127.19 L146.922 1123.35 L151.135 1123.35 Q154.584 1123.35 156.413 1121.98 Q158.241 1120.59 158.241 1118 Q158.241 1115.34 156.343 1113.92 Q154.468 1112.49 150.95 1112.49 Q149.028 1112.49 146.829 1112.91 Q144.63 1113.32 141.991 1114.2 L141.991 1110.04 Q144.654 1109.3 146.968 1108.93 Q149.306 1108.55 151.366 1108.55 Q156.69 1108.55 159.792 1110.99 Q162.894 1113.39 162.894 1117.51 Q162.894 1120.38 161.251 1122.37 Q159.607 1124.34 156.575 1125.11 Z" fill="#000000" fill-rule="evenodd" fill-opacity="1" /><path clip-path="url(#clip540)" d="M 0 0 M119.885 837.446 L136.204 837.446 L136.204 841.381 L114.26 841.381 L114.26 837.446 Q116.922 834.691 121.505 830.061 Q126.112 825.409 127.292 824.066 Q129.538 821.543 130.417 819.807 Q131.32 818.048 131.32 816.358 Q131.32 813.603 129.376 811.867 Q127.455 810.131 124.353 810.131 Q122.154 810.131 119.7 810.895 Q117.269 811.659 114.492 813.21 L114.492 808.487 Q117.316 807.353 119.769 806.774 Q122.223 806.196 124.26 806.196 Q129.63 806.196 132.825 808.881 Q136.019 811.566 136.019 816.057 Q136.019 818.186 135.209 820.108 Q134.422 822.006 132.316 824.598 Q131.737 825.27 128.635 828.487 Q125.533 831.682 119.885 837.446 Z" fill="#000000" fill-rule="evenodd" fill-opacity="1" /><path clip-path="url(#clip540)" d="M 0 0 M154.121 810.895 L142.316 829.344 L154.121 829.344 L154.121 810.895 M152.894 806.821 L158.774 806.821 L158.774 829.344 L163.704 829.344 L163.704 833.233 L158.774 833.233 L158.774 841.381 L154.121 841.381 L154.121 833.233 L138.519 833.233 L138.519 828.719 L152.894 806.821 Z" fill="#000000" fill-rule="evenodd" fill-opacity="1" /><path clip-path="url(#clip540)" d="M 0 0 M121.367 535.087 L137.686 535.087 L137.686 539.022 L115.742 539.022 L115.742 535.087 Q118.404 532.332 122.987 527.703 Q127.593 523.05 128.774 521.707 Q131.019 519.184 131.899 517.448 Q132.802 515.689 132.802 513.999 Q132.802 511.244 130.857 509.508 Q128.936 507.772 125.834 507.772 Q123.635 507.772 121.181 508.536 Q118.751 509.3 115.973 510.851 L115.973 506.129 Q118.797 504.994 121.251 504.416 Q123.705 503.837 125.742 503.837 Q131.112 503.837 134.306 506.522 Q137.501 509.207 137.501 513.698 Q137.501 515.828 136.691 517.749 Q135.904 519.647 133.797 522.24 Q133.218 522.911 130.117 526.128 Q127.015 529.323 121.367 535.087 Z" fill="#000000" fill-rule="evenodd" fill-opacity="1" /><path clip-path="url(#clip540)" d="M 0 0 M142.802 504.462 L161.158 504.462 L161.158 508.397 L147.084 508.397 L147.084 516.869 Q148.103 516.522 149.121 516.36 Q150.14 516.175 151.158 516.175 Q156.945 516.175 160.325 519.346 Q163.704 522.517 163.704 527.934 Q163.704 533.513 160.232 536.615 Q156.76 539.693 150.441 539.693 Q148.265 539.693 145.996 539.323 Q143.751 538.952 141.343 538.212 L141.343 533.513 Q143.427 534.647 145.649 535.202 Q147.871 535.758 150.348 535.758 Q154.353 535.758 156.69 533.652 Q159.028 531.545 159.028 527.934 Q159.028 524.323 156.69 522.216 Q154.353 520.11 150.348 520.11 Q148.473 520.11 146.598 520.527 Q144.746 520.943 142.802 521.823 L142.802 504.462 Z" fill="#000000" fill-rule="evenodd" fill-opacity="1" /><path clip-path="url(#clip540)" d="M 0 0 M120.209 232.728 L136.529 232.728 L136.529 236.663 L114.584 236.663 L114.584 232.728 Q117.246 229.973 121.83 225.344 Q126.436 220.691 127.617 219.348 Q129.862 216.825 130.742 215.089 Q131.644 213.33 131.644 211.64 Q131.644 208.885 129.7 207.149 Q127.779 205.413 124.677 205.413 Q122.478 205.413 120.024 206.177 Q117.593 206.941 114.816 208.492 L114.816 203.77 Q117.64 202.635 120.093 202.057 Q122.547 201.478 124.584 201.478 Q129.955 201.478 133.149 204.163 Q136.343 206.848 136.343 211.339 Q136.343 213.469 135.533 215.39 Q134.746 217.288 132.64 219.881 Q132.061 220.552 128.959 223.77 Q125.857 226.964 120.209 232.728 Z" fill="#000000" fill-rule="evenodd" fill-opacity="1" /><path clip-path="url(#clip540)" d="M 0 0 M152.177 217.52 Q149.028 217.52 147.177 219.672 Q145.348 221.825 145.348 225.575 Q145.348 229.302 147.177 231.478 Q149.028 233.631 152.177 233.631 Q155.325 233.631 157.153 231.478 Q159.005 229.302 159.005 225.575 Q159.005 221.825 157.153 219.672 Q155.325 217.52 152.177 217.52 M161.459 202.867 L161.459 207.126 Q159.7 206.293 157.894 205.853 Q156.112 205.413 154.353 205.413 Q149.723 205.413 147.269 208.538 Q144.839 211.663 144.491 217.983 Q145.857 215.969 147.917 214.904 Q149.978 213.816 152.454 213.816 Q157.663 213.816 160.672 216.987 Q163.704 220.135 163.704 225.575 Q163.704 230.899 160.556 234.117 Q157.408 237.334 152.177 237.334 Q146.181 237.334 143.01 232.751 Q139.839 228.145 139.839 219.418 Q139.839 211.223 143.728 206.362 Q147.616 201.478 154.167 201.478 Q155.927 201.478 157.709 201.825 Q159.515 202.172 161.459 202.867 Z" fill="#000000" fill-rule="evenodd" fill-opacity="1" /><path clip-path="url(#clip540)" d="M 0 0 M59.1993 815.533 Q55.2526 813.336 53.3747 810.281 Q51.4968 807.225 51.4968 803.088 Q51.4968 797.518 55.4117 794.494 Q59.2948 791.47 66.4881 791.47 L88.0042 791.47 L88.0042 797.358 L66.679 797.358 Q61.5546 797.358 59.072 799.173 Q56.5894 800.987 56.5894 804.711 Q56.5894 809.262 59.6131 811.904 Q62.6368 814.546 67.8567 814.546 L88.0042 814.546 L88.0042 820.434 L66.679 820.434 Q61.5228 820.434 59.072 822.248 Q56.5894 824.063 56.5894 827.85 Q56.5894 832.338 59.6449 834.98 Q62.6686 837.622 67.8567 837.622 L88.0042 837.622 L88.0042 843.51 L52.3562 843.51 L52.3562 837.622 L57.8944 837.622 Q54.616 835.616 53.0564 832.815 Q51.4968 830.015 51.4968 826.163 Q51.4968 822.28 53.4702 819.575 Q55.4436 816.838 59.1993 815.533 Z" fill="#000000" fill-rule="evenodd" fill-opacity="1" /><path clip-path="url(#clip540)" d="M 0 0 M52.3562 785.327 L52.3562 779.471 L88.0042 779.471 L88.0042 785.327 L52.3562 785.327 M38.479 785.327 L38.479 779.471 L45.895 779.471 L45.895 785.327 L38.479 785.327 Z" fill="#000000" fill-rule="evenodd" fill-opacity="1" /><path clip-path="url(#clip540)" d="M 0 0 M66.4881 743.696 L88.0042 743.696 L88.0042 749.552 L66.679 749.552 Q61.6183 749.552 59.1038 751.525 Q56.5894 753.499 56.5894 757.446 Q56.5894 762.188 59.6131 764.925 Q62.6368 767.662 67.8567 767.662 L88.0042 767.662 L88.0042 773.551 L52.3562 773.551 L52.3562 767.662 L57.8944 767.662 Q54.6797 765.562 53.0883 762.729 Q51.4968 759.864 51.4968 756.141 Q51.4968 749.998 55.3163 746.847 Q59.1038 743.696 66.4881 743.696 Z" fill="#000000" fill-rule="evenodd" fill-opacity="1" /><path clip-path="url(#clip540)" d="M 0 0 M98.8259 710.467 L103.377 710.467 L103.377 744.332 L98.8259 744.332 L98.8259 710.467 Z" fill="#000000" fill-rule="evenodd" fill-opacity="1" /><path clip-path="url(#clip540)" d="M 0 0 M57.7671 680.866 L38.479 680.866 L38.479 675.01 L88.0042 675.01 L88.0042 680.866 L82.657 680.866 Q85.8398 682.712 87.3994 685.545 Q88.9272 688.346 88.9272 692.292 Q88.9272 698.754 83.771 702.828 Q78.6147 706.87 70.212 706.87 Q61.8093 706.87 56.6531 702.828 Q51.4968 698.754 51.4968 692.292 Q51.4968 688.346 53.0564 685.545 Q54.5842 682.712 57.7671 680.866 M70.212 700.823 Q76.6732 700.823 80.3653 698.181 Q84.0256 695.507 84.0256 690.86 Q84.0256 686.213 80.3653 683.54 Q76.6732 680.866 70.212 680.866 Q63.7508 680.866 60.0905 683.54 Q56.3984 686.213 56.3984 690.86 Q56.3984 695.507 60.0905 698.181 Q63.7508 700.823 70.212 700.823 Z" fill="#000000" fill-rule="evenodd" fill-opacity="1" /><path clip-path="url(#clip540)" d="M 0 0 M52.3562 668.867 L52.3562 663.01 L88.0042 663.01 L88.0042 668.867 L52.3562 668.867 M38.479 668.867 L38.479 663.01 L45.895 663.01 L45.895 668.867 L38.479 668.867 Z" fill="#000000" fill-rule="evenodd" fill-opacity="1" /><path clip-path="url(#clip540)" d="M 0 0 M38.479 638.821 L43.3487 638.821 L43.3487 644.422 Q43.3487 647.573 44.6219 648.815 Q45.895 650.024 49.2052 650.024 L52.3562 650.024 L52.3562 640.38 L56.9077 640.38 L56.9077 650.024 L88.0042 650.024 L88.0042 655.912 L56.9077 655.912 L56.9077 661.514 L52.3562 661.514 L52.3562 655.912 L49.8736 655.912 Q43.9216 655.912 41.2162 653.143 Q38.479 650.374 38.479 644.359 L38.479 638.821 Z" fill="#000000" fill-rule="evenodd" fill-opacity="1" /><path clip-path="url(#clip540)" d="M 0 0 M38.479 614.631 L43.3487 614.631 L43.3487 620.233 Q43.3487 623.384 44.6219 624.625 Q45.895 625.835 49.2052 625.835 L52.3562 625.835 L52.3562 616.19 L56.9077 616.19 L56.9077 625.835 L88.0042 625.835 L88.0042 631.723 L56.9077 631.723 L56.9077 637.325 L52.3562 637.325 L52.3562 631.723 L49.8736 631.723 Q43.9216 631.723 41.2162 628.954 Q38.479 626.185 38.479 620.169 L38.479 614.631 Z" fill="#000000" fill-rule="evenodd" fill-opacity="1" /><polyline clip-path="url(#clip542)" style="stroke:#009af9; stroke-width:20; stroke-opacity:1; fill:none" stroke-dasharray="80, 50" points="
  260.64,1244.43 1276.23,85.838 2291.82,1372.3 
  "/>
<path clip-path="url(#clip540)" d="
M1990.74 213.659 L2280.99 213.659 L2280.99 92.6992 L1990.74 92.6992  Z
  " fill="#ffffff" fill-rule="evenodd" fill-opacity="1"/>
<polyline clip-path="url(#clip540)" style="stroke:#000000; stroke-width:4; stroke-opacity:1; fill:none" points="
  1990.74,213.659 2280.99,213.659 2280.99,92.6992 1990.74,92.6992 1990.74,213.659 
  "/>
<polyline clip-path="url(#clip540)" style="stroke:#009af9; stroke-width:4; stroke-opacity:1; fill:none" stroke-dasharray="16, 10" points="
  2014.66,153.179 2158.2,153.179 
  "/>
<path clip-path="url(#clip540)" d="M 0 0 M2195.97 172.867 Q2194.16 177.496 2192.45 178.908 Q2190.73 180.32 2187.86 180.32 L2184.46 180.32 L2184.46 176.755 L2186.96 176.755 Q2188.72 176.755 2189.69 175.922 Q2190.67 175.089 2191.85 171.987 L2192.61 170.043 L2182.12 144.533 L2186.64 144.533 L2194.74 164.811 L2202.84 144.533 L2207.36 144.533 L2195.97 172.867 Z" fill="#000000" fill-rule="evenodd" fill-opacity="1" /><path clip-path="url(#clip540)" d="M 0 0 M2213.23 166.524 L2220.87 166.524 L2220.87 140.158 L2212.56 141.825 L2212.56 137.566 L2220.83 135.899 L2225.5 135.899 L2225.5 166.524 L2233.14 166.524 L2233.14 170.459 L2213.23 170.459 L2213.23 166.524 Z" fill="#000000" fill-rule="evenodd" fill-opacity="1" /></svg>
