<?xml version="1.0" encoding="utf-8"?>
<svg xmlns="http://www.w3.org/2000/svg" xmlns:xlink="http://www.w3.org/1999/xlink" width="600" height="400" viewBox="0 0 2400 1600">
<defs>
  <clipPath id="clip610">
    <rect x="0" y="0" width="2400" height="1600"/>
  </clipPath>
</defs>
<path clip-path="url(#clip610)" d="
M0 1600 L2400 1600 L2400 0 L0 0  Z
  " fill="#ffffff" fill-rule="evenodd" fill-opacity="1"/>
<defs>
  <clipPath id="clip611">
    <rect x="480" y="0" width="1681" height="1600"/>
  </clipPath>
</defs>
<path clip-path="url(#clip610)" d="
M210.144 1410.9 L2352.76 1410.9 L2352.76 47.2441 L210.144 47.2441  Z
  " fill="#ffffff" fill-rule="evenodd" fill-opacity="1"/>
<defs>
  <clipPath id="clip612">
    <rect x="210" y="47" width="2144" height="1365"/>
  </clipPath>
</defs>
<polyline clip-path="url(#clip612)" style="stroke:#000000; stroke-width:2; stroke-opacity:0.1; fill:none" points="
  270.784,1410.9 270.784,47.2441 
  "/>
<polyline clip-path="url(#clip612)" style="stroke:#000000; stroke-width:2; stroke-opacity:0.1; fill:none" points="
  776.117,1410.9 776.117,47.2441 
  "/>
<polyline clip-path="url(#clip612)" style="stroke:#000000; stroke-width:2; stroke-opacity:0.1; fill:none" points="
  1281.45,1410.9 1281.45,47.2441 
  "/>
<polyline clip-path="url(#clip612)" style="stroke:#000000; stroke-width:2; stroke-opacity:0.1; fill:none" points="
  1786.78,1410.9 1786.78,47.2441 
  "/>
<polyline clip-path="url(#clip612)" style="stroke:#000000; stroke-width:2; stroke-opacity:0.1; fill:none" points="
  2292.12,1410.9 2292.12,47.2441 
  "/>
<polyline clip-path="url(#clip610)" style="stroke:#000000; stroke-width:4; stroke-opacity:1; fill:none" points="
  210.144,1410.9 2352.76,1410.9 
  "/>
<polyline clip-path="url(#clip610)" style="stroke:#000000; stroke-width:4; stroke-opacity:1; fill:none" points="
  270.784,1410.9 270.784,1394.53 
  "/>
<polyline clip-path="url(#clip610)" style="stroke:#000000; stroke-width:4; stroke-opacity:1; fill:none" points="
  776.117,1410.9 776.117,1394.53 
  "/>
<polyline clip-path="url(#clip610)" style="stroke:#000000; stroke-width:4; stroke-opacity:1; fill:none" points="
  1281.45,1410.9 1281.45,1394.53 
  "/>
<polyline clip-path="url(#clip610)" style="stroke:#000000; stroke-width:4; stroke-opacity:1; fill:none" points="
  1786.78,1410.9 1786.78,1394.53 
  "/>
<polyline clip-path="url(#clip610)" style="stroke:#000000; stroke-width:4; stroke-opacity:1; fill:none" points="
  2292.12,1410.9 2292.12,1394.53 
  "/>
<path clip-path="url(#clip610)" d="M 0 0 M199.286 1489.17 L206.924 1489.17 L206.924 1462.8 L198.614 1464.47 L198.614 1460.21 L206.878 1458.54 L211.554 1458.54 L211.554 1489.17 L219.193 1489.17 L219.193 1493.1 L199.286 1493.1 L199.286 1489.17 Z" fill="#000000" fill-rule="evenodd" fill-opacity="1" /><path clip-path="url(#clip610)" d="M 0 0 M234.262 1461.62 Q230.651 1461.62 228.822 1465.19 Q227.017 1468.73 227.017 1475.86 Q227.017 1482.97 228.822 1486.53 Q230.651 1490.07 234.262 1490.07 Q237.896 1490.07 239.702 1486.53 Q241.531 1482.97 241.531 1475.86 Q241.531 1468.73 239.702 1465.19 Q237.896 1461.62 234.262 1461.62 M234.262 1457.92 Q240.072 1457.92 243.128 1462.53 Q246.207 1467.11 246.207 1475.86 Q246.207 1484.59 243.128 1489.19 Q240.072 1493.78 234.262 1493.78 Q228.452 1493.78 225.373 1489.19 Q222.318 1484.59 222.318 1475.86 Q222.318 1467.11 225.373 1462.53 Q228.452 1457.92 234.262 1457.92 Z" fill="#000000" fill-rule="evenodd" fill-opacity="1" /><path clip-path="url(#clip610)" d="M 0 0 M246.207 1452.02 L270.318 1452.02 L270.318 1455.22 L246.207 1455.22 L246.207 1452.02 Z" fill="#000000" fill-rule="evenodd" fill-opacity="1" /><path clip-path="url(#clip610)" d="M 0 0 M277.71 1462.5 L290.969 1462.5 L290.969 1465.69 L273.139 1465.69 L273.139 1462.5 Q275.302 1460.26 279.026 1456.5 Q282.769 1452.72 283.728 1451.63 Q285.552 1449.58 286.267 1448.16 Q287.001 1446.74 287.001 1445.36 Q287.001 1443.12 285.421 1441.71 Q283.86 1440.3 281.34 1440.3 Q279.553 1440.3 277.559 1440.92 Q275.584 1441.54 273.327 1442.8 L273.327 1438.97 Q275.622 1438.05 277.616 1437.58 Q279.609 1437.11 281.264 1437.11 Q285.628 1437.11 288.223 1439.29 Q290.819 1441.47 290.819 1445.12 Q290.819 1446.85 290.16 1448.41 Q289.521 1449.95 287.809 1452.06 Q287.339 1452.6 284.819 1455.22 Q282.299 1457.81 277.71 1462.5 Z" fill="#000000" fill-rule="evenodd" fill-opacity="1" /><path clip-path="url(#clip610)" d="M 0 0 M295.088 1460.92 L299.056 1460.92 L299.056 1465.69 L295.088 1465.69 L295.088 1460.92 Z" fill="#000000" fill-rule="evenodd" fill-opacity="1" /><path clip-path="url(#clip610)" d="M 0 0 M311.3 1440.11 Q308.366 1440.11 306.881 1443.01 Q305.413 1445.89 305.413 1451.68 Q305.413 1457.46 306.881 1460.35 Q308.366 1463.23 311.3 1463.23 Q314.253 1463.23 315.72 1460.35 Q317.206 1457.46 317.206 1451.68 Q317.206 1445.89 315.72 1443.01 Q314.253 1440.11 311.3 1440.11 M311.3 1437.11 Q316.021 1437.11 318.504 1440.85 Q321.005 1444.57 321.005 1451.68 Q321.005 1458.77 318.504 1462.51 Q316.021 1466.24 311.3 1466.24 Q306.58 1466.24 304.078 1462.51 Q301.596 1458.77 301.596 1451.68 Q301.596 1444.57 304.078 1440.85 Q306.58 1437.11 311.3 1437.11 Z" fill="#000000" fill-rule="evenodd" fill-opacity="1" /><path clip-path="url(#clip610)" d="M 0 0 M333.249 1440.11 Q330.315 1440.11 328.829 1443.01 Q327.362 1445.89 327.362 1451.68 Q327.362 1457.46 328.829 1460.35 Q330.315 1463.23 333.249 1463.23 Q336.202 1463.23 337.669 1460.35 Q339.155 1457.46 339.155 1451.68 Q339.155 1445.89 337.669 1443.01 Q336.202 1440.11 333.249 1440.11 M333.249 1437.11 Q337.97 1437.11 340.452 1440.85 Q342.954 1444.57 342.954 1451.68 Q342.954 1458.77 340.452 1462.51 Q337.97 1466.24 333.249 1466.24 Q328.528 1466.24 326.027 1462.51 Q323.544 1458.77 323.544 1451.68 Q323.544 1444.57 326.027 1440.85 Q328.528 1437.11 333.249 1437.11 Z" fill="#000000" fill-rule="evenodd" fill-opacity="1" /><path clip-path="url(#clip610)" d="M 0 0 M705.239 1489.17 L712.878 1489.17 L712.878 1462.8 L704.568 1464.47 L704.568 1460.21 L712.832 1458.54 L717.508 1458.54 L717.508 1489.17 L725.147 1489.17 L725.147 1493.1 L705.239 1493.1 L705.239 1489.17 Z" fill="#000000" fill-rule="evenodd" fill-opacity="1" /><path clip-path="url(#clip610)" d="M 0 0 M740.216 1461.62 Q736.605 1461.62 734.776 1465.19 Q732.971 1468.73 732.971 1475.86 Q732.971 1482.97 734.776 1486.53 Q736.605 1490.07 740.216 1490.07 Q743.85 1490.07 745.656 1486.53 Q747.484 1482.97 747.484 1475.86 Q747.484 1468.73 745.656 1465.19 Q743.85 1461.62 740.216 1461.62 M740.216 1457.92 Q746.026 1457.92 749.082 1462.53 Q752.16 1467.11 752.16 1475.86 Q752.16 1484.59 749.082 1489.19 Q746.026 1493.78 740.216 1493.78 Q734.406 1493.78 731.327 1489.19 Q728.272 1484.59 728.272 1475.86 Q728.272 1467.11 731.327 1462.53 Q734.406 1457.92 740.216 1457.92 Z" fill="#000000" fill-rule="evenodd" fill-opacity="1" /><path clip-path="url(#clip610)" d="M 0 0 M752.16 1452.02 L776.272 1452.02 L776.272 1455.22 L752.16 1455.22 L752.16 1452.02 Z" fill="#000000" fill-rule="evenodd" fill-opacity="1" /><path clip-path="url(#clip610)" d="M 0 0 M781.049 1462.5 L787.256 1462.5 L787.256 1441.07 L780.504 1442.43 L780.504 1438.97 L787.218 1437.61 L791.017 1437.61 L791.017 1462.5 L797.224 1462.5 L797.224 1465.69 L781.049 1465.69 L781.049 1462.5 Z" fill="#000000" fill-rule="evenodd" fill-opacity="1" /><path clip-path="url(#clip610)" d="M 0 0 M801.343 1460.92 L805.311 1460.92 L805.311 1465.69 L801.343 1465.69 L801.343 1460.92 Z" fill="#000000" fill-rule="evenodd" fill-opacity="1" /><path clip-path="url(#clip610)" d="M 0 0 M808.471 1437.61 L826.526 1437.61 L826.526 1439.23 L816.332 1465.69 L812.364 1465.69 L821.956 1440.81 L808.471 1440.81 L808.471 1437.61 Z" fill="#000000" fill-rule="evenodd" fill-opacity="1" /><path clip-path="url(#clip610)" d="M 0 0 M830.683 1437.61 L845.597 1437.61 L845.597 1440.81 L834.162 1440.81 L834.162 1447.69 Q834.99 1447.41 835.817 1447.28 Q836.645 1447.13 837.472 1447.13 Q842.174 1447.13 844.92 1449.71 Q847.666 1452.28 847.666 1456.68 Q847.666 1461.22 844.845 1463.74 Q842.024 1466.24 836.889 1466.24 Q835.121 1466.24 833.278 1465.94 Q831.454 1465.64 829.498 1465.04 L829.498 1461.22 Q831.191 1462.14 832.996 1462.59 Q834.802 1463.04 836.814 1463.04 Q840.068 1463.04 841.967 1461.33 Q843.867 1459.62 843.867 1456.68 Q843.867 1453.75 841.967 1452.04 Q840.068 1450.33 836.814 1450.33 Q835.291 1450.33 833.767 1450.67 Q832.263 1451 830.683 1451.72 L830.683 1437.61 Z" fill="#000000" fill-rule="evenodd" fill-opacity="1" /><path clip-path="url(#clip610)" d="M 0 0 M1210.21 1489.17 L1217.84 1489.17 L1217.84 1462.8 L1209.53 1464.47 L1209.53 1460.21 L1217.8 1458.54 L1222.47 1458.54 L1222.47 1489.17 L1230.11 1489.17 L1230.11 1493.1 L1210.21 1493.1 L1210.21 1489.17 Z" fill="#000000" fill-rule="evenodd" fill-opacity="1" /><path clip-path="url(#clip610)" d="M 0 0 M1245.18 1461.62 Q1241.57 1461.62 1239.74 1465.19 Q1237.94 1468.73 1237.94 1475.86 Q1237.94 1482.97 1239.74 1486.53 Q1241.57 1490.07 1245.18 1490.07 Q1248.82 1490.07 1250.62 1486.53 Q1252.45 1482.97 1252.45 1475.86 Q1252.45 1468.73 1250.62 1465.19 Q1248.82 1461.62 1245.18 1461.62 M1245.18 1457.92 Q1250.99 1457.92 1254.05 1462.53 Q1257.13 1467.11 1257.13 1475.86 Q1257.13 1484.59 1254.05 1489.19 Q1250.99 1493.78 1245.18 1493.78 Q1239.37 1493.78 1236.29 1489.19 Q1233.24 1484.59 1233.24 1475.86 Q1233.24 1467.11 1236.29 1462.53 Q1239.37 1457.92 1245.18 1457.92 Z" fill="#000000" fill-rule="evenodd" fill-opacity="1" /><path clip-path="url(#clip610)" d="M 0 0 M1257.13 1452.02 L1281.24 1452.02 L1281.24 1455.22 L1257.13 1455.22 L1257.13 1452.02 Z" fill="#000000" fill-rule="evenodd" fill-opacity="1" /><path clip-path="url(#clip610)" d="M 0 0 M1286.02 1462.5 L1292.22 1462.5 L1292.22 1441.07 L1285.47 1442.43 L1285.47 1438.97 L1292.18 1437.61 L1295.98 1437.61 L1295.98 1462.5 L1302.19 1462.5 L1302.19 1465.69 L1286.02 1465.69 L1286.02 1462.5 Z" fill="#000000" fill-rule="evenodd" fill-opacity="1" /><path clip-path="url(#clip610)" d="M 0 0 M1306.31 1460.92 L1310.28 1460.92 L1310.28 1465.69 L1306.31 1465.69 L1306.31 1460.92 Z" fill="#000000" fill-rule="evenodd" fill-opacity="1" /><path clip-path="url(#clip610)" d="M 0 0 M1314.43 1437.61 L1329.35 1437.61 L1329.35 1440.81 L1317.91 1440.81 L1317.91 1447.69 Q1318.74 1447.41 1319.57 1447.28 Q1320.4 1447.13 1321.22 1447.13 Q1325.93 1447.13 1328.67 1449.71 Q1331.42 1452.28 1331.42 1456.68 Q1331.42 1461.22 1328.6 1463.74 Q1325.77 1466.24 1320.64 1466.24 Q1318.87 1466.24 1317.03 1465.94 Q1315.2 1465.64 1313.25 1465.04 L1313.25 1461.22 Q1314.94 1462.14 1316.75 1462.59 Q1318.55 1463.04 1320.57 1463.04 Q1323.82 1463.04 1325.72 1461.33 Q1327.62 1459.62 1327.62 1456.68 Q1327.62 1453.75 1325.72 1452.04 Q1323.82 1450.33 1320.57 1450.33 Q1319.04 1450.33 1317.52 1450.67 Q1316.01 1451 1314.43 1451.72 L1314.43 1437.61 Z" fill="#000000" fill-rule="evenodd" fill-opacity="1" /><path clip-path="url(#clip610)" d="M 0 0 M1343.66 1440.11 Q1340.73 1440.11 1339.24 1443.01 Q1337.77 1445.89 1337.77 1451.68 Q1337.77 1457.46 1339.24 1460.35 Q1340.73 1463.23 1343.66 1463.23 Q1346.61 1463.23 1348.08 1460.35 Q1349.57 1457.46 1349.57 1451.68 Q1349.57 1445.89 1348.08 1443.01 Q1346.61 1440.11 1343.66 1440.11 M1343.66 1437.11 Q1348.38 1437.11 1350.86 1440.85 Q1353.37 1444.57 1353.37 1451.68 Q1353.37 1458.77 1350.86 1462.51 Q1348.38 1466.24 1343.66 1466.24 Q1338.94 1466.24 1336.44 1462.51 Q1333.96 1458.77 1333.96 1451.68 Q1333.96 1444.57 1336.44 1440.85 Q1338.94 1437.11 1343.66 1437.11 Z" fill="#000000" fill-rule="evenodd" fill-opacity="1" /><path clip-path="url(#clip610)" d="M 0 0 M1716.19 1489.17 L1723.83 1489.17 L1723.83 1462.8 L1715.52 1464.47 L1715.52 1460.21 L1723.78 1458.54 L1728.46 1458.54 L1728.46 1489.17 L1736.09 1489.17 L1736.09 1493.1 L1716.19 1493.1 L1716.19 1489.17 Z" fill="#000000" fill-rule="evenodd" fill-opacity="1" /><path clip-path="url(#clip610)" d="M 0 0 M1751.16 1461.62 Q1747.55 1461.62 1745.72 1465.19 Q1743.92 1468.73 1743.92 1475.86 Q1743.92 1482.97 1745.72 1486.53 Q1747.55 1490.07 1751.16 1490.07 Q1754.8 1490.07 1756.6 1486.53 Q1758.43 1482.97 1758.43 1475.86 Q1758.43 1468.73 1756.6 1465.19 Q1754.8 1461.62 1751.16 1461.62 M1751.16 1457.92 Q1756.97 1457.92 1760.03 1462.53 Q1763.11 1467.11 1763.11 1475.86 Q1763.11 1484.59 1760.03 1489.19 Q1756.97 1493.78 1751.16 1493.78 Q1745.35 1493.78 1742.28 1489.19 Q1739.22 1484.59 1739.22 1475.86 Q1739.22 1467.11 1742.28 1462.53 Q1745.35 1457.92 1751.16 1457.92 Z" fill="#000000" fill-rule="evenodd" fill-opacity="1" /><path clip-path="url(#clip610)" d="M 0 0 M1763.11 1452.02 L1787.22 1452.02 L1787.22 1455.22 L1763.11 1455.22 L1763.11 1452.02 Z" fill="#000000" fill-rule="evenodd" fill-opacity="1" /><path clip-path="url(#clip610)" d="M 0 0 M1792 1462.5 L1798.2 1462.5 L1798.2 1441.07 L1791.45 1442.43 L1791.45 1438.97 L1798.17 1437.61 L1801.97 1437.61 L1801.97 1462.5 L1808.17 1462.5 L1808.17 1465.69 L1792 1465.69 L1792 1462.5 Z" fill="#000000" fill-rule="evenodd" fill-opacity="1" /><path clip-path="url(#clip610)" d="M 0 0 M1812.29 1460.92 L1816.26 1460.92 L1816.26 1465.69 L1812.29 1465.69 L1812.29 1460.92 Z" fill="#000000" fill-rule="evenodd" fill-opacity="1" /><path clip-path="url(#clip610)" d="M 0 0 M1823.65 1462.5 L1836.91 1462.5 L1836.91 1465.69 L1819.08 1465.69 L1819.08 1462.5 Q1821.24 1460.26 1824.97 1456.5 Q1828.71 1452.72 1829.67 1451.63 Q1831.49 1449.58 1832.21 1448.16 Q1832.94 1446.74 1832.94 1445.36 Q1832.94 1443.12 1831.36 1441.71 Q1829.8 1440.3 1827.28 1440.3 Q1825.49 1440.3 1823.5 1440.92 Q1821.53 1441.54 1819.27 1442.8 L1819.27 1438.97 Q1821.56 1438.05 1823.56 1437.58 Q1825.55 1437.11 1827.21 1437.11 Q1831.57 1437.11 1834.16 1439.29 Q1836.76 1441.47 1836.76 1445.12 Q1836.76 1446.85 1836.1 1448.41 Q1835.46 1449.95 1833.75 1452.06 Q1833.28 1452.6 1830.76 1455.22 Q1828.24 1457.81 1823.65 1462.5 Z" fill="#000000" fill-rule="evenodd" fill-opacity="1" /><path clip-path="url(#clip610)" d="M 0 0 M1841.07 1437.61 L1855.98 1437.61 L1855.98 1440.81 L1844.55 1440.81 L1844.55 1447.69 Q1845.37 1447.41 1846.2 1447.28 Q1847.03 1447.13 1847.86 1447.13 Q1852.56 1447.13 1855.3 1449.71 Q1858.05 1452.28 1858.05 1456.68 Q1858.05 1461.22 1855.23 1463.74 Q1852.41 1466.24 1847.27 1466.24 Q1845.51 1466.24 1843.66 1465.94 Q1841.84 1465.64 1839.88 1465.04 L1839.88 1461.22 Q1841.57 1462.14 1843.38 1462.59 Q1845.19 1463.04 1847.2 1463.04 Q1850.45 1463.04 1852.35 1461.33 Q1854.25 1459.62 1854.25 1456.68 Q1854.25 1453.75 1852.35 1452.04 Q1850.45 1450.33 1847.2 1450.33 Q1845.67 1450.33 1844.15 1450.67 Q1842.65 1451 1841.07 1451.72 L1841.07 1437.61 Z" fill="#000000" fill-rule="evenodd" fill-opacity="1" /><path clip-path="url(#clip610)" d="M 0 0 M2220.47 1489.17 L2228.11 1489.17 L2228.11 1462.8 L2219.8 1464.47 L2219.8 1460.21 L2228.06 1458.54 L2232.74 1458.54 L2232.74 1489.17 L2240.37 1489.17 L2240.37 1493.1 L2220.47 1493.1 L2220.47 1489.17 Z" fill="#000000" fill-rule="evenodd" fill-opacity="1" /><path clip-path="url(#clip610)" d="M 0 0 M2255.44 1461.62 Q2251.83 1461.62 2250 1465.19 Q2248.2 1468.73 2248.2 1475.86 Q2248.2 1482.97 2250 1486.53 Q2251.83 1490.07 2255.44 1490.07 Q2259.08 1490.07 2260.88 1486.53 Q2262.71 1482.97 2262.71 1475.86 Q2262.71 1468.73 2260.88 1465.19 Q2259.08 1461.62 2255.44 1461.62 M2255.44 1457.92 Q2261.25 1457.92 2264.31 1462.53 Q2267.39 1467.11 2267.39 1475.86 Q2267.39 1484.59 2264.31 1489.19 Q2261.25 1493.78 2255.44 1493.78 Q2249.63 1493.78 2246.55 1489.19 Q2243.5 1484.59 2243.5 1475.86 Q2243.5 1467.11 2246.55 1462.53 Q2249.63 1457.92 2255.44 1457.92 Z" fill="#000000" fill-rule="evenodd" fill-opacity="1" /><path clip-path="url(#clip610)" d="M 0 0 M2267.39 1452.02 L2291.5 1452.02 L2291.5 1455.22 L2267.39 1455.22 L2267.39 1452.02 Z" fill="#000000" fill-rule="evenodd" fill-opacity="1" /><path clip-path="url(#clip610)" d="M 0 0 M2296.28 1462.5 L2302.48 1462.5 L2302.48 1441.07 L2295.73 1442.43 L2295.73 1438.97 L2302.45 1437.61 L2306.24 1437.61 L2306.24 1462.5 L2312.45 1462.5 L2312.45 1465.69 L2296.28 1465.69 L2296.28 1462.5 Z" fill="#000000" fill-rule="evenodd" fill-opacity="1" /><path clip-path="url(#clip610)" d="M 0 0 M2316.57 1460.92 L2320.54 1460.92 L2320.54 1465.69 L2316.57 1465.69 L2316.57 1460.92 Z" fill="#000000" fill-rule="evenodd" fill-opacity="1" /><path clip-path="url(#clip610)" d="M 0 0 M2332.78 1440.11 Q2329.85 1440.11 2328.36 1443.01 Q2326.9 1445.89 2326.9 1451.68 Q2326.9 1457.46 2328.36 1460.35 Q2329.85 1463.23 2332.78 1463.23 Q2335.74 1463.23 2337.2 1460.35 Q2338.69 1457.46 2338.69 1451.68 Q2338.69 1445.89 2337.2 1443.01 Q2335.74 1440.11 2332.78 1440.11 M2332.78 1437.11 Q2337.5 1437.11 2339.99 1440.85 Q2342.49 1444.57 2342.49 1451.68 Q2342.49 1458.77 2339.99 1462.51 Q2337.5 1466.24 2332.78 1466.24 Q2328.06 1466.24 2325.56 1462.51 Q2323.08 1458.77 2323.08 1451.68 Q2323.08 1444.57 2325.56 1440.85 Q2328.06 1437.11 2332.78 1437.11 Z" fill="#000000" fill-rule="evenodd" fill-opacity="1" /><path clip-path="url(#clip610)" d="M 0 0 M2354.73 1440.11 Q2351.8 1440.11 2350.31 1443.01 Q2348.84 1445.89 2348.84 1451.68 Q2348.84 1457.46 2350.31 1460.35 Q2351.8 1463.23 2354.73 1463.23 Q2357.68 1463.23 2359.15 1460.35 Q2360.64 1457.46 2360.64 1451.68 Q2360.64 1445.89 2359.15 1443.01 Q2357.68 1440.11 2354.73 1440.11 M2354.73 1437.11 Q2359.45 1437.11 2361.93 1440.85 Q2364.44 1444.57 2364.44 1451.68 Q2364.44 1458.77 2361.93 1462.51 Q2359.45 1466.24 2354.73 1466.24 Q2350.01 1466.24 2347.51 1462.51 Q2345.03 1458.77 2345.03 1451.68 Q2345.03 1444.57 2347.51 1440.85 Q2350.01 1437.11 2354.73 1437.11 Z" fill="#000000" fill-rule="evenodd" fill-opacity="1" /><path clip-path="url(#clip610)" d="M 0 0 M1173.73 1526.54 L1179.93 1526.54 L1191.07 1556.46 L1202.21 1526.54 L1208.42 1526.54 L1195.05 1562.19 L1187.09 1562.19 L1173.73 1526.54 Z" fill="#000000" fill-rule="evenodd" fill-opacity="1" /><path clip-path="url(#clip610)" d="M 0 0 M1241.65 1573.01 L1241.65 1577.56 L1207.78 1577.56 L1207.78 1573.01 L1241.65 1573.01 Z" fill="#000000" fill-rule="evenodd" fill-opacity="1" /><path clip-path="url(#clip610)" d="M 0 0 M1273.45 1527.91 L1273.45 1533.38 Q1270.96 1532.01 1268.45 1531.34 Q1265.97 1530.64 1263.42 1530.64 Q1257.72 1530.64 1254.57 1534.27 Q1251.42 1537.87 1251.42 1544.39 Q1251.42 1550.92 1254.57 1554.55 Q1257.72 1558.14 1263.42 1558.14 Q1265.97 1558.14 1268.45 1557.47 Q1270.96 1556.77 1273.45 1555.41 L1273.45 1560.82 Q1270.99 1561.96 1268.35 1562.54 Q1265.74 1563.11 1262.78 1563.11 Q1254.73 1563.11 1249.99 1558.05 Q1245.25 1552.99 1245.25 1544.39 Q1245.25 1535.67 1250.02 1530.68 Q1254.83 1525.68 1263.16 1525.68 Q1265.87 1525.68 1268.45 1526.25 Q1271.03 1526.79 1273.45 1527.91 Z" fill="#000000" fill-rule="evenodd" fill-opacity="1" /><path clip-path="url(#clip610)" d="M 0 0 M1279.59 1512.66 L1285.44 1512.66 L1285.44 1562.19 L1279.59 1562.19 L1279.59 1512.66 Z" fill="#000000" fill-rule="evenodd" fill-opacity="1" /><path clip-path="url(#clip610)" d="M 0 0 M1305.4 1530.64 Q1300.69 1530.64 1297.95 1534.34 Q1295.22 1538 1295.22 1544.39 Q1295.22 1550.79 1297.92 1554.48 Q1300.66 1558.14 1305.4 1558.14 Q1310.08 1558.14 1312.82 1554.45 Q1315.55 1550.76 1315.55 1544.39 Q1315.55 1538.06 1312.82 1534.37 Q1310.08 1530.64 1305.4 1530.64 M1305.4 1525.68 Q1313.04 1525.68 1317.4 1530.64 Q1321.76 1535.61 1321.76 1544.39 Q1321.76 1553.15 1317.4 1558.14 Q1313.04 1563.11 1305.4 1563.11 Q1297.73 1563.11 1293.37 1558.14 Q1289.04 1553.15 1289.04 1544.39 Q1289.04 1535.61 1293.37 1530.64 Q1297.73 1525.68 1305.4 1525.68 Z" fill="#000000" fill-rule="evenodd" fill-opacity="1" /><path clip-path="url(#clip610)" d="M 0 0 M1350.63 1527.59 L1350.63 1533.13 Q1348.15 1531.85 1345.47 1531.22 Q1342.8 1530.58 1339.93 1530.58 Q1335.57 1530.58 1333.38 1531.92 Q1331.21 1533.25 1331.21 1535.93 Q1331.21 1537.96 1332.77 1539.14 Q1334.33 1540.29 1339.04 1541.34 L1341.05 1541.78 Q1347.29 1543.12 1349.9 1545.57 Q1352.54 1547.99 1352.54 1552.35 Q1352.54 1557.32 1348.59 1560.21 Q1344.68 1563.11 1337.8 1563.11 Q1334.94 1563.11 1331.82 1562.54 Q1328.73 1561.99 1325.29 1560.88 L1325.29 1554.83 Q1328.54 1556.52 1331.69 1557.38 Q1334.84 1558.21 1337.93 1558.21 Q1342.07 1558.21 1344.3 1556.81 Q1346.52 1555.37 1346.52 1552.8 Q1346.52 1550.41 1344.9 1549.14 Q1343.31 1547.86 1337.87 1546.68 L1335.83 1546.21 Q1330.39 1545.06 1327.97 1542.71 Q1325.55 1540.32 1325.55 1536.18 Q1325.55 1531.15 1329.11 1528.42 Q1332.68 1525.68 1339.23 1525.68 Q1342.48 1525.68 1345.35 1526.16 Q1348.21 1526.63 1350.63 1527.59 Z" fill="#000000" fill-rule="evenodd" fill-opacity="1" /><path clip-path="url(#clip610)" d="M 0 0 M1389.17 1542.9 L1389.17 1545.76 L1362.25 1545.76 Q1362.63 1551.81 1365.88 1554.99 Q1369.15 1558.14 1374.98 1558.14 Q1378.35 1558.14 1381.5 1557.32 Q1384.69 1556.49 1387.81 1554.83 L1387.81 1560.37 Q1384.65 1561.71 1381.34 1562.41 Q1378.03 1563.11 1374.63 1563.11 Q1366.1 1563.11 1361.1 1558.14 Q1356.14 1553.18 1356.14 1544.71 Q1356.14 1535.96 1360.85 1530.83 Q1365.59 1525.68 1373.61 1525.68 Q1380.8 1525.68 1384.97 1530.33 Q1389.17 1534.94 1389.17 1542.9 M1383.32 1541.18 Q1383.25 1536.37 1380.61 1533.51 Q1378 1530.64 1373.67 1530.64 Q1368.77 1530.64 1365.81 1533.41 Q1362.88 1536.18 1362.44 1541.21 L1383.32 1541.18 Z" fill="#000000" fill-rule="evenodd" fill-opacity="1" /><polyline clip-path="url(#clip612)" style="stroke:#000000; stroke-width:2; stroke-opacity:0.1; fill:none" points="
  210.144,1350.78 2352.76,1350.78 
  "/>
<polyline clip-path="url(#clip612)" style="stroke:#000000; stroke-width:2; stroke-opacity:0.1; fill:none" points="
  210.144,1001.78 2352.76,1001.78 
  "/>
<polyline clip-path="url(#clip612)" style="stroke:#000000; stroke-width:2; stroke-opacity:0.1; fill:none" points="
  210.144,652.774 2352.76,652.774 
  "/>
<polyline clip-path="url(#clip612)" style="stroke:#000000; stroke-width:2; stroke-opacity:0.1; fill:none" points="
  210.144,303.771 2352.76,303.771 
  "/>
<polyline clip-path="url(#clip610)" style="stroke:#000000; stroke-width:4; stroke-opacity:1; fill:none" points="
  210.144,1410.9 210.144,47.2441 
  "/>
<polyline clip-path="url(#clip610)" style="stroke:#000000; stroke-width:4; stroke-opacity:1; fill:none" points="
  210.144,1350.78 235.855,1350.78 
  "/>
<polyline clip-path="url(#clip610)" style="stroke:#000000; stroke-width:4; stroke-opacity:1; fill:none" points="
  210.144,1001.78 235.855,1001.78 
  "/>
<polyline clip-path="url(#clip610)" style="stroke:#000000; stroke-width:4; stroke-opacity:1; fill:none" points="
  210.144,652.774 235.855,652.774 
  "/>
<polyline clip-path="url(#clip610)" style="stroke:#000000; stroke-width:4; stroke-opacity:1; fill:none" points="
  210.144,303.771 235.855,303.771 
  "/>
<path clip-path="url(#clip610)" d="M 0 0 M131.042 1349.42 Q134.399 1350.14 136.274 1352.41 Q138.172 1354.68 138.172 1358.01 Q138.172 1363.13 134.654 1365.93 Q131.135 1368.73 124.654 1368.73 Q122.478 1368.73 120.163 1368.29 Q117.871 1367.87 115.418 1367.02 L115.418 1362.5 Q117.362 1363.64 119.677 1364.22 Q121.992 1364.8 124.515 1364.8 Q128.913 1364.8 131.205 1363.06 Q133.519 1361.32 133.519 1358.01 Q133.519 1354.96 131.367 1353.24 Q129.237 1351.51 125.418 1351.51 L121.39 1351.51 L121.39 1347.67 L125.603 1347.67 Q129.052 1347.67 130.88 1346.3 Q132.709 1344.91 132.709 1342.32 Q132.709 1339.66 130.811 1338.24 Q128.936 1336.81 125.418 1336.81 Q123.496 1336.81 121.297 1337.23 Q119.098 1337.64 116.459 1338.52 L116.459 1334.36 Q119.121 1333.61 121.436 1333.24 Q123.774 1332.87 125.834 1332.87 Q131.158 1332.87 134.26 1335.3 Q137.362 1337.71 137.362 1341.83 Q137.362 1344.7 135.718 1346.69 Q134.075 1348.66 131.042 1349.42 Z" fill="#000000" fill-rule="evenodd" fill-opacity="1" /><path clip-path="url(#clip610)" d="M 0 0 M143.241 1362.18 L148.126 1362.18 L148.126 1368.06 L143.241 1368.06 L143.241 1362.18 Z" fill="#000000" fill-rule="evenodd" fill-opacity="1" /><path clip-path="url(#clip610)" d="M 0 0 M153.241 1333.5 L171.598 1333.5 L171.598 1337.43 L157.524 1337.43 L157.524 1345.91 Q158.542 1345.56 159.561 1345.4 Q160.579 1345.21 161.598 1345.21 Q167.385 1345.21 170.764 1348.38 Q174.144 1351.55 174.144 1356.97 Q174.144 1362.55 170.672 1365.65 Q167.2 1368.73 160.88 1368.73 Q158.704 1368.73 156.436 1368.36 Q154.19 1367.99 151.783 1367.25 L151.783 1362.55 Q153.866 1363.68 156.089 1364.24 Q158.311 1364.8 160.788 1364.8 Q164.792 1364.8 167.13 1362.69 Q169.468 1360.58 169.468 1356.97 Q169.468 1353.36 167.13 1351.25 Q164.792 1349.15 160.788 1349.15 Q158.913 1349.15 157.038 1349.56 Q155.186 1349.98 153.241 1350.86 L153.241 1333.5 Z" fill="#000000" fill-rule="evenodd" fill-opacity="1" /><path clip-path="url(#clip610)" d="M 0 0 M129.885 1000.42 Q133.242 1001.14 135.117 1003.41 Q137.015 1005.68 137.015 1009.01 Q137.015 1014.13 133.496 1016.93 Q129.978 1019.73 123.496 1019.73 Q121.32 1019.73 119.006 1019.29 Q116.714 1018.87 114.26 1018.01 L114.26 1013.5 Q116.205 1014.64 118.519 1015.21 Q120.834 1015.79 123.357 1015.79 Q127.755 1015.79 130.047 1014.06 Q132.362 1012.32 132.362 1009.01 Q132.362 1005.95 130.209 1004.24 Q128.08 1002.51 124.26 1002.51 L120.232 1002.51 L120.232 998.663 L124.445 998.663 Q127.894 998.663 129.723 997.297 Q131.552 995.908 131.552 993.316 Q131.552 990.654 129.654 989.242 Q127.779 987.806 124.26 987.806 Q122.339 987.806 120.14 988.223 Q117.941 988.64 115.302 989.519 L115.302 985.353 Q117.964 984.612 120.279 984.242 Q122.617 983.871 124.677 983.871 Q130.001 983.871 133.103 986.302 Q136.204 988.709 136.204 992.83 Q136.204 995.7 134.561 997.691 Q132.917 999.658 129.885 1000.42 Z" fill="#000000" fill-rule="evenodd" fill-opacity="1" /><path clip-path="url(#clip610)" d="M 0 0 M142.084 1013.18 L146.968 1013.18 L146.968 1019.06 L142.084 1019.06 L142.084 1013.18 Z" fill="#000000" fill-rule="evenodd" fill-opacity="1" /><path clip-path="url(#clip610)" d="M 0 0 M162.616 999.913 Q159.468 999.913 157.616 1002.07 Q155.788 1004.22 155.788 1007.97 Q155.788 1011.7 157.616 1013.87 Q159.468 1016.02 162.616 1016.02 Q165.765 1016.02 167.593 1013.87 Q169.445 1011.7 169.445 1007.97 Q169.445 1004.22 167.593 1002.07 Q165.765 999.913 162.616 999.913 M171.899 985.26 L171.899 989.519 Q170.139 988.686 168.334 988.246 Q166.552 987.806 164.792 987.806 Q160.163 987.806 157.709 990.931 Q155.278 994.056 154.931 1000.38 Q156.297 998.362 158.357 997.297 Q160.417 996.209 162.894 996.209 Q168.102 996.209 171.112 999.38 Q174.144 1002.53 174.144 1007.97 Q174.144 1013.29 170.996 1016.51 Q167.848 1019.73 162.616 1019.73 Q156.621 1019.73 153.45 1015.14 Q150.278 1010.54 150.278 1001.81 Q150.278 993.617 154.167 988.756 Q158.056 983.871 164.607 983.871 Q166.366 983.871 168.149 984.219 Q169.954 984.566 171.899 985.26 Z" fill="#000000" fill-rule="evenodd" fill-opacity="1" /><path clip-path="url(#clip610)" d="M 0 0 M130.95 651.419 Q134.306 652.137 136.181 654.405 Q138.079 656.674 138.079 660.007 Q138.079 665.123 134.561 667.924 Q131.042 670.725 124.561 670.725 Q122.385 670.725 120.07 670.285 Q117.779 669.868 115.325 669.012 L115.325 664.498 Q117.269 665.632 119.584 666.211 Q121.899 666.79 124.422 666.79 Q128.82 666.79 131.112 665.054 Q133.427 663.317 133.427 660.007 Q133.427 656.952 131.274 655.239 Q129.144 653.503 125.325 653.503 L121.297 653.503 L121.297 649.66 L125.51 649.66 Q128.959 649.66 130.788 648.294 Q132.617 646.905 132.617 644.313 Q132.617 641.651 130.718 640.239 Q128.843 638.804 125.325 638.804 Q123.404 638.804 121.205 639.22 Q119.006 639.637 116.367 640.517 L116.367 636.35 Q119.029 635.609 121.343 635.239 Q123.681 634.869 125.742 634.869 Q131.066 634.869 134.167 637.299 Q137.269 639.706 137.269 643.827 Q137.269 646.697 135.626 648.688 Q133.982 650.655 130.95 651.419 Z" fill="#000000" fill-rule="evenodd" fill-opacity="1" /><path clip-path="url(#clip610)" d="M 0 0 M143.149 664.174 L148.033 664.174 L148.033 670.054 L143.149 670.054 L143.149 664.174 Z" fill="#000000" fill-rule="evenodd" fill-opacity="1" /><path clip-path="url(#clip610)" d="M 0 0 M151.922 635.494 L174.144 635.494 L174.144 637.484 L161.598 670.054 L156.714 670.054 L168.519 639.429 L151.922 639.429 L151.922 635.494 Z" fill="#000000" fill-rule="evenodd" fill-opacity="1" /><path clip-path="url(#clip610)" d="M 0 0 M130.14 302.417 Q133.496 303.134 135.371 305.403 Q137.269 307.671 137.269 311.004 Q137.269 316.12 133.751 318.921 Q130.232 321.722 123.751 321.722 Q121.575 321.722 119.26 321.282 Q116.968 320.866 114.515 320.009 L114.515 315.495 Q116.459 316.629 118.774 317.208 Q121.089 317.787 123.612 317.787 Q128.01 317.787 130.302 316.051 Q132.617 314.315 132.617 311.004 Q132.617 307.949 130.464 306.236 Q128.334 304.5 124.515 304.5 L120.487 304.5 L120.487 300.657 L124.7 300.657 Q128.149 300.657 129.978 299.292 Q131.806 297.903 131.806 295.31 Q131.806 292.648 129.908 291.236 Q128.033 289.801 124.515 289.801 Q122.593 289.801 120.394 290.218 Q118.195 290.634 115.556 291.514 L115.556 287.347 Q118.218 286.606 120.533 286.236 Q122.871 285.866 124.931 285.866 Q130.255 285.866 133.357 288.296 Q136.459 290.704 136.459 294.824 Q136.459 297.694 134.816 299.685 Q133.172 301.653 130.14 302.417 Z" fill="#000000" fill-rule="evenodd" fill-opacity="1" /><path clip-path="url(#clip610)" d="M 0 0 M142.339 315.171 L147.223 315.171 L147.223 321.051 L142.339 321.051 L142.339 315.171 Z" fill="#000000" fill-rule="evenodd" fill-opacity="1" /><path clip-path="url(#clip610)" d="M 0 0 M162.292 304.639 Q158.959 304.639 157.038 306.421 Q155.14 308.204 155.14 311.329 Q155.14 314.454 157.038 316.236 Q158.959 318.018 162.292 318.018 Q165.626 318.018 167.547 316.236 Q169.468 314.43 169.468 311.329 Q169.468 308.204 167.547 306.421 Q165.649 304.639 162.292 304.639 M157.616 302.648 Q154.607 301.907 152.917 299.847 Q151.251 297.787 151.251 294.824 Q151.251 290.681 154.19 288.273 Q157.153 285.866 162.292 285.866 Q167.454 285.866 170.394 288.273 Q173.334 290.681 173.334 294.824 Q173.334 297.787 171.644 299.847 Q169.977 301.907 166.991 302.648 Q170.371 303.435 172.246 305.727 Q174.144 308.018 174.144 311.329 Q174.144 316.352 171.065 319.037 Q168.01 321.722 162.292 321.722 Q156.575 321.722 153.496 319.037 Q150.441 316.352 150.441 311.329 Q150.441 308.018 152.339 305.727 Q154.237 303.435 157.616 302.648 M155.903 295.264 Q155.903 297.949 157.57 299.454 Q159.26 300.958 162.292 300.958 Q165.302 300.958 166.991 299.454 Q168.704 297.949 168.704 295.264 Q168.704 292.579 166.991 291.074 Q165.302 289.569 162.292 289.569 Q159.26 289.569 157.57 291.074 Q155.903 292.579 155.903 295.264 Z" fill="#000000" fill-rule="evenodd" fill-opacity="1" /><path clip-path="url(#clip610)" d="M 0 0 M59.1993 815.533 Q55.2526 813.336 53.3747 810.281 Q51.4968 807.225 51.4968 803.088 Q51.4968 797.518 55.4117 794.494 Q59.2948 791.47 66.4881 791.47 L88.0042 791.47 L88.0042 797.358 L66.679 797.358 Q61.5546 797.358 59.072 799.173 Q56.5894 800.987 56.5894 804.711 Q56.5894 809.262 59.6131 811.904 Q62.6368 814.546 67.8567 814.546 L88.0042 814.546 L88.0042 820.434 L66.679 820.434 Q61.5228 820.434 59.072 822.248 Q56.5894 824.063 56.5894 827.85 Q56.5894 832.338 59.6449 834.98 Q62.6686 837.622 67.8567 837.622 L88.0042 837.622 L88.0042 843.51 L52.3562 843.51 L52.3562 837.622 L57.8944 837.622 Q54.616 835.616 53.0564 832.815 Q51.4968 830.015 51.4968 826.163 Q51.4968 822.28 53.4702 819.575 Q55.4436 816.838 59.1993 815.533 Z" fill="#000000" fill-rule="evenodd" fill-opacity="1" /><path clip-path="url(#clip610)" d="M 0 0 M52.3562 785.327 L52.3562 779.471 L88.0042 779.471 L88.0042 785.327 L52.3562 785.327 M38.479 785.327 L38.479 779.471 L45.895 779.471 L45.895 785.327 L38.479 785.327 Z" fill="#000000" fill-rule="evenodd" fill-opacity="1" /><path clip-path="url(#clip610)" d="M 0 0 M66.4881 743.696 L88.0042 743.696 L88.0042 749.552 L66.679 749.552 Q61.6183 749.552 59.1038 751.525 Q56.5894 753.499 56.5894 757.446 Q56.5894 762.188 59.6131 764.925 Q62.6368 767.662 67.8567 767.662 L88.0042 767.662 L88.0042 773.551 L52.3562 773.551 L52.3562 767.662 L57.8944 767.662 Q54.6797 765.562 53.0883 762.729 Q51.4968 759.864 51.4968 756.141 Q51.4968 749.998 55.3163 746.847 Q59.1038 743.696 66.4881 743.696 Z" fill="#000000" fill-rule="evenodd" fill-opacity="1" /><path clip-path="url(#clip610)" d="M 0 0 M98.8259 710.467 L103.377 710.467 L103.377 744.332 L98.8259 744.332 L98.8259 710.467 Z" fill="#000000" fill-rule="evenodd" fill-opacity="1" /><path clip-path="url(#clip610)" d="M 0 0 M57.7671 680.866 L38.479 680.866 L38.479 675.01 L88.0042 675.01 L88.0042 680.866 L82.657 680.866 Q85.8398 682.712 87.3994 685.545 Q88.9272 688.346 88.9272 692.292 Q88.9272 698.754 83.771 702.828 Q78.6147 706.87 70.212 706.87 Q61.8093 706.87 56.6531 702.828 Q51.4968 698.754 51.4968 692.292 Q51.4968 688.346 53.0564 685.545 Q54.5842 682.712 57.7671 680.866 M70.212 700.823 Q76.6732 700.823 80.3653 698.181 Q84.0256 695.507 84.0256 690.86 Q84.0256 686.213 80.3653 683.54 Q76.6732 680.866 70.212 680.866 Q63.7508 680.866 60.0905 683.54 Q56.3984 686.213 56.3984 690.86 Q56.3984 695.507 60.0905 698.181 Q63.7508 700.823 70.212 700.823 Z" fill="#000000" fill-rule="evenodd" fill-opacity="1" /><path clip-path="url(#clip610)" d="M 0 0 M52.3562 668.867 L52.3562 663.01 L88.0042 663.01 L88.0042 668.867 L52.3562 668.867 M38.479 668.867 L38.479 663.01 L45.895 663.01 L45.895 668.867 L38.479 668.867 Z" fill="#000000" fill-rule="evenodd" fill-opacity="1" /><path clip-path="url(#clip610)" d="M 0 0 M38.479 638.821 L43.3487 638.821 L43.3487 644.422 Q43.3487 647.573 44.6219 648.815 Q45.895 650.024 49.2052 650.024 L52.3562 650.024 L52.3562 640.38 L56.9077 640.38 L56.9077 650.024 L88.0042 650.024 L88.0042 655.912 L56.9077 655.912 L56.9077 661.514 L52.3562 661.514 L52.3562 655.912 L49.8736 655.912 Q43.9216 655.912 41.2162 653.143 Q38.479 650.374 38.479 644.359 L38.479 638.821 Z" fill="#000000" fill-rule="evenodd" fill-opacity="1" /><path clip-path="url(#clip610)" d="M 0 0 M38.479 614.631 L43.3487 614.631 L43.3487 620.233 Q43.3487 623.384 44.6219 624.625 Q45.895 625.835 49.2052 625.835 L52.3562 625.835 L52.3562 616.19 L56.9077 616.19 L56.9077 625.835 L88.0042 625.835 L88.0042 631.723 L56.9077 631.723 L56.9077 637.325 L52.3562 637.325 L52.3562 631.723 L49.8736 631.723 Q43.9216 631.723 41.2162 628.954 Q38.479 626.185 38.479 620.169 L38.479 614.631 Z" fill="#000000" fill-rule="evenodd" fill-opacity="1" /><polyline clip-path="url(#clip612)" style="stroke:#009af9; stroke-width:20; stroke-opacity:1; fill:none" stroke-dasharray="80, 50" points="
  270.784,1372.3 1281.45,558.437 2292.12,85.838 
  "/>
<path clip-path="url(#clip610)" d="
M1992.25 213.659 L2281.34 213.659 L2281.34 92.6992 L1992.25 92.6992  Z
  " fill="#ffffff" fill-rule="evenodd" fill-opacity="1"/>
<polyline clip-path="url(#clip610)" style="stroke:#000000; stroke-width:4; stroke-opacity:1; fill:none" points="
  1992.25,213.659 2281.34,213.659 2281.34,92.6992 1992.25,92.6992 1992.25,213.659 
  "/>
<polyline clip-path="url(#clip610)" style="stroke:#009af9; stroke-width:4; stroke-opacity:1; fill:none" stroke-dasharray="16, 10" points="
  2016.06,153.179 2158.9,153.179 
  "/>
<path clip-path="url(#clip610)" d="M 0 0 M2196.55 172.867 Q2194.74 177.496 2193.03 178.908 Q2191.31 180.32 2188.44 180.32 L2185.04 180.32 L2185.04 176.755 L2187.54 176.755 Q2189.3 176.755 2190.27 175.922 Q2191.25 175.089 2192.43 171.987 L2193.19 170.043 L2182.7 144.533 L2187.22 144.533 L2195.32 164.811 L2203.42 144.533 L2207.94 144.533 L2196.55 172.867 Z" fill="#000000" fill-rule="evenodd" fill-opacity="1" /><path clip-path="url(#clip610)" d="M 0 0 M2213.81 166.524 L2221.45 166.524 L2221.45 140.158 L2213.14 141.825 L2213.14 137.566 L2221.41 135.899 L2226.08 135.899 L2226.08 166.524 L2233.72 166.524 L2233.72 170.459 L2213.81 170.459 L2213.81 166.524 Z" fill="#000000" fill-rule="evenodd" fill-opacity="1" /></svg>
