<?xml version="1.0" encoding="utf-8"?>
<svg xmlns="http://www.w3.org/2000/svg" xmlns:xlink="http://www.w3.org/1999/xlink" width="600" height="400" viewBox="0 0 2400 1600">
<defs>
  <clipPath id="clip470">
    <rect x="0" y="0" width="2400" height="1600"/>
  </clipPath>
</defs>
<path clip-path="url(#clip470)" d="
M0 1600 L2400 1600 L2400 0 L0 0  Z
  " fill="#ffffff" fill-rule="evenodd" fill-opacity="1"/>
<defs>
  <clipPath id="clip471">
    <rect x="480" y="0" width="1681" height="1600"/>
  </clipPath>
</defs>
<path clip-path="url(#clip470)" d="
M219.056 1410.9 L2352.76 1410.9 L2352.76 47.2441 L219.056 47.2441  Z
  " fill="#ffffff" fill-rule="evenodd" fill-opacity="1"/>
<defs>
  <clipPath id="clip472">
    <rect x="219" y="47" width="2135" height="1365"/>
  </clipPath>
</defs>
<polyline clip-path="url(#clip472)" style="stroke:#000000; stroke-linecap:butt; stroke-linejoin:round; stroke-width:2; stroke-opacity:0.1; fill:none" points="
  883.321,1410.9 883.321,47.2441 
  "/>
<polyline clip-path="url(#clip472)" style="stroke:#000000; stroke-linecap:butt; stroke-linejoin:round; stroke-width:2; stroke-opacity:0.1; fill:none" points="
  1688.49,1410.9 1688.49,47.2441 
  "/>
<polyline clip-path="url(#clip470)" style="stroke:#000000; stroke-linecap:butt; stroke-linejoin:round; stroke-width:4; stroke-opacity:1; fill:none" points="
  219.056,1410.9 2352.76,1410.9 
  "/>
<polyline clip-path="url(#clip470)" style="stroke:#000000; stroke-linecap:butt; stroke-linejoin:round; stroke-width:4; stroke-opacity:1; fill:none" points="
  883.321,1410.9 883.321,1392 
  "/>
<polyline clip-path="url(#clip470)" style="stroke:#000000; stroke-linecap:butt; stroke-linejoin:round; stroke-width:4; stroke-opacity:1; fill:none" points="
  1688.49,1410.9 1688.49,1392 
  "/>
<path clip-path="url(#clip470)" d="M814.826 1485.02 L822.465 1485.02 L822.465 1458.66 L814.155 1460.32 L814.155 1456.06 L822.419 1454.4 L827.095 1454.4 L827.095 1485.02 L834.733 1485.02 L834.733 1488.96 L814.826 1488.96 L814.826 1485.02 Z" fill="#000000" fill-rule="evenodd" fill-opacity="1" /><path clip-path="url(#clip470)" d="M854.178 1457.48 Q850.567 1457.48 848.738 1461.04 Q846.932 1464.58 846.932 1471.71 Q846.932 1478.82 848.738 1482.38 Q850.567 1485.92 854.178 1485.92 Q857.812 1485.92 859.618 1482.38 Q861.446 1478.82 861.446 1471.71 Q861.446 1464.58 859.618 1461.04 Q857.812 1457.48 854.178 1457.48 M854.178 1453.77 Q859.988 1453.77 863.043 1458.38 Q866.122 1462.96 866.122 1471.71 Q866.122 1480.44 863.043 1485.04 Q859.988 1489.63 854.178 1489.63 Q848.368 1489.63 845.289 1485.04 Q842.233 1480.44 842.233 1471.71 Q842.233 1462.96 845.289 1458.38 Q848.368 1453.77 854.178 1453.77 Z" fill="#000000" fill-rule="evenodd" fill-opacity="1" /><path clip-path="url(#clip470)" d="M866.122 1447.87 L890.234 1447.87 L890.234 1451.07 L866.122 1451.07 L866.122 1447.87 Z" fill="#000000" fill-rule="evenodd" fill-opacity="1" /><path clip-path="url(#clip470)" d="M898.472 1433.47 L913.386 1433.47 L913.386 1436.66 L901.951 1436.66 L901.951 1443.55 Q902.778 1443.27 903.606 1443.13 Q904.434 1442.98 905.261 1442.98 Q909.963 1442.98 912.709 1445.56 Q915.455 1448.14 915.455 1452.54 Q915.455 1457.07 912.634 1459.59 Q909.813 1462.09 904.678 1462.09 Q902.91 1462.09 901.067 1461.79 Q899.243 1461.49 897.287 1460.89 L897.287 1457.07 Q898.979 1457.99 900.785 1458.44 Q902.59 1458.89 904.603 1458.89 Q907.857 1458.89 909.756 1457.18 Q911.656 1455.47 911.656 1452.54 Q911.656 1449.6 909.756 1447.89 Q907.857 1446.18 904.603 1446.18 Q903.079 1446.18 901.556 1446.52 Q900.051 1446.86 898.472 1447.57 L898.472 1433.47 Z" fill="#000000" fill-rule="evenodd" fill-opacity="1" /><path clip-path="url(#clip470)" d="M922.94 1456.77 L926.909 1456.77 L926.909 1461.55 L922.94 1461.55 L922.94 1456.77 Z" fill="#000000" fill-rule="evenodd" fill-opacity="1" /><path clip-path="url(#clip470)" d="M946.695 1446.41 Q949.422 1446.99 950.945 1448.83 Q952.487 1450.68 952.487 1453.38 Q952.487 1457.54 949.629 1459.82 Q946.77 1462.09 941.504 1462.09 Q939.736 1462.09 937.855 1461.73 Q935.993 1461.4 933.999 1460.7 L933.999 1457.03 Q935.579 1457.95 937.46 1458.42 Q939.341 1458.89 941.391 1458.89 Q944.964 1458.89 946.826 1457.48 Q948.707 1456.07 948.707 1453.38 Q948.707 1450.9 946.958 1449.51 Q945.228 1448.1 942.124 1448.1 L938.852 1448.1 L938.852 1444.98 L942.275 1444.98 Q945.077 1444.98 946.563 1443.87 Q948.049 1442.74 948.049 1440.63 Q948.049 1438.47 946.507 1437.32 Q944.983 1436.16 942.124 1436.16 Q940.563 1436.16 938.777 1436.49 Q936.99 1436.83 934.846 1437.55 L934.846 1434.16 Q937.009 1433.56 938.889 1433.26 Q940.789 1432.96 942.463 1432.96 Q946.789 1432.96 949.309 1434.93 Q951.829 1436.89 951.829 1440.24 Q951.829 1442.57 950.494 1444.19 Q949.158 1445.79 946.695 1446.41 Z" fill="#000000" fill-rule="evenodd" fill-opacity="1" /><path clip-path="url(#clip470)" d="M1620.38 1485.02 L1628.02 1485.02 L1628.02 1458.66 L1619.71 1460.32 L1619.71 1456.06 L1627.97 1454.4 L1632.65 1454.4 L1632.65 1485.02 L1640.29 1485.02 L1640.29 1488.96 L1620.38 1488.96 L1620.38 1485.02 Z" fill="#000000" fill-rule="evenodd" fill-opacity="1" /><path clip-path="url(#clip470)" d="M1659.73 1457.48 Q1656.12 1457.48 1654.29 1461.04 Q1652.49 1464.58 1652.49 1471.71 Q1652.49 1478.82 1654.29 1482.38 Q1656.12 1485.92 1659.73 1485.92 Q1663.37 1485.92 1665.17 1482.38 Q1667 1478.82 1667 1471.71 Q1667 1464.58 1665.17 1461.04 Q1663.37 1457.48 1659.73 1457.48 M1659.73 1453.77 Q1665.54 1453.77 1668.6 1458.38 Q1671.68 1462.96 1671.68 1471.71 Q1671.68 1480.44 1668.6 1485.04 Q1665.54 1489.63 1659.73 1489.63 Q1653.92 1489.63 1650.84 1485.04 Q1647.79 1480.44 1647.79 1471.71 Q1647.79 1462.96 1650.84 1458.38 Q1653.92 1453.77 1659.73 1453.77 Z" fill="#000000" fill-rule="evenodd" fill-opacity="1" /><path clip-path="url(#clip470)" d="M1671.68 1447.87 L1695.79 1447.87 L1695.79 1451.07 L1671.68 1451.07 L1671.68 1447.87 Z" fill="#000000" fill-rule="evenodd" fill-opacity="1" /><path clip-path="url(#clip470)" d="M1704.03 1433.47 L1718.94 1433.47 L1718.94 1436.66 L1707.51 1436.66 L1707.51 1443.55 Q1708.33 1443.27 1709.16 1443.13 Q1709.99 1442.98 1710.82 1442.98 Q1715.52 1442.98 1718.26 1445.56 Q1721.01 1448.14 1721.01 1452.54 Q1721.01 1457.07 1718.19 1459.59 Q1715.37 1462.09 1710.23 1462.09 Q1708.47 1462.09 1706.62 1461.79 Q1704.8 1461.49 1702.84 1460.89 L1702.84 1457.07 Q1704.53 1457.99 1706.34 1458.44 Q1708.15 1458.89 1710.16 1458.89 Q1713.41 1458.89 1715.31 1457.18 Q1717.21 1455.47 1717.21 1452.54 Q1717.21 1449.6 1715.31 1447.89 Q1713.41 1446.18 1710.16 1446.18 Q1708.63 1446.18 1707.11 1446.52 Q1705.61 1446.86 1704.03 1447.57 L1704.03 1433.47 Z" fill="#000000" fill-rule="evenodd" fill-opacity="1" /><path clip-path="url(#clip470)" d="M1728.5 1456.77 L1732.46 1456.77 L1732.46 1461.55 L1728.5 1461.55 L1728.5 1456.77 Z" fill="#000000" fill-rule="evenodd" fill-opacity="1" /><path clip-path="url(#clip470)" d="M1744.01 1458.35 L1757.27 1458.35 L1757.27 1461.55 L1739.44 1461.55 L1739.44 1458.35 Q1741.6 1456.11 1745.33 1452.35 Q1749.07 1448.57 1750.03 1447.48 Q1751.85 1445.43 1752.57 1444.02 Q1753.3 1442.59 1753.3 1441.22 Q1753.3 1438.98 1751.72 1437.57 Q1750.16 1436.16 1747.64 1436.16 Q1745.86 1436.16 1743.86 1436.78 Q1741.89 1437.4 1739.63 1438.66 L1739.63 1434.82 Q1741.92 1433.9 1743.92 1433.43 Q1745.91 1432.96 1747.57 1432.96 Q1751.93 1432.96 1754.53 1435.14 Q1757.12 1437.32 1757.12 1440.97 Q1757.12 1442.7 1756.46 1444.26 Q1755.82 1445.8 1754.11 1447.91 Q1753.64 1448.46 1751.12 1451.07 Q1748.6 1453.67 1744.01 1458.35 Z" fill="#000000" fill-rule="evenodd" fill-opacity="1" /><path clip-path="url(#clip470)" d="M1215.87 1524.66 L1221.76 1524.66 L1221.76 1553.91 L1239.23 1538.54 L1246.71 1538.54 L1227.8 1555.22 L1247.5 1574.19 L1239.87 1574.19 L1221.76 1556.78 L1221.76 1574.19 L1215.87 1574.19 L1215.87 1524.66 Z" fill="#000000" fill-rule="evenodd" fill-opacity="1" /><path clip-path="url(#clip470)" d="M1280.92 1585.01 L1280.92 1589.56 L1247.06 1589.56 L1247.06 1585.01 L1280.92 1585.01 Z" fill="#000000" fill-rule="evenodd" fill-opacity="1" /><path clip-path="url(#clip470)" d="M1300.24 1542.64 Q1295.53 1542.64 1292.8 1546.34 Q1290.06 1550 1290.06 1556.39 Q1290.06 1562.79 1292.77 1566.48 Q1295.5 1570.14 1300.24 1570.14 Q1304.92 1570.14 1307.66 1566.45 Q1310.4 1562.76 1310.4 1556.39 Q1310.4 1550.06 1307.66 1546.37 Q1304.92 1542.64 1300.24 1542.64 M1300.24 1537.68 Q1307.88 1537.68 1312.24 1542.64 Q1316.6 1547.61 1316.6 1556.39 Q1316.6 1565.15 1312.24 1570.14 Q1307.88 1575.11 1300.24 1575.11 Q1292.57 1575.11 1288.21 1570.14 Q1283.88 1565.15 1283.88 1556.39 Q1283.88 1547.61 1288.21 1542.64 Q1292.57 1537.68 1300.24 1537.68 Z" fill="#000000" fill-rule="evenodd" fill-opacity="1" /><path clip-path="url(#clip470)" d="M1355.94 1552.67 L1355.94 1574.19 L1350.09 1574.19 L1350.09 1552.86 Q1350.09 1547.8 1348.11 1545.29 Q1346.14 1542.77 1342.19 1542.77 Q1337.45 1542.77 1334.72 1545.79 Q1331.98 1548.82 1331.98 1554.04 L1331.98 1574.19 L1326.09 1574.19 L1326.09 1538.54 L1331.98 1538.54 L1331.98 1544.08 Q1334.08 1540.86 1336.91 1539.27 Q1339.78 1537.68 1343.5 1537.68 Q1349.64 1537.68 1352.79 1541.5 Q1355.94 1545.29 1355.94 1552.67 Z" fill="#000000" fill-rule="evenodd" fill-opacity="1" /><polyline clip-path="url(#clip472)" style="stroke:#000000; stroke-linecap:butt; stroke-linejoin:round; stroke-width:2; stroke-opacity:0.1; fill:none" points="
  219.056,1381.2 2352.76,1381.2 
  "/>
<polyline clip-path="url(#clip472)" style="stroke:#000000; stroke-linecap:butt; stroke-linejoin:round; stroke-width:2; stroke-opacity:0.1; fill:none" points="
  219.056,1003.61 2352.76,1003.61 
  "/>
<polyline clip-path="url(#clip472)" style="stroke:#000000; stroke-linecap:butt; stroke-linejoin:round; stroke-width:2; stroke-opacity:0.1; fill:none" points="
  219.056,626.031 2352.76,626.031 
  "/>
<polyline clip-path="url(#clip472)" style="stroke:#000000; stroke-linecap:butt; stroke-linejoin:round; stroke-width:2; stroke-opacity:0.1; fill:none" points="
  219.056,248.448 2352.76,248.448 
  "/>
<polyline clip-path="url(#clip470)" style="stroke:#000000; stroke-linecap:butt; stroke-linejoin:round; stroke-width:4; stroke-opacity:1; fill:none" points="
  219.056,1410.9 219.056,47.2441 
  "/>
<polyline clip-path="url(#clip470)" style="stroke:#000000; stroke-linecap:butt; stroke-linejoin:round; stroke-width:4; stroke-opacity:1; fill:none" points="
  219.056,1381.2 237.954,1381.2 
  "/>
<polyline clip-path="url(#clip470)" style="stroke:#000000; stroke-linecap:butt; stroke-linejoin:round; stroke-width:4; stroke-opacity:1; fill:none" points="
  219.056,1003.61 237.954,1003.61 
  "/>
<polyline clip-path="url(#clip470)" style="stroke:#000000; stroke-linecap:butt; stroke-linejoin:round; stroke-width:4; stroke-opacity:1; fill:none" points="
  219.056,626.031 237.954,626.031 
  "/>
<polyline clip-path="url(#clip470)" style="stroke:#000000; stroke-linecap:butt; stroke-linejoin:round; stroke-width:4; stroke-opacity:1; fill:none" points="
  219.056,248.448 237.954,248.448 
  "/>
<path clip-path="url(#clip470)" d="M129.885 1379.84 Q133.242 1380.56 135.117 1382.83 Q137.015 1385.1 137.015 1388.43 Q137.015 1393.55 133.496 1396.35 Q129.978 1399.15 123.496 1399.15 Q121.32 1399.15 119.006 1398.71 Q116.714 1398.29 114.26 1397.44 L114.26 1392.92 Q116.205 1394.06 118.519 1394.63 Q120.834 1395.21 123.357 1395.21 Q127.755 1395.21 130.047 1393.48 Q132.362 1391.74 132.362 1388.43 Q132.362 1385.38 130.209 1383.66 Q128.08 1381.93 124.26 1381.93 L120.232 1381.93 L120.232 1378.08 L124.445 1378.08 Q127.894 1378.08 129.723 1376.72 Q131.552 1375.33 131.552 1372.74 Q131.552 1370.07 129.654 1368.66 Q127.779 1367.23 124.26 1367.23 Q122.339 1367.23 120.14 1367.64 Q117.941 1368.06 115.302 1368.94 L115.302 1364.77 Q117.964 1364.03 120.279 1363.66 Q122.617 1363.29 124.677 1363.29 Q130.001 1363.29 133.103 1365.72 Q136.204 1368.13 136.204 1372.25 Q136.204 1375.12 134.561 1377.11 Q132.917 1379.08 129.885 1379.84 Z" fill="#000000" fill-rule="evenodd" fill-opacity="1" /><path clip-path="url(#clip470)" d="M145.88 1392.6 L150.765 1392.6 L150.765 1398.48 L145.88 1398.48 L145.88 1392.6 Z" fill="#000000" fill-rule="evenodd" fill-opacity="1" /><path clip-path="url(#clip470)" d="M171.528 1379.33 Q168.38 1379.33 166.528 1381.49 Q164.7 1383.64 164.7 1387.39 Q164.7 1391.12 166.528 1393.29 Q168.38 1395.45 171.528 1395.45 Q174.677 1395.45 176.505 1393.29 Q178.357 1391.12 178.357 1387.39 Q178.357 1383.64 176.505 1381.49 Q174.677 1379.33 171.528 1379.33 M180.811 1364.68 L180.811 1368.94 Q179.051 1368.11 177.246 1367.67 Q175.464 1367.23 173.704 1367.23 Q169.075 1367.23 166.621 1370.35 Q164.19 1373.48 163.843 1379.8 Q165.209 1377.78 167.269 1376.72 Q169.329 1375.63 171.806 1375.63 Q177.014 1375.63 180.024 1378.8 Q183.056 1381.95 183.056 1387.39 Q183.056 1392.71 179.908 1395.93 Q176.76 1399.15 171.528 1399.15 Q165.533 1399.15 162.362 1394.57 Q159.19 1389.96 159.19 1381.23 Q159.19 1373.04 163.079 1368.18 Q166.968 1363.29 173.519 1363.29 Q175.278 1363.29 177.061 1363.64 Q178.866 1363.99 180.811 1364.68 Z" fill="#000000" fill-rule="evenodd" fill-opacity="1" /><path clip-path="url(#clip470)" d="M130.95 1002.26 Q134.306 1002.98 136.181 1005.25 Q138.079 1007.51 138.079 1010.85 Q138.079 1015.96 134.561 1018.76 Q131.042 1021.57 124.561 1021.57 Q122.385 1021.57 120.07 1021.13 Q117.779 1020.71 115.325 1019.85 L115.325 1015.34 Q117.269 1016.47 119.584 1017.05 Q121.899 1017.63 124.422 1017.63 Q128.82 1017.63 131.112 1015.89 Q133.427 1014.16 133.427 1010.85 Q133.427 1007.79 131.274 1006.08 Q129.144 1004.34 125.325 1004.34 L121.297 1004.34 L121.297 1000.5 L125.51 1000.5 Q128.959 1000.5 130.788 999.135 Q132.617 997.746 132.617 995.154 Q132.617 992.492 130.718 991.08 Q128.843 989.645 125.325 989.645 Q123.404 989.645 121.205 990.061 Q119.006 990.478 116.367 991.358 L116.367 987.191 Q119.029 986.45 121.343 986.08 Q123.681 985.709 125.742 985.709 Q131.066 985.709 134.167 988.14 Q137.269 990.547 137.269 994.668 Q137.269 997.538 135.626 999.529 Q133.982 1001.5 130.95 1002.26 Z" fill="#000000" fill-rule="evenodd" fill-opacity="1" /><path clip-path="url(#clip470)" d="M146.945 1015.01 L151.829 1015.01 L151.829 1020.89 L146.945 1020.89 L146.945 1015.01 Z" fill="#000000" fill-rule="evenodd" fill-opacity="1" /><path clip-path="url(#clip470)" d="M160.834 986.334 L183.056 986.334 L183.056 988.325 L170.51 1020.89 L165.626 1020.89 L177.431 990.27 L160.834 990.27 L160.834 986.334 Z" fill="#000000" fill-rule="evenodd" fill-opacity="1" /><path clip-path="url(#clip470)" d="M130.14 624.677 Q133.496 625.395 135.371 627.663 Q137.269 629.932 137.269 633.265 Q137.269 638.381 133.751 641.182 Q130.232 643.983 123.751 643.983 Q121.575 643.983 119.26 643.543 Q116.968 643.126 114.515 642.27 L114.515 637.756 Q116.459 638.89 118.774 639.469 Q121.089 640.048 123.612 640.048 Q128.01 640.048 130.302 638.311 Q132.617 636.575 132.617 633.265 Q132.617 630.21 130.464 628.497 Q128.334 626.761 124.515 626.761 L120.487 626.761 L120.487 622.918 L124.7 622.918 Q128.149 622.918 129.978 621.552 Q131.806 620.163 131.806 617.571 Q131.806 614.909 129.908 613.497 Q128.033 612.062 124.515 612.062 Q122.593 612.062 120.394 612.478 Q118.195 612.895 115.556 613.775 L115.556 609.608 Q118.218 608.867 120.533 608.497 Q122.871 608.126 124.931 608.126 Q130.255 608.126 133.357 610.557 Q136.459 612.964 136.459 617.085 Q136.459 619.955 134.816 621.946 Q133.172 623.913 130.14 624.677 Z" fill="#000000" fill-rule="evenodd" fill-opacity="1" /><path clip-path="url(#clip470)" d="M146.135 637.432 L151.019 637.432 L151.019 643.311 L146.135 643.311 L146.135 637.432 Z" fill="#000000" fill-rule="evenodd" fill-opacity="1" /><path clip-path="url(#clip470)" d="M171.204 626.899 Q167.871 626.899 165.95 628.682 Q164.052 630.464 164.052 633.589 Q164.052 636.714 165.95 638.497 Q167.871 640.279 171.204 640.279 Q174.538 640.279 176.459 638.497 Q178.38 636.691 178.38 633.589 Q178.38 630.464 176.459 628.682 Q174.561 626.899 171.204 626.899 M166.528 624.909 Q163.519 624.168 161.829 622.108 Q160.163 620.048 160.163 617.085 Q160.163 612.941 163.102 610.534 Q166.065 608.126 171.204 608.126 Q176.366 608.126 179.306 610.534 Q182.246 612.941 182.246 617.085 Q182.246 620.048 180.556 622.108 Q178.889 624.168 175.903 624.909 Q179.283 625.696 181.158 627.987 Q183.056 630.279 183.056 633.589 Q183.056 638.612 179.977 641.298 Q176.922 643.983 171.204 643.983 Q165.487 643.983 162.408 641.298 Q159.353 638.612 159.353 633.589 Q159.353 630.279 161.251 627.987 Q163.149 625.696 166.528 624.909 M164.815 617.525 Q164.815 620.21 166.482 621.714 Q168.172 623.219 171.204 623.219 Q174.214 623.219 175.903 621.714 Q177.616 620.21 177.616 617.525 Q177.616 614.839 175.903 613.335 Q174.214 611.83 171.204 611.83 Q168.172 611.83 166.482 613.335 Q164.815 614.839 164.815 617.525 Z" fill="#000000" fill-rule="evenodd" fill-opacity="1" /><path clip-path="url(#clip470)" d="M130.232 247.094 Q133.589 247.812 135.464 250.08 Q137.362 252.349 137.362 255.682 Q137.362 260.798 133.843 263.599 Q130.325 266.4 123.843 266.4 Q121.668 266.4 119.353 265.96 Q117.061 265.543 114.607 264.687 L114.607 260.173 Q116.552 261.307 118.867 261.886 Q121.181 262.465 123.705 262.465 Q128.103 262.465 130.394 260.728 Q132.709 258.992 132.709 255.682 Q132.709 252.627 130.556 250.914 Q128.427 249.178 124.607 249.178 L120.58 249.178 L120.58 245.335 L124.793 245.335 Q128.242 245.335 130.07 243.969 Q131.899 242.58 131.899 239.988 Q131.899 237.326 130.001 235.914 Q128.126 234.479 124.607 234.479 Q122.686 234.479 120.487 234.895 Q118.288 235.312 115.649 236.192 L115.649 232.025 Q118.311 231.284 120.626 230.914 Q122.964 230.543 125.024 230.543 Q130.348 230.543 133.45 232.974 Q136.552 235.381 136.552 239.502 Q136.552 242.372 134.908 244.363 Q133.265 246.33 130.232 247.094 Z" fill="#000000" fill-rule="evenodd" fill-opacity="1" /><path clip-path="url(#clip470)" d="M146.228 259.849 L151.112 259.849 L151.112 265.728 L146.228 265.728 L146.228 259.849 Z" fill="#000000" fill-rule="evenodd" fill-opacity="1" /><path clip-path="url(#clip470)" d="M161.436 265.011 L161.436 260.752 Q163.195 261.585 165.001 262.025 Q166.806 262.465 168.542 262.465 Q173.172 262.465 175.602 259.363 Q178.056 256.238 178.403 249.895 Q177.061 251.886 175.001 252.951 Q172.94 254.015 170.44 254.015 Q165.255 254.015 162.223 250.891 Q159.214 247.742 159.214 242.303 Q159.214 236.979 162.362 233.761 Q165.51 230.543 170.741 230.543 Q176.737 230.543 179.885 235.15 Q183.056 239.733 183.056 248.483 Q183.056 256.654 179.167 261.539 Q175.301 266.4 168.751 266.4 Q166.991 266.4 165.186 266.052 Q163.38 265.705 161.436 265.011 M170.741 250.358 Q173.889 250.358 175.718 248.205 Q177.57 246.053 177.57 242.303 Q177.57 238.576 175.718 236.423 Q173.889 234.247 170.741 234.247 Q167.593 234.247 165.741 236.423 Q163.913 238.576 163.913 242.303 Q163.913 246.053 165.741 248.205 Q167.593 250.358 170.741 250.358 Z" fill="#000000" fill-rule="evenodd" fill-opacity="1" /><path clip-path="url(#clip470)" d="M35.1993 829.203 Q31.2526 827.007 29.3747 823.951 Q27.4968 820.896 27.4968 816.758 Q27.4968 811.188 31.4117 808.164 Q35.2948 805.141 42.4881 805.141 L64.0042 805.141 L64.0042 811.029 L42.679 811.029 Q37.5546 811.029 35.072 812.843 Q32.5894 814.657 32.5894 818.381 Q32.5894 822.933 35.6131 825.574 Q38.6368 828.216 43.8567 828.216 L64.0042 828.216 L64.0042 834.105 L42.679 834.105 Q37.5228 834.105 35.072 835.919 Q32.5894 837.733 32.5894 841.521 Q32.5894 846.008 35.6449 848.65 Q38.6686 851.292 43.8567 851.292 L64.0042 851.292 L64.0042 857.18 L28.3562 857.18 L28.3562 851.292 L33.8944 851.292 Q30.616 849.287 29.0564 846.486 Q27.4968 843.685 27.4968 839.834 Q27.4968 835.951 29.4702 833.245 Q31.4436 830.508 35.1993 829.203 Z" fill="#000000" fill-rule="evenodd" fill-opacity="1" /><path clip-path="url(#clip470)" d="M28.3562 793.459 L28.3562 787.603 L64.0042 787.603 L64.0042 793.459 L28.3562 793.459 M14.479 793.459 L14.479 787.603 L21.895 787.603 L21.895 793.459 L14.479 793.459 Z" fill="#000000" fill-rule="evenodd" fill-opacity="1" /><path clip-path="url(#clip470)" d="M42.4881 745.717 L64.0042 745.717 L64.0042 751.573 L42.679 751.573 Q37.6183 751.573 35.1038 753.547 Q32.5894 755.52 32.5894 759.467 Q32.5894 764.209 35.6131 766.946 Q38.6368 769.684 43.8567 769.684 L64.0042 769.684 L64.0042 775.572 L28.3562 775.572 L28.3562 769.684 L33.8944 769.684 Q30.6797 767.583 29.0883 764.75 Q27.4968 761.886 27.4968 758.162 Q27.4968 752.019 31.3163 748.868 Q35.1038 745.717 42.4881 745.717 Z" fill="#000000" fill-rule="evenodd" fill-opacity="1" /><path clip-path="url(#clip470)" d="M74.8259 706.95 L79.3773 706.95 L79.3773 740.815 L74.8259 740.815 L74.8259 706.95 Z" fill="#000000" fill-rule="evenodd" fill-opacity="1" /><path clip-path="url(#clip470)" d="M33.7671 677.986 L14.479 677.986 L14.479 672.129 L64.0042 672.129 L64.0042 677.986 L58.657 677.986 Q61.8398 679.832 63.3994 682.664 Q64.9272 685.465 64.9272 689.412 Q64.9272 695.873 59.771 699.947 Q54.6147 703.989 46.212 703.989 Q37.8093 703.989 32.6531 699.947 Q27.4968 695.873 27.4968 689.412 Q27.4968 685.465 29.0564 682.664 Q30.5842 679.832 33.7671 677.986 M46.212 697.942 Q52.6732 697.942 56.3653 695.3 Q60.0256 692.627 60.0256 687.98 Q60.0256 683.333 56.3653 680.659 Q52.6732 677.986 46.212 677.986 Q39.7508 677.986 36.0905 680.659 Q32.3984 683.333 32.3984 687.98 Q32.3984 692.627 36.0905 695.3 Q39.7508 697.942 46.212 697.942 Z" fill="#000000" fill-rule="evenodd" fill-opacity="1" /><path clip-path="url(#clip470)" d="M28.3562 660.066 L28.3562 654.21 L64.0042 654.21 L64.0042 660.066 L28.3562 660.066 M14.479 660.066 L14.479 654.21 L21.895 654.21 L21.895 660.066 L14.479 660.066 Z" fill="#000000" fill-rule="evenodd" fill-opacity="1" /><path clip-path="url(#clip470)" d="M14.479 623.909 L19.3487 623.909 L19.3487 629.511 Q19.3487 632.662 20.6219 633.903 Q21.895 635.113 25.2052 635.113 L28.3562 635.113 L28.3562 625.468 L32.9077 625.468 L32.9077 635.113 L64.0042 635.113 L64.0042 641.001 L32.9077 641.001 L32.9077 646.603 L28.3562 646.603 L28.3562 641.001 L25.8736 641.001 Q19.9216 641.001 17.2162 638.232 Q14.479 635.463 14.479 629.447 L14.479 623.909 Z" fill="#000000" fill-rule="evenodd" fill-opacity="1" /><path clip-path="url(#clip470)" d="M14.479 600.961 L19.3487 600.961 L19.3487 606.562 Q19.3487 609.713 20.6219 610.955 Q21.895 612.164 25.2052 612.164 L28.3562 612.164 L28.3562 602.52 L32.9077 602.52 L32.9077 612.164 L64.0042 612.164 L64.0042 618.052 L32.9077 618.052 L32.9077 623.654 L28.3562 623.654 L28.3562 618.052 L25.8736 618.052 Q19.9216 618.052 17.2162 615.283 Q14.479 612.514 14.479 606.499 L14.479 600.961 Z" fill="#000000" fill-rule="evenodd" fill-opacity="1" /><polyline clip-path="url(#clip472)" style="stroke:#009af9; stroke-linecap:butt; stroke-linejoin:round; stroke-width:20; stroke-opacity:1; fill:none" stroke-dasharray="80, 50" points="
  279.444,1040.33 1285.91,1372.3 2292.37,85.838 
  "/>
<path clip-path="url(#clip470)" d="
M1992.12 196.379 L2281.63 196.379 L2281.63 92.6992 L1992.12 92.6992  Z
  " fill="#ffffff" fill-rule="evenodd" fill-opacity="1"/>
<polyline clip-path="url(#clip470)" style="stroke:#000000; stroke-linecap:butt; stroke-linejoin:round; stroke-width:4; stroke-opacity:1; fill:none" points="
  1992.12,196.379 2281.63,196.379 2281.63,92.6992 1992.12,92.6992 1992.12,196.379 
  "/>
<polyline clip-path="url(#clip470)" style="stroke:#009af9; stroke-linecap:butt; stroke-linejoin:round; stroke-width:4; stroke-opacity:1; fill:none" stroke-dasharray="16, 10" points="
  2015.83,144.539 2158.08,144.539 
  "/>
<path clip-path="url(#clip470)" d="M2195.63 164.227 Q2193.82 168.856 2192.11 170.268 Q2190.4 171.68 2187.53 171.68 L2184.12 171.68 L2184.12 168.115 L2186.62 168.115 Q2188.38 168.115 2189.36 167.282 Q2190.33 166.449 2191.51 163.347 L2192.27 161.403 L2181.79 135.893 L2186.3 135.893 L2194.4 156.171 L2202.5 135.893 L2207.02 135.893 L2195.63 164.227 Z" fill="#000000" fill-rule="evenodd" fill-opacity="1" /><path clip-path="url(#clip470)" d="M2214.31 157.884 L2221.95 157.884 L2221.95 131.518 L2213.64 133.185 L2213.64 128.926 L2221.9 127.259 L2226.58 127.259 L2226.58 157.884 L2234.22 157.884 L2234.22 161.819 L2214.31 161.819 L2214.31 157.884 Z" fill="#000000" fill-rule="evenodd" fill-opacity="1" /></svg>
