<?xml version="1.0" encoding="utf-8"?>
<svg xmlns="http://www.w3.org/2000/svg" xmlns:xlink="http://www.w3.org/1999/xlink" width="600" height="400" viewBox="0 0 2400 1600">
<defs>
  <clipPath id="clip170">
    <rect x="0" y="0" width="2400" height="1600"/>
  </clipPath>
</defs>
<path clip-path="url(#clip170)" d="
M0 1600 L2400 1600 L2400 0 L0 0  Z
  " fill="#ffffff" fill-rule="evenodd" fill-opacity="1"/>
<defs>
  <clipPath id="clip171">
    <rect x="480" y="0" width="1681" height="1600"/>
  </clipPath>
</defs>
<path clip-path="url(#clip170)" d="
M235.283 1410.9 L2352.76 1410.9 L2352.76 47.2441 L235.283 47.2441  Z
  " fill="#ffffff" fill-rule="evenodd" fill-opacity="1"/>
<defs>
  <clipPath id="clip172">
    <rect x="235" y="47" width="2118" height="1365"/>
  </clipPath>
</defs>
<polyline clip-path="url(#clip172)" style="stroke:#000000; stroke-linecap:butt; stroke-linejoin:round; stroke-width:2; stroke-opacity:0.1; fill:none" points="
  471.33,1410.9 471.33,47.2441 
  "/>
<polyline clip-path="url(#clip172)" style="stroke:#000000; stroke-linecap:butt; stroke-linejoin:round; stroke-width:2; stroke-opacity:0.1; fill:none" points="
  1608.3,1410.9 1608.3,47.2441 
  "/>
<polyline clip-path="url(#clip170)" style="stroke:#000000; stroke-linecap:butt; stroke-linejoin:round; stroke-width:4; stroke-opacity:1; fill:none" points="
  235.283,1410.9 2352.76,1410.9 
  "/>
<polyline clip-path="url(#clip170)" style="stroke:#000000; stroke-linecap:butt; stroke-linejoin:round; stroke-width:4; stroke-opacity:1; fill:none" points="
  471.33,1410.9 471.33,1392 
  "/>
<polyline clip-path="url(#clip170)" style="stroke:#000000; stroke-linecap:butt; stroke-linejoin:round; stroke-width:4; stroke-opacity:1; fill:none" points="
  1608.3,1410.9 1608.3,1392 
  "/>
<path clip-path="url(#clip170)" d="M436.313 1485.02 L443.952 1485.02 L443.952 1458.66 L435.642 1460.32 L435.642 1456.06 L443.906 1454.4 L448.582 1454.4 L448.582 1485.02 L456.221 1485.02 L456.221 1488.96 L436.313 1488.96 L436.313 1485.02 Z" fill="#000000" fill-rule="evenodd" fill-opacity="1" /><path clip-path="url(#clip170)" d="M475.665 1457.48 Q472.054 1457.48 470.225 1461.04 Q468.42 1464.58 468.42 1471.71 Q468.42 1478.82 470.225 1482.38 Q472.054 1485.92 475.665 1485.92 Q479.299 1485.92 481.105 1482.38 Q482.933 1478.82 482.933 1471.71 Q482.933 1464.58 481.105 1461.04 Q479.299 1457.48 475.665 1457.48 M475.665 1453.77 Q481.475 1453.77 484.531 1458.38 Q487.609 1462.96 487.609 1471.71 Q487.609 1480.44 484.531 1485.04 Q481.475 1489.63 475.665 1489.63 Q469.855 1489.63 466.776 1485.04 Q463.721 1480.44 463.721 1471.71 Q463.721 1462.96 466.776 1458.38 Q469.855 1453.77 475.665 1453.77 Z" fill="#000000" fill-rule="evenodd" fill-opacity="1" /><path clip-path="url(#clip170)" d="M497.314 1435.97 Q494.38 1435.97 492.894 1438.86 Q491.427 1441.74 491.427 1447.53 Q491.427 1453.31 492.894 1456.2 Q494.38 1459.08 497.314 1459.08 Q500.267 1459.08 501.734 1456.2 Q503.22 1453.31 503.22 1447.53 Q503.22 1441.74 501.734 1438.86 Q500.267 1435.97 497.314 1435.97 M497.314 1432.96 Q502.035 1432.96 504.518 1436.7 Q507.019 1440.43 507.019 1447.53 Q507.019 1454.62 504.518 1458.37 Q502.035 1462.09 497.314 1462.09 Q492.593 1462.09 490.092 1458.37 Q487.609 1454.62 487.609 1447.53 Q487.609 1440.43 490.092 1436.7 Q492.593 1432.96 497.314 1432.96 Z" fill="#000000" fill-rule="evenodd" fill-opacity="1" /><path clip-path="url(#clip170)" d="M1574.63 1485.02 L1582.27 1485.02 L1582.27 1458.66 L1573.96 1460.32 L1573.96 1456.06 L1582.22 1454.4 L1586.9 1454.4 L1586.9 1485.02 L1594.54 1485.02 L1594.54 1488.96 L1574.63 1488.96 L1574.63 1485.02 Z" fill="#000000" fill-rule="evenodd" fill-opacity="1" /><path clip-path="url(#clip170)" d="M1613.98 1457.48 Q1610.37 1457.48 1608.54 1461.04 Q1606.74 1464.58 1606.74 1471.71 Q1606.74 1478.82 1608.54 1482.38 Q1610.37 1485.92 1613.98 1485.92 Q1617.62 1485.92 1619.42 1482.38 Q1621.25 1478.82 1621.25 1471.71 Q1621.25 1464.58 1619.42 1461.04 Q1617.62 1457.48 1613.98 1457.48 M1613.98 1453.77 Q1619.79 1453.77 1622.85 1458.38 Q1625.93 1462.96 1625.93 1471.71 Q1625.93 1480.44 1622.85 1485.04 Q1619.79 1489.63 1613.98 1489.63 Q1608.17 1489.63 1605.09 1485.04 Q1602.04 1480.44 1602.04 1471.71 Q1602.04 1462.96 1605.09 1458.38 Q1608.17 1453.77 1613.98 1453.77 Z" fill="#000000" fill-rule="evenodd" fill-opacity="1" /><path clip-path="url(#clip170)" d="M1626.47 1458.35 L1632.68 1458.35 L1632.68 1436.93 L1625.93 1438.28 L1625.93 1434.82 L1632.64 1433.47 L1636.44 1433.47 L1636.44 1458.35 L1642.65 1458.35 L1642.65 1461.55 L1626.47 1461.55 L1626.47 1458.35 Z" fill="#000000" fill-rule="evenodd" fill-opacity="1" /><path clip-path="url(#clip170)" d="M1284.5 1571.99 L1284.5 1587.74 L1278.61 1587.74 L1278.61 1538.76 Q1278.61 1524.25 1292.17 1524.25 Q1305.99 1524.25 1305.99 1536.5 Q1305.99 1545.22 1300.51 1548.4 Q1309.42 1551.27 1309.42 1559.77 Q1309.42 1574.85 1294.08 1574.85 Q1287.34 1574.85 1284.5 1571.99 M1284.5 1564.35 Q1288.04 1569.86 1294.31 1569.86 Q1303.47 1569.86 1303.47 1559.86 Q1303.47 1550.89 1288.7 1551.59 L1288.7 1546.18 Q1300.26 1546.18 1300.26 1535.99 Q1300.26 1529.02 1292.81 1529.02 Q1284.5 1529.02 1284.5 1538.95 L1284.5 1564.35 Z" fill="#000000" fill-rule="evenodd" fill-opacity="1" /><polyline clip-path="url(#clip172)" style="stroke:#000000; stroke-linecap:butt; stroke-linejoin:round; stroke-width:2; stroke-opacity:0.1; fill:none" points="
  235.283,1384.98 2352.76,1384.98 
  "/>
<polyline clip-path="url(#clip172)" style="stroke:#000000; stroke-linecap:butt; stroke-linejoin:round; stroke-width:2; stroke-opacity:0.1; fill:none" points="
  235.283,1129.58 2352.76,1129.58 
  "/>
<polyline clip-path="url(#clip172)" style="stroke:#000000; stroke-linecap:butt; stroke-linejoin:round; stroke-width:2; stroke-opacity:0.1; fill:none" points="
  235.283,874.177 2352.76,874.177 
  "/>
<polyline clip-path="url(#clip172)" style="stroke:#000000; stroke-linecap:butt; stroke-linejoin:round; stroke-width:2; stroke-opacity:0.1; fill:none" points="
  235.283,618.777 2352.76,618.777 
  "/>
<polyline clip-path="url(#clip172)" style="stroke:#000000; stroke-linecap:butt; stroke-linejoin:round; stroke-width:2; stroke-opacity:0.1; fill:none" points="
  235.283,363.377 2352.76,363.377 
  "/>
<polyline clip-path="url(#clip172)" style="stroke:#000000; stroke-linecap:butt; stroke-linejoin:round; stroke-width:2; stroke-opacity:0.1; fill:none" points="
  235.283,107.977 2352.76,107.977 
  "/>
<polyline clip-path="url(#clip170)" style="stroke:#000000; stroke-linecap:butt; stroke-linejoin:round; stroke-width:4; stroke-opacity:1; fill:none" points="
  235.283,1410.9 235.283,47.2441 
  "/>
<polyline clip-path="url(#clip170)" style="stroke:#000000; stroke-linecap:butt; stroke-linejoin:round; stroke-width:4; stroke-opacity:1; fill:none" points="
  235.283,1384.98 254.18,1384.98 
  "/>
<polyline clip-path="url(#clip170)" style="stroke:#000000; stroke-linecap:butt; stroke-linejoin:round; stroke-width:4; stroke-opacity:1; fill:none" points="
  235.283,1129.58 254.18,1129.58 
  "/>
<polyline clip-path="url(#clip170)" style="stroke:#000000; stroke-linecap:butt; stroke-linejoin:round; stroke-width:4; stroke-opacity:1; fill:none" points="
  235.283,874.177 254.18,874.177 
  "/>
<polyline clip-path="url(#clip170)" style="stroke:#000000; stroke-linecap:butt; stroke-linejoin:round; stroke-width:4; stroke-opacity:1; fill:none" points="
  235.283,618.777 254.18,618.777 
  "/>
<polyline clip-path="url(#clip170)" style="stroke:#000000; stroke-linecap:butt; stroke-linejoin:round; stroke-width:4; stroke-opacity:1; fill:none" points="
  235.283,363.377 254.18,363.377 
  "/>
<polyline clip-path="url(#clip170)" style="stroke:#000000; stroke-linecap:butt; stroke-linejoin:round; stroke-width:4; stroke-opacity:1; fill:none" points="
  235.283,107.977 254.18,107.977 
  "/>
<path clip-path="url(#clip170)" d="M187.338 1370.78 Q183.727 1370.78 181.899 1374.34 Q180.093 1377.88 180.093 1385.01 Q180.093 1392.12 181.899 1395.68 Q183.727 1399.23 187.338 1399.23 Q190.973 1399.23 192.778 1395.68 Q194.607 1392.12 194.607 1385.01 Q194.607 1377.88 192.778 1374.34 Q190.973 1370.78 187.338 1370.78 M187.338 1367.07 Q193.149 1367.07 196.204 1371.68 Q199.283 1376.26 199.283 1385.01 Q199.283 1393.74 196.204 1398.35 Q193.149 1402.93 187.338 1402.93 Q181.528 1402.93 178.45 1398.35 Q175.394 1393.74 175.394 1385.01 Q175.394 1376.26 178.45 1371.68 Q181.528 1367.07 187.338 1367.07 Z" fill="#000000" fill-rule="evenodd" fill-opacity="1" /><path clip-path="url(#clip170)" d="M117.825 1142.92 L125.464 1142.92 L125.464 1116.56 L117.154 1118.22 L117.154 1113.96 L125.418 1112.3 L130.093 1112.3 L130.093 1142.92 L137.732 1142.92 L137.732 1146.86 L117.825 1146.86 L117.825 1142.92 Z" fill="#000000" fill-rule="evenodd" fill-opacity="1" /><path clip-path="url(#clip170)" d="M157.177 1115.38 Q153.566 1115.38 151.737 1118.94 Q149.931 1122.48 149.931 1129.61 Q149.931 1136.72 151.737 1140.28 Q153.566 1143.83 157.177 1143.83 Q160.811 1143.83 162.616 1140.28 Q164.445 1136.72 164.445 1129.61 Q164.445 1122.48 162.616 1118.94 Q160.811 1115.38 157.177 1115.38 M157.177 1111.67 Q162.987 1111.67 166.042 1116.28 Q169.121 1120.86 169.121 1129.61 Q169.121 1138.34 166.042 1142.95 Q162.987 1147.53 157.177 1147.53 Q151.366 1147.53 148.288 1142.95 Q145.232 1138.34 145.232 1129.61 Q145.232 1120.86 148.288 1116.28 Q151.366 1111.67 157.177 1111.67 Z" fill="#000000" fill-rule="evenodd" fill-opacity="1" /><path clip-path="url(#clip170)" d="M187.338 1115.38 Q183.727 1115.38 181.899 1118.94 Q180.093 1122.48 180.093 1129.61 Q180.093 1136.72 181.899 1140.28 Q183.727 1143.83 187.338 1143.83 Q190.973 1143.83 192.778 1140.28 Q194.607 1136.72 194.607 1129.61 Q194.607 1122.48 192.778 1118.94 Q190.973 1115.38 187.338 1115.38 M187.338 1111.67 Q193.149 1111.67 196.204 1116.28 Q199.283 1120.86 199.283 1129.61 Q199.283 1138.34 196.204 1142.95 Q193.149 1147.53 187.338 1147.53 Q181.528 1147.53 178.45 1142.95 Q175.394 1138.34 175.394 1129.61 Q175.394 1120.86 178.45 1116.28 Q181.528 1111.67 187.338 1111.67 Z" fill="#000000" fill-rule="evenodd" fill-opacity="1" /><path clip-path="url(#clip170)" d="M121.043 887.522 L137.362 887.522 L137.362 891.457 L115.418 891.457 L115.418 887.522 Q118.08 884.768 122.663 880.138 Q127.269 875.485 128.45 874.143 Q130.695 871.62 131.575 869.883 Q132.478 868.124 132.478 866.434 Q132.478 863.68 130.533 861.944 Q128.612 860.208 125.51 860.208 Q123.311 860.208 120.857 860.972 Q118.427 861.735 115.649 863.286 L115.649 858.564 Q118.473 857.43 120.927 856.851 Q123.38 856.272 125.418 856.272 Q130.788 856.272 133.982 858.958 Q137.177 861.643 137.177 866.134 Q137.177 868.263 136.367 870.184 Q135.579 872.083 133.473 874.675 Q132.894 875.346 129.792 878.564 Q126.691 881.758 121.043 887.522 Z" fill="#000000" fill-rule="evenodd" fill-opacity="1" /><path clip-path="url(#clip170)" d="M157.177 859.976 Q153.566 859.976 151.737 863.541 Q149.931 867.083 149.931 874.212 Q149.931 881.319 151.737 884.883 Q153.566 888.425 157.177 888.425 Q160.811 888.425 162.616 884.883 Q164.445 881.319 164.445 874.212 Q164.445 867.083 162.616 863.541 Q160.811 859.976 157.177 859.976 M157.177 856.272 Q162.987 856.272 166.042 860.879 Q169.121 865.462 169.121 874.212 Q169.121 882.939 166.042 887.545 Q162.987 892.129 157.177 892.129 Q151.366 892.129 148.288 887.545 Q145.232 882.939 145.232 874.212 Q145.232 865.462 148.288 860.879 Q151.366 856.272 157.177 856.272 Z" fill="#000000" fill-rule="evenodd" fill-opacity="1" /><path clip-path="url(#clip170)" d="M187.338 859.976 Q183.727 859.976 181.899 863.541 Q180.093 867.083 180.093 874.212 Q180.093 881.319 181.899 884.883 Q183.727 888.425 187.338 888.425 Q190.973 888.425 192.778 884.883 Q194.607 881.319 194.607 874.212 Q194.607 867.083 192.778 863.541 Q190.973 859.976 187.338 859.976 M187.338 856.272 Q193.149 856.272 196.204 860.879 Q199.283 865.462 199.283 874.212 Q199.283 882.939 196.204 887.545 Q193.149 892.129 187.338 892.129 Q181.528 892.129 178.45 887.545 Q175.394 882.939 175.394 874.212 Q175.394 865.462 178.45 860.879 Q181.528 856.272 187.338 856.272 Z" fill="#000000" fill-rule="evenodd" fill-opacity="1" /><path clip-path="url(#clip170)" d="M131.181 617.423 Q134.538 618.141 136.413 620.409 Q138.311 622.678 138.311 626.011 Q138.311 631.127 134.792 633.928 Q131.274 636.729 124.793 636.729 Q122.617 636.729 120.302 636.289 Q118.01 635.872 115.556 635.016 L115.556 630.502 Q117.501 631.636 119.816 632.215 Q122.13 632.793 124.654 632.793 Q129.052 632.793 131.343 631.057 Q133.658 629.321 133.658 626.011 Q133.658 622.955 131.505 621.243 Q129.376 619.506 125.556 619.506 L121.529 619.506 L121.529 615.664 L125.742 615.664 Q129.191 615.664 131.019 614.298 Q132.848 612.909 132.848 610.317 Q132.848 607.655 130.95 606.243 Q129.075 604.807 125.556 604.807 Q123.635 604.807 121.436 605.224 Q119.237 605.641 116.598 606.52 L116.598 602.354 Q119.26 601.613 121.575 601.243 Q123.913 600.872 125.973 600.872 Q131.297 600.872 134.399 603.303 Q137.501 605.71 137.501 609.831 Q137.501 612.701 135.857 614.692 Q134.214 616.659 131.181 617.423 Z" fill="#000000" fill-rule="evenodd" fill-opacity="1" /><path clip-path="url(#clip170)" d="M157.177 604.576 Q153.566 604.576 151.737 608.141 Q149.931 611.682 149.931 618.812 Q149.931 625.918 151.737 629.483 Q153.566 633.025 157.177 633.025 Q160.811 633.025 162.616 629.483 Q164.445 625.918 164.445 618.812 Q164.445 611.682 162.616 608.141 Q160.811 604.576 157.177 604.576 M157.177 600.872 Q162.987 600.872 166.042 605.479 Q169.121 610.062 169.121 618.812 Q169.121 627.539 166.042 632.145 Q162.987 636.729 157.177 636.729 Q151.366 636.729 148.288 632.145 Q145.232 627.539 145.232 618.812 Q145.232 610.062 148.288 605.479 Q151.366 600.872 157.177 600.872 Z" fill="#000000" fill-rule="evenodd" fill-opacity="1" /><path clip-path="url(#clip170)" d="M187.338 604.576 Q183.727 604.576 181.899 608.141 Q180.093 611.682 180.093 618.812 Q180.093 625.918 181.899 629.483 Q183.727 633.025 187.338 633.025 Q190.973 633.025 192.778 629.483 Q194.607 625.918 194.607 618.812 Q194.607 611.682 192.778 608.141 Q190.973 604.576 187.338 604.576 M187.338 600.872 Q193.149 600.872 196.204 605.479 Q199.283 610.062 199.283 618.812 Q199.283 627.539 196.204 632.145 Q193.149 636.729 187.338 636.729 Q181.528 636.729 178.45 632.145 Q175.394 627.539 175.394 618.812 Q175.394 610.062 178.45 605.479 Q181.528 600.872 187.338 600.872 Z" fill="#000000" fill-rule="evenodd" fill-opacity="1" /><path clip-path="url(#clip170)" d="M129.862 350.171 L118.056 368.62 L129.862 368.62 L129.862 350.171 M128.635 346.097 L134.515 346.097 L134.515 368.62 L139.445 368.62 L139.445 372.509 L134.515 372.509 L134.515 380.657 L129.862 380.657 L129.862 372.509 L114.26 372.509 L114.26 367.995 L128.635 346.097 Z" fill="#000000" fill-rule="evenodd" fill-opacity="1" /><path clip-path="url(#clip170)" d="M157.177 349.176 Q153.566 349.176 151.737 352.741 Q149.931 356.282 149.931 363.412 Q149.931 370.518 151.737 374.083 Q153.566 377.625 157.177 377.625 Q160.811 377.625 162.616 374.083 Q164.445 370.518 164.445 363.412 Q164.445 356.282 162.616 352.741 Q160.811 349.176 157.177 349.176 M157.177 345.472 Q162.987 345.472 166.042 350.079 Q169.121 354.662 169.121 363.412 Q169.121 372.139 166.042 376.745 Q162.987 381.328 157.177 381.328 Q151.366 381.328 148.288 376.745 Q145.232 372.139 145.232 363.412 Q145.232 354.662 148.288 350.079 Q151.366 345.472 157.177 345.472 Z" fill="#000000" fill-rule="evenodd" fill-opacity="1" /><path clip-path="url(#clip170)" d="M187.338 349.176 Q183.727 349.176 181.899 352.741 Q180.093 356.282 180.093 363.412 Q180.093 370.518 181.899 374.083 Q183.727 377.625 187.338 377.625 Q190.973 377.625 192.778 374.083 Q194.607 370.518 194.607 363.412 Q194.607 356.282 192.778 352.741 Q190.973 349.176 187.338 349.176 M187.338 345.472 Q193.149 345.472 196.204 350.079 Q199.283 354.662 199.283 363.412 Q199.283 372.139 196.204 376.745 Q193.149 381.328 187.338 381.328 Q181.528 381.328 178.45 376.745 Q175.394 372.139 175.394 363.412 Q175.394 354.662 178.45 350.079 Q181.528 345.472 187.338 345.472 Z" fill="#000000" fill-rule="evenodd" fill-opacity="1" /><path clip-path="url(#clip170)" d="M117.061 90.6969 L135.417 90.6969 L135.417 94.6321 L121.343 94.6321 L121.343 103.104 Q122.362 102.757 123.38 102.595 Q124.399 102.41 125.418 102.41 Q131.205 102.41 134.584 105.581 Q137.964 108.752 137.964 114.169 Q137.964 119.748 134.492 122.85 Q131.019 125.928 124.7 125.928 Q122.524 125.928 120.255 125.558 Q118.01 125.187 115.603 124.447 L115.603 119.748 Q117.686 120.882 119.908 121.437 Q122.13 121.993 124.607 121.993 Q128.612 121.993 130.95 119.887 Q133.288 117.78 133.288 114.169 Q133.288 110.558 130.95 108.451 Q128.612 106.345 124.607 106.345 Q122.732 106.345 120.857 106.762 Q119.006 107.178 117.061 108.058 L117.061 90.6969 Z" fill="#000000" fill-rule="evenodd" fill-opacity="1" /><path clip-path="url(#clip170)" d="M157.177 93.7756 Q153.566 93.7756 151.737 97.3404 Q149.931 100.882 149.931 108.012 Q149.931 115.118 151.737 118.683 Q153.566 122.225 157.177 122.225 Q160.811 122.225 162.616 118.683 Q164.445 115.118 164.445 108.012 Q164.445 100.882 162.616 97.3404 Q160.811 93.7756 157.177 93.7756 M157.177 90.0719 Q162.987 90.0719 166.042 94.6784 Q169.121 99.2617 169.121 108.012 Q169.121 116.738 166.042 121.345 Q162.987 125.928 157.177 125.928 Q151.366 125.928 148.288 121.345 Q145.232 116.738 145.232 108.012 Q145.232 99.2617 148.288 94.6784 Q151.366 90.0719 157.177 90.0719 Z" fill="#000000" fill-rule="evenodd" fill-opacity="1" /><path clip-path="url(#clip170)" d="M187.338 93.7756 Q183.727 93.7756 181.899 97.3404 Q180.093 100.882 180.093 108.012 Q180.093 115.118 181.899 118.683 Q183.727 122.225 187.338 122.225 Q190.973 122.225 192.778 118.683 Q194.607 115.118 194.607 108.012 Q194.607 100.882 192.778 97.3404 Q190.973 93.7756 187.338 93.7756 M187.338 90.0719 Q193.149 90.0719 196.204 94.6784 Q199.283 99.2617 199.283 108.012 Q199.283 116.738 196.204 121.345 Q193.149 125.928 187.338 125.928 Q181.528 125.928 178.45 121.345 Q175.394 116.738 175.394 108.012 Q175.394 99.2617 178.45 94.6784 Q181.528 90.0719 187.338 90.0719 Z" fill="#000000" fill-rule="evenodd" fill-opacity="1" /><path clip-path="url(#clip170)" d="M35.1993 829.203 Q31.2526 827.007 29.3747 823.951 Q27.4968 820.896 27.4968 816.758 Q27.4968 811.188 31.4117 808.164 Q35.2948 805.141 42.4881 805.141 L64.0042 805.141 L64.0042 811.029 L42.679 811.029 Q37.5546 811.029 35.072 812.843 Q32.5894 814.657 32.5894 818.381 Q32.5894 822.933 35.6131 825.574 Q38.6368 828.216 43.8567 828.216 L64.0042 828.216 L64.0042 834.105 L42.679 834.105 Q37.5228 834.105 35.072 835.919 Q32.5894 837.733 32.5894 841.521 Q32.5894 846.008 35.6449 848.65 Q38.6686 851.292 43.8567 851.292 L64.0042 851.292 L64.0042 857.18 L28.3562 857.18 L28.3562 851.292 L33.8944 851.292 Q30.616 849.287 29.0564 846.486 Q27.4968 843.685 27.4968 839.834 Q27.4968 835.951 29.4702 833.245 Q31.4436 830.508 35.1993 829.203 Z" fill="#000000" fill-rule="evenodd" fill-opacity="1" /><path clip-path="url(#clip170)" d="M28.3562 793.459 L28.3562 787.603 L64.0042 787.603 L64.0042 793.459 L28.3562 793.459 M14.479 793.459 L14.479 787.603 L21.895 787.603 L21.895 793.459 L14.479 793.459 Z" fill="#000000" fill-rule="evenodd" fill-opacity="1" /><path clip-path="url(#clip170)" d="M42.4881 745.717 L64.0042 745.717 L64.0042 751.573 L42.679 751.573 Q37.6183 751.573 35.1038 753.547 Q32.5894 755.52 32.5894 759.467 Q32.5894 764.209 35.6131 766.946 Q38.6368 769.684 43.8567 769.684 L64.0042 769.684 L64.0042 775.572 L28.3562 775.572 L28.3562 769.684 L33.8944 769.684 Q30.6797 767.583 29.0883 764.75 Q27.4968 761.886 27.4968 758.162 Q27.4968 752.019 31.3163 748.868 Q35.1038 745.717 42.4881 745.717 Z" fill="#000000" fill-rule="evenodd" fill-opacity="1" /><path clip-path="url(#clip170)" d="M74.8259 706.95 L79.3773 706.95 L79.3773 740.815 L74.8259 740.815 L74.8259 706.95 Z" fill="#000000" fill-rule="evenodd" fill-opacity="1" /><path clip-path="url(#clip170)" d="M33.7671 677.986 L14.479 677.986 L14.479 672.129 L64.0042 672.129 L64.0042 677.986 L58.657 677.986 Q61.8398 679.832 63.3994 682.664 Q64.9272 685.465 64.9272 689.412 Q64.9272 695.873 59.771 699.947 Q54.6147 703.989 46.212 703.989 Q37.8093 703.989 32.6531 699.947 Q27.4968 695.873 27.4968 689.412 Q27.4968 685.465 29.0564 682.664 Q30.5842 679.832 33.7671 677.986 M46.212 697.942 Q52.6732 697.942 56.3653 695.3 Q60.0256 692.627 60.0256 687.98 Q60.0256 683.333 56.3653 680.659 Q52.6732 677.986 46.212 677.986 Q39.7508 677.986 36.0905 680.659 Q32.3984 683.333 32.3984 687.98 Q32.3984 692.627 36.0905 695.3 Q39.7508 697.942 46.212 697.942 Z" fill="#000000" fill-rule="evenodd" fill-opacity="1" /><path clip-path="url(#clip170)" d="M28.3562 660.066 L28.3562 654.21 L64.0042 654.21 L64.0042 660.066 L28.3562 660.066 M14.479 660.066 L14.479 654.21 L21.895 654.21 L21.895 660.066 L14.479 660.066 Z" fill="#000000" fill-rule="evenodd" fill-opacity="1" /><path clip-path="url(#clip170)" d="M14.479 623.909 L19.3487 623.909 L19.3487 629.511 Q19.3487 632.662 20.6219 633.903 Q21.895 635.113 25.2052 635.113 L28.3562 635.113 L28.3562 625.468 L32.9077 625.468 L32.9077 635.113 L64.0042 635.113 L64.0042 641.001 L32.9077 641.001 L32.9077 646.603 L28.3562 646.603 L28.3562 641.001 L25.8736 641.001 Q19.9216 641.001 17.2162 638.232 Q14.479 635.463 14.479 629.447 L14.479 623.909 Z" fill="#000000" fill-rule="evenodd" fill-opacity="1" /><path clip-path="url(#clip170)" d="M14.479 600.961 L19.3487 600.961 L19.3487 606.562 Q19.3487 609.713 20.6219 610.955 Q21.895 612.164 25.2052 612.164 L28.3562 612.164 L28.3562 602.52 L32.9077 602.52 L32.9077 612.164 L64.0042 612.164 L64.0042 618.052 L32.9077 618.052 L32.9077 623.654 L28.3562 623.654 L28.3562 618.052 L25.8736 618.052 Q19.9216 618.052 17.2162 615.283 Q14.479 612.514 14.479 606.499 L14.479 600.961 Z" fill="#000000" fill-rule="evenodd" fill-opacity="1" /><polyline clip-path="url(#clip172)" style="stroke:#009af9; stroke-linecap:butt; stroke-linejoin:round; stroke-width:20; stroke-opacity:1; fill:none" stroke-dasharray="80, 50" points="
  295.211,85.838 361.147,221.696 419.306,346.112 471.33,460.15 518.393,568.056 561.357,670.662 600.881,762.447 637.474,867.005 671.541,916.923 703.409,998.497 
  733.344,1038.86 761.568,1102.01 788.265,1134.37 813.593,1182.99 837.685,1225.44 860.655,1248.01 903.62,1301.91 943.143,1331.73 961.779,1346.19 979.737,1356.8 
  1013.8,1364.47 1045.67,1370.47 1060.87,1371.35 1075.61,1372.25 1089.92,1368.44 1103.83,1372.3 1130.53,1370.1 1143.35,1367.22 1155.86,1364.31 1179.95,1356.89 
  1202.92,1357.74 1214.01,1360.39 1245.88,1362.6 1256.06,1353.03 1266.04,1359.86 1275.82,1363.17 1285.41,1362.34 1304.04,1362.75 1313.1,1360.45 1322,1361.42 
  1330.74,1362 1356.07,1360.37 1380.16,1351.67 1387.93,1357.07 1395.59,1355.08 1403.13,1352.36 1417.87,1352.94 1432.18,1349.91 1446.09,1347.85 1466.25,1343.43 
  1472.79,1342.05 1479.25,1338.53 1485.62,1338.49 1498.12,1336.05 1504.25,1329.72 1522.21,1329.66 1528.05,1328.07 1545.18,1322.24 1556.28,1320.16 1561.73,1318.49 
  1582.97,1311.12 1588.15,1310.5 1598.33,1307.48 1603.34,1305.58 1608.3,1303.43 1618.08,1300.28 1627.67,1298.29 1632.39,1296.25 1646.3,1292.4 1655.36,1289.46 
  1664.26,1285.96 1673,1280.3 1685.83,1279.11 1694.2,1273.91 1698.33,1275.57 1702.43,1274.26 1722.42,1267.57 1730.2,1264.2 1737.85,1262.89 1745.39,1260.11 
  1749.12,1256.75 1756.49,1256.9 1760.13,1255.13 1774.45,1251.08 1784.91,1247.04 1788.36,1246.91 1808.51,1240.11 1815.05,1238.61 1818.29,1237.58 1821.51,1234.98 
  1827.88,1231.7 1840.38,1231.11 1846.51,1228.86 1855.58,1223.87 1864.47,1219.53 1867.4,1217.05 1870.32,1220.49 1873.21,1220.71 1887.44,1213.63 1898.54,1213.09 
  1904,1204.86 1917.38,1204.17 1925.24,1203.55 1930.41,1198.17 1938.06,1193.76 1940.59,1191 1945.6,1195.43 1950.56,1195.96 1960.34,1188.77 1969.93,1183.62 
  1972.3,1187.33 1974.66,1179.99 1988.57,1180.11 1997.63,1179.81 1999.87,1174.33 2006.52,1169.97 2008.72,1167.08 2015.26,1172.12 2028.09,1165.79 2036.46,1160.82 
  2040.59,1164.72 2054.79,1157.94 2064.68,1152.44 2070.53,1148.21 2072.46,1145.27 2080.12,1150.68 2091.38,1144.73 2098.75,1139.99 2102.39,1136.45 2116.71,1137.63 
  2125.45,1132.45 2130.62,1128.4 2132.33,1125.46 2150.78,1125.51 2157.32,1121.03 2160.55,1117.59 2182.64,1114.25 2187.25,1110.39 2188.78,1107.5 2212.58,1103.78 
  2215.47,1100.48 2240.8,1094.03 2242.17,1092.23 2267.5,1086.58 2292.83,1080.85 
  "/>
<path clip-path="url(#clip170)" d="
M1994.47 196.379 L2282.17 196.379 L2282.17 92.6992 L1994.47 92.6992  Z
  " fill="#ffffff" fill-rule="evenodd" fill-opacity="1"/>
<polyline clip-path="url(#clip170)" style="stroke:#000000; stroke-linecap:butt; stroke-linejoin:round; stroke-width:4; stroke-opacity:1; fill:none" points="
  1994.47,196.379 2282.17,196.379 2282.17,92.6992 1994.47,92.6992 1994.47,196.379 
  "/>
<polyline clip-path="url(#clip170)" style="stroke:#009af9; stroke-linecap:butt; stroke-linejoin:round; stroke-width:4; stroke-opacity:1; fill:none" stroke-dasharray="16, 10" points="
  2018,144.539 2159.16,144.539 
  "/>
<path clip-path="url(#clip170)" d="M2196.53 164.227 Q2194.73 168.856 2193.01 170.268 Q2191.3 171.68 2188.43 171.68 L2185.03 171.68 L2185.03 168.115 L2187.53 168.115 Q2189.29 168.115 2190.26 167.282 Q2191.23 166.449 2192.41 163.347 L2193.17 161.403 L2182.69 135.893 L2187.2 135.893 L2195.3 156.171 L2203.41 135.893 L2207.92 135.893 L2196.53 164.227 Z" fill="#000000" fill-rule="evenodd" fill-opacity="1" /><path clip-path="url(#clip170)" d="M2215.21 157.884 L2222.85 157.884 L2222.85 131.518 L2214.54 133.185 L2214.54 128.926 L2222.8 127.259 L2227.48 127.259 L2227.48 157.884 L2235.12 157.884 L2235.12 161.819 L2215.21 161.819 L2215.21 157.884 Z" fill="#000000" fill-rule="evenodd" fill-opacity="1" /></svg>
