<?xml version="1.0" encoding="utf-8"?>
<svg xmlns="http://www.w3.org/2000/svg" xmlns:xlink="http://www.w3.org/1999/xlink" width="600" height="400" viewBox="0 0 2400 1600">
<defs>
  <clipPath id="clip600">
    <rect x="0" y="0" width="2400" height="1600"/>
  </clipPath>
</defs>
<path clip-path="url(#clip600)" d="
M0 1600 L2400 1600 L2400 0 L0 0  Z
  " fill="#ffffff" fill-rule="evenodd" fill-opacity="1"/>
<defs>
  <clipPath id="clip601">
    <rect x="480" y="0" width="1681" height="1600"/>
  </clipPath>
</defs>
<path clip-path="url(#clip600)" d="
M249.218 1410.9 L2352.76 1410.9 L2352.76 47.2441 L249.218 47.2441  Z
  " fill="#ffffff" fill-rule="evenodd" fill-opacity="1"/>
<defs>
  <clipPath id="clip602">
    <rect x="249" y="47" width="2105" height="1365"/>
  </clipPath>
</defs>
<polyline clip-path="url(#clip602)" style="stroke:#000000; stroke-linecap:butt; stroke-linejoin:round; stroke-width:2; stroke-opacity:0.1; fill:none" points="
  904.093,1410.9 904.093,47.2441 
  "/>
<polyline clip-path="url(#clip602)" style="stroke:#000000; stroke-linecap:butt; stroke-linejoin:round; stroke-width:2; stroke-opacity:0.1; fill:none" points="
  1697.88,1410.9 1697.88,47.2441 
  "/>
<polyline clip-path="url(#clip600)" style="stroke:#000000; stroke-linecap:butt; stroke-linejoin:round; stroke-width:4; stroke-opacity:1; fill:none" points="
  249.218,1410.9 2352.76,1410.9 
  "/>
<polyline clip-path="url(#clip600)" style="stroke:#000000; stroke-linecap:butt; stroke-linejoin:round; stroke-width:4; stroke-opacity:1; fill:none" points="
  904.093,1410.9 904.093,1392 
  "/>
<polyline clip-path="url(#clip600)" style="stroke:#000000; stroke-linecap:butt; stroke-linejoin:round; stroke-width:4; stroke-opacity:1; fill:none" points="
  1697.88,1410.9 1697.88,1392 
  "/>
<path clip-path="url(#clip600)" d="M835.598 1485.02 L843.237 1485.02 L843.237 1458.66 L834.927 1460.32 L834.927 1456.06 L843.191 1454.4 L847.866 1454.4 L847.866 1485.02 L855.505 1485.02 L855.505 1488.96 L835.598 1488.96 L835.598 1485.02 Z" fill="#000000" fill-rule="evenodd" fill-opacity="1" /><path clip-path="url(#clip600)" d="M874.95 1457.48 Q871.339 1457.48 869.51 1461.04 Q867.704 1464.58 867.704 1471.71 Q867.704 1478.82 869.51 1482.38 Q871.339 1485.92 874.95 1485.92 Q878.584 1485.92 880.389 1482.38 Q882.218 1478.82 882.218 1471.71 Q882.218 1464.58 880.389 1461.04 Q878.584 1457.48 874.95 1457.48 M874.95 1453.77 Q880.76 1453.77 883.815 1458.38 Q886.894 1462.96 886.894 1471.71 Q886.894 1480.44 883.815 1485.04 Q880.76 1489.63 874.95 1489.63 Q869.139 1489.63 866.061 1485.04 Q863.005 1480.44 863.005 1471.71 Q863.005 1462.96 866.061 1458.38 Q869.139 1453.77 874.95 1453.77 Z" fill="#000000" fill-rule="evenodd" fill-opacity="1" /><path clip-path="url(#clip600)" d="M886.894 1447.87 L911.006 1447.87 L911.006 1451.07 L886.894 1451.07 L886.894 1447.87 Z" fill="#000000" fill-rule="evenodd" fill-opacity="1" /><path clip-path="url(#clip600)" d="M929.644 1436.78 L920.052 1451.77 L929.644 1451.77 L929.644 1436.78 M928.647 1433.47 L933.424 1433.47 L933.424 1451.77 L937.43 1451.77 L937.43 1454.93 L933.424 1454.93 L933.424 1461.55 L929.644 1461.55 L929.644 1454.93 L916.968 1454.93 L916.968 1451.26 L928.647 1433.47 Z" fill="#000000" fill-rule="evenodd" fill-opacity="1" /><path clip-path="url(#clip600)" d="M943.712 1456.77 L947.681 1456.77 L947.681 1461.55 L943.712 1461.55 L943.712 1456.77 Z" fill="#000000" fill-rule="evenodd" fill-opacity="1" /><path clip-path="url(#clip600)" d="M967.466 1446.41 Q970.194 1446.99 971.717 1448.83 Q973.259 1450.68 973.259 1453.38 Q973.259 1457.54 970.4 1459.82 Q967.542 1462.09 962.276 1462.09 Q960.508 1462.09 958.627 1461.73 Q956.765 1461.4 954.771 1460.7 L954.771 1457.03 Q956.351 1457.95 958.232 1458.42 Q960.113 1458.89 962.163 1458.89 Q965.736 1458.89 967.598 1457.48 Q969.479 1456.07 969.479 1453.38 Q969.479 1450.9 967.73 1449.51 Q965.999 1448.1 962.896 1448.1 L959.624 1448.1 L959.624 1444.98 L963.047 1444.98 Q965.849 1444.98 967.335 1443.87 Q968.821 1442.74 968.821 1440.63 Q968.821 1438.47 967.278 1437.32 Q965.755 1436.16 962.896 1436.16 Q961.335 1436.16 959.548 1436.49 Q957.762 1436.83 955.618 1437.55 L955.618 1434.16 Q957.78 1433.56 959.661 1433.26 Q961.561 1432.96 963.235 1432.96 Q967.561 1432.96 970.081 1434.93 Q972.601 1436.89 972.601 1440.24 Q972.601 1442.57 971.266 1444.19 Q969.93 1445.79 967.466 1446.41 Z" fill="#000000" fill-rule="evenodd" fill-opacity="1" /><path clip-path="url(#clip600)" d="M1629.77 1485.02 L1637.41 1485.02 L1637.41 1458.66 L1629.1 1460.32 L1629.1 1456.06 L1637.36 1454.4 L1642.04 1454.4 L1642.04 1485.02 L1649.68 1485.02 L1649.68 1488.96 L1629.77 1488.96 L1629.77 1485.02 Z" fill="#000000" fill-rule="evenodd" fill-opacity="1" /><path clip-path="url(#clip600)" d="M1669.12 1457.48 Q1665.51 1457.48 1663.68 1461.04 Q1661.88 1464.58 1661.88 1471.71 Q1661.88 1478.82 1663.68 1482.38 Q1665.51 1485.92 1669.12 1485.92 Q1672.76 1485.92 1674.56 1482.38 Q1676.39 1478.82 1676.39 1471.71 Q1676.39 1464.58 1674.56 1461.04 Q1672.76 1457.48 1669.12 1457.48 M1669.12 1453.77 Q1674.93 1453.77 1677.99 1458.38 Q1681.07 1462.96 1681.07 1471.71 Q1681.07 1480.44 1677.99 1485.04 Q1674.93 1489.63 1669.12 1489.63 Q1663.31 1489.63 1660.23 1485.04 Q1657.18 1480.44 1657.18 1471.71 Q1657.18 1462.96 1660.23 1458.38 Q1663.31 1453.77 1669.12 1453.77 Z" fill="#000000" fill-rule="evenodd" fill-opacity="1" /><path clip-path="url(#clip600)" d="M1681.07 1447.87 L1705.18 1447.87 L1705.18 1451.07 L1681.07 1451.07 L1681.07 1447.87 Z" fill="#000000" fill-rule="evenodd" fill-opacity="1" /><path clip-path="url(#clip600)" d="M1723.82 1436.78 L1714.23 1451.77 L1723.82 1451.77 L1723.82 1436.78 M1722.82 1433.47 L1727.6 1433.47 L1727.6 1451.77 L1731.6 1451.77 L1731.6 1454.93 L1727.6 1454.93 L1727.6 1461.55 L1723.82 1461.55 L1723.82 1454.93 L1711.14 1454.93 L1711.14 1451.26 L1722.82 1433.47 Z" fill="#000000" fill-rule="evenodd" fill-opacity="1" /><path clip-path="url(#clip600)" d="M1737.89 1456.77 L1741.85 1456.77 L1741.85 1461.55 L1737.89 1461.55 L1737.89 1456.77 Z" fill="#000000" fill-rule="evenodd" fill-opacity="1" /><path clip-path="url(#clip600)" d="M1753.4 1458.35 L1766.66 1458.35 L1766.66 1461.55 L1748.83 1461.55 L1748.83 1458.35 Q1750.99 1456.11 1754.72 1452.35 Q1758.46 1448.57 1759.42 1447.48 Q1761.24 1445.43 1761.96 1444.02 Q1762.69 1442.59 1762.69 1441.22 Q1762.69 1438.98 1761.11 1437.57 Q1759.55 1436.16 1757.03 1436.16 Q1755.25 1436.16 1753.25 1436.78 Q1751.28 1437.4 1749.02 1438.66 L1749.02 1434.82 Q1751.31 1433.9 1753.31 1433.43 Q1755.3 1432.96 1756.96 1432.96 Q1761.32 1432.96 1763.92 1435.14 Q1766.51 1437.32 1766.51 1440.97 Q1766.51 1442.7 1765.85 1444.26 Q1765.21 1445.8 1763.5 1447.91 Q1763.03 1448.46 1760.51 1451.07 Q1757.99 1453.67 1753.4 1458.35 Z" fill="#000000" fill-rule="evenodd" fill-opacity="1" /><path clip-path="url(#clip600)" d="M1225.27 1524.66 L1231.16 1524.66 L1231.16 1553.91 L1248.63 1538.54 L1256.11 1538.54 L1237.2 1555.22 L1256.9 1574.19 L1249.27 1574.19 L1231.16 1556.78 L1231.16 1574.19 L1225.27 1574.19 L1225.27 1524.66 Z" fill="#000000" fill-rule="evenodd" fill-opacity="1" /><path clip-path="url(#clip600)" d="M1290.32 1585.01 L1290.32 1589.56 L1256.46 1589.56 L1256.46 1585.01 L1290.32 1585.01 Z" fill="#000000" fill-rule="evenodd" fill-opacity="1" /><path clip-path="url(#clip600)" d="M1309.64 1542.64 Q1304.93 1542.64 1302.2 1546.34 Q1299.46 1550 1299.46 1556.39 Q1299.46 1562.79 1302.16 1566.48 Q1304.9 1570.14 1309.64 1570.14 Q1314.32 1570.14 1317.06 1566.45 Q1319.8 1562.76 1319.8 1556.39 Q1319.8 1550.06 1317.06 1546.37 Q1314.32 1542.64 1309.64 1542.64 M1309.64 1537.68 Q1317.28 1537.68 1321.64 1542.64 Q1326 1547.61 1326 1556.39 Q1326 1565.15 1321.64 1570.14 Q1317.28 1575.11 1309.64 1575.11 Q1301.97 1575.11 1297.61 1570.14 Q1293.28 1565.15 1293.28 1556.39 Q1293.28 1547.61 1297.61 1542.64 Q1301.97 1537.68 1309.64 1537.68 Z" fill="#000000" fill-rule="evenodd" fill-opacity="1" /><path clip-path="url(#clip600)" d="M1353.76 1524.66 L1353.76 1529.53 L1348.16 1529.53 Q1345.01 1529.53 1343.76 1530.8 Q1342.55 1532.08 1342.55 1535.39 L1342.55 1538.54 L1352.2 1538.54 L1352.2 1543.09 L1342.55 1543.09 L1342.55 1574.19 L1336.67 1574.19 L1336.67 1543.09 L1331.06 1543.09 L1331.06 1538.54 L1336.67 1538.54 L1336.67 1536.05 Q1336.67 1530.1 1339.44 1527.4 Q1342.2 1524.66 1348.22 1524.66 L1353.76 1524.66 Z" fill="#000000" fill-rule="evenodd" fill-opacity="1" /><path clip-path="url(#clip600)" d="M1376.71 1524.66 L1376.71 1529.53 L1371.11 1529.53 Q1367.95 1529.53 1366.71 1530.8 Q1365.5 1532.08 1365.5 1535.39 L1365.5 1538.54 L1375.15 1538.54 L1375.15 1543.09 L1365.5 1543.09 L1365.5 1574.19 L1359.62 1574.19 L1359.62 1543.09 L1354.01 1543.09 L1354.01 1538.54 L1359.62 1538.54 L1359.62 1536.05 Q1359.62 1530.1 1362.38 1527.4 Q1365.15 1524.66 1371.17 1524.66 L1376.71 1524.66 Z" fill="#000000" fill-rule="evenodd" fill-opacity="1" /><polyline clip-path="url(#clip602)" style="stroke:#000000; stroke-linecap:butt; stroke-linejoin:round; stroke-width:2; stroke-opacity:0.1; fill:none" points="
  249.218,1251.35 2352.76,1251.35 
  "/>
<polyline clip-path="url(#clip602)" style="stroke:#000000; stroke-linecap:butt; stroke-linejoin:round; stroke-width:2; stroke-opacity:0.1; fill:none" points="
  249.218,1010.16 2352.76,1010.16 
  "/>
<polyline clip-path="url(#clip602)" style="stroke:#000000; stroke-linecap:butt; stroke-linejoin:round; stroke-width:2; stroke-opacity:0.1; fill:none" points="
  249.218,768.98 2352.76,768.98 
  "/>
<polyline clip-path="url(#clip602)" style="stroke:#000000; stroke-linecap:butt; stroke-linejoin:round; stroke-width:2; stroke-opacity:0.1; fill:none" points="
  249.218,527.796 2352.76,527.796 
  "/>
<polyline clip-path="url(#clip602)" style="stroke:#000000; stroke-linecap:butt; stroke-linejoin:round; stroke-width:2; stroke-opacity:0.1; fill:none" points="
  249.218,286.612 2352.76,286.612 
  "/>
<polyline clip-path="url(#clip600)" style="stroke:#000000; stroke-linecap:butt; stroke-linejoin:round; stroke-width:4; stroke-opacity:1; fill:none" points="
  249.218,1410.9 249.218,47.2441 
  "/>
<polyline clip-path="url(#clip600)" style="stroke:#000000; stroke-linecap:butt; stroke-linejoin:round; stroke-width:4; stroke-opacity:1; fill:none" points="
  249.218,1251.35 268.116,1251.35 
  "/>
<polyline clip-path="url(#clip600)" style="stroke:#000000; stroke-linecap:butt; stroke-linejoin:round; stroke-width:4; stroke-opacity:1; fill:none" points="
  249.218,1010.16 268.116,1010.16 
  "/>
<polyline clip-path="url(#clip600)" style="stroke:#000000; stroke-linecap:butt; stroke-linejoin:round; stroke-width:4; stroke-opacity:1; fill:none" points="
  249.218,768.98 268.116,768.98 
  "/>
<polyline clip-path="url(#clip600)" style="stroke:#000000; stroke-linecap:butt; stroke-linejoin:round; stroke-width:4; stroke-opacity:1; fill:none" points="
  249.218,527.796 268.116,527.796 
  "/>
<polyline clip-path="url(#clip600)" style="stroke:#000000; stroke-linecap:butt; stroke-linejoin:round; stroke-width:4; stroke-opacity:1; fill:none" points="
  249.218,286.612 268.116,286.612 
  "/>
<path clip-path="url(#clip600)" d="M130.95 1249.99 Q134.306 1250.71 136.181 1252.98 Q138.079 1255.25 138.079 1258.58 Q138.079 1263.7 134.561 1266.5 Q131.042 1269.3 124.561 1269.3 Q122.385 1269.3 120.07 1268.86 Q117.779 1268.44 115.325 1267.59 L115.325 1263.07 Q117.269 1264.21 119.584 1264.79 Q121.899 1265.36 124.422 1265.36 Q128.82 1265.36 131.112 1263.63 Q133.427 1261.89 133.427 1258.58 Q133.427 1255.53 131.274 1253.81 Q129.144 1252.08 125.325 1252.08 L121.297 1252.08 L121.297 1248.24 L125.51 1248.24 Q128.959 1248.24 130.788 1246.87 Q132.617 1245.48 132.617 1242.89 Q132.617 1240.23 130.718 1238.81 Q128.843 1237.38 125.325 1237.38 Q123.404 1237.38 121.205 1237.8 Q119.006 1238.21 116.367 1239.09 L116.367 1234.93 Q119.029 1234.18 121.343 1233.81 Q123.681 1233.44 125.742 1233.44 Q131.066 1233.44 134.167 1235.87 Q137.269 1238.28 137.269 1242.4 Q137.269 1245.27 135.626 1247.26 Q133.982 1249.23 130.95 1249.99 Z" fill="#000000" fill-rule="evenodd" fill-opacity="1" /><path clip-path="url(#clip600)" d="M146.945 1262.75 L151.829 1262.75 L151.829 1268.63 L146.945 1268.63 L146.945 1262.75 Z" fill="#000000" fill-rule="evenodd" fill-opacity="1" /><path clip-path="url(#clip600)" d="M162.061 1234.07 L180.417 1234.07 L180.417 1238 L166.343 1238 L166.343 1246.48 Q167.362 1246.13 168.38 1245.97 Q169.399 1245.78 170.417 1245.78 Q176.204 1245.78 179.584 1248.95 Q182.963 1252.12 182.963 1257.54 Q182.963 1263.12 179.491 1266.22 Q176.019 1269.3 169.7 1269.3 Q167.524 1269.3 165.255 1268.93 Q163.01 1268.56 160.603 1267.82 L160.603 1263.12 Q162.686 1264.25 164.908 1264.81 Q167.13 1265.36 169.607 1265.36 Q173.612 1265.36 175.95 1263.26 Q178.288 1261.15 178.288 1257.54 Q178.288 1253.93 175.95 1251.82 Q173.612 1249.72 169.607 1249.72 Q167.732 1249.72 165.857 1250.13 Q164.005 1250.55 162.061 1251.43 L162.061 1234.07 Z" fill="#000000" fill-rule="evenodd" fill-opacity="1" /><path clip-path="url(#clip600)" d="M190.996 1234.07 L213.218 1234.07 L213.218 1236.06 L200.672 1268.63 L195.787 1268.63 L207.593 1238 L190.996 1238 L190.996 1234.07 Z" fill="#000000" fill-rule="evenodd" fill-opacity="1" /><path clip-path="url(#clip600)" d="M130.047 1008.81 Q133.404 1009.53 135.279 1011.8 Q137.177 1014.06 137.177 1017.4 Q137.177 1022.51 133.658 1025.31 Q130.14 1028.12 123.658 1028.12 Q121.482 1028.12 119.168 1027.68 Q116.876 1027.26 114.422 1026.4 L114.422 1021.89 Q116.367 1023.02 118.681 1023.6 Q120.996 1024.18 123.519 1024.18 Q127.917 1024.18 130.209 1022.44 Q132.524 1020.71 132.524 1017.4 Q132.524 1014.34 130.371 1012.63 Q128.242 1010.89 124.422 1010.89 L120.394 1010.89 L120.394 1007.05 L124.607 1007.05 Q128.056 1007.05 129.885 1005.69 Q131.714 1004.3 131.714 1001.7 Q131.714 999.042 129.816 997.63 Q127.941 996.195 124.422 996.195 Q122.501 996.195 120.302 996.611 Q118.103 997.028 115.464 997.908 L115.464 993.741 Q118.126 993 120.441 992.63 Q122.779 992.259 124.839 992.259 Q130.163 992.259 133.265 994.69 Q136.367 997.097 136.367 1001.22 Q136.367 1004.09 134.723 1006.08 Q133.08 1008.05 130.047 1008.81 Z" fill="#000000" fill-rule="evenodd" fill-opacity="1" /><path clip-path="url(#clip600)" d="M146.042 1021.56 L150.927 1021.56 L150.927 1027.44 L146.042 1027.44 L146.042 1021.56 Z" fill="#000000" fill-rule="evenodd" fill-opacity="1" /><path clip-path="url(#clip600)" d="M171.69 1008.3 Q168.542 1008.3 166.69 1010.45 Q164.862 1012.61 164.862 1016.36 Q164.862 1020.08 166.69 1022.26 Q168.542 1024.41 171.69 1024.41 Q174.839 1024.41 176.667 1022.26 Q178.519 1020.08 178.519 1016.36 Q178.519 1012.61 176.667 1010.45 Q174.839 1008.3 171.69 1008.3 M180.973 993.648 L180.973 997.908 Q179.214 997.074 177.408 996.634 Q175.626 996.195 173.866 996.195 Q169.237 996.195 166.783 999.32 Q164.352 1002.44 164.005 1008.76 Q165.371 1006.75 167.431 1005.69 Q169.491 1004.6 171.968 1004.6 Q177.176 1004.6 180.186 1007.77 Q183.218 1010.92 183.218 1016.36 Q183.218 1021.68 180.07 1024.9 Q176.922 1028.12 171.69 1028.12 Q165.695 1028.12 162.524 1023.53 Q159.353 1018.93 159.353 1010.2 Q159.353 1002 163.241 997.144 Q167.13 992.259 173.681 992.259 Q175.44 992.259 177.223 992.607 Q179.028 992.954 180.973 993.648 Z" fill="#000000" fill-rule="evenodd" fill-opacity="1" /><path clip-path="url(#clip600)" d="M201.274 995.963 Q197.662 995.963 195.834 999.528 Q194.028 1003.07 194.028 1010.2 Q194.028 1017.31 195.834 1020.87 Q197.662 1024.41 201.274 1024.41 Q204.908 1024.41 206.713 1020.87 Q208.542 1017.31 208.542 1010.2 Q208.542 1003.07 206.713 999.528 Q204.908 995.963 201.274 995.963 M201.274 992.259 Q207.084 992.259 210.139 996.866 Q213.218 1001.45 213.218 1010.2 Q213.218 1018.93 210.139 1023.53 Q207.084 1028.12 201.274 1028.12 Q195.463 1028.12 192.385 1023.53 Q189.329 1018.93 189.329 1010.2 Q189.329 1001.45 192.385 996.866 Q195.463 992.259 201.274 992.259 Z" fill="#000000" fill-rule="evenodd" fill-opacity="1" /><path clip-path="url(#clip600)" d="M130.695 767.626 Q134.052 768.344 135.927 770.612 Q137.825 772.881 137.825 776.214 Q137.825 781.33 134.306 784.131 Q130.788 786.931 124.306 786.931 Q122.13 786.931 119.816 786.492 Q117.524 786.075 115.07 785.219 L115.07 780.705 Q117.015 781.839 119.33 782.418 Q121.644 782.996 124.168 782.996 Q128.566 782.996 130.857 781.26 Q133.172 779.524 133.172 776.214 Q133.172 773.158 131.019 771.445 Q128.89 769.709 125.07 769.709 L121.043 769.709 L121.043 765.867 L125.255 765.867 Q128.705 765.867 130.533 764.501 Q132.362 763.112 132.362 760.52 Q132.362 757.858 130.464 756.446 Q128.589 755.01 125.07 755.01 Q123.149 755.01 120.95 755.427 Q118.751 755.844 116.112 756.723 L116.112 752.557 Q118.774 751.816 121.089 751.446 Q123.427 751.075 125.487 751.075 Q130.811 751.075 133.913 753.506 Q137.015 755.913 137.015 760.033 Q137.015 762.904 135.371 764.895 Q133.728 766.862 130.695 767.626 Z" fill="#000000" fill-rule="evenodd" fill-opacity="1" /><path clip-path="url(#clip600)" d="M146.691 780.381 L151.575 780.381 L151.575 786.26 L146.691 786.26 L146.691 780.381 Z" fill="#000000" fill-rule="evenodd" fill-opacity="1" /><path clip-path="url(#clip600)" d="M172.339 767.117 Q169.19 767.117 167.339 769.27 Q165.51 771.422 165.51 775.172 Q165.51 778.899 167.339 781.075 Q169.19 783.228 172.339 783.228 Q175.487 783.228 177.315 781.075 Q179.167 778.899 179.167 775.172 Q179.167 771.422 177.315 769.27 Q175.487 767.117 172.339 767.117 M181.621 752.464 L181.621 756.723 Q179.862 755.89 178.056 755.45 Q176.274 755.01 174.514 755.01 Q169.885 755.01 167.431 758.135 Q165.001 761.26 164.653 767.58 Q166.019 765.566 168.079 764.501 Q170.139 763.413 172.616 763.413 Q177.825 763.413 180.834 766.584 Q183.866 769.732 183.866 775.172 Q183.866 780.496 180.718 783.714 Q177.57 786.931 172.339 786.931 Q166.343 786.931 163.172 782.348 Q160.001 777.742 160.001 769.015 Q160.001 760.82 163.89 755.959 Q167.778 751.075 174.329 751.075 Q176.089 751.075 177.871 751.422 Q179.676 751.77 181.621 752.464 Z" fill="#000000" fill-rule="evenodd" fill-opacity="1" /><path clip-path="url(#clip600)" d="M206.088 767.626 Q209.445 768.344 211.32 770.612 Q213.218 772.881 213.218 776.214 Q213.218 781.33 209.699 784.131 Q206.181 786.931 199.7 786.931 Q197.524 786.931 195.209 786.492 Q192.917 786.075 190.463 785.219 L190.463 780.705 Q192.408 781.839 194.723 782.418 Q197.037 782.996 199.561 782.996 Q203.959 782.996 206.25 781.26 Q208.565 779.524 208.565 776.214 Q208.565 773.158 206.412 771.445 Q204.283 769.709 200.463 769.709 L196.436 769.709 L196.436 765.867 L200.649 765.867 Q204.098 765.867 205.926 764.501 Q207.755 763.112 207.755 760.52 Q207.755 757.858 205.857 756.446 Q203.982 755.01 200.463 755.01 Q198.542 755.01 196.343 755.427 Q194.144 755.844 191.505 756.723 L191.505 752.557 Q194.167 751.816 196.482 751.446 Q198.82 751.075 200.88 751.075 Q206.204 751.075 209.306 753.506 Q212.408 755.913 212.408 760.033 Q212.408 762.904 210.764 764.895 Q209.121 766.862 206.088 767.626 Z" fill="#000000" fill-rule="evenodd" fill-opacity="1" /><path clip-path="url(#clip600)" d="M129.885 526.442 Q133.242 527.159 135.117 529.428 Q137.015 531.696 137.015 535.03 Q137.015 540.145 133.496 542.946 Q129.978 545.747 123.496 545.747 Q121.32 545.747 119.006 545.307 Q116.714 544.891 114.26 544.034 L114.26 539.52 Q116.205 540.655 118.519 541.233 Q120.834 541.812 123.357 541.812 Q127.755 541.812 130.047 540.076 Q132.362 538.34 132.362 535.03 Q132.362 531.974 130.209 530.261 Q128.08 528.525 124.26 528.525 L120.232 528.525 L120.232 524.682 L124.445 524.682 Q127.894 524.682 129.723 523.317 Q131.552 521.928 131.552 519.335 Q131.552 516.673 129.654 515.261 Q127.779 513.826 124.26 513.826 Q122.339 513.826 120.14 514.243 Q117.941 514.659 115.302 515.539 L115.302 511.372 Q117.964 510.632 120.279 510.261 Q122.617 509.891 124.677 509.891 Q130.001 509.891 133.103 512.321 Q136.204 514.729 136.204 518.849 Q136.204 521.719 134.561 523.71 Q132.917 525.678 129.885 526.442 Z" fill="#000000" fill-rule="evenodd" fill-opacity="1" /><path clip-path="url(#clip600)" d="M145.88 539.196 L150.765 539.196 L150.765 545.076 L145.88 545.076 L145.88 539.196 Z" fill="#000000" fill-rule="evenodd" fill-opacity="1" /><path clip-path="url(#clip600)" d="M171.528 525.932 Q168.38 525.932 166.528 528.085 Q164.7 530.238 164.7 533.988 Q164.7 537.715 166.528 539.891 Q168.38 542.043 171.528 542.043 Q174.677 542.043 176.505 539.891 Q178.357 537.715 178.357 533.988 Q178.357 530.238 176.505 528.085 Q174.677 525.932 171.528 525.932 M180.811 511.28 L180.811 515.539 Q179.051 514.706 177.246 514.266 Q175.464 513.826 173.704 513.826 Q169.075 513.826 166.621 516.951 Q164.19 520.076 163.843 526.395 Q165.209 524.382 167.269 523.317 Q169.329 522.229 171.806 522.229 Q177.014 522.229 180.024 525.4 Q183.056 528.548 183.056 533.988 Q183.056 539.312 179.908 542.53 Q176.76 545.747 171.528 545.747 Q165.533 545.747 162.362 541.164 Q159.19 536.557 159.19 527.831 Q159.19 519.636 163.079 514.775 Q166.968 509.891 173.519 509.891 Q175.278 509.891 177.061 510.238 Q178.866 510.585 180.811 511.28 Z" fill="#000000" fill-rule="evenodd" fill-opacity="1" /><path clip-path="url(#clip600)" d="M201.69 525.932 Q198.542 525.932 196.69 528.085 Q194.862 530.238 194.862 533.988 Q194.862 537.715 196.69 539.891 Q198.542 542.043 201.69 542.043 Q204.838 542.043 206.667 539.891 Q208.519 537.715 208.519 533.988 Q208.519 530.238 206.667 528.085 Q204.838 525.932 201.69 525.932 M210.973 511.28 L210.973 515.539 Q209.213 514.706 207.408 514.266 Q205.625 513.826 203.866 513.826 Q199.237 513.826 196.783 516.951 Q194.352 520.076 194.005 526.395 Q195.371 524.382 197.431 523.317 Q199.491 522.229 201.968 522.229 Q207.176 522.229 210.186 525.4 Q213.218 528.548 213.218 533.988 Q213.218 539.312 210.07 542.53 Q206.922 545.747 201.69 545.747 Q195.695 545.747 192.524 541.164 Q189.352 536.557 189.352 527.831 Q189.352 519.636 193.241 514.775 Q197.13 509.891 203.681 509.891 Q205.44 509.891 207.223 510.238 Q209.028 510.585 210.973 511.28 Z" fill="#000000" fill-rule="evenodd" fill-opacity="1" /><path clip-path="url(#clip600)" d="M130.232 285.257 Q133.589 285.975 135.464 288.243 Q137.362 290.512 137.362 293.845 Q137.362 298.961 133.843 301.762 Q130.325 304.563 123.843 304.563 Q121.668 304.563 119.353 304.123 Q117.061 303.706 114.607 302.85 L114.607 298.336 Q116.552 299.47 118.867 300.049 Q121.181 300.628 123.705 300.628 Q128.103 300.628 130.394 298.892 Q132.709 297.155 132.709 293.845 Q132.709 290.79 130.556 289.077 Q128.427 287.341 124.607 287.341 L120.58 287.341 L120.58 283.498 L124.793 283.498 Q128.242 283.498 130.07 282.132 Q131.899 280.743 131.899 278.151 Q131.899 275.489 130.001 274.077 Q128.126 272.642 124.607 272.642 Q122.686 272.642 120.487 273.058 Q118.288 273.475 115.649 274.355 L115.649 270.188 Q118.311 269.447 120.626 269.077 Q122.964 268.707 125.024 268.707 Q130.348 268.707 133.45 271.137 Q136.552 273.544 136.552 277.665 Q136.552 280.535 134.908 282.526 Q133.265 284.493 130.232 285.257 Z" fill="#000000" fill-rule="evenodd" fill-opacity="1" /><path clip-path="url(#clip600)" d="M146.228 298.012 L151.112 298.012 L151.112 303.892 L146.228 303.892 L146.228 298.012 Z" fill="#000000" fill-rule="evenodd" fill-opacity="1" /><path clip-path="url(#clip600)" d="M171.876 284.748 Q168.727 284.748 166.876 286.901 Q165.047 289.054 165.047 292.804 Q165.047 296.53 166.876 298.706 Q168.727 300.859 171.876 300.859 Q175.024 300.859 176.852 298.706 Q178.704 296.53 178.704 292.804 Q178.704 289.054 176.852 286.901 Q175.024 284.748 171.876 284.748 M181.158 270.095 L181.158 274.355 Q179.399 273.521 177.593 273.081 Q175.811 272.642 174.052 272.642 Q169.422 272.642 166.968 275.767 Q164.538 278.892 164.19 285.211 Q165.556 283.197 167.616 282.132 Q169.677 281.044 172.153 281.044 Q177.362 281.044 180.371 284.216 Q183.403 287.364 183.403 292.804 Q183.403 298.128 180.255 301.345 Q177.107 304.563 171.876 304.563 Q165.88 304.563 162.709 299.98 Q159.538 295.373 159.538 286.646 Q159.538 278.452 163.427 273.591 Q167.315 268.707 173.866 268.707 Q175.626 268.707 177.408 269.054 Q179.214 269.401 181.158 270.095 Z" fill="#000000" fill-rule="evenodd" fill-opacity="1" /><path clip-path="url(#clip600)" d="M191.598 303.174 L191.598 298.915 Q193.357 299.748 195.163 300.188 Q196.968 300.628 198.704 300.628 Q203.334 300.628 205.764 297.526 Q208.218 294.401 208.565 288.058 Q207.223 290.049 205.162 291.114 Q203.102 292.179 200.602 292.179 Q195.417 292.179 192.385 289.054 Q189.375 285.906 189.375 280.466 Q189.375 275.142 192.524 271.924 Q195.672 268.707 200.903 268.707 Q206.899 268.707 210.047 273.313 Q213.218 277.896 213.218 286.646 Q213.218 294.817 209.329 299.702 Q205.463 304.563 198.912 304.563 Q197.153 304.563 195.348 304.216 Q193.542 303.868 191.598 303.174 M200.903 288.521 Q204.051 288.521 205.88 286.368 Q207.732 284.216 207.732 280.466 Q207.732 276.739 205.88 274.586 Q204.051 272.41 200.903 272.41 Q197.755 272.41 195.903 274.586 Q194.075 276.739 194.075 280.466 Q194.075 284.216 195.903 286.368 Q197.755 288.521 200.903 288.521 Z" fill="#000000" fill-rule="evenodd" fill-opacity="1" /><path clip-path="url(#clip600)" d="M35.1993 829.203 Q31.2526 827.007 29.3747 823.951 Q27.4968 820.896 27.4968 816.758 Q27.4968 811.188 31.4117 808.164 Q35.2948 805.141 42.4881 805.141 L64.0042 805.141 L64.0042 811.029 L42.679 811.029 Q37.5546 811.029 35.072 812.843 Q32.5894 814.657 32.5894 818.381 Q32.5894 822.933 35.6131 825.574 Q38.6368 828.216 43.8567 828.216 L64.0042 828.216 L64.0042 834.105 L42.679 834.105 Q37.5228 834.105 35.072 835.919 Q32.5894 837.733 32.5894 841.521 Q32.5894 846.008 35.6449 848.65 Q38.6686 851.292 43.8567 851.292 L64.0042 851.292 L64.0042 857.18 L28.3562 857.18 L28.3562 851.292 L33.8944 851.292 Q30.616 849.287 29.0564 846.486 Q27.4968 843.685 27.4968 839.834 Q27.4968 835.951 29.4702 833.245 Q31.4436 830.508 35.1993 829.203 Z" fill="#000000" fill-rule="evenodd" fill-opacity="1" /><path clip-path="url(#clip600)" d="M28.3562 793.459 L28.3562 787.603 L64.0042 787.603 L64.0042 793.459 L28.3562 793.459 M14.479 793.459 L14.479 787.603 L21.895 787.603 L21.895 793.459 L14.479 793.459 Z" fill="#000000" fill-rule="evenodd" fill-opacity="1" /><path clip-path="url(#clip600)" d="M42.4881 745.717 L64.0042 745.717 L64.0042 751.573 L42.679 751.573 Q37.6183 751.573 35.1038 753.547 Q32.5894 755.52 32.5894 759.467 Q32.5894 764.209 35.6131 766.946 Q38.6368 769.684 43.8567 769.684 L64.0042 769.684 L64.0042 775.572 L28.3562 775.572 L28.3562 769.684 L33.8944 769.684 Q30.6797 767.583 29.0883 764.75 Q27.4968 761.886 27.4968 758.162 Q27.4968 752.019 31.3163 748.868 Q35.1038 745.717 42.4881 745.717 Z" fill="#000000" fill-rule="evenodd" fill-opacity="1" /><path clip-path="url(#clip600)" d="M74.8259 706.95 L79.3773 706.95 L79.3773 740.815 L74.8259 740.815 L74.8259 706.95 Z" fill="#000000" fill-rule="evenodd" fill-opacity="1" /><path clip-path="url(#clip600)" d="M33.7671 677.986 L14.479 677.986 L14.479 672.129 L64.0042 672.129 L64.0042 677.986 L58.657 677.986 Q61.8398 679.832 63.3994 682.664 Q64.9272 685.465 64.9272 689.412 Q64.9272 695.873 59.771 699.947 Q54.6147 703.989 46.212 703.989 Q37.8093 703.989 32.6531 699.947 Q27.4968 695.873 27.4968 689.412 Q27.4968 685.465 29.0564 682.664 Q30.5842 679.832 33.7671 677.986 M46.212 697.942 Q52.6732 697.942 56.3653 695.3 Q60.0256 692.627 60.0256 687.98 Q60.0256 683.333 56.3653 680.659 Q52.6732 677.986 46.212 677.986 Q39.7508 677.986 36.0905 680.659 Q32.3984 683.333 32.3984 687.98 Q32.3984 692.627 36.0905 695.3 Q39.7508 697.942 46.212 697.942 Z" fill="#000000" fill-rule="evenodd" fill-opacity="1" /><path clip-path="url(#clip600)" d="M28.3562 660.066 L28.3562 654.21 L64.0042 654.21 L64.0042 660.066 L28.3562 660.066 M14.479 660.066 L14.479 654.21 L21.895 654.21 L21.895 660.066 L14.479 660.066 Z" fill="#000000" fill-rule="evenodd" fill-opacity="1" /><path clip-path="url(#clip600)" d="M14.479 623.909 L19.3487 623.909 L19.3487 629.511 Q19.3487 632.662 20.6219 633.903 Q21.895 635.113 25.2052 635.113 L28.3562 635.113 L28.3562 625.468 L32.9077 625.468 L32.9077 635.113 L64.0042 635.113 L64.0042 641.001 L32.9077 641.001 L32.9077 646.603 L28.3562 646.603 L28.3562 641.001 L25.8736 641.001 Q19.9216 641.001 17.2162 638.232 Q14.479 635.463 14.479 629.447 L14.479 623.909 Z" fill="#000000" fill-rule="evenodd" fill-opacity="1" /><path clip-path="url(#clip600)" d="M14.479 600.961 L19.3487 600.961 L19.3487 606.562 Q19.3487 609.713 20.6219 610.955 Q21.895 612.164 25.2052 612.164 L28.3562 612.164 L28.3562 602.52 L32.9077 602.52 L32.9077 612.164 L64.0042 612.164 L64.0042 618.052 L32.9077 618.052 L32.9077 623.654 L28.3562 623.654 L28.3562 618.052 L25.8736 618.052 Q19.9216 618.052 17.2162 615.283 Q14.479 612.514 14.479 606.499 L14.479 600.961 Z" fill="#000000" fill-rule="evenodd" fill-opacity="1" /><polyline clip-path="url(#clip602)" style="stroke:#009af9; stroke-linecap:butt; stroke-linejoin:round; stroke-width:20; stroke-opacity:1; fill:none" stroke-dasharray="80, 50" points="
  308.752,85.838 1300.99,1372.3 2293.22,433.59 
  "/>
<path clip-path="url(#clip600)" d="
M1996.48 196.379 L2282.64 196.379 L2282.64 92.6992 L1996.48 92.6992  Z
  " fill="#ffffff" fill-rule="evenodd" fill-opacity="1"/>
<polyline clip-path="url(#clip600)" style="stroke:#000000; stroke-linecap:butt; stroke-linejoin:round; stroke-width:4; stroke-opacity:1; fill:none" points="
  1996.48,196.379 2282.64,196.379 2282.64,92.6992 1996.48,92.6992 1996.48,196.379 
  "/>
<polyline clip-path="url(#clip600)" style="stroke:#009af9; stroke-linecap:butt; stroke-linejoin:round; stroke-width:4; stroke-opacity:1; fill:none" stroke-dasharray="16, 10" points="
  2019.85,144.539 2160.09,144.539 
  "/>
<path clip-path="url(#clip600)" d="M2197.3 164.227 Q2195.5 168.856 2193.79 170.268 Q2192.07 171.68 2189.2 171.68 L2185.8 171.68 L2185.8 168.115 L2188.3 168.115 Q2190.06 168.115 2191.03 167.282 Q2192 166.449 2193.18 163.347 L2193.95 161.403 L2183.46 135.893 L2187.98 135.893 L2196.08 156.171 L2204.18 135.893 L2208.69 135.893 L2197.3 164.227 Z" fill="#000000" fill-rule="evenodd" fill-opacity="1" /><path clip-path="url(#clip600)" d="M2215.99 157.884 L2223.62 157.884 L2223.62 131.518 L2215.31 133.185 L2215.31 128.926 L2223.58 127.259 L2228.25 127.259 L2228.25 157.884 L2235.89 157.884 L2235.89 161.819 L2215.99 161.819 L2215.99 157.884 Z" fill="#000000" fill-rule="evenodd" fill-opacity="1" /></svg>
