<?xml version="1.0" encoding="utf-8"?>
<svg xmlns="http://www.w3.org/2000/svg" xmlns:xlink="http://www.w3.org/1999/xlink" width="600" height="400" viewBox="0 0 2400 1600">
<defs>
  <clipPath id="clip440">
    <rect x="0" y="0" width="2400" height="1600"/>
  </clipPath>
</defs>
<path clip-path="url(#clip440)" d="
M0 1600 L2400 1600 L2400 0 L0 0  Z
  " fill="#ffffff" fill-rule="evenodd" fill-opacity="1"/>
<defs>
  <clipPath id="clip441">
    <rect x="480" y="0" width="1681" height="1600"/>
  </clipPath>
</defs>
<path clip-path="url(#clip440)" d="
M220.19 1410.9 L2352.76 1410.9 L2352.76 47.2441 L220.19 47.2441  Z
  " fill="#ffffff" fill-rule="evenodd" fill-opacity="1"/>
<defs>
  <clipPath id="clip442">
    <rect x="220" y="47" width="2134" height="1365"/>
  </clipPath>
</defs>
<polyline clip-path="url(#clip442)" style="stroke:#000000; stroke-linecap:butt; stroke-linejoin:round; stroke-width:2; stroke-opacity:0.1; fill:none" points="
  884.102,1410.9 884.102,47.2441 
  "/>
<polyline clip-path="url(#clip442)" style="stroke:#000000; stroke-linecap:butt; stroke-linejoin:round; stroke-width:2; stroke-opacity:0.1; fill:none" points="
  1688.84,1410.9 1688.84,47.2441 
  "/>
<polyline clip-path="url(#clip440)" style="stroke:#000000; stroke-linecap:butt; stroke-linejoin:round; stroke-width:4; stroke-opacity:1; fill:none" points="
  220.19,1410.9 2352.76,1410.9 
  "/>
<polyline clip-path="url(#clip440)" style="stroke:#000000; stroke-linecap:butt; stroke-linejoin:round; stroke-width:4; stroke-opacity:1; fill:none" points="
  884.102,1410.9 884.102,1392 
  "/>
<polyline clip-path="url(#clip440)" style="stroke:#000000; stroke-linecap:butt; stroke-linejoin:round; stroke-width:4; stroke-opacity:1; fill:none" points="
  1688.84,1410.9 1688.84,1392 
  "/>
<path clip-path="url(#clip440)" d="M815.607 1485.02 L823.246 1485.02 L823.246 1458.66 L814.936 1460.32 L814.936 1456.06 L823.2 1454.4 L827.876 1454.4 L827.876 1485.02 L835.515 1485.02 L835.515 1488.96 L815.607 1488.96 L815.607 1485.02 Z" fill="#000000" fill-rule="evenodd" fill-opacity="1" /><path clip-path="url(#clip440)" d="M854.959 1457.48 Q851.348 1457.48 849.519 1461.04 Q847.714 1464.58 847.714 1471.71 Q847.714 1478.82 849.519 1482.38 Q851.348 1485.92 854.959 1485.92 Q858.593 1485.92 860.399 1482.38 Q862.227 1478.82 862.227 1471.71 Q862.227 1464.58 860.399 1461.04 Q858.593 1457.48 854.959 1457.48 M854.959 1453.77 Q860.769 1453.77 863.825 1458.38 Q866.903 1462.96 866.903 1471.71 Q866.903 1480.44 863.825 1485.04 Q860.769 1489.63 854.959 1489.63 Q849.149 1489.63 846.07 1485.04 Q843.015 1480.44 843.015 1471.71 Q843.015 1462.96 846.07 1458.38 Q849.149 1453.77 854.959 1453.77 Z" fill="#000000" fill-rule="evenodd" fill-opacity="1" /><path clip-path="url(#clip440)" d="M866.903 1447.87 L891.015 1447.87 L891.015 1451.07 L866.903 1451.07 L866.903 1447.87 Z" fill="#000000" fill-rule="evenodd" fill-opacity="1" /><path clip-path="url(#clip440)" d="M899.253 1433.47 L914.167 1433.47 L914.167 1436.66 L902.732 1436.66 L902.732 1443.55 Q903.56 1443.27 904.387 1443.13 Q905.215 1442.98 906.042 1442.98 Q910.744 1442.98 913.49 1445.56 Q916.236 1448.14 916.236 1452.54 Q916.236 1457.07 913.415 1459.59 Q910.594 1462.09 905.459 1462.09 Q903.691 1462.09 901.848 1461.79 Q900.024 1461.49 898.068 1460.89 L898.068 1457.07 Q899.76 1457.99 901.566 1458.44 Q903.372 1458.89 905.384 1458.89 Q908.638 1458.89 910.537 1457.18 Q912.437 1455.47 912.437 1452.54 Q912.437 1449.6 910.537 1447.89 Q908.638 1446.18 905.384 1446.18 Q903.861 1446.18 902.337 1446.52 Q900.832 1446.86 899.253 1447.57 L899.253 1433.47 Z" fill="#000000" fill-rule="evenodd" fill-opacity="1" /><path clip-path="url(#clip440)" d="M923.722 1456.77 L927.69 1456.77 L927.69 1461.55 L923.722 1461.55 L923.722 1456.77 Z" fill="#000000" fill-rule="evenodd" fill-opacity="1" /><path clip-path="url(#clip440)" d="M947.476 1446.41 Q950.203 1446.99 951.726 1448.83 Q953.269 1450.68 953.269 1453.38 Q953.269 1457.54 950.41 1459.82 Q947.551 1462.09 942.285 1462.09 Q940.517 1462.09 938.636 1461.73 Q936.774 1461.4 934.781 1460.7 L934.781 1457.03 Q936.36 1457.95 938.241 1458.42 Q940.122 1458.89 942.172 1458.89 Q945.745 1458.89 947.607 1457.48 Q949.488 1456.07 949.488 1453.38 Q949.488 1450.9 947.739 1449.51 Q946.009 1448.1 942.905 1448.1 L939.633 1448.1 L939.633 1444.98 L943.056 1444.98 Q945.858 1444.98 947.344 1443.87 Q948.83 1442.74 948.83 1440.63 Q948.83 1438.47 947.288 1437.32 Q945.764 1436.16 942.905 1436.16 Q941.344 1436.16 939.558 1436.49 Q937.771 1436.83 935.627 1437.55 L935.627 1434.16 Q937.79 1433.56 939.671 1433.26 Q941.57 1432.96 943.244 1432.96 Q947.57 1432.96 950.09 1434.93 Q952.61 1436.89 952.61 1440.24 Q952.61 1442.57 951.275 1444.19 Q949.94 1445.79 947.476 1446.41 Z" fill="#000000" fill-rule="evenodd" fill-opacity="1" /><path clip-path="url(#clip440)" d="M1620.73 1485.02 L1628.37 1485.02 L1628.37 1458.66 L1620.06 1460.32 L1620.06 1456.06 L1628.33 1454.4 L1633 1454.4 L1633 1485.02 L1640.64 1485.02 L1640.64 1488.96 L1620.73 1488.96 L1620.73 1485.02 Z" fill="#000000" fill-rule="evenodd" fill-opacity="1" /><path clip-path="url(#clip440)" d="M1660.09 1457.48 Q1656.48 1457.48 1654.65 1461.04 Q1652.84 1464.58 1652.84 1471.71 Q1652.84 1478.82 1654.65 1482.38 Q1656.48 1485.92 1660.09 1485.92 Q1663.72 1485.92 1665.53 1482.38 Q1667.35 1478.82 1667.35 1471.71 Q1667.35 1464.58 1665.53 1461.04 Q1663.72 1457.48 1660.09 1457.48 M1660.09 1453.77 Q1665.9 1453.77 1668.95 1458.38 Q1672.03 1462.96 1672.03 1471.71 Q1672.03 1480.44 1668.95 1485.04 Q1665.9 1489.63 1660.09 1489.63 Q1654.28 1489.63 1651.2 1485.04 Q1648.14 1480.44 1648.14 1471.71 Q1648.14 1462.96 1651.2 1458.38 Q1654.28 1453.77 1660.09 1453.77 Z" fill="#000000" fill-rule="evenodd" fill-opacity="1" /><path clip-path="url(#clip440)" d="M1672.03 1447.87 L1696.14 1447.87 L1696.14 1451.07 L1672.03 1451.07 L1672.03 1447.87 Z" fill="#000000" fill-rule="evenodd" fill-opacity="1" /><path clip-path="url(#clip440)" d="M1704.38 1433.47 L1719.29 1433.47 L1719.29 1436.66 L1707.86 1436.66 L1707.86 1443.55 Q1708.69 1443.27 1709.51 1443.13 Q1710.34 1442.98 1711.17 1442.98 Q1715.87 1442.98 1718.62 1445.56 Q1721.36 1448.14 1721.36 1452.54 Q1721.36 1457.07 1718.54 1459.59 Q1715.72 1462.09 1710.59 1462.09 Q1708.82 1462.09 1706.98 1461.79 Q1705.15 1461.49 1703.2 1460.89 L1703.2 1457.07 Q1704.89 1457.99 1706.69 1458.44 Q1708.5 1458.89 1710.51 1458.89 Q1713.77 1458.89 1715.66 1457.18 Q1717.56 1455.47 1717.56 1452.54 Q1717.56 1449.6 1715.66 1447.89 Q1713.77 1446.18 1710.51 1446.18 Q1708.99 1446.18 1707.46 1446.52 Q1705.96 1446.86 1704.38 1447.57 L1704.38 1433.47 Z" fill="#000000" fill-rule="evenodd" fill-opacity="1" /><path clip-path="url(#clip440)" d="M1728.85 1456.77 L1732.82 1456.77 L1732.82 1461.55 L1728.85 1461.55 L1728.85 1456.77 Z" fill="#000000" fill-rule="evenodd" fill-opacity="1" /><path clip-path="url(#clip440)" d="M1744.37 1458.35 L1757.62 1458.35 L1757.62 1461.55 L1739.79 1461.55 L1739.79 1458.35 Q1741.96 1456.11 1745.68 1452.35 Q1749.42 1448.57 1750.38 1447.48 Q1752.21 1445.43 1752.92 1444.02 Q1753.66 1442.59 1753.66 1441.22 Q1753.66 1438.98 1752.08 1437.57 Q1750.52 1436.16 1748 1436.16 Q1746.21 1436.16 1744.21 1436.78 Q1742.24 1437.4 1739.98 1438.66 L1739.98 1434.82 Q1742.28 1433.9 1744.27 1433.43 Q1746.26 1432.96 1747.92 1432.96 Q1752.28 1432.96 1754.88 1435.14 Q1757.47 1437.32 1757.47 1440.97 Q1757.47 1442.7 1756.82 1444.26 Q1756.18 1445.8 1754.47 1447.91 Q1753.99 1448.46 1751.47 1451.07 Q1748.95 1453.67 1744.37 1458.35 Z" fill="#000000" fill-rule="evenodd" fill-opacity="1" /><path clip-path="url(#clip440)" d="M1216.43 1524.66 L1222.32 1524.66 L1222.32 1553.91 L1239.8 1538.54 L1247.28 1538.54 L1228.37 1555.22 L1248.07 1574.19 L1240.43 1574.19 L1222.32 1556.78 L1222.32 1574.19 L1216.43 1574.19 L1216.43 1524.66 Z" fill="#000000" fill-rule="evenodd" fill-opacity="1" /><path clip-path="url(#clip440)" d="M1281.49 1585.01 L1281.49 1589.56 L1247.63 1589.56 L1247.63 1585.01 L1281.49 1585.01 Z" fill="#000000" fill-rule="evenodd" fill-opacity="1" /><path clip-path="url(#clip440)" d="M1300.81 1542.64 Q1296.1 1542.64 1293.36 1546.34 Q1290.63 1550 1290.63 1556.39 Q1290.63 1562.79 1293.33 1566.48 Q1296.07 1570.14 1300.81 1570.14 Q1305.49 1570.14 1308.23 1566.45 Q1310.97 1562.76 1310.97 1556.39 Q1310.97 1550.06 1308.23 1546.37 Q1305.49 1542.64 1300.81 1542.64 M1300.81 1537.68 Q1308.45 1537.68 1312.81 1542.64 Q1317.17 1547.61 1317.17 1556.39 Q1317.17 1565.15 1312.81 1570.14 Q1308.45 1575.11 1300.81 1575.11 Q1293.14 1575.11 1288.78 1570.14 Q1284.45 1565.15 1284.45 1556.39 Q1284.45 1547.61 1288.78 1542.64 Q1293.14 1537.68 1300.81 1537.68 Z" fill="#000000" fill-rule="evenodd" fill-opacity="1" /><path clip-path="url(#clip440)" d="M1356.51 1552.67 L1356.51 1574.19 L1350.66 1574.19 L1350.66 1552.86 Q1350.66 1547.8 1348.68 1545.29 Q1346.71 1542.77 1342.76 1542.77 Q1338.02 1542.77 1335.28 1545.79 Q1332.54 1548.82 1332.54 1554.04 L1332.54 1574.19 L1326.66 1574.19 L1326.66 1538.54 L1332.54 1538.54 L1332.54 1544.08 Q1334.65 1540.86 1337.48 1539.27 Q1340.34 1537.68 1344.07 1537.68 Q1350.21 1537.68 1353.36 1541.5 Q1356.51 1545.29 1356.51 1552.67 Z" fill="#000000" fill-rule="evenodd" fill-opacity="1" /><polyline clip-path="url(#clip442)" style="stroke:#000000; stroke-linecap:butt; stroke-linejoin:round; stroke-width:2; stroke-opacity:0.1; fill:none" points="
  220.19,1339.73 2352.76,1339.73 
  "/>
<polyline clip-path="url(#clip442)" style="stroke:#000000; stroke-linecap:butt; stroke-linejoin:round; stroke-width:2; stroke-opacity:0.1; fill:none" points="
  220.19,1118.37 2352.76,1118.37 
  "/>
<polyline clip-path="url(#clip442)" style="stroke:#000000; stroke-linecap:butt; stroke-linejoin:round; stroke-width:2; stroke-opacity:0.1; fill:none" points="
  220.19,897.006 2352.76,897.006 
  "/>
<polyline clip-path="url(#clip442)" style="stroke:#000000; stroke-linecap:butt; stroke-linejoin:round; stroke-width:2; stroke-opacity:0.1; fill:none" points="
  220.19,675.646 2352.76,675.646 
  "/>
<polyline clip-path="url(#clip442)" style="stroke:#000000; stroke-linecap:butt; stroke-linejoin:round; stroke-width:2; stroke-opacity:0.1; fill:none" points="
  220.19,454.285 2352.76,454.285 
  "/>
<polyline clip-path="url(#clip442)" style="stroke:#000000; stroke-linecap:butt; stroke-linejoin:round; stroke-width:2; stroke-opacity:0.1; fill:none" points="
  220.19,232.924 2352.76,232.924 
  "/>
<polyline clip-path="url(#clip440)" style="stroke:#000000; stroke-linecap:butt; stroke-linejoin:round; stroke-width:4; stroke-opacity:1; fill:none" points="
  220.19,1410.9 220.19,47.2441 
  "/>
<polyline clip-path="url(#clip440)" style="stroke:#000000; stroke-linecap:butt; stroke-linejoin:round; stroke-width:4; stroke-opacity:1; fill:none" points="
  220.19,1339.73 239.088,1339.73 
  "/>
<polyline clip-path="url(#clip440)" style="stroke:#000000; stroke-linecap:butt; stroke-linejoin:round; stroke-width:4; stroke-opacity:1; fill:none" points="
  220.19,1118.37 239.088,1118.37 
  "/>
<polyline clip-path="url(#clip440)" style="stroke:#000000; stroke-linecap:butt; stroke-linejoin:round; stroke-width:4; stroke-opacity:1; fill:none" points="
  220.19,897.006 239.088,897.006 
  "/>
<polyline clip-path="url(#clip440)" style="stroke:#000000; stroke-linecap:butt; stroke-linejoin:round; stroke-width:4; stroke-opacity:1; fill:none" points="
  220.19,675.646 239.088,675.646 
  "/>
<polyline clip-path="url(#clip440)" style="stroke:#000000; stroke-linecap:butt; stroke-linejoin:round; stroke-width:4; stroke-opacity:1; fill:none" points="
  220.19,454.285 239.088,454.285 
  "/>
<polyline clip-path="url(#clip440)" style="stroke:#000000; stroke-linecap:butt; stroke-linejoin:round; stroke-width:4; stroke-opacity:1; fill:none" points="
  220.19,232.924 239.088,232.924 
  "/>
<path clip-path="url(#clip440)" d="M132.177 1338.37 Q135.533 1339.09 137.408 1341.36 Q139.306 1343.63 139.306 1346.96 Q139.306 1352.08 135.788 1354.88 Q132.269 1357.68 125.788 1357.68 Q123.612 1357.68 121.297 1357.24 Q119.006 1356.82 116.552 1355.97 L116.552 1351.45 Q118.496 1352.59 120.811 1353.17 Q123.126 1353.74 125.649 1353.74 Q130.047 1353.74 132.339 1352.01 Q134.654 1350.27 134.654 1346.96 Q134.654 1343.91 132.501 1342.19 Q130.371 1340.46 126.552 1340.46 L122.524 1340.46 L122.524 1336.61 L126.737 1336.61 Q130.186 1336.61 132.015 1335.25 Q133.843 1333.86 133.843 1331.27 Q133.843 1328.61 131.945 1327.19 Q130.07 1325.76 126.552 1325.76 Q124.63 1325.76 122.431 1326.17 Q120.232 1326.59 117.593 1327.47 L117.593 1323.3 Q120.255 1322.56 122.57 1322.19 Q124.908 1321.82 126.968 1321.82 Q132.292 1321.82 135.394 1324.25 Q138.496 1326.66 138.496 1330.78 Q138.496 1333.65 136.853 1335.64 Q135.209 1337.61 132.177 1338.37 Z" fill="#000000" fill-rule="evenodd" fill-opacity="1" /><path clip-path="url(#clip440)" d="M148.172 1351.13 L153.056 1351.13 L153.056 1357.01 L148.172 1357.01 L148.172 1351.13 Z" fill="#000000" fill-rule="evenodd" fill-opacity="1" /><path clip-path="url(#clip440)" d="M163.288 1322.45 L181.644 1322.45 L181.644 1326.38 L167.57 1326.38 L167.57 1334.86 Q168.589 1334.51 169.607 1334.35 Q170.626 1334.16 171.644 1334.16 Q177.431 1334.16 180.811 1337.33 Q184.19 1340.5 184.19 1345.92 Q184.19 1351.5 180.718 1354.6 Q177.246 1357.68 170.927 1357.68 Q168.751 1357.68 166.482 1357.31 Q164.237 1356.94 161.829 1356.2 L161.829 1351.5 Q163.913 1352.63 166.135 1353.19 Q168.357 1353.74 170.834 1353.74 Q174.839 1353.74 177.176 1351.64 Q179.514 1349.53 179.514 1345.92 Q179.514 1342.31 177.176 1340.2 Q174.839 1338.1 170.834 1338.1 Q168.959 1338.1 167.084 1338.51 Q165.232 1338.93 163.288 1339.81 L163.288 1322.45 Z" fill="#000000" fill-rule="evenodd" fill-opacity="1" /><path clip-path="url(#clip440)" d="M131.019 1117.01 Q134.376 1117.73 136.251 1120 Q138.149 1122.27 138.149 1125.6 Q138.149 1130.72 134.63 1133.52 Q131.112 1136.32 124.63 1136.32 Q122.455 1136.32 120.14 1135.88 Q117.848 1135.46 115.394 1134.61 L115.394 1130.09 Q117.339 1131.23 119.654 1131.8 Q121.968 1132.38 124.492 1132.38 Q128.89 1132.38 131.181 1130.65 Q133.496 1128.91 133.496 1125.6 Q133.496 1122.55 131.343 1120.83 Q129.214 1119.1 125.394 1119.1 L121.367 1119.1 L121.367 1115.25 L125.58 1115.25 Q129.029 1115.25 130.857 1113.89 Q132.686 1112.5 132.686 1109.91 Q132.686 1107.24 130.788 1105.83 Q128.913 1104.4 125.394 1104.4 Q123.473 1104.4 121.274 1104.81 Q119.075 1105.23 116.436 1106.11 L116.436 1101.94 Q119.098 1101.2 121.413 1100.83 Q123.751 1100.46 125.811 1100.46 Q131.135 1100.46 134.237 1102.89 Q137.339 1105.3 137.339 1109.42 Q137.339 1112.29 135.695 1114.28 Q134.052 1116.25 131.019 1117.01 Z" fill="#000000" fill-rule="evenodd" fill-opacity="1" /><path clip-path="url(#clip440)" d="M147.015 1129.77 L151.899 1129.77 L151.899 1135.65 L147.015 1135.65 L147.015 1129.77 Z" fill="#000000" fill-rule="evenodd" fill-opacity="1" /><path clip-path="url(#clip440)" d="M172.663 1116.5 Q169.514 1116.5 167.663 1118.66 Q165.834 1120.81 165.834 1124.56 Q165.834 1128.29 167.663 1130.46 Q169.514 1132.61 172.663 1132.61 Q175.811 1132.61 177.639 1130.46 Q179.491 1128.29 179.491 1124.56 Q179.491 1120.81 177.639 1118.66 Q175.811 1116.5 172.663 1116.5 M181.945 1101.85 L181.945 1106.11 Q180.186 1105.28 178.38 1104.84 Q176.598 1104.4 174.839 1104.4 Q170.209 1104.4 167.755 1107.52 Q165.325 1110.65 164.977 1116.97 Q166.343 1114.95 168.403 1113.89 Q170.464 1112.8 172.94 1112.8 Q178.149 1112.8 181.158 1115.97 Q184.19 1119.12 184.19 1124.56 Q184.19 1129.88 181.042 1133.1 Q177.894 1136.32 172.663 1136.32 Q166.667 1136.32 163.496 1131.74 Q160.325 1127.13 160.325 1118.4 Q160.325 1110.21 164.214 1105.35 Q168.102 1100.46 174.653 1100.46 Q176.413 1100.46 178.195 1100.81 Q180.001 1101.16 181.945 1101.85 Z" fill="#000000" fill-rule="evenodd" fill-opacity="1" /><path clip-path="url(#clip440)" d="M132.084 895.652 Q135.441 896.37 137.316 898.638 Q139.214 900.907 139.214 904.24 Q139.214 909.356 135.695 912.157 Q132.177 914.958 125.695 914.958 Q123.519 914.958 121.205 914.518 Q118.913 914.101 116.459 913.245 L116.459 908.731 Q118.404 909.865 120.718 910.444 Q123.033 911.023 125.556 911.023 Q129.955 911.023 132.246 909.286 Q134.561 907.55 134.561 904.24 Q134.561 901.185 132.408 899.472 Q130.279 897.736 126.459 897.736 L122.431 897.736 L122.431 893.893 L126.644 893.893 Q130.093 893.893 131.922 892.527 Q133.751 891.138 133.751 888.546 Q133.751 885.884 131.853 884.472 Q129.978 883.037 126.459 883.037 Q124.538 883.037 122.339 883.453 Q120.14 883.87 117.501 884.75 L117.501 880.583 Q120.163 879.842 122.478 879.472 Q124.816 879.101 126.876 879.101 Q132.2 879.101 135.302 881.532 Q138.404 883.939 138.404 888.06 Q138.404 890.93 136.76 892.921 Q135.117 894.888 132.084 895.652 Z" fill="#000000" fill-rule="evenodd" fill-opacity="1" /><path clip-path="url(#clip440)" d="M148.079 908.407 L152.964 908.407 L152.964 914.286 L148.079 914.286 L148.079 908.407 Z" fill="#000000" fill-rule="evenodd" fill-opacity="1" /><path clip-path="url(#clip440)" d="M161.968 879.726 L184.19 879.726 L184.19 881.717 L171.644 914.286 L166.76 914.286 L178.565 883.662 L161.968 883.662 L161.968 879.726 Z" fill="#000000" fill-rule="evenodd" fill-opacity="1" /><path clip-path="url(#clip440)" d="M131.274 674.291 Q134.63 675.009 136.505 677.278 Q138.404 679.546 138.404 682.879 Q138.404 687.995 134.885 690.796 Q131.367 693.597 124.885 693.597 Q122.709 693.597 120.394 693.157 Q118.103 692.74 115.649 691.884 L115.649 687.37 Q117.593 688.504 119.908 689.083 Q122.223 689.662 124.746 689.662 Q129.144 689.662 131.436 687.926 Q133.751 686.19 133.751 682.879 Q133.751 679.824 131.598 678.111 Q129.468 676.375 125.649 676.375 L121.621 676.375 L121.621 672.532 L125.834 672.532 Q129.283 672.532 131.112 671.167 Q132.941 669.778 132.941 667.185 Q132.941 664.523 131.042 663.111 Q129.167 661.676 125.649 661.676 Q123.728 661.676 121.529 662.092 Q119.33 662.509 116.691 663.389 L116.691 659.222 Q119.353 658.481 121.668 658.111 Q124.005 657.741 126.066 657.741 Q131.39 657.741 134.492 660.171 Q137.593 662.579 137.593 666.699 Q137.593 669.569 135.95 671.56 Q134.306 673.528 131.274 674.291 Z" fill="#000000" fill-rule="evenodd" fill-opacity="1" /><path clip-path="url(#clip440)" d="M147.269 687.046 L152.153 687.046 L152.153 692.926 L147.269 692.926 L147.269 687.046 Z" fill="#000000" fill-rule="evenodd" fill-opacity="1" /><path clip-path="url(#clip440)" d="M172.339 676.514 Q169.005 676.514 167.084 678.296 Q165.186 680.078 165.186 683.203 Q165.186 686.328 167.084 688.111 Q169.005 689.893 172.339 689.893 Q175.672 689.893 177.593 688.111 Q179.514 686.305 179.514 683.203 Q179.514 680.078 177.593 678.296 Q175.695 676.514 172.339 676.514 M167.663 674.523 Q164.653 673.782 162.964 671.722 Q161.297 669.662 161.297 666.699 Q161.297 662.555 164.237 660.148 Q167.2 657.741 172.339 657.741 Q177.501 657.741 180.44 660.148 Q183.38 662.555 183.38 666.699 Q183.38 669.662 181.69 671.722 Q180.024 673.782 177.038 674.523 Q180.417 675.31 182.292 677.602 Q184.19 679.893 184.19 683.203 Q184.19 688.227 181.112 690.912 Q178.056 693.597 172.339 693.597 Q166.621 693.597 163.542 690.912 Q160.487 688.227 160.487 683.203 Q160.487 679.893 162.385 677.602 Q164.283 675.31 167.663 674.523 M165.95 667.139 Q165.95 669.824 167.616 671.329 Q169.306 672.833 172.339 672.833 Q175.348 672.833 177.038 671.329 Q178.751 669.824 178.751 667.139 Q178.751 664.454 177.038 662.949 Q175.348 661.444 172.339 661.444 Q169.306 661.444 167.616 662.949 Q165.95 664.454 165.95 667.139 Z" fill="#000000" fill-rule="evenodd" fill-opacity="1" /><path clip-path="url(#clip440)" d="M131.367 452.931 Q134.723 453.648 136.598 455.917 Q138.496 458.185 138.496 461.519 Q138.496 466.634 134.978 469.435 Q131.459 472.236 124.978 472.236 Q122.802 472.236 120.487 471.796 Q118.195 471.38 115.742 470.523 L115.742 466.009 Q117.686 467.144 120.001 467.722 Q122.316 468.301 124.839 468.301 Q129.237 468.301 131.529 466.565 Q133.843 464.829 133.843 461.519 Q133.843 458.463 131.691 456.75 Q129.561 455.014 125.742 455.014 L121.714 455.014 L121.714 451.171 L125.927 451.171 Q129.376 451.171 131.205 449.806 Q133.033 448.417 133.033 445.824 Q133.033 443.162 131.135 441.75 Q129.26 440.315 125.742 440.315 Q123.82 440.315 121.621 440.732 Q119.422 441.148 116.783 442.028 L116.783 437.861 Q119.445 437.121 121.76 436.75 Q124.098 436.38 126.158 436.38 Q131.482 436.38 134.584 438.81 Q137.686 441.218 137.686 445.338 Q137.686 448.209 136.042 450.199 Q134.399 452.167 131.367 452.931 Z" fill="#000000" fill-rule="evenodd" fill-opacity="1" /><path clip-path="url(#clip440)" d="M147.362 465.685 L152.246 465.685 L152.246 471.565 L147.362 471.565 L147.362 465.685 Z" fill="#000000" fill-rule="evenodd" fill-opacity="1" /><path clip-path="url(#clip440)" d="M162.57 470.847 L162.57 466.588 Q164.329 467.421 166.135 467.861 Q167.94 468.301 169.677 468.301 Q174.306 468.301 176.737 465.199 Q179.19 462.074 179.538 455.732 Q178.195 457.722 176.135 458.787 Q174.075 459.852 171.575 459.852 Q166.39 459.852 163.357 456.727 Q160.348 453.579 160.348 448.139 Q160.348 442.815 163.496 439.597 Q166.644 436.38 171.876 436.38 Q177.871 436.38 181.019 440.986 Q184.19 445.57 184.19 454.32 Q184.19 462.491 180.301 467.375 Q176.436 472.236 169.885 472.236 Q168.126 472.236 166.32 471.889 Q164.515 471.542 162.57 470.847 M171.876 456.195 Q175.024 456.195 176.852 454.042 Q178.704 451.889 178.704 448.139 Q178.704 444.412 176.852 442.259 Q175.024 440.084 171.876 440.084 Q168.727 440.084 166.876 442.259 Q165.047 444.412 165.047 448.139 Q165.047 451.889 166.876 454.042 Q168.727 456.195 171.876 456.195 Z" fill="#000000" fill-rule="evenodd" fill-opacity="1" /><path clip-path="url(#clip440)" d="M129.862 219.718 L118.056 238.167 L129.862 238.167 L129.862 219.718 M128.635 215.644 L134.515 215.644 L134.515 238.167 L139.445 238.167 L139.445 242.056 L134.515 242.056 L134.515 250.204 L129.862 250.204 L129.862 242.056 L114.26 242.056 L114.26 237.542 L128.635 215.644 Z" fill="#000000" fill-rule="evenodd" fill-opacity="1" /><path clip-path="url(#clip440)" d="M147.177 244.324 L152.061 244.324 L152.061 250.204 L147.177 250.204 L147.177 244.324 Z" fill="#000000" fill-rule="evenodd" fill-opacity="1" /><path clip-path="url(#clip440)" d="M172.246 218.723 Q168.635 218.723 166.806 222.288 Q165.001 225.829 165.001 232.959 Q165.001 240.065 166.806 243.63 Q168.635 247.172 172.246 247.172 Q175.88 247.172 177.686 243.63 Q179.514 240.065 179.514 232.959 Q179.514 225.829 177.686 222.288 Q175.88 218.723 172.246 218.723 M172.246 215.019 Q178.056 215.019 181.112 219.626 Q184.19 224.209 184.19 232.959 Q184.19 241.686 181.112 246.292 Q178.056 250.875 172.246 250.875 Q166.436 250.875 163.357 246.292 Q160.302 241.686 160.302 232.959 Q160.302 224.209 163.357 219.626 Q166.436 215.019 172.246 215.019 Z" fill="#000000" fill-rule="evenodd" fill-opacity="1" /><path clip-path="url(#clip440)" d="M35.1993 829.203 Q31.2526 827.007 29.3747 823.951 Q27.4968 820.896 27.4968 816.758 Q27.4968 811.188 31.4117 808.164 Q35.2948 805.141 42.4881 805.141 L64.0042 805.141 L64.0042 811.029 L42.679 811.029 Q37.5546 811.029 35.072 812.843 Q32.5894 814.657 32.5894 818.381 Q32.5894 822.933 35.6131 825.574 Q38.6368 828.216 43.8567 828.216 L64.0042 828.216 L64.0042 834.105 L42.679 834.105 Q37.5228 834.105 35.072 835.919 Q32.5894 837.733 32.5894 841.521 Q32.5894 846.008 35.6449 848.65 Q38.6686 851.292 43.8567 851.292 L64.0042 851.292 L64.0042 857.18 L28.3562 857.18 L28.3562 851.292 L33.8944 851.292 Q30.616 849.287 29.0564 846.486 Q27.4968 843.685 27.4968 839.834 Q27.4968 835.951 29.4702 833.245 Q31.4436 830.508 35.1993 829.203 Z" fill="#000000" fill-rule="evenodd" fill-opacity="1" /><path clip-path="url(#clip440)" d="M28.3562 793.459 L28.3562 787.603 L64.0042 787.603 L64.0042 793.459 L28.3562 793.459 M14.479 793.459 L14.479 787.603 L21.895 787.603 L21.895 793.459 L14.479 793.459 Z" fill="#000000" fill-rule="evenodd" fill-opacity="1" /><path clip-path="url(#clip440)" d="M42.4881 745.717 L64.0042 745.717 L64.0042 751.573 L42.679 751.573 Q37.6183 751.573 35.1038 753.547 Q32.5894 755.52 32.5894 759.467 Q32.5894 764.209 35.6131 766.946 Q38.6368 769.684 43.8567 769.684 L64.0042 769.684 L64.0042 775.572 L28.3562 775.572 L28.3562 769.684 L33.8944 769.684 Q30.6797 767.583 29.0883 764.75 Q27.4968 761.886 27.4968 758.162 Q27.4968 752.019 31.3163 748.868 Q35.1038 745.717 42.4881 745.717 Z" fill="#000000" fill-rule="evenodd" fill-opacity="1" /><path clip-path="url(#clip440)" d="M74.8259 706.95 L79.3773 706.95 L79.3773 740.815 L74.8259 740.815 L74.8259 706.95 Z" fill="#000000" fill-rule="evenodd" fill-opacity="1" /><path clip-path="url(#clip440)" d="M33.7671 677.986 L14.479 677.986 L14.479 672.129 L64.0042 672.129 L64.0042 677.986 L58.657 677.986 Q61.8398 679.832 63.3994 682.664 Q64.9272 685.465 64.9272 689.412 Q64.9272 695.873 59.771 699.947 Q54.6147 703.989 46.212 703.989 Q37.8093 703.989 32.6531 699.947 Q27.4968 695.873 27.4968 689.412 Q27.4968 685.465 29.0564 682.664 Q30.5842 679.832 33.7671 677.986 M46.212 697.942 Q52.6732 697.942 56.3653 695.3 Q60.0256 692.627 60.0256 687.98 Q60.0256 683.333 56.3653 680.659 Q52.6732 677.986 46.212 677.986 Q39.7508 677.986 36.0905 680.659 Q32.3984 683.333 32.3984 687.98 Q32.3984 692.627 36.0905 695.3 Q39.7508 697.942 46.212 697.942 Z" fill="#000000" fill-rule="evenodd" fill-opacity="1" /><path clip-path="url(#clip440)" d="M28.3562 660.066 L28.3562 654.21 L64.0042 654.21 L64.0042 660.066 L28.3562 660.066 M14.479 660.066 L14.479 654.21 L21.895 654.21 L21.895 660.066 L14.479 660.066 Z" fill="#000000" fill-rule="evenodd" fill-opacity="1" /><path clip-path="url(#clip440)" d="M14.479 623.909 L19.3487 623.909 L19.3487 629.511 Q19.3487 632.662 20.6219 633.903 Q21.895 635.113 25.2052 635.113 L28.3562 635.113 L28.3562 625.468 L32.9077 625.468 L32.9077 635.113 L64.0042 635.113 L64.0042 641.001 L32.9077 641.001 L32.9077 646.603 L28.3562 646.603 L28.3562 641.001 L25.8736 641.001 Q19.9216 641.001 17.2162 638.232 Q14.479 635.463 14.479 629.447 L14.479 623.909 Z" fill="#000000" fill-rule="evenodd" fill-opacity="1" /><path clip-path="url(#clip440)" d="M14.479 600.961 L19.3487 600.961 L19.3487 606.562 Q19.3487 609.713 20.6219 610.955 Q21.895 612.164 25.2052 612.164 L28.3562 612.164 L28.3562 602.52 L32.9077 602.52 L32.9077 612.164 L64.0042 612.164 L64.0042 618.052 L32.9077 618.052 L32.9077 623.654 L28.3562 623.654 L28.3562 618.052 L25.8736 618.052 Q19.9216 618.052 17.2162 615.283 Q14.479 612.514 14.479 606.499 L14.479 600.961 Z" fill="#000000" fill-rule="evenodd" fill-opacity="1" /><polyline clip-path="url(#clip442)" style="stroke:#009af9; stroke-linecap:butt; stroke-linejoin:round; stroke-width:20; stroke-opacity:1; fill:none" stroke-dasharray="80, 50" points="
  280.546,1248.46 1286.47,1372.3 2292.4,85.838 
  "/>
<path clip-path="url(#clip440)" d="
M1992.29 196.379 L2281.67 196.379 L2281.67 92.6992 L1992.29 92.6992  Z
  " fill="#ffffff" fill-rule="evenodd" fill-opacity="1"/>
<polyline clip-path="url(#clip440)" style="stroke:#000000; stroke-linecap:butt; stroke-linejoin:round; stroke-width:4; stroke-opacity:1; fill:none" points="
  1992.29,196.379 2281.67,196.379 2281.67,92.6992 1992.29,92.6992 1992.29,196.379 
  "/>
<polyline clip-path="url(#clip440)" style="stroke:#009af9; stroke-linecap:butt; stroke-linejoin:round; stroke-width:4; stroke-opacity:1; fill:none" stroke-dasharray="16, 10" points="
  2015.98,144.539 2158.15,144.539 
  "/>
<path clip-path="url(#clip440)" d="M2195.69 164.227 Q2193.89 168.856 2192.17 170.268 Q2190.46 171.68 2187.59 171.68 L2184.19 171.68 L2184.19 168.115 L2186.69 168.115 Q2188.45 168.115 2189.42 167.282 Q2190.39 166.449 2191.57 163.347 L2192.34 161.403 L2181.85 135.893 L2186.36 135.893 L2194.47 156.171 L2202.57 135.893 L2207.08 135.893 L2195.69 164.227 Z" fill="#000000" fill-rule="evenodd" fill-opacity="1" /><path clip-path="url(#clip440)" d="M2214.37 157.884 L2222.01 157.884 L2222.01 131.518 L2213.7 133.185 L2213.7 128.926 L2221.97 127.259 L2226.64 127.259 L2226.64 157.884 L2234.28 157.884 L2234.28 161.819 L2214.37 161.819 L2214.37 157.884 Z" fill="#000000" fill-rule="evenodd" fill-opacity="1" /></svg>
