<?xml version="1.0" encoding="utf-8"?>
<svg xmlns="http://www.w3.org/2000/svg" xmlns:xlink="http://www.w3.org/1999/xlink" width="600" height="400" viewBox="0 0 2400 1600">
<defs>
  <clipPath id="clip040">
    <rect x="0" y="0" width="2400" height="1600"/>
  </clipPath>
</defs>
<path clip-path="url(#clip040)" d="
M0 1600 L2400 1600 L2400 0 L0 0  Z
  " fill="#ffffff" fill-rule="evenodd" fill-opacity="1"/>
<defs>
  <clipPath id="clip041">
    <rect x="480" y="0" width="1681" height="1600"/>
  </clipPath>
</defs>
<path clip-path="url(#clip040)" d="
M415.097 1410.9 L2352.76 1410.9 L2352.76 47.2441 L415.097 47.2441  Z
  " fill="#ffffff" fill-rule="evenodd" fill-opacity="1"/>
<defs>
  <clipPath id="clip042">
    <rect x="415" y="47" width="1939" height="1365"/>
  </clipPath>
</defs>
<polyline clip-path="url(#clip042)" style="stroke:#000000; stroke-linecap:round; stroke-linejoin:round; stroke-width:2; stroke-opacity:0.1; fill:none" points="
  631.099,1410.9 631.099,47.2441 
  "/>
<polyline clip-path="url(#clip042)" style="stroke:#000000; stroke-linecap:round; stroke-linejoin:round; stroke-width:2; stroke-opacity:0.1; fill:none" points="
  1671.52,1410.9 1671.52,47.2441 
  "/>
<polyline clip-path="url(#clip040)" style="stroke:#000000; stroke-linecap:round; stroke-linejoin:round; stroke-width:4; stroke-opacity:1; fill:none" points="
  415.097,1410.9 2352.76,1410.9 
  "/>
<polyline clip-path="url(#clip040)" style="stroke:#000000; stroke-linecap:round; stroke-linejoin:round; stroke-width:4; stroke-opacity:1; fill:none" points="
  631.099,1410.9 631.099,1392 
  "/>
<polyline clip-path="url(#clip040)" style="stroke:#000000; stroke-linecap:round; stroke-linejoin:round; stroke-width:4; stroke-opacity:1; fill:none" points="
  1671.52,1410.9 1671.52,1392 
  "/>
<path clip-path="url(#clip040)" d="M596.082 1485.02 L603.721 1485.02 L603.721 1458.66 L595.411 1460.32 L595.411 1456.06 L603.675 1454.4 L608.351 1454.4 L608.351 1485.02 L615.99 1485.02 L615.99 1488.96 L596.082 1488.96 L596.082 1485.02 Z" fill="#000000" fill-rule="evenodd" fill-opacity="1" /><path clip-path="url(#clip040)" d="M635.434 1457.48 Q631.823 1457.48 629.994 1461.04 Q628.189 1464.58 628.189 1471.71 Q628.189 1478.82 629.994 1482.38 Q631.823 1485.92 635.434 1485.92 Q639.068 1485.92 640.874 1482.38 Q642.702 1478.82 642.702 1471.71 Q642.702 1464.58 640.874 1461.04 Q639.068 1457.48 635.434 1457.48 M635.434 1453.77 Q641.244 1453.77 644.3 1458.38 Q647.378 1462.96 647.378 1471.71 Q647.378 1480.44 644.3 1485.04 Q641.244 1489.63 635.434 1489.63 Q629.624 1489.63 626.545 1485.04 Q623.489 1480.44 623.489 1471.71 Q623.489 1462.96 626.545 1458.38 Q629.624 1453.77 635.434 1453.77 Z" fill="#000000" fill-rule="evenodd" fill-opacity="1" /><path clip-path="url(#clip040)" d="M657.083 1435.97 Q654.149 1435.97 652.663 1438.86 Q651.196 1441.74 651.196 1447.53 Q651.196 1453.31 652.663 1456.2 Q654.149 1459.08 657.083 1459.08 Q660.036 1459.08 661.503 1456.2 Q662.989 1453.31 662.989 1447.53 Q662.989 1441.74 661.503 1438.86 Q660.036 1435.97 657.083 1435.97 M657.083 1432.96 Q661.804 1432.96 664.286 1436.7 Q666.788 1440.43 666.788 1447.53 Q666.788 1454.62 664.286 1458.37 Q661.804 1462.09 657.083 1462.09 Q652.362 1462.09 649.861 1458.37 Q647.378 1454.62 647.378 1447.53 Q647.378 1440.43 649.861 1436.7 Q652.362 1432.96 657.083 1432.96 Z" fill="#000000" fill-rule="evenodd" fill-opacity="1" /><path clip-path="url(#clip040)" d="M1637.85 1485.02 L1645.49 1485.02 L1645.49 1458.66 L1637.18 1460.32 L1637.18 1456.06 L1645.44 1454.4 L1650.12 1454.4 L1650.12 1485.02 L1657.76 1485.02 L1657.76 1488.96 L1637.85 1488.96 L1637.85 1485.02 Z" fill="#000000" fill-rule="evenodd" fill-opacity="1" /><path clip-path="url(#clip040)" d="M1677.2 1457.48 Q1673.59 1457.48 1671.76 1461.04 Q1669.95 1464.58 1669.95 1471.71 Q1669.95 1478.82 1671.76 1482.38 Q1673.59 1485.92 1677.2 1485.92 Q1680.83 1485.92 1682.64 1482.38 Q1684.47 1478.82 1684.47 1471.71 Q1684.47 1464.58 1682.64 1461.04 Q1680.83 1457.48 1677.2 1457.48 M1677.2 1453.77 Q1683.01 1453.77 1686.07 1458.38 Q1689.14 1462.96 1689.14 1471.71 Q1689.14 1480.44 1686.07 1485.04 Q1683.01 1489.63 1677.2 1489.63 Q1671.39 1489.63 1668.31 1485.04 Q1665.26 1480.44 1665.26 1471.71 Q1665.26 1462.96 1668.31 1458.38 Q1671.39 1453.77 1677.2 1453.77 Z" fill="#000000" fill-rule="evenodd" fill-opacity="1" /><path clip-path="url(#clip040)" d="M1689.69 1458.35 L1695.9 1458.35 L1695.9 1436.93 L1689.14 1438.28 L1689.14 1434.82 L1695.86 1433.47 L1699.66 1433.47 L1699.66 1458.35 L1705.86 1458.35 L1705.86 1461.55 L1689.69 1461.55 L1689.69 1458.35 Z" fill="#000000" fill-rule="evenodd" fill-opacity="1" /><path clip-path="url(#clip040)" d="M1374.41 1571.99 L1374.41 1587.74 L1368.52 1587.74 L1368.52 1538.76 Q1368.52 1524.25 1382.08 1524.25 Q1395.89 1524.25 1395.89 1536.5 Q1395.89 1545.22 1390.42 1548.4 Q1399.33 1551.27 1399.33 1559.77 Q1399.33 1574.85 1383.99 1574.85 Q1377.24 1574.85 1374.41 1571.99 M1374.41 1564.35 Q1377.94 1569.86 1384.21 1569.86 Q1393.38 1569.86 1393.38 1559.86 Q1393.38 1550.89 1378.61 1551.59 L1378.61 1546.18 Q1390.16 1546.18 1390.16 1535.99 Q1390.16 1529.02 1382.72 1529.02 Q1374.41 1529.02 1374.41 1538.95 L1374.41 1564.35 Z" fill="#000000" fill-rule="evenodd" fill-opacity="1" /><polyline clip-path="url(#clip042)" style="stroke:#000000; stroke-linecap:round; stroke-linejoin:round; stroke-width:2; stroke-opacity:0.1; fill:none" points="
  415.097,1314.41 2352.76,1314.41 
  "/>
<polyline clip-path="url(#clip042)" style="stroke:#000000; stroke-linecap:round; stroke-linejoin:round; stroke-width:2; stroke-opacity:0.1; fill:none" points="
  415.097,1046.4 2352.76,1046.4 
  "/>
<polyline clip-path="url(#clip042)" style="stroke:#000000; stroke-linecap:round; stroke-linejoin:round; stroke-width:2; stroke-opacity:0.1; fill:none" points="
  415.097,778.385 2352.76,778.385 
  "/>
<polyline clip-path="url(#clip042)" style="stroke:#000000; stroke-linecap:round; stroke-linejoin:round; stroke-width:2; stroke-opacity:0.1; fill:none" points="
  415.097,510.371 2352.76,510.371 
  "/>
<polyline clip-path="url(#clip042)" style="stroke:#000000; stroke-linecap:round; stroke-linejoin:round; stroke-width:2; stroke-opacity:0.1; fill:none" points="
  415.097,242.358 2352.76,242.358 
  "/>
<polyline clip-path="url(#clip040)" style="stroke:#000000; stroke-linecap:round; stroke-linejoin:round; stroke-width:4; stroke-opacity:1; fill:none" points="
  415.097,1410.9 415.097,47.2441 
  "/>
<polyline clip-path="url(#clip040)" style="stroke:#000000; stroke-linecap:round; stroke-linejoin:round; stroke-width:4; stroke-opacity:1; fill:none" points="
  415.097,1314.41 433.994,1314.41 
  "/>
<polyline clip-path="url(#clip040)" style="stroke:#000000; stroke-linecap:round; stroke-linejoin:round; stroke-width:4; stroke-opacity:1; fill:none" points="
  415.097,1046.4 433.994,1046.4 
  "/>
<polyline clip-path="url(#clip040)" style="stroke:#000000; stroke-linecap:round; stroke-linejoin:round; stroke-width:4; stroke-opacity:1; fill:none" points="
  415.097,778.385 433.994,778.385 
  "/>
<polyline clip-path="url(#clip040)" style="stroke:#000000; stroke-linecap:round; stroke-linejoin:round; stroke-width:4; stroke-opacity:1; fill:none" points="
  415.097,510.371 433.994,510.371 
  "/>
<polyline clip-path="url(#clip040)" style="stroke:#000000; stroke-linecap:round; stroke-linejoin:round; stroke-width:4; stroke-opacity:1; fill:none" points="
  415.097,242.358 433.994,242.358 
  "/>
<path clip-path="url(#clip040)" d="M119.885 1327.76 L136.204 1327.76 L136.204 1331.69 L114.26 1331.69 L114.26 1327.76 Q116.922 1325 121.505 1320.37 Q126.112 1315.72 127.292 1314.38 Q129.538 1311.85 130.417 1310.12 Q131.32 1308.36 131.32 1306.67 Q131.32 1303.91 129.376 1302.18 Q127.455 1300.44 124.353 1300.44 Q122.154 1300.44 119.7 1301.21 Q117.269 1301.97 114.492 1303.52 L114.492 1298.8 Q117.316 1297.66 119.769 1297.09 Q122.223 1296.51 124.26 1296.51 Q129.63 1296.51 132.825 1299.19 Q136.019 1301.88 136.019 1306.37 Q136.019 1308.5 135.209 1310.42 Q134.422 1312.32 132.316 1314.91 Q131.737 1315.58 128.635 1318.8 Q125.533 1321.99 119.885 1327.76 Z" fill="#000000" fill-rule="evenodd" fill-opacity="1" /><path clip-path="url(#clip040)" d="M150.047 1327.76 L166.366 1327.76 L166.366 1331.69 L144.422 1331.69 L144.422 1327.76 Q147.084 1325 151.667 1320.37 Q156.274 1315.72 157.454 1314.38 Q159.7 1311.85 160.579 1310.12 Q161.482 1308.36 161.482 1306.67 Q161.482 1303.91 159.538 1302.18 Q157.616 1300.44 154.515 1300.44 Q152.316 1300.44 149.862 1301.21 Q147.431 1301.97 144.654 1303.52 L144.654 1298.8 Q147.478 1297.66 149.931 1297.09 Q152.385 1296.51 154.422 1296.51 Q159.792 1296.51 162.987 1299.19 Q166.181 1301.88 166.181 1306.37 Q166.181 1308.5 165.371 1310.42 Q164.584 1312.32 162.477 1314.91 Q161.899 1315.58 158.797 1318.8 Q155.695 1321.99 150.047 1327.76 Z" fill="#000000" fill-rule="evenodd" fill-opacity="1" /><path clip-path="url(#clip040)" d="M190.348 1313.06 Q193.704 1313.78 195.579 1316.04 Q197.477 1318.31 197.477 1321.65 Q197.477 1326.76 193.959 1329.56 Q190.44 1332.36 183.959 1332.36 Q181.783 1332.36 179.468 1331.92 Q177.176 1331.51 174.723 1330.65 L174.723 1326.14 Q176.667 1327.27 178.982 1327.85 Q181.297 1328.43 183.82 1328.43 Q188.218 1328.43 190.51 1326.69 Q192.825 1324.96 192.825 1321.65 Q192.825 1318.59 190.672 1316.88 Q188.542 1315.14 184.723 1315.14 L180.695 1315.14 L180.695 1311.3 L184.908 1311.3 Q188.357 1311.3 190.186 1309.93 Q192.014 1308.54 192.014 1305.95 Q192.014 1303.29 190.116 1301.88 Q188.241 1300.44 184.723 1300.44 Q182.801 1300.44 180.602 1300.86 Q178.403 1301.28 175.764 1302.15 L175.764 1297.99 Q178.426 1297.25 180.741 1296.88 Q183.079 1296.51 185.139 1296.51 Q190.463 1296.51 193.565 1298.94 Q196.667 1301.34 196.667 1305.47 Q196.667 1308.34 195.024 1310.33 Q193.38 1312.29 190.348 1313.06 Z" fill="#000000" fill-rule="evenodd" fill-opacity="1" /><path clip-path="url(#clip040)" d="M220.51 1313.06 Q223.866 1313.78 225.741 1316.04 Q227.639 1318.31 227.639 1321.65 Q227.639 1326.76 224.121 1329.56 Q220.602 1332.36 214.121 1332.36 Q211.945 1332.36 209.63 1331.92 Q207.338 1331.51 204.885 1330.65 L204.885 1326.14 Q206.829 1327.27 209.144 1327.85 Q211.459 1328.43 213.982 1328.43 Q218.38 1328.43 220.672 1326.69 Q222.986 1324.96 222.986 1321.65 Q222.986 1318.59 220.834 1316.88 Q218.704 1315.14 214.885 1315.14 L210.857 1315.14 L210.857 1311.3 L215.07 1311.3 Q218.519 1311.3 220.348 1309.93 Q222.176 1308.54 222.176 1305.95 Q222.176 1303.29 220.278 1301.88 Q218.403 1300.44 214.885 1300.44 Q212.963 1300.44 210.764 1300.86 Q208.565 1301.28 205.926 1302.15 L205.926 1297.99 Q208.588 1297.25 210.903 1296.88 Q213.241 1296.51 215.301 1296.51 Q220.625 1296.51 223.727 1298.94 Q226.829 1301.34 226.829 1305.47 Q226.829 1308.34 225.185 1310.33 Q223.542 1312.29 220.51 1313.06 Z" fill="#000000" fill-rule="evenodd" fill-opacity="1" /><path clip-path="url(#clip040)" d="M247.084 1312.55 Q243.935 1312.55 242.084 1314.7 Q240.255 1316.85 240.255 1320.6 Q240.255 1324.33 242.084 1326.51 Q243.935 1328.66 247.084 1328.66 Q250.232 1328.66 252.06 1326.51 Q253.912 1324.33 253.912 1320.6 Q253.912 1316.85 252.06 1314.7 Q250.232 1312.55 247.084 1312.55 M256.366 1297.9 L256.366 1302.15 Q254.607 1301.32 252.801 1300.88 Q251.019 1300.44 249.259 1300.44 Q244.63 1300.44 242.176 1303.57 Q239.746 1306.69 239.398 1313.01 Q240.764 1311 242.824 1309.93 Q244.884 1308.84 247.361 1308.84 Q252.57 1308.84 255.579 1312.02 Q258.611 1315.16 258.611 1320.6 Q258.611 1325.93 255.463 1329.15 Q252.315 1332.36 247.084 1332.36 Q241.088 1332.36 237.917 1327.78 Q234.746 1323.17 234.746 1314.45 Q234.746 1306.25 238.634 1301.39 Q242.523 1296.51 249.074 1296.51 Q250.833 1296.51 252.616 1296.85 Q254.421 1297.2 256.366 1297.9 Z" fill="#000000" fill-rule="evenodd" fill-opacity="1" /><path clip-path="url(#clip040)" d="M265.486 1297.13 L287.708 1297.13 L287.708 1299.12 L275.162 1331.69 L270.278 1331.69 L282.083 1301.07 L265.486 1301.07 L265.486 1297.13 Z" fill="#000000" fill-rule="evenodd" fill-opacity="1" /><path clip-path="url(#clip040)" d="M295.648 1297.13 L317.87 1297.13 L317.87 1299.12 L305.324 1331.69 L300.44 1331.69 L312.245 1301.07 L295.648 1301.07 L295.648 1297.13 Z" fill="#000000" fill-rule="evenodd" fill-opacity="1" /><path clip-path="url(#clip040)" d="M327.037 1297.13 L345.393 1297.13 L345.393 1301.07 L331.319 1301.07 L331.319 1309.54 Q332.338 1309.19 333.356 1309.03 Q334.375 1308.84 335.393 1308.84 Q341.18 1308.84 344.56 1312.02 Q347.939 1315.19 347.939 1320.6 Q347.939 1326.18 344.467 1329.28 Q340.995 1332.36 334.676 1332.36 Q332.5 1332.36 330.231 1331.99 Q327.986 1331.62 325.578 1330.88 L325.578 1326.18 Q327.662 1327.32 329.884 1327.87 Q332.106 1328.43 334.583 1328.43 Q338.588 1328.43 340.926 1326.32 Q343.264 1324.21 343.264 1320.6 Q343.264 1316.99 340.926 1314.89 Q338.588 1312.78 334.583 1312.78 Q332.708 1312.78 330.833 1313.2 Q328.981 1313.61 327.037 1314.49 L327.037 1297.13 Z" fill="#000000" fill-rule="evenodd" fill-opacity="1" /><path clip-path="url(#clip040)" d="M367.152 1300.21 Q363.541 1300.21 361.713 1303.78 Q359.907 1307.32 359.907 1314.45 Q359.907 1321.55 361.713 1325.12 Q363.541 1328.66 367.152 1328.66 Q370.787 1328.66 372.592 1325.12 Q374.421 1321.55 374.421 1314.45 Q374.421 1307.32 372.592 1303.78 Q370.787 1300.21 367.152 1300.21 M367.152 1296.51 Q372.962 1296.51 376.018 1301.11 Q379.097 1305.7 379.097 1314.45 Q379.097 1323.17 376.018 1327.78 Q372.962 1332.36 367.152 1332.36 Q361.342 1332.36 358.263 1327.78 Q355.208 1323.17 355.208 1314.45 Q355.208 1305.7 358.263 1301.11 Q361.342 1296.51 367.152 1296.51 Z" fill="#000000" fill-rule="evenodd" fill-opacity="1" /><path clip-path="url(#clip040)" d="M119.885 1059.74 L136.204 1059.74 L136.204 1063.68 L114.26 1063.68 L114.26 1059.74 Q116.922 1056.99 121.505 1052.36 Q126.112 1047.71 127.292 1046.36 Q129.538 1043.84 130.417 1042.1 Q131.32 1040.35 131.32 1038.66 Q131.32 1035.9 129.376 1034.16 Q127.455 1032.43 124.353 1032.43 Q122.154 1032.43 119.7 1033.19 Q117.269 1033.96 114.492 1035.51 L114.492 1030.78 Q117.316 1029.65 119.769 1029.07 Q122.223 1028.49 124.26 1028.49 Q129.63 1028.49 132.825 1031.18 Q136.019 1033.86 136.019 1038.35 Q136.019 1040.48 135.209 1042.41 Q134.422 1044.3 132.316 1046.9 Q131.737 1047.57 128.635 1050.78 Q125.533 1053.98 119.885 1059.74 Z" fill="#000000" fill-rule="evenodd" fill-opacity="1" /><path clip-path="url(#clip040)" d="M150.047 1059.74 L166.366 1059.74 L166.366 1063.68 L144.422 1063.68 L144.422 1059.74 Q147.084 1056.99 151.667 1052.36 Q156.274 1047.71 157.454 1046.36 Q159.7 1043.84 160.579 1042.1 Q161.482 1040.35 161.482 1038.66 Q161.482 1035.9 159.538 1034.16 Q157.616 1032.43 154.515 1032.43 Q152.316 1032.43 149.862 1033.19 Q147.431 1033.96 144.654 1035.51 L144.654 1030.78 Q147.478 1029.65 149.931 1029.07 Q152.385 1028.49 154.422 1028.49 Q159.792 1028.49 162.987 1031.18 Q166.181 1033.86 166.181 1038.35 Q166.181 1040.48 165.371 1042.41 Q164.584 1044.3 162.477 1046.9 Q161.899 1047.57 158.797 1050.78 Q155.695 1053.98 150.047 1059.74 Z" fill="#000000" fill-rule="evenodd" fill-opacity="1" /><path clip-path="url(#clip040)" d="M190.348 1045.04 Q193.704 1045.76 195.579 1048.03 Q197.477 1050.3 197.477 1053.63 Q197.477 1058.75 193.959 1061.55 Q190.44 1064.35 183.959 1064.35 Q181.783 1064.35 179.468 1063.91 Q177.176 1063.49 174.723 1062.64 L174.723 1058.12 Q176.667 1059.26 178.982 1059.84 Q181.297 1060.41 183.82 1060.41 Q188.218 1060.41 190.51 1058.68 Q192.825 1056.94 192.825 1053.63 Q192.825 1050.58 190.672 1048.86 Q188.542 1047.13 184.723 1047.13 L180.695 1047.13 L180.695 1043.28 L184.908 1043.28 Q188.357 1043.28 190.186 1041.92 Q192.014 1040.53 192.014 1037.94 Q192.014 1035.28 190.116 1033.86 Q188.241 1032.43 184.723 1032.43 Q182.801 1032.43 180.602 1032.85 Q178.403 1033.26 175.764 1034.14 L175.764 1029.97 Q178.426 1029.23 180.741 1028.86 Q183.079 1028.49 185.139 1028.49 Q190.463 1028.49 193.565 1030.92 Q196.667 1033.33 196.667 1037.45 Q196.667 1040.32 195.024 1042.31 Q193.38 1044.28 190.348 1045.04 Z" fill="#000000" fill-rule="evenodd" fill-opacity="1" /><path clip-path="url(#clip040)" d="M220.51 1045.04 Q223.866 1045.76 225.741 1048.03 Q227.639 1050.3 227.639 1053.63 Q227.639 1058.75 224.121 1061.55 Q220.602 1064.35 214.121 1064.35 Q211.945 1064.35 209.63 1063.91 Q207.338 1063.49 204.885 1062.64 L204.885 1058.12 Q206.829 1059.26 209.144 1059.84 Q211.459 1060.41 213.982 1060.41 Q218.38 1060.41 220.672 1058.68 Q222.986 1056.94 222.986 1053.63 Q222.986 1050.58 220.834 1048.86 Q218.704 1047.13 214.885 1047.13 L210.857 1047.13 L210.857 1043.28 L215.07 1043.28 Q218.519 1043.28 220.348 1041.92 Q222.176 1040.53 222.176 1037.94 Q222.176 1035.28 220.278 1033.86 Q218.403 1032.43 214.885 1032.43 Q212.963 1032.43 210.764 1032.85 Q208.565 1033.26 205.926 1034.14 L205.926 1029.97 Q208.588 1029.23 210.903 1028.86 Q213.241 1028.49 215.301 1028.49 Q220.625 1028.49 223.727 1030.92 Q226.829 1033.33 226.829 1037.45 Q226.829 1040.32 225.185 1042.31 Q223.542 1044.28 220.51 1045.04 Z" fill="#000000" fill-rule="evenodd" fill-opacity="1" /><path clip-path="url(#clip040)" d="M247.084 1044.53 Q243.935 1044.53 242.084 1046.69 Q240.255 1048.84 240.255 1052.59 Q240.255 1056.32 242.084 1058.49 Q243.935 1060.65 247.084 1060.65 Q250.232 1060.65 252.06 1058.49 Q253.912 1056.32 253.912 1052.59 Q253.912 1048.84 252.06 1046.69 Q250.232 1044.53 247.084 1044.53 M256.366 1029.88 L256.366 1034.14 Q254.607 1033.31 252.801 1032.87 Q251.019 1032.43 249.259 1032.43 Q244.63 1032.43 242.176 1035.55 Q239.746 1038.68 239.398 1045 Q240.764 1042.98 242.824 1041.92 Q244.884 1040.83 247.361 1040.83 Q252.57 1040.83 255.579 1044 Q258.611 1047.15 258.611 1052.59 Q258.611 1057.91 255.463 1061.13 Q252.315 1064.35 247.084 1064.35 Q241.088 1064.35 237.917 1059.77 Q234.746 1055.16 234.746 1046.43 Q234.746 1038.24 238.634 1033.38 Q242.523 1028.49 249.074 1028.49 Q250.833 1028.49 252.616 1028.84 Q254.421 1029.19 256.366 1029.88 Z" fill="#000000" fill-rule="evenodd" fill-opacity="1" /><path clip-path="url(#clip040)" d="M276.667 1047.27 Q273.333 1047.27 271.412 1049.05 Q269.514 1050.83 269.514 1053.96 Q269.514 1057.08 271.412 1058.86 Q273.333 1060.65 276.667 1060.65 Q280 1060.65 281.921 1058.86 Q283.843 1057.06 283.843 1053.96 Q283.843 1050.83 281.921 1049.05 Q280.023 1047.27 276.667 1047.27 M271.991 1045.28 Q268.982 1044.53 267.292 1042.47 Q265.625 1040.41 265.625 1037.45 Q265.625 1033.31 268.565 1030.9 Q271.528 1028.49 276.667 1028.49 Q281.829 1028.49 284.769 1030.9 Q287.708 1033.31 287.708 1037.45 Q287.708 1040.41 286.018 1042.47 Q284.352 1044.53 281.366 1045.28 Q284.745 1046.06 286.62 1048.35 Q288.518 1050.65 288.518 1053.96 Q288.518 1058.98 285.44 1061.66 Q282.384 1064.35 276.667 1064.35 Q270.949 1064.35 267.87 1061.66 Q264.815 1058.98 264.815 1053.96 Q264.815 1050.65 266.713 1048.35 Q268.611 1046.06 271.991 1045.28 M270.278 1037.89 Q270.278 1040.58 271.944 1042.08 Q273.634 1043.59 276.667 1043.59 Q279.676 1043.59 281.366 1042.08 Q283.079 1040.58 283.079 1037.89 Q283.079 1035.21 281.366 1033.7 Q279.676 1032.2 276.667 1032.2 Q273.634 1032.2 271.944 1033.7 Q270.278 1035.21 270.278 1037.89 Z" fill="#000000" fill-rule="evenodd" fill-opacity="1" /><path clip-path="url(#clip040)" d="M306.829 1032.2 Q303.217 1032.2 301.389 1035.76 Q299.583 1039.3 299.583 1046.43 Q299.583 1053.54 301.389 1057.1 Q303.217 1060.65 306.829 1060.65 Q310.463 1060.65 312.268 1057.1 Q314.097 1053.54 314.097 1046.43 Q314.097 1039.3 312.268 1035.76 Q310.463 1032.2 306.829 1032.2 M306.829 1028.49 Q312.639 1028.49 315.694 1033.1 Q318.773 1037.68 318.773 1046.43 Q318.773 1055.16 315.694 1059.77 Q312.639 1064.35 306.829 1064.35 Q301.018 1064.35 297.94 1059.77 Q294.884 1055.16 294.884 1046.43 Q294.884 1037.68 297.94 1033.1 Q301.018 1028.49 306.829 1028.49 Z" fill="#000000" fill-rule="evenodd" fill-opacity="1" /><path clip-path="url(#clip040)" d="M336.99 1032.2 Q333.379 1032.2 331.551 1035.76 Q329.745 1039.3 329.745 1046.43 Q329.745 1053.54 331.551 1057.1 Q333.379 1060.65 336.99 1060.65 Q340.625 1060.65 342.43 1057.1 Q344.259 1053.54 344.259 1046.43 Q344.259 1039.3 342.43 1035.76 Q340.625 1032.2 336.99 1032.2 M336.99 1028.49 Q342.801 1028.49 345.856 1033.1 Q348.935 1037.68 348.935 1046.43 Q348.935 1055.16 345.856 1059.77 Q342.801 1064.35 336.99 1064.35 Q331.18 1064.35 328.102 1059.77 Q325.046 1055.16 325.046 1046.43 Q325.046 1037.68 328.102 1033.1 Q331.18 1028.49 336.99 1028.49 Z" fill="#000000" fill-rule="evenodd" fill-opacity="1" /><path clip-path="url(#clip040)" d="M367.152 1032.2 Q363.541 1032.2 361.713 1035.76 Q359.907 1039.3 359.907 1046.43 Q359.907 1053.54 361.713 1057.1 Q363.541 1060.65 367.152 1060.65 Q370.787 1060.65 372.592 1057.1 Q374.421 1053.54 374.421 1046.43 Q374.421 1039.3 372.592 1035.76 Q370.787 1032.2 367.152 1032.2 M367.152 1028.49 Q372.962 1028.49 376.018 1033.1 Q379.097 1037.68 379.097 1046.43 Q379.097 1055.16 376.018 1059.77 Q372.962 1064.35 367.152 1064.35 Q361.342 1064.35 358.263 1059.77 Q355.208 1055.16 355.208 1046.43 Q355.208 1037.68 358.263 1033.1 Q361.342 1028.49 367.152 1028.49 Z" fill="#000000" fill-rule="evenodd" fill-opacity="1" /><path clip-path="url(#clip040)" d="M119.885 791.73 L136.204 791.73 L136.204 795.665 L114.26 795.665 L114.26 791.73 Q116.922 788.975 121.505 784.345 Q126.112 779.693 127.292 778.35 Q129.538 775.827 130.417 774.091 Q131.32 772.332 131.32 770.642 Q131.32 767.887 129.376 766.151 Q127.455 764.415 124.353 764.415 Q122.154 764.415 119.7 765.179 Q117.269 765.943 114.492 767.494 L114.492 762.772 Q117.316 761.637 119.769 761.059 Q122.223 760.48 124.26 760.48 Q129.63 760.48 132.825 763.165 Q136.019 765.85 136.019 770.341 Q136.019 772.471 135.209 774.392 Q134.422 776.29 132.316 778.883 Q131.737 779.554 128.635 782.771 Q125.533 785.966 119.885 791.73 Z" fill="#000000" fill-rule="evenodd" fill-opacity="1" /><path clip-path="url(#clip040)" d="M150.047 791.73 L166.366 791.73 L166.366 795.665 L144.422 795.665 L144.422 791.73 Q147.084 788.975 151.667 784.345 Q156.274 779.693 157.454 778.35 Q159.7 775.827 160.579 774.091 Q161.482 772.332 161.482 770.642 Q161.482 767.887 159.538 766.151 Q157.616 764.415 154.515 764.415 Q152.316 764.415 149.862 765.179 Q147.431 765.943 144.654 767.494 L144.654 762.772 Q147.478 761.637 149.931 761.059 Q152.385 760.48 154.422 760.48 Q159.792 760.48 162.987 763.165 Q166.181 765.85 166.181 770.341 Q166.181 772.471 165.371 774.392 Q164.584 776.29 162.477 778.883 Q161.899 779.554 158.797 782.771 Q155.695 785.966 150.047 791.73 Z" fill="#000000" fill-rule="evenodd" fill-opacity="1" /><path clip-path="url(#clip040)" d="M190.348 777.031 Q193.704 777.748 195.579 780.017 Q197.477 782.285 197.477 785.619 Q197.477 790.734 193.959 793.535 Q190.44 796.336 183.959 796.336 Q181.783 796.336 179.468 795.896 Q177.176 795.48 174.723 794.623 L174.723 790.109 Q176.667 791.244 178.982 791.822 Q181.297 792.401 183.82 792.401 Q188.218 792.401 190.51 790.665 Q192.825 788.929 192.825 785.619 Q192.825 782.563 190.672 780.85 Q188.542 779.114 184.723 779.114 L180.695 779.114 L180.695 775.271 L184.908 775.271 Q188.357 775.271 190.186 773.906 Q192.014 772.517 192.014 769.924 Q192.014 767.262 190.116 765.85 Q188.241 764.415 184.723 764.415 Q182.801 764.415 180.602 764.832 Q178.403 765.248 175.764 766.128 L175.764 761.961 Q178.426 761.221 180.741 760.85 Q183.079 760.48 185.139 760.48 Q190.463 760.48 193.565 762.91 Q196.667 765.318 196.667 769.438 Q196.667 772.308 195.024 774.299 Q193.38 776.267 190.348 777.031 Z" fill="#000000" fill-rule="evenodd" fill-opacity="1" /><path clip-path="url(#clip040)" d="M220.51 777.031 Q223.866 777.748 225.741 780.017 Q227.639 782.285 227.639 785.619 Q227.639 790.734 224.121 793.535 Q220.602 796.336 214.121 796.336 Q211.945 796.336 209.63 795.896 Q207.338 795.48 204.885 794.623 L204.885 790.109 Q206.829 791.244 209.144 791.822 Q211.459 792.401 213.982 792.401 Q218.38 792.401 220.672 790.665 Q222.986 788.929 222.986 785.619 Q222.986 782.563 220.834 780.85 Q218.704 779.114 214.885 779.114 L210.857 779.114 L210.857 775.271 L215.07 775.271 Q218.519 775.271 220.348 773.906 Q222.176 772.517 222.176 769.924 Q222.176 767.262 220.278 765.85 Q218.403 764.415 214.885 764.415 Q212.963 764.415 210.764 764.832 Q208.565 765.248 205.926 766.128 L205.926 761.961 Q208.588 761.221 210.903 760.85 Q213.241 760.48 215.301 760.48 Q220.625 760.48 223.727 762.91 Q226.829 765.318 226.829 769.438 Q226.829 772.308 225.185 774.299 Q223.542 776.267 220.51 777.031 Z" fill="#000000" fill-rule="evenodd" fill-opacity="1" /><path clip-path="url(#clip040)" d="M247.084 776.521 Q243.935 776.521 242.084 778.674 Q240.255 780.827 240.255 784.577 Q240.255 788.304 242.084 790.48 Q243.935 792.632 247.084 792.632 Q250.232 792.632 252.06 790.48 Q253.912 788.304 253.912 784.577 Q253.912 780.827 252.06 778.674 Q250.232 776.521 247.084 776.521 M256.366 761.869 L256.366 766.128 Q254.607 765.295 252.801 764.855 Q251.019 764.415 249.259 764.415 Q244.63 764.415 242.176 767.54 Q239.746 770.665 239.398 776.984 Q240.764 774.971 242.824 773.906 Q244.884 772.818 247.361 772.818 Q252.57 772.818 255.579 775.989 Q258.611 779.137 258.611 784.577 Q258.611 789.901 255.463 793.119 Q252.315 796.336 247.084 796.336 Q241.088 796.336 237.917 791.753 Q234.746 787.146 234.746 778.42 Q234.746 770.225 238.634 765.364 Q242.523 760.48 249.074 760.48 Q250.833 760.48 252.616 760.827 Q254.421 761.174 256.366 761.869 Z" fill="#000000" fill-rule="evenodd" fill-opacity="1" /><path clip-path="url(#clip040)" d="M276.667 779.253 Q273.333 779.253 271.412 781.035 Q269.514 782.818 269.514 785.943 Q269.514 789.068 271.412 790.85 Q273.333 792.632 276.667 792.632 Q280 792.632 281.921 790.85 Q283.843 789.045 283.843 785.943 Q283.843 782.818 281.921 781.035 Q280.023 779.253 276.667 779.253 M271.991 777.262 Q268.982 776.521 267.292 774.461 Q265.625 772.401 265.625 769.438 Q265.625 765.295 268.565 762.887 Q271.528 760.48 276.667 760.48 Q281.829 760.48 284.769 762.887 Q287.708 765.295 287.708 769.438 Q287.708 772.401 286.018 774.461 Q284.352 776.521 281.366 777.262 Q284.745 778.049 286.62 780.341 Q288.518 782.633 288.518 785.943 Q288.518 790.966 285.44 793.651 Q282.384 796.336 276.667 796.336 Q270.949 796.336 267.87 793.651 Q264.815 790.966 264.815 785.943 Q264.815 782.633 266.713 780.341 Q268.611 778.049 271.991 777.262 M270.278 769.878 Q270.278 772.563 271.944 774.068 Q273.634 775.572 276.667 775.572 Q279.676 775.572 281.366 774.068 Q283.079 772.563 283.079 769.878 Q283.079 767.193 281.366 765.688 Q279.676 764.184 276.667 764.184 Q273.634 764.184 271.944 765.688 Q270.278 767.193 270.278 769.878 Z" fill="#000000" fill-rule="evenodd" fill-opacity="1" /><path clip-path="url(#clip040)" d="M300.856 791.73 L317.176 791.73 L317.176 795.665 L295.231 795.665 L295.231 791.73 Q297.893 788.975 302.477 784.345 Q307.083 779.693 308.264 778.35 Q310.509 775.827 311.389 774.091 Q312.292 772.332 312.292 770.642 Q312.292 767.887 310.347 766.151 Q308.426 764.415 305.324 764.415 Q303.125 764.415 300.671 765.179 Q298.241 765.943 295.463 767.494 L295.463 762.772 Q298.287 761.637 300.741 761.059 Q303.194 760.48 305.231 760.48 Q310.602 760.48 313.796 763.165 Q316.991 765.85 316.991 770.341 Q316.991 772.471 316.18 774.392 Q315.393 776.29 313.287 778.883 Q312.708 779.554 309.606 782.771 Q306.504 785.966 300.856 791.73 Z" fill="#000000" fill-rule="evenodd" fill-opacity="1" /><path clip-path="url(#clip040)" d="M327.037 761.105 L345.393 761.105 L345.393 765.04 L331.319 765.04 L331.319 773.512 Q332.338 773.165 333.356 773.003 Q334.375 772.818 335.393 772.818 Q341.18 772.818 344.56 775.989 Q347.939 779.16 347.939 784.577 Q347.939 790.156 344.467 793.257 Q340.995 796.336 334.676 796.336 Q332.5 796.336 330.231 795.966 Q327.986 795.595 325.578 794.855 L325.578 790.156 Q327.662 791.29 329.884 791.845 Q332.106 792.401 334.583 792.401 Q338.588 792.401 340.926 790.295 Q343.264 788.188 343.264 784.577 Q343.264 780.966 340.926 778.859 Q338.588 776.753 334.583 776.753 Q332.708 776.753 330.833 777.17 Q328.981 777.586 327.037 778.466 L327.037 761.105 Z" fill="#000000" fill-rule="evenodd" fill-opacity="1" /><path clip-path="url(#clip040)" d="M367.152 764.184 Q363.541 764.184 361.713 767.748 Q359.907 771.29 359.907 778.42 Q359.907 785.526 361.713 789.091 Q363.541 792.632 367.152 792.632 Q370.787 792.632 372.592 789.091 Q374.421 785.526 374.421 778.42 Q374.421 771.29 372.592 767.748 Q370.787 764.184 367.152 764.184 M367.152 760.48 Q372.962 760.48 376.018 765.086 Q379.097 769.67 379.097 778.42 Q379.097 787.146 376.018 791.753 Q372.962 796.336 367.152 796.336 Q361.342 796.336 358.263 791.753 Q355.208 787.146 355.208 778.42 Q355.208 769.67 358.263 765.086 Q361.342 760.48 367.152 760.48 Z" fill="#000000" fill-rule="evenodd" fill-opacity="1" /><path clip-path="url(#clip040)" d="M119.885 523.716 L136.204 523.716 L136.204 527.651 L114.26 527.651 L114.26 523.716 Q116.922 520.962 121.505 516.332 Q126.112 511.679 127.292 510.337 Q129.538 507.814 130.417 506.077 Q131.32 504.318 131.32 502.628 Q131.32 499.874 129.376 498.138 Q127.455 496.402 124.353 496.402 Q122.154 496.402 119.7 497.165 Q117.269 497.929 114.492 499.48 L114.492 494.758 Q117.316 493.624 119.769 493.045 Q122.223 492.466 124.26 492.466 Q129.63 492.466 132.825 495.152 Q136.019 497.837 136.019 502.327 Q136.019 504.457 135.209 506.378 Q134.422 508.276 132.316 510.869 Q131.737 511.54 128.635 514.758 Q125.533 517.952 119.885 523.716 Z" fill="#000000" fill-rule="evenodd" fill-opacity="1" /><path clip-path="url(#clip040)" d="M150.047 523.716 L166.366 523.716 L166.366 527.651 L144.422 527.651 L144.422 523.716 Q147.084 520.962 151.667 516.332 Q156.274 511.679 157.454 510.337 Q159.7 507.814 160.579 506.077 Q161.482 504.318 161.482 502.628 Q161.482 499.874 159.538 498.138 Q157.616 496.402 154.515 496.402 Q152.316 496.402 149.862 497.165 Q147.431 497.929 144.654 499.48 L144.654 494.758 Q147.478 493.624 149.931 493.045 Q152.385 492.466 154.422 492.466 Q159.792 492.466 162.987 495.152 Q166.181 497.837 166.181 502.327 Q166.181 504.457 165.371 506.378 Q164.584 508.276 162.477 510.869 Q161.899 511.54 158.797 514.758 Q155.695 517.952 150.047 523.716 Z" fill="#000000" fill-rule="evenodd" fill-opacity="1" /><path clip-path="url(#clip040)" d="M190.348 509.017 Q193.704 509.735 195.579 512.003 Q197.477 514.272 197.477 517.605 Q197.477 522.721 193.959 525.522 Q190.44 528.323 183.959 528.323 Q181.783 528.323 179.468 527.883 Q177.176 527.466 174.723 526.61 L174.723 522.096 Q176.667 523.23 178.982 523.809 Q181.297 524.388 183.82 524.388 Q188.218 524.388 190.51 522.651 Q192.825 520.915 192.825 517.605 Q192.825 514.55 190.672 512.837 Q188.542 511.101 184.723 511.101 L180.695 511.101 L180.695 507.258 L184.908 507.258 Q188.357 507.258 190.186 505.892 Q192.014 504.503 192.014 501.911 Q192.014 499.249 190.116 497.837 Q188.241 496.402 184.723 496.402 Q182.801 496.402 180.602 496.818 Q178.403 497.235 175.764 498.114 L175.764 493.948 Q178.426 493.207 180.741 492.837 Q183.079 492.466 185.139 492.466 Q190.463 492.466 193.565 494.897 Q196.667 497.304 196.667 501.425 Q196.667 504.295 195.024 506.286 Q193.38 508.253 190.348 509.017 Z" fill="#000000" fill-rule="evenodd" fill-opacity="1" /><path clip-path="url(#clip040)" d="M220.51 509.017 Q223.866 509.735 225.741 512.003 Q227.639 514.272 227.639 517.605 Q227.639 522.721 224.121 525.522 Q220.602 528.323 214.121 528.323 Q211.945 528.323 209.63 527.883 Q207.338 527.466 204.885 526.61 L204.885 522.096 Q206.829 523.23 209.144 523.809 Q211.459 524.388 213.982 524.388 Q218.38 524.388 220.672 522.651 Q222.986 520.915 222.986 517.605 Q222.986 514.55 220.834 512.837 Q218.704 511.101 214.885 511.101 L210.857 511.101 L210.857 507.258 L215.07 507.258 Q218.519 507.258 220.348 505.892 Q222.176 504.503 222.176 501.911 Q222.176 499.249 220.278 497.837 Q218.403 496.402 214.885 496.402 Q212.963 496.402 210.764 496.818 Q208.565 497.235 205.926 498.114 L205.926 493.948 Q208.588 493.207 210.903 492.837 Q213.241 492.466 215.301 492.466 Q220.625 492.466 223.727 494.897 Q226.829 497.304 226.829 501.425 Q226.829 504.295 225.185 506.286 Q223.542 508.253 220.51 509.017 Z" fill="#000000" fill-rule="evenodd" fill-opacity="1" /><path clip-path="url(#clip040)" d="M247.084 508.508 Q243.935 508.508 242.084 510.661 Q240.255 512.813 240.255 516.563 Q240.255 520.29 242.084 522.466 Q243.935 524.619 247.084 524.619 Q250.232 524.619 252.06 522.466 Q253.912 520.29 253.912 516.563 Q253.912 512.813 252.06 510.661 Q250.232 508.508 247.084 508.508 M256.366 493.855 L256.366 498.114 Q254.607 497.281 252.801 496.841 Q251.019 496.402 249.259 496.402 Q244.63 496.402 242.176 499.527 Q239.746 502.652 239.398 508.971 Q240.764 506.957 242.824 505.892 Q244.884 504.804 247.361 504.804 Q252.57 504.804 255.579 507.976 Q258.611 511.124 258.611 516.563 Q258.611 521.888 255.463 525.105 Q252.315 528.323 247.084 528.323 Q241.088 528.323 237.917 523.739 Q234.746 519.133 234.746 510.406 Q234.746 502.212 238.634 497.351 Q242.523 492.466 249.074 492.466 Q250.833 492.466 252.616 492.814 Q254.421 493.161 256.366 493.855 Z" fill="#000000" fill-rule="evenodd" fill-opacity="1" /><path clip-path="url(#clip040)" d="M276.667 511.239 Q273.333 511.239 271.412 513.022 Q269.514 514.804 269.514 517.929 Q269.514 521.054 271.412 522.837 Q273.333 524.619 276.667 524.619 Q280 524.619 281.921 522.837 Q283.843 521.031 283.843 517.929 Q283.843 514.804 281.921 513.022 Q280.023 511.239 276.667 511.239 M271.991 509.249 Q268.982 508.508 267.292 506.448 Q265.625 504.388 265.625 501.425 Q265.625 497.281 268.565 494.874 Q271.528 492.466 276.667 492.466 Q281.829 492.466 284.769 494.874 Q287.708 497.281 287.708 501.425 Q287.708 504.388 286.018 506.448 Q284.352 508.508 281.366 509.249 Q284.745 510.036 286.62 512.327 Q288.518 514.619 288.518 517.929 Q288.518 522.952 285.44 525.637 Q282.384 528.323 276.667 528.323 Q270.949 528.323 267.87 525.637 Q264.815 522.952 264.815 517.929 Q264.815 514.619 266.713 512.327 Q268.611 510.036 271.991 509.249 M270.278 501.864 Q270.278 504.55 271.944 506.054 Q273.634 507.559 276.667 507.559 Q279.676 507.559 281.366 506.054 Q283.079 504.55 283.079 501.864 Q283.079 499.179 281.366 497.675 Q279.676 496.17 276.667 496.17 Q273.634 496.17 271.944 497.675 Q270.278 499.179 270.278 501.864 Z" fill="#000000" fill-rule="evenodd" fill-opacity="1" /><path clip-path="url(#clip040)" d="M296.875 493.091 L315.231 493.091 L315.231 497.027 L301.157 497.027 L301.157 505.499 Q302.176 505.151 303.194 504.989 Q304.213 504.804 305.231 504.804 Q311.018 504.804 314.398 507.976 Q317.778 511.147 317.778 516.563 Q317.778 522.142 314.305 525.244 Q310.833 528.323 304.514 528.323 Q302.338 528.323 300.069 527.952 Q297.824 527.582 295.417 526.841 L295.417 522.142 Q297.5 523.276 299.722 523.832 Q301.944 524.388 304.421 524.388 Q308.426 524.388 310.764 522.281 Q313.102 520.175 313.102 516.563 Q313.102 512.952 310.764 510.846 Q308.426 508.739 304.421 508.739 Q302.546 508.739 300.671 509.156 Q298.819 509.573 296.875 510.452 L296.875 493.091 Z" fill="#000000" fill-rule="evenodd" fill-opacity="1" /><path clip-path="url(#clip040)" d="M336.99 496.17 Q333.379 496.17 331.551 499.735 Q329.745 503.277 329.745 510.406 Q329.745 517.513 331.551 521.077 Q333.379 524.619 336.99 524.619 Q340.625 524.619 342.43 521.077 Q344.259 517.513 344.259 510.406 Q344.259 503.277 342.43 499.735 Q340.625 496.17 336.99 496.17 M336.99 492.466 Q342.801 492.466 345.856 497.073 Q348.935 501.656 348.935 510.406 Q348.935 519.133 345.856 523.739 Q342.801 528.323 336.99 528.323 Q331.18 528.323 328.102 523.739 Q325.046 519.133 325.046 510.406 Q325.046 501.656 328.102 497.073 Q331.18 492.466 336.99 492.466 Z" fill="#000000" fill-rule="evenodd" fill-opacity="1" /><path clip-path="url(#clip040)" d="M367.152 496.17 Q363.541 496.17 361.713 499.735 Q359.907 503.277 359.907 510.406 Q359.907 517.513 361.713 521.077 Q363.541 524.619 367.152 524.619 Q370.787 524.619 372.592 521.077 Q374.421 517.513 374.421 510.406 Q374.421 503.277 372.592 499.735 Q370.787 496.17 367.152 496.17 M367.152 492.466 Q372.962 492.466 376.018 497.073 Q379.097 501.656 379.097 510.406 Q379.097 519.133 376.018 523.739 Q372.962 528.323 367.152 528.323 Q361.342 528.323 358.263 523.739 Q355.208 519.133 355.208 510.406 Q355.208 501.656 358.263 497.073 Q361.342 492.466 367.152 492.466 Z" fill="#000000" fill-rule="evenodd" fill-opacity="1" /><path clip-path="url(#clip040)" d="M119.885 255.703 L136.204 255.703 L136.204 259.638 L114.26 259.638 L114.26 255.703 Q116.922 252.948 121.505 248.319 Q126.112 243.666 127.292 242.323 Q129.538 239.8 130.417 238.064 Q131.32 236.305 131.32 234.615 Q131.32 231.86 129.376 230.124 Q127.455 228.388 124.353 228.388 Q122.154 228.388 119.7 229.152 Q117.269 229.916 114.492 231.467 L114.492 226.745 Q117.316 225.61 119.769 225.032 Q122.223 224.453 124.26 224.453 Q129.63 224.453 132.825 227.138 Q136.019 229.823 136.019 234.314 Q136.019 236.444 135.209 238.365 Q134.422 240.263 132.316 242.856 Q131.737 243.527 128.635 246.744 Q125.533 249.939 119.885 255.703 Z" fill="#000000" fill-rule="evenodd" fill-opacity="1" /><path clip-path="url(#clip040)" d="M150.047 255.703 L166.366 255.703 L166.366 259.638 L144.422 259.638 L144.422 255.703 Q147.084 252.948 151.667 248.319 Q156.274 243.666 157.454 242.323 Q159.7 239.8 160.579 238.064 Q161.482 236.305 161.482 234.615 Q161.482 231.86 159.538 230.124 Q157.616 228.388 154.515 228.388 Q152.316 228.388 149.862 229.152 Q147.431 229.916 144.654 231.467 L144.654 226.745 Q147.478 225.61 149.931 225.032 Q152.385 224.453 154.422 224.453 Q159.792 224.453 162.987 227.138 Q166.181 229.823 166.181 234.314 Q166.181 236.444 165.371 238.365 Q164.584 240.263 162.477 242.856 Q161.899 243.527 158.797 246.744 Q155.695 249.939 150.047 255.703 Z" fill="#000000" fill-rule="evenodd" fill-opacity="1" /><path clip-path="url(#clip040)" d="M190.348 241.004 Q193.704 241.721 195.579 243.99 Q197.477 246.258 197.477 249.592 Q197.477 254.707 193.959 257.508 Q190.44 260.309 183.959 260.309 Q181.783 260.309 179.468 259.869 Q177.176 259.453 174.723 258.596 L174.723 254.082 Q176.667 255.217 178.982 255.795 Q181.297 256.374 183.82 256.374 Q188.218 256.374 190.51 254.638 Q192.825 252.902 192.825 249.592 Q192.825 246.536 190.672 244.823 Q188.542 243.087 184.723 243.087 L180.695 243.087 L180.695 239.244 L184.908 239.244 Q188.357 239.244 190.186 237.879 Q192.014 236.49 192.014 233.897 Q192.014 231.235 190.116 229.823 Q188.241 228.388 184.723 228.388 Q182.801 228.388 180.602 228.805 Q178.403 229.221 175.764 230.101 L175.764 225.934 Q178.426 225.194 180.741 224.823 Q183.079 224.453 185.139 224.453 Q190.463 224.453 193.565 226.883 Q196.667 229.291 196.667 233.411 Q196.667 236.282 195.024 238.272 Q193.38 240.24 190.348 241.004 Z" fill="#000000" fill-rule="evenodd" fill-opacity="1" /><path clip-path="url(#clip040)" d="M220.51 241.004 Q223.866 241.721 225.741 243.99 Q227.639 246.258 227.639 249.592 Q227.639 254.707 224.121 257.508 Q220.602 260.309 214.121 260.309 Q211.945 260.309 209.63 259.869 Q207.338 259.453 204.885 258.596 L204.885 254.082 Q206.829 255.217 209.144 255.795 Q211.459 256.374 213.982 256.374 Q218.38 256.374 220.672 254.638 Q222.986 252.902 222.986 249.592 Q222.986 246.536 220.834 244.823 Q218.704 243.087 214.885 243.087 L210.857 243.087 L210.857 239.244 L215.07 239.244 Q218.519 239.244 220.348 237.879 Q222.176 236.49 222.176 233.897 Q222.176 231.235 220.278 229.823 Q218.403 228.388 214.885 228.388 Q212.963 228.388 210.764 228.805 Q208.565 229.221 205.926 230.101 L205.926 225.934 Q208.588 225.194 210.903 224.823 Q213.241 224.453 215.301 224.453 Q220.625 224.453 223.727 226.883 Q226.829 229.291 226.829 233.411 Q226.829 236.282 225.185 238.272 Q223.542 240.24 220.51 241.004 Z" fill="#000000" fill-rule="evenodd" fill-opacity="1" /><path clip-path="url(#clip040)" d="M247.084 240.494 Q243.935 240.494 242.084 242.647 Q240.255 244.8 240.255 248.55 Q240.255 252.277 242.084 254.453 Q243.935 256.606 247.084 256.606 Q250.232 256.606 252.06 254.453 Q253.912 252.277 253.912 248.55 Q253.912 244.8 252.06 242.647 Q250.232 240.494 247.084 240.494 M256.366 225.842 L256.366 230.101 Q254.607 229.268 252.801 228.828 Q251.019 228.388 249.259 228.388 Q244.63 228.388 242.176 231.513 Q239.746 234.638 239.398 240.957 Q240.764 238.944 242.824 237.879 Q244.884 236.791 247.361 236.791 Q252.57 236.791 255.579 239.962 Q258.611 243.11 258.611 248.55 Q258.611 253.874 255.463 257.092 Q252.315 260.309 247.084 260.309 Q241.088 260.309 237.917 255.726 Q234.746 251.119 234.746 242.393 Q234.746 234.198 238.634 229.337 Q242.523 224.453 249.074 224.453 Q250.833 224.453 252.616 224.8 Q254.421 225.147 256.366 225.842 Z" fill="#000000" fill-rule="evenodd" fill-opacity="1" /><path clip-path="url(#clip040)" d="M276.667 243.226 Q273.333 243.226 271.412 245.008 Q269.514 246.791 269.514 249.916 Q269.514 253.041 271.412 254.823 Q273.333 256.606 276.667 256.606 Q280 256.606 281.921 254.823 Q283.843 253.018 283.843 249.916 Q283.843 246.791 281.921 245.008 Q280.023 243.226 276.667 243.226 M271.991 241.235 Q268.982 240.494 267.292 238.434 Q265.625 236.374 265.625 233.411 Q265.625 229.268 268.565 226.86 Q271.528 224.453 276.667 224.453 Q281.829 224.453 284.769 226.86 Q287.708 229.268 287.708 233.411 Q287.708 236.374 286.018 238.434 Q284.352 240.494 281.366 241.235 Q284.745 242.022 286.62 244.314 Q288.518 246.606 288.518 249.916 Q288.518 254.939 285.44 257.624 Q282.384 260.309 276.667 260.309 Q270.949 260.309 267.87 257.624 Q264.815 254.939 264.815 249.916 Q264.815 246.606 266.713 244.314 Q268.611 242.022 271.991 241.235 M270.278 233.851 Q270.278 236.536 271.944 238.041 Q273.634 239.545 276.667 239.545 Q279.676 239.545 281.366 238.041 Q283.079 236.536 283.079 233.851 Q283.079 231.166 281.366 229.661 Q279.676 228.157 276.667 228.157 Q273.634 228.157 271.944 229.661 Q270.278 231.166 270.278 233.851 Z" fill="#000000" fill-rule="evenodd" fill-opacity="1" /><path clip-path="url(#clip040)" d="M295.648 225.078 L317.87 225.078 L317.87 227.069 L305.324 259.638 L300.44 259.638 L312.245 229.013 L295.648 229.013 L295.648 225.078 Z" fill="#000000" fill-rule="evenodd" fill-opacity="1" /><path clip-path="url(#clip040)" d="M327.037 225.078 L345.393 225.078 L345.393 229.013 L331.319 229.013 L331.319 237.485 Q332.338 237.138 333.356 236.976 Q334.375 236.791 335.393 236.791 Q341.18 236.791 344.56 239.962 Q347.939 243.133 347.939 248.55 Q347.939 254.129 344.467 257.231 Q340.995 260.309 334.676 260.309 Q332.5 260.309 330.231 259.939 Q327.986 259.568 325.578 258.828 L325.578 254.129 Q327.662 255.263 329.884 255.818 Q332.106 256.374 334.583 256.374 Q338.588 256.374 340.926 254.268 Q343.264 252.161 343.264 248.55 Q343.264 244.939 340.926 242.832 Q338.588 240.726 334.583 240.726 Q332.708 240.726 330.833 241.143 Q328.981 241.559 327.037 242.439 L327.037 225.078 Z" fill="#000000" fill-rule="evenodd" fill-opacity="1" /><path clip-path="url(#clip040)" d="M367.152 228.157 Q363.541 228.157 361.713 231.721 Q359.907 235.263 359.907 242.393 Q359.907 249.499 361.713 253.064 Q363.541 256.606 367.152 256.606 Q370.787 256.606 372.592 253.064 Q374.421 249.499 374.421 242.393 Q374.421 235.263 372.592 231.721 Q370.787 228.157 367.152 228.157 M367.152 224.453 Q372.962 224.453 376.018 229.059 Q379.097 233.643 379.097 242.393 Q379.097 251.119 376.018 255.726 Q372.962 260.309 367.152 260.309 Q361.342 260.309 358.263 255.726 Q355.208 251.119 355.208 242.393 Q355.208 233.643 358.263 229.059 Q361.342 224.453 367.152 224.453 Z" fill="#000000" fill-rule="evenodd" fill-opacity="1" /><path clip-path="url(#clip040)" d="M35.1993 829.203 Q31.2526 827.007 29.3747 823.951 Q27.4968 820.896 27.4968 816.758 Q27.4968 811.188 31.4117 808.164 Q35.2948 805.141 42.4881 805.141 L64.0042 805.141 L64.0042 811.029 L42.679 811.029 Q37.5546 811.029 35.072 812.843 Q32.5894 814.657 32.5894 818.381 Q32.5894 822.933 35.6131 825.574 Q38.6368 828.216 43.8567 828.216 L64.0042 828.216 L64.0042 834.105 L42.679 834.105 Q37.5228 834.105 35.072 835.919 Q32.5894 837.733 32.5894 841.521 Q32.5894 846.008 35.6449 848.65 Q38.6686 851.292 43.8567 851.292 L64.0042 851.292 L64.0042 857.18 L28.3562 857.18 L28.3562 851.292 L33.8944 851.292 Q30.616 849.287 29.0564 846.486 Q27.4968 843.685 27.4968 839.834 Q27.4968 835.951 29.4702 833.245 Q31.4436 830.508 35.1993 829.203 Z" fill="#000000" fill-rule="evenodd" fill-opacity="1" /><path clip-path="url(#clip040)" d="M28.3562 793.459 L28.3562 787.603 L64.0042 787.603 L64.0042 793.459 L28.3562 793.459 M14.479 793.459 L14.479 787.603 L21.895 787.603 L21.895 793.459 L14.479 793.459 Z" fill="#000000" fill-rule="evenodd" fill-opacity="1" /><path clip-path="url(#clip040)" d="M42.4881 745.717 L64.0042 745.717 L64.0042 751.573 L42.679 751.573 Q37.6183 751.573 35.1038 753.547 Q32.5894 755.52 32.5894 759.467 Q32.5894 764.209 35.6131 766.946 Q38.6368 769.684 43.8567 769.684 L64.0042 769.684 L64.0042 775.572 L28.3562 775.572 L28.3562 769.684 L33.8944 769.684 Q30.6797 767.583 29.0883 764.75 Q27.4968 761.886 27.4968 758.162 Q27.4968 752.019 31.3163 748.868 Q35.1038 745.717 42.4881 745.717 Z" fill="#000000" fill-rule="evenodd" fill-opacity="1" /><path clip-path="url(#clip040)" d="M74.8259 706.95 L79.3773 706.95 L79.3773 740.815 L74.8259 740.815 L74.8259 706.95 Z" fill="#000000" fill-rule="evenodd" fill-opacity="1" /><path clip-path="url(#clip040)" d="M33.7671 677.986 L14.479 677.986 L14.479 672.129 L64.0042 672.129 L64.0042 677.986 L58.657 677.986 Q61.8398 679.832 63.3994 682.664 Q64.9272 685.465 64.9272 689.412 Q64.9272 695.873 59.771 699.947 Q54.6147 703.989 46.212 703.989 Q37.8093 703.989 32.6531 699.947 Q27.4968 695.873 27.4968 689.412 Q27.4968 685.465 29.0564 682.664 Q30.5842 679.832 33.7671 677.986 M46.212 697.942 Q52.6732 697.942 56.3653 695.3 Q60.0256 692.627 60.0256 687.98 Q60.0256 683.333 56.3653 680.659 Q52.6732 677.986 46.212 677.986 Q39.7508 677.986 36.0905 680.659 Q32.3984 683.333 32.3984 687.98 Q32.3984 692.627 36.0905 695.3 Q39.7508 697.942 46.212 697.942 Z" fill="#000000" fill-rule="evenodd" fill-opacity="1" /><path clip-path="url(#clip040)" d="M28.3562 660.066 L28.3562 654.21 L64.0042 654.21 L64.0042 660.066 L28.3562 660.066 M14.479 660.066 L14.479 654.21 L21.895 654.21 L21.895 660.066 L14.479 660.066 Z" fill="#000000" fill-rule="evenodd" fill-opacity="1" /><path clip-path="url(#clip040)" d="M14.479 623.909 L19.3487 623.909 L19.3487 629.511 Q19.3487 632.662 20.6219 633.903 Q21.895 635.113 25.2052 635.113 L28.3562 635.113 L28.3562 625.468 L32.9077 625.468 L32.9077 635.113 L64.0042 635.113 L64.0042 641.001 L32.9077 641.001 L32.9077 646.603 L28.3562 646.603 L28.3562 641.001 L25.8736 641.001 Q19.9216 641.001 17.2162 638.232 Q14.479 635.463 14.479 629.447 L14.479 623.909 Z" fill="#000000" fill-rule="evenodd" fill-opacity="1" /><path clip-path="url(#clip040)" d="M14.479 600.961 L19.3487 600.961 L19.3487 606.562 Q19.3487 609.713 20.6219 610.955 Q21.895 612.164 25.2052 612.164 L28.3562 612.164 L28.3562 602.52 L32.9077 602.52 L32.9077 612.164 L64.0042 612.164 L64.0042 618.052 L32.9077 618.052 L32.9077 623.654 L28.3562 623.654 L28.3562 618.052 L25.8736 618.052 Q19.9216 618.052 17.2162 615.283 Q14.479 612.514 14.479 606.499 L14.479 600.961 Z" fill="#000000" fill-rule="evenodd" fill-opacity="1" /><polyline clip-path="url(#clip042)" style="stroke:#009af9; stroke-linecap:round; stroke-linejoin:round; stroke-width:20; stroke-opacity:1; fill:none" stroke-dasharray="80, 50" points="
  469.936,806.258 530.272,857.717 583.492,926.328 631.099,994.94 674.165,1029.25 713.481,1080.7 749.648,1115.01 783.134,1149.32 814.308,1200.77 843.47,1217.93 
  870.863,1217.93 896.69,1269.39 921.121,1286.54 944.297,1286.54 966.343,1303.69 987.363,1320.84 1026.68,1338 1062.85,1355.15 1079.9,1355.15 1096.33,1372.3 
  1127.51,1372.3 1156.67,1372.3 1170.57,1355.15 1184.06,1355.15 1197.16,1355.15 1209.89,1355.15 1234.32,1355.15 1246.06,1320.84 1257.5,1320.84 1279.54,1320.84 
  1300.56,1320.84 1310.72,1303.69 1339.88,1286.54 1349.19,1269.39 1358.32,1269.39 1367.27,1252.23 1376.04,1252.23 1393.1,1252.23 1401.39,1235.08 1409.53,1235.08 
  1417.53,1217.93 1440.7,1183.62 1462.75,1149.32 1469.87,1132.16 1476.87,1132.16 1483.77,1115.01 1497.26,1097.86 1510.36,1080.7 1523.09,1080.7 1541.53,1046.4 
  1547.52,1046.4 1553.42,1046.4 1559.25,1046.4 1570.69,1012.09 1576.31,1012.09 1592.74,994.94 1598.09,977.787 1613.76,960.634 1623.91,943.481 1628.91,943.481 
  1648.34,909.175 1653.08,909.175 1662.39,892.023 1666.98,874.87 1671.52,874.87 1680.47,857.717 1689.24,840.564 1693.57,840.564 1706.3,823.411 1714.59,823.411 
  1722.73,806.258 1730.73,789.105 1742.46,771.953 1750.12,771.953 1753.9,771.953 1757.65,754.8 1775.95,720.494 1783.06,703.341 1790.07,703.341 1796.97,686.188 
  1800.38,686.188 1807.12,669.035 1810.46,669.035 1823.56,634.73 1833.14,634.73 1836.28,634.73 1854.73,600.424 1860.71,600.424 1863.68,600.424 1866.62,600.424 
  1872.45,600.424 1883.89,566.118 1889.5,566.118 1897.8,548.965 1905.94,548.965 1908.62,531.812 1911.28,531.812 1913.93,531.812 1926.96,497.507 1937.11,497.507 
  1942.1,497.507 1954.35,480.354 1961.54,463.201 1966.27,463.201 1973.28,463.201 1975.59,463.201 1980.18,463.201 1984.72,446.048 1993.67,428.895 2002.44,411.742 
  2004.61,394.59 2006.76,394.59 2019.49,394.59 2027.78,377.437 2029.83,377.437 2035.93,360.284 2037.94,360.284 2043.92,360.284 2055.66,325.978 2063.32,325.978 
  2067.1,325.978 2080.09,325.978 2089.15,308.825 2094.49,291.672 2096.26,291.672 2103.27,274.52 2113.58,274.52 2120.32,257.367 2123.66,257.367 2136.75,257.367 
  2144.75,240.214 2149.48,240.214 2151.05,240.214 2167.93,188.755 2173.91,188.755 2176.88,188.755 2197.09,171.602 2201.31,171.602 2202.7,171.602 2224.48,154.449 
  2227.13,154.449 2250.31,120.144 2251.56,120.144 2274.74,102.991 2297.92,85.838 
  "/>
<path clip-path="url(#clip040)" d="
M2041.97 196.379 L2288.17 196.379 L2288.17 92.6992 L2041.97 92.6992  Z
  " fill="#ffffff" fill-rule="evenodd" fill-opacity="1"/>
<polyline clip-path="url(#clip040)" style="stroke:#000000; stroke-linecap:round; stroke-linejoin:round; stroke-width:4; stroke-opacity:1; fill:none" points="
  2041.97,196.379 2288.17,196.379 2288.17,92.6992 2041.97,92.6992 2041.97,196.379 
  "/>
<polyline clip-path="url(#clip040)" style="stroke:#009af9; stroke-linecap:round; stroke-linejoin:round; stroke-width:4; stroke-opacity:1; fill:none" stroke-dasharray="16, 10" points="
  2063.5,144.539 2192.68,144.539 
  "/>
<path clip-path="url(#clip040)" d="M2228.05 164.227 Q2226.24 168.856 2224.53 170.268 Q2222.82 171.68 2219.95 171.68 L2216.55 171.68 L2216.55 168.115 L2219.05 168.115 Q2220.8 168.115 2221.78 167.282 Q2222.75 166.449 2223.93 163.347 L2224.69 161.403 L2214.21 135.893 L2218.72 135.893 L2226.82 156.171 L2234.92 135.893 L2239.44 135.893 L2228.05 164.227 Z" fill="#000000" fill-rule="evenodd" fill-opacity="1" /><path clip-path="url(#clip040)" d="M2246.73 157.884 L2254.37 157.884 L2254.37 131.518 L2246.06 133.185 L2246.06 128.926 L2254.32 127.259 L2259 127.259 L2259 157.884 L2266.64 157.884 L2266.64 161.819 L2246.73 161.819 L2246.73 157.884 Z" fill="#000000" fill-rule="evenodd" fill-opacity="1" /></svg>
