<?xml version="1.0" encoding="utf-8"?>
<svg xmlns="http://www.w3.org/2000/svg" xmlns:xlink="http://www.w3.org/1999/xlink" width="600" height="400" viewBox="0 0 2400 1600">
<defs>
  <clipPath id="clip350">
    <rect x="0" y="0" width="2400" height="1600"/>
  </clipPath>
</defs>
<path clip-path="url(#clip350)" d="
M0 1600 L2400 1600 L2400 0 L0 0  Z
  " fill="#ffffff" fill-rule="evenodd" fill-opacity="1"/>
<defs>
  <clipPath id="clip351">
    <rect x="480" y="0" width="1681" height="1600"/>
  </clipPath>
</defs>
<path clip-path="url(#clip350)" d="
M249.357 1410.9 L2352.76 1410.9 L2352.76 47.2441 L249.357 47.2441  Z
  " fill="#ffffff" fill-rule="evenodd" fill-opacity="1"/>
<defs>
  <clipPath id="clip352">
    <rect x="249" y="47" width="2104" height="1365"/>
  </clipPath>
</defs>
<polyline clip-path="url(#clip352)" style="stroke:#000000; stroke-linecap:butt; stroke-linejoin:round; stroke-width:2; stroke-opacity:0.1; fill:none" points="
  507.321,1410.9 507.321,47.2441 
  "/>
<polyline clip-path="url(#clip352)" style="stroke:#000000; stroke-linecap:butt; stroke-linejoin:round; stroke-width:2; stroke-opacity:0.1; fill:none" points="
  904.189,1410.9 904.189,47.2441 
  "/>
<polyline clip-path="url(#clip352)" style="stroke:#000000; stroke-linecap:butt; stroke-linejoin:round; stroke-width:2; stroke-opacity:0.1; fill:none" points="
  1301.06,1410.9 1301.06,47.2441 
  "/>
<polyline clip-path="url(#clip352)" style="stroke:#000000; stroke-linecap:butt; stroke-linejoin:round; stroke-width:2; stroke-opacity:0.1; fill:none" points="
  1697.92,1410.9 1697.92,47.2441 
  "/>
<polyline clip-path="url(#clip352)" style="stroke:#000000; stroke-linecap:butt; stroke-linejoin:round; stroke-width:2; stroke-opacity:0.1; fill:none" points="
  2094.79,1410.9 2094.79,47.2441 
  "/>
<polyline clip-path="url(#clip350)" style="stroke:#000000; stroke-linecap:butt; stroke-linejoin:round; stroke-width:4; stroke-opacity:1; fill:none" points="
  249.357,1410.9 2352.76,1410.9 
  "/>
<polyline clip-path="url(#clip350)" style="stroke:#000000; stroke-linecap:butt; stroke-linejoin:round; stroke-width:4; stroke-opacity:1; fill:none" points="
  507.321,1410.9 507.321,1392 
  "/>
<polyline clip-path="url(#clip350)" style="stroke:#000000; stroke-linecap:butt; stroke-linejoin:round; stroke-width:4; stroke-opacity:1; fill:none" points="
  904.189,1410.9 904.189,1392 
  "/>
<polyline clip-path="url(#clip350)" style="stroke:#000000; stroke-linecap:butt; stroke-linejoin:round; stroke-width:4; stroke-opacity:1; fill:none" points="
  1301.06,1410.9 1301.06,1392 
  "/>
<polyline clip-path="url(#clip350)" style="stroke:#000000; stroke-linecap:butt; stroke-linejoin:round; stroke-width:4; stroke-opacity:1; fill:none" points="
  1697.92,1410.9 1697.92,1392 
  "/>
<polyline clip-path="url(#clip350)" style="stroke:#000000; stroke-linecap:butt; stroke-linejoin:round; stroke-width:4; stroke-opacity:1; fill:none" points="
  2094.79,1410.9 2094.79,1392 
  "/>
<path clip-path="url(#clip350)" d="M426.309 1485.02 L433.948 1485.02 L433.948 1458.66 L425.638 1460.32 L425.638 1456.06 L433.902 1454.4 L438.578 1454.4 L438.578 1485.02 L446.217 1485.02 L446.217 1488.96 L426.309 1488.96 L426.309 1485.02 Z" fill="#000000" fill-rule="evenodd" fill-opacity="1" /><path clip-path="url(#clip350)" d="M465.661 1457.48 Q462.05 1457.48 460.221 1461.04 Q458.416 1464.58 458.416 1471.71 Q458.416 1478.82 460.221 1482.38 Q462.05 1485.92 465.661 1485.92 Q469.295 1485.92 471.101 1482.38 Q472.929 1478.82 472.929 1471.71 Q472.929 1464.58 471.101 1461.04 Q469.295 1457.48 465.661 1457.48 M465.661 1453.77 Q471.471 1453.77 474.527 1458.38 Q477.605 1462.96 477.605 1471.71 Q477.605 1480.44 474.527 1485.04 Q471.471 1489.63 465.661 1489.63 Q459.851 1489.63 456.772 1485.04 Q453.717 1480.44 453.717 1471.71 Q453.717 1462.96 456.772 1458.38 Q459.851 1453.77 465.661 1453.77 Z" fill="#000000" fill-rule="evenodd" fill-opacity="1" /><path clip-path="url(#clip350)" d="M477.605 1447.87 L501.717 1447.87 L501.717 1451.07 L477.605 1451.07 L477.605 1447.87 Z" fill="#000000" fill-rule="evenodd" fill-opacity="1" /><path clip-path="url(#clip350)" d="M509.955 1433.47 L524.869 1433.47 L524.869 1436.66 L513.434 1436.66 L513.434 1443.55 Q514.262 1443.27 515.089 1443.13 Q515.917 1442.98 516.744 1442.98 Q521.446 1442.98 524.192 1445.56 Q526.938 1448.14 526.938 1452.54 Q526.938 1457.07 524.117 1459.59 Q521.296 1462.09 516.161 1462.09 Q514.393 1462.09 512.55 1461.79 Q510.726 1461.49 508.77 1460.89 L508.77 1457.07 Q510.463 1457.99 512.268 1458.44 Q514.074 1458.89 516.086 1458.89 Q519.34 1458.89 521.239 1457.18 Q523.139 1455.47 523.139 1452.54 Q523.139 1449.6 521.239 1447.89 Q519.34 1446.18 516.086 1446.18 Q514.563 1446.18 513.039 1446.52 Q511.535 1446.86 509.955 1447.57 L509.955 1433.47 Z" fill="#000000" fill-rule="evenodd" fill-opacity="1" /><path clip-path="url(#clip350)" d="M534.424 1456.77 L538.392 1456.77 L538.392 1461.55 L534.424 1461.55 L534.424 1456.77 Z" fill="#000000" fill-rule="evenodd" fill-opacity="1" /><path clip-path="url(#clip350)" d="M547.326 1458.35 L553.532 1458.35 L553.532 1436.93 L546.78 1438.28 L546.78 1434.82 L553.495 1433.47 L557.294 1433.47 L557.294 1458.35 L563.5 1458.35 L563.5 1461.55 L547.326 1461.55 L547.326 1458.35 Z" fill="#000000" fill-rule="evenodd" fill-opacity="1" /><path clip-path="url(#clip350)" d="M579.299 1435.97 Q576.365 1435.97 574.879 1438.86 Q573.412 1441.74 573.412 1447.53 Q573.412 1453.31 574.879 1456.2 Q576.365 1459.08 579.299 1459.08 Q582.252 1459.08 583.719 1456.2 Q585.205 1453.31 585.205 1447.53 Q585.205 1441.74 583.719 1438.86 Q582.252 1435.97 579.299 1435.97 M579.299 1432.96 Q584.02 1432.96 586.502 1436.7 Q589.004 1440.43 589.004 1447.53 Q589.004 1454.62 586.502 1458.37 Q584.02 1462.09 579.299 1462.09 Q574.578 1462.09 572.077 1458.37 Q569.594 1454.62 569.594 1447.53 Q569.594 1440.43 572.077 1436.7 Q574.578 1432.96 579.299 1432.96 Z" fill="#000000" fill-rule="evenodd" fill-opacity="1" /><path clip-path="url(#clip350)" d="M823.581 1485.02 L831.22 1485.02 L831.22 1458.66 L822.91 1460.32 L822.91 1456.06 L831.174 1454.4 L835.85 1454.4 L835.85 1485.02 L843.489 1485.02 L843.489 1488.96 L823.581 1488.96 L823.581 1485.02 Z" fill="#000000" fill-rule="evenodd" fill-opacity="1" /><path clip-path="url(#clip350)" d="M862.933 1457.48 Q859.322 1457.48 857.493 1461.04 Q855.688 1464.58 855.688 1471.71 Q855.688 1478.82 857.493 1482.38 Q859.322 1485.92 862.933 1485.92 Q866.567 1485.92 868.373 1482.38 Q870.202 1478.82 870.202 1471.71 Q870.202 1464.58 868.373 1461.04 Q866.567 1457.48 862.933 1457.48 M862.933 1453.77 Q868.743 1453.77 871.799 1458.38 Q874.877 1462.96 874.877 1471.71 Q874.877 1480.44 871.799 1485.04 Q868.743 1489.63 862.933 1489.63 Q857.123 1489.63 854.044 1485.04 Q850.989 1480.44 850.989 1471.71 Q850.989 1462.96 854.044 1458.38 Q857.123 1453.77 862.933 1453.77 Z" fill="#000000" fill-rule="evenodd" fill-opacity="1" /><path clip-path="url(#clip350)" d="M874.877 1447.87 L898.989 1447.87 L898.989 1451.07 L874.877 1451.07 L874.877 1447.87 Z" fill="#000000" fill-rule="evenodd" fill-opacity="1" /><path clip-path="url(#clip350)" d="M907.227 1433.47 L922.141 1433.47 L922.141 1436.66 L910.706 1436.66 L910.706 1443.55 Q911.534 1443.27 912.361 1443.13 Q913.189 1442.98 914.016 1442.98 Q918.718 1442.98 921.464 1445.56 Q924.21 1448.14 924.21 1452.54 Q924.21 1457.07 921.389 1459.59 Q918.568 1462.09 913.433 1462.09 Q911.665 1462.09 909.822 1461.79 Q907.998 1461.49 906.042 1460.89 L906.042 1457.07 Q907.735 1457.99 909.54 1458.44 Q911.346 1458.89 913.358 1458.89 Q916.612 1458.89 918.511 1457.18 Q920.411 1455.47 920.411 1452.54 Q920.411 1449.6 918.511 1447.89 Q916.612 1446.18 913.358 1446.18 Q911.835 1446.18 910.311 1446.52 Q908.807 1446.86 907.227 1447.57 L907.227 1433.47 Z" fill="#000000" fill-rule="evenodd" fill-opacity="1" /><path clip-path="url(#clip350)" d="M931.696 1456.77 L935.664 1456.77 L935.664 1461.55 L931.696 1461.55 L931.696 1456.77 Z" fill="#000000" fill-rule="evenodd" fill-opacity="1" /><path clip-path="url(#clip350)" d="M952.065 1435.97 Q949.131 1435.97 947.645 1438.86 Q946.178 1441.74 946.178 1447.53 Q946.178 1453.31 947.645 1456.2 Q949.131 1459.08 952.065 1459.08 Q955.017 1459.08 956.484 1456.2 Q957.97 1453.31 957.97 1447.53 Q957.97 1441.74 956.484 1438.86 Q955.017 1435.97 952.065 1435.97 M952.065 1432.96 Q956.785 1432.96 959.268 1436.7 Q961.769 1440.43 961.769 1447.53 Q961.769 1454.62 959.268 1458.37 Q956.785 1462.09 952.065 1462.09 Q947.344 1462.09 944.842 1458.37 Q942.36 1454.62 942.36 1447.53 Q942.36 1440.43 944.842 1436.7 Q947.344 1432.96 952.065 1432.96 Z" fill="#000000" fill-rule="evenodd" fill-opacity="1" /><path clip-path="url(#clip350)" d="M968.484 1433.47 L983.398 1433.47 L983.398 1436.66 L971.963 1436.66 L971.963 1443.55 Q972.791 1443.27 973.618 1443.13 Q974.446 1442.98 975.273 1442.98 Q979.975 1442.98 982.721 1445.56 Q985.467 1448.14 985.467 1452.54 Q985.467 1457.07 982.646 1459.59 Q979.825 1462.09 974.69 1462.09 Q972.922 1462.09 971.079 1461.79 Q969.255 1461.49 967.299 1460.89 L967.299 1457.07 Q968.992 1457.99 970.797 1458.44 Q972.603 1458.89 974.615 1458.89 Q977.869 1458.89 979.768 1457.18 Q981.668 1455.47 981.668 1452.54 Q981.668 1449.6 979.768 1447.89 Q977.869 1446.18 974.615 1446.18 Q973.092 1446.18 971.568 1446.52 Q970.064 1446.86 968.484 1447.57 L968.484 1433.47 Z" fill="#000000" fill-rule="evenodd" fill-opacity="1" /><path clip-path="url(#clip350)" d="M1220.04 1485.02 L1227.68 1485.02 L1227.68 1458.66 L1219.37 1460.32 L1219.37 1456.06 L1227.64 1454.4 L1232.31 1454.4 L1232.31 1485.02 L1239.95 1485.02 L1239.95 1488.96 L1220.04 1488.96 L1220.04 1485.02 Z" fill="#000000" fill-rule="evenodd" fill-opacity="1" /><path clip-path="url(#clip350)" d="M1259.4 1457.48 Q1255.79 1457.48 1253.96 1461.04 Q1252.15 1464.58 1252.15 1471.71 Q1252.15 1478.82 1253.96 1482.38 Q1255.79 1485.92 1259.4 1485.92 Q1263.03 1485.92 1264.84 1482.38 Q1266.66 1478.82 1266.66 1471.71 Q1266.66 1464.58 1264.84 1461.04 Q1263.03 1457.48 1259.4 1457.48 M1259.4 1453.77 Q1265.21 1453.77 1268.26 1458.38 Q1271.34 1462.96 1271.34 1471.71 Q1271.34 1480.44 1268.26 1485.04 Q1265.21 1489.63 1259.4 1489.63 Q1253.59 1489.63 1250.51 1485.04 Q1247.45 1480.44 1247.45 1471.71 Q1247.45 1462.96 1250.51 1458.38 Q1253.59 1453.77 1259.4 1453.77 Z" fill="#000000" fill-rule="evenodd" fill-opacity="1" /><path clip-path="url(#clip350)" d="M1271.34 1447.87 L1295.45 1447.87 L1295.45 1451.07 L1271.34 1451.07 L1271.34 1447.87 Z" fill="#000000" fill-rule="evenodd" fill-opacity="1" /><path clip-path="url(#clip350)" d="M1303.69 1433.47 L1318.6 1433.47 L1318.6 1436.66 L1307.17 1436.66 L1307.17 1443.55 Q1308 1443.27 1308.82 1443.13 Q1309.65 1442.98 1310.48 1442.98 Q1315.18 1442.98 1317.93 1445.56 Q1320.67 1448.14 1320.67 1452.54 Q1320.67 1457.07 1317.85 1459.59 Q1315.03 1462.09 1309.9 1462.09 Q1308.13 1462.09 1306.29 1461.79 Q1304.46 1461.49 1302.51 1460.89 L1302.51 1457.07 Q1304.2 1457.99 1306 1458.44 Q1307.81 1458.89 1309.82 1458.89 Q1313.08 1458.89 1314.97 1457.18 Q1316.87 1455.47 1316.87 1452.54 Q1316.87 1449.6 1314.97 1447.89 Q1313.08 1446.18 1309.82 1446.18 Q1308.3 1446.18 1306.77 1446.52 Q1305.27 1446.86 1303.69 1447.57 L1303.69 1433.47 Z" fill="#000000" fill-rule="evenodd" fill-opacity="1" /><path clip-path="url(#clip350)" d="M1328.16 1456.77 L1332.13 1456.77 L1332.13 1461.55 L1328.16 1461.55 L1328.16 1456.77 Z" fill="#000000" fill-rule="evenodd" fill-opacity="1" /><path clip-path="url(#clip350)" d="M1348.53 1435.97 Q1345.59 1435.97 1344.11 1438.86 Q1342.64 1441.74 1342.64 1447.53 Q1342.64 1453.31 1344.11 1456.2 Q1345.59 1459.08 1348.53 1459.08 Q1351.48 1459.08 1352.95 1456.2 Q1354.43 1453.31 1354.43 1447.53 Q1354.43 1441.74 1352.95 1438.86 Q1351.48 1435.97 1348.53 1435.97 M1348.53 1432.96 Q1353.25 1432.96 1355.73 1436.7 Q1358.23 1440.43 1358.23 1447.53 Q1358.23 1454.62 1355.73 1458.37 Q1353.25 1462.09 1348.53 1462.09 Q1343.81 1462.09 1341.31 1458.37 Q1338.82 1454.62 1338.82 1447.53 Q1338.82 1440.43 1341.31 1436.7 Q1343.81 1432.96 1348.53 1432.96 Z" fill="#000000" fill-rule="evenodd" fill-opacity="1" /><path clip-path="url(#clip350)" d="M1373.03 1435.97 Q1370.1 1435.97 1368.61 1438.86 Q1367.15 1441.74 1367.15 1447.53 Q1367.15 1453.31 1368.61 1456.2 Q1370.1 1459.08 1373.03 1459.08 Q1375.99 1459.08 1377.45 1456.2 Q1378.94 1453.31 1378.94 1447.53 Q1378.94 1441.74 1377.45 1438.86 Q1375.99 1435.97 1373.03 1435.97 M1373.03 1432.96 Q1377.76 1432.96 1380.24 1436.7 Q1382.74 1440.43 1382.74 1447.53 Q1382.74 1454.62 1380.24 1458.37 Q1377.76 1462.09 1373.03 1462.09 Q1368.31 1462.09 1365.81 1458.37 Q1363.33 1454.62 1363.33 1447.53 Q1363.33 1440.43 1365.81 1436.7 Q1368.31 1432.96 1373.03 1432.96 Z" fill="#000000" fill-rule="evenodd" fill-opacity="1" /><path clip-path="url(#clip350)" d="M1617.32 1485.02 L1624.96 1485.02 L1624.96 1458.66 L1616.65 1460.32 L1616.65 1456.06 L1624.91 1454.4 L1629.59 1454.4 L1629.59 1485.02 L1637.22 1485.02 L1637.22 1488.96 L1617.32 1488.96 L1617.32 1485.02 Z" fill="#000000" fill-rule="evenodd" fill-opacity="1" /><path clip-path="url(#clip350)" d="M1656.67 1457.48 Q1653.06 1457.48 1651.23 1461.04 Q1649.42 1464.58 1649.42 1471.71 Q1649.42 1478.82 1651.23 1482.38 Q1653.06 1485.92 1656.67 1485.92 Q1660.3 1485.92 1662.11 1482.38 Q1663.94 1478.82 1663.94 1471.71 Q1663.94 1464.58 1662.11 1461.04 Q1660.3 1457.48 1656.67 1457.48 M1656.67 1453.77 Q1662.48 1453.77 1665.53 1458.38 Q1668.61 1462.96 1668.61 1471.71 Q1668.61 1480.44 1665.53 1485.04 Q1662.48 1489.63 1656.67 1489.63 Q1650.86 1489.63 1647.78 1485.04 Q1644.72 1480.44 1644.72 1471.71 Q1644.72 1462.96 1647.78 1458.38 Q1650.86 1453.77 1656.67 1453.77 Z" fill="#000000" fill-rule="evenodd" fill-opacity="1" /><path clip-path="url(#clip350)" d="M1668.61 1447.87 L1692.72 1447.87 L1692.72 1451.07 L1668.61 1451.07 L1668.61 1447.87 Z" fill="#000000" fill-rule="evenodd" fill-opacity="1" /><path clip-path="url(#clip350)" d="M1711.36 1436.78 L1701.77 1451.77 L1711.36 1451.77 L1711.36 1436.78 M1710.37 1433.47 L1715.14 1433.47 L1715.14 1451.77 L1719.15 1451.77 L1719.15 1454.93 L1715.14 1454.93 L1715.14 1461.55 L1711.36 1461.55 L1711.36 1454.93 L1698.69 1454.93 L1698.69 1451.26 L1710.37 1433.47 Z" fill="#000000" fill-rule="evenodd" fill-opacity="1" /><path clip-path="url(#clip350)" d="M1725.43 1456.77 L1729.4 1456.77 L1729.4 1461.55 L1725.43 1461.55 L1725.43 1456.77 Z" fill="#000000" fill-rule="evenodd" fill-opacity="1" /><path clip-path="url(#clip350)" d="M1737.79 1460.96 L1737.79 1457.5 Q1739.22 1458.18 1740.68 1458.54 Q1742.15 1458.89 1743.56 1458.89 Q1747.32 1458.89 1749.3 1456.37 Q1751.29 1453.84 1751.57 1448.68 Q1750.48 1450.3 1748.81 1451.16 Q1747.14 1452.03 1745.1 1452.03 Q1740.89 1452.03 1738.43 1449.49 Q1735.98 1446.93 1735.98 1442.51 Q1735.98 1438.19 1738.54 1435.57 Q1741.1 1432.96 1745.35 1432.96 Q1750.22 1432.96 1752.78 1436.7 Q1755.35 1440.43 1755.35 1447.53 Q1755.35 1454.17 1752.19 1458.14 Q1749.05 1462.09 1743.73 1462.09 Q1742.3 1462.09 1740.83 1461.81 Q1739.37 1461.53 1737.79 1460.96 M1745.35 1449.06 Q1747.91 1449.06 1749.39 1447.31 Q1750.9 1445.56 1750.9 1442.51 Q1750.9 1439.48 1749.39 1437.74 Q1747.91 1435.97 1745.35 1435.97 Q1742.79 1435.97 1741.29 1437.74 Q1739.8 1439.48 1739.8 1442.51 Q1739.8 1445.56 1741.29 1447.31 Q1742.79 1449.06 1745.35 1449.06 Z" fill="#000000" fill-rule="evenodd" fill-opacity="1" /><path clip-path="url(#clip350)" d="M1762.22 1433.47 L1777.13 1433.47 L1777.13 1436.66 L1765.7 1436.66 L1765.7 1443.55 Q1766.53 1443.27 1767.35 1443.13 Q1768.18 1442.98 1769.01 1442.98 Q1773.71 1442.98 1776.46 1445.56 Q1779.2 1448.14 1779.2 1452.54 Q1779.2 1457.07 1776.38 1459.59 Q1773.56 1462.09 1768.43 1462.09 Q1766.66 1462.09 1764.81 1461.79 Q1762.99 1461.49 1761.03 1460.89 L1761.03 1457.07 Q1762.73 1457.99 1764.53 1458.44 Q1766.34 1458.89 1768.35 1458.89 Q1771.6 1458.89 1773.5 1457.18 Q1775.4 1455.47 1775.4 1452.54 Q1775.4 1449.6 1773.5 1447.89 Q1771.6 1446.18 1768.35 1446.18 Q1766.83 1446.18 1765.3 1446.52 Q1763.8 1446.86 1762.22 1447.57 L1762.22 1433.47 Z" fill="#000000" fill-rule="evenodd" fill-opacity="1" /><path clip-path="url(#clip350)" d="M2013.78 1485.02 L2021.42 1485.02 L2021.42 1458.66 L2013.11 1460.32 L2013.11 1456.06 L2021.37 1454.4 L2026.05 1454.4 L2026.05 1485.02 L2033.69 1485.02 L2033.69 1488.96 L2013.78 1488.96 L2013.78 1485.02 Z" fill="#000000" fill-rule="evenodd" fill-opacity="1" /><path clip-path="url(#clip350)" d="M2053.13 1457.48 Q2049.52 1457.48 2047.69 1461.04 Q2045.89 1464.58 2045.89 1471.71 Q2045.89 1478.82 2047.69 1482.38 Q2049.52 1485.92 2053.13 1485.92 Q2056.77 1485.92 2058.57 1482.38 Q2060.4 1478.82 2060.4 1471.71 Q2060.4 1464.58 2058.57 1461.04 Q2056.77 1457.48 2053.13 1457.48 M2053.13 1453.77 Q2058.94 1453.77 2062 1458.38 Q2065.08 1462.96 2065.08 1471.71 Q2065.08 1480.44 2062 1485.04 Q2058.94 1489.63 2053.13 1489.63 Q2047.32 1489.63 2044.24 1485.04 Q2041.19 1480.44 2041.19 1471.71 Q2041.19 1462.96 2044.24 1458.38 Q2047.32 1453.77 2053.13 1453.77 Z" fill="#000000" fill-rule="evenodd" fill-opacity="1" /><path clip-path="url(#clip350)" d="M2065.08 1447.87 L2089.19 1447.87 L2089.19 1451.07 L2065.08 1451.07 L2065.08 1447.87 Z" fill="#000000" fill-rule="evenodd" fill-opacity="1" /><path clip-path="url(#clip350)" d="M2107.83 1436.78 L2098.23 1451.77 L2107.83 1451.77 L2107.83 1436.78 M2106.83 1433.47 L2111.61 1433.47 L2111.61 1451.77 L2115.61 1451.77 L2115.61 1454.93 L2111.61 1454.93 L2111.61 1461.55 L2107.83 1461.55 L2107.83 1454.93 L2095.15 1454.93 L2095.15 1451.26 L2106.83 1433.47 Z" fill="#000000" fill-rule="evenodd" fill-opacity="1" /><path clip-path="url(#clip350)" d="M2121.89 1456.77 L2125.86 1456.77 L2125.86 1461.55 L2121.89 1461.55 L2121.89 1456.77 Z" fill="#000000" fill-rule="evenodd" fill-opacity="1" /><path clip-path="url(#clip350)" d="M2134.25 1460.96 L2134.25 1457.5 Q2135.68 1458.18 2137.15 1458.54 Q2138.61 1458.89 2140.03 1458.89 Q2143.79 1458.89 2145.76 1456.37 Q2147.76 1453.84 2148.04 1448.68 Q2146.95 1450.3 2145.27 1451.16 Q2143.6 1452.03 2141.57 1452.03 Q2137.35 1452.03 2134.89 1449.49 Q2132.45 1446.93 2132.45 1442.51 Q2132.45 1438.19 2135 1435.57 Q2137.56 1432.96 2141.81 1432.96 Q2146.68 1432.96 2149.24 1436.7 Q2151.82 1440.43 2151.82 1447.53 Q2151.82 1454.17 2148.66 1458.14 Q2145.52 1462.09 2140.19 1462.09 Q2138.77 1462.09 2137.3 1461.81 Q2135.83 1461.53 2134.25 1460.96 M2141.81 1449.06 Q2144.37 1449.06 2145.86 1447.31 Q2147.36 1445.56 2147.36 1442.51 Q2147.36 1439.48 2145.86 1437.74 Q2144.37 1435.97 2141.81 1435.97 Q2139.25 1435.97 2137.75 1437.74 Q2136.26 1439.48 2136.26 1442.51 Q2136.26 1445.56 2137.75 1447.31 Q2139.25 1449.06 2141.81 1449.06 Z" fill="#000000" fill-rule="evenodd" fill-opacity="1" /><path clip-path="url(#clip350)" d="M2166.77 1435.97 Q2163.84 1435.97 2162.35 1438.86 Q2160.88 1441.74 2160.88 1447.53 Q2160.88 1453.31 2162.35 1456.2 Q2163.84 1459.08 2166.77 1459.08 Q2169.72 1459.08 2171.19 1456.2 Q2172.68 1453.31 2172.68 1447.53 Q2172.68 1441.74 2171.19 1438.86 Q2169.72 1435.97 2166.77 1435.97 M2166.77 1432.96 Q2171.49 1432.96 2173.97 1436.7 Q2176.47 1440.43 2176.47 1447.53 Q2176.47 1454.62 2173.97 1458.37 Q2171.49 1462.09 2166.77 1462.09 Q2162.05 1462.09 2159.55 1458.37 Q2157.07 1454.62 2157.07 1447.53 Q2157.07 1440.43 2159.55 1436.7 Q2162.05 1432.96 2166.77 1432.96 Z" fill="#000000" fill-rule="evenodd" fill-opacity="1" /><path clip-path="url(#clip350)" d="M1231.02 1524.66 L1236.91 1524.66 L1236.91 1553.91 L1254.38 1538.54 L1261.86 1538.54 L1242.95 1555.22 L1262.66 1574.19 L1255.02 1574.19 L1236.91 1556.78 L1236.91 1574.19 L1231.02 1574.19 L1231.02 1524.66 Z" fill="#000000" fill-rule="evenodd" fill-opacity="1" /><path clip-path="url(#clip350)" d="M1296.08 1585.01 L1296.08 1589.56 L1262.21 1589.56 L1262.21 1585.01 L1296.08 1585.01 Z" fill="#000000" fill-rule="evenodd" fill-opacity="1" /><path clip-path="url(#clip350)" d="M1315.4 1542.64 Q1310.68 1542.64 1307.95 1546.34 Q1305.21 1550 1305.21 1556.39 Q1305.21 1562.79 1307.92 1566.48 Q1310.65 1570.14 1315.4 1570.14 Q1320.07 1570.14 1322.81 1566.45 Q1325.55 1562.76 1325.55 1556.39 Q1325.55 1550.06 1322.81 1546.37 Q1320.07 1542.64 1315.4 1542.64 M1315.4 1537.68 Q1323.03 1537.68 1327.39 1542.64 Q1331.75 1547.61 1331.75 1556.39 Q1331.75 1565.15 1327.39 1570.14 Q1323.03 1575.11 1315.4 1575.11 Q1307.72 1575.11 1303.36 1570.14 Q1299.04 1565.15 1299.04 1556.39 Q1299.04 1547.61 1303.36 1542.64 Q1307.72 1537.68 1315.4 1537.68 Z" fill="#000000" fill-rule="evenodd" fill-opacity="1" /><path clip-path="url(#clip350)" d="M1371.1 1552.67 L1371.1 1574.19 L1365.24 1574.19 L1365.24 1552.86 Q1365.24 1547.8 1363.27 1545.29 Q1361.29 1542.77 1357.35 1542.77 Q1352.6 1542.77 1349.87 1545.79 Q1347.13 1548.82 1347.13 1554.04 L1347.13 1574.19 L1341.24 1574.19 L1341.24 1538.54 L1347.13 1538.54 L1347.13 1544.08 Q1349.23 1540.86 1352.06 1539.27 Q1354.93 1537.68 1358.65 1537.68 Q1364.79 1537.68 1367.94 1541.5 Q1371.1 1545.29 1371.1 1552.67 Z" fill="#000000" fill-rule="evenodd" fill-opacity="1" /><polyline clip-path="url(#clip352)" style="stroke:#000000; stroke-linecap:butt; stroke-linejoin:round; stroke-width:2; stroke-opacity:0.1; fill:none" points="
  249.357,1224.98 2352.76,1224.98 
  "/>
<polyline clip-path="url(#clip352)" style="stroke:#000000; stroke-linecap:butt; stroke-linejoin:round; stroke-width:2; stroke-opacity:0.1; fill:none" points="
  249.357,965.122 2352.76,965.122 
  "/>
<polyline clip-path="url(#clip352)" style="stroke:#000000; stroke-linecap:butt; stroke-linejoin:round; stroke-width:2; stroke-opacity:0.1; fill:none" points="
  249.357,705.266 2352.76,705.266 
  "/>
<polyline clip-path="url(#clip352)" style="stroke:#000000; stroke-linecap:butt; stroke-linejoin:round; stroke-width:2; stroke-opacity:0.1; fill:none" points="
  249.357,445.411 2352.76,445.411 
  "/>
<polyline clip-path="url(#clip352)" style="stroke:#000000; stroke-linecap:butt; stroke-linejoin:round; stroke-width:2; stroke-opacity:0.1; fill:none" points="
  249.357,185.555 2352.76,185.555 
  "/>
<polyline clip-path="url(#clip350)" style="stroke:#000000; stroke-linecap:butt; stroke-linejoin:round; stroke-width:4; stroke-opacity:1; fill:none" points="
  249.357,1410.9 249.357,47.2441 
  "/>
<polyline clip-path="url(#clip350)" style="stroke:#000000; stroke-linecap:butt; stroke-linejoin:round; stroke-width:4; stroke-opacity:1; fill:none" points="
  249.357,1224.98 268.254,1224.98 
  "/>
<polyline clip-path="url(#clip350)" style="stroke:#000000; stroke-linecap:butt; stroke-linejoin:round; stroke-width:4; stroke-opacity:1; fill:none" points="
  249.357,965.122 268.254,965.122 
  "/>
<polyline clip-path="url(#clip350)" style="stroke:#000000; stroke-linecap:butt; stroke-linejoin:round; stroke-width:4; stroke-opacity:1; fill:none" points="
  249.357,705.266 268.254,705.266 
  "/>
<polyline clip-path="url(#clip350)" style="stroke:#000000; stroke-linecap:butt; stroke-linejoin:round; stroke-width:4; stroke-opacity:1; fill:none" points="
  249.357,445.411 268.254,445.411 
  "/>
<polyline clip-path="url(#clip350)" style="stroke:#000000; stroke-linecap:butt; stroke-linejoin:round; stroke-width:4; stroke-opacity:1; fill:none" points="
  249.357,185.555 268.254,185.555 
  "/>
<path clip-path="url(#clip350)" d="M116.066 1207.7 L134.422 1207.7 L134.422 1211.63 L120.348 1211.63 L120.348 1220.1 Q121.367 1219.76 122.385 1219.6 Q123.404 1219.41 124.422 1219.41 Q130.209 1219.41 133.589 1222.58 Q136.968 1225.75 136.968 1231.17 Q136.968 1236.75 133.496 1239.85 Q130.024 1242.93 123.705 1242.93 Q121.529 1242.93 119.26 1242.56 Q117.015 1242.19 114.607 1241.45 L114.607 1236.75 Q116.691 1237.88 118.913 1238.44 Q121.135 1238.99 123.612 1238.99 Q127.617 1238.99 129.955 1236.89 Q132.292 1234.78 132.292 1231.17 Q132.292 1227.56 129.955 1225.45 Q127.617 1223.35 123.612 1223.35 Q121.737 1223.35 119.862 1223.76 Q118.01 1224.18 116.066 1225.06 L116.066 1207.7 Z" fill="#000000" fill-rule="evenodd" fill-opacity="1" /><path clip-path="url(#clip350)" d="M146.181 1236.38 L151.066 1236.38 L151.066 1242.26 L146.181 1242.26 L146.181 1236.38 Z" fill="#000000" fill-rule="evenodd" fill-opacity="1" /><path clip-path="url(#clip350)" d="M171.251 1210.78 Q167.64 1210.78 165.811 1214.34 Q164.005 1217.88 164.005 1225.01 Q164.005 1232.12 165.811 1235.68 Q167.64 1239.23 171.251 1239.23 Q174.885 1239.23 176.69 1235.68 Q178.519 1232.12 178.519 1225.01 Q178.519 1217.88 176.69 1214.34 Q174.885 1210.78 171.251 1210.78 M171.251 1207.07 Q177.061 1207.07 180.116 1211.68 Q183.195 1216.26 183.195 1225.01 Q183.195 1233.74 180.116 1238.35 Q177.061 1242.93 171.251 1242.93 Q165.44 1242.93 162.362 1238.35 Q159.306 1233.74 159.306 1225.01 Q159.306 1216.26 162.362 1211.68 Q165.44 1207.07 171.251 1207.07 Z" fill="#000000" fill-rule="evenodd" fill-opacity="1" /><path clip-path="url(#clip350)" d="M201.412 1210.78 Q197.801 1210.78 195.973 1214.34 Q194.167 1217.88 194.167 1225.01 Q194.167 1232.12 195.973 1235.68 Q197.801 1239.23 201.412 1239.23 Q205.047 1239.23 206.852 1235.68 Q208.681 1232.12 208.681 1225.01 Q208.681 1217.88 206.852 1214.34 Q205.047 1210.78 201.412 1210.78 M201.412 1207.07 Q207.223 1207.07 210.278 1211.68 Q213.357 1216.26 213.357 1225.01 Q213.357 1233.74 210.278 1238.35 Q207.223 1242.93 201.412 1242.93 Q195.602 1242.93 192.524 1238.35 Q189.468 1233.74 189.468 1225.01 Q189.468 1216.26 192.524 1211.68 Q195.602 1207.07 201.412 1207.07 Z" fill="#000000" fill-rule="evenodd" fill-opacity="1" /><path clip-path="url(#clip350)" d="M117.061 947.842 L135.417 947.842 L135.417 951.777 L121.343 951.777 L121.343 960.249 Q122.362 959.902 123.38 959.74 Q124.399 959.555 125.418 959.555 Q131.205 959.555 134.584 962.726 Q137.964 965.897 137.964 971.314 Q137.964 976.893 134.492 979.995 Q131.019 983.073 124.7 983.073 Q122.524 983.073 120.255 982.703 Q118.01 982.332 115.603 981.592 L115.603 976.893 Q117.686 978.027 119.908 978.582 Q122.13 979.138 124.607 979.138 Q128.612 979.138 130.95 977.032 Q133.288 974.925 133.288 971.314 Q133.288 967.703 130.95 965.596 Q128.612 963.49 124.607 963.49 Q122.732 963.49 120.857 963.907 Q119.006 964.323 117.061 965.203 L117.061 947.842 Z" fill="#000000" fill-rule="evenodd" fill-opacity="1" /><path clip-path="url(#clip350)" d="M147.177 976.522 L152.061 976.522 L152.061 982.402 L147.177 982.402 L147.177 976.522 Z" fill="#000000" fill-rule="evenodd" fill-opacity="1" /><path clip-path="url(#clip350)" d="M166.274 978.467 L182.593 978.467 L182.593 982.402 L160.649 982.402 L160.649 978.467 Q163.311 975.712 167.894 971.083 Q172.501 966.43 173.681 965.087 Q175.926 962.564 176.806 960.828 Q177.709 959.069 177.709 957.379 Q177.709 954.624 175.764 952.888 Q173.843 951.152 170.741 951.152 Q168.542 951.152 166.089 951.916 Q163.658 952.68 160.88 954.231 L160.88 949.509 Q163.704 948.374 166.158 947.796 Q168.612 947.217 170.649 947.217 Q176.019 947.217 179.214 949.902 Q182.408 952.587 182.408 957.078 Q182.408 959.208 181.598 961.129 Q180.811 963.027 178.704 965.62 Q178.126 966.291 175.024 969.508 Q171.922 972.703 166.274 978.467 Z" fill="#000000" fill-rule="evenodd" fill-opacity="1" /><path clip-path="url(#clip350)" d="M192.454 947.842 L210.811 947.842 L210.811 951.777 L196.737 951.777 L196.737 960.249 Q197.755 959.902 198.774 959.74 Q199.792 959.555 200.811 959.555 Q206.598 959.555 209.977 962.726 Q213.357 965.897 213.357 971.314 Q213.357 976.893 209.885 979.995 Q206.412 983.073 200.093 983.073 Q197.917 983.073 195.649 982.703 Q193.403 982.332 190.996 981.592 L190.996 976.893 Q193.079 978.027 195.301 978.582 Q197.524 979.138 200 979.138 Q204.005 979.138 206.343 977.032 Q208.681 974.925 208.681 971.314 Q208.681 967.703 206.343 965.596 Q204.005 963.49 200 963.49 Q198.125 963.49 196.25 963.907 Q194.399 964.323 192.454 965.203 L192.454 947.842 Z" fill="#000000" fill-rule="evenodd" fill-opacity="1" /><path clip-path="url(#clip350)" d="M116.066 687.986 L134.422 687.986 L134.422 691.921 L120.348 691.921 L120.348 700.394 Q121.367 700.046 122.385 699.884 Q123.404 699.699 124.422 699.699 Q130.209 699.699 133.589 702.87 Q136.968 706.042 136.968 711.458 Q136.968 717.037 133.496 720.139 Q130.024 723.218 123.705 723.218 Q121.529 723.218 119.26 722.847 Q117.015 722.477 114.607 721.736 L114.607 717.037 Q116.691 718.171 118.913 718.727 Q121.135 719.282 123.612 719.282 Q127.617 719.282 129.955 717.176 Q132.292 715.069 132.292 711.458 Q132.292 707.847 129.955 705.741 Q127.617 703.634 123.612 703.634 Q121.737 703.634 119.862 704.051 Q118.01 704.468 116.066 705.347 L116.066 687.986 Z" fill="#000000" fill-rule="evenodd" fill-opacity="1" /><path clip-path="url(#clip350)" d="M146.181 716.667 L151.066 716.667 L151.066 722.546 L146.181 722.546 L146.181 716.667 Z" fill="#000000" fill-rule="evenodd" fill-opacity="1" /><path clip-path="url(#clip350)" d="M161.297 687.986 L179.653 687.986 L179.653 691.921 L165.579 691.921 L165.579 700.394 Q166.598 700.046 167.616 699.884 Q168.635 699.699 169.653 699.699 Q175.44 699.699 178.82 702.87 Q182.2 706.042 182.2 711.458 Q182.2 717.037 178.727 720.139 Q175.255 723.218 168.936 723.218 Q166.76 723.218 164.491 722.847 Q162.246 722.477 159.839 721.736 L159.839 717.037 Q161.922 718.171 164.144 718.727 Q166.366 719.282 168.843 719.282 Q172.848 719.282 175.186 717.176 Q177.524 715.069 177.524 711.458 Q177.524 707.847 175.186 705.741 Q172.848 703.634 168.843 703.634 Q166.968 703.634 165.093 704.051 Q163.241 704.468 161.297 705.347 L161.297 687.986 Z" fill="#000000" fill-rule="evenodd" fill-opacity="1" /><path clip-path="url(#clip350)" d="M201.412 691.065 Q197.801 691.065 195.973 694.63 Q194.167 698.171 194.167 705.301 Q194.167 712.407 195.973 715.972 Q197.801 719.514 201.412 719.514 Q205.047 719.514 206.852 715.972 Q208.681 712.407 208.681 705.301 Q208.681 698.171 206.852 694.63 Q205.047 691.065 201.412 691.065 M201.412 687.361 Q207.223 687.361 210.278 691.968 Q213.357 696.551 213.357 705.301 Q213.357 714.028 210.278 718.634 Q207.223 723.218 201.412 723.218 Q195.602 723.218 192.524 718.634 Q189.468 714.028 189.468 705.301 Q189.468 696.551 192.524 691.968 Q195.602 687.361 201.412 687.361 Z" fill="#000000" fill-rule="evenodd" fill-opacity="1" /><path clip-path="url(#clip350)" d="M117.061 428.131 L135.417 428.131 L135.417 432.066 L121.343 432.066 L121.343 440.538 Q122.362 440.191 123.38 440.029 Q124.399 439.843 125.418 439.843 Q131.205 439.843 134.584 443.015 Q137.964 446.186 137.964 451.603 Q137.964 457.181 134.492 460.283 Q131.019 463.362 124.7 463.362 Q122.524 463.362 120.255 462.992 Q118.01 462.621 115.603 461.88 L115.603 457.181 Q117.686 458.316 119.908 458.871 Q122.13 459.427 124.607 459.427 Q128.612 459.427 130.95 457.32 Q133.288 455.214 133.288 451.603 Q133.288 447.992 130.95 445.885 Q128.612 443.779 124.607 443.779 Q122.732 443.779 120.857 444.195 Q119.006 444.612 117.061 445.492 L117.061 428.131 Z" fill="#000000" fill-rule="evenodd" fill-opacity="1" /><path clip-path="url(#clip350)" d="M147.177 456.811 L152.061 456.811 L152.061 462.691 L147.177 462.691 L147.177 456.811 Z" fill="#000000" fill-rule="evenodd" fill-opacity="1" /><path clip-path="url(#clip350)" d="M161.065 428.131 L183.288 428.131 L183.288 430.121 L170.741 462.691 L165.857 462.691 L177.663 432.066 L161.065 432.066 L161.065 428.131 Z" fill="#000000" fill-rule="evenodd" fill-opacity="1" /><path clip-path="url(#clip350)" d="M192.454 428.131 L210.811 428.131 L210.811 432.066 L196.737 432.066 L196.737 440.538 Q197.755 440.191 198.774 440.029 Q199.792 439.843 200.811 439.843 Q206.598 439.843 209.977 443.015 Q213.357 446.186 213.357 451.603 Q213.357 457.181 209.885 460.283 Q206.412 463.362 200.093 463.362 Q197.917 463.362 195.649 462.992 Q193.403 462.621 190.996 461.88 L190.996 457.181 Q193.079 458.316 195.301 458.871 Q197.524 459.427 200 459.427 Q204.005 459.427 206.343 457.32 Q208.681 455.214 208.681 451.603 Q208.681 447.992 206.343 445.885 Q204.005 443.779 200 443.779 Q198.125 443.779 196.25 444.195 Q194.399 444.612 192.454 445.492 L192.454 428.131 Z" fill="#000000" fill-rule="evenodd" fill-opacity="1" /><path clip-path="url(#clip350)" d="M126.598 183.691 Q123.45 183.691 121.598 185.844 Q119.769 187.997 119.769 191.747 Q119.769 195.474 121.598 197.65 Q123.45 199.803 126.598 199.803 Q129.746 199.803 131.575 197.65 Q133.427 195.474 133.427 191.747 Q133.427 187.997 131.575 185.844 Q129.746 183.691 126.598 183.691 M135.88 169.039 L135.88 173.298 Q134.121 172.465 132.316 172.025 Q130.533 171.585 128.774 171.585 Q124.144 171.585 121.691 174.71 Q119.26 177.835 118.913 184.154 Q120.279 182.141 122.339 181.076 Q124.399 179.988 126.876 179.988 Q132.084 179.988 135.093 183.159 Q138.126 186.307 138.126 191.747 Q138.126 197.071 134.978 200.289 Q131.83 203.506 126.598 203.506 Q120.603 203.506 117.431 198.923 Q114.26 194.316 114.26 185.59 Q114.26 177.395 118.149 172.534 Q122.038 167.65 128.589 167.65 Q130.348 167.65 132.13 167.997 Q133.936 168.344 135.88 169.039 Z" fill="#000000" fill-rule="evenodd" fill-opacity="1" /><path clip-path="url(#clip350)" d="M146.181 196.955 L151.066 196.955 L151.066 202.835 L146.181 202.835 L146.181 196.955 Z" fill="#000000" fill-rule="evenodd" fill-opacity="1" /><path clip-path="url(#clip350)" d="M171.251 171.354 Q167.64 171.354 165.811 174.918 Q164.005 178.46 164.005 185.59 Q164.005 192.696 165.811 196.261 Q167.64 199.803 171.251 199.803 Q174.885 199.803 176.69 196.261 Q178.519 192.696 178.519 185.59 Q178.519 178.46 176.69 174.918 Q174.885 171.354 171.251 171.354 M171.251 167.65 Q177.061 167.65 180.116 172.256 Q183.195 176.84 183.195 185.59 Q183.195 194.316 180.116 198.923 Q177.061 203.506 171.251 203.506 Q165.44 203.506 162.362 198.923 Q159.306 194.316 159.306 185.59 Q159.306 176.84 162.362 172.256 Q165.44 167.65 171.251 167.65 Z" fill="#000000" fill-rule="evenodd" fill-opacity="1" /><path clip-path="url(#clip350)" d="M201.412 171.354 Q197.801 171.354 195.973 174.918 Q194.167 178.46 194.167 185.59 Q194.167 192.696 195.973 196.261 Q197.801 199.803 201.412 199.803 Q205.047 199.803 206.852 196.261 Q208.681 192.696 208.681 185.59 Q208.681 178.46 206.852 174.918 Q205.047 171.354 201.412 171.354 M201.412 167.65 Q207.223 167.65 210.278 172.256 Q213.357 176.84 213.357 185.59 Q213.357 194.316 210.278 198.923 Q207.223 203.506 201.412 203.506 Q195.602 203.506 192.524 198.923 Q189.468 194.316 189.468 185.59 Q189.468 176.84 192.524 172.256 Q195.602 167.65 201.412 167.65 Z" fill="#000000" fill-rule="evenodd" fill-opacity="1" /><path clip-path="url(#clip350)" d="M35.1993 829.203 Q31.2526 827.007 29.3747 823.951 Q27.4968 820.896 27.4968 816.758 Q27.4968 811.188 31.4117 808.164 Q35.2948 805.141 42.4881 805.141 L64.0042 805.141 L64.0042 811.029 L42.679 811.029 Q37.5546 811.029 35.072 812.843 Q32.5894 814.657 32.5894 818.381 Q32.5894 822.933 35.6131 825.574 Q38.6368 828.216 43.8567 828.216 L64.0042 828.216 L64.0042 834.105 L42.679 834.105 Q37.5228 834.105 35.072 835.919 Q32.5894 837.733 32.5894 841.521 Q32.5894 846.008 35.6449 848.65 Q38.6686 851.292 43.8567 851.292 L64.0042 851.292 L64.0042 857.18 L28.3562 857.18 L28.3562 851.292 L33.8944 851.292 Q30.616 849.287 29.0564 846.486 Q27.4968 843.685 27.4968 839.834 Q27.4968 835.951 29.4702 833.245 Q31.4436 830.508 35.1993 829.203 Z" fill="#000000" fill-rule="evenodd" fill-opacity="1" /><path clip-path="url(#clip350)" d="M28.3562 793.459 L28.3562 787.603 L64.0042 787.603 L64.0042 793.459 L28.3562 793.459 M14.479 793.459 L14.479 787.603 L21.895 787.603 L21.895 793.459 L14.479 793.459 Z" fill="#000000" fill-rule="evenodd" fill-opacity="1" /><path clip-path="url(#clip350)" d="M42.4881 745.717 L64.0042 745.717 L64.0042 751.573 L42.679 751.573 Q37.6183 751.573 35.1038 753.547 Q32.5894 755.52 32.5894 759.467 Q32.5894 764.209 35.6131 766.946 Q38.6368 769.684 43.8567 769.684 L64.0042 769.684 L64.0042 775.572 L28.3562 775.572 L28.3562 769.684 L33.8944 769.684 Q30.6797 767.583 29.0883 764.75 Q27.4968 761.886 27.4968 758.162 Q27.4968 752.019 31.3163 748.868 Q35.1038 745.717 42.4881 745.717 Z" fill="#000000" fill-rule="evenodd" fill-opacity="1" /><path clip-path="url(#clip350)" d="M74.8259 706.95 L79.3773 706.95 L79.3773 740.815 L74.8259 740.815 L74.8259 706.95 Z" fill="#000000" fill-rule="evenodd" fill-opacity="1" /><path clip-path="url(#clip350)" d="M33.7671 677.986 L14.479 677.986 L14.479 672.129 L64.0042 672.129 L64.0042 677.986 L58.657 677.986 Q61.8398 679.832 63.3994 682.664 Q64.9272 685.465 64.9272 689.412 Q64.9272 695.873 59.771 699.947 Q54.6147 703.989 46.212 703.989 Q37.8093 703.989 32.6531 699.947 Q27.4968 695.873 27.4968 689.412 Q27.4968 685.465 29.0564 682.664 Q30.5842 679.832 33.7671 677.986 M46.212 697.942 Q52.6732 697.942 56.3653 695.3 Q60.0256 692.627 60.0256 687.98 Q60.0256 683.333 56.3653 680.659 Q52.6732 677.986 46.212 677.986 Q39.7508 677.986 36.0905 680.659 Q32.3984 683.333 32.3984 687.98 Q32.3984 692.627 36.0905 695.3 Q39.7508 697.942 46.212 697.942 Z" fill="#000000" fill-rule="evenodd" fill-opacity="1" /><path clip-path="url(#clip350)" d="M28.3562 660.066 L28.3562 654.21 L64.0042 654.21 L64.0042 660.066 L28.3562 660.066 M14.479 660.066 L14.479 654.21 L21.895 654.21 L21.895 660.066 L14.479 660.066 Z" fill="#000000" fill-rule="evenodd" fill-opacity="1" /><path clip-path="url(#clip350)" d="M14.479 623.909 L19.3487 623.909 L19.3487 629.511 Q19.3487 632.662 20.6219 633.903 Q21.895 635.113 25.2052 635.113 L28.3562 635.113 L28.3562 625.468 L32.9077 625.468 L32.9077 635.113 L64.0042 635.113 L64.0042 641.001 L32.9077 641.001 L32.9077 646.603 L28.3562 646.603 L28.3562 641.001 L25.8736 641.001 Q19.9216 641.001 17.2162 638.232 Q14.479 635.463 14.479 629.447 L14.479 623.909 Z" fill="#000000" fill-rule="evenodd" fill-opacity="1" /><path clip-path="url(#clip350)" d="M14.479 600.961 L19.3487 600.961 L19.3487 606.562 Q19.3487 609.713 20.6219 610.955 Q21.895 612.164 25.2052 612.164 L28.3562 612.164 L28.3562 602.52 L32.9077 602.52 L32.9077 612.164 L64.0042 612.164 L64.0042 618.052 L32.9077 618.052 L32.9077 623.654 L28.3562 623.654 L28.3562 618.052 L25.8736 618.052 Q19.9216 618.052 17.2162 615.283 Q14.479 612.514 14.479 606.499 L14.479 600.961 Z" fill="#000000" fill-rule="evenodd" fill-opacity="1" /><polyline clip-path="url(#clip352)" style="stroke:#009af9; stroke-linecap:butt; stroke-linejoin:round; stroke-width:20; stroke-opacity:1; fill:none" stroke-dasharray="80, 50" points="
  308.887,1311.56 1301.06,1372.3 2293.23,85.838 
  "/>
<path clip-path="url(#clip350)" d="
M1996.5 196.379 L2282.64 196.379 L2282.64 92.6992 L1996.5 92.6992  Z
  " fill="#ffffff" fill-rule="evenodd" fill-opacity="1"/>
<polyline clip-path="url(#clip350)" style="stroke:#000000; stroke-linecap:butt; stroke-linejoin:round; stroke-width:4; stroke-opacity:1; fill:none" points="
  1996.5,196.379 2282.64,196.379 2282.64,92.6992 1996.5,92.6992 1996.5,196.379 
  "/>
<polyline clip-path="url(#clip350)" style="stroke:#009af9; stroke-linecap:butt; stroke-linejoin:round; stroke-width:4; stroke-opacity:1; fill:none" stroke-dasharray="16, 10" points="
  2019.87,144.539 2160.1,144.539 
  "/>
<path clip-path="url(#clip350)" d="M2197.31 164.227 Q2195.51 168.856 2193.79 170.268 Q2192.08 171.68 2189.21 171.68 L2185.81 171.68 L2185.81 168.115 L2188.31 168.115 Q2190.07 168.115 2191.04 167.282 Q2192.01 166.449 2193.19 163.347 L2193.96 161.403 L2183.47 135.893 L2187.98 135.893 L2196.09 156.171 L2204.19 135.893 L2208.7 135.893 L2197.31 164.227 Z" fill="#000000" fill-rule="evenodd" fill-opacity="1" /><path clip-path="url(#clip350)" d="M2215.99 157.884 L2223.63 157.884 L2223.63 131.518 L2215.32 133.185 L2215.32 128.926 L2223.59 127.259 L2228.26 127.259 L2228.26 157.884 L2235.9 157.884 L2235.9 161.819 L2215.99 161.819 L2215.99 157.884 Z" fill="#000000" fill-rule="evenodd" fill-opacity="1" /></svg>
