<?xml version="1.0" encoding="utf-8"?>
<svg xmlns="http://www.w3.org/2000/svg" xmlns:xlink="http://www.w3.org/1999/xlink" width="600" height="400" viewBox="0 0 2400 1600">
<defs>
  <clipPath id="clip770">
    <rect x="0" y="0" width="2400" height="1600"/>
  </clipPath>
</defs>
<path clip-path="url(#clip770)" d="
M0 1600 L2400 1600 L2400 0 L0 0  Z
  " fill="#ffffff" fill-rule="evenodd" fill-opacity="1"/>
<defs>
  <clipPath id="clip771">
    <rect x="480" y="0" width="1681" height="1600"/>
  </clipPath>
</defs>
<path clip-path="url(#clip770)" d="
M238.431 1410.9 L2352.76 1410.9 L2352.76 47.2441 L238.431 47.2441  Z
  " fill="#ffffff" fill-rule="evenodd" fill-opacity="1"/>
<defs>
  <clipPath id="clip772">
    <rect x="238" y="47" width="2115" height="1365"/>
  </clipPath>
</defs>
<polyline clip-path="url(#clip772)" style="stroke:#000000; stroke-width:2; stroke-opacity:0.1; fill:none" points="
  298.27,1410.9 298.27,47.2441 
  "/>
<polyline clip-path="url(#clip772)" style="stroke:#000000; stroke-width:2; stroke-opacity:0.1; fill:none" points="
  957.213,1410.9 957.213,47.2441 
  "/>
<polyline clip-path="url(#clip772)" style="stroke:#000000; stroke-width:2; stroke-opacity:0.1; fill:none" points="
  1616.16,1410.9 1616.16,47.2441 
  "/>
<polyline clip-path="url(#clip772)" style="stroke:#000000; stroke-width:2; stroke-opacity:0.1; fill:none" points="
  2275.1,1410.9 2275.1,47.2441 
  "/>
<polyline clip-path="url(#clip770)" style="stroke:#000000; stroke-width:4; stroke-opacity:1; fill:none" points="
  238.431,1410.9 2352.76,1410.9 
  "/>
<polyline clip-path="url(#clip770)" style="stroke:#000000; stroke-width:4; stroke-opacity:1; fill:none" points="
  298.27,1410.9 298.27,1394.53 
  "/>
<polyline clip-path="url(#clip770)" style="stroke:#000000; stroke-width:4; stroke-opacity:1; fill:none" points="
  957.213,1410.9 957.213,1394.53 
  "/>
<polyline clip-path="url(#clip770)" style="stroke:#000000; stroke-width:4; stroke-opacity:1; fill:none" points="
  1616.16,1410.9 1616.16,1394.53 
  "/>
<polyline clip-path="url(#clip770)" style="stroke:#000000; stroke-width:4; stroke-opacity:1; fill:none" points="
  2275.1,1410.9 2275.1,1394.53 
  "/>
<path clip-path="url(#clip770)" d="M 0 0 M238 1489.17 L245.639 1489.17 L245.639 1462.8 L237.329 1464.47 L237.329 1460.21 L245.593 1458.54 L250.269 1458.54 L250.269 1489.17 L257.907 1489.17 L257.907 1493.1 L238 1493.1 L238 1489.17 Z" fill="#000000" fill-rule="evenodd" fill-opacity="1" /><path clip-path="url(#clip770)" d="M 0 0 M272.977 1461.62 Q269.366 1461.62 267.537 1465.19 Q265.731 1468.73 265.731 1475.86 Q265.731 1482.97 267.537 1486.53 Q269.366 1490.07 272.977 1490.07 Q276.611 1490.07 278.417 1486.53 Q280.245 1482.97 280.245 1475.86 Q280.245 1468.73 278.417 1465.19 Q276.611 1461.62 272.977 1461.62 M272.977 1457.92 Q278.787 1457.92 281.843 1462.53 Q284.921 1467.11 284.921 1475.86 Q284.921 1484.59 281.843 1489.19 Q278.787 1493.78 272.977 1493.78 Q267.167 1493.78 264.088 1489.19 Q261.032 1484.59 261.032 1475.86 Q261.032 1467.11 264.088 1462.53 Q267.167 1457.92 272.977 1457.92 Z" fill="#000000" fill-rule="evenodd" fill-opacity="1" /><path clip-path="url(#clip770)" d="M 0 0 M284.921 1452.02 L309.033 1452.02 L309.033 1455.22 L284.921 1455.22 L284.921 1452.02 Z" fill="#000000" fill-rule="evenodd" fill-opacity="1" /><path clip-path="url(#clip770)" d="M 0 0 M313.81 1462.5 L320.016 1462.5 L320.016 1441.07 L313.264 1442.43 L313.264 1438.97 L319.979 1437.61 L323.778 1437.61 L323.778 1462.5 L329.985 1462.5 L329.985 1465.69 L313.81 1465.69 L313.81 1462.5 Z" fill="#000000" fill-rule="evenodd" fill-opacity="1" /><path clip-path="url(#clip770)" d="M 0 0 M334.104 1460.92 L338.072 1460.92 L338.072 1465.69 L334.104 1465.69 L334.104 1460.92 Z" fill="#000000" fill-rule="evenodd" fill-opacity="1" /><path clip-path="url(#clip770)" d="M 0 0 M342.228 1437.61 L357.143 1437.61 L357.143 1440.81 L345.708 1440.81 L345.708 1447.69 Q346.535 1447.41 347.363 1447.28 Q348.191 1447.13 349.018 1447.13 Q353.72 1447.13 356.466 1449.71 Q359.212 1452.28 359.212 1456.68 Q359.212 1461.22 356.391 1463.74 Q353.57 1466.24 348.435 1466.24 Q346.667 1466.24 344.824 1465.94 Q343 1465.64 341.044 1465.04 L341.044 1461.22 Q342.736 1462.14 344.542 1462.59 Q346.347 1463.04 348.36 1463.04 Q351.614 1463.04 353.513 1461.33 Q355.413 1459.62 355.413 1456.68 Q355.413 1453.75 353.513 1452.04 Q351.614 1450.33 348.36 1450.33 Q346.836 1450.33 345.313 1450.67 Q343.808 1451 342.228 1451.72 L342.228 1437.61 Z" fill="#000000" fill-rule="evenodd" fill-opacity="1" /><path clip-path="url(#clip770)" d="M 0 0 M896.538 1489.17 L904.177 1489.17 L904.177 1462.8 L895.867 1464.47 L895.867 1460.21 L904.131 1458.54 L908.807 1458.54 L908.807 1489.17 L916.445 1489.17 L916.445 1493.1 L896.538 1493.1 L896.538 1489.17 Z" fill="#000000" fill-rule="evenodd" fill-opacity="1" /><path clip-path="url(#clip770)" d="M 0 0 M931.515 1461.62 Q927.904 1461.62 926.075 1465.19 Q924.269 1468.73 924.269 1475.86 Q924.269 1482.97 926.075 1486.53 Q927.904 1490.07 931.515 1490.07 Q935.149 1490.07 936.955 1486.53 Q938.783 1482.97 938.783 1475.86 Q938.783 1468.73 936.955 1465.19 Q935.149 1461.62 931.515 1461.62 M931.515 1457.92 Q937.325 1457.92 940.381 1462.53 Q943.459 1467.11 943.459 1475.86 Q943.459 1484.59 940.381 1489.19 Q937.325 1493.78 931.515 1493.78 Q925.705 1493.78 922.626 1489.19 Q919.57 1484.59 919.57 1475.86 Q919.57 1467.11 922.626 1462.53 Q925.705 1457.92 931.515 1457.92 Z" fill="#000000" fill-rule="evenodd" fill-opacity="1" /><path clip-path="url(#clip770)" d="M 0 0 M943.459 1452.02 L967.571 1452.02 L967.571 1455.22 L943.459 1455.22 L943.459 1452.02 Z" fill="#000000" fill-rule="evenodd" fill-opacity="1" /><path clip-path="url(#clip770)" d="M 0 0 M972.348 1462.5 L978.555 1462.5 L978.555 1441.07 L971.803 1442.43 L971.803 1438.97 L978.517 1437.61 L982.316 1437.61 L982.316 1462.5 L988.523 1462.5 L988.523 1465.69 L972.348 1465.69 L972.348 1462.5 Z" fill="#000000" fill-rule="evenodd" fill-opacity="1" /><path clip-path="url(#clip770)" d="M 0 0 M992.642 1460.92 L996.61 1460.92 L996.61 1465.69 L992.642 1465.69 L992.642 1460.92 Z" fill="#000000" fill-rule="evenodd" fill-opacity="1" /><path clip-path="url(#clip770)" d="M 0 0 M1008.85 1440.11 Q1005.92 1440.11 1004.43 1443.01 Q1002.97 1445.89 1002.97 1451.68 Q1002.97 1457.46 1004.43 1460.35 Q1005.92 1463.23 1008.85 1463.23 Q1011.81 1463.23 1013.27 1460.35 Q1014.76 1457.46 1014.76 1451.68 Q1014.76 1445.89 1013.27 1443.01 Q1011.81 1440.11 1008.85 1440.11 M1008.85 1437.11 Q1013.57 1437.11 1016.06 1440.85 Q1018.56 1444.57 1018.56 1451.68 Q1018.56 1458.77 1016.06 1462.51 Q1013.57 1466.24 1008.85 1466.24 Q1004.13 1466.24 1001.63 1462.51 Q999.149 1458.77 999.149 1451.68 Q999.149 1444.57 1001.63 1440.85 Q1004.13 1437.11 1008.85 1437.11 Z" fill="#000000" fill-rule="evenodd" fill-opacity="1" /><path clip-path="url(#clip770)" d="M 0 0 M1555.39 1489.17 L1563.03 1489.17 L1563.03 1462.8 L1554.72 1464.47 L1554.72 1460.21 L1562.98 1458.54 L1567.65 1458.54 L1567.65 1489.17 L1575.29 1489.17 L1575.29 1493.1 L1555.39 1493.1 L1555.39 1489.17 Z" fill="#000000" fill-rule="evenodd" fill-opacity="1" /><path clip-path="url(#clip770)" d="M 0 0 M1590.36 1461.62 Q1586.75 1461.62 1584.92 1465.19 Q1583.12 1468.73 1583.12 1475.86 Q1583.12 1482.97 1584.92 1486.53 Q1586.75 1490.07 1590.36 1490.07 Q1594 1490.07 1595.8 1486.53 Q1597.63 1482.97 1597.63 1475.86 Q1597.63 1468.73 1595.8 1465.19 Q1594 1461.62 1590.36 1461.62 M1590.36 1457.92 Q1596.17 1457.92 1599.23 1462.53 Q1602.31 1467.11 1602.31 1475.86 Q1602.31 1484.59 1599.23 1489.19 Q1596.17 1493.78 1590.36 1493.78 Q1584.55 1493.78 1581.47 1489.19 Q1578.42 1484.59 1578.42 1475.86 Q1578.42 1467.11 1581.47 1462.53 Q1584.55 1457.92 1590.36 1457.92 Z" fill="#000000" fill-rule="evenodd" fill-opacity="1" /><path clip-path="url(#clip770)" d="M 0 0 M1602.31 1452.02 L1626.42 1452.02 L1626.42 1455.22 L1602.31 1455.22 L1602.31 1452.02 Z" fill="#000000" fill-rule="evenodd" fill-opacity="1" /><path clip-path="url(#clip770)" d="M 0 0 M1638.66 1440.11 Q1635.73 1440.11 1634.24 1443.01 Q1632.78 1445.89 1632.78 1451.68 Q1632.78 1457.46 1634.24 1460.35 Q1635.73 1463.23 1638.66 1463.23 Q1641.62 1463.23 1643.08 1460.35 Q1644.57 1457.46 1644.57 1451.68 Q1644.57 1445.89 1643.08 1443.01 Q1641.62 1440.11 1638.66 1440.11 M1638.66 1437.11 Q1643.38 1437.11 1645.87 1440.85 Q1648.37 1444.57 1648.37 1451.68 Q1648.37 1458.77 1645.87 1462.51 Q1643.38 1466.24 1638.66 1466.24 Q1633.94 1466.24 1631.44 1462.51 Q1628.96 1458.77 1628.96 1451.68 Q1628.96 1444.57 1631.44 1440.85 Q1633.94 1437.11 1638.66 1437.11 Z" fill="#000000" fill-rule="evenodd" fill-opacity="1" /><path clip-path="url(#clip770)" d="M 0 0 M1652.49 1460.92 L1656.46 1460.92 L1656.46 1465.69 L1652.49 1465.69 L1652.49 1460.92 Z" fill="#000000" fill-rule="evenodd" fill-opacity="1" /><path clip-path="url(#clip770)" d="M 0 0 M1660.61 1437.61 L1675.53 1437.61 L1675.53 1440.81 L1664.09 1440.81 L1664.09 1447.69 Q1664.92 1447.41 1665.75 1447.28 Q1666.57 1447.13 1667.4 1447.13 Q1672.1 1447.13 1674.85 1449.71 Q1677.6 1452.28 1677.6 1456.68 Q1677.6 1461.22 1674.77 1463.74 Q1671.95 1466.24 1666.82 1466.24 Q1665.05 1466.24 1663.21 1465.94 Q1661.38 1465.64 1659.43 1465.04 L1659.43 1461.22 Q1661.12 1462.14 1662.92 1462.59 Q1664.73 1463.04 1666.74 1463.04 Q1670 1463.04 1671.9 1461.33 Q1673.8 1459.62 1673.8 1456.68 Q1673.8 1453.75 1671.9 1452.04 Q1670 1450.33 1666.74 1450.33 Q1665.22 1450.33 1663.7 1450.67 Q1662.19 1451 1660.61 1451.72 L1660.61 1437.61 Z" fill="#000000" fill-rule="evenodd" fill-opacity="1" /><path clip-path="url(#clip770)" d="M 0 0 M2227.25 1489.17 L2234.89 1489.17 L2234.89 1462.8 L2226.58 1464.47 L2226.58 1460.21 L2234.84 1458.54 L2239.52 1458.54 L2239.52 1489.17 L2247.16 1489.17 L2247.16 1493.1 L2227.25 1493.1 L2227.25 1489.17 Z" fill="#000000" fill-rule="evenodd" fill-opacity="1" /><path clip-path="url(#clip770)" d="M 0 0 M2262.23 1461.62 Q2258.62 1461.62 2256.79 1465.19 Q2254.98 1468.73 2254.98 1475.86 Q2254.98 1482.97 2256.79 1486.53 Q2258.62 1490.07 2262.23 1490.07 Q2265.86 1490.07 2267.67 1486.53 Q2269.49 1482.97 2269.49 1475.86 Q2269.49 1468.73 2267.67 1465.19 Q2265.86 1461.62 2262.23 1461.62 M2262.23 1457.92 Q2268.04 1457.92 2271.09 1462.53 Q2274.17 1467.11 2274.17 1475.86 Q2274.17 1484.59 2271.09 1489.19 Q2268.04 1493.78 2262.23 1493.78 Q2256.42 1493.78 2253.34 1489.19 Q2250.28 1484.59 2250.28 1475.86 Q2250.28 1467.11 2253.34 1462.53 Q2256.42 1457.92 2262.23 1457.92 Z" fill="#000000" fill-rule="evenodd" fill-opacity="1" /><path clip-path="url(#clip770)" d="M 0 0 M2283.88 1440.11 Q2280.94 1440.11 2279.46 1443.01 Q2277.99 1445.89 2277.99 1451.68 Q2277.99 1457.46 2279.46 1460.35 Q2280.94 1463.23 2283.88 1463.23 Q2286.83 1463.23 2288.3 1460.35 Q2289.78 1457.46 2289.78 1451.68 Q2289.78 1445.89 2288.3 1443.01 Q2286.83 1440.11 2283.88 1440.11 M2283.88 1437.11 Q2288.6 1437.11 2291.08 1440.85 Q2293.58 1444.57 2293.58 1451.68 Q2293.58 1458.77 2291.08 1462.51 Q2288.6 1466.24 2283.88 1466.24 Q2279.15 1466.24 2276.65 1462.51 Q2274.17 1458.77 2274.17 1451.68 Q2274.17 1444.57 2276.65 1440.85 Q2279.15 1437.11 2283.88 1437.11 Z" fill="#000000" fill-rule="evenodd" fill-opacity="1" /><path clip-path="url(#clip770)" d="M 0 0 M2297.7 1460.92 L2301.67 1460.92 L2301.67 1465.69 L2297.7 1465.69 L2297.7 1460.92 Z" fill="#000000" fill-rule="evenodd" fill-opacity="1" /><path clip-path="url(#clip770)" d="M 0 0 M2313.91 1440.11 Q2310.98 1440.11 2309.49 1443.01 Q2308.02 1445.89 2308.02 1451.68 Q2308.02 1457.46 2309.49 1460.35 Q2310.98 1463.23 2313.91 1463.23 Q2316.86 1463.23 2318.33 1460.35 Q2319.82 1457.46 2319.82 1451.68 Q2319.82 1445.89 2318.33 1443.01 Q2316.86 1440.11 2313.91 1440.11 M2313.91 1437.11 Q2318.63 1437.11 2321.12 1440.85 Q2323.62 1444.57 2323.62 1451.68 Q2323.62 1458.77 2321.12 1462.51 Q2318.63 1466.24 2313.91 1466.24 Q2309.19 1466.24 2306.69 1462.51 Q2304.21 1458.77 2304.21 1451.68 Q2304.21 1444.57 2306.69 1440.85 Q2309.19 1437.11 2313.91 1437.11 Z" fill="#000000" fill-rule="evenodd" fill-opacity="1" /><path clip-path="url(#clip770)" d="M 0 0 M1188.36 1526.54 L1194.57 1526.54 L1205.71 1556.46 L1216.85 1526.54 L1223.06 1526.54 L1209.69 1562.19 L1201.73 1562.19 L1188.36 1526.54 Z" fill="#000000" fill-rule="evenodd" fill-opacity="1" /><path clip-path="url(#clip770)" d="M 0 0 M1256.29 1573.01 L1256.29 1577.56 L1222.42 1577.56 L1222.42 1573.01 L1256.29 1573.01 Z" fill="#000000" fill-rule="evenodd" fill-opacity="1" /><path clip-path="url(#clip770)" d="M 0 0 M1276.24 1530.64 Q1271.53 1530.64 1268.79 1534.34 Q1266.06 1538 1266.06 1544.39 Q1266.06 1550.79 1268.76 1554.48 Q1271.5 1558.14 1276.24 1558.14 Q1280.92 1558.14 1283.66 1554.45 Q1286.39 1550.76 1286.39 1544.39 Q1286.39 1538.06 1283.66 1534.37 Q1280.92 1530.64 1276.24 1530.64 M1276.24 1525.68 Q1283.88 1525.68 1288.24 1530.64 Q1292.6 1535.61 1292.6 1544.39 Q1292.6 1553.15 1288.24 1558.14 Q1283.88 1563.11 1276.24 1563.11 Q1268.57 1563.11 1264.21 1558.14 Q1259.88 1553.15 1259.88 1544.39 Q1259.88 1535.61 1264.21 1530.64 Q1268.57 1525.68 1276.24 1525.68 Z" fill="#000000" fill-rule="evenodd" fill-opacity="1" /><path clip-path="url(#clip770)" d="M 0 0 M1304.41 1556.84 L1304.41 1575.74 L1298.52 1575.74 L1298.52 1526.54 L1304.41 1526.54 L1304.41 1531.95 Q1306.26 1528.77 1309.06 1527.24 Q1311.89 1525.68 1315.8 1525.68 Q1322.3 1525.68 1326.34 1530.83 Q1330.41 1535.99 1330.41 1544.39 Q1330.41 1552.8 1326.34 1557.95 Q1322.3 1563.11 1315.8 1563.11 Q1311.89 1563.11 1309.06 1561.58 Q1306.26 1560.02 1304.41 1556.84 M1324.33 1544.39 Q1324.33 1537.93 1321.66 1534.27 Q1319.02 1530.58 1314.37 1530.58 Q1309.73 1530.58 1307.05 1534.27 Q1304.41 1537.93 1304.41 1544.39 Q1304.41 1550.85 1307.05 1554.55 Q1309.73 1558.21 1314.37 1558.21 Q1319.02 1558.21 1321.66 1554.55 Q1324.33 1550.85 1324.33 1544.39 Z" fill="#000000" fill-rule="evenodd" fill-opacity="1" /><path clip-path="url(#clip770)" d="M 0 0 M1367.05 1542.9 L1367.05 1545.76 L1340.12 1545.76 Q1340.5 1551.81 1343.75 1554.99 Q1347.03 1558.14 1352.85 1558.14 Q1356.23 1558.14 1359.38 1557.32 Q1362.56 1556.49 1365.68 1554.83 L1365.68 1560.37 Q1362.53 1561.71 1359.22 1562.41 Q1355.91 1563.11 1352.5 1563.11 Q1343.97 1563.11 1338.98 1558.14 Q1334.01 1553.18 1334.01 1544.71 Q1334.01 1535.96 1338.72 1530.83 Q1343.46 1525.68 1351.48 1525.68 Q1358.68 1525.68 1362.85 1530.33 Q1367.05 1534.94 1367.05 1542.9 M1361.19 1541.18 Q1361.13 1536.37 1358.49 1533.51 Q1355.88 1530.64 1351.55 1530.64 Q1346.65 1530.64 1343.69 1533.41 Q1340.76 1536.18 1340.31 1541.21 L1361.19 1541.18 Z" fill="#000000" fill-rule="evenodd" fill-opacity="1" /><path clip-path="url(#clip770)" d="M 0 0 M1402.82 1540.67 L1402.82 1562.19 L1396.97 1562.19 L1396.97 1540.86 Q1396.97 1535.8 1394.99 1533.29 Q1393.02 1530.77 1389.07 1530.77 Q1384.33 1530.77 1381.59 1533.79 Q1378.86 1536.82 1378.86 1542.04 L1378.86 1562.19 L1372.97 1562.19 L1372.97 1526.54 L1378.86 1526.54 L1378.86 1532.08 Q1380.96 1528.86 1383.79 1527.27 Q1386.65 1525.68 1390.38 1525.68 Q1396.52 1525.68 1399.67 1529.5 Q1402.82 1533.29 1402.82 1540.67 Z" fill="#000000" fill-rule="evenodd" fill-opacity="1" /><polyline clip-path="url(#clip772)" style="stroke:#000000; stroke-width:2; stroke-opacity:0.1; fill:none" points="
  238.431,1321.64 2352.76,1321.64 
  "/>
<polyline clip-path="url(#clip772)" style="stroke:#000000; stroke-width:2; stroke-opacity:0.1; fill:none" points="
  238.431,1000.03 2352.76,1000.03 
  "/>
<polyline clip-path="url(#clip772)" style="stroke:#000000; stroke-width:2; stroke-opacity:0.1; fill:none" points="
  238.431,678.411 2352.76,678.411 
  "/>
<polyline clip-path="url(#clip772)" style="stroke:#000000; stroke-width:2; stroke-opacity:0.1; fill:none" points="
  238.431,356.794 2352.76,356.794 
  "/>
<polyline clip-path="url(#clip770)" style="stroke:#000000; stroke-width:4; stroke-opacity:1; fill:none" points="
  238.431,1410.9 238.431,47.2441 
  "/>
<polyline clip-path="url(#clip770)" style="stroke:#000000; stroke-width:4; stroke-opacity:1; fill:none" points="
  238.431,1321.64 263.803,1321.64 
  "/>
<polyline clip-path="url(#clip770)" style="stroke:#000000; stroke-width:4; stroke-opacity:1; fill:none" points="
  238.431,1000.03 263.803,1000.03 
  "/>
<polyline clip-path="url(#clip770)" style="stroke:#000000; stroke-width:4; stroke-opacity:1; fill:none" points="
  238.431,678.411 263.803,678.411 
  "/>
<polyline clip-path="url(#clip770)" style="stroke:#000000; stroke-width:4; stroke-opacity:1; fill:none" points="
  238.431,356.794 263.803,356.794 
  "/>
<path clip-path="url(#clip770)" d="M 0 0 M131.459 1308.44 L119.654 1326.89 L131.459 1326.89 L131.459 1308.44 M130.232 1304.36 L136.112 1304.36 L136.112 1326.89 L141.042 1326.89 L141.042 1330.77 L136.112 1330.77 L136.112 1338.92 L131.459 1338.92 L131.459 1330.77 L115.857 1330.77 L115.857 1326.26 L130.232 1304.36 Z" fill="#000000" fill-rule="evenodd" fill-opacity="1" /><path clip-path="url(#clip770)" d="M 0 0 M146.112 1333.04 L150.996 1333.04 L150.996 1338.92 L146.112 1338.92 L146.112 1333.04 Z" fill="#000000" fill-rule="evenodd" fill-opacity="1" /><path clip-path="url(#clip770)" d="M 0 0 M160.093 1334.99 L176.413 1334.99 L176.413 1338.92 L154.468 1338.92 L154.468 1334.99 Q157.13 1332.23 161.714 1327.6 Q166.32 1322.95 167.501 1321.61 Q169.746 1319.08 170.626 1317.35 Q171.528 1315.59 171.528 1313.9 Q171.528 1311.15 169.584 1309.41 Q167.663 1307.67 164.561 1307.67 Q162.362 1307.67 159.908 1308.44 Q157.478 1309.2 154.7 1310.75 L154.7 1306.03 Q157.524 1304.9 159.978 1304.32 Q162.431 1303.74 164.468 1303.74 Q169.839 1303.74 173.033 1306.42 Q176.227 1309.11 176.227 1313.6 Q176.227 1315.73 175.417 1317.65 Q174.63 1319.55 172.524 1322.14 Q171.945 1322.81 168.843 1326.03 Q165.741 1329.22 160.093 1334.99 Z" fill="#000000" fill-rule="evenodd" fill-opacity="1" /><path clip-path="url(#clip770)" d="M 0 0 M181.528 1304.36 L199.885 1304.36 L199.885 1308.3 L185.811 1308.3 L185.811 1316.77 Q186.829 1316.42 187.848 1316.26 Q188.866 1316.08 189.885 1316.08 Q195.672 1316.08 199.051 1319.25 Q202.431 1322.42 202.431 1327.83 Q202.431 1333.41 198.959 1336.52 Q195.487 1339.59 189.167 1339.59 Q186.991 1339.59 184.723 1339.22 Q182.477 1338.85 180.07 1338.11 L180.07 1333.41 Q182.153 1334.55 184.376 1335.1 Q186.598 1335.66 189.075 1335.66 Q193.079 1335.66 195.417 1333.55 Q197.755 1331.45 197.755 1327.83 Q197.755 1324.22 195.417 1322.12 Q193.079 1320.01 189.075 1320.01 Q187.2 1320.01 185.325 1320.43 Q183.473 1320.84 181.528 1321.72 L181.528 1304.36 Z" fill="#000000" fill-rule="evenodd" fill-opacity="1" /><path clip-path="url(#clip770)" d="M 0 0 M129.862 986.821 L118.056 1005.27 L129.862 1005.27 L129.862 986.821 M128.635 982.747 L134.515 982.747 L134.515 1005.27 L139.445 1005.27 L139.445 1009.16 L134.515 1009.16 L134.515 1017.31 L129.862 1017.31 L129.862 1009.16 L114.26 1009.16 L114.26 1004.64 L128.635 982.747 Z" fill="#000000" fill-rule="evenodd" fill-opacity="1" /><path clip-path="url(#clip770)" d="M 0 0 M144.515 1011.43 L149.399 1011.43 L149.399 1017.31 L144.515 1017.31 L144.515 1011.43 Z" fill="#000000" fill-rule="evenodd" fill-opacity="1" /><path clip-path="url(#clip770)" d="M 0 0 M154.515 982.747 L172.871 982.747 L172.871 986.682 L158.797 986.682 L158.797 995.154 Q159.815 994.807 160.834 994.645 Q161.852 994.46 162.871 994.46 Q168.658 994.46 172.038 997.631 Q175.417 1000.8 175.417 1006.22 Q175.417 1011.8 171.945 1014.9 Q168.473 1017.98 162.153 1017.98 Q159.978 1017.98 157.709 1017.61 Q155.464 1017.24 153.056 1016.5 L153.056 1011.8 Q155.14 1012.93 157.362 1013.49 Q159.584 1014.04 162.061 1014.04 Q166.065 1014.04 168.403 1011.94 Q170.741 1009.83 170.741 1006.22 Q170.741 1002.61 168.403 1000.5 Q166.065 998.395 162.061 998.395 Q160.186 998.395 158.311 998.811 Q156.459 999.228 154.515 1000.11 L154.515 982.747 Z" fill="#000000" fill-rule="evenodd" fill-opacity="1" /><path clip-path="url(#clip770)" d="M 0 0 M190.487 985.825 Q186.876 985.825 185.047 989.39 Q183.241 992.932 183.241 1000.06 Q183.241 1007.17 185.047 1010.73 Q186.876 1014.27 190.487 1014.27 Q194.121 1014.27 195.926 1010.73 Q197.755 1007.17 197.755 1000.06 Q197.755 992.932 195.926 989.39 Q194.121 985.825 190.487 985.825 M190.487 982.122 Q196.297 982.122 199.352 986.728 Q202.431 991.311 202.431 1000.06 Q202.431 1008.79 199.352 1013.39 Q196.297 1017.98 190.487 1017.98 Q184.676 1017.98 181.598 1013.39 Q178.542 1008.79 178.542 1000.06 Q178.542 991.311 181.598 986.728 Q184.676 982.122 190.487 982.122 Z" fill="#000000" fill-rule="evenodd" fill-opacity="1" /><path clip-path="url(#clip770)" d="M 0 0 M130.765 665.205 L118.959 683.654 L130.765 683.654 L130.765 665.205 M129.538 661.131 L135.417 661.131 L135.417 683.654 L140.348 683.654 L140.348 687.542 L135.417 687.542 L135.417 695.691 L130.765 695.691 L130.765 687.542 L115.163 687.542 L115.163 683.029 L129.538 661.131 Z" fill="#000000" fill-rule="evenodd" fill-opacity="1" /><path clip-path="url(#clip770)" d="M 0 0 M145.417 689.811 L150.302 689.811 L150.302 695.691 L145.417 695.691 L145.417 689.811 Z" fill="#000000" fill-rule="evenodd" fill-opacity="1" /><path clip-path="url(#clip770)" d="M 0 0 M154.19 661.131 L176.413 661.131 L176.413 663.121 L163.866 695.691 L158.982 695.691 L170.788 665.066 L154.19 665.066 L154.19 661.131 Z" fill="#000000" fill-rule="evenodd" fill-opacity="1" /><path clip-path="url(#clip770)" d="M 0 0 M181.528 661.131 L199.885 661.131 L199.885 665.066 L185.811 665.066 L185.811 673.538 Q186.829 673.191 187.848 673.029 Q188.866 672.843 189.885 672.843 Q195.672 672.843 199.051 676.015 Q202.431 679.186 202.431 684.603 Q202.431 690.181 198.959 693.283 Q195.487 696.362 189.167 696.362 Q186.991 696.362 184.723 695.991 Q182.477 695.621 180.07 694.88 L180.07 690.181 Q182.153 691.316 184.376 691.871 Q186.598 692.427 189.075 692.427 Q193.079 692.427 195.417 690.32 Q197.755 688.214 197.755 684.603 Q197.755 680.992 195.417 678.885 Q193.079 676.779 189.075 676.779 Q187.2 676.779 185.325 677.195 Q183.473 677.612 181.528 678.492 L181.528 661.131 Z" fill="#000000" fill-rule="evenodd" fill-opacity="1" /><path clip-path="url(#clip770)" d="M 0 0 M117.547 339.514 L135.904 339.514 L135.904 343.45 L121.83 343.45 L121.83 351.922 Q122.848 351.574 123.867 351.412 Q124.885 351.227 125.904 351.227 Q131.691 351.227 135.07 354.399 Q138.45 357.57 138.45 362.986 Q138.45 368.565 134.978 371.667 Q131.505 374.746 125.186 374.746 Q123.01 374.746 120.742 374.375 Q118.496 374.005 116.089 373.264 L116.089 368.565 Q118.172 369.699 120.394 370.255 Q122.617 370.81 125.093 370.81 Q129.098 370.81 131.436 368.704 Q133.774 366.598 133.774 362.986 Q133.774 359.375 131.436 357.269 Q129.098 355.162 125.093 355.162 Q123.218 355.162 121.343 355.579 Q119.492 355.996 117.547 356.875 L117.547 339.514 Z" fill="#000000" fill-rule="evenodd" fill-opacity="1" /><path clip-path="url(#clip770)" d="M 0 0 M143.519 368.195 L148.403 368.195 L148.403 374.074 L143.519 374.074 L143.519 368.195 Z" fill="#000000" fill-rule="evenodd" fill-opacity="1" /><path clip-path="url(#clip770)" d="M 0 0 M163.473 342.593 Q159.862 342.593 158.033 346.158 Q156.228 349.699 156.228 356.829 Q156.228 363.936 158.033 367.5 Q159.862 371.042 163.473 371.042 Q167.107 371.042 168.913 367.5 Q170.741 363.936 170.741 356.829 Q170.741 349.699 168.913 346.158 Q167.107 342.593 163.473 342.593 M163.473 338.889 Q169.283 338.889 172.339 343.496 Q175.417 348.079 175.417 356.829 Q175.417 365.556 172.339 370.162 Q169.283 374.746 163.473 374.746 Q157.663 374.746 154.584 370.162 Q151.528 365.556 151.528 356.829 Q151.528 348.079 154.584 343.496 Q157.663 338.889 163.473 338.889 Z" fill="#000000" fill-rule="evenodd" fill-opacity="1" /><path clip-path="url(#clip770)" d="M 0 0 M190.487 342.593 Q186.876 342.593 185.047 346.158 Q183.241 349.699 183.241 356.829 Q183.241 363.936 185.047 367.5 Q186.876 371.042 190.487 371.042 Q194.121 371.042 195.926 367.5 Q197.755 363.936 197.755 356.829 Q197.755 349.699 195.926 346.158 Q194.121 342.593 190.487 342.593 M190.487 338.889 Q196.297 338.889 199.352 343.496 Q202.431 348.079 202.431 356.829 Q202.431 365.556 199.352 370.162 Q196.297 374.746 190.487 374.746 Q184.676 374.746 181.598 370.162 Q178.542 365.556 178.542 356.829 Q178.542 348.079 181.598 343.496 Q184.676 338.889 190.487 338.889 Z" fill="#000000" fill-rule="evenodd" fill-opacity="1" /><path clip-path="url(#clip770)" d="M 0 0 M59.1993 815.533 Q55.2526 813.336 53.3747 810.281 Q51.4968 807.225 51.4968 803.088 Q51.4968 797.518 55.4117 794.494 Q59.2948 791.47 66.4881 791.47 L88.0042 791.47 L88.0042 797.358 L66.679 797.358 Q61.5546 797.358 59.072 799.173 Q56.5894 800.987 56.5894 804.711 Q56.5894 809.262 59.6131 811.904 Q62.6368 814.546 67.8567 814.546 L88.0042 814.546 L88.0042 820.434 L66.679 820.434 Q61.5228 820.434 59.072 822.248 Q56.5894 824.063 56.5894 827.85 Q56.5894 832.338 59.6449 834.98 Q62.6686 837.622 67.8567 837.622 L88.0042 837.622 L88.0042 843.51 L52.3562 843.51 L52.3562 837.622 L57.8944 837.622 Q54.616 835.616 53.0564 832.815 Q51.4968 830.015 51.4968 826.163 Q51.4968 822.28 53.4702 819.575 Q55.4436 816.838 59.1993 815.533 Z" fill="#000000" fill-rule="evenodd" fill-opacity="1" /><path clip-path="url(#clip770)" d="M 0 0 M52.3562 785.327 L52.3562 779.471 L88.0042 779.471 L88.0042 785.327 L52.3562 785.327 M38.479 785.327 L38.479 779.471 L45.895 779.471 L45.895 785.327 L38.479 785.327 Z" fill="#000000" fill-rule="evenodd" fill-opacity="1" /><path clip-path="url(#clip770)" d="M 0 0 M66.4881 743.696 L88.0042 743.696 L88.0042 749.552 L66.679 749.552 Q61.6183 749.552 59.1038 751.525 Q56.5894 753.499 56.5894 757.446 Q56.5894 762.188 59.6131 764.925 Q62.6368 767.662 67.8567 767.662 L88.0042 767.662 L88.0042 773.551 L52.3562 773.551 L52.3562 767.662 L57.8944 767.662 Q54.6797 765.562 53.0883 762.729 Q51.4968 759.864 51.4968 756.141 Q51.4968 749.998 55.3163 746.847 Q59.1038 743.696 66.4881 743.696 Z" fill="#000000" fill-rule="evenodd" fill-opacity="1" /><path clip-path="url(#clip770)" d="M 0 0 M98.8259 710.467 L103.377 710.467 L103.377 744.332 L98.8259 744.332 L98.8259 710.467 Z" fill="#000000" fill-rule="evenodd" fill-opacity="1" /><path clip-path="url(#clip770)" d="M 0 0 M57.7671 680.866 L38.479 680.866 L38.479 675.01 L88.0042 675.01 L88.0042 680.866 L82.657 680.866 Q85.8398 682.712 87.3994 685.545 Q88.9272 688.346 88.9272 692.292 Q88.9272 698.754 83.771 702.828 Q78.6147 706.87 70.212 706.87 Q61.8093 706.87 56.6531 702.828 Q51.4968 698.754 51.4968 692.292 Q51.4968 688.346 53.0564 685.545 Q54.5842 682.712 57.7671 680.866 M70.212 700.823 Q76.6732 700.823 80.3653 698.181 Q84.0256 695.507 84.0256 690.86 Q84.0256 686.213 80.3653 683.54 Q76.6732 680.866 70.212 680.866 Q63.7508 680.866 60.0905 683.54 Q56.3984 686.213 56.3984 690.86 Q56.3984 695.507 60.0905 698.181 Q63.7508 700.823 70.212 700.823 Z" fill="#000000" fill-rule="evenodd" fill-opacity="1" /><path clip-path="url(#clip770)" d="M 0 0 M52.3562 668.867 L52.3562 663.01 L88.0042 663.01 L88.0042 668.867 L52.3562 668.867 M38.479 668.867 L38.479 663.01 L45.895 663.01 L45.895 668.867 L38.479 668.867 Z" fill="#000000" fill-rule="evenodd" fill-opacity="1" /><path clip-path="url(#clip770)" d="M 0 0 M38.479 638.821 L43.3487 638.821 L43.3487 644.422 Q43.3487 647.573 44.6219 648.815 Q45.895 650.024 49.2052 650.024 L52.3562 650.024 L52.3562 640.38 L56.9077 640.38 L56.9077 650.024 L88.0042 650.024 L88.0042 655.912 L56.9077 655.912 L56.9077 661.514 L52.3562 661.514 L52.3562 655.912 L49.8736 655.912 Q43.9216 655.912 41.2162 653.143 Q38.479 650.374 38.479 644.359 L38.479 638.821 Z" fill="#000000" fill-rule="evenodd" fill-opacity="1" /><path clip-path="url(#clip770)" d="M 0 0 M38.479 614.631 L43.3487 614.631 L43.3487 620.233 Q43.3487 623.384 44.6219 624.625 Q45.895 625.835 49.2052 625.835 L52.3562 625.835 L52.3562 616.19 L56.9077 616.19 L56.9077 625.835 L88.0042 625.835 L88.0042 631.723 L56.9077 631.723 L56.9077 637.325 L52.3562 637.325 L52.3562 631.723 L49.8736 631.723 Q43.9216 631.723 41.2162 628.954 Q38.479 626.185 38.479 620.169 L38.479 614.631 Z" fill="#000000" fill-rule="evenodd" fill-opacity="1" /><path clip-path="url(#clip770)" d="
M1996.34 213.659 L2282.28 213.659 L2282.28 92.6992 L1996.34 92.6992  Z
  " fill="#ffffff" fill-rule="evenodd" fill-opacity="1"/>
<polyline clip-path="url(#clip770)" style="stroke:#000000; stroke-width:4; stroke-opacity:1; fill:none" points="
  1996.34,213.659 2282.28,213.659 2282.28,92.6992 1996.34,92.6992 1996.34,213.659 
  "/>
<polyline clip-path="url(#clip770)" style="stroke:#009af9; stroke-width:4; stroke-opacity:1; fill:none" stroke-dasharray="16, 10" points="
  2019.83,153.179 2160.78,153.179 
  "/>
<path clip-path="url(#clip770)" d="M 0 0 M2198.12 172.867 Q2196.31 177.496 2194.6 178.908 Q2192.89 180.32 2190.02 180.32 L2186.61 180.32 L2186.61 176.755 L2189.11 176.755 Q2190.87 176.755 2191.84 175.922 Q2192.82 175.089 2194 171.987 L2194.76 170.043 L2184.28 144.533 L2188.79 144.533 L2196.89 164.811 L2204.99 144.533 L2209.51 144.533 L2198.12 172.867 Z" fill="#000000" fill-rule="evenodd" fill-opacity="1" /><path clip-path="url(#clip770)" d="M 0 0 M2215.39 166.524 L2223.02 166.524 L2223.02 140.158 L2214.71 141.825 L2214.71 137.566 L2222.98 135.899 L2227.65 135.899 L2227.65 166.524 L2235.29 166.524 L2235.29 170.459 L2215.39 170.459 L2215.39 166.524 Z" fill="#000000" fill-rule="evenodd" fill-opacity="1" /></svg>
