<?xml version="1.0" encoding="utf-8"?>
<svg xmlns="http://www.w3.org/2000/svg" xmlns:xlink="http://www.w3.org/1999/xlink" width="600" height="400" viewBox="0 0 2400 1600">
<defs>
  <clipPath id="clip870">
    <rect x="0" y="0" width="2400" height="1600"/>
  </clipPath>
</defs>
<path clip-path="url(#clip870)" d="
M0 1600 L2400 1600 L2400 0 L0 0  Z
  " fill="#ffffff" fill-rule="evenodd" fill-opacity="1"/>
<defs>
  <clipPath id="clip871">
    <rect x="480" y="0" width="1681" height="1600"/>
  </clipPath>
</defs>
<path clip-path="url(#clip870)" d="
M211.093 1410.9 L2352.76 1410.9 L2352.76 47.2441 L211.093 47.2441  Z
  " fill="#ffffff" fill-rule="evenodd" fill-opacity="1"/>
<defs>
  <clipPath id="clip872">
    <rect x="211" y="47" width="2143" height="1365"/>
  </clipPath>
</defs>
<polyline clip-path="url(#clip872)" style="stroke:#000000; stroke-width:2; stroke-opacity:0.1; fill:none" points="
  271.706,1410.9 271.706,47.2441 
  "/>
<polyline clip-path="url(#clip872)" style="stroke:#000000; stroke-width:2; stroke-opacity:0.1; fill:none" points="
  608.446,1410.9 608.446,47.2441 
  "/>
<polyline clip-path="url(#clip872)" style="stroke:#000000; stroke-width:2; stroke-opacity:0.1; fill:none" points="
  945.185,1410.9 945.185,47.2441 
  "/>
<polyline clip-path="url(#clip872)" style="stroke:#000000; stroke-width:2; stroke-opacity:0.1; fill:none" points="
  1281.92,1410.9 1281.92,47.2441 
  "/>
<polyline clip-path="url(#clip872)" style="stroke:#000000; stroke-width:2; stroke-opacity:0.1; fill:none" points="
  1618.66,1410.9 1618.66,47.2441 
  "/>
<polyline clip-path="url(#clip872)" style="stroke:#000000; stroke-width:2; stroke-opacity:0.1; fill:none" points="
  1955.4,1410.9 1955.4,47.2441 
  "/>
<polyline clip-path="url(#clip872)" style="stroke:#000000; stroke-width:2; stroke-opacity:0.1; fill:none" points="
  2292.14,1410.9 2292.14,47.2441 
  "/>
<polyline clip-path="url(#clip870)" style="stroke:#000000; stroke-width:4; stroke-opacity:1; fill:none" points="
  211.093,1410.9 2352.76,1410.9 
  "/>
<polyline clip-path="url(#clip870)" style="stroke:#000000; stroke-width:4; stroke-opacity:1; fill:none" points="
  271.706,1410.9 271.706,1394.53 
  "/>
<polyline clip-path="url(#clip870)" style="stroke:#000000; stroke-width:4; stroke-opacity:1; fill:none" points="
  608.446,1410.9 608.446,1394.53 
  "/>
<polyline clip-path="url(#clip870)" style="stroke:#000000; stroke-width:4; stroke-opacity:1; fill:none" points="
  945.185,1410.9 945.185,1394.53 
  "/>
<polyline clip-path="url(#clip870)" style="stroke:#000000; stroke-width:4; stroke-opacity:1; fill:none" points="
  1281.92,1410.9 1281.92,1394.53 
  "/>
<polyline clip-path="url(#clip870)" style="stroke:#000000; stroke-width:4; stroke-opacity:1; fill:none" points="
  1618.66,1410.9 1618.66,1394.53 
  "/>
<polyline clip-path="url(#clip870)" style="stroke:#000000; stroke-width:4; stroke-opacity:1; fill:none" points="
  1955.4,1410.9 1955.4,1394.53 
  "/>
<polyline clip-path="url(#clip870)" style="stroke:#000000; stroke-width:4; stroke-opacity:1; fill:none" points="
  2292.14,1410.9 2292.14,1394.53 
  "/>
<path clip-path="url(#clip870)" d="M 0 0 M225.485 1489.17 L233.124 1489.17 L233.124 1462.8 L224.814 1464.47 L224.814 1460.21 L233.078 1458.54 L237.754 1458.54 L237.754 1489.17 L245.393 1489.17 L245.393 1493.1 L225.485 1493.1 L225.485 1489.17 Z" fill="#000000" fill-rule="evenodd" fill-opacity="1" /><path clip-path="url(#clip870)" d="M 0 0 M260.462 1461.62 Q256.851 1461.62 255.022 1465.19 Q253.217 1468.73 253.217 1475.86 Q253.217 1482.97 255.022 1486.53 Q256.851 1490.07 260.462 1490.07 Q264.096 1490.07 265.902 1486.53 Q267.731 1482.97 267.731 1475.86 Q267.731 1468.73 265.902 1465.19 Q264.096 1461.62 260.462 1461.62 M260.462 1457.92 Q266.272 1457.92 269.328 1462.53 Q272.406 1467.11 272.406 1475.86 Q272.406 1484.59 269.328 1489.19 Q266.272 1493.78 260.462 1493.78 Q254.652 1493.78 251.573 1489.19 Q248.518 1484.59 248.518 1475.86 Q248.518 1467.11 251.573 1462.53 Q254.652 1457.92 260.462 1457.92 Z" fill="#000000" fill-rule="evenodd" fill-opacity="1" /><path clip-path="url(#clip870)" d="M 0 0 M272.406 1452.02 L296.518 1452.02 L296.518 1455.22 L272.406 1455.22 L272.406 1452.02 Z" fill="#000000" fill-rule="evenodd" fill-opacity="1" /><path clip-path="url(#clip870)" d="M 0 0 M309.232 1450.14 Q306.674 1450.14 305.17 1451.89 Q303.684 1453.64 303.684 1456.68 Q303.684 1459.71 305.17 1461.48 Q306.674 1463.23 309.232 1463.23 Q311.79 1463.23 313.276 1461.48 Q314.78 1459.71 314.78 1456.68 Q314.78 1453.64 313.276 1451.89 Q311.79 1450.14 309.232 1450.14 M316.774 1438.23 L316.774 1441.69 Q315.345 1441.02 313.878 1440.66 Q312.429 1440.3 311 1440.3 Q307.238 1440.3 305.245 1442.84 Q303.27 1445.38 302.988 1450.52 Q304.098 1448.88 305.771 1448.01 Q307.445 1447.13 309.458 1447.13 Q313.69 1447.13 316.135 1449.71 Q318.598 1452.26 318.598 1456.68 Q318.598 1461.01 316.041 1463.62 Q313.483 1466.24 309.232 1466.24 Q304.361 1466.24 301.784 1462.51 Q299.208 1458.77 299.208 1451.68 Q299.208 1445.02 302.367 1441.07 Q305.527 1437.11 310.85 1437.11 Q312.279 1437.11 313.727 1437.39 Q315.194 1437.67 316.774 1438.23 Z" fill="#000000" fill-rule="evenodd" fill-opacity="1" /><path clip-path="url(#clip870)" d="M 0 0 M562.695 1489.17 L570.334 1489.17 L570.334 1462.8 L562.024 1464.47 L562.024 1460.21 L570.288 1458.54 L574.963 1458.54 L574.963 1489.17 L582.602 1489.17 L582.602 1493.1 L562.695 1493.1 L562.695 1489.17 Z" fill="#000000" fill-rule="evenodd" fill-opacity="1" /><path clip-path="url(#clip870)" d="M 0 0 M597.672 1461.62 Q594.061 1461.62 592.232 1465.19 Q590.426 1468.73 590.426 1475.86 Q590.426 1482.97 592.232 1486.53 Q594.061 1490.07 597.672 1490.07 Q601.306 1490.07 603.111 1486.53 Q604.94 1482.97 604.94 1475.86 Q604.94 1468.73 603.111 1465.19 Q601.306 1461.62 597.672 1461.62 M597.672 1457.92 Q603.482 1457.92 606.537 1462.53 Q609.616 1467.11 609.616 1475.86 Q609.616 1484.59 606.537 1489.19 Q603.482 1493.78 597.672 1493.78 Q591.862 1493.78 588.783 1489.19 Q585.727 1484.59 585.727 1475.86 Q585.727 1467.11 588.783 1462.53 Q591.862 1457.92 597.672 1457.92 Z" fill="#000000" fill-rule="evenodd" fill-opacity="1" /><path clip-path="url(#clip870)" d="M 0 0 M609.616 1452.02 L633.728 1452.02 L633.728 1455.22 L609.616 1455.22 L609.616 1452.02 Z" fill="#000000" fill-rule="evenodd" fill-opacity="1" /><path clip-path="url(#clip870)" d="M 0 0 M637.884 1437.61 L652.799 1437.61 L652.799 1440.81 L641.364 1440.81 L641.364 1447.69 Q642.191 1447.41 643.019 1447.28 Q643.846 1447.13 644.674 1447.13 Q649.376 1447.13 652.122 1449.71 Q654.868 1452.28 654.868 1456.68 Q654.868 1461.22 652.046 1463.74 Q649.225 1466.24 644.091 1466.24 Q642.323 1466.24 640.48 1465.94 Q638.655 1465.64 636.699 1465.04 L636.699 1461.22 Q638.392 1462.14 640.198 1462.59 Q642.003 1463.04 644.015 1463.04 Q647.269 1463.04 649.169 1461.33 Q651.068 1459.62 651.068 1456.68 Q651.068 1453.75 649.169 1452.04 Q647.269 1450.33 644.015 1450.33 Q642.492 1450.33 640.969 1450.67 Q639.464 1451 637.884 1451.72 L637.884 1437.61 Z" fill="#000000" fill-rule="evenodd" fill-opacity="1" /><path clip-path="url(#clip870)" d="M 0 0 M898.833 1489.17 L906.471 1489.17 L906.471 1462.8 L898.161 1464.47 L898.161 1460.21 L906.425 1458.54 L911.101 1458.54 L911.101 1489.17 L918.74 1489.17 L918.74 1493.1 L898.833 1493.1 L898.833 1489.17 Z" fill="#000000" fill-rule="evenodd" fill-opacity="1" /><path clip-path="url(#clip870)" d="M 0 0 M933.809 1461.62 Q930.198 1461.62 928.369 1465.19 Q926.564 1468.73 926.564 1475.86 Q926.564 1482.97 928.369 1486.53 Q930.198 1490.07 933.809 1490.07 Q937.443 1490.07 939.249 1486.53 Q941.078 1482.97 941.078 1475.86 Q941.078 1468.73 939.249 1465.19 Q937.443 1461.62 933.809 1461.62 M933.809 1457.92 Q939.619 1457.92 942.675 1462.53 Q945.754 1467.11 945.754 1475.86 Q945.754 1484.59 942.675 1489.19 Q939.619 1493.78 933.809 1493.78 Q927.999 1493.78 924.92 1489.19 Q921.865 1484.59 921.865 1475.86 Q921.865 1467.11 924.92 1462.53 Q927.999 1457.92 933.809 1457.92 Z" fill="#000000" fill-rule="evenodd" fill-opacity="1" /><path clip-path="url(#clip870)" d="M 0 0 M945.754 1452.02 L969.865 1452.02 L969.865 1455.22 L945.754 1455.22 L945.754 1452.02 Z" fill="#000000" fill-rule="evenodd" fill-opacity="1" /><path clip-path="url(#clip870)" d="M 0 0 M984.422 1440.92 L974.83 1455.91 L984.422 1455.91 L984.422 1440.92 M983.426 1437.61 L988.203 1437.61 L988.203 1455.91 L992.209 1455.91 L992.209 1459.07 L988.203 1459.07 L988.203 1465.69 L984.422 1465.69 L984.422 1459.07 L971.746 1459.07 L971.746 1455.41 L983.426 1437.61 Z" fill="#000000" fill-rule="evenodd" fill-opacity="1" /><path clip-path="url(#clip870)" d="M 0 0 M1236.03 1489.17 L1243.67 1489.17 L1243.67 1462.8 L1235.36 1464.47 L1235.36 1460.21 L1243.63 1458.54 L1248.3 1458.54 L1248.3 1489.17 L1255.94 1489.17 L1255.94 1493.1 L1236.03 1493.1 L1236.03 1489.17 Z" fill="#000000" fill-rule="evenodd" fill-opacity="1" /><path clip-path="url(#clip870)" d="M 0 0 M1271.01 1461.62 Q1267.4 1461.62 1265.57 1465.19 Q1263.76 1468.73 1263.76 1475.86 Q1263.76 1482.97 1265.57 1486.53 Q1267.4 1490.07 1271.01 1490.07 Q1274.64 1490.07 1276.45 1486.53 Q1278.28 1482.97 1278.28 1475.86 Q1278.28 1468.73 1276.45 1465.19 Q1274.64 1461.62 1271.01 1461.62 M1271.01 1457.92 Q1276.82 1457.92 1279.88 1462.53 Q1282.95 1467.11 1282.95 1475.86 Q1282.95 1484.59 1279.88 1489.19 Q1276.82 1493.78 1271.01 1493.78 Q1265.2 1493.78 1262.12 1489.19 Q1259.07 1484.59 1259.07 1475.86 Q1259.07 1467.11 1262.12 1462.53 Q1265.2 1457.92 1271.01 1457.92 Z" fill="#000000" fill-rule="evenodd" fill-opacity="1" /><path clip-path="url(#clip870)" d="M 0 0 M1282.95 1452.02 L1307.07 1452.02 L1307.07 1455.22 L1282.95 1455.22 L1282.95 1452.02 Z" fill="#000000" fill-rule="evenodd" fill-opacity="1" /><path clip-path="url(#clip870)" d="M 0 0 M1322.69 1450.55 Q1325.42 1451.14 1326.95 1452.98 Q1328.49 1454.82 1328.49 1457.53 Q1328.49 1461.69 1325.63 1463.96 Q1322.77 1466.24 1317.5 1466.24 Q1315.74 1466.24 1313.85 1465.88 Q1311.99 1465.54 1310 1464.85 L1310 1461.18 Q1311.58 1462.1 1313.46 1462.57 Q1315.34 1463.04 1317.39 1463.04 Q1320.96 1463.04 1322.83 1461.63 Q1324.71 1460.22 1324.71 1457.53 Q1324.71 1455.05 1322.96 1453.66 Q1321.23 1452.25 1318.12 1452.25 L1314.85 1452.25 L1314.85 1449.12 L1318.27 1449.12 Q1321.08 1449.12 1322.56 1448.01 Q1324.05 1446.89 1324.05 1444.78 Q1324.05 1442.62 1322.51 1441.47 Q1320.98 1440.3 1318.12 1440.3 Q1316.56 1440.3 1314.78 1440.64 Q1312.99 1440.98 1310.85 1441.69 L1310.85 1438.31 Q1313.01 1437.71 1314.89 1437.41 Q1316.79 1437.11 1318.46 1437.11 Q1322.79 1437.11 1325.31 1439.08 Q1327.83 1441.04 1327.83 1444.38 Q1327.83 1446.72 1326.49 1448.33 Q1325.16 1449.93 1322.69 1450.55 Z" fill="#000000" fill-rule="evenodd" fill-opacity="1" /><path clip-path="url(#clip870)" d="M 0 0 M1573.16 1489.17 L1580.8 1489.17 L1580.8 1462.8 L1572.49 1464.47 L1572.49 1460.21 L1580.75 1458.54 L1585.43 1458.54 L1585.43 1489.17 L1593.07 1489.17 L1593.07 1493.1 L1573.16 1493.1 L1573.16 1489.17 Z" fill="#000000" fill-rule="evenodd" fill-opacity="1" /><path clip-path="url(#clip870)" d="M 0 0 M1608.13 1461.62 Q1604.52 1461.62 1602.69 1465.19 Q1600.89 1468.73 1600.89 1475.86 Q1600.89 1482.97 1602.69 1486.53 Q1604.52 1490.07 1608.13 1490.07 Q1611.77 1490.07 1613.57 1486.53 Q1615.4 1482.97 1615.4 1475.86 Q1615.4 1468.73 1613.57 1465.19 Q1611.77 1461.62 1608.13 1461.62 M1608.13 1457.92 Q1613.94 1457.92 1617 1462.53 Q1620.08 1467.11 1620.08 1475.86 Q1620.08 1484.59 1617 1489.19 Q1613.94 1493.78 1608.13 1493.78 Q1602.32 1493.78 1599.25 1489.19 Q1596.19 1484.59 1596.19 1475.86 Q1596.19 1467.11 1599.25 1462.53 Q1602.32 1457.92 1608.13 1457.92 Z" fill="#000000" fill-rule="evenodd" fill-opacity="1" /><path clip-path="url(#clip870)" d="M 0 0 M1620.08 1452.02 L1644.19 1452.02 L1644.19 1455.22 L1620.08 1455.22 L1620.08 1452.02 Z" fill="#000000" fill-rule="evenodd" fill-opacity="1" /><path clip-path="url(#clip870)" d="M 0 0 M1651.58 1462.5 L1664.84 1462.5 L1664.84 1465.69 L1647.01 1465.69 L1647.01 1462.5 Q1649.17 1460.26 1652.9 1456.5 Q1656.64 1452.72 1657.6 1451.63 Q1659.42 1449.58 1660.14 1448.16 Q1660.87 1446.74 1660.87 1445.36 Q1660.87 1443.12 1659.29 1441.71 Q1657.73 1440.3 1655.21 1440.3 Q1653.42 1440.3 1651.43 1440.92 Q1649.46 1441.54 1647.2 1442.8 L1647.2 1438.97 Q1649.49 1438.05 1651.49 1437.58 Q1653.48 1437.11 1655.14 1437.11 Q1659.5 1437.11 1662.1 1439.29 Q1664.69 1441.47 1664.69 1445.12 Q1664.69 1446.85 1664.03 1448.41 Q1663.39 1449.95 1661.68 1452.06 Q1661.21 1452.6 1658.69 1455.22 Q1656.17 1457.81 1651.58 1462.5 Z" fill="#000000" fill-rule="evenodd" fill-opacity="1" /><path clip-path="url(#clip870)" d="M 0 0 M1909.75 1489.17 L1917.39 1489.17 L1917.39 1462.8 L1909.08 1464.47 L1909.08 1460.21 L1917.34 1458.54 L1922.02 1458.54 L1922.02 1489.17 L1929.65 1489.17 L1929.65 1493.1 L1909.75 1493.1 L1909.75 1489.17 Z" fill="#000000" fill-rule="evenodd" fill-opacity="1" /><path clip-path="url(#clip870)" d="M 0 0 M1944.72 1461.62 Q1941.11 1461.62 1939.28 1465.19 Q1937.48 1468.73 1937.48 1475.86 Q1937.48 1482.97 1939.28 1486.53 Q1941.11 1490.07 1944.72 1490.07 Q1948.36 1490.07 1950.16 1486.53 Q1951.99 1482.97 1951.99 1475.86 Q1951.99 1468.73 1950.16 1465.19 Q1948.36 1461.62 1944.72 1461.62 M1944.72 1457.92 Q1950.53 1457.92 1953.59 1462.53 Q1956.67 1467.11 1956.67 1475.86 Q1956.67 1484.59 1953.59 1489.19 Q1950.53 1493.78 1944.72 1493.78 Q1938.91 1493.78 1935.83 1489.19 Q1932.78 1484.59 1932.78 1475.86 Q1932.78 1467.11 1935.83 1462.53 Q1938.91 1457.92 1944.72 1457.92 Z" fill="#000000" fill-rule="evenodd" fill-opacity="1" /><path clip-path="url(#clip870)" d="M 0 0 M1956.67 1452.02 L1980.78 1452.02 L1980.78 1455.22 L1956.67 1455.22 L1956.67 1452.02 Z" fill="#000000" fill-rule="evenodd" fill-opacity="1" /><path clip-path="url(#clip870)" d="M 0 0 M1985.56 1462.5 L1991.76 1462.5 L1991.76 1441.07 L1985.01 1442.43 L1985.01 1438.97 L1991.73 1437.61 L1995.52 1437.61 L1995.52 1462.5 L2001.73 1462.5 L2001.73 1465.69 L1985.56 1465.69 L1985.56 1462.5 Z" fill="#000000" fill-rule="evenodd" fill-opacity="1" /><path clip-path="url(#clip870)" d="M 0 0 M2259.31 1489.17 L2266.95 1489.17 L2266.95 1462.8 L2258.64 1464.47 L2258.64 1460.21 L2266.91 1458.54 L2271.58 1458.54 L2271.58 1489.17 L2279.22 1489.17 L2279.22 1493.1 L2259.31 1493.1 L2259.31 1489.17 Z" fill="#000000" fill-rule="evenodd" fill-opacity="1" /><path clip-path="url(#clip870)" d="M 0 0 M2294.29 1461.62 Q2290.68 1461.62 2288.85 1465.19 Q2287.04 1468.73 2287.04 1475.86 Q2287.04 1482.97 2288.85 1486.53 Q2290.68 1490.07 2294.29 1490.07 Q2297.92 1490.07 2299.73 1486.53 Q2301.56 1482.97 2301.56 1475.86 Q2301.56 1468.73 2299.73 1465.19 Q2297.92 1461.62 2294.29 1461.62 M2294.29 1457.92 Q2300.1 1457.92 2303.16 1462.53 Q2306.23 1467.11 2306.23 1475.86 Q2306.23 1484.59 2303.16 1489.19 Q2300.1 1493.78 2294.29 1493.78 Q2288.48 1493.78 2285.4 1489.19 Q2282.35 1484.59 2282.35 1475.86 Q2282.35 1467.11 2285.4 1462.53 Q2288.48 1457.92 2294.29 1457.92 Z" fill="#000000" fill-rule="evenodd" fill-opacity="1" /><path clip-path="url(#clip870)" d="M 0 0 M2315.94 1440.11 Q2313 1440.11 2311.52 1443.01 Q2310.05 1445.89 2310.05 1451.68 Q2310.05 1457.46 2311.52 1460.35 Q2313 1463.23 2315.94 1463.23 Q2318.89 1463.23 2320.36 1460.35 Q2321.84 1457.46 2321.84 1451.68 Q2321.84 1445.89 2320.36 1443.01 Q2318.89 1440.11 2315.94 1440.11 M2315.94 1437.11 Q2320.66 1437.11 2323.14 1440.85 Q2325.64 1444.57 2325.64 1451.68 Q2325.64 1458.77 2323.14 1462.51 Q2320.66 1466.24 2315.94 1466.24 Q2311.22 1466.24 2308.72 1462.51 Q2306.23 1458.77 2306.23 1451.68 Q2306.23 1444.57 2308.72 1440.85 Q2311.22 1437.11 2315.94 1437.11 Z" fill="#000000" fill-rule="evenodd" fill-opacity="1" /><path clip-path="url(#clip870)" d="M 0 0 M1207.14 1512.66 L1213.03 1512.66 L1213.03 1541.91 L1230.51 1526.54 L1237.99 1526.54 L1219.08 1543.22 L1238.78 1562.19 L1231.14 1562.19 L1213.03 1544.78 L1213.03 1562.19 L1207.14 1562.19 L1207.14 1512.66 Z" fill="#000000" fill-rule="evenodd" fill-opacity="1" /><path clip-path="url(#clip870)" d="M 0 0 M1272.01 1573.01 L1272.01 1577.56 L1238.14 1577.56 L1238.14 1573.01 L1272.01 1573.01 Z" fill="#000000" fill-rule="evenodd" fill-opacity="1" /><path clip-path="url(#clip870)" d="M 0 0 M1291.97 1530.64 Q1287.26 1530.64 1284.52 1534.34 Q1281.78 1538 1281.78 1544.39 Q1281.78 1550.79 1284.49 1554.48 Q1287.22 1558.14 1291.97 1558.14 Q1296.65 1558.14 1299.38 1554.45 Q1302.12 1550.76 1302.12 1544.39 Q1302.12 1538.06 1299.38 1534.37 Q1296.65 1530.64 1291.97 1530.64 M1291.97 1525.68 Q1299.61 1525.68 1303.97 1530.64 Q1308.33 1535.61 1308.33 1544.39 Q1308.33 1553.15 1303.97 1558.14 Q1299.61 1563.11 1291.97 1563.11 Q1284.3 1563.11 1279.94 1558.14 Q1275.61 1553.15 1275.61 1544.39 Q1275.61 1535.61 1279.94 1530.64 Q1284.3 1525.68 1291.97 1525.68 Z" fill="#000000" fill-rule="evenodd" fill-opacity="1" /><path clip-path="url(#clip870)" d="M 0 0 M1332.52 1512.66 L1332.52 1517.53 L1326.91 1517.53 Q1323.76 1517.53 1322.52 1518.8 Q1321.31 1520.08 1321.31 1523.39 L1321.31 1526.54 L1330.96 1526.54 L1330.96 1531.09 L1321.31 1531.09 L1321.31 1562.19 L1315.42 1562.19 L1315.42 1531.09 L1309.82 1531.09 L1309.82 1526.54 L1315.42 1526.54 L1315.42 1524.05 Q1315.42 1518.1 1318.19 1515.4 Q1320.96 1512.66 1326.98 1512.66 L1332.52 1512.66 Z" fill="#000000" fill-rule="evenodd" fill-opacity="1" /><path clip-path="url(#clip870)" d="M 0 0 M1356.71 1512.66 L1356.71 1517.53 L1351.1 1517.53 Q1347.95 1517.53 1346.71 1518.8 Q1345.5 1520.08 1345.5 1523.39 L1345.5 1526.54 L1355.15 1526.54 L1355.15 1531.09 L1345.5 1531.09 L1345.5 1562.19 L1339.61 1562.19 L1339.61 1531.09 L1334.01 1531.09 L1334.01 1526.54 L1339.61 1526.54 L1339.61 1524.05 Q1339.61 1518.1 1342.38 1515.4 Q1345.15 1512.66 1351.17 1512.66 L1356.71 1512.66 Z" fill="#000000" fill-rule="evenodd" fill-opacity="1" /><polyline clip-path="url(#clip872)" style="stroke:#000000; stroke-width:2; stroke-opacity:0.1; fill:none" points="
  211.093,1285.95 2352.76,1285.95 
  "/>
<polyline clip-path="url(#clip872)" style="stroke:#000000; stroke-width:2; stroke-opacity:0.1; fill:none" points="
  211.093,1028.65 2352.76,1028.65 
  "/>
<polyline clip-path="url(#clip872)" style="stroke:#000000; stroke-width:2; stroke-opacity:0.1; fill:none" points="
  211.093,771.36 2352.76,771.36 
  "/>
<polyline clip-path="url(#clip872)" style="stroke:#000000; stroke-width:2; stroke-opacity:0.1; fill:none" points="
  211.093,514.067 2352.76,514.067 
  "/>
<polyline clip-path="url(#clip872)" style="stroke:#000000; stroke-width:2; stroke-opacity:0.1; fill:none" points="
  211.093,256.774 2352.76,256.774 
  "/>
<polyline clip-path="url(#clip870)" style="stroke:#000000; stroke-width:4; stroke-opacity:1; fill:none" points="
  211.093,1410.9 211.093,47.2441 
  "/>
<polyline clip-path="url(#clip870)" style="stroke:#000000; stroke-width:4; stroke-opacity:1; fill:none" points="
  211.093,1285.95 236.793,1285.95 
  "/>
<polyline clip-path="url(#clip870)" style="stroke:#000000; stroke-width:4; stroke-opacity:1; fill:none" points="
  211.093,1028.65 236.793,1028.65 
  "/>
<polyline clip-path="url(#clip870)" style="stroke:#000000; stroke-width:4; stroke-opacity:1; fill:none" points="
  211.093,771.36 236.793,771.36 
  "/>
<polyline clip-path="url(#clip870)" style="stroke:#000000; stroke-width:4; stroke-opacity:1; fill:none" points="
  211.093,514.067 236.793,514.067 
  "/>
<polyline clip-path="url(#clip870)" style="stroke:#000000; stroke-width:4; stroke-opacity:1; fill:none" points="
  211.093,256.774 236.793,256.774 
  "/>
<path clip-path="url(#clip870)" d="M 0 0 M116.737 1268.67 L135.093 1268.67 L135.093 1272.6 L121.019 1272.6 L121.019 1281.07 Q122.038 1280.73 123.056 1280.56 Q124.075 1280.38 125.093 1280.38 Q130.88 1280.38 134.26 1283.55 Q137.64 1286.72 137.64 1292.14 Q137.64 1297.72 134.167 1300.82 Q130.695 1303.9 124.376 1303.9 Q122.2 1303.9 119.931 1303.53 Q117.686 1303.16 115.279 1302.42 L115.279 1297.72 Q117.362 1298.85 119.584 1299.41 Q121.806 1299.96 124.283 1299.96 Q128.288 1299.96 130.626 1297.86 Q132.964 1295.75 132.964 1292.14 Q132.964 1288.53 130.626 1286.42 Q128.288 1284.31 124.283 1284.31 Q122.408 1284.31 120.533 1284.73 Q118.681 1285.15 116.737 1286.03 L116.737 1268.67 Z" fill="#000000" fill-rule="evenodd" fill-opacity="1" /><path clip-path="url(#clip870)" d="M 0 0 M142.709 1297.35 L147.593 1297.35 L147.593 1303.23 L142.709 1303.23 L142.709 1297.35 Z" fill="#000000" fill-rule="evenodd" fill-opacity="1" /><path clip-path="url(#clip870)" d="M 0 0 M165.51 1272.74 L153.704 1291.19 L165.51 1291.19 L165.51 1272.74 M164.283 1268.67 L170.163 1268.67 L170.163 1291.19 L175.093 1291.19 L175.093 1295.08 L170.163 1295.08 L170.163 1303.23 L165.51 1303.23 L165.51 1295.08 L149.908 1295.08 L149.908 1290.56 L164.283 1268.67 Z" fill="#000000" fill-rule="evenodd" fill-opacity="1" /><path clip-path="url(#clip870)" d="M 0 0 M117.061 1011.37 L135.417 1011.37 L135.417 1015.31 L121.343 1015.31 L121.343 1023.78 Q122.362 1023.43 123.38 1023.27 Q124.399 1023.09 125.418 1023.09 Q131.205 1023.09 134.584 1026.26 Q137.964 1029.43 137.964 1034.85 Q137.964 1040.42 134.492 1043.53 Q131.019 1046.6 124.7 1046.6 Q122.524 1046.6 120.255 1046.23 Q118.01 1045.86 115.603 1045.12 L115.603 1040.42 Q117.686 1041.56 119.908 1042.11 Q122.13 1042.67 124.607 1042.67 Q128.612 1042.67 130.95 1040.56 Q133.288 1038.46 133.288 1034.85 Q133.288 1031.23 130.95 1029.13 Q128.612 1027.02 124.607 1027.02 Q122.732 1027.02 120.857 1027.44 Q119.006 1027.85 117.061 1028.73 L117.061 1011.37 Z" fill="#000000" fill-rule="evenodd" fill-opacity="1" /><path clip-path="url(#clip870)" d="M 0 0 M143.033 1040.05 L147.917 1040.05 L147.917 1045.93 L143.033 1045.93 L143.033 1040.05 Z" fill="#000000" fill-rule="evenodd" fill-opacity="1" /><path clip-path="url(#clip870)" d="M 0 0 M163.565 1026.79 Q160.417 1026.79 158.565 1028.94 Q156.737 1031.1 156.737 1034.85 Q156.737 1038.57 158.565 1040.75 Q160.417 1042.9 163.565 1042.9 Q166.714 1042.9 168.542 1040.75 Q170.394 1038.57 170.394 1034.85 Q170.394 1031.1 168.542 1028.94 Q166.714 1026.79 163.565 1026.79 M172.848 1012.14 L172.848 1016.4 Q171.089 1015.56 169.283 1015.12 Q167.501 1014.68 165.741 1014.68 Q161.112 1014.68 158.658 1017.81 Q156.228 1020.93 155.88 1027.25 Q157.246 1025.24 159.306 1024.17 Q161.366 1023.09 163.843 1023.09 Q169.052 1023.09 172.061 1026.26 Q175.093 1029.41 175.093 1034.85 Q175.093 1040.17 171.945 1043.39 Q168.797 1046.6 163.565 1046.6 Q157.57 1046.6 154.399 1042.02 Q151.228 1037.41 151.228 1028.69 Q151.228 1020.49 155.116 1015.63 Q159.005 1010.75 165.556 1010.75 Q167.315 1010.75 169.098 1011.1 Q170.903 1011.44 172.848 1012.14 Z" fill="#000000" fill-rule="evenodd" fill-opacity="1" /><path clip-path="url(#clip870)" d="M 0 0 M117.316 754.08 L135.672 754.08 L135.672 758.015 L121.598 758.015 L121.598 766.487 Q122.617 766.14 123.635 765.978 Q124.654 765.793 125.672 765.793 Q131.459 765.793 134.839 768.964 Q138.218 772.136 138.218 777.552 Q138.218 783.131 134.746 786.233 Q131.274 789.311 124.955 789.311 Q122.779 789.311 120.51 788.941 Q118.265 788.571 115.857 787.83 L115.857 783.131 Q117.941 784.265 120.163 784.821 Q122.385 785.376 124.862 785.376 Q128.867 785.376 131.205 783.27 Q133.542 781.163 133.542 777.552 Q133.542 773.941 131.205 771.835 Q128.867 769.728 124.862 769.728 Q122.987 769.728 121.112 770.145 Q119.26 770.562 117.316 771.441 L117.316 754.08 Z" fill="#000000" fill-rule="evenodd" fill-opacity="1" /><path clip-path="url(#clip870)" d="M 0 0 M143.288 782.761 L148.172 782.761 L148.172 788.64 L143.288 788.64 L143.288 782.761 Z" fill="#000000" fill-rule="evenodd" fill-opacity="1" /><path clip-path="url(#clip870)" d="M 0 0 M163.241 772.228 Q159.908 772.228 157.987 774.011 Q156.089 775.793 156.089 778.918 Q156.089 782.043 157.987 783.825 Q159.908 785.608 163.241 785.608 Q166.575 785.608 168.496 783.825 Q170.417 782.02 170.417 778.918 Q170.417 775.793 168.496 774.011 Q166.598 772.228 163.241 772.228 M158.565 770.237 Q155.556 769.497 153.866 767.437 Q152.2 765.376 152.2 762.413 Q152.2 758.27 155.14 755.863 Q158.103 753.455 163.241 753.455 Q168.403 753.455 171.343 755.863 Q174.283 758.27 174.283 762.413 Q174.283 765.376 172.593 767.437 Q170.927 769.497 167.94 770.237 Q171.32 771.025 173.195 773.316 Q175.093 775.608 175.093 778.918 Q175.093 783.941 172.014 786.626 Q168.959 789.311 163.241 789.311 Q157.524 789.311 154.445 786.626 Q151.39 783.941 151.39 778.918 Q151.39 775.608 153.288 773.316 Q155.186 771.025 158.565 770.237 M156.853 762.853 Q156.853 765.538 158.519 767.043 Q160.209 768.548 163.241 768.548 Q166.251 768.548 167.94 767.043 Q169.653 765.538 169.653 762.853 Q169.653 760.168 167.94 758.663 Q166.251 757.159 163.241 757.159 Q160.209 757.159 158.519 758.663 Q156.853 760.168 156.853 762.853 Z" fill="#000000" fill-rule="evenodd" fill-opacity="1" /><path clip-path="url(#clip870)" d="M 0 0 M126.598 512.204 Q123.45 512.204 121.598 514.357 Q119.769 516.509 119.769 520.259 Q119.769 523.986 121.598 526.162 Q123.45 528.315 126.598 528.315 Q129.746 528.315 131.575 526.162 Q133.427 523.986 133.427 520.259 Q133.427 516.509 131.575 514.357 Q129.746 512.204 126.598 512.204 M135.88 497.551 L135.88 501.81 Q134.121 500.977 132.316 500.537 Q130.533 500.097 128.774 500.097 Q124.144 500.097 121.691 503.222 Q119.26 506.347 118.913 512.667 Q120.279 510.653 122.339 509.588 Q124.399 508.5 126.876 508.5 Q132.084 508.5 135.093 511.671 Q138.126 514.82 138.126 520.259 Q138.126 525.583 134.978 528.801 Q131.83 532.019 126.598 532.019 Q120.603 532.019 117.431 527.435 Q114.26 522.829 114.26 514.102 Q114.26 505.908 118.149 501.046 Q122.038 496.162 128.589 496.162 Q130.348 496.162 132.13 496.509 Q133.936 496.857 135.88 497.551 Z" fill="#000000" fill-rule="evenodd" fill-opacity="1" /><path clip-path="url(#clip870)" d="M 0 0 M143.195 525.468 L148.079 525.468 L148.079 531.347 L143.195 531.347 L143.195 525.468 Z" fill="#000000" fill-rule="evenodd" fill-opacity="1" /><path clip-path="url(#clip870)" d="M 0 0 M163.149 499.866 Q159.538 499.866 157.709 503.431 Q155.903 506.972 155.903 514.102 Q155.903 521.208 157.709 524.773 Q159.538 528.315 163.149 528.315 Q166.783 528.315 168.589 524.773 Q170.417 521.208 170.417 514.102 Q170.417 506.972 168.589 503.431 Q166.783 499.866 163.149 499.866 M163.149 496.162 Q168.959 496.162 172.014 500.769 Q175.093 505.352 175.093 514.102 Q175.093 522.829 172.014 527.435 Q168.959 532.019 163.149 532.019 Q157.339 532.019 154.26 527.435 Q151.204 522.829 151.204 514.102 Q151.204 505.352 154.26 500.769 Q157.339 496.162 163.149 496.162 Z" fill="#000000" fill-rule="evenodd" fill-opacity="1" /><path clip-path="url(#clip870)" d="M 0 0 M128.195 254.911 Q125.047 254.911 123.195 257.064 Q121.367 259.216 121.367 262.966 Q121.367 266.693 123.195 268.869 Q125.047 271.022 128.195 271.022 Q131.343 271.022 133.172 268.869 Q135.024 266.693 135.024 262.966 Q135.024 259.216 133.172 257.064 Q131.343 254.911 128.195 254.911 M137.478 240.258 L137.478 244.517 Q135.718 243.684 133.913 243.244 Q132.13 242.804 130.371 242.804 Q125.742 242.804 123.288 245.929 Q120.857 249.054 120.51 255.374 Q121.876 253.36 123.936 252.295 Q125.996 251.207 128.473 251.207 Q133.681 251.207 136.691 254.378 Q139.723 257.527 139.723 262.966 Q139.723 268.29 136.575 271.508 Q133.427 274.726 128.195 274.726 Q122.2 274.726 119.029 270.142 Q115.857 265.536 115.857 256.809 Q115.857 248.615 119.746 243.754 Q123.635 238.869 130.186 238.869 Q131.945 238.869 133.728 239.217 Q135.533 239.564 137.478 240.258 Z" fill="#000000" fill-rule="evenodd" fill-opacity="1" /><path clip-path="url(#clip870)" d="M 0 0 M144.792 268.175 L149.677 268.175 L149.677 274.054 L144.792 274.054 L144.792 268.175 Z" fill="#000000" fill-rule="evenodd" fill-opacity="1" /><path clip-path="url(#clip870)" d="M 0 0 M158.774 270.119 L175.093 270.119 L175.093 274.054 L153.149 274.054 L153.149 270.119 Q155.811 267.365 160.394 262.735 Q165.001 258.082 166.181 256.74 Q168.427 254.216 169.306 252.48 Q170.209 250.721 170.209 249.031 Q170.209 246.277 168.264 244.541 Q166.343 242.804 163.241 242.804 Q161.042 242.804 158.589 243.568 Q156.158 244.332 153.38 245.883 L153.38 241.161 Q156.204 240.027 158.658 239.448 Q161.112 238.869 163.149 238.869 Q168.519 238.869 171.714 241.554 Q174.908 244.24 174.908 248.73 Q174.908 250.86 174.098 252.781 Q173.311 254.679 171.204 257.272 Q170.626 257.943 167.524 261.161 Q164.422 264.355 158.774 270.119 Z" fill="#000000" fill-rule="evenodd" fill-opacity="1" /><path clip-path="url(#clip870)" d="M 0 0 M59.1993 815.533 Q55.2526 813.336 53.3747 810.281 Q51.4968 807.225 51.4968 803.088 Q51.4968 797.518 55.4117 794.494 Q59.2948 791.47 66.4881 791.47 L88.0042 791.47 L88.0042 797.358 L66.679 797.358 Q61.5546 797.358 59.072 799.173 Q56.5894 800.987 56.5894 804.711 Q56.5894 809.262 59.6131 811.904 Q62.6368 814.546 67.8567 814.546 L88.0042 814.546 L88.0042 820.434 L66.679 820.434 Q61.5228 820.434 59.072 822.248 Q56.5894 824.063 56.5894 827.85 Q56.5894 832.338 59.6449 834.98 Q62.6686 837.622 67.8567 837.622 L88.0042 837.622 L88.0042 843.51 L52.3562 843.51 L52.3562 837.622 L57.8944 837.622 Q54.616 835.616 53.0564 832.815 Q51.4968 830.015 51.4968 826.163 Q51.4968 822.28 53.4702 819.575 Q55.4436 816.838 59.1993 815.533 Z" fill="#000000" fill-rule="evenodd" fill-opacity="1" /><path clip-path="url(#clip870)" d="M 0 0 M52.3562 785.327 L52.3562 779.471 L88.0042 779.471 L88.0042 785.327 L52.3562 785.327 M38.479 785.327 L38.479 779.471 L45.895 779.471 L45.895 785.327 L38.479 785.327 Z" fill="#000000" fill-rule="evenodd" fill-opacity="1" /><path clip-path="url(#clip870)" d="M 0 0 M66.4881 743.696 L88.0042 743.696 L88.0042 749.552 L66.679 749.552 Q61.6183 749.552 59.1038 751.525 Q56.5894 753.499 56.5894 757.446 Q56.5894 762.188 59.6131 764.925 Q62.6368 767.662 67.8567 767.662 L88.0042 767.662 L88.0042 773.551 L52.3562 773.551 L52.3562 767.662 L57.8944 767.662 Q54.6797 765.562 53.0883 762.729 Q51.4968 759.864 51.4968 756.141 Q51.4968 749.998 55.3163 746.847 Q59.1038 743.696 66.4881 743.696 Z" fill="#000000" fill-rule="evenodd" fill-opacity="1" /><path clip-path="url(#clip870)" d="M 0 0 M98.8259 710.467 L103.377 710.467 L103.377 744.332 L98.8259 744.332 L98.8259 710.467 Z" fill="#000000" fill-rule="evenodd" fill-opacity="1" /><path clip-path="url(#clip870)" d="M 0 0 M57.7671 680.866 L38.479 680.866 L38.479 675.01 L88.0042 675.01 L88.0042 680.866 L82.657 680.866 Q85.8398 682.712 87.3994 685.545 Q88.9272 688.346 88.9272 692.292 Q88.9272 698.754 83.771 702.828 Q78.6147 706.87 70.212 706.87 Q61.8093 706.87 56.6531 702.828 Q51.4968 698.754 51.4968 692.292 Q51.4968 688.346 53.0564 685.545 Q54.5842 682.712 57.7671 680.866 M70.212 700.823 Q76.6732 700.823 80.3653 698.181 Q84.0256 695.507 84.0256 690.86 Q84.0256 686.213 80.3653 683.54 Q76.6732 680.866 70.212 680.866 Q63.7508 680.866 60.0905 683.54 Q56.3984 686.213 56.3984 690.86 Q56.3984 695.507 60.0905 698.181 Q63.7508 700.823 70.212 700.823 Z" fill="#000000" fill-rule="evenodd" fill-opacity="1" /><path clip-path="url(#clip870)" d="M 0 0 M52.3562 668.867 L52.3562 663.01 L88.0042 663.01 L88.0042 668.867 L52.3562 668.867 M38.479 668.867 L38.479 663.01 L45.895 663.01 L45.895 668.867 L38.479 668.867 Z" fill="#000000" fill-rule="evenodd" fill-opacity="1" /><path clip-path="url(#clip870)" d="M 0 0 M38.479 638.821 L43.3487 638.821 L43.3487 644.422 Q43.3487 647.573 44.6219 648.815 Q45.895 650.024 49.2052 650.024 L52.3562 650.024 L52.3562 640.38 L56.9077 640.38 L56.9077 650.024 L88.0042 650.024 L88.0042 655.912 L56.9077 655.912 L56.9077 661.514 L52.3562 661.514 L52.3562 655.912 L49.8736 655.912 Q43.9216 655.912 41.2162 653.143 Q38.479 650.374 38.479 644.359 L38.479 638.821 Z" fill="#000000" fill-rule="evenodd" fill-opacity="1" /><path clip-path="url(#clip870)" d="M 0 0 M38.479 614.631 L43.3487 614.631 L43.3487 620.233 Q43.3487 623.384 44.6219 624.625 Q45.895 625.835 49.2052 625.835 L52.3562 625.835 L52.3562 616.19 L56.9077 616.19 L56.9077 625.835 L88.0042 625.835 L88.0042 631.723 L56.9077 631.723 L56.9077 637.325 L52.3562 637.325 L52.3562 631.723 L49.8736 631.723 Q43.9216 631.723 41.2162 628.954 Q38.479 626.185 38.479 620.169 L38.479 614.631 Z" fill="#000000" fill-rule="evenodd" fill-opacity="1" /><path clip-path="url(#clip870)" d="
M1992.39 213.659 L2281.37 213.659 L2281.37 92.6992 L1992.39 92.6992  Z
  " fill="#ffffff" fill-rule="evenodd" fill-opacity="1"/>
<polyline clip-path="url(#clip870)" style="stroke:#000000; stroke-width:4; stroke-opacity:1; fill:none" points="
  1992.39,213.659 2281.37,213.659 2281.37,92.6992 1992.39,92.6992 1992.39,213.659 
  "/>
<polyline clip-path="url(#clip870)" style="stroke:#009af9; stroke-width:4; stroke-opacity:1; fill:none" stroke-dasharray="16, 10" points="
  2016.18,153.179 2158.96,153.179 
  "/>
<path clip-path="url(#clip870)" d="M 0 0 M2196.6 172.867 Q2194.79 177.496 2193.08 178.908 Q2191.37 180.32 2188.5 180.32 L2185.09 180.32 L2185.09 176.755 L2187.59 176.755 Q2189.35 176.755 2190.33 175.922 Q2191.3 175.089 2192.48 171.987 L2193.24 170.043 L2182.76 144.533 L2187.27 144.533 L2195.37 164.811 L2203.47 144.533 L2207.99 144.533 L2196.6 172.867 Z" fill="#000000" fill-rule="evenodd" fill-opacity="1" /><path clip-path="url(#clip870)" d="M 0 0 M2213.87 166.524 L2221.51 166.524 L2221.51 140.158 L2213.2 141.825 L2213.2 137.566 L2221.46 135.899 L2226.14 135.899 L2226.14 166.524 L2233.77 166.524 L2233.77 170.459 L2213.87 170.459 L2213.87 166.524 Z" fill="#000000" fill-rule="evenodd" fill-opacity="1" /></svg>
