<?xml version="1.0" encoding="utf-8"?>
<svg xmlns="http://www.w3.org/2000/svg" xmlns:xlink="http://www.w3.org/1999/xlink" width="600" height="400" viewBox="0 0 2400 1600">
<defs>
  <clipPath id="clip510">
    <rect x="0" y="0" width="2400" height="1600"/>
  </clipPath>
</defs>
<path clip-path="url(#clip510)" d="
M0 1600 L2400 1600 L2400 0 L0 0  Z
  " fill="#ffffff" fill-rule="evenodd" fill-opacity="1"/>
<defs>
  <clipPath id="clip511">
    <rect x="480" y="0" width="1681" height="1600"/>
  </clipPath>
</defs>
<path clip-path="url(#clip510)" d="
M232.389 1410.9 L2352.76 1410.9 L2352.76 47.2441 L232.389 47.2441  Z
  " fill="#ffffff" fill-rule="evenodd" fill-opacity="1"/>
<defs>
  <clipPath id="clip512">
    <rect x="232" y="47" width="2121" height="1365"/>
  </clipPath>
</defs>
<polyline clip-path="url(#clip512)" style="stroke:#000000; stroke-linecap:butt; stroke-linejoin:round; stroke-width:2; stroke-opacity:0.1; fill:none" points="
  755.236,1410.9 755.236,47.2441 
  "/>
<polyline clip-path="url(#clip512)" style="stroke:#000000; stroke-linecap:butt; stroke-linejoin:round; stroke-width:2; stroke-opacity:0.1; fill:none" points="
  1523.99,1410.9 1523.99,47.2441 
  "/>
<polyline clip-path="url(#clip512)" style="stroke:#000000; stroke-linecap:butt; stroke-linejoin:round; stroke-width:2; stroke-opacity:0.1; fill:none" points="
  2292.75,1410.9 2292.75,47.2441 
  "/>
<polyline clip-path="url(#clip510)" style="stroke:#000000; stroke-linecap:butt; stroke-linejoin:round; stroke-width:4; stroke-opacity:1; fill:none" points="
  232.389,1410.9 2352.76,1410.9 
  "/>
<polyline clip-path="url(#clip510)" style="stroke:#000000; stroke-linecap:butt; stroke-linejoin:round; stroke-width:4; stroke-opacity:1; fill:none" points="
  755.236,1410.9 755.236,1392 
  "/>
<polyline clip-path="url(#clip510)" style="stroke:#000000; stroke-linecap:butt; stroke-linejoin:round; stroke-width:4; stroke-opacity:1; fill:none" points="
  1523.99,1410.9 1523.99,1392 
  "/>
<polyline clip-path="url(#clip510)" style="stroke:#000000; stroke-linecap:butt; stroke-linejoin:round; stroke-width:4; stroke-opacity:1; fill:none" points="
  2292.75,1410.9 2292.75,1392 
  "/>
<path clip-path="url(#clip510)" d="M701.844 1485.02 L709.483 1485.02 L709.483 1458.66 L701.173 1460.32 L701.173 1456.06 L709.436 1454.4 L714.112 1454.4 L714.112 1485.02 L721.751 1485.02 L721.751 1488.96 L701.844 1488.96 L701.844 1485.02 Z" fill="#000000" fill-rule="evenodd" fill-opacity="1" /><path clip-path="url(#clip510)" d="M741.195 1457.48 Q737.584 1457.48 735.756 1461.04 Q733.95 1464.58 733.95 1471.71 Q733.95 1478.82 735.756 1482.38 Q737.584 1485.92 741.195 1485.92 Q744.83 1485.92 746.635 1482.38 Q748.464 1478.82 748.464 1471.71 Q748.464 1464.58 746.635 1461.04 Q744.83 1457.48 741.195 1457.48 M741.195 1453.77 Q747.006 1453.77 750.061 1458.38 Q753.14 1462.96 753.14 1471.71 Q753.14 1480.44 750.061 1485.04 Q747.006 1489.63 741.195 1489.63 Q735.385 1489.63 732.307 1485.04 Q729.251 1480.44 729.251 1471.71 Q729.251 1462.96 732.307 1458.38 Q735.385 1453.77 741.195 1453.77 Z" fill="#000000" fill-rule="evenodd" fill-opacity="1" /><path clip-path="url(#clip510)" d="M762.845 1435.97 Q759.911 1435.97 758.425 1438.86 Q756.958 1441.74 756.958 1447.53 Q756.958 1453.31 758.425 1456.2 Q759.911 1459.08 762.845 1459.08 Q765.797 1459.08 767.264 1456.2 Q768.75 1453.31 768.75 1447.53 Q768.75 1441.74 767.264 1438.86 Q765.797 1435.97 762.845 1435.97 M762.845 1432.96 Q767.565 1432.96 770.048 1436.7 Q772.549 1440.43 772.549 1447.53 Q772.549 1454.62 770.048 1458.37 Q767.565 1462.09 762.845 1462.09 Q758.124 1462.09 755.622 1458.37 Q753.14 1454.62 753.14 1447.53 Q753.14 1440.43 755.622 1436.7 Q758.124 1432.96 762.845 1432.96 Z" fill="#000000" fill-rule="evenodd" fill-opacity="1" /><path clip-path="url(#clip510)" d="M779.226 1456.77 L783.195 1456.77 L783.195 1461.55 L779.226 1461.55 L779.226 1456.77 Z" fill="#000000" fill-rule="evenodd" fill-opacity="1" /><path clip-path="url(#clip510)" d="M799.595 1435.97 Q796.661 1435.97 795.175 1438.86 Q793.708 1441.74 793.708 1447.53 Q793.708 1453.31 795.175 1456.2 Q796.661 1459.08 799.595 1459.08 Q802.548 1459.08 804.015 1456.2 Q805.501 1453.31 805.501 1447.53 Q805.501 1441.74 804.015 1438.86 Q802.548 1435.97 799.595 1435.97 M799.595 1432.96 Q804.316 1432.96 806.798 1436.7 Q809.3 1440.43 809.3 1447.53 Q809.3 1454.62 806.798 1458.37 Q804.316 1462.09 799.595 1462.09 Q794.874 1462.09 792.373 1458.37 Q789.89 1454.62 789.89 1447.53 Q789.89 1440.43 792.373 1436.7 Q794.874 1432.96 799.595 1432.96 Z" fill="#000000" fill-rule="evenodd" fill-opacity="1" /><path clip-path="url(#clip510)" d="M1471 1485.02 L1478.64 1485.02 L1478.64 1458.66 L1470.33 1460.32 L1470.33 1456.06 L1478.6 1454.4 L1483.27 1454.4 L1483.27 1485.02 L1490.91 1485.02 L1490.91 1488.96 L1471 1488.96 L1471 1485.02 Z" fill="#000000" fill-rule="evenodd" fill-opacity="1" /><path clip-path="url(#clip510)" d="M1510.35 1457.48 Q1506.74 1457.48 1504.91 1461.04 Q1503.11 1464.58 1503.11 1471.71 Q1503.11 1478.82 1504.91 1482.38 Q1506.74 1485.92 1510.35 1485.92 Q1513.99 1485.92 1515.79 1482.38 Q1517.62 1478.82 1517.62 1471.71 Q1517.62 1464.58 1515.79 1461.04 Q1513.99 1457.48 1510.35 1457.48 M1510.35 1453.77 Q1516.16 1453.77 1519.22 1458.38 Q1522.3 1462.96 1522.3 1471.71 Q1522.3 1480.44 1519.22 1485.04 Q1516.16 1489.63 1510.35 1489.63 Q1504.54 1489.63 1501.47 1485.04 Q1498.41 1480.44 1498.41 1471.71 Q1498.41 1462.96 1501.47 1458.38 Q1504.54 1453.77 1510.35 1453.77 Z" fill="#000000" fill-rule="evenodd" fill-opacity="1" /><path clip-path="url(#clip510)" d="M1532 1435.97 Q1529.07 1435.97 1527.58 1438.86 Q1526.12 1441.74 1526.12 1447.53 Q1526.12 1453.31 1527.58 1456.2 Q1529.07 1459.08 1532 1459.08 Q1534.96 1459.08 1536.42 1456.2 Q1537.91 1453.31 1537.91 1447.53 Q1537.91 1441.74 1536.42 1438.86 Q1534.96 1435.97 1532 1435.97 M1532 1432.96 Q1536.72 1432.96 1539.21 1436.7 Q1541.71 1440.43 1541.71 1447.53 Q1541.71 1454.62 1539.21 1458.37 Q1536.72 1462.09 1532 1462.09 Q1527.28 1462.09 1524.78 1458.37 Q1522.3 1454.62 1522.3 1447.53 Q1522.3 1440.43 1524.78 1436.7 Q1527.28 1432.96 1532 1432.96 Z" fill="#000000" fill-rule="evenodd" fill-opacity="1" /><path clip-path="url(#clip510)" d="M1548.39 1456.77 L1552.35 1456.77 L1552.35 1461.55 L1548.39 1461.55 L1548.39 1456.77 Z" fill="#000000" fill-rule="evenodd" fill-opacity="1" /><path clip-path="url(#clip510)" d="M1560.67 1433.47 L1575.58 1433.47 L1575.58 1436.66 L1564.15 1436.66 L1564.15 1443.55 Q1564.97 1443.27 1565.8 1443.13 Q1566.63 1442.98 1567.46 1442.98 Q1572.16 1442.98 1574.9 1445.56 Q1577.65 1448.14 1577.65 1452.54 Q1577.65 1457.07 1574.83 1459.59 Q1572.01 1462.09 1566.87 1462.09 Q1565.11 1462.09 1563.26 1461.79 Q1561.44 1461.49 1559.48 1460.89 L1559.48 1457.07 Q1561.17 1457.99 1562.98 1458.44 Q1564.79 1458.89 1566.8 1458.89 Q1570.05 1458.89 1571.95 1457.18 Q1573.85 1455.47 1573.85 1452.54 Q1573.85 1449.6 1571.95 1447.89 Q1570.05 1446.18 1566.8 1446.18 Q1565.27 1446.18 1563.75 1446.52 Q1562.25 1446.86 1560.67 1447.57 L1560.67 1433.47 Z" fill="#000000" fill-rule="evenodd" fill-opacity="1" /><path clip-path="url(#clip510)" d="M2240.2 1485.02 L2247.84 1485.02 L2247.84 1458.66 L2239.53 1460.32 L2239.53 1456.06 L2247.79 1454.4 L2252.47 1454.4 L2252.47 1485.02 L2260.11 1485.02 L2260.11 1488.96 L2240.2 1488.96 L2240.2 1485.02 Z" fill="#000000" fill-rule="evenodd" fill-opacity="1" /><path clip-path="url(#clip510)" d="M2279.55 1457.48 Q2275.94 1457.48 2274.11 1461.04 Q2272.31 1464.58 2272.31 1471.71 Q2272.31 1478.82 2274.11 1482.38 Q2275.94 1485.92 2279.55 1485.92 Q2283.19 1485.92 2284.99 1482.38 Q2286.82 1478.82 2286.82 1471.71 Q2286.82 1464.58 2284.99 1461.04 Q2283.19 1457.48 2279.55 1457.48 M2279.55 1453.77 Q2285.36 1453.77 2288.42 1458.38 Q2291.5 1462.96 2291.5 1471.71 Q2291.5 1480.44 2288.42 1485.04 Q2285.36 1489.63 2279.55 1489.63 Q2273.74 1489.63 2270.66 1485.04 Q2267.61 1480.44 2267.61 1471.71 Q2267.61 1462.96 2270.66 1458.38 Q2273.74 1453.77 2279.55 1453.77 Z" fill="#000000" fill-rule="evenodd" fill-opacity="1" /><path clip-path="url(#clip510)" d="M2292.04 1458.35 L2298.25 1458.35 L2298.25 1436.93 L2291.5 1438.28 L2291.5 1434.82 L2298.21 1433.47 L2302.01 1433.47 L2302.01 1458.35 L2308.22 1458.35 L2308.22 1461.55 L2292.04 1461.55 L2292.04 1458.35 Z" fill="#000000" fill-rule="evenodd" fill-opacity="1" /><path clip-path="url(#clip510)" d="M2315.89 1456.77 L2319.86 1456.77 L2319.86 1461.55 L2315.89 1461.55 L2315.89 1456.77 Z" fill="#000000" fill-rule="evenodd" fill-opacity="1" /><path clip-path="url(#clip510)" d="M2336.26 1435.97 Q2333.32 1435.97 2331.84 1438.86 Q2330.37 1441.74 2330.37 1447.53 Q2330.37 1453.31 2331.84 1456.2 Q2333.32 1459.08 2336.26 1459.08 Q2339.21 1459.08 2340.68 1456.2 Q2342.16 1453.31 2342.16 1447.53 Q2342.16 1441.74 2340.68 1438.86 Q2339.21 1435.97 2336.26 1435.97 M2336.26 1432.96 Q2340.98 1432.96 2343.46 1436.7 Q2345.96 1440.43 2345.96 1447.53 Q2345.96 1454.62 2343.46 1458.37 Q2340.98 1462.09 2336.26 1462.09 Q2331.54 1462.09 2329.04 1458.37 Q2326.55 1454.62 2326.55 1447.53 Q2326.55 1440.43 2329.04 1436.7 Q2331.54 1432.96 2336.26 1432.96 Z" fill="#000000" fill-rule="evenodd" fill-opacity="1" /><path clip-path="url(#clip510)" d="M1297.78 1557.6 L1296.38 1550.25 Q1294.94 1542.71 1289.28 1542.71 Q1285.01 1542.71 1283.07 1546.21 Q1280.62 1550.6 1280.62 1556.39 Q1280.62 1563.4 1283.01 1566.74 Q1285.43 1570.14 1289.28 1570.14 Q1293.54 1570.14 1295.84 1563.36 L1297.78 1557.6 M1301.05 1547.86 L1304.21 1538.54 L1309.43 1538.54 L1302.9 1557.86 L1304.17 1564.83 Q1304.46 1566.39 1305.57 1567.69 Q1306.88 1569.22 1307.9 1569.22 L1310.7 1569.22 L1310.7 1574.19 L1307.2 1574.19 Q1304.21 1574.19 1301.53 1571.51 Q1300.23 1570.18 1299.69 1567.37 Q1298.22 1570.91 1295.23 1573.68 Q1293.83 1574.98 1289.28 1574.98 Q1281.8 1574.98 1278.17 1570.14 Q1274.45 1565.15 1274.45 1556.39 Q1274.45 1547.04 1278.49 1542.64 Q1282.98 1537.74 1289.28 1537.74 Q1299.18 1537.74 1301.05 1547.86 Z" fill="#000000" fill-rule="evenodd" fill-opacity="1" /><polyline clip-path="url(#clip512)" style="stroke:#000000; stroke-linecap:butt; stroke-linejoin:round; stroke-width:2; stroke-opacity:0.1; fill:none" points="
  232.389,1168.21 2352.76,1168.21 
  "/>
<polyline clip-path="url(#clip512)" style="stroke:#000000; stroke-linecap:butt; stroke-linejoin:round; stroke-width:2; stroke-opacity:0.1; fill:none" points="
  232.389,897.909 2352.76,897.909 
  "/>
<polyline clip-path="url(#clip512)" style="stroke:#000000; stroke-linecap:butt; stroke-linejoin:round; stroke-width:2; stroke-opacity:0.1; fill:none" points="
  232.389,627.609 2352.76,627.609 
  "/>
<polyline clip-path="url(#clip512)" style="stroke:#000000; stroke-linecap:butt; stroke-linejoin:round; stroke-width:2; stroke-opacity:0.1; fill:none" points="
  232.389,357.31 2352.76,357.31 
  "/>
<polyline clip-path="url(#clip512)" style="stroke:#000000; stroke-linecap:butt; stroke-linejoin:round; stroke-width:2; stroke-opacity:0.1; fill:none" points="
  232.389,87.0107 2352.76,87.0107 
  "/>
<polyline clip-path="url(#clip510)" style="stroke:#000000; stroke-linecap:butt; stroke-linejoin:round; stroke-width:4; stroke-opacity:1; fill:none" points="
  232.389,1410.9 232.389,47.2441 
  "/>
<polyline clip-path="url(#clip510)" style="stroke:#000000; stroke-linecap:butt; stroke-linejoin:round; stroke-width:4; stroke-opacity:1; fill:none" points="
  232.389,1168.21 251.287,1168.21 
  "/>
<polyline clip-path="url(#clip510)" style="stroke:#000000; stroke-linecap:butt; stroke-linejoin:round; stroke-width:4; stroke-opacity:1; fill:none" points="
  232.389,897.909 251.287,897.909 
  "/>
<polyline clip-path="url(#clip510)" style="stroke:#000000; stroke-linecap:butt; stroke-linejoin:round; stroke-width:4; stroke-opacity:1; fill:none" points="
  232.389,627.609 251.287,627.609 
  "/>
<polyline clip-path="url(#clip510)" style="stroke:#000000; stroke-linecap:butt; stroke-linejoin:round; stroke-width:4; stroke-opacity:1; fill:none" points="
  232.389,357.31 251.287,357.31 
  "/>
<polyline clip-path="url(#clip510)" style="stroke:#000000; stroke-linecap:butt; stroke-linejoin:round; stroke-width:4; stroke-opacity:1; fill:none" points="
  232.389,87.0107 251.287,87.0107 
  "/>
<path clip-path="url(#clip510)" d="M148.311 1181.55 L164.63 1181.55 L164.63 1185.49 L142.686 1185.49 L142.686 1181.55 Q145.348 1178.8 149.931 1174.17 Q154.538 1169.52 155.718 1168.17 Q157.964 1165.65 158.843 1163.91 Q159.746 1162.15 159.746 1160.46 Q159.746 1157.71 157.802 1155.97 Q155.88 1154.24 152.778 1154.24 Q150.579 1154.24 148.126 1155 Q145.695 1155.77 142.917 1157.32 L142.917 1152.59 Q145.741 1151.46 148.195 1150.88 Q150.649 1150.3 152.686 1150.3 Q158.056 1150.3 161.251 1152.99 Q164.445 1155.67 164.445 1160.16 Q164.445 1162.29 163.635 1164.21 Q162.848 1166.11 160.741 1168.71 Q160.163 1169.38 157.061 1172.59 Q153.959 1175.79 148.311 1181.55 Z" fill="#000000" fill-rule="evenodd" fill-opacity="1" /><path clip-path="url(#clip510)" d="M184.445 1154.01 Q180.834 1154.01 179.005 1157.57 Q177.2 1161.11 177.2 1168.24 Q177.2 1175.35 179.005 1178.91 Q180.834 1182.46 184.445 1182.46 Q188.079 1182.46 189.885 1178.91 Q191.713 1175.35 191.713 1168.24 Q191.713 1161.11 189.885 1157.57 Q188.079 1154.01 184.445 1154.01 M184.445 1150.3 Q190.255 1150.3 193.311 1154.91 Q196.389 1159.49 196.389 1168.24 Q196.389 1176.97 193.311 1181.58 Q190.255 1186.16 184.445 1186.16 Q178.635 1186.16 175.556 1181.58 Q172.501 1176.97 172.501 1168.24 Q172.501 1159.49 175.556 1154.91 Q178.635 1150.3 184.445 1150.3 Z" fill="#000000" fill-rule="evenodd" fill-opacity="1" /><path clip-path="url(#clip510)" d="M157.13 884.703 L145.325 903.152 L157.13 903.152 L157.13 884.703 M155.903 880.629 L161.783 880.629 L161.783 903.152 L166.714 903.152 L166.714 907.04 L161.783 907.04 L161.783 915.189 L157.13 915.189 L157.13 907.04 L141.529 907.04 L141.529 902.527 L155.903 880.629 Z" fill="#000000" fill-rule="evenodd" fill-opacity="1" /><path clip-path="url(#clip510)" d="M184.445 883.707 Q180.834 883.707 179.005 887.272 Q177.2 890.814 177.2 897.943 Q177.2 905.05 179.005 908.614 Q180.834 912.156 184.445 912.156 Q188.079 912.156 189.885 908.614 Q191.713 905.05 191.713 897.943 Q191.713 890.814 189.885 887.272 Q188.079 883.707 184.445 883.707 M184.445 880.004 Q190.255 880.004 193.311 884.61 Q196.389 889.193 196.389 897.943 Q196.389 906.67 193.311 911.277 Q190.255 915.86 184.445 915.86 Q178.635 915.86 175.556 911.277 Q172.501 906.67 172.501 897.943 Q172.501 889.193 175.556 884.61 Q178.635 880.004 184.445 880.004 Z" fill="#000000" fill-rule="evenodd" fill-opacity="1" /><path clip-path="url(#clip510)" d="M154.862 625.746 Q151.714 625.746 149.862 627.899 Q148.033 630.051 148.033 633.801 Q148.033 637.528 149.862 639.704 Q151.714 641.857 154.862 641.857 Q158.01 641.857 159.839 639.704 Q161.69 637.528 161.69 633.801 Q161.69 630.051 159.839 627.899 Q158.01 625.746 154.862 625.746 M164.144 611.093 L164.144 615.352 Q162.385 614.519 160.579 614.079 Q158.797 613.639 157.038 613.639 Q152.408 613.639 149.954 616.764 Q147.524 619.889 147.177 626.209 Q148.542 624.195 150.603 623.13 Q152.663 622.042 155.14 622.042 Q160.348 622.042 163.357 625.213 Q166.39 628.362 166.39 633.801 Q166.39 639.125 163.241 642.343 Q160.093 645.561 154.862 645.561 Q148.866 645.561 145.695 640.977 Q142.524 636.371 142.524 627.644 Q142.524 619.45 146.413 614.588 Q150.302 609.704 156.853 609.704 Q158.612 609.704 160.394 610.051 Q162.2 610.399 164.144 611.093 Z" fill="#000000" fill-rule="evenodd" fill-opacity="1" /><path clip-path="url(#clip510)" d="M184.445 613.408 Q180.834 613.408 179.005 616.973 Q177.2 620.514 177.2 627.644 Q177.2 634.75 179.005 638.315 Q180.834 641.857 184.445 641.857 Q188.079 641.857 189.885 638.315 Q191.713 634.75 191.713 627.644 Q191.713 620.514 189.885 616.973 Q188.079 613.408 184.445 613.408 M184.445 609.704 Q190.255 609.704 193.311 614.311 Q196.389 618.894 196.389 627.644 Q196.389 636.371 193.311 640.977 Q190.255 645.561 184.445 645.561 Q178.635 645.561 175.556 640.977 Q172.501 636.371 172.501 627.644 Q172.501 618.894 175.556 614.311 Q178.635 609.704 184.445 609.704 Z" fill="#000000" fill-rule="evenodd" fill-opacity="1" /><path clip-path="url(#clip510)" d="M154.283 358.178 Q150.95 358.178 149.028 359.96 Q147.13 361.743 147.13 364.868 Q147.13 367.993 149.028 369.775 Q150.95 371.558 154.283 371.558 Q157.616 371.558 159.538 369.775 Q161.459 367.97 161.459 364.868 Q161.459 361.743 159.538 359.96 Q157.64 358.178 154.283 358.178 M149.607 356.187 Q146.598 355.447 144.908 353.386 Q143.241 351.326 143.241 348.363 Q143.241 344.22 146.181 341.812 Q149.144 339.405 154.283 339.405 Q159.445 339.405 162.385 341.812 Q165.325 344.22 165.325 348.363 Q165.325 351.326 163.635 353.386 Q161.968 355.447 158.982 356.187 Q162.362 356.974 164.237 359.266 Q166.135 361.558 166.135 364.868 Q166.135 369.891 163.056 372.576 Q160.001 375.261 154.283 375.261 Q148.566 375.261 145.487 372.576 Q142.431 369.891 142.431 364.868 Q142.431 361.558 144.329 359.266 Q146.228 356.974 149.607 356.187 M147.894 348.803 Q147.894 351.488 149.561 352.993 Q151.251 354.498 154.283 354.498 Q157.292 354.498 158.982 352.993 Q160.695 351.488 160.695 348.803 Q160.695 346.118 158.982 344.613 Q157.292 343.109 154.283 343.109 Q151.251 343.109 149.561 344.613 Q147.894 346.118 147.894 348.803 Z" fill="#000000" fill-rule="evenodd" fill-opacity="1" /><path clip-path="url(#clip510)" d="M184.445 343.109 Q180.834 343.109 179.005 346.673 Q177.2 350.215 177.2 357.345 Q177.2 364.451 179.005 368.016 Q180.834 371.558 184.445 371.558 Q188.079 371.558 189.885 368.016 Q191.713 364.451 191.713 357.345 Q191.713 350.215 189.885 346.673 Q188.079 343.109 184.445 343.109 M184.445 339.405 Q190.255 339.405 193.311 344.011 Q196.389 348.595 196.389 357.345 Q196.389 366.072 193.311 370.678 Q190.255 375.261 184.445 375.261 Q178.635 375.261 175.556 370.678 Q172.501 366.072 172.501 357.345 Q172.501 348.595 175.556 344.011 Q178.635 339.405 184.445 339.405 Z" fill="#000000" fill-rule="evenodd" fill-opacity="1" /><path clip-path="url(#clip510)" d="M114.931 100.356 L122.57 100.356 L122.57 73.99 L114.26 75.6566 L114.26 71.3974 L122.524 69.7307 L127.2 69.7307 L127.2 100.356 L134.839 100.356 L134.839 104.291 L114.931 104.291 L114.931 100.356 Z" fill="#000000" fill-rule="evenodd" fill-opacity="1" /><path clip-path="url(#clip510)" d="M154.283 72.8094 Q150.672 72.8094 148.843 76.3742 Q147.038 79.9158 147.038 87.0454 Q147.038 94.1519 148.843 97.7167 Q150.672 101.258 154.283 101.258 Q157.917 101.258 159.723 97.7167 Q161.552 94.1519 161.552 87.0454 Q161.552 79.9158 159.723 76.3742 Q157.917 72.8094 154.283 72.8094 M154.283 69.1057 Q160.093 69.1057 163.149 73.7122 Q166.227 78.2955 166.227 87.0454 Q166.227 95.7722 163.149 100.379 Q160.093 104.962 154.283 104.962 Q148.473 104.962 145.394 100.379 Q142.339 95.7722 142.339 87.0454 Q142.339 78.2955 145.394 73.7122 Q148.473 69.1057 154.283 69.1057 Z" fill="#000000" fill-rule="evenodd" fill-opacity="1" /><path clip-path="url(#clip510)" d="M184.445 72.8094 Q180.834 72.8094 179.005 76.3742 Q177.2 79.9158 177.2 87.0454 Q177.2 94.1519 179.005 97.7167 Q180.834 101.258 184.445 101.258 Q188.079 101.258 189.885 97.7167 Q191.713 94.1519 191.713 87.0454 Q191.713 79.9158 189.885 76.3742 Q188.079 72.8094 184.445 72.8094 M184.445 69.1057 Q190.255 69.1057 193.311 73.7122 Q196.389 78.2955 196.389 87.0454 Q196.389 95.7722 193.311 100.379 Q190.255 104.962 184.445 104.962 Q178.635 104.962 175.556 100.379 Q172.501 95.7722 172.501 87.0454 Q172.501 78.2955 175.556 73.7122 Q178.635 69.1057 184.445 69.1057 Z" fill="#000000" fill-rule="evenodd" fill-opacity="1" /><path clip-path="url(#clip510)" d="M35.1993 829.203 Q31.2526 827.007 29.3747 823.951 Q27.4968 820.896 27.4968 816.758 Q27.4968 811.188 31.4117 808.164 Q35.2948 805.141 42.4881 805.141 L64.0042 805.141 L64.0042 811.029 L42.679 811.029 Q37.5546 811.029 35.072 812.843 Q32.5894 814.657 32.5894 818.381 Q32.5894 822.933 35.6131 825.574 Q38.6368 828.216 43.8567 828.216 L64.0042 828.216 L64.0042 834.105 L42.679 834.105 Q37.5228 834.105 35.072 835.919 Q32.5894 837.733 32.5894 841.521 Q32.5894 846.008 35.6449 848.65 Q38.6686 851.292 43.8567 851.292 L64.0042 851.292 L64.0042 857.18 L28.3562 857.18 L28.3562 851.292 L33.8944 851.292 Q30.616 849.287 29.0564 846.486 Q27.4968 843.685 27.4968 839.834 Q27.4968 835.951 29.4702 833.245 Q31.4436 830.508 35.1993 829.203 Z" fill="#000000" fill-rule="evenodd" fill-opacity="1" /><path clip-path="url(#clip510)" d="M28.3562 793.459 L28.3562 787.603 L64.0042 787.603 L64.0042 793.459 L28.3562 793.459 M14.479 793.459 L14.479 787.603 L21.895 787.603 L21.895 793.459 L14.479 793.459 Z" fill="#000000" fill-rule="evenodd" fill-opacity="1" /><path clip-path="url(#clip510)" d="M42.4881 745.717 L64.0042 745.717 L64.0042 751.573 L42.679 751.573 Q37.6183 751.573 35.1038 753.547 Q32.5894 755.52 32.5894 759.467 Q32.5894 764.209 35.6131 766.946 Q38.6368 769.684 43.8567 769.684 L64.0042 769.684 L64.0042 775.572 L28.3562 775.572 L28.3562 769.684 L33.8944 769.684 Q30.6797 767.583 29.0883 764.75 Q27.4968 761.886 27.4968 758.162 Q27.4968 752.019 31.3163 748.868 Q35.1038 745.717 42.4881 745.717 Z" fill="#000000" fill-rule="evenodd" fill-opacity="1" /><path clip-path="url(#clip510)" d="M74.8259 706.95 L79.3773 706.95 L79.3773 740.815 L74.8259 740.815 L74.8259 706.95 Z" fill="#000000" fill-rule="evenodd" fill-opacity="1" /><path clip-path="url(#clip510)" d="M33.7671 677.986 L14.479 677.986 L14.479 672.129 L64.0042 672.129 L64.0042 677.986 L58.657 677.986 Q61.8398 679.832 63.3994 682.664 Q64.9272 685.465 64.9272 689.412 Q64.9272 695.873 59.771 699.947 Q54.6147 703.989 46.212 703.989 Q37.8093 703.989 32.6531 699.947 Q27.4968 695.873 27.4968 689.412 Q27.4968 685.465 29.0564 682.664 Q30.5842 679.832 33.7671 677.986 M46.212 697.942 Q52.6732 697.942 56.3653 695.3 Q60.0256 692.627 60.0256 687.98 Q60.0256 683.333 56.3653 680.659 Q52.6732 677.986 46.212 677.986 Q39.7508 677.986 36.0905 680.659 Q32.3984 683.333 32.3984 687.98 Q32.3984 692.627 36.0905 695.3 Q39.7508 697.942 46.212 697.942 Z" fill="#000000" fill-rule="evenodd" fill-opacity="1" /><path clip-path="url(#clip510)" d="M28.3562 660.066 L28.3562 654.21 L64.0042 654.21 L64.0042 660.066 L28.3562 660.066 M14.479 660.066 L14.479 654.21 L21.895 654.21 L21.895 660.066 L14.479 660.066 Z" fill="#000000" fill-rule="evenodd" fill-opacity="1" /><path clip-path="url(#clip510)" d="M14.479 623.909 L19.3487 623.909 L19.3487 629.511 Q19.3487 632.662 20.6219 633.903 Q21.895 635.113 25.2052 635.113 L28.3562 635.113 L28.3562 625.468 L32.9077 625.468 L32.9077 635.113 L64.0042 635.113 L64.0042 641.001 L32.9077 641.001 L32.9077 646.603 L28.3562 646.603 L28.3562 641.001 L25.8736 641.001 Q19.9216 641.001 17.2162 638.232 Q14.479 635.463 14.479 629.447 L14.479 623.909 Z" fill="#000000" fill-rule="evenodd" fill-opacity="1" /><path clip-path="url(#clip510)" d="M14.479 600.961 L19.3487 600.961 L19.3487 606.562 Q19.3487 609.713 20.6219 610.955 Q21.895 612.164 25.2052 612.164 L28.3562 612.164 L28.3562 602.52 L32.9077 602.52 L32.9077 612.164 L64.0042 612.164 L64.0042 618.052 L32.9077 618.052 L32.9077 623.654 L28.3562 623.654 L28.3562 618.052 L25.8736 618.052 Q19.9216 618.052 17.2162 615.283 Q14.479 612.514 14.479 606.499 L14.479 600.961 Z" fill="#000000" fill-rule="evenodd" fill-opacity="1" /><polyline clip-path="url(#clip512)" style="stroke:#009af9; stroke-linecap:butt; stroke-linejoin:round; stroke-width:20; stroke-opacity:1; fill:none" stroke-dasharray="80, 50" points="
  292.4,85.838 755.236,1369.88 1025.98,1370.71 1218.07,1372.3 1367.07,1354.83 1488.81,1330.27 1591.75,1309.79 1680.91,1287.6 1759.56,1268.97 1829.91,1241.21 
  1893.55,1220.2 1951.65,1193.24 2005.1,1163.43 2054.58,1144.03 2100.65,1122.67 2143.75,1100.33 2184.23,1077.66 2222.39,1055.07 2258.5,1032.85 2292.75,1011.18 
  
  "/>
<path clip-path="url(#clip510)" d="
M1994.05 196.379 L2282.08 196.379 L2282.08 92.6992 L1994.05 92.6992  Z
  " fill="#ffffff" fill-rule="evenodd" fill-opacity="1"/>
<polyline clip-path="url(#clip510)" style="stroke:#000000; stroke-linecap:butt; stroke-linejoin:round; stroke-width:4; stroke-opacity:1; fill:none" points="
  1994.05,196.379 2282.08,196.379 2282.08,92.6992 1994.05,92.6992 1994.05,196.379 
  "/>
<polyline clip-path="url(#clip510)" style="stroke:#009af9; stroke-linecap:butt; stroke-linejoin:round; stroke-width:4; stroke-opacity:1; fill:none" stroke-dasharray="16, 10" points="
  2017.61,144.539 2158.97,144.539 
  "/>
<path clip-path="url(#clip510)" d="M2196.37 164.227 Q2194.56 168.856 2192.85 170.268 Q2191.14 171.68 2188.27 171.68 L2184.87 171.68 L2184.87 168.115 L2187.37 168.115 Q2189.12 168.115 2190.1 167.282 Q2191.07 166.449 2192.25 163.347 L2193.01 161.403 L2182.53 135.893 L2187.04 135.893 L2195.14 156.171 L2203.24 135.893 L2207.76 135.893 L2196.37 164.227 Z" fill="#000000" fill-rule="evenodd" fill-opacity="1" /><path clip-path="url(#clip510)" d="M2215.05 157.884 L2222.69 157.884 L2222.69 131.518 L2214.38 133.185 L2214.38 128.926 L2222.64 127.259 L2227.32 127.259 L2227.32 157.884 L2234.96 157.884 L2234.96 161.819 L2215.05 161.819 L2215.05 157.884 Z" fill="#000000" fill-rule="evenodd" fill-opacity="1" /></svg>
