<?xml version="1.0" encoding="utf-8"?>
<svg xmlns="http://www.w3.org/2000/svg" xmlns:xlink="http://www.w3.org/1999/xlink" width="600" height="400" viewBox="0 0 2400 1600">
<defs>
  <clipPath id="clip940">
    <rect x="0" y="0" width="2400" height="1600"/>
  </clipPath>
</defs>
<path clip-path="url(#clip940)" d="
M0 1600 L2400 1600 L2400 0 L0 0  Z
  " fill="#ffffff" fill-rule="evenodd" fill-opacity="1"/>
<defs>
  <clipPath id="clip941">
    <rect x="480" y="0" width="1681" height="1600"/>
  </clipPath>
</defs>
<path clip-path="url(#clip940)" d="
M229.473 1410.9 L2352.76 1410.9 L2352.76 47.2441 L229.473 47.2441  Z
  " fill="#ffffff" fill-rule="evenodd" fill-opacity="1"/>
<defs>
  <clipPath id="clip942">
    <rect x="229" y="47" width="2124" height="1365"/>
  </clipPath>
</defs>
<polyline clip-path="url(#clip942)" style="stroke:#000000; stroke-width:2; stroke-opacity:0.1; fill:none" points="
  292.992,1410.9 292.992,47.2441 
  "/>
<polyline clip-path="url(#clip942)" style="stroke:#000000; stroke-width:2; stroke-opacity:0.1; fill:none" points="
  625.7,1410.9 625.7,47.2441 
  "/>
<polyline clip-path="url(#clip942)" style="stroke:#000000; stroke-width:2; stroke-opacity:0.1; fill:none" points="
  958.407,1410.9 958.407,47.2441 
  "/>
<polyline clip-path="url(#clip942)" style="stroke:#000000; stroke-width:2; stroke-opacity:0.1; fill:none" points="
  1291.11,1410.9 1291.11,47.2441 
  "/>
<polyline clip-path="url(#clip942)" style="stroke:#000000; stroke-width:2; stroke-opacity:0.1; fill:none" points="
  1623.82,1410.9 1623.82,47.2441 
  "/>
<polyline clip-path="url(#clip942)" style="stroke:#000000; stroke-width:2; stroke-opacity:0.1; fill:none" points="
  1956.53,1410.9 1956.53,47.2441 
  "/>
<polyline clip-path="url(#clip942)" style="stroke:#000000; stroke-width:2; stroke-opacity:0.1; fill:none" points="
  2289.24,1410.9 2289.24,47.2441 
  "/>
<polyline clip-path="url(#clip940)" style="stroke:#000000; stroke-width:4; stroke-opacity:1; fill:none" points="
  229.473,1410.9 2352.76,1410.9 
  "/>
<polyline clip-path="url(#clip940)" style="stroke:#000000; stroke-width:4; stroke-opacity:1; fill:none" points="
  292.992,1410.9 292.992,1394.53 
  "/>
<polyline clip-path="url(#clip940)" style="stroke:#000000; stroke-width:4; stroke-opacity:1; fill:none" points="
  625.7,1410.9 625.7,1394.53 
  "/>
<polyline clip-path="url(#clip940)" style="stroke:#000000; stroke-width:4; stroke-opacity:1; fill:none" points="
  958.407,1410.9 958.407,1394.53 
  "/>
<polyline clip-path="url(#clip940)" style="stroke:#000000; stroke-width:4; stroke-opacity:1; fill:none" points="
  1291.11,1410.9 1291.11,1394.53 
  "/>
<polyline clip-path="url(#clip940)" style="stroke:#000000; stroke-width:4; stroke-opacity:1; fill:none" points="
  1623.82,1410.9 1623.82,1394.53 
  "/>
<polyline clip-path="url(#clip940)" style="stroke:#000000; stroke-width:4; stroke-opacity:1; fill:none" points="
  1956.53,1410.9 1956.53,1394.53 
  "/>
<polyline clip-path="url(#clip940)" style="stroke:#000000; stroke-width:4; stroke-opacity:1; fill:none" points="
  2289.24,1410.9 2289.24,1394.53 
  "/>
<path clip-path="url(#clip940)" d="M 0 0 M232.083 1489.17 L239.722 1489.17 L239.722 1462.8 L231.412 1464.47 L231.412 1460.21 L239.675 1458.54 L244.351 1458.54 L244.351 1489.17 L251.99 1489.17 L251.99 1493.1 L232.083 1493.1 L232.083 1489.17 Z" fill="#000000" fill-rule="evenodd" fill-opacity="1" /><path clip-path="url(#clip940)" d="M 0 0 M267.059 1461.62 Q263.448 1461.62 261.62 1465.19 Q259.814 1468.73 259.814 1475.86 Q259.814 1482.97 261.62 1486.53 Q263.448 1490.07 267.059 1490.07 Q270.694 1490.07 272.499 1486.53 Q274.328 1482.97 274.328 1475.86 Q274.328 1468.73 272.499 1465.19 Q270.694 1461.62 267.059 1461.62 M267.059 1457.92 Q272.87 1457.92 275.925 1462.53 Q279.004 1467.11 279.004 1475.86 Q279.004 1484.59 275.925 1489.19 Q272.87 1493.78 267.059 1493.78 Q261.249 1493.78 258.171 1489.19 Q255.115 1484.59 255.115 1475.86 Q255.115 1467.11 258.171 1462.53 Q261.249 1457.92 267.059 1457.92 Z" fill="#000000" fill-rule="evenodd" fill-opacity="1" /><path clip-path="url(#clip940)" d="M 0 0 M279.004 1452.02 L303.115 1452.02 L303.115 1455.22 L279.004 1455.22 L279.004 1452.02 Z" fill="#000000" fill-rule="evenodd" fill-opacity="1" /><path clip-path="url(#clip940)" d="M 0 0 M315.359 1440.11 Q312.425 1440.11 310.939 1443.01 Q309.472 1445.89 309.472 1451.68 Q309.472 1457.46 310.939 1460.35 Q312.425 1463.23 315.359 1463.23 Q318.312 1463.23 319.779 1460.35 Q321.265 1457.46 321.265 1451.68 Q321.265 1445.89 319.779 1443.01 Q318.312 1440.11 315.359 1440.11 M315.359 1437.11 Q320.08 1437.11 322.563 1440.85 Q325.064 1444.57 325.064 1451.68 Q325.064 1458.77 322.563 1462.51 Q320.08 1466.24 315.359 1466.24 Q310.639 1466.24 308.137 1462.51 Q305.654 1458.77 305.654 1451.68 Q305.654 1444.57 308.137 1440.85 Q310.639 1437.11 315.359 1437.11 Z" fill="#000000" fill-rule="evenodd" fill-opacity="1" /><path clip-path="url(#clip940)" d="M 0 0 M329.183 1460.92 L333.151 1460.92 L333.151 1465.69 L329.183 1465.69 L329.183 1460.92 Z" fill="#000000" fill-rule="evenodd" fill-opacity="1" /><path clip-path="url(#clip940)" d="M 0 0 M348.781 1450.55 Q351.508 1451.14 353.031 1452.98 Q354.573 1454.82 354.573 1457.53 Q354.573 1461.69 351.715 1463.96 Q348.856 1466.24 343.59 1466.24 Q341.822 1466.24 339.941 1465.88 Q338.079 1465.54 336.085 1464.85 L336.085 1461.18 Q337.665 1462.1 339.546 1462.57 Q341.427 1463.04 343.477 1463.04 Q347.05 1463.04 348.912 1461.63 Q350.793 1460.22 350.793 1457.53 Q350.793 1455.05 349.044 1453.66 Q347.314 1452.25 344.21 1452.25 L340.938 1452.25 L340.938 1449.12 L344.361 1449.12 Q347.163 1449.12 348.649 1448.01 Q350.135 1446.89 350.135 1444.78 Q350.135 1442.62 348.593 1441.47 Q347.069 1440.3 344.21 1440.3 Q342.649 1440.3 340.863 1440.64 Q339.076 1440.98 336.932 1441.69 L336.932 1438.31 Q339.095 1437.71 340.975 1437.41 Q342.875 1437.11 344.549 1437.11 Q348.875 1437.11 351.395 1439.08 Q353.915 1441.04 353.915 1444.38 Q353.915 1446.72 352.58 1448.33 Q351.244 1449.93 348.781 1450.55 Z" fill="#000000" fill-rule="evenodd" fill-opacity="1" /><path clip-path="url(#clip940)" d="M 0 0 M565.176 1489.17 L572.814 1489.17 L572.814 1462.8 L564.504 1464.47 L564.504 1460.21 L572.768 1458.54 L577.444 1458.54 L577.444 1489.17 L585.083 1489.17 L585.083 1493.1 L565.176 1493.1 L565.176 1489.17 Z" fill="#000000" fill-rule="evenodd" fill-opacity="1" /><path clip-path="url(#clip940)" d="M 0 0 M600.152 1461.62 Q596.541 1461.62 594.713 1465.19 Q592.907 1468.73 592.907 1475.86 Q592.907 1482.97 594.713 1486.53 Q596.541 1490.07 600.152 1490.07 Q603.787 1490.07 605.592 1486.53 Q607.421 1482.97 607.421 1475.86 Q607.421 1468.73 605.592 1465.19 Q603.787 1461.62 600.152 1461.62 M600.152 1457.92 Q605.962 1457.92 609.018 1462.53 Q612.097 1467.11 612.097 1475.86 Q612.097 1484.59 609.018 1489.19 Q605.962 1493.78 600.152 1493.78 Q594.342 1493.78 591.263 1489.19 Q588.208 1484.59 588.208 1475.86 Q588.208 1467.11 591.263 1462.53 Q594.342 1457.92 600.152 1457.92 Z" fill="#000000" fill-rule="evenodd" fill-opacity="1" /><path clip-path="url(#clip940)" d="M 0 0 M612.097 1452.02 L636.208 1452.02 L636.208 1455.22 L612.097 1455.22 L612.097 1452.02 Z" fill="#000000" fill-rule="evenodd" fill-opacity="1" /><path clip-path="url(#clip940)" d="M 0 0 M648.452 1440.11 Q645.518 1440.11 644.032 1443.01 Q642.565 1445.89 642.565 1451.68 Q642.565 1457.46 644.032 1460.35 Q645.518 1463.23 648.452 1463.23 Q651.405 1463.23 652.872 1460.35 Q654.358 1457.46 654.358 1451.68 Q654.358 1445.89 652.872 1443.01 Q651.405 1440.11 648.452 1440.11 M648.452 1437.11 Q653.173 1437.11 655.655 1440.85 Q658.157 1444.57 658.157 1451.68 Q658.157 1458.77 655.655 1462.51 Q653.173 1466.24 648.452 1466.24 Q643.731 1466.24 641.23 1462.51 Q638.747 1458.77 638.747 1451.68 Q638.747 1444.57 641.23 1440.85 Q643.731 1437.11 648.452 1437.11 Z" fill="#000000" fill-rule="evenodd" fill-opacity="1" /><path clip-path="url(#clip940)" d="M 0 0 M662.276 1460.92 L666.244 1460.92 L666.244 1465.69 L662.276 1465.69 L662.276 1460.92 Z" fill="#000000" fill-rule="evenodd" fill-opacity="1" /><path clip-path="url(#clip940)" d="M 0 0 M673.636 1462.5 L686.895 1462.5 L686.895 1465.69 L669.065 1465.69 L669.065 1462.5 Q671.228 1460.26 674.952 1456.5 Q678.695 1452.72 679.654 1451.63 Q681.479 1449.58 682.193 1448.16 Q682.927 1446.74 682.927 1445.36 Q682.927 1443.12 681.347 1441.71 Q679.786 1440.3 677.266 1440.3 Q675.479 1440.3 673.485 1440.92 Q671.51 1441.54 669.253 1442.8 L669.253 1438.97 Q671.548 1438.05 673.542 1437.58 Q675.535 1437.11 677.19 1437.11 Q681.554 1437.11 684.149 1439.29 Q686.745 1441.47 686.745 1445.12 Q686.745 1446.85 686.086 1448.41 Q685.447 1449.95 683.735 1452.06 Q683.265 1452.6 680.745 1455.22 Q678.225 1457.81 673.636 1462.5 Z" fill="#000000" fill-rule="evenodd" fill-opacity="1" /><path clip-path="url(#clip940)" d="M 0 0 M897.732 1489.17 L905.371 1489.17 L905.371 1462.8 L897.061 1464.47 L897.061 1460.21 L905.325 1458.54 L910.001 1458.54 L910.001 1489.17 L917.64 1489.17 L917.64 1493.1 L897.732 1493.1 L897.732 1489.17 Z" fill="#000000" fill-rule="evenodd" fill-opacity="1" /><path clip-path="url(#clip940)" d="M 0 0 M932.709 1461.62 Q929.098 1461.62 927.269 1465.19 Q925.464 1468.73 925.464 1475.86 Q925.464 1482.97 927.269 1486.53 Q929.098 1490.07 932.709 1490.07 Q936.343 1490.07 938.149 1486.53 Q939.978 1482.97 939.978 1475.86 Q939.978 1468.73 938.149 1465.19 Q936.343 1461.62 932.709 1461.62 M932.709 1457.92 Q938.519 1457.92 941.575 1462.53 Q944.653 1467.11 944.653 1475.86 Q944.653 1484.59 941.575 1489.19 Q938.519 1493.78 932.709 1493.78 Q926.899 1493.78 923.82 1489.19 Q920.765 1484.59 920.765 1475.86 Q920.765 1467.11 923.82 1462.53 Q926.899 1457.92 932.709 1457.92 Z" fill="#000000" fill-rule="evenodd" fill-opacity="1" /><path clip-path="url(#clip940)" d="M 0 0 M944.653 1452.02 L968.765 1452.02 L968.765 1455.22 L944.653 1455.22 L944.653 1452.02 Z" fill="#000000" fill-rule="evenodd" fill-opacity="1" /><path clip-path="url(#clip940)" d="M 0 0 M981.009 1440.11 Q978.075 1440.11 976.589 1443.01 Q975.122 1445.89 975.122 1451.68 Q975.122 1457.46 976.589 1460.35 Q978.075 1463.23 981.009 1463.23 Q983.962 1463.23 985.429 1460.35 Q986.915 1457.46 986.915 1451.68 Q986.915 1445.89 985.429 1443.01 Q983.962 1440.11 981.009 1440.11 M981.009 1437.11 Q985.73 1437.11 988.212 1440.85 Q990.714 1444.57 990.714 1451.68 Q990.714 1458.77 988.212 1462.51 Q985.73 1466.24 981.009 1466.24 Q976.288 1466.24 973.787 1462.51 Q971.304 1458.77 971.304 1451.68 Q971.304 1444.57 973.787 1440.85 Q976.288 1437.11 981.009 1437.11 Z" fill="#000000" fill-rule="evenodd" fill-opacity="1" /><path clip-path="url(#clip940)" d="M 0 0 M994.833 1460.92 L998.801 1460.92 L998.801 1465.69 L994.833 1465.69 L994.833 1460.92 Z" fill="#000000" fill-rule="evenodd" fill-opacity="1" /><path clip-path="url(#clip940)" d="M 0 0 M1003.58 1462.5 L1009.78 1462.5 L1009.78 1441.07 L1003.03 1442.43 L1003.03 1438.97 L1009.75 1437.61 L1013.55 1437.61 L1013.55 1462.5 L1019.75 1462.5 L1019.75 1465.69 L1003.58 1465.69 L1003.58 1462.5 Z" fill="#000000" fill-rule="evenodd" fill-opacity="1" /><path clip-path="url(#clip940)" d="M 0 0 M1243.27 1489.17 L1250.91 1489.17 L1250.91 1462.8 L1242.6 1464.47 L1242.6 1460.21 L1250.86 1458.54 L1255.54 1458.54 L1255.54 1489.17 L1263.17 1489.17 L1263.17 1493.1 L1243.27 1493.1 L1243.27 1489.17 Z" fill="#000000" fill-rule="evenodd" fill-opacity="1" /><path clip-path="url(#clip940)" d="M 0 0 M1278.24 1461.62 Q1274.63 1461.62 1272.8 1465.19 Q1271 1468.73 1271 1475.86 Q1271 1482.97 1272.8 1486.53 Q1274.63 1490.07 1278.24 1490.07 Q1281.88 1490.07 1283.68 1486.53 Q1285.51 1482.97 1285.51 1475.86 Q1285.51 1468.73 1283.68 1465.19 Q1281.88 1461.62 1278.24 1461.62 M1278.24 1457.92 Q1284.05 1457.92 1287.11 1462.53 Q1290.19 1467.11 1290.19 1475.86 Q1290.19 1484.59 1287.11 1489.19 Q1284.05 1493.78 1278.24 1493.78 Q1272.43 1493.78 1269.35 1489.19 Q1266.3 1484.59 1266.3 1475.86 Q1266.3 1467.11 1269.35 1462.53 Q1272.43 1457.92 1278.24 1457.92 Z" fill="#000000" fill-rule="evenodd" fill-opacity="1" /><path clip-path="url(#clip940)" d="M 0 0 M1299.89 1440.11 Q1296.96 1440.11 1295.47 1443.01 Q1294.01 1445.89 1294.01 1451.68 Q1294.01 1457.46 1295.47 1460.35 Q1296.96 1463.23 1299.89 1463.23 Q1302.85 1463.23 1304.31 1460.35 Q1305.8 1457.46 1305.8 1451.68 Q1305.8 1445.89 1304.31 1443.01 Q1302.85 1440.11 1299.89 1440.11 M1299.89 1437.11 Q1304.61 1437.11 1307.1 1440.85 Q1309.6 1444.57 1309.6 1451.68 Q1309.6 1458.77 1307.1 1462.51 Q1304.61 1466.24 1299.89 1466.24 Q1295.17 1466.24 1292.67 1462.51 Q1290.19 1458.77 1290.19 1451.68 Q1290.19 1444.57 1292.67 1440.85 Q1295.17 1437.11 1299.89 1437.11 Z" fill="#000000" fill-rule="evenodd" fill-opacity="1" /><path clip-path="url(#clip940)" d="M 0 0 M1313.72 1460.92 L1317.68 1460.92 L1317.68 1465.69 L1313.72 1465.69 L1313.72 1460.92 Z" fill="#000000" fill-rule="evenodd" fill-opacity="1" /><path clip-path="url(#clip940)" d="M 0 0 M1329.93 1440.11 Q1326.99 1440.11 1325.51 1443.01 Q1324.04 1445.89 1324.04 1451.68 Q1324.04 1457.46 1325.51 1460.35 Q1326.99 1463.23 1329.93 1463.23 Q1332.88 1463.23 1334.35 1460.35 Q1335.83 1457.46 1335.83 1451.68 Q1335.83 1445.89 1334.35 1443.01 Q1332.88 1440.11 1329.93 1440.11 M1329.93 1437.11 Q1334.65 1437.11 1337.13 1440.85 Q1339.63 1444.57 1339.63 1451.68 Q1339.63 1458.77 1337.13 1462.51 Q1334.65 1466.24 1329.93 1466.24 Q1325.21 1466.24 1322.71 1462.51 Q1320.22 1458.77 1320.22 1451.68 Q1320.22 1444.57 1322.71 1440.85 Q1325.21 1437.11 1329.93 1437.11 Z" fill="#000000" fill-rule="evenodd" fill-opacity="1" /><path clip-path="url(#clip940)" d="M 0 0 M1576.47 1489.17 L1584.11 1489.17 L1584.11 1462.8 L1575.8 1464.47 L1575.8 1460.21 L1584.06 1458.54 L1588.74 1458.54 L1588.74 1489.17 L1596.38 1489.17 L1596.38 1493.1 L1576.47 1493.1 L1576.47 1489.17 Z" fill="#000000" fill-rule="evenodd" fill-opacity="1" /><path clip-path="url(#clip940)" d="M 0 0 M1611.45 1461.62 Q1607.84 1461.62 1606.01 1465.19 Q1604.2 1468.73 1604.2 1475.86 Q1604.2 1482.97 1606.01 1486.53 Q1607.84 1490.07 1611.45 1490.07 Q1615.08 1490.07 1616.89 1486.53 Q1618.72 1482.97 1618.72 1475.86 Q1618.72 1468.73 1616.89 1465.19 Q1615.08 1461.62 1611.45 1461.62 M1611.45 1457.92 Q1617.26 1457.92 1620.31 1462.53 Q1623.39 1467.11 1623.39 1475.86 Q1623.39 1484.59 1620.31 1489.19 Q1617.26 1493.78 1611.45 1493.78 Q1605.64 1493.78 1602.56 1489.19 Q1599.5 1484.59 1599.5 1475.86 Q1599.5 1467.11 1602.56 1462.53 Q1605.64 1457.92 1611.45 1457.92 Z" fill="#000000" fill-rule="evenodd" fill-opacity="1" /><path clip-path="url(#clip940)" d="M 0 0 M1633.1 1440.11 Q1630.16 1440.11 1628.68 1443.01 Q1627.21 1445.89 1627.21 1451.68 Q1627.21 1457.46 1628.68 1460.35 Q1630.16 1463.23 1633.1 1463.23 Q1636.05 1463.23 1637.52 1460.35 Q1639 1457.46 1639 1451.68 Q1639 1445.89 1637.52 1443.01 Q1636.05 1440.11 1633.1 1440.11 M1633.1 1437.11 Q1637.82 1437.11 1640.3 1440.85 Q1642.8 1444.57 1642.8 1451.68 Q1642.8 1458.77 1640.3 1462.51 Q1637.82 1466.24 1633.1 1466.24 Q1628.38 1466.24 1625.88 1462.51 Q1623.39 1458.77 1623.39 1451.68 Q1623.39 1444.57 1625.88 1440.85 Q1628.38 1437.11 1633.1 1437.11 Z" fill="#000000" fill-rule="evenodd" fill-opacity="1" /><path clip-path="url(#clip940)" d="M 0 0 M1646.92 1460.92 L1650.89 1460.92 L1650.89 1465.69 L1646.92 1465.69 L1646.92 1460.92 Z" fill="#000000" fill-rule="evenodd" fill-opacity="1" /><path clip-path="url(#clip940)" d="M 0 0 M1655.67 1462.5 L1661.87 1462.5 L1661.87 1441.07 L1655.12 1442.43 L1655.12 1438.97 L1661.84 1437.61 L1665.64 1437.61 L1665.64 1462.5 L1671.84 1462.5 L1671.84 1465.69 L1655.67 1465.69 L1655.67 1462.5 Z" fill="#000000" fill-rule="evenodd" fill-opacity="1" /><path clip-path="url(#clip940)" d="M 0 0 M1909.33 1489.17 L1916.97 1489.17 L1916.97 1462.8 L1908.66 1464.47 L1908.66 1460.21 L1916.92 1458.54 L1921.6 1458.54 L1921.6 1489.17 L1929.24 1489.17 L1929.24 1493.1 L1909.33 1493.1 L1909.33 1489.17 Z" fill="#000000" fill-rule="evenodd" fill-opacity="1" /><path clip-path="url(#clip940)" d="M 0 0 M1944.31 1461.62 Q1940.7 1461.62 1938.87 1465.19 Q1937.06 1468.73 1937.06 1475.86 Q1937.06 1482.97 1938.87 1486.53 Q1940.7 1490.07 1944.31 1490.07 Q1947.94 1490.07 1949.75 1486.53 Q1951.58 1482.97 1951.58 1475.86 Q1951.58 1468.73 1949.75 1465.19 Q1947.94 1461.62 1944.31 1461.62 M1944.31 1457.92 Q1950.12 1457.92 1953.17 1462.53 Q1956.25 1467.11 1956.25 1475.86 Q1956.25 1484.59 1953.17 1489.19 Q1950.12 1493.78 1944.31 1493.78 Q1938.5 1493.78 1935.42 1489.19 Q1932.36 1484.59 1932.36 1475.86 Q1932.36 1467.11 1935.42 1462.53 Q1938.5 1457.92 1944.31 1457.92 Z" fill="#000000" fill-rule="evenodd" fill-opacity="1" /><path clip-path="url(#clip940)" d="M 0 0 M1965.96 1440.11 Q1963.02 1440.11 1961.54 1443.01 Q1960.07 1445.89 1960.07 1451.68 Q1960.07 1457.46 1961.54 1460.35 Q1963.02 1463.23 1965.96 1463.23 Q1968.91 1463.23 1970.38 1460.35 Q1971.86 1457.46 1971.86 1451.68 Q1971.86 1445.89 1970.38 1443.01 Q1968.91 1440.11 1965.96 1440.11 M1965.96 1437.11 Q1970.68 1437.11 1973.16 1440.85 Q1975.66 1444.57 1975.66 1451.68 Q1975.66 1458.77 1973.16 1462.51 Q1970.68 1466.24 1965.96 1466.24 Q1961.24 1466.24 1958.73 1462.51 Q1956.25 1458.77 1956.25 1451.68 Q1956.25 1444.57 1958.73 1440.85 Q1961.24 1437.11 1965.96 1437.11 Z" fill="#000000" fill-rule="evenodd" fill-opacity="1" /><path clip-path="url(#clip940)" d="M 0 0 M1979.78 1460.92 L1983.75 1460.92 L1983.75 1465.69 L1979.78 1465.69 L1979.78 1460.92 Z" fill="#000000" fill-rule="evenodd" fill-opacity="1" /><path clip-path="url(#clip940)" d="M 0 0 M1991.14 1462.5 L2004.4 1462.5 L2004.4 1465.69 L1986.57 1465.69 L1986.57 1462.5 Q1988.73 1460.26 1992.46 1456.5 Q1996.2 1452.72 1997.16 1451.63 Q1998.98 1449.58 1999.7 1448.16 Q2000.43 1446.74 2000.43 1445.36 Q2000.43 1443.12 1998.85 1441.71 Q1997.29 1440.3 1994.77 1440.3 Q1992.98 1440.3 1990.99 1440.92 Q1989.01 1441.54 1986.76 1442.8 L1986.76 1438.97 Q1989.05 1438.05 1991.05 1437.58 Q1993.04 1437.11 1994.69 1437.11 Q1999.06 1437.11 2001.65 1439.29 Q2004.25 1441.47 2004.25 1445.12 Q2004.25 1446.85 2003.59 1448.41 Q2002.95 1449.95 2001.24 1452.06 Q2000.77 1452.6 1998.25 1455.22 Q1995.73 1457.81 1991.14 1462.5 Z" fill="#000000" fill-rule="evenodd" fill-opacity="1" /><path clip-path="url(#clip940)" d="M 0 0 M2241.65 1489.17 L2249.29 1489.17 L2249.29 1462.8 L2240.98 1464.47 L2240.98 1460.21 L2249.24 1458.54 L2253.92 1458.54 L2253.92 1489.17 L2261.56 1489.17 L2261.56 1493.1 L2241.65 1493.1 L2241.65 1489.17 Z" fill="#000000" fill-rule="evenodd" fill-opacity="1" /><path clip-path="url(#clip940)" d="M 0 0 M2276.63 1461.62 Q2273.02 1461.62 2271.19 1465.19 Q2269.38 1468.73 2269.38 1475.86 Q2269.38 1482.97 2271.19 1486.53 Q2273.02 1490.07 2276.63 1490.07 Q2280.26 1490.07 2282.07 1486.53 Q2283.9 1482.97 2283.9 1475.86 Q2283.9 1468.73 2282.07 1465.19 Q2280.26 1461.62 2276.63 1461.62 M2276.63 1457.92 Q2282.44 1457.92 2285.49 1462.53 Q2288.57 1467.11 2288.57 1475.86 Q2288.57 1484.59 2285.49 1489.19 Q2282.44 1493.78 2276.63 1493.78 Q2270.82 1493.78 2267.74 1489.19 Q2264.68 1484.59 2264.68 1475.86 Q2264.68 1467.11 2267.74 1462.53 Q2270.82 1457.92 2276.63 1457.92 Z" fill="#000000" fill-rule="evenodd" fill-opacity="1" /><path clip-path="url(#clip940)" d="M 0 0 M2298.28 1440.11 Q2295.34 1440.11 2293.86 1443.01 Q2292.39 1445.89 2292.39 1451.68 Q2292.39 1457.46 2293.86 1460.35 Q2295.34 1463.23 2298.28 1463.23 Q2301.23 1463.23 2302.7 1460.35 Q2304.18 1457.46 2304.18 1451.68 Q2304.18 1445.89 2302.7 1443.01 Q2301.23 1440.11 2298.28 1440.11 M2298.28 1437.11 Q2303 1437.11 2305.48 1440.85 Q2307.98 1444.57 2307.98 1451.68 Q2307.98 1458.77 2305.48 1462.51 Q2303 1466.24 2298.28 1466.24 Q2293.56 1466.24 2291.06 1462.51 Q2288.57 1458.77 2288.57 1451.68 Q2288.57 1444.57 2291.06 1440.85 Q2293.56 1437.11 2298.28 1437.11 Z" fill="#000000" fill-rule="evenodd" fill-opacity="1" /><path clip-path="url(#clip940)" d="M 0 0 M2312.1 1460.92 L2316.07 1460.92 L2316.07 1465.69 L2312.1 1465.69 L2312.1 1460.92 Z" fill="#000000" fill-rule="evenodd" fill-opacity="1" /><path clip-path="url(#clip940)" d="M 0 0 M2331.7 1450.55 Q2334.43 1451.14 2335.95 1452.98 Q2337.49 1454.82 2337.49 1457.53 Q2337.49 1461.69 2334.63 1463.96 Q2331.77 1466.24 2326.51 1466.24 Q2324.74 1466.24 2322.86 1465.88 Q2321 1465.54 2319 1464.85 L2319 1461.18 Q2320.58 1462.1 2322.46 1462.57 Q2324.35 1463.04 2326.4 1463.04 Q2329.97 1463.04 2331.83 1461.63 Q2333.71 1460.22 2333.71 1457.53 Q2333.71 1455.05 2331.96 1453.66 Q2330.23 1452.25 2327.13 1452.25 L2323.86 1452.25 L2323.86 1449.12 L2327.28 1449.12 Q2330.08 1449.12 2331.57 1448.01 Q2333.05 1446.89 2333.05 1444.78 Q2333.05 1442.62 2331.51 1441.47 Q2329.99 1440.3 2327.13 1440.3 Q2325.57 1440.3 2323.78 1440.64 Q2321.99 1440.98 2319.85 1441.69 L2319.85 1438.31 Q2322.01 1437.71 2323.89 1437.41 Q2325.79 1437.11 2327.47 1437.11 Q2331.79 1437.11 2334.31 1439.08 Q2336.83 1441.04 2336.83 1444.38 Q2336.83 1446.72 2335.5 1448.33 Q2334.16 1449.93 2331.7 1450.55 Z" fill="#000000" fill-rule="evenodd" fill-opacity="1" /><path clip-path="url(#clip940)" d="M 0 0 M1296.32 1545.6 L1294.92 1538.25 Q1293.49 1530.71 1287.82 1530.71 Q1283.56 1530.71 1281.61 1534.21 Q1279.16 1538.6 1279.16 1544.39 Q1279.16 1551.4 1281.55 1554.74 Q1283.97 1558.14 1287.82 1558.14 Q1292.09 1558.14 1294.38 1551.36 L1296.32 1545.6 M1299.6 1535.86 L1302.75 1526.54 L1307.97 1526.54 L1301.44 1545.86 L1302.72 1552.83 Q1303 1554.39 1304.12 1555.69 Q1305.42 1557.22 1306.44 1557.22 L1309.24 1557.22 L1309.24 1562.19 L1305.74 1562.19 Q1302.75 1562.19 1300.07 1559.51 Q1298.77 1558.18 1298.23 1555.37 Q1296.76 1558.91 1293.77 1561.68 Q1292.37 1562.98 1287.82 1562.98 Q1280.34 1562.98 1276.71 1558.14 Q1272.99 1553.15 1272.99 1544.39 Q1272.99 1535.04 1277.03 1530.64 Q1281.52 1525.74 1287.82 1525.74 Q1297.72 1525.74 1299.6 1535.86 Z" fill="#000000" fill-rule="evenodd" fill-opacity="1" /><polyline clip-path="url(#clip942)" style="stroke:#000000; stroke-width:2; stroke-opacity:0.1; fill:none" points="
  229.473,1406.34 2352.76,1406.34 
  "/>
<polyline clip-path="url(#clip942)" style="stroke:#000000; stroke-width:2; stroke-opacity:0.1; fill:none" points="
  229.473,1092.41 2352.76,1092.41 
  "/>
<polyline clip-path="url(#clip942)" style="stroke:#000000; stroke-width:2; stroke-opacity:0.1; fill:none" points="
  229.473,778.473 2352.76,778.473 
  "/>
<polyline clip-path="url(#clip942)" style="stroke:#000000; stroke-width:2; stroke-opacity:0.1; fill:none" points="
  229.473,464.537 2352.76,464.537 
  "/>
<polyline clip-path="url(#clip942)" style="stroke:#000000; stroke-width:2; stroke-opacity:0.1; fill:none" points="
  229.473,150.601 2352.76,150.601 
  "/>
<polyline clip-path="url(#clip940)" style="stroke:#000000; stroke-width:4; stroke-opacity:1; fill:none" points="
  229.473,1410.9 229.473,47.2441 
  "/>
<polyline clip-path="url(#clip940)" style="stroke:#000000; stroke-width:4; stroke-opacity:1; fill:none" points="
  229.473,1406.34 254.952,1406.34 
  "/>
<polyline clip-path="url(#clip940)" style="stroke:#000000; stroke-width:4; stroke-opacity:1; fill:none" points="
  229.473,1092.41 254.952,1092.41 
  "/>
<polyline clip-path="url(#clip940)" style="stroke:#000000; stroke-width:4; stroke-opacity:1; fill:none" points="
  229.473,778.473 254.952,778.473 
  "/>
<polyline clip-path="url(#clip940)" style="stroke:#000000; stroke-width:4; stroke-opacity:1; fill:none" points="
  229.473,464.537 254.952,464.537 
  "/>
<polyline clip-path="url(#clip940)" style="stroke:#000000; stroke-width:4; stroke-opacity:1; fill:none" points="
  229.473,150.601 254.952,150.601 
  "/>
<path clip-path="url(#clip940)" d="M 0 0 M181.528 1392.14 Q177.917 1392.14 176.089 1395.71 Q174.283 1399.25 174.283 1406.38 Q174.283 1413.49 176.089 1417.05 Q177.917 1420.59 181.528 1420.59 Q185.163 1420.59 186.968 1417.05 Q188.797 1413.49 188.797 1406.38 Q188.797 1399.25 186.968 1395.71 Q185.163 1392.14 181.528 1392.14 M181.528 1388.44 Q187.338 1388.44 190.394 1393.05 Q193.473 1397.63 193.473 1406.38 Q193.473 1415.11 190.394 1419.71 Q187.338 1424.3 181.528 1424.3 Q175.718 1424.3 172.639 1419.71 Q169.584 1415.11 169.584 1406.38 Q169.584 1397.63 172.639 1393.05 Q175.718 1388.44 181.528 1388.44 Z" fill="#000000" fill-rule="evenodd" fill-opacity="1" /><path clip-path="url(#clip940)" d="M 0 0 M119.538 1105.75 L127.177 1105.75 L127.177 1079.39 L118.867 1081.05 L118.867 1076.8 L127.13 1075.13 L131.806 1075.13 L131.806 1105.75 L139.445 1105.75 L139.445 1109.69 L119.538 1109.69 L119.538 1105.75 Z" fill="#000000" fill-rule="evenodd" fill-opacity="1" /><path clip-path="url(#clip940)" d="M 0 0 M154.515 1078.21 Q150.903 1078.21 149.075 1081.77 Q147.269 1085.31 147.269 1092.44 Q147.269 1099.55 149.075 1103.11 Q150.903 1106.66 154.515 1106.66 Q158.149 1106.66 159.954 1103.11 Q161.783 1099.55 161.783 1092.44 Q161.783 1085.31 159.954 1081.77 Q158.149 1078.21 154.515 1078.21 M154.515 1074.5 Q160.325 1074.5 163.38 1079.11 Q166.459 1083.69 166.459 1092.44 Q166.459 1101.17 163.38 1105.78 Q160.325 1110.36 154.515 1110.36 Q148.704 1110.36 145.626 1105.78 Q142.57 1101.17 142.57 1092.44 Q142.57 1083.69 145.626 1079.11 Q148.704 1074.5 154.515 1074.5 Z" fill="#000000" fill-rule="evenodd" fill-opacity="1" /><path clip-path="url(#clip940)" d="M 0 0 M181.528 1078.21 Q177.917 1078.21 176.089 1081.77 Q174.283 1085.31 174.283 1092.44 Q174.283 1099.55 176.089 1103.11 Q177.917 1106.66 181.528 1106.66 Q185.163 1106.66 186.968 1103.11 Q188.797 1099.55 188.797 1092.44 Q188.797 1085.31 186.968 1081.77 Q185.163 1078.21 181.528 1078.21 M181.528 1074.5 Q187.338 1074.5 190.394 1079.11 Q193.473 1083.69 193.473 1092.44 Q193.473 1101.17 190.394 1105.78 Q187.338 1110.36 181.528 1110.36 Q175.718 1110.36 172.639 1105.78 Q169.584 1101.17 169.584 1092.44 Q169.584 1083.69 172.639 1079.11 Q175.718 1074.5 181.528 1074.5 Z" fill="#000000" fill-rule="evenodd" fill-opacity="1" /><path clip-path="url(#clip940)" d="M 0 0 M123.126 791.818 L139.445 791.818 L139.445 795.753 L117.501 795.753 L117.501 791.818 Q120.163 789.063 124.746 784.434 Q129.353 779.781 130.533 778.438 Q132.779 775.915 133.658 774.179 Q134.561 772.42 134.561 770.73 Q134.561 767.976 132.617 766.239 Q130.695 764.503 127.593 764.503 Q125.394 764.503 122.941 765.267 Q120.51 766.031 117.732 767.582 L117.732 762.86 Q120.556 761.726 123.01 761.147 Q125.464 760.568 127.501 760.568 Q132.871 760.568 136.066 763.253 Q139.26 765.939 139.26 770.429 Q139.26 772.559 138.45 774.48 Q137.663 776.378 135.556 778.971 Q134.978 779.642 131.876 782.86 Q128.774 786.054 123.126 791.818 Z" fill="#000000" fill-rule="evenodd" fill-opacity="1" /><path clip-path="url(#clip940)" d="M 0 0 M154.515 764.272 Q150.903 764.272 149.075 767.837 Q147.269 771.378 147.269 778.508 Q147.269 785.614 149.075 789.179 Q150.903 792.721 154.515 792.721 Q158.149 792.721 159.954 789.179 Q161.783 785.614 161.783 778.508 Q161.783 771.378 159.954 767.837 Q158.149 764.272 154.515 764.272 M154.515 760.568 Q160.325 760.568 163.38 765.175 Q166.459 769.758 166.459 778.508 Q166.459 787.235 163.38 791.841 Q160.325 796.424 154.515 796.424 Q148.704 796.424 145.626 791.841 Q142.57 787.235 142.57 778.508 Q142.57 769.758 145.626 765.175 Q148.704 760.568 154.515 760.568 Z" fill="#000000" fill-rule="evenodd" fill-opacity="1" /><path clip-path="url(#clip940)" d="M 0 0 M181.528 764.272 Q177.917 764.272 176.089 767.837 Q174.283 771.378 174.283 778.508 Q174.283 785.614 176.089 789.179 Q177.917 792.721 181.528 792.721 Q185.163 792.721 186.968 789.179 Q188.797 785.614 188.797 778.508 Q188.797 771.378 186.968 767.837 Q185.163 764.272 181.528 764.272 M181.528 760.568 Q187.338 760.568 190.394 765.175 Q193.473 769.758 193.473 778.508 Q193.473 787.235 190.394 791.841 Q187.338 796.424 181.528 796.424 Q175.718 796.424 172.639 791.841 Q169.584 787.235 169.584 778.508 Q169.584 769.758 172.639 765.175 Q175.718 760.568 181.528 760.568 Z" fill="#000000" fill-rule="evenodd" fill-opacity="1" /><path clip-path="url(#clip940)" d="M 0 0 M132.316 463.183 Q135.672 463.901 137.547 466.169 Q139.445 468.438 139.445 471.771 Q139.445 476.887 135.927 479.688 Q132.408 482.489 125.927 482.489 Q123.751 482.489 121.436 482.049 Q119.144 481.632 116.691 480.776 L116.691 476.262 Q118.635 477.396 120.95 477.975 Q123.265 478.553 125.788 478.553 Q130.186 478.553 132.478 476.817 Q134.792 475.081 134.792 471.771 Q134.792 468.716 132.64 467.003 Q130.51 465.266 126.691 465.266 L122.663 465.266 L122.663 461.424 L126.876 461.424 Q130.325 461.424 132.154 460.058 Q133.982 458.669 133.982 456.077 Q133.982 453.415 132.084 452.003 Q130.209 450.567 126.691 450.567 Q124.769 450.567 122.57 450.984 Q120.371 451.401 117.732 452.28 L117.732 448.114 Q120.394 447.373 122.709 447.003 Q125.047 446.632 127.107 446.632 Q132.431 446.632 135.533 449.063 Q138.635 451.47 138.635 455.591 Q138.635 458.461 136.992 460.452 Q135.348 462.419 132.316 463.183 Z" fill="#000000" fill-rule="evenodd" fill-opacity="1" /><path clip-path="url(#clip940)" d="M 0 0 M154.515 450.336 Q150.903 450.336 149.075 453.901 Q147.269 457.442 147.269 464.572 Q147.269 471.678 149.075 475.243 Q150.903 478.785 154.515 478.785 Q158.149 478.785 159.954 475.243 Q161.783 471.678 161.783 464.572 Q161.783 457.442 159.954 453.901 Q158.149 450.336 154.515 450.336 M154.515 446.632 Q160.325 446.632 163.38 451.239 Q166.459 455.822 166.459 464.572 Q166.459 473.299 163.38 477.905 Q160.325 482.489 154.515 482.489 Q148.704 482.489 145.626 477.905 Q142.57 473.299 142.57 464.572 Q142.57 455.822 145.626 451.239 Q148.704 446.632 154.515 446.632 Z" fill="#000000" fill-rule="evenodd" fill-opacity="1" /><path clip-path="url(#clip940)" d="M 0 0 M181.528 450.336 Q177.917 450.336 176.089 453.901 Q174.283 457.442 174.283 464.572 Q174.283 471.678 176.089 475.243 Q177.917 478.785 181.528 478.785 Q185.163 478.785 186.968 475.243 Q188.797 471.678 188.797 464.572 Q188.797 457.442 186.968 453.901 Q185.163 450.336 181.528 450.336 M181.528 446.632 Q187.338 446.632 190.394 451.239 Q193.473 455.822 193.473 464.572 Q193.473 473.299 190.394 477.905 Q187.338 482.489 181.528 482.489 Q175.718 482.489 172.639 477.905 Q169.584 473.299 169.584 464.572 Q169.584 455.822 172.639 451.239 Q175.718 446.632 181.528 446.632 Z" fill="#000000" fill-rule="evenodd" fill-opacity="1" /><path clip-path="url(#clip940)" d="M 0 0 M129.862 137.396 L118.056 155.845 L129.862 155.845 L129.862 137.396 M128.635 133.321 L134.515 133.321 L134.515 155.845 L139.445 155.845 L139.445 159.733 L134.515 159.733 L134.515 167.881 L129.862 167.881 L129.862 159.733 L114.26 159.733 L114.26 155.22 L128.635 133.321 Z" fill="#000000" fill-rule="evenodd" fill-opacity="1" /><path clip-path="url(#clip940)" d="M 0 0 M154.515 136.4 Q150.903 136.4 149.075 139.965 Q147.269 143.507 147.269 150.636 Q147.269 157.743 149.075 161.307 Q150.903 164.849 154.515 164.849 Q158.149 164.849 159.954 161.307 Q161.783 157.743 161.783 150.636 Q161.783 143.507 159.954 139.965 Q158.149 136.4 154.515 136.4 M154.515 132.696 Q160.325 132.696 163.38 137.303 Q166.459 141.886 166.459 150.636 Q166.459 159.363 163.38 163.969 Q160.325 168.553 154.515 168.553 Q148.704 168.553 145.626 163.969 Q142.57 159.363 142.57 150.636 Q142.57 141.886 145.626 137.303 Q148.704 132.696 154.515 132.696 Z" fill="#000000" fill-rule="evenodd" fill-opacity="1" /><path clip-path="url(#clip940)" d="M 0 0 M181.528 136.4 Q177.917 136.4 176.089 139.965 Q174.283 143.507 174.283 150.636 Q174.283 157.743 176.089 161.307 Q177.917 164.849 181.528 164.849 Q185.163 164.849 186.968 161.307 Q188.797 157.743 188.797 150.636 Q188.797 143.507 186.968 139.965 Q185.163 136.4 181.528 136.4 M181.528 132.696 Q187.338 132.696 190.394 137.303 Q193.473 141.886 193.473 150.636 Q193.473 159.363 190.394 163.969 Q187.338 168.553 181.528 168.553 Q175.718 168.553 172.639 163.969 Q169.584 159.363 169.584 150.636 Q169.584 141.886 172.639 137.303 Q175.718 132.696 181.528 132.696 Z" fill="#000000" fill-rule="evenodd" fill-opacity="1" /><path clip-path="url(#clip940)" d="M 0 0 M59.1993 815.533 Q55.2526 813.336 53.3747 810.281 Q51.4968 807.225 51.4968 803.088 Q51.4968 797.518 55.4117 794.494 Q59.2948 791.47 66.4881 791.47 L88.0042 791.47 L88.0042 797.358 L66.679 797.358 Q61.5546 797.358 59.072 799.173 Q56.5894 800.987 56.5894 804.711 Q56.5894 809.262 59.6131 811.904 Q62.6368 814.546 67.8567 814.546 L88.0042 814.546 L88.0042 820.434 L66.679 820.434 Q61.5228 820.434 59.072 822.248 Q56.5894 824.063 56.5894 827.85 Q56.5894 832.338 59.6449 834.98 Q62.6686 837.622 67.8567 837.622 L88.0042 837.622 L88.0042 843.51 L52.3562 843.51 L52.3562 837.622 L57.8944 837.622 Q54.616 835.616 53.0564 832.815 Q51.4968 830.015 51.4968 826.163 Q51.4968 822.28 53.4702 819.575 Q55.4436 816.838 59.1993 815.533 Z" fill="#000000" fill-rule="evenodd" fill-opacity="1" /><path clip-path="url(#clip940)" d="M 0 0 M52.3562 785.327 L52.3562 779.471 L88.0042 779.471 L88.0042 785.327 L52.3562 785.327 M38.479 785.327 L38.479 779.471 L45.895 779.471 L45.895 785.327 L38.479 785.327 Z" fill="#000000" fill-rule="evenodd" fill-opacity="1" /><path clip-path="url(#clip940)" d="M 0 0 M66.4881 743.696 L88.0042 743.696 L88.0042 749.552 L66.679 749.552 Q61.6183 749.552 59.1038 751.525 Q56.5894 753.499 56.5894 757.446 Q56.5894 762.188 59.6131 764.925 Q62.6368 767.662 67.8567 767.662 L88.0042 767.662 L88.0042 773.551 L52.3562 773.551 L52.3562 767.662 L57.8944 767.662 Q54.6797 765.562 53.0883 762.729 Q51.4968 759.864 51.4968 756.141 Q51.4968 749.998 55.3163 746.847 Q59.1038 743.696 66.4881 743.696 Z" fill="#000000" fill-rule="evenodd" fill-opacity="1" /><path clip-path="url(#clip940)" d="M 0 0 M98.8259 710.467 L103.377 710.467 L103.377 744.332 L98.8259 744.332 L98.8259 710.467 Z" fill="#000000" fill-rule="evenodd" fill-opacity="1" /><path clip-path="url(#clip940)" d="M 0 0 M57.7671 680.866 L38.479 680.866 L38.479 675.01 L88.0042 675.01 L88.0042 680.866 L82.657 680.866 Q85.8398 682.712 87.3994 685.545 Q88.9272 688.346 88.9272 692.292 Q88.9272 698.754 83.771 702.828 Q78.6147 706.87 70.212 706.87 Q61.8093 706.87 56.6531 702.828 Q51.4968 698.754 51.4968 692.292 Q51.4968 688.346 53.0564 685.545 Q54.5842 682.712 57.7671 680.866 M70.212 700.823 Q76.6732 700.823 80.3653 698.181 Q84.0256 695.507 84.0256 690.86 Q84.0256 686.213 80.3653 683.54 Q76.6732 680.866 70.212 680.866 Q63.7508 680.866 60.0905 683.54 Q56.3984 686.213 56.3984 690.86 Q56.3984 695.507 60.0905 698.181 Q63.7508 700.823 70.212 700.823 Z" fill="#000000" fill-rule="evenodd" fill-opacity="1" /><path clip-path="url(#clip940)" d="M 0 0 M52.3562 668.867 L52.3562 663.01 L88.0042 663.01 L88.0042 668.867 L52.3562 668.867 M38.479 668.867 L38.479 663.01 L45.895 663.01 L45.895 668.867 L38.479 668.867 Z" fill="#000000" fill-rule="evenodd" fill-opacity="1" /><path clip-path="url(#clip940)" d="M 0 0 M38.479 638.821 L43.3487 638.821 L43.3487 644.422 Q43.3487 647.573 44.6219 648.815 Q45.895 650.024 49.2052 650.024 L52.3562 650.024 L52.3562 640.38 L56.9077 640.38 L56.9077 650.024 L88.0042 650.024 L88.0042 655.912 L56.9077 655.912 L56.9077 661.514 L52.3562 661.514 L52.3562 655.912 L49.8736 655.912 Q43.9216 655.912 41.2162 653.143 Q38.479 650.374 38.479 644.359 L38.479 638.821 Z" fill="#000000" fill-rule="evenodd" fill-opacity="1" /><path clip-path="url(#clip940)" d="M 0 0 M38.479 614.631 L43.3487 614.631 L43.3487 620.233 Q43.3487 623.384 44.6219 624.625 Q45.895 625.835 49.2052 625.835 L52.3562 625.835 L52.3562 616.19 L56.9077 616.19 L56.9077 625.835 L88.0042 625.835 L88.0042 631.723 L56.9077 631.723 L56.9077 637.325 L52.3562 637.325 L52.3562 631.723 L49.8736 631.723 Q43.9216 631.723 41.2162 628.954 Q38.479 626.185 38.479 620.169 L38.479 614.631 Z" fill="#000000" fill-rule="evenodd" fill-opacity="1" /><polyline clip-path="url(#clip942)" style="stroke:#009af9; stroke-width:20; stroke-opacity:1; fill:none" stroke-dasharray="80, 50" points="
  289.566,85.838 1291.11,1167.83 1876.98,1361.64 2292.66,1372.3 
  "/>
<path clip-path="url(#clip940)" d="
M1995.04 213.659 L2281.98 213.659 L2281.98 92.6992 L1995.04 92.6992  Z
  " fill="#ffffff" fill-rule="evenodd" fill-opacity="1"/>
<polyline clip-path="url(#clip940)" style="stroke:#000000; stroke-width:4; stroke-opacity:1; fill:none" points="
  1995.04,213.659 2281.98,213.659 2281.98,92.6992 1995.04,92.6992 1995.04,213.659 
  "/>
<polyline clip-path="url(#clip940)" style="stroke:#009af9; stroke-width:4; stroke-opacity:1; fill:none" stroke-dasharray="16, 10" points="
  2018.63,153.179 2160.19,153.179 
  "/>
<path clip-path="url(#clip940)" d="M 0 0 M2197.62 172.867 Q2195.81 177.496 2194.1 178.908 Q2192.39 180.32 2189.52 180.32 L2186.12 180.32 L2186.12 176.755 L2188.62 176.755 Q2190.37 176.755 2191.35 175.922 Q2192.32 175.089 2193.5 171.987 L2194.26 170.043 L2183.78 144.533 L2188.29 144.533 L2196.39 164.811 L2204.49 144.533 L2209.01 144.533 L2197.62 172.867 Z" fill="#000000" fill-rule="evenodd" fill-opacity="1" /><path clip-path="url(#clip940)" d="M 0 0 M2214.89 166.524 L2222.53 166.524 L2222.53 140.158 L2214.22 141.825 L2214.22 137.566 L2222.48 135.899 L2227.16 135.899 L2227.16 166.524 L2234.8 166.524 L2234.8 170.459 L2214.89 170.459 L2214.89 166.524 Z" fill="#000000" fill-rule="evenodd" fill-opacity="1" /></svg>
