<?xml version="1.0" encoding="utf-8"?>
<svg xmlns="http://www.w3.org/2000/svg" xmlns:xlink="http://www.w3.org/1999/xlink" width="600" height="400" viewBox="0 0 2400 1600">
<defs>
  <clipPath id="clip190">
    <rect x="0" y="0" width="2400" height="1600"/>
  </clipPath>
</defs>
<path clip-path="url(#clip190)" d="
M0 1600 L2400 1600 L2400 0 L0 0  Z
  " fill="#ffffff" fill-rule="evenodd" fill-opacity="1"/>
<defs>
  <clipPath id="clip191">
    <rect x="480" y="0" width="1681" height="1600"/>
  </clipPath>
</defs>
<path clip-path="url(#clip190)" d="
M249.056 1410.9 L2352.76 1410.9 L2352.76 47.2441 L249.056 47.2441  Z
  " fill="#ffffff" fill-rule="evenodd" fill-opacity="1"/>
<defs>
  <clipPath id="clip192">
    <rect x="249" y="47" width="2105" height="1365"/>
  </clipPath>
</defs>
<polyline clip-path="url(#clip192)" style="stroke:#000000; stroke-linecap:butt; stroke-linejoin:round; stroke-width:2; stroke-opacity:0.1; fill:none" points="
  507.057,1410.9 507.057,47.2441 
  "/>
<polyline clip-path="url(#clip192)" style="stroke:#000000; stroke-linecap:butt; stroke-linejoin:round; stroke-width:2; stroke-opacity:0.1; fill:none" points="
  903.981,1410.9 903.981,47.2441 
  "/>
<polyline clip-path="url(#clip192)" style="stroke:#000000; stroke-linecap:butt; stroke-linejoin:round; stroke-width:2; stroke-opacity:0.1; fill:none" points="
  1300.91,1410.9 1300.91,47.2441 
  "/>
<polyline clip-path="url(#clip192)" style="stroke:#000000; stroke-linecap:butt; stroke-linejoin:round; stroke-width:2; stroke-opacity:0.1; fill:none" points="
  1697.83,1410.9 1697.83,47.2441 
  "/>
<polyline clip-path="url(#clip192)" style="stroke:#000000; stroke-linecap:butt; stroke-linejoin:round; stroke-width:2; stroke-opacity:0.1; fill:none" points="
  2094.75,1410.9 2094.75,47.2441 
  "/>
<polyline clip-path="url(#clip190)" style="stroke:#000000; stroke-linecap:butt; stroke-linejoin:round; stroke-width:4; stroke-opacity:1; fill:none" points="
  249.056,1410.9 2352.76,1410.9 
  "/>
<polyline clip-path="url(#clip190)" style="stroke:#000000; stroke-linecap:butt; stroke-linejoin:round; stroke-width:4; stroke-opacity:1; fill:none" points="
  507.057,1410.9 507.057,1392 
  "/>
<polyline clip-path="url(#clip190)" style="stroke:#000000; stroke-linecap:butt; stroke-linejoin:round; stroke-width:4; stroke-opacity:1; fill:none" points="
  903.981,1410.9 903.981,1392 
  "/>
<polyline clip-path="url(#clip190)" style="stroke:#000000; stroke-linecap:butt; stroke-linejoin:round; stroke-width:4; stroke-opacity:1; fill:none" points="
  1300.91,1410.9 1300.91,1392 
  "/>
<polyline clip-path="url(#clip190)" style="stroke:#000000; stroke-linecap:butt; stroke-linejoin:round; stroke-width:4; stroke-opacity:1; fill:none" points="
  1697.83,1410.9 1697.83,1392 
  "/>
<polyline clip-path="url(#clip190)" style="stroke:#000000; stroke-linecap:butt; stroke-linejoin:round; stroke-width:4; stroke-opacity:1; fill:none" points="
  2094.75,1410.9 2094.75,1392 
  "/>
<path clip-path="url(#clip190)" d="M426.045 1485.02 L433.684 1485.02 L433.684 1458.66 L425.374 1460.32 L425.374 1456.06 L433.638 1454.4 L438.314 1454.4 L438.314 1485.02 L445.953 1485.02 L445.953 1488.96 L426.045 1488.96 L426.045 1485.02 Z" fill="#000000" fill-rule="evenodd" fill-opacity="1" /><path clip-path="url(#clip190)" d="M465.397 1457.48 Q461.786 1457.48 459.957 1461.04 Q458.152 1464.58 458.152 1471.71 Q458.152 1478.82 459.957 1482.38 Q461.786 1485.92 465.397 1485.92 Q469.031 1485.92 470.837 1482.38 Q472.665 1478.82 472.665 1471.71 Q472.665 1464.58 470.837 1461.04 Q469.031 1457.48 465.397 1457.48 M465.397 1453.77 Q471.207 1453.77 474.263 1458.38 Q477.341 1462.96 477.341 1471.71 Q477.341 1480.44 474.263 1485.04 Q471.207 1489.63 465.397 1489.63 Q459.587 1489.63 456.508 1485.04 Q453.453 1480.44 453.453 1471.71 Q453.453 1462.96 456.508 1458.38 Q459.587 1453.77 465.397 1453.77 Z" fill="#000000" fill-rule="evenodd" fill-opacity="1" /><path clip-path="url(#clip190)" d="M477.341 1447.87 L501.453 1447.87 L501.453 1451.07 L477.341 1451.07 L477.341 1447.87 Z" fill="#000000" fill-rule="evenodd" fill-opacity="1" /><path clip-path="url(#clip190)" d="M520.091 1436.78 L510.499 1451.77 L520.091 1451.77 L520.091 1436.78 M519.095 1433.47 L523.872 1433.47 L523.872 1451.77 L527.878 1451.77 L527.878 1454.93 L523.872 1454.93 L523.872 1461.55 L520.091 1461.55 L520.091 1454.93 L507.415 1454.93 L507.415 1451.26 L519.095 1433.47 Z" fill="#000000" fill-rule="evenodd" fill-opacity="1" /><path clip-path="url(#clip190)" d="M534.16 1456.77 L538.128 1456.77 L538.128 1461.55 L534.16 1461.55 L534.16 1456.77 Z" fill="#000000" fill-rule="evenodd" fill-opacity="1" /><path clip-path="url(#clip190)" d="M554.999 1445.99 Q552.441 1445.99 550.936 1447.74 Q549.45 1449.49 549.45 1452.54 Q549.45 1455.57 550.936 1457.33 Q552.441 1459.08 554.999 1459.08 Q557.556 1459.08 559.042 1457.33 Q560.547 1455.57 560.547 1452.54 Q560.547 1449.49 559.042 1447.74 Q557.556 1445.99 554.999 1445.99 M562.541 1434.09 L562.541 1437.55 Q561.111 1436.87 559.644 1436.51 Q558.196 1436.16 556.767 1436.16 Q553.005 1436.16 551.011 1438.69 Q549.037 1441.23 548.754 1446.37 Q549.864 1444.73 551.538 1443.87 Q553.212 1442.98 555.224 1442.98 Q559.456 1442.98 561.901 1445.56 Q564.365 1448.12 564.365 1452.54 Q564.365 1456.86 561.807 1459.48 Q559.249 1462.09 554.999 1462.09 Q550.127 1462.09 547.551 1458.37 Q544.974 1454.62 544.974 1447.53 Q544.974 1440.88 548.134 1436.93 Q551.293 1432.96 556.616 1432.96 Q558.045 1432.96 559.494 1433.24 Q560.961 1433.52 562.541 1434.09 Z" fill="#000000" fill-rule="evenodd" fill-opacity="1" /><path clip-path="url(#clip190)" d="M579.035 1435.97 Q576.101 1435.97 574.615 1438.86 Q573.148 1441.74 573.148 1447.53 Q573.148 1453.31 574.615 1456.2 Q576.101 1459.08 579.035 1459.08 Q581.988 1459.08 583.455 1456.2 Q584.941 1453.31 584.941 1447.53 Q584.941 1441.74 583.455 1438.86 Q581.988 1435.97 579.035 1435.97 M579.035 1432.96 Q583.756 1432.96 586.238 1436.7 Q588.74 1440.43 588.74 1447.53 Q588.74 1454.62 586.238 1458.37 Q583.756 1462.09 579.035 1462.09 Q574.314 1462.09 571.813 1458.37 Q569.33 1454.62 569.33 1447.53 Q569.33 1440.43 571.813 1436.7 Q574.314 1432.96 579.035 1432.96 Z" fill="#000000" fill-rule="evenodd" fill-opacity="1" /><path clip-path="url(#clip190)" d="M823.374 1485.02 L831.013 1485.02 L831.013 1458.66 L822.703 1460.32 L822.703 1456.06 L830.967 1454.4 L835.643 1454.4 L835.643 1485.02 L843.281 1485.02 L843.281 1488.96 L823.374 1488.96 L823.374 1485.02 Z" fill="#000000" fill-rule="evenodd" fill-opacity="1" /><path clip-path="url(#clip190)" d="M862.726 1457.48 Q859.115 1457.48 857.286 1461.04 Q855.48 1464.58 855.48 1471.71 Q855.48 1478.82 857.286 1482.38 Q859.115 1485.92 862.726 1485.92 Q866.36 1485.92 868.166 1482.38 Q869.994 1478.82 869.994 1471.71 Q869.994 1464.58 868.166 1461.04 Q866.36 1457.48 862.726 1457.48 M862.726 1453.77 Q868.536 1453.77 871.592 1458.38 Q874.67 1462.96 874.67 1471.71 Q874.67 1480.44 871.592 1485.04 Q868.536 1489.63 862.726 1489.63 Q856.916 1489.63 853.837 1485.04 Q850.781 1480.44 850.781 1471.71 Q850.781 1462.96 853.837 1458.38 Q856.916 1453.77 862.726 1453.77 Z" fill="#000000" fill-rule="evenodd" fill-opacity="1" /><path clip-path="url(#clip190)" d="M874.67 1447.87 L898.782 1447.87 L898.782 1451.07 L874.67 1451.07 L874.67 1447.87 Z" fill="#000000" fill-rule="evenodd" fill-opacity="1" /><path clip-path="url(#clip190)" d="M917.42 1436.78 L907.828 1451.77 L917.42 1451.77 L917.42 1436.78 M916.423 1433.47 L921.201 1433.47 L921.201 1451.77 L925.207 1451.77 L925.207 1454.93 L921.201 1454.93 L921.201 1461.55 L917.42 1461.55 L917.42 1454.93 L904.744 1454.93 L904.744 1451.26 L916.423 1433.47 Z" fill="#000000" fill-rule="evenodd" fill-opacity="1" /><path clip-path="url(#clip190)" d="M931.488 1456.77 L935.457 1456.77 L935.457 1461.55 L931.488 1461.55 L931.488 1456.77 Z" fill="#000000" fill-rule="evenodd" fill-opacity="1" /><path clip-path="url(#clip190)" d="M943.77 1433.47 L958.685 1433.47 L958.685 1436.66 L947.249 1436.66 L947.249 1443.55 Q948.077 1443.27 948.904 1443.13 Q949.732 1442.98 950.56 1442.98 Q955.261 1442.98 958.007 1445.56 Q960.753 1448.14 960.753 1452.54 Q960.753 1457.07 957.932 1459.59 Q955.111 1462.09 949.977 1462.09 Q948.209 1462.09 946.365 1461.79 Q944.541 1461.49 942.585 1460.89 L942.585 1457.07 Q944.278 1457.99 946.083 1458.44 Q947.889 1458.89 949.901 1458.89 Q953.155 1458.89 955.055 1457.18 Q956.954 1455.47 956.954 1452.54 Q956.954 1449.6 955.055 1447.89 Q953.155 1446.18 949.901 1446.18 Q948.378 1446.18 946.854 1446.52 Q945.35 1446.86 943.77 1447.57 L943.77 1433.47 Z" fill="#000000" fill-rule="evenodd" fill-opacity="1" /><path clip-path="url(#clip190)" d="M968.276 1433.47 L983.191 1433.47 L983.191 1436.66 L971.756 1436.66 L971.756 1443.55 Q972.583 1443.27 973.411 1443.13 Q974.239 1442.98 975.066 1442.98 Q979.768 1442.98 982.514 1445.56 Q985.26 1448.14 985.26 1452.54 Q985.26 1457.07 982.439 1459.59 Q979.618 1462.09 974.483 1462.09 Q972.715 1462.09 970.872 1461.79 Q969.048 1461.49 967.092 1460.89 L967.092 1457.07 Q968.784 1457.99 970.59 1458.44 Q972.395 1458.89 974.408 1458.89 Q977.662 1458.89 979.561 1457.18 Q981.461 1455.47 981.461 1452.54 Q981.461 1449.6 979.561 1447.89 Q977.662 1446.18 974.408 1446.18 Q972.884 1446.18 971.361 1446.52 Q969.856 1446.86 968.276 1447.57 L968.276 1433.47 Z" fill="#000000" fill-rule="evenodd" fill-opacity="1" /><path clip-path="url(#clip190)" d="M1219.89 1485.02 L1227.53 1485.02 L1227.53 1458.66 L1219.22 1460.32 L1219.22 1456.06 L1227.49 1454.4 L1232.16 1454.4 L1232.16 1485.02 L1239.8 1485.02 L1239.8 1488.96 L1219.89 1488.96 L1219.89 1485.02 Z" fill="#000000" fill-rule="evenodd" fill-opacity="1" /><path clip-path="url(#clip190)" d="M1259.25 1457.48 Q1255.63 1457.48 1253.81 1461.04 Q1252 1464.58 1252 1471.71 Q1252 1478.82 1253.81 1482.38 Q1255.63 1485.92 1259.25 1485.92 Q1262.88 1485.92 1264.69 1482.38 Q1266.51 1478.82 1266.51 1471.71 Q1266.51 1464.58 1264.69 1461.04 Q1262.88 1457.48 1259.25 1457.48 M1259.25 1453.77 Q1265.06 1453.77 1268.11 1458.38 Q1271.19 1462.96 1271.19 1471.71 Q1271.19 1480.44 1268.11 1485.04 Q1265.06 1489.63 1259.25 1489.63 Q1253.44 1489.63 1250.36 1485.04 Q1247.3 1480.44 1247.3 1471.71 Q1247.3 1462.96 1250.36 1458.38 Q1253.44 1453.77 1259.25 1453.77 Z" fill="#000000" fill-rule="evenodd" fill-opacity="1" /><path clip-path="url(#clip190)" d="M1271.19 1447.87 L1295.3 1447.87 L1295.3 1451.07 L1271.19 1451.07 L1271.19 1447.87 Z" fill="#000000" fill-rule="evenodd" fill-opacity="1" /><path clip-path="url(#clip190)" d="M1313.94 1436.78 L1304.35 1451.77 L1313.94 1451.77 L1313.94 1436.78 M1312.94 1433.47 L1317.72 1433.47 L1317.72 1451.77 L1321.73 1451.77 L1321.73 1454.93 L1317.72 1454.93 L1317.72 1461.55 L1313.94 1461.55 L1313.94 1454.93 L1301.26 1454.93 L1301.26 1451.26 L1312.94 1433.47 Z" fill="#000000" fill-rule="evenodd" fill-opacity="1" /><path clip-path="url(#clip190)" d="M1328.01 1456.77 L1331.98 1456.77 L1331.98 1461.55 L1328.01 1461.55 L1328.01 1456.77 Z" fill="#000000" fill-rule="evenodd" fill-opacity="1" /><path clip-path="url(#clip190)" d="M1340.29 1433.47 L1355.2 1433.47 L1355.2 1436.66 L1343.77 1436.66 L1343.77 1443.55 Q1344.6 1443.27 1345.42 1443.13 Q1346.25 1442.98 1347.08 1442.98 Q1351.78 1442.98 1354.53 1445.56 Q1357.27 1448.14 1357.27 1452.54 Q1357.27 1457.07 1354.45 1459.59 Q1351.63 1462.09 1346.5 1462.09 Q1344.73 1462.09 1342.89 1461.79 Q1341.06 1461.49 1339.11 1460.89 L1339.11 1457.07 Q1340.8 1457.99 1342.6 1458.44 Q1344.41 1458.89 1346.42 1458.89 Q1349.68 1458.89 1351.57 1457.18 Q1353.47 1455.47 1353.47 1452.54 Q1353.47 1449.6 1351.57 1447.89 Q1349.68 1446.18 1346.42 1446.18 Q1344.9 1446.18 1343.37 1446.52 Q1341.87 1446.86 1340.29 1447.57 L1340.29 1433.47 Z" fill="#000000" fill-rule="evenodd" fill-opacity="1" /><path clip-path="url(#clip190)" d="M1372.88 1435.97 Q1369.95 1435.97 1368.46 1438.86 Q1367 1441.74 1367 1447.53 Q1367 1453.31 1368.46 1456.2 Q1369.95 1459.08 1372.88 1459.08 Q1375.84 1459.08 1377.3 1456.2 Q1378.79 1453.31 1378.79 1447.53 Q1378.79 1441.74 1377.3 1438.86 Q1375.84 1435.97 1372.88 1435.97 M1372.88 1432.96 Q1377.6 1432.96 1380.09 1436.7 Q1382.59 1440.43 1382.59 1447.53 Q1382.59 1454.62 1380.09 1458.37 Q1377.6 1462.09 1372.88 1462.09 Q1368.16 1462.09 1365.66 1458.37 Q1363.18 1454.62 1363.18 1447.53 Q1363.18 1440.43 1365.66 1436.7 Q1368.16 1432.96 1372.88 1432.96 Z" fill="#000000" fill-rule="evenodd" fill-opacity="1" /><path clip-path="url(#clip190)" d="M1617.22 1485.02 L1624.86 1485.02 L1624.86 1458.66 L1616.55 1460.32 L1616.55 1456.06 L1624.82 1454.4 L1629.49 1454.4 L1629.49 1485.02 L1637.13 1485.02 L1637.13 1488.96 L1617.22 1488.96 L1617.22 1485.02 Z" fill="#000000" fill-rule="evenodd" fill-opacity="1" /><path clip-path="url(#clip190)" d="M1656.57 1457.48 Q1652.96 1457.48 1651.14 1461.04 Q1649.33 1464.58 1649.33 1471.71 Q1649.33 1478.82 1651.14 1482.38 Q1652.96 1485.92 1656.57 1485.92 Q1660.21 1485.92 1662.01 1482.38 Q1663.84 1478.82 1663.84 1471.71 Q1663.84 1464.58 1662.01 1461.04 Q1660.21 1457.48 1656.57 1457.48 M1656.57 1453.77 Q1662.39 1453.77 1665.44 1458.38 Q1668.52 1462.96 1668.52 1471.71 Q1668.52 1480.44 1665.44 1485.04 Q1662.39 1489.63 1656.57 1489.63 Q1650.76 1489.63 1647.69 1485.04 Q1644.63 1480.44 1644.63 1471.71 Q1644.63 1462.96 1647.69 1458.38 Q1650.76 1453.77 1656.57 1453.77 Z" fill="#000000" fill-rule="evenodd" fill-opacity="1" /><path clip-path="url(#clip190)" d="M1668.52 1447.87 L1692.63 1447.87 L1692.63 1451.07 L1668.52 1451.07 L1668.52 1447.87 Z" fill="#000000" fill-rule="evenodd" fill-opacity="1" /><path clip-path="url(#clip190)" d="M1711.27 1436.78 L1701.68 1451.77 L1711.27 1451.77 L1711.27 1436.78 M1710.27 1433.47 L1715.05 1433.47 L1715.05 1451.77 L1719.06 1451.77 L1719.06 1454.93 L1715.05 1454.93 L1715.05 1461.55 L1711.27 1461.55 L1711.27 1454.93 L1698.59 1454.93 L1698.59 1451.26 L1710.27 1433.47 Z" fill="#000000" fill-rule="evenodd" fill-opacity="1" /><path clip-path="url(#clip190)" d="M1725.34 1456.77 L1729.31 1456.77 L1729.31 1461.55 L1725.34 1461.55 L1725.34 1456.77 Z" fill="#000000" fill-rule="evenodd" fill-opacity="1" /><path clip-path="url(#clip190)" d="M1748.02 1436.78 L1738.43 1451.77 L1748.02 1451.77 L1748.02 1436.78 M1747.02 1433.47 L1751.8 1433.47 L1751.8 1451.77 L1755.81 1451.77 L1755.81 1454.93 L1751.8 1454.93 L1751.8 1461.55 L1748.02 1461.55 L1748.02 1454.93 L1735.34 1454.93 L1735.34 1451.26 L1747.02 1433.47 Z" fill="#000000" fill-rule="evenodd" fill-opacity="1" /><path clip-path="url(#clip190)" d="M1762.13 1433.47 L1777.04 1433.47 L1777.04 1436.66 L1765.6 1436.66 L1765.6 1443.55 Q1766.43 1443.27 1767.26 1443.13 Q1768.09 1442.98 1768.92 1442.98 Q1773.62 1442.98 1776.36 1445.56 Q1779.11 1448.14 1779.11 1452.54 Q1779.11 1457.07 1776.29 1459.59 Q1773.47 1462.09 1768.33 1462.09 Q1766.56 1462.09 1764.72 1461.79 Q1762.9 1461.49 1760.94 1460.89 L1760.94 1457.07 Q1762.63 1457.99 1764.44 1458.44 Q1766.24 1458.89 1768.26 1458.89 Q1771.51 1458.89 1773.41 1457.18 Q1775.31 1455.47 1775.31 1452.54 Q1775.31 1449.6 1773.41 1447.89 Q1771.51 1446.18 1768.26 1446.18 Q1766.73 1446.18 1765.21 1446.52 Q1763.71 1446.86 1762.13 1447.57 L1762.13 1433.47 Z" fill="#000000" fill-rule="evenodd" fill-opacity="1" /><path clip-path="url(#clip190)" d="M2013.74 1485.02 L2021.38 1485.02 L2021.38 1458.66 L2013.07 1460.32 L2013.07 1456.06 L2021.34 1454.4 L2026.01 1454.4 L2026.01 1485.02 L2033.65 1485.02 L2033.65 1488.96 L2013.74 1488.96 L2013.74 1485.02 Z" fill="#000000" fill-rule="evenodd" fill-opacity="1" /><path clip-path="url(#clip190)" d="M2053.1 1457.48 Q2049.48 1457.48 2047.66 1461.04 Q2045.85 1464.58 2045.85 1471.71 Q2045.85 1478.82 2047.66 1482.38 Q2049.48 1485.92 2053.1 1485.92 Q2056.73 1485.92 2058.53 1482.38 Q2060.36 1478.82 2060.36 1471.71 Q2060.36 1464.58 2058.53 1461.04 Q2056.73 1457.48 2053.1 1457.48 M2053.1 1453.77 Q2058.91 1453.77 2061.96 1458.38 Q2065.04 1462.96 2065.04 1471.71 Q2065.04 1480.44 2061.96 1485.04 Q2058.91 1489.63 2053.1 1489.63 Q2047.28 1489.63 2044.21 1485.04 Q2041.15 1480.44 2041.15 1471.71 Q2041.15 1462.96 2044.21 1458.38 Q2047.28 1453.77 2053.1 1453.77 Z" fill="#000000" fill-rule="evenodd" fill-opacity="1" /><path clip-path="url(#clip190)" d="M2065.04 1447.87 L2089.15 1447.87 L2089.15 1451.07 L2065.04 1451.07 L2065.04 1447.87 Z" fill="#000000" fill-rule="evenodd" fill-opacity="1" /><path clip-path="url(#clip190)" d="M2107.79 1436.78 L2098.2 1451.77 L2107.79 1451.77 L2107.79 1436.78 M2106.79 1433.47 L2111.57 1433.47 L2111.57 1451.77 L2115.58 1451.77 L2115.58 1454.93 L2111.57 1454.93 L2111.57 1461.55 L2107.79 1461.55 L2107.79 1454.93 L2095.11 1454.93 L2095.11 1451.26 L2106.79 1433.47 Z" fill="#000000" fill-rule="evenodd" fill-opacity="1" /><path clip-path="url(#clip190)" d="M2121.86 1456.77 L2125.83 1456.77 L2125.83 1461.55 L2121.86 1461.55 L2121.86 1456.77 Z" fill="#000000" fill-rule="evenodd" fill-opacity="1" /><path clip-path="url(#clip190)" d="M2144.54 1436.78 L2134.95 1451.77 L2144.54 1451.77 L2144.54 1436.78 M2143.54 1433.47 L2148.32 1433.47 L2148.32 1451.77 L2152.33 1451.77 L2152.33 1454.93 L2148.32 1454.93 L2148.32 1461.55 L2144.54 1461.55 L2144.54 1454.93 L2131.86 1454.93 L2131.86 1451.26 L2143.54 1433.47 Z" fill="#000000" fill-rule="evenodd" fill-opacity="1" /><path clip-path="url(#clip190)" d="M2166.73 1435.97 Q2163.8 1435.97 2162.31 1438.86 Q2160.85 1441.74 2160.85 1447.53 Q2160.85 1453.31 2162.31 1456.2 Q2163.8 1459.08 2166.73 1459.08 Q2169.69 1459.08 2171.15 1456.2 Q2172.64 1453.31 2172.64 1447.53 Q2172.64 1441.74 2171.15 1438.86 Q2169.69 1435.97 2166.73 1435.97 M2166.73 1432.96 Q2171.45 1432.96 2173.94 1436.7 Q2176.44 1440.43 2176.44 1447.53 Q2176.44 1454.62 2173.94 1458.37 Q2171.45 1462.09 2166.73 1462.09 Q2162.01 1462.09 2159.51 1458.37 Q2157.03 1454.62 2157.03 1447.53 Q2157.03 1440.43 2159.51 1436.7 Q2162.01 1432.96 2166.73 1432.96 Z" fill="#000000" fill-rule="evenodd" fill-opacity="1" /><path clip-path="url(#clip190)" d="M1225.19 1524.66 L1231.07 1524.66 L1231.07 1553.91 L1248.55 1538.54 L1256.03 1538.54 L1237.12 1555.22 L1256.82 1574.19 L1249.18 1574.19 L1231.07 1556.78 L1231.07 1574.19 L1225.19 1574.19 L1225.19 1524.66 Z" fill="#000000" fill-rule="evenodd" fill-opacity="1" /><path clip-path="url(#clip190)" d="M1290.24 1585.01 L1290.24 1589.56 L1256.38 1589.56 L1256.38 1585.01 L1290.24 1585.01 Z" fill="#000000" fill-rule="evenodd" fill-opacity="1" /><path clip-path="url(#clip190)" d="M1309.56 1542.64 Q1304.85 1542.64 1302.12 1546.34 Q1299.38 1550 1299.38 1556.39 Q1299.38 1562.79 1302.08 1566.48 Q1304.82 1570.14 1309.56 1570.14 Q1314.24 1570.14 1316.98 1566.45 Q1319.72 1562.76 1319.72 1556.39 Q1319.72 1550.06 1316.98 1546.37 Q1314.24 1542.64 1309.56 1542.64 M1309.56 1537.68 Q1317.2 1537.68 1321.56 1542.64 Q1325.92 1547.61 1325.92 1556.39 Q1325.92 1565.15 1321.56 1570.14 Q1317.2 1575.11 1309.56 1575.11 Q1301.89 1575.11 1297.53 1570.14 Q1293.2 1565.15 1293.2 1556.39 Q1293.2 1547.61 1297.53 1542.64 Q1301.89 1537.68 1309.56 1537.68 Z" fill="#000000" fill-rule="evenodd" fill-opacity="1" /><path clip-path="url(#clip190)" d="M1353.68 1524.66 L1353.68 1529.53 L1348.08 1529.53 Q1344.92 1529.53 1343.68 1530.8 Q1342.47 1532.08 1342.47 1535.39 L1342.47 1538.54 L1352.12 1538.54 L1352.12 1543.09 L1342.47 1543.09 L1342.47 1574.19 L1336.59 1574.19 L1336.59 1543.09 L1330.98 1543.09 L1330.98 1538.54 L1336.59 1538.54 L1336.59 1536.05 Q1336.59 1530.1 1339.35 1527.4 Q1342.12 1524.66 1348.14 1524.66 L1353.68 1524.66 Z" fill="#000000" fill-rule="evenodd" fill-opacity="1" /><path clip-path="url(#clip190)" d="M1376.63 1524.66 L1376.63 1529.53 L1371.02 1529.53 Q1367.87 1529.53 1366.63 1530.8 Q1365.42 1532.08 1365.42 1535.39 L1365.42 1538.54 L1375.07 1538.54 L1375.07 1543.09 L1365.42 1543.09 L1365.42 1574.19 L1359.53 1574.19 L1359.53 1543.09 L1353.93 1543.09 L1353.93 1538.54 L1359.53 1538.54 L1359.53 1536.05 Q1359.53 1530.1 1362.3 1527.4 Q1365.07 1524.66 1371.09 1524.66 L1376.63 1524.66 Z" fill="#000000" fill-rule="evenodd" fill-opacity="1" /><polyline clip-path="url(#clip192)" style="stroke:#000000; stroke-linecap:butt; stroke-linejoin:round; stroke-width:2; stroke-opacity:0.1; fill:none" points="
  249.056,1402.93 2352.76,1402.93 
  "/>
<polyline clip-path="url(#clip192)" style="stroke:#000000; stroke-linecap:butt; stroke-linejoin:round; stroke-width:2; stroke-opacity:0.1; fill:none" points="
  249.056,1027.15 2352.76,1027.15 
  "/>
<polyline clip-path="url(#clip192)" style="stroke:#000000; stroke-linecap:butt; stroke-linejoin:round; stroke-width:2; stroke-opacity:0.1; fill:none" points="
  249.056,651.373 2352.76,651.373 
  "/>
<polyline clip-path="url(#clip192)" style="stroke:#000000; stroke-linecap:butt; stroke-linejoin:round; stroke-width:2; stroke-opacity:0.1; fill:none" points="
  249.056,275.596 2352.76,275.596 
  "/>
<polyline clip-path="url(#clip190)" style="stroke:#000000; stroke-linecap:butt; stroke-linejoin:round; stroke-width:4; stroke-opacity:1; fill:none" points="
  249.056,1410.9 249.056,47.2441 
  "/>
<polyline clip-path="url(#clip190)" style="stroke:#000000; stroke-linecap:butt; stroke-linejoin:round; stroke-width:4; stroke-opacity:1; fill:none" points="
  249.056,1402.93 267.954,1402.93 
  "/>
<polyline clip-path="url(#clip190)" style="stroke:#000000; stroke-linecap:butt; stroke-linejoin:round; stroke-width:4; stroke-opacity:1; fill:none" points="
  249.056,1027.15 267.954,1027.15 
  "/>
<polyline clip-path="url(#clip190)" style="stroke:#000000; stroke-linecap:butt; stroke-linejoin:round; stroke-width:4; stroke-opacity:1; fill:none" points="
  249.056,651.373 267.954,651.373 
  "/>
<polyline clip-path="url(#clip190)" style="stroke:#000000; stroke-linecap:butt; stroke-linejoin:round; stroke-width:4; stroke-opacity:1; fill:none" points="
  249.056,275.596 267.954,275.596 
  "/>
<path clip-path="url(#clip190)" d="M130.88 1401.57 Q134.237 1402.29 136.112 1404.56 Q138.01 1406.83 138.01 1410.16 Q138.01 1415.28 134.492 1418.08 Q130.973 1420.88 124.492 1420.88 Q122.316 1420.88 120.001 1420.44 Q117.709 1420.02 115.256 1419.17 L115.256 1414.65 Q117.2 1415.79 119.515 1416.36 Q121.83 1416.94 124.353 1416.94 Q128.751 1416.94 131.042 1415.21 Q133.357 1413.47 133.357 1410.16 Q133.357 1407.11 131.205 1405.39 Q129.075 1403.66 125.255 1403.66 L121.228 1403.66 L121.228 1399.81 L125.441 1399.81 Q128.89 1399.81 130.718 1398.45 Q132.547 1397.06 132.547 1394.47 Q132.547 1391.8 130.649 1390.39 Q128.774 1388.96 125.255 1388.96 Q123.334 1388.96 121.135 1389.37 Q118.936 1389.79 116.297 1390.67 L116.297 1386.5 Q118.959 1385.76 121.274 1385.39 Q123.612 1385.02 125.672 1385.02 Q130.996 1385.02 134.098 1387.45 Q137.2 1389.86 137.2 1393.98 Q137.2 1396.85 135.556 1398.84 Q133.913 1400.81 130.88 1401.57 Z" fill="#000000" fill-rule="evenodd" fill-opacity="1" /><path clip-path="url(#clip190)" d="M146.876 1414.33 L151.76 1414.33 L151.76 1420.21 L146.876 1420.21 L146.876 1414.33 Z" fill="#000000" fill-rule="evenodd" fill-opacity="1" /><path clip-path="url(#clip190)" d="M174.792 1389.72 L162.987 1408.17 L174.792 1408.17 L174.792 1389.72 M173.565 1385.65 L179.445 1385.65 L179.445 1408.17 L184.376 1408.17 L184.376 1412.06 L179.445 1412.06 L179.445 1420.21 L174.792 1420.21 L174.792 1412.06 L159.19 1412.06 L159.19 1407.55 L173.565 1385.65 Z" fill="#000000" fill-rule="evenodd" fill-opacity="1" /><path clip-path="url(#clip190)" d="M192.153 1385.65 L210.51 1385.65 L210.51 1389.58 L196.436 1389.58 L196.436 1398.05 Q197.454 1397.71 198.473 1397.55 Q199.491 1397.36 200.51 1397.36 Q206.297 1397.36 209.676 1400.53 Q213.056 1403.7 213.056 1409.12 Q213.056 1414.7 209.584 1417.8 Q206.112 1420.88 199.792 1420.88 Q197.616 1420.88 195.348 1420.51 Q193.102 1420.14 190.695 1419.4 L190.695 1414.7 Q192.778 1415.83 195 1416.39 Q197.223 1416.94 199.7 1416.94 Q203.704 1416.94 206.042 1414.84 Q208.38 1412.73 208.38 1409.12 Q208.38 1405.51 206.042 1403.4 Q203.704 1401.3 199.7 1401.3 Q197.825 1401.3 195.95 1401.71 Q194.098 1402.13 192.153 1403.01 L192.153 1385.65 Z" fill="#000000" fill-rule="evenodd" fill-opacity="1" /><path clip-path="url(#clip190)" d="M129.885 1025.8 Q133.242 1026.51 135.117 1028.78 Q137.015 1031.05 137.015 1034.38 Q137.015 1039.5 133.496 1042.3 Q129.978 1045.1 123.496 1045.1 Q121.32 1045.1 119.006 1044.66 Q116.714 1044.25 114.26 1043.39 L114.26 1038.87 Q116.205 1040.01 118.519 1040.59 Q120.834 1041.17 123.357 1041.17 Q127.755 1041.17 130.047 1039.43 Q132.362 1037.69 132.362 1034.38 Q132.362 1031.33 130.209 1029.62 Q128.08 1027.88 124.26 1027.88 L120.232 1027.88 L120.232 1024.04 L124.445 1024.04 Q127.894 1024.04 129.723 1022.67 Q131.552 1021.28 131.552 1018.69 Q131.552 1016.03 129.654 1014.62 Q127.779 1013.18 124.26 1013.18 Q122.339 1013.18 120.14 1013.6 Q117.941 1014.01 115.302 1014.89 L115.302 1010.73 Q117.964 1009.99 120.279 1009.62 Q122.617 1009.25 124.677 1009.25 Q130.001 1009.25 133.103 1011.68 Q136.204 1014.08 136.204 1018.2 Q136.204 1021.07 134.561 1023.06 Q132.917 1025.03 129.885 1025.8 Z" fill="#000000" fill-rule="evenodd" fill-opacity="1" /><path clip-path="url(#clip190)" d="M145.88 1038.55 L150.765 1038.55 L150.765 1044.43 L145.88 1044.43 L145.88 1038.55 Z" fill="#000000" fill-rule="evenodd" fill-opacity="1" /><path clip-path="url(#clip190)" d="M160.996 1009.87 L179.352 1009.87 L179.352 1013.81 L165.278 1013.81 L165.278 1022.28 Q166.297 1021.93 167.315 1021.77 Q168.334 1021.58 169.352 1021.58 Q175.139 1021.58 178.519 1024.75 Q181.899 1027.93 181.899 1033.34 Q181.899 1038.92 178.426 1042.02 Q174.954 1045.1 168.635 1045.1 Q166.459 1045.1 164.19 1044.73 Q161.945 1044.36 159.538 1043.62 L159.538 1038.92 Q161.621 1040.06 163.843 1040.61 Q166.065 1041.17 168.542 1041.17 Q172.547 1041.17 174.885 1039.06 Q177.223 1036.95 177.223 1033.34 Q177.223 1029.73 174.885 1027.62 Q172.547 1025.52 168.542 1025.52 Q166.667 1025.52 164.792 1025.93 Q162.94 1026.35 160.996 1027.23 L160.996 1009.87 Z" fill="#000000" fill-rule="evenodd" fill-opacity="1" /><path clip-path="url(#clip190)" d="M201.112 1012.95 Q197.5 1012.95 195.672 1016.51 Q193.866 1020.06 193.866 1027.18 Q193.866 1034.29 195.672 1037.86 Q197.5 1041.4 201.112 1041.4 Q204.746 1041.4 206.551 1037.86 Q208.38 1034.29 208.38 1027.18 Q208.38 1020.06 206.551 1016.51 Q204.746 1012.95 201.112 1012.95 M201.112 1009.25 Q206.922 1009.25 209.977 1013.85 Q213.056 1018.43 213.056 1027.18 Q213.056 1035.91 209.977 1040.52 Q206.922 1045.1 201.112 1045.1 Q195.301 1045.1 192.223 1040.52 Q189.167 1035.91 189.167 1027.18 Q189.167 1018.43 192.223 1013.85 Q195.301 1009.25 201.112 1009.25 Z" fill="#000000" fill-rule="evenodd" fill-opacity="1" /><path clip-path="url(#clip190)" d="M130.88 650.019 Q134.237 650.736 136.112 653.005 Q138.01 655.273 138.01 658.607 Q138.01 663.722 134.492 666.523 Q130.973 669.324 124.492 669.324 Q122.316 669.324 120.001 668.884 Q117.709 668.468 115.256 667.611 L115.256 663.097 Q117.2 664.232 119.515 664.81 Q121.83 665.389 124.353 665.389 Q128.751 665.389 131.042 663.653 Q133.357 661.917 133.357 658.607 Q133.357 655.551 131.205 653.838 Q129.075 652.102 125.255 652.102 L121.228 652.102 L121.228 648.259 L125.441 648.259 Q128.89 648.259 130.718 646.894 Q132.547 645.505 132.547 642.912 Q132.547 640.25 130.649 638.838 Q128.774 637.403 125.255 637.403 Q123.334 637.403 121.135 637.82 Q118.936 638.236 116.297 639.116 L116.297 634.949 Q118.959 634.209 121.274 633.838 Q123.612 633.468 125.672 633.468 Q130.996 633.468 134.098 635.898 Q137.2 638.306 137.2 642.426 Q137.2 645.297 135.556 647.287 Q133.913 649.255 130.88 650.019 Z" fill="#000000" fill-rule="evenodd" fill-opacity="1" /><path clip-path="url(#clip190)" d="M146.876 662.773 L151.76 662.773 L151.76 668.653 L146.876 668.653 L146.876 662.773 Z" fill="#000000" fill-rule="evenodd" fill-opacity="1" /><path clip-path="url(#clip190)" d="M161.991 634.093 L180.348 634.093 L180.348 638.028 L166.274 638.028 L166.274 646.5 Q167.292 646.153 168.311 645.991 Q169.329 645.806 170.348 645.806 Q176.135 645.806 179.514 648.977 Q182.894 652.148 182.894 657.565 Q182.894 663.144 179.422 666.245 Q175.95 669.324 169.63 669.324 Q167.454 669.324 165.186 668.954 Q162.94 668.583 160.533 667.843 L160.533 663.144 Q162.616 664.278 164.839 664.833 Q167.061 665.389 169.538 665.389 Q173.542 665.389 175.88 663.283 Q178.218 661.176 178.218 657.565 Q178.218 653.954 175.88 651.847 Q173.542 649.741 169.538 649.741 Q167.663 649.741 165.788 650.158 Q163.936 650.574 161.991 651.454 L161.991 634.093 Z" fill="#000000" fill-rule="evenodd" fill-opacity="1" /><path clip-path="url(#clip190)" d="M192.153 634.093 L210.51 634.093 L210.51 638.028 L196.436 638.028 L196.436 646.5 Q197.454 646.153 198.473 645.991 Q199.491 645.806 200.51 645.806 Q206.297 645.806 209.676 648.977 Q213.056 652.148 213.056 657.565 Q213.056 663.144 209.584 666.245 Q206.112 669.324 199.792 669.324 Q197.616 669.324 195.348 668.954 Q193.102 668.583 190.695 667.843 L190.695 663.144 Q192.778 664.278 195 664.833 Q197.223 665.389 199.7 665.389 Q203.704 665.389 206.042 663.283 Q208.38 661.176 208.38 657.565 Q208.38 653.954 206.042 651.847 Q203.704 649.741 199.7 649.741 Q197.825 649.741 195.95 650.158 Q194.098 650.574 192.153 651.454 L192.153 634.093 Z" fill="#000000" fill-rule="evenodd" fill-opacity="1" /><path clip-path="url(#clip190)" d="M129.885 274.241 Q133.242 274.959 135.117 277.228 Q137.015 279.496 137.015 282.829 Q137.015 287.945 133.496 290.746 Q129.978 293.547 123.496 293.547 Q121.32 293.547 119.006 293.107 Q116.714 292.69 114.26 291.834 L114.26 287.32 Q116.205 288.454 118.519 289.033 Q120.834 289.612 123.357 289.612 Q127.755 289.612 130.047 287.876 Q132.362 286.14 132.362 282.829 Q132.362 279.774 130.209 278.061 Q128.08 276.325 124.26 276.325 L120.232 276.325 L120.232 272.482 L124.445 272.482 Q127.894 272.482 129.723 271.116 Q131.552 269.728 131.552 267.135 Q131.552 264.473 129.654 263.061 Q127.779 261.626 124.26 261.626 Q122.339 261.626 120.14 262.042 Q117.941 262.459 115.302 263.339 L115.302 259.172 Q117.964 258.431 120.279 258.061 Q122.617 257.691 124.677 257.691 Q130.001 257.691 133.103 260.121 Q136.204 262.529 136.204 266.649 Q136.204 269.519 134.561 271.51 Q132.917 273.478 129.885 274.241 Z" fill="#000000" fill-rule="evenodd" fill-opacity="1" /><path clip-path="url(#clip190)" d="M145.88 286.996 L150.765 286.996 L150.765 292.876 L145.88 292.876 L145.88 286.996 Z" fill="#000000" fill-rule="evenodd" fill-opacity="1" /><path clip-path="url(#clip190)" d="M171.528 273.732 Q168.38 273.732 166.528 275.885 Q164.7 278.038 164.7 281.788 Q164.7 285.515 166.528 287.69 Q168.38 289.843 171.528 289.843 Q174.677 289.843 176.505 287.69 Q178.357 285.515 178.357 281.788 Q178.357 278.038 176.505 275.885 Q174.677 273.732 171.528 273.732 M180.811 259.079 L180.811 263.339 Q179.051 262.505 177.246 262.066 Q175.464 261.626 173.704 261.626 Q169.075 261.626 166.621 264.751 Q164.19 267.876 163.843 274.195 Q165.209 272.181 167.269 271.116 Q169.329 270.028 171.806 270.028 Q177.014 270.028 180.024 273.2 Q183.056 276.348 183.056 281.788 Q183.056 287.112 179.908 290.329 Q176.76 293.547 171.528 293.547 Q165.533 293.547 162.362 288.964 Q159.19 284.357 159.19 275.63 Q159.19 267.436 163.079 262.575 Q166.968 257.691 173.519 257.691 Q175.278 257.691 177.061 258.038 Q178.866 258.385 180.811 259.079 Z" fill="#000000" fill-rule="evenodd" fill-opacity="1" /><path clip-path="url(#clip190)" d="M201.112 261.394 Q197.5 261.394 195.672 264.959 Q193.866 268.501 193.866 275.63 Q193.866 282.737 195.672 286.302 Q197.5 289.843 201.112 289.843 Q204.746 289.843 206.551 286.302 Q208.38 282.737 208.38 275.63 Q208.38 268.501 206.551 264.959 Q204.746 261.394 201.112 261.394 M201.112 257.691 Q206.922 257.691 209.977 262.297 Q213.056 266.88 213.056 275.63 Q213.056 284.357 209.977 288.964 Q206.922 293.547 201.112 293.547 Q195.301 293.547 192.223 288.964 Q189.167 284.357 189.167 275.63 Q189.167 266.88 192.223 262.297 Q195.301 257.691 201.112 257.691 Z" fill="#000000" fill-rule="evenodd" fill-opacity="1" /><path clip-path="url(#clip190)" d="M35.1993 829.203 Q31.2526 827.007 29.3747 823.951 Q27.4968 820.896 27.4968 816.758 Q27.4968 811.188 31.4117 808.164 Q35.2948 805.141 42.4881 805.141 L64.0042 805.141 L64.0042 811.029 L42.679 811.029 Q37.5546 811.029 35.072 812.843 Q32.5894 814.657 32.5894 818.381 Q32.5894 822.933 35.6131 825.574 Q38.6368 828.216 43.8567 828.216 L64.0042 828.216 L64.0042 834.105 L42.679 834.105 Q37.5228 834.105 35.072 835.919 Q32.5894 837.733 32.5894 841.521 Q32.5894 846.008 35.6449 848.65 Q38.6686 851.292 43.8567 851.292 L64.0042 851.292 L64.0042 857.18 L28.3562 857.18 L28.3562 851.292 L33.8944 851.292 Q30.616 849.287 29.0564 846.486 Q27.4968 843.685 27.4968 839.834 Q27.4968 835.951 29.4702 833.245 Q31.4436 830.508 35.1993 829.203 Z" fill="#000000" fill-rule="evenodd" fill-opacity="1" /><path clip-path="url(#clip190)" d="M28.3562 793.459 L28.3562 787.603 L64.0042 787.603 L64.0042 793.459 L28.3562 793.459 M14.479 793.459 L14.479 787.603 L21.895 787.603 L21.895 793.459 L14.479 793.459 Z" fill="#000000" fill-rule="evenodd" fill-opacity="1" /><path clip-path="url(#clip190)" d="M42.4881 745.717 L64.0042 745.717 L64.0042 751.573 L42.679 751.573 Q37.6183 751.573 35.1038 753.547 Q32.5894 755.52 32.5894 759.467 Q32.5894 764.209 35.6131 766.946 Q38.6368 769.684 43.8567 769.684 L64.0042 769.684 L64.0042 775.572 L28.3562 775.572 L28.3562 769.684 L33.8944 769.684 Q30.6797 767.583 29.0883 764.75 Q27.4968 761.886 27.4968 758.162 Q27.4968 752.019 31.3163 748.868 Q35.1038 745.717 42.4881 745.717 Z" fill="#000000" fill-rule="evenodd" fill-opacity="1" /><path clip-path="url(#clip190)" d="M74.8259 706.95 L79.3773 706.95 L79.3773 740.815 L74.8259 740.815 L74.8259 706.95 Z" fill="#000000" fill-rule="evenodd" fill-opacity="1" /><path clip-path="url(#clip190)" d="M33.7671 677.986 L14.479 677.986 L14.479 672.129 L64.0042 672.129 L64.0042 677.986 L58.657 677.986 Q61.8398 679.832 63.3994 682.664 Q64.9272 685.465 64.9272 689.412 Q64.9272 695.873 59.771 699.947 Q54.6147 703.989 46.212 703.989 Q37.8093 703.989 32.6531 699.947 Q27.4968 695.873 27.4968 689.412 Q27.4968 685.465 29.0564 682.664 Q30.5842 679.832 33.7671 677.986 M46.212 697.942 Q52.6732 697.942 56.3653 695.3 Q60.0256 692.627 60.0256 687.98 Q60.0256 683.333 56.3653 680.659 Q52.6732 677.986 46.212 677.986 Q39.7508 677.986 36.0905 680.659 Q32.3984 683.333 32.3984 687.98 Q32.3984 692.627 36.0905 695.3 Q39.7508 697.942 46.212 697.942 Z" fill="#000000" fill-rule="evenodd" fill-opacity="1" /><path clip-path="url(#clip190)" d="M28.3562 660.066 L28.3562 654.21 L64.0042 654.21 L64.0042 660.066 L28.3562 660.066 M14.479 660.066 L14.479 654.21 L21.895 654.21 L21.895 660.066 L14.479 660.066 Z" fill="#000000" fill-rule="evenodd" fill-opacity="1" /><path clip-path="url(#clip190)" d="M14.479 623.909 L19.3487 623.909 L19.3487 629.511 Q19.3487 632.662 20.6219 633.903 Q21.895 635.113 25.2052 635.113 L28.3562 635.113 L28.3562 625.468 L32.9077 625.468 L32.9077 635.113 L64.0042 635.113 L64.0042 641.001 L32.9077 641.001 L32.9077 646.603 L28.3562 646.603 L28.3562 641.001 L25.8736 641.001 Q19.9216 641.001 17.2162 638.232 Q14.479 635.463 14.479 629.447 L14.479 623.909 Z" fill="#000000" fill-rule="evenodd" fill-opacity="1" /><path clip-path="url(#clip190)" d="M14.479 600.961 L19.3487 600.961 L19.3487 606.562 Q19.3487 609.713 20.6219 610.955 Q21.895 612.164 25.2052 612.164 L28.3562 612.164 L28.3562 602.52 L32.9077 602.52 L32.9077 612.164 L64.0042 612.164 L64.0042 618.052 L32.9077 618.052 L32.9077 623.654 L28.3562 623.654 L28.3562 618.052 L25.8736 618.052 Q19.9216 618.052 17.2162 615.283 Q14.479 612.514 14.479 606.499 L14.479 600.961 Z" fill="#000000" fill-rule="evenodd" fill-opacity="1" /><polyline clip-path="url(#clip192)" style="stroke:#009af9; stroke-linecap:butt; stroke-linejoin:round; stroke-width:20; stroke-opacity:1; fill:none" stroke-dasharray="80, 50" points="
  308.595,170.057 1300.91,85.838 2293.22,1372.3 
  "/>
<path clip-path="url(#clip190)" d="
M1996.46 196.379 L2282.63 196.379 L2282.63 92.6992 L1996.46 92.6992  Z
  " fill="#ffffff" fill-rule="evenodd" fill-opacity="1"/>
<polyline clip-path="url(#clip190)" style="stroke:#000000; stroke-linecap:butt; stroke-linejoin:round; stroke-width:4; stroke-opacity:1; fill:none" points="
  1996.46,196.379 2282.63,196.379 2282.63,92.6992 1996.46,92.6992 1996.46,196.379 
  "/>
<polyline clip-path="url(#clip190)" style="stroke:#009af9; stroke-linecap:butt; stroke-linejoin:round; stroke-width:4; stroke-opacity:1; fill:none" stroke-dasharray="16, 10" points="
  2019.83,144.539 2160.08,144.539 
  "/>
<path clip-path="url(#clip190)" d="M2197.3 164.227 Q2195.49 168.856 2193.78 170.268 Q2192.06 171.68 2189.19 171.68 L2185.79 171.68 L2185.79 168.115 L2188.29 168.115 Q2190.05 168.115 2191.02 167.282 Q2192 166.449 2193.18 163.347 L2193.94 161.403 L2183.45 135.893 L2187.97 135.893 L2196.07 156.171 L2204.17 135.893 L2208.68 135.893 L2197.3 164.227 Z" fill="#000000" fill-rule="evenodd" fill-opacity="1" /><path clip-path="url(#clip190)" d="M2215.98 157.884 L2223.62 157.884 L2223.62 131.518 L2215.31 133.185 L2215.31 128.926 L2223.57 127.259 L2228.24 127.259 L2228.24 157.884 L2235.88 157.884 L2235.88 161.819 L2215.98 161.819 L2215.98 157.884 Z" fill="#000000" fill-rule="evenodd" fill-opacity="1" /></svg>
