<?xml version="1.0" encoding="utf-8"?>
<svg xmlns="http://www.w3.org/2000/svg" xmlns:xlink="http://www.w3.org/1999/xlink" width="600" height="400" viewBox="0 0 2400 1600">
<defs>
  <clipPath id="clip340">
    <rect x="0" y="0" width="2400" height="1600"/>
  </clipPath>
</defs>
<path clip-path="url(#clip340)" d="
M0 1600 L2400 1600 L2400 0 L0 0  Z
  " fill="#ffffff" fill-rule="evenodd" fill-opacity="1"/>
<defs>
  <clipPath id="clip341">
    <rect x="480" y="0" width="1681" height="1600"/>
  </clipPath>
</defs>
<path clip-path="url(#clip340)" d="
M249.056 1410.9 L2352.76 1410.9 L2352.76 47.2441 L249.056 47.2441  Z
  " fill="#ffffff" fill-rule="evenodd" fill-opacity="1"/>
<defs>
  <clipPath id="clip342">
    <rect x="249" y="47" width="2105" height="1365"/>
  </clipPath>
</defs>
<polyline clip-path="url(#clip342)" style="stroke:#000000; stroke-linecap:butt; stroke-linejoin:round; stroke-width:2; stroke-opacity:0.1; fill:none" points="
  903.981,1410.9 903.981,47.2441 
  "/>
<polyline clip-path="url(#clip342)" style="stroke:#000000; stroke-linecap:butt; stroke-linejoin:round; stroke-width:2; stroke-opacity:0.1; fill:none" points="
  2094.75,1410.9 2094.75,47.2441 
  "/>
<polyline clip-path="url(#clip340)" style="stroke:#000000; stroke-linecap:butt; stroke-linejoin:round; stroke-width:4; stroke-opacity:1; fill:none" points="
  249.056,1410.9 2352.76,1410.9 
  "/>
<polyline clip-path="url(#clip340)" style="stroke:#000000; stroke-linecap:butt; stroke-linejoin:round; stroke-width:4; stroke-opacity:1; fill:none" points="
  903.981,1410.9 903.981,1392 
  "/>
<polyline clip-path="url(#clip340)" style="stroke:#000000; stroke-linecap:butt; stroke-linejoin:round; stroke-width:4; stroke-opacity:1; fill:none" points="
  2094.75,1410.9 2094.75,1392 
  "/>
<path clip-path="url(#clip340)" d="M835.721 1485.02 L843.36 1485.02 L843.36 1458.66 L835.05 1460.32 L835.05 1456.06 L843.314 1454.4 L847.99 1454.4 L847.99 1485.02 L855.629 1485.02 L855.629 1488.96 L835.721 1488.96 L835.721 1485.02 Z" fill="#000000" fill-rule="evenodd" fill-opacity="1" /><path clip-path="url(#clip340)" d="M875.073 1457.48 Q871.462 1457.48 869.633 1461.04 Q867.828 1464.58 867.828 1471.71 Q867.828 1478.82 869.633 1482.38 Q871.462 1485.92 875.073 1485.92 Q878.707 1485.92 880.513 1482.38 Q882.342 1478.82 882.342 1471.71 Q882.342 1464.58 880.513 1461.04 Q878.707 1457.48 875.073 1457.48 M875.073 1453.77 Q880.883 1453.77 883.939 1458.38 Q887.018 1462.96 887.018 1471.71 Q887.018 1480.44 883.939 1485.04 Q880.883 1489.63 875.073 1489.63 Q869.263 1489.63 866.184 1485.04 Q863.129 1480.44 863.129 1471.71 Q863.129 1462.96 866.184 1458.38 Q869.263 1453.77 875.073 1453.77 Z" fill="#000000" fill-rule="evenodd" fill-opacity="1" /><path clip-path="url(#clip340)" d="M887.018 1447.87 L911.129 1447.87 L911.129 1451.07 L887.018 1451.07 L887.018 1447.87 Z" fill="#000000" fill-rule="evenodd" fill-opacity="1" /><path clip-path="url(#clip340)" d="M919.367 1433.47 L934.281 1433.47 L934.281 1436.66 L922.846 1436.66 L922.846 1443.55 Q923.674 1443.27 924.501 1443.13 Q925.329 1442.98 926.156 1442.98 Q930.858 1442.98 933.604 1445.56 Q936.35 1448.14 936.35 1452.54 Q936.35 1457.07 933.529 1459.59 Q930.708 1462.09 925.573 1462.09 Q923.806 1462.09 921.962 1461.79 Q920.138 1461.49 918.182 1460.89 L918.182 1457.07 Q919.875 1457.99 921.68 1458.44 Q923.486 1458.89 925.498 1458.89 Q928.752 1458.89 930.652 1457.18 Q932.551 1455.47 932.551 1452.54 Q932.551 1449.6 930.652 1447.89 Q928.752 1446.18 925.498 1446.18 Q923.975 1446.18 922.451 1446.52 Q920.947 1446.86 919.367 1447.57 L919.367 1433.47 Z" fill="#000000" fill-rule="evenodd" fill-opacity="1" /><path clip-path="url(#clip340)" d="M943.836 1456.77 L947.804 1456.77 L947.804 1461.55 L943.836 1461.55 L943.836 1456.77 Z" fill="#000000" fill-rule="evenodd" fill-opacity="1" /><path clip-path="url(#clip340)" d="M956.738 1458.35 L962.944 1458.35 L962.944 1436.93 L956.192 1438.28 L956.192 1434.82 L962.907 1433.47 L966.706 1433.47 L966.706 1458.35 L972.913 1458.35 L972.913 1461.55 L956.738 1461.55 L956.738 1458.35 Z" fill="#000000" fill-rule="evenodd" fill-opacity="1" /><path clip-path="url(#clip340)" d="M2026.03 1485.02 L2033.67 1485.02 L2033.67 1458.66 L2025.36 1460.32 L2025.36 1456.06 L2033.63 1454.4 L2038.3 1454.4 L2038.3 1485.02 L2045.94 1485.02 L2045.94 1488.96 L2026.03 1488.96 L2026.03 1485.02 Z" fill="#000000" fill-rule="evenodd" fill-opacity="1" /><path clip-path="url(#clip340)" d="M2065.39 1457.48 Q2061.77 1457.48 2059.95 1461.04 Q2058.14 1464.58 2058.14 1471.71 Q2058.14 1478.82 2059.95 1482.38 Q2061.77 1485.92 2065.39 1485.92 Q2069.02 1485.92 2070.83 1482.38 Q2072.65 1478.82 2072.65 1471.71 Q2072.65 1464.58 2070.83 1461.04 Q2069.02 1457.48 2065.39 1457.48 M2065.39 1453.77 Q2071.2 1453.77 2074.25 1458.38 Q2077.33 1462.96 2077.33 1471.71 Q2077.33 1480.44 2074.25 1485.04 Q2071.2 1489.63 2065.39 1489.63 Q2059.58 1489.63 2056.5 1485.04 Q2053.44 1480.44 2053.44 1471.71 Q2053.44 1462.96 2056.5 1458.38 Q2059.58 1453.77 2065.39 1453.77 Z" fill="#000000" fill-rule="evenodd" fill-opacity="1" /><path clip-path="url(#clip340)" d="M2077.33 1447.87 L2101.44 1447.87 L2101.44 1451.07 L2077.33 1451.07 L2077.33 1447.87 Z" fill="#000000" fill-rule="evenodd" fill-opacity="1" /><path clip-path="url(#clip340)" d="M2120.08 1436.78 L2110.49 1451.77 L2120.08 1451.77 L2120.08 1436.78 M2119.08 1433.47 L2123.86 1433.47 L2123.86 1451.77 L2127.87 1451.77 L2127.87 1454.93 L2123.86 1454.93 L2123.86 1461.55 L2120.08 1461.55 L2120.08 1454.93 L2107.4 1454.93 L2107.4 1451.26 L2119.08 1433.47 Z" fill="#000000" fill-rule="evenodd" fill-opacity="1" /><path clip-path="url(#clip340)" d="M2134.15 1456.77 L2138.12 1456.77 L2138.12 1461.55 L2134.15 1461.55 L2134.15 1456.77 Z" fill="#000000" fill-rule="evenodd" fill-opacity="1" /><path clip-path="url(#clip340)" d="M2154.52 1448.21 Q2151.81 1448.21 2150.25 1449.66 Q2148.71 1451.11 2148.71 1453.65 Q2148.71 1456.19 2150.25 1457.63 Q2151.81 1459.08 2154.52 1459.08 Q2157.23 1459.08 2158.79 1457.63 Q2160.35 1456.17 2160.35 1453.65 Q2160.35 1451.11 2158.79 1449.66 Q2157.24 1448.21 2154.52 1448.21 M2150.72 1446.59 Q2148.27 1445.99 2146.9 1444.32 Q2145.55 1442.64 2145.55 1440.24 Q2145.55 1436.87 2147.93 1434.91 Q2150.34 1432.96 2154.52 1432.96 Q2158.71 1432.96 2161.1 1434.91 Q2163.49 1436.87 2163.49 1440.24 Q2163.49 1442.64 2162.12 1444.32 Q2160.76 1445.99 2158.34 1446.59 Q2161.08 1447.23 2162.6 1449.1 Q2164.15 1450.96 2164.15 1453.65 Q2164.15 1457.73 2161.65 1459.91 Q2159.16 1462.09 2154.52 1462.09 Q2149.87 1462.09 2147.37 1459.91 Q2144.89 1457.73 2144.89 1453.65 Q2144.89 1450.96 2146.43 1449.1 Q2147.97 1447.23 2150.72 1446.59 M2149.33 1440.59 Q2149.33 1442.78 2150.68 1444 Q2152.05 1445.22 2154.52 1445.22 Q2156.96 1445.22 2158.34 1444 Q2159.73 1442.78 2159.73 1440.59 Q2159.73 1438.41 2158.34 1437.19 Q2156.96 1435.97 2154.52 1435.97 Q2152.05 1435.97 2150.68 1437.19 Q2149.33 1438.41 2149.33 1440.59 Z" fill="#000000" fill-rule="evenodd" fill-opacity="1" /><path clip-path="url(#clip340)" d="M1187.72 1538.54 L1193.93 1538.54 L1205.07 1568.46 L1216.21 1538.54 L1222.42 1538.54 L1209.05 1574.19 L1201.09 1574.19 L1187.72 1538.54 Z" fill="#000000" fill-rule="evenodd" fill-opacity="1" /><path clip-path="url(#clip340)" d="M1257.59 1585.01 L1257.59 1589.56 L1223.72 1589.56 L1223.72 1585.01 L1257.59 1585.01 Z" fill="#000000" fill-rule="evenodd" fill-opacity="1" /><path clip-path="url(#clip340)" d="M1276.91 1542.64 Q1272.2 1542.64 1269.46 1546.34 Q1266.72 1550 1266.72 1556.39 Q1266.72 1562.79 1269.43 1566.48 Q1272.16 1570.14 1276.91 1570.14 Q1281.59 1570.14 1284.32 1566.45 Q1287.06 1562.76 1287.06 1556.39 Q1287.06 1550.06 1284.32 1546.37 Q1281.59 1542.64 1276.91 1542.64 M1276.91 1537.68 Q1284.55 1537.68 1288.91 1542.64 Q1293.27 1547.61 1293.27 1556.39 Q1293.27 1565.15 1288.91 1570.14 Q1284.55 1575.11 1276.91 1575.11 Q1269.24 1575.11 1264.88 1570.14 Q1260.55 1565.15 1260.55 1556.39 Q1260.55 1547.61 1264.88 1542.64 Q1269.24 1537.68 1276.91 1537.68 Z" fill="#000000" fill-rule="evenodd" fill-opacity="1" /><path clip-path="url(#clip340)" d="M1308.64 1568.84 L1308.64 1587.74 L1302.75 1587.74 L1302.75 1538.54 L1308.64 1538.54 L1308.64 1543.95 Q1310.49 1540.77 1313.29 1539.24 Q1316.12 1537.68 1320.03 1537.68 Q1326.53 1537.68 1330.57 1542.83 Q1334.64 1547.99 1334.64 1556.39 Q1334.64 1564.8 1330.57 1569.95 Q1326.53 1575.11 1320.03 1575.11 Q1316.12 1575.11 1313.29 1573.58 Q1310.49 1572.02 1308.64 1568.84 M1328.56 1556.39 Q1328.56 1549.93 1325.89 1546.27 Q1323.25 1542.58 1318.6 1542.58 Q1313.96 1542.58 1311.28 1546.27 Q1308.64 1549.93 1308.64 1556.39 Q1308.64 1562.85 1311.28 1566.55 Q1313.96 1570.21 1318.6 1570.21 Q1323.25 1570.21 1325.89 1566.55 Q1328.56 1562.85 1328.56 1556.39 Z" fill="#000000" fill-rule="evenodd" fill-opacity="1" /><path clip-path="url(#clip340)" d="M1374.84 1554.9 L1374.84 1557.76 L1347.92 1557.76 Q1348.3 1563.81 1351.55 1566.99 Q1354.82 1570.14 1360.65 1570.14 Q1364.02 1570.14 1367.17 1569.32 Q1370.36 1568.49 1373.47 1566.83 L1373.47 1572.37 Q1370.32 1573.71 1367.01 1574.41 Q1363.7 1575.11 1360.3 1575.11 Q1351.77 1575.11 1346.77 1570.14 Q1341.81 1565.18 1341.81 1556.71 Q1341.81 1547.96 1346.52 1542.83 Q1351.26 1537.68 1359.28 1537.68 Q1366.47 1537.68 1370.64 1542.33 Q1374.84 1546.94 1374.84 1554.9 M1368.99 1553.18 Q1368.92 1548.37 1366.28 1545.51 Q1363.67 1542.64 1359.34 1542.64 Q1354.44 1542.64 1351.48 1545.41 Q1348.55 1548.18 1348.11 1553.21 L1368.99 1553.18 Z" fill="#000000" fill-rule="evenodd" fill-opacity="1" /><path clip-path="url(#clip340)" d="M1414.09 1552.67 L1414.09 1574.19 L1408.23 1574.19 L1408.23 1552.86 Q1408.23 1547.8 1406.26 1545.29 Q1404.28 1542.77 1400.34 1542.77 Q1395.6 1542.77 1392.86 1545.79 Q1390.12 1548.82 1390.12 1554.04 L1390.12 1574.19 L1384.23 1574.19 L1384.23 1538.54 L1390.12 1538.54 L1390.12 1544.08 Q1392.22 1540.86 1395.05 1539.27 Q1397.92 1537.68 1401.64 1537.68 Q1407.79 1537.68 1410.94 1541.5 Q1414.09 1545.29 1414.09 1552.67 Z" fill="#000000" fill-rule="evenodd" fill-opacity="1" /><polyline clip-path="url(#clip342)" style="stroke:#000000; stroke-linecap:butt; stroke-linejoin:round; stroke-width:2; stroke-opacity:0.1; fill:none" points="
  249.056,1357.78 2352.76,1357.78 
  "/>
<polyline clip-path="url(#clip342)" style="stroke:#000000; stroke-linecap:butt; stroke-linejoin:round; stroke-width:2; stroke-opacity:0.1; fill:none" points="
  249.056,1081.76 2352.76,1081.76 
  "/>
<polyline clip-path="url(#clip342)" style="stroke:#000000; stroke-linecap:butt; stroke-linejoin:round; stroke-width:2; stroke-opacity:0.1; fill:none" points="
  249.056,805.74 2352.76,805.74 
  "/>
<polyline clip-path="url(#clip342)" style="stroke:#000000; stroke-linecap:butt; stroke-linejoin:round; stroke-width:2; stroke-opacity:0.1; fill:none" points="
  249.056,529.719 2352.76,529.719 
  "/>
<polyline clip-path="url(#clip342)" style="stroke:#000000; stroke-linecap:butt; stroke-linejoin:round; stroke-width:2; stroke-opacity:0.1; fill:none" points="
  249.056,253.699 2352.76,253.699 
  "/>
<polyline clip-path="url(#clip340)" style="stroke:#000000; stroke-linecap:butt; stroke-linejoin:round; stroke-width:4; stroke-opacity:1; fill:none" points="
  249.056,1410.9 249.056,47.2441 
  "/>
<polyline clip-path="url(#clip340)" style="stroke:#000000; stroke-linecap:butt; stroke-linejoin:round; stroke-width:4; stroke-opacity:1; fill:none" points="
  249.056,1357.78 267.954,1357.78 
  "/>
<polyline clip-path="url(#clip340)" style="stroke:#000000; stroke-linecap:butt; stroke-linejoin:round; stroke-width:4; stroke-opacity:1; fill:none" points="
  249.056,1081.76 267.954,1081.76 
  "/>
<polyline clip-path="url(#clip340)" style="stroke:#000000; stroke-linecap:butt; stroke-linejoin:round; stroke-width:4; stroke-opacity:1; fill:none" points="
  249.056,805.74 267.954,805.74 
  "/>
<polyline clip-path="url(#clip340)" style="stroke:#000000; stroke-linecap:butt; stroke-linejoin:round; stroke-width:4; stroke-opacity:1; fill:none" points="
  249.056,529.719 267.954,529.719 
  "/>
<polyline clip-path="url(#clip340)" style="stroke:#000000; stroke-linecap:butt; stroke-linejoin:round; stroke-width:4; stroke-opacity:1; fill:none" points="
  249.056,253.699 267.954,253.699 
  "/>
<path clip-path="url(#clip340)" d="M129.885 1356.43 Q133.242 1357.14 135.117 1359.41 Q137.015 1361.68 137.015 1365.02 Q137.015 1370.13 133.496 1372.93 Q129.978 1375.73 123.496 1375.73 Q121.32 1375.73 119.006 1375.29 Q116.714 1374.88 114.26 1374.02 L114.26 1369.51 Q116.205 1370.64 118.519 1371.22 Q120.834 1371.8 123.357 1371.8 Q127.755 1371.8 130.047 1370.06 Q132.362 1368.33 132.362 1365.02 Q132.362 1361.96 130.209 1360.25 Q128.08 1358.51 124.26 1358.51 L120.232 1358.51 L120.232 1354.67 L124.445 1354.67 Q127.894 1354.67 129.723 1353.3 Q131.552 1351.91 131.552 1349.32 Q131.552 1346.66 129.654 1345.25 Q127.779 1343.81 124.26 1343.81 Q122.339 1343.81 120.14 1344.23 Q117.941 1344.64 115.302 1345.52 L115.302 1341.36 Q117.964 1340.62 120.279 1340.25 Q122.617 1339.88 124.677 1339.88 Q130.001 1339.88 133.103 1342.31 Q136.204 1344.71 136.204 1348.83 Q136.204 1351.71 134.561 1353.7 Q132.917 1355.66 129.885 1356.43 Z" fill="#000000" fill-rule="evenodd" fill-opacity="1" /><path clip-path="url(#clip340)" d="M145.88 1369.18 L150.765 1369.18 L150.765 1375.06 L145.88 1375.06 L145.88 1369.18 Z" fill="#000000" fill-rule="evenodd" fill-opacity="1" /><path clip-path="url(#clip340)" d="M160.996 1340.5 L179.352 1340.5 L179.352 1344.44 L165.278 1344.44 L165.278 1352.91 Q166.297 1352.56 167.315 1352.4 Q168.334 1352.21 169.352 1352.21 Q175.139 1352.21 178.519 1355.39 Q181.899 1358.56 181.899 1363.97 Q181.899 1369.55 178.426 1372.65 Q174.954 1375.73 168.635 1375.73 Q166.459 1375.73 164.19 1375.36 Q161.945 1374.99 159.538 1374.25 L159.538 1369.55 Q161.621 1370.69 163.843 1371.24 Q166.065 1371.8 168.542 1371.8 Q172.547 1371.8 174.885 1369.69 Q177.223 1367.58 177.223 1363.97 Q177.223 1360.36 174.885 1358.26 Q172.547 1356.15 168.542 1356.15 Q166.667 1356.15 164.792 1356.57 Q162.94 1356.98 160.996 1357.86 L160.996 1340.5 Z" fill="#000000" fill-rule="evenodd" fill-opacity="1" /><path clip-path="url(#clip340)" d="M201.112 1343.58 Q197.5 1343.58 195.672 1347.14 Q193.866 1350.69 193.866 1357.82 Q193.866 1364.92 195.672 1368.49 Q197.5 1372.03 201.112 1372.03 Q204.746 1372.03 206.551 1368.49 Q208.38 1364.92 208.38 1357.82 Q208.38 1350.69 206.551 1347.14 Q204.746 1343.58 201.112 1343.58 M201.112 1339.88 Q206.922 1339.88 209.977 1344.48 Q213.056 1349.07 213.056 1357.82 Q213.056 1366.54 209.977 1371.15 Q206.922 1375.73 201.112 1375.73 Q195.301 1375.73 192.223 1371.15 Q189.167 1366.54 189.167 1357.82 Q189.167 1349.07 192.223 1344.48 Q195.301 1339.88 201.112 1339.88 Z" fill="#000000" fill-rule="evenodd" fill-opacity="1" /><path clip-path="url(#clip340)" d="M130.88 1080.41 Q134.237 1081.12 136.112 1083.39 Q138.01 1085.66 138.01 1088.99 Q138.01 1094.11 134.492 1096.91 Q130.973 1099.71 124.492 1099.71 Q122.316 1099.71 120.001 1099.27 Q117.709 1098.86 115.256 1098 L115.256 1093.49 Q117.2 1094.62 119.515 1095.2 Q121.83 1095.78 124.353 1095.78 Q128.751 1095.78 131.042 1094.04 Q133.357 1092.3 133.357 1088.99 Q133.357 1085.94 131.205 1084.23 Q129.075 1082.49 125.255 1082.49 L121.228 1082.49 L121.228 1078.65 L125.441 1078.65 Q128.89 1078.65 130.718 1077.28 Q132.547 1075.89 132.547 1073.3 Q132.547 1070.64 130.649 1069.23 Q128.774 1067.79 125.255 1067.79 Q123.334 1067.79 121.135 1068.21 Q118.936 1068.62 116.297 1069.5 L116.297 1065.34 Q118.959 1064.6 121.274 1064.23 Q123.612 1063.86 125.672 1063.86 Q130.996 1063.86 134.098 1066.29 Q137.2 1068.69 137.2 1072.81 Q137.2 1075.68 135.556 1077.68 Q133.913 1079.64 130.88 1080.41 Z" fill="#000000" fill-rule="evenodd" fill-opacity="1" /><path clip-path="url(#clip340)" d="M146.876 1093.16 L151.76 1093.16 L151.76 1099.04 L146.876 1099.04 L146.876 1093.16 Z" fill="#000000" fill-rule="evenodd" fill-opacity="1" /><path clip-path="url(#clip340)" d="M161.991 1064.48 L180.348 1064.48 L180.348 1068.42 L166.274 1068.42 L166.274 1076.89 Q167.292 1076.54 168.311 1076.38 Q169.329 1076.19 170.348 1076.19 Q176.135 1076.19 179.514 1079.36 Q182.894 1082.54 182.894 1087.95 Q182.894 1093.53 179.422 1096.63 Q175.95 1099.71 169.63 1099.71 Q167.454 1099.71 165.186 1099.34 Q162.94 1098.97 160.533 1098.23 L160.533 1093.53 Q162.616 1094.67 164.839 1095.22 Q167.061 1095.78 169.538 1095.78 Q173.542 1095.78 175.88 1093.67 Q178.218 1091.56 178.218 1087.95 Q178.218 1084.34 175.88 1082.24 Q173.542 1080.13 169.538 1080.13 Q167.663 1080.13 165.788 1080.55 Q163.936 1080.96 161.991 1081.84 L161.991 1064.48 Z" fill="#000000" fill-rule="evenodd" fill-opacity="1" /><path clip-path="url(#clip340)" d="M192.153 1064.48 L210.51 1064.48 L210.51 1068.42 L196.436 1068.42 L196.436 1076.89 Q197.454 1076.54 198.473 1076.38 Q199.491 1076.19 200.51 1076.19 Q206.297 1076.19 209.676 1079.36 Q213.056 1082.54 213.056 1087.95 Q213.056 1093.53 209.584 1096.63 Q206.112 1099.71 199.792 1099.71 Q197.616 1099.71 195.348 1099.34 Q193.102 1098.97 190.695 1098.23 L190.695 1093.53 Q192.778 1094.67 195 1095.22 Q197.223 1095.78 199.7 1095.78 Q203.704 1095.78 206.042 1093.67 Q208.38 1091.56 208.38 1087.95 Q208.38 1084.34 206.042 1082.24 Q203.704 1080.13 199.7 1080.13 Q197.825 1080.13 195.95 1080.55 Q194.098 1080.96 192.153 1081.84 L192.153 1064.48 Z" fill="#000000" fill-rule="evenodd" fill-opacity="1" /><path clip-path="url(#clip340)" d="M129.885 804.386 Q133.242 805.103 135.117 807.372 Q137.015 809.64 137.015 812.974 Q137.015 818.089 133.496 820.89 Q129.978 823.691 123.496 823.691 Q121.32 823.691 119.006 823.251 Q116.714 822.835 114.26 821.978 L114.26 817.464 Q116.205 818.599 118.519 819.177 Q120.834 819.756 123.357 819.756 Q127.755 819.756 130.047 818.02 Q132.362 816.284 132.362 812.974 Q132.362 809.918 130.209 808.205 Q128.08 806.469 124.26 806.469 L120.232 806.469 L120.232 802.627 L124.445 802.627 Q127.894 802.627 129.723 801.261 Q131.552 799.872 131.552 797.279 Q131.552 794.617 129.654 793.205 Q127.779 791.77 124.26 791.77 Q122.339 791.77 120.14 792.187 Q117.941 792.603 115.302 793.483 L115.302 789.316 Q117.964 788.576 120.279 788.205 Q122.617 787.835 124.677 787.835 Q130.001 787.835 133.103 790.266 Q136.204 792.673 136.204 796.793 Q136.204 799.664 134.561 801.654 Q132.917 803.622 129.885 804.386 Z" fill="#000000" fill-rule="evenodd" fill-opacity="1" /><path clip-path="url(#clip340)" d="M145.88 817.14 L150.765 817.14 L150.765 823.02 L145.88 823.02 L145.88 817.14 Z" fill="#000000" fill-rule="evenodd" fill-opacity="1" /><path clip-path="url(#clip340)" d="M171.528 803.877 Q168.38 803.877 166.528 806.029 Q164.7 808.182 164.7 811.932 Q164.7 815.659 166.528 817.835 Q168.38 819.988 171.528 819.988 Q174.677 819.988 176.505 817.835 Q178.357 815.659 178.357 811.932 Q178.357 808.182 176.505 806.029 Q174.677 803.877 171.528 803.877 M180.811 789.224 L180.811 793.483 Q179.051 792.65 177.246 792.21 Q175.464 791.77 173.704 791.77 Q169.075 791.77 166.621 794.895 Q164.19 798.02 163.843 804.34 Q165.209 802.326 167.269 801.261 Q169.329 800.173 171.806 800.173 Q177.014 800.173 180.024 803.344 Q183.056 806.492 183.056 811.932 Q183.056 817.256 179.908 820.474 Q176.76 823.691 171.528 823.691 Q165.533 823.691 162.362 819.108 Q159.19 814.502 159.19 805.775 Q159.19 797.58 163.079 792.719 Q166.968 787.835 173.519 787.835 Q175.278 787.835 177.061 788.182 Q178.866 788.529 180.811 789.224 Z" fill="#000000" fill-rule="evenodd" fill-opacity="1" /><path clip-path="url(#clip340)" d="M201.112 791.539 Q197.5 791.539 195.672 795.103 Q193.866 798.645 193.866 805.775 Q193.866 812.881 195.672 816.446 Q197.5 819.988 201.112 819.988 Q204.746 819.988 206.551 816.446 Q208.38 812.881 208.38 805.775 Q208.38 798.645 206.551 795.103 Q204.746 791.539 201.112 791.539 M201.112 787.835 Q206.922 787.835 209.977 792.441 Q213.056 797.025 213.056 805.775 Q213.056 814.502 209.977 819.108 Q206.922 823.691 201.112 823.691 Q195.301 823.691 192.223 819.108 Q189.167 814.502 189.167 805.775 Q189.167 797.025 192.223 792.441 Q195.301 787.835 201.112 787.835 Z" fill="#000000" fill-rule="evenodd" fill-opacity="1" /><path clip-path="url(#clip340)" d="M130.88 528.365 Q134.237 529.083 136.112 531.351 Q138.01 533.62 138.01 536.953 Q138.01 542.069 134.492 544.87 Q130.973 547.671 124.492 547.671 Q122.316 547.671 120.001 547.231 Q117.709 546.814 115.256 545.958 L115.256 541.444 Q117.2 542.578 119.515 543.157 Q121.83 543.735 124.353 543.735 Q128.751 543.735 131.042 541.999 Q133.357 540.263 133.357 536.953 Q133.357 533.898 131.205 532.185 Q129.075 530.448 125.255 530.448 L121.228 530.448 L121.228 526.606 L125.441 526.606 Q128.89 526.606 130.718 525.24 Q132.547 523.851 132.547 521.259 Q132.547 518.597 130.649 517.185 Q128.774 515.749 125.255 515.749 Q123.334 515.749 121.135 516.166 Q118.936 516.583 116.297 517.462 L116.297 513.296 Q118.959 512.555 121.274 512.185 Q123.612 511.814 125.672 511.814 Q130.996 511.814 134.098 514.245 Q137.2 516.652 137.2 520.773 Q137.2 523.643 135.556 525.634 Q133.913 527.601 130.88 528.365 Z" fill="#000000" fill-rule="evenodd" fill-opacity="1" /><path clip-path="url(#clip340)" d="M146.876 541.12 L151.76 541.12 L151.76 546.999 L146.876 546.999 L146.876 541.12 Z" fill="#000000" fill-rule="evenodd" fill-opacity="1" /><path clip-path="url(#clip340)" d="M172.524 527.856 Q169.376 527.856 167.524 530.009 Q165.695 532.161 165.695 535.911 Q165.695 539.638 167.524 541.814 Q169.376 543.967 172.524 543.967 Q175.672 543.967 177.501 541.814 Q179.352 539.638 179.352 535.911 Q179.352 532.161 177.501 530.009 Q175.672 527.856 172.524 527.856 M181.806 513.203 L181.806 517.462 Q180.047 516.629 178.241 516.189 Q176.459 515.749 174.7 515.749 Q170.07 515.749 167.616 518.874 Q165.186 521.999 164.839 528.319 Q166.204 526.305 168.264 525.24 Q170.325 524.152 172.802 524.152 Q178.01 524.152 181.019 527.323 Q184.051 530.472 184.051 535.911 Q184.051 541.235 180.903 544.453 Q177.755 547.671 172.524 547.671 Q166.528 547.671 163.357 543.087 Q160.186 538.481 160.186 529.754 Q160.186 521.56 164.075 516.699 Q167.964 511.814 174.514 511.814 Q176.274 511.814 178.056 512.162 Q179.862 512.509 181.806 513.203 Z" fill="#000000" fill-rule="evenodd" fill-opacity="1" /><path clip-path="url(#clip340)" d="M192.153 512.439 L210.51 512.439 L210.51 516.374 L196.436 516.374 L196.436 524.847 Q197.454 524.499 198.473 524.337 Q199.491 524.152 200.51 524.152 Q206.297 524.152 209.676 527.323 Q213.056 530.495 213.056 535.911 Q213.056 541.49 209.584 544.592 Q206.112 547.671 199.792 547.671 Q197.616 547.671 195.348 547.3 Q193.102 546.93 190.695 546.189 L190.695 541.49 Q192.778 542.624 195 543.18 Q197.223 543.735 199.7 543.735 Q203.704 543.735 206.042 541.629 Q208.38 539.522 208.38 535.911 Q208.38 532.3 206.042 530.194 Q203.704 528.087 199.7 528.087 Q197.825 528.087 195.95 528.504 Q194.098 528.921 192.153 529.8 L192.153 512.439 Z" fill="#000000" fill-rule="evenodd" fill-opacity="1" /><path clip-path="url(#clip340)" d="M129.885 252.344 Q133.242 253.062 135.117 255.331 Q137.015 257.599 137.015 260.932 Q137.015 266.048 133.496 268.849 Q129.978 271.65 123.496 271.65 Q121.32 271.65 119.006 271.21 Q116.714 270.793 114.26 269.937 L114.26 265.423 Q116.205 266.557 118.519 267.136 Q120.834 267.715 123.357 267.715 Q127.755 267.715 130.047 265.979 Q132.362 264.243 132.362 260.932 Q132.362 257.877 130.209 256.164 Q128.08 254.428 124.26 254.428 L120.232 254.428 L120.232 250.585 L124.445 250.585 Q127.894 250.585 129.723 249.219 Q131.552 247.831 131.552 245.238 Q131.552 242.576 129.654 241.164 Q127.779 239.729 124.26 239.729 Q122.339 239.729 120.14 240.145 Q117.941 240.562 115.302 241.442 L115.302 237.275 Q117.964 236.534 120.279 236.164 Q122.617 235.794 124.677 235.794 Q130.001 235.794 133.103 238.224 Q136.204 240.632 136.204 244.752 Q136.204 247.622 134.561 249.613 Q132.917 251.581 129.885 252.344 Z" fill="#000000" fill-rule="evenodd" fill-opacity="1" /><path clip-path="url(#clip340)" d="M145.88 265.099 L150.765 265.099 L150.765 270.979 L145.88 270.979 L145.88 265.099 Z" fill="#000000" fill-rule="evenodd" fill-opacity="1" /><path clip-path="url(#clip340)" d="M159.769 236.419 L181.991 236.419 L181.991 238.409 L169.445 270.979 L164.561 270.979 L176.366 240.354 L159.769 240.354 L159.769 236.419 Z" fill="#000000" fill-rule="evenodd" fill-opacity="1" /><path clip-path="url(#clip340)" d="M201.112 239.497 Q197.5 239.497 195.672 243.062 Q193.866 246.604 193.866 253.733 Q193.866 260.84 195.672 264.405 Q197.5 267.946 201.112 267.946 Q204.746 267.946 206.551 264.405 Q208.38 260.84 208.38 253.733 Q208.38 246.604 206.551 243.062 Q204.746 239.497 201.112 239.497 M201.112 235.794 Q206.922 235.794 209.977 240.4 Q213.056 244.983 213.056 253.733 Q213.056 262.46 209.977 267.067 Q206.922 271.65 201.112 271.65 Q195.301 271.65 192.223 267.067 Q189.167 262.46 189.167 253.733 Q189.167 244.983 192.223 240.4 Q195.301 235.794 201.112 235.794 Z" fill="#000000" fill-rule="evenodd" fill-opacity="1" /><path clip-path="url(#clip340)" d="M35.1993 829.203 Q31.2526 827.007 29.3747 823.951 Q27.4968 820.896 27.4968 816.758 Q27.4968 811.188 31.4117 808.164 Q35.2948 805.141 42.4881 805.141 L64.0042 805.141 L64.0042 811.029 L42.679 811.029 Q37.5546 811.029 35.072 812.843 Q32.5894 814.657 32.5894 818.381 Q32.5894 822.933 35.6131 825.574 Q38.6368 828.216 43.8567 828.216 L64.0042 828.216 L64.0042 834.105 L42.679 834.105 Q37.5228 834.105 35.072 835.919 Q32.5894 837.733 32.5894 841.521 Q32.5894 846.008 35.6449 848.65 Q38.6686 851.292 43.8567 851.292 L64.0042 851.292 L64.0042 857.18 L28.3562 857.18 L28.3562 851.292 L33.8944 851.292 Q30.616 849.287 29.0564 846.486 Q27.4968 843.685 27.4968 839.834 Q27.4968 835.951 29.4702 833.245 Q31.4436 830.508 35.1993 829.203 Z" fill="#000000" fill-rule="evenodd" fill-opacity="1" /><path clip-path="url(#clip340)" d="M28.3562 793.459 L28.3562 787.603 L64.0042 787.603 L64.0042 793.459 L28.3562 793.459 M14.479 793.459 L14.479 787.603 L21.895 787.603 L21.895 793.459 L14.479 793.459 Z" fill="#000000" fill-rule="evenodd" fill-opacity="1" /><path clip-path="url(#clip340)" d="M42.4881 745.717 L64.0042 745.717 L64.0042 751.573 L42.679 751.573 Q37.6183 751.573 35.1038 753.547 Q32.5894 755.52 32.5894 759.467 Q32.5894 764.209 35.6131 766.946 Q38.6368 769.684 43.8567 769.684 L64.0042 769.684 L64.0042 775.572 L28.3562 775.572 L28.3562 769.684 L33.8944 769.684 Q30.6797 767.583 29.0883 764.75 Q27.4968 761.886 27.4968 758.162 Q27.4968 752.019 31.3163 748.868 Q35.1038 745.717 42.4881 745.717 Z" fill="#000000" fill-rule="evenodd" fill-opacity="1" /><path clip-path="url(#clip340)" d="M74.8259 706.95 L79.3773 706.95 L79.3773 740.815 L74.8259 740.815 L74.8259 706.95 Z" fill="#000000" fill-rule="evenodd" fill-opacity="1" /><path clip-path="url(#clip340)" d="M33.7671 677.986 L14.479 677.986 L14.479 672.129 L64.0042 672.129 L64.0042 677.986 L58.657 677.986 Q61.8398 679.832 63.3994 682.664 Q64.9272 685.465 64.9272 689.412 Q64.9272 695.873 59.771 699.947 Q54.6147 703.989 46.212 703.989 Q37.8093 703.989 32.6531 699.947 Q27.4968 695.873 27.4968 689.412 Q27.4968 685.465 29.0564 682.664 Q30.5842 679.832 33.7671 677.986 M46.212 697.942 Q52.6732 697.942 56.3653 695.3 Q60.0256 692.627 60.0256 687.98 Q60.0256 683.333 56.3653 680.659 Q52.6732 677.986 46.212 677.986 Q39.7508 677.986 36.0905 680.659 Q32.3984 683.333 32.3984 687.98 Q32.3984 692.627 36.0905 695.3 Q39.7508 697.942 46.212 697.942 Z" fill="#000000" fill-rule="evenodd" fill-opacity="1" /><path clip-path="url(#clip340)" d="M28.3562 660.066 L28.3562 654.21 L64.0042 654.21 L64.0042 660.066 L28.3562 660.066 M14.479 660.066 L14.479 654.21 L21.895 654.21 L21.895 660.066 L14.479 660.066 Z" fill="#000000" fill-rule="evenodd" fill-opacity="1" /><path clip-path="url(#clip340)" d="M14.479 623.909 L19.3487 623.909 L19.3487 629.511 Q19.3487 632.662 20.6219 633.903 Q21.895 635.113 25.2052 635.113 L28.3562 635.113 L28.3562 625.468 L32.9077 625.468 L32.9077 635.113 L64.0042 635.113 L64.0042 641.001 L32.9077 641.001 L32.9077 646.603 L28.3562 646.603 L28.3562 641.001 L25.8736 641.001 Q19.9216 641.001 17.2162 638.232 Q14.479 635.463 14.479 629.447 L14.479 623.909 Z" fill="#000000" fill-rule="evenodd" fill-opacity="1" /><path clip-path="url(#clip340)" d="M14.479 600.961 L19.3487 600.961 L19.3487 606.562 Q19.3487 609.713 20.6219 610.955 Q21.895 612.164 25.2052 612.164 L28.3562 612.164 L28.3562 602.52 L32.9077 602.52 L32.9077 612.164 L64.0042 612.164 L64.0042 618.052 L32.9077 618.052 L32.9077 623.654 L28.3562 623.654 L28.3562 618.052 L25.8736 618.052 Q19.9216 618.052 17.2162 615.283 Q14.479 612.514 14.479 606.499 L14.479 600.961 Z" fill="#000000" fill-rule="evenodd" fill-opacity="1" /><polyline clip-path="url(#clip342)" style="stroke:#009af9; stroke-linecap:butt; stroke-linejoin:round; stroke-width:20; stroke-opacity:1; fill:none" stroke-dasharray="80, 50" points="
  308.595,855.276 1300.91,85.838 2293.22,1372.3 
  "/>
<path clip-path="url(#clip340)" d="
M1996.46 196.379 L2282.63 196.379 L2282.63 92.6992 L1996.46 92.6992  Z
  " fill="#ffffff" fill-rule="evenodd" fill-opacity="1"/>
<polyline clip-path="url(#clip340)" style="stroke:#000000; stroke-linecap:butt; stroke-linejoin:round; stroke-width:4; stroke-opacity:1; fill:none" points="
  1996.46,196.379 2282.63,196.379 2282.63,92.6992 1996.46,92.6992 1996.46,196.379 
  "/>
<polyline clip-path="url(#clip340)" style="stroke:#009af9; stroke-linecap:butt; stroke-linejoin:round; stroke-width:4; stroke-opacity:1; fill:none" stroke-dasharray="16, 10" points="
  2019.83,144.539 2160.08,144.539 
  "/>
<path clip-path="url(#clip340)" d="M2197.3 164.227 Q2195.49 168.856 2193.78 170.268 Q2192.06 171.68 2189.19 171.68 L2185.79 171.68 L2185.79 168.115 L2188.29 168.115 Q2190.05 168.115 2191.02 167.282 Q2192 166.449 2193.18 163.347 L2193.94 161.403 L2183.45 135.893 L2187.97 135.893 L2196.07 156.171 L2204.17 135.893 L2208.68 135.893 L2197.3 164.227 Z" fill="#000000" fill-rule="evenodd" fill-opacity="1" /><path clip-path="url(#clip340)" d="M2215.98 157.884 L2223.62 157.884 L2223.62 131.518 L2215.31 133.185 L2215.31 128.926 L2223.57 127.259 L2228.24 127.259 L2228.24 157.884 L2235.88 157.884 L2235.88 161.819 L2215.98 161.819 L2215.98 157.884 Z" fill="#000000" fill-rule="evenodd" fill-opacity="1" /></svg>
