<?xml version="1.0" encoding="utf-8"?>
<svg xmlns="http://www.w3.org/2000/svg" xmlns:xlink="http://www.w3.org/1999/xlink" width="600" height="400" viewBox="0 0 2400 1600">
<defs>
  <clipPath id="clip930">
    <rect x="0" y="0" width="2400" height="1600"/>
  </clipPath>
</defs>
<path clip-path="url(#clip930)" d="
M0 1600 L2400 1600 L2400 0 L0 0  Z
  " fill="#ffffff" fill-rule="evenodd" fill-opacity="1"/>
<defs>
  <clipPath id="clip931">
    <rect x="480" y="0" width="1681" height="1600"/>
  </clipPath>
</defs>
<path clip-path="url(#clip930)" d="
M211.093 1410.9 L2352.76 1410.9 L2352.76 47.2441 L211.093 47.2441  Z
  " fill="#ffffff" fill-rule="evenodd" fill-opacity="1"/>
<defs>
  <clipPath id="clip932">
    <rect x="211" y="47" width="2143" height="1365"/>
  </clipPath>
</defs>
<polyline clip-path="url(#clip932)" style="stroke:#000000; stroke-width:2; stroke-opacity:0.1; fill:none" points="
  271.706,1410.9 271.706,47.2441 
  "/>
<polyline clip-path="url(#clip932)" style="stroke:#000000; stroke-width:2; stroke-opacity:0.1; fill:none" points="
  945.088,1410.9 945.088,47.2441 
  "/>
<polyline clip-path="url(#clip932)" style="stroke:#000000; stroke-width:2; stroke-opacity:0.1; fill:none" points="
  1618.47,1410.9 1618.47,47.2441 
  "/>
<polyline clip-path="url(#clip932)" style="stroke:#000000; stroke-width:2; stroke-opacity:0.1; fill:none" points="
  2291.85,1410.9 2291.85,47.2441 
  "/>
<polyline clip-path="url(#clip930)" style="stroke:#000000; stroke-width:4; stroke-opacity:1; fill:none" points="
  211.093,1410.9 2352.76,1410.9 
  "/>
<polyline clip-path="url(#clip930)" style="stroke:#000000; stroke-width:4; stroke-opacity:1; fill:none" points="
  271.706,1410.9 271.706,1394.53 
  "/>
<polyline clip-path="url(#clip930)" style="stroke:#000000; stroke-width:4; stroke-opacity:1; fill:none" points="
  945.088,1410.9 945.088,1394.53 
  "/>
<polyline clip-path="url(#clip930)" style="stroke:#000000; stroke-width:4; stroke-opacity:1; fill:none" points="
  1618.47,1410.9 1618.47,1394.53 
  "/>
<polyline clip-path="url(#clip930)" style="stroke:#000000; stroke-width:4; stroke-opacity:1; fill:none" points="
  2291.85,1410.9 2291.85,1394.53 
  "/>
<path clip-path="url(#clip930)" d="M 0 0 M225.815 1489.17 L233.453 1489.17 L233.453 1462.8 L225.143 1464.47 L225.143 1460.21 L233.407 1458.54 L238.083 1458.54 L238.083 1489.17 L245.722 1489.17 L245.722 1493.1 L225.815 1493.1 L225.815 1489.17 Z" fill="#000000" fill-rule="evenodd" fill-opacity="1" /><path clip-path="url(#clip930)" d="M 0 0 M260.791 1461.62 Q257.18 1461.62 255.351 1465.19 Q253.546 1468.73 253.546 1475.86 Q253.546 1482.97 255.351 1486.53 Q257.18 1490.07 260.791 1490.07 Q264.425 1490.07 266.231 1486.53 Q268.06 1482.97 268.06 1475.86 Q268.06 1468.73 266.231 1465.19 Q264.425 1461.62 260.791 1461.62 M260.791 1457.92 Q266.601 1457.92 269.657 1462.53 Q272.736 1467.11 272.736 1475.86 Q272.736 1484.59 269.657 1489.19 Q266.601 1493.78 260.791 1493.78 Q254.981 1493.78 251.902 1489.19 Q248.847 1484.59 248.847 1475.86 Q248.847 1467.11 251.902 1462.53 Q254.981 1457.92 260.791 1457.92 Z" fill="#000000" fill-rule="evenodd" fill-opacity="1" /><path clip-path="url(#clip930)" d="M 0 0 M272.736 1452.02 L296.847 1452.02 L296.847 1455.22 L272.736 1455.22 L272.736 1452.02 Z" fill="#000000" fill-rule="evenodd" fill-opacity="1" /><path clip-path="url(#clip930)" d="M 0 0 M312.476 1450.55 Q315.204 1451.14 316.727 1452.98 Q318.269 1454.82 318.269 1457.53 Q318.269 1461.69 315.41 1463.96 Q312.552 1466.24 307.285 1466.24 Q305.518 1466.24 303.637 1465.88 Q301.775 1465.54 299.781 1464.85 L299.781 1461.18 Q301.361 1462.1 303.242 1462.57 Q305.123 1463.04 307.173 1463.04 Q310.746 1463.04 312.608 1461.63 Q314.489 1460.22 314.489 1457.53 Q314.489 1455.05 312.74 1453.66 Q311.009 1452.25 307.906 1452.25 L304.634 1452.25 L304.634 1449.12 L308.057 1449.12 Q310.859 1449.12 312.345 1448.01 Q313.831 1446.89 313.831 1444.78 Q313.831 1442.62 312.288 1441.47 Q310.765 1440.3 307.906 1440.3 Q306.345 1440.3 304.558 1440.64 Q302.772 1440.98 300.628 1441.69 L300.628 1438.31 Q302.79 1437.71 304.671 1437.41 Q306.571 1437.11 308.245 1437.11 Q312.57 1437.11 315.091 1439.08 Q317.611 1441.04 317.611 1444.38 Q317.611 1446.72 316.276 1448.33 Q314.94 1449.93 312.476 1450.55 Z" fill="#000000" fill-rule="evenodd" fill-opacity="1" /><path clip-path="url(#clip930)" d="M 0 0 M899.582 1489.17 L907.22 1489.17 L907.22 1462.8 L898.91 1464.47 L898.91 1460.21 L907.174 1458.54 L911.85 1458.54 L911.85 1489.17 L919.489 1489.17 L919.489 1493.1 L899.582 1493.1 L899.582 1489.17 Z" fill="#000000" fill-rule="evenodd" fill-opacity="1" /><path clip-path="url(#clip930)" d="M 0 0 M934.558 1461.62 Q930.947 1461.62 929.118 1465.19 Q927.313 1468.73 927.313 1475.86 Q927.313 1482.97 929.118 1486.53 Q930.947 1490.07 934.558 1490.07 Q938.192 1490.07 939.998 1486.53 Q941.827 1482.97 941.827 1475.86 Q941.827 1468.73 939.998 1465.19 Q938.192 1461.62 934.558 1461.62 M934.558 1457.92 Q940.368 1457.92 943.424 1462.53 Q946.503 1467.11 946.503 1475.86 Q946.503 1484.59 943.424 1489.19 Q940.368 1493.78 934.558 1493.78 Q928.748 1493.78 925.669 1489.19 Q922.614 1484.59 922.614 1475.86 Q922.614 1467.11 925.669 1462.53 Q928.748 1457.92 934.558 1457.92 Z" fill="#000000" fill-rule="evenodd" fill-opacity="1" /><path clip-path="url(#clip930)" d="M 0 0 M946.503 1452.02 L970.614 1452.02 L970.614 1455.22 L946.503 1455.22 L946.503 1452.02 Z" fill="#000000" fill-rule="evenodd" fill-opacity="1" /><path clip-path="url(#clip930)" d="M 0 0 M978.006 1462.5 L991.265 1462.5 L991.265 1465.69 L973.435 1465.69 L973.435 1462.5 Q975.598 1460.26 979.322 1456.5 Q983.065 1452.72 984.024 1451.63 Q985.848 1449.58 986.563 1448.16 Q987.297 1446.74 987.297 1445.36 Q987.297 1443.12 985.717 1441.71 Q984.156 1440.3 981.636 1440.3 Q979.849 1440.3 977.855 1440.92 Q975.88 1441.54 973.623 1442.8 L973.623 1438.97 Q975.918 1438.05 977.912 1437.58 Q979.905 1437.11 981.56 1437.11 Q985.924 1437.11 988.519 1439.29 Q991.115 1441.47 991.115 1445.12 Q991.115 1446.85 990.456 1448.41 Q989.817 1449.95 988.105 1452.06 Q987.635 1452.6 985.115 1455.22 Q982.595 1457.81 978.006 1462.5 Z" fill="#000000" fill-rule="evenodd" fill-opacity="1" /><path clip-path="url(#clip930)" d="M 0 0 M1572.81 1489.17 L1580.45 1489.17 L1580.45 1462.8 L1572.14 1464.47 L1572.14 1460.21 L1580.41 1458.54 L1585.08 1458.54 L1585.08 1489.17 L1592.72 1489.17 L1592.72 1493.1 L1572.81 1493.1 L1572.81 1489.17 Z" fill="#000000" fill-rule="evenodd" fill-opacity="1" /><path clip-path="url(#clip930)" d="M 0 0 M1607.79 1461.62 Q1604.18 1461.62 1602.35 1465.19 Q1600.54 1468.73 1600.54 1475.86 Q1600.54 1482.97 1602.35 1486.53 Q1604.18 1490.07 1607.79 1490.07 Q1611.42 1490.07 1613.23 1486.53 Q1615.06 1482.97 1615.06 1475.86 Q1615.06 1468.73 1613.23 1465.19 Q1611.42 1461.62 1607.79 1461.62 M1607.79 1457.92 Q1613.6 1457.92 1616.65 1462.53 Q1619.73 1467.11 1619.73 1475.86 Q1619.73 1484.59 1616.65 1489.19 Q1613.6 1493.78 1607.79 1493.78 Q1601.98 1493.78 1598.9 1489.19 Q1595.84 1484.59 1595.84 1475.86 Q1595.84 1467.11 1598.9 1462.53 Q1601.98 1457.92 1607.79 1457.92 Z" fill="#000000" fill-rule="evenodd" fill-opacity="1" /><path clip-path="url(#clip930)" d="M 0 0 M1619.73 1452.02 L1643.85 1452.02 L1643.85 1455.22 L1619.73 1455.22 L1619.73 1452.02 Z" fill="#000000" fill-rule="evenodd" fill-opacity="1" /><path clip-path="url(#clip930)" d="M 0 0 M1648.62 1462.5 L1654.83 1462.5 L1654.83 1441.07 L1648.08 1442.43 L1648.08 1438.97 L1654.79 1437.61 L1658.59 1437.61 L1658.59 1462.5 L1664.8 1462.5 L1664.8 1465.69 L1648.62 1465.69 L1648.62 1462.5 Z" fill="#000000" fill-rule="evenodd" fill-opacity="1" /><path clip-path="url(#clip930)" d="M 0 0 M2259.02 1489.17 L2266.66 1489.17 L2266.66 1462.8 L2258.35 1464.47 L2258.35 1460.21 L2266.61 1458.54 L2271.29 1458.54 L2271.29 1489.17 L2278.93 1489.17 L2278.93 1493.1 L2259.02 1493.1 L2259.02 1489.17 Z" fill="#000000" fill-rule="evenodd" fill-opacity="1" /><path clip-path="url(#clip930)" d="M 0 0 M2294 1461.62 Q2290.39 1461.62 2288.56 1465.19 Q2286.75 1468.73 2286.75 1475.86 Q2286.75 1482.97 2288.56 1486.53 Q2290.39 1490.07 2294 1490.07 Q2297.63 1490.07 2299.44 1486.53 Q2301.27 1482.97 2301.27 1475.86 Q2301.27 1468.73 2299.44 1465.19 Q2297.63 1461.62 2294 1461.62 M2294 1457.92 Q2299.81 1457.92 2302.86 1462.53 Q2305.94 1467.11 2305.94 1475.86 Q2305.94 1484.59 2302.86 1489.19 Q2299.81 1493.78 2294 1493.78 Q2288.19 1493.78 2285.11 1489.19 Q2282.05 1484.59 2282.05 1475.86 Q2282.05 1467.11 2285.11 1462.53 Q2288.19 1457.92 2294 1457.92 Z" fill="#000000" fill-rule="evenodd" fill-opacity="1" /><path clip-path="url(#clip930)" d="M 0 0 M2315.65 1440.11 Q2312.71 1440.11 2311.23 1443.01 Q2309.76 1445.89 2309.76 1451.68 Q2309.76 1457.46 2311.23 1460.35 Q2312.71 1463.23 2315.65 1463.23 Q2318.6 1463.23 2320.07 1460.35 Q2321.55 1457.46 2321.55 1451.68 Q2321.55 1445.89 2320.07 1443.01 Q2318.6 1440.11 2315.65 1440.11 M2315.65 1437.11 Q2320.37 1437.11 2322.85 1440.85 Q2325.35 1444.57 2325.35 1451.68 Q2325.35 1458.77 2322.85 1462.51 Q2320.37 1466.24 2315.65 1466.24 Q2310.93 1466.24 2308.42 1462.51 Q2305.94 1458.77 2305.94 1451.68 Q2305.94 1444.57 2308.42 1440.85 Q2310.93 1437.11 2315.65 1437.11 Z" fill="#000000" fill-rule="evenodd" fill-opacity="1" /><path clip-path="url(#clip930)" d="M 0 0 M1174.2 1526.54 L1180.41 1526.54 L1191.55 1556.46 L1202.69 1526.54 L1208.89 1526.54 L1195.53 1562.19 L1187.57 1562.19 L1174.2 1526.54 Z" fill="#000000" fill-rule="evenodd" fill-opacity="1" /><path clip-path="url(#clip930)" d="M 0 0 M1242.12 1573.01 L1242.12 1577.56 L1208.26 1577.56 L1208.26 1573.01 L1242.12 1573.01 Z" fill="#000000" fill-rule="evenodd" fill-opacity="1" /><path clip-path="url(#clip930)" d="M 0 0 M1273.92 1527.91 L1273.92 1533.38 Q1271.44 1532.01 1268.92 1531.34 Q1266.44 1530.64 1263.89 1530.64 Q1258.2 1530.64 1255.05 1534.27 Q1251.89 1537.87 1251.89 1544.39 Q1251.89 1550.92 1255.05 1554.55 Q1258.2 1558.14 1263.89 1558.14 Q1266.44 1558.14 1268.92 1557.47 Q1271.44 1556.77 1273.92 1555.41 L1273.92 1560.82 Q1271.47 1561.96 1268.83 1562.54 Q1266.22 1563.11 1263.26 1563.11 Q1255.2 1563.11 1250.46 1558.05 Q1245.72 1552.99 1245.72 1544.39 Q1245.72 1535.67 1250.49 1530.68 Q1255.3 1525.68 1263.64 1525.68 Q1266.34 1525.68 1268.92 1526.25 Q1271.5 1526.79 1273.92 1527.91 Z" fill="#000000" fill-rule="evenodd" fill-opacity="1" /><path clip-path="url(#clip930)" d="M 0 0 M1280.06 1512.66 L1285.92 1512.66 L1285.92 1562.19 L1280.06 1562.19 L1280.06 1512.66 Z" fill="#000000" fill-rule="evenodd" fill-opacity="1" /><path clip-path="url(#clip930)" d="M 0 0 M1305.88 1530.64 Q1301.16 1530.64 1298.43 1534.34 Q1295.69 1538 1295.69 1544.39 Q1295.69 1550.79 1298.4 1554.48 Q1301.13 1558.14 1305.88 1558.14 Q1310.55 1558.14 1313.29 1554.45 Q1316.03 1550.76 1316.03 1544.39 Q1316.03 1538.06 1313.29 1534.37 Q1310.55 1530.64 1305.88 1530.64 M1305.88 1525.68 Q1313.51 1525.68 1317.87 1530.64 Q1322.24 1535.61 1322.24 1544.39 Q1322.24 1553.15 1317.87 1558.14 Q1313.51 1563.11 1305.88 1563.11 Q1298.2 1563.11 1293.84 1558.14 Q1289.52 1553.15 1289.52 1544.39 Q1289.52 1535.61 1293.84 1530.64 Q1298.2 1525.68 1305.88 1525.68 Z" fill="#000000" fill-rule="evenodd" fill-opacity="1" /><path clip-path="url(#clip930)" d="M 0 0 M1351.1 1527.59 L1351.1 1533.13 Q1348.62 1531.85 1345.95 1531.22 Q1343.27 1530.58 1340.41 1530.58 Q1336.05 1530.58 1333.85 1531.92 Q1331.69 1533.25 1331.69 1535.93 Q1331.69 1537.96 1333.25 1539.14 Q1334.81 1540.29 1339.52 1541.34 L1341.52 1541.78 Q1347.76 1543.12 1350.37 1545.57 Q1353.01 1547.99 1353.01 1552.35 Q1353.01 1557.32 1349.07 1560.21 Q1345.15 1563.11 1338.28 1563.11 Q1335.41 1563.11 1332.29 1562.54 Q1329.21 1561.99 1325.77 1560.88 L1325.77 1554.83 Q1329.01 1556.52 1332.17 1557.38 Q1335.32 1558.21 1338.4 1558.21 Q1342.54 1558.21 1344.77 1556.81 Q1347 1555.37 1347 1552.8 Q1347 1550.41 1345.37 1549.14 Q1343.78 1547.86 1338.34 1546.68 L1336.3 1546.21 Q1330.86 1545.06 1328.44 1542.71 Q1326.02 1540.32 1326.02 1536.18 Q1326.02 1531.15 1329.59 1528.42 Q1333.15 1525.68 1339.71 1525.68 Q1342.96 1525.68 1345.82 1526.16 Q1348.68 1526.63 1351.1 1527.59 Z" fill="#000000" fill-rule="evenodd" fill-opacity="1" /><path clip-path="url(#clip930)" d="M 0 0 M1389.65 1542.9 L1389.65 1545.76 L1362.72 1545.76 Q1363.1 1551.81 1366.35 1554.99 Q1369.63 1558.14 1375.45 1558.14 Q1378.83 1558.14 1381.98 1557.32 Q1385.16 1556.49 1388.28 1554.83 L1388.28 1560.37 Q1385.13 1561.71 1381.82 1562.41 Q1378.51 1563.11 1375.1 1563.11 Q1366.57 1563.11 1361.58 1558.14 Q1356.61 1553.18 1356.61 1544.71 Q1356.61 1535.96 1361.32 1530.83 Q1366.06 1525.68 1374.08 1525.68 Q1381.28 1525.68 1385.45 1530.33 Q1389.65 1534.94 1389.65 1542.9 M1383.79 1541.18 Q1383.73 1536.37 1381.09 1533.51 Q1378.48 1530.64 1374.15 1530.64 Q1369.25 1530.64 1366.29 1533.41 Q1363.36 1536.18 1362.91 1541.21 L1383.79 1541.18 Z" fill="#000000" fill-rule="evenodd" fill-opacity="1" /><polyline clip-path="url(#clip932)" style="stroke:#000000; stroke-width:2; stroke-opacity:0.1; fill:none" points="
  211.093,1285.95 2352.76,1285.95 
  "/>
<polyline clip-path="url(#clip932)" style="stroke:#000000; stroke-width:2; stroke-opacity:0.1; fill:none" points="
  211.093,1028.65 2352.76,1028.65 
  "/>
<polyline clip-path="url(#clip932)" style="stroke:#000000; stroke-width:2; stroke-opacity:0.1; fill:none" points="
  211.093,771.36 2352.76,771.36 
  "/>
<polyline clip-path="url(#clip932)" style="stroke:#000000; stroke-width:2; stroke-opacity:0.1; fill:none" points="
  211.093,514.067 2352.76,514.067 
  "/>
<polyline clip-path="url(#clip932)" style="stroke:#000000; stroke-width:2; stroke-opacity:0.1; fill:none" points="
  211.093,256.774 2352.76,256.774 
  "/>
<polyline clip-path="url(#clip930)" style="stroke:#000000; stroke-width:4; stroke-opacity:1; fill:none" points="
  211.093,1410.9 211.093,47.2441 
  "/>
<polyline clip-path="url(#clip930)" style="stroke:#000000; stroke-width:4; stroke-opacity:1; fill:none" points="
  211.093,1285.95 236.793,1285.95 
  "/>
<polyline clip-path="url(#clip930)" style="stroke:#000000; stroke-width:4; stroke-opacity:1; fill:none" points="
  211.093,1028.65 236.793,1028.65 
  "/>
<polyline clip-path="url(#clip930)" style="stroke:#000000; stroke-width:4; stroke-opacity:1; fill:none" points="
  211.093,771.36 236.793,771.36 
  "/>
<polyline clip-path="url(#clip930)" style="stroke:#000000; stroke-width:4; stroke-opacity:1; fill:none" points="
  211.093,514.067 236.793,514.067 
  "/>
<polyline clip-path="url(#clip930)" style="stroke:#000000; stroke-width:4; stroke-opacity:1; fill:none" points="
  211.093,256.774 236.793,256.774 
  "/>
<path clip-path="url(#clip930)" d="M 0 0 M116.737 1268.67 L135.093 1268.67 L135.093 1272.6 L121.019 1272.6 L121.019 1281.07 Q122.038 1280.73 123.056 1280.56 Q124.075 1280.38 125.093 1280.38 Q130.88 1280.38 134.26 1283.55 Q137.64 1286.72 137.64 1292.14 Q137.64 1297.72 134.167 1300.82 Q130.695 1303.9 124.376 1303.9 Q122.2 1303.9 119.931 1303.53 Q117.686 1303.16 115.279 1302.42 L115.279 1297.72 Q117.362 1298.85 119.584 1299.41 Q121.806 1299.96 124.283 1299.96 Q128.288 1299.96 130.626 1297.86 Q132.964 1295.75 132.964 1292.14 Q132.964 1288.53 130.626 1286.42 Q128.288 1284.31 124.283 1284.31 Q122.408 1284.31 120.533 1284.73 Q118.681 1285.15 116.737 1286.03 L116.737 1268.67 Z" fill="#000000" fill-rule="evenodd" fill-opacity="1" /><path clip-path="url(#clip930)" d="M 0 0 M142.709 1297.35 L147.593 1297.35 L147.593 1303.23 L142.709 1303.23 L142.709 1297.35 Z" fill="#000000" fill-rule="evenodd" fill-opacity="1" /><path clip-path="url(#clip930)" d="M 0 0 M165.51 1272.74 L153.704 1291.19 L165.51 1291.19 L165.51 1272.74 M164.283 1268.67 L170.163 1268.67 L170.163 1291.19 L175.093 1291.19 L175.093 1295.08 L170.163 1295.08 L170.163 1303.23 L165.51 1303.23 L165.51 1295.08 L149.908 1295.08 L149.908 1290.56 L164.283 1268.67 Z" fill="#000000" fill-rule="evenodd" fill-opacity="1" /><path clip-path="url(#clip930)" d="M 0 0 M117.061 1011.37 L135.417 1011.37 L135.417 1015.31 L121.343 1015.31 L121.343 1023.78 Q122.362 1023.43 123.38 1023.27 Q124.399 1023.09 125.418 1023.09 Q131.205 1023.09 134.584 1026.26 Q137.964 1029.43 137.964 1034.85 Q137.964 1040.42 134.492 1043.53 Q131.019 1046.6 124.7 1046.6 Q122.524 1046.6 120.255 1046.23 Q118.01 1045.86 115.603 1045.12 L115.603 1040.42 Q117.686 1041.56 119.908 1042.11 Q122.13 1042.67 124.607 1042.67 Q128.612 1042.67 130.95 1040.56 Q133.288 1038.46 133.288 1034.85 Q133.288 1031.23 130.95 1029.13 Q128.612 1027.02 124.607 1027.02 Q122.732 1027.02 120.857 1027.44 Q119.006 1027.85 117.061 1028.73 L117.061 1011.37 Z" fill="#000000" fill-rule="evenodd" fill-opacity="1" /><path clip-path="url(#clip930)" d="M 0 0 M143.033 1040.05 L147.917 1040.05 L147.917 1045.93 L143.033 1045.93 L143.033 1040.05 Z" fill="#000000" fill-rule="evenodd" fill-opacity="1" /><path clip-path="url(#clip930)" d="M 0 0 M163.565 1026.79 Q160.417 1026.79 158.565 1028.94 Q156.737 1031.1 156.737 1034.85 Q156.737 1038.57 158.565 1040.75 Q160.417 1042.9 163.565 1042.9 Q166.714 1042.9 168.542 1040.75 Q170.394 1038.57 170.394 1034.85 Q170.394 1031.1 168.542 1028.94 Q166.714 1026.79 163.565 1026.79 M172.848 1012.14 L172.848 1016.4 Q171.089 1015.56 169.283 1015.12 Q167.501 1014.68 165.741 1014.68 Q161.112 1014.68 158.658 1017.81 Q156.228 1020.93 155.88 1027.25 Q157.246 1025.24 159.306 1024.17 Q161.366 1023.09 163.843 1023.09 Q169.052 1023.09 172.061 1026.26 Q175.093 1029.41 175.093 1034.85 Q175.093 1040.17 171.945 1043.39 Q168.797 1046.6 163.565 1046.6 Q157.57 1046.6 154.399 1042.02 Q151.228 1037.41 151.228 1028.69 Q151.228 1020.49 155.116 1015.63 Q159.005 1010.75 165.556 1010.75 Q167.315 1010.75 169.098 1011.1 Q170.903 1011.44 172.848 1012.14 Z" fill="#000000" fill-rule="evenodd" fill-opacity="1" /><path clip-path="url(#clip930)" d="M 0 0 M117.316 754.08 L135.672 754.08 L135.672 758.015 L121.598 758.015 L121.598 766.487 Q122.617 766.14 123.635 765.978 Q124.654 765.793 125.672 765.793 Q131.459 765.793 134.839 768.964 Q138.218 772.136 138.218 777.552 Q138.218 783.131 134.746 786.233 Q131.274 789.311 124.955 789.311 Q122.779 789.311 120.51 788.941 Q118.265 788.571 115.857 787.83 L115.857 783.131 Q117.941 784.265 120.163 784.821 Q122.385 785.376 124.862 785.376 Q128.867 785.376 131.205 783.27 Q133.542 781.163 133.542 777.552 Q133.542 773.941 131.205 771.835 Q128.867 769.728 124.862 769.728 Q122.987 769.728 121.112 770.145 Q119.26 770.562 117.316 771.441 L117.316 754.08 Z" fill="#000000" fill-rule="evenodd" fill-opacity="1" /><path clip-path="url(#clip930)" d="M 0 0 M143.288 782.761 L148.172 782.761 L148.172 788.64 L143.288 788.64 L143.288 782.761 Z" fill="#000000" fill-rule="evenodd" fill-opacity="1" /><path clip-path="url(#clip930)" d="M 0 0 M163.241 772.228 Q159.908 772.228 157.987 774.011 Q156.089 775.793 156.089 778.918 Q156.089 782.043 157.987 783.825 Q159.908 785.608 163.241 785.608 Q166.575 785.608 168.496 783.825 Q170.417 782.02 170.417 778.918 Q170.417 775.793 168.496 774.011 Q166.598 772.228 163.241 772.228 M158.565 770.237 Q155.556 769.497 153.866 767.437 Q152.2 765.376 152.2 762.413 Q152.2 758.27 155.14 755.863 Q158.103 753.455 163.241 753.455 Q168.403 753.455 171.343 755.863 Q174.283 758.27 174.283 762.413 Q174.283 765.376 172.593 767.437 Q170.927 769.497 167.94 770.237 Q171.32 771.025 173.195 773.316 Q175.093 775.608 175.093 778.918 Q175.093 783.941 172.014 786.626 Q168.959 789.311 163.241 789.311 Q157.524 789.311 154.445 786.626 Q151.39 783.941 151.39 778.918 Q151.39 775.608 153.288 773.316 Q155.186 771.025 158.565 770.237 M156.853 762.853 Q156.853 765.538 158.519 767.043 Q160.209 768.548 163.241 768.548 Q166.251 768.548 167.94 767.043 Q169.653 765.538 169.653 762.853 Q169.653 760.168 167.94 758.663 Q166.251 757.159 163.241 757.159 Q160.209 757.159 158.519 758.663 Q156.853 760.168 156.853 762.853 Z" fill="#000000" fill-rule="evenodd" fill-opacity="1" /><path clip-path="url(#clip930)" d="M 0 0 M126.598 512.204 Q123.45 512.204 121.598 514.357 Q119.769 516.509 119.769 520.259 Q119.769 523.986 121.598 526.162 Q123.45 528.315 126.598 528.315 Q129.746 528.315 131.575 526.162 Q133.427 523.986 133.427 520.259 Q133.427 516.509 131.575 514.357 Q129.746 512.204 126.598 512.204 M135.88 497.551 L135.88 501.81 Q134.121 500.977 132.316 500.537 Q130.533 500.097 128.774 500.097 Q124.144 500.097 121.691 503.222 Q119.26 506.347 118.913 512.667 Q120.279 510.653 122.339 509.588 Q124.399 508.5 126.876 508.5 Q132.084 508.5 135.093 511.671 Q138.126 514.82 138.126 520.259 Q138.126 525.583 134.978 528.801 Q131.83 532.019 126.598 532.019 Q120.603 532.019 117.431 527.435 Q114.26 522.829 114.26 514.102 Q114.26 505.908 118.149 501.046 Q122.038 496.162 128.589 496.162 Q130.348 496.162 132.13 496.509 Q133.936 496.857 135.88 497.551 Z" fill="#000000" fill-rule="evenodd" fill-opacity="1" /><path clip-path="url(#clip930)" d="M 0 0 M143.195 525.468 L148.079 525.468 L148.079 531.347 L143.195 531.347 L143.195 525.468 Z" fill="#000000" fill-rule="evenodd" fill-opacity="1" /><path clip-path="url(#clip930)" d="M 0 0 M163.149 499.866 Q159.538 499.866 157.709 503.431 Q155.903 506.972 155.903 514.102 Q155.903 521.208 157.709 524.773 Q159.538 528.315 163.149 528.315 Q166.783 528.315 168.589 524.773 Q170.417 521.208 170.417 514.102 Q170.417 506.972 168.589 503.431 Q166.783 499.866 163.149 499.866 M163.149 496.162 Q168.959 496.162 172.014 500.769 Q175.093 505.352 175.093 514.102 Q175.093 522.829 172.014 527.435 Q168.959 532.019 163.149 532.019 Q157.339 532.019 154.26 527.435 Q151.204 522.829 151.204 514.102 Q151.204 505.352 154.26 500.769 Q157.339 496.162 163.149 496.162 Z" fill="#000000" fill-rule="evenodd" fill-opacity="1" /><path clip-path="url(#clip930)" d="M 0 0 M128.195 254.911 Q125.047 254.911 123.195 257.064 Q121.367 259.216 121.367 262.966 Q121.367 266.693 123.195 268.869 Q125.047 271.022 128.195 271.022 Q131.343 271.022 133.172 268.869 Q135.024 266.693 135.024 262.966 Q135.024 259.216 133.172 257.064 Q131.343 254.911 128.195 254.911 M137.478 240.258 L137.478 244.517 Q135.718 243.684 133.913 243.244 Q132.13 242.804 130.371 242.804 Q125.742 242.804 123.288 245.929 Q120.857 249.054 120.51 255.374 Q121.876 253.36 123.936 252.295 Q125.996 251.207 128.473 251.207 Q133.681 251.207 136.691 254.378 Q139.723 257.527 139.723 262.966 Q139.723 268.29 136.575 271.508 Q133.427 274.726 128.195 274.726 Q122.2 274.726 119.029 270.142 Q115.857 265.536 115.857 256.809 Q115.857 248.615 119.746 243.754 Q123.635 238.869 130.186 238.869 Q131.945 238.869 133.728 239.217 Q135.533 239.564 137.478 240.258 Z" fill="#000000" fill-rule="evenodd" fill-opacity="1" /><path clip-path="url(#clip930)" d="M 0 0 M144.792 268.175 L149.677 268.175 L149.677 274.054 L144.792 274.054 L144.792 268.175 Z" fill="#000000" fill-rule="evenodd" fill-opacity="1" /><path clip-path="url(#clip930)" d="M 0 0 M158.774 270.119 L175.093 270.119 L175.093 274.054 L153.149 274.054 L153.149 270.119 Q155.811 267.365 160.394 262.735 Q165.001 258.082 166.181 256.74 Q168.427 254.216 169.306 252.48 Q170.209 250.721 170.209 249.031 Q170.209 246.277 168.264 244.541 Q166.343 242.804 163.241 242.804 Q161.042 242.804 158.589 243.568 Q156.158 244.332 153.38 245.883 L153.38 241.161 Q156.204 240.027 158.658 239.448 Q161.112 238.869 163.149 238.869 Q168.519 238.869 171.714 241.554 Q174.908 244.24 174.908 248.73 Q174.908 250.86 174.098 252.781 Q173.311 254.679 171.204 257.272 Q170.626 257.943 167.524 261.161 Q164.422 264.355 158.774 270.119 Z" fill="#000000" fill-rule="evenodd" fill-opacity="1" /><path clip-path="url(#clip930)" d="M 0 0 M59.1993 815.533 Q55.2526 813.336 53.3747 810.281 Q51.4968 807.225 51.4968 803.088 Q51.4968 797.518 55.4117 794.494 Q59.2948 791.47 66.4881 791.47 L88.0042 791.47 L88.0042 797.358 L66.679 797.358 Q61.5546 797.358 59.072 799.173 Q56.5894 800.987 56.5894 804.711 Q56.5894 809.262 59.6131 811.904 Q62.6368 814.546 67.8567 814.546 L88.0042 814.546 L88.0042 820.434 L66.679 820.434 Q61.5228 820.434 59.072 822.248 Q56.5894 824.063 56.5894 827.85 Q56.5894 832.338 59.6449 834.98 Q62.6686 837.622 67.8567 837.622 L88.0042 837.622 L88.0042 843.51 L52.3562 843.51 L52.3562 837.622 L57.8944 837.622 Q54.616 835.616 53.0564 832.815 Q51.4968 830.015 51.4968 826.163 Q51.4968 822.28 53.4702 819.575 Q55.4436 816.838 59.1993 815.533 Z" fill="#000000" fill-rule="evenodd" fill-opacity="1" /><path clip-path="url(#clip930)" d="M 0 0 M52.3562 785.327 L52.3562 779.471 L88.0042 779.471 L88.0042 785.327 L52.3562 785.327 M38.479 785.327 L38.479 779.471 L45.895 779.471 L45.895 785.327 L38.479 785.327 Z" fill="#000000" fill-rule="evenodd" fill-opacity="1" /><path clip-path="url(#clip930)" d="M 0 0 M66.4881 743.696 L88.0042 743.696 L88.0042 749.552 L66.679 749.552 Q61.6183 749.552 59.1038 751.525 Q56.5894 753.499 56.5894 757.446 Q56.5894 762.188 59.6131 764.925 Q62.6368 767.662 67.8567 767.662 L88.0042 767.662 L88.0042 773.551 L52.3562 773.551 L52.3562 767.662 L57.8944 767.662 Q54.6797 765.562 53.0883 762.729 Q51.4968 759.864 51.4968 756.141 Q51.4968 749.998 55.3163 746.847 Q59.1038 743.696 66.4881 743.696 Z" fill="#000000" fill-rule="evenodd" fill-opacity="1" /><path clip-path="url(#clip930)" d="M 0 0 M98.8259 710.467 L103.377 710.467 L103.377 744.332 L98.8259 744.332 L98.8259 710.467 Z" fill="#000000" fill-rule="evenodd" fill-opacity="1" /><path clip-path="url(#clip930)" d="M 0 0 M57.7671 680.866 L38.479 680.866 L38.479 675.01 L88.0042 675.01 L88.0042 680.866 L82.657 680.866 Q85.8398 682.712 87.3994 685.545 Q88.9272 688.346 88.9272 692.292 Q88.9272 698.754 83.771 702.828 Q78.6147 706.87 70.212 706.87 Q61.8093 706.87 56.6531 702.828 Q51.4968 698.754 51.4968 692.292 Q51.4968 688.346 53.0564 685.545 Q54.5842 682.712 57.7671 680.866 M70.212 700.823 Q76.6732 700.823 80.3653 698.181 Q84.0256 695.507 84.0256 690.86 Q84.0256 686.213 80.3653 683.54 Q76.6732 680.866 70.212 680.866 Q63.7508 680.866 60.0905 683.54 Q56.3984 686.213 56.3984 690.86 Q56.3984 695.507 60.0905 698.181 Q63.7508 700.823 70.212 700.823 Z" fill="#000000" fill-rule="evenodd" fill-opacity="1" /><path clip-path="url(#clip930)" d="M 0 0 M52.3562 668.867 L52.3562 663.01 L88.0042 663.01 L88.0042 668.867 L52.3562 668.867 M38.479 668.867 L38.479 663.01 L45.895 663.01 L45.895 668.867 L38.479 668.867 Z" fill="#000000" fill-rule="evenodd" fill-opacity="1" /><path clip-path="url(#clip930)" d="M 0 0 M38.479 638.821 L43.3487 638.821 L43.3487 644.422 Q43.3487 647.573 44.6219 648.815 Q45.895 650.024 49.2052 650.024 L52.3562 650.024 L52.3562 640.38 L56.9077 640.38 L56.9077 650.024 L88.0042 650.024 L88.0042 655.912 L56.9077 655.912 L56.9077 661.514 L52.3562 661.514 L52.3562 655.912 L49.8736 655.912 Q43.9216 655.912 41.2162 653.143 Q38.479 650.374 38.479 644.359 L38.479 638.821 Z" fill="#000000" fill-rule="evenodd" fill-opacity="1" /><path clip-path="url(#clip930)" d="M 0 0 M38.479 614.631 L43.3487 614.631 L43.3487 620.233 Q43.3487 623.384 44.6219 624.625 Q45.895 625.835 49.2052 625.835 L52.3562 625.835 L52.3562 616.19 L56.9077 616.19 L56.9077 625.835 L88.0042 625.835 L88.0042 631.723 L56.9077 631.723 L56.9077 637.325 L52.3562 637.325 L52.3562 631.723 L49.8736 631.723 Q43.9216 631.723 41.2162 628.954 Q38.479 626.185 38.479 620.169 L38.479 614.631 Z" fill="#000000" fill-rule="evenodd" fill-opacity="1" /><path clip-path="url(#clip930)" d="
M1992.39 213.659 L2281.37 213.659 L2281.37 92.6992 L1992.39 92.6992  Z
  " fill="#ffffff" fill-rule="evenodd" fill-opacity="1"/>
<polyline clip-path="url(#clip930)" style="stroke:#000000; stroke-width:4; stroke-opacity:1; fill:none" points="
  1992.39,213.659 2281.37,213.659 2281.37,92.6992 1992.39,92.6992 1992.39,213.659 
  "/>
<polyline clip-path="url(#clip930)" style="stroke:#009af9; stroke-width:4; stroke-opacity:1; fill:none" stroke-dasharray="16, 10" points="
  2016.18,153.179 2158.96,153.179 
  "/>
<path clip-path="url(#clip930)" d="M 0 0 M2196.6 172.867 Q2194.79 177.496 2193.08 178.908 Q2191.37 180.32 2188.5 180.32 L2185.09 180.32 L2185.09 176.755 L2187.59 176.755 Q2189.35 176.755 2190.33 175.922 Q2191.3 175.089 2192.48 171.987 L2193.24 170.043 L2182.76 144.533 L2187.27 144.533 L2195.37 164.811 L2203.47 144.533 L2207.99 144.533 L2196.6 172.867 Z" fill="#000000" fill-rule="evenodd" fill-opacity="1" /><path clip-path="url(#clip930)" d="M 0 0 M2213.87 166.524 L2221.51 166.524 L2221.51 140.158 L2213.2 141.825 L2213.2 137.566 L2221.46 135.899 L2226.14 135.899 L2226.14 166.524 L2233.77 166.524 L2233.77 170.459 L2213.87 170.459 L2213.87 166.524 Z" fill="#000000" fill-rule="evenodd" fill-opacity="1" /></svg>
