<?xml version="1.0" encoding="utf-8"?>
<svg xmlns="http://www.w3.org/2000/svg" xmlns:xlink="http://www.w3.org/1999/xlink" width="600" height="400" viewBox="0 0 2400 1600">
<defs>
  <clipPath id="clip280">
    <rect x="0" y="0" width="2400" height="1600"/>
  </clipPath>
</defs>
<path clip-path="url(#clip280)" d="
M0 1600 L2400 1600 L2400 0 L0 0  Z
  " fill="#ffffff" fill-rule="evenodd" fill-opacity="1"/>
<defs>
  <clipPath id="clip281">
    <rect x="480" y="0" width="1681" height="1600"/>
  </clipPath>
</defs>
<path clip-path="url(#clip280)" d="
M249.056 1410.9 L2352.76 1410.9 L2352.76 47.2441 L249.056 47.2441  Z
  " fill="#ffffff" fill-rule="evenodd" fill-opacity="1"/>
<defs>
  <clipPath id="clip282">
    <rect x="249" y="47" width="2105" height="1365"/>
  </clipPath>
</defs>
<polyline clip-path="url(#clip282)" style="stroke:#000000; stroke-linecap:butt; stroke-linejoin:round; stroke-width:2; stroke-opacity:0.1; fill:none" points="
  705.519,1410.9 705.519,47.2441 
  "/>
<polyline clip-path="url(#clip282)" style="stroke:#000000; stroke-linecap:butt; stroke-linejoin:round; stroke-width:2; stroke-opacity:0.1; fill:none" points="
  1499.37,1410.9 1499.37,47.2441 
  "/>
<polyline clip-path="url(#clip282)" style="stroke:#000000; stroke-linecap:butt; stroke-linejoin:round; stroke-width:2; stroke-opacity:0.1; fill:none" points="
  2293.22,1410.9 2293.22,47.2441 
  "/>
<polyline clip-path="url(#clip280)" style="stroke:#000000; stroke-linecap:butt; stroke-linejoin:round; stroke-width:4; stroke-opacity:1; fill:none" points="
  249.056,1410.9 2352.76,1410.9 
  "/>
<polyline clip-path="url(#clip280)" style="stroke:#000000; stroke-linecap:butt; stroke-linejoin:round; stroke-width:4; stroke-opacity:1; fill:none" points="
  705.519,1410.9 705.519,1392 
  "/>
<polyline clip-path="url(#clip280)" style="stroke:#000000; stroke-linecap:butt; stroke-linejoin:round; stroke-width:4; stroke-opacity:1; fill:none" points="
  1499.37,1410.9 1499.37,1392 
  "/>
<polyline clip-path="url(#clip280)" style="stroke:#000000; stroke-linecap:butt; stroke-linejoin:round; stroke-width:4; stroke-opacity:1; fill:none" points="
  2293.22,1410.9 2293.22,1392 
  "/>
<path clip-path="url(#clip280)" d="M637.128 1485.02 L644.766 1485.02 L644.766 1458.66 L636.456 1460.32 L636.456 1456.06 L644.72 1454.4 L649.396 1454.4 L649.396 1485.02 L657.035 1485.02 L657.035 1488.96 L637.128 1488.96 L637.128 1485.02 Z" fill="#000000" fill-rule="evenodd" fill-opacity="1" /><path clip-path="url(#clip280)" d="M676.479 1457.48 Q672.868 1457.48 671.039 1461.04 Q669.234 1464.58 669.234 1471.71 Q669.234 1478.82 671.039 1482.38 Q672.868 1485.92 676.479 1485.92 Q680.113 1485.92 681.919 1482.38 Q683.748 1478.82 683.748 1471.71 Q683.748 1464.58 681.919 1461.04 Q680.113 1457.48 676.479 1457.48 M676.479 1453.77 Q682.289 1453.77 685.345 1458.38 Q688.424 1462.96 688.424 1471.71 Q688.424 1480.44 685.345 1485.04 Q682.289 1489.63 676.479 1489.63 Q670.669 1489.63 667.59 1485.04 Q664.535 1480.44 664.535 1471.71 Q664.535 1462.96 667.59 1458.38 Q670.669 1453.77 676.479 1453.77 Z" fill="#000000" fill-rule="evenodd" fill-opacity="1" /><path clip-path="url(#clip280)" d="M688.424 1447.87 L712.535 1447.87 L712.535 1451.07 L688.424 1451.07 L688.424 1447.87 Z" fill="#000000" fill-rule="evenodd" fill-opacity="1" /><path clip-path="url(#clip280)" d="M731.174 1436.78 L721.582 1451.77 L731.174 1451.77 L731.174 1436.78 M730.177 1433.47 L734.954 1433.47 L734.954 1451.77 L738.96 1451.77 L738.96 1454.93 L734.954 1454.93 L734.954 1461.55 L731.174 1461.55 L731.174 1454.93 L718.497 1454.93 L718.497 1451.26 L730.177 1433.47 Z" fill="#000000" fill-rule="evenodd" fill-opacity="1" /><path clip-path="url(#clip280)" d="M745.242 1456.77 L749.21 1456.77 L749.21 1461.55 L745.242 1461.55 L745.242 1456.77 Z" fill="#000000" fill-rule="evenodd" fill-opacity="1" /><path clip-path="url(#clip280)" d="M756.527 1433.47 L774.582 1433.47 L774.582 1435.08 L764.388 1461.55 L760.42 1461.55 L770.012 1436.66 L756.527 1436.66 L756.527 1433.47 Z" fill="#000000" fill-rule="evenodd" fill-opacity="1" /><path clip-path="url(#clip280)" d="M1430.54 1485.02 L1438.18 1485.02 L1438.18 1458.66 L1429.87 1460.32 L1429.87 1456.06 L1438.14 1454.4 L1442.81 1454.4 L1442.81 1485.02 L1450.45 1485.02 L1450.45 1488.96 L1430.54 1488.96 L1430.54 1485.02 Z" fill="#000000" fill-rule="evenodd" fill-opacity="1" /><path clip-path="url(#clip280)" d="M1469.9 1457.48 Q1466.28 1457.48 1464.46 1461.04 Q1462.65 1464.58 1462.65 1471.71 Q1462.65 1478.82 1464.46 1482.38 Q1466.28 1485.92 1469.9 1485.92 Q1473.53 1485.92 1475.34 1482.38 Q1477.16 1478.82 1477.16 1471.71 Q1477.16 1464.58 1475.34 1461.04 Q1473.53 1457.48 1469.9 1457.48 M1469.9 1453.77 Q1475.71 1453.77 1478.76 1458.38 Q1481.84 1462.96 1481.84 1471.71 Q1481.84 1480.44 1478.76 1485.04 Q1475.71 1489.63 1469.9 1489.63 Q1464.09 1489.63 1461.01 1485.04 Q1457.95 1480.44 1457.95 1471.71 Q1457.95 1462.96 1461.01 1458.38 Q1464.09 1453.77 1469.9 1453.77 Z" fill="#000000" fill-rule="evenodd" fill-opacity="1" /><path clip-path="url(#clip280)" d="M1481.84 1447.87 L1505.95 1447.87 L1505.95 1451.07 L1481.84 1451.07 L1481.84 1447.87 Z" fill="#000000" fill-rule="evenodd" fill-opacity="1" /><path clip-path="url(#clip280)" d="M1524.59 1436.78 L1515 1451.77 L1524.59 1451.77 L1524.59 1436.78 M1523.59 1433.47 L1528.37 1433.47 L1528.37 1451.77 L1532.38 1451.77 L1532.38 1454.93 L1528.37 1454.93 L1528.37 1461.55 L1524.59 1461.55 L1524.59 1454.93 L1511.91 1454.93 L1511.91 1451.26 L1523.59 1433.47 Z" fill="#000000" fill-rule="evenodd" fill-opacity="1" /><path clip-path="url(#clip280)" d="M1538.66 1456.77 L1542.63 1456.77 L1542.63 1461.55 L1538.66 1461.55 L1538.66 1456.77 Z" fill="#000000" fill-rule="evenodd" fill-opacity="1" /><path clip-path="url(#clip280)" d="M1559.5 1445.99 Q1556.94 1445.99 1555.43 1447.74 Q1553.95 1449.49 1553.95 1452.54 Q1553.95 1455.57 1555.43 1457.33 Q1556.94 1459.08 1559.5 1459.08 Q1562.06 1459.08 1563.54 1457.33 Q1565.05 1455.57 1565.05 1452.54 Q1565.05 1449.49 1563.54 1447.74 Q1562.06 1445.99 1559.5 1445.99 M1567.04 1434.09 L1567.04 1437.55 Q1565.61 1436.87 1564.14 1436.51 Q1562.69 1436.16 1561.27 1436.16 Q1557.5 1436.16 1555.51 1438.69 Q1553.54 1441.23 1553.25 1446.37 Q1554.36 1444.73 1556.04 1443.87 Q1557.71 1442.98 1559.72 1442.98 Q1563.95 1442.98 1566.4 1445.56 Q1568.86 1448.12 1568.86 1452.54 Q1568.86 1456.86 1566.31 1459.48 Q1563.75 1462.09 1559.5 1462.09 Q1554.63 1462.09 1552.05 1458.37 Q1549.47 1454.62 1549.47 1447.53 Q1549.47 1440.88 1552.63 1436.93 Q1555.79 1432.96 1561.11 1432.96 Q1562.54 1432.96 1563.99 1433.24 Q1565.46 1433.52 1567.04 1434.09 Z" fill="#000000" fill-rule="evenodd" fill-opacity="1" /><path clip-path="url(#clip280)" d="M2224.86 1485.02 L2232.5 1485.02 L2232.5 1458.66 L2224.19 1460.32 L2224.19 1456.06 L2232.46 1454.4 L2237.13 1454.4 L2237.13 1485.02 L2244.77 1485.02 L2244.77 1488.96 L2224.86 1488.96 L2224.86 1485.02 Z" fill="#000000" fill-rule="evenodd" fill-opacity="1" /><path clip-path="url(#clip280)" d="M2264.21 1457.48 Q2260.6 1457.48 2258.78 1461.04 Q2256.97 1464.58 2256.97 1471.71 Q2256.97 1478.82 2258.78 1482.38 Q2260.6 1485.92 2264.21 1485.92 Q2267.85 1485.92 2269.65 1482.38 Q2271.48 1478.82 2271.48 1471.71 Q2271.48 1464.58 2269.65 1461.04 Q2267.85 1457.48 2264.21 1457.48 M2264.21 1453.77 Q2270.03 1453.77 2273.08 1458.38 Q2276.16 1462.96 2276.16 1471.71 Q2276.16 1480.44 2273.08 1485.04 Q2270.03 1489.63 2264.21 1489.63 Q2258.4 1489.63 2255.33 1485.04 Q2252.27 1480.44 2252.27 1471.71 Q2252.27 1462.96 2255.33 1458.38 Q2258.4 1453.77 2264.21 1453.77 Z" fill="#000000" fill-rule="evenodd" fill-opacity="1" /><path clip-path="url(#clip280)" d="M2276.16 1447.87 L2300.27 1447.87 L2300.27 1451.07 L2276.16 1451.07 L2276.16 1447.87 Z" fill="#000000" fill-rule="evenodd" fill-opacity="1" /><path clip-path="url(#clip280)" d="M2318.91 1436.78 L2309.32 1451.77 L2318.91 1451.77 L2318.91 1436.78 M2317.91 1433.47 L2322.69 1433.47 L2322.69 1451.77 L2326.7 1451.77 L2326.7 1454.93 L2322.69 1454.93 L2322.69 1461.55 L2318.91 1461.55 L2318.91 1454.93 L2306.23 1454.93 L2306.23 1451.26 L2317.91 1433.47 Z" fill="#000000" fill-rule="evenodd" fill-opacity="1" /><path clip-path="url(#clip280)" d="M2332.98 1456.77 L2336.95 1456.77 L2336.95 1461.55 L2332.98 1461.55 L2332.98 1456.77 Z" fill="#000000" fill-rule="evenodd" fill-opacity="1" /><path clip-path="url(#clip280)" d="M2345.26 1433.47 L2360.17 1433.47 L2360.17 1436.66 L2348.74 1436.66 L2348.74 1443.55 Q2349.57 1443.27 2350.39 1443.13 Q2351.22 1442.98 2352.05 1442.98 Q2356.75 1442.98 2359.5 1445.56 Q2362.24 1448.14 2362.24 1452.54 Q2362.24 1457.07 2359.42 1459.59 Q2356.6 1462.09 2351.47 1462.09 Q2349.7 1462.09 2347.85 1461.79 Q2346.03 1461.49 2344.07 1460.89 L2344.07 1457.07 Q2345.77 1457.99 2347.57 1458.44 Q2349.38 1458.89 2351.39 1458.89 Q2354.64 1458.89 2356.54 1457.18 Q2358.44 1455.47 2358.44 1452.54 Q2358.44 1449.6 2356.54 1447.89 Q2354.64 1446.18 2351.39 1446.18 Q2349.87 1446.18 2348.34 1446.52 Q2346.84 1446.86 2345.26 1447.57 L2345.26 1433.47 Z" fill="#000000" fill-rule="evenodd" fill-opacity="1" /><path clip-path="url(#clip280)" d="M1187.72 1538.54 L1193.93 1538.54 L1205.07 1568.46 L1216.21 1538.54 L1222.42 1538.54 L1209.05 1574.19 L1201.09 1574.19 L1187.72 1538.54 Z" fill="#000000" fill-rule="evenodd" fill-opacity="1" /><path clip-path="url(#clip280)" d="M1257.59 1585.01 L1257.59 1589.56 L1223.72 1589.56 L1223.72 1585.01 L1257.59 1585.01 Z" fill="#000000" fill-rule="evenodd" fill-opacity="1" /><path clip-path="url(#clip280)" d="M1276.91 1542.64 Q1272.2 1542.64 1269.46 1546.34 Q1266.72 1550 1266.72 1556.39 Q1266.72 1562.79 1269.43 1566.48 Q1272.16 1570.14 1276.91 1570.14 Q1281.59 1570.14 1284.32 1566.45 Q1287.06 1562.76 1287.06 1556.39 Q1287.06 1550.06 1284.32 1546.37 Q1281.59 1542.64 1276.91 1542.64 M1276.91 1537.68 Q1284.55 1537.68 1288.91 1542.64 Q1293.27 1547.61 1293.27 1556.39 Q1293.27 1565.15 1288.91 1570.14 Q1284.55 1575.11 1276.91 1575.11 Q1269.24 1575.11 1264.88 1570.14 Q1260.55 1565.15 1260.55 1556.39 Q1260.55 1547.61 1264.88 1542.64 Q1269.24 1537.68 1276.91 1537.68 Z" fill="#000000" fill-rule="evenodd" fill-opacity="1" /><path clip-path="url(#clip280)" d="M1308.64 1568.84 L1308.64 1587.74 L1302.75 1587.74 L1302.75 1538.54 L1308.64 1538.54 L1308.64 1543.95 Q1310.49 1540.77 1313.29 1539.24 Q1316.12 1537.68 1320.03 1537.68 Q1326.53 1537.68 1330.57 1542.83 Q1334.64 1547.99 1334.64 1556.39 Q1334.64 1564.8 1330.57 1569.95 Q1326.53 1575.11 1320.03 1575.11 Q1316.12 1575.11 1313.29 1573.58 Q1310.49 1572.02 1308.64 1568.84 M1328.56 1556.39 Q1328.56 1549.93 1325.89 1546.27 Q1323.25 1542.58 1318.6 1542.58 Q1313.96 1542.58 1311.28 1546.27 Q1308.64 1549.93 1308.64 1556.39 Q1308.64 1562.85 1311.28 1566.55 Q1313.96 1570.21 1318.6 1570.21 Q1323.25 1570.21 1325.89 1566.55 Q1328.56 1562.85 1328.56 1556.39 Z" fill="#000000" fill-rule="evenodd" fill-opacity="1" /><path clip-path="url(#clip280)" d="M1374.84 1554.9 L1374.84 1557.76 L1347.92 1557.76 Q1348.3 1563.81 1351.55 1566.99 Q1354.82 1570.14 1360.65 1570.14 Q1364.02 1570.14 1367.17 1569.32 Q1370.36 1568.49 1373.47 1566.83 L1373.47 1572.37 Q1370.32 1573.71 1367.01 1574.41 Q1363.7 1575.11 1360.3 1575.11 Q1351.77 1575.11 1346.77 1570.14 Q1341.81 1565.18 1341.81 1556.71 Q1341.81 1547.96 1346.52 1542.83 Q1351.26 1537.68 1359.28 1537.68 Q1366.47 1537.68 1370.64 1542.33 Q1374.84 1546.94 1374.84 1554.9 M1368.99 1553.18 Q1368.92 1548.37 1366.28 1545.51 Q1363.67 1542.64 1359.34 1542.64 Q1354.44 1542.64 1351.48 1545.41 Q1348.55 1548.18 1348.11 1553.21 L1368.99 1553.18 Z" fill="#000000" fill-rule="evenodd" fill-opacity="1" /><path clip-path="url(#clip280)" d="M1414.09 1552.67 L1414.09 1574.19 L1408.23 1574.19 L1408.23 1552.86 Q1408.23 1547.8 1406.26 1545.29 Q1404.28 1542.77 1400.34 1542.77 Q1395.6 1542.77 1392.86 1545.79 Q1390.12 1548.82 1390.12 1554.04 L1390.12 1574.19 L1384.23 1574.19 L1384.23 1538.54 L1390.12 1538.54 L1390.12 1544.08 Q1392.22 1540.86 1395.05 1539.27 Q1397.92 1537.68 1401.64 1537.68 Q1407.79 1537.68 1410.94 1541.5 Q1414.09 1545.29 1414.09 1552.67 Z" fill="#000000" fill-rule="evenodd" fill-opacity="1" /><polyline clip-path="url(#clip282)" style="stroke:#000000; stroke-linecap:butt; stroke-linejoin:round; stroke-width:2; stroke-opacity:0.1; fill:none" points="
  249.056,1228.84 2352.76,1228.84 
  "/>
<polyline clip-path="url(#clip282)" style="stroke:#000000; stroke-linecap:butt; stroke-linejoin:round; stroke-width:2; stroke-opacity:0.1; fill:none" points="
  249.056,949.348 2352.76,949.348 
  "/>
<polyline clip-path="url(#clip282)" style="stroke:#000000; stroke-linecap:butt; stroke-linejoin:round; stroke-width:2; stroke-opacity:0.1; fill:none" points="
  249.056,669.859 2352.76,669.859 
  "/>
<polyline clip-path="url(#clip282)" style="stroke:#000000; stroke-linecap:butt; stroke-linejoin:round; stroke-width:2; stroke-opacity:0.1; fill:none" points="
  249.056,390.37 2352.76,390.37 
  "/>
<polyline clip-path="url(#clip282)" style="stroke:#000000; stroke-linecap:butt; stroke-linejoin:round; stroke-width:2; stroke-opacity:0.1; fill:none" points="
  249.056,110.882 2352.76,110.882 
  "/>
<polyline clip-path="url(#clip280)" style="stroke:#000000; stroke-linecap:butt; stroke-linejoin:round; stroke-width:4; stroke-opacity:1; fill:none" points="
  249.056,1410.9 249.056,47.2441 
  "/>
<polyline clip-path="url(#clip280)" style="stroke:#000000; stroke-linecap:butt; stroke-linejoin:round; stroke-width:4; stroke-opacity:1; fill:none" points="
  249.056,1228.84 267.954,1228.84 
  "/>
<polyline clip-path="url(#clip280)" style="stroke:#000000; stroke-linecap:butt; stroke-linejoin:round; stroke-width:4; stroke-opacity:1; fill:none" points="
  249.056,949.348 267.954,949.348 
  "/>
<polyline clip-path="url(#clip280)" style="stroke:#000000; stroke-linecap:butt; stroke-linejoin:round; stroke-width:4; stroke-opacity:1; fill:none" points="
  249.056,669.859 267.954,669.859 
  "/>
<polyline clip-path="url(#clip280)" style="stroke:#000000; stroke-linecap:butt; stroke-linejoin:round; stroke-width:4; stroke-opacity:1; fill:none" points="
  249.056,390.37 267.954,390.37 
  "/>
<polyline clip-path="url(#clip280)" style="stroke:#000000; stroke-linecap:butt; stroke-linejoin:round; stroke-width:4; stroke-opacity:1; fill:none" points="
  249.056,110.882 267.954,110.882 
  "/>
<path clip-path="url(#clip280)" d="M129.885 1227.48 Q133.242 1228.2 135.117 1230.47 Q137.015 1232.74 137.015 1236.07 Q137.015 1241.19 133.496 1243.99 Q129.978 1246.79 123.496 1246.79 Q121.32 1246.79 119.006 1246.35 Q116.714 1245.93 114.26 1245.07 L114.26 1240.56 Q116.205 1241.69 118.519 1242.27 Q120.834 1242.85 123.357 1242.85 Q127.755 1242.85 130.047 1241.12 Q132.362 1239.38 132.362 1236.07 Q132.362 1233.01 130.209 1231.3 Q128.08 1229.57 124.26 1229.57 L120.232 1229.57 L120.232 1225.72 L124.445 1225.72 Q127.894 1225.72 129.723 1224.36 Q131.552 1222.97 131.552 1220.38 Q131.552 1217.71 129.654 1216.3 Q127.779 1214.87 124.26 1214.87 Q122.339 1214.87 120.14 1215.28 Q117.941 1215.7 115.302 1216.58 L115.302 1212.41 Q117.964 1211.67 120.279 1211.3 Q122.617 1210.93 124.677 1210.93 Q130.001 1210.93 133.103 1213.36 Q136.204 1215.77 136.204 1219.89 Q136.204 1222.76 134.561 1224.75 Q132.917 1226.72 129.885 1227.48 Z" fill="#000000" fill-rule="evenodd" fill-opacity="1" /><path clip-path="url(#clip280)" d="M145.88 1240.24 L150.765 1240.24 L150.765 1246.12 L145.88 1246.12 L145.88 1240.24 Z" fill="#000000" fill-rule="evenodd" fill-opacity="1" /><path clip-path="url(#clip280)" d="M173.797 1215.63 L161.991 1234.08 L173.797 1234.08 L173.797 1215.63 M172.57 1211.56 L178.45 1211.56 L178.45 1234.08 L183.38 1234.08 L183.38 1237.97 L178.45 1237.97 L178.45 1246.12 L173.797 1246.12 L173.797 1237.97 L158.195 1237.97 L158.195 1233.45 L172.57 1211.56 Z" fill="#000000" fill-rule="evenodd" fill-opacity="1" /><path clip-path="url(#clip280)" d="M201.112 1214.63 Q197.5 1214.63 195.672 1218.2 Q193.866 1221.74 193.866 1228.87 Q193.866 1235.98 195.672 1239.54 Q197.5 1243.08 201.112 1243.08 Q204.746 1243.08 206.551 1239.54 Q208.38 1235.98 208.38 1228.87 Q208.38 1221.74 206.551 1218.2 Q204.746 1214.63 201.112 1214.63 M201.112 1210.93 Q206.922 1210.93 209.977 1215.54 Q213.056 1220.12 213.056 1228.87 Q213.056 1237.6 209.977 1242.2 Q206.922 1246.79 201.112 1246.79 Q195.301 1246.79 192.223 1242.2 Q189.167 1237.6 189.167 1228.87 Q189.167 1220.12 192.223 1215.54 Q195.301 1210.93 201.112 1210.93 Z" fill="#000000" fill-rule="evenodd" fill-opacity="1" /><path clip-path="url(#clip280)" d="M130.88 947.993 Q134.237 948.711 136.112 950.979 Q138.01 953.248 138.01 956.581 Q138.01 961.697 134.492 964.498 Q130.973 967.299 124.492 967.299 Q122.316 967.299 120.001 966.859 Q117.709 966.442 115.256 965.586 L115.256 961.072 Q117.2 962.206 119.515 962.785 Q121.83 963.364 124.353 963.364 Q128.751 963.364 131.042 961.628 Q133.357 959.891 133.357 956.581 Q133.357 953.526 131.205 951.813 Q129.075 950.077 125.255 950.077 L121.228 950.077 L121.228 946.234 L125.441 946.234 Q128.89 946.234 130.718 944.868 Q132.547 943.48 132.547 940.887 Q132.547 938.225 130.649 936.813 Q128.774 935.378 125.255 935.378 Q123.334 935.378 121.135 935.794 Q118.936 936.211 116.297 937.091 L116.297 932.924 Q118.959 932.183 121.274 931.813 Q123.612 931.443 125.672 931.443 Q130.996 931.443 134.098 933.873 Q137.2 936.28 137.2 940.401 Q137.2 943.271 135.556 945.262 Q133.913 947.229 130.88 947.993 Z" fill="#000000" fill-rule="evenodd" fill-opacity="1" /><path clip-path="url(#clip280)" d="M146.876 960.748 L151.76 960.748 L151.76 966.628 L146.876 966.628 L146.876 960.748 Z" fill="#000000" fill-rule="evenodd" fill-opacity="1" /><path clip-path="url(#clip280)" d="M174.792 936.142 L162.987 954.591 L174.792 954.591 L174.792 936.142 M173.565 932.068 L179.445 932.068 L179.445 954.591 L184.376 954.591 L184.376 958.479 L179.445 958.479 L179.445 966.628 L174.792 966.628 L174.792 958.479 L159.19 958.479 L159.19 953.966 L173.565 932.068 Z" fill="#000000" fill-rule="evenodd" fill-opacity="1" /><path clip-path="url(#clip280)" d="M192.153 932.068 L210.51 932.068 L210.51 936.003 L196.436 936.003 L196.436 944.475 Q197.454 944.128 198.473 943.966 Q199.491 943.78 200.51 943.78 Q206.297 943.78 209.676 946.952 Q213.056 950.123 213.056 955.54 Q213.056 961.118 209.584 964.22 Q206.112 967.299 199.792 967.299 Q197.616 967.299 195.348 966.928 Q193.102 966.558 190.695 965.817 L190.695 961.118 Q192.778 962.253 195 962.808 Q197.223 963.364 199.7 963.364 Q203.704 963.364 206.042 961.257 Q208.38 959.151 208.38 955.54 Q208.38 951.929 206.042 949.822 Q203.704 947.716 199.7 947.716 Q197.825 947.716 195.95 948.132 Q194.098 948.549 192.153 949.429 L192.153 932.068 Z" fill="#000000" fill-rule="evenodd" fill-opacity="1" /><path clip-path="url(#clip280)" d="M129.885 668.505 Q133.242 669.222 135.117 671.491 Q137.015 673.759 137.015 677.093 Q137.015 682.208 133.496 685.009 Q129.978 687.81 123.496 687.81 Q121.32 687.81 119.006 687.37 Q116.714 686.954 114.26 686.097 L114.26 681.583 Q116.205 682.718 118.519 683.296 Q120.834 683.875 123.357 683.875 Q127.755 683.875 130.047 682.139 Q132.362 680.403 132.362 677.093 Q132.362 674.037 130.209 672.324 Q128.08 670.588 124.26 670.588 L120.232 670.588 L120.232 666.746 L124.445 666.746 Q127.894 666.746 129.723 665.38 Q131.552 663.991 131.552 661.398 Q131.552 658.736 129.654 657.324 Q127.779 655.889 124.26 655.889 Q122.339 655.889 120.14 656.306 Q117.941 656.722 115.302 657.602 L115.302 653.435 Q117.964 652.695 120.279 652.324 Q122.617 651.954 124.677 651.954 Q130.001 651.954 133.103 654.384 Q136.204 656.792 136.204 660.912 Q136.204 663.783 134.561 665.773 Q132.917 667.741 129.885 668.505 Z" fill="#000000" fill-rule="evenodd" fill-opacity="1" /><path clip-path="url(#clip280)" d="M145.88 681.259 L150.765 681.259 L150.765 687.139 L145.88 687.139 L145.88 681.259 Z" fill="#000000" fill-rule="evenodd" fill-opacity="1" /><path clip-path="url(#clip280)" d="M160.996 652.579 L179.352 652.579 L179.352 656.514 L165.278 656.514 L165.278 664.986 Q166.297 664.639 167.315 664.477 Q168.334 664.292 169.352 664.292 Q175.139 664.292 178.519 667.463 Q181.899 670.634 181.899 676.051 Q181.899 681.63 178.426 684.732 Q174.954 687.81 168.635 687.81 Q166.459 687.81 164.19 687.44 Q161.945 687.069 159.538 686.329 L159.538 681.63 Q161.621 682.764 163.843 683.32 Q166.065 683.875 168.542 683.875 Q172.547 683.875 174.885 681.769 Q177.223 679.662 177.223 676.051 Q177.223 672.44 174.885 670.333 Q172.547 668.227 168.542 668.227 Q166.667 668.227 164.792 668.644 Q162.94 669.06 160.996 669.94 L160.996 652.579 Z" fill="#000000" fill-rule="evenodd" fill-opacity="1" /><path clip-path="url(#clip280)" d="M201.112 655.658 Q197.5 655.658 195.672 659.222 Q193.866 662.764 193.866 669.894 Q193.866 677 195.672 680.565 Q197.5 684.107 201.112 684.107 Q204.746 684.107 206.551 680.565 Q208.38 677 208.38 669.894 Q208.38 662.764 206.551 659.222 Q204.746 655.658 201.112 655.658 M201.112 651.954 Q206.922 651.954 209.977 656.56 Q213.056 661.144 213.056 669.894 Q213.056 678.62 209.977 683.227 Q206.922 687.81 201.112 687.81 Q195.301 687.81 192.223 683.227 Q189.167 678.62 189.167 669.894 Q189.167 661.144 192.223 656.56 Q195.301 651.954 201.112 651.954 Z" fill="#000000" fill-rule="evenodd" fill-opacity="1" /><path clip-path="url(#clip280)" d="M130.88 389.016 Q134.237 389.734 136.112 392.002 Q138.01 394.271 138.01 397.604 Q138.01 402.72 134.492 405.521 Q130.973 408.322 124.492 408.322 Q122.316 408.322 120.001 407.882 Q117.709 407.465 115.256 406.609 L115.256 402.095 Q117.2 403.229 119.515 403.808 Q121.83 404.386 124.353 404.386 Q128.751 404.386 131.042 402.65 Q133.357 400.914 133.357 397.604 Q133.357 394.549 131.205 392.836 Q129.075 391.099 125.255 391.099 L121.228 391.099 L121.228 387.257 L125.441 387.257 Q128.89 387.257 130.718 385.891 Q132.547 384.502 132.547 381.91 Q132.547 379.248 130.649 377.836 Q128.774 376.4 125.255 376.4 Q123.334 376.4 121.135 376.817 Q118.936 377.234 116.297 378.113 L116.297 373.947 Q118.959 373.206 121.274 372.836 Q123.612 372.465 125.672 372.465 Q130.996 372.465 134.098 374.896 Q137.2 377.303 137.2 381.424 Q137.2 384.294 135.556 386.285 Q133.913 388.252 130.88 389.016 Z" fill="#000000" fill-rule="evenodd" fill-opacity="1" /><path clip-path="url(#clip280)" d="M146.876 401.771 L151.76 401.771 L151.76 407.65 L146.876 407.65 L146.876 401.771 Z" fill="#000000" fill-rule="evenodd" fill-opacity="1" /><path clip-path="url(#clip280)" d="M161.991 373.09 L180.348 373.09 L180.348 377.025 L166.274 377.025 L166.274 385.498 Q167.292 385.15 168.311 384.988 Q169.329 384.803 170.348 384.803 Q176.135 384.803 179.514 387.974 Q182.894 391.146 182.894 396.562 Q182.894 402.141 179.422 405.243 Q175.95 408.322 169.63 408.322 Q167.454 408.322 165.186 407.951 Q162.94 407.581 160.533 406.84 L160.533 402.141 Q162.616 403.275 164.839 403.831 Q167.061 404.386 169.538 404.386 Q173.542 404.386 175.88 402.28 Q178.218 400.174 178.218 396.562 Q178.218 392.951 175.88 390.845 Q173.542 388.738 169.538 388.738 Q167.663 388.738 165.788 389.155 Q163.936 389.572 161.991 390.451 L161.991 373.09 Z" fill="#000000" fill-rule="evenodd" fill-opacity="1" /><path clip-path="url(#clip280)" d="M192.153 373.09 L210.51 373.09 L210.51 377.025 L196.436 377.025 L196.436 385.498 Q197.454 385.15 198.473 384.988 Q199.491 384.803 200.51 384.803 Q206.297 384.803 209.676 387.974 Q213.056 391.146 213.056 396.562 Q213.056 402.141 209.584 405.243 Q206.112 408.322 199.792 408.322 Q197.616 408.322 195.348 407.951 Q193.102 407.581 190.695 406.84 L190.695 402.141 Q192.778 403.275 195 403.831 Q197.223 404.386 199.7 404.386 Q203.704 404.386 206.042 402.28 Q208.38 400.174 208.38 396.562 Q208.38 392.951 206.042 390.845 Q203.704 388.738 199.7 388.738 Q197.825 388.738 195.95 389.155 Q194.098 389.572 192.153 390.451 L192.153 373.09 Z" fill="#000000" fill-rule="evenodd" fill-opacity="1" /><path clip-path="url(#clip280)" d="M129.885 109.528 Q133.242 110.245 135.117 112.514 Q137.015 114.782 137.015 118.115 Q137.015 123.231 133.496 126.032 Q129.978 128.833 123.496 128.833 Q121.32 128.833 119.006 128.393 Q116.714 127.977 114.26 127.12 L114.26 122.606 Q116.205 123.74 118.519 124.319 Q120.834 124.898 123.357 124.898 Q127.755 124.898 130.047 123.162 Q132.362 121.426 132.362 118.115 Q132.362 115.06 130.209 113.347 Q128.08 111.611 124.26 111.611 L120.232 111.611 L120.232 107.768 L124.445 107.768 Q127.894 107.768 129.723 106.403 Q131.552 105.014 131.552 102.421 Q131.552 99.7591 129.654 98.347 Q127.779 96.9119 124.26 96.9119 Q122.339 96.9119 120.14 97.3285 Q117.941 97.7452 115.302 98.6248 L115.302 94.4582 Q117.964 93.7174 120.279 93.3471 Q122.617 92.9767 124.677 92.9767 Q130.001 92.9767 133.103 95.4073 Q136.204 97.8146 136.204 101.935 Q136.204 104.805 134.561 106.796 Q132.917 108.764 129.885 109.528 Z" fill="#000000" fill-rule="evenodd" fill-opacity="1" /><path clip-path="url(#clip280)" d="M145.88 122.282 L150.765 122.282 L150.765 128.162 L145.88 128.162 L145.88 122.282 Z" fill="#000000" fill-rule="evenodd" fill-opacity="1" /><path clip-path="url(#clip280)" d="M171.528 109.018 Q168.38 109.018 166.528 111.171 Q164.7 113.324 164.7 117.074 Q164.7 120.801 166.528 122.977 Q168.38 125.129 171.528 125.129 Q174.677 125.129 176.505 122.977 Q178.357 120.801 178.357 117.074 Q178.357 113.324 176.505 111.171 Q174.677 109.018 171.528 109.018 M180.811 94.3656 L180.811 98.6248 Q179.051 97.7915 177.246 97.3517 Q175.464 96.9119 173.704 96.9119 Q169.075 96.9119 166.621 100.037 Q164.19 103.162 163.843 109.481 Q165.209 107.467 167.269 106.403 Q169.329 105.315 171.806 105.315 Q177.014 105.315 180.024 108.486 Q183.056 111.634 183.056 117.074 Q183.056 122.398 179.908 125.615 Q176.76 128.833 171.528 128.833 Q165.533 128.833 162.362 124.25 Q159.19 119.643 159.19 110.916 Q159.19 102.722 163.079 97.8609 Q166.968 92.9767 173.519 92.9767 Q175.278 92.9767 177.061 93.3239 Q178.866 93.6711 180.811 94.3656 Z" fill="#000000" fill-rule="evenodd" fill-opacity="1" /><path clip-path="url(#clip280)" d="M201.112 96.6804 Q197.5 96.6804 195.672 100.245 Q193.866 103.787 193.866 110.916 Q193.866 118.023 195.672 121.588 Q197.5 125.129 201.112 125.129 Q204.746 125.129 206.551 121.588 Q208.38 118.023 208.38 110.916 Q208.38 103.787 206.551 100.245 Q204.746 96.6804 201.112 96.6804 M201.112 92.9767 Q206.922 92.9767 209.977 97.5832 Q213.056 102.166 213.056 110.916 Q213.056 119.643 209.977 124.25 Q206.922 128.833 201.112 128.833 Q195.301 128.833 192.223 124.25 Q189.167 119.643 189.167 110.916 Q189.167 102.166 192.223 97.5832 Q195.301 92.9767 201.112 92.9767 Z" fill="#000000" fill-rule="evenodd" fill-opacity="1" /><path clip-path="url(#clip280)" d="M35.1993 829.203 Q31.2526 827.007 29.3747 823.951 Q27.4968 820.896 27.4968 816.758 Q27.4968 811.188 31.4117 808.164 Q35.2948 805.141 42.4881 805.141 L64.0042 805.141 L64.0042 811.029 L42.679 811.029 Q37.5546 811.029 35.072 812.843 Q32.5894 814.657 32.5894 818.381 Q32.5894 822.933 35.6131 825.574 Q38.6368 828.216 43.8567 828.216 L64.0042 828.216 L64.0042 834.105 L42.679 834.105 Q37.5228 834.105 35.072 835.919 Q32.5894 837.733 32.5894 841.521 Q32.5894 846.008 35.6449 848.65 Q38.6686 851.292 43.8567 851.292 L64.0042 851.292 L64.0042 857.18 L28.3562 857.18 L28.3562 851.292 L33.8944 851.292 Q30.616 849.287 29.0564 846.486 Q27.4968 843.685 27.4968 839.834 Q27.4968 835.951 29.4702 833.245 Q31.4436 830.508 35.1993 829.203 Z" fill="#000000" fill-rule="evenodd" fill-opacity="1" /><path clip-path="url(#clip280)" d="M28.3562 793.459 L28.3562 787.603 L64.0042 787.603 L64.0042 793.459 L28.3562 793.459 M14.479 793.459 L14.479 787.603 L21.895 787.603 L21.895 793.459 L14.479 793.459 Z" fill="#000000" fill-rule="evenodd" fill-opacity="1" /><path clip-path="url(#clip280)" d="M42.4881 745.717 L64.0042 745.717 L64.0042 751.573 L42.679 751.573 Q37.6183 751.573 35.1038 753.547 Q32.5894 755.52 32.5894 759.467 Q32.5894 764.209 35.6131 766.946 Q38.6368 769.684 43.8567 769.684 L64.0042 769.684 L64.0042 775.572 L28.3562 775.572 L28.3562 769.684 L33.8944 769.684 Q30.6797 767.583 29.0883 764.75 Q27.4968 761.886 27.4968 758.162 Q27.4968 752.019 31.3163 748.868 Q35.1038 745.717 42.4881 745.717 Z" fill="#000000" fill-rule="evenodd" fill-opacity="1" /><path clip-path="url(#clip280)" d="M74.8259 706.95 L79.3773 706.95 L79.3773 740.815 L74.8259 740.815 L74.8259 706.95 Z" fill="#000000" fill-rule="evenodd" fill-opacity="1" /><path clip-path="url(#clip280)" d="M33.7671 677.986 L14.479 677.986 L14.479 672.129 L64.0042 672.129 L64.0042 677.986 L58.657 677.986 Q61.8398 679.832 63.3994 682.664 Q64.9272 685.465 64.9272 689.412 Q64.9272 695.873 59.771 699.947 Q54.6147 703.989 46.212 703.989 Q37.8093 703.989 32.6531 699.947 Q27.4968 695.873 27.4968 689.412 Q27.4968 685.465 29.0564 682.664 Q30.5842 679.832 33.7671 677.986 M46.212 697.942 Q52.6732 697.942 56.3653 695.3 Q60.0256 692.627 60.0256 687.98 Q60.0256 683.333 56.3653 680.659 Q52.6732 677.986 46.212 677.986 Q39.7508 677.986 36.0905 680.659 Q32.3984 683.333 32.3984 687.98 Q32.3984 692.627 36.0905 695.3 Q39.7508 697.942 46.212 697.942 Z" fill="#000000" fill-rule="evenodd" fill-opacity="1" /><path clip-path="url(#clip280)" d="M28.3562 660.066 L28.3562 654.21 L64.0042 654.21 L64.0042 660.066 L28.3562 660.066 M14.479 660.066 L14.479 654.21 L21.895 654.21 L21.895 660.066 L14.479 660.066 Z" fill="#000000" fill-rule="evenodd" fill-opacity="1" /><path clip-path="url(#clip280)" d="M14.479 623.909 L19.3487 623.909 L19.3487 629.511 Q19.3487 632.662 20.6219 633.903 Q21.895 635.113 25.2052 635.113 L28.3562 635.113 L28.3562 625.468 L32.9077 625.468 L32.9077 635.113 L64.0042 635.113 L64.0042 641.001 L32.9077 641.001 L32.9077 646.603 L28.3562 646.603 L28.3562 641.001 L25.8736 641.001 Q19.9216 641.001 17.2162 638.232 Q14.479 635.463 14.479 629.447 L14.479 623.909 Z" fill="#000000" fill-rule="evenodd" fill-opacity="1" /><path clip-path="url(#clip280)" d="M14.479 600.961 L19.3487 600.961 L19.3487 606.562 Q19.3487 609.713 20.6219 610.955 Q21.895 612.164 25.2052 612.164 L28.3562 612.164 L28.3562 602.52 L32.9077 602.52 L32.9077 612.164 L64.0042 612.164 L64.0042 618.052 L32.9077 618.052 L32.9077 623.654 L28.3562 623.654 L28.3562 618.052 L25.8736 618.052 Q19.9216 618.052 17.2162 615.283 Q14.479 612.514 14.479 606.499 L14.479 600.961 Z" fill="#000000" fill-rule="evenodd" fill-opacity="1" /><polyline clip-path="url(#clip282)" style="stroke:#009af9; stroke-linecap:butt; stroke-linejoin:round; stroke-width:20; stroke-opacity:1; fill:none" stroke-dasharray="80, 50" points="
  308.595,85.838 1300.91,814.465 2293.22,1372.3 
  "/>
<path clip-path="url(#clip280)" d="
M1996.46 196.379 L2282.63 196.379 L2282.63 92.6992 L1996.46 92.6992  Z
  " fill="#ffffff" fill-rule="evenodd" fill-opacity="1"/>
<polyline clip-path="url(#clip280)" style="stroke:#000000; stroke-linecap:butt; stroke-linejoin:round; stroke-width:4; stroke-opacity:1; fill:none" points="
  1996.46,196.379 2282.63,196.379 2282.63,92.6992 1996.46,92.6992 1996.46,196.379 
  "/>
<polyline clip-path="url(#clip280)" style="stroke:#009af9; stroke-linecap:butt; stroke-linejoin:round; stroke-width:4; stroke-opacity:1; fill:none" stroke-dasharray="16, 10" points="
  2019.83,144.539 2160.08,144.539 
  "/>
<path clip-path="url(#clip280)" d="M2197.3 164.227 Q2195.49 168.856 2193.78 170.268 Q2192.06 171.68 2189.19 171.68 L2185.79 171.68 L2185.79 168.115 L2188.29 168.115 Q2190.05 168.115 2191.02 167.282 Q2192 166.449 2193.18 163.347 L2193.94 161.403 L2183.45 135.893 L2187.97 135.893 L2196.07 156.171 L2204.17 135.893 L2208.68 135.893 L2197.3 164.227 Z" fill="#000000" fill-rule="evenodd" fill-opacity="1" /><path clip-path="url(#clip280)" d="M2215.98 157.884 L2223.62 157.884 L2223.62 131.518 L2215.31 133.185 L2215.31 128.926 L2223.57 127.259 L2228.24 127.259 L2228.24 157.884 L2235.88 157.884 L2235.88 161.819 L2215.98 161.819 L2215.98 157.884 Z" fill="#000000" fill-rule="evenodd" fill-opacity="1" /></svg>
