<?xml version="1.0" encoding="utf-8"?>
<svg xmlns="http://www.w3.org/2000/svg" xmlns:xlink="http://www.w3.org/1999/xlink" width="600" height="400" viewBox="0 0 2400 1600">
<defs>
  <clipPath id="clip170">
    <rect x="0" y="0" width="2400" height="1600"/>
  </clipPath>
</defs>
<path clip-path="url(#clip170)" d="
M0 1600 L2400 1600 L2400 0 L0 0  Z
  " fill="#ffffff" fill-rule="evenodd" fill-opacity="1"/>
<defs>
  <clipPath id="clip171">
    <rect x="480" y="0" width="1681" height="1600"/>
  </clipPath>
</defs>
<path clip-path="url(#clip170)" d="
M212.899 1410.9 L2352.76 1410.9 L2352.76 47.2441 L212.899 47.2441  Z
  " fill="#ffffff" fill-rule="evenodd" fill-opacity="1"/>
<defs>
  <clipPath id="clip172">
    <rect x="212" y="47" width="2141" height="1365"/>
  </clipPath>
</defs>
<polyline clip-path="url(#clip172)" style="stroke:#000000; stroke-width:2; stroke-opacity:0.1; fill:none" points="
  273.461,1410.9 273.461,47.2441 
  "/>
<polyline clip-path="url(#clip172)" style="stroke:#000000; stroke-width:2; stroke-opacity:0.1; fill:none" points="
  677.207,1410.9 677.207,47.2441 
  "/>
<polyline clip-path="url(#clip172)" style="stroke:#000000; stroke-width:2; stroke-opacity:0.1; fill:none" points="
  1080.95,1410.9 1080.95,47.2441 
  "/>
<polyline clip-path="url(#clip172)" style="stroke:#000000; stroke-width:2; stroke-opacity:0.1; fill:none" points="
  1484.7,1410.9 1484.7,47.2441 
  "/>
<polyline clip-path="url(#clip172)" style="stroke:#000000; stroke-width:2; stroke-opacity:0.1; fill:none" points="
  1888.45,1410.9 1888.45,47.2441 
  "/>
<polyline clip-path="url(#clip172)" style="stroke:#000000; stroke-width:2; stroke-opacity:0.1; fill:none" points="
  2292.19,1410.9 2292.19,47.2441 
  "/>
<polyline clip-path="url(#clip170)" style="stroke:#000000; stroke-width:4; stroke-opacity:1; fill:none" points="
  212.899,1410.9 2352.76,1410.9 
  "/>
<polyline clip-path="url(#clip170)" style="stroke:#000000; stroke-width:4; stroke-opacity:1; fill:none" points="
  273.461,1410.9 273.461,1394.53 
  "/>
<polyline clip-path="url(#clip170)" style="stroke:#000000; stroke-width:4; stroke-opacity:1; fill:none" points="
  677.207,1410.9 677.207,1394.53 
  "/>
<polyline clip-path="url(#clip170)" style="stroke:#000000; stroke-width:4; stroke-opacity:1; fill:none" points="
  1080.95,1410.9 1080.95,1394.53 
  "/>
<polyline clip-path="url(#clip170)" style="stroke:#000000; stroke-width:4; stroke-opacity:1; fill:none" points="
  1484.7,1410.9 1484.7,1394.53 
  "/>
<polyline clip-path="url(#clip170)" style="stroke:#000000; stroke-width:4; stroke-opacity:1; fill:none" points="
  1888.45,1410.9 1888.45,1394.53 
  "/>
<polyline clip-path="url(#clip170)" style="stroke:#000000; stroke-width:4; stroke-opacity:1; fill:none" points="
  2292.19,1410.9 2292.19,1394.53 
  "/>
<path clip-path="url(#clip170)" d="M 0 0 M227.71 1489.17 L235.349 1489.17 L235.349 1462.8 L227.039 1464.47 L227.039 1460.21 L235.303 1458.54 L239.979 1458.54 L239.979 1489.17 L247.617 1489.17 L247.617 1493.1 L227.71 1493.1 L227.71 1489.17 Z" fill="#000000" fill-rule="evenodd" fill-opacity="1" /><path clip-path="url(#clip170)" d="M 0 0 M262.687 1461.62 Q259.076 1461.62 257.247 1465.19 Q255.441 1468.73 255.441 1475.86 Q255.441 1482.97 257.247 1486.53 Q259.076 1490.07 262.687 1490.07 Q266.321 1490.07 268.127 1486.53 Q269.955 1482.97 269.955 1475.86 Q269.955 1468.73 268.127 1465.19 Q266.321 1461.62 262.687 1461.62 M262.687 1457.92 Q268.497 1457.92 271.552 1462.53 Q274.631 1467.11 274.631 1475.86 Q274.631 1484.59 271.552 1489.19 Q268.497 1493.78 262.687 1493.78 Q256.877 1493.78 253.798 1489.19 Q250.742 1484.59 250.742 1475.86 Q250.742 1467.11 253.798 1462.53 Q256.877 1457.92 262.687 1457.92 Z" fill="#000000" fill-rule="evenodd" fill-opacity="1" /><path clip-path="url(#clip170)" d="M 0 0 M274.631 1452.02 L298.743 1452.02 L298.743 1455.22 L274.631 1455.22 L274.631 1452.02 Z" fill="#000000" fill-rule="evenodd" fill-opacity="1" /><path clip-path="url(#clip170)" d="M 0 0 M302.899 1437.61 L317.814 1437.61 L317.814 1440.81 L306.379 1440.81 L306.379 1447.69 Q307.206 1447.41 308.034 1447.28 Q308.861 1447.13 309.689 1447.13 Q314.391 1447.13 317.137 1449.71 Q319.883 1452.28 319.883 1456.68 Q319.883 1461.22 317.061 1463.74 Q314.24 1466.24 309.106 1466.24 Q307.338 1466.24 305.495 1465.94 Q303.67 1465.64 301.714 1465.04 L301.714 1461.22 Q303.407 1462.14 305.213 1462.59 Q307.018 1463.04 309.031 1463.04 Q312.284 1463.04 314.184 1461.33 Q316.083 1459.62 316.083 1456.68 Q316.083 1453.75 314.184 1452.04 Q312.284 1450.33 309.031 1450.33 Q307.507 1450.33 305.984 1450.67 Q304.479 1451 302.899 1451.72 L302.899 1437.61 Z" fill="#000000" fill-rule="evenodd" fill-opacity="1" /><path clip-path="url(#clip170)" d="M 0 0 M630.855 1489.17 L638.493 1489.17 L638.493 1462.8 L630.183 1464.47 L630.183 1460.21 L638.447 1458.54 L643.123 1458.54 L643.123 1489.17 L650.762 1489.17 L650.762 1493.1 L630.855 1493.1 L630.855 1489.17 Z" fill="#000000" fill-rule="evenodd" fill-opacity="1" /><path clip-path="url(#clip170)" d="M 0 0 M665.831 1461.62 Q662.22 1461.62 660.391 1465.19 Q658.586 1468.73 658.586 1475.86 Q658.586 1482.97 660.391 1486.53 Q662.22 1490.07 665.831 1490.07 Q669.465 1490.07 671.271 1486.53 Q673.1 1482.97 673.1 1475.86 Q673.1 1468.73 671.271 1465.19 Q669.465 1461.62 665.831 1461.62 M665.831 1457.92 Q671.641 1457.92 674.697 1462.53 Q677.776 1467.11 677.776 1475.86 Q677.776 1484.59 674.697 1489.19 Q671.641 1493.78 665.831 1493.78 Q660.021 1493.78 656.942 1489.19 Q653.887 1484.59 653.887 1475.86 Q653.887 1467.11 656.942 1462.53 Q660.021 1457.92 665.831 1457.92 Z" fill="#000000" fill-rule="evenodd" fill-opacity="1" /><path clip-path="url(#clip170)" d="M 0 0 M677.776 1452.02 L701.887 1452.02 L701.887 1455.22 L677.776 1455.22 L677.776 1452.02 Z" fill="#000000" fill-rule="evenodd" fill-opacity="1" /><path clip-path="url(#clip170)" d="M 0 0 M716.444 1440.92 L706.852 1455.91 L716.444 1455.91 L716.444 1440.92 M715.448 1437.61 L720.225 1437.61 L720.225 1455.91 L724.231 1455.91 L724.231 1459.07 L720.225 1459.07 L720.225 1465.69 L716.444 1465.69 L716.444 1459.07 L703.768 1459.07 L703.768 1455.41 L715.448 1437.61 Z" fill="#000000" fill-rule="evenodd" fill-opacity="1" /><path clip-path="url(#clip170)" d="M 0 0 M1035.06 1489.17 L1042.7 1489.17 L1042.7 1462.8 L1034.39 1464.47 L1034.39 1460.21 L1042.65 1458.54 L1047.33 1458.54 L1047.33 1489.17 L1054.97 1489.17 L1054.97 1493.1 L1035.06 1493.1 L1035.06 1489.17 Z" fill="#000000" fill-rule="evenodd" fill-opacity="1" /><path clip-path="url(#clip170)" d="M 0 0 M1070.04 1461.62 Q1066.43 1461.62 1064.6 1465.19 Q1062.79 1468.73 1062.79 1475.86 Q1062.79 1482.97 1064.6 1486.53 Q1066.43 1490.07 1070.04 1490.07 Q1073.67 1490.07 1075.48 1486.53 Q1077.31 1482.97 1077.31 1475.86 Q1077.31 1468.73 1075.48 1465.19 Q1073.67 1461.62 1070.04 1461.62 M1070.04 1457.92 Q1075.85 1457.92 1078.9 1462.53 Q1081.98 1467.11 1081.98 1475.86 Q1081.98 1484.59 1078.9 1489.19 Q1075.85 1493.78 1070.04 1493.78 Q1064.23 1493.78 1061.15 1489.19 Q1058.09 1484.59 1058.09 1475.86 Q1058.09 1467.11 1061.15 1462.53 Q1064.23 1457.92 1070.04 1457.92 Z" fill="#000000" fill-rule="evenodd" fill-opacity="1" /><path clip-path="url(#clip170)" d="M 0 0 M1081.98 1452.02 L1106.09 1452.02 L1106.09 1455.22 L1081.98 1455.22 L1081.98 1452.02 Z" fill="#000000" fill-rule="evenodd" fill-opacity="1" /><path clip-path="url(#clip170)" d="M 0 0 M1121.72 1450.55 Q1124.45 1451.14 1125.97 1452.98 Q1127.52 1454.82 1127.52 1457.53 Q1127.52 1461.69 1124.66 1463.96 Q1121.8 1466.24 1116.53 1466.24 Q1114.76 1466.24 1112.88 1465.88 Q1111.02 1465.54 1109.03 1464.85 L1109.03 1461.18 Q1110.61 1462.1 1112.49 1462.57 Q1114.37 1463.04 1116.42 1463.04 Q1119.99 1463.04 1121.86 1461.63 Q1123.74 1460.22 1123.74 1457.53 Q1123.74 1455.05 1121.99 1453.66 Q1120.26 1452.25 1117.15 1452.25 L1113.88 1452.25 L1113.88 1449.12 L1117.3 1449.12 Q1120.11 1449.12 1121.59 1448.01 Q1123.08 1446.89 1123.08 1444.78 Q1123.08 1442.62 1121.54 1441.47 Q1120.01 1440.3 1117.15 1440.3 Q1115.59 1440.3 1113.81 1440.64 Q1112.02 1440.98 1109.87 1441.69 L1109.87 1438.31 Q1112.04 1437.71 1113.92 1437.41 Q1115.82 1437.11 1117.49 1437.11 Q1121.82 1437.11 1124.34 1439.08 Q1126.86 1441.04 1126.86 1444.38 Q1126.86 1446.72 1125.52 1448.33 Q1124.19 1449.93 1121.72 1450.55 Z" fill="#000000" fill-rule="evenodd" fill-opacity="1" /><path clip-path="url(#clip170)" d="M 0 0 M1439.19 1489.17 L1446.83 1489.17 L1446.83 1462.8 L1438.52 1464.47 L1438.52 1460.21 L1446.79 1458.54 L1451.46 1458.54 L1451.46 1489.17 L1459.1 1489.17 L1459.1 1493.1 L1439.19 1493.1 L1439.19 1489.17 Z" fill="#000000" fill-rule="evenodd" fill-opacity="1" /><path clip-path="url(#clip170)" d="M 0 0 M1474.17 1461.62 Q1470.56 1461.62 1468.73 1465.19 Q1466.92 1468.73 1466.92 1475.86 Q1466.92 1482.97 1468.73 1486.53 Q1470.56 1490.07 1474.17 1490.07 Q1477.8 1490.07 1479.61 1486.53 Q1481.44 1482.97 1481.44 1475.86 Q1481.44 1468.73 1479.61 1465.19 Q1477.8 1461.62 1474.17 1461.62 M1474.17 1457.92 Q1479.98 1457.92 1483.04 1462.53 Q1486.11 1467.11 1486.11 1475.86 Q1486.11 1484.59 1483.04 1489.19 Q1479.98 1493.78 1474.17 1493.78 Q1468.36 1493.78 1465.28 1489.19 Q1462.23 1484.59 1462.23 1475.86 Q1462.23 1467.11 1465.28 1462.53 Q1468.36 1457.92 1474.17 1457.92 Z" fill="#000000" fill-rule="evenodd" fill-opacity="1" /><path clip-path="url(#clip170)" d="M 0 0 M1486.11 1452.02 L1510.23 1452.02 L1510.23 1455.22 L1486.11 1455.22 L1486.11 1452.02 Z" fill="#000000" fill-rule="evenodd" fill-opacity="1" /><path clip-path="url(#clip170)" d="M 0 0 M1517.62 1462.5 L1530.88 1462.5 L1530.88 1465.69 L1513.05 1465.69 L1513.05 1462.5 Q1515.21 1460.26 1518.93 1456.5 Q1522.68 1452.72 1523.64 1451.63 Q1525.46 1449.58 1526.18 1448.16 Q1526.91 1446.74 1526.91 1445.36 Q1526.91 1443.12 1525.33 1441.71 Q1523.77 1440.3 1521.25 1440.3 Q1519.46 1440.3 1517.47 1440.92 Q1515.49 1441.54 1513.24 1442.8 L1513.24 1438.97 Q1515.53 1438.05 1517.52 1437.58 Q1519.52 1437.11 1521.17 1437.11 Q1525.54 1437.11 1528.13 1439.29 Q1530.73 1441.47 1530.73 1445.12 Q1530.73 1446.85 1530.07 1448.41 Q1529.43 1449.95 1527.72 1452.06 Q1527.25 1452.6 1524.73 1455.22 Q1522.21 1457.81 1517.62 1462.5 Z" fill="#000000" fill-rule="evenodd" fill-opacity="1" /><path clip-path="url(#clip170)" d="M 0 0 M1842.79 1489.17 L1850.43 1489.17 L1850.43 1462.8 L1842.12 1464.47 L1842.12 1460.21 L1850.38 1458.54 L1855.06 1458.54 L1855.06 1489.17 L1862.7 1489.17 L1862.7 1493.1 L1842.79 1493.1 L1842.79 1489.17 Z" fill="#000000" fill-rule="evenodd" fill-opacity="1" /><path clip-path="url(#clip170)" d="M 0 0 M1877.77 1461.62 Q1874.15 1461.62 1872.33 1465.19 Q1870.52 1468.73 1870.52 1475.86 Q1870.52 1482.97 1872.33 1486.53 Q1874.15 1490.07 1877.77 1490.07 Q1881.4 1490.07 1883.21 1486.53 Q1885.03 1482.97 1885.03 1475.86 Q1885.03 1468.73 1883.21 1465.19 Q1881.4 1461.62 1877.77 1461.62 M1877.77 1457.92 Q1883.58 1457.92 1886.63 1462.53 Q1889.71 1467.11 1889.71 1475.86 Q1889.71 1484.59 1886.63 1489.19 Q1883.58 1493.78 1877.77 1493.78 Q1871.96 1493.78 1868.88 1489.19 Q1865.82 1484.59 1865.82 1475.86 Q1865.82 1467.11 1868.88 1462.53 Q1871.96 1457.92 1877.77 1457.92 Z" fill="#000000" fill-rule="evenodd" fill-opacity="1" /><path clip-path="url(#clip170)" d="M 0 0 M1889.71 1452.02 L1913.82 1452.02 L1913.82 1455.22 L1889.71 1455.22 L1889.71 1452.02 Z" fill="#000000" fill-rule="evenodd" fill-opacity="1" /><path clip-path="url(#clip170)" d="M 0 0 M1918.6 1462.5 L1924.81 1462.5 L1924.81 1441.07 L1918.05 1442.43 L1918.05 1438.97 L1924.77 1437.61 L1928.57 1437.61 L1928.57 1462.5 L1934.77 1462.5 L1934.77 1465.69 L1918.6 1465.69 L1918.6 1462.5 Z" fill="#000000" fill-rule="evenodd" fill-opacity="1" /><path clip-path="url(#clip170)" d="M 0 0 M2259.36 1489.17 L2267 1489.17 L2267 1462.8 L2258.69 1464.47 L2258.69 1460.21 L2266.96 1458.54 L2271.63 1458.54 L2271.63 1489.17 L2279.27 1489.17 L2279.27 1493.1 L2259.36 1493.1 L2259.36 1489.17 Z" fill="#000000" fill-rule="evenodd" fill-opacity="1" /><path clip-path="url(#clip170)" d="M 0 0 M2294.34 1461.62 Q2290.73 1461.62 2288.9 1465.19 Q2287.09 1468.73 2287.09 1475.86 Q2287.09 1482.97 2288.9 1486.53 Q2290.73 1490.07 2294.34 1490.07 Q2297.97 1490.07 2299.78 1486.53 Q2301.61 1482.97 2301.61 1475.86 Q2301.61 1468.73 2299.78 1465.19 Q2297.97 1461.62 2294.34 1461.62 M2294.34 1457.92 Q2300.15 1457.92 2303.2 1462.53 Q2306.28 1467.11 2306.28 1475.86 Q2306.28 1484.59 2303.2 1489.19 Q2300.15 1493.78 2294.34 1493.78 Q2288.53 1493.78 2285.45 1489.19 Q2282.39 1484.59 2282.39 1475.86 Q2282.39 1467.11 2285.45 1462.53 Q2288.53 1457.92 2294.34 1457.92 Z" fill="#000000" fill-rule="evenodd" fill-opacity="1" /><path clip-path="url(#clip170)" d="M 0 0 M2315.99 1440.11 Q2313.05 1440.11 2311.57 1443.01 Q2310.1 1445.89 2310.1 1451.68 Q2310.1 1457.46 2311.57 1460.35 Q2313.05 1463.23 2315.99 1463.23 Q2318.94 1463.23 2320.41 1460.35 Q2321.89 1457.46 2321.89 1451.68 Q2321.89 1445.89 2320.41 1443.01 Q2318.94 1440.11 2315.99 1440.11 M2315.99 1437.11 Q2320.71 1437.11 2323.19 1440.85 Q2325.69 1444.57 2325.69 1451.68 Q2325.69 1458.77 2323.19 1462.51 Q2320.71 1466.24 2315.99 1466.24 Q2311.27 1466.24 2308.77 1462.51 Q2306.28 1458.77 2306.28 1451.68 Q2306.28 1444.57 2308.77 1440.85 Q2311.27 1437.11 2315.99 1437.11 Z" fill="#000000" fill-rule="evenodd" fill-opacity="1" /><path clip-path="url(#clip170)" d="M 0 0 M1214.35 1512.66 L1220.24 1512.66 L1220.24 1541.91 L1237.71 1526.54 L1245.19 1526.54 L1226.28 1543.22 L1245.99 1562.19 L1238.35 1562.19 L1220.24 1544.78 L1220.24 1562.19 L1214.35 1562.19 L1214.35 1512.66 Z" fill="#000000" fill-rule="evenodd" fill-opacity="1" /><path clip-path="url(#clip170)" d="M 0 0 M1279.21 1573.01 L1279.21 1577.56 L1245.35 1577.56 L1245.35 1573.01 L1279.21 1573.01 Z" fill="#000000" fill-rule="evenodd" fill-opacity="1" /><path clip-path="url(#clip170)" d="M 0 0 M1299.17 1530.64 Q1294.46 1530.64 1291.72 1534.34 Q1288.99 1538 1288.99 1544.39 Q1288.99 1550.79 1291.69 1554.48 Q1294.43 1558.14 1299.17 1558.14 Q1303.85 1558.14 1306.59 1554.45 Q1309.32 1550.76 1309.32 1544.39 Q1309.32 1538.06 1306.59 1534.37 Q1303.85 1530.64 1299.17 1530.64 M1299.17 1525.68 Q1306.81 1525.68 1311.17 1530.64 Q1315.53 1535.61 1315.53 1544.39 Q1315.53 1553.15 1311.17 1558.14 Q1306.81 1563.11 1299.17 1563.11 Q1291.5 1563.11 1287.14 1558.14 Q1282.81 1553.15 1282.81 1544.39 Q1282.81 1535.61 1287.14 1530.64 Q1291.5 1525.68 1299.17 1525.68 Z" fill="#000000" fill-rule="evenodd" fill-opacity="1" /><path clip-path="url(#clip170)" d="M 0 0 M1351.31 1540.67 L1351.31 1562.19 L1345.45 1562.19 L1345.45 1540.86 Q1345.45 1535.8 1343.48 1533.29 Q1341.5 1530.77 1337.56 1530.77 Q1332.81 1530.77 1330.08 1533.79 Q1327.34 1536.82 1327.34 1542.04 L1327.34 1562.19 L1321.45 1562.19 L1321.45 1526.54 L1327.34 1526.54 L1327.34 1532.08 Q1329.44 1528.86 1332.27 1527.27 Q1335.14 1525.68 1338.86 1525.68 Q1345 1525.68 1348.16 1529.5 Q1351.31 1533.29 1351.31 1540.67 Z" fill="#000000" fill-rule="evenodd" fill-opacity="1" /><polyline clip-path="url(#clip172)" style="stroke:#000000; stroke-width:2; stroke-opacity:0.1; fill:none" points="
  212.899,1222.4 2352.76,1222.4 
  "/>
<polyline clip-path="url(#clip172)" style="stroke:#000000; stroke-width:2; stroke-opacity:0.1; fill:none" points="
  212.899,965.109 2352.76,965.109 
  "/>
<polyline clip-path="url(#clip172)" style="stroke:#000000; stroke-width:2; stroke-opacity:0.1; fill:none" points="
  212.899,707.816 2352.76,707.816 
  "/>
<polyline clip-path="url(#clip172)" style="stroke:#000000; stroke-width:2; stroke-opacity:0.1; fill:none" points="
  212.899,450.523 2352.76,450.523 
  "/>
<polyline clip-path="url(#clip172)" style="stroke:#000000; stroke-width:2; stroke-opacity:0.1; fill:none" points="
  212.899,193.23 2352.76,193.23 
  "/>
<polyline clip-path="url(#clip170)" style="stroke:#000000; stroke-width:4; stroke-opacity:1; fill:none" points="
  212.899,1410.9 212.899,47.2441 
  "/>
<polyline clip-path="url(#clip170)" style="stroke:#000000; stroke-width:4; stroke-opacity:1; fill:none" points="
  212.899,1222.4 238.577,1222.4 
  "/>
<polyline clip-path="url(#clip170)" style="stroke:#000000; stroke-width:4; stroke-opacity:1; fill:none" points="
  212.899,965.109 238.577,965.109 
  "/>
<polyline clip-path="url(#clip170)" style="stroke:#000000; stroke-width:4; stroke-opacity:1; fill:none" points="
  212.899,707.816 238.577,707.816 
  "/>
<polyline clip-path="url(#clip170)" style="stroke:#000000; stroke-width:4; stroke-opacity:1; fill:none" points="
  212.899,450.523 238.577,450.523 
  "/>
<polyline clip-path="url(#clip170)" style="stroke:#000000; stroke-width:4; stroke-opacity:1; fill:none" points="
  212.899,193.23 238.577,193.23 
  "/>
<path clip-path="url(#clip170)" d="M 0 0 M130.348 1209.2 L118.543 1227.64 L130.348 1227.64 L130.348 1209.2 M129.121 1205.12 L135.001 1205.12 L135.001 1227.64 L139.931 1227.64 L139.931 1231.53 L135.001 1231.53 L135.001 1239.68 L130.348 1239.68 L130.348 1231.53 L114.746 1231.53 L114.746 1227.02 L129.121 1205.12 Z" fill="#000000" fill-rule="evenodd" fill-opacity="1" /><path clip-path="url(#clip170)" d="M 0 0 M145.001 1233.8 L149.885 1233.8 L149.885 1239.68 L145.001 1239.68 L145.001 1233.8 Z" fill="#000000" fill-rule="evenodd" fill-opacity="1" /><path clip-path="url(#clip170)" d="M 0 0 M164.954 1208.2 Q161.343 1208.2 159.515 1211.76 Q157.709 1215.31 157.709 1222.44 Q157.709 1229.54 159.515 1233.11 Q161.343 1236.65 164.954 1236.65 Q168.589 1236.65 170.394 1233.11 Q172.223 1229.54 172.223 1222.44 Q172.223 1215.31 170.394 1211.76 Q168.589 1208.2 164.954 1208.2 M164.954 1204.5 Q170.764 1204.5 173.82 1209.1 Q176.899 1213.69 176.899 1222.44 Q176.899 1231.16 173.82 1235.77 Q170.764 1240.35 164.954 1240.35 Q159.144 1240.35 156.065 1235.77 Q153.01 1231.16 153.01 1222.44 Q153.01 1213.69 156.065 1209.1 Q159.144 1204.5 164.954 1204.5 Z" fill="#000000" fill-rule="evenodd" fill-opacity="1" /><path clip-path="url(#clip170)" d="M 0 0 M131.945 951.903 L120.14 970.352 L131.945 970.352 L131.945 951.903 M130.718 947.829 L136.598 947.829 L136.598 970.352 L141.529 970.352 L141.529 974.24 L136.598 974.24 L136.598 982.389 L131.945 982.389 L131.945 974.24 L116.343 974.24 L116.343 969.727 L130.718 947.829 Z" fill="#000000" fill-rule="evenodd" fill-opacity="1" /><path clip-path="url(#clip170)" d="M 0 0 M146.598 976.509 L151.482 976.509 L151.482 982.389 L146.598 982.389 L146.598 976.509 Z" fill="#000000" fill-rule="evenodd" fill-opacity="1" /><path clip-path="url(#clip170)" d="M 0 0 M160.579 978.453 L176.899 978.453 L176.899 982.389 L154.954 982.389 L154.954 978.453 Q157.616 975.699 162.2 971.069 Q166.806 966.416 167.987 965.074 Q170.232 962.551 171.112 960.815 Q172.014 959.055 172.014 957.366 Q172.014 954.611 170.07 952.875 Q168.149 951.139 165.047 951.139 Q162.848 951.139 160.394 951.903 Q157.964 952.666 155.186 954.217 L155.186 949.495 Q158.01 948.361 160.464 947.782 Q162.917 947.204 164.954 947.204 Q170.325 947.204 173.519 949.889 Q176.714 952.574 176.714 957.065 Q176.714 959.194 175.903 961.116 Q175.116 963.014 173.01 965.606 Q172.431 966.278 169.329 969.495 Q166.227 972.69 160.579 978.453 Z" fill="#000000" fill-rule="evenodd" fill-opacity="1" /><path clip-path="url(#clip170)" d="M 0 0 M129.862 694.61 L118.056 713.059 L129.862 713.059 L129.862 694.61 M128.635 690.536 L134.515 690.536 L134.515 713.059 L139.445 713.059 L139.445 716.948 L134.515 716.948 L134.515 725.096 L129.862 725.096 L129.862 716.948 L114.26 716.948 L114.26 712.434 L128.635 690.536 Z" fill="#000000" fill-rule="evenodd" fill-opacity="1" /><path clip-path="url(#clip170)" d="M 0 0 M144.515 719.216 L149.399 719.216 L149.399 725.096 L144.515 725.096 L144.515 719.216 Z" fill="#000000" fill-rule="evenodd" fill-opacity="1" /><path clip-path="url(#clip170)" d="M 0 0 M167.315 694.61 L155.51 713.059 L167.315 713.059 L167.315 694.61 M166.089 690.536 L171.968 690.536 L171.968 713.059 L176.899 713.059 L176.899 716.948 L171.968 716.948 L171.968 725.096 L167.315 725.096 L167.315 716.948 L151.714 716.948 L151.714 712.434 L166.089 690.536 Z" fill="#000000" fill-rule="evenodd" fill-opacity="1" /><path clip-path="url(#clip170)" d="M 0 0 M130.186 437.317 L118.381 455.766 L130.186 455.766 L130.186 437.317 M128.959 433.243 L134.839 433.243 L134.839 455.766 L139.769 455.766 L139.769 459.655 L134.839 459.655 L134.839 467.803 L130.186 467.803 L130.186 459.655 L114.584 459.655 L114.584 455.141 L128.959 433.243 Z" fill="#000000" fill-rule="evenodd" fill-opacity="1" /><path clip-path="url(#clip170)" d="M 0 0 M144.839 461.923 L149.723 461.923 L149.723 467.803 L144.839 467.803 L144.839 461.923 Z" fill="#000000" fill-rule="evenodd" fill-opacity="1" /><path clip-path="url(#clip170)" d="M 0 0 M165.371 448.659 Q162.223 448.659 160.371 450.812 Q158.542 452.965 158.542 456.715 Q158.542 460.442 160.371 462.618 Q162.223 464.77 165.371 464.77 Q168.519 464.77 170.348 462.618 Q172.2 460.442 172.2 456.715 Q172.2 452.965 170.348 450.812 Q168.519 448.659 165.371 448.659 M174.653 434.007 L174.653 438.266 Q172.894 437.432 171.089 436.993 Q169.306 436.553 167.547 436.553 Q162.917 436.553 160.464 439.678 Q158.033 442.803 157.686 449.122 Q159.052 447.108 161.112 446.044 Q163.172 444.956 165.649 444.956 Q170.857 444.956 173.866 448.127 Q176.899 451.275 176.899 456.715 Q176.899 462.039 173.751 465.256 Q170.602 468.474 165.371 468.474 Q159.376 468.474 156.204 463.891 Q153.033 459.284 153.033 450.557 Q153.033 442.363 156.922 437.502 Q160.811 432.618 167.362 432.618 Q169.121 432.618 170.903 432.965 Q172.709 433.312 174.653 434.007 Z" fill="#000000" fill-rule="evenodd" fill-opacity="1" /><path clip-path="url(#clip170)" d="M 0 0 M130.441 180.024 L118.635 198.473 L130.441 198.473 L130.441 180.024 M129.214 175.95 L135.093 175.95 L135.093 198.473 L140.024 198.473 L140.024 202.362 L135.093 202.362 L135.093 210.51 L130.441 210.51 L130.441 202.362 L114.839 202.362 L114.839 197.848 L129.214 175.95 Z" fill="#000000" fill-rule="evenodd" fill-opacity="1" /><path clip-path="url(#clip170)" d="M 0 0 M145.093 204.63 L149.978 204.63 L149.978 210.51 L145.093 210.51 L145.093 204.63 Z" fill="#000000" fill-rule="evenodd" fill-opacity="1" /><path clip-path="url(#clip170)" d="M 0 0 M165.047 194.098 Q161.714 194.098 159.792 195.88 Q157.894 197.663 157.894 200.788 Q157.894 203.913 159.792 205.695 Q161.714 207.477 165.047 207.477 Q168.38 207.477 170.302 205.695 Q172.223 203.889 172.223 200.788 Q172.223 197.663 170.302 195.88 Q168.403 194.098 165.047 194.098 M160.371 192.107 Q157.362 191.366 155.672 189.306 Q154.005 187.246 154.005 184.283 Q154.005 180.14 156.945 177.732 Q159.908 175.325 165.047 175.325 Q170.209 175.325 173.149 177.732 Q176.089 180.14 176.089 184.283 Q176.089 187.246 174.399 189.306 Q172.732 191.366 169.746 192.107 Q173.126 192.894 175.001 195.186 Q176.899 197.477 176.899 200.788 Q176.899 205.811 173.82 208.496 Q170.764 211.181 165.047 211.181 Q159.329 211.181 156.251 208.496 Q153.195 205.811 153.195 200.788 Q153.195 197.477 155.093 195.186 Q156.991 192.894 160.371 192.107 M158.658 184.723 Q158.658 187.408 160.325 188.913 Q162.015 190.417 165.047 190.417 Q168.056 190.417 169.746 188.913 Q171.459 187.408 171.459 184.723 Q171.459 182.038 169.746 180.533 Q168.056 179.028 165.047 179.028 Q162.015 179.028 160.325 180.533 Q158.658 182.038 158.658 184.723 Z" fill="#000000" fill-rule="evenodd" fill-opacity="1" /><path clip-path="url(#clip170)" d="M 0 0 M59.1993 815.533 Q55.2526 813.336 53.3747 810.281 Q51.4968 807.225 51.4968 803.088 Q51.4968 797.518 55.4117 794.494 Q59.2948 791.47 66.4881 791.47 L88.0042 791.47 L88.0042 797.358 L66.679 797.358 Q61.5546 797.358 59.072 799.173 Q56.5894 800.987 56.5894 804.711 Q56.5894 809.262 59.6131 811.904 Q62.6368 814.546 67.8567 814.546 L88.0042 814.546 L88.0042 820.434 L66.679 820.434 Q61.5228 820.434 59.072 822.248 Q56.5894 824.063 56.5894 827.85 Q56.5894 832.338 59.6449 834.98 Q62.6686 837.622 67.8567 837.622 L88.0042 837.622 L88.0042 843.51 L52.3562 843.51 L52.3562 837.622 L57.8944 837.622 Q54.616 835.616 53.0564 832.815 Q51.4968 830.015 51.4968 826.163 Q51.4968 822.28 53.4702 819.575 Q55.4436 816.838 59.1993 815.533 Z" fill="#000000" fill-rule="evenodd" fill-opacity="1" /><path clip-path="url(#clip170)" d="M 0 0 M52.3562 785.327 L52.3562 779.471 L88.0042 779.471 L88.0042 785.327 L52.3562 785.327 M38.479 785.327 L38.479 779.471 L45.895 779.471 L45.895 785.327 L38.479 785.327 Z" fill="#000000" fill-rule="evenodd" fill-opacity="1" /><path clip-path="url(#clip170)" d="M 0 0 M66.4881 743.696 L88.0042 743.696 L88.0042 749.552 L66.679 749.552 Q61.6183 749.552 59.1038 751.525 Q56.5894 753.499 56.5894 757.446 Q56.5894 762.188 59.6131 764.925 Q62.6368 767.662 67.8567 767.662 L88.0042 767.662 L88.0042 773.551 L52.3562 773.551 L52.3562 767.662 L57.8944 767.662 Q54.6797 765.562 53.0883 762.729 Q51.4968 759.864 51.4968 756.141 Q51.4968 749.998 55.3163 746.847 Q59.1038 743.696 66.4881 743.696 Z" fill="#000000" fill-rule="evenodd" fill-opacity="1" /><path clip-path="url(#clip170)" d="M 0 0 M98.8259 710.467 L103.377 710.467 L103.377 744.332 L98.8259 744.332 L98.8259 710.467 Z" fill="#000000" fill-rule="evenodd" fill-opacity="1" /><path clip-path="url(#clip170)" d="M 0 0 M57.7671 680.866 L38.479 680.866 L38.479 675.01 L88.0042 675.01 L88.0042 680.866 L82.657 680.866 Q85.8398 682.712 87.3994 685.545 Q88.9272 688.346 88.9272 692.292 Q88.9272 698.754 83.771 702.828 Q78.6147 706.87 70.212 706.87 Q61.8093 706.87 56.6531 702.828 Q51.4968 698.754 51.4968 692.292 Q51.4968 688.346 53.0564 685.545 Q54.5842 682.712 57.7671 680.866 M70.212 700.823 Q76.6732 700.823 80.3653 698.181 Q84.0256 695.507 84.0256 690.86 Q84.0256 686.213 80.3653 683.54 Q76.6732 680.866 70.212 680.866 Q63.7508 680.866 60.0905 683.54 Q56.3984 686.213 56.3984 690.86 Q56.3984 695.507 60.0905 698.181 Q63.7508 700.823 70.212 700.823 Z" fill="#000000" fill-rule="evenodd" fill-opacity="1" /><path clip-path="url(#clip170)" d="M 0 0 M52.3562 668.867 L52.3562 663.01 L88.0042 663.01 L88.0042 668.867 L52.3562 668.867 M38.479 668.867 L38.479 663.01 L45.895 663.01 L45.895 668.867 L38.479 668.867 Z" fill="#000000" fill-rule="evenodd" fill-opacity="1" /><path clip-path="url(#clip170)" d="M 0 0 M38.479 638.821 L43.3487 638.821 L43.3487 644.422 Q43.3487 647.573 44.6219 648.815 Q45.895 650.024 49.2052 650.024 L52.3562 650.024 L52.3562 640.38 L56.9077 640.38 L56.9077 650.024 L88.0042 650.024 L88.0042 655.912 L56.9077 655.912 L56.9077 661.514 L52.3562 661.514 L52.3562 655.912 L49.8736 655.912 Q43.9216 655.912 41.2162 653.143 Q38.479 650.374 38.479 644.359 L38.479 638.821 Z" fill="#000000" fill-rule="evenodd" fill-opacity="1" /><path clip-path="url(#clip170)" d="M 0 0 M38.479 614.631 L43.3487 614.631 L43.3487 620.233 Q43.3487 623.384 44.6219 624.625 Q45.895 625.835 49.2052 625.835 L52.3562 625.835 L52.3562 616.19 L56.9077 616.19 L56.9077 625.835 L88.0042 625.835 L88.0042 631.723 L56.9077 631.723 L56.9077 637.325 L52.3562 637.325 L52.3562 631.723 L49.8736 631.723 Q43.9216 631.723 41.2162 628.954 Q38.479 626.185 38.479 620.169 L38.479 614.631 Z" fill="#000000" fill-rule="evenodd" fill-opacity="1" /><path clip-path="url(#clip170)" d="
M1992.65 213.659 L2281.43 213.659 L2281.43 92.6992 L1992.65 92.6992  Z
  " fill="#ffffff" fill-rule="evenodd" fill-opacity="1"/>
<polyline clip-path="url(#clip170)" style="stroke:#000000; stroke-width:4; stroke-opacity:1; fill:none" points="
  1992.65,213.659 2281.43,213.659 2281.43,92.6992 1992.65,92.6992 1992.65,213.659 
  "/>
<polyline clip-path="url(#clip170)" style="stroke:#009af9; stroke-width:4; stroke-opacity:1; fill:none" stroke-dasharray="16, 10" points="
  2016.42,153.179 2159.08,153.179 
  "/>
<path clip-path="url(#clip170)" d="M 0 0 M2196.7 172.867 Q2194.89 177.496 2193.18 178.908 Q2191.47 180.32 2188.6 180.32 L2185.19 180.32 L2185.19 176.755 L2187.69 176.755 Q2189.45 176.755 2190.43 175.922 Q2191.4 175.089 2192.58 171.987 L2193.34 170.043 L2182.86 144.533 L2187.37 144.533 L2195.47 164.811 L2203.57 144.533 L2208.09 144.533 L2196.7 172.867 Z" fill="#000000" fill-rule="evenodd" fill-opacity="1" /><path clip-path="url(#clip170)" d="M 0 0 M2213.97 166.524 L2221.61 166.524 L2221.61 140.158 L2213.3 141.825 L2213.3 137.566 L2221.56 135.899 L2226.24 135.899 L2226.24 166.524 L2233.87 166.524 L2233.87 170.459 L2213.97 170.459 L2213.97 166.524 Z" fill="#000000" fill-rule="evenodd" fill-opacity="1" /></svg>
