<?xml version="1.0" encoding="utf-8"?>
<svg xmlns="http://www.w3.org/2000/svg" xmlns:xlink="http://www.w3.org/1999/xlink" width="600" height="400" viewBox="0 0 2400 1600">
<defs>
  <clipPath id="clip090">
    <rect x="0" y="0" width="2400" height="1600"/>
  </clipPath>
</defs>
<path clip-path="url(#clip090)" d="
M0 1600 L2400 1600 L2400 0 L0 0  Z
  " fill="#ffffff" fill-rule="evenodd" fill-opacity="1"/>
<defs>
  <clipPath id="clip091">
    <rect x="480" y="0" width="1681" height="1600"/>
  </clipPath>
</defs>
<path clip-path="url(#clip090)" d="
M211.255 1410.9 L2352.76 1410.9 L2352.76 47.2441 L211.255 47.2441  Z
  " fill="#ffffff" fill-rule="evenodd" fill-opacity="1"/>
<defs>
  <clipPath id="clip092">
    <rect x="211" y="47" width="2143" height="1365"/>
  </clipPath>
</defs>
<polyline clip-path="url(#clip092)" style="stroke:#000000; stroke-width:2; stroke-opacity:0.1; fill:none" points="
  271.864,1410.9 271.864,47.2441 
  "/>
<polyline clip-path="url(#clip092)" style="stroke:#000000; stroke-width:2; stroke-opacity:0.1; fill:none" points="
  598.068,1410.9 598.068,47.2441 
  "/>
<polyline clip-path="url(#clip092)" style="stroke:#000000; stroke-width:2; stroke-opacity:0.1; fill:none" points="
  924.272,1410.9 924.272,47.2441 
  "/>
<polyline clip-path="url(#clip092)" style="stroke:#000000; stroke-width:2; stroke-opacity:0.1; fill:none" points="
  1250.48,1410.9 1250.48,47.2441 
  "/>
<polyline clip-path="url(#clip092)" style="stroke:#000000; stroke-width:2; stroke-opacity:0.1; fill:none" points="
  1576.68,1410.9 1576.68,47.2441 
  "/>
<polyline clip-path="url(#clip092)" style="stroke:#000000; stroke-width:2; stroke-opacity:0.1; fill:none" points="
  1902.88,1410.9 1902.88,47.2441 
  "/>
<polyline clip-path="url(#clip092)" style="stroke:#000000; stroke-width:2; stroke-opacity:0.1; fill:none" points="
  2229.09,1410.9 2229.09,47.2441 
  "/>
<polyline clip-path="url(#clip090)" style="stroke:#000000; stroke-width:4; stroke-opacity:1; fill:none" points="
  211.255,1410.9 2352.76,1410.9 
  "/>
<polyline clip-path="url(#clip090)" style="stroke:#000000; stroke-width:4; stroke-opacity:1; fill:none" points="
  271.864,1410.9 271.864,1394.53 
  "/>
<polyline clip-path="url(#clip090)" style="stroke:#000000; stroke-width:4; stroke-opacity:1; fill:none" points="
  598.068,1410.9 598.068,1394.53 
  "/>
<polyline clip-path="url(#clip090)" style="stroke:#000000; stroke-width:4; stroke-opacity:1; fill:none" points="
  924.272,1410.9 924.272,1394.53 
  "/>
<polyline clip-path="url(#clip090)" style="stroke:#000000; stroke-width:4; stroke-opacity:1; fill:none" points="
  1250.48,1410.9 1250.48,1394.53 
  "/>
<polyline clip-path="url(#clip090)" style="stroke:#000000; stroke-width:4; stroke-opacity:1; fill:none" points="
  1576.68,1410.9 1576.68,1394.53 
  "/>
<polyline clip-path="url(#clip090)" style="stroke:#000000; stroke-width:4; stroke-opacity:1; fill:none" points="
  1902.88,1410.9 1902.88,1394.53 
  "/>
<polyline clip-path="url(#clip090)" style="stroke:#000000; stroke-width:4; stroke-opacity:1; fill:none" points="
  2229.09,1410.9 2229.09,1394.53 
  "/>
<path clip-path="url(#clip090)" d="M 0 0 M211.095 1489.17 L218.734 1489.17 L218.734 1462.8 L210.424 1464.47 L210.424 1460.21 L218.688 1458.54 L223.364 1458.54 L223.364 1489.17 L231.002 1489.17 L231.002 1493.1 L211.095 1493.1 L211.095 1489.17 Z" fill="#000000" fill-rule="evenodd" fill-opacity="1" /><path clip-path="url(#clip090)" d="M 0 0 M246.072 1461.62 Q242.461 1461.62 240.632 1465.19 Q238.826 1468.73 238.826 1475.86 Q238.826 1482.97 240.632 1486.53 Q242.461 1490.07 246.072 1490.07 Q249.706 1490.07 251.512 1486.53 Q253.34 1482.97 253.34 1475.86 Q253.34 1468.73 251.512 1465.19 Q249.706 1461.62 246.072 1461.62 M246.072 1457.92 Q251.882 1457.92 254.937 1462.53 Q258.016 1467.11 258.016 1475.86 Q258.016 1484.59 254.937 1489.19 Q251.882 1493.78 246.072 1493.78 Q240.262 1493.78 237.183 1489.19 Q234.127 1484.59 234.127 1475.86 Q234.127 1467.11 237.183 1462.53 Q240.262 1457.92 246.072 1457.92 Z" fill="#000000" fill-rule="evenodd" fill-opacity="1" /><path clip-path="url(#clip090)" d="M 0 0 M258.016 1452.02 L282.128 1452.02 L282.128 1455.22 L258.016 1455.22 L258.016 1452.02 Z" fill="#000000" fill-rule="evenodd" fill-opacity="1" /><path clip-path="url(#clip090)" d="M 0 0 M294.372 1440.11 Q291.438 1440.11 289.952 1443.01 Q288.485 1445.89 288.485 1451.68 Q288.485 1457.46 289.952 1460.35 Q291.438 1463.23 294.372 1463.23 Q297.324 1463.23 298.791 1460.35 Q300.277 1457.46 300.277 1451.68 Q300.277 1445.89 298.791 1443.01 Q297.324 1440.11 294.372 1440.11 M294.372 1437.11 Q299.092 1437.11 301.575 1440.85 Q304.076 1444.57 304.076 1451.68 Q304.076 1458.77 301.575 1462.51 Q299.092 1466.24 294.372 1466.24 Q289.651 1466.24 287.149 1462.51 Q284.667 1458.77 284.667 1451.68 Q284.667 1444.57 287.149 1440.85 Q289.651 1437.11 294.372 1437.11 Z" fill="#000000" fill-rule="evenodd" fill-opacity="1" /><path clip-path="url(#clip090)" d="M 0 0 M308.195 1460.92 L312.164 1460.92 L312.164 1465.69 L308.195 1465.69 L308.195 1460.92 Z" fill="#000000" fill-rule="evenodd" fill-opacity="1" /><path clip-path="url(#clip090)" d="M 0 0 M316.32 1437.61 L331.235 1437.61 L331.235 1440.81 L319.8 1440.81 L319.8 1447.69 Q320.627 1447.41 321.455 1447.28 Q322.282 1447.13 323.11 1447.13 Q327.812 1447.13 330.558 1449.71 Q333.304 1452.28 333.304 1456.68 Q333.304 1461.22 330.482 1463.74 Q327.661 1466.24 322.527 1466.24 Q320.759 1466.24 318.916 1465.94 Q317.091 1465.64 315.135 1465.04 L315.135 1461.22 Q316.828 1462.14 318.634 1462.59 Q320.439 1463.04 322.452 1463.04 Q325.705 1463.04 327.605 1461.33 Q329.504 1459.62 329.504 1456.68 Q329.504 1453.75 327.605 1452.04 Q325.705 1450.33 322.452 1450.33 Q320.928 1450.33 319.405 1450.67 Q317.9 1451 316.32 1451.72 L316.32 1437.61 Z" fill="#000000" fill-rule="evenodd" fill-opacity="1" /><path clip-path="url(#clip090)" d="M 0 0 M536.697 1489.17 L544.336 1489.17 L544.336 1462.8 L536.026 1464.47 L536.026 1460.21 L544.29 1458.54 L548.966 1458.54 L548.966 1489.17 L556.605 1489.17 L556.605 1493.1 L536.697 1493.1 L536.697 1489.17 Z" fill="#000000" fill-rule="evenodd" fill-opacity="1" /><path clip-path="url(#clip090)" d="M 0 0 M571.674 1461.62 Q568.063 1461.62 566.234 1465.19 Q564.429 1468.73 564.429 1475.86 Q564.429 1482.97 566.234 1486.53 Q568.063 1490.07 571.674 1490.07 Q575.308 1490.07 577.114 1486.53 Q578.943 1482.97 578.943 1475.86 Q578.943 1468.73 577.114 1465.19 Q575.308 1461.62 571.674 1461.62 M571.674 1457.92 Q577.484 1457.92 580.54 1462.53 Q583.618 1467.11 583.618 1475.86 Q583.618 1484.59 580.54 1489.19 Q577.484 1493.78 571.674 1493.78 Q565.864 1493.78 562.785 1489.19 Q559.73 1484.59 559.73 1475.86 Q559.73 1467.11 562.785 1462.53 Q565.864 1457.92 571.674 1457.92 Z" fill="#000000" fill-rule="evenodd" fill-opacity="1" /><path clip-path="url(#clip090)" d="M 0 0 M583.618 1452.02 L607.73 1452.02 L607.73 1455.22 L583.618 1455.22 L583.618 1452.02 Z" fill="#000000" fill-rule="evenodd" fill-opacity="1" /><path clip-path="url(#clip090)" d="M 0 0 M619.974 1440.11 Q617.04 1440.11 615.554 1443.01 Q614.087 1445.89 614.087 1451.68 Q614.087 1457.46 615.554 1460.35 Q617.04 1463.23 619.974 1463.23 Q622.927 1463.23 624.394 1460.35 Q625.88 1457.46 625.88 1451.68 Q625.88 1445.89 624.394 1443.01 Q622.927 1440.11 619.974 1440.11 M619.974 1437.11 Q624.695 1437.11 627.177 1440.85 Q629.679 1444.57 629.679 1451.68 Q629.679 1458.77 627.177 1462.51 Q624.695 1466.24 619.974 1466.24 Q615.253 1466.24 612.752 1462.51 Q610.269 1458.77 610.269 1451.68 Q610.269 1444.57 612.752 1440.85 Q615.253 1437.11 619.974 1437.11 Z" fill="#000000" fill-rule="evenodd" fill-opacity="1" /><path clip-path="url(#clip090)" d="M 0 0 M633.798 1460.92 L637.766 1460.92 L637.766 1465.69 L633.798 1465.69 L633.798 1460.92 Z" fill="#000000" fill-rule="evenodd" fill-opacity="1" /><path clip-path="url(#clip090)" d="M 0 0 M652.323 1440.92 L642.731 1455.91 L652.323 1455.91 L652.323 1440.92 M651.326 1437.61 L656.104 1437.61 L656.104 1455.91 L660.11 1455.91 L660.11 1459.07 L656.104 1459.07 L656.104 1465.69 L652.323 1465.69 L652.323 1459.07 L639.647 1459.07 L639.647 1455.41 L651.326 1437.61 Z" fill="#000000" fill-rule="evenodd" fill-opacity="1" /><path clip-path="url(#clip090)" d="M 0 0 M863.362 1489.17 L871.001 1489.17 L871.001 1462.8 L862.691 1464.47 L862.691 1460.21 L870.955 1458.54 L875.631 1458.54 L875.631 1489.17 L883.27 1489.17 L883.27 1493.1 L863.362 1493.1 L863.362 1489.17 Z" fill="#000000" fill-rule="evenodd" fill-opacity="1" /><path clip-path="url(#clip090)" d="M 0 0 M898.339 1461.62 Q894.728 1461.62 892.899 1465.19 Q891.094 1468.73 891.094 1475.86 Q891.094 1482.97 892.899 1486.53 Q894.728 1490.07 898.339 1490.07 Q901.973 1490.07 903.779 1486.53 Q905.608 1482.97 905.608 1475.86 Q905.608 1468.73 903.779 1465.19 Q901.973 1461.62 898.339 1461.62 M898.339 1457.92 Q904.149 1457.92 907.205 1462.53 Q910.283 1467.11 910.283 1475.86 Q910.283 1484.59 907.205 1489.19 Q904.149 1493.78 898.339 1493.78 Q892.529 1493.78 889.45 1489.19 Q886.395 1484.59 886.395 1475.86 Q886.395 1467.11 889.45 1462.53 Q892.529 1457.92 898.339 1457.92 Z" fill="#000000" fill-rule="evenodd" fill-opacity="1" /><path clip-path="url(#clip090)" d="M 0 0 M910.283 1452.02 L934.395 1452.02 L934.395 1455.22 L910.283 1455.22 L910.283 1452.02 Z" fill="#000000" fill-rule="evenodd" fill-opacity="1" /><path clip-path="url(#clip090)" d="M 0 0 M946.639 1440.11 Q943.705 1440.11 942.219 1443.01 Q940.752 1445.89 940.752 1451.68 Q940.752 1457.46 942.219 1460.35 Q943.705 1463.23 946.639 1463.23 Q949.592 1463.23 951.059 1460.35 Q952.544 1457.46 952.544 1451.68 Q952.544 1445.89 951.059 1443.01 Q949.592 1440.11 946.639 1440.11 M946.639 1437.11 Q951.36 1437.11 953.842 1440.85 Q956.344 1444.57 956.344 1451.68 Q956.344 1458.77 953.842 1462.51 Q951.36 1466.24 946.639 1466.24 Q941.918 1466.24 939.417 1462.51 Q936.934 1458.77 936.934 1451.68 Q936.934 1444.57 939.417 1440.85 Q941.918 1437.11 946.639 1437.11 Z" fill="#000000" fill-rule="evenodd" fill-opacity="1" /><path clip-path="url(#clip090)" d="M 0 0 M960.463 1460.92 L964.431 1460.92 L964.431 1465.69 L960.463 1465.69 L960.463 1460.92 Z" fill="#000000" fill-rule="evenodd" fill-opacity="1" /><path clip-path="url(#clip090)" d="M 0 0 M980.06 1450.55 Q982.787 1451.14 984.311 1452.98 Q985.853 1454.82 985.853 1457.53 Q985.853 1461.69 982.994 1463.96 Q980.135 1466.24 974.869 1466.24 Q973.101 1466.24 971.221 1465.88 Q969.359 1465.54 967.365 1464.85 L967.365 1461.18 Q968.945 1462.1 970.826 1462.57 Q972.706 1463.04 974.756 1463.04 Q978.33 1463.04 980.192 1461.63 Q982.073 1460.22 982.073 1457.53 Q982.073 1455.05 980.324 1453.66 Q978.593 1452.25 975.49 1452.25 L972.217 1452.25 L972.217 1449.12 L975.64 1449.12 Q978.443 1449.12 979.929 1448.01 Q981.414 1446.89 981.414 1444.78 Q981.414 1442.62 979.872 1441.47 Q978.349 1440.3 975.49 1440.3 Q973.929 1440.3 972.142 1440.64 Q970.355 1440.98 968.211 1441.69 L968.211 1438.31 Q970.374 1437.71 972.255 1437.41 Q974.155 1437.11 975.828 1437.11 Q980.154 1437.11 982.675 1439.08 Q985.195 1441.04 985.195 1444.38 Q985.195 1446.72 983.859 1448.33 Q982.524 1449.93 980.06 1450.55 Z" fill="#000000" fill-rule="evenodd" fill-opacity="1" /><path clip-path="url(#clip090)" d="M 0 0 M1189.95 1489.17 L1197.59 1489.17 L1197.59 1462.8 L1189.28 1464.47 L1189.28 1460.21 L1197.54 1458.54 L1202.22 1458.54 L1202.22 1489.17 L1209.86 1489.17 L1209.86 1493.1 L1189.95 1493.1 L1189.95 1489.17 Z" fill="#000000" fill-rule="evenodd" fill-opacity="1" /><path clip-path="url(#clip090)" d="M 0 0 M1224.93 1461.62 Q1221.32 1461.62 1219.49 1465.19 Q1217.68 1468.73 1217.68 1475.86 Q1217.68 1482.97 1219.49 1486.53 Q1221.32 1490.07 1224.93 1490.07 Q1228.56 1490.07 1230.37 1486.53 Q1232.2 1482.97 1232.2 1475.86 Q1232.2 1468.73 1230.37 1465.19 Q1228.56 1461.62 1224.93 1461.62 M1224.93 1457.92 Q1230.74 1457.92 1233.79 1462.53 Q1236.87 1467.11 1236.87 1475.86 Q1236.87 1484.59 1233.79 1489.19 Q1230.74 1493.78 1224.93 1493.78 Q1219.12 1493.78 1216.04 1489.19 Q1212.98 1484.59 1212.98 1475.86 Q1212.98 1467.11 1216.04 1462.53 Q1219.12 1457.92 1224.93 1457.92 Z" fill="#000000" fill-rule="evenodd" fill-opacity="1" /><path clip-path="url(#clip090)" d="M 0 0 M1236.87 1452.02 L1260.98 1452.02 L1260.98 1455.22 L1236.87 1455.22 L1236.87 1452.02 Z" fill="#000000" fill-rule="evenodd" fill-opacity="1" /><path clip-path="url(#clip090)" d="M 0 0 M1273.23 1440.11 Q1270.29 1440.11 1268.81 1443.01 Q1267.34 1445.89 1267.34 1451.68 Q1267.34 1457.46 1268.81 1460.35 Q1270.29 1463.23 1273.23 1463.23 Q1276.18 1463.23 1277.65 1460.35 Q1279.13 1457.46 1279.13 1451.68 Q1279.13 1445.89 1277.65 1443.01 Q1276.18 1440.11 1273.23 1440.11 M1273.23 1437.11 Q1277.95 1437.11 1280.43 1440.85 Q1282.93 1444.57 1282.93 1451.68 Q1282.93 1458.77 1280.43 1462.51 Q1277.95 1466.24 1273.23 1466.24 Q1268.51 1466.24 1266.01 1462.51 Q1263.52 1458.77 1263.52 1451.68 Q1263.52 1444.57 1266.01 1440.85 Q1268.51 1437.11 1273.23 1437.11 Z" fill="#000000" fill-rule="evenodd" fill-opacity="1" /><path clip-path="url(#clip090)" d="M 0 0 M1287.05 1460.92 L1291.02 1460.92 L1291.02 1465.69 L1287.05 1465.69 L1287.05 1460.92 Z" fill="#000000" fill-rule="evenodd" fill-opacity="1" /><path clip-path="url(#clip090)" d="M 0 0 M1298.41 1462.5 L1311.67 1462.5 L1311.67 1465.69 L1293.84 1465.69 L1293.84 1462.5 Q1296 1460.26 1299.73 1456.5 Q1303.47 1452.72 1304.43 1451.63 Q1306.25 1449.58 1306.97 1448.16 Q1307.7 1446.74 1307.7 1445.36 Q1307.7 1443.12 1306.12 1441.71 Q1304.56 1440.3 1302.04 1440.3 Q1300.26 1440.3 1298.26 1440.92 Q1296.29 1441.54 1294.03 1442.8 L1294.03 1438.97 Q1296.32 1438.05 1298.32 1437.58 Q1300.31 1437.11 1301.97 1437.11 Q1306.33 1437.11 1308.93 1439.29 Q1311.52 1441.47 1311.52 1445.12 Q1311.52 1446.85 1310.86 1448.41 Q1310.22 1449.95 1308.51 1452.06 Q1308.04 1452.6 1305.52 1455.22 Q1303 1457.81 1298.41 1462.5 Z" fill="#000000" fill-rule="evenodd" fill-opacity="1" /><path clip-path="url(#clip090)" d="M 0 0 M1516.01 1489.17 L1523.64 1489.17 L1523.64 1462.8 L1515.33 1464.47 L1515.33 1460.21 L1523.6 1458.54 L1528.27 1458.54 L1528.27 1489.17 L1535.91 1489.17 L1535.91 1493.1 L1516.01 1493.1 L1516.01 1489.17 Z" fill="#000000" fill-rule="evenodd" fill-opacity="1" /><path clip-path="url(#clip090)" d="M 0 0 M1550.98 1461.62 Q1547.37 1461.62 1545.54 1465.19 Q1543.74 1468.73 1543.74 1475.86 Q1543.74 1482.97 1545.54 1486.53 Q1547.37 1490.07 1550.98 1490.07 Q1554.62 1490.07 1556.42 1486.53 Q1558.25 1482.97 1558.25 1475.86 Q1558.25 1468.73 1556.42 1465.19 Q1554.62 1461.62 1550.98 1461.62 M1550.98 1457.92 Q1556.79 1457.92 1559.85 1462.53 Q1562.93 1467.11 1562.93 1475.86 Q1562.93 1484.59 1559.85 1489.19 Q1556.79 1493.78 1550.98 1493.78 Q1545.17 1493.78 1542.09 1489.19 Q1539.04 1484.59 1539.04 1475.86 Q1539.04 1467.11 1542.09 1462.53 Q1545.17 1457.92 1550.98 1457.92 Z" fill="#000000" fill-rule="evenodd" fill-opacity="1" /><path clip-path="url(#clip090)" d="M 0 0 M1562.93 1452.02 L1587.04 1452.02 L1587.04 1455.22 L1562.93 1455.22 L1562.93 1452.02 Z" fill="#000000" fill-rule="evenodd" fill-opacity="1" /><path clip-path="url(#clip090)" d="M 0 0 M1599.28 1440.11 Q1596.35 1440.11 1594.86 1443.01 Q1593.4 1445.89 1593.4 1451.68 Q1593.4 1457.46 1594.86 1460.35 Q1596.35 1463.23 1599.28 1463.23 Q1602.24 1463.23 1603.7 1460.35 Q1605.19 1457.46 1605.19 1451.68 Q1605.19 1445.89 1603.7 1443.01 Q1602.24 1440.11 1599.28 1440.11 M1599.28 1437.11 Q1604 1437.11 1606.49 1440.85 Q1608.99 1444.57 1608.99 1451.68 Q1608.99 1458.77 1606.49 1462.51 Q1604 1466.24 1599.28 1466.24 Q1594.56 1466.24 1592.06 1462.51 Q1589.58 1458.77 1589.58 1451.68 Q1589.58 1444.57 1592.06 1440.85 Q1594.56 1437.11 1599.28 1437.11 Z" fill="#000000" fill-rule="evenodd" fill-opacity="1" /><path clip-path="url(#clip090)" d="M 0 0 M1613.11 1460.92 L1617.07 1460.92 L1617.07 1465.69 L1613.11 1465.69 L1613.11 1460.92 Z" fill="#000000" fill-rule="evenodd" fill-opacity="1" /><path clip-path="url(#clip090)" d="M 0 0 M1621.85 1462.5 L1628.06 1462.5 L1628.06 1441.07 L1621.31 1442.43 L1621.31 1438.97 L1628.02 1437.61 L1631.82 1437.61 L1631.82 1462.5 L1638.03 1462.5 L1638.03 1465.69 L1621.85 1465.69 L1621.85 1462.5 Z" fill="#000000" fill-rule="evenodd" fill-opacity="1" /><path clip-path="url(#clip090)" d="M 0 0 M1855.04 1489.17 L1862.68 1489.17 L1862.68 1462.8 L1854.37 1464.47 L1854.37 1460.21 L1862.63 1458.54 L1867.31 1458.54 L1867.31 1489.17 L1874.94 1489.17 L1874.94 1493.1 L1855.04 1493.1 L1855.04 1489.17 Z" fill="#000000" fill-rule="evenodd" fill-opacity="1" /><path clip-path="url(#clip090)" d="M 0 0 M1890.01 1461.62 Q1886.4 1461.62 1884.57 1465.19 Q1882.77 1468.73 1882.77 1475.86 Q1882.77 1482.97 1884.57 1486.53 Q1886.4 1490.07 1890.01 1490.07 Q1893.65 1490.07 1895.45 1486.53 Q1897.28 1482.97 1897.28 1475.86 Q1897.28 1468.73 1895.45 1465.19 Q1893.65 1461.62 1890.01 1461.62 M1890.01 1457.92 Q1895.82 1457.92 1898.88 1462.53 Q1901.96 1467.11 1901.96 1475.86 Q1901.96 1484.59 1898.88 1489.19 Q1895.82 1493.78 1890.01 1493.78 Q1884.2 1493.78 1881.12 1489.19 Q1878.07 1484.59 1878.07 1475.86 Q1878.07 1467.11 1881.12 1462.53 Q1884.2 1457.92 1890.01 1457.92 Z" fill="#000000" fill-rule="evenodd" fill-opacity="1" /><path clip-path="url(#clip090)" d="M 0 0 M1911.66 1440.11 Q1908.73 1440.11 1907.24 1443.01 Q1905.78 1445.89 1905.78 1451.68 Q1905.78 1457.46 1907.24 1460.35 Q1908.73 1463.23 1911.66 1463.23 Q1914.62 1463.23 1916.08 1460.35 Q1917.57 1457.46 1917.57 1451.68 Q1917.57 1445.89 1916.08 1443.01 Q1914.62 1440.11 1911.66 1440.11 M1911.66 1437.11 Q1916.38 1437.11 1918.87 1440.85 Q1921.37 1444.57 1921.37 1451.68 Q1921.37 1458.77 1918.87 1462.51 Q1916.38 1466.24 1911.66 1466.24 Q1906.94 1466.24 1904.44 1462.51 Q1901.96 1458.77 1901.96 1451.68 Q1901.96 1444.57 1904.44 1440.85 Q1906.94 1437.11 1911.66 1437.11 Z" fill="#000000" fill-rule="evenodd" fill-opacity="1" /><path clip-path="url(#clip090)" d="M 0 0 M1925.49 1460.92 L1929.45 1460.92 L1929.45 1465.69 L1925.49 1465.69 L1925.49 1460.92 Z" fill="#000000" fill-rule="evenodd" fill-opacity="1" /><path clip-path="url(#clip090)" d="M 0 0 M1941.7 1440.11 Q1938.76 1440.11 1937.28 1443.01 Q1935.81 1445.89 1935.81 1451.68 Q1935.81 1457.46 1937.28 1460.35 Q1938.76 1463.23 1941.7 1463.23 Q1944.65 1463.23 1946.12 1460.35 Q1947.6 1457.46 1947.6 1451.68 Q1947.6 1445.89 1946.12 1443.01 Q1944.65 1440.11 1941.7 1440.11 M1941.7 1437.11 Q1946.42 1437.11 1948.9 1440.85 Q1951.4 1444.57 1951.4 1451.68 Q1951.4 1458.77 1948.9 1462.51 Q1946.42 1466.24 1941.7 1466.24 Q1936.98 1466.24 1934.48 1462.51 Q1931.99 1458.77 1931.99 1451.68 Q1931.99 1444.57 1934.48 1440.85 Q1936.98 1437.11 1941.7 1437.11 Z" fill="#000000" fill-rule="evenodd" fill-opacity="1" /><path clip-path="url(#clip090)" d="M 0 0 M2181.74 1489.17 L2189.38 1489.17 L2189.38 1462.8 L2181.07 1464.47 L2181.07 1460.21 L2189.33 1458.54 L2194.01 1458.54 L2194.01 1489.17 L2201.65 1489.17 L2201.65 1493.1 L2181.74 1493.1 L2181.74 1489.17 Z" fill="#000000" fill-rule="evenodd" fill-opacity="1" /><path clip-path="url(#clip090)" d="M 0 0 M2216.72 1461.62 Q2213.11 1461.62 2211.28 1465.19 Q2209.47 1468.73 2209.47 1475.86 Q2209.47 1482.97 2211.28 1486.53 Q2213.11 1490.07 2216.72 1490.07 Q2220.35 1490.07 2222.16 1486.53 Q2223.98 1482.97 2223.98 1475.86 Q2223.98 1468.73 2222.16 1465.19 Q2220.35 1461.62 2216.72 1461.62 M2216.72 1457.92 Q2222.53 1457.92 2225.58 1462.53 Q2228.66 1467.11 2228.66 1475.86 Q2228.66 1484.59 2225.58 1489.19 Q2222.53 1493.78 2216.72 1493.78 Q2210.91 1493.78 2207.83 1489.19 Q2204.77 1484.59 2204.77 1475.86 Q2204.77 1467.11 2207.83 1462.53 Q2210.91 1457.92 2216.72 1457.92 Z" fill="#000000" fill-rule="evenodd" fill-opacity="1" /><path clip-path="url(#clip090)" d="M 0 0 M2238.37 1440.11 Q2235.43 1440.11 2233.95 1443.01 Q2232.48 1445.89 2232.48 1451.68 Q2232.48 1457.46 2233.95 1460.35 Q2235.43 1463.23 2238.37 1463.23 Q2241.32 1463.23 2242.79 1460.35 Q2244.27 1457.46 2244.27 1451.68 Q2244.27 1445.89 2242.79 1443.01 Q2241.32 1440.11 2238.37 1440.11 M2238.37 1437.11 Q2243.09 1437.11 2245.57 1440.85 Q2248.07 1444.57 2248.07 1451.68 Q2248.07 1458.77 2245.57 1462.51 Q2243.09 1466.24 2238.37 1466.24 Q2233.64 1466.24 2231.14 1462.51 Q2228.66 1458.77 2228.66 1451.68 Q2228.66 1444.57 2231.14 1440.85 Q2233.64 1437.11 2238.37 1437.11 Z" fill="#000000" fill-rule="evenodd" fill-opacity="1" /><path clip-path="url(#clip090)" d="M 0 0 M2252.19 1460.92 L2256.16 1460.92 L2256.16 1465.69 L2252.19 1465.69 L2252.19 1460.92 Z" fill="#000000" fill-rule="evenodd" fill-opacity="1" /><path clip-path="url(#clip090)" d="M 0 0 M2260.93 1462.5 L2267.14 1462.5 L2267.14 1441.07 L2260.39 1442.43 L2260.39 1438.97 L2267.1 1437.61 L2270.9 1437.61 L2270.9 1462.5 L2277.11 1462.5 L2277.11 1465.69 L2260.93 1465.69 L2260.93 1462.5 Z" fill="#000000" fill-rule="evenodd" fill-opacity="1" /><path clip-path="url(#clip090)" d="M 0 0 M1174.28 1526.54 L1180.49 1526.54 L1191.63 1556.46 L1202.77 1526.54 L1208.97 1526.54 L1195.61 1562.19 L1187.65 1562.19 L1174.28 1526.54 Z" fill="#000000" fill-rule="evenodd" fill-opacity="1" /><path clip-path="url(#clip090)" d="M 0 0 M1242.2 1573.01 L1242.2 1577.56 L1208.34 1577.56 L1208.34 1573.01 L1242.2 1573.01 Z" fill="#000000" fill-rule="evenodd" fill-opacity="1" /><path clip-path="url(#clip090)" d="M 0 0 M1274 1527.91 L1274 1533.38 Q1271.52 1532.01 1269 1531.34 Q1266.52 1530.64 1263.97 1530.64 Q1258.28 1530.64 1255.13 1534.27 Q1251.98 1537.87 1251.98 1544.39 Q1251.98 1550.92 1255.13 1554.55 Q1258.28 1558.14 1263.97 1558.14 Q1266.52 1558.14 1269 1557.47 Q1271.52 1556.77 1274 1555.41 L1274 1560.82 Q1271.55 1561.96 1268.91 1562.54 Q1266.3 1563.11 1263.34 1563.11 Q1255.29 1563.11 1250.54 1558.05 Q1245.8 1552.99 1245.8 1544.39 Q1245.8 1535.67 1250.57 1530.68 Q1255.38 1525.68 1263.72 1525.68 Q1266.43 1525.68 1269 1526.25 Q1271.58 1526.79 1274 1527.91 Z" fill="#000000" fill-rule="evenodd" fill-opacity="1" /><path clip-path="url(#clip090)" d="M 0 0 M1280.14 1512.66 L1286 1512.66 L1286 1562.19 L1280.14 1562.19 L1280.14 1512.66 Z" fill="#000000" fill-rule="evenodd" fill-opacity="1" /><path clip-path="url(#clip090)" d="M 0 0 M1305.96 1530.64 Q1301.25 1530.64 1298.51 1534.34 Q1295.77 1538 1295.77 1544.39 Q1295.77 1550.79 1298.48 1554.48 Q1301.21 1558.14 1305.96 1558.14 Q1310.64 1558.14 1313.37 1554.45 Q1316.11 1550.76 1316.11 1544.39 Q1316.11 1538.06 1313.37 1534.37 Q1310.64 1530.64 1305.96 1530.64 M1305.96 1525.68 Q1313.6 1525.68 1317.96 1530.64 Q1322.32 1535.61 1322.32 1544.39 Q1322.32 1553.15 1317.96 1558.14 Q1313.6 1563.11 1305.96 1563.11 Q1298.29 1563.11 1293.93 1558.14 Q1289.6 1553.15 1289.6 1544.39 Q1289.6 1535.61 1293.93 1530.64 Q1298.29 1525.68 1305.96 1525.68 Z" fill="#000000" fill-rule="evenodd" fill-opacity="1" /><path clip-path="url(#clip090)" d="M 0 0 M1351.18 1527.59 L1351.18 1533.13 Q1348.7 1531.85 1346.03 1531.22 Q1343.36 1530.58 1340.49 1530.58 Q1336.13 1530.58 1333.93 1531.92 Q1331.77 1533.25 1331.77 1535.93 Q1331.77 1537.96 1333.33 1539.14 Q1334.89 1540.29 1339.6 1541.34 L1341.6 1541.78 Q1347.84 1543.12 1350.45 1545.57 Q1353.09 1547.99 1353.09 1552.35 Q1353.09 1557.32 1349.15 1560.21 Q1345.23 1563.11 1338.36 1563.11 Q1335.49 1563.11 1332.37 1562.54 Q1329.29 1561.99 1325.85 1560.88 L1325.85 1554.83 Q1329.1 1556.52 1332.25 1557.38 Q1335.4 1558.21 1338.49 1558.21 Q1342.62 1558.21 1344.85 1556.81 Q1347.08 1555.37 1347.08 1552.8 Q1347.08 1550.41 1345.46 1549.14 Q1343.86 1547.86 1338.42 1546.68 L1336.38 1546.21 Q1330.94 1545.06 1328.52 1542.71 Q1326.1 1540.32 1326.1 1536.18 Q1326.1 1531.15 1329.67 1528.42 Q1333.23 1525.68 1339.79 1525.68 Q1343.04 1525.68 1345.9 1526.16 Q1348.77 1526.63 1351.18 1527.59 Z" fill="#000000" fill-rule="evenodd" fill-opacity="1" /><path clip-path="url(#clip090)" d="M 0 0 M1389.73 1542.9 L1389.73 1545.76 L1362.8 1545.76 Q1363.18 1551.81 1366.43 1554.99 Q1369.71 1558.14 1375.53 1558.14 Q1378.91 1558.14 1382.06 1557.32 Q1385.24 1556.49 1388.36 1554.83 L1388.36 1560.37 Q1385.21 1561.71 1381.9 1562.41 Q1378.59 1563.11 1375.18 1563.11 Q1366.65 1563.11 1361.66 1558.14 Q1356.69 1553.18 1356.69 1544.71 Q1356.69 1535.96 1361.4 1530.83 Q1366.14 1525.68 1374.17 1525.68 Q1381.36 1525.68 1385.53 1530.33 Q1389.73 1534.94 1389.73 1542.9 M1383.87 1541.18 Q1383.81 1536.37 1381.17 1533.51 Q1378.56 1530.64 1374.23 1530.64 Q1369.33 1530.64 1366.37 1533.41 Q1363.44 1536.18 1362.99 1541.21 L1383.87 1541.18 Z" fill="#000000" fill-rule="evenodd" fill-opacity="1" /><polyline clip-path="url(#clip092)" style="stroke:#000000; stroke-width:2; stroke-opacity:0.1; fill:none" points="
  211.255,1259.01 2352.76,1259.01 
  "/>
<polyline clip-path="url(#clip092)" style="stroke:#000000; stroke-width:2; stroke-opacity:0.1; fill:none" points="
  211.255,1001.72 2352.76,1001.72 
  "/>
<polyline clip-path="url(#clip092)" style="stroke:#000000; stroke-width:2; stroke-opacity:0.1; fill:none" points="
  211.255,744.425 2352.76,744.425 
  "/>
<polyline clip-path="url(#clip092)" style="stroke:#000000; stroke-width:2; stroke-opacity:0.1; fill:none" points="
  211.255,487.132 2352.76,487.132 
  "/>
<polyline clip-path="url(#clip092)" style="stroke:#000000; stroke-width:2; stroke-opacity:0.1; fill:none" points="
  211.255,229.839 2352.76,229.839 
  "/>
<polyline clip-path="url(#clip090)" style="stroke:#000000; stroke-width:4; stroke-opacity:1; fill:none" points="
  211.255,1410.9 211.255,47.2441 
  "/>
<polyline clip-path="url(#clip090)" style="stroke:#000000; stroke-width:4; stroke-opacity:1; fill:none" points="
  211.255,1259.01 236.953,1259.01 
  "/>
<polyline clip-path="url(#clip090)" style="stroke:#000000; stroke-width:4; stroke-opacity:1; fill:none" points="
  211.255,1001.72 236.953,1001.72 
  "/>
<polyline clip-path="url(#clip090)" style="stroke:#000000; stroke-width:4; stroke-opacity:1; fill:none" points="
  211.255,744.425 236.953,744.425 
  "/>
<polyline clip-path="url(#clip090)" style="stroke:#000000; stroke-width:4; stroke-opacity:1; fill:none" points="
  211.255,487.132 236.953,487.132 
  "/>
<polyline clip-path="url(#clip090)" style="stroke:#000000; stroke-width:4; stroke-opacity:1; fill:none" points="
  211.255,229.839 236.953,229.839 
  "/>
<path clip-path="url(#clip090)" d="M 0 0 M126.598 1257.15 Q123.45 1257.15 121.598 1259.3 Q119.769 1261.45 119.769 1265.2 Q119.769 1268.93 121.598 1271.11 Q123.45 1273.26 126.598 1273.26 Q129.746 1273.26 131.575 1271.11 Q133.427 1268.93 133.427 1265.2 Q133.427 1261.45 131.575 1259.3 Q129.746 1257.15 126.598 1257.15 M135.88 1242.49 L135.88 1246.75 Q134.121 1245.92 132.316 1245.48 Q130.533 1245.04 128.774 1245.04 Q124.144 1245.04 121.691 1248.17 Q119.26 1251.29 118.913 1257.61 Q120.279 1255.6 122.339 1254.53 Q124.399 1253.44 126.876 1253.44 Q132.084 1253.44 135.093 1256.62 Q138.126 1259.76 138.126 1265.2 Q138.126 1270.53 134.978 1273.74 Q131.83 1276.96 126.598 1276.96 Q120.603 1276.96 117.431 1272.38 Q114.26 1267.77 114.26 1259.05 Q114.26 1250.85 118.149 1245.99 Q122.038 1241.11 128.589 1241.11 Q130.348 1241.11 132.13 1241.45 Q133.936 1241.8 135.88 1242.49 Z" fill="#000000" fill-rule="evenodd" fill-opacity="1" /><path clip-path="url(#clip090)" d="M 0 0 M143.195 1270.41 L148.079 1270.41 L148.079 1276.29 L143.195 1276.29 L143.195 1270.41 Z" fill="#000000" fill-rule="evenodd" fill-opacity="1" /><path clip-path="url(#clip090)" d="M 0 0 M163.727 1257.15 Q160.579 1257.15 158.728 1259.3 Q156.899 1261.45 156.899 1265.2 Q156.899 1268.93 158.728 1271.11 Q160.579 1273.26 163.727 1273.26 Q166.876 1273.26 168.704 1271.11 Q170.556 1268.93 170.556 1265.2 Q170.556 1261.45 168.704 1259.3 Q166.876 1257.15 163.727 1257.15 M173.01 1242.49 L173.01 1246.75 Q171.251 1245.92 169.445 1245.48 Q167.663 1245.04 165.903 1245.04 Q161.274 1245.04 158.82 1248.17 Q156.39 1251.29 156.042 1257.61 Q157.408 1255.6 159.468 1254.53 Q161.528 1253.44 164.005 1253.44 Q169.214 1253.44 172.223 1256.62 Q175.255 1259.76 175.255 1265.2 Q175.255 1270.53 172.107 1273.74 Q168.959 1276.96 163.727 1276.96 Q157.732 1276.96 154.561 1272.38 Q151.39 1267.77 151.39 1259.05 Q151.39 1250.85 155.278 1245.99 Q159.167 1241.11 165.718 1241.11 Q167.477 1241.11 169.26 1241.45 Q171.065 1241.8 173.01 1242.49 Z" fill="#000000" fill-rule="evenodd" fill-opacity="1" /><path clip-path="url(#clip090)" d="M 0 0 M126.853 999.855 Q123.705 999.855 121.853 1002.01 Q120.024 1004.16 120.024 1007.91 Q120.024 1011.64 121.853 1013.81 Q123.705 1015.97 126.853 1015.97 Q130.001 1015.97 131.83 1013.81 Q133.681 1011.64 133.681 1007.91 Q133.681 1004.16 131.83 1002.01 Q130.001 999.855 126.853 999.855 M136.135 985.202 L136.135 989.461 Q134.376 988.628 132.57 988.188 Q130.788 987.748 129.029 987.748 Q124.399 987.748 121.945 990.873 Q119.515 993.998 119.168 1000.32 Q120.533 998.304 122.593 997.239 Q124.654 996.151 127.13 996.151 Q132.339 996.151 135.348 999.322 Q138.38 1002.47 138.38 1007.91 Q138.38 1013.23 135.232 1016.45 Q132.084 1019.67 126.853 1019.67 Q120.857 1019.67 117.686 1015.09 Q114.515 1010.48 114.515 1001.75 Q114.515 993.558 118.404 988.697 Q122.293 983.813 128.843 983.813 Q130.603 983.813 132.385 984.16 Q134.191 984.508 136.135 985.202 Z" fill="#000000" fill-rule="evenodd" fill-opacity="1" /><path clip-path="url(#clip090)" d="M 0 0 M143.45 1013.12 L148.334 1013.12 L148.334 1019 L143.45 1019 L143.45 1013.12 Z" fill="#000000" fill-rule="evenodd" fill-opacity="1" /><path clip-path="url(#clip090)" d="M 0 0 M163.403 1002.59 Q160.07 1002.59 158.149 1004.37 Q156.251 1006.15 156.251 1009.28 Q156.251 1012.4 158.149 1014.18 Q160.07 1015.97 163.403 1015.97 Q166.737 1015.97 168.658 1014.18 Q170.579 1012.38 170.579 1009.28 Q170.579 1006.15 168.658 1004.37 Q166.76 1002.59 163.403 1002.59 M158.728 1000.6 Q155.718 999.855 154.028 997.795 Q152.362 995.734 152.362 992.771 Q152.362 988.628 155.302 986.221 Q158.265 983.813 163.403 983.813 Q168.565 983.813 171.505 986.221 Q174.445 988.628 174.445 992.771 Q174.445 995.734 172.755 997.795 Q171.089 999.855 168.102 1000.6 Q171.482 1001.38 173.357 1003.67 Q175.255 1005.97 175.255 1009.28 Q175.255 1014.3 172.177 1016.98 Q169.121 1019.67 163.403 1019.67 Q157.686 1019.67 154.607 1016.98 Q151.552 1014.3 151.552 1009.28 Q151.552 1005.97 153.45 1003.67 Q155.348 1001.38 158.728 1000.6 M157.015 993.211 Q157.015 995.896 158.681 997.401 Q160.371 998.906 163.403 998.906 Q166.413 998.906 168.102 997.401 Q169.815 995.896 169.815 993.211 Q169.815 990.526 168.102 989.021 Q166.413 987.517 163.403 987.517 Q160.371 987.517 158.681 989.021 Q157.015 990.526 157.015 993.211 Z" fill="#000000" fill-rule="evenodd" fill-opacity="1" /><path clip-path="url(#clip090)" d="M 0 0 M116.066 727.145 L138.288 727.145 L138.288 729.136 L125.742 761.705 L120.857 761.705 L132.663 731.08 L116.066 731.08 L116.066 727.145 Z" fill="#000000" fill-rule="evenodd" fill-opacity="1" /><path clip-path="url(#clip090)" d="M 0 0 M143.357 755.826 L148.241 755.826 L148.241 761.705 L143.357 761.705 L143.357 755.826 Z" fill="#000000" fill-rule="evenodd" fill-opacity="1" /><path clip-path="url(#clip090)" d="M 0 0 M163.311 730.224 Q159.7 730.224 157.871 733.789 Q156.065 737.33 156.065 744.46 Q156.065 751.566 157.871 755.131 Q159.7 758.673 163.311 758.673 Q166.945 758.673 168.751 755.131 Q170.579 751.566 170.579 744.46 Q170.579 737.33 168.751 733.789 Q166.945 730.224 163.311 730.224 M163.311 726.52 Q169.121 726.52 172.177 731.127 Q175.255 735.71 175.255 744.46 Q175.255 753.187 172.177 757.793 Q169.121 762.377 163.311 762.377 Q157.501 762.377 154.422 757.793 Q151.366 753.187 151.366 744.46 Q151.366 735.71 154.422 731.127 Q157.501 726.52 163.311 726.52 Z" fill="#000000" fill-rule="evenodd" fill-opacity="1" /><path clip-path="url(#clip090)" d="M 0 0 M117.663 469.852 L139.885 469.852 L139.885 471.843 L127.339 504.412 L122.455 504.412 L134.26 473.787 L117.663 473.787 L117.663 469.852 Z" fill="#000000" fill-rule="evenodd" fill-opacity="1" /><path clip-path="url(#clip090)" d="M 0 0 M144.954 498.533 L149.839 498.533 L149.839 504.412 L144.954 504.412 L144.954 498.533 Z" fill="#000000" fill-rule="evenodd" fill-opacity="1" /><path clip-path="url(#clip090)" d="M 0 0 M158.936 500.477 L175.255 500.477 L175.255 504.412 L153.311 504.412 L153.311 500.477 Q155.973 497.723 160.556 493.093 Q165.163 488.44 166.343 487.098 Q168.589 484.574 169.468 482.838 Q170.371 481.079 170.371 479.389 Q170.371 476.635 168.427 474.899 Q166.505 473.162 163.403 473.162 Q161.204 473.162 158.751 473.926 Q156.32 474.69 153.542 476.241 L153.542 471.519 Q156.366 470.385 158.82 469.806 Q161.274 469.227 163.311 469.227 Q168.681 469.227 171.876 471.912 Q175.07 474.598 175.07 479.088 Q175.07 481.218 174.26 483.139 Q173.473 485.037 171.366 487.63 Q170.788 488.301 167.686 491.519 Q164.584 494.713 158.936 500.477 Z" fill="#000000" fill-rule="evenodd" fill-opacity="1" /><path clip-path="url(#clip090)" d="M 0 0 M115.58 212.559 L137.802 212.559 L137.802 214.55 L125.255 247.119 L120.371 247.119 L132.177 216.495 L115.58 216.495 L115.58 212.559 Z" fill="#000000" fill-rule="evenodd" fill-opacity="1" /><path clip-path="url(#clip090)" d="M 0 0 M142.871 241.24 L147.755 241.24 L147.755 247.119 L142.871 247.119 L142.871 241.24 Z" fill="#000000" fill-rule="evenodd" fill-opacity="1" /><path clip-path="url(#clip090)" d="M 0 0 M165.672 216.633 L153.866 235.082 L165.672 235.082 L165.672 216.633 M164.445 212.559 L170.325 212.559 L170.325 235.082 L175.255 235.082 L175.255 238.971 L170.325 238.971 L170.325 247.119 L165.672 247.119 L165.672 238.971 L150.07 238.971 L150.07 234.457 L164.445 212.559 Z" fill="#000000" fill-rule="evenodd" fill-opacity="1" /><path clip-path="url(#clip090)" d="M 0 0 M59.1993 815.533 Q55.2526 813.336 53.3747 810.281 Q51.4968 807.225 51.4968 803.088 Q51.4968 797.518 55.4117 794.494 Q59.2948 791.47 66.4881 791.47 L88.0042 791.47 L88.0042 797.358 L66.679 797.358 Q61.5546 797.358 59.072 799.173 Q56.5894 800.987 56.5894 804.711 Q56.5894 809.262 59.6131 811.904 Q62.6368 814.546 67.8567 814.546 L88.0042 814.546 L88.0042 820.434 L66.679 820.434 Q61.5228 820.434 59.072 822.248 Q56.5894 824.063 56.5894 827.85 Q56.5894 832.338 59.6449 834.98 Q62.6686 837.622 67.8567 837.622 L88.0042 837.622 L88.0042 843.51 L52.3562 843.51 L52.3562 837.622 L57.8944 837.622 Q54.616 835.616 53.0564 832.815 Q51.4968 830.015 51.4968 826.163 Q51.4968 822.28 53.4702 819.575 Q55.4436 816.838 59.1993 815.533 Z" fill="#000000" fill-rule="evenodd" fill-opacity="1" /><path clip-path="url(#clip090)" d="M 0 0 M52.3562 785.327 L52.3562 779.471 L88.0042 779.471 L88.0042 785.327 L52.3562 785.327 M38.479 785.327 L38.479 779.471 L45.895 779.471 L45.895 785.327 L38.479 785.327 Z" fill="#000000" fill-rule="evenodd" fill-opacity="1" /><path clip-path="url(#clip090)" d="M 0 0 M66.4881 743.696 L88.0042 743.696 L88.0042 749.552 L66.679 749.552 Q61.6183 749.552 59.1038 751.525 Q56.5894 753.499 56.5894 757.446 Q56.5894 762.188 59.6131 764.925 Q62.6368 767.662 67.8567 767.662 L88.0042 767.662 L88.0042 773.551 L52.3562 773.551 L52.3562 767.662 L57.8944 767.662 Q54.6797 765.562 53.0883 762.729 Q51.4968 759.864 51.4968 756.141 Q51.4968 749.998 55.3163 746.847 Q59.1038 743.696 66.4881 743.696 Z" fill="#000000" fill-rule="evenodd" fill-opacity="1" /><path clip-path="url(#clip090)" d="M 0 0 M98.8259 710.467 L103.377 710.467 L103.377 744.332 L98.8259 744.332 L98.8259 710.467 Z" fill="#000000" fill-rule="evenodd" fill-opacity="1" /><path clip-path="url(#clip090)" d="M 0 0 M57.7671 680.866 L38.479 680.866 L38.479 675.01 L88.0042 675.01 L88.0042 680.866 L82.657 680.866 Q85.8398 682.712 87.3994 685.545 Q88.9272 688.346 88.9272 692.292 Q88.9272 698.754 83.771 702.828 Q78.6147 706.87 70.212 706.87 Q61.8093 706.87 56.6531 702.828 Q51.4968 698.754 51.4968 692.292 Q51.4968 688.346 53.0564 685.545 Q54.5842 682.712 57.7671 680.866 M70.212 700.823 Q76.6732 700.823 80.3653 698.181 Q84.0256 695.507 84.0256 690.86 Q84.0256 686.213 80.3653 683.54 Q76.6732 680.866 70.212 680.866 Q63.7508 680.866 60.0905 683.54 Q56.3984 686.213 56.3984 690.86 Q56.3984 695.507 60.0905 698.181 Q63.7508 700.823 70.212 700.823 Z" fill="#000000" fill-rule="evenodd" fill-opacity="1" /><path clip-path="url(#clip090)" d="M 0 0 M52.3562 668.867 L52.3562 663.01 L88.0042 663.01 L88.0042 668.867 L52.3562 668.867 M38.479 668.867 L38.479 663.01 L45.895 663.01 L45.895 668.867 L38.479 668.867 Z" fill="#000000" fill-rule="evenodd" fill-opacity="1" /><path clip-path="url(#clip090)" d="M 0 0 M38.479 638.821 L43.3487 638.821 L43.3487 644.422 Q43.3487 647.573 44.6219 648.815 Q45.895 650.024 49.2052 650.024 L52.3562 650.024 L52.3562 640.38 L56.9077 640.38 L56.9077 650.024 L88.0042 650.024 L88.0042 655.912 L56.9077 655.912 L56.9077 661.514 L52.3562 661.514 L52.3562 655.912 L49.8736 655.912 Q43.9216 655.912 41.2162 653.143 Q38.479 650.374 38.479 644.359 L38.479 638.821 Z" fill="#000000" fill-rule="evenodd" fill-opacity="1" /><path clip-path="url(#clip090)" d="M 0 0 M38.479 614.631 L43.3487 614.631 L43.3487 620.233 Q43.3487 623.384 44.6219 624.625 Q45.895 625.835 49.2052 625.835 L52.3562 625.835 L52.3562 616.19 L56.9077 616.19 L56.9077 625.835 L88.0042 625.835 L88.0042 631.723 L56.9077 631.723 L56.9077 637.325 L52.3562 637.325 L52.3562 631.723 L49.8736 631.723 Q43.9216 631.723 41.2162 628.954 Q38.479 626.185 38.479 620.169 L38.479 614.631 Z" fill="#000000" fill-rule="evenodd" fill-opacity="1" /><path clip-path="url(#clip090)" d="
M1992.41 213.659 L2281.37 213.659 L2281.37 92.6992 L1992.41 92.6992  Z
  " fill="#ffffff" fill-rule="evenodd" fill-opacity="1"/>
<polyline clip-path="url(#clip090)" style="stroke:#000000; stroke-width:4; stroke-opacity:1; fill:none" points="
  1992.41,213.659 2281.37,213.659 2281.37,92.6992 1992.41,92.6992 1992.41,213.659 
  "/>
<polyline clip-path="url(#clip090)" style="stroke:#009af9; stroke-width:4; stroke-opacity:1; fill:none" stroke-dasharray="16, 10" points="
  2016.2,153.179 2158.97,153.179 
  "/>
<path clip-path="url(#clip090)" d="M 0 0 M2196.61 172.867 Q2194.8 177.496 2193.09 178.908 Q2191.38 180.32 2188.51 180.32 L2185.1 180.32 L2185.1 176.755 L2187.6 176.755 Q2189.36 176.755 2190.33 175.922 Q2191.31 175.089 2192.49 171.987 L2193.25 170.043 L2182.77 144.533 L2187.28 144.533 L2195.38 164.811 L2203.48 144.533 L2208 144.533 L2196.61 172.867 Z" fill="#000000" fill-rule="evenodd" fill-opacity="1" /><path clip-path="url(#clip090)" d="M 0 0 M2213.88 166.524 L2221.52 166.524 L2221.52 140.158 L2213.21 141.825 L2213.21 137.566 L2221.47 135.899 L2226.14 135.899 L2226.14 166.524 L2233.78 166.524 L2233.78 170.459 L2213.88 170.459 L2213.88 166.524 Z" fill="#000000" fill-rule="evenodd" fill-opacity="1" /></svg>
