<?xml version="1.0" encoding="utf-8"?>
<svg xmlns="http://www.w3.org/2000/svg" xmlns:xlink="http://www.w3.org/1999/xlink" width="600" height="400" viewBox="0 0 2400 1600">
<defs>
  <clipPath id="clip560">
    <rect x="0" y="0" width="2400" height="1600"/>
  </clipPath>
</defs>
<path clip-path="url(#clip560)" d="
M0 1600 L2400 1600 L2400 0 L0 0  Z
  " fill="#ffffff" fill-rule="evenodd" fill-opacity="1"/>
<defs>
  <clipPath id="clip561">
    <rect x="480" y="0" width="1681" height="1600"/>
  </clipPath>
</defs>
<path clip-path="url(#clip560)" d="
M209.658 1410.9 L2352.76 1410.9 L2352.76 47.2441 L209.658 47.2441  Z
  " fill="#ffffff" fill-rule="evenodd" fill-opacity="1"/>
<defs>
  <clipPath id="clip562">
    <rect x="209" y="47" width="2144" height="1365"/>
  </clipPath>
</defs>
<polyline clip-path="url(#clip562)" style="stroke:#000000; stroke-width:2; stroke-opacity:0.1; fill:none" points="
  270.312,1410.9 270.312,47.2441 
  "/>
<polyline clip-path="url(#clip562)" style="stroke:#000000; stroke-width:2; stroke-opacity:0.1; fill:none" points="
  674.67,1410.9 674.67,47.2441 
  "/>
<polyline clip-path="url(#clip562)" style="stroke:#000000; stroke-width:2; stroke-opacity:0.1; fill:none" points="
  1079.03,1410.9 1079.03,47.2441 
  "/>
<polyline clip-path="url(#clip562)" style="stroke:#000000; stroke-width:2; stroke-opacity:0.1; fill:none" points="
  1483.39,1410.9 1483.39,47.2441 
  "/>
<polyline clip-path="url(#clip562)" style="stroke:#000000; stroke-width:2; stroke-opacity:0.1; fill:none" points="
  1887.74,1410.9 1887.74,47.2441 
  "/>
<polyline clip-path="url(#clip562)" style="stroke:#000000; stroke-width:2; stroke-opacity:0.1; fill:none" points="
  2292.1,1410.9 2292.1,47.2441 
  "/>
<polyline clip-path="url(#clip560)" style="stroke:#000000; stroke-width:4; stroke-opacity:1; fill:none" points="
  209.658,1410.9 2352.76,1410.9 
  "/>
<polyline clip-path="url(#clip560)" style="stroke:#000000; stroke-width:4; stroke-opacity:1; fill:none" points="
  270.312,1410.9 270.312,1394.53 
  "/>
<polyline clip-path="url(#clip560)" style="stroke:#000000; stroke-width:4; stroke-opacity:1; fill:none" points="
  674.67,1410.9 674.67,1394.53 
  "/>
<polyline clip-path="url(#clip560)" style="stroke:#000000; stroke-width:4; stroke-opacity:1; fill:none" points="
  1079.03,1410.9 1079.03,1394.53 
  "/>
<polyline clip-path="url(#clip560)" style="stroke:#000000; stroke-width:4; stroke-opacity:1; fill:none" points="
  1483.39,1410.9 1483.39,1394.53 
  "/>
<polyline clip-path="url(#clip560)" style="stroke:#000000; stroke-width:4; stroke-opacity:1; fill:none" points="
  1887.74,1410.9 1887.74,1394.53 
  "/>
<polyline clip-path="url(#clip560)" style="stroke:#000000; stroke-width:4; stroke-opacity:1; fill:none" points="
  2292.1,1410.9 2292.1,1394.53 
  "/>
<path clip-path="url(#clip560)" d="M 0 0 M209.806 1489.17 L217.445 1489.17 L217.445 1462.8 L209.135 1464.47 L209.135 1460.21 L217.399 1458.54 L222.075 1458.54 L222.075 1489.17 L229.714 1489.17 L229.714 1493.1 L209.806 1493.1 L209.806 1489.17 Z" fill="#000000" fill-rule="evenodd" fill-opacity="1" /><path clip-path="url(#clip560)" d="M 0 0 M244.783 1461.62 Q241.172 1461.62 239.343 1465.19 Q237.538 1468.73 237.538 1475.86 Q237.538 1482.97 239.343 1486.53 Q241.172 1490.07 244.783 1490.07 Q248.417 1490.07 250.223 1486.53 Q252.052 1482.97 252.052 1475.86 Q252.052 1468.73 250.223 1465.19 Q248.417 1461.62 244.783 1461.62 M244.783 1457.92 Q250.593 1457.92 253.649 1462.53 Q256.727 1467.11 256.727 1475.86 Q256.727 1484.59 253.649 1489.19 Q250.593 1493.78 244.783 1493.78 Q238.973 1493.78 235.894 1489.19 Q232.839 1484.59 232.839 1475.86 Q232.839 1467.11 235.894 1462.53 Q238.973 1457.92 244.783 1457.92 Z" fill="#000000" fill-rule="evenodd" fill-opacity="1" /><path clip-path="url(#clip560)" d="M 0 0 M256.727 1452.02 L280.839 1452.02 L280.839 1455.22 L256.727 1455.22 L256.727 1452.02 Z" fill="#000000" fill-rule="evenodd" fill-opacity="1" /><path clip-path="url(#clip560)" d="M 0 0 M296.468 1450.55 Q299.195 1451.14 300.719 1452.98 Q302.261 1454.82 302.261 1457.53 Q302.261 1461.69 299.402 1463.96 Q296.543 1466.24 291.277 1466.24 Q289.509 1466.24 287.629 1465.88 Q285.767 1465.54 283.773 1464.85 L283.773 1461.18 Q285.353 1462.1 287.234 1462.57 Q289.114 1463.04 291.164 1463.04 Q294.738 1463.04 296.6 1461.63 Q298.481 1460.22 298.481 1457.53 Q298.481 1455.05 296.732 1453.66 Q295.001 1452.25 291.898 1452.25 L288.625 1452.25 L288.625 1449.12 L292.048 1449.12 Q294.851 1449.12 296.337 1448.01 Q297.822 1446.89 297.822 1444.78 Q297.822 1442.62 296.28 1441.47 Q294.757 1440.3 291.898 1440.3 Q290.337 1440.3 288.55 1440.64 Q286.763 1440.98 284.619 1441.69 L284.619 1438.31 Q286.782 1437.71 288.663 1437.41 Q290.563 1437.11 292.236 1437.11 Q296.562 1437.11 299.083 1439.08 Q301.603 1441.04 301.603 1444.38 Q301.603 1446.72 300.267 1448.33 Q298.932 1449.93 296.468 1450.55 Z" fill="#000000" fill-rule="evenodd" fill-opacity="1" /><path clip-path="url(#clip560)" d="M 0 0 M306.38 1460.92 L310.348 1460.92 L310.348 1465.69 L306.38 1465.69 L306.38 1460.92 Z" fill="#000000" fill-rule="evenodd" fill-opacity="1" /><path clip-path="url(#clip560)" d="M 0 0 M314.505 1437.61 L329.419 1437.61 L329.419 1440.81 L317.984 1440.81 L317.984 1447.69 Q318.812 1447.41 319.639 1447.28 Q320.467 1447.13 321.295 1447.13 Q325.996 1447.13 328.742 1449.71 Q331.488 1452.28 331.488 1456.68 Q331.488 1461.22 328.667 1463.74 Q325.846 1466.24 320.711 1466.24 Q318.944 1466.24 317.1 1465.94 Q315.276 1465.64 313.32 1465.04 L313.32 1461.22 Q315.013 1462.14 316.818 1462.59 Q318.624 1463.04 320.636 1463.04 Q323.89 1463.04 325.79 1461.33 Q327.689 1459.62 327.689 1456.68 Q327.689 1453.75 325.79 1452.04 Q323.89 1450.33 320.636 1450.33 Q319.113 1450.33 317.589 1450.67 Q316.085 1451 314.505 1451.72 L314.505 1437.61 Z" fill="#000000" fill-rule="evenodd" fill-opacity="1" /><path clip-path="url(#clip560)" d="M 0 0 M613.76 1489.17 L621.399 1489.17 L621.399 1462.8 L613.089 1464.47 L613.089 1460.21 L621.353 1458.54 L626.029 1458.54 L626.029 1489.17 L633.667 1489.17 L633.667 1493.1 L613.76 1493.1 L613.76 1489.17 Z" fill="#000000" fill-rule="evenodd" fill-opacity="1" /><path clip-path="url(#clip560)" d="M 0 0 M648.737 1461.62 Q645.126 1461.62 643.297 1465.19 Q641.491 1468.73 641.491 1475.86 Q641.491 1482.97 643.297 1486.53 Q645.126 1490.07 648.737 1490.07 Q652.371 1490.07 654.177 1486.53 Q656.005 1482.97 656.005 1475.86 Q656.005 1468.73 654.177 1465.19 Q652.371 1461.62 648.737 1461.62 M648.737 1457.92 Q654.547 1457.92 657.602 1462.53 Q660.681 1467.11 660.681 1475.86 Q660.681 1484.59 657.602 1489.19 Q654.547 1493.78 648.737 1493.78 Q642.927 1493.78 639.848 1489.19 Q636.792 1484.59 636.792 1475.86 Q636.792 1467.11 639.848 1462.53 Q642.927 1457.92 648.737 1457.92 Z" fill="#000000" fill-rule="evenodd" fill-opacity="1" /><path clip-path="url(#clip560)" d="M 0 0 M660.681 1452.02 L684.793 1452.02 L684.793 1455.22 L660.681 1455.22 L660.681 1452.02 Z" fill="#000000" fill-rule="evenodd" fill-opacity="1" /><path clip-path="url(#clip560)" d="M 0 0 M700.422 1450.55 Q703.149 1451.14 704.673 1452.98 Q706.215 1454.82 706.215 1457.53 Q706.215 1461.69 703.356 1463.96 Q700.497 1466.24 695.231 1466.24 Q693.463 1466.24 691.582 1465.88 Q689.72 1465.54 687.727 1464.85 L687.727 1461.18 Q689.307 1462.1 691.187 1462.57 Q693.068 1463.04 695.118 1463.04 Q698.692 1463.04 700.554 1461.63 Q702.434 1460.22 702.434 1457.53 Q702.434 1455.05 700.685 1453.66 Q698.955 1452.25 695.852 1452.25 L692.579 1452.25 L692.579 1449.12 L696.002 1449.12 Q698.805 1449.12 700.29 1448.01 Q701.776 1446.89 701.776 1444.78 Q701.776 1442.62 700.234 1441.47 Q698.71 1440.3 695.852 1440.3 Q694.291 1440.3 692.504 1440.64 Q690.717 1440.98 688.573 1441.69 L688.573 1438.31 Q690.736 1437.71 692.617 1437.41 Q694.516 1437.11 696.19 1437.11 Q700.516 1437.11 703.036 1439.08 Q705.556 1441.04 705.556 1444.38 Q705.556 1446.72 704.221 1448.33 Q702.886 1449.93 700.422 1450.55 Z" fill="#000000" fill-rule="evenodd" fill-opacity="1" /><path clip-path="url(#clip560)" d="M 0 0 M710.334 1460.92 L714.302 1460.92 L714.302 1465.69 L710.334 1465.69 L710.334 1460.92 Z" fill="#000000" fill-rule="evenodd" fill-opacity="1" /><path clip-path="url(#clip560)" d="M 0 0 M726.546 1440.11 Q723.612 1440.11 722.126 1443.01 Q720.659 1445.89 720.659 1451.68 Q720.659 1457.46 722.126 1460.35 Q723.612 1463.23 726.546 1463.23 Q729.499 1463.23 730.966 1460.35 Q732.452 1457.46 732.452 1451.68 Q732.452 1445.89 730.966 1443.01 Q729.499 1440.11 726.546 1440.11 M726.546 1437.11 Q731.267 1437.11 733.749 1440.85 Q736.251 1444.57 736.251 1451.68 Q736.251 1458.77 733.749 1462.51 Q731.267 1466.24 726.546 1466.24 Q721.825 1466.24 719.324 1462.51 Q716.841 1458.77 716.841 1451.68 Q716.841 1444.57 719.324 1440.85 Q721.825 1437.11 726.546 1437.11 Z" fill="#000000" fill-rule="evenodd" fill-opacity="1" /><path clip-path="url(#clip560)" d="M 0 0 M1018.91 1489.17 L1026.55 1489.17 L1026.55 1462.8 L1018.24 1464.47 L1018.24 1460.21 L1026.5 1458.54 L1031.18 1458.54 L1031.18 1489.17 L1038.82 1489.17 L1038.82 1493.1 L1018.91 1493.1 L1018.91 1489.17 Z" fill="#000000" fill-rule="evenodd" fill-opacity="1" /><path clip-path="url(#clip560)" d="M 0 0 M1053.88 1461.62 Q1050.27 1461.62 1048.45 1465.19 Q1046.64 1468.73 1046.64 1475.86 Q1046.64 1482.97 1048.45 1486.53 Q1050.27 1490.07 1053.88 1490.07 Q1057.52 1490.07 1059.32 1486.53 Q1061.15 1482.97 1061.15 1475.86 Q1061.15 1468.73 1059.32 1465.19 Q1057.52 1461.62 1053.88 1461.62 M1053.88 1457.92 Q1059.69 1457.92 1062.75 1462.53 Q1065.83 1467.11 1065.83 1475.86 Q1065.83 1484.59 1062.75 1489.19 Q1059.69 1493.78 1053.88 1493.78 Q1048.07 1493.78 1045 1489.19 Q1041.94 1484.59 1041.94 1475.86 Q1041.94 1467.11 1045 1462.53 Q1048.07 1457.92 1053.88 1457.92 Z" fill="#000000" fill-rule="evenodd" fill-opacity="1" /><path clip-path="url(#clip560)" d="M 0 0 M1065.83 1452.02 L1089.94 1452.02 L1089.94 1455.22 L1065.83 1455.22 L1065.83 1452.02 Z" fill="#000000" fill-rule="evenodd" fill-opacity="1" /><path clip-path="url(#clip560)" d="M 0 0 M1097.33 1462.5 L1110.59 1462.5 L1110.59 1465.69 L1092.76 1465.69 L1092.76 1462.5 Q1094.92 1460.26 1098.65 1456.5 Q1102.39 1452.72 1103.35 1451.63 Q1105.18 1449.58 1105.89 1448.16 Q1106.62 1446.74 1106.62 1445.36 Q1106.62 1443.12 1105.04 1441.71 Q1103.48 1440.3 1100.96 1440.3 Q1099.18 1440.3 1097.18 1440.92 Q1095.21 1441.54 1092.95 1442.8 L1092.95 1438.97 Q1095.24 1438.05 1097.24 1437.58 Q1099.23 1437.11 1100.89 1437.11 Q1105.25 1437.11 1107.85 1439.29 Q1110.44 1441.47 1110.44 1445.12 Q1110.44 1446.85 1109.78 1448.41 Q1109.14 1449.95 1107.43 1452.06 Q1106.96 1452.6 1104.44 1455.22 Q1101.92 1457.81 1097.33 1462.5 Z" fill="#000000" fill-rule="evenodd" fill-opacity="1" /><path clip-path="url(#clip560)" d="M 0 0 M1114.71 1460.92 L1118.68 1460.92 L1118.68 1465.69 L1114.71 1465.69 L1114.71 1460.92 Z" fill="#000000" fill-rule="evenodd" fill-opacity="1" /><path clip-path="url(#clip560)" d="M 0 0 M1122.84 1437.61 L1137.75 1437.61 L1137.75 1440.81 L1126.31 1440.81 L1126.31 1447.69 Q1127.14 1447.41 1127.97 1447.28 Q1128.8 1447.13 1129.63 1447.13 Q1134.33 1447.13 1137.07 1449.71 Q1139.82 1452.28 1139.82 1456.68 Q1139.82 1461.22 1137 1463.74 Q1134.18 1466.24 1129.04 1466.24 Q1127.27 1466.24 1125.43 1465.94 Q1123.61 1465.64 1121.65 1465.04 L1121.65 1461.22 Q1123.34 1462.14 1125.15 1462.59 Q1126.95 1463.04 1128.97 1463.04 Q1132.22 1463.04 1134.12 1461.33 Q1136.02 1459.62 1136.02 1456.68 Q1136.02 1453.75 1134.12 1452.04 Q1132.22 1450.33 1128.97 1450.33 Q1127.44 1450.33 1125.92 1450.67 Q1124.42 1451 1122.84 1451.72 L1122.84 1437.61 Z" fill="#000000" fill-rule="evenodd" fill-opacity="1" /><path clip-path="url(#clip560)" d="M 0 0 M1422.86 1489.17 L1430.5 1489.17 L1430.5 1462.8 L1422.19 1464.47 L1422.19 1460.21 L1430.45 1458.54 L1435.13 1458.54 L1435.13 1489.17 L1442.77 1489.17 L1442.77 1493.1 L1422.86 1493.1 L1422.86 1489.17 Z" fill="#000000" fill-rule="evenodd" fill-opacity="1" /><path clip-path="url(#clip560)" d="M 0 0 M1457.84 1461.62 Q1454.23 1461.62 1452.4 1465.19 Q1450.59 1468.73 1450.59 1475.86 Q1450.59 1482.97 1452.4 1486.53 Q1454.23 1490.07 1457.84 1490.07 Q1461.47 1490.07 1463.28 1486.53 Q1465.11 1482.97 1465.11 1475.86 Q1465.11 1468.73 1463.28 1465.19 Q1461.47 1461.62 1457.84 1461.62 M1457.84 1457.92 Q1463.65 1457.92 1466.7 1462.53 Q1469.78 1467.11 1469.78 1475.86 Q1469.78 1484.59 1466.7 1489.19 Q1463.65 1493.78 1457.84 1493.78 Q1452.03 1493.78 1448.95 1489.19 Q1445.89 1484.59 1445.89 1475.86 Q1445.89 1467.11 1448.95 1462.53 Q1452.03 1457.92 1457.84 1457.92 Z" fill="#000000" fill-rule="evenodd" fill-opacity="1" /><path clip-path="url(#clip560)" d="M 0 0 M1469.78 1452.02 L1493.89 1452.02 L1493.89 1455.22 L1469.78 1455.22 L1469.78 1452.02 Z" fill="#000000" fill-rule="evenodd" fill-opacity="1" /><path clip-path="url(#clip560)" d="M 0 0 M1501.29 1462.5 L1514.55 1462.5 L1514.55 1465.69 L1496.72 1465.69 L1496.72 1462.5 Q1498.88 1460.26 1502.6 1456.5 Q1506.35 1452.72 1507.3 1451.63 Q1509.13 1449.58 1509.84 1448.16 Q1510.58 1446.74 1510.58 1445.36 Q1510.58 1443.12 1509 1441.71 Q1507.44 1440.3 1504.92 1440.3 Q1503.13 1440.3 1501.14 1440.92 Q1499.16 1441.54 1496.9 1442.8 L1496.9 1438.97 Q1499.2 1438.05 1501.19 1437.58 Q1503.19 1437.11 1504.84 1437.11 Q1509.2 1437.11 1511.8 1439.29 Q1514.39 1441.47 1514.39 1445.12 Q1514.39 1446.85 1513.74 1448.41 Q1513.1 1449.95 1511.39 1452.06 Q1510.92 1452.6 1508.4 1455.22 Q1505.88 1457.81 1501.29 1462.5 Z" fill="#000000" fill-rule="evenodd" fill-opacity="1" /><path clip-path="url(#clip560)" d="M 0 0 M1518.66 1460.92 L1522.63 1460.92 L1522.63 1465.69 L1518.66 1465.69 L1518.66 1460.92 Z" fill="#000000" fill-rule="evenodd" fill-opacity="1" /><path clip-path="url(#clip560)" d="M 0 0 M1534.88 1440.11 Q1531.94 1440.11 1530.46 1443.01 Q1528.99 1445.89 1528.99 1451.68 Q1528.99 1457.46 1530.46 1460.35 Q1531.94 1463.23 1534.88 1463.23 Q1537.83 1463.23 1539.3 1460.35 Q1540.78 1457.46 1540.78 1451.68 Q1540.78 1445.89 1539.3 1443.01 Q1537.83 1440.11 1534.88 1440.11 M1534.88 1437.11 Q1539.6 1437.11 1542.08 1440.85 Q1544.58 1444.57 1544.58 1451.68 Q1544.58 1458.77 1542.08 1462.51 Q1539.6 1466.24 1534.88 1466.24 Q1530.16 1466.24 1527.65 1462.51 Q1525.17 1458.77 1525.17 1451.68 Q1525.17 1444.57 1527.65 1440.85 Q1530.16 1437.11 1534.88 1437.11 Z" fill="#000000" fill-rule="evenodd" fill-opacity="1" /><path clip-path="url(#clip560)" d="M 0 0 M1827.47 1489.17 L1835.11 1489.17 L1835.11 1462.8 L1826.8 1464.47 L1826.8 1460.21 L1835.07 1458.54 L1839.74 1458.54 L1839.74 1489.17 L1847.38 1489.17 L1847.38 1493.1 L1827.47 1493.1 L1827.47 1489.17 Z" fill="#000000" fill-rule="evenodd" fill-opacity="1" /><path clip-path="url(#clip560)" d="M 0 0 M1862.45 1461.62 Q1858.84 1461.62 1857.01 1465.19 Q1855.21 1468.73 1855.21 1475.86 Q1855.21 1482.97 1857.01 1486.53 Q1858.84 1490.07 1862.45 1490.07 Q1866.08 1490.07 1867.89 1486.53 Q1869.72 1482.97 1869.72 1475.86 Q1869.72 1468.73 1867.89 1465.19 Q1866.08 1461.62 1862.45 1461.62 M1862.45 1457.92 Q1868.26 1457.92 1871.32 1462.53 Q1874.39 1467.11 1874.39 1475.86 Q1874.39 1484.59 1871.32 1489.19 Q1868.26 1493.78 1862.45 1493.78 Q1856.64 1493.78 1853.56 1489.19 Q1850.51 1484.59 1850.51 1475.86 Q1850.51 1467.11 1853.56 1462.53 Q1856.64 1457.92 1862.45 1457.92 Z" fill="#000000" fill-rule="evenodd" fill-opacity="1" /><path clip-path="url(#clip560)" d="M 0 0 M1874.39 1452.02 L1898.51 1452.02 L1898.51 1455.22 L1874.39 1455.22 L1874.39 1452.02 Z" fill="#000000" fill-rule="evenodd" fill-opacity="1" /><path clip-path="url(#clip560)" d="M 0 0 M1903.28 1462.5 L1909.49 1462.5 L1909.49 1441.07 L1902.74 1442.43 L1902.74 1438.97 L1909.45 1437.61 L1913.25 1437.61 L1913.25 1462.5 L1919.46 1462.5 L1919.46 1465.69 L1903.28 1465.69 L1903.28 1462.5 Z" fill="#000000" fill-rule="evenodd" fill-opacity="1" /><path clip-path="url(#clip560)" d="M 0 0 M1923.58 1460.92 L1927.55 1460.92 L1927.55 1465.69 L1923.58 1465.69 L1923.58 1460.92 Z" fill="#000000" fill-rule="evenodd" fill-opacity="1" /><path clip-path="url(#clip560)" d="M 0 0 M1931.7 1437.61 L1946.62 1437.61 L1946.62 1440.81 L1935.18 1440.81 L1935.18 1447.69 Q1936.01 1447.41 1936.84 1447.28 Q1937.66 1447.13 1938.49 1447.13 Q1943.19 1447.13 1945.94 1449.71 Q1948.69 1452.28 1948.69 1456.68 Q1948.69 1461.22 1945.86 1463.74 Q1943.04 1466.24 1937.91 1466.24 Q1936.14 1466.24 1934.3 1465.94 Q1932.47 1465.64 1930.52 1465.04 L1930.52 1461.22 Q1932.21 1462.14 1934.02 1462.59 Q1935.82 1463.04 1937.83 1463.04 Q1941.09 1463.04 1942.99 1461.33 Q1944.89 1459.62 1944.89 1456.68 Q1944.89 1453.75 1942.99 1452.04 Q1941.09 1450.33 1937.83 1450.33 Q1936.31 1450.33 1934.79 1450.67 Q1933.28 1451 1931.7 1451.72 L1931.7 1437.61 Z" fill="#000000" fill-rule="evenodd" fill-opacity="1" /><path clip-path="url(#clip560)" d="M 0 0 M2231.43 1489.17 L2239.07 1489.17 L2239.07 1462.8 L2230.76 1464.47 L2230.76 1460.21 L2239.02 1458.54 L2243.7 1458.54 L2243.7 1489.17 L2251.33 1489.17 L2251.33 1493.1 L2231.43 1493.1 L2231.43 1489.17 Z" fill="#000000" fill-rule="evenodd" fill-opacity="1" /><path clip-path="url(#clip560)" d="M 0 0 M2266.4 1461.62 Q2262.79 1461.62 2260.96 1465.19 Q2259.16 1468.73 2259.16 1475.86 Q2259.16 1482.97 2260.96 1486.53 Q2262.79 1490.07 2266.4 1490.07 Q2270.04 1490.07 2271.84 1486.53 Q2273.67 1482.97 2273.67 1475.86 Q2273.67 1468.73 2271.84 1465.19 Q2270.04 1461.62 2266.4 1461.62 M2266.4 1457.92 Q2272.21 1457.92 2275.27 1462.53 Q2278.35 1467.11 2278.35 1475.86 Q2278.35 1484.59 2275.27 1489.19 Q2272.21 1493.78 2266.4 1493.78 Q2260.59 1493.78 2257.52 1489.19 Q2254.46 1484.59 2254.46 1475.86 Q2254.46 1467.11 2257.52 1462.53 Q2260.59 1457.92 2266.4 1457.92 Z" fill="#000000" fill-rule="evenodd" fill-opacity="1" /><path clip-path="url(#clip560)" d="M 0 0 M2278.35 1452.02 L2302.46 1452.02 L2302.46 1455.22 L2278.35 1455.22 L2278.35 1452.02 Z" fill="#000000" fill-rule="evenodd" fill-opacity="1" /><path clip-path="url(#clip560)" d="M 0 0 M2307.24 1462.5 L2313.44 1462.5 L2313.44 1441.07 L2306.69 1442.43 L2306.69 1438.97 L2313.41 1437.61 L2317.21 1437.61 L2317.21 1462.5 L2323.41 1462.5 L2323.41 1465.69 L2307.24 1465.69 L2307.24 1462.5 Z" fill="#000000" fill-rule="evenodd" fill-opacity="1" /><path clip-path="url(#clip560)" d="M 0 0 M2327.53 1460.92 L2331.5 1460.92 L2331.5 1465.69 L2327.53 1465.69 L2327.53 1460.92 Z" fill="#000000" fill-rule="evenodd" fill-opacity="1" /><path clip-path="url(#clip560)" d="M 0 0 M2343.74 1440.11 Q2340.81 1440.11 2339.32 1443.01 Q2337.86 1445.89 2337.86 1451.68 Q2337.86 1457.46 2339.32 1460.35 Q2340.81 1463.23 2343.74 1463.23 Q2346.7 1463.23 2348.16 1460.35 Q2349.65 1457.46 2349.65 1451.68 Q2349.65 1445.89 2348.16 1443.01 Q2346.7 1440.11 2343.74 1440.11 M2343.74 1437.11 Q2348.46 1437.11 2350.95 1440.85 Q2353.45 1444.57 2353.45 1451.68 Q2353.45 1458.77 2350.95 1462.51 Q2348.46 1466.24 2343.74 1466.24 Q2339.02 1466.24 2336.52 1462.51 Q2334.04 1458.77 2334.04 1451.68 Q2334.04 1444.57 2336.52 1440.85 Q2339.02 1437.11 2343.74 1437.11 Z" fill="#000000" fill-rule="evenodd" fill-opacity="1" /><path clip-path="url(#clip560)" d="M 0 0 M1173.48 1526.54 L1179.69 1526.54 L1190.83 1556.46 L1201.97 1526.54 L1208.18 1526.54 L1194.81 1562.19 L1186.85 1562.19 L1173.48 1526.54 Z" fill="#000000" fill-rule="evenodd" fill-opacity="1" /><path clip-path="url(#clip560)" d="M 0 0 M1241.41 1573.01 L1241.41 1577.56 L1207.54 1577.56 L1207.54 1573.01 L1241.41 1573.01 Z" fill="#000000" fill-rule="evenodd" fill-opacity="1" /><path clip-path="url(#clip560)" d="M 0 0 M1273.2 1527.91 L1273.2 1533.38 Q1270.72 1532.01 1268.2 1531.34 Q1265.72 1530.64 1263.18 1530.64 Q1257.48 1530.64 1254.33 1534.27 Q1251.18 1537.87 1251.18 1544.39 Q1251.18 1550.92 1254.33 1554.55 Q1257.48 1558.14 1263.18 1558.14 Q1265.72 1558.14 1268.2 1557.47 Q1270.72 1556.77 1273.2 1555.41 L1273.2 1560.82 Q1270.75 1561.96 1268.11 1562.54 Q1265.5 1563.11 1262.54 1563.11 Q1254.49 1563.11 1249.74 1558.05 Q1245 1552.99 1245 1544.39 Q1245 1535.67 1249.78 1530.68 Q1254.58 1525.68 1262.92 1525.68 Q1265.63 1525.68 1268.2 1526.25 Q1270.78 1526.79 1273.2 1527.91 Z" fill="#000000" fill-rule="evenodd" fill-opacity="1" /><path clip-path="url(#clip560)" d="M 0 0 M1279.34 1512.66 L1285.2 1512.66 L1285.2 1562.19 L1279.34 1562.19 L1279.34 1512.66 Z" fill="#000000" fill-rule="evenodd" fill-opacity="1" /><path clip-path="url(#clip560)" d="M 0 0 M1305.16 1530.64 Q1300.45 1530.64 1297.71 1534.34 Q1294.97 1538 1294.97 1544.39 Q1294.97 1550.79 1297.68 1554.48 Q1300.42 1558.14 1305.16 1558.14 Q1309.84 1558.14 1312.57 1554.45 Q1315.31 1550.76 1315.31 1544.39 Q1315.31 1538.06 1312.57 1534.37 Q1309.84 1530.64 1305.16 1530.64 M1305.16 1525.68 Q1312.8 1525.68 1317.16 1530.64 Q1321.52 1535.61 1321.52 1544.39 Q1321.52 1553.15 1317.16 1558.14 Q1312.8 1563.11 1305.16 1563.11 Q1297.49 1563.11 1293.13 1558.14 Q1288.8 1553.15 1288.8 1544.39 Q1288.8 1535.61 1293.13 1530.64 Q1297.49 1525.68 1305.16 1525.68 Z" fill="#000000" fill-rule="evenodd" fill-opacity="1" /><path clip-path="url(#clip560)" d="M 0 0 M1350.39 1527.59 L1350.39 1533.13 Q1347.9 1531.85 1345.23 1531.22 Q1342.56 1530.58 1339.69 1530.58 Q1335.33 1530.58 1333.14 1531.92 Q1330.97 1533.25 1330.97 1535.93 Q1330.97 1537.96 1332.53 1539.14 Q1334.09 1540.29 1338.8 1541.34 L1340.81 1541.78 Q1347.04 1543.12 1349.65 1545.57 Q1352.3 1547.99 1352.3 1552.35 Q1352.3 1557.32 1348.35 1560.21 Q1344.43 1563.11 1337.56 1563.11 Q1334.69 1563.11 1331.58 1562.54 Q1328.49 1561.99 1325.05 1560.88 L1325.05 1554.83 Q1328.3 1556.52 1331.45 1557.38 Q1334.6 1558.21 1337.69 1558.21 Q1341.82 1558.21 1344.05 1556.81 Q1346.28 1555.37 1346.28 1552.8 Q1346.28 1550.41 1344.66 1549.14 Q1343.07 1547.86 1337.62 1546.68 L1335.59 1546.21 Q1330.14 1545.06 1327.72 1542.71 Q1325.31 1540.32 1325.31 1536.18 Q1325.31 1531.15 1328.87 1528.42 Q1332.43 1525.68 1338.99 1525.68 Q1342.24 1525.68 1345.1 1526.16 Q1347.97 1526.63 1350.39 1527.59 Z" fill="#000000" fill-rule="evenodd" fill-opacity="1" /><path clip-path="url(#clip560)" d="M 0 0 M1388.93 1542.9 L1388.93 1545.76 L1362 1545.76 Q1362.39 1551.81 1365.63 1554.99 Q1368.91 1558.14 1374.74 1558.14 Q1378.11 1558.14 1381.26 1557.32 Q1384.44 1556.49 1387.56 1554.83 L1387.56 1560.37 Q1384.41 1561.71 1381.1 1562.41 Q1377.79 1563.11 1374.38 1563.11 Q1365.85 1563.11 1360.86 1558.14 Q1355.89 1553.18 1355.89 1544.71 Q1355.89 1535.96 1360.6 1530.83 Q1365.35 1525.68 1373.37 1525.68 Q1380.56 1525.68 1384.73 1530.33 Q1388.93 1534.94 1388.93 1542.9 M1383.07 1541.18 Q1383.01 1536.37 1380.37 1533.51 Q1377.76 1530.64 1373.43 1530.64 Q1368.53 1530.64 1365.57 1533.41 Q1362.64 1536.18 1362.19 1541.21 L1383.07 1541.18 Z" fill="#000000" fill-rule="evenodd" fill-opacity="1" /><polyline clip-path="url(#clip562)" style="stroke:#000000; stroke-width:2; stroke-opacity:0.1; fill:none" points="
  209.658,1164.19 2352.76,1164.19 
  "/>
<polyline clip-path="url(#clip562)" style="stroke:#000000; stroke-width:2; stroke-opacity:0.1; fill:none" points="
  209.658,910.886 2352.76,910.886 
  "/>
<polyline clip-path="url(#clip562)" style="stroke:#000000; stroke-width:2; stroke-opacity:0.1; fill:none" points="
  209.658,657.581 2352.76,657.581 
  "/>
<polyline clip-path="url(#clip562)" style="stroke:#000000; stroke-width:2; stroke-opacity:0.1; fill:none" points="
  209.658,404.276 2352.76,404.276 
  "/>
<polyline clip-path="url(#clip562)" style="stroke:#000000; stroke-width:2; stroke-opacity:0.1; fill:none" points="
  209.658,150.971 2352.76,150.971 
  "/>
<polyline clip-path="url(#clip560)" style="stroke:#000000; stroke-width:4; stroke-opacity:1; fill:none" points="
  209.658,1410.9 209.658,47.2441 
  "/>
<polyline clip-path="url(#clip560)" style="stroke:#000000; stroke-width:4; stroke-opacity:1; fill:none" points="
  209.658,1164.19 235.375,1164.19 
  "/>
<polyline clip-path="url(#clip560)" style="stroke:#000000; stroke-width:4; stroke-opacity:1; fill:none" points="
  209.658,910.886 235.375,910.886 
  "/>
<polyline clip-path="url(#clip560)" style="stroke:#000000; stroke-width:4; stroke-opacity:1; fill:none" points="
  209.658,657.581 235.375,657.581 
  "/>
<polyline clip-path="url(#clip560)" style="stroke:#000000; stroke-width:4; stroke-opacity:1; fill:none" points="
  209.658,404.276 235.375,404.276 
  "/>
<polyline clip-path="url(#clip560)" style="stroke:#000000; stroke-width:4; stroke-opacity:1; fill:none" points="
  209.658,150.971 235.375,150.971 
  "/>
<path clip-path="url(#clip560)" d="M 0 0 M118.381 1177.54 L126.019 1177.54 L126.019 1151.17 L117.709 1152.84 L117.709 1148.58 L125.973 1146.91 L130.649 1146.91 L130.649 1177.54 L138.288 1177.54 L138.288 1181.47 L118.381 1181.47 L118.381 1177.54 Z" fill="#000000" fill-rule="evenodd" fill-opacity="1" /><path clip-path="url(#clip560)" d="M 0 0 M143.357 1175.59 L148.241 1175.59 L148.241 1181.47 L143.357 1181.47 L143.357 1175.59 Z" fill="#000000" fill-rule="evenodd" fill-opacity="1" /><path clip-path="url(#clip560)" d="M 0 0 M157.339 1177.54 L173.658 1177.54 L173.658 1181.47 L151.714 1181.47 L151.714 1177.54 Q154.376 1174.78 158.959 1170.15 Q163.565 1165.5 164.746 1164.16 Q166.991 1161.63 167.871 1159.9 Q168.774 1158.14 168.774 1156.45 Q168.774 1153.69 166.829 1151.96 Q164.908 1150.22 161.806 1150.22 Q159.607 1150.22 157.153 1150.99 Q154.723 1151.75 151.945 1153.3 L151.945 1148.58 Q154.769 1147.44 157.223 1146.86 Q159.677 1146.29 161.714 1146.29 Q167.084 1146.29 170.278 1148.97 Q173.473 1151.66 173.473 1156.15 Q173.473 1158.28 172.663 1160.2 Q171.876 1162.1 169.769 1164.69 Q169.19 1165.36 166.089 1168.58 Q162.987 1171.77 157.339 1177.54 Z" fill="#000000" fill-rule="evenodd" fill-opacity="1" /><path clip-path="url(#clip560)" d="M 0 0 M117.779 924.231 L125.418 924.231 L125.418 897.866 L117.107 899.532 L117.107 895.273 L125.371 893.606 L130.047 893.606 L130.047 924.231 L137.686 924.231 L137.686 928.166 L117.779 928.166 L117.779 924.231 Z" fill="#000000" fill-rule="evenodd" fill-opacity="1" /><path clip-path="url(#clip560)" d="M 0 0 M142.755 922.287 L147.64 922.287 L147.64 928.166 L142.755 928.166 L142.755 922.287 Z" fill="#000000" fill-rule="evenodd" fill-opacity="1" /><path clip-path="url(#clip560)" d="M 0 0 M152.755 893.606 L171.112 893.606 L171.112 897.541 L157.038 897.541 L157.038 906.014 Q158.056 905.666 159.075 905.504 Q160.093 905.319 161.112 905.319 Q166.899 905.319 170.278 908.49 Q173.658 911.662 173.658 917.078 Q173.658 922.657 170.186 925.759 Q166.714 928.838 160.394 928.838 Q158.218 928.838 155.95 928.467 Q153.704 928.097 151.297 927.356 L151.297 922.657 Q153.38 923.791 155.603 924.347 Q157.825 924.902 160.302 924.902 Q164.306 924.902 166.644 922.796 Q168.982 920.689 168.982 917.078 Q168.982 913.467 166.644 911.361 Q164.306 909.254 160.302 909.254 Q158.427 909.254 156.552 909.671 Q154.7 910.088 152.755 910.967 L152.755 893.606 Z" fill="#000000" fill-rule="evenodd" fill-opacity="1" /><path clip-path="url(#clip560)" d="M 0 0 M116.876 670.926 L124.515 670.926 L124.515 644.561 L116.205 646.227 L116.205 641.968 L124.468 640.301 L129.144 640.301 L129.144 670.926 L136.783 670.926 L136.783 674.861 L116.876 674.861 L116.876 670.926 Z" fill="#000000" fill-rule="evenodd" fill-opacity="1" /><path clip-path="url(#clip560)" d="M 0 0 M141.853 668.982 L146.737 668.982 L146.737 674.861 L141.853 674.861 L141.853 668.982 Z" fill="#000000" fill-rule="evenodd" fill-opacity="1" /><path clip-path="url(#clip560)" d="M 0 0 M161.806 658.449 Q158.473 658.449 156.552 660.232 Q154.653 662.014 154.653 665.139 Q154.653 668.264 156.552 670.047 Q158.473 671.829 161.806 671.829 Q165.14 671.829 167.061 670.047 Q168.982 668.241 168.982 665.139 Q168.982 662.014 167.061 660.232 Q165.163 658.449 161.806 658.449 M157.13 656.459 Q154.121 655.718 152.431 653.658 Q150.765 651.598 150.765 648.635 Q150.765 644.491 153.704 642.084 Q156.667 639.676 161.806 639.676 Q166.968 639.676 169.908 642.084 Q172.848 644.491 172.848 648.635 Q172.848 651.598 171.158 653.658 Q169.491 655.718 166.505 656.459 Q169.885 657.246 171.76 659.537 Q173.658 661.829 173.658 665.139 Q173.658 670.162 170.579 672.847 Q167.524 675.533 161.806 675.533 Q156.089 675.533 153.01 672.847 Q149.954 670.162 149.954 665.139 Q149.954 661.829 151.853 659.537 Q153.751 657.246 157.13 656.459 M155.417 649.074 Q155.417 651.76 157.084 653.264 Q158.774 654.769 161.806 654.769 Q164.815 654.769 166.505 653.264 Q168.218 651.76 168.218 649.074 Q168.218 646.389 166.505 644.885 Q164.815 643.38 161.806 643.38 Q158.774 643.38 157.084 644.885 Q155.417 646.389 155.417 649.074 Z" fill="#000000" fill-rule="evenodd" fill-opacity="1" /><path clip-path="url(#clip560)" d="M 0 0 M121.598 417.621 L137.917 417.621 L137.917 421.556 L115.973 421.556 L115.973 417.621 Q118.635 414.867 123.218 410.237 Q127.825 405.584 129.005 404.242 Q131.251 401.718 132.13 399.982 Q133.033 398.223 133.033 396.533 Q133.033 393.779 131.089 392.043 Q129.167 390.306 126.066 390.306 Q123.867 390.306 121.413 391.07 Q118.982 391.834 116.205 393.385 L116.205 388.663 Q119.029 387.529 121.482 386.95 Q123.936 386.371 125.973 386.371 Q131.343 386.371 134.538 389.056 Q137.732 391.742 137.732 396.232 Q137.732 398.362 136.922 400.283 Q136.135 402.181 134.029 404.774 Q133.45 405.445 130.348 408.663 Q127.246 411.857 121.598 417.621 Z" fill="#000000" fill-rule="evenodd" fill-opacity="1" /><path clip-path="url(#clip560)" d="M 0 0 M142.987 415.677 L147.871 415.677 L147.871 421.556 L142.987 421.556 L142.987 415.677 Z" fill="#000000" fill-rule="evenodd" fill-opacity="1" /><path clip-path="url(#clip560)" d="M 0 0 M153.751 417.621 L161.39 417.621 L161.39 391.256 L153.079 392.922 L153.079 388.663 L161.343 386.996 L166.019 386.996 L166.019 417.621 L173.658 417.621 L173.658 421.556 L153.751 421.556 L153.751 417.621 Z" fill="#000000" fill-rule="evenodd" fill-opacity="1" /><path clip-path="url(#clip560)" d="M 0 0 M119.885 164.316 L136.204 164.316 L136.204 168.251 L114.26 168.251 L114.26 164.316 Q116.922 161.562 121.505 156.932 Q126.112 152.279 127.292 150.937 Q129.538 148.413 130.417 146.677 Q131.32 144.918 131.32 143.228 Q131.32 140.474 129.376 138.738 Q127.455 137.002 124.353 137.002 Q122.154 137.002 119.7 137.765 Q117.269 138.529 114.492 140.08 L114.492 135.358 Q117.316 134.224 119.769 133.645 Q122.223 133.066 124.26 133.066 Q129.63 133.066 132.825 135.752 Q136.019 138.437 136.019 142.927 Q136.019 145.057 135.209 146.978 Q134.422 148.876 132.316 151.469 Q131.737 152.14 128.635 155.358 Q125.533 158.552 119.885 164.316 Z" fill="#000000" fill-rule="evenodd" fill-opacity="1" /><path clip-path="url(#clip560)" d="M 0 0 M141.274 162.372 L146.158 162.372 L146.158 168.251 L141.274 168.251 L141.274 162.372 Z" fill="#000000" fill-rule="evenodd" fill-opacity="1" /><path clip-path="url(#clip560)" d="M 0 0 M164.075 137.765 L152.269 156.214 L164.075 156.214 L164.075 137.765 M162.848 133.691 L168.727 133.691 L168.727 156.214 L173.658 156.214 L173.658 160.103 L168.727 160.103 L168.727 168.251 L164.075 168.251 L164.075 160.103 L148.473 160.103 L148.473 155.589 L162.848 133.691 Z" fill="#000000" fill-rule="evenodd" fill-opacity="1" /><path clip-path="url(#clip560)" d="M 0 0 M59.1993 815.533 Q55.2526 813.336 53.3747 810.281 Q51.4968 807.225 51.4968 803.088 Q51.4968 797.518 55.4117 794.494 Q59.2948 791.47 66.4881 791.47 L88.0042 791.47 L88.0042 797.358 L66.679 797.358 Q61.5546 797.358 59.072 799.173 Q56.5894 800.987 56.5894 804.711 Q56.5894 809.262 59.6131 811.904 Q62.6368 814.546 67.8567 814.546 L88.0042 814.546 L88.0042 820.434 L66.679 820.434 Q61.5228 820.434 59.072 822.248 Q56.5894 824.063 56.5894 827.85 Q56.5894 832.338 59.6449 834.98 Q62.6686 837.622 67.8567 837.622 L88.0042 837.622 L88.0042 843.51 L52.3562 843.51 L52.3562 837.622 L57.8944 837.622 Q54.616 835.616 53.0564 832.815 Q51.4968 830.015 51.4968 826.163 Q51.4968 822.28 53.4702 819.575 Q55.4436 816.838 59.1993 815.533 Z" fill="#000000" fill-rule="evenodd" fill-opacity="1" /><path clip-path="url(#clip560)" d="M 0 0 M52.3562 785.327 L52.3562 779.471 L88.0042 779.471 L88.0042 785.327 L52.3562 785.327 M38.479 785.327 L38.479 779.471 L45.895 779.471 L45.895 785.327 L38.479 785.327 Z" fill="#000000" fill-rule="evenodd" fill-opacity="1" /><path clip-path="url(#clip560)" d="M 0 0 M66.4881 743.696 L88.0042 743.696 L88.0042 749.552 L66.679 749.552 Q61.6183 749.552 59.1038 751.525 Q56.5894 753.499 56.5894 757.446 Q56.5894 762.188 59.6131 764.925 Q62.6368 767.662 67.8567 767.662 L88.0042 767.662 L88.0042 773.551 L52.3562 773.551 L52.3562 767.662 L57.8944 767.662 Q54.6797 765.562 53.0883 762.729 Q51.4968 759.864 51.4968 756.141 Q51.4968 749.998 55.3163 746.847 Q59.1038 743.696 66.4881 743.696 Z" fill="#000000" fill-rule="evenodd" fill-opacity="1" /><path clip-path="url(#clip560)" d="M 0 0 M98.8259 710.467 L103.377 710.467 L103.377 744.332 L98.8259 744.332 L98.8259 710.467 Z" fill="#000000" fill-rule="evenodd" fill-opacity="1" /><path clip-path="url(#clip560)" d="M 0 0 M57.7671 680.866 L38.479 680.866 L38.479 675.01 L88.0042 675.01 L88.0042 680.866 L82.657 680.866 Q85.8398 682.712 87.3994 685.545 Q88.9272 688.346 88.9272 692.292 Q88.9272 698.754 83.771 702.828 Q78.6147 706.87 70.212 706.87 Q61.8093 706.87 56.6531 702.828 Q51.4968 698.754 51.4968 692.292 Q51.4968 688.346 53.0564 685.545 Q54.5842 682.712 57.7671 680.866 M70.212 700.823 Q76.6732 700.823 80.3653 698.181 Q84.0256 695.507 84.0256 690.86 Q84.0256 686.213 80.3653 683.54 Q76.6732 680.866 70.212 680.866 Q63.7508 680.866 60.0905 683.54 Q56.3984 686.213 56.3984 690.86 Q56.3984 695.507 60.0905 698.181 Q63.7508 700.823 70.212 700.823 Z" fill="#000000" fill-rule="evenodd" fill-opacity="1" /><path clip-path="url(#clip560)" d="M 0 0 M52.3562 668.867 L52.3562 663.01 L88.0042 663.01 L88.0042 668.867 L52.3562 668.867 M38.479 668.867 L38.479 663.01 L45.895 663.01 L45.895 668.867 L38.479 668.867 Z" fill="#000000" fill-rule="evenodd" fill-opacity="1" /><path clip-path="url(#clip560)" d="M 0 0 M38.479 638.821 L43.3487 638.821 L43.3487 644.422 Q43.3487 647.573 44.6219 648.815 Q45.895 650.024 49.2052 650.024 L52.3562 650.024 L52.3562 640.38 L56.9077 640.38 L56.9077 650.024 L88.0042 650.024 L88.0042 655.912 L56.9077 655.912 L56.9077 661.514 L52.3562 661.514 L52.3562 655.912 L49.8736 655.912 Q43.9216 655.912 41.2162 653.143 Q38.479 650.374 38.479 644.359 L38.479 638.821 Z" fill="#000000" fill-rule="evenodd" fill-opacity="1" /><path clip-path="url(#clip560)" d="M 0 0 M38.479 614.631 L43.3487 614.631 L43.3487 620.233 Q43.3487 623.384 44.6219 624.625 Q45.895 625.835 49.2052 625.835 L52.3562 625.835 L52.3562 616.19 L56.9077 616.19 L56.9077 625.835 L88.0042 625.835 L88.0042 631.723 L56.9077 631.723 L56.9077 637.325 L52.3562 637.325 L52.3562 631.723 L49.8736 631.723 Q43.9216 631.723 41.2162 628.954 Q38.479 626.185 38.479 620.169 L38.479 614.631 Z" fill="#000000" fill-rule="evenodd" fill-opacity="1" /><polyline clip-path="url(#clip562)" style="stroke:#009af9; stroke-width:20; stroke-opacity:1; fill:none" stroke-dasharray="80, 50" points="
  270.312,85.838 674.67,734.144 1079.03,1137.32 1483.39,1069.34 1887.74,1232.64 2292.1,1372.3 
  "/>
<path clip-path="url(#clip560)" d="
M1992.18 213.659 L2281.32 213.659 L2281.32 92.6992 L1992.18 92.6992  Z
  " fill="#ffffff" fill-rule="evenodd" fill-opacity="1"/>
<polyline clip-path="url(#clip560)" style="stroke:#000000; stroke-width:4; stroke-opacity:1; fill:none" points="
  1992.18,213.659 2281.32,213.659 2281.32,92.6992 1992.18,92.6992 1992.18,213.659 
  "/>
<polyline clip-path="url(#clip560)" style="stroke:#009af9; stroke-width:4; stroke-opacity:1; fill:none" stroke-dasharray="16, 10" points="
  2015.99,153.179 2158.86,153.179 
  "/>
<path clip-path="url(#clip560)" d="M 0 0 M2196.52 172.867 Q2194.71 177.496 2193 178.908 Q2191.29 180.32 2188.42 180.32 L2185.01 180.32 L2185.01 176.755 L2187.51 176.755 Q2189.27 176.755 2190.25 175.922 Q2191.22 175.089 2192.4 171.987 L2193.16 170.043 L2182.68 144.533 L2187.19 144.533 L2195.29 164.811 L2203.39 144.533 L2207.91 144.533 L2196.52 172.867 Z" fill="#000000" fill-rule="evenodd" fill-opacity="1" /><path clip-path="url(#clip560)" d="M 0 0 M2213.79 166.524 L2221.43 166.524 L2221.43 140.158 L2213.12 141.825 L2213.12 137.566 L2221.38 135.899 L2226.06 135.899 L2226.06 166.524 L2233.69 166.524 L2233.69 170.459 L2213.79 170.459 L2213.79 166.524 Z" fill="#000000" fill-rule="evenodd" fill-opacity="1" /></svg>
