<?xml version="1.0" encoding="utf-8"?>
<svg xmlns="http://www.w3.org/2000/svg" xmlns:xlink="http://www.w3.org/1999/xlink" width="600" height="400" viewBox="0 0 2400 1600">
<defs>
  <clipPath id="clip990">
    <rect x="0" y="0" width="2400" height="1600"/>
  </clipPath>
</defs>
<path clip-path="url(#clip990)" d="
M0 1600 L2400 1600 L2400 0 L0 0  Z
  " fill="#ffffff" fill-rule="evenodd" fill-opacity="1"/>
<defs>
  <clipPath id="clip991">
    <rect x="480" y="0" width="1681" height="1600"/>
  </clipPath>
</defs>
<path clip-path="url(#clip990)" d="
M265.445 1410.9 L2352.76 1410.9 L2352.76 47.2441 L265.445 47.2441  Z
  " fill="#ffffff" fill-rule="evenodd" fill-opacity="1"/>
<defs>
  <clipPath id="clip992">
    <rect x="265" y="47" width="2088" height="1365"/>
  </clipPath>
</defs>
<polyline clip-path="url(#clip992)" style="stroke:#000000; stroke-linecap:butt; stroke-linejoin:round; stroke-width:2; stroke-opacity:0.1; fill:none" points="
  498.13,1410.9 498.13,47.2441 
  "/>
<polyline clip-path="url(#clip992)" style="stroke:#000000; stroke-linecap:butt; stroke-linejoin:round; stroke-width:2; stroke-opacity:0.1; fill:none" points="
  1618.91,1410.9 1618.91,47.2441 
  "/>
<polyline clip-path="url(#clip990)" style="stroke:#000000; stroke-linecap:butt; stroke-linejoin:round; stroke-width:4; stroke-opacity:1; fill:none" points="
  265.445,1410.9 2352.76,1410.9 
  "/>
<polyline clip-path="url(#clip990)" style="stroke:#000000; stroke-linecap:butt; stroke-linejoin:round; stroke-width:4; stroke-opacity:1; fill:none" points="
  498.13,1410.9 498.13,1392 
  "/>
<polyline clip-path="url(#clip990)" style="stroke:#000000; stroke-linecap:butt; stroke-linejoin:round; stroke-width:4; stroke-opacity:1; fill:none" points="
  1618.91,1410.9 1618.91,1392 
  "/>
<path clip-path="url(#clip990)" d="M463.113 1485.02 L470.752 1485.02 L470.752 1458.66 L462.442 1460.32 L462.442 1456.06 L470.705 1454.4 L475.381 1454.4 L475.381 1485.02 L483.02 1485.02 L483.02 1488.96 L463.113 1488.96 L463.113 1485.02 Z" fill="#000000" fill-rule="evenodd" fill-opacity="1" /><path clip-path="url(#clip990)" d="M502.464 1457.48 Q498.853 1457.48 497.025 1461.04 Q495.219 1464.58 495.219 1471.71 Q495.219 1478.82 497.025 1482.38 Q498.853 1485.92 502.464 1485.92 Q506.099 1485.92 507.904 1482.38 Q509.733 1478.82 509.733 1471.71 Q509.733 1464.58 507.904 1461.04 Q506.099 1457.48 502.464 1457.48 M502.464 1453.77 Q508.275 1453.77 511.33 1458.38 Q514.409 1462.96 514.409 1471.71 Q514.409 1480.44 511.33 1485.04 Q508.275 1489.63 502.464 1489.63 Q496.654 1489.63 493.576 1485.04 Q490.52 1480.44 490.52 1471.71 Q490.52 1462.96 493.576 1458.38 Q496.654 1453.77 502.464 1453.77 Z" fill="#000000" fill-rule="evenodd" fill-opacity="1" /><path clip-path="url(#clip990)" d="M524.114 1435.97 Q521.18 1435.97 519.694 1438.86 Q518.227 1441.74 518.227 1447.53 Q518.227 1453.31 519.694 1456.2 Q521.18 1459.08 524.114 1459.08 Q527.067 1459.08 528.534 1456.2 Q530.019 1453.31 530.019 1447.53 Q530.019 1441.74 528.534 1438.86 Q527.067 1435.97 524.114 1435.97 M524.114 1432.96 Q528.834 1432.96 531.317 1436.7 Q533.818 1440.43 533.818 1447.53 Q533.818 1454.62 531.317 1458.37 Q528.834 1462.09 524.114 1462.09 Q519.393 1462.09 516.892 1458.37 Q514.409 1454.62 514.409 1447.53 Q514.409 1440.43 516.892 1436.7 Q519.393 1432.96 524.114 1432.96 Z" fill="#000000" fill-rule="evenodd" fill-opacity="1" /><path clip-path="url(#clip990)" d="M1585.23 1485.02 L1592.87 1485.02 L1592.87 1458.66 L1584.56 1460.32 L1584.56 1456.06 L1592.83 1454.4 L1597.5 1454.4 L1597.5 1485.02 L1605.14 1485.02 L1605.14 1488.96 L1585.23 1488.96 L1585.23 1485.02 Z" fill="#000000" fill-rule="evenodd" fill-opacity="1" /><path clip-path="url(#clip990)" d="M1624.59 1457.48 Q1620.97 1457.48 1619.15 1461.04 Q1617.34 1464.58 1617.34 1471.71 Q1617.34 1478.82 1619.15 1482.38 Q1620.97 1485.92 1624.59 1485.92 Q1628.22 1485.92 1630.03 1482.38 Q1631.85 1478.82 1631.85 1471.71 Q1631.85 1464.58 1630.03 1461.04 Q1628.22 1457.48 1624.59 1457.48 M1624.59 1453.77 Q1630.4 1453.77 1633.45 1458.38 Q1636.53 1462.96 1636.53 1471.71 Q1636.53 1480.44 1633.45 1485.04 Q1630.4 1489.63 1624.59 1489.63 Q1618.78 1489.63 1615.7 1485.04 Q1612.64 1480.44 1612.64 1471.71 Q1612.64 1462.96 1615.7 1458.38 Q1618.78 1453.77 1624.59 1453.77 Z" fill="#000000" fill-rule="evenodd" fill-opacity="1" /><path clip-path="url(#clip990)" d="M1637.08 1458.35 L1643.28 1458.35 L1643.28 1436.93 L1636.53 1438.28 L1636.53 1434.82 L1643.24 1433.47 L1647.04 1433.47 L1647.04 1458.35 L1653.25 1458.35 L1653.25 1461.55 L1637.08 1461.55 L1637.08 1458.35 Z" fill="#000000" fill-rule="evenodd" fill-opacity="1" /><path clip-path="url(#clip990)" d="M1299.58 1571.99 L1299.58 1587.74 L1293.7 1587.74 L1293.7 1538.76 Q1293.7 1524.25 1307.25 1524.25 Q1321.07 1524.25 1321.07 1536.5 Q1321.07 1545.22 1315.59 1548.4 Q1324.51 1551.27 1324.51 1559.77 Q1324.51 1574.85 1309.16 1574.85 Q1302.42 1574.85 1299.58 1571.99 M1299.58 1564.35 Q1303.12 1569.86 1309.39 1569.86 Q1318.55 1569.86 1318.55 1559.86 Q1318.55 1550.89 1303.78 1551.59 L1303.78 1546.18 Q1315.34 1546.18 1315.34 1535.99 Q1315.34 1529.02 1307.89 1529.02 Q1299.58 1529.02 1299.58 1538.95 L1299.58 1564.35 Z" fill="#000000" fill-rule="evenodd" fill-opacity="1" /><polyline clip-path="url(#clip992)" style="stroke:#000000; stroke-linecap:butt; stroke-linejoin:round; stroke-width:2; stroke-opacity:0.1; fill:none" points="
  265.445,1373.48 2352.76,1373.48 
  "/>
<polyline clip-path="url(#clip992)" style="stroke:#000000; stroke-linecap:butt; stroke-linejoin:round; stroke-width:2; stroke-opacity:0.1; fill:none" points="
  265.445,1070.75 2352.76,1070.75 
  "/>
<polyline clip-path="url(#clip992)" style="stroke:#000000; stroke-linecap:butt; stroke-linejoin:round; stroke-width:2; stroke-opacity:0.1; fill:none" points="
  265.445,768.02 2352.76,768.02 
  "/>
<polyline clip-path="url(#clip992)" style="stroke:#000000; stroke-linecap:butt; stroke-linejoin:round; stroke-width:2; stroke-opacity:0.1; fill:none" points="
  265.445,465.291 2352.76,465.291 
  "/>
<polyline clip-path="url(#clip992)" style="stroke:#000000; stroke-linecap:butt; stroke-linejoin:round; stroke-width:2; stroke-opacity:0.1; fill:none" points="
  265.445,162.561 2352.76,162.561 
  "/>
<polyline clip-path="url(#clip990)" style="stroke:#000000; stroke-linecap:butt; stroke-linejoin:round; stroke-width:4; stroke-opacity:1; fill:none" points="
  265.445,1410.9 265.445,47.2441 
  "/>
<polyline clip-path="url(#clip990)" style="stroke:#000000; stroke-linecap:butt; stroke-linejoin:round; stroke-width:4; stroke-opacity:1; fill:none" points="
  265.445,1373.48 284.342,1373.48 
  "/>
<polyline clip-path="url(#clip990)" style="stroke:#000000; stroke-linecap:butt; stroke-linejoin:round; stroke-width:4; stroke-opacity:1; fill:none" points="
  265.445,1070.75 284.342,1070.75 
  "/>
<polyline clip-path="url(#clip990)" style="stroke:#000000; stroke-linecap:butt; stroke-linejoin:round; stroke-width:4; stroke-opacity:1; fill:none" points="
  265.445,768.02 284.342,768.02 
  "/>
<polyline clip-path="url(#clip990)" style="stroke:#000000; stroke-linecap:butt; stroke-linejoin:round; stroke-width:4; stroke-opacity:1; fill:none" points="
  265.445,465.291 284.342,465.291 
  "/>
<polyline clip-path="url(#clip990)" style="stroke:#000000; stroke-linecap:butt; stroke-linejoin:round; stroke-width:4; stroke-opacity:1; fill:none" points="
  265.445,162.561 284.342,162.561 
  "/>
<path clip-path="url(#clip990)" d="M217.5 1359.28 Q213.889 1359.28 212.061 1362.84 Q210.255 1366.38 210.255 1373.51 Q210.255 1380.62 212.061 1384.19 Q213.889 1387.73 217.5 1387.73 Q221.135 1387.73 222.94 1384.19 Q224.769 1380.62 224.769 1373.51 Q224.769 1366.38 222.94 1362.84 Q221.135 1359.28 217.5 1359.28 M217.5 1355.57 Q223.31 1355.57 226.366 1360.18 Q229.445 1364.76 229.445 1373.51 Q229.445 1382.24 226.366 1386.85 Q223.31 1391.43 217.5 1391.43 Q211.69 1391.43 208.612 1386.85 Q205.556 1382.24 205.556 1373.51 Q205.556 1364.76 208.612 1360.18 Q211.69 1355.57 217.5 1355.57 Z" fill="#000000" fill-rule="evenodd" fill-opacity="1" /><path clip-path="url(#clip990)" d="M117.825 1084.09 L125.464 1084.09 L125.464 1057.73 L117.154 1059.4 L117.154 1055.14 L125.418 1053.47 L130.093 1053.47 L130.093 1084.09 L137.732 1084.09 L137.732 1088.03 L117.825 1088.03 L117.825 1084.09 Z" fill="#000000" fill-rule="evenodd" fill-opacity="1" /><path clip-path="url(#clip990)" d="M157.177 1056.55 Q153.566 1056.55 151.737 1060.11 Q149.931 1063.66 149.931 1070.78 Q149.931 1077.89 151.737 1081.46 Q153.566 1085 157.177 1085 Q160.811 1085 162.616 1081.46 Q164.445 1077.89 164.445 1070.78 Q164.445 1063.66 162.616 1060.11 Q160.811 1056.55 157.177 1056.55 M157.177 1052.84 Q162.987 1052.84 166.042 1057.45 Q169.121 1062.03 169.121 1070.78 Q169.121 1079.51 166.042 1084.12 Q162.987 1088.7 157.177 1088.7 Q151.366 1088.7 148.288 1084.12 Q145.232 1079.51 145.232 1070.78 Q145.232 1062.03 148.288 1057.45 Q151.366 1052.84 157.177 1052.84 Z" fill="#000000" fill-rule="evenodd" fill-opacity="1" /><path clip-path="url(#clip990)" d="M187.338 1056.55 Q183.727 1056.55 181.899 1060.11 Q180.093 1063.66 180.093 1070.78 Q180.093 1077.89 181.899 1081.46 Q183.727 1085 187.338 1085 Q190.973 1085 192.778 1081.46 Q194.607 1077.89 194.607 1070.78 Q194.607 1063.66 192.778 1060.11 Q190.973 1056.55 187.338 1056.55 M187.338 1052.84 Q193.149 1052.84 196.204 1057.45 Q199.283 1062.03 199.283 1070.78 Q199.283 1079.51 196.204 1084.12 Q193.149 1088.7 187.338 1088.7 Q181.528 1088.7 178.45 1084.12 Q175.394 1079.51 175.394 1070.78 Q175.394 1062.03 178.45 1057.45 Q181.528 1052.84 187.338 1052.84 Z" fill="#000000" fill-rule="evenodd" fill-opacity="1" /><path clip-path="url(#clip990)" d="M217.5 1056.55 Q213.889 1056.55 212.061 1060.11 Q210.255 1063.66 210.255 1070.78 Q210.255 1077.89 212.061 1081.46 Q213.889 1085 217.5 1085 Q221.135 1085 222.94 1081.46 Q224.769 1077.89 224.769 1070.78 Q224.769 1063.66 222.94 1060.11 Q221.135 1056.55 217.5 1056.55 M217.5 1052.84 Q223.31 1052.84 226.366 1057.45 Q229.445 1062.03 229.445 1070.78 Q229.445 1079.51 226.366 1084.12 Q223.31 1088.7 217.5 1088.7 Q211.69 1088.7 208.612 1084.12 Q205.556 1079.51 205.556 1070.78 Q205.556 1062.03 208.612 1057.45 Q211.69 1052.84 217.5 1052.84 Z" fill="#000000" fill-rule="evenodd" fill-opacity="1" /><path clip-path="url(#clip990)" d="M121.043 781.365 L137.362 781.365 L137.362 785.3 L115.418 785.3 L115.418 781.365 Q118.08 778.611 122.663 773.981 Q127.269 769.328 128.45 767.986 Q130.695 765.462 131.575 763.726 Q132.478 761.967 132.478 760.277 Q132.478 757.523 130.533 755.787 Q128.612 754.05 125.51 754.05 Q123.311 754.05 120.857 754.814 Q118.427 755.578 115.649 757.129 L115.649 752.407 Q118.473 751.273 120.927 750.694 Q123.38 750.115 125.418 750.115 Q130.788 750.115 133.982 752.8 Q137.177 755.486 137.177 759.976 Q137.177 762.106 136.367 764.027 Q135.579 765.925 133.473 768.518 Q132.894 769.189 129.792 772.407 Q126.691 775.601 121.043 781.365 Z" fill="#000000" fill-rule="evenodd" fill-opacity="1" /><path clip-path="url(#clip990)" d="M157.177 753.819 Q153.566 753.819 151.737 757.384 Q149.931 760.925 149.931 768.055 Q149.931 775.161 151.737 778.726 Q153.566 782.268 157.177 782.268 Q160.811 782.268 162.616 778.726 Q164.445 775.161 164.445 768.055 Q164.445 760.925 162.616 757.384 Q160.811 753.819 157.177 753.819 M157.177 750.115 Q162.987 750.115 166.042 754.722 Q169.121 759.305 169.121 768.055 Q169.121 776.782 166.042 781.388 Q162.987 785.972 157.177 785.972 Q151.366 785.972 148.288 781.388 Q145.232 776.782 145.232 768.055 Q145.232 759.305 148.288 754.722 Q151.366 750.115 157.177 750.115 Z" fill="#000000" fill-rule="evenodd" fill-opacity="1" /><path clip-path="url(#clip990)" d="M187.338 753.819 Q183.727 753.819 181.899 757.384 Q180.093 760.925 180.093 768.055 Q180.093 775.161 181.899 778.726 Q183.727 782.268 187.338 782.268 Q190.973 782.268 192.778 778.726 Q194.607 775.161 194.607 768.055 Q194.607 760.925 192.778 757.384 Q190.973 753.819 187.338 753.819 M187.338 750.115 Q193.149 750.115 196.204 754.722 Q199.283 759.305 199.283 768.055 Q199.283 776.782 196.204 781.388 Q193.149 785.972 187.338 785.972 Q181.528 785.972 178.45 781.388 Q175.394 776.782 175.394 768.055 Q175.394 759.305 178.45 754.722 Q181.528 750.115 187.338 750.115 Z" fill="#000000" fill-rule="evenodd" fill-opacity="1" /><path clip-path="url(#clip990)" d="M217.5 753.819 Q213.889 753.819 212.061 757.384 Q210.255 760.925 210.255 768.055 Q210.255 775.161 212.061 778.726 Q213.889 782.268 217.5 782.268 Q221.135 782.268 222.94 778.726 Q224.769 775.161 224.769 768.055 Q224.769 760.925 222.94 757.384 Q221.135 753.819 217.5 753.819 M217.5 750.115 Q223.31 750.115 226.366 754.722 Q229.445 759.305 229.445 768.055 Q229.445 776.782 226.366 781.388 Q223.31 785.972 217.5 785.972 Q211.69 785.972 208.612 781.388 Q205.556 776.782 205.556 768.055 Q205.556 759.305 208.612 754.722 Q211.69 750.115 217.5 750.115 Z" fill="#000000" fill-rule="evenodd" fill-opacity="1" /><path clip-path="url(#clip990)" d="M131.181 463.937 Q134.538 464.654 136.413 466.923 Q138.311 469.191 138.311 472.524 Q138.311 477.64 134.792 480.441 Q131.274 483.242 124.793 483.242 Q122.617 483.242 120.302 482.802 Q118.01 482.386 115.556 481.529 L115.556 477.015 Q117.501 478.149 119.816 478.728 Q122.13 479.307 124.654 479.307 Q129.052 479.307 131.343 477.571 Q133.658 475.835 133.658 472.524 Q133.658 469.469 131.505 467.756 Q129.376 466.02 125.556 466.02 L121.529 466.02 L121.529 462.177 L125.742 462.177 Q129.191 462.177 131.019 460.812 Q132.848 459.423 132.848 456.83 Q132.848 454.168 130.95 452.756 Q129.075 451.321 125.556 451.321 Q123.635 451.321 121.436 451.738 Q119.237 452.154 116.598 453.034 L116.598 448.867 Q119.26 448.126 121.575 447.756 Q123.913 447.386 125.973 447.386 Q131.297 447.386 134.399 449.816 Q137.501 452.224 137.501 456.344 Q137.501 459.214 135.857 461.205 Q134.214 463.173 131.181 463.937 Z" fill="#000000" fill-rule="evenodd" fill-opacity="1" /><path clip-path="url(#clip990)" d="M157.177 451.089 Q153.566 451.089 151.737 454.654 Q149.931 458.196 149.931 465.325 Q149.931 472.432 151.737 475.997 Q153.566 479.538 157.177 479.538 Q160.811 479.538 162.616 475.997 Q164.445 472.432 164.445 465.325 Q164.445 458.196 162.616 454.654 Q160.811 451.089 157.177 451.089 M157.177 447.386 Q162.987 447.386 166.042 451.992 Q169.121 456.575 169.121 465.325 Q169.121 474.052 166.042 478.659 Q162.987 483.242 157.177 483.242 Q151.366 483.242 148.288 478.659 Q145.232 474.052 145.232 465.325 Q145.232 456.575 148.288 451.992 Q151.366 447.386 157.177 447.386 Z" fill="#000000" fill-rule="evenodd" fill-opacity="1" /><path clip-path="url(#clip990)" d="M187.338 451.089 Q183.727 451.089 181.899 454.654 Q180.093 458.196 180.093 465.325 Q180.093 472.432 181.899 475.997 Q183.727 479.538 187.338 479.538 Q190.973 479.538 192.778 475.997 Q194.607 472.432 194.607 465.325 Q194.607 458.196 192.778 454.654 Q190.973 451.089 187.338 451.089 M187.338 447.386 Q193.149 447.386 196.204 451.992 Q199.283 456.575 199.283 465.325 Q199.283 474.052 196.204 478.659 Q193.149 483.242 187.338 483.242 Q181.528 483.242 178.45 478.659 Q175.394 474.052 175.394 465.325 Q175.394 456.575 178.45 451.992 Q181.528 447.386 187.338 447.386 Z" fill="#000000" fill-rule="evenodd" fill-opacity="1" /><path clip-path="url(#clip990)" d="M217.5 451.089 Q213.889 451.089 212.061 454.654 Q210.255 458.196 210.255 465.325 Q210.255 472.432 212.061 475.997 Q213.889 479.538 217.5 479.538 Q221.135 479.538 222.94 475.997 Q224.769 472.432 224.769 465.325 Q224.769 458.196 222.94 454.654 Q221.135 451.089 217.5 451.089 M217.5 447.386 Q223.31 447.386 226.366 451.992 Q229.445 456.575 229.445 465.325 Q229.445 474.052 226.366 478.659 Q223.31 483.242 217.5 483.242 Q211.69 483.242 208.612 478.659 Q205.556 474.052 205.556 465.325 Q205.556 456.575 208.612 451.992 Q211.69 447.386 217.5 447.386 Z" fill="#000000" fill-rule="evenodd" fill-opacity="1" /><path clip-path="url(#clip990)" d="M129.862 149.355 L118.056 167.804 L129.862 167.804 L129.862 149.355 M128.635 145.281 L134.515 145.281 L134.515 167.804 L139.445 167.804 L139.445 171.693 L134.515 171.693 L134.515 179.841 L129.862 179.841 L129.862 171.693 L114.26 171.693 L114.26 167.179 L128.635 145.281 Z" fill="#000000" fill-rule="evenodd" fill-opacity="1" /><path clip-path="url(#clip990)" d="M157.177 148.36 Q153.566 148.36 151.737 151.925 Q149.931 155.466 149.931 162.596 Q149.931 169.702 151.737 173.267 Q153.566 176.809 157.177 176.809 Q160.811 176.809 162.616 173.267 Q164.445 169.702 164.445 162.596 Q164.445 155.466 162.616 151.925 Q160.811 148.36 157.177 148.36 M157.177 144.656 Q162.987 144.656 166.042 149.263 Q169.121 153.846 169.121 162.596 Q169.121 171.323 166.042 175.929 Q162.987 180.512 157.177 180.512 Q151.366 180.512 148.288 175.929 Q145.232 171.323 145.232 162.596 Q145.232 153.846 148.288 149.263 Q151.366 144.656 157.177 144.656 Z" fill="#000000" fill-rule="evenodd" fill-opacity="1" /><path clip-path="url(#clip990)" d="M187.338 148.36 Q183.727 148.36 181.899 151.925 Q180.093 155.466 180.093 162.596 Q180.093 169.702 181.899 173.267 Q183.727 176.809 187.338 176.809 Q190.973 176.809 192.778 173.267 Q194.607 169.702 194.607 162.596 Q194.607 155.466 192.778 151.925 Q190.973 148.36 187.338 148.36 M187.338 144.656 Q193.149 144.656 196.204 149.263 Q199.283 153.846 199.283 162.596 Q199.283 171.323 196.204 175.929 Q193.149 180.512 187.338 180.512 Q181.528 180.512 178.45 175.929 Q175.394 171.323 175.394 162.596 Q175.394 153.846 178.45 149.263 Q181.528 144.656 187.338 144.656 Z" fill="#000000" fill-rule="evenodd" fill-opacity="1" /><path clip-path="url(#clip990)" d="M217.5 148.36 Q213.889 148.36 212.061 151.925 Q210.255 155.466 210.255 162.596 Q210.255 169.702 212.061 173.267 Q213.889 176.809 217.5 176.809 Q221.135 176.809 222.94 173.267 Q224.769 169.702 224.769 162.596 Q224.769 155.466 222.94 151.925 Q221.135 148.36 217.5 148.36 M217.5 144.656 Q223.31 144.656 226.366 149.263 Q229.445 153.846 229.445 162.596 Q229.445 171.323 226.366 175.929 Q223.31 180.512 217.5 180.512 Q211.69 180.512 208.612 175.929 Q205.556 171.323 205.556 162.596 Q205.556 153.846 208.612 149.263 Q211.69 144.656 217.5 144.656 Z" fill="#000000" fill-rule="evenodd" fill-opacity="1" /><path clip-path="url(#clip990)" d="M35.1993 829.203 Q31.2526 827.007 29.3747 823.951 Q27.4968 820.896 27.4968 816.758 Q27.4968 811.188 31.4117 808.164 Q35.2948 805.141 42.4881 805.141 L64.0042 805.141 L64.0042 811.029 L42.679 811.029 Q37.5546 811.029 35.072 812.843 Q32.5894 814.657 32.5894 818.381 Q32.5894 822.933 35.6131 825.574 Q38.6368 828.216 43.8567 828.216 L64.0042 828.216 L64.0042 834.105 L42.679 834.105 Q37.5228 834.105 35.072 835.919 Q32.5894 837.733 32.5894 841.521 Q32.5894 846.008 35.6449 848.65 Q38.6686 851.292 43.8567 851.292 L64.0042 851.292 L64.0042 857.18 L28.3562 857.18 L28.3562 851.292 L33.8944 851.292 Q30.616 849.287 29.0564 846.486 Q27.4968 843.685 27.4968 839.834 Q27.4968 835.951 29.4702 833.245 Q31.4436 830.508 35.1993 829.203 Z" fill="#000000" fill-rule="evenodd" fill-opacity="1" /><path clip-path="url(#clip990)" d="M28.3562 793.459 L28.3562 787.603 L64.0042 787.603 L64.0042 793.459 L28.3562 793.459 M14.479 793.459 L14.479 787.603 L21.895 787.603 L21.895 793.459 L14.479 793.459 Z" fill="#000000" fill-rule="evenodd" fill-opacity="1" /><path clip-path="url(#clip990)" d="M42.4881 745.717 L64.0042 745.717 L64.0042 751.573 L42.679 751.573 Q37.6183 751.573 35.1038 753.547 Q32.5894 755.52 32.5894 759.467 Q32.5894 764.209 35.6131 766.946 Q38.6368 769.684 43.8567 769.684 L64.0042 769.684 L64.0042 775.572 L28.3562 775.572 L28.3562 769.684 L33.8944 769.684 Q30.6797 767.583 29.0883 764.75 Q27.4968 761.886 27.4968 758.162 Q27.4968 752.019 31.3163 748.868 Q35.1038 745.717 42.4881 745.717 Z" fill="#000000" fill-rule="evenodd" fill-opacity="1" /><path clip-path="url(#clip990)" d="M74.8259 706.95 L79.3773 706.95 L79.3773 740.815 L74.8259 740.815 L74.8259 706.95 Z" fill="#000000" fill-rule="evenodd" fill-opacity="1" /><path clip-path="url(#clip990)" d="M33.7671 677.986 L14.479 677.986 L14.479 672.129 L64.0042 672.129 L64.0042 677.986 L58.657 677.986 Q61.8398 679.832 63.3994 682.664 Q64.9272 685.465 64.9272 689.412 Q64.9272 695.873 59.771 699.947 Q54.6147 703.989 46.212 703.989 Q37.8093 703.989 32.6531 699.947 Q27.4968 695.873 27.4968 689.412 Q27.4968 685.465 29.0564 682.664 Q30.5842 679.832 33.7671 677.986 M46.212 697.942 Q52.6732 697.942 56.3653 695.3 Q60.0256 692.627 60.0256 687.98 Q60.0256 683.333 56.3653 680.659 Q52.6732 677.986 46.212 677.986 Q39.7508 677.986 36.0905 680.659 Q32.3984 683.333 32.3984 687.98 Q32.3984 692.627 36.0905 695.3 Q39.7508 697.942 46.212 697.942 Z" fill="#000000" fill-rule="evenodd" fill-opacity="1" /><path clip-path="url(#clip990)" d="M28.3562 660.066 L28.3562 654.21 L64.0042 654.21 L64.0042 660.066 L28.3562 660.066 M14.479 660.066 L14.479 654.21 L21.895 654.21 L21.895 660.066 L14.479 660.066 Z" fill="#000000" fill-rule="evenodd" fill-opacity="1" /><path clip-path="url(#clip990)" d="M14.479 623.909 L19.3487 623.909 L19.3487 629.511 Q19.3487 632.662 20.6219 633.903 Q21.895 635.113 25.2052 635.113 L28.3562 635.113 L28.3562 625.468 L32.9077 625.468 L32.9077 635.113 L64.0042 635.113 L64.0042 641.001 L32.9077 641.001 L32.9077 646.603 L28.3562 646.603 L28.3562 641.001 L25.8736 641.001 Q19.9216 641.001 17.2162 638.232 Q14.479 635.463 14.479 629.447 L14.479 623.909 Z" fill="#000000" fill-rule="evenodd" fill-opacity="1" /><path clip-path="url(#clip990)" d="M14.479 600.961 L19.3487 600.961 L19.3487 606.562 Q19.3487 609.713 20.6219 610.955 Q21.895 612.164 25.2052 612.164 L28.3562 612.164 L28.3562 602.52 L32.9077 602.52 L32.9077 612.164 L64.0042 612.164 L64.0042 618.052 L32.9077 618.052 L32.9077 623.654 L28.3562 623.654 L28.3562 618.052 L25.8736 618.052 Q19.9216 618.052 17.2162 615.283 Q14.479 612.514 14.479 606.499 L14.479 600.961 Z" fill="#000000" fill-rule="evenodd" fill-opacity="1" /><polyline clip-path="url(#clip992)" style="stroke:#009af9; stroke-linecap:butt; stroke-linejoin:round; stroke-width:20; stroke-opacity:1; fill:none" stroke-dasharray="80, 50" points="
  324.52,1284.65 389.516,1293.23 446.846,1301.25 498.13,1308.74 544.522,1315.71 586.875,1322.18 625.835,1328.16 661.907,1350.77 695.489,1338.72 726.903,1357.37 
  756.412,1347.52 784.233,1362.6 810.55,1354.65 835.517,1366.54 859.266,1371.58 881.909,1369.26 924.262,1372.3 963.222,1371.33 981.592,1371.01 999.294,1370.81 
  1032.88,1369.32 1064.29,1366.94 1079.27,1363.02 1093.8,1363.7 1107.91,1350.59 1121.62,1359.65 1147.94,1354.85 1160.58,1348.76 1172.9,1349.34 1196.65,1339.59 
  1219.3,1328.69 1230.24,1329.21 1261.65,1317.71 1271.69,1298.08 1281.52,1302.26 1291.16,1305.18 1300.61,1297.66 1318.98,1291.72 1327.91,1281.63 1336.68,1279.94 
  1345.3,1277.4 1370.26,1262.29 1394.01,1242.08 1401.68,1240.81 1409.22,1235.16 1416.66,1229.61 1431.19,1219.67 1445.3,1210.34 1459.01,1201.19 1478.88,1183.13 
  1485.33,1174.78 1491.69,1180.64 1497.97,1169.46 1510.29,1167.14 1516.34,1161.12 1534.04,1153.2 1539.8,1126.92 1556.68,1134.43 1567.62,1122.57 1573,1126.97 
  1593.94,1067.61 1599.04,1103.22 1609.07,1102 1614.01,1085.83 1618.91,1076.02 1628.55,1035.38 1638,1073.59 1642.65,1078.28 1656.37,1051 1665.3,1035.4 
  1674.07,1055.78 1682.68,964.154 1695.33,1018.12 1703.58,1034.45 1707.65,1019 1711.69,983.611 1731.4,1014.23 1739.06,993.941 1746.61,961.146 1754.04,942.05 
  1757.72,995.06 1764.98,957.938 1768.57,970.265 1782.68,976.881 1793,903.15 1796.4,947.894 1816.27,895.685 1822.71,926.746 1825.9,904.581 1829.08,866.765 
  1835.36,844.526 1847.68,906.741 1853.73,880.197 1862.66,832.729 1871.43,805.691 1874.32,785.597 1877.19,838.005 1880.04,857.203 1894.07,800.87 1905.01,835.501 
  1910.39,744.47 1923.58,771.023 1931.33,787.042 1936.42,735.638 1943.97,706.203 1946.46,683.362 1951.4,743.028 1956.29,763.769 1965.93,704.018 1975.38,670.555 
  1977.72,716.74 1980.04,643.202 1993.75,674.42 2002.69,692.021 2004.89,637.297 2011.46,605.868 2013.62,580.664 2020.07,646.675 2032.71,606.223 2040.96,571.102 
  2045.04,620.629 2059.03,577.141 2068.79,538.671 2074.55,505.621 2076.45,478.427 2084,549.881 2095.1,508.367 2102.37,471.949 2105.96,441.003 2120.07,479.998 
  2128.69,440.527 2133.78,406.196 2135.47,377.361 2153.65,411.15 2160.1,373.757 2163.29,341.519 2185.07,343.464 2189.61,308.156 2191.11,277.998 2214.58,277.034 
  2217.43,243.797 2242.4,211.926 2243.75,180.73 2268.71,148.185 2293.68,85.838 
  "/>
<path clip-path="url(#clip990)" d="
M1998.83 196.379 L2283.18 196.379 L2283.18 92.6992 L1998.83 92.6992  Z
  " fill="#ffffff" fill-rule="evenodd" fill-opacity="1"/>
<polyline clip-path="url(#clip990)" style="stroke:#000000; stroke-linecap:butt; stroke-linejoin:round; stroke-width:4; stroke-opacity:1; fill:none" points="
  1998.83,196.379 2283.18,196.379 2283.18,92.6992 1998.83,92.6992 1998.83,196.379 
  "/>
<polyline clip-path="url(#clip990)" style="stroke:#009af9; stroke-linecap:butt; stroke-linejoin:round; stroke-width:4; stroke-opacity:1; fill:none" stroke-dasharray="16, 10" points="
  2022.02,144.539 2161.17,144.539 
  "/>
<path clip-path="url(#clip990)" d="M2198.21 164.227 Q2196.4 168.856 2194.69 170.268 Q2192.97 171.68 2190.1 171.68 L2186.7 171.68 L2186.7 168.115 L2189.2 168.115 Q2190.96 168.115 2191.93 167.282 Q2192.91 166.449 2194.09 163.347 L2194.85 161.403 L2184.36 135.893 L2188.88 135.893 L2196.98 156.171 L2205.08 135.893 L2209.6 135.893 L2198.21 164.227 Z" fill="#000000" fill-rule="evenodd" fill-opacity="1" /><path clip-path="url(#clip990)" d="M2216.89 157.884 L2224.53 157.884 L2224.53 131.518 L2216.22 133.185 L2216.22 128.926 L2224.48 127.259 L2229.16 127.259 L2229.16 157.884 L2236.79 157.884 L2236.79 161.819 L2216.89 161.819 L2216.89 157.884 Z" fill="#000000" fill-rule="evenodd" fill-opacity="1" /></svg>
