<?xml version="1.0" encoding="utf-8"?>
<svg xmlns="http://www.w3.org/2000/svg" xmlns:xlink="http://www.w3.org/1999/xlink" width="600" height="400" viewBox="0 0 2400 1600">
<defs>
  <clipPath id="clip200">
    <rect x="0" y="0" width="2400" height="1600"/>
  </clipPath>
</defs>
<path clip-path="url(#clip200)" d="
M0 1600 L2400 1600 L2400 0 L0 0  Z
  " fill="#ffffff" fill-rule="evenodd" fill-opacity="1"/>
<defs>
  <clipPath id="clip201">
    <rect x="480" y="0" width="1681" height="1600"/>
  </clipPath>
</defs>
<path clip-path="url(#clip200)" d="
M212.899 1410.9 L2352.76 1410.9 L2352.76 47.2441 L212.899 47.2441  Z
  " fill="#ffffff" fill-rule="evenodd" fill-opacity="1"/>
<defs>
  <clipPath id="clip202">
    <rect x="212" y="47" width="2141" height="1365"/>
  </clipPath>
</defs>
<polyline clip-path="url(#clip202)" style="stroke:#000000; stroke-width:2; stroke-opacity:0.1; fill:none" points="
  273.461,1410.9 273.461,47.2441 
  "/>
<polyline clip-path="url(#clip202)" style="stroke:#000000; stroke-width:2; stroke-opacity:0.1; fill:none" points="
  778.139,1410.9 778.139,47.2441 
  "/>
<polyline clip-path="url(#clip202)" style="stroke:#000000; stroke-width:2; stroke-opacity:0.1; fill:none" points="
  1282.82,1410.9 1282.82,47.2441 
  "/>
<polyline clip-path="url(#clip202)" style="stroke:#000000; stroke-width:2; stroke-opacity:0.1; fill:none" points="
  1787.49,1410.9 1787.49,47.2441 
  "/>
<polyline clip-path="url(#clip202)" style="stroke:#000000; stroke-width:2; stroke-opacity:0.1; fill:none" points="
  2292.17,1410.9 2292.17,47.2441 
  "/>
<polyline clip-path="url(#clip200)" style="stroke:#000000; stroke-width:4; stroke-opacity:1; fill:none" points="
  212.899,1410.9 2352.76,1410.9 
  "/>
<polyline clip-path="url(#clip200)" style="stroke:#000000; stroke-width:4; stroke-opacity:1; fill:none" points="
  273.461,1410.9 273.461,1394.53 
  "/>
<polyline clip-path="url(#clip200)" style="stroke:#000000; stroke-width:4; stroke-opacity:1; fill:none" points="
  778.139,1410.9 778.139,1394.53 
  "/>
<polyline clip-path="url(#clip200)" style="stroke:#000000; stroke-width:4; stroke-opacity:1; fill:none" points="
  1282.82,1410.9 1282.82,1394.53 
  "/>
<polyline clip-path="url(#clip200)" style="stroke:#000000; stroke-width:4; stroke-opacity:1; fill:none" points="
  1787.49,1410.9 1787.49,1394.53 
  "/>
<polyline clip-path="url(#clip200)" style="stroke:#000000; stroke-width:4; stroke-opacity:1; fill:none" points="
  2292.17,1410.9 2292.17,1394.53 
  "/>
<path clip-path="url(#clip200)" d="M 0 0 M227.108 1489.17 L234.747 1489.17 L234.747 1462.8 L226.437 1464.47 L226.437 1460.21 L234.701 1458.54 L239.377 1458.54 L239.377 1489.17 L247.016 1489.17 L247.016 1493.1 L227.108 1493.1 L227.108 1489.17 Z" fill="#000000" fill-rule="evenodd" fill-opacity="1" /><path clip-path="url(#clip200)" d="M 0 0 M262.085 1461.62 Q258.474 1461.62 256.645 1465.19 Q254.84 1468.73 254.84 1475.86 Q254.84 1482.97 256.645 1486.53 Q258.474 1490.07 262.085 1490.07 Q265.719 1490.07 267.525 1486.53 Q269.353 1482.97 269.353 1475.86 Q269.353 1468.73 267.525 1465.19 Q265.719 1461.62 262.085 1461.62 M262.085 1457.92 Q267.895 1457.92 270.951 1462.53 Q274.029 1467.11 274.029 1475.86 Q274.029 1484.59 270.951 1489.19 Q267.895 1493.78 262.085 1493.78 Q256.275 1493.78 253.196 1489.19 Q250.141 1484.59 250.141 1475.86 Q250.141 1467.11 253.196 1462.53 Q256.275 1457.92 262.085 1457.92 Z" fill="#000000" fill-rule="evenodd" fill-opacity="1" /><path clip-path="url(#clip200)" d="M 0 0 M274.029 1452.02 L298.141 1452.02 L298.141 1455.22 L274.029 1455.22 L274.029 1452.02 Z" fill="#000000" fill-rule="evenodd" fill-opacity="1" /><path clip-path="url(#clip200)" d="M 0 0 M312.698 1440.92 L303.106 1455.91 L312.698 1455.91 L312.698 1440.92 M311.701 1437.61 L316.478 1437.61 L316.478 1455.91 L320.484 1455.91 L320.484 1459.07 L316.478 1459.07 L316.478 1465.69 L312.698 1465.69 L312.698 1459.07 L300.022 1459.07 L300.022 1455.41 L311.701 1437.61 Z" fill="#000000" fill-rule="evenodd" fill-opacity="1" /><path clip-path="url(#clip200)" d="M 0 0 M732.247 1489.17 L739.886 1489.17 L739.886 1462.8 L731.576 1464.47 L731.576 1460.21 L739.839 1458.54 L744.515 1458.54 L744.515 1489.17 L752.154 1489.17 L752.154 1493.1 L732.247 1493.1 L732.247 1489.17 Z" fill="#000000" fill-rule="evenodd" fill-opacity="1" /><path clip-path="url(#clip200)" d="M 0 0 M767.224 1461.62 Q763.612 1461.62 761.784 1465.19 Q759.978 1468.73 759.978 1475.86 Q759.978 1482.97 761.784 1486.53 Q763.612 1490.07 767.224 1490.07 Q770.858 1490.07 772.663 1486.53 Q774.492 1482.97 774.492 1475.86 Q774.492 1468.73 772.663 1465.19 Q770.858 1461.62 767.224 1461.62 M767.224 1457.92 Q773.034 1457.92 776.089 1462.53 Q779.168 1467.11 779.168 1475.86 Q779.168 1484.59 776.089 1489.19 Q773.034 1493.78 767.224 1493.78 Q761.413 1493.78 758.335 1489.19 Q755.279 1484.59 755.279 1475.86 Q755.279 1467.11 758.335 1462.53 Q761.413 1457.92 767.224 1457.92 Z" fill="#000000" fill-rule="evenodd" fill-opacity="1" /><path clip-path="url(#clip200)" d="M 0 0 M779.168 1452.02 L803.279 1452.02 L803.279 1455.22 L779.168 1455.22 L779.168 1452.02 Z" fill="#000000" fill-rule="evenodd" fill-opacity="1" /><path clip-path="url(#clip200)" d="M 0 0 M818.909 1450.55 Q821.636 1451.14 823.159 1452.98 Q824.702 1454.82 824.702 1457.53 Q824.702 1461.69 821.843 1463.96 Q818.984 1466.24 813.718 1466.24 Q811.95 1466.24 810.069 1465.88 Q808.207 1465.54 806.213 1464.85 L806.213 1461.18 Q807.793 1462.1 809.674 1462.57 Q811.555 1463.04 813.605 1463.04 Q817.178 1463.04 819.04 1461.63 Q820.921 1460.22 820.921 1457.53 Q820.921 1455.05 819.172 1453.66 Q817.442 1452.25 814.338 1452.25 L811.066 1452.25 L811.066 1449.12 L814.489 1449.12 Q817.291 1449.12 818.777 1448.01 Q820.263 1446.89 820.263 1444.78 Q820.263 1442.62 818.721 1441.47 Q817.197 1440.3 814.338 1440.3 Q812.777 1440.3 810.991 1440.64 Q809.204 1440.98 807.06 1441.69 L807.06 1438.31 Q809.223 1437.71 811.103 1437.41 Q813.003 1437.11 814.677 1437.11 Q819.003 1437.11 821.523 1439.08 Q824.043 1441.04 824.043 1444.38 Q824.043 1446.72 822.708 1448.33 Q821.373 1449.93 818.909 1450.55 Z" fill="#000000" fill-rule="evenodd" fill-opacity="1" /><path clip-path="url(#clip200)" d="M 0 0 M1237.31 1489.17 L1244.95 1489.17 L1244.95 1462.8 L1236.64 1464.47 L1236.64 1460.21 L1244.9 1458.54 L1249.58 1458.54 L1249.58 1489.17 L1257.22 1489.17 L1257.22 1493.1 L1237.31 1493.1 L1237.31 1489.17 Z" fill="#000000" fill-rule="evenodd" fill-opacity="1" /><path clip-path="url(#clip200)" d="M 0 0 M1272.29 1461.62 Q1268.68 1461.62 1266.85 1465.19 Q1265.04 1468.73 1265.04 1475.86 Q1265.04 1482.97 1266.85 1486.53 Q1268.68 1490.07 1272.29 1490.07 Q1275.92 1490.07 1277.73 1486.53 Q1279.56 1482.97 1279.56 1475.86 Q1279.56 1468.73 1277.73 1465.19 Q1275.92 1461.62 1272.29 1461.62 M1272.29 1457.92 Q1278.1 1457.92 1281.15 1462.53 Q1284.23 1467.11 1284.23 1475.86 Q1284.23 1484.59 1281.15 1489.19 Q1278.1 1493.78 1272.29 1493.78 Q1266.48 1493.78 1263.4 1489.19 Q1260.34 1484.59 1260.34 1475.86 Q1260.34 1467.11 1263.4 1462.53 Q1266.48 1457.92 1272.29 1457.92 Z" fill="#000000" fill-rule="evenodd" fill-opacity="1" /><path clip-path="url(#clip200)" d="M 0 0 M1284.23 1452.02 L1308.34 1452.02 L1308.34 1455.22 L1284.23 1455.22 L1284.23 1452.02 Z" fill="#000000" fill-rule="evenodd" fill-opacity="1" /><path clip-path="url(#clip200)" d="M 0 0 M1315.73 1462.5 L1328.99 1462.5 L1328.99 1465.69 L1311.16 1465.69 L1311.16 1462.5 Q1313.33 1460.26 1317.05 1456.5 Q1320.79 1452.72 1321.75 1451.63 Q1323.58 1449.58 1324.29 1448.16 Q1325.03 1446.74 1325.03 1445.36 Q1325.03 1443.12 1323.45 1441.71 Q1321.88 1440.3 1319.36 1440.3 Q1317.58 1440.3 1315.58 1440.92 Q1313.61 1441.54 1311.35 1442.8 L1311.35 1438.97 Q1313.65 1438.05 1315.64 1437.58 Q1317.63 1437.11 1319.29 1437.11 Q1323.65 1437.11 1326.25 1439.29 Q1328.84 1441.47 1328.84 1445.12 Q1328.84 1446.85 1328.19 1448.41 Q1327.55 1449.95 1325.83 1452.06 Q1325.36 1452.6 1322.84 1455.22 Q1320.32 1457.81 1315.73 1462.5 Z" fill="#000000" fill-rule="evenodd" fill-opacity="1" /><path clip-path="url(#clip200)" d="M 0 0 M1741.84 1489.17 L1749.48 1489.17 L1749.48 1462.8 L1741.17 1464.47 L1741.17 1460.21 L1749.43 1458.54 L1754.11 1458.54 L1754.11 1489.17 L1761.74 1489.17 L1761.74 1493.1 L1741.84 1493.1 L1741.84 1489.17 Z" fill="#000000" fill-rule="evenodd" fill-opacity="1" /><path clip-path="url(#clip200)" d="M 0 0 M1776.81 1461.62 Q1773.2 1461.62 1771.37 1465.19 Q1769.57 1468.73 1769.57 1475.86 Q1769.57 1482.97 1771.37 1486.53 Q1773.2 1490.07 1776.81 1490.07 Q1780.45 1490.07 1782.25 1486.53 Q1784.08 1482.97 1784.08 1475.86 Q1784.08 1468.73 1782.25 1465.19 Q1780.45 1461.62 1776.81 1461.62 M1776.81 1457.92 Q1782.62 1457.92 1785.68 1462.53 Q1788.76 1467.11 1788.76 1475.86 Q1788.76 1484.59 1785.68 1489.19 Q1782.62 1493.78 1776.81 1493.78 Q1771 1493.78 1767.93 1489.19 Q1764.87 1484.59 1764.87 1475.86 Q1764.87 1467.11 1767.93 1462.53 Q1771 1457.92 1776.81 1457.92 Z" fill="#000000" fill-rule="evenodd" fill-opacity="1" /><path clip-path="url(#clip200)" d="M 0 0 M1788.76 1452.02 L1812.87 1452.02 L1812.87 1455.22 L1788.76 1455.22 L1788.76 1452.02 Z" fill="#000000" fill-rule="evenodd" fill-opacity="1" /><path clip-path="url(#clip200)" d="M 0 0 M1817.65 1462.5 L1823.85 1462.5 L1823.85 1441.07 L1817.1 1442.43 L1817.1 1438.97 L1823.82 1437.61 L1827.62 1437.61 L1827.62 1462.5 L1833.82 1462.5 L1833.82 1465.69 L1817.65 1465.69 L1817.65 1462.5 Z" fill="#000000" fill-rule="evenodd" fill-opacity="1" /><path clip-path="url(#clip200)" d="M 0 0 M2259.34 1489.17 L2266.98 1489.17 L2266.98 1462.8 L2258.67 1464.47 L2258.67 1460.21 L2266.93 1458.54 L2271.61 1458.54 L2271.61 1489.17 L2279.25 1489.17 L2279.25 1493.1 L2259.34 1493.1 L2259.34 1489.17 Z" fill="#000000" fill-rule="evenodd" fill-opacity="1" /><path clip-path="url(#clip200)" d="M 0 0 M2294.32 1461.62 Q2290.71 1461.62 2288.88 1465.19 Q2287.07 1468.73 2287.07 1475.86 Q2287.07 1482.97 2288.88 1486.53 Q2290.71 1490.07 2294.32 1490.07 Q2297.95 1490.07 2299.76 1486.53 Q2301.59 1482.97 2301.59 1475.86 Q2301.59 1468.73 2299.76 1465.19 Q2297.95 1461.62 2294.32 1461.62 M2294.32 1457.92 Q2300.13 1457.92 2303.18 1462.53 Q2306.26 1467.11 2306.26 1475.86 Q2306.26 1484.59 2303.18 1489.19 Q2300.13 1493.78 2294.32 1493.78 Q2288.51 1493.78 2285.43 1489.19 Q2282.37 1484.59 2282.37 1475.86 Q2282.37 1467.11 2285.43 1462.53 Q2288.51 1457.92 2294.32 1457.92 Z" fill="#000000" fill-rule="evenodd" fill-opacity="1" /><path clip-path="url(#clip200)" d="M 0 0 M2315.97 1440.11 Q2313.03 1440.11 2311.55 1443.01 Q2310.08 1445.89 2310.08 1451.68 Q2310.08 1457.46 2311.55 1460.35 Q2313.03 1463.23 2315.97 1463.23 Q2318.92 1463.23 2320.39 1460.35 Q2321.87 1457.46 2321.87 1451.68 Q2321.87 1445.89 2320.39 1443.01 Q2318.92 1440.11 2315.97 1440.11 M2315.97 1437.11 Q2320.69 1437.11 2323.17 1440.85 Q2325.67 1444.57 2325.67 1451.68 Q2325.67 1458.77 2323.17 1462.51 Q2320.69 1466.24 2315.97 1466.24 Q2311.25 1466.24 2308.75 1462.51 Q2306.26 1458.77 2306.26 1451.68 Q2306.26 1444.57 2308.75 1440.85 Q2311.25 1437.11 2315.97 1437.11 Z" fill="#000000" fill-rule="evenodd" fill-opacity="1" /><path clip-path="url(#clip200)" d="M 0 0 M1208.05 1512.66 L1213.93 1512.66 L1213.93 1541.91 L1231.41 1526.54 L1238.89 1526.54 L1219.98 1543.22 L1239.68 1562.19 L1232.04 1562.19 L1213.93 1544.78 L1213.93 1562.19 L1208.05 1562.19 L1208.05 1512.66 Z" fill="#000000" fill-rule="evenodd" fill-opacity="1" /><path clip-path="url(#clip200)" d="M 0 0 M1272.91 1573.01 L1272.91 1577.56 L1239.05 1577.56 L1239.05 1573.01 L1272.91 1573.01 Z" fill="#000000" fill-rule="evenodd" fill-opacity="1" /><path clip-path="url(#clip200)" d="M 0 0 M1292.87 1530.64 Q1288.16 1530.64 1285.42 1534.34 Q1282.68 1538 1282.68 1544.39 Q1282.68 1550.79 1285.39 1554.48 Q1288.13 1558.14 1292.87 1558.14 Q1297.55 1558.14 1300.29 1554.45 Q1303.02 1550.76 1303.02 1544.39 Q1303.02 1538.06 1300.29 1534.37 Q1297.55 1530.64 1292.87 1530.64 M1292.87 1525.68 Q1300.51 1525.68 1304.87 1530.64 Q1309.23 1535.61 1309.23 1544.39 Q1309.23 1553.15 1304.87 1558.14 Q1300.51 1563.11 1292.87 1563.11 Q1285.2 1563.11 1280.84 1558.14 Q1276.51 1553.15 1276.51 1544.39 Q1276.51 1535.61 1280.84 1530.64 Q1285.2 1525.68 1292.87 1525.68 Z" fill="#000000" fill-rule="evenodd" fill-opacity="1" /><path clip-path="url(#clip200)" d="M 0 0 M1333.42 1512.66 L1333.42 1517.53 L1327.82 1517.53 Q1324.67 1517.53 1323.42 1518.8 Q1322.22 1520.08 1322.22 1523.39 L1322.22 1526.54 L1331.86 1526.54 L1331.86 1531.09 L1322.22 1531.09 L1322.22 1562.19 L1316.33 1562.19 L1316.33 1531.09 L1310.73 1531.09 L1310.73 1526.54 L1316.33 1526.54 L1316.33 1524.05 Q1316.33 1518.1 1319.1 1515.4 Q1321.87 1512.66 1327.88 1512.66 L1333.42 1512.66 Z" fill="#000000" fill-rule="evenodd" fill-opacity="1" /><path clip-path="url(#clip200)" d="M 0 0 M1357.61 1512.66 L1357.61 1517.53 L1352.01 1517.53 Q1348.86 1517.53 1347.61 1518.8 Q1346.4 1520.08 1346.4 1523.39 L1346.4 1526.54 L1356.05 1526.54 L1356.05 1531.09 L1346.4 1531.09 L1346.4 1562.19 L1340.52 1562.19 L1340.52 1531.09 L1334.91 1531.09 L1334.91 1526.54 L1340.52 1526.54 L1340.52 1524.05 Q1340.52 1518.1 1343.29 1515.4 Q1346.05 1512.66 1352.07 1512.66 L1357.61 1512.66 Z" fill="#000000" fill-rule="evenodd" fill-opacity="1" /><polyline clip-path="url(#clip202)" style="stroke:#000000; stroke-width:2; stroke-opacity:0.1; fill:none" points="
  212.899,1222.4 2352.76,1222.4 
  "/>
<polyline clip-path="url(#clip202)" style="stroke:#000000; stroke-width:2; stroke-opacity:0.1; fill:none" points="
  212.899,965.109 2352.76,965.109 
  "/>
<polyline clip-path="url(#clip202)" style="stroke:#000000; stroke-width:2; stroke-opacity:0.1; fill:none" points="
  212.899,707.816 2352.76,707.816 
  "/>
<polyline clip-path="url(#clip202)" style="stroke:#000000; stroke-width:2; stroke-opacity:0.1; fill:none" points="
  212.899,450.523 2352.76,450.523 
  "/>
<polyline clip-path="url(#clip202)" style="stroke:#000000; stroke-width:2; stroke-opacity:0.1; fill:none" points="
  212.899,193.23 2352.76,193.23 
  "/>
<polyline clip-path="url(#clip200)" style="stroke:#000000; stroke-width:4; stroke-opacity:1; fill:none" points="
  212.899,1410.9 212.899,47.2441 
  "/>
<polyline clip-path="url(#clip200)" style="stroke:#000000; stroke-width:4; stroke-opacity:1; fill:none" points="
  212.899,1222.4 238.577,1222.4 
  "/>
<polyline clip-path="url(#clip200)" style="stroke:#000000; stroke-width:4; stroke-opacity:1; fill:none" points="
  212.899,965.109 238.577,965.109 
  "/>
<polyline clip-path="url(#clip200)" style="stroke:#000000; stroke-width:4; stroke-opacity:1; fill:none" points="
  212.899,707.816 238.577,707.816 
  "/>
<polyline clip-path="url(#clip200)" style="stroke:#000000; stroke-width:4; stroke-opacity:1; fill:none" points="
  212.899,450.523 238.577,450.523 
  "/>
<polyline clip-path="url(#clip200)" style="stroke:#000000; stroke-width:4; stroke-opacity:1; fill:none" points="
  212.899,193.23 238.577,193.23 
  "/>
<path clip-path="url(#clip200)" d="M 0 0 M130.348 1209.2 L118.543 1227.64 L130.348 1227.64 L130.348 1209.2 M129.121 1205.12 L135.001 1205.12 L135.001 1227.64 L139.931 1227.64 L139.931 1231.53 L135.001 1231.53 L135.001 1239.68 L130.348 1239.68 L130.348 1231.53 L114.746 1231.53 L114.746 1227.02 L129.121 1205.12 Z" fill="#000000" fill-rule="evenodd" fill-opacity="1" /><path clip-path="url(#clip200)" d="M 0 0 M145.001 1233.8 L149.885 1233.8 L149.885 1239.68 L145.001 1239.68 L145.001 1233.8 Z" fill="#000000" fill-rule="evenodd" fill-opacity="1" /><path clip-path="url(#clip200)" d="M 0 0 M164.954 1208.2 Q161.343 1208.2 159.515 1211.76 Q157.709 1215.31 157.709 1222.44 Q157.709 1229.54 159.515 1233.11 Q161.343 1236.65 164.954 1236.65 Q168.589 1236.65 170.394 1233.11 Q172.223 1229.54 172.223 1222.44 Q172.223 1215.31 170.394 1211.76 Q168.589 1208.2 164.954 1208.2 M164.954 1204.5 Q170.764 1204.5 173.82 1209.1 Q176.899 1213.69 176.899 1222.44 Q176.899 1231.16 173.82 1235.77 Q170.764 1240.35 164.954 1240.35 Q159.144 1240.35 156.065 1235.77 Q153.01 1231.16 153.01 1222.44 Q153.01 1213.69 156.065 1209.1 Q159.144 1204.5 164.954 1204.5 Z" fill="#000000" fill-rule="evenodd" fill-opacity="1" /><path clip-path="url(#clip200)" d="M 0 0 M131.945 951.903 L120.14 970.352 L131.945 970.352 L131.945 951.903 M130.718 947.829 L136.598 947.829 L136.598 970.352 L141.529 970.352 L141.529 974.24 L136.598 974.24 L136.598 982.389 L131.945 982.389 L131.945 974.24 L116.343 974.24 L116.343 969.727 L130.718 947.829 Z" fill="#000000" fill-rule="evenodd" fill-opacity="1" /><path clip-path="url(#clip200)" d="M 0 0 M146.598 976.509 L151.482 976.509 L151.482 982.389 L146.598 982.389 L146.598 976.509 Z" fill="#000000" fill-rule="evenodd" fill-opacity="1" /><path clip-path="url(#clip200)" d="M 0 0 M160.579 978.453 L176.899 978.453 L176.899 982.389 L154.954 982.389 L154.954 978.453 Q157.616 975.699 162.2 971.069 Q166.806 966.416 167.987 965.074 Q170.232 962.551 171.112 960.815 Q172.014 959.055 172.014 957.366 Q172.014 954.611 170.07 952.875 Q168.149 951.139 165.047 951.139 Q162.848 951.139 160.394 951.903 Q157.964 952.666 155.186 954.217 L155.186 949.495 Q158.01 948.361 160.464 947.782 Q162.917 947.204 164.954 947.204 Q170.325 947.204 173.519 949.889 Q176.714 952.574 176.714 957.065 Q176.714 959.194 175.903 961.116 Q175.116 963.014 173.01 965.606 Q172.431 966.278 169.329 969.495 Q166.227 972.69 160.579 978.453 Z" fill="#000000" fill-rule="evenodd" fill-opacity="1" /><path clip-path="url(#clip200)" d="M 0 0 M129.862 694.61 L118.056 713.059 L129.862 713.059 L129.862 694.61 M128.635 690.536 L134.515 690.536 L134.515 713.059 L139.445 713.059 L139.445 716.948 L134.515 716.948 L134.515 725.096 L129.862 725.096 L129.862 716.948 L114.26 716.948 L114.26 712.434 L128.635 690.536 Z" fill="#000000" fill-rule="evenodd" fill-opacity="1" /><path clip-path="url(#clip200)" d="M 0 0 M144.515 719.216 L149.399 719.216 L149.399 725.096 L144.515 725.096 L144.515 719.216 Z" fill="#000000" fill-rule="evenodd" fill-opacity="1" /><path clip-path="url(#clip200)" d="M 0 0 M167.315 694.61 L155.51 713.059 L167.315 713.059 L167.315 694.61 M166.089 690.536 L171.968 690.536 L171.968 713.059 L176.899 713.059 L176.899 716.948 L171.968 716.948 L171.968 725.096 L167.315 725.096 L167.315 716.948 L151.714 716.948 L151.714 712.434 L166.089 690.536 Z" fill="#000000" fill-rule="evenodd" fill-opacity="1" /><path clip-path="url(#clip200)" d="M 0 0 M130.186 437.317 L118.381 455.766 L130.186 455.766 L130.186 437.317 M128.959 433.243 L134.839 433.243 L134.839 455.766 L139.769 455.766 L139.769 459.655 L134.839 459.655 L134.839 467.803 L130.186 467.803 L130.186 459.655 L114.584 459.655 L114.584 455.141 L128.959 433.243 Z" fill="#000000" fill-rule="evenodd" fill-opacity="1" /><path clip-path="url(#clip200)" d="M 0 0 M144.839 461.923 L149.723 461.923 L149.723 467.803 L144.839 467.803 L144.839 461.923 Z" fill="#000000" fill-rule="evenodd" fill-opacity="1" /><path clip-path="url(#clip200)" d="M 0 0 M165.371 448.659 Q162.223 448.659 160.371 450.812 Q158.542 452.965 158.542 456.715 Q158.542 460.442 160.371 462.618 Q162.223 464.77 165.371 464.77 Q168.519 464.77 170.348 462.618 Q172.2 460.442 172.2 456.715 Q172.2 452.965 170.348 450.812 Q168.519 448.659 165.371 448.659 M174.653 434.007 L174.653 438.266 Q172.894 437.432 171.089 436.993 Q169.306 436.553 167.547 436.553 Q162.917 436.553 160.464 439.678 Q158.033 442.803 157.686 449.122 Q159.052 447.108 161.112 446.044 Q163.172 444.956 165.649 444.956 Q170.857 444.956 173.866 448.127 Q176.899 451.275 176.899 456.715 Q176.899 462.039 173.751 465.256 Q170.602 468.474 165.371 468.474 Q159.376 468.474 156.204 463.891 Q153.033 459.284 153.033 450.557 Q153.033 442.363 156.922 437.502 Q160.811 432.618 167.362 432.618 Q169.121 432.618 170.903 432.965 Q172.709 433.312 174.653 434.007 Z" fill="#000000" fill-rule="evenodd" fill-opacity="1" /><path clip-path="url(#clip200)" d="M 0 0 M130.441 180.024 L118.635 198.473 L130.441 198.473 L130.441 180.024 M129.214 175.95 L135.093 175.95 L135.093 198.473 L140.024 198.473 L140.024 202.362 L135.093 202.362 L135.093 210.51 L130.441 210.51 L130.441 202.362 L114.839 202.362 L114.839 197.848 L129.214 175.95 Z" fill="#000000" fill-rule="evenodd" fill-opacity="1" /><path clip-path="url(#clip200)" d="M 0 0 M145.093 204.63 L149.978 204.63 L149.978 210.51 L145.093 210.51 L145.093 204.63 Z" fill="#000000" fill-rule="evenodd" fill-opacity="1" /><path clip-path="url(#clip200)" d="M 0 0 M165.047 194.098 Q161.714 194.098 159.792 195.88 Q157.894 197.663 157.894 200.788 Q157.894 203.913 159.792 205.695 Q161.714 207.477 165.047 207.477 Q168.38 207.477 170.302 205.695 Q172.223 203.889 172.223 200.788 Q172.223 197.663 170.302 195.88 Q168.403 194.098 165.047 194.098 M160.371 192.107 Q157.362 191.366 155.672 189.306 Q154.005 187.246 154.005 184.283 Q154.005 180.14 156.945 177.732 Q159.908 175.325 165.047 175.325 Q170.209 175.325 173.149 177.732 Q176.089 180.14 176.089 184.283 Q176.089 187.246 174.399 189.306 Q172.732 191.366 169.746 192.107 Q173.126 192.894 175.001 195.186 Q176.899 197.477 176.899 200.788 Q176.899 205.811 173.82 208.496 Q170.764 211.181 165.047 211.181 Q159.329 211.181 156.251 208.496 Q153.195 205.811 153.195 200.788 Q153.195 197.477 155.093 195.186 Q156.991 192.894 160.371 192.107 M158.658 184.723 Q158.658 187.408 160.325 188.913 Q162.015 190.417 165.047 190.417 Q168.056 190.417 169.746 188.913 Q171.459 187.408 171.459 184.723 Q171.459 182.038 169.746 180.533 Q168.056 179.028 165.047 179.028 Q162.015 179.028 160.325 180.533 Q158.658 182.038 158.658 184.723 Z" fill="#000000" fill-rule="evenodd" fill-opacity="1" /><path clip-path="url(#clip200)" d="M 0 0 M59.1993 815.533 Q55.2526 813.336 53.3747 810.281 Q51.4968 807.225 51.4968 803.088 Q51.4968 797.518 55.4117 794.494 Q59.2948 791.47 66.4881 791.47 L88.0042 791.47 L88.0042 797.358 L66.679 797.358 Q61.5546 797.358 59.072 799.173 Q56.5894 800.987 56.5894 804.711 Q56.5894 809.262 59.6131 811.904 Q62.6368 814.546 67.8567 814.546 L88.0042 814.546 L88.0042 820.434 L66.679 820.434 Q61.5228 820.434 59.072 822.248 Q56.5894 824.063 56.5894 827.85 Q56.5894 832.338 59.6449 834.98 Q62.6686 837.622 67.8567 837.622 L88.0042 837.622 L88.0042 843.51 L52.3562 843.51 L52.3562 837.622 L57.8944 837.622 Q54.616 835.616 53.0564 832.815 Q51.4968 830.015 51.4968 826.163 Q51.4968 822.28 53.4702 819.575 Q55.4436 816.838 59.1993 815.533 Z" fill="#000000" fill-rule="evenodd" fill-opacity="1" /><path clip-path="url(#clip200)" d="M 0 0 M52.3562 785.327 L52.3562 779.471 L88.0042 779.471 L88.0042 785.327 L52.3562 785.327 M38.479 785.327 L38.479 779.471 L45.895 779.471 L45.895 785.327 L38.479 785.327 Z" fill="#000000" fill-rule="evenodd" fill-opacity="1" /><path clip-path="url(#clip200)" d="M 0 0 M66.4881 743.696 L88.0042 743.696 L88.0042 749.552 L66.679 749.552 Q61.6183 749.552 59.1038 751.525 Q56.5894 753.499 56.5894 757.446 Q56.5894 762.188 59.6131 764.925 Q62.6368 767.662 67.8567 767.662 L88.0042 767.662 L88.0042 773.551 L52.3562 773.551 L52.3562 767.662 L57.8944 767.662 Q54.6797 765.562 53.0883 762.729 Q51.4968 759.864 51.4968 756.141 Q51.4968 749.998 55.3163 746.847 Q59.1038 743.696 66.4881 743.696 Z" fill="#000000" fill-rule="evenodd" fill-opacity="1" /><path clip-path="url(#clip200)" d="M 0 0 M98.8259 710.467 L103.377 710.467 L103.377 744.332 L98.8259 744.332 L98.8259 710.467 Z" fill="#000000" fill-rule="evenodd" fill-opacity="1" /><path clip-path="url(#clip200)" d="M 0 0 M57.7671 680.866 L38.479 680.866 L38.479 675.01 L88.0042 675.01 L88.0042 680.866 L82.657 680.866 Q85.8398 682.712 87.3994 685.545 Q88.9272 688.346 88.9272 692.292 Q88.9272 698.754 83.771 702.828 Q78.6147 706.87 70.212 706.87 Q61.8093 706.87 56.6531 702.828 Q51.4968 698.754 51.4968 692.292 Q51.4968 688.346 53.0564 685.545 Q54.5842 682.712 57.7671 680.866 M70.212 700.823 Q76.6732 700.823 80.3653 698.181 Q84.0256 695.507 84.0256 690.86 Q84.0256 686.213 80.3653 683.54 Q76.6732 680.866 70.212 680.866 Q63.7508 680.866 60.0905 683.54 Q56.3984 686.213 56.3984 690.86 Q56.3984 695.507 60.0905 698.181 Q63.7508 700.823 70.212 700.823 Z" fill="#000000" fill-rule="evenodd" fill-opacity="1" /><path clip-path="url(#clip200)" d="M 0 0 M52.3562 668.867 L52.3562 663.01 L88.0042 663.01 L88.0042 668.867 L52.3562 668.867 M38.479 668.867 L38.479 663.01 L45.895 663.01 L45.895 668.867 L38.479 668.867 Z" fill="#000000" fill-rule="evenodd" fill-opacity="1" /><path clip-path="url(#clip200)" d="M 0 0 M38.479 638.821 L43.3487 638.821 L43.3487 644.422 Q43.3487 647.573 44.6219 648.815 Q45.895 650.024 49.2052 650.024 L52.3562 650.024 L52.3562 640.38 L56.9077 640.38 L56.9077 650.024 L88.0042 650.024 L88.0042 655.912 L56.9077 655.912 L56.9077 661.514 L52.3562 661.514 L52.3562 655.912 L49.8736 655.912 Q43.9216 655.912 41.2162 653.143 Q38.479 650.374 38.479 644.359 L38.479 638.821 Z" fill="#000000" fill-rule="evenodd" fill-opacity="1" /><path clip-path="url(#clip200)" d="M 0 0 M38.479 614.631 L43.3487 614.631 L43.3487 620.233 Q43.3487 623.384 44.6219 624.625 Q45.895 625.835 49.2052 625.835 L52.3562 625.835 L52.3562 616.19 L56.9077 616.19 L56.9077 625.835 L88.0042 625.835 L88.0042 631.723 L56.9077 631.723 L56.9077 637.325 L52.3562 637.325 L52.3562 631.723 L49.8736 631.723 Q43.9216 631.723 41.2162 628.954 Q38.479 626.185 38.479 620.169 L38.479 614.631 Z" fill="#000000" fill-rule="evenodd" fill-opacity="1" /><path clip-path="url(#clip200)" d="
M1992.65 213.659 L2281.43 213.659 L2281.43 92.6992 L1992.65 92.6992  Z
  " fill="#ffffff" fill-rule="evenodd" fill-opacity="1"/>
<polyline clip-path="url(#clip200)" style="stroke:#000000; stroke-width:4; stroke-opacity:1; fill:none" points="
  1992.65,213.659 2281.43,213.659 2281.43,92.6992 1992.65,92.6992 1992.65,213.659 
  "/>
<polyline clip-path="url(#clip200)" style="stroke:#009af9; stroke-width:4; stroke-opacity:1; fill:none" stroke-dasharray="16, 10" points="
  2016.42,153.179 2159.08,153.179 
  "/>
<path clip-path="url(#clip200)" d="M 0 0 M2196.7 172.867 Q2194.89 177.496 2193.18 178.908 Q2191.47 180.32 2188.6 180.32 L2185.19 180.32 L2185.19 176.755 L2187.69 176.755 Q2189.45 176.755 2190.43 175.922 Q2191.4 175.089 2192.58 171.987 L2193.34 170.043 L2182.86 144.533 L2187.37 144.533 L2195.47 164.811 L2203.57 144.533 L2208.09 144.533 L2196.7 172.867 Z" fill="#000000" fill-rule="evenodd" fill-opacity="1" /><path clip-path="url(#clip200)" d="M 0 0 M2213.97 166.524 L2221.61 166.524 L2221.61 140.158 L2213.3 141.825 L2213.3 137.566 L2221.56 135.899 L2226.24 135.899 L2226.24 166.524 L2233.87 166.524 L2233.87 170.459 L2213.97 170.459 L2213.97 166.524 Z" fill="#000000" fill-rule="evenodd" fill-opacity="1" /></svg>
