<?xml version="1.0" encoding="utf-8"?>
<svg xmlns="http://www.w3.org/2000/svg" xmlns:xlink="http://www.w3.org/1999/xlink" width="600" height="400" viewBox="0 0 2400 1600">
<defs>
  <clipPath id="clip710">
    <rect x="0" y="0" width="2400" height="1600"/>
  </clipPath>
</defs>
<path clip-path="url(#clip710)" d="
M0 1600 L2400 1600 L2400 0 L0 0  Z
  " fill="#ffffff" fill-rule="evenodd" fill-opacity="1"/>
<defs>
  <clipPath id="clip711">
    <rect x="480" y="0" width="1681" height="1600"/>
  </clipPath>
</defs>
<path clip-path="url(#clip710)" d="
M238.431 1410.9 L2352.76 1410.9 L2352.76 47.2441 L238.431 47.2441  Z
  " fill="#ffffff" fill-rule="evenodd" fill-opacity="1"/>
<defs>
  <clipPath id="clip712">
    <rect x="238" y="47" width="2115" height="1365"/>
  </clipPath>
</defs>
<polyline clip-path="url(#clip712)" style="stroke:#000000; stroke-width:2; stroke-opacity:0.1; fill:none" points="
  298.27,1410.9 298.27,47.2441 
  "/>
<polyline clip-path="url(#clip712)" style="stroke:#000000; stroke-width:2; stroke-opacity:0.1; fill:none" points="
  697.199,1410.9 697.199,47.2441 
  "/>
<polyline clip-path="url(#clip712)" style="stroke:#000000; stroke-width:2; stroke-opacity:0.1; fill:none" points="
  1096.13,1410.9 1096.13,47.2441 
  "/>
<polyline clip-path="url(#clip712)" style="stroke:#000000; stroke-width:2; stroke-opacity:0.1; fill:none" points="
  1495.06,1410.9 1495.06,47.2441 
  "/>
<polyline clip-path="url(#clip712)" style="stroke:#000000; stroke-width:2; stroke-opacity:0.1; fill:none" points="
  1893.99,1410.9 1893.99,47.2441 
  "/>
<polyline clip-path="url(#clip712)" style="stroke:#000000; stroke-width:2; stroke-opacity:0.1; fill:none" points="
  2292.91,1410.9 2292.91,47.2441 
  "/>
<polyline clip-path="url(#clip710)" style="stroke:#000000; stroke-width:4; stroke-opacity:1; fill:none" points="
  238.431,1410.9 2352.76,1410.9 
  "/>
<polyline clip-path="url(#clip710)" style="stroke:#000000; stroke-width:4; stroke-opacity:1; fill:none" points="
  298.27,1410.9 298.27,1394.53 
  "/>
<polyline clip-path="url(#clip710)" style="stroke:#000000; stroke-width:4; stroke-opacity:1; fill:none" points="
  697.199,1410.9 697.199,1394.53 
  "/>
<polyline clip-path="url(#clip710)" style="stroke:#000000; stroke-width:4; stroke-opacity:1; fill:none" points="
  1096.13,1410.9 1096.13,1394.53 
  "/>
<polyline clip-path="url(#clip710)" style="stroke:#000000; stroke-width:4; stroke-opacity:1; fill:none" points="
  1495.06,1410.9 1495.06,1394.53 
  "/>
<polyline clip-path="url(#clip710)" style="stroke:#000000; stroke-width:4; stroke-opacity:1; fill:none" points="
  1893.99,1410.9 1893.99,1394.53 
  "/>
<polyline clip-path="url(#clip710)" style="stroke:#000000; stroke-width:4; stroke-opacity:1; fill:none" points="
  2292.91,1410.9 2292.91,1394.53 
  "/>
<path clip-path="url(#clip710)" d="M 0 0 M252.52 1489.17 L260.159 1489.17 L260.159 1462.8 L251.848 1464.47 L251.848 1460.21 L260.112 1458.54 L264.788 1458.54 L264.788 1489.17 L272.427 1489.17 L272.427 1493.1 L252.52 1493.1 L252.52 1489.17 Z" fill="#000000" fill-rule="evenodd" fill-opacity="1" /><path clip-path="url(#clip710)" d="M 0 0 M287.496 1461.62 Q283.885 1461.62 282.057 1465.19 Q280.251 1468.73 280.251 1475.86 Q280.251 1482.97 282.057 1486.53 Q283.885 1490.07 287.496 1490.07 Q291.131 1490.07 292.936 1486.53 Q294.765 1482.97 294.765 1475.86 Q294.765 1468.73 292.936 1465.19 Q291.131 1461.62 287.496 1461.62 M287.496 1457.92 Q293.307 1457.92 296.362 1462.53 Q299.441 1467.11 299.441 1475.86 Q299.441 1484.59 296.362 1489.19 Q293.307 1493.78 287.496 1493.78 Q281.686 1493.78 278.608 1489.19 Q275.552 1484.59 275.552 1475.86 Q275.552 1467.11 278.608 1462.53 Q281.686 1457.92 287.496 1457.92 Z" fill="#000000" fill-rule="evenodd" fill-opacity="1" /><path clip-path="url(#clip710)" d="M 0 0 M299.441 1452.02 L323.552 1452.02 L323.552 1455.22 L299.441 1455.22 L299.441 1452.02 Z" fill="#000000" fill-rule="evenodd" fill-opacity="1" /><path clip-path="url(#clip710)" d="M 0 0 M327.709 1437.61 L342.623 1437.61 L342.623 1440.81 L331.188 1440.81 L331.188 1447.69 Q332.016 1447.41 332.843 1447.28 Q333.671 1447.13 334.498 1447.13 Q339.2 1447.13 341.946 1449.71 Q344.692 1452.28 344.692 1456.68 Q344.692 1461.22 341.871 1463.74 Q339.05 1466.24 333.915 1466.24 Q332.147 1466.24 330.304 1465.94 Q328.48 1465.64 326.524 1465.04 L326.524 1461.22 Q328.217 1462.14 330.022 1462.59 Q331.828 1463.04 333.84 1463.04 Q337.094 1463.04 338.994 1461.33 Q340.893 1459.62 340.893 1456.68 Q340.893 1453.75 338.994 1452.04 Q337.094 1450.33 333.84 1450.33 Q332.317 1450.33 330.793 1450.67 Q329.289 1451 327.709 1451.72 L327.709 1437.61 Z" fill="#000000" fill-rule="evenodd" fill-opacity="1" /><path clip-path="url(#clip710)" d="M 0 0 M650.847 1489.17 L658.486 1489.17 L658.486 1462.8 L650.175 1464.47 L650.175 1460.21 L658.439 1458.54 L663.115 1458.54 L663.115 1489.17 L670.754 1489.17 L670.754 1493.1 L650.847 1493.1 L650.847 1489.17 Z" fill="#000000" fill-rule="evenodd" fill-opacity="1" /><path clip-path="url(#clip710)" d="M 0 0 M685.823 1461.62 Q682.212 1461.62 680.384 1465.19 Q678.578 1468.73 678.578 1475.86 Q678.578 1482.97 680.384 1486.53 Q682.212 1490.07 685.823 1490.07 Q689.458 1490.07 691.263 1486.53 Q693.092 1482.97 693.092 1475.86 Q693.092 1468.73 691.263 1465.19 Q689.458 1461.62 685.823 1461.62 M685.823 1457.92 Q691.634 1457.92 694.689 1462.53 Q697.768 1467.11 697.768 1475.86 Q697.768 1484.59 694.689 1489.19 Q691.634 1493.78 685.823 1493.78 Q680.013 1493.78 676.935 1489.19 Q673.879 1484.59 673.879 1475.86 Q673.879 1467.11 676.935 1462.53 Q680.013 1457.92 685.823 1457.92 Z" fill="#000000" fill-rule="evenodd" fill-opacity="1" /><path clip-path="url(#clip710)" d="M 0 0 M697.768 1452.02 L721.879 1452.02 L721.879 1455.22 L697.768 1455.22 L697.768 1452.02 Z" fill="#000000" fill-rule="evenodd" fill-opacity="1" /><path clip-path="url(#clip710)" d="M 0 0 M736.437 1440.92 L726.845 1455.91 L736.437 1455.91 L736.437 1440.92 M735.44 1437.61 L740.217 1437.61 L740.217 1455.91 L744.223 1455.91 L744.223 1459.07 L740.217 1459.07 L740.217 1465.69 L736.437 1465.69 L736.437 1459.07 L723.76 1459.07 L723.76 1455.41 L735.44 1437.61 Z" fill="#000000" fill-rule="evenodd" fill-opacity="1" /><path clip-path="url(#clip710)" d="M 0 0 M1050.24 1489.17 L1057.88 1489.17 L1057.88 1462.8 L1049.57 1464.47 L1049.57 1460.21 L1057.83 1458.54 L1062.5 1458.54 L1062.5 1489.17 L1070.14 1489.17 L1070.14 1493.1 L1050.24 1493.1 L1050.24 1489.17 Z" fill="#000000" fill-rule="evenodd" fill-opacity="1" /><path clip-path="url(#clip710)" d="M 0 0 M1085.21 1461.62 Q1081.6 1461.62 1079.77 1465.19 Q1077.97 1468.73 1077.97 1475.86 Q1077.97 1482.97 1079.77 1486.53 Q1081.6 1490.07 1085.21 1490.07 Q1088.85 1490.07 1090.65 1486.53 Q1092.48 1482.97 1092.48 1475.86 Q1092.48 1468.73 1090.65 1465.19 Q1088.85 1461.62 1085.21 1461.62 M1085.21 1457.92 Q1091.02 1457.92 1094.08 1462.53 Q1097.16 1467.11 1097.16 1475.86 Q1097.16 1484.59 1094.08 1489.19 Q1091.02 1493.78 1085.21 1493.78 Q1079.4 1493.78 1076.32 1489.19 Q1073.27 1484.59 1073.27 1475.86 Q1073.27 1467.11 1076.32 1462.53 Q1079.4 1457.92 1085.21 1457.92 Z" fill="#000000" fill-rule="evenodd" fill-opacity="1" /><path clip-path="url(#clip710)" d="M 0 0 M1097.16 1452.02 L1121.27 1452.02 L1121.27 1455.22 L1097.16 1455.22 L1097.16 1452.02 Z" fill="#000000" fill-rule="evenodd" fill-opacity="1" /><path clip-path="url(#clip710)" d="M 0 0 M1136.9 1450.55 Q1139.63 1451.14 1141.15 1452.98 Q1142.69 1454.82 1142.69 1457.53 Q1142.69 1461.69 1139.83 1463.96 Q1136.97 1466.24 1131.71 1466.24 Q1129.94 1466.24 1128.06 1465.88 Q1126.2 1465.54 1124.2 1464.85 L1124.2 1461.18 Q1125.78 1462.1 1127.66 1462.57 Q1129.54 1463.04 1131.59 1463.04 Q1135.17 1463.04 1137.03 1461.63 Q1138.91 1460.22 1138.91 1457.53 Q1138.91 1455.05 1137.16 1453.66 Q1135.43 1452.25 1132.33 1452.25 L1129.06 1452.25 L1129.06 1449.12 L1132.48 1449.12 Q1135.28 1449.12 1136.77 1448.01 Q1138.25 1446.89 1138.25 1444.78 Q1138.25 1442.62 1136.71 1441.47 Q1135.19 1440.3 1132.33 1440.3 Q1130.77 1440.3 1128.98 1440.64 Q1127.19 1440.98 1125.05 1441.69 L1125.05 1438.31 Q1127.21 1437.71 1129.09 1437.41 Q1130.99 1437.11 1132.67 1437.11 Q1136.99 1437.11 1139.51 1439.08 Q1142.03 1441.04 1142.03 1444.38 Q1142.03 1446.72 1140.7 1448.33 Q1139.36 1449.93 1136.9 1450.55 Z" fill="#000000" fill-rule="evenodd" fill-opacity="1" /><path clip-path="url(#clip710)" d="M 0 0 M1449.55 1489.17 L1457.19 1489.17 L1457.19 1462.8 L1448.88 1464.47 L1448.88 1460.21 L1457.14 1458.54 L1461.82 1458.54 L1461.82 1489.17 L1469.46 1489.17 L1469.46 1493.1 L1449.55 1493.1 L1449.55 1489.17 Z" fill="#000000" fill-rule="evenodd" fill-opacity="1" /><path clip-path="url(#clip710)" d="M 0 0 M1484.53 1461.62 Q1480.92 1461.62 1479.09 1465.19 Q1477.28 1468.73 1477.28 1475.86 Q1477.28 1482.97 1479.09 1486.53 Q1480.92 1490.07 1484.53 1490.07 Q1488.16 1490.07 1489.97 1486.53 Q1491.8 1482.97 1491.8 1475.86 Q1491.8 1468.73 1489.97 1465.19 Q1488.16 1461.62 1484.53 1461.62 M1484.53 1457.92 Q1490.34 1457.92 1493.39 1462.53 Q1496.47 1467.11 1496.47 1475.86 Q1496.47 1484.59 1493.39 1489.19 Q1490.34 1493.78 1484.53 1493.78 Q1478.72 1493.78 1475.64 1489.19 Q1472.58 1484.59 1472.58 1475.86 Q1472.58 1467.11 1475.64 1462.53 Q1478.72 1457.92 1484.53 1457.92 Z" fill="#000000" fill-rule="evenodd" fill-opacity="1" /><path clip-path="url(#clip710)" d="M 0 0 M1496.47 1452.02 L1520.58 1452.02 L1520.58 1455.22 L1496.47 1455.22 L1496.47 1452.02 Z" fill="#000000" fill-rule="evenodd" fill-opacity="1" /><path clip-path="url(#clip710)" d="M 0 0 M1527.97 1462.5 L1541.23 1462.5 L1541.23 1465.69 L1523.4 1465.69 L1523.4 1462.5 Q1525.57 1460.26 1529.29 1456.5 Q1533.03 1452.72 1533.99 1451.63 Q1535.82 1449.58 1536.53 1448.16 Q1537.27 1446.74 1537.27 1445.36 Q1537.27 1443.12 1535.69 1441.71 Q1534.13 1440.3 1531.6 1440.3 Q1529.82 1440.3 1527.82 1440.92 Q1525.85 1441.54 1523.59 1442.8 L1523.59 1438.97 Q1525.89 1438.05 1527.88 1437.58 Q1529.87 1437.11 1531.53 1437.11 Q1535.89 1437.11 1538.49 1439.29 Q1541.08 1441.47 1541.08 1445.12 Q1541.08 1446.85 1540.43 1448.41 Q1539.79 1449.95 1538.07 1452.06 Q1537.6 1452.6 1535.08 1455.22 Q1532.56 1457.81 1527.97 1462.5 Z" fill="#000000" fill-rule="evenodd" fill-opacity="1" /><path clip-path="url(#clip710)" d="M 0 0 M1848.33 1489.17 L1855.97 1489.17 L1855.97 1462.8 L1847.66 1464.47 L1847.66 1460.21 L1855.92 1458.54 L1860.6 1458.54 L1860.6 1489.17 L1868.24 1489.17 L1868.24 1493.1 L1848.33 1493.1 L1848.33 1489.17 Z" fill="#000000" fill-rule="evenodd" fill-opacity="1" /><path clip-path="url(#clip710)" d="M 0 0 M1883.31 1461.62 Q1879.69 1461.62 1877.87 1465.19 Q1876.06 1468.73 1876.06 1475.86 Q1876.06 1482.97 1877.87 1486.53 Q1879.69 1490.07 1883.31 1490.07 Q1886.94 1490.07 1888.75 1486.53 Q1890.57 1482.97 1890.57 1475.86 Q1890.57 1468.73 1888.75 1465.19 Q1886.94 1461.62 1883.31 1461.62 M1883.31 1457.92 Q1889.12 1457.92 1892.17 1462.53 Q1895.25 1467.11 1895.25 1475.86 Q1895.25 1484.59 1892.17 1489.19 Q1889.12 1493.78 1883.31 1493.78 Q1877.5 1493.78 1874.42 1489.19 Q1871.36 1484.59 1871.36 1475.86 Q1871.36 1467.11 1874.42 1462.53 Q1877.5 1457.92 1883.31 1457.92 Z" fill="#000000" fill-rule="evenodd" fill-opacity="1" /><path clip-path="url(#clip710)" d="M 0 0 M1895.25 1452.02 L1919.36 1452.02 L1919.36 1455.22 L1895.25 1455.22 L1895.25 1452.02 Z" fill="#000000" fill-rule="evenodd" fill-opacity="1" /><path clip-path="url(#clip710)" d="M 0 0 M1924.14 1462.5 L1930.35 1462.5 L1930.35 1441.07 L1923.59 1442.43 L1923.59 1438.97 L1930.31 1437.61 L1934.11 1437.61 L1934.11 1462.5 L1940.31 1462.5 L1940.31 1465.69 L1924.14 1465.69 L1924.14 1462.5 Z" fill="#000000" fill-rule="evenodd" fill-opacity="1" /><path clip-path="url(#clip710)" d="M 0 0 M2260.09 1489.17 L2267.72 1489.17 L2267.72 1462.8 L2259.41 1464.47 L2259.41 1460.21 L2267.68 1458.54 L2272.35 1458.54 L2272.35 1489.17 L2279.99 1489.17 L2279.99 1493.1 L2260.09 1493.1 L2260.09 1489.17 Z" fill="#000000" fill-rule="evenodd" fill-opacity="1" /><path clip-path="url(#clip710)" d="M 0 0 M2295.06 1461.62 Q2291.45 1461.62 2289.62 1465.19 Q2287.82 1468.73 2287.82 1475.86 Q2287.82 1482.97 2289.62 1486.53 Q2291.45 1490.07 2295.06 1490.07 Q2298.7 1490.07 2300.5 1486.53 Q2302.33 1482.97 2302.33 1475.86 Q2302.33 1468.73 2300.5 1465.19 Q2298.7 1461.62 2295.06 1461.62 M2295.06 1457.92 Q2300.87 1457.92 2303.93 1462.53 Q2307.01 1467.11 2307.01 1475.86 Q2307.01 1484.59 2303.93 1489.19 Q2300.87 1493.78 2295.06 1493.78 Q2289.25 1493.78 2286.17 1489.19 Q2283.12 1484.59 2283.12 1475.86 Q2283.12 1467.11 2286.17 1462.53 Q2289.25 1457.92 2295.06 1457.92 Z" fill="#000000" fill-rule="evenodd" fill-opacity="1" /><path clip-path="url(#clip710)" d="M 0 0 M2316.71 1440.11 Q2313.78 1440.11 2312.29 1443.01 Q2310.82 1445.89 2310.82 1451.68 Q2310.82 1457.46 2312.29 1460.35 Q2313.78 1463.23 2316.71 1463.23 Q2319.66 1463.23 2321.13 1460.35 Q2322.62 1457.46 2322.62 1451.68 Q2322.62 1445.89 2321.13 1443.01 Q2319.66 1440.11 2316.71 1440.11 M2316.71 1437.11 Q2321.43 1437.11 2323.91 1440.85 Q2326.42 1444.57 2326.42 1451.68 Q2326.42 1458.77 2323.91 1462.51 Q2321.43 1466.24 2316.71 1466.24 Q2311.99 1466.24 2309.49 1462.51 Q2307.01 1458.77 2307.01 1451.68 Q2307.01 1444.57 2309.49 1440.85 Q2311.99 1437.11 2316.71 1437.11 Z" fill="#000000" fill-rule="evenodd" fill-opacity="1" /><path clip-path="url(#clip710)" d="M 0 0 M1227.11 1512.66 L1233 1512.66 L1233 1541.91 L1250.48 1526.54 L1257.96 1526.54 L1239.05 1543.22 L1258.75 1562.19 L1251.11 1562.19 L1233 1544.78 L1233 1562.19 L1227.11 1562.19 L1227.11 1512.66 Z" fill="#000000" fill-rule="evenodd" fill-opacity="1" /><path clip-path="url(#clip710)" d="M 0 0 M1291.98 1573.01 L1291.98 1577.56 L1258.12 1577.56 L1258.12 1573.01 L1291.98 1573.01 Z" fill="#000000" fill-rule="evenodd" fill-opacity="1" /><path clip-path="url(#clip710)" d="M 0 0 M1311.94 1530.64 Q1307.23 1530.64 1304.49 1534.34 Q1301.75 1538 1301.75 1544.39 Q1301.75 1550.79 1304.46 1554.48 Q1307.19 1558.14 1311.94 1558.14 Q1316.62 1558.14 1319.35 1554.45 Q1322.09 1550.76 1322.09 1544.39 Q1322.09 1538.06 1319.35 1534.37 Q1316.62 1530.64 1311.94 1530.64 M1311.94 1525.68 Q1319.58 1525.68 1323.94 1530.64 Q1328.3 1535.61 1328.3 1544.39 Q1328.3 1553.15 1323.94 1558.14 Q1319.58 1563.11 1311.94 1563.11 Q1304.27 1563.11 1299.91 1558.14 Q1295.58 1553.15 1295.58 1544.39 Q1295.58 1535.61 1299.91 1530.64 Q1304.27 1525.68 1311.94 1525.68 Z" fill="#000000" fill-rule="evenodd" fill-opacity="1" /><path clip-path="url(#clip710)" d="M 0 0 M1364.07 1540.67 L1364.07 1562.19 L1358.22 1562.19 L1358.22 1540.86 Q1358.22 1535.8 1356.24 1533.29 Q1354.27 1530.77 1350.32 1530.77 Q1345.58 1530.77 1342.84 1533.79 Q1340.11 1536.82 1340.11 1542.04 L1340.11 1562.19 L1334.22 1562.19 L1334.22 1526.54 L1340.11 1526.54 L1340.11 1532.08 Q1342.21 1528.86 1345.04 1527.27 Q1347.9 1525.68 1351.63 1525.68 Q1357.77 1525.68 1360.92 1529.5 Q1364.07 1533.29 1364.07 1540.67 Z" fill="#000000" fill-rule="evenodd" fill-opacity="1" /><polyline clip-path="url(#clip712)" style="stroke:#000000; stroke-width:2; stroke-opacity:0.1; fill:none" points="
  238.431,1321.64 2352.76,1321.64 
  "/>
<polyline clip-path="url(#clip712)" style="stroke:#000000; stroke-width:2; stroke-opacity:0.1; fill:none" points="
  238.431,1000.03 2352.76,1000.03 
  "/>
<polyline clip-path="url(#clip712)" style="stroke:#000000; stroke-width:2; stroke-opacity:0.1; fill:none" points="
  238.431,678.411 2352.76,678.411 
  "/>
<polyline clip-path="url(#clip712)" style="stroke:#000000; stroke-width:2; stroke-opacity:0.1; fill:none" points="
  238.431,356.794 2352.76,356.794 
  "/>
<polyline clip-path="url(#clip710)" style="stroke:#000000; stroke-width:4; stroke-opacity:1; fill:none" points="
  238.431,1410.9 238.431,47.2441 
  "/>
<polyline clip-path="url(#clip710)" style="stroke:#000000; stroke-width:4; stroke-opacity:1; fill:none" points="
  238.431,1321.64 263.803,1321.64 
  "/>
<polyline clip-path="url(#clip710)" style="stroke:#000000; stroke-width:4; stroke-opacity:1; fill:none" points="
  238.431,1000.03 263.803,1000.03 
  "/>
<polyline clip-path="url(#clip710)" style="stroke:#000000; stroke-width:4; stroke-opacity:1; fill:none" points="
  238.431,678.411 263.803,678.411 
  "/>
<polyline clip-path="url(#clip710)" style="stroke:#000000; stroke-width:4; stroke-opacity:1; fill:none" points="
  238.431,356.794 263.803,356.794 
  "/>
<path clip-path="url(#clip710)" d="M 0 0 M131.459 1308.44 L119.654 1326.89 L131.459 1326.89 L131.459 1308.44 M130.232 1304.36 L136.112 1304.36 L136.112 1326.89 L141.042 1326.89 L141.042 1330.77 L136.112 1330.77 L136.112 1338.92 L131.459 1338.92 L131.459 1330.77 L115.857 1330.77 L115.857 1326.26 L130.232 1304.36 Z" fill="#000000" fill-rule="evenodd" fill-opacity="1" /><path clip-path="url(#clip710)" d="M 0 0 M146.112 1333.04 L150.996 1333.04 L150.996 1338.92 L146.112 1338.92 L146.112 1333.04 Z" fill="#000000" fill-rule="evenodd" fill-opacity="1" /><path clip-path="url(#clip710)" d="M 0 0 M160.093 1334.99 L176.413 1334.99 L176.413 1338.92 L154.468 1338.92 L154.468 1334.99 Q157.13 1332.23 161.714 1327.6 Q166.32 1322.95 167.501 1321.61 Q169.746 1319.08 170.626 1317.35 Q171.528 1315.59 171.528 1313.9 Q171.528 1311.15 169.584 1309.41 Q167.663 1307.67 164.561 1307.67 Q162.362 1307.67 159.908 1308.44 Q157.478 1309.2 154.7 1310.75 L154.7 1306.03 Q157.524 1304.9 159.978 1304.32 Q162.431 1303.74 164.468 1303.74 Q169.839 1303.74 173.033 1306.42 Q176.227 1309.11 176.227 1313.6 Q176.227 1315.73 175.417 1317.65 Q174.63 1319.55 172.524 1322.14 Q171.945 1322.81 168.843 1326.03 Q165.741 1329.22 160.093 1334.99 Z" fill="#000000" fill-rule="evenodd" fill-opacity="1" /><path clip-path="url(#clip710)" d="M 0 0 M181.528 1304.36 L199.885 1304.36 L199.885 1308.3 L185.811 1308.3 L185.811 1316.77 Q186.829 1316.42 187.848 1316.26 Q188.866 1316.08 189.885 1316.08 Q195.672 1316.08 199.051 1319.25 Q202.431 1322.42 202.431 1327.83 Q202.431 1333.41 198.959 1336.52 Q195.487 1339.59 189.167 1339.59 Q186.991 1339.59 184.723 1339.22 Q182.477 1338.85 180.07 1338.11 L180.07 1333.41 Q182.153 1334.55 184.376 1335.1 Q186.598 1335.66 189.075 1335.66 Q193.079 1335.66 195.417 1333.55 Q197.755 1331.45 197.755 1327.83 Q197.755 1324.22 195.417 1322.12 Q193.079 1320.01 189.075 1320.01 Q187.2 1320.01 185.325 1320.43 Q183.473 1320.84 181.528 1321.72 L181.528 1304.36 Z" fill="#000000" fill-rule="evenodd" fill-opacity="1" /><path clip-path="url(#clip710)" d="M 0 0 M129.862 986.821 L118.056 1005.27 L129.862 1005.27 L129.862 986.821 M128.635 982.747 L134.515 982.747 L134.515 1005.27 L139.445 1005.27 L139.445 1009.16 L134.515 1009.16 L134.515 1017.31 L129.862 1017.31 L129.862 1009.16 L114.26 1009.16 L114.26 1004.64 L128.635 982.747 Z" fill="#000000" fill-rule="evenodd" fill-opacity="1" /><path clip-path="url(#clip710)" d="M 0 0 M144.515 1011.43 L149.399 1011.43 L149.399 1017.31 L144.515 1017.31 L144.515 1011.43 Z" fill="#000000" fill-rule="evenodd" fill-opacity="1" /><path clip-path="url(#clip710)" d="M 0 0 M154.515 982.747 L172.871 982.747 L172.871 986.682 L158.797 986.682 L158.797 995.154 Q159.815 994.807 160.834 994.645 Q161.852 994.46 162.871 994.46 Q168.658 994.46 172.038 997.631 Q175.417 1000.8 175.417 1006.22 Q175.417 1011.8 171.945 1014.9 Q168.473 1017.98 162.153 1017.98 Q159.978 1017.98 157.709 1017.61 Q155.464 1017.24 153.056 1016.5 L153.056 1011.8 Q155.14 1012.93 157.362 1013.49 Q159.584 1014.04 162.061 1014.04 Q166.065 1014.04 168.403 1011.94 Q170.741 1009.83 170.741 1006.22 Q170.741 1002.61 168.403 1000.5 Q166.065 998.395 162.061 998.395 Q160.186 998.395 158.311 998.811 Q156.459 999.228 154.515 1000.11 L154.515 982.747 Z" fill="#000000" fill-rule="evenodd" fill-opacity="1" /><path clip-path="url(#clip710)" d="M 0 0 M190.487 985.825 Q186.876 985.825 185.047 989.39 Q183.241 992.932 183.241 1000.06 Q183.241 1007.17 185.047 1010.73 Q186.876 1014.27 190.487 1014.27 Q194.121 1014.27 195.926 1010.73 Q197.755 1007.17 197.755 1000.06 Q197.755 992.932 195.926 989.39 Q194.121 985.825 190.487 985.825 M190.487 982.122 Q196.297 982.122 199.352 986.728 Q202.431 991.311 202.431 1000.06 Q202.431 1008.79 199.352 1013.39 Q196.297 1017.98 190.487 1017.98 Q184.676 1017.98 181.598 1013.39 Q178.542 1008.79 178.542 1000.06 Q178.542 991.311 181.598 986.728 Q184.676 982.122 190.487 982.122 Z" fill="#000000" fill-rule="evenodd" fill-opacity="1" /><path clip-path="url(#clip710)" d="M 0 0 M130.765 665.205 L118.959 683.654 L130.765 683.654 L130.765 665.205 M129.538 661.131 L135.417 661.131 L135.417 683.654 L140.348 683.654 L140.348 687.542 L135.417 687.542 L135.417 695.691 L130.765 695.691 L130.765 687.542 L115.163 687.542 L115.163 683.029 L129.538 661.131 Z" fill="#000000" fill-rule="evenodd" fill-opacity="1" /><path clip-path="url(#clip710)" d="M 0 0 M145.417 689.811 L150.302 689.811 L150.302 695.691 L145.417 695.691 L145.417 689.811 Z" fill="#000000" fill-rule="evenodd" fill-opacity="1" /><path clip-path="url(#clip710)" d="M 0 0 M154.19 661.131 L176.413 661.131 L176.413 663.121 L163.866 695.691 L158.982 695.691 L170.788 665.066 L154.19 665.066 L154.19 661.131 Z" fill="#000000" fill-rule="evenodd" fill-opacity="1" /><path clip-path="url(#clip710)" d="M 0 0 M181.528 661.131 L199.885 661.131 L199.885 665.066 L185.811 665.066 L185.811 673.538 Q186.829 673.191 187.848 673.029 Q188.866 672.843 189.885 672.843 Q195.672 672.843 199.051 676.015 Q202.431 679.186 202.431 684.603 Q202.431 690.181 198.959 693.283 Q195.487 696.362 189.167 696.362 Q186.991 696.362 184.723 695.991 Q182.477 695.621 180.07 694.88 L180.07 690.181 Q182.153 691.316 184.376 691.871 Q186.598 692.427 189.075 692.427 Q193.079 692.427 195.417 690.32 Q197.755 688.214 197.755 684.603 Q197.755 680.992 195.417 678.885 Q193.079 676.779 189.075 676.779 Q187.2 676.779 185.325 677.195 Q183.473 677.612 181.528 678.492 L181.528 661.131 Z" fill="#000000" fill-rule="evenodd" fill-opacity="1" /><path clip-path="url(#clip710)" d="M 0 0 M117.547 339.514 L135.904 339.514 L135.904 343.45 L121.83 343.45 L121.83 351.922 Q122.848 351.574 123.867 351.412 Q124.885 351.227 125.904 351.227 Q131.691 351.227 135.07 354.399 Q138.45 357.57 138.45 362.986 Q138.45 368.565 134.978 371.667 Q131.505 374.746 125.186 374.746 Q123.01 374.746 120.742 374.375 Q118.496 374.005 116.089 373.264 L116.089 368.565 Q118.172 369.699 120.394 370.255 Q122.617 370.81 125.093 370.81 Q129.098 370.81 131.436 368.704 Q133.774 366.598 133.774 362.986 Q133.774 359.375 131.436 357.269 Q129.098 355.162 125.093 355.162 Q123.218 355.162 121.343 355.579 Q119.492 355.996 117.547 356.875 L117.547 339.514 Z" fill="#000000" fill-rule="evenodd" fill-opacity="1" /><path clip-path="url(#clip710)" d="M 0 0 M143.519 368.195 L148.403 368.195 L148.403 374.074 L143.519 374.074 L143.519 368.195 Z" fill="#000000" fill-rule="evenodd" fill-opacity="1" /><path clip-path="url(#clip710)" d="M 0 0 M163.473 342.593 Q159.862 342.593 158.033 346.158 Q156.228 349.699 156.228 356.829 Q156.228 363.936 158.033 367.5 Q159.862 371.042 163.473 371.042 Q167.107 371.042 168.913 367.5 Q170.741 363.936 170.741 356.829 Q170.741 349.699 168.913 346.158 Q167.107 342.593 163.473 342.593 M163.473 338.889 Q169.283 338.889 172.339 343.496 Q175.417 348.079 175.417 356.829 Q175.417 365.556 172.339 370.162 Q169.283 374.746 163.473 374.746 Q157.663 374.746 154.584 370.162 Q151.528 365.556 151.528 356.829 Q151.528 348.079 154.584 343.496 Q157.663 338.889 163.473 338.889 Z" fill="#000000" fill-rule="evenodd" fill-opacity="1" /><path clip-path="url(#clip710)" d="M 0 0 M190.487 342.593 Q186.876 342.593 185.047 346.158 Q183.241 349.699 183.241 356.829 Q183.241 363.936 185.047 367.5 Q186.876 371.042 190.487 371.042 Q194.121 371.042 195.926 367.5 Q197.755 363.936 197.755 356.829 Q197.755 349.699 195.926 346.158 Q194.121 342.593 190.487 342.593 M190.487 338.889 Q196.297 338.889 199.352 343.496 Q202.431 348.079 202.431 356.829 Q202.431 365.556 199.352 370.162 Q196.297 374.746 190.487 374.746 Q184.676 374.746 181.598 370.162 Q178.542 365.556 178.542 356.829 Q178.542 348.079 181.598 343.496 Q184.676 338.889 190.487 338.889 Z" fill="#000000" fill-rule="evenodd" fill-opacity="1" /><path clip-path="url(#clip710)" d="M 0 0 M59.1993 815.533 Q55.2526 813.336 53.3747 810.281 Q51.4968 807.225 51.4968 803.088 Q51.4968 797.518 55.4117 794.494 Q59.2948 791.47 66.4881 791.47 L88.0042 791.47 L88.0042 797.358 L66.679 797.358 Q61.5546 797.358 59.072 799.173 Q56.5894 800.987 56.5894 804.711 Q56.5894 809.262 59.6131 811.904 Q62.6368 814.546 67.8567 814.546 L88.0042 814.546 L88.0042 820.434 L66.679 820.434 Q61.5228 820.434 59.072 822.248 Q56.5894 824.063 56.5894 827.85 Q56.5894 832.338 59.6449 834.98 Q62.6686 837.622 67.8567 837.622 L88.0042 837.622 L88.0042 843.51 L52.3562 843.51 L52.3562 837.622 L57.8944 837.622 Q54.616 835.616 53.0564 832.815 Q51.4968 830.015 51.4968 826.163 Q51.4968 822.28 53.4702 819.575 Q55.4436 816.838 59.1993 815.533 Z" fill="#000000" fill-rule="evenodd" fill-opacity="1" /><path clip-path="url(#clip710)" d="M 0 0 M52.3562 785.327 L52.3562 779.471 L88.0042 779.471 L88.0042 785.327 L52.3562 785.327 M38.479 785.327 L38.479 779.471 L45.895 779.471 L45.895 785.327 L38.479 785.327 Z" fill="#000000" fill-rule="evenodd" fill-opacity="1" /><path clip-path="url(#clip710)" d="M 0 0 M66.4881 743.696 L88.0042 743.696 L88.0042 749.552 L66.679 749.552 Q61.6183 749.552 59.1038 751.525 Q56.5894 753.499 56.5894 757.446 Q56.5894 762.188 59.6131 764.925 Q62.6368 767.662 67.8567 767.662 L88.0042 767.662 L88.0042 773.551 L52.3562 773.551 L52.3562 767.662 L57.8944 767.662 Q54.6797 765.562 53.0883 762.729 Q51.4968 759.864 51.4968 756.141 Q51.4968 749.998 55.3163 746.847 Q59.1038 743.696 66.4881 743.696 Z" fill="#000000" fill-rule="evenodd" fill-opacity="1" /><path clip-path="url(#clip710)" d="M 0 0 M98.8259 710.467 L103.377 710.467 L103.377 744.332 L98.8259 744.332 L98.8259 710.467 Z" fill="#000000" fill-rule="evenodd" fill-opacity="1" /><path clip-path="url(#clip710)" d="M 0 0 M57.7671 680.866 L38.479 680.866 L38.479 675.01 L88.0042 675.01 L88.0042 680.866 L82.657 680.866 Q85.8398 682.712 87.3994 685.545 Q88.9272 688.346 88.9272 692.292 Q88.9272 698.754 83.771 702.828 Q78.6147 706.87 70.212 706.87 Q61.8093 706.87 56.6531 702.828 Q51.4968 698.754 51.4968 692.292 Q51.4968 688.346 53.0564 685.545 Q54.5842 682.712 57.7671 680.866 M70.212 700.823 Q76.6732 700.823 80.3653 698.181 Q84.0256 695.507 84.0256 690.86 Q84.0256 686.213 80.3653 683.54 Q76.6732 680.866 70.212 680.866 Q63.7508 680.866 60.0905 683.54 Q56.3984 686.213 56.3984 690.86 Q56.3984 695.507 60.0905 698.181 Q63.7508 700.823 70.212 700.823 Z" fill="#000000" fill-rule="evenodd" fill-opacity="1" /><path clip-path="url(#clip710)" d="M 0 0 M52.3562 668.867 L52.3562 663.01 L88.0042 663.01 L88.0042 668.867 L52.3562 668.867 M38.479 668.867 L38.479 663.01 L45.895 663.01 L45.895 668.867 L38.479 668.867 Z" fill="#000000" fill-rule="evenodd" fill-opacity="1" /><path clip-path="url(#clip710)" d="M 0 0 M38.479 638.821 L43.3487 638.821 L43.3487 644.422 Q43.3487 647.573 44.6219 648.815 Q45.895 650.024 49.2052 650.024 L52.3562 650.024 L52.3562 640.38 L56.9077 640.38 L56.9077 650.024 L88.0042 650.024 L88.0042 655.912 L56.9077 655.912 L56.9077 661.514 L52.3562 661.514 L52.3562 655.912 L49.8736 655.912 Q43.9216 655.912 41.2162 653.143 Q38.479 650.374 38.479 644.359 L38.479 638.821 Z" fill="#000000" fill-rule="evenodd" fill-opacity="1" /><path clip-path="url(#clip710)" d="M 0 0 M38.479 614.631 L43.3487 614.631 L43.3487 620.233 Q43.3487 623.384 44.6219 624.625 Q45.895 625.835 49.2052 625.835 L52.3562 625.835 L52.3562 616.19 L56.9077 616.19 L56.9077 625.835 L88.0042 625.835 L88.0042 631.723 L56.9077 631.723 L56.9077 637.325 L52.3562 637.325 L52.3562 631.723 L49.8736 631.723 Q43.9216 631.723 41.2162 628.954 Q38.479 626.185 38.479 620.169 L38.479 614.631 Z" fill="#000000" fill-rule="evenodd" fill-opacity="1" /><path clip-path="url(#clip710)" d="
M1996.34 213.659 L2282.28 213.659 L2282.28 92.6992 L1996.34 92.6992  Z
  " fill="#ffffff" fill-rule="evenodd" fill-opacity="1"/>
<polyline clip-path="url(#clip710)" style="stroke:#000000; stroke-width:4; stroke-opacity:1; fill:none" points="
  1996.34,213.659 2282.28,213.659 2282.28,92.6992 1996.34,92.6992 1996.34,213.659 
  "/>
<polyline clip-path="url(#clip710)" style="stroke:#009af9; stroke-width:4; stroke-opacity:1; fill:none" stroke-dasharray="16, 10" points="
  2019.83,153.179 2160.78,153.179 
  "/>
<path clip-path="url(#clip710)" d="M 0 0 M2198.12 172.867 Q2196.31 177.496 2194.6 178.908 Q2192.89 180.32 2190.02 180.32 L2186.61 180.32 L2186.61 176.755 L2189.11 176.755 Q2190.87 176.755 2191.84 175.922 Q2192.82 175.089 2194 171.987 L2194.76 170.043 L2184.28 144.533 L2188.79 144.533 L2196.89 164.811 L2204.99 144.533 L2209.51 144.533 L2198.12 172.867 Z" fill="#000000" fill-rule="evenodd" fill-opacity="1" /><path clip-path="url(#clip710)" d="M 0 0 M2215.39 166.524 L2223.02 166.524 L2223.02 140.158 L2214.71 141.825 L2214.71 137.566 L2222.98 135.899 L2227.65 135.899 L2227.65 166.524 L2235.29 166.524 L2235.29 170.459 L2215.39 170.459 L2215.39 166.524 Z" fill="#000000" fill-rule="evenodd" fill-opacity="1" /></svg>
