<?xml version="1.0" encoding="utf-8"?>
<svg xmlns="http://www.w3.org/2000/svg" xmlns:xlink="http://www.w3.org/1999/xlink" width="600" height="400" viewBox="0 0 2400 1600">
<defs>
  <clipPath id="clip630">
    <rect x="0" y="0" width="2400" height="1600"/>
  </clipPath>
</defs>
<path clip-path="url(#clip630)" d="
M0 1600 L2400 1600 L2400 0 L0 0  Z
  " fill="#ffffff" fill-rule="evenodd" fill-opacity="1"/>
<defs>
  <clipPath id="clip631">
    <rect x="480" y="0" width="1681" height="1600"/>
  </clipPath>
</defs>
<path clip-path="url(#clip630)" d="
M232.389 1410.9 L2352.76 1410.9 L2352.76 47.2441 L232.389 47.2441  Z
  " fill="#ffffff" fill-rule="evenodd" fill-opacity="1"/>
<defs>
  <clipPath id="clip632">
    <rect x="232" y="47" width="2121" height="1365"/>
  </clipPath>
</defs>
<polyline clip-path="url(#clip632)" style="stroke:#000000; stroke-linecap:butt; stroke-linejoin:round; stroke-width:2; stroke-opacity:0.1; fill:none" points="
  755.236,1410.9 755.236,47.2441 
  "/>
<polyline clip-path="url(#clip632)" style="stroke:#000000; stroke-linecap:butt; stroke-linejoin:round; stroke-width:2; stroke-opacity:0.1; fill:none" points="
  1523.99,1410.9 1523.99,47.2441 
  "/>
<polyline clip-path="url(#clip632)" style="stroke:#000000; stroke-linecap:butt; stroke-linejoin:round; stroke-width:2; stroke-opacity:0.1; fill:none" points="
  2292.75,1410.9 2292.75,47.2441 
  "/>
<polyline clip-path="url(#clip630)" style="stroke:#000000; stroke-linecap:butt; stroke-linejoin:round; stroke-width:4; stroke-opacity:1; fill:none" points="
  232.389,1410.9 2352.76,1410.9 
  "/>
<polyline clip-path="url(#clip630)" style="stroke:#000000; stroke-linecap:butt; stroke-linejoin:round; stroke-width:4; stroke-opacity:1; fill:none" points="
  755.236,1410.9 755.236,1392 
  "/>
<polyline clip-path="url(#clip630)" style="stroke:#000000; stroke-linecap:butt; stroke-linejoin:round; stroke-width:4; stroke-opacity:1; fill:none" points="
  1523.99,1410.9 1523.99,1392 
  "/>
<polyline clip-path="url(#clip630)" style="stroke:#000000; stroke-linecap:butt; stroke-linejoin:round; stroke-width:4; stroke-opacity:1; fill:none" points="
  2292.75,1410.9 2292.75,1392 
  "/>
<path clip-path="url(#clip630)" d="M701.844 1485.02 L709.483 1485.02 L709.483 1458.66 L701.173 1460.32 L701.173 1456.06 L709.436 1454.4 L714.112 1454.4 L714.112 1485.02 L721.751 1485.02 L721.751 1488.96 L701.844 1488.96 L701.844 1485.02 Z" fill="#000000" fill-rule="evenodd" fill-opacity="1" /><path clip-path="url(#clip630)" d="M741.195 1457.48 Q737.584 1457.48 735.756 1461.04 Q733.95 1464.58 733.95 1471.71 Q733.95 1478.82 735.756 1482.38 Q737.584 1485.92 741.195 1485.92 Q744.83 1485.92 746.635 1482.38 Q748.464 1478.82 748.464 1471.71 Q748.464 1464.58 746.635 1461.04 Q744.83 1457.48 741.195 1457.48 M741.195 1453.77 Q747.006 1453.77 750.061 1458.38 Q753.14 1462.96 753.14 1471.71 Q753.14 1480.44 750.061 1485.04 Q747.006 1489.63 741.195 1489.63 Q735.385 1489.63 732.307 1485.04 Q729.251 1480.44 729.251 1471.71 Q729.251 1462.96 732.307 1458.38 Q735.385 1453.77 741.195 1453.77 Z" fill="#000000" fill-rule="evenodd" fill-opacity="1" /><path clip-path="url(#clip630)" d="M762.845 1435.97 Q759.911 1435.97 758.425 1438.86 Q756.958 1441.74 756.958 1447.53 Q756.958 1453.31 758.425 1456.2 Q759.911 1459.08 762.845 1459.08 Q765.797 1459.08 767.264 1456.2 Q768.75 1453.31 768.75 1447.53 Q768.75 1441.74 767.264 1438.86 Q765.797 1435.97 762.845 1435.97 M762.845 1432.96 Q767.565 1432.96 770.048 1436.7 Q772.549 1440.43 772.549 1447.53 Q772.549 1454.62 770.048 1458.37 Q767.565 1462.09 762.845 1462.09 Q758.124 1462.09 755.622 1458.37 Q753.14 1454.62 753.14 1447.53 Q753.14 1440.43 755.622 1436.7 Q758.124 1432.96 762.845 1432.96 Z" fill="#000000" fill-rule="evenodd" fill-opacity="1" /><path clip-path="url(#clip630)" d="M779.226 1456.77 L783.195 1456.77 L783.195 1461.55 L779.226 1461.55 L779.226 1456.77 Z" fill="#000000" fill-rule="evenodd" fill-opacity="1" /><path clip-path="url(#clip630)" d="M799.595 1435.97 Q796.661 1435.97 795.175 1438.86 Q793.708 1441.74 793.708 1447.53 Q793.708 1453.31 795.175 1456.2 Q796.661 1459.08 799.595 1459.08 Q802.548 1459.08 804.015 1456.2 Q805.501 1453.31 805.501 1447.53 Q805.501 1441.74 804.015 1438.86 Q802.548 1435.97 799.595 1435.97 M799.595 1432.96 Q804.316 1432.96 806.798 1436.7 Q809.3 1440.43 809.3 1447.53 Q809.3 1454.62 806.798 1458.37 Q804.316 1462.09 799.595 1462.09 Q794.874 1462.09 792.373 1458.37 Q789.89 1454.62 789.89 1447.53 Q789.89 1440.43 792.373 1436.7 Q794.874 1432.96 799.595 1432.96 Z" fill="#000000" fill-rule="evenodd" fill-opacity="1" /><path clip-path="url(#clip630)" d="M1471 1485.02 L1478.64 1485.02 L1478.64 1458.66 L1470.33 1460.32 L1470.33 1456.06 L1478.6 1454.4 L1483.27 1454.4 L1483.27 1485.02 L1490.91 1485.02 L1490.91 1488.96 L1471 1488.96 L1471 1485.02 Z" fill="#000000" fill-rule="evenodd" fill-opacity="1" /><path clip-path="url(#clip630)" d="M1510.35 1457.48 Q1506.74 1457.48 1504.91 1461.04 Q1503.11 1464.58 1503.11 1471.71 Q1503.11 1478.82 1504.91 1482.38 Q1506.74 1485.92 1510.35 1485.92 Q1513.99 1485.92 1515.79 1482.38 Q1517.62 1478.82 1517.62 1471.71 Q1517.62 1464.58 1515.79 1461.04 Q1513.99 1457.48 1510.35 1457.48 M1510.35 1453.77 Q1516.16 1453.77 1519.22 1458.38 Q1522.3 1462.96 1522.3 1471.71 Q1522.3 1480.44 1519.22 1485.04 Q1516.16 1489.63 1510.35 1489.63 Q1504.54 1489.63 1501.47 1485.04 Q1498.41 1480.44 1498.41 1471.71 Q1498.41 1462.96 1501.47 1458.38 Q1504.54 1453.77 1510.35 1453.77 Z" fill="#000000" fill-rule="evenodd" fill-opacity="1" /><path clip-path="url(#clip630)" d="M1532 1435.97 Q1529.07 1435.97 1527.58 1438.86 Q1526.12 1441.74 1526.12 1447.53 Q1526.12 1453.31 1527.58 1456.2 Q1529.07 1459.08 1532 1459.08 Q1534.96 1459.08 1536.42 1456.2 Q1537.91 1453.31 1537.91 1447.53 Q1537.91 1441.74 1536.42 1438.86 Q1534.96 1435.97 1532 1435.97 M1532 1432.96 Q1536.72 1432.96 1539.21 1436.7 Q1541.71 1440.43 1541.71 1447.53 Q1541.71 1454.62 1539.21 1458.37 Q1536.72 1462.09 1532 1462.09 Q1527.28 1462.09 1524.78 1458.37 Q1522.3 1454.62 1522.3 1447.53 Q1522.3 1440.43 1524.78 1436.7 Q1527.28 1432.96 1532 1432.96 Z" fill="#000000" fill-rule="evenodd" fill-opacity="1" /><path clip-path="url(#clip630)" d="M1548.39 1456.77 L1552.35 1456.77 L1552.35 1461.55 L1548.39 1461.55 L1548.39 1456.77 Z" fill="#000000" fill-rule="evenodd" fill-opacity="1" /><path clip-path="url(#clip630)" d="M1560.67 1433.47 L1575.58 1433.47 L1575.58 1436.66 L1564.15 1436.66 L1564.15 1443.55 Q1564.97 1443.27 1565.8 1443.13 Q1566.63 1442.98 1567.46 1442.98 Q1572.16 1442.98 1574.9 1445.56 Q1577.65 1448.14 1577.65 1452.54 Q1577.65 1457.07 1574.83 1459.59 Q1572.01 1462.09 1566.87 1462.09 Q1565.11 1462.09 1563.26 1461.79 Q1561.44 1461.49 1559.48 1460.89 L1559.48 1457.07 Q1561.17 1457.99 1562.98 1458.44 Q1564.79 1458.89 1566.8 1458.89 Q1570.05 1458.89 1571.95 1457.18 Q1573.85 1455.47 1573.85 1452.54 Q1573.85 1449.6 1571.95 1447.89 Q1570.05 1446.18 1566.8 1446.18 Q1565.27 1446.18 1563.75 1446.52 Q1562.25 1446.86 1560.67 1447.57 L1560.67 1433.47 Z" fill="#000000" fill-rule="evenodd" fill-opacity="1" /><path clip-path="url(#clip630)" d="M2240.2 1485.02 L2247.84 1485.02 L2247.84 1458.66 L2239.53 1460.32 L2239.53 1456.06 L2247.79 1454.4 L2252.47 1454.4 L2252.47 1485.02 L2260.11 1485.02 L2260.11 1488.96 L2240.2 1488.96 L2240.2 1485.02 Z" fill="#000000" fill-rule="evenodd" fill-opacity="1" /><path clip-path="url(#clip630)" d="M2279.55 1457.48 Q2275.94 1457.48 2274.11 1461.04 Q2272.31 1464.58 2272.31 1471.71 Q2272.31 1478.82 2274.11 1482.38 Q2275.94 1485.92 2279.55 1485.92 Q2283.19 1485.92 2284.99 1482.38 Q2286.82 1478.82 2286.82 1471.71 Q2286.82 1464.58 2284.99 1461.04 Q2283.19 1457.48 2279.55 1457.48 M2279.55 1453.77 Q2285.36 1453.77 2288.42 1458.38 Q2291.5 1462.96 2291.5 1471.71 Q2291.5 1480.44 2288.42 1485.04 Q2285.36 1489.63 2279.55 1489.63 Q2273.74 1489.63 2270.66 1485.04 Q2267.61 1480.44 2267.61 1471.71 Q2267.61 1462.96 2270.66 1458.38 Q2273.74 1453.77 2279.55 1453.77 Z" fill="#000000" fill-rule="evenodd" fill-opacity="1" /><path clip-path="url(#clip630)" d="M2292.04 1458.35 L2298.25 1458.35 L2298.25 1436.93 L2291.5 1438.28 L2291.5 1434.82 L2298.21 1433.47 L2302.01 1433.47 L2302.01 1458.35 L2308.22 1458.35 L2308.22 1461.55 L2292.04 1461.55 L2292.04 1458.35 Z" fill="#000000" fill-rule="evenodd" fill-opacity="1" /><path clip-path="url(#clip630)" d="M2315.89 1456.77 L2319.86 1456.77 L2319.86 1461.55 L2315.89 1461.55 L2315.89 1456.77 Z" fill="#000000" fill-rule="evenodd" fill-opacity="1" /><path clip-path="url(#clip630)" d="M2336.26 1435.97 Q2333.32 1435.97 2331.84 1438.86 Q2330.37 1441.74 2330.37 1447.53 Q2330.37 1453.31 2331.84 1456.2 Q2333.32 1459.08 2336.26 1459.08 Q2339.21 1459.08 2340.68 1456.2 Q2342.16 1453.31 2342.16 1447.53 Q2342.16 1441.74 2340.68 1438.86 Q2339.21 1435.97 2336.26 1435.97 M2336.26 1432.96 Q2340.98 1432.96 2343.46 1436.7 Q2345.96 1440.43 2345.96 1447.53 Q2345.96 1454.62 2343.46 1458.37 Q2340.98 1462.09 2336.26 1462.09 Q2331.54 1462.09 2329.04 1458.37 Q2326.55 1454.62 2326.55 1447.53 Q2326.55 1440.43 2329.04 1436.7 Q2331.54 1432.96 2336.26 1432.96 Z" fill="#000000" fill-rule="evenodd" fill-opacity="1" /><path clip-path="url(#clip630)" d="M1297.78 1557.6 L1296.38 1550.25 Q1294.94 1542.71 1289.28 1542.71 Q1285.01 1542.71 1283.07 1546.21 Q1280.62 1550.6 1280.62 1556.39 Q1280.62 1563.4 1283.01 1566.74 Q1285.43 1570.14 1289.28 1570.14 Q1293.54 1570.14 1295.84 1563.36 L1297.78 1557.6 M1301.05 1547.86 L1304.21 1538.54 L1309.43 1538.54 L1302.9 1557.86 L1304.17 1564.83 Q1304.46 1566.39 1305.57 1567.69 Q1306.88 1569.22 1307.9 1569.22 L1310.7 1569.22 L1310.7 1574.19 L1307.2 1574.19 Q1304.21 1574.19 1301.53 1571.51 Q1300.23 1570.18 1299.69 1567.37 Q1298.22 1570.91 1295.23 1573.68 Q1293.83 1574.98 1289.28 1574.98 Q1281.8 1574.98 1278.17 1570.14 Q1274.45 1565.15 1274.45 1556.39 Q1274.45 1547.04 1278.49 1542.64 Q1282.98 1537.74 1289.28 1537.74 Q1299.18 1537.74 1301.05 1547.86 Z" fill="#000000" fill-rule="evenodd" fill-opacity="1" /><polyline clip-path="url(#clip632)" style="stroke:#000000; stroke-linecap:butt; stroke-linejoin:round; stroke-width:2; stroke-opacity:0.1; fill:none" points="
  232.389,1145.17 2352.76,1145.17 
  "/>
<polyline clip-path="url(#clip632)" style="stroke:#000000; stroke-linecap:butt; stroke-linejoin:round; stroke-width:2; stroke-opacity:0.1; fill:none" points="
  232.389,865.128 2352.76,865.128 
  "/>
<polyline clip-path="url(#clip632)" style="stroke:#000000; stroke-linecap:butt; stroke-linejoin:round; stroke-width:2; stroke-opacity:0.1; fill:none" points="
  232.389,585.081 2352.76,585.081 
  "/>
<polyline clip-path="url(#clip632)" style="stroke:#000000; stroke-linecap:butt; stroke-linejoin:round; stroke-width:2; stroke-opacity:0.1; fill:none" points="
  232.389,305.035 2352.76,305.035 
  "/>
<polyline clip-path="url(#clip630)" style="stroke:#000000; stroke-linecap:butt; stroke-linejoin:round; stroke-width:4; stroke-opacity:1; fill:none" points="
  232.389,1410.9 232.389,47.2441 
  "/>
<polyline clip-path="url(#clip630)" style="stroke:#000000; stroke-linecap:butt; stroke-linejoin:round; stroke-width:4; stroke-opacity:1; fill:none" points="
  232.389,1145.17 251.287,1145.17 
  "/>
<polyline clip-path="url(#clip630)" style="stroke:#000000; stroke-linecap:butt; stroke-linejoin:round; stroke-width:4; stroke-opacity:1; fill:none" points="
  232.389,865.128 251.287,865.128 
  "/>
<polyline clip-path="url(#clip630)" style="stroke:#000000; stroke-linecap:butt; stroke-linejoin:round; stroke-width:4; stroke-opacity:1; fill:none" points="
  232.389,585.081 251.287,585.081 
  "/>
<polyline clip-path="url(#clip630)" style="stroke:#000000; stroke-linecap:butt; stroke-linejoin:round; stroke-width:4; stroke-opacity:1; fill:none" points="
  232.389,305.035 251.287,305.035 
  "/>
<path clip-path="url(#clip630)" d="M149.306 1158.52 L165.626 1158.52 L165.626 1162.45 L143.681 1162.45 L143.681 1158.52 Q146.343 1155.77 150.927 1151.14 Q155.533 1146.48 156.714 1145.14 Q158.959 1142.62 159.839 1140.88 Q160.741 1139.12 160.741 1137.43 Q160.741 1134.68 158.797 1132.94 Q156.876 1131.21 153.774 1131.21 Q151.575 1131.21 149.121 1131.97 Q146.691 1132.73 143.913 1134.28 L143.913 1129.56 Q146.737 1128.43 149.191 1127.85 Q151.644 1127.27 153.681 1127.27 Q159.052 1127.27 162.246 1129.96 Q165.44 1132.64 165.44 1137.13 Q165.44 1139.26 164.63 1141.18 Q163.843 1143.08 161.737 1145.67 Q161.158 1146.34 158.056 1149.56 Q154.954 1152.76 149.306 1158.52 Z" fill="#000000" fill-rule="evenodd" fill-opacity="1" /><path clip-path="url(#clip630)" d="M175.487 1127.89 L193.843 1127.89 L193.843 1131.83 L179.769 1131.83 L179.769 1140.3 Q180.788 1139.96 181.806 1139.79 Q182.825 1139.61 183.843 1139.61 Q189.63 1139.61 193.01 1142.78 Q196.389 1145.95 196.389 1151.37 Q196.389 1156.95 192.917 1160.05 Q189.445 1163.13 183.126 1163.13 Q180.95 1163.13 178.681 1162.76 Q176.436 1162.39 174.028 1161.64 L174.028 1156.95 Q176.112 1158.08 178.334 1158.64 Q180.556 1159.19 183.033 1159.19 Q187.038 1159.19 189.375 1157.08 Q191.713 1154.98 191.713 1151.37 Q191.713 1147.76 189.375 1145.65 Q187.038 1143.54 183.033 1143.54 Q181.158 1143.54 179.283 1143.96 Q177.431 1144.38 175.487 1145.26 L175.487 1127.89 Z" fill="#000000" fill-rule="evenodd" fill-opacity="1" /><path clip-path="url(#clip630)" d="M144.329 847.848 L162.686 847.848 L162.686 851.783 L148.612 851.783 L148.612 860.256 Q149.63 859.908 150.649 859.746 Q151.667 859.561 152.686 859.561 Q158.473 859.561 161.852 862.732 Q165.232 865.904 165.232 871.32 Q165.232 876.899 161.76 880.001 Q158.288 883.079 151.968 883.079 Q149.792 883.079 147.524 882.709 Q145.279 882.339 142.871 881.598 L142.871 876.899 Q144.954 878.033 147.177 878.589 Q149.399 879.144 151.876 879.144 Q155.88 879.144 158.218 877.038 Q160.556 874.931 160.556 871.32 Q160.556 867.709 158.218 865.603 Q155.88 863.496 151.876 863.496 Q150.001 863.496 148.126 863.913 Q146.274 864.33 144.329 865.209 L144.329 847.848 Z" fill="#000000" fill-rule="evenodd" fill-opacity="1" /><path clip-path="url(#clip630)" d="M184.445 850.927 Q180.834 850.927 179.005 854.492 Q177.2 858.033 177.2 865.163 Q177.2 872.269 179.005 875.834 Q180.834 879.376 184.445 879.376 Q188.079 879.376 189.885 875.834 Q191.713 872.269 191.713 865.163 Q191.713 858.033 189.885 854.492 Q188.079 850.927 184.445 850.927 M184.445 847.223 Q190.255 847.223 193.311 851.83 Q196.389 856.413 196.389 865.163 Q196.389 873.89 193.311 878.496 Q190.255 883.079 184.445 883.079 Q178.635 883.079 175.556 878.496 Q172.501 873.89 172.501 865.163 Q172.501 856.413 175.556 851.83 Q178.635 847.223 184.445 847.223 Z" fill="#000000" fill-rule="evenodd" fill-opacity="1" /><path clip-path="url(#clip630)" d="M144.098 567.801 L166.32 567.801 L166.32 569.792 L153.774 602.361 L148.89 602.361 L160.695 571.737 L144.098 571.737 L144.098 567.801 Z" fill="#000000" fill-rule="evenodd" fill-opacity="1" /><path clip-path="url(#clip630)" d="M175.487 567.801 L193.843 567.801 L193.843 571.737 L179.769 571.737 L179.769 580.209 Q180.788 579.862 181.806 579.7 Q182.825 579.514 183.843 579.514 Q189.63 579.514 193.01 582.686 Q196.389 585.857 196.389 591.274 Q196.389 596.852 192.917 599.954 Q189.445 603.033 183.126 603.033 Q180.95 603.033 178.681 602.662 Q176.436 602.292 174.028 601.551 L174.028 596.852 Q176.112 597.986 178.334 598.542 Q180.556 599.098 183.033 599.098 Q187.038 599.098 189.375 596.991 Q191.713 594.885 191.713 591.274 Q191.713 587.662 189.375 585.556 Q187.038 583.45 183.033 583.45 Q181.158 583.45 179.283 583.866 Q177.431 584.283 175.487 585.162 L175.487 567.801 Z" fill="#000000" fill-rule="evenodd" fill-opacity="1" /><path clip-path="url(#clip630)" d="M114.931 318.38 L122.57 318.38 L122.57 292.014 L114.26 293.681 L114.26 289.421 L122.524 287.755 L127.2 287.755 L127.2 318.38 L134.839 318.38 L134.839 322.315 L114.931 322.315 L114.931 318.38 Z" fill="#000000" fill-rule="evenodd" fill-opacity="1" /><path clip-path="url(#clip630)" d="M154.283 290.833 Q150.672 290.833 148.843 294.398 Q147.038 297.94 147.038 305.069 Q147.038 312.176 148.843 315.741 Q150.672 319.282 154.283 319.282 Q157.917 319.282 159.723 315.741 Q161.552 312.176 161.552 305.069 Q161.552 297.94 159.723 294.398 Q157.917 290.833 154.283 290.833 M154.283 287.13 Q160.093 287.13 163.149 291.736 Q166.227 296.32 166.227 305.069 Q166.227 313.796 163.149 318.403 Q160.093 322.986 154.283 322.986 Q148.473 322.986 145.394 318.403 Q142.339 313.796 142.339 305.069 Q142.339 296.32 145.394 291.736 Q148.473 287.13 154.283 287.13 Z" fill="#000000" fill-rule="evenodd" fill-opacity="1" /><path clip-path="url(#clip630)" d="M184.445 290.833 Q180.834 290.833 179.005 294.398 Q177.2 297.94 177.2 305.069 Q177.2 312.176 179.005 315.741 Q180.834 319.282 184.445 319.282 Q188.079 319.282 189.885 315.741 Q191.713 312.176 191.713 305.069 Q191.713 297.94 189.885 294.398 Q188.079 290.833 184.445 290.833 M184.445 287.13 Q190.255 287.13 193.311 291.736 Q196.389 296.32 196.389 305.069 Q196.389 313.796 193.311 318.403 Q190.255 322.986 184.445 322.986 Q178.635 322.986 175.556 318.403 Q172.501 313.796 172.501 305.069 Q172.501 296.32 175.556 291.736 Q178.635 287.13 184.445 287.13 Z" fill="#000000" fill-rule="evenodd" fill-opacity="1" /><path clip-path="url(#clip630)" d="M35.1993 829.203 Q31.2526 827.007 29.3747 823.951 Q27.4968 820.896 27.4968 816.758 Q27.4968 811.188 31.4117 808.164 Q35.2948 805.141 42.4881 805.141 L64.0042 805.141 L64.0042 811.029 L42.679 811.029 Q37.5546 811.029 35.072 812.843 Q32.5894 814.657 32.5894 818.381 Q32.5894 822.933 35.6131 825.574 Q38.6368 828.216 43.8567 828.216 L64.0042 828.216 L64.0042 834.105 L42.679 834.105 Q37.5228 834.105 35.072 835.919 Q32.5894 837.733 32.5894 841.521 Q32.5894 846.008 35.6449 848.65 Q38.6686 851.292 43.8567 851.292 L64.0042 851.292 L64.0042 857.18 L28.3562 857.18 L28.3562 851.292 L33.8944 851.292 Q30.616 849.287 29.0564 846.486 Q27.4968 843.685 27.4968 839.834 Q27.4968 835.951 29.4702 833.245 Q31.4436 830.508 35.1993 829.203 Z" fill="#000000" fill-rule="evenodd" fill-opacity="1" /><path clip-path="url(#clip630)" d="M28.3562 793.459 L28.3562 787.603 L64.0042 787.603 L64.0042 793.459 L28.3562 793.459 M14.479 793.459 L14.479 787.603 L21.895 787.603 L21.895 793.459 L14.479 793.459 Z" fill="#000000" fill-rule="evenodd" fill-opacity="1" /><path clip-path="url(#clip630)" d="M42.4881 745.717 L64.0042 745.717 L64.0042 751.573 L42.679 751.573 Q37.6183 751.573 35.1038 753.547 Q32.5894 755.52 32.5894 759.467 Q32.5894 764.209 35.6131 766.946 Q38.6368 769.684 43.8567 769.684 L64.0042 769.684 L64.0042 775.572 L28.3562 775.572 L28.3562 769.684 L33.8944 769.684 Q30.6797 767.583 29.0883 764.75 Q27.4968 761.886 27.4968 758.162 Q27.4968 752.019 31.3163 748.868 Q35.1038 745.717 42.4881 745.717 Z" fill="#000000" fill-rule="evenodd" fill-opacity="1" /><path clip-path="url(#clip630)" d="M74.8259 706.95 L79.3773 706.95 L79.3773 740.815 L74.8259 740.815 L74.8259 706.95 Z" fill="#000000" fill-rule="evenodd" fill-opacity="1" /><path clip-path="url(#clip630)" d="M33.7671 677.986 L14.479 677.986 L14.479 672.129 L64.0042 672.129 L64.0042 677.986 L58.657 677.986 Q61.8398 679.832 63.3994 682.664 Q64.9272 685.465 64.9272 689.412 Q64.9272 695.873 59.771 699.947 Q54.6147 703.989 46.212 703.989 Q37.8093 703.989 32.6531 699.947 Q27.4968 695.873 27.4968 689.412 Q27.4968 685.465 29.0564 682.664 Q30.5842 679.832 33.7671 677.986 M46.212 697.942 Q52.6732 697.942 56.3653 695.3 Q60.0256 692.627 60.0256 687.98 Q60.0256 683.333 56.3653 680.659 Q52.6732 677.986 46.212 677.986 Q39.7508 677.986 36.0905 680.659 Q32.3984 683.333 32.3984 687.98 Q32.3984 692.627 36.0905 695.3 Q39.7508 697.942 46.212 697.942 Z" fill="#000000" fill-rule="evenodd" fill-opacity="1" /><path clip-path="url(#clip630)" d="M28.3562 660.066 L28.3562 654.21 L64.0042 654.21 L64.0042 660.066 L28.3562 660.066 M14.479 660.066 L14.479 654.21 L21.895 654.21 L21.895 660.066 L14.479 660.066 Z" fill="#000000" fill-rule="evenodd" fill-opacity="1" /><path clip-path="url(#clip630)" d="M14.479 623.909 L19.3487 623.909 L19.3487 629.511 Q19.3487 632.662 20.6219 633.903 Q21.895 635.113 25.2052 635.113 L28.3562 635.113 L28.3562 625.468 L32.9077 625.468 L32.9077 635.113 L64.0042 635.113 L64.0042 641.001 L32.9077 641.001 L32.9077 646.603 L28.3562 646.603 L28.3562 641.001 L25.8736 641.001 Q19.9216 641.001 17.2162 638.232 Q14.479 635.463 14.479 629.447 L14.479 623.909 Z" fill="#000000" fill-rule="evenodd" fill-opacity="1" /><path clip-path="url(#clip630)" d="M14.479 600.961 L19.3487 600.961 L19.3487 606.562 Q19.3487 609.713 20.6219 610.955 Q21.895 612.164 25.2052 612.164 L28.3562 612.164 L28.3562 602.52 L32.9077 602.52 L32.9077 612.164 L64.0042 612.164 L64.0042 618.052 L32.9077 618.052 L32.9077 623.654 L28.3562 623.654 L28.3562 618.052 L25.8736 618.052 Q19.9216 618.052 17.2162 615.283 Q14.479 612.514 14.479 606.499 L14.479 600.961 Z" fill="#000000" fill-rule="evenodd" fill-opacity="1" /><polyline clip-path="url(#clip632)" style="stroke:#009af9; stroke-linecap:butt; stroke-linejoin:round; stroke-width:20; stroke-opacity:1; fill:none" stroke-dasharray="80, 50" points="
  292.4,85.838 755.236,1356.16 1025.98,1372.3 1218.07,1372.29 1367.07,1362.86 1488.81,1333 1591.75,1308.89 1680.91,1292.31 1759.56,1275.33 1829.91,1257.05 
  1893.55,1236.95 1951.65,1223.46 2005.1,1206.69 2054.58,1188.13 2100.65,1170.38 2143.75,1159.73 2184.23,1148.28 2222.39,1136.41 2258.5,1124.4 2292.75,1112.42 
  
  "/>
<path clip-path="url(#clip630)" d="
M1994.05 196.379 L2282.08 196.379 L2282.08 92.6992 L1994.05 92.6992  Z
  " fill="#ffffff" fill-rule="evenodd" fill-opacity="1"/>
<polyline clip-path="url(#clip630)" style="stroke:#000000; stroke-linecap:butt; stroke-linejoin:round; stroke-width:4; stroke-opacity:1; fill:none" points="
  1994.05,196.379 2282.08,196.379 2282.08,92.6992 1994.05,92.6992 1994.05,196.379 
  "/>
<polyline clip-path="url(#clip630)" style="stroke:#009af9; stroke-linecap:butt; stroke-linejoin:round; stroke-width:4; stroke-opacity:1; fill:none" stroke-dasharray="16, 10" points="
  2017.61,144.539 2158.97,144.539 
  "/>
<path clip-path="url(#clip630)" d="M2196.37 164.227 Q2194.56 168.856 2192.85 170.268 Q2191.14 171.68 2188.27 171.68 L2184.87 171.68 L2184.87 168.115 L2187.37 168.115 Q2189.12 168.115 2190.1 167.282 Q2191.07 166.449 2192.25 163.347 L2193.01 161.403 L2182.53 135.893 L2187.04 135.893 L2195.14 156.171 L2203.24 135.893 L2207.76 135.893 L2196.37 164.227 Z" fill="#000000" fill-rule="evenodd" fill-opacity="1" /><path clip-path="url(#clip630)" d="M2215.05 157.884 L2222.69 157.884 L2222.69 131.518 L2214.38 133.185 L2214.38 128.926 L2222.64 127.259 L2227.32 127.259 L2227.32 157.884 L2234.96 157.884 L2234.96 161.819 L2215.05 161.819 L2215.05 157.884 Z" fill="#000000" fill-rule="evenodd" fill-opacity="1" /></svg>
