<?xml version="1.0" encoding="utf-8"?>
<svg xmlns="http://www.w3.org/2000/svg" xmlns:xlink="http://www.w3.org/1999/xlink" width="600" height="400" viewBox="0 0 2400 1600">
<defs>
  <clipPath id="clip450">
    <rect x="0" y="0" width="2400" height="1600"/>
  </clipPath>
</defs>
<path clip-path="url(#clip450)" d="
M0 1600 L2400 1600 L2400 0 L0 0  Z
  " fill="#ffffff" fill-rule="evenodd" fill-opacity="1"/>
<defs>
  <clipPath id="clip451">
    <rect x="480" y="0" width="1681" height="1600"/>
  </clipPath>
</defs>
<path clip-path="url(#clip450)" d="
M238.431 1410.9 L2352.76 1410.9 L2352.76 47.2441 L238.431 47.2441  Z
  " fill="#ffffff" fill-rule="evenodd" fill-opacity="1"/>
<defs>
  <clipPath id="clip452">
    <rect x="238" y="47" width="2115" height="1365"/>
  </clipPath>
</defs>
<polyline clip-path="url(#clip452)" style="stroke:#000000; stroke-width:2; stroke-opacity:0.1; fill:none" points="
  298.27,1410.9 298.27,47.2441 
  "/>
<polyline clip-path="url(#clip452)" style="stroke:#000000; stroke-width:2; stroke-opacity:0.1; fill:none" points="
  796.926,1410.9 796.926,47.2441 
  "/>
<polyline clip-path="url(#clip452)" style="stroke:#000000; stroke-width:2; stroke-opacity:0.1; fill:none" points="
  1295.58,1410.9 1295.58,47.2441 
  "/>
<polyline clip-path="url(#clip452)" style="stroke:#000000; stroke-width:2; stroke-opacity:0.1; fill:none" points="
  1794.24,1410.9 1794.24,47.2441 
  "/>
<polyline clip-path="url(#clip452)" style="stroke:#000000; stroke-width:2; stroke-opacity:0.1; fill:none" points="
  2292.89,1410.9 2292.89,47.2441 
  "/>
<polyline clip-path="url(#clip450)" style="stroke:#000000; stroke-width:4; stroke-opacity:1; fill:none" points="
  238.431,1410.9 2352.76,1410.9 
  "/>
<polyline clip-path="url(#clip450)" style="stroke:#000000; stroke-width:4; stroke-opacity:1; fill:none" points="
  298.27,1410.9 298.27,1394.53 
  "/>
<polyline clip-path="url(#clip450)" style="stroke:#000000; stroke-width:4; stroke-opacity:1; fill:none" points="
  796.926,1410.9 796.926,1394.53 
  "/>
<polyline clip-path="url(#clip450)" style="stroke:#000000; stroke-width:4; stroke-opacity:1; fill:none" points="
  1295.58,1410.9 1295.58,1394.53 
  "/>
<polyline clip-path="url(#clip450)" style="stroke:#000000; stroke-width:4; stroke-opacity:1; fill:none" points="
  1794.24,1410.9 1794.24,1394.53 
  "/>
<polyline clip-path="url(#clip450)" style="stroke:#000000; stroke-width:4; stroke-opacity:1; fill:none" points="
  2292.89,1410.9 2292.89,1394.53 
  "/>
<path clip-path="url(#clip450)" d="M 0 0 M251.918 1489.17 L259.557 1489.17 L259.557 1462.8 L251.247 1464.47 L251.247 1460.21 L259.51 1458.54 L264.186 1458.54 L264.186 1489.17 L271.825 1489.17 L271.825 1493.1 L251.918 1493.1 L251.918 1489.17 Z" fill="#000000" fill-rule="evenodd" fill-opacity="1" /><path clip-path="url(#clip450)" d="M 0 0 M286.895 1461.62 Q283.283 1461.62 281.455 1465.19 Q279.649 1468.73 279.649 1475.86 Q279.649 1482.97 281.455 1486.53 Q283.283 1490.07 286.895 1490.07 Q290.529 1490.07 292.334 1486.53 Q294.163 1482.97 294.163 1475.86 Q294.163 1468.73 292.334 1465.19 Q290.529 1461.62 286.895 1461.62 M286.895 1457.92 Q292.705 1457.92 295.76 1462.53 Q298.839 1467.11 298.839 1475.86 Q298.839 1484.59 295.76 1489.19 Q292.705 1493.78 286.895 1493.78 Q281.084 1493.78 278.006 1489.19 Q274.95 1484.59 274.95 1475.86 Q274.95 1467.11 278.006 1462.53 Q281.084 1457.92 286.895 1457.92 Z" fill="#000000" fill-rule="evenodd" fill-opacity="1" /><path clip-path="url(#clip450)" d="M 0 0 M298.839 1452.02 L322.95 1452.02 L322.95 1455.22 L298.839 1455.22 L298.839 1452.02 Z" fill="#000000" fill-rule="evenodd" fill-opacity="1" /><path clip-path="url(#clip450)" d="M 0 0 M337.508 1440.92 L327.916 1455.91 L337.508 1455.91 L337.508 1440.92 M336.511 1437.61 L341.288 1437.61 L341.288 1455.91 L345.294 1455.91 L345.294 1459.07 L341.288 1459.07 L341.288 1465.69 L337.508 1465.69 L337.508 1459.07 L324.831 1459.07 L324.831 1455.41 L336.511 1437.61 Z" fill="#000000" fill-rule="evenodd" fill-opacity="1" /><path clip-path="url(#clip450)" d="M 0 0 M751.035 1489.17 L758.674 1489.17 L758.674 1462.8 L750.364 1464.47 L750.364 1460.21 L758.627 1458.54 L763.303 1458.54 L763.303 1489.17 L770.942 1489.17 L770.942 1493.1 L751.035 1493.1 L751.035 1489.17 Z" fill="#000000" fill-rule="evenodd" fill-opacity="1" /><path clip-path="url(#clip450)" d="M 0 0 M786.011 1461.62 Q782.4 1461.62 780.572 1465.19 Q778.766 1468.73 778.766 1475.86 Q778.766 1482.97 780.572 1486.53 Q782.4 1490.07 786.011 1490.07 Q789.646 1490.07 791.451 1486.53 Q793.28 1482.97 793.28 1475.86 Q793.28 1468.73 791.451 1465.19 Q789.646 1461.62 786.011 1461.62 M786.011 1457.92 Q791.822 1457.92 794.877 1462.53 Q797.956 1467.11 797.956 1475.86 Q797.956 1484.59 794.877 1489.19 Q791.822 1493.78 786.011 1493.78 Q780.201 1493.78 777.123 1489.19 Q774.067 1484.59 774.067 1475.86 Q774.067 1467.11 777.123 1462.53 Q780.201 1457.92 786.011 1457.92 Z" fill="#000000" fill-rule="evenodd" fill-opacity="1" /><path clip-path="url(#clip450)" d="M 0 0 M797.956 1452.02 L822.067 1452.02 L822.067 1455.22 L797.956 1455.22 L797.956 1452.02 Z" fill="#000000" fill-rule="evenodd" fill-opacity="1" /><path clip-path="url(#clip450)" d="M 0 0 M837.697 1450.55 Q840.424 1451.14 841.947 1452.98 Q843.489 1454.82 843.489 1457.53 Q843.489 1461.69 840.631 1463.96 Q837.772 1466.24 832.506 1466.24 Q830.738 1466.24 828.857 1465.88 Q826.995 1465.54 825.001 1464.85 L825.001 1461.18 Q826.581 1462.1 828.462 1462.57 Q830.343 1463.04 832.393 1463.04 Q835.966 1463.04 837.828 1461.63 Q839.709 1460.22 839.709 1457.53 Q839.709 1455.05 837.96 1453.66 Q836.23 1452.25 833.126 1452.25 L829.854 1452.25 L829.854 1449.12 L833.277 1449.12 Q836.079 1449.12 837.565 1448.01 Q839.051 1446.89 839.051 1444.78 Q839.051 1442.62 837.509 1441.47 Q835.985 1440.3 833.126 1440.3 Q831.565 1440.3 829.779 1440.64 Q827.992 1440.98 825.848 1441.69 L825.848 1438.31 Q828.011 1437.71 829.891 1437.41 Q831.791 1437.11 833.465 1437.11 Q837.791 1437.11 840.311 1439.08 Q842.831 1441.04 842.831 1444.38 Q842.831 1446.72 841.496 1448.33 Q840.16 1449.93 837.697 1450.55 Z" fill="#000000" fill-rule="evenodd" fill-opacity="1" /><path clip-path="url(#clip450)" d="M 0 0 M1250.08 1489.17 L1257.72 1489.17 L1257.72 1462.8 L1249.41 1464.47 L1249.41 1460.21 L1257.67 1458.54 L1262.34 1458.54 L1262.34 1489.17 L1269.98 1489.17 L1269.98 1493.1 L1250.08 1493.1 L1250.08 1489.17 Z" fill="#000000" fill-rule="evenodd" fill-opacity="1" /><path clip-path="url(#clip450)" d="M 0 0 M1285.05 1461.62 Q1281.44 1461.62 1279.61 1465.19 Q1277.81 1468.73 1277.81 1475.86 Q1277.81 1482.97 1279.61 1486.53 Q1281.44 1490.07 1285.05 1490.07 Q1288.69 1490.07 1290.49 1486.53 Q1292.32 1482.97 1292.32 1475.86 Q1292.32 1468.73 1290.49 1465.19 Q1288.69 1461.62 1285.05 1461.62 M1285.05 1457.92 Q1290.86 1457.92 1293.92 1462.53 Q1297 1467.11 1297 1475.86 Q1297 1484.59 1293.92 1489.19 Q1290.86 1493.78 1285.05 1493.78 Q1279.24 1493.78 1276.16 1489.19 Q1273.11 1484.59 1273.11 1475.86 Q1273.11 1467.11 1276.16 1462.53 Q1279.24 1457.92 1285.05 1457.92 Z" fill="#000000" fill-rule="evenodd" fill-opacity="1" /><path clip-path="url(#clip450)" d="M 0 0 M1297 1452.02 L1321.11 1452.02 L1321.11 1455.22 L1297 1455.22 L1297 1452.02 Z" fill="#000000" fill-rule="evenodd" fill-opacity="1" /><path clip-path="url(#clip450)" d="M 0 0 M1328.5 1462.5 L1341.76 1462.5 L1341.76 1465.69 L1323.93 1465.69 L1323.93 1462.5 Q1326.09 1460.26 1329.82 1456.5 Q1333.56 1452.72 1334.52 1451.63 Q1336.34 1449.58 1337.06 1448.16 Q1337.79 1446.74 1337.79 1445.36 Q1337.79 1443.12 1336.21 1441.71 Q1334.65 1440.3 1332.13 1440.3 Q1330.34 1440.3 1328.35 1440.92 Q1326.38 1441.54 1324.12 1442.8 L1324.12 1438.97 Q1326.41 1438.05 1328.41 1437.58 Q1330.4 1437.11 1332.06 1437.11 Q1336.42 1437.11 1339.01 1439.29 Q1341.61 1441.47 1341.61 1445.12 Q1341.61 1446.85 1340.95 1448.41 Q1340.31 1449.95 1338.6 1452.06 Q1338.13 1452.6 1335.61 1455.22 Q1333.09 1457.81 1328.5 1462.5 Z" fill="#000000" fill-rule="evenodd" fill-opacity="1" /><path clip-path="url(#clip450)" d="M 0 0 M1748.58 1489.17 L1756.22 1489.17 L1756.22 1462.8 L1747.91 1464.47 L1747.91 1460.21 L1756.17 1458.54 L1760.85 1458.54 L1760.85 1489.17 L1768.49 1489.17 L1768.49 1493.1 L1748.58 1493.1 L1748.58 1489.17 Z" fill="#000000" fill-rule="evenodd" fill-opacity="1" /><path clip-path="url(#clip450)" d="M 0 0 M1783.56 1461.62 Q1779.95 1461.62 1778.12 1465.19 Q1776.31 1468.73 1776.31 1475.86 Q1776.31 1482.97 1778.12 1486.53 Q1779.95 1490.07 1783.56 1490.07 Q1787.19 1490.07 1789 1486.53 Q1790.83 1482.97 1790.83 1475.86 Q1790.83 1468.73 1789 1465.19 Q1787.19 1461.62 1783.56 1461.62 M1783.56 1457.92 Q1789.37 1457.92 1792.42 1462.53 Q1795.5 1467.11 1795.5 1475.86 Q1795.5 1484.59 1792.42 1489.19 Q1789.37 1493.78 1783.56 1493.78 Q1777.75 1493.78 1774.67 1489.19 Q1771.61 1484.59 1771.61 1475.86 Q1771.61 1467.11 1774.67 1462.53 Q1777.75 1457.92 1783.56 1457.92 Z" fill="#000000" fill-rule="evenodd" fill-opacity="1" /><path clip-path="url(#clip450)" d="M 0 0 M1795.5 1452.02 L1819.61 1452.02 L1819.61 1455.22 L1795.5 1455.22 L1795.5 1452.02 Z" fill="#000000" fill-rule="evenodd" fill-opacity="1" /><path clip-path="url(#clip450)" d="M 0 0 M1824.39 1462.5 L1830.6 1462.5 L1830.6 1441.07 L1823.85 1442.43 L1823.85 1438.97 L1830.56 1437.61 L1834.36 1437.61 L1834.36 1462.5 L1840.57 1462.5 L1840.57 1465.69 L1824.39 1465.69 L1824.39 1462.5 Z" fill="#000000" fill-rule="evenodd" fill-opacity="1" /><path clip-path="url(#clip450)" d="M 0 0 M2260.07 1489.17 L2267.7 1489.17 L2267.7 1462.8 L2259.39 1464.47 L2259.39 1460.21 L2267.66 1458.54 L2272.33 1458.54 L2272.33 1489.17 L2279.97 1489.17 L2279.97 1493.1 L2260.07 1493.1 L2260.07 1489.17 Z" fill="#000000" fill-rule="evenodd" fill-opacity="1" /><path clip-path="url(#clip450)" d="M 0 0 M2295.04 1461.62 Q2291.43 1461.62 2289.6 1465.19 Q2287.8 1468.73 2287.8 1475.86 Q2287.8 1482.97 2289.6 1486.53 Q2291.43 1490.07 2295.04 1490.07 Q2298.68 1490.07 2300.48 1486.53 Q2302.31 1482.97 2302.31 1475.86 Q2302.31 1468.73 2300.48 1465.19 Q2298.68 1461.62 2295.04 1461.62 M2295.04 1457.92 Q2300.85 1457.92 2303.91 1462.53 Q2306.99 1467.11 2306.99 1475.86 Q2306.99 1484.59 2303.91 1489.19 Q2300.85 1493.78 2295.04 1493.78 Q2289.23 1493.78 2286.15 1489.19 Q2283.1 1484.59 2283.1 1475.86 Q2283.1 1467.11 2286.15 1462.53 Q2289.23 1457.92 2295.04 1457.92 Z" fill="#000000" fill-rule="evenodd" fill-opacity="1" /><path clip-path="url(#clip450)" d="M 0 0 M2316.69 1440.11 Q2313.76 1440.11 2312.27 1443.01 Q2310.8 1445.89 2310.8 1451.68 Q2310.8 1457.46 2312.27 1460.35 Q2313.76 1463.23 2316.69 1463.23 Q2319.64 1463.23 2321.11 1460.35 Q2322.6 1457.46 2322.6 1451.68 Q2322.6 1445.89 2321.11 1443.01 Q2319.64 1440.11 2316.69 1440.11 M2316.69 1437.11 Q2321.41 1437.11 2323.89 1440.85 Q2326.4 1444.57 2326.4 1451.68 Q2326.4 1458.77 2323.89 1462.51 Q2321.41 1466.24 2316.69 1466.24 Q2311.97 1466.24 2309.47 1462.51 Q2306.99 1458.77 2306.99 1451.68 Q2306.99 1444.57 2309.47 1440.85 Q2311.97 1437.11 2316.69 1437.11 Z" fill="#000000" fill-rule="evenodd" fill-opacity="1" /><path clip-path="url(#clip450)" d="M 0 0 M1220.81 1512.66 L1226.7 1512.66 L1226.7 1541.91 L1244.17 1526.54 L1251.65 1526.54 L1232.75 1543.22 L1252.45 1562.19 L1244.81 1562.19 L1226.7 1544.78 L1226.7 1562.19 L1220.81 1562.19 L1220.81 1512.66 Z" fill="#000000" fill-rule="evenodd" fill-opacity="1" /><path clip-path="url(#clip450)" d="M 0 0 M1285.68 1573.01 L1285.68 1577.56 L1251.81 1577.56 L1251.81 1573.01 L1285.68 1573.01 Z" fill="#000000" fill-rule="evenodd" fill-opacity="1" /><path clip-path="url(#clip450)" d="M 0 0 M1305.64 1530.64 Q1300.92 1530.64 1298.19 1534.34 Q1295.45 1538 1295.45 1544.39 Q1295.45 1550.79 1298.16 1554.48 Q1300.89 1558.14 1305.64 1558.14 Q1310.31 1558.14 1313.05 1554.45 Q1315.79 1550.76 1315.79 1544.39 Q1315.79 1538.06 1313.05 1534.37 Q1310.31 1530.64 1305.64 1530.64 M1305.64 1525.68 Q1313.27 1525.68 1317.63 1530.64 Q1322 1535.61 1322 1544.39 Q1322 1553.15 1317.63 1558.14 Q1313.27 1563.11 1305.64 1563.11 Q1297.96 1563.11 1293.6 1558.14 Q1289.28 1553.15 1289.28 1544.39 Q1289.28 1535.61 1293.6 1530.64 Q1297.96 1525.68 1305.64 1525.68 Z" fill="#000000" fill-rule="evenodd" fill-opacity="1" /><path clip-path="url(#clip450)" d="M 0 0 M1346.18 1512.66 L1346.18 1517.53 L1340.58 1517.53 Q1337.43 1517.53 1336.19 1518.8 Q1334.98 1520.08 1334.98 1523.39 L1334.98 1526.54 L1344.63 1526.54 L1344.63 1531.09 L1334.98 1531.09 L1334.98 1562.19 L1329.09 1562.19 L1329.09 1531.09 L1323.49 1531.09 L1323.49 1526.54 L1329.09 1526.54 L1329.09 1524.05 Q1329.09 1518.1 1331.86 1515.4 Q1334.63 1512.66 1340.65 1512.66 L1346.18 1512.66 Z" fill="#000000" fill-rule="evenodd" fill-opacity="1" /><path clip-path="url(#clip450)" d="M 0 0 M1370.37 1512.66 L1370.37 1517.53 L1364.77 1517.53 Q1361.62 1517.53 1360.38 1518.8 Q1359.17 1520.08 1359.17 1523.39 L1359.17 1526.54 L1368.81 1526.54 L1368.81 1531.09 L1359.17 1531.09 L1359.17 1562.19 L1353.28 1562.19 L1353.28 1531.09 L1347.68 1531.09 L1347.68 1526.54 L1353.28 1526.54 L1353.28 1524.05 Q1353.28 1518.1 1356.05 1515.4 Q1358.82 1512.66 1364.84 1512.66 L1370.37 1512.66 Z" fill="#000000" fill-rule="evenodd" fill-opacity="1" /><polyline clip-path="url(#clip452)" style="stroke:#000000; stroke-width:2; stroke-opacity:0.1; fill:none" points="
  238.431,1333.17 2352.76,1333.17 
  "/>
<polyline clip-path="url(#clip452)" style="stroke:#000000; stroke-width:2; stroke-opacity:0.1; fill:none" points="
  238.431,1011.55 2352.76,1011.55 
  "/>
<polyline clip-path="url(#clip452)" style="stroke:#000000; stroke-width:2; stroke-opacity:0.1; fill:none" points="
  238.431,689.937 2352.76,689.937 
  "/>
<polyline clip-path="url(#clip452)" style="stroke:#000000; stroke-width:2; stroke-opacity:0.1; fill:none" points="
  238.431,368.321 2352.76,368.321 
  "/>
<polyline clip-path="url(#clip450)" style="stroke:#000000; stroke-width:4; stroke-opacity:1; fill:none" points="
  238.431,1410.9 238.431,47.2441 
  "/>
<polyline clip-path="url(#clip450)" style="stroke:#000000; stroke-width:4; stroke-opacity:1; fill:none" points="
  238.431,1333.17 263.803,1333.17 
  "/>
<polyline clip-path="url(#clip450)" style="stroke:#000000; stroke-width:4; stroke-opacity:1; fill:none" points="
  238.431,1011.55 263.803,1011.55 
  "/>
<polyline clip-path="url(#clip450)" style="stroke:#000000; stroke-width:4; stroke-opacity:1; fill:none" points="
  238.431,689.937 263.803,689.937 
  "/>
<polyline clip-path="url(#clip450)" style="stroke:#000000; stroke-width:4; stroke-opacity:1; fill:none" points="
  238.431,368.321 263.803,368.321 
  "/>
<path clip-path="url(#clip450)" d="M 0 0 M131.459 1319.96 L119.654 1338.41 L131.459 1338.41 L131.459 1319.96 M130.232 1315.89 L136.112 1315.89 L136.112 1338.41 L141.042 1338.41 L141.042 1342.3 L136.112 1342.3 L136.112 1350.45 L131.459 1350.45 L131.459 1342.3 L115.857 1342.3 L115.857 1337.79 L130.232 1315.89 Z" fill="#000000" fill-rule="evenodd" fill-opacity="1" /><path clip-path="url(#clip450)" d="M 0 0 M146.112 1344.57 L150.996 1344.57 L150.996 1350.45 L146.112 1350.45 L146.112 1344.57 Z" fill="#000000" fill-rule="evenodd" fill-opacity="1" /><path clip-path="url(#clip450)" d="M 0 0 M160.093 1346.51 L176.413 1346.51 L176.413 1350.45 L154.468 1350.45 L154.468 1346.51 Q157.13 1343.76 161.714 1339.13 Q166.32 1334.48 167.501 1333.13 Q169.746 1330.61 170.626 1328.88 Q171.528 1327.12 171.528 1325.43 Q171.528 1322.67 169.584 1320.94 Q167.663 1319.2 164.561 1319.2 Q162.362 1319.2 159.908 1319.96 Q157.478 1320.73 154.7 1322.28 L154.7 1317.56 Q157.524 1316.42 159.978 1315.84 Q162.431 1315.26 164.468 1315.26 Q169.839 1315.26 173.033 1317.95 Q176.227 1320.63 176.227 1325.13 Q176.227 1327.25 175.417 1329.18 Q174.63 1331.07 172.524 1333.67 Q171.945 1334.34 168.843 1337.56 Q165.741 1340.75 160.093 1346.51 Z" fill="#000000" fill-rule="evenodd" fill-opacity="1" /><path clip-path="url(#clip450)" d="M 0 0 M181.528 1315.89 L199.885 1315.89 L199.885 1319.82 L185.811 1319.82 L185.811 1328.3 Q186.829 1327.95 187.848 1327.79 Q188.866 1327.6 189.885 1327.6 Q195.672 1327.6 199.051 1330.77 Q202.431 1333.94 202.431 1339.36 Q202.431 1344.94 198.959 1348.04 Q195.487 1351.12 189.167 1351.12 Q186.991 1351.12 184.723 1350.75 Q182.477 1350.38 180.07 1349.64 L180.07 1344.94 Q182.153 1346.07 184.376 1346.63 Q186.598 1347.19 189.075 1347.19 Q193.079 1347.19 195.417 1345.08 Q197.755 1342.97 197.755 1339.36 Q197.755 1335.75 195.417 1333.64 Q193.079 1331.54 189.075 1331.54 Q187.2 1331.54 185.325 1331.95 Q183.473 1332.37 181.528 1333.25 L181.528 1315.89 Z" fill="#000000" fill-rule="evenodd" fill-opacity="1" /><path clip-path="url(#clip450)" d="M 0 0 M129.862 998.347 L118.056 1016.8 L129.862 1016.8 L129.862 998.347 M128.635 994.273 L134.515 994.273 L134.515 1016.8 L139.445 1016.8 L139.445 1020.69 L134.515 1020.69 L134.515 1028.83 L129.862 1028.83 L129.862 1020.69 L114.26 1020.69 L114.26 1016.17 L128.635 994.273 Z" fill="#000000" fill-rule="evenodd" fill-opacity="1" /><path clip-path="url(#clip450)" d="M 0 0 M144.515 1022.95 L149.399 1022.95 L149.399 1028.83 L144.515 1028.83 L144.515 1022.95 Z" fill="#000000" fill-rule="evenodd" fill-opacity="1" /><path clip-path="url(#clip450)" d="M 0 0 M154.515 994.273 L172.871 994.273 L172.871 998.208 L158.797 998.208 L158.797 1006.68 Q159.815 1006.33 160.834 1006.17 Q161.852 1005.99 162.871 1005.99 Q168.658 1005.99 172.038 1009.16 Q175.417 1012.33 175.417 1017.75 Q175.417 1023.32 171.945 1026.43 Q168.473 1029.5 162.153 1029.5 Q159.978 1029.5 157.709 1029.13 Q155.464 1028.76 153.056 1028.02 L153.056 1023.32 Q155.14 1024.46 157.362 1025.01 Q159.584 1025.57 162.061 1025.57 Q166.065 1025.57 168.403 1023.46 Q170.741 1021.36 170.741 1017.75 Q170.741 1014.13 168.403 1012.03 Q166.065 1009.92 162.061 1009.92 Q160.186 1009.92 158.311 1010.34 Q156.459 1010.75 154.515 1011.63 L154.515 994.273 Z" fill="#000000" fill-rule="evenodd" fill-opacity="1" /><path clip-path="url(#clip450)" d="M 0 0 M190.487 997.352 Q186.876 997.352 185.047 1000.92 Q183.241 1004.46 183.241 1011.59 Q183.241 1018.69 185.047 1022.26 Q186.876 1025.8 190.487 1025.8 Q194.121 1025.8 195.926 1022.26 Q197.755 1018.69 197.755 1011.59 Q197.755 1004.46 195.926 1000.92 Q194.121 997.352 190.487 997.352 M190.487 993.648 Q196.297 993.648 199.352 998.255 Q202.431 1002.84 202.431 1011.59 Q202.431 1020.31 199.352 1024.92 Q196.297 1029.5 190.487 1029.5 Q184.676 1029.5 181.598 1024.92 Q178.542 1020.31 178.542 1011.59 Q178.542 1002.84 181.598 998.255 Q184.676 993.648 190.487 993.648 Z" fill="#000000" fill-rule="evenodd" fill-opacity="1" /><path clip-path="url(#clip450)" d="M 0 0 M130.765 676.731 L118.959 695.18 L130.765 695.18 L130.765 676.731 M129.538 672.657 L135.417 672.657 L135.417 695.18 L140.348 695.18 L140.348 699.069 L135.417 699.069 L135.417 707.217 L130.765 707.217 L130.765 699.069 L115.163 699.069 L115.163 694.555 L129.538 672.657 Z" fill="#000000" fill-rule="evenodd" fill-opacity="1" /><path clip-path="url(#clip450)" d="M 0 0 M145.417 701.337 L150.302 701.337 L150.302 707.217 L145.417 707.217 L145.417 701.337 Z" fill="#000000" fill-rule="evenodd" fill-opacity="1" /><path clip-path="url(#clip450)" d="M 0 0 M154.19 672.657 L176.413 672.657 L176.413 674.648 L163.866 707.217 L158.982 707.217 L170.788 676.592 L154.19 676.592 L154.19 672.657 Z" fill="#000000" fill-rule="evenodd" fill-opacity="1" /><path clip-path="url(#clip450)" d="M 0 0 M181.528 672.657 L199.885 672.657 L199.885 676.592 L185.811 676.592 L185.811 685.064 Q186.829 684.717 187.848 684.555 Q188.866 684.37 189.885 684.37 Q195.672 684.37 199.051 687.541 Q202.431 690.712 202.431 696.129 Q202.431 701.708 198.959 704.81 Q195.487 707.888 189.167 707.888 Q186.991 707.888 184.723 707.518 Q182.477 707.148 180.07 706.407 L180.07 701.708 Q182.153 702.842 184.376 703.398 Q186.598 703.953 189.075 703.953 Q193.079 703.953 195.417 701.847 Q197.755 699.74 197.755 696.129 Q197.755 692.518 195.417 690.411 Q193.079 688.305 189.075 688.305 Q187.2 688.305 185.325 688.722 Q183.473 689.138 181.528 690.018 L181.528 672.657 Z" fill="#000000" fill-rule="evenodd" fill-opacity="1" /><path clip-path="url(#clip450)" d="M 0 0 M117.547 351.041 L135.904 351.041 L135.904 354.976 L121.83 354.976 L121.83 363.448 Q122.848 363.101 123.867 362.939 Q124.885 362.754 125.904 362.754 Q131.691 362.754 135.07 365.925 Q138.45 369.096 138.45 374.513 Q138.45 380.092 134.978 383.193 Q131.505 386.272 125.186 386.272 Q123.01 386.272 120.742 385.902 Q118.496 385.531 116.089 384.791 L116.089 380.092 Q118.172 381.226 120.394 381.781 Q122.617 382.337 125.093 382.337 Q129.098 382.337 131.436 380.23 Q133.774 378.124 133.774 374.513 Q133.774 370.902 131.436 368.795 Q129.098 366.689 125.093 366.689 Q123.218 366.689 121.343 367.106 Q119.492 367.522 117.547 368.402 L117.547 351.041 Z" fill="#000000" fill-rule="evenodd" fill-opacity="1" /><path clip-path="url(#clip450)" d="M 0 0 M143.519 379.721 L148.403 379.721 L148.403 385.601 L143.519 385.601 L143.519 379.721 Z" fill="#000000" fill-rule="evenodd" fill-opacity="1" /><path clip-path="url(#clip450)" d="M 0 0 M163.473 354.119 Q159.862 354.119 158.033 357.684 Q156.228 361.226 156.228 368.356 Q156.228 375.462 158.033 379.027 Q159.862 382.568 163.473 382.568 Q167.107 382.568 168.913 379.027 Q170.741 375.462 170.741 368.356 Q170.741 361.226 168.913 357.684 Q167.107 354.119 163.473 354.119 M163.473 350.416 Q169.283 350.416 172.339 355.022 Q175.417 359.606 175.417 368.356 Q175.417 377.082 172.339 381.689 Q169.283 386.272 163.473 386.272 Q157.663 386.272 154.584 381.689 Q151.528 377.082 151.528 368.356 Q151.528 359.606 154.584 355.022 Q157.663 350.416 163.473 350.416 Z" fill="#000000" fill-rule="evenodd" fill-opacity="1" /><path clip-path="url(#clip450)" d="M 0 0 M190.487 354.119 Q186.876 354.119 185.047 357.684 Q183.241 361.226 183.241 368.356 Q183.241 375.462 185.047 379.027 Q186.876 382.568 190.487 382.568 Q194.121 382.568 195.926 379.027 Q197.755 375.462 197.755 368.356 Q197.755 361.226 195.926 357.684 Q194.121 354.119 190.487 354.119 M190.487 350.416 Q196.297 350.416 199.352 355.022 Q202.431 359.606 202.431 368.356 Q202.431 377.082 199.352 381.689 Q196.297 386.272 190.487 386.272 Q184.676 386.272 181.598 381.689 Q178.542 377.082 178.542 368.356 Q178.542 359.606 181.598 355.022 Q184.676 350.416 190.487 350.416 Z" fill="#000000" fill-rule="evenodd" fill-opacity="1" /><path clip-path="url(#clip450)" d="M 0 0 M59.1993 815.533 Q55.2526 813.336 53.3747 810.281 Q51.4968 807.225 51.4968 803.088 Q51.4968 797.518 55.4117 794.494 Q59.2948 791.47 66.4881 791.47 L88.0042 791.47 L88.0042 797.358 L66.679 797.358 Q61.5546 797.358 59.072 799.173 Q56.5894 800.987 56.5894 804.711 Q56.5894 809.262 59.6131 811.904 Q62.6368 814.546 67.8567 814.546 L88.0042 814.546 L88.0042 820.434 L66.679 820.434 Q61.5228 820.434 59.072 822.248 Q56.5894 824.063 56.5894 827.85 Q56.5894 832.338 59.6449 834.98 Q62.6686 837.622 67.8567 837.622 L88.0042 837.622 L88.0042 843.51 L52.3562 843.51 L52.3562 837.622 L57.8944 837.622 Q54.616 835.616 53.0564 832.815 Q51.4968 830.015 51.4968 826.163 Q51.4968 822.28 53.4702 819.575 Q55.4436 816.838 59.1993 815.533 Z" fill="#000000" fill-rule="evenodd" fill-opacity="1" /><path clip-path="url(#clip450)" d="M 0 0 M52.3562 785.327 L52.3562 779.471 L88.0042 779.471 L88.0042 785.327 L52.3562 785.327 M38.479 785.327 L38.479 779.471 L45.895 779.471 L45.895 785.327 L38.479 785.327 Z" fill="#000000" fill-rule="evenodd" fill-opacity="1" /><path clip-path="url(#clip450)" d="M 0 0 M66.4881 743.696 L88.0042 743.696 L88.0042 749.552 L66.679 749.552 Q61.6183 749.552 59.1038 751.525 Q56.5894 753.499 56.5894 757.446 Q56.5894 762.188 59.6131 764.925 Q62.6368 767.662 67.8567 767.662 L88.0042 767.662 L88.0042 773.551 L52.3562 773.551 L52.3562 767.662 L57.8944 767.662 Q54.6797 765.562 53.0883 762.729 Q51.4968 759.864 51.4968 756.141 Q51.4968 749.998 55.3163 746.847 Q59.1038 743.696 66.4881 743.696 Z" fill="#000000" fill-rule="evenodd" fill-opacity="1" /><path clip-path="url(#clip450)" d="M 0 0 M98.8259 710.467 L103.377 710.467 L103.377 744.332 L98.8259 744.332 L98.8259 710.467 Z" fill="#000000" fill-rule="evenodd" fill-opacity="1" /><path clip-path="url(#clip450)" d="M 0 0 M57.7671 680.866 L38.479 680.866 L38.479 675.01 L88.0042 675.01 L88.0042 680.866 L82.657 680.866 Q85.8398 682.712 87.3994 685.545 Q88.9272 688.346 88.9272 692.292 Q88.9272 698.754 83.771 702.828 Q78.6147 706.87 70.212 706.87 Q61.8093 706.87 56.6531 702.828 Q51.4968 698.754 51.4968 692.292 Q51.4968 688.346 53.0564 685.545 Q54.5842 682.712 57.7671 680.866 M70.212 700.823 Q76.6732 700.823 80.3653 698.181 Q84.0256 695.507 84.0256 690.86 Q84.0256 686.213 80.3653 683.54 Q76.6732 680.866 70.212 680.866 Q63.7508 680.866 60.0905 683.54 Q56.3984 686.213 56.3984 690.86 Q56.3984 695.507 60.0905 698.181 Q63.7508 700.823 70.212 700.823 Z" fill="#000000" fill-rule="evenodd" fill-opacity="1" /><path clip-path="url(#clip450)" d="M 0 0 M52.3562 668.867 L52.3562 663.01 L88.0042 663.01 L88.0042 668.867 L52.3562 668.867 M38.479 668.867 L38.479 663.01 L45.895 663.01 L45.895 668.867 L38.479 668.867 Z" fill="#000000" fill-rule="evenodd" fill-opacity="1" /><path clip-path="url(#clip450)" d="M 0 0 M38.479 638.821 L43.3487 638.821 L43.3487 644.422 Q43.3487 647.573 44.6219 648.815 Q45.895 650.024 49.2052 650.024 L52.3562 650.024 L52.3562 640.38 L56.9077 640.38 L56.9077 650.024 L88.0042 650.024 L88.0042 655.912 L56.9077 655.912 L56.9077 661.514 L52.3562 661.514 L52.3562 655.912 L49.8736 655.912 Q43.9216 655.912 41.2162 653.143 Q38.479 650.374 38.479 644.359 L38.479 638.821 Z" fill="#000000" fill-rule="evenodd" fill-opacity="1" /><path clip-path="url(#clip450)" d="M 0 0 M38.479 614.631 L43.3487 614.631 L43.3487 620.233 Q43.3487 623.384 44.6219 624.625 Q45.895 625.835 49.2052 625.835 L52.3562 625.835 L52.3562 616.19 L56.9077 616.19 L56.9077 625.835 L88.0042 625.835 L88.0042 631.723 L56.9077 631.723 L56.9077 637.325 L52.3562 637.325 L52.3562 631.723 L49.8736 631.723 Q43.9216 631.723 41.2162 628.954 Q38.479 626.185 38.479 620.169 L38.479 614.631 Z" fill="#000000" fill-rule="evenodd" fill-opacity="1" /><path clip-path="url(#clip450)" d="
M1996.34 213.659 L2282.28 213.659 L2282.28 92.6992 L1996.34 92.6992  Z
  " fill="#ffffff" fill-rule="evenodd" fill-opacity="1"/>
<polyline clip-path="url(#clip450)" style="stroke:#000000; stroke-width:4; stroke-opacity:1; fill:none" points="
  1996.34,213.659 2282.28,213.659 2282.28,92.6992 1996.34,92.6992 1996.34,213.659 
  "/>
<polyline clip-path="url(#clip450)" style="stroke:#009af9; stroke-width:4; stroke-opacity:1; fill:none" stroke-dasharray="16, 10" points="
  2019.83,153.179 2160.78,153.179 
  "/>
<path clip-path="url(#clip450)" d="M 0 0 M2198.12 172.867 Q2196.31 177.496 2194.6 178.908 Q2192.89 180.32 2190.02 180.32 L2186.61 180.32 L2186.61 176.755 L2189.11 176.755 Q2190.87 176.755 2191.84 175.922 Q2192.82 175.089 2194 171.987 L2194.76 170.043 L2184.28 144.533 L2188.79 144.533 L2196.89 164.811 L2204.99 144.533 L2209.51 144.533 L2198.12 172.867 Z" fill="#000000" fill-rule="evenodd" fill-opacity="1" /><path clip-path="url(#clip450)" d="M 0 0 M2215.39 166.524 L2223.02 166.524 L2223.02 140.158 L2214.71 141.825 L2214.71 137.566 L2222.98 135.899 L2227.65 135.899 L2227.65 166.524 L2235.29 166.524 L2235.29 170.459 L2215.39 170.459 L2215.39 166.524 Z" fill="#000000" fill-rule="evenodd" fill-opacity="1" /></svg>
