<?xml version="1.0" encoding="utf-8"?>
<svg xmlns="http://www.w3.org/2000/svg" xmlns:xlink="http://www.w3.org/1999/xlink" width="600" height="400" viewBox="0 0 2400 1600">
<defs>
  <clipPath id="clip750">
    <rect x="0" y="0" width="2400" height="1600"/>
  </clipPath>
</defs>
<path clip-path="url(#clip750)" d="
M0 1600 L2400 1600 L2400 0 L0 0  Z
  " fill="#ffffff" fill-rule="evenodd" fill-opacity="1"/>
<defs>
  <clipPath id="clip751">
    <rect x="480" y="0" width="1681" height="1600"/>
  </clipPath>
</defs>
<path clip-path="url(#clip750)" d="
M212.575 1410.9 L2352.76 1410.9 L2352.76 47.2441 L212.575 47.2441  Z
  " fill="#ffffff" fill-rule="evenodd" fill-opacity="1"/>
<defs>
  <clipPath id="clip752">
    <rect x="212" y="47" width="2141" height="1365"/>
  </clipPath>
</defs>
<polyline clip-path="url(#clip752)" style="stroke:#000000; stroke-width:2; stroke-opacity:0.1; fill:none" points="
  273.146,1410.9 273.146,47.2441 
  "/>
<polyline clip-path="url(#clip752)" style="stroke:#000000; stroke-width:2; stroke-opacity:0.1; fill:none" points="
  676.953,1410.9 676.953,47.2441 
  "/>
<polyline clip-path="url(#clip752)" style="stroke:#000000; stroke-width:2; stroke-opacity:0.1; fill:none" points="
  1080.76,1410.9 1080.76,47.2441 
  "/>
<polyline clip-path="url(#clip752)" style="stroke:#000000; stroke-width:2; stroke-opacity:0.1; fill:none" points="
  1484.57,1410.9 1484.57,47.2441 
  "/>
<polyline clip-path="url(#clip752)" style="stroke:#000000; stroke-width:2; stroke-opacity:0.1; fill:none" points="
  1888.38,1410.9 1888.38,47.2441 
  "/>
<polyline clip-path="url(#clip752)" style="stroke:#000000; stroke-width:2; stroke-opacity:0.1; fill:none" points="
  2292.18,1410.9 2292.18,47.2441 
  "/>
<polyline clip-path="url(#clip750)" style="stroke:#000000; stroke-width:4; stroke-opacity:1; fill:none" points="
  212.575,1410.9 2352.76,1410.9 
  "/>
<polyline clip-path="url(#clip750)" style="stroke:#000000; stroke-width:4; stroke-opacity:1; fill:none" points="
  273.146,1410.9 273.146,1394.53 
  "/>
<polyline clip-path="url(#clip750)" style="stroke:#000000; stroke-width:4; stroke-opacity:1; fill:none" points="
  676.953,1410.9 676.953,1394.53 
  "/>
<polyline clip-path="url(#clip750)" style="stroke:#000000; stroke-width:4; stroke-opacity:1; fill:none" points="
  1080.76,1410.9 1080.76,1394.53 
  "/>
<polyline clip-path="url(#clip750)" style="stroke:#000000; stroke-width:4; stroke-opacity:1; fill:none" points="
  1484.57,1410.9 1484.57,1394.53 
  "/>
<polyline clip-path="url(#clip750)" style="stroke:#000000; stroke-width:4; stroke-opacity:1; fill:none" points="
  1888.38,1410.9 1888.38,1394.53 
  "/>
<polyline clip-path="url(#clip750)" style="stroke:#000000; stroke-width:4; stroke-opacity:1; fill:none" points="
  2292.18,1410.9 2292.18,1394.53 
  "/>
<path clip-path="url(#clip750)" d="M 0 0 M227.395 1489.17 L235.034 1489.17 L235.034 1462.8 L226.724 1464.47 L226.724 1460.21 L234.988 1458.54 L239.664 1458.54 L239.664 1489.17 L247.302 1489.17 L247.302 1493.1 L227.395 1493.1 L227.395 1489.17 Z" fill="#000000" fill-rule="evenodd" fill-opacity="1" /><path clip-path="url(#clip750)" d="M 0 0 M262.372 1461.62 Q258.761 1461.62 256.932 1465.19 Q255.127 1468.73 255.127 1475.86 Q255.127 1482.97 256.932 1486.53 Q258.761 1490.07 262.372 1490.07 Q266.006 1490.07 267.812 1486.53 Q269.64 1482.97 269.64 1475.86 Q269.64 1468.73 267.812 1465.19 Q266.006 1461.62 262.372 1461.62 M262.372 1457.92 Q268.182 1457.92 271.238 1462.53 Q274.316 1467.11 274.316 1475.86 Q274.316 1484.59 271.238 1489.19 Q268.182 1493.78 262.372 1493.78 Q256.562 1493.78 253.483 1489.19 Q250.427 1484.59 250.427 1475.86 Q250.427 1467.11 253.483 1462.53 Q256.562 1457.92 262.372 1457.92 Z" fill="#000000" fill-rule="evenodd" fill-opacity="1" /><path clip-path="url(#clip750)" d="M 0 0 M274.316 1452.02 L298.428 1452.02 L298.428 1455.22 L274.316 1455.22 L274.316 1452.02 Z" fill="#000000" fill-rule="evenodd" fill-opacity="1" /><path clip-path="url(#clip750)" d="M 0 0 M302.584 1437.61 L317.499 1437.61 L317.499 1440.81 L306.064 1440.81 L306.064 1447.69 Q306.891 1447.41 307.719 1447.28 Q308.546 1447.13 309.374 1447.13 Q314.076 1447.13 316.822 1449.71 Q319.568 1452.28 319.568 1456.68 Q319.568 1461.22 316.747 1463.74 Q313.925 1466.24 308.791 1466.24 Q307.023 1466.24 305.18 1465.94 Q303.355 1465.64 301.399 1465.04 L301.399 1461.22 Q303.092 1462.14 304.898 1462.59 Q306.703 1463.04 308.716 1463.04 Q311.969 1463.04 313.869 1461.33 Q315.769 1459.62 315.769 1456.68 Q315.769 1453.75 313.869 1452.04 Q311.969 1450.33 308.716 1450.33 Q307.192 1450.33 305.669 1450.67 Q304.164 1451 302.584 1451.72 L302.584 1437.61 Z" fill="#000000" fill-rule="evenodd" fill-opacity="1" /><path clip-path="url(#clip750)" d="M 0 0 M630.601 1489.17 L638.24 1489.17 L638.24 1462.8 L629.929 1464.47 L629.929 1460.21 L638.193 1458.54 L642.869 1458.54 L642.869 1489.17 L650.508 1489.17 L650.508 1493.1 L630.601 1493.1 L630.601 1489.17 Z" fill="#000000" fill-rule="evenodd" fill-opacity="1" /><path clip-path="url(#clip750)" d="M 0 0 M665.577 1461.62 Q661.966 1461.62 660.138 1465.19 Q658.332 1468.73 658.332 1475.86 Q658.332 1482.97 660.138 1486.53 Q661.966 1490.07 665.577 1490.07 Q669.212 1490.07 671.017 1486.53 Q672.846 1482.97 672.846 1475.86 Q672.846 1468.73 671.017 1465.19 Q669.212 1461.62 665.577 1461.62 M665.577 1457.92 Q671.388 1457.92 674.443 1462.53 Q677.522 1467.11 677.522 1475.86 Q677.522 1484.59 674.443 1489.19 Q671.388 1493.78 665.577 1493.78 Q659.767 1493.78 656.689 1489.19 Q653.633 1484.59 653.633 1475.86 Q653.633 1467.11 656.689 1462.53 Q659.767 1457.92 665.577 1457.92 Z" fill="#000000" fill-rule="evenodd" fill-opacity="1" /><path clip-path="url(#clip750)" d="M 0 0 M677.522 1452.02 L701.633 1452.02 L701.633 1455.22 L677.522 1455.22 L677.522 1452.02 Z" fill="#000000" fill-rule="evenodd" fill-opacity="1" /><path clip-path="url(#clip750)" d="M 0 0 M716.191 1440.92 L706.599 1455.91 L716.191 1455.91 L716.191 1440.92 M715.194 1437.61 L719.971 1437.61 L719.971 1455.91 L723.977 1455.91 L723.977 1459.07 L719.971 1459.07 L719.971 1465.69 L716.191 1465.69 L716.191 1459.07 L703.514 1459.07 L703.514 1455.41 L715.194 1437.61 Z" fill="#000000" fill-rule="evenodd" fill-opacity="1" /><path clip-path="url(#clip750)" d="M 0 0 M1034.87 1489.17 L1042.51 1489.17 L1042.51 1462.8 L1034.2 1464.47 L1034.2 1460.21 L1042.46 1458.54 L1047.14 1458.54 L1047.14 1489.17 L1054.78 1489.17 L1054.78 1493.1 L1034.87 1493.1 L1034.87 1489.17 Z" fill="#000000" fill-rule="evenodd" fill-opacity="1" /><path clip-path="url(#clip750)" d="M 0 0 M1069.85 1461.62 Q1066.23 1461.62 1064.41 1465.19 Q1062.6 1468.73 1062.6 1475.86 Q1062.6 1482.97 1064.41 1486.53 Q1066.23 1490.07 1069.85 1490.07 Q1073.48 1490.07 1075.29 1486.53 Q1077.11 1482.97 1077.11 1475.86 Q1077.11 1468.73 1075.29 1465.19 Q1073.48 1461.62 1069.85 1461.62 M1069.85 1457.92 Q1075.66 1457.92 1078.71 1462.53 Q1081.79 1467.11 1081.79 1475.86 Q1081.79 1484.59 1078.71 1489.19 Q1075.66 1493.78 1069.85 1493.78 Q1064.04 1493.78 1060.96 1489.19 Q1057.9 1484.59 1057.9 1475.86 Q1057.9 1467.11 1060.96 1462.53 Q1064.04 1457.92 1069.85 1457.92 Z" fill="#000000" fill-rule="evenodd" fill-opacity="1" /><path clip-path="url(#clip750)" d="M 0 0 M1081.79 1452.02 L1105.9 1452.02 L1105.9 1455.22 L1081.79 1455.22 L1081.79 1452.02 Z" fill="#000000" fill-rule="evenodd" fill-opacity="1" /><path clip-path="url(#clip750)" d="M 0 0 M1121.53 1450.55 Q1124.26 1451.14 1125.78 1452.98 Q1127.32 1454.82 1127.32 1457.53 Q1127.32 1461.69 1124.46 1463.96 Q1121.61 1466.24 1116.34 1466.24 Q1114.57 1466.24 1112.69 1465.88 Q1110.83 1465.54 1108.84 1464.85 L1108.84 1461.18 Q1110.42 1462.1 1112.3 1462.57 Q1114.18 1463.04 1116.23 1463.04 Q1119.8 1463.04 1121.66 1461.63 Q1123.54 1460.22 1123.54 1457.53 Q1123.54 1455.05 1121.79 1453.66 Q1120.06 1452.25 1116.96 1452.25 L1113.69 1452.25 L1113.69 1449.12 L1117.11 1449.12 Q1119.91 1449.12 1121.4 1448.01 Q1122.89 1446.89 1122.89 1444.78 Q1122.89 1442.62 1121.34 1441.47 Q1119.82 1440.3 1116.96 1440.3 Q1115.4 1440.3 1113.61 1440.64 Q1111.83 1440.98 1109.68 1441.69 L1109.68 1438.31 Q1111.84 1437.71 1113.73 1437.41 Q1115.63 1437.11 1117.3 1437.11 Q1121.62 1437.11 1124.15 1439.08 Q1126.67 1441.04 1126.67 1444.38 Q1126.67 1446.72 1125.33 1448.33 Q1123.99 1449.93 1121.53 1450.55 Z" fill="#000000" fill-rule="evenodd" fill-opacity="1" /><path clip-path="url(#clip750)" d="M 0 0 M1439.06 1489.17 L1446.7 1489.17 L1446.7 1462.8 L1438.39 1464.47 L1438.39 1460.21 L1446.65 1458.54 L1451.33 1458.54 L1451.33 1489.17 L1458.97 1489.17 L1458.97 1493.1 L1439.06 1493.1 L1439.06 1489.17 Z" fill="#000000" fill-rule="evenodd" fill-opacity="1" /><path clip-path="url(#clip750)" d="M 0 0 M1474.04 1461.62 Q1470.43 1461.62 1468.6 1465.19 Q1466.79 1468.73 1466.79 1475.86 Q1466.79 1482.97 1468.6 1486.53 Q1470.43 1490.07 1474.04 1490.07 Q1477.67 1490.07 1479.48 1486.53 Q1481.31 1482.97 1481.31 1475.86 Q1481.31 1468.73 1479.48 1465.19 Q1477.67 1461.62 1474.04 1461.62 M1474.04 1457.92 Q1479.85 1457.92 1482.9 1462.53 Q1485.98 1467.11 1485.98 1475.86 Q1485.98 1484.59 1482.9 1489.19 Q1479.85 1493.78 1474.04 1493.78 Q1468.23 1493.78 1465.15 1489.19 Q1462.09 1484.59 1462.09 1475.86 Q1462.09 1467.11 1465.15 1462.53 Q1468.23 1457.92 1474.04 1457.92 Z" fill="#000000" fill-rule="evenodd" fill-opacity="1" /><path clip-path="url(#clip750)" d="M 0 0 M1485.98 1452.02 L1510.09 1452.02 L1510.09 1455.22 L1485.98 1455.22 L1485.98 1452.02 Z" fill="#000000" fill-rule="evenodd" fill-opacity="1" /><path clip-path="url(#clip750)" d="M 0 0 M1517.49 1462.5 L1530.75 1462.5 L1530.75 1465.69 L1512.92 1465.69 L1512.92 1462.5 Q1515.08 1460.26 1518.8 1456.5 Q1522.55 1452.72 1523.5 1451.63 Q1525.33 1449.58 1526.04 1448.16 Q1526.78 1446.74 1526.78 1445.36 Q1526.78 1443.12 1525.2 1441.71 Q1523.64 1440.3 1521.12 1440.3 Q1519.33 1440.3 1517.34 1440.92 Q1515.36 1441.54 1513.1 1442.8 L1513.1 1438.97 Q1515.4 1438.05 1517.39 1437.58 Q1519.39 1437.11 1521.04 1437.11 Q1525.4 1437.11 1528 1439.29 Q1530.6 1441.47 1530.6 1445.12 Q1530.6 1446.85 1529.94 1448.41 Q1529.3 1449.95 1527.59 1452.06 Q1527.12 1452.6 1524.6 1455.22 Q1522.08 1457.81 1517.49 1462.5 Z" fill="#000000" fill-rule="evenodd" fill-opacity="1" /><path clip-path="url(#clip750)" d="M 0 0 M1842.72 1489.17 L1850.36 1489.17 L1850.36 1462.8 L1842.05 1464.47 L1842.05 1460.21 L1850.31 1458.54 L1854.99 1458.54 L1854.99 1489.17 L1862.63 1489.17 L1862.63 1493.1 L1842.72 1493.1 L1842.72 1489.17 Z" fill="#000000" fill-rule="evenodd" fill-opacity="1" /><path clip-path="url(#clip750)" d="M 0 0 M1877.7 1461.62 Q1874.08 1461.62 1872.26 1465.19 Q1870.45 1468.73 1870.45 1475.86 Q1870.45 1482.97 1872.26 1486.53 Q1874.08 1490.07 1877.7 1490.07 Q1881.33 1490.07 1883.14 1486.53 Q1884.96 1482.97 1884.96 1475.86 Q1884.96 1468.73 1883.14 1465.19 Q1881.33 1461.62 1877.7 1461.62 M1877.7 1457.92 Q1883.51 1457.92 1886.56 1462.53 Q1889.64 1467.11 1889.64 1475.86 Q1889.64 1484.59 1886.56 1489.19 Q1883.51 1493.78 1877.7 1493.78 Q1871.89 1493.78 1868.81 1489.19 Q1865.75 1484.59 1865.75 1475.86 Q1865.75 1467.11 1868.81 1462.53 Q1871.89 1457.92 1877.7 1457.92 Z" fill="#000000" fill-rule="evenodd" fill-opacity="1" /><path clip-path="url(#clip750)" d="M 0 0 M1889.64 1452.02 L1913.75 1452.02 L1913.75 1455.22 L1889.64 1455.22 L1889.64 1452.02 Z" fill="#000000" fill-rule="evenodd" fill-opacity="1" /><path clip-path="url(#clip750)" d="M 0 0 M1918.53 1462.5 L1924.74 1462.5 L1924.74 1441.07 L1917.98 1442.43 L1917.98 1438.97 L1924.7 1437.61 L1928.5 1437.61 L1928.5 1462.5 L1934.7 1462.5 L1934.7 1465.69 L1918.53 1465.69 L1918.53 1462.5 Z" fill="#000000" fill-rule="evenodd" fill-opacity="1" /><path clip-path="url(#clip750)" d="M 0 0 M2259.35 1489.17 L2266.99 1489.17 L2266.99 1462.8 L2258.68 1464.47 L2258.68 1460.21 L2266.95 1458.54 L2271.62 1458.54 L2271.62 1489.17 L2279.26 1489.17 L2279.26 1493.1 L2259.35 1493.1 L2259.35 1489.17 Z" fill="#000000" fill-rule="evenodd" fill-opacity="1" /><path clip-path="url(#clip750)" d="M 0 0 M2294.33 1461.62 Q2290.72 1461.62 2288.89 1465.19 Q2287.08 1468.73 2287.08 1475.86 Q2287.08 1482.97 2288.89 1486.53 Q2290.72 1490.07 2294.33 1490.07 Q2297.96 1490.07 2299.77 1486.53 Q2301.6 1482.97 2301.6 1475.86 Q2301.6 1468.73 2299.77 1465.19 Q2297.96 1461.62 2294.33 1461.62 M2294.33 1457.92 Q2300.14 1457.92 2303.2 1462.53 Q2306.27 1467.11 2306.27 1475.86 Q2306.27 1484.59 2303.2 1489.19 Q2300.14 1493.78 2294.33 1493.78 Q2288.52 1493.78 2285.44 1489.19 Q2282.39 1484.59 2282.39 1475.86 Q2282.39 1467.11 2285.44 1462.53 Q2288.52 1457.92 2294.33 1457.92 Z" fill="#000000" fill-rule="evenodd" fill-opacity="1" /><path clip-path="url(#clip750)" d="M 0 0 M2315.98 1440.11 Q2313.05 1440.11 2311.56 1443.01 Q2310.09 1445.89 2310.09 1451.68 Q2310.09 1457.46 2311.56 1460.35 Q2313.05 1463.23 2315.98 1463.23 Q2318.93 1463.23 2320.4 1460.35 Q2321.88 1457.46 2321.88 1451.68 Q2321.88 1445.89 2320.4 1443.01 Q2318.93 1440.11 2315.98 1440.11 M2315.98 1437.11 Q2320.7 1437.11 2323.18 1440.85 Q2325.68 1444.57 2325.68 1451.68 Q2325.68 1458.77 2323.18 1462.51 Q2320.7 1466.24 2315.98 1466.24 Q2311.26 1466.24 2308.76 1462.51 Q2306.27 1458.77 2306.27 1451.68 Q2306.27 1444.57 2308.76 1440.85 Q2311.26 1437.11 2315.98 1437.11 Z" fill="#000000" fill-rule="evenodd" fill-opacity="1" /><path clip-path="url(#clip750)" d="M 0 0 M1214.19 1512.66 L1220.07 1512.66 L1220.07 1541.91 L1237.55 1526.54 L1245.03 1526.54 L1226.12 1543.22 L1245.82 1562.19 L1238.18 1562.19 L1220.07 1544.78 L1220.07 1562.19 L1214.19 1562.19 L1214.19 1512.66 Z" fill="#000000" fill-rule="evenodd" fill-opacity="1" /><path clip-path="url(#clip750)" d="M 0 0 M1279.05 1573.01 L1279.05 1577.56 L1245.19 1577.56 L1245.19 1573.01 L1279.05 1573.01 Z" fill="#000000" fill-rule="evenodd" fill-opacity="1" /><path clip-path="url(#clip750)" d="M 0 0 M1299.01 1530.64 Q1294.3 1530.64 1291.56 1534.34 Q1288.82 1538 1288.82 1544.39 Q1288.82 1550.79 1291.53 1554.48 Q1294.27 1558.14 1299.01 1558.14 Q1303.69 1558.14 1306.43 1554.45 Q1309.16 1550.76 1309.16 1544.39 Q1309.16 1538.06 1306.43 1534.37 Q1303.69 1530.64 1299.01 1530.64 M1299.01 1525.68 Q1306.65 1525.68 1311.01 1530.64 Q1315.37 1535.61 1315.37 1544.39 Q1315.37 1553.15 1311.01 1558.14 Q1306.65 1563.11 1299.01 1563.11 Q1291.34 1563.11 1286.98 1558.14 Q1282.65 1553.15 1282.65 1544.39 Q1282.65 1535.61 1286.98 1530.64 Q1291.34 1525.68 1299.01 1525.68 Z" fill="#000000" fill-rule="evenodd" fill-opacity="1" /><path clip-path="url(#clip750)" d="M 0 0 M1351.14 1540.67 L1351.14 1562.19 L1345.29 1562.19 L1345.29 1540.86 Q1345.29 1535.8 1343.31 1533.29 Q1341.34 1530.77 1337.39 1530.77 Q1332.65 1530.77 1329.91 1533.79 Q1327.18 1536.82 1327.18 1542.04 L1327.18 1562.19 L1321.29 1562.19 L1321.29 1526.54 L1327.18 1526.54 L1327.18 1532.08 Q1329.28 1528.86 1332.11 1527.27 Q1334.98 1525.68 1338.7 1525.68 Q1344.84 1525.68 1347.99 1529.5 Q1351.14 1533.29 1351.14 1540.67 Z" fill="#000000" fill-rule="evenodd" fill-opacity="1" /><polyline clip-path="url(#clip752)" style="stroke:#000000; stroke-width:2; stroke-opacity:0.1; fill:none" points="
  212.575,1169.75 2352.76,1169.75 
  "/>
<polyline clip-path="url(#clip752)" style="stroke:#000000; stroke-width:2; stroke-opacity:0.1; fill:none" points="
  212.575,912.456 2352.76,912.456 
  "/>
<polyline clip-path="url(#clip752)" style="stroke:#000000; stroke-width:2; stroke-opacity:0.1; fill:none" points="
  212.575,655.163 2352.76,655.163 
  "/>
<polyline clip-path="url(#clip752)" style="stroke:#000000; stroke-width:2; stroke-opacity:0.1; fill:none" points="
  212.575,397.87 2352.76,397.87 
  "/>
<polyline clip-path="url(#clip752)" style="stroke:#000000; stroke-width:2; stroke-opacity:0.1; fill:none" points="
  212.575,140.577 2352.76,140.577 
  "/>
<polyline clip-path="url(#clip750)" style="stroke:#000000; stroke-width:4; stroke-opacity:1; fill:none" points="
  212.575,1410.9 212.575,47.2441 
  "/>
<polyline clip-path="url(#clip750)" style="stroke:#000000; stroke-width:4; stroke-opacity:1; fill:none" points="
  212.575,1169.75 238.257,1169.75 
  "/>
<polyline clip-path="url(#clip750)" style="stroke:#000000; stroke-width:4; stroke-opacity:1; fill:none" points="
  212.575,912.456 238.257,912.456 
  "/>
<polyline clip-path="url(#clip750)" style="stroke:#000000; stroke-width:4; stroke-opacity:1; fill:none" points="
  212.575,655.163 238.257,655.163 
  "/>
<polyline clip-path="url(#clip750)" style="stroke:#000000; stroke-width:4; stroke-opacity:1; fill:none" points="
  212.575,397.87 238.257,397.87 
  "/>
<polyline clip-path="url(#clip750)" style="stroke:#000000; stroke-width:4; stroke-opacity:1; fill:none" points="
  212.575,140.577 238.257,140.577 
  "/>
<path clip-path="url(#clip750)" d="M 0 0 M129.862 1156.54 L118.056 1174.99 L129.862 1174.99 L129.862 1156.54 M128.635 1152.47 L134.515 1152.47 L134.515 1174.99 L139.445 1174.99 L139.445 1178.88 L134.515 1178.88 L134.515 1187.03 L129.862 1187.03 L129.862 1178.88 L114.26 1178.88 L114.26 1174.37 L128.635 1152.47 Z" fill="#000000" fill-rule="evenodd" fill-opacity="1" /><path clip-path="url(#clip750)" d="M 0 0 M144.515 1181.15 L149.399 1181.15 L149.399 1187.03 L144.515 1187.03 L144.515 1181.15 Z" fill="#000000" fill-rule="evenodd" fill-opacity="1" /><path clip-path="url(#clip750)" d="M 0 0 M165.047 1167.89 Q161.899 1167.89 160.047 1170.04 Q158.218 1172.19 158.218 1175.94 Q158.218 1179.67 160.047 1181.84 Q161.899 1184 165.047 1184 Q168.195 1184 170.024 1181.84 Q171.876 1179.67 171.876 1175.94 Q171.876 1172.19 170.024 1170.04 Q168.195 1167.89 165.047 1167.89 M174.329 1153.23 L174.329 1157.49 Q172.57 1156.66 170.764 1156.22 Q168.982 1155.78 167.223 1155.78 Q162.593 1155.78 160.14 1158.9 Q157.709 1162.03 157.362 1168.35 Q158.728 1166.33 160.788 1165.27 Q162.848 1164.18 165.325 1164.18 Q170.533 1164.18 173.542 1167.35 Q176.575 1170.5 176.575 1175.94 Q176.575 1181.26 173.427 1184.48 Q170.278 1187.7 165.047 1187.7 Q159.052 1187.7 155.88 1183.12 Q152.709 1178.51 152.709 1169.78 Q152.709 1161.59 156.598 1156.73 Q160.487 1151.84 167.038 1151.84 Q168.797 1151.84 170.579 1152.19 Q172.385 1152.54 174.329 1153.23 Z" fill="#000000" fill-rule="evenodd" fill-opacity="1" /><path clip-path="url(#clip750)" d="M 0 0 M130.117 899.25 L118.311 917.699 L130.117 917.699 L130.117 899.25 M128.89 895.176 L134.769 895.176 L134.769 917.699 L139.7 917.699 L139.7 921.587 L134.769 921.587 L134.769 929.736 L130.117 929.736 L130.117 921.587 L114.515 921.587 L114.515 917.074 L128.89 895.176 Z" fill="#000000" fill-rule="evenodd" fill-opacity="1" /><path clip-path="url(#clip750)" d="M 0 0 M144.769 923.856 L149.653 923.856 L149.653 929.736 L144.769 929.736 L144.769 923.856 Z" fill="#000000" fill-rule="evenodd" fill-opacity="1" /><path clip-path="url(#clip750)" d="M 0 0 M164.723 913.324 Q161.39 913.324 159.468 915.106 Q157.57 916.888 157.57 920.013 Q157.57 923.138 159.468 924.921 Q161.39 926.703 164.723 926.703 Q168.056 926.703 169.977 924.921 Q171.899 923.115 171.899 920.013 Q171.899 916.888 169.977 915.106 Q168.079 913.324 164.723 913.324 M160.047 911.333 Q157.038 910.592 155.348 908.532 Q153.681 906.472 153.681 903.509 Q153.681 899.365 156.621 896.958 Q159.584 894.551 164.723 894.551 Q169.885 894.551 172.825 896.958 Q175.764 899.365 175.764 903.509 Q175.764 906.472 174.075 908.532 Q172.408 910.592 169.422 911.333 Q172.802 912.12 174.677 914.412 Q176.575 916.703 176.575 920.013 Q176.575 925.036 173.496 927.722 Q170.44 930.407 164.723 930.407 Q159.005 930.407 155.927 927.722 Q152.871 925.036 152.871 920.013 Q152.871 916.703 154.769 914.412 Q156.667 912.12 160.047 911.333 M158.334 903.949 Q158.334 906.634 160.001 908.138 Q161.69 909.643 164.723 909.643 Q167.732 909.643 169.422 908.138 Q171.135 906.634 171.135 903.949 Q171.135 901.263 169.422 899.759 Q167.732 898.254 164.723 898.254 Q161.69 898.254 160.001 899.759 Q158.334 901.263 158.334 903.949 Z" fill="#000000" fill-rule="evenodd" fill-opacity="1" /><path clip-path="url(#clip750)" d="M 0 0 M118.705 637.883 L137.061 637.883 L137.061 641.818 L122.987 641.818 L122.987 650.29 Q124.005 649.943 125.024 649.781 Q126.043 649.595 127.061 649.595 Q132.848 649.595 136.228 652.767 Q139.607 655.938 139.607 661.355 Q139.607 666.933 136.135 670.035 Q132.663 673.114 126.343 673.114 Q124.168 673.114 121.899 672.744 Q119.654 672.373 117.246 671.632 L117.246 666.933 Q119.33 668.068 121.552 668.623 Q123.774 669.179 126.251 669.179 Q130.255 669.179 132.593 667.072 Q134.931 664.966 134.931 661.355 Q134.931 657.744 132.593 655.637 Q130.255 653.531 126.251 653.531 Q124.376 653.531 122.501 653.947 Q120.649 654.364 118.705 655.244 L118.705 637.883 Z" fill="#000000" fill-rule="evenodd" fill-opacity="1" /><path clip-path="url(#clip750)" d="M 0 0 M144.677 666.563 L149.561 666.563 L149.561 672.443 L144.677 672.443 L144.677 666.563 Z" fill="#000000" fill-rule="evenodd" fill-opacity="1" /><path clip-path="url(#clip750)" d="M 0 0 M164.63 640.961 Q161.019 640.961 159.19 644.526 Q157.385 648.068 157.385 655.197 Q157.385 662.304 159.19 665.869 Q161.019 669.41 164.63 669.41 Q168.264 669.41 170.07 665.869 Q171.899 662.304 171.899 655.197 Q171.899 648.068 170.07 644.526 Q168.264 640.961 164.63 640.961 M164.63 637.258 Q170.44 637.258 173.496 641.864 Q176.575 646.447 176.575 655.197 Q176.575 663.924 173.496 668.531 Q170.44 673.114 164.63 673.114 Q158.82 673.114 155.741 668.531 Q152.686 663.924 152.686 655.197 Q152.686 646.447 155.741 641.864 Q158.82 637.258 164.63 637.258 Z" fill="#000000" fill-rule="evenodd" fill-opacity="1" /><path clip-path="url(#clip750)" d="M 0 0 M120.302 380.59 L138.658 380.59 L138.658 384.525 L124.584 384.525 L124.584 392.997 Q125.603 392.65 126.621 392.488 Q127.64 392.303 128.658 392.303 Q134.445 392.303 137.825 395.474 Q141.204 398.645 141.204 404.062 Q141.204 409.64 137.732 412.742 Q134.26 415.821 127.941 415.821 Q125.765 415.821 123.496 415.451 Q121.251 415.08 118.843 414.339 L118.843 409.64 Q120.927 410.775 123.149 411.33 Q125.371 411.886 127.848 411.886 Q131.853 411.886 134.191 409.779 Q136.529 407.673 136.529 404.062 Q136.529 400.451 134.191 398.344 Q131.853 396.238 127.848 396.238 Q125.973 396.238 124.098 396.654 Q122.246 397.071 120.302 397.951 L120.302 380.59 Z" fill="#000000" fill-rule="evenodd" fill-opacity="1" /><path clip-path="url(#clip750)" d="M 0 0 M146.274 409.27 L151.158 409.27 L151.158 415.15 L146.274 415.15 L146.274 409.27 Z" fill="#000000" fill-rule="evenodd" fill-opacity="1" /><path clip-path="url(#clip750)" d="M 0 0 M160.255 411.214 L176.575 411.214 L176.575 415.15 L154.63 415.15 L154.63 411.214 Q157.292 408.46 161.876 403.83 Q166.482 399.178 167.663 397.835 Q169.908 395.312 170.788 393.576 Q171.69 391.816 171.69 390.127 Q171.69 387.372 169.746 385.636 Q167.825 383.9 164.723 383.9 Q162.524 383.9 160.07 384.664 Q157.64 385.428 154.862 386.979 L154.862 382.256 Q157.686 381.122 160.14 380.543 Q162.593 379.965 164.63 379.965 Q170.001 379.965 173.195 382.65 Q176.389 385.335 176.389 389.826 Q176.389 391.955 175.579 393.877 Q174.792 395.775 172.686 398.367 Q172.107 399.039 169.005 402.256 Q165.903 405.451 160.255 411.214 Z" fill="#000000" fill-rule="evenodd" fill-opacity="1" /><path clip-path="url(#clip750)" d="M 0 0 M118.218 123.297 L136.575 123.297 L136.575 127.232 L122.501 127.232 L122.501 135.704 Q123.519 135.357 124.538 135.195 Q125.556 135.01 126.575 135.01 Q132.362 135.01 135.742 138.181 Q139.121 141.352 139.121 146.769 Q139.121 152.347 135.649 155.449 Q132.177 158.528 125.857 158.528 Q123.681 158.528 121.413 158.158 Q119.168 157.787 116.76 157.047 L116.76 152.347 Q118.843 153.482 121.066 154.037 Q123.288 154.593 125.765 154.593 Q129.769 154.593 132.107 152.486 Q134.445 150.38 134.445 146.769 Q134.445 143.158 132.107 141.051 Q129.769 138.945 125.765 138.945 Q123.89 138.945 122.015 139.361 Q120.163 139.778 118.218 140.658 L118.218 123.297 Z" fill="#000000" fill-rule="evenodd" fill-opacity="1" /><path clip-path="url(#clip750)" d="M 0 0 M144.191 151.977 L149.075 151.977 L149.075 157.857 L144.191 157.857 L144.191 151.977 Z" fill="#000000" fill-rule="evenodd" fill-opacity="1" /><path clip-path="url(#clip750)" d="M 0 0 M166.991 127.371 L155.186 145.82 L166.991 145.82 L166.991 127.371 M165.765 123.297 L171.644 123.297 L171.644 145.82 L176.575 145.82 L176.575 149.709 L171.644 149.709 L171.644 157.857 L166.991 157.857 L166.991 149.709 L151.39 149.709 L151.39 145.195 L165.765 123.297 Z" fill="#000000" fill-rule="evenodd" fill-opacity="1" /><path clip-path="url(#clip750)" d="M 0 0 M59.1993 815.533 Q55.2526 813.336 53.3747 810.281 Q51.4968 807.225 51.4968 803.088 Q51.4968 797.518 55.4117 794.494 Q59.2948 791.47 66.4881 791.47 L88.0042 791.47 L88.0042 797.358 L66.679 797.358 Q61.5546 797.358 59.072 799.173 Q56.5894 800.987 56.5894 804.711 Q56.5894 809.262 59.6131 811.904 Q62.6368 814.546 67.8567 814.546 L88.0042 814.546 L88.0042 820.434 L66.679 820.434 Q61.5228 820.434 59.072 822.248 Q56.5894 824.063 56.5894 827.85 Q56.5894 832.338 59.6449 834.98 Q62.6686 837.622 67.8567 837.622 L88.0042 837.622 L88.0042 843.51 L52.3562 843.51 L52.3562 837.622 L57.8944 837.622 Q54.616 835.616 53.0564 832.815 Q51.4968 830.015 51.4968 826.163 Q51.4968 822.28 53.4702 819.575 Q55.4436 816.838 59.1993 815.533 Z" fill="#000000" fill-rule="evenodd" fill-opacity="1" /><path clip-path="url(#clip750)" d="M 0 0 M52.3562 785.327 L52.3562 779.471 L88.0042 779.471 L88.0042 785.327 L52.3562 785.327 M38.479 785.327 L38.479 779.471 L45.895 779.471 L45.895 785.327 L38.479 785.327 Z" fill="#000000" fill-rule="evenodd" fill-opacity="1" /><path clip-path="url(#clip750)" d="M 0 0 M66.4881 743.696 L88.0042 743.696 L88.0042 749.552 L66.679 749.552 Q61.6183 749.552 59.1038 751.525 Q56.5894 753.499 56.5894 757.446 Q56.5894 762.188 59.6131 764.925 Q62.6368 767.662 67.8567 767.662 L88.0042 767.662 L88.0042 773.551 L52.3562 773.551 L52.3562 767.662 L57.8944 767.662 Q54.6797 765.562 53.0883 762.729 Q51.4968 759.864 51.4968 756.141 Q51.4968 749.998 55.3163 746.847 Q59.1038 743.696 66.4881 743.696 Z" fill="#000000" fill-rule="evenodd" fill-opacity="1" /><path clip-path="url(#clip750)" d="M 0 0 M98.8259 710.467 L103.377 710.467 L103.377 744.332 L98.8259 744.332 L98.8259 710.467 Z" fill="#000000" fill-rule="evenodd" fill-opacity="1" /><path clip-path="url(#clip750)" d="M 0 0 M57.7671 680.866 L38.479 680.866 L38.479 675.01 L88.0042 675.01 L88.0042 680.866 L82.657 680.866 Q85.8398 682.712 87.3994 685.545 Q88.9272 688.346 88.9272 692.292 Q88.9272 698.754 83.771 702.828 Q78.6147 706.87 70.212 706.87 Q61.8093 706.87 56.6531 702.828 Q51.4968 698.754 51.4968 692.292 Q51.4968 688.346 53.0564 685.545 Q54.5842 682.712 57.7671 680.866 M70.212 700.823 Q76.6732 700.823 80.3653 698.181 Q84.0256 695.507 84.0256 690.86 Q84.0256 686.213 80.3653 683.54 Q76.6732 680.866 70.212 680.866 Q63.7508 680.866 60.0905 683.54 Q56.3984 686.213 56.3984 690.86 Q56.3984 695.507 60.0905 698.181 Q63.7508 700.823 70.212 700.823 Z" fill="#000000" fill-rule="evenodd" fill-opacity="1" /><path clip-path="url(#clip750)" d="M 0 0 M52.3562 668.867 L52.3562 663.01 L88.0042 663.01 L88.0042 668.867 L52.3562 668.867 M38.479 668.867 L38.479 663.01 L45.895 663.01 L45.895 668.867 L38.479 668.867 Z" fill="#000000" fill-rule="evenodd" fill-opacity="1" /><path clip-path="url(#clip750)" d="M 0 0 M38.479 638.821 L43.3487 638.821 L43.3487 644.422 Q43.3487 647.573 44.6219 648.815 Q45.895 650.024 49.2052 650.024 L52.3562 650.024 L52.3562 640.38 L56.9077 640.38 L56.9077 650.024 L88.0042 650.024 L88.0042 655.912 L56.9077 655.912 L56.9077 661.514 L52.3562 661.514 L52.3562 655.912 L49.8736 655.912 Q43.9216 655.912 41.2162 653.143 Q38.479 650.374 38.479 644.359 L38.479 638.821 Z" fill="#000000" fill-rule="evenodd" fill-opacity="1" /><path clip-path="url(#clip750)" d="M 0 0 M38.479 614.631 L43.3487 614.631 L43.3487 620.233 Q43.3487 623.384 44.6219 624.625 Q45.895 625.835 49.2052 625.835 L52.3562 625.835 L52.3562 616.19 L56.9077 616.19 L56.9077 625.835 L88.0042 625.835 L88.0042 631.723 L56.9077 631.723 L56.9077 637.325 L52.3562 637.325 L52.3562 631.723 L49.8736 631.723 Q43.9216 631.723 41.2162 628.954 Q38.479 626.185 38.479 620.169 L38.479 614.631 Z" fill="#000000" fill-rule="evenodd" fill-opacity="1" /><path clip-path="url(#clip750)" d="
M1992.6 213.659 L2281.42 213.659 L2281.42 92.6992 L1992.6 92.6992  Z
  " fill="#ffffff" fill-rule="evenodd" fill-opacity="1"/>
<polyline clip-path="url(#clip750)" style="stroke:#000000; stroke-width:4; stroke-opacity:1; fill:none" points="
  1992.6,213.659 2281.42,213.659 2281.42,92.6992 1992.6,92.6992 1992.6,213.659 
  "/>
<polyline clip-path="url(#clip750)" style="stroke:#009af9; stroke-width:4; stroke-opacity:1; fill:none" stroke-dasharray="16, 10" points="
  2016.38,153.179 2159.06,153.179 
  "/>
<path clip-path="url(#clip750)" d="M 0 0 M2196.68 172.867 Q2194.88 177.496 2193.16 178.908 Q2191.45 180.32 2188.58 180.32 L2185.18 180.32 L2185.18 176.755 L2187.68 176.755 Q2189.44 176.755 2190.41 175.922 Q2191.38 175.089 2192.56 171.987 L2193.32 170.043 L2182.84 144.533 L2187.35 144.533 L2195.45 164.811 L2203.56 144.533 L2208.07 144.533 L2196.68 172.867 Z" fill="#000000" fill-rule="evenodd" fill-opacity="1" /><path clip-path="url(#clip750)" d="M 0 0 M2213.95 166.524 L2221.59 166.524 L2221.59 140.158 L2213.28 141.825 L2213.28 137.566 L2221.54 135.899 L2226.22 135.899 L2226.22 166.524 L2233.86 166.524 L2233.86 170.459 L2213.95 170.459 L2213.95 166.524 Z" fill="#000000" fill-rule="evenodd" fill-opacity="1" /></svg>
