<?xml version="1.0" encoding="utf-8"?>
<svg xmlns="http://www.w3.org/2000/svg" xmlns:xlink="http://www.w3.org/1999/xlink" width="600" height="400" viewBox="0 0 2400 1600">
<defs>
  <clipPath id="clip690">
    <rect x="0" y="0" width="2400" height="1600"/>
  </clipPath>
</defs>
<path clip-path="url(#clip690)" d="
M0 1600 L2400 1600 L2400 0 L0 0  Z
  " fill="#ffffff" fill-rule="evenodd" fill-opacity="1"/>
<defs>
  <clipPath id="clip691">
    <rect x="480" y="0" width="1681" height="1600"/>
  </clipPath>
</defs>
<path clip-path="url(#clip690)" d="
M235.283 1410.9 L2352.76 1410.9 L2352.76 47.2441 L235.283 47.2441  Z
  " fill="#ffffff" fill-rule="evenodd" fill-opacity="1"/>
<defs>
  <clipPath id="clip692">
    <rect x="235" y="47" width="2118" height="1365"/>
  </clipPath>
</defs>
<polyline clip-path="url(#clip692)" style="stroke:#000000; stroke-linecap:butt; stroke-linejoin:round; stroke-width:2; stroke-opacity:0.1; fill:none" points="
  757.416,1410.9 757.416,47.2441 
  "/>
<polyline clip-path="url(#clip692)" style="stroke:#000000; stroke-linecap:butt; stroke-linejoin:round; stroke-width:2; stroke-opacity:0.1; fill:none" points="
  1525.12,1410.9 1525.12,47.2441 
  "/>
<polyline clip-path="url(#clip692)" style="stroke:#000000; stroke-linecap:butt; stroke-linejoin:round; stroke-width:2; stroke-opacity:0.1; fill:none" points="
  2292.83,1410.9 2292.83,47.2441 
  "/>
<polyline clip-path="url(#clip690)" style="stroke:#000000; stroke-linecap:butt; stroke-linejoin:round; stroke-width:4; stroke-opacity:1; fill:none" points="
  235.283,1410.9 2352.76,1410.9 
  "/>
<polyline clip-path="url(#clip690)" style="stroke:#000000; stroke-linecap:butt; stroke-linejoin:round; stroke-width:4; stroke-opacity:1; fill:none" points="
  757.416,1410.9 757.416,1392 
  "/>
<polyline clip-path="url(#clip690)" style="stroke:#000000; stroke-linecap:butt; stroke-linejoin:round; stroke-width:4; stroke-opacity:1; fill:none" points="
  1525.12,1410.9 1525.12,1392 
  "/>
<polyline clip-path="url(#clip690)" style="stroke:#000000; stroke-linecap:butt; stroke-linejoin:round; stroke-width:4; stroke-opacity:1; fill:none" points="
  2292.83,1410.9 2292.83,1392 
  "/>
<path clip-path="url(#clip690)" d="M704.024 1485.02 L711.663 1485.02 L711.663 1458.66 L703.353 1460.32 L703.353 1456.06 L711.616 1454.4 L716.292 1454.4 L716.292 1485.02 L723.931 1485.02 L723.931 1488.96 L704.024 1488.96 L704.024 1485.02 Z" fill="#000000" fill-rule="evenodd" fill-opacity="1" /><path clip-path="url(#clip690)" d="M743.375 1457.48 Q739.764 1457.48 737.936 1461.04 Q736.13 1464.58 736.13 1471.71 Q736.13 1478.82 737.936 1482.38 Q739.764 1485.92 743.375 1485.92 Q747.01 1485.92 748.815 1482.38 Q750.644 1478.82 750.644 1471.71 Q750.644 1464.58 748.815 1461.04 Q747.01 1457.48 743.375 1457.48 M743.375 1453.77 Q749.186 1453.77 752.241 1458.38 Q755.32 1462.96 755.32 1471.71 Q755.32 1480.44 752.241 1485.04 Q749.186 1489.63 743.375 1489.63 Q737.565 1489.63 734.487 1485.04 Q731.431 1480.44 731.431 1471.71 Q731.431 1462.96 734.487 1458.38 Q737.565 1453.77 743.375 1453.77 Z" fill="#000000" fill-rule="evenodd" fill-opacity="1" /><path clip-path="url(#clip690)" d="M765.025 1435.97 Q762.091 1435.97 760.605 1438.86 Q759.138 1441.74 759.138 1447.53 Q759.138 1453.31 760.605 1456.2 Q762.091 1459.08 765.025 1459.08 Q767.977 1459.08 769.444 1456.2 Q770.93 1453.31 770.93 1447.53 Q770.93 1441.74 769.444 1438.86 Q767.977 1435.97 765.025 1435.97 M765.025 1432.96 Q769.745 1432.96 772.228 1436.7 Q774.729 1440.43 774.729 1447.53 Q774.729 1454.62 772.228 1458.37 Q769.745 1462.09 765.025 1462.09 Q760.304 1462.09 757.802 1458.37 Q755.32 1454.62 755.32 1447.53 Q755.32 1440.43 757.802 1436.7 Q760.304 1432.96 765.025 1432.96 Z" fill="#000000" fill-rule="evenodd" fill-opacity="1" /><path clip-path="url(#clip690)" d="M781.406 1456.77 L785.375 1456.77 L785.375 1461.55 L781.406 1461.55 L781.406 1456.77 Z" fill="#000000" fill-rule="evenodd" fill-opacity="1" /><path clip-path="url(#clip690)" d="M801.775 1435.97 Q798.841 1435.97 797.355 1438.86 Q795.888 1441.74 795.888 1447.53 Q795.888 1453.31 797.355 1456.2 Q798.841 1459.08 801.775 1459.08 Q804.728 1459.08 806.195 1456.2 Q807.681 1453.31 807.681 1447.53 Q807.681 1441.74 806.195 1438.86 Q804.728 1435.97 801.775 1435.97 M801.775 1432.96 Q806.496 1432.96 808.978 1436.7 Q811.48 1440.43 811.48 1447.53 Q811.48 1454.62 808.978 1458.37 Q806.496 1462.09 801.775 1462.09 Q797.054 1462.09 794.553 1458.37 Q792.07 1454.62 792.07 1447.53 Q792.07 1440.43 794.553 1436.7 Q797.054 1432.96 801.775 1432.96 Z" fill="#000000" fill-rule="evenodd" fill-opacity="1" /><path clip-path="url(#clip690)" d="M1472.13 1485.02 L1479.77 1485.02 L1479.77 1458.66 L1471.46 1460.32 L1471.46 1456.06 L1479.73 1454.4 L1484.4 1454.4 L1484.4 1485.02 L1492.04 1485.02 L1492.04 1488.96 L1472.13 1488.96 L1472.13 1485.02 Z" fill="#000000" fill-rule="evenodd" fill-opacity="1" /><path clip-path="url(#clip690)" d="M1511.49 1457.48 Q1507.87 1457.48 1506.05 1461.04 Q1504.24 1464.58 1504.24 1471.71 Q1504.24 1478.82 1506.05 1482.38 Q1507.87 1485.92 1511.49 1485.92 Q1515.12 1485.92 1516.93 1482.38 Q1518.75 1478.82 1518.75 1471.71 Q1518.75 1464.58 1516.93 1461.04 Q1515.12 1457.48 1511.49 1457.48 M1511.49 1453.77 Q1517.3 1453.77 1520.35 1458.38 Q1523.43 1462.96 1523.43 1471.71 Q1523.43 1480.44 1520.35 1485.04 Q1517.3 1489.63 1511.49 1489.63 Q1505.68 1489.63 1502.6 1485.04 Q1499.54 1480.44 1499.54 1471.71 Q1499.54 1462.96 1502.6 1458.38 Q1505.68 1453.77 1511.49 1453.77 Z" fill="#000000" fill-rule="evenodd" fill-opacity="1" /><path clip-path="url(#clip690)" d="M1533.13 1435.97 Q1530.2 1435.97 1528.71 1438.86 Q1527.25 1441.74 1527.25 1447.53 Q1527.25 1453.31 1528.71 1456.2 Q1530.2 1459.08 1533.13 1459.08 Q1536.09 1459.08 1537.55 1456.2 Q1539.04 1453.31 1539.04 1447.53 Q1539.04 1441.74 1537.55 1438.86 Q1536.09 1435.97 1533.13 1435.97 M1533.13 1432.96 Q1537.86 1432.96 1540.34 1436.7 Q1542.84 1440.43 1542.84 1447.53 Q1542.84 1454.62 1540.34 1458.37 Q1537.86 1462.09 1533.13 1462.09 Q1528.41 1462.09 1525.91 1458.37 Q1523.43 1454.62 1523.43 1447.53 Q1523.43 1440.43 1525.91 1436.7 Q1528.41 1432.96 1533.13 1432.96 Z" fill="#000000" fill-rule="evenodd" fill-opacity="1" /><path clip-path="url(#clip690)" d="M1549.52 1456.77 L1553.48 1456.77 L1553.48 1461.55 L1549.52 1461.55 L1549.52 1456.77 Z" fill="#000000" fill-rule="evenodd" fill-opacity="1" /><path clip-path="url(#clip690)" d="M1561.8 1433.47 L1576.71 1433.47 L1576.71 1436.66 L1565.28 1436.66 L1565.28 1443.55 Q1566.1 1443.27 1566.93 1443.13 Q1567.76 1442.98 1568.59 1442.98 Q1573.29 1442.98 1576.04 1445.56 Q1578.78 1448.14 1578.78 1452.54 Q1578.78 1457.07 1575.96 1459.59 Q1573.14 1462.09 1568 1462.09 Q1566.24 1462.09 1564.39 1461.79 Q1562.57 1461.49 1560.61 1460.89 L1560.61 1457.07 Q1562.31 1457.99 1564.11 1458.44 Q1565.92 1458.89 1567.93 1458.89 Q1571.18 1458.89 1573.08 1457.18 Q1574.98 1455.47 1574.98 1452.54 Q1574.98 1449.6 1573.08 1447.89 Q1571.18 1446.18 1567.93 1446.18 Q1566.41 1446.18 1564.88 1446.52 Q1563.38 1446.86 1561.8 1447.57 L1561.8 1433.47 Z" fill="#000000" fill-rule="evenodd" fill-opacity="1" /><path clip-path="url(#clip690)" d="M2240.28 1485.02 L2247.92 1485.02 L2247.92 1458.66 L2239.61 1460.32 L2239.61 1456.06 L2247.87 1454.4 L2252.55 1454.4 L2252.55 1485.02 L2260.19 1485.02 L2260.19 1488.96 L2240.28 1488.96 L2240.28 1485.02 Z" fill="#000000" fill-rule="evenodd" fill-opacity="1" /><path clip-path="url(#clip690)" d="M2279.63 1457.48 Q2276.02 1457.48 2274.19 1461.04 Q2272.39 1464.58 2272.39 1471.71 Q2272.39 1478.82 2274.19 1482.38 Q2276.02 1485.92 2279.63 1485.92 Q2283.27 1485.92 2285.07 1482.38 Q2286.9 1478.82 2286.9 1471.71 Q2286.9 1464.58 2285.07 1461.04 Q2283.27 1457.48 2279.63 1457.48 M2279.63 1453.77 Q2285.44 1453.77 2288.5 1458.38 Q2291.58 1462.96 2291.58 1471.71 Q2291.58 1480.44 2288.5 1485.04 Q2285.44 1489.63 2279.63 1489.63 Q2273.82 1489.63 2270.74 1485.04 Q2267.69 1480.44 2267.69 1471.71 Q2267.69 1462.96 2270.74 1458.38 Q2273.82 1453.77 2279.63 1453.77 Z" fill="#000000" fill-rule="evenodd" fill-opacity="1" /><path clip-path="url(#clip690)" d="M2292.12 1458.35 L2298.33 1458.35 L2298.33 1436.93 L2291.58 1438.28 L2291.58 1434.82 L2298.29 1433.47 L2302.09 1433.47 L2302.09 1458.35 L2308.3 1458.35 L2308.3 1461.55 L2292.12 1461.55 L2292.12 1458.35 Z" fill="#000000" fill-rule="evenodd" fill-opacity="1" /><path clip-path="url(#clip690)" d="M2315.97 1456.77 L2319.94 1456.77 L2319.94 1461.55 L2315.97 1461.55 L2315.97 1456.77 Z" fill="#000000" fill-rule="evenodd" fill-opacity="1" /><path clip-path="url(#clip690)" d="M2336.34 1435.97 Q2333.41 1435.97 2331.92 1438.86 Q2330.45 1441.74 2330.45 1447.53 Q2330.45 1453.31 2331.92 1456.2 Q2333.41 1459.08 2336.34 1459.08 Q2339.29 1459.08 2340.76 1456.2 Q2342.25 1453.31 2342.25 1447.53 Q2342.25 1441.74 2340.76 1438.86 Q2339.29 1435.97 2336.34 1435.97 M2336.34 1432.96 Q2341.06 1432.96 2343.54 1436.7 Q2346.04 1440.43 2346.04 1447.53 Q2346.04 1454.62 2343.54 1458.37 Q2341.06 1462.09 2336.34 1462.09 Q2331.62 1462.09 2329.12 1458.37 Q2326.64 1454.62 2326.64 1447.53 Q2326.64 1440.43 2329.12 1436.7 Q2331.62 1432.96 2336.34 1432.96 Z" fill="#000000" fill-rule="evenodd" fill-opacity="1" /><path clip-path="url(#clip690)" d="M1299.22 1557.6 L1297.82 1550.25 Q1296.39 1542.71 1290.73 1542.71 Q1286.46 1542.71 1284.52 1546.21 Q1282.07 1550.6 1282.07 1556.39 Q1282.07 1563.4 1284.45 1566.74 Q1286.87 1570.14 1290.73 1570.14 Q1294.99 1570.14 1297.28 1563.36 L1299.22 1557.6 M1302.5 1547.86 L1305.65 1538.54 L1310.87 1538.54 L1304.35 1557.86 L1305.62 1564.83 Q1305.91 1566.39 1307.02 1567.69 Q1308.33 1569.22 1309.34 1569.22 L1312.15 1569.22 L1312.15 1574.19 L1308.64 1574.19 Q1305.65 1574.19 1302.98 1571.51 Q1301.67 1570.18 1301.13 1567.37 Q1299.67 1570.91 1296.68 1573.68 Q1295.28 1574.98 1290.73 1574.98 Q1283.25 1574.98 1279.62 1570.14 Q1275.89 1565.15 1275.89 1556.39 Q1275.89 1547.04 1279.94 1542.64 Q1284.42 1537.74 1290.73 1537.74 Q1300.62 1537.74 1302.5 1547.86 Z" fill="#000000" fill-rule="evenodd" fill-opacity="1" /><polyline clip-path="url(#clip692)" style="stroke:#000000; stroke-linecap:butt; stroke-linejoin:round; stroke-width:2; stroke-opacity:0.1; fill:none" points="
  235.283,1377.7 2352.76,1377.7 
  "/>
<polyline clip-path="url(#clip692)" style="stroke:#000000; stroke-linecap:butt; stroke-linejoin:round; stroke-width:2; stroke-opacity:0.1; fill:none" points="
  235.283,1073.84 2352.76,1073.84 
  "/>
<polyline clip-path="url(#clip692)" style="stroke:#000000; stroke-linecap:butt; stroke-linejoin:round; stroke-width:2; stroke-opacity:0.1; fill:none" points="
  235.283,769.97 2352.76,769.97 
  "/>
<polyline clip-path="url(#clip692)" style="stroke:#000000; stroke-linecap:butt; stroke-linejoin:round; stroke-width:2; stroke-opacity:0.1; fill:none" points="
  235.283,466.103 2352.76,466.103 
  "/>
<polyline clip-path="url(#clip692)" style="stroke:#000000; stroke-linecap:butt; stroke-linejoin:round; stroke-width:2; stroke-opacity:0.1; fill:none" points="
  235.283,162.235 2352.76,162.235 
  "/>
<polyline clip-path="url(#clip690)" style="stroke:#000000; stroke-linecap:butt; stroke-linejoin:round; stroke-width:4; stroke-opacity:1; fill:none" points="
  235.283,1410.9 235.283,47.2441 
  "/>
<polyline clip-path="url(#clip690)" style="stroke:#000000; stroke-linecap:butt; stroke-linejoin:round; stroke-width:4; stroke-opacity:1; fill:none" points="
  235.283,1377.7 254.18,1377.7 
  "/>
<polyline clip-path="url(#clip690)" style="stroke:#000000; stroke-linecap:butt; stroke-linejoin:round; stroke-width:4; stroke-opacity:1; fill:none" points="
  235.283,1073.84 254.18,1073.84 
  "/>
<polyline clip-path="url(#clip690)" style="stroke:#000000; stroke-linecap:butt; stroke-linejoin:round; stroke-width:4; stroke-opacity:1; fill:none" points="
  235.283,769.97 254.18,769.97 
  "/>
<polyline clip-path="url(#clip690)" style="stroke:#000000; stroke-linecap:butt; stroke-linejoin:round; stroke-width:4; stroke-opacity:1; fill:none" points="
  235.283,466.103 254.18,466.103 
  "/>
<polyline clip-path="url(#clip690)" style="stroke:#000000; stroke-linecap:butt; stroke-linejoin:round; stroke-width:4; stroke-opacity:1; fill:none" points="
  235.283,162.235 254.18,162.235 
  "/>
<path clip-path="url(#clip690)" d="M187.338 1363.5 Q183.727 1363.5 181.899 1367.07 Q180.093 1370.61 180.093 1377.74 Q180.093 1384.85 181.899 1388.41 Q183.727 1391.95 187.338 1391.95 Q190.973 1391.95 192.778 1388.41 Q194.607 1384.85 194.607 1377.74 Q194.607 1370.61 192.778 1367.07 Q190.973 1363.5 187.338 1363.5 M187.338 1359.8 Q193.149 1359.8 196.204 1364.41 Q199.283 1368.99 199.283 1377.74 Q199.283 1386.47 196.204 1391.07 Q193.149 1395.66 187.338 1395.66 Q181.528 1395.66 178.45 1391.07 Q175.394 1386.47 175.394 1377.74 Q175.394 1368.99 178.45 1364.41 Q181.528 1359.8 187.338 1359.8 Z" fill="#000000" fill-rule="evenodd" fill-opacity="1" /><path clip-path="url(#clip690)" d="M121.043 1087.18 L137.362 1087.18 L137.362 1091.12 L115.418 1091.12 L115.418 1087.18 Q118.08 1084.43 122.663 1079.8 Q127.269 1075.14 128.45 1073.8 Q130.695 1071.28 131.575 1069.54 Q132.478 1067.78 132.478 1066.09 Q132.478 1063.34 130.533 1061.6 Q128.612 1059.87 125.51 1059.87 Q123.311 1059.87 120.857 1060.63 Q118.427 1061.39 115.649 1062.95 L115.649 1058.22 Q118.473 1057.09 120.927 1056.51 Q123.38 1055.93 125.418 1055.93 Q130.788 1055.93 133.982 1058.62 Q137.177 1061.3 137.177 1065.79 Q137.177 1067.92 136.367 1069.84 Q135.579 1071.74 133.473 1074.33 Q132.894 1075.01 129.792 1078.22 Q126.691 1081.42 121.043 1087.18 Z" fill="#000000" fill-rule="evenodd" fill-opacity="1" /><path clip-path="url(#clip690)" d="M157.177 1059.64 Q153.566 1059.64 151.737 1063.2 Q149.931 1066.74 149.931 1073.87 Q149.931 1080.98 151.737 1084.54 Q153.566 1088.08 157.177 1088.08 Q160.811 1088.08 162.616 1084.54 Q164.445 1080.98 164.445 1073.87 Q164.445 1066.74 162.616 1063.2 Q160.811 1059.64 157.177 1059.64 M157.177 1055.93 Q162.987 1055.93 166.042 1060.54 Q169.121 1065.12 169.121 1073.87 Q169.121 1082.6 166.042 1087.2 Q162.987 1091.79 157.177 1091.79 Q151.366 1091.79 148.288 1087.2 Q145.232 1082.6 145.232 1073.87 Q145.232 1065.12 148.288 1060.54 Q151.366 1055.93 157.177 1055.93 Z" fill="#000000" fill-rule="evenodd" fill-opacity="1" /><path clip-path="url(#clip690)" d="M187.338 1059.64 Q183.727 1059.64 181.899 1063.2 Q180.093 1066.74 180.093 1073.87 Q180.093 1080.98 181.899 1084.54 Q183.727 1088.08 187.338 1088.08 Q190.973 1088.08 192.778 1084.54 Q194.607 1080.98 194.607 1073.87 Q194.607 1066.74 192.778 1063.2 Q190.973 1059.64 187.338 1059.64 M187.338 1055.93 Q193.149 1055.93 196.204 1060.54 Q199.283 1065.12 199.283 1073.87 Q199.283 1082.6 196.204 1087.2 Q193.149 1091.79 187.338 1091.79 Q181.528 1091.79 178.45 1087.2 Q175.394 1082.6 175.394 1073.87 Q175.394 1065.12 178.45 1060.54 Q181.528 1055.93 187.338 1055.93 Z" fill="#000000" fill-rule="evenodd" fill-opacity="1" /><path clip-path="url(#clip690)" d="M129.862 756.764 L118.056 775.213 L129.862 775.213 L129.862 756.764 M128.635 752.69 L134.515 752.69 L134.515 775.213 L139.445 775.213 L139.445 779.102 L134.515 779.102 L134.515 787.25 L129.862 787.25 L129.862 779.102 L114.26 779.102 L114.26 774.588 L128.635 752.69 Z" fill="#000000" fill-rule="evenodd" fill-opacity="1" /><path clip-path="url(#clip690)" d="M157.177 755.768 Q153.566 755.768 151.737 759.333 Q149.931 762.875 149.931 770.004 Q149.931 777.111 151.737 780.676 Q153.566 784.217 157.177 784.217 Q160.811 784.217 162.616 780.676 Q164.445 777.111 164.445 770.004 Q164.445 762.875 162.616 759.333 Q160.811 755.768 157.177 755.768 M157.177 752.065 Q162.987 752.065 166.042 756.671 Q169.121 761.254 169.121 770.004 Q169.121 778.731 166.042 783.338 Q162.987 787.921 157.177 787.921 Q151.366 787.921 148.288 783.338 Q145.232 778.731 145.232 770.004 Q145.232 761.254 148.288 756.671 Q151.366 752.065 157.177 752.065 Z" fill="#000000" fill-rule="evenodd" fill-opacity="1" /><path clip-path="url(#clip690)" d="M187.338 755.768 Q183.727 755.768 181.899 759.333 Q180.093 762.875 180.093 770.004 Q180.093 777.111 181.899 780.676 Q183.727 784.217 187.338 784.217 Q190.973 784.217 192.778 780.676 Q194.607 777.111 194.607 770.004 Q194.607 762.875 192.778 759.333 Q190.973 755.768 187.338 755.768 M187.338 752.065 Q193.149 752.065 196.204 756.671 Q199.283 761.254 199.283 770.004 Q199.283 778.731 196.204 783.338 Q193.149 787.921 187.338 787.921 Q181.528 787.921 178.45 783.338 Q175.394 778.731 175.394 770.004 Q175.394 761.254 178.45 756.671 Q181.528 752.065 187.338 752.065 Z" fill="#000000" fill-rule="evenodd" fill-opacity="1" /><path clip-path="url(#clip690)" d="M127.593 464.239 Q124.445 464.239 122.593 466.392 Q120.765 468.545 120.765 472.295 Q120.765 476.021 122.593 478.197 Q124.445 480.35 127.593 480.35 Q130.742 480.35 132.57 478.197 Q134.422 476.021 134.422 472.295 Q134.422 468.545 132.57 466.392 Q130.742 464.239 127.593 464.239 M136.876 449.586 L136.876 453.846 Q135.117 453.012 133.311 452.573 Q131.529 452.133 129.769 452.133 Q125.14 452.133 122.686 455.258 Q120.255 458.383 119.908 464.702 Q121.274 462.688 123.334 461.623 Q125.394 460.535 127.871 460.535 Q133.08 460.535 136.089 463.707 Q139.121 466.855 139.121 472.295 Q139.121 477.619 135.973 480.836 Q132.825 484.054 127.593 484.054 Q121.598 484.054 118.427 479.471 Q115.256 474.864 115.256 466.137 Q115.256 457.943 119.144 453.082 Q123.033 448.198 129.584 448.198 Q131.343 448.198 133.126 448.545 Q134.931 448.892 136.876 449.586 Z" fill="#000000" fill-rule="evenodd" fill-opacity="1" /><path clip-path="url(#clip690)" d="M157.177 451.901 Q153.566 451.901 151.737 455.466 Q149.931 459.008 149.931 466.137 Q149.931 473.244 151.737 476.809 Q153.566 480.35 157.177 480.35 Q160.811 480.35 162.616 476.809 Q164.445 473.244 164.445 466.137 Q164.445 459.008 162.616 455.466 Q160.811 451.901 157.177 451.901 M157.177 448.198 Q162.987 448.198 166.042 452.804 Q169.121 457.387 169.121 466.137 Q169.121 474.864 166.042 479.471 Q162.987 484.054 157.177 484.054 Q151.366 484.054 148.288 479.471 Q145.232 474.864 145.232 466.137 Q145.232 457.387 148.288 452.804 Q151.366 448.198 157.177 448.198 Z" fill="#000000" fill-rule="evenodd" fill-opacity="1" /><path clip-path="url(#clip690)" d="M187.338 451.901 Q183.727 451.901 181.899 455.466 Q180.093 459.008 180.093 466.137 Q180.093 473.244 181.899 476.809 Q183.727 480.35 187.338 480.35 Q190.973 480.35 192.778 476.809 Q194.607 473.244 194.607 466.137 Q194.607 459.008 192.778 455.466 Q190.973 451.901 187.338 451.901 M187.338 448.198 Q193.149 448.198 196.204 452.804 Q199.283 457.387 199.283 466.137 Q199.283 474.864 196.204 479.471 Q193.149 484.054 187.338 484.054 Q181.528 484.054 178.45 479.471 Q175.394 474.864 175.394 466.137 Q175.394 457.387 178.45 452.804 Q181.528 448.198 187.338 448.198 Z" fill="#000000" fill-rule="evenodd" fill-opacity="1" /><path clip-path="url(#clip690)" d="M127.015 163.104 Q123.681 163.104 121.76 164.886 Q119.862 166.668 119.862 169.793 Q119.862 172.918 121.76 174.701 Q123.681 176.483 127.015 176.483 Q130.348 176.483 132.269 174.701 Q134.191 172.895 134.191 169.793 Q134.191 166.668 132.269 164.886 Q130.371 163.104 127.015 163.104 M122.339 161.113 Q119.33 160.372 117.64 158.312 Q115.973 156.252 115.973 153.289 Q115.973 149.145 118.913 146.738 Q121.876 144.33 127.015 144.33 Q132.177 144.33 135.117 146.738 Q138.056 149.145 138.056 153.289 Q138.056 156.252 136.367 158.312 Q134.7 160.372 131.714 161.113 Q135.093 161.9 136.968 164.191 Q138.867 166.483 138.867 169.793 Q138.867 174.816 135.788 177.502 Q132.732 180.187 127.015 180.187 Q121.297 180.187 118.218 177.502 Q115.163 174.816 115.163 169.793 Q115.163 166.483 117.061 164.191 Q118.959 161.9 122.339 161.113 M120.626 153.729 Q120.626 156.414 122.293 157.918 Q123.982 159.423 127.015 159.423 Q130.024 159.423 131.714 157.918 Q133.427 156.414 133.427 153.729 Q133.427 151.043 131.714 149.539 Q130.024 148.034 127.015 148.034 Q123.982 148.034 122.293 149.539 Q120.626 151.043 120.626 153.729 Z" fill="#000000" fill-rule="evenodd" fill-opacity="1" /><path clip-path="url(#clip690)" d="M157.177 148.034 Q153.566 148.034 151.737 151.599 Q149.931 155.141 149.931 162.27 Q149.931 169.377 151.737 172.941 Q153.566 176.483 157.177 176.483 Q160.811 176.483 162.616 172.941 Q164.445 169.377 164.445 162.27 Q164.445 155.141 162.616 151.599 Q160.811 148.034 157.177 148.034 M157.177 144.33 Q162.987 144.33 166.042 148.937 Q169.121 153.52 169.121 162.27 Q169.121 170.997 166.042 175.603 Q162.987 180.187 157.177 180.187 Q151.366 180.187 148.288 175.603 Q145.232 170.997 145.232 162.27 Q145.232 153.52 148.288 148.937 Q151.366 144.33 157.177 144.33 Z" fill="#000000" fill-rule="evenodd" fill-opacity="1" /><path clip-path="url(#clip690)" d="M187.338 148.034 Q183.727 148.034 181.899 151.599 Q180.093 155.141 180.093 162.27 Q180.093 169.377 181.899 172.941 Q183.727 176.483 187.338 176.483 Q190.973 176.483 192.778 172.941 Q194.607 169.377 194.607 162.27 Q194.607 155.141 192.778 151.599 Q190.973 148.034 187.338 148.034 M187.338 144.33 Q193.149 144.33 196.204 148.937 Q199.283 153.52 199.283 162.27 Q199.283 170.997 196.204 175.603 Q193.149 180.187 187.338 180.187 Q181.528 180.187 178.45 175.603 Q175.394 170.997 175.394 162.27 Q175.394 153.52 178.45 148.937 Q181.528 144.33 187.338 144.33 Z" fill="#000000" fill-rule="evenodd" fill-opacity="1" /><path clip-path="url(#clip690)" d="M35.1993 829.203 Q31.2526 827.007 29.3747 823.951 Q27.4968 820.896 27.4968 816.758 Q27.4968 811.188 31.4117 808.164 Q35.2948 805.141 42.4881 805.141 L64.0042 805.141 L64.0042 811.029 L42.679 811.029 Q37.5546 811.029 35.072 812.843 Q32.5894 814.657 32.5894 818.381 Q32.5894 822.933 35.6131 825.574 Q38.6368 828.216 43.8567 828.216 L64.0042 828.216 L64.0042 834.105 L42.679 834.105 Q37.5228 834.105 35.072 835.919 Q32.5894 837.733 32.5894 841.521 Q32.5894 846.008 35.6449 848.65 Q38.6686 851.292 43.8567 851.292 L64.0042 851.292 L64.0042 857.18 L28.3562 857.18 L28.3562 851.292 L33.8944 851.292 Q30.616 849.287 29.0564 846.486 Q27.4968 843.685 27.4968 839.834 Q27.4968 835.951 29.4702 833.245 Q31.4436 830.508 35.1993 829.203 Z" fill="#000000" fill-rule="evenodd" fill-opacity="1" /><path clip-path="url(#clip690)" d="M28.3562 793.459 L28.3562 787.603 L64.0042 787.603 L64.0042 793.459 L28.3562 793.459 M14.479 793.459 L14.479 787.603 L21.895 787.603 L21.895 793.459 L14.479 793.459 Z" fill="#000000" fill-rule="evenodd" fill-opacity="1" /><path clip-path="url(#clip690)" d="M42.4881 745.717 L64.0042 745.717 L64.0042 751.573 L42.679 751.573 Q37.6183 751.573 35.1038 753.547 Q32.5894 755.52 32.5894 759.467 Q32.5894 764.209 35.6131 766.946 Q38.6368 769.684 43.8567 769.684 L64.0042 769.684 L64.0042 775.572 L28.3562 775.572 L28.3562 769.684 L33.8944 769.684 Q30.6797 767.583 29.0883 764.75 Q27.4968 761.886 27.4968 758.162 Q27.4968 752.019 31.3163 748.868 Q35.1038 745.717 42.4881 745.717 Z" fill="#000000" fill-rule="evenodd" fill-opacity="1" /><path clip-path="url(#clip690)" d="M74.8259 706.95 L79.3773 706.95 L79.3773 740.815 L74.8259 740.815 L74.8259 706.95 Z" fill="#000000" fill-rule="evenodd" fill-opacity="1" /><path clip-path="url(#clip690)" d="M33.7671 677.986 L14.479 677.986 L14.479 672.129 L64.0042 672.129 L64.0042 677.986 L58.657 677.986 Q61.8398 679.832 63.3994 682.664 Q64.9272 685.465 64.9272 689.412 Q64.9272 695.873 59.771 699.947 Q54.6147 703.989 46.212 703.989 Q37.8093 703.989 32.6531 699.947 Q27.4968 695.873 27.4968 689.412 Q27.4968 685.465 29.0564 682.664 Q30.5842 679.832 33.7671 677.986 M46.212 697.942 Q52.6732 697.942 56.3653 695.3 Q60.0256 692.627 60.0256 687.98 Q60.0256 683.333 56.3653 680.659 Q52.6732 677.986 46.212 677.986 Q39.7508 677.986 36.0905 680.659 Q32.3984 683.333 32.3984 687.98 Q32.3984 692.627 36.0905 695.3 Q39.7508 697.942 46.212 697.942 Z" fill="#000000" fill-rule="evenodd" fill-opacity="1" /><path clip-path="url(#clip690)" d="M28.3562 660.066 L28.3562 654.21 L64.0042 654.21 L64.0042 660.066 L28.3562 660.066 M14.479 660.066 L14.479 654.21 L21.895 654.21 L21.895 660.066 L14.479 660.066 Z" fill="#000000" fill-rule="evenodd" fill-opacity="1" /><path clip-path="url(#clip690)" d="M14.479 623.909 L19.3487 623.909 L19.3487 629.511 Q19.3487 632.662 20.6219 633.903 Q21.895 635.113 25.2052 635.113 L28.3562 635.113 L28.3562 625.468 L32.9077 625.468 L32.9077 635.113 L64.0042 635.113 L64.0042 641.001 L32.9077 641.001 L32.9077 646.603 L28.3562 646.603 L28.3562 641.001 L25.8736 641.001 Q19.9216 641.001 17.2162 638.232 Q14.479 635.463 14.479 629.447 L14.479 623.909 Z" fill="#000000" fill-rule="evenodd" fill-opacity="1" /><path clip-path="url(#clip690)" d="M14.479 600.961 L19.3487 600.961 L19.3487 606.562 Q19.3487 609.713 20.6219 610.955 Q21.895 612.164 25.2052 612.164 L28.3562 612.164 L28.3562 602.52 L32.9077 602.52 L32.9077 612.164 L64.0042 612.164 L64.0042 618.052 L32.9077 618.052 L32.9077 623.654 L28.3562 623.654 L28.3562 618.052 L25.8736 618.052 Q19.9216 618.052 17.2162 615.283 Q14.479 612.514 14.479 606.499 L14.479 600.961 Z" fill="#000000" fill-rule="evenodd" fill-opacity="1" /><polyline clip-path="url(#clip692)" style="stroke:#009af9; stroke-linecap:butt; stroke-linejoin:round; stroke-width:20; stroke-opacity:1; fill:none" stroke-dasharray="80, 50" points="
  295.211,1318.15 757.416,1368.95 1027.79,1372.3 1219.62,1361.9 1368.42,1294.25 1489.99,1204.06 1592.78,1103.7 1681.83,1000.61 1760.37,899.032 1830.62,801.172 
  1894.18,708.082 1952.2,620.174 2005.57,537.505 2054.99,459.932 2101,387.21 2144.03,319.045 2184.46,255.128 2222.57,195.149 2258.62,138.812 2292.83,85.838 
  
  "/>
<path clip-path="url(#clip690)" d="
M1994.47 196.379 L2282.17 196.379 L2282.17 92.6992 L1994.47 92.6992  Z
  " fill="#ffffff" fill-rule="evenodd" fill-opacity="1"/>
<polyline clip-path="url(#clip690)" style="stroke:#000000; stroke-linecap:butt; stroke-linejoin:round; stroke-width:4; stroke-opacity:1; fill:none" points="
  1994.47,196.379 2282.17,196.379 2282.17,92.6992 1994.47,92.6992 1994.47,196.379 
  "/>
<polyline clip-path="url(#clip690)" style="stroke:#009af9; stroke-linecap:butt; stroke-linejoin:round; stroke-width:4; stroke-opacity:1; fill:none" stroke-dasharray="16, 10" points="
  2018,144.539 2159.16,144.539 
  "/>
<path clip-path="url(#clip690)" d="M2196.53 164.227 Q2194.73 168.856 2193.01 170.268 Q2191.3 171.68 2188.43 171.68 L2185.03 171.68 L2185.03 168.115 L2187.53 168.115 Q2189.29 168.115 2190.26 167.282 Q2191.23 166.449 2192.41 163.347 L2193.17 161.403 L2182.69 135.893 L2187.2 135.893 L2195.3 156.171 L2203.41 135.893 L2207.92 135.893 L2196.53 164.227 Z" fill="#000000" fill-rule="evenodd" fill-opacity="1" /><path clip-path="url(#clip690)" d="M2215.21 157.884 L2222.85 157.884 L2222.85 131.518 L2214.54 133.185 L2214.54 128.926 L2222.8 127.259 L2227.48 127.259 L2227.48 157.884 L2235.12 157.884 L2235.12 161.819 L2215.21 161.819 L2215.21 157.884 Z" fill="#000000" fill-rule="evenodd" fill-opacity="1" /></svg>
