<?xml version="1.0" encoding="utf-8"?>
<svg xmlns="http://www.w3.org/2000/svg" xmlns:xlink="http://www.w3.org/1999/xlink" width="600" height="400" viewBox="0 0 2400 1600">
<defs>
  <clipPath id="clip020">
    <rect x="0" y="0" width="2400" height="1600"/>
  </clipPath>
</defs>
<path clip-path="url(#clip020)" d="
M0 1600 L2400 1600 L2400 0 L0 0  Z
  " fill="#ffffff" fill-rule="evenodd" fill-opacity="1"/>
<defs>
  <clipPath id="clip021">
    <rect x="480" y="0" width="1681" height="1600"/>
  </clipPath>
</defs>
<path clip-path="url(#clip020)" d="
M229.473 1410.9 L2352.76 1410.9 L2352.76 47.2441 L229.473 47.2441  Z
  " fill="#ffffff" fill-rule="evenodd" fill-opacity="1"/>
<defs>
  <clipPath id="clip022">
    <rect x="229" y="47" width="2124" height="1365"/>
  </clipPath>
</defs>
<polyline clip-path="url(#clip022)" style="stroke:#000000; stroke-width:2; stroke-opacity:0.1; fill:none" points="
  292.992,1410.9 292.992,47.2441 
  "/>
<polyline clip-path="url(#clip022)" style="stroke:#000000; stroke-width:2; stroke-opacity:0.1; fill:none" points="
  625.7,1410.9 625.7,47.2441 
  "/>
<polyline clip-path="url(#clip022)" style="stroke:#000000; stroke-width:2; stroke-opacity:0.1; fill:none" points="
  958.407,1410.9 958.407,47.2441 
  "/>
<polyline clip-path="url(#clip022)" style="stroke:#000000; stroke-width:2; stroke-opacity:0.1; fill:none" points="
  1291.11,1410.9 1291.11,47.2441 
  "/>
<polyline clip-path="url(#clip022)" style="stroke:#000000; stroke-width:2; stroke-opacity:0.1; fill:none" points="
  1623.82,1410.9 1623.82,47.2441 
  "/>
<polyline clip-path="url(#clip022)" style="stroke:#000000; stroke-width:2; stroke-opacity:0.1; fill:none" points="
  1956.53,1410.9 1956.53,47.2441 
  "/>
<polyline clip-path="url(#clip022)" style="stroke:#000000; stroke-width:2; stroke-opacity:0.1; fill:none" points="
  2289.24,1410.9 2289.24,47.2441 
  "/>
<polyline clip-path="url(#clip020)" style="stroke:#000000; stroke-width:4; stroke-opacity:1; fill:none" points="
  229.473,1410.9 2352.76,1410.9 
  "/>
<polyline clip-path="url(#clip020)" style="stroke:#000000; stroke-width:4; stroke-opacity:1; fill:none" points="
  292.992,1410.9 292.992,1394.53 
  "/>
<polyline clip-path="url(#clip020)" style="stroke:#000000; stroke-width:4; stroke-opacity:1; fill:none" points="
  625.7,1410.9 625.7,1394.53 
  "/>
<polyline clip-path="url(#clip020)" style="stroke:#000000; stroke-width:4; stroke-opacity:1; fill:none" points="
  958.407,1410.9 958.407,1394.53 
  "/>
<polyline clip-path="url(#clip020)" style="stroke:#000000; stroke-width:4; stroke-opacity:1; fill:none" points="
  1291.11,1410.9 1291.11,1394.53 
  "/>
<polyline clip-path="url(#clip020)" style="stroke:#000000; stroke-width:4; stroke-opacity:1; fill:none" points="
  1623.82,1410.9 1623.82,1394.53 
  "/>
<polyline clip-path="url(#clip020)" style="stroke:#000000; stroke-width:4; stroke-opacity:1; fill:none" points="
  1956.53,1410.9 1956.53,1394.53 
  "/>
<polyline clip-path="url(#clip020)" style="stroke:#000000; stroke-width:4; stroke-opacity:1; fill:none" points="
  2289.24,1410.9 2289.24,1394.53 
  "/>
<path clip-path="url(#clip020)" d="M 0 0 M232.083 1489.17 L239.722 1489.17 L239.722 1462.8 L231.412 1464.47 L231.412 1460.21 L239.675 1458.54 L244.351 1458.54 L244.351 1489.17 L251.99 1489.17 L251.99 1493.1 L232.083 1493.1 L232.083 1489.17 Z" fill="#000000" fill-rule="evenodd" fill-opacity="1" /><path clip-path="url(#clip020)" d="M 0 0 M267.059 1461.62 Q263.448 1461.62 261.62 1465.19 Q259.814 1468.73 259.814 1475.86 Q259.814 1482.97 261.62 1486.53 Q263.448 1490.07 267.059 1490.07 Q270.694 1490.07 272.499 1486.53 Q274.328 1482.97 274.328 1475.86 Q274.328 1468.73 272.499 1465.19 Q270.694 1461.62 267.059 1461.62 M267.059 1457.92 Q272.87 1457.92 275.925 1462.53 Q279.004 1467.11 279.004 1475.86 Q279.004 1484.59 275.925 1489.19 Q272.87 1493.78 267.059 1493.78 Q261.249 1493.78 258.171 1489.19 Q255.115 1484.59 255.115 1475.86 Q255.115 1467.11 258.171 1462.53 Q261.249 1457.92 267.059 1457.92 Z" fill="#000000" fill-rule="evenodd" fill-opacity="1" /><path clip-path="url(#clip020)" d="M 0 0 M279.004 1452.02 L303.115 1452.02 L303.115 1455.22 L279.004 1455.22 L279.004 1452.02 Z" fill="#000000" fill-rule="evenodd" fill-opacity="1" /><path clip-path="url(#clip020)" d="M 0 0 M315.359 1440.11 Q312.425 1440.11 310.939 1443.01 Q309.472 1445.89 309.472 1451.68 Q309.472 1457.46 310.939 1460.35 Q312.425 1463.23 315.359 1463.23 Q318.312 1463.23 319.779 1460.35 Q321.265 1457.46 321.265 1451.68 Q321.265 1445.89 319.779 1443.01 Q318.312 1440.11 315.359 1440.11 M315.359 1437.11 Q320.08 1437.11 322.563 1440.85 Q325.064 1444.57 325.064 1451.68 Q325.064 1458.77 322.563 1462.51 Q320.08 1466.24 315.359 1466.24 Q310.639 1466.24 308.137 1462.51 Q305.654 1458.77 305.654 1451.68 Q305.654 1444.57 308.137 1440.85 Q310.639 1437.11 315.359 1437.11 Z" fill="#000000" fill-rule="evenodd" fill-opacity="1" /><path clip-path="url(#clip020)" d="M 0 0 M329.183 1460.92 L333.151 1460.92 L333.151 1465.69 L329.183 1465.69 L329.183 1460.92 Z" fill="#000000" fill-rule="evenodd" fill-opacity="1" /><path clip-path="url(#clip020)" d="M 0 0 M348.781 1450.55 Q351.508 1451.14 353.031 1452.98 Q354.573 1454.82 354.573 1457.53 Q354.573 1461.69 351.715 1463.96 Q348.856 1466.24 343.59 1466.24 Q341.822 1466.24 339.941 1465.88 Q338.079 1465.54 336.085 1464.85 L336.085 1461.18 Q337.665 1462.1 339.546 1462.57 Q341.427 1463.04 343.477 1463.04 Q347.05 1463.04 348.912 1461.63 Q350.793 1460.22 350.793 1457.53 Q350.793 1455.05 349.044 1453.66 Q347.314 1452.25 344.21 1452.25 L340.938 1452.25 L340.938 1449.12 L344.361 1449.12 Q347.163 1449.12 348.649 1448.01 Q350.135 1446.89 350.135 1444.78 Q350.135 1442.62 348.593 1441.47 Q347.069 1440.3 344.21 1440.3 Q342.649 1440.3 340.863 1440.64 Q339.076 1440.98 336.932 1441.69 L336.932 1438.31 Q339.095 1437.71 340.975 1437.41 Q342.875 1437.11 344.549 1437.11 Q348.875 1437.11 351.395 1439.08 Q353.915 1441.04 353.915 1444.38 Q353.915 1446.72 352.58 1448.33 Q351.244 1449.93 348.781 1450.55 Z" fill="#000000" fill-rule="evenodd" fill-opacity="1" /><path clip-path="url(#clip020)" d="M 0 0 M565.176 1489.17 L572.814 1489.17 L572.814 1462.8 L564.504 1464.47 L564.504 1460.21 L572.768 1458.54 L577.444 1458.54 L577.444 1489.17 L585.083 1489.17 L585.083 1493.1 L565.176 1493.1 L565.176 1489.17 Z" fill="#000000" fill-rule="evenodd" fill-opacity="1" /><path clip-path="url(#clip020)" d="M 0 0 M600.152 1461.62 Q596.541 1461.62 594.713 1465.19 Q592.907 1468.73 592.907 1475.86 Q592.907 1482.97 594.713 1486.53 Q596.541 1490.07 600.152 1490.07 Q603.787 1490.07 605.592 1486.53 Q607.421 1482.97 607.421 1475.86 Q607.421 1468.73 605.592 1465.19 Q603.787 1461.62 600.152 1461.62 M600.152 1457.92 Q605.962 1457.92 609.018 1462.53 Q612.097 1467.11 612.097 1475.86 Q612.097 1484.59 609.018 1489.19 Q605.962 1493.78 600.152 1493.78 Q594.342 1493.78 591.263 1489.19 Q588.208 1484.59 588.208 1475.86 Q588.208 1467.11 591.263 1462.53 Q594.342 1457.92 600.152 1457.92 Z" fill="#000000" fill-rule="evenodd" fill-opacity="1" /><path clip-path="url(#clip020)" d="M 0 0 M612.097 1452.02 L636.208 1452.02 L636.208 1455.22 L612.097 1455.22 L612.097 1452.02 Z" fill="#000000" fill-rule="evenodd" fill-opacity="1" /><path clip-path="url(#clip020)" d="M 0 0 M648.452 1440.11 Q645.518 1440.11 644.032 1443.01 Q642.565 1445.89 642.565 1451.68 Q642.565 1457.46 644.032 1460.35 Q645.518 1463.23 648.452 1463.23 Q651.405 1463.23 652.872 1460.35 Q654.358 1457.46 654.358 1451.68 Q654.358 1445.89 652.872 1443.01 Q651.405 1440.11 648.452 1440.11 M648.452 1437.11 Q653.173 1437.11 655.655 1440.85 Q658.157 1444.57 658.157 1451.68 Q658.157 1458.77 655.655 1462.51 Q653.173 1466.24 648.452 1466.24 Q643.731 1466.24 641.23 1462.51 Q638.747 1458.77 638.747 1451.68 Q638.747 1444.57 641.23 1440.85 Q643.731 1437.11 648.452 1437.11 Z" fill="#000000" fill-rule="evenodd" fill-opacity="1" /><path clip-path="url(#clip020)" d="M 0 0 M662.276 1460.92 L666.244 1460.92 L666.244 1465.69 L662.276 1465.69 L662.276 1460.92 Z" fill="#000000" fill-rule="evenodd" fill-opacity="1" /><path clip-path="url(#clip020)" d="M 0 0 M673.636 1462.5 L686.895 1462.5 L686.895 1465.69 L669.065 1465.69 L669.065 1462.5 Q671.228 1460.26 674.952 1456.5 Q678.695 1452.72 679.654 1451.63 Q681.479 1449.58 682.193 1448.16 Q682.927 1446.74 682.927 1445.36 Q682.927 1443.12 681.347 1441.71 Q679.786 1440.3 677.266 1440.3 Q675.479 1440.3 673.485 1440.92 Q671.51 1441.54 669.253 1442.8 L669.253 1438.97 Q671.548 1438.05 673.542 1437.58 Q675.535 1437.11 677.19 1437.11 Q681.554 1437.11 684.149 1439.29 Q686.745 1441.47 686.745 1445.12 Q686.745 1446.85 686.086 1448.41 Q685.447 1449.95 683.735 1452.06 Q683.265 1452.6 680.745 1455.22 Q678.225 1457.81 673.636 1462.5 Z" fill="#000000" fill-rule="evenodd" fill-opacity="1" /><path clip-path="url(#clip020)" d="M 0 0 M897.732 1489.17 L905.371 1489.17 L905.371 1462.8 L897.061 1464.47 L897.061 1460.21 L905.325 1458.54 L910.001 1458.54 L910.001 1489.17 L917.64 1489.17 L917.64 1493.1 L897.732 1493.1 L897.732 1489.17 Z" fill="#000000" fill-rule="evenodd" fill-opacity="1" /><path clip-path="url(#clip020)" d="M 0 0 M932.709 1461.62 Q929.098 1461.62 927.269 1465.19 Q925.464 1468.73 925.464 1475.86 Q925.464 1482.97 927.269 1486.53 Q929.098 1490.07 932.709 1490.07 Q936.343 1490.07 938.149 1486.53 Q939.978 1482.97 939.978 1475.86 Q939.978 1468.73 938.149 1465.19 Q936.343 1461.62 932.709 1461.62 M932.709 1457.92 Q938.519 1457.92 941.575 1462.53 Q944.653 1467.11 944.653 1475.86 Q944.653 1484.59 941.575 1489.19 Q938.519 1493.78 932.709 1493.78 Q926.899 1493.78 923.82 1489.19 Q920.765 1484.59 920.765 1475.86 Q920.765 1467.11 923.82 1462.53 Q926.899 1457.92 932.709 1457.92 Z" fill="#000000" fill-rule="evenodd" fill-opacity="1" /><path clip-path="url(#clip020)" d="M 0 0 M944.653 1452.02 L968.765 1452.02 L968.765 1455.22 L944.653 1455.22 L944.653 1452.02 Z" fill="#000000" fill-rule="evenodd" fill-opacity="1" /><path clip-path="url(#clip020)" d="M 0 0 M981.009 1440.11 Q978.075 1440.11 976.589 1443.01 Q975.122 1445.89 975.122 1451.68 Q975.122 1457.46 976.589 1460.35 Q978.075 1463.23 981.009 1463.23 Q983.962 1463.23 985.429 1460.35 Q986.915 1457.46 986.915 1451.68 Q986.915 1445.89 985.429 1443.01 Q983.962 1440.11 981.009 1440.11 M981.009 1437.11 Q985.73 1437.11 988.212 1440.85 Q990.714 1444.57 990.714 1451.68 Q990.714 1458.77 988.212 1462.51 Q985.73 1466.24 981.009 1466.24 Q976.288 1466.24 973.787 1462.51 Q971.304 1458.77 971.304 1451.68 Q971.304 1444.57 973.787 1440.85 Q976.288 1437.11 981.009 1437.11 Z" fill="#000000" fill-rule="evenodd" fill-opacity="1" /><path clip-path="url(#clip020)" d="M 0 0 M994.833 1460.92 L998.801 1460.92 L998.801 1465.69 L994.833 1465.69 L994.833 1460.92 Z" fill="#000000" fill-rule="evenodd" fill-opacity="1" /><path clip-path="url(#clip020)" d="M 0 0 M1003.58 1462.5 L1009.78 1462.5 L1009.78 1441.07 L1003.03 1442.43 L1003.03 1438.97 L1009.75 1437.61 L1013.55 1437.61 L1013.55 1462.5 L1019.75 1462.5 L1019.75 1465.69 L1003.58 1465.69 L1003.58 1462.5 Z" fill="#000000" fill-rule="evenodd" fill-opacity="1" /><path clip-path="url(#clip020)" d="M 0 0 M1243.27 1489.17 L1250.91 1489.17 L1250.91 1462.8 L1242.6 1464.47 L1242.6 1460.21 L1250.86 1458.54 L1255.54 1458.54 L1255.54 1489.17 L1263.17 1489.17 L1263.17 1493.1 L1243.27 1493.1 L1243.27 1489.17 Z" fill="#000000" fill-rule="evenodd" fill-opacity="1" /><path clip-path="url(#clip020)" d="M 0 0 M1278.24 1461.62 Q1274.63 1461.62 1272.8 1465.19 Q1271 1468.73 1271 1475.86 Q1271 1482.97 1272.8 1486.53 Q1274.63 1490.07 1278.24 1490.07 Q1281.88 1490.07 1283.68 1486.53 Q1285.51 1482.97 1285.51 1475.86 Q1285.51 1468.73 1283.68 1465.19 Q1281.88 1461.62 1278.24 1461.62 M1278.24 1457.92 Q1284.05 1457.92 1287.11 1462.53 Q1290.19 1467.11 1290.19 1475.86 Q1290.19 1484.59 1287.11 1489.19 Q1284.05 1493.78 1278.24 1493.78 Q1272.43 1493.78 1269.35 1489.19 Q1266.3 1484.59 1266.3 1475.86 Q1266.3 1467.11 1269.35 1462.53 Q1272.43 1457.92 1278.24 1457.92 Z" fill="#000000" fill-rule="evenodd" fill-opacity="1" /><path clip-path="url(#clip020)" d="M 0 0 M1299.89 1440.11 Q1296.96 1440.11 1295.47 1443.01 Q1294.01 1445.89 1294.01 1451.68 Q1294.01 1457.46 1295.47 1460.35 Q1296.96 1463.23 1299.89 1463.23 Q1302.85 1463.23 1304.31 1460.35 Q1305.8 1457.46 1305.8 1451.68 Q1305.8 1445.89 1304.31 1443.01 Q1302.85 1440.11 1299.89 1440.11 M1299.89 1437.11 Q1304.61 1437.11 1307.1 1440.85 Q1309.6 1444.57 1309.6 1451.68 Q1309.6 1458.77 1307.1 1462.51 Q1304.61 1466.24 1299.89 1466.24 Q1295.17 1466.24 1292.67 1462.51 Q1290.19 1458.77 1290.19 1451.68 Q1290.19 1444.57 1292.67 1440.85 Q1295.17 1437.11 1299.89 1437.11 Z" fill="#000000" fill-rule="evenodd" fill-opacity="1" /><path clip-path="url(#clip020)" d="M 0 0 M1313.72 1460.92 L1317.68 1460.92 L1317.68 1465.69 L1313.72 1465.69 L1313.72 1460.92 Z" fill="#000000" fill-rule="evenodd" fill-opacity="1" /><path clip-path="url(#clip020)" d="M 0 0 M1329.93 1440.11 Q1326.99 1440.11 1325.51 1443.01 Q1324.04 1445.89 1324.04 1451.68 Q1324.04 1457.46 1325.51 1460.35 Q1326.99 1463.23 1329.93 1463.23 Q1332.88 1463.23 1334.35 1460.35 Q1335.83 1457.46 1335.83 1451.68 Q1335.83 1445.89 1334.35 1443.01 Q1332.88 1440.11 1329.93 1440.11 M1329.93 1437.11 Q1334.65 1437.11 1337.13 1440.85 Q1339.63 1444.57 1339.63 1451.68 Q1339.63 1458.77 1337.13 1462.51 Q1334.65 1466.24 1329.93 1466.24 Q1325.21 1466.24 1322.71 1462.51 Q1320.22 1458.77 1320.22 1451.68 Q1320.22 1444.57 1322.71 1440.85 Q1325.21 1437.11 1329.93 1437.11 Z" fill="#000000" fill-rule="evenodd" fill-opacity="1" /><path clip-path="url(#clip020)" d="M 0 0 M1576.47 1489.17 L1584.11 1489.17 L1584.11 1462.8 L1575.8 1464.47 L1575.8 1460.21 L1584.06 1458.54 L1588.74 1458.54 L1588.74 1489.17 L1596.38 1489.17 L1596.38 1493.1 L1576.47 1493.1 L1576.47 1489.17 Z" fill="#000000" fill-rule="evenodd" fill-opacity="1" /><path clip-path="url(#clip020)" d="M 0 0 M1611.45 1461.62 Q1607.84 1461.62 1606.01 1465.19 Q1604.2 1468.73 1604.2 1475.86 Q1604.2 1482.97 1606.01 1486.53 Q1607.84 1490.07 1611.45 1490.07 Q1615.08 1490.07 1616.89 1486.53 Q1618.72 1482.97 1618.72 1475.86 Q1618.72 1468.73 1616.89 1465.19 Q1615.08 1461.62 1611.45 1461.62 M1611.45 1457.92 Q1617.26 1457.92 1620.31 1462.53 Q1623.39 1467.11 1623.39 1475.86 Q1623.39 1484.59 1620.31 1489.19 Q1617.26 1493.78 1611.45 1493.78 Q1605.64 1493.78 1602.56 1489.19 Q1599.5 1484.59 1599.5 1475.86 Q1599.5 1467.11 1602.56 1462.53 Q1605.64 1457.92 1611.45 1457.92 Z" fill="#000000" fill-rule="evenodd" fill-opacity="1" /><path clip-path="url(#clip020)" d="M 0 0 M1633.1 1440.11 Q1630.16 1440.11 1628.68 1443.01 Q1627.21 1445.89 1627.21 1451.68 Q1627.21 1457.46 1628.68 1460.35 Q1630.16 1463.23 1633.1 1463.23 Q1636.05 1463.23 1637.52 1460.35 Q1639 1457.46 1639 1451.68 Q1639 1445.89 1637.52 1443.01 Q1636.05 1440.11 1633.1 1440.11 M1633.1 1437.11 Q1637.82 1437.11 1640.3 1440.85 Q1642.8 1444.57 1642.8 1451.68 Q1642.8 1458.77 1640.3 1462.51 Q1637.82 1466.24 1633.1 1466.24 Q1628.38 1466.24 1625.88 1462.51 Q1623.39 1458.77 1623.39 1451.68 Q1623.39 1444.57 1625.88 1440.85 Q1628.38 1437.11 1633.1 1437.11 Z" fill="#000000" fill-rule="evenodd" fill-opacity="1" /><path clip-path="url(#clip020)" d="M 0 0 M1646.92 1460.92 L1650.89 1460.92 L1650.89 1465.69 L1646.92 1465.69 L1646.92 1460.92 Z" fill="#000000" fill-rule="evenodd" fill-opacity="1" /><path clip-path="url(#clip020)" d="M 0 0 M1655.67 1462.5 L1661.87 1462.5 L1661.87 1441.07 L1655.12 1442.43 L1655.12 1438.97 L1661.84 1437.61 L1665.64 1437.61 L1665.64 1462.5 L1671.84 1462.5 L1671.84 1465.69 L1655.67 1465.69 L1655.67 1462.5 Z" fill="#000000" fill-rule="evenodd" fill-opacity="1" /><path clip-path="url(#clip020)" d="M 0 0 M1909.33 1489.17 L1916.97 1489.17 L1916.97 1462.8 L1908.66 1464.47 L1908.66 1460.21 L1916.92 1458.54 L1921.6 1458.54 L1921.6 1489.17 L1929.24 1489.17 L1929.24 1493.1 L1909.33 1493.1 L1909.33 1489.17 Z" fill="#000000" fill-rule="evenodd" fill-opacity="1" /><path clip-path="url(#clip020)" d="M 0 0 M1944.31 1461.62 Q1940.7 1461.62 1938.87 1465.19 Q1937.06 1468.73 1937.06 1475.86 Q1937.06 1482.97 1938.87 1486.53 Q1940.7 1490.07 1944.31 1490.07 Q1947.94 1490.07 1949.75 1486.53 Q1951.58 1482.97 1951.58 1475.86 Q1951.58 1468.73 1949.75 1465.19 Q1947.94 1461.62 1944.31 1461.62 M1944.31 1457.92 Q1950.12 1457.92 1953.17 1462.53 Q1956.25 1467.11 1956.25 1475.86 Q1956.25 1484.59 1953.17 1489.19 Q1950.12 1493.78 1944.31 1493.78 Q1938.5 1493.78 1935.42 1489.19 Q1932.36 1484.59 1932.36 1475.86 Q1932.36 1467.11 1935.42 1462.53 Q1938.5 1457.92 1944.31 1457.92 Z" fill="#000000" fill-rule="evenodd" fill-opacity="1" /><path clip-path="url(#clip020)" d="M 0 0 M1965.96 1440.11 Q1963.02 1440.11 1961.54 1443.01 Q1960.07 1445.89 1960.07 1451.68 Q1960.07 1457.46 1961.54 1460.35 Q1963.02 1463.23 1965.96 1463.23 Q1968.91 1463.23 1970.38 1460.35 Q1971.86 1457.46 1971.86 1451.68 Q1971.86 1445.89 1970.38 1443.01 Q1968.91 1440.11 1965.96 1440.11 M1965.96 1437.11 Q1970.68 1437.11 1973.16 1440.85 Q1975.66 1444.57 1975.66 1451.68 Q1975.66 1458.77 1973.16 1462.51 Q1970.68 1466.24 1965.96 1466.24 Q1961.24 1466.24 1958.73 1462.51 Q1956.25 1458.77 1956.25 1451.68 Q1956.25 1444.57 1958.73 1440.85 Q1961.24 1437.11 1965.96 1437.11 Z" fill="#000000" fill-rule="evenodd" fill-opacity="1" /><path clip-path="url(#clip020)" d="M 0 0 M1979.78 1460.92 L1983.75 1460.92 L1983.75 1465.69 L1979.78 1465.69 L1979.78 1460.92 Z" fill="#000000" fill-rule="evenodd" fill-opacity="1" /><path clip-path="url(#clip020)" d="M 0 0 M1991.14 1462.5 L2004.4 1462.5 L2004.4 1465.69 L1986.57 1465.69 L1986.57 1462.5 Q1988.73 1460.26 1992.46 1456.5 Q1996.2 1452.72 1997.16 1451.63 Q1998.98 1449.58 1999.7 1448.16 Q2000.43 1446.74 2000.43 1445.36 Q2000.43 1443.12 1998.85 1441.71 Q1997.29 1440.3 1994.77 1440.3 Q1992.98 1440.3 1990.99 1440.92 Q1989.01 1441.54 1986.76 1442.8 L1986.76 1438.97 Q1989.05 1438.05 1991.05 1437.58 Q1993.04 1437.11 1994.69 1437.11 Q1999.06 1437.11 2001.65 1439.29 Q2004.25 1441.47 2004.25 1445.12 Q2004.25 1446.85 2003.59 1448.41 Q2002.95 1449.95 2001.24 1452.06 Q2000.77 1452.6 1998.25 1455.22 Q1995.73 1457.81 1991.14 1462.5 Z" fill="#000000" fill-rule="evenodd" fill-opacity="1" /><path clip-path="url(#clip020)" d="M 0 0 M2241.65 1489.17 L2249.29 1489.17 L2249.29 1462.8 L2240.98 1464.47 L2240.98 1460.21 L2249.24 1458.54 L2253.92 1458.54 L2253.92 1489.17 L2261.56 1489.17 L2261.56 1493.1 L2241.65 1493.1 L2241.65 1489.17 Z" fill="#000000" fill-rule="evenodd" fill-opacity="1" /><path clip-path="url(#clip020)" d="M 0 0 M2276.63 1461.62 Q2273.02 1461.62 2271.19 1465.19 Q2269.38 1468.73 2269.38 1475.86 Q2269.38 1482.97 2271.19 1486.53 Q2273.02 1490.07 2276.63 1490.07 Q2280.26 1490.07 2282.07 1486.53 Q2283.9 1482.97 2283.9 1475.86 Q2283.9 1468.73 2282.07 1465.19 Q2280.26 1461.62 2276.63 1461.62 M2276.63 1457.92 Q2282.44 1457.92 2285.49 1462.53 Q2288.57 1467.11 2288.57 1475.86 Q2288.57 1484.59 2285.49 1489.19 Q2282.44 1493.78 2276.63 1493.78 Q2270.82 1493.78 2267.74 1489.19 Q2264.68 1484.59 2264.68 1475.86 Q2264.68 1467.11 2267.74 1462.53 Q2270.82 1457.92 2276.63 1457.92 Z" fill="#000000" fill-rule="evenodd" fill-opacity="1" /><path clip-path="url(#clip020)" d="M 0 0 M2298.28 1440.11 Q2295.34 1440.11 2293.86 1443.01 Q2292.39 1445.89 2292.39 1451.68 Q2292.39 1457.46 2293.86 1460.35 Q2295.34 1463.23 2298.28 1463.23 Q2301.23 1463.23 2302.7 1460.35 Q2304.18 1457.46 2304.18 1451.68 Q2304.18 1445.89 2302.7 1443.01 Q2301.23 1440.11 2298.28 1440.11 M2298.28 1437.11 Q2303 1437.11 2305.48 1440.85 Q2307.98 1444.57 2307.98 1451.68 Q2307.98 1458.77 2305.48 1462.51 Q2303 1466.24 2298.28 1466.24 Q2293.56 1466.24 2291.06 1462.51 Q2288.57 1458.77 2288.57 1451.68 Q2288.57 1444.57 2291.06 1440.85 Q2293.56 1437.11 2298.28 1437.11 Z" fill="#000000" fill-rule="evenodd" fill-opacity="1" /><path clip-path="url(#clip020)" d="M 0 0 M2312.1 1460.92 L2316.07 1460.92 L2316.07 1465.69 L2312.1 1465.69 L2312.1 1460.92 Z" fill="#000000" fill-rule="evenodd" fill-opacity="1" /><path clip-path="url(#clip020)" d="M 0 0 M2331.7 1450.55 Q2334.43 1451.14 2335.95 1452.98 Q2337.49 1454.82 2337.49 1457.53 Q2337.49 1461.69 2334.63 1463.96 Q2331.77 1466.24 2326.51 1466.24 Q2324.74 1466.24 2322.86 1465.88 Q2321 1465.54 2319 1464.85 L2319 1461.18 Q2320.58 1462.1 2322.46 1462.57 Q2324.35 1463.04 2326.4 1463.04 Q2329.97 1463.04 2331.83 1461.63 Q2333.71 1460.22 2333.71 1457.53 Q2333.71 1455.05 2331.96 1453.66 Q2330.23 1452.25 2327.13 1452.25 L2323.86 1452.25 L2323.86 1449.12 L2327.28 1449.12 Q2330.08 1449.12 2331.57 1448.01 Q2333.05 1446.89 2333.05 1444.78 Q2333.05 1442.62 2331.51 1441.47 Q2329.99 1440.3 2327.13 1440.3 Q2325.57 1440.3 2323.78 1440.64 Q2321.99 1440.98 2319.85 1441.69 L2319.85 1438.31 Q2322.01 1437.71 2323.89 1437.41 Q2325.79 1437.11 2327.47 1437.11 Q2331.79 1437.11 2334.31 1439.08 Q2336.83 1441.04 2336.83 1444.38 Q2336.83 1446.72 2335.5 1448.33 Q2334.16 1449.93 2331.7 1450.55 Z" fill="#000000" fill-rule="evenodd" fill-opacity="1" /><path clip-path="url(#clip020)" d="M 0 0 M1296.32 1545.6 L1294.92 1538.25 Q1293.49 1530.71 1287.82 1530.71 Q1283.56 1530.71 1281.61 1534.21 Q1279.16 1538.6 1279.16 1544.39 Q1279.16 1551.4 1281.55 1554.74 Q1283.97 1558.14 1287.82 1558.14 Q1292.09 1558.14 1294.38 1551.36 L1296.32 1545.6 M1299.6 1535.86 L1302.75 1526.54 L1307.97 1526.54 L1301.44 1545.86 L1302.72 1552.83 Q1303 1554.39 1304.12 1555.69 Q1305.42 1557.22 1306.44 1557.22 L1309.24 1557.22 L1309.24 1562.19 L1305.74 1562.19 Q1302.75 1562.19 1300.07 1559.51 Q1298.77 1558.18 1298.23 1555.37 Q1296.76 1558.91 1293.77 1561.68 Q1292.37 1562.98 1287.82 1562.98 Q1280.34 1562.98 1276.71 1558.14 Q1272.99 1553.15 1272.99 1544.39 Q1272.99 1535.04 1277.03 1530.64 Q1281.52 1525.74 1287.82 1525.74 Q1297.72 1525.74 1299.6 1535.86 Z" fill="#000000" fill-rule="evenodd" fill-opacity="1" /><polyline clip-path="url(#clip022)" style="stroke:#000000; stroke-width:2; stroke-opacity:0.1; fill:none" points="
  229.473,1410.84 2352.76,1410.84 
  "/>
<polyline clip-path="url(#clip022)" style="stroke:#000000; stroke-width:2; stroke-opacity:0.1; fill:none" points="
  229.473,1089.7 2352.76,1089.7 
  "/>
<polyline clip-path="url(#clip022)" style="stroke:#000000; stroke-width:2; stroke-opacity:0.1; fill:none" points="
  229.473,768.57 2352.76,768.57 
  "/>
<polyline clip-path="url(#clip022)" style="stroke:#000000; stroke-width:2; stroke-opacity:0.1; fill:none" points="
  229.473,447.437 2352.76,447.437 
  "/>
<polyline clip-path="url(#clip022)" style="stroke:#000000; stroke-width:2; stroke-opacity:0.1; fill:none" points="
  229.473,126.304 2352.76,126.304 
  "/>
<polyline clip-path="url(#clip020)" style="stroke:#000000; stroke-width:4; stroke-opacity:1; fill:none" points="
  229.473,1410.9 229.473,47.2441 
  "/>
<polyline clip-path="url(#clip020)" style="stroke:#000000; stroke-width:4; stroke-opacity:1; fill:none" points="
  229.473,1410.84 254.952,1410.84 
  "/>
<polyline clip-path="url(#clip020)" style="stroke:#000000; stroke-width:4; stroke-opacity:1; fill:none" points="
  229.473,1089.7 254.952,1089.7 
  "/>
<polyline clip-path="url(#clip020)" style="stroke:#000000; stroke-width:4; stroke-opacity:1; fill:none" points="
  229.473,768.57 254.952,768.57 
  "/>
<polyline clip-path="url(#clip020)" style="stroke:#000000; stroke-width:4; stroke-opacity:1; fill:none" points="
  229.473,447.437 254.952,447.437 
  "/>
<polyline clip-path="url(#clip020)" style="stroke:#000000; stroke-width:4; stroke-opacity:1; fill:none" points="
  229.473,126.304 254.952,126.304 
  "/>
<path clip-path="url(#clip020)" d="M 0 0 M181.528 1396.64 Q177.917 1396.64 176.089 1400.2 Q174.283 1403.74 174.283 1410.87 Q174.283 1417.98 176.089 1421.54 Q177.917 1425.08 181.528 1425.08 Q185.163 1425.08 186.968 1421.54 Q188.797 1417.98 188.797 1410.87 Q188.797 1403.74 186.968 1400.2 Q185.163 1396.64 181.528 1396.64 M181.528 1392.93 Q187.338 1392.93 190.394 1397.54 Q193.473 1402.12 193.473 1410.87 Q193.473 1419.6 190.394 1424.2 Q187.338 1428.79 181.528 1428.79 Q175.718 1428.79 172.639 1424.2 Q169.584 1419.6 169.584 1410.87 Q169.584 1402.12 172.639 1397.54 Q175.718 1392.93 181.528 1392.93 Z" fill="#000000" fill-rule="evenodd" fill-opacity="1" /><path clip-path="url(#clip020)" d="M 0 0 M119.538 1103.05 L127.177 1103.05 L127.177 1076.68 L118.867 1078.35 L118.867 1074.09 L127.13 1072.42 L131.806 1072.42 L131.806 1103.05 L139.445 1103.05 L139.445 1106.98 L119.538 1106.98 L119.538 1103.05 Z" fill="#000000" fill-rule="evenodd" fill-opacity="1" /><path clip-path="url(#clip020)" d="M 0 0 M154.515 1075.5 Q150.903 1075.5 149.075 1079.07 Q147.269 1082.61 147.269 1089.74 Q147.269 1096.84 149.075 1100.41 Q150.903 1103.95 154.515 1103.95 Q158.149 1103.95 159.954 1100.41 Q161.783 1096.84 161.783 1089.74 Q161.783 1082.61 159.954 1079.07 Q158.149 1075.5 154.515 1075.5 M154.515 1071.8 Q160.325 1071.8 163.38 1076.4 Q166.459 1080.99 166.459 1089.74 Q166.459 1098.46 163.38 1103.07 Q160.325 1107.65 154.515 1107.65 Q148.704 1107.65 145.626 1103.07 Q142.57 1098.46 142.57 1089.74 Q142.57 1080.99 145.626 1076.4 Q148.704 1071.8 154.515 1071.8 Z" fill="#000000" fill-rule="evenodd" fill-opacity="1" /><path clip-path="url(#clip020)" d="M 0 0 M181.528 1075.5 Q177.917 1075.5 176.089 1079.07 Q174.283 1082.61 174.283 1089.74 Q174.283 1096.84 176.089 1100.41 Q177.917 1103.95 181.528 1103.95 Q185.163 1103.95 186.968 1100.41 Q188.797 1096.84 188.797 1089.74 Q188.797 1082.61 186.968 1079.07 Q185.163 1075.5 181.528 1075.5 M181.528 1071.8 Q187.338 1071.8 190.394 1076.4 Q193.473 1080.99 193.473 1089.74 Q193.473 1098.46 190.394 1103.07 Q187.338 1107.65 181.528 1107.65 Q175.718 1107.65 172.639 1103.07 Q169.584 1098.46 169.584 1089.74 Q169.584 1080.99 172.639 1076.4 Q175.718 1071.8 181.528 1071.8 Z" fill="#000000" fill-rule="evenodd" fill-opacity="1" /><path clip-path="url(#clip020)" d="M 0 0 M123.126 781.915 L139.445 781.915 L139.445 785.85 L117.501 785.85 L117.501 781.915 Q120.163 779.161 124.746 774.531 Q129.353 769.878 130.533 768.536 Q132.779 766.012 133.658 764.276 Q134.561 762.517 134.561 760.827 Q134.561 758.073 132.617 756.337 Q130.695 754.6 127.593 754.6 Q125.394 754.6 122.941 755.364 Q120.51 756.128 117.732 757.679 L117.732 752.957 Q120.556 751.823 123.01 751.244 Q125.464 750.665 127.501 750.665 Q132.871 750.665 136.066 753.35 Q139.26 756.036 139.26 760.526 Q139.26 762.656 138.45 764.577 Q137.663 766.475 135.556 769.068 Q134.978 769.739 131.876 772.957 Q128.774 776.151 123.126 781.915 Z" fill="#000000" fill-rule="evenodd" fill-opacity="1" /><path clip-path="url(#clip020)" d="M 0 0 M154.515 754.369 Q150.903 754.369 149.075 757.934 Q147.269 761.475 147.269 768.605 Q147.269 775.711 149.075 779.276 Q150.903 782.818 154.515 782.818 Q158.149 782.818 159.954 779.276 Q161.783 775.711 161.783 768.605 Q161.783 761.475 159.954 757.934 Q158.149 754.369 154.515 754.369 M154.515 750.665 Q160.325 750.665 163.38 755.272 Q166.459 759.855 166.459 768.605 Q166.459 777.332 163.38 781.938 Q160.325 786.522 154.515 786.522 Q148.704 786.522 145.626 781.938 Q142.57 777.332 142.57 768.605 Q142.57 759.855 145.626 755.272 Q148.704 750.665 154.515 750.665 Z" fill="#000000" fill-rule="evenodd" fill-opacity="1" /><path clip-path="url(#clip020)" d="M 0 0 M181.528 754.369 Q177.917 754.369 176.089 757.934 Q174.283 761.475 174.283 768.605 Q174.283 775.711 176.089 779.276 Q177.917 782.818 181.528 782.818 Q185.163 782.818 186.968 779.276 Q188.797 775.711 188.797 768.605 Q188.797 761.475 186.968 757.934 Q185.163 754.369 181.528 754.369 M181.528 750.665 Q187.338 750.665 190.394 755.272 Q193.473 759.855 193.473 768.605 Q193.473 777.332 190.394 781.938 Q187.338 786.522 181.528 786.522 Q175.718 786.522 172.639 781.938 Q169.584 777.332 169.584 768.605 Q169.584 759.855 172.639 755.272 Q175.718 750.665 181.528 750.665 Z" fill="#000000" fill-rule="evenodd" fill-opacity="1" /><path clip-path="url(#clip020)" d="M 0 0 M132.316 446.083 Q135.672 446.801 137.547 449.069 Q139.445 451.338 139.445 454.671 Q139.445 459.787 135.927 462.588 Q132.408 465.388 125.927 465.388 Q123.751 465.388 121.436 464.949 Q119.144 464.532 116.691 463.676 L116.691 459.162 Q118.635 460.296 120.95 460.875 Q123.265 461.453 125.788 461.453 Q130.186 461.453 132.478 459.717 Q134.792 457.981 134.792 454.671 Q134.792 451.615 132.64 449.902 Q130.51 448.166 126.691 448.166 L122.663 448.166 L122.663 444.324 L126.876 444.324 Q130.325 444.324 132.154 442.958 Q133.982 441.569 133.982 438.977 Q133.982 436.315 132.084 434.903 Q130.209 433.467 126.691 433.467 Q124.769 433.467 122.57 433.884 Q120.371 434.301 117.732 435.18 L117.732 431.014 Q120.394 430.273 122.709 429.903 Q125.047 429.532 127.107 429.532 Q132.431 429.532 135.533 431.963 Q138.635 434.37 138.635 438.49 Q138.635 441.361 136.992 443.352 Q135.348 445.319 132.316 446.083 Z" fill="#000000" fill-rule="evenodd" fill-opacity="1" /><path clip-path="url(#clip020)" d="M 0 0 M154.515 433.236 Q150.903 433.236 149.075 436.801 Q147.269 440.342 147.269 447.472 Q147.269 454.578 149.075 458.143 Q150.903 461.685 154.515 461.685 Q158.149 461.685 159.954 458.143 Q161.783 454.578 161.783 447.472 Q161.783 440.342 159.954 436.801 Q158.149 433.236 154.515 433.236 M154.515 429.532 Q160.325 429.532 163.38 434.139 Q166.459 438.722 166.459 447.472 Q166.459 456.199 163.38 460.805 Q160.325 465.388 154.515 465.388 Q148.704 465.388 145.626 460.805 Q142.57 456.199 142.57 447.472 Q142.57 438.722 145.626 434.139 Q148.704 429.532 154.515 429.532 Z" fill="#000000" fill-rule="evenodd" fill-opacity="1" /><path clip-path="url(#clip020)" d="M 0 0 M181.528 433.236 Q177.917 433.236 176.089 436.801 Q174.283 440.342 174.283 447.472 Q174.283 454.578 176.089 458.143 Q177.917 461.685 181.528 461.685 Q185.163 461.685 186.968 458.143 Q188.797 454.578 188.797 447.472 Q188.797 440.342 186.968 436.801 Q185.163 433.236 181.528 433.236 M181.528 429.532 Q187.338 429.532 190.394 434.139 Q193.473 438.722 193.473 447.472 Q193.473 456.199 190.394 460.805 Q187.338 465.388 181.528 465.388 Q175.718 465.388 172.639 460.805 Q169.584 456.199 169.584 447.472 Q169.584 438.722 172.639 434.139 Q175.718 429.532 181.528 429.532 Z" fill="#000000" fill-rule="evenodd" fill-opacity="1" /><path clip-path="url(#clip020)" d="M 0 0 M129.862 113.098 L118.056 131.547 L129.862 131.547 L129.862 113.098 M128.635 109.024 L134.515 109.024 L134.515 131.547 L139.445 131.547 L139.445 135.436 L134.515 135.436 L134.515 143.584 L129.862 143.584 L129.862 135.436 L114.26 135.436 L114.26 130.922 L128.635 109.024 Z" fill="#000000" fill-rule="evenodd" fill-opacity="1" /><path clip-path="url(#clip020)" d="M 0 0 M154.515 112.103 Q150.903 112.103 149.075 115.668 Q147.269 119.209 147.269 126.339 Q147.269 133.445 149.075 137.01 Q150.903 140.552 154.515 140.552 Q158.149 140.552 159.954 137.01 Q161.783 133.445 161.783 126.339 Q161.783 119.209 159.954 115.668 Q158.149 112.103 154.515 112.103 M154.515 108.399 Q160.325 108.399 163.38 113.006 Q166.459 117.589 166.459 126.339 Q166.459 135.066 163.38 139.672 Q160.325 144.255 154.515 144.255 Q148.704 144.255 145.626 139.672 Q142.57 135.066 142.57 126.339 Q142.57 117.589 145.626 113.006 Q148.704 108.399 154.515 108.399 Z" fill="#000000" fill-rule="evenodd" fill-opacity="1" /><path clip-path="url(#clip020)" d="M 0 0 M181.528 112.103 Q177.917 112.103 176.089 115.668 Q174.283 119.209 174.283 126.339 Q174.283 133.445 176.089 137.01 Q177.917 140.552 181.528 140.552 Q185.163 140.552 186.968 137.01 Q188.797 133.445 188.797 126.339 Q188.797 119.209 186.968 115.668 Q185.163 112.103 181.528 112.103 M181.528 108.399 Q187.338 108.399 190.394 113.006 Q193.473 117.589 193.473 126.339 Q193.473 135.066 190.394 139.672 Q187.338 144.255 181.528 144.255 Q175.718 144.255 172.639 139.672 Q169.584 135.066 169.584 126.339 Q169.584 117.589 172.639 113.006 Q175.718 108.399 181.528 108.399 Z" fill="#000000" fill-rule="evenodd" fill-opacity="1" /><path clip-path="url(#clip020)" d="M 0 0 M59.1993 815.533 Q55.2526 813.336 53.3747 810.281 Q51.4968 807.225 51.4968 803.088 Q51.4968 797.518 55.4117 794.494 Q59.2948 791.47 66.4881 791.47 L88.0042 791.47 L88.0042 797.358 L66.679 797.358 Q61.5546 797.358 59.072 799.173 Q56.5894 800.987 56.5894 804.711 Q56.5894 809.262 59.6131 811.904 Q62.6368 814.546 67.8567 814.546 L88.0042 814.546 L88.0042 820.434 L66.679 820.434 Q61.5228 820.434 59.072 822.248 Q56.5894 824.063 56.5894 827.85 Q56.5894 832.338 59.6449 834.98 Q62.6686 837.622 67.8567 837.622 L88.0042 837.622 L88.0042 843.51 L52.3562 843.51 L52.3562 837.622 L57.8944 837.622 Q54.616 835.616 53.0564 832.815 Q51.4968 830.015 51.4968 826.163 Q51.4968 822.28 53.4702 819.575 Q55.4436 816.838 59.1993 815.533 Z" fill="#000000" fill-rule="evenodd" fill-opacity="1" /><path clip-path="url(#clip020)" d="M 0 0 M52.3562 785.327 L52.3562 779.471 L88.0042 779.471 L88.0042 785.327 L52.3562 785.327 M38.479 785.327 L38.479 779.471 L45.895 779.471 L45.895 785.327 L38.479 785.327 Z" fill="#000000" fill-rule="evenodd" fill-opacity="1" /><path clip-path="url(#clip020)" d="M 0 0 M66.4881 743.696 L88.0042 743.696 L88.0042 749.552 L66.679 749.552 Q61.6183 749.552 59.1038 751.525 Q56.5894 753.499 56.5894 757.446 Q56.5894 762.188 59.6131 764.925 Q62.6368 767.662 67.8567 767.662 L88.0042 767.662 L88.0042 773.551 L52.3562 773.551 L52.3562 767.662 L57.8944 767.662 Q54.6797 765.562 53.0883 762.729 Q51.4968 759.864 51.4968 756.141 Q51.4968 749.998 55.3163 746.847 Q59.1038 743.696 66.4881 743.696 Z" fill="#000000" fill-rule="evenodd" fill-opacity="1" /><path clip-path="url(#clip020)" d="M 0 0 M98.8259 710.467 L103.377 710.467 L103.377 744.332 L98.8259 744.332 L98.8259 710.467 Z" fill="#000000" fill-rule="evenodd" fill-opacity="1" /><path clip-path="url(#clip020)" d="M 0 0 M57.7671 680.866 L38.479 680.866 L38.479 675.01 L88.0042 675.01 L88.0042 680.866 L82.657 680.866 Q85.8398 682.712 87.3994 685.545 Q88.9272 688.346 88.9272 692.292 Q88.9272 698.754 83.771 702.828 Q78.6147 706.87 70.212 706.87 Q61.8093 706.87 56.6531 702.828 Q51.4968 698.754 51.4968 692.292 Q51.4968 688.346 53.0564 685.545 Q54.5842 682.712 57.7671 680.866 M70.212 700.823 Q76.6732 700.823 80.3653 698.181 Q84.0256 695.507 84.0256 690.86 Q84.0256 686.213 80.3653 683.54 Q76.6732 680.866 70.212 680.866 Q63.7508 680.866 60.0905 683.54 Q56.3984 686.213 56.3984 690.86 Q56.3984 695.507 60.0905 698.181 Q63.7508 700.823 70.212 700.823 Z" fill="#000000" fill-rule="evenodd" fill-opacity="1" /><path clip-path="url(#clip020)" d="M 0 0 M52.3562 668.867 L52.3562 663.01 L88.0042 663.01 L88.0042 668.867 L52.3562 668.867 M38.479 668.867 L38.479 663.01 L45.895 663.01 L45.895 668.867 L38.479 668.867 Z" fill="#000000" fill-rule="evenodd" fill-opacity="1" /><path clip-path="url(#clip020)" d="M 0 0 M38.479 638.821 L43.3487 638.821 L43.3487 644.422 Q43.3487 647.573 44.6219 648.815 Q45.895 650.024 49.2052 650.024 L52.3562 650.024 L52.3562 640.38 L56.9077 640.38 L56.9077 650.024 L88.0042 650.024 L88.0042 655.912 L56.9077 655.912 L56.9077 661.514 L52.3562 661.514 L52.3562 655.912 L49.8736 655.912 Q43.9216 655.912 41.2162 653.143 Q38.479 650.374 38.479 644.359 L38.479 638.821 Z" fill="#000000" fill-rule="evenodd" fill-opacity="1" /><path clip-path="url(#clip020)" d="M 0 0 M38.479 614.631 L43.3487 614.631 L43.3487 620.233 Q43.3487 623.384 44.6219 624.625 Q45.895 625.835 49.2052 625.835 L52.3562 625.835 L52.3562 616.19 L56.9077 616.19 L56.9077 625.835 L88.0042 625.835 L88.0042 631.723 L56.9077 631.723 L56.9077 637.325 L52.3562 637.325 L52.3562 631.723 L49.8736 631.723 Q43.9216 631.723 41.2162 628.954 Q38.479 626.185 38.479 620.169 L38.479 614.631 Z" fill="#000000" fill-rule="evenodd" fill-opacity="1" /><polyline clip-path="url(#clip022)" style="stroke:#009af9; stroke-width:20; stroke-opacity:1; fill:none" stroke-dasharray="80, 50" points="
  289.566,85.838 1291.11,1073.16 1876.98,1349.65 2292.66,1372.3 
  "/>
<path clip-path="url(#clip020)" d="
M1995.04 213.659 L2281.98 213.659 L2281.98 92.6992 L1995.04 92.6992  Z
  " fill="#ffffff" fill-rule="evenodd" fill-opacity="1"/>
<polyline clip-path="url(#clip020)" style="stroke:#000000; stroke-width:4; stroke-opacity:1; fill:none" points="
  1995.04,213.659 2281.98,213.659 2281.98,92.6992 1995.04,92.6992 1995.04,213.659 
  "/>
<polyline clip-path="url(#clip020)" style="stroke:#009af9; stroke-width:4; stroke-opacity:1; fill:none" stroke-dasharray="16, 10" points="
  2018.63,153.179 2160.19,153.179 
  "/>
<path clip-path="url(#clip020)" d="M 0 0 M2197.62 172.867 Q2195.81 177.496 2194.1 178.908 Q2192.39 180.32 2189.52 180.32 L2186.12 180.32 L2186.12 176.755 L2188.62 176.755 Q2190.37 176.755 2191.35 175.922 Q2192.32 175.089 2193.5 171.987 L2194.26 170.043 L2183.78 144.533 L2188.29 144.533 L2196.39 164.811 L2204.49 144.533 L2209.01 144.533 L2197.62 172.867 Z" fill="#000000" fill-rule="evenodd" fill-opacity="1" /><path clip-path="url(#clip020)" d="M 0 0 M2214.89 166.524 L2222.53 166.524 L2222.53 140.158 L2214.22 141.825 L2214.22 137.566 L2222.48 135.899 L2227.16 135.899 L2227.16 166.524 L2234.8 166.524 L2234.8 170.459 L2214.89 170.459 L2214.89 166.524 Z" fill="#000000" fill-rule="evenodd" fill-opacity="1" /></svg>
