<?xml version="1.0" encoding="utf-8"?>
<svg xmlns="http://www.w3.org/2000/svg" xmlns:xlink="http://www.w3.org/1999/xlink" width="600" height="400" viewBox="0 0 2400 1600">
<defs>
  <clipPath id="clip700">
    <rect x="0" y="0" width="2400" height="1600"/>
  </clipPath>
</defs>
<path clip-path="url(#clip700)" d="
M0 1600 L2400 1600 L2400 0 L0 0  Z
  " fill="#ffffff" fill-rule="evenodd" fill-opacity="1"/>
<defs>
  <clipPath id="clip701">
    <rect x="480" y="0" width="1681" height="1600"/>
  </clipPath>
</defs>
<path clip-path="url(#clip700)" d="
M227.042 1410.9 L2352.76 1410.9 L2352.76 47.2441 L227.042 47.2441  Z
  " fill="#ffffff" fill-rule="evenodd" fill-opacity="1"/>
<defs>
  <clipPath id="clip702">
    <rect x="227" y="47" width="2127" height="1365"/>
  </clipPath>
</defs>
<polyline clip-path="url(#clip702)" style="stroke:#000000; stroke-width:2; stroke-opacity:0.1; fill:none" points="
  511.55,1410.9 511.55,47.2441 
  "/>
<polyline clip-path="url(#clip702)" style="stroke:#000000; stroke-width:2; stroke-opacity:0.1; fill:none" points="
  955.667,1410.9 955.667,47.2441 
  "/>
<polyline clip-path="url(#clip702)" style="stroke:#000000; stroke-width:2; stroke-opacity:0.1; fill:none" points="
  1399.78,1410.9 1399.78,47.2441 
  "/>
<polyline clip-path="url(#clip702)" style="stroke:#000000; stroke-width:2; stroke-opacity:0.1; fill:none" points="
  1843.9,1410.9 1843.9,47.2441 
  "/>
<polyline clip-path="url(#clip702)" style="stroke:#000000; stroke-width:2; stroke-opacity:0.1; fill:none" points="
  2288.02,1410.9 2288.02,47.2441 
  "/>
<polyline clip-path="url(#clip700)" style="stroke:#000000; stroke-width:4; stroke-opacity:1; fill:none" points="
  227.042,1410.9 2352.76,1410.9 
  "/>
<polyline clip-path="url(#clip700)" style="stroke:#000000; stroke-width:4; stroke-opacity:1; fill:none" points="
  511.55,1410.9 511.55,1394.53 
  "/>
<polyline clip-path="url(#clip700)" style="stroke:#000000; stroke-width:4; stroke-opacity:1; fill:none" points="
  955.667,1410.9 955.667,1394.53 
  "/>
<polyline clip-path="url(#clip700)" style="stroke:#000000; stroke-width:4; stroke-opacity:1; fill:none" points="
  1399.78,1410.9 1399.78,1394.53 
  "/>
<polyline clip-path="url(#clip700)" style="stroke:#000000; stroke-width:4; stroke-opacity:1; fill:none" points="
  1843.9,1410.9 1843.9,1394.53 
  "/>
<polyline clip-path="url(#clip700)" style="stroke:#000000; stroke-width:4; stroke-opacity:1; fill:none" points="
  2288.02,1410.9 2288.02,1394.53 
  "/>
<path clip-path="url(#clip700)" d="M 0 0 M451.026 1489.17 L458.665 1489.17 L458.665 1462.8 L450.354 1464.47 L450.354 1460.21 L458.618 1458.54 L463.294 1458.54 L463.294 1489.17 L470.933 1489.17 L470.933 1493.1 L451.026 1493.1 L451.026 1489.17 Z" fill="#000000" fill-rule="evenodd" fill-opacity="1" /><path clip-path="url(#clip700)" d="M 0 0 M486.002 1461.62 Q482.391 1461.62 480.563 1465.19 Q478.757 1468.73 478.757 1475.86 Q478.757 1482.97 480.563 1486.53 Q482.391 1490.07 486.002 1490.07 Q489.637 1490.07 491.442 1486.53 Q493.271 1482.97 493.271 1475.86 Q493.271 1468.73 491.442 1465.19 Q489.637 1461.62 486.002 1461.62 M486.002 1457.92 Q491.813 1457.92 494.868 1462.53 Q497.947 1467.11 497.947 1475.86 Q497.947 1484.59 494.868 1489.19 Q491.813 1493.78 486.002 1493.78 Q480.192 1493.78 477.114 1489.19 Q474.058 1484.59 474.058 1475.86 Q474.058 1467.11 477.114 1462.53 Q480.192 1457.92 486.002 1457.92 Z" fill="#000000" fill-rule="evenodd" fill-opacity="1" /><path clip-path="url(#clip700)" d="M 0 0 M497.947 1452.02 L522.058 1452.02 L522.058 1455.22 L497.947 1455.22 L497.947 1452.02 Z" fill="#000000" fill-rule="evenodd" fill-opacity="1" /><path clip-path="url(#clip700)" d="M 0 0 M534.302 1440.11 Q531.368 1440.11 529.882 1443.01 Q528.415 1445.89 528.415 1451.68 Q528.415 1457.46 529.882 1460.35 Q531.368 1463.23 534.302 1463.23 Q537.255 1463.23 538.722 1460.35 Q540.208 1457.46 540.208 1451.68 Q540.208 1445.89 538.722 1443.01 Q537.255 1440.11 534.302 1440.11 M534.302 1437.11 Q539.023 1437.11 541.506 1440.85 Q544.007 1444.57 544.007 1451.68 Q544.007 1458.77 541.506 1462.51 Q539.023 1466.24 534.302 1466.24 Q529.581 1466.24 527.08 1462.51 Q524.597 1458.77 524.597 1451.68 Q524.597 1444.57 527.08 1440.85 Q529.581 1437.11 534.302 1437.11 Z" fill="#000000" fill-rule="evenodd" fill-opacity="1" /><path clip-path="url(#clip700)" d="M 0 0 M548.126 1460.92 L552.094 1460.92 L552.094 1465.69 L548.126 1465.69 L548.126 1460.92 Z" fill="#000000" fill-rule="evenodd" fill-opacity="1" /><path clip-path="url(#clip700)" d="M 0 0 M559.486 1462.5 L572.745 1462.5 L572.745 1465.69 L554.915 1465.69 L554.915 1462.5 Q557.078 1460.26 560.802 1456.5 Q564.545 1452.72 565.504 1451.63 Q567.329 1449.58 568.043 1448.16 Q568.777 1446.74 568.777 1445.36 Q568.777 1443.12 567.197 1441.71 Q565.636 1440.3 563.116 1440.3 Q561.329 1440.3 559.335 1440.92 Q557.36 1441.54 555.104 1442.8 L555.104 1438.97 Q557.398 1438.05 559.392 1437.58 Q561.385 1437.11 563.04 1437.11 Q567.404 1437.11 569.999 1439.29 Q572.595 1441.47 572.595 1445.12 Q572.595 1446.85 571.936 1448.41 Q571.297 1449.95 569.586 1452.06 Q569.115 1452.6 566.595 1455.22 Q564.075 1457.81 559.486 1462.5 Z" fill="#000000" fill-rule="evenodd" fill-opacity="1" /><path clip-path="url(#clip700)" d="M 0 0 M907.82 1489.17 L915.458 1489.17 L915.458 1462.8 L907.148 1464.47 L907.148 1460.21 L915.412 1458.54 L920.088 1458.54 L920.088 1489.17 L927.727 1489.17 L927.727 1493.1 L907.82 1493.1 L907.82 1489.17 Z" fill="#000000" fill-rule="evenodd" fill-opacity="1" /><path clip-path="url(#clip700)" d="M 0 0 M942.796 1461.62 Q939.185 1461.62 937.356 1465.19 Q935.551 1468.73 935.551 1475.86 Q935.551 1482.97 937.356 1486.53 Q939.185 1490.07 942.796 1490.07 Q946.431 1490.07 948.236 1486.53 Q950.065 1482.97 950.065 1475.86 Q950.065 1468.73 948.236 1465.19 Q946.431 1461.62 942.796 1461.62 M942.796 1457.92 Q948.606 1457.92 951.662 1462.53 Q954.741 1467.11 954.741 1475.86 Q954.741 1484.59 951.662 1489.19 Q948.606 1493.78 942.796 1493.78 Q936.986 1493.78 933.907 1489.19 Q930.852 1484.59 930.852 1475.86 Q930.852 1467.11 933.907 1462.53 Q936.986 1457.92 942.796 1457.92 Z" fill="#000000" fill-rule="evenodd" fill-opacity="1" /><path clip-path="url(#clip700)" d="M 0 0 M964.445 1440.11 Q961.511 1440.11 960.026 1443.01 Q958.559 1445.89 958.559 1451.68 Q958.559 1457.46 960.026 1460.35 Q961.511 1463.23 964.445 1463.23 Q967.398 1463.23 968.865 1460.35 Q970.351 1457.46 970.351 1451.68 Q970.351 1445.89 968.865 1443.01 Q967.398 1440.11 964.445 1440.11 M964.445 1437.11 Q969.166 1437.11 971.649 1440.85 Q974.15 1444.57 974.15 1451.68 Q974.15 1458.77 971.649 1462.51 Q969.166 1466.24 964.445 1466.24 Q959.725 1466.24 957.223 1462.51 Q954.741 1458.77 954.741 1451.68 Q954.741 1444.57 957.223 1440.85 Q959.725 1437.11 964.445 1437.11 Z" fill="#000000" fill-rule="evenodd" fill-opacity="1" /><path clip-path="url(#clip700)" d="M 0 0 M978.269 1460.92 L982.238 1460.92 L982.238 1465.69 L978.269 1465.69 L978.269 1460.92 Z" fill="#000000" fill-rule="evenodd" fill-opacity="1" /><path clip-path="url(#clip700)" d="M 0 0 M994.481 1440.11 Q991.547 1440.11 990.062 1443.01 Q988.595 1445.89 988.595 1451.68 Q988.595 1457.46 990.062 1460.35 Q991.547 1463.23 994.481 1463.23 Q997.434 1463.23 998.901 1460.35 Q1000.39 1457.46 1000.39 1451.68 Q1000.39 1445.89 998.901 1443.01 Q997.434 1440.11 994.481 1440.11 M994.481 1437.11 Q999.202 1437.11 1001.68 1440.85 Q1004.19 1444.57 1004.19 1451.68 Q1004.19 1458.77 1001.68 1462.51 Q999.202 1466.24 994.481 1466.24 Q989.761 1466.24 987.259 1462.51 Q984.777 1458.77 984.777 1451.68 Q984.777 1444.57 987.259 1440.85 Q989.761 1437.11 994.481 1437.11 Z" fill="#000000" fill-rule="evenodd" fill-opacity="1" /><path clip-path="url(#clip700)" d="M 0 0 M1352.59 1489.17 L1360.22 1489.17 L1360.22 1462.8 L1351.91 1464.47 L1351.91 1460.21 L1360.18 1458.54 L1364.85 1458.54 L1364.85 1489.17 L1372.49 1489.17 L1372.49 1493.1 L1352.59 1493.1 L1352.59 1489.17 Z" fill="#000000" fill-rule="evenodd" fill-opacity="1" /><path clip-path="url(#clip700)" d="M 0 0 M1387.56 1461.62 Q1383.95 1461.62 1382.12 1465.19 Q1380.32 1468.73 1380.32 1475.86 Q1380.32 1482.97 1382.12 1486.53 Q1383.95 1490.07 1387.56 1490.07 Q1391.2 1490.07 1393 1486.53 Q1394.83 1482.97 1394.83 1475.86 Q1394.83 1468.73 1393 1465.19 Q1391.2 1461.62 1387.56 1461.62 M1387.56 1457.92 Q1393.37 1457.92 1396.43 1462.53 Q1399.51 1467.11 1399.51 1475.86 Q1399.51 1484.59 1396.43 1489.19 Q1393.37 1493.78 1387.56 1493.78 Q1381.75 1493.78 1378.67 1489.19 Q1375.62 1484.59 1375.62 1475.86 Q1375.62 1467.11 1378.67 1462.53 Q1381.75 1457.92 1387.56 1457.92 Z" fill="#000000" fill-rule="evenodd" fill-opacity="1" /><path clip-path="url(#clip700)" d="M 0 0 M1409.21 1440.11 Q1406.28 1440.11 1404.79 1443.01 Q1403.33 1445.89 1403.33 1451.68 Q1403.33 1457.46 1404.79 1460.35 Q1406.28 1463.23 1409.21 1463.23 Q1412.16 1463.23 1413.63 1460.35 Q1415.12 1457.46 1415.12 1451.68 Q1415.12 1445.89 1413.63 1443.01 Q1412.16 1440.11 1409.21 1440.11 M1409.21 1437.11 Q1413.93 1437.11 1416.42 1440.85 Q1418.92 1444.57 1418.92 1451.68 Q1418.92 1458.77 1416.42 1462.51 Q1413.93 1466.24 1409.21 1466.24 Q1404.49 1466.24 1401.99 1462.51 Q1399.51 1458.77 1399.51 1451.68 Q1399.51 1444.57 1401.99 1440.85 Q1404.49 1437.11 1409.21 1437.11 Z" fill="#000000" fill-rule="evenodd" fill-opacity="1" /><path clip-path="url(#clip700)" d="M 0 0 M1423.04 1460.92 L1427 1460.92 L1427 1465.69 L1423.04 1465.69 L1423.04 1460.92 Z" fill="#000000" fill-rule="evenodd" fill-opacity="1" /><path clip-path="url(#clip700)" d="M 0 0 M1434.4 1462.5 L1447.65 1462.5 L1447.65 1465.69 L1429.83 1465.69 L1429.83 1462.5 Q1431.99 1460.26 1435.71 1456.5 Q1439.45 1452.72 1440.41 1451.63 Q1442.24 1449.58 1442.95 1448.16 Q1443.69 1446.74 1443.69 1445.36 Q1443.69 1443.12 1442.11 1441.71 Q1440.55 1440.3 1438.03 1440.3 Q1436.24 1440.3 1434.24 1440.92 Q1432.27 1441.54 1430.01 1442.8 L1430.01 1438.97 Q1432.31 1438.05 1434.3 1437.58 Q1436.3 1437.11 1437.95 1437.11 Q1442.31 1437.11 1444.91 1439.29 Q1447.5 1441.47 1447.5 1445.12 Q1447.5 1446.85 1446.85 1448.41 Q1446.21 1449.95 1444.5 1452.06 Q1444.03 1452.6 1441.5 1455.22 Q1438.98 1457.81 1434.4 1462.5 Z" fill="#000000" fill-rule="evenodd" fill-opacity="1" /><path clip-path="url(#clip700)" d="M 0 0 M1795.86 1489.17 L1803.5 1489.17 L1803.5 1462.8 L1795.19 1464.47 L1795.19 1460.21 L1803.45 1458.54 L1808.13 1458.54 L1808.13 1489.17 L1815.76 1489.17 L1815.76 1493.1 L1795.86 1493.1 L1795.86 1489.17 Z" fill="#000000" fill-rule="evenodd" fill-opacity="1" /><path clip-path="url(#clip700)" d="M 0 0 M1830.83 1461.62 Q1827.22 1461.62 1825.39 1465.19 Q1823.59 1468.73 1823.59 1475.86 Q1823.59 1482.97 1825.39 1486.53 Q1827.22 1490.07 1830.83 1490.07 Q1834.47 1490.07 1836.27 1486.53 Q1838.1 1482.97 1838.1 1475.86 Q1838.1 1468.73 1836.27 1465.19 Q1834.47 1461.62 1830.83 1461.62 M1830.83 1457.92 Q1836.64 1457.92 1839.7 1462.53 Q1842.78 1467.11 1842.78 1475.86 Q1842.78 1484.59 1839.7 1489.19 Q1836.64 1493.78 1830.83 1493.78 Q1825.02 1493.78 1821.94 1489.19 Q1818.89 1484.59 1818.89 1475.86 Q1818.89 1467.11 1821.94 1462.53 Q1825.02 1457.92 1830.83 1457.92 Z" fill="#000000" fill-rule="evenodd" fill-opacity="1" /><path clip-path="url(#clip700)" d="M 0 0 M1852.48 1440.11 Q1849.55 1440.11 1848.06 1443.01 Q1846.6 1445.89 1846.6 1451.68 Q1846.6 1457.46 1848.06 1460.35 Q1849.55 1463.23 1852.48 1463.23 Q1855.44 1463.23 1856.9 1460.35 Q1858.39 1457.46 1858.39 1451.68 Q1858.39 1445.89 1856.9 1443.01 Q1855.44 1440.11 1852.48 1440.11 M1852.48 1437.11 Q1857.2 1437.11 1859.69 1440.85 Q1862.19 1444.57 1862.19 1451.68 Q1862.19 1458.77 1859.69 1462.51 Q1857.2 1466.24 1852.48 1466.24 Q1847.76 1466.24 1845.26 1462.51 Q1842.78 1458.77 1842.78 1451.68 Q1842.78 1444.57 1845.26 1440.85 Q1847.76 1437.11 1852.48 1437.11 Z" fill="#000000" fill-rule="evenodd" fill-opacity="1" /><path clip-path="url(#clip700)" d="M 0 0 M1866.31 1460.92 L1870.28 1460.92 L1870.28 1465.69 L1866.31 1465.69 L1866.31 1460.92 Z" fill="#000000" fill-rule="evenodd" fill-opacity="1" /><path clip-path="url(#clip700)" d="M 0 0 M1884.83 1440.92 L1875.24 1455.91 L1884.83 1455.91 L1884.83 1440.92 M1883.84 1437.61 L1888.61 1437.61 L1888.61 1455.91 L1892.62 1455.91 L1892.62 1459.07 L1888.61 1459.07 L1888.61 1465.69 L1884.83 1465.69 L1884.83 1459.07 L1872.16 1459.07 L1872.16 1455.41 L1883.84 1437.61 Z" fill="#000000" fill-rule="evenodd" fill-opacity="1" /><path clip-path="url(#clip700)" d="M 0 0 M2240.11 1489.17 L2247.75 1489.17 L2247.75 1462.8 L2239.43 1464.47 L2239.43 1460.21 L2247.7 1458.54 L2252.37 1458.54 L2252.37 1489.17 L2260.01 1489.17 L2260.01 1493.1 L2240.11 1493.1 L2240.11 1489.17 Z" fill="#000000" fill-rule="evenodd" fill-opacity="1" /><path clip-path="url(#clip700)" d="M 0 0 M2275.08 1461.62 Q2271.47 1461.62 2269.64 1465.19 Q2267.84 1468.73 2267.84 1475.86 Q2267.84 1482.97 2269.64 1486.53 Q2271.47 1490.07 2275.08 1490.07 Q2278.72 1490.07 2280.52 1486.53 Q2282.35 1482.97 2282.35 1475.86 Q2282.35 1468.73 2280.52 1465.19 Q2278.72 1461.62 2275.08 1461.62 M2275.08 1457.92 Q2280.89 1457.92 2283.95 1462.53 Q2287.03 1467.11 2287.03 1475.86 Q2287.03 1484.59 2283.95 1489.19 Q2280.89 1493.78 2275.08 1493.78 Q2269.27 1493.78 2266.19 1489.19 Q2263.14 1484.59 2263.14 1475.86 Q2263.14 1467.11 2266.19 1462.53 Q2269.27 1457.92 2275.08 1457.92 Z" fill="#000000" fill-rule="evenodd" fill-opacity="1" /><path clip-path="url(#clip700)" d="M 0 0 M2296.73 1440.11 Q2293.8 1440.11 2292.31 1443.01 Q2290.85 1445.89 2290.85 1451.68 Q2290.85 1457.46 2292.31 1460.35 Q2293.8 1463.23 2296.73 1463.23 Q2299.68 1463.23 2301.15 1460.35 Q2302.64 1457.46 2302.64 1451.68 Q2302.64 1445.89 2301.15 1443.01 Q2299.68 1440.11 2296.73 1440.11 M2296.73 1437.11 Q2301.45 1437.11 2303.94 1440.85 Q2306.44 1444.57 2306.44 1451.68 Q2306.44 1458.77 2303.94 1462.51 Q2301.45 1466.24 2296.73 1466.24 Q2292.01 1466.24 2289.51 1462.51 Q2287.03 1458.77 2287.03 1451.68 Q2287.03 1444.57 2289.51 1440.85 Q2292.01 1437.11 2296.73 1437.11 Z" fill="#000000" fill-rule="evenodd" fill-opacity="1" /><path clip-path="url(#clip700)" d="M 0 0 M2310.56 1460.92 L2314.52 1460.92 L2314.52 1465.69 L2310.56 1465.69 L2310.56 1460.92 Z" fill="#000000" fill-rule="evenodd" fill-opacity="1" /><path clip-path="url(#clip700)" d="M 0 0 M2327.24 1450.14 Q2324.68 1450.14 2323.18 1451.89 Q2321.69 1453.64 2321.69 1456.68 Q2321.69 1459.71 2323.18 1461.48 Q2324.68 1463.23 2327.24 1463.23 Q2329.8 1463.23 2331.28 1461.48 Q2332.79 1459.71 2332.79 1456.68 Q2332.79 1453.64 2331.28 1451.89 Q2329.8 1450.14 2327.24 1450.14 M2334.78 1438.23 L2334.78 1441.69 Q2333.35 1441.02 2331.88 1440.66 Q2330.44 1440.3 2329.01 1440.3 Q2325.24 1440.3 2323.25 1442.84 Q2321.28 1445.38 2320.99 1450.52 Q2322.1 1448.88 2323.78 1448.01 Q2325.45 1447.13 2327.46 1447.13 Q2331.7 1447.13 2334.14 1449.71 Q2336.6 1452.26 2336.6 1456.68 Q2336.6 1461.01 2334.05 1463.62 Q2331.49 1466.24 2327.24 1466.24 Q2322.37 1466.24 2319.79 1462.51 Q2317.21 1458.77 2317.21 1451.68 Q2317.21 1445.02 2320.37 1441.07 Q2323.53 1437.11 2328.86 1437.11 Q2330.29 1437.11 2331.73 1437.39 Q2333.2 1437.67 2334.78 1438.23 Z" fill="#000000" fill-rule="evenodd" fill-opacity="1" /><path clip-path="url(#clip700)" d="M 0 0 M1280.38 1559.99 L1280.38 1575.74 L1274.49 1575.74 L1274.49 1526.76 Q1274.49 1512.25 1288.05 1512.25 Q1301.87 1512.25 1301.87 1524.5 Q1301.87 1533.22 1296.39 1536.4 Q1305.3 1539.27 1305.3 1547.77 Q1305.3 1562.85 1289.96 1562.85 Q1283.22 1562.85 1280.38 1559.99 M1280.38 1552.35 Q1283.92 1557.86 1290.19 1557.86 Q1299.35 1557.86 1299.35 1547.86 Q1299.35 1538.89 1284.58 1539.59 L1284.58 1534.18 Q1296.14 1534.18 1296.14 1523.99 Q1296.14 1517.02 1288.69 1517.02 Q1280.38 1517.02 1280.38 1526.95 L1280.38 1552.35 Z" fill="#000000" fill-rule="evenodd" fill-opacity="1" /><polyline clip-path="url(#clip702)" style="stroke:#000000; stroke-width:2; stroke-opacity:0.1; fill:none" points="
  227.042,1396.65 2352.76,1396.65 
  "/>
<polyline clip-path="url(#clip702)" style="stroke:#000000; stroke-width:2; stroke-opacity:0.1; fill:none" points="
  227.042,1026.07 2352.76,1026.07 
  "/>
<polyline clip-path="url(#clip702)" style="stroke:#000000; stroke-width:2; stroke-opacity:0.1; fill:none" points="
  227.042,655.478 2352.76,655.478 
  "/>
<polyline clip-path="url(#clip702)" style="stroke:#000000; stroke-width:2; stroke-opacity:0.1; fill:none" points="
  227.042,284.891 2352.76,284.891 
  "/>
<polyline clip-path="url(#clip700)" style="stroke:#000000; stroke-width:4; stroke-opacity:1; fill:none" points="
  227.042,1410.9 227.042,47.2441 
  "/>
<polyline clip-path="url(#clip700)" style="stroke:#000000; stroke-width:4; stroke-opacity:1; fill:none" points="
  227.042,1396.65 252.551,1396.65 
  "/>
<polyline clip-path="url(#clip700)" style="stroke:#000000; stroke-width:4; stroke-opacity:1; fill:none" points="
  227.042,1026.07 252.551,1026.07 
  "/>
<polyline clip-path="url(#clip700)" style="stroke:#000000; stroke-width:4; stroke-opacity:1; fill:none" points="
  227.042,655.478 252.551,655.478 
  "/>
<polyline clip-path="url(#clip700)" style="stroke:#000000; stroke-width:4; stroke-opacity:1; fill:none" points="
  227.042,284.891 252.551,284.891 
  "/>
<path clip-path="url(#clip700)" d="M 0 0 M179.098 1382.45 Q175.487 1382.45 173.658 1386.02 Q171.852 1389.56 171.852 1396.69 Q171.852 1403.79 173.658 1407.36 Q175.487 1410.9 179.098 1410.9 Q182.732 1410.9 184.538 1407.36 Q186.366 1403.79 186.366 1396.69 Q186.366 1389.56 184.538 1386.02 Q182.732 1382.45 179.098 1382.45 M179.098 1378.75 Q184.908 1378.75 187.963 1383.35 Q191.042 1387.94 191.042 1396.69 Q191.042 1405.41 187.963 1410.02 Q184.908 1414.6 179.098 1414.6 Q173.288 1414.6 170.209 1410.02 Q167.153 1405.41 167.153 1396.69 Q167.153 1387.94 170.209 1383.35 Q173.288 1378.75 179.098 1378.75 Z" fill="#000000" fill-rule="evenodd" fill-opacity="1" /><path clip-path="url(#clip700)" d="M 0 0 M117.107 1039.41 L124.746 1039.41 L124.746 1013.04 L116.436 1014.71 L116.436 1010.45 L124.7 1008.79 L129.376 1008.79 L129.376 1039.41 L137.015 1039.41 L137.015 1043.35 L117.107 1043.35 L117.107 1039.41 Z" fill="#000000" fill-rule="evenodd" fill-opacity="1" /><path clip-path="url(#clip700)" d="M 0 0 M152.084 1011.86 Q148.473 1011.86 146.644 1015.43 Q144.839 1018.97 144.839 1026.1 Q144.839 1033.21 146.644 1036.77 Q148.473 1040.31 152.084 1040.31 Q155.718 1040.31 157.524 1036.77 Q159.353 1033.21 159.353 1026.1 Q159.353 1018.97 157.524 1015.43 Q155.718 1011.86 152.084 1011.86 M152.084 1008.16 Q157.894 1008.16 160.95 1012.77 Q164.028 1017.35 164.028 1026.1 Q164.028 1034.83 160.95 1039.43 Q157.894 1044.02 152.084 1044.02 Q146.274 1044.02 143.195 1039.43 Q140.14 1034.83 140.14 1026.1 Q140.14 1017.35 143.195 1012.77 Q146.274 1008.16 152.084 1008.16 Z" fill="#000000" fill-rule="evenodd" fill-opacity="1" /><path clip-path="url(#clip700)" d="M 0 0 M179.098 1011.86 Q175.487 1011.86 173.658 1015.43 Q171.852 1018.97 171.852 1026.1 Q171.852 1033.21 173.658 1036.77 Q175.487 1040.31 179.098 1040.31 Q182.732 1040.31 184.538 1036.77 Q186.366 1033.21 186.366 1026.1 Q186.366 1018.97 184.538 1015.43 Q182.732 1011.86 179.098 1011.86 M179.098 1008.16 Q184.908 1008.16 187.963 1012.77 Q191.042 1017.35 191.042 1026.1 Q191.042 1034.83 187.963 1039.43 Q184.908 1044.02 179.098 1044.02 Q173.288 1044.02 170.209 1039.43 Q167.153 1034.83 167.153 1026.1 Q167.153 1017.35 170.209 1012.77 Q173.288 1008.16 179.098 1008.16 Z" fill="#000000" fill-rule="evenodd" fill-opacity="1" /><path clip-path="url(#clip700)" d="M 0 0 M120.695 668.823 L137.015 668.823 L137.015 672.758 L115.07 672.758 L115.07 668.823 Q117.732 666.068 122.316 661.439 Q126.922 656.786 128.103 655.443 Q130.348 652.92 131.228 651.184 Q132.13 649.425 132.13 647.735 Q132.13 644.98 130.186 643.244 Q128.265 641.508 125.163 641.508 Q122.964 641.508 120.51 642.272 Q118.08 643.036 115.302 644.587 L115.302 639.865 Q118.126 638.73 120.58 638.152 Q123.033 637.573 125.07 637.573 Q130.441 637.573 133.635 640.258 Q136.829 642.943 136.829 647.434 Q136.829 649.564 136.019 651.485 Q135.232 653.383 133.126 655.976 Q132.547 656.647 129.445 659.865 Q126.343 663.059 120.695 668.823 Z" fill="#000000" fill-rule="evenodd" fill-opacity="1" /><path clip-path="url(#clip700)" d="M 0 0 M152.084 641.277 Q148.473 641.277 146.644 644.841 Q144.839 648.383 144.839 655.513 Q144.839 662.619 146.644 666.184 Q148.473 669.726 152.084 669.726 Q155.718 669.726 157.524 666.184 Q159.353 662.619 159.353 655.513 Q159.353 648.383 157.524 644.841 Q155.718 641.277 152.084 641.277 M152.084 637.573 Q157.894 637.573 160.95 642.179 Q164.028 646.763 164.028 655.513 Q164.028 664.24 160.95 668.846 Q157.894 673.429 152.084 673.429 Q146.274 673.429 143.195 668.846 Q140.14 664.24 140.14 655.513 Q140.14 646.763 143.195 642.179 Q146.274 637.573 152.084 637.573 Z" fill="#000000" fill-rule="evenodd" fill-opacity="1" /><path clip-path="url(#clip700)" d="M 0 0 M179.098 641.277 Q175.487 641.277 173.658 644.841 Q171.852 648.383 171.852 655.513 Q171.852 662.619 173.658 666.184 Q175.487 669.726 179.098 669.726 Q182.732 669.726 184.538 666.184 Q186.366 662.619 186.366 655.513 Q186.366 648.383 184.538 644.841 Q182.732 641.277 179.098 641.277 M179.098 637.573 Q184.908 637.573 187.963 642.179 Q191.042 646.763 191.042 655.513 Q191.042 664.24 187.963 668.846 Q184.908 673.429 179.098 673.429 Q173.288 673.429 170.209 668.846 Q167.153 664.24 167.153 655.513 Q167.153 646.763 170.209 642.179 Q173.288 637.573 179.098 637.573 Z" fill="#000000" fill-rule="evenodd" fill-opacity="1" /><path clip-path="url(#clip700)" d="M 0 0 M129.885 283.536 Q133.242 284.254 135.117 286.523 Q137.015 288.791 137.015 292.124 Q137.015 297.24 133.496 300.041 Q129.978 302.842 123.496 302.842 Q121.32 302.842 119.006 302.402 Q116.714 301.985 114.26 301.129 L114.26 296.615 Q116.205 297.749 118.519 298.328 Q120.834 298.907 123.357 298.907 Q127.755 298.907 130.047 297.171 Q132.362 295.434 132.362 292.124 Q132.362 289.069 130.209 287.356 Q128.08 285.62 124.26 285.62 L120.232 285.62 L120.232 281.777 L124.445 281.777 Q127.894 281.777 129.723 280.411 Q131.552 279.023 131.552 276.43 Q131.552 273.768 129.654 272.356 Q127.779 270.921 124.26 270.921 Q122.339 270.921 120.14 271.337 Q117.941 271.754 115.302 272.634 L115.302 268.467 Q117.964 267.726 120.279 267.356 Q122.617 266.986 124.677 266.986 Q130.001 266.986 133.103 269.416 Q136.204 271.824 136.204 275.944 Q136.204 278.814 134.561 280.805 Q132.917 282.773 129.885 283.536 Z" fill="#000000" fill-rule="evenodd" fill-opacity="1" /><path clip-path="url(#clip700)" d="M 0 0 M152.084 270.689 Q148.473 270.689 146.644 274.254 Q144.839 277.796 144.839 284.925 Q144.839 292.032 146.644 295.597 Q148.473 299.138 152.084 299.138 Q155.718 299.138 157.524 295.597 Q159.353 292.032 159.353 284.925 Q159.353 277.796 157.524 274.254 Q155.718 270.689 152.084 270.689 M152.084 266.986 Q157.894 266.986 160.95 271.592 Q164.028 276.175 164.028 284.925 Q164.028 293.652 160.95 298.259 Q157.894 302.842 152.084 302.842 Q146.274 302.842 143.195 298.259 Q140.14 293.652 140.14 284.925 Q140.14 276.175 143.195 271.592 Q146.274 266.986 152.084 266.986 Z" fill="#000000" fill-rule="evenodd" fill-opacity="1" /><path clip-path="url(#clip700)" d="M 0 0 M179.098 270.689 Q175.487 270.689 173.658 274.254 Q171.852 277.796 171.852 284.925 Q171.852 292.032 173.658 295.597 Q175.487 299.138 179.098 299.138 Q182.732 299.138 184.538 295.597 Q186.366 292.032 186.366 284.925 Q186.366 277.796 184.538 274.254 Q182.732 270.689 179.098 270.689 M179.098 266.986 Q184.908 266.986 187.963 271.592 Q191.042 276.175 191.042 284.925 Q191.042 293.652 187.963 298.259 Q184.908 302.842 179.098 302.842 Q173.288 302.842 170.209 298.259 Q167.153 293.652 167.153 284.925 Q167.153 276.175 170.209 271.592 Q173.288 266.986 179.098 266.986 Z" fill="#000000" fill-rule="evenodd" fill-opacity="1" /><path clip-path="url(#clip700)" d="M 0 0 M59.1993 815.533 Q55.2526 813.336 53.3747 810.281 Q51.4968 807.225 51.4968 803.088 Q51.4968 797.518 55.4117 794.494 Q59.2948 791.47 66.4881 791.47 L88.0042 791.47 L88.0042 797.358 L66.679 797.358 Q61.5546 797.358 59.072 799.173 Q56.5894 800.987 56.5894 804.711 Q56.5894 809.262 59.6131 811.904 Q62.6368 814.546 67.8567 814.546 L88.0042 814.546 L88.0042 820.434 L66.679 820.434 Q61.5228 820.434 59.072 822.248 Q56.5894 824.063 56.5894 827.85 Q56.5894 832.338 59.6449 834.98 Q62.6686 837.622 67.8567 837.622 L88.0042 837.622 L88.0042 843.51 L52.3562 843.51 L52.3562 837.622 L57.8944 837.622 Q54.616 835.616 53.0564 832.815 Q51.4968 830.015 51.4968 826.163 Q51.4968 822.28 53.4702 819.575 Q55.4436 816.838 59.1993 815.533 Z" fill="#000000" fill-rule="evenodd" fill-opacity="1" /><path clip-path="url(#clip700)" d="M 0 0 M52.3562 785.327 L52.3562 779.471 L88.0042 779.471 L88.0042 785.327 L52.3562 785.327 M38.479 785.327 L38.479 779.471 L45.895 779.471 L45.895 785.327 L38.479 785.327 Z" fill="#000000" fill-rule="evenodd" fill-opacity="1" /><path clip-path="url(#clip700)" d="M 0 0 M66.4881 743.696 L88.0042 743.696 L88.0042 749.552 L66.679 749.552 Q61.6183 749.552 59.1038 751.525 Q56.5894 753.499 56.5894 757.446 Q56.5894 762.188 59.6131 764.925 Q62.6368 767.662 67.8567 767.662 L88.0042 767.662 L88.0042 773.551 L52.3562 773.551 L52.3562 767.662 L57.8944 767.662 Q54.6797 765.562 53.0883 762.729 Q51.4968 759.864 51.4968 756.141 Q51.4968 749.998 55.3163 746.847 Q59.1038 743.696 66.4881 743.696 Z" fill="#000000" fill-rule="evenodd" fill-opacity="1" /><path clip-path="url(#clip700)" d="M 0 0 M98.8259 710.467 L103.377 710.467 L103.377 744.332 L98.8259 744.332 L98.8259 710.467 Z" fill="#000000" fill-rule="evenodd" fill-opacity="1" /><path clip-path="url(#clip700)" d="M 0 0 M57.7671 680.866 L38.479 680.866 L38.479 675.01 L88.0042 675.01 L88.0042 680.866 L82.657 680.866 Q85.8398 682.712 87.3994 685.545 Q88.9272 688.346 88.9272 692.292 Q88.9272 698.754 83.771 702.828 Q78.6147 706.87 70.212 706.87 Q61.8093 706.87 56.6531 702.828 Q51.4968 698.754 51.4968 692.292 Q51.4968 688.346 53.0564 685.545 Q54.5842 682.712 57.7671 680.866 M70.212 700.823 Q76.6732 700.823 80.3653 698.181 Q84.0256 695.507 84.0256 690.86 Q84.0256 686.213 80.3653 683.54 Q76.6732 680.866 70.212 680.866 Q63.7508 680.866 60.0905 683.54 Q56.3984 686.213 56.3984 690.86 Q56.3984 695.507 60.0905 698.181 Q63.7508 700.823 70.212 700.823 Z" fill="#000000" fill-rule="evenodd" fill-opacity="1" /><path clip-path="url(#clip700)" d="M 0 0 M52.3562 668.867 L52.3562 663.01 L88.0042 663.01 L88.0042 668.867 L52.3562 668.867 M38.479 668.867 L38.479 663.01 L45.895 663.01 L45.895 668.867 L38.479 668.867 Z" fill="#000000" fill-rule="evenodd" fill-opacity="1" /><path clip-path="url(#clip700)" d="M 0 0 M38.479 638.821 L43.3487 638.821 L43.3487 644.422 Q43.3487 647.573 44.6219 648.815 Q45.895 650.024 49.2052 650.024 L52.3562 650.024 L52.3562 640.38 L56.9077 640.38 L56.9077 650.024 L88.0042 650.024 L88.0042 655.912 L56.9077 655.912 L56.9077 661.514 L52.3562 661.514 L52.3562 655.912 L49.8736 655.912 Q43.9216 655.912 41.2162 653.143 Q38.479 650.374 38.479 644.359 L38.479 638.821 Z" fill="#000000" fill-rule="evenodd" fill-opacity="1" /><path clip-path="url(#clip700)" d="M 0 0 M38.479 614.631 L43.3487 614.631 L43.3487 620.233 Q43.3487 623.384 44.6219 624.625 Q45.895 625.835 49.2052 625.835 L52.3562 625.835 L52.3562 616.19 L56.9077 616.19 L56.9077 625.835 L88.0042 625.835 L88.0042 631.723 L56.9077 631.723 L56.9077 637.325 L52.3562 637.325 L52.3562 631.723 L49.8736 631.723 Q43.9216 631.723 41.2162 628.954 Q38.479 626.185 38.479 620.169 L38.479 614.631 Z" fill="#000000" fill-rule="evenodd" fill-opacity="1" /><polyline clip-path="url(#clip702)" style="stroke:#009af9; stroke-width:20; stroke-opacity:1; fill:none" stroke-dasharray="80, 50" points="
  287.204,85.838 463.033,179.755 611.694,268.949 740.47,353.524 854.059,433.584 955.667,928.062 1131.5,1012.07 1280.16,1085.56 1346.69,1299.16 1408.93,1148.92 
  1522.52,1326.5 1624.13,1362.87 1671.18,1351.69 1799.96,1368.64 1913.55,1372.3 1948.62,1369.48 2015.16,1369.19 2077.4,1353.28 2190.99,1320.89 2292.59,1277.38 
  
  "/>
<path clip-path="url(#clip700)" d="
M1994.69 213.659 L2281.9 213.659 L2281.9 92.6992 L1994.69 92.6992  Z
  " fill="#ffffff" fill-rule="evenodd" fill-opacity="1"/>
<polyline clip-path="url(#clip700)" style="stroke:#000000; stroke-width:4; stroke-opacity:1; fill:none" points="
  1994.69,213.659 2281.9,213.659 2281.9,92.6992 1994.69,92.6992 1994.69,213.659 
  "/>
<polyline clip-path="url(#clip700)" style="stroke:#009af9; stroke-width:4; stroke-opacity:1; fill:none" stroke-dasharray="16, 10" points="
  2018.31,153.179 2160.02,153.179 
  "/>
<path clip-path="url(#clip700)" d="M 0 0 M2197.48 172.867 Q2195.68 177.496 2193.97 178.908 Q2192.25 180.32 2189.38 180.32 L2185.98 180.32 L2185.98 176.755 L2188.48 176.755 Q2190.24 176.755 2191.21 175.922 Q2192.18 175.089 2193.36 171.987 L2194.13 170.043 L2183.64 144.533 L2188.16 144.533 L2196.26 164.811 L2204.36 144.533 L2208.87 144.533 L2197.48 172.867 Z" fill="#000000" fill-rule="evenodd" fill-opacity="1" /><path clip-path="url(#clip700)" d="M 0 0 M2214.75 166.524 L2222.39 166.524 L2222.39 140.158 L2214.08 141.825 L2214.08 137.566 L2222.35 135.899 L2227.02 135.899 L2227.02 166.524 L2234.66 166.524 L2234.66 170.459 L2214.75 170.459 L2214.75 166.524 Z" fill="#000000" fill-rule="evenodd" fill-opacity="1" /></svg>
