<?xml version="1.0" encoding="utf-8"?>
<svg xmlns="http://www.w3.org/2000/svg" xmlns:xlink="http://www.w3.org/1999/xlink" width="600" height="400" viewBox="0 0 2400 1600">
<defs>
  <clipPath id="clip320">
    <rect x="0" y="0" width="2400" height="1600"/>
  </clipPath>
</defs>
<path clip-path="url(#clip320)" d="
M0 1600 L2400 1600 L2400 0 L0 0  Z
  " fill="#ffffff" fill-rule="evenodd" fill-opacity="1"/>
<defs>
  <clipPath id="clip321">
    <rect x="480" y="0" width="1681" height="1600"/>
  </clipPath>
</defs>
<path clip-path="url(#clip320)" d="
M226.232 1410.9 L2352.76 1410.9 L2352.76 47.2441 L226.232 47.2441  Z
  " fill="#ffffff" fill-rule="evenodd" fill-opacity="1"/>
<defs>
  <clipPath id="clip322">
    <rect x="226" y="47" width="2128" height="1365"/>
  </clipPath>
</defs>
<polyline clip-path="url(#clip322)" style="stroke:#000000; stroke-width:2; stroke-opacity:0.1; fill:none" points="
  289.849,1410.9 289.849,47.2441 
  "/>
<polyline clip-path="url(#clip322)" style="stroke:#000000; stroke-width:2; stroke-opacity:0.1; fill:none" points="
  623.064,1410.9 623.064,47.2441 
  "/>
<polyline clip-path="url(#clip322)" style="stroke:#000000; stroke-width:2; stroke-opacity:0.1; fill:none" points="
  956.279,1410.9 956.279,47.2441 
  "/>
<polyline clip-path="url(#clip322)" style="stroke:#000000; stroke-width:2; stroke-opacity:0.1; fill:none" points="
  1289.49,1410.9 1289.49,47.2441 
  "/>
<polyline clip-path="url(#clip322)" style="stroke:#000000; stroke-width:2; stroke-opacity:0.1; fill:none" points="
  1622.71,1410.9 1622.71,47.2441 
  "/>
<polyline clip-path="url(#clip322)" style="stroke:#000000; stroke-width:2; stroke-opacity:0.1; fill:none" points="
  1955.92,1410.9 1955.92,47.2441 
  "/>
<polyline clip-path="url(#clip322)" style="stroke:#000000; stroke-width:2; stroke-opacity:0.1; fill:none" points="
  2289.14,1410.9 2289.14,47.2441 
  "/>
<polyline clip-path="url(#clip320)" style="stroke:#000000; stroke-width:4; stroke-opacity:1; fill:none" points="
  226.232,1410.9 2352.76,1410.9 
  "/>
<polyline clip-path="url(#clip320)" style="stroke:#000000; stroke-width:4; stroke-opacity:1; fill:none" points="
  289.849,1410.9 289.849,1394.53 
  "/>
<polyline clip-path="url(#clip320)" style="stroke:#000000; stroke-width:4; stroke-opacity:1; fill:none" points="
  623.064,1410.9 623.064,1394.53 
  "/>
<polyline clip-path="url(#clip320)" style="stroke:#000000; stroke-width:4; stroke-opacity:1; fill:none" points="
  956.279,1410.9 956.279,1394.53 
  "/>
<polyline clip-path="url(#clip320)" style="stroke:#000000; stroke-width:4; stroke-opacity:1; fill:none" points="
  1289.49,1410.9 1289.49,1394.53 
  "/>
<polyline clip-path="url(#clip320)" style="stroke:#000000; stroke-width:4; stroke-opacity:1; fill:none" points="
  1622.71,1410.9 1622.71,1394.53 
  "/>
<polyline clip-path="url(#clip320)" style="stroke:#000000; stroke-width:4; stroke-opacity:1; fill:none" points="
  1955.92,1410.9 1955.92,1394.53 
  "/>
<polyline clip-path="url(#clip320)" style="stroke:#000000; stroke-width:4; stroke-opacity:1; fill:none" points="
  2289.14,1410.9 2289.14,1394.53 
  "/>
<path clip-path="url(#clip320)" d="M 0 0 M228.939 1489.17 L236.578 1489.17 L236.578 1462.8 L228.268 1464.47 L228.268 1460.21 L236.532 1458.54 L241.207 1458.54 L241.207 1489.17 L248.846 1489.17 L248.846 1493.1 L228.939 1493.1 L228.939 1489.17 Z" fill="#000000" fill-rule="evenodd" fill-opacity="1" /><path clip-path="url(#clip320)" d="M 0 0 M263.916 1461.62 Q260.305 1461.62 258.476 1465.19 Q256.67 1468.73 256.67 1475.86 Q256.67 1482.97 258.476 1486.53 Q260.305 1490.07 263.916 1490.07 Q267.55 1490.07 269.355 1486.53 Q271.184 1482.97 271.184 1475.86 Q271.184 1468.73 269.355 1465.19 Q267.55 1461.62 263.916 1461.62 M263.916 1457.92 Q269.726 1457.92 272.781 1462.53 Q275.86 1467.11 275.86 1475.86 Q275.86 1484.59 272.781 1489.19 Q269.726 1493.78 263.916 1493.78 Q258.106 1493.78 255.027 1489.19 Q251.971 1484.59 251.971 1475.86 Q251.971 1467.11 255.027 1462.53 Q258.106 1457.92 263.916 1457.92 Z" fill="#000000" fill-rule="evenodd" fill-opacity="1" /><path clip-path="url(#clip320)" d="M 0 0 M275.86 1452.02 L299.972 1452.02 L299.972 1455.22 L275.86 1455.22 L275.86 1452.02 Z" fill="#000000" fill-rule="evenodd" fill-opacity="1" /><path clip-path="url(#clip320)" d="M 0 0 M312.215 1440.11 Q309.281 1440.11 307.796 1443.01 Q306.329 1445.89 306.329 1451.68 Q306.329 1457.46 307.796 1460.35 Q309.281 1463.23 312.215 1463.23 Q315.168 1463.23 316.635 1460.35 Q318.121 1457.46 318.121 1451.68 Q318.121 1445.89 316.635 1443.01 Q315.168 1440.11 312.215 1440.11 M312.215 1437.11 Q316.936 1437.11 319.419 1440.85 Q321.92 1444.57 321.92 1451.68 Q321.92 1458.77 319.419 1462.51 Q316.936 1466.24 312.215 1466.24 Q307.495 1466.24 304.993 1462.51 Q302.511 1458.77 302.511 1451.68 Q302.511 1444.57 304.993 1440.85 Q307.495 1437.11 312.215 1437.11 Z" fill="#000000" fill-rule="evenodd" fill-opacity="1" /><path clip-path="url(#clip320)" d="M 0 0 M326.039 1460.92 L330.008 1460.92 L330.008 1465.69 L326.039 1465.69 L326.039 1460.92 Z" fill="#000000" fill-rule="evenodd" fill-opacity="1" /><path clip-path="url(#clip320)" d="M 0 0 M345.637 1450.55 Q348.364 1451.14 349.887 1452.98 Q351.43 1454.82 351.43 1457.53 Q351.43 1461.69 348.571 1463.96 Q345.712 1466.24 340.446 1466.24 Q338.678 1466.24 336.797 1465.88 Q334.935 1465.54 332.942 1464.85 L332.942 1461.18 Q334.522 1462.1 336.402 1462.57 Q338.283 1463.04 340.333 1463.04 Q343.907 1463.04 345.769 1461.63 Q347.649 1460.22 347.649 1457.53 Q347.649 1455.05 345.9 1453.66 Q344.17 1452.25 341.067 1452.25 L337.794 1452.25 L337.794 1449.12 L341.217 1449.12 Q344.019 1449.12 345.505 1448.01 Q346.991 1446.89 346.991 1444.78 Q346.991 1442.62 345.449 1441.47 Q343.925 1440.3 341.067 1440.3 Q339.506 1440.3 337.719 1440.64 Q335.932 1440.98 333.788 1441.69 L333.788 1438.31 Q335.951 1437.71 337.832 1437.41 Q339.731 1437.11 341.405 1437.11 Q345.731 1437.11 348.251 1439.08 Q350.771 1441.04 350.771 1444.38 Q350.771 1446.72 349.436 1448.33 Q348.101 1449.93 345.637 1450.55 Z" fill="#000000" fill-rule="evenodd" fill-opacity="1" /><path clip-path="url(#clip320)" d="M 0 0 M562.54 1489.17 L570.179 1489.17 L570.179 1462.8 L561.868 1464.47 L561.868 1460.21 L570.132 1458.54 L574.808 1458.54 L574.808 1489.17 L582.447 1489.17 L582.447 1493.1 L562.54 1493.1 L562.54 1489.17 Z" fill="#000000" fill-rule="evenodd" fill-opacity="1" /><path clip-path="url(#clip320)" d="M 0 0 M597.516 1461.62 Q593.905 1461.62 592.077 1465.19 Q590.271 1468.73 590.271 1475.86 Q590.271 1482.97 592.077 1486.53 Q593.905 1490.07 597.516 1490.07 Q601.151 1490.07 602.956 1486.53 Q604.785 1482.97 604.785 1475.86 Q604.785 1468.73 602.956 1465.19 Q601.151 1461.62 597.516 1461.62 M597.516 1457.92 Q603.326 1457.92 606.382 1462.53 Q609.461 1467.11 609.461 1475.86 Q609.461 1484.59 606.382 1489.19 Q603.326 1493.78 597.516 1493.78 Q591.706 1493.78 588.627 1489.19 Q585.572 1484.59 585.572 1475.86 Q585.572 1467.11 588.627 1462.53 Q591.706 1457.92 597.516 1457.92 Z" fill="#000000" fill-rule="evenodd" fill-opacity="1" /><path clip-path="url(#clip320)" d="M 0 0 M609.461 1452.02 L633.572 1452.02 L633.572 1455.22 L609.461 1455.22 L609.461 1452.02 Z" fill="#000000" fill-rule="evenodd" fill-opacity="1" /><path clip-path="url(#clip320)" d="M 0 0 M645.816 1440.11 Q642.882 1440.11 641.396 1443.01 Q639.929 1445.89 639.929 1451.68 Q639.929 1457.46 641.396 1460.35 Q642.882 1463.23 645.816 1463.23 Q648.769 1463.23 650.236 1460.35 Q651.722 1457.46 651.722 1451.68 Q651.722 1445.89 650.236 1443.01 Q648.769 1440.11 645.816 1440.11 M645.816 1437.11 Q650.537 1437.11 653.02 1440.85 Q655.521 1444.57 655.521 1451.68 Q655.521 1458.77 653.02 1462.51 Q650.537 1466.24 645.816 1466.24 Q641.095 1466.24 638.594 1462.51 Q636.111 1458.77 636.111 1451.68 Q636.111 1444.57 638.594 1440.85 Q641.095 1437.11 645.816 1437.11 Z" fill="#000000" fill-rule="evenodd" fill-opacity="1" /><path clip-path="url(#clip320)" d="M 0 0 M659.64 1460.92 L663.608 1460.92 L663.608 1465.69 L659.64 1465.69 L659.64 1460.92 Z" fill="#000000" fill-rule="evenodd" fill-opacity="1" /><path clip-path="url(#clip320)" d="M 0 0 M671 1462.5 L684.259 1462.5 L684.259 1465.69 L666.429 1465.69 L666.429 1462.5 Q668.592 1460.26 672.316 1456.5 Q676.059 1452.72 677.018 1451.63 Q678.843 1449.58 679.557 1448.16 Q680.291 1446.74 680.291 1445.36 Q680.291 1443.12 678.711 1441.71 Q677.15 1440.3 674.63 1440.3 Q672.843 1440.3 670.849 1440.92 Q668.874 1441.54 666.618 1442.8 L666.618 1438.97 Q668.912 1438.05 670.906 1437.58 Q672.899 1437.11 674.554 1437.11 Q678.918 1437.11 681.513 1439.29 Q684.109 1441.47 684.109 1445.12 Q684.109 1446.85 683.45 1448.41 Q682.811 1449.95 681.1 1452.06 Q680.629 1452.6 678.109 1455.22 Q675.589 1457.81 671 1462.5 Z" fill="#000000" fill-rule="evenodd" fill-opacity="1" /><path clip-path="url(#clip320)" d="M 0 0 M895.604 1489.17 L903.243 1489.17 L903.243 1462.8 L894.933 1464.47 L894.933 1460.21 L903.197 1458.54 L907.873 1458.54 L907.873 1489.17 L915.512 1489.17 L915.512 1493.1 L895.604 1493.1 L895.604 1489.17 Z" fill="#000000" fill-rule="evenodd" fill-opacity="1" /><path clip-path="url(#clip320)" d="M 0 0 M930.581 1461.62 Q926.97 1461.62 925.141 1465.19 Q923.336 1468.73 923.336 1475.86 Q923.336 1482.97 925.141 1486.53 Q926.97 1490.07 930.581 1490.07 Q934.215 1490.07 936.021 1486.53 Q937.849 1482.97 937.849 1475.86 Q937.849 1468.73 936.021 1465.19 Q934.215 1461.62 930.581 1461.62 M930.581 1457.92 Q936.391 1457.92 939.447 1462.53 Q942.525 1467.11 942.525 1475.86 Q942.525 1484.59 939.447 1489.19 Q936.391 1493.78 930.581 1493.78 Q924.771 1493.78 921.692 1489.19 Q918.637 1484.59 918.637 1475.86 Q918.637 1467.11 921.692 1462.53 Q924.771 1457.92 930.581 1457.92 Z" fill="#000000" fill-rule="evenodd" fill-opacity="1" /><path clip-path="url(#clip320)" d="M 0 0 M942.525 1452.02 L966.637 1452.02 L966.637 1455.22 L942.525 1455.22 L942.525 1452.02 Z" fill="#000000" fill-rule="evenodd" fill-opacity="1" /><path clip-path="url(#clip320)" d="M 0 0 M978.881 1440.11 Q975.947 1440.11 974.461 1443.01 Q972.994 1445.89 972.994 1451.68 Q972.994 1457.46 974.461 1460.35 Q975.947 1463.23 978.881 1463.23 Q981.834 1463.23 983.301 1460.35 Q984.786 1457.46 984.786 1451.68 Q984.786 1445.89 983.301 1443.01 Q981.834 1440.11 978.881 1440.11 M978.881 1437.11 Q983.601 1437.11 986.084 1440.85 Q988.586 1444.57 988.586 1451.68 Q988.586 1458.77 986.084 1462.51 Q983.601 1466.24 978.881 1466.24 Q974.16 1466.24 971.659 1462.51 Q969.176 1458.77 969.176 1451.68 Q969.176 1444.57 971.659 1440.85 Q974.16 1437.11 978.881 1437.11 Z" fill="#000000" fill-rule="evenodd" fill-opacity="1" /><path clip-path="url(#clip320)" d="M 0 0 M992.704 1460.92 L996.673 1460.92 L996.673 1465.69 L992.704 1465.69 L992.704 1460.92 Z" fill="#000000" fill-rule="evenodd" fill-opacity="1" /><path clip-path="url(#clip320)" d="M 0 0 M1001.45 1462.5 L1007.66 1462.5 L1007.66 1441.07 L1000.9 1442.43 L1000.9 1438.97 L1007.62 1437.61 L1011.42 1437.61 L1011.42 1462.5 L1017.62 1462.5 L1017.62 1465.69 L1001.45 1465.69 L1001.45 1462.5 Z" fill="#000000" fill-rule="evenodd" fill-opacity="1" /><path clip-path="url(#clip320)" d="M 0 0 M1241.65 1489.17 L1249.29 1489.17 L1249.29 1462.8 L1240.97 1464.47 L1240.97 1460.21 L1249.24 1458.54 L1253.91 1458.54 L1253.91 1489.17 L1261.55 1489.17 L1261.55 1493.1 L1241.65 1493.1 L1241.65 1489.17 Z" fill="#000000" fill-rule="evenodd" fill-opacity="1" /><path clip-path="url(#clip320)" d="M 0 0 M1276.62 1461.62 Q1273.01 1461.62 1271.18 1465.19 Q1269.38 1468.73 1269.38 1475.86 Q1269.38 1482.97 1271.18 1486.53 Q1273.01 1490.07 1276.62 1490.07 Q1280.26 1490.07 1282.06 1486.53 Q1283.89 1482.97 1283.89 1475.86 Q1283.89 1468.73 1282.06 1465.19 Q1280.26 1461.62 1276.62 1461.62 M1276.62 1457.92 Q1282.43 1457.92 1285.49 1462.53 Q1288.57 1467.11 1288.57 1475.86 Q1288.57 1484.59 1285.49 1489.19 Q1282.43 1493.78 1276.62 1493.78 Q1270.81 1493.78 1267.73 1489.19 Q1264.68 1484.59 1264.68 1475.86 Q1264.68 1467.11 1267.73 1462.53 Q1270.81 1457.92 1276.62 1457.92 Z" fill="#000000" fill-rule="evenodd" fill-opacity="1" /><path clip-path="url(#clip320)" d="M 0 0 M1298.27 1440.11 Q1295.34 1440.11 1293.85 1443.01 Q1292.39 1445.89 1292.39 1451.68 Q1292.39 1457.46 1293.85 1460.35 Q1295.34 1463.23 1298.27 1463.23 Q1301.22 1463.23 1302.69 1460.35 Q1304.18 1457.46 1304.18 1451.68 Q1304.18 1445.89 1302.69 1443.01 Q1301.22 1440.11 1298.27 1440.11 M1298.27 1437.11 Q1302.99 1437.11 1305.48 1440.85 Q1307.98 1444.57 1307.98 1451.68 Q1307.98 1458.77 1305.48 1462.51 Q1302.99 1466.24 1298.27 1466.24 Q1293.55 1466.24 1291.05 1462.51 Q1288.57 1458.77 1288.57 1451.68 Q1288.57 1444.57 1291.05 1440.85 Q1293.55 1437.11 1298.27 1437.11 Z" fill="#000000" fill-rule="evenodd" fill-opacity="1" /><path clip-path="url(#clip320)" d="M 0 0 M1312.1 1460.92 L1316.06 1460.92 L1316.06 1465.69 L1312.1 1465.69 L1312.1 1460.92 Z" fill="#000000" fill-rule="evenodd" fill-opacity="1" /><path clip-path="url(#clip320)" d="M 0 0 M1328.31 1440.11 Q1325.37 1440.11 1323.89 1443.01 Q1322.42 1445.89 1322.42 1451.68 Q1322.42 1457.46 1323.89 1460.35 Q1325.37 1463.23 1328.31 1463.23 Q1331.26 1463.23 1332.73 1460.35 Q1334.21 1457.46 1334.21 1451.68 Q1334.21 1445.89 1332.73 1443.01 Q1331.26 1440.11 1328.31 1440.11 M1328.31 1437.11 Q1333.03 1437.11 1335.51 1440.85 Q1338.01 1444.57 1338.01 1451.68 Q1338.01 1458.77 1335.51 1462.51 Q1333.03 1466.24 1328.31 1466.24 Q1323.59 1466.24 1321.09 1462.51 Q1318.6 1458.77 1318.6 1451.68 Q1318.6 1444.57 1321.09 1440.85 Q1323.59 1437.11 1328.31 1437.11 Z" fill="#000000" fill-rule="evenodd" fill-opacity="1" /><path clip-path="url(#clip320)" d="M 0 0 M1575.36 1489.17 L1583 1489.17 L1583 1462.8 L1574.69 1464.47 L1574.69 1460.21 L1582.95 1458.54 L1587.63 1458.54 L1587.63 1489.17 L1595.27 1489.17 L1595.27 1493.1 L1575.36 1493.1 L1575.36 1489.17 Z" fill="#000000" fill-rule="evenodd" fill-opacity="1" /><path clip-path="url(#clip320)" d="M 0 0 M1610.34 1461.62 Q1606.73 1461.62 1604.9 1465.19 Q1603.09 1468.73 1603.09 1475.86 Q1603.09 1482.97 1604.9 1486.53 Q1606.73 1490.07 1610.34 1490.07 Q1613.97 1490.07 1615.78 1486.53 Q1617.6 1482.97 1617.6 1475.86 Q1617.6 1468.73 1615.78 1465.19 Q1613.97 1461.62 1610.34 1461.62 M1610.34 1457.92 Q1616.15 1457.92 1619.2 1462.53 Q1622.28 1467.11 1622.28 1475.86 Q1622.28 1484.59 1619.2 1489.19 Q1616.15 1493.78 1610.34 1493.78 Q1604.53 1493.78 1601.45 1489.19 Q1598.39 1484.59 1598.39 1475.86 Q1598.39 1467.11 1601.45 1462.53 Q1604.53 1457.92 1610.34 1457.92 Z" fill="#000000" fill-rule="evenodd" fill-opacity="1" /><path clip-path="url(#clip320)" d="M 0 0 M1631.99 1440.11 Q1629.05 1440.11 1627.57 1443.01 Q1626.1 1445.89 1626.1 1451.68 Q1626.1 1457.46 1627.57 1460.35 Q1629.05 1463.23 1631.99 1463.23 Q1634.94 1463.23 1636.41 1460.35 Q1637.89 1457.46 1637.89 1451.68 Q1637.89 1445.89 1636.41 1443.01 Q1634.94 1440.11 1631.99 1440.11 M1631.99 1437.11 Q1636.71 1437.11 1639.19 1440.85 Q1641.69 1444.57 1641.69 1451.68 Q1641.69 1458.77 1639.19 1462.51 Q1636.71 1466.24 1631.99 1466.24 Q1627.26 1466.24 1624.76 1462.51 Q1622.28 1458.77 1622.28 1451.68 Q1622.28 1444.57 1624.76 1440.85 Q1627.26 1437.11 1631.99 1437.11 Z" fill="#000000" fill-rule="evenodd" fill-opacity="1" /><path clip-path="url(#clip320)" d="M 0 0 M1645.81 1460.92 L1649.78 1460.92 L1649.78 1465.69 L1645.81 1465.69 L1645.81 1460.92 Z" fill="#000000" fill-rule="evenodd" fill-opacity="1" /><path clip-path="url(#clip320)" d="M 0 0 M1654.55 1462.5 L1660.76 1462.5 L1660.76 1441.07 L1654.01 1442.43 L1654.01 1438.97 L1660.72 1437.61 L1664.52 1437.61 L1664.52 1462.5 L1670.73 1462.5 L1670.73 1465.69 L1654.55 1465.69 L1654.55 1462.5 Z" fill="#000000" fill-rule="evenodd" fill-opacity="1" /><path clip-path="url(#clip320)" d="M 0 0 M1908.73 1489.17 L1916.36 1489.17 L1916.36 1462.8 L1908.05 1464.47 L1908.05 1460.21 L1916.32 1458.54 L1920.99 1458.54 L1920.99 1489.17 L1928.63 1489.17 L1928.63 1493.1 L1908.73 1493.1 L1908.73 1489.17 Z" fill="#000000" fill-rule="evenodd" fill-opacity="1" /><path clip-path="url(#clip320)" d="M 0 0 M1943.7 1461.62 Q1940.09 1461.62 1938.26 1465.19 Q1936.46 1468.73 1936.46 1475.86 Q1936.46 1482.97 1938.26 1486.53 Q1940.09 1490.07 1943.7 1490.07 Q1947.34 1490.07 1949.14 1486.53 Q1950.97 1482.97 1950.97 1475.86 Q1950.97 1468.73 1949.14 1465.19 Q1947.34 1461.62 1943.7 1461.62 M1943.7 1457.92 Q1949.51 1457.92 1952.57 1462.53 Q1955.65 1467.11 1955.65 1475.86 Q1955.65 1484.59 1952.57 1489.19 Q1949.51 1493.78 1943.7 1493.78 Q1937.89 1493.78 1934.81 1489.19 Q1931.76 1484.59 1931.76 1475.86 Q1931.76 1467.11 1934.81 1462.53 Q1937.89 1457.92 1943.7 1457.92 Z" fill="#000000" fill-rule="evenodd" fill-opacity="1" /><path clip-path="url(#clip320)" d="M 0 0 M1965.35 1440.11 Q1962.42 1440.11 1960.93 1443.01 Q1959.46 1445.89 1959.46 1451.68 Q1959.46 1457.46 1960.93 1460.35 Q1962.42 1463.23 1965.35 1463.23 Q1968.3 1463.23 1969.77 1460.35 Q1971.26 1457.46 1971.26 1451.68 Q1971.26 1445.89 1969.77 1443.01 Q1968.3 1440.11 1965.35 1440.11 M1965.35 1437.11 Q1970.07 1437.11 1972.55 1440.85 Q1975.06 1444.57 1975.06 1451.68 Q1975.06 1458.77 1972.55 1462.51 Q1970.07 1466.24 1965.35 1466.24 Q1960.63 1466.24 1958.13 1462.51 Q1955.65 1458.77 1955.65 1451.68 Q1955.65 1444.57 1958.13 1440.85 Q1960.63 1437.11 1965.35 1437.11 Z" fill="#000000" fill-rule="evenodd" fill-opacity="1" /><path clip-path="url(#clip320)" d="M 0 0 M1979.17 1460.92 L1983.14 1460.92 L1983.14 1465.69 L1979.17 1465.69 L1979.17 1460.92 Z" fill="#000000" fill-rule="evenodd" fill-opacity="1" /><path clip-path="url(#clip320)" d="M 0 0 M1990.53 1462.5 L2003.79 1462.5 L2003.79 1465.69 L1985.96 1465.69 L1985.96 1462.5 Q1988.13 1460.26 1991.85 1456.5 Q1995.59 1452.72 1996.55 1451.63 Q1998.38 1449.58 1999.09 1448.16 Q1999.83 1446.74 1999.83 1445.36 Q1999.83 1443.12 1998.25 1441.71 Q1996.68 1440.3 1994.16 1440.3 Q1992.38 1440.3 1990.38 1440.92 Q1988.41 1441.54 1986.15 1442.8 L1986.15 1438.97 Q1988.45 1438.05 1990.44 1437.58 Q1992.43 1437.11 1994.09 1437.11 Q1998.45 1437.11 2001.05 1439.29 Q2003.64 1441.47 2003.64 1445.12 Q2003.64 1446.85 2002.99 1448.41 Q2002.35 1449.95 2000.63 1452.06 Q2000.16 1452.6 1997.64 1455.22 Q1995.12 1457.81 1990.53 1462.5 Z" fill="#000000" fill-rule="evenodd" fill-opacity="1" /><path clip-path="url(#clip320)" d="M 0 0 M2241.55 1489.17 L2249.19 1489.17 L2249.19 1462.8 L2240.88 1464.47 L2240.88 1460.21 L2249.15 1458.54 L2253.82 1458.54 L2253.82 1489.17 L2261.46 1489.17 L2261.46 1493.1 L2241.55 1493.1 L2241.55 1489.17 Z" fill="#000000" fill-rule="evenodd" fill-opacity="1" /><path clip-path="url(#clip320)" d="M 0 0 M2276.53 1461.62 Q2272.92 1461.62 2271.09 1465.19 Q2269.29 1468.73 2269.29 1475.86 Q2269.29 1482.97 2271.09 1486.53 Q2272.92 1490.07 2276.53 1490.07 Q2280.17 1490.07 2281.97 1486.53 Q2283.8 1482.97 2283.8 1475.86 Q2283.8 1468.73 2281.97 1465.19 Q2280.17 1461.62 2276.53 1461.62 M2276.53 1457.92 Q2282.34 1457.92 2285.4 1462.53 Q2288.48 1467.11 2288.48 1475.86 Q2288.48 1484.59 2285.4 1489.19 Q2282.34 1493.78 2276.53 1493.78 Q2270.72 1493.78 2267.64 1489.19 Q2264.59 1484.59 2264.59 1475.86 Q2264.59 1467.11 2267.64 1462.53 Q2270.72 1457.92 2276.53 1457.92 Z" fill="#000000" fill-rule="evenodd" fill-opacity="1" /><path clip-path="url(#clip320)" d="M 0 0 M2298.18 1440.11 Q2295.25 1440.11 2293.76 1443.01 Q2292.29 1445.89 2292.29 1451.68 Q2292.29 1457.46 2293.76 1460.35 Q2295.25 1463.23 2298.18 1463.23 Q2301.13 1463.23 2302.6 1460.35 Q2304.09 1457.46 2304.09 1451.68 Q2304.09 1445.89 2302.6 1443.01 Q2301.13 1440.11 2298.18 1440.11 M2298.18 1437.11 Q2302.9 1437.11 2305.38 1440.85 Q2307.89 1444.57 2307.89 1451.68 Q2307.89 1458.77 2305.38 1462.51 Q2302.9 1466.24 2298.18 1466.24 Q2293.46 1466.24 2290.96 1462.51 Q2288.48 1458.77 2288.48 1451.68 Q2288.48 1444.57 2290.96 1440.85 Q2293.46 1437.11 2298.18 1437.11 Z" fill="#000000" fill-rule="evenodd" fill-opacity="1" /><path clip-path="url(#clip320)" d="M 0 0 M2312 1460.92 L2315.97 1460.92 L2315.97 1465.69 L2312 1465.69 L2312 1460.92 Z" fill="#000000" fill-rule="evenodd" fill-opacity="1" /><path clip-path="url(#clip320)" d="M 0 0 M2331.6 1450.55 Q2334.33 1451.14 2335.85 1452.98 Q2337.39 1454.82 2337.39 1457.53 Q2337.39 1461.69 2334.54 1463.96 Q2331.68 1466.24 2326.41 1466.24 Q2324.64 1466.24 2322.76 1465.88 Q2320.9 1465.54 2318.91 1464.85 L2318.91 1461.18 Q2320.49 1462.1 2322.37 1462.57 Q2324.25 1463.04 2326.3 1463.04 Q2329.87 1463.04 2331.73 1461.63 Q2333.61 1460.22 2333.61 1457.53 Q2333.61 1455.05 2331.87 1453.66 Q2330.14 1452.25 2327.03 1452.25 L2323.76 1452.25 L2323.76 1449.12 L2327.18 1449.12 Q2329.98 1449.12 2331.47 1448.01 Q2332.96 1446.89 2332.96 1444.78 Q2332.96 1442.62 2331.41 1441.47 Q2329.89 1440.3 2327.03 1440.3 Q2325.47 1440.3 2323.68 1440.64 Q2321.9 1440.98 2319.75 1441.69 L2319.75 1438.31 Q2321.92 1437.71 2323.8 1437.41 Q2325.7 1437.11 2327.37 1437.11 Q2331.7 1437.11 2334.22 1439.08 Q2336.74 1441.04 2336.74 1444.38 Q2336.74 1446.72 2335.4 1448.33 Q2334.07 1449.93 2331.6 1450.55 Z" fill="#000000" fill-rule="evenodd" fill-opacity="1" /><path clip-path="url(#clip320)" d="M 0 0 M1294.7 1545.6 L1293.3 1538.25 Q1291.87 1530.71 1286.2 1530.71 Q1281.93 1530.71 1279.99 1534.21 Q1277.54 1538.6 1277.54 1544.39 Q1277.54 1551.4 1279.93 1554.74 Q1282.35 1558.14 1286.2 1558.14 Q1290.46 1558.14 1292.76 1551.36 L1294.7 1545.6 M1297.98 1535.86 L1301.13 1526.54 L1306.35 1526.54 L1299.82 1545.86 L1301.1 1552.83 Q1301.38 1554.39 1302.5 1555.69 Q1303.8 1557.22 1304.82 1557.22 L1307.62 1557.22 L1307.62 1562.19 L1304.12 1562.19 Q1301.13 1562.19 1298.45 1559.51 Q1297.15 1558.18 1296.61 1555.37 Q1295.14 1558.91 1292.15 1561.68 Q1290.75 1562.98 1286.2 1562.98 Q1278.72 1562.98 1275.09 1558.14 Q1271.37 1553.15 1271.37 1544.39 Q1271.37 1535.04 1275.41 1530.64 Q1279.9 1525.74 1286.2 1525.74 Q1296.1 1525.74 1297.98 1535.86 Z" fill="#000000" fill-rule="evenodd" fill-opacity="1" /><polyline clip-path="url(#clip322)" style="stroke:#000000; stroke-width:2; stroke-opacity:0.1; fill:none" points="
  226.232,1390.72 2352.76,1390.72 
  "/>
<polyline clip-path="url(#clip322)" style="stroke:#000000; stroke-width:2; stroke-opacity:0.1; fill:none" points="
  226.232,1153.55 2352.76,1153.55 
  "/>
<polyline clip-path="url(#clip322)" style="stroke:#000000; stroke-width:2; stroke-opacity:0.1; fill:none" points="
  226.232,916.371 2352.76,916.371 
  "/>
<polyline clip-path="url(#clip322)" style="stroke:#000000; stroke-width:2; stroke-opacity:0.1; fill:none" points="
  226.232,679.194 2352.76,679.194 
  "/>
<polyline clip-path="url(#clip322)" style="stroke:#000000; stroke-width:2; stroke-opacity:0.1; fill:none" points="
  226.232,442.017 2352.76,442.017 
  "/>
<polyline clip-path="url(#clip322)" style="stroke:#000000; stroke-width:2; stroke-opacity:0.1; fill:none" points="
  226.232,204.84 2352.76,204.84 
  "/>
<polyline clip-path="url(#clip320)" style="stroke:#000000; stroke-width:4; stroke-opacity:1; fill:none" points="
  226.232,1410.9 226.232,47.2441 
  "/>
<polyline clip-path="url(#clip320)" style="stroke:#000000; stroke-width:4; stroke-opacity:1; fill:none" points="
  226.232,1390.72 251.75,1390.72 
  "/>
<polyline clip-path="url(#clip320)" style="stroke:#000000; stroke-width:4; stroke-opacity:1; fill:none" points="
  226.232,1153.55 251.75,1153.55 
  "/>
<polyline clip-path="url(#clip320)" style="stroke:#000000; stroke-width:4; stroke-opacity:1; fill:none" points="
  226.232,916.371 251.75,916.371 
  "/>
<polyline clip-path="url(#clip320)" style="stroke:#000000; stroke-width:4; stroke-opacity:1; fill:none" points="
  226.232,679.194 251.75,679.194 
  "/>
<polyline clip-path="url(#clip320)" style="stroke:#000000; stroke-width:4; stroke-opacity:1; fill:none" points="
  226.232,442.017 251.75,442.017 
  "/>
<polyline clip-path="url(#clip320)" style="stroke:#000000; stroke-width:4; stroke-opacity:1; fill:none" points="
  226.232,204.84 251.75,204.84 
  "/>
<path clip-path="url(#clip320)" d="M 0 0 M178.288 1376.52 Q174.677 1376.52 172.848 1380.09 Q171.042 1383.63 171.042 1390.76 Q171.042 1397.87 172.848 1401.43 Q174.677 1404.97 178.288 1404.97 Q181.922 1404.97 183.727 1401.43 Q185.556 1397.87 185.556 1390.76 Q185.556 1383.63 183.727 1380.09 Q181.922 1376.52 178.288 1376.52 M178.288 1372.82 Q184.098 1372.82 187.153 1377.43 Q190.232 1382.01 190.232 1390.76 Q190.232 1399.49 187.153 1404.09 Q184.098 1408.68 178.288 1408.68 Q172.477 1408.68 169.399 1404.09 Q166.343 1399.49 166.343 1390.76 Q166.343 1382.01 169.399 1377.43 Q172.477 1372.82 178.288 1372.82 Z" fill="#000000" fill-rule="evenodd" fill-opacity="1" /><path clip-path="url(#clip320)" d="M 0 0 M142.316 1136.27 L160.672 1136.27 L160.672 1140.2 L146.598 1140.2 L146.598 1148.67 Q147.616 1148.33 148.635 1148.17 Q149.653 1147.98 150.672 1147.98 Q156.459 1147.98 159.839 1151.15 Q163.218 1154.32 163.218 1159.74 Q163.218 1165.32 159.746 1168.42 Q156.274 1171.5 149.954 1171.5 Q147.778 1171.5 145.51 1171.13 Q143.265 1170.76 140.857 1170.02 L140.857 1165.32 Q142.941 1166.45 145.163 1167.01 Q147.385 1167.56 149.862 1167.56 Q153.866 1167.56 156.204 1165.46 Q158.542 1163.35 158.542 1159.74 Q158.542 1156.13 156.204 1154.02 Q153.866 1151.92 149.862 1151.92 Q147.987 1151.92 146.112 1152.33 Q144.26 1152.75 142.316 1153.63 L142.316 1136.27 Z" fill="#000000" fill-rule="evenodd" fill-opacity="1" /><path clip-path="url(#clip320)" d="M 0 0 M178.288 1139.35 Q174.677 1139.35 172.848 1142.91 Q171.042 1146.45 171.042 1153.58 Q171.042 1160.69 172.848 1164.25 Q174.677 1167.79 178.288 1167.79 Q181.922 1167.79 183.727 1164.25 Q185.556 1160.69 185.556 1153.58 Q185.556 1146.45 183.727 1142.91 Q181.922 1139.35 178.288 1139.35 M178.288 1135.64 Q184.098 1135.64 187.153 1140.25 Q190.232 1144.83 190.232 1153.58 Q190.232 1162.31 187.153 1166.92 Q184.098 1171.5 178.288 1171.5 Q172.477 1171.5 169.399 1166.92 Q166.343 1162.31 166.343 1153.58 Q166.343 1144.83 169.399 1140.25 Q172.477 1135.64 178.288 1135.64 Z" fill="#000000" fill-rule="evenodd" fill-opacity="1" /><path clip-path="url(#clip320)" d="M 0 0 M116.297 929.715 L123.936 929.715 L123.936 903.35 L115.626 905.016 L115.626 900.757 L123.89 899.091 L128.566 899.091 L128.566 929.715 L136.204 929.715 L136.204 933.651 L116.297 933.651 L116.297 929.715 Z" fill="#000000" fill-rule="evenodd" fill-opacity="1" /><path clip-path="url(#clip320)" d="M 0 0 M151.274 902.169 Q147.663 902.169 145.834 905.734 Q144.029 909.276 144.029 916.405 Q144.029 923.512 145.834 927.076 Q147.663 930.618 151.274 930.618 Q154.908 930.618 156.714 927.076 Q158.542 923.512 158.542 916.405 Q158.542 909.276 156.714 905.734 Q154.908 902.169 151.274 902.169 M151.274 898.466 Q157.084 898.466 160.14 903.072 Q163.218 907.655 163.218 916.405 Q163.218 925.132 160.14 929.739 Q157.084 934.322 151.274 934.322 Q145.464 934.322 142.385 929.739 Q139.329 925.132 139.329 916.405 Q139.329 907.655 142.385 903.072 Q145.464 898.466 151.274 898.466 Z" fill="#000000" fill-rule="evenodd" fill-opacity="1" /><path clip-path="url(#clip320)" d="M 0 0 M178.288 902.169 Q174.677 902.169 172.848 905.734 Q171.042 909.276 171.042 916.405 Q171.042 923.512 172.848 927.076 Q174.677 930.618 178.288 930.618 Q181.922 930.618 183.727 927.076 Q185.556 923.512 185.556 916.405 Q185.556 909.276 183.727 905.734 Q181.922 902.169 178.288 902.169 M178.288 898.466 Q184.098 898.466 187.153 903.072 Q190.232 907.655 190.232 916.405 Q190.232 925.132 187.153 929.739 Q184.098 934.322 178.288 934.322 Q172.477 934.322 169.399 929.739 Q166.343 925.132 166.343 916.405 Q166.343 907.655 169.399 903.072 Q172.477 898.466 178.288 898.466 Z" fill="#000000" fill-rule="evenodd" fill-opacity="1" /><path clip-path="url(#clip320)" d="M 0 0 M117.293 692.539 L124.931 692.539 L124.931 666.173 L116.621 667.84 L116.621 663.58 L124.885 661.914 L129.561 661.914 L129.561 692.539 L137.2 692.539 L137.2 696.474 L117.293 696.474 L117.293 692.539 Z" fill="#000000" fill-rule="evenodd" fill-opacity="1" /><path clip-path="url(#clip320)" d="M 0 0 M142.316 661.914 L160.672 661.914 L160.672 665.849 L146.598 665.849 L146.598 674.321 Q147.616 673.974 148.635 673.812 Q149.653 673.627 150.672 673.627 Q156.459 673.627 159.839 676.798 Q163.218 679.969 163.218 685.386 Q163.218 690.965 159.746 694.066 Q156.274 697.145 149.954 697.145 Q147.778 697.145 145.51 696.775 Q143.265 696.404 140.857 695.664 L140.857 690.965 Q142.941 692.099 145.163 692.654 Q147.385 693.21 149.862 693.21 Q153.866 693.21 156.204 691.103 Q158.542 688.997 158.542 685.386 Q158.542 681.775 156.204 679.668 Q153.866 677.562 149.862 677.562 Q147.987 677.562 146.112 677.978 Q144.26 678.395 142.316 679.275 L142.316 661.914 Z" fill="#000000" fill-rule="evenodd" fill-opacity="1" /><path clip-path="url(#clip320)" d="M 0 0 M178.288 664.992 Q174.677 664.992 172.848 668.557 Q171.042 672.099 171.042 679.228 Q171.042 686.335 172.848 689.9 Q174.677 693.441 178.288 693.441 Q181.922 693.441 183.727 689.9 Q185.556 686.335 185.556 679.228 Q185.556 672.099 183.727 668.557 Q181.922 664.992 178.288 664.992 M178.288 661.289 Q184.098 661.289 187.153 665.895 Q190.232 670.479 190.232 679.228 Q190.232 687.955 187.153 692.562 Q184.098 697.145 178.288 697.145 Q172.477 697.145 169.399 692.562 Q166.343 687.955 166.343 679.228 Q166.343 670.479 169.399 665.895 Q172.477 661.289 178.288 661.289 Z" fill="#000000" fill-rule="evenodd" fill-opacity="1" /><path clip-path="url(#clip320)" d="M 0 0 M119.885 455.362 L136.204 455.362 L136.204 459.297 L114.26 459.297 L114.26 455.362 Q116.922 452.607 121.505 447.978 Q126.112 443.325 127.292 441.982 Q129.538 439.459 130.417 437.723 Q131.32 435.964 131.32 434.274 Q131.32 431.519 129.376 429.783 Q127.455 428.047 124.353 428.047 Q122.154 428.047 119.7 428.811 Q117.269 429.575 114.492 431.126 L114.492 426.404 Q117.316 425.269 119.769 424.691 Q122.223 424.112 124.26 424.112 Q129.63 424.112 132.825 426.797 Q136.019 429.482 136.019 433.973 Q136.019 436.103 135.209 438.024 Q134.422 439.922 132.316 442.515 Q131.737 443.186 128.635 446.404 Q125.533 449.598 119.885 455.362 Z" fill="#000000" fill-rule="evenodd" fill-opacity="1" /><path clip-path="url(#clip320)" d="M 0 0 M151.274 427.816 Q147.663 427.816 145.834 431.38 Q144.029 434.922 144.029 442.052 Q144.029 449.158 145.834 452.723 Q147.663 456.265 151.274 456.265 Q154.908 456.265 156.714 452.723 Q158.542 449.158 158.542 442.052 Q158.542 434.922 156.714 431.38 Q154.908 427.816 151.274 427.816 M151.274 424.112 Q157.084 424.112 160.14 428.718 Q163.218 433.302 163.218 442.052 Q163.218 450.778 160.14 455.385 Q157.084 459.968 151.274 459.968 Q145.464 459.968 142.385 455.385 Q139.329 450.778 139.329 442.052 Q139.329 433.302 142.385 428.718 Q145.464 424.112 151.274 424.112 Z" fill="#000000" fill-rule="evenodd" fill-opacity="1" /><path clip-path="url(#clip320)" d="M 0 0 M178.288 427.816 Q174.677 427.816 172.848 431.38 Q171.042 434.922 171.042 442.052 Q171.042 449.158 172.848 452.723 Q174.677 456.265 178.288 456.265 Q181.922 456.265 183.727 452.723 Q185.556 449.158 185.556 442.052 Q185.556 434.922 183.727 431.38 Q181.922 427.816 178.288 427.816 M178.288 424.112 Q184.098 424.112 187.153 428.718 Q190.232 433.302 190.232 442.052 Q190.232 450.778 187.153 455.385 Q184.098 459.968 178.288 459.968 Q172.477 459.968 169.399 455.385 Q166.343 450.778 166.343 442.052 Q166.343 433.302 169.399 428.718 Q172.477 424.112 178.288 424.112 Z" fill="#000000" fill-rule="evenodd" fill-opacity="1" /><path clip-path="url(#clip320)" d="M 0 0 M120.88 218.185 L137.2 218.185 L137.2 222.12 L115.256 222.12 L115.256 218.185 Q117.918 215.43 122.501 210.801 Q127.107 206.148 128.288 204.805 Q130.533 202.282 131.413 200.546 Q132.316 198.787 132.316 197.097 Q132.316 194.343 130.371 192.606 Q128.45 190.87 125.348 190.87 Q123.149 190.87 120.695 191.634 Q118.265 192.398 115.487 193.949 L115.487 189.227 Q118.311 188.093 120.765 187.514 Q123.218 186.935 125.255 186.935 Q130.626 186.935 133.82 189.62 Q137.015 192.306 137.015 196.796 Q137.015 198.926 136.204 200.847 Q135.417 202.745 133.311 205.338 Q132.732 206.009 129.63 209.227 Q126.529 212.421 120.88 218.185 Z" fill="#000000" fill-rule="evenodd" fill-opacity="1" /><path clip-path="url(#clip320)" d="M 0 0 M142.316 187.56 L160.672 187.56 L160.672 191.495 L146.598 191.495 L146.598 199.967 Q147.616 199.62 148.635 199.458 Q149.653 199.273 150.672 199.273 Q156.459 199.273 159.839 202.444 Q163.218 205.616 163.218 211.032 Q163.218 216.611 159.746 219.713 Q156.274 222.791 149.954 222.791 Q147.778 222.791 145.51 222.421 Q143.265 222.051 140.857 221.31 L140.857 216.611 Q142.941 217.745 145.163 218.301 Q147.385 218.856 149.862 218.856 Q153.866 218.856 156.204 216.75 Q158.542 214.643 158.542 211.032 Q158.542 207.421 156.204 205.315 Q153.866 203.208 149.862 203.208 Q147.987 203.208 146.112 203.625 Q144.26 204.042 142.316 204.921 L142.316 187.56 Z" fill="#000000" fill-rule="evenodd" fill-opacity="1" /><path clip-path="url(#clip320)" d="M 0 0 M178.288 190.639 Q174.677 190.639 172.848 194.204 Q171.042 197.745 171.042 204.875 Q171.042 211.981 172.848 215.546 Q174.677 219.088 178.288 219.088 Q181.922 219.088 183.727 215.546 Q185.556 211.981 185.556 204.875 Q185.556 197.745 183.727 194.204 Q181.922 190.639 178.288 190.639 M178.288 186.935 Q184.098 186.935 187.153 191.542 Q190.232 196.125 190.232 204.875 Q190.232 213.602 187.153 218.208 Q184.098 222.791 178.288 222.791 Q172.477 222.791 169.399 218.208 Q166.343 213.602 166.343 204.875 Q166.343 196.125 169.399 191.542 Q172.477 186.935 178.288 186.935 Z" fill="#000000" fill-rule="evenodd" fill-opacity="1" /><path clip-path="url(#clip320)" d="M 0 0 M59.1993 815.533 Q55.2526 813.336 53.3747 810.281 Q51.4968 807.225 51.4968 803.088 Q51.4968 797.518 55.4117 794.494 Q59.2948 791.47 66.4881 791.47 L88.0042 791.47 L88.0042 797.358 L66.679 797.358 Q61.5546 797.358 59.072 799.173 Q56.5894 800.987 56.5894 804.711 Q56.5894 809.262 59.6131 811.904 Q62.6368 814.546 67.8567 814.546 L88.0042 814.546 L88.0042 820.434 L66.679 820.434 Q61.5228 820.434 59.072 822.248 Q56.5894 824.063 56.5894 827.85 Q56.5894 832.338 59.6449 834.98 Q62.6686 837.622 67.8567 837.622 L88.0042 837.622 L88.0042 843.51 L52.3562 843.51 L52.3562 837.622 L57.8944 837.622 Q54.616 835.616 53.0564 832.815 Q51.4968 830.015 51.4968 826.163 Q51.4968 822.28 53.4702 819.575 Q55.4436 816.838 59.1993 815.533 Z" fill="#000000" fill-rule="evenodd" fill-opacity="1" /><path clip-path="url(#clip320)" d="M 0 0 M52.3562 785.327 L52.3562 779.471 L88.0042 779.471 L88.0042 785.327 L52.3562 785.327 M38.479 785.327 L38.479 779.471 L45.895 779.471 L45.895 785.327 L38.479 785.327 Z" fill="#000000" fill-rule="evenodd" fill-opacity="1" /><path clip-path="url(#clip320)" d="M 0 0 M66.4881 743.696 L88.0042 743.696 L88.0042 749.552 L66.679 749.552 Q61.6183 749.552 59.1038 751.525 Q56.5894 753.499 56.5894 757.446 Q56.5894 762.188 59.6131 764.925 Q62.6368 767.662 67.8567 767.662 L88.0042 767.662 L88.0042 773.551 L52.3562 773.551 L52.3562 767.662 L57.8944 767.662 Q54.6797 765.562 53.0883 762.729 Q51.4968 759.864 51.4968 756.141 Q51.4968 749.998 55.3163 746.847 Q59.1038 743.696 66.4881 743.696 Z" fill="#000000" fill-rule="evenodd" fill-opacity="1" /><path clip-path="url(#clip320)" d="M 0 0 M98.8259 710.467 L103.377 710.467 L103.377 744.332 L98.8259 744.332 L98.8259 710.467 Z" fill="#000000" fill-rule="evenodd" fill-opacity="1" /><path clip-path="url(#clip320)" d="M 0 0 M57.7671 680.866 L38.479 680.866 L38.479 675.01 L88.0042 675.01 L88.0042 680.866 L82.657 680.866 Q85.8398 682.712 87.3994 685.545 Q88.9272 688.346 88.9272 692.292 Q88.9272 698.754 83.771 702.828 Q78.6147 706.87 70.212 706.87 Q61.8093 706.87 56.6531 702.828 Q51.4968 698.754 51.4968 692.292 Q51.4968 688.346 53.0564 685.545 Q54.5842 682.712 57.7671 680.866 M70.212 700.823 Q76.6732 700.823 80.3653 698.181 Q84.0256 695.507 84.0256 690.86 Q84.0256 686.213 80.3653 683.54 Q76.6732 680.866 70.212 680.866 Q63.7508 680.866 60.0905 683.54 Q56.3984 686.213 56.3984 690.86 Q56.3984 695.507 60.0905 698.181 Q63.7508 700.823 70.212 700.823 Z" fill="#000000" fill-rule="evenodd" fill-opacity="1" /><path clip-path="url(#clip320)" d="M 0 0 M52.3562 668.867 L52.3562 663.01 L88.0042 663.01 L88.0042 668.867 L52.3562 668.867 M38.479 668.867 L38.479 663.01 L45.895 663.01 L45.895 668.867 L38.479 668.867 Z" fill="#000000" fill-rule="evenodd" fill-opacity="1" /><path clip-path="url(#clip320)" d="M 0 0 M38.479 638.821 L43.3487 638.821 L43.3487 644.422 Q43.3487 647.573 44.6219 648.815 Q45.895 650.024 49.2052 650.024 L52.3562 650.024 L52.3562 640.38 L56.9077 640.38 L56.9077 650.024 L88.0042 650.024 L88.0042 655.912 L56.9077 655.912 L56.9077 661.514 L52.3562 661.514 L52.3562 655.912 L49.8736 655.912 Q43.9216 655.912 41.2162 653.143 Q38.479 650.374 38.479 644.359 L38.479 638.821 Z" fill="#000000" fill-rule="evenodd" fill-opacity="1" /><path clip-path="url(#clip320)" d="M 0 0 M38.479 614.631 L43.3487 614.631 L43.3487 620.233 Q43.3487 623.384 44.6219 624.625 Q45.895 625.835 49.2052 625.835 L52.3562 625.835 L52.3562 616.19 L56.9077 616.19 L56.9077 625.835 L88.0042 625.835 L88.0042 631.723 L56.9077 631.723 L56.9077 637.325 L52.3562 637.325 L52.3562 631.723 L49.8736 631.723 Q43.9216 631.723 41.2162 628.954 Q38.479 626.185 38.479 620.169 L38.479 614.631 Z" fill="#000000" fill-rule="evenodd" fill-opacity="1" /><polyline clip-path="url(#clip322)" style="stroke:#009af9; stroke-width:20; stroke-opacity:1; fill:none" stroke-dasharray="80, 50" points="
  286.417,85.838 1289.49,1171.61 1876.26,1372.3 2292.57,1360.33 
  "/>
<path clip-path="url(#clip320)" d="
M1994.57 213.659 L2281.87 213.659 L2281.87 92.6992 L1994.57 92.6992  Z
  " fill="#ffffff" fill-rule="evenodd" fill-opacity="1"/>
<polyline clip-path="url(#clip320)" style="stroke:#000000; stroke-width:4; stroke-opacity:1; fill:none" points="
  1994.57,213.659 2281.87,213.659 2281.87,92.6992 1994.57,92.6992 1994.57,213.659 
  "/>
<polyline clip-path="url(#clip320)" style="stroke:#009af9; stroke-width:4; stroke-opacity:1; fill:none" stroke-dasharray="16, 10" points="
  2018.2,153.179 2159.97,153.179 
  "/>
<path clip-path="url(#clip320)" d="M 0 0 M2197.44 172.867 Q2195.63 177.496 2193.92 178.908 Q2192.21 180.32 2189.34 180.32 L2185.94 180.32 L2185.94 176.755 L2188.44 176.755 Q2190.19 176.755 2191.17 175.922 Q2192.14 175.089 2193.32 171.987 L2194.08 170.043 L2183.6 144.533 L2188.11 144.533 L2196.21 164.811 L2204.31 144.533 L2208.83 144.533 L2197.44 172.867 Z" fill="#000000" fill-rule="evenodd" fill-opacity="1" /><path clip-path="url(#clip320)" d="M 0 0 M2214.71 166.524 L2222.35 166.524 L2222.35 140.158 L2214.04 141.825 L2214.04 137.566 L2222.3 135.899 L2226.98 135.899 L2226.98 166.524 L2234.62 166.524 L2234.62 170.459 L2214.71 170.459 L2214.71 166.524 Z" fill="#000000" fill-rule="evenodd" fill-opacity="1" /></svg>
