<?xml version="1.0" encoding="utf-8"?>
<svg xmlns="http://www.w3.org/2000/svg" xmlns:xlink="http://www.w3.org/1999/xlink" width="600" height="400" viewBox="0 0 2400 1600">
<defs>
  <clipPath id="clip900">
    <rect x="0" y="0" width="2400" height="1600"/>
  </clipPath>
</defs>
<path clip-path="url(#clip900)" d="
M0 1600 L2400 1600 L2400 0 L0 0  Z
  " fill="#ffffff" fill-rule="evenodd" fill-opacity="1"/>
<defs>
  <clipPath id="clip901">
    <rect x="480" y="0" width="1681" height="1600"/>
  </clipPath>
</defs>
<path clip-path="url(#clip900)" d="
M261.185 1410.9 L2352.76 1410.9 L2352.76 47.2441 L261.185 47.2441  Z
  " fill="#ffffff" fill-rule="evenodd" fill-opacity="1"/>
<defs>
  <clipPath id="clip902">
    <rect x="261" y="47" width="2093" height="1365"/>
  </clipPath>
</defs>
<polyline clip-path="url(#clip902)" style="stroke:#000000; stroke-width:2; stroke-opacity:0.1; fill:none" points="
  320.381,1410.9 320.381,47.2441 
  "/>
<polyline clip-path="url(#clip902)" style="stroke:#000000; stroke-width:2; stroke-opacity:0.1; fill:none" points="
  649.244,1410.9 649.244,47.2441 
  "/>
<polyline clip-path="url(#clip902)" style="stroke:#000000; stroke-width:2; stroke-opacity:0.1; fill:none" points="
  978.107,1410.9 978.107,47.2441 
  "/>
<polyline clip-path="url(#clip902)" style="stroke:#000000; stroke-width:2; stroke-opacity:0.1; fill:none" points="
  1306.97,1410.9 1306.97,47.2441 
  "/>
<polyline clip-path="url(#clip902)" style="stroke:#000000; stroke-width:2; stroke-opacity:0.1; fill:none" points="
  1635.83,1410.9 1635.83,47.2441 
  "/>
<polyline clip-path="url(#clip902)" style="stroke:#000000; stroke-width:2; stroke-opacity:0.1; fill:none" points="
  1964.7,1410.9 1964.7,47.2441 
  "/>
<polyline clip-path="url(#clip902)" style="stroke:#000000; stroke-width:2; stroke-opacity:0.1; fill:none" points="
  2293.56,1410.9 2293.56,47.2441 
  "/>
<polyline clip-path="url(#clip900)" style="stroke:#000000; stroke-width:4; stroke-opacity:1; fill:none" points="
  261.185,1410.9 2352.76,1410.9 
  "/>
<polyline clip-path="url(#clip900)" style="stroke:#000000; stroke-width:4; stroke-opacity:1; fill:none" points="
  320.381,1410.9 320.381,1394.53 
  "/>
<polyline clip-path="url(#clip900)" style="stroke:#000000; stroke-width:4; stroke-opacity:1; fill:none" points="
  649.244,1410.9 649.244,1394.53 
  "/>
<polyline clip-path="url(#clip900)" style="stroke:#000000; stroke-width:4; stroke-opacity:1; fill:none" points="
  978.107,1410.9 978.107,1394.53 
  "/>
<polyline clip-path="url(#clip900)" style="stroke:#000000; stroke-width:4; stroke-opacity:1; fill:none" points="
  1306.97,1410.9 1306.97,1394.53 
  "/>
<polyline clip-path="url(#clip900)" style="stroke:#000000; stroke-width:4; stroke-opacity:1; fill:none" points="
  1635.83,1410.9 1635.83,1394.53 
  "/>
<polyline clip-path="url(#clip900)" style="stroke:#000000; stroke-width:4; stroke-opacity:1; fill:none" points="
  1964.7,1410.9 1964.7,1394.53 
  "/>
<polyline clip-path="url(#clip900)" style="stroke:#000000; stroke-width:4; stroke-opacity:1; fill:none" points="
  2293.56,1410.9 2293.56,1394.53 
  "/>
<path clip-path="url(#clip900)" d="M 0 0 M274.16 1489.17 L281.799 1489.17 L281.799 1462.8 L273.489 1464.47 L273.489 1460.21 L281.753 1458.54 L286.429 1458.54 L286.429 1489.17 L294.067 1489.17 L294.067 1493.1 L274.16 1493.1 L274.16 1489.17 Z" fill="#000000" fill-rule="evenodd" fill-opacity="1" /><path clip-path="url(#clip900)" d="M 0 0 M309.137 1461.62 Q305.526 1461.62 303.697 1465.19 Q301.891 1468.73 301.891 1475.86 Q301.891 1482.97 303.697 1486.53 Q305.526 1490.07 309.137 1490.07 Q312.771 1490.07 314.577 1486.53 Q316.405 1482.97 316.405 1475.86 Q316.405 1468.73 314.577 1465.19 Q312.771 1461.62 309.137 1461.62 M309.137 1457.92 Q314.947 1457.92 318.002 1462.53 Q321.081 1467.11 321.081 1475.86 Q321.081 1484.59 318.002 1489.19 Q314.947 1493.78 309.137 1493.78 Q303.327 1493.78 300.248 1489.19 Q297.192 1484.59 297.192 1475.86 Q297.192 1467.11 300.248 1462.53 Q303.327 1457.92 309.137 1457.92 Z" fill="#000000" fill-rule="evenodd" fill-opacity="1" /><path clip-path="url(#clip900)" d="M 0 0 M321.081 1452.02 L345.193 1452.02 L345.193 1455.22 L321.081 1455.22 L321.081 1452.02 Z" fill="#000000" fill-rule="evenodd" fill-opacity="1" /><path clip-path="url(#clip900)" d="M 0 0 M357.907 1450.14 Q355.349 1450.14 353.844 1451.89 Q352.358 1453.64 352.358 1456.68 Q352.358 1459.71 353.844 1461.48 Q355.349 1463.23 357.907 1463.23 Q360.465 1463.23 361.95 1461.48 Q363.455 1459.71 363.455 1456.68 Q363.455 1453.64 361.95 1451.89 Q360.465 1450.14 357.907 1450.14 M365.449 1438.23 L365.449 1441.69 Q364.019 1441.02 362.552 1440.66 Q361.104 1440.3 359.675 1440.3 Q355.913 1440.3 353.919 1442.84 Q351.945 1445.38 351.663 1450.52 Q352.772 1448.88 354.446 1448.01 Q356.12 1447.13 358.132 1447.13 Q362.364 1447.13 364.809 1449.71 Q367.273 1452.26 367.273 1456.68 Q367.273 1461.01 364.715 1463.62 Q362.157 1466.24 357.907 1466.24 Q353.036 1466.24 350.459 1462.51 Q347.882 1458.77 347.882 1451.68 Q347.882 1445.02 351.042 1441.07 Q354.202 1437.11 359.524 1437.11 Q360.954 1437.11 362.402 1437.39 Q363.869 1437.67 365.449 1438.23 Z" fill="#000000" fill-rule="evenodd" fill-opacity="1" /><path clip-path="url(#clip900)" d="M 0 0 M603.494 1489.17 L611.132 1489.17 L611.132 1462.8 L602.822 1464.47 L602.822 1460.21 L611.086 1458.54 L615.762 1458.54 L615.762 1489.17 L623.401 1489.17 L623.401 1493.1 L603.494 1493.1 L603.494 1489.17 Z" fill="#000000" fill-rule="evenodd" fill-opacity="1" /><path clip-path="url(#clip900)" d="M 0 0 M638.47 1461.62 Q634.859 1461.62 633.03 1465.19 Q631.225 1468.73 631.225 1475.86 Q631.225 1482.97 633.03 1486.53 Q634.859 1490.07 638.47 1490.07 Q642.104 1490.07 643.91 1486.53 Q645.739 1482.97 645.739 1475.86 Q645.739 1468.73 643.91 1465.19 Q642.104 1461.62 638.47 1461.62 M638.47 1457.92 Q644.28 1457.92 647.336 1462.53 Q650.415 1467.11 650.415 1475.86 Q650.415 1484.59 647.336 1489.19 Q644.28 1493.78 638.47 1493.78 Q632.66 1493.78 629.581 1489.19 Q626.526 1484.59 626.526 1475.86 Q626.526 1467.11 629.581 1462.53 Q632.66 1457.92 638.47 1457.92 Z" fill="#000000" fill-rule="evenodd" fill-opacity="1" /><path clip-path="url(#clip900)" d="M 0 0 M650.415 1452.02 L674.526 1452.02 L674.526 1455.22 L650.415 1455.22 L650.415 1452.02 Z" fill="#000000" fill-rule="evenodd" fill-opacity="1" /><path clip-path="url(#clip900)" d="M 0 0 M678.683 1437.61 L693.597 1437.61 L693.597 1440.81 L682.162 1440.81 L682.162 1447.69 Q682.99 1447.41 683.817 1447.28 Q684.645 1447.13 685.472 1447.13 Q690.174 1447.13 692.92 1449.71 Q695.666 1452.28 695.666 1456.68 Q695.666 1461.22 692.845 1463.74 Q690.024 1466.24 684.889 1466.24 Q683.121 1466.24 681.278 1465.94 Q679.454 1465.64 677.498 1465.04 L677.498 1461.22 Q679.19 1462.14 680.996 1462.59 Q682.802 1463.04 684.814 1463.04 Q688.068 1463.04 689.967 1461.33 Q691.867 1459.62 691.867 1456.68 Q691.867 1453.75 689.967 1452.04 Q688.068 1450.33 684.814 1450.33 Q683.291 1450.33 681.767 1450.67 Q680.262 1451 678.683 1451.72 L678.683 1437.61 Z" fill="#000000" fill-rule="evenodd" fill-opacity="1" /><path clip-path="url(#clip900)" d="M 0 0 M931.755 1489.17 L939.394 1489.17 L939.394 1462.8 L931.084 1464.47 L931.084 1460.21 L939.347 1458.54 L944.023 1458.54 L944.023 1489.17 L951.662 1489.17 L951.662 1493.1 L931.755 1493.1 L931.755 1489.17 Z" fill="#000000" fill-rule="evenodd" fill-opacity="1" /><path clip-path="url(#clip900)" d="M 0 0 M966.732 1461.62 Q963.12 1461.62 961.292 1465.19 Q959.486 1468.73 959.486 1475.86 Q959.486 1482.97 961.292 1486.53 Q963.12 1490.07 966.732 1490.07 Q970.366 1490.07 972.171 1486.53 Q974 1482.97 974 1475.86 Q974 1468.73 972.171 1465.19 Q970.366 1461.62 966.732 1461.62 M966.732 1457.92 Q972.542 1457.92 975.597 1462.53 Q978.676 1467.11 978.676 1475.86 Q978.676 1484.59 975.597 1489.19 Q972.542 1493.78 966.732 1493.78 Q960.921 1493.78 957.843 1489.19 Q954.787 1484.59 954.787 1475.86 Q954.787 1467.11 957.843 1462.53 Q960.921 1457.92 966.732 1457.92 Z" fill="#000000" fill-rule="evenodd" fill-opacity="1" /><path clip-path="url(#clip900)" d="M 0 0 M978.676 1452.02 L1002.79 1452.02 L1002.79 1455.22 L978.676 1455.22 L978.676 1452.02 Z" fill="#000000" fill-rule="evenodd" fill-opacity="1" /><path clip-path="url(#clip900)" d="M 0 0 M1017.34 1440.92 L1007.75 1455.91 L1017.34 1455.91 L1017.34 1440.92 M1016.35 1437.61 L1021.13 1437.61 L1021.13 1455.91 L1025.13 1455.91 L1025.13 1459.07 L1021.13 1459.07 L1021.13 1465.69 L1017.34 1465.69 L1017.34 1459.07 L1004.67 1459.07 L1004.67 1455.41 L1016.35 1437.61 Z" fill="#000000" fill-rule="evenodd" fill-opacity="1" /><path clip-path="url(#clip900)" d="M 0 0 M1261.08 1489.17 L1268.72 1489.17 L1268.72 1462.8 L1260.41 1464.47 L1260.41 1460.21 L1268.67 1458.54 L1273.35 1458.54 L1273.35 1489.17 L1280.99 1489.17 L1280.99 1493.1 L1261.08 1493.1 L1261.08 1489.17 Z" fill="#000000" fill-rule="evenodd" fill-opacity="1" /><path clip-path="url(#clip900)" d="M 0 0 M1296.06 1461.62 Q1292.44 1461.62 1290.62 1465.19 Q1288.81 1468.73 1288.81 1475.86 Q1288.81 1482.97 1290.62 1486.53 Q1292.44 1490.07 1296.06 1490.07 Q1299.69 1490.07 1301.5 1486.53 Q1303.32 1482.97 1303.32 1475.86 Q1303.32 1468.73 1301.5 1465.19 Q1299.69 1461.62 1296.06 1461.62 M1296.06 1457.92 Q1301.87 1457.92 1304.92 1462.53 Q1308 1467.11 1308 1475.86 Q1308 1484.59 1304.92 1489.19 Q1301.87 1493.78 1296.06 1493.78 Q1290.25 1493.78 1287.17 1489.19 Q1284.11 1484.59 1284.11 1475.86 Q1284.11 1467.11 1287.17 1462.53 Q1290.25 1457.92 1296.06 1457.92 Z" fill="#000000" fill-rule="evenodd" fill-opacity="1" /><path clip-path="url(#clip900)" d="M 0 0 M1308 1452.02 L1332.11 1452.02 L1332.11 1455.22 L1308 1455.22 L1308 1452.02 Z" fill="#000000" fill-rule="evenodd" fill-opacity="1" /><path clip-path="url(#clip900)" d="M 0 0 M1347.74 1450.55 Q1350.47 1451.14 1351.99 1452.98 Q1353.53 1454.82 1353.53 1457.53 Q1353.53 1461.69 1350.67 1463.96 Q1347.82 1466.24 1342.55 1466.24 Q1340.78 1466.24 1338.9 1465.88 Q1337.04 1465.54 1335.05 1464.85 L1335.05 1461.18 Q1336.63 1462.1 1338.51 1462.57 Q1340.39 1463.04 1342.44 1463.04 Q1346.01 1463.04 1347.87 1461.63 Q1349.75 1460.22 1349.75 1457.53 Q1349.75 1455.05 1348 1453.66 Q1346.27 1452.25 1343.17 1452.25 L1339.9 1452.25 L1339.9 1449.12 L1343.32 1449.12 Q1346.12 1449.12 1347.61 1448.01 Q1349.09 1446.89 1349.09 1444.78 Q1349.09 1442.62 1347.55 1441.47 Q1346.03 1440.3 1343.17 1440.3 Q1341.61 1440.3 1339.82 1440.64 Q1338.04 1440.98 1335.89 1441.69 L1335.89 1438.31 Q1338.05 1437.71 1339.94 1437.41 Q1341.84 1437.11 1343.51 1437.11 Q1347.83 1437.11 1350.36 1439.08 Q1352.88 1441.04 1352.88 1444.38 Q1352.88 1446.72 1351.54 1448.33 Q1350.2 1449.93 1347.74 1450.55 Z" fill="#000000" fill-rule="evenodd" fill-opacity="1" /><path clip-path="url(#clip900)" d="M 0 0 M1590.33 1489.17 L1597.97 1489.17 L1597.97 1462.8 L1589.66 1464.47 L1589.66 1460.21 L1597.92 1458.54 L1602.6 1458.54 L1602.6 1489.17 L1610.24 1489.17 L1610.24 1493.1 L1590.33 1493.1 L1590.33 1489.17 Z" fill="#000000" fill-rule="evenodd" fill-opacity="1" /><path clip-path="url(#clip900)" d="M 0 0 M1625.3 1461.62 Q1621.69 1461.62 1619.86 1465.19 Q1618.06 1468.73 1618.06 1475.86 Q1618.06 1482.97 1619.86 1486.53 Q1621.69 1490.07 1625.3 1490.07 Q1628.94 1490.07 1630.74 1486.53 Q1632.57 1482.97 1632.57 1475.86 Q1632.57 1468.73 1630.74 1465.19 Q1628.94 1461.62 1625.3 1461.62 M1625.3 1457.92 Q1631.11 1457.92 1634.17 1462.53 Q1637.25 1467.11 1637.25 1475.86 Q1637.25 1484.59 1634.17 1489.19 Q1631.11 1493.78 1625.3 1493.78 Q1619.49 1493.78 1616.42 1489.19 Q1613.36 1484.59 1613.36 1475.86 Q1613.36 1467.11 1616.42 1462.53 Q1619.49 1457.92 1625.3 1457.92 Z" fill="#000000" fill-rule="evenodd" fill-opacity="1" /><path clip-path="url(#clip900)" d="M 0 0 M1637.25 1452.02 L1661.36 1452.02 L1661.36 1455.22 L1637.25 1455.22 L1637.25 1452.02 Z" fill="#000000" fill-rule="evenodd" fill-opacity="1" /><path clip-path="url(#clip900)" d="M 0 0 M1668.75 1462.5 L1682.01 1462.5 L1682.01 1465.69 L1664.18 1465.69 L1664.18 1462.5 Q1666.34 1460.26 1670.07 1456.5 Q1673.81 1452.72 1674.77 1451.63 Q1676.59 1449.58 1677.31 1448.16 Q1678.04 1446.74 1678.04 1445.36 Q1678.04 1443.12 1676.46 1441.71 Q1674.9 1440.3 1672.38 1440.3 Q1670.59 1440.3 1668.6 1440.92 Q1666.63 1441.54 1664.37 1442.8 L1664.37 1438.97 Q1666.66 1438.05 1668.66 1437.58 Q1670.65 1437.11 1672.31 1437.11 Q1676.67 1437.11 1679.27 1439.29 Q1681.86 1441.47 1681.86 1445.12 Q1681.86 1446.85 1681.2 1448.41 Q1680.56 1449.95 1678.85 1452.06 Q1678.38 1452.6 1675.86 1455.22 Q1673.34 1457.81 1668.75 1462.5 Z" fill="#000000" fill-rule="evenodd" fill-opacity="1" /><path clip-path="url(#clip900)" d="M 0 0 M1919.04 1489.17 L1926.68 1489.17 L1926.68 1462.8 L1918.37 1464.47 L1918.37 1460.21 L1926.63 1458.54 L1931.31 1458.54 L1931.31 1489.17 L1938.95 1489.17 L1938.95 1493.1 L1919.04 1493.1 L1919.04 1489.17 Z" fill="#000000" fill-rule="evenodd" fill-opacity="1" /><path clip-path="url(#clip900)" d="M 0 0 M1954.02 1461.62 Q1950.41 1461.62 1948.58 1465.19 Q1946.77 1468.73 1946.77 1475.86 Q1946.77 1482.97 1948.58 1486.53 Q1950.41 1490.07 1954.02 1490.07 Q1957.65 1490.07 1959.46 1486.53 Q1961.29 1482.97 1961.29 1475.86 Q1961.29 1468.73 1959.46 1465.19 Q1957.65 1461.62 1954.02 1461.62 M1954.02 1457.92 Q1959.83 1457.92 1962.88 1462.53 Q1965.96 1467.11 1965.96 1475.86 Q1965.96 1484.59 1962.88 1489.19 Q1959.83 1493.78 1954.02 1493.78 Q1948.21 1493.78 1945.13 1489.19 Q1942.07 1484.59 1942.07 1475.86 Q1942.07 1467.11 1945.13 1462.53 Q1948.21 1457.92 1954.02 1457.92 Z" fill="#000000" fill-rule="evenodd" fill-opacity="1" /><path clip-path="url(#clip900)" d="M 0 0 M1965.96 1452.02 L1990.07 1452.02 L1990.07 1455.22 L1965.96 1455.22 L1965.96 1452.02 Z" fill="#000000" fill-rule="evenodd" fill-opacity="1" /><path clip-path="url(#clip900)" d="M 0 0 M1994.85 1462.5 L2001.06 1462.5 L2001.06 1441.07 L1994.3 1442.43 L1994.3 1438.97 L2001.02 1437.61 L2004.82 1437.61 L2004.82 1462.5 L2011.03 1462.5 L2011.03 1465.69 L1994.85 1465.69 L1994.85 1462.5 Z" fill="#000000" fill-rule="evenodd" fill-opacity="1" /><path clip-path="url(#clip900)" d="M 0 0 M2260.73 1489.17 L2268.37 1489.17 L2268.37 1462.8 L2260.06 1464.47 L2260.06 1460.21 L2268.32 1458.54 L2273 1458.54 L2273 1489.17 L2280.64 1489.17 L2280.64 1493.1 L2260.73 1493.1 L2260.73 1489.17 Z" fill="#000000" fill-rule="evenodd" fill-opacity="1" /><path clip-path="url(#clip900)" d="M 0 0 M2295.71 1461.62 Q2292.1 1461.62 2290.27 1465.19 Q2288.46 1468.73 2288.46 1475.86 Q2288.46 1482.97 2290.27 1486.53 Q2292.1 1490.07 2295.71 1490.07 Q2299.34 1490.07 2301.15 1486.53 Q2302.98 1482.97 2302.98 1475.86 Q2302.98 1468.73 2301.15 1465.19 Q2299.34 1461.62 2295.71 1461.62 M2295.71 1457.92 Q2301.52 1457.92 2304.57 1462.53 Q2307.65 1467.11 2307.65 1475.86 Q2307.65 1484.59 2304.57 1489.19 Q2301.52 1493.78 2295.71 1493.78 Q2289.9 1493.78 2286.82 1489.19 Q2283.76 1484.59 2283.76 1475.86 Q2283.76 1467.11 2286.82 1462.53 Q2289.9 1457.92 2295.71 1457.92 Z" fill="#000000" fill-rule="evenodd" fill-opacity="1" /><path clip-path="url(#clip900)" d="M 0 0 M2317.36 1440.11 Q2314.42 1440.11 2312.94 1443.01 Q2311.47 1445.89 2311.47 1451.68 Q2311.47 1457.46 2312.94 1460.35 Q2314.42 1463.23 2317.36 1463.23 Q2320.31 1463.23 2321.78 1460.35 Q2323.26 1457.46 2323.26 1451.68 Q2323.26 1445.89 2321.78 1443.01 Q2320.31 1440.11 2317.36 1440.11 M2317.36 1437.11 Q2322.08 1437.11 2324.56 1440.85 Q2327.06 1444.57 2327.06 1451.68 Q2327.06 1458.77 2324.56 1462.51 Q2322.08 1466.24 2317.36 1466.24 Q2312.64 1466.24 2310.13 1462.51 Q2307.65 1458.77 2307.65 1451.68 Q2307.65 1444.57 2310.13 1440.85 Q2312.64 1437.11 2317.36 1437.11 Z" fill="#000000" fill-rule="evenodd" fill-opacity="1" /><path clip-path="url(#clip900)" d="M 0 0 M1232.19 1512.66 L1238.08 1512.66 L1238.08 1541.91 L1255.55 1526.54 L1263.03 1526.54 L1244.13 1543.22 L1263.83 1562.19 L1256.19 1562.19 L1238.08 1544.78 L1238.08 1562.19 L1232.19 1562.19 L1232.19 1512.66 Z" fill="#000000" fill-rule="evenodd" fill-opacity="1" /><path clip-path="url(#clip900)" d="M 0 0 M1297.06 1573.01 L1297.06 1577.56 L1263.19 1577.56 L1263.19 1573.01 L1297.06 1573.01 Z" fill="#000000" fill-rule="evenodd" fill-opacity="1" /><path clip-path="url(#clip900)" d="M 0 0 M1317.01 1530.64 Q1312.3 1530.64 1309.56 1534.34 Q1306.83 1538 1306.83 1544.39 Q1306.83 1550.79 1309.53 1554.48 Q1312.27 1558.14 1317.01 1558.14 Q1321.69 1558.14 1324.43 1554.45 Q1327.17 1550.76 1327.17 1544.39 Q1327.17 1538.06 1324.43 1534.37 Q1321.69 1530.64 1317.01 1530.64 M1317.01 1525.68 Q1324.65 1525.68 1329.01 1530.64 Q1333.37 1535.61 1333.37 1544.39 Q1333.37 1553.15 1329.01 1558.14 Q1324.65 1563.11 1317.01 1563.11 Q1309.34 1563.11 1304.98 1558.14 Q1300.65 1553.15 1300.65 1544.39 Q1300.65 1535.61 1304.98 1530.64 Q1309.34 1525.68 1317.01 1525.68 Z" fill="#000000" fill-rule="evenodd" fill-opacity="1" /><path clip-path="url(#clip900)" d="M 0 0 M1357.56 1512.66 L1357.56 1517.53 L1351.96 1517.53 Q1348.81 1517.53 1347.57 1518.8 Q1346.36 1520.08 1346.36 1523.39 L1346.36 1526.54 L1356 1526.54 L1356 1531.09 L1346.36 1531.09 L1346.36 1562.19 L1340.47 1562.19 L1340.47 1531.09 L1334.87 1531.09 L1334.87 1526.54 L1340.47 1526.54 L1340.47 1524.05 Q1340.47 1518.1 1343.24 1515.4 Q1346.01 1512.66 1352.02 1512.66 L1357.56 1512.66 Z" fill="#000000" fill-rule="evenodd" fill-opacity="1" /><path clip-path="url(#clip900)" d="M 0 0 M1381.75 1512.66 L1381.75 1517.53 L1376.15 1517.53 Q1373 1517.53 1371.76 1518.8 Q1370.55 1520.08 1370.55 1523.39 L1370.55 1526.54 L1380.19 1526.54 L1380.19 1531.09 L1370.55 1531.09 L1370.55 1562.19 L1364.66 1562.19 L1364.66 1531.09 L1359.06 1531.09 L1359.06 1526.54 L1364.66 1526.54 L1364.66 1524.05 Q1364.66 1518.1 1367.43 1515.4 Q1370.2 1512.66 1376.21 1512.66 L1381.75 1512.66 Z" fill="#000000" fill-rule="evenodd" fill-opacity="1" /><polyline clip-path="url(#clip902)" style="stroke:#000000; stroke-width:2; stroke-opacity:0.1; fill:none" points="
  261.185,1371.43 2352.76,1371.43 
  "/>
<polyline clip-path="url(#clip902)" style="stroke:#000000; stroke-width:2; stroke-opacity:0.1; fill:none" points="
  261.185,1049.82 2352.76,1049.82 
  "/>
<polyline clip-path="url(#clip902)" style="stroke:#000000; stroke-width:2; stroke-opacity:0.1; fill:none" points="
  261.185,728.202 2352.76,728.202 
  "/>
<polyline clip-path="url(#clip902)" style="stroke:#000000; stroke-width:2; stroke-opacity:0.1; fill:none" points="
  261.185,406.586 2352.76,406.586 
  "/>
<polyline clip-path="url(#clip902)" style="stroke:#000000; stroke-width:2; stroke-opacity:0.1; fill:none" points="
  261.185,84.9694 2352.76,84.9694 
  "/>
<polyline clip-path="url(#clip900)" style="stroke:#000000; stroke-width:4; stroke-opacity:1; fill:none" points="
  261.185,1410.9 261.185,47.2441 
  "/>
<polyline clip-path="url(#clip900)" style="stroke:#000000; stroke-width:4; stroke-opacity:1; fill:none" points="
  261.185,1371.43 286.284,1371.43 
  "/>
<polyline clip-path="url(#clip900)" style="stroke:#000000; stroke-width:4; stroke-opacity:1; fill:none" points="
  261.185,1049.82 286.284,1049.82 
  "/>
<polyline clip-path="url(#clip900)" style="stroke:#000000; stroke-width:4; stroke-opacity:1; fill:none" points="
  261.185,728.202 286.284,728.202 
  "/>
<polyline clip-path="url(#clip900)" style="stroke:#000000; stroke-width:4; stroke-opacity:1; fill:none" points="
  261.185,406.586 286.284,406.586 
  "/>
<polyline clip-path="url(#clip900)" style="stroke:#000000; stroke-width:4; stroke-opacity:1; fill:none" points="
  261.185,84.9694 286.284,84.9694 
  "/>
<path clip-path="url(#clip900)" d="M 0 0 M115.881 1384.78 L123.519 1384.78 L123.519 1358.41 L115.209 1360.08 L115.209 1355.82 L123.473 1354.15 L128.149 1354.15 L128.149 1384.78 L135.788 1384.78 L135.788 1388.71 L115.881 1388.71 L115.881 1384.78 Z" fill="#000000" fill-rule="evenodd" fill-opacity="1" /><path clip-path="url(#clip900)" d="M 0 0 M144.885 1384.78 L161.204 1384.78 L161.204 1388.71 L139.26 1388.71 L139.26 1384.78 Q141.922 1382.02 146.505 1377.39 Q151.112 1372.74 152.292 1371.4 Q154.538 1368.88 155.417 1367.14 Q156.32 1365.38 156.32 1363.69 Q156.32 1360.94 154.376 1359.2 Q152.454 1357.46 149.353 1357.46 Q147.153 1357.46 144.7 1358.23 Q142.269 1358.99 139.492 1360.54 L139.492 1355.82 Q142.316 1354.69 144.769 1354.11 Q147.223 1353.53 149.26 1353.53 Q154.63 1353.53 157.825 1356.21 Q161.019 1358.9 161.019 1363.39 Q161.019 1365.52 160.209 1367.44 Q159.422 1369.34 157.315 1371.93 Q156.737 1372.6 153.635 1375.82 Q150.533 1379.02 144.885 1384.78 Z" fill="#000000" fill-rule="evenodd" fill-opacity="1" /><path clip-path="url(#clip900)" d="M 0 0 M166.274 1382.83 L171.158 1382.83 L171.158 1388.71 L166.274 1388.71 L166.274 1382.83 Z" fill="#000000" fill-rule="evenodd" fill-opacity="1" /><path clip-path="url(#clip900)" d="M 0 0 M186.227 1357.23 Q182.616 1357.23 180.788 1360.8 Q178.982 1364.34 178.982 1371.47 Q178.982 1378.58 180.788 1382.14 Q182.616 1385.68 186.227 1385.68 Q189.862 1385.68 191.667 1382.14 Q193.496 1378.58 193.496 1371.47 Q193.496 1364.34 191.667 1360.8 Q189.862 1357.23 186.227 1357.23 M186.227 1353.53 Q192.038 1353.53 195.093 1358.14 Q198.172 1362.72 198.172 1371.47 Q198.172 1380.2 195.093 1384.8 Q192.038 1389.39 186.227 1389.39 Q180.417 1389.39 177.339 1384.8 Q174.283 1380.2 174.283 1371.47 Q174.283 1362.72 177.339 1358.14 Q180.417 1353.53 186.227 1353.53 Z" fill="#000000" fill-rule="evenodd" fill-opacity="1" /><path clip-path="url(#clip900)" d="M 0 0 M213.241 1357.23 Q209.63 1357.23 207.801 1360.8 Q205.996 1364.34 205.996 1371.47 Q205.996 1378.58 207.801 1382.14 Q209.63 1385.68 213.241 1385.68 Q216.875 1385.68 218.681 1382.14 Q220.51 1378.58 220.51 1371.47 Q220.51 1364.34 218.681 1360.8 Q216.875 1357.23 213.241 1357.23 M213.241 1353.53 Q219.051 1353.53 222.107 1358.14 Q225.185 1362.72 225.185 1371.47 Q225.185 1380.2 222.107 1384.8 Q219.051 1389.39 213.241 1389.39 Q207.431 1389.39 204.352 1384.8 Q201.297 1380.2 201.297 1371.47 Q201.297 1362.72 204.352 1358.14 Q207.431 1353.53 213.241 1353.53 Z" fill="#000000" fill-rule="evenodd" fill-opacity="1" /><path clip-path="url(#clip900)" d="M 0 0 M118.473 1063.16 L126.112 1063.16 L126.112 1036.8 L117.802 1038.46 L117.802 1034.2 L126.066 1032.54 L130.742 1032.54 L130.742 1063.16 L138.38 1063.16 L138.38 1067.1 L118.473 1067.1 L118.473 1063.16 Z" fill="#000000" fill-rule="evenodd" fill-opacity="1" /><path clip-path="url(#clip900)" d="M 0 0 M147.478 1063.16 L163.797 1063.16 L163.797 1067.1 L141.853 1067.1 L141.853 1063.16 Q144.515 1060.41 149.098 1055.78 Q153.704 1051.13 154.885 1049.78 Q157.13 1047.26 158.01 1045.52 Q158.913 1043.76 158.913 1042.07 Q158.913 1039.32 156.968 1037.58 Q155.047 1035.85 151.945 1035.85 Q149.746 1035.85 147.292 1036.61 Q144.862 1037.38 142.084 1038.93 L142.084 1034.2 Q144.908 1033.07 147.362 1032.49 Q149.816 1031.91 151.853 1031.91 Q157.223 1031.91 160.417 1034.6 Q163.612 1037.28 163.612 1041.77 Q163.612 1043.9 162.802 1045.82 Q162.015 1047.72 159.908 1050.32 Q159.329 1050.99 156.228 1054.2 Q153.126 1057.4 147.478 1063.16 Z" fill="#000000" fill-rule="evenodd" fill-opacity="1" /><path clip-path="url(#clip900)" d="M 0 0 M168.866 1061.22 L173.751 1061.22 L173.751 1067.1 L168.866 1067.1 L168.866 1061.22 Z" fill="#000000" fill-rule="evenodd" fill-opacity="1" /><path clip-path="url(#clip900)" d="M 0 0 M182.848 1063.16 L199.167 1063.16 L199.167 1067.1 L177.223 1067.1 L177.223 1063.16 Q179.885 1060.41 184.468 1055.78 Q189.075 1051.13 190.255 1049.78 Q192.5 1047.26 193.38 1045.52 Q194.283 1043.76 194.283 1042.07 Q194.283 1039.32 192.338 1037.58 Q190.417 1035.85 187.315 1035.85 Q185.116 1035.85 182.663 1036.61 Q180.232 1037.38 177.454 1038.93 L177.454 1034.2 Q180.278 1033.07 182.732 1032.49 Q185.186 1031.91 187.223 1031.91 Q192.593 1031.91 195.787 1034.6 Q198.982 1037.28 198.982 1041.77 Q198.982 1043.9 198.172 1045.82 Q197.385 1047.72 195.278 1050.32 Q194.7 1050.99 191.598 1054.2 Q188.496 1057.4 182.848 1063.16 Z" fill="#000000" fill-rule="evenodd" fill-opacity="1" /><path clip-path="url(#clip900)" d="M 0 0 M204.283 1032.54 L222.639 1032.54 L222.639 1036.47 L208.565 1036.47 L208.565 1044.95 Q209.584 1044.6 210.602 1044.44 Q211.621 1044.25 212.639 1044.25 Q218.426 1044.25 221.806 1047.42 Q225.185 1050.59 225.185 1056.01 Q225.185 1061.59 221.713 1064.69 Q218.241 1067.77 211.922 1067.77 Q209.746 1067.77 207.477 1067.4 Q205.232 1067.03 202.824 1066.29 L202.824 1061.59 Q204.908 1062.72 207.13 1063.28 Q209.352 1063.83 211.829 1063.83 Q215.834 1063.83 218.172 1061.73 Q220.51 1059.62 220.51 1056.01 Q220.51 1052.4 218.172 1050.29 Q215.834 1048.19 211.829 1048.19 Q209.954 1048.19 208.079 1048.6 Q206.227 1049.02 204.283 1049.9 L204.283 1032.54 Z" fill="#000000" fill-rule="evenodd" fill-opacity="1" /><path clip-path="url(#clip900)" d="M 0 0 M116.876 741.547 L124.515 741.547 L124.515 715.181 L116.205 716.848 L116.205 712.588 L124.468 710.922 L129.144 710.922 L129.144 741.547 L136.783 741.547 L136.783 745.482 L116.876 745.482 L116.876 741.547 Z" fill="#000000" fill-rule="evenodd" fill-opacity="1" /><path clip-path="url(#clip900)" d="M 0 0 M145.88 741.547 L162.2 741.547 L162.2 745.482 L140.255 745.482 L140.255 741.547 Q142.917 738.792 147.501 734.162 Q152.107 729.51 153.288 728.167 Q155.533 725.644 156.413 723.908 Q157.315 722.149 157.315 720.459 Q157.315 717.704 155.371 715.968 Q153.45 714.232 150.348 714.232 Q148.149 714.232 145.695 714.996 Q143.265 715.76 140.487 717.311 L140.487 712.588 Q143.311 711.454 145.765 710.875 Q148.218 710.297 150.255 710.297 Q155.626 710.297 158.82 712.982 Q162.015 715.667 162.015 720.158 Q162.015 722.287 161.204 724.209 Q160.417 726.107 158.311 728.699 Q157.732 729.371 154.63 732.588 Q151.528 735.783 145.88 741.547 Z" fill="#000000" fill-rule="evenodd" fill-opacity="1" /><path clip-path="url(#clip900)" d="M 0 0 M167.269 739.602 L172.153 739.602 L172.153 745.482 L167.269 745.482 L167.269 739.602 Z" fill="#000000" fill-rule="evenodd" fill-opacity="1" /><path clip-path="url(#clip900)" d="M 0 0 M177.269 710.922 L195.625 710.922 L195.625 714.857 L181.551 714.857 L181.551 723.329 Q182.57 722.982 183.588 722.82 Q184.607 722.635 185.626 722.635 Q191.413 722.635 194.792 725.806 Q198.172 728.977 198.172 734.394 Q198.172 739.973 194.7 743.074 Q191.227 746.153 184.908 746.153 Q182.732 746.153 180.464 745.783 Q178.218 745.412 175.811 744.672 L175.811 739.973 Q177.894 741.107 180.116 741.662 Q182.338 742.218 184.815 742.218 Q188.82 742.218 191.158 740.111 Q193.496 738.005 193.496 734.394 Q193.496 730.783 191.158 728.676 Q188.82 726.57 184.815 726.57 Q182.94 726.57 181.065 726.986 Q179.214 727.403 177.269 728.283 L177.269 710.922 Z" fill="#000000" fill-rule="evenodd" fill-opacity="1" /><path clip-path="url(#clip900)" d="M 0 0 M213.241 714 Q209.63 714 207.801 717.565 Q205.996 721.107 205.996 728.236 Q205.996 735.343 207.801 738.908 Q209.63 742.449 213.241 742.449 Q216.875 742.449 218.681 738.908 Q220.51 735.343 220.51 728.236 Q220.51 721.107 218.681 717.565 Q216.875 714 213.241 714 M213.241 710.297 Q219.051 710.297 222.107 714.903 Q225.185 719.487 225.185 728.236 Q225.185 736.963 222.107 741.57 Q219.051 746.153 213.241 746.153 Q207.431 746.153 204.352 741.57 Q201.297 736.963 201.297 728.236 Q201.297 719.487 204.352 714.903 Q207.431 710.297 213.241 710.297 Z" fill="#000000" fill-rule="evenodd" fill-opacity="1" /><path clip-path="url(#clip900)" d="M 0 0 M117.779 419.93 L125.418 419.93 L125.418 393.565 L117.107 395.231 L117.107 390.972 L125.371 389.306 L130.047 389.306 L130.047 419.93 L137.686 419.93 L137.686 423.866 L117.779 423.866 L117.779 419.93 Z" fill="#000000" fill-rule="evenodd" fill-opacity="1" /><path clip-path="url(#clip900)" d="M 0 0 M146.783 419.93 L163.102 419.93 L163.102 423.866 L141.158 423.866 L141.158 419.93 Q143.82 417.176 148.403 412.546 Q153.01 407.893 154.19 406.551 Q156.436 404.028 157.315 402.292 Q158.218 400.532 158.218 398.843 Q158.218 396.088 156.274 394.352 Q154.353 392.616 151.251 392.616 Q149.052 392.616 146.598 393.38 Q144.167 394.144 141.39 395.694 L141.39 390.972 Q144.214 389.838 146.667 389.259 Q149.121 388.681 151.158 388.681 Q156.528 388.681 159.723 391.366 Q162.917 394.051 162.917 398.542 Q162.917 400.671 162.107 402.593 Q161.32 404.491 159.214 407.083 Q158.635 407.755 155.533 410.972 Q152.431 414.167 146.783 419.93 Z" fill="#000000" fill-rule="evenodd" fill-opacity="1" /><path clip-path="url(#clip900)" d="M 0 0 M168.172 417.986 L173.056 417.986 L173.056 423.866 L168.172 423.866 L168.172 417.986 Z" fill="#000000" fill-rule="evenodd" fill-opacity="1" /><path clip-path="url(#clip900)" d="M 0 0 M176.945 389.306 L199.167 389.306 L199.167 391.296 L186.621 423.866 L181.737 423.866 L193.542 393.241 L176.945 393.241 L176.945 389.306 Z" fill="#000000" fill-rule="evenodd" fill-opacity="1" /><path clip-path="url(#clip900)" d="M 0 0 M204.283 389.306 L222.639 389.306 L222.639 393.241 L208.565 393.241 L208.565 401.713 Q209.584 401.366 210.602 401.204 Q211.621 401.018 212.639 401.018 Q218.426 401.018 221.806 404.19 Q225.185 407.361 225.185 412.778 Q225.185 418.356 221.713 421.458 Q218.241 424.537 211.922 424.537 Q209.746 424.537 207.477 424.167 Q205.232 423.796 202.824 423.055 L202.824 418.356 Q204.908 419.491 207.13 420.046 Q209.352 420.602 211.829 420.602 Q215.834 420.602 218.172 418.495 Q220.51 416.389 220.51 412.778 Q220.51 409.167 218.172 407.06 Q215.834 404.954 211.829 404.954 Q209.954 404.954 208.079 405.37 Q206.227 405.787 204.283 406.667 L204.283 389.306 Z" fill="#000000" fill-rule="evenodd" fill-opacity="1" /><path clip-path="url(#clip900)" d="M 0 0 M114.931 98.3142 L122.57 98.3142 L122.57 71.9486 L114.26 73.6153 L114.26 69.3561 L122.524 67.6894 L127.2 67.6894 L127.2 98.3142 L134.839 98.3142 L134.839 102.249 L114.931 102.249 L114.931 98.3142 Z" fill="#000000" fill-rule="evenodd" fill-opacity="1" /><path clip-path="url(#clip900)" d="M 0 0 M154.075 83.6153 Q157.431 84.3328 159.306 86.6013 Q161.204 88.8699 161.204 92.2032 Q161.204 97.3189 157.686 100.12 Q154.167 102.921 147.686 102.921 Q145.51 102.921 143.195 102.481 Q140.904 102.064 138.45 101.208 L138.45 96.6939 Q140.394 97.8281 142.709 98.4068 Q145.024 98.9855 147.547 98.9855 Q151.945 98.9855 154.237 97.2494 Q156.552 95.5133 156.552 92.2032 Q156.552 89.1476 154.399 87.4347 Q152.269 85.6986 148.45 85.6986 L144.422 85.6986 L144.422 81.856 L148.635 81.856 Q152.084 81.856 153.913 80.4903 Q155.741 79.1014 155.741 76.5088 Q155.741 73.8468 153.843 72.4348 Q151.968 70.9996 148.45 70.9996 Q146.529 70.9996 144.329 71.4162 Q142.13 71.8329 139.492 72.7125 L139.492 68.5459 Q142.154 67.8052 144.468 67.4348 Q146.806 67.0644 148.866 67.0644 Q154.19 67.0644 157.292 69.495 Q160.394 71.9024 160.394 76.0227 Q160.394 78.8931 158.751 80.8838 Q157.107 82.8514 154.075 83.6153 Z" fill="#000000" fill-rule="evenodd" fill-opacity="1" /><path clip-path="url(#clip900)" d="M 0 0 M166.274 96.3698 L171.158 96.3698 L171.158 102.249 L166.274 102.249 L166.274 96.3698 Z" fill="#000000" fill-rule="evenodd" fill-opacity="1" /><path clip-path="url(#clip900)" d="M 0 0 M186.227 70.7681 Q182.616 70.7681 180.788 74.3329 Q178.982 77.8745 178.982 85.0041 Q178.982 92.1106 180.788 95.6754 Q182.616 99.217 186.227 99.217 Q189.862 99.217 191.667 95.6754 Q193.496 92.1106 193.496 85.0041 Q193.496 77.8745 191.667 74.3329 Q189.862 70.7681 186.227 70.7681 M186.227 67.0644 Q192.038 67.0644 195.093 71.6709 Q198.172 76.2542 198.172 85.0041 Q198.172 93.7309 195.093 98.3374 Q192.038 102.921 186.227 102.921 Q180.417 102.921 177.339 98.3374 Q174.283 93.7309 174.283 85.0041 Q174.283 76.2542 177.339 71.6709 Q180.417 67.0644 186.227 67.0644 Z" fill="#000000" fill-rule="evenodd" fill-opacity="1" /><path clip-path="url(#clip900)" d="M 0 0 M213.241 70.7681 Q209.63 70.7681 207.801 74.3329 Q205.996 77.8745 205.996 85.0041 Q205.996 92.1106 207.801 95.6754 Q209.63 99.217 213.241 99.217 Q216.875 99.217 218.681 95.6754 Q220.51 92.1106 220.51 85.0041 Q220.51 77.8745 218.681 74.3329 Q216.875 70.7681 213.241 70.7681 M213.241 67.0644 Q219.051 67.0644 222.107 71.6709 Q225.185 76.2542 225.185 85.0041 Q225.185 93.7309 222.107 98.3374 Q219.051 102.921 213.241 102.921 Q207.431 102.921 204.352 98.3374 Q201.297 93.7309 201.297 85.0041 Q201.297 76.2542 204.352 71.6709 Q207.431 67.0644 213.241 67.0644 Z" fill="#000000" fill-rule="evenodd" fill-opacity="1" /><path clip-path="url(#clip900)" d="M 0 0 M59.1993 815.533 Q55.2526 813.336 53.3747 810.281 Q51.4968 807.225 51.4968 803.088 Q51.4968 797.518 55.4117 794.494 Q59.2948 791.47 66.4881 791.47 L88.0042 791.47 L88.0042 797.358 L66.679 797.358 Q61.5546 797.358 59.072 799.173 Q56.5894 800.987 56.5894 804.711 Q56.5894 809.262 59.6131 811.904 Q62.6368 814.546 67.8567 814.546 L88.0042 814.546 L88.0042 820.434 L66.679 820.434 Q61.5228 820.434 59.072 822.248 Q56.5894 824.063 56.5894 827.85 Q56.5894 832.338 59.6449 834.98 Q62.6686 837.622 67.8567 837.622 L88.0042 837.622 L88.0042 843.51 L52.3562 843.51 L52.3562 837.622 L57.8944 837.622 Q54.616 835.616 53.0564 832.815 Q51.4968 830.015 51.4968 826.163 Q51.4968 822.28 53.4702 819.575 Q55.4436 816.838 59.1993 815.533 Z" fill="#000000" fill-rule="evenodd" fill-opacity="1" /><path clip-path="url(#clip900)" d="M 0 0 M52.3562 785.327 L52.3562 779.471 L88.0042 779.471 L88.0042 785.327 L52.3562 785.327 M38.479 785.327 L38.479 779.471 L45.895 779.471 L45.895 785.327 L38.479 785.327 Z" fill="#000000" fill-rule="evenodd" fill-opacity="1" /><path clip-path="url(#clip900)" d="M 0 0 M66.4881 743.696 L88.0042 743.696 L88.0042 749.552 L66.679 749.552 Q61.6183 749.552 59.1038 751.525 Q56.5894 753.499 56.5894 757.446 Q56.5894 762.188 59.6131 764.925 Q62.6368 767.662 67.8567 767.662 L88.0042 767.662 L88.0042 773.551 L52.3562 773.551 L52.3562 767.662 L57.8944 767.662 Q54.6797 765.562 53.0883 762.729 Q51.4968 759.864 51.4968 756.141 Q51.4968 749.998 55.3163 746.847 Q59.1038 743.696 66.4881 743.696 Z" fill="#000000" fill-rule="evenodd" fill-opacity="1" /><path clip-path="url(#clip900)" d="M 0 0 M98.8259 710.467 L103.377 710.467 L103.377 744.332 L98.8259 744.332 L98.8259 710.467 Z" fill="#000000" fill-rule="evenodd" fill-opacity="1" /><path clip-path="url(#clip900)" d="M 0 0 M57.7671 680.866 L38.479 680.866 L38.479 675.01 L88.0042 675.01 L88.0042 680.866 L82.657 680.866 Q85.8398 682.712 87.3994 685.545 Q88.9272 688.346 88.9272 692.292 Q88.9272 698.754 83.771 702.828 Q78.6147 706.87 70.212 706.87 Q61.8093 706.87 56.6531 702.828 Q51.4968 698.754 51.4968 692.292 Q51.4968 688.346 53.0564 685.545 Q54.5842 682.712 57.7671 680.866 M70.212 700.823 Q76.6732 700.823 80.3653 698.181 Q84.0256 695.507 84.0256 690.86 Q84.0256 686.213 80.3653 683.54 Q76.6732 680.866 70.212 680.866 Q63.7508 680.866 60.0905 683.54 Q56.3984 686.213 56.3984 690.86 Q56.3984 695.507 60.0905 698.181 Q63.7508 700.823 70.212 700.823 Z" fill="#000000" fill-rule="evenodd" fill-opacity="1" /><path clip-path="url(#clip900)" d="M 0 0 M52.3562 668.867 L52.3562 663.01 L88.0042 663.01 L88.0042 668.867 L52.3562 668.867 M38.479 668.867 L38.479 663.01 L45.895 663.01 L45.895 668.867 L38.479 668.867 Z" fill="#000000" fill-rule="evenodd" fill-opacity="1" /><path clip-path="url(#clip900)" d="M 0 0 M38.479 638.821 L43.3487 638.821 L43.3487 644.422 Q43.3487 647.573 44.6219 648.815 Q45.895 650.024 49.2052 650.024 L52.3562 650.024 L52.3562 640.38 L56.9077 640.38 L56.9077 650.024 L88.0042 650.024 L88.0042 655.912 L56.9077 655.912 L56.9077 661.514 L52.3562 661.514 L52.3562 655.912 L49.8736 655.912 Q43.9216 655.912 41.2162 653.143 Q38.479 650.374 38.479 644.359 L38.479 638.821 Z" fill="#000000" fill-rule="evenodd" fill-opacity="1" /><path clip-path="url(#clip900)" d="M 0 0 M38.479 614.631 L43.3487 614.631 L43.3487 620.233 Q43.3487 623.384 44.6219 624.625 Q45.895 625.835 49.2052 625.835 L52.3562 625.835 L52.3562 616.19 L56.9077 616.19 L56.9077 625.835 L88.0042 625.835 L88.0042 631.723 L56.9077 631.723 L56.9077 637.325 L52.3562 637.325 L52.3562 631.723 L49.8736 631.723 Q43.9216 631.723 41.2162 628.954 Q38.479 626.185 38.479 620.169 L38.479 614.631 Z" fill="#000000" fill-rule="evenodd" fill-opacity="1" /><path clip-path="url(#clip900)" d="
M1999.62 213.659 L2283.04 213.659 L2283.04 92.6992 L1999.62 92.6992  Z
  " fill="#ffffff" fill-rule="evenodd" fill-opacity="1"/>
<polyline clip-path="url(#clip900)" style="stroke:#000000; stroke-width:4; stroke-opacity:1; fill:none" points="
  1999.62,213.659 2283.04,213.659 2283.04,92.6992 1999.62,92.6992 1999.62,213.659 
  "/>
<polyline clip-path="url(#clip900)" style="stroke:#009af9; stroke-width:4; stroke-opacity:1; fill:none" stroke-dasharray="16, 10" points="
  2022.86,153.179 2162.3,153.179 
  "/>
<path clip-path="url(#clip900)" d="M 0 0 M2199.38 172.867 Q2197.58 177.496 2195.86 178.908 Q2194.15 180.32 2191.28 180.32 L2187.88 180.32 L2187.88 176.755 L2190.38 176.755 Q2192.14 176.755 2193.11 175.922 Q2194.08 175.089 2195.26 171.987 L2196.03 170.043 L2185.54 144.533 L2190.05 144.533 L2198.15 164.811 L2206.26 144.533 L2210.77 144.533 L2199.38 172.867 Z" fill="#000000" fill-rule="evenodd" fill-opacity="1" /><path clip-path="url(#clip900)" d="M 0 0 M2216.65 166.524 L2224.29 166.524 L2224.29 140.158 L2215.98 141.825 L2215.98 137.566 L2224.24 135.899 L2228.92 135.899 L2228.92 166.524 L2236.56 166.524 L2236.56 170.459 L2216.65 170.459 L2216.65 166.524 Z" fill="#000000" fill-rule="evenodd" fill-opacity="1" /></svg>
