<?xml version="1.0" encoding="utf-8"?>
<svg xmlns="http://www.w3.org/2000/svg" xmlns:xlink="http://www.w3.org/1999/xlink" width="600" height="400" viewBox="0 0 2400 1600">
<defs>
  <clipPath id="clip120">
    <rect x="0" y="0" width="2400" height="1600"/>
  </clipPath>
</defs>
<path clip-path="url(#clip120)" d="
M0 1600 L2400 1600 L2400 0 L0 0  Z
  " fill="#ffffff" fill-rule="evenodd" fill-opacity="1"/>
<defs>
  <clipPath id="clip121">
    <rect x="480" y="0" width="1681" height="1600"/>
  </clipPath>
</defs>
<path clip-path="url(#clip120)" d="
M211.255 1410.9 L2352.76 1410.9 L2352.76 47.2441 L211.255 47.2441  Z
  " fill="#ffffff" fill-rule="evenodd" fill-opacity="1"/>
<defs>
  <clipPath id="clip122">
    <rect x="211" y="47" width="2143" height="1365"/>
  </clipPath>
</defs>
<polyline clip-path="url(#clip122)" style="stroke:#000000; stroke-width:2; stroke-opacity:0.1; fill:none" points="
  271.864,1410.9 271.864,47.2441 
  "/>
<polyline clip-path="url(#clip122)" style="stroke:#000000; stroke-width:2; stroke-opacity:0.1; fill:none" points="
  739.373,1410.9 739.373,47.2441 
  "/>
<polyline clip-path="url(#clip122)" style="stroke:#000000; stroke-width:2; stroke-opacity:0.1; fill:none" points="
  1206.88,1410.9 1206.88,47.2441 
  "/>
<polyline clip-path="url(#clip122)" style="stroke:#000000; stroke-width:2; stroke-opacity:0.1; fill:none" points="
  1674.39,1410.9 1674.39,47.2441 
  "/>
<polyline clip-path="url(#clip122)" style="stroke:#000000; stroke-width:2; stroke-opacity:0.1; fill:none" points="
  2141.9,1410.9 2141.9,47.2441 
  "/>
<polyline clip-path="url(#clip120)" style="stroke:#000000; stroke-width:4; stroke-opacity:1; fill:none" points="
  211.255,1410.9 2352.76,1410.9 
  "/>
<polyline clip-path="url(#clip120)" style="stroke:#000000; stroke-width:4; stroke-opacity:1; fill:none" points="
  271.864,1410.9 271.864,1394.53 
  "/>
<polyline clip-path="url(#clip120)" style="stroke:#000000; stroke-width:4; stroke-opacity:1; fill:none" points="
  739.373,1410.9 739.373,1394.53 
  "/>
<polyline clip-path="url(#clip120)" style="stroke:#000000; stroke-width:4; stroke-opacity:1; fill:none" points="
  1206.88,1410.9 1206.88,1394.53 
  "/>
<polyline clip-path="url(#clip120)" style="stroke:#000000; stroke-width:4; stroke-opacity:1; fill:none" points="
  1674.39,1410.9 1674.39,1394.53 
  "/>
<polyline clip-path="url(#clip120)" style="stroke:#000000; stroke-width:4; stroke-opacity:1; fill:none" points="
  2141.9,1410.9 2141.9,1394.53 
  "/>
<path clip-path="url(#clip120)" d="M 0 0 M202.857 1489.17 L210.496 1489.17 L210.496 1462.8 L202.186 1464.47 L202.186 1460.21 L210.45 1458.54 L215.126 1458.54 L215.126 1489.17 L222.765 1489.17 L222.765 1493.1 L202.857 1493.1 L202.857 1489.17 Z" fill="#000000" fill-rule="evenodd" fill-opacity="1" /><path clip-path="url(#clip120)" d="M 0 0 M237.834 1461.62 Q234.223 1461.62 232.394 1465.19 Q230.589 1468.73 230.589 1475.86 Q230.589 1482.97 232.394 1486.53 Q234.223 1490.07 237.834 1490.07 Q241.468 1490.07 243.274 1486.53 Q245.102 1482.97 245.102 1475.86 Q245.102 1468.73 243.274 1465.19 Q241.468 1461.62 237.834 1461.62 M237.834 1457.92 Q243.644 1457.92 246.7 1462.53 Q249.778 1467.11 249.778 1475.86 Q249.778 1484.59 246.7 1489.19 Q243.644 1493.78 237.834 1493.78 Q232.024 1493.78 228.945 1489.19 Q225.89 1484.59 225.89 1475.86 Q225.89 1467.11 228.945 1462.53 Q232.024 1457.92 237.834 1457.92 Z" fill="#000000" fill-rule="evenodd" fill-opacity="1" /><path clip-path="url(#clip120)" d="M 0 0 M254.349 1462.5 L267.608 1462.5 L267.608 1465.69 L249.778 1465.69 L249.778 1462.5 Q251.941 1460.26 255.665 1456.5 Q259.408 1452.72 260.367 1451.63 Q262.191 1449.58 262.906 1448.16 Q263.64 1446.74 263.64 1445.36 Q263.64 1443.12 262.06 1441.71 Q260.499 1440.3 257.979 1440.3 Q256.192 1440.3 254.198 1440.92 Q252.223 1441.54 249.966 1442.8 L249.966 1438.97 Q252.261 1438.05 254.255 1437.58 Q256.248 1437.11 257.903 1437.11 Q262.267 1437.11 264.862 1439.29 Q267.458 1441.47 267.458 1445.12 Q267.458 1446.85 266.799 1448.41 Q266.16 1449.95 264.448 1452.06 Q263.978 1452.6 261.458 1455.22 Q258.938 1457.81 254.349 1462.5 Z" fill="#000000" fill-rule="evenodd" fill-opacity="1" /><path clip-path="url(#clip120)" d="M 0 0 M271.727 1460.92 L275.695 1460.92 L275.695 1465.69 L271.727 1465.69 L271.727 1460.92 Z" fill="#000000" fill-rule="evenodd" fill-opacity="1" /><path clip-path="url(#clip120)" d="M 0 0 M287.939 1440.11 Q285.005 1440.11 283.519 1443.01 Q282.052 1445.89 282.052 1451.68 Q282.052 1457.46 283.519 1460.35 Q285.005 1463.23 287.939 1463.23 Q290.892 1463.23 292.359 1460.35 Q293.845 1457.46 293.845 1451.68 Q293.845 1445.89 292.359 1443.01 Q290.892 1440.11 287.939 1440.11 M287.939 1437.11 Q292.66 1437.11 295.143 1440.85 Q297.644 1444.57 297.644 1451.68 Q297.644 1458.77 295.143 1462.51 Q292.66 1466.24 287.939 1466.24 Q283.219 1466.24 280.717 1462.51 Q278.234 1458.77 278.234 1451.68 Q278.234 1444.57 280.717 1440.85 Q283.219 1437.11 287.939 1437.11 Z" fill="#000000" fill-rule="evenodd" fill-opacity="1" /><path clip-path="url(#clip120)" d="M 0 0 M309.888 1440.11 Q306.954 1440.11 305.468 1443.01 Q304.001 1445.89 304.001 1451.68 Q304.001 1457.46 305.468 1460.35 Q306.954 1463.23 309.888 1463.23 Q312.841 1463.23 314.308 1460.35 Q315.794 1457.46 315.794 1451.68 Q315.794 1445.89 314.308 1443.01 Q312.841 1440.11 309.888 1440.11 M309.888 1437.11 Q314.609 1437.11 317.091 1440.85 Q319.593 1444.57 319.593 1451.68 Q319.593 1458.77 317.091 1462.51 Q314.609 1466.24 309.888 1466.24 Q305.167 1466.24 302.666 1462.51 Q300.183 1458.77 300.183 1451.68 Q300.183 1444.57 302.666 1440.85 Q305.167 1437.11 309.888 1437.11 Z" fill="#000000" fill-rule="evenodd" fill-opacity="1" /><path clip-path="url(#clip120)" d="M 0 0 M331.837 1440.11 Q328.903 1440.11 327.417 1443.01 Q325.95 1445.89 325.95 1451.68 Q325.95 1457.46 327.417 1460.35 Q328.903 1463.23 331.837 1463.23 Q334.789 1463.23 336.256 1460.35 Q337.742 1457.46 337.742 1451.68 Q337.742 1445.89 336.256 1443.01 Q334.789 1440.11 331.837 1440.11 M331.837 1437.11 Q336.557 1437.11 339.04 1440.85 Q341.541 1444.57 341.541 1451.68 Q341.541 1458.77 339.04 1462.51 Q336.557 1466.24 331.837 1466.24 Q327.116 1466.24 324.614 1462.51 Q322.132 1458.77 322.132 1451.68 Q322.132 1444.57 324.614 1440.85 Q327.116 1437.11 331.837 1437.11 Z" fill="#000000" fill-rule="evenodd" fill-opacity="1" /><path clip-path="url(#clip120)" d="M 0 0 M670.865 1489.17 L678.504 1489.17 L678.504 1462.8 L670.194 1464.47 L670.194 1460.21 L678.458 1458.54 L683.134 1458.54 L683.134 1489.17 L690.773 1489.17 L690.773 1493.1 L670.865 1493.1 L670.865 1489.17 Z" fill="#000000" fill-rule="evenodd" fill-opacity="1" /><path clip-path="url(#clip120)" d="M 0 0 M705.842 1461.62 Q702.231 1461.62 700.402 1465.19 Q698.597 1468.73 698.597 1475.86 Q698.597 1482.97 700.402 1486.53 Q702.231 1490.07 705.842 1490.07 Q709.476 1490.07 711.282 1486.53 Q713.11 1482.97 713.11 1475.86 Q713.11 1468.73 711.282 1465.19 Q709.476 1461.62 705.842 1461.62 M705.842 1457.92 Q711.652 1457.92 714.708 1462.53 Q717.786 1467.11 717.786 1475.86 Q717.786 1484.59 714.708 1489.19 Q711.652 1493.78 705.842 1493.78 Q700.032 1493.78 696.953 1489.19 Q693.898 1484.59 693.898 1475.86 Q693.898 1467.11 696.953 1462.53 Q700.032 1457.92 705.842 1457.92 Z" fill="#000000" fill-rule="evenodd" fill-opacity="1" /><path clip-path="url(#clip120)" d="M 0 0 M722.357 1462.5 L735.616 1462.5 L735.616 1465.69 L717.786 1465.69 L717.786 1462.5 Q719.949 1460.26 723.673 1456.5 Q727.416 1452.72 728.375 1451.63 Q730.199 1449.58 730.914 1448.16 Q731.648 1446.74 731.648 1445.36 Q731.648 1443.12 730.068 1441.71 Q728.507 1440.3 725.987 1440.3 Q724.2 1440.3 722.206 1440.92 Q720.231 1441.54 717.974 1442.8 L717.974 1438.97 Q720.269 1438.05 722.263 1437.58 Q724.256 1437.11 725.911 1437.11 Q730.275 1437.11 732.87 1439.29 Q735.466 1441.47 735.466 1445.12 Q735.466 1446.85 734.807 1448.41 Q734.168 1449.95 732.456 1452.06 Q731.986 1452.6 729.466 1455.22 Q726.946 1457.81 722.357 1462.5 Z" fill="#000000" fill-rule="evenodd" fill-opacity="1" /><path clip-path="url(#clip120)" d="M 0 0 M739.735 1460.92 L743.703 1460.92 L743.703 1465.69 L739.735 1465.69 L739.735 1460.92 Z" fill="#000000" fill-rule="evenodd" fill-opacity="1" /><path clip-path="url(#clip120)" d="M 0 0 M755.947 1440.11 Q753.013 1440.11 751.527 1443.01 Q750.06 1445.89 750.06 1451.68 Q750.06 1457.46 751.527 1460.35 Q753.013 1463.23 755.947 1463.23 Q758.9 1463.23 760.367 1460.35 Q761.853 1457.46 761.853 1451.68 Q761.853 1445.89 760.367 1443.01 Q758.9 1440.11 755.947 1440.11 M755.947 1437.11 Q760.668 1437.11 763.151 1440.85 Q765.652 1444.57 765.652 1451.68 Q765.652 1458.77 763.151 1462.51 Q760.668 1466.24 755.947 1466.24 Q751.227 1466.24 748.725 1462.51 Q746.242 1458.77 746.242 1451.68 Q746.242 1444.57 748.725 1440.85 Q751.227 1437.11 755.947 1437.11 Z" fill="#000000" fill-rule="evenodd" fill-opacity="1" /><path clip-path="url(#clip120)" d="M 0 0 M777.896 1440.11 Q774.962 1440.11 773.476 1443.01 Q772.009 1445.89 772.009 1451.68 Q772.009 1457.46 773.476 1460.35 Q774.962 1463.23 777.896 1463.23 Q780.849 1463.23 782.316 1460.35 Q783.802 1457.46 783.802 1451.68 Q783.802 1445.89 782.316 1443.01 Q780.849 1440.11 777.896 1440.11 M777.896 1437.11 Q782.617 1437.11 785.099 1440.85 Q787.601 1444.57 787.601 1451.68 Q787.601 1458.77 785.099 1462.51 Q782.617 1466.24 777.896 1466.24 Q773.175 1466.24 770.674 1462.51 Q768.191 1458.77 768.191 1451.68 Q768.191 1444.57 770.674 1440.85 Q773.175 1437.11 777.896 1437.11 Z" fill="#000000" fill-rule="evenodd" fill-opacity="1" /><path clip-path="url(#clip120)" d="M 0 0 M792.378 1462.5 L798.585 1462.5 L798.585 1441.07 L791.833 1442.43 L791.833 1438.97 L798.547 1437.61 L802.346 1437.61 L802.346 1462.5 L808.553 1462.5 L808.553 1465.69 L792.378 1465.69 L792.378 1462.5 Z" fill="#000000" fill-rule="evenodd" fill-opacity="1" /><path clip-path="url(#clip120)" d="M 0 0 M1138.53 1489.17 L1146.16 1489.17 L1146.16 1462.8 L1137.85 1464.47 L1137.85 1460.21 L1146.12 1458.54 L1150.79 1458.54 L1150.79 1489.17 L1158.43 1489.17 L1158.43 1493.1 L1138.53 1493.1 L1138.53 1489.17 Z" fill="#000000" fill-rule="evenodd" fill-opacity="1" /><path clip-path="url(#clip120)" d="M 0 0 M1173.5 1461.62 Q1169.89 1461.62 1168.06 1465.19 Q1166.26 1468.73 1166.26 1475.86 Q1166.26 1482.97 1168.06 1486.53 Q1169.89 1490.07 1173.5 1490.07 Q1177.14 1490.07 1178.94 1486.53 Q1180.77 1482.97 1180.77 1475.86 Q1180.77 1468.73 1178.94 1465.19 Q1177.14 1461.62 1173.5 1461.62 M1173.5 1457.92 Q1179.31 1457.92 1182.37 1462.53 Q1185.45 1467.11 1185.45 1475.86 Q1185.45 1484.59 1182.37 1489.19 Q1179.31 1493.78 1173.5 1493.78 Q1167.69 1493.78 1164.61 1489.19 Q1161.56 1484.59 1161.56 1475.86 Q1161.56 1467.11 1164.61 1462.53 Q1167.69 1457.92 1173.5 1457.92 Z" fill="#000000" fill-rule="evenodd" fill-opacity="1" /><path clip-path="url(#clip120)" d="M 0 0 M1190.02 1462.5 L1203.28 1462.5 L1203.28 1465.69 L1185.45 1465.69 L1185.45 1462.5 Q1187.61 1460.26 1191.33 1456.5 Q1195.08 1452.72 1196.04 1451.63 Q1197.86 1449.58 1198.57 1448.16 Q1199.31 1446.74 1199.31 1445.36 Q1199.31 1443.12 1197.73 1441.71 Q1196.17 1440.3 1193.65 1440.3 Q1191.86 1440.3 1189.87 1440.92 Q1187.89 1441.54 1185.63 1442.8 L1185.63 1438.97 Q1187.93 1438.05 1189.92 1437.58 Q1191.92 1437.11 1193.57 1437.11 Q1197.93 1437.11 1200.53 1439.29 Q1203.13 1441.47 1203.13 1445.12 Q1203.13 1446.85 1202.47 1448.41 Q1201.83 1449.95 1200.12 1452.06 Q1199.65 1452.6 1197.13 1455.22 Q1194.61 1457.81 1190.02 1462.5 Z" fill="#000000" fill-rule="evenodd" fill-opacity="1" /><path clip-path="url(#clip120)" d="M 0 0 M1207.4 1460.92 L1211.36 1460.92 L1211.36 1465.69 L1207.4 1465.69 L1207.4 1460.92 Z" fill="#000000" fill-rule="evenodd" fill-opacity="1" /><path clip-path="url(#clip120)" d="M 0 0 M1223.61 1440.11 Q1220.67 1440.11 1219.19 1443.01 Q1217.72 1445.89 1217.72 1451.68 Q1217.72 1457.46 1219.19 1460.35 Q1220.67 1463.23 1223.61 1463.23 Q1226.56 1463.23 1228.03 1460.35 Q1229.51 1457.46 1229.51 1451.68 Q1229.51 1445.89 1228.03 1443.01 Q1226.56 1440.11 1223.61 1440.11 M1223.61 1437.11 Q1228.33 1437.11 1230.81 1440.85 Q1233.31 1444.57 1233.31 1451.68 Q1233.31 1458.77 1230.81 1462.51 Q1228.33 1466.24 1223.61 1466.24 Q1218.89 1466.24 1216.39 1462.51 Q1213.9 1458.77 1213.9 1451.68 Q1213.9 1444.57 1216.39 1440.85 Q1218.89 1437.11 1223.61 1437.11 Z" fill="#000000" fill-rule="evenodd" fill-opacity="1" /><path clip-path="url(#clip120)" d="M 0 0 M1245.56 1440.11 Q1242.62 1440.11 1241.14 1443.01 Q1239.67 1445.89 1239.67 1451.68 Q1239.67 1457.46 1241.14 1460.35 Q1242.62 1463.23 1245.56 1463.23 Q1248.51 1463.23 1249.98 1460.35 Q1251.46 1457.46 1251.46 1451.68 Q1251.46 1445.89 1249.98 1443.01 Q1248.51 1440.11 1245.56 1440.11 M1245.56 1437.11 Q1250.28 1437.11 1252.76 1440.85 Q1255.26 1444.57 1255.26 1451.68 Q1255.26 1458.77 1252.76 1462.51 Q1250.28 1466.24 1245.56 1466.24 Q1240.84 1466.24 1238.33 1462.51 Q1235.85 1458.77 1235.85 1451.68 Q1235.85 1444.57 1238.33 1440.85 Q1240.84 1437.11 1245.56 1437.11 Z" fill="#000000" fill-rule="evenodd" fill-opacity="1" /><path clip-path="url(#clip120)" d="M 0 0 M1262.65 1462.5 L1275.91 1462.5 L1275.91 1465.69 L1258.08 1465.69 L1258.08 1462.5 Q1260.24 1460.26 1263.97 1456.5 Q1267.71 1452.72 1268.67 1451.63 Q1270.5 1449.58 1271.21 1448.16 Q1271.94 1446.74 1271.94 1445.36 Q1271.94 1443.12 1270.36 1441.71 Q1268.8 1440.3 1266.28 1440.3 Q1264.5 1440.3 1262.5 1440.92 Q1260.53 1441.54 1258.27 1442.8 L1258.27 1438.97 Q1260.56 1438.05 1262.56 1437.58 Q1264.55 1437.11 1266.21 1437.11 Q1270.57 1437.11 1273.17 1439.29 Q1275.76 1441.47 1275.76 1445.12 Q1275.76 1446.85 1275.1 1448.41 Q1274.46 1449.95 1272.75 1452.06 Q1272.28 1452.6 1269.76 1455.22 Q1267.24 1457.81 1262.65 1462.5 Z" fill="#000000" fill-rule="evenodd" fill-opacity="1" /><path clip-path="url(#clip120)" d="M 0 0 M1605.65 1489.17 L1613.29 1489.17 L1613.29 1462.8 L1604.98 1464.47 L1604.98 1460.21 L1613.24 1458.54 L1617.92 1458.54 L1617.92 1489.17 L1625.56 1489.17 L1625.56 1493.1 L1605.65 1493.1 L1605.65 1489.17 Z" fill="#000000" fill-rule="evenodd" fill-opacity="1" /><path clip-path="url(#clip120)" d="M 0 0 M1640.63 1461.62 Q1637.01 1461.62 1635.19 1465.19 Q1633.38 1468.73 1633.38 1475.86 Q1633.38 1482.97 1635.19 1486.53 Q1637.01 1490.07 1640.63 1490.07 Q1644.26 1490.07 1646.07 1486.53 Q1647.89 1482.97 1647.89 1475.86 Q1647.89 1468.73 1646.07 1465.19 Q1644.26 1461.62 1640.63 1461.62 M1640.63 1457.92 Q1646.44 1457.92 1649.49 1462.53 Q1652.57 1467.11 1652.57 1475.86 Q1652.57 1484.59 1649.49 1489.19 Q1646.44 1493.78 1640.63 1493.78 Q1634.82 1493.78 1631.74 1489.19 Q1628.68 1484.59 1628.68 1475.86 Q1628.68 1467.11 1631.74 1462.53 Q1634.82 1457.92 1640.63 1457.92 Z" fill="#000000" fill-rule="evenodd" fill-opacity="1" /><path clip-path="url(#clip120)" d="M 0 0 M1657.14 1462.5 L1670.4 1462.5 L1670.4 1465.69 L1652.57 1465.69 L1652.57 1462.5 Q1654.73 1460.26 1658.46 1456.5 Q1662.2 1452.72 1663.16 1451.63 Q1664.98 1449.58 1665.7 1448.16 Q1666.43 1446.74 1666.43 1445.36 Q1666.43 1443.12 1664.85 1441.71 Q1663.29 1440.3 1660.77 1440.3 Q1658.98 1440.3 1656.99 1440.92 Q1655.02 1441.54 1652.76 1442.8 L1652.76 1438.97 Q1655.05 1438.05 1657.05 1437.58 Q1659.04 1437.11 1660.7 1437.11 Q1665.06 1437.11 1667.65 1439.29 Q1670.25 1441.47 1670.25 1445.12 Q1670.25 1446.85 1669.59 1448.41 Q1668.95 1449.95 1667.24 1452.06 Q1666.77 1452.6 1664.25 1455.22 Q1661.73 1457.81 1657.14 1462.5 Z" fill="#000000" fill-rule="evenodd" fill-opacity="1" /><path clip-path="url(#clip120)" d="M 0 0 M1674.52 1460.92 L1678.49 1460.92 L1678.49 1465.69 L1674.52 1465.69 L1674.52 1460.92 Z" fill="#000000" fill-rule="evenodd" fill-opacity="1" /><path clip-path="url(#clip120)" d="M 0 0 M1690.73 1440.11 Q1687.8 1440.11 1686.31 1443.01 Q1684.84 1445.89 1684.84 1451.68 Q1684.84 1457.46 1686.31 1460.35 Q1687.8 1463.23 1690.73 1463.23 Q1693.68 1463.23 1695.15 1460.35 Q1696.64 1457.46 1696.64 1451.68 Q1696.64 1445.89 1695.15 1443.01 Q1693.68 1440.11 1690.73 1440.11 M1690.73 1437.11 Q1695.45 1437.11 1697.93 1440.85 Q1700.44 1444.57 1700.44 1451.68 Q1700.44 1458.77 1697.93 1462.51 Q1695.45 1466.24 1690.73 1466.24 Q1686.01 1466.24 1683.51 1462.51 Q1681.03 1458.77 1681.03 1451.68 Q1681.03 1444.57 1683.51 1440.85 Q1686.01 1437.11 1690.73 1437.11 Z" fill="#000000" fill-rule="evenodd" fill-opacity="1" /><path clip-path="url(#clip120)" d="M 0 0 M1712.68 1440.11 Q1709.75 1440.11 1708.26 1443.01 Q1706.79 1445.89 1706.79 1451.68 Q1706.79 1457.46 1708.26 1460.35 Q1709.75 1463.23 1712.68 1463.23 Q1715.63 1463.23 1717.1 1460.35 Q1718.59 1457.46 1718.59 1451.68 Q1718.59 1445.89 1717.1 1443.01 Q1715.63 1440.11 1712.68 1440.11 M1712.68 1437.11 Q1717.4 1437.11 1719.88 1440.85 Q1722.38 1444.57 1722.38 1451.68 Q1722.38 1458.77 1719.88 1462.51 Q1717.4 1466.24 1712.68 1466.24 Q1707.96 1466.24 1705.46 1462.51 Q1702.98 1458.77 1702.98 1451.68 Q1702.98 1444.57 1705.46 1440.85 Q1707.96 1437.11 1712.68 1437.11 Z" fill="#000000" fill-rule="evenodd" fill-opacity="1" /><path clip-path="url(#clip120)" d="M 0 0 M1738.01 1450.55 Q1740.74 1451.14 1742.26 1452.98 Q1743.81 1454.82 1743.81 1457.53 Q1743.81 1461.69 1740.95 1463.96 Q1738.09 1466.24 1732.82 1466.24 Q1731.06 1466.24 1729.17 1465.88 Q1727.31 1465.54 1725.32 1464.85 L1725.32 1461.18 Q1726.9 1462.1 1728.78 1462.57 Q1730.66 1463.04 1732.71 1463.04 Q1736.28 1463.04 1738.15 1461.63 Q1740.03 1460.22 1740.03 1457.53 Q1740.03 1455.05 1738.28 1453.66 Q1736.55 1452.25 1733.44 1452.25 L1730.17 1452.25 L1730.17 1449.12 L1733.59 1449.12 Q1736.4 1449.12 1737.88 1448.01 Q1739.37 1446.89 1739.37 1444.78 Q1739.37 1442.62 1737.83 1441.47 Q1736.3 1440.3 1733.44 1440.3 Q1731.88 1440.3 1730.1 1440.64 Q1728.31 1440.98 1726.17 1441.69 L1726.17 1438.31 Q1728.33 1437.71 1730.21 1437.41 Q1732.11 1437.11 1733.78 1437.11 Q1738.11 1437.11 1740.63 1439.08 Q1743.15 1441.04 1743.15 1444.38 Q1743.15 1446.72 1741.81 1448.33 Q1740.48 1449.93 1738.01 1450.55 Z" fill="#000000" fill-rule="evenodd" fill-opacity="1" /><path clip-path="url(#clip120)" d="M 0 0 M2072.7 1489.17 L2080.34 1489.17 L2080.34 1462.8 L2072.03 1464.47 L2072.03 1460.21 L2080.29 1458.54 L2084.97 1458.54 L2084.97 1489.17 L2092.61 1489.17 L2092.61 1493.1 L2072.7 1493.1 L2072.7 1489.17 Z" fill="#000000" fill-rule="evenodd" fill-opacity="1" /><path clip-path="url(#clip120)" d="M 0 0 M2107.67 1461.62 Q2104.06 1461.62 2102.24 1465.19 Q2100.43 1468.73 2100.43 1475.86 Q2100.43 1482.97 2102.24 1486.53 Q2104.06 1490.07 2107.67 1490.07 Q2111.31 1490.07 2113.11 1486.53 Q2114.94 1482.97 2114.94 1475.86 Q2114.94 1468.73 2113.11 1465.19 Q2111.31 1461.62 2107.67 1461.62 M2107.67 1457.92 Q2113.48 1457.92 2116.54 1462.53 Q2119.62 1467.11 2119.62 1475.86 Q2119.62 1484.59 2116.54 1489.19 Q2113.48 1493.78 2107.67 1493.78 Q2101.86 1493.78 2098.79 1489.19 Q2095.73 1484.59 2095.73 1475.86 Q2095.73 1467.11 2098.79 1462.53 Q2101.86 1457.92 2107.67 1457.92 Z" fill="#000000" fill-rule="evenodd" fill-opacity="1" /><path clip-path="url(#clip120)" d="M 0 0 M2124.19 1462.5 L2137.45 1462.5 L2137.45 1465.69 L2119.62 1465.69 L2119.62 1462.5 Q2121.78 1460.26 2125.51 1456.5 Q2129.25 1452.72 2130.21 1451.63 Q2132.03 1449.58 2132.75 1448.16 Q2133.48 1446.74 2133.48 1445.36 Q2133.48 1443.12 2131.9 1441.71 Q2130.34 1440.3 2127.82 1440.3 Q2126.03 1440.3 2124.04 1440.92 Q2122.06 1441.54 2119.81 1442.8 L2119.81 1438.97 Q2122.1 1438.05 2124.1 1437.58 Q2126.09 1437.11 2127.74 1437.11 Q2132.11 1437.11 2134.7 1439.29 Q2137.3 1441.47 2137.3 1445.12 Q2137.3 1446.85 2136.64 1448.41 Q2136 1449.95 2134.29 1452.06 Q2133.82 1452.6 2131.3 1455.22 Q2128.78 1457.81 2124.19 1462.5 Z" fill="#000000" fill-rule="evenodd" fill-opacity="1" /><path clip-path="url(#clip120)" d="M 0 0 M2141.57 1460.92 L2145.54 1460.92 L2145.54 1465.69 L2141.57 1465.69 L2141.57 1460.92 Z" fill="#000000" fill-rule="evenodd" fill-opacity="1" /><path clip-path="url(#clip120)" d="M 0 0 M2157.78 1440.11 Q2154.85 1440.11 2153.36 1443.01 Q2151.89 1445.89 2151.89 1451.68 Q2151.89 1457.46 2153.36 1460.35 Q2154.85 1463.23 2157.78 1463.23 Q2160.73 1463.23 2162.2 1460.35 Q2163.69 1457.46 2163.69 1451.68 Q2163.69 1445.89 2162.2 1443.01 Q2160.73 1440.11 2157.78 1440.11 M2157.78 1437.11 Q2162.5 1437.11 2164.98 1440.85 Q2167.48 1444.57 2167.48 1451.68 Q2167.48 1458.77 2164.98 1462.51 Q2162.5 1466.24 2157.78 1466.24 Q2153.06 1466.24 2150.56 1462.51 Q2148.08 1458.77 2148.08 1451.68 Q2148.08 1444.57 2150.56 1440.85 Q2153.06 1437.11 2157.78 1437.11 Z" fill="#000000" fill-rule="evenodd" fill-opacity="1" /><path clip-path="url(#clip120)" d="M 0 0 M2179.73 1440.11 Q2176.79 1440.11 2175.31 1443.01 Q2173.84 1445.89 2173.84 1451.68 Q2173.84 1457.46 2175.31 1460.35 Q2176.79 1463.23 2179.73 1463.23 Q2182.68 1463.23 2184.15 1460.35 Q2185.63 1457.46 2185.63 1451.68 Q2185.63 1445.89 2184.15 1443.01 Q2182.68 1440.11 2179.73 1440.11 M2179.73 1437.11 Q2184.45 1437.11 2186.93 1440.85 Q2189.43 1444.57 2189.43 1451.68 Q2189.43 1458.77 2186.93 1462.51 Q2184.45 1466.24 2179.73 1466.24 Q2175.01 1466.24 2172.51 1462.51 Q2170.02 1458.77 2170.02 1451.68 Q2170.02 1444.57 2172.51 1440.85 Q2175.01 1437.11 2179.73 1437.11 Z" fill="#000000" fill-rule="evenodd" fill-opacity="1" /><path clip-path="url(#clip120)" d="M 0 0 M2203.99 1440.92 L2194.4 1455.91 L2203.99 1455.91 L2203.99 1440.92 M2202.99 1437.61 L2207.77 1437.61 L2207.77 1455.91 L2211.78 1455.91 L2211.78 1459.07 L2207.77 1459.07 L2207.77 1465.69 L2203.99 1465.69 L2203.99 1459.07 L2191.31 1459.07 L2191.31 1455.41 L2202.99 1437.61 Z" fill="#000000" fill-rule="evenodd" fill-opacity="1" /><path clip-path="url(#clip120)" d="M 0 0 M1250.73 1519.95 L1250.73 1556.9 L1258.5 1556.9 Q1268.34 1556.9 1272.89 1552.45 Q1277.47 1547.99 1277.47 1538.38 Q1277.47 1528.83 1272.89 1524.4 Q1268.34 1519.95 1258.5 1519.95 L1250.73 1519.95 M1244.3 1514.67 L1257.51 1514.67 Q1271.33 1514.67 1277.79 1520.43 Q1284.25 1526.16 1284.25 1538.38 Q1284.25 1550.66 1277.76 1556.42 Q1271.26 1562.19 1257.51 1562.19 L1244.3 1562.19 L1244.3 1514.67 Z" fill="#000000" fill-rule="evenodd" fill-opacity="1" /><path clip-path="url(#clip120)" d="M 0 0 M1292.33 1556.77 L1302.84 1556.77 L1302.84 1520.52 L1291.41 1522.81 L1291.41 1516.96 L1302.77 1514.67 L1309.2 1514.67 L1309.2 1556.77 L1319.71 1556.77 L1319.71 1562.19 L1292.33 1562.19 L1292.33 1556.77 Z" fill="#000000" fill-rule="evenodd" fill-opacity="1" /><polyline clip-path="url(#clip122)" style="stroke:#000000; stroke-width:2; stroke-opacity:0.1; fill:none" points="
  211.255,1259.01 2352.76,1259.01 
  "/>
<polyline clip-path="url(#clip122)" style="stroke:#000000; stroke-width:2; stroke-opacity:0.1; fill:none" points="
  211.255,1001.72 2352.76,1001.72 
  "/>
<polyline clip-path="url(#clip122)" style="stroke:#000000; stroke-width:2; stroke-opacity:0.1; fill:none" points="
  211.255,744.425 2352.76,744.425 
  "/>
<polyline clip-path="url(#clip122)" style="stroke:#000000; stroke-width:2; stroke-opacity:0.1; fill:none" points="
  211.255,487.132 2352.76,487.132 
  "/>
<polyline clip-path="url(#clip122)" style="stroke:#000000; stroke-width:2; stroke-opacity:0.1; fill:none" points="
  211.255,229.839 2352.76,229.839 
  "/>
<polyline clip-path="url(#clip120)" style="stroke:#000000; stroke-width:4; stroke-opacity:1; fill:none" points="
  211.255,1410.9 211.255,47.2441 
  "/>
<polyline clip-path="url(#clip120)" style="stroke:#000000; stroke-width:4; stroke-opacity:1; fill:none" points="
  211.255,1259.01 236.953,1259.01 
  "/>
<polyline clip-path="url(#clip120)" style="stroke:#000000; stroke-width:4; stroke-opacity:1; fill:none" points="
  211.255,1001.72 236.953,1001.72 
  "/>
<polyline clip-path="url(#clip120)" style="stroke:#000000; stroke-width:4; stroke-opacity:1; fill:none" points="
  211.255,744.425 236.953,744.425 
  "/>
<polyline clip-path="url(#clip120)" style="stroke:#000000; stroke-width:4; stroke-opacity:1; fill:none" points="
  211.255,487.132 236.953,487.132 
  "/>
<polyline clip-path="url(#clip120)" style="stroke:#000000; stroke-width:4; stroke-opacity:1; fill:none" points="
  211.255,229.839 236.953,229.839 
  "/>
<path clip-path="url(#clip120)" d="M 0 0 M126.598 1257.15 Q123.45 1257.15 121.598 1259.3 Q119.769 1261.45 119.769 1265.2 Q119.769 1268.93 121.598 1271.11 Q123.45 1273.26 126.598 1273.26 Q129.746 1273.26 131.575 1271.11 Q133.427 1268.93 133.427 1265.2 Q133.427 1261.45 131.575 1259.3 Q129.746 1257.15 126.598 1257.15 M135.88 1242.49 L135.88 1246.75 Q134.121 1245.92 132.316 1245.48 Q130.533 1245.04 128.774 1245.04 Q124.144 1245.04 121.691 1248.17 Q119.26 1251.29 118.913 1257.61 Q120.279 1255.6 122.339 1254.53 Q124.399 1253.44 126.876 1253.44 Q132.084 1253.44 135.093 1256.62 Q138.126 1259.76 138.126 1265.2 Q138.126 1270.53 134.978 1273.74 Q131.83 1276.96 126.598 1276.96 Q120.603 1276.96 117.431 1272.38 Q114.26 1267.77 114.26 1259.05 Q114.26 1250.85 118.149 1245.99 Q122.038 1241.11 128.589 1241.11 Q130.348 1241.11 132.13 1241.45 Q133.936 1241.8 135.88 1242.49 Z" fill="#000000" fill-rule="evenodd" fill-opacity="1" /><path clip-path="url(#clip120)" d="M 0 0 M143.195 1270.41 L148.079 1270.41 L148.079 1276.29 L143.195 1276.29 L143.195 1270.41 Z" fill="#000000" fill-rule="evenodd" fill-opacity="1" /><path clip-path="url(#clip120)" d="M 0 0 M163.727 1257.15 Q160.579 1257.15 158.728 1259.3 Q156.899 1261.45 156.899 1265.2 Q156.899 1268.93 158.728 1271.11 Q160.579 1273.26 163.727 1273.26 Q166.876 1273.26 168.704 1271.11 Q170.556 1268.93 170.556 1265.2 Q170.556 1261.45 168.704 1259.3 Q166.876 1257.15 163.727 1257.15 M173.01 1242.49 L173.01 1246.75 Q171.251 1245.92 169.445 1245.48 Q167.663 1245.04 165.903 1245.04 Q161.274 1245.04 158.82 1248.17 Q156.39 1251.29 156.042 1257.61 Q157.408 1255.6 159.468 1254.53 Q161.528 1253.44 164.005 1253.44 Q169.214 1253.44 172.223 1256.62 Q175.255 1259.76 175.255 1265.2 Q175.255 1270.53 172.107 1273.74 Q168.959 1276.96 163.727 1276.96 Q157.732 1276.96 154.561 1272.38 Q151.39 1267.77 151.39 1259.05 Q151.39 1250.85 155.278 1245.99 Q159.167 1241.11 165.718 1241.11 Q167.477 1241.11 169.26 1241.45 Q171.065 1241.8 173.01 1242.49 Z" fill="#000000" fill-rule="evenodd" fill-opacity="1" /><path clip-path="url(#clip120)" d="M 0 0 M126.853 999.855 Q123.705 999.855 121.853 1002.01 Q120.024 1004.16 120.024 1007.91 Q120.024 1011.64 121.853 1013.81 Q123.705 1015.97 126.853 1015.97 Q130.001 1015.97 131.83 1013.81 Q133.681 1011.64 133.681 1007.91 Q133.681 1004.16 131.83 1002.01 Q130.001 999.855 126.853 999.855 M136.135 985.202 L136.135 989.461 Q134.376 988.628 132.57 988.188 Q130.788 987.748 129.029 987.748 Q124.399 987.748 121.945 990.873 Q119.515 993.998 119.168 1000.32 Q120.533 998.304 122.593 997.239 Q124.654 996.151 127.13 996.151 Q132.339 996.151 135.348 999.322 Q138.38 1002.47 138.38 1007.91 Q138.38 1013.23 135.232 1016.45 Q132.084 1019.67 126.853 1019.67 Q120.857 1019.67 117.686 1015.09 Q114.515 1010.48 114.515 1001.75 Q114.515 993.558 118.404 988.697 Q122.293 983.813 128.843 983.813 Q130.603 983.813 132.385 984.16 Q134.191 984.508 136.135 985.202 Z" fill="#000000" fill-rule="evenodd" fill-opacity="1" /><path clip-path="url(#clip120)" d="M 0 0 M143.45 1013.12 L148.334 1013.12 L148.334 1019 L143.45 1019 L143.45 1013.12 Z" fill="#000000" fill-rule="evenodd" fill-opacity="1" /><path clip-path="url(#clip120)" d="M 0 0 M163.403 1002.59 Q160.07 1002.59 158.149 1004.37 Q156.251 1006.15 156.251 1009.28 Q156.251 1012.4 158.149 1014.18 Q160.07 1015.97 163.403 1015.97 Q166.737 1015.97 168.658 1014.18 Q170.579 1012.38 170.579 1009.28 Q170.579 1006.15 168.658 1004.37 Q166.76 1002.59 163.403 1002.59 M158.728 1000.6 Q155.718 999.855 154.028 997.795 Q152.362 995.734 152.362 992.771 Q152.362 988.628 155.302 986.221 Q158.265 983.813 163.403 983.813 Q168.565 983.813 171.505 986.221 Q174.445 988.628 174.445 992.771 Q174.445 995.734 172.755 997.795 Q171.089 999.855 168.102 1000.6 Q171.482 1001.38 173.357 1003.67 Q175.255 1005.97 175.255 1009.28 Q175.255 1014.3 172.177 1016.98 Q169.121 1019.67 163.403 1019.67 Q157.686 1019.67 154.607 1016.98 Q151.552 1014.3 151.552 1009.28 Q151.552 1005.97 153.45 1003.67 Q155.348 1001.38 158.728 1000.6 M157.015 993.211 Q157.015 995.896 158.681 997.401 Q160.371 998.906 163.403 998.906 Q166.413 998.906 168.102 997.401 Q169.815 995.896 169.815 993.211 Q169.815 990.526 168.102 989.021 Q166.413 987.517 163.403 987.517 Q160.371 987.517 158.681 989.021 Q157.015 990.526 157.015 993.211 Z" fill="#000000" fill-rule="evenodd" fill-opacity="1" /><path clip-path="url(#clip120)" d="M 0 0 M116.066 727.145 L138.288 727.145 L138.288 729.136 L125.742 761.705 L120.857 761.705 L132.663 731.08 L116.066 731.08 L116.066 727.145 Z" fill="#000000" fill-rule="evenodd" fill-opacity="1" /><path clip-path="url(#clip120)" d="M 0 0 M143.357 755.826 L148.241 755.826 L148.241 761.705 L143.357 761.705 L143.357 755.826 Z" fill="#000000" fill-rule="evenodd" fill-opacity="1" /><path clip-path="url(#clip120)" d="M 0 0 M163.311 730.224 Q159.7 730.224 157.871 733.789 Q156.065 737.33 156.065 744.46 Q156.065 751.566 157.871 755.131 Q159.7 758.673 163.311 758.673 Q166.945 758.673 168.751 755.131 Q170.579 751.566 170.579 744.46 Q170.579 737.33 168.751 733.789 Q166.945 730.224 163.311 730.224 M163.311 726.52 Q169.121 726.52 172.177 731.127 Q175.255 735.71 175.255 744.46 Q175.255 753.187 172.177 757.793 Q169.121 762.377 163.311 762.377 Q157.501 762.377 154.422 757.793 Q151.366 753.187 151.366 744.46 Q151.366 735.71 154.422 731.127 Q157.501 726.52 163.311 726.52 Z" fill="#000000" fill-rule="evenodd" fill-opacity="1" /><path clip-path="url(#clip120)" d="M 0 0 M117.663 469.852 L139.885 469.852 L139.885 471.843 L127.339 504.412 L122.455 504.412 L134.26 473.787 L117.663 473.787 L117.663 469.852 Z" fill="#000000" fill-rule="evenodd" fill-opacity="1" /><path clip-path="url(#clip120)" d="M 0 0 M144.954 498.533 L149.839 498.533 L149.839 504.412 L144.954 504.412 L144.954 498.533 Z" fill="#000000" fill-rule="evenodd" fill-opacity="1" /><path clip-path="url(#clip120)" d="M 0 0 M158.936 500.477 L175.255 500.477 L175.255 504.412 L153.311 504.412 L153.311 500.477 Q155.973 497.723 160.556 493.093 Q165.163 488.44 166.343 487.098 Q168.589 484.574 169.468 482.838 Q170.371 481.079 170.371 479.389 Q170.371 476.635 168.427 474.899 Q166.505 473.162 163.403 473.162 Q161.204 473.162 158.751 473.926 Q156.32 474.69 153.542 476.241 L153.542 471.519 Q156.366 470.385 158.82 469.806 Q161.274 469.227 163.311 469.227 Q168.681 469.227 171.876 471.912 Q175.07 474.598 175.07 479.088 Q175.07 481.218 174.26 483.139 Q173.473 485.037 171.366 487.63 Q170.788 488.301 167.686 491.519 Q164.584 494.713 158.936 500.477 Z" fill="#000000" fill-rule="evenodd" fill-opacity="1" /><path clip-path="url(#clip120)" d="M 0 0 M115.58 212.559 L137.802 212.559 L137.802 214.55 L125.255 247.119 L120.371 247.119 L132.177 216.495 L115.58 216.495 L115.58 212.559 Z" fill="#000000" fill-rule="evenodd" fill-opacity="1" /><path clip-path="url(#clip120)" d="M 0 0 M142.871 241.24 L147.755 241.24 L147.755 247.119 L142.871 247.119 L142.871 241.24 Z" fill="#000000" fill-rule="evenodd" fill-opacity="1" /><path clip-path="url(#clip120)" d="M 0 0 M165.672 216.633 L153.866 235.082 L165.672 235.082 L165.672 216.633 M164.445 212.559 L170.325 212.559 L170.325 235.082 L175.255 235.082 L175.255 238.971 L170.325 238.971 L170.325 247.119 L165.672 247.119 L165.672 238.971 L150.07 238.971 L150.07 234.457 L164.445 212.559 Z" fill="#000000" fill-rule="evenodd" fill-opacity="1" /><path clip-path="url(#clip120)" d="M 0 0 M59.1993 815.533 Q55.2526 813.336 53.3747 810.281 Q51.4968 807.225 51.4968 803.088 Q51.4968 797.518 55.4117 794.494 Q59.2948 791.47 66.4881 791.47 L88.0042 791.47 L88.0042 797.358 L66.679 797.358 Q61.5546 797.358 59.072 799.173 Q56.5894 800.987 56.5894 804.711 Q56.5894 809.262 59.6131 811.904 Q62.6368 814.546 67.8567 814.546 L88.0042 814.546 L88.0042 820.434 L66.679 820.434 Q61.5228 820.434 59.072 822.248 Q56.5894 824.063 56.5894 827.85 Q56.5894 832.338 59.6449 834.98 Q62.6686 837.622 67.8567 837.622 L88.0042 837.622 L88.0042 843.51 L52.3562 843.51 L52.3562 837.622 L57.8944 837.622 Q54.616 835.616 53.0564 832.815 Q51.4968 830.015 51.4968 826.163 Q51.4968 822.28 53.4702 819.575 Q55.4436 816.838 59.1993 815.533 Z" fill="#000000" fill-rule="evenodd" fill-opacity="1" /><path clip-path="url(#clip120)" d="M 0 0 M52.3562 785.327 L52.3562 779.471 L88.0042 779.471 L88.0042 785.327 L52.3562 785.327 M38.479 785.327 L38.479 779.471 L45.895 779.471 L45.895 785.327 L38.479 785.327 Z" fill="#000000" fill-rule="evenodd" fill-opacity="1" /><path clip-path="url(#clip120)" d="M 0 0 M66.4881 743.696 L88.0042 743.696 L88.0042 749.552 L66.679 749.552 Q61.6183 749.552 59.1038 751.525 Q56.5894 753.499 56.5894 757.446 Q56.5894 762.188 59.6131 764.925 Q62.6368 767.662 67.8567 767.662 L88.0042 767.662 L88.0042 773.551 L52.3562 773.551 L52.3562 767.662 L57.8944 767.662 Q54.6797 765.562 53.0883 762.729 Q51.4968 759.864 51.4968 756.141 Q51.4968 749.998 55.3163 746.847 Q59.1038 743.696 66.4881 743.696 Z" fill="#000000" fill-rule="evenodd" fill-opacity="1" /><path clip-path="url(#clip120)" d="M 0 0 M98.8259 710.467 L103.377 710.467 L103.377 744.332 L98.8259 744.332 L98.8259 710.467 Z" fill="#000000" fill-rule="evenodd" fill-opacity="1" /><path clip-path="url(#clip120)" d="M 0 0 M57.7671 680.866 L38.479 680.866 L38.479 675.01 L88.0042 675.01 L88.0042 680.866 L82.657 680.866 Q85.8398 682.712 87.3994 685.545 Q88.9272 688.346 88.9272 692.292 Q88.9272 698.754 83.771 702.828 Q78.6147 706.87 70.212 706.87 Q61.8093 706.87 56.6531 702.828 Q51.4968 698.754 51.4968 692.292 Q51.4968 688.346 53.0564 685.545 Q54.5842 682.712 57.7671 680.866 M70.212 700.823 Q76.6732 700.823 80.3653 698.181 Q84.0256 695.507 84.0256 690.86 Q84.0256 686.213 80.3653 683.54 Q76.6732 680.866 70.212 680.866 Q63.7508 680.866 60.0905 683.54 Q56.3984 686.213 56.3984 690.86 Q56.3984 695.507 60.0905 698.181 Q63.7508 700.823 70.212 700.823 Z" fill="#000000" fill-rule="evenodd" fill-opacity="1" /><path clip-path="url(#clip120)" d="M 0 0 M52.3562 668.867 L52.3562 663.01 L88.0042 663.01 L88.0042 668.867 L52.3562 668.867 M38.479 668.867 L38.479 663.01 L45.895 663.01 L45.895 668.867 L38.479 668.867 Z" fill="#000000" fill-rule="evenodd" fill-opacity="1" /><path clip-path="url(#clip120)" d="M 0 0 M38.479 638.821 L43.3487 638.821 L43.3487 644.422 Q43.3487 647.573 44.6219 648.815 Q45.895 650.024 49.2052 650.024 L52.3562 650.024 L52.3562 640.38 L56.9077 640.38 L56.9077 650.024 L88.0042 650.024 L88.0042 655.912 L56.9077 655.912 L56.9077 661.514 L52.3562 661.514 L52.3562 655.912 L49.8736 655.912 Q43.9216 655.912 41.2162 653.143 Q38.479 650.374 38.479 644.359 L38.479 638.821 Z" fill="#000000" fill-rule="evenodd" fill-opacity="1" /><path clip-path="url(#clip120)" d="M 0 0 M38.479 614.631 L43.3487 614.631 L43.3487 620.233 Q43.3487 623.384 44.6219 624.625 Q45.895 625.835 49.2052 625.835 L52.3562 625.835 L52.3562 616.19 L56.9077 616.19 L56.9077 625.835 L88.0042 625.835 L88.0042 631.723 L56.9077 631.723 L56.9077 637.325 L52.3562 637.325 L52.3562 631.723 L49.8736 631.723 Q43.9216 631.723 41.2162 628.954 Q38.479 626.185 38.479 620.169 L38.479 614.631 Z" fill="#000000" fill-rule="evenodd" fill-opacity="1" /><path clip-path="url(#clip120)" d="
M1992.41 213.659 L2281.37 213.659 L2281.37 92.6992 L1992.41 92.6992  Z
  " fill="#ffffff" fill-rule="evenodd" fill-opacity="1"/>
<polyline clip-path="url(#clip120)" style="stroke:#000000; stroke-width:4; stroke-opacity:1; fill:none" points="
  1992.41,213.659 2281.37,213.659 2281.37,92.6992 1992.41,92.6992 1992.41,213.659 
  "/>
<polyline clip-path="url(#clip120)" style="stroke:#009af9; stroke-width:4; stroke-opacity:1; fill:none" stroke-dasharray="16, 10" points="
  2016.2,153.179 2158.97,153.179 
  "/>
<path clip-path="url(#clip120)" d="M 0 0 M2196.61 172.867 Q2194.8 177.496 2193.09 178.908 Q2191.38 180.32 2188.51 180.32 L2185.1 180.32 L2185.1 176.755 L2187.6 176.755 Q2189.36 176.755 2190.33 175.922 Q2191.31 175.089 2192.49 171.987 L2193.25 170.043 L2182.77 144.533 L2187.28 144.533 L2195.38 164.811 L2203.48 144.533 L2208 144.533 L2196.61 172.867 Z" fill="#000000" fill-rule="evenodd" fill-opacity="1" /><path clip-path="url(#clip120)" d="M 0 0 M2213.88 166.524 L2221.52 166.524 L2221.52 140.158 L2213.21 141.825 L2213.21 137.566 L2221.47 135.899 L2226.14 135.899 L2226.14 166.524 L2233.78 166.524 L2233.78 170.459 L2213.88 170.459 L2213.88 166.524 Z" fill="#000000" fill-rule="evenodd" fill-opacity="1" /></svg>
