<?xml version="1.0" encoding="utf-8"?>
<svg xmlns="http://www.w3.org/2000/svg" xmlns:xlink="http://www.w3.org/1999/xlink" width="600" height="400" viewBox="0 0 2400 1600">
<defs>
  <clipPath id="clip490">
    <rect x="0" y="0" width="2400" height="1600"/>
  </clipPath>
</defs>
<path clip-path="url(#clip490)" d="
M0 1600 L2400 1600 L2400 0 L0 0  Z
  " fill="#ffffff" fill-rule="evenodd" fill-opacity="1"/>
<defs>
  <clipPath id="clip491">
    <rect x="480" y="0" width="1681" height="1600"/>
  </clipPath>
</defs>
<path clip-path="url(#clip490)" d="
M264.287 1410.9 L2352.76 1410.9 L2352.76 47.2441 L264.287 47.2441  Z
  " fill="#ffffff" fill-rule="evenodd" fill-opacity="1"/>
<defs>
  <clipPath id="clip492">
    <rect x="264" y="47" width="2089" height="1365"/>
  </clipPath>
</defs>
<polyline clip-path="url(#clip492)" style="stroke:#000000; stroke-linecap:butt; stroke-linejoin:round; stroke-width:2; stroke-opacity:0.1; fill:none" points="
  497.102,1410.9 497.102,47.2441 
  "/>
<polyline clip-path="url(#clip492)" style="stroke:#000000; stroke-linecap:butt; stroke-linejoin:round; stroke-width:2; stroke-opacity:0.1; fill:none" points="
  1618.5,1410.9 1618.5,47.2441 
  "/>
<polyline clip-path="url(#clip490)" style="stroke:#000000; stroke-linecap:butt; stroke-linejoin:round; stroke-width:4; stroke-opacity:1; fill:none" points="
  264.287,1410.9 2352.76,1410.9 
  "/>
<polyline clip-path="url(#clip490)" style="stroke:#000000; stroke-linecap:butt; stroke-linejoin:round; stroke-width:4; stroke-opacity:1; fill:none" points="
  497.102,1410.9 497.102,1392 
  "/>
<polyline clip-path="url(#clip490)" style="stroke:#000000; stroke-linecap:butt; stroke-linejoin:round; stroke-width:4; stroke-opacity:1; fill:none" points="
  1618.5,1410.9 1618.5,1392 
  "/>
<path clip-path="url(#clip490)" d="M462.084 1485.02 L469.723 1485.02 L469.723 1458.66 L461.413 1460.32 L461.413 1456.06 L469.677 1454.4 L474.353 1454.4 L474.353 1485.02 L481.992 1485.02 L481.992 1488.96 L462.084 1488.96 L462.084 1485.02 Z" fill="#000000" fill-rule="evenodd" fill-opacity="1" /><path clip-path="url(#clip490)" d="M501.436 1457.48 Q497.825 1457.48 495.996 1461.04 Q494.191 1464.58 494.191 1471.71 Q494.191 1478.82 495.996 1482.38 Q497.825 1485.92 501.436 1485.92 Q505.07 1485.92 506.876 1482.38 Q508.705 1478.82 508.705 1471.71 Q508.705 1464.58 506.876 1461.04 Q505.07 1457.48 501.436 1457.48 M501.436 1453.77 Q507.246 1453.77 510.302 1458.38 Q513.381 1462.96 513.381 1471.71 Q513.381 1480.44 510.302 1485.04 Q507.246 1489.63 501.436 1489.63 Q495.626 1489.63 492.547 1485.04 Q489.492 1480.44 489.492 1471.71 Q489.492 1462.96 492.547 1458.38 Q495.626 1453.77 501.436 1453.77 Z" fill="#000000" fill-rule="evenodd" fill-opacity="1" /><path clip-path="url(#clip490)" d="M523.085 1435.97 Q520.151 1435.97 518.665 1438.86 Q517.198 1441.74 517.198 1447.53 Q517.198 1453.31 518.665 1456.2 Q520.151 1459.08 523.085 1459.08 Q526.038 1459.08 527.505 1456.2 Q528.991 1453.31 528.991 1447.53 Q528.991 1441.74 527.505 1438.86 Q526.038 1435.97 523.085 1435.97 M523.085 1432.96 Q527.806 1432.96 530.289 1436.7 Q532.79 1440.43 532.79 1447.53 Q532.79 1454.62 530.289 1458.37 Q527.806 1462.09 523.085 1462.09 Q518.365 1462.09 515.863 1458.37 Q513.381 1454.62 513.381 1447.53 Q513.381 1440.43 515.863 1436.7 Q518.365 1432.96 523.085 1432.96 Z" fill="#000000" fill-rule="evenodd" fill-opacity="1" /><path clip-path="url(#clip490)" d="M1584.83 1485.02 L1592.47 1485.02 L1592.47 1458.66 L1584.16 1460.32 L1584.16 1456.06 L1592.42 1454.4 L1597.1 1454.4 L1597.1 1485.02 L1604.73 1485.02 L1604.73 1488.96 L1584.83 1488.96 L1584.83 1485.02 Z" fill="#000000" fill-rule="evenodd" fill-opacity="1" /><path clip-path="url(#clip490)" d="M1624.18 1457.48 Q1620.57 1457.48 1618.74 1461.04 Q1616.93 1464.58 1616.93 1471.71 Q1616.93 1478.82 1618.74 1482.38 Q1620.57 1485.92 1624.18 1485.92 Q1627.81 1485.92 1629.62 1482.38 Q1631.45 1478.82 1631.45 1471.71 Q1631.45 1464.58 1629.62 1461.04 Q1627.81 1457.48 1624.18 1457.48 M1624.18 1453.77 Q1629.99 1453.77 1633.04 1458.38 Q1636.12 1462.96 1636.12 1471.71 Q1636.12 1480.44 1633.04 1485.04 Q1629.99 1489.63 1624.18 1489.63 Q1618.37 1489.63 1615.29 1485.04 Q1612.23 1480.44 1612.23 1471.71 Q1612.23 1462.96 1615.29 1458.38 Q1618.37 1453.77 1624.18 1453.77 Z" fill="#000000" fill-rule="evenodd" fill-opacity="1" /><path clip-path="url(#clip490)" d="M1636.67 1458.35 L1642.88 1458.35 L1642.88 1436.93 L1636.12 1438.28 L1636.12 1434.82 L1642.84 1433.47 L1646.64 1433.47 L1646.64 1458.35 L1652.84 1458.35 L1652.84 1461.55 L1636.67 1461.55 L1636.67 1458.35 Z" fill="#000000" fill-rule="evenodd" fill-opacity="1" /><path clip-path="url(#clip490)" d="M1299 1571.99 L1299 1587.74 L1293.12 1587.74 L1293.12 1538.76 Q1293.12 1524.25 1306.68 1524.25 Q1320.49 1524.25 1320.49 1536.5 Q1320.49 1545.22 1315.01 1548.4 Q1323.93 1551.27 1323.93 1559.77 Q1323.93 1574.85 1308.59 1574.85 Q1301.84 1574.85 1299 1571.99 M1299 1564.35 Q1302.54 1569.86 1308.81 1569.86 Q1317.97 1569.86 1317.97 1559.86 Q1317.97 1550.89 1303.21 1551.59 L1303.21 1546.18 Q1314.76 1546.18 1314.76 1535.99 Q1314.76 1529.02 1307.31 1529.02 Q1299 1529.02 1299 1538.95 L1299 1564.35 Z" fill="#000000" fill-rule="evenodd" fill-opacity="1" /><polyline clip-path="url(#clip492)" style="stroke:#000000; stroke-linecap:butt; stroke-linejoin:round; stroke-width:2; stroke-opacity:0.1; fill:none" points="
  264.287,1374.45 2352.76,1374.45 
  "/>
<polyline clip-path="url(#clip492)" style="stroke:#000000; stroke-linecap:butt; stroke-linejoin:round; stroke-width:2; stroke-opacity:0.1; fill:none" points="
  264.287,1126.03 2352.76,1126.03 
  "/>
<polyline clip-path="url(#clip492)" style="stroke:#000000; stroke-linecap:butt; stroke-linejoin:round; stroke-width:2; stroke-opacity:0.1; fill:none" points="
  264.287,877.618 2352.76,877.618 
  "/>
<polyline clip-path="url(#clip492)" style="stroke:#000000; stroke-linecap:butt; stroke-linejoin:round; stroke-width:2; stroke-opacity:0.1; fill:none" points="
  264.287,629.205 2352.76,629.205 
  "/>
<polyline clip-path="url(#clip492)" style="stroke:#000000; stroke-linecap:butt; stroke-linejoin:round; stroke-width:2; stroke-opacity:0.1; fill:none" points="
  264.287,380.791 2352.76,380.791 
  "/>
<polyline clip-path="url(#clip492)" style="stroke:#000000; stroke-linecap:butt; stroke-linejoin:round; stroke-width:2; stroke-opacity:0.1; fill:none" points="
  264.287,132.378 2352.76,132.378 
  "/>
<polyline clip-path="url(#clip490)" style="stroke:#000000; stroke-linecap:butt; stroke-linejoin:round; stroke-width:4; stroke-opacity:1; fill:none" points="
  264.287,1410.9 264.287,47.2441 
  "/>
<polyline clip-path="url(#clip490)" style="stroke:#000000; stroke-linecap:butt; stroke-linejoin:round; stroke-width:4; stroke-opacity:1; fill:none" points="
  264.287,1374.45 283.185,1374.45 
  "/>
<polyline clip-path="url(#clip490)" style="stroke:#000000; stroke-linecap:butt; stroke-linejoin:round; stroke-width:4; stroke-opacity:1; fill:none" points="
  264.287,1126.03 283.185,1126.03 
  "/>
<polyline clip-path="url(#clip490)" style="stroke:#000000; stroke-linecap:butt; stroke-linejoin:round; stroke-width:4; stroke-opacity:1; fill:none" points="
  264.287,877.618 283.185,877.618 
  "/>
<polyline clip-path="url(#clip490)" style="stroke:#000000; stroke-linecap:butt; stroke-linejoin:round; stroke-width:4; stroke-opacity:1; fill:none" points="
  264.287,629.205 283.185,629.205 
  "/>
<polyline clip-path="url(#clip490)" style="stroke:#000000; stroke-linecap:butt; stroke-linejoin:round; stroke-width:4; stroke-opacity:1; fill:none" points="
  264.287,380.791 283.185,380.791 
  "/>
<polyline clip-path="url(#clip490)" style="stroke:#000000; stroke-linecap:butt; stroke-linejoin:round; stroke-width:4; stroke-opacity:1; fill:none" points="
  264.287,132.378 283.185,132.378 
  "/>
<path clip-path="url(#clip490)" d="M216.343 1360.24 Q212.732 1360.24 210.903 1363.81 Q209.098 1367.35 209.098 1374.48 Q209.098 1381.59 210.903 1385.15 Q212.732 1388.69 216.343 1388.69 Q219.977 1388.69 221.783 1385.15 Q223.611 1381.59 223.611 1374.48 Q223.611 1367.35 221.783 1363.81 Q219.977 1360.24 216.343 1360.24 M216.343 1356.54 Q222.153 1356.54 225.209 1361.15 Q228.287 1365.73 228.287 1374.48 Q228.287 1383.21 225.209 1387.81 Q222.153 1392.4 216.343 1392.4 Q210.533 1392.4 207.454 1387.81 Q204.399 1383.21 204.399 1374.48 Q204.399 1365.73 207.454 1361.15 Q210.533 1356.54 216.343 1356.54 Z" fill="#000000" fill-rule="evenodd" fill-opacity="1" /><path clip-path="url(#clip490)" d="M146.066 1108.75 L164.422 1108.75 L164.422 1112.69 L150.348 1112.69 L150.348 1121.16 Q151.366 1120.81 152.385 1120.65 Q153.403 1120.46 154.422 1120.46 Q160.209 1120.46 163.589 1123.64 Q166.968 1126.81 166.968 1132.22 Q166.968 1137.8 163.496 1140.9 Q160.024 1143.98 153.704 1143.98 Q151.528 1143.98 149.26 1143.61 Q147.015 1143.24 144.607 1142.5 L144.607 1137.8 Q146.691 1138.94 148.913 1139.49 Q151.135 1140.05 153.612 1140.05 Q157.616 1140.05 159.954 1137.94 Q162.292 1135.84 162.292 1132.22 Q162.292 1128.61 159.954 1126.51 Q157.616 1124.4 153.612 1124.4 Q151.737 1124.4 149.862 1124.82 Q148.01 1125.23 146.066 1126.11 L146.066 1108.75 Z" fill="#000000" fill-rule="evenodd" fill-opacity="1" /><path clip-path="url(#clip490)" d="M186.181 1111.83 Q182.57 1111.83 180.741 1115.4 Q178.936 1118.94 178.936 1126.07 Q178.936 1133.17 180.741 1136.74 Q182.57 1140.28 186.181 1140.28 Q189.815 1140.28 191.621 1136.74 Q193.45 1133.17 193.45 1126.07 Q193.45 1118.94 191.621 1115.4 Q189.815 1111.83 186.181 1111.83 M186.181 1108.13 Q191.991 1108.13 195.047 1112.73 Q198.125 1117.32 198.125 1126.07 Q198.125 1134.79 195.047 1139.4 Q191.991 1143.98 186.181 1143.98 Q180.371 1143.98 177.292 1139.4 Q174.237 1134.79 174.237 1126.07 Q174.237 1117.32 177.292 1112.73 Q180.371 1108.13 186.181 1108.13 Z" fill="#000000" fill-rule="evenodd" fill-opacity="1" /><path clip-path="url(#clip490)" d="M216.343 1111.83 Q212.732 1111.83 210.903 1115.4 Q209.098 1118.94 209.098 1126.07 Q209.098 1133.17 210.903 1136.74 Q212.732 1140.28 216.343 1140.28 Q219.977 1140.28 221.783 1136.74 Q223.611 1133.17 223.611 1126.07 Q223.611 1118.94 221.783 1115.4 Q219.977 1111.83 216.343 1111.83 M216.343 1108.13 Q222.153 1108.13 225.209 1112.73 Q228.287 1117.32 228.287 1126.07 Q228.287 1134.79 225.209 1139.4 Q222.153 1143.98 216.343 1143.98 Q210.533 1143.98 207.454 1139.4 Q204.399 1134.79 204.399 1126.07 Q204.399 1117.32 207.454 1112.73 Q210.533 1108.13 216.343 1108.13 Z" fill="#000000" fill-rule="evenodd" fill-opacity="1" /><path clip-path="url(#clip490)" d="M116.668 890.963 L124.306 890.963 L124.306 864.598 L115.996 866.264 L115.996 862.005 L124.26 860.338 L128.936 860.338 L128.936 890.963 L136.575 890.963 L136.575 894.898 L116.668 894.898 L116.668 890.963 Z" fill="#000000" fill-rule="evenodd" fill-opacity="1" /><path clip-path="url(#clip490)" d="M156.019 863.417 Q152.408 863.417 150.579 866.982 Q148.774 870.524 148.774 877.653 Q148.774 884.76 150.579 888.324 Q152.408 891.866 156.019 891.866 Q159.653 891.866 161.459 888.324 Q163.288 884.76 163.288 877.653 Q163.288 870.524 161.459 866.982 Q159.653 863.417 156.019 863.417 M156.019 859.713 Q161.829 859.713 164.885 864.32 Q167.964 868.903 167.964 877.653 Q167.964 886.38 164.885 890.986 Q161.829 895.57 156.019 895.57 Q150.209 895.57 147.13 890.986 Q144.075 886.38 144.075 877.653 Q144.075 868.903 147.13 864.32 Q150.209 859.713 156.019 859.713 Z" fill="#000000" fill-rule="evenodd" fill-opacity="1" /><path clip-path="url(#clip490)" d="M186.181 863.417 Q182.57 863.417 180.741 866.982 Q178.936 870.524 178.936 877.653 Q178.936 884.76 180.741 888.324 Q182.57 891.866 186.181 891.866 Q189.815 891.866 191.621 888.324 Q193.45 884.76 193.45 877.653 Q193.45 870.524 191.621 866.982 Q189.815 863.417 186.181 863.417 M186.181 859.713 Q191.991 859.713 195.047 864.32 Q198.125 868.903 198.125 877.653 Q198.125 886.38 195.047 890.986 Q191.991 895.57 186.181 895.57 Q180.371 895.57 177.292 890.986 Q174.237 886.38 174.237 877.653 Q174.237 868.903 177.292 864.32 Q180.371 859.713 186.181 859.713 Z" fill="#000000" fill-rule="evenodd" fill-opacity="1" /><path clip-path="url(#clip490)" d="M216.343 863.417 Q212.732 863.417 210.903 866.982 Q209.098 870.524 209.098 877.653 Q209.098 884.76 210.903 888.324 Q212.732 891.866 216.343 891.866 Q219.977 891.866 221.783 888.324 Q223.611 884.76 223.611 877.653 Q223.611 870.524 221.783 866.982 Q219.977 863.417 216.343 863.417 M216.343 859.713 Q222.153 859.713 225.209 864.32 Q228.287 868.903 228.287 877.653 Q228.287 886.38 225.209 890.986 Q222.153 895.57 216.343 895.57 Q210.533 895.57 207.454 890.986 Q204.399 886.38 204.399 877.653 Q204.399 868.903 207.454 864.32 Q210.533 859.713 216.343 859.713 Z" fill="#000000" fill-rule="evenodd" fill-opacity="1" /><path clip-path="url(#clip490)" d="M116.668 642.55 L124.306 642.55 L124.306 616.184 L115.996 617.851 L115.996 613.592 L124.26 611.925 L128.936 611.925 L128.936 642.55 L136.575 642.55 L136.575 646.485 L116.668 646.485 L116.668 642.55 Z" fill="#000000" fill-rule="evenodd" fill-opacity="1" /><path clip-path="url(#clip490)" d="M146.066 611.925 L164.422 611.925 L164.422 615.86 L150.348 615.86 L150.348 624.332 Q151.366 623.985 152.385 623.823 Q153.403 623.638 154.422 623.638 Q160.209 623.638 163.589 626.809 Q166.968 629.98 166.968 635.397 Q166.968 640.976 163.496 644.078 Q160.024 647.156 153.704 647.156 Q151.528 647.156 149.26 646.786 Q147.015 646.415 144.607 645.675 L144.607 640.976 Q146.691 642.11 148.913 642.665 Q151.135 643.221 153.612 643.221 Q157.616 643.221 159.954 641.115 Q162.292 639.008 162.292 635.397 Q162.292 631.786 159.954 629.679 Q157.616 627.573 153.612 627.573 Q151.737 627.573 149.862 627.99 Q148.01 628.406 146.066 629.286 L146.066 611.925 Z" fill="#000000" fill-rule="evenodd" fill-opacity="1" /><path clip-path="url(#clip490)" d="M186.181 615.004 Q182.57 615.004 180.741 618.568 Q178.936 622.11 178.936 629.24 Q178.936 636.346 180.741 639.911 Q182.57 643.453 186.181 643.453 Q189.815 643.453 191.621 639.911 Q193.45 636.346 193.45 629.24 Q193.45 622.11 191.621 618.568 Q189.815 615.004 186.181 615.004 M186.181 611.3 Q191.991 611.3 195.047 615.906 Q198.125 620.49 198.125 629.24 Q198.125 637.966 195.047 642.573 Q191.991 647.156 186.181 647.156 Q180.371 647.156 177.292 642.573 Q174.237 637.966 174.237 629.24 Q174.237 620.49 177.292 615.906 Q180.371 611.3 186.181 611.3 Z" fill="#000000" fill-rule="evenodd" fill-opacity="1" /><path clip-path="url(#clip490)" d="M216.343 615.004 Q212.732 615.004 210.903 618.568 Q209.098 622.11 209.098 629.24 Q209.098 636.346 210.903 639.911 Q212.732 643.453 216.343 643.453 Q219.977 643.453 221.783 639.911 Q223.611 636.346 223.611 629.24 Q223.611 622.11 221.783 618.568 Q219.977 615.004 216.343 615.004 M216.343 611.3 Q222.153 611.3 225.209 615.906 Q228.287 620.49 228.287 629.24 Q228.287 637.966 225.209 642.573 Q222.153 647.156 216.343 647.156 Q210.533 647.156 207.454 642.573 Q204.399 637.966 204.399 629.24 Q204.399 620.49 207.454 615.906 Q210.533 611.3 216.343 611.3 Z" fill="#000000" fill-rule="evenodd" fill-opacity="1" /><path clip-path="url(#clip490)" d="M119.885 394.136 L136.204 394.136 L136.204 398.071 L114.26 398.071 L114.26 394.136 Q116.922 391.382 121.505 386.752 Q126.112 382.099 127.292 380.757 Q129.538 378.234 130.417 376.497 Q131.32 374.738 131.32 373.048 Q131.32 370.294 129.376 368.558 Q127.455 366.822 124.353 366.822 Q122.154 366.822 119.7 367.585 Q117.269 368.349 114.492 369.9 L114.492 365.178 Q117.316 364.044 119.769 363.465 Q122.223 362.886 124.26 362.886 Q129.63 362.886 132.825 365.572 Q136.019 368.257 136.019 372.747 Q136.019 374.877 135.209 376.798 Q134.422 378.696 132.316 381.289 Q131.737 381.96 128.635 385.178 Q125.533 388.372 119.885 394.136 Z" fill="#000000" fill-rule="evenodd" fill-opacity="1" /><path clip-path="url(#clip490)" d="M156.019 366.59 Q152.408 366.59 150.579 370.155 Q148.774 373.697 148.774 380.826 Q148.774 387.933 150.579 391.497 Q152.408 395.039 156.019 395.039 Q159.653 395.039 161.459 391.497 Q163.288 387.933 163.288 380.826 Q163.288 373.697 161.459 370.155 Q159.653 366.59 156.019 366.59 M156.019 362.886 Q161.829 362.886 164.885 367.493 Q167.964 372.076 167.964 380.826 Q167.964 389.553 164.885 394.159 Q161.829 398.743 156.019 398.743 Q150.209 398.743 147.13 394.159 Q144.075 389.553 144.075 380.826 Q144.075 372.076 147.13 367.493 Q150.209 362.886 156.019 362.886 Z" fill="#000000" fill-rule="evenodd" fill-opacity="1" /><path clip-path="url(#clip490)" d="M186.181 366.59 Q182.57 366.59 180.741 370.155 Q178.936 373.697 178.936 380.826 Q178.936 387.933 180.741 391.497 Q182.57 395.039 186.181 395.039 Q189.815 395.039 191.621 391.497 Q193.45 387.933 193.45 380.826 Q193.45 373.697 191.621 370.155 Q189.815 366.59 186.181 366.59 M186.181 362.886 Q191.991 362.886 195.047 367.493 Q198.125 372.076 198.125 380.826 Q198.125 389.553 195.047 394.159 Q191.991 398.743 186.181 398.743 Q180.371 398.743 177.292 394.159 Q174.237 389.553 174.237 380.826 Q174.237 372.076 177.292 367.493 Q180.371 362.886 186.181 362.886 Z" fill="#000000" fill-rule="evenodd" fill-opacity="1" /><path clip-path="url(#clip490)" d="M216.343 366.59 Q212.732 366.59 210.903 370.155 Q209.098 373.697 209.098 380.826 Q209.098 387.933 210.903 391.497 Q212.732 395.039 216.343 395.039 Q219.977 395.039 221.783 391.497 Q223.611 387.933 223.611 380.826 Q223.611 373.697 221.783 370.155 Q219.977 366.59 216.343 366.59 M216.343 362.886 Q222.153 362.886 225.209 367.493 Q228.287 372.076 228.287 380.826 Q228.287 389.553 225.209 394.159 Q222.153 398.743 216.343 398.743 Q210.533 398.743 207.454 394.159 Q204.399 389.553 204.399 380.826 Q204.399 372.076 207.454 367.493 Q210.533 362.886 216.343 362.886 Z" fill="#000000" fill-rule="evenodd" fill-opacity="1" /><path clip-path="url(#clip490)" d="M119.885 145.723 L136.204 145.723 L136.204 149.658 L114.26 149.658 L114.26 145.723 Q116.922 142.968 121.505 138.338 Q126.112 133.686 127.292 132.343 Q129.538 129.82 130.417 128.084 Q131.32 126.325 131.32 124.635 Q131.32 121.88 129.376 120.144 Q127.455 118.408 124.353 118.408 Q122.154 118.408 119.7 119.172 Q117.269 119.936 114.492 121.487 L114.492 116.765 Q117.316 115.63 119.769 115.052 Q122.223 114.473 124.26 114.473 Q129.63 114.473 132.825 117.158 Q136.019 119.843 136.019 124.334 Q136.019 126.464 135.209 128.385 Q134.422 130.283 132.316 132.876 Q131.737 133.547 128.635 136.764 Q125.533 139.959 119.885 145.723 Z" fill="#000000" fill-rule="evenodd" fill-opacity="1" /><path clip-path="url(#clip490)" d="M146.066 115.098 L164.422 115.098 L164.422 119.033 L150.348 119.033 L150.348 127.505 Q151.366 127.158 152.385 126.996 Q153.403 126.811 154.422 126.811 Q160.209 126.811 163.589 129.982 Q166.968 133.153 166.968 138.57 Q166.968 144.149 163.496 147.25 Q160.024 150.329 153.704 150.329 Q151.528 150.329 149.26 149.959 Q147.015 149.588 144.607 148.848 L144.607 144.149 Q146.691 145.283 148.913 145.838 Q151.135 146.394 153.612 146.394 Q157.616 146.394 159.954 144.288 Q162.292 142.181 162.292 138.57 Q162.292 134.959 159.954 132.852 Q157.616 130.746 153.612 130.746 Q151.737 130.746 149.862 131.163 Q148.01 131.579 146.066 132.459 L146.066 115.098 Z" fill="#000000" fill-rule="evenodd" fill-opacity="1" /><path clip-path="url(#clip490)" d="M186.181 118.177 Q182.57 118.177 180.741 121.741 Q178.936 125.283 178.936 132.413 Q178.936 139.519 180.741 143.084 Q182.57 146.625 186.181 146.625 Q189.815 146.625 191.621 143.084 Q193.45 139.519 193.45 132.413 Q193.45 125.283 191.621 121.741 Q189.815 118.177 186.181 118.177 M186.181 114.473 Q191.991 114.473 195.047 119.079 Q198.125 123.663 198.125 132.413 Q198.125 141.139 195.047 145.746 Q191.991 150.329 186.181 150.329 Q180.371 150.329 177.292 145.746 Q174.237 141.139 174.237 132.413 Q174.237 123.663 177.292 119.079 Q180.371 114.473 186.181 114.473 Z" fill="#000000" fill-rule="evenodd" fill-opacity="1" /><path clip-path="url(#clip490)" d="M216.343 118.177 Q212.732 118.177 210.903 121.741 Q209.098 125.283 209.098 132.413 Q209.098 139.519 210.903 143.084 Q212.732 146.625 216.343 146.625 Q219.977 146.625 221.783 143.084 Q223.611 139.519 223.611 132.413 Q223.611 125.283 221.783 121.741 Q219.977 118.177 216.343 118.177 M216.343 114.473 Q222.153 114.473 225.209 119.079 Q228.287 123.663 228.287 132.413 Q228.287 141.139 225.209 145.746 Q222.153 150.329 216.343 150.329 Q210.533 150.329 207.454 145.746 Q204.399 141.139 204.399 132.413 Q204.399 123.663 207.454 119.079 Q210.533 114.473 216.343 114.473 Z" fill="#000000" fill-rule="evenodd" fill-opacity="1" /><path clip-path="url(#clip490)" d="M35.1993 829.203 Q31.2526 827.007 29.3747 823.951 Q27.4968 820.896 27.4968 816.758 Q27.4968 811.188 31.4117 808.164 Q35.2948 805.141 42.4881 805.141 L64.0042 805.141 L64.0042 811.029 L42.679 811.029 Q37.5546 811.029 35.072 812.843 Q32.5894 814.657 32.5894 818.381 Q32.5894 822.933 35.6131 825.574 Q38.6368 828.216 43.8567 828.216 L64.0042 828.216 L64.0042 834.105 L42.679 834.105 Q37.5228 834.105 35.072 835.919 Q32.5894 837.733 32.5894 841.521 Q32.5894 846.008 35.6449 848.65 Q38.6686 851.292 43.8567 851.292 L64.0042 851.292 L64.0042 857.18 L28.3562 857.18 L28.3562 851.292 L33.8944 851.292 Q30.616 849.287 29.0564 846.486 Q27.4968 843.685 27.4968 839.834 Q27.4968 835.951 29.4702 833.245 Q31.4436 830.508 35.1993 829.203 Z" fill="#000000" fill-rule="evenodd" fill-opacity="1" /><path clip-path="url(#clip490)" d="M28.3562 793.459 L28.3562 787.603 L64.0042 787.603 L64.0042 793.459 L28.3562 793.459 M14.479 793.459 L14.479 787.603 L21.895 787.603 L21.895 793.459 L14.479 793.459 Z" fill="#000000" fill-rule="evenodd" fill-opacity="1" /><path clip-path="url(#clip490)" d="M42.4881 745.717 L64.0042 745.717 L64.0042 751.573 L42.679 751.573 Q37.6183 751.573 35.1038 753.547 Q32.5894 755.52 32.5894 759.467 Q32.5894 764.209 35.6131 766.946 Q38.6368 769.684 43.8567 769.684 L64.0042 769.684 L64.0042 775.572 L28.3562 775.572 L28.3562 769.684 L33.8944 769.684 Q30.6797 767.583 29.0883 764.75 Q27.4968 761.886 27.4968 758.162 Q27.4968 752.019 31.3163 748.868 Q35.1038 745.717 42.4881 745.717 Z" fill="#000000" fill-rule="evenodd" fill-opacity="1" /><path clip-path="url(#clip490)" d="M74.8259 706.95 L79.3773 706.95 L79.3773 740.815 L74.8259 740.815 L74.8259 706.95 Z" fill="#000000" fill-rule="evenodd" fill-opacity="1" /><path clip-path="url(#clip490)" d="M33.7671 677.986 L14.479 677.986 L14.479 672.129 L64.0042 672.129 L64.0042 677.986 L58.657 677.986 Q61.8398 679.832 63.3994 682.664 Q64.9272 685.465 64.9272 689.412 Q64.9272 695.873 59.771 699.947 Q54.6147 703.989 46.212 703.989 Q37.8093 703.989 32.6531 699.947 Q27.4968 695.873 27.4968 689.412 Q27.4968 685.465 29.0564 682.664 Q30.5842 679.832 33.7671 677.986 M46.212 697.942 Q52.6732 697.942 56.3653 695.3 Q60.0256 692.627 60.0256 687.98 Q60.0256 683.333 56.3653 680.659 Q52.6732 677.986 46.212 677.986 Q39.7508 677.986 36.0905 680.659 Q32.3984 683.333 32.3984 687.98 Q32.3984 692.627 36.0905 695.3 Q39.7508 697.942 46.212 697.942 Z" fill="#000000" fill-rule="evenodd" fill-opacity="1" /><path clip-path="url(#clip490)" d="M28.3562 660.066 L28.3562 654.21 L64.0042 654.21 L64.0042 660.066 L28.3562 660.066 M14.479 660.066 L14.479 654.21 L21.895 654.21 L21.895 660.066 L14.479 660.066 Z" fill="#000000" fill-rule="evenodd" fill-opacity="1" /><path clip-path="url(#clip490)" d="M14.479 623.909 L19.3487 623.909 L19.3487 629.511 Q19.3487 632.662 20.6219 633.903 Q21.895 635.113 25.2052 635.113 L28.3562 635.113 L28.3562 625.468 L32.9077 625.468 L32.9077 635.113 L64.0042 635.113 L64.0042 641.001 L32.9077 641.001 L32.9077 646.603 L28.3562 646.603 L28.3562 641.001 L25.8736 641.001 Q19.9216 641.001 17.2162 638.232 Q14.479 635.463 14.479 629.447 L14.479 623.909 Z" fill="#000000" fill-rule="evenodd" fill-opacity="1" /><path clip-path="url(#clip490)" d="M14.479 600.961 L19.3487 600.961 L19.3487 606.562 Q19.3487 609.713 20.6219 610.955 Q21.895 612.164 25.2052 612.164 L28.3562 612.164 L28.3562 602.52 L32.9077 602.52 L32.9077 612.164 L64.0042 612.164 L64.0042 618.052 L32.9077 618.052 L32.9077 623.654 L28.3562 623.654 L28.3562 618.052 L25.8736 618.052 Q19.9216 618.052 17.2162 615.283 Q14.479 612.514 14.479 606.499 L14.479 600.961 Z" fill="#000000" fill-rule="evenodd" fill-opacity="1" /><polyline clip-path="url(#clip492)" style="stroke:#009af9; stroke-linecap:butt; stroke-linejoin:round; stroke-width:20; stroke-opacity:1; fill:none" stroke-dasharray="80, 50" points="
  323.395,1266.9 388.427,1275.76 445.789,1284.19 497.102,1292.18 543.519,1299.75 585.895,1307.21 624.877,1315.28 660.969,1343.22 694.57,1333.32 726.001,1354.78 
  755.527,1346.99 783.364,1362.78 809.695,1356.55 834.676,1367.53 858.438,1372.05 881.094,1370.22 923.47,1372.3 962.452,1370.89 980.832,1372.14 998.544,1372.16 
  1032.14,1372.17 1063.58,1370.52 1078.56,1371.42 1093.1,1370.31 1107.22,1361.79 1120.94,1370.39 1147.27,1369.61 1159.92,1368.08 1172.25,1368.97 1196.01,1364.65 
  1218.67,1353.93 1229.61,1360.05 1261.04,1354.29 1271.09,1299.87 1280.93,1326.22 1290.57,1347.38 1300.03,1333.33 1318.41,1339.37 1327.34,1309.09 1336.12,1320.32 
  1344.74,1330.25 1369.72,1320.08 1393.48,1245.49 1401.15,1289.14 1408.7,1267.44 1416.14,1244.3 1430.68,1271.06 1444.79,1243.07 1458.51,1251.39 1478.39,1216.46 
  1484.84,1230.16 1491.21,1195.7 1497.49,1179.47 1509.82,1207.42 1515.87,1169.5 1533.59,1173.04 1539.35,1156.77 1556.24,1151.76 1567.19,1135.72 1572.57,1151.89 
  1593.52,1088.94 1598.62,1125.89 1608.66,1132.16 1613.6,1104.33 1618.5,1088.83 1628.14,1016.76 1637.6,1101.85 1642.26,1113.76 1655.98,1075.26 1664.92,1053.86 
  1673.69,1096.61 1682.31,929.496 1694.96,1048.37 1703.22,1080.59 1707.29,1058.8 1711.33,1000.74 1731.05,1065.63 1738.72,1039.52 1746.28,991.902 1753.71,965.375 
  1757.39,1051.63 1764.66,1000.43 1768.25,1021.57 1782.37,1038.51 1792.69,932.879 1796.09,1004.84 1815.97,939.164 1822.42,989.213 1825.61,959.204 1828.78,902.982 
  1835.07,872.162 1847.4,974.599 1853.45,940.731 1862.39,875.429 1871.16,839.676 1874.05,810.544 1876.92,894.01 1879.78,923.511 1893.82,849.985 1904.76,907.43 
  1910.14,775.757 1923.34,826.439 1931.09,855.054 1936.19,782.227 1943.74,743.81 1946.23,710.493 1951.18,804.601 1956.07,837.541 1965.72,756.89 1975.18,714.4 
  1977.51,784.303 1979.84,676.554 1993.56,733.437 2002.49,765.397 2004.7,687.256 2011.27,645.355 2013.44,608.274 2019.89,711.666 2032.54,662.14 2040.79,616.597 
  2044.87,691.409 2058.87,638.846 2068.63,590.019 2074.39,545.036 2076.3,504.608 2083.85,617.19 2094.96,565.393 2102.23,517.05 2105.82,472.799 2119.94,542.52 
  2128.56,491.145 2133.66,443.463 2135.35,400.087 2153.54,467.104 2159.99,416.33 2163.19,369.454 2184.97,391.17 2189.52,341.145 2191.02,295.198 2214.5,314.914 
  2217.36,265.765 2242.34,238.51 2243.69,190.339 2268.67,162.108 2293.65,85.838 
  "/>
<path clip-path="url(#clip490)" d="
M1998.66 196.379 L2283.14 196.379 L2283.14 92.6992 L1998.66 92.6992  Z
  " fill="#ffffff" fill-rule="evenodd" fill-opacity="1"/>
<polyline clip-path="url(#clip490)" style="stroke:#000000; stroke-linecap:butt; stroke-linejoin:round; stroke-width:4; stroke-opacity:1; fill:none" points="
  1998.66,196.379 2283.14,196.379 2283.14,92.6992 1998.66,92.6992 1998.66,196.379 
  "/>
<polyline clip-path="url(#clip490)" style="stroke:#009af9; stroke-linecap:butt; stroke-linejoin:round; stroke-width:4; stroke-opacity:1; fill:none" stroke-dasharray="16, 10" points="
  2021.86,144.539 2161.09,144.539 
  "/>
<path clip-path="url(#clip490)" d="M2198.14 164.227 Q2196.34 168.856 2194.62 170.268 Q2192.91 171.68 2190.04 171.68 L2186.64 171.68 L2186.64 168.115 L2189.14 168.115 Q2190.9 168.115 2191.87 167.282 Q2192.84 166.449 2194.02 163.347 L2194.79 161.403 L2184.3 135.893 L2188.81 135.893 L2196.92 156.171 L2205.02 135.893 L2209.53 135.893 L2198.14 164.227 Z" fill="#000000" fill-rule="evenodd" fill-opacity="1" /><path clip-path="url(#clip490)" d="M2216.82 157.884 L2224.46 157.884 L2224.46 131.518 L2216.15 133.185 L2216.15 128.926 L2224.42 127.259 L2229.09 127.259 L2229.09 157.884 L2236.73 157.884 L2236.73 161.819 L2216.82 161.819 L2216.82 157.884 Z" fill="#000000" fill-rule="evenodd" fill-opacity="1" /></svg>
