<?xml version="1.0" encoding="utf-8"?>
<svg xmlns="http://www.w3.org/2000/svg" xmlns:xlink="http://www.w3.org/1999/xlink" width="600" height="400" viewBox="0 0 2400 1600">
<defs>
  <clipPath id="clip280">
    <rect x="0" y="0" width="2400" height="1600"/>
  </clipPath>
</defs>
<path clip-path="url(#clip280)" d="
M0 1600 L2400 1600 L2400 0 L0 0  Z
  " fill="#ffffff" fill-rule="evenodd" fill-opacity="1"/>
<defs>
  <clipPath id="clip281">
    <rect x="480" y="0" width="1681" height="1600"/>
  </clipPath>
</defs>
<path clip-path="url(#clip280)" d="
M235.283 1410.9 L2352.76 1410.9 L2352.76 47.2441 L235.283 47.2441  Z
  " fill="#ffffff" fill-rule="evenodd" fill-opacity="1"/>
<defs>
  <clipPath id="clip282">
    <rect x="235" y="47" width="2118" height="1365"/>
  </clipPath>
</defs>
<polyline clip-path="url(#clip282)" style="stroke:#000000; stroke-linecap:butt; stroke-linejoin:round; stroke-width:2; stroke-opacity:0.1; fill:none" points="
  757.416,1410.9 757.416,47.2441 
  "/>
<polyline clip-path="url(#clip282)" style="stroke:#000000; stroke-linecap:butt; stroke-linejoin:round; stroke-width:2; stroke-opacity:0.1; fill:none" points="
  1525.12,1410.9 1525.12,47.2441 
  "/>
<polyline clip-path="url(#clip282)" style="stroke:#000000; stroke-linecap:butt; stroke-linejoin:round; stroke-width:2; stroke-opacity:0.1; fill:none" points="
  2292.83,1410.9 2292.83,47.2441 
  "/>
<polyline clip-path="url(#clip280)" style="stroke:#000000; stroke-linecap:butt; stroke-linejoin:round; stroke-width:4; stroke-opacity:1; fill:none" points="
  235.283,1410.9 2352.76,1410.9 
  "/>
<polyline clip-path="url(#clip280)" style="stroke:#000000; stroke-linecap:butt; stroke-linejoin:round; stroke-width:4; stroke-opacity:1; fill:none" points="
  757.416,1410.9 757.416,1392 
  "/>
<polyline clip-path="url(#clip280)" style="stroke:#000000; stroke-linecap:butt; stroke-linejoin:round; stroke-width:4; stroke-opacity:1; fill:none" points="
  1525.12,1410.9 1525.12,1392 
  "/>
<polyline clip-path="url(#clip280)" style="stroke:#000000; stroke-linecap:butt; stroke-linejoin:round; stroke-width:4; stroke-opacity:1; fill:none" points="
  2292.83,1410.9 2292.83,1392 
  "/>
<path clip-path="url(#clip280)" d="M704.024 1485.02 L711.663 1485.02 L711.663 1458.66 L703.353 1460.32 L703.353 1456.06 L711.616 1454.4 L716.292 1454.4 L716.292 1485.02 L723.931 1485.02 L723.931 1488.96 L704.024 1488.96 L704.024 1485.02 Z" fill="#000000" fill-rule="evenodd" fill-opacity="1" /><path clip-path="url(#clip280)" d="M743.375 1457.48 Q739.764 1457.48 737.936 1461.04 Q736.13 1464.58 736.13 1471.71 Q736.13 1478.82 737.936 1482.38 Q739.764 1485.92 743.375 1485.92 Q747.01 1485.92 748.815 1482.38 Q750.644 1478.82 750.644 1471.71 Q750.644 1464.58 748.815 1461.04 Q747.01 1457.48 743.375 1457.48 M743.375 1453.77 Q749.186 1453.77 752.241 1458.38 Q755.32 1462.96 755.32 1471.71 Q755.32 1480.44 752.241 1485.04 Q749.186 1489.63 743.375 1489.63 Q737.565 1489.63 734.487 1485.04 Q731.431 1480.44 731.431 1471.71 Q731.431 1462.96 734.487 1458.38 Q737.565 1453.77 743.375 1453.77 Z" fill="#000000" fill-rule="evenodd" fill-opacity="1" /><path clip-path="url(#clip280)" d="M765.025 1435.97 Q762.091 1435.97 760.605 1438.86 Q759.138 1441.74 759.138 1447.53 Q759.138 1453.31 760.605 1456.2 Q762.091 1459.08 765.025 1459.08 Q767.977 1459.08 769.444 1456.2 Q770.93 1453.31 770.93 1447.53 Q770.93 1441.74 769.444 1438.86 Q767.977 1435.97 765.025 1435.97 M765.025 1432.96 Q769.745 1432.96 772.228 1436.7 Q774.729 1440.43 774.729 1447.53 Q774.729 1454.62 772.228 1458.37 Q769.745 1462.09 765.025 1462.09 Q760.304 1462.09 757.802 1458.37 Q755.32 1454.62 755.32 1447.53 Q755.32 1440.43 757.802 1436.7 Q760.304 1432.96 765.025 1432.96 Z" fill="#000000" fill-rule="evenodd" fill-opacity="1" /><path clip-path="url(#clip280)" d="M781.406 1456.77 L785.375 1456.77 L785.375 1461.55 L781.406 1461.55 L781.406 1456.77 Z" fill="#000000" fill-rule="evenodd" fill-opacity="1" /><path clip-path="url(#clip280)" d="M801.775 1435.97 Q798.841 1435.97 797.355 1438.86 Q795.888 1441.74 795.888 1447.53 Q795.888 1453.31 797.355 1456.2 Q798.841 1459.08 801.775 1459.08 Q804.728 1459.08 806.195 1456.2 Q807.681 1453.31 807.681 1447.53 Q807.681 1441.74 806.195 1438.86 Q804.728 1435.97 801.775 1435.97 M801.775 1432.96 Q806.496 1432.96 808.978 1436.7 Q811.48 1440.43 811.48 1447.53 Q811.48 1454.62 808.978 1458.37 Q806.496 1462.09 801.775 1462.09 Q797.054 1462.09 794.553 1458.37 Q792.07 1454.62 792.07 1447.53 Q792.07 1440.43 794.553 1436.7 Q797.054 1432.96 801.775 1432.96 Z" fill="#000000" fill-rule="evenodd" fill-opacity="1" /><path clip-path="url(#clip280)" d="M1472.13 1485.02 L1479.77 1485.02 L1479.77 1458.66 L1471.46 1460.32 L1471.46 1456.06 L1479.73 1454.4 L1484.4 1454.4 L1484.4 1485.02 L1492.04 1485.02 L1492.04 1488.96 L1472.13 1488.96 L1472.13 1485.02 Z" fill="#000000" fill-rule="evenodd" fill-opacity="1" /><path clip-path="url(#clip280)" d="M1511.49 1457.48 Q1507.87 1457.48 1506.05 1461.04 Q1504.24 1464.58 1504.24 1471.71 Q1504.24 1478.82 1506.05 1482.38 Q1507.87 1485.92 1511.49 1485.92 Q1515.12 1485.92 1516.93 1482.38 Q1518.75 1478.82 1518.75 1471.71 Q1518.75 1464.58 1516.93 1461.04 Q1515.12 1457.48 1511.49 1457.48 M1511.49 1453.77 Q1517.3 1453.77 1520.35 1458.38 Q1523.43 1462.96 1523.43 1471.71 Q1523.43 1480.44 1520.35 1485.04 Q1517.3 1489.63 1511.49 1489.63 Q1505.68 1489.63 1502.6 1485.04 Q1499.54 1480.44 1499.54 1471.71 Q1499.54 1462.96 1502.6 1458.38 Q1505.68 1453.77 1511.49 1453.77 Z" fill="#000000" fill-rule="evenodd" fill-opacity="1" /><path clip-path="url(#clip280)" d="M1533.13 1435.97 Q1530.2 1435.97 1528.71 1438.86 Q1527.25 1441.74 1527.25 1447.53 Q1527.25 1453.31 1528.71 1456.2 Q1530.2 1459.08 1533.13 1459.08 Q1536.09 1459.08 1537.55 1456.2 Q1539.04 1453.31 1539.04 1447.53 Q1539.04 1441.74 1537.55 1438.86 Q1536.09 1435.97 1533.13 1435.97 M1533.13 1432.96 Q1537.86 1432.96 1540.34 1436.7 Q1542.84 1440.43 1542.84 1447.53 Q1542.84 1454.62 1540.34 1458.37 Q1537.86 1462.09 1533.13 1462.09 Q1528.41 1462.09 1525.91 1458.37 Q1523.43 1454.62 1523.43 1447.53 Q1523.43 1440.43 1525.91 1436.7 Q1528.41 1432.96 1533.13 1432.96 Z" fill="#000000" fill-rule="evenodd" fill-opacity="1" /><path clip-path="url(#clip280)" d="M1549.52 1456.77 L1553.48 1456.77 L1553.48 1461.55 L1549.52 1461.55 L1549.52 1456.77 Z" fill="#000000" fill-rule="evenodd" fill-opacity="1" /><path clip-path="url(#clip280)" d="M1561.8 1433.47 L1576.71 1433.47 L1576.71 1436.66 L1565.28 1436.66 L1565.28 1443.55 Q1566.1 1443.27 1566.93 1443.13 Q1567.76 1442.98 1568.59 1442.98 Q1573.29 1442.98 1576.04 1445.56 Q1578.78 1448.14 1578.78 1452.54 Q1578.78 1457.07 1575.96 1459.59 Q1573.14 1462.09 1568 1462.09 Q1566.24 1462.09 1564.39 1461.79 Q1562.57 1461.49 1560.61 1460.89 L1560.61 1457.07 Q1562.31 1457.99 1564.11 1458.44 Q1565.92 1458.89 1567.93 1458.89 Q1571.18 1458.89 1573.08 1457.18 Q1574.98 1455.47 1574.98 1452.54 Q1574.98 1449.6 1573.08 1447.89 Q1571.18 1446.18 1567.93 1446.18 Q1566.41 1446.18 1564.88 1446.52 Q1563.38 1446.86 1561.8 1447.57 L1561.8 1433.47 Z" fill="#000000" fill-rule="evenodd" fill-opacity="1" /><path clip-path="url(#clip280)" d="M2240.28 1485.02 L2247.92 1485.02 L2247.92 1458.66 L2239.61 1460.32 L2239.61 1456.06 L2247.87 1454.4 L2252.55 1454.4 L2252.55 1485.02 L2260.19 1485.02 L2260.19 1488.96 L2240.28 1488.96 L2240.28 1485.02 Z" fill="#000000" fill-rule="evenodd" fill-opacity="1" /><path clip-path="url(#clip280)" d="M2279.63 1457.48 Q2276.02 1457.48 2274.19 1461.04 Q2272.39 1464.58 2272.39 1471.71 Q2272.39 1478.82 2274.19 1482.38 Q2276.02 1485.92 2279.63 1485.92 Q2283.27 1485.92 2285.07 1482.38 Q2286.9 1478.82 2286.9 1471.71 Q2286.9 1464.58 2285.07 1461.04 Q2283.27 1457.48 2279.63 1457.48 M2279.63 1453.77 Q2285.44 1453.77 2288.5 1458.38 Q2291.58 1462.96 2291.58 1471.71 Q2291.58 1480.44 2288.5 1485.04 Q2285.44 1489.63 2279.63 1489.63 Q2273.82 1489.63 2270.74 1485.04 Q2267.69 1480.44 2267.69 1471.71 Q2267.69 1462.96 2270.74 1458.38 Q2273.82 1453.77 2279.63 1453.77 Z" fill="#000000" fill-rule="evenodd" fill-opacity="1" /><path clip-path="url(#clip280)" d="M2292.12 1458.35 L2298.33 1458.35 L2298.33 1436.93 L2291.58 1438.28 L2291.58 1434.82 L2298.29 1433.47 L2302.09 1433.47 L2302.09 1458.35 L2308.3 1458.35 L2308.3 1461.55 L2292.12 1461.55 L2292.12 1458.35 Z" fill="#000000" fill-rule="evenodd" fill-opacity="1" /><path clip-path="url(#clip280)" d="M2315.97 1456.77 L2319.94 1456.77 L2319.94 1461.55 L2315.97 1461.55 L2315.97 1456.77 Z" fill="#000000" fill-rule="evenodd" fill-opacity="1" /><path clip-path="url(#clip280)" d="M2336.34 1435.97 Q2333.41 1435.97 2331.92 1438.86 Q2330.45 1441.74 2330.45 1447.53 Q2330.45 1453.31 2331.92 1456.2 Q2333.41 1459.08 2336.34 1459.08 Q2339.29 1459.08 2340.76 1456.2 Q2342.25 1453.31 2342.25 1447.53 Q2342.25 1441.74 2340.76 1438.86 Q2339.29 1435.97 2336.34 1435.97 M2336.34 1432.96 Q2341.06 1432.96 2343.54 1436.7 Q2346.04 1440.43 2346.04 1447.53 Q2346.04 1454.62 2343.54 1458.37 Q2341.06 1462.09 2336.34 1462.09 Q2331.62 1462.09 2329.12 1458.37 Q2326.64 1454.62 2326.64 1447.53 Q2326.64 1440.43 2329.12 1436.7 Q2331.62 1432.96 2336.34 1432.96 Z" fill="#000000" fill-rule="evenodd" fill-opacity="1" /><path clip-path="url(#clip280)" d="M1299.22 1557.6 L1297.82 1550.25 Q1296.39 1542.71 1290.73 1542.71 Q1286.46 1542.71 1284.52 1546.21 Q1282.07 1550.6 1282.07 1556.39 Q1282.07 1563.4 1284.45 1566.74 Q1286.87 1570.14 1290.73 1570.14 Q1294.99 1570.14 1297.28 1563.36 L1299.22 1557.6 M1302.5 1547.86 L1305.65 1538.54 L1310.87 1538.54 L1304.35 1557.86 L1305.62 1564.83 Q1305.91 1566.39 1307.02 1567.69 Q1308.33 1569.22 1309.34 1569.22 L1312.15 1569.22 L1312.15 1574.19 L1308.64 1574.19 Q1305.65 1574.19 1302.98 1571.51 Q1301.67 1570.18 1301.13 1567.37 Q1299.67 1570.91 1296.68 1573.68 Q1295.28 1574.98 1290.73 1574.98 Q1283.25 1574.98 1279.62 1570.14 Q1275.89 1565.15 1275.89 1556.39 Q1275.89 1547.04 1279.94 1542.64 Q1284.42 1537.74 1290.73 1537.74 Q1300.62 1537.74 1302.5 1547.86 Z" fill="#000000" fill-rule="evenodd" fill-opacity="1" /><polyline clip-path="url(#clip282)" style="stroke:#000000; stroke-linecap:butt; stroke-linejoin:round; stroke-width:2; stroke-opacity:0.1; fill:none" points="
  235.283,1377.59 2352.76,1377.59 
  "/>
<polyline clip-path="url(#clip282)" style="stroke:#000000; stroke-linecap:butt; stroke-linejoin:round; stroke-width:2; stroke-opacity:0.1; fill:none" points="
  235.283,1071.7 2352.76,1071.7 
  "/>
<polyline clip-path="url(#clip282)" style="stroke:#000000; stroke-linecap:butt; stroke-linejoin:round; stroke-width:2; stroke-opacity:0.1; fill:none" points="
  235.283,765.806 2352.76,765.806 
  "/>
<polyline clip-path="url(#clip282)" style="stroke:#000000; stroke-linecap:butt; stroke-linejoin:round; stroke-width:2; stroke-opacity:0.1; fill:none" points="
  235.283,459.917 2352.76,459.917 
  "/>
<polyline clip-path="url(#clip282)" style="stroke:#000000; stroke-linecap:butt; stroke-linejoin:round; stroke-width:2; stroke-opacity:0.1; fill:none" points="
  235.283,154.027 2352.76,154.027 
  "/>
<polyline clip-path="url(#clip280)" style="stroke:#000000; stroke-linecap:butt; stroke-linejoin:round; stroke-width:4; stroke-opacity:1; fill:none" points="
  235.283,1410.9 235.283,47.2441 
  "/>
<polyline clip-path="url(#clip280)" style="stroke:#000000; stroke-linecap:butt; stroke-linejoin:round; stroke-width:4; stroke-opacity:1; fill:none" points="
  235.283,1377.59 254.18,1377.59 
  "/>
<polyline clip-path="url(#clip280)" style="stroke:#000000; stroke-linecap:butt; stroke-linejoin:round; stroke-width:4; stroke-opacity:1; fill:none" points="
  235.283,1071.7 254.18,1071.7 
  "/>
<polyline clip-path="url(#clip280)" style="stroke:#000000; stroke-linecap:butt; stroke-linejoin:round; stroke-width:4; stroke-opacity:1; fill:none" points="
  235.283,765.806 254.18,765.806 
  "/>
<polyline clip-path="url(#clip280)" style="stroke:#000000; stroke-linecap:butt; stroke-linejoin:round; stroke-width:4; stroke-opacity:1; fill:none" points="
  235.283,459.917 254.18,459.917 
  "/>
<polyline clip-path="url(#clip280)" style="stroke:#000000; stroke-linecap:butt; stroke-linejoin:round; stroke-width:4; stroke-opacity:1; fill:none" points="
  235.283,154.027 254.18,154.027 
  "/>
<path clip-path="url(#clip280)" d="M187.338 1363.38 Q183.727 1363.38 181.899 1366.95 Q180.093 1370.49 180.093 1377.62 Q180.093 1384.73 181.899 1388.29 Q183.727 1391.83 187.338 1391.83 Q190.973 1391.83 192.778 1388.29 Q194.607 1384.73 194.607 1377.62 Q194.607 1370.49 192.778 1366.95 Q190.973 1363.38 187.338 1363.38 M187.338 1359.68 Q193.149 1359.68 196.204 1364.29 Q199.283 1368.87 199.283 1377.62 Q199.283 1386.35 196.204 1390.95 Q193.149 1395.54 187.338 1395.54 Q181.528 1395.54 178.45 1390.95 Q175.394 1386.35 175.394 1377.62 Q175.394 1368.87 178.45 1364.29 Q181.528 1359.68 187.338 1359.68 Z" fill="#000000" fill-rule="evenodd" fill-opacity="1" /><path clip-path="url(#clip280)" d="M121.043 1085.04 L137.362 1085.04 L137.362 1088.98 L115.418 1088.98 L115.418 1085.04 Q118.08 1082.29 122.663 1077.66 Q127.269 1073 128.45 1071.66 Q130.695 1069.14 131.575 1067.4 Q132.478 1065.64 132.478 1063.95 Q132.478 1061.2 130.533 1059.46 Q128.612 1057.73 125.51 1057.73 Q123.311 1057.73 120.857 1058.49 Q118.427 1059.25 115.649 1060.8 L115.649 1056.08 Q118.473 1054.95 120.927 1054.37 Q123.38 1053.79 125.418 1053.79 Q130.788 1053.79 133.982 1056.48 Q137.177 1059.16 137.177 1063.65 Q137.177 1065.78 136.367 1067.7 Q135.579 1069.6 133.473 1072.19 Q132.894 1072.86 129.792 1076.08 Q126.691 1079.28 121.043 1085.04 Z" fill="#000000" fill-rule="evenodd" fill-opacity="1" /><path clip-path="url(#clip280)" d="M157.177 1057.49 Q153.566 1057.49 151.737 1061.06 Q149.931 1064.6 149.931 1071.73 Q149.931 1078.84 151.737 1082.4 Q153.566 1085.94 157.177 1085.94 Q160.811 1085.94 162.616 1082.4 Q164.445 1078.84 164.445 1071.73 Q164.445 1064.6 162.616 1061.06 Q160.811 1057.49 157.177 1057.49 M157.177 1053.79 Q162.987 1053.79 166.042 1058.4 Q169.121 1062.98 169.121 1071.73 Q169.121 1080.46 166.042 1085.06 Q162.987 1089.65 157.177 1089.65 Q151.366 1089.65 148.288 1085.06 Q145.232 1080.46 145.232 1071.73 Q145.232 1062.98 148.288 1058.4 Q151.366 1053.79 157.177 1053.79 Z" fill="#000000" fill-rule="evenodd" fill-opacity="1" /><path clip-path="url(#clip280)" d="M187.338 1057.49 Q183.727 1057.49 181.899 1061.06 Q180.093 1064.6 180.093 1071.73 Q180.093 1078.84 181.899 1082.4 Q183.727 1085.94 187.338 1085.94 Q190.973 1085.94 192.778 1082.4 Q194.607 1078.84 194.607 1071.73 Q194.607 1064.6 192.778 1061.06 Q190.973 1057.49 187.338 1057.49 M187.338 1053.79 Q193.149 1053.79 196.204 1058.4 Q199.283 1062.98 199.283 1071.73 Q199.283 1080.46 196.204 1085.06 Q193.149 1089.65 187.338 1089.65 Q181.528 1089.65 178.45 1085.06 Q175.394 1080.46 175.394 1071.73 Q175.394 1062.98 178.45 1058.4 Q181.528 1053.79 187.338 1053.79 Z" fill="#000000" fill-rule="evenodd" fill-opacity="1" /><path clip-path="url(#clip280)" d="M129.862 752.6 L118.056 771.049 L129.862 771.049 L129.862 752.6 M128.635 748.526 L134.515 748.526 L134.515 771.049 L139.445 771.049 L139.445 774.938 L134.515 774.938 L134.515 783.086 L129.862 783.086 L129.862 774.938 L114.26 774.938 L114.26 770.424 L128.635 748.526 Z" fill="#000000" fill-rule="evenodd" fill-opacity="1" /><path clip-path="url(#clip280)" d="M157.177 751.605 Q153.566 751.605 151.737 755.17 Q149.931 758.711 149.931 765.841 Q149.931 772.947 151.737 776.512 Q153.566 780.054 157.177 780.054 Q160.811 780.054 162.616 776.512 Q164.445 772.947 164.445 765.841 Q164.445 758.711 162.616 755.17 Q160.811 751.605 157.177 751.605 M157.177 747.901 Q162.987 747.901 166.042 752.508 Q169.121 757.091 169.121 765.841 Q169.121 774.568 166.042 779.174 Q162.987 783.758 157.177 783.758 Q151.366 783.758 148.288 779.174 Q145.232 774.568 145.232 765.841 Q145.232 757.091 148.288 752.508 Q151.366 747.901 157.177 747.901 Z" fill="#000000" fill-rule="evenodd" fill-opacity="1" /><path clip-path="url(#clip280)" d="M187.338 751.605 Q183.727 751.605 181.899 755.17 Q180.093 758.711 180.093 765.841 Q180.093 772.947 181.899 776.512 Q183.727 780.054 187.338 780.054 Q190.973 780.054 192.778 776.512 Q194.607 772.947 194.607 765.841 Q194.607 758.711 192.778 755.17 Q190.973 751.605 187.338 751.605 M187.338 747.901 Q193.149 747.901 196.204 752.508 Q199.283 757.091 199.283 765.841 Q199.283 774.568 196.204 779.174 Q193.149 783.758 187.338 783.758 Q181.528 783.758 178.45 779.174 Q175.394 774.568 175.394 765.841 Q175.394 757.091 178.45 752.508 Q181.528 747.901 187.338 747.901 Z" fill="#000000" fill-rule="evenodd" fill-opacity="1" /><path clip-path="url(#clip280)" d="M127.593 458.053 Q124.445 458.053 122.593 460.206 Q120.765 462.359 120.765 466.109 Q120.765 469.836 122.593 472.011 Q124.445 474.164 127.593 474.164 Q130.742 474.164 132.57 472.011 Q134.422 469.836 134.422 466.109 Q134.422 462.359 132.57 460.206 Q130.742 458.053 127.593 458.053 M136.876 443.401 L136.876 447.66 Q135.117 446.826 133.311 446.387 Q131.529 445.947 129.769 445.947 Q125.14 445.947 122.686 449.072 Q120.255 452.197 119.908 458.516 Q121.274 456.502 123.334 455.438 Q125.394 454.35 127.871 454.35 Q133.08 454.35 136.089 457.521 Q139.121 460.669 139.121 466.109 Q139.121 471.433 135.973 474.65 Q132.825 477.868 127.593 477.868 Q121.598 477.868 118.427 473.285 Q115.256 468.678 115.256 459.951 Q115.256 451.757 119.144 446.896 Q123.033 442.012 129.584 442.012 Q131.343 442.012 133.126 442.359 Q134.931 442.706 136.876 443.401 Z" fill="#000000" fill-rule="evenodd" fill-opacity="1" /><path clip-path="url(#clip280)" d="M157.177 445.715 Q153.566 445.715 151.737 449.28 Q149.931 452.822 149.931 459.951 Q149.931 467.058 151.737 470.623 Q153.566 474.164 157.177 474.164 Q160.811 474.164 162.616 470.623 Q164.445 467.058 164.445 459.951 Q164.445 452.822 162.616 449.28 Q160.811 445.715 157.177 445.715 M157.177 442.012 Q162.987 442.012 166.042 446.618 Q169.121 451.201 169.121 459.951 Q169.121 468.678 166.042 473.285 Q162.987 477.868 157.177 477.868 Q151.366 477.868 148.288 473.285 Q145.232 468.678 145.232 459.951 Q145.232 451.201 148.288 446.618 Q151.366 442.012 157.177 442.012 Z" fill="#000000" fill-rule="evenodd" fill-opacity="1" /><path clip-path="url(#clip280)" d="M187.338 445.715 Q183.727 445.715 181.899 449.28 Q180.093 452.822 180.093 459.951 Q180.093 467.058 181.899 470.623 Q183.727 474.164 187.338 474.164 Q190.973 474.164 192.778 470.623 Q194.607 467.058 194.607 459.951 Q194.607 452.822 192.778 449.28 Q190.973 445.715 187.338 445.715 M187.338 442.012 Q193.149 442.012 196.204 446.618 Q199.283 451.201 199.283 459.951 Q199.283 468.678 196.204 473.285 Q193.149 477.868 187.338 477.868 Q181.528 477.868 178.45 473.285 Q175.394 468.678 175.394 459.951 Q175.394 451.201 178.45 446.618 Q181.528 442.012 187.338 442.012 Z" fill="#000000" fill-rule="evenodd" fill-opacity="1" /><path clip-path="url(#clip280)" d="M127.015 154.895 Q123.681 154.895 121.76 156.677 Q119.862 158.46 119.862 161.585 Q119.862 164.71 121.76 166.492 Q123.681 168.275 127.015 168.275 Q130.348 168.275 132.269 166.492 Q134.191 164.687 134.191 161.585 Q134.191 158.46 132.269 156.677 Q130.371 154.895 127.015 154.895 M122.339 152.904 Q119.33 152.164 117.64 150.103 Q115.973 148.043 115.973 145.08 Q115.973 140.937 118.913 138.529 Q121.876 136.122 127.015 136.122 Q132.177 136.122 135.117 138.529 Q138.056 140.937 138.056 145.08 Q138.056 148.043 136.367 150.103 Q134.7 152.164 131.714 152.904 Q135.093 153.691 136.968 155.983 Q138.867 158.275 138.867 161.585 Q138.867 166.608 135.788 169.293 Q132.732 171.978 127.015 171.978 Q121.297 171.978 118.218 169.293 Q115.163 166.608 115.163 161.585 Q115.163 158.275 117.061 155.983 Q118.959 153.691 122.339 152.904 M120.626 145.52 Q120.626 148.205 122.293 149.71 Q123.982 151.215 127.015 151.215 Q130.024 151.215 131.714 149.71 Q133.427 148.205 133.427 145.52 Q133.427 142.835 131.714 141.33 Q130.024 139.826 127.015 139.826 Q123.982 139.826 122.293 141.33 Q120.626 142.835 120.626 145.52 Z" fill="#000000" fill-rule="evenodd" fill-opacity="1" /><path clip-path="url(#clip280)" d="M157.177 139.826 Q153.566 139.826 151.737 143.391 Q149.931 146.932 149.931 154.062 Q149.931 161.168 151.737 164.733 Q153.566 168.275 157.177 168.275 Q160.811 168.275 162.616 164.733 Q164.445 161.168 164.445 154.062 Q164.445 146.932 162.616 143.391 Q160.811 139.826 157.177 139.826 M157.177 136.122 Q162.987 136.122 166.042 140.728 Q169.121 145.312 169.121 154.062 Q169.121 162.789 166.042 167.395 Q162.987 171.978 157.177 171.978 Q151.366 171.978 148.288 167.395 Q145.232 162.789 145.232 154.062 Q145.232 145.312 148.288 140.728 Q151.366 136.122 157.177 136.122 Z" fill="#000000" fill-rule="evenodd" fill-opacity="1" /><path clip-path="url(#clip280)" d="M187.338 139.826 Q183.727 139.826 181.899 143.391 Q180.093 146.932 180.093 154.062 Q180.093 161.168 181.899 164.733 Q183.727 168.275 187.338 168.275 Q190.973 168.275 192.778 164.733 Q194.607 161.168 194.607 154.062 Q194.607 146.932 192.778 143.391 Q190.973 139.826 187.338 139.826 M187.338 136.122 Q193.149 136.122 196.204 140.728 Q199.283 145.312 199.283 154.062 Q199.283 162.789 196.204 167.395 Q193.149 171.978 187.338 171.978 Q181.528 171.978 178.45 167.395 Q175.394 162.789 175.394 154.062 Q175.394 145.312 178.45 140.728 Q181.528 136.122 187.338 136.122 Z" fill="#000000" fill-rule="evenodd" fill-opacity="1" /><path clip-path="url(#clip280)" d="M35.1993 829.203 Q31.2526 827.007 29.3747 823.951 Q27.4968 820.896 27.4968 816.758 Q27.4968 811.188 31.4117 808.164 Q35.2948 805.141 42.4881 805.141 L64.0042 805.141 L64.0042 811.029 L42.679 811.029 Q37.5546 811.029 35.072 812.843 Q32.5894 814.657 32.5894 818.381 Q32.5894 822.933 35.6131 825.574 Q38.6368 828.216 43.8567 828.216 L64.0042 828.216 L64.0042 834.105 L42.679 834.105 Q37.5228 834.105 35.072 835.919 Q32.5894 837.733 32.5894 841.521 Q32.5894 846.008 35.6449 848.65 Q38.6686 851.292 43.8567 851.292 L64.0042 851.292 L64.0042 857.18 L28.3562 857.18 L28.3562 851.292 L33.8944 851.292 Q30.616 849.287 29.0564 846.486 Q27.4968 843.685 27.4968 839.834 Q27.4968 835.951 29.4702 833.245 Q31.4436 830.508 35.1993 829.203 Z" fill="#000000" fill-rule="evenodd" fill-opacity="1" /><path clip-path="url(#clip280)" d="M28.3562 793.459 L28.3562 787.603 L64.0042 787.603 L64.0042 793.459 L28.3562 793.459 M14.479 793.459 L14.479 787.603 L21.895 787.603 L21.895 793.459 L14.479 793.459 Z" fill="#000000" fill-rule="evenodd" fill-opacity="1" /><path clip-path="url(#clip280)" d="M42.4881 745.717 L64.0042 745.717 L64.0042 751.573 L42.679 751.573 Q37.6183 751.573 35.1038 753.547 Q32.5894 755.52 32.5894 759.467 Q32.5894 764.209 35.6131 766.946 Q38.6368 769.684 43.8567 769.684 L64.0042 769.684 L64.0042 775.572 L28.3562 775.572 L28.3562 769.684 L33.8944 769.684 Q30.6797 767.583 29.0883 764.75 Q27.4968 761.886 27.4968 758.162 Q27.4968 752.019 31.3163 748.868 Q35.1038 745.717 42.4881 745.717 Z" fill="#000000" fill-rule="evenodd" fill-opacity="1" /><path clip-path="url(#clip280)" d="M74.8259 706.95 L79.3773 706.95 L79.3773 740.815 L74.8259 740.815 L74.8259 706.95 Z" fill="#000000" fill-rule="evenodd" fill-opacity="1" /><path clip-path="url(#clip280)" d="M33.7671 677.986 L14.479 677.986 L14.479 672.129 L64.0042 672.129 L64.0042 677.986 L58.657 677.986 Q61.8398 679.832 63.3994 682.664 Q64.9272 685.465 64.9272 689.412 Q64.9272 695.873 59.771 699.947 Q54.6147 703.989 46.212 703.989 Q37.8093 703.989 32.6531 699.947 Q27.4968 695.873 27.4968 689.412 Q27.4968 685.465 29.0564 682.664 Q30.5842 679.832 33.7671 677.986 M46.212 697.942 Q52.6732 697.942 56.3653 695.3 Q60.0256 692.627 60.0256 687.98 Q60.0256 683.333 56.3653 680.659 Q52.6732 677.986 46.212 677.986 Q39.7508 677.986 36.0905 680.659 Q32.3984 683.333 32.3984 687.98 Q32.3984 692.627 36.0905 695.3 Q39.7508 697.942 46.212 697.942 Z" fill="#000000" fill-rule="evenodd" fill-opacity="1" /><path clip-path="url(#clip280)" d="M28.3562 660.066 L28.3562 654.21 L64.0042 654.21 L64.0042 660.066 L28.3562 660.066 M14.479 660.066 L14.479 654.21 L21.895 654.21 L21.895 660.066 L14.479 660.066 Z" fill="#000000" fill-rule="evenodd" fill-opacity="1" /><path clip-path="url(#clip280)" d="M14.479 623.909 L19.3487 623.909 L19.3487 629.511 Q19.3487 632.662 20.6219 633.903 Q21.895 635.113 25.2052 635.113 L28.3562 635.113 L28.3562 625.468 L32.9077 625.468 L32.9077 635.113 L64.0042 635.113 L64.0042 641.001 L32.9077 641.001 L32.9077 646.603 L28.3562 646.603 L28.3562 641.001 L25.8736 641.001 Q19.9216 641.001 17.2162 638.232 Q14.479 635.463 14.479 629.447 L14.479 623.909 Z" fill="#000000" fill-rule="evenodd" fill-opacity="1" /><path clip-path="url(#clip280)" d="M14.479 600.961 L19.3487 600.961 L19.3487 606.562 Q19.3487 609.713 20.6219 610.955 Q21.895 612.164 25.2052 612.164 L28.3562 612.164 L28.3562 602.52 L32.9077 602.52 L32.9077 612.164 L64.0042 612.164 L64.0042 618.052 L32.9077 618.052 L32.9077 623.654 L28.3562 623.654 L28.3562 618.052 L25.8736 618.052 Q19.9216 618.052 17.2162 615.283 Q14.479 612.514 14.479 606.499 L14.479 600.961 Z" fill="#000000" fill-rule="evenodd" fill-opacity="1" /><polyline clip-path="url(#clip282)" style="stroke:#009af9; stroke-linecap:butt; stroke-linejoin:round; stroke-width:20; stroke-opacity:1; fill:none" stroke-dasharray="80, 50" points="
  295.211,1320.01 757.416,1369.01 1027.79,1372.3 1219.62,1361.19 1368.42,1291.43 1489.99,1198.45 1592.78,1097.69 1681.83,994.618 1760.37,893.321 1830.62,795.887 
  1894.18,703.305 1952.2,615.949 2005.57,533.848 2054.99,456.844 2101,384.683 2144.03,317.063 2184.46,253.673 2222.57,194.2 2258.62,138.348 2292.83,85.838 
  
  "/>
<path clip-path="url(#clip280)" d="
M1994.47 196.379 L2282.17 196.379 L2282.17 92.6992 L1994.47 92.6992  Z
  " fill="#ffffff" fill-rule="evenodd" fill-opacity="1"/>
<polyline clip-path="url(#clip280)" style="stroke:#000000; stroke-linecap:butt; stroke-linejoin:round; stroke-width:4; stroke-opacity:1; fill:none" points="
  1994.47,196.379 2282.17,196.379 2282.17,92.6992 1994.47,92.6992 1994.47,196.379 
  "/>
<polyline clip-path="url(#clip280)" style="stroke:#009af9; stroke-linecap:butt; stroke-linejoin:round; stroke-width:4; stroke-opacity:1; fill:none" stroke-dasharray="16, 10" points="
  2018,144.539 2159.16,144.539 
  "/>
<path clip-path="url(#clip280)" d="M2196.53 164.227 Q2194.73 168.856 2193.01 170.268 Q2191.3 171.68 2188.43 171.68 L2185.03 171.68 L2185.03 168.115 L2187.53 168.115 Q2189.29 168.115 2190.26 167.282 Q2191.23 166.449 2192.41 163.347 L2193.17 161.403 L2182.69 135.893 L2187.2 135.893 L2195.3 156.171 L2203.41 135.893 L2207.92 135.893 L2196.53 164.227 Z" fill="#000000" fill-rule="evenodd" fill-opacity="1" /><path clip-path="url(#clip280)" d="M2215.21 157.884 L2222.85 157.884 L2222.85 131.518 L2214.54 133.185 L2214.54 128.926 L2222.8 127.259 L2227.48 127.259 L2227.48 157.884 L2235.12 157.884 L2235.12 161.819 L2215.21 161.819 L2215.21 157.884 Z" fill="#000000" fill-rule="evenodd" fill-opacity="1" /></svg>
