<?xml version="1.0" encoding="utf-8"?>
<svg xmlns="http://www.w3.org/2000/svg" xmlns:xlink="http://www.w3.org/1999/xlink" width="600" height="400" viewBox="0 0 2400 1600">
<defs>
  <clipPath id="clip670">
    <rect x="0" y="0" width="2400" height="1600"/>
  </clipPath>
</defs>
<path clip-path="url(#clip670)" d="
M0 1600 L2400 1600 L2400 0 L0 0  Z
  " fill="#ffffff" fill-rule="evenodd" fill-opacity="1"/>
<defs>
  <clipPath id="clip671">
    <rect x="480" y="0" width="1681" height="1600"/>
  </clipPath>
</defs>
<path clip-path="url(#clip670)" d="
M226.232 1410.9 L2352.76 1410.9 L2352.76 47.2441 L226.232 47.2441  Z
  " fill="#ffffff" fill-rule="evenodd" fill-opacity="1"/>
<defs>
  <clipPath id="clip672">
    <rect x="226" y="47" width="2128" height="1365"/>
  </clipPath>
</defs>
<polyline clip-path="url(#clip672)" style="stroke:#000000; stroke-width:2; stroke-opacity:0.1; fill:none" points="
  289.849,1410.9 289.849,47.2441 
  "/>
<polyline clip-path="url(#clip672)" style="stroke:#000000; stroke-width:2; stroke-opacity:0.1; fill:none" points="
  623.064,1410.9 623.064,47.2441 
  "/>
<polyline clip-path="url(#clip672)" style="stroke:#000000; stroke-width:2; stroke-opacity:0.1; fill:none" points="
  956.279,1410.9 956.279,47.2441 
  "/>
<polyline clip-path="url(#clip672)" style="stroke:#000000; stroke-width:2; stroke-opacity:0.1; fill:none" points="
  1289.49,1410.9 1289.49,47.2441 
  "/>
<polyline clip-path="url(#clip672)" style="stroke:#000000; stroke-width:2; stroke-opacity:0.1; fill:none" points="
  1622.71,1410.9 1622.71,47.2441 
  "/>
<polyline clip-path="url(#clip672)" style="stroke:#000000; stroke-width:2; stroke-opacity:0.1; fill:none" points="
  1955.92,1410.9 1955.92,47.2441 
  "/>
<polyline clip-path="url(#clip672)" style="stroke:#000000; stroke-width:2; stroke-opacity:0.1; fill:none" points="
  2289.14,1410.9 2289.14,47.2441 
  "/>
<polyline clip-path="url(#clip670)" style="stroke:#000000; stroke-width:4; stroke-opacity:1; fill:none" points="
  226.232,1410.9 2352.76,1410.9 
  "/>
<polyline clip-path="url(#clip670)" style="stroke:#000000; stroke-width:4; stroke-opacity:1; fill:none" points="
  289.849,1410.9 289.849,1394.53 
  "/>
<polyline clip-path="url(#clip670)" style="stroke:#000000; stroke-width:4; stroke-opacity:1; fill:none" points="
  623.064,1410.9 623.064,1394.53 
  "/>
<polyline clip-path="url(#clip670)" style="stroke:#000000; stroke-width:4; stroke-opacity:1; fill:none" points="
  956.279,1410.9 956.279,1394.53 
  "/>
<polyline clip-path="url(#clip670)" style="stroke:#000000; stroke-width:4; stroke-opacity:1; fill:none" points="
  1289.49,1410.9 1289.49,1394.53 
  "/>
<polyline clip-path="url(#clip670)" style="stroke:#000000; stroke-width:4; stroke-opacity:1; fill:none" points="
  1622.71,1410.9 1622.71,1394.53 
  "/>
<polyline clip-path="url(#clip670)" style="stroke:#000000; stroke-width:4; stroke-opacity:1; fill:none" points="
  1955.92,1410.9 1955.92,1394.53 
  "/>
<polyline clip-path="url(#clip670)" style="stroke:#000000; stroke-width:4; stroke-opacity:1; fill:none" points="
  2289.14,1410.9 2289.14,1394.53 
  "/>
<path clip-path="url(#clip670)" d="M 0 0 M228.939 1489.17 L236.578 1489.17 L236.578 1462.8 L228.268 1464.47 L228.268 1460.21 L236.532 1458.54 L241.207 1458.54 L241.207 1489.17 L248.846 1489.17 L248.846 1493.1 L228.939 1493.1 L228.939 1489.17 Z" fill="#000000" fill-rule="evenodd" fill-opacity="1" /><path clip-path="url(#clip670)" d="M 0 0 M263.916 1461.62 Q260.305 1461.62 258.476 1465.19 Q256.67 1468.73 256.67 1475.86 Q256.67 1482.97 258.476 1486.53 Q260.305 1490.07 263.916 1490.07 Q267.55 1490.07 269.355 1486.53 Q271.184 1482.97 271.184 1475.86 Q271.184 1468.73 269.355 1465.19 Q267.55 1461.62 263.916 1461.62 M263.916 1457.92 Q269.726 1457.92 272.781 1462.53 Q275.86 1467.11 275.86 1475.86 Q275.86 1484.59 272.781 1489.19 Q269.726 1493.78 263.916 1493.78 Q258.106 1493.78 255.027 1489.19 Q251.971 1484.59 251.971 1475.86 Q251.971 1467.11 255.027 1462.53 Q258.106 1457.92 263.916 1457.92 Z" fill="#000000" fill-rule="evenodd" fill-opacity="1" /><path clip-path="url(#clip670)" d="M 0 0 M275.86 1452.02 L299.972 1452.02 L299.972 1455.22 L275.86 1455.22 L275.86 1452.02 Z" fill="#000000" fill-rule="evenodd" fill-opacity="1" /><path clip-path="url(#clip670)" d="M 0 0 M312.215 1440.11 Q309.281 1440.11 307.796 1443.01 Q306.329 1445.89 306.329 1451.68 Q306.329 1457.46 307.796 1460.35 Q309.281 1463.23 312.215 1463.23 Q315.168 1463.23 316.635 1460.35 Q318.121 1457.46 318.121 1451.68 Q318.121 1445.89 316.635 1443.01 Q315.168 1440.11 312.215 1440.11 M312.215 1437.11 Q316.936 1437.11 319.419 1440.85 Q321.92 1444.57 321.92 1451.68 Q321.92 1458.77 319.419 1462.51 Q316.936 1466.24 312.215 1466.24 Q307.495 1466.24 304.993 1462.51 Q302.511 1458.77 302.511 1451.68 Q302.511 1444.57 304.993 1440.85 Q307.495 1437.11 312.215 1437.11 Z" fill="#000000" fill-rule="evenodd" fill-opacity="1" /><path clip-path="url(#clip670)" d="M 0 0 M326.039 1460.92 L330.008 1460.92 L330.008 1465.69 L326.039 1465.69 L326.039 1460.92 Z" fill="#000000" fill-rule="evenodd" fill-opacity="1" /><path clip-path="url(#clip670)" d="M 0 0 M345.637 1450.55 Q348.364 1451.14 349.887 1452.98 Q351.43 1454.82 351.43 1457.53 Q351.43 1461.69 348.571 1463.96 Q345.712 1466.24 340.446 1466.24 Q338.678 1466.24 336.797 1465.88 Q334.935 1465.54 332.942 1464.85 L332.942 1461.18 Q334.522 1462.1 336.402 1462.57 Q338.283 1463.04 340.333 1463.04 Q343.907 1463.04 345.769 1461.63 Q347.649 1460.22 347.649 1457.53 Q347.649 1455.05 345.9 1453.66 Q344.17 1452.25 341.067 1452.25 L337.794 1452.25 L337.794 1449.12 L341.217 1449.12 Q344.019 1449.12 345.505 1448.01 Q346.991 1446.89 346.991 1444.78 Q346.991 1442.62 345.449 1441.47 Q343.925 1440.3 341.067 1440.3 Q339.506 1440.3 337.719 1440.64 Q335.932 1440.98 333.788 1441.69 L333.788 1438.31 Q335.951 1437.71 337.832 1437.41 Q339.731 1437.11 341.405 1437.11 Q345.731 1437.11 348.251 1439.08 Q350.771 1441.04 350.771 1444.38 Q350.771 1446.72 349.436 1448.33 Q348.101 1449.93 345.637 1450.55 Z" fill="#000000" fill-rule="evenodd" fill-opacity="1" /><path clip-path="url(#clip670)" d="M 0 0 M562.54 1489.17 L570.179 1489.17 L570.179 1462.8 L561.868 1464.47 L561.868 1460.21 L570.132 1458.54 L574.808 1458.54 L574.808 1489.17 L582.447 1489.17 L582.447 1493.1 L562.54 1493.1 L562.54 1489.17 Z" fill="#000000" fill-rule="evenodd" fill-opacity="1" /><path clip-path="url(#clip670)" d="M 0 0 M597.516 1461.62 Q593.905 1461.62 592.077 1465.19 Q590.271 1468.73 590.271 1475.86 Q590.271 1482.97 592.077 1486.53 Q593.905 1490.07 597.516 1490.07 Q601.151 1490.07 602.956 1486.53 Q604.785 1482.97 604.785 1475.86 Q604.785 1468.73 602.956 1465.19 Q601.151 1461.62 597.516 1461.62 M597.516 1457.92 Q603.326 1457.92 606.382 1462.53 Q609.461 1467.11 609.461 1475.86 Q609.461 1484.59 606.382 1489.19 Q603.326 1493.78 597.516 1493.78 Q591.706 1493.78 588.627 1489.19 Q585.572 1484.59 585.572 1475.86 Q585.572 1467.11 588.627 1462.53 Q591.706 1457.92 597.516 1457.92 Z" fill="#000000" fill-rule="evenodd" fill-opacity="1" /><path clip-path="url(#clip670)" d="M 0 0 M609.461 1452.02 L633.572 1452.02 L633.572 1455.22 L609.461 1455.22 L609.461 1452.02 Z" fill="#000000" fill-rule="evenodd" fill-opacity="1" /><path clip-path="url(#clip670)" d="M 0 0 M645.816 1440.11 Q642.882 1440.11 641.396 1443.01 Q639.929 1445.89 639.929 1451.68 Q639.929 1457.46 641.396 1460.35 Q642.882 1463.23 645.816 1463.23 Q648.769 1463.23 650.236 1460.35 Q651.722 1457.46 651.722 1451.68 Q651.722 1445.89 650.236 1443.01 Q648.769 1440.11 645.816 1440.11 M645.816 1437.11 Q650.537 1437.11 653.02 1440.85 Q655.521 1444.57 655.521 1451.68 Q655.521 1458.77 653.02 1462.51 Q650.537 1466.24 645.816 1466.24 Q641.095 1466.24 638.594 1462.51 Q636.111 1458.77 636.111 1451.68 Q636.111 1444.57 638.594 1440.85 Q641.095 1437.11 645.816 1437.11 Z" fill="#000000" fill-rule="evenodd" fill-opacity="1" /><path clip-path="url(#clip670)" d="M 0 0 M659.64 1460.92 L663.608 1460.92 L663.608 1465.69 L659.64 1465.69 L659.64 1460.92 Z" fill="#000000" fill-rule="evenodd" fill-opacity="1" /><path clip-path="url(#clip670)" d="M 0 0 M671 1462.5 L684.259 1462.5 L684.259 1465.69 L666.429 1465.69 L666.429 1462.5 Q668.592 1460.26 672.316 1456.5 Q676.059 1452.72 677.018 1451.63 Q678.843 1449.58 679.557 1448.16 Q680.291 1446.74 680.291 1445.36 Q680.291 1443.12 678.711 1441.71 Q677.15 1440.3 674.63 1440.3 Q672.843 1440.3 670.849 1440.92 Q668.874 1441.54 666.618 1442.8 L666.618 1438.97 Q668.912 1438.05 670.906 1437.58 Q672.899 1437.11 674.554 1437.11 Q678.918 1437.11 681.513 1439.29 Q684.109 1441.47 684.109 1445.12 Q684.109 1446.85 683.45 1448.41 Q682.811 1449.95 681.1 1452.06 Q680.629 1452.6 678.109 1455.22 Q675.589 1457.81 671 1462.5 Z" fill="#000000" fill-rule="evenodd" fill-opacity="1" /><path clip-path="url(#clip670)" d="M 0 0 M895.604 1489.17 L903.243 1489.17 L903.243 1462.8 L894.933 1464.47 L894.933 1460.21 L903.197 1458.54 L907.873 1458.54 L907.873 1489.17 L915.512 1489.17 L915.512 1493.1 L895.604 1493.1 L895.604 1489.17 Z" fill="#000000" fill-rule="evenodd" fill-opacity="1" /><path clip-path="url(#clip670)" d="M 0 0 M930.581 1461.62 Q926.97 1461.62 925.141 1465.19 Q923.336 1468.73 923.336 1475.86 Q923.336 1482.97 925.141 1486.53 Q926.97 1490.07 930.581 1490.07 Q934.215 1490.07 936.021 1486.53 Q937.849 1482.97 937.849 1475.86 Q937.849 1468.73 936.021 1465.19 Q934.215 1461.62 930.581 1461.62 M930.581 1457.92 Q936.391 1457.92 939.447 1462.53 Q942.525 1467.11 942.525 1475.86 Q942.525 1484.59 939.447 1489.19 Q936.391 1493.78 930.581 1493.78 Q924.771 1493.78 921.692 1489.19 Q918.637 1484.59 918.637 1475.86 Q918.637 1467.11 921.692 1462.53 Q924.771 1457.92 930.581 1457.92 Z" fill="#000000" fill-rule="evenodd" fill-opacity="1" /><path clip-path="url(#clip670)" d="M 0 0 M942.525 1452.02 L966.637 1452.02 L966.637 1455.22 L942.525 1455.22 L942.525 1452.02 Z" fill="#000000" fill-rule="evenodd" fill-opacity="1" /><path clip-path="url(#clip670)" d="M 0 0 M978.881 1440.11 Q975.947 1440.11 974.461 1443.01 Q972.994 1445.89 972.994 1451.68 Q972.994 1457.46 974.461 1460.35 Q975.947 1463.23 978.881 1463.23 Q981.834 1463.23 983.301 1460.35 Q984.786 1457.46 984.786 1451.68 Q984.786 1445.89 983.301 1443.01 Q981.834 1440.11 978.881 1440.11 M978.881 1437.11 Q983.601 1437.11 986.084 1440.85 Q988.586 1444.57 988.586 1451.68 Q988.586 1458.77 986.084 1462.51 Q983.601 1466.24 978.881 1466.24 Q974.16 1466.24 971.659 1462.51 Q969.176 1458.77 969.176 1451.68 Q969.176 1444.57 971.659 1440.85 Q974.16 1437.11 978.881 1437.11 Z" fill="#000000" fill-rule="evenodd" fill-opacity="1" /><path clip-path="url(#clip670)" d="M 0 0 M992.704 1460.92 L996.673 1460.92 L996.673 1465.69 L992.704 1465.69 L992.704 1460.92 Z" fill="#000000" fill-rule="evenodd" fill-opacity="1" /><path clip-path="url(#clip670)" d="M 0 0 M1001.45 1462.5 L1007.66 1462.5 L1007.66 1441.07 L1000.9 1442.43 L1000.9 1438.97 L1007.62 1437.61 L1011.42 1437.61 L1011.42 1462.5 L1017.62 1462.5 L1017.62 1465.69 L1001.45 1465.69 L1001.45 1462.5 Z" fill="#000000" fill-rule="evenodd" fill-opacity="1" /><path clip-path="url(#clip670)" d="M 0 0 M1241.65 1489.17 L1249.29 1489.17 L1249.29 1462.8 L1240.97 1464.47 L1240.97 1460.21 L1249.24 1458.54 L1253.91 1458.54 L1253.91 1489.17 L1261.55 1489.17 L1261.55 1493.1 L1241.65 1493.1 L1241.65 1489.17 Z" fill="#000000" fill-rule="evenodd" fill-opacity="1" /><path clip-path="url(#clip670)" d="M 0 0 M1276.62 1461.62 Q1273.01 1461.62 1271.18 1465.19 Q1269.38 1468.73 1269.38 1475.86 Q1269.38 1482.97 1271.18 1486.53 Q1273.01 1490.07 1276.62 1490.07 Q1280.26 1490.07 1282.06 1486.53 Q1283.89 1482.97 1283.89 1475.86 Q1283.89 1468.73 1282.06 1465.19 Q1280.26 1461.62 1276.62 1461.62 M1276.62 1457.92 Q1282.43 1457.92 1285.49 1462.53 Q1288.57 1467.11 1288.57 1475.86 Q1288.57 1484.59 1285.49 1489.19 Q1282.43 1493.78 1276.62 1493.78 Q1270.81 1493.78 1267.73 1489.19 Q1264.68 1484.59 1264.68 1475.86 Q1264.68 1467.11 1267.73 1462.53 Q1270.81 1457.92 1276.62 1457.92 Z" fill="#000000" fill-rule="evenodd" fill-opacity="1" /><path clip-path="url(#clip670)" d="M 0 0 M1298.27 1440.11 Q1295.34 1440.11 1293.85 1443.01 Q1292.39 1445.89 1292.39 1451.68 Q1292.39 1457.46 1293.85 1460.35 Q1295.34 1463.23 1298.27 1463.23 Q1301.22 1463.23 1302.69 1460.35 Q1304.18 1457.46 1304.18 1451.68 Q1304.18 1445.89 1302.69 1443.01 Q1301.22 1440.11 1298.27 1440.11 M1298.27 1437.11 Q1302.99 1437.11 1305.48 1440.85 Q1307.98 1444.57 1307.98 1451.68 Q1307.98 1458.77 1305.48 1462.51 Q1302.99 1466.24 1298.27 1466.24 Q1293.55 1466.24 1291.05 1462.51 Q1288.57 1458.77 1288.57 1451.68 Q1288.57 1444.57 1291.05 1440.85 Q1293.55 1437.11 1298.27 1437.11 Z" fill="#000000" fill-rule="evenodd" fill-opacity="1" /><path clip-path="url(#clip670)" d="M 0 0 M1312.1 1460.92 L1316.06 1460.92 L1316.06 1465.69 L1312.1 1465.69 L1312.1 1460.92 Z" fill="#000000" fill-rule="evenodd" fill-opacity="1" /><path clip-path="url(#clip670)" d="M 0 0 M1328.31 1440.11 Q1325.37 1440.11 1323.89 1443.01 Q1322.42 1445.89 1322.42 1451.68 Q1322.42 1457.46 1323.89 1460.35 Q1325.37 1463.23 1328.31 1463.23 Q1331.26 1463.23 1332.73 1460.35 Q1334.21 1457.46 1334.21 1451.68 Q1334.21 1445.89 1332.73 1443.01 Q1331.26 1440.11 1328.31 1440.11 M1328.31 1437.11 Q1333.03 1437.11 1335.51 1440.85 Q1338.01 1444.57 1338.01 1451.68 Q1338.01 1458.77 1335.51 1462.51 Q1333.03 1466.24 1328.31 1466.24 Q1323.59 1466.24 1321.09 1462.51 Q1318.6 1458.77 1318.6 1451.68 Q1318.6 1444.57 1321.09 1440.85 Q1323.59 1437.11 1328.31 1437.11 Z" fill="#000000" fill-rule="evenodd" fill-opacity="1" /><path clip-path="url(#clip670)" d="M 0 0 M1575.36 1489.17 L1583 1489.17 L1583 1462.8 L1574.69 1464.47 L1574.69 1460.21 L1582.95 1458.54 L1587.63 1458.54 L1587.63 1489.17 L1595.27 1489.17 L1595.27 1493.1 L1575.36 1493.1 L1575.36 1489.17 Z" fill="#000000" fill-rule="evenodd" fill-opacity="1" /><path clip-path="url(#clip670)" d="M 0 0 M1610.34 1461.62 Q1606.73 1461.62 1604.9 1465.19 Q1603.09 1468.73 1603.09 1475.86 Q1603.09 1482.97 1604.9 1486.53 Q1606.73 1490.07 1610.34 1490.07 Q1613.97 1490.07 1615.78 1486.53 Q1617.6 1482.97 1617.6 1475.86 Q1617.6 1468.73 1615.78 1465.19 Q1613.97 1461.62 1610.34 1461.62 M1610.34 1457.92 Q1616.15 1457.92 1619.2 1462.53 Q1622.28 1467.11 1622.28 1475.86 Q1622.28 1484.59 1619.2 1489.19 Q1616.15 1493.78 1610.34 1493.78 Q1604.53 1493.78 1601.45 1489.19 Q1598.39 1484.59 1598.39 1475.86 Q1598.39 1467.11 1601.45 1462.53 Q1604.53 1457.92 1610.34 1457.92 Z" fill="#000000" fill-rule="evenodd" fill-opacity="1" /><path clip-path="url(#clip670)" d="M 0 0 M1631.99 1440.11 Q1629.05 1440.11 1627.57 1443.01 Q1626.1 1445.89 1626.1 1451.68 Q1626.1 1457.46 1627.57 1460.35 Q1629.05 1463.23 1631.99 1463.23 Q1634.94 1463.23 1636.41 1460.35 Q1637.89 1457.46 1637.89 1451.68 Q1637.89 1445.89 1636.41 1443.01 Q1634.94 1440.11 1631.99 1440.11 M1631.99 1437.11 Q1636.71 1437.11 1639.19 1440.85 Q1641.69 1444.57 1641.69 1451.68 Q1641.69 1458.77 1639.19 1462.51 Q1636.71 1466.24 1631.99 1466.24 Q1627.26 1466.24 1624.76 1462.51 Q1622.28 1458.77 1622.28 1451.68 Q1622.28 1444.57 1624.76 1440.85 Q1627.26 1437.11 1631.99 1437.11 Z" fill="#000000" fill-rule="evenodd" fill-opacity="1" /><path clip-path="url(#clip670)" d="M 0 0 M1645.81 1460.92 L1649.78 1460.92 L1649.78 1465.69 L1645.81 1465.69 L1645.81 1460.92 Z" fill="#000000" fill-rule="evenodd" fill-opacity="1" /><path clip-path="url(#clip670)" d="M 0 0 M1654.55 1462.5 L1660.76 1462.5 L1660.76 1441.07 L1654.01 1442.43 L1654.01 1438.97 L1660.72 1437.61 L1664.52 1437.61 L1664.52 1462.5 L1670.73 1462.5 L1670.73 1465.69 L1654.55 1465.69 L1654.55 1462.5 Z" fill="#000000" fill-rule="evenodd" fill-opacity="1" /><path clip-path="url(#clip670)" d="M 0 0 M1908.73 1489.17 L1916.36 1489.17 L1916.36 1462.8 L1908.05 1464.47 L1908.05 1460.21 L1916.32 1458.54 L1920.99 1458.54 L1920.99 1489.17 L1928.63 1489.17 L1928.63 1493.1 L1908.73 1493.1 L1908.73 1489.17 Z" fill="#000000" fill-rule="evenodd" fill-opacity="1" /><path clip-path="url(#clip670)" d="M 0 0 M1943.7 1461.62 Q1940.09 1461.62 1938.26 1465.19 Q1936.46 1468.73 1936.46 1475.86 Q1936.46 1482.97 1938.26 1486.53 Q1940.09 1490.07 1943.7 1490.07 Q1947.34 1490.07 1949.14 1486.53 Q1950.97 1482.97 1950.97 1475.86 Q1950.97 1468.73 1949.14 1465.19 Q1947.34 1461.62 1943.7 1461.62 M1943.7 1457.92 Q1949.51 1457.92 1952.57 1462.53 Q1955.65 1467.11 1955.65 1475.86 Q1955.65 1484.59 1952.57 1489.19 Q1949.51 1493.78 1943.7 1493.78 Q1937.89 1493.78 1934.81 1489.19 Q1931.76 1484.59 1931.76 1475.86 Q1931.76 1467.11 1934.81 1462.53 Q1937.89 1457.92 1943.7 1457.92 Z" fill="#000000" fill-rule="evenodd" fill-opacity="1" /><path clip-path="url(#clip670)" d="M 0 0 M1965.35 1440.11 Q1962.42 1440.11 1960.93 1443.01 Q1959.46 1445.89 1959.46 1451.68 Q1959.46 1457.46 1960.93 1460.35 Q1962.42 1463.23 1965.35 1463.23 Q1968.3 1463.23 1969.77 1460.35 Q1971.26 1457.46 1971.26 1451.68 Q1971.26 1445.89 1969.77 1443.01 Q1968.3 1440.11 1965.35 1440.11 M1965.35 1437.11 Q1970.07 1437.11 1972.55 1440.85 Q1975.06 1444.57 1975.06 1451.68 Q1975.06 1458.77 1972.55 1462.51 Q1970.07 1466.24 1965.35 1466.24 Q1960.63 1466.24 1958.13 1462.51 Q1955.65 1458.77 1955.65 1451.68 Q1955.65 1444.57 1958.13 1440.85 Q1960.63 1437.11 1965.35 1437.11 Z" fill="#000000" fill-rule="evenodd" fill-opacity="1" /><path clip-path="url(#clip670)" d="M 0 0 M1979.17 1460.92 L1983.14 1460.92 L1983.14 1465.69 L1979.17 1465.69 L1979.17 1460.92 Z" fill="#000000" fill-rule="evenodd" fill-opacity="1" /><path clip-path="url(#clip670)" d="M 0 0 M1990.53 1462.5 L2003.79 1462.5 L2003.79 1465.69 L1985.96 1465.69 L1985.96 1462.5 Q1988.13 1460.26 1991.85 1456.5 Q1995.59 1452.72 1996.55 1451.63 Q1998.38 1449.58 1999.09 1448.16 Q1999.83 1446.74 1999.83 1445.36 Q1999.83 1443.12 1998.25 1441.71 Q1996.68 1440.3 1994.16 1440.3 Q1992.38 1440.3 1990.38 1440.92 Q1988.41 1441.54 1986.15 1442.8 L1986.15 1438.97 Q1988.45 1438.05 1990.44 1437.58 Q1992.43 1437.11 1994.09 1437.11 Q1998.45 1437.11 2001.05 1439.29 Q2003.64 1441.47 2003.64 1445.12 Q2003.64 1446.85 2002.99 1448.41 Q2002.35 1449.95 2000.63 1452.06 Q2000.16 1452.6 1997.64 1455.22 Q1995.12 1457.81 1990.53 1462.5 Z" fill="#000000" fill-rule="evenodd" fill-opacity="1" /><path clip-path="url(#clip670)" d="M 0 0 M2241.55 1489.17 L2249.19 1489.17 L2249.19 1462.8 L2240.88 1464.47 L2240.88 1460.21 L2249.15 1458.54 L2253.82 1458.54 L2253.82 1489.17 L2261.46 1489.17 L2261.46 1493.1 L2241.55 1493.1 L2241.55 1489.17 Z" fill="#000000" fill-rule="evenodd" fill-opacity="1" /><path clip-path="url(#clip670)" d="M 0 0 M2276.53 1461.62 Q2272.92 1461.62 2271.09 1465.19 Q2269.29 1468.73 2269.29 1475.86 Q2269.29 1482.97 2271.09 1486.53 Q2272.92 1490.07 2276.53 1490.07 Q2280.17 1490.07 2281.97 1486.53 Q2283.8 1482.97 2283.8 1475.86 Q2283.8 1468.73 2281.97 1465.19 Q2280.17 1461.62 2276.53 1461.62 M2276.53 1457.92 Q2282.34 1457.92 2285.4 1462.53 Q2288.48 1467.11 2288.48 1475.86 Q2288.48 1484.59 2285.4 1489.19 Q2282.34 1493.78 2276.53 1493.78 Q2270.72 1493.78 2267.64 1489.19 Q2264.59 1484.59 2264.59 1475.86 Q2264.59 1467.11 2267.64 1462.53 Q2270.72 1457.92 2276.53 1457.92 Z" fill="#000000" fill-rule="evenodd" fill-opacity="1" /><path clip-path="url(#clip670)" d="M 0 0 M2298.18 1440.11 Q2295.25 1440.11 2293.76 1443.01 Q2292.29 1445.89 2292.29 1451.68 Q2292.29 1457.46 2293.76 1460.35 Q2295.25 1463.23 2298.18 1463.23 Q2301.13 1463.23 2302.6 1460.35 Q2304.09 1457.46 2304.09 1451.68 Q2304.09 1445.89 2302.6 1443.01 Q2301.13 1440.11 2298.18 1440.11 M2298.18 1437.11 Q2302.9 1437.11 2305.38 1440.85 Q2307.89 1444.57 2307.89 1451.68 Q2307.89 1458.77 2305.38 1462.51 Q2302.9 1466.24 2298.18 1466.24 Q2293.46 1466.24 2290.96 1462.51 Q2288.48 1458.77 2288.48 1451.68 Q2288.48 1444.57 2290.96 1440.85 Q2293.46 1437.11 2298.18 1437.11 Z" fill="#000000" fill-rule="evenodd" fill-opacity="1" /><path clip-path="url(#clip670)" d="M 0 0 M2312 1460.92 L2315.97 1460.92 L2315.97 1465.69 L2312 1465.69 L2312 1460.92 Z" fill="#000000" fill-rule="evenodd" fill-opacity="1" /><path clip-path="url(#clip670)" d="M 0 0 M2331.6 1450.55 Q2334.33 1451.14 2335.85 1452.98 Q2337.39 1454.82 2337.39 1457.53 Q2337.39 1461.69 2334.54 1463.96 Q2331.68 1466.24 2326.41 1466.24 Q2324.64 1466.24 2322.76 1465.88 Q2320.9 1465.54 2318.91 1464.85 L2318.91 1461.18 Q2320.49 1462.1 2322.37 1462.57 Q2324.25 1463.04 2326.3 1463.04 Q2329.87 1463.04 2331.73 1461.63 Q2333.61 1460.22 2333.61 1457.53 Q2333.61 1455.05 2331.87 1453.66 Q2330.14 1452.25 2327.03 1452.25 L2323.76 1452.25 L2323.76 1449.12 L2327.18 1449.12 Q2329.98 1449.12 2331.47 1448.01 Q2332.96 1446.89 2332.96 1444.78 Q2332.96 1442.62 2331.41 1441.47 Q2329.89 1440.3 2327.03 1440.3 Q2325.47 1440.3 2323.68 1440.64 Q2321.9 1440.98 2319.75 1441.69 L2319.75 1438.31 Q2321.92 1437.71 2323.8 1437.41 Q2325.7 1437.11 2327.37 1437.11 Q2331.7 1437.11 2334.22 1439.08 Q2336.74 1441.04 2336.74 1444.38 Q2336.74 1446.72 2335.4 1448.33 Q2334.07 1449.93 2331.6 1450.55 Z" fill="#000000" fill-rule="evenodd" fill-opacity="1" /><path clip-path="url(#clip670)" d="M 0 0 M1294.7 1545.6 L1293.3 1538.25 Q1291.87 1530.71 1286.2 1530.71 Q1281.93 1530.71 1279.99 1534.21 Q1277.54 1538.6 1277.54 1544.39 Q1277.54 1551.4 1279.93 1554.74 Q1282.35 1558.14 1286.2 1558.14 Q1290.46 1558.14 1292.76 1551.36 L1294.7 1545.6 M1297.98 1535.86 L1301.13 1526.54 L1306.35 1526.54 L1299.82 1545.86 L1301.1 1552.83 Q1301.38 1554.39 1302.5 1555.69 Q1303.8 1557.22 1304.82 1557.22 L1307.62 1557.22 L1307.62 1562.19 L1304.12 1562.19 Q1301.13 1562.19 1298.45 1559.51 Q1297.15 1558.18 1296.61 1555.37 Q1295.14 1558.91 1292.15 1561.68 Q1290.75 1562.98 1286.2 1562.98 Q1278.72 1562.98 1275.09 1558.14 Q1271.37 1553.15 1271.37 1544.39 Q1271.37 1535.04 1275.41 1530.64 Q1279.9 1525.74 1286.2 1525.74 Q1296.1 1525.74 1297.98 1535.86 Z" fill="#000000" fill-rule="evenodd" fill-opacity="1" /><polyline clip-path="url(#clip672)" style="stroke:#000000; stroke-width:2; stroke-opacity:0.1; fill:none" points="
  226.232,1408.6 2352.76,1408.6 
  "/>
<polyline clip-path="url(#clip672)" style="stroke:#000000; stroke-width:2; stroke-opacity:0.1; fill:none" points="
  226.232,1132.41 2352.76,1132.41 
  "/>
<polyline clip-path="url(#clip672)" style="stroke:#000000; stroke-width:2; stroke-opacity:0.1; fill:none" points="
  226.232,856.216 2352.76,856.216 
  "/>
<polyline clip-path="url(#clip672)" style="stroke:#000000; stroke-width:2; stroke-opacity:0.1; fill:none" points="
  226.232,580.025 2352.76,580.025 
  "/>
<polyline clip-path="url(#clip672)" style="stroke:#000000; stroke-width:2; stroke-opacity:0.1; fill:none" points="
  226.232,303.834 2352.76,303.834 
  "/>
<polyline clip-path="url(#clip670)" style="stroke:#000000; stroke-width:4; stroke-opacity:1; fill:none" points="
  226.232,1410.9 226.232,47.2441 
  "/>
<polyline clip-path="url(#clip670)" style="stroke:#000000; stroke-width:4; stroke-opacity:1; fill:none" points="
  226.232,1408.6 251.75,1408.6 
  "/>
<polyline clip-path="url(#clip670)" style="stroke:#000000; stroke-width:4; stroke-opacity:1; fill:none" points="
  226.232,1132.41 251.75,1132.41 
  "/>
<polyline clip-path="url(#clip670)" style="stroke:#000000; stroke-width:4; stroke-opacity:1; fill:none" points="
  226.232,856.216 251.75,856.216 
  "/>
<polyline clip-path="url(#clip670)" style="stroke:#000000; stroke-width:4; stroke-opacity:1; fill:none" points="
  226.232,580.025 251.75,580.025 
  "/>
<polyline clip-path="url(#clip670)" style="stroke:#000000; stroke-width:4; stroke-opacity:1; fill:none" points="
  226.232,303.834 251.75,303.834 
  "/>
<path clip-path="url(#clip670)" d="M 0 0 M178.288 1394.4 Q174.677 1394.4 172.848 1397.96 Q171.042 1401.5 171.042 1408.63 Q171.042 1415.74 172.848 1419.3 Q174.677 1422.85 178.288 1422.85 Q181.922 1422.85 183.727 1419.3 Q185.556 1415.74 185.556 1408.63 Q185.556 1401.5 183.727 1397.96 Q181.922 1394.4 178.288 1394.4 M178.288 1390.69 Q184.098 1390.69 187.153 1395.3 Q190.232 1399.88 190.232 1408.63 Q190.232 1417.36 187.153 1421.97 Q184.098 1426.55 178.288 1426.55 Q172.477 1426.55 169.399 1421.97 Q166.343 1417.36 166.343 1408.63 Q166.343 1399.88 169.399 1395.3 Q172.477 1390.69 178.288 1390.69 Z" fill="#000000" fill-rule="evenodd" fill-opacity="1" /><path clip-path="url(#clip670)" d="M 0 0 M142.316 1115.13 L160.672 1115.13 L160.672 1119.06 L146.598 1119.06 L146.598 1127.53 Q147.616 1127.19 148.635 1127.03 Q149.653 1126.84 150.672 1126.84 Q156.459 1126.84 159.839 1130.01 Q163.218 1133.18 163.218 1138.6 Q163.218 1144.18 159.746 1147.28 Q156.274 1150.36 149.954 1150.36 Q147.778 1150.36 145.51 1149.99 Q143.265 1149.62 140.857 1148.88 L140.857 1144.18 Q142.941 1145.31 145.163 1145.87 Q147.385 1146.42 149.862 1146.42 Q153.866 1146.42 156.204 1144.32 Q158.542 1142.21 158.542 1138.6 Q158.542 1134.99 156.204 1132.88 Q153.866 1130.78 149.862 1130.78 Q147.987 1130.78 146.112 1131.19 Q144.26 1131.61 142.316 1132.49 L142.316 1115.13 Z" fill="#000000" fill-rule="evenodd" fill-opacity="1" /><path clip-path="url(#clip670)" d="M 0 0 M178.288 1118.21 Q174.677 1118.21 172.848 1121.77 Q171.042 1125.31 171.042 1132.44 Q171.042 1139.55 172.848 1143.11 Q174.677 1146.65 178.288 1146.65 Q181.922 1146.65 183.727 1143.11 Q185.556 1139.55 185.556 1132.44 Q185.556 1125.31 183.727 1121.77 Q181.922 1118.21 178.288 1118.21 M178.288 1114.5 Q184.098 1114.5 187.153 1119.11 Q190.232 1123.69 190.232 1132.44 Q190.232 1141.17 187.153 1145.78 Q184.098 1150.36 178.288 1150.36 Q172.477 1150.36 169.399 1145.78 Q166.343 1141.17 166.343 1132.44 Q166.343 1123.69 169.399 1119.11 Q172.477 1114.5 178.288 1114.5 Z" fill="#000000" fill-rule="evenodd" fill-opacity="1" /><path clip-path="url(#clip670)" d="M 0 0 M116.297 869.561 L123.936 869.561 L123.936 843.195 L115.626 844.862 L115.626 840.603 L123.89 838.936 L128.566 838.936 L128.566 869.561 L136.204 869.561 L136.204 873.496 L116.297 873.496 L116.297 869.561 Z" fill="#000000" fill-rule="evenodd" fill-opacity="1" /><path clip-path="url(#clip670)" d="M 0 0 M151.274 842.015 Q147.663 842.015 145.834 845.58 Q144.029 849.121 144.029 856.251 Q144.029 863.357 145.834 866.922 Q147.663 870.464 151.274 870.464 Q154.908 870.464 156.714 866.922 Q158.542 863.357 158.542 856.251 Q158.542 849.121 156.714 845.58 Q154.908 842.015 151.274 842.015 M151.274 838.311 Q157.084 838.311 160.14 842.918 Q163.218 847.501 163.218 856.251 Q163.218 864.978 160.14 869.584 Q157.084 874.167 151.274 874.167 Q145.464 874.167 142.385 869.584 Q139.329 864.978 139.329 856.251 Q139.329 847.501 142.385 842.918 Q145.464 838.311 151.274 838.311 Z" fill="#000000" fill-rule="evenodd" fill-opacity="1" /><path clip-path="url(#clip670)" d="M 0 0 M178.288 842.015 Q174.677 842.015 172.848 845.58 Q171.042 849.121 171.042 856.251 Q171.042 863.357 172.848 866.922 Q174.677 870.464 178.288 870.464 Q181.922 870.464 183.727 866.922 Q185.556 863.357 185.556 856.251 Q185.556 849.121 183.727 845.58 Q181.922 842.015 178.288 842.015 M178.288 838.311 Q184.098 838.311 187.153 842.918 Q190.232 847.501 190.232 856.251 Q190.232 864.978 187.153 869.584 Q184.098 874.167 178.288 874.167 Q172.477 874.167 169.399 869.584 Q166.343 864.978 166.343 856.251 Q166.343 847.501 169.399 842.918 Q172.477 838.311 178.288 838.311 Z" fill="#000000" fill-rule="evenodd" fill-opacity="1" /><path clip-path="url(#clip670)" d="M 0 0 M117.293 593.37 L124.931 593.37 L124.931 567.005 L116.621 568.671 L116.621 564.412 L124.885 562.745 L129.561 562.745 L129.561 593.37 L137.2 593.37 L137.2 597.305 L117.293 597.305 L117.293 593.37 Z" fill="#000000" fill-rule="evenodd" fill-opacity="1" /><path clip-path="url(#clip670)" d="M 0 0 M142.316 562.745 L160.672 562.745 L160.672 566.68 L146.598 566.68 L146.598 575.153 Q147.616 574.805 148.635 574.643 Q149.653 574.458 150.672 574.458 Q156.459 574.458 159.839 577.629 Q163.218 580.801 163.218 586.217 Q163.218 591.796 159.746 594.898 Q156.274 597.977 149.954 597.977 Q147.778 597.977 145.51 597.606 Q143.265 597.236 140.857 596.495 L140.857 591.796 Q142.941 592.93 145.163 593.486 Q147.385 594.041 149.862 594.041 Q153.866 594.041 156.204 591.935 Q158.542 589.828 158.542 586.217 Q158.542 582.606 156.204 580.5 Q153.866 578.393 149.862 578.393 Q147.987 578.393 146.112 578.81 Q144.26 579.227 142.316 580.106 L142.316 562.745 Z" fill="#000000" fill-rule="evenodd" fill-opacity="1" /><path clip-path="url(#clip670)" d="M 0 0 M178.288 565.824 Q174.677 565.824 172.848 569.389 Q171.042 572.93 171.042 580.06 Q171.042 587.166 172.848 590.731 Q174.677 594.273 178.288 594.273 Q181.922 594.273 183.727 590.731 Q185.556 587.166 185.556 580.06 Q185.556 572.93 183.727 569.389 Q181.922 565.824 178.288 565.824 M178.288 562.12 Q184.098 562.12 187.153 566.727 Q190.232 571.31 190.232 580.06 Q190.232 588.787 187.153 593.393 Q184.098 597.977 178.288 597.977 Q172.477 597.977 169.399 593.393 Q166.343 588.787 166.343 580.06 Q166.343 571.31 169.399 566.727 Q172.477 562.12 178.288 562.12 Z" fill="#000000" fill-rule="evenodd" fill-opacity="1" /><path clip-path="url(#clip670)" d="M 0 0 M119.885 317.179 L136.204 317.179 L136.204 321.114 L114.26 321.114 L114.26 317.179 Q116.922 314.425 121.505 309.795 Q126.112 305.142 127.292 303.8 Q129.538 301.277 130.417 299.54 Q131.32 297.781 131.32 296.091 Q131.32 293.337 129.376 291.601 Q127.455 289.865 124.353 289.865 Q122.154 289.865 119.7 290.628 Q117.269 291.392 114.492 292.943 L114.492 288.221 Q117.316 287.087 119.769 286.508 Q122.223 285.929 124.26 285.929 Q129.63 285.929 132.825 288.615 Q136.019 291.3 136.019 295.79 Q136.019 297.92 135.209 299.841 Q134.422 301.739 132.316 304.332 Q131.737 305.003 128.635 308.221 Q125.533 311.415 119.885 317.179 Z" fill="#000000" fill-rule="evenodd" fill-opacity="1" /><path clip-path="url(#clip670)" d="M 0 0 M151.274 289.633 Q147.663 289.633 145.834 293.198 Q144.029 296.74 144.029 303.869 Q144.029 310.976 145.834 314.54 Q147.663 318.082 151.274 318.082 Q154.908 318.082 156.714 314.54 Q158.542 310.976 158.542 303.869 Q158.542 296.74 156.714 293.198 Q154.908 289.633 151.274 289.633 M151.274 285.929 Q157.084 285.929 160.14 290.536 Q163.218 295.119 163.218 303.869 Q163.218 312.596 160.14 317.202 Q157.084 321.786 151.274 321.786 Q145.464 321.786 142.385 317.202 Q139.329 312.596 139.329 303.869 Q139.329 295.119 142.385 290.536 Q145.464 285.929 151.274 285.929 Z" fill="#000000" fill-rule="evenodd" fill-opacity="1" /><path clip-path="url(#clip670)" d="M 0 0 M178.288 289.633 Q174.677 289.633 172.848 293.198 Q171.042 296.74 171.042 303.869 Q171.042 310.976 172.848 314.54 Q174.677 318.082 178.288 318.082 Q181.922 318.082 183.727 314.54 Q185.556 310.976 185.556 303.869 Q185.556 296.74 183.727 293.198 Q181.922 289.633 178.288 289.633 M178.288 285.929 Q184.098 285.929 187.153 290.536 Q190.232 295.119 190.232 303.869 Q190.232 312.596 187.153 317.202 Q184.098 321.786 178.288 321.786 Q172.477 321.786 169.399 317.202 Q166.343 312.596 166.343 303.869 Q166.343 295.119 169.399 290.536 Q172.477 285.929 178.288 285.929 Z" fill="#000000" fill-rule="evenodd" fill-opacity="1" /><path clip-path="url(#clip670)" d="M 0 0 M59.1993 815.533 Q55.2526 813.336 53.3747 810.281 Q51.4968 807.225 51.4968 803.088 Q51.4968 797.518 55.4117 794.494 Q59.2948 791.47 66.4881 791.47 L88.0042 791.47 L88.0042 797.358 L66.679 797.358 Q61.5546 797.358 59.072 799.173 Q56.5894 800.987 56.5894 804.711 Q56.5894 809.262 59.6131 811.904 Q62.6368 814.546 67.8567 814.546 L88.0042 814.546 L88.0042 820.434 L66.679 820.434 Q61.5228 820.434 59.072 822.248 Q56.5894 824.063 56.5894 827.85 Q56.5894 832.338 59.6449 834.98 Q62.6686 837.622 67.8567 837.622 L88.0042 837.622 L88.0042 843.51 L52.3562 843.51 L52.3562 837.622 L57.8944 837.622 Q54.616 835.616 53.0564 832.815 Q51.4968 830.015 51.4968 826.163 Q51.4968 822.28 53.4702 819.575 Q55.4436 816.838 59.1993 815.533 Z" fill="#000000" fill-rule="evenodd" fill-opacity="1" /><path clip-path="url(#clip670)" d="M 0 0 M52.3562 785.327 L52.3562 779.471 L88.0042 779.471 L88.0042 785.327 L52.3562 785.327 M38.479 785.327 L38.479 779.471 L45.895 779.471 L45.895 785.327 L38.479 785.327 Z" fill="#000000" fill-rule="evenodd" fill-opacity="1" /><path clip-path="url(#clip670)" d="M 0 0 M66.4881 743.696 L88.0042 743.696 L88.0042 749.552 L66.679 749.552 Q61.6183 749.552 59.1038 751.525 Q56.5894 753.499 56.5894 757.446 Q56.5894 762.188 59.6131 764.925 Q62.6368 767.662 67.8567 767.662 L88.0042 767.662 L88.0042 773.551 L52.3562 773.551 L52.3562 767.662 L57.8944 767.662 Q54.6797 765.562 53.0883 762.729 Q51.4968 759.864 51.4968 756.141 Q51.4968 749.998 55.3163 746.847 Q59.1038 743.696 66.4881 743.696 Z" fill="#000000" fill-rule="evenodd" fill-opacity="1" /><path clip-path="url(#clip670)" d="M 0 0 M98.8259 710.467 L103.377 710.467 L103.377 744.332 L98.8259 744.332 L98.8259 710.467 Z" fill="#000000" fill-rule="evenodd" fill-opacity="1" /><path clip-path="url(#clip670)" d="M 0 0 M57.7671 680.866 L38.479 680.866 L38.479 675.01 L88.0042 675.01 L88.0042 680.866 L82.657 680.866 Q85.8398 682.712 87.3994 685.545 Q88.9272 688.346 88.9272 692.292 Q88.9272 698.754 83.771 702.828 Q78.6147 706.87 70.212 706.87 Q61.8093 706.87 56.6531 702.828 Q51.4968 698.754 51.4968 692.292 Q51.4968 688.346 53.0564 685.545 Q54.5842 682.712 57.7671 680.866 M70.212 700.823 Q76.6732 700.823 80.3653 698.181 Q84.0256 695.507 84.0256 690.86 Q84.0256 686.213 80.3653 683.54 Q76.6732 680.866 70.212 680.866 Q63.7508 680.866 60.0905 683.54 Q56.3984 686.213 56.3984 690.86 Q56.3984 695.507 60.0905 698.181 Q63.7508 700.823 70.212 700.823 Z" fill="#000000" fill-rule="evenodd" fill-opacity="1" /><path clip-path="url(#clip670)" d="M 0 0 M52.3562 668.867 L52.3562 663.01 L88.0042 663.01 L88.0042 668.867 L52.3562 668.867 M38.479 668.867 L38.479 663.01 L45.895 663.01 L45.895 668.867 L38.479 668.867 Z" fill="#000000" fill-rule="evenodd" fill-opacity="1" /><path clip-path="url(#clip670)" d="M 0 0 M38.479 638.821 L43.3487 638.821 L43.3487 644.422 Q43.3487 647.573 44.6219 648.815 Q45.895 650.024 49.2052 650.024 L52.3562 650.024 L52.3562 640.38 L56.9077 640.38 L56.9077 650.024 L88.0042 650.024 L88.0042 655.912 L56.9077 655.912 L56.9077 661.514 L52.3562 661.514 L52.3562 655.912 L49.8736 655.912 Q43.9216 655.912 41.2162 653.143 Q38.479 650.374 38.479 644.359 L38.479 638.821 Z" fill="#000000" fill-rule="evenodd" fill-opacity="1" /><path clip-path="url(#clip670)" d="M 0 0 M38.479 614.631 L43.3487 614.631 L43.3487 620.233 Q43.3487 623.384 44.6219 624.625 Q45.895 625.835 49.2052 625.835 L52.3562 625.835 L52.3562 616.19 L56.9077 616.19 L56.9077 625.835 L88.0042 625.835 L88.0042 631.723 L56.9077 631.723 L56.9077 637.325 L52.3562 637.325 L52.3562 631.723 L49.8736 631.723 Q43.9216 631.723 41.2162 628.954 Q38.479 626.185 38.479 620.169 L38.479 614.631 Z" fill="#000000" fill-rule="evenodd" fill-opacity="1" /><polyline clip-path="url(#clip672)" style="stroke:#009af9; stroke-width:20; stroke-opacity:1; fill:none" stroke-dasharray="80, 50" points="
  286.417,85.838 1289.49,1184.99 1876.26,1372.3 2292.57,1368.1 
  "/>
<path clip-path="url(#clip670)" d="
M1994.57 213.659 L2281.87 213.659 L2281.87 92.6992 L1994.57 92.6992  Z
  " fill="#ffffff" fill-rule="evenodd" fill-opacity="1"/>
<polyline clip-path="url(#clip670)" style="stroke:#000000; stroke-width:4; stroke-opacity:1; fill:none" points="
  1994.57,213.659 2281.87,213.659 2281.87,92.6992 1994.57,92.6992 1994.57,213.659 
  "/>
<polyline clip-path="url(#clip670)" style="stroke:#009af9; stroke-width:4; stroke-opacity:1; fill:none" stroke-dasharray="16, 10" points="
  2018.2,153.179 2159.97,153.179 
  "/>
<path clip-path="url(#clip670)" d="M 0 0 M2197.44 172.867 Q2195.63 177.496 2193.92 178.908 Q2192.21 180.32 2189.34 180.32 L2185.94 180.32 L2185.94 176.755 L2188.44 176.755 Q2190.19 176.755 2191.17 175.922 Q2192.14 175.089 2193.32 171.987 L2194.08 170.043 L2183.6 144.533 L2188.11 144.533 L2196.21 164.811 L2204.31 144.533 L2208.83 144.533 L2197.44 172.867 Z" fill="#000000" fill-rule="evenodd" fill-opacity="1" /><path clip-path="url(#clip670)" d="M 0 0 M2214.71 166.524 L2222.35 166.524 L2222.35 140.158 L2214.04 141.825 L2214.04 137.566 L2222.3 135.899 L2226.98 135.899 L2226.98 166.524 L2234.62 166.524 L2234.62 170.459 L2214.71 170.459 L2214.71 166.524 Z" fill="#000000" fill-rule="evenodd" fill-opacity="1" /></svg>
