<?xml version="1.0" encoding="utf-8"?>
<svg xmlns="http://www.w3.org/2000/svg" xmlns:xlink="http://www.w3.org/1999/xlink" width="600" height="400" viewBox="0 0 2400 1600">
<defs>
  <clipPath id="clip480">
    <rect x="0" y="0" width="2400" height="1600"/>
  </clipPath>
</defs>
<path clip-path="url(#clip480)" d="
M0 1600 L2400 1600 L2400 0 L0 0  Z
  " fill="#ffffff" fill-rule="evenodd" fill-opacity="1"/>
<defs>
  <clipPath id="clip481">
    <rect x="480" y="0" width="1681" height="1600"/>
  </clipPath>
</defs>
<path clip-path="url(#clip480)" d="
M262.968 1410.9 L2352.76 1410.9 L2352.76 47.2441 L262.968 47.2441  Z
  " fill="#ffffff" fill-rule="evenodd" fill-opacity="1"/>
<defs>
  <clipPath id="clip482">
    <rect x="262" y="47" width="2091" height="1365"/>
  </clipPath>
</defs>
<polyline clip-path="url(#clip482)" style="stroke:#000000; stroke-width:2; stroke-opacity:0.1; fill:none" points="
  519.263,1410.9 519.263,47.2441 
  "/>
<polyline clip-path="url(#clip482)" style="stroke:#000000; stroke-width:2; stroke-opacity:0.1; fill:none" points="
  913.562,1410.9 913.562,47.2441 
  "/>
<polyline clip-path="url(#clip482)" style="stroke:#000000; stroke-width:2; stroke-opacity:0.1; fill:none" points="
  1307.86,1410.9 1307.86,47.2441 
  "/>
<polyline clip-path="url(#clip482)" style="stroke:#000000; stroke-width:2; stroke-opacity:0.1; fill:none" points="
  1702.16,1410.9 1702.16,47.2441 
  "/>
<polyline clip-path="url(#clip482)" style="stroke:#000000; stroke-width:2; stroke-opacity:0.1; fill:none" points="
  2096.46,1410.9 2096.46,47.2441 
  "/>
<polyline clip-path="url(#clip480)" style="stroke:#000000; stroke-width:4; stroke-opacity:1; fill:none" points="
  262.968,1410.9 2352.76,1410.9 
  "/>
<polyline clip-path="url(#clip480)" style="stroke:#000000; stroke-width:4; stroke-opacity:1; fill:none" points="
  519.263,1410.9 519.263,1394.53 
  "/>
<polyline clip-path="url(#clip480)" style="stroke:#000000; stroke-width:4; stroke-opacity:1; fill:none" points="
  913.562,1410.9 913.562,1394.53 
  "/>
<polyline clip-path="url(#clip480)" style="stroke:#000000; stroke-width:4; stroke-opacity:1; fill:none" points="
  1307.86,1410.9 1307.86,1394.53 
  "/>
<polyline clip-path="url(#clip480)" style="stroke:#000000; stroke-width:4; stroke-opacity:1; fill:none" points="
  1702.16,1410.9 1702.16,1394.53 
  "/>
<polyline clip-path="url(#clip480)" style="stroke:#000000; stroke-width:4; stroke-opacity:1; fill:none" points="
  2096.46,1410.9 2096.46,1394.53 
  "/>
<path clip-path="url(#clip480)" d="M 0 0 M458.297 1489.17 L465.935 1489.17 L465.935 1462.8 L457.625 1464.47 L457.625 1460.21 L465.889 1458.54 L470.565 1458.54 L470.565 1489.17 L478.204 1489.17 L478.204 1493.1 L458.297 1493.1 L458.297 1489.17 Z" fill="#000000" fill-rule="evenodd" fill-opacity="1" /><path clip-path="url(#clip480)" d="M 0 0 M493.273 1461.62 Q489.662 1461.62 487.833 1465.19 Q486.028 1468.73 486.028 1475.86 Q486.028 1482.97 487.833 1486.53 Q489.662 1490.07 493.273 1490.07 Q496.907 1490.07 498.713 1486.53 Q500.542 1482.97 500.542 1475.86 Q500.542 1468.73 498.713 1465.19 Q496.907 1461.62 493.273 1461.62 M493.273 1457.92 Q499.083 1457.92 502.139 1462.53 Q505.218 1467.11 505.218 1475.86 Q505.218 1484.59 502.139 1489.19 Q499.083 1493.78 493.273 1493.78 Q487.463 1493.78 484.384 1489.19 Q481.329 1484.59 481.329 1475.86 Q481.329 1467.11 484.384 1462.53 Q487.463 1457.92 493.273 1457.92 Z" fill="#000000" fill-rule="evenodd" fill-opacity="1" /><path clip-path="url(#clip480)" d="M 0 0 M505.218 1452.02 L529.329 1452.02 L529.329 1455.22 L505.218 1455.22 L505.218 1452.02 Z" fill="#000000" fill-rule="evenodd" fill-opacity="1" /><path clip-path="url(#clip480)" d="M 0 0 M533.486 1437.61 L548.4 1437.61 L548.4 1440.81 L536.965 1440.81 L536.965 1447.69 Q537.793 1447.41 538.62 1447.28 Q539.448 1447.13 540.275 1447.13 Q544.977 1447.13 547.723 1449.71 Q550.469 1452.28 550.469 1456.68 Q550.469 1461.22 547.648 1463.74 Q544.827 1466.24 539.692 1466.24 Q537.924 1466.24 536.081 1465.94 Q534.257 1465.64 532.301 1465.04 L532.301 1461.22 Q533.993 1462.14 535.799 1462.59 Q537.605 1463.04 539.617 1463.04 Q542.871 1463.04 544.77 1461.33 Q546.67 1459.62 546.67 1456.68 Q546.67 1453.75 544.77 1452.04 Q542.871 1450.33 539.617 1450.33 Q538.094 1450.33 536.57 1450.67 Q535.066 1451 533.486 1451.72 L533.486 1437.61 Z" fill="#000000" fill-rule="evenodd" fill-opacity="1" /><path clip-path="url(#clip480)" d="M 0 0 M554.588 1460.92 L558.556 1460.92 L558.556 1465.69 L554.588 1465.69 L554.588 1460.92 Z" fill="#000000" fill-rule="evenodd" fill-opacity="1" /><path clip-path="url(#clip480)" d="M 0 0 M573.114 1440.92 L563.522 1455.91 L573.114 1455.91 L573.114 1440.92 M572.117 1437.61 L576.894 1437.61 L576.894 1455.91 L580.9 1455.91 L580.9 1459.07 L576.894 1459.07 L576.894 1465.69 L573.114 1465.69 L573.114 1459.07 L560.437 1459.07 L560.437 1455.41 L572.117 1437.61 Z" fill="#000000" fill-rule="evenodd" fill-opacity="1" /><path clip-path="url(#clip480)" d="M 0 0 M853.443 1489.17 L861.081 1489.17 L861.081 1462.8 L852.771 1464.47 L852.771 1460.21 L861.035 1458.54 L865.711 1458.54 L865.711 1489.17 L873.35 1489.17 L873.35 1493.1 L853.443 1493.1 L853.443 1489.17 Z" fill="#000000" fill-rule="evenodd" fill-opacity="1" /><path clip-path="url(#clip480)" d="M 0 0 M888.419 1461.62 Q884.808 1461.62 882.979 1465.19 Q881.174 1468.73 881.174 1475.86 Q881.174 1482.97 882.979 1486.53 Q884.808 1490.07 888.419 1490.07 Q892.053 1490.07 893.859 1486.53 Q895.688 1482.97 895.688 1475.86 Q895.688 1468.73 893.859 1465.19 Q892.053 1461.62 888.419 1461.62 M888.419 1457.92 Q894.229 1457.92 897.285 1462.53 Q900.364 1467.11 900.364 1475.86 Q900.364 1484.59 897.285 1489.19 Q894.229 1493.78 888.419 1493.78 Q882.609 1493.78 879.53 1489.19 Q876.475 1484.59 876.475 1475.86 Q876.475 1467.11 879.53 1462.53 Q882.609 1457.92 888.419 1457.92 Z" fill="#000000" fill-rule="evenodd" fill-opacity="1" /><path clip-path="url(#clip480)" d="M 0 0 M900.364 1452.02 L924.475 1452.02 L924.475 1455.22 L900.364 1455.22 L900.364 1452.02 Z" fill="#000000" fill-rule="evenodd" fill-opacity="1" /><path clip-path="url(#clip480)" d="M 0 0 M928.632 1437.61 L943.546 1437.61 L943.546 1440.81 L932.111 1440.81 L932.111 1447.69 Q932.939 1447.41 933.766 1447.28 Q934.594 1447.13 935.421 1447.13 Q940.123 1447.13 942.869 1449.71 Q945.615 1452.28 945.615 1456.68 Q945.615 1461.22 942.794 1463.74 Q939.973 1466.24 934.838 1466.24 Q933.07 1466.24 931.227 1465.94 Q929.403 1465.64 927.447 1465.04 L927.447 1461.22 Q929.139 1462.14 930.945 1462.59 Q932.751 1463.04 934.763 1463.04 Q938.017 1463.04 939.916 1461.33 Q941.816 1459.62 941.816 1456.68 Q941.816 1453.75 939.916 1452.04 Q938.017 1450.33 934.763 1450.33 Q933.24 1450.33 931.716 1450.67 Q930.211 1451 928.632 1451.72 L928.632 1437.61 Z" fill="#000000" fill-rule="evenodd" fill-opacity="1" /><path clip-path="url(#clip480)" d="M 0 0 M949.734 1460.92 L953.702 1460.92 L953.702 1465.69 L949.734 1465.69 L949.734 1460.92 Z" fill="#000000" fill-rule="evenodd" fill-opacity="1" /><path clip-path="url(#clip480)" d="M 0 0 M961.094 1462.5 L974.353 1462.5 L974.353 1465.69 L956.524 1465.69 L956.524 1462.5 Q958.686 1460.26 962.41 1456.5 Q966.153 1452.72 967.112 1451.63 Q968.937 1449.58 969.651 1448.16 Q970.385 1446.74 970.385 1445.36 Q970.385 1443.12 968.805 1441.71 Q967.244 1440.3 964.724 1440.3 Q962.937 1440.3 960.943 1440.92 Q958.969 1441.54 956.712 1442.8 L956.712 1438.97 Q959.006 1438.05 961 1437.58 Q962.993 1437.11 964.649 1437.11 Q969.012 1437.11 971.607 1439.29 Q974.203 1441.47 974.203 1445.12 Q974.203 1446.85 973.545 1448.41 Q972.905 1449.95 971.194 1452.06 Q970.723 1452.6 968.203 1455.22 Q965.683 1457.81 961.094 1462.5 Z" fill="#000000" fill-rule="evenodd" fill-opacity="1" /><path clip-path="url(#clip480)" d="M 0 0 M1247.09 1489.17 L1254.73 1489.17 L1254.73 1462.8 L1246.42 1464.47 L1246.42 1460.21 L1254.69 1458.54 L1259.36 1458.54 L1259.36 1489.17 L1267 1489.17 L1267 1493.1 L1247.09 1493.1 L1247.09 1489.17 Z" fill="#000000" fill-rule="evenodd" fill-opacity="1" /><path clip-path="url(#clip480)" d="M 0 0 M1282.07 1461.62 Q1278.46 1461.62 1276.63 1465.19 Q1274.82 1468.73 1274.82 1475.86 Q1274.82 1482.97 1276.63 1486.53 Q1278.46 1490.07 1282.07 1490.07 Q1285.7 1490.07 1287.51 1486.53 Q1289.34 1482.97 1289.34 1475.86 Q1289.34 1468.73 1287.51 1465.19 Q1285.7 1461.62 1282.07 1461.62 M1282.07 1457.92 Q1287.88 1457.92 1290.94 1462.53 Q1294.01 1467.11 1294.01 1475.86 Q1294.01 1484.59 1290.94 1489.19 Q1287.88 1493.78 1282.07 1493.78 Q1276.26 1493.78 1273.18 1489.19 Q1270.13 1484.59 1270.13 1475.86 Q1270.13 1467.11 1273.18 1462.53 Q1276.26 1457.92 1282.07 1457.92 Z" fill="#000000" fill-rule="evenodd" fill-opacity="1" /><path clip-path="url(#clip480)" d="M 0 0 M1294.01 1452.02 L1318.13 1452.02 L1318.13 1455.22 L1294.01 1455.22 L1294.01 1452.02 Z" fill="#000000" fill-rule="evenodd" fill-opacity="1" /><path clip-path="url(#clip480)" d="M 0 0 M1322.28 1437.61 L1337.2 1437.61 L1337.2 1440.81 L1325.76 1440.81 L1325.76 1447.69 Q1326.59 1447.41 1327.42 1447.28 Q1328.24 1447.13 1329.07 1447.13 Q1333.77 1447.13 1336.52 1449.71 Q1339.27 1452.28 1339.27 1456.68 Q1339.27 1461.22 1336.44 1463.74 Q1333.62 1466.24 1328.49 1466.24 Q1326.72 1466.24 1324.88 1465.94 Q1323.05 1465.64 1321.1 1465.04 L1321.1 1461.22 Q1322.79 1462.14 1324.6 1462.59 Q1326.4 1463.04 1328.41 1463.04 Q1331.67 1463.04 1333.57 1461.33 Q1335.47 1459.62 1335.47 1456.68 Q1335.47 1453.75 1333.57 1452.04 Q1331.67 1450.33 1328.41 1450.33 Q1326.89 1450.33 1325.37 1450.67 Q1323.86 1451 1322.28 1451.72 L1322.28 1437.61 Z" fill="#000000" fill-rule="evenodd" fill-opacity="1" /><path clip-path="url(#clip480)" d="M 0 0 M1343.38 1460.92 L1347.35 1460.92 L1347.35 1465.69 L1343.38 1465.69 L1343.38 1460.92 Z" fill="#000000" fill-rule="evenodd" fill-opacity="1" /><path clip-path="url(#clip480)" d="M 0 0 M1359.6 1440.11 Q1356.66 1440.11 1355.18 1443.01 Q1353.71 1445.89 1353.71 1451.68 Q1353.71 1457.46 1355.18 1460.35 Q1356.66 1463.23 1359.6 1463.23 Q1362.55 1463.23 1364.02 1460.35 Q1365.5 1457.46 1365.5 1451.68 Q1365.5 1445.89 1364.02 1443.01 Q1362.55 1440.11 1359.6 1440.11 M1359.6 1437.11 Q1364.32 1437.11 1366.8 1440.85 Q1369.3 1444.57 1369.3 1451.68 Q1369.3 1458.77 1366.8 1462.51 Q1364.32 1466.24 1359.6 1466.24 Q1354.88 1466.24 1352.37 1462.51 Q1349.89 1458.77 1349.89 1451.68 Q1349.89 1444.57 1352.37 1440.85 Q1354.88 1437.11 1359.6 1437.11 Z" fill="#000000" fill-rule="evenodd" fill-opacity="1" /><path clip-path="url(#clip480)" d="M 0 0 M1640.83 1489.17 L1648.47 1489.17 L1648.47 1462.8 L1640.16 1464.47 L1640.16 1460.21 L1648.42 1458.54 L1653.1 1458.54 L1653.1 1489.17 L1660.74 1489.17 L1660.74 1493.1 L1640.83 1493.1 L1640.83 1489.17 Z" fill="#000000" fill-rule="evenodd" fill-opacity="1" /><path clip-path="url(#clip480)" d="M 0 0 M1675.81 1461.62 Q1672.19 1461.62 1670.37 1465.19 Q1668.56 1468.73 1668.56 1475.86 Q1668.56 1482.97 1670.37 1486.53 Q1672.19 1490.07 1675.81 1490.07 Q1679.44 1490.07 1681.25 1486.53 Q1683.07 1482.97 1683.07 1475.86 Q1683.07 1468.73 1681.25 1465.19 Q1679.44 1461.62 1675.81 1461.62 M1675.81 1457.92 Q1681.62 1457.92 1684.67 1462.53 Q1687.75 1467.11 1687.75 1475.86 Q1687.75 1484.59 1684.67 1489.19 Q1681.62 1493.78 1675.81 1493.78 Q1670 1493.78 1666.92 1489.19 Q1663.86 1484.59 1663.86 1475.86 Q1663.86 1467.11 1666.92 1462.53 Q1670 1457.92 1675.81 1457.92 Z" fill="#000000" fill-rule="evenodd" fill-opacity="1" /><path clip-path="url(#clip480)" d="M 0 0 M1687.75 1452.02 L1711.86 1452.02 L1711.86 1455.22 L1687.75 1455.22 L1687.75 1452.02 Z" fill="#000000" fill-rule="evenodd" fill-opacity="1" /><path clip-path="url(#clip480)" d="M 0 0 M1726.42 1440.92 L1716.83 1455.91 L1726.42 1455.91 L1726.42 1440.92 M1725.42 1437.61 L1730.2 1437.61 L1730.2 1455.91 L1734.2 1455.91 L1734.2 1459.07 L1730.2 1459.07 L1730.2 1465.69 L1726.42 1465.69 L1726.42 1459.07 L1713.74 1459.07 L1713.74 1455.41 L1725.42 1437.61 Z" fill="#000000" fill-rule="evenodd" fill-opacity="1" /><path clip-path="url(#clip480)" d="M 0 0 M1738.32 1460.92 L1742.29 1460.92 L1742.29 1465.69 L1738.32 1465.69 L1738.32 1460.92 Z" fill="#000000" fill-rule="evenodd" fill-opacity="1" /><path clip-path="url(#clip480)" d="M 0 0 M1754.54 1452.36 Q1751.83 1452.36 1750.27 1453.81 Q1748.72 1455.26 1748.72 1457.79 Q1748.72 1460.33 1750.27 1461.78 Q1751.83 1463.23 1754.54 1463.23 Q1757.24 1463.23 1758.81 1461.78 Q1760.37 1460.31 1760.37 1457.79 Q1760.37 1455.26 1758.81 1453.81 Q1757.26 1452.36 1754.54 1452.36 M1750.74 1450.74 Q1748.29 1450.14 1746.92 1448.47 Q1745.56 1446.79 1745.56 1444.38 Q1745.56 1441.02 1747.95 1439.06 Q1750.36 1437.11 1754.54 1437.11 Q1758.73 1437.11 1761.12 1439.06 Q1763.51 1441.02 1763.51 1444.38 Q1763.51 1446.79 1762.13 1448.47 Q1760.78 1450.14 1758.35 1450.74 Q1761.1 1451.38 1762.62 1453.24 Q1764.17 1455.1 1764.17 1457.79 Q1764.17 1461.88 1761.66 1464.06 Q1759.18 1466.24 1754.54 1466.24 Q1749.89 1466.24 1747.39 1464.06 Q1744.91 1461.88 1744.91 1457.79 Q1744.91 1455.1 1746.45 1453.24 Q1747.99 1451.38 1750.74 1450.74 M1749.35 1444.74 Q1749.35 1446.92 1750.7 1448.15 Q1752.07 1449.37 1754.54 1449.37 Q1756.98 1449.37 1758.35 1448.15 Q1759.75 1446.92 1759.75 1444.74 Q1759.75 1442.56 1758.35 1441.34 Q1756.98 1440.11 1754.54 1440.11 Q1752.07 1440.11 1750.7 1441.34 Q1749.35 1442.56 1749.35 1444.74 Z" fill="#000000" fill-rule="evenodd" fill-opacity="1" /><path clip-path="url(#clip480)" d="M 0 0 M2035.02 1489.17 L2042.66 1489.17 L2042.66 1462.8 L2034.35 1464.47 L2034.35 1460.21 L2042.62 1458.54 L2047.29 1458.54 L2047.29 1489.17 L2054.93 1489.17 L2054.93 1493.1 L2035.02 1493.1 L2035.02 1489.17 Z" fill="#000000" fill-rule="evenodd" fill-opacity="1" /><path clip-path="url(#clip480)" d="M 0 0 M2070 1461.62 Q2066.39 1461.62 2064.56 1465.19 Q2062.76 1468.73 2062.76 1475.86 Q2062.76 1482.97 2064.56 1486.53 Q2066.39 1490.07 2070 1490.07 Q2073.64 1490.07 2075.44 1486.53 Q2077.27 1482.97 2077.27 1475.86 Q2077.27 1468.73 2075.44 1465.19 Q2073.64 1461.62 2070 1461.62 M2070 1457.92 Q2075.81 1457.92 2078.87 1462.53 Q2081.95 1467.11 2081.95 1475.86 Q2081.95 1484.59 2078.87 1489.19 Q2075.81 1493.78 2070 1493.78 Q2064.19 1493.78 2061.11 1489.19 Q2058.06 1484.59 2058.06 1475.86 Q2058.06 1467.11 2061.11 1462.53 Q2064.19 1457.92 2070 1457.92 Z" fill="#000000" fill-rule="evenodd" fill-opacity="1" /><path clip-path="url(#clip480)" d="M 0 0 M2081.95 1452.02 L2106.06 1452.02 L2106.06 1455.22 L2081.95 1455.22 L2081.95 1452.02 Z" fill="#000000" fill-rule="evenodd" fill-opacity="1" /><path clip-path="url(#clip480)" d="M 0 0 M2120.61 1440.92 L2111.02 1455.91 L2120.61 1455.91 L2120.61 1440.92 M2119.62 1437.61 L2124.4 1437.61 L2124.4 1455.91 L2128.4 1455.91 L2128.4 1459.07 L2124.4 1459.07 L2124.4 1465.69 L2120.61 1465.69 L2120.61 1459.07 L2107.94 1459.07 L2107.94 1455.41 L2119.62 1437.61 Z" fill="#000000" fill-rule="evenodd" fill-opacity="1" /><path clip-path="url(#clip480)" d="M 0 0 M2132.52 1460.92 L2136.49 1460.92 L2136.49 1465.69 L2132.52 1465.69 L2132.52 1460.92 Z" fill="#000000" fill-rule="evenodd" fill-opacity="1" /><path clip-path="url(#clip480)" d="M 0 0 M2149.2 1450.14 Q2146.64 1450.14 2145.14 1451.89 Q2143.65 1453.64 2143.65 1456.68 Q2143.65 1459.71 2145.14 1461.48 Q2146.64 1463.23 2149.2 1463.23 Q2151.76 1463.23 2153.25 1461.48 Q2154.75 1459.71 2154.75 1456.68 Q2154.75 1453.64 2153.25 1451.89 Q2151.76 1450.14 2149.2 1450.14 M2156.74 1438.23 L2156.74 1441.69 Q2155.31 1441.02 2153.85 1440.66 Q2152.4 1440.3 2150.97 1440.3 Q2147.21 1440.3 2145.22 1442.84 Q2143.24 1445.38 2142.96 1450.52 Q2144.07 1448.88 2145.74 1448.01 Q2147.42 1447.13 2149.43 1447.13 Q2153.66 1447.13 2156.1 1449.71 Q2158.57 1452.26 2158.57 1456.68 Q2158.57 1461.01 2156.01 1463.62 Q2153.45 1466.24 2149.2 1466.24 Q2144.33 1466.24 2141.75 1462.51 Q2139.18 1458.77 2139.18 1451.68 Q2139.18 1445.02 2142.34 1441.07 Q2145.5 1437.11 2150.82 1437.11 Q2152.25 1437.11 2153.7 1437.39 Q2155.16 1437.67 2156.74 1438.23 Z" fill="#000000" fill-rule="evenodd" fill-opacity="1" /><path clip-path="url(#clip480)" d="M 0 0 M1239.38 1512.66 L1245.27 1512.66 L1245.27 1541.91 L1262.74 1526.54 L1270.22 1526.54 L1251.32 1543.22 L1271.02 1562.19 L1263.38 1562.19 L1245.27 1544.78 L1245.27 1562.19 L1239.38 1562.19 L1239.38 1512.66 Z" fill="#000000" fill-rule="evenodd" fill-opacity="1" /><path clip-path="url(#clip480)" d="M 0 0 M1304.25 1573.01 L1304.25 1577.56 L1270.38 1577.56 L1270.38 1573.01 L1304.25 1573.01 Z" fill="#000000" fill-rule="evenodd" fill-opacity="1" /><path clip-path="url(#clip480)" d="M 0 0 M1324.21 1530.64 Q1319.5 1530.64 1316.76 1534.34 Q1314.02 1538 1314.02 1544.39 Q1314.02 1550.79 1316.73 1554.48 Q1319.46 1558.14 1324.21 1558.14 Q1328.88 1558.14 1331.62 1554.45 Q1334.36 1550.76 1334.36 1544.39 Q1334.36 1538.06 1331.62 1534.37 Q1328.88 1530.64 1324.21 1530.64 M1324.21 1525.68 Q1331.84 1525.68 1336.21 1530.64 Q1340.57 1535.61 1340.57 1544.39 Q1340.57 1553.15 1336.21 1558.14 Q1331.84 1563.11 1324.21 1563.11 Q1316.54 1563.11 1312.17 1558.14 Q1307.85 1553.15 1307.85 1544.39 Q1307.85 1535.61 1312.17 1530.64 Q1316.54 1525.68 1324.21 1525.68 Z" fill="#000000" fill-rule="evenodd" fill-opacity="1" /><path clip-path="url(#clip480)" d="M 0 0 M1376.34 1540.67 L1376.34 1562.19 L1370.48 1562.19 L1370.48 1540.86 Q1370.48 1535.8 1368.51 1533.29 Q1366.54 1530.77 1362.59 1530.77 Q1357.85 1530.77 1355.11 1533.79 Q1352.37 1536.82 1352.37 1542.04 L1352.37 1562.19 L1346.49 1562.19 L1346.49 1526.54 L1352.37 1526.54 L1352.37 1532.08 Q1354.47 1528.86 1357.31 1527.27 Q1360.17 1525.68 1363.9 1525.68 Q1370.04 1525.68 1373.19 1529.5 Q1376.34 1533.29 1376.34 1540.67 Z" fill="#000000" fill-rule="evenodd" fill-opacity="1" /><polyline clip-path="url(#clip482)" style="stroke:#000000; stroke-width:2; stroke-opacity:0.1; fill:none" points="
  262.968,1254.74 2352.76,1254.74 
  "/>
<polyline clip-path="url(#clip482)" style="stroke:#000000; stroke-width:2; stroke-opacity:0.1; fill:none" points="
  262.968,943.183 2352.76,943.183 
  "/>
<polyline clip-path="url(#clip482)" style="stroke:#000000; stroke-width:2; stroke-opacity:0.1; fill:none" points="
  262.968,631.629 2352.76,631.629 
  "/>
<polyline clip-path="url(#clip482)" style="stroke:#000000; stroke-width:2; stroke-opacity:0.1; fill:none" points="
  262.968,320.074 2352.76,320.074 
  "/>
<polyline clip-path="url(#clip480)" style="stroke:#000000; stroke-width:4; stroke-opacity:1; fill:none" points="
  262.968,1410.9 262.968,47.2441 
  "/>
<polyline clip-path="url(#clip480)" style="stroke:#000000; stroke-width:4; stroke-opacity:1; fill:none" points="
  262.968,1254.74 288.045,1254.74 
  "/>
<polyline clip-path="url(#clip480)" style="stroke:#000000; stroke-width:4; stroke-opacity:1; fill:none" points="
  262.968,943.183 288.045,943.183 
  "/>
<polyline clip-path="url(#clip480)" style="stroke:#000000; stroke-width:4; stroke-opacity:1; fill:none" points="
  262.968,631.629 288.045,631.629 
  "/>
<polyline clip-path="url(#clip480)" style="stroke:#000000; stroke-width:4; stroke-opacity:1; fill:none" points="
  262.968,320.074 288.045,320.074 
  "/>
<path clip-path="url(#clip480)" d="M 0 0 M117.339 1237.46 L139.561 1237.46 L139.561 1239.45 L127.015 1272.02 L122.13 1272.02 L133.936 1241.39 L117.339 1241.39 L117.339 1237.46 Z" fill="#000000" fill-rule="evenodd" fill-opacity="1" /><path clip-path="url(#clip480)" d="M 0 0 M144.677 1237.46 L163.033 1237.46 L163.033 1241.39 L148.959 1241.39 L148.959 1249.87 Q149.978 1249.52 150.996 1249.36 Q152.015 1249.17 153.033 1249.17 Q158.82 1249.17 162.2 1252.34 Q165.579 1255.51 165.579 1260.93 Q165.579 1266.51 162.107 1269.61 Q158.635 1272.69 152.316 1272.69 Q150.14 1272.69 147.871 1272.32 Q145.626 1271.95 143.218 1271.21 L143.218 1266.51 Q145.302 1267.64 147.524 1268.2 Q149.746 1268.75 152.223 1268.75 Q156.228 1268.75 158.565 1266.65 Q160.903 1264.54 160.903 1260.93 Q160.903 1257.32 158.565 1255.21 Q156.228 1253.11 152.223 1253.11 Q150.348 1253.11 148.473 1253.52 Q146.621 1253.94 144.677 1254.82 L144.677 1237.46 Z" fill="#000000" fill-rule="evenodd" fill-opacity="1" /><path clip-path="url(#clip480)" d="M 0 0 M170.649 1266.14 L175.533 1266.14 L175.533 1272.02 L170.649 1272.02 L170.649 1266.14 Z" fill="#000000" fill-rule="evenodd" fill-opacity="1" /><path clip-path="url(#clip480)" d="M 0 0 M184.63 1268.08 L200.95 1268.08 L200.95 1272.02 L179.005 1272.02 L179.005 1268.08 Q181.667 1265.33 186.251 1260.7 Q190.857 1256.05 192.038 1254.7 Q194.283 1252.18 195.163 1250.44 Q196.065 1248.68 196.065 1246.99 Q196.065 1244.24 194.121 1242.5 Q192.2 1240.77 189.098 1240.77 Q186.899 1240.77 184.445 1241.53 Q182.014 1242.3 179.237 1243.85 L179.237 1239.12 Q182.061 1237.99 184.514 1237.41 Q186.968 1236.83 189.005 1236.83 Q194.375 1236.83 197.57 1239.52 Q200.764 1242.2 200.764 1246.69 Q200.764 1248.82 199.954 1250.74 Q199.167 1252.64 197.061 1255.24 Q196.482 1255.91 193.38 1259.12 Q190.278 1262.32 184.63 1268.08 Z" fill="#000000" fill-rule="evenodd" fill-opacity="1" /><path clip-path="url(#clip480)" d="M 0 0 M206.065 1237.46 L224.422 1237.46 L224.422 1241.39 L210.348 1241.39 L210.348 1249.87 Q211.366 1249.52 212.385 1249.36 Q213.403 1249.17 214.422 1249.17 Q220.209 1249.17 223.588 1252.34 Q226.968 1255.51 226.968 1260.93 Q226.968 1266.51 223.496 1269.61 Q220.023 1272.69 213.704 1272.69 Q211.528 1272.69 209.26 1272.32 Q207.014 1271.95 204.607 1271.21 L204.607 1266.51 Q206.69 1267.64 208.912 1268.2 Q211.135 1268.75 213.611 1268.75 Q217.616 1268.75 219.954 1266.65 Q222.292 1264.54 222.292 1260.93 Q222.292 1257.32 219.954 1255.21 Q217.616 1253.11 213.611 1253.11 Q211.736 1253.11 209.861 1253.52 Q208.01 1253.94 206.065 1254.82 L206.065 1237.46 Z" fill="#000000" fill-rule="evenodd" fill-opacity="1" /><path clip-path="url(#clip480)" d="M 0 0 M115.394 925.903 L137.617 925.903 L137.617 927.894 L125.07 960.463 L120.186 960.463 L131.992 929.838 L115.394 929.838 L115.394 925.903 Z" fill="#000000" fill-rule="evenodd" fill-opacity="1" /><path clip-path="url(#clip480)" d="M 0 0 M142.732 925.903 L161.089 925.903 L161.089 929.838 L147.015 929.838 L147.015 938.311 Q148.033 937.963 149.052 937.801 Q150.07 937.616 151.089 937.616 Q156.876 937.616 160.255 940.787 Q163.635 943.959 163.635 949.375 Q163.635 954.954 160.163 958.056 Q156.69 961.135 150.371 961.135 Q148.195 961.135 145.927 960.764 Q143.681 960.394 141.274 959.653 L141.274 954.954 Q143.357 956.088 145.579 956.644 Q147.802 957.199 150.278 957.199 Q154.283 957.199 156.621 955.093 Q158.959 952.986 158.959 949.375 Q158.959 945.764 156.621 943.658 Q154.283 941.551 150.278 941.551 Q148.403 941.551 146.529 941.968 Q144.677 942.385 142.732 943.264 L142.732 925.903 Z" fill="#000000" fill-rule="evenodd" fill-opacity="1" /><path clip-path="url(#clip480)" d="M 0 0 M168.704 954.584 L173.589 954.584 L173.589 960.463 L168.704 960.463 L168.704 954.584 Z" fill="#000000" fill-rule="evenodd" fill-opacity="1" /><path clip-path="url(#clip480)" d="M 0 0 M192.825 941.829 Q196.181 942.547 198.056 944.815 Q199.954 947.084 199.954 950.417 Q199.954 955.533 196.436 958.334 Q192.917 961.135 186.436 961.135 Q184.26 961.135 181.945 960.695 Q179.653 960.278 177.2 959.422 L177.2 954.908 Q179.144 956.042 181.459 956.621 Q183.774 957.199 186.297 957.199 Q190.695 957.199 192.987 955.463 Q195.301 953.727 195.301 950.417 Q195.301 947.361 193.149 945.648 Q191.019 943.912 187.2 943.912 L183.172 943.912 L183.172 940.07 L187.385 940.07 Q190.834 940.07 192.663 938.704 Q194.491 937.315 194.491 934.723 Q194.491 932.061 192.593 930.649 Q190.718 929.213 187.2 929.213 Q185.278 929.213 183.079 929.63 Q180.88 930.047 178.241 930.926 L178.241 926.76 Q180.903 926.019 183.218 925.649 Q185.556 925.278 187.616 925.278 Q192.94 925.278 196.042 927.709 Q199.144 930.116 199.144 934.237 Q199.144 937.107 197.5 939.098 Q195.857 941.065 192.825 941.829 Z" fill="#000000" fill-rule="evenodd" fill-opacity="1" /><path clip-path="url(#clip480)" d="M 0 0 M215.024 928.982 Q211.412 928.982 209.584 932.547 Q207.778 936.088 207.778 943.218 Q207.778 950.324 209.584 953.889 Q211.412 957.431 215.024 957.431 Q218.658 957.431 220.463 953.889 Q222.292 950.324 222.292 943.218 Q222.292 936.088 220.463 932.547 Q218.658 928.982 215.024 928.982 M215.024 925.278 Q220.834 925.278 223.889 929.885 Q226.968 934.468 226.968 943.218 Q226.968 951.945 223.889 956.551 Q220.834 961.135 215.024 961.135 Q209.213 961.135 206.135 956.551 Q203.079 951.945 203.079 943.218 Q203.079 934.468 206.135 929.885 Q209.213 925.278 215.024 925.278 Z" fill="#000000" fill-rule="evenodd" fill-opacity="1" /><path clip-path="url(#clip480)" d="M 0 0 M116.39 614.349 L138.612 614.349 L138.612 616.34 L126.066 648.909 L121.181 648.909 L132.987 618.284 L116.39 618.284 L116.39 614.349 Z" fill="#000000" fill-rule="evenodd" fill-opacity="1" /><path clip-path="url(#clip480)" d="M 0 0 M143.728 614.349 L162.084 614.349 L162.084 618.284 L148.01 618.284 L148.01 626.756 Q149.028 626.409 150.047 626.247 Q151.066 626.062 152.084 626.062 Q157.871 626.062 161.251 629.233 Q164.63 632.404 164.63 637.821 Q164.63 643.4 161.158 646.501 Q157.686 649.58 151.366 649.58 Q149.191 649.58 146.922 649.21 Q144.677 648.839 142.269 648.099 L142.269 643.4 Q144.353 644.534 146.575 645.089 Q148.797 645.645 151.274 645.645 Q155.278 645.645 157.616 643.538 Q159.954 641.432 159.954 637.821 Q159.954 634.21 157.616 632.103 Q155.278 629.997 151.274 629.997 Q149.399 629.997 147.524 630.414 Q145.672 630.83 143.728 631.71 L143.728 614.349 Z" fill="#000000" fill-rule="evenodd" fill-opacity="1" /><path clip-path="url(#clip480)" d="M 0 0 M169.7 643.029 L174.584 643.029 L174.584 648.909 L169.7 648.909 L169.7 643.029 Z" fill="#000000" fill-rule="evenodd" fill-opacity="1" /><path clip-path="url(#clip480)" d="M 0 0 M193.82 630.275 Q197.176 630.992 199.051 633.261 Q200.95 635.529 200.95 638.863 Q200.95 643.978 197.431 646.779 Q193.913 649.58 187.431 649.58 Q185.255 649.58 182.94 649.14 Q180.649 648.724 178.195 647.867 L178.195 643.353 Q180.139 644.488 182.454 645.066 Q184.769 645.645 187.292 645.645 Q191.69 645.645 193.982 643.909 Q196.297 642.173 196.297 638.863 Q196.297 635.807 194.144 634.094 Q192.014 632.358 188.195 632.358 L184.167 632.358 L184.167 628.515 L188.38 628.515 Q191.829 628.515 193.658 627.15 Q195.487 625.761 195.487 623.168 Q195.487 620.506 193.588 619.094 Q191.713 617.659 188.195 617.659 Q186.274 617.659 184.075 618.076 Q181.876 618.492 179.237 619.372 L179.237 615.205 Q181.899 614.465 184.213 614.094 Q186.551 613.724 188.612 613.724 Q193.936 613.724 197.037 616.154 Q200.139 618.562 200.139 622.682 Q200.139 625.552 198.496 627.543 Q196.852 629.511 193.82 630.275 Z" fill="#000000" fill-rule="evenodd" fill-opacity="1" /><path clip-path="url(#clip480)" d="M 0 0 M206.065 614.349 L224.422 614.349 L224.422 618.284 L210.348 618.284 L210.348 626.756 Q211.366 626.409 212.385 626.247 Q213.403 626.062 214.422 626.062 Q220.209 626.062 223.588 629.233 Q226.968 632.404 226.968 637.821 Q226.968 643.4 223.496 646.501 Q220.023 649.58 213.704 649.58 Q211.528 649.58 209.26 649.21 Q207.014 648.839 204.607 648.099 L204.607 643.4 Q206.69 644.534 208.912 645.089 Q211.135 645.645 213.611 645.645 Q217.616 645.645 219.954 643.538 Q222.292 641.432 222.292 637.821 Q222.292 634.21 219.954 632.103 Q217.616 629.997 213.611 629.997 Q211.736 629.997 209.861 630.414 Q208.01 630.83 206.065 631.71 L206.065 614.349 Z" fill="#000000" fill-rule="evenodd" fill-opacity="1" /><path clip-path="url(#clip480)" d="M 0 0 M114.26 302.794 L136.482 302.794 L136.482 304.785 L123.936 337.354 L119.052 337.354 L130.857 306.73 L114.26 306.73 L114.26 302.794 Z" fill="#000000" fill-rule="evenodd" fill-opacity="1" /><path clip-path="url(#clip480)" d="M 0 0 M141.598 302.794 L159.954 302.794 L159.954 306.73 L145.88 306.73 L145.88 315.202 Q146.899 314.854 147.917 314.692 Q148.936 314.507 149.954 314.507 Q155.741 314.507 159.121 317.679 Q162.501 320.85 162.501 326.266 Q162.501 331.845 159.028 334.947 Q155.556 338.026 149.237 338.026 Q147.061 338.026 144.792 337.655 Q142.547 337.285 140.14 336.544 L140.14 331.845 Q142.223 332.979 144.445 333.535 Q146.667 334.09 149.144 334.09 Q153.149 334.09 155.487 331.984 Q157.825 329.878 157.825 326.266 Q157.825 322.655 155.487 320.549 Q153.149 318.442 149.144 318.442 Q147.269 318.442 145.394 318.859 Q143.542 319.276 141.598 320.155 L141.598 302.794 Z" fill="#000000" fill-rule="evenodd" fill-opacity="1" /><path clip-path="url(#clip480)" d="M 0 0 M167.57 331.475 L172.454 331.475 L172.454 337.354 L167.57 337.354 L167.57 331.475 Z" fill="#000000" fill-rule="evenodd" fill-opacity="1" /><path clip-path="url(#clip480)" d="M 0 0 M190.371 306.868 L178.565 325.317 L190.371 325.317 L190.371 306.868 M189.144 302.794 L195.024 302.794 L195.024 325.317 L199.954 325.317 L199.954 329.206 L195.024 329.206 L195.024 337.354 L190.371 337.354 L190.371 329.206 L174.769 329.206 L174.769 324.692 L189.144 302.794 Z" fill="#000000" fill-rule="evenodd" fill-opacity="1" /><path clip-path="url(#clip480)" d="M 0 0 M215.024 305.873 Q211.412 305.873 209.584 309.438 Q207.778 312.979 207.778 320.109 Q207.778 327.216 209.584 330.78 Q211.412 334.322 215.024 334.322 Q218.658 334.322 220.463 330.78 Q222.292 327.216 222.292 320.109 Q222.292 312.979 220.463 309.438 Q218.658 305.873 215.024 305.873 M215.024 302.169 Q220.834 302.169 223.889 306.776 Q226.968 311.359 226.968 320.109 Q226.968 328.836 223.889 333.442 Q220.834 338.026 215.024 338.026 Q209.213 338.026 206.135 333.442 Q203.079 328.836 203.079 320.109 Q203.079 311.359 206.135 306.776 Q209.213 302.169 215.024 302.169 Z" fill="#000000" fill-rule="evenodd" fill-opacity="1" /><path clip-path="url(#clip480)" d="M 0 0 M59.1993 815.533 Q55.2526 813.336 53.3747 810.281 Q51.4968 807.225 51.4968 803.088 Q51.4968 797.518 55.4117 794.494 Q59.2948 791.47 66.4881 791.47 L88.0042 791.47 L88.0042 797.358 L66.679 797.358 Q61.5546 797.358 59.072 799.173 Q56.5894 800.987 56.5894 804.711 Q56.5894 809.262 59.6131 811.904 Q62.6368 814.546 67.8567 814.546 L88.0042 814.546 L88.0042 820.434 L66.679 820.434 Q61.5228 820.434 59.072 822.248 Q56.5894 824.063 56.5894 827.85 Q56.5894 832.338 59.6449 834.98 Q62.6686 837.622 67.8567 837.622 L88.0042 837.622 L88.0042 843.51 L52.3562 843.51 L52.3562 837.622 L57.8944 837.622 Q54.616 835.616 53.0564 832.815 Q51.4968 830.015 51.4968 826.163 Q51.4968 822.28 53.4702 819.575 Q55.4436 816.838 59.1993 815.533 Z" fill="#000000" fill-rule="evenodd" fill-opacity="1" /><path clip-path="url(#clip480)" d="M 0 0 M52.3562 785.327 L52.3562 779.471 L88.0042 779.471 L88.0042 785.327 L52.3562 785.327 M38.479 785.327 L38.479 779.471 L45.895 779.471 L45.895 785.327 L38.479 785.327 Z" fill="#000000" fill-rule="evenodd" fill-opacity="1" /><path clip-path="url(#clip480)" d="M 0 0 M66.4881 743.696 L88.0042 743.696 L88.0042 749.552 L66.679 749.552 Q61.6183 749.552 59.1038 751.525 Q56.5894 753.499 56.5894 757.446 Q56.5894 762.188 59.6131 764.925 Q62.6368 767.662 67.8567 767.662 L88.0042 767.662 L88.0042 773.551 L52.3562 773.551 L52.3562 767.662 L57.8944 767.662 Q54.6797 765.562 53.0883 762.729 Q51.4968 759.864 51.4968 756.141 Q51.4968 749.998 55.3163 746.847 Q59.1038 743.696 66.4881 743.696 Z" fill="#000000" fill-rule="evenodd" fill-opacity="1" /><path clip-path="url(#clip480)" d="M 0 0 M98.8259 710.467 L103.377 710.467 L103.377 744.332 L98.8259 744.332 L98.8259 710.467 Z" fill="#000000" fill-rule="evenodd" fill-opacity="1" /><path clip-path="url(#clip480)" d="M 0 0 M57.7671 680.866 L38.479 680.866 L38.479 675.01 L88.0042 675.01 L88.0042 680.866 L82.657 680.866 Q85.8398 682.712 87.3994 685.545 Q88.9272 688.346 88.9272 692.292 Q88.9272 698.754 83.771 702.828 Q78.6147 706.87 70.212 706.87 Q61.8093 706.87 56.6531 702.828 Q51.4968 698.754 51.4968 692.292 Q51.4968 688.346 53.0564 685.545 Q54.5842 682.712 57.7671 680.866 M70.212 700.823 Q76.6732 700.823 80.3653 698.181 Q84.0256 695.507 84.0256 690.86 Q84.0256 686.213 80.3653 683.54 Q76.6732 680.866 70.212 680.866 Q63.7508 680.866 60.0905 683.54 Q56.3984 686.213 56.3984 690.86 Q56.3984 695.507 60.0905 698.181 Q63.7508 700.823 70.212 700.823 Z" fill="#000000" fill-rule="evenodd" fill-opacity="1" /><path clip-path="url(#clip480)" d="M 0 0 M52.3562 668.867 L52.3562 663.01 L88.0042 663.01 L88.0042 668.867 L52.3562 668.867 M38.479 668.867 L38.479 663.01 L45.895 663.01 L45.895 668.867 L38.479 668.867 Z" fill="#000000" fill-rule="evenodd" fill-opacity="1" /><path clip-path="url(#clip480)" d="M 0 0 M38.479 638.821 L43.3487 638.821 L43.3487 644.422 Q43.3487 647.573 44.6219 648.815 Q45.895 650.024 49.2052 650.024 L52.3562 650.024 L52.3562 640.38 L56.9077 640.38 L56.9077 650.024 L88.0042 650.024 L88.0042 655.912 L56.9077 655.912 L56.9077 661.514 L52.3562 661.514 L52.3562 655.912 L49.8736 655.912 Q43.9216 655.912 41.2162 653.143 Q38.479 650.374 38.479 644.359 L38.479 638.821 Z" fill="#000000" fill-rule="evenodd" fill-opacity="1" /><path clip-path="url(#clip480)" d="M 0 0 M38.479 614.631 L43.3487 614.631 L43.3487 620.233 Q43.3487 623.384 44.6219 624.625 Q45.895 625.835 49.2052 625.835 L52.3562 625.835 L52.3562 616.19 L56.9077 616.19 L56.9077 625.835 L88.0042 625.835 L88.0042 631.723 L56.9077 631.723 L56.9077 637.325 L52.3562 637.325 L52.3562 631.723 L49.8736 631.723 Q43.9216 631.723 41.2162 628.954 Q38.479 626.185 38.479 620.169 L38.479 614.631 Z" fill="#000000" fill-rule="evenodd" fill-opacity="1" /><polyline clip-path="url(#clip482)" style="stroke:#009af9; stroke-width:20; stroke-opacity:1; fill:none" stroke-dasharray="80, 50" points="
  322.113,85.838 1307.86,1372.3 2293.61,400.502 
  "/>
<path clip-path="url(#clip480)" d="
M1999.88 213.659 L2283.1 213.659 L2283.1 92.6992 L1999.88 92.6992  Z
  " fill="#ffffff" fill-rule="evenodd" fill-opacity="1"/>
<polyline clip-path="url(#clip480)" style="stroke:#000000; stroke-width:4; stroke-opacity:1; fill:none" points="
  1999.88,213.659 2283.1,213.659 2283.1,92.6992 1999.88,92.6992 1999.88,213.659 
  "/>
<polyline clip-path="url(#clip480)" style="stroke:#009af9; stroke-width:4; stroke-opacity:1; fill:none" stroke-dasharray="16, 10" points="
  2023.1,153.179 2162.42,153.179 
  "/>
<path clip-path="url(#clip480)" d="M 0 0 M2199.48 172.867 Q2197.68 177.496 2195.96 178.908 Q2194.25 180.32 2191.38 180.32 L2187.98 180.32 L2187.98 176.755 L2190.48 176.755 Q2192.24 176.755 2193.21 175.922 Q2194.18 175.089 2195.36 171.987 L2196.12 170.043 L2185.64 144.533 L2190.15 144.533 L2198.25 164.811 L2206.36 144.533 L2210.87 144.533 L2199.48 172.867 Z" fill="#000000" fill-rule="evenodd" fill-opacity="1" /><path clip-path="url(#clip480)" d="M 0 0 M2216.75 166.524 L2224.39 166.524 L2224.39 140.158 L2216.08 141.825 L2216.08 137.566 L2224.34 135.899 L2229.02 135.899 L2229.02 166.524 L2236.66 166.524 L2236.66 170.459 L2216.75 170.459 L2216.75 166.524 Z" fill="#000000" fill-rule="evenodd" fill-opacity="1" /></svg>
