<?xml version="1.0" encoding="utf-8"?>
<svg xmlns="http://www.w3.org/2000/svg" xmlns:xlink="http://www.w3.org/1999/xlink" width="600" height="400" viewBox="0 0 2400 1600">
<defs>
  <clipPath id="clip360">
    <rect x="0" y="0" width="2400" height="1600"/>
  </clipPath>
</defs>
<path clip-path="url(#clip360)" d="
M0 1600 L2400 1600 L2400 0 L0 0  Z
  " fill="#ffffff" fill-rule="evenodd" fill-opacity="1"/>
<defs>
  <clipPath id="clip361">
    <rect x="480" y="0" width="1681" height="1600"/>
  </clipPath>
</defs>
<path clip-path="url(#clip360)" d="
M212.899 1410.9 L2352.76 1410.9 L2352.76 47.2441 L212.899 47.2441  Z
  " fill="#ffffff" fill-rule="evenodd" fill-opacity="1"/>
<defs>
  <clipPath id="clip362">
    <rect x="212" y="47" width="2141" height="1365"/>
  </clipPath>
</defs>
<polyline clip-path="url(#clip362)" style="stroke:#000000; stroke-width:2; stroke-opacity:0.1; fill:none" points="
  273.461,1410.9 273.461,47.2441 
  "/>
<polyline clip-path="url(#clip362)" style="stroke:#000000; stroke-width:2; stroke-opacity:0.1; fill:none" points="
  599.415,1410.9 599.415,47.2441 
  "/>
<polyline clip-path="url(#clip362)" style="stroke:#000000; stroke-width:2; stroke-opacity:0.1; fill:none" points="
  925.368,1410.9 925.368,47.2441 
  "/>
<polyline clip-path="url(#clip362)" style="stroke:#000000; stroke-width:2; stroke-opacity:0.1; fill:none" points="
  1251.32,1410.9 1251.32,47.2441 
  "/>
<polyline clip-path="url(#clip362)" style="stroke:#000000; stroke-width:2; stroke-opacity:0.1; fill:none" points="
  1577.28,1410.9 1577.28,47.2441 
  "/>
<polyline clip-path="url(#clip362)" style="stroke:#000000; stroke-width:2; stroke-opacity:0.1; fill:none" points="
  1903.23,1410.9 1903.23,47.2441 
  "/>
<polyline clip-path="url(#clip362)" style="stroke:#000000; stroke-width:2; stroke-opacity:0.1; fill:none" points="
  2229.18,1410.9 2229.18,47.2441 
  "/>
<polyline clip-path="url(#clip360)" style="stroke:#000000; stroke-width:4; stroke-opacity:1; fill:none" points="
  212.899,1410.9 2352.76,1410.9 
  "/>
<polyline clip-path="url(#clip360)" style="stroke:#000000; stroke-width:4; stroke-opacity:1; fill:none" points="
  273.461,1410.9 273.461,1394.53 
  "/>
<polyline clip-path="url(#clip360)" style="stroke:#000000; stroke-width:4; stroke-opacity:1; fill:none" points="
  599.415,1410.9 599.415,1394.53 
  "/>
<polyline clip-path="url(#clip360)" style="stroke:#000000; stroke-width:4; stroke-opacity:1; fill:none" points="
  925.368,1410.9 925.368,1394.53 
  "/>
<polyline clip-path="url(#clip360)" style="stroke:#000000; stroke-width:4; stroke-opacity:1; fill:none" points="
  1251.32,1410.9 1251.32,1394.53 
  "/>
<polyline clip-path="url(#clip360)" style="stroke:#000000; stroke-width:4; stroke-opacity:1; fill:none" points="
  1577.28,1410.9 1577.28,1394.53 
  "/>
<polyline clip-path="url(#clip360)" style="stroke:#000000; stroke-width:4; stroke-opacity:1; fill:none" points="
  1903.23,1410.9 1903.23,1394.53 
  "/>
<polyline clip-path="url(#clip360)" style="stroke:#000000; stroke-width:4; stroke-opacity:1; fill:none" points="
  2229.18,1410.9 2229.18,1394.53 
  "/>
<path clip-path="url(#clip360)" d="M 0 0 M212.692 1489.17 L220.331 1489.17 L220.331 1462.8 L212.021 1464.47 L212.021 1460.21 L220.285 1458.54 L224.961 1458.54 L224.961 1489.17 L232.599 1489.17 L232.599 1493.1 L212.692 1493.1 L212.692 1489.17 Z" fill="#000000" fill-rule="evenodd" fill-opacity="1" /><path clip-path="url(#clip360)" d="M 0 0 M247.669 1461.62 Q244.058 1461.62 242.229 1465.19 Q240.423 1468.73 240.423 1475.86 Q240.423 1482.97 242.229 1486.53 Q244.058 1490.07 247.669 1490.07 Q251.303 1490.07 253.109 1486.53 Q254.937 1482.97 254.937 1475.86 Q254.937 1468.73 253.109 1465.19 Q251.303 1461.62 247.669 1461.62 M247.669 1457.92 Q253.479 1457.92 256.534 1462.53 Q259.613 1467.11 259.613 1475.86 Q259.613 1484.59 256.534 1489.19 Q253.479 1493.78 247.669 1493.78 Q241.859 1493.78 238.78 1489.19 Q235.724 1484.59 235.724 1475.86 Q235.724 1467.11 238.78 1462.53 Q241.859 1457.92 247.669 1457.92 Z" fill="#000000" fill-rule="evenodd" fill-opacity="1" /><path clip-path="url(#clip360)" d="M 0 0 M259.613 1452.02 L283.725 1452.02 L283.725 1455.22 L259.613 1455.22 L259.613 1452.02 Z" fill="#000000" fill-rule="evenodd" fill-opacity="1" /><path clip-path="url(#clip360)" d="M 0 0 M295.969 1440.11 Q293.035 1440.11 291.549 1443.01 Q290.082 1445.89 290.082 1451.68 Q290.082 1457.46 291.549 1460.35 Q293.035 1463.23 295.969 1463.23 Q298.921 1463.23 300.388 1460.35 Q301.874 1457.46 301.874 1451.68 Q301.874 1445.89 300.388 1443.01 Q298.921 1440.11 295.969 1440.11 M295.969 1437.11 Q300.689 1437.11 303.172 1440.85 Q305.673 1444.57 305.673 1451.68 Q305.673 1458.77 303.172 1462.51 Q300.689 1466.24 295.969 1466.24 Q291.248 1466.24 288.746 1462.51 Q286.264 1458.77 286.264 1451.68 Q286.264 1444.57 288.746 1440.85 Q291.248 1437.11 295.969 1437.11 Z" fill="#000000" fill-rule="evenodd" fill-opacity="1" /><path clip-path="url(#clip360)" d="M 0 0 M309.792 1460.92 L313.761 1460.92 L313.761 1465.69 L309.792 1465.69 L309.792 1460.92 Z" fill="#000000" fill-rule="evenodd" fill-opacity="1" /><path clip-path="url(#clip360)" d="M 0 0 M317.917 1437.61 L332.832 1437.61 L332.832 1440.81 L321.397 1440.81 L321.397 1447.69 Q322.224 1447.41 323.052 1447.28 Q323.879 1447.13 324.707 1447.13 Q329.409 1447.13 332.155 1449.71 Q334.901 1452.28 334.901 1456.68 Q334.901 1461.22 332.079 1463.74 Q329.258 1466.24 324.124 1466.24 Q322.356 1466.24 320.513 1465.94 Q318.688 1465.64 316.732 1465.04 L316.732 1461.22 Q318.425 1462.14 320.231 1462.59 Q322.036 1463.04 324.049 1463.04 Q327.302 1463.04 329.202 1461.33 Q331.101 1459.62 331.101 1456.68 Q331.101 1453.75 329.202 1452.04 Q327.302 1450.33 324.049 1450.33 Q322.525 1450.33 321.002 1450.67 Q319.497 1451 317.917 1451.72 L317.917 1437.61 Z" fill="#000000" fill-rule="evenodd" fill-opacity="1" /><path clip-path="url(#clip360)" d="M 0 0 M538.044 1489.17 L545.683 1489.17 L545.683 1462.8 L537.373 1464.47 L537.373 1460.21 L545.637 1458.54 L550.313 1458.54 L550.313 1489.17 L557.951 1489.17 L557.951 1493.1 L538.044 1493.1 L538.044 1489.17 Z" fill="#000000" fill-rule="evenodd" fill-opacity="1" /><path clip-path="url(#clip360)" d="M 0 0 M573.021 1461.62 Q569.41 1461.62 567.581 1465.19 Q565.775 1468.73 565.775 1475.86 Q565.775 1482.97 567.581 1486.53 Q569.41 1490.07 573.021 1490.07 Q576.655 1490.07 578.461 1486.53 Q580.289 1482.97 580.289 1475.86 Q580.289 1468.73 578.461 1465.19 Q576.655 1461.62 573.021 1461.62 M573.021 1457.92 Q578.831 1457.92 581.886 1462.53 Q584.965 1467.11 584.965 1475.86 Q584.965 1484.59 581.886 1489.19 Q578.831 1493.78 573.021 1493.78 Q567.211 1493.78 564.132 1489.19 Q561.076 1484.59 561.076 1475.86 Q561.076 1467.11 564.132 1462.53 Q567.211 1457.92 573.021 1457.92 Z" fill="#000000" fill-rule="evenodd" fill-opacity="1" /><path clip-path="url(#clip360)" d="M 0 0 M584.965 1452.02 L609.077 1452.02 L609.077 1455.22 L584.965 1455.22 L584.965 1452.02 Z" fill="#000000" fill-rule="evenodd" fill-opacity="1" /><path clip-path="url(#clip360)" d="M 0 0 M621.321 1440.11 Q618.387 1440.11 616.901 1443.01 Q615.434 1445.89 615.434 1451.68 Q615.434 1457.46 616.901 1460.35 Q618.387 1463.23 621.321 1463.23 Q624.273 1463.23 625.74 1460.35 Q627.226 1457.46 627.226 1451.68 Q627.226 1445.89 625.74 1443.01 Q624.273 1440.11 621.321 1440.11 M621.321 1437.11 Q626.041 1437.11 628.524 1440.85 Q631.025 1444.57 631.025 1451.68 Q631.025 1458.77 628.524 1462.51 Q626.041 1466.24 621.321 1466.24 Q616.6 1466.24 614.098 1462.51 Q611.616 1458.77 611.616 1451.68 Q611.616 1444.57 614.098 1440.85 Q616.6 1437.11 621.321 1437.11 Z" fill="#000000" fill-rule="evenodd" fill-opacity="1" /><path clip-path="url(#clip360)" d="M 0 0 M635.144 1460.92 L639.113 1460.92 L639.113 1465.69 L635.144 1465.69 L635.144 1460.92 Z" fill="#000000" fill-rule="evenodd" fill-opacity="1" /><path clip-path="url(#clip360)" d="M 0 0 M653.67 1440.92 L644.078 1455.91 L653.67 1455.91 L653.67 1440.92 M652.673 1437.61 L657.45 1437.61 L657.45 1455.91 L661.456 1455.91 L661.456 1459.07 L657.45 1459.07 L657.45 1465.69 L653.67 1465.69 L653.67 1459.07 L640.993 1459.07 L640.993 1455.41 L652.673 1437.61 Z" fill="#000000" fill-rule="evenodd" fill-opacity="1" /><path clip-path="url(#clip360)" d="M 0 0 M864.459 1489.17 L872.098 1489.17 L872.098 1462.8 L863.787 1464.47 L863.787 1460.21 L872.051 1458.54 L876.727 1458.54 L876.727 1489.17 L884.366 1489.17 L884.366 1493.1 L864.459 1493.1 L864.459 1489.17 Z" fill="#000000" fill-rule="evenodd" fill-opacity="1" /><path clip-path="url(#clip360)" d="M 0 0 M899.435 1461.62 Q895.824 1461.62 893.996 1465.19 Q892.19 1468.73 892.19 1475.86 Q892.19 1482.97 893.996 1486.53 Q895.824 1490.07 899.435 1490.07 Q903.07 1490.07 904.875 1486.53 Q906.704 1482.97 906.704 1475.86 Q906.704 1468.73 904.875 1465.19 Q903.07 1461.62 899.435 1461.62 M899.435 1457.92 Q905.245 1457.92 908.301 1462.53 Q911.38 1467.11 911.38 1475.86 Q911.38 1484.59 908.301 1489.19 Q905.245 1493.78 899.435 1493.78 Q893.625 1493.78 890.546 1489.19 Q887.491 1484.59 887.491 1475.86 Q887.491 1467.11 890.546 1462.53 Q893.625 1457.92 899.435 1457.92 Z" fill="#000000" fill-rule="evenodd" fill-opacity="1" /><path clip-path="url(#clip360)" d="M 0 0 M911.38 1452.02 L935.491 1452.02 L935.491 1455.22 L911.38 1455.22 L911.38 1452.02 Z" fill="#000000" fill-rule="evenodd" fill-opacity="1" /><path clip-path="url(#clip360)" d="M 0 0 M947.735 1440.11 Q944.801 1440.11 943.315 1443.01 Q941.848 1445.89 941.848 1451.68 Q941.848 1457.46 943.315 1460.35 Q944.801 1463.23 947.735 1463.23 Q950.688 1463.23 952.155 1460.35 Q953.641 1457.46 953.641 1451.68 Q953.641 1445.89 952.155 1443.01 Q950.688 1440.11 947.735 1440.11 M947.735 1437.11 Q952.456 1437.11 954.938 1440.85 Q957.44 1444.57 957.44 1451.68 Q957.44 1458.77 954.938 1462.51 Q952.456 1466.24 947.735 1466.24 Q943.014 1466.24 940.513 1462.51 Q938.03 1458.77 938.03 1451.68 Q938.03 1444.57 940.513 1440.85 Q943.014 1437.11 947.735 1437.11 Z" fill="#000000" fill-rule="evenodd" fill-opacity="1" /><path clip-path="url(#clip360)" d="M 0 0 M961.559 1460.92 L965.527 1460.92 L965.527 1465.69 L961.559 1465.69 L961.559 1460.92 Z" fill="#000000" fill-rule="evenodd" fill-opacity="1" /><path clip-path="url(#clip360)" d="M 0 0 M981.157 1450.55 Q983.884 1451.14 985.407 1452.98 Q986.949 1454.82 986.949 1457.53 Q986.949 1461.69 984.091 1463.96 Q981.232 1466.24 975.966 1466.24 Q974.198 1466.24 972.317 1465.88 Q970.455 1465.54 968.461 1464.85 L968.461 1461.18 Q970.041 1462.1 971.922 1462.57 Q973.803 1463.04 975.853 1463.04 Q979.426 1463.04 981.288 1461.63 Q983.169 1460.22 983.169 1457.53 Q983.169 1455.05 981.42 1453.66 Q979.69 1452.25 976.586 1452.25 L973.314 1452.25 L973.314 1449.12 L976.737 1449.12 Q979.539 1449.12 981.025 1448.01 Q982.511 1446.89 982.511 1444.78 Q982.511 1442.62 980.968 1441.47 Q979.445 1440.3 976.586 1440.3 Q975.025 1440.3 973.238 1440.64 Q971.452 1440.98 969.308 1441.69 L969.308 1438.31 Q971.471 1437.71 973.351 1437.41 Q975.251 1437.11 976.925 1437.11 Q981.251 1437.11 983.771 1439.08 Q986.291 1441.04 986.291 1444.38 Q986.291 1446.72 984.956 1448.33 Q983.62 1449.93 981.157 1450.55 Z" fill="#000000" fill-rule="evenodd" fill-opacity="1" /><path clip-path="url(#clip360)" d="M 0 0 M1190.8 1489.17 L1198.44 1489.17 L1198.44 1462.8 L1190.13 1464.47 L1190.13 1460.21 L1198.39 1458.54 L1203.07 1458.54 L1203.07 1489.17 L1210.71 1489.17 L1210.71 1493.1 L1190.8 1493.1 L1190.8 1489.17 Z" fill="#000000" fill-rule="evenodd" fill-opacity="1" /><path clip-path="url(#clip360)" d="M 0 0 M1225.77 1461.62 Q1222.16 1461.62 1220.33 1465.19 Q1218.53 1468.73 1218.53 1475.86 Q1218.53 1482.97 1220.33 1486.53 Q1222.16 1490.07 1225.77 1490.07 Q1229.41 1490.07 1231.21 1486.53 Q1233.04 1482.97 1233.04 1475.86 Q1233.04 1468.73 1231.21 1465.19 Q1229.41 1461.62 1225.77 1461.62 M1225.77 1457.92 Q1231.58 1457.92 1234.64 1462.53 Q1237.72 1467.11 1237.72 1475.86 Q1237.72 1484.59 1234.64 1489.19 Q1231.58 1493.78 1225.77 1493.78 Q1219.96 1493.78 1216.89 1489.19 Q1213.83 1484.59 1213.83 1475.86 Q1213.83 1467.11 1216.89 1462.53 Q1219.96 1457.92 1225.77 1457.92 Z" fill="#000000" fill-rule="evenodd" fill-opacity="1" /><path clip-path="url(#clip360)" d="M 0 0 M1237.72 1452.02 L1261.83 1452.02 L1261.83 1455.22 L1237.72 1455.22 L1237.72 1452.02 Z" fill="#000000" fill-rule="evenodd" fill-opacity="1" /><path clip-path="url(#clip360)" d="M 0 0 M1274.07 1440.11 Q1271.14 1440.11 1269.65 1443.01 Q1268.19 1445.89 1268.19 1451.68 Q1268.19 1457.46 1269.65 1460.35 Q1271.14 1463.23 1274.07 1463.23 Q1277.03 1463.23 1278.49 1460.35 Q1279.98 1457.46 1279.98 1451.68 Q1279.98 1445.89 1278.49 1443.01 Q1277.03 1440.11 1274.07 1440.11 M1274.07 1437.11 Q1278.8 1437.11 1281.28 1440.85 Q1283.78 1444.57 1283.78 1451.68 Q1283.78 1458.77 1281.28 1462.51 Q1278.8 1466.24 1274.07 1466.24 Q1269.35 1466.24 1266.85 1462.51 Q1264.37 1458.77 1264.37 1451.68 Q1264.37 1444.57 1266.85 1440.85 Q1269.35 1437.11 1274.07 1437.11 Z" fill="#000000" fill-rule="evenodd" fill-opacity="1" /><path clip-path="url(#clip360)" d="M 0 0 M1287.9 1460.92 L1291.87 1460.92 L1291.87 1465.69 L1287.9 1465.69 L1287.9 1460.92 Z" fill="#000000" fill-rule="evenodd" fill-opacity="1" /><path clip-path="url(#clip360)" d="M 0 0 M1299.26 1462.5 L1312.52 1462.5 L1312.52 1465.69 L1294.69 1465.69 L1294.69 1462.5 Q1296.85 1460.26 1300.57 1456.5 Q1304.32 1452.72 1305.28 1451.63 Q1307.1 1449.58 1307.82 1448.16 Q1308.55 1446.74 1308.55 1445.36 Q1308.55 1443.12 1306.97 1441.71 Q1305.41 1440.3 1302.89 1440.3 Q1301.1 1440.3 1299.11 1440.92 Q1297.13 1441.54 1294.88 1442.8 L1294.88 1438.97 Q1297.17 1438.05 1299.16 1437.58 Q1301.16 1437.11 1302.81 1437.11 Q1307.18 1437.11 1309.77 1439.29 Q1312.37 1441.47 1312.37 1445.12 Q1312.37 1446.85 1311.71 1448.41 Q1311.07 1449.95 1309.36 1452.06 Q1308.89 1452.6 1306.37 1455.22 Q1303.85 1457.81 1299.26 1462.5 Z" fill="#000000" fill-rule="evenodd" fill-opacity="1" /><path clip-path="url(#clip360)" d="M 0 0 M1516.6 1489.17 L1524.24 1489.17 L1524.24 1462.8 L1515.93 1464.47 L1515.93 1460.21 L1524.19 1458.54 L1528.87 1458.54 L1528.87 1489.17 L1536.51 1489.17 L1536.51 1493.1 L1516.6 1493.1 L1516.6 1489.17 Z" fill="#000000" fill-rule="evenodd" fill-opacity="1" /><path clip-path="url(#clip360)" d="M 0 0 M1551.58 1461.62 Q1547.97 1461.62 1546.14 1465.19 Q1544.33 1468.73 1544.33 1475.86 Q1544.33 1482.97 1546.14 1486.53 Q1547.97 1490.07 1551.58 1490.07 Q1555.21 1490.07 1557.02 1486.53 Q1558.85 1482.97 1558.85 1475.86 Q1558.85 1468.73 1557.02 1465.19 Q1555.21 1461.62 1551.58 1461.62 M1551.58 1457.92 Q1557.39 1457.92 1560.44 1462.53 Q1563.52 1467.11 1563.52 1475.86 Q1563.52 1484.59 1560.44 1489.19 Q1557.39 1493.78 1551.58 1493.78 Q1545.77 1493.78 1542.69 1489.19 Q1539.63 1484.59 1539.63 1475.86 Q1539.63 1467.11 1542.69 1462.53 Q1545.77 1457.92 1551.58 1457.92 Z" fill="#000000" fill-rule="evenodd" fill-opacity="1" /><path clip-path="url(#clip360)" d="M 0 0 M1563.52 1452.02 L1587.63 1452.02 L1587.63 1455.22 L1563.52 1455.22 L1563.52 1452.02 Z" fill="#000000" fill-rule="evenodd" fill-opacity="1" /><path clip-path="url(#clip360)" d="M 0 0 M1599.88 1440.11 Q1596.94 1440.11 1595.46 1443.01 Q1593.99 1445.89 1593.99 1451.68 Q1593.99 1457.46 1595.46 1460.35 Q1596.94 1463.23 1599.88 1463.23 Q1602.83 1463.23 1604.3 1460.35 Q1605.78 1457.46 1605.78 1451.68 Q1605.78 1445.89 1604.3 1443.01 Q1602.83 1440.11 1599.88 1440.11 M1599.88 1437.11 Q1604.6 1437.11 1607.08 1440.85 Q1609.58 1444.57 1609.58 1451.68 Q1609.58 1458.77 1607.08 1462.51 Q1604.6 1466.24 1599.88 1466.24 Q1595.16 1466.24 1592.66 1462.51 Q1590.17 1458.77 1590.17 1451.68 Q1590.17 1444.57 1592.66 1440.85 Q1595.16 1437.11 1599.88 1437.11 Z" fill="#000000" fill-rule="evenodd" fill-opacity="1" /><path clip-path="url(#clip360)" d="M 0 0 M1613.7 1460.92 L1617.67 1460.92 L1617.67 1465.69 L1613.7 1465.69 L1613.7 1460.92 Z" fill="#000000" fill-rule="evenodd" fill-opacity="1" /><path clip-path="url(#clip360)" d="M 0 0 M1622.45 1462.5 L1628.65 1462.5 L1628.65 1441.07 L1621.9 1442.43 L1621.9 1438.97 L1628.62 1437.61 L1632.42 1437.61 L1632.42 1462.5 L1638.62 1462.5 L1638.62 1465.69 L1622.45 1465.69 L1622.45 1462.5 Z" fill="#000000" fill-rule="evenodd" fill-opacity="1" /><path clip-path="url(#clip360)" d="M 0 0 M1855.38 1489.17 L1863.02 1489.17 L1863.02 1462.8 L1854.71 1464.47 L1854.71 1460.21 L1862.97 1458.54 L1867.65 1458.54 L1867.65 1489.17 L1875.29 1489.17 L1875.29 1493.1 L1855.38 1493.1 L1855.38 1489.17 Z" fill="#000000" fill-rule="evenodd" fill-opacity="1" /><path clip-path="url(#clip360)" d="M 0 0 M1890.36 1461.62 Q1886.75 1461.62 1884.92 1465.19 Q1883.11 1468.73 1883.11 1475.86 Q1883.11 1482.97 1884.92 1486.53 Q1886.75 1490.07 1890.36 1490.07 Q1893.99 1490.07 1895.8 1486.53 Q1897.63 1482.97 1897.63 1475.86 Q1897.63 1468.73 1895.8 1465.19 Q1893.99 1461.62 1890.36 1461.62 M1890.36 1457.92 Q1896.17 1457.92 1899.22 1462.53 Q1902.3 1467.11 1902.3 1475.86 Q1902.3 1484.59 1899.22 1489.19 Q1896.17 1493.78 1890.36 1493.78 Q1884.55 1493.78 1881.47 1489.19 Q1878.41 1484.59 1878.41 1475.86 Q1878.41 1467.11 1881.47 1462.53 Q1884.55 1457.92 1890.36 1457.92 Z" fill="#000000" fill-rule="evenodd" fill-opacity="1" /><path clip-path="url(#clip360)" d="M 0 0 M1912.01 1440.11 Q1909.07 1440.11 1907.59 1443.01 Q1906.12 1445.89 1906.12 1451.68 Q1906.12 1457.46 1907.59 1460.35 Q1909.07 1463.23 1912.01 1463.23 Q1914.96 1463.23 1916.43 1460.35 Q1917.91 1457.46 1917.91 1451.68 Q1917.91 1445.89 1916.43 1443.01 Q1914.96 1440.11 1912.01 1440.11 M1912.01 1437.11 Q1916.73 1437.11 1919.21 1440.85 Q1921.71 1444.57 1921.71 1451.68 Q1921.71 1458.77 1919.21 1462.51 Q1916.73 1466.24 1912.01 1466.24 Q1907.29 1466.24 1904.79 1462.51 Q1902.3 1458.77 1902.3 1451.68 Q1902.3 1444.57 1904.79 1440.85 Q1907.29 1437.11 1912.01 1437.11 Z" fill="#000000" fill-rule="evenodd" fill-opacity="1" /><path clip-path="url(#clip360)" d="M 0 0 M1925.83 1460.92 L1929.8 1460.92 L1929.8 1465.69 L1925.83 1465.69 L1925.83 1460.92 Z" fill="#000000" fill-rule="evenodd" fill-opacity="1" /><path clip-path="url(#clip360)" d="M 0 0 M1942.04 1440.11 Q1939.11 1440.11 1937.62 1443.01 Q1936.16 1445.89 1936.16 1451.68 Q1936.16 1457.46 1937.62 1460.35 Q1939.11 1463.23 1942.04 1463.23 Q1945 1463.23 1946.46 1460.35 Q1947.95 1457.46 1947.95 1451.68 Q1947.95 1445.89 1946.46 1443.01 Q1945 1440.11 1942.04 1440.11 M1942.04 1437.11 Q1946.76 1437.11 1949.25 1440.85 Q1951.75 1444.57 1951.75 1451.68 Q1951.75 1458.77 1949.25 1462.51 Q1946.76 1466.24 1942.04 1466.24 Q1937.32 1466.24 1934.82 1462.51 Q1932.34 1458.77 1932.34 1451.68 Q1932.34 1444.57 1934.82 1440.85 Q1937.32 1437.11 1942.04 1437.11 Z" fill="#000000" fill-rule="evenodd" fill-opacity="1" /><path clip-path="url(#clip360)" d="M 0 0 M2181.83 1489.17 L2189.47 1489.17 L2189.47 1462.8 L2181.16 1464.47 L2181.16 1460.21 L2189.43 1458.54 L2194.1 1458.54 L2194.1 1489.17 L2201.74 1489.17 L2201.74 1493.1 L2181.83 1493.1 L2181.83 1489.17 Z" fill="#000000" fill-rule="evenodd" fill-opacity="1" /><path clip-path="url(#clip360)" d="M 0 0 M2216.81 1461.62 Q2213.2 1461.62 2211.37 1465.19 Q2209.57 1468.73 2209.57 1475.86 Q2209.57 1482.97 2211.37 1486.53 Q2213.2 1490.07 2216.81 1490.07 Q2220.45 1490.07 2222.25 1486.53 Q2224.08 1482.97 2224.08 1475.86 Q2224.08 1468.73 2222.25 1465.19 Q2220.45 1461.62 2216.81 1461.62 M2216.81 1457.92 Q2222.62 1457.92 2225.68 1462.53 Q2228.76 1467.11 2228.76 1475.86 Q2228.76 1484.59 2225.68 1489.19 Q2222.62 1493.78 2216.81 1493.78 Q2211 1493.78 2207.92 1489.19 Q2204.87 1484.59 2204.87 1475.86 Q2204.87 1467.11 2207.92 1462.53 Q2211 1457.92 2216.81 1457.92 Z" fill="#000000" fill-rule="evenodd" fill-opacity="1" /><path clip-path="url(#clip360)" d="M 0 0 M2238.46 1440.11 Q2235.53 1440.11 2234.04 1443.01 Q2232.57 1445.89 2232.57 1451.68 Q2232.57 1457.46 2234.04 1460.35 Q2235.53 1463.23 2238.46 1463.23 Q2241.41 1463.23 2242.88 1460.35 Q2244.37 1457.46 2244.37 1451.68 Q2244.37 1445.89 2242.88 1443.01 Q2241.41 1440.11 2238.46 1440.11 M2238.46 1437.11 Q2243.18 1437.11 2245.66 1440.85 Q2248.16 1444.57 2248.16 1451.68 Q2248.16 1458.77 2245.66 1462.51 Q2243.18 1466.24 2238.46 1466.24 Q2233.74 1466.24 2231.24 1462.51 Q2228.76 1458.77 2228.76 1451.68 Q2228.76 1444.57 2231.24 1440.85 Q2233.74 1437.11 2238.46 1437.11 Z" fill="#000000" fill-rule="evenodd" fill-opacity="1" /><path clip-path="url(#clip360)" d="M 0 0 M2252.28 1460.92 L2256.25 1460.92 L2256.25 1465.69 L2252.28 1465.69 L2252.28 1460.92 Z" fill="#000000" fill-rule="evenodd" fill-opacity="1" /><path clip-path="url(#clip360)" d="M 0 0 M2261.03 1462.5 L2267.24 1462.5 L2267.24 1441.07 L2260.48 1442.43 L2260.48 1438.97 L2267.2 1437.61 L2271 1437.61 L2271 1462.5 L2277.2 1462.5 L2277.2 1465.69 L2261.03 1465.69 L2261.03 1462.5 Z" fill="#000000" fill-rule="evenodd" fill-opacity="1" /><path clip-path="url(#clip360)" d="M 0 0 M1175.1 1526.54 L1181.31 1526.54 L1192.45 1556.46 L1203.59 1526.54 L1209.8 1526.54 L1196.43 1562.19 L1188.47 1562.19 L1175.1 1526.54 Z" fill="#000000" fill-rule="evenodd" fill-opacity="1" /><path clip-path="url(#clip360)" d="M 0 0 M1243.03 1573.01 L1243.03 1577.56 L1209.16 1577.56 L1209.16 1573.01 L1243.03 1573.01 Z" fill="#000000" fill-rule="evenodd" fill-opacity="1" /><path clip-path="url(#clip360)" d="M 0 0 M1274.82 1527.91 L1274.82 1533.38 Q1272.34 1532.01 1269.83 1531.34 Q1267.34 1530.64 1264.8 1530.64 Q1259.1 1530.64 1255.95 1534.27 Q1252.8 1537.87 1252.8 1544.39 Q1252.8 1550.92 1255.95 1554.55 Q1259.1 1558.14 1264.8 1558.14 Q1267.34 1558.14 1269.83 1557.47 Q1272.34 1556.77 1274.82 1555.41 L1274.82 1560.82 Q1272.37 1561.96 1269.73 1562.54 Q1267.12 1563.11 1264.16 1563.11 Q1256.11 1563.11 1251.36 1558.05 Q1246.62 1552.99 1246.62 1544.39 Q1246.62 1535.67 1251.4 1530.68 Q1256.2 1525.68 1264.54 1525.68 Q1267.25 1525.68 1269.83 1526.25 Q1272.4 1526.79 1274.82 1527.91 Z" fill="#000000" fill-rule="evenodd" fill-opacity="1" /><path clip-path="url(#clip360)" d="M 0 0 M1280.97 1512.66 L1286.82 1512.66 L1286.82 1562.19 L1280.97 1562.19 L1280.97 1512.66 Z" fill="#000000" fill-rule="evenodd" fill-opacity="1" /><path clip-path="url(#clip360)" d="M 0 0 M1306.78 1530.64 Q1302.07 1530.64 1299.33 1534.34 Q1296.59 1538 1296.59 1544.39 Q1296.59 1550.79 1299.3 1554.48 Q1302.04 1558.14 1306.78 1558.14 Q1311.46 1558.14 1314.19 1554.45 Q1316.93 1550.76 1316.93 1544.39 Q1316.93 1538.06 1314.19 1534.37 Q1311.46 1530.64 1306.78 1530.64 M1306.78 1525.68 Q1314.42 1525.68 1318.78 1530.64 Q1323.14 1535.61 1323.14 1544.39 Q1323.14 1553.15 1318.78 1558.14 Q1314.42 1563.11 1306.78 1563.11 Q1299.11 1563.11 1294.75 1558.14 Q1290.42 1553.15 1290.42 1544.39 Q1290.42 1535.61 1294.75 1530.64 Q1299.11 1525.68 1306.78 1525.68 Z" fill="#000000" fill-rule="evenodd" fill-opacity="1" /><path clip-path="url(#clip360)" d="M 0 0 M1352.01 1527.59 L1352.01 1533.13 Q1349.52 1531.85 1346.85 1531.22 Q1344.18 1530.58 1341.31 1530.58 Q1336.95 1530.58 1334.76 1531.92 Q1332.59 1533.25 1332.59 1535.93 Q1332.59 1537.96 1334.15 1539.14 Q1335.71 1540.29 1340.42 1541.34 L1342.43 1541.78 Q1348.66 1543.12 1351.27 1545.57 Q1353.92 1547.99 1353.92 1552.35 Q1353.92 1557.32 1349.97 1560.21 Q1346.05 1563.11 1339.18 1563.11 Q1336.32 1563.11 1333.2 1562.54 Q1330.11 1561.99 1326.67 1560.88 L1326.67 1554.83 Q1329.92 1556.52 1333.07 1557.38 Q1336.22 1558.21 1339.31 1558.21 Q1343.44 1558.21 1345.67 1556.81 Q1347.9 1555.37 1347.9 1552.8 Q1347.9 1550.41 1346.28 1549.14 Q1344.69 1547.86 1339.24 1546.68 L1337.21 1546.21 Q1331.76 1545.06 1329.34 1542.71 Q1326.93 1540.32 1326.93 1536.18 Q1326.93 1531.15 1330.49 1528.42 Q1334.06 1525.68 1340.61 1525.68 Q1343.86 1525.68 1346.72 1526.16 Q1349.59 1526.63 1352.01 1527.59 Z" fill="#000000" fill-rule="evenodd" fill-opacity="1" /><path clip-path="url(#clip360)" d="M 0 0 M1390.55 1542.9 L1390.55 1545.76 L1363.62 1545.76 Q1364.01 1551.81 1367.25 1554.99 Q1370.53 1558.14 1376.36 1558.14 Q1379.73 1558.14 1382.88 1557.32 Q1386.06 1556.49 1389.18 1554.83 L1389.18 1560.37 Q1386.03 1561.71 1382.72 1562.41 Q1379.41 1563.11 1376.01 1563.11 Q1367.48 1563.11 1362.48 1558.14 Q1357.51 1553.18 1357.51 1544.71 Q1357.51 1535.96 1362.22 1530.83 Q1366.97 1525.68 1374.99 1525.68 Q1382.18 1525.68 1386.35 1530.33 Q1390.55 1534.94 1390.55 1542.9 M1384.69 1541.18 Q1384.63 1536.37 1381.99 1533.51 Q1379.38 1530.64 1375.05 1530.64 Q1370.15 1530.64 1367.19 1533.41 Q1364.26 1536.18 1363.82 1541.21 L1384.69 1541.18 Z" fill="#000000" fill-rule="evenodd" fill-opacity="1" /><polyline clip-path="url(#clip362)" style="stroke:#000000; stroke-width:2; stroke-opacity:0.1; fill:none" points="
  212.899,1285.4 2352.76,1285.4 
  "/>
<polyline clip-path="url(#clip362)" style="stroke:#000000; stroke-width:2; stroke-opacity:0.1; fill:none" points="
  212.899,1028.11 2352.76,1028.11 
  "/>
<polyline clip-path="url(#clip362)" style="stroke:#000000; stroke-width:2; stroke-opacity:0.1; fill:none" points="
  212.899,770.815 2352.76,770.815 
  "/>
<polyline clip-path="url(#clip362)" style="stroke:#000000; stroke-width:2; stroke-opacity:0.1; fill:none" points="
  212.899,513.522 2352.76,513.522 
  "/>
<polyline clip-path="url(#clip362)" style="stroke:#000000; stroke-width:2; stroke-opacity:0.1; fill:none" points="
  212.899,256.229 2352.76,256.229 
  "/>
<polyline clip-path="url(#clip360)" style="stroke:#000000; stroke-width:4; stroke-opacity:1; fill:none" points="
  212.899,1410.9 212.899,47.2441 
  "/>
<polyline clip-path="url(#clip360)" style="stroke:#000000; stroke-width:4; stroke-opacity:1; fill:none" points="
  212.899,1285.4 238.577,1285.4 
  "/>
<polyline clip-path="url(#clip360)" style="stroke:#000000; stroke-width:4; stroke-opacity:1; fill:none" points="
  212.899,1028.11 238.577,1028.11 
  "/>
<polyline clip-path="url(#clip360)" style="stroke:#000000; stroke-width:4; stroke-opacity:1; fill:none" points="
  212.899,770.815 238.577,770.815 
  "/>
<polyline clip-path="url(#clip360)" style="stroke:#000000; stroke-width:4; stroke-opacity:1; fill:none" points="
  212.899,513.522 238.577,513.522 
  "/>
<polyline clip-path="url(#clip360)" style="stroke:#000000; stroke-width:4; stroke-opacity:1; fill:none" points="
  212.899,256.229 238.577,256.229 
  "/>
<path clip-path="url(#clip360)" d="M 0 0 M130.348 1272.2 L118.543 1290.64 L130.348 1290.64 L130.348 1272.2 M129.121 1268.12 L135.001 1268.12 L135.001 1290.64 L139.931 1290.64 L139.931 1294.53 L135.001 1294.53 L135.001 1302.68 L130.348 1302.68 L130.348 1294.53 L114.746 1294.53 L114.746 1290.02 L129.121 1268.12 Z" fill="#000000" fill-rule="evenodd" fill-opacity="1" /><path clip-path="url(#clip360)" d="M 0 0 M145.001 1296.8 L149.885 1296.8 L149.885 1302.68 L145.001 1302.68 L145.001 1296.8 Z" fill="#000000" fill-rule="evenodd" fill-opacity="1" /><path clip-path="url(#clip360)" d="M 0 0 M164.954 1271.2 Q161.343 1271.2 159.515 1274.76 Q157.709 1278.31 157.709 1285.44 Q157.709 1292.54 159.515 1296.11 Q161.343 1299.65 164.954 1299.65 Q168.589 1299.65 170.394 1296.11 Q172.223 1292.54 172.223 1285.44 Q172.223 1278.31 170.394 1274.76 Q168.589 1271.2 164.954 1271.2 M164.954 1267.5 Q170.764 1267.5 173.82 1272.1 Q176.899 1276.69 176.899 1285.44 Q176.899 1294.16 173.82 1298.77 Q170.764 1303.35 164.954 1303.35 Q159.144 1303.35 156.065 1298.77 Q153.01 1294.16 153.01 1285.44 Q153.01 1276.69 156.065 1272.1 Q159.144 1267.5 164.954 1267.5 Z" fill="#000000" fill-rule="evenodd" fill-opacity="1" /><path clip-path="url(#clip360)" d="M 0 0 M131.945 1014.9 L120.14 1033.35 L131.945 1033.35 L131.945 1014.9 M130.718 1010.83 L136.598 1010.83 L136.598 1033.35 L141.529 1033.35 L141.529 1037.24 L136.598 1037.24 L136.598 1045.39 L131.945 1045.39 L131.945 1037.24 L116.343 1037.24 L116.343 1032.73 L130.718 1010.83 Z" fill="#000000" fill-rule="evenodd" fill-opacity="1" /><path clip-path="url(#clip360)" d="M 0 0 M146.598 1039.51 L151.482 1039.51 L151.482 1045.39 L146.598 1045.39 L146.598 1039.51 Z" fill="#000000" fill-rule="evenodd" fill-opacity="1" /><path clip-path="url(#clip360)" d="M 0 0 M160.579 1041.45 L176.899 1041.45 L176.899 1045.39 L154.954 1045.39 L154.954 1041.45 Q157.616 1038.7 162.2 1034.07 Q166.806 1029.42 167.987 1028.07 Q170.232 1025.55 171.112 1023.81 Q172.014 1022.06 172.014 1020.37 Q172.014 1017.61 170.07 1015.87 Q168.149 1014.14 165.047 1014.14 Q162.848 1014.14 160.394 1014.9 Q157.964 1015.67 155.186 1017.22 L155.186 1012.49 Q158.01 1011.36 160.464 1010.78 Q162.917 1010.2 164.954 1010.2 Q170.325 1010.2 173.519 1012.89 Q176.714 1015.57 176.714 1020.06 Q176.714 1022.19 175.903 1024.12 Q175.116 1026.01 173.01 1028.61 Q172.431 1029.28 169.329 1032.49 Q166.227 1035.69 160.579 1041.45 Z" fill="#000000" fill-rule="evenodd" fill-opacity="1" /><path clip-path="url(#clip360)" d="M 0 0 M129.862 757.609 L118.056 776.058 L129.862 776.058 L129.862 757.609 M128.635 753.535 L134.515 753.535 L134.515 776.058 L139.445 776.058 L139.445 779.947 L134.515 779.947 L134.515 788.095 L129.862 788.095 L129.862 779.947 L114.26 779.947 L114.26 775.433 L128.635 753.535 Z" fill="#000000" fill-rule="evenodd" fill-opacity="1" /><path clip-path="url(#clip360)" d="M 0 0 M144.515 782.216 L149.399 782.216 L149.399 788.095 L144.515 788.095 L144.515 782.216 Z" fill="#000000" fill-rule="evenodd" fill-opacity="1" /><path clip-path="url(#clip360)" d="M 0 0 M167.315 757.609 L155.51 776.058 L167.315 776.058 L167.315 757.609 M166.089 753.535 L171.968 753.535 L171.968 776.058 L176.899 776.058 L176.899 779.947 L171.968 779.947 L171.968 788.095 L167.315 788.095 L167.315 779.947 L151.714 779.947 L151.714 775.433 L166.089 753.535 Z" fill="#000000" fill-rule="evenodd" fill-opacity="1" /><path clip-path="url(#clip360)" d="M 0 0 M130.186 500.316 L118.381 518.765 L130.186 518.765 L130.186 500.316 M128.959 496.242 L134.839 496.242 L134.839 518.765 L139.769 518.765 L139.769 522.654 L134.839 522.654 L134.839 530.802 L130.186 530.802 L130.186 522.654 L114.584 522.654 L114.584 518.14 L128.959 496.242 Z" fill="#000000" fill-rule="evenodd" fill-opacity="1" /><path clip-path="url(#clip360)" d="M 0 0 M144.839 524.923 L149.723 524.923 L149.723 530.802 L144.839 530.802 L144.839 524.923 Z" fill="#000000" fill-rule="evenodd" fill-opacity="1" /><path clip-path="url(#clip360)" d="M 0 0 M165.371 511.659 Q162.223 511.659 160.371 513.812 Q158.542 515.964 158.542 519.714 Q158.542 523.441 160.371 525.617 Q162.223 527.77 165.371 527.77 Q168.519 527.77 170.348 525.617 Q172.2 523.441 172.2 519.714 Q172.2 515.964 170.348 513.812 Q168.519 511.659 165.371 511.659 M174.653 497.006 L174.653 501.265 Q172.894 500.432 171.089 499.992 Q169.306 499.553 167.547 499.553 Q162.917 499.553 160.464 502.678 Q158.033 505.802 157.686 512.122 Q159.052 510.108 161.112 509.043 Q163.172 507.955 165.649 507.955 Q170.857 507.955 173.866 511.127 Q176.899 514.275 176.899 519.714 Q176.899 525.039 173.751 528.256 Q170.602 531.474 165.371 531.474 Q159.376 531.474 156.204 526.89 Q153.033 522.284 153.033 513.557 Q153.033 505.363 156.922 500.502 Q160.811 495.617 167.362 495.617 Q169.121 495.617 170.903 495.965 Q172.709 496.312 174.653 497.006 Z" fill="#000000" fill-rule="evenodd" fill-opacity="1" /><path clip-path="url(#clip360)" d="M 0 0 M130.441 243.023 L118.635 261.472 L130.441 261.472 L130.441 243.023 M129.214 238.949 L135.093 238.949 L135.093 261.472 L140.024 261.472 L140.024 265.361 L135.093 265.361 L135.093 273.509 L130.441 273.509 L130.441 265.361 L114.839 265.361 L114.839 260.847 L129.214 238.949 Z" fill="#000000" fill-rule="evenodd" fill-opacity="1" /><path clip-path="url(#clip360)" d="M 0 0 M145.093 267.63 L149.978 267.63 L149.978 273.509 L145.093 273.509 L145.093 267.63 Z" fill="#000000" fill-rule="evenodd" fill-opacity="1" /><path clip-path="url(#clip360)" d="M 0 0 M165.047 257.097 Q161.714 257.097 159.792 258.88 Q157.894 260.662 157.894 263.787 Q157.894 266.912 159.792 268.695 Q161.714 270.477 165.047 270.477 Q168.38 270.477 170.302 268.695 Q172.223 266.889 172.223 263.787 Q172.223 260.662 170.302 258.88 Q168.403 257.097 165.047 257.097 M160.371 255.107 Q157.362 254.366 155.672 252.306 Q154.005 250.246 154.005 247.283 Q154.005 243.139 156.945 240.732 Q159.908 238.324 165.047 238.324 Q170.209 238.324 173.149 240.732 Q176.089 243.139 176.089 247.283 Q176.089 250.246 174.399 252.306 Q172.732 254.366 169.746 255.107 Q173.126 255.894 175.001 258.185 Q176.899 260.477 176.899 263.787 Q176.899 268.81 173.82 271.496 Q170.764 274.181 165.047 274.181 Q159.329 274.181 156.251 271.496 Q153.195 268.81 153.195 263.787 Q153.195 260.477 155.093 258.185 Q156.991 255.894 160.371 255.107 M158.658 247.723 Q158.658 250.408 160.325 251.912 Q162.015 253.417 165.047 253.417 Q168.056 253.417 169.746 251.912 Q171.459 250.408 171.459 247.723 Q171.459 245.037 169.746 243.533 Q168.056 242.028 165.047 242.028 Q162.015 242.028 160.325 243.533 Q158.658 245.037 158.658 247.723 Z" fill="#000000" fill-rule="evenodd" fill-opacity="1" /><path clip-path="url(#clip360)" d="M 0 0 M59.1993 815.533 Q55.2526 813.336 53.3747 810.281 Q51.4968 807.225 51.4968 803.088 Q51.4968 797.518 55.4117 794.494 Q59.2948 791.47 66.4881 791.47 L88.0042 791.47 L88.0042 797.358 L66.679 797.358 Q61.5546 797.358 59.072 799.173 Q56.5894 800.987 56.5894 804.711 Q56.5894 809.262 59.6131 811.904 Q62.6368 814.546 67.8567 814.546 L88.0042 814.546 L88.0042 820.434 L66.679 820.434 Q61.5228 820.434 59.072 822.248 Q56.5894 824.063 56.5894 827.85 Q56.5894 832.338 59.6449 834.98 Q62.6686 837.622 67.8567 837.622 L88.0042 837.622 L88.0042 843.51 L52.3562 843.51 L52.3562 837.622 L57.8944 837.622 Q54.616 835.616 53.0564 832.815 Q51.4968 830.015 51.4968 826.163 Q51.4968 822.28 53.4702 819.575 Q55.4436 816.838 59.1993 815.533 Z" fill="#000000" fill-rule="evenodd" fill-opacity="1" /><path clip-path="url(#clip360)" d="M 0 0 M52.3562 785.327 L52.3562 779.471 L88.0042 779.471 L88.0042 785.327 L52.3562 785.327 M38.479 785.327 L38.479 779.471 L45.895 779.471 L45.895 785.327 L38.479 785.327 Z" fill="#000000" fill-rule="evenodd" fill-opacity="1" /><path clip-path="url(#clip360)" d="M 0 0 M66.4881 743.696 L88.0042 743.696 L88.0042 749.552 L66.679 749.552 Q61.6183 749.552 59.1038 751.525 Q56.5894 753.499 56.5894 757.446 Q56.5894 762.188 59.6131 764.925 Q62.6368 767.662 67.8567 767.662 L88.0042 767.662 L88.0042 773.551 L52.3562 773.551 L52.3562 767.662 L57.8944 767.662 Q54.6797 765.562 53.0883 762.729 Q51.4968 759.864 51.4968 756.141 Q51.4968 749.998 55.3163 746.847 Q59.1038 743.696 66.4881 743.696 Z" fill="#000000" fill-rule="evenodd" fill-opacity="1" /><path clip-path="url(#clip360)" d="M 0 0 M98.8259 710.467 L103.377 710.467 L103.377 744.332 L98.8259 744.332 L98.8259 710.467 Z" fill="#000000" fill-rule="evenodd" fill-opacity="1" /><path clip-path="url(#clip360)" d="M 0 0 M57.7671 680.866 L38.479 680.866 L38.479 675.01 L88.0042 675.01 L88.0042 680.866 L82.657 680.866 Q85.8398 682.712 87.3994 685.545 Q88.9272 688.346 88.9272 692.292 Q88.9272 698.754 83.771 702.828 Q78.6147 706.87 70.212 706.87 Q61.8093 706.87 56.6531 702.828 Q51.4968 698.754 51.4968 692.292 Q51.4968 688.346 53.0564 685.545 Q54.5842 682.712 57.7671 680.866 M70.212 700.823 Q76.6732 700.823 80.3653 698.181 Q84.0256 695.507 84.0256 690.86 Q84.0256 686.213 80.3653 683.54 Q76.6732 680.866 70.212 680.866 Q63.7508 680.866 60.0905 683.54 Q56.3984 686.213 56.3984 690.86 Q56.3984 695.507 60.0905 698.181 Q63.7508 700.823 70.212 700.823 Z" fill="#000000" fill-rule="evenodd" fill-opacity="1" /><path clip-path="url(#clip360)" d="M 0 0 M52.3562 668.867 L52.3562 663.01 L88.0042 663.01 L88.0042 668.867 L52.3562 668.867 M38.479 668.867 L38.479 663.01 L45.895 663.01 L45.895 668.867 L38.479 668.867 Z" fill="#000000" fill-rule="evenodd" fill-opacity="1" /><path clip-path="url(#clip360)" d="M 0 0 M38.479 638.821 L43.3487 638.821 L43.3487 644.422 Q43.3487 647.573 44.6219 648.815 Q45.895 650.024 49.2052 650.024 L52.3562 650.024 L52.3562 640.38 L56.9077 640.38 L56.9077 650.024 L88.0042 650.024 L88.0042 655.912 L56.9077 655.912 L56.9077 661.514 L52.3562 661.514 L52.3562 655.912 L49.8736 655.912 Q43.9216 655.912 41.2162 653.143 Q38.479 650.374 38.479 644.359 L38.479 638.821 Z" fill="#000000" fill-rule="evenodd" fill-opacity="1" /><path clip-path="url(#clip360)" d="M 0 0 M38.479 614.631 L43.3487 614.631 L43.3487 620.233 Q43.3487 623.384 44.6219 624.625 Q45.895 625.835 49.2052 625.835 L52.3562 625.835 L52.3562 616.19 L56.9077 616.19 L56.9077 625.835 L88.0042 625.835 L88.0042 631.723 L56.9077 631.723 L56.9077 637.325 L52.3562 637.325 L52.3562 631.723 L49.8736 631.723 Q43.9216 631.723 41.2162 628.954 Q38.479 626.185 38.479 620.169 L38.479 614.631 Z" fill="#000000" fill-rule="evenodd" fill-opacity="1" /><path clip-path="url(#clip360)" d="
M1992.65 213.659 L2281.43 213.659 L2281.43 92.6992 L1992.65 92.6992  Z
  " fill="#ffffff" fill-rule="evenodd" fill-opacity="1"/>
<polyline clip-path="url(#clip360)" style="stroke:#000000; stroke-width:4; stroke-opacity:1; fill:none" points="
  1992.65,213.659 2281.43,213.659 2281.43,92.6992 1992.65,92.6992 1992.65,213.659 
  "/>
<polyline clip-path="url(#clip360)" style="stroke:#009af9; stroke-width:4; stroke-opacity:1; fill:none" stroke-dasharray="16, 10" points="
  2016.42,153.179 2159.08,153.179 
  "/>
<path clip-path="url(#clip360)" d="M 0 0 M2196.7 172.867 Q2194.89 177.496 2193.18 178.908 Q2191.47 180.32 2188.6 180.32 L2185.19 180.32 L2185.19 176.755 L2187.69 176.755 Q2189.45 176.755 2190.43 175.922 Q2191.4 175.089 2192.58 171.987 L2193.34 170.043 L2182.86 144.533 L2187.37 144.533 L2195.47 164.811 L2203.57 144.533 L2208.09 144.533 L2196.7 172.867 Z" fill="#000000" fill-rule="evenodd" fill-opacity="1" /><path clip-path="url(#clip360)" d="M 0 0 M2213.97 166.524 L2221.61 166.524 L2221.61 140.158 L2213.3 141.825 L2213.3 137.566 L2221.56 135.899 L2226.24 135.899 L2226.24 166.524 L2233.87 166.524 L2233.87 170.459 L2213.97 170.459 L2213.97 166.524 Z" fill="#000000" fill-rule="evenodd" fill-opacity="1" /></svg>
