<?xml version="1.0" encoding="utf-8"?>
<svg xmlns="http://www.w3.org/2000/svg" xmlns:xlink="http://www.w3.org/1999/xlink" width="600" height="400" viewBox="0 0 2400 1600">
<defs>
  <clipPath id="clip720">
    <rect x="0" y="0" width="2400" height="1600"/>
  </clipPath>
</defs>
<path clip-path="url(#clip720)" d="
M0 1600 L2400 1600 L2400 0 L0 0  Z
  " fill="#ffffff" fill-rule="evenodd" fill-opacity="1"/>
<defs>
  <clipPath id="clip721">
    <rect x="480" y="0" width="1681" height="1600"/>
  </clipPath>
</defs>
<path clip-path="url(#clip720)" d="
M220.676 1410.9 L2352.76 1410.9 L2352.76 47.2441 L220.676 47.2441  Z
  " fill="#ffffff" fill-rule="evenodd" fill-opacity="1"/>
<defs>
  <clipPath id="clip722">
    <rect x="220" y="47" width="2133" height="1365"/>
  </clipPath>
</defs>
<polyline clip-path="url(#clip722)" style="stroke:#000000; stroke-linecap:butt; stroke-linejoin:round; stroke-width:2; stroke-opacity:0.1; fill:none" points="
  1085.58,1410.9 1085.58,47.2441 
  "/>
<polyline clip-path="url(#clip722)" style="stroke:#000000; stroke-linecap:butt; stroke-linejoin:round; stroke-width:2; stroke-opacity:0.1; fill:none" points="
  2292.41,1410.9 2292.41,47.2441 
  "/>
<polyline clip-path="url(#clip720)" style="stroke:#000000; stroke-linecap:butt; stroke-linejoin:round; stroke-width:4; stroke-opacity:1; fill:none" points="
  220.676,1410.9 2352.76,1410.9 
  "/>
<polyline clip-path="url(#clip720)" style="stroke:#000000; stroke-linecap:butt; stroke-linejoin:round; stroke-width:4; stroke-opacity:1; fill:none" points="
  1085.58,1410.9 1085.58,1392 
  "/>
<polyline clip-path="url(#clip720)" style="stroke:#000000; stroke-linecap:butt; stroke-linejoin:round; stroke-width:4; stroke-opacity:1; fill:none" points="
  2292.41,1410.9 2292.41,1392 
  "/>
<path clip-path="url(#clip720)" d="M1017.08 1485.02 L1024.72 1485.02 L1024.72 1458.66 L1016.41 1460.32 L1016.41 1456.06 L1024.67 1454.4 L1029.35 1454.4 L1029.35 1485.02 L1036.99 1485.02 L1036.99 1488.96 L1017.08 1488.96 L1017.08 1485.02 Z" fill="#000000" fill-rule="evenodd" fill-opacity="1" /><path clip-path="url(#clip720)" d="M1056.43 1457.48 Q1052.82 1457.48 1050.99 1461.04 Q1049.19 1464.58 1049.19 1471.71 Q1049.19 1478.82 1050.99 1482.38 Q1052.82 1485.92 1056.43 1485.92 Q1060.07 1485.92 1061.87 1482.38 Q1063.7 1478.82 1063.7 1471.71 Q1063.7 1464.58 1061.87 1461.04 Q1060.07 1457.48 1056.43 1457.48 M1056.43 1453.77 Q1062.24 1453.77 1065.3 1458.38 Q1068.38 1462.96 1068.38 1471.71 Q1068.38 1480.44 1065.3 1485.04 Q1062.24 1489.63 1056.43 1489.63 Q1050.62 1489.63 1047.54 1485.04 Q1044.49 1480.44 1044.49 1471.71 Q1044.49 1462.96 1047.54 1458.38 Q1050.62 1453.77 1056.43 1453.77 Z" fill="#000000" fill-rule="evenodd" fill-opacity="1" /><path clip-path="url(#clip720)" d="M1068.38 1447.87 L1092.49 1447.87 L1092.49 1451.07 L1068.38 1451.07 L1068.38 1447.87 Z" fill="#000000" fill-rule="evenodd" fill-opacity="1" /><path clip-path="url(#clip720)" d="M1112.2 1446.41 Q1114.93 1446.99 1116.45 1448.83 Q1117.99 1450.68 1117.99 1453.38 Q1117.99 1457.54 1115.13 1459.82 Q1112.27 1462.09 1107.01 1462.09 Q1105.24 1462.09 1103.36 1461.73 Q1101.5 1461.4 1099.5 1460.7 L1099.5 1457.03 Q1101.08 1457.95 1102.97 1458.42 Q1104.85 1458.89 1106.9 1458.89 Q1110.47 1458.89 1112.33 1457.48 Q1114.21 1456.07 1114.21 1453.38 Q1114.21 1450.9 1112.46 1449.51 Q1110.73 1448.1 1107.63 1448.1 L1104.36 1448.1 L1104.36 1444.98 L1107.78 1444.98 Q1110.58 1444.98 1112.07 1443.87 Q1113.55 1442.74 1113.55 1440.63 Q1113.55 1438.47 1112.01 1437.32 Q1110.49 1436.16 1107.63 1436.16 Q1106.07 1436.16 1104.28 1436.49 Q1102.49 1436.83 1100.35 1437.55 L1100.35 1434.16 Q1102.51 1433.56 1104.39 1433.26 Q1106.29 1432.96 1107.97 1432.96 Q1112.29 1432.96 1114.81 1434.93 Q1117.33 1436.89 1117.33 1440.24 Q1117.33 1442.57 1116 1444.19 Q1114.66 1445.79 1112.2 1446.41 Z" fill="#000000" fill-rule="evenodd" fill-opacity="1" /><path clip-path="url(#clip720)" d="M1125.2 1456.77 L1129.16 1456.77 L1129.16 1461.55 L1125.2 1461.55 L1125.2 1456.77 Z" fill="#000000" fill-rule="evenodd" fill-opacity="1" /><path clip-path="url(#clip720)" d="M1148.95 1446.41 Q1151.68 1446.99 1153.2 1448.83 Q1154.74 1450.68 1154.74 1453.38 Q1154.74 1457.54 1151.88 1459.82 Q1149.03 1462.09 1143.76 1462.09 Q1141.99 1462.09 1140.11 1461.73 Q1138.25 1461.4 1136.25 1460.7 L1136.25 1457.03 Q1137.83 1457.95 1139.72 1458.42 Q1141.6 1458.89 1143.65 1458.89 Q1147.22 1458.89 1149.08 1457.48 Q1150.96 1456.07 1150.96 1453.38 Q1150.96 1450.9 1149.21 1449.51 Q1147.48 1448.1 1144.38 1448.1 L1141.11 1448.1 L1141.11 1444.98 L1144.53 1444.98 Q1147.33 1444.98 1148.82 1443.87 Q1150.3 1442.74 1150.3 1440.63 Q1150.3 1438.47 1148.76 1437.32 Q1147.24 1436.16 1144.38 1436.16 Q1142.82 1436.16 1141.03 1436.49 Q1139.25 1436.83 1137.1 1437.55 L1137.1 1434.16 Q1139.26 1433.56 1141.14 1433.26 Q1143.04 1432.96 1144.72 1432.96 Q1149.04 1432.96 1151.56 1434.93 Q1154.08 1436.89 1154.08 1440.24 Q1154.08 1442.57 1152.75 1444.19 Q1151.41 1445.79 1148.95 1446.41 Z" fill="#000000" fill-rule="evenodd" fill-opacity="1" /><path clip-path="url(#clip720)" d="M2223.66 1485.02 L2231.29 1485.02 L2231.29 1458.66 L2222.98 1460.32 L2222.98 1456.06 L2231.25 1454.4 L2235.92 1454.4 L2235.92 1485.02 L2243.56 1485.02 L2243.56 1488.96 L2223.66 1488.96 L2223.66 1485.02 Z" fill="#000000" fill-rule="evenodd" fill-opacity="1" /><path clip-path="url(#clip720)" d="M2263.01 1457.48 Q2259.4 1457.48 2257.57 1461.04 Q2255.76 1464.58 2255.76 1471.71 Q2255.76 1478.82 2257.57 1482.38 Q2259.4 1485.92 2263.01 1485.92 Q2266.64 1485.92 2268.45 1482.38 Q2270.28 1478.82 2270.28 1471.71 Q2270.28 1464.58 2268.45 1461.04 Q2266.64 1457.48 2263.01 1457.48 M2263.01 1453.77 Q2268.82 1453.77 2271.87 1458.38 Q2274.95 1462.96 2274.95 1471.71 Q2274.95 1480.44 2271.87 1485.04 Q2268.82 1489.63 2263.01 1489.63 Q2257.2 1489.63 2254.12 1485.04 Q2251.06 1480.44 2251.06 1471.71 Q2251.06 1462.96 2254.12 1458.38 Q2257.2 1453.77 2263.01 1453.77 Z" fill="#000000" fill-rule="evenodd" fill-opacity="1" /><path clip-path="url(#clip720)" d="M2274.95 1447.87 L2299.06 1447.87 L2299.06 1451.07 L2274.95 1451.07 L2274.95 1447.87 Z" fill="#000000" fill-rule="evenodd" fill-opacity="1" /><path clip-path="url(#clip720)" d="M2318.77 1446.41 Q2321.5 1446.99 2323.02 1448.83 Q2324.57 1450.68 2324.57 1453.38 Q2324.57 1457.54 2321.71 1459.82 Q2318.85 1462.09 2313.58 1462.09 Q2311.81 1462.09 2309.93 1461.73 Q2308.07 1461.4 2306.08 1460.7 L2306.08 1457.03 Q2307.66 1457.95 2309.54 1458.42 Q2311.42 1458.89 2313.47 1458.89 Q2317.04 1458.89 2318.91 1457.48 Q2320.79 1456.07 2320.79 1453.38 Q2320.79 1450.9 2319.04 1449.51 Q2317.31 1448.1 2314.2 1448.1 L2310.93 1448.1 L2310.93 1444.98 L2314.35 1444.98 Q2317.16 1444.98 2318.64 1443.87 Q2320.13 1442.74 2320.13 1440.63 Q2320.13 1438.47 2318.59 1437.32 Q2317.06 1436.16 2314.2 1436.16 Q2312.64 1436.16 2310.86 1436.49 Q2309.07 1436.83 2306.92 1437.55 L2306.92 1434.16 Q2309.09 1433.56 2310.97 1433.26 Q2312.87 1432.96 2314.54 1432.96 Q2318.87 1432.96 2321.39 1434.93 Q2323.91 1436.89 2323.91 1440.24 Q2323.91 1442.57 2322.57 1444.19 Q2321.24 1445.79 2318.77 1446.41 Z" fill="#000000" fill-rule="evenodd" fill-opacity="1" /><path clip-path="url(#clip720)" d="M2331.77 1456.77 L2335.74 1456.77 L2335.74 1461.55 L2331.77 1461.55 L2331.77 1456.77 Z" fill="#000000" fill-rule="evenodd" fill-opacity="1" /><path clip-path="url(#clip720)" d="M2352.14 1435.97 Q2349.2 1435.97 2347.72 1438.86 Q2346.25 1441.74 2346.25 1447.53 Q2346.25 1453.31 2347.72 1456.2 Q2349.2 1459.08 2352.14 1459.08 Q2355.09 1459.08 2356.56 1456.2 Q2358.04 1453.31 2358.04 1447.53 Q2358.04 1441.74 2356.56 1438.86 Q2355.09 1435.97 2352.14 1435.97 M2352.14 1432.96 Q2356.86 1432.96 2359.34 1436.7 Q2361.84 1440.43 2361.84 1447.53 Q2361.84 1454.62 2359.34 1458.37 Q2356.86 1462.09 2352.14 1462.09 Q2347.42 1462.09 2344.92 1458.37 Q2342.43 1454.62 2342.43 1447.53 Q2342.43 1440.43 2344.92 1436.7 Q2347.42 1432.96 2352.14 1432.96 Z" fill="#000000" fill-rule="evenodd" fill-opacity="1" /><path clip-path="url(#clip720)" d="M1211 1524.66 L1216.88 1524.66 L1216.88 1553.91 L1234.36 1538.54 L1241.84 1538.54 L1222.93 1555.22 L1242.63 1574.19 L1234.99 1574.19 L1216.88 1556.78 L1216.88 1574.19 L1211 1574.19 L1211 1524.66 Z" fill="#000000" fill-rule="evenodd" fill-opacity="1" /><path clip-path="url(#clip720)" d="M1276.05 1585.01 L1276.05 1589.56 L1242.19 1589.56 L1242.19 1585.01 L1276.05 1585.01 Z" fill="#000000" fill-rule="evenodd" fill-opacity="1" /><path clip-path="url(#clip720)" d="M1295.37 1542.64 Q1290.66 1542.64 1287.93 1546.34 Q1285.19 1550 1285.19 1556.39 Q1285.19 1562.79 1287.89 1566.48 Q1290.63 1570.14 1295.37 1570.14 Q1300.05 1570.14 1302.79 1566.45 Q1305.53 1562.76 1305.53 1556.39 Q1305.53 1550.06 1302.79 1546.37 Q1300.05 1542.64 1295.37 1542.64 M1295.37 1537.68 Q1303.01 1537.68 1307.37 1542.64 Q1311.73 1547.61 1311.73 1556.39 Q1311.73 1565.15 1307.37 1570.14 Q1303.01 1575.11 1295.37 1575.11 Q1287.7 1575.11 1283.34 1570.14 Q1279.01 1565.15 1279.01 1556.39 Q1279.01 1547.61 1283.34 1542.64 Q1287.7 1537.68 1295.37 1537.68 Z" fill="#000000" fill-rule="evenodd" fill-opacity="1" /><path clip-path="url(#clip720)" d="M1339.49 1524.66 L1339.49 1529.53 L1333.89 1529.53 Q1330.74 1529.53 1329.49 1530.8 Q1328.28 1532.08 1328.28 1535.39 L1328.28 1538.54 L1337.93 1538.54 L1337.93 1543.09 L1328.28 1543.09 L1328.28 1574.19 L1322.4 1574.19 L1322.4 1543.09 L1316.79 1543.09 L1316.79 1538.54 L1322.4 1538.54 L1322.4 1536.05 Q1322.4 1530.1 1325.17 1527.4 Q1327.93 1524.66 1333.95 1524.66 L1339.49 1524.66 Z" fill="#000000" fill-rule="evenodd" fill-opacity="1" /><path clip-path="url(#clip720)" d="M1362.44 1524.66 L1362.44 1529.53 L1356.83 1529.53 Q1353.68 1529.53 1352.44 1530.8 Q1351.23 1532.08 1351.23 1535.39 L1351.23 1538.54 L1360.88 1538.54 L1360.88 1543.09 L1351.23 1543.09 L1351.23 1574.19 L1345.34 1574.19 L1345.34 1543.09 L1339.74 1543.09 L1339.74 1538.54 L1345.34 1538.54 L1345.34 1536.05 Q1345.34 1530.1 1348.11 1527.4 Q1350.88 1524.66 1356.9 1524.66 L1362.44 1524.66 Z" fill="#000000" fill-rule="evenodd" fill-opacity="1" /><polyline clip-path="url(#clip722)" style="stroke:#000000; stroke-linecap:butt; stroke-linejoin:round; stroke-width:2; stroke-opacity:0.1; fill:none" points="
  220.676,1187.42 2352.76,1187.42 
  "/>
<polyline clip-path="url(#clip722)" style="stroke:#000000; stroke-linecap:butt; stroke-linejoin:round; stroke-width:2; stroke-opacity:0.1; fill:none" points="
  220.676,896.363 2352.76,896.363 
  "/>
<polyline clip-path="url(#clip722)" style="stroke:#000000; stroke-linecap:butt; stroke-linejoin:round; stroke-width:2; stroke-opacity:0.1; fill:none" points="
  220.676,605.306 2352.76,605.306 
  "/>
<polyline clip-path="url(#clip722)" style="stroke:#000000; stroke-linecap:butt; stroke-linejoin:round; stroke-width:2; stroke-opacity:0.1; fill:none" points="
  220.676,314.249 2352.76,314.249 
  "/>
<polyline clip-path="url(#clip720)" style="stroke:#000000; stroke-linecap:butt; stroke-linejoin:round; stroke-width:4; stroke-opacity:1; fill:none" points="
  220.676,1410.9 220.676,47.2441 
  "/>
<polyline clip-path="url(#clip720)" style="stroke:#000000; stroke-linecap:butt; stroke-linejoin:round; stroke-width:4; stroke-opacity:1; fill:none" points="
  220.676,1187.42 239.574,1187.42 
  "/>
<polyline clip-path="url(#clip720)" style="stroke:#000000; stroke-linecap:butt; stroke-linejoin:round; stroke-width:4; stroke-opacity:1; fill:none" points="
  220.676,896.363 239.574,896.363 
  "/>
<polyline clip-path="url(#clip720)" style="stroke:#000000; stroke-linecap:butt; stroke-linejoin:round; stroke-width:4; stroke-opacity:1; fill:none" points="
  220.676,605.306 239.574,605.306 
  "/>
<polyline clip-path="url(#clip720)" style="stroke:#000000; stroke-linecap:butt; stroke-linejoin:round; stroke-width:4; stroke-opacity:1; fill:none" points="
  220.676,314.249 239.574,314.249 
  "/>
<path clip-path="url(#clip720)" d="M131.945 1174.21 L120.14 1192.66 L131.945 1192.66 L131.945 1174.21 M130.718 1170.14 L136.598 1170.14 L136.598 1192.66 L141.529 1192.66 L141.529 1196.55 L136.598 1196.55 L136.598 1204.7 L131.945 1204.7 L131.945 1196.55 L116.343 1196.55 L116.343 1192.04 L130.718 1170.14 Z" fill="#000000" fill-rule="evenodd" fill-opacity="1" /><path clip-path="url(#clip720)" d="M149.26 1198.82 L154.144 1198.82 L154.144 1204.7 L149.26 1204.7 L149.26 1198.82 Z" fill="#000000" fill-rule="evenodd" fill-opacity="1" /><path clip-path="url(#clip720)" d="M168.357 1200.76 L184.676 1200.76 L184.676 1204.7 L162.732 1204.7 L162.732 1200.76 Q165.394 1198.01 169.977 1193.38 Q174.584 1188.73 175.764 1187.39 Q178.01 1184.86 178.889 1183.13 Q179.792 1181.37 179.792 1179.68 Q179.792 1176.92 177.848 1175.19 Q175.926 1173.45 172.825 1173.45 Q170.626 1173.45 168.172 1174.21 Q165.741 1174.98 162.964 1176.53 L162.964 1171.81 Q165.788 1170.67 168.241 1170.09 Q170.695 1169.52 172.732 1169.52 Q178.102 1169.52 181.297 1172.2 Q184.491 1174.89 184.491 1179.38 Q184.491 1181.51 183.681 1183.43 Q182.894 1185.33 180.788 1187.92 Q180.209 1188.59 177.107 1191.81 Q174.005 1195 168.357 1200.76 Z" fill="#000000" fill-rule="evenodd" fill-opacity="1" /><path clip-path="url(#clip720)" d="M130.996 883.157 L119.191 901.606 L130.996 901.606 L130.996 883.157 M129.769 879.083 L135.649 879.083 L135.649 901.606 L140.579 901.606 L140.579 905.495 L135.649 905.495 L135.649 913.643 L130.996 913.643 L130.996 905.495 L115.394 905.495 L115.394 900.981 L129.769 879.083 Z" fill="#000000" fill-rule="evenodd" fill-opacity="1" /><path clip-path="url(#clip720)" d="M148.311 907.764 L153.195 907.764 L153.195 913.643 L148.311 913.643 L148.311 907.764 Z" fill="#000000" fill-rule="evenodd" fill-opacity="1" /><path clip-path="url(#clip720)" d="M177.547 895.009 Q180.903 895.727 182.778 897.995 Q184.676 900.264 184.676 903.597 Q184.676 908.713 181.158 911.514 Q177.639 914.314 171.158 914.314 Q168.982 914.314 166.667 913.875 Q164.376 913.458 161.922 912.601 L161.922 908.088 Q163.866 909.222 166.181 909.801 Q168.496 910.379 171.019 910.379 Q175.417 910.379 177.709 908.643 Q180.024 906.907 180.024 903.597 Q180.024 900.541 177.871 898.828 Q175.741 897.092 171.922 897.092 L167.894 897.092 L167.894 893.25 L172.107 893.25 Q175.556 893.25 177.385 891.884 Q179.214 890.495 179.214 887.903 Q179.214 885.241 177.315 883.828 Q175.44 882.393 171.922 882.393 Q170.001 882.393 167.802 882.81 Q165.602 883.227 162.964 884.106 L162.964 879.94 Q165.626 879.199 167.94 878.828 Q170.278 878.458 172.339 878.458 Q177.663 878.458 180.764 880.889 Q183.866 883.296 183.866 887.416 Q183.866 890.287 182.223 892.277 Q180.579 894.245 177.547 895.009 Z" fill="#000000" fill-rule="evenodd" fill-opacity="1" /><path clip-path="url(#clip720)" d="M129.862 592.1 L118.056 610.549 L129.862 610.549 L129.862 592.1 M128.635 588.026 L134.515 588.026 L134.515 610.549 L139.445 610.549 L139.445 614.438 L134.515 614.438 L134.515 622.586 L129.862 622.586 L129.862 614.438 L114.26 614.438 L114.26 609.924 L128.635 588.026 Z" fill="#000000" fill-rule="evenodd" fill-opacity="1" /><path clip-path="url(#clip720)" d="M147.177 616.707 L152.061 616.707 L152.061 622.586 L147.177 622.586 L147.177 616.707 Z" fill="#000000" fill-rule="evenodd" fill-opacity="1" /><path clip-path="url(#clip720)" d="M175.093 592.1 L163.288 610.549 L175.093 610.549 L175.093 592.1 M173.866 588.026 L179.746 588.026 L179.746 610.549 L184.676 610.549 L184.676 614.438 L179.746 614.438 L179.746 622.586 L175.093 622.586 L175.093 614.438 L159.491 614.438 L159.491 609.924 L173.866 588.026 Z" fill="#000000" fill-rule="evenodd" fill-opacity="1" /><path clip-path="url(#clip720)" d="M131.343 301.043 L119.538 319.492 L131.343 319.492 L131.343 301.043 M130.117 296.969 L135.996 296.969 L135.996 319.492 L140.927 319.492 L140.927 323.381 L135.996 323.381 L135.996 331.529 L131.343 331.529 L131.343 323.381 L115.742 323.381 L115.742 318.867 L130.117 296.969 Z" fill="#000000" fill-rule="evenodd" fill-opacity="1" /><path clip-path="url(#clip720)" d="M148.658 325.65 L153.542 325.65 L153.542 331.529 L148.658 331.529 L148.658 325.65 Z" fill="#000000" fill-rule="evenodd" fill-opacity="1" /><path clip-path="url(#clip720)" d="M163.774 296.969 L182.13 296.969 L182.13 300.904 L168.056 300.904 L168.056 309.377 Q169.075 309.029 170.093 308.867 Q171.112 308.682 172.13 308.682 Q177.917 308.682 181.297 311.853 Q184.676 315.025 184.676 320.441 Q184.676 326.02 181.204 329.122 Q177.732 332.2 171.413 332.2 Q169.237 332.2 166.968 331.83 Q164.723 331.46 162.315 330.719 L162.315 326.02 Q164.399 327.154 166.621 327.71 Q168.843 328.265 171.32 328.265 Q175.325 328.265 177.663 326.159 Q180.001 324.052 180.001 320.441 Q180.001 316.83 177.663 314.724 Q175.325 312.617 171.32 312.617 Q169.445 312.617 167.57 313.034 Q165.718 313.451 163.774 314.33 L163.774 296.969 Z" fill="#000000" fill-rule="evenodd" fill-opacity="1" /><path clip-path="url(#clip720)" d="M35.1993 829.203 Q31.2526 827.007 29.3747 823.951 Q27.4968 820.896 27.4968 816.758 Q27.4968 811.188 31.4117 808.164 Q35.2948 805.141 42.4881 805.141 L64.0042 805.141 L64.0042 811.029 L42.679 811.029 Q37.5546 811.029 35.072 812.843 Q32.5894 814.657 32.5894 818.381 Q32.5894 822.933 35.6131 825.574 Q38.6368 828.216 43.8567 828.216 L64.0042 828.216 L64.0042 834.105 L42.679 834.105 Q37.5228 834.105 35.072 835.919 Q32.5894 837.733 32.5894 841.521 Q32.5894 846.008 35.6449 848.65 Q38.6686 851.292 43.8567 851.292 L64.0042 851.292 L64.0042 857.18 L28.3562 857.18 L28.3562 851.292 L33.8944 851.292 Q30.616 849.287 29.0564 846.486 Q27.4968 843.685 27.4968 839.834 Q27.4968 835.951 29.4702 833.245 Q31.4436 830.508 35.1993 829.203 Z" fill="#000000" fill-rule="evenodd" fill-opacity="1" /><path clip-path="url(#clip720)" d="M28.3562 793.459 L28.3562 787.603 L64.0042 787.603 L64.0042 793.459 L28.3562 793.459 M14.479 793.459 L14.479 787.603 L21.895 787.603 L21.895 793.459 L14.479 793.459 Z" fill="#000000" fill-rule="evenodd" fill-opacity="1" /><path clip-path="url(#clip720)" d="M42.4881 745.717 L64.0042 745.717 L64.0042 751.573 L42.679 751.573 Q37.6183 751.573 35.1038 753.547 Q32.5894 755.52 32.5894 759.467 Q32.5894 764.209 35.6131 766.946 Q38.6368 769.684 43.8567 769.684 L64.0042 769.684 L64.0042 775.572 L28.3562 775.572 L28.3562 769.684 L33.8944 769.684 Q30.6797 767.583 29.0883 764.75 Q27.4968 761.886 27.4968 758.162 Q27.4968 752.019 31.3163 748.868 Q35.1038 745.717 42.4881 745.717 Z" fill="#000000" fill-rule="evenodd" fill-opacity="1" /><path clip-path="url(#clip720)" d="M74.8259 706.95 L79.3773 706.95 L79.3773 740.815 L74.8259 740.815 L74.8259 706.95 Z" fill="#000000" fill-rule="evenodd" fill-opacity="1" /><path clip-path="url(#clip720)" d="M33.7671 677.986 L14.479 677.986 L14.479 672.129 L64.0042 672.129 L64.0042 677.986 L58.657 677.986 Q61.8398 679.832 63.3994 682.664 Q64.9272 685.465 64.9272 689.412 Q64.9272 695.873 59.771 699.947 Q54.6147 703.989 46.212 703.989 Q37.8093 703.989 32.6531 699.947 Q27.4968 695.873 27.4968 689.412 Q27.4968 685.465 29.0564 682.664 Q30.5842 679.832 33.7671 677.986 M46.212 697.942 Q52.6732 697.942 56.3653 695.3 Q60.0256 692.627 60.0256 687.98 Q60.0256 683.333 56.3653 680.659 Q52.6732 677.986 46.212 677.986 Q39.7508 677.986 36.0905 680.659 Q32.3984 683.333 32.3984 687.98 Q32.3984 692.627 36.0905 695.3 Q39.7508 697.942 46.212 697.942 Z" fill="#000000" fill-rule="evenodd" fill-opacity="1" /><path clip-path="url(#clip720)" d="M28.3562 660.066 L28.3562 654.21 L64.0042 654.21 L64.0042 660.066 L28.3562 660.066 M14.479 660.066 L14.479 654.21 L21.895 654.21 L21.895 660.066 L14.479 660.066 Z" fill="#000000" fill-rule="evenodd" fill-opacity="1" /><path clip-path="url(#clip720)" d="M14.479 623.909 L19.3487 623.909 L19.3487 629.511 Q19.3487 632.662 20.6219 633.903 Q21.895 635.113 25.2052 635.113 L28.3562 635.113 L28.3562 625.468 L32.9077 625.468 L32.9077 635.113 L64.0042 635.113 L64.0042 641.001 L32.9077 641.001 L32.9077 646.603 L28.3562 646.603 L28.3562 641.001 L25.8736 641.001 Q19.9216 641.001 17.2162 638.232 Q14.479 635.463 14.479 629.447 L14.479 623.909 Z" fill="#000000" fill-rule="evenodd" fill-opacity="1" /><path clip-path="url(#clip720)" d="M14.479 600.961 L19.3487 600.961 L19.3487 606.562 Q19.3487 609.713 20.6219 610.955 Q21.895 612.164 25.2052 612.164 L28.3562 612.164 L28.3562 602.52 L32.9077 602.52 L32.9077 612.164 L64.0042 612.164 L64.0042 618.052 L32.9077 618.052 L32.9077 623.654 L28.3562 623.654 L28.3562 618.052 L25.8736 618.052 Q19.9216 618.052 17.2162 615.283 Q14.479 612.514 14.479 606.499 L14.479 600.961 Z" fill="#000000" fill-rule="evenodd" fill-opacity="1" /><polyline clip-path="url(#clip722)" style="stroke:#009af9; stroke-linecap:butt; stroke-linejoin:round; stroke-width:20; stroke-opacity:1; fill:none" stroke-dasharray="80, 50" points="
  281.018,1372.3 1286.72,261.728 2292.41,85.838 
  "/>
<path clip-path="url(#clip720)" d="
M1992.36 196.379 L2281.69 196.379 L2281.69 92.6992 L1992.36 92.6992  Z
  " fill="#ffffff" fill-rule="evenodd" fill-opacity="1"/>
<polyline clip-path="url(#clip720)" style="stroke:#000000; stroke-linecap:butt; stroke-linejoin:round; stroke-width:4; stroke-opacity:1; fill:none" points="
  1992.36,196.379 2281.69,196.379 2281.69,92.6992 1992.36,92.6992 1992.36,196.379 
  "/>
<polyline clip-path="url(#clip720)" style="stroke:#009af9; stroke-linecap:butt; stroke-linejoin:round; stroke-width:4; stroke-opacity:1; fill:none" stroke-dasharray="16, 10" points="
  2016.05,144.539 2158.19,144.539 
  "/>
<path clip-path="url(#clip720)" d="M2195.72 164.227 Q2193.91 168.856 2192.2 170.268 Q2190.49 171.68 2187.62 171.68 L2184.21 171.68 L2184.21 168.115 L2186.71 168.115 Q2188.47 168.115 2189.45 167.282 Q2190.42 166.449 2191.6 163.347 L2192.36 161.403 L2181.88 135.893 L2186.39 135.893 L2194.49 156.171 L2202.59 135.893 L2207.11 135.893 L2195.72 164.227 Z" fill="#000000" fill-rule="evenodd" fill-opacity="1" /><path clip-path="url(#clip720)" d="M2214.4 157.884 L2222.04 157.884 L2222.04 131.518 L2213.73 133.185 L2213.73 128.926 L2221.99 127.259 L2226.67 127.259 L2226.67 157.884 L2234.31 157.884 L2234.31 161.819 L2214.4 161.819 L2214.4 157.884 Z" fill="#000000" fill-rule="evenodd" fill-opacity="1" /></svg>
