<?xml version="1.0" encoding="utf-8"?>
<svg xmlns="http://www.w3.org/2000/svg" xmlns:xlink="http://www.w3.org/1999/xlink" width="600" height="400" viewBox="0 0 2400 1600">
<defs>
  <clipPath id="clip900">
    <rect x="0" y="0" width="2400" height="1600"/>
  </clipPath>
</defs>
<path clip-path="url(#clip900)" d="
M0 1600 L2400 1600 L2400 0 L0 0  Z
  " fill="#ffffff" fill-rule="evenodd" fill-opacity="1"/>
<defs>
  <clipPath id="clip901">
    <rect x="480" y="0" width="1681" height="1600"/>
  </clipPath>
</defs>
<path clip-path="url(#clip900)" d="
M200.028 1410.9 L2352.76 1410.9 L2352.76 47.2441 L200.028 47.2441  Z
  " fill="#ffffff" fill-rule="evenodd" fill-opacity="1"/>
<defs>
  <clipPath id="clip902">
    <rect x="200" y="47" width="2154" height="1365"/>
  </clipPath>
</defs>
<polyline clip-path="url(#clip902)" style="stroke:#000000; stroke-width:2; stroke-opacity:0.1; fill:none" points="
  260.955,1410.9 260.955,47.2441 
  "/>
<polyline clip-path="url(#clip902)" style="stroke:#000000; stroke-width:2; stroke-opacity:0.1; fill:none" points="
  667.13,1410.9 667.13,47.2441 
  "/>
<polyline clip-path="url(#clip902)" style="stroke:#000000; stroke-width:2; stroke-opacity:0.1; fill:none" points="
  1073.3,1410.9 1073.3,47.2441 
  "/>
<polyline clip-path="url(#clip902)" style="stroke:#000000; stroke-width:2; stroke-opacity:0.1; fill:none" points="
  1479.48,1410.9 1479.48,47.2441 
  "/>
<polyline clip-path="url(#clip902)" style="stroke:#000000; stroke-width:2; stroke-opacity:0.1; fill:none" points="
  1885.65,1410.9 1885.65,47.2441 
  "/>
<polyline clip-path="url(#clip902)" style="stroke:#000000; stroke-width:2; stroke-opacity:0.1; fill:none" points="
  2291.83,1410.9 2291.83,47.2441 
  "/>
<polyline clip-path="url(#clip900)" style="stroke:#000000; stroke-width:4; stroke-opacity:1; fill:none" points="
  200.028,1410.9 2352.76,1410.9 
  "/>
<polyline clip-path="url(#clip900)" style="stroke:#000000; stroke-width:4; stroke-opacity:1; fill:none" points="
  260.955,1410.9 260.955,1394.53 
  "/>
<polyline clip-path="url(#clip900)" style="stroke:#000000; stroke-width:4; stroke-opacity:1; fill:none" points="
  667.13,1410.9 667.13,1394.53 
  "/>
<polyline clip-path="url(#clip900)" style="stroke:#000000; stroke-width:4; stroke-opacity:1; fill:none" points="
  1073.3,1410.9 1073.3,1394.53 
  "/>
<polyline clip-path="url(#clip900)" style="stroke:#000000; stroke-width:4; stroke-opacity:1; fill:none" points="
  1479.48,1410.9 1479.48,1394.53 
  "/>
<polyline clip-path="url(#clip900)" style="stroke:#000000; stroke-width:4; stroke-opacity:1; fill:none" points="
  1885.65,1410.9 1885.65,1394.53 
  "/>
<polyline clip-path="url(#clip900)" style="stroke:#000000; stroke-width:4; stroke-opacity:1; fill:none" points="
  2291.83,1410.9 2291.83,1394.53 
  "/>
<path clip-path="url(#clip900)" d="M 0 0 M199.989 1489.17 L207.627 1489.17 L207.627 1462.8 L199.317 1464.47 L199.317 1460.21 L207.581 1458.54 L212.257 1458.54 L212.257 1489.17 L219.896 1489.17 L219.896 1493.1 L199.989 1493.1 L199.989 1489.17 Z" fill="#000000" fill-rule="evenodd" fill-opacity="1" /><path clip-path="url(#clip900)" d="M 0 0 M234.965 1461.62 Q231.354 1461.62 229.525 1465.19 Q227.72 1468.73 227.72 1475.86 Q227.72 1482.97 229.525 1486.53 Q231.354 1490.07 234.965 1490.07 Q238.599 1490.07 240.405 1486.53 Q242.234 1482.97 242.234 1475.86 Q242.234 1468.73 240.405 1465.19 Q238.599 1461.62 234.965 1461.62 M234.965 1457.92 Q240.775 1457.92 243.831 1462.53 Q246.91 1467.11 246.91 1475.86 Q246.91 1484.59 243.831 1489.19 Q240.775 1493.78 234.965 1493.78 Q229.155 1493.78 226.076 1489.19 Q223.021 1484.59 223.021 1475.86 Q223.021 1467.11 226.076 1462.53 Q229.155 1457.92 234.965 1457.92 Z" fill="#000000" fill-rule="evenodd" fill-opacity="1" /><path clip-path="url(#clip900)" d="M 0 0 M246.91 1452.02 L271.021 1452.02 L271.021 1455.22 L246.91 1455.22 L246.91 1452.02 Z" fill="#000000" fill-rule="evenodd" fill-opacity="1" /><path clip-path="url(#clip900)" d="M 0 0 M285.578 1440.92 L275.986 1455.91 L285.578 1455.91 L285.578 1440.92 M284.582 1437.61 L289.359 1437.61 L289.359 1455.91 L293.365 1455.91 L293.365 1459.07 L289.359 1459.07 L289.359 1465.69 L285.578 1465.69 L285.578 1459.07 L272.902 1459.07 L272.902 1455.41 L284.582 1437.61 Z" fill="#000000" fill-rule="evenodd" fill-opacity="1" /><path clip-path="url(#clip900)" d="M 0 0 M297.484 1460.92 L301.452 1460.92 L301.452 1465.69 L297.484 1465.69 L297.484 1460.92 Z" fill="#000000" fill-rule="evenodd" fill-opacity="1" /><path clip-path="url(#clip900)" d="M 0 0 M305.609 1437.61 L320.523 1437.61 L320.523 1440.81 L309.088 1440.81 L309.088 1447.69 Q309.916 1447.41 310.743 1447.28 Q311.571 1447.13 312.398 1447.13 Q317.1 1447.13 319.846 1449.71 Q322.592 1452.28 322.592 1456.68 Q322.592 1461.22 319.771 1463.74 Q316.95 1466.24 311.815 1466.24 Q310.047 1466.24 308.204 1465.94 Q306.38 1465.64 304.424 1465.04 L304.424 1461.22 Q306.116 1462.14 307.922 1462.59 Q309.728 1463.04 311.74 1463.04 Q314.994 1463.04 316.893 1461.33 Q318.793 1459.62 318.793 1456.68 Q318.793 1453.75 316.893 1452.04 Q314.994 1450.33 311.74 1450.33 Q310.217 1450.33 308.693 1450.67 Q307.188 1451 305.609 1451.72 L305.609 1437.61 Z" fill="#000000" fill-rule="evenodd" fill-opacity="1" /><path clip-path="url(#clip900)" d="M 0 0 M605.562 1489.17 L613.201 1489.17 L613.201 1462.8 L604.89 1464.47 L604.89 1460.21 L613.154 1458.54 L617.83 1458.54 L617.83 1489.17 L625.469 1489.17 L625.469 1493.1 L605.562 1493.1 L605.562 1489.17 Z" fill="#000000" fill-rule="evenodd" fill-opacity="1" /><path clip-path="url(#clip900)" d="M 0 0 M640.538 1461.62 Q636.927 1461.62 635.099 1465.19 Q633.293 1468.73 633.293 1475.86 Q633.293 1482.97 635.099 1486.53 Q636.927 1490.07 640.538 1490.07 Q644.173 1490.07 645.978 1486.53 Q647.807 1482.97 647.807 1475.86 Q647.807 1468.73 645.978 1465.19 Q644.173 1461.62 640.538 1461.62 M640.538 1457.92 Q646.349 1457.92 649.404 1462.53 Q652.483 1467.11 652.483 1475.86 Q652.483 1484.59 649.404 1489.19 Q646.349 1493.78 640.538 1493.78 Q634.728 1493.78 631.65 1489.19 Q628.594 1484.59 628.594 1475.86 Q628.594 1467.11 631.65 1462.53 Q634.728 1457.92 640.538 1457.92 Z" fill="#000000" fill-rule="evenodd" fill-opacity="1" /><path clip-path="url(#clip900)" d="M 0 0 M652.483 1452.02 L676.594 1452.02 L676.594 1455.22 L652.483 1455.22 L652.483 1452.02 Z" fill="#000000" fill-rule="evenodd" fill-opacity="1" /><path clip-path="url(#clip900)" d="M 0 0 M691.152 1440.92 L681.56 1455.91 L691.152 1455.91 L691.152 1440.92 M690.155 1437.61 L694.932 1437.61 L694.932 1455.91 L698.938 1455.91 L698.938 1459.07 L694.932 1459.07 L694.932 1465.69 L691.152 1465.69 L691.152 1459.07 L678.475 1459.07 L678.475 1455.41 L690.155 1437.61 Z" fill="#000000" fill-rule="evenodd" fill-opacity="1" /><path clip-path="url(#clip900)" d="M 0 0 M703.057 1460.92 L707.025 1460.92 L707.025 1465.69 L703.057 1465.69 L703.057 1460.92 Z" fill="#000000" fill-rule="evenodd" fill-opacity="1" /><path clip-path="url(#clip900)" d="M 0 0 M721.582 1440.92 L711.991 1455.91 L721.582 1455.91 L721.582 1440.92 M720.586 1437.61 L725.363 1437.61 L725.363 1455.91 L729.369 1455.91 L729.369 1459.07 L725.363 1459.07 L725.363 1465.69 L721.582 1465.69 L721.582 1459.07 L708.906 1459.07 L708.906 1455.41 L720.586 1437.61 Z" fill="#000000" fill-rule="evenodd" fill-opacity="1" /><path clip-path="url(#clip900)" d="M 0 0 M1012.2 1489.17 L1019.84 1489.17 L1019.84 1462.8 L1011.53 1464.47 L1011.53 1460.21 L1019.79 1458.54 L1024.47 1458.54 L1024.47 1489.17 L1032.1 1489.17 L1032.1 1493.1 L1012.2 1493.1 L1012.2 1489.17 Z" fill="#000000" fill-rule="evenodd" fill-opacity="1" /><path clip-path="url(#clip900)" d="M 0 0 M1047.17 1461.62 Q1043.56 1461.62 1041.73 1465.19 Q1039.93 1468.73 1039.93 1475.86 Q1039.93 1482.97 1041.73 1486.53 Q1043.56 1490.07 1047.17 1490.07 Q1050.81 1490.07 1052.61 1486.53 Q1054.44 1482.97 1054.44 1475.86 Q1054.44 1468.73 1052.61 1465.19 Q1050.81 1461.62 1047.17 1461.62 M1047.17 1457.92 Q1052.98 1457.92 1056.04 1462.53 Q1059.12 1467.11 1059.12 1475.86 Q1059.12 1484.59 1056.04 1489.19 Q1052.98 1493.78 1047.17 1493.78 Q1041.36 1493.78 1038.29 1489.19 Q1035.23 1484.59 1035.23 1475.86 Q1035.23 1467.11 1038.29 1462.53 Q1041.36 1457.92 1047.17 1457.92 Z" fill="#000000" fill-rule="evenodd" fill-opacity="1" /><path clip-path="url(#clip900)" d="M 0 0 M1059.12 1452.02 L1083.23 1452.02 L1083.23 1455.22 L1059.12 1455.22 L1059.12 1452.02 Z" fill="#000000" fill-rule="evenodd" fill-opacity="1" /><path clip-path="url(#clip900)" d="M 0 0 M1097.79 1440.92 L1088.2 1455.91 L1097.79 1455.91 L1097.79 1440.92 M1096.79 1437.61 L1101.57 1437.61 L1101.57 1455.91 L1105.57 1455.91 L1105.57 1459.07 L1101.57 1459.07 L1101.57 1465.69 L1097.79 1465.69 L1097.79 1459.07 L1085.11 1459.07 L1085.11 1455.41 L1096.79 1437.61 Z" fill="#000000" fill-rule="evenodd" fill-opacity="1" /><path clip-path="url(#clip900)" d="M 0 0 M1109.69 1460.92 L1113.66 1460.92 L1113.66 1465.69 L1109.69 1465.69 L1109.69 1460.92 Z" fill="#000000" fill-rule="evenodd" fill-opacity="1" /><path clip-path="url(#clip900)" d="M 0 0 M1129.29 1450.55 Q1132.02 1451.14 1133.54 1452.98 Q1135.08 1454.82 1135.08 1457.53 Q1135.08 1461.69 1132.22 1463.96 Q1129.37 1466.24 1124.1 1466.24 Q1122.33 1466.24 1120.45 1465.88 Q1118.59 1465.54 1116.6 1464.85 L1116.6 1461.18 Q1118.17 1462.1 1120.06 1462.57 Q1121.94 1463.04 1123.99 1463.04 Q1127.56 1463.04 1129.42 1461.63 Q1131.3 1460.22 1131.3 1457.53 Q1131.3 1455.05 1129.55 1453.66 Q1127.82 1452.25 1124.72 1452.25 L1121.45 1452.25 L1121.45 1449.12 L1124.87 1449.12 Q1127.67 1449.12 1129.16 1448.01 Q1130.64 1446.89 1130.64 1444.78 Q1130.64 1442.62 1129.1 1441.47 Q1127.58 1440.3 1124.72 1440.3 Q1123.16 1440.3 1121.37 1440.64 Q1119.59 1440.98 1117.44 1441.69 L1117.44 1438.31 Q1119.6 1437.71 1121.49 1437.41 Q1123.38 1437.11 1125.06 1437.11 Q1129.38 1437.11 1131.9 1439.08 Q1134.42 1441.04 1134.42 1444.38 Q1134.42 1446.72 1133.09 1448.33 Q1131.75 1449.93 1129.29 1450.55 Z" fill="#000000" fill-rule="evenodd" fill-opacity="1" /><path clip-path="url(#clip900)" d="M 0 0 M1418.76 1489.17 L1426.4 1489.17 L1426.4 1462.8 L1418.09 1464.47 L1418.09 1460.21 L1426.35 1458.54 L1431.03 1458.54 L1431.03 1489.17 L1438.67 1489.17 L1438.67 1493.1 L1418.76 1493.1 L1418.76 1489.17 Z" fill="#000000" fill-rule="evenodd" fill-opacity="1" /><path clip-path="url(#clip900)" d="M 0 0 M1453.73 1461.62 Q1450.12 1461.62 1448.29 1465.19 Q1446.49 1468.73 1446.49 1475.86 Q1446.49 1482.97 1448.29 1486.53 Q1450.12 1490.07 1453.73 1490.07 Q1457.37 1490.07 1459.17 1486.53 Q1461 1482.97 1461 1475.86 Q1461 1468.73 1459.17 1465.19 Q1457.37 1461.62 1453.73 1461.62 M1453.73 1457.92 Q1459.54 1457.92 1462.6 1462.53 Q1465.68 1467.11 1465.68 1475.86 Q1465.68 1484.59 1462.6 1489.19 Q1459.54 1493.78 1453.73 1493.78 Q1447.92 1493.78 1444.85 1489.19 Q1441.79 1484.59 1441.79 1475.86 Q1441.79 1467.11 1444.85 1462.53 Q1447.92 1457.92 1453.73 1457.92 Z" fill="#000000" fill-rule="evenodd" fill-opacity="1" /><path clip-path="url(#clip900)" d="M 0 0 M1465.68 1452.02 L1489.79 1452.02 L1489.79 1455.22 L1465.68 1455.22 L1465.68 1452.02 Z" fill="#000000" fill-rule="evenodd" fill-opacity="1" /><path clip-path="url(#clip900)" d="M 0 0 M1504.35 1440.92 L1494.76 1455.91 L1504.35 1455.91 L1504.35 1440.92 M1503.35 1437.61 L1508.13 1437.61 L1508.13 1455.91 L1512.13 1455.91 L1512.13 1459.07 L1508.13 1459.07 L1508.13 1465.69 L1504.35 1465.69 L1504.35 1459.07 L1491.67 1459.07 L1491.67 1455.41 L1503.35 1437.61 Z" fill="#000000" fill-rule="evenodd" fill-opacity="1" /><path clip-path="url(#clip900)" d="M 0 0 M1516.25 1460.92 L1520.22 1460.92 L1520.22 1465.69 L1516.25 1465.69 L1516.25 1460.92 Z" fill="#000000" fill-rule="evenodd" fill-opacity="1" /><path clip-path="url(#clip900)" d="M 0 0 M1527.61 1462.5 L1540.87 1462.5 L1540.87 1465.69 L1523.04 1465.69 L1523.04 1462.5 Q1525.21 1460.26 1528.93 1456.5 Q1532.67 1452.72 1533.63 1451.63 Q1535.46 1449.58 1536.17 1448.16 Q1536.9 1446.74 1536.9 1445.36 Q1536.9 1443.12 1535.32 1441.71 Q1533.76 1440.3 1531.24 1440.3 Q1529.46 1440.3 1527.46 1440.92 Q1525.49 1441.54 1523.23 1442.8 L1523.23 1438.97 Q1525.53 1438.05 1527.52 1437.58 Q1529.51 1437.11 1531.17 1437.11 Q1535.53 1437.11 1538.13 1439.29 Q1540.72 1441.47 1540.72 1445.12 Q1540.72 1446.85 1540.06 1448.41 Q1539.42 1449.95 1537.71 1452.06 Q1537.24 1452.6 1534.72 1455.22 Q1532.2 1457.81 1527.61 1462.5 Z" fill="#000000" fill-rule="evenodd" fill-opacity="1" /><path clip-path="url(#clip900)" d="M 0 0 M1824.78 1489.17 L1832.42 1489.17 L1832.42 1462.8 L1824.11 1464.47 L1824.11 1460.21 L1832.38 1458.54 L1837.05 1458.54 L1837.05 1489.17 L1844.69 1489.17 L1844.69 1493.1 L1824.78 1493.1 L1824.78 1489.17 Z" fill="#000000" fill-rule="evenodd" fill-opacity="1" /><path clip-path="url(#clip900)" d="M 0 0 M1859.76 1461.62 Q1856.15 1461.62 1854.32 1465.19 Q1852.51 1468.73 1852.51 1475.86 Q1852.51 1482.97 1854.32 1486.53 Q1856.15 1490.07 1859.76 1490.07 Q1863.39 1490.07 1865.2 1486.53 Q1867.03 1482.97 1867.03 1475.86 Q1867.03 1468.73 1865.2 1465.19 Q1863.39 1461.62 1859.76 1461.62 M1859.76 1457.92 Q1865.57 1457.92 1868.62 1462.53 Q1871.7 1467.11 1871.7 1475.86 Q1871.7 1484.59 1868.62 1489.19 Q1865.57 1493.78 1859.76 1493.78 Q1853.95 1493.78 1850.87 1489.19 Q1847.81 1484.59 1847.81 1475.86 Q1847.81 1467.11 1850.87 1462.53 Q1853.95 1457.92 1859.76 1457.92 Z" fill="#000000" fill-rule="evenodd" fill-opacity="1" /><path clip-path="url(#clip900)" d="M 0 0 M1871.7 1452.02 L1895.82 1452.02 L1895.82 1455.22 L1871.7 1455.22 L1871.7 1452.02 Z" fill="#000000" fill-rule="evenodd" fill-opacity="1" /><path clip-path="url(#clip900)" d="M 0 0 M1910.37 1440.92 L1900.78 1455.91 L1910.37 1455.91 L1910.37 1440.92 M1909.38 1437.61 L1914.15 1437.61 L1914.15 1455.91 L1918.16 1455.91 L1918.16 1459.07 L1914.15 1459.07 L1914.15 1465.69 L1910.37 1465.69 L1910.37 1459.07 L1897.7 1459.07 L1897.7 1455.41 L1909.38 1437.61 Z" fill="#000000" fill-rule="evenodd" fill-opacity="1" /><path clip-path="url(#clip900)" d="M 0 0 M1922.28 1460.92 L1926.25 1460.92 L1926.25 1465.69 L1922.28 1465.69 L1922.28 1460.92 Z" fill="#000000" fill-rule="evenodd" fill-opacity="1" /><path clip-path="url(#clip900)" d="M 0 0 M1931.02 1462.5 L1937.23 1462.5 L1937.23 1441.07 L1930.48 1442.43 L1930.48 1438.97 L1937.19 1437.61 L1940.99 1437.61 L1940.99 1462.5 L1947.2 1462.5 L1947.2 1465.69 L1931.02 1465.69 L1931.02 1462.5 Z" fill="#000000" fill-rule="evenodd" fill-opacity="1" /><path clip-path="url(#clip900)" d="M 0 0 M2230.46 1489.17 L2238.1 1489.17 L2238.1 1462.8 L2229.79 1464.47 L2229.79 1460.21 L2238.05 1458.54 L2242.73 1458.54 L2242.73 1489.17 L2250.37 1489.17 L2250.37 1493.1 L2230.46 1493.1 L2230.46 1489.17 Z" fill="#000000" fill-rule="evenodd" fill-opacity="1" /><path clip-path="url(#clip900)" d="M 0 0 M2265.44 1461.62 Q2261.82 1461.62 2260 1465.19 Q2258.19 1468.73 2258.19 1475.86 Q2258.19 1482.97 2260 1486.53 Q2261.82 1490.07 2265.44 1490.07 Q2269.07 1490.07 2270.88 1486.53 Q2272.7 1482.97 2272.7 1475.86 Q2272.7 1468.73 2270.88 1465.19 Q2269.07 1461.62 2265.44 1461.62 M2265.44 1457.92 Q2271.25 1457.92 2274.3 1462.53 Q2277.38 1467.11 2277.38 1475.86 Q2277.38 1484.59 2274.3 1489.19 Q2271.25 1493.78 2265.44 1493.78 Q2259.63 1493.78 2256.55 1489.19 Q2253.49 1484.59 2253.49 1475.86 Q2253.49 1467.11 2256.55 1462.53 Q2259.63 1457.92 2265.44 1457.92 Z" fill="#000000" fill-rule="evenodd" fill-opacity="1" /><path clip-path="url(#clip900)" d="M 0 0 M2277.38 1452.02 L2301.49 1452.02 L2301.49 1455.22 L2277.38 1455.22 L2277.38 1452.02 Z" fill="#000000" fill-rule="evenodd" fill-opacity="1" /><path clip-path="url(#clip900)" d="M 0 0 M2316.05 1440.92 L2306.46 1455.91 L2316.05 1455.91 L2316.05 1440.92 M2315.05 1437.61 L2319.83 1437.61 L2319.83 1455.91 L2323.84 1455.91 L2323.84 1459.07 L2319.83 1459.07 L2319.83 1465.69 L2316.05 1465.69 L2316.05 1459.07 L2303.37 1459.07 L2303.37 1455.41 L2315.05 1437.61 Z" fill="#000000" fill-rule="evenodd" fill-opacity="1" /><path clip-path="url(#clip900)" d="M 0 0 M2327.95 1460.92 L2331.92 1460.92 L2331.92 1465.69 L2327.95 1465.69 L2327.95 1460.92 Z" fill="#000000" fill-rule="evenodd" fill-opacity="1" /><path clip-path="url(#clip900)" d="M 0 0 M2344.17 1440.11 Q2341.23 1440.11 2339.75 1443.01 Q2338.28 1445.89 2338.28 1451.68 Q2338.28 1457.46 2339.75 1460.35 Q2341.23 1463.23 2344.17 1463.23 Q2347.12 1463.23 2348.59 1460.35 Q2350.07 1457.46 2350.07 1451.68 Q2350.07 1445.89 2348.59 1443.01 Q2347.12 1440.11 2344.17 1440.11 M2344.17 1437.11 Q2348.89 1437.11 2351.37 1440.85 Q2353.87 1444.57 2353.87 1451.68 Q2353.87 1458.77 2351.37 1462.51 Q2348.89 1466.24 2344.17 1466.24 Q2339.45 1466.24 2336.94 1462.51 Q2334.46 1458.77 2334.46 1451.68 Q2334.46 1444.57 2336.94 1440.85 Q2339.45 1437.11 2344.17 1437.11 Z" fill="#000000" fill-rule="evenodd" fill-opacity="1" /><path clip-path="url(#clip900)" d="M 0 0 M1201.61 1512.66 L1207.5 1512.66 L1207.5 1541.91 L1224.97 1526.54 L1232.45 1526.54 L1213.55 1543.22 L1233.25 1562.19 L1225.61 1562.19 L1207.5 1544.78 L1207.5 1562.19 L1201.61 1562.19 L1201.61 1512.66 Z" fill="#000000" fill-rule="evenodd" fill-opacity="1" /><path clip-path="url(#clip900)" d="M 0 0 M1266.48 1573.01 L1266.48 1577.56 L1232.61 1577.56 L1232.61 1573.01 L1266.48 1573.01 Z" fill="#000000" fill-rule="evenodd" fill-opacity="1" /><path clip-path="url(#clip900)" d="M 0 0 M1286.43 1530.64 Q1281.72 1530.64 1278.99 1534.34 Q1276.25 1538 1276.25 1544.39 Q1276.25 1550.79 1278.95 1554.48 Q1281.69 1558.14 1286.43 1558.14 Q1291.11 1558.14 1293.85 1554.45 Q1296.59 1550.76 1296.59 1544.39 Q1296.59 1538.06 1293.85 1534.37 Q1291.11 1530.64 1286.43 1530.64 M1286.43 1525.68 Q1294.07 1525.68 1298.43 1530.64 Q1302.79 1535.61 1302.79 1544.39 Q1302.79 1553.15 1298.43 1558.14 Q1294.07 1563.11 1286.43 1563.11 Q1278.76 1563.11 1274.4 1558.14 Q1270.07 1553.15 1270.07 1544.39 Q1270.07 1535.61 1274.4 1530.64 Q1278.76 1525.68 1286.43 1525.68 Z" fill="#000000" fill-rule="evenodd" fill-opacity="1" /><path clip-path="url(#clip900)" d="M 0 0 M1326.98 1512.66 L1326.98 1517.53 L1321.38 1517.53 Q1318.23 1517.53 1316.99 1518.8 Q1315.78 1520.08 1315.78 1523.39 L1315.78 1526.54 L1325.42 1526.54 L1325.42 1531.09 L1315.78 1531.09 L1315.78 1562.19 L1309.89 1562.19 L1309.89 1531.09 L1304.29 1531.09 L1304.29 1526.54 L1309.89 1526.54 L1309.89 1524.05 Q1309.89 1518.1 1312.66 1515.4 Q1315.43 1512.66 1321.45 1512.66 L1326.98 1512.66 Z" fill="#000000" fill-rule="evenodd" fill-opacity="1" /><path clip-path="url(#clip900)" d="M 0 0 M1351.17 1512.66 L1351.17 1517.53 L1345.57 1517.53 Q1342.42 1517.53 1341.18 1518.8 Q1339.97 1520.08 1339.97 1523.39 L1339.97 1526.54 L1349.61 1526.54 L1349.61 1531.09 L1339.97 1531.09 L1339.97 1562.19 L1334.08 1562.19 L1334.08 1531.09 L1328.48 1531.09 L1328.48 1526.54 L1334.08 1526.54 L1334.08 1524.05 Q1334.08 1518.1 1336.85 1515.4 Q1339.62 1512.66 1345.64 1512.66 L1351.17 1512.66 Z" fill="#000000" fill-rule="evenodd" fill-opacity="1" /><polyline clip-path="url(#clip902)" style="stroke:#000000; stroke-width:2; stroke-opacity:0.1; fill:none" points="
  200.028,1179.19 2352.76,1179.19 
  "/>
<polyline clip-path="url(#clip902)" style="stroke:#000000; stroke-width:2; stroke-opacity:0.1; fill:none" points="
  200.028,841.786 2352.76,841.786 
  "/>
<polyline clip-path="url(#clip902)" style="stroke:#000000; stroke-width:2; stroke-opacity:0.1; fill:none" points="
  200.028,504.377 2352.76,504.377 
  "/>
<polyline clip-path="url(#clip902)" style="stroke:#000000; stroke-width:2; stroke-opacity:0.1; fill:none" points="
  200.028,166.969 2352.76,166.969 
  "/>
<polyline clip-path="url(#clip900)" style="stroke:#000000; stroke-width:4; stroke-opacity:1; fill:none" points="
  200.028,1410.9 200.028,47.2441 
  "/>
<polyline clip-path="url(#clip900)" style="stroke:#000000; stroke-width:4; stroke-opacity:1; fill:none" points="
  200.028,1179.19 225.861,1179.19 
  "/>
<polyline clip-path="url(#clip900)" style="stroke:#000000; stroke-width:4; stroke-opacity:1; fill:none" points="
  200.028,841.786 225.861,841.786 
  "/>
<polyline clip-path="url(#clip900)" style="stroke:#000000; stroke-width:4; stroke-opacity:1; fill:none" points="
  200.028,504.377 225.861,504.377 
  "/>
<polyline clip-path="url(#clip900)" style="stroke:#000000; stroke-width:4; stroke-opacity:1; fill:none" points="
  200.028,166.969 225.861,166.969 
  "/>
<path clip-path="url(#clip900)" d="M 0 0 M120.533 1192.54 L136.853 1192.54 L136.853 1196.47 L114.908 1196.47 L114.908 1192.54 Q117.57 1189.78 122.154 1185.15 Q126.76 1180.5 127.941 1179.16 Q130.186 1176.64 131.066 1174.9 Q131.968 1173.14 131.968 1171.45 Q131.968 1168.7 130.024 1166.96 Q128.103 1165.22 125.001 1165.22 Q122.802 1165.22 120.348 1165.99 Q117.918 1166.75 115.14 1168.3 L115.14 1163.58 Q117.964 1162.45 120.418 1161.87 Q122.871 1161.29 124.908 1161.29 Q130.279 1161.29 133.473 1163.97 Q136.667 1166.66 136.667 1171.15 Q136.667 1173.28 135.857 1175.2 Q135.07 1177.1 132.964 1179.69 Q132.385 1180.36 129.283 1183.58 Q126.181 1186.77 120.533 1192.54 Z" fill="#000000" fill-rule="evenodd" fill-opacity="1" /><path clip-path="url(#clip900)" d="M 0 0 M152.501 1177.33 Q149.353 1177.33 147.501 1179.48 Q145.672 1181.64 145.672 1185.39 Q145.672 1189.11 147.501 1191.29 Q149.353 1193.44 152.501 1193.44 Q155.649 1193.44 157.478 1191.29 Q159.329 1189.11 159.329 1185.39 Q159.329 1181.64 157.478 1179.48 Q155.649 1177.33 152.501 1177.33 M161.783 1162.68 L161.783 1166.94 Q160.024 1166.1 158.218 1165.66 Q156.436 1165.22 154.677 1165.22 Q150.047 1165.22 147.593 1168.35 Q145.163 1171.47 144.816 1177.79 Q146.181 1175.78 148.241 1174.71 Q150.302 1173.63 152.778 1173.63 Q157.987 1173.63 160.996 1176.8 Q164.028 1179.95 164.028 1185.39 Q164.028 1190.71 160.88 1193.93 Q157.732 1197.14 152.501 1197.14 Q146.505 1197.14 143.334 1192.56 Q140.163 1187.96 140.163 1179.23 Q140.163 1171.03 144.052 1166.17 Q147.941 1161.29 154.491 1161.29 Q156.251 1161.29 158.033 1161.64 Q159.839 1161.98 161.783 1162.68 Z" fill="#000000" fill-rule="evenodd" fill-opacity="1" /><path clip-path="url(#clip900)" d="M 0 0 M120.788 855.13 L137.107 855.13 L137.107 859.066 L115.163 859.066 L115.163 855.13 Q117.825 852.376 122.408 847.746 Q127.015 843.093 128.195 841.751 Q130.441 839.228 131.32 837.492 Q132.223 835.732 132.223 834.042 Q132.223 831.288 130.279 829.552 Q128.357 827.816 125.255 827.816 Q123.056 827.816 120.603 828.58 Q118.172 829.343 115.394 830.894 L115.394 826.172 Q118.218 825.038 120.672 824.459 Q123.126 823.881 125.163 823.881 Q130.533 823.881 133.728 826.566 Q136.922 829.251 136.922 833.742 Q136.922 835.871 136.112 837.792 Q135.325 839.691 133.218 842.283 Q132.64 842.954 129.538 846.172 Q126.436 849.366 120.788 855.13 Z" fill="#000000" fill-rule="evenodd" fill-opacity="1" /><path clip-path="url(#clip900)" d="M 0 0 M152.177 842.654 Q148.843 842.654 146.922 844.436 Q145.024 846.218 145.024 849.343 Q145.024 852.468 146.922 854.251 Q148.843 856.033 152.177 856.033 Q155.51 856.033 157.431 854.251 Q159.353 852.445 159.353 849.343 Q159.353 846.218 157.431 844.436 Q155.533 842.654 152.177 842.654 M147.501 840.663 Q144.491 839.922 142.802 837.862 Q141.135 835.802 141.135 832.839 Q141.135 828.695 144.075 826.288 Q147.038 823.881 152.177 823.881 Q157.339 823.881 160.278 826.288 Q163.218 828.695 163.218 832.839 Q163.218 835.802 161.528 837.862 Q159.862 839.922 156.876 840.663 Q160.255 841.45 162.13 843.742 Q164.028 846.033 164.028 849.343 Q164.028 854.366 160.95 857.052 Q157.894 859.737 152.177 859.737 Q146.459 859.737 143.38 857.052 Q140.325 854.366 140.325 849.343 Q140.325 846.033 142.223 843.742 Q144.121 841.45 147.501 840.663 M145.788 833.279 Q145.788 835.964 147.454 837.468 Q149.144 838.973 152.177 838.973 Q155.186 838.973 156.876 837.468 Q158.589 835.964 158.589 833.279 Q158.589 830.593 156.876 829.089 Q155.186 827.584 152.177 827.584 Q149.144 827.584 147.454 829.089 Q145.788 830.593 145.788 833.279 Z" fill="#000000" fill-rule="evenodd" fill-opacity="1" /><path clip-path="url(#clip900)" d="M 0 0 M129.885 503.023 Q133.242 503.741 135.117 506.009 Q137.015 508.278 137.015 511.611 Q137.015 516.727 133.496 519.528 Q129.978 522.329 123.496 522.329 Q121.32 522.329 119.006 521.889 Q116.714 521.472 114.26 520.616 L114.26 516.102 Q116.205 517.236 118.519 517.815 Q120.834 518.393 123.357 518.393 Q127.755 518.393 130.047 516.657 Q132.362 514.921 132.362 511.611 Q132.362 508.556 130.209 506.843 Q128.08 505.106 124.26 505.106 L120.232 505.106 L120.232 501.264 L124.445 501.264 Q127.894 501.264 129.723 499.898 Q131.552 498.509 131.552 495.917 Q131.552 493.255 129.654 491.843 Q127.779 490.407 124.26 490.407 Q122.339 490.407 120.14 490.824 Q117.941 491.241 115.302 492.12 L115.302 487.954 Q117.964 487.213 120.279 486.843 Q122.617 486.472 124.677 486.472 Q130.001 486.472 133.103 488.903 Q136.204 491.31 136.204 495.431 Q136.204 498.301 134.561 500.292 Q132.917 502.259 129.885 503.023 Z" fill="#000000" fill-rule="evenodd" fill-opacity="1" /><path clip-path="url(#clip900)" d="M 0 0 M152.084 490.176 Q148.473 490.176 146.644 493.741 Q144.839 497.282 144.839 504.412 Q144.839 511.518 146.644 515.083 Q148.473 518.625 152.084 518.625 Q155.718 518.625 157.524 515.083 Q159.353 511.518 159.353 504.412 Q159.353 497.282 157.524 493.741 Q155.718 490.176 152.084 490.176 M152.084 486.472 Q157.894 486.472 160.95 491.079 Q164.028 495.662 164.028 504.412 Q164.028 513.139 160.95 517.745 Q157.894 522.329 152.084 522.329 Q146.274 522.329 143.195 517.745 Q140.14 513.139 140.14 504.412 Q140.14 495.662 143.195 491.079 Q146.274 486.472 152.084 486.472 Z" fill="#000000" fill-rule="evenodd" fill-opacity="1" /><path clip-path="url(#clip900)" d="M 0 0 M131.482 165.615 Q134.839 166.333 136.714 168.601 Q138.612 170.87 138.612 174.203 Q138.612 179.319 135.093 182.119 Q131.575 184.92 125.093 184.92 Q122.918 184.92 120.603 184.481 Q118.311 184.064 115.857 183.207 L115.857 178.694 Q117.802 179.828 120.117 180.407 Q122.431 180.985 124.955 180.985 Q129.353 180.985 131.644 179.249 Q133.959 177.513 133.959 174.203 Q133.959 171.147 131.806 169.434 Q129.677 167.698 125.857 167.698 L121.83 167.698 L121.83 163.856 L126.043 163.856 Q129.492 163.856 131.32 162.49 Q133.149 161.101 133.149 158.508 Q133.149 155.846 131.251 154.434 Q129.376 152.999 125.857 152.999 Q123.936 152.999 121.737 153.416 Q119.538 153.833 116.899 154.712 L116.899 150.546 Q119.561 149.805 121.876 149.434 Q124.214 149.064 126.274 149.064 Q131.598 149.064 134.7 151.495 Q137.802 153.902 137.802 158.022 Q137.802 160.893 136.158 162.883 Q134.515 164.851 131.482 165.615 Z" fill="#000000" fill-rule="evenodd" fill-opacity="1" /><path clip-path="url(#clip900)" d="M 0 0 M147.709 180.314 L164.028 180.314 L164.028 184.249 L142.084 184.249 L142.084 180.314 Q144.746 177.559 149.329 172.93 Q153.936 168.277 155.116 166.934 Q157.362 164.411 158.241 162.675 Q159.144 160.916 159.144 159.226 Q159.144 156.471 157.2 154.735 Q155.278 152.999 152.177 152.999 Q149.978 152.999 147.524 153.763 Q145.093 154.527 142.316 156.078 L142.316 151.356 Q145.14 150.221 147.593 149.643 Q150.047 149.064 152.084 149.064 Q157.454 149.064 160.649 151.749 Q163.843 154.434 163.843 158.925 Q163.843 161.055 163.033 162.976 Q162.246 164.874 160.14 167.467 Q159.561 168.138 156.459 171.356 Q153.357 174.55 147.709 180.314 Z" fill="#000000" fill-rule="evenodd" fill-opacity="1" /><path clip-path="url(#clip900)" d="M 0 0 M59.1993 815.533 Q55.2526 813.336 53.3747 810.281 Q51.4968 807.225 51.4968 803.088 Q51.4968 797.518 55.4117 794.494 Q59.2948 791.47 66.4881 791.47 L88.0042 791.47 L88.0042 797.358 L66.679 797.358 Q61.5546 797.358 59.072 799.173 Q56.5894 800.987 56.5894 804.711 Q56.5894 809.262 59.6131 811.904 Q62.6368 814.546 67.8567 814.546 L88.0042 814.546 L88.0042 820.434 L66.679 820.434 Q61.5228 820.434 59.072 822.248 Q56.5894 824.063 56.5894 827.85 Q56.5894 832.338 59.6449 834.98 Q62.6686 837.622 67.8567 837.622 L88.0042 837.622 L88.0042 843.51 L52.3562 843.51 L52.3562 837.622 L57.8944 837.622 Q54.616 835.616 53.0564 832.815 Q51.4968 830.015 51.4968 826.163 Q51.4968 822.28 53.4702 819.575 Q55.4436 816.838 59.1993 815.533 Z" fill="#000000" fill-rule="evenodd" fill-opacity="1" /><path clip-path="url(#clip900)" d="M 0 0 M52.3562 785.327 L52.3562 779.471 L88.0042 779.471 L88.0042 785.327 L52.3562 785.327 M38.479 785.327 L38.479 779.471 L45.895 779.471 L45.895 785.327 L38.479 785.327 Z" fill="#000000" fill-rule="evenodd" fill-opacity="1" /><path clip-path="url(#clip900)" d="M 0 0 M66.4881 743.696 L88.0042 743.696 L88.0042 749.552 L66.679 749.552 Q61.6183 749.552 59.1038 751.525 Q56.5894 753.499 56.5894 757.446 Q56.5894 762.188 59.6131 764.925 Q62.6368 767.662 67.8567 767.662 L88.0042 767.662 L88.0042 773.551 L52.3562 773.551 L52.3562 767.662 L57.8944 767.662 Q54.6797 765.562 53.0883 762.729 Q51.4968 759.864 51.4968 756.141 Q51.4968 749.998 55.3163 746.847 Q59.1038 743.696 66.4881 743.696 Z" fill="#000000" fill-rule="evenodd" fill-opacity="1" /><path clip-path="url(#clip900)" d="M 0 0 M98.8259 710.467 L103.377 710.467 L103.377 744.332 L98.8259 744.332 L98.8259 710.467 Z" fill="#000000" fill-rule="evenodd" fill-opacity="1" /><path clip-path="url(#clip900)" d="M 0 0 M57.7671 680.866 L38.479 680.866 L38.479 675.01 L88.0042 675.01 L88.0042 680.866 L82.657 680.866 Q85.8398 682.712 87.3994 685.545 Q88.9272 688.346 88.9272 692.292 Q88.9272 698.754 83.771 702.828 Q78.6147 706.87 70.212 706.87 Q61.8093 706.87 56.6531 702.828 Q51.4968 698.754 51.4968 692.292 Q51.4968 688.346 53.0564 685.545 Q54.5842 682.712 57.7671 680.866 M70.212 700.823 Q76.6732 700.823 80.3653 698.181 Q84.0256 695.507 84.0256 690.86 Q84.0256 686.213 80.3653 683.54 Q76.6732 680.866 70.212 680.866 Q63.7508 680.866 60.0905 683.54 Q56.3984 686.213 56.3984 690.86 Q56.3984 695.507 60.0905 698.181 Q63.7508 700.823 70.212 700.823 Z" fill="#000000" fill-rule="evenodd" fill-opacity="1" /><path clip-path="url(#clip900)" d="M 0 0 M52.3562 668.867 L52.3562 663.01 L88.0042 663.01 L88.0042 668.867 L52.3562 668.867 M38.479 668.867 L38.479 663.01 L45.895 663.01 L45.895 668.867 L38.479 668.867 Z" fill="#000000" fill-rule="evenodd" fill-opacity="1" /><path clip-path="url(#clip900)" d="M 0 0 M38.479 638.821 L43.3487 638.821 L43.3487 644.422 Q43.3487 647.573 44.6219 648.815 Q45.895 650.024 49.2052 650.024 L52.3562 650.024 L52.3562 640.38 L56.9077 640.38 L56.9077 650.024 L88.0042 650.024 L88.0042 655.912 L56.9077 655.912 L56.9077 661.514 L52.3562 661.514 L52.3562 655.912 L49.8736 655.912 Q43.9216 655.912 41.2162 653.143 Q38.479 650.374 38.479 644.359 L38.479 638.821 Z" fill="#000000" fill-rule="evenodd" fill-opacity="1" /><path clip-path="url(#clip900)" d="M 0 0 M38.479 614.631 L43.3487 614.631 L43.3487 620.233 Q43.3487 623.384 44.6219 624.625 Q45.895 625.835 49.2052 625.835 L52.3562 625.835 L52.3562 616.19 L56.9077 616.19 L56.9077 625.835 L88.0042 625.835 L88.0042 631.723 L56.9077 631.723 L56.9077 637.325 L52.3562 637.325 L52.3562 631.723 L49.8736 631.723 Q43.9216 631.723 41.2162 628.954 Q38.479 626.185 38.479 620.169 L38.479 614.631 Z" fill="#000000" fill-rule="evenodd" fill-opacity="1" /><polyline clip-path="url(#clip902)" style="stroke:#009af9; stroke-width:20; stroke-opacity:1; fill:none" stroke-dasharray="80, 50" points="
  260.955,85.838 1276.39,1365.67 2291.83,1372.3 
  "/>
<path clip-path="url(#clip900)" d="
M1990.79 213.659 L2281 213.659 L2281 92.6992 L1990.79 92.6992  Z
  " fill="#ffffff" fill-rule="evenodd" fill-opacity="1"/>
<polyline clip-path="url(#clip900)" style="stroke:#000000; stroke-width:4; stroke-opacity:1; fill:none" points="
  1990.79,213.659 2281,213.659 2281,92.6992 1990.79,92.6992 1990.79,213.659 
  "/>
<polyline clip-path="url(#clip900)" style="stroke:#009af9; stroke-width:4; stroke-opacity:1; fill:none" stroke-dasharray="16, 10" points="
  2014.71,153.179 2158.22,153.179 
  "/>
<path clip-path="url(#clip900)" d="M 0 0 M2195.98 172.867 Q2194.18 177.496 2192.47 178.908 Q2190.75 180.32 2187.88 180.32 L2184.48 180.32 L2184.48 176.755 L2186.98 176.755 Q2188.74 176.755 2189.71 175.922 Q2190.68 175.089 2191.86 171.987 L2192.63 170.043 L2182.14 144.533 L2186.66 144.533 L2194.76 164.811 L2202.86 144.533 L2207.37 144.533 L2195.98 172.867 Z" fill="#000000" fill-rule="evenodd" fill-opacity="1" /><path clip-path="url(#clip900)" d="M 0 0 M2213.25 166.524 L2220.89 166.524 L2220.89 140.158 L2212.58 141.825 L2212.58 137.566 L2220.85 135.899 L2225.52 135.899 L2225.52 166.524 L2233.16 166.524 L2233.16 170.459 L2213.25 170.459 L2213.25 166.524 Z" fill="#000000" fill-rule="evenodd" fill-opacity="1" /></svg>
