<?xml version="1.0" encoding="utf-8"?>
<svg xmlns="http://www.w3.org/2000/svg" xmlns:xlink="http://www.w3.org/1999/xlink" width="600" height="400" viewBox="0 0 2400 1600">
<defs>
  <clipPath id="clip410">
    <rect x="0" y="0" width="2400" height="1600"/>
  </clipPath>
</defs>
<path clip-path="url(#clip410)" d="
M0 1600 L2400 1600 L2400 0 L0 0  Z
  " fill="#ffffff" fill-rule="evenodd" fill-opacity="1"/>
<defs>
  <clipPath id="clip411">
    <rect x="480" y="0" width="1681" height="1600"/>
  </clipPath>
</defs>
<path clip-path="url(#clip410)" d="
M256.486 1410.9 L2352.76 1410.9 L2352.76 47.2441 L256.486 47.2441  Z
  " fill="#ffffff" fill-rule="evenodd" fill-opacity="1"/>
<defs>
  <clipPath id="clip412">
    <rect x="256" y="47" width="2097" height="1365"/>
  </clipPath>
</defs>
<polyline clip-path="url(#clip412)" style="stroke:#000000; stroke-width:2; stroke-opacity:0.1; fill:none" points="
  469.384,1410.9 469.384,47.2441 
  "/>
<polyline clip-path="url(#clip412)" style="stroke:#000000; stroke-width:2; stroke-opacity:0.1; fill:none" points="
  773.391,1410.9 773.391,47.2441 
  "/>
<polyline clip-path="url(#clip412)" style="stroke:#000000; stroke-width:2; stroke-opacity:0.1; fill:none" points="
  1077.4,1410.9 1077.4,47.2441 
  "/>
<polyline clip-path="url(#clip412)" style="stroke:#000000; stroke-width:2; stroke-opacity:0.1; fill:none" points="
  1381.41,1410.9 1381.41,47.2441 
  "/>
<polyline clip-path="url(#clip412)" style="stroke:#000000; stroke-width:2; stroke-opacity:0.1; fill:none" points="
  1685.41,1410.9 1685.41,47.2441 
  "/>
<polyline clip-path="url(#clip412)" style="stroke:#000000; stroke-width:2; stroke-opacity:0.1; fill:none" points="
  1989.42,1410.9 1989.42,47.2441 
  "/>
<polyline clip-path="url(#clip412)" style="stroke:#000000; stroke-width:2; stroke-opacity:0.1; fill:none" points="
  2293.43,1410.9 2293.43,47.2441 
  "/>
<polyline clip-path="url(#clip410)" style="stroke:#000000; stroke-width:4; stroke-opacity:1; fill:none" points="
  256.486,1410.9 2352.76,1410.9 
  "/>
<polyline clip-path="url(#clip410)" style="stroke:#000000; stroke-width:4; stroke-opacity:1; fill:none" points="
  469.384,1410.9 469.384,1394.53 
  "/>
<polyline clip-path="url(#clip410)" style="stroke:#000000; stroke-width:4; stroke-opacity:1; fill:none" points="
  773.391,1410.9 773.391,1394.53 
  "/>
<polyline clip-path="url(#clip410)" style="stroke:#000000; stroke-width:4; stroke-opacity:1; fill:none" points="
  1077.4,1410.9 1077.4,1394.53 
  "/>
<polyline clip-path="url(#clip410)" style="stroke:#000000; stroke-width:4; stroke-opacity:1; fill:none" points="
  1381.41,1410.9 1381.41,1394.53 
  "/>
<polyline clip-path="url(#clip410)" style="stroke:#000000; stroke-width:4; stroke-opacity:1; fill:none" points="
  1685.41,1410.9 1685.41,1394.53 
  "/>
<polyline clip-path="url(#clip410)" style="stroke:#000000; stroke-width:4; stroke-opacity:1; fill:none" points="
  1989.42,1410.9 1989.42,1394.53 
  "/>
<polyline clip-path="url(#clip410)" style="stroke:#000000; stroke-width:4; stroke-opacity:1; fill:none" points="
  2293.43,1410.9 2293.43,1394.53 
  "/>
<path clip-path="url(#clip410)" d="M 0 0 M408.86 1489.17 L416.499 1489.17 L416.499 1462.8 L408.189 1464.47 L408.189 1460.21 L416.452 1458.54 L421.128 1458.54 L421.128 1489.17 L428.767 1489.17 L428.767 1493.1 L408.86 1493.1 L408.86 1489.17 Z" fill="#000000" fill-rule="evenodd" fill-opacity="1" /><path clip-path="url(#clip410)" d="M 0 0 M443.837 1461.62 Q440.226 1461.62 438.397 1465.19 Q436.591 1468.73 436.591 1475.86 Q436.591 1482.97 438.397 1486.53 Q440.226 1490.07 443.837 1490.07 Q447.471 1490.07 449.276 1486.53 Q451.105 1482.97 451.105 1475.86 Q451.105 1468.73 449.276 1465.19 Q447.471 1461.62 443.837 1461.62 M443.837 1457.92 Q449.647 1457.92 452.702 1462.53 Q455.781 1467.11 455.781 1475.86 Q455.781 1484.59 452.702 1489.19 Q449.647 1493.78 443.837 1493.78 Q438.026 1493.78 434.948 1489.19 Q431.892 1484.59 431.892 1475.86 Q431.892 1467.11 434.948 1462.53 Q438.026 1457.92 443.837 1457.92 Z" fill="#000000" fill-rule="evenodd" fill-opacity="1" /><path clip-path="url(#clip410)" d="M 0 0 M455.781 1452.02 L479.893 1452.02 L479.893 1455.22 L455.781 1455.22 L455.781 1452.02 Z" fill="#000000" fill-rule="evenodd" fill-opacity="1" /><path clip-path="url(#clip410)" d="M 0 0 M492.136 1440.11 Q489.202 1440.11 487.717 1443.01 Q486.25 1445.89 486.25 1451.68 Q486.25 1457.46 487.717 1460.35 Q489.202 1463.23 492.136 1463.23 Q495.089 1463.23 496.556 1460.35 Q498.042 1457.46 498.042 1451.68 Q498.042 1445.89 496.556 1443.01 Q495.089 1440.11 492.136 1440.11 M492.136 1437.11 Q496.857 1437.11 499.34 1440.85 Q501.841 1444.57 501.841 1451.68 Q501.841 1458.77 499.34 1462.51 Q496.857 1466.24 492.136 1466.24 Q487.416 1466.24 484.914 1462.51 Q482.432 1458.77 482.432 1451.68 Q482.432 1444.57 484.914 1440.85 Q487.416 1437.11 492.136 1437.11 Z" fill="#000000" fill-rule="evenodd" fill-opacity="1" /><path clip-path="url(#clip410)" d="M 0 0 M505.96 1460.92 L509.929 1460.92 L509.929 1465.69 L505.96 1465.69 L505.96 1460.92 Z" fill="#000000" fill-rule="evenodd" fill-opacity="1" /><path clip-path="url(#clip410)" d="M 0 0 M517.32 1462.5 L530.579 1462.5 L530.579 1465.69 L512.75 1465.69 L512.75 1462.5 Q514.913 1460.26 518.637 1456.5 Q522.379 1452.72 523.339 1451.63 Q525.163 1449.58 525.878 1448.16 Q526.611 1446.74 526.611 1445.36 Q526.611 1443.12 525.031 1441.71 Q523.47 1440.3 520.95 1440.3 Q519.163 1440.3 517.17 1440.92 Q515.195 1441.54 512.938 1442.8 L512.938 1438.97 Q515.232 1438.05 517.226 1437.58 Q519.22 1437.11 520.875 1437.11 Q525.238 1437.11 527.834 1439.29 Q530.429 1441.47 530.429 1445.12 Q530.429 1446.85 529.771 1448.41 Q529.131 1449.95 527.42 1452.06 Q526.95 1452.6 524.429 1455.22 Q521.909 1457.81 517.32 1462.5 Z" fill="#000000" fill-rule="evenodd" fill-opacity="1" /><path clip-path="url(#clip410)" d="M 0 0 M725.544 1489.17 L733.182 1489.17 L733.182 1462.8 L724.872 1464.47 L724.872 1460.21 L733.136 1458.54 L737.812 1458.54 L737.812 1489.17 L745.451 1489.17 L745.451 1493.1 L725.544 1493.1 L725.544 1489.17 Z" fill="#000000" fill-rule="evenodd" fill-opacity="1" /><path clip-path="url(#clip410)" d="M 0 0 M760.52 1461.62 Q756.909 1461.62 755.081 1465.19 Q753.275 1468.73 753.275 1475.86 Q753.275 1482.97 755.081 1486.53 Q756.909 1490.07 760.52 1490.07 Q764.155 1490.07 765.96 1486.53 Q767.789 1482.97 767.789 1475.86 Q767.789 1468.73 765.96 1465.19 Q764.155 1461.62 760.52 1461.62 M760.52 1457.92 Q766.33 1457.92 769.386 1462.53 Q772.465 1467.11 772.465 1475.86 Q772.465 1484.59 769.386 1489.19 Q766.33 1493.78 760.52 1493.78 Q754.71 1493.78 751.631 1489.19 Q748.576 1484.59 748.576 1475.86 Q748.576 1467.11 751.631 1462.53 Q754.71 1457.92 760.52 1457.92 Z" fill="#000000" fill-rule="evenodd" fill-opacity="1" /><path clip-path="url(#clip410)" d="M 0 0 M782.169 1440.11 Q779.235 1440.11 777.75 1443.01 Q776.283 1445.89 776.283 1451.68 Q776.283 1457.46 777.75 1460.35 Q779.235 1463.23 782.169 1463.23 Q785.122 1463.23 786.589 1460.35 Q788.075 1457.46 788.075 1451.68 Q788.075 1445.89 786.589 1443.01 Q785.122 1440.11 782.169 1440.11 M782.169 1437.11 Q786.89 1437.11 789.373 1440.85 Q791.874 1444.57 791.874 1451.68 Q791.874 1458.77 789.373 1462.51 Q786.89 1466.24 782.169 1466.24 Q777.449 1466.24 774.947 1462.51 Q772.465 1458.77 772.465 1451.68 Q772.465 1444.57 774.947 1440.85 Q777.449 1437.11 782.169 1437.11 Z" fill="#000000" fill-rule="evenodd" fill-opacity="1" /><path clip-path="url(#clip410)" d="M 0 0 M795.993 1460.92 L799.962 1460.92 L799.962 1465.69 L795.993 1465.69 L795.993 1460.92 Z" fill="#000000" fill-rule="evenodd" fill-opacity="1" /><path clip-path="url(#clip410)" d="M 0 0 M812.205 1440.11 Q809.271 1440.11 807.786 1443.01 Q806.319 1445.89 806.319 1451.68 Q806.319 1457.46 807.786 1460.35 Q809.271 1463.23 812.205 1463.23 Q815.158 1463.23 816.625 1460.35 Q818.111 1457.46 818.111 1451.68 Q818.111 1445.89 816.625 1443.01 Q815.158 1440.11 812.205 1440.11 M812.205 1437.11 Q816.926 1437.11 819.409 1440.85 Q821.91 1444.57 821.91 1451.68 Q821.91 1458.77 819.409 1462.51 Q816.926 1466.24 812.205 1466.24 Q807.485 1466.24 804.983 1462.51 Q802.501 1458.77 802.501 1451.68 Q802.501 1444.57 804.983 1440.85 Q807.485 1437.11 812.205 1437.11 Z" fill="#000000" fill-rule="evenodd" fill-opacity="1" /><path clip-path="url(#clip410)" d="M 0 0 M1030.2 1489.17 L1037.84 1489.17 L1037.84 1462.8 L1029.53 1464.47 L1029.53 1460.21 L1037.79 1458.54 L1042.47 1458.54 L1042.47 1489.17 L1050.11 1489.17 L1050.11 1493.1 L1030.2 1493.1 L1030.2 1489.17 Z" fill="#000000" fill-rule="evenodd" fill-opacity="1" /><path clip-path="url(#clip410)" d="M 0 0 M1065.18 1461.62 Q1061.57 1461.62 1059.74 1465.19 Q1057.93 1468.73 1057.93 1475.86 Q1057.93 1482.97 1059.74 1486.53 Q1061.57 1490.07 1065.18 1490.07 Q1068.81 1490.07 1070.62 1486.53 Q1072.44 1482.97 1072.44 1475.86 Q1072.44 1468.73 1070.62 1465.19 Q1068.81 1461.62 1065.18 1461.62 M1065.18 1457.92 Q1070.99 1457.92 1074.04 1462.53 Q1077.12 1467.11 1077.12 1475.86 Q1077.12 1484.59 1074.04 1489.19 Q1070.99 1493.78 1065.18 1493.78 Q1059.37 1493.78 1056.29 1489.19 Q1053.23 1484.59 1053.23 1475.86 Q1053.23 1467.11 1056.29 1462.53 Q1059.37 1457.92 1065.18 1457.92 Z" fill="#000000" fill-rule="evenodd" fill-opacity="1" /><path clip-path="url(#clip410)" d="M 0 0 M1086.83 1440.11 Q1083.89 1440.11 1082.41 1443.01 Q1080.94 1445.89 1080.94 1451.68 Q1080.94 1457.46 1082.41 1460.35 Q1083.89 1463.23 1086.83 1463.23 Q1089.78 1463.23 1091.25 1460.35 Q1092.73 1457.46 1092.73 1451.68 Q1092.73 1445.89 1091.25 1443.01 Q1089.78 1440.11 1086.83 1440.11 M1086.83 1437.11 Q1091.55 1437.11 1094.03 1440.85 Q1096.53 1444.57 1096.53 1451.68 Q1096.53 1458.77 1094.03 1462.51 Q1091.55 1466.24 1086.83 1466.24 Q1082.1 1466.24 1079.6 1462.51 Q1077.12 1458.77 1077.12 1451.68 Q1077.12 1444.57 1079.6 1440.85 Q1082.1 1437.11 1086.83 1437.11 Z" fill="#000000" fill-rule="evenodd" fill-opacity="1" /><path clip-path="url(#clip410)" d="M 0 0 M1100.65 1460.92 L1104.62 1460.92 L1104.62 1465.69 L1100.65 1465.69 L1100.65 1460.92 Z" fill="#000000" fill-rule="evenodd" fill-opacity="1" /><path clip-path="url(#clip410)" d="M 0 0 M1112.01 1462.5 L1125.27 1462.5 L1125.27 1465.69 L1107.44 1465.69 L1107.44 1462.5 Q1109.6 1460.26 1113.33 1456.5 Q1117.07 1452.72 1118.03 1451.63 Q1119.85 1449.58 1120.57 1448.16 Q1121.3 1446.74 1121.3 1445.36 Q1121.3 1443.12 1119.72 1441.71 Q1118.16 1440.3 1115.64 1440.3 Q1113.85 1440.3 1111.86 1440.92 Q1109.88 1441.54 1107.63 1442.8 L1107.63 1438.97 Q1109.92 1438.05 1111.92 1437.58 Q1113.91 1437.11 1115.56 1437.11 Q1119.93 1437.11 1122.52 1439.29 Q1125.12 1441.47 1125.12 1445.12 Q1125.12 1446.85 1124.46 1448.41 Q1123.82 1449.95 1122.11 1452.06 Q1121.64 1452.6 1119.12 1455.22 Q1116.6 1457.81 1112.01 1462.5 Z" fill="#000000" fill-rule="evenodd" fill-opacity="1" /><path clip-path="url(#clip410)" d="M 0 0 M1333.36 1489.17 L1341 1489.17 L1341 1462.8 L1332.69 1464.47 L1332.69 1460.21 L1340.95 1458.54 L1345.63 1458.54 L1345.63 1489.17 L1353.27 1489.17 L1353.27 1493.1 L1333.36 1493.1 L1333.36 1489.17 Z" fill="#000000" fill-rule="evenodd" fill-opacity="1" /><path clip-path="url(#clip410)" d="M 0 0 M1368.34 1461.62 Q1364.73 1461.62 1362.9 1465.19 Q1361.09 1468.73 1361.09 1475.86 Q1361.09 1482.97 1362.9 1486.53 Q1364.73 1490.07 1368.34 1490.07 Q1371.97 1490.07 1373.78 1486.53 Q1375.61 1482.97 1375.61 1475.86 Q1375.61 1468.73 1373.78 1465.19 Q1371.97 1461.62 1368.34 1461.62 M1368.34 1457.92 Q1374.15 1457.92 1377.2 1462.53 Q1380.28 1467.11 1380.28 1475.86 Q1380.28 1484.59 1377.2 1489.19 Q1374.15 1493.78 1368.34 1493.78 Q1362.53 1493.78 1359.45 1489.19 Q1356.39 1484.59 1356.39 1475.86 Q1356.39 1467.11 1359.45 1462.53 Q1362.53 1457.92 1368.34 1457.92 Z" fill="#000000" fill-rule="evenodd" fill-opacity="1" /><path clip-path="url(#clip410)" d="M 0 0 M1389.99 1440.11 Q1387.05 1440.11 1385.57 1443.01 Q1384.1 1445.89 1384.1 1451.68 Q1384.1 1457.46 1385.57 1460.35 Q1387.05 1463.23 1389.99 1463.23 Q1392.94 1463.23 1394.41 1460.35 Q1395.89 1457.46 1395.89 1451.68 Q1395.89 1445.89 1394.41 1443.01 Q1392.94 1440.11 1389.99 1440.11 M1389.99 1437.11 Q1394.71 1437.11 1397.19 1440.85 Q1399.69 1444.57 1399.69 1451.68 Q1399.69 1458.77 1397.19 1462.51 Q1394.71 1466.24 1389.99 1466.24 Q1385.27 1466.24 1382.76 1462.51 Q1380.28 1458.77 1380.28 1451.68 Q1380.28 1444.57 1382.76 1440.85 Q1385.27 1437.11 1389.99 1437.11 Z" fill="#000000" fill-rule="evenodd" fill-opacity="1" /><path clip-path="url(#clip410)" d="M 0 0 M1403.81 1460.92 L1407.78 1460.92 L1407.78 1465.69 L1403.81 1465.69 L1403.81 1460.92 Z" fill="#000000" fill-rule="evenodd" fill-opacity="1" /><path clip-path="url(#clip410)" d="M 0 0 M1422.34 1440.92 L1412.74 1455.91 L1422.34 1455.91 L1422.34 1440.92 M1421.34 1437.61 L1426.12 1437.61 L1426.12 1455.91 L1430.12 1455.91 L1430.12 1459.07 L1426.12 1459.07 L1426.12 1465.69 L1422.34 1465.69 L1422.34 1459.07 L1409.66 1459.07 L1409.66 1455.41 L1421.34 1437.61 Z" fill="#000000" fill-rule="evenodd" fill-opacity="1" /><path clip-path="url(#clip410)" d="M 0 0 M1637.5 1489.17 L1645.14 1489.17 L1645.14 1462.8 L1636.83 1464.47 L1636.83 1460.21 L1645.09 1458.54 L1649.77 1458.54 L1649.77 1489.17 L1657.41 1489.17 L1657.41 1493.1 L1637.5 1493.1 L1637.5 1489.17 Z" fill="#000000" fill-rule="evenodd" fill-opacity="1" /><path clip-path="url(#clip410)" d="M 0 0 M1672.48 1461.62 Q1668.87 1461.62 1667.04 1465.19 Q1665.23 1468.73 1665.23 1475.86 Q1665.23 1482.97 1667.04 1486.53 Q1668.87 1490.07 1672.48 1490.07 Q1676.11 1490.07 1677.92 1486.53 Q1679.74 1482.97 1679.74 1475.86 Q1679.74 1468.73 1677.92 1465.19 Q1676.11 1461.62 1672.48 1461.62 M1672.48 1457.92 Q1678.29 1457.92 1681.34 1462.53 Q1684.42 1467.11 1684.42 1475.86 Q1684.42 1484.59 1681.34 1489.19 Q1678.29 1493.78 1672.48 1493.78 Q1666.67 1493.78 1663.59 1489.19 Q1660.53 1484.59 1660.53 1475.86 Q1660.53 1467.11 1663.59 1462.53 Q1666.67 1457.92 1672.48 1457.92 Z" fill="#000000" fill-rule="evenodd" fill-opacity="1" /><path clip-path="url(#clip410)" d="M 0 0 M1694.13 1440.11 Q1691.19 1440.11 1689.71 1443.01 Q1688.24 1445.89 1688.24 1451.68 Q1688.24 1457.46 1689.71 1460.35 Q1691.19 1463.23 1694.13 1463.23 Q1697.08 1463.23 1698.55 1460.35 Q1700.03 1457.46 1700.03 1451.68 Q1700.03 1445.89 1698.55 1443.01 Q1697.08 1440.11 1694.13 1440.11 M1694.13 1437.11 Q1698.85 1437.11 1701.33 1440.85 Q1703.83 1444.57 1703.83 1451.68 Q1703.83 1458.77 1701.33 1462.51 Q1698.85 1466.24 1694.13 1466.24 Q1689.4 1466.24 1686.9 1462.51 Q1684.42 1458.77 1684.42 1451.68 Q1684.42 1444.57 1686.9 1440.85 Q1689.4 1437.11 1694.13 1437.11 Z" fill="#000000" fill-rule="evenodd" fill-opacity="1" /><path clip-path="url(#clip410)" d="M 0 0 M1707.95 1460.92 L1711.92 1460.92 L1711.92 1465.69 L1707.95 1465.69 L1707.95 1460.92 Z" fill="#000000" fill-rule="evenodd" fill-opacity="1" /><path clip-path="url(#clip410)" d="M 0 0 M1724.63 1450.14 Q1722.07 1450.14 1720.57 1451.89 Q1719.08 1453.64 1719.08 1456.68 Q1719.08 1459.71 1720.57 1461.48 Q1722.07 1463.23 1724.63 1463.23 Q1727.19 1463.23 1728.68 1461.48 Q1730.18 1459.71 1730.18 1456.68 Q1730.18 1453.64 1728.68 1451.89 Q1727.19 1450.14 1724.63 1450.14 M1732.17 1438.23 L1732.17 1441.69 Q1730.74 1441.02 1729.28 1440.66 Q1727.83 1440.3 1726.4 1440.3 Q1722.64 1440.3 1720.64 1442.84 Q1718.67 1445.38 1718.39 1450.52 Q1719.5 1448.88 1721.17 1448.01 Q1722.84 1447.13 1724.86 1447.13 Q1729.09 1447.13 1731.53 1449.71 Q1734 1452.26 1734 1456.68 Q1734 1461.01 1731.44 1463.62 Q1728.88 1466.24 1724.63 1466.24 Q1719.76 1466.24 1717.18 1462.51 Q1714.61 1458.77 1714.61 1451.68 Q1714.61 1445.02 1717.77 1441.07 Q1720.93 1437.11 1726.25 1437.11 Q1727.68 1437.11 1729.13 1437.39 Q1730.59 1437.67 1732.17 1438.23 Z" fill="#000000" fill-rule="evenodd" fill-opacity="1" /><path clip-path="url(#clip410)" d="M 0 0 M1941.61 1489.17 L1949.25 1489.17 L1949.25 1462.8 L1940.94 1464.47 L1940.94 1460.21 L1949.2 1458.54 L1953.88 1458.54 L1953.88 1489.17 L1961.52 1489.17 L1961.52 1493.1 L1941.61 1493.1 L1941.61 1489.17 Z" fill="#000000" fill-rule="evenodd" fill-opacity="1" /><path clip-path="url(#clip410)" d="M 0 0 M1976.59 1461.62 Q1972.98 1461.62 1971.15 1465.19 Q1969.34 1468.73 1969.34 1475.86 Q1969.34 1482.97 1971.15 1486.53 Q1972.98 1490.07 1976.59 1490.07 Q1980.22 1490.07 1982.03 1486.53 Q1983.86 1482.97 1983.86 1475.86 Q1983.86 1468.73 1982.03 1465.19 Q1980.22 1461.62 1976.59 1461.62 M1976.59 1457.92 Q1982.4 1457.92 1985.45 1462.53 Q1988.53 1467.11 1988.53 1475.86 Q1988.53 1484.59 1985.45 1489.19 Q1982.4 1493.78 1976.59 1493.78 Q1970.78 1493.78 1967.7 1489.19 Q1964.64 1484.59 1964.64 1475.86 Q1964.64 1467.11 1967.7 1462.53 Q1970.78 1457.92 1976.59 1457.92 Z" fill="#000000" fill-rule="evenodd" fill-opacity="1" /><path clip-path="url(#clip410)" d="M 0 0 M1998.24 1440.11 Q1995.3 1440.11 1993.82 1443.01 Q1992.35 1445.89 1992.35 1451.68 Q1992.35 1457.46 1993.82 1460.35 Q1995.3 1463.23 1998.24 1463.23 Q2001.19 1463.23 2002.66 1460.35 Q2004.14 1457.46 2004.14 1451.68 Q2004.14 1445.89 2002.66 1443.01 Q2001.19 1440.11 1998.24 1440.11 M1998.24 1437.11 Q2002.96 1437.11 2005.44 1440.85 Q2007.94 1444.57 2007.94 1451.68 Q2007.94 1458.77 2005.44 1462.51 Q2002.96 1466.24 1998.24 1466.24 Q1993.52 1466.24 1991.01 1462.51 Q1988.53 1458.77 1988.53 1451.68 Q1988.53 1444.57 1991.01 1440.85 Q1993.52 1437.11 1998.24 1437.11 Z" fill="#000000" fill-rule="evenodd" fill-opacity="1" /><path clip-path="url(#clip410)" d="M 0 0 M2012.06 1460.92 L2016.03 1460.92 L2016.03 1465.69 L2012.06 1465.69 L2012.06 1460.92 Z" fill="#000000" fill-rule="evenodd" fill-opacity="1" /><path clip-path="url(#clip410)" d="M 0 0 M2028.27 1452.36 Q2025.56 1452.36 2024 1453.81 Q2022.46 1455.26 2022.46 1457.79 Q2022.46 1460.33 2024 1461.78 Q2025.56 1463.23 2028.27 1463.23 Q2030.98 1463.23 2032.54 1461.78 Q2034.1 1460.31 2034.1 1457.79 Q2034.1 1455.26 2032.54 1453.81 Q2031 1452.36 2028.27 1452.36 M2024.47 1450.74 Q2022.03 1450.14 2020.65 1448.47 Q2019.3 1446.79 2019.3 1444.38 Q2019.3 1441.02 2021.69 1439.06 Q2024.1 1437.11 2028.27 1437.11 Q2032.47 1437.11 2034.85 1439.06 Q2037.24 1441.02 2037.24 1444.38 Q2037.24 1446.79 2035.87 1448.47 Q2034.52 1450.14 2032.09 1450.74 Q2034.84 1451.38 2036.36 1453.24 Q2037.9 1455.1 2037.9 1457.79 Q2037.9 1461.88 2035.4 1464.06 Q2032.92 1466.24 2028.27 1466.24 Q2023.63 1466.24 2021.13 1464.06 Q2018.64 1461.88 2018.64 1457.79 Q2018.64 1455.1 2020.18 1453.24 Q2021.73 1451.38 2024.47 1450.74 M2023.08 1444.74 Q2023.08 1446.92 2024.44 1448.15 Q2025.81 1449.37 2028.27 1449.37 Q2030.72 1449.37 2032.09 1448.15 Q2033.48 1446.92 2033.48 1444.74 Q2033.48 1442.56 2032.09 1441.34 Q2030.72 1440.11 2028.27 1440.11 Q2025.81 1440.11 2024.44 1441.34 Q2023.08 1442.56 2023.08 1444.74 Z" fill="#000000" fill-rule="evenodd" fill-opacity="1" /><path clip-path="url(#clip410)" d="M 0 0 M2246.92 1489.17 L2254.56 1489.17 L2254.56 1462.8 L2246.25 1464.47 L2246.25 1460.21 L2254.52 1458.54 L2259.19 1458.54 L2259.19 1489.17 L2266.83 1489.17 L2266.83 1493.1 L2246.92 1493.1 L2246.92 1489.17 Z" fill="#000000" fill-rule="evenodd" fill-opacity="1" /><path clip-path="url(#clip410)" d="M 0 0 M2281.9 1461.62 Q2278.29 1461.62 2276.46 1465.19 Q2274.66 1468.73 2274.66 1475.86 Q2274.66 1482.97 2276.46 1486.53 Q2278.29 1490.07 2281.9 1490.07 Q2285.54 1490.07 2287.34 1486.53 Q2289.17 1482.97 2289.17 1475.86 Q2289.17 1468.73 2287.34 1465.19 Q2285.54 1461.62 2281.9 1461.62 M2281.9 1457.92 Q2287.71 1457.92 2290.77 1462.53 Q2293.85 1467.11 2293.85 1475.86 Q2293.85 1484.59 2290.77 1489.19 Q2287.71 1493.78 2281.9 1493.78 Q2276.09 1493.78 2273.01 1489.19 Q2269.96 1484.59 2269.96 1475.86 Q2269.96 1467.11 2273.01 1462.53 Q2276.09 1457.92 2281.9 1457.92 Z" fill="#000000" fill-rule="evenodd" fill-opacity="1" /><path clip-path="url(#clip410)" d="M 0 0 M2294.39 1462.5 L2300.6 1462.5 L2300.6 1441.07 L2293.85 1442.43 L2293.85 1438.97 L2300.56 1437.61 L2304.36 1437.61 L2304.36 1462.5 L2310.57 1462.5 L2310.57 1465.69 L2294.39 1465.69 L2294.39 1462.5 Z" fill="#000000" fill-rule="evenodd" fill-opacity="1" /><path clip-path="url(#clip410)" d="M 0 0 M2314.68 1460.92 L2318.65 1460.92 L2318.65 1465.69 L2314.68 1465.69 L2314.68 1460.92 Z" fill="#000000" fill-rule="evenodd" fill-opacity="1" /><path clip-path="url(#clip410)" d="M 0 0 M2330.9 1440.11 Q2327.96 1440.11 2326.48 1443.01 Q2325.01 1445.89 2325.01 1451.68 Q2325.01 1457.46 2326.48 1460.35 Q2327.96 1463.23 2330.9 1463.23 Q2333.85 1463.23 2335.32 1460.35 Q2336.8 1457.46 2336.8 1451.68 Q2336.8 1445.89 2335.32 1443.01 Q2333.85 1440.11 2330.9 1440.11 M2330.9 1437.11 Q2335.62 1437.11 2338.1 1440.85 Q2340.6 1444.57 2340.6 1451.68 Q2340.6 1458.77 2338.1 1462.51 Q2335.62 1466.24 2330.9 1466.24 Q2326.18 1466.24 2323.67 1462.51 Q2321.19 1458.77 2321.19 1451.68 Q2321.19 1444.57 2323.67 1440.85 Q2326.18 1437.11 2330.9 1437.11 Z" fill="#000000" fill-rule="evenodd" fill-opacity="1" /><path clip-path="url(#clip410)" d="M 0 0 M1309.83 1545.6 L1308.42 1538.25 Q1306.99 1530.71 1301.33 1530.71 Q1297.06 1530.71 1295.12 1534.21 Q1292.67 1538.6 1292.67 1544.39 Q1292.67 1551.4 1295.06 1554.74 Q1297.48 1558.14 1301.33 1558.14 Q1305.59 1558.14 1307.88 1551.36 L1309.83 1545.6 M1313.1 1535.86 L1316.25 1526.54 L1321.47 1526.54 L1314.95 1545.86 L1316.22 1552.83 Q1316.51 1554.39 1317.62 1555.69 Q1318.93 1557.22 1319.95 1557.22 L1322.75 1557.22 L1322.75 1562.19 L1319.25 1562.19 Q1316.25 1562.19 1313.58 1559.51 Q1312.28 1558.18 1311.73 1555.37 Q1310.27 1558.91 1307.28 1561.68 Q1305.88 1562.98 1301.33 1562.98 Q1293.85 1562.98 1290.22 1558.14 Q1286.49 1553.15 1286.49 1544.39 Q1286.49 1535.04 1290.54 1530.64 Q1295.02 1525.74 1301.33 1525.74 Q1311.23 1525.74 1313.1 1535.86 Z" fill="#000000" fill-rule="evenodd" fill-opacity="1" /><polyline clip-path="url(#clip412)" style="stroke:#000000; stroke-width:2; stroke-opacity:0.1; fill:none" points="
  256.486,1378.86 2352.76,1378.86 
  "/>
<polyline clip-path="url(#clip412)" style="stroke:#000000; stroke-width:2; stroke-opacity:0.1; fill:none" points="
  256.486,1112.53 2352.76,1112.53 
  "/>
<polyline clip-path="url(#clip412)" style="stroke:#000000; stroke-width:2; stroke-opacity:0.1; fill:none" points="
  256.486,846.199 2352.76,846.199 
  "/>
<polyline clip-path="url(#clip412)" style="stroke:#000000; stroke-width:2; stroke-opacity:0.1; fill:none" points="
  256.486,579.868 2352.76,579.868 
  "/>
<polyline clip-path="url(#clip412)" style="stroke:#000000; stroke-width:2; stroke-opacity:0.1; fill:none" points="
  256.486,313.537 2352.76,313.537 
  "/>
<polyline clip-path="url(#clip410)" style="stroke:#000000; stroke-width:4; stroke-opacity:1; fill:none" points="
  256.486,1410.9 256.486,47.2441 
  "/>
<polyline clip-path="url(#clip410)" style="stroke:#000000; stroke-width:4; stroke-opacity:1; fill:none" points="
  256.486,1378.86 281.642,1378.86 
  "/>
<polyline clip-path="url(#clip410)" style="stroke:#000000; stroke-width:4; stroke-opacity:1; fill:none" points="
  256.486,1112.53 281.642,1112.53 
  "/>
<polyline clip-path="url(#clip410)" style="stroke:#000000; stroke-width:4; stroke-opacity:1; fill:none" points="
  256.486,846.199 281.642,846.199 
  "/>
<polyline clip-path="url(#clip410)" style="stroke:#000000; stroke-width:4; stroke-opacity:1; fill:none" points="
  256.486,579.868 281.642,579.868 
  "/>
<polyline clip-path="url(#clip410)" style="stroke:#000000; stroke-width:4; stroke-opacity:1; fill:none" points="
  256.486,313.537 281.642,313.537 
  "/>
<path clip-path="url(#clip410)" d="M 0 0 M208.542 1364.66 Q204.931 1364.66 203.102 1368.22 Q201.297 1371.77 201.297 1378.9 Q201.297 1386 203.102 1389.57 Q204.931 1393.11 208.542 1393.11 Q212.176 1393.11 213.982 1389.57 Q215.811 1386 215.811 1378.9 Q215.811 1371.77 213.982 1368.22 Q212.176 1364.66 208.542 1364.66 M208.542 1360.96 Q214.352 1360.96 217.408 1365.56 Q220.486 1370.15 220.486 1378.9 Q220.486 1387.62 217.408 1392.23 Q214.352 1396.81 208.542 1396.81 Q202.732 1396.81 199.653 1392.23 Q196.598 1387.62 196.598 1378.9 Q196.598 1370.15 199.653 1365.56 Q202.732 1360.96 208.542 1360.96 Z" fill="#000000" fill-rule="evenodd" fill-opacity="1" /><path clip-path="url(#clip410)" d="M 0 0 M123.126 1125.87 L139.445 1125.87 L139.445 1129.81 L117.501 1129.81 L117.501 1125.87 Q120.163 1123.12 124.746 1118.49 Q129.353 1113.84 130.533 1112.49 Q132.779 1109.97 133.658 1108.24 Q134.561 1106.48 134.561 1104.79 Q134.561 1102.03 132.617 1100.3 Q130.695 1098.56 127.593 1098.56 Q125.394 1098.56 122.941 1099.32 Q120.51 1100.09 117.732 1101.64 L117.732 1096.92 Q120.556 1095.78 123.01 1095.2 Q125.464 1094.62 127.501 1094.62 Q132.871 1094.62 136.066 1097.31 Q139.26 1099.99 139.26 1104.49 Q139.26 1106.62 138.45 1108.54 Q137.663 1110.43 135.556 1113.03 Q134.978 1113.7 131.876 1116.92 Q128.774 1120.11 123.126 1125.87 Z" fill="#000000" fill-rule="evenodd" fill-opacity="1" /><path clip-path="url(#clip410)" d="M 0 0 M154.515 1098.33 Q150.903 1098.33 149.075 1101.89 Q147.269 1105.43 147.269 1112.56 Q147.269 1119.67 149.075 1123.24 Q150.903 1126.78 154.515 1126.78 Q158.149 1126.78 159.954 1123.24 Q161.783 1119.67 161.783 1112.56 Q161.783 1105.43 159.954 1101.89 Q158.149 1098.33 154.515 1098.33 M154.515 1094.62 Q160.325 1094.62 163.38 1099.23 Q166.459 1103.81 166.459 1112.56 Q166.459 1121.29 163.38 1125.9 Q160.325 1130.48 154.515 1130.48 Q148.704 1130.48 145.626 1125.9 Q142.57 1121.29 142.57 1112.56 Q142.57 1103.81 145.626 1099.23 Q148.704 1094.62 154.515 1094.62 Z" fill="#000000" fill-rule="evenodd" fill-opacity="1" /><path clip-path="url(#clip410)" d="M 0 0 M181.528 1098.33 Q177.917 1098.33 176.089 1101.89 Q174.283 1105.43 174.283 1112.56 Q174.283 1119.67 176.089 1123.24 Q177.917 1126.78 181.528 1126.78 Q185.163 1126.78 186.968 1123.24 Q188.797 1119.67 188.797 1112.56 Q188.797 1105.43 186.968 1101.89 Q185.163 1098.33 181.528 1098.33 M181.528 1094.62 Q187.338 1094.62 190.394 1099.23 Q193.473 1103.81 193.473 1112.56 Q193.473 1121.29 190.394 1125.9 Q187.338 1130.48 181.528 1130.48 Q175.718 1130.48 172.639 1125.9 Q169.584 1121.29 169.584 1112.56 Q169.584 1103.81 172.639 1099.23 Q175.718 1094.62 181.528 1094.62 Z" fill="#000000" fill-rule="evenodd" fill-opacity="1" /><path clip-path="url(#clip410)" d="M 0 0 M208.542 1098.33 Q204.931 1098.33 203.102 1101.89 Q201.297 1105.43 201.297 1112.56 Q201.297 1119.67 203.102 1123.24 Q204.931 1126.78 208.542 1126.78 Q212.176 1126.78 213.982 1123.24 Q215.811 1119.67 215.811 1112.56 Q215.811 1105.43 213.982 1101.89 Q212.176 1098.33 208.542 1098.33 M208.542 1094.62 Q214.352 1094.62 217.408 1099.23 Q220.486 1103.81 220.486 1112.56 Q220.486 1121.29 217.408 1125.9 Q214.352 1130.48 208.542 1130.48 Q202.732 1130.48 199.653 1125.9 Q196.598 1121.29 196.598 1112.56 Q196.598 1103.81 199.653 1099.23 Q202.732 1094.62 208.542 1094.62 Z" fill="#000000" fill-rule="evenodd" fill-opacity="1" /><path clip-path="url(#clip410)" d="M 0 0 M129.862 832.993 L118.056 851.442 L129.862 851.442 L129.862 832.993 M128.635 828.919 L134.515 828.919 L134.515 851.442 L139.445 851.442 L139.445 855.331 L134.515 855.331 L134.515 863.479 L129.862 863.479 L129.862 855.331 L114.26 855.331 L114.26 850.817 L128.635 828.919 Z" fill="#000000" fill-rule="evenodd" fill-opacity="1" /><path clip-path="url(#clip410)" d="M 0 0 M154.515 831.997 Q150.903 831.997 149.075 835.562 Q147.269 839.104 147.269 846.233 Q147.269 853.34 149.075 856.905 Q150.903 860.446 154.515 860.446 Q158.149 860.446 159.954 856.905 Q161.783 853.34 161.783 846.233 Q161.783 839.104 159.954 835.562 Q158.149 831.997 154.515 831.997 M154.515 828.294 Q160.325 828.294 163.38 832.9 Q166.459 837.483 166.459 846.233 Q166.459 854.96 163.38 859.567 Q160.325 864.15 154.515 864.15 Q148.704 864.15 145.626 859.567 Q142.57 854.96 142.57 846.233 Q142.57 837.483 145.626 832.9 Q148.704 828.294 154.515 828.294 Z" fill="#000000" fill-rule="evenodd" fill-opacity="1" /><path clip-path="url(#clip410)" d="M 0 0 M181.528 831.997 Q177.917 831.997 176.089 835.562 Q174.283 839.104 174.283 846.233 Q174.283 853.34 176.089 856.905 Q177.917 860.446 181.528 860.446 Q185.163 860.446 186.968 856.905 Q188.797 853.34 188.797 846.233 Q188.797 839.104 186.968 835.562 Q185.163 831.997 181.528 831.997 M181.528 828.294 Q187.338 828.294 190.394 832.9 Q193.473 837.483 193.473 846.233 Q193.473 854.96 190.394 859.567 Q187.338 864.15 181.528 864.15 Q175.718 864.15 172.639 859.567 Q169.584 854.96 169.584 846.233 Q169.584 837.483 172.639 832.9 Q175.718 828.294 181.528 828.294 Z" fill="#000000" fill-rule="evenodd" fill-opacity="1" /><path clip-path="url(#clip410)" d="M 0 0 M208.542 831.997 Q204.931 831.997 203.102 835.562 Q201.297 839.104 201.297 846.233 Q201.297 853.34 203.102 856.905 Q204.931 860.446 208.542 860.446 Q212.176 860.446 213.982 856.905 Q215.811 853.34 215.811 846.233 Q215.811 839.104 213.982 835.562 Q212.176 831.997 208.542 831.997 M208.542 828.294 Q214.352 828.294 217.408 832.9 Q220.486 837.483 220.486 846.233 Q220.486 854.96 217.408 859.567 Q214.352 864.15 208.542 864.15 Q202.732 864.15 199.653 859.567 Q196.598 854.96 196.598 846.233 Q196.598 837.483 199.653 832.9 Q202.732 828.294 208.542 828.294 Z" fill="#000000" fill-rule="evenodd" fill-opacity="1" /><path clip-path="url(#clip410)" d="M 0 0 M127.917 578.004 Q124.769 578.004 122.918 580.157 Q121.089 582.31 121.089 586.06 Q121.089 589.787 122.918 591.962 Q124.769 594.115 127.917 594.115 Q131.066 594.115 132.894 591.962 Q134.746 589.787 134.746 586.06 Q134.746 582.31 132.894 580.157 Q131.066 578.004 127.917 578.004 M137.2 563.351 L137.2 567.611 Q135.441 566.777 133.635 566.338 Q131.853 565.898 130.093 565.898 Q125.464 565.898 123.01 569.023 Q120.58 572.148 120.232 578.467 Q121.598 576.453 123.658 575.388 Q125.718 574.301 128.195 574.301 Q133.404 574.301 136.413 577.472 Q139.445 580.62 139.445 586.06 Q139.445 591.384 136.297 594.601 Q133.149 597.819 127.917 597.819 Q121.922 597.819 118.751 593.236 Q115.58 588.629 115.58 579.902 Q115.58 571.708 119.468 566.847 Q123.357 561.963 129.908 561.963 Q131.667 561.963 133.45 562.31 Q135.255 562.657 137.2 563.351 Z" fill="#000000" fill-rule="evenodd" fill-opacity="1" /><path clip-path="url(#clip410)" d="M 0 0 M154.515 565.666 Q150.903 565.666 149.075 569.231 Q147.269 572.773 147.269 579.902 Q147.269 587.009 149.075 590.574 Q150.903 594.115 154.515 594.115 Q158.149 594.115 159.954 590.574 Q161.783 587.009 161.783 579.902 Q161.783 572.773 159.954 569.231 Q158.149 565.666 154.515 565.666 M154.515 561.963 Q160.325 561.963 163.38 566.569 Q166.459 571.152 166.459 579.902 Q166.459 588.629 163.38 593.236 Q160.325 597.819 154.515 597.819 Q148.704 597.819 145.626 593.236 Q142.57 588.629 142.57 579.902 Q142.57 571.152 145.626 566.569 Q148.704 561.963 154.515 561.963 Z" fill="#000000" fill-rule="evenodd" fill-opacity="1" /><path clip-path="url(#clip410)" d="M 0 0 M181.528 565.666 Q177.917 565.666 176.089 569.231 Q174.283 572.773 174.283 579.902 Q174.283 587.009 176.089 590.574 Q177.917 594.115 181.528 594.115 Q185.163 594.115 186.968 590.574 Q188.797 587.009 188.797 579.902 Q188.797 572.773 186.968 569.231 Q185.163 565.666 181.528 565.666 M181.528 561.963 Q187.338 561.963 190.394 566.569 Q193.473 571.152 193.473 579.902 Q193.473 588.629 190.394 593.236 Q187.338 597.819 181.528 597.819 Q175.718 597.819 172.639 593.236 Q169.584 588.629 169.584 579.902 Q169.584 571.152 172.639 566.569 Q175.718 561.963 181.528 561.963 Z" fill="#000000" fill-rule="evenodd" fill-opacity="1" /><path clip-path="url(#clip410)" d="M 0 0 M208.542 565.666 Q204.931 565.666 203.102 569.231 Q201.297 572.773 201.297 579.902 Q201.297 587.009 203.102 590.574 Q204.931 594.115 208.542 594.115 Q212.176 594.115 213.982 590.574 Q215.811 587.009 215.811 579.902 Q215.811 572.773 213.982 569.231 Q212.176 565.666 208.542 565.666 M208.542 561.963 Q214.352 561.963 217.408 566.569 Q220.486 571.152 220.486 579.902 Q220.486 588.629 217.408 593.236 Q214.352 597.819 208.542 597.819 Q202.732 597.819 199.653 593.236 Q196.598 588.629 196.598 579.902 Q196.598 571.152 199.653 566.569 Q202.732 561.963 208.542 561.963 Z" fill="#000000" fill-rule="evenodd" fill-opacity="1" /><path clip-path="url(#clip410)" d="M 0 0 M127.593 314.405 Q124.26 314.405 122.339 316.187 Q120.441 317.969 120.441 321.094 Q120.441 324.219 122.339 326.002 Q124.26 327.784 127.593 327.784 Q130.927 327.784 132.848 326.002 Q134.769 324.196 134.769 321.094 Q134.769 317.969 132.848 316.187 Q130.95 314.405 127.593 314.405 M122.918 312.414 Q119.908 311.673 118.218 309.613 Q116.552 307.553 116.552 304.59 Q116.552 300.446 119.492 298.039 Q122.455 295.632 127.593 295.632 Q132.755 295.632 135.695 298.039 Q138.635 300.446 138.635 304.59 Q138.635 307.553 136.945 309.613 Q135.279 311.673 132.292 312.414 Q135.672 313.201 137.547 315.493 Q139.445 317.784 139.445 321.094 Q139.445 326.118 136.367 328.803 Q133.311 331.488 127.593 331.488 Q121.876 331.488 118.797 328.803 Q115.742 326.118 115.742 321.094 Q115.742 317.784 117.64 315.493 Q119.538 313.201 122.918 312.414 M121.205 305.03 Q121.205 307.715 122.871 309.22 Q124.561 310.724 127.593 310.724 Q130.603 310.724 132.292 309.22 Q134.005 307.715 134.005 305.03 Q134.005 302.345 132.292 300.84 Q130.603 299.335 127.593 299.335 Q124.561 299.335 122.871 300.84 Q121.205 302.345 121.205 305.03 Z" fill="#000000" fill-rule="evenodd" fill-opacity="1" /><path clip-path="url(#clip410)" d="M 0 0 M154.515 299.335 Q150.903 299.335 149.075 302.9 Q147.269 306.442 147.269 313.571 Q147.269 320.678 149.075 324.243 Q150.903 327.784 154.515 327.784 Q158.149 327.784 159.954 324.243 Q161.783 320.678 161.783 313.571 Q161.783 306.442 159.954 302.9 Q158.149 299.335 154.515 299.335 M154.515 295.632 Q160.325 295.632 163.38 300.238 Q166.459 304.821 166.459 313.571 Q166.459 322.298 163.38 326.905 Q160.325 331.488 154.515 331.488 Q148.704 331.488 145.626 326.905 Q142.57 322.298 142.57 313.571 Q142.57 304.821 145.626 300.238 Q148.704 295.632 154.515 295.632 Z" fill="#000000" fill-rule="evenodd" fill-opacity="1" /><path clip-path="url(#clip410)" d="M 0 0 M181.528 299.335 Q177.917 299.335 176.089 302.9 Q174.283 306.442 174.283 313.571 Q174.283 320.678 176.089 324.243 Q177.917 327.784 181.528 327.784 Q185.163 327.784 186.968 324.243 Q188.797 320.678 188.797 313.571 Q188.797 306.442 186.968 302.9 Q185.163 299.335 181.528 299.335 M181.528 295.632 Q187.338 295.632 190.394 300.238 Q193.473 304.821 193.473 313.571 Q193.473 322.298 190.394 326.905 Q187.338 331.488 181.528 331.488 Q175.718 331.488 172.639 326.905 Q169.584 322.298 169.584 313.571 Q169.584 304.821 172.639 300.238 Q175.718 295.632 181.528 295.632 Z" fill="#000000" fill-rule="evenodd" fill-opacity="1" /><path clip-path="url(#clip410)" d="M 0 0 M208.542 299.335 Q204.931 299.335 203.102 302.9 Q201.297 306.442 201.297 313.571 Q201.297 320.678 203.102 324.243 Q204.931 327.784 208.542 327.784 Q212.176 327.784 213.982 324.243 Q215.811 320.678 215.811 313.571 Q215.811 306.442 213.982 302.9 Q212.176 299.335 208.542 299.335 M208.542 295.632 Q214.352 295.632 217.408 300.238 Q220.486 304.821 220.486 313.571 Q220.486 322.298 217.408 326.905 Q214.352 331.488 208.542 331.488 Q202.732 331.488 199.653 326.905 Q196.598 322.298 196.598 313.571 Q196.598 304.821 199.653 300.238 Q202.732 295.632 208.542 295.632 Z" fill="#000000" fill-rule="evenodd" fill-opacity="1" /><path clip-path="url(#clip410)" d="M 0 0 M59.1993 815.533 Q55.2526 813.336 53.3747 810.281 Q51.4968 807.225 51.4968 803.088 Q51.4968 797.518 55.4117 794.494 Q59.2948 791.47 66.4881 791.47 L88.0042 791.47 L88.0042 797.358 L66.679 797.358 Q61.5546 797.358 59.072 799.173 Q56.5894 800.987 56.5894 804.711 Q56.5894 809.262 59.6131 811.904 Q62.6368 814.546 67.8567 814.546 L88.0042 814.546 L88.0042 820.434 L66.679 820.434 Q61.5228 820.434 59.072 822.248 Q56.5894 824.063 56.5894 827.85 Q56.5894 832.338 59.6449 834.98 Q62.6686 837.622 67.8567 837.622 L88.0042 837.622 L88.0042 843.51 L52.3562 843.51 L52.3562 837.622 L57.8944 837.622 Q54.616 835.616 53.0564 832.815 Q51.4968 830.015 51.4968 826.163 Q51.4968 822.28 53.4702 819.575 Q55.4436 816.838 59.1993 815.533 Z" fill="#000000" fill-rule="evenodd" fill-opacity="1" /><path clip-path="url(#clip410)" d="M 0 0 M52.3562 785.327 L52.3562 779.471 L88.0042 779.471 L88.0042 785.327 L52.3562 785.327 M38.479 785.327 L38.479 779.471 L45.895 779.471 L45.895 785.327 L38.479 785.327 Z" fill="#000000" fill-rule="evenodd" fill-opacity="1" /><path clip-path="url(#clip410)" d="M 0 0 M66.4881 743.696 L88.0042 743.696 L88.0042 749.552 L66.679 749.552 Q61.6183 749.552 59.1038 751.525 Q56.5894 753.499 56.5894 757.446 Q56.5894 762.188 59.6131 764.925 Q62.6368 767.662 67.8567 767.662 L88.0042 767.662 L88.0042 773.551 L52.3562 773.551 L52.3562 767.662 L57.8944 767.662 Q54.6797 765.562 53.0883 762.729 Q51.4968 759.864 51.4968 756.141 Q51.4968 749.998 55.3163 746.847 Q59.1038 743.696 66.4881 743.696 Z" fill="#000000" fill-rule="evenodd" fill-opacity="1" /><path clip-path="url(#clip410)" d="M 0 0 M98.8259 710.467 L103.377 710.467 L103.377 744.332 L98.8259 744.332 L98.8259 710.467 Z" fill="#000000" fill-rule="evenodd" fill-opacity="1" /><path clip-path="url(#clip410)" d="M 0 0 M57.7671 680.866 L38.479 680.866 L38.479 675.01 L88.0042 675.01 L88.0042 680.866 L82.657 680.866 Q85.8398 682.712 87.3994 685.545 Q88.9272 688.346 88.9272 692.292 Q88.9272 698.754 83.771 702.828 Q78.6147 706.87 70.212 706.87 Q61.8093 706.87 56.6531 702.828 Q51.4968 698.754 51.4968 692.292 Q51.4968 688.346 53.0564 685.545 Q54.5842 682.712 57.7671 680.866 M70.212 700.823 Q76.6732 700.823 80.3653 698.181 Q84.0256 695.507 84.0256 690.86 Q84.0256 686.213 80.3653 683.54 Q76.6732 680.866 70.212 680.866 Q63.7508 680.866 60.0905 683.54 Q56.3984 686.213 56.3984 690.86 Q56.3984 695.507 60.0905 698.181 Q63.7508 700.823 70.212 700.823 Z" fill="#000000" fill-rule="evenodd" fill-opacity="1" /><path clip-path="url(#clip410)" d="M 0 0 M52.3562 668.867 L52.3562 663.01 L88.0042 663.01 L88.0042 668.867 L52.3562 668.867 M38.479 668.867 L38.479 663.01 L45.895 663.01 L45.895 668.867 L38.479 668.867 Z" fill="#000000" fill-rule="evenodd" fill-opacity="1" /><path clip-path="url(#clip410)" d="M 0 0 M38.479 638.821 L43.3487 638.821 L43.3487 644.422 Q43.3487 647.573 44.6219 648.815 Q45.895 650.024 49.2052 650.024 L52.3562 650.024 L52.3562 640.38 L56.9077 640.38 L56.9077 650.024 L88.0042 650.024 L88.0042 655.912 L56.9077 655.912 L56.9077 661.514 L52.3562 661.514 L52.3562 655.912 L49.8736 655.912 Q43.9216 655.912 41.2162 653.143 Q38.479 650.374 38.479 644.359 L38.479 638.821 Z" fill="#000000" fill-rule="evenodd" fill-opacity="1" /><path clip-path="url(#clip410)" d="M 0 0 M38.479 614.631 L43.3487 614.631 L43.3487 620.233 Q43.3487 623.384 44.6219 624.625 Q45.895 625.835 49.2052 625.835 L52.3562 625.835 L52.3562 616.19 L56.9077 616.19 L56.9077 625.835 L88.0042 625.835 L88.0042 631.723 L56.9077 631.723 L56.9077 637.325 L52.3562 637.325 L52.3562 631.723 L49.8736 631.723 Q43.9216 631.723 41.2162 628.954 Q38.479 626.185 38.479 620.169 L38.479 614.631 Z" fill="#000000" fill-rule="evenodd" fill-opacity="1" /><polyline clip-path="url(#clip412)" style="stroke:#009af9; stroke-width:20; stroke-opacity:1; fill:none" stroke-dasharray="80, 50" points="
  315.815,877.228 773.391,1179.32 1041.06,1339.74 1230.97,1371.33 1378.27,1372.3 1498.63,1370.22 1600.39,1365.97 1688.54,1362.95 1766.3,1359.13 1835.85,1350.63 
  1898.77,1322.31 1956.21,1272.21 2009.05,1200.29 2057.97,1106.55 2103.52,990.981 2146.12,853.596 2186.14,694.389 2223.87,513.36 2259.57,310.51 2293.43,85.838 
  
  "/>
<path clip-path="url(#clip410)" d="
M1998.94 213.659 L2282.88 213.659 L2282.88 92.6992 L1998.94 92.6992  Z
  " fill="#ffffff" fill-rule="evenodd" fill-opacity="1"/>
<polyline clip-path="url(#clip410)" style="stroke:#000000; stroke-width:4; stroke-opacity:1; fill:none" points="
  1998.94,213.659 2282.88,213.659 2282.88,92.6992 1998.94,92.6992 1998.94,213.659 
  "/>
<polyline clip-path="url(#clip410)" style="stroke:#009af9; stroke-width:4; stroke-opacity:1; fill:none" stroke-dasharray="16, 10" points="
  2022.24,153.179 2161.99,153.179 
  "/>
<path clip-path="url(#clip410)" d="M 0 0 M2199.12 172.867 Q2197.32 177.496 2195.6 178.908 Q2193.89 180.32 2191.02 180.32 L2187.62 180.32 L2187.62 176.755 L2190.12 176.755 Q2191.88 176.755 2192.85 175.922 Q2193.82 175.089 2195 171.987 L2195.76 170.043 L2185.28 144.533 L2189.79 144.533 L2197.89 164.811 L2206 144.533 L2210.51 144.533 L2199.12 172.867 Z" fill="#000000" fill-rule="evenodd" fill-opacity="1" /><path clip-path="url(#clip410)" d="M 0 0 M2216.39 166.524 L2224.03 166.524 L2224.03 140.158 L2215.72 141.825 L2215.72 137.566 L2223.98 135.899 L2228.66 135.899 L2228.66 166.524 L2236.3 166.524 L2236.3 170.459 L2216.39 170.459 L2216.39 166.524 Z" fill="#000000" fill-rule="evenodd" fill-opacity="1" /></svg>
