<?xml version="1.0" encoding="utf-8"?>
<svg xmlns="http://www.w3.org/2000/svg" xmlns:xlink="http://www.w3.org/1999/xlink" width="600" height="400" viewBox="0 0 2400 1600">
<defs>
  <clipPath id="clip720">
    <rect x="0" y="0" width="2400" height="1600"/>
  </clipPath>
</defs>
<path clip-path="url(#clip720)" d="
M0 1600 L2400 1600 L2400 0 L0 0  Z
  " fill="#ffffff" fill-rule="evenodd" fill-opacity="1"/>
<defs>
  <clipPath id="clip721">
    <rect x="480" y="0" width="1681" height="1600"/>
  </clipPath>
</defs>
<path clip-path="url(#clip720)" d="
M211.093 1410.9 L2352.76 1410.9 L2352.76 47.2441 L211.093 47.2441  Z
  " fill="#ffffff" fill-rule="evenodd" fill-opacity="1"/>
<defs>
  <clipPath id="clip722">
    <rect x="211" y="47" width="2143" height="1365"/>
  </clipPath>
</defs>
<polyline clip-path="url(#clip722)" style="stroke:#000000; stroke-width:2; stroke-opacity:0.1; fill:none" points="
  271.706,1410.9 271.706,47.2441 
  "/>
<polyline clip-path="url(#clip722)" style="stroke:#000000; stroke-width:2; stroke-opacity:0.1; fill:none" points="
  945.185,1410.9 945.185,47.2441 
  "/>
<polyline clip-path="url(#clip722)" style="stroke:#000000; stroke-width:2; stroke-opacity:0.1; fill:none" points="
  1618.66,1410.9 1618.66,47.2441 
  "/>
<polyline clip-path="url(#clip722)" style="stroke:#000000; stroke-width:2; stroke-opacity:0.1; fill:none" points="
  2292.14,1410.9 2292.14,47.2441 
  "/>
<polyline clip-path="url(#clip720)" style="stroke:#000000; stroke-width:4; stroke-opacity:1; fill:none" points="
  211.093,1410.9 2352.76,1410.9 
  "/>
<polyline clip-path="url(#clip720)" style="stroke:#000000; stroke-width:4; stroke-opacity:1; fill:none" points="
  271.706,1410.9 271.706,1394.53 
  "/>
<polyline clip-path="url(#clip720)" style="stroke:#000000; stroke-width:4; stroke-opacity:1; fill:none" points="
  945.185,1410.9 945.185,1394.53 
  "/>
<polyline clip-path="url(#clip720)" style="stroke:#000000; stroke-width:4; stroke-opacity:1; fill:none" points="
  1618.66,1410.9 1618.66,1394.53 
  "/>
<polyline clip-path="url(#clip720)" style="stroke:#000000; stroke-width:4; stroke-opacity:1; fill:none" points="
  2292.14,1410.9 2292.14,1394.53 
  "/>
<path clip-path="url(#clip720)" d="M 0 0 M225.485 1489.17 L233.124 1489.17 L233.124 1462.8 L224.814 1464.47 L224.814 1460.21 L233.078 1458.54 L237.754 1458.54 L237.754 1489.17 L245.393 1489.17 L245.393 1493.1 L225.485 1493.1 L225.485 1489.17 Z" fill="#000000" fill-rule="evenodd" fill-opacity="1" /><path clip-path="url(#clip720)" d="M 0 0 M260.462 1461.62 Q256.851 1461.62 255.022 1465.19 Q253.217 1468.73 253.217 1475.86 Q253.217 1482.97 255.022 1486.53 Q256.851 1490.07 260.462 1490.07 Q264.096 1490.07 265.902 1486.53 Q267.731 1482.97 267.731 1475.86 Q267.731 1468.73 265.902 1465.19 Q264.096 1461.62 260.462 1461.62 M260.462 1457.92 Q266.272 1457.92 269.328 1462.53 Q272.406 1467.11 272.406 1475.86 Q272.406 1484.59 269.328 1489.19 Q266.272 1493.78 260.462 1493.78 Q254.652 1493.78 251.573 1489.19 Q248.518 1484.59 248.518 1475.86 Q248.518 1467.11 251.573 1462.53 Q254.652 1457.92 260.462 1457.92 Z" fill="#000000" fill-rule="evenodd" fill-opacity="1" /><path clip-path="url(#clip720)" d="M 0 0 M272.406 1452.02 L296.518 1452.02 L296.518 1455.22 L272.406 1455.22 L272.406 1452.02 Z" fill="#000000" fill-rule="evenodd" fill-opacity="1" /><path clip-path="url(#clip720)" d="M 0 0 M309.232 1450.14 Q306.674 1450.14 305.17 1451.89 Q303.684 1453.64 303.684 1456.68 Q303.684 1459.71 305.17 1461.48 Q306.674 1463.23 309.232 1463.23 Q311.79 1463.23 313.276 1461.48 Q314.78 1459.71 314.78 1456.68 Q314.78 1453.64 313.276 1451.89 Q311.79 1450.14 309.232 1450.14 M316.774 1438.23 L316.774 1441.69 Q315.345 1441.02 313.878 1440.66 Q312.429 1440.3 311 1440.3 Q307.238 1440.3 305.245 1442.84 Q303.27 1445.38 302.988 1450.52 Q304.098 1448.88 305.771 1448.01 Q307.445 1447.13 309.458 1447.13 Q313.69 1447.13 316.135 1449.71 Q318.598 1452.26 318.598 1456.68 Q318.598 1461.01 316.041 1463.62 Q313.483 1466.24 309.232 1466.24 Q304.361 1466.24 301.784 1462.51 Q299.208 1458.77 299.208 1451.68 Q299.208 1445.02 302.367 1441.07 Q305.527 1437.11 310.85 1437.11 Q312.279 1437.11 313.727 1437.39 Q315.194 1437.67 316.774 1438.23 Z" fill="#000000" fill-rule="evenodd" fill-opacity="1" /><path clip-path="url(#clip720)" d="M 0 0 M899.434 1489.17 L907.073 1489.17 L907.073 1462.8 L898.763 1464.47 L898.763 1460.21 L907.027 1458.54 L911.703 1458.54 L911.703 1489.17 L919.342 1489.17 L919.342 1493.1 L899.434 1493.1 L899.434 1489.17 Z" fill="#000000" fill-rule="evenodd" fill-opacity="1" /><path clip-path="url(#clip720)" d="M 0 0 M934.411 1461.62 Q930.8 1461.62 928.971 1465.19 Q927.166 1468.73 927.166 1475.86 Q927.166 1482.97 928.971 1486.53 Q930.8 1490.07 934.411 1490.07 Q938.045 1490.07 939.851 1486.53 Q941.68 1482.97 941.68 1475.86 Q941.68 1468.73 939.851 1465.19 Q938.045 1461.62 934.411 1461.62 M934.411 1457.92 Q940.221 1457.92 943.277 1462.53 Q946.356 1467.11 946.356 1475.86 Q946.356 1484.59 943.277 1489.19 Q940.221 1493.78 934.411 1493.78 Q928.601 1493.78 925.522 1489.19 Q922.467 1484.59 922.467 1475.86 Q922.467 1467.11 925.522 1462.53 Q928.601 1457.92 934.411 1457.92 Z" fill="#000000" fill-rule="evenodd" fill-opacity="1" /><path clip-path="url(#clip720)" d="M 0 0 M946.356 1452.02 L970.467 1452.02 L970.467 1455.22 L946.356 1455.22 L946.356 1452.02 Z" fill="#000000" fill-rule="evenodd" fill-opacity="1" /><path clip-path="url(#clip720)" d="M 0 0 M974.624 1437.61 L989.538 1437.61 L989.538 1440.81 L978.103 1440.81 L978.103 1447.69 Q978.931 1447.41 979.758 1447.28 Q980.586 1447.13 981.413 1447.13 Q986.115 1447.13 988.861 1449.71 Q991.607 1452.28 991.607 1456.68 Q991.607 1461.22 988.786 1463.74 Q985.965 1466.24 980.83 1466.24 Q979.062 1466.24 977.219 1465.94 Q975.395 1465.64 973.439 1465.04 L973.439 1461.22 Q975.131 1462.14 976.937 1462.59 Q978.743 1463.04 980.755 1463.04 Q984.009 1463.04 985.908 1461.33 Q987.808 1459.62 987.808 1456.68 Q987.808 1453.75 985.908 1452.04 Q984.009 1450.33 980.755 1450.33 Q979.232 1450.33 977.708 1450.67 Q976.203 1451 974.624 1451.72 L974.624 1437.61 Z" fill="#000000" fill-rule="evenodd" fill-opacity="1" /><path clip-path="url(#clip720)" d="M 0 0 M1572.31 1489.17 L1579.95 1489.17 L1579.95 1462.8 L1571.64 1464.47 L1571.64 1460.21 L1579.9 1458.54 L1584.58 1458.54 L1584.58 1489.17 L1592.22 1489.17 L1592.22 1493.1 L1572.31 1493.1 L1572.31 1489.17 Z" fill="#000000" fill-rule="evenodd" fill-opacity="1" /><path clip-path="url(#clip720)" d="M 0 0 M1607.29 1461.62 Q1603.68 1461.62 1601.85 1465.19 Q1600.04 1468.73 1600.04 1475.86 Q1600.04 1482.97 1601.85 1486.53 Q1603.68 1490.07 1607.29 1490.07 Q1610.92 1490.07 1612.73 1486.53 Q1614.56 1482.97 1614.56 1475.86 Q1614.56 1468.73 1612.73 1465.19 Q1610.92 1461.62 1607.29 1461.62 M1607.29 1457.92 Q1613.1 1457.92 1616.15 1462.53 Q1619.23 1467.11 1619.23 1475.86 Q1619.23 1484.59 1616.15 1489.19 Q1613.1 1493.78 1607.29 1493.78 Q1601.48 1493.78 1598.4 1489.19 Q1595.34 1484.59 1595.34 1475.86 Q1595.34 1467.11 1598.4 1462.53 Q1601.48 1457.92 1607.29 1457.92 Z" fill="#000000" fill-rule="evenodd" fill-opacity="1" /><path clip-path="url(#clip720)" d="M 0 0 M1619.23 1452.02 L1643.34 1452.02 L1643.34 1455.22 L1619.23 1455.22 L1619.23 1452.02 Z" fill="#000000" fill-rule="evenodd" fill-opacity="1" /><path clip-path="url(#clip720)" d="M 0 0 M1657.9 1440.92 L1648.31 1455.91 L1657.9 1455.91 L1657.9 1440.92 M1656.9 1437.61 L1661.68 1437.61 L1661.68 1455.91 L1665.69 1455.91 L1665.69 1459.07 L1661.68 1459.07 L1661.68 1465.69 L1657.9 1465.69 L1657.9 1459.07 L1645.22 1459.07 L1645.22 1455.41 L1656.9 1437.61 Z" fill="#000000" fill-rule="evenodd" fill-opacity="1" /><path clip-path="url(#clip720)" d="M 0 0 M2246.25 1489.17 L2253.89 1489.17 L2253.89 1462.8 L2245.58 1464.47 L2245.58 1460.21 L2253.84 1458.54 L2258.52 1458.54 L2258.52 1489.17 L2266.16 1489.17 L2266.16 1493.1 L2246.25 1493.1 L2246.25 1489.17 Z" fill="#000000" fill-rule="evenodd" fill-opacity="1" /><path clip-path="url(#clip720)" d="M 0 0 M2281.23 1461.62 Q2277.62 1461.62 2275.79 1465.19 Q2273.98 1468.73 2273.98 1475.86 Q2273.98 1482.97 2275.79 1486.53 Q2277.62 1490.07 2281.23 1490.07 Q2284.86 1490.07 2286.67 1486.53 Q2288.5 1482.97 2288.5 1475.86 Q2288.5 1468.73 2286.67 1465.19 Q2284.86 1461.62 2281.23 1461.62 M2281.23 1457.92 Q2287.04 1457.92 2290.09 1462.53 Q2293.17 1467.11 2293.17 1475.86 Q2293.17 1484.59 2290.09 1489.19 Q2287.04 1493.78 2281.23 1493.78 Q2275.42 1493.78 2272.34 1489.19 Q2269.28 1484.59 2269.28 1475.86 Q2269.28 1467.11 2272.34 1462.53 Q2275.42 1457.92 2281.23 1457.92 Z" fill="#000000" fill-rule="evenodd" fill-opacity="1" /><path clip-path="url(#clip720)" d="M 0 0 M2293.17 1452.02 L2317.28 1452.02 L2317.28 1455.22 L2293.17 1455.22 L2293.17 1452.02 Z" fill="#000000" fill-rule="evenodd" fill-opacity="1" /><path clip-path="url(#clip720)" d="M 0 0 M2332.91 1450.55 Q2335.64 1451.14 2337.16 1452.98 Q2338.71 1454.82 2338.71 1457.53 Q2338.71 1461.69 2335.85 1463.96 Q2332.99 1466.24 2327.72 1466.24 Q2325.95 1466.24 2324.07 1465.88 Q2322.21 1465.54 2320.22 1464.85 L2320.22 1461.18 Q2321.8 1462.1 2323.68 1462.57 Q2325.56 1463.04 2327.61 1463.04 Q2331.18 1463.04 2333.04 1461.63 Q2334.93 1460.22 2334.93 1457.53 Q2334.93 1455.05 2333.18 1453.66 Q2331.45 1452.25 2328.34 1452.25 L2325.07 1452.25 L2325.07 1449.12 L2328.49 1449.12 Q2331.3 1449.12 2332.78 1448.01 Q2334.27 1446.89 2334.27 1444.78 Q2334.27 1442.62 2332.72 1441.47 Q2331.2 1440.3 2328.34 1440.3 Q2326.78 1440.3 2324.99 1440.64 Q2323.21 1440.98 2321.06 1441.69 L2321.06 1438.31 Q2323.23 1437.71 2325.11 1437.41 Q2327.01 1437.11 2328.68 1437.11 Q2333.01 1437.11 2335.53 1439.08 Q2338.05 1441.04 2338.05 1444.38 Q2338.05 1446.72 2336.71 1448.33 Q2335.38 1449.93 2332.91 1450.55 Z" fill="#000000" fill-rule="evenodd" fill-opacity="1" /><path clip-path="url(#clip720)" d="M 0 0 M1174.69 1526.54 L1180.9 1526.54 L1192.04 1556.46 L1203.18 1526.54 L1209.39 1526.54 L1196.02 1562.19 L1188.06 1562.19 L1174.69 1526.54 Z" fill="#000000" fill-rule="evenodd" fill-opacity="1" /><path clip-path="url(#clip720)" d="M 0 0 M1242.62 1573.01 L1242.62 1577.56 L1208.75 1577.56 L1208.75 1573.01 L1242.62 1573.01 Z" fill="#000000" fill-rule="evenodd" fill-opacity="1" /><path clip-path="url(#clip720)" d="M 0 0 M1262.57 1530.64 Q1257.86 1530.64 1255.12 1534.34 Q1252.39 1538 1252.39 1544.39 Q1252.39 1550.79 1255.09 1554.48 Q1257.83 1558.14 1262.57 1558.14 Q1267.25 1558.14 1269.99 1554.45 Q1272.73 1550.76 1272.73 1544.39 Q1272.73 1538.06 1269.99 1534.37 Q1267.25 1530.64 1262.57 1530.64 M1262.57 1525.68 Q1270.21 1525.68 1274.57 1530.64 Q1278.93 1535.61 1278.93 1544.39 Q1278.93 1553.15 1274.57 1558.14 Q1270.21 1563.11 1262.57 1563.11 Q1254.9 1563.11 1250.54 1558.14 Q1246.21 1553.15 1246.21 1544.39 Q1246.21 1535.61 1250.54 1530.64 Q1254.9 1525.68 1262.57 1525.68 Z" fill="#000000" fill-rule="evenodd" fill-opacity="1" /><path clip-path="url(#clip720)" d="M 0 0 M1290.74 1556.84 L1290.74 1575.74 L1284.85 1575.74 L1284.85 1526.54 L1290.74 1526.54 L1290.74 1531.95 Q1292.59 1528.77 1295.39 1527.24 Q1298.22 1525.68 1302.14 1525.68 Q1308.63 1525.68 1312.67 1530.83 Q1316.74 1535.99 1316.74 1544.39 Q1316.74 1552.8 1312.67 1557.95 Q1308.63 1563.11 1302.14 1563.11 Q1298.22 1563.11 1295.39 1561.58 Q1292.59 1560.02 1290.74 1556.84 M1310.67 1544.39 Q1310.67 1537.93 1307.99 1534.27 Q1305.35 1530.58 1300.7 1530.58 Q1296.06 1530.58 1293.38 1534.27 Q1290.74 1537.93 1290.74 1544.39 Q1290.74 1550.85 1293.38 1554.55 Q1296.06 1558.21 1300.7 1558.21 Q1305.35 1558.21 1307.99 1554.55 Q1310.67 1550.85 1310.67 1544.39 Z" fill="#000000" fill-rule="evenodd" fill-opacity="1" /><path clip-path="url(#clip720)" d="M 0 0 M1353.38 1542.9 L1353.38 1545.76 L1326.45 1545.76 Q1326.83 1551.81 1330.08 1554.99 Q1333.36 1558.14 1339.18 1558.14 Q1342.56 1558.14 1345.71 1557.32 Q1348.89 1556.49 1352.01 1554.83 L1352.01 1560.37 Q1348.86 1561.71 1345.55 1562.41 Q1342.24 1563.11 1338.83 1563.11 Q1330.3 1563.11 1325.31 1558.14 Q1320.34 1553.18 1320.34 1544.71 Q1320.34 1535.96 1325.05 1530.83 Q1329.79 1525.68 1337.82 1525.68 Q1345.01 1525.68 1349.18 1530.33 Q1353.38 1534.94 1353.38 1542.9 M1347.52 1541.18 Q1347.46 1536.37 1344.82 1533.51 Q1342.21 1530.64 1337.88 1530.64 Q1332.98 1530.64 1330.02 1533.41 Q1327.09 1536.18 1326.64 1541.21 L1347.52 1541.18 Z" fill="#000000" fill-rule="evenodd" fill-opacity="1" /><path clip-path="url(#clip720)" d="M 0 0 M1389.15 1540.67 L1389.15 1562.19 L1383.3 1562.19 L1383.3 1540.86 Q1383.3 1535.8 1381.33 1533.29 Q1379.35 1530.77 1375.4 1530.77 Q1370.66 1530.77 1367.93 1533.79 Q1365.19 1536.82 1365.19 1542.04 L1365.19 1562.19 L1359.3 1562.19 L1359.3 1526.54 L1365.19 1526.54 L1365.19 1532.08 Q1367.29 1528.86 1370.12 1527.27 Q1372.99 1525.68 1376.71 1525.68 Q1382.85 1525.68 1386 1529.5 Q1389.15 1533.29 1389.15 1540.67 Z" fill="#000000" fill-rule="evenodd" fill-opacity="1" /><polyline clip-path="url(#clip722)" style="stroke:#000000; stroke-width:2; stroke-opacity:0.1; fill:none" points="
  211.093,1367.69 2352.76,1367.69 
  "/>
<polyline clip-path="url(#clip722)" style="stroke:#000000; stroke-width:2; stroke-opacity:0.1; fill:none" points="
  211.093,1101.51 2352.76,1101.51 
  "/>
<polyline clip-path="url(#clip722)" style="stroke:#000000; stroke-width:2; stroke-opacity:0.1; fill:none" points="
  211.093,835.321 2352.76,835.321 
  "/>
<polyline clip-path="url(#clip722)" style="stroke:#000000; stroke-width:2; stroke-opacity:0.1; fill:none" points="
  211.093,569.136 2352.76,569.136 
  "/>
<polyline clip-path="url(#clip722)" style="stroke:#000000; stroke-width:2; stroke-opacity:0.1; fill:none" points="
  211.093,302.95 2352.76,302.95 
  "/>
<polyline clip-path="url(#clip720)" style="stroke:#000000; stroke-width:4; stroke-opacity:1; fill:none" points="
  211.093,1410.9 211.093,47.2441 
  "/>
<polyline clip-path="url(#clip720)" style="stroke:#000000; stroke-width:4; stroke-opacity:1; fill:none" points="
  211.093,1367.69 236.793,1367.69 
  "/>
<polyline clip-path="url(#clip720)" style="stroke:#000000; stroke-width:4; stroke-opacity:1; fill:none" points="
  211.093,1101.51 236.793,1101.51 
  "/>
<polyline clip-path="url(#clip720)" style="stroke:#000000; stroke-width:4; stroke-opacity:1; fill:none" points="
  211.093,835.321 236.793,835.321 
  "/>
<polyline clip-path="url(#clip720)" style="stroke:#000000; stroke-width:4; stroke-opacity:1; fill:none" points="
  211.093,569.136 236.793,569.136 
  "/>
<polyline clip-path="url(#clip720)" style="stroke:#000000; stroke-width:4; stroke-opacity:1; fill:none" points="
  211.093,302.95 236.793,302.95 
  "/>
<path clip-path="url(#clip720)" d="M 0 0 M118.218 1350.41 L136.575 1350.41 L136.575 1354.35 L122.501 1354.35 L122.501 1362.82 Q123.519 1362.47 124.538 1362.31 Q125.556 1362.13 126.575 1362.13 Q132.362 1362.13 135.742 1365.3 Q139.121 1368.47 139.121 1373.88 Q139.121 1379.46 135.649 1382.57 Q132.177 1385.64 125.857 1385.64 Q123.681 1385.64 121.413 1385.27 Q119.168 1384.9 116.76 1384.16 L116.76 1379.46 Q118.843 1380.6 121.066 1381.15 Q123.288 1381.71 125.765 1381.71 Q129.769 1381.71 132.107 1379.6 Q134.445 1377.5 134.445 1373.88 Q134.445 1370.27 132.107 1368.17 Q129.769 1366.06 125.765 1366.06 Q123.89 1366.06 122.015 1366.48 Q120.163 1366.89 118.218 1367.77 L118.218 1350.41 Z" fill="#000000" fill-rule="evenodd" fill-opacity="1" /><path clip-path="url(#clip720)" d="M 0 0 M144.191 1379.09 L149.075 1379.09 L149.075 1384.97 L144.191 1384.97 L144.191 1379.09 Z" fill="#000000" fill-rule="evenodd" fill-opacity="1" /><path clip-path="url(#clip720)" d="M 0 0 M154.19 1350.41 L172.547 1350.41 L172.547 1354.35 L158.473 1354.35 L158.473 1362.82 Q159.491 1362.47 160.51 1362.31 Q161.528 1362.13 162.547 1362.13 Q168.334 1362.13 171.714 1365.3 Q175.093 1368.47 175.093 1373.88 Q175.093 1379.46 171.621 1382.57 Q168.149 1385.64 161.829 1385.64 Q159.653 1385.64 157.385 1385.27 Q155.14 1384.9 152.732 1384.16 L152.732 1379.46 Q154.815 1380.6 157.038 1381.15 Q159.26 1381.71 161.737 1381.71 Q165.741 1381.71 168.079 1379.6 Q170.417 1377.5 170.417 1373.88 Q170.417 1370.27 168.079 1368.17 Q165.741 1366.06 161.737 1366.06 Q159.862 1366.06 157.987 1366.48 Q156.135 1366.89 154.19 1367.77 L154.19 1350.41 Z" fill="#000000" fill-rule="evenodd" fill-opacity="1" /><path clip-path="url(#clip720)" d="M 0 0 M126.598 1099.64 Q123.45 1099.64 121.598 1101.8 Q119.769 1103.95 119.769 1107.7 Q119.769 1111.43 121.598 1113.6 Q123.45 1115.75 126.598 1115.75 Q129.746 1115.75 131.575 1113.6 Q133.427 1111.43 133.427 1107.7 Q133.427 1103.95 131.575 1101.8 Q129.746 1099.64 126.598 1099.64 M135.88 1084.99 L135.88 1089.25 Q134.121 1088.42 132.316 1087.98 Q130.533 1087.54 128.774 1087.54 Q124.144 1087.54 121.691 1090.66 Q119.26 1093.79 118.913 1100.11 Q120.279 1098.09 122.339 1097.03 Q124.399 1095.94 126.876 1095.94 Q132.084 1095.94 135.093 1099.11 Q138.126 1102.26 138.126 1107.7 Q138.126 1113.02 134.978 1116.24 Q131.83 1119.46 126.598 1119.46 Q120.603 1119.46 117.431 1114.87 Q114.26 1110.27 114.26 1101.54 Q114.26 1093.35 118.149 1088.49 Q122.038 1083.6 128.589 1083.6 Q130.348 1083.6 132.13 1083.95 Q133.936 1084.3 135.88 1084.99 Z" fill="#000000" fill-rule="evenodd" fill-opacity="1" /><path clip-path="url(#clip720)" d="M 0 0 M143.195 1112.91 L148.079 1112.91 L148.079 1118.79 L143.195 1118.79 L143.195 1112.91 Z" fill="#000000" fill-rule="evenodd" fill-opacity="1" /><path clip-path="url(#clip720)" d="M 0 0 M163.149 1087.31 Q159.538 1087.31 157.709 1090.87 Q155.903 1094.41 155.903 1101.54 Q155.903 1108.65 157.709 1112.21 Q159.538 1115.75 163.149 1115.75 Q166.783 1115.75 168.589 1112.21 Q170.417 1108.65 170.417 1101.54 Q170.417 1094.41 168.589 1090.87 Q166.783 1087.31 163.149 1087.31 M163.149 1083.6 Q168.959 1083.6 172.014 1088.21 Q175.093 1092.79 175.093 1101.54 Q175.093 1110.27 172.014 1114.87 Q168.959 1119.46 163.149 1119.46 Q157.339 1119.46 154.26 1114.87 Q151.204 1110.27 151.204 1101.54 Q151.204 1092.79 154.26 1088.21 Q157.339 1083.6 163.149 1083.6 Z" fill="#000000" fill-rule="evenodd" fill-opacity="1" /><path clip-path="url(#clip720)" d="M 0 0 M127.593 833.458 Q124.445 833.458 122.593 835.611 Q120.765 837.764 120.765 841.514 Q120.765 845.24 122.593 847.416 Q124.445 849.569 127.593 849.569 Q130.742 849.569 132.57 847.416 Q134.422 845.24 134.422 841.514 Q134.422 837.764 132.57 835.611 Q130.742 833.458 127.593 833.458 M136.876 818.805 L136.876 823.065 Q135.117 822.231 133.311 821.791 Q131.529 821.352 129.769 821.352 Q125.14 821.352 122.686 824.477 Q120.255 827.602 119.908 833.921 Q121.274 831.907 123.334 830.842 Q125.394 829.754 127.871 829.754 Q133.08 829.754 136.089 832.926 Q139.121 836.074 139.121 841.514 Q139.121 846.838 135.973 850.055 Q132.825 853.273 127.593 853.273 Q121.598 853.273 118.427 848.689 Q115.256 844.083 115.256 835.356 Q115.256 827.162 119.144 822.301 Q123.033 817.416 129.584 817.416 Q131.343 817.416 133.126 817.764 Q134.931 818.111 136.876 818.805 Z" fill="#000000" fill-rule="evenodd" fill-opacity="1" /><path clip-path="url(#clip720)" d="M 0 0 M144.191 846.722 L149.075 846.722 L149.075 852.601 L144.191 852.601 L144.191 846.722 Z" fill="#000000" fill-rule="evenodd" fill-opacity="1" /><path clip-path="url(#clip720)" d="M 0 0 M154.19 818.041 L172.547 818.041 L172.547 821.977 L158.473 821.977 L158.473 830.449 Q159.491 830.102 160.51 829.94 Q161.528 829.754 162.547 829.754 Q168.334 829.754 171.714 832.926 Q175.093 836.097 175.093 841.514 Q175.093 847.092 171.621 850.194 Q168.149 853.273 161.829 853.273 Q159.653 853.273 157.385 852.902 Q155.14 852.532 152.732 851.791 L152.732 847.092 Q154.815 848.226 157.038 848.782 Q159.26 849.338 161.737 849.338 Q165.741 849.338 168.079 847.231 Q170.417 845.125 170.417 841.514 Q170.417 837.902 168.079 835.796 Q165.741 833.69 161.737 833.69 Q159.862 833.69 157.987 834.106 Q156.135 834.523 154.19 835.402 L154.19 818.041 Z" fill="#000000" fill-rule="evenodd" fill-opacity="1" /><path clip-path="url(#clip720)" d="M 0 0 M115.904 551.856 L138.126 551.856 L138.126 553.847 L125.58 586.416 L120.695 586.416 L132.501 555.791 L115.904 555.791 L115.904 551.856 Z" fill="#000000" fill-rule="evenodd" fill-opacity="1" /><path clip-path="url(#clip720)" d="M 0 0 M143.195 580.536 L148.079 580.536 L148.079 586.416 L143.195 586.416 L143.195 580.536 Z" fill="#000000" fill-rule="evenodd" fill-opacity="1" /><path clip-path="url(#clip720)" d="M 0 0 M163.149 554.935 Q159.538 554.935 157.709 558.499 Q155.903 562.041 155.903 569.171 Q155.903 576.277 157.709 579.842 Q159.538 583.384 163.149 583.384 Q166.783 583.384 168.589 579.842 Q170.417 576.277 170.417 569.171 Q170.417 562.041 168.589 558.499 Q166.783 554.935 163.149 554.935 M163.149 551.231 Q168.959 551.231 172.014 555.837 Q175.093 560.421 175.093 569.171 Q175.093 577.897 172.014 582.504 Q168.959 587.087 163.149 587.087 Q157.339 587.087 154.26 582.504 Q151.204 577.897 151.204 569.171 Q151.204 560.421 154.26 555.837 Q157.339 551.231 163.149 551.231 Z" fill="#000000" fill-rule="evenodd" fill-opacity="1" /><path clip-path="url(#clip720)" d="M 0 0 M116.899 285.67 L139.121 285.67 L139.121 287.661 L126.575 320.23 L121.691 320.23 L133.496 289.606 L116.899 289.606 L116.899 285.67 Z" fill="#000000" fill-rule="evenodd" fill-opacity="1" /><path clip-path="url(#clip720)" d="M 0 0 M144.191 314.351 L149.075 314.351 L149.075 320.23 L144.191 320.23 L144.191 314.351 Z" fill="#000000" fill-rule="evenodd" fill-opacity="1" /><path clip-path="url(#clip720)" d="M 0 0 M154.19 285.67 L172.547 285.67 L172.547 289.606 L158.473 289.606 L158.473 298.078 Q159.491 297.731 160.51 297.569 Q161.528 297.383 162.547 297.383 Q168.334 297.383 171.714 300.555 Q175.093 303.726 175.093 309.143 Q175.093 314.721 171.621 317.823 Q168.149 320.902 161.829 320.902 Q159.653 320.902 157.385 320.531 Q155.14 320.161 152.732 319.42 L152.732 314.721 Q154.815 315.855 157.038 316.411 Q159.26 316.967 161.737 316.967 Q165.741 316.967 168.079 314.86 Q170.417 312.754 170.417 309.143 Q170.417 305.531 168.079 303.425 Q165.741 301.319 161.737 301.319 Q159.862 301.319 157.987 301.735 Q156.135 302.152 154.19 303.031 L154.19 285.67 Z" fill="#000000" fill-rule="evenodd" fill-opacity="1" /><path clip-path="url(#clip720)" d="M 0 0 M59.1993 815.533 Q55.2526 813.336 53.3747 810.281 Q51.4968 807.225 51.4968 803.088 Q51.4968 797.518 55.4117 794.494 Q59.2948 791.47 66.4881 791.47 L88.0042 791.47 L88.0042 797.358 L66.679 797.358 Q61.5546 797.358 59.072 799.173 Q56.5894 800.987 56.5894 804.711 Q56.5894 809.262 59.6131 811.904 Q62.6368 814.546 67.8567 814.546 L88.0042 814.546 L88.0042 820.434 L66.679 820.434 Q61.5228 820.434 59.072 822.248 Q56.5894 824.063 56.5894 827.85 Q56.5894 832.338 59.6449 834.98 Q62.6686 837.622 67.8567 837.622 L88.0042 837.622 L88.0042 843.51 L52.3562 843.51 L52.3562 837.622 L57.8944 837.622 Q54.616 835.616 53.0564 832.815 Q51.4968 830.015 51.4968 826.163 Q51.4968 822.28 53.4702 819.575 Q55.4436 816.838 59.1993 815.533 Z" fill="#000000" fill-rule="evenodd" fill-opacity="1" /><path clip-path="url(#clip720)" d="M 0 0 M52.3562 785.327 L52.3562 779.471 L88.0042 779.471 L88.0042 785.327 L52.3562 785.327 M38.479 785.327 L38.479 779.471 L45.895 779.471 L45.895 785.327 L38.479 785.327 Z" fill="#000000" fill-rule="evenodd" fill-opacity="1" /><path clip-path="url(#clip720)" d="M 0 0 M66.4881 743.696 L88.0042 743.696 L88.0042 749.552 L66.679 749.552 Q61.6183 749.552 59.1038 751.525 Q56.5894 753.499 56.5894 757.446 Q56.5894 762.188 59.6131 764.925 Q62.6368 767.662 67.8567 767.662 L88.0042 767.662 L88.0042 773.551 L52.3562 773.551 L52.3562 767.662 L57.8944 767.662 Q54.6797 765.562 53.0883 762.729 Q51.4968 759.864 51.4968 756.141 Q51.4968 749.998 55.3163 746.847 Q59.1038 743.696 66.4881 743.696 Z" fill="#000000" fill-rule="evenodd" fill-opacity="1" /><path clip-path="url(#clip720)" d="M 0 0 M98.8259 710.467 L103.377 710.467 L103.377 744.332 L98.8259 744.332 L98.8259 710.467 Z" fill="#000000" fill-rule="evenodd" fill-opacity="1" /><path clip-path="url(#clip720)" d="M 0 0 M57.7671 680.866 L38.479 680.866 L38.479 675.01 L88.0042 675.01 L88.0042 680.866 L82.657 680.866 Q85.8398 682.712 87.3994 685.545 Q88.9272 688.346 88.9272 692.292 Q88.9272 698.754 83.771 702.828 Q78.6147 706.87 70.212 706.87 Q61.8093 706.87 56.6531 702.828 Q51.4968 698.754 51.4968 692.292 Q51.4968 688.346 53.0564 685.545 Q54.5842 682.712 57.7671 680.866 M70.212 700.823 Q76.6732 700.823 80.3653 698.181 Q84.0256 695.507 84.0256 690.86 Q84.0256 686.213 80.3653 683.54 Q76.6732 680.866 70.212 680.866 Q63.7508 680.866 60.0905 683.54 Q56.3984 686.213 56.3984 690.86 Q56.3984 695.507 60.0905 698.181 Q63.7508 700.823 70.212 700.823 Z" fill="#000000" fill-rule="evenodd" fill-opacity="1" /><path clip-path="url(#clip720)" d="M 0 0 M52.3562 668.867 L52.3562 663.01 L88.0042 663.01 L88.0042 668.867 L52.3562 668.867 M38.479 668.867 L38.479 663.01 L45.895 663.01 L45.895 668.867 L38.479 668.867 Z" fill="#000000" fill-rule="evenodd" fill-opacity="1" /><path clip-path="url(#clip720)" d="M 0 0 M38.479 638.821 L43.3487 638.821 L43.3487 644.422 Q43.3487 647.573 44.6219 648.815 Q45.895 650.024 49.2052 650.024 L52.3562 650.024 L52.3562 640.38 L56.9077 640.38 L56.9077 650.024 L88.0042 650.024 L88.0042 655.912 L56.9077 655.912 L56.9077 661.514 L52.3562 661.514 L52.3562 655.912 L49.8736 655.912 Q43.9216 655.912 41.2162 653.143 Q38.479 650.374 38.479 644.359 L38.479 638.821 Z" fill="#000000" fill-rule="evenodd" fill-opacity="1" /><path clip-path="url(#clip720)" d="M 0 0 M38.479 614.631 L43.3487 614.631 L43.3487 620.233 Q43.3487 623.384 44.6219 624.625 Q45.895 625.835 49.2052 625.835 L52.3562 625.835 L52.3562 616.19 L56.9077 616.19 L56.9077 625.835 L88.0042 625.835 L88.0042 631.723 L56.9077 631.723 L56.9077 637.325 L52.3562 637.325 L52.3562 631.723 L49.8736 631.723 Q43.9216 631.723 41.2162 628.954 Q38.479 626.185 38.479 620.169 L38.479 614.631 Z" fill="#000000" fill-rule="evenodd" fill-opacity="1" /><polyline clip-path="url(#clip722)" style="stroke:#009af9; stroke-width:20; stroke-opacity:1; fill:none" stroke-dasharray="80, 50" points="
  271.706,1045.56 271.706,1292.14 608.446,1142.19 945.185,1372.3 1281.92,908.093 1618.66,1186.8 1955.4,857.425 2292.14,85.838 
  "/>
<path clip-path="url(#clip720)" d="
M1992.39 213.659 L2281.37 213.659 L2281.37 92.6992 L1992.39 92.6992  Z
  " fill="#ffffff" fill-rule="evenodd" fill-opacity="1"/>
<polyline clip-path="url(#clip720)" style="stroke:#000000; stroke-width:4; stroke-opacity:1; fill:none" points="
  1992.39,213.659 2281.37,213.659 2281.37,92.6992 1992.39,92.6992 1992.39,213.659 
  "/>
<polyline clip-path="url(#clip720)" style="stroke:#009af9; stroke-width:4; stroke-opacity:1; fill:none" stroke-dasharray="16, 10" points="
  2016.18,153.179 2158.96,153.179 
  "/>
<path clip-path="url(#clip720)" d="M 0 0 M2196.6 172.867 Q2194.79 177.496 2193.08 178.908 Q2191.37 180.32 2188.5 180.32 L2185.09 180.32 L2185.09 176.755 L2187.59 176.755 Q2189.35 176.755 2190.33 175.922 Q2191.3 175.089 2192.48 171.987 L2193.24 170.043 L2182.76 144.533 L2187.27 144.533 L2195.37 164.811 L2203.47 144.533 L2207.99 144.533 L2196.6 172.867 Z" fill="#000000" fill-rule="evenodd" fill-opacity="1" /><path clip-path="url(#clip720)" d="M 0 0 M2213.87 166.524 L2221.51 166.524 L2221.51 140.158 L2213.2 141.825 L2213.2 137.566 L2221.46 135.899 L2226.14 135.899 L2226.14 166.524 L2233.77 166.524 L2233.77 170.459 L2213.87 170.459 L2213.87 166.524 Z" fill="#000000" fill-rule="evenodd" fill-opacity="1" /></svg>
