<?xml version="1.0" encoding="utf-8"?>
<svg xmlns="http://www.w3.org/2000/svg" xmlns:xlink="http://www.w3.org/1999/xlink" width="600" height="400" viewBox="0 0 2400 1600">
<defs>
  <clipPath id="clip310">
    <rect x="0" y="0" width="2400" height="1600"/>
  </clipPath>
</defs>
<path clip-path="url(#clip310)" d="
M0 1600 L2400 1600 L2400 0 L0 0  Z
  " fill="#ffffff" fill-rule="evenodd" fill-opacity="1"/>
<defs>
  <clipPath id="clip311">
    <rect x="480" y="0" width="1681" height="1600"/>
  </clipPath>
</defs>
<path clip-path="url(#clip310)" d="
M249.056 1410.9 L2352.76 1410.9 L2352.76 47.2441 L249.056 47.2441  Z
  " fill="#ffffff" fill-rule="evenodd" fill-opacity="1"/>
<defs>
  <clipPath id="clip312">
    <rect x="249" y="47" width="2105" height="1365"/>
  </clipPath>
</defs>
<polyline clip-path="url(#clip312)" style="stroke:#000000; stroke-linecap:butt; stroke-linejoin:round; stroke-width:2; stroke-opacity:0.1; fill:none" points="
  308.595,1410.9 308.595,47.2441 
  "/>
<polyline clip-path="url(#clip312)" style="stroke:#000000; stroke-linecap:butt; stroke-linejoin:round; stroke-width:2; stroke-opacity:0.1; fill:none" points="
  1102.44,1410.9 1102.44,47.2441 
  "/>
<polyline clip-path="url(#clip312)" style="stroke:#000000; stroke-linecap:butt; stroke-linejoin:round; stroke-width:2; stroke-opacity:0.1; fill:none" points="
  1896.29,1410.9 1896.29,47.2441 
  "/>
<polyline clip-path="url(#clip310)" style="stroke:#000000; stroke-linecap:butt; stroke-linejoin:round; stroke-width:4; stroke-opacity:1; fill:none" points="
  249.056,1410.9 2352.76,1410.9 
  "/>
<polyline clip-path="url(#clip310)" style="stroke:#000000; stroke-linecap:butt; stroke-linejoin:round; stroke-width:4; stroke-opacity:1; fill:none" points="
  308.595,1410.9 308.595,1392 
  "/>
<polyline clip-path="url(#clip310)" style="stroke:#000000; stroke-linecap:butt; stroke-linejoin:round; stroke-width:4; stroke-opacity:1; fill:none" points="
  1102.44,1410.9 1102.44,1392 
  "/>
<polyline clip-path="url(#clip310)" style="stroke:#000000; stroke-linecap:butt; stroke-linejoin:round; stroke-width:4; stroke-opacity:1; fill:none" points="
  1896.29,1410.9 1896.29,1392 
  "/>
<path clip-path="url(#clip310)" d="M239.836 1485.02 L247.475 1485.02 L247.475 1458.66 L239.165 1460.32 L239.165 1456.06 L247.429 1454.4 L252.105 1454.4 L252.105 1485.02 L259.744 1485.02 L259.744 1488.96 L239.836 1488.96 L239.836 1485.02 Z" fill="#000000" fill-rule="evenodd" fill-opacity="1" /><path clip-path="url(#clip310)" d="M279.188 1457.48 Q275.577 1457.48 273.748 1461.04 Q271.943 1464.58 271.943 1471.71 Q271.943 1478.82 273.748 1482.38 Q275.577 1485.92 279.188 1485.92 Q282.822 1485.92 284.628 1482.38 Q286.456 1478.82 286.456 1471.71 Q286.456 1464.58 284.628 1461.04 Q282.822 1457.48 279.188 1457.48 M279.188 1453.77 Q284.998 1453.77 288.054 1458.38 Q291.132 1462.96 291.132 1471.71 Q291.132 1480.44 288.054 1485.04 Q284.998 1489.63 279.188 1489.63 Q273.378 1489.63 270.299 1485.04 Q267.244 1480.44 267.244 1471.71 Q267.244 1462.96 270.299 1458.38 Q273.378 1453.77 279.188 1453.77 Z" fill="#000000" fill-rule="evenodd" fill-opacity="1" /><path clip-path="url(#clip310)" d="M291.132 1447.87 L315.244 1447.87 L315.244 1451.07 L291.132 1451.07 L291.132 1447.87 Z" fill="#000000" fill-rule="evenodd" fill-opacity="1" /><path clip-path="url(#clip310)" d="M334.954 1446.41 Q337.682 1446.99 339.205 1448.83 Q340.747 1450.68 340.747 1453.38 Q340.747 1457.54 337.888 1459.82 Q335.03 1462.09 329.763 1462.09 Q327.996 1462.09 326.115 1461.73 Q324.253 1461.4 322.259 1460.7 L322.259 1457.03 Q323.839 1457.95 325.72 1458.42 Q327.601 1458.89 329.651 1458.89 Q333.224 1458.89 335.086 1457.48 Q336.967 1456.07 336.967 1453.38 Q336.967 1450.9 335.218 1449.51 Q333.487 1448.1 330.384 1448.1 L327.112 1448.1 L327.112 1444.98 L330.535 1444.98 Q333.337 1444.98 334.823 1443.87 Q336.309 1442.74 336.309 1440.63 Q336.309 1438.47 334.766 1437.32 Q333.243 1436.16 330.384 1436.16 Q328.823 1436.16 327.036 1436.49 Q325.25 1436.83 323.106 1437.55 L323.106 1434.16 Q325.268 1433.56 327.149 1433.26 Q329.049 1432.96 330.723 1432.96 Q335.048 1432.96 337.569 1434.93 Q340.089 1436.89 340.089 1440.24 Q340.089 1442.57 338.754 1444.19 Q337.418 1445.79 334.954 1446.41 Z" fill="#000000" fill-rule="evenodd" fill-opacity="1" /><path clip-path="url(#clip310)" d="M347.951 1456.77 L351.919 1456.77 L351.919 1461.55 L347.951 1461.55 L347.951 1456.77 Z" fill="#000000" fill-rule="evenodd" fill-opacity="1" /><path clip-path="url(#clip310)" d="M368.319 1435.97 Q365.385 1435.97 363.9 1438.86 Q362.433 1441.74 362.433 1447.53 Q362.433 1453.31 363.9 1456.2 Q365.385 1459.08 368.319 1459.08 Q371.272 1459.08 372.739 1456.2 Q374.225 1453.31 374.225 1447.53 Q374.225 1441.74 372.739 1438.86 Q371.272 1435.97 368.319 1435.97 M368.319 1432.96 Q373.04 1432.96 375.523 1436.7 Q378.024 1440.43 378.024 1447.53 Q378.024 1454.62 375.523 1458.37 Q373.04 1462.09 368.319 1462.09 Q363.599 1462.09 361.097 1458.37 Q358.615 1454.62 358.615 1447.53 Q358.615 1440.43 361.097 1436.7 Q363.599 1432.96 368.319 1432.96 Z" fill="#000000" fill-rule="evenodd" fill-opacity="1" /><path clip-path="url(#clip310)" d="M1033.76 1485.02 L1041.4 1485.02 L1041.4 1458.66 L1033.09 1460.32 L1033.09 1456.06 L1041.35 1454.4 L1046.03 1454.4 L1046.03 1485.02 L1053.67 1485.02 L1053.67 1488.96 L1033.76 1488.96 L1033.76 1485.02 Z" fill="#000000" fill-rule="evenodd" fill-opacity="1" /><path clip-path="url(#clip310)" d="M1073.11 1457.48 Q1069.5 1457.48 1067.67 1461.04 Q1065.87 1464.58 1065.87 1471.71 Q1065.87 1478.82 1067.67 1482.38 Q1069.5 1485.92 1073.11 1485.92 Q1076.75 1485.92 1078.55 1482.38 Q1080.38 1478.82 1080.38 1471.71 Q1080.38 1464.58 1078.55 1461.04 Q1076.75 1457.48 1073.11 1457.48 M1073.11 1453.77 Q1078.92 1453.77 1081.98 1458.38 Q1085.06 1462.96 1085.06 1471.71 Q1085.06 1480.44 1081.98 1485.04 Q1078.92 1489.63 1073.11 1489.63 Q1067.3 1489.63 1064.22 1485.04 Q1061.17 1480.44 1061.17 1471.71 Q1061.17 1462.96 1064.22 1458.38 Q1067.3 1453.77 1073.11 1453.77 Z" fill="#000000" fill-rule="evenodd" fill-opacity="1" /><path clip-path="url(#clip310)" d="M1085.06 1447.87 L1109.17 1447.87 L1109.17 1451.07 L1085.06 1451.07 L1085.06 1447.87 Z" fill="#000000" fill-rule="evenodd" fill-opacity="1" /><path clip-path="url(#clip310)" d="M1120.64 1458.35 L1133.9 1458.35 L1133.9 1461.55 L1116.07 1461.55 L1116.07 1458.35 Q1118.23 1456.11 1121.96 1452.35 Q1125.7 1448.57 1126.66 1447.48 Q1128.48 1445.43 1129.2 1444.02 Q1129.93 1442.59 1129.93 1441.22 Q1129.93 1438.98 1128.35 1437.57 Q1126.79 1436.16 1124.27 1436.16 Q1122.48 1436.16 1120.49 1436.78 Q1118.52 1437.4 1116.26 1438.66 L1116.26 1434.82 Q1118.55 1433.9 1120.55 1433.43 Q1122.54 1432.96 1124.2 1432.96 Q1128.56 1432.96 1131.15 1435.14 Q1133.75 1437.32 1133.75 1440.97 Q1133.75 1442.7 1133.09 1444.26 Q1132.45 1445.8 1130.74 1447.91 Q1130.27 1448.46 1127.75 1451.07 Q1125.23 1453.67 1120.64 1458.35 Z" fill="#000000" fill-rule="evenodd" fill-opacity="1" /><path clip-path="url(#clip310)" d="M1141.87 1456.77 L1145.84 1456.77 L1145.84 1461.55 L1141.87 1461.55 L1141.87 1456.77 Z" fill="#000000" fill-rule="evenodd" fill-opacity="1" /><path clip-path="url(#clip310)" d="M1154.23 1460.96 L1154.23 1457.5 Q1155.66 1458.18 1157.13 1458.54 Q1158.59 1458.89 1160.01 1458.89 Q1163.77 1458.89 1165.74 1456.37 Q1167.74 1453.84 1168.02 1448.68 Q1166.93 1450.3 1165.25 1451.16 Q1163.58 1452.03 1161.55 1452.03 Q1157.33 1452.03 1154.87 1449.49 Q1152.43 1446.93 1152.43 1442.51 Q1152.43 1438.19 1154.98 1435.57 Q1157.54 1432.96 1161.79 1432.96 Q1166.66 1432.96 1169.22 1436.7 Q1171.8 1440.43 1171.8 1447.53 Q1171.8 1454.17 1168.64 1458.14 Q1165.5 1462.09 1160.17 1462.09 Q1158.75 1462.09 1157.28 1461.81 Q1155.81 1461.53 1154.23 1460.96 M1161.79 1449.06 Q1164.35 1449.06 1165.84 1447.31 Q1167.34 1445.56 1167.34 1442.51 Q1167.34 1439.48 1165.84 1437.74 Q1164.35 1435.97 1161.79 1435.97 Q1159.23 1435.97 1157.73 1437.74 Q1156.24 1439.48 1156.24 1442.51 Q1156.24 1445.56 1157.73 1447.31 Q1159.23 1449.06 1161.79 1449.06 Z" fill="#000000" fill-rule="evenodd" fill-opacity="1" /><path clip-path="url(#clip310)" d="M1827.57 1485.02 L1835.21 1485.02 L1835.21 1458.66 L1826.9 1460.32 L1826.9 1456.06 L1835.16 1454.4 L1839.84 1454.4 L1839.84 1485.02 L1847.48 1485.02 L1847.48 1488.96 L1827.57 1488.96 L1827.57 1485.02 Z" fill="#000000" fill-rule="evenodd" fill-opacity="1" /><path clip-path="url(#clip310)" d="M1866.92 1457.48 Q1863.31 1457.48 1861.48 1461.04 Q1859.68 1464.58 1859.68 1471.71 Q1859.68 1478.82 1861.48 1482.38 Q1863.31 1485.92 1866.92 1485.92 Q1870.56 1485.92 1872.36 1482.38 Q1874.19 1478.82 1874.19 1471.71 Q1874.19 1464.58 1872.36 1461.04 Q1870.56 1457.48 1866.92 1457.48 M1866.92 1453.77 Q1872.73 1453.77 1875.79 1458.38 Q1878.87 1462.96 1878.87 1471.71 Q1878.87 1480.44 1875.79 1485.04 Q1872.73 1489.63 1866.92 1489.63 Q1861.11 1489.63 1858.03 1485.04 Q1854.98 1480.44 1854.98 1471.71 Q1854.98 1462.96 1858.03 1458.38 Q1861.11 1453.77 1866.92 1453.77 Z" fill="#000000" fill-rule="evenodd" fill-opacity="1" /><path clip-path="url(#clip310)" d="M1878.87 1447.87 L1902.98 1447.87 L1902.98 1451.07 L1878.87 1451.07 L1878.87 1447.87 Z" fill="#000000" fill-rule="evenodd" fill-opacity="1" /><path clip-path="url(#clip310)" d="M1914.45 1458.35 L1927.71 1458.35 L1927.71 1461.55 L1909.88 1461.55 L1909.88 1458.35 Q1912.04 1456.11 1915.77 1452.35 Q1919.51 1448.57 1920.47 1447.48 Q1922.3 1445.43 1923.01 1444.02 Q1923.74 1442.59 1923.74 1441.22 Q1923.74 1438.98 1922.16 1437.57 Q1920.6 1436.16 1918.08 1436.16 Q1916.3 1436.16 1914.3 1436.78 Q1912.33 1437.4 1910.07 1438.66 L1910.07 1434.82 Q1912.36 1433.9 1914.36 1433.43 Q1916.35 1432.96 1918.01 1432.96 Q1922.37 1432.96 1924.97 1435.14 Q1927.56 1437.32 1927.56 1440.97 Q1927.56 1442.7 1926.9 1444.26 Q1926.26 1445.8 1924.55 1447.91 Q1924.08 1448.46 1921.56 1451.07 Q1919.04 1453.67 1914.45 1458.35 Z" fill="#000000" fill-rule="evenodd" fill-opacity="1" /><path clip-path="url(#clip310)" d="M1935.69 1456.77 L1939.65 1456.77 L1939.65 1461.55 L1935.69 1461.55 L1935.69 1456.77 Z" fill="#000000" fill-rule="evenodd" fill-opacity="1" /><path clip-path="url(#clip310)" d="M1956.06 1448.21 Q1953.35 1448.21 1951.79 1449.66 Q1950.24 1451.11 1950.24 1453.65 Q1950.24 1456.19 1951.79 1457.63 Q1953.35 1459.08 1956.06 1459.08 Q1958.76 1459.08 1960.32 1457.63 Q1961.89 1456.17 1961.89 1453.65 Q1961.89 1451.11 1960.32 1449.66 Q1958.78 1448.21 1956.06 1448.21 M1952.26 1446.59 Q1949.81 1445.99 1948.44 1444.32 Q1947.08 1442.64 1947.08 1440.24 Q1947.08 1436.87 1949.47 1434.91 Q1951.88 1432.96 1956.06 1432.96 Q1960.25 1432.96 1962.64 1434.91 Q1965.03 1436.87 1965.03 1440.24 Q1965.03 1442.64 1963.65 1444.32 Q1962.3 1445.99 1959.87 1446.59 Q1962.62 1447.23 1964.14 1449.1 Q1965.68 1450.96 1965.68 1453.65 Q1965.68 1457.73 1963.18 1459.91 Q1960.7 1462.09 1956.06 1462.09 Q1951.41 1462.09 1948.91 1459.91 Q1946.43 1457.73 1946.43 1453.65 Q1946.43 1450.96 1947.97 1449.1 Q1949.51 1447.23 1952.26 1446.59 M1950.86 1440.59 Q1950.86 1442.78 1952.22 1444 Q1953.59 1445.22 1956.06 1445.22 Q1958.5 1445.22 1959.87 1444 Q1961.26 1442.78 1961.26 1440.59 Q1961.26 1438.41 1959.87 1437.19 Q1958.5 1435.97 1956.06 1435.97 Q1953.59 1435.97 1952.22 1437.19 Q1950.86 1438.41 1950.86 1440.59 Z" fill="#000000" fill-rule="evenodd" fill-opacity="1" /><path clip-path="url(#clip310)" d="M1184.08 1538.54 L1190.29 1538.54 L1201.43 1568.46 L1212.57 1538.54 L1218.77 1538.54 L1205.4 1574.19 L1197.45 1574.19 L1184.08 1538.54 Z" fill="#000000" fill-rule="evenodd" fill-opacity="1" /><path clip-path="url(#clip310)" d="M1253.94 1585.01 L1253.94 1589.56 L1220.08 1589.56 L1220.08 1585.01 L1253.94 1585.01 Z" fill="#000000" fill-rule="evenodd" fill-opacity="1" /><path clip-path="url(#clip310)" d="M1285.1 1539.91 L1285.1 1545.38 Q1282.62 1544.01 1280.11 1543.34 Q1277.62 1542.64 1275.08 1542.64 Q1269.38 1542.64 1266.23 1546.27 Q1263.08 1549.87 1263.08 1556.39 Q1263.08 1562.92 1266.23 1566.55 Q1269.38 1570.14 1275.08 1570.14 Q1277.62 1570.14 1280.11 1569.47 Q1282.62 1568.77 1285.1 1567.41 L1285.1 1572.82 Q1282.65 1573.96 1280.01 1574.54 Q1277.4 1575.11 1274.44 1575.11 Q1266.39 1575.11 1261.65 1570.05 Q1256.9 1564.99 1256.9 1556.39 Q1256.9 1547.67 1261.68 1542.68 Q1266.48 1537.68 1274.82 1537.68 Q1277.53 1537.68 1280.11 1538.25 Q1282.68 1538.79 1285.1 1539.91 Z" fill="#000000" fill-rule="evenodd" fill-opacity="1" /><path clip-path="url(#clip310)" d="M1295.29 1524.66 L1301.14 1524.66 L1301.14 1574.19 L1295.29 1574.19 L1295.29 1524.66 Z" fill="#000000" fill-rule="evenodd" fill-opacity="1" /><path clip-path="url(#clip310)" d="M1327.21 1542.64 Q1322.5 1542.64 1319.76 1546.34 Q1317.03 1550 1317.03 1556.39 Q1317.03 1562.79 1319.73 1566.48 Q1322.47 1570.14 1327.21 1570.14 Q1331.89 1570.14 1334.63 1566.45 Q1337.37 1562.76 1337.37 1556.39 Q1337.37 1550.06 1334.63 1546.37 Q1331.89 1542.64 1327.21 1542.64 M1327.21 1537.68 Q1334.85 1537.68 1339.21 1542.64 Q1343.57 1547.61 1343.57 1556.39 Q1343.57 1565.15 1339.21 1570.14 Q1334.85 1575.11 1327.21 1575.11 Q1319.54 1575.11 1315.18 1570.14 Q1310.85 1565.15 1310.85 1556.39 Q1310.85 1547.61 1315.18 1542.64 Q1319.54 1537.68 1327.21 1537.68 Z" fill="#000000" fill-rule="evenodd" fill-opacity="1" /><path clip-path="url(#clip310)" d="M1376.01 1539.59 L1376.01 1545.13 Q1373.52 1543.85 1370.85 1543.22 Q1368.18 1542.58 1365.31 1542.58 Q1360.95 1542.58 1358.75 1543.92 Q1356.59 1545.25 1356.59 1547.93 Q1356.59 1549.96 1358.15 1551.14 Q1359.71 1552.29 1364.42 1553.34 L1366.42 1553.78 Q1372.66 1555.12 1375.27 1557.57 Q1377.92 1559.99 1377.92 1564.35 Q1377.92 1569.32 1373.97 1572.21 Q1370.05 1575.11 1363.18 1575.11 Q1360.31 1575.11 1357.19 1574.54 Q1354.11 1573.99 1350.67 1572.88 L1350.67 1566.83 Q1353.92 1568.52 1357.07 1569.38 Q1360.22 1570.21 1363.31 1570.21 Q1367.44 1570.21 1369.67 1568.81 Q1371.9 1567.37 1371.9 1564.8 Q1371.9 1562.41 1370.28 1561.14 Q1368.68 1559.86 1363.24 1558.68 L1361.21 1558.21 Q1355.76 1557.06 1353.34 1554.71 Q1350.92 1552.32 1350.92 1548.18 Q1350.92 1543.15 1354.49 1540.42 Q1358.05 1537.68 1364.61 1537.68 Q1367.86 1537.68 1370.72 1538.16 Q1373.59 1538.63 1376.01 1539.59 Z" fill="#000000" fill-rule="evenodd" fill-opacity="1" /><path clip-path="url(#clip310)" d="M1417.73 1554.9 L1417.73 1557.76 L1390.81 1557.76 Q1391.19 1563.81 1394.43 1566.99 Q1397.71 1570.14 1403.54 1570.14 Q1406.91 1570.14 1410.06 1569.32 Q1413.24 1568.49 1416.36 1566.83 L1416.36 1572.37 Q1413.21 1573.71 1409.9 1574.41 Q1406.59 1575.11 1403.19 1575.11 Q1394.66 1575.11 1389.66 1570.14 Q1384.69 1565.18 1384.69 1556.71 Q1384.69 1547.96 1389.41 1542.83 Q1394.15 1537.68 1402.17 1537.68 Q1409.36 1537.68 1413.53 1542.33 Q1417.73 1546.94 1417.73 1554.9 M1411.88 1553.18 Q1411.81 1548.37 1409.17 1545.51 Q1406.56 1542.64 1402.23 1542.64 Q1397.33 1542.64 1394.37 1545.41 Q1391.44 1548.18 1391 1553.21 L1411.88 1553.18 Z" fill="#000000" fill-rule="evenodd" fill-opacity="1" /><polyline clip-path="url(#clip312)" style="stroke:#000000; stroke-linecap:butt; stroke-linejoin:round; stroke-width:2; stroke-opacity:0.1; fill:none" points="
  249.056,1265.65 2352.76,1265.65 
  "/>
<polyline clip-path="url(#clip312)" style="stroke:#000000; stroke-linecap:butt; stroke-linejoin:round; stroke-width:2; stroke-opacity:0.1; fill:none" points="
  249.056,1057.87 2352.76,1057.87 
  "/>
<polyline clip-path="url(#clip312)" style="stroke:#000000; stroke-linecap:butt; stroke-linejoin:round; stroke-width:2; stroke-opacity:0.1; fill:none" points="
  249.056,850.087 2352.76,850.087 
  "/>
<polyline clip-path="url(#clip312)" style="stroke:#000000; stroke-linecap:butt; stroke-linejoin:round; stroke-width:2; stroke-opacity:0.1; fill:none" points="
  249.056,642.308 2352.76,642.308 
  "/>
<polyline clip-path="url(#clip312)" style="stroke:#000000; stroke-linecap:butt; stroke-linejoin:round; stroke-width:2; stroke-opacity:0.1; fill:none" points="
  249.056,434.529 2352.76,434.529 
  "/>
<polyline clip-path="url(#clip312)" style="stroke:#000000; stroke-linecap:butt; stroke-linejoin:round; stroke-width:2; stroke-opacity:0.1; fill:none" points="
  249.056,226.75 2352.76,226.75 
  "/>
<polyline clip-path="url(#clip310)" style="stroke:#000000; stroke-linecap:butt; stroke-linejoin:round; stroke-width:4; stroke-opacity:1; fill:none" points="
  249.056,1410.9 249.056,47.2441 
  "/>
<polyline clip-path="url(#clip310)" style="stroke:#000000; stroke-linecap:butt; stroke-linejoin:round; stroke-width:4; stroke-opacity:1; fill:none" points="
  249.056,1265.65 267.954,1265.65 
  "/>
<polyline clip-path="url(#clip310)" style="stroke:#000000; stroke-linecap:butt; stroke-linejoin:round; stroke-width:4; stroke-opacity:1; fill:none" points="
  249.056,1057.87 267.954,1057.87 
  "/>
<polyline clip-path="url(#clip310)" style="stroke:#000000; stroke-linecap:butt; stroke-linejoin:round; stroke-width:4; stroke-opacity:1; fill:none" points="
  249.056,850.087 267.954,850.087 
  "/>
<polyline clip-path="url(#clip310)" style="stroke:#000000; stroke-linecap:butt; stroke-linejoin:round; stroke-width:4; stroke-opacity:1; fill:none" points="
  249.056,642.308 267.954,642.308 
  "/>
<polyline clip-path="url(#clip310)" style="stroke:#000000; stroke-linecap:butt; stroke-linejoin:round; stroke-width:4; stroke-opacity:1; fill:none" points="
  249.056,434.529 267.954,434.529 
  "/>
<polyline clip-path="url(#clip310)" style="stroke:#000000; stroke-linecap:butt; stroke-linejoin:round; stroke-width:4; stroke-opacity:1; fill:none" points="
  249.056,226.75 267.954,226.75 
  "/>
<path clip-path="url(#clip310)" d="M129.885 1264.29 Q133.242 1265.01 135.117 1267.28 Q137.015 1269.55 137.015 1272.88 Q137.015 1278 133.496 1280.8 Q129.978 1283.6 123.496 1283.6 Q121.32 1283.6 119.006 1283.16 Q116.714 1282.74 114.26 1281.88 L114.26 1277.37 Q116.205 1278.5 118.519 1279.08 Q120.834 1279.66 123.357 1279.66 Q127.755 1279.66 130.047 1277.93 Q132.362 1276.19 132.362 1272.88 Q132.362 1269.82 130.209 1268.11 Q128.08 1266.38 124.26 1266.38 L120.232 1266.38 L120.232 1262.53 L124.445 1262.53 Q127.894 1262.53 129.723 1261.17 Q131.552 1259.78 131.552 1257.19 Q131.552 1254.52 129.654 1253.11 Q127.779 1251.68 124.26 1251.68 Q122.339 1251.68 120.14 1252.09 Q117.941 1252.51 115.302 1253.39 L115.302 1249.22 Q117.964 1248.48 120.279 1248.11 Q122.617 1247.74 124.677 1247.74 Q130.001 1247.74 133.103 1250.17 Q136.204 1252.58 136.204 1256.7 Q136.204 1259.57 134.561 1261.56 Q132.917 1263.53 129.885 1264.29 Z" fill="#000000" fill-rule="evenodd" fill-opacity="1" /><path clip-path="url(#clip310)" d="M145.88 1277.05 L150.765 1277.05 L150.765 1282.93 L145.88 1282.93 L145.88 1277.05 Z" fill="#000000" fill-rule="evenodd" fill-opacity="1" /><path clip-path="url(#clip310)" d="M173.797 1252.44 L161.991 1270.89 L173.797 1270.89 L173.797 1252.44 M172.57 1248.37 L178.45 1248.37 L178.45 1270.89 L183.38 1270.89 L183.38 1274.78 L178.45 1274.78 L178.45 1282.93 L173.797 1282.93 L173.797 1274.78 L158.195 1274.78 L158.195 1270.26 L172.57 1248.37 Z" fill="#000000" fill-rule="evenodd" fill-opacity="1" /><path clip-path="url(#clip310)" d="M201.112 1251.44 Q197.5 1251.44 195.672 1255.01 Q193.866 1258.55 193.866 1265.68 Q193.866 1272.79 195.672 1276.35 Q197.5 1279.89 201.112 1279.89 Q204.746 1279.89 206.551 1276.35 Q208.38 1272.79 208.38 1265.68 Q208.38 1258.55 206.551 1255.01 Q204.746 1251.44 201.112 1251.44 M201.112 1247.74 Q206.922 1247.74 209.977 1252.35 Q213.056 1256.93 213.056 1265.68 Q213.056 1274.41 209.977 1279.01 Q206.922 1283.6 201.112 1283.6 Q195.301 1283.6 192.223 1279.01 Q189.167 1274.41 189.167 1265.68 Q189.167 1256.93 192.223 1252.35 Q195.301 1247.74 201.112 1247.74 Z" fill="#000000" fill-rule="evenodd" fill-opacity="1" /><path clip-path="url(#clip310)" d="M130.88 1056.51 Q134.237 1057.23 136.112 1059.5 Q138.01 1061.77 138.01 1065.1 Q138.01 1070.22 134.492 1073.02 Q130.973 1075.82 124.492 1075.82 Q122.316 1075.82 120.001 1075.38 Q117.709 1074.96 115.256 1074.1 L115.256 1069.59 Q117.2 1070.73 119.515 1071.3 Q121.83 1071.88 124.353 1071.88 Q128.751 1071.88 131.042 1070.15 Q133.357 1068.41 133.357 1065.1 Q133.357 1062.04 131.205 1060.33 Q129.075 1058.6 125.255 1058.6 L121.228 1058.6 L121.228 1054.75 L125.441 1054.75 Q128.89 1054.75 130.718 1053.39 Q132.547 1052 132.547 1049.41 Q132.547 1046.74 130.649 1045.33 Q128.774 1043.9 125.255 1043.9 Q123.334 1043.9 121.135 1044.31 Q118.936 1044.73 116.297 1045.61 L116.297 1041.44 Q118.959 1040.7 121.274 1040.33 Q123.612 1039.96 125.672 1039.96 Q130.996 1039.96 134.098 1042.39 Q137.2 1044.8 137.2 1048.92 Q137.2 1051.79 135.556 1053.78 Q133.913 1055.75 130.88 1056.51 Z" fill="#000000" fill-rule="evenodd" fill-opacity="1" /><path clip-path="url(#clip310)" d="M146.876 1069.27 L151.76 1069.27 L151.76 1075.15 L146.876 1075.15 L146.876 1069.27 Z" fill="#000000" fill-rule="evenodd" fill-opacity="1" /><path clip-path="url(#clip310)" d="M174.792 1044.66 L162.987 1063.11 L174.792 1063.11 L174.792 1044.66 M173.565 1040.59 L179.445 1040.59 L179.445 1063.11 L184.376 1063.11 L184.376 1067 L179.445 1067 L179.445 1075.15 L174.792 1075.15 L174.792 1067 L159.19 1067 L159.19 1062.48 L173.565 1040.59 Z" fill="#000000" fill-rule="evenodd" fill-opacity="1" /><path clip-path="url(#clip310)" d="M192.153 1040.59 L210.51 1040.59 L210.51 1044.52 L196.436 1044.52 L196.436 1052.99 Q197.454 1052.65 198.473 1052.48 Q199.491 1052.3 200.51 1052.3 Q206.297 1052.3 209.676 1055.47 Q213.056 1058.64 213.056 1064.06 Q213.056 1069.64 209.584 1072.74 Q206.112 1075.82 199.792 1075.82 Q197.616 1075.82 195.348 1075.45 Q193.102 1075.08 190.695 1074.34 L190.695 1069.64 Q192.778 1070.77 195 1071.33 Q197.223 1071.88 199.7 1071.88 Q203.704 1071.88 206.042 1069.78 Q208.38 1067.67 208.38 1064.06 Q208.38 1060.45 206.042 1058.34 Q203.704 1056.23 199.7 1056.23 Q197.825 1056.23 195.95 1056.65 Q194.098 1057.07 192.153 1057.95 L192.153 1040.59 Z" fill="#000000" fill-rule="evenodd" fill-opacity="1" /><path clip-path="url(#clip310)" d="M129.885 848.733 Q133.242 849.451 135.117 851.719 Q137.015 853.988 137.015 857.321 Q137.015 862.437 133.496 865.238 Q129.978 868.039 123.496 868.039 Q121.32 868.039 119.006 867.599 Q116.714 867.182 114.26 866.326 L114.26 861.812 Q116.205 862.946 118.519 863.525 Q120.834 864.103 123.357 864.103 Q127.755 864.103 130.047 862.367 Q132.362 860.631 132.362 857.321 Q132.362 854.266 130.209 852.553 Q128.08 850.816 124.26 850.816 L120.232 850.816 L120.232 846.974 L124.445 846.974 Q127.894 846.974 129.723 845.608 Q131.552 844.219 131.552 841.627 Q131.552 838.965 129.654 837.553 Q127.779 836.117 124.26 836.117 Q122.339 836.117 120.14 836.534 Q117.941 836.951 115.302 837.83 L115.302 833.664 Q117.964 832.923 120.279 832.553 Q122.617 832.182 124.677 832.182 Q130.001 832.182 133.103 834.613 Q136.204 837.02 136.204 841.141 Q136.204 844.011 134.561 846.002 Q132.917 847.969 129.885 848.733 Z" fill="#000000" fill-rule="evenodd" fill-opacity="1" /><path clip-path="url(#clip310)" d="M145.88 861.488 L150.765 861.488 L150.765 867.367 L145.88 867.367 L145.88 861.488 Z" fill="#000000" fill-rule="evenodd" fill-opacity="1" /><path clip-path="url(#clip310)" d="M160.996 832.807 L179.352 832.807 L179.352 836.742 L165.278 836.742 L165.278 845.215 Q166.297 844.867 167.315 844.705 Q168.334 844.52 169.352 844.52 Q175.139 844.52 178.519 847.692 Q181.899 850.863 181.899 856.279 Q181.899 861.858 178.426 864.96 Q174.954 868.039 168.635 868.039 Q166.459 868.039 164.19 867.668 Q161.945 867.298 159.538 866.557 L159.538 861.858 Q161.621 862.992 163.843 863.548 Q166.065 864.103 168.542 864.103 Q172.547 864.103 174.885 861.997 Q177.223 859.891 177.223 856.279 Q177.223 852.668 174.885 850.562 Q172.547 848.455 168.542 848.455 Q166.667 848.455 164.792 848.872 Q162.94 849.289 160.996 850.168 L160.996 832.807 Z" fill="#000000" fill-rule="evenodd" fill-opacity="1" /><path clip-path="url(#clip310)" d="M201.112 835.886 Q197.5 835.886 195.672 839.451 Q193.866 842.992 193.866 850.122 Q193.866 857.228 195.672 860.793 Q197.5 864.335 201.112 864.335 Q204.746 864.335 206.551 860.793 Q208.38 857.228 208.38 850.122 Q208.38 842.992 206.551 839.451 Q204.746 835.886 201.112 835.886 M201.112 832.182 Q206.922 832.182 209.977 836.789 Q213.056 841.372 213.056 850.122 Q213.056 858.849 209.977 863.455 Q206.922 868.039 201.112 868.039 Q195.301 868.039 192.223 863.455 Q189.167 858.849 189.167 850.122 Q189.167 841.372 192.223 836.789 Q195.301 832.182 201.112 832.182 Z" fill="#000000" fill-rule="evenodd" fill-opacity="1" /><path clip-path="url(#clip310)" d="M130.88 640.954 Q134.237 641.671 136.112 643.94 Q138.01 646.208 138.01 649.542 Q138.01 654.658 134.492 657.458 Q130.973 660.259 124.492 660.259 Q122.316 660.259 120.001 659.82 Q117.709 659.403 115.256 658.546 L115.256 654.033 Q117.2 655.167 119.515 655.745 Q121.83 656.324 124.353 656.324 Q128.751 656.324 131.042 654.588 Q133.357 652.852 133.357 649.542 Q133.357 646.486 131.205 644.773 Q129.075 643.037 125.255 643.037 L121.228 643.037 L121.228 639.195 L125.441 639.195 Q128.89 639.195 130.718 637.829 Q132.547 636.44 132.547 633.847 Q132.547 631.185 130.649 629.773 Q128.774 628.338 125.255 628.338 Q123.334 628.338 121.135 628.755 Q118.936 629.172 116.297 630.051 L116.297 625.885 Q118.959 625.144 121.274 624.773 Q123.612 624.403 125.672 624.403 Q130.996 624.403 134.098 626.834 Q137.2 629.241 137.2 633.361 Q137.2 636.232 135.556 638.222 Q133.913 640.19 130.88 640.954 Z" fill="#000000" fill-rule="evenodd" fill-opacity="1" /><path clip-path="url(#clip310)" d="M146.876 653.708 L151.76 653.708 L151.76 659.588 L146.876 659.588 L146.876 653.708 Z" fill="#000000" fill-rule="evenodd" fill-opacity="1" /><path clip-path="url(#clip310)" d="M161.991 625.028 L180.348 625.028 L180.348 628.963 L166.274 628.963 L166.274 637.435 Q167.292 637.088 168.311 636.926 Q169.329 636.741 170.348 636.741 Q176.135 636.741 179.514 639.912 Q182.894 643.084 182.894 648.5 Q182.894 654.079 179.422 657.181 Q175.95 660.259 169.63 660.259 Q167.454 660.259 165.186 659.889 Q162.94 659.519 160.533 658.778 L160.533 654.079 Q162.616 655.213 164.839 655.769 Q167.061 656.324 169.538 656.324 Q173.542 656.324 175.88 654.218 Q178.218 652.111 178.218 648.5 Q178.218 644.889 175.88 642.783 Q173.542 640.676 169.538 640.676 Q167.663 640.676 165.788 641.093 Q163.936 641.509 161.991 642.389 L161.991 625.028 Z" fill="#000000" fill-rule="evenodd" fill-opacity="1" /><path clip-path="url(#clip310)" d="M192.153 625.028 L210.51 625.028 L210.51 628.963 L196.436 628.963 L196.436 637.435 Q197.454 637.088 198.473 636.926 Q199.491 636.741 200.51 636.741 Q206.297 636.741 209.676 639.912 Q213.056 643.084 213.056 648.5 Q213.056 654.079 209.584 657.181 Q206.112 660.259 199.792 660.259 Q197.616 660.259 195.348 659.889 Q193.102 659.519 190.695 658.778 L190.695 654.079 Q192.778 655.213 195 655.769 Q197.223 656.324 199.7 656.324 Q203.704 656.324 206.042 654.218 Q208.38 652.111 208.38 648.5 Q208.38 644.889 206.042 642.783 Q203.704 640.676 199.7 640.676 Q197.825 640.676 195.95 641.093 Q194.098 641.509 192.153 642.389 L192.153 625.028 Z" fill="#000000" fill-rule="evenodd" fill-opacity="1" /><path clip-path="url(#clip310)" d="M129.885 433.175 Q133.242 433.892 135.117 436.161 Q137.015 438.429 137.015 441.763 Q137.015 446.878 133.496 449.679 Q129.978 452.48 123.496 452.48 Q121.32 452.48 119.006 452.04 Q116.714 451.624 114.26 450.767 L114.26 446.253 Q116.205 447.388 118.519 447.966 Q120.834 448.545 123.357 448.545 Q127.755 448.545 130.047 446.809 Q132.362 445.073 132.362 441.763 Q132.362 438.707 130.209 436.994 Q128.08 435.258 124.26 435.258 L120.232 435.258 L120.232 431.415 L124.445 431.415 Q127.894 431.415 129.723 430.05 Q131.552 428.661 131.552 426.068 Q131.552 423.406 129.654 421.994 Q127.779 420.559 124.26 420.559 Q122.339 420.559 120.14 420.976 Q117.941 421.392 115.302 422.272 L115.302 418.105 Q117.964 417.365 120.279 416.994 Q122.617 416.624 124.677 416.624 Q130.001 416.624 133.103 419.054 Q136.204 421.462 136.204 425.582 Q136.204 428.452 134.561 430.443 Q132.917 432.411 129.885 433.175 Z" fill="#000000" fill-rule="evenodd" fill-opacity="1" /><path clip-path="url(#clip310)" d="M145.88 445.929 L150.765 445.929 L150.765 451.809 L145.88 451.809 L145.88 445.929 Z" fill="#000000" fill-rule="evenodd" fill-opacity="1" /><path clip-path="url(#clip310)" d="M171.528 432.665 Q168.38 432.665 166.528 434.818 Q164.7 436.971 164.7 440.721 Q164.7 444.448 166.528 446.624 Q168.38 448.776 171.528 448.776 Q174.677 448.776 176.505 446.624 Q178.357 444.448 178.357 440.721 Q178.357 436.971 176.505 434.818 Q174.677 432.665 171.528 432.665 M180.811 418.013 L180.811 422.272 Q179.051 421.439 177.246 420.999 Q175.464 420.559 173.704 420.559 Q169.075 420.559 166.621 423.684 Q164.19 426.809 163.843 433.128 Q165.209 431.114 167.269 430.05 Q169.329 428.962 171.806 428.962 Q177.014 428.962 180.024 432.133 Q183.056 435.281 183.056 440.721 Q183.056 446.045 179.908 449.263 Q176.76 452.48 171.528 452.48 Q165.533 452.48 162.362 447.897 Q159.19 443.29 159.19 434.564 Q159.19 426.369 163.079 421.508 Q166.968 416.624 173.519 416.624 Q175.278 416.624 177.061 416.971 Q178.866 417.318 180.811 418.013 Z" fill="#000000" fill-rule="evenodd" fill-opacity="1" /><path clip-path="url(#clip310)" d="M201.112 420.327 Q197.5 420.327 195.672 423.892 Q193.866 427.434 193.866 434.564 Q193.866 441.67 195.672 445.235 Q197.5 448.776 201.112 448.776 Q204.746 448.776 206.551 445.235 Q208.38 441.67 208.38 434.564 Q208.38 427.434 206.551 423.892 Q204.746 420.327 201.112 420.327 M201.112 416.624 Q206.922 416.624 209.977 421.23 Q213.056 425.814 213.056 434.564 Q213.056 443.29 209.977 447.897 Q206.922 452.48 201.112 452.48 Q195.301 452.48 192.223 447.897 Q189.167 443.29 189.167 434.564 Q189.167 425.814 192.223 421.23 Q195.301 416.624 201.112 416.624 Z" fill="#000000" fill-rule="evenodd" fill-opacity="1" /><path clip-path="url(#clip310)" d="M130.88 225.395 Q134.237 226.113 136.112 228.381 Q138.01 230.65 138.01 233.983 Q138.01 239.099 134.492 241.9 Q130.973 244.701 124.492 244.701 Q122.316 244.701 120.001 244.261 Q117.709 243.844 115.256 242.988 L115.256 238.474 Q117.2 239.608 119.515 240.187 Q121.83 240.766 124.353 240.766 Q128.751 240.766 131.042 239.03 Q133.357 237.293 133.357 233.983 Q133.357 230.928 131.205 229.215 Q129.075 227.479 125.255 227.479 L121.228 227.479 L121.228 223.636 L125.441 223.636 Q128.89 223.636 130.718 222.27 Q132.547 220.882 132.547 218.289 Q132.547 215.627 130.649 214.215 Q128.774 212.78 125.255 212.78 Q123.334 212.78 121.135 213.196 Q118.936 213.613 116.297 214.493 L116.297 210.326 Q118.959 209.585 121.274 209.215 Q123.612 208.845 125.672 208.845 Q130.996 208.845 134.098 211.275 Q137.2 213.682 137.2 217.803 Q137.2 220.673 135.556 222.664 Q133.913 224.631 130.88 225.395 Z" fill="#000000" fill-rule="evenodd" fill-opacity="1" /><path clip-path="url(#clip310)" d="M146.876 238.15 L151.76 238.15 L151.76 244.03 L146.876 244.03 L146.876 238.15 Z" fill="#000000" fill-rule="evenodd" fill-opacity="1" /><path clip-path="url(#clip310)" d="M172.524 224.886 Q169.376 224.886 167.524 227.039 Q165.695 229.192 165.695 232.942 Q165.695 236.668 167.524 238.844 Q169.376 240.997 172.524 240.997 Q175.672 240.997 177.501 238.844 Q179.352 236.668 179.352 232.942 Q179.352 229.192 177.501 227.039 Q175.672 224.886 172.524 224.886 M181.806 210.233 L181.806 214.493 Q180.047 213.659 178.241 213.22 Q176.459 212.78 174.7 212.78 Q170.07 212.78 167.616 215.905 Q165.186 219.03 164.839 225.349 Q166.204 223.335 168.264 222.27 Q170.325 221.182 172.802 221.182 Q178.01 221.182 181.019 224.354 Q184.051 227.502 184.051 232.942 Q184.051 238.266 180.903 241.483 Q177.755 244.701 172.524 244.701 Q166.528 244.701 163.357 240.118 Q160.186 235.511 160.186 226.784 Q160.186 218.59 164.075 213.729 Q167.964 208.845 174.514 208.845 Q176.274 208.845 178.056 209.192 Q179.862 209.539 181.806 210.233 Z" fill="#000000" fill-rule="evenodd" fill-opacity="1" /><path clip-path="url(#clip310)" d="M192.153 209.47 L210.51 209.47 L210.51 213.405 L196.436 213.405 L196.436 221.877 Q197.454 221.53 198.473 221.368 Q199.491 221.182 200.51 221.182 Q206.297 221.182 209.676 224.354 Q213.056 227.525 213.056 232.942 Q213.056 238.52 209.584 241.622 Q206.112 244.701 199.792 244.701 Q197.616 244.701 195.348 244.33 Q193.102 243.96 190.695 243.219 L190.695 238.52 Q192.778 239.655 195 240.21 Q197.223 240.766 199.7 240.766 Q203.704 240.766 206.042 238.659 Q208.38 236.553 208.38 232.942 Q208.38 229.331 206.042 227.224 Q203.704 225.118 199.7 225.118 Q197.825 225.118 195.95 225.534 Q194.098 225.951 192.153 226.831 L192.153 209.47 Z" fill="#000000" fill-rule="evenodd" fill-opacity="1" /><path clip-path="url(#clip310)" d="M35.1993 829.203 Q31.2526 827.007 29.3747 823.951 Q27.4968 820.896 27.4968 816.758 Q27.4968 811.188 31.4117 808.164 Q35.2948 805.141 42.4881 805.141 L64.0042 805.141 L64.0042 811.029 L42.679 811.029 Q37.5546 811.029 35.072 812.843 Q32.5894 814.657 32.5894 818.381 Q32.5894 822.933 35.6131 825.574 Q38.6368 828.216 43.8567 828.216 L64.0042 828.216 L64.0042 834.105 L42.679 834.105 Q37.5228 834.105 35.072 835.919 Q32.5894 837.733 32.5894 841.521 Q32.5894 846.008 35.6449 848.65 Q38.6686 851.292 43.8567 851.292 L64.0042 851.292 L64.0042 857.18 L28.3562 857.18 L28.3562 851.292 L33.8944 851.292 Q30.616 849.287 29.0564 846.486 Q27.4968 843.685 27.4968 839.834 Q27.4968 835.951 29.4702 833.245 Q31.4436 830.508 35.1993 829.203 Z" fill="#000000" fill-rule="evenodd" fill-opacity="1" /><path clip-path="url(#clip310)" d="M28.3562 793.459 L28.3562 787.603 L64.0042 787.603 L64.0042 793.459 L28.3562 793.459 M14.479 793.459 L14.479 787.603 L21.895 787.603 L21.895 793.459 L14.479 793.459 Z" fill="#000000" fill-rule="evenodd" fill-opacity="1" /><path clip-path="url(#clip310)" d="M42.4881 745.717 L64.0042 745.717 L64.0042 751.573 L42.679 751.573 Q37.6183 751.573 35.1038 753.547 Q32.5894 755.52 32.5894 759.467 Q32.5894 764.209 35.6131 766.946 Q38.6368 769.684 43.8567 769.684 L64.0042 769.684 L64.0042 775.572 L28.3562 775.572 L28.3562 769.684 L33.8944 769.684 Q30.6797 767.583 29.0883 764.75 Q27.4968 761.886 27.4968 758.162 Q27.4968 752.019 31.3163 748.868 Q35.1038 745.717 42.4881 745.717 Z" fill="#000000" fill-rule="evenodd" fill-opacity="1" /><path clip-path="url(#clip310)" d="M74.8259 706.95 L79.3773 706.95 L79.3773 740.815 L74.8259 740.815 L74.8259 706.95 Z" fill="#000000" fill-rule="evenodd" fill-opacity="1" /><path clip-path="url(#clip310)" d="M33.7671 677.986 L14.479 677.986 L14.479 672.129 L64.0042 672.129 L64.0042 677.986 L58.657 677.986 Q61.8398 679.832 63.3994 682.664 Q64.9272 685.465 64.9272 689.412 Q64.9272 695.873 59.771 699.947 Q54.6147 703.989 46.212 703.989 Q37.8093 703.989 32.6531 699.947 Q27.4968 695.873 27.4968 689.412 Q27.4968 685.465 29.0564 682.664 Q30.5842 679.832 33.7671 677.986 M46.212 697.942 Q52.6732 697.942 56.3653 695.3 Q60.0256 692.627 60.0256 687.98 Q60.0256 683.333 56.3653 680.659 Q52.6732 677.986 46.212 677.986 Q39.7508 677.986 36.0905 680.659 Q32.3984 683.333 32.3984 687.98 Q32.3984 692.627 36.0905 695.3 Q39.7508 697.942 46.212 697.942 Z" fill="#000000" fill-rule="evenodd" fill-opacity="1" /><path clip-path="url(#clip310)" d="M28.3562 660.066 L28.3562 654.21 L64.0042 654.21 L64.0042 660.066 L28.3562 660.066 M14.479 660.066 L14.479 654.21 L21.895 654.21 L21.895 660.066 L14.479 660.066 Z" fill="#000000" fill-rule="evenodd" fill-opacity="1" /><path clip-path="url(#clip310)" d="M14.479 623.909 L19.3487 623.909 L19.3487 629.511 Q19.3487 632.662 20.6219 633.903 Q21.895 635.113 25.2052 635.113 L28.3562 635.113 L28.3562 625.468 L32.9077 625.468 L32.9077 635.113 L64.0042 635.113 L64.0042 641.001 L32.9077 641.001 L32.9077 646.603 L28.3562 646.603 L28.3562 641.001 L25.8736 641.001 Q19.9216 641.001 17.2162 638.232 Q14.479 635.463 14.479 629.447 L14.479 623.909 Z" fill="#000000" fill-rule="evenodd" fill-opacity="1" /><path clip-path="url(#clip310)" d="M14.479 600.961 L19.3487 600.961 L19.3487 606.562 Q19.3487 609.713 20.6219 610.955 Q21.895 612.164 25.2052 612.164 L28.3562 612.164 L28.3562 602.52 L32.9077 602.52 L32.9077 612.164 L64.0042 612.164 L64.0042 618.052 L32.9077 618.052 L32.9077 623.654 L28.3562 623.654 L28.3562 618.052 L25.8736 618.052 Q19.9216 618.052 17.2162 615.283 Q14.479 612.514 14.479 606.499 L14.479 600.961 Z" fill="#000000" fill-rule="evenodd" fill-opacity="1" /><polyline clip-path="url(#clip312)" style="stroke:#009af9; stroke-linecap:butt; stroke-linejoin:round; stroke-width:20; stroke-opacity:1; fill:none" stroke-dasharray="80, 50" points="
  308.595,954.574 1300.91,85.838 2293.22,1372.3 
  "/>
<path clip-path="url(#clip310)" d="
M1996.46 196.379 L2282.63 196.379 L2282.63 92.6992 L1996.46 92.6992  Z
  " fill="#ffffff" fill-rule="evenodd" fill-opacity="1"/>
<polyline clip-path="url(#clip310)" style="stroke:#000000; stroke-linecap:butt; stroke-linejoin:round; stroke-width:4; stroke-opacity:1; fill:none" points="
  1996.46,196.379 2282.63,196.379 2282.63,92.6992 1996.46,92.6992 1996.46,196.379 
  "/>
<polyline clip-path="url(#clip310)" style="stroke:#009af9; stroke-linecap:butt; stroke-linejoin:round; stroke-width:4; stroke-opacity:1; fill:none" stroke-dasharray="16, 10" points="
  2019.83,144.539 2160.08,144.539 
  "/>
<path clip-path="url(#clip310)" d="M2197.3 164.227 Q2195.49 168.856 2193.78 170.268 Q2192.06 171.68 2189.19 171.68 L2185.79 171.68 L2185.79 168.115 L2188.29 168.115 Q2190.05 168.115 2191.02 167.282 Q2192 166.449 2193.18 163.347 L2193.94 161.403 L2183.45 135.893 L2187.97 135.893 L2196.07 156.171 L2204.17 135.893 L2208.68 135.893 L2197.3 164.227 Z" fill="#000000" fill-rule="evenodd" fill-opacity="1" /><path clip-path="url(#clip310)" d="M2215.98 157.884 L2223.62 157.884 L2223.62 131.518 L2215.31 133.185 L2215.31 128.926 L2223.57 127.259 L2228.24 127.259 L2228.24 157.884 L2235.88 157.884 L2235.88 161.819 L2215.98 161.819 L2215.98 157.884 Z" fill="#000000" fill-rule="evenodd" fill-opacity="1" /></svg>
