<?xml version="1.0" encoding="utf-8"?>
<svg xmlns="http://www.w3.org/2000/svg" xmlns:xlink="http://www.w3.org/1999/xlink" width="600" height="400" viewBox="0 0 2400 1600">
<defs>
  <clipPath id="clip410">
    <rect x="0" y="0" width="2400" height="1600"/>
  </clipPath>
</defs>
<path clip-path="url(#clip410)" d="
M0 1600 L2400 1600 L2400 0 L0 0  Z
  " fill="#ffffff" fill-rule="evenodd" fill-opacity="1"/>
<defs>
  <clipPath id="clip411">
    <rect x="480" y="0" width="1681" height="1600"/>
  </clipPath>
</defs>
<path clip-path="url(#clip410)" d="
M212.899 1410.9 L2352.76 1410.9 L2352.76 47.2441 L212.899 47.2441  Z
  " fill="#ffffff" fill-rule="evenodd" fill-opacity="1"/>
<defs>
  <clipPath id="clip412">
    <rect x="212" y="47" width="2141" height="1365"/>
  </clipPath>
</defs>
<polyline clip-path="url(#clip412)" style="stroke:#000000; stroke-width:2; stroke-opacity:0.1; fill:none" points="
  273.461,1410.9 273.461,47.2441 
  "/>
<polyline clip-path="url(#clip412)" style="stroke:#000000; stroke-width:2; stroke-opacity:0.1; fill:none" points="
  599.415,1410.9 599.415,47.2441 
  "/>
<polyline clip-path="url(#clip412)" style="stroke:#000000; stroke-width:2; stroke-opacity:0.1; fill:none" points="
  925.368,1410.9 925.368,47.2441 
  "/>
<polyline clip-path="url(#clip412)" style="stroke:#000000; stroke-width:2; stroke-opacity:0.1; fill:none" points="
  1251.32,1410.9 1251.32,47.2441 
  "/>
<polyline clip-path="url(#clip412)" style="stroke:#000000; stroke-width:2; stroke-opacity:0.1; fill:none" points="
  1577.28,1410.9 1577.28,47.2441 
  "/>
<polyline clip-path="url(#clip412)" style="stroke:#000000; stroke-width:2; stroke-opacity:0.1; fill:none" points="
  1903.23,1410.9 1903.23,47.2441 
  "/>
<polyline clip-path="url(#clip412)" style="stroke:#000000; stroke-width:2; stroke-opacity:0.1; fill:none" points="
  2229.18,1410.9 2229.18,47.2441 
  "/>
<polyline clip-path="url(#clip410)" style="stroke:#000000; stroke-width:4; stroke-opacity:1; fill:none" points="
  212.899,1410.9 2352.76,1410.9 
  "/>
<polyline clip-path="url(#clip410)" style="stroke:#000000; stroke-width:4; stroke-opacity:1; fill:none" points="
  273.461,1410.9 273.461,1394.53 
  "/>
<polyline clip-path="url(#clip410)" style="stroke:#000000; stroke-width:4; stroke-opacity:1; fill:none" points="
  599.415,1410.9 599.415,1394.53 
  "/>
<polyline clip-path="url(#clip410)" style="stroke:#000000; stroke-width:4; stroke-opacity:1; fill:none" points="
  925.368,1410.9 925.368,1394.53 
  "/>
<polyline clip-path="url(#clip410)" style="stroke:#000000; stroke-width:4; stroke-opacity:1; fill:none" points="
  1251.32,1410.9 1251.32,1394.53 
  "/>
<polyline clip-path="url(#clip410)" style="stroke:#000000; stroke-width:4; stroke-opacity:1; fill:none" points="
  1577.28,1410.9 1577.28,1394.53 
  "/>
<polyline clip-path="url(#clip410)" style="stroke:#000000; stroke-width:4; stroke-opacity:1; fill:none" points="
  1903.23,1410.9 1903.23,1394.53 
  "/>
<polyline clip-path="url(#clip410)" style="stroke:#000000; stroke-width:4; stroke-opacity:1; fill:none" points="
  2229.18,1410.9 2229.18,1394.53 
  "/>
<path clip-path="url(#clip410)" d="M 0 0 M212.692 1489.17 L220.331 1489.17 L220.331 1462.8 L212.021 1464.47 L212.021 1460.21 L220.285 1458.54 L224.961 1458.54 L224.961 1489.17 L232.599 1489.17 L232.599 1493.1 L212.692 1493.1 L212.692 1489.17 Z" fill="#000000" fill-rule="evenodd" fill-opacity="1" /><path clip-path="url(#clip410)" d="M 0 0 M247.669 1461.62 Q244.058 1461.62 242.229 1465.19 Q240.423 1468.73 240.423 1475.86 Q240.423 1482.97 242.229 1486.53 Q244.058 1490.07 247.669 1490.07 Q251.303 1490.07 253.109 1486.53 Q254.937 1482.97 254.937 1475.86 Q254.937 1468.73 253.109 1465.19 Q251.303 1461.62 247.669 1461.62 M247.669 1457.92 Q253.479 1457.92 256.534 1462.53 Q259.613 1467.11 259.613 1475.86 Q259.613 1484.59 256.534 1489.19 Q253.479 1493.78 247.669 1493.78 Q241.859 1493.78 238.78 1489.19 Q235.724 1484.59 235.724 1475.86 Q235.724 1467.11 238.78 1462.53 Q241.859 1457.92 247.669 1457.92 Z" fill="#000000" fill-rule="evenodd" fill-opacity="1" /><path clip-path="url(#clip410)" d="M 0 0 M259.613 1452.02 L283.725 1452.02 L283.725 1455.22 L259.613 1455.22 L259.613 1452.02 Z" fill="#000000" fill-rule="evenodd" fill-opacity="1" /><path clip-path="url(#clip410)" d="M 0 0 M295.969 1440.11 Q293.035 1440.11 291.549 1443.01 Q290.082 1445.89 290.082 1451.68 Q290.082 1457.46 291.549 1460.35 Q293.035 1463.23 295.969 1463.23 Q298.921 1463.23 300.388 1460.35 Q301.874 1457.46 301.874 1451.68 Q301.874 1445.89 300.388 1443.01 Q298.921 1440.11 295.969 1440.11 M295.969 1437.11 Q300.689 1437.11 303.172 1440.85 Q305.673 1444.57 305.673 1451.68 Q305.673 1458.77 303.172 1462.51 Q300.689 1466.24 295.969 1466.24 Q291.248 1466.24 288.746 1462.51 Q286.264 1458.77 286.264 1451.68 Q286.264 1444.57 288.746 1440.85 Q291.248 1437.11 295.969 1437.11 Z" fill="#000000" fill-rule="evenodd" fill-opacity="1" /><path clip-path="url(#clip410)" d="M 0 0 M309.792 1460.92 L313.761 1460.92 L313.761 1465.69 L309.792 1465.69 L309.792 1460.92 Z" fill="#000000" fill-rule="evenodd" fill-opacity="1" /><path clip-path="url(#clip410)" d="M 0 0 M317.917 1437.61 L332.832 1437.61 L332.832 1440.81 L321.397 1440.81 L321.397 1447.69 Q322.224 1447.41 323.052 1447.28 Q323.879 1447.13 324.707 1447.13 Q329.409 1447.13 332.155 1449.71 Q334.901 1452.28 334.901 1456.68 Q334.901 1461.22 332.079 1463.74 Q329.258 1466.24 324.124 1466.24 Q322.356 1466.24 320.513 1465.94 Q318.688 1465.64 316.732 1465.04 L316.732 1461.22 Q318.425 1462.14 320.231 1462.59 Q322.036 1463.04 324.049 1463.04 Q327.302 1463.04 329.202 1461.33 Q331.101 1459.62 331.101 1456.68 Q331.101 1453.75 329.202 1452.04 Q327.302 1450.33 324.049 1450.33 Q322.525 1450.33 321.002 1450.67 Q319.497 1451 317.917 1451.72 L317.917 1437.61 Z" fill="#000000" fill-rule="evenodd" fill-opacity="1" /><path clip-path="url(#clip410)" d="M 0 0 M538.044 1489.17 L545.683 1489.17 L545.683 1462.8 L537.373 1464.47 L537.373 1460.21 L545.637 1458.54 L550.313 1458.54 L550.313 1489.17 L557.951 1489.17 L557.951 1493.1 L538.044 1493.1 L538.044 1489.17 Z" fill="#000000" fill-rule="evenodd" fill-opacity="1" /><path clip-path="url(#clip410)" d="M 0 0 M573.021 1461.62 Q569.41 1461.62 567.581 1465.19 Q565.775 1468.73 565.775 1475.86 Q565.775 1482.97 567.581 1486.53 Q569.41 1490.07 573.021 1490.07 Q576.655 1490.07 578.461 1486.53 Q580.289 1482.97 580.289 1475.86 Q580.289 1468.73 578.461 1465.19 Q576.655 1461.62 573.021 1461.62 M573.021 1457.92 Q578.831 1457.92 581.886 1462.53 Q584.965 1467.11 584.965 1475.86 Q584.965 1484.59 581.886 1489.19 Q578.831 1493.78 573.021 1493.78 Q567.211 1493.78 564.132 1489.19 Q561.076 1484.59 561.076 1475.86 Q561.076 1467.11 564.132 1462.53 Q567.211 1457.92 573.021 1457.92 Z" fill="#000000" fill-rule="evenodd" fill-opacity="1" /><path clip-path="url(#clip410)" d="M 0 0 M584.965 1452.02 L609.077 1452.02 L609.077 1455.22 L584.965 1455.22 L584.965 1452.02 Z" fill="#000000" fill-rule="evenodd" fill-opacity="1" /><path clip-path="url(#clip410)" d="M 0 0 M621.321 1440.11 Q618.387 1440.11 616.901 1443.01 Q615.434 1445.89 615.434 1451.68 Q615.434 1457.46 616.901 1460.35 Q618.387 1463.23 621.321 1463.23 Q624.273 1463.23 625.74 1460.35 Q627.226 1457.46 627.226 1451.68 Q627.226 1445.89 625.74 1443.01 Q624.273 1440.11 621.321 1440.11 M621.321 1437.11 Q626.041 1437.11 628.524 1440.85 Q631.025 1444.57 631.025 1451.68 Q631.025 1458.77 628.524 1462.51 Q626.041 1466.24 621.321 1466.24 Q616.6 1466.24 614.098 1462.51 Q611.616 1458.77 611.616 1451.68 Q611.616 1444.57 614.098 1440.85 Q616.6 1437.11 621.321 1437.11 Z" fill="#000000" fill-rule="evenodd" fill-opacity="1" /><path clip-path="url(#clip410)" d="M 0 0 M635.144 1460.92 L639.113 1460.92 L639.113 1465.69 L635.144 1465.69 L635.144 1460.92 Z" fill="#000000" fill-rule="evenodd" fill-opacity="1" /><path clip-path="url(#clip410)" d="M 0 0 M653.67 1440.92 L644.078 1455.91 L653.67 1455.91 L653.67 1440.92 M652.673 1437.61 L657.45 1437.61 L657.45 1455.91 L661.456 1455.91 L661.456 1459.07 L657.45 1459.07 L657.45 1465.69 L653.67 1465.69 L653.67 1459.07 L640.993 1459.07 L640.993 1455.41 L652.673 1437.61 Z" fill="#000000" fill-rule="evenodd" fill-opacity="1" /><path clip-path="url(#clip410)" d="M 0 0 M864.459 1489.17 L872.098 1489.17 L872.098 1462.8 L863.787 1464.47 L863.787 1460.21 L872.051 1458.54 L876.727 1458.54 L876.727 1489.17 L884.366 1489.17 L884.366 1493.1 L864.459 1493.1 L864.459 1489.17 Z" fill="#000000" fill-rule="evenodd" fill-opacity="1" /><path clip-path="url(#clip410)" d="M 0 0 M899.435 1461.62 Q895.824 1461.62 893.996 1465.19 Q892.19 1468.73 892.19 1475.86 Q892.19 1482.97 893.996 1486.53 Q895.824 1490.07 899.435 1490.07 Q903.07 1490.07 904.875 1486.53 Q906.704 1482.97 906.704 1475.86 Q906.704 1468.73 904.875 1465.19 Q903.07 1461.62 899.435 1461.62 M899.435 1457.92 Q905.245 1457.92 908.301 1462.53 Q911.38 1467.11 911.38 1475.86 Q911.38 1484.59 908.301 1489.19 Q905.245 1493.78 899.435 1493.78 Q893.625 1493.78 890.546 1489.19 Q887.491 1484.59 887.491 1475.86 Q887.491 1467.11 890.546 1462.53 Q893.625 1457.92 899.435 1457.92 Z" fill="#000000" fill-rule="evenodd" fill-opacity="1" /><path clip-path="url(#clip410)" d="M 0 0 M911.38 1452.02 L935.491 1452.02 L935.491 1455.22 L911.38 1455.22 L911.38 1452.02 Z" fill="#000000" fill-rule="evenodd" fill-opacity="1" /><path clip-path="url(#clip410)" d="M 0 0 M947.735 1440.11 Q944.801 1440.11 943.315 1443.01 Q941.848 1445.89 941.848 1451.68 Q941.848 1457.46 943.315 1460.35 Q944.801 1463.23 947.735 1463.23 Q950.688 1463.23 952.155 1460.35 Q953.641 1457.46 953.641 1451.68 Q953.641 1445.89 952.155 1443.01 Q950.688 1440.11 947.735 1440.11 M947.735 1437.11 Q952.456 1437.11 954.938 1440.85 Q957.44 1444.57 957.44 1451.68 Q957.44 1458.77 954.938 1462.51 Q952.456 1466.24 947.735 1466.24 Q943.014 1466.24 940.513 1462.51 Q938.03 1458.77 938.03 1451.68 Q938.03 1444.57 940.513 1440.85 Q943.014 1437.11 947.735 1437.11 Z" fill="#000000" fill-rule="evenodd" fill-opacity="1" /><path clip-path="url(#clip410)" d="M 0 0 M961.559 1460.92 L965.527 1460.92 L965.527 1465.69 L961.559 1465.69 L961.559 1460.92 Z" fill="#000000" fill-rule="evenodd" fill-opacity="1" /><path clip-path="url(#clip410)" d="M 0 0 M981.157 1450.55 Q983.884 1451.14 985.407 1452.98 Q986.949 1454.82 986.949 1457.53 Q986.949 1461.69 984.091 1463.96 Q981.232 1466.24 975.966 1466.24 Q974.198 1466.24 972.317 1465.88 Q970.455 1465.54 968.461 1464.85 L968.461 1461.18 Q970.041 1462.1 971.922 1462.57 Q973.803 1463.04 975.853 1463.04 Q979.426 1463.04 981.288 1461.63 Q983.169 1460.22 983.169 1457.53 Q983.169 1455.05 981.42 1453.66 Q979.69 1452.25 976.586 1452.25 L973.314 1452.25 L973.314 1449.12 L976.737 1449.12 Q979.539 1449.12 981.025 1448.01 Q982.511 1446.89 982.511 1444.78 Q982.511 1442.62 980.968 1441.47 Q979.445 1440.3 976.586 1440.3 Q975.025 1440.3 973.238 1440.64 Q971.452 1440.98 969.308 1441.69 L969.308 1438.31 Q971.471 1437.71 973.351 1437.41 Q975.251 1437.11 976.925 1437.11 Q981.251 1437.11 983.771 1439.08 Q986.291 1441.04 986.291 1444.38 Q986.291 1446.72 984.956 1448.33 Q983.62 1449.93 981.157 1450.55 Z" fill="#000000" fill-rule="evenodd" fill-opacity="1" /><path clip-path="url(#clip410)" d="M 0 0 M1190.8 1489.17 L1198.44 1489.17 L1198.44 1462.8 L1190.13 1464.47 L1190.13 1460.21 L1198.39 1458.54 L1203.07 1458.54 L1203.07 1489.17 L1210.71 1489.17 L1210.71 1493.1 L1190.8 1493.1 L1190.8 1489.17 Z" fill="#000000" fill-rule="evenodd" fill-opacity="1" /><path clip-path="url(#clip410)" d="M 0 0 M1225.77 1461.62 Q1222.16 1461.62 1220.33 1465.19 Q1218.53 1468.73 1218.53 1475.86 Q1218.53 1482.97 1220.33 1486.53 Q1222.16 1490.07 1225.77 1490.07 Q1229.41 1490.07 1231.21 1486.53 Q1233.04 1482.97 1233.04 1475.86 Q1233.04 1468.73 1231.21 1465.19 Q1229.41 1461.62 1225.77 1461.62 M1225.77 1457.92 Q1231.58 1457.92 1234.64 1462.53 Q1237.72 1467.11 1237.72 1475.86 Q1237.72 1484.59 1234.64 1489.19 Q1231.58 1493.78 1225.77 1493.78 Q1219.96 1493.78 1216.89 1489.19 Q1213.83 1484.59 1213.83 1475.86 Q1213.83 1467.11 1216.89 1462.53 Q1219.96 1457.92 1225.77 1457.92 Z" fill="#000000" fill-rule="evenodd" fill-opacity="1" /><path clip-path="url(#clip410)" d="M 0 0 M1237.72 1452.02 L1261.83 1452.02 L1261.83 1455.22 L1237.72 1455.22 L1237.72 1452.02 Z" fill="#000000" fill-rule="evenodd" fill-opacity="1" /><path clip-path="url(#clip410)" d="M 0 0 M1274.07 1440.11 Q1271.14 1440.11 1269.65 1443.01 Q1268.19 1445.89 1268.19 1451.68 Q1268.19 1457.46 1269.65 1460.35 Q1271.14 1463.23 1274.07 1463.23 Q1277.03 1463.23 1278.49 1460.35 Q1279.98 1457.46 1279.98 1451.68 Q1279.98 1445.89 1278.49 1443.01 Q1277.03 1440.11 1274.07 1440.11 M1274.07 1437.11 Q1278.8 1437.11 1281.28 1440.85 Q1283.78 1444.57 1283.78 1451.68 Q1283.78 1458.77 1281.28 1462.51 Q1278.8 1466.24 1274.07 1466.24 Q1269.35 1466.24 1266.85 1462.51 Q1264.37 1458.77 1264.37 1451.68 Q1264.37 1444.57 1266.85 1440.85 Q1269.35 1437.11 1274.07 1437.11 Z" fill="#000000" fill-rule="evenodd" fill-opacity="1" /><path clip-path="url(#clip410)" d="M 0 0 M1287.9 1460.92 L1291.87 1460.92 L1291.87 1465.69 L1287.9 1465.69 L1287.9 1460.92 Z" fill="#000000" fill-rule="evenodd" fill-opacity="1" /><path clip-path="url(#clip410)" d="M 0 0 M1299.26 1462.5 L1312.52 1462.5 L1312.52 1465.69 L1294.69 1465.69 L1294.69 1462.5 Q1296.85 1460.26 1300.57 1456.5 Q1304.32 1452.72 1305.28 1451.63 Q1307.1 1449.58 1307.82 1448.16 Q1308.55 1446.74 1308.55 1445.36 Q1308.55 1443.12 1306.97 1441.71 Q1305.41 1440.3 1302.89 1440.3 Q1301.1 1440.3 1299.11 1440.92 Q1297.13 1441.54 1294.88 1442.8 L1294.88 1438.97 Q1297.17 1438.05 1299.16 1437.58 Q1301.16 1437.11 1302.81 1437.11 Q1307.18 1437.11 1309.77 1439.29 Q1312.37 1441.47 1312.37 1445.12 Q1312.37 1446.85 1311.71 1448.41 Q1311.07 1449.95 1309.36 1452.06 Q1308.89 1452.6 1306.37 1455.22 Q1303.85 1457.81 1299.26 1462.5 Z" fill="#000000" fill-rule="evenodd" fill-opacity="1" /><path clip-path="url(#clip410)" d="M 0 0 M1516.6 1489.17 L1524.24 1489.17 L1524.24 1462.8 L1515.93 1464.47 L1515.93 1460.21 L1524.19 1458.54 L1528.87 1458.54 L1528.87 1489.17 L1536.51 1489.17 L1536.51 1493.1 L1516.6 1493.1 L1516.6 1489.17 Z" fill="#000000" fill-rule="evenodd" fill-opacity="1" /><path clip-path="url(#clip410)" d="M 0 0 M1551.58 1461.62 Q1547.97 1461.62 1546.14 1465.19 Q1544.33 1468.73 1544.33 1475.86 Q1544.33 1482.97 1546.14 1486.53 Q1547.97 1490.07 1551.58 1490.07 Q1555.21 1490.07 1557.02 1486.53 Q1558.85 1482.97 1558.85 1475.86 Q1558.85 1468.73 1557.02 1465.19 Q1555.21 1461.62 1551.58 1461.62 M1551.58 1457.92 Q1557.39 1457.92 1560.44 1462.53 Q1563.52 1467.11 1563.52 1475.86 Q1563.52 1484.59 1560.44 1489.19 Q1557.39 1493.78 1551.58 1493.78 Q1545.77 1493.78 1542.69 1489.19 Q1539.63 1484.59 1539.63 1475.86 Q1539.63 1467.11 1542.69 1462.53 Q1545.77 1457.92 1551.58 1457.92 Z" fill="#000000" fill-rule="evenodd" fill-opacity="1" /><path clip-path="url(#clip410)" d="M 0 0 M1563.52 1452.02 L1587.63 1452.02 L1587.63 1455.22 L1563.52 1455.22 L1563.52 1452.02 Z" fill="#000000" fill-rule="evenodd" fill-opacity="1" /><path clip-path="url(#clip410)" d="M 0 0 M1599.88 1440.11 Q1596.94 1440.11 1595.46 1443.01 Q1593.99 1445.89 1593.99 1451.68 Q1593.99 1457.46 1595.46 1460.35 Q1596.94 1463.23 1599.88 1463.23 Q1602.83 1463.23 1604.3 1460.35 Q1605.78 1457.46 1605.78 1451.68 Q1605.78 1445.89 1604.3 1443.01 Q1602.83 1440.11 1599.88 1440.11 M1599.88 1437.11 Q1604.6 1437.11 1607.08 1440.85 Q1609.58 1444.57 1609.58 1451.68 Q1609.58 1458.77 1607.08 1462.51 Q1604.6 1466.24 1599.88 1466.24 Q1595.16 1466.24 1592.66 1462.51 Q1590.17 1458.77 1590.17 1451.68 Q1590.17 1444.57 1592.66 1440.85 Q1595.16 1437.11 1599.88 1437.11 Z" fill="#000000" fill-rule="evenodd" fill-opacity="1" /><path clip-path="url(#clip410)" d="M 0 0 M1613.7 1460.92 L1617.67 1460.92 L1617.67 1465.69 L1613.7 1465.69 L1613.7 1460.92 Z" fill="#000000" fill-rule="evenodd" fill-opacity="1" /><path clip-path="url(#clip410)" d="M 0 0 M1622.45 1462.5 L1628.65 1462.5 L1628.65 1441.07 L1621.9 1442.43 L1621.9 1438.97 L1628.62 1437.61 L1632.42 1437.61 L1632.42 1462.5 L1638.62 1462.5 L1638.62 1465.69 L1622.45 1465.69 L1622.45 1462.5 Z" fill="#000000" fill-rule="evenodd" fill-opacity="1" /><path clip-path="url(#clip410)" d="M 0 0 M1855.38 1489.17 L1863.02 1489.17 L1863.02 1462.8 L1854.71 1464.47 L1854.71 1460.21 L1862.97 1458.54 L1867.65 1458.54 L1867.65 1489.17 L1875.29 1489.17 L1875.29 1493.1 L1855.38 1493.1 L1855.38 1489.17 Z" fill="#000000" fill-rule="evenodd" fill-opacity="1" /><path clip-path="url(#clip410)" d="M 0 0 M1890.36 1461.62 Q1886.75 1461.62 1884.92 1465.19 Q1883.11 1468.73 1883.11 1475.86 Q1883.11 1482.97 1884.92 1486.53 Q1886.75 1490.07 1890.36 1490.07 Q1893.99 1490.07 1895.8 1486.53 Q1897.63 1482.97 1897.63 1475.86 Q1897.63 1468.73 1895.8 1465.19 Q1893.99 1461.62 1890.36 1461.62 M1890.36 1457.92 Q1896.17 1457.92 1899.22 1462.53 Q1902.3 1467.11 1902.3 1475.86 Q1902.3 1484.59 1899.22 1489.19 Q1896.17 1493.78 1890.36 1493.78 Q1884.55 1493.78 1881.47 1489.19 Q1878.41 1484.59 1878.41 1475.86 Q1878.41 1467.11 1881.47 1462.53 Q1884.55 1457.92 1890.36 1457.92 Z" fill="#000000" fill-rule="evenodd" fill-opacity="1" /><path clip-path="url(#clip410)" d="M 0 0 M1912.01 1440.11 Q1909.07 1440.11 1907.59 1443.01 Q1906.12 1445.89 1906.12 1451.68 Q1906.12 1457.46 1907.59 1460.35 Q1909.07 1463.23 1912.01 1463.23 Q1914.96 1463.23 1916.43 1460.35 Q1917.91 1457.46 1917.91 1451.68 Q1917.91 1445.89 1916.43 1443.01 Q1914.96 1440.11 1912.01 1440.11 M1912.01 1437.11 Q1916.73 1437.11 1919.21 1440.85 Q1921.71 1444.57 1921.71 1451.68 Q1921.71 1458.77 1919.21 1462.51 Q1916.73 1466.24 1912.01 1466.24 Q1907.29 1466.24 1904.79 1462.51 Q1902.3 1458.77 1902.3 1451.68 Q1902.3 1444.57 1904.79 1440.85 Q1907.29 1437.11 1912.01 1437.11 Z" fill="#000000" fill-rule="evenodd" fill-opacity="1" /><path clip-path="url(#clip410)" d="M 0 0 M1925.83 1460.92 L1929.8 1460.92 L1929.8 1465.69 L1925.83 1465.69 L1925.83 1460.92 Z" fill="#000000" fill-rule="evenodd" fill-opacity="1" /><path clip-path="url(#clip410)" d="M 0 0 M1942.04 1440.11 Q1939.11 1440.11 1937.62 1443.01 Q1936.16 1445.89 1936.16 1451.68 Q1936.16 1457.46 1937.62 1460.35 Q1939.11 1463.23 1942.04 1463.23 Q1945 1463.23 1946.46 1460.35 Q1947.95 1457.46 1947.95 1451.68 Q1947.95 1445.89 1946.46 1443.01 Q1945 1440.11 1942.04 1440.11 M1942.04 1437.11 Q1946.76 1437.11 1949.25 1440.85 Q1951.75 1444.57 1951.75 1451.68 Q1951.75 1458.77 1949.25 1462.51 Q1946.76 1466.24 1942.04 1466.24 Q1937.32 1466.24 1934.82 1462.51 Q1932.34 1458.77 1932.34 1451.68 Q1932.34 1444.57 1934.82 1440.85 Q1937.32 1437.11 1942.04 1437.11 Z" fill="#000000" fill-rule="evenodd" fill-opacity="1" /><path clip-path="url(#clip410)" d="M 0 0 M2181.83 1489.17 L2189.47 1489.17 L2189.47 1462.8 L2181.16 1464.47 L2181.16 1460.21 L2189.43 1458.54 L2194.1 1458.54 L2194.1 1489.17 L2201.74 1489.17 L2201.74 1493.1 L2181.83 1493.1 L2181.83 1489.17 Z" fill="#000000" fill-rule="evenodd" fill-opacity="1" /><path clip-path="url(#clip410)" d="M 0 0 M2216.81 1461.62 Q2213.2 1461.62 2211.37 1465.19 Q2209.57 1468.73 2209.57 1475.86 Q2209.57 1482.97 2211.37 1486.53 Q2213.2 1490.07 2216.81 1490.07 Q2220.45 1490.07 2222.25 1486.53 Q2224.08 1482.97 2224.08 1475.86 Q2224.08 1468.73 2222.25 1465.19 Q2220.45 1461.62 2216.81 1461.62 M2216.81 1457.92 Q2222.62 1457.92 2225.68 1462.53 Q2228.76 1467.11 2228.76 1475.86 Q2228.76 1484.59 2225.68 1489.19 Q2222.62 1493.78 2216.81 1493.78 Q2211 1493.78 2207.92 1489.19 Q2204.87 1484.59 2204.87 1475.86 Q2204.87 1467.11 2207.92 1462.53 Q2211 1457.92 2216.81 1457.92 Z" fill="#000000" fill-rule="evenodd" fill-opacity="1" /><path clip-path="url(#clip410)" d="M 0 0 M2238.46 1440.11 Q2235.53 1440.11 2234.04 1443.01 Q2232.57 1445.89 2232.57 1451.68 Q2232.57 1457.46 2234.04 1460.35 Q2235.53 1463.23 2238.46 1463.23 Q2241.41 1463.23 2242.88 1460.35 Q2244.37 1457.46 2244.37 1451.68 Q2244.37 1445.89 2242.88 1443.01 Q2241.41 1440.11 2238.46 1440.11 M2238.46 1437.11 Q2243.18 1437.11 2245.66 1440.85 Q2248.16 1444.57 2248.16 1451.68 Q2248.16 1458.77 2245.66 1462.51 Q2243.18 1466.24 2238.46 1466.24 Q2233.74 1466.24 2231.24 1462.51 Q2228.76 1458.77 2228.76 1451.68 Q2228.76 1444.57 2231.24 1440.85 Q2233.74 1437.11 2238.46 1437.11 Z" fill="#000000" fill-rule="evenodd" fill-opacity="1" /><path clip-path="url(#clip410)" d="M 0 0 M2252.28 1460.92 L2256.25 1460.92 L2256.25 1465.69 L2252.28 1465.69 L2252.28 1460.92 Z" fill="#000000" fill-rule="evenodd" fill-opacity="1" /><path clip-path="url(#clip410)" d="M 0 0 M2261.03 1462.5 L2267.24 1462.5 L2267.24 1441.07 L2260.48 1442.43 L2260.48 1438.97 L2267.2 1437.61 L2271 1437.61 L2271 1462.5 L2277.2 1462.5 L2277.2 1465.69 L2261.03 1465.69 L2261.03 1462.5 Z" fill="#000000" fill-rule="evenodd" fill-opacity="1" /><path clip-path="url(#clip410)" d="M 0 0 M1175.1 1526.54 L1181.31 1526.54 L1192.45 1556.46 L1203.59 1526.54 L1209.8 1526.54 L1196.43 1562.19 L1188.47 1562.19 L1175.1 1526.54 Z" fill="#000000" fill-rule="evenodd" fill-opacity="1" /><path clip-path="url(#clip410)" d="M 0 0 M1243.03 1573.01 L1243.03 1577.56 L1209.16 1577.56 L1209.16 1573.01 L1243.03 1573.01 Z" fill="#000000" fill-rule="evenodd" fill-opacity="1" /><path clip-path="url(#clip410)" d="M 0 0 M1274.82 1527.91 L1274.82 1533.38 Q1272.34 1532.01 1269.83 1531.34 Q1267.34 1530.64 1264.8 1530.64 Q1259.1 1530.64 1255.95 1534.27 Q1252.8 1537.87 1252.8 1544.39 Q1252.8 1550.92 1255.95 1554.55 Q1259.1 1558.14 1264.8 1558.14 Q1267.34 1558.14 1269.83 1557.47 Q1272.34 1556.77 1274.82 1555.41 L1274.82 1560.82 Q1272.37 1561.96 1269.73 1562.54 Q1267.12 1563.11 1264.16 1563.11 Q1256.11 1563.11 1251.36 1558.05 Q1246.62 1552.99 1246.62 1544.39 Q1246.62 1535.67 1251.4 1530.68 Q1256.2 1525.68 1264.54 1525.68 Q1267.25 1525.68 1269.83 1526.25 Q1272.4 1526.79 1274.82 1527.91 Z" fill="#000000" fill-rule="evenodd" fill-opacity="1" /><path clip-path="url(#clip410)" d="M 0 0 M1280.97 1512.66 L1286.82 1512.66 L1286.82 1562.19 L1280.97 1562.19 L1280.97 1512.66 Z" fill="#000000" fill-rule="evenodd" fill-opacity="1" /><path clip-path="url(#clip410)" d="M 0 0 M1306.78 1530.64 Q1302.07 1530.64 1299.33 1534.34 Q1296.59 1538 1296.59 1544.39 Q1296.59 1550.79 1299.3 1554.48 Q1302.04 1558.14 1306.78 1558.14 Q1311.46 1558.14 1314.19 1554.45 Q1316.93 1550.76 1316.93 1544.39 Q1316.93 1538.06 1314.19 1534.37 Q1311.46 1530.64 1306.78 1530.64 M1306.78 1525.68 Q1314.42 1525.68 1318.78 1530.64 Q1323.14 1535.61 1323.14 1544.39 Q1323.14 1553.15 1318.78 1558.14 Q1314.42 1563.11 1306.78 1563.11 Q1299.11 1563.11 1294.75 1558.14 Q1290.42 1553.15 1290.42 1544.39 Q1290.42 1535.61 1294.75 1530.64 Q1299.11 1525.68 1306.78 1525.68 Z" fill="#000000" fill-rule="evenodd" fill-opacity="1" /><path clip-path="url(#clip410)" d="M 0 0 M1352.01 1527.59 L1352.01 1533.13 Q1349.52 1531.85 1346.85 1531.22 Q1344.18 1530.58 1341.31 1530.58 Q1336.95 1530.58 1334.76 1531.92 Q1332.59 1533.25 1332.59 1535.93 Q1332.59 1537.96 1334.15 1539.14 Q1335.71 1540.29 1340.42 1541.34 L1342.43 1541.78 Q1348.66 1543.12 1351.27 1545.57 Q1353.92 1547.99 1353.92 1552.35 Q1353.92 1557.32 1349.97 1560.21 Q1346.05 1563.11 1339.18 1563.11 Q1336.32 1563.11 1333.2 1562.54 Q1330.11 1561.99 1326.67 1560.88 L1326.67 1554.83 Q1329.92 1556.52 1333.07 1557.38 Q1336.22 1558.21 1339.31 1558.21 Q1343.44 1558.21 1345.67 1556.81 Q1347.9 1555.37 1347.9 1552.8 Q1347.9 1550.41 1346.28 1549.14 Q1344.69 1547.86 1339.24 1546.68 L1337.21 1546.21 Q1331.76 1545.06 1329.34 1542.71 Q1326.93 1540.32 1326.93 1536.18 Q1326.93 1531.15 1330.49 1528.42 Q1334.06 1525.68 1340.61 1525.68 Q1343.86 1525.68 1346.72 1526.16 Q1349.59 1526.63 1352.01 1527.59 Z" fill="#000000" fill-rule="evenodd" fill-opacity="1" /><path clip-path="url(#clip410)" d="M 0 0 M1390.55 1542.9 L1390.55 1545.76 L1363.62 1545.76 Q1364.01 1551.81 1367.25 1554.99 Q1370.53 1558.14 1376.36 1558.14 Q1379.73 1558.14 1382.88 1557.32 Q1386.06 1556.49 1389.18 1554.83 L1389.18 1560.37 Q1386.03 1561.71 1382.72 1562.41 Q1379.41 1563.11 1376.01 1563.11 Q1367.48 1563.11 1362.48 1558.14 Q1357.51 1553.18 1357.51 1544.71 Q1357.51 1535.96 1362.22 1530.83 Q1366.97 1525.68 1374.99 1525.68 Q1382.18 1525.68 1386.35 1530.33 Q1390.55 1534.94 1390.55 1542.9 M1384.69 1541.18 Q1384.63 1536.37 1381.99 1533.51 Q1379.38 1530.64 1375.05 1530.64 Q1370.15 1530.64 1367.19 1533.41 Q1364.26 1536.18 1363.82 1541.21 L1384.69 1541.18 Z" fill="#000000" fill-rule="evenodd" fill-opacity="1" /><polyline clip-path="url(#clip412)" style="stroke:#000000; stroke-width:2; stroke-opacity:0.1; fill:none" points="
  212.899,1239.94 2352.76,1239.94 
  "/>
<polyline clip-path="url(#clip412)" style="stroke:#000000; stroke-width:2; stroke-opacity:0.1; fill:none" points="
  212.899,982.643 2352.76,982.643 
  "/>
<polyline clip-path="url(#clip412)" style="stroke:#000000; stroke-width:2; stroke-opacity:0.1; fill:none" points="
  212.899,725.35 2352.76,725.35 
  "/>
<polyline clip-path="url(#clip412)" style="stroke:#000000; stroke-width:2; stroke-opacity:0.1; fill:none" points="
  212.899,468.057 2352.76,468.057 
  "/>
<polyline clip-path="url(#clip412)" style="stroke:#000000; stroke-width:2; stroke-opacity:0.1; fill:none" points="
  212.899,210.764 2352.76,210.764 
  "/>
<polyline clip-path="url(#clip410)" style="stroke:#000000; stroke-width:4; stroke-opacity:1; fill:none" points="
  212.899,1410.9 212.899,47.2441 
  "/>
<polyline clip-path="url(#clip410)" style="stroke:#000000; stroke-width:4; stroke-opacity:1; fill:none" points="
  212.899,1239.94 238.577,1239.94 
  "/>
<polyline clip-path="url(#clip410)" style="stroke:#000000; stroke-width:4; stroke-opacity:1; fill:none" points="
  212.899,982.643 238.577,982.643 
  "/>
<polyline clip-path="url(#clip410)" style="stroke:#000000; stroke-width:4; stroke-opacity:1; fill:none" points="
  212.899,725.35 238.577,725.35 
  "/>
<polyline clip-path="url(#clip410)" style="stroke:#000000; stroke-width:4; stroke-opacity:1; fill:none" points="
  212.899,468.057 238.577,468.057 
  "/>
<polyline clip-path="url(#clip410)" style="stroke:#000000; stroke-width:4; stroke-opacity:1; fill:none" points="
  212.899,210.764 238.577,210.764 
  "/>
<path clip-path="url(#clip410)" d="M 0 0 M129.862 1226.73 L118.056 1245.18 L129.862 1245.18 L129.862 1226.73 M128.635 1222.66 L134.515 1222.66 L134.515 1245.18 L139.445 1245.18 L139.445 1249.07 L134.515 1249.07 L134.515 1257.22 L129.862 1257.22 L129.862 1249.07 L114.26 1249.07 L114.26 1244.55 L128.635 1222.66 Z" fill="#000000" fill-rule="evenodd" fill-opacity="1" /><path clip-path="url(#clip410)" d="M 0 0 M144.515 1251.34 L149.399 1251.34 L149.399 1257.22 L144.515 1257.22 L144.515 1251.34 Z" fill="#000000" fill-rule="evenodd" fill-opacity="1" /><path clip-path="url(#clip410)" d="M 0 0 M167.315 1226.73 L155.51 1245.18 L167.315 1245.18 L167.315 1226.73 M166.089 1222.66 L171.968 1222.66 L171.968 1245.18 L176.899 1245.18 L176.899 1249.07 L171.968 1249.07 L171.968 1257.22 L167.315 1257.22 L167.315 1249.07 L151.714 1249.07 L151.714 1244.55 L166.089 1222.66 Z" fill="#000000" fill-rule="evenodd" fill-opacity="1" /><path clip-path="url(#clip410)" d="M 0 0 M130.186 969.437 L118.381 987.886 L130.186 987.886 L130.186 969.437 M128.959 965.363 L134.839 965.363 L134.839 987.886 L139.769 987.886 L139.769 991.775 L134.839 991.775 L134.839 999.923 L130.186 999.923 L130.186 991.775 L114.584 991.775 L114.584 987.261 L128.959 965.363 Z" fill="#000000" fill-rule="evenodd" fill-opacity="1" /><path clip-path="url(#clip410)" d="M 0 0 M144.839 994.043 L149.723 994.043 L149.723 999.923 L144.839 999.923 L144.839 994.043 Z" fill="#000000" fill-rule="evenodd" fill-opacity="1" /><path clip-path="url(#clip410)" d="M 0 0 M165.371 980.78 Q162.223 980.78 160.371 982.932 Q158.542 985.085 158.542 988.835 Q158.542 992.562 160.371 994.738 Q162.223 996.891 165.371 996.891 Q168.519 996.891 170.348 994.738 Q172.2 992.562 172.2 988.835 Q172.2 985.085 170.348 982.932 Q168.519 980.78 165.371 980.78 M174.653 966.127 L174.653 970.386 Q172.894 969.553 171.089 969.113 Q169.306 968.673 167.547 968.673 Q162.917 968.673 160.464 971.798 Q158.033 974.923 157.686 981.243 Q159.052 979.229 161.112 978.164 Q163.172 977.076 165.649 977.076 Q170.857 977.076 173.866 980.247 Q176.899 983.395 176.899 988.835 Q176.899 994.159 173.751 997.377 Q170.602 1000.59 165.371 1000.59 Q159.376 1000.59 156.204 996.011 Q153.033 991.405 153.033 982.678 Q153.033 974.483 156.922 969.622 Q160.811 964.738 167.362 964.738 Q169.121 964.738 170.903 965.085 Q172.709 965.433 174.653 966.127 Z" fill="#000000" fill-rule="evenodd" fill-opacity="1" /><path clip-path="url(#clip410)" d="M 0 0 M130.441 712.144 L118.635 730.593 L130.441 730.593 L130.441 712.144 M129.214 708.07 L135.093 708.07 L135.093 730.593 L140.024 730.593 L140.024 734.482 L135.093 734.482 L135.093 742.63 L130.441 742.63 L130.441 734.482 L114.839 734.482 L114.839 729.968 L129.214 708.07 Z" fill="#000000" fill-rule="evenodd" fill-opacity="1" /><path clip-path="url(#clip410)" d="M 0 0 M145.093 736.751 L149.978 736.751 L149.978 742.63 L145.093 742.63 L145.093 736.751 Z" fill="#000000" fill-rule="evenodd" fill-opacity="1" /><path clip-path="url(#clip410)" d="M 0 0 M165.047 726.218 Q161.714 726.218 159.792 728.001 Q157.894 729.783 157.894 732.908 Q157.894 736.033 159.792 737.815 Q161.714 739.598 165.047 739.598 Q168.38 739.598 170.302 737.815 Q172.223 736.01 172.223 732.908 Q172.223 729.783 170.302 728.001 Q168.403 726.218 165.047 726.218 M160.371 724.227 Q157.362 723.487 155.672 721.427 Q154.005 719.366 154.005 716.403 Q154.005 712.26 156.945 709.853 Q159.908 707.445 165.047 707.445 Q170.209 707.445 173.149 709.853 Q176.089 712.26 176.089 716.403 Q176.089 719.366 174.399 721.427 Q172.732 723.487 169.746 724.227 Q173.126 725.014 175.001 727.306 Q176.899 729.598 176.899 732.908 Q176.899 737.931 173.82 740.616 Q170.764 743.301 165.047 743.301 Q159.329 743.301 156.251 740.616 Q153.195 737.931 153.195 732.908 Q153.195 729.598 155.093 727.306 Q156.991 725.014 160.371 724.227 M158.658 716.843 Q158.658 719.528 160.325 721.033 Q162.015 722.538 165.047 722.538 Q168.056 722.538 169.746 721.033 Q171.459 719.528 171.459 716.843 Q171.459 714.158 169.746 712.653 Q168.056 711.149 165.047 711.149 Q162.015 711.149 160.325 712.653 Q158.658 714.158 158.658 716.843 Z" fill="#000000" fill-rule="evenodd" fill-opacity="1" /><path clip-path="url(#clip410)" d="M 0 0 M119.029 450.777 L137.385 450.777 L137.385 454.712 L123.311 454.712 L123.311 463.185 Q124.33 462.837 125.348 462.675 Q126.367 462.49 127.385 462.49 Q133.172 462.49 136.552 465.661 Q139.931 468.833 139.931 474.249 Q139.931 479.828 136.459 482.93 Q132.987 486.008 126.667 486.008 Q124.492 486.008 122.223 485.638 Q119.978 485.268 117.57 484.527 L117.57 479.828 Q119.654 480.962 121.876 481.518 Q124.098 482.073 126.575 482.073 Q130.58 482.073 132.917 479.967 Q135.255 477.86 135.255 474.249 Q135.255 470.638 132.917 468.532 Q130.58 466.425 126.575 466.425 Q124.7 466.425 122.825 466.842 Q120.973 467.259 119.029 468.138 L119.029 450.777 Z" fill="#000000" fill-rule="evenodd" fill-opacity="1" /><path clip-path="url(#clip410)" d="M 0 0 M145.001 479.458 L149.885 479.458 L149.885 485.337 L145.001 485.337 L145.001 479.458 Z" fill="#000000" fill-rule="evenodd" fill-opacity="1" /><path clip-path="url(#clip410)" d="M 0 0 M164.954 453.856 Q161.343 453.856 159.515 457.421 Q157.709 460.962 157.709 468.092 Q157.709 475.198 159.515 478.763 Q161.343 482.305 164.954 482.305 Q168.589 482.305 170.394 478.763 Q172.223 475.198 172.223 468.092 Q172.223 460.962 170.394 457.421 Q168.589 453.856 164.954 453.856 M164.954 450.152 Q170.764 450.152 173.82 454.759 Q176.899 459.342 176.899 468.092 Q176.899 476.819 173.82 481.425 Q170.764 486.008 164.954 486.008 Q159.144 486.008 156.065 481.425 Q153.01 476.819 153.01 468.092 Q153.01 459.342 156.065 454.759 Q159.144 450.152 164.954 450.152 Z" fill="#000000" fill-rule="evenodd" fill-opacity="1" /><path clip-path="url(#clip410)" d="M 0 0 M120.626 193.484 L138.982 193.484 L138.982 197.419 L124.908 197.419 L124.908 205.892 Q125.927 205.544 126.945 205.382 Q127.964 205.197 128.982 205.197 Q134.769 205.197 138.149 208.368 Q141.529 211.54 141.529 216.956 Q141.529 222.535 138.056 225.637 Q134.584 228.716 128.265 228.716 Q126.089 228.716 123.82 228.345 Q121.575 227.975 119.168 227.234 L119.168 222.535 Q121.251 223.669 123.473 224.225 Q125.695 224.78 128.172 224.78 Q132.177 224.78 134.515 222.674 Q136.853 220.567 136.853 216.956 Q136.853 213.345 134.515 211.239 Q132.177 209.132 128.172 209.132 Q126.297 209.132 124.422 209.549 Q122.57 209.966 120.626 210.845 L120.626 193.484 Z" fill="#000000" fill-rule="evenodd" fill-opacity="1" /><path clip-path="url(#clip410)" d="M 0 0 M146.598 222.165 L151.482 222.165 L151.482 228.044 L146.598 228.044 L146.598 222.165 Z" fill="#000000" fill-rule="evenodd" fill-opacity="1" /><path clip-path="url(#clip410)" d="M 0 0 M160.579 224.109 L176.899 224.109 L176.899 228.044 L154.954 228.044 L154.954 224.109 Q157.616 221.354 162.2 216.725 Q166.806 212.072 167.987 210.73 Q170.232 208.206 171.112 206.47 Q172.014 204.711 172.014 203.021 Q172.014 200.267 170.07 198.531 Q168.149 196.794 165.047 196.794 Q162.848 196.794 160.394 197.558 Q157.964 198.322 155.186 199.873 L155.186 195.151 Q158.01 194.017 160.464 193.438 Q162.917 192.859 164.954 192.859 Q170.325 192.859 173.519 195.544 Q176.714 198.23 176.714 202.72 Q176.714 204.85 175.903 206.771 Q175.116 208.669 173.01 211.262 Q172.431 211.933 169.329 215.151 Q166.227 218.345 160.579 224.109 Z" fill="#000000" fill-rule="evenodd" fill-opacity="1" /><path clip-path="url(#clip410)" d="M 0 0 M59.1993 815.533 Q55.2526 813.336 53.3747 810.281 Q51.4968 807.225 51.4968 803.088 Q51.4968 797.518 55.4117 794.494 Q59.2948 791.47 66.4881 791.47 L88.0042 791.47 L88.0042 797.358 L66.679 797.358 Q61.5546 797.358 59.072 799.173 Q56.5894 800.987 56.5894 804.711 Q56.5894 809.262 59.6131 811.904 Q62.6368 814.546 67.8567 814.546 L88.0042 814.546 L88.0042 820.434 L66.679 820.434 Q61.5228 820.434 59.072 822.248 Q56.5894 824.063 56.5894 827.85 Q56.5894 832.338 59.6449 834.98 Q62.6686 837.622 67.8567 837.622 L88.0042 837.622 L88.0042 843.51 L52.3562 843.51 L52.3562 837.622 L57.8944 837.622 Q54.616 835.616 53.0564 832.815 Q51.4968 830.015 51.4968 826.163 Q51.4968 822.28 53.4702 819.575 Q55.4436 816.838 59.1993 815.533 Z" fill="#000000" fill-rule="evenodd" fill-opacity="1" /><path clip-path="url(#clip410)" d="M 0 0 M52.3562 785.327 L52.3562 779.471 L88.0042 779.471 L88.0042 785.327 L52.3562 785.327 M38.479 785.327 L38.479 779.471 L45.895 779.471 L45.895 785.327 L38.479 785.327 Z" fill="#000000" fill-rule="evenodd" fill-opacity="1" /><path clip-path="url(#clip410)" d="M 0 0 M66.4881 743.696 L88.0042 743.696 L88.0042 749.552 L66.679 749.552 Q61.6183 749.552 59.1038 751.525 Q56.5894 753.499 56.5894 757.446 Q56.5894 762.188 59.6131 764.925 Q62.6368 767.662 67.8567 767.662 L88.0042 767.662 L88.0042 773.551 L52.3562 773.551 L52.3562 767.662 L57.8944 767.662 Q54.6797 765.562 53.0883 762.729 Q51.4968 759.864 51.4968 756.141 Q51.4968 749.998 55.3163 746.847 Q59.1038 743.696 66.4881 743.696 Z" fill="#000000" fill-rule="evenodd" fill-opacity="1" /><path clip-path="url(#clip410)" d="M 0 0 M98.8259 710.467 L103.377 710.467 L103.377 744.332 L98.8259 744.332 L98.8259 710.467 Z" fill="#000000" fill-rule="evenodd" fill-opacity="1" /><path clip-path="url(#clip410)" d="M 0 0 M57.7671 680.866 L38.479 680.866 L38.479 675.01 L88.0042 675.01 L88.0042 680.866 L82.657 680.866 Q85.8398 682.712 87.3994 685.545 Q88.9272 688.346 88.9272 692.292 Q88.9272 698.754 83.771 702.828 Q78.6147 706.87 70.212 706.87 Q61.8093 706.87 56.6531 702.828 Q51.4968 698.754 51.4968 692.292 Q51.4968 688.346 53.0564 685.545 Q54.5842 682.712 57.7671 680.866 M70.212 700.823 Q76.6732 700.823 80.3653 698.181 Q84.0256 695.507 84.0256 690.86 Q84.0256 686.213 80.3653 683.54 Q76.6732 680.866 70.212 680.866 Q63.7508 680.866 60.0905 683.54 Q56.3984 686.213 56.3984 690.86 Q56.3984 695.507 60.0905 698.181 Q63.7508 700.823 70.212 700.823 Z" fill="#000000" fill-rule="evenodd" fill-opacity="1" /><path clip-path="url(#clip410)" d="M 0 0 M52.3562 668.867 L52.3562 663.01 L88.0042 663.01 L88.0042 668.867 L52.3562 668.867 M38.479 668.867 L38.479 663.01 L45.895 663.01 L45.895 668.867 L38.479 668.867 Z" fill="#000000" fill-rule="evenodd" fill-opacity="1" /><path clip-path="url(#clip410)" d="M 0 0 M38.479 638.821 L43.3487 638.821 L43.3487 644.422 Q43.3487 647.573 44.6219 648.815 Q45.895 650.024 49.2052 650.024 L52.3562 650.024 L52.3562 640.38 L56.9077 640.38 L56.9077 650.024 L88.0042 650.024 L88.0042 655.912 L56.9077 655.912 L56.9077 661.514 L52.3562 661.514 L52.3562 655.912 L49.8736 655.912 Q43.9216 655.912 41.2162 653.143 Q38.479 650.374 38.479 644.359 L38.479 638.821 Z" fill="#000000" fill-rule="evenodd" fill-opacity="1" /><path clip-path="url(#clip410)" d="M 0 0 M38.479 614.631 L43.3487 614.631 L43.3487 620.233 Q43.3487 623.384 44.6219 624.625 Q45.895 625.835 49.2052 625.835 L52.3562 625.835 L52.3562 616.19 L56.9077 616.19 L56.9077 625.835 L88.0042 625.835 L88.0042 631.723 L56.9077 631.723 L56.9077 637.325 L52.3562 637.325 L52.3562 631.723 L49.8736 631.723 Q43.9216 631.723 41.2162 628.954 Q38.479 626.185 38.479 620.169 L38.479 614.631 Z" fill="#000000" fill-rule="evenodd" fill-opacity="1" /><path clip-path="url(#clip410)" d="
M1992.65 213.659 L2281.43 213.659 L2281.43 92.6992 L1992.65 92.6992  Z
  " fill="#ffffff" fill-rule="evenodd" fill-opacity="1"/>
<polyline clip-path="url(#clip410)" style="stroke:#000000; stroke-width:4; stroke-opacity:1; fill:none" points="
  1992.65,213.659 2281.43,213.659 2281.43,92.6992 1992.65,92.6992 1992.65,213.659 
  "/>
<polyline clip-path="url(#clip410)" style="stroke:#009af9; stroke-width:4; stroke-opacity:1; fill:none" stroke-dasharray="16, 10" points="
  2016.42,153.179 2159.08,153.179 
  "/>
<path clip-path="url(#clip410)" d="M 0 0 M2196.7 172.867 Q2194.89 177.496 2193.18 178.908 Q2191.47 180.32 2188.6 180.32 L2185.19 180.32 L2185.19 176.755 L2187.69 176.755 Q2189.45 176.755 2190.43 175.922 Q2191.4 175.089 2192.58 171.987 L2193.34 170.043 L2182.86 144.533 L2187.37 144.533 L2195.47 164.811 L2203.57 144.533 L2208.09 144.533 L2196.7 172.867 Z" fill="#000000" fill-rule="evenodd" fill-opacity="1" /><path clip-path="url(#clip410)" d="M 0 0 M2213.97 166.524 L2221.61 166.524 L2221.61 140.158 L2213.3 141.825 L2213.3 137.566 L2221.56 135.899 L2226.24 135.899 L2226.24 166.524 L2233.87 166.524 L2233.87 170.459 L2213.97 170.459 L2213.97 166.524 Z" fill="#000000" fill-rule="evenodd" fill-opacity="1" /></svg>
