<?xml version="1.0" encoding="utf-8"?>
<svg xmlns="http://www.w3.org/2000/svg" xmlns:xlink="http://www.w3.org/1999/xlink" width="600" height="400" viewBox="0 0 2400 1600">
<defs>
  <clipPath id="clip250">
    <rect x="0" y="0" width="2400" height="1600"/>
  </clipPath>
</defs>
<path clip-path="url(#clip250)" d="
M0 1600 L2400 1600 L2400 0 L0 0  Z
  " fill="#ffffff" fill-rule="evenodd" fill-opacity="1"/>
<defs>
  <clipPath id="clip251">
    <rect x="480" y="0" width="1681" height="1600"/>
  </clipPath>
</defs>
<path clip-path="url(#clip250)" d="
M264.287 1410.9 L2352.76 1410.9 L2352.76 47.2441 L264.287 47.2441  Z
  " fill="#ffffff" fill-rule="evenodd" fill-opacity="1"/>
<defs>
  <clipPath id="clip252">
    <rect x="264" y="47" width="2089" height="1365"/>
  </clipPath>
</defs>
<polyline clip-path="url(#clip252)" style="stroke:#000000; stroke-linecap:butt; stroke-linejoin:round; stroke-width:2; stroke-opacity:0.1; fill:none" points="
  497.102,1410.9 497.102,47.2441 
  "/>
<polyline clip-path="url(#clip252)" style="stroke:#000000; stroke-linecap:butt; stroke-linejoin:round; stroke-width:2; stroke-opacity:0.1; fill:none" points="
  1618.5,1410.9 1618.5,47.2441 
  "/>
<polyline clip-path="url(#clip250)" style="stroke:#000000; stroke-linecap:butt; stroke-linejoin:round; stroke-width:4; stroke-opacity:1; fill:none" points="
  264.287,1410.9 2352.76,1410.9 
  "/>
<polyline clip-path="url(#clip250)" style="stroke:#000000; stroke-linecap:butt; stroke-linejoin:round; stroke-width:4; stroke-opacity:1; fill:none" points="
  497.102,1410.9 497.102,1392 
  "/>
<polyline clip-path="url(#clip250)" style="stroke:#000000; stroke-linecap:butt; stroke-linejoin:round; stroke-width:4; stroke-opacity:1; fill:none" points="
  1618.5,1410.9 1618.5,1392 
  "/>
<path clip-path="url(#clip250)" d="M462.084 1485.02 L469.723 1485.02 L469.723 1458.66 L461.413 1460.32 L461.413 1456.06 L469.677 1454.4 L474.353 1454.4 L474.353 1485.02 L481.992 1485.02 L481.992 1488.96 L462.084 1488.96 L462.084 1485.02 Z" fill="#000000" fill-rule="evenodd" fill-opacity="1" /><path clip-path="url(#clip250)" d="M501.436 1457.48 Q497.825 1457.48 495.996 1461.04 Q494.191 1464.58 494.191 1471.71 Q494.191 1478.82 495.996 1482.38 Q497.825 1485.92 501.436 1485.92 Q505.07 1485.92 506.876 1482.38 Q508.705 1478.82 508.705 1471.71 Q508.705 1464.58 506.876 1461.04 Q505.07 1457.48 501.436 1457.48 M501.436 1453.77 Q507.246 1453.77 510.302 1458.38 Q513.381 1462.96 513.381 1471.71 Q513.381 1480.44 510.302 1485.04 Q507.246 1489.63 501.436 1489.63 Q495.626 1489.63 492.547 1485.04 Q489.492 1480.44 489.492 1471.71 Q489.492 1462.96 492.547 1458.38 Q495.626 1453.77 501.436 1453.77 Z" fill="#000000" fill-rule="evenodd" fill-opacity="1" /><path clip-path="url(#clip250)" d="M523.085 1435.97 Q520.151 1435.97 518.665 1438.86 Q517.198 1441.74 517.198 1447.53 Q517.198 1453.31 518.665 1456.2 Q520.151 1459.08 523.085 1459.08 Q526.038 1459.08 527.505 1456.2 Q528.991 1453.31 528.991 1447.53 Q528.991 1441.74 527.505 1438.86 Q526.038 1435.97 523.085 1435.97 M523.085 1432.96 Q527.806 1432.96 530.289 1436.7 Q532.79 1440.43 532.79 1447.53 Q532.79 1454.62 530.289 1458.37 Q527.806 1462.09 523.085 1462.09 Q518.365 1462.09 515.863 1458.37 Q513.381 1454.62 513.381 1447.53 Q513.381 1440.43 515.863 1436.7 Q518.365 1432.96 523.085 1432.96 Z" fill="#000000" fill-rule="evenodd" fill-opacity="1" /><path clip-path="url(#clip250)" d="M1584.83 1485.02 L1592.47 1485.02 L1592.47 1458.66 L1584.16 1460.32 L1584.16 1456.06 L1592.42 1454.4 L1597.1 1454.4 L1597.1 1485.02 L1604.73 1485.02 L1604.73 1488.96 L1584.83 1488.96 L1584.83 1485.02 Z" fill="#000000" fill-rule="evenodd" fill-opacity="1" /><path clip-path="url(#clip250)" d="M1624.18 1457.48 Q1620.57 1457.48 1618.74 1461.04 Q1616.93 1464.58 1616.93 1471.71 Q1616.93 1478.82 1618.74 1482.38 Q1620.57 1485.92 1624.18 1485.92 Q1627.81 1485.92 1629.62 1482.38 Q1631.45 1478.82 1631.45 1471.71 Q1631.45 1464.58 1629.62 1461.04 Q1627.81 1457.48 1624.18 1457.48 M1624.18 1453.77 Q1629.99 1453.77 1633.04 1458.38 Q1636.12 1462.96 1636.12 1471.71 Q1636.12 1480.44 1633.04 1485.04 Q1629.99 1489.63 1624.18 1489.63 Q1618.37 1489.63 1615.29 1485.04 Q1612.23 1480.44 1612.23 1471.71 Q1612.23 1462.96 1615.29 1458.38 Q1618.37 1453.77 1624.18 1453.77 Z" fill="#000000" fill-rule="evenodd" fill-opacity="1" /><path clip-path="url(#clip250)" d="M1636.67 1458.35 L1642.88 1458.35 L1642.88 1436.93 L1636.12 1438.28 L1636.12 1434.82 L1642.84 1433.47 L1646.64 1433.47 L1646.64 1458.35 L1652.84 1458.35 L1652.84 1461.55 L1636.67 1461.55 L1636.67 1458.35 Z" fill="#000000" fill-rule="evenodd" fill-opacity="1" /><path clip-path="url(#clip250)" d="M1299 1571.99 L1299 1587.74 L1293.12 1587.74 L1293.12 1538.76 Q1293.12 1524.25 1306.68 1524.25 Q1320.49 1524.25 1320.49 1536.5 Q1320.49 1545.22 1315.01 1548.4 Q1323.93 1551.27 1323.93 1559.77 Q1323.93 1574.85 1308.59 1574.85 Q1301.84 1574.85 1299 1571.99 M1299 1564.35 Q1302.54 1569.86 1308.81 1569.86 Q1317.97 1569.86 1317.97 1559.86 Q1317.97 1550.89 1303.21 1551.59 L1303.21 1546.18 Q1314.76 1546.18 1314.76 1535.99 Q1314.76 1529.02 1307.31 1529.02 Q1299 1529.02 1299 1538.95 L1299 1564.35 Z" fill="#000000" fill-rule="evenodd" fill-opacity="1" /><polyline clip-path="url(#clip252)" style="stroke:#000000; stroke-linecap:butt; stroke-linejoin:round; stroke-width:2; stroke-opacity:0.1; fill:none" points="
  264.287,1373.53 2352.76,1373.53 
  "/>
<polyline clip-path="url(#clip252)" style="stroke:#000000; stroke-linecap:butt; stroke-linejoin:round; stroke-width:2; stroke-opacity:0.1; fill:none" points="
  264.287,1029 2352.76,1029 
  "/>
<polyline clip-path="url(#clip252)" style="stroke:#000000; stroke-linecap:butt; stroke-linejoin:round; stroke-width:2; stroke-opacity:0.1; fill:none" points="
  264.287,684.467 2352.76,684.467 
  "/>
<polyline clip-path="url(#clip252)" style="stroke:#000000; stroke-linecap:butt; stroke-linejoin:round; stroke-width:2; stroke-opacity:0.1; fill:none" points="
  264.287,339.934 2352.76,339.934 
  "/>
<polyline clip-path="url(#clip250)" style="stroke:#000000; stroke-linecap:butt; stroke-linejoin:round; stroke-width:4; stroke-opacity:1; fill:none" points="
  264.287,1410.9 264.287,47.2441 
  "/>
<polyline clip-path="url(#clip250)" style="stroke:#000000; stroke-linecap:butt; stroke-linejoin:round; stroke-width:4; stroke-opacity:1; fill:none" points="
  264.287,1373.53 283.185,1373.53 
  "/>
<polyline clip-path="url(#clip250)" style="stroke:#000000; stroke-linecap:butt; stroke-linejoin:round; stroke-width:4; stroke-opacity:1; fill:none" points="
  264.287,1029 283.185,1029 
  "/>
<polyline clip-path="url(#clip250)" style="stroke:#000000; stroke-linecap:butt; stroke-linejoin:round; stroke-width:4; stroke-opacity:1; fill:none" points="
  264.287,684.467 283.185,684.467 
  "/>
<polyline clip-path="url(#clip250)" style="stroke:#000000; stroke-linecap:butt; stroke-linejoin:round; stroke-width:4; stroke-opacity:1; fill:none" points="
  264.287,339.934 283.185,339.934 
  "/>
<path clip-path="url(#clip250)" d="M216.343 1359.33 Q212.732 1359.33 210.903 1362.9 Q209.098 1366.44 209.098 1373.57 Q209.098 1380.68 210.903 1384.24 Q212.732 1387.78 216.343 1387.78 Q219.977 1387.78 221.783 1384.24 Q223.611 1380.68 223.611 1373.57 Q223.611 1366.44 221.783 1362.9 Q219.977 1359.33 216.343 1359.33 M216.343 1355.63 Q222.153 1355.63 225.209 1360.24 Q228.287 1364.82 228.287 1373.57 Q228.287 1382.3 225.209 1386.9 Q222.153 1391.49 216.343 1391.49 Q210.533 1391.49 207.454 1386.9 Q204.399 1382.3 204.399 1373.57 Q204.399 1364.82 207.454 1360.24 Q210.533 1355.63 216.343 1355.63 Z" fill="#000000" fill-rule="evenodd" fill-opacity="1" /><path clip-path="url(#clip250)" d="M116.668 1042.35 L124.306 1042.35 L124.306 1015.98 L115.996 1017.65 L115.996 1013.39 L124.26 1011.72 L128.936 1011.72 L128.936 1042.35 L136.575 1042.35 L136.575 1046.28 L116.668 1046.28 L116.668 1042.35 Z" fill="#000000" fill-rule="evenodd" fill-opacity="1" /><path clip-path="url(#clip250)" d="M156.019 1014.8 Q152.408 1014.8 150.579 1018.36 Q148.774 1021.91 148.774 1029.04 Q148.774 1036.14 150.579 1039.71 Q152.408 1043.25 156.019 1043.25 Q159.653 1043.25 161.459 1039.71 Q163.288 1036.14 163.288 1029.04 Q163.288 1021.91 161.459 1018.36 Q159.653 1014.8 156.019 1014.8 M156.019 1011.1 Q161.829 1011.1 164.885 1015.7 Q167.964 1020.29 167.964 1029.04 Q167.964 1037.76 164.885 1042.37 Q161.829 1046.95 156.019 1046.95 Q150.209 1046.95 147.13 1042.37 Q144.075 1037.76 144.075 1029.04 Q144.075 1020.29 147.13 1015.7 Q150.209 1011.1 156.019 1011.1 Z" fill="#000000" fill-rule="evenodd" fill-opacity="1" /><path clip-path="url(#clip250)" d="M186.181 1014.8 Q182.57 1014.8 180.741 1018.36 Q178.936 1021.91 178.936 1029.04 Q178.936 1036.14 180.741 1039.71 Q182.57 1043.25 186.181 1043.25 Q189.815 1043.25 191.621 1039.71 Q193.45 1036.14 193.45 1029.04 Q193.45 1021.91 191.621 1018.36 Q189.815 1014.8 186.181 1014.8 M186.181 1011.1 Q191.991 1011.1 195.047 1015.7 Q198.125 1020.29 198.125 1029.04 Q198.125 1037.76 195.047 1042.37 Q191.991 1046.95 186.181 1046.95 Q180.371 1046.95 177.292 1042.37 Q174.237 1037.76 174.237 1029.04 Q174.237 1020.29 177.292 1015.7 Q180.371 1011.1 186.181 1011.1 Z" fill="#000000" fill-rule="evenodd" fill-opacity="1" /><path clip-path="url(#clip250)" d="M216.343 1014.8 Q212.732 1014.8 210.903 1018.36 Q209.098 1021.91 209.098 1029.04 Q209.098 1036.14 210.903 1039.71 Q212.732 1043.25 216.343 1043.25 Q219.977 1043.25 221.783 1039.71 Q223.611 1036.14 223.611 1029.04 Q223.611 1021.91 221.783 1018.36 Q219.977 1014.8 216.343 1014.8 M216.343 1011.1 Q222.153 1011.1 225.209 1015.7 Q228.287 1020.29 228.287 1029.04 Q228.287 1037.76 225.209 1042.37 Q222.153 1046.95 216.343 1046.95 Q210.533 1046.95 207.454 1042.37 Q204.399 1037.76 204.399 1029.04 Q204.399 1020.29 207.454 1015.7 Q210.533 1011.1 216.343 1011.1 Z" fill="#000000" fill-rule="evenodd" fill-opacity="1" /><path clip-path="url(#clip250)" d="M119.885 697.812 L136.204 697.812 L136.204 701.747 L114.26 701.747 L114.26 697.812 Q116.922 695.058 121.505 690.428 Q126.112 685.775 127.292 684.433 Q129.538 681.909 130.417 680.173 Q131.32 678.414 131.32 676.724 Q131.32 673.97 129.376 672.234 Q127.455 670.497 124.353 670.497 Q122.154 670.497 119.7 671.261 Q117.269 672.025 114.492 673.576 L114.492 668.854 Q117.316 667.72 119.769 667.141 Q122.223 666.562 124.26 666.562 Q129.63 666.562 132.825 669.247 Q136.019 671.933 136.019 676.423 Q136.019 678.553 135.209 680.474 Q134.422 682.372 132.316 684.965 Q131.737 685.636 128.635 688.854 Q125.533 692.048 119.885 697.812 Z" fill="#000000" fill-rule="evenodd" fill-opacity="1" /><path clip-path="url(#clip250)" d="M156.019 670.266 Q152.408 670.266 150.579 673.831 Q148.774 677.372 148.774 684.502 Q148.774 691.608 150.579 695.173 Q152.408 698.715 156.019 698.715 Q159.653 698.715 161.459 695.173 Q163.288 691.608 163.288 684.502 Q163.288 677.372 161.459 673.831 Q159.653 670.266 156.019 670.266 M156.019 666.562 Q161.829 666.562 164.885 671.169 Q167.964 675.752 167.964 684.502 Q167.964 693.229 164.885 697.835 Q161.829 702.419 156.019 702.419 Q150.209 702.419 147.13 697.835 Q144.075 693.229 144.075 684.502 Q144.075 675.752 147.13 671.169 Q150.209 666.562 156.019 666.562 Z" fill="#000000" fill-rule="evenodd" fill-opacity="1" /><path clip-path="url(#clip250)" d="M186.181 670.266 Q182.57 670.266 180.741 673.831 Q178.936 677.372 178.936 684.502 Q178.936 691.608 180.741 695.173 Q182.57 698.715 186.181 698.715 Q189.815 698.715 191.621 695.173 Q193.45 691.608 193.45 684.502 Q193.45 677.372 191.621 673.831 Q189.815 670.266 186.181 670.266 M186.181 666.562 Q191.991 666.562 195.047 671.169 Q198.125 675.752 198.125 684.502 Q198.125 693.229 195.047 697.835 Q191.991 702.419 186.181 702.419 Q180.371 702.419 177.292 697.835 Q174.237 693.229 174.237 684.502 Q174.237 675.752 177.292 671.169 Q180.371 666.562 186.181 666.562 Z" fill="#000000" fill-rule="evenodd" fill-opacity="1" /><path clip-path="url(#clip250)" d="M216.343 670.266 Q212.732 670.266 210.903 673.831 Q209.098 677.372 209.098 684.502 Q209.098 691.608 210.903 695.173 Q212.732 698.715 216.343 698.715 Q219.977 698.715 221.783 695.173 Q223.611 691.608 223.611 684.502 Q223.611 677.372 221.783 673.831 Q219.977 670.266 216.343 670.266 M216.343 666.562 Q222.153 666.562 225.209 671.169 Q228.287 675.752 228.287 684.502 Q228.287 693.229 225.209 697.835 Q222.153 702.419 216.343 702.419 Q210.533 702.419 207.454 697.835 Q204.399 693.229 204.399 684.502 Q204.399 675.752 207.454 671.169 Q210.533 666.562 216.343 666.562 Z" fill="#000000" fill-rule="evenodd" fill-opacity="1" /><path clip-path="url(#clip250)" d="M130.024 338.579 Q133.38 339.297 135.255 341.565 Q137.154 343.834 137.154 347.167 Q137.154 352.283 133.635 355.084 Q130.117 357.885 123.635 357.885 Q121.459 357.885 119.144 357.445 Q116.853 357.028 114.399 356.172 L114.399 351.658 Q116.343 352.792 118.658 353.371 Q120.973 353.95 123.496 353.95 Q127.894 353.95 130.186 352.214 Q132.501 350.477 132.501 347.167 Q132.501 344.112 130.348 342.399 Q128.218 340.663 124.399 340.663 L120.371 340.663 L120.371 336.82 L124.584 336.82 Q128.033 336.82 129.862 335.454 Q131.691 334.066 131.691 331.473 Q131.691 328.811 129.792 327.399 Q127.917 325.964 124.399 325.964 Q122.478 325.964 120.279 326.38 Q118.08 326.797 115.441 327.677 L115.441 323.51 Q118.103 322.769 120.418 322.399 Q122.755 322.029 124.816 322.029 Q130.14 322.029 133.242 324.459 Q136.343 326.866 136.343 330.987 Q136.343 333.857 134.7 335.848 Q133.056 337.815 130.024 338.579 Z" fill="#000000" fill-rule="evenodd" fill-opacity="1" /><path clip-path="url(#clip250)" d="M156.019 325.732 Q152.408 325.732 150.579 329.297 Q148.774 332.839 148.774 339.968 Q148.774 347.075 150.579 350.639 Q152.408 354.181 156.019 354.181 Q159.653 354.181 161.459 350.639 Q163.288 347.075 163.288 339.968 Q163.288 332.839 161.459 329.297 Q159.653 325.732 156.019 325.732 M156.019 322.029 Q161.829 322.029 164.885 326.635 Q167.964 331.218 167.964 339.968 Q167.964 348.695 164.885 353.302 Q161.829 357.885 156.019 357.885 Q150.209 357.885 147.13 353.302 Q144.075 348.695 144.075 339.968 Q144.075 331.218 147.13 326.635 Q150.209 322.029 156.019 322.029 Z" fill="#000000" fill-rule="evenodd" fill-opacity="1" /><path clip-path="url(#clip250)" d="M186.181 325.732 Q182.57 325.732 180.741 329.297 Q178.936 332.839 178.936 339.968 Q178.936 347.075 180.741 350.639 Q182.57 354.181 186.181 354.181 Q189.815 354.181 191.621 350.639 Q193.45 347.075 193.45 339.968 Q193.45 332.839 191.621 329.297 Q189.815 325.732 186.181 325.732 M186.181 322.029 Q191.991 322.029 195.047 326.635 Q198.125 331.218 198.125 339.968 Q198.125 348.695 195.047 353.302 Q191.991 357.885 186.181 357.885 Q180.371 357.885 177.292 353.302 Q174.237 348.695 174.237 339.968 Q174.237 331.218 177.292 326.635 Q180.371 322.029 186.181 322.029 Z" fill="#000000" fill-rule="evenodd" fill-opacity="1" /><path clip-path="url(#clip250)" d="M216.343 325.732 Q212.732 325.732 210.903 329.297 Q209.098 332.839 209.098 339.968 Q209.098 347.075 210.903 350.639 Q212.732 354.181 216.343 354.181 Q219.977 354.181 221.783 350.639 Q223.611 347.075 223.611 339.968 Q223.611 332.839 221.783 329.297 Q219.977 325.732 216.343 325.732 M216.343 322.029 Q222.153 322.029 225.209 326.635 Q228.287 331.218 228.287 339.968 Q228.287 348.695 225.209 353.302 Q222.153 357.885 216.343 357.885 Q210.533 357.885 207.454 353.302 Q204.399 348.695 204.399 339.968 Q204.399 331.218 207.454 326.635 Q210.533 322.029 216.343 322.029 Z" fill="#000000" fill-rule="evenodd" fill-opacity="1" /><path clip-path="url(#clip250)" d="M35.1993 829.203 Q31.2526 827.007 29.3747 823.951 Q27.4968 820.896 27.4968 816.758 Q27.4968 811.188 31.4117 808.164 Q35.2948 805.141 42.4881 805.141 L64.0042 805.141 L64.0042 811.029 L42.679 811.029 Q37.5546 811.029 35.072 812.843 Q32.5894 814.657 32.5894 818.381 Q32.5894 822.933 35.6131 825.574 Q38.6368 828.216 43.8567 828.216 L64.0042 828.216 L64.0042 834.105 L42.679 834.105 Q37.5228 834.105 35.072 835.919 Q32.5894 837.733 32.5894 841.521 Q32.5894 846.008 35.6449 848.65 Q38.6686 851.292 43.8567 851.292 L64.0042 851.292 L64.0042 857.18 L28.3562 857.18 L28.3562 851.292 L33.8944 851.292 Q30.616 849.287 29.0564 846.486 Q27.4968 843.685 27.4968 839.834 Q27.4968 835.951 29.4702 833.245 Q31.4436 830.508 35.1993 829.203 Z" fill="#000000" fill-rule="evenodd" fill-opacity="1" /><path clip-path="url(#clip250)" d="M28.3562 793.459 L28.3562 787.603 L64.0042 787.603 L64.0042 793.459 L28.3562 793.459 M14.479 793.459 L14.479 787.603 L21.895 787.603 L21.895 793.459 L14.479 793.459 Z" fill="#000000" fill-rule="evenodd" fill-opacity="1" /><path clip-path="url(#clip250)" d="M42.4881 745.717 L64.0042 745.717 L64.0042 751.573 L42.679 751.573 Q37.6183 751.573 35.1038 753.547 Q32.5894 755.52 32.5894 759.467 Q32.5894 764.209 35.6131 766.946 Q38.6368 769.684 43.8567 769.684 L64.0042 769.684 L64.0042 775.572 L28.3562 775.572 L28.3562 769.684 L33.8944 769.684 Q30.6797 767.583 29.0883 764.75 Q27.4968 761.886 27.4968 758.162 Q27.4968 752.019 31.3163 748.868 Q35.1038 745.717 42.4881 745.717 Z" fill="#000000" fill-rule="evenodd" fill-opacity="1" /><path clip-path="url(#clip250)" d="M74.8259 706.95 L79.3773 706.95 L79.3773 740.815 L74.8259 740.815 L74.8259 706.95 Z" fill="#000000" fill-rule="evenodd" fill-opacity="1" /><path clip-path="url(#clip250)" d="M33.7671 677.986 L14.479 677.986 L14.479 672.129 L64.0042 672.129 L64.0042 677.986 L58.657 677.986 Q61.8398 679.832 63.3994 682.664 Q64.9272 685.465 64.9272 689.412 Q64.9272 695.873 59.771 699.947 Q54.6147 703.989 46.212 703.989 Q37.8093 703.989 32.6531 699.947 Q27.4968 695.873 27.4968 689.412 Q27.4968 685.465 29.0564 682.664 Q30.5842 679.832 33.7671 677.986 M46.212 697.942 Q52.6732 697.942 56.3653 695.3 Q60.0256 692.627 60.0256 687.98 Q60.0256 683.333 56.3653 680.659 Q52.6732 677.986 46.212 677.986 Q39.7508 677.986 36.0905 680.659 Q32.3984 683.333 32.3984 687.98 Q32.3984 692.627 36.0905 695.3 Q39.7508 697.942 46.212 697.942 Z" fill="#000000" fill-rule="evenodd" fill-opacity="1" /><path clip-path="url(#clip250)" d="M28.3562 660.066 L28.3562 654.21 L64.0042 654.21 L64.0042 660.066 L28.3562 660.066 M14.479 660.066 L14.479 654.21 L21.895 654.21 L21.895 660.066 L14.479 660.066 Z" fill="#000000" fill-rule="evenodd" fill-opacity="1" /><path clip-path="url(#clip250)" d="M14.479 623.909 L19.3487 623.909 L19.3487 629.511 Q19.3487 632.662 20.6219 633.903 Q21.895 635.113 25.2052 635.113 L28.3562 635.113 L28.3562 625.468 L32.9077 625.468 L32.9077 635.113 L64.0042 635.113 L64.0042 641.001 L32.9077 641.001 L32.9077 646.603 L28.3562 646.603 L28.3562 641.001 L25.8736 641.001 Q19.9216 641.001 17.2162 638.232 Q14.479 635.463 14.479 629.447 L14.479 623.909 Z" fill="#000000" fill-rule="evenodd" fill-opacity="1" /><path clip-path="url(#clip250)" d="M14.479 600.961 L19.3487 600.961 L19.3487 606.562 Q19.3487 609.713 20.6219 610.955 Q21.895 612.164 25.2052 612.164 L28.3562 612.164 L28.3562 602.52 L32.9077 602.52 L32.9077 612.164 L64.0042 612.164 L64.0042 618.052 L32.9077 618.052 L32.9077 623.654 L28.3562 623.654 L28.3562 618.052 L25.8736 618.052 Q19.9216 618.052 17.2162 615.283 Q14.479 612.514 14.479 606.499 L14.479 600.961 Z" fill="#000000" fill-rule="evenodd" fill-opacity="1" /><polyline clip-path="url(#clip252)" style="stroke:#009af9; stroke-linecap:butt; stroke-linejoin:round; stroke-width:20; stroke-opacity:1; fill:none" stroke-dasharray="80, 50" points="
  323.395,1291.94 388.427,1299.49 445.789,1306.81 497.102,1313.68 543.519,1320.09 585.895,1326.09 624.877,1332.19 660.969,1350.31 694.57,1343.5 726.001,1358.27 
  755.527,1352.93 783.364,1364.21 809.695,1360.06 834.676,1368.28 858.438,1371.82 881.094,1370.7 923.47,1372.3 962.452,1371.62 980.832,1372.06 998.544,1371.54 
  1032.14,1371.35 1063.58,1370.92 1078.56,1369.1 1093.1,1369.74 1107.22,1359.09 1120.94,1367.84 1147.27,1365.23 1159.92,1360.24 1172.25,1361.94 1196.01,1353.76 
  1218.67,1343.31 1229.61,1346 1261.04,1337.04 1271.09,1308.81 1280.93,1317.88 1290.57,1326.92 1300.03,1317.04 1318.41,1315.7 1327.34,1298.88 1336.12,1301.26 
  1344.74,1303.45 1369.72,1290.2 1393.48,1252.13 1401.15,1264.93 1408.7,1254.25 1416.14,1243.75 1430.68,1244.67 1444.79,1228.98 1458.51,1223.24 1478.39,1201.95 
  1484.84,1200.62 1491.21,1182.31 1497.49,1180.94 1509.82,1176.91 1515.87,1153.22 1533.59,1148.47 1539.35,1143.2 1556.24,1126.63 1567.19,1111.93 1572.57,1121.57 
  1593.52,1079.06 1598.62,1094.31 1608.66,1095.99 1613.6,1073.52 1618.5,1060.71 1628.14,1032.44 1637.6,1063.64 1642.26,1071.7 1655.98,1037.15 1664.92,1017.94 
  1673.69,1048.67 1682.31,949.602 1694.96,1002.83 1703.22,1026.85 1707.29,1007.19 1711.33,960.408 1731.05,1006.18 1738.72,981.3 1746.28,939.817 1753.71,916.365 
  1757.39,986.596 1764.66,940.068 1768.25,956.852 1782.37,968.033 1792.69,876.029 1796.09,933.765 1815.97,871.018 1822.42,911.951 1825.61,884.481 1828.78,838.623 
  1835.07,816.204 1847.4,891.325 1853.45,859.097 1862.39,803.714 1871.16,776.62 1874.05,756.775 1876.92,810.454 1879.78,835.17 1893.82,771.109 1904.76,812.596 
  1910.14,715.214 1923.34,740.621 1931.09,756.985 1936.19,705.486 1943.74,676.654 1946.23,654.632 1951.18,712.076 1956.07,732.581 1965.72,673.485 1975.18,640.824 
  1977.51,685.313 1979.84,614.516 1993.56,643.59 2002.49,660.185 2004.7,607.475 2011.27,577.323 2013.44,553.53 2019.89,615.615 2032.54,576.381 2040.79,542.775 
  2044.87,589.397 2058.87,547.336 2068.63,510.621 2074.39,479.514 2076.3,454.323 2083.85,520.159 2094.96,480.635 2102.23,446.425 2105.82,417.776 2119.94,452.618 
  2128.56,415.615 2133.66,383.868 2135.35,357.613 2153.54,386.866 2159.99,352.339 2163.19,322.99 2184.97,322.955 2189.52,290.837 2191.02,263.809 2214.5,260.907 
  2217.36,231.117 2242.34,200.719 2243.69,173.168 2268.67,142.373 2293.65,85.838 
  "/>
<path clip-path="url(#clip250)" d="
M1998.66 196.379 L2283.14 196.379 L2283.14 92.6992 L1998.66 92.6992  Z
  " fill="#ffffff" fill-rule="evenodd" fill-opacity="1"/>
<polyline clip-path="url(#clip250)" style="stroke:#000000; stroke-linecap:butt; stroke-linejoin:round; stroke-width:4; stroke-opacity:1; fill:none" points="
  1998.66,196.379 2283.14,196.379 2283.14,92.6992 1998.66,92.6992 1998.66,196.379 
  "/>
<polyline clip-path="url(#clip250)" style="stroke:#009af9; stroke-linecap:butt; stroke-linejoin:round; stroke-width:4; stroke-opacity:1; fill:none" stroke-dasharray="16, 10" points="
  2021.86,144.539 2161.09,144.539 
  "/>
<path clip-path="url(#clip250)" d="M2198.14 164.227 Q2196.34 168.856 2194.62 170.268 Q2192.91 171.68 2190.04 171.68 L2186.64 171.68 L2186.64 168.115 L2189.14 168.115 Q2190.9 168.115 2191.87 167.282 Q2192.84 166.449 2194.02 163.347 L2194.79 161.403 L2184.3 135.893 L2188.81 135.893 L2196.92 156.171 L2205.02 135.893 L2209.53 135.893 L2198.14 164.227 Z" fill="#000000" fill-rule="evenodd" fill-opacity="1" /><path clip-path="url(#clip250)" d="M2216.82 157.884 L2224.46 157.884 L2224.46 131.518 L2216.15 133.185 L2216.15 128.926 L2224.42 127.259 L2229.09 127.259 L2229.09 157.884 L2236.73 157.884 L2236.73 161.819 L2216.82 161.819 L2216.82 157.884 Z" fill="#000000" fill-rule="evenodd" fill-opacity="1" /></svg>
