<?xml version="1.0" encoding="utf-8"?>
<svg xmlns="http://www.w3.org/2000/svg" xmlns:xlink="http://www.w3.org/1999/xlink" width="600" height="400" viewBox="0 0 2400 1600">
<defs>
  <clipPath id="clip640">
    <rect x="0" y="0" width="2400" height="1600"/>
  </clipPath>
</defs>
<path clip-path="url(#clip640)" d="
M0 1600 L2400 1600 L2400 0 L0 0  Z
  " fill="#ffffff" fill-rule="evenodd" fill-opacity="1"/>
<defs>
  <clipPath id="clip641">
    <rect x="480" y="0" width="1681" height="1600"/>
  </clipPath>
</defs>
<path clip-path="url(#clip640)" d="
M235.283 1410.9 L2352.76 1410.9 L2352.76 47.2441 L235.283 47.2441  Z
  " fill="#ffffff" fill-rule="evenodd" fill-opacity="1"/>
<defs>
  <clipPath id="clip642">
    <rect x="235" y="47" width="2118" height="1365"/>
  </clipPath>
</defs>
<polyline clip-path="url(#clip642)" style="stroke:#000000; stroke-linecap:butt; stroke-linejoin:round; stroke-width:2; stroke-opacity:0.1; fill:none" points="
  757.416,1410.9 757.416,47.2441 
  "/>
<polyline clip-path="url(#clip642)" style="stroke:#000000; stroke-linecap:butt; stroke-linejoin:round; stroke-width:2; stroke-opacity:0.1; fill:none" points="
  1525.12,1410.9 1525.12,47.2441 
  "/>
<polyline clip-path="url(#clip642)" style="stroke:#000000; stroke-linecap:butt; stroke-linejoin:round; stroke-width:2; stroke-opacity:0.1; fill:none" points="
  2292.83,1410.9 2292.83,47.2441 
  "/>
<polyline clip-path="url(#clip640)" style="stroke:#000000; stroke-linecap:butt; stroke-linejoin:round; stroke-width:4; stroke-opacity:1; fill:none" points="
  235.283,1410.9 2352.76,1410.9 
  "/>
<polyline clip-path="url(#clip640)" style="stroke:#000000; stroke-linecap:butt; stroke-linejoin:round; stroke-width:4; stroke-opacity:1; fill:none" points="
  757.416,1410.9 757.416,1392 
  "/>
<polyline clip-path="url(#clip640)" style="stroke:#000000; stroke-linecap:butt; stroke-linejoin:round; stroke-width:4; stroke-opacity:1; fill:none" points="
  1525.12,1410.9 1525.12,1392 
  "/>
<polyline clip-path="url(#clip640)" style="stroke:#000000; stroke-linecap:butt; stroke-linejoin:round; stroke-width:4; stroke-opacity:1; fill:none" points="
  2292.83,1410.9 2292.83,1392 
  "/>
<path clip-path="url(#clip640)" d="M704.024 1485.02 L711.663 1485.02 L711.663 1458.66 L703.353 1460.32 L703.353 1456.06 L711.616 1454.4 L716.292 1454.4 L716.292 1485.02 L723.931 1485.02 L723.931 1488.96 L704.024 1488.96 L704.024 1485.02 Z" fill="#000000" fill-rule="evenodd" fill-opacity="1" /><path clip-path="url(#clip640)" d="M743.375 1457.48 Q739.764 1457.48 737.936 1461.04 Q736.13 1464.58 736.13 1471.71 Q736.13 1478.82 737.936 1482.38 Q739.764 1485.92 743.375 1485.92 Q747.01 1485.92 748.815 1482.38 Q750.644 1478.82 750.644 1471.71 Q750.644 1464.58 748.815 1461.04 Q747.01 1457.48 743.375 1457.48 M743.375 1453.77 Q749.186 1453.77 752.241 1458.38 Q755.32 1462.96 755.32 1471.71 Q755.32 1480.44 752.241 1485.04 Q749.186 1489.63 743.375 1489.63 Q737.565 1489.63 734.487 1485.04 Q731.431 1480.44 731.431 1471.71 Q731.431 1462.96 734.487 1458.38 Q737.565 1453.77 743.375 1453.77 Z" fill="#000000" fill-rule="evenodd" fill-opacity="1" /><path clip-path="url(#clip640)" d="M765.025 1435.97 Q762.091 1435.97 760.605 1438.86 Q759.138 1441.74 759.138 1447.53 Q759.138 1453.31 760.605 1456.2 Q762.091 1459.08 765.025 1459.08 Q767.977 1459.08 769.444 1456.2 Q770.93 1453.31 770.93 1447.53 Q770.93 1441.74 769.444 1438.86 Q767.977 1435.97 765.025 1435.97 M765.025 1432.96 Q769.745 1432.96 772.228 1436.7 Q774.729 1440.43 774.729 1447.53 Q774.729 1454.62 772.228 1458.37 Q769.745 1462.09 765.025 1462.09 Q760.304 1462.09 757.802 1458.37 Q755.32 1454.62 755.32 1447.53 Q755.32 1440.43 757.802 1436.7 Q760.304 1432.96 765.025 1432.96 Z" fill="#000000" fill-rule="evenodd" fill-opacity="1" /><path clip-path="url(#clip640)" d="M781.406 1456.77 L785.375 1456.77 L785.375 1461.55 L781.406 1461.55 L781.406 1456.77 Z" fill="#000000" fill-rule="evenodd" fill-opacity="1" /><path clip-path="url(#clip640)" d="M801.775 1435.97 Q798.841 1435.97 797.355 1438.86 Q795.888 1441.74 795.888 1447.53 Q795.888 1453.31 797.355 1456.2 Q798.841 1459.08 801.775 1459.08 Q804.728 1459.08 806.195 1456.2 Q807.681 1453.31 807.681 1447.53 Q807.681 1441.74 806.195 1438.86 Q804.728 1435.97 801.775 1435.97 M801.775 1432.96 Q806.496 1432.96 808.978 1436.7 Q811.48 1440.43 811.48 1447.53 Q811.48 1454.62 808.978 1458.37 Q806.496 1462.09 801.775 1462.09 Q797.054 1462.09 794.553 1458.37 Q792.07 1454.62 792.07 1447.53 Q792.07 1440.43 794.553 1436.7 Q797.054 1432.96 801.775 1432.96 Z" fill="#000000" fill-rule="evenodd" fill-opacity="1" /><path clip-path="url(#clip640)" d="M1472.13 1485.02 L1479.77 1485.02 L1479.77 1458.66 L1471.46 1460.32 L1471.46 1456.06 L1479.73 1454.4 L1484.4 1454.4 L1484.4 1485.02 L1492.04 1485.02 L1492.04 1488.96 L1472.13 1488.96 L1472.13 1485.02 Z" fill="#000000" fill-rule="evenodd" fill-opacity="1" /><path clip-path="url(#clip640)" d="M1511.49 1457.48 Q1507.87 1457.48 1506.05 1461.04 Q1504.24 1464.58 1504.24 1471.71 Q1504.24 1478.82 1506.05 1482.38 Q1507.87 1485.92 1511.49 1485.92 Q1515.12 1485.92 1516.93 1482.38 Q1518.75 1478.82 1518.75 1471.71 Q1518.75 1464.58 1516.93 1461.04 Q1515.12 1457.48 1511.49 1457.48 M1511.49 1453.77 Q1517.3 1453.77 1520.35 1458.38 Q1523.43 1462.96 1523.43 1471.71 Q1523.43 1480.44 1520.35 1485.04 Q1517.3 1489.63 1511.49 1489.63 Q1505.68 1489.63 1502.6 1485.04 Q1499.54 1480.44 1499.54 1471.71 Q1499.54 1462.96 1502.6 1458.38 Q1505.68 1453.77 1511.49 1453.77 Z" fill="#000000" fill-rule="evenodd" fill-opacity="1" /><path clip-path="url(#clip640)" d="M1533.13 1435.97 Q1530.2 1435.97 1528.71 1438.86 Q1527.25 1441.74 1527.25 1447.53 Q1527.25 1453.31 1528.71 1456.2 Q1530.2 1459.08 1533.13 1459.08 Q1536.09 1459.08 1537.55 1456.2 Q1539.04 1453.31 1539.04 1447.53 Q1539.04 1441.74 1537.55 1438.86 Q1536.09 1435.97 1533.13 1435.97 M1533.13 1432.96 Q1537.86 1432.96 1540.34 1436.7 Q1542.84 1440.43 1542.84 1447.53 Q1542.84 1454.62 1540.34 1458.37 Q1537.86 1462.09 1533.13 1462.09 Q1528.41 1462.09 1525.91 1458.37 Q1523.43 1454.62 1523.43 1447.53 Q1523.43 1440.43 1525.91 1436.7 Q1528.41 1432.96 1533.13 1432.96 Z" fill="#000000" fill-rule="evenodd" fill-opacity="1" /><path clip-path="url(#clip640)" d="M1549.52 1456.77 L1553.48 1456.77 L1553.48 1461.55 L1549.52 1461.55 L1549.52 1456.77 Z" fill="#000000" fill-rule="evenodd" fill-opacity="1" /><path clip-path="url(#clip640)" d="M1561.8 1433.47 L1576.71 1433.47 L1576.71 1436.66 L1565.28 1436.66 L1565.28 1443.55 Q1566.1 1443.27 1566.93 1443.13 Q1567.76 1442.98 1568.59 1442.98 Q1573.29 1442.98 1576.04 1445.56 Q1578.78 1448.14 1578.78 1452.54 Q1578.78 1457.07 1575.96 1459.59 Q1573.14 1462.09 1568 1462.09 Q1566.24 1462.09 1564.39 1461.79 Q1562.57 1461.49 1560.61 1460.89 L1560.61 1457.07 Q1562.31 1457.99 1564.11 1458.44 Q1565.92 1458.89 1567.93 1458.89 Q1571.18 1458.89 1573.08 1457.18 Q1574.98 1455.47 1574.98 1452.54 Q1574.98 1449.6 1573.08 1447.89 Q1571.18 1446.18 1567.93 1446.18 Q1566.41 1446.18 1564.88 1446.52 Q1563.38 1446.86 1561.8 1447.57 L1561.8 1433.47 Z" fill="#000000" fill-rule="evenodd" fill-opacity="1" /><path clip-path="url(#clip640)" d="M2240.28 1485.02 L2247.92 1485.02 L2247.92 1458.66 L2239.61 1460.32 L2239.61 1456.06 L2247.87 1454.4 L2252.55 1454.4 L2252.55 1485.02 L2260.19 1485.02 L2260.19 1488.96 L2240.28 1488.96 L2240.28 1485.02 Z" fill="#000000" fill-rule="evenodd" fill-opacity="1" /><path clip-path="url(#clip640)" d="M2279.63 1457.48 Q2276.02 1457.48 2274.19 1461.04 Q2272.39 1464.58 2272.39 1471.71 Q2272.39 1478.82 2274.19 1482.38 Q2276.02 1485.92 2279.63 1485.92 Q2283.27 1485.92 2285.07 1482.38 Q2286.9 1478.82 2286.9 1471.71 Q2286.9 1464.58 2285.07 1461.04 Q2283.27 1457.48 2279.63 1457.48 M2279.63 1453.77 Q2285.44 1453.77 2288.5 1458.38 Q2291.58 1462.96 2291.58 1471.71 Q2291.58 1480.44 2288.5 1485.04 Q2285.44 1489.63 2279.63 1489.63 Q2273.82 1489.63 2270.74 1485.04 Q2267.69 1480.44 2267.69 1471.71 Q2267.69 1462.96 2270.74 1458.38 Q2273.82 1453.77 2279.63 1453.77 Z" fill="#000000" fill-rule="evenodd" fill-opacity="1" /><path clip-path="url(#clip640)" d="M2292.12 1458.35 L2298.33 1458.35 L2298.33 1436.93 L2291.58 1438.28 L2291.58 1434.82 L2298.29 1433.47 L2302.09 1433.47 L2302.09 1458.35 L2308.3 1458.35 L2308.3 1461.55 L2292.12 1461.55 L2292.12 1458.35 Z" fill="#000000" fill-rule="evenodd" fill-opacity="1" /><path clip-path="url(#clip640)" d="M2315.97 1456.77 L2319.94 1456.77 L2319.94 1461.55 L2315.97 1461.55 L2315.97 1456.77 Z" fill="#000000" fill-rule="evenodd" fill-opacity="1" /><path clip-path="url(#clip640)" d="M2336.34 1435.97 Q2333.41 1435.97 2331.92 1438.86 Q2330.45 1441.74 2330.45 1447.53 Q2330.45 1453.31 2331.92 1456.2 Q2333.41 1459.08 2336.34 1459.08 Q2339.29 1459.08 2340.76 1456.2 Q2342.25 1453.31 2342.25 1447.53 Q2342.25 1441.74 2340.76 1438.86 Q2339.29 1435.97 2336.34 1435.97 M2336.34 1432.96 Q2341.06 1432.96 2343.54 1436.7 Q2346.04 1440.43 2346.04 1447.53 Q2346.04 1454.62 2343.54 1458.37 Q2341.06 1462.09 2336.34 1462.09 Q2331.62 1462.09 2329.12 1458.37 Q2326.64 1454.62 2326.64 1447.53 Q2326.64 1440.43 2329.12 1436.7 Q2331.62 1432.96 2336.34 1432.96 Z" fill="#000000" fill-rule="evenodd" fill-opacity="1" /><path clip-path="url(#clip640)" d="M1299.22 1557.6 L1297.82 1550.25 Q1296.39 1542.71 1290.73 1542.71 Q1286.46 1542.71 1284.52 1546.21 Q1282.07 1550.6 1282.07 1556.39 Q1282.07 1563.4 1284.45 1566.74 Q1286.87 1570.14 1290.73 1570.14 Q1294.99 1570.14 1297.28 1563.36 L1299.22 1557.6 M1302.5 1547.86 L1305.65 1538.54 L1310.87 1538.54 L1304.35 1557.86 L1305.62 1564.83 Q1305.91 1566.39 1307.02 1567.69 Q1308.33 1569.22 1309.34 1569.22 L1312.15 1569.22 L1312.15 1574.19 L1308.64 1574.19 Q1305.65 1574.19 1302.98 1571.51 Q1301.67 1570.18 1301.13 1567.37 Q1299.67 1570.91 1296.68 1573.68 Q1295.28 1574.98 1290.73 1574.98 Q1283.25 1574.98 1279.62 1570.14 Q1275.89 1565.15 1275.89 1556.39 Q1275.89 1547.04 1279.94 1542.64 Q1284.42 1537.74 1290.73 1537.74 Q1300.62 1537.74 1302.5 1547.86 Z" fill="#000000" fill-rule="evenodd" fill-opacity="1" /><polyline clip-path="url(#clip642)" style="stroke:#000000; stroke-linecap:butt; stroke-linejoin:round; stroke-width:2; stroke-opacity:0.1; fill:none" points="
  235.283,1382.17 2352.76,1382.17 
  "/>
<polyline clip-path="url(#clip642)" style="stroke:#000000; stroke-linecap:butt; stroke-linejoin:round; stroke-width:2; stroke-opacity:0.1; fill:none" points="
  235.283,1114.87 2352.76,1114.87 
  "/>
<polyline clip-path="url(#clip642)" style="stroke:#000000; stroke-linecap:butt; stroke-linejoin:round; stroke-width:2; stroke-opacity:0.1; fill:none" points="
  235.283,847.583 2352.76,847.583 
  "/>
<polyline clip-path="url(#clip642)" style="stroke:#000000; stroke-linecap:butt; stroke-linejoin:round; stroke-width:2; stroke-opacity:0.1; fill:none" points="
  235.283,580.292 2352.76,580.292 
  "/>
<polyline clip-path="url(#clip642)" style="stroke:#000000; stroke-linecap:butt; stroke-linejoin:round; stroke-width:2; stroke-opacity:0.1; fill:none" points="
  235.283,313.001 2352.76,313.001 
  "/>
<polyline clip-path="url(#clip640)" style="stroke:#000000; stroke-linecap:butt; stroke-linejoin:round; stroke-width:4; stroke-opacity:1; fill:none" points="
  235.283,1410.9 235.283,47.2441 
  "/>
<polyline clip-path="url(#clip640)" style="stroke:#000000; stroke-linecap:butt; stroke-linejoin:round; stroke-width:4; stroke-opacity:1; fill:none" points="
  235.283,1382.17 254.18,1382.17 
  "/>
<polyline clip-path="url(#clip640)" style="stroke:#000000; stroke-linecap:butt; stroke-linejoin:round; stroke-width:4; stroke-opacity:1; fill:none" points="
  235.283,1114.87 254.18,1114.87 
  "/>
<polyline clip-path="url(#clip640)" style="stroke:#000000; stroke-linecap:butt; stroke-linejoin:round; stroke-width:4; stroke-opacity:1; fill:none" points="
  235.283,847.583 254.18,847.583 
  "/>
<polyline clip-path="url(#clip640)" style="stroke:#000000; stroke-linecap:butt; stroke-linejoin:round; stroke-width:4; stroke-opacity:1; fill:none" points="
  235.283,580.292 254.18,580.292 
  "/>
<polyline clip-path="url(#clip640)" style="stroke:#000000; stroke-linecap:butt; stroke-linejoin:round; stroke-width:4; stroke-opacity:1; fill:none" points="
  235.283,313.001 254.18,313.001 
  "/>
<path clip-path="url(#clip640)" d="M187.338 1367.96 Q183.727 1367.96 181.899 1371.53 Q180.093 1375.07 180.093 1382.2 Q180.093 1389.31 181.899 1392.87 Q183.727 1396.41 187.338 1396.41 Q190.973 1396.41 192.778 1392.87 Q194.607 1389.31 194.607 1382.2 Q194.607 1375.07 192.778 1371.53 Q190.973 1367.96 187.338 1367.96 M187.338 1364.26 Q193.149 1364.26 196.204 1368.87 Q199.283 1373.45 199.283 1382.2 Q199.283 1390.93 196.204 1395.53 Q193.149 1400.12 187.338 1400.12 Q181.528 1400.12 178.45 1395.53 Q175.394 1390.93 175.394 1382.2 Q175.394 1373.45 178.45 1368.87 Q181.528 1364.26 187.338 1364.26 Z" fill="#000000" fill-rule="evenodd" fill-opacity="1" /><path clip-path="url(#clip640)" d="M117.825 1128.22 L125.464 1128.22 L125.464 1101.85 L117.154 1103.52 L117.154 1099.26 L125.418 1097.59 L130.093 1097.59 L130.093 1128.22 L137.732 1128.22 L137.732 1132.15 L117.825 1132.15 L117.825 1128.22 Z" fill="#000000" fill-rule="evenodd" fill-opacity="1" /><path clip-path="url(#clip640)" d="M157.177 1100.67 Q153.566 1100.67 151.737 1104.24 Q149.931 1107.78 149.931 1114.91 Q149.931 1122.02 151.737 1125.58 Q153.566 1129.12 157.177 1129.12 Q160.811 1129.12 162.616 1125.58 Q164.445 1122.02 164.445 1114.91 Q164.445 1107.78 162.616 1104.24 Q160.811 1100.67 157.177 1100.67 M157.177 1096.97 Q162.987 1096.97 166.042 1101.58 Q169.121 1106.16 169.121 1114.91 Q169.121 1123.64 166.042 1128.24 Q162.987 1132.83 157.177 1132.83 Q151.366 1132.83 148.288 1128.24 Q145.232 1123.64 145.232 1114.91 Q145.232 1106.16 148.288 1101.58 Q151.366 1096.97 157.177 1096.97 Z" fill="#000000" fill-rule="evenodd" fill-opacity="1" /><path clip-path="url(#clip640)" d="M187.338 1100.67 Q183.727 1100.67 181.899 1104.24 Q180.093 1107.78 180.093 1114.91 Q180.093 1122.02 181.899 1125.58 Q183.727 1129.12 187.338 1129.12 Q190.973 1129.12 192.778 1125.58 Q194.607 1122.02 194.607 1114.91 Q194.607 1107.78 192.778 1104.24 Q190.973 1100.67 187.338 1100.67 M187.338 1096.97 Q193.149 1096.97 196.204 1101.58 Q199.283 1106.16 199.283 1114.91 Q199.283 1123.64 196.204 1128.24 Q193.149 1132.83 187.338 1132.83 Q181.528 1132.83 178.45 1128.24 Q175.394 1123.64 175.394 1114.91 Q175.394 1106.16 178.45 1101.58 Q181.528 1096.97 187.338 1096.97 Z" fill="#000000" fill-rule="evenodd" fill-opacity="1" /><path clip-path="url(#clip640)" d="M121.043 860.928 L137.362 860.928 L137.362 864.863 L115.418 864.863 L115.418 860.928 Q118.08 858.173 122.663 853.544 Q127.269 848.891 128.45 847.548 Q130.695 845.025 131.575 843.289 Q132.478 841.53 132.478 839.84 Q132.478 837.086 130.533 835.349 Q128.612 833.613 125.51 833.613 Q123.311 833.613 120.857 834.377 Q118.427 835.141 115.649 836.692 L115.649 831.97 Q118.473 830.836 120.927 830.257 Q123.38 829.678 125.418 829.678 Q130.788 829.678 133.982 832.363 Q137.177 835.049 137.177 839.539 Q137.177 841.669 136.367 843.59 Q135.579 845.488 133.473 848.081 Q132.894 848.752 129.792 851.97 Q126.691 855.164 121.043 860.928 Z" fill="#000000" fill-rule="evenodd" fill-opacity="1" /><path clip-path="url(#clip640)" d="M157.177 833.382 Q153.566 833.382 151.737 836.947 Q149.931 840.488 149.931 847.618 Q149.931 854.724 151.737 858.289 Q153.566 861.831 157.177 861.831 Q160.811 861.831 162.616 858.289 Q164.445 854.724 164.445 847.618 Q164.445 840.488 162.616 836.947 Q160.811 833.382 157.177 833.382 M157.177 829.678 Q162.987 829.678 166.042 834.285 Q169.121 838.868 169.121 847.618 Q169.121 856.345 166.042 860.951 Q162.987 865.534 157.177 865.534 Q151.366 865.534 148.288 860.951 Q145.232 856.345 145.232 847.618 Q145.232 838.868 148.288 834.285 Q151.366 829.678 157.177 829.678 Z" fill="#000000" fill-rule="evenodd" fill-opacity="1" /><path clip-path="url(#clip640)" d="M187.338 833.382 Q183.727 833.382 181.899 836.947 Q180.093 840.488 180.093 847.618 Q180.093 854.724 181.899 858.289 Q183.727 861.831 187.338 861.831 Q190.973 861.831 192.778 858.289 Q194.607 854.724 194.607 847.618 Q194.607 840.488 192.778 836.947 Q190.973 833.382 187.338 833.382 M187.338 829.678 Q193.149 829.678 196.204 834.285 Q199.283 838.868 199.283 847.618 Q199.283 856.345 196.204 860.951 Q193.149 865.534 187.338 865.534 Q181.528 865.534 178.45 860.951 Q175.394 856.345 175.394 847.618 Q175.394 838.868 178.45 834.285 Q181.528 829.678 187.338 829.678 Z" fill="#000000" fill-rule="evenodd" fill-opacity="1" /><path clip-path="url(#clip640)" d="M131.181 578.938 Q134.538 579.656 136.413 581.924 Q138.311 584.193 138.311 587.526 Q138.311 592.642 134.792 595.442 Q131.274 598.243 124.793 598.243 Q122.617 598.243 120.302 597.804 Q118.01 597.387 115.556 596.53 L115.556 592.017 Q117.501 593.151 119.816 593.73 Q122.13 594.308 124.654 594.308 Q129.052 594.308 131.343 592.572 Q133.658 590.836 133.658 587.526 Q133.658 584.47 131.505 582.757 Q129.376 581.021 125.556 581.021 L121.529 581.021 L121.529 577.179 L125.742 577.179 Q129.191 577.179 131.019 575.813 Q132.848 574.424 132.848 571.831 Q132.848 569.169 130.95 567.757 Q129.075 566.322 125.556 566.322 Q123.635 566.322 121.436 566.739 Q119.237 567.156 116.598 568.035 L116.598 563.869 Q119.26 563.128 121.575 562.757 Q123.913 562.387 125.973 562.387 Q131.297 562.387 134.399 564.818 Q137.501 567.225 137.501 571.345 Q137.501 574.216 135.857 576.206 Q134.214 578.174 131.181 578.938 Z" fill="#000000" fill-rule="evenodd" fill-opacity="1" /><path clip-path="url(#clip640)" d="M157.177 566.091 Q153.566 566.091 151.737 569.656 Q149.931 573.197 149.931 580.327 Q149.931 587.433 151.737 590.998 Q153.566 594.54 157.177 594.54 Q160.811 594.54 162.616 590.998 Q164.445 587.433 164.445 580.327 Q164.445 573.197 162.616 569.656 Q160.811 566.091 157.177 566.091 M157.177 562.387 Q162.987 562.387 166.042 566.994 Q169.121 571.577 169.121 580.327 Q169.121 589.054 166.042 593.66 Q162.987 598.243 157.177 598.243 Q151.366 598.243 148.288 593.66 Q145.232 589.054 145.232 580.327 Q145.232 571.577 148.288 566.994 Q151.366 562.387 157.177 562.387 Z" fill="#000000" fill-rule="evenodd" fill-opacity="1" /><path clip-path="url(#clip640)" d="M187.338 566.091 Q183.727 566.091 181.899 569.656 Q180.093 573.197 180.093 580.327 Q180.093 587.433 181.899 590.998 Q183.727 594.54 187.338 594.54 Q190.973 594.54 192.778 590.998 Q194.607 587.433 194.607 580.327 Q194.607 573.197 192.778 569.656 Q190.973 566.091 187.338 566.091 M187.338 562.387 Q193.149 562.387 196.204 566.994 Q199.283 571.577 199.283 580.327 Q199.283 589.054 196.204 593.66 Q193.149 598.243 187.338 598.243 Q181.528 598.243 178.45 593.66 Q175.394 589.054 175.394 580.327 Q175.394 571.577 178.45 566.994 Q181.528 562.387 187.338 562.387 Z" fill="#000000" fill-rule="evenodd" fill-opacity="1" /><path clip-path="url(#clip640)" d="M129.862 299.795 L118.056 318.244 L129.862 318.244 L129.862 299.795 M128.635 295.721 L134.515 295.721 L134.515 318.244 L139.445 318.244 L139.445 322.133 L134.515 322.133 L134.515 330.281 L129.862 330.281 L129.862 322.133 L114.26 322.133 L114.26 317.619 L128.635 295.721 Z" fill="#000000" fill-rule="evenodd" fill-opacity="1" /><path clip-path="url(#clip640)" d="M157.177 298.8 Q153.566 298.8 151.737 302.364 Q149.931 305.906 149.931 313.036 Q149.931 320.142 151.737 323.707 Q153.566 327.249 157.177 327.249 Q160.811 327.249 162.616 323.707 Q164.445 320.142 164.445 313.036 Q164.445 305.906 162.616 302.364 Q160.811 298.8 157.177 298.8 M157.177 295.096 Q162.987 295.096 166.042 299.702 Q169.121 304.286 169.121 313.036 Q169.121 321.763 166.042 326.369 Q162.987 330.952 157.177 330.952 Q151.366 330.952 148.288 326.369 Q145.232 321.763 145.232 313.036 Q145.232 304.286 148.288 299.702 Q151.366 295.096 157.177 295.096 Z" fill="#000000" fill-rule="evenodd" fill-opacity="1" /><path clip-path="url(#clip640)" d="M187.338 298.8 Q183.727 298.8 181.899 302.364 Q180.093 305.906 180.093 313.036 Q180.093 320.142 181.899 323.707 Q183.727 327.249 187.338 327.249 Q190.973 327.249 192.778 323.707 Q194.607 320.142 194.607 313.036 Q194.607 305.906 192.778 302.364 Q190.973 298.8 187.338 298.8 M187.338 295.096 Q193.149 295.096 196.204 299.702 Q199.283 304.286 199.283 313.036 Q199.283 321.763 196.204 326.369 Q193.149 330.952 187.338 330.952 Q181.528 330.952 178.45 326.369 Q175.394 321.763 175.394 313.036 Q175.394 304.286 178.45 299.702 Q181.528 295.096 187.338 295.096 Z" fill="#000000" fill-rule="evenodd" fill-opacity="1" /><path clip-path="url(#clip640)" d="M35.1993 829.203 Q31.2526 827.007 29.3747 823.951 Q27.4968 820.896 27.4968 816.758 Q27.4968 811.188 31.4117 808.164 Q35.2948 805.141 42.4881 805.141 L64.0042 805.141 L64.0042 811.029 L42.679 811.029 Q37.5546 811.029 35.072 812.843 Q32.5894 814.657 32.5894 818.381 Q32.5894 822.933 35.6131 825.574 Q38.6368 828.216 43.8567 828.216 L64.0042 828.216 L64.0042 834.105 L42.679 834.105 Q37.5228 834.105 35.072 835.919 Q32.5894 837.733 32.5894 841.521 Q32.5894 846.008 35.6449 848.65 Q38.6686 851.292 43.8567 851.292 L64.0042 851.292 L64.0042 857.18 L28.3562 857.18 L28.3562 851.292 L33.8944 851.292 Q30.616 849.287 29.0564 846.486 Q27.4968 843.685 27.4968 839.834 Q27.4968 835.951 29.4702 833.245 Q31.4436 830.508 35.1993 829.203 Z" fill="#000000" fill-rule="evenodd" fill-opacity="1" /><path clip-path="url(#clip640)" d="M28.3562 793.459 L28.3562 787.603 L64.0042 787.603 L64.0042 793.459 L28.3562 793.459 M14.479 793.459 L14.479 787.603 L21.895 787.603 L21.895 793.459 L14.479 793.459 Z" fill="#000000" fill-rule="evenodd" fill-opacity="1" /><path clip-path="url(#clip640)" d="M42.4881 745.717 L64.0042 745.717 L64.0042 751.573 L42.679 751.573 Q37.6183 751.573 35.1038 753.547 Q32.5894 755.52 32.5894 759.467 Q32.5894 764.209 35.6131 766.946 Q38.6368 769.684 43.8567 769.684 L64.0042 769.684 L64.0042 775.572 L28.3562 775.572 L28.3562 769.684 L33.8944 769.684 Q30.6797 767.583 29.0883 764.75 Q27.4968 761.886 27.4968 758.162 Q27.4968 752.019 31.3163 748.868 Q35.1038 745.717 42.4881 745.717 Z" fill="#000000" fill-rule="evenodd" fill-opacity="1" /><path clip-path="url(#clip640)" d="M74.8259 706.95 L79.3773 706.95 L79.3773 740.815 L74.8259 740.815 L74.8259 706.95 Z" fill="#000000" fill-rule="evenodd" fill-opacity="1" /><path clip-path="url(#clip640)" d="M33.7671 677.986 L14.479 677.986 L14.479 672.129 L64.0042 672.129 L64.0042 677.986 L58.657 677.986 Q61.8398 679.832 63.3994 682.664 Q64.9272 685.465 64.9272 689.412 Q64.9272 695.873 59.771 699.947 Q54.6147 703.989 46.212 703.989 Q37.8093 703.989 32.6531 699.947 Q27.4968 695.873 27.4968 689.412 Q27.4968 685.465 29.0564 682.664 Q30.5842 679.832 33.7671 677.986 M46.212 697.942 Q52.6732 697.942 56.3653 695.3 Q60.0256 692.627 60.0256 687.98 Q60.0256 683.333 56.3653 680.659 Q52.6732 677.986 46.212 677.986 Q39.7508 677.986 36.0905 680.659 Q32.3984 683.333 32.3984 687.98 Q32.3984 692.627 36.0905 695.3 Q39.7508 697.942 46.212 697.942 Z" fill="#000000" fill-rule="evenodd" fill-opacity="1" /><path clip-path="url(#clip640)" d="M28.3562 660.066 L28.3562 654.21 L64.0042 654.21 L64.0042 660.066 L28.3562 660.066 M14.479 660.066 L14.479 654.21 L21.895 654.21 L21.895 660.066 L14.479 660.066 Z" fill="#000000" fill-rule="evenodd" fill-opacity="1" /><path clip-path="url(#clip640)" d="M14.479 623.909 L19.3487 623.909 L19.3487 629.511 Q19.3487 632.662 20.6219 633.903 Q21.895 635.113 25.2052 635.113 L28.3562 635.113 L28.3562 625.468 L32.9077 625.468 L32.9077 635.113 L64.0042 635.113 L64.0042 641.001 L32.9077 641.001 L32.9077 646.603 L28.3562 646.603 L28.3562 641.001 L25.8736 641.001 Q19.9216 641.001 17.2162 638.232 Q14.479 635.463 14.479 629.447 L14.479 623.909 Z" fill="#000000" fill-rule="evenodd" fill-opacity="1" /><path clip-path="url(#clip640)" d="M14.479 600.961 L19.3487 600.961 L19.3487 606.562 Q19.3487 609.713 20.6219 610.955 Q21.895 612.164 25.2052 612.164 L28.3562 612.164 L28.3562 602.52 L32.9077 602.52 L32.9077 612.164 L64.0042 612.164 L64.0042 618.052 L32.9077 618.052 L32.9077 623.654 L28.3562 623.654 L28.3562 618.052 L25.8736 618.052 Q19.9216 618.052 17.2162 615.283 Q14.479 612.514 14.479 606.499 L14.479 600.961 Z" fill="#000000" fill-rule="evenodd" fill-opacity="1" /><polyline clip-path="url(#clip642)" style="stroke:#009af9; stroke-linecap:butt; stroke-linejoin:round; stroke-width:20; stroke-opacity:1; fill:none" stroke-dasharray="80, 50" points="
  295.211,1296.19 757.416,1366.35 1027.79,1372.3 1219.62,1366.23 1368.42,1294.55 1489.99,1198.22 1592.78,1090.72 1681.83,981.889 1760.37,876.401 1830.62,776.372 
  1894.18,682.608 1952.2,595.244 2005.57,514.08 2054.99,438.754 2101,368.843 2144.03,303.908 2184.46,243.524 2222.57,187.291 2258.62,134.841 2292.83,85.838 
  
  "/>
<path clip-path="url(#clip640)" d="
M1994.47 196.379 L2282.17 196.379 L2282.17 92.6992 L1994.47 92.6992  Z
  " fill="#ffffff" fill-rule="evenodd" fill-opacity="1"/>
<polyline clip-path="url(#clip640)" style="stroke:#000000; stroke-linecap:butt; stroke-linejoin:round; stroke-width:4; stroke-opacity:1; fill:none" points="
  1994.47,196.379 2282.17,196.379 2282.17,92.6992 1994.47,92.6992 1994.47,196.379 
  "/>
<polyline clip-path="url(#clip640)" style="stroke:#009af9; stroke-linecap:butt; stroke-linejoin:round; stroke-width:4; stroke-opacity:1; fill:none" stroke-dasharray="16, 10" points="
  2018,144.539 2159.16,144.539 
  "/>
<path clip-path="url(#clip640)" d="M2196.53 164.227 Q2194.73 168.856 2193.01 170.268 Q2191.3 171.68 2188.43 171.68 L2185.03 171.68 L2185.03 168.115 L2187.53 168.115 Q2189.29 168.115 2190.26 167.282 Q2191.23 166.449 2192.41 163.347 L2193.17 161.403 L2182.69 135.893 L2187.2 135.893 L2195.3 156.171 L2203.41 135.893 L2207.92 135.893 L2196.53 164.227 Z" fill="#000000" fill-rule="evenodd" fill-opacity="1" /><path clip-path="url(#clip640)" d="M2215.21 157.884 L2222.85 157.884 L2222.85 131.518 L2214.54 133.185 L2214.54 128.926 L2222.8 127.259 L2227.48 127.259 L2227.48 157.884 L2235.12 157.884 L2235.12 161.819 L2215.21 161.819 L2215.21 157.884 Z" fill="#000000" fill-rule="evenodd" fill-opacity="1" /></svg>
