<?xml version="1.0" encoding="utf-8"?>
<svg xmlns="http://www.w3.org/2000/svg" xmlns:xlink="http://www.w3.org/1999/xlink" width="600" height="400" viewBox="0 0 2400 1600">
<defs>
  <clipPath id="clip890">
    <rect x="0" y="0" width="2400" height="1600"/>
  </clipPath>
</defs>
<path clip-path="url(#clip890)" d="
M0 1600 L2400 1600 L2400 0 L0 0  Z
  " fill="#ffffff" fill-rule="evenodd" fill-opacity="1"/>
<defs>
  <clipPath id="clip891">
    <rect x="480" y="0" width="1681" height="1600"/>
  </clipPath>
</defs>
<path clip-path="url(#clip890)" d="
M212.899 1410.9 L2352.76 1410.9 L2352.76 47.2441 L212.899 47.2441  Z
  " fill="#ffffff" fill-rule="evenodd" fill-opacity="1"/>
<defs>
  <clipPath id="clip892">
    <rect x="212" y="47" width="2141" height="1365"/>
  </clipPath>
</defs>
<polyline clip-path="url(#clip892)" style="stroke:#000000; stroke-width:2; stroke-opacity:0.1; fill:none" points="
  273.461,1410.9 273.461,47.2441 
  "/>
<polyline clip-path="url(#clip892)" style="stroke:#000000; stroke-width:2; stroke-opacity:0.1; fill:none" points="
  940.36,1410.9 940.36,47.2441 
  "/>
<polyline clip-path="url(#clip892)" style="stroke:#000000; stroke-width:2; stroke-opacity:0.1; fill:none" points="
  1607.26,1410.9 1607.26,47.2441 
  "/>
<polyline clip-path="url(#clip892)" style="stroke:#000000; stroke-width:2; stroke-opacity:0.1; fill:none" points="
  2274.16,1410.9 2274.16,47.2441 
  "/>
<polyline clip-path="url(#clip890)" style="stroke:#000000; stroke-width:4; stroke-opacity:1; fill:none" points="
  212.899,1410.9 2352.76,1410.9 
  "/>
<polyline clip-path="url(#clip890)" style="stroke:#000000; stroke-width:4; stroke-opacity:1; fill:none" points="
  273.461,1410.9 273.461,1394.53 
  "/>
<polyline clip-path="url(#clip890)" style="stroke:#000000; stroke-width:4; stroke-opacity:1; fill:none" points="
  940.36,1410.9 940.36,1394.53 
  "/>
<polyline clip-path="url(#clip890)" style="stroke:#000000; stroke-width:4; stroke-opacity:1; fill:none" points="
  1607.26,1410.9 1607.26,1394.53 
  "/>
<polyline clip-path="url(#clip890)" style="stroke:#000000; stroke-width:4; stroke-opacity:1; fill:none" points="
  2274.16,1410.9 2274.16,1394.53 
  "/>
<path clip-path="url(#clip890)" d="M 0 0 M213.19 1489.17 L220.829 1489.17 L220.829 1462.8 L212.519 1464.47 L212.519 1460.21 L220.783 1458.54 L225.459 1458.54 L225.459 1489.17 L233.098 1489.17 L233.098 1493.1 L213.19 1493.1 L213.19 1489.17 Z" fill="#000000" fill-rule="evenodd" fill-opacity="1" /><path clip-path="url(#clip890)" d="M 0 0 M248.167 1461.62 Q244.556 1461.62 242.727 1465.19 Q240.922 1468.73 240.922 1475.86 Q240.922 1482.97 242.727 1486.53 Q244.556 1490.07 248.167 1490.07 Q251.801 1490.07 253.607 1486.53 Q255.436 1482.97 255.436 1475.86 Q255.436 1468.73 253.607 1465.19 Q251.801 1461.62 248.167 1461.62 M248.167 1457.92 Q253.977 1457.92 257.033 1462.53 Q260.112 1467.11 260.112 1475.86 Q260.112 1484.59 257.033 1489.19 Q253.977 1493.78 248.167 1493.78 Q242.357 1493.78 239.278 1489.19 Q236.223 1484.59 236.223 1475.86 Q236.223 1467.11 239.278 1462.53 Q242.357 1457.92 248.167 1457.92 Z" fill="#000000" fill-rule="evenodd" fill-opacity="1" /><path clip-path="url(#clip890)" d="M 0 0 M260.112 1452.02 L284.223 1452.02 L284.223 1455.22 L260.112 1455.22 L260.112 1452.02 Z" fill="#000000" fill-rule="evenodd" fill-opacity="1" /><path clip-path="url(#clip890)" d="M 0 0 M289 1462.5 L295.207 1462.5 L295.207 1441.07 L288.455 1442.43 L288.455 1438.97 L295.169 1437.61 L298.968 1437.61 L298.968 1462.5 L305.175 1462.5 L305.175 1465.69 L289 1465.69 L289 1462.5 Z" fill="#000000" fill-rule="evenodd" fill-opacity="1" /><path clip-path="url(#clip890)" d="M 0 0 M309.294 1460.92 L313.262 1460.92 L313.262 1465.69 L309.294 1465.69 L309.294 1460.92 Z" fill="#000000" fill-rule="evenodd" fill-opacity="1" /><path clip-path="url(#clip890)" d="M 0 0 M317.419 1437.61 L332.333 1437.61 L332.333 1440.81 L320.898 1440.81 L320.898 1447.69 Q321.726 1447.41 322.553 1447.28 Q323.381 1447.13 324.208 1447.13 Q328.91 1447.13 331.656 1449.71 Q334.402 1452.28 334.402 1456.68 Q334.402 1461.22 331.581 1463.74 Q328.76 1466.24 323.625 1466.24 Q321.857 1466.24 320.014 1465.94 Q318.19 1465.64 316.234 1465.04 L316.234 1461.22 Q317.927 1462.14 319.732 1462.59 Q321.538 1463.04 323.55 1463.04 Q326.804 1463.04 328.703 1461.33 Q330.603 1459.62 330.603 1456.68 Q330.603 1453.75 328.703 1452.04 Q326.804 1450.33 323.55 1450.33 Q322.027 1450.33 320.503 1450.67 Q318.999 1451 317.419 1451.72 L317.419 1437.61 Z" fill="#000000" fill-rule="evenodd" fill-opacity="1" /><path clip-path="url(#clip890)" d="M 0 0 M879.686 1489.17 L887.325 1489.17 L887.325 1462.8 L879.014 1464.47 L879.014 1460.21 L887.278 1458.54 L891.954 1458.54 L891.954 1489.17 L899.593 1489.17 L899.593 1493.1 L879.686 1493.1 L879.686 1489.17 Z" fill="#000000" fill-rule="evenodd" fill-opacity="1" /><path clip-path="url(#clip890)" d="M 0 0 M914.662 1461.62 Q911.051 1461.62 909.223 1465.19 Q907.417 1468.73 907.417 1475.86 Q907.417 1482.97 909.223 1486.53 Q911.051 1490.07 914.662 1490.07 Q918.297 1490.07 920.102 1486.53 Q921.931 1482.97 921.931 1475.86 Q921.931 1468.73 920.102 1465.19 Q918.297 1461.62 914.662 1461.62 M914.662 1457.92 Q920.473 1457.92 923.528 1462.53 Q926.607 1467.11 926.607 1475.86 Q926.607 1484.59 923.528 1489.19 Q920.473 1493.78 914.662 1493.78 Q908.852 1493.78 905.774 1489.19 Q902.718 1484.59 902.718 1475.86 Q902.718 1467.11 905.774 1462.53 Q908.852 1457.92 914.662 1457.92 Z" fill="#000000" fill-rule="evenodd" fill-opacity="1" /><path clip-path="url(#clip890)" d="M 0 0 M926.607 1452.02 L950.718 1452.02 L950.718 1455.22 L926.607 1455.22 L926.607 1452.02 Z" fill="#000000" fill-rule="evenodd" fill-opacity="1" /><path clip-path="url(#clip890)" d="M 0 0 M955.496 1462.5 L961.702 1462.5 L961.702 1441.07 L954.95 1442.43 L954.95 1438.97 L961.665 1437.61 L965.464 1437.61 L965.464 1462.5 L971.67 1462.5 L971.67 1465.69 L955.496 1465.69 L955.496 1462.5 Z" fill="#000000" fill-rule="evenodd" fill-opacity="1" /><path clip-path="url(#clip890)" d="M 0 0 M975.789 1460.92 L979.758 1460.92 L979.758 1465.69 L975.789 1465.69 L975.789 1460.92 Z" fill="#000000" fill-rule="evenodd" fill-opacity="1" /><path clip-path="url(#clip890)" d="M 0 0 M992.001 1440.11 Q989.067 1440.11 987.582 1443.01 Q986.115 1445.89 986.115 1451.68 Q986.115 1457.46 987.582 1460.35 Q989.067 1463.23 992.001 1463.23 Q994.954 1463.23 996.421 1460.35 Q997.907 1457.46 997.907 1451.68 Q997.907 1445.89 996.421 1443.01 Q994.954 1440.11 992.001 1440.11 M992.001 1437.11 Q996.722 1437.11 999.205 1440.85 Q1001.71 1444.57 1001.71 1451.68 Q1001.71 1458.77 999.205 1462.51 Q996.722 1466.24 992.001 1466.24 Q987.281 1466.24 984.779 1462.51 Q982.297 1458.77 982.297 1451.68 Q982.297 1444.57 984.779 1440.85 Q987.281 1437.11 992.001 1437.11 Z" fill="#000000" fill-rule="evenodd" fill-opacity="1" /><path clip-path="url(#clip890)" d="M 0 0 M1546.49 1489.17 L1554.13 1489.17 L1554.13 1462.8 L1545.82 1464.47 L1545.82 1460.21 L1554.08 1458.54 L1558.76 1458.54 L1558.76 1489.17 L1566.4 1489.17 L1566.4 1493.1 L1546.49 1493.1 L1546.49 1489.17 Z" fill="#000000" fill-rule="evenodd" fill-opacity="1" /><path clip-path="url(#clip890)" d="M 0 0 M1581.47 1461.62 Q1577.86 1461.62 1576.03 1465.19 Q1574.22 1468.73 1574.22 1475.86 Q1574.22 1482.97 1576.03 1486.53 Q1577.86 1490.07 1581.47 1490.07 Q1585.1 1490.07 1586.91 1486.53 Q1588.74 1482.97 1588.74 1475.86 Q1588.74 1468.73 1586.91 1465.19 Q1585.1 1461.62 1581.47 1461.62 M1581.47 1457.92 Q1587.28 1457.92 1590.33 1462.53 Q1593.41 1467.11 1593.41 1475.86 Q1593.41 1484.59 1590.33 1489.19 Q1587.28 1493.78 1581.47 1493.78 Q1575.66 1493.78 1572.58 1489.19 Q1569.52 1484.59 1569.52 1475.86 Q1569.52 1467.11 1572.58 1462.53 Q1575.66 1457.92 1581.47 1457.92 Z" fill="#000000" fill-rule="evenodd" fill-opacity="1" /><path clip-path="url(#clip890)" d="M 0 0 M1593.41 1452.02 L1617.52 1452.02 L1617.52 1455.22 L1593.41 1455.22 L1593.41 1452.02 Z" fill="#000000" fill-rule="evenodd" fill-opacity="1" /><path clip-path="url(#clip890)" d="M 0 0 M1629.77 1440.11 Q1626.83 1440.11 1625.35 1443.01 Q1623.88 1445.89 1623.88 1451.68 Q1623.88 1457.46 1625.35 1460.35 Q1626.83 1463.23 1629.77 1463.23 Q1632.72 1463.23 1634.19 1460.35 Q1635.67 1457.46 1635.67 1451.68 Q1635.67 1445.89 1634.19 1443.01 Q1632.72 1440.11 1629.77 1440.11 M1629.77 1437.11 Q1634.49 1437.11 1636.97 1440.85 Q1639.47 1444.57 1639.47 1451.68 Q1639.47 1458.77 1636.97 1462.51 Q1634.49 1466.24 1629.77 1466.24 Q1625.05 1466.24 1622.55 1462.51 Q1620.06 1458.77 1620.06 1451.68 Q1620.06 1444.57 1622.55 1440.85 Q1625.05 1437.11 1629.77 1437.11 Z" fill="#000000" fill-rule="evenodd" fill-opacity="1" /><path clip-path="url(#clip890)" d="M 0 0 M1643.59 1460.92 L1647.56 1460.92 L1647.56 1465.69 L1643.59 1465.69 L1643.59 1460.92 Z" fill="#000000" fill-rule="evenodd" fill-opacity="1" /><path clip-path="url(#clip890)" d="M 0 0 M1651.72 1437.61 L1666.63 1437.61 L1666.63 1440.81 L1655.2 1440.81 L1655.2 1447.69 Q1656.02 1447.41 1656.85 1447.28 Q1657.68 1447.13 1658.51 1447.13 Q1663.21 1447.13 1665.95 1449.71 Q1668.7 1452.28 1668.7 1456.68 Q1668.7 1461.22 1665.88 1463.74 Q1663.06 1466.24 1657.92 1466.24 Q1656.16 1466.24 1654.31 1465.94 Q1652.49 1465.64 1650.53 1465.04 L1650.53 1461.22 Q1652.22 1462.14 1654.03 1462.59 Q1655.84 1463.04 1657.85 1463.04 Q1661.1 1463.04 1663 1461.33 Q1664.9 1459.62 1664.9 1456.68 Q1664.9 1453.75 1663 1452.04 Q1661.1 1450.33 1657.85 1450.33 Q1656.32 1450.33 1654.8 1450.67 Q1653.3 1451 1651.72 1451.72 L1651.72 1437.61 Z" fill="#000000" fill-rule="evenodd" fill-opacity="1" /><path clip-path="url(#clip890)" d="M 0 0 M2226.31 1489.17 L2233.95 1489.17 L2233.95 1462.8 L2225.64 1464.47 L2225.64 1460.21 L2233.9 1458.54 L2238.58 1458.54 L2238.58 1489.17 L2246.22 1489.17 L2246.22 1493.1 L2226.31 1493.1 L2226.31 1489.17 Z" fill="#000000" fill-rule="evenodd" fill-opacity="1" /><path clip-path="url(#clip890)" d="M 0 0 M2261.29 1461.62 Q2257.68 1461.62 2255.85 1465.19 Q2254.04 1468.73 2254.04 1475.86 Q2254.04 1482.97 2255.85 1486.53 Q2257.68 1490.07 2261.29 1490.07 Q2264.92 1490.07 2266.73 1486.53 Q2268.56 1482.97 2268.56 1475.86 Q2268.56 1468.73 2266.73 1465.19 Q2264.92 1461.62 2261.29 1461.62 M2261.29 1457.92 Q2267.1 1457.92 2270.15 1462.53 Q2273.23 1467.11 2273.23 1475.86 Q2273.23 1484.59 2270.15 1489.19 Q2267.1 1493.78 2261.29 1493.78 Q2255.48 1493.78 2252.4 1489.19 Q2249.34 1484.59 2249.34 1475.86 Q2249.34 1467.11 2252.4 1462.53 Q2255.48 1457.92 2261.29 1457.92 Z" fill="#000000" fill-rule="evenodd" fill-opacity="1" /><path clip-path="url(#clip890)" d="M 0 0 M2282.94 1440.11 Q2280 1440.11 2278.52 1443.01 Q2277.05 1445.89 2277.05 1451.68 Q2277.05 1457.46 2278.52 1460.35 Q2280 1463.23 2282.94 1463.23 Q2285.89 1463.23 2287.36 1460.35 Q2288.84 1457.46 2288.84 1451.68 Q2288.84 1445.89 2287.36 1443.01 Q2285.89 1440.11 2282.94 1440.11 M2282.94 1437.11 Q2287.66 1437.11 2290.14 1440.85 Q2292.64 1444.57 2292.64 1451.68 Q2292.64 1458.77 2290.14 1462.51 Q2287.66 1466.24 2282.94 1466.24 Q2278.22 1466.24 2275.72 1462.51 Q2273.23 1458.77 2273.23 1451.68 Q2273.23 1444.57 2275.72 1440.85 Q2278.22 1437.11 2282.94 1437.11 Z" fill="#000000" fill-rule="evenodd" fill-opacity="1" /><path clip-path="url(#clip890)" d="M 0 0 M2296.76 1460.92 L2300.73 1460.92 L2300.73 1465.69 L2296.76 1465.69 L2296.76 1460.92 Z" fill="#000000" fill-rule="evenodd" fill-opacity="1" /><path clip-path="url(#clip890)" d="M 0 0 M2312.97 1440.11 Q2310.04 1440.11 2308.55 1443.01 Q2307.09 1445.89 2307.09 1451.68 Q2307.09 1457.46 2308.55 1460.35 Q2310.04 1463.23 2312.97 1463.23 Q2315.93 1463.23 2317.39 1460.35 Q2318.88 1457.46 2318.88 1451.68 Q2318.88 1445.89 2317.39 1443.01 Q2315.93 1440.11 2312.97 1440.11 M2312.97 1437.11 Q2317.69 1437.11 2320.18 1440.85 Q2322.68 1444.57 2322.68 1451.68 Q2322.68 1458.77 2320.18 1462.51 Q2317.69 1466.24 2312.97 1466.24 Q2308.25 1466.24 2305.75 1462.51 Q2303.27 1458.77 2303.27 1451.68 Q2303.27 1444.57 2305.75 1440.85 Q2308.25 1437.11 2312.97 1437.11 Z" fill="#000000" fill-rule="evenodd" fill-opacity="1" /><path clip-path="url(#clip890)" d="M 0 0 M1175.6 1526.54 L1181.8 1526.54 L1192.94 1556.46 L1204.08 1526.54 L1210.29 1526.54 L1196.92 1562.19 L1188.96 1562.19 L1175.6 1526.54 Z" fill="#000000" fill-rule="evenodd" fill-opacity="1" /><path clip-path="url(#clip890)" d="M 0 0 M1243.52 1573.01 L1243.52 1577.56 L1209.65 1577.56 L1209.65 1573.01 L1243.52 1573.01 Z" fill="#000000" fill-rule="evenodd" fill-opacity="1" /><path clip-path="url(#clip890)" d="M 0 0 M1263.48 1530.64 Q1258.76 1530.64 1256.03 1534.34 Q1253.29 1538 1253.29 1544.39 Q1253.29 1550.79 1256 1554.48 Q1258.73 1558.14 1263.48 1558.14 Q1268.15 1558.14 1270.89 1554.45 Q1273.63 1550.76 1273.63 1544.39 Q1273.63 1538.06 1270.89 1534.37 Q1268.15 1530.64 1263.48 1530.64 M1263.48 1525.68 Q1271.11 1525.68 1275.47 1530.64 Q1279.84 1535.61 1279.84 1544.39 Q1279.84 1553.15 1275.47 1558.14 Q1271.11 1563.11 1263.48 1563.11 Q1255.8 1563.11 1251.44 1558.14 Q1247.12 1553.15 1247.12 1544.39 Q1247.12 1535.61 1251.44 1530.64 Q1255.8 1525.68 1263.48 1525.68 Z" fill="#000000" fill-rule="evenodd" fill-opacity="1" /><path clip-path="url(#clip890)" d="M 0 0 M1291.64 1556.84 L1291.64 1575.74 L1285.76 1575.74 L1285.76 1526.54 L1291.64 1526.54 L1291.64 1531.95 Q1293.49 1528.77 1296.29 1527.24 Q1299.12 1525.68 1303.04 1525.68 Q1309.53 1525.68 1313.57 1530.83 Q1317.65 1535.99 1317.65 1544.39 Q1317.65 1552.8 1313.57 1557.95 Q1309.53 1563.11 1303.04 1563.11 Q1299.12 1563.11 1296.29 1561.58 Q1293.49 1560.02 1291.64 1556.84 M1311.57 1544.39 Q1311.57 1537.93 1308.89 1534.27 Q1306.25 1530.58 1301.61 1530.58 Q1296.96 1530.58 1294.29 1534.27 Q1291.64 1537.93 1291.64 1544.39 Q1291.64 1550.85 1294.29 1554.55 Q1296.96 1558.21 1301.61 1558.21 Q1306.25 1558.21 1308.89 1554.55 Q1311.57 1550.85 1311.57 1544.39 Z" fill="#000000" fill-rule="evenodd" fill-opacity="1" /><path clip-path="url(#clip890)" d="M 0 0 M1354.28 1542.9 L1354.28 1545.76 L1327.36 1545.76 Q1327.74 1551.81 1330.98 1554.99 Q1334.26 1558.14 1340.09 1558.14 Q1343.46 1558.14 1346.61 1557.32 Q1349.79 1556.49 1352.91 1554.83 L1352.91 1560.37 Q1349.76 1561.71 1346.45 1562.41 Q1343.14 1563.11 1339.74 1563.11 Q1331.21 1563.11 1326.21 1558.14 Q1321.24 1553.18 1321.24 1544.71 Q1321.24 1535.96 1325.95 1530.83 Q1330.7 1525.68 1338.72 1525.68 Q1345.91 1525.68 1350.08 1530.33 Q1354.28 1534.94 1354.28 1542.9 M1348.43 1541.18 Q1348.36 1536.37 1345.72 1533.51 Q1343.11 1530.64 1338.78 1530.64 Q1333.88 1530.64 1330.92 1533.41 Q1327.99 1536.18 1327.55 1541.21 L1348.43 1541.18 Z" fill="#000000" fill-rule="evenodd" fill-opacity="1" /><path clip-path="url(#clip890)" d="M 0 0 M1390.06 1540.67 L1390.06 1562.19 L1384.2 1562.19 L1384.2 1540.86 Q1384.2 1535.8 1382.23 1533.29 Q1380.25 1530.77 1376.31 1530.77 Q1371.57 1530.77 1368.83 1533.79 Q1366.09 1536.82 1366.09 1542.04 L1366.09 1562.19 L1360.2 1562.19 L1360.2 1526.54 L1366.09 1526.54 L1366.09 1532.08 Q1368.19 1528.86 1371.02 1527.27 Q1373.89 1525.68 1377.61 1525.68 Q1383.76 1525.68 1386.91 1529.5 Q1390.06 1533.29 1390.06 1540.67 Z" fill="#000000" fill-rule="evenodd" fill-opacity="1" /><polyline clip-path="url(#clip892)" style="stroke:#000000; stroke-width:2; stroke-opacity:0.1; fill:none" points="
  212.899,1182.27 2352.76,1182.27 
  "/>
<polyline clip-path="url(#clip892)" style="stroke:#000000; stroke-width:2; stroke-opacity:0.1; fill:none" points="
  212.899,924.978 2352.76,924.978 
  "/>
<polyline clip-path="url(#clip892)" style="stroke:#000000; stroke-width:2; stroke-opacity:0.1; fill:none" points="
  212.899,667.685 2352.76,667.685 
  "/>
<polyline clip-path="url(#clip892)" style="stroke:#000000; stroke-width:2; stroke-opacity:0.1; fill:none" points="
  212.899,410.393 2352.76,410.393 
  "/>
<polyline clip-path="url(#clip892)" style="stroke:#000000; stroke-width:2; stroke-opacity:0.1; fill:none" points="
  212.899,153.1 2352.76,153.1 
  "/>
<polyline clip-path="url(#clip890)" style="stroke:#000000; stroke-width:4; stroke-opacity:1; fill:none" points="
  212.899,1410.9 212.899,47.2441 
  "/>
<polyline clip-path="url(#clip890)" style="stroke:#000000; stroke-width:4; stroke-opacity:1; fill:none" points="
  212.899,1182.27 238.577,1182.27 
  "/>
<polyline clip-path="url(#clip890)" style="stroke:#000000; stroke-width:4; stroke-opacity:1; fill:none" points="
  212.899,924.978 238.577,924.978 
  "/>
<polyline clip-path="url(#clip890)" style="stroke:#000000; stroke-width:4; stroke-opacity:1; fill:none" points="
  212.899,667.685 238.577,667.685 
  "/>
<polyline clip-path="url(#clip890)" style="stroke:#000000; stroke-width:4; stroke-opacity:1; fill:none" points="
  212.899,410.393 238.577,410.393 
  "/>
<polyline clip-path="url(#clip890)" style="stroke:#000000; stroke-width:4; stroke-opacity:1; fill:none" points="
  212.899,153.1 238.577,153.1 
  "/>
<path clip-path="url(#clip890)" d="M 0 0 M129.862 1169.07 L118.056 1187.51 L129.862 1187.51 L129.862 1169.07 M128.635 1164.99 L134.515 1164.99 L134.515 1187.51 L139.445 1187.51 L139.445 1191.4 L134.515 1191.4 L134.515 1199.55 L129.862 1199.55 L129.862 1191.4 L114.26 1191.4 L114.26 1186.89 L128.635 1164.99 Z" fill="#000000" fill-rule="evenodd" fill-opacity="1" /><path clip-path="url(#clip890)" d="M 0 0 M144.515 1193.67 L149.399 1193.67 L149.399 1199.55 L144.515 1199.55 L144.515 1193.67 Z" fill="#000000" fill-rule="evenodd" fill-opacity="1" /><path clip-path="url(#clip890)" d="M 0 0 M167.315 1169.07 L155.51 1187.51 L167.315 1187.51 L167.315 1169.07 M166.089 1164.99 L171.968 1164.99 L171.968 1187.51 L176.899 1187.51 L176.899 1191.4 L171.968 1191.4 L171.968 1199.55 L167.315 1199.55 L167.315 1191.4 L151.714 1191.4 L151.714 1186.89 L166.089 1164.99 Z" fill="#000000" fill-rule="evenodd" fill-opacity="1" /><path clip-path="url(#clip890)" d="M 0 0 M130.186 911.772 L118.381 930.221 L130.186 930.221 L130.186 911.772 M128.959 907.698 L134.839 907.698 L134.839 930.221 L139.769 930.221 L139.769 934.11 L134.839 934.11 L134.839 942.258 L130.186 942.258 L130.186 934.11 L114.584 934.11 L114.584 929.596 L128.959 907.698 Z" fill="#000000" fill-rule="evenodd" fill-opacity="1" /><path clip-path="url(#clip890)" d="M 0 0 M144.839 936.379 L149.723 936.379 L149.723 942.258 L144.839 942.258 L144.839 936.379 Z" fill="#000000" fill-rule="evenodd" fill-opacity="1" /><path clip-path="url(#clip890)" d="M 0 0 M165.371 923.115 Q162.223 923.115 160.371 925.268 Q158.542 927.421 158.542 931.171 Q158.542 934.897 160.371 937.073 Q162.223 939.226 165.371 939.226 Q168.519 939.226 170.348 937.073 Q172.2 934.897 172.2 931.171 Q172.2 927.421 170.348 925.268 Q168.519 923.115 165.371 923.115 M174.653 908.462 L174.653 912.722 Q172.894 911.888 171.089 911.448 Q169.306 911.009 167.547 911.009 Q162.917 911.009 160.464 914.134 Q158.033 917.259 157.686 923.578 Q159.052 921.564 161.112 920.499 Q163.172 919.411 165.649 919.411 Q170.857 919.411 173.866 922.583 Q176.899 925.731 176.899 931.171 Q176.899 936.495 173.751 939.712 Q170.602 942.93 165.371 942.93 Q159.376 942.93 156.204 938.346 Q153.033 933.74 153.033 925.013 Q153.033 916.819 156.922 911.958 Q160.811 907.073 167.362 907.073 Q169.121 907.073 170.903 907.421 Q172.709 907.768 174.653 908.462 Z" fill="#000000" fill-rule="evenodd" fill-opacity="1" /><path clip-path="url(#clip890)" d="M 0 0 M130.441 654.48 L118.635 672.929 L130.441 672.929 L130.441 654.48 M129.214 650.405 L135.093 650.405 L135.093 672.929 L140.024 672.929 L140.024 676.817 L135.093 676.817 L135.093 684.965 L130.441 684.965 L130.441 676.817 L114.839 676.817 L114.839 672.304 L129.214 650.405 Z" fill="#000000" fill-rule="evenodd" fill-opacity="1" /><path clip-path="url(#clip890)" d="M 0 0 M145.093 679.086 L149.978 679.086 L149.978 684.965 L145.093 684.965 L145.093 679.086 Z" fill="#000000" fill-rule="evenodd" fill-opacity="1" /><path clip-path="url(#clip890)" d="M 0 0 M165.047 668.554 Q161.714 668.554 159.792 670.336 Q157.894 672.118 157.894 675.243 Q157.894 678.368 159.792 680.151 Q161.714 681.933 165.047 681.933 Q168.38 681.933 170.302 680.151 Q172.223 678.345 172.223 675.243 Q172.223 672.118 170.302 670.336 Q168.403 668.554 165.047 668.554 M160.371 666.563 Q157.362 665.822 155.672 663.762 Q154.005 661.702 154.005 658.739 Q154.005 654.595 156.945 652.188 Q159.908 649.78 165.047 649.78 Q170.209 649.78 173.149 652.188 Q176.089 654.595 176.089 658.739 Q176.089 661.702 174.399 663.762 Q172.732 665.822 169.746 666.563 Q173.126 667.35 175.001 669.641 Q176.899 671.933 176.899 675.243 Q176.899 680.266 173.82 682.952 Q170.764 685.637 165.047 685.637 Q159.329 685.637 156.251 682.952 Q153.195 680.266 153.195 675.243 Q153.195 671.933 155.093 669.641 Q156.991 667.35 160.371 666.563 M158.658 659.179 Q158.658 661.864 160.325 663.368 Q162.015 664.873 165.047 664.873 Q168.056 664.873 169.746 663.368 Q171.459 661.864 171.459 659.179 Q171.459 656.493 169.746 654.989 Q168.056 653.484 165.047 653.484 Q162.015 653.484 160.325 654.989 Q158.658 656.493 158.658 659.179 Z" fill="#000000" fill-rule="evenodd" fill-opacity="1" /><path clip-path="url(#clip890)" d="M 0 0 M119.029 393.113 L137.385 393.113 L137.385 397.048 L123.311 397.048 L123.311 405.52 Q124.33 405.173 125.348 405.011 Q126.367 404.825 127.385 404.825 Q133.172 404.825 136.552 407.997 Q139.931 411.168 139.931 416.585 Q139.931 422.163 136.459 425.265 Q132.987 428.344 126.667 428.344 Q124.492 428.344 122.223 427.973 Q119.978 427.603 117.57 426.862 L117.57 422.163 Q119.654 423.298 121.876 423.853 Q124.098 424.409 126.575 424.409 Q130.58 424.409 132.917 422.302 Q135.255 420.196 135.255 416.585 Q135.255 412.974 132.917 410.867 Q130.58 408.761 126.575 408.761 Q124.7 408.761 122.825 409.177 Q120.973 409.594 119.029 410.474 L119.029 393.113 Z" fill="#000000" fill-rule="evenodd" fill-opacity="1" /><path clip-path="url(#clip890)" d="M 0 0 M145.001 421.793 L149.885 421.793 L149.885 427.673 L145.001 427.673 L145.001 421.793 Z" fill="#000000" fill-rule="evenodd" fill-opacity="1" /><path clip-path="url(#clip890)" d="M 0 0 M164.954 396.191 Q161.343 396.191 159.515 399.756 Q157.709 403.298 157.709 410.427 Q157.709 417.534 159.515 421.099 Q161.343 424.64 164.954 424.64 Q168.589 424.64 170.394 421.099 Q172.223 417.534 172.223 410.427 Q172.223 403.298 170.394 399.756 Q168.589 396.191 164.954 396.191 M164.954 392.488 Q170.764 392.488 173.82 397.094 Q176.899 401.677 176.899 410.427 Q176.899 419.154 173.82 423.761 Q170.764 428.344 164.954 428.344 Q159.144 428.344 156.065 423.761 Q153.01 419.154 153.01 410.427 Q153.01 401.677 156.065 397.094 Q159.144 392.488 164.954 392.488 Z" fill="#000000" fill-rule="evenodd" fill-opacity="1" /><path clip-path="url(#clip890)" d="M 0 0 M120.626 135.82 L138.982 135.82 L138.982 139.755 L124.908 139.755 L124.908 148.227 Q125.927 147.88 126.945 147.718 Q127.964 147.533 128.982 147.533 Q134.769 147.533 138.149 150.704 Q141.529 153.875 141.529 159.292 Q141.529 164.87 138.056 167.972 Q134.584 171.051 128.265 171.051 Q126.089 171.051 123.82 170.681 Q121.575 170.31 119.168 169.569 L119.168 164.87 Q121.251 166.005 123.473 166.56 Q125.695 167.116 128.172 167.116 Q132.177 167.116 134.515 165.009 Q136.853 162.903 136.853 159.292 Q136.853 155.681 134.515 153.574 Q132.177 151.468 128.172 151.468 Q126.297 151.468 124.422 151.884 Q122.57 152.301 120.626 153.181 L120.626 135.82 Z" fill="#000000" fill-rule="evenodd" fill-opacity="1" /><path clip-path="url(#clip890)" d="M 0 0 M146.598 164.5 L151.482 164.5 L151.482 170.38 L146.598 170.38 L146.598 164.5 Z" fill="#000000" fill-rule="evenodd" fill-opacity="1" /><path clip-path="url(#clip890)" d="M 0 0 M160.579 166.444 L176.899 166.444 L176.899 170.38 L154.954 170.38 L154.954 166.444 Q157.616 163.69 162.2 159.06 Q166.806 154.407 167.987 153.065 Q170.232 150.542 171.112 148.806 Q172.014 147.046 172.014 145.357 Q172.014 142.602 170.07 140.866 Q168.149 139.13 165.047 139.13 Q162.848 139.13 160.394 139.894 Q157.964 140.658 155.186 142.208 L155.186 137.486 Q158.01 136.352 160.464 135.773 Q162.917 135.195 164.954 135.195 Q170.325 135.195 173.519 137.88 Q176.714 140.565 176.714 145.056 Q176.714 147.185 175.903 149.107 Q175.116 151.005 173.01 153.597 Q172.431 154.269 169.329 157.486 Q166.227 160.681 160.579 166.444 Z" fill="#000000" fill-rule="evenodd" fill-opacity="1" /><path clip-path="url(#clip890)" d="M 0 0 M59.1993 815.533 Q55.2526 813.336 53.3747 810.281 Q51.4968 807.225 51.4968 803.088 Q51.4968 797.518 55.4117 794.494 Q59.2948 791.47 66.4881 791.47 L88.0042 791.47 L88.0042 797.358 L66.679 797.358 Q61.5546 797.358 59.072 799.173 Q56.5894 800.987 56.5894 804.711 Q56.5894 809.262 59.6131 811.904 Q62.6368 814.546 67.8567 814.546 L88.0042 814.546 L88.0042 820.434 L66.679 820.434 Q61.5228 820.434 59.072 822.248 Q56.5894 824.063 56.5894 827.85 Q56.5894 832.338 59.6449 834.98 Q62.6686 837.622 67.8567 837.622 L88.0042 837.622 L88.0042 843.51 L52.3562 843.51 L52.3562 837.622 L57.8944 837.622 Q54.616 835.616 53.0564 832.815 Q51.4968 830.015 51.4968 826.163 Q51.4968 822.28 53.4702 819.575 Q55.4436 816.838 59.1993 815.533 Z" fill="#000000" fill-rule="evenodd" fill-opacity="1" /><path clip-path="url(#clip890)" d="M 0 0 M52.3562 785.327 L52.3562 779.471 L88.0042 779.471 L88.0042 785.327 L52.3562 785.327 M38.479 785.327 L38.479 779.471 L45.895 779.471 L45.895 785.327 L38.479 785.327 Z" fill="#000000" fill-rule="evenodd" fill-opacity="1" /><path clip-path="url(#clip890)" d="M 0 0 M66.4881 743.696 L88.0042 743.696 L88.0042 749.552 L66.679 749.552 Q61.6183 749.552 59.1038 751.525 Q56.5894 753.499 56.5894 757.446 Q56.5894 762.188 59.6131 764.925 Q62.6368 767.662 67.8567 767.662 L88.0042 767.662 L88.0042 773.551 L52.3562 773.551 L52.3562 767.662 L57.8944 767.662 Q54.6797 765.562 53.0883 762.729 Q51.4968 759.864 51.4968 756.141 Q51.4968 749.998 55.3163 746.847 Q59.1038 743.696 66.4881 743.696 Z" fill="#000000" fill-rule="evenodd" fill-opacity="1" /><path clip-path="url(#clip890)" d="M 0 0 M98.8259 710.467 L103.377 710.467 L103.377 744.332 L98.8259 744.332 L98.8259 710.467 Z" fill="#000000" fill-rule="evenodd" fill-opacity="1" /><path clip-path="url(#clip890)" d="M 0 0 M57.7671 680.866 L38.479 680.866 L38.479 675.01 L88.0042 675.01 L88.0042 680.866 L82.657 680.866 Q85.8398 682.712 87.3994 685.545 Q88.9272 688.346 88.9272 692.292 Q88.9272 698.754 83.771 702.828 Q78.6147 706.87 70.212 706.87 Q61.8093 706.87 56.6531 702.828 Q51.4968 698.754 51.4968 692.292 Q51.4968 688.346 53.0564 685.545 Q54.5842 682.712 57.7671 680.866 M70.212 700.823 Q76.6732 700.823 80.3653 698.181 Q84.0256 695.507 84.0256 690.86 Q84.0256 686.213 80.3653 683.54 Q76.6732 680.866 70.212 680.866 Q63.7508 680.866 60.0905 683.54 Q56.3984 686.213 56.3984 690.86 Q56.3984 695.507 60.0905 698.181 Q63.7508 700.823 70.212 700.823 Z" fill="#000000" fill-rule="evenodd" fill-opacity="1" /><path clip-path="url(#clip890)" d="M 0 0 M52.3562 668.867 L52.3562 663.01 L88.0042 663.01 L88.0042 668.867 L52.3562 668.867 M38.479 668.867 L38.479 663.01 L45.895 663.01 L45.895 668.867 L38.479 668.867 Z" fill="#000000" fill-rule="evenodd" fill-opacity="1" /><path clip-path="url(#clip890)" d="M 0 0 M38.479 638.821 L43.3487 638.821 L43.3487 644.422 Q43.3487 647.573 44.6219 648.815 Q45.895 650.024 49.2052 650.024 L52.3562 650.024 L52.3562 640.38 L56.9077 640.38 L56.9077 650.024 L88.0042 650.024 L88.0042 655.912 L56.9077 655.912 L56.9077 661.514 L52.3562 661.514 L52.3562 655.912 L49.8736 655.912 Q43.9216 655.912 41.2162 653.143 Q38.479 650.374 38.479 644.359 L38.479 638.821 Z" fill="#000000" fill-rule="evenodd" fill-opacity="1" /><path clip-path="url(#clip890)" d="M 0 0 M38.479 614.631 L43.3487 614.631 L43.3487 620.233 Q43.3487 623.384 44.6219 624.625 Q45.895 625.835 49.2052 625.835 L52.3562 625.835 L52.3562 616.19 L56.9077 616.19 L56.9077 625.835 L88.0042 625.835 L88.0042 631.723 L56.9077 631.723 L56.9077 637.325 L52.3562 637.325 L52.3562 631.723 L49.8736 631.723 Q43.9216 631.723 41.2162 628.954 Q38.479 626.185 38.479 620.169 L38.479 614.631 Z" fill="#000000" fill-rule="evenodd" fill-opacity="1" /><path clip-path="url(#clip890)" d="
M1992.65 213.659 L2281.43 213.659 L2281.43 92.6992 L1992.65 92.6992  Z
  " fill="#ffffff" fill-rule="evenodd" fill-opacity="1"/>
<polyline clip-path="url(#clip890)" style="stroke:#000000; stroke-width:4; stroke-opacity:1; fill:none" points="
  1992.65,213.659 2281.43,213.659 2281.43,92.6992 1992.65,92.6992 1992.65,213.659 
  "/>
<polyline clip-path="url(#clip890)" style="stroke:#009af9; stroke-width:4; stroke-opacity:1; fill:none" stroke-dasharray="16, 10" points="
  2016.42,153.179 2159.08,153.179 
  "/>
<path clip-path="url(#clip890)" d="M 0 0 M2196.7 172.867 Q2194.89 177.496 2193.18 178.908 Q2191.47 180.32 2188.6 180.32 L2185.19 180.32 L2185.19 176.755 L2187.69 176.755 Q2189.45 176.755 2190.43 175.922 Q2191.4 175.089 2192.58 171.987 L2193.34 170.043 L2182.86 144.533 L2187.37 144.533 L2195.47 164.811 L2203.57 144.533 L2208.09 144.533 L2196.7 172.867 Z" fill="#000000" fill-rule="evenodd" fill-opacity="1" /><path clip-path="url(#clip890)" d="M 0 0 M2213.97 166.524 L2221.61 166.524 L2221.61 140.158 L2213.3 141.825 L2213.3 137.566 L2221.56 135.899 L2226.24 135.899 L2226.24 166.524 L2233.87 166.524 L2233.87 170.459 L2213.97 170.459 L2213.97 166.524 Z" fill="#000000" fill-rule="evenodd" fill-opacity="1" /></svg>
