<?xml version="1.0" encoding="utf-8"?>
<svg xmlns="http://www.w3.org/2000/svg" xmlns:xlink="http://www.w3.org/1999/xlink" width="600" height="400" viewBox="0 0 2400 1600">
<defs>
  <clipPath id="clip790">
    <rect x="0" y="0" width="2400" height="1600"/>
  </clipPath>
</defs>
<path clip-path="url(#clip790)" d="
M0 1600 L2400 1600 L2400 0 L0 0  Z
  " fill="#ffffff" fill-rule="evenodd" fill-opacity="1"/>
<defs>
  <clipPath id="clip791">
    <rect x="480" y="0" width="1681" height="1600"/>
  </clipPath>
</defs>
<path clip-path="url(#clip790)" d="
M236.903 1410.9 L2352.76 1410.9 L2352.76 47.2441 L236.903 47.2441  Z
  " fill="#ffffff" fill-rule="evenodd" fill-opacity="1"/>
<defs>
  <clipPath id="clip792">
    <rect x="236" y="47" width="2117" height="1365"/>
  </clipPath>
</defs>
<polyline clip-path="url(#clip792)" style="stroke:#000000; stroke-width:2; stroke-opacity:0.1; fill:none" points="
  496.395,1410.9 496.395,47.2441 
  "/>
<polyline clip-path="url(#clip792)" style="stroke:#000000; stroke-width:2; stroke-opacity:0.1; fill:none" points="
  895.612,1410.9 895.612,47.2441 
  "/>
<polyline clip-path="url(#clip792)" style="stroke:#000000; stroke-width:2; stroke-opacity:0.1; fill:none" points="
  1294.83,1410.9 1294.83,47.2441 
  "/>
<polyline clip-path="url(#clip792)" style="stroke:#000000; stroke-width:2; stroke-opacity:0.1; fill:none" points="
  1694.05,1410.9 1694.05,47.2441 
  "/>
<polyline clip-path="url(#clip792)" style="stroke:#000000; stroke-width:2; stroke-opacity:0.1; fill:none" points="
  2093.26,1410.9 2093.26,47.2441 
  "/>
<polyline clip-path="url(#clip790)" style="stroke:#000000; stroke-width:4; stroke-opacity:1; fill:none" points="
  236.903,1410.9 2352.76,1410.9 
  "/>
<polyline clip-path="url(#clip790)" style="stroke:#000000; stroke-width:4; stroke-opacity:1; fill:none" points="
  496.395,1410.9 496.395,1394.53 
  "/>
<polyline clip-path="url(#clip790)" style="stroke:#000000; stroke-width:4; stroke-opacity:1; fill:none" points="
  895.612,1410.9 895.612,1394.53 
  "/>
<polyline clip-path="url(#clip790)" style="stroke:#000000; stroke-width:4; stroke-opacity:1; fill:none" points="
  1294.83,1410.9 1294.83,1394.53 
  "/>
<polyline clip-path="url(#clip790)" style="stroke:#000000; stroke-width:4; stroke-opacity:1; fill:none" points="
  1694.05,1410.9 1694.05,1394.53 
  "/>
<polyline clip-path="url(#clip790)" style="stroke:#000000; stroke-width:4; stroke-opacity:1; fill:none" points="
  2093.26,1410.9 2093.26,1394.53 
  "/>
<path clip-path="url(#clip790)" d="M 0 0 M435.673 1489.17 L443.312 1489.17 L443.312 1462.8 L435.002 1464.47 L435.002 1460.21 L443.266 1458.54 L447.941 1458.54 L447.941 1489.17 L455.58 1489.17 L455.58 1493.1 L435.673 1493.1 L435.673 1489.17 Z" fill="#000000" fill-rule="evenodd" fill-opacity="1" /><path clip-path="url(#clip790)" d="M 0 0 M470.65 1461.62 Q467.039 1461.62 465.21 1465.19 Q463.404 1468.73 463.404 1475.86 Q463.404 1482.97 465.21 1486.53 Q467.039 1490.07 470.65 1490.07 Q474.284 1490.07 476.089 1486.53 Q477.918 1482.97 477.918 1475.86 Q477.918 1468.73 476.089 1465.19 Q474.284 1461.62 470.65 1461.62 M470.65 1457.92 Q476.46 1457.92 479.515 1462.53 Q482.594 1467.11 482.594 1475.86 Q482.594 1484.59 479.515 1489.19 Q476.46 1493.78 470.65 1493.78 Q464.839 1493.78 461.761 1489.19 Q458.705 1484.59 458.705 1475.86 Q458.705 1467.11 461.761 1462.53 Q464.839 1457.92 470.65 1457.92 Z" fill="#000000" fill-rule="evenodd" fill-opacity="1" /><path clip-path="url(#clip790)" d="M 0 0 M482.594 1452.02 L506.706 1452.02 L506.706 1455.22 L482.594 1455.22 L482.594 1452.02 Z" fill="#000000" fill-rule="evenodd" fill-opacity="1" /><path clip-path="url(#clip790)" d="M 0 0 M514.097 1462.5 L527.357 1462.5 L527.357 1465.69 L509.527 1465.69 L509.527 1462.5 Q511.69 1460.26 515.414 1456.5 Q519.156 1452.72 520.116 1451.63 Q521.94 1449.58 522.655 1448.16 Q523.388 1446.74 523.388 1445.36 Q523.388 1443.12 521.808 1441.71 Q520.247 1440.3 517.727 1440.3 Q515.94 1440.3 513.947 1440.92 Q511.972 1441.54 509.715 1442.8 L509.715 1438.97 Q512.009 1438.05 514.003 1437.58 Q515.997 1437.11 517.652 1437.11 Q522.015 1437.11 524.611 1439.29 Q527.206 1441.47 527.206 1445.12 Q527.206 1446.85 526.548 1448.41 Q525.908 1449.95 524.197 1452.06 Q523.727 1452.6 521.206 1455.22 Q518.686 1457.81 514.097 1462.5 Z" fill="#000000" fill-rule="evenodd" fill-opacity="1" /><path clip-path="url(#clip790)" d="M 0 0 M531.475 1460.92 L535.444 1460.92 L535.444 1465.69 L531.475 1465.69 L531.475 1460.92 Z" fill="#000000" fill-rule="evenodd" fill-opacity="1" /><path clip-path="url(#clip790)" d="M 0 0 M550.001 1440.92 L540.409 1455.91 L550.001 1455.91 L550.001 1440.92 M549.004 1437.61 L553.781 1437.61 L553.781 1455.91 L557.787 1455.91 L557.787 1459.07 L553.781 1459.07 L553.781 1465.69 L550.001 1465.69 L550.001 1459.07 L537.325 1459.07 L537.325 1455.41 L549.004 1437.61 Z" fill="#000000" fill-rule="evenodd" fill-opacity="1" /><path clip-path="url(#clip790)" d="M 0 0 M835.737 1489.17 L843.376 1489.17 L843.376 1462.8 L835.066 1464.47 L835.066 1460.21 L843.329 1458.54 L848.005 1458.54 L848.005 1489.17 L855.644 1489.17 L855.644 1493.1 L835.737 1493.1 L835.737 1489.17 Z" fill="#000000" fill-rule="evenodd" fill-opacity="1" /><path clip-path="url(#clip790)" d="M 0 0 M870.713 1461.62 Q867.102 1461.62 865.274 1465.19 Q863.468 1468.73 863.468 1475.86 Q863.468 1482.97 865.274 1486.53 Q867.102 1490.07 870.713 1490.07 Q874.348 1490.07 876.153 1486.53 Q877.982 1482.97 877.982 1475.86 Q877.982 1468.73 876.153 1465.19 Q874.348 1461.62 870.713 1461.62 M870.713 1457.92 Q876.524 1457.92 879.579 1462.53 Q882.658 1467.11 882.658 1475.86 Q882.658 1484.59 879.579 1489.19 Q876.524 1493.78 870.713 1493.78 Q864.903 1493.78 861.825 1489.19 Q858.769 1484.59 858.769 1475.86 Q858.769 1467.11 861.825 1462.53 Q864.903 1457.92 870.713 1457.92 Z" fill="#000000" fill-rule="evenodd" fill-opacity="1" /><path clip-path="url(#clip790)" d="M 0 0 M882.658 1452.02 L906.769 1452.02 L906.769 1455.22 L882.658 1455.22 L882.658 1452.02 Z" fill="#000000" fill-rule="evenodd" fill-opacity="1" /><path clip-path="url(#clip790)" d="M 0 0 M914.161 1462.5 L927.42 1462.5 L927.42 1465.69 L909.591 1465.69 L909.591 1462.5 Q911.753 1460.26 915.477 1456.5 Q919.22 1452.72 920.179 1451.63 Q922.004 1449.58 922.718 1448.16 Q923.452 1446.74 923.452 1445.36 Q923.452 1443.12 921.872 1441.71 Q920.311 1440.3 917.791 1440.3 Q916.004 1440.3 914.01 1440.92 Q912.036 1441.54 909.779 1442.8 L909.779 1438.97 Q912.073 1438.05 914.067 1437.58 Q916.06 1437.11 917.716 1437.11 Q922.079 1437.11 924.674 1439.29 Q927.27 1441.47 927.27 1445.12 Q927.27 1446.85 926.612 1448.41 Q925.972 1449.95 924.261 1452.06 Q923.79 1452.6 921.27 1455.22 Q918.75 1457.81 914.161 1462.5 Z" fill="#000000" fill-rule="evenodd" fill-opacity="1" /><path clip-path="url(#clip790)" d="M 0 0 M931.539 1460.92 L935.508 1460.92 L935.508 1465.69 L931.539 1465.69 L931.539 1460.92 Z" fill="#000000" fill-rule="evenodd" fill-opacity="1" /><path clip-path="url(#clip790)" d="M 0 0 M942.899 1462.5 L956.159 1462.5 L956.159 1465.69 L938.329 1465.69 L938.329 1462.5 Q940.492 1460.26 944.216 1456.5 Q947.958 1452.72 948.918 1451.63 Q950.742 1449.58 951.457 1448.16 Q952.19 1446.74 952.19 1445.36 Q952.19 1443.12 950.61 1441.71 Q949.049 1440.3 946.529 1440.3 Q944.742 1440.3 942.749 1440.92 Q940.774 1441.54 938.517 1442.8 L938.517 1438.97 Q940.811 1438.05 942.805 1437.58 Q944.799 1437.11 946.454 1437.11 Q950.817 1437.11 953.413 1439.29 Q956.008 1441.47 956.008 1445.12 Q956.008 1446.85 955.35 1448.41 Q954.71 1449.95 952.999 1452.06 Q952.529 1452.6 950.008 1455.22 Q947.488 1457.81 942.899 1462.5 Z" fill="#000000" fill-rule="evenodd" fill-opacity="1" /><path clip-path="url(#clip790)" d="M 0 0 M1234.31 1489.17 L1241.94 1489.17 L1241.94 1462.8 L1233.63 1464.47 L1233.63 1460.21 L1241.9 1458.54 L1246.57 1458.54 L1246.57 1489.17 L1254.21 1489.17 L1254.21 1493.1 L1234.31 1493.1 L1234.31 1489.17 Z" fill="#000000" fill-rule="evenodd" fill-opacity="1" /><path clip-path="url(#clip790)" d="M 0 0 M1269.28 1461.62 Q1265.67 1461.62 1263.84 1465.19 Q1262.04 1468.73 1262.04 1475.86 Q1262.04 1482.97 1263.84 1486.53 Q1265.67 1490.07 1269.28 1490.07 Q1272.92 1490.07 1274.72 1486.53 Q1276.55 1482.97 1276.55 1475.86 Q1276.55 1468.73 1274.72 1465.19 Q1272.92 1461.62 1269.28 1461.62 M1269.28 1457.92 Q1275.09 1457.92 1278.15 1462.53 Q1281.23 1467.11 1281.23 1475.86 Q1281.23 1484.59 1278.15 1489.19 Q1275.09 1493.78 1269.28 1493.78 Q1263.47 1493.78 1260.39 1489.19 Q1257.34 1484.59 1257.34 1475.86 Q1257.34 1467.11 1260.39 1462.53 Q1263.47 1457.92 1269.28 1457.92 Z" fill="#000000" fill-rule="evenodd" fill-opacity="1" /><path clip-path="url(#clip790)" d="M 0 0 M1281.23 1452.02 L1305.34 1452.02 L1305.34 1455.22 L1281.23 1455.22 L1281.23 1452.02 Z" fill="#000000" fill-rule="evenodd" fill-opacity="1" /><path clip-path="url(#clip790)" d="M 0 0 M1312.73 1462.5 L1325.99 1462.5 L1325.99 1465.69 L1308.16 1465.69 L1308.16 1462.5 Q1310.32 1460.26 1314.05 1456.5 Q1317.79 1452.72 1318.75 1451.63 Q1320.57 1449.58 1321.29 1448.16 Q1322.02 1446.74 1322.02 1445.36 Q1322.02 1443.12 1320.44 1441.71 Q1318.88 1440.3 1316.36 1440.3 Q1314.57 1440.3 1312.58 1440.92 Q1310.6 1441.54 1308.35 1442.8 L1308.35 1438.97 Q1310.64 1438.05 1312.64 1437.58 Q1314.63 1437.11 1316.28 1437.11 Q1320.65 1437.11 1323.24 1439.29 Q1325.84 1441.47 1325.84 1445.12 Q1325.84 1446.85 1325.18 1448.41 Q1324.54 1449.95 1322.83 1452.06 Q1322.36 1452.6 1319.84 1455.22 Q1317.32 1457.81 1312.73 1462.5 Z" fill="#000000" fill-rule="evenodd" fill-opacity="1" /><path clip-path="url(#clip790)" d="M 0 0 M1330.11 1460.92 L1334.08 1460.92 L1334.08 1465.69 L1330.11 1465.69 L1330.11 1460.92 Z" fill="#000000" fill-rule="evenodd" fill-opacity="1" /><path clip-path="url(#clip790)" d="M 0 0 M1346.32 1440.11 Q1343.39 1440.11 1341.9 1443.01 Q1340.43 1445.89 1340.43 1451.68 Q1340.43 1457.46 1341.9 1460.35 Q1343.39 1463.23 1346.32 1463.23 Q1349.27 1463.23 1350.74 1460.35 Q1352.23 1457.46 1352.23 1451.68 Q1352.23 1445.89 1350.74 1443.01 Q1349.27 1440.11 1346.32 1440.11 M1346.32 1437.11 Q1351.04 1437.11 1353.52 1440.85 Q1356.02 1444.57 1356.02 1451.68 Q1356.02 1458.77 1353.52 1462.51 Q1351.04 1466.24 1346.32 1466.24 Q1341.6 1466.24 1339.1 1462.51 Q1336.62 1458.77 1336.62 1451.68 Q1336.62 1444.57 1339.1 1440.85 Q1341.6 1437.11 1346.32 1437.11 Z" fill="#000000" fill-rule="evenodd" fill-opacity="1" /><path clip-path="url(#clip790)" d="M 0 0 M1633.41 1489.17 L1641.05 1489.17 L1641.05 1462.8 L1632.74 1464.47 L1632.74 1460.21 L1641 1458.54 L1645.68 1458.54 L1645.68 1489.17 L1653.32 1489.17 L1653.32 1493.1 L1633.41 1493.1 L1633.41 1489.17 Z" fill="#000000" fill-rule="evenodd" fill-opacity="1" /><path clip-path="url(#clip790)" d="M 0 0 M1668.39 1461.62 Q1664.78 1461.62 1662.95 1465.19 Q1661.14 1468.73 1661.14 1475.86 Q1661.14 1482.97 1662.95 1486.53 Q1664.78 1490.07 1668.39 1490.07 Q1672.02 1490.07 1673.83 1486.53 Q1675.66 1482.97 1675.66 1475.86 Q1675.66 1468.73 1673.83 1465.19 Q1672.02 1461.62 1668.39 1461.62 M1668.39 1457.92 Q1674.2 1457.92 1677.25 1462.53 Q1680.33 1467.11 1680.33 1475.86 Q1680.33 1484.59 1677.25 1489.19 Q1674.2 1493.78 1668.39 1493.78 Q1662.58 1493.78 1659.5 1489.19 Q1656.44 1484.59 1656.44 1475.86 Q1656.44 1467.11 1659.5 1462.53 Q1662.58 1457.92 1668.39 1457.92 Z" fill="#000000" fill-rule="evenodd" fill-opacity="1" /><path clip-path="url(#clip790)" d="M 0 0 M1680.33 1452.02 L1704.44 1452.02 L1704.44 1455.22 L1680.33 1455.22 L1680.33 1452.02 Z" fill="#000000" fill-rule="evenodd" fill-opacity="1" /><path clip-path="url(#clip790)" d="M 0 0 M1709.22 1462.5 L1715.43 1462.5 L1715.43 1441.07 L1708.67 1442.43 L1708.67 1438.97 L1715.39 1437.61 L1719.19 1437.61 L1719.19 1462.5 L1725.39 1462.5 L1725.39 1465.69 L1709.22 1465.69 L1709.22 1462.5 Z" fill="#000000" fill-rule="evenodd" fill-opacity="1" /><path clip-path="url(#clip790)" d="M 0 0 M1729.51 1460.92 L1733.48 1460.92 L1733.48 1465.69 L1729.51 1465.69 L1729.51 1460.92 Z" fill="#000000" fill-rule="evenodd" fill-opacity="1" /><path clip-path="url(#clip790)" d="M 0 0 M1745.73 1452.36 Q1743.02 1452.36 1741.46 1453.81 Q1739.91 1455.26 1739.91 1457.79 Q1739.91 1460.33 1741.46 1461.78 Q1743.02 1463.23 1745.73 1463.23 Q1748.43 1463.23 1750 1461.78 Q1751.56 1460.31 1751.56 1457.79 Q1751.56 1455.26 1750 1453.81 Q1748.45 1452.36 1745.73 1452.36 M1741.93 1450.74 Q1739.48 1450.14 1738.11 1448.47 Q1736.75 1446.79 1736.75 1444.38 Q1736.75 1441.02 1739.14 1439.06 Q1741.55 1437.11 1745.73 1437.11 Q1749.92 1437.11 1752.31 1439.06 Q1754.7 1441.02 1754.7 1444.38 Q1754.7 1446.79 1753.32 1448.47 Q1751.97 1450.14 1749.54 1450.74 Q1752.29 1451.38 1753.81 1453.24 Q1755.36 1455.1 1755.36 1457.79 Q1755.36 1461.88 1752.85 1464.06 Q1750.37 1466.24 1745.73 1466.24 Q1741.08 1466.24 1738.58 1464.06 Q1736.1 1461.88 1736.1 1457.79 Q1736.1 1455.1 1737.64 1453.24 Q1739.18 1451.38 1741.93 1450.74 M1740.53 1444.74 Q1740.53 1446.92 1741.89 1448.15 Q1743.26 1449.37 1745.73 1449.37 Q1748.17 1449.37 1749.54 1448.15 Q1750.94 1446.92 1750.94 1444.74 Q1750.94 1442.56 1749.54 1441.34 Q1748.17 1440.11 1745.73 1440.11 Q1743.26 1440.11 1741.89 1441.34 Q1740.53 1442.56 1740.53 1444.74 Z" fill="#000000" fill-rule="evenodd" fill-opacity="1" /><path clip-path="url(#clip790)" d="M 0 0 M2032.52 1489.17 L2040.16 1489.17 L2040.16 1462.8 L2031.85 1464.47 L2031.85 1460.21 L2040.12 1458.54 L2044.79 1458.54 L2044.79 1489.17 L2052.43 1489.17 L2052.43 1493.1 L2032.52 1493.1 L2032.52 1489.17 Z" fill="#000000" fill-rule="evenodd" fill-opacity="1" /><path clip-path="url(#clip790)" d="M 0 0 M2067.5 1461.62 Q2063.89 1461.62 2062.06 1465.19 Q2060.26 1468.73 2060.26 1475.86 Q2060.26 1482.97 2062.06 1486.53 Q2063.89 1490.07 2067.5 1490.07 Q2071.14 1490.07 2072.94 1486.53 Q2074.77 1482.97 2074.77 1475.86 Q2074.77 1468.73 2072.94 1465.19 Q2071.14 1461.62 2067.5 1461.62 M2067.5 1457.92 Q2073.31 1457.92 2076.37 1462.53 Q2079.45 1467.11 2079.45 1475.86 Q2079.45 1484.59 2076.37 1489.19 Q2073.31 1493.78 2067.5 1493.78 Q2061.69 1493.78 2058.61 1489.19 Q2055.56 1484.59 2055.56 1475.86 Q2055.56 1467.11 2058.61 1462.53 Q2061.69 1457.92 2067.5 1457.92 Z" fill="#000000" fill-rule="evenodd" fill-opacity="1" /><path clip-path="url(#clip790)" d="M 0 0 M2079.45 1452.02 L2103.56 1452.02 L2103.56 1455.22 L2079.45 1455.22 L2079.45 1452.02 Z" fill="#000000" fill-rule="evenodd" fill-opacity="1" /><path clip-path="url(#clip790)" d="M 0 0 M2108.33 1462.5 L2114.54 1462.5 L2114.54 1441.07 L2107.79 1442.43 L2107.79 1438.97 L2114.5 1437.61 L2118.3 1437.61 L2118.3 1462.5 L2124.51 1462.5 L2124.51 1465.69 L2108.33 1465.69 L2108.33 1462.5 Z" fill="#000000" fill-rule="evenodd" fill-opacity="1" /><path clip-path="url(#clip790)" d="M 0 0 M2128.63 1460.92 L2132.6 1460.92 L2132.6 1465.69 L2128.63 1465.69 L2128.63 1460.92 Z" fill="#000000" fill-rule="evenodd" fill-opacity="1" /><path clip-path="url(#clip790)" d="M 0 0 M2145.31 1450.14 Q2142.75 1450.14 2141.25 1451.89 Q2139.76 1453.64 2139.76 1456.68 Q2139.76 1459.71 2141.25 1461.48 Q2142.75 1463.23 2145.31 1463.23 Q2147.87 1463.23 2149.35 1461.48 Q2150.86 1459.71 2150.86 1456.68 Q2150.86 1453.64 2149.35 1451.89 Q2147.87 1450.14 2145.31 1450.14 M2152.85 1438.23 L2152.85 1441.69 Q2151.42 1441.02 2149.96 1440.66 Q2148.51 1440.3 2147.08 1440.3 Q2143.32 1440.3 2141.32 1442.84 Q2139.35 1445.38 2139.07 1450.52 Q2140.18 1448.88 2141.85 1448.01 Q2143.52 1447.13 2145.54 1447.13 Q2149.77 1447.13 2152.21 1449.71 Q2154.68 1452.26 2154.68 1456.68 Q2154.68 1461.01 2152.12 1463.62 Q2149.56 1466.24 2145.31 1466.24 Q2140.44 1466.24 2137.86 1462.51 Q2135.29 1458.77 2135.29 1451.68 Q2135.29 1445.02 2138.45 1441.07 Q2141.6 1437.11 2146.93 1437.11 Q2148.36 1437.11 2149.81 1437.39 Q2151.27 1437.67 2152.85 1438.23 Z" fill="#000000" fill-rule="evenodd" fill-opacity="1" /><path clip-path="url(#clip790)" d="M 0 0 M1187.11 1526.54 L1193.31 1526.54 L1204.45 1556.46 L1215.59 1526.54 L1221.8 1526.54 L1208.43 1562.19 L1200.47 1562.19 L1187.11 1526.54 Z" fill="#000000" fill-rule="evenodd" fill-opacity="1" /><path clip-path="url(#clip790)" d="M 0 0 M1255.03 1573.01 L1255.03 1577.56 L1221.16 1577.56 L1221.16 1573.01 L1255.03 1573.01 Z" fill="#000000" fill-rule="evenodd" fill-opacity="1" /><path clip-path="url(#clip790)" d="M 0 0 M1286.82 1527.91 L1286.82 1533.38 Q1284.34 1532.01 1281.83 1531.34 Q1279.34 1530.64 1276.8 1530.64 Q1271.1 1530.64 1267.95 1534.27 Q1264.8 1537.87 1264.8 1544.39 Q1264.8 1550.92 1267.95 1554.55 Q1271.1 1558.14 1276.8 1558.14 Q1279.34 1558.14 1281.83 1557.47 Q1284.34 1556.77 1286.82 1555.41 L1286.82 1560.82 Q1284.37 1561.96 1281.73 1562.54 Q1279.12 1563.11 1276.16 1563.11 Q1268.11 1563.11 1263.37 1558.05 Q1258.62 1552.99 1258.62 1544.39 Q1258.62 1535.67 1263.4 1530.68 Q1268.2 1525.68 1276.54 1525.68 Q1279.25 1525.68 1281.83 1526.25 Q1284.41 1526.79 1286.82 1527.91 Z" fill="#000000" fill-rule="evenodd" fill-opacity="1" /><path clip-path="url(#clip790)" d="M 0 0 M1292.97 1512.66 L1298.82 1512.66 L1298.82 1562.19 L1292.97 1562.19 L1292.97 1512.66 Z" fill="#000000" fill-rule="evenodd" fill-opacity="1" /><path clip-path="url(#clip790)" d="M 0 0 M1318.78 1530.64 Q1314.07 1530.64 1311.33 1534.34 Q1308.6 1538 1308.6 1544.39 Q1308.6 1550.79 1311.3 1554.48 Q1314.04 1558.14 1318.78 1558.14 Q1323.46 1558.14 1326.2 1554.45 Q1328.93 1550.76 1328.93 1544.39 Q1328.93 1538.06 1326.2 1534.37 Q1323.46 1530.64 1318.78 1530.64 M1318.78 1525.68 Q1326.42 1525.68 1330.78 1530.64 Q1335.14 1535.61 1335.14 1544.39 Q1335.14 1553.15 1330.78 1558.14 Q1326.42 1563.11 1318.78 1563.11 Q1311.11 1563.11 1306.75 1558.14 Q1302.42 1553.15 1302.42 1544.39 Q1302.42 1535.61 1306.75 1530.64 Q1311.11 1525.68 1318.78 1525.68 Z" fill="#000000" fill-rule="evenodd" fill-opacity="1" /><path clip-path="url(#clip790)" d="M 0 0 M1364.01 1527.59 L1364.01 1533.13 Q1361.53 1531.85 1358.85 1531.22 Q1356.18 1530.58 1353.31 1530.58 Q1348.95 1530.58 1346.76 1531.92 Q1344.59 1533.25 1344.59 1535.93 Q1344.59 1537.96 1346.15 1539.14 Q1347.71 1540.29 1352.42 1541.34 L1354.43 1541.78 Q1360.67 1543.12 1363.28 1545.57 Q1365.92 1547.99 1365.92 1552.35 Q1365.92 1557.32 1361.97 1560.21 Q1358.06 1563.11 1351.18 1563.11 Q1348.32 1563.11 1345.2 1562.54 Q1342.11 1561.99 1338.67 1560.88 L1338.67 1554.83 Q1341.92 1556.52 1345.07 1557.38 Q1348.22 1558.21 1351.31 1558.21 Q1355.45 1558.21 1357.67 1556.81 Q1359.9 1555.37 1359.9 1552.8 Q1359.9 1550.41 1358.28 1549.14 Q1356.69 1547.86 1351.25 1546.68 L1349.21 1546.21 Q1343.77 1545.06 1341.35 1542.71 Q1338.93 1540.32 1338.93 1536.18 Q1338.93 1531.15 1342.49 1528.42 Q1346.06 1525.68 1352.61 1525.68 Q1355.86 1525.68 1358.73 1526.16 Q1361.59 1526.63 1364.01 1527.59 Z" fill="#000000" fill-rule="evenodd" fill-opacity="1" /><path clip-path="url(#clip790)" d="M 0 0 M1402.55 1542.9 L1402.55 1545.76 L1375.63 1545.76 Q1376.01 1551.81 1379.25 1554.99 Q1382.53 1558.14 1388.36 1558.14 Q1391.73 1558.14 1394.88 1557.32 Q1398.07 1556.49 1401.18 1554.83 L1401.18 1560.37 Q1398.03 1561.71 1394.72 1562.41 Q1391.41 1563.11 1388.01 1563.11 Q1379.48 1563.11 1374.48 1558.14 Q1369.52 1553.18 1369.52 1544.71 Q1369.52 1535.96 1374.23 1530.83 Q1378.97 1525.68 1386.99 1525.68 Q1394.18 1525.68 1398.35 1530.33 Q1402.55 1534.94 1402.55 1542.9 M1396.7 1541.18 Q1396.63 1536.37 1393.99 1533.51 Q1391.38 1530.64 1387.05 1530.64 Q1382.15 1530.64 1379.19 1533.41 Q1376.26 1536.18 1375.82 1541.21 L1396.7 1541.18 Z" fill="#000000" fill-rule="evenodd" fill-opacity="1" /><polyline clip-path="url(#clip792)" style="stroke:#000000; stroke-width:2; stroke-opacity:0.1; fill:none" points="
  236.903,1276.79 2352.76,1276.79 
  "/>
<polyline clip-path="url(#clip792)" style="stroke:#000000; stroke-width:2; stroke-opacity:0.1; fill:none" points="
  236.903,1096.1 2352.76,1096.1 
  "/>
<polyline clip-path="url(#clip792)" style="stroke:#000000; stroke-width:2; stroke-opacity:0.1; fill:none" points="
  236.903,915.402 2352.76,915.402 
  "/>
<polyline clip-path="url(#clip792)" style="stroke:#000000; stroke-width:2; stroke-opacity:0.1; fill:none" points="
  236.903,734.707 2352.76,734.707 
  "/>
<polyline clip-path="url(#clip792)" style="stroke:#000000; stroke-width:2; stroke-opacity:0.1; fill:none" points="
  236.903,554.012 2352.76,554.012 
  "/>
<polyline clip-path="url(#clip792)" style="stroke:#000000; stroke-width:2; stroke-opacity:0.1; fill:none" points="
  236.903,373.318 2352.76,373.318 
  "/>
<polyline clip-path="url(#clip792)" style="stroke:#000000; stroke-width:2; stroke-opacity:0.1; fill:none" points="
  236.903,192.623 2352.76,192.623 
  "/>
<polyline clip-path="url(#clip790)" style="stroke:#000000; stroke-width:4; stroke-opacity:1; fill:none" points="
  236.903,1410.9 236.903,47.2441 
  "/>
<polyline clip-path="url(#clip790)" style="stroke:#000000; stroke-width:4; stroke-opacity:1; fill:none" points="
  236.903,1276.79 262.293,1276.79 
  "/>
<polyline clip-path="url(#clip790)" style="stroke:#000000; stroke-width:4; stroke-opacity:1; fill:none" points="
  236.903,1096.1 262.293,1096.1 
  "/>
<polyline clip-path="url(#clip790)" style="stroke:#000000; stroke-width:4; stroke-opacity:1; fill:none" points="
  236.903,915.402 262.293,915.402 
  "/>
<polyline clip-path="url(#clip790)" style="stroke:#000000; stroke-width:4; stroke-opacity:1; fill:none" points="
  236.903,734.707 262.293,734.707 
  "/>
<polyline clip-path="url(#clip790)" style="stroke:#000000; stroke-width:4; stroke-opacity:1; fill:none" points="
  236.903,554.012 262.293,554.012 
  "/>
<polyline clip-path="url(#clip790)" style="stroke:#000000; stroke-width:4; stroke-opacity:1; fill:none" points="
  236.903,373.318 262.293,373.318 
  "/>
<polyline clip-path="url(#clip790)" style="stroke:#000000; stroke-width:4; stroke-opacity:1; fill:none" points="
  236.903,192.623 262.293,192.623 
  "/>
<path clip-path="url(#clip790)" d="M 0 0 M130.626 1275.44 Q133.982 1276.15 135.857 1278.42 Q137.755 1280.69 137.755 1284.02 Q137.755 1289.14 134.237 1291.94 Q130.718 1294.74 124.237 1294.74 Q122.061 1294.74 119.746 1294.3 Q117.455 1293.89 115.001 1293.03 L115.001 1288.52 Q116.945 1289.65 119.26 1290.23 Q121.575 1290.81 124.098 1290.81 Q128.496 1290.81 130.788 1289.07 Q133.103 1287.33 133.103 1284.02 Q133.103 1280.97 130.95 1279.26 Q128.82 1277.52 125.001 1277.52 L120.973 1277.52 L120.973 1273.68 L125.186 1273.68 Q128.635 1273.68 130.464 1272.31 Q132.292 1270.92 132.292 1268.33 Q132.292 1265.67 130.394 1264.26 Q128.519 1262.82 125.001 1262.82 Q123.08 1262.82 120.88 1263.24 Q118.681 1263.65 116.043 1264.53 L116.043 1260.37 Q118.705 1259.63 121.019 1259.26 Q123.357 1258.89 125.418 1258.89 Q130.742 1258.89 133.843 1261.32 Q136.945 1263.72 136.945 1267.84 Q136.945 1270.71 135.302 1272.71 Q133.658 1274.67 130.626 1275.44 Z" fill="#000000" fill-rule="evenodd" fill-opacity="1" /><path clip-path="url(#clip790)" d="M 0 0 M142.825 1288.19 L147.709 1288.19 L147.709 1294.07 L142.825 1294.07 L142.825 1288.19 Z" fill="#000000" fill-rule="evenodd" fill-opacity="1" /><path clip-path="url(#clip790)" d="M 0 0 M163.357 1274.93 Q160.209 1274.93 158.357 1277.08 Q156.528 1279.23 156.528 1282.98 Q156.528 1286.71 158.357 1288.89 Q160.209 1291.04 163.357 1291.04 Q166.505 1291.04 168.334 1288.89 Q170.186 1286.71 170.186 1282.98 Q170.186 1279.23 168.334 1277.08 Q166.505 1274.93 163.357 1274.93 M172.639 1260.27 L172.639 1264.53 Q170.88 1263.7 169.075 1263.26 Q167.292 1262.82 165.533 1262.82 Q160.903 1262.82 158.45 1265.95 Q156.019 1269.07 155.672 1275.39 Q157.038 1273.38 159.098 1272.31 Q161.158 1271.22 163.635 1271.22 Q168.843 1271.22 171.852 1274.4 Q174.885 1277.54 174.885 1282.98 Q174.885 1288.31 171.737 1291.52 Q168.589 1294.74 163.357 1294.74 Q157.362 1294.74 154.19 1290.16 Q151.019 1285.55 151.019 1276.83 Q151.019 1268.63 154.908 1263.77 Q158.797 1258.89 165.348 1258.89 Q167.107 1258.89 168.889 1259.23 Q170.695 1259.58 172.639 1260.27 Z" fill="#000000" fill-rule="evenodd" fill-opacity="1" /><path clip-path="url(#clip790)" d="M 0 0 M180.001 1259.51 L198.357 1259.51 L198.357 1263.45 L184.283 1263.45 L184.283 1271.92 Q185.301 1271.57 186.32 1271.41 Q187.338 1271.22 188.357 1271.22 Q194.144 1271.22 197.524 1274.4 Q200.903 1277.57 200.903 1282.98 Q200.903 1288.56 197.431 1291.66 Q193.959 1294.74 187.639 1294.74 Q185.463 1294.74 183.195 1294.37 Q180.95 1294 178.542 1293.26 L178.542 1288.56 Q180.626 1289.7 182.848 1290.25 Q185.07 1290.81 187.547 1290.81 Q191.551 1290.81 193.889 1288.7 Q196.227 1286.59 196.227 1282.98 Q196.227 1279.37 193.889 1277.27 Q191.551 1275.16 187.547 1275.16 Q185.672 1275.16 183.797 1275.58 Q181.945 1275.99 180.001 1276.87 L180.001 1259.51 Z" fill="#000000" fill-rule="evenodd" fill-opacity="1" /><path clip-path="url(#clip790)" d="M 0 0 M130.695 1094.74 Q134.052 1095.46 135.927 1097.73 Q137.825 1100 137.825 1103.33 Q137.825 1108.45 134.306 1111.25 Q130.788 1114.05 124.306 1114.05 Q122.13 1114.05 119.816 1113.61 Q117.524 1113.19 115.07 1112.33 L115.07 1107.82 Q117.015 1108.95 119.33 1109.53 Q121.644 1110.11 124.168 1110.11 Q128.566 1110.11 130.857 1108.38 Q133.172 1106.64 133.172 1103.33 Q133.172 1100.27 131.019 1098.56 Q128.89 1096.83 125.07 1096.83 L121.043 1096.83 L121.043 1092.98 L125.255 1092.98 Q128.705 1092.98 130.533 1091.62 Q132.362 1090.23 132.362 1087.64 Q132.362 1084.97 130.464 1083.56 Q128.589 1082.13 125.07 1082.13 Q123.149 1082.13 120.95 1082.54 Q118.751 1082.96 116.112 1083.84 L116.112 1079.67 Q118.774 1078.93 121.089 1078.56 Q123.427 1078.19 125.487 1078.19 Q130.811 1078.19 133.913 1080.62 Q137.015 1083.03 137.015 1087.15 Q137.015 1090.02 135.371 1092.01 Q133.728 1093.98 130.695 1094.74 Z" fill="#000000" fill-rule="evenodd" fill-opacity="1" /><path clip-path="url(#clip790)" d="M 0 0 M142.894 1107.5 L147.778 1107.5 L147.778 1113.38 L142.894 1113.38 L142.894 1107.5 Z" fill="#000000" fill-rule="evenodd" fill-opacity="1" /><path clip-path="url(#clip790)" d="M 0 0 M151.667 1078.82 L173.889 1078.82 L173.889 1080.81 L161.343 1113.38 L156.459 1113.38 L168.264 1082.75 L151.667 1082.75 L151.667 1078.82 Z" fill="#000000" fill-rule="evenodd" fill-opacity="1" /><path clip-path="url(#clip790)" d="M 0 0 M188.959 1081.89 Q185.348 1081.89 183.519 1085.46 Q181.713 1089 181.713 1096.13 Q181.713 1103.24 183.519 1106.8 Q185.348 1110.34 188.959 1110.34 Q192.593 1110.34 194.399 1106.8 Q196.227 1103.24 196.227 1096.13 Q196.227 1089 194.399 1085.46 Q192.593 1081.89 188.959 1081.89 M188.959 1078.19 Q194.769 1078.19 197.825 1082.8 Q200.903 1087.38 200.903 1096.13 Q200.903 1104.86 197.825 1109.46 Q194.769 1114.05 188.959 1114.05 Q183.149 1114.05 180.07 1109.46 Q177.014 1104.86 177.014 1096.13 Q177.014 1087.38 180.07 1082.8 Q183.149 1078.19 188.959 1078.19 Z" fill="#000000" fill-rule="evenodd" fill-opacity="1" /><path clip-path="url(#clip790)" d="M 0 0 M131.691 914.047 Q135.047 914.765 136.922 917.033 Q138.82 919.302 138.82 922.635 Q138.82 927.751 135.302 930.552 Q131.783 933.353 125.302 933.353 Q123.126 933.353 120.811 932.913 Q118.519 932.496 116.066 931.64 L116.066 927.126 Q118.01 928.26 120.325 928.839 Q122.64 929.418 125.163 929.418 Q129.561 929.418 131.853 927.682 Q134.167 925.945 134.167 922.635 Q134.167 919.58 132.015 917.867 Q129.885 916.131 126.066 916.131 L122.038 916.131 L122.038 912.288 L126.251 912.288 Q129.7 912.288 131.529 910.922 Q133.357 909.534 133.357 906.941 Q133.357 904.279 131.459 902.867 Q129.584 901.432 126.066 901.432 Q124.144 901.432 121.945 901.848 Q119.746 902.265 117.107 903.145 L117.107 898.978 Q119.769 898.237 122.084 897.867 Q124.422 897.497 126.482 897.497 Q131.806 897.497 134.908 899.927 Q138.01 902.334 138.01 906.455 Q138.01 909.325 136.367 911.316 Q134.723 913.284 131.691 914.047 Z" fill="#000000" fill-rule="evenodd" fill-opacity="1" /><path clip-path="url(#clip790)" d="M 0 0 M143.89 926.802 L148.774 926.802 L148.774 932.682 L143.89 932.682 L143.89 926.802 Z" fill="#000000" fill-rule="evenodd" fill-opacity="1" /><path clip-path="url(#clip790)" d="M 0 0 M152.663 898.122 L174.885 898.122 L174.885 900.112 L162.339 932.682 L157.454 932.682 L169.26 902.057 L152.663 902.057 L152.663 898.122 Z" fill="#000000" fill-rule="evenodd" fill-opacity="1" /><path clip-path="url(#clip790)" d="M 0 0 M180.001 898.122 L198.357 898.122 L198.357 902.057 L184.283 902.057 L184.283 910.529 Q185.301 910.182 186.32 910.02 Q187.338 909.834 188.357 909.834 Q194.144 909.834 197.524 913.006 Q200.903 916.177 200.903 921.594 Q200.903 927.172 197.431 930.274 Q193.959 933.353 187.639 933.353 Q185.463 933.353 183.195 932.982 Q180.95 932.612 178.542 931.871 L178.542 927.172 Q180.626 928.307 182.848 928.862 Q185.07 929.418 187.547 929.418 Q191.551 929.418 193.889 927.311 Q196.227 925.205 196.227 921.594 Q196.227 917.983 193.889 915.876 Q191.551 913.77 187.547 913.77 Q185.672 913.77 183.797 914.186 Q181.945 914.603 180.001 915.483 L180.001 898.122 Z" fill="#000000" fill-rule="evenodd" fill-opacity="1" /><path clip-path="url(#clip790)" d="M 0 0 M129.885 733.353 Q133.242 734.07 135.117 736.339 Q137.015 738.607 137.015 741.941 Q137.015 747.056 133.496 749.857 Q129.978 752.658 123.496 752.658 Q121.32 752.658 119.006 752.218 Q116.714 751.802 114.26 750.945 L114.26 746.431 Q116.205 747.566 118.519 748.144 Q120.834 748.723 123.357 748.723 Q127.755 748.723 130.047 746.987 Q132.362 745.251 132.362 741.941 Q132.362 738.885 130.209 737.172 Q128.08 735.436 124.26 735.436 L120.232 735.436 L120.232 731.593 L124.445 731.593 Q127.894 731.593 129.723 730.228 Q131.552 728.839 131.552 726.246 Q131.552 723.584 129.654 722.172 Q127.779 720.737 124.26 720.737 Q122.339 720.737 120.14 721.154 Q117.941 721.57 115.302 722.45 L115.302 718.283 Q117.964 717.543 120.279 717.172 Q122.617 716.802 124.677 716.802 Q130.001 716.802 133.103 719.232 Q136.204 721.64 136.204 725.76 Q136.204 728.631 134.561 730.621 Q132.917 732.589 129.885 733.353 Z" fill="#000000" fill-rule="evenodd" fill-opacity="1" /><path clip-path="url(#clip790)" d="M 0 0 M142.084 746.107 L146.968 746.107 L146.968 751.987 L142.084 751.987 L142.084 746.107 Z" fill="#000000" fill-rule="evenodd" fill-opacity="1" /><path clip-path="url(#clip790)" d="M 0 0 M162.038 735.575 Q158.704 735.575 156.783 737.357 Q154.885 739.14 154.885 742.265 Q154.885 745.39 156.783 747.172 Q158.704 748.955 162.038 748.955 Q165.371 748.955 167.292 747.172 Q169.214 745.367 169.214 742.265 Q169.214 739.14 167.292 737.357 Q165.394 735.575 162.038 735.575 M157.362 733.584 Q154.353 732.843 152.663 730.783 Q150.996 728.723 150.996 725.76 Q150.996 721.617 153.936 719.209 Q156.899 716.802 162.038 716.802 Q167.2 716.802 170.139 719.209 Q173.079 721.617 173.079 725.76 Q173.079 728.723 171.389 730.783 Q169.723 732.843 166.737 733.584 Q170.116 734.371 171.991 736.663 Q173.889 738.955 173.889 742.265 Q173.889 747.288 170.811 749.973 Q167.755 752.658 162.038 752.658 Q156.32 752.658 153.241 749.973 Q150.186 747.288 150.186 742.265 Q150.186 738.955 152.084 736.663 Q153.982 734.371 157.362 733.584 M155.649 726.2 Q155.649 728.885 157.315 730.39 Q159.005 731.894 162.038 731.894 Q165.047 731.894 166.737 730.39 Q168.45 728.885 168.45 726.2 Q168.45 723.515 166.737 722.01 Q165.047 720.506 162.038 720.506 Q159.005 720.506 157.315 722.01 Q155.649 723.515 155.649 726.2 Z" fill="#000000" fill-rule="evenodd" fill-opacity="1" /><path clip-path="url(#clip790)" d="M 0 0 M188.959 720.506 Q185.348 720.506 183.519 724.07 Q181.713 727.612 181.713 734.742 Q181.713 741.848 183.519 745.413 Q185.348 748.955 188.959 748.955 Q192.593 748.955 194.399 745.413 Q196.227 741.848 196.227 734.742 Q196.227 727.612 194.399 724.07 Q192.593 720.506 188.959 720.506 M188.959 716.802 Q194.769 716.802 197.825 721.408 Q200.903 725.992 200.903 734.742 Q200.903 743.468 197.825 748.075 Q194.769 752.658 188.959 752.658 Q183.149 752.658 180.07 748.075 Q177.014 743.468 177.014 734.742 Q177.014 725.992 180.07 721.408 Q183.149 716.802 188.959 716.802 Z" fill="#000000" fill-rule="evenodd" fill-opacity="1" /><path clip-path="url(#clip790)" d="M 0 0 M130.88 552.658 Q134.237 553.376 136.112 555.644 Q138.01 557.913 138.01 561.246 Q138.01 566.362 134.492 569.163 Q130.973 571.964 124.492 571.964 Q122.316 571.964 120.001 571.524 Q117.709 571.107 115.256 570.251 L115.256 565.737 Q117.2 566.871 119.515 567.45 Q121.83 568.028 124.353 568.028 Q128.751 568.028 131.042 566.292 Q133.357 564.556 133.357 561.246 Q133.357 558.19 131.205 556.478 Q129.075 554.741 125.255 554.741 L121.228 554.741 L121.228 550.899 L125.441 550.899 Q128.89 550.899 130.718 549.533 Q132.547 548.144 132.547 545.552 Q132.547 542.89 130.649 541.478 Q128.774 540.042 125.255 540.042 Q123.334 540.042 121.135 540.459 Q118.936 540.876 116.297 541.755 L116.297 537.589 Q118.959 536.848 121.274 536.478 Q123.612 536.107 125.672 536.107 Q130.996 536.107 134.098 538.538 Q137.2 540.945 137.2 545.066 Q137.2 547.936 135.556 549.927 Q133.913 551.894 130.88 552.658 Z" fill="#000000" fill-rule="evenodd" fill-opacity="1" /><path clip-path="url(#clip790)" d="M 0 0 M143.079 565.413 L147.964 565.413 L147.964 571.292 L143.079 571.292 L143.079 565.413 Z" fill="#000000" fill-rule="evenodd" fill-opacity="1" /><path clip-path="url(#clip790)" d="M 0 0 M163.033 554.88 Q159.7 554.88 157.778 556.663 Q155.88 558.445 155.88 561.57 Q155.88 564.695 157.778 566.477 Q159.7 568.26 163.033 568.26 Q166.366 568.26 168.288 566.477 Q170.209 564.672 170.209 561.57 Q170.209 558.445 168.288 556.663 Q166.39 554.88 163.033 554.88 M158.357 552.89 Q155.348 552.149 153.658 550.089 Q151.991 548.029 151.991 545.066 Q151.991 540.922 154.931 538.515 Q157.894 536.107 163.033 536.107 Q168.195 536.107 171.135 538.515 Q174.075 540.922 174.075 545.066 Q174.075 548.029 172.385 550.089 Q170.718 552.149 167.732 552.89 Q171.112 553.677 172.987 555.968 Q174.885 558.26 174.885 561.57 Q174.885 566.593 171.806 569.278 Q168.751 571.964 163.033 571.964 Q157.315 571.964 154.237 569.278 Q151.181 566.593 151.181 561.57 Q151.181 558.26 153.079 555.968 Q154.978 553.677 158.357 552.89 M156.644 545.505 Q156.644 548.191 158.311 549.695 Q160.001 551.2 163.033 551.2 Q166.042 551.2 167.732 549.695 Q169.445 548.191 169.445 545.505 Q169.445 542.82 167.732 541.316 Q166.042 539.811 163.033 539.811 Q160.001 539.811 158.311 541.316 Q156.644 542.82 156.644 545.505 Z" fill="#000000" fill-rule="evenodd" fill-opacity="1" /><path clip-path="url(#clip790)" d="M 0 0 M180.001 536.732 L198.357 536.732 L198.357 540.667 L184.283 540.667 L184.283 549.14 Q185.301 548.792 186.32 548.63 Q187.338 548.445 188.357 548.445 Q194.144 548.445 197.524 551.616 Q200.903 554.788 200.903 560.204 Q200.903 565.783 197.431 568.885 Q193.959 571.964 187.639 571.964 Q185.463 571.964 183.195 571.593 Q180.95 571.223 178.542 570.482 L178.542 565.783 Q180.626 566.917 182.848 567.473 Q185.07 568.028 187.547 568.028 Q191.551 568.028 193.889 565.922 Q196.227 563.815 196.227 560.204 Q196.227 556.593 193.889 554.487 Q191.551 552.38 187.547 552.38 Q185.672 552.38 183.797 552.797 Q181.945 553.214 180.001 554.093 L180.001 536.732 Z" fill="#000000" fill-rule="evenodd" fill-opacity="1" /><path clip-path="url(#clip790)" d="M 0 0 M129.978 371.963 Q133.334 372.681 135.209 374.95 Q137.107 377.218 137.107 380.551 Q137.107 385.667 133.589 388.468 Q130.07 391.269 123.589 391.269 Q121.413 391.269 119.098 390.829 Q116.806 390.412 114.353 389.556 L114.353 385.042 Q116.297 386.176 118.612 386.755 Q120.927 387.334 123.45 387.334 Q127.848 387.334 130.14 385.598 Q132.455 383.862 132.455 380.551 Q132.455 377.496 130.302 375.783 Q128.172 374.047 124.353 374.047 L120.325 374.047 L120.325 370.204 L124.538 370.204 Q127.987 370.204 129.816 368.838 Q131.644 367.45 131.644 364.857 Q131.644 362.195 129.746 360.783 Q127.871 359.348 124.353 359.348 Q122.431 359.348 120.232 359.764 Q118.033 360.181 115.394 361.061 L115.394 356.894 Q118.056 356.153 120.371 355.783 Q122.709 355.413 124.769 355.413 Q130.093 355.413 133.195 357.843 Q136.297 360.251 136.297 364.371 Q136.297 367.241 134.654 369.232 Q133.01 371.2 129.978 371.963 Z" fill="#000000" fill-rule="evenodd" fill-opacity="1" /><path clip-path="url(#clip790)" d="M 0 0 M142.177 384.718 L147.061 384.718 L147.061 390.598 L142.177 390.598 L142.177 384.718 Z" fill="#000000" fill-rule="evenodd" fill-opacity="1" /><path clip-path="url(#clip790)" d="M 0 0 M152.269 389.88 L152.269 385.621 Q154.028 386.454 155.834 386.894 Q157.64 387.334 159.376 387.334 Q164.005 387.334 166.436 384.232 Q168.889 381.107 169.237 374.764 Q167.894 376.755 165.834 377.82 Q163.774 378.885 161.274 378.885 Q156.089 378.885 153.056 375.76 Q150.047 372.612 150.047 367.172 Q150.047 361.848 153.195 358.63 Q156.343 355.413 161.575 355.413 Q167.57 355.413 170.718 360.019 Q173.889 364.602 173.889 373.352 Q173.889 381.524 170.001 386.408 Q166.135 391.269 159.584 391.269 Q157.825 391.269 156.019 390.922 Q154.214 390.574 152.269 389.88 M161.575 375.227 Q164.723 375.227 166.552 373.075 Q168.403 370.922 168.403 367.172 Q168.403 363.445 166.552 361.292 Q164.723 359.116 161.575 359.116 Q158.427 359.116 156.575 361.292 Q154.746 363.445 154.746 367.172 Q154.746 370.922 156.575 373.075 Q158.427 375.227 161.575 375.227 Z" fill="#000000" fill-rule="evenodd" fill-opacity="1" /><path clip-path="url(#clip790)" d="M 0 0 M188.959 359.116 Q185.348 359.116 183.519 362.681 Q181.713 366.223 181.713 373.352 Q181.713 380.459 183.519 384.024 Q185.348 387.565 188.959 387.565 Q192.593 387.565 194.399 384.024 Q196.227 380.459 196.227 373.352 Q196.227 366.223 194.399 362.681 Q192.593 359.116 188.959 359.116 M188.959 355.413 Q194.769 355.413 197.825 360.019 Q200.903 364.602 200.903 373.352 Q200.903 382.079 197.825 386.686 Q194.769 391.269 188.959 391.269 Q183.149 391.269 180.07 386.686 Q177.014 382.079 177.014 373.352 Q177.014 364.602 180.07 360.019 Q183.149 355.413 188.959 355.413 Z" fill="#000000" fill-rule="evenodd" fill-opacity="1" /><path clip-path="url(#clip790)" d="M 0 0 M130.973 191.269 Q134.329 191.986 136.204 194.255 Q138.103 196.523 138.103 199.857 Q138.103 204.972 134.584 207.773 Q131.066 210.574 124.584 210.574 Q122.408 210.574 120.093 210.134 Q117.802 209.718 115.348 208.861 L115.348 204.347 Q117.293 205.482 119.607 206.06 Q121.922 206.639 124.445 206.639 Q128.843 206.639 131.135 204.903 Q133.45 203.167 133.45 199.857 Q133.45 196.801 131.297 195.088 Q129.167 193.352 125.348 193.352 L121.32 193.352 L121.32 189.51 L125.533 189.51 Q128.982 189.51 130.811 188.144 Q132.64 186.755 132.64 184.162 Q132.64 181.5 130.742 180.088 Q128.867 178.653 125.348 178.653 Q123.427 178.653 121.228 179.07 Q119.029 179.486 116.39 180.366 L116.39 176.199 Q119.052 175.459 121.367 175.088 Q123.705 174.718 125.765 174.718 Q131.089 174.718 134.191 177.149 Q137.292 179.556 137.292 183.676 Q137.292 186.547 135.649 188.537 Q134.005 190.505 130.973 191.269 Z" fill="#000000" fill-rule="evenodd" fill-opacity="1" /><path clip-path="url(#clip790)" d="M 0 0 M143.172 204.023 L148.056 204.023 L148.056 209.903 L143.172 209.903 L143.172 204.023 Z" fill="#000000" fill-rule="evenodd" fill-opacity="1" /><path clip-path="url(#clip790)" d="M 0 0 M153.265 209.185 L153.265 204.926 Q155.024 205.759 156.829 206.199 Q158.635 206.639 160.371 206.639 Q165.001 206.639 167.431 203.537 Q169.885 200.412 170.232 194.07 Q168.889 196.06 166.829 197.125 Q164.769 198.19 162.269 198.19 Q157.084 198.19 154.052 195.065 Q151.042 191.917 151.042 186.477 Q151.042 181.153 154.19 177.936 Q157.339 174.718 162.57 174.718 Q168.565 174.718 171.714 179.324 Q174.885 183.908 174.885 192.658 Q174.885 200.829 170.996 205.713 Q167.13 210.574 160.579 210.574 Q158.82 210.574 157.015 210.227 Q155.209 209.88 153.265 209.185 M162.57 194.533 Q165.718 194.533 167.547 192.38 Q169.399 190.227 169.399 186.477 Q169.399 182.75 167.547 180.598 Q165.718 178.422 162.57 178.422 Q159.422 178.422 157.57 180.598 Q155.741 182.75 155.741 186.477 Q155.741 190.227 157.57 192.38 Q159.422 194.533 162.57 194.533 Z" fill="#000000" fill-rule="evenodd" fill-opacity="1" /><path clip-path="url(#clip790)" d="M 0 0 M180.001 175.343 L198.357 175.343 L198.357 179.278 L184.283 179.278 L184.283 187.75 Q185.301 187.403 186.32 187.241 Q187.338 187.056 188.357 187.056 Q194.144 187.056 197.524 190.227 Q200.903 193.398 200.903 198.815 Q200.903 204.394 197.431 207.496 Q193.959 210.574 187.639 210.574 Q185.463 210.574 183.195 210.204 Q180.95 209.834 178.542 209.093 L178.542 204.394 Q180.626 205.528 182.848 206.084 Q185.07 206.639 187.547 206.639 Q191.551 206.639 193.889 204.533 Q196.227 202.426 196.227 198.815 Q196.227 195.204 193.889 193.098 Q191.551 190.991 187.547 190.991 Q185.672 190.991 183.797 191.408 Q181.945 191.824 180.001 192.704 L180.001 175.343 Z" fill="#000000" fill-rule="evenodd" fill-opacity="1" /><path clip-path="url(#clip790)" d="M 0 0 M59.1993 815.533 Q55.2526 813.336 53.3747 810.281 Q51.4968 807.225 51.4968 803.088 Q51.4968 797.518 55.4117 794.494 Q59.2948 791.47 66.4881 791.47 L88.0042 791.47 L88.0042 797.358 L66.679 797.358 Q61.5546 797.358 59.072 799.173 Q56.5894 800.987 56.5894 804.711 Q56.5894 809.262 59.6131 811.904 Q62.6368 814.546 67.8567 814.546 L88.0042 814.546 L88.0042 820.434 L66.679 820.434 Q61.5228 820.434 59.072 822.248 Q56.5894 824.063 56.5894 827.85 Q56.5894 832.338 59.6449 834.98 Q62.6686 837.622 67.8567 837.622 L88.0042 837.622 L88.0042 843.51 L52.3562 843.51 L52.3562 837.622 L57.8944 837.622 Q54.616 835.616 53.0564 832.815 Q51.4968 830.015 51.4968 826.163 Q51.4968 822.28 53.4702 819.575 Q55.4436 816.838 59.1993 815.533 Z" fill="#000000" fill-rule="evenodd" fill-opacity="1" /><path clip-path="url(#clip790)" d="M 0 0 M52.3562 785.327 L52.3562 779.471 L88.0042 779.471 L88.0042 785.327 L52.3562 785.327 M38.479 785.327 L38.479 779.471 L45.895 779.471 L45.895 785.327 L38.479 785.327 Z" fill="#000000" fill-rule="evenodd" fill-opacity="1" /><path clip-path="url(#clip790)" d="M 0 0 M66.4881 743.696 L88.0042 743.696 L88.0042 749.552 L66.679 749.552 Q61.6183 749.552 59.1038 751.525 Q56.5894 753.499 56.5894 757.446 Q56.5894 762.188 59.6131 764.925 Q62.6368 767.662 67.8567 767.662 L88.0042 767.662 L88.0042 773.551 L52.3562 773.551 L52.3562 767.662 L57.8944 767.662 Q54.6797 765.562 53.0883 762.729 Q51.4968 759.864 51.4968 756.141 Q51.4968 749.998 55.3163 746.847 Q59.1038 743.696 66.4881 743.696 Z" fill="#000000" fill-rule="evenodd" fill-opacity="1" /><path clip-path="url(#clip790)" d="M 0 0 M98.8259 710.467 L103.377 710.467 L103.377 744.332 L98.8259 744.332 L98.8259 710.467 Z" fill="#000000" fill-rule="evenodd" fill-opacity="1" /><path clip-path="url(#clip790)" d="M 0 0 M57.7671 680.866 L38.479 680.866 L38.479 675.01 L88.0042 675.01 L88.0042 680.866 L82.657 680.866 Q85.8398 682.712 87.3994 685.545 Q88.9272 688.346 88.9272 692.292 Q88.9272 698.754 83.771 702.828 Q78.6147 706.87 70.212 706.87 Q61.8093 706.87 56.6531 702.828 Q51.4968 698.754 51.4968 692.292 Q51.4968 688.346 53.0564 685.545 Q54.5842 682.712 57.7671 680.866 M70.212 700.823 Q76.6732 700.823 80.3653 698.181 Q84.0256 695.507 84.0256 690.86 Q84.0256 686.213 80.3653 683.54 Q76.6732 680.866 70.212 680.866 Q63.7508 680.866 60.0905 683.54 Q56.3984 686.213 56.3984 690.86 Q56.3984 695.507 60.0905 698.181 Q63.7508 700.823 70.212 700.823 Z" fill="#000000" fill-rule="evenodd" fill-opacity="1" /><path clip-path="url(#clip790)" d="M 0 0 M52.3562 668.867 L52.3562 663.01 L88.0042 663.01 L88.0042 668.867 L52.3562 668.867 M38.479 668.867 L38.479 663.01 L45.895 663.01 L45.895 668.867 L38.479 668.867 Z" fill="#000000" fill-rule="evenodd" fill-opacity="1" /><path clip-path="url(#clip790)" d="M 0 0 M38.479 638.821 L43.3487 638.821 L43.3487 644.422 Q43.3487 647.573 44.6219 648.815 Q45.895 650.024 49.2052 650.024 L52.3562 650.024 L52.3562 640.38 L56.9077 640.38 L56.9077 650.024 L88.0042 650.024 L88.0042 655.912 L56.9077 655.912 L56.9077 661.514 L52.3562 661.514 L52.3562 655.912 L49.8736 655.912 Q43.9216 655.912 41.2162 653.143 Q38.479 650.374 38.479 644.359 L38.479 638.821 Z" fill="#000000" fill-rule="evenodd" fill-opacity="1" /><path clip-path="url(#clip790)" d="M 0 0 M38.479 614.631 L43.3487 614.631 L43.3487 620.233 Q43.3487 623.384 44.6219 624.625 Q45.895 625.835 49.2052 625.835 L52.3562 625.835 L52.3562 616.19 L56.9077 616.19 L56.9077 625.835 L88.0042 625.835 L88.0042 631.723 L56.9077 631.723 L56.9077 637.325 L52.3562 637.325 L52.3562 631.723 L49.8736 631.723 Q43.9216 631.723 41.2162 628.954 Q38.479 626.185 38.479 620.169 L38.479 614.631 Z" fill="#000000" fill-rule="evenodd" fill-opacity="1" /><polyline clip-path="url(#clip792)" style="stroke:#009af9; stroke-width:20; stroke-opacity:1; fill:none" stroke-dasharray="80, 50" points="
  296.786,85.838 1294.83,394.612 2292.87,1372.3 
  "/>
<path clip-path="url(#clip790)" d="
M1996.11 213.659 L2282.23 213.659 L2282.23 92.6992 L1996.11 92.6992  Z
  " fill="#ffffff" fill-rule="evenodd" fill-opacity="1"/>
<polyline clip-path="url(#clip790)" style="stroke:#000000; stroke-width:4; stroke-opacity:1; fill:none" points="
  1996.11,213.659 2282.23,213.659 2282.23,92.6992 1996.11,92.6992 1996.11,213.659 
  "/>
<polyline clip-path="url(#clip790)" style="stroke:#009af9; stroke-width:4; stroke-opacity:1; fill:none" stroke-dasharray="16, 10" points="
  2019.62,153.179 2160.68,153.179 
  "/>
<path clip-path="url(#clip790)" d="M 0 0 M2198.03 172.867 Q2196.23 177.496 2194.51 178.908 Q2192.8 180.32 2189.93 180.32 L2186.53 180.32 L2186.53 176.755 L2189.03 176.755 Q2190.79 176.755 2191.76 175.922 Q2192.73 175.089 2193.91 171.987 L2194.68 170.043 L2184.19 144.533 L2188.7 144.533 L2196.81 164.811 L2204.91 144.533 L2209.42 144.533 L2198.03 172.867 Z" fill="#000000" fill-rule="evenodd" fill-opacity="1" /><path clip-path="url(#clip790)" d="M 0 0 M2215.3 166.524 L2222.94 166.524 L2222.94 140.158 L2214.63 141.825 L2214.63 137.566 L2222.89 135.899 L2227.57 135.899 L2227.57 166.524 L2235.21 166.524 L2235.21 170.459 L2215.3 170.459 L2215.3 166.524 Z" fill="#000000" fill-rule="evenodd" fill-opacity="1" /></svg>
