<?xml version="1.0" encoding="utf-8"?>
<svg xmlns="http://www.w3.org/2000/svg" xmlns:xlink="http://www.w3.org/1999/xlink" width="600" height="400" viewBox="0 0 2400 1600">
<defs>
  <clipPath id="clip630">
    <rect x="0" y="0" width="2400" height="1600"/>
  </clipPath>
</defs>
<path clip-path="url(#clip630)" d="
M0 1600 L2400 1600 L2400 0 L0 0  Z
  " fill="#ffffff" fill-rule="evenodd" fill-opacity="1"/>
<defs>
  <clipPath id="clip631">
    <rect x="480" y="0" width="1681" height="1600"/>
  </clipPath>
</defs>
<path clip-path="url(#clip630)" d="
M227.042 1410.9 L2352.76 1410.9 L2352.76 47.2441 L227.042 47.2441  Z
  " fill="#ffffff" fill-rule="evenodd" fill-opacity="1"/>
<defs>
  <clipPath id="clip632">
    <rect x="227" y="47" width="2127" height="1365"/>
  </clipPath>
</defs>
<polyline clip-path="url(#clip632)" style="stroke:#000000; stroke-width:2; stroke-opacity:0.1; fill:none" points="
  487.743,1410.9 487.743,47.2441 
  "/>
<polyline clip-path="url(#clip632)" style="stroke:#000000; stroke-width:2; stroke-opacity:0.1; fill:none" points="
  888.821,1410.9 888.821,47.2441 
  "/>
<polyline clip-path="url(#clip632)" style="stroke:#000000; stroke-width:2; stroke-opacity:0.1; fill:none" points="
  1289.9,1410.9 1289.9,47.2441 
  "/>
<polyline clip-path="url(#clip632)" style="stroke:#000000; stroke-width:2; stroke-opacity:0.1; fill:none" points="
  1690.98,1410.9 1690.98,47.2441 
  "/>
<polyline clip-path="url(#clip632)" style="stroke:#000000; stroke-width:2; stroke-opacity:0.1; fill:none" points="
  2092.06,1410.9 2092.06,47.2441 
  "/>
<polyline clip-path="url(#clip630)" style="stroke:#000000; stroke-width:4; stroke-opacity:1; fill:none" points="
  227.042,1410.9 2352.76,1410.9 
  "/>
<polyline clip-path="url(#clip630)" style="stroke:#000000; stroke-width:4; stroke-opacity:1; fill:none" points="
  487.743,1410.9 487.743,1394.53 
  "/>
<polyline clip-path="url(#clip630)" style="stroke:#000000; stroke-width:4; stroke-opacity:1; fill:none" points="
  888.821,1410.9 888.821,1394.53 
  "/>
<polyline clip-path="url(#clip630)" style="stroke:#000000; stroke-width:4; stroke-opacity:1; fill:none" points="
  1289.9,1410.9 1289.9,1394.53 
  "/>
<polyline clip-path="url(#clip630)" style="stroke:#000000; stroke-width:4; stroke-opacity:1; fill:none" points="
  1690.98,1410.9 1690.98,1394.53 
  "/>
<polyline clip-path="url(#clip630)" style="stroke:#000000; stroke-width:4; stroke-opacity:1; fill:none" points="
  2092.06,1410.9 2092.06,1394.53 
  "/>
<path clip-path="url(#clip630)" d="M 0 0 M426.777 1489.17 L434.416 1489.17 L434.416 1462.8 L426.105 1464.47 L426.105 1460.21 L434.369 1458.54 L439.045 1458.54 L439.045 1489.17 L446.684 1489.17 L446.684 1493.1 L426.777 1493.1 L426.777 1489.17 Z" fill="#000000" fill-rule="evenodd" fill-opacity="1" /><path clip-path="url(#clip630)" d="M 0 0 M461.753 1461.62 Q458.142 1461.62 456.314 1465.19 Q454.508 1468.73 454.508 1475.86 Q454.508 1482.97 456.314 1486.53 Q458.142 1490.07 461.753 1490.07 Q465.388 1490.07 467.193 1486.53 Q469.022 1482.97 469.022 1475.86 Q469.022 1468.73 467.193 1465.19 Q465.388 1461.62 461.753 1461.62 M461.753 1457.92 Q467.564 1457.92 470.619 1462.53 Q473.698 1467.11 473.698 1475.86 Q473.698 1484.59 470.619 1489.19 Q467.564 1493.78 461.753 1493.78 Q455.943 1493.78 452.865 1489.19 Q449.809 1484.59 449.809 1475.86 Q449.809 1467.11 452.865 1462.53 Q455.943 1457.92 461.753 1457.92 Z" fill="#000000" fill-rule="evenodd" fill-opacity="1" /><path clip-path="url(#clip630)" d="M 0 0 M473.698 1452.02 L497.809 1452.02 L497.809 1455.22 L473.698 1455.22 L473.698 1452.02 Z" fill="#000000" fill-rule="evenodd" fill-opacity="1" /><path clip-path="url(#clip630)" d="M 0 0 M501.966 1437.61 L516.88 1437.61 L516.88 1440.81 L505.445 1440.81 L505.445 1447.69 Q506.273 1447.41 507.1 1447.28 Q507.928 1447.13 508.756 1447.13 Q513.457 1447.13 516.203 1449.71 Q518.949 1452.28 518.949 1456.68 Q518.949 1461.22 516.128 1463.74 Q513.307 1466.24 508.172 1466.24 Q506.405 1466.24 504.561 1465.94 Q502.737 1465.64 500.781 1465.04 L500.781 1461.22 Q502.474 1462.14 504.279 1462.59 Q506.085 1463.04 508.097 1463.04 Q511.351 1463.04 513.251 1461.33 Q515.15 1459.62 515.15 1456.68 Q515.15 1453.75 513.251 1452.04 Q511.351 1450.33 508.097 1450.33 Q506.574 1450.33 505.05 1450.67 Q503.546 1451 501.966 1451.72 L501.966 1437.61 Z" fill="#000000" fill-rule="evenodd" fill-opacity="1" /><path clip-path="url(#clip630)" d="M 0 0 M523.068 1460.92 L527.037 1460.92 L527.037 1465.69 L523.068 1465.69 L523.068 1460.92 Z" fill="#000000" fill-rule="evenodd" fill-opacity="1" /><path clip-path="url(#clip630)" d="M 0 0 M541.594 1440.92 L532.002 1455.91 L541.594 1455.91 L541.594 1440.92 M540.597 1437.61 L545.374 1437.61 L545.374 1455.91 L549.38 1455.91 L549.38 1459.07 L545.374 1459.07 L545.374 1465.69 L541.594 1465.69 L541.594 1459.07 L528.917 1459.07 L528.917 1455.41 L540.597 1437.61 Z" fill="#000000" fill-rule="evenodd" fill-opacity="1" /><path clip-path="url(#clip630)" d="M 0 0 M828.701 1489.17 L836.34 1489.17 L836.34 1462.8 L828.03 1464.47 L828.03 1460.21 L836.294 1458.54 L840.97 1458.54 L840.97 1489.17 L848.609 1489.17 L848.609 1493.1 L828.701 1493.1 L828.701 1489.17 Z" fill="#000000" fill-rule="evenodd" fill-opacity="1" /><path clip-path="url(#clip630)" d="M 0 0 M863.678 1461.62 Q860.067 1461.62 858.238 1465.19 Q856.433 1468.73 856.433 1475.86 Q856.433 1482.97 858.238 1486.53 Q860.067 1490.07 863.678 1490.07 Q867.312 1490.07 869.118 1486.53 Q870.946 1482.97 870.946 1475.86 Q870.946 1468.73 869.118 1465.19 Q867.312 1461.62 863.678 1461.62 M863.678 1457.92 Q869.488 1457.92 872.544 1462.53 Q875.622 1467.11 875.622 1475.86 Q875.622 1484.59 872.544 1489.19 Q869.488 1493.78 863.678 1493.78 Q857.868 1493.78 854.789 1489.19 Q851.733 1484.59 851.733 1475.86 Q851.733 1467.11 854.789 1462.53 Q857.868 1457.92 863.678 1457.92 Z" fill="#000000" fill-rule="evenodd" fill-opacity="1" /><path clip-path="url(#clip630)" d="M 0 0 M875.622 1452.02 L899.734 1452.02 L899.734 1455.22 L875.622 1455.22 L875.622 1452.02 Z" fill="#000000" fill-rule="evenodd" fill-opacity="1" /><path clip-path="url(#clip630)" d="M 0 0 M903.89 1437.61 L918.805 1437.61 L918.805 1440.81 L907.37 1440.81 L907.37 1447.69 Q908.197 1447.41 909.025 1447.28 Q909.852 1447.13 910.68 1447.13 Q915.382 1447.13 918.128 1449.71 Q920.874 1452.28 920.874 1456.68 Q920.874 1461.22 918.053 1463.74 Q915.231 1466.24 910.097 1466.24 Q908.329 1466.24 906.486 1465.94 Q904.661 1465.64 902.705 1465.04 L902.705 1461.22 Q904.398 1462.14 906.204 1462.59 Q908.009 1463.04 910.022 1463.04 Q913.275 1463.04 915.175 1461.33 Q917.075 1459.62 917.075 1456.68 Q917.075 1453.75 915.175 1452.04 Q913.275 1450.33 910.022 1450.33 Q908.498 1450.33 906.975 1450.67 Q905.47 1451 903.89 1451.72 L903.89 1437.61 Z" fill="#000000" fill-rule="evenodd" fill-opacity="1" /><path clip-path="url(#clip630)" d="M 0 0 M924.993 1460.92 L928.961 1460.92 L928.961 1465.69 L924.993 1465.69 L924.993 1460.92 Z" fill="#000000" fill-rule="evenodd" fill-opacity="1" /><path clip-path="url(#clip630)" d="M 0 0 M936.353 1462.5 L949.612 1462.5 L949.612 1465.69 L931.782 1465.69 L931.782 1462.5 Q933.945 1460.26 937.669 1456.5 Q941.412 1452.72 942.371 1451.63 Q944.195 1449.58 944.91 1448.16 Q945.644 1446.74 945.644 1445.36 Q945.644 1443.12 944.064 1441.71 Q942.503 1440.3 939.982 1440.3 Q938.196 1440.3 936.202 1440.92 Q934.227 1441.54 931.97 1442.8 L931.97 1438.97 Q934.265 1438.05 936.258 1437.58 Q938.252 1437.11 939.907 1437.11 Q944.271 1437.11 946.866 1439.29 Q949.462 1441.47 949.462 1445.12 Q949.462 1446.85 948.803 1448.41 Q948.164 1449.95 946.452 1452.06 Q945.982 1452.6 943.462 1455.22 Q940.942 1457.81 936.353 1462.5 Z" fill="#000000" fill-rule="evenodd" fill-opacity="1" /><path clip-path="url(#clip630)" d="M 0 0 M1229.13 1489.17 L1236.77 1489.17 L1236.77 1462.8 L1228.46 1464.47 L1228.46 1460.21 L1236.72 1458.54 L1241.4 1458.54 L1241.4 1489.17 L1249.04 1489.17 L1249.04 1493.1 L1229.13 1493.1 L1229.13 1489.17 Z" fill="#000000" fill-rule="evenodd" fill-opacity="1" /><path clip-path="url(#clip630)" d="M 0 0 M1264.11 1461.62 Q1260.5 1461.62 1258.67 1465.19 Q1256.86 1468.73 1256.86 1475.86 Q1256.86 1482.97 1258.67 1486.53 Q1260.5 1490.07 1264.11 1490.07 Q1267.74 1490.07 1269.55 1486.53 Q1271.38 1482.97 1271.38 1475.86 Q1271.38 1468.73 1269.55 1465.19 Q1267.74 1461.62 1264.11 1461.62 M1264.11 1457.92 Q1269.92 1457.92 1272.97 1462.53 Q1276.05 1467.11 1276.05 1475.86 Q1276.05 1484.59 1272.97 1489.19 Q1269.92 1493.78 1264.11 1493.78 Q1258.3 1493.78 1255.22 1489.19 Q1252.16 1484.59 1252.16 1475.86 Q1252.16 1467.11 1255.22 1462.53 Q1258.3 1457.92 1264.11 1457.92 Z" fill="#000000" fill-rule="evenodd" fill-opacity="1" /><path clip-path="url(#clip630)" d="M 0 0 M1276.05 1452.02 L1300.16 1452.02 L1300.16 1455.22 L1276.05 1455.22 L1276.05 1452.02 Z" fill="#000000" fill-rule="evenodd" fill-opacity="1" /><path clip-path="url(#clip630)" d="M 0 0 M1304.32 1437.61 L1319.23 1437.61 L1319.23 1440.81 L1307.8 1440.81 L1307.8 1447.69 Q1308.63 1447.41 1309.45 1447.28 Q1310.28 1447.13 1311.11 1447.13 Q1315.81 1447.13 1318.56 1449.71 Q1321.3 1452.28 1321.3 1456.68 Q1321.3 1461.22 1318.48 1463.74 Q1315.66 1466.24 1310.53 1466.24 Q1308.76 1466.24 1306.91 1465.94 Q1305.09 1465.64 1303.13 1465.04 L1303.13 1461.22 Q1304.83 1462.14 1306.63 1462.59 Q1308.44 1463.04 1310.45 1463.04 Q1313.7 1463.04 1315.6 1461.33 Q1317.5 1459.62 1317.5 1456.68 Q1317.5 1453.75 1315.6 1452.04 Q1313.7 1450.33 1310.45 1450.33 Q1308.93 1450.33 1307.4 1450.67 Q1305.9 1451 1304.32 1451.72 L1304.32 1437.61 Z" fill="#000000" fill-rule="evenodd" fill-opacity="1" /><path clip-path="url(#clip630)" d="M 0 0 M1325.42 1460.92 L1329.39 1460.92 L1329.39 1465.69 L1325.42 1465.69 L1325.42 1460.92 Z" fill="#000000" fill-rule="evenodd" fill-opacity="1" /><path clip-path="url(#clip630)" d="M 0 0 M1341.63 1440.11 Q1338.7 1440.11 1337.21 1443.01 Q1335.75 1445.89 1335.75 1451.68 Q1335.75 1457.46 1337.21 1460.35 Q1338.7 1463.23 1341.63 1463.23 Q1344.59 1463.23 1346.05 1460.35 Q1347.54 1457.46 1347.54 1451.68 Q1347.54 1445.89 1346.05 1443.01 Q1344.59 1440.11 1341.63 1440.11 M1341.63 1437.11 Q1346.35 1437.11 1348.84 1440.85 Q1351.34 1444.57 1351.34 1451.68 Q1351.34 1458.77 1348.84 1462.51 Q1346.35 1466.24 1341.63 1466.24 Q1336.91 1466.24 1334.41 1462.51 Q1331.93 1458.77 1331.93 1451.68 Q1331.93 1444.57 1334.41 1440.85 Q1336.91 1437.11 1341.63 1437.11 Z" fill="#000000" fill-rule="evenodd" fill-opacity="1" /><path clip-path="url(#clip630)" d="M 0 0 M1629.64 1489.17 L1637.28 1489.17 L1637.28 1462.8 L1628.97 1464.47 L1628.97 1460.21 L1637.24 1458.54 L1641.91 1458.54 L1641.91 1489.17 L1649.55 1489.17 L1649.55 1493.1 L1629.64 1493.1 L1629.64 1489.17 Z" fill="#000000" fill-rule="evenodd" fill-opacity="1" /><path clip-path="url(#clip630)" d="M 0 0 M1664.62 1461.62 Q1661.01 1461.62 1659.18 1465.19 Q1657.38 1468.73 1657.38 1475.86 Q1657.38 1482.97 1659.18 1486.53 Q1661.01 1490.07 1664.62 1490.07 Q1668.26 1490.07 1670.06 1486.53 Q1671.89 1482.97 1671.89 1475.86 Q1671.89 1468.73 1670.06 1465.19 Q1668.26 1461.62 1664.62 1461.62 M1664.62 1457.92 Q1670.43 1457.92 1673.49 1462.53 Q1676.57 1467.11 1676.57 1475.86 Q1676.57 1484.59 1673.49 1489.19 Q1670.43 1493.78 1664.62 1493.78 Q1658.81 1493.78 1655.73 1489.19 Q1652.68 1484.59 1652.68 1475.86 Q1652.68 1467.11 1655.73 1462.53 Q1658.81 1457.92 1664.62 1457.92 Z" fill="#000000" fill-rule="evenodd" fill-opacity="1" /><path clip-path="url(#clip630)" d="M 0 0 M1676.57 1452.02 L1700.68 1452.02 L1700.68 1455.22 L1676.57 1455.22 L1676.57 1452.02 Z" fill="#000000" fill-rule="evenodd" fill-opacity="1" /><path clip-path="url(#clip630)" d="M 0 0 M1715.23 1440.92 L1705.64 1455.91 L1715.23 1455.91 L1715.23 1440.92 M1714.24 1437.61 L1719.01 1437.61 L1719.01 1455.91 L1723.02 1455.91 L1723.02 1459.07 L1719.01 1459.07 L1719.01 1465.69 L1715.23 1465.69 L1715.23 1459.07 L1702.56 1459.07 L1702.56 1455.41 L1714.24 1437.61 Z" fill="#000000" fill-rule="evenodd" fill-opacity="1" /><path clip-path="url(#clip630)" d="M 0 0 M1727.14 1460.92 L1731.11 1460.92 L1731.11 1465.69 L1727.14 1465.69 L1727.14 1460.92 Z" fill="#000000" fill-rule="evenodd" fill-opacity="1" /><path clip-path="url(#clip630)" d="M 0 0 M1743.35 1452.36 Q1740.64 1452.36 1739.08 1453.81 Q1737.54 1455.26 1737.54 1457.79 Q1737.54 1460.33 1739.08 1461.78 Q1740.64 1463.23 1743.35 1463.23 Q1746.06 1463.23 1747.62 1461.78 Q1749.18 1460.31 1749.18 1457.79 Q1749.18 1455.26 1747.62 1453.81 Q1746.08 1452.36 1743.35 1452.36 M1739.55 1450.74 Q1737.11 1450.14 1735.73 1448.47 Q1734.38 1446.79 1734.38 1444.38 Q1734.38 1441.02 1736.77 1439.06 Q1739.18 1437.11 1743.35 1437.11 Q1747.55 1437.11 1749.93 1439.06 Q1752.32 1441.02 1752.32 1444.38 Q1752.32 1446.79 1750.95 1448.47 Q1749.6 1450.14 1747.17 1450.74 Q1749.92 1451.38 1751.44 1453.24 Q1752.98 1455.1 1752.98 1457.79 Q1752.98 1461.88 1750.48 1464.06 Q1748 1466.24 1743.35 1466.24 Q1738.71 1466.24 1736.2 1464.06 Q1733.72 1461.88 1733.72 1457.79 Q1733.72 1455.1 1735.26 1453.24 Q1736.81 1451.38 1739.55 1450.74 M1738.16 1444.74 Q1738.16 1446.92 1739.51 1448.15 Q1740.89 1449.37 1743.35 1449.37 Q1745.8 1449.37 1747.17 1448.15 Q1748.56 1446.92 1748.56 1444.74 Q1748.56 1442.56 1747.17 1441.34 Q1745.8 1440.11 1743.35 1440.11 Q1740.89 1440.11 1739.51 1441.34 Q1738.16 1442.56 1738.16 1444.74 Z" fill="#000000" fill-rule="evenodd" fill-opacity="1" /><path clip-path="url(#clip630)" d="M 0 0 M2030.62 1489.17 L2038.26 1489.17 L2038.26 1462.8 L2029.95 1464.47 L2029.95 1460.21 L2038.21 1458.54 L2042.89 1458.54 L2042.89 1489.17 L2050.53 1489.17 L2050.53 1493.1 L2030.62 1493.1 L2030.62 1489.17 Z" fill="#000000" fill-rule="evenodd" fill-opacity="1" /><path clip-path="url(#clip630)" d="M 0 0 M2065.6 1461.62 Q2061.98 1461.62 2060.16 1465.19 Q2058.35 1468.73 2058.35 1475.86 Q2058.35 1482.97 2060.16 1486.53 Q2061.98 1490.07 2065.6 1490.07 Q2069.23 1490.07 2071.04 1486.53 Q2072.86 1482.97 2072.86 1475.86 Q2072.86 1468.73 2071.04 1465.19 Q2069.23 1461.62 2065.6 1461.62 M2065.6 1457.92 Q2071.41 1457.92 2074.46 1462.53 Q2077.54 1467.11 2077.54 1475.86 Q2077.54 1484.59 2074.46 1489.19 Q2071.41 1493.78 2065.6 1493.78 Q2059.79 1493.78 2056.71 1489.19 Q2053.65 1484.59 2053.65 1475.86 Q2053.65 1467.11 2056.71 1462.53 Q2059.79 1457.92 2065.6 1457.92 Z" fill="#000000" fill-rule="evenodd" fill-opacity="1" /><path clip-path="url(#clip630)" d="M 0 0 M2077.54 1452.02 L2101.65 1452.02 L2101.65 1455.22 L2077.54 1455.22 L2077.54 1452.02 Z" fill="#000000" fill-rule="evenodd" fill-opacity="1" /><path clip-path="url(#clip630)" d="M 0 0 M2116.21 1440.92 L2106.62 1455.91 L2116.21 1455.91 L2116.21 1440.92 M2115.21 1437.61 L2119.99 1437.61 L2119.99 1455.91 L2124 1455.91 L2124 1459.07 L2119.99 1459.07 L2119.99 1465.69 L2116.21 1465.69 L2116.21 1459.07 L2103.53 1459.07 L2103.53 1455.41 L2115.21 1437.61 Z" fill="#000000" fill-rule="evenodd" fill-opacity="1" /><path clip-path="url(#clip630)" d="M 0 0 M2128.11 1460.92 L2132.08 1460.92 L2132.08 1465.69 L2128.11 1465.69 L2128.11 1460.92 Z" fill="#000000" fill-rule="evenodd" fill-opacity="1" /><path clip-path="url(#clip630)" d="M 0 0 M2144.8 1450.14 Q2142.24 1450.14 2140.73 1451.89 Q2139.25 1453.64 2139.25 1456.68 Q2139.25 1459.71 2140.73 1461.48 Q2142.24 1463.23 2144.8 1463.23 Q2147.35 1463.23 2148.84 1461.48 Q2150.34 1459.71 2150.34 1456.68 Q2150.34 1453.64 2148.84 1451.89 Q2147.35 1450.14 2144.8 1450.14 M2152.34 1438.23 L2152.34 1441.69 Q2150.91 1441.02 2149.44 1440.66 Q2147.99 1440.3 2146.56 1440.3 Q2142.8 1440.3 2140.81 1442.84 Q2138.83 1445.38 2138.55 1450.52 Q2139.66 1448.88 2141.34 1448.01 Q2143.01 1447.13 2145.02 1447.13 Q2149.25 1447.13 2151.7 1449.71 Q2154.16 1452.26 2154.16 1456.68 Q2154.16 1461.01 2151.6 1463.62 Q2149.05 1466.24 2144.8 1466.24 Q2139.93 1466.24 2137.35 1462.51 Q2134.77 1458.77 2134.77 1451.68 Q2134.77 1445.02 2137.93 1441.07 Q2141.09 1437.11 2146.41 1437.11 Q2147.84 1437.11 2149.29 1437.39 Q2150.76 1437.67 2152.34 1438.23 Z" fill="#000000" fill-rule="evenodd" fill-opacity="1" /><path clip-path="url(#clip630)" d="M 0 0 M1221.42 1512.66 L1227.31 1512.66 L1227.31 1541.91 L1244.78 1526.54 L1252.26 1526.54 L1233.36 1543.22 L1253.06 1562.19 L1245.42 1562.19 L1227.31 1544.78 L1227.31 1562.19 L1221.42 1562.19 L1221.42 1512.66 Z" fill="#000000" fill-rule="evenodd" fill-opacity="1" /><path clip-path="url(#clip630)" d="M 0 0 M1286.29 1573.01 L1286.29 1577.56 L1252.42 1577.56 L1252.42 1573.01 L1286.29 1573.01 Z" fill="#000000" fill-rule="evenodd" fill-opacity="1" /><path clip-path="url(#clip630)" d="M 0 0 M1306.24 1530.64 Q1301.53 1530.64 1298.8 1534.34 Q1296.06 1538 1296.06 1544.39 Q1296.06 1550.79 1298.76 1554.48 Q1301.5 1558.14 1306.24 1558.14 Q1310.92 1558.14 1313.66 1554.45 Q1316.4 1550.76 1316.4 1544.39 Q1316.4 1538.06 1313.66 1534.37 Q1310.92 1530.64 1306.24 1530.64 M1306.24 1525.68 Q1313.88 1525.68 1318.24 1530.64 Q1322.6 1535.61 1322.6 1544.39 Q1322.6 1553.15 1318.24 1558.14 Q1313.88 1563.11 1306.24 1563.11 Q1298.57 1563.11 1294.21 1558.14 Q1289.88 1553.15 1289.88 1544.39 Q1289.88 1535.61 1294.21 1530.64 Q1298.57 1525.68 1306.24 1525.68 Z" fill="#000000" fill-rule="evenodd" fill-opacity="1" /><path clip-path="url(#clip630)" d="M 0 0 M1358.38 1540.67 L1358.38 1562.19 L1352.52 1562.19 L1352.52 1540.86 Q1352.52 1535.8 1350.55 1533.29 Q1348.57 1530.77 1344.63 1530.77 Q1339.89 1530.77 1337.15 1533.79 Q1334.41 1536.82 1334.41 1542.04 L1334.41 1562.19 L1328.52 1562.19 L1328.52 1526.54 L1334.41 1526.54 L1334.41 1532.08 Q1336.51 1528.86 1339.34 1527.27 Q1342.21 1525.68 1345.93 1525.68 Q1352.08 1525.68 1355.23 1529.5 Q1358.38 1533.29 1358.38 1540.67 Z" fill="#000000" fill-rule="evenodd" fill-opacity="1" /><polyline clip-path="url(#clip632)" style="stroke:#000000; stroke-width:2; stroke-opacity:0.1; fill:none" points="
  227.042,1340.8 2352.76,1340.8 
  "/>
<polyline clip-path="url(#clip632)" style="stroke:#000000; stroke-width:2; stroke-opacity:0.1; fill:none" points="
  227.042,1086.15 2352.76,1086.15 
  "/>
<polyline clip-path="url(#clip632)" style="stroke:#000000; stroke-width:2; stroke-opacity:0.1; fill:none" points="
  227.042,831.504 2352.76,831.504 
  "/>
<polyline clip-path="url(#clip632)" style="stroke:#000000; stroke-width:2; stroke-opacity:0.1; fill:none" points="
  227.042,576.855 2352.76,576.855 
  "/>
<polyline clip-path="url(#clip632)" style="stroke:#000000; stroke-width:2; stroke-opacity:0.1; fill:none" points="
  227.042,322.207 2352.76,322.207 
  "/>
<polyline clip-path="url(#clip632)" style="stroke:#000000; stroke-width:2; stroke-opacity:0.1; fill:none" points="
  227.042,67.558 2352.76,67.558 
  "/>
<polyline clip-path="url(#clip630)" style="stroke:#000000; stroke-width:4; stroke-opacity:1; fill:none" points="
  227.042,1410.9 227.042,47.2441 
  "/>
<polyline clip-path="url(#clip630)" style="stroke:#000000; stroke-width:4; stroke-opacity:1; fill:none" points="
  227.042,1340.8 252.551,1340.8 
  "/>
<polyline clip-path="url(#clip630)" style="stroke:#000000; stroke-width:4; stroke-opacity:1; fill:none" points="
  227.042,1086.15 252.551,1086.15 
  "/>
<polyline clip-path="url(#clip630)" style="stroke:#000000; stroke-width:4; stroke-opacity:1; fill:none" points="
  227.042,831.504 252.551,831.504 
  "/>
<polyline clip-path="url(#clip630)" style="stroke:#000000; stroke-width:4; stroke-opacity:1; fill:none" points="
  227.042,576.855 252.551,576.855 
  "/>
<polyline clip-path="url(#clip630)" style="stroke:#000000; stroke-width:4; stroke-opacity:1; fill:none" points="
  227.042,322.207 252.551,322.207 
  "/>
<polyline clip-path="url(#clip630)" style="stroke:#000000; stroke-width:4; stroke-opacity:1; fill:none" points="
  227.042,67.558 252.551,67.558 
  "/>
<path clip-path="url(#clip630)" d="M 0 0 M143.126 1323.52 L161.482 1323.52 L161.482 1327.46 L147.408 1327.46 L147.408 1335.93 Q148.427 1335.58 149.445 1335.42 Q150.464 1335.23 151.482 1335.23 Q157.269 1335.23 160.649 1338.4 Q164.028 1341.58 164.028 1346.99 Q164.028 1352.57 160.556 1355.67 Q157.084 1358.75 150.765 1358.75 Q148.589 1358.75 146.32 1358.38 Q144.075 1358.01 141.667 1357.27 L141.667 1352.57 Q143.751 1353.71 145.973 1354.26 Q148.195 1354.82 150.672 1354.82 Q154.677 1354.82 157.015 1352.71 Q159.353 1350.6 159.353 1346.99 Q159.353 1343.38 157.015 1341.28 Q154.677 1339.17 150.672 1339.17 Q148.797 1339.17 146.922 1339.59 Q145.07 1340 143.126 1340.88 L143.126 1323.52 Z" fill="#000000" fill-rule="evenodd" fill-opacity="1" /><path clip-path="url(#clip630)" d="M 0 0 M179.098 1326.6 Q175.487 1326.6 173.658 1330.16 Q171.852 1333.71 171.852 1340.84 Q171.852 1347.94 173.658 1351.51 Q175.487 1355.05 179.098 1355.05 Q182.732 1355.05 184.538 1351.51 Q186.366 1347.94 186.366 1340.84 Q186.366 1333.71 184.538 1330.16 Q182.732 1326.6 179.098 1326.6 M179.098 1322.9 Q184.908 1322.9 187.963 1327.5 Q191.042 1332.09 191.042 1340.84 Q191.042 1349.56 187.963 1354.17 Q184.908 1358.75 179.098 1358.75 Q173.288 1358.75 170.209 1354.17 Q167.153 1349.56 167.153 1340.84 Q167.153 1332.09 170.209 1327.5 Q173.288 1322.9 179.098 1322.9 Z" fill="#000000" fill-rule="evenodd" fill-opacity="1" /><path clip-path="url(#clip630)" d="M 0 0 M117.107 1099.5 L124.746 1099.5 L124.746 1073.13 L116.436 1074.8 L116.436 1070.54 L124.7 1068.87 L129.376 1068.87 L129.376 1099.5 L137.015 1099.5 L137.015 1103.43 L117.107 1103.43 L117.107 1099.5 Z" fill="#000000" fill-rule="evenodd" fill-opacity="1" /><path clip-path="url(#clip630)" d="M 0 0 M152.084 1071.95 Q148.473 1071.95 146.644 1075.52 Q144.839 1079.06 144.839 1086.19 Q144.839 1093.29 146.644 1096.86 Q148.473 1100.4 152.084 1100.4 Q155.718 1100.4 157.524 1096.86 Q159.353 1093.29 159.353 1086.19 Q159.353 1079.06 157.524 1075.52 Q155.718 1071.95 152.084 1071.95 M152.084 1068.25 Q157.894 1068.25 160.95 1072.85 Q164.028 1077.44 164.028 1086.19 Q164.028 1094.91 160.95 1099.52 Q157.894 1104.1 152.084 1104.1 Q146.274 1104.1 143.195 1099.52 Q140.14 1094.91 140.14 1086.19 Q140.14 1077.44 143.195 1072.85 Q146.274 1068.25 152.084 1068.25 Z" fill="#000000" fill-rule="evenodd" fill-opacity="1" /><path clip-path="url(#clip630)" d="M 0 0 M179.098 1071.95 Q175.487 1071.95 173.658 1075.52 Q171.852 1079.06 171.852 1086.19 Q171.852 1093.29 173.658 1096.86 Q175.487 1100.4 179.098 1100.4 Q182.732 1100.4 184.538 1096.86 Q186.366 1093.29 186.366 1086.19 Q186.366 1079.06 184.538 1075.52 Q182.732 1071.95 179.098 1071.95 M179.098 1068.25 Q184.908 1068.25 187.963 1072.85 Q191.042 1077.44 191.042 1086.19 Q191.042 1094.91 187.963 1099.52 Q184.908 1104.1 179.098 1104.1 Q173.288 1104.1 170.209 1099.52 Q167.153 1094.91 167.153 1086.19 Q167.153 1077.44 170.209 1072.85 Q173.288 1068.25 179.098 1068.25 Z" fill="#000000" fill-rule="evenodd" fill-opacity="1" /><path clip-path="url(#clip630)" d="M 0 0 M118.103 844.848 L125.742 844.848 L125.742 818.483 L117.431 820.15 L117.431 815.89 L125.695 814.224 L130.371 814.224 L130.371 844.848 L138.01 844.848 L138.01 848.784 L118.103 848.784 L118.103 844.848 Z" fill="#000000" fill-rule="evenodd" fill-opacity="1" /><path clip-path="url(#clip630)" d="M 0 0 M143.126 814.224 L161.482 814.224 L161.482 818.159 L147.408 818.159 L147.408 826.631 Q148.427 826.284 149.445 826.122 Q150.464 825.937 151.482 825.937 Q157.269 825.937 160.649 829.108 Q164.028 832.279 164.028 837.696 Q164.028 843.274 160.556 846.376 Q157.084 849.455 150.765 849.455 Q148.589 849.455 146.32 849.085 Q144.075 848.714 141.667 847.973 L141.667 843.274 Q143.751 844.409 145.973 844.964 Q148.195 845.52 150.672 845.52 Q154.677 845.52 157.015 843.413 Q159.353 841.307 159.353 837.696 Q159.353 834.085 157.015 831.978 Q154.677 829.872 150.672 829.872 Q148.797 829.872 146.922 830.288 Q145.07 830.705 143.126 831.585 L143.126 814.224 Z" fill="#000000" fill-rule="evenodd" fill-opacity="1" /><path clip-path="url(#clip630)" d="M 0 0 M179.098 817.302 Q175.487 817.302 173.658 820.867 Q171.852 824.409 171.852 831.538 Q171.852 838.645 173.658 842.21 Q175.487 845.751 179.098 845.751 Q182.732 845.751 184.538 842.21 Q186.366 838.645 186.366 831.538 Q186.366 824.409 184.538 820.867 Q182.732 817.302 179.098 817.302 M179.098 813.599 Q184.908 813.599 187.963 818.205 Q191.042 822.788 191.042 831.538 Q191.042 840.265 187.963 844.872 Q184.908 849.455 179.098 849.455 Q173.288 849.455 170.209 844.872 Q167.153 840.265 167.153 831.538 Q167.153 822.788 170.209 818.205 Q173.288 813.599 179.098 813.599 Z" fill="#000000" fill-rule="evenodd" fill-opacity="1" /><path clip-path="url(#clip630)" d="M 0 0 M120.695 590.2 L137.015 590.2 L137.015 594.135 L115.07 594.135 L115.07 590.2 Q117.732 587.445 122.316 582.816 Q126.922 578.163 128.103 576.82 Q130.348 574.297 131.228 572.561 Q132.13 570.802 132.13 569.112 Q132.13 566.357 130.186 564.621 Q128.265 562.885 125.163 562.885 Q122.964 562.885 120.51 563.649 Q118.08 564.413 115.302 565.964 L115.302 561.242 Q118.126 560.108 120.58 559.529 Q123.033 558.95 125.07 558.95 Q130.441 558.95 133.635 561.635 Q136.829 564.32 136.829 568.811 Q136.829 570.941 136.019 572.862 Q135.232 574.76 133.126 577.353 Q132.547 578.024 129.445 581.242 Q126.343 584.436 120.695 590.2 Z" fill="#000000" fill-rule="evenodd" fill-opacity="1" /><path clip-path="url(#clip630)" d="M 0 0 M152.084 562.654 Q148.473 562.654 146.644 566.219 Q144.839 569.76 144.839 576.89 Q144.839 583.996 146.644 587.561 Q148.473 591.103 152.084 591.103 Q155.718 591.103 157.524 587.561 Q159.353 583.996 159.353 576.89 Q159.353 569.76 157.524 566.219 Q155.718 562.654 152.084 562.654 M152.084 558.95 Q157.894 558.95 160.95 563.557 Q164.028 568.14 164.028 576.89 Q164.028 585.617 160.95 590.223 Q157.894 594.806 152.084 594.806 Q146.274 594.806 143.195 590.223 Q140.14 585.617 140.14 576.89 Q140.14 568.14 143.195 563.557 Q146.274 558.95 152.084 558.95 Z" fill="#000000" fill-rule="evenodd" fill-opacity="1" /><path clip-path="url(#clip630)" d="M 0 0 M179.098 562.654 Q175.487 562.654 173.658 566.219 Q171.852 569.76 171.852 576.89 Q171.852 583.996 173.658 587.561 Q175.487 591.103 179.098 591.103 Q182.732 591.103 184.538 587.561 Q186.366 583.996 186.366 576.89 Q186.366 569.76 184.538 566.219 Q182.732 562.654 179.098 562.654 M179.098 558.95 Q184.908 558.95 187.963 563.557 Q191.042 568.14 191.042 576.89 Q191.042 585.617 187.963 590.223 Q184.908 594.806 179.098 594.806 Q173.288 594.806 170.209 590.223 Q167.153 585.617 167.153 576.89 Q167.153 568.14 170.209 563.557 Q173.288 558.95 179.098 558.95 Z" fill="#000000" fill-rule="evenodd" fill-opacity="1" /><path clip-path="url(#clip630)" d="M 0 0 M121.691 335.551 L138.01 335.551 L138.01 339.487 L116.066 339.487 L116.066 335.551 Q118.728 332.797 123.311 328.167 Q127.917 323.514 129.098 322.172 Q131.343 319.649 132.223 317.913 Q133.126 316.153 133.126 314.464 Q133.126 311.709 131.181 309.973 Q129.26 308.237 126.158 308.237 Q123.959 308.237 121.505 309.001 Q119.075 309.765 116.297 311.315 L116.297 306.593 Q119.121 305.459 121.575 304.88 Q124.029 304.302 126.066 304.302 Q131.436 304.302 134.63 306.987 Q137.825 309.672 137.825 314.163 Q137.825 316.292 137.015 318.214 Q136.228 320.112 134.121 322.704 Q133.542 323.376 130.441 326.593 Q127.339 329.788 121.691 335.551 Z" fill="#000000" fill-rule="evenodd" fill-opacity="1" /><path clip-path="url(#clip630)" d="M 0 0 M143.126 304.927 L161.482 304.927 L161.482 308.862 L147.408 308.862 L147.408 317.334 Q148.427 316.987 149.445 316.825 Q150.464 316.639 151.482 316.639 Q157.269 316.639 160.649 319.811 Q164.028 322.982 164.028 328.399 Q164.028 333.977 160.556 337.079 Q157.084 340.158 150.765 340.158 Q148.589 340.158 146.32 339.787 Q144.075 339.417 141.667 338.676 L141.667 333.977 Q143.751 335.112 145.973 335.667 Q148.195 336.223 150.672 336.223 Q154.677 336.223 157.015 334.116 Q159.353 332.01 159.353 328.399 Q159.353 324.788 157.015 322.681 Q154.677 320.575 150.672 320.575 Q148.797 320.575 146.922 320.991 Q145.07 321.408 143.126 322.288 L143.126 304.927 Z" fill="#000000" fill-rule="evenodd" fill-opacity="1" /><path clip-path="url(#clip630)" d="M 0 0 M179.098 308.005 Q175.487 308.005 173.658 311.57 Q171.852 315.112 171.852 322.241 Q171.852 329.348 173.658 332.913 Q175.487 336.454 179.098 336.454 Q182.732 336.454 184.538 332.913 Q186.366 329.348 186.366 322.241 Q186.366 315.112 184.538 311.57 Q182.732 308.005 179.098 308.005 M179.098 304.302 Q184.908 304.302 187.963 308.908 Q191.042 313.491 191.042 322.241 Q191.042 330.968 187.963 335.575 Q184.908 340.158 179.098 340.158 Q173.288 340.158 170.209 335.575 Q167.153 330.968 167.153 322.241 Q167.153 313.491 170.209 308.908 Q173.288 304.302 179.098 304.302 Z" fill="#000000" fill-rule="evenodd" fill-opacity="1" /><path clip-path="url(#clip630)" d="M 0 0 M129.885 66.2039 Q133.242 66.9214 135.117 69.19 Q137.015 71.4585 137.015 74.7918 Q137.015 79.9075 133.496 82.7084 Q129.978 85.5093 123.496 85.5093 Q121.32 85.5093 119.006 85.0695 Q116.714 84.6528 114.26 83.7964 L114.26 79.2825 Q116.205 80.4167 118.519 80.9954 Q120.834 81.5741 123.357 81.5741 Q127.755 81.5741 130.047 79.838 Q132.362 78.1019 132.362 74.7918 Q132.362 71.7362 130.209 70.0233 Q128.08 68.2872 124.26 68.2872 L120.232 68.2872 L120.232 64.4446 L124.445 64.4446 Q127.894 64.4446 129.723 63.0789 Q131.552 61.69 131.552 59.0974 Q131.552 56.4354 129.654 55.0234 Q127.779 53.5882 124.26 53.5882 Q122.339 53.5882 120.14 54.0048 Q117.941 54.4215 115.302 55.3011 L115.302 51.1345 Q117.964 50.3938 120.279 50.0234 Q122.617 49.653 124.677 49.653 Q130.001 49.653 133.103 52.0836 Q136.204 54.491 136.204 58.6113 Q136.204 61.4817 134.561 63.4724 Q132.917 65.44 129.885 66.2039 Z" fill="#000000" fill-rule="evenodd" fill-opacity="1" /><path clip-path="url(#clip630)" d="M 0 0 M152.084 53.3567 Q148.473 53.3567 146.644 56.9215 Q144.839 60.4631 144.839 67.5927 Q144.839 74.6992 146.644 78.264 Q148.473 81.8056 152.084 81.8056 Q155.718 81.8056 157.524 78.264 Q159.353 74.6992 159.353 67.5927 Q159.353 60.4631 157.524 56.9215 Q155.718 53.3567 152.084 53.3567 M152.084 49.653 Q157.894 49.653 160.95 54.2595 Q164.028 58.8428 164.028 67.5927 Q164.028 76.3195 160.95 80.926 Q157.894 85.5093 152.084 85.5093 Q146.274 85.5093 143.195 80.926 Q140.14 76.3195 140.14 67.5927 Q140.14 58.8428 143.195 54.2595 Q146.274 49.653 152.084 49.653 Z" fill="#000000" fill-rule="evenodd" fill-opacity="1" /><path clip-path="url(#clip630)" d="M 0 0 M179.098 53.3567 Q175.487 53.3567 173.658 56.9215 Q171.852 60.4631 171.852 67.5927 Q171.852 74.6992 173.658 78.264 Q175.487 81.8056 179.098 81.8056 Q182.732 81.8056 184.538 78.264 Q186.366 74.6992 186.366 67.5927 Q186.366 60.4631 184.538 56.9215 Q182.732 53.3567 179.098 53.3567 M179.098 49.653 Q184.908 49.653 187.963 54.2595 Q191.042 58.8428 191.042 67.5927 Q191.042 76.3195 187.963 80.926 Q184.908 85.5093 179.098 85.5093 Q173.288 85.5093 170.209 80.926 Q167.153 76.3195 167.153 67.5927 Q167.153 58.8428 170.209 54.2595 Q173.288 49.653 179.098 49.653 Z" fill="#000000" fill-rule="evenodd" fill-opacity="1" /><path clip-path="url(#clip630)" d="M 0 0 M59.1993 815.533 Q55.2526 813.336 53.3747 810.281 Q51.4968 807.225 51.4968 803.088 Q51.4968 797.518 55.4117 794.494 Q59.2948 791.47 66.4881 791.47 L88.0042 791.47 L88.0042 797.358 L66.679 797.358 Q61.5546 797.358 59.072 799.173 Q56.5894 800.987 56.5894 804.711 Q56.5894 809.262 59.6131 811.904 Q62.6368 814.546 67.8567 814.546 L88.0042 814.546 L88.0042 820.434 L66.679 820.434 Q61.5228 820.434 59.072 822.248 Q56.5894 824.063 56.5894 827.85 Q56.5894 832.338 59.6449 834.98 Q62.6686 837.622 67.8567 837.622 L88.0042 837.622 L88.0042 843.51 L52.3562 843.51 L52.3562 837.622 L57.8944 837.622 Q54.616 835.616 53.0564 832.815 Q51.4968 830.015 51.4968 826.163 Q51.4968 822.28 53.4702 819.575 Q55.4436 816.838 59.1993 815.533 Z" fill="#000000" fill-rule="evenodd" fill-opacity="1" /><path clip-path="url(#clip630)" d="M 0 0 M52.3562 785.327 L52.3562 779.471 L88.0042 779.471 L88.0042 785.327 L52.3562 785.327 M38.479 785.327 L38.479 779.471 L45.895 779.471 L45.895 785.327 L38.479 785.327 Z" fill="#000000" fill-rule="evenodd" fill-opacity="1" /><path clip-path="url(#clip630)" d="M 0 0 M66.4881 743.696 L88.0042 743.696 L88.0042 749.552 L66.679 749.552 Q61.6183 749.552 59.1038 751.525 Q56.5894 753.499 56.5894 757.446 Q56.5894 762.188 59.6131 764.925 Q62.6368 767.662 67.8567 767.662 L88.0042 767.662 L88.0042 773.551 L52.3562 773.551 L52.3562 767.662 L57.8944 767.662 Q54.6797 765.562 53.0883 762.729 Q51.4968 759.864 51.4968 756.141 Q51.4968 749.998 55.3163 746.847 Q59.1038 743.696 66.4881 743.696 Z" fill="#000000" fill-rule="evenodd" fill-opacity="1" /><path clip-path="url(#clip630)" d="M 0 0 M98.8259 710.467 L103.377 710.467 L103.377 744.332 L98.8259 744.332 L98.8259 710.467 Z" fill="#000000" fill-rule="evenodd" fill-opacity="1" /><path clip-path="url(#clip630)" d="M 0 0 M57.7671 680.866 L38.479 680.866 L38.479 675.01 L88.0042 675.01 L88.0042 680.866 L82.657 680.866 Q85.8398 682.712 87.3994 685.545 Q88.9272 688.346 88.9272 692.292 Q88.9272 698.754 83.771 702.828 Q78.6147 706.87 70.212 706.87 Q61.8093 706.87 56.6531 702.828 Q51.4968 698.754 51.4968 692.292 Q51.4968 688.346 53.0564 685.545 Q54.5842 682.712 57.7671 680.866 M70.212 700.823 Q76.6732 700.823 80.3653 698.181 Q84.0256 695.507 84.0256 690.86 Q84.0256 686.213 80.3653 683.54 Q76.6732 680.866 70.212 680.866 Q63.7508 680.866 60.0905 683.54 Q56.3984 686.213 56.3984 690.86 Q56.3984 695.507 60.0905 698.181 Q63.7508 700.823 70.212 700.823 Z" fill="#000000" fill-rule="evenodd" fill-opacity="1" /><path clip-path="url(#clip630)" d="M 0 0 M52.3562 668.867 L52.3562 663.01 L88.0042 663.01 L88.0042 668.867 L52.3562 668.867 M38.479 668.867 L38.479 663.01 L45.895 663.01 L45.895 668.867 L38.479 668.867 Z" fill="#000000" fill-rule="evenodd" fill-opacity="1" /><path clip-path="url(#clip630)" d="M 0 0 M38.479 638.821 L43.3487 638.821 L43.3487 644.422 Q43.3487 647.573 44.6219 648.815 Q45.895 650.024 49.2052 650.024 L52.3562 650.024 L52.3562 640.38 L56.9077 640.38 L56.9077 650.024 L88.0042 650.024 L88.0042 655.912 L56.9077 655.912 L56.9077 661.514 L52.3562 661.514 L52.3562 655.912 L49.8736 655.912 Q43.9216 655.912 41.2162 653.143 Q38.479 650.374 38.479 644.359 L38.479 638.821 Z" fill="#000000" fill-rule="evenodd" fill-opacity="1" /><path clip-path="url(#clip630)" d="M 0 0 M38.479 614.631 L43.3487 614.631 L43.3487 620.233 Q43.3487 623.384 44.6219 624.625 Q45.895 625.835 49.2052 625.835 L52.3562 625.835 L52.3562 616.19 L56.9077 616.19 L56.9077 625.835 L88.0042 625.835 L88.0042 631.723 L56.9077 631.723 L56.9077 637.325 L52.3562 637.325 L52.3562 631.723 L49.8736 631.723 Q43.9216 631.723 41.2162 628.954 Q38.479 626.185 38.479 620.169 L38.479 614.631 Z" fill="#000000" fill-rule="evenodd" fill-opacity="1" /><polyline clip-path="url(#clip632)" style="stroke:#009af9; stroke-width:20; stroke-opacity:1; fill:none" stroke-dasharray="80, 50" points="
  287.204,85.838 1289.9,1372.3 2292.59,1032.79 
  "/>
<path clip-path="url(#clip630)" d="
M1994.69 213.659 L2281.9 213.659 L2281.9 92.6992 L1994.69 92.6992  Z
  " fill="#ffffff" fill-rule="evenodd" fill-opacity="1"/>
<polyline clip-path="url(#clip630)" style="stroke:#000000; stroke-width:4; stroke-opacity:1; fill:none" points="
  1994.69,213.659 2281.9,213.659 2281.9,92.6992 1994.69,92.6992 1994.69,213.659 
  "/>
<polyline clip-path="url(#clip630)" style="stroke:#009af9; stroke-width:4; stroke-opacity:1; fill:none" stroke-dasharray="16, 10" points="
  2018.31,153.179 2160.02,153.179 
  "/>
<path clip-path="url(#clip630)" d="M 0 0 M2197.48 172.867 Q2195.68 177.496 2193.97 178.908 Q2192.25 180.32 2189.38 180.32 L2185.98 180.32 L2185.98 176.755 L2188.48 176.755 Q2190.24 176.755 2191.21 175.922 Q2192.18 175.089 2193.36 171.987 L2194.13 170.043 L2183.64 144.533 L2188.16 144.533 L2196.26 164.811 L2204.36 144.533 L2208.87 144.533 L2197.48 172.867 Z" fill="#000000" fill-rule="evenodd" fill-opacity="1" /><path clip-path="url(#clip630)" d="M 0 0 M2214.75 166.524 L2222.39 166.524 L2222.39 140.158 L2214.08 141.825 L2214.08 137.566 L2222.35 135.899 L2227.02 135.899 L2227.02 166.524 L2234.66 166.524 L2234.66 170.459 L2214.75 170.459 L2214.75 166.524 Z" fill="#000000" fill-rule="evenodd" fill-opacity="1" /></svg>
