<?xml version="1.0" encoding="utf-8"?>
<svg xmlns="http://www.w3.org/2000/svg" xmlns:xlink="http://www.w3.org/1999/xlink" width="600" height="400" viewBox="0 0 2400 1600">
<defs>
  <clipPath id="clip250">
    <rect x="0" y="0" width="2400" height="1600"/>
  </clipPath>
</defs>
<path clip-path="url(#clip250)" d="
M0 1600 L2400 1600 L2400 0 L0 0  Z
  " fill="#ffffff" fill-rule="evenodd" fill-opacity="1"/>
<defs>
  <clipPath id="clip251">
    <rect x="480" y="0" width="1681" height="1600"/>
  </clipPath>
</defs>
<path clip-path="url(#clip250)" d="
M260.607 1410.9 L2352.76 1410.9 L2352.76 47.2441 L260.607 47.2441  Z
  " fill="#ffffff" fill-rule="evenodd" fill-opacity="1"/>
<defs>
  <clipPath id="clip252">
    <rect x="260" y="47" width="2093" height="1365"/>
  </clipPath>
</defs>
<polyline clip-path="url(#clip252)" style="stroke:#000000; stroke-width:2; stroke-opacity:0.1; fill:none" points="
  319.819,1410.9 319.819,47.2441 
  "/>
<polyline clip-path="url(#clip252)" style="stroke:#000000; stroke-width:2; stroke-opacity:0.1; fill:none" points="
  813.245,1410.9 813.245,47.2441 
  "/>
<polyline clip-path="url(#clip252)" style="stroke:#000000; stroke-width:2; stroke-opacity:0.1; fill:none" points="
  1306.67,1410.9 1306.67,47.2441 
  "/>
<polyline clip-path="url(#clip252)" style="stroke:#000000; stroke-width:2; stroke-opacity:0.1; fill:none" points="
  1800.1,1410.9 1800.1,47.2441 
  "/>
<polyline clip-path="url(#clip252)" style="stroke:#000000; stroke-width:2; stroke-opacity:0.1; fill:none" points="
  2293.52,1410.9 2293.52,47.2441 
  "/>
<polyline clip-path="url(#clip250)" style="stroke:#000000; stroke-width:4; stroke-opacity:1; fill:none" points="
  260.607,1410.9 2352.76,1410.9 
  "/>
<polyline clip-path="url(#clip250)" style="stroke:#000000; stroke-width:4; stroke-opacity:1; fill:none" points="
  319.819,1410.9 319.819,1394.53 
  "/>
<polyline clip-path="url(#clip250)" style="stroke:#000000; stroke-width:4; stroke-opacity:1; fill:none" points="
  813.245,1410.9 813.245,1394.53 
  "/>
<polyline clip-path="url(#clip250)" style="stroke:#000000; stroke-width:4; stroke-opacity:1; fill:none" points="
  1306.67,1410.9 1306.67,1394.53 
  "/>
<polyline clip-path="url(#clip250)" style="stroke:#000000; stroke-width:4; stroke-opacity:1; fill:none" points="
  1800.1,1410.9 1800.1,1394.53 
  "/>
<polyline clip-path="url(#clip250)" style="stroke:#000000; stroke-width:4; stroke-opacity:1; fill:none" points="
  2293.52,1410.9 2293.52,1394.53 
  "/>
<path clip-path="url(#clip250)" d="M 0 0 M273.466 1489.17 L281.105 1489.17 L281.105 1462.8 L272.795 1464.47 L272.795 1460.21 L281.059 1458.54 L285.735 1458.54 L285.735 1489.17 L293.373 1489.17 L293.373 1493.1 L273.466 1493.1 L273.466 1489.17 Z" fill="#000000" fill-rule="evenodd" fill-opacity="1" /><path clip-path="url(#clip250)" d="M 0 0 M308.443 1461.62 Q304.832 1461.62 303.003 1465.19 Q301.197 1468.73 301.197 1475.86 Q301.197 1482.97 303.003 1486.53 Q304.832 1490.07 308.443 1490.07 Q312.077 1490.07 313.883 1486.53 Q315.711 1482.97 315.711 1475.86 Q315.711 1468.73 313.883 1465.19 Q312.077 1461.62 308.443 1461.62 M308.443 1457.92 Q314.253 1457.92 317.308 1462.53 Q320.387 1467.11 320.387 1475.86 Q320.387 1484.59 317.308 1489.19 Q314.253 1493.78 308.443 1493.78 Q302.633 1493.78 299.554 1489.19 Q296.498 1484.59 296.498 1475.86 Q296.498 1467.11 299.554 1462.53 Q302.633 1457.92 308.443 1457.92 Z" fill="#000000" fill-rule="evenodd" fill-opacity="1" /><path clip-path="url(#clip250)" d="M 0 0 M320.387 1452.02 L344.499 1452.02 L344.499 1455.22 L320.387 1455.22 L320.387 1452.02 Z" fill="#000000" fill-rule="evenodd" fill-opacity="1" /><path clip-path="url(#clip250)" d="M 0 0 M359.056 1440.92 L349.464 1455.91 L359.056 1455.91 L359.056 1440.92 M358.059 1437.61 L362.836 1437.61 L362.836 1455.91 L366.842 1455.91 L366.842 1459.07 L362.836 1459.07 L362.836 1465.69 L359.056 1465.69 L359.056 1459.07 L346.379 1459.07 L346.379 1455.41 L358.059 1437.61 Z" fill="#000000" fill-rule="evenodd" fill-opacity="1" /><path clip-path="url(#clip250)" d="M 0 0 M767.353 1489.17 L774.992 1489.17 L774.992 1462.8 L766.682 1464.47 L766.682 1460.21 L774.945 1458.54 L779.621 1458.54 L779.621 1489.17 L787.26 1489.17 L787.26 1493.1 L767.353 1493.1 L767.353 1489.17 Z" fill="#000000" fill-rule="evenodd" fill-opacity="1" /><path clip-path="url(#clip250)" d="M 0 0 M802.33 1461.62 Q798.718 1461.62 796.89 1465.19 Q795.084 1468.73 795.084 1475.86 Q795.084 1482.97 796.89 1486.53 Q798.718 1490.07 802.33 1490.07 Q805.964 1490.07 807.769 1486.53 Q809.598 1482.97 809.598 1475.86 Q809.598 1468.73 807.769 1465.19 Q805.964 1461.62 802.33 1461.62 M802.33 1457.92 Q808.14 1457.92 811.195 1462.53 Q814.274 1467.11 814.274 1475.86 Q814.274 1484.59 811.195 1489.19 Q808.14 1493.78 802.33 1493.78 Q796.519 1493.78 793.441 1489.19 Q790.385 1484.59 790.385 1475.86 Q790.385 1467.11 793.441 1462.53 Q796.519 1457.92 802.33 1457.92 Z" fill="#000000" fill-rule="evenodd" fill-opacity="1" /><path clip-path="url(#clip250)" d="M 0 0 M814.274 1452.02 L838.386 1452.02 L838.386 1455.22 L814.274 1455.22 L814.274 1452.02 Z" fill="#000000" fill-rule="evenodd" fill-opacity="1" /><path clip-path="url(#clip250)" d="M 0 0 M854.015 1450.55 Q856.742 1451.14 858.265 1452.98 Q859.808 1454.82 859.808 1457.53 Q859.808 1461.69 856.949 1463.96 Q854.09 1466.24 848.824 1466.24 Q847.056 1466.24 845.175 1465.88 Q843.313 1465.54 841.32 1464.85 L841.32 1461.18 Q842.899 1462.1 844.78 1462.57 Q846.661 1463.04 848.711 1463.04 Q852.284 1463.04 854.146 1461.63 Q856.027 1460.22 856.027 1457.53 Q856.027 1455.05 854.278 1453.66 Q852.548 1452.25 849.444 1452.25 L846.172 1452.25 L846.172 1449.12 L849.595 1449.12 Q852.397 1449.12 853.883 1448.01 Q855.369 1446.89 855.369 1444.78 Q855.369 1442.62 853.827 1441.47 Q852.303 1440.3 849.444 1440.3 Q847.883 1440.3 846.097 1440.64 Q844.31 1440.98 842.166 1441.69 L842.166 1438.31 Q844.329 1437.71 846.21 1437.41 Q848.109 1437.11 849.783 1437.11 Q854.109 1437.11 856.629 1439.08 Q859.149 1441.04 859.149 1444.38 Q859.149 1446.72 857.814 1448.33 Q856.479 1449.93 854.015 1450.55 Z" fill="#000000" fill-rule="evenodd" fill-opacity="1" /><path clip-path="url(#clip250)" d="M 0 0 M1261.16 1489.17 L1268.8 1489.17 L1268.8 1462.8 L1260.49 1464.47 L1260.49 1460.21 L1268.76 1458.54 L1273.43 1458.54 L1273.43 1489.17 L1281.07 1489.17 L1281.07 1493.1 L1261.16 1493.1 L1261.16 1489.17 Z" fill="#000000" fill-rule="evenodd" fill-opacity="1" /><path clip-path="url(#clip250)" d="M 0 0 M1296.14 1461.62 Q1292.53 1461.62 1290.7 1465.19 Q1288.9 1468.73 1288.9 1475.86 Q1288.9 1482.97 1290.7 1486.53 Q1292.53 1490.07 1296.14 1490.07 Q1299.78 1490.07 1301.58 1486.53 Q1303.41 1482.97 1303.41 1475.86 Q1303.41 1468.73 1301.58 1465.19 Q1299.78 1461.62 1296.14 1461.62 M1296.14 1457.92 Q1301.95 1457.92 1305.01 1462.53 Q1308.09 1467.11 1308.09 1475.86 Q1308.09 1484.59 1305.01 1489.19 Q1301.95 1493.78 1296.14 1493.78 Q1290.33 1493.78 1287.25 1489.19 Q1284.2 1484.59 1284.2 1475.86 Q1284.2 1467.11 1287.25 1462.53 Q1290.33 1457.92 1296.14 1457.92 Z" fill="#000000" fill-rule="evenodd" fill-opacity="1" /><path clip-path="url(#clip250)" d="M 0 0 M1308.09 1452.02 L1332.2 1452.02 L1332.2 1455.22 L1308.09 1455.22 L1308.09 1452.02 Z" fill="#000000" fill-rule="evenodd" fill-opacity="1" /><path clip-path="url(#clip250)" d="M 0 0 M1339.59 1462.5 L1352.85 1462.5 L1352.85 1465.69 L1335.02 1465.69 L1335.02 1462.5 Q1337.18 1460.26 1340.91 1456.5 Q1344.65 1452.72 1345.61 1451.63 Q1347.43 1449.58 1348.15 1448.16 Q1348.88 1446.74 1348.88 1445.36 Q1348.88 1443.12 1347.3 1441.71 Q1345.74 1440.3 1343.22 1440.3 Q1341.43 1440.3 1339.44 1440.92 Q1337.46 1441.54 1335.21 1442.8 L1335.21 1438.97 Q1337.5 1438.05 1339.49 1437.58 Q1341.49 1437.11 1343.14 1437.11 Q1347.51 1437.11 1350.1 1439.29 Q1352.7 1441.47 1352.7 1445.12 Q1352.7 1446.85 1352.04 1448.41 Q1351.4 1449.95 1349.69 1452.06 Q1349.22 1452.6 1346.7 1455.22 Q1344.18 1457.81 1339.59 1462.5 Z" fill="#000000" fill-rule="evenodd" fill-opacity="1" /><path clip-path="url(#clip250)" d="M 0 0 M1754.44 1489.17 L1762.08 1489.17 L1762.08 1462.8 L1753.77 1464.47 L1753.77 1460.21 L1762.03 1458.54 L1766.71 1458.54 L1766.71 1489.17 L1774.35 1489.17 L1774.35 1493.1 L1754.44 1493.1 L1754.44 1489.17 Z" fill="#000000" fill-rule="evenodd" fill-opacity="1" /><path clip-path="url(#clip250)" d="M 0 0 M1789.42 1461.62 Q1785.81 1461.62 1783.98 1465.19 Q1782.17 1468.73 1782.17 1475.86 Q1782.17 1482.97 1783.98 1486.53 Q1785.81 1490.07 1789.42 1490.07 Q1793.05 1490.07 1794.86 1486.53 Q1796.69 1482.97 1796.69 1475.86 Q1796.69 1468.73 1794.86 1465.19 Q1793.05 1461.62 1789.42 1461.62 M1789.42 1457.92 Q1795.23 1457.92 1798.28 1462.53 Q1801.36 1467.11 1801.36 1475.86 Q1801.36 1484.59 1798.28 1489.19 Q1795.23 1493.78 1789.42 1493.78 Q1783.61 1493.78 1780.53 1489.19 Q1777.47 1484.59 1777.47 1475.86 Q1777.47 1467.11 1780.53 1462.53 Q1783.61 1457.92 1789.42 1457.92 Z" fill="#000000" fill-rule="evenodd" fill-opacity="1" /><path clip-path="url(#clip250)" d="M 0 0 M1801.36 1452.02 L1825.47 1452.02 L1825.47 1455.22 L1801.36 1455.22 L1801.36 1452.02 Z" fill="#000000" fill-rule="evenodd" fill-opacity="1" /><path clip-path="url(#clip250)" d="M 0 0 M1830.25 1462.5 L1836.46 1462.5 L1836.46 1441.07 L1829.7 1442.43 L1829.7 1438.97 L1836.42 1437.61 L1840.22 1437.61 L1840.22 1462.5 L1846.42 1462.5 L1846.42 1465.69 L1830.25 1465.69 L1830.25 1462.5 Z" fill="#000000" fill-rule="evenodd" fill-opacity="1" /><path clip-path="url(#clip250)" d="M 0 0 M2260.69 1489.17 L2268.33 1489.17 L2268.33 1462.8 L2260.02 1464.47 L2260.02 1460.21 L2268.29 1458.54 L2272.96 1458.54 L2272.96 1489.17 L2280.6 1489.17 L2280.6 1493.1 L2260.69 1493.1 L2260.69 1489.17 Z" fill="#000000" fill-rule="evenodd" fill-opacity="1" /><path clip-path="url(#clip250)" d="M 0 0 M2295.67 1461.62 Q2292.06 1461.62 2290.23 1465.19 Q2288.42 1468.73 2288.42 1475.86 Q2288.42 1482.97 2290.23 1486.53 Q2292.06 1490.07 2295.67 1490.07 Q2299.3 1490.07 2301.11 1486.53 Q2302.94 1482.97 2302.94 1475.86 Q2302.94 1468.73 2301.11 1465.19 Q2299.3 1461.62 2295.67 1461.62 M2295.67 1457.92 Q2301.48 1457.92 2304.54 1462.53 Q2307.61 1467.11 2307.61 1475.86 Q2307.61 1484.59 2304.54 1489.19 Q2301.48 1493.78 2295.67 1493.78 Q2289.86 1493.78 2286.78 1489.19 Q2283.73 1484.59 2283.73 1475.86 Q2283.73 1467.11 2286.78 1462.53 Q2289.86 1457.92 2295.67 1457.92 Z" fill="#000000" fill-rule="evenodd" fill-opacity="1" /><path clip-path="url(#clip250)" d="M 0 0 M2317.32 1440.11 Q2314.38 1440.11 2312.9 1443.01 Q2311.43 1445.89 2311.43 1451.68 Q2311.43 1457.46 2312.9 1460.35 Q2314.38 1463.23 2317.32 1463.23 Q2320.27 1463.23 2321.74 1460.35 Q2323.22 1457.46 2323.22 1451.68 Q2323.22 1445.89 2321.74 1443.01 Q2320.27 1440.11 2317.32 1440.11 M2317.32 1437.11 Q2322.04 1437.11 2324.52 1440.85 Q2327.02 1444.57 2327.02 1451.68 Q2327.02 1458.77 2324.52 1462.51 Q2322.04 1466.24 2317.32 1466.24 Q2312.6 1466.24 2310.1 1462.51 Q2307.61 1458.77 2307.61 1451.68 Q2307.61 1444.57 2310.1 1440.85 Q2312.6 1437.11 2317.32 1437.11 Z" fill="#000000" fill-rule="evenodd" fill-opacity="1" /><path clip-path="url(#clip250)" d="M 0 0 M1231.9 1512.66 L1237.79 1512.66 L1237.79 1541.91 L1255.26 1526.54 L1262.74 1526.54 L1243.84 1543.22 L1263.54 1562.19 L1255.9 1562.19 L1237.79 1544.78 L1237.79 1562.19 L1231.9 1562.19 L1231.9 1512.66 Z" fill="#000000" fill-rule="evenodd" fill-opacity="1" /><path clip-path="url(#clip250)" d="M 0 0 M1296.77 1573.01 L1296.77 1577.56 L1262.9 1577.56 L1262.9 1573.01 L1296.77 1573.01 Z" fill="#000000" fill-rule="evenodd" fill-opacity="1" /><path clip-path="url(#clip250)" d="M 0 0 M1316.72 1530.64 Q1312.01 1530.64 1309.28 1534.34 Q1306.54 1538 1306.54 1544.39 Q1306.54 1550.79 1309.24 1554.48 Q1311.98 1558.14 1316.72 1558.14 Q1321.4 1558.14 1324.14 1554.45 Q1326.88 1550.76 1326.88 1544.39 Q1326.88 1538.06 1324.14 1534.37 Q1321.4 1530.64 1316.72 1530.64 M1316.72 1525.68 Q1324.36 1525.68 1328.72 1530.64 Q1333.08 1535.61 1333.08 1544.39 Q1333.08 1553.15 1328.72 1558.14 Q1324.36 1563.11 1316.72 1563.11 Q1309.05 1563.11 1304.69 1558.14 Q1300.36 1553.15 1300.36 1544.39 Q1300.36 1535.61 1304.69 1530.64 Q1309.05 1525.68 1316.72 1525.68 Z" fill="#000000" fill-rule="evenodd" fill-opacity="1" /><path clip-path="url(#clip250)" d="M 0 0 M1357.27 1512.66 L1357.27 1517.53 L1351.67 1517.53 Q1348.52 1517.53 1347.28 1518.8 Q1346.07 1520.08 1346.07 1523.39 L1346.07 1526.54 L1355.71 1526.54 L1355.71 1531.09 L1346.07 1531.09 L1346.07 1562.19 L1340.18 1562.19 L1340.18 1531.09 L1334.58 1531.09 L1334.58 1526.54 L1340.18 1526.54 L1340.18 1524.05 Q1340.18 1518.1 1342.95 1515.4 Q1345.72 1512.66 1351.73 1512.66 L1357.27 1512.66 Z" fill="#000000" fill-rule="evenodd" fill-opacity="1" /><path clip-path="url(#clip250)" d="M 0 0 M1381.46 1512.66 L1381.46 1517.53 L1375.86 1517.53 Q1372.71 1517.53 1371.47 1518.8 Q1370.26 1520.08 1370.26 1523.39 L1370.26 1526.54 L1379.9 1526.54 L1379.9 1531.09 L1370.26 1531.09 L1370.26 1562.19 L1364.37 1562.19 L1364.37 1531.09 L1358.77 1531.09 L1358.77 1526.54 L1364.37 1526.54 L1364.37 1524.05 Q1364.37 1518.1 1367.14 1515.4 Q1369.91 1512.66 1375.92 1512.66 L1381.46 1512.66 Z" fill="#000000" fill-rule="evenodd" fill-opacity="1" /><polyline clip-path="url(#clip252)" style="stroke:#000000; stroke-width:2; stroke-opacity:0.1; fill:none" points="
  260.607,1375.44 2352.76,1375.44 
  "/>
<polyline clip-path="url(#clip252)" style="stroke:#000000; stroke-width:2; stroke-opacity:0.1; fill:none" points="
  260.607,1053.83 2352.76,1053.83 
  "/>
<polyline clip-path="url(#clip252)" style="stroke:#000000; stroke-width:2; stroke-opacity:0.1; fill:none" points="
  260.607,732.211 2352.76,732.211 
  "/>
<polyline clip-path="url(#clip252)" style="stroke:#000000; stroke-width:2; stroke-opacity:0.1; fill:none" points="
  260.607,410.595 2352.76,410.595 
  "/>
<polyline clip-path="url(#clip252)" style="stroke:#000000; stroke-width:2; stroke-opacity:0.1; fill:none" points="
  260.607,88.9788 2352.76,88.9788 
  "/>
<polyline clip-path="url(#clip250)" style="stroke:#000000; stroke-width:4; stroke-opacity:1; fill:none" points="
  260.607,1410.9 260.607,47.2441 
  "/>
<polyline clip-path="url(#clip250)" style="stroke:#000000; stroke-width:4; stroke-opacity:1; fill:none" points="
  260.607,1375.44 285.713,1375.44 
  "/>
<polyline clip-path="url(#clip250)" style="stroke:#000000; stroke-width:4; stroke-opacity:1; fill:none" points="
  260.607,1053.83 285.713,1053.83 
  "/>
<polyline clip-path="url(#clip250)" style="stroke:#000000; stroke-width:4; stroke-opacity:1; fill:none" points="
  260.607,732.211 285.713,732.211 
  "/>
<polyline clip-path="url(#clip250)" style="stroke:#000000; stroke-width:4; stroke-opacity:1; fill:none" points="
  260.607,410.595 285.713,410.595 
  "/>
<polyline clip-path="url(#clip250)" style="stroke:#000000; stroke-width:4; stroke-opacity:1; fill:none" points="
  260.607,88.9788 285.713,88.9788 
  "/>
<path clip-path="url(#clip250)" d="M 0 0 M114.931 1388.79 L122.57 1388.79 L122.57 1362.42 L114.26 1364.09 L114.26 1359.83 L122.524 1358.16 L127.2 1358.16 L127.2 1388.79 L134.839 1388.79 L134.839 1392.72 L114.931 1392.72 L114.931 1388.79 Z" fill="#000000" fill-rule="evenodd" fill-opacity="1" /><path clip-path="url(#clip250)" d="M 0 0 M140.718 1388.79 L148.357 1388.79 L148.357 1362.42 L140.047 1364.09 L140.047 1359.83 L148.311 1358.16 L152.987 1358.16 L152.987 1388.79 L160.626 1388.79 L160.626 1392.72 L140.718 1392.72 L140.718 1388.79 Z" fill="#000000" fill-rule="evenodd" fill-opacity="1" /><path clip-path="url(#clip250)" d="M 0 0 M165.695 1386.84 L170.579 1386.84 L170.579 1392.72 L165.695 1392.72 L165.695 1386.84 Z" fill="#000000" fill-rule="evenodd" fill-opacity="1" /><path clip-path="url(#clip250)" d="M 0 0 M185.649 1361.24 Q182.038 1361.24 180.209 1364.81 Q178.403 1368.35 178.403 1375.48 Q178.403 1382.58 180.209 1386.15 Q182.038 1389.69 185.649 1389.69 Q189.283 1389.69 191.088 1386.15 Q192.917 1382.58 192.917 1375.48 Q192.917 1368.35 191.088 1364.81 Q189.283 1361.24 185.649 1361.24 M185.649 1357.54 Q191.459 1357.54 194.514 1362.14 Q197.593 1366.73 197.593 1375.48 Q197.593 1384.21 194.514 1388.81 Q191.459 1393.39 185.649 1393.39 Q179.839 1393.39 176.76 1388.81 Q173.704 1384.21 173.704 1375.48 Q173.704 1366.73 176.76 1362.14 Q179.839 1357.54 185.649 1357.54 Z" fill="#000000" fill-rule="evenodd" fill-opacity="1" /><path clip-path="url(#clip250)" d="M 0 0 M212.662 1361.24 Q209.051 1361.24 207.223 1364.81 Q205.417 1368.35 205.417 1375.48 Q205.417 1382.58 207.223 1386.15 Q209.051 1389.69 212.662 1389.69 Q216.297 1389.69 218.102 1386.15 Q219.931 1382.58 219.931 1375.48 Q219.931 1368.35 218.102 1364.81 Q216.297 1361.24 212.662 1361.24 M212.662 1357.54 Q218.473 1357.54 221.528 1362.14 Q224.607 1366.73 224.607 1375.48 Q224.607 1384.21 221.528 1388.81 Q218.473 1393.39 212.662 1393.39 Q206.852 1393.39 203.774 1388.81 Q200.718 1384.21 200.718 1375.48 Q200.718 1366.73 203.774 1362.14 Q206.852 1357.54 212.662 1357.54 Z" fill="#000000" fill-rule="evenodd" fill-opacity="1" /><path clip-path="url(#clip250)" d="M 0 0 M117.524 1067.17 L125.163 1067.17 L125.163 1040.81 L116.853 1042.47 L116.853 1038.21 L125.117 1036.55 L129.792 1036.55 L129.792 1067.17 L137.431 1067.17 L137.431 1071.11 L117.524 1071.11 L117.524 1067.17 Z" fill="#000000" fill-rule="evenodd" fill-opacity="1" /><path clip-path="url(#clip250)" d="M 0 0 M143.311 1067.17 L150.95 1067.17 L150.95 1040.81 L142.64 1042.47 L142.64 1038.21 L150.903 1036.55 L155.579 1036.55 L155.579 1067.17 L163.218 1067.17 L163.218 1071.11 L143.311 1071.11 L143.311 1067.17 Z" fill="#000000" fill-rule="evenodd" fill-opacity="1" /><path clip-path="url(#clip250)" d="M 0 0 M168.288 1065.23 L173.172 1065.23 L173.172 1071.11 L168.288 1071.11 L168.288 1065.23 Z" fill="#000000" fill-rule="evenodd" fill-opacity="1" /><path clip-path="url(#clip250)" d="M 0 0 M182.269 1067.17 L198.588 1067.17 L198.588 1071.11 L176.644 1071.11 L176.644 1067.17 Q179.306 1064.42 183.889 1059.79 Q188.496 1055.14 189.676 1053.79 Q191.922 1051.27 192.801 1049.53 Q193.704 1047.77 193.704 1046.08 Q193.704 1043.33 191.76 1041.59 Q189.838 1039.86 186.737 1039.86 Q184.538 1039.86 182.084 1040.62 Q179.653 1041.39 176.876 1042.94 L176.876 1038.21 Q179.7 1037.08 182.153 1036.5 Q184.607 1035.92 186.644 1035.92 Q192.014 1035.92 195.209 1038.61 Q198.403 1041.29 198.403 1045.78 Q198.403 1047.91 197.593 1049.83 Q196.806 1051.73 194.7 1054.33 Q194.121 1055 191.019 1058.21 Q187.917 1061.41 182.269 1067.17 Z" fill="#000000" fill-rule="evenodd" fill-opacity="1" /><path clip-path="url(#clip250)" d="M 0 0 M203.704 1036.55 L222.061 1036.55 L222.061 1040.48 L207.987 1040.48 L207.987 1048.95 Q209.005 1048.61 210.024 1048.45 Q211.042 1048.26 212.061 1048.26 Q217.848 1048.26 221.227 1051.43 Q224.607 1054.6 224.607 1060.02 Q224.607 1065.6 221.135 1068.7 Q217.662 1071.78 211.343 1071.78 Q209.167 1071.78 206.899 1071.41 Q204.653 1071.04 202.246 1070.3 L202.246 1065.6 Q204.329 1066.73 206.551 1067.29 Q208.774 1067.84 211.25 1067.84 Q215.255 1067.84 217.593 1065.74 Q219.931 1063.63 219.931 1060.02 Q219.931 1056.41 217.593 1054.3 Q215.255 1052.2 211.25 1052.2 Q209.375 1052.2 207.5 1052.61 Q205.649 1053.03 203.704 1053.91 L203.704 1036.55 Z" fill="#000000" fill-rule="evenodd" fill-opacity="1" /><path clip-path="url(#clip250)" d="M 0 0 M115.927 745.556 L123.566 745.556 L123.566 719.19 L115.256 720.857 L115.256 716.598 L123.519 714.931 L128.195 714.931 L128.195 745.556 L135.834 745.556 L135.834 749.491 L115.927 749.491 L115.927 745.556 Z" fill="#000000" fill-rule="evenodd" fill-opacity="1" /><path clip-path="url(#clip250)" d="M 0 0 M141.714 745.556 L149.353 745.556 L149.353 719.19 L141.042 720.857 L141.042 716.598 L149.306 714.931 L153.982 714.931 L153.982 745.556 L161.621 745.556 L161.621 749.491 L141.714 749.491 L141.714 745.556 Z" fill="#000000" fill-rule="evenodd" fill-opacity="1" /><path clip-path="url(#clip250)" d="M 0 0 M166.69 743.612 L171.575 743.612 L171.575 749.491 L166.69 749.491 L166.69 743.612 Z" fill="#000000" fill-rule="evenodd" fill-opacity="1" /><path clip-path="url(#clip250)" d="M 0 0 M176.69 714.931 L195.047 714.931 L195.047 718.866 L180.973 718.866 L180.973 727.338 Q181.991 726.991 183.01 726.829 Q184.028 726.644 185.047 726.644 Q190.834 726.644 194.213 729.815 Q197.593 732.987 197.593 738.403 Q197.593 743.982 194.121 747.084 Q190.649 750.162 184.329 750.162 Q182.153 750.162 179.885 749.792 Q177.639 749.422 175.232 748.681 L175.232 743.982 Q177.315 745.116 179.538 745.672 Q181.76 746.227 184.237 746.227 Q188.241 746.227 190.579 744.121 Q192.917 742.014 192.917 738.403 Q192.917 734.792 190.579 732.686 Q188.241 730.579 184.237 730.579 Q182.362 730.579 180.487 730.996 Q178.635 731.413 176.69 732.292 L176.69 714.931 Z" fill="#000000" fill-rule="evenodd" fill-opacity="1" /><path clip-path="url(#clip250)" d="M 0 0 M212.662 718.01 Q209.051 718.01 207.223 721.575 Q205.417 725.116 205.417 732.246 Q205.417 739.352 207.223 742.917 Q209.051 746.459 212.662 746.459 Q216.297 746.459 218.102 742.917 Q219.931 739.352 219.931 732.246 Q219.931 725.116 218.102 721.575 Q216.297 718.01 212.662 718.01 M212.662 714.306 Q218.473 714.306 221.528 718.913 Q224.607 723.496 224.607 732.246 Q224.607 740.973 221.528 745.579 Q218.473 750.162 212.662 750.162 Q206.852 750.162 203.774 745.579 Q200.718 740.973 200.718 732.246 Q200.718 723.496 203.774 718.913 Q206.852 714.306 212.662 714.306 Z" fill="#000000" fill-rule="evenodd" fill-opacity="1" /><path clip-path="url(#clip250)" d="M 0 0 M116.83 423.94 L124.468 423.94 L124.468 397.574 L116.158 399.241 L116.158 394.982 L124.422 393.315 L129.098 393.315 L129.098 423.94 L136.737 423.94 L136.737 427.875 L116.83 427.875 L116.83 423.94 Z" fill="#000000" fill-rule="evenodd" fill-opacity="1" /><path clip-path="url(#clip250)" d="M 0 0 M142.616 423.94 L150.255 423.94 L150.255 397.574 L141.945 399.241 L141.945 394.982 L150.209 393.315 L154.885 393.315 L154.885 423.94 L162.524 423.94 L162.524 427.875 L142.616 427.875 L142.616 423.94 Z" fill="#000000" fill-rule="evenodd" fill-opacity="1" /><path clip-path="url(#clip250)" d="M 0 0 M167.593 421.995 L172.477 421.995 L172.477 427.875 L167.593 427.875 L167.593 421.995 Z" fill="#000000" fill-rule="evenodd" fill-opacity="1" /><path clip-path="url(#clip250)" d="M 0 0 M176.366 393.315 L198.588 393.315 L198.588 395.306 L186.042 427.875 L181.158 427.875 L192.963 397.25 L176.366 397.25 L176.366 393.315 Z" fill="#000000" fill-rule="evenodd" fill-opacity="1" /><path clip-path="url(#clip250)" d="M 0 0 M203.704 393.315 L222.061 393.315 L222.061 397.25 L207.987 397.25 L207.987 405.722 Q209.005 405.375 210.024 405.213 Q211.042 405.028 212.061 405.028 Q217.848 405.028 221.227 408.199 Q224.607 411.37 224.607 416.787 Q224.607 422.366 221.135 425.468 Q217.662 428.546 211.343 428.546 Q209.167 428.546 206.899 428.176 Q204.653 427.806 202.246 427.065 L202.246 422.366 Q204.329 423.5 206.551 424.056 Q208.774 424.611 211.25 424.611 Q215.255 424.611 217.593 422.505 Q219.931 420.398 219.931 416.787 Q219.931 413.176 217.593 411.07 Q215.255 408.963 211.25 408.963 Q209.375 408.963 207.5 409.38 Q205.649 409.796 203.704 410.676 L203.704 393.315 Z" fill="#000000" fill-rule="evenodd" fill-opacity="1" /><path clip-path="url(#clip250)" d="M 0 0 M115.302 102.324 L122.941 102.324 L122.941 75.9581 L114.631 77.6247 L114.631 73.3655 L122.894 71.6988 L127.57 71.6988 L127.57 102.324 L135.209 102.324 L135.209 106.259 L115.302 106.259 L115.302 102.324 Z" fill="#000000" fill-rule="evenodd" fill-opacity="1" /><path clip-path="url(#clip250)" d="M 0 0 M144.306 102.324 L160.626 102.324 L160.626 106.259 L138.681 106.259 L138.681 102.324 Q141.343 99.569 145.927 94.9394 Q150.533 90.2867 151.714 88.9441 Q153.959 86.421 154.839 84.6849 Q155.741 82.9256 155.741 81.2358 Q155.741 78.4812 153.797 76.7451 Q151.876 75.009 148.774 75.009 Q146.575 75.009 144.121 75.7729 Q141.691 76.5368 138.913 78.0877 L138.913 73.3655 Q141.737 72.2312 144.191 71.6525 Q146.644 71.0738 148.681 71.0738 Q154.052 71.0738 157.246 73.759 Q160.44 76.4442 160.44 80.9349 Q160.44 83.0645 159.63 84.9858 Q158.843 86.8839 156.737 89.4765 Q156.158 90.1478 153.056 93.3654 Q149.954 96.5598 144.306 102.324 Z" fill="#000000" fill-rule="evenodd" fill-opacity="1" /><path clip-path="url(#clip250)" d="M 0 0 M165.695 100.379 L170.579 100.379 L170.579 106.259 L165.695 106.259 L165.695 100.379 Z" fill="#000000" fill-rule="evenodd" fill-opacity="1" /><path clip-path="url(#clip250)" d="M 0 0 M185.649 74.7775 Q182.038 74.7775 180.209 78.3423 Q178.403 81.8839 178.403 89.0135 Q178.403 96.12 180.209 99.6848 Q182.038 103.226 185.649 103.226 Q189.283 103.226 191.088 99.6848 Q192.917 96.12 192.917 89.0135 Q192.917 81.8839 191.088 78.3423 Q189.283 74.7775 185.649 74.7775 M185.649 71.0738 Q191.459 71.0738 194.514 75.6803 Q197.593 80.2636 197.593 89.0135 Q197.593 97.7403 194.514 102.347 Q191.459 106.93 185.649 106.93 Q179.839 106.93 176.76 102.347 Q173.704 97.7403 173.704 89.0135 Q173.704 80.2636 176.76 75.6803 Q179.839 71.0738 185.649 71.0738 Z" fill="#000000" fill-rule="evenodd" fill-opacity="1" /><path clip-path="url(#clip250)" d="M 0 0 M212.662 74.7775 Q209.051 74.7775 207.223 78.3423 Q205.417 81.8839 205.417 89.0135 Q205.417 96.12 207.223 99.6848 Q209.051 103.226 212.662 103.226 Q216.297 103.226 218.102 99.6848 Q219.931 96.12 219.931 89.0135 Q219.931 81.8839 218.102 78.3423 Q216.297 74.7775 212.662 74.7775 M212.662 71.0738 Q218.473 71.0738 221.528 75.6803 Q224.607 80.2636 224.607 89.0135 Q224.607 97.7403 221.528 102.347 Q218.473 106.93 212.662 106.93 Q206.852 106.93 203.774 102.347 Q200.718 97.7403 200.718 89.0135 Q200.718 80.2636 203.774 75.6803 Q206.852 71.0738 212.662 71.0738 Z" fill="#000000" fill-rule="evenodd" fill-opacity="1" /><path clip-path="url(#clip250)" d="M 0 0 M59.1993 815.533 Q55.2526 813.336 53.3747 810.281 Q51.4968 807.225 51.4968 803.088 Q51.4968 797.518 55.4117 794.494 Q59.2948 791.47 66.4881 791.47 L88.0042 791.47 L88.0042 797.358 L66.679 797.358 Q61.5546 797.358 59.072 799.173 Q56.5894 800.987 56.5894 804.711 Q56.5894 809.262 59.6131 811.904 Q62.6368 814.546 67.8567 814.546 L88.0042 814.546 L88.0042 820.434 L66.679 820.434 Q61.5228 820.434 59.072 822.248 Q56.5894 824.063 56.5894 827.85 Q56.5894 832.338 59.6449 834.98 Q62.6686 837.622 67.8567 837.622 L88.0042 837.622 L88.0042 843.51 L52.3562 843.51 L52.3562 837.622 L57.8944 837.622 Q54.616 835.616 53.0564 832.815 Q51.4968 830.015 51.4968 826.163 Q51.4968 822.28 53.4702 819.575 Q55.4436 816.838 59.1993 815.533 Z" fill="#000000" fill-rule="evenodd" fill-opacity="1" /><path clip-path="url(#clip250)" d="M 0 0 M52.3562 785.327 L52.3562 779.471 L88.0042 779.471 L88.0042 785.327 L52.3562 785.327 M38.479 785.327 L38.479 779.471 L45.895 779.471 L45.895 785.327 L38.479 785.327 Z" fill="#000000" fill-rule="evenodd" fill-opacity="1" /><path clip-path="url(#clip250)" d="M 0 0 M66.4881 743.696 L88.0042 743.696 L88.0042 749.552 L66.679 749.552 Q61.6183 749.552 59.1038 751.525 Q56.5894 753.499 56.5894 757.446 Q56.5894 762.188 59.6131 764.925 Q62.6368 767.662 67.8567 767.662 L88.0042 767.662 L88.0042 773.551 L52.3562 773.551 L52.3562 767.662 L57.8944 767.662 Q54.6797 765.562 53.0883 762.729 Q51.4968 759.864 51.4968 756.141 Q51.4968 749.998 55.3163 746.847 Q59.1038 743.696 66.4881 743.696 Z" fill="#000000" fill-rule="evenodd" fill-opacity="1" /><path clip-path="url(#clip250)" d="M 0 0 M98.8259 710.467 L103.377 710.467 L103.377 744.332 L98.8259 744.332 L98.8259 710.467 Z" fill="#000000" fill-rule="evenodd" fill-opacity="1" /><path clip-path="url(#clip250)" d="M 0 0 M57.7671 680.866 L38.479 680.866 L38.479 675.01 L88.0042 675.01 L88.0042 680.866 L82.657 680.866 Q85.8398 682.712 87.3994 685.545 Q88.9272 688.346 88.9272 692.292 Q88.9272 698.754 83.771 702.828 Q78.6147 706.87 70.212 706.87 Q61.8093 706.87 56.6531 702.828 Q51.4968 698.754 51.4968 692.292 Q51.4968 688.346 53.0564 685.545 Q54.5842 682.712 57.7671 680.866 M70.212 700.823 Q76.6732 700.823 80.3653 698.181 Q84.0256 695.507 84.0256 690.86 Q84.0256 686.213 80.3653 683.54 Q76.6732 680.866 70.212 680.866 Q63.7508 680.866 60.0905 683.54 Q56.3984 686.213 56.3984 690.86 Q56.3984 695.507 60.0905 698.181 Q63.7508 700.823 70.212 700.823 Z" fill="#000000" fill-rule="evenodd" fill-opacity="1" /><path clip-path="url(#clip250)" d="M 0 0 M52.3562 668.867 L52.3562 663.01 L88.0042 663.01 L88.0042 668.867 L52.3562 668.867 M38.479 668.867 L38.479 663.01 L45.895 663.01 L45.895 668.867 L38.479 668.867 Z" fill="#000000" fill-rule="evenodd" fill-opacity="1" /><path clip-path="url(#clip250)" d="M 0 0 M38.479 638.821 L43.3487 638.821 L43.3487 644.422 Q43.3487 647.573 44.6219 648.815 Q45.895 650.024 49.2052 650.024 L52.3562 650.024 L52.3562 640.38 L56.9077 640.38 L56.9077 650.024 L88.0042 650.024 L88.0042 655.912 L56.9077 655.912 L56.9077 661.514 L52.3562 661.514 L52.3562 655.912 L49.8736 655.912 Q43.9216 655.912 41.2162 653.143 Q38.479 650.374 38.479 644.359 L38.479 638.821 Z" fill="#000000" fill-rule="evenodd" fill-opacity="1" /><path clip-path="url(#clip250)" d="M 0 0 M38.479 614.631 L43.3487 614.631 L43.3487 620.233 Q43.3487 623.384 44.6219 624.625 Q45.895 625.835 49.2052 625.835 L52.3562 625.835 L52.3562 616.19 L56.9077 616.19 L56.9077 625.835 L88.0042 625.835 L88.0042 631.723 L56.9077 631.723 L56.9077 637.325 L52.3562 637.325 L52.3562 631.723 L49.8736 631.723 Q43.9216 631.723 41.2162 628.954 Q38.479 626.185 38.479 620.169 L38.479 614.631 Z" fill="#000000" fill-rule="evenodd" fill-opacity="1" /><path clip-path="url(#clip250)" d="
M1999.54 213.659 L2283.02 213.659 L2283.02 92.6992 L1999.54 92.6992  Z
  " fill="#ffffff" fill-rule="evenodd" fill-opacity="1"/>
<polyline clip-path="url(#clip250)" style="stroke:#000000; stroke-width:4; stroke-opacity:1; fill:none" points="
  1999.54,213.659 2283.02,213.659 2283.02,92.6992 1999.54,92.6992 1999.54,213.659 
  "/>
<polyline clip-path="url(#clip250)" style="stroke:#009af9; stroke-width:4; stroke-opacity:1; fill:none" stroke-dasharray="16, 10" points="
  2022.78,153.179 2162.26,153.179 
  "/>
<path clip-path="url(#clip250)" d="M 0 0 M2199.35 172.867 Q2197.54 177.496 2195.83 178.908 Q2194.12 180.32 2191.25 180.32 L2187.85 180.32 L2187.85 176.755 L2190.35 176.755 Q2192.1 176.755 2193.08 175.922 Q2194.05 175.089 2195.23 171.987 L2195.99 170.043 L2185.51 144.533 L2190.02 144.533 L2198.12 164.811 L2206.22 144.533 L2210.74 144.533 L2199.35 172.867 Z" fill="#000000" fill-rule="evenodd" fill-opacity="1" /><path clip-path="url(#clip250)" d="M 0 0 M2216.62 166.524 L2224.26 166.524 L2224.26 140.158 L2215.95 141.825 L2215.95 137.566 L2224.21 135.899 L2228.89 135.899 L2228.89 166.524 L2236.53 166.524 L2236.53 170.459 L2216.62 170.459 L2216.62 166.524 Z" fill="#000000" fill-rule="evenodd" fill-opacity="1" /></svg>
