<?xml version="1.0" encoding="utf-8"?>
<svg xmlns="http://www.w3.org/2000/svg" xmlns:xlink="http://www.w3.org/1999/xlink" width="600" height="400" viewBox="0 0 2400 1600">
<defs>
  <clipPath id="clip050">
    <rect x="0" y="0" width="2400" height="1600"/>
  </clipPath>
</defs>
<path clip-path="url(#clip050)" d="
M0 1600 L2400 1600 L2400 0 L0 0  Z
  " fill="#ffffff" fill-rule="evenodd" fill-opacity="1"/>
<defs>
  <clipPath id="clip051">
    <rect x="480" y="0" width="1681" height="1600"/>
  </clipPath>
</defs>
<path clip-path="url(#clip050)" d="
M229.473 1410.9 L2352.76 1410.9 L2352.76 47.2441 L229.473 47.2441  Z
  " fill="#ffffff" fill-rule="evenodd" fill-opacity="1"/>
<defs>
  <clipPath id="clip052">
    <rect x="229" y="47" width="2124" height="1365"/>
  </clipPath>
</defs>
<polyline clip-path="url(#clip052)" style="stroke:#000000; stroke-width:2; stroke-opacity:0.1; fill:none" points="
  513.655,1410.9 513.655,47.2441 
  "/>
<polyline clip-path="url(#clip052)" style="stroke:#000000; stroke-width:2; stroke-opacity:0.1; fill:none" points="
  957.265,1410.9 957.265,47.2441 
  "/>
<polyline clip-path="url(#clip052)" style="stroke:#000000; stroke-width:2; stroke-opacity:0.1; fill:none" points="
  1400.87,1410.9 1400.87,47.2441 
  "/>
<polyline clip-path="url(#clip052)" style="stroke:#000000; stroke-width:2; stroke-opacity:0.1; fill:none" points="
  1844.48,1410.9 1844.48,47.2441 
  "/>
<polyline clip-path="url(#clip052)" style="stroke:#000000; stroke-width:2; stroke-opacity:0.1; fill:none" points="
  2288.09,1410.9 2288.09,47.2441 
  "/>
<polyline clip-path="url(#clip050)" style="stroke:#000000; stroke-width:4; stroke-opacity:1; fill:none" points="
  229.473,1410.9 2352.76,1410.9 
  "/>
<polyline clip-path="url(#clip050)" style="stroke:#000000; stroke-width:4; stroke-opacity:1; fill:none" points="
  513.655,1410.9 513.655,1394.53 
  "/>
<polyline clip-path="url(#clip050)" style="stroke:#000000; stroke-width:4; stroke-opacity:1; fill:none" points="
  957.265,1410.9 957.265,1394.53 
  "/>
<polyline clip-path="url(#clip050)" style="stroke:#000000; stroke-width:4; stroke-opacity:1; fill:none" points="
  1400.87,1410.9 1400.87,1394.53 
  "/>
<polyline clip-path="url(#clip050)" style="stroke:#000000; stroke-width:4; stroke-opacity:1; fill:none" points="
  1844.48,1410.9 1844.48,1394.53 
  "/>
<polyline clip-path="url(#clip050)" style="stroke:#000000; stroke-width:4; stroke-opacity:1; fill:none" points="
  2288.09,1410.9 2288.09,1394.53 
  "/>
<path clip-path="url(#clip050)" d="M 0 0 M453.131 1489.17 L460.77 1489.17 L460.77 1462.8 L452.46 1464.47 L452.46 1460.21 L460.723 1458.54 L465.399 1458.54 L465.399 1489.17 L473.038 1489.17 L473.038 1493.1 L453.131 1493.1 L453.131 1489.17 Z" fill="#000000" fill-rule="evenodd" fill-opacity="1" /><path clip-path="url(#clip050)" d="M 0 0 M488.108 1461.62 Q484.496 1461.62 482.668 1465.19 Q480.862 1468.73 480.862 1475.86 Q480.862 1482.97 482.668 1486.53 Q484.496 1490.07 488.108 1490.07 Q491.742 1490.07 493.547 1486.53 Q495.376 1482.97 495.376 1475.86 Q495.376 1468.73 493.547 1465.19 Q491.742 1461.62 488.108 1461.62 M488.108 1457.92 Q493.918 1457.92 496.973 1462.53 Q500.052 1467.11 500.052 1475.86 Q500.052 1484.59 496.973 1489.19 Q493.918 1493.78 488.108 1493.78 Q482.297 1493.78 479.219 1489.19 Q476.163 1484.59 476.163 1475.86 Q476.163 1467.11 479.219 1462.53 Q482.297 1457.92 488.108 1457.92 Z" fill="#000000" fill-rule="evenodd" fill-opacity="1" /><path clip-path="url(#clip050)" d="M 0 0 M500.052 1452.02 L524.164 1452.02 L524.164 1455.22 L500.052 1455.22 L500.052 1452.02 Z" fill="#000000" fill-rule="evenodd" fill-opacity="1" /><path clip-path="url(#clip050)" d="M 0 0 M536.407 1440.11 Q533.473 1440.11 531.988 1443.01 Q530.521 1445.89 530.521 1451.68 Q530.521 1457.46 531.988 1460.35 Q533.473 1463.23 536.407 1463.23 Q539.36 1463.23 540.827 1460.35 Q542.313 1457.46 542.313 1451.68 Q542.313 1445.89 540.827 1443.01 Q539.36 1440.11 536.407 1440.11 M536.407 1437.11 Q541.128 1437.11 543.611 1440.85 Q546.112 1444.57 546.112 1451.68 Q546.112 1458.77 543.611 1462.51 Q541.128 1466.24 536.407 1466.24 Q531.687 1466.24 529.185 1462.51 Q526.703 1458.77 526.703 1451.68 Q526.703 1444.57 529.185 1440.85 Q531.687 1437.11 536.407 1437.11 Z" fill="#000000" fill-rule="evenodd" fill-opacity="1" /><path clip-path="url(#clip050)" d="M 0 0 M550.231 1460.92 L554.2 1460.92 L554.2 1465.69 L550.231 1465.69 L550.231 1460.92 Z" fill="#000000" fill-rule="evenodd" fill-opacity="1" /><path clip-path="url(#clip050)" d="M 0 0 M561.591 1462.5 L574.85 1462.5 L574.85 1465.69 L557.021 1465.69 L557.021 1462.5 Q559.184 1460.26 562.908 1456.5 Q566.65 1452.72 567.609 1451.63 Q569.434 1449.58 570.149 1448.16 Q570.882 1446.74 570.882 1445.36 Q570.882 1443.12 569.302 1441.71 Q567.741 1440.3 565.221 1440.3 Q563.434 1440.3 561.441 1440.92 Q559.466 1441.54 557.209 1442.8 L557.209 1438.97 Q559.503 1438.05 561.497 1437.58 Q563.491 1437.11 565.146 1437.11 Q569.509 1437.11 572.105 1439.29 Q574.7 1441.47 574.7 1445.12 Q574.7 1446.85 574.042 1448.41 Q573.402 1449.95 571.691 1452.06 Q571.221 1452.6 568.7 1455.22 Q566.18 1457.81 561.591 1462.5 Z" fill="#000000" fill-rule="evenodd" fill-opacity="1" /><path clip-path="url(#clip050)" d="M 0 0 M909.417 1489.17 L917.056 1489.17 L917.056 1462.8 L908.746 1464.47 L908.746 1460.21 L917.01 1458.54 L921.686 1458.54 L921.686 1489.17 L929.324 1489.17 L929.324 1493.1 L909.417 1493.1 L909.417 1489.17 Z" fill="#000000" fill-rule="evenodd" fill-opacity="1" /><path clip-path="url(#clip050)" d="M 0 0 M944.394 1461.62 Q940.783 1461.62 938.954 1465.19 Q937.148 1468.73 937.148 1475.86 Q937.148 1482.97 938.954 1486.53 Q940.783 1490.07 944.394 1490.07 Q948.028 1490.07 949.834 1486.53 Q951.662 1482.97 951.662 1475.86 Q951.662 1468.73 949.834 1465.19 Q948.028 1461.62 944.394 1461.62 M944.394 1457.92 Q950.204 1457.92 953.259 1462.53 Q956.338 1467.11 956.338 1475.86 Q956.338 1484.59 953.259 1489.19 Q950.204 1493.78 944.394 1493.78 Q938.584 1493.78 935.505 1489.19 Q932.449 1484.59 932.449 1475.86 Q932.449 1467.11 935.505 1462.53 Q938.584 1457.92 944.394 1457.92 Z" fill="#000000" fill-rule="evenodd" fill-opacity="1" /><path clip-path="url(#clip050)" d="M 0 0 M966.043 1440.11 Q963.109 1440.11 961.623 1443.01 Q960.156 1445.89 960.156 1451.68 Q960.156 1457.46 961.623 1460.35 Q963.109 1463.23 966.043 1463.23 Q968.996 1463.23 970.463 1460.35 Q971.949 1457.46 971.949 1451.68 Q971.949 1445.89 970.463 1443.01 Q968.996 1440.11 966.043 1440.11 M966.043 1437.11 Q970.764 1437.11 973.246 1440.85 Q975.748 1444.57 975.748 1451.68 Q975.748 1458.77 973.246 1462.51 Q970.764 1466.24 966.043 1466.24 Q961.322 1466.24 958.821 1462.51 Q956.338 1458.77 956.338 1451.68 Q956.338 1444.57 958.821 1440.85 Q961.322 1437.11 966.043 1437.11 Z" fill="#000000" fill-rule="evenodd" fill-opacity="1" /><path clip-path="url(#clip050)" d="M 0 0 M979.867 1460.92 L983.835 1460.92 L983.835 1465.69 L979.867 1465.69 L979.867 1460.92 Z" fill="#000000" fill-rule="evenodd" fill-opacity="1" /><path clip-path="url(#clip050)" d="M 0 0 M996.079 1440.11 Q993.145 1440.11 991.659 1443.01 Q990.192 1445.89 990.192 1451.68 Q990.192 1457.46 991.659 1460.35 Q993.145 1463.23 996.079 1463.23 Q999.032 1463.23 1000.5 1460.35 Q1001.98 1457.46 1001.98 1451.68 Q1001.98 1445.89 1000.5 1443.01 Q999.032 1440.11 996.079 1440.11 M996.079 1437.11 Q1000.8 1437.11 1003.28 1440.85 Q1005.78 1444.57 1005.78 1451.68 Q1005.78 1458.77 1003.28 1462.51 Q1000.8 1466.24 996.079 1466.24 Q991.358 1466.24 988.857 1462.51 Q986.374 1458.77 986.374 1451.68 Q986.374 1444.57 988.857 1440.85 Q991.358 1437.11 996.079 1437.11 Z" fill="#000000" fill-rule="evenodd" fill-opacity="1" /><path clip-path="url(#clip050)" d="M 0 0 M1353.68 1489.17 L1361.31 1489.17 L1361.31 1462.8 L1353 1464.47 L1353 1460.21 L1361.27 1458.54 L1365.94 1458.54 L1365.94 1489.17 L1373.58 1489.17 L1373.58 1493.1 L1353.68 1493.1 L1353.68 1489.17 Z" fill="#000000" fill-rule="evenodd" fill-opacity="1" /><path clip-path="url(#clip050)" d="M 0 0 M1388.65 1461.62 Q1385.04 1461.62 1383.21 1465.19 Q1381.41 1468.73 1381.41 1475.86 Q1381.41 1482.97 1383.21 1486.53 Q1385.04 1490.07 1388.65 1490.07 Q1392.29 1490.07 1394.09 1486.53 Q1395.92 1482.97 1395.92 1475.86 Q1395.92 1468.73 1394.09 1465.19 Q1392.29 1461.62 1388.65 1461.62 M1388.65 1457.92 Q1394.46 1457.92 1397.52 1462.53 Q1400.6 1467.11 1400.6 1475.86 Q1400.6 1484.59 1397.52 1489.19 Q1394.46 1493.78 1388.65 1493.78 Q1382.84 1493.78 1379.76 1489.19 Q1376.71 1484.59 1376.71 1475.86 Q1376.71 1467.11 1379.76 1462.53 Q1382.84 1457.92 1388.65 1457.92 Z" fill="#000000" fill-rule="evenodd" fill-opacity="1" /><path clip-path="url(#clip050)" d="M 0 0 M1410.3 1440.11 Q1407.37 1440.11 1405.88 1443.01 Q1404.41 1445.89 1404.41 1451.68 Q1404.41 1457.46 1405.88 1460.35 Q1407.37 1463.23 1410.3 1463.23 Q1413.25 1463.23 1414.72 1460.35 Q1416.21 1457.46 1416.21 1451.68 Q1416.21 1445.89 1414.72 1443.01 Q1413.25 1440.11 1410.3 1440.11 M1410.3 1437.11 Q1415.02 1437.11 1417.5 1440.85 Q1420.01 1444.57 1420.01 1451.68 Q1420.01 1458.77 1417.5 1462.51 Q1415.02 1466.24 1410.3 1466.24 Q1405.58 1466.24 1403.08 1462.51 Q1400.6 1458.77 1400.6 1451.68 Q1400.6 1444.57 1403.08 1440.85 Q1405.58 1437.11 1410.3 1437.11 Z" fill="#000000" fill-rule="evenodd" fill-opacity="1" /><path clip-path="url(#clip050)" d="M 0 0 M1424.13 1460.92 L1428.09 1460.92 L1428.09 1465.69 L1424.13 1465.69 L1424.13 1460.92 Z" fill="#000000" fill-rule="evenodd" fill-opacity="1" /><path clip-path="url(#clip050)" d="M 0 0 M1435.49 1462.5 L1448.74 1462.5 L1448.74 1465.69 L1430.91 1465.69 L1430.91 1462.5 Q1433.08 1460.26 1436.8 1456.5 Q1440.54 1452.72 1441.5 1451.63 Q1443.33 1449.58 1444.04 1448.16 Q1444.78 1446.74 1444.78 1445.36 Q1444.78 1443.12 1443.2 1441.71 Q1441.64 1440.3 1439.11 1440.3 Q1437.33 1440.3 1435.33 1440.92 Q1433.36 1441.54 1431.1 1442.8 L1431.1 1438.97 Q1433.4 1438.05 1435.39 1437.58 Q1437.38 1437.11 1439.04 1437.11 Q1443.4 1437.11 1446 1439.29 Q1448.59 1441.47 1448.59 1445.12 Q1448.59 1446.85 1447.94 1448.41 Q1447.3 1449.95 1445.58 1452.06 Q1445.11 1452.6 1442.59 1455.22 Q1440.07 1457.81 1435.49 1462.5 Z" fill="#000000" fill-rule="evenodd" fill-opacity="1" /><path clip-path="url(#clip050)" d="M 0 0 M1796.44 1489.17 L1804.08 1489.17 L1804.08 1462.8 L1795.77 1464.47 L1795.77 1460.21 L1804.03 1458.54 L1808.71 1458.54 L1808.71 1489.17 L1816.35 1489.17 L1816.35 1493.1 L1796.44 1493.1 L1796.44 1489.17 Z" fill="#000000" fill-rule="evenodd" fill-opacity="1" /><path clip-path="url(#clip050)" d="M 0 0 M1831.42 1461.62 Q1827.8 1461.62 1825.98 1465.19 Q1824.17 1468.73 1824.17 1475.86 Q1824.17 1482.97 1825.98 1486.53 Q1827.8 1490.07 1831.42 1490.07 Q1835.05 1490.07 1836.86 1486.53 Q1838.68 1482.97 1838.68 1475.86 Q1838.68 1468.73 1836.86 1465.19 Q1835.05 1461.62 1831.42 1461.62 M1831.42 1457.92 Q1837.23 1457.92 1840.28 1462.53 Q1843.36 1467.11 1843.36 1475.86 Q1843.36 1484.59 1840.28 1489.19 Q1837.23 1493.78 1831.42 1493.78 Q1825.61 1493.78 1822.53 1489.19 Q1819.47 1484.59 1819.47 1475.86 Q1819.47 1467.11 1822.53 1462.53 Q1825.61 1457.92 1831.42 1457.92 Z" fill="#000000" fill-rule="evenodd" fill-opacity="1" /><path clip-path="url(#clip050)" d="M 0 0 M1853.06 1440.11 Q1850.13 1440.11 1848.64 1443.01 Q1847.18 1445.89 1847.18 1451.68 Q1847.18 1457.46 1848.64 1460.35 Q1850.13 1463.23 1853.06 1463.23 Q1856.02 1463.23 1857.48 1460.35 Q1858.97 1457.46 1858.97 1451.68 Q1858.97 1445.89 1857.48 1443.01 Q1856.02 1440.11 1853.06 1440.11 M1853.06 1437.11 Q1857.79 1437.11 1860.27 1440.85 Q1862.77 1444.57 1862.77 1451.68 Q1862.77 1458.77 1860.27 1462.51 Q1857.79 1466.24 1853.06 1466.24 Q1848.34 1466.24 1845.84 1462.51 Q1843.36 1458.77 1843.36 1451.68 Q1843.36 1444.57 1845.84 1440.85 Q1848.34 1437.11 1853.06 1437.11 Z" fill="#000000" fill-rule="evenodd" fill-opacity="1" /><path clip-path="url(#clip050)" d="M 0 0 M1866.89 1460.92 L1870.86 1460.92 L1870.86 1465.69 L1866.89 1465.69 L1866.89 1460.92 Z" fill="#000000" fill-rule="evenodd" fill-opacity="1" /><path clip-path="url(#clip050)" d="M 0 0 M1885.41 1440.92 L1875.82 1455.91 L1885.41 1455.91 L1885.41 1440.92 M1884.42 1437.61 L1889.19 1437.61 L1889.19 1455.91 L1893.2 1455.91 L1893.2 1459.07 L1889.19 1459.07 L1889.19 1465.69 L1885.41 1465.69 L1885.41 1459.07 L1872.74 1459.07 L1872.74 1455.41 L1884.42 1437.61 Z" fill="#000000" fill-rule="evenodd" fill-opacity="1" /><path clip-path="url(#clip050)" d="M 0 0 M2240.18 1489.17 L2247.82 1489.17 L2247.82 1462.8 L2239.51 1464.47 L2239.51 1460.21 L2247.77 1458.54 L2252.45 1458.54 L2252.45 1489.17 L2260.09 1489.17 L2260.09 1493.1 L2240.18 1493.1 L2240.18 1489.17 Z" fill="#000000" fill-rule="evenodd" fill-opacity="1" /><path clip-path="url(#clip050)" d="M 0 0 M2275.16 1461.62 Q2271.55 1461.62 2269.72 1465.19 Q2267.91 1468.73 2267.91 1475.86 Q2267.91 1482.97 2269.72 1486.53 Q2271.55 1490.07 2275.16 1490.07 Q2278.79 1490.07 2280.6 1486.53 Q2282.43 1482.97 2282.43 1475.86 Q2282.43 1468.73 2280.6 1465.19 Q2278.79 1461.62 2275.16 1461.62 M2275.16 1457.92 Q2280.97 1457.92 2284.02 1462.53 Q2287.1 1467.11 2287.1 1475.86 Q2287.1 1484.59 2284.02 1489.19 Q2280.97 1493.78 2275.16 1493.78 Q2269.35 1493.78 2266.27 1489.19 Q2263.21 1484.59 2263.21 1475.86 Q2263.21 1467.11 2266.27 1462.53 Q2269.35 1457.92 2275.16 1457.92 Z" fill="#000000" fill-rule="evenodd" fill-opacity="1" /><path clip-path="url(#clip050)" d="M 0 0 M2296.81 1440.11 Q2293.87 1440.11 2292.39 1443.01 Q2290.92 1445.89 2290.92 1451.68 Q2290.92 1457.46 2292.39 1460.35 Q2293.87 1463.23 2296.81 1463.23 Q2299.76 1463.23 2301.23 1460.35 Q2302.71 1457.46 2302.71 1451.68 Q2302.71 1445.89 2301.23 1443.01 Q2299.76 1440.11 2296.81 1440.11 M2296.81 1437.11 Q2301.53 1437.11 2304.01 1440.85 Q2306.51 1444.57 2306.51 1451.68 Q2306.51 1458.77 2304.01 1462.51 Q2301.53 1466.24 2296.81 1466.24 Q2292.09 1466.24 2289.58 1462.51 Q2287.1 1458.77 2287.1 1451.68 Q2287.1 1444.57 2289.58 1440.85 Q2292.09 1437.11 2296.81 1437.11 Z" fill="#000000" fill-rule="evenodd" fill-opacity="1" /><path clip-path="url(#clip050)" d="M 0 0 M2310.63 1460.92 L2314.6 1460.92 L2314.6 1465.69 L2310.63 1465.69 L2310.63 1460.92 Z" fill="#000000" fill-rule="evenodd" fill-opacity="1" /><path clip-path="url(#clip050)" d="M 0 0 M2327.31 1450.14 Q2324.75 1450.14 2323.25 1451.89 Q2321.76 1453.64 2321.76 1456.68 Q2321.76 1459.71 2323.25 1461.48 Q2324.75 1463.23 2327.31 1463.23 Q2329.87 1463.23 2331.36 1461.48 Q2332.86 1459.71 2332.86 1456.68 Q2332.86 1453.64 2331.36 1451.89 Q2329.87 1450.14 2327.31 1450.14 M2334.85 1438.23 L2334.85 1441.69 Q2333.42 1441.02 2331.96 1440.66 Q2330.51 1440.3 2329.08 1440.3 Q2325.32 1440.3 2323.33 1442.84 Q2321.35 1445.38 2321.07 1450.52 Q2322.18 1448.88 2323.85 1448.01 Q2325.53 1447.13 2327.54 1447.13 Q2331.77 1447.13 2334.21 1449.71 Q2336.68 1452.26 2336.68 1456.68 Q2336.68 1461.01 2334.12 1463.62 Q2331.56 1466.24 2327.31 1466.24 Q2322.44 1466.24 2319.86 1462.51 Q2317.29 1458.77 2317.29 1451.68 Q2317.29 1445.02 2320.45 1441.07 Q2323.61 1437.11 2328.93 1437.11 Q2330.36 1437.11 2331.81 1437.39 Q2333.27 1437.67 2334.85 1438.23 Z" fill="#000000" fill-rule="evenodd" fill-opacity="1" /><path clip-path="url(#clip050)" d="M 0 0 M1281.6 1559.99 L1281.6 1575.74 L1275.71 1575.74 L1275.71 1526.76 Q1275.71 1512.25 1289.27 1512.25 Q1303.08 1512.25 1303.08 1524.5 Q1303.08 1533.22 1297.61 1536.4 Q1306.52 1539.27 1306.52 1547.77 Q1306.52 1562.85 1291.18 1562.85 Q1284.43 1562.85 1281.6 1559.99 M1281.6 1552.35 Q1285.13 1557.86 1291.4 1557.86 Q1300.57 1557.86 1300.57 1547.86 Q1300.57 1538.89 1285.8 1539.59 L1285.8 1534.18 Q1297.35 1534.18 1297.35 1523.99 Q1297.35 1517.02 1289.9 1517.02 Q1281.6 1517.02 1281.6 1526.95 L1281.6 1552.35 Z" fill="#000000" fill-rule="evenodd" fill-opacity="1" /><polyline clip-path="url(#clip052)" style="stroke:#000000; stroke-width:2; stroke-opacity:0.1; fill:none" points="
  229.473,1395.92 2352.76,1395.92 
  "/>
<polyline clip-path="url(#clip052)" style="stroke:#000000; stroke-width:2; stroke-opacity:0.1; fill:none" points="
  229.473,1199.09 2352.76,1199.09 
  "/>
<polyline clip-path="url(#clip052)" style="stroke:#000000; stroke-width:2; stroke-opacity:0.1; fill:none" points="
  229.473,1002.25 2352.76,1002.25 
  "/>
<polyline clip-path="url(#clip052)" style="stroke:#000000; stroke-width:2; stroke-opacity:0.1; fill:none" points="
  229.473,805.421 2352.76,805.421 
  "/>
<polyline clip-path="url(#clip052)" style="stroke:#000000; stroke-width:2; stroke-opacity:0.1; fill:none" points="
  229.473,608.587 2352.76,608.587 
  "/>
<polyline clip-path="url(#clip052)" style="stroke:#000000; stroke-width:2; stroke-opacity:0.1; fill:none" points="
  229.473,411.754 2352.76,411.754 
  "/>
<polyline clip-path="url(#clip052)" style="stroke:#000000; stroke-width:2; stroke-opacity:0.1; fill:none" points="
  229.473,214.92 2352.76,214.92 
  "/>
<polyline clip-path="url(#clip050)" style="stroke:#000000; stroke-width:4; stroke-opacity:1; fill:none" points="
  229.473,1410.9 229.473,47.2441 
  "/>
<polyline clip-path="url(#clip050)" style="stroke:#000000; stroke-width:4; stroke-opacity:1; fill:none" points="
  229.473,1395.92 254.952,1395.92 
  "/>
<polyline clip-path="url(#clip050)" style="stroke:#000000; stroke-width:4; stroke-opacity:1; fill:none" points="
  229.473,1199.09 254.952,1199.09 
  "/>
<polyline clip-path="url(#clip050)" style="stroke:#000000; stroke-width:4; stroke-opacity:1; fill:none" points="
  229.473,1002.25 254.952,1002.25 
  "/>
<polyline clip-path="url(#clip050)" style="stroke:#000000; stroke-width:4; stroke-opacity:1; fill:none" points="
  229.473,805.421 254.952,805.421 
  "/>
<polyline clip-path="url(#clip050)" style="stroke:#000000; stroke-width:4; stroke-opacity:1; fill:none" points="
  229.473,608.587 254.952,608.587 
  "/>
<polyline clip-path="url(#clip050)" style="stroke:#000000; stroke-width:4; stroke-opacity:1; fill:none" points="
  229.473,411.754 254.952,411.754 
  "/>
<polyline clip-path="url(#clip050)" style="stroke:#000000; stroke-width:4; stroke-opacity:1; fill:none" points="
  229.473,214.92 254.952,214.92 
  "/>
<path clip-path="url(#clip050)" d="M 0 0 M181.528 1381.72 Q177.917 1381.72 176.089 1385.28 Q174.283 1388.83 174.283 1395.96 Q174.283 1403.06 176.089 1406.63 Q177.917 1410.17 181.528 1410.17 Q185.163 1410.17 186.968 1406.63 Q188.797 1403.06 188.797 1395.96 Q188.797 1388.83 186.968 1385.28 Q185.163 1381.72 181.528 1381.72 M181.528 1378.02 Q187.338 1378.02 190.394 1382.62 Q193.473 1387.21 193.473 1395.96 Q193.473 1404.68 190.394 1409.29 Q187.338 1413.87 181.528 1413.87 Q175.718 1413.87 172.639 1409.29 Q169.584 1404.68 169.584 1395.96 Q169.584 1387.21 172.639 1382.62 Q175.718 1378.02 181.528 1378.02 Z" fill="#000000" fill-rule="evenodd" fill-opacity="1" /><path clip-path="url(#clip050)" d="M 0 0 M119.538 1212.43 L127.177 1212.43 L127.177 1186.07 L118.867 1187.73 L118.867 1183.47 L127.13 1181.81 L131.806 1181.81 L131.806 1212.43 L139.445 1212.43 L139.445 1216.37 L119.538 1216.37 L119.538 1212.43 Z" fill="#000000" fill-rule="evenodd" fill-opacity="1" /><path clip-path="url(#clip050)" d="M 0 0 M154.515 1184.89 Q150.903 1184.89 149.075 1188.45 Q147.269 1191.99 147.269 1199.12 Q147.269 1206.23 149.075 1209.79 Q150.903 1213.34 154.515 1213.34 Q158.149 1213.34 159.954 1209.79 Q161.783 1206.23 161.783 1199.12 Q161.783 1191.99 159.954 1188.45 Q158.149 1184.89 154.515 1184.89 M154.515 1181.18 Q160.325 1181.18 163.38 1185.79 Q166.459 1190.37 166.459 1199.12 Q166.459 1207.85 163.38 1212.46 Q160.325 1217.04 154.515 1217.04 Q148.704 1217.04 145.626 1212.46 Q142.57 1207.85 142.57 1199.12 Q142.57 1190.37 145.626 1185.79 Q148.704 1181.18 154.515 1181.18 Z" fill="#000000" fill-rule="evenodd" fill-opacity="1" /><path clip-path="url(#clip050)" d="M 0 0 M181.528 1184.89 Q177.917 1184.89 176.089 1188.45 Q174.283 1191.99 174.283 1199.12 Q174.283 1206.23 176.089 1209.79 Q177.917 1213.34 181.528 1213.34 Q185.163 1213.34 186.968 1209.79 Q188.797 1206.23 188.797 1199.12 Q188.797 1191.99 186.968 1188.45 Q185.163 1184.89 181.528 1184.89 M181.528 1181.18 Q187.338 1181.18 190.394 1185.79 Q193.473 1190.37 193.473 1199.12 Q193.473 1207.85 190.394 1212.46 Q187.338 1217.04 181.528 1217.04 Q175.718 1217.04 172.639 1212.46 Q169.584 1207.85 169.584 1199.12 Q169.584 1190.37 172.639 1185.79 Q175.718 1181.18 181.528 1181.18 Z" fill="#000000" fill-rule="evenodd" fill-opacity="1" /><path clip-path="url(#clip050)" d="M 0 0 M123.126 1015.6 L139.445 1015.6 L139.445 1019.53 L117.501 1019.53 L117.501 1015.6 Q120.163 1012.84 124.746 1008.21 Q129.353 1003.56 130.533 1002.22 Q132.779 999.696 133.658 997.96 Q134.561 996.201 134.561 994.511 Q134.561 991.757 132.617 990.021 Q130.695 988.284 127.593 988.284 Q125.394 988.284 122.941 989.048 Q120.51 989.812 117.732 991.363 L117.732 986.641 Q120.556 985.507 123.01 984.928 Q125.464 984.349 127.501 984.349 Q132.871 984.349 136.066 987.034 Q139.26 989.72 139.26 994.21 Q139.26 996.34 138.45 998.261 Q137.663 1000.16 135.556 1002.75 Q134.978 1003.42 131.876 1006.64 Q128.774 1009.84 123.126 1015.6 Z" fill="#000000" fill-rule="evenodd" fill-opacity="1" /><path clip-path="url(#clip050)" d="M 0 0 M154.515 988.053 Q150.903 988.053 149.075 991.618 Q147.269 995.159 147.269 1002.29 Q147.269 1009.4 149.075 1012.96 Q150.903 1016.5 154.515 1016.5 Q158.149 1016.5 159.954 1012.96 Q161.783 1009.4 161.783 1002.29 Q161.783 995.159 159.954 991.618 Q158.149 988.053 154.515 988.053 M154.515 984.349 Q160.325 984.349 163.38 988.956 Q166.459 993.539 166.459 1002.29 Q166.459 1011.02 163.38 1015.62 Q160.325 1020.21 154.515 1020.21 Q148.704 1020.21 145.626 1015.62 Q142.57 1011.02 142.57 1002.29 Q142.57 993.539 145.626 988.956 Q148.704 984.349 154.515 984.349 Z" fill="#000000" fill-rule="evenodd" fill-opacity="1" /><path clip-path="url(#clip050)" d="M 0 0 M181.528 988.053 Q177.917 988.053 176.089 991.618 Q174.283 995.159 174.283 1002.29 Q174.283 1009.4 176.089 1012.96 Q177.917 1016.5 181.528 1016.5 Q185.163 1016.5 186.968 1012.96 Q188.797 1009.4 188.797 1002.29 Q188.797 995.159 186.968 991.618 Q185.163 988.053 181.528 988.053 M181.528 984.349 Q187.338 984.349 190.394 988.956 Q193.473 993.539 193.473 1002.29 Q193.473 1011.02 190.394 1015.62 Q187.338 1020.21 181.528 1020.21 Q175.718 1020.21 172.639 1015.62 Q169.584 1011.02 169.584 1002.29 Q169.584 993.539 172.639 988.956 Q175.718 984.349 181.528 984.349 Z" fill="#000000" fill-rule="evenodd" fill-opacity="1" /><path clip-path="url(#clip050)" d="M 0 0 M132.316 804.067 Q135.672 804.784 137.547 807.053 Q139.445 809.321 139.445 812.654 Q139.445 817.77 135.927 820.571 Q132.408 823.372 125.927 823.372 Q123.751 823.372 121.436 822.932 Q119.144 822.515 116.691 821.659 L116.691 817.145 Q118.635 818.279 120.95 818.858 Q123.265 819.437 125.788 819.437 Q130.186 819.437 132.478 817.701 Q134.792 815.965 134.792 812.654 Q134.792 809.599 132.64 807.886 Q130.51 806.15 126.691 806.15 L122.663 806.15 L122.663 802.307 L126.876 802.307 Q130.325 802.307 132.154 800.942 Q133.982 799.553 133.982 796.96 Q133.982 794.298 132.084 792.886 Q130.209 791.451 126.691 791.451 Q124.769 791.451 122.57 791.868 Q120.371 792.284 117.732 793.164 L117.732 788.997 Q120.394 788.256 122.709 787.886 Q125.047 787.516 127.107 787.516 Q132.431 787.516 135.533 789.946 Q138.635 792.354 138.635 796.474 Q138.635 799.344 136.992 801.335 Q135.348 803.303 132.316 804.067 Z" fill="#000000" fill-rule="evenodd" fill-opacity="1" /><path clip-path="url(#clip050)" d="M 0 0 M154.515 791.219 Q150.903 791.219 149.075 794.784 Q147.269 798.326 147.269 805.455 Q147.269 812.562 149.075 816.127 Q150.903 819.668 154.515 819.668 Q158.149 819.668 159.954 816.127 Q161.783 812.562 161.783 805.455 Q161.783 798.326 159.954 794.784 Q158.149 791.219 154.515 791.219 M154.515 787.516 Q160.325 787.516 163.38 792.122 Q166.459 796.705 166.459 805.455 Q166.459 814.182 163.38 818.789 Q160.325 823.372 154.515 823.372 Q148.704 823.372 145.626 818.789 Q142.57 814.182 142.57 805.455 Q142.57 796.705 145.626 792.122 Q148.704 787.516 154.515 787.516 Z" fill="#000000" fill-rule="evenodd" fill-opacity="1" /><path clip-path="url(#clip050)" d="M 0 0 M181.528 791.219 Q177.917 791.219 176.089 794.784 Q174.283 798.326 174.283 805.455 Q174.283 812.562 176.089 816.127 Q177.917 819.668 181.528 819.668 Q185.163 819.668 186.968 816.127 Q188.797 812.562 188.797 805.455 Q188.797 798.326 186.968 794.784 Q185.163 791.219 181.528 791.219 M181.528 787.516 Q187.338 787.516 190.394 792.122 Q193.473 796.705 193.473 805.455 Q193.473 814.182 190.394 818.789 Q187.338 823.372 181.528 823.372 Q175.718 823.372 172.639 818.789 Q169.584 814.182 169.584 805.455 Q169.584 796.705 172.639 792.122 Q175.718 787.516 181.528 787.516 Z" fill="#000000" fill-rule="evenodd" fill-opacity="1" /><path clip-path="url(#clip050)" d="M 0 0 M129.862 595.381 L118.056 613.83 L129.862 613.83 L129.862 595.381 M128.635 591.307 L134.515 591.307 L134.515 613.83 L139.445 613.83 L139.445 617.719 L134.515 617.719 L134.515 625.867 L129.862 625.867 L129.862 617.719 L114.26 617.719 L114.26 613.205 L128.635 591.307 Z" fill="#000000" fill-rule="evenodd" fill-opacity="1" /><path clip-path="url(#clip050)" d="M 0 0 M154.515 594.386 Q150.903 594.386 149.075 597.951 Q147.269 601.492 147.269 608.622 Q147.269 615.728 149.075 619.293 Q150.903 622.835 154.515 622.835 Q158.149 622.835 159.954 619.293 Q161.783 615.728 161.783 608.622 Q161.783 601.492 159.954 597.951 Q158.149 594.386 154.515 594.386 M154.515 590.682 Q160.325 590.682 163.38 595.289 Q166.459 599.872 166.459 608.622 Q166.459 617.349 163.38 621.955 Q160.325 626.538 154.515 626.538 Q148.704 626.538 145.626 621.955 Q142.57 617.349 142.57 608.622 Q142.57 599.872 145.626 595.289 Q148.704 590.682 154.515 590.682 Z" fill="#000000" fill-rule="evenodd" fill-opacity="1" /><path clip-path="url(#clip050)" d="M 0 0 M181.528 594.386 Q177.917 594.386 176.089 597.951 Q174.283 601.492 174.283 608.622 Q174.283 615.728 176.089 619.293 Q177.917 622.835 181.528 622.835 Q185.163 622.835 186.968 619.293 Q188.797 615.728 188.797 608.622 Q188.797 601.492 186.968 597.951 Q185.163 594.386 181.528 594.386 M181.528 590.682 Q187.338 590.682 190.394 595.289 Q193.473 599.872 193.473 608.622 Q193.473 617.349 190.394 621.955 Q187.338 626.538 181.528 626.538 Q175.718 626.538 172.639 621.955 Q169.584 617.349 169.584 608.622 Q169.584 599.872 172.639 595.289 Q175.718 590.682 181.528 590.682 Z" fill="#000000" fill-rule="evenodd" fill-opacity="1" /><path clip-path="url(#clip050)" d="M 0 0 M118.543 394.474 L136.899 394.474 L136.899 398.409 L122.825 398.409 L122.825 406.881 Q123.843 406.534 124.862 406.372 Q125.88 406.186 126.899 406.186 Q132.686 406.186 136.066 409.358 Q139.445 412.529 139.445 417.946 Q139.445 423.524 135.973 426.626 Q132.501 429.705 126.181 429.705 Q124.005 429.705 121.737 429.334 Q119.492 428.964 117.084 428.223 L117.084 423.524 Q119.168 424.659 121.39 425.214 Q123.612 425.77 126.089 425.77 Q130.093 425.77 132.431 423.663 Q134.769 421.557 134.769 417.946 Q134.769 414.335 132.431 412.228 Q130.093 410.122 126.089 410.122 Q124.214 410.122 122.339 410.538 Q120.487 410.955 118.543 411.835 L118.543 394.474 Z" fill="#000000" fill-rule="evenodd" fill-opacity="1" /><path clip-path="url(#clip050)" d="M 0 0 M154.515 397.552 Q150.903 397.552 149.075 401.117 Q147.269 404.659 147.269 411.788 Q147.269 418.895 149.075 422.459 Q150.903 426.001 154.515 426.001 Q158.149 426.001 159.954 422.459 Q161.783 418.895 161.783 411.788 Q161.783 404.659 159.954 401.117 Q158.149 397.552 154.515 397.552 M154.515 393.849 Q160.325 393.849 163.38 398.455 Q166.459 403.038 166.459 411.788 Q166.459 420.515 163.38 425.122 Q160.325 429.705 154.515 429.705 Q148.704 429.705 145.626 425.122 Q142.57 420.515 142.57 411.788 Q142.57 403.038 145.626 398.455 Q148.704 393.849 154.515 393.849 Z" fill="#000000" fill-rule="evenodd" fill-opacity="1" /><path clip-path="url(#clip050)" d="M 0 0 M181.528 397.552 Q177.917 397.552 176.089 401.117 Q174.283 404.659 174.283 411.788 Q174.283 418.895 176.089 422.459 Q177.917 426.001 181.528 426.001 Q185.163 426.001 186.968 422.459 Q188.797 418.895 188.797 411.788 Q188.797 404.659 186.968 401.117 Q185.163 397.552 181.528 397.552 M181.528 393.849 Q187.338 393.849 190.394 398.455 Q193.473 403.038 193.473 411.788 Q193.473 420.515 190.394 425.122 Q187.338 429.705 181.528 429.705 Q175.718 429.705 172.639 425.122 Q169.584 420.515 169.584 411.788 Q169.584 403.038 172.639 398.455 Q175.718 393.849 181.528 393.849 Z" fill="#000000" fill-rule="evenodd" fill-opacity="1" /><path clip-path="url(#clip050)" d="M 0 0 M127.917 213.057 Q124.769 213.057 122.918 215.209 Q121.089 217.362 121.089 221.112 Q121.089 224.839 122.918 227.015 Q124.769 229.168 127.917 229.168 Q131.066 229.168 132.894 227.015 Q134.746 224.839 134.746 221.112 Q134.746 217.362 132.894 215.209 Q131.066 213.057 127.917 213.057 M137.2 198.404 L137.2 202.663 Q135.441 201.83 133.635 201.39 Q131.853 200.95 130.093 200.95 Q125.464 200.95 123.01 204.075 Q120.58 207.2 120.232 213.52 Q121.598 211.506 123.658 210.441 Q125.718 209.353 128.195 209.353 Q133.404 209.353 136.413 212.524 Q139.445 215.672 139.445 221.112 Q139.445 226.436 136.297 229.654 Q133.149 232.871 127.917 232.871 Q121.922 232.871 118.751 228.288 Q115.58 223.681 115.58 214.955 Q115.58 206.76 119.468 201.899 Q123.357 197.015 129.908 197.015 Q131.667 197.015 133.45 197.362 Q135.255 197.709 137.2 198.404 Z" fill="#000000" fill-rule="evenodd" fill-opacity="1" /><path clip-path="url(#clip050)" d="M 0 0 M154.515 200.719 Q150.903 200.719 149.075 204.283 Q147.269 207.825 147.269 214.955 Q147.269 222.061 149.075 225.626 Q150.903 229.168 154.515 229.168 Q158.149 229.168 159.954 225.626 Q161.783 222.061 161.783 214.955 Q161.783 207.825 159.954 204.283 Q158.149 200.719 154.515 200.719 M154.515 197.015 Q160.325 197.015 163.38 201.621 Q166.459 206.205 166.459 214.955 Q166.459 223.681 163.38 228.288 Q160.325 232.871 154.515 232.871 Q148.704 232.871 145.626 228.288 Q142.57 223.681 142.57 214.955 Q142.57 206.205 145.626 201.621 Q148.704 197.015 154.515 197.015 Z" fill="#000000" fill-rule="evenodd" fill-opacity="1" /><path clip-path="url(#clip050)" d="M 0 0 M181.528 200.719 Q177.917 200.719 176.089 204.283 Q174.283 207.825 174.283 214.955 Q174.283 222.061 176.089 225.626 Q177.917 229.168 181.528 229.168 Q185.163 229.168 186.968 225.626 Q188.797 222.061 188.797 214.955 Q188.797 207.825 186.968 204.283 Q185.163 200.719 181.528 200.719 M181.528 197.015 Q187.338 197.015 190.394 201.621 Q193.473 206.205 193.473 214.955 Q193.473 223.681 190.394 228.288 Q187.338 232.871 181.528 232.871 Q175.718 232.871 172.639 228.288 Q169.584 223.681 169.584 214.955 Q169.584 206.205 172.639 201.621 Q175.718 197.015 181.528 197.015 Z" fill="#000000" fill-rule="evenodd" fill-opacity="1" /><path clip-path="url(#clip050)" d="M 0 0 M59.1993 815.533 Q55.2526 813.336 53.3747 810.281 Q51.4968 807.225 51.4968 803.088 Q51.4968 797.518 55.4117 794.494 Q59.2948 791.47 66.4881 791.47 L88.0042 791.47 L88.0042 797.358 L66.679 797.358 Q61.5546 797.358 59.072 799.173 Q56.5894 800.987 56.5894 804.711 Q56.5894 809.262 59.6131 811.904 Q62.6368 814.546 67.8567 814.546 L88.0042 814.546 L88.0042 820.434 L66.679 820.434 Q61.5228 820.434 59.072 822.248 Q56.5894 824.063 56.5894 827.85 Q56.5894 832.338 59.6449 834.98 Q62.6686 837.622 67.8567 837.622 L88.0042 837.622 L88.0042 843.51 L52.3562 843.51 L52.3562 837.622 L57.8944 837.622 Q54.616 835.616 53.0564 832.815 Q51.4968 830.015 51.4968 826.163 Q51.4968 822.28 53.4702 819.575 Q55.4436 816.838 59.1993 815.533 Z" fill="#000000" fill-rule="evenodd" fill-opacity="1" /><path clip-path="url(#clip050)" d="M 0 0 M52.3562 785.327 L52.3562 779.471 L88.0042 779.471 L88.0042 785.327 L52.3562 785.327 M38.479 785.327 L38.479 779.471 L45.895 779.471 L45.895 785.327 L38.479 785.327 Z" fill="#000000" fill-rule="evenodd" fill-opacity="1" /><path clip-path="url(#clip050)" d="M 0 0 M66.4881 743.696 L88.0042 743.696 L88.0042 749.552 L66.679 749.552 Q61.6183 749.552 59.1038 751.525 Q56.5894 753.499 56.5894 757.446 Q56.5894 762.188 59.6131 764.925 Q62.6368 767.662 67.8567 767.662 L88.0042 767.662 L88.0042 773.551 L52.3562 773.551 L52.3562 767.662 L57.8944 767.662 Q54.6797 765.562 53.0883 762.729 Q51.4968 759.864 51.4968 756.141 Q51.4968 749.998 55.3163 746.847 Q59.1038 743.696 66.4881 743.696 Z" fill="#000000" fill-rule="evenodd" fill-opacity="1" /><path clip-path="url(#clip050)" d="M 0 0 M98.8259 710.467 L103.377 710.467 L103.377 744.332 L98.8259 744.332 L98.8259 710.467 Z" fill="#000000" fill-rule="evenodd" fill-opacity="1" /><path clip-path="url(#clip050)" d="M 0 0 M57.7671 680.866 L38.479 680.866 L38.479 675.01 L88.0042 675.01 L88.0042 680.866 L82.657 680.866 Q85.8398 682.712 87.3994 685.545 Q88.9272 688.346 88.9272 692.292 Q88.9272 698.754 83.771 702.828 Q78.6147 706.87 70.212 706.87 Q61.8093 706.87 56.6531 702.828 Q51.4968 698.754 51.4968 692.292 Q51.4968 688.346 53.0564 685.545 Q54.5842 682.712 57.7671 680.866 M70.212 700.823 Q76.6732 700.823 80.3653 698.181 Q84.0256 695.507 84.0256 690.86 Q84.0256 686.213 80.3653 683.54 Q76.6732 680.866 70.212 680.866 Q63.7508 680.866 60.0905 683.54 Q56.3984 686.213 56.3984 690.86 Q56.3984 695.507 60.0905 698.181 Q63.7508 700.823 70.212 700.823 Z" fill="#000000" fill-rule="evenodd" fill-opacity="1" /><path clip-path="url(#clip050)" d="M 0 0 M52.3562 668.867 L52.3562 663.01 L88.0042 663.01 L88.0042 668.867 L52.3562 668.867 M38.479 668.867 L38.479 663.01 L45.895 663.01 L45.895 668.867 L38.479 668.867 Z" fill="#000000" fill-rule="evenodd" fill-opacity="1" /><path clip-path="url(#clip050)" d="M 0 0 M38.479 638.821 L43.3487 638.821 L43.3487 644.422 Q43.3487 647.573 44.6219 648.815 Q45.895 650.024 49.2052 650.024 L52.3562 650.024 L52.3562 640.38 L56.9077 640.38 L56.9077 650.024 L88.0042 650.024 L88.0042 655.912 L56.9077 655.912 L56.9077 661.514 L52.3562 661.514 L52.3562 655.912 L49.8736 655.912 Q43.9216 655.912 41.2162 653.143 Q38.479 650.374 38.479 644.359 L38.479 638.821 Z" fill="#000000" fill-rule="evenodd" fill-opacity="1" /><path clip-path="url(#clip050)" d="M 0 0 M38.479 614.631 L43.3487 614.631 L43.3487 620.233 Q43.3487 623.384 44.6219 624.625 Q45.895 625.835 49.2052 625.835 L52.3562 625.835 L52.3562 616.19 L56.9077 616.19 L56.9077 625.835 L88.0042 625.835 L88.0042 631.723 L56.9077 631.723 L56.9077 637.325 L52.3562 637.325 L52.3562 631.723 L49.8736 631.723 Q43.9216 631.723 41.2162 628.954 Q38.479 626.185 38.479 620.169 L38.479 614.631 Z" fill="#000000" fill-rule="evenodd" fill-opacity="1" /><polyline clip-path="url(#clip052)" style="stroke:#009af9; stroke-width:20; stroke-opacity:1; fill:none" stroke-dasharray="80, 50" points="
  289.566,85.838 465.193,200.155 613.685,306.7 742.314,405.894 855.772,498.132 957.265,733.604 1132.89,855.395 1281.38,960.391 1347.84,1059.84 1410.01,1050.1 
  1523.47,1160.3 1624.96,1228.56 1671.96,1237.91 1800.59,1300.91 1914.05,1334.8 1949.08,1346.66 2015.54,1358.42 2077.71,1369.42 2191.17,1372.3 2292.66,1357.95 
  
  "/>
<path clip-path="url(#clip050)" d="
M1995.04 213.659 L2281.98 213.659 L2281.98 92.6992 L1995.04 92.6992  Z
  " fill="#ffffff" fill-rule="evenodd" fill-opacity="1"/>
<polyline clip-path="url(#clip050)" style="stroke:#000000; stroke-width:4; stroke-opacity:1; fill:none" points="
  1995.04,213.659 2281.98,213.659 2281.98,92.6992 1995.04,92.6992 1995.04,213.659 
  "/>
<polyline clip-path="url(#clip050)" style="stroke:#009af9; stroke-width:4; stroke-opacity:1; fill:none" stroke-dasharray="16, 10" points="
  2018.63,153.179 2160.19,153.179 
  "/>
<path clip-path="url(#clip050)" d="M 0 0 M2197.62 172.867 Q2195.81 177.496 2194.1 178.908 Q2192.39 180.32 2189.52 180.32 L2186.12 180.32 L2186.12 176.755 L2188.62 176.755 Q2190.37 176.755 2191.35 175.922 Q2192.32 175.089 2193.5 171.987 L2194.26 170.043 L2183.78 144.533 L2188.29 144.533 L2196.39 164.811 L2204.49 144.533 L2209.01 144.533 L2197.62 172.867 Z" fill="#000000" fill-rule="evenodd" fill-opacity="1" /><path clip-path="url(#clip050)" d="M 0 0 M2214.89 166.524 L2222.53 166.524 L2222.53 140.158 L2214.22 141.825 L2214.22 137.566 L2222.48 135.899 L2227.16 135.899 L2227.16 166.524 L2234.8 166.524 L2234.8 170.459 L2214.89 170.459 L2214.89 166.524 Z" fill="#000000" fill-rule="evenodd" fill-opacity="1" /></svg>
