<?xml version="1.0" encoding="utf-8"?>
<svg xmlns="http://www.w3.org/2000/svg" xmlns:xlink="http://www.w3.org/1999/xlink" width="600" height="400" viewBox="0 0 2400 1600">
<defs>
  <clipPath id="clip780">
    <rect x="0" y="0" width="2400" height="1600"/>
  </clipPath>
</defs>
<path clip-path="url(#clip780)" d="
M0 1600 L2400 1600 L2400 0 L0 0  Z
  " fill="#ffffff" fill-rule="evenodd" fill-opacity="1"/>
<defs>
  <clipPath id="clip781">
    <rect x="480" y="0" width="1681" height="1600"/>
  </clipPath>
</defs>
<path clip-path="url(#clip780)" d="
M227.042 1410.9 L2352.76 1410.9 L2352.76 47.2441 L227.042 47.2441  Z
  " fill="#ffffff" fill-rule="evenodd" fill-opacity="1"/>
<defs>
  <clipPath id="clip782">
    <rect x="227" y="47" width="2127" height="1365"/>
  </clipPath>
</defs>
<polyline clip-path="url(#clip782)" style="stroke:#000000; stroke-width:2; stroke-opacity:0.1; fill:none" points="
  442.93,1410.9 442.93,47.2441 
  "/>
<polyline clip-path="url(#clip782)" style="stroke:#000000; stroke-width:2; stroke-opacity:0.1; fill:none" points="
  751.207,1410.9 751.207,47.2441 
  "/>
<polyline clip-path="url(#clip782)" style="stroke:#000000; stroke-width:2; stroke-opacity:0.1; fill:none" points="
  1059.48,1410.9 1059.48,47.2441 
  "/>
<polyline clip-path="url(#clip782)" style="stroke:#000000; stroke-width:2; stroke-opacity:0.1; fill:none" points="
  1367.76,1410.9 1367.76,47.2441 
  "/>
<polyline clip-path="url(#clip782)" style="stroke:#000000; stroke-width:2; stroke-opacity:0.1; fill:none" points="
  1676.04,1410.9 1676.04,47.2441 
  "/>
<polyline clip-path="url(#clip782)" style="stroke:#000000; stroke-width:2; stroke-opacity:0.1; fill:none" points="
  1984.32,1410.9 1984.32,47.2441 
  "/>
<polyline clip-path="url(#clip782)" style="stroke:#000000; stroke-width:2; stroke-opacity:0.1; fill:none" points="
  2292.59,1410.9 2292.59,47.2441 
  "/>
<polyline clip-path="url(#clip780)" style="stroke:#000000; stroke-width:4; stroke-opacity:1; fill:none" points="
  227.042,1410.9 2352.76,1410.9 
  "/>
<polyline clip-path="url(#clip780)" style="stroke:#000000; stroke-width:4; stroke-opacity:1; fill:none" points="
  442.93,1410.9 442.93,1394.53 
  "/>
<polyline clip-path="url(#clip780)" style="stroke:#000000; stroke-width:4; stroke-opacity:1; fill:none" points="
  751.207,1410.9 751.207,1394.53 
  "/>
<polyline clip-path="url(#clip780)" style="stroke:#000000; stroke-width:4; stroke-opacity:1; fill:none" points="
  1059.48,1410.9 1059.48,1394.53 
  "/>
<polyline clip-path="url(#clip780)" style="stroke:#000000; stroke-width:4; stroke-opacity:1; fill:none" points="
  1367.76,1410.9 1367.76,1394.53 
  "/>
<polyline clip-path="url(#clip780)" style="stroke:#000000; stroke-width:4; stroke-opacity:1; fill:none" points="
  1676.04,1410.9 1676.04,1394.53 
  "/>
<polyline clip-path="url(#clip780)" style="stroke:#000000; stroke-width:4; stroke-opacity:1; fill:none" points="
  1984.32,1410.9 1984.32,1394.53 
  "/>
<polyline clip-path="url(#clip780)" style="stroke:#000000; stroke-width:4; stroke-opacity:1; fill:none" points="
  2292.59,1410.9 2292.59,1394.53 
  "/>
<path clip-path="url(#clip780)" d="M 0 0 M382.406 1489.17 L390.045 1489.17 L390.045 1462.8 L381.735 1464.47 L381.735 1460.21 L389.999 1458.54 L394.674 1458.54 L394.674 1489.17 L402.313 1489.17 L402.313 1493.1 L382.406 1493.1 L382.406 1489.17 Z" fill="#000000" fill-rule="evenodd" fill-opacity="1" /><path clip-path="url(#clip780)" d="M 0 0 M417.383 1461.62 Q413.772 1461.62 411.943 1465.19 Q410.137 1468.73 410.137 1475.86 Q410.137 1482.97 411.943 1486.53 Q413.772 1490.07 417.383 1490.07 Q421.017 1490.07 422.822 1486.53 Q424.651 1482.97 424.651 1475.86 Q424.651 1468.73 422.822 1465.19 Q421.017 1461.62 417.383 1461.62 M417.383 1457.92 Q423.193 1457.92 426.248 1462.53 Q429.327 1467.11 429.327 1475.86 Q429.327 1484.59 426.248 1489.19 Q423.193 1493.78 417.383 1493.78 Q411.573 1493.78 408.494 1489.19 Q405.438 1484.59 405.438 1475.86 Q405.438 1467.11 408.494 1462.53 Q411.573 1457.92 417.383 1457.92 Z" fill="#000000" fill-rule="evenodd" fill-opacity="1" /><path clip-path="url(#clip780)" d="M 0 0 M429.327 1452.02 L453.439 1452.02 L453.439 1455.22 L429.327 1455.22 L429.327 1452.02 Z" fill="#000000" fill-rule="evenodd" fill-opacity="1" /><path clip-path="url(#clip780)" d="M 0 0 M465.682 1440.11 Q462.748 1440.11 461.263 1443.01 Q459.796 1445.89 459.796 1451.68 Q459.796 1457.46 461.263 1460.35 Q462.748 1463.23 465.682 1463.23 Q468.635 1463.23 470.102 1460.35 Q471.588 1457.46 471.588 1451.68 Q471.588 1445.89 470.102 1443.01 Q468.635 1440.11 465.682 1440.11 M465.682 1437.11 Q470.403 1437.11 472.886 1440.85 Q475.387 1444.57 475.387 1451.68 Q475.387 1458.77 472.886 1462.51 Q470.403 1466.24 465.682 1466.24 Q460.962 1466.24 458.46 1462.51 Q455.978 1458.77 455.978 1451.68 Q455.978 1444.57 458.46 1440.85 Q460.962 1437.11 465.682 1437.11 Z" fill="#000000" fill-rule="evenodd" fill-opacity="1" /><path clip-path="url(#clip780)" d="M 0 0 M479.506 1460.92 L483.475 1460.92 L483.475 1465.69 L479.506 1465.69 L479.506 1460.92 Z" fill="#000000" fill-rule="evenodd" fill-opacity="1" /><path clip-path="url(#clip780)" d="M 0 0 M490.866 1462.5 L504.126 1462.5 L504.126 1465.69 L486.296 1465.69 L486.296 1462.5 Q488.459 1460.26 492.183 1456.5 Q495.925 1452.72 496.885 1451.63 Q498.709 1449.58 499.424 1448.16 Q500.157 1446.74 500.157 1445.36 Q500.157 1443.12 498.577 1441.71 Q497.016 1440.3 494.496 1440.3 Q492.709 1440.3 490.716 1440.92 Q488.741 1441.54 486.484 1442.8 L486.484 1438.97 Q488.778 1438.05 490.772 1437.58 Q492.766 1437.11 494.421 1437.11 Q498.784 1437.11 501.38 1439.29 Q503.975 1441.47 503.975 1445.12 Q503.975 1446.85 503.317 1448.41 Q502.677 1449.95 500.966 1452.06 Q500.496 1452.6 497.975 1455.22 Q495.455 1457.81 490.866 1462.5 Z" fill="#000000" fill-rule="evenodd" fill-opacity="1" /><path clip-path="url(#clip780)" d="M 0 0 M703.36 1489.17 L710.999 1489.17 L710.999 1462.8 L702.689 1464.47 L702.689 1460.21 L710.952 1458.54 L715.628 1458.54 L715.628 1489.17 L723.267 1489.17 L723.267 1493.1 L703.36 1493.1 L703.36 1489.17 Z" fill="#000000" fill-rule="evenodd" fill-opacity="1" /><path clip-path="url(#clip780)" d="M 0 0 M738.336 1461.62 Q734.725 1461.62 732.897 1465.19 Q731.091 1468.73 731.091 1475.86 Q731.091 1482.97 732.897 1486.53 Q734.725 1490.07 738.336 1490.07 Q741.971 1490.07 743.776 1486.53 Q745.605 1482.97 745.605 1475.86 Q745.605 1468.73 743.776 1465.19 Q741.971 1461.62 738.336 1461.62 M738.336 1457.92 Q744.147 1457.92 747.202 1462.53 Q750.281 1467.11 750.281 1475.86 Q750.281 1484.59 747.202 1489.19 Q744.147 1493.78 738.336 1493.78 Q732.526 1493.78 729.448 1489.19 Q726.392 1484.59 726.392 1475.86 Q726.392 1467.11 729.448 1462.53 Q732.526 1457.92 738.336 1457.92 Z" fill="#000000" fill-rule="evenodd" fill-opacity="1" /><path clip-path="url(#clip780)" d="M 0 0 M759.986 1440.11 Q757.052 1440.11 755.566 1443.01 Q754.099 1445.89 754.099 1451.68 Q754.099 1457.46 755.566 1460.35 Q757.052 1463.23 759.986 1463.23 Q762.938 1463.23 764.405 1460.35 Q765.891 1457.46 765.891 1451.68 Q765.891 1445.89 764.405 1443.01 Q762.938 1440.11 759.986 1440.11 M759.986 1437.11 Q764.706 1437.11 767.189 1440.85 Q769.69 1444.57 769.69 1451.68 Q769.69 1458.77 767.189 1462.51 Q764.706 1466.24 759.986 1466.24 Q755.265 1466.24 752.763 1462.51 Q750.281 1458.77 750.281 1451.68 Q750.281 1444.57 752.763 1440.85 Q755.265 1437.11 759.986 1437.11 Z" fill="#000000" fill-rule="evenodd" fill-opacity="1" /><path clip-path="url(#clip780)" d="M 0 0 M773.809 1460.92 L777.778 1460.92 L777.778 1465.69 L773.809 1465.69 L773.809 1460.92 Z" fill="#000000" fill-rule="evenodd" fill-opacity="1" /><path clip-path="url(#clip780)" d="M 0 0 M790.022 1440.11 Q787.088 1440.11 785.602 1443.01 Q784.135 1445.89 784.135 1451.68 Q784.135 1457.46 785.602 1460.35 Q787.088 1463.23 790.022 1463.23 Q792.974 1463.23 794.441 1460.35 Q795.927 1457.46 795.927 1451.68 Q795.927 1445.89 794.441 1443.01 Q792.974 1440.11 790.022 1440.11 M790.022 1437.11 Q794.742 1437.11 797.225 1440.85 Q799.726 1444.57 799.726 1451.68 Q799.726 1458.77 797.225 1462.51 Q794.742 1466.24 790.022 1466.24 Q785.301 1466.24 782.799 1462.51 Q780.317 1458.77 780.317 1451.68 Q780.317 1444.57 782.799 1440.85 Q785.301 1437.11 790.022 1437.11 Z" fill="#000000" fill-rule="evenodd" fill-opacity="1" /><path clip-path="url(#clip780)" d="M 0 0 M1012.29 1489.17 L1019.92 1489.17 L1019.92 1462.8 L1011.61 1464.47 L1011.61 1460.21 L1019.88 1458.54 L1024.55 1458.54 L1024.55 1489.17 L1032.19 1489.17 L1032.19 1493.1 L1012.29 1493.1 L1012.29 1489.17 Z" fill="#000000" fill-rule="evenodd" fill-opacity="1" /><path clip-path="url(#clip780)" d="M 0 0 M1047.26 1461.62 Q1043.65 1461.62 1041.82 1465.19 Q1040.02 1468.73 1040.02 1475.86 Q1040.02 1482.97 1041.82 1486.53 Q1043.65 1490.07 1047.26 1490.07 Q1050.9 1490.07 1052.7 1486.53 Q1054.53 1482.97 1054.53 1475.86 Q1054.53 1468.73 1052.7 1465.19 Q1050.9 1461.62 1047.26 1461.62 M1047.26 1457.92 Q1053.07 1457.92 1056.13 1462.53 Q1059.21 1467.11 1059.21 1475.86 Q1059.21 1484.59 1056.13 1489.19 Q1053.07 1493.78 1047.26 1493.78 Q1041.45 1493.78 1038.37 1489.19 Q1035.32 1484.59 1035.32 1475.86 Q1035.32 1467.11 1038.37 1462.53 Q1041.45 1457.92 1047.26 1457.92 Z" fill="#000000" fill-rule="evenodd" fill-opacity="1" /><path clip-path="url(#clip780)" d="M 0 0 M1068.91 1440.11 Q1065.98 1440.11 1064.49 1443.01 Q1063.03 1445.89 1063.03 1451.68 Q1063.03 1457.46 1064.49 1460.35 Q1065.98 1463.23 1068.91 1463.23 Q1071.86 1463.23 1073.33 1460.35 Q1074.82 1457.46 1074.82 1451.68 Q1074.82 1445.89 1073.33 1443.01 Q1071.86 1440.11 1068.91 1440.11 M1068.91 1437.11 Q1073.63 1437.11 1076.12 1440.85 Q1078.62 1444.57 1078.62 1451.68 Q1078.62 1458.77 1076.12 1462.51 Q1073.63 1466.24 1068.91 1466.24 Q1064.19 1466.24 1061.69 1462.51 Q1059.21 1458.77 1059.21 1451.68 Q1059.21 1444.57 1061.69 1440.85 Q1064.19 1437.11 1068.91 1437.11 Z" fill="#000000" fill-rule="evenodd" fill-opacity="1" /><path clip-path="url(#clip780)" d="M 0 0 M1082.74 1460.92 L1086.7 1460.92 L1086.7 1465.69 L1082.74 1465.69 L1082.74 1460.92 Z" fill="#000000" fill-rule="evenodd" fill-opacity="1" /><path clip-path="url(#clip780)" d="M 0 0 M1094.1 1462.5 L1107.35 1462.5 L1107.35 1465.69 L1089.53 1465.69 L1089.53 1462.5 Q1091.69 1460.26 1095.41 1456.5 Q1099.15 1452.72 1100.11 1451.63 Q1101.94 1449.58 1102.65 1448.16 Q1103.39 1446.74 1103.39 1445.36 Q1103.39 1443.12 1101.81 1441.71 Q1100.25 1440.3 1097.73 1440.3 Q1095.94 1440.3 1093.95 1440.92 Q1091.97 1441.54 1089.71 1442.8 L1089.71 1438.97 Q1092.01 1438.05 1094 1437.58 Q1096 1437.11 1097.65 1437.11 Q1102.01 1437.11 1104.61 1439.29 Q1107.2 1441.47 1107.2 1445.12 Q1107.2 1446.85 1106.55 1448.41 Q1105.91 1449.95 1104.2 1452.06 Q1103.73 1452.6 1101.2 1455.22 Q1098.68 1457.81 1094.1 1462.5 Z" fill="#000000" fill-rule="evenodd" fill-opacity="1" /><path clip-path="url(#clip780)" d="M 0 0 M1319.72 1489.17 L1327.36 1489.17 L1327.36 1462.8 L1319.05 1464.47 L1319.05 1460.21 L1327.31 1458.54 L1331.99 1458.54 L1331.99 1489.17 L1339.62 1489.17 L1339.62 1493.1 L1319.72 1493.1 L1319.72 1489.17 Z" fill="#000000" fill-rule="evenodd" fill-opacity="1" /><path clip-path="url(#clip780)" d="M 0 0 M1354.69 1461.62 Q1351.08 1461.62 1349.25 1465.19 Q1347.45 1468.73 1347.45 1475.86 Q1347.45 1482.97 1349.25 1486.53 Q1351.08 1490.07 1354.69 1490.07 Q1358.33 1490.07 1360.13 1486.53 Q1361.96 1482.97 1361.96 1475.86 Q1361.96 1468.73 1360.13 1465.19 Q1358.33 1461.62 1354.69 1461.62 M1354.69 1457.92 Q1360.5 1457.92 1363.56 1462.53 Q1366.64 1467.11 1366.64 1475.86 Q1366.64 1484.59 1363.56 1489.19 Q1360.5 1493.78 1354.69 1493.78 Q1348.88 1493.78 1345.8 1489.19 Q1342.75 1484.59 1342.75 1475.86 Q1342.75 1467.11 1345.8 1462.53 Q1348.88 1457.92 1354.69 1457.92 Z" fill="#000000" fill-rule="evenodd" fill-opacity="1" /><path clip-path="url(#clip780)" d="M 0 0 M1376.34 1440.11 Q1373.41 1440.11 1371.92 1443.01 Q1370.46 1445.89 1370.46 1451.68 Q1370.46 1457.46 1371.92 1460.35 Q1373.41 1463.23 1376.34 1463.23 Q1379.3 1463.23 1380.76 1460.35 Q1382.25 1457.46 1382.25 1451.68 Q1382.25 1445.89 1380.76 1443.01 Q1379.3 1440.11 1376.34 1440.11 M1376.34 1437.11 Q1381.06 1437.11 1383.55 1440.85 Q1386.05 1444.57 1386.05 1451.68 Q1386.05 1458.77 1383.55 1462.51 Q1381.06 1466.24 1376.34 1466.24 Q1371.62 1466.24 1369.12 1462.51 Q1366.64 1458.77 1366.64 1451.68 Q1366.64 1444.57 1369.12 1440.85 Q1371.62 1437.11 1376.34 1437.11 Z" fill="#000000" fill-rule="evenodd" fill-opacity="1" /><path clip-path="url(#clip780)" d="M 0 0 M1390.17 1460.92 L1394.14 1460.92 L1394.14 1465.69 L1390.17 1465.69 L1390.17 1460.92 Z" fill="#000000" fill-rule="evenodd" fill-opacity="1" /><path clip-path="url(#clip780)" d="M 0 0 M1408.69 1440.92 L1399.1 1455.91 L1408.69 1455.91 L1408.69 1440.92 M1407.7 1437.61 L1412.47 1437.61 L1412.47 1455.91 L1416.48 1455.91 L1416.48 1459.07 L1412.47 1459.07 L1412.47 1465.69 L1408.69 1465.69 L1408.69 1459.07 L1396.02 1459.07 L1396.02 1455.41 L1407.7 1437.61 Z" fill="#000000" fill-rule="evenodd" fill-opacity="1" /><path clip-path="url(#clip780)" d="M 0 0 M1628.13 1489.17 L1635.76 1489.17 L1635.76 1462.8 L1627.45 1464.47 L1627.45 1460.21 L1635.72 1458.54 L1640.39 1458.54 L1640.39 1489.17 L1648.03 1489.17 L1648.03 1493.1 L1628.13 1493.1 L1628.13 1489.17 Z" fill="#000000" fill-rule="evenodd" fill-opacity="1" /><path clip-path="url(#clip780)" d="M 0 0 M1663.1 1461.62 Q1659.49 1461.62 1657.66 1465.19 Q1655.86 1468.73 1655.86 1475.86 Q1655.86 1482.97 1657.66 1486.53 Q1659.49 1490.07 1663.1 1490.07 Q1666.74 1490.07 1668.54 1486.53 Q1670.37 1482.97 1670.37 1475.86 Q1670.37 1468.73 1668.54 1465.19 Q1666.74 1461.62 1663.1 1461.62 M1663.1 1457.92 Q1668.91 1457.92 1671.97 1462.53 Q1675.05 1467.11 1675.05 1475.86 Q1675.05 1484.59 1671.97 1489.19 Q1668.91 1493.78 1663.1 1493.78 Q1657.29 1493.78 1654.21 1489.19 Q1651.16 1484.59 1651.16 1475.86 Q1651.16 1467.11 1654.21 1462.53 Q1657.29 1457.92 1663.1 1457.92 Z" fill="#000000" fill-rule="evenodd" fill-opacity="1" /><path clip-path="url(#clip780)" d="M 0 0 M1684.75 1440.11 Q1681.82 1440.11 1680.33 1443.01 Q1678.87 1445.89 1678.87 1451.68 Q1678.87 1457.46 1680.33 1460.35 Q1681.82 1463.23 1684.75 1463.23 Q1687.7 1463.23 1689.17 1460.35 Q1690.66 1457.46 1690.66 1451.68 Q1690.66 1445.89 1689.17 1443.01 Q1687.7 1440.11 1684.75 1440.11 M1684.75 1437.11 Q1689.47 1437.11 1691.96 1440.85 Q1694.46 1444.57 1694.46 1451.68 Q1694.46 1458.77 1691.96 1462.51 Q1689.47 1466.24 1684.75 1466.24 Q1680.03 1466.24 1677.53 1462.51 Q1675.05 1458.77 1675.05 1451.68 Q1675.05 1444.57 1677.53 1440.85 Q1680.03 1437.11 1684.75 1437.11 Z" fill="#000000" fill-rule="evenodd" fill-opacity="1" /><path clip-path="url(#clip780)" d="M 0 0 M1698.58 1460.92 L1702.54 1460.92 L1702.54 1465.69 L1698.58 1465.69 L1698.58 1460.92 Z" fill="#000000" fill-rule="evenodd" fill-opacity="1" /><path clip-path="url(#clip780)" d="M 0 0 M1715.26 1450.14 Q1712.7 1450.14 1711.2 1451.89 Q1709.71 1453.64 1709.71 1456.68 Q1709.71 1459.71 1711.2 1461.48 Q1712.7 1463.23 1715.26 1463.23 Q1717.82 1463.23 1719.3 1461.48 Q1720.81 1459.71 1720.81 1456.68 Q1720.81 1453.64 1719.3 1451.89 Q1717.82 1450.14 1715.26 1450.14 M1722.8 1438.23 L1722.8 1441.69 Q1721.37 1441.02 1719.9 1440.66 Q1718.46 1440.3 1717.03 1440.3 Q1713.26 1440.3 1711.27 1442.84 Q1709.3 1445.38 1709.01 1450.52 Q1710.12 1448.88 1711.8 1448.01 Q1713.47 1447.13 1715.48 1447.13 Q1719.72 1447.13 1722.16 1449.71 Q1724.62 1452.26 1724.62 1456.68 Q1724.62 1461.01 1722.07 1463.62 Q1719.51 1466.24 1715.26 1466.24 Q1710.39 1466.24 1707.81 1462.51 Q1705.23 1458.77 1705.23 1451.68 Q1705.23 1445.02 1708.39 1441.07 Q1711.55 1437.11 1716.88 1437.11 Q1718.3 1437.11 1719.75 1437.39 Q1721.22 1437.67 1722.8 1438.23 Z" fill="#000000" fill-rule="evenodd" fill-opacity="1" /><path clip-path="url(#clip780)" d="M 0 0 M1936.51 1489.17 L1944.15 1489.17 L1944.15 1462.8 L1935.84 1464.47 L1935.84 1460.21 L1944.1 1458.54 L1948.78 1458.54 L1948.78 1489.17 L1956.41 1489.17 L1956.41 1493.1 L1936.51 1493.1 L1936.51 1489.17 Z" fill="#000000" fill-rule="evenodd" fill-opacity="1" /><path clip-path="url(#clip780)" d="M 0 0 M1971.48 1461.62 Q1967.87 1461.62 1966.04 1465.19 Q1964.24 1468.73 1964.24 1475.86 Q1964.24 1482.97 1966.04 1486.53 Q1967.87 1490.07 1971.48 1490.07 Q1975.12 1490.07 1976.92 1486.53 Q1978.75 1482.97 1978.75 1475.86 Q1978.75 1468.73 1976.92 1465.19 Q1975.12 1461.62 1971.48 1461.62 M1971.48 1457.92 Q1977.29 1457.92 1980.35 1462.53 Q1983.43 1467.11 1983.43 1475.86 Q1983.43 1484.59 1980.35 1489.19 Q1977.29 1493.78 1971.48 1493.78 Q1965.67 1493.78 1962.59 1489.19 Q1959.54 1484.59 1959.54 1475.86 Q1959.54 1467.11 1962.59 1462.53 Q1965.67 1457.92 1971.48 1457.92 Z" fill="#000000" fill-rule="evenodd" fill-opacity="1" /><path clip-path="url(#clip780)" d="M 0 0 M1993.13 1440.11 Q1990.2 1440.11 1988.71 1443.01 Q1987.25 1445.89 1987.25 1451.68 Q1987.25 1457.46 1988.71 1460.35 Q1990.2 1463.23 1993.13 1463.23 Q1996.09 1463.23 1997.55 1460.35 Q1999.04 1457.46 1999.04 1451.68 Q1999.04 1445.89 1997.55 1443.01 Q1996.09 1440.11 1993.13 1440.11 M1993.13 1437.11 Q1997.85 1437.11 2000.34 1440.85 Q2002.84 1444.57 2002.84 1451.68 Q2002.84 1458.77 2000.34 1462.51 Q1997.85 1466.24 1993.13 1466.24 Q1988.41 1466.24 1985.91 1462.51 Q1983.43 1458.77 1983.43 1451.68 Q1983.43 1444.57 1985.91 1440.85 Q1988.41 1437.11 1993.13 1437.11 Z" fill="#000000" fill-rule="evenodd" fill-opacity="1" /><path clip-path="url(#clip780)" d="M 0 0 M2006.96 1460.92 L2010.92 1460.92 L2010.92 1465.69 L2006.96 1465.69 L2006.96 1460.92 Z" fill="#000000" fill-rule="evenodd" fill-opacity="1" /><path clip-path="url(#clip780)" d="M 0 0 M2023.17 1452.36 Q2020.46 1452.36 2018.9 1453.81 Q2017.36 1455.26 2017.36 1457.79 Q2017.36 1460.33 2018.9 1461.78 Q2020.46 1463.23 2023.17 1463.23 Q2025.88 1463.23 2027.44 1461.78 Q2029 1460.31 2029 1457.79 Q2029 1455.26 2027.44 1453.81 Q2025.9 1452.36 2023.17 1452.36 M2019.37 1450.74 Q2016.92 1450.14 2015.55 1448.47 Q2014.2 1446.79 2014.2 1444.38 Q2014.2 1441.02 2016.59 1439.06 Q2018.99 1437.11 2023.17 1437.11 Q2027.36 1437.11 2029.75 1439.06 Q2032.14 1441.02 2032.14 1444.38 Q2032.14 1446.79 2030.77 1448.47 Q2029.41 1450.14 2026.99 1450.74 Q2029.73 1451.38 2031.26 1453.24 Q2032.8 1455.1 2032.8 1457.79 Q2032.8 1461.88 2030.3 1464.06 Q2027.81 1466.24 2023.17 1466.24 Q2018.52 1466.24 2016.02 1464.06 Q2013.54 1461.88 2013.54 1457.79 Q2013.54 1455.1 2015.08 1453.24 Q2016.62 1451.38 2019.37 1450.74 M2017.98 1444.74 Q2017.98 1446.92 2019.33 1448.15 Q2020.7 1449.37 2023.17 1449.37 Q2025.61 1449.37 2026.99 1448.15 Q2028.38 1446.92 2028.38 1444.74 Q2028.38 1442.56 2026.99 1441.34 Q2025.61 1440.11 2023.17 1440.11 Q2020.7 1440.11 2019.33 1441.34 Q2017.98 1442.56 2017.98 1444.74 Z" fill="#000000" fill-rule="evenodd" fill-opacity="1" /><path clip-path="url(#clip780)" d="M 0 0 M2246.09 1489.17 L2253.73 1489.17 L2253.73 1462.8 L2245.42 1464.47 L2245.42 1460.21 L2253.68 1458.54 L2258.36 1458.54 L2258.36 1489.17 L2266 1489.17 L2266 1493.1 L2246.09 1493.1 L2246.09 1489.17 Z" fill="#000000" fill-rule="evenodd" fill-opacity="1" /><path clip-path="url(#clip780)" d="M 0 0 M2281.07 1461.62 Q2277.46 1461.62 2275.63 1465.19 Q2273.82 1468.73 2273.82 1475.86 Q2273.82 1482.97 2275.63 1486.53 Q2277.46 1490.07 2281.07 1490.07 Q2284.7 1490.07 2286.51 1486.53 Q2288.34 1482.97 2288.34 1475.86 Q2288.34 1468.73 2286.51 1465.19 Q2284.7 1461.62 2281.07 1461.62 M2281.07 1457.92 Q2286.88 1457.92 2289.93 1462.53 Q2293.01 1467.11 2293.01 1475.86 Q2293.01 1484.59 2289.93 1489.19 Q2286.88 1493.78 2281.07 1493.78 Q2275.26 1493.78 2272.18 1489.19 Q2269.12 1484.59 2269.12 1475.86 Q2269.12 1467.11 2272.18 1462.53 Q2275.26 1457.92 2281.07 1457.92 Z" fill="#000000" fill-rule="evenodd" fill-opacity="1" /><path clip-path="url(#clip780)" d="M 0 0 M2293.56 1462.5 L2299.76 1462.5 L2299.76 1441.07 L2293.01 1442.43 L2293.01 1438.97 L2299.73 1437.61 L2303.53 1437.61 L2303.53 1462.5 L2309.73 1462.5 L2309.73 1465.69 L2293.56 1465.69 L2293.56 1462.5 Z" fill="#000000" fill-rule="evenodd" fill-opacity="1" /><path clip-path="url(#clip780)" d="M 0 0 M2313.85 1460.92 L2317.82 1460.92 L2317.82 1465.69 L2313.85 1465.69 L2313.85 1460.92 Z" fill="#000000" fill-rule="evenodd" fill-opacity="1" /><path clip-path="url(#clip780)" d="M 0 0 M2330.06 1440.11 Q2327.13 1440.11 2325.64 1443.01 Q2324.18 1445.89 2324.18 1451.68 Q2324.18 1457.46 2325.64 1460.35 Q2327.13 1463.23 2330.06 1463.23 Q2333.02 1463.23 2334.48 1460.35 Q2335.97 1457.46 2335.97 1451.68 Q2335.97 1445.89 2334.48 1443.01 Q2333.02 1440.11 2330.06 1440.11 M2330.06 1437.11 Q2334.78 1437.11 2337.27 1440.85 Q2339.77 1444.57 2339.77 1451.68 Q2339.77 1458.77 2337.27 1462.51 Q2334.78 1466.24 2330.06 1466.24 Q2325.34 1466.24 2322.84 1462.51 Q2320.36 1458.77 2320.36 1451.68 Q2320.36 1444.57 2322.84 1440.85 Q2325.34 1437.11 2330.06 1437.11 Z" fill="#000000" fill-rule="evenodd" fill-opacity="1" /><path clip-path="url(#clip780)" d="M 0 0 M1295.1 1545.6 L1293.7 1538.25 Q1292.27 1530.71 1286.6 1530.71 Q1282.34 1530.71 1280.4 1534.21 Q1277.95 1538.6 1277.95 1544.39 Q1277.95 1551.4 1280.33 1554.74 Q1282.75 1558.14 1286.6 1558.14 Q1290.87 1558.14 1293.16 1551.36 L1295.1 1545.6 M1298.38 1535.86 L1301.53 1526.54 L1306.75 1526.54 L1300.23 1545.86 L1301.5 1552.83 Q1301.79 1554.39 1302.9 1555.69 Q1304.21 1557.22 1305.22 1557.22 L1308.03 1557.22 L1308.03 1562.19 L1304.52 1562.19 Q1301.53 1562.19 1298.86 1559.51 Q1297.55 1558.18 1297.01 1555.37 Q1295.55 1558.91 1292.56 1561.68 Q1291.16 1562.98 1286.6 1562.98 Q1279.13 1562.98 1275.5 1558.14 Q1271.77 1553.15 1271.77 1544.39 Q1271.77 1535.04 1275.81 1530.64 Q1280.3 1525.74 1286.6 1525.74 Q1296.5 1525.74 1298.38 1535.86 Z" fill="#000000" fill-rule="evenodd" fill-opacity="1" /><polyline clip-path="url(#clip782)" style="stroke:#000000; stroke-width:2; stroke-opacity:0.1; fill:none" points="
  227.042,1393.52 2352.76,1393.52 
  "/>
<polyline clip-path="url(#clip782)" style="stroke:#000000; stroke-width:2; stroke-opacity:0.1; fill:none" points="
  227.042,1007.18 2352.76,1007.18 
  "/>
<polyline clip-path="url(#clip782)" style="stroke:#000000; stroke-width:2; stroke-opacity:0.1; fill:none" points="
  227.042,620.85 2352.76,620.85 
  "/>
<polyline clip-path="url(#clip782)" style="stroke:#000000; stroke-width:2; stroke-opacity:0.1; fill:none" points="
  227.042,234.517 2352.76,234.517 
  "/>
<polyline clip-path="url(#clip780)" style="stroke:#000000; stroke-width:4; stroke-opacity:1; fill:none" points="
  227.042,1410.9 227.042,47.2441 
  "/>
<polyline clip-path="url(#clip780)" style="stroke:#000000; stroke-width:4; stroke-opacity:1; fill:none" points="
  227.042,1393.52 252.551,1393.52 
  "/>
<polyline clip-path="url(#clip780)" style="stroke:#000000; stroke-width:4; stroke-opacity:1; fill:none" points="
  227.042,1007.18 252.551,1007.18 
  "/>
<polyline clip-path="url(#clip780)" style="stroke:#000000; stroke-width:4; stroke-opacity:1; fill:none" points="
  227.042,620.85 252.551,620.85 
  "/>
<polyline clip-path="url(#clip780)" style="stroke:#000000; stroke-width:4; stroke-opacity:1; fill:none" points="
  227.042,234.517 252.551,234.517 
  "/>
<path clip-path="url(#clip780)" d="M 0 0 M179.098 1379.32 Q175.487 1379.32 173.658 1382.88 Q171.852 1386.42 171.852 1393.55 Q171.852 1400.66 173.658 1404.22 Q175.487 1407.77 179.098 1407.77 Q182.732 1407.77 184.538 1404.22 Q186.366 1400.66 186.366 1393.55 Q186.366 1386.42 184.538 1382.88 Q182.732 1379.32 179.098 1379.32 M179.098 1375.61 Q184.908 1375.61 187.963 1380.22 Q191.042 1384.8 191.042 1393.55 Q191.042 1402.28 187.963 1406.89 Q184.908 1411.47 179.098 1411.47 Q173.288 1411.47 170.209 1406.89 Q167.153 1402.28 167.153 1393.55 Q167.153 1384.8 170.209 1380.22 Q173.288 1375.61 179.098 1375.61 Z" fill="#000000" fill-rule="evenodd" fill-opacity="1" /><path clip-path="url(#clip780)" d="M 0 0 M117.107 1020.53 L124.746 1020.53 L124.746 994.163 L116.436 995.83 L116.436 991.571 L124.7 989.904 L129.376 989.904 L129.376 1020.53 L137.015 1020.53 L137.015 1024.46 L117.107 1024.46 L117.107 1020.53 Z" fill="#000000" fill-rule="evenodd" fill-opacity="1" /><path clip-path="url(#clip780)" d="M 0 0 M152.084 992.983 Q148.473 992.983 146.644 996.547 Q144.839 1000.09 144.839 1007.22 Q144.839 1014.33 146.644 1017.89 Q148.473 1021.43 152.084 1021.43 Q155.718 1021.43 157.524 1017.89 Q159.353 1014.33 159.353 1007.22 Q159.353 1000.09 157.524 996.547 Q155.718 992.983 152.084 992.983 M152.084 989.279 Q157.894 989.279 160.95 993.885 Q164.028 998.469 164.028 1007.22 Q164.028 1015.95 160.95 1020.55 Q157.894 1025.14 152.084 1025.14 Q146.274 1025.14 143.195 1020.55 Q140.14 1015.95 140.14 1007.22 Q140.14 998.469 143.195 993.885 Q146.274 989.279 152.084 989.279 Z" fill="#000000" fill-rule="evenodd" fill-opacity="1" /><path clip-path="url(#clip780)" d="M 0 0 M179.098 992.983 Q175.487 992.983 173.658 996.547 Q171.852 1000.09 171.852 1007.22 Q171.852 1014.33 173.658 1017.89 Q175.487 1021.43 179.098 1021.43 Q182.732 1021.43 184.538 1017.89 Q186.366 1014.33 186.366 1007.22 Q186.366 1000.09 184.538 996.547 Q182.732 992.983 179.098 992.983 M179.098 989.279 Q184.908 989.279 187.963 993.885 Q191.042 998.469 191.042 1007.22 Q191.042 1015.95 187.963 1020.55 Q184.908 1025.14 179.098 1025.14 Q173.288 1025.14 170.209 1020.55 Q167.153 1015.95 167.153 1007.22 Q167.153 998.469 170.209 993.885 Q173.288 989.279 179.098 989.279 Z" fill="#000000" fill-rule="evenodd" fill-opacity="1" /><path clip-path="url(#clip780)" d="M 0 0 M120.695 634.195 L137.015 634.195 L137.015 638.13 L115.07 638.13 L115.07 634.195 Q117.732 631.44 122.316 626.811 Q126.922 622.158 128.103 620.816 Q130.348 618.292 131.228 616.556 Q132.13 614.797 132.13 613.107 Q132.13 610.353 130.186 608.617 Q128.265 606.88 125.163 606.88 Q122.964 606.88 120.51 607.644 Q118.08 608.408 115.302 609.959 L115.302 605.237 Q118.126 604.103 120.58 603.524 Q123.033 602.945 125.07 602.945 Q130.441 602.945 133.635 605.63 Q136.829 608.316 136.829 612.806 Q136.829 614.936 136.019 616.857 Q135.232 618.755 133.126 621.348 Q132.547 622.019 129.445 625.237 Q126.343 628.431 120.695 634.195 Z" fill="#000000" fill-rule="evenodd" fill-opacity="1" /><path clip-path="url(#clip780)" d="M 0 0 M152.084 606.649 Q148.473 606.649 146.644 610.214 Q144.839 613.755 144.839 620.885 Q144.839 627.991 146.644 631.556 Q148.473 635.098 152.084 635.098 Q155.718 635.098 157.524 631.556 Q159.353 627.991 159.353 620.885 Q159.353 613.755 157.524 610.214 Q155.718 606.649 152.084 606.649 M152.084 602.945 Q157.894 602.945 160.95 607.552 Q164.028 612.135 164.028 620.885 Q164.028 629.612 160.95 634.218 Q157.894 638.802 152.084 638.802 Q146.274 638.802 143.195 634.218 Q140.14 629.612 140.14 620.885 Q140.14 612.135 143.195 607.552 Q146.274 602.945 152.084 602.945 Z" fill="#000000" fill-rule="evenodd" fill-opacity="1" /><path clip-path="url(#clip780)" d="M 0 0 M179.098 606.649 Q175.487 606.649 173.658 610.214 Q171.852 613.755 171.852 620.885 Q171.852 627.991 173.658 631.556 Q175.487 635.098 179.098 635.098 Q182.732 635.098 184.538 631.556 Q186.366 627.991 186.366 620.885 Q186.366 613.755 184.538 610.214 Q182.732 606.649 179.098 606.649 M179.098 602.945 Q184.908 602.945 187.963 607.552 Q191.042 612.135 191.042 620.885 Q191.042 629.612 187.963 634.218 Q184.908 638.802 179.098 638.802 Q173.288 638.802 170.209 634.218 Q167.153 629.612 167.153 620.885 Q167.153 612.135 170.209 607.552 Q173.288 602.945 179.098 602.945 Z" fill="#000000" fill-rule="evenodd" fill-opacity="1" /><path clip-path="url(#clip780)" d="M 0 0 M129.885 233.162 Q133.242 233.88 135.117 236.149 Q137.015 238.417 137.015 241.75 Q137.015 246.866 133.496 249.667 Q129.978 252.468 123.496 252.468 Q121.32 252.468 119.006 252.028 Q116.714 251.611 114.26 250.755 L114.26 246.241 Q116.205 247.375 118.519 247.954 Q120.834 248.533 123.357 248.533 Q127.755 248.533 130.047 246.797 Q132.362 245.061 132.362 241.75 Q132.362 238.695 130.209 236.982 Q128.08 235.246 124.26 235.246 L120.232 235.246 L120.232 231.403 L124.445 231.403 Q127.894 231.403 129.723 230.037 Q131.552 228.649 131.552 226.056 Q131.552 223.394 129.654 221.982 Q127.779 220.547 124.26 220.547 Q122.339 220.547 120.14 220.963 Q117.941 221.38 115.302 222.26 L115.302 218.093 Q117.964 217.352 120.279 216.982 Q122.617 216.612 124.677 216.612 Q130.001 216.612 133.103 219.042 Q136.204 221.45 136.204 225.57 Q136.204 228.44 134.561 230.431 Q132.917 232.399 129.885 233.162 Z" fill="#000000" fill-rule="evenodd" fill-opacity="1" /><path clip-path="url(#clip780)" d="M 0 0 M152.084 220.315 Q148.473 220.315 146.644 223.88 Q144.839 227.422 144.839 234.551 Q144.839 241.658 146.644 245.223 Q148.473 248.764 152.084 248.764 Q155.718 248.764 157.524 245.223 Q159.353 241.658 159.353 234.551 Q159.353 227.422 157.524 223.88 Q155.718 220.315 152.084 220.315 M152.084 216.612 Q157.894 216.612 160.95 221.218 Q164.028 225.801 164.028 234.551 Q164.028 243.278 160.95 247.885 Q157.894 252.468 152.084 252.468 Q146.274 252.468 143.195 247.885 Q140.14 243.278 140.14 234.551 Q140.14 225.801 143.195 221.218 Q146.274 216.612 152.084 216.612 Z" fill="#000000" fill-rule="evenodd" fill-opacity="1" /><path clip-path="url(#clip780)" d="M 0 0 M179.098 220.315 Q175.487 220.315 173.658 223.88 Q171.852 227.422 171.852 234.551 Q171.852 241.658 173.658 245.223 Q175.487 248.764 179.098 248.764 Q182.732 248.764 184.538 245.223 Q186.366 241.658 186.366 234.551 Q186.366 227.422 184.538 223.88 Q182.732 220.315 179.098 220.315 M179.098 216.612 Q184.908 216.612 187.963 221.218 Q191.042 225.801 191.042 234.551 Q191.042 243.278 187.963 247.885 Q184.908 252.468 179.098 252.468 Q173.288 252.468 170.209 247.885 Q167.153 243.278 167.153 234.551 Q167.153 225.801 170.209 221.218 Q173.288 216.612 179.098 216.612 Z" fill="#000000" fill-rule="evenodd" fill-opacity="1" /><path clip-path="url(#clip780)" d="M 0 0 M59.1993 815.533 Q55.2526 813.336 53.3747 810.281 Q51.4968 807.225 51.4968 803.088 Q51.4968 797.518 55.4117 794.494 Q59.2948 791.47 66.4881 791.47 L88.0042 791.47 L88.0042 797.358 L66.679 797.358 Q61.5546 797.358 59.072 799.173 Q56.5894 800.987 56.5894 804.711 Q56.5894 809.262 59.6131 811.904 Q62.6368 814.546 67.8567 814.546 L88.0042 814.546 L88.0042 820.434 L66.679 820.434 Q61.5228 820.434 59.072 822.248 Q56.5894 824.063 56.5894 827.85 Q56.5894 832.338 59.6449 834.98 Q62.6686 837.622 67.8567 837.622 L88.0042 837.622 L88.0042 843.51 L52.3562 843.51 L52.3562 837.622 L57.8944 837.622 Q54.616 835.616 53.0564 832.815 Q51.4968 830.015 51.4968 826.163 Q51.4968 822.28 53.4702 819.575 Q55.4436 816.838 59.1993 815.533 Z" fill="#000000" fill-rule="evenodd" fill-opacity="1" /><path clip-path="url(#clip780)" d="M 0 0 M52.3562 785.327 L52.3562 779.471 L88.0042 779.471 L88.0042 785.327 L52.3562 785.327 M38.479 785.327 L38.479 779.471 L45.895 779.471 L45.895 785.327 L38.479 785.327 Z" fill="#000000" fill-rule="evenodd" fill-opacity="1" /><path clip-path="url(#clip780)" d="M 0 0 M66.4881 743.696 L88.0042 743.696 L88.0042 749.552 L66.679 749.552 Q61.6183 749.552 59.1038 751.525 Q56.5894 753.499 56.5894 757.446 Q56.5894 762.188 59.6131 764.925 Q62.6368 767.662 67.8567 767.662 L88.0042 767.662 L88.0042 773.551 L52.3562 773.551 L52.3562 767.662 L57.8944 767.662 Q54.6797 765.562 53.0883 762.729 Q51.4968 759.864 51.4968 756.141 Q51.4968 749.998 55.3163 746.847 Q59.1038 743.696 66.4881 743.696 Z" fill="#000000" fill-rule="evenodd" fill-opacity="1" /><path clip-path="url(#clip780)" d="M 0 0 M98.8259 710.467 L103.377 710.467 L103.377 744.332 L98.8259 744.332 L98.8259 710.467 Z" fill="#000000" fill-rule="evenodd" fill-opacity="1" /><path clip-path="url(#clip780)" d="M 0 0 M57.7671 680.866 L38.479 680.866 L38.479 675.01 L88.0042 675.01 L88.0042 680.866 L82.657 680.866 Q85.8398 682.712 87.3994 685.545 Q88.9272 688.346 88.9272 692.292 Q88.9272 698.754 83.771 702.828 Q78.6147 706.87 70.212 706.87 Q61.8093 706.87 56.6531 702.828 Q51.4968 698.754 51.4968 692.292 Q51.4968 688.346 53.0564 685.545 Q54.5842 682.712 57.7671 680.866 M70.212 700.823 Q76.6732 700.823 80.3653 698.181 Q84.0256 695.507 84.0256 690.86 Q84.0256 686.213 80.3653 683.54 Q76.6732 680.866 70.212 680.866 Q63.7508 680.866 60.0905 683.54 Q56.3984 686.213 56.3984 690.86 Q56.3984 695.507 60.0905 698.181 Q63.7508 700.823 70.212 700.823 Z" fill="#000000" fill-rule="evenodd" fill-opacity="1" /><path clip-path="url(#clip780)" d="M 0 0 M52.3562 668.867 L52.3562 663.01 L88.0042 663.01 L88.0042 668.867 L52.3562 668.867 M38.479 668.867 L38.479 663.01 L45.895 663.01 L45.895 668.867 L38.479 668.867 Z" fill="#000000" fill-rule="evenodd" fill-opacity="1" /><path clip-path="url(#clip780)" d="M 0 0 M38.479 638.821 L43.3487 638.821 L43.3487 644.422 Q43.3487 647.573 44.6219 648.815 Q45.895 650.024 49.2052 650.024 L52.3562 650.024 L52.3562 640.38 L56.9077 640.38 L56.9077 650.024 L88.0042 650.024 L88.0042 655.912 L56.9077 655.912 L56.9077 661.514 L52.3562 661.514 L52.3562 655.912 L49.8736 655.912 Q43.9216 655.912 41.2162 653.143 Q38.479 650.374 38.479 644.359 L38.479 638.821 Z" fill="#000000" fill-rule="evenodd" fill-opacity="1" /><path clip-path="url(#clip780)" d="M 0 0 M38.479 614.631 L43.3487 614.631 L43.3487 620.233 Q43.3487 623.384 44.6219 624.625 Q45.895 625.835 49.2052 625.835 L52.3562 625.835 L52.3562 616.19 L56.9077 616.19 L56.9077 625.835 L88.0042 625.835 L88.0042 631.723 L56.9077 631.723 L56.9077 637.325 L52.3562 637.325 L52.3562 631.723 L49.8736 631.723 Q43.9216 631.723 41.2162 628.954 Q38.479 626.185 38.479 620.169 L38.479 614.631 Z" fill="#000000" fill-rule="evenodd" fill-opacity="1" /><polyline clip-path="url(#clip782)" style="stroke:#009af9; stroke-width:20; stroke-opacity:1; fill:none" stroke-dasharray="80, 50" points="
  287.204,85.838 751.207,1119.98 1022.63,1359.3 1215.21,1372.3 1364.59,1367.28 1486.64,1359.94 1589.83,1356.57 1679.21,1338.2 1758.06,1307.65 1828.59,1268.09 
  1892.39,1242.72 1950.64,1245.25 2004.22,1236.11 2053.83,1227.74 2100.02,1232.8 2143.22,1237.14 2183.8,1240.88 2222.06,1244.14 2258.26,1247.01 2292.59,1249.55 
  
  "/>
<path clip-path="url(#clip780)" d="
M1994.69 213.659 L2281.9 213.659 L2281.9 92.6992 L1994.69 92.6992  Z
  " fill="#ffffff" fill-rule="evenodd" fill-opacity="1"/>
<polyline clip-path="url(#clip780)" style="stroke:#000000; stroke-width:4; stroke-opacity:1; fill:none" points="
  1994.69,213.659 2281.9,213.659 2281.9,92.6992 1994.69,92.6992 1994.69,213.659 
  "/>
<polyline clip-path="url(#clip780)" style="stroke:#009af9; stroke-width:4; stroke-opacity:1; fill:none" stroke-dasharray="16, 10" points="
  2018.31,153.179 2160.02,153.179 
  "/>
<path clip-path="url(#clip780)" d="M 0 0 M2197.48 172.867 Q2195.68 177.496 2193.97 178.908 Q2192.25 180.32 2189.38 180.32 L2185.98 180.32 L2185.98 176.755 L2188.48 176.755 Q2190.24 176.755 2191.21 175.922 Q2192.18 175.089 2193.36 171.987 L2194.13 170.043 L2183.64 144.533 L2188.16 144.533 L2196.26 164.811 L2204.36 144.533 L2208.87 144.533 L2197.48 172.867 Z" fill="#000000" fill-rule="evenodd" fill-opacity="1" /><path clip-path="url(#clip780)" d="M 0 0 M2214.75 166.524 L2222.39 166.524 L2222.39 140.158 L2214.08 141.825 L2214.08 137.566 L2222.35 135.899 L2227.02 135.899 L2227.02 166.524 L2234.66 166.524 L2234.66 170.459 L2214.75 170.459 L2214.75 166.524 Z" fill="#000000" fill-rule="evenodd" fill-opacity="1" /></svg>
