<?xml version="1.0" encoding="utf-8"?>
<svg xmlns="http://www.w3.org/2000/svg" xmlns:xlink="http://www.w3.org/1999/xlink" width="600" height="400" viewBox="0 0 2400 1600">
<defs>
  <clipPath id="clip660">
    <rect x="0" y="0" width="2400" height="1600"/>
  </clipPath>
</defs>
<path clip-path="url(#clip660)" d="
M0 1600 L2400 1600 L2400 0 L0 0  Z
  " fill="#ffffff" fill-rule="evenodd" fill-opacity="1"/>
<defs>
  <clipPath id="clip661">
    <rect x="480" y="0" width="1681" height="1600"/>
  </clipPath>
</defs>
<path clip-path="url(#clip660)" d="
M281.949 1410.9 L2352.76 1410.9 L2352.76 47.2441 L281.949 47.2441  Z
  " fill="#ffffff" fill-rule="evenodd" fill-opacity="1"/>
<defs>
  <clipPath id="clip662">
    <rect x="281" y="47" width="2072" height="1365"/>
  </clipPath>
</defs>
<polyline clip-path="url(#clip662)" style="stroke:#000000; stroke-width:2; stroke-opacity:0.1; fill:none" points="
  649.575,1410.9 649.575,47.2441 
  "/>
<polyline clip-path="url(#clip662)" style="stroke:#000000; stroke-width:2; stroke-opacity:0.1; fill:none" points="
  1162.84,1410.9 1162.84,47.2441 
  "/>
<polyline clip-path="url(#clip662)" style="stroke:#000000; stroke-width:2; stroke-opacity:0.1; fill:none" points="
  1676.11,1410.9 1676.11,47.2441 
  "/>
<polyline clip-path="url(#clip662)" style="stroke:#000000; stroke-width:2; stroke-opacity:0.1; fill:none" points="
  2189.38,1410.9 2189.38,47.2441 
  "/>
<polyline clip-path="url(#clip660)" style="stroke:#000000; stroke-width:4; stroke-opacity:1; fill:none" points="
  281.949,1410.9 2352.76,1410.9 
  "/>
<polyline clip-path="url(#clip660)" style="stroke:#000000; stroke-width:4; stroke-opacity:1; fill:none" points="
  649.575,1410.9 649.575,1394.53 
  "/>
<polyline clip-path="url(#clip660)" style="stroke:#000000; stroke-width:4; stroke-opacity:1; fill:none" points="
  1162.84,1410.9 1162.84,1394.53 
  "/>
<polyline clip-path="url(#clip660)" style="stroke:#000000; stroke-width:4; stroke-opacity:1; fill:none" points="
  1676.11,1410.9 1676.11,1394.53 
  "/>
<polyline clip-path="url(#clip660)" style="stroke:#000000; stroke-width:4; stroke-opacity:1; fill:none" points="
  2189.38,1410.9 2189.38,1394.53 
  "/>
<path clip-path="url(#clip660)" d="M 0 0 M601.728 1489.17 L609.366 1489.17 L609.366 1462.8 L601.056 1464.47 L601.056 1460.21 L609.32 1458.54 L613.996 1458.54 L613.996 1489.17 L621.635 1489.17 L621.635 1493.1 L601.728 1493.1 L601.728 1489.17 Z" fill="#000000" fill-rule="evenodd" fill-opacity="1" /><path clip-path="url(#clip660)" d="M 0 0 M636.704 1461.62 Q633.093 1461.62 631.264 1465.19 Q629.459 1468.73 629.459 1475.86 Q629.459 1482.97 631.264 1486.53 Q633.093 1490.07 636.704 1490.07 Q640.338 1490.07 642.144 1486.53 Q643.973 1482.97 643.973 1475.86 Q643.973 1468.73 642.144 1465.19 Q640.338 1461.62 636.704 1461.62 M636.704 1457.92 Q642.514 1457.92 645.57 1462.53 Q648.649 1467.11 648.649 1475.86 Q648.649 1484.59 645.57 1489.19 Q642.514 1493.78 636.704 1493.78 Q630.894 1493.78 627.815 1489.19 Q624.76 1484.59 624.76 1475.86 Q624.76 1467.11 627.815 1462.53 Q630.894 1457.92 636.704 1457.92 Z" fill="#000000" fill-rule="evenodd" fill-opacity="1" /><path clip-path="url(#clip660)" d="M 0 0 M658.353 1440.11 Q655.419 1440.11 653.934 1443.01 Q652.467 1445.89 652.467 1451.68 Q652.467 1457.46 653.934 1460.35 Q655.419 1463.23 658.353 1463.23 Q661.306 1463.23 662.773 1460.35 Q664.259 1457.46 664.259 1451.68 Q664.259 1445.89 662.773 1443.01 Q661.306 1440.11 658.353 1440.11 M658.353 1437.11 Q663.074 1437.11 665.557 1440.85 Q668.058 1444.57 668.058 1451.68 Q668.058 1458.77 665.557 1462.51 Q663.074 1466.24 658.353 1466.24 Q653.633 1466.24 651.131 1462.51 Q648.649 1458.77 648.649 1451.68 Q648.649 1444.57 651.131 1440.85 Q653.633 1437.11 658.353 1437.11 Z" fill="#000000" fill-rule="evenodd" fill-opacity="1" /><path clip-path="url(#clip660)" d="M 0 0 M672.177 1460.92 L676.146 1460.92 L676.146 1465.69 L672.177 1465.69 L672.177 1460.92 Z" fill="#000000" fill-rule="evenodd" fill-opacity="1" /><path clip-path="url(#clip660)" d="M 0 0 M688.389 1440.11 Q685.455 1440.11 683.97 1443.01 Q682.503 1445.89 682.503 1451.68 Q682.503 1457.46 683.97 1460.35 Q685.455 1463.23 688.389 1463.23 Q691.342 1463.23 692.809 1460.35 Q694.295 1457.46 694.295 1451.68 Q694.295 1445.89 692.809 1443.01 Q691.342 1440.11 688.389 1440.11 M688.389 1437.11 Q693.11 1437.11 695.593 1440.85 Q698.094 1444.57 698.094 1451.68 Q698.094 1458.77 695.593 1462.51 Q693.11 1466.24 688.389 1466.24 Q683.669 1466.24 681.167 1462.51 Q678.685 1458.77 678.685 1451.68 Q678.685 1444.57 681.167 1440.85 Q683.669 1437.11 688.389 1437.11 Z" fill="#000000" fill-rule="evenodd" fill-opacity="1" /><path clip-path="url(#clip660)" d="M 0 0 M1115.4 1489.17 L1123.04 1489.17 L1123.04 1462.8 L1114.73 1464.47 L1114.73 1460.21 L1122.99 1458.54 L1127.67 1458.54 L1127.67 1489.17 L1135.31 1489.17 L1135.31 1493.1 L1115.4 1493.1 L1115.4 1489.17 Z" fill="#000000" fill-rule="evenodd" fill-opacity="1" /><path clip-path="url(#clip660)" d="M 0 0 M1150.38 1461.62 Q1146.77 1461.62 1144.94 1465.19 Q1143.13 1468.73 1143.13 1475.86 Q1143.13 1482.97 1144.94 1486.53 Q1146.77 1490.07 1150.38 1490.07 Q1154.01 1490.07 1155.82 1486.53 Q1157.65 1482.97 1157.65 1475.86 Q1157.65 1468.73 1155.82 1465.19 Q1154.01 1461.62 1150.38 1461.62 M1150.38 1457.92 Q1156.19 1457.92 1159.24 1462.53 Q1162.32 1467.11 1162.32 1475.86 Q1162.32 1484.59 1159.24 1489.19 Q1156.19 1493.78 1150.38 1493.78 Q1144.57 1493.78 1141.49 1489.19 Q1138.43 1484.59 1138.43 1475.86 Q1138.43 1467.11 1141.49 1462.53 Q1144.57 1457.92 1150.38 1457.92 Z" fill="#000000" fill-rule="evenodd" fill-opacity="1" /><path clip-path="url(#clip660)" d="M 0 0 M1172.03 1440.11 Q1169.09 1440.11 1167.61 1443.01 Q1166.14 1445.89 1166.14 1451.68 Q1166.14 1457.46 1167.61 1460.35 Q1169.09 1463.23 1172.03 1463.23 Q1174.98 1463.23 1176.45 1460.35 Q1177.93 1457.46 1177.93 1451.68 Q1177.93 1445.89 1176.45 1443.01 Q1174.98 1440.11 1172.03 1440.11 M1172.03 1437.11 Q1176.75 1437.11 1179.23 1440.85 Q1181.73 1444.57 1181.73 1451.68 Q1181.73 1458.77 1179.23 1462.51 Q1176.75 1466.24 1172.03 1466.24 Q1167.31 1466.24 1164.8 1462.51 Q1162.32 1458.77 1162.32 1451.68 Q1162.32 1444.57 1164.8 1440.85 Q1167.31 1437.11 1172.03 1437.11 Z" fill="#000000" fill-rule="evenodd" fill-opacity="1" /><path clip-path="url(#clip660)" d="M 0 0 M1185.85 1460.92 L1189.82 1460.92 L1189.82 1465.69 L1185.85 1465.69 L1185.85 1460.92 Z" fill="#000000" fill-rule="evenodd" fill-opacity="1" /><path clip-path="url(#clip660)" d="M 0 0 M1193.97 1437.61 L1208.89 1437.61 L1208.89 1440.81 L1197.45 1440.81 L1197.45 1447.69 Q1198.28 1447.41 1199.11 1447.28 Q1199.94 1447.13 1200.76 1447.13 Q1205.47 1447.13 1208.21 1449.71 Q1210.96 1452.28 1210.96 1456.68 Q1210.96 1461.22 1208.14 1463.74 Q1205.32 1466.24 1200.18 1466.24 Q1198.41 1466.24 1196.57 1465.94 Q1194.75 1465.64 1192.79 1465.04 L1192.79 1461.22 Q1194.48 1462.14 1196.29 1462.59 Q1198.09 1463.04 1200.11 1463.04 Q1203.36 1463.04 1205.26 1461.33 Q1207.16 1459.62 1207.16 1456.68 Q1207.16 1453.75 1205.26 1452.04 Q1203.36 1450.33 1200.11 1450.33 Q1198.58 1450.33 1197.06 1450.67 Q1195.55 1451 1193.97 1451.72 L1193.97 1437.61 Z" fill="#000000" fill-rule="evenodd" fill-opacity="1" /><path clip-path="url(#clip660)" d="M 0 0 M1629.61 1489.17 L1637.25 1489.17 L1637.25 1462.8 L1628.94 1464.47 L1628.94 1460.21 L1637.2 1458.54 L1641.88 1458.54 L1641.88 1489.17 L1649.52 1489.17 L1649.52 1493.1 L1629.61 1493.1 L1629.61 1489.17 Z" fill="#000000" fill-rule="evenodd" fill-opacity="1" /><path clip-path="url(#clip660)" d="M 0 0 M1664.59 1461.62 Q1660.97 1461.62 1659.15 1465.19 Q1657.34 1468.73 1657.34 1475.86 Q1657.34 1482.97 1659.15 1486.53 Q1660.97 1490.07 1664.59 1490.07 Q1668.22 1490.07 1670.03 1486.53 Q1671.85 1482.97 1671.85 1475.86 Q1671.85 1468.73 1670.03 1465.19 Q1668.22 1461.62 1664.59 1461.62 M1664.59 1457.92 Q1670.4 1457.92 1673.45 1462.53 Q1676.53 1467.11 1676.53 1475.86 Q1676.53 1484.59 1673.45 1489.19 Q1670.4 1493.78 1664.59 1493.78 Q1658.78 1493.78 1655.7 1489.19 Q1652.64 1484.59 1652.64 1475.86 Q1652.64 1467.11 1655.7 1462.53 Q1658.78 1457.92 1664.59 1457.92 Z" fill="#000000" fill-rule="evenodd" fill-opacity="1" /><path clip-path="url(#clip660)" d="M 0 0 M1677.08 1462.5 L1683.28 1462.5 L1683.28 1441.07 L1676.53 1442.43 L1676.53 1438.97 L1683.24 1437.61 L1687.04 1437.61 L1687.04 1462.5 L1693.25 1462.5 L1693.25 1465.69 L1677.08 1465.69 L1677.08 1462.5 Z" fill="#000000" fill-rule="evenodd" fill-opacity="1" /><path clip-path="url(#clip660)" d="M 0 0 M1697.37 1460.92 L1701.34 1460.92 L1701.34 1465.69 L1697.37 1465.69 L1697.37 1460.92 Z" fill="#000000" fill-rule="evenodd" fill-opacity="1" /><path clip-path="url(#clip660)" d="M 0 0 M1713.58 1440.11 Q1710.65 1440.11 1709.16 1443.01 Q1707.69 1445.89 1707.69 1451.68 Q1707.69 1457.46 1709.16 1460.35 Q1710.65 1463.23 1713.58 1463.23 Q1716.53 1463.23 1718 1460.35 Q1719.49 1457.46 1719.49 1451.68 Q1719.49 1445.89 1718 1443.01 Q1716.53 1440.11 1713.58 1440.11 M1713.58 1437.11 Q1718.3 1437.11 1720.78 1440.85 Q1723.29 1444.57 1723.29 1451.68 Q1723.29 1458.77 1720.78 1462.51 Q1718.3 1466.24 1713.58 1466.24 Q1708.86 1466.24 1706.36 1462.51 Q1703.88 1458.77 1703.88 1451.68 Q1703.88 1444.57 1706.36 1440.85 Q1708.86 1437.11 1713.58 1437.11 Z" fill="#000000" fill-rule="evenodd" fill-opacity="1" /><path clip-path="url(#clip660)" d="M 0 0 M2143.28 1489.17 L2150.92 1489.17 L2150.92 1462.8 L2142.61 1464.47 L2142.61 1460.21 L2150.87 1458.54 L2155.55 1458.54 L2155.55 1489.17 L2163.19 1489.17 L2163.19 1493.1 L2143.28 1493.1 L2143.28 1489.17 Z" fill="#000000" fill-rule="evenodd" fill-opacity="1" /><path clip-path="url(#clip660)" d="M 0 0 M2178.26 1461.62 Q2174.65 1461.62 2172.82 1465.19 Q2171.01 1468.73 2171.01 1475.86 Q2171.01 1482.97 2172.82 1486.53 Q2174.65 1490.07 2178.26 1490.07 Q2181.89 1490.07 2183.7 1486.53 Q2185.53 1482.97 2185.53 1475.86 Q2185.53 1468.73 2183.7 1465.19 Q2181.89 1461.62 2178.26 1461.62 M2178.26 1457.92 Q2184.07 1457.92 2187.12 1462.53 Q2190.2 1467.11 2190.2 1475.86 Q2190.2 1484.59 2187.12 1489.19 Q2184.07 1493.78 2178.26 1493.78 Q2172.45 1493.78 2169.37 1489.19 Q2166.31 1484.59 2166.31 1475.86 Q2166.31 1467.11 2169.37 1462.53 Q2172.45 1457.92 2178.26 1457.92 Z" fill="#000000" fill-rule="evenodd" fill-opacity="1" /><path clip-path="url(#clip660)" d="M 0 0 M2190.75 1462.5 L2196.95 1462.5 L2196.95 1441.07 L2190.2 1442.43 L2190.2 1438.97 L2196.92 1437.61 L2200.72 1437.61 L2200.72 1462.5 L2206.92 1462.5 L2206.92 1465.69 L2190.75 1465.69 L2190.75 1462.5 Z" fill="#000000" fill-rule="evenodd" fill-opacity="1" /><path clip-path="url(#clip660)" d="M 0 0 M2211.04 1460.92 L2215.01 1460.92 L2215.01 1465.69 L2211.04 1465.69 L2211.04 1460.92 Z" fill="#000000" fill-rule="evenodd" fill-opacity="1" /><path clip-path="url(#clip660)" d="M 0 0 M2219.17 1437.61 L2234.08 1437.61 L2234.08 1440.81 L2222.65 1440.81 L2222.65 1447.69 Q2223.47 1447.41 2224.3 1447.28 Q2225.13 1447.13 2225.96 1447.13 Q2230.66 1447.13 2233.4 1449.71 Q2236.15 1452.28 2236.15 1456.68 Q2236.15 1461.22 2233.33 1463.74 Q2230.51 1466.24 2225.37 1466.24 Q2223.6 1466.24 2221.76 1465.94 Q2219.94 1465.64 2217.98 1465.04 L2217.98 1461.22 Q2219.67 1462.14 2221.48 1462.59 Q2223.29 1463.04 2225.3 1463.04 Q2228.55 1463.04 2230.45 1461.33 Q2232.35 1459.62 2232.35 1456.68 Q2232.35 1453.75 2230.45 1452.04 Q2228.55 1450.33 2225.3 1450.33 Q2223.77 1450.33 2222.25 1450.67 Q2220.75 1451 2219.17 1451.72 L2219.17 1437.61 Z" fill="#000000" fill-rule="evenodd" fill-opacity="1" /><path clip-path="url(#clip660)" d="M 0 0 M1307.84 1559.99 L1307.84 1575.74 L1301.95 1575.74 L1301.95 1526.76 Q1301.95 1512.25 1315.51 1512.25 Q1329.32 1512.25 1329.32 1524.5 Q1329.32 1533.22 1323.85 1536.4 Q1332.76 1539.27 1332.76 1547.77 Q1332.76 1562.85 1317.42 1562.85 Q1310.67 1562.85 1307.84 1559.99 M1307.84 1552.35 Q1311.37 1557.86 1317.64 1557.86 Q1326.81 1557.86 1326.81 1547.86 Q1326.81 1538.89 1312.04 1539.59 L1312.04 1534.18 Q1323.59 1534.18 1323.59 1523.99 Q1323.59 1517.02 1316.14 1517.02 Q1307.84 1517.02 1307.84 1526.95 L1307.84 1552.35 Z" fill="#000000" fill-rule="evenodd" fill-opacity="1" /><polyline clip-path="url(#clip662)" style="stroke:#000000; stroke-width:2; stroke-opacity:0.1; fill:none" points="
  281.949,1372.68 2352.76,1372.68 
  "/>
<polyline clip-path="url(#clip662)" style="stroke:#000000; stroke-width:2; stroke-opacity:0.1; fill:none" points="
  281.949,1033.49 2352.76,1033.49 
  "/>
<polyline clip-path="url(#clip662)" style="stroke:#000000; stroke-width:2; stroke-opacity:0.1; fill:none" points="
  281.949,694.301 2352.76,694.301 
  "/>
<polyline clip-path="url(#clip662)" style="stroke:#000000; stroke-width:2; stroke-opacity:0.1; fill:none" points="
  281.949,355.112 2352.76,355.112 
  "/>
<polyline clip-path="url(#clip660)" style="stroke:#000000; stroke-width:4; stroke-opacity:1; fill:none" points="
  281.949,1410.9 281.949,47.2441 
  "/>
<polyline clip-path="url(#clip660)" style="stroke:#000000; stroke-width:4; stroke-opacity:1; fill:none" points="
  281.949,1372.68 306.799,1372.68 
  "/>
<polyline clip-path="url(#clip660)" style="stroke:#000000; stroke-width:4; stroke-opacity:1; fill:none" points="
  281.949,1033.49 306.799,1033.49 
  "/>
<polyline clip-path="url(#clip660)" style="stroke:#000000; stroke-width:4; stroke-opacity:1; fill:none" points="
  281.949,694.301 306.799,694.301 
  "/>
<polyline clip-path="url(#clip660)" style="stroke:#000000; stroke-width:4; stroke-opacity:1; fill:none" points="
  281.949,355.112 306.799,355.112 
  "/>
<path clip-path="url(#clip660)" d="M 0 0 M234.005 1358.48 Q230.394 1358.48 228.565 1362.04 Q226.76 1365.58 226.76 1372.71 Q226.76 1379.82 228.565 1383.38 Q230.394 1386.93 234.005 1386.93 Q237.639 1386.93 239.445 1383.38 Q241.273 1379.82 241.273 1372.71 Q241.273 1365.58 239.445 1362.04 Q237.639 1358.48 234.005 1358.48 M234.005 1354.77 Q239.815 1354.77 242.871 1359.38 Q245.949 1363.96 245.949 1372.71 Q245.949 1381.44 242.871 1386.05 Q239.815 1390.63 234.005 1390.63 Q228.195 1390.63 225.116 1386.05 Q222.061 1381.44 222.061 1372.71 Q222.061 1363.96 225.116 1359.38 Q228.195 1354.77 234.005 1354.77 Z" fill="#000000" fill-rule="evenodd" fill-opacity="1" /><path clip-path="url(#clip660)" d="M 0 0 M123.126 1053.28 L139.445 1053.28 L139.445 1057.22 L117.501 1057.22 L117.501 1053.28 Q120.163 1050.53 124.746 1045.9 Q129.353 1041.25 130.533 1039.9 Q132.779 1037.38 133.658 1035.64 Q134.561 1033.88 134.561 1032.19 Q134.561 1029.44 132.617 1027.7 Q130.695 1025.97 127.593 1025.97 Q125.394 1025.97 122.941 1026.73 Q120.51 1027.5 117.732 1029.05 L117.732 1024.32 Q120.556 1023.19 123.01 1022.61 Q125.464 1022.03 127.501 1022.03 Q132.871 1022.03 136.066 1024.72 Q139.26 1027.4 139.26 1031.89 Q139.26 1034.02 138.45 1035.94 Q137.663 1037.84 135.556 1040.44 Q134.978 1041.11 131.876 1044.32 Q128.774 1047.52 123.126 1053.28 Z" fill="#000000" fill-rule="evenodd" fill-opacity="1" /><path clip-path="url(#clip660)" d="M 0 0 M172.686 1031.75 L162.107 1042.38 L172.686 1052.96 L169.931 1055.76 L159.306 1045.13 L148.681 1055.76 L145.95 1052.96 L156.505 1042.38 L145.95 1031.75 L148.681 1028.95 L159.306 1039.58 L169.931 1028.95 L172.686 1031.75 Z" fill="#000000" fill-rule="evenodd" fill-opacity="1" /><path clip-path="url(#clip660)" d="M 0 0 M178.565 1053.28 L186.204 1053.28 L186.204 1026.92 L177.894 1028.58 L177.894 1024.32 L186.158 1022.66 L190.834 1022.66 L190.834 1053.28 L198.473 1053.28 L198.473 1057.22 L178.565 1057.22 L178.565 1053.28 Z" fill="#000000" fill-rule="evenodd" fill-opacity="1" /><path clip-path="url(#clip660)" d="M 0 0 M213.542 1025.74 Q209.931 1025.74 208.102 1029.3 Q206.297 1032.84 206.297 1039.97 Q206.297 1047.08 208.102 1050.64 Q209.931 1054.19 213.542 1054.19 Q217.176 1054.19 218.982 1050.64 Q220.811 1047.08 220.811 1039.97 Q220.811 1032.84 218.982 1029.3 Q217.176 1025.74 213.542 1025.74 M213.542 1022.03 Q219.352 1022.03 222.408 1026.64 Q225.486 1031.22 225.486 1039.97 Q225.486 1048.7 222.408 1053.31 Q219.352 1057.89 213.542 1057.89 Q207.732 1057.89 204.653 1053.31 Q201.598 1048.7 201.598 1039.97 Q201.598 1031.22 204.653 1026.64 Q207.732 1022.03 213.542 1022.03 Z" fill="#000000" fill-rule="evenodd" fill-opacity="1" /><path clip-path="url(#clip660)" d="M 0 0 M238.163 1005.04 L228.571 1020.03 L238.163 1020.03 L238.163 1005.04 M237.166 1001.73 L241.943 1001.73 L241.943 1020.03 L245.949 1020.03 L245.949 1023.19 L241.943 1023.19 L241.943 1029.81 L238.163 1029.81 L238.163 1023.19 L225.486 1023.19 L225.486 1019.52 L237.166 1001.73 Z" fill="#000000" fill-rule="evenodd" fill-opacity="1" /><path clip-path="url(#clip660)" d="M 0 0 M129.862 687.543 L118.056 705.992 L129.862 705.992 L129.862 687.543 M128.635 683.469 L134.515 683.469 L134.515 705.992 L139.445 705.992 L139.445 709.881 L134.515 709.881 L134.515 718.029 L129.862 718.029 L129.862 709.881 L114.26 709.881 L114.26 705.367 L128.635 683.469 Z" fill="#000000" fill-rule="evenodd" fill-opacity="1" /><path clip-path="url(#clip660)" d="M 0 0 M172.686 692.566 L162.107 703.191 L172.686 713.77 L169.931 716.571 L159.306 705.946 L148.681 716.571 L145.95 713.77 L156.505 703.191 L145.95 692.566 L148.681 689.765 L159.306 700.39 L169.931 689.765 L172.686 692.566 Z" fill="#000000" fill-rule="evenodd" fill-opacity="1" /><path clip-path="url(#clip660)" d="M 0 0 M178.565 714.094 L186.204 714.094 L186.204 687.728 L177.894 689.395 L177.894 685.136 L186.158 683.469 L190.834 683.469 L190.834 714.094 L198.473 714.094 L198.473 718.029 L178.565 718.029 L178.565 714.094 Z" fill="#000000" fill-rule="evenodd" fill-opacity="1" /><path clip-path="url(#clip660)" d="M 0 0 M213.542 686.548 Q209.931 686.548 208.102 690.112 Q206.297 693.654 206.297 700.784 Q206.297 707.89 208.102 711.455 Q209.931 714.997 213.542 714.997 Q217.176 714.997 218.982 711.455 Q220.811 707.89 220.811 700.784 Q220.811 693.654 218.982 690.112 Q217.176 686.548 213.542 686.548 M213.542 682.844 Q219.352 682.844 222.408 687.45 Q225.486 692.034 225.486 700.784 Q225.486 709.51 222.408 714.117 Q219.352 718.7 213.542 718.7 Q207.732 718.7 204.653 714.117 Q201.598 709.51 201.598 700.784 Q201.598 692.034 204.653 687.45 Q207.732 682.844 213.542 682.844 Z" fill="#000000" fill-rule="evenodd" fill-opacity="1" /><path clip-path="url(#clip660)" d="M 0 0 M238.163 665.849 L228.571 680.838 L238.163 680.838 L238.163 665.849 M237.166 662.539 L241.943 662.539 L241.943 680.838 L245.949 680.838 L245.949 683.998 L241.943 683.998 L241.943 690.619 L238.163 690.619 L238.163 683.998 L225.486 683.998 L225.486 680.331 L237.166 662.539 Z" fill="#000000" fill-rule="evenodd" fill-opacity="1" /><path clip-path="url(#clip660)" d="M 0 0 M127.917 359.697 Q124.769 359.697 122.918 361.849 Q121.089 364.002 121.089 367.752 Q121.089 371.479 122.918 373.655 Q124.769 375.808 127.917 375.808 Q131.066 375.808 132.894 373.655 Q134.746 371.479 134.746 367.752 Q134.746 364.002 132.894 361.849 Q131.066 359.697 127.917 359.697 M137.2 345.044 L137.2 349.303 Q135.441 348.47 133.635 348.03 Q131.853 347.59 130.093 347.59 Q125.464 347.59 123.01 350.715 Q120.58 353.84 120.232 360.16 Q121.598 358.146 123.658 357.081 Q125.718 355.993 128.195 355.993 Q133.404 355.993 136.413 359.164 Q139.445 362.312 139.445 367.752 Q139.445 373.076 136.297 376.294 Q133.149 379.511 127.917 379.511 Q121.922 379.511 118.751 374.928 Q115.58 370.322 115.58 361.595 Q115.58 353.4 119.468 348.539 Q123.357 343.655 129.908 343.655 Q131.667 343.655 133.45 344.002 Q135.255 344.35 137.2 345.044 Z" fill="#000000" fill-rule="evenodd" fill-opacity="1" /><path clip-path="url(#clip660)" d="M 0 0 M172.686 353.377 L162.107 364.002 L172.686 374.581 L169.931 377.382 L159.306 366.757 L148.681 377.382 L145.95 374.581 L156.505 364.002 L145.95 353.377 L148.681 350.576 L159.306 361.201 L169.931 350.576 L172.686 353.377 Z" fill="#000000" fill-rule="evenodd" fill-opacity="1" /><path clip-path="url(#clip660)" d="M 0 0 M178.565 374.905 L186.204 374.905 L186.204 348.539 L177.894 350.206 L177.894 345.947 L186.158 344.28 L190.834 344.28 L190.834 374.905 L198.473 374.905 L198.473 378.84 L178.565 378.84 L178.565 374.905 Z" fill="#000000" fill-rule="evenodd" fill-opacity="1" /><path clip-path="url(#clip660)" d="M 0 0 M213.542 347.359 Q209.931 347.359 208.102 350.924 Q206.297 354.465 206.297 361.595 Q206.297 368.701 208.102 372.266 Q209.931 375.808 213.542 375.808 Q217.176 375.808 218.982 372.266 Q220.811 368.701 220.811 361.595 Q220.811 354.465 218.982 350.924 Q217.176 347.359 213.542 347.359 M213.542 343.655 Q219.352 343.655 222.408 348.262 Q225.486 352.845 225.486 361.595 Q225.486 370.322 222.408 374.928 Q219.352 379.511 213.542 379.511 Q207.732 379.511 204.653 374.928 Q201.598 370.322 201.598 361.595 Q201.598 352.845 204.653 348.262 Q207.732 343.655 213.542 343.655 Z" fill="#000000" fill-rule="evenodd" fill-opacity="1" /><path clip-path="url(#clip660)" d="M 0 0 M238.163 326.66 L228.571 341.65 L238.163 341.65 L238.163 326.66 M237.166 323.35 L241.943 323.35 L241.943 341.65 L245.949 341.65 L245.949 344.809 L241.943 344.809 L241.943 351.43 L238.163 351.43 L238.163 344.809 L225.486 344.809 L225.486 341.142 L237.166 323.35 Z" fill="#000000" fill-rule="evenodd" fill-opacity="1" /><path clip-path="url(#clip660)" d="M 0 0 M59.1993 815.533 Q55.2526 813.336 53.3747 810.281 Q51.4968 807.225 51.4968 803.088 Q51.4968 797.518 55.4117 794.494 Q59.2948 791.47 66.4881 791.47 L88.0042 791.47 L88.0042 797.358 L66.679 797.358 Q61.5546 797.358 59.072 799.173 Q56.5894 800.987 56.5894 804.711 Q56.5894 809.262 59.6131 811.904 Q62.6368 814.546 67.8567 814.546 L88.0042 814.546 L88.0042 820.434 L66.679 820.434 Q61.5228 820.434 59.072 822.248 Q56.5894 824.063 56.5894 827.85 Q56.5894 832.338 59.6449 834.98 Q62.6686 837.622 67.8567 837.622 L88.0042 837.622 L88.0042 843.51 L52.3562 843.51 L52.3562 837.622 L57.8944 837.622 Q54.616 835.616 53.0564 832.815 Q51.4968 830.015 51.4968 826.163 Q51.4968 822.28 53.4702 819.575 Q55.4436 816.838 59.1993 815.533 Z" fill="#000000" fill-rule="evenodd" fill-opacity="1" /><path clip-path="url(#clip660)" d="M 0 0 M52.3562 785.327 L52.3562 779.471 L88.0042 779.471 L88.0042 785.327 L52.3562 785.327 M38.479 785.327 L38.479 779.471 L45.895 779.471 L45.895 785.327 L38.479 785.327 Z" fill="#000000" fill-rule="evenodd" fill-opacity="1" /><path clip-path="url(#clip660)" d="M 0 0 M66.4881 743.696 L88.0042 743.696 L88.0042 749.552 L66.679 749.552 Q61.6183 749.552 59.1038 751.525 Q56.5894 753.499 56.5894 757.446 Q56.5894 762.188 59.6131 764.925 Q62.6368 767.662 67.8567 767.662 L88.0042 767.662 L88.0042 773.551 L52.3562 773.551 L52.3562 767.662 L57.8944 767.662 Q54.6797 765.562 53.0883 762.729 Q51.4968 759.864 51.4968 756.141 Q51.4968 749.998 55.3163 746.847 Q59.1038 743.696 66.4881 743.696 Z" fill="#000000" fill-rule="evenodd" fill-opacity="1" /><path clip-path="url(#clip660)" d="M 0 0 M98.8259 710.467 L103.377 710.467 L103.377 744.332 L98.8259 744.332 L98.8259 710.467 Z" fill="#000000" fill-rule="evenodd" fill-opacity="1" /><path clip-path="url(#clip660)" d="M 0 0 M57.7671 680.866 L38.479 680.866 L38.479 675.01 L88.0042 675.01 L88.0042 680.866 L82.657 680.866 Q85.8398 682.712 87.3994 685.545 Q88.9272 688.346 88.9272 692.292 Q88.9272 698.754 83.771 702.828 Q78.6147 706.87 70.212 706.87 Q61.8093 706.87 56.6531 702.828 Q51.4968 698.754 51.4968 692.292 Q51.4968 688.346 53.0564 685.545 Q54.5842 682.712 57.7671 680.866 M70.212 700.823 Q76.6732 700.823 80.3653 698.181 Q84.0256 695.507 84.0256 690.86 Q84.0256 686.213 80.3653 683.54 Q76.6732 680.866 70.212 680.866 Q63.7508 680.866 60.0905 683.54 Q56.3984 686.213 56.3984 690.86 Q56.3984 695.507 60.0905 698.181 Q63.7508 700.823 70.212 700.823 Z" fill="#000000" fill-rule="evenodd" fill-opacity="1" /><path clip-path="url(#clip660)" d="M 0 0 M52.3562 668.867 L52.3562 663.01 L88.0042 663.01 L88.0042 668.867 L52.3562 668.867 M38.479 668.867 L38.479 663.01 L45.895 663.01 L45.895 668.867 L38.479 668.867 Z" fill="#000000" fill-rule="evenodd" fill-opacity="1" /><path clip-path="url(#clip660)" d="M 0 0 M38.479 638.821 L43.3487 638.821 L43.3487 644.422 Q43.3487 647.573 44.6219 648.815 Q45.895 650.024 49.2052 650.024 L52.3562 650.024 L52.3562 640.38 L56.9077 640.38 L56.9077 650.024 L88.0042 650.024 L88.0042 655.912 L56.9077 655.912 L56.9077 661.514 L52.3562 661.514 L52.3562 655.912 L49.8736 655.912 Q43.9216 655.912 41.2162 653.143 Q38.479 650.374 38.479 644.359 L38.479 638.821 Z" fill="#000000" fill-rule="evenodd" fill-opacity="1" /><path clip-path="url(#clip660)" d="M 0 0 M38.479 614.631 L43.3487 614.631 L43.3487 620.233 Q43.3487 623.384 44.6219 624.625 Q45.895 625.835 49.2052 625.835 L52.3562 625.835 L52.3562 616.19 L56.9077 616.19 L56.9077 625.835 L88.0042 625.835 L88.0042 631.723 L56.9077 631.723 L56.9077 637.325 L52.3562 637.325 L52.3562 631.723 L49.8736 631.723 Q43.9216 631.723 41.2162 628.954 Q38.479 626.185 38.479 620.169 L38.479 614.631 Z" fill="#000000" fill-rule="evenodd" fill-opacity="1" /><polyline clip-path="url(#clip662)" style="stroke:#009af9; stroke-width:20; stroke-opacity:1; fill:none" stroke-dasharray="80, 50" points="
  340.557,1307.26 421.839,1307.64 490.563,1308.02 550.094,1308.39 602.604,1308.77 649.575,1345.42 692.066,1309.52 730.858,1345.9 766.542,1310.26 799.581,1346.37 
  830.339,1366.72 859.112,1346.84 886.139,1311.73 911.622,1367.02 935.726,1312.46 958.594,1371.55 980.345,1367.3 1001.08,1348.22 1039.88,1371.66 1058.08,1371.01 
  1075.56,1349.12 1092.39,1367.85 1108.6,1371.81 1139.36,1371.27 1168.13,1371.96 1181.85,1368.37 1195.16,1350.85 1208.08,1371.49 1220.64,1372.07 1244.74,1351.69 
  1256.32,1368.85 1267.61,1372.17 1289.36,1370.54 1310.1,1372.23 1320.12,1371.79 1348.89,1372.28 1358.09,1362.64 1367.09,1371.87 1375.92,1369.67 1384.58,1372.3 
  1401.4,1369.93 1409.58,1371.91 1417.62,1372.29 1425.51,1370.02 1448.38,1372.3 1470.13,1360.39 1477.15,1372.3 1484.06,1372.02 1490.87,1369.09 1504.18,1372.28 
  1517.1,1372.05 1529.66,1372.24 1547.86,1372.04 1553.76,1372.19 1559.59,1357.84 1565.34,1368.03 1576.63,1372.14 1582.17,1316.35 1598.38,1367.41 1603.66,1371.9 
  1619.12,1337.82 1629.14,1371.82 1634.07,1354.98 1653.24,1371.7 1657.91,1366.01 1667.1,1353.44 1671.63,1309.02 1676.11,1371.54 1684.94,1365.23 1693.6,1332.7 
  1697.86,1351.82 1710.42,1364.38 1718.6,1271.44 1726.64,1350.12 1734.53,1363.49 1746.11,1301.18 1753.66,1348.35 1757.39,1362.53 1761.09,1225.08 1779.15,1346.5 
  1786.17,1324.27 1793.08,1260.41 1799.89,1217.84 1803.25,1344.57 1809.9,1292.83 1813.19,1321.27 1826.12,1342.56 1835.57,1210.41 1838.68,1318.16 1856.88,1248.77 
  1862.78,1314.95 1865.7,1283.98 1868.61,1202.79 1874.36,1151.17 1885.65,1311.64 1891.19,1279.37 1899.37,1194.99 1907.4,1141.44 1910.05,1082.69 1912.68,1236.5 
  1915.29,1274.62 1928.14,1186.99 1938.16,1269.75 1943.08,1070.62 1955.17,1178.81 1962.26,1223.6 1966.93,1121.32 1973.84,1058.28 1976.12,990.312 1980.65,1170.43 
  1985.13,1216.91 1993.96,1110.91 2002.62,1045.68 2004.75,1161.87 2006.88,975.355 2019.44,1100.29 2027.62,1153.11 2029.64,1032.82 2035.65,960.092 2037.64,882.714 
  2043.54,1089.44 2055.13,1019.69 2062.68,944.522 2066.41,1078.36 2079.23,1006.3 2088.16,928.646 2093.44,846.022 2095.18,759.039 2102.1,992.644 2112.27,912.463 
  2118.92,827.148 2122.21,737.319 2135.14,895.973 2143.03,807.922 2147.69,715.199 2149.24,618.414 2165.89,788.344 2171.8,692.679 2174.72,592.799 2194.67,669.758 
  2198.83,566.733 2200.2,459.948 2221.69,540.214 2224.31,430.084 2247.18,399.713 2248.41,282.733 2271.28,248.254 2294.15,85.838 
  "/>
<path clip-path="url(#clip660)" d="
M2002.62 213.659 L2283.73 213.659 L2283.73 92.6992 L2002.62 92.6992  Z
  " fill="#ffffff" fill-rule="evenodd" fill-opacity="1"/>
<polyline clip-path="url(#clip660)" style="stroke:#000000; stroke-width:4; stroke-opacity:1; fill:none" points="
  2002.62,213.659 2283.73,213.659 2283.73,92.6992 2002.62,92.6992 2002.62,213.659 
  "/>
<polyline clip-path="url(#clip660)" style="stroke:#009af9; stroke-width:4; stroke-opacity:1; fill:none" stroke-dasharray="16, 10" points="
  2025.63,153.179 2163.68,153.179 
  "/>
<path clip-path="url(#clip660)" d="M 0 0 M2200.54 172.867 Q2198.73 177.496 2197.02 178.908 Q2195.3 180.32 2192.43 180.32 L2189.03 180.32 L2189.03 176.755 L2191.53 176.755 Q2193.29 176.755 2194.26 175.922 Q2195.23 175.089 2196.42 171.987 L2197.18 170.043 L2186.69 144.533 L2191.21 144.533 L2199.31 164.811 L2207.41 144.533 L2211.92 144.533 L2200.54 172.867 Z" fill="#000000" fill-rule="evenodd" fill-opacity="1" /><path clip-path="url(#clip660)" d="M 0 0 M2217.8 166.524 L2225.44 166.524 L2225.44 140.158 L2217.13 141.825 L2217.13 137.566 L2225.4 135.899 L2230.07 135.899 L2230.07 166.524 L2237.71 166.524 L2237.71 170.459 L2217.8 170.459 L2217.8 166.524 Z" fill="#000000" fill-rule="evenodd" fill-opacity="1" /></svg>
