<?xml version="1.0" encoding="utf-8"?>
<svg xmlns="http://www.w3.org/2000/svg" xmlns:xlink="http://www.w3.org/1999/xlink" width="600" height="400" viewBox="0 0 2400 1600">
<defs>
  <clipPath id="clip110">
    <rect x="0" y="0" width="2400" height="1600"/>
  </clipPath>
</defs>
<path clip-path="url(#clip110)" d="
M0 1600 L2400 1600 L2400 0 L0 0  Z
  " fill="#ffffff" fill-rule="evenodd" fill-opacity="1"/>
<defs>
  <clipPath id="clip111">
    <rect x="480" y="0" width="1681" height="1600"/>
  </clipPath>
</defs>
<path clip-path="url(#clip110)" d="
M202.945 1410.9 L2352.76 1410.9 L2352.76 47.2441 L202.945 47.2441  Z
  " fill="#ffffff" fill-rule="evenodd" fill-opacity="1"/>
<defs>
  <clipPath id="clip112">
    <rect x="202" y="47" width="2151" height="1365"/>
  </clipPath>
</defs>
<polyline clip-path="url(#clip112)" style="stroke:#000000; stroke-width:2; stroke-opacity:0.1; fill:none" points="
  263.789,1410.9 263.789,47.2441 
  "/>
<polyline clip-path="url(#clip112)" style="stroke:#000000; stroke-width:2; stroke-opacity:0.1; fill:none" points="
  669.413,1410.9 669.413,47.2441 
  "/>
<polyline clip-path="url(#clip112)" style="stroke:#000000; stroke-width:2; stroke-opacity:0.1; fill:none" points="
  1075.04,1410.9 1075.04,47.2441 
  "/>
<polyline clip-path="url(#clip112)" style="stroke:#000000; stroke-width:2; stroke-opacity:0.1; fill:none" points="
  1480.66,1410.9 1480.66,47.2441 
  "/>
<polyline clip-path="url(#clip112)" style="stroke:#000000; stroke-width:2; stroke-opacity:0.1; fill:none" points="
  1886.29,1410.9 1886.29,47.2441 
  "/>
<polyline clip-path="url(#clip112)" style="stroke:#000000; stroke-width:2; stroke-opacity:0.1; fill:none" points="
  2291.91,1410.9 2291.91,47.2441 
  "/>
<polyline clip-path="url(#clip110)" style="stroke:#000000; stroke-width:4; stroke-opacity:1; fill:none" points="
  202.945,1410.9 2352.76,1410.9 
  "/>
<polyline clip-path="url(#clip110)" style="stroke:#000000; stroke-width:4; stroke-opacity:1; fill:none" points="
  263.789,1410.9 263.789,1394.53 
  "/>
<polyline clip-path="url(#clip110)" style="stroke:#000000; stroke-width:4; stroke-opacity:1; fill:none" points="
  669.413,1410.9 669.413,1394.53 
  "/>
<polyline clip-path="url(#clip110)" style="stroke:#000000; stroke-width:4; stroke-opacity:1; fill:none" points="
  1075.04,1410.9 1075.04,1394.53 
  "/>
<polyline clip-path="url(#clip110)" style="stroke:#000000; stroke-width:4; stroke-opacity:1; fill:none" points="
  1480.66,1410.9 1480.66,1394.53 
  "/>
<polyline clip-path="url(#clip110)" style="stroke:#000000; stroke-width:4; stroke-opacity:1; fill:none" points="
  1886.29,1410.9 1886.29,1394.53 
  "/>
<polyline clip-path="url(#clip110)" style="stroke:#000000; stroke-width:4; stroke-opacity:1; fill:none" points="
  2291.91,1410.9 2291.91,1394.53 
  "/>
<path clip-path="url(#clip110)" d="M 0 0 M202.55 1489.17 L210.189 1489.17 L210.189 1462.8 L201.879 1464.47 L201.879 1460.21 L210.142 1458.54 L214.818 1458.54 L214.818 1489.17 L222.457 1489.17 L222.457 1493.1 L202.55 1493.1 L202.55 1489.17 Z" fill="#000000" fill-rule="evenodd" fill-opacity="1" /><path clip-path="url(#clip110)" d="M 0 0 M237.527 1461.62 Q233.916 1461.62 232.087 1465.19 Q230.281 1468.73 230.281 1475.86 Q230.281 1482.97 232.087 1486.53 Q233.916 1490.07 237.527 1490.07 Q241.161 1490.07 242.966 1486.53 Q244.795 1482.97 244.795 1475.86 Q244.795 1468.73 242.966 1465.19 Q241.161 1461.62 237.527 1461.62 M237.527 1457.92 Q243.337 1457.92 246.392 1462.53 Q249.471 1467.11 249.471 1475.86 Q249.471 1484.59 246.392 1489.19 Q243.337 1493.78 237.527 1493.78 Q231.716 1493.78 228.638 1489.19 Q225.582 1484.59 225.582 1475.86 Q225.582 1467.11 228.638 1462.53 Q231.716 1457.92 237.527 1457.92 Z" fill="#000000" fill-rule="evenodd" fill-opacity="1" /><path clip-path="url(#clip110)" d="M 0 0 M249.471 1452.02 L273.583 1452.02 L273.583 1455.22 L249.471 1455.22 L249.471 1452.02 Z" fill="#000000" fill-rule="evenodd" fill-opacity="1" /><path clip-path="url(#clip110)" d="M 0 0 M286.297 1450.14 Q283.739 1450.14 282.234 1451.89 Q280.748 1453.64 280.748 1456.68 Q280.748 1459.71 282.234 1461.48 Q283.739 1463.23 286.297 1463.23 Q288.854 1463.23 290.34 1461.48 Q291.845 1459.71 291.845 1456.68 Q291.845 1453.64 290.34 1451.89 Q288.854 1450.14 286.297 1450.14 M293.839 1438.23 L293.839 1441.69 Q292.409 1441.02 290.942 1440.66 Q289.494 1440.3 288.065 1440.3 Q284.303 1440.3 282.309 1442.84 Q280.335 1445.38 280.052 1450.52 Q281.162 1448.88 282.836 1448.01 Q284.51 1447.13 286.522 1447.13 Q290.754 1447.13 293.199 1449.71 Q295.663 1452.26 295.663 1456.68 Q295.663 1461.01 293.105 1463.62 Q290.547 1466.24 286.297 1466.24 Q281.425 1466.24 278.849 1462.51 Q276.272 1458.77 276.272 1451.68 Q276.272 1445.02 279.432 1441.07 Q282.591 1437.11 287.914 1437.11 Q289.343 1437.11 290.792 1437.39 Q292.259 1437.67 293.839 1438.23 Z" fill="#000000" fill-rule="evenodd" fill-opacity="1" /><path clip-path="url(#clip110)" d="M 0 0 M299.782 1460.92 L303.75 1460.92 L303.75 1465.69 L299.782 1465.69 L299.782 1460.92 Z" fill="#000000" fill-rule="evenodd" fill-opacity="1" /><path clip-path="url(#clip110)" d="M 0 0 M315.994 1440.11 Q313.06 1440.11 311.574 1443.01 Q310.107 1445.89 310.107 1451.68 Q310.107 1457.46 311.574 1460.35 Q313.06 1463.23 315.994 1463.23 Q318.947 1463.23 320.414 1460.35 Q321.9 1457.46 321.9 1451.68 Q321.9 1445.89 320.414 1443.01 Q318.947 1440.11 315.994 1440.11 M315.994 1437.11 Q320.715 1437.11 323.197 1440.85 Q325.699 1444.57 325.699 1451.68 Q325.699 1458.77 323.197 1462.51 Q320.715 1466.24 315.994 1466.24 Q311.273 1466.24 308.772 1462.51 Q306.289 1458.77 306.289 1451.68 Q306.289 1444.57 308.772 1440.85 Q311.273 1437.11 315.994 1437.11 Z" fill="#000000" fill-rule="evenodd" fill-opacity="1" /><path clip-path="url(#clip110)" d="M 0 0 M608.72 1489.17 L616.359 1489.17 L616.359 1462.8 L608.049 1464.47 L608.049 1460.21 L616.313 1458.54 L620.989 1458.54 L620.989 1489.17 L628.627 1489.17 L628.627 1493.1 L608.72 1493.1 L608.72 1489.17 Z" fill="#000000" fill-rule="evenodd" fill-opacity="1" /><path clip-path="url(#clip110)" d="M 0 0 M643.697 1461.62 Q640.086 1461.62 638.257 1465.19 Q636.451 1468.73 636.451 1475.86 Q636.451 1482.97 638.257 1486.53 Q640.086 1490.07 643.697 1490.07 Q647.331 1490.07 649.137 1486.53 Q650.965 1482.97 650.965 1475.86 Q650.965 1468.73 649.137 1465.19 Q647.331 1461.62 643.697 1461.62 M643.697 1457.92 Q649.507 1457.92 652.562 1462.53 Q655.641 1467.11 655.641 1475.86 Q655.641 1484.59 652.562 1489.19 Q649.507 1493.78 643.697 1493.78 Q637.887 1493.78 634.808 1489.19 Q631.752 1484.59 631.752 1475.86 Q631.752 1467.11 634.808 1462.53 Q637.887 1457.92 643.697 1457.92 Z" fill="#000000" fill-rule="evenodd" fill-opacity="1" /><path clip-path="url(#clip110)" d="M 0 0 M655.641 1452.02 L679.753 1452.02 L679.753 1455.22 L655.641 1455.22 L655.641 1452.02 Z" fill="#000000" fill-rule="evenodd" fill-opacity="1" /><path clip-path="url(#clip110)" d="M 0 0 M683.909 1437.61 L698.824 1437.61 L698.824 1440.81 L687.389 1440.81 L687.389 1447.69 Q688.216 1447.41 689.044 1447.28 Q689.871 1447.13 690.699 1447.13 Q695.401 1447.13 698.147 1449.71 Q700.893 1452.28 700.893 1456.68 Q700.893 1461.22 698.071 1463.74 Q695.25 1466.24 690.116 1466.24 Q688.348 1466.24 686.505 1465.94 Q684.68 1465.64 682.724 1465.04 L682.724 1461.22 Q684.417 1462.14 686.223 1462.59 Q688.028 1463.04 690.041 1463.04 Q693.294 1463.04 695.194 1461.33 Q697.093 1459.62 697.093 1456.68 Q697.093 1453.75 695.194 1452.04 Q693.294 1450.33 690.041 1450.33 Q688.517 1450.33 686.994 1450.67 Q685.489 1451 683.909 1451.72 L683.909 1437.61 Z" fill="#000000" fill-rule="evenodd" fill-opacity="1" /><path clip-path="url(#clip110)" d="M 0 0 M705.011 1460.92 L708.98 1460.92 L708.98 1465.69 L705.011 1465.69 L705.011 1460.92 Z" fill="#000000" fill-rule="evenodd" fill-opacity="1" /><path clip-path="url(#clip110)" d="M 0 0 M713.212 1465.11 L713.212 1461.65 Q714.641 1462.33 716.108 1462.68 Q717.575 1463.04 718.986 1463.04 Q722.747 1463.04 724.722 1460.52 Q726.716 1457.98 726.998 1452.83 Q725.907 1454.45 724.233 1455.31 Q722.559 1456.18 720.528 1456.18 Q716.315 1456.18 713.851 1453.64 Q711.406 1451.08 711.406 1446.66 Q711.406 1442.33 713.964 1439.72 Q716.522 1437.11 720.772 1437.11 Q725.644 1437.11 728.201 1440.85 Q730.778 1444.57 730.778 1451.68 Q730.778 1458.32 727.618 1462.29 Q724.478 1466.24 719.155 1466.24 Q717.726 1466.24 716.259 1465.96 Q714.792 1465.67 713.212 1465.11 M720.772 1453.21 Q723.33 1453.21 724.816 1451.46 Q726.321 1449.71 726.321 1446.66 Q726.321 1443.63 724.816 1441.88 Q723.33 1440.11 720.772 1440.11 Q718.215 1440.11 716.71 1441.88 Q715.224 1443.63 715.224 1446.66 Q715.224 1449.71 716.71 1451.46 Q718.215 1453.21 720.772 1453.21 Z" fill="#000000" fill-rule="evenodd" fill-opacity="1" /><path clip-path="url(#clip110)" d="M 0 0 M1014.31 1489.17 L1021.95 1489.17 L1021.95 1462.8 L1013.64 1464.47 L1013.64 1460.21 L1021.9 1458.54 L1026.58 1458.54 L1026.58 1489.17 L1034.21 1489.17 L1034.21 1493.1 L1014.31 1493.1 L1014.31 1489.17 Z" fill="#000000" fill-rule="evenodd" fill-opacity="1" /><path clip-path="url(#clip110)" d="M 0 0 M1049.28 1461.62 Q1045.67 1461.62 1043.84 1465.19 Q1042.04 1468.73 1042.04 1475.86 Q1042.04 1482.97 1043.84 1486.53 Q1045.67 1490.07 1049.28 1490.07 Q1052.92 1490.07 1054.72 1486.53 Q1056.55 1482.97 1056.55 1475.86 Q1056.55 1468.73 1054.72 1465.19 Q1052.92 1461.62 1049.28 1461.62 M1049.28 1457.92 Q1055.09 1457.92 1058.15 1462.53 Q1061.23 1467.11 1061.23 1475.86 Q1061.23 1484.59 1058.15 1489.19 Q1055.09 1493.78 1049.28 1493.78 Q1043.47 1493.78 1040.39 1489.19 Q1037.34 1484.59 1037.34 1475.86 Q1037.34 1467.11 1040.39 1462.53 Q1043.47 1457.92 1049.28 1457.92 Z" fill="#000000" fill-rule="evenodd" fill-opacity="1" /><path clip-path="url(#clip110)" d="M 0 0 M1061.23 1452.02 L1085.34 1452.02 L1085.34 1455.22 L1061.23 1455.22 L1061.23 1452.02 Z" fill="#000000" fill-rule="evenodd" fill-opacity="1" /><path clip-path="url(#clip110)" d="M 0 0 M1089.5 1437.61 L1104.41 1437.61 L1104.41 1440.81 L1092.98 1440.81 L1092.98 1447.69 Q1093.8 1447.41 1094.63 1447.28 Q1095.46 1447.13 1096.29 1447.13 Q1100.99 1447.13 1103.73 1449.71 Q1106.48 1452.28 1106.48 1456.68 Q1106.48 1461.22 1103.66 1463.74 Q1100.84 1466.24 1095.7 1466.24 Q1093.93 1466.24 1092.09 1465.94 Q1090.27 1465.64 1088.31 1465.04 L1088.31 1461.22 Q1090 1462.14 1091.81 1462.59 Q1093.62 1463.04 1095.63 1463.04 Q1098.88 1463.04 1100.78 1461.33 Q1102.68 1459.62 1102.68 1456.68 Q1102.68 1453.75 1100.78 1452.04 Q1098.88 1450.33 1095.63 1450.33 Q1094.1 1450.33 1092.58 1450.67 Q1091.08 1451 1089.5 1451.72 L1089.5 1437.61 Z" fill="#000000" fill-rule="evenodd" fill-opacity="1" /><path clip-path="url(#clip110)" d="M 0 0 M1110.6 1460.92 L1114.57 1460.92 L1114.57 1465.69 L1110.6 1465.69 L1110.6 1460.92 Z" fill="#000000" fill-rule="evenodd" fill-opacity="1" /><path clip-path="url(#clip110)" d="M 0 0 M1126.81 1452.36 Q1124.1 1452.36 1122.54 1453.81 Q1121 1455.26 1121 1457.79 Q1121 1460.33 1122.54 1461.78 Q1124.1 1463.23 1126.81 1463.23 Q1129.52 1463.23 1131.08 1461.78 Q1132.64 1460.31 1132.64 1457.79 Q1132.64 1455.26 1131.08 1453.81 Q1129.54 1452.36 1126.81 1452.36 M1123.01 1450.74 Q1120.57 1450.14 1119.19 1448.47 Q1117.84 1446.79 1117.84 1444.38 Q1117.84 1441.02 1120.23 1439.06 Q1122.64 1437.11 1126.81 1437.11 Q1131 1437.11 1133.39 1439.06 Q1135.78 1441.02 1135.78 1444.38 Q1135.78 1446.79 1134.41 1448.47 Q1133.06 1450.14 1130.63 1450.74 Q1133.37 1451.38 1134.9 1453.24 Q1136.44 1455.1 1136.44 1457.79 Q1136.44 1461.88 1133.94 1464.06 Q1131.46 1466.24 1126.81 1466.24 Q1122.17 1466.24 1119.66 1464.06 Q1117.18 1461.88 1117.18 1457.79 Q1117.18 1455.1 1118.72 1453.24 Q1120.27 1451.38 1123.01 1450.74 M1121.62 1444.74 Q1121.62 1446.92 1122.97 1448.15 Q1124.35 1449.37 1126.81 1449.37 Q1129.26 1449.37 1130.63 1448.15 Q1132.02 1446.92 1132.02 1444.74 Q1132.02 1442.56 1130.63 1441.34 Q1129.26 1440.11 1126.81 1440.11 Q1124.35 1440.11 1122.97 1441.34 Q1121.62 1442.56 1121.62 1444.74 Z" fill="#000000" fill-rule="evenodd" fill-opacity="1" /><path clip-path="url(#clip110)" d="M 0 0 M1420.26 1489.17 L1427.9 1489.17 L1427.9 1462.8 L1419.59 1464.47 L1419.59 1460.21 L1427.85 1458.54 L1432.53 1458.54 L1432.53 1489.17 L1440.17 1489.17 L1440.17 1493.1 L1420.26 1493.1 L1420.26 1489.17 Z" fill="#000000" fill-rule="evenodd" fill-opacity="1" /><path clip-path="url(#clip110)" d="M 0 0 M1455.24 1461.62 Q1451.63 1461.62 1449.8 1465.19 Q1447.99 1468.73 1447.99 1475.86 Q1447.99 1482.97 1449.8 1486.53 Q1451.63 1490.07 1455.24 1490.07 Q1458.87 1490.07 1460.68 1486.53 Q1462.51 1482.97 1462.51 1475.86 Q1462.51 1468.73 1460.68 1465.19 Q1458.87 1461.62 1455.24 1461.62 M1455.24 1457.92 Q1461.05 1457.92 1464.1 1462.53 Q1467.18 1467.11 1467.18 1475.86 Q1467.18 1484.59 1464.1 1489.19 Q1461.05 1493.78 1455.24 1493.78 Q1449.43 1493.78 1446.35 1489.19 Q1443.29 1484.59 1443.29 1475.86 Q1443.29 1467.11 1446.35 1462.53 Q1449.43 1457.92 1455.24 1457.92 Z" fill="#000000" fill-rule="evenodd" fill-opacity="1" /><path clip-path="url(#clip110)" d="M 0 0 M1467.18 1452.02 L1491.29 1452.02 L1491.29 1455.22 L1467.18 1455.22 L1467.18 1452.02 Z" fill="#000000" fill-rule="evenodd" fill-opacity="1" /><path clip-path="url(#clip110)" d="M 0 0 M1495.45 1437.61 L1510.36 1437.61 L1510.36 1440.81 L1498.93 1440.81 L1498.93 1447.69 Q1499.76 1447.41 1500.58 1447.28 Q1501.41 1447.13 1502.24 1447.13 Q1506.94 1447.13 1509.69 1449.71 Q1512.43 1452.28 1512.43 1456.68 Q1512.43 1461.22 1509.61 1463.74 Q1506.79 1466.24 1501.66 1466.24 Q1499.89 1466.24 1498.05 1465.94 Q1496.22 1465.64 1494.27 1465.04 L1494.27 1461.22 Q1495.96 1462.14 1497.76 1462.59 Q1499.57 1463.04 1501.58 1463.04 Q1504.84 1463.04 1506.73 1461.33 Q1508.63 1459.62 1508.63 1456.68 Q1508.63 1453.75 1506.73 1452.04 Q1504.84 1450.33 1501.58 1450.33 Q1500.06 1450.33 1498.53 1450.67 Q1497.03 1451 1495.45 1451.72 L1495.45 1437.61 Z" fill="#000000" fill-rule="evenodd" fill-opacity="1" /><path clip-path="url(#clip110)" d="M 0 0 M1516.55 1460.92 L1520.52 1460.92 L1520.52 1465.69 L1516.55 1465.69 L1516.55 1460.92 Z" fill="#000000" fill-rule="evenodd" fill-opacity="1" /><path clip-path="url(#clip110)" d="M 0 0 M1523.68 1437.61 L1541.74 1437.61 L1541.74 1439.23 L1531.54 1465.69 L1527.57 1465.69 L1537.17 1440.81 L1523.68 1440.81 L1523.68 1437.61 Z" fill="#000000" fill-rule="evenodd" fill-opacity="1" /><path clip-path="url(#clip110)" d="M 0 0 M1825.45 1489.17 L1833.09 1489.17 L1833.09 1462.8 L1824.78 1464.47 L1824.78 1460.21 L1833.05 1458.54 L1837.72 1458.54 L1837.72 1489.17 L1845.36 1489.17 L1845.36 1493.1 L1825.45 1493.1 L1825.45 1489.17 Z" fill="#000000" fill-rule="evenodd" fill-opacity="1" /><path clip-path="url(#clip110)" d="M 0 0 M1860.43 1461.62 Q1856.82 1461.62 1854.99 1465.19 Q1853.18 1468.73 1853.18 1475.86 Q1853.18 1482.97 1854.99 1486.53 Q1856.82 1490.07 1860.43 1490.07 Q1864.06 1490.07 1865.87 1486.53 Q1867.7 1482.97 1867.7 1475.86 Q1867.7 1468.73 1865.87 1465.19 Q1864.06 1461.62 1860.43 1461.62 M1860.43 1457.92 Q1866.24 1457.92 1869.3 1462.53 Q1872.37 1467.11 1872.37 1475.86 Q1872.37 1484.59 1869.3 1489.19 Q1866.24 1493.78 1860.43 1493.78 Q1854.62 1493.78 1851.54 1489.19 Q1848.49 1484.59 1848.49 1475.86 Q1848.49 1467.11 1851.54 1462.53 Q1854.62 1457.92 1860.43 1457.92 Z" fill="#000000" fill-rule="evenodd" fill-opacity="1" /><path clip-path="url(#clip110)" d="M 0 0 M1872.37 1452.02 L1896.49 1452.02 L1896.49 1455.22 L1872.37 1455.22 L1872.37 1452.02 Z" fill="#000000" fill-rule="evenodd" fill-opacity="1" /><path clip-path="url(#clip110)" d="M 0 0 M1900.64 1437.61 L1915.56 1437.61 L1915.56 1440.81 L1904.12 1440.81 L1904.12 1447.69 Q1904.95 1447.41 1905.78 1447.28 Q1906.6 1447.13 1907.43 1447.13 Q1912.13 1447.13 1914.88 1449.71 Q1917.63 1452.28 1917.63 1456.68 Q1917.63 1461.22 1914.8 1463.74 Q1911.98 1466.24 1906.85 1466.24 Q1905.08 1466.24 1903.24 1465.94 Q1901.41 1465.64 1899.46 1465.04 L1899.46 1461.22 Q1901.15 1462.14 1902.96 1462.59 Q1904.76 1463.04 1906.77 1463.04 Q1910.03 1463.04 1911.93 1461.33 Q1913.83 1459.62 1913.83 1456.68 Q1913.83 1453.75 1911.93 1452.04 Q1910.03 1450.33 1906.77 1450.33 Q1905.25 1450.33 1903.73 1450.67 Q1902.22 1451 1900.64 1451.72 L1900.64 1437.61 Z" fill="#000000" fill-rule="evenodd" fill-opacity="1" /><path clip-path="url(#clip110)" d="M 0 0 M1921.74 1460.92 L1925.71 1460.92 L1925.71 1465.69 L1921.74 1465.69 L1921.74 1460.92 Z" fill="#000000" fill-rule="evenodd" fill-opacity="1" /><path clip-path="url(#clip110)" d="M 0 0 M1938.43 1450.14 Q1935.87 1450.14 1934.36 1451.89 Q1932.88 1453.64 1932.88 1456.68 Q1932.88 1459.71 1934.36 1461.48 Q1935.87 1463.23 1938.43 1463.23 Q1940.98 1463.23 1942.47 1461.48 Q1943.98 1459.71 1943.98 1456.68 Q1943.98 1453.64 1942.47 1451.89 Q1940.98 1450.14 1938.43 1450.14 M1945.97 1438.23 L1945.97 1441.69 Q1944.54 1441.02 1943.07 1440.66 Q1941.62 1440.3 1940.19 1440.3 Q1936.43 1440.3 1934.44 1442.84 Q1932.46 1445.38 1932.18 1450.52 Q1933.29 1448.88 1934.97 1448.01 Q1936.64 1447.13 1938.65 1447.13 Q1942.88 1447.13 1945.33 1449.71 Q1947.79 1452.26 1947.79 1456.68 Q1947.79 1461.01 1945.24 1463.62 Q1942.68 1466.24 1938.43 1466.24 Q1933.56 1466.24 1930.98 1462.51 Q1928.4 1458.77 1928.4 1451.68 Q1928.4 1445.02 1931.56 1441.07 Q1934.72 1437.11 1940.04 1437.11 Q1941.47 1437.11 1942.92 1437.39 Q1944.39 1437.67 1945.97 1438.23 Z" fill="#000000" fill-rule="evenodd" fill-opacity="1" /><path clip-path="url(#clip110)" d="M 0 0 M2231.55 1489.17 L2239.19 1489.17 L2239.19 1462.8 L2230.88 1464.47 L2230.88 1460.21 L2239.14 1458.54 L2243.82 1458.54 L2243.82 1489.17 L2251.46 1489.17 L2251.46 1493.1 L2231.55 1493.1 L2231.55 1489.17 Z" fill="#000000" fill-rule="evenodd" fill-opacity="1" /><path clip-path="url(#clip110)" d="M 0 0 M2266.52 1461.62 Q2262.91 1461.62 2261.08 1465.19 Q2259.28 1468.73 2259.28 1475.86 Q2259.28 1482.97 2261.08 1486.53 Q2262.91 1490.07 2266.52 1490.07 Q2270.16 1490.07 2271.96 1486.53 Q2273.79 1482.97 2273.79 1475.86 Q2273.79 1468.73 2271.96 1465.19 Q2270.16 1461.62 2266.52 1461.62 M2266.52 1457.92 Q2272.33 1457.92 2275.39 1462.53 Q2278.47 1467.11 2278.47 1475.86 Q2278.47 1484.59 2275.39 1489.19 Q2272.33 1493.78 2266.52 1493.78 Q2260.71 1493.78 2257.64 1489.19 Q2254.58 1484.59 2254.58 1475.86 Q2254.58 1467.11 2257.64 1462.53 Q2260.71 1457.92 2266.52 1457.92 Z" fill="#000000" fill-rule="evenodd" fill-opacity="1" /><path clip-path="url(#clip110)" d="M 0 0 M2278.47 1452.02 L2302.58 1452.02 L2302.58 1455.22 L2278.47 1455.22 L2278.47 1452.02 Z" fill="#000000" fill-rule="evenodd" fill-opacity="1" /><path clip-path="url(#clip110)" d="M 0 0 M2306.74 1437.61 L2321.65 1437.61 L2321.65 1440.81 L2310.22 1440.81 L2310.22 1447.69 Q2311.04 1447.41 2311.87 1447.28 Q2312.7 1447.13 2313.53 1447.13 Q2318.23 1447.13 2320.97 1449.71 Q2323.72 1452.28 2323.72 1456.68 Q2323.72 1461.22 2320.9 1463.74 Q2318.08 1466.24 2312.94 1466.24 Q2311.18 1466.24 2309.33 1465.94 Q2307.51 1465.64 2305.55 1465.04 L2305.55 1461.22 Q2307.24 1462.14 2309.05 1462.59 Q2310.86 1463.04 2312.87 1463.04 Q2316.12 1463.04 2318.02 1461.33 Q2319.92 1459.62 2319.92 1456.68 Q2319.92 1453.75 2318.02 1452.04 Q2316.12 1450.33 2312.87 1450.33 Q2311.34 1450.33 2309.82 1450.67 Q2308.32 1451 2306.74 1451.72 L2306.74 1437.61 Z" fill="#000000" fill-rule="evenodd" fill-opacity="1" /><path clip-path="url(#clip110)" d="M 0 0 M2327.84 1460.92 L2331.81 1460.92 L2331.81 1465.69 L2327.84 1465.69 L2327.84 1460.92 Z" fill="#000000" fill-rule="evenodd" fill-opacity="1" /><path clip-path="url(#clip110)" d="M 0 0 M2335.96 1437.61 L2350.88 1437.61 L2350.88 1440.81 L2339.44 1440.81 L2339.44 1447.69 Q2340.27 1447.41 2341.1 1447.28 Q2341.93 1447.13 2342.75 1447.13 Q2347.46 1447.13 2350.2 1449.71 Q2352.95 1452.28 2352.95 1456.68 Q2352.95 1461.22 2350.13 1463.74 Q2347.31 1466.24 2342.17 1466.24 Q2340.4 1466.24 2338.56 1465.94 Q2336.74 1465.64 2334.78 1465.04 L2334.78 1461.22 Q2336.47 1462.14 2338.28 1462.59 Q2340.08 1463.04 2342.1 1463.04 Q2345.35 1463.04 2347.25 1461.33 Q2349.15 1459.62 2349.15 1456.68 Q2349.15 1453.75 2347.25 1452.04 Q2345.35 1450.33 2342.1 1450.33 Q2340.57 1450.33 2339.05 1450.67 Q2337.54 1451 2335.96 1451.72 L2335.96 1437.61 Z" fill="#000000" fill-rule="evenodd" fill-opacity="1" /><path clip-path="url(#clip110)" d="M 0 0 M1170.62 1526.54 L1176.83 1526.54 L1187.97 1556.46 L1199.11 1526.54 L1205.31 1526.54 L1191.95 1562.19 L1183.99 1562.19 L1170.62 1526.54 Z" fill="#000000" fill-rule="evenodd" fill-opacity="1" /><path clip-path="url(#clip110)" d="M 0 0 M1238.54 1573.01 L1238.54 1577.56 L1204.68 1577.56 L1204.68 1573.01 L1238.54 1573.01 Z" fill="#000000" fill-rule="evenodd" fill-opacity="1" /><path clip-path="url(#clip110)" d="M 0 0 M1258.5 1530.64 Q1253.79 1530.64 1251.05 1534.34 Q1248.31 1538 1248.31 1544.39 Q1248.31 1550.79 1251.02 1554.48 Q1253.76 1558.14 1258.5 1558.14 Q1263.18 1558.14 1265.91 1554.45 Q1268.65 1550.76 1268.65 1544.39 Q1268.65 1538.06 1265.91 1534.37 Q1263.18 1530.64 1258.5 1530.64 M1258.5 1525.68 Q1266.14 1525.68 1270.5 1530.64 Q1274.86 1535.61 1274.86 1544.39 Q1274.86 1553.15 1270.5 1558.14 Q1266.14 1563.11 1258.5 1563.11 Q1250.83 1563.11 1246.47 1558.14 Q1242.14 1553.15 1242.14 1544.39 Q1242.14 1535.61 1246.47 1530.64 Q1250.83 1525.68 1258.5 1525.68 Z" fill="#000000" fill-rule="evenodd" fill-opacity="1" /><path clip-path="url(#clip110)" d="M 0 0 M1286.67 1556.84 L1286.67 1575.74 L1280.78 1575.74 L1280.78 1526.54 L1286.67 1526.54 L1286.67 1531.95 Q1288.51 1528.77 1291.31 1527.24 Q1294.15 1525.68 1298.06 1525.68 Q1304.55 1525.68 1308.6 1530.83 Q1312.67 1535.99 1312.67 1544.39 Q1312.67 1552.8 1308.6 1557.95 Q1304.55 1563.11 1298.06 1563.11 Q1294.15 1563.11 1291.31 1561.58 Q1288.51 1560.02 1286.67 1556.84 M1306.59 1544.39 Q1306.59 1537.93 1303.92 1534.27 Q1301.28 1530.58 1296.63 1530.58 Q1291.98 1530.58 1289.31 1534.27 Q1286.67 1537.93 1286.67 1544.39 Q1286.67 1550.85 1289.31 1554.55 Q1291.98 1558.21 1296.63 1558.21 Q1301.28 1558.21 1303.92 1554.55 Q1306.59 1550.85 1306.59 1544.39 Z" fill="#000000" fill-rule="evenodd" fill-opacity="1" /><path clip-path="url(#clip110)" d="M 0 0 M1349.31 1542.9 L1349.31 1545.76 L1322.38 1545.76 Q1322.76 1551.81 1326.01 1554.99 Q1329.29 1558.14 1335.11 1558.14 Q1338.48 1558.14 1341.63 1557.32 Q1344.82 1556.49 1347.94 1554.83 L1347.94 1560.37 Q1344.79 1561.71 1341.48 1562.41 Q1338.17 1563.11 1334.76 1563.11 Q1326.23 1563.11 1321.23 1558.14 Q1316.27 1553.18 1316.27 1544.71 Q1316.27 1535.96 1320.98 1530.83 Q1325.72 1525.68 1333.74 1525.68 Q1340.93 1525.68 1345.1 1530.33 Q1349.31 1534.94 1349.31 1542.9 M1343.45 1541.18 Q1343.39 1536.37 1340.74 1533.51 Q1338.13 1530.64 1333.81 1530.64 Q1328.9 1530.64 1325.94 1533.41 Q1323.02 1536.18 1322.57 1541.21 L1343.45 1541.18 Z" fill="#000000" fill-rule="evenodd" fill-opacity="1" /><path clip-path="url(#clip110)" d="M 0 0 M1385.08 1540.67 L1385.08 1562.19 L1379.22 1562.19 L1379.22 1540.86 Q1379.22 1535.8 1377.25 1533.29 Q1375.28 1530.77 1371.33 1530.77 Q1366.59 1530.77 1363.85 1533.79 Q1361.11 1536.82 1361.11 1542.04 L1361.11 1562.19 L1355.23 1562.19 L1355.23 1526.54 L1361.11 1526.54 L1361.11 1532.08 Q1363.21 1528.86 1366.05 1527.27 Q1368.91 1525.68 1372.64 1525.68 Q1378.78 1525.68 1381.93 1529.5 Q1385.08 1533.29 1385.08 1540.67 Z" fill="#000000" fill-rule="evenodd" fill-opacity="1" /><polyline clip-path="url(#clip112)" style="stroke:#000000; stroke-width:2; stroke-opacity:0.1; fill:none" points="
  202.945,1284.85 2352.76,1284.85 
  "/>
<polyline clip-path="url(#clip112)" style="stroke:#000000; stroke-width:2; stroke-opacity:0.1; fill:none" points="
  202.945,947.521 2352.76,947.521 
  "/>
<polyline clip-path="url(#clip112)" style="stroke:#000000; stroke-width:2; stroke-opacity:0.1; fill:none" points="
  202.945,610.197 2352.76,610.197 
  "/>
<polyline clip-path="url(#clip112)" style="stroke:#000000; stroke-width:2; stroke-opacity:0.1; fill:none" points="
  202.945,272.872 2352.76,272.872 
  "/>
<polyline clip-path="url(#clip110)" style="stroke:#000000; stroke-width:4; stroke-opacity:1; fill:none" points="
  202.945,1410.9 202.945,47.2441 
  "/>
<polyline clip-path="url(#clip110)" style="stroke:#000000; stroke-width:4; stroke-opacity:1; fill:none" points="
  202.945,1284.85 228.743,1284.85 
  "/>
<polyline clip-path="url(#clip110)" style="stroke:#000000; stroke-width:4; stroke-opacity:1; fill:none" points="
  202.945,947.521 228.743,947.521 
  "/>
<polyline clip-path="url(#clip110)" style="stroke:#000000; stroke-width:4; stroke-opacity:1; fill:none" points="
  202.945,610.197 228.743,610.197 
  "/>
<polyline clip-path="url(#clip110)" style="stroke:#000000; stroke-width:4; stroke-opacity:1; fill:none" points="
  202.945,272.872 228.743,272.872 
  "/>
<path clip-path="url(#clip110)" d="M 0 0 M129.862 1271.64 L118.056 1290.09 L129.862 1290.09 L129.862 1271.64 M128.635 1267.57 L134.515 1267.57 L134.515 1290.09 L139.445 1290.09 L139.445 1293.98 L134.515 1293.98 L134.515 1302.13 L129.862 1302.13 L129.862 1293.98 L114.26 1293.98 L114.26 1289.46 L128.635 1267.57 Z" fill="#000000" fill-rule="evenodd" fill-opacity="1" /><path clip-path="url(#clip110)" d="M 0 0 M157.362 1271.64 L145.556 1290.09 L157.362 1290.09 L157.362 1271.64 M156.135 1267.57 L162.015 1267.57 L162.015 1290.09 L166.945 1290.09 L166.945 1293.98 L162.015 1293.98 L162.015 1302.13 L157.362 1302.13 L157.362 1293.98 L141.76 1293.98 L141.76 1289.46 L156.135 1267.57 Z" fill="#000000" fill-rule="evenodd" fill-opacity="1" /><path clip-path="url(#clip110)" d="M 0 0 M130.186 934.315 L118.381 952.764 L130.186 952.764 L130.186 934.315 M128.959 930.241 L134.839 930.241 L134.839 952.764 L139.769 952.764 L139.769 956.653 L134.839 956.653 L134.839 964.801 L130.186 964.801 L130.186 956.653 L114.584 956.653 L114.584 952.139 L128.959 930.241 Z" fill="#000000" fill-rule="evenodd" fill-opacity="1" /><path clip-path="url(#clip110)" d="M 0 0 M155.417 945.658 Q152.269 945.658 150.417 947.811 Q148.589 949.963 148.589 953.713 Q148.589 957.44 150.417 959.616 Q152.269 961.769 155.417 961.769 Q158.565 961.769 160.394 959.616 Q162.246 957.44 162.246 953.713 Q162.246 949.963 160.394 947.811 Q158.565 945.658 155.417 945.658 M164.7 931.005 L164.7 935.264 Q162.94 934.431 161.135 933.991 Q159.353 933.551 157.593 933.551 Q152.964 933.551 150.51 936.676 Q148.079 939.801 147.732 946.121 Q149.098 944.107 151.158 943.042 Q153.218 941.954 155.695 941.954 Q160.903 941.954 163.913 945.125 Q166.945 948.274 166.945 953.713 Q166.945 959.037 163.797 962.255 Q160.649 965.473 155.417 965.473 Q149.422 965.473 146.251 960.889 Q143.079 956.283 143.079 947.556 Q143.079 939.362 146.968 934.5 Q150.857 929.616 157.408 929.616 Q159.167 929.616 160.95 929.963 Q162.755 930.311 164.7 931.005 Z" fill="#000000" fill-rule="evenodd" fill-opacity="1" /><path clip-path="url(#clip110)" d="M 0 0 M130.441 596.991 L118.635 615.44 L130.441 615.44 L130.441 596.991 M129.214 592.917 L135.093 592.917 L135.093 615.44 L140.024 615.44 L140.024 619.328 L135.093 619.328 L135.093 627.477 L130.441 627.477 L130.441 619.328 L114.839 619.328 L114.839 614.815 L129.214 592.917 Z" fill="#000000" fill-rule="evenodd" fill-opacity="1" /><path clip-path="url(#clip110)" d="M 0 0 M155.093 611.065 Q151.76 611.065 149.839 612.847 Q147.941 614.629 147.941 617.754 Q147.941 620.879 149.839 622.662 Q151.76 624.444 155.093 624.444 Q158.427 624.444 160.348 622.662 Q162.269 620.856 162.269 617.754 Q162.269 614.629 160.348 612.847 Q158.45 611.065 155.093 611.065 M150.417 609.074 Q147.408 608.333 145.718 606.273 Q144.052 604.213 144.052 601.25 Q144.052 597.106 146.991 594.699 Q149.954 592.292 155.093 592.292 Q160.255 592.292 163.195 594.699 Q166.135 597.106 166.135 601.25 Q166.135 604.213 164.445 606.273 Q162.778 608.333 159.792 609.074 Q163.172 609.861 165.047 612.153 Q166.945 614.444 166.945 617.754 Q166.945 622.778 163.866 625.463 Q160.811 628.148 155.093 628.148 Q149.376 628.148 146.297 625.463 Q143.241 622.778 143.241 617.754 Q143.241 614.444 145.14 612.153 Q147.038 609.861 150.417 609.074 M148.704 601.69 Q148.704 604.375 150.371 605.879 Q152.061 607.384 155.093 607.384 Q158.103 607.384 159.792 605.879 Q161.505 604.375 161.505 601.69 Q161.505 599.004 159.792 597.5 Q158.103 595.995 155.093 595.995 Q152.061 595.995 150.371 597.5 Q148.704 599.004 148.704 601.69 Z" fill="#000000" fill-rule="evenodd" fill-opacity="1" /><path clip-path="url(#clip110)" d="M 0 0 M119.029 255.592 L137.385 255.592 L137.385 259.527 L123.311 259.527 L123.311 267.999 Q124.33 267.652 125.348 267.49 Q126.367 267.305 127.385 267.305 Q133.172 267.305 136.552 270.476 Q139.931 273.647 139.931 279.064 Q139.931 284.643 136.459 287.744 Q132.987 290.823 126.667 290.823 Q124.492 290.823 122.223 290.453 Q119.978 290.082 117.57 289.342 L117.57 284.643 Q119.654 285.777 121.876 286.332 Q124.098 286.888 126.575 286.888 Q130.58 286.888 132.917 284.782 Q135.255 282.675 135.255 279.064 Q135.255 275.453 132.917 273.346 Q130.58 271.24 126.575 271.24 Q124.7 271.24 122.825 271.657 Q120.973 272.073 119.029 272.953 L119.029 255.592 Z" fill="#000000" fill-rule="evenodd" fill-opacity="1" /><path clip-path="url(#clip110)" d="M 0 0 M155.001 258.671 Q151.39 258.671 149.561 262.235 Q147.755 265.777 147.755 272.907 Q147.755 280.013 149.561 283.578 Q151.39 287.12 155.001 287.12 Q158.635 287.12 160.44 283.578 Q162.269 280.013 162.269 272.907 Q162.269 265.777 160.44 262.235 Q158.635 258.671 155.001 258.671 M155.001 254.967 Q160.811 254.967 163.866 259.573 Q166.945 264.157 166.945 272.907 Q166.945 281.633 163.866 286.24 Q160.811 290.823 155.001 290.823 Q149.191 290.823 146.112 286.24 Q143.056 281.633 143.056 272.907 Q143.056 264.157 146.112 259.573 Q149.191 254.967 155.001 254.967 Z" fill="#000000" fill-rule="evenodd" fill-opacity="1" /><path clip-path="url(#clip110)" d="M 0 0 M59.1993 815.533 Q55.2526 813.336 53.3747 810.281 Q51.4968 807.225 51.4968 803.088 Q51.4968 797.518 55.4117 794.494 Q59.2948 791.47 66.4881 791.47 L88.0042 791.47 L88.0042 797.358 L66.679 797.358 Q61.5546 797.358 59.072 799.173 Q56.5894 800.987 56.5894 804.711 Q56.5894 809.262 59.6131 811.904 Q62.6368 814.546 67.8567 814.546 L88.0042 814.546 L88.0042 820.434 L66.679 820.434 Q61.5228 820.434 59.072 822.248 Q56.5894 824.063 56.5894 827.85 Q56.5894 832.338 59.6449 834.98 Q62.6686 837.622 67.8567 837.622 L88.0042 837.622 L88.0042 843.51 L52.3562 843.51 L52.3562 837.622 L57.8944 837.622 Q54.616 835.616 53.0564 832.815 Q51.4968 830.015 51.4968 826.163 Q51.4968 822.28 53.4702 819.575 Q55.4436 816.838 59.1993 815.533 Z" fill="#000000" fill-rule="evenodd" fill-opacity="1" /><path clip-path="url(#clip110)" d="M 0 0 M52.3562 785.327 L52.3562 779.471 L88.0042 779.471 L88.0042 785.327 L52.3562 785.327 M38.479 785.327 L38.479 779.471 L45.895 779.471 L45.895 785.327 L38.479 785.327 Z" fill="#000000" fill-rule="evenodd" fill-opacity="1" /><path clip-path="url(#clip110)" d="M 0 0 M66.4881 743.696 L88.0042 743.696 L88.0042 749.552 L66.679 749.552 Q61.6183 749.552 59.1038 751.525 Q56.5894 753.499 56.5894 757.446 Q56.5894 762.188 59.6131 764.925 Q62.6368 767.662 67.8567 767.662 L88.0042 767.662 L88.0042 773.551 L52.3562 773.551 L52.3562 767.662 L57.8944 767.662 Q54.6797 765.562 53.0883 762.729 Q51.4968 759.864 51.4968 756.141 Q51.4968 749.998 55.3163 746.847 Q59.1038 743.696 66.4881 743.696 Z" fill="#000000" fill-rule="evenodd" fill-opacity="1" /><path clip-path="url(#clip110)" d="M 0 0 M98.8259 710.467 L103.377 710.467 L103.377 744.332 L98.8259 744.332 L98.8259 710.467 Z" fill="#000000" fill-rule="evenodd" fill-opacity="1" /><path clip-path="url(#clip110)" d="M 0 0 M57.7671 680.866 L38.479 680.866 L38.479 675.01 L88.0042 675.01 L88.0042 680.866 L82.657 680.866 Q85.8398 682.712 87.3994 685.545 Q88.9272 688.346 88.9272 692.292 Q88.9272 698.754 83.771 702.828 Q78.6147 706.87 70.212 706.87 Q61.8093 706.87 56.6531 702.828 Q51.4968 698.754 51.4968 692.292 Q51.4968 688.346 53.0564 685.545 Q54.5842 682.712 57.7671 680.866 M70.212 700.823 Q76.6732 700.823 80.3653 698.181 Q84.0256 695.507 84.0256 690.86 Q84.0256 686.213 80.3653 683.54 Q76.6732 680.866 70.212 680.866 Q63.7508 680.866 60.0905 683.54 Q56.3984 686.213 56.3984 690.86 Q56.3984 695.507 60.0905 698.181 Q63.7508 700.823 70.212 700.823 Z" fill="#000000" fill-rule="evenodd" fill-opacity="1" /><path clip-path="url(#clip110)" d="M 0 0 M52.3562 668.867 L52.3562 663.01 L88.0042 663.01 L88.0042 668.867 L52.3562 668.867 M38.479 668.867 L38.479 663.01 L45.895 663.01 L45.895 668.867 L38.479 668.867 Z" fill="#000000" fill-rule="evenodd" fill-opacity="1" /><path clip-path="url(#clip110)" d="M 0 0 M38.479 638.821 L43.3487 638.821 L43.3487 644.422 Q43.3487 647.573 44.6219 648.815 Q45.895 650.024 49.2052 650.024 L52.3562 650.024 L52.3562 640.38 L56.9077 640.38 L56.9077 650.024 L88.0042 650.024 L88.0042 655.912 L56.9077 655.912 L56.9077 661.514 L52.3562 661.514 L52.3562 655.912 L49.8736 655.912 Q43.9216 655.912 41.2162 653.143 Q38.479 650.374 38.479 644.359 L38.479 638.821 Z" fill="#000000" fill-rule="evenodd" fill-opacity="1" /><path clip-path="url(#clip110)" d="M 0 0 M38.479 614.631 L43.3487 614.631 L43.3487 620.233 Q43.3487 623.384 44.6219 624.625 Q45.895 625.835 49.2052 625.835 L52.3562 625.835 L52.3562 616.19 L56.9077 616.19 L56.9077 625.835 L88.0042 625.835 L88.0042 631.723 L56.9077 631.723 L56.9077 637.325 L52.3562 637.325 L52.3562 631.723 L49.8736 631.723 Q43.9216 631.723 41.2162 628.954 Q38.479 626.185 38.479 620.169 L38.479 614.631 Z" fill="#000000" fill-rule="evenodd" fill-opacity="1" /><polyline clip-path="url(#clip112)" style="stroke:#009af9; stroke-width:20; stroke-opacity:1; fill:none" stroke-dasharray="80, 50" points="
  263.789,85.838 2291.91,1372.3 
  "/>
<path clip-path="url(#clip110)" d="
M1991.21 213.659 L2281.1 213.659 L2281.1 92.6992 L1991.21 92.6992  Z
  " fill="#ffffff" fill-rule="evenodd" fill-opacity="1"/>
<polyline clip-path="url(#clip110)" style="stroke:#000000; stroke-width:4; stroke-opacity:1; fill:none" points="
  1991.21,213.659 2281.1,213.659 2281.1,92.6992 1991.21,92.6992 1991.21,213.659 
  "/>
<polyline clip-path="url(#clip110)" style="stroke:#009af9; stroke-width:4; stroke-opacity:1; fill:none" stroke-dasharray="16, 10" points="
  2015.1,153.179 2158.42,153.179 
  "/>
<path clip-path="url(#clip110)" d="M 0 0 M2196.15 172.867 Q2194.34 177.496 2192.63 178.908 Q2190.91 180.32 2188.04 180.32 L2184.64 180.32 L2184.64 176.755 L2187.14 176.755 Q2188.9 176.755 2189.87 175.922 Q2190.85 175.089 2192.03 171.987 L2192.79 170.043 L2182.3 144.533 L2186.82 144.533 L2194.92 164.811 L2203.02 144.533 L2207.54 144.533 L2196.15 172.867 Z" fill="#000000" fill-rule="evenodd" fill-opacity="1" /><path clip-path="url(#clip110)" d="M 0 0 M2213.41 166.524 L2221.05 166.524 L2221.05 140.158 L2212.74 141.825 L2212.74 137.566 L2221.01 135.899 L2225.68 135.899 L2225.68 166.524 L2233.32 166.524 L2233.32 170.459 L2213.41 170.459 L2213.41 166.524 Z" fill="#000000" fill-rule="evenodd" fill-opacity="1" /></svg>
