<?xml version="1.0" encoding="utf-8"?>
<svg xmlns="http://www.w3.org/2000/svg" xmlns:xlink="http://www.w3.org/1999/xlink" width="600" height="400" viewBox="0 0 2400 1600">
<defs>
  <clipPath id="clip150">
    <rect x="0" y="0" width="2400" height="1600"/>
  </clipPath>
</defs>
<path clip-path="url(#clip150)" d="
M0 1600 L2400 1600 L2400 0 L0 0  Z
  " fill="#ffffff" fill-rule="evenodd" fill-opacity="1"/>
<defs>
  <clipPath id="clip151">
    <rect x="480" y="0" width="1681" height="1600"/>
  </clipPath>
</defs>
<path clip-path="url(#clip150)" d="
M227.042 1410.9 L2352.76 1410.9 L2352.76 47.2441 L227.042 47.2441  Z
  " fill="#ffffff" fill-rule="evenodd" fill-opacity="1"/>
<defs>
  <clipPath id="clip152">
    <rect x="227" y="47" width="2127" height="1365"/>
  </clipPath>
</defs>
<polyline clip-path="url(#clip152)" style="stroke:#000000; stroke-width:2; stroke-opacity:0.1; fill:none" points="
  290.635,1410.9 290.635,47.2441 
  "/>
<polyline clip-path="url(#clip152)" style="stroke:#000000; stroke-width:2; stroke-opacity:0.1; fill:none" points="
  623.723,1410.9 623.723,47.2441 
  "/>
<polyline clip-path="url(#clip152)" style="stroke:#000000; stroke-width:2; stroke-opacity:0.1; fill:none" points="
  956.811,1410.9 956.811,47.2441 
  "/>
<polyline clip-path="url(#clip152)" style="stroke:#000000; stroke-width:2; stroke-opacity:0.1; fill:none" points="
  1289.9,1410.9 1289.9,47.2441 
  "/>
<polyline clip-path="url(#clip152)" style="stroke:#000000; stroke-width:2; stroke-opacity:0.1; fill:none" points="
  1622.99,1410.9 1622.99,47.2441 
  "/>
<polyline clip-path="url(#clip152)" style="stroke:#000000; stroke-width:2; stroke-opacity:0.1; fill:none" points="
  1956.08,1410.9 1956.08,47.2441 
  "/>
<polyline clip-path="url(#clip152)" style="stroke:#000000; stroke-width:2; stroke-opacity:0.1; fill:none" points="
  2289.16,1410.9 2289.16,47.2441 
  "/>
<polyline clip-path="url(#clip150)" style="stroke:#000000; stroke-width:4; stroke-opacity:1; fill:none" points="
  227.042,1410.9 2352.76,1410.9 
  "/>
<polyline clip-path="url(#clip150)" style="stroke:#000000; stroke-width:4; stroke-opacity:1; fill:none" points="
  290.635,1410.9 290.635,1394.53 
  "/>
<polyline clip-path="url(#clip150)" style="stroke:#000000; stroke-width:4; stroke-opacity:1; fill:none" points="
  623.723,1410.9 623.723,1394.53 
  "/>
<polyline clip-path="url(#clip150)" style="stroke:#000000; stroke-width:4; stroke-opacity:1; fill:none" points="
  956.811,1410.9 956.811,1394.53 
  "/>
<polyline clip-path="url(#clip150)" style="stroke:#000000; stroke-width:4; stroke-opacity:1; fill:none" points="
  1289.9,1410.9 1289.9,1394.53 
  "/>
<polyline clip-path="url(#clip150)" style="stroke:#000000; stroke-width:4; stroke-opacity:1; fill:none" points="
  1622.99,1410.9 1622.99,1394.53 
  "/>
<polyline clip-path="url(#clip150)" style="stroke:#000000; stroke-width:4; stroke-opacity:1; fill:none" points="
  1956.08,1410.9 1956.08,1394.53 
  "/>
<polyline clip-path="url(#clip150)" style="stroke:#000000; stroke-width:4; stroke-opacity:1; fill:none" points="
  2289.16,1410.9 2289.16,1394.53 
  "/>
<path clip-path="url(#clip150)" d="M 0 0 M229.725 1489.17 L237.364 1489.17 L237.364 1462.8 L229.054 1464.47 L229.054 1460.21 L237.318 1458.54 L241.993 1458.54 L241.993 1489.17 L249.632 1489.17 L249.632 1493.1 L229.725 1493.1 L229.725 1489.17 Z" fill="#000000" fill-rule="evenodd" fill-opacity="1" /><path clip-path="url(#clip150)" d="M 0 0 M264.702 1461.62 Q261.091 1461.62 259.262 1465.19 Q257.456 1468.73 257.456 1475.86 Q257.456 1482.97 259.262 1486.53 Q261.091 1490.07 264.702 1490.07 Q268.336 1490.07 270.141 1486.53 Q271.97 1482.97 271.97 1475.86 Q271.97 1468.73 270.141 1465.19 Q268.336 1461.62 264.702 1461.62 M264.702 1457.92 Q270.512 1457.92 273.567 1462.53 Q276.646 1467.11 276.646 1475.86 Q276.646 1484.59 273.567 1489.19 Q270.512 1493.78 264.702 1493.78 Q258.891 1493.78 255.813 1489.19 Q252.757 1484.59 252.757 1475.86 Q252.757 1467.11 255.813 1462.53 Q258.891 1457.92 264.702 1457.92 Z" fill="#000000" fill-rule="evenodd" fill-opacity="1" /><path clip-path="url(#clip150)" d="M 0 0 M276.646 1452.02 L300.758 1452.02 L300.758 1455.22 L276.646 1455.22 L276.646 1452.02 Z" fill="#000000" fill-rule="evenodd" fill-opacity="1" /><path clip-path="url(#clip150)" d="M 0 0 M313.001 1440.11 Q310.067 1440.11 308.582 1443.01 Q307.115 1445.89 307.115 1451.68 Q307.115 1457.46 308.582 1460.35 Q310.067 1463.23 313.001 1463.23 Q315.954 1463.23 317.421 1460.35 Q318.907 1457.46 318.907 1451.68 Q318.907 1445.89 317.421 1443.01 Q315.954 1440.11 313.001 1440.11 M313.001 1437.11 Q317.722 1437.11 320.205 1440.85 Q322.706 1444.57 322.706 1451.68 Q322.706 1458.77 320.205 1462.51 Q317.722 1466.24 313.001 1466.24 Q308.281 1466.24 305.779 1462.51 Q303.297 1458.77 303.297 1451.68 Q303.297 1444.57 305.779 1440.85 Q308.281 1437.11 313.001 1437.11 Z" fill="#000000" fill-rule="evenodd" fill-opacity="1" /><path clip-path="url(#clip150)" d="M 0 0 M326.825 1460.92 L330.794 1460.92 L330.794 1465.69 L326.825 1465.69 L326.825 1460.92 Z" fill="#000000" fill-rule="evenodd" fill-opacity="1" /><path clip-path="url(#clip150)" d="M 0 0 M346.423 1450.55 Q349.15 1451.14 350.673 1452.98 Q352.216 1454.82 352.216 1457.53 Q352.216 1461.69 349.357 1463.96 Q346.498 1466.24 341.232 1466.24 Q339.464 1466.24 337.583 1465.88 Q335.721 1465.54 333.728 1464.85 L333.728 1461.18 Q335.307 1462.1 337.188 1462.57 Q339.069 1463.04 341.119 1463.04 Q344.693 1463.04 346.554 1461.63 Q348.435 1460.22 348.435 1457.53 Q348.435 1455.05 346.686 1453.66 Q344.956 1452.25 341.853 1452.25 L338.58 1452.25 L338.58 1449.12 L342.003 1449.12 Q344.805 1449.12 346.291 1448.01 Q347.777 1446.89 347.777 1444.78 Q347.777 1442.62 346.235 1441.47 Q344.711 1440.3 341.853 1440.3 Q340.292 1440.3 338.505 1440.64 Q336.718 1440.98 334.574 1441.69 L334.574 1438.31 Q336.737 1437.71 338.618 1437.41 Q340.517 1437.11 342.191 1437.11 Q346.517 1437.11 349.037 1439.08 Q351.557 1441.04 351.557 1444.38 Q351.557 1446.72 350.222 1448.33 Q348.887 1449.93 346.423 1450.55 Z" fill="#000000" fill-rule="evenodd" fill-opacity="1" /><path clip-path="url(#clip150)" d="M 0 0 M563.199 1489.17 L570.838 1489.17 L570.838 1462.8 L562.527 1464.47 L562.527 1460.21 L570.791 1458.54 L575.467 1458.54 L575.467 1489.17 L583.106 1489.17 L583.106 1493.1 L563.199 1493.1 L563.199 1489.17 Z" fill="#000000" fill-rule="evenodd" fill-opacity="1" /><path clip-path="url(#clip150)" d="M 0 0 M598.175 1461.62 Q594.564 1461.62 592.736 1465.19 Q590.93 1468.73 590.93 1475.86 Q590.93 1482.97 592.736 1486.53 Q594.564 1490.07 598.175 1490.07 Q601.81 1490.07 603.615 1486.53 Q605.444 1482.97 605.444 1475.86 Q605.444 1468.73 603.615 1465.19 Q601.81 1461.62 598.175 1461.62 M598.175 1457.92 Q603.985 1457.92 607.041 1462.53 Q610.12 1467.11 610.12 1475.86 Q610.12 1484.59 607.041 1489.19 Q603.985 1493.78 598.175 1493.78 Q592.365 1493.78 589.286 1489.19 Q586.231 1484.59 586.231 1475.86 Q586.231 1467.11 589.286 1462.53 Q592.365 1457.92 598.175 1457.92 Z" fill="#000000" fill-rule="evenodd" fill-opacity="1" /><path clip-path="url(#clip150)" d="M 0 0 M610.12 1452.02 L634.231 1452.02 L634.231 1455.22 L610.12 1455.22 L610.12 1452.02 Z" fill="#000000" fill-rule="evenodd" fill-opacity="1" /><path clip-path="url(#clip150)" d="M 0 0 M646.475 1440.11 Q643.541 1440.11 642.055 1443.01 Q640.588 1445.89 640.588 1451.68 Q640.588 1457.46 642.055 1460.35 Q643.541 1463.23 646.475 1463.23 Q649.428 1463.23 650.895 1460.35 Q652.381 1457.46 652.381 1451.68 Q652.381 1445.89 650.895 1443.01 Q649.428 1440.11 646.475 1440.11 M646.475 1437.11 Q651.196 1437.11 653.678 1440.85 Q656.18 1444.57 656.18 1451.68 Q656.18 1458.77 653.678 1462.51 Q651.196 1466.24 646.475 1466.24 Q641.754 1466.24 639.253 1462.51 Q636.77 1458.77 636.77 1451.68 Q636.77 1444.57 639.253 1440.85 Q641.754 1437.11 646.475 1437.11 Z" fill="#000000" fill-rule="evenodd" fill-opacity="1" /><path clip-path="url(#clip150)" d="M 0 0 M660.299 1460.92 L664.267 1460.92 L664.267 1465.69 L660.299 1465.69 L660.299 1460.92 Z" fill="#000000" fill-rule="evenodd" fill-opacity="1" /><path clip-path="url(#clip150)" d="M 0 0 M671.659 1462.5 L684.918 1462.5 L684.918 1465.69 L667.088 1465.69 L667.088 1462.5 Q669.251 1460.26 672.975 1456.5 Q676.718 1452.72 677.677 1451.63 Q679.502 1449.58 680.216 1448.16 Q680.95 1446.74 680.95 1445.36 Q680.95 1443.12 679.37 1441.71 Q677.809 1440.3 675.289 1440.3 Q673.502 1440.3 671.508 1440.92 Q669.533 1441.54 667.277 1442.8 L667.277 1438.97 Q669.571 1438.05 671.565 1437.58 Q673.558 1437.11 675.213 1437.11 Q679.577 1437.11 682.172 1439.29 Q684.768 1441.47 684.768 1445.12 Q684.768 1446.85 684.109 1448.41 Q683.47 1449.95 681.758 1452.06 Q681.288 1452.6 678.768 1455.22 Q676.248 1457.81 671.659 1462.5 Z" fill="#000000" fill-rule="evenodd" fill-opacity="1" /><path clip-path="url(#clip150)" d="M 0 0 M896.136 1489.17 L903.775 1489.17 L903.775 1462.8 L895.465 1464.47 L895.465 1460.21 L903.729 1458.54 L908.405 1458.54 L908.405 1489.17 L916.044 1489.17 L916.044 1493.1 L896.136 1493.1 L896.136 1489.17 Z" fill="#000000" fill-rule="evenodd" fill-opacity="1" /><path clip-path="url(#clip150)" d="M 0 0 M931.113 1461.62 Q927.502 1461.62 925.673 1465.19 Q923.868 1468.73 923.868 1475.86 Q923.868 1482.97 925.673 1486.53 Q927.502 1490.07 931.113 1490.07 Q934.747 1490.07 936.553 1486.53 Q938.381 1482.97 938.381 1475.86 Q938.381 1468.73 936.553 1465.19 Q934.747 1461.62 931.113 1461.62 M931.113 1457.92 Q936.923 1457.92 939.979 1462.53 Q943.057 1467.11 943.057 1475.86 Q943.057 1484.59 939.979 1489.19 Q936.923 1493.78 931.113 1493.78 Q925.303 1493.78 922.224 1489.19 Q919.169 1484.59 919.169 1475.86 Q919.169 1467.11 922.224 1462.53 Q925.303 1457.92 931.113 1457.92 Z" fill="#000000" fill-rule="evenodd" fill-opacity="1" /><path clip-path="url(#clip150)" d="M 0 0 M943.057 1452.02 L967.169 1452.02 L967.169 1455.22 L943.057 1455.22 L943.057 1452.02 Z" fill="#000000" fill-rule="evenodd" fill-opacity="1" /><path clip-path="url(#clip150)" d="M 0 0 M979.413 1440.11 Q976.479 1440.11 974.993 1443.01 Q973.526 1445.89 973.526 1451.68 Q973.526 1457.46 974.993 1460.35 Q976.479 1463.23 979.413 1463.23 Q982.366 1463.23 983.833 1460.35 Q985.318 1457.46 985.318 1451.68 Q985.318 1445.89 983.833 1443.01 Q982.366 1440.11 979.413 1440.11 M979.413 1437.11 Q984.134 1437.11 986.616 1440.85 Q989.118 1444.57 989.118 1451.68 Q989.118 1458.77 986.616 1462.51 Q984.134 1466.24 979.413 1466.24 Q974.692 1466.24 972.191 1462.51 Q969.708 1458.77 969.708 1451.68 Q969.708 1444.57 972.191 1440.85 Q974.692 1437.11 979.413 1437.11 Z" fill="#000000" fill-rule="evenodd" fill-opacity="1" /><path clip-path="url(#clip150)" d="M 0 0 M993.236 1460.92 L997.205 1460.92 L997.205 1465.69 L993.236 1465.69 L993.236 1460.92 Z" fill="#000000" fill-rule="evenodd" fill-opacity="1" /><path clip-path="url(#clip150)" d="M 0 0 M1001.98 1462.5 L1008.19 1462.5 L1008.19 1441.07 L1001.44 1442.43 L1001.44 1438.97 L1008.15 1437.61 L1011.95 1437.61 L1011.95 1462.5 L1018.16 1462.5 L1018.16 1465.69 L1001.98 1465.69 L1001.98 1462.5 Z" fill="#000000" fill-rule="evenodd" fill-opacity="1" /><path clip-path="url(#clip150)" d="M 0 0 M1242.05 1489.17 L1249.69 1489.17 L1249.69 1462.8 L1241.38 1464.47 L1241.38 1460.21 L1249.64 1458.54 L1254.32 1458.54 L1254.32 1489.17 L1261.96 1489.17 L1261.96 1493.1 L1242.05 1493.1 L1242.05 1489.17 Z" fill="#000000" fill-rule="evenodd" fill-opacity="1" /><path clip-path="url(#clip150)" d="M 0 0 M1277.03 1461.62 Q1273.42 1461.62 1271.59 1465.19 Q1269.78 1468.73 1269.78 1475.86 Q1269.78 1482.97 1271.59 1486.53 Q1273.42 1490.07 1277.03 1490.07 Q1280.66 1490.07 1282.47 1486.53 Q1284.3 1482.97 1284.3 1475.86 Q1284.3 1468.73 1282.47 1465.19 Q1280.66 1461.62 1277.03 1461.62 M1277.03 1457.92 Q1282.84 1457.92 1285.89 1462.53 Q1288.97 1467.11 1288.97 1475.86 Q1288.97 1484.59 1285.89 1489.19 Q1282.84 1493.78 1277.03 1493.78 Q1271.22 1493.78 1268.14 1489.19 Q1265.08 1484.59 1265.08 1475.86 Q1265.08 1467.11 1268.14 1462.53 Q1271.22 1457.92 1277.03 1457.92 Z" fill="#000000" fill-rule="evenodd" fill-opacity="1" /><path clip-path="url(#clip150)" d="M 0 0 M1298.68 1440.11 Q1295.74 1440.11 1294.26 1443.01 Q1292.79 1445.89 1292.79 1451.68 Q1292.79 1457.46 1294.26 1460.35 Q1295.74 1463.23 1298.68 1463.23 Q1301.63 1463.23 1303.1 1460.35 Q1304.58 1457.46 1304.58 1451.68 Q1304.58 1445.89 1303.1 1443.01 Q1301.63 1440.11 1298.68 1440.11 M1298.68 1437.11 Q1303.4 1437.11 1305.88 1440.85 Q1308.38 1444.57 1308.38 1451.68 Q1308.38 1458.77 1305.88 1462.51 Q1303.4 1466.24 1298.68 1466.24 Q1293.96 1466.24 1291.46 1462.51 Q1288.97 1458.77 1288.97 1451.68 Q1288.97 1444.57 1291.46 1440.85 Q1293.96 1437.11 1298.68 1437.11 Z" fill="#000000" fill-rule="evenodd" fill-opacity="1" /><path clip-path="url(#clip150)" d="M 0 0 M1312.5 1460.92 L1316.47 1460.92 L1316.47 1465.69 L1312.5 1465.69 L1312.5 1460.92 Z" fill="#000000" fill-rule="evenodd" fill-opacity="1" /><path clip-path="url(#clip150)" d="M 0 0 M1328.71 1440.11 Q1325.78 1440.11 1324.29 1443.01 Q1322.83 1445.89 1322.83 1451.68 Q1322.83 1457.46 1324.29 1460.35 Q1325.78 1463.23 1328.71 1463.23 Q1331.67 1463.23 1333.13 1460.35 Q1334.62 1457.46 1334.62 1451.68 Q1334.62 1445.89 1333.13 1443.01 Q1331.67 1440.11 1328.71 1440.11 M1328.71 1437.11 Q1333.43 1437.11 1335.92 1440.85 Q1338.42 1444.57 1338.42 1451.68 Q1338.42 1458.77 1335.92 1462.51 Q1333.43 1466.24 1328.71 1466.24 Q1323.99 1466.24 1321.49 1462.51 Q1319.01 1458.77 1319.01 1451.68 Q1319.01 1444.57 1321.49 1440.85 Q1323.99 1437.11 1328.71 1437.11 Z" fill="#000000" fill-rule="evenodd" fill-opacity="1" /><path clip-path="url(#clip150)" d="M 0 0 M1575.64 1489.17 L1583.28 1489.17 L1583.28 1462.8 L1574.97 1464.47 L1574.97 1460.21 L1583.23 1458.54 L1587.91 1458.54 L1587.91 1489.17 L1595.55 1489.17 L1595.55 1493.1 L1575.64 1493.1 L1575.64 1489.17 Z" fill="#000000" fill-rule="evenodd" fill-opacity="1" /><path clip-path="url(#clip150)" d="M 0 0 M1610.61 1461.62 Q1607 1461.62 1605.17 1465.19 Q1603.37 1468.73 1603.37 1475.86 Q1603.37 1482.97 1605.17 1486.53 Q1607 1490.07 1610.61 1490.07 Q1614.25 1490.07 1616.05 1486.53 Q1617.88 1482.97 1617.88 1475.86 Q1617.88 1468.73 1616.05 1465.19 Q1614.25 1461.62 1610.61 1461.62 M1610.61 1457.92 Q1616.42 1457.92 1619.48 1462.53 Q1622.56 1467.11 1622.56 1475.86 Q1622.56 1484.59 1619.48 1489.19 Q1616.42 1493.78 1610.61 1493.78 Q1604.8 1493.78 1601.73 1489.19 Q1598.67 1484.59 1598.67 1475.86 Q1598.67 1467.11 1601.73 1462.53 Q1604.8 1457.92 1610.61 1457.92 Z" fill="#000000" fill-rule="evenodd" fill-opacity="1" /><path clip-path="url(#clip150)" d="M 0 0 M1632.26 1440.11 Q1629.33 1440.11 1627.84 1443.01 Q1626.38 1445.89 1626.38 1451.68 Q1626.38 1457.46 1627.84 1460.35 Q1629.33 1463.23 1632.26 1463.23 Q1635.22 1463.23 1636.68 1460.35 Q1638.17 1457.46 1638.17 1451.68 Q1638.17 1445.89 1636.68 1443.01 Q1635.22 1440.11 1632.26 1440.11 M1632.26 1437.11 Q1636.98 1437.11 1639.47 1440.85 Q1641.97 1444.57 1641.97 1451.68 Q1641.97 1458.77 1639.47 1462.51 Q1636.98 1466.24 1632.26 1466.24 Q1627.54 1466.24 1625.04 1462.51 Q1622.56 1458.77 1622.56 1451.68 Q1622.56 1444.57 1625.04 1440.85 Q1627.54 1437.11 1632.26 1437.11 Z" fill="#000000" fill-rule="evenodd" fill-opacity="1" /><path clip-path="url(#clip150)" d="M 0 0 M1646.09 1460.92 L1650.06 1460.92 L1650.06 1465.69 L1646.09 1465.69 L1646.09 1460.92 Z" fill="#000000" fill-rule="evenodd" fill-opacity="1" /><path clip-path="url(#clip150)" d="M 0 0 M1654.83 1462.5 L1661.04 1462.5 L1661.04 1441.07 L1654.29 1442.43 L1654.29 1438.97 L1661 1437.61 L1664.8 1437.61 L1664.8 1462.5 L1671.01 1462.5 L1671.01 1465.69 L1654.83 1465.69 L1654.83 1462.5 Z" fill="#000000" fill-rule="evenodd" fill-opacity="1" /><path clip-path="url(#clip150)" d="M 0 0 M1908.88 1489.17 L1916.52 1489.17 L1916.52 1462.8 L1908.21 1464.47 L1908.21 1460.21 L1916.47 1458.54 L1921.14 1458.54 L1921.14 1489.17 L1928.78 1489.17 L1928.78 1493.1 L1908.88 1493.1 L1908.88 1489.17 Z" fill="#000000" fill-rule="evenodd" fill-opacity="1" /><path clip-path="url(#clip150)" d="M 0 0 M1943.85 1461.62 Q1940.24 1461.62 1938.41 1465.19 Q1936.61 1468.73 1936.61 1475.86 Q1936.61 1482.97 1938.41 1486.53 Q1940.24 1490.07 1943.85 1490.07 Q1947.49 1490.07 1949.29 1486.53 Q1951.12 1482.97 1951.12 1475.86 Q1951.12 1468.73 1949.29 1465.19 Q1947.49 1461.62 1943.85 1461.62 M1943.85 1457.92 Q1949.66 1457.92 1952.72 1462.53 Q1955.8 1467.11 1955.8 1475.86 Q1955.8 1484.59 1952.72 1489.19 Q1949.66 1493.78 1943.85 1493.78 Q1938.04 1493.78 1934.96 1489.19 Q1931.91 1484.59 1931.91 1475.86 Q1931.91 1467.11 1934.96 1462.53 Q1938.04 1457.92 1943.85 1457.92 Z" fill="#000000" fill-rule="evenodd" fill-opacity="1" /><path clip-path="url(#clip150)" d="M 0 0 M1965.5 1440.11 Q1962.57 1440.11 1961.08 1443.01 Q1959.62 1445.89 1959.62 1451.68 Q1959.62 1457.46 1961.08 1460.35 Q1962.57 1463.23 1965.5 1463.23 Q1968.46 1463.23 1969.92 1460.35 Q1971.41 1457.46 1971.41 1451.68 Q1971.41 1445.89 1969.92 1443.01 Q1968.46 1440.11 1965.5 1440.11 M1965.5 1437.11 Q1970.22 1437.11 1972.71 1440.85 Q1975.21 1444.57 1975.21 1451.68 Q1975.21 1458.77 1972.71 1462.51 Q1970.22 1466.24 1965.5 1466.24 Q1960.78 1466.24 1958.28 1462.51 Q1955.8 1458.77 1955.8 1451.68 Q1955.8 1444.57 1958.28 1440.85 Q1960.78 1437.11 1965.5 1437.11 Z" fill="#000000" fill-rule="evenodd" fill-opacity="1" /><path clip-path="url(#clip150)" d="M 0 0 M1979.33 1460.92 L1983.29 1460.92 L1983.29 1465.69 L1979.33 1465.69 L1979.33 1460.92 Z" fill="#000000" fill-rule="evenodd" fill-opacity="1" /><path clip-path="url(#clip150)" d="M 0 0 M1990.69 1462.5 L2003.95 1462.5 L2003.95 1465.69 L1986.12 1465.69 L1986.12 1462.5 Q1988.28 1460.26 1992 1456.5 Q1995.75 1452.72 1996.7 1451.63 Q1998.53 1449.58 1999.24 1448.16 Q1999.98 1446.74 1999.98 1445.36 Q1999.98 1443.12 1998.4 1441.71 Q1996.84 1440.3 1994.32 1440.3 Q1992.53 1440.3 1990.54 1440.92 Q1988.56 1441.54 1986.3 1442.8 L1986.3 1438.97 Q1988.6 1438.05 1990.59 1437.58 Q1992.59 1437.11 1994.24 1437.11 Q1998.6 1437.11 2001.2 1439.29 Q2003.79 1441.47 2003.79 1445.12 Q2003.79 1446.85 2003.14 1448.41 Q2002.5 1449.95 2000.79 1452.06 Q2000.32 1452.6 1997.8 1455.22 Q1995.28 1457.81 1990.69 1462.5 Z" fill="#000000" fill-rule="evenodd" fill-opacity="1" /><path clip-path="url(#clip150)" d="M 0 0 M2241.58 1489.17 L2249.22 1489.17 L2249.22 1462.8 L2240.91 1464.47 L2240.91 1460.21 L2249.17 1458.54 L2253.85 1458.54 L2253.85 1489.17 L2261.49 1489.17 L2261.49 1493.1 L2241.58 1493.1 L2241.58 1489.17 Z" fill="#000000" fill-rule="evenodd" fill-opacity="1" /><path clip-path="url(#clip150)" d="M 0 0 M2276.56 1461.62 Q2272.94 1461.62 2271.12 1465.19 Q2269.31 1468.73 2269.31 1475.86 Q2269.31 1482.97 2271.12 1486.53 Q2272.94 1490.07 2276.56 1490.07 Q2280.19 1490.07 2282 1486.53 Q2283.82 1482.97 2283.82 1475.86 Q2283.82 1468.73 2282 1465.19 Q2280.19 1461.62 2276.56 1461.62 M2276.56 1457.92 Q2282.37 1457.92 2285.42 1462.53 Q2288.5 1467.11 2288.5 1475.86 Q2288.5 1484.59 2285.42 1489.19 Q2282.37 1493.78 2276.56 1493.78 Q2270.75 1493.78 2267.67 1489.19 Q2264.61 1484.59 2264.61 1475.86 Q2264.61 1467.11 2267.67 1462.53 Q2270.75 1457.92 2276.56 1457.92 Z" fill="#000000" fill-rule="evenodd" fill-opacity="1" /><path clip-path="url(#clip150)" d="M 0 0 M2298.2 1440.11 Q2295.27 1440.11 2293.79 1443.01 Q2292.32 1445.89 2292.32 1451.68 Q2292.32 1457.46 2293.79 1460.35 Q2295.27 1463.23 2298.2 1463.23 Q2301.16 1463.23 2302.62 1460.35 Q2304.11 1457.46 2304.11 1451.68 Q2304.11 1445.89 2302.62 1443.01 Q2301.16 1440.11 2298.2 1440.11 M2298.2 1437.11 Q2302.93 1437.11 2305.41 1440.85 Q2307.91 1444.57 2307.91 1451.68 Q2307.91 1458.77 2305.41 1462.51 Q2302.93 1466.24 2298.2 1466.24 Q2293.48 1466.24 2290.98 1462.51 Q2288.5 1458.77 2288.5 1451.68 Q2288.5 1444.57 2290.98 1440.85 Q2293.48 1437.11 2298.2 1437.11 Z" fill="#000000" fill-rule="evenodd" fill-opacity="1" /><path clip-path="url(#clip150)" d="M 0 0 M2312.03 1460.92 L2316 1460.92 L2316 1465.69 L2312.03 1465.69 L2312.03 1460.92 Z" fill="#000000" fill-rule="evenodd" fill-opacity="1" /><path clip-path="url(#clip150)" d="M 0 0 M2331.63 1450.55 Q2334.35 1451.14 2335.88 1452.98 Q2337.42 1454.82 2337.42 1457.53 Q2337.42 1461.69 2334.56 1463.96 Q2331.7 1466.24 2326.44 1466.24 Q2324.67 1466.24 2322.79 1465.88 Q2320.92 1465.54 2318.93 1464.85 L2318.93 1461.18 Q2320.51 1462.1 2322.39 1462.57 Q2324.27 1463.04 2326.32 1463.04 Q2329.9 1463.04 2331.76 1461.63 Q2333.64 1460.22 2333.64 1457.53 Q2333.64 1455.05 2331.89 1453.66 Q2330.16 1452.25 2327.06 1452.25 L2323.78 1452.25 L2323.78 1449.12 L2327.21 1449.12 Q2330.01 1449.12 2331.49 1448.01 Q2332.98 1446.89 2332.98 1444.78 Q2332.98 1442.62 2331.44 1441.47 Q2329.91 1440.3 2327.06 1440.3 Q2325.49 1440.3 2323.71 1440.64 Q2321.92 1440.98 2319.78 1441.69 L2319.78 1438.31 Q2321.94 1437.71 2323.82 1437.41 Q2325.72 1437.11 2327.39 1437.11 Q2331.72 1437.11 2334.24 1439.08 Q2336.76 1441.04 2336.76 1444.38 Q2336.76 1446.72 2335.43 1448.33 Q2334.09 1449.93 2331.63 1450.55 Z" fill="#000000" fill-rule="evenodd" fill-opacity="1" /><path clip-path="url(#clip150)" d="M 0 0 M1295.1 1545.6 L1293.7 1538.25 Q1292.27 1530.71 1286.6 1530.71 Q1282.34 1530.71 1280.4 1534.21 Q1277.95 1538.6 1277.95 1544.39 Q1277.95 1551.4 1280.33 1554.74 Q1282.75 1558.14 1286.6 1558.14 Q1290.87 1558.14 1293.16 1551.36 L1295.1 1545.6 M1298.38 1535.86 L1301.53 1526.54 L1306.75 1526.54 L1300.23 1545.86 L1301.5 1552.83 Q1301.79 1554.39 1302.9 1555.69 Q1304.21 1557.22 1305.22 1557.22 L1308.03 1557.22 L1308.03 1562.19 L1304.52 1562.19 Q1301.53 1562.19 1298.86 1559.51 Q1297.55 1558.18 1297.01 1555.37 Q1295.55 1558.91 1292.56 1561.68 Q1291.16 1562.98 1286.6 1562.98 Q1279.13 1562.98 1275.5 1558.14 Q1271.77 1553.15 1271.77 1544.39 Q1271.77 1535.04 1275.81 1530.64 Q1280.3 1525.74 1286.6 1525.74 Q1296.5 1525.74 1298.38 1535.86 Z" fill="#000000" fill-rule="evenodd" fill-opacity="1" /><polyline clip-path="url(#clip152)" style="stroke:#000000; stroke-width:2; stroke-opacity:0.1; fill:none" points="
  227.042,1395.6 2352.76,1395.6 
  "/>
<polyline clip-path="url(#clip152)" style="stroke:#000000; stroke-width:2; stroke-opacity:0.1; fill:none" points="
  227.042,1037.88 2352.76,1037.88 
  "/>
<polyline clip-path="url(#clip152)" style="stroke:#000000; stroke-width:2; stroke-opacity:0.1; fill:none" points="
  227.042,680.158 2352.76,680.158 
  "/>
<polyline clip-path="url(#clip152)" style="stroke:#000000; stroke-width:2; stroke-opacity:0.1; fill:none" points="
  227.042,322.439 2352.76,322.439 
  "/>
<polyline clip-path="url(#clip150)" style="stroke:#000000; stroke-width:4; stroke-opacity:1; fill:none" points="
  227.042,1410.9 227.042,47.2441 
  "/>
<polyline clip-path="url(#clip150)" style="stroke:#000000; stroke-width:4; stroke-opacity:1; fill:none" points="
  227.042,1395.6 252.551,1395.6 
  "/>
<polyline clip-path="url(#clip150)" style="stroke:#000000; stroke-width:4; stroke-opacity:1; fill:none" points="
  227.042,1037.88 252.551,1037.88 
  "/>
<polyline clip-path="url(#clip150)" style="stroke:#000000; stroke-width:4; stroke-opacity:1; fill:none" points="
  227.042,680.158 252.551,680.158 
  "/>
<polyline clip-path="url(#clip150)" style="stroke:#000000; stroke-width:4; stroke-opacity:1; fill:none" points="
  227.042,322.439 252.551,322.439 
  "/>
<path clip-path="url(#clip150)" d="M 0 0 M179.098 1381.4 Q175.487 1381.4 173.658 1384.96 Q171.852 1388.5 171.852 1395.63 Q171.852 1402.74 173.658 1406.3 Q175.487 1409.84 179.098 1409.84 Q182.732 1409.84 184.538 1406.3 Q186.366 1402.74 186.366 1395.63 Q186.366 1388.5 184.538 1384.96 Q182.732 1381.4 179.098 1381.4 M179.098 1377.69 Q184.908 1377.69 187.963 1382.3 Q191.042 1386.88 191.042 1395.63 Q191.042 1404.36 187.963 1408.97 Q184.908 1413.55 179.098 1413.55 Q173.288 1413.55 170.209 1408.97 Q167.153 1404.36 167.153 1395.63 Q167.153 1386.88 170.209 1382.3 Q173.288 1377.69 179.098 1377.69 Z" fill="#000000" fill-rule="evenodd" fill-opacity="1" /><path clip-path="url(#clip150)" d="M 0 0 M117.107 1051.22 L124.746 1051.22 L124.746 1024.86 L116.436 1026.52 L116.436 1022.26 L124.7 1020.6 L129.376 1020.6 L129.376 1051.22 L137.015 1051.22 L137.015 1055.16 L117.107 1055.16 L117.107 1051.22 Z" fill="#000000" fill-rule="evenodd" fill-opacity="1" /><path clip-path="url(#clip150)" d="M 0 0 M152.084 1023.68 Q148.473 1023.68 146.644 1027.24 Q144.839 1030.78 144.839 1037.91 Q144.839 1045.02 146.644 1048.58 Q148.473 1052.13 152.084 1052.13 Q155.718 1052.13 157.524 1048.58 Q159.353 1045.02 159.353 1037.91 Q159.353 1030.78 157.524 1027.24 Q155.718 1023.68 152.084 1023.68 M152.084 1019.97 Q157.894 1019.97 160.95 1024.58 Q164.028 1029.16 164.028 1037.91 Q164.028 1046.64 160.95 1051.25 Q157.894 1055.83 152.084 1055.83 Q146.274 1055.83 143.195 1051.25 Q140.14 1046.64 140.14 1037.91 Q140.14 1029.16 143.195 1024.58 Q146.274 1019.97 152.084 1019.97 Z" fill="#000000" fill-rule="evenodd" fill-opacity="1" /><path clip-path="url(#clip150)" d="M 0 0 M179.098 1023.68 Q175.487 1023.68 173.658 1027.24 Q171.852 1030.78 171.852 1037.91 Q171.852 1045.02 173.658 1048.58 Q175.487 1052.13 179.098 1052.13 Q182.732 1052.13 184.538 1048.58 Q186.366 1045.02 186.366 1037.91 Q186.366 1030.78 184.538 1027.24 Q182.732 1023.68 179.098 1023.68 M179.098 1019.97 Q184.908 1019.97 187.963 1024.58 Q191.042 1029.16 191.042 1037.91 Q191.042 1046.64 187.963 1051.25 Q184.908 1055.83 179.098 1055.83 Q173.288 1055.83 170.209 1051.25 Q167.153 1046.64 167.153 1037.91 Q167.153 1029.16 170.209 1024.58 Q173.288 1019.97 179.098 1019.97 Z" fill="#000000" fill-rule="evenodd" fill-opacity="1" /><path clip-path="url(#clip150)" d="M 0 0 M120.695 693.503 L137.015 693.503 L137.015 697.438 L115.07 697.438 L115.07 693.503 Q117.732 690.748 122.316 686.119 Q126.922 681.466 128.103 680.124 Q130.348 677.6 131.228 675.864 Q132.13 674.105 132.13 672.415 Q132.13 669.661 130.186 667.924 Q128.265 666.188 125.163 666.188 Q122.964 666.188 120.51 666.952 Q118.08 667.716 115.302 669.267 L115.302 664.545 Q118.126 663.411 120.58 662.832 Q123.033 662.253 125.07 662.253 Q130.441 662.253 133.635 664.938 Q136.829 667.624 136.829 672.114 Q136.829 674.244 136.019 676.165 Q135.232 678.063 133.126 680.656 Q132.547 681.327 129.445 684.545 Q126.343 687.739 120.695 693.503 Z" fill="#000000" fill-rule="evenodd" fill-opacity="1" /><path clip-path="url(#clip150)" d="M 0 0 M152.084 665.957 Q148.473 665.957 146.644 669.522 Q144.839 673.063 144.839 680.193 Q144.839 687.299 146.644 690.864 Q148.473 694.406 152.084 694.406 Q155.718 694.406 157.524 690.864 Q159.353 687.299 159.353 680.193 Q159.353 673.063 157.524 669.522 Q155.718 665.957 152.084 665.957 M152.084 662.253 Q157.894 662.253 160.95 666.86 Q164.028 671.443 164.028 680.193 Q164.028 688.92 160.95 693.526 Q157.894 698.11 152.084 698.11 Q146.274 698.11 143.195 693.526 Q140.14 688.92 140.14 680.193 Q140.14 671.443 143.195 666.86 Q146.274 662.253 152.084 662.253 Z" fill="#000000" fill-rule="evenodd" fill-opacity="1" /><path clip-path="url(#clip150)" d="M 0 0 M179.098 665.957 Q175.487 665.957 173.658 669.522 Q171.852 673.063 171.852 680.193 Q171.852 687.299 173.658 690.864 Q175.487 694.406 179.098 694.406 Q182.732 694.406 184.538 690.864 Q186.366 687.299 186.366 680.193 Q186.366 673.063 184.538 669.522 Q182.732 665.957 179.098 665.957 M179.098 662.253 Q184.908 662.253 187.963 666.86 Q191.042 671.443 191.042 680.193 Q191.042 688.92 187.963 693.526 Q184.908 698.11 179.098 698.11 Q173.288 698.11 170.209 693.526 Q167.153 688.92 167.153 680.193 Q167.153 671.443 170.209 666.86 Q173.288 662.253 179.098 662.253 Z" fill="#000000" fill-rule="evenodd" fill-opacity="1" /><path clip-path="url(#clip150)" d="M 0 0 M129.885 321.085 Q133.242 321.802 135.117 324.071 Q137.015 326.339 137.015 329.673 Q137.015 334.788 133.496 337.589 Q129.978 340.39 123.496 340.39 Q121.32 340.39 119.006 339.95 Q116.714 339.534 114.26 338.677 L114.26 334.163 Q116.205 335.297 118.519 335.876 Q120.834 336.455 123.357 336.455 Q127.755 336.455 130.047 334.719 Q132.362 332.983 132.362 329.673 Q132.362 326.617 130.209 324.904 Q128.08 323.168 124.26 323.168 L120.232 323.168 L120.232 319.325 L124.445 319.325 Q127.894 319.325 129.723 317.96 Q131.552 316.571 131.552 313.978 Q131.552 311.316 129.654 309.904 Q127.779 308.469 124.26 308.469 Q122.339 308.469 120.14 308.886 Q117.941 309.302 115.302 310.182 L115.302 306.015 Q117.964 305.275 120.279 304.904 Q122.617 304.534 124.677 304.534 Q130.001 304.534 133.103 306.964 Q136.204 309.372 136.204 313.492 Q136.204 316.362 134.561 318.353 Q132.917 320.321 129.885 321.085 Z" fill="#000000" fill-rule="evenodd" fill-opacity="1" /><path clip-path="url(#clip150)" d="M 0 0 M152.084 308.237 Q148.473 308.237 146.644 311.802 Q144.839 315.344 144.839 322.473 Q144.839 329.58 146.644 333.145 Q148.473 336.686 152.084 336.686 Q155.718 336.686 157.524 333.145 Q159.353 329.58 159.353 322.473 Q159.353 315.344 157.524 311.802 Q155.718 308.237 152.084 308.237 M152.084 304.534 Q157.894 304.534 160.95 309.14 Q164.028 313.724 164.028 322.473 Q164.028 331.2 160.95 335.807 Q157.894 340.39 152.084 340.39 Q146.274 340.39 143.195 335.807 Q140.14 331.2 140.14 322.473 Q140.14 313.724 143.195 309.14 Q146.274 304.534 152.084 304.534 Z" fill="#000000" fill-rule="evenodd" fill-opacity="1" /><path clip-path="url(#clip150)" d="M 0 0 M179.098 308.237 Q175.487 308.237 173.658 311.802 Q171.852 315.344 171.852 322.473 Q171.852 329.58 173.658 333.145 Q175.487 336.686 179.098 336.686 Q182.732 336.686 184.538 333.145 Q186.366 329.58 186.366 322.473 Q186.366 315.344 184.538 311.802 Q182.732 308.237 179.098 308.237 M179.098 304.534 Q184.908 304.534 187.963 309.14 Q191.042 313.724 191.042 322.473 Q191.042 331.2 187.963 335.807 Q184.908 340.39 179.098 340.39 Q173.288 340.39 170.209 335.807 Q167.153 331.2 167.153 322.473 Q167.153 313.724 170.209 309.14 Q173.288 304.534 179.098 304.534 Z" fill="#000000" fill-rule="evenodd" fill-opacity="1" /><path clip-path="url(#clip150)" d="M 0 0 M59.1993 815.533 Q55.2526 813.336 53.3747 810.281 Q51.4968 807.225 51.4968 803.088 Q51.4968 797.518 55.4117 794.494 Q59.2948 791.47 66.4881 791.47 L88.0042 791.47 L88.0042 797.358 L66.679 797.358 Q61.5546 797.358 59.072 799.173 Q56.5894 800.987 56.5894 804.711 Q56.5894 809.262 59.6131 811.904 Q62.6368 814.546 67.8567 814.546 L88.0042 814.546 L88.0042 820.434 L66.679 820.434 Q61.5228 820.434 59.072 822.248 Q56.5894 824.063 56.5894 827.85 Q56.5894 832.338 59.6449 834.98 Q62.6686 837.622 67.8567 837.622 L88.0042 837.622 L88.0042 843.51 L52.3562 843.51 L52.3562 837.622 L57.8944 837.622 Q54.616 835.616 53.0564 832.815 Q51.4968 830.015 51.4968 826.163 Q51.4968 822.28 53.4702 819.575 Q55.4436 816.838 59.1993 815.533 Z" fill="#000000" fill-rule="evenodd" fill-opacity="1" /><path clip-path="url(#clip150)" d="M 0 0 M52.3562 785.327 L52.3562 779.471 L88.0042 779.471 L88.0042 785.327 L52.3562 785.327 M38.479 785.327 L38.479 779.471 L45.895 779.471 L45.895 785.327 L38.479 785.327 Z" fill="#000000" fill-rule="evenodd" fill-opacity="1" /><path clip-path="url(#clip150)" d="M 0 0 M66.4881 743.696 L88.0042 743.696 L88.0042 749.552 L66.679 749.552 Q61.6183 749.552 59.1038 751.525 Q56.5894 753.499 56.5894 757.446 Q56.5894 762.188 59.6131 764.925 Q62.6368 767.662 67.8567 767.662 L88.0042 767.662 L88.0042 773.551 L52.3562 773.551 L52.3562 767.662 L57.8944 767.662 Q54.6797 765.562 53.0883 762.729 Q51.4968 759.864 51.4968 756.141 Q51.4968 749.998 55.3163 746.847 Q59.1038 743.696 66.4881 743.696 Z" fill="#000000" fill-rule="evenodd" fill-opacity="1" /><path clip-path="url(#clip150)" d="M 0 0 M98.8259 710.467 L103.377 710.467 L103.377 744.332 L98.8259 744.332 L98.8259 710.467 Z" fill="#000000" fill-rule="evenodd" fill-opacity="1" /><path clip-path="url(#clip150)" d="M 0 0 M57.7671 680.866 L38.479 680.866 L38.479 675.01 L88.0042 675.01 L88.0042 680.866 L82.657 680.866 Q85.8398 682.712 87.3994 685.545 Q88.9272 688.346 88.9272 692.292 Q88.9272 698.754 83.771 702.828 Q78.6147 706.87 70.212 706.87 Q61.8093 706.87 56.6531 702.828 Q51.4968 698.754 51.4968 692.292 Q51.4968 688.346 53.0564 685.545 Q54.5842 682.712 57.7671 680.866 M70.212 700.823 Q76.6732 700.823 80.3653 698.181 Q84.0256 695.507 84.0256 690.86 Q84.0256 686.213 80.3653 683.54 Q76.6732 680.866 70.212 680.866 Q63.7508 680.866 60.0905 683.54 Q56.3984 686.213 56.3984 690.86 Q56.3984 695.507 60.0905 698.181 Q63.7508 700.823 70.212 700.823 Z" fill="#000000" fill-rule="evenodd" fill-opacity="1" /><path clip-path="url(#clip150)" d="M 0 0 M52.3562 668.867 L52.3562 663.01 L88.0042 663.01 L88.0042 668.867 L52.3562 668.867 M38.479 668.867 L38.479 663.01 L45.895 663.01 L45.895 668.867 L38.479 668.867 Z" fill="#000000" fill-rule="evenodd" fill-opacity="1" /><path clip-path="url(#clip150)" d="M 0 0 M38.479 638.821 L43.3487 638.821 L43.3487 644.422 Q43.3487 647.573 44.6219 648.815 Q45.895 650.024 49.2052 650.024 L52.3562 650.024 L52.3562 640.38 L56.9077 640.38 L56.9077 650.024 L88.0042 650.024 L88.0042 655.912 L56.9077 655.912 L56.9077 661.514 L52.3562 661.514 L52.3562 655.912 L49.8736 655.912 Q43.9216 655.912 41.2162 653.143 Q38.479 650.374 38.479 644.359 L38.479 638.821 Z" fill="#000000" fill-rule="evenodd" fill-opacity="1" /><path clip-path="url(#clip150)" d="M 0 0 M38.479 614.631 L43.3487 614.631 L43.3487 620.233 Q43.3487 623.384 44.6219 624.625 Q45.895 625.835 49.2052 625.835 L52.3562 625.835 L52.3562 616.19 L56.9077 616.19 L56.9077 625.835 L88.0042 625.835 L88.0042 631.723 L56.9077 631.723 L56.9077 637.325 L52.3562 637.325 L52.3562 631.723 L49.8736 631.723 Q43.9216 631.723 41.2162 628.954 Q38.479 626.185 38.479 620.169 L38.479 614.631 Z" fill="#000000" fill-rule="evenodd" fill-opacity="1" /><polyline clip-path="url(#clip152)" style="stroke:#009af9; stroke-width:20; stroke-opacity:1; fill:none" stroke-dasharray="80, 50" points="
  287.204,85.838 1289.9,1152.98 1876.44,1372.3 2292.59,1357.27 
  "/>
<path clip-path="url(#clip150)" d="
M1994.69 213.659 L2281.9 213.659 L2281.9 92.6992 L1994.69 92.6992  Z
  " fill="#ffffff" fill-rule="evenodd" fill-opacity="1"/>
<polyline clip-path="url(#clip150)" style="stroke:#000000; stroke-width:4; stroke-opacity:1; fill:none" points="
  1994.69,213.659 2281.9,213.659 2281.9,92.6992 1994.69,92.6992 1994.69,213.659 
  "/>
<polyline clip-path="url(#clip150)" style="stroke:#009af9; stroke-width:4; stroke-opacity:1; fill:none" stroke-dasharray="16, 10" points="
  2018.31,153.179 2160.02,153.179 
  "/>
<path clip-path="url(#clip150)" d="M 0 0 M2197.48 172.867 Q2195.68 177.496 2193.97 178.908 Q2192.25 180.32 2189.38 180.32 L2185.98 180.32 L2185.98 176.755 L2188.48 176.755 Q2190.24 176.755 2191.21 175.922 Q2192.18 175.089 2193.36 171.987 L2194.13 170.043 L2183.64 144.533 L2188.16 144.533 L2196.26 164.811 L2204.36 144.533 L2208.87 144.533 L2197.48 172.867 Z" fill="#000000" fill-rule="evenodd" fill-opacity="1" /><path clip-path="url(#clip150)" d="M 0 0 M2214.75 166.524 L2222.39 166.524 L2222.39 140.158 L2214.08 141.825 L2214.08 137.566 L2222.35 135.899 L2227.02 135.899 L2227.02 166.524 L2234.66 166.524 L2234.66 170.459 L2214.75 170.459 L2214.75 166.524 Z" fill="#000000" fill-rule="evenodd" fill-opacity="1" /></svg>
