<?xml version="1.0" encoding="utf-8"?>
<svg xmlns="http://www.w3.org/2000/svg" xmlns:xlink="http://www.w3.org/1999/xlink" width="600" height="400" viewBox="0 0 2400 1600">
<defs>
  <clipPath id="clip990">
    <rect x="0" y="0" width="2400" height="1600"/>
  </clipPath>
</defs>
<path clip-path="url(#clip990)" d="
M0 1600 L2400 1600 L2400 0 L0 0  Z
  " fill="#ffffff" fill-rule="evenodd" fill-opacity="1"/>
<defs>
  <clipPath id="clip991">
    <rect x="480" y="0" width="1681" height="1600"/>
  </clipPath>
</defs>
<path clip-path="url(#clip990)" d="
M261.185 1410.9 L2352.76 1410.9 L2352.76 47.2441 L261.185 47.2441  Z
  " fill="#ffffff" fill-rule="evenodd" fill-opacity="1"/>
<defs>
  <clipPath id="clip992">
    <rect x="261" y="47" width="2093" height="1365"/>
  </clipPath>
</defs>
<polyline clip-path="url(#clip992)" style="stroke:#000000; stroke-width:2; stroke-opacity:0.1; fill:none" points="
  320.381,1410.9 320.381,47.2441 
  "/>
<polyline clip-path="url(#clip992)" style="stroke:#000000; stroke-width:2; stroke-opacity:0.1; fill:none" points="
  776.99,1410.9 776.99,47.2441 
  "/>
<polyline clip-path="url(#clip992)" style="stroke:#000000; stroke-width:2; stroke-opacity:0.1; fill:none" points="
  1233.6,1410.9 1233.6,47.2441 
  "/>
<polyline clip-path="url(#clip992)" style="stroke:#000000; stroke-width:2; stroke-opacity:0.1; fill:none" points="
  1690.21,1410.9 1690.21,47.2441 
  "/>
<polyline clip-path="url(#clip992)" style="stroke:#000000; stroke-width:2; stroke-opacity:0.1; fill:none" points="
  2146.82,1410.9 2146.82,47.2441 
  "/>
<polyline clip-path="url(#clip990)" style="stroke:#000000; stroke-width:4; stroke-opacity:1; fill:none" points="
  261.185,1410.9 2352.76,1410.9 
  "/>
<polyline clip-path="url(#clip990)" style="stroke:#000000; stroke-width:4; stroke-opacity:1; fill:none" points="
  320.381,1410.9 320.381,1394.53 
  "/>
<polyline clip-path="url(#clip990)" style="stroke:#000000; stroke-width:4; stroke-opacity:1; fill:none" points="
  776.99,1410.9 776.99,1394.53 
  "/>
<polyline clip-path="url(#clip990)" style="stroke:#000000; stroke-width:4; stroke-opacity:1; fill:none" points="
  1233.6,1410.9 1233.6,1394.53 
  "/>
<polyline clip-path="url(#clip990)" style="stroke:#000000; stroke-width:4; stroke-opacity:1; fill:none" points="
  1690.21,1410.9 1690.21,1394.53 
  "/>
<polyline clip-path="url(#clip990)" style="stroke:#000000; stroke-width:4; stroke-opacity:1; fill:none" points="
  2146.82,1410.9 2146.82,1394.53 
  "/>
<path clip-path="url(#clip990)" d="M 0 0 M251.374 1489.17 L259.013 1489.17 L259.013 1462.8 L250.703 1464.47 L250.703 1460.21 L258.967 1458.54 L263.643 1458.54 L263.643 1489.17 L271.282 1489.17 L271.282 1493.1 L251.374 1493.1 L251.374 1489.17 Z" fill="#000000" fill-rule="evenodd" fill-opacity="1" /><path clip-path="url(#clip990)" d="M 0 0 M286.351 1461.62 Q282.74 1461.62 280.911 1465.19 Q279.106 1468.73 279.106 1475.86 Q279.106 1482.97 280.911 1486.53 Q282.74 1490.07 286.351 1490.07 Q289.985 1490.07 291.791 1486.53 Q293.62 1482.97 293.62 1475.86 Q293.62 1468.73 291.791 1465.19 Q289.985 1461.62 286.351 1461.62 M286.351 1457.92 Q292.161 1457.92 295.217 1462.53 Q298.295 1467.11 298.295 1475.86 Q298.295 1484.59 295.217 1489.19 Q292.161 1493.78 286.351 1493.78 Q280.541 1493.78 277.462 1489.19 Q274.407 1484.59 274.407 1475.86 Q274.407 1467.11 277.462 1462.53 Q280.541 1457.92 286.351 1457.92 Z" fill="#000000" fill-rule="evenodd" fill-opacity="1" /><path clip-path="url(#clip990)" d="M 0 0 M302.866 1462.5 L316.125 1462.5 L316.125 1465.69 L298.295 1465.69 L298.295 1462.5 Q300.458 1460.26 304.182 1456.5 Q307.925 1452.72 308.884 1451.63 Q310.709 1449.58 311.423 1448.16 Q312.157 1446.74 312.157 1445.36 Q312.157 1443.12 310.577 1441.71 Q309.016 1440.3 306.496 1440.3 Q304.709 1440.3 302.715 1440.92 Q300.741 1441.54 298.484 1442.8 L298.484 1438.97 Q300.778 1438.05 302.772 1437.58 Q304.765 1437.11 306.42 1437.11 Q310.784 1437.11 313.379 1439.29 Q315.975 1441.47 315.975 1445.12 Q315.975 1446.85 315.317 1448.41 Q314.677 1449.95 312.966 1452.06 Q312.495 1452.6 309.975 1455.22 Q307.455 1457.81 302.866 1462.5 Z" fill="#000000" fill-rule="evenodd" fill-opacity="1" /><path clip-path="url(#clip990)" d="M 0 0 M320.244 1460.92 L324.213 1460.92 L324.213 1465.69 L320.244 1465.69 L320.244 1460.92 Z" fill="#000000" fill-rule="evenodd" fill-opacity="1" /><path clip-path="url(#clip990)" d="M 0 0 M336.456 1440.11 Q333.522 1440.11 332.037 1443.01 Q330.57 1445.89 330.57 1451.68 Q330.57 1457.46 332.037 1460.35 Q333.522 1463.23 336.456 1463.23 Q339.409 1463.23 340.876 1460.35 Q342.362 1457.46 342.362 1451.68 Q342.362 1445.89 340.876 1443.01 Q339.409 1440.11 336.456 1440.11 M336.456 1437.11 Q341.177 1437.11 343.66 1440.85 Q346.161 1444.57 346.161 1451.68 Q346.161 1458.77 343.66 1462.51 Q341.177 1466.24 336.456 1466.24 Q331.736 1466.24 329.234 1462.51 Q326.752 1458.77 326.752 1451.68 Q326.752 1444.57 329.234 1440.85 Q331.736 1437.11 336.456 1437.11 Z" fill="#000000" fill-rule="evenodd" fill-opacity="1" /><path clip-path="url(#clip990)" d="M 0 0 M358.405 1440.11 Q355.471 1440.11 353.985 1443.01 Q352.518 1445.89 352.518 1451.68 Q352.518 1457.46 353.985 1460.35 Q355.471 1463.23 358.405 1463.23 Q361.358 1463.23 362.825 1460.35 Q364.311 1457.46 364.311 1451.68 Q364.311 1445.89 362.825 1443.01 Q361.358 1440.11 358.405 1440.11 M358.405 1437.11 Q363.126 1437.11 365.609 1440.85 Q368.11 1444.57 368.11 1451.68 Q368.11 1458.77 365.609 1462.51 Q363.126 1466.24 358.405 1466.24 Q353.684 1466.24 351.183 1462.51 Q348.7 1458.77 348.7 1451.68 Q348.7 1444.57 351.183 1440.85 Q353.684 1437.11 358.405 1437.11 Z" fill="#000000" fill-rule="evenodd" fill-opacity="1" /><path clip-path="url(#clip990)" d="M 0 0 M380.354 1440.11 Q377.42 1440.11 375.934 1443.01 Q374.467 1445.89 374.467 1451.68 Q374.467 1457.46 375.934 1460.35 Q377.42 1463.23 380.354 1463.23 Q383.307 1463.23 384.774 1460.35 Q386.259 1457.46 386.259 1451.68 Q386.259 1445.89 384.774 1443.01 Q383.307 1440.11 380.354 1440.11 M380.354 1437.11 Q385.075 1437.11 387.557 1440.85 Q390.059 1444.57 390.059 1451.68 Q390.059 1458.77 387.557 1462.51 Q385.075 1466.24 380.354 1466.24 Q375.633 1466.24 373.132 1462.51 Q370.649 1458.77 370.649 1451.68 Q370.649 1444.57 373.132 1440.85 Q375.633 1437.11 380.354 1437.11 Z" fill="#000000" fill-rule="evenodd" fill-opacity="1" /><path clip-path="url(#clip990)" d="M 0 0 M708.482 1489.17 L716.121 1489.17 L716.121 1462.8 L707.811 1464.47 L707.811 1460.21 L716.075 1458.54 L720.751 1458.54 L720.751 1489.17 L728.389 1489.17 L728.389 1493.1 L708.482 1493.1 L708.482 1489.17 Z" fill="#000000" fill-rule="evenodd" fill-opacity="1" /><path clip-path="url(#clip990)" d="M 0 0 M743.459 1461.62 Q739.848 1461.62 738.019 1465.19 Q736.214 1468.73 736.214 1475.86 Q736.214 1482.97 738.019 1486.53 Q739.848 1490.07 743.459 1490.07 Q747.093 1490.07 748.899 1486.53 Q750.727 1482.97 750.727 1475.86 Q750.727 1468.73 748.899 1465.19 Q747.093 1461.62 743.459 1461.62 M743.459 1457.92 Q749.269 1457.92 752.325 1462.53 Q755.403 1467.11 755.403 1475.86 Q755.403 1484.59 752.325 1489.19 Q749.269 1493.78 743.459 1493.78 Q737.649 1493.78 734.57 1489.19 Q731.514 1484.59 731.514 1475.86 Q731.514 1467.11 734.57 1462.53 Q737.649 1457.92 743.459 1457.92 Z" fill="#000000" fill-rule="evenodd" fill-opacity="1" /><path clip-path="url(#clip990)" d="M 0 0 M759.974 1462.5 L773.233 1462.5 L773.233 1465.69 L755.403 1465.69 L755.403 1462.5 Q757.566 1460.26 761.29 1456.5 Q765.033 1452.72 765.992 1451.63 Q767.816 1449.58 768.531 1448.16 Q769.265 1446.74 769.265 1445.36 Q769.265 1443.12 767.685 1441.71 Q766.124 1440.3 763.603 1440.3 Q761.817 1440.3 759.823 1440.92 Q757.848 1441.54 755.591 1442.8 L755.591 1438.97 Q757.886 1438.05 759.879 1437.58 Q761.873 1437.11 763.528 1437.11 Q767.892 1437.11 770.487 1439.29 Q773.083 1441.47 773.083 1445.12 Q773.083 1446.85 772.424 1448.41 Q771.785 1449.95 770.073 1452.06 Q769.603 1452.6 767.083 1455.22 Q764.563 1457.81 759.974 1462.5 Z" fill="#000000" fill-rule="evenodd" fill-opacity="1" /><path clip-path="url(#clip990)" d="M 0 0 M777.352 1460.92 L781.32 1460.92 L781.32 1465.69 L777.352 1465.69 L777.352 1460.92 Z" fill="#000000" fill-rule="evenodd" fill-opacity="1" /><path clip-path="url(#clip990)" d="M 0 0 M793.564 1440.11 Q790.63 1440.11 789.144 1443.01 Q787.677 1445.89 787.677 1451.68 Q787.677 1457.46 789.144 1460.35 Q790.63 1463.23 793.564 1463.23 Q796.517 1463.23 797.984 1460.35 Q799.47 1457.46 799.47 1451.68 Q799.47 1445.89 797.984 1443.01 Q796.517 1440.11 793.564 1440.11 M793.564 1437.11 Q798.285 1437.11 800.768 1440.85 Q803.269 1444.57 803.269 1451.68 Q803.269 1458.77 800.768 1462.51 Q798.285 1466.24 793.564 1466.24 Q788.843 1466.24 786.342 1462.51 Q783.859 1458.77 783.859 1451.68 Q783.859 1444.57 786.342 1440.85 Q788.843 1437.11 793.564 1437.11 Z" fill="#000000" fill-rule="evenodd" fill-opacity="1" /><path clip-path="url(#clip990)" d="M 0 0 M815.513 1440.11 Q812.579 1440.11 811.093 1443.01 Q809.626 1445.89 809.626 1451.68 Q809.626 1457.46 811.093 1460.35 Q812.579 1463.23 815.513 1463.23 Q818.466 1463.23 819.933 1460.35 Q821.419 1457.46 821.419 1451.68 Q821.419 1445.89 819.933 1443.01 Q818.466 1440.11 815.513 1440.11 M815.513 1437.11 Q820.234 1437.11 822.716 1440.85 Q825.218 1444.57 825.218 1451.68 Q825.218 1458.77 822.716 1462.51 Q820.234 1466.24 815.513 1466.24 Q810.792 1466.24 808.291 1462.51 Q805.808 1458.77 805.808 1451.68 Q805.808 1444.57 808.291 1440.85 Q810.792 1437.11 815.513 1437.11 Z" fill="#000000" fill-rule="evenodd" fill-opacity="1" /><path clip-path="url(#clip990)" d="M 0 0 M829.995 1462.5 L836.201 1462.5 L836.201 1441.07 L829.449 1442.43 L829.449 1438.97 L836.164 1437.61 L839.963 1437.61 L839.963 1462.5 L846.17 1462.5 L846.17 1465.69 L829.995 1465.69 L829.995 1462.5 Z" fill="#000000" fill-rule="evenodd" fill-opacity="1" /><path clip-path="url(#clip990)" d="M 0 0 M1165.24 1489.17 L1172.88 1489.17 L1172.88 1462.8 L1164.57 1464.47 L1164.57 1460.21 L1172.83 1458.54 L1177.51 1458.54 L1177.51 1489.17 L1185.15 1489.17 L1185.15 1493.1 L1165.24 1493.1 L1165.24 1489.17 Z" fill="#000000" fill-rule="evenodd" fill-opacity="1" /><path clip-path="url(#clip990)" d="M 0 0 M1200.22 1461.62 Q1196.61 1461.62 1194.78 1465.19 Q1192.97 1468.73 1192.97 1475.86 Q1192.97 1482.97 1194.78 1486.53 Q1196.61 1490.07 1200.22 1490.07 Q1203.85 1490.07 1205.66 1486.53 Q1207.49 1482.97 1207.49 1475.86 Q1207.49 1468.73 1205.66 1465.19 Q1203.85 1461.62 1200.22 1461.62 M1200.22 1457.92 Q1206.03 1457.92 1209.08 1462.53 Q1212.16 1467.11 1212.16 1475.86 Q1212.16 1484.59 1209.08 1489.19 Q1206.03 1493.78 1200.22 1493.78 Q1194.41 1493.78 1191.33 1489.19 Q1188.27 1484.59 1188.27 1475.86 Q1188.27 1467.11 1191.33 1462.53 Q1194.41 1457.92 1200.22 1457.92 Z" fill="#000000" fill-rule="evenodd" fill-opacity="1" /><path clip-path="url(#clip990)" d="M 0 0 M1216.73 1462.5 L1229.99 1462.5 L1229.99 1465.69 L1212.16 1465.69 L1212.16 1462.5 Q1214.33 1460.26 1218.05 1456.5 Q1221.79 1452.72 1222.75 1451.63 Q1224.58 1449.58 1225.29 1448.16 Q1226.02 1446.74 1226.02 1445.36 Q1226.02 1443.12 1224.44 1441.71 Q1222.88 1440.3 1220.36 1440.3 Q1218.58 1440.3 1216.58 1440.92 Q1214.61 1441.54 1212.35 1442.8 L1212.35 1438.97 Q1214.65 1438.05 1216.64 1437.58 Q1218.63 1437.11 1220.29 1437.11 Q1224.65 1437.11 1227.25 1439.29 Q1229.84 1441.47 1229.84 1445.12 Q1229.84 1446.85 1229.18 1448.41 Q1228.54 1449.95 1226.83 1452.06 Q1226.36 1452.6 1223.84 1455.22 Q1221.32 1457.81 1216.73 1462.5 Z" fill="#000000" fill-rule="evenodd" fill-opacity="1" /><path clip-path="url(#clip990)" d="M 0 0 M1234.11 1460.92 L1238.08 1460.92 L1238.08 1465.69 L1234.11 1465.69 L1234.11 1460.92 Z" fill="#000000" fill-rule="evenodd" fill-opacity="1" /><path clip-path="url(#clip990)" d="M 0 0 M1250.32 1440.11 Q1247.39 1440.11 1245.9 1443.01 Q1244.44 1445.89 1244.44 1451.68 Q1244.44 1457.46 1245.9 1460.35 Q1247.39 1463.23 1250.32 1463.23 Q1253.28 1463.23 1254.74 1460.35 Q1256.23 1457.46 1256.23 1451.68 Q1256.23 1445.89 1254.74 1443.01 Q1253.28 1440.11 1250.32 1440.11 M1250.32 1437.11 Q1255.04 1437.11 1257.53 1440.85 Q1260.03 1444.57 1260.03 1451.68 Q1260.03 1458.77 1257.53 1462.51 Q1255.04 1466.24 1250.32 1466.24 Q1245.6 1466.24 1243.1 1462.51 Q1240.62 1458.77 1240.62 1451.68 Q1240.62 1444.57 1243.1 1440.85 Q1245.6 1437.11 1250.32 1437.11 Z" fill="#000000" fill-rule="evenodd" fill-opacity="1" /><path clip-path="url(#clip990)" d="M 0 0 M1272.27 1440.11 Q1269.34 1440.11 1267.85 1443.01 Q1266.39 1445.89 1266.39 1451.68 Q1266.39 1457.46 1267.85 1460.35 Q1269.34 1463.23 1272.27 1463.23 Q1275.23 1463.23 1276.69 1460.35 Q1278.18 1457.46 1278.18 1451.68 Q1278.18 1445.89 1276.69 1443.01 Q1275.23 1440.11 1272.27 1440.11 M1272.27 1437.11 Q1276.99 1437.11 1279.48 1440.85 Q1281.98 1444.57 1281.98 1451.68 Q1281.98 1458.77 1279.48 1462.51 Q1276.99 1466.24 1272.27 1466.24 Q1267.55 1466.24 1265.05 1462.51 Q1262.57 1458.77 1262.57 1451.68 Q1262.57 1444.57 1265.05 1440.85 Q1267.55 1437.11 1272.27 1437.11 Z" fill="#000000" fill-rule="evenodd" fill-opacity="1" /><path clip-path="url(#clip990)" d="M 0 0 M1289.37 1462.5 L1302.63 1462.5 L1302.63 1465.69 L1284.8 1465.69 L1284.8 1462.5 Q1286.96 1460.26 1290.69 1456.5 Q1294.43 1452.72 1295.39 1451.63 Q1297.21 1449.58 1297.93 1448.16 Q1298.66 1446.74 1298.66 1445.36 Q1298.66 1443.12 1297.08 1441.71 Q1295.52 1440.3 1293 1440.3 Q1291.21 1440.3 1289.22 1440.92 Q1287.24 1441.54 1284.99 1442.8 L1284.99 1438.97 Q1287.28 1438.05 1289.27 1437.58 Q1291.27 1437.11 1292.92 1437.11 Q1297.29 1437.11 1299.88 1439.29 Q1302.48 1441.47 1302.48 1445.12 Q1302.48 1446.85 1301.82 1448.41 Q1301.18 1449.95 1299.47 1452.06 Q1299 1452.6 1296.48 1455.22 Q1293.96 1457.81 1289.37 1462.5 Z" fill="#000000" fill-rule="evenodd" fill-opacity="1" /><path clip-path="url(#clip990)" d="M 0 0 M1621.47 1489.17 L1629.1 1489.17 L1629.1 1462.8 L1620.79 1464.47 L1620.79 1460.21 L1629.06 1458.54 L1633.73 1458.54 L1633.73 1489.17 L1641.37 1489.17 L1641.37 1493.1 L1621.47 1493.1 L1621.47 1489.17 Z" fill="#000000" fill-rule="evenodd" fill-opacity="1" /><path clip-path="url(#clip990)" d="M 0 0 M1656.44 1461.62 Q1652.83 1461.62 1651 1465.19 Q1649.2 1468.73 1649.2 1475.86 Q1649.2 1482.97 1651 1486.53 Q1652.83 1490.07 1656.44 1490.07 Q1660.08 1490.07 1661.88 1486.53 Q1663.71 1482.97 1663.71 1475.86 Q1663.71 1468.73 1661.88 1465.19 Q1660.08 1461.62 1656.44 1461.62 M1656.44 1457.92 Q1662.25 1457.92 1665.31 1462.53 Q1668.39 1467.11 1668.39 1475.86 Q1668.39 1484.59 1665.31 1489.19 Q1662.25 1493.78 1656.44 1493.78 Q1650.63 1493.78 1647.55 1489.19 Q1644.5 1484.59 1644.5 1475.86 Q1644.5 1467.11 1647.55 1462.53 Q1650.63 1457.92 1656.44 1457.92 Z" fill="#000000" fill-rule="evenodd" fill-opacity="1" /><path clip-path="url(#clip990)" d="M 0 0 M1672.96 1462.5 L1686.22 1462.5 L1686.22 1465.69 L1668.39 1465.69 L1668.39 1462.5 Q1670.55 1460.26 1674.27 1456.5 Q1678.02 1452.72 1678.98 1451.63 Q1680.8 1449.58 1681.51 1448.16 Q1682.25 1446.74 1682.25 1445.36 Q1682.25 1443.12 1680.67 1441.71 Q1679.11 1440.3 1676.59 1440.3 Q1674.8 1440.3 1672.81 1440.92 Q1670.83 1441.54 1668.57 1442.8 L1668.57 1438.97 Q1670.87 1438.05 1672.86 1437.58 Q1674.86 1437.11 1676.51 1437.11 Q1680.88 1437.11 1683.47 1439.29 Q1686.07 1441.47 1686.07 1445.12 Q1686.07 1446.85 1685.41 1448.41 Q1684.77 1449.95 1683.06 1452.06 Q1682.59 1452.6 1680.07 1455.22 Q1677.55 1457.81 1672.96 1462.5 Z" fill="#000000" fill-rule="evenodd" fill-opacity="1" /><path clip-path="url(#clip990)" d="M 0 0 M1690.34 1460.92 L1694.3 1460.92 L1694.3 1465.69 L1690.34 1465.69 L1690.34 1460.92 Z" fill="#000000" fill-rule="evenodd" fill-opacity="1" /><path clip-path="url(#clip990)" d="M 0 0 M1706.55 1440.11 Q1703.61 1440.11 1702.13 1443.01 Q1700.66 1445.89 1700.66 1451.68 Q1700.66 1457.46 1702.13 1460.35 Q1703.61 1463.23 1706.55 1463.23 Q1709.5 1463.23 1710.97 1460.35 Q1712.45 1457.46 1712.45 1451.68 Q1712.45 1445.89 1710.97 1443.01 Q1709.5 1440.11 1706.55 1440.11 M1706.55 1437.11 Q1711.27 1437.11 1713.75 1440.85 Q1716.25 1444.57 1716.25 1451.68 Q1716.25 1458.77 1713.75 1462.51 Q1711.27 1466.24 1706.55 1466.24 Q1701.83 1466.24 1699.33 1462.51 Q1696.84 1458.77 1696.84 1451.68 Q1696.84 1444.57 1699.33 1440.85 Q1701.83 1437.11 1706.55 1437.11 Z" fill="#000000" fill-rule="evenodd" fill-opacity="1" /><path clip-path="url(#clip990)" d="M 0 0 M1728.5 1440.11 Q1725.56 1440.11 1724.08 1443.01 Q1722.61 1445.89 1722.61 1451.68 Q1722.61 1457.46 1724.08 1460.35 Q1725.56 1463.23 1728.5 1463.23 Q1731.45 1463.23 1732.92 1460.35 Q1734.4 1457.46 1734.4 1451.68 Q1734.4 1445.89 1732.92 1443.01 Q1731.45 1440.11 1728.5 1440.11 M1728.5 1437.11 Q1733.22 1437.11 1735.7 1440.85 Q1738.2 1444.57 1738.2 1451.68 Q1738.2 1458.77 1735.7 1462.51 Q1733.22 1466.24 1728.5 1466.24 Q1723.78 1466.24 1721.27 1462.51 Q1718.79 1458.77 1718.79 1451.68 Q1718.79 1444.57 1721.27 1440.85 Q1723.78 1437.11 1728.5 1437.11 Z" fill="#000000" fill-rule="evenodd" fill-opacity="1" /><path clip-path="url(#clip990)" d="M 0 0 M1753.83 1450.55 Q1756.56 1451.14 1758.08 1452.98 Q1759.62 1454.82 1759.62 1457.53 Q1759.62 1461.69 1756.76 1463.96 Q1753.91 1466.24 1748.64 1466.24 Q1746.87 1466.24 1744.99 1465.88 Q1743.13 1465.54 1741.14 1464.85 L1741.14 1461.18 Q1742.72 1462.1 1744.6 1462.57 Q1746.48 1463.04 1748.53 1463.04 Q1752.1 1463.04 1753.96 1461.63 Q1755.84 1460.22 1755.84 1457.53 Q1755.84 1455.05 1754.09 1453.66 Q1752.36 1452.25 1749.26 1452.25 L1745.99 1452.25 L1745.99 1449.12 L1749.41 1449.12 Q1752.21 1449.12 1753.7 1448.01 Q1755.18 1446.89 1755.18 1444.78 Q1755.18 1442.62 1753.64 1441.47 Q1752.12 1440.3 1749.26 1440.3 Q1747.7 1440.3 1745.91 1440.64 Q1744.13 1440.98 1741.98 1441.69 L1741.98 1438.31 Q1744.14 1437.71 1746.03 1437.41 Q1747.92 1437.11 1749.6 1437.11 Q1753.92 1437.11 1756.44 1439.08 Q1758.97 1441.04 1758.97 1444.38 Q1758.97 1446.72 1757.63 1448.33 Q1756.29 1449.93 1753.83 1450.55 Z" fill="#000000" fill-rule="evenodd" fill-opacity="1" /><path clip-path="url(#clip990)" d="M 0 0 M2077.61 1489.17 L2085.25 1489.17 L2085.25 1462.8 L2076.94 1464.47 L2076.94 1460.21 L2085.21 1458.54 L2089.88 1458.54 L2089.88 1489.17 L2097.52 1489.17 L2097.52 1493.1 L2077.61 1493.1 L2077.61 1489.17 Z" fill="#000000" fill-rule="evenodd" fill-opacity="1" /><path clip-path="url(#clip990)" d="M 0 0 M2112.59 1461.62 Q2108.98 1461.62 2107.15 1465.19 Q2105.35 1468.73 2105.35 1475.86 Q2105.35 1482.97 2107.15 1486.53 Q2108.98 1490.07 2112.59 1490.07 Q2116.23 1490.07 2118.03 1486.53 Q2119.86 1482.97 2119.86 1475.86 Q2119.86 1468.73 2118.03 1465.19 Q2116.23 1461.62 2112.59 1461.62 M2112.59 1457.92 Q2118.4 1457.92 2121.46 1462.53 Q2124.54 1467.11 2124.54 1475.86 Q2124.54 1484.59 2121.46 1489.19 Q2118.4 1493.78 2112.59 1493.78 Q2106.78 1493.78 2103.7 1489.19 Q2100.65 1484.59 2100.65 1475.86 Q2100.65 1467.11 2103.7 1462.53 Q2106.78 1457.92 2112.59 1457.92 Z" fill="#000000" fill-rule="evenodd" fill-opacity="1" /><path clip-path="url(#clip990)" d="M 0 0 M2129.11 1462.5 L2142.37 1462.5 L2142.37 1465.69 L2124.54 1465.69 L2124.54 1462.5 Q2126.7 1460.26 2130.42 1456.5 Q2134.16 1452.72 2135.12 1451.63 Q2136.95 1449.58 2137.66 1448.16 Q2138.4 1446.74 2138.4 1445.36 Q2138.4 1443.12 2136.82 1441.71 Q2135.26 1440.3 2132.74 1440.3 Q2130.95 1440.3 2128.96 1440.92 Q2126.98 1441.54 2124.72 1442.8 L2124.72 1438.97 Q2127.02 1438.05 2129.01 1437.58 Q2131.01 1437.11 2132.66 1437.11 Q2137.02 1437.11 2139.62 1439.29 Q2142.21 1441.47 2142.21 1445.12 Q2142.21 1446.85 2141.56 1448.41 Q2140.92 1449.95 2139.21 1452.06 Q2138.74 1452.6 2136.22 1455.22 Q2133.69 1457.81 2129.11 1462.5 Z" fill="#000000" fill-rule="evenodd" fill-opacity="1" /><path clip-path="url(#clip990)" d="M 0 0 M2146.48 1460.92 L2150.45 1460.92 L2150.45 1465.69 L2146.48 1465.69 L2146.48 1460.92 Z" fill="#000000" fill-rule="evenodd" fill-opacity="1" /><path clip-path="url(#clip990)" d="M 0 0 M2162.7 1440.11 Q2159.76 1440.11 2158.28 1443.01 Q2156.81 1445.89 2156.81 1451.68 Q2156.81 1457.46 2158.28 1460.35 Q2159.76 1463.23 2162.7 1463.23 Q2165.65 1463.23 2167.12 1460.35 Q2168.6 1457.46 2168.6 1451.68 Q2168.6 1445.89 2167.12 1443.01 Q2165.65 1440.11 2162.7 1440.11 M2162.7 1437.11 Q2167.42 1437.11 2169.9 1440.85 Q2172.4 1444.57 2172.4 1451.68 Q2172.4 1458.77 2169.9 1462.51 Q2167.42 1466.24 2162.7 1466.24 Q2157.98 1466.24 2155.47 1462.51 Q2152.99 1458.77 2152.99 1451.68 Q2152.99 1444.57 2155.47 1440.85 Q2157.98 1437.11 2162.7 1437.11 Z" fill="#000000" fill-rule="evenodd" fill-opacity="1" /><path clip-path="url(#clip990)" d="M 0 0 M2184.65 1440.11 Q2181.71 1440.11 2180.23 1443.01 Q2178.76 1445.89 2178.76 1451.68 Q2178.76 1457.46 2180.23 1460.35 Q2181.71 1463.23 2184.65 1463.23 Q2187.6 1463.23 2189.06 1460.35 Q2190.55 1457.46 2190.55 1451.68 Q2190.55 1445.89 2189.06 1443.01 Q2187.6 1440.11 2184.65 1440.11 M2184.65 1437.11 Q2189.37 1437.11 2191.85 1440.85 Q2194.35 1444.57 2194.35 1451.68 Q2194.35 1458.77 2191.85 1462.51 Q2189.37 1466.24 2184.65 1466.24 Q2179.92 1466.24 2177.42 1462.51 Q2174.94 1458.77 2174.94 1451.68 Q2174.94 1444.57 2177.42 1440.85 Q2179.92 1437.11 2184.65 1437.11 Z" fill="#000000" fill-rule="evenodd" fill-opacity="1" /><path clip-path="url(#clip990)" d="M 0 0 M2208.91 1440.92 L2199.32 1455.91 L2208.91 1455.91 L2208.91 1440.92 M2207.91 1437.61 L2212.69 1437.61 L2212.69 1455.91 L2216.69 1455.91 L2216.69 1459.07 L2212.69 1459.07 L2212.69 1465.69 L2208.91 1465.69 L2208.91 1459.07 L2196.23 1459.07 L2196.23 1455.41 L2207.91 1437.61 Z" fill="#000000" fill-rule="evenodd" fill-opacity="1" /><path clip-path="url(#clip990)" d="M 0 0 M1275.7 1519.95 L1275.7 1556.9 L1283.47 1556.9 Q1293.3 1556.9 1297.85 1552.45 Q1302.44 1547.99 1302.44 1538.38 Q1302.44 1528.83 1297.85 1524.4 Q1293.3 1519.95 1283.47 1519.95 L1275.7 1519.95 M1269.27 1514.67 L1282.48 1514.67 Q1296.29 1514.67 1302.75 1520.43 Q1309.21 1526.16 1309.21 1538.38 Q1309.21 1550.66 1302.72 1556.42 Q1296.23 1562.19 1282.48 1562.19 L1269.27 1562.19 L1269.27 1514.67 Z" fill="#000000" fill-rule="evenodd" fill-opacity="1" /><path clip-path="url(#clip990)" d="M 0 0 M1317.3 1556.77 L1327.8 1556.77 L1327.8 1520.52 L1316.38 1522.81 L1316.38 1516.96 L1327.74 1514.67 L1334.17 1514.67 L1334.17 1556.77 L1344.67 1556.77 L1344.67 1562.19 L1317.3 1562.19 L1317.3 1556.77 Z" fill="#000000" fill-rule="evenodd" fill-opacity="1" /><polyline clip-path="url(#clip992)" style="stroke:#000000; stroke-width:2; stroke-opacity:0.1; fill:none" points="
  261.185,1371.43 2352.76,1371.43 
  "/>
<polyline clip-path="url(#clip992)" style="stroke:#000000; stroke-width:2; stroke-opacity:0.1; fill:none" points="
  261.185,1049.82 2352.76,1049.82 
  "/>
<polyline clip-path="url(#clip992)" style="stroke:#000000; stroke-width:2; stroke-opacity:0.1; fill:none" points="
  261.185,728.202 2352.76,728.202 
  "/>
<polyline clip-path="url(#clip992)" style="stroke:#000000; stroke-width:2; stroke-opacity:0.1; fill:none" points="
  261.185,406.586 2352.76,406.586 
  "/>
<polyline clip-path="url(#clip992)" style="stroke:#000000; stroke-width:2; stroke-opacity:0.1; fill:none" points="
  261.185,84.9694 2352.76,84.9694 
  "/>
<polyline clip-path="url(#clip990)" style="stroke:#000000; stroke-width:4; stroke-opacity:1; fill:none" points="
  261.185,1410.9 261.185,47.2441 
  "/>
<polyline clip-path="url(#clip990)" style="stroke:#000000; stroke-width:4; stroke-opacity:1; fill:none" points="
  261.185,1371.43 286.284,1371.43 
  "/>
<polyline clip-path="url(#clip990)" style="stroke:#000000; stroke-width:4; stroke-opacity:1; fill:none" points="
  261.185,1049.82 286.284,1049.82 
  "/>
<polyline clip-path="url(#clip990)" style="stroke:#000000; stroke-width:4; stroke-opacity:1; fill:none" points="
  261.185,728.202 286.284,728.202 
  "/>
<polyline clip-path="url(#clip990)" style="stroke:#000000; stroke-width:4; stroke-opacity:1; fill:none" points="
  261.185,406.586 286.284,406.586 
  "/>
<polyline clip-path="url(#clip990)" style="stroke:#000000; stroke-width:4; stroke-opacity:1; fill:none" points="
  261.185,84.9694 286.284,84.9694 
  "/>
<path clip-path="url(#clip990)" d="M 0 0 M115.881 1384.78 L123.519 1384.78 L123.519 1358.41 L115.209 1360.08 L115.209 1355.82 L123.473 1354.15 L128.149 1354.15 L128.149 1384.78 L135.788 1384.78 L135.788 1388.71 L115.881 1388.71 L115.881 1384.78 Z" fill="#000000" fill-rule="evenodd" fill-opacity="1" /><path clip-path="url(#clip990)" d="M 0 0 M144.885 1384.78 L161.204 1384.78 L161.204 1388.71 L139.26 1388.71 L139.26 1384.78 Q141.922 1382.02 146.505 1377.39 Q151.112 1372.74 152.292 1371.4 Q154.538 1368.88 155.417 1367.14 Q156.32 1365.38 156.32 1363.69 Q156.32 1360.94 154.376 1359.2 Q152.454 1357.46 149.353 1357.46 Q147.153 1357.46 144.7 1358.23 Q142.269 1358.99 139.492 1360.54 L139.492 1355.82 Q142.316 1354.69 144.769 1354.11 Q147.223 1353.53 149.26 1353.53 Q154.63 1353.53 157.825 1356.21 Q161.019 1358.9 161.019 1363.39 Q161.019 1365.52 160.209 1367.44 Q159.422 1369.34 157.315 1371.93 Q156.737 1372.6 153.635 1375.82 Q150.533 1379.02 144.885 1384.78 Z" fill="#000000" fill-rule="evenodd" fill-opacity="1" /><path clip-path="url(#clip990)" d="M 0 0 M166.274 1382.83 L171.158 1382.83 L171.158 1388.71 L166.274 1388.71 L166.274 1382.83 Z" fill="#000000" fill-rule="evenodd" fill-opacity="1" /><path clip-path="url(#clip990)" d="M 0 0 M186.227 1357.23 Q182.616 1357.23 180.788 1360.8 Q178.982 1364.34 178.982 1371.47 Q178.982 1378.58 180.788 1382.14 Q182.616 1385.68 186.227 1385.68 Q189.862 1385.68 191.667 1382.14 Q193.496 1378.58 193.496 1371.47 Q193.496 1364.34 191.667 1360.8 Q189.862 1357.23 186.227 1357.23 M186.227 1353.53 Q192.038 1353.53 195.093 1358.14 Q198.172 1362.72 198.172 1371.47 Q198.172 1380.2 195.093 1384.8 Q192.038 1389.39 186.227 1389.39 Q180.417 1389.39 177.339 1384.8 Q174.283 1380.2 174.283 1371.47 Q174.283 1362.72 177.339 1358.14 Q180.417 1353.53 186.227 1353.53 Z" fill="#000000" fill-rule="evenodd" fill-opacity="1" /><path clip-path="url(#clip990)" d="M 0 0 M213.241 1357.23 Q209.63 1357.23 207.801 1360.8 Q205.996 1364.34 205.996 1371.47 Q205.996 1378.58 207.801 1382.14 Q209.63 1385.68 213.241 1385.68 Q216.875 1385.68 218.681 1382.14 Q220.51 1378.58 220.51 1371.47 Q220.51 1364.34 218.681 1360.8 Q216.875 1357.23 213.241 1357.23 M213.241 1353.53 Q219.051 1353.53 222.107 1358.14 Q225.185 1362.72 225.185 1371.47 Q225.185 1380.2 222.107 1384.8 Q219.051 1389.39 213.241 1389.39 Q207.431 1389.39 204.352 1384.8 Q201.297 1380.2 201.297 1371.47 Q201.297 1362.72 204.352 1358.14 Q207.431 1353.53 213.241 1353.53 Z" fill="#000000" fill-rule="evenodd" fill-opacity="1" /><path clip-path="url(#clip990)" d="M 0 0 M118.473 1063.16 L126.112 1063.16 L126.112 1036.8 L117.802 1038.46 L117.802 1034.2 L126.066 1032.54 L130.742 1032.54 L130.742 1063.16 L138.38 1063.16 L138.38 1067.1 L118.473 1067.1 L118.473 1063.16 Z" fill="#000000" fill-rule="evenodd" fill-opacity="1" /><path clip-path="url(#clip990)" d="M 0 0 M147.478 1063.16 L163.797 1063.16 L163.797 1067.1 L141.853 1067.1 L141.853 1063.16 Q144.515 1060.41 149.098 1055.78 Q153.704 1051.13 154.885 1049.78 Q157.13 1047.26 158.01 1045.52 Q158.913 1043.76 158.913 1042.07 Q158.913 1039.32 156.968 1037.58 Q155.047 1035.85 151.945 1035.85 Q149.746 1035.85 147.292 1036.61 Q144.862 1037.38 142.084 1038.93 L142.084 1034.2 Q144.908 1033.07 147.362 1032.49 Q149.816 1031.91 151.853 1031.91 Q157.223 1031.91 160.417 1034.6 Q163.612 1037.28 163.612 1041.77 Q163.612 1043.9 162.802 1045.82 Q162.015 1047.72 159.908 1050.32 Q159.329 1050.99 156.228 1054.2 Q153.126 1057.4 147.478 1063.16 Z" fill="#000000" fill-rule="evenodd" fill-opacity="1" /><path clip-path="url(#clip990)" d="M 0 0 M168.866 1061.22 L173.751 1061.22 L173.751 1067.1 L168.866 1067.1 L168.866 1061.22 Z" fill="#000000" fill-rule="evenodd" fill-opacity="1" /><path clip-path="url(#clip990)" d="M 0 0 M182.848 1063.16 L199.167 1063.16 L199.167 1067.1 L177.223 1067.1 L177.223 1063.16 Q179.885 1060.41 184.468 1055.78 Q189.075 1051.13 190.255 1049.78 Q192.5 1047.26 193.38 1045.52 Q194.283 1043.76 194.283 1042.07 Q194.283 1039.32 192.338 1037.58 Q190.417 1035.85 187.315 1035.85 Q185.116 1035.85 182.663 1036.61 Q180.232 1037.38 177.454 1038.93 L177.454 1034.2 Q180.278 1033.07 182.732 1032.49 Q185.186 1031.91 187.223 1031.91 Q192.593 1031.91 195.787 1034.6 Q198.982 1037.28 198.982 1041.77 Q198.982 1043.9 198.172 1045.82 Q197.385 1047.72 195.278 1050.32 Q194.7 1050.99 191.598 1054.2 Q188.496 1057.4 182.848 1063.16 Z" fill="#000000" fill-rule="evenodd" fill-opacity="1" /><path clip-path="url(#clip990)" d="M 0 0 M204.283 1032.54 L222.639 1032.54 L222.639 1036.47 L208.565 1036.47 L208.565 1044.95 Q209.584 1044.6 210.602 1044.44 Q211.621 1044.25 212.639 1044.25 Q218.426 1044.25 221.806 1047.42 Q225.185 1050.59 225.185 1056.01 Q225.185 1061.59 221.713 1064.69 Q218.241 1067.77 211.922 1067.77 Q209.746 1067.77 207.477 1067.4 Q205.232 1067.03 202.824 1066.29 L202.824 1061.59 Q204.908 1062.72 207.13 1063.28 Q209.352 1063.83 211.829 1063.83 Q215.834 1063.83 218.172 1061.73 Q220.51 1059.62 220.51 1056.01 Q220.51 1052.4 218.172 1050.29 Q215.834 1048.19 211.829 1048.19 Q209.954 1048.19 208.079 1048.6 Q206.227 1049.02 204.283 1049.9 L204.283 1032.54 Z" fill="#000000" fill-rule="evenodd" fill-opacity="1" /><path clip-path="url(#clip990)" d="M 0 0 M116.876 741.547 L124.515 741.547 L124.515 715.181 L116.205 716.848 L116.205 712.588 L124.468 710.922 L129.144 710.922 L129.144 741.547 L136.783 741.547 L136.783 745.482 L116.876 745.482 L116.876 741.547 Z" fill="#000000" fill-rule="evenodd" fill-opacity="1" /><path clip-path="url(#clip990)" d="M 0 0 M145.88 741.547 L162.2 741.547 L162.2 745.482 L140.255 745.482 L140.255 741.547 Q142.917 738.792 147.501 734.162 Q152.107 729.51 153.288 728.167 Q155.533 725.644 156.413 723.908 Q157.315 722.149 157.315 720.459 Q157.315 717.704 155.371 715.968 Q153.45 714.232 150.348 714.232 Q148.149 714.232 145.695 714.996 Q143.265 715.76 140.487 717.311 L140.487 712.588 Q143.311 711.454 145.765 710.875 Q148.218 710.297 150.255 710.297 Q155.626 710.297 158.82 712.982 Q162.015 715.667 162.015 720.158 Q162.015 722.287 161.204 724.209 Q160.417 726.107 158.311 728.699 Q157.732 729.371 154.63 732.588 Q151.528 735.783 145.88 741.547 Z" fill="#000000" fill-rule="evenodd" fill-opacity="1" /><path clip-path="url(#clip990)" d="M 0 0 M167.269 739.602 L172.153 739.602 L172.153 745.482 L167.269 745.482 L167.269 739.602 Z" fill="#000000" fill-rule="evenodd" fill-opacity="1" /><path clip-path="url(#clip990)" d="M 0 0 M177.269 710.922 L195.625 710.922 L195.625 714.857 L181.551 714.857 L181.551 723.329 Q182.57 722.982 183.588 722.82 Q184.607 722.635 185.626 722.635 Q191.413 722.635 194.792 725.806 Q198.172 728.977 198.172 734.394 Q198.172 739.973 194.7 743.074 Q191.227 746.153 184.908 746.153 Q182.732 746.153 180.464 745.783 Q178.218 745.412 175.811 744.672 L175.811 739.973 Q177.894 741.107 180.116 741.662 Q182.338 742.218 184.815 742.218 Q188.82 742.218 191.158 740.111 Q193.496 738.005 193.496 734.394 Q193.496 730.783 191.158 728.676 Q188.82 726.57 184.815 726.57 Q182.94 726.57 181.065 726.986 Q179.214 727.403 177.269 728.283 L177.269 710.922 Z" fill="#000000" fill-rule="evenodd" fill-opacity="1" /><path clip-path="url(#clip990)" d="M 0 0 M213.241 714 Q209.63 714 207.801 717.565 Q205.996 721.107 205.996 728.236 Q205.996 735.343 207.801 738.908 Q209.63 742.449 213.241 742.449 Q216.875 742.449 218.681 738.908 Q220.51 735.343 220.51 728.236 Q220.51 721.107 218.681 717.565 Q216.875 714 213.241 714 M213.241 710.297 Q219.051 710.297 222.107 714.903 Q225.185 719.487 225.185 728.236 Q225.185 736.963 222.107 741.57 Q219.051 746.153 213.241 746.153 Q207.431 746.153 204.352 741.57 Q201.297 736.963 201.297 728.236 Q201.297 719.487 204.352 714.903 Q207.431 710.297 213.241 710.297 Z" fill="#000000" fill-rule="evenodd" fill-opacity="1" /><path clip-path="url(#clip990)" d="M 0 0 M117.779 419.93 L125.418 419.93 L125.418 393.565 L117.107 395.231 L117.107 390.972 L125.371 389.306 L130.047 389.306 L130.047 419.93 L137.686 419.93 L137.686 423.866 L117.779 423.866 L117.779 419.93 Z" fill="#000000" fill-rule="evenodd" fill-opacity="1" /><path clip-path="url(#clip990)" d="M 0 0 M146.783 419.93 L163.102 419.93 L163.102 423.866 L141.158 423.866 L141.158 419.93 Q143.82 417.176 148.403 412.546 Q153.01 407.893 154.19 406.551 Q156.436 404.028 157.315 402.292 Q158.218 400.532 158.218 398.843 Q158.218 396.088 156.274 394.352 Q154.353 392.616 151.251 392.616 Q149.052 392.616 146.598 393.38 Q144.167 394.144 141.39 395.694 L141.39 390.972 Q144.214 389.838 146.667 389.259 Q149.121 388.681 151.158 388.681 Q156.528 388.681 159.723 391.366 Q162.917 394.051 162.917 398.542 Q162.917 400.671 162.107 402.593 Q161.32 404.491 159.214 407.083 Q158.635 407.755 155.533 410.972 Q152.431 414.167 146.783 419.93 Z" fill="#000000" fill-rule="evenodd" fill-opacity="1" /><path clip-path="url(#clip990)" d="M 0 0 M168.172 417.986 L173.056 417.986 L173.056 423.866 L168.172 423.866 L168.172 417.986 Z" fill="#000000" fill-rule="evenodd" fill-opacity="1" /><path clip-path="url(#clip990)" d="M 0 0 M176.945 389.306 L199.167 389.306 L199.167 391.296 L186.621 423.866 L181.737 423.866 L193.542 393.241 L176.945 393.241 L176.945 389.306 Z" fill="#000000" fill-rule="evenodd" fill-opacity="1" /><path clip-path="url(#clip990)" d="M 0 0 M204.283 389.306 L222.639 389.306 L222.639 393.241 L208.565 393.241 L208.565 401.713 Q209.584 401.366 210.602 401.204 Q211.621 401.018 212.639 401.018 Q218.426 401.018 221.806 404.19 Q225.185 407.361 225.185 412.778 Q225.185 418.356 221.713 421.458 Q218.241 424.537 211.922 424.537 Q209.746 424.537 207.477 424.167 Q205.232 423.796 202.824 423.055 L202.824 418.356 Q204.908 419.491 207.13 420.046 Q209.352 420.602 211.829 420.602 Q215.834 420.602 218.172 418.495 Q220.51 416.389 220.51 412.778 Q220.51 409.167 218.172 407.06 Q215.834 404.954 211.829 404.954 Q209.954 404.954 208.079 405.37 Q206.227 405.787 204.283 406.667 L204.283 389.306 Z" fill="#000000" fill-rule="evenodd" fill-opacity="1" /><path clip-path="url(#clip990)" d="M 0 0 M114.931 98.3142 L122.57 98.3142 L122.57 71.9486 L114.26 73.6153 L114.26 69.3561 L122.524 67.6894 L127.2 67.6894 L127.2 98.3142 L134.839 98.3142 L134.839 102.249 L114.931 102.249 L114.931 98.3142 Z" fill="#000000" fill-rule="evenodd" fill-opacity="1" /><path clip-path="url(#clip990)" d="M 0 0 M154.075 83.6153 Q157.431 84.3328 159.306 86.6013 Q161.204 88.8699 161.204 92.2032 Q161.204 97.3189 157.686 100.12 Q154.167 102.921 147.686 102.921 Q145.51 102.921 143.195 102.481 Q140.904 102.064 138.45 101.208 L138.45 96.6939 Q140.394 97.8281 142.709 98.4068 Q145.024 98.9855 147.547 98.9855 Q151.945 98.9855 154.237 97.2494 Q156.552 95.5133 156.552 92.2032 Q156.552 89.1476 154.399 87.4347 Q152.269 85.6986 148.45 85.6986 L144.422 85.6986 L144.422 81.856 L148.635 81.856 Q152.084 81.856 153.913 80.4903 Q155.741 79.1014 155.741 76.5088 Q155.741 73.8468 153.843 72.4348 Q151.968 70.9996 148.45 70.9996 Q146.529 70.9996 144.329 71.4162 Q142.13 71.8329 139.492 72.7125 L139.492 68.5459 Q142.154 67.8052 144.468 67.4348 Q146.806 67.0644 148.866 67.0644 Q154.19 67.0644 157.292 69.495 Q160.394 71.9024 160.394 76.0227 Q160.394 78.8931 158.751 80.8838 Q157.107 82.8514 154.075 83.6153 Z" fill="#000000" fill-rule="evenodd" fill-opacity="1" /><path clip-path="url(#clip990)" d="M 0 0 M166.274 96.3698 L171.158 96.3698 L171.158 102.249 L166.274 102.249 L166.274 96.3698 Z" fill="#000000" fill-rule="evenodd" fill-opacity="1" /><path clip-path="url(#clip990)" d="M 0 0 M186.227 70.7681 Q182.616 70.7681 180.788 74.3329 Q178.982 77.8745 178.982 85.0041 Q178.982 92.1106 180.788 95.6754 Q182.616 99.217 186.227 99.217 Q189.862 99.217 191.667 95.6754 Q193.496 92.1106 193.496 85.0041 Q193.496 77.8745 191.667 74.3329 Q189.862 70.7681 186.227 70.7681 M186.227 67.0644 Q192.038 67.0644 195.093 71.6709 Q198.172 76.2542 198.172 85.0041 Q198.172 93.7309 195.093 98.3374 Q192.038 102.921 186.227 102.921 Q180.417 102.921 177.339 98.3374 Q174.283 93.7309 174.283 85.0041 Q174.283 76.2542 177.339 71.6709 Q180.417 67.0644 186.227 67.0644 Z" fill="#000000" fill-rule="evenodd" fill-opacity="1" /><path clip-path="url(#clip990)" d="M 0 0 M213.241 70.7681 Q209.63 70.7681 207.801 74.3329 Q205.996 77.8745 205.996 85.0041 Q205.996 92.1106 207.801 95.6754 Q209.63 99.217 213.241 99.217 Q216.875 99.217 218.681 95.6754 Q220.51 92.1106 220.51 85.0041 Q220.51 77.8745 218.681 74.3329 Q216.875 70.7681 213.241 70.7681 M213.241 67.0644 Q219.051 67.0644 222.107 71.6709 Q225.185 76.2542 225.185 85.0041 Q225.185 93.7309 222.107 98.3374 Q219.051 102.921 213.241 102.921 Q207.431 102.921 204.352 98.3374 Q201.297 93.7309 201.297 85.0041 Q201.297 76.2542 204.352 71.6709 Q207.431 67.0644 213.241 67.0644 Z" fill="#000000" fill-rule="evenodd" fill-opacity="1" /><path clip-path="url(#clip990)" d="M 0 0 M59.1993 815.533 Q55.2526 813.336 53.3747 810.281 Q51.4968 807.225 51.4968 803.088 Q51.4968 797.518 55.4117 794.494 Q59.2948 791.47 66.4881 791.47 L88.0042 791.47 L88.0042 797.358 L66.679 797.358 Q61.5546 797.358 59.072 799.173 Q56.5894 800.987 56.5894 804.711 Q56.5894 809.262 59.6131 811.904 Q62.6368 814.546 67.8567 814.546 L88.0042 814.546 L88.0042 820.434 L66.679 820.434 Q61.5228 820.434 59.072 822.248 Q56.5894 824.063 56.5894 827.85 Q56.5894 832.338 59.6449 834.98 Q62.6686 837.622 67.8567 837.622 L88.0042 837.622 L88.0042 843.51 L52.3562 843.51 L52.3562 837.622 L57.8944 837.622 Q54.616 835.616 53.0564 832.815 Q51.4968 830.015 51.4968 826.163 Q51.4968 822.28 53.4702 819.575 Q55.4436 816.838 59.1993 815.533 Z" fill="#000000" fill-rule="evenodd" fill-opacity="1" /><path clip-path="url(#clip990)" d="M 0 0 M52.3562 785.327 L52.3562 779.471 L88.0042 779.471 L88.0042 785.327 L52.3562 785.327 M38.479 785.327 L38.479 779.471 L45.895 779.471 L45.895 785.327 L38.479 785.327 Z" fill="#000000" fill-rule="evenodd" fill-opacity="1" /><path clip-path="url(#clip990)" d="M 0 0 M66.4881 743.696 L88.0042 743.696 L88.0042 749.552 L66.679 749.552 Q61.6183 749.552 59.1038 751.525 Q56.5894 753.499 56.5894 757.446 Q56.5894 762.188 59.6131 764.925 Q62.6368 767.662 67.8567 767.662 L88.0042 767.662 L88.0042 773.551 L52.3562 773.551 L52.3562 767.662 L57.8944 767.662 Q54.6797 765.562 53.0883 762.729 Q51.4968 759.864 51.4968 756.141 Q51.4968 749.998 55.3163 746.847 Q59.1038 743.696 66.4881 743.696 Z" fill="#000000" fill-rule="evenodd" fill-opacity="1" /><path clip-path="url(#clip990)" d="M 0 0 M98.8259 710.467 L103.377 710.467 L103.377 744.332 L98.8259 744.332 L98.8259 710.467 Z" fill="#000000" fill-rule="evenodd" fill-opacity="1" /><path clip-path="url(#clip990)" d="M 0 0 M57.7671 680.866 L38.479 680.866 L38.479 675.01 L88.0042 675.01 L88.0042 680.866 L82.657 680.866 Q85.8398 682.712 87.3994 685.545 Q88.9272 688.346 88.9272 692.292 Q88.9272 698.754 83.771 702.828 Q78.6147 706.87 70.212 706.87 Q61.8093 706.87 56.6531 702.828 Q51.4968 698.754 51.4968 692.292 Q51.4968 688.346 53.0564 685.545 Q54.5842 682.712 57.7671 680.866 M70.212 700.823 Q76.6732 700.823 80.3653 698.181 Q84.0256 695.507 84.0256 690.86 Q84.0256 686.213 80.3653 683.54 Q76.6732 680.866 70.212 680.866 Q63.7508 680.866 60.0905 683.54 Q56.3984 686.213 56.3984 690.86 Q56.3984 695.507 60.0905 698.181 Q63.7508 700.823 70.212 700.823 Z" fill="#000000" fill-rule="evenodd" fill-opacity="1" /><path clip-path="url(#clip990)" d="M 0 0 M52.3562 668.867 L52.3562 663.01 L88.0042 663.01 L88.0042 668.867 L52.3562 668.867 M38.479 668.867 L38.479 663.01 L45.895 663.01 L45.895 668.867 L38.479 668.867 Z" fill="#000000" fill-rule="evenodd" fill-opacity="1" /><path clip-path="url(#clip990)" d="M 0 0 M38.479 638.821 L43.3487 638.821 L43.3487 644.422 Q43.3487 647.573 44.6219 648.815 Q45.895 650.024 49.2052 650.024 L52.3562 650.024 L52.3562 640.38 L56.9077 640.38 L56.9077 650.024 L88.0042 650.024 L88.0042 655.912 L56.9077 655.912 L56.9077 661.514 L52.3562 661.514 L52.3562 655.912 L49.8736 655.912 Q43.9216 655.912 41.2162 653.143 Q38.479 650.374 38.479 644.359 L38.479 638.821 Z" fill="#000000" fill-rule="evenodd" fill-opacity="1" /><path clip-path="url(#clip990)" d="M 0 0 M38.479 614.631 L43.3487 614.631 L43.3487 620.233 Q43.3487 623.384 44.6219 624.625 Q45.895 625.835 49.2052 625.835 L52.3562 625.835 L52.3562 616.19 L56.9077 616.19 L56.9077 625.835 L88.0042 625.835 L88.0042 631.723 L56.9077 631.723 L56.9077 637.325 L52.3562 637.325 L52.3562 631.723 L49.8736 631.723 Q43.9216 631.723 41.2162 628.954 Q38.479 626.185 38.479 620.169 L38.479 614.631 Z" fill="#000000" fill-rule="evenodd" fill-opacity="1" /><path clip-path="url(#clip990)" d="
M1999.62 213.659 L2283.04 213.659 L2283.04 92.6992 L1999.62 92.6992  Z
  " fill="#ffffff" fill-rule="evenodd" fill-opacity="1"/>
<polyline clip-path="url(#clip990)" style="stroke:#000000; stroke-width:4; stroke-opacity:1; fill:none" points="
  1999.62,213.659 2283.04,213.659 2283.04,92.6992 1999.62,92.6992 1999.62,213.659 
  "/>
<polyline clip-path="url(#clip990)" style="stroke:#009af9; stroke-width:4; stroke-opacity:1; fill:none" stroke-dasharray="16, 10" points="
  2022.86,153.179 2162.3,153.179 
  "/>
<path clip-path="url(#clip990)" d="M 0 0 M2199.38 172.867 Q2197.58 177.496 2195.86 178.908 Q2194.15 180.32 2191.28 180.32 L2187.88 180.32 L2187.88 176.755 L2190.38 176.755 Q2192.14 176.755 2193.11 175.922 Q2194.08 175.089 2195.26 171.987 L2196.03 170.043 L2185.54 144.533 L2190.05 144.533 L2198.15 164.811 L2206.26 144.533 L2210.77 144.533 L2199.38 172.867 Z" fill="#000000" fill-rule="evenodd" fill-opacity="1" /><path clip-path="url(#clip990)" d="M 0 0 M2216.65 166.524 L2224.29 166.524 L2224.29 140.158 L2215.98 141.825 L2215.98 137.566 L2224.24 135.899 L2228.92 135.899 L2228.92 166.524 L2236.56 166.524 L2236.56 170.459 L2216.65 170.459 L2216.65 166.524 Z" fill="#000000" fill-rule="evenodd" fill-opacity="1" /></svg>
