<?xml version="1.0" encoding="utf-8"?>
<svg xmlns="http://www.w3.org/2000/svg" xmlns:xlink="http://www.w3.org/1999/xlink" width="600" height="400" viewBox="0 0 2400 1600">
<defs>
  <clipPath id="clip890">
    <rect x="0" y="0" width="2400" height="1600"/>
  </clipPath>
</defs>
<path clip-path="url(#clip890)" d="
M0 1600 L2400 1600 L2400 0 L0 0  Z
  " fill="#ffffff" fill-rule="evenodd" fill-opacity="1"/>
<defs>
  <clipPath id="clip891">
    <rect x="480" y="0" width="1681" height="1600"/>
  </clipPath>
</defs>
<path clip-path="url(#clip890)" d="
M256.486 1410.9 L2352.76 1410.9 L2352.76 47.2441 L256.486 47.2441  Z
  " fill="#ffffff" fill-rule="evenodd" fill-opacity="1"/>
<defs>
  <clipPath id="clip892">
    <rect x="256" y="47" width="2097" height="1365"/>
  </clipPath>
</defs>
<polyline clip-path="url(#clip892)" style="stroke:#000000; stroke-width:2; stroke-opacity:0.1; fill:none" points="
  628.633,1410.9 628.633,47.2441 
  "/>
<polyline clip-path="url(#clip892)" style="stroke:#000000; stroke-width:2; stroke-opacity:0.1; fill:none" points="
  1148.21,1410.9 1148.21,47.2441 
  "/>
<polyline clip-path="url(#clip892)" style="stroke:#000000; stroke-width:2; stroke-opacity:0.1; fill:none" points="
  1667.79,1410.9 1667.79,47.2441 
  "/>
<polyline clip-path="url(#clip892)" style="stroke:#000000; stroke-width:2; stroke-opacity:0.1; fill:none" points="
  2187.37,1410.9 2187.37,47.2441 
  "/>
<polyline clip-path="url(#clip890)" style="stroke:#000000; stroke-width:4; stroke-opacity:1; fill:none" points="
  256.486,1410.9 2352.76,1410.9 
  "/>
<polyline clip-path="url(#clip890)" style="stroke:#000000; stroke-width:4; stroke-opacity:1; fill:none" points="
  628.633,1410.9 628.633,1394.53 
  "/>
<polyline clip-path="url(#clip890)" style="stroke:#000000; stroke-width:4; stroke-opacity:1; fill:none" points="
  1148.21,1410.9 1148.21,1394.53 
  "/>
<polyline clip-path="url(#clip890)" style="stroke:#000000; stroke-width:4; stroke-opacity:1; fill:none" points="
  1667.79,1410.9 1667.79,1394.53 
  "/>
<polyline clip-path="url(#clip890)" style="stroke:#000000; stroke-width:4; stroke-opacity:1; fill:none" points="
  2187.37,1410.9 2187.37,1394.53 
  "/>
<path clip-path="url(#clip890)" d="M 0 0 M580.785 1489.17 L588.424 1489.17 L588.424 1462.8 L580.114 1464.47 L580.114 1460.21 L588.378 1458.54 L593.054 1458.54 L593.054 1489.17 L600.692 1489.17 L600.692 1493.1 L580.785 1493.1 L580.785 1489.17 Z" fill="#000000" fill-rule="evenodd" fill-opacity="1" /><path clip-path="url(#clip890)" d="M 0 0 M615.762 1461.62 Q612.151 1461.62 610.322 1465.19 Q608.516 1468.73 608.516 1475.86 Q608.516 1482.97 610.322 1486.53 Q612.151 1490.07 615.762 1490.07 Q619.396 1490.07 621.202 1486.53 Q623.03 1482.97 623.03 1475.86 Q623.03 1468.73 621.202 1465.19 Q619.396 1461.62 615.762 1461.62 M615.762 1457.92 Q621.572 1457.92 624.627 1462.53 Q627.706 1467.11 627.706 1475.86 Q627.706 1484.59 624.627 1489.19 Q621.572 1493.78 615.762 1493.78 Q609.952 1493.78 606.873 1489.19 Q603.817 1484.59 603.817 1475.86 Q603.817 1467.11 606.873 1462.53 Q609.952 1457.92 615.762 1457.92 Z" fill="#000000" fill-rule="evenodd" fill-opacity="1" /><path clip-path="url(#clip890)" d="M 0 0 M637.411 1440.11 Q634.477 1440.11 632.991 1443.01 Q631.524 1445.89 631.524 1451.68 Q631.524 1457.46 632.991 1460.35 Q634.477 1463.23 637.411 1463.23 Q640.364 1463.23 641.831 1460.35 Q643.317 1457.46 643.317 1451.68 Q643.317 1445.89 641.831 1443.01 Q640.364 1440.11 637.411 1440.11 M637.411 1437.11 Q642.132 1437.11 644.614 1440.85 Q647.116 1444.57 647.116 1451.68 Q647.116 1458.77 644.614 1462.51 Q642.132 1466.24 637.411 1466.24 Q632.69 1466.24 630.189 1462.51 Q627.706 1458.77 627.706 1451.68 Q627.706 1444.57 630.189 1440.85 Q632.69 1437.11 637.411 1437.11 Z" fill="#000000" fill-rule="evenodd" fill-opacity="1" /><path clip-path="url(#clip890)" d="M 0 0 M651.235 1460.92 L655.203 1460.92 L655.203 1465.69 L651.235 1465.69 L651.235 1460.92 Z" fill="#000000" fill-rule="evenodd" fill-opacity="1" /><path clip-path="url(#clip890)" d="M 0 0 M667.447 1440.11 Q664.513 1440.11 663.027 1443.01 Q661.56 1445.89 661.56 1451.68 Q661.56 1457.46 663.027 1460.35 Q664.513 1463.23 667.447 1463.23 Q670.4 1463.23 671.867 1460.35 Q673.353 1457.46 673.353 1451.68 Q673.353 1445.89 671.867 1443.01 Q670.4 1440.11 667.447 1440.11 M667.447 1437.11 Q672.168 1437.11 674.65 1440.85 Q677.152 1444.57 677.152 1451.68 Q677.152 1458.77 674.65 1462.51 Q672.168 1466.24 667.447 1466.24 Q662.726 1466.24 660.225 1462.51 Q657.742 1458.77 657.742 1451.68 Q657.742 1444.57 660.225 1440.85 Q662.726 1437.11 667.447 1437.11 Z" fill="#000000" fill-rule="evenodd" fill-opacity="1" /><path clip-path="url(#clip890)" d="M 0 0 M1100.77 1489.17 L1108.41 1489.17 L1108.41 1462.8 L1100.1 1464.47 L1100.1 1460.21 L1108.36 1458.54 L1113.04 1458.54 L1113.04 1489.17 L1120.68 1489.17 L1120.68 1493.1 L1100.77 1493.1 L1100.77 1489.17 Z" fill="#000000" fill-rule="evenodd" fill-opacity="1" /><path clip-path="url(#clip890)" d="M 0 0 M1135.75 1461.62 Q1132.13 1461.62 1130.31 1465.19 Q1128.5 1468.73 1128.5 1475.86 Q1128.5 1482.97 1130.31 1486.53 Q1132.13 1490.07 1135.75 1490.07 Q1139.38 1490.07 1141.19 1486.53 Q1143.01 1482.97 1143.01 1475.86 Q1143.01 1468.73 1141.19 1465.19 Q1139.38 1461.62 1135.75 1461.62 M1135.75 1457.92 Q1141.56 1457.92 1144.61 1462.53 Q1147.69 1467.11 1147.69 1475.86 Q1147.69 1484.59 1144.61 1489.19 Q1141.56 1493.78 1135.75 1493.78 Q1129.94 1493.78 1126.86 1489.19 Q1123.8 1484.59 1123.8 1475.86 Q1123.8 1467.11 1126.86 1462.53 Q1129.94 1457.92 1135.75 1457.92 Z" fill="#000000" fill-rule="evenodd" fill-opacity="1" /><path clip-path="url(#clip890)" d="M 0 0 M1157.39 1440.11 Q1154.46 1440.11 1152.97 1443.01 Q1151.51 1445.89 1151.51 1451.68 Q1151.51 1457.46 1152.97 1460.35 Q1154.46 1463.23 1157.39 1463.23 Q1160.35 1463.23 1161.81 1460.35 Q1163.3 1457.46 1163.3 1451.68 Q1163.3 1445.89 1161.81 1443.01 Q1160.35 1440.11 1157.39 1440.11 M1157.39 1437.11 Q1162.12 1437.11 1164.6 1440.85 Q1167.1 1444.57 1167.1 1451.68 Q1167.1 1458.77 1164.6 1462.51 Q1162.12 1466.24 1157.39 1466.24 Q1152.67 1466.24 1150.17 1462.51 Q1147.69 1458.77 1147.69 1451.68 Q1147.69 1444.57 1150.17 1440.85 Q1152.67 1437.11 1157.39 1437.11 Z" fill="#000000" fill-rule="evenodd" fill-opacity="1" /><path clip-path="url(#clip890)" d="M 0 0 M1171.22 1460.92 L1175.19 1460.92 L1175.19 1465.69 L1171.22 1465.69 L1171.22 1460.92 Z" fill="#000000" fill-rule="evenodd" fill-opacity="1" /><path clip-path="url(#clip890)" d="M 0 0 M1179.34 1437.61 L1194.26 1437.61 L1194.26 1440.81 L1182.82 1440.81 L1182.82 1447.69 Q1183.65 1447.41 1184.48 1447.28 Q1185.31 1447.13 1186.13 1447.13 Q1190.83 1447.13 1193.58 1449.71 Q1196.33 1452.28 1196.33 1456.68 Q1196.33 1461.22 1193.51 1463.74 Q1190.68 1466.24 1185.55 1466.24 Q1183.78 1466.24 1181.94 1465.94 Q1180.11 1465.64 1178.16 1465.04 L1178.16 1461.22 Q1179.85 1462.14 1181.66 1462.59 Q1183.46 1463.04 1185.47 1463.04 Q1188.73 1463.04 1190.63 1461.33 Q1192.53 1459.62 1192.53 1456.68 Q1192.53 1453.75 1190.63 1452.04 Q1188.73 1450.33 1185.47 1450.33 Q1183.95 1450.33 1182.43 1450.67 Q1180.92 1451 1179.34 1451.72 L1179.34 1437.61 Z" fill="#000000" fill-rule="evenodd" fill-opacity="1" /><path clip-path="url(#clip890)" d="M 0 0 M1621.29 1489.17 L1628.93 1489.17 L1628.93 1462.8 L1620.62 1464.47 L1620.62 1460.21 L1628.88 1458.54 L1633.56 1458.54 L1633.56 1489.17 L1641.2 1489.17 L1641.2 1493.1 L1621.29 1493.1 L1621.29 1489.17 Z" fill="#000000" fill-rule="evenodd" fill-opacity="1" /><path clip-path="url(#clip890)" d="M 0 0 M1656.27 1461.62 Q1652.65 1461.62 1650.83 1465.19 Q1649.02 1468.73 1649.02 1475.86 Q1649.02 1482.97 1650.83 1486.53 Q1652.65 1490.07 1656.27 1490.07 Q1659.9 1490.07 1661.71 1486.53 Q1663.53 1482.97 1663.53 1475.86 Q1663.53 1468.73 1661.71 1465.19 Q1659.9 1461.62 1656.27 1461.62 M1656.27 1457.92 Q1662.08 1457.92 1665.13 1462.53 Q1668.21 1467.11 1668.21 1475.86 Q1668.21 1484.59 1665.13 1489.19 Q1662.08 1493.78 1656.27 1493.78 Q1650.46 1493.78 1647.38 1489.19 Q1644.32 1484.59 1644.32 1475.86 Q1644.32 1467.11 1647.38 1462.53 Q1650.46 1457.92 1656.27 1457.92 Z" fill="#000000" fill-rule="evenodd" fill-opacity="1" /><path clip-path="url(#clip890)" d="M 0 0 M1668.76 1462.5 L1674.96 1462.5 L1674.96 1441.07 L1668.21 1442.43 L1668.21 1438.97 L1674.92 1437.61 L1678.72 1437.61 L1678.72 1462.5 L1684.93 1462.5 L1684.93 1465.69 L1668.76 1465.69 L1668.76 1462.5 Z" fill="#000000" fill-rule="evenodd" fill-opacity="1" /><path clip-path="url(#clip890)" d="M 0 0 M1689.05 1460.92 L1693.02 1460.92 L1693.02 1465.69 L1689.05 1465.69 L1689.05 1460.92 Z" fill="#000000" fill-rule="evenodd" fill-opacity="1" /><path clip-path="url(#clip890)" d="M 0 0 M1705.26 1440.11 Q1702.33 1440.11 1700.84 1443.01 Q1699.37 1445.89 1699.37 1451.68 Q1699.37 1457.46 1700.84 1460.35 Q1702.33 1463.23 1705.26 1463.23 Q1708.21 1463.23 1709.68 1460.35 Q1711.17 1457.46 1711.17 1451.68 Q1711.17 1445.89 1709.68 1443.01 Q1708.21 1440.11 1705.26 1440.11 M1705.26 1437.11 Q1709.98 1437.11 1712.46 1440.85 Q1714.97 1444.57 1714.97 1451.68 Q1714.97 1458.77 1712.46 1462.51 Q1709.98 1466.24 1705.26 1466.24 Q1700.54 1466.24 1698.04 1462.51 Q1695.56 1458.77 1695.56 1451.68 Q1695.56 1444.57 1698.04 1440.85 Q1700.54 1437.11 1705.26 1437.11 Z" fill="#000000" fill-rule="evenodd" fill-opacity="1" /><path clip-path="url(#clip890)" d="M 0 0 M2141.27 1489.17 L2148.91 1489.17 L2148.91 1462.8 L2140.6 1464.47 L2140.6 1460.21 L2148.86 1458.54 L2153.54 1458.54 L2153.54 1489.17 L2161.18 1489.17 L2161.18 1493.1 L2141.27 1493.1 L2141.27 1489.17 Z" fill="#000000" fill-rule="evenodd" fill-opacity="1" /><path clip-path="url(#clip890)" d="M 0 0 M2176.25 1461.62 Q2172.64 1461.62 2170.81 1465.19 Q2169 1468.73 2169 1475.86 Q2169 1482.97 2170.81 1486.53 Q2172.64 1490.07 2176.25 1490.07 Q2179.88 1490.07 2181.69 1486.53 Q2183.52 1482.97 2183.52 1475.86 Q2183.52 1468.73 2181.69 1465.19 Q2179.88 1461.62 2176.25 1461.62 M2176.25 1457.92 Q2182.06 1457.92 2185.11 1462.53 Q2188.19 1467.11 2188.19 1475.86 Q2188.19 1484.59 2185.11 1489.19 Q2182.06 1493.78 2176.25 1493.78 Q2170.44 1493.78 2167.36 1489.19 Q2164.3 1484.59 2164.3 1475.86 Q2164.3 1467.11 2167.36 1462.53 Q2170.44 1457.92 2176.25 1457.92 Z" fill="#000000" fill-rule="evenodd" fill-opacity="1" /><path clip-path="url(#clip890)" d="M 0 0 M2188.74 1462.5 L2194.95 1462.5 L2194.95 1441.07 L2188.19 1442.43 L2188.19 1438.97 L2194.91 1437.61 L2198.71 1437.61 L2198.71 1462.5 L2204.91 1462.5 L2204.91 1465.69 L2188.74 1465.69 L2188.74 1462.5 Z" fill="#000000" fill-rule="evenodd" fill-opacity="1" /><path clip-path="url(#clip890)" d="M 0 0 M2209.03 1460.92 L2213 1460.92 L2213 1465.69 L2209.03 1465.69 L2209.03 1460.92 Z" fill="#000000" fill-rule="evenodd" fill-opacity="1" /><path clip-path="url(#clip890)" d="M 0 0 M2217.16 1437.61 L2232.07 1437.61 L2232.07 1440.81 L2220.64 1440.81 L2220.64 1447.69 Q2221.46 1447.41 2222.29 1447.28 Q2223.12 1447.13 2223.95 1447.13 Q2228.65 1447.13 2231.39 1449.71 Q2234.14 1452.28 2234.14 1456.68 Q2234.14 1461.22 2231.32 1463.74 Q2228.5 1466.24 2223.36 1466.24 Q2221.6 1466.24 2219.75 1465.94 Q2217.93 1465.64 2215.97 1465.04 L2215.97 1461.22 Q2217.67 1462.14 2219.47 1462.59 Q2221.28 1463.04 2223.29 1463.04 Q2226.54 1463.04 2228.44 1461.33 Q2230.34 1459.62 2230.34 1456.68 Q2230.34 1453.75 2228.44 1452.04 Q2226.54 1450.33 2223.29 1450.33 Q2221.77 1450.33 2220.24 1450.67 Q2218.74 1451 2217.16 1451.72 L2217.16 1437.61 Z" fill="#000000" fill-rule="evenodd" fill-opacity="1" /><path clip-path="url(#clip890)" d="M 0 0 M1295.1 1559.99 L1295.1 1575.74 L1289.22 1575.74 L1289.22 1526.76 Q1289.22 1512.25 1302.78 1512.25 Q1316.59 1512.25 1316.59 1524.5 Q1316.59 1533.22 1311.11 1536.4 Q1320.03 1539.27 1320.03 1547.77 Q1320.03 1562.85 1304.68 1562.85 Q1297.94 1562.85 1295.1 1559.99 M1295.1 1552.35 Q1298.64 1557.86 1304.91 1557.86 Q1314.07 1557.86 1314.07 1547.86 Q1314.07 1538.89 1299.31 1539.59 L1299.31 1534.18 Q1310.86 1534.18 1310.86 1523.99 Q1310.86 1517.02 1303.41 1517.02 Q1295.1 1517.02 1295.1 1526.95 L1295.1 1552.35 Z" fill="#000000" fill-rule="evenodd" fill-opacity="1" /><polyline clip-path="url(#clip892)" style="stroke:#000000; stroke-width:2; stroke-opacity:0.1; fill:none" points="
  256.486,1389.44 2352.76,1389.44 
  "/>
<polyline clip-path="url(#clip892)" style="stroke:#000000; stroke-width:2; stroke-opacity:0.1; fill:none" points="
  256.486,1117.5 2352.76,1117.5 
  "/>
<polyline clip-path="url(#clip892)" style="stroke:#000000; stroke-width:2; stroke-opacity:0.1; fill:none" points="
  256.486,845.553 2352.76,845.553 
  "/>
<polyline clip-path="url(#clip892)" style="stroke:#000000; stroke-width:2; stroke-opacity:0.1; fill:none" points="
  256.486,573.609 2352.76,573.609 
  "/>
<polyline clip-path="url(#clip892)" style="stroke:#000000; stroke-width:2; stroke-opacity:0.1; fill:none" points="
  256.486,301.664 2352.76,301.664 
  "/>
<polyline clip-path="url(#clip890)" style="stroke:#000000; stroke-width:4; stroke-opacity:1; fill:none" points="
  256.486,1410.9 256.486,47.2441 
  "/>
<polyline clip-path="url(#clip890)" style="stroke:#000000; stroke-width:4; stroke-opacity:1; fill:none" points="
  256.486,1389.44 281.642,1389.44 
  "/>
<polyline clip-path="url(#clip890)" style="stroke:#000000; stroke-width:4; stroke-opacity:1; fill:none" points="
  256.486,1117.5 281.642,1117.5 
  "/>
<polyline clip-path="url(#clip890)" style="stroke:#000000; stroke-width:4; stroke-opacity:1; fill:none" points="
  256.486,845.553 281.642,845.553 
  "/>
<polyline clip-path="url(#clip890)" style="stroke:#000000; stroke-width:4; stroke-opacity:1; fill:none" points="
  256.486,573.609 281.642,573.609 
  "/>
<polyline clip-path="url(#clip890)" style="stroke:#000000; stroke-width:4; stroke-opacity:1; fill:none" points="
  256.486,301.664 281.642,301.664 
  "/>
<path clip-path="url(#clip890)" d="M 0 0 M208.542 1375.24 Q204.931 1375.24 203.102 1378.81 Q201.297 1382.35 201.297 1389.48 Q201.297 1396.58 203.102 1400.15 Q204.931 1403.69 208.542 1403.69 Q212.176 1403.69 213.982 1400.15 Q215.811 1396.58 215.811 1389.48 Q215.811 1382.35 213.982 1378.81 Q212.176 1375.24 208.542 1375.24 M208.542 1371.54 Q214.352 1371.54 217.408 1376.14 Q220.486 1380.73 220.486 1389.48 Q220.486 1398.2 217.408 1402.81 Q214.352 1407.39 208.542 1407.39 Q202.732 1407.39 199.653 1402.81 Q196.598 1398.2 196.598 1389.48 Q196.598 1380.73 199.653 1376.14 Q202.732 1371.54 208.542 1371.54 Z" fill="#000000" fill-rule="evenodd" fill-opacity="1" /><path clip-path="url(#clip890)" d="M 0 0 M119.538 1130.84 L127.177 1130.84 L127.177 1104.48 L118.867 1106.14 L118.867 1101.88 L127.13 1100.22 L131.806 1100.22 L131.806 1130.84 L139.445 1130.84 L139.445 1134.78 L119.538 1134.78 L119.538 1130.84 Z" fill="#000000" fill-rule="evenodd" fill-opacity="1" /><path clip-path="url(#clip890)" d="M 0 0 M154.515 1103.3 Q150.903 1103.3 149.075 1106.86 Q147.269 1110.4 147.269 1117.53 Q147.269 1124.64 149.075 1128.2 Q150.903 1131.75 154.515 1131.75 Q158.149 1131.75 159.954 1128.2 Q161.783 1124.64 161.783 1117.53 Q161.783 1110.4 159.954 1106.86 Q158.149 1103.3 154.515 1103.3 M154.515 1099.59 Q160.325 1099.59 163.38 1104.2 Q166.459 1108.78 166.459 1117.53 Q166.459 1126.26 163.38 1130.87 Q160.325 1135.45 154.515 1135.45 Q148.704 1135.45 145.626 1130.87 Q142.57 1126.26 142.57 1117.53 Q142.57 1108.78 145.626 1104.2 Q148.704 1099.59 154.515 1099.59 Z" fill="#000000" fill-rule="evenodd" fill-opacity="1" /><path clip-path="url(#clip890)" d="M 0 0 M181.528 1103.3 Q177.917 1103.3 176.089 1106.86 Q174.283 1110.4 174.283 1117.53 Q174.283 1124.64 176.089 1128.2 Q177.917 1131.75 181.528 1131.75 Q185.163 1131.75 186.968 1128.2 Q188.797 1124.64 188.797 1117.53 Q188.797 1110.4 186.968 1106.86 Q185.163 1103.3 181.528 1103.3 M181.528 1099.59 Q187.338 1099.59 190.394 1104.2 Q193.473 1108.78 193.473 1117.53 Q193.473 1126.26 190.394 1130.87 Q187.338 1135.45 181.528 1135.45 Q175.718 1135.45 172.639 1130.87 Q169.584 1126.26 169.584 1117.53 Q169.584 1108.78 172.639 1104.2 Q175.718 1099.59 181.528 1099.59 Z" fill="#000000" fill-rule="evenodd" fill-opacity="1" /><path clip-path="url(#clip890)" d="M 0 0 M208.542 1103.3 Q204.931 1103.3 203.102 1106.86 Q201.297 1110.4 201.297 1117.53 Q201.297 1124.64 203.102 1128.2 Q204.931 1131.75 208.542 1131.75 Q212.176 1131.75 213.982 1128.2 Q215.811 1124.64 215.811 1117.53 Q215.811 1110.4 213.982 1106.86 Q212.176 1103.3 208.542 1103.3 M208.542 1099.59 Q214.352 1099.59 217.408 1104.2 Q220.486 1108.78 220.486 1117.53 Q220.486 1126.26 217.408 1130.87 Q214.352 1135.45 208.542 1135.45 Q202.732 1135.45 199.653 1130.87 Q196.598 1126.26 196.598 1117.53 Q196.598 1108.78 199.653 1104.2 Q202.732 1099.59 208.542 1099.59 Z" fill="#000000" fill-rule="evenodd" fill-opacity="1" /><path clip-path="url(#clip890)" d="M 0 0 M123.126 858.898 L139.445 858.898 L139.445 862.833 L117.501 862.833 L117.501 858.898 Q120.163 856.144 124.746 851.514 Q129.353 846.861 130.533 845.519 Q132.779 842.996 133.658 841.26 Q134.561 839.5 134.561 837.81 Q134.561 835.056 132.617 833.32 Q130.695 831.584 127.593 831.584 Q125.394 831.584 122.941 832.348 Q120.51 833.111 117.732 834.662 L117.732 829.94 Q120.556 828.806 123.01 828.227 Q125.464 827.648 127.501 827.648 Q132.871 827.648 136.066 830.334 Q139.26 833.019 139.26 837.51 Q139.26 839.639 138.45 841.56 Q137.663 843.459 135.556 846.051 Q134.978 846.722 131.876 849.94 Q128.774 853.134 123.126 858.898 Z" fill="#000000" fill-rule="evenodd" fill-opacity="1" /><path clip-path="url(#clip890)" d="M 0 0 M154.515 831.352 Q150.903 831.352 149.075 834.917 Q147.269 838.459 147.269 845.588 Q147.269 852.695 149.075 856.259 Q150.903 859.801 154.515 859.801 Q158.149 859.801 159.954 856.259 Q161.783 852.695 161.783 845.588 Q161.783 838.459 159.954 834.917 Q158.149 831.352 154.515 831.352 M154.515 827.648 Q160.325 827.648 163.38 832.255 Q166.459 836.838 166.459 845.588 Q166.459 854.315 163.38 858.921 Q160.325 863.505 154.515 863.505 Q148.704 863.505 145.626 858.921 Q142.57 854.315 142.57 845.588 Q142.57 836.838 145.626 832.255 Q148.704 827.648 154.515 827.648 Z" fill="#000000" fill-rule="evenodd" fill-opacity="1" /><path clip-path="url(#clip890)" d="M 0 0 M181.528 831.352 Q177.917 831.352 176.089 834.917 Q174.283 838.459 174.283 845.588 Q174.283 852.695 176.089 856.259 Q177.917 859.801 181.528 859.801 Q185.163 859.801 186.968 856.259 Q188.797 852.695 188.797 845.588 Q188.797 838.459 186.968 834.917 Q185.163 831.352 181.528 831.352 M181.528 827.648 Q187.338 827.648 190.394 832.255 Q193.473 836.838 193.473 845.588 Q193.473 854.315 190.394 858.921 Q187.338 863.505 181.528 863.505 Q175.718 863.505 172.639 858.921 Q169.584 854.315 169.584 845.588 Q169.584 836.838 172.639 832.255 Q175.718 827.648 181.528 827.648 Z" fill="#000000" fill-rule="evenodd" fill-opacity="1" /><path clip-path="url(#clip890)" d="M 0 0 M208.542 831.352 Q204.931 831.352 203.102 834.917 Q201.297 838.459 201.297 845.588 Q201.297 852.695 203.102 856.259 Q204.931 859.801 208.542 859.801 Q212.176 859.801 213.982 856.259 Q215.811 852.695 215.811 845.588 Q215.811 838.459 213.982 834.917 Q212.176 831.352 208.542 831.352 M208.542 827.648 Q214.352 827.648 217.408 832.255 Q220.486 836.838 220.486 845.588 Q220.486 854.315 217.408 858.921 Q214.352 863.505 208.542 863.505 Q202.732 863.505 199.653 858.921 Q196.598 854.315 196.598 845.588 Q196.598 836.838 199.653 832.255 Q202.732 827.648 208.542 827.648 Z" fill="#000000" fill-rule="evenodd" fill-opacity="1" /><path clip-path="url(#clip890)" d="M 0 0 M132.316 572.255 Q135.672 572.972 137.547 575.241 Q139.445 577.509 139.445 580.843 Q139.445 585.958 135.927 588.759 Q132.408 591.56 125.927 591.56 Q123.751 591.56 121.436 591.12 Q119.144 590.704 116.691 589.847 L116.691 585.333 Q118.635 586.468 120.95 587.046 Q123.265 587.625 125.788 587.625 Q130.186 587.625 132.478 585.889 Q134.792 584.153 134.792 580.843 Q134.792 577.787 132.64 576.074 Q130.51 574.338 126.691 574.338 L122.663 574.338 L122.663 570.495 L126.876 570.495 Q130.325 570.495 132.154 569.13 Q133.982 567.741 133.982 565.148 Q133.982 562.486 132.084 561.074 Q130.209 559.639 126.691 559.639 Q124.769 559.639 122.57 560.056 Q120.371 560.472 117.732 561.352 L117.732 557.185 Q120.394 556.445 122.709 556.074 Q125.047 555.704 127.107 555.704 Q132.431 555.704 135.533 558.134 Q138.635 560.542 138.635 564.662 Q138.635 567.532 136.992 569.523 Q135.348 571.491 132.316 572.255 Z" fill="#000000" fill-rule="evenodd" fill-opacity="1" /><path clip-path="url(#clip890)" d="M 0 0 M154.515 559.408 Q150.903 559.408 149.075 562.972 Q147.269 566.514 147.269 573.644 Q147.269 580.75 149.075 584.315 Q150.903 587.856 154.515 587.856 Q158.149 587.856 159.954 584.315 Q161.783 580.75 161.783 573.644 Q161.783 566.514 159.954 562.972 Q158.149 559.408 154.515 559.408 M154.515 555.704 Q160.325 555.704 163.38 560.31 Q166.459 564.894 166.459 573.644 Q166.459 582.37 163.38 586.977 Q160.325 591.56 154.515 591.56 Q148.704 591.56 145.626 586.977 Q142.57 582.37 142.57 573.644 Q142.57 564.894 145.626 560.31 Q148.704 555.704 154.515 555.704 Z" fill="#000000" fill-rule="evenodd" fill-opacity="1" /><path clip-path="url(#clip890)" d="M 0 0 M181.528 559.408 Q177.917 559.408 176.089 562.972 Q174.283 566.514 174.283 573.644 Q174.283 580.75 176.089 584.315 Q177.917 587.856 181.528 587.856 Q185.163 587.856 186.968 584.315 Q188.797 580.75 188.797 573.644 Q188.797 566.514 186.968 562.972 Q185.163 559.408 181.528 559.408 M181.528 555.704 Q187.338 555.704 190.394 560.31 Q193.473 564.894 193.473 573.644 Q193.473 582.37 190.394 586.977 Q187.338 591.56 181.528 591.56 Q175.718 591.56 172.639 586.977 Q169.584 582.37 169.584 573.644 Q169.584 564.894 172.639 560.31 Q175.718 555.704 181.528 555.704 Z" fill="#000000" fill-rule="evenodd" fill-opacity="1" /><path clip-path="url(#clip890)" d="M 0 0 M208.542 559.408 Q204.931 559.408 203.102 562.972 Q201.297 566.514 201.297 573.644 Q201.297 580.75 203.102 584.315 Q204.931 587.856 208.542 587.856 Q212.176 587.856 213.982 584.315 Q215.811 580.75 215.811 573.644 Q215.811 566.514 213.982 562.972 Q212.176 559.408 208.542 559.408 M208.542 555.704 Q214.352 555.704 217.408 560.31 Q220.486 564.894 220.486 573.644 Q220.486 582.37 217.408 586.977 Q214.352 591.56 208.542 591.56 Q202.732 591.56 199.653 586.977 Q196.598 582.37 196.598 573.644 Q196.598 564.894 199.653 560.31 Q202.732 555.704 208.542 555.704 Z" fill="#000000" fill-rule="evenodd" fill-opacity="1" /><path clip-path="url(#clip890)" d="M 0 0 M129.862 288.458 L118.056 306.907 L129.862 306.907 L129.862 288.458 M128.635 284.384 L134.515 284.384 L134.515 306.907 L139.445 306.907 L139.445 310.796 L134.515 310.796 L134.515 318.944 L129.862 318.944 L129.862 310.796 L114.26 310.796 L114.26 306.282 L128.635 284.384 Z" fill="#000000" fill-rule="evenodd" fill-opacity="1" /><path clip-path="url(#clip890)" d="M 0 0 M154.515 287.463 Q150.903 287.463 149.075 291.028 Q147.269 294.569 147.269 301.699 Q147.269 308.805 149.075 312.37 Q150.903 315.912 154.515 315.912 Q158.149 315.912 159.954 312.37 Q161.783 308.805 161.783 301.699 Q161.783 294.569 159.954 291.028 Q158.149 287.463 154.515 287.463 M154.515 283.759 Q160.325 283.759 163.38 288.366 Q166.459 292.949 166.459 301.699 Q166.459 310.426 163.38 315.032 Q160.325 319.616 154.515 319.616 Q148.704 319.616 145.626 315.032 Q142.57 310.426 142.57 301.699 Q142.57 292.949 145.626 288.366 Q148.704 283.759 154.515 283.759 Z" fill="#000000" fill-rule="evenodd" fill-opacity="1" /><path clip-path="url(#clip890)" d="M 0 0 M181.528 287.463 Q177.917 287.463 176.089 291.028 Q174.283 294.569 174.283 301.699 Q174.283 308.805 176.089 312.37 Q177.917 315.912 181.528 315.912 Q185.163 315.912 186.968 312.37 Q188.797 308.805 188.797 301.699 Q188.797 294.569 186.968 291.028 Q185.163 287.463 181.528 287.463 M181.528 283.759 Q187.338 283.759 190.394 288.366 Q193.473 292.949 193.473 301.699 Q193.473 310.426 190.394 315.032 Q187.338 319.616 181.528 319.616 Q175.718 319.616 172.639 315.032 Q169.584 310.426 169.584 301.699 Q169.584 292.949 172.639 288.366 Q175.718 283.759 181.528 283.759 Z" fill="#000000" fill-rule="evenodd" fill-opacity="1" /><path clip-path="url(#clip890)" d="M 0 0 M208.542 287.463 Q204.931 287.463 203.102 291.028 Q201.297 294.569 201.297 301.699 Q201.297 308.805 203.102 312.37 Q204.931 315.912 208.542 315.912 Q212.176 315.912 213.982 312.37 Q215.811 308.805 215.811 301.699 Q215.811 294.569 213.982 291.028 Q212.176 287.463 208.542 287.463 M208.542 283.759 Q214.352 283.759 217.408 288.366 Q220.486 292.949 220.486 301.699 Q220.486 310.426 217.408 315.032 Q214.352 319.616 208.542 319.616 Q202.732 319.616 199.653 315.032 Q196.598 310.426 196.598 301.699 Q196.598 292.949 199.653 288.366 Q202.732 283.759 208.542 283.759 Z" fill="#000000" fill-rule="evenodd" fill-opacity="1" /><path clip-path="url(#clip890)" d="M 0 0 M59.1993 815.533 Q55.2526 813.336 53.3747 810.281 Q51.4968 807.225 51.4968 803.088 Q51.4968 797.518 55.4117 794.494 Q59.2948 791.47 66.4881 791.47 L88.0042 791.47 L88.0042 797.358 L66.679 797.358 Q61.5546 797.358 59.072 799.173 Q56.5894 800.987 56.5894 804.711 Q56.5894 809.262 59.6131 811.904 Q62.6368 814.546 67.8567 814.546 L88.0042 814.546 L88.0042 820.434 L66.679 820.434 Q61.5228 820.434 59.072 822.248 Q56.5894 824.063 56.5894 827.85 Q56.5894 832.338 59.6449 834.98 Q62.6686 837.622 67.8567 837.622 L88.0042 837.622 L88.0042 843.51 L52.3562 843.51 L52.3562 837.622 L57.8944 837.622 Q54.616 835.616 53.0564 832.815 Q51.4968 830.015 51.4968 826.163 Q51.4968 822.28 53.4702 819.575 Q55.4436 816.838 59.1993 815.533 Z" fill="#000000" fill-rule="evenodd" fill-opacity="1" /><path clip-path="url(#clip890)" d="M 0 0 M52.3562 785.327 L52.3562 779.471 L88.0042 779.471 L88.0042 785.327 L52.3562 785.327 M38.479 785.327 L38.479 779.471 L45.895 779.471 L45.895 785.327 L38.479 785.327 Z" fill="#000000" fill-rule="evenodd" fill-opacity="1" /><path clip-path="url(#clip890)" d="M 0 0 M66.4881 743.696 L88.0042 743.696 L88.0042 749.552 L66.679 749.552 Q61.6183 749.552 59.1038 751.525 Q56.5894 753.499 56.5894 757.446 Q56.5894 762.188 59.6131 764.925 Q62.6368 767.662 67.8567 767.662 L88.0042 767.662 L88.0042 773.551 L52.3562 773.551 L52.3562 767.662 L57.8944 767.662 Q54.6797 765.562 53.0883 762.729 Q51.4968 759.864 51.4968 756.141 Q51.4968 749.998 55.3163 746.847 Q59.1038 743.696 66.4881 743.696 Z" fill="#000000" fill-rule="evenodd" fill-opacity="1" /><path clip-path="url(#clip890)" d="M 0 0 M98.8259 710.467 L103.377 710.467 L103.377 744.332 L98.8259 744.332 L98.8259 710.467 Z" fill="#000000" fill-rule="evenodd" fill-opacity="1" /><path clip-path="url(#clip890)" d="M 0 0 M57.7671 680.866 L38.479 680.866 L38.479 675.01 L88.0042 675.01 L88.0042 680.866 L82.657 680.866 Q85.8398 682.712 87.3994 685.545 Q88.9272 688.346 88.9272 692.292 Q88.9272 698.754 83.771 702.828 Q78.6147 706.87 70.212 706.87 Q61.8093 706.87 56.6531 702.828 Q51.4968 698.754 51.4968 692.292 Q51.4968 688.346 53.0564 685.545 Q54.5842 682.712 57.7671 680.866 M70.212 700.823 Q76.6732 700.823 80.3653 698.181 Q84.0256 695.507 84.0256 690.86 Q84.0256 686.213 80.3653 683.54 Q76.6732 680.866 70.212 680.866 Q63.7508 680.866 60.0905 683.54 Q56.3984 686.213 56.3984 690.86 Q56.3984 695.507 60.0905 698.181 Q63.7508 700.823 70.212 700.823 Z" fill="#000000" fill-rule="evenodd" fill-opacity="1" /><path clip-path="url(#clip890)" d="M 0 0 M52.3562 668.867 L52.3562 663.01 L88.0042 663.01 L88.0042 668.867 L52.3562 668.867 M38.479 668.867 L38.479 663.01 L45.895 663.01 L45.895 668.867 L38.479 668.867 Z" fill="#000000" fill-rule="evenodd" fill-opacity="1" /><path clip-path="url(#clip890)" d="M 0 0 M38.479 638.821 L43.3487 638.821 L43.3487 644.422 Q43.3487 647.573 44.6219 648.815 Q45.895 650.024 49.2052 650.024 L52.3562 650.024 L52.3562 640.38 L56.9077 640.38 L56.9077 650.024 L88.0042 650.024 L88.0042 655.912 L56.9077 655.912 L56.9077 661.514 L52.3562 661.514 L52.3562 655.912 L49.8736 655.912 Q43.9216 655.912 41.2162 653.143 Q38.479 650.374 38.479 644.359 L38.479 638.821 Z" fill="#000000" fill-rule="evenodd" fill-opacity="1" /><path clip-path="url(#clip890)" d="M 0 0 M38.479 614.631 L43.3487 614.631 L43.3487 620.233 Q43.3487 623.384 44.6219 624.625 Q45.895 625.835 49.2052 625.835 L52.3562 625.835 L52.3562 616.19 L56.9077 616.19 L56.9077 625.835 L88.0042 625.835 L88.0042 631.723 L56.9077 631.723 L56.9077 637.325 L52.3562 637.325 L52.3562 631.723 L49.8736 631.723 Q43.9216 631.723 41.2162 628.954 Q38.479 626.185 38.479 620.169 L38.479 614.631 Z" fill="#000000" fill-rule="evenodd" fill-opacity="1" /><polyline clip-path="url(#clip892)" style="stroke:#009af9; stroke-width:20; stroke-opacity:1; fill:none" stroke-dasharray="80, 50" points="
  315.815,85.838 398.097,94.3495 467.665,102.832 527.928,111.285 581.083,119.71 628.633,588.885 671.646,136.471 710.915,602.18 747.038,153.117 780.483,615.358 
  811.62,967.336 840.746,628.42 868.106,186.06 893.901,981.684 918.302,202.357 941.451,1221.19 963.47,995.771 984.464,666.91 1023.73,1232.86 1042.16,1350.44 
  1059.86,691.989 1076.89,1023.16 1093.3,1244.07 1124.44,1358.72 1153.56,1254.82 1167.45,1049.51 1180.92,740.756 1194.01,1360.26 1206.72,1354.89 1231.12,764.443 
  1242.84,1074.81 1254.27,1364.08 1276.29,1359.71 1297.28,1284.27 1307.42,1367.18 1336.55,1348.99 1345.86,1361.55 1354.97,1369.55 1363.91,1122.28 1372.67,1301.58 
  1389.71,1353.66 1397.99,1371.19 1406.12,1362.56 1414.11,1144.45 1437.26,1372.11 1459.27,1362.37 1466.38,1343.74 1473.38,1372.3 1480.27,1360.53 1493.74,1330.64 
  1506.82,1371.77 1519.54,1362.57 1537.96,1371.78 1543.94,1342.38 1549.84,1360.19 1555.66,1363.65 1567.09,1371.24 1572.69,1349.33 1589.11,1366.09 1594.45,1370.1 
  1610.1,1353.42 1620.24,1368.41 1625.23,1355 1644.64,1366.03 1649.37,1369.77 1658.67,1350.67 1663.26,1348.26 1667.79,1363.1 1676.73,1370.18 1685.49,1355.72 
  1689.81,1352.9 1702.52,1369.63 1710.81,1344.49 1718.94,1356.62 1726.92,1368.6 1738.65,1345.74 1746.3,1358.96 1750.07,1368.44 1753.82,1346.86 1772.09,1360.14 
  1779.2,1356.33 1786.2,1347.78 1793.09,1346.86 1796.49,1360.75 1803.23,1344.44 1806.56,1356.62 1819.64,1361.35 1829.21,1344.49 1832.36,1355.52 1850.78,1352.74 
  1856.76,1354.46 1859.72,1351.75 1862.66,1339.76 1868.48,1320.11 1879.9,1352.76 1885.51,1353.31 1893.79,1332.66 1901.92,1331.93 1904.6,1328.55 1907.26,1350.82 
  1909.91,1356.34 1922.92,1323.19 1933.06,1357.79 1938.05,1334.3 1950.28,1318.98 1957.46,1341.09 1962.19,1333.31 1969.18,1337.34 1971.49,1331.58 1976.07,1327.02 
  1980.61,1333.3 1989.55,1338.51 1998.31,1337.7 2000.47,1334.34 2002.63,1328.07 2015.34,1341.42 2023.62,1340.07 2025.67,1335.36 2031.75,1323.62 2033.77,1304.02 
  2039.74,1342.03 2051.47,1332.73 2059.11,1316.51 2062.89,1340.35 2075.87,1328.7 2084.91,1306.76 2090.25,1275.37 2092.02,1236.73 2099.01,1322.38 2109.31,1294.35 
  2116.05,1256.47 2119.38,1211.04 2132.46,1279.29 2140.45,1234.54 2145.17,1181.88 2146.74,1123.52 2163.6,1209.55 2169.57,1149.26 2172.53,1082.97 2192.72,1113.17 
  2196.93,1038.52 2198.33,959.758 2220.08,990.153 2222.73,902.316 2245.88,840.49 2247.13,740.651 2270.28,664.185 2293.43,461.238 
  "/>
<path clip-path="url(#clip890)" d="
M1998.94 213.659 L2282.88 213.659 L2282.88 92.6992 L1998.94 92.6992  Z
  " fill="#ffffff" fill-rule="evenodd" fill-opacity="1"/>
<polyline clip-path="url(#clip890)" style="stroke:#000000; stroke-width:4; stroke-opacity:1; fill:none" points="
  1998.94,213.659 2282.88,213.659 2282.88,92.6992 1998.94,92.6992 1998.94,213.659 
  "/>
<polyline clip-path="url(#clip890)" style="stroke:#009af9; stroke-width:4; stroke-opacity:1; fill:none" stroke-dasharray="16, 10" points="
  2022.24,153.179 2161.99,153.179 
  "/>
<path clip-path="url(#clip890)" d="M 0 0 M2199.12 172.867 Q2197.32 177.496 2195.6 178.908 Q2193.89 180.32 2191.02 180.32 L2187.62 180.32 L2187.62 176.755 L2190.12 176.755 Q2191.88 176.755 2192.85 175.922 Q2193.82 175.089 2195 171.987 L2195.76 170.043 L2185.28 144.533 L2189.79 144.533 L2197.89 164.811 L2206 144.533 L2210.51 144.533 L2199.12 172.867 Z" fill="#000000" fill-rule="evenodd" fill-opacity="1" /><path clip-path="url(#clip890)" d="M 0 0 M2216.39 166.524 L2224.03 166.524 L2224.03 140.158 L2215.72 141.825 L2215.72 137.566 L2223.98 135.899 L2228.66 135.899 L2228.66 166.524 L2236.3 166.524 L2236.3 170.459 L2216.39 170.459 L2216.39 166.524 Z" fill="#000000" fill-rule="evenodd" fill-opacity="1" /></svg>
