<?xml version="1.0" encoding="utf-8"?>
<svg xmlns="http://www.w3.org/2000/svg" xmlns:xlink="http://www.w3.org/1999/xlink" width="600" height="400" viewBox="0 0 2400 1600">
<defs>
  <clipPath id="clip500">
    <rect x="0" y="0" width="2400" height="1600"/>
  </clipPath>
</defs>
<path clip-path="url(#clip500)" d="
M0 1600 L2400 1600 L2400 0 L0 0  Z
  " fill="#ffffff" fill-rule="evenodd" fill-opacity="1"/>
<defs>
  <clipPath id="clip501">
    <rect x="480" y="0" width="1681" height="1600"/>
  </clipPath>
</defs>
<path clip-path="url(#clip500)" d="
M249.056 1410.9 L2352.76 1410.9 L2352.76 47.2441 L249.056 47.2441  Z
  " fill="#ffffff" fill-rule="evenodd" fill-opacity="1"/>
<defs>
  <clipPath id="clip502">
    <rect x="249" y="47" width="2105" height="1365"/>
  </clipPath>
</defs>
<polyline clip-path="url(#clip502)" style="stroke:#000000; stroke-linecap:butt; stroke-linejoin:round; stroke-width:2; stroke-opacity:0.1; fill:none" points="
  308.595,1410.9 308.595,47.2441 
  "/>
<polyline clip-path="url(#clip502)" style="stroke:#000000; stroke-linecap:butt; stroke-linejoin:round; stroke-width:2; stroke-opacity:0.1; fill:none" points="
  1102.44,1410.9 1102.44,47.2441 
  "/>
<polyline clip-path="url(#clip502)" style="stroke:#000000; stroke-linecap:butt; stroke-linejoin:round; stroke-width:2; stroke-opacity:0.1; fill:none" points="
  1896.29,1410.9 1896.29,47.2441 
  "/>
<polyline clip-path="url(#clip500)" style="stroke:#000000; stroke-linecap:butt; stroke-linejoin:round; stroke-width:4; stroke-opacity:1; fill:none" points="
  249.056,1410.9 2352.76,1410.9 
  "/>
<polyline clip-path="url(#clip500)" style="stroke:#000000; stroke-linecap:butt; stroke-linejoin:round; stroke-width:4; stroke-opacity:1; fill:none" points="
  308.595,1410.9 308.595,1392 
  "/>
<polyline clip-path="url(#clip500)" style="stroke:#000000; stroke-linecap:butt; stroke-linejoin:round; stroke-width:4; stroke-opacity:1; fill:none" points="
  1102.44,1410.9 1102.44,1392 
  "/>
<polyline clip-path="url(#clip500)" style="stroke:#000000; stroke-linecap:butt; stroke-linejoin:round; stroke-width:4; stroke-opacity:1; fill:none" points="
  1896.29,1410.9 1896.29,1392 
  "/>
<path clip-path="url(#clip500)" d="M240.241 1485.02 L247.88 1485.02 L247.88 1458.66 L239.569 1460.32 L239.569 1456.06 L247.833 1454.4 L252.509 1454.4 L252.509 1485.02 L260.148 1485.02 L260.148 1488.96 L240.241 1488.96 L240.241 1485.02 Z" fill="#000000" fill-rule="evenodd" fill-opacity="1" /><path clip-path="url(#clip500)" d="M279.592 1457.48 Q275.981 1457.48 274.153 1461.04 Q272.347 1464.58 272.347 1471.71 Q272.347 1478.82 274.153 1482.38 Q275.981 1485.92 279.592 1485.92 Q283.227 1485.92 285.032 1482.38 Q286.861 1478.82 286.861 1471.71 Q286.861 1464.58 285.032 1461.04 Q283.227 1457.48 279.592 1457.48 M279.592 1453.77 Q285.402 1453.77 288.458 1458.38 Q291.537 1462.96 291.537 1471.71 Q291.537 1480.44 288.458 1485.04 Q285.402 1489.63 279.592 1489.63 Q273.782 1489.63 270.703 1485.04 Q267.648 1480.44 267.648 1471.71 Q267.648 1462.96 270.703 1458.38 Q273.782 1453.77 279.592 1453.77 Z" fill="#000000" fill-rule="evenodd" fill-opacity="1" /><path clip-path="url(#clip500)" d="M291.537 1447.87 L315.648 1447.87 L315.648 1451.07 L291.537 1451.07 L291.537 1447.87 Z" fill="#000000" fill-rule="evenodd" fill-opacity="1" /><path clip-path="url(#clip500)" d="M334.287 1436.78 L324.695 1451.77 L334.287 1451.77 L334.287 1436.78 M333.29 1433.47 L338.067 1433.47 L338.067 1451.77 L342.073 1451.77 L342.073 1454.93 L338.067 1454.93 L338.067 1461.55 L334.287 1461.55 L334.287 1454.93 L321.61 1454.93 L321.61 1451.26 L333.29 1433.47 Z" fill="#000000" fill-rule="evenodd" fill-opacity="1" /><path clip-path="url(#clip500)" d="M348.355 1456.77 L352.323 1456.77 L352.323 1461.55 L348.355 1461.55 L348.355 1456.77 Z" fill="#000000" fill-rule="evenodd" fill-opacity="1" /><path clip-path="url(#clip500)" d="M360.636 1433.47 L375.551 1433.47 L375.551 1436.66 L364.116 1436.66 L364.116 1443.55 Q364.943 1443.27 365.771 1443.13 Q366.598 1442.98 367.426 1442.98 Q372.128 1442.98 374.874 1445.56 Q377.62 1448.14 377.62 1452.54 Q377.62 1457.07 374.799 1459.59 Q371.978 1462.09 366.843 1462.09 Q365.075 1462.09 363.232 1461.79 Q361.408 1461.49 359.452 1460.89 L359.452 1457.07 Q361.144 1457.99 362.95 1458.44 Q364.755 1458.89 366.768 1458.89 Q370.022 1458.89 371.921 1457.18 Q373.821 1455.47 373.821 1452.54 Q373.821 1449.6 371.921 1447.89 Q370.022 1446.18 366.768 1446.18 Q365.244 1446.18 363.721 1446.52 Q362.216 1446.86 360.636 1447.57 L360.636 1433.47 Z" fill="#000000" fill-rule="evenodd" fill-opacity="1" /><path clip-path="url(#clip500)" d="M1033.49 1485.02 L1041.13 1485.02 L1041.13 1458.66 L1032.82 1460.32 L1032.82 1456.06 L1041.08 1454.4 L1045.76 1454.4 L1045.76 1485.02 L1053.4 1485.02 L1053.4 1488.96 L1033.49 1488.96 L1033.49 1485.02 Z" fill="#000000" fill-rule="evenodd" fill-opacity="1" /><path clip-path="url(#clip500)" d="M1072.84 1457.48 Q1069.23 1457.48 1067.4 1461.04 Q1065.59 1464.58 1065.59 1471.71 Q1065.59 1478.82 1067.4 1482.38 Q1069.23 1485.92 1072.84 1485.92 Q1076.47 1485.92 1078.28 1482.38 Q1080.11 1478.82 1080.11 1471.71 Q1080.11 1464.58 1078.28 1461.04 Q1076.47 1457.48 1072.84 1457.48 M1072.84 1453.77 Q1078.65 1453.77 1081.71 1458.38 Q1084.78 1462.96 1084.78 1471.71 Q1084.78 1480.44 1081.71 1485.04 Q1078.65 1489.63 1072.84 1489.63 Q1067.03 1489.63 1063.95 1485.04 Q1060.9 1480.44 1060.9 1471.71 Q1060.9 1462.96 1063.95 1458.38 Q1067.03 1453.77 1072.84 1453.77 Z" fill="#000000" fill-rule="evenodd" fill-opacity="1" /><path clip-path="url(#clip500)" d="M1084.78 1447.87 L1108.9 1447.87 L1108.9 1451.07 L1084.78 1451.07 L1084.78 1447.87 Z" fill="#000000" fill-rule="evenodd" fill-opacity="1" /><path clip-path="url(#clip500)" d="M1127.53 1436.78 L1117.94 1451.77 L1127.53 1451.77 L1127.53 1436.78 M1126.54 1433.47 L1131.31 1433.47 L1131.31 1451.77 L1135.32 1451.77 L1135.32 1454.93 L1131.31 1454.93 L1131.31 1461.55 L1127.53 1461.55 L1127.53 1454.93 L1114.86 1454.93 L1114.86 1451.26 L1126.54 1433.47 Z" fill="#000000" fill-rule="evenodd" fill-opacity="1" /><path clip-path="url(#clip500)" d="M1141.6 1456.77 L1145.57 1456.77 L1145.57 1461.55 L1141.6 1461.55 L1141.6 1456.77 Z" fill="#000000" fill-rule="evenodd" fill-opacity="1" /><path clip-path="url(#clip500)" d="M1164.28 1436.78 L1154.69 1451.77 L1164.28 1451.77 L1164.28 1436.78 M1163.29 1433.47 L1168.06 1433.47 L1168.06 1451.77 L1172.07 1451.77 L1172.07 1454.93 L1168.06 1454.93 L1168.06 1461.55 L1164.28 1461.55 L1164.28 1454.93 L1151.61 1454.93 L1151.61 1451.26 L1163.29 1433.47 Z" fill="#000000" fill-rule="evenodd" fill-opacity="1" /><path clip-path="url(#clip500)" d="M1827.8 1485.02 L1835.44 1485.02 L1835.44 1458.66 L1827.13 1460.32 L1827.13 1456.06 L1835.39 1454.4 L1840.07 1454.4 L1840.07 1485.02 L1847.7 1485.02 L1847.7 1488.96 L1827.8 1488.96 L1827.8 1485.02 Z" fill="#000000" fill-rule="evenodd" fill-opacity="1" /><path clip-path="url(#clip500)" d="M1867.15 1457.48 Q1863.54 1457.48 1861.71 1461.04 Q1859.9 1464.58 1859.9 1471.71 Q1859.9 1478.82 1861.71 1482.38 Q1863.54 1485.92 1867.15 1485.92 Q1870.78 1485.92 1872.59 1482.38 Q1874.42 1478.82 1874.42 1471.71 Q1874.42 1464.58 1872.59 1461.04 Q1870.78 1457.48 1867.15 1457.48 M1867.15 1453.77 Q1872.96 1453.77 1876.02 1458.38 Q1879.09 1462.96 1879.09 1471.71 Q1879.09 1480.44 1876.02 1485.04 Q1872.96 1489.63 1867.15 1489.63 Q1861.34 1489.63 1858.26 1485.04 Q1855.2 1480.44 1855.2 1471.71 Q1855.2 1462.96 1858.26 1458.38 Q1861.34 1453.77 1867.15 1453.77 Z" fill="#000000" fill-rule="evenodd" fill-opacity="1" /><path clip-path="url(#clip500)" d="M1879.09 1447.87 L1903.21 1447.87 L1903.21 1451.07 L1879.09 1451.07 L1879.09 1447.87 Z" fill="#000000" fill-rule="evenodd" fill-opacity="1" /><path clip-path="url(#clip500)" d="M1921.84 1436.78 L1912.25 1451.77 L1921.84 1451.77 L1921.84 1436.78 M1920.85 1433.47 L1925.62 1433.47 L1925.62 1451.77 L1929.63 1451.77 L1929.63 1454.93 L1925.62 1454.93 L1925.62 1461.55 L1921.84 1461.55 L1921.84 1454.93 L1909.17 1454.93 L1909.17 1451.26 L1920.85 1433.47 Z" fill="#000000" fill-rule="evenodd" fill-opacity="1" /><path clip-path="url(#clip500)" d="M1935.91 1456.77 L1939.88 1456.77 L1939.88 1461.55 L1935.91 1461.55 L1935.91 1456.77 Z" fill="#000000" fill-rule="evenodd" fill-opacity="1" /><path clip-path="url(#clip500)" d="M1959.67 1446.41 Q1962.39 1446.99 1963.92 1448.83 Q1965.46 1450.68 1965.46 1453.38 Q1965.46 1457.54 1962.6 1459.82 Q1959.74 1462.09 1954.48 1462.09 Q1952.71 1462.09 1950.83 1461.73 Q1948.96 1461.4 1946.97 1460.7 L1946.97 1457.03 Q1948.55 1457.95 1950.43 1458.42 Q1952.31 1458.89 1954.36 1458.89 Q1957.94 1458.89 1959.8 1457.48 Q1961.68 1456.07 1961.68 1453.38 Q1961.68 1450.9 1959.93 1449.51 Q1958.2 1448.1 1955.1 1448.1 L1951.82 1448.1 L1951.82 1444.98 L1955.25 1444.98 Q1958.05 1444.98 1959.53 1443.87 Q1961.02 1442.74 1961.02 1440.63 Q1961.02 1438.47 1959.48 1437.32 Q1957.95 1436.16 1955.1 1436.16 Q1953.53 1436.16 1951.75 1436.49 Q1949.96 1436.83 1947.82 1437.55 L1947.82 1434.16 Q1949.98 1433.56 1951.86 1433.26 Q1953.76 1432.96 1955.43 1432.96 Q1959.76 1432.96 1962.28 1434.93 Q1964.8 1436.89 1964.8 1440.24 Q1964.8 1442.57 1963.47 1444.19 Q1962.13 1445.79 1959.67 1446.41 Z" fill="#000000" fill-rule="evenodd" fill-opacity="1" /><path clip-path="url(#clip500)" d="M1187.72 1538.54 L1193.93 1538.54 L1205.07 1568.46 L1216.21 1538.54 L1222.42 1538.54 L1209.05 1574.19 L1201.09 1574.19 L1187.72 1538.54 Z" fill="#000000" fill-rule="evenodd" fill-opacity="1" /><path clip-path="url(#clip500)" d="M1257.59 1585.01 L1257.59 1589.56 L1223.72 1589.56 L1223.72 1585.01 L1257.59 1585.01 Z" fill="#000000" fill-rule="evenodd" fill-opacity="1" /><path clip-path="url(#clip500)" d="M1276.91 1542.64 Q1272.2 1542.64 1269.46 1546.34 Q1266.72 1550 1266.72 1556.39 Q1266.72 1562.79 1269.43 1566.48 Q1272.16 1570.14 1276.91 1570.14 Q1281.59 1570.14 1284.32 1566.45 Q1287.06 1562.76 1287.06 1556.39 Q1287.06 1550.06 1284.32 1546.37 Q1281.59 1542.64 1276.91 1542.64 M1276.91 1537.68 Q1284.55 1537.68 1288.91 1542.64 Q1293.27 1547.61 1293.27 1556.39 Q1293.27 1565.15 1288.91 1570.14 Q1284.55 1575.11 1276.91 1575.11 Q1269.24 1575.11 1264.88 1570.14 Q1260.55 1565.15 1260.55 1556.39 Q1260.55 1547.61 1264.88 1542.64 Q1269.24 1537.68 1276.91 1537.68 Z" fill="#000000" fill-rule="evenodd" fill-opacity="1" /><path clip-path="url(#clip500)" d="M1308.64 1568.84 L1308.64 1587.74 L1302.75 1587.74 L1302.75 1538.54 L1308.64 1538.54 L1308.64 1543.95 Q1310.49 1540.77 1313.29 1539.24 Q1316.12 1537.68 1320.03 1537.68 Q1326.53 1537.68 1330.57 1542.83 Q1334.64 1547.99 1334.64 1556.39 Q1334.64 1564.8 1330.57 1569.95 Q1326.53 1575.11 1320.03 1575.11 Q1316.12 1575.11 1313.29 1573.58 Q1310.49 1572.02 1308.64 1568.84 M1328.56 1556.39 Q1328.56 1549.93 1325.89 1546.27 Q1323.25 1542.58 1318.6 1542.58 Q1313.96 1542.58 1311.28 1546.27 Q1308.64 1549.93 1308.64 1556.39 Q1308.64 1562.85 1311.28 1566.55 Q1313.96 1570.21 1318.6 1570.21 Q1323.25 1570.21 1325.89 1566.55 Q1328.56 1562.85 1328.56 1556.39 Z" fill="#000000" fill-rule="evenodd" fill-opacity="1" /><path clip-path="url(#clip500)" d="M1374.84 1554.9 L1374.84 1557.76 L1347.92 1557.76 Q1348.3 1563.81 1351.55 1566.99 Q1354.82 1570.14 1360.65 1570.14 Q1364.02 1570.14 1367.17 1569.32 Q1370.36 1568.49 1373.47 1566.83 L1373.47 1572.37 Q1370.32 1573.71 1367.01 1574.41 Q1363.7 1575.11 1360.3 1575.11 Q1351.77 1575.11 1346.77 1570.14 Q1341.81 1565.18 1341.81 1556.71 Q1341.81 1547.96 1346.52 1542.83 Q1351.26 1537.68 1359.28 1537.68 Q1366.47 1537.68 1370.64 1542.33 Q1374.84 1546.94 1374.84 1554.9 M1368.99 1553.18 Q1368.92 1548.37 1366.28 1545.51 Q1363.67 1542.64 1359.34 1542.64 Q1354.44 1542.64 1351.48 1545.41 Q1348.55 1548.18 1348.11 1553.21 L1368.99 1553.18 Z" fill="#000000" fill-rule="evenodd" fill-opacity="1" /><path clip-path="url(#clip500)" d="M1414.09 1552.67 L1414.09 1574.19 L1408.23 1574.19 L1408.23 1552.86 Q1408.23 1547.8 1406.26 1545.29 Q1404.28 1542.77 1400.34 1542.77 Q1395.6 1542.77 1392.86 1545.79 Q1390.12 1548.82 1390.12 1554.04 L1390.12 1574.19 L1384.23 1574.19 L1384.23 1538.54 L1390.12 1538.54 L1390.12 1544.08 Q1392.22 1540.86 1395.05 1539.27 Q1397.92 1537.68 1401.64 1537.68 Q1407.79 1537.68 1410.94 1541.5 Q1414.09 1545.29 1414.09 1552.67 Z" fill="#000000" fill-rule="evenodd" fill-opacity="1" /><polyline clip-path="url(#clip502)" style="stroke:#000000; stroke-linecap:butt; stroke-linejoin:round; stroke-width:2; stroke-opacity:0.1; fill:none" points="
  249.056,1270.44 2352.76,1270.44 
  "/>
<polyline clip-path="url(#clip502)" style="stroke:#000000; stroke-linecap:butt; stroke-linejoin:round; stroke-width:2; stroke-opacity:0.1; fill:none" points="
  249.056,924.351 2352.76,924.351 
  "/>
<polyline clip-path="url(#clip502)" style="stroke:#000000; stroke-linecap:butt; stroke-linejoin:round; stroke-width:2; stroke-opacity:0.1; fill:none" points="
  249.056,578.259 2352.76,578.259 
  "/>
<polyline clip-path="url(#clip502)" style="stroke:#000000; stroke-linecap:butt; stroke-linejoin:round; stroke-width:2; stroke-opacity:0.1; fill:none" points="
  249.056,232.167 2352.76,232.167 
  "/>
<polyline clip-path="url(#clip500)" style="stroke:#000000; stroke-linecap:butt; stroke-linejoin:round; stroke-width:4; stroke-opacity:1; fill:none" points="
  249.056,1410.9 249.056,47.2441 
  "/>
<polyline clip-path="url(#clip500)" style="stroke:#000000; stroke-linecap:butt; stroke-linejoin:round; stroke-width:4; stroke-opacity:1; fill:none" points="
  249.056,1270.44 267.954,1270.44 
  "/>
<polyline clip-path="url(#clip500)" style="stroke:#000000; stroke-linecap:butt; stroke-linejoin:round; stroke-width:4; stroke-opacity:1; fill:none" points="
  249.056,924.351 267.954,924.351 
  "/>
<polyline clip-path="url(#clip500)" style="stroke:#000000; stroke-linecap:butt; stroke-linejoin:round; stroke-width:4; stroke-opacity:1; fill:none" points="
  249.056,578.259 267.954,578.259 
  "/>
<polyline clip-path="url(#clip500)" style="stroke:#000000; stroke-linecap:butt; stroke-linejoin:round; stroke-width:4; stroke-opacity:1; fill:none" points="
  249.056,232.167 267.954,232.167 
  "/>
<path clip-path="url(#clip500)" d="M129.885 1269.09 Q133.242 1269.81 135.117 1272.08 Q137.015 1274.34 137.015 1277.68 Q137.015 1282.79 133.496 1285.59 Q129.978 1288.39 123.496 1288.39 Q121.32 1288.39 119.006 1287.95 Q116.714 1287.54 114.26 1286.68 L114.26 1282.17 Q116.205 1283.3 118.519 1283.88 Q120.834 1284.46 123.357 1284.46 Q127.755 1284.46 130.047 1282.72 Q132.362 1280.99 132.362 1277.68 Q132.362 1274.62 130.209 1272.91 Q128.08 1271.17 124.26 1271.17 L120.232 1271.17 L120.232 1267.33 L124.445 1267.33 Q127.894 1267.33 129.723 1265.96 Q131.552 1264.58 131.552 1261.98 Q131.552 1259.32 129.654 1257.91 Q127.779 1256.47 124.26 1256.47 Q122.339 1256.47 120.14 1256.89 Q117.941 1257.31 115.302 1258.19 L115.302 1254.02 Q117.964 1253.28 120.279 1252.91 Q122.617 1252.54 124.677 1252.54 Q130.001 1252.54 133.103 1254.97 Q136.204 1257.38 136.204 1261.5 Q136.204 1264.37 134.561 1266.36 Q132.917 1268.33 129.885 1269.09 Z" fill="#000000" fill-rule="evenodd" fill-opacity="1" /><path clip-path="url(#clip500)" d="M145.88 1281.84 L150.765 1281.84 L150.765 1287.72 L145.88 1287.72 L145.88 1281.84 Z" fill="#000000" fill-rule="evenodd" fill-opacity="1" /><path clip-path="url(#clip500)" d="M160.996 1253.16 L179.352 1253.16 L179.352 1257.1 L165.278 1257.1 L165.278 1265.57 Q166.297 1265.22 167.315 1265.06 Q168.334 1264.88 169.352 1264.88 Q175.139 1264.88 178.519 1268.05 Q181.899 1271.22 181.899 1276.64 Q181.899 1282.21 178.426 1285.32 Q174.954 1288.39 168.635 1288.39 Q166.459 1288.39 164.19 1288.02 Q161.945 1287.65 159.538 1286.91 L159.538 1282.21 Q161.621 1283.35 163.843 1283.9 Q166.065 1284.46 168.542 1284.46 Q172.547 1284.46 174.885 1282.35 Q177.223 1280.25 177.223 1276.64 Q177.223 1273.02 174.885 1270.92 Q172.547 1268.81 168.542 1268.81 Q166.667 1268.81 164.792 1269.23 Q162.94 1269.64 160.996 1270.52 L160.996 1253.16 Z" fill="#000000" fill-rule="evenodd" fill-opacity="1" /><path clip-path="url(#clip500)" d="M201.112 1256.24 Q197.5 1256.24 195.672 1259.81 Q193.866 1263.35 193.866 1270.48 Q193.866 1277.58 195.672 1281.15 Q197.5 1284.69 201.112 1284.69 Q204.746 1284.69 206.551 1281.15 Q208.38 1277.58 208.38 1270.48 Q208.38 1263.35 206.551 1259.81 Q204.746 1256.24 201.112 1256.24 M201.112 1252.54 Q206.922 1252.54 209.977 1257.14 Q213.056 1261.73 213.056 1270.48 Q213.056 1279.2 209.977 1283.81 Q206.922 1288.39 201.112 1288.39 Q195.301 1288.39 192.223 1283.81 Q189.167 1279.2 189.167 1270.48 Q189.167 1261.73 192.223 1257.14 Q195.301 1252.54 201.112 1252.54 Z" fill="#000000" fill-rule="evenodd" fill-opacity="1" /><path clip-path="url(#clip500)" d="M130.88 922.997 Q134.237 923.715 136.112 925.983 Q138.01 928.252 138.01 931.585 Q138.01 936.701 134.492 939.502 Q130.973 942.302 124.492 942.302 Q122.316 942.302 120.001 941.863 Q117.709 941.446 115.256 940.589 L115.256 936.076 Q117.2 937.21 119.515 937.789 Q121.83 938.367 124.353 938.367 Q128.751 938.367 131.042 936.631 Q133.357 934.895 133.357 931.585 Q133.357 928.529 131.205 926.816 Q129.075 925.08 125.255 925.08 L121.228 925.08 L121.228 921.238 L125.441 921.238 Q128.89 921.238 130.718 919.872 Q132.547 918.483 132.547 915.891 Q132.547 913.229 130.649 911.816 Q128.774 910.381 125.255 910.381 Q123.334 910.381 121.135 910.798 Q118.936 911.215 116.297 912.094 L116.297 907.928 Q118.959 907.187 121.274 906.817 Q123.612 906.446 125.672 906.446 Q130.996 906.446 134.098 908.877 Q137.2 911.284 137.2 915.404 Q137.2 918.275 135.556 920.266 Q133.913 922.233 130.88 922.997 Z" fill="#000000" fill-rule="evenodd" fill-opacity="1" /><path clip-path="url(#clip500)" d="M146.876 935.752 L151.76 935.752 L151.76 941.631 L146.876 941.631 L146.876 935.752 Z" fill="#000000" fill-rule="evenodd" fill-opacity="1" /><path clip-path="url(#clip500)" d="M161.991 907.071 L180.348 907.071 L180.348 911.006 L166.274 911.006 L166.274 919.478 Q167.292 919.131 168.311 918.969 Q169.329 918.784 170.348 918.784 Q176.135 918.784 179.514 921.955 Q182.894 925.127 182.894 930.543 Q182.894 936.122 179.422 939.224 Q175.95 942.302 169.63 942.302 Q167.454 942.302 165.186 941.932 Q162.94 941.562 160.533 940.821 L160.533 936.122 Q162.616 937.256 164.839 937.812 Q167.061 938.367 169.538 938.367 Q173.542 938.367 175.88 936.261 Q178.218 934.154 178.218 930.543 Q178.218 926.932 175.88 924.826 Q173.542 922.719 169.538 922.719 Q167.663 922.719 165.788 923.136 Q163.936 923.553 161.991 924.432 L161.991 907.071 Z" fill="#000000" fill-rule="evenodd" fill-opacity="1" /><path clip-path="url(#clip500)" d="M192.153 907.071 L210.51 907.071 L210.51 911.006 L196.436 911.006 L196.436 919.478 Q197.454 919.131 198.473 918.969 Q199.491 918.784 200.51 918.784 Q206.297 918.784 209.676 921.955 Q213.056 925.127 213.056 930.543 Q213.056 936.122 209.584 939.224 Q206.112 942.302 199.792 942.302 Q197.616 942.302 195.348 941.932 Q193.102 941.562 190.695 940.821 L190.695 936.122 Q192.778 937.256 195 937.812 Q197.223 938.367 199.7 938.367 Q203.704 938.367 206.042 936.261 Q208.38 934.154 208.38 930.543 Q208.38 926.932 206.042 924.826 Q203.704 922.719 199.7 922.719 Q197.825 922.719 195.95 923.136 Q194.098 923.553 192.153 924.432 L192.153 907.071 Z" fill="#000000" fill-rule="evenodd" fill-opacity="1" /><path clip-path="url(#clip500)" d="M129.885 576.905 Q133.242 577.623 135.117 579.891 Q137.015 582.16 137.015 585.493 Q137.015 590.609 133.496 593.409 Q129.978 596.21 123.496 596.21 Q121.32 596.21 119.006 595.771 Q116.714 595.354 114.26 594.497 L114.26 589.984 Q116.205 591.118 118.519 591.697 Q120.834 592.275 123.357 592.275 Q127.755 592.275 130.047 590.539 Q132.362 588.803 132.362 585.493 Q132.362 582.437 130.209 580.724 Q128.08 578.988 124.26 578.988 L120.232 578.988 L120.232 575.146 L124.445 575.146 Q127.894 575.146 129.723 573.78 Q131.552 572.391 131.552 569.799 Q131.552 567.136 129.654 565.724 Q127.779 564.289 124.26 564.289 Q122.339 564.289 120.14 564.706 Q117.941 565.123 115.302 566.002 L115.302 561.836 Q117.964 561.095 120.279 560.724 Q122.617 560.354 124.677 560.354 Q130.001 560.354 133.103 562.785 Q136.204 565.192 136.204 569.312 Q136.204 572.183 134.561 574.173 Q132.917 576.141 129.885 576.905 Z" fill="#000000" fill-rule="evenodd" fill-opacity="1" /><path clip-path="url(#clip500)" d="M145.88 589.66 L150.765 589.66 L150.765 595.539 L145.88 595.539 L145.88 589.66 Z" fill="#000000" fill-rule="evenodd" fill-opacity="1" /><path clip-path="url(#clip500)" d="M171.528 576.396 Q168.38 576.396 166.528 578.548 Q164.7 580.701 164.7 584.451 Q164.7 588.178 166.528 590.354 Q168.38 592.507 171.528 592.507 Q174.677 592.507 176.505 590.354 Q178.357 588.178 178.357 584.451 Q178.357 580.701 176.505 578.548 Q174.677 576.396 171.528 576.396 M180.811 561.743 L180.811 566.002 Q179.051 565.169 177.246 564.729 Q175.464 564.289 173.704 564.289 Q169.075 564.289 166.621 567.414 Q164.19 570.539 163.843 576.859 Q165.209 574.845 167.269 573.78 Q169.329 572.692 171.806 572.692 Q177.014 572.692 180.024 575.863 Q183.056 579.011 183.056 584.451 Q183.056 589.775 179.908 592.993 Q176.76 596.21 171.528 596.21 Q165.533 596.21 162.362 591.627 Q159.19 587.021 159.19 578.294 Q159.19 570.099 163.079 565.238 Q166.968 560.354 173.519 560.354 Q175.278 560.354 177.061 560.701 Q178.866 561.049 180.811 561.743 Z" fill="#000000" fill-rule="evenodd" fill-opacity="1" /><path clip-path="url(#clip500)" d="M201.112 564.058 Q197.5 564.058 195.672 567.623 Q193.866 571.164 193.866 578.294 Q193.866 585.4 195.672 588.965 Q197.5 592.507 201.112 592.507 Q204.746 592.507 206.551 588.965 Q208.38 585.4 208.38 578.294 Q208.38 571.164 206.551 567.623 Q204.746 564.058 201.112 564.058 M201.112 560.354 Q206.922 560.354 209.977 564.961 Q213.056 569.544 213.056 578.294 Q213.056 587.021 209.977 591.627 Q206.922 596.21 201.112 596.21 Q195.301 596.21 192.223 591.627 Q189.167 587.021 189.167 578.294 Q189.167 569.544 192.223 564.961 Q195.301 560.354 201.112 560.354 Z" fill="#000000" fill-rule="evenodd" fill-opacity="1" /><path clip-path="url(#clip500)" d="M130.88 230.813 Q134.237 231.531 136.112 233.799 Q138.01 236.068 138.01 239.401 Q138.01 244.517 134.492 247.317 Q130.973 250.118 124.492 250.118 Q122.316 250.118 120.001 249.679 Q117.709 249.262 115.256 248.405 L115.256 243.892 Q117.2 245.026 119.515 245.605 Q121.83 246.183 124.353 246.183 Q128.751 246.183 131.042 244.447 Q133.357 242.711 133.357 239.401 Q133.357 236.345 131.205 234.632 Q129.075 232.896 125.255 232.896 L121.228 232.896 L121.228 229.054 L125.441 229.054 Q128.89 229.054 130.718 227.688 Q132.547 226.299 132.547 223.706 Q132.547 221.044 130.649 219.632 Q128.774 218.197 125.255 218.197 Q123.334 218.197 121.135 218.614 Q118.936 219.031 116.297 219.91 L116.297 215.744 Q118.959 215.003 121.274 214.632 Q123.612 214.262 125.672 214.262 Q130.996 214.262 134.098 216.693 Q137.2 219.1 137.2 223.22 Q137.2 226.091 135.556 228.081 Q133.913 230.049 130.88 230.813 Z" fill="#000000" fill-rule="evenodd" fill-opacity="1" /><path clip-path="url(#clip500)" d="M146.876 243.567 L151.76 243.567 L151.76 249.447 L146.876 249.447 L146.876 243.567 Z" fill="#000000" fill-rule="evenodd" fill-opacity="1" /><path clip-path="url(#clip500)" d="M172.524 230.304 Q169.376 230.304 167.524 232.456 Q165.695 234.609 165.695 238.359 Q165.695 242.086 167.524 244.262 Q169.376 246.415 172.524 246.415 Q175.672 246.415 177.501 244.262 Q179.352 242.086 179.352 238.359 Q179.352 234.609 177.501 232.456 Q175.672 230.304 172.524 230.304 M181.806 215.651 L181.806 219.91 Q180.047 219.077 178.241 218.637 Q176.459 218.197 174.7 218.197 Q170.07 218.197 167.616 221.322 Q165.186 224.447 164.839 230.767 Q166.204 228.753 168.264 227.688 Q170.325 226.6 172.802 226.6 Q178.01 226.6 181.019 229.771 Q184.051 232.919 184.051 238.359 Q184.051 243.683 180.903 246.901 Q177.755 250.118 172.524 250.118 Q166.528 250.118 163.357 245.535 Q160.186 240.929 160.186 232.202 Q160.186 224.007 164.075 219.146 Q167.964 214.262 174.514 214.262 Q176.274 214.262 178.056 214.609 Q179.862 214.957 181.806 215.651 Z" fill="#000000" fill-rule="evenodd" fill-opacity="1" /><path clip-path="url(#clip500)" d="M192.153 214.887 L210.51 214.887 L210.51 218.822 L196.436 218.822 L196.436 227.294 Q197.454 226.947 198.473 226.785 Q199.491 226.6 200.51 226.6 Q206.297 226.6 209.676 229.771 Q213.056 232.943 213.056 238.359 Q213.056 243.938 209.584 247.04 Q206.112 250.118 199.792 250.118 Q197.616 250.118 195.348 249.748 Q193.102 249.378 190.695 248.637 L190.695 243.938 Q192.778 245.072 195 245.628 Q197.223 246.183 199.7 246.183 Q203.704 246.183 206.042 244.077 Q208.38 241.97 208.38 238.359 Q208.38 234.748 206.042 232.642 Q203.704 230.535 199.7 230.535 Q197.825 230.535 195.95 230.952 Q194.098 231.368 192.153 232.248 L192.153 214.887 Z" fill="#000000" fill-rule="evenodd" fill-opacity="1" /><path clip-path="url(#clip500)" d="M35.1993 829.203 Q31.2526 827.007 29.3747 823.951 Q27.4968 820.896 27.4968 816.758 Q27.4968 811.188 31.4117 808.164 Q35.2948 805.141 42.4881 805.141 L64.0042 805.141 L64.0042 811.029 L42.679 811.029 Q37.5546 811.029 35.072 812.843 Q32.5894 814.657 32.5894 818.381 Q32.5894 822.933 35.6131 825.574 Q38.6368 828.216 43.8567 828.216 L64.0042 828.216 L64.0042 834.105 L42.679 834.105 Q37.5228 834.105 35.072 835.919 Q32.5894 837.733 32.5894 841.521 Q32.5894 846.008 35.6449 848.65 Q38.6686 851.292 43.8567 851.292 L64.0042 851.292 L64.0042 857.18 L28.3562 857.18 L28.3562 851.292 L33.8944 851.292 Q30.616 849.287 29.0564 846.486 Q27.4968 843.685 27.4968 839.834 Q27.4968 835.951 29.4702 833.245 Q31.4436 830.508 35.1993 829.203 Z" fill="#000000" fill-rule="evenodd" fill-opacity="1" /><path clip-path="url(#clip500)" d="M28.3562 793.459 L28.3562 787.603 L64.0042 787.603 L64.0042 793.459 L28.3562 793.459 M14.479 793.459 L14.479 787.603 L21.895 787.603 L21.895 793.459 L14.479 793.459 Z" fill="#000000" fill-rule="evenodd" fill-opacity="1" /><path clip-path="url(#clip500)" d="M42.4881 745.717 L64.0042 745.717 L64.0042 751.573 L42.679 751.573 Q37.6183 751.573 35.1038 753.547 Q32.5894 755.52 32.5894 759.467 Q32.5894 764.209 35.6131 766.946 Q38.6368 769.684 43.8567 769.684 L64.0042 769.684 L64.0042 775.572 L28.3562 775.572 L28.3562 769.684 L33.8944 769.684 Q30.6797 767.583 29.0883 764.75 Q27.4968 761.886 27.4968 758.162 Q27.4968 752.019 31.3163 748.868 Q35.1038 745.717 42.4881 745.717 Z" fill="#000000" fill-rule="evenodd" fill-opacity="1" /><path clip-path="url(#clip500)" d="M74.8259 706.95 L79.3773 706.95 L79.3773 740.815 L74.8259 740.815 L74.8259 706.95 Z" fill="#000000" fill-rule="evenodd" fill-opacity="1" /><path clip-path="url(#clip500)" d="M33.7671 677.986 L14.479 677.986 L14.479 672.129 L64.0042 672.129 L64.0042 677.986 L58.657 677.986 Q61.8398 679.832 63.3994 682.664 Q64.9272 685.465 64.9272 689.412 Q64.9272 695.873 59.771 699.947 Q54.6147 703.989 46.212 703.989 Q37.8093 703.989 32.6531 699.947 Q27.4968 695.873 27.4968 689.412 Q27.4968 685.465 29.0564 682.664 Q30.5842 679.832 33.7671 677.986 M46.212 697.942 Q52.6732 697.942 56.3653 695.3 Q60.0256 692.627 60.0256 687.98 Q60.0256 683.333 56.3653 680.659 Q52.6732 677.986 46.212 677.986 Q39.7508 677.986 36.0905 680.659 Q32.3984 683.333 32.3984 687.98 Q32.3984 692.627 36.0905 695.3 Q39.7508 697.942 46.212 697.942 Z" fill="#000000" fill-rule="evenodd" fill-opacity="1" /><path clip-path="url(#clip500)" d="M28.3562 660.066 L28.3562 654.21 L64.0042 654.21 L64.0042 660.066 L28.3562 660.066 M14.479 660.066 L14.479 654.21 L21.895 654.21 L21.895 660.066 L14.479 660.066 Z" fill="#000000" fill-rule="evenodd" fill-opacity="1" /><path clip-path="url(#clip500)" d="M14.479 623.909 L19.3487 623.909 L19.3487 629.511 Q19.3487 632.662 20.6219 633.903 Q21.895 635.113 25.2052 635.113 L28.3562 635.113 L28.3562 625.468 L32.9077 625.468 L32.9077 635.113 L64.0042 635.113 L64.0042 641.001 L32.9077 641.001 L32.9077 646.603 L28.3562 646.603 L28.3562 641.001 L25.8736 641.001 Q19.9216 641.001 17.2162 638.232 Q14.479 635.463 14.479 629.447 L14.479 623.909 Z" fill="#000000" fill-rule="evenodd" fill-opacity="1" /><path clip-path="url(#clip500)" d="M14.479 600.961 L19.3487 600.961 L19.3487 606.562 Q19.3487 609.713 20.6219 610.955 Q21.895 612.164 25.2052 612.164 L28.3562 612.164 L28.3562 602.52 L32.9077 602.52 L32.9077 612.164 L64.0042 612.164 L64.0042 618.052 L32.9077 618.052 L32.9077 623.654 L28.3562 623.654 L28.3562 618.052 L25.8736 618.052 Q19.9216 618.052 17.2162 615.283 Q14.479 612.514 14.479 606.499 L14.479 600.961 Z" fill="#000000" fill-rule="evenodd" fill-opacity="1" /><polyline clip-path="url(#clip502)" style="stroke:#009af9; stroke-linecap:butt; stroke-linejoin:round; stroke-width:20; stroke-opacity:1; fill:none" stroke-dasharray="80, 50" points="
  308.595,985.061 1300.91,85.838 2293.22,1372.3 
  "/>
<path clip-path="url(#clip500)" d="
M1996.46 196.379 L2282.63 196.379 L2282.63 92.6992 L1996.46 92.6992  Z
  " fill="#ffffff" fill-rule="evenodd" fill-opacity="1"/>
<polyline clip-path="url(#clip500)" style="stroke:#000000; stroke-linecap:butt; stroke-linejoin:round; stroke-width:4; stroke-opacity:1; fill:none" points="
  1996.46,196.379 2282.63,196.379 2282.63,92.6992 1996.46,92.6992 1996.46,196.379 
  "/>
<polyline clip-path="url(#clip500)" style="stroke:#009af9; stroke-linecap:butt; stroke-linejoin:round; stroke-width:4; stroke-opacity:1; fill:none" stroke-dasharray="16, 10" points="
  2019.83,144.539 2160.08,144.539 
  "/>
<path clip-path="url(#clip500)" d="M2197.3 164.227 Q2195.49 168.856 2193.78 170.268 Q2192.06 171.68 2189.19 171.68 L2185.79 171.68 L2185.79 168.115 L2188.29 168.115 Q2190.05 168.115 2191.02 167.282 Q2192 166.449 2193.18 163.347 L2193.94 161.403 L2183.45 135.893 L2187.97 135.893 L2196.07 156.171 L2204.17 135.893 L2208.68 135.893 L2197.3 164.227 Z" fill="#000000" fill-rule="evenodd" fill-opacity="1" /><path clip-path="url(#clip500)" d="M2215.98 157.884 L2223.62 157.884 L2223.62 131.518 L2215.31 133.185 L2215.31 128.926 L2223.57 127.259 L2228.24 127.259 L2228.24 157.884 L2235.88 157.884 L2235.88 161.819 L2215.98 161.819 L2215.98 157.884 Z" fill="#000000" fill-rule="evenodd" fill-opacity="1" /></svg>
