<?xml version="1.0" encoding="utf-8"?>
<svg xmlns="http://www.w3.org/2000/svg" xmlns:xlink="http://www.w3.org/1999/xlink" width="600" height="400" viewBox="0 0 2400 1600">
<defs>
  <clipPath id="clip860">
    <rect x="0" y="0" width="2400" height="1600"/>
  </clipPath>
</defs>
<path clip-path="url(#clip860)" d="
M0 1600 L2400 1600 L2400 0 L0 0  Z
  " fill="#ffffff" fill-rule="evenodd" fill-opacity="1"/>
<defs>
  <clipPath id="clip861">
    <rect x="480" y="0" width="1681" height="1600"/>
  </clipPath>
</defs>
<path clip-path="url(#clip860)" d="
M227.042 1410.9 L2352.76 1410.9 L2352.76 47.2441 L227.042 47.2441  Z
  " fill="#ffffff" fill-rule="evenodd" fill-opacity="1"/>
<defs>
  <clipPath id="clip862">
    <rect x="227" y="47" width="2127" height="1365"/>
  </clipPath>
</defs>
<polyline clip-path="url(#clip862)" style="stroke:#000000; stroke-width:2; stroke-opacity:0.1; fill:none" points="
  413.669,1410.9 413.669,47.2441 
  "/>
<polyline clip-path="url(#clip862)" style="stroke:#000000; stroke-width:2; stroke-opacity:0.1; fill:none" points="
  664.02,1410.9 664.02,47.2441 
  "/>
<polyline clip-path="url(#clip862)" style="stroke:#000000; stroke-width:2; stroke-opacity:0.1; fill:none" points="
  914.372,1410.9 914.372,47.2441 
  "/>
<polyline clip-path="url(#clip862)" style="stroke:#000000; stroke-width:2; stroke-opacity:0.1; fill:none" points="
  1164.72,1410.9 1164.72,47.2441 
  "/>
<polyline clip-path="url(#clip862)" style="stroke:#000000; stroke-width:2; stroke-opacity:0.1; fill:none" points="
  1415.07,1410.9 1415.07,47.2441 
  "/>
<polyline clip-path="url(#clip862)" style="stroke:#000000; stroke-width:2; stroke-opacity:0.1; fill:none" points="
  1665.43,1410.9 1665.43,47.2441 
  "/>
<polyline clip-path="url(#clip862)" style="stroke:#000000; stroke-width:2; stroke-opacity:0.1; fill:none" points="
  1915.78,1410.9 1915.78,47.2441 
  "/>
<polyline clip-path="url(#clip862)" style="stroke:#000000; stroke-width:2; stroke-opacity:0.1; fill:none" points="
  2166.13,1410.9 2166.13,47.2441 
  "/>
<polyline clip-path="url(#clip860)" style="stroke:#000000; stroke-width:4; stroke-opacity:1; fill:none" points="
  227.042,1410.9 2352.76,1410.9 
  "/>
<polyline clip-path="url(#clip860)" style="stroke:#000000; stroke-width:4; stroke-opacity:1; fill:none" points="
  413.669,1410.9 413.669,1394.53 
  "/>
<polyline clip-path="url(#clip860)" style="stroke:#000000; stroke-width:4; stroke-opacity:1; fill:none" points="
  664.02,1410.9 664.02,1394.53 
  "/>
<polyline clip-path="url(#clip860)" style="stroke:#000000; stroke-width:4; stroke-opacity:1; fill:none" points="
  914.372,1410.9 914.372,1394.53 
  "/>
<polyline clip-path="url(#clip860)" style="stroke:#000000; stroke-width:4; stroke-opacity:1; fill:none" points="
  1164.72,1410.9 1164.72,1394.53 
  "/>
<polyline clip-path="url(#clip860)" style="stroke:#000000; stroke-width:4; stroke-opacity:1; fill:none" points="
  1415.07,1410.9 1415.07,1394.53 
  "/>
<polyline clip-path="url(#clip860)" style="stroke:#000000; stroke-width:4; stroke-opacity:1; fill:none" points="
  1665.43,1410.9 1665.43,1394.53 
  "/>
<polyline clip-path="url(#clip860)" style="stroke:#000000; stroke-width:4; stroke-opacity:1; fill:none" points="
  1915.78,1410.9 1915.78,1394.53 
  "/>
<polyline clip-path="url(#clip860)" style="stroke:#000000; stroke-width:4; stroke-opacity:1; fill:none" points="
  2166.13,1410.9 2166.13,1394.53 
  "/>
<path clip-path="url(#clip860)" d="M 0 0 M353.145 1489.17 L360.784 1489.17 L360.784 1462.8 L352.473 1464.47 L352.473 1460.21 L360.737 1458.54 L365.413 1458.54 L365.413 1489.17 L373.052 1489.17 L373.052 1493.1 L353.145 1493.1 L353.145 1489.17 Z" fill="#000000" fill-rule="evenodd" fill-opacity="1" /><path clip-path="url(#clip860)" d="M 0 0 M388.121 1461.62 Q384.51 1461.62 382.682 1465.19 Q380.876 1468.73 380.876 1475.86 Q380.876 1482.97 382.682 1486.53 Q384.51 1490.07 388.121 1490.07 Q391.756 1490.07 393.561 1486.53 Q395.39 1482.97 395.39 1475.86 Q395.39 1468.73 393.561 1465.19 Q391.756 1461.62 388.121 1461.62 M388.121 1457.92 Q393.932 1457.92 396.987 1462.53 Q400.066 1467.11 400.066 1475.86 Q400.066 1484.59 396.987 1489.19 Q393.932 1493.78 388.121 1493.78 Q382.311 1493.78 379.233 1489.19 Q376.177 1484.59 376.177 1475.86 Q376.177 1467.11 379.233 1462.53 Q382.311 1457.92 388.121 1457.92 Z" fill="#000000" fill-rule="evenodd" fill-opacity="1" /><path clip-path="url(#clip860)" d="M 0 0 M400.066 1452.02 L424.177 1452.02 L424.177 1455.22 L400.066 1455.22 L400.066 1452.02 Z" fill="#000000" fill-rule="evenodd" fill-opacity="1" /><path clip-path="url(#clip860)" d="M 0 0 M436.421 1440.11 Q433.487 1440.11 432.001 1443.01 Q430.534 1445.89 430.534 1451.68 Q430.534 1457.46 432.001 1460.35 Q433.487 1463.23 436.421 1463.23 Q439.374 1463.23 440.841 1460.35 Q442.327 1457.46 442.327 1451.68 Q442.327 1445.89 440.841 1443.01 Q439.374 1440.11 436.421 1440.11 M436.421 1437.11 Q441.142 1437.11 443.625 1440.85 Q446.126 1444.57 446.126 1451.68 Q446.126 1458.77 443.625 1462.51 Q441.142 1466.24 436.421 1466.24 Q431.7 1466.24 429.199 1462.51 Q426.716 1458.77 426.716 1451.68 Q426.716 1444.57 429.199 1440.85 Q431.7 1437.11 436.421 1437.11 Z" fill="#000000" fill-rule="evenodd" fill-opacity="1" /><path clip-path="url(#clip860)" d="M 0 0 M450.245 1460.92 L454.213 1460.92 L454.213 1465.69 L450.245 1465.69 L450.245 1460.92 Z" fill="#000000" fill-rule="evenodd" fill-opacity="1" /><path clip-path="url(#clip860)" d="M 0 0 M461.605 1462.5 L474.864 1462.5 L474.864 1465.69 L457.035 1465.69 L457.035 1462.5 Q459.197 1460.26 462.921 1456.5 Q466.664 1452.72 467.623 1451.63 Q469.448 1449.58 470.162 1448.16 Q470.896 1446.74 470.896 1445.36 Q470.896 1443.12 469.316 1441.71 Q467.755 1440.3 465.235 1440.3 Q463.448 1440.3 461.454 1440.92 Q459.48 1441.54 457.223 1442.8 L457.223 1438.97 Q459.517 1438.05 461.511 1437.58 Q463.504 1437.11 465.16 1437.11 Q469.523 1437.11 472.118 1439.29 Q474.714 1441.47 474.714 1445.12 Q474.714 1446.85 474.056 1448.41 Q473.416 1449.95 471.705 1452.06 Q471.234 1452.6 468.714 1455.22 Q466.194 1457.81 461.605 1462.5 Z" fill="#000000" fill-rule="evenodd" fill-opacity="1" /><path clip-path="url(#clip860)" d="M 0 0 M616.173 1489.17 L623.812 1489.17 L623.812 1462.8 L615.501 1464.47 L615.501 1460.21 L623.765 1458.54 L628.441 1458.54 L628.441 1489.17 L636.08 1489.17 L636.08 1493.1 L616.173 1493.1 L616.173 1489.17 Z" fill="#000000" fill-rule="evenodd" fill-opacity="1" /><path clip-path="url(#clip860)" d="M 0 0 M651.149 1461.62 Q647.538 1461.62 645.71 1465.19 Q643.904 1468.73 643.904 1475.86 Q643.904 1482.97 645.71 1486.53 Q647.538 1490.07 651.149 1490.07 Q654.784 1490.07 656.589 1486.53 Q658.418 1482.97 658.418 1475.86 Q658.418 1468.73 656.589 1465.19 Q654.784 1461.62 651.149 1461.62 M651.149 1457.92 Q656.959 1457.92 660.015 1462.53 Q663.094 1467.11 663.094 1475.86 Q663.094 1484.59 660.015 1489.19 Q656.959 1493.78 651.149 1493.78 Q645.339 1493.78 642.261 1489.19 Q639.205 1484.59 639.205 1475.86 Q639.205 1467.11 642.261 1462.53 Q645.339 1457.92 651.149 1457.92 Z" fill="#000000" fill-rule="evenodd" fill-opacity="1" /><path clip-path="url(#clip860)" d="M 0 0 M672.799 1440.11 Q669.865 1440.11 668.379 1443.01 Q666.912 1445.89 666.912 1451.68 Q666.912 1457.46 668.379 1460.35 Q669.865 1463.23 672.799 1463.23 Q675.751 1463.23 677.218 1460.35 Q678.704 1457.46 678.704 1451.68 Q678.704 1445.89 677.218 1443.01 Q675.751 1440.11 672.799 1440.11 M672.799 1437.11 Q677.519 1437.11 680.002 1440.85 Q682.503 1444.57 682.503 1451.68 Q682.503 1458.77 680.002 1462.51 Q677.519 1466.24 672.799 1466.24 Q668.078 1466.24 665.576 1462.51 Q663.094 1458.77 663.094 1451.68 Q663.094 1444.57 665.576 1440.85 Q668.078 1437.11 672.799 1437.11 Z" fill="#000000" fill-rule="evenodd" fill-opacity="1" /><path clip-path="url(#clip860)" d="M 0 0 M686.622 1460.92 L690.591 1460.92 L690.591 1465.69 L686.622 1465.69 L686.622 1460.92 Z" fill="#000000" fill-rule="evenodd" fill-opacity="1" /><path clip-path="url(#clip860)" d="M 0 0 M702.835 1440.11 Q699.901 1440.11 698.415 1443.01 Q696.948 1445.89 696.948 1451.68 Q696.948 1457.46 698.415 1460.35 Q699.901 1463.23 702.835 1463.23 Q705.787 1463.23 707.254 1460.35 Q708.74 1457.46 708.74 1451.68 Q708.74 1445.89 707.254 1443.01 Q705.787 1440.11 702.835 1440.11 M702.835 1437.11 Q707.555 1437.11 710.038 1440.85 Q712.539 1444.57 712.539 1451.68 Q712.539 1458.77 710.038 1462.51 Q707.555 1466.24 702.835 1466.24 Q698.114 1466.24 695.612 1462.51 Q693.13 1458.77 693.13 1451.68 Q693.13 1444.57 695.612 1440.85 Q698.114 1437.11 702.835 1437.11 Z" fill="#000000" fill-rule="evenodd" fill-opacity="1" /><path clip-path="url(#clip860)" d="M 0 0 M867.173 1489.17 L874.812 1489.17 L874.812 1462.8 L866.502 1464.47 L866.502 1460.21 L874.766 1458.54 L879.441 1458.54 L879.441 1489.17 L887.08 1489.17 L887.08 1493.1 L867.173 1493.1 L867.173 1489.17 Z" fill="#000000" fill-rule="evenodd" fill-opacity="1" /><path clip-path="url(#clip860)" d="M 0 0 M902.15 1461.62 Q898.539 1461.62 896.71 1465.19 Q894.904 1468.73 894.904 1475.86 Q894.904 1482.97 896.71 1486.53 Q898.539 1490.07 902.15 1490.07 Q905.784 1490.07 907.589 1486.53 Q909.418 1482.97 909.418 1475.86 Q909.418 1468.73 907.589 1465.19 Q905.784 1461.62 902.15 1461.62 M902.15 1457.92 Q907.96 1457.92 911.015 1462.53 Q914.094 1467.11 914.094 1475.86 Q914.094 1484.59 911.015 1489.19 Q907.96 1493.78 902.15 1493.78 Q896.34 1493.78 893.261 1489.19 Q890.205 1484.59 890.205 1475.86 Q890.205 1467.11 893.261 1462.53 Q896.34 1457.92 902.15 1457.92 Z" fill="#000000" fill-rule="evenodd" fill-opacity="1" /><path clip-path="url(#clip860)" d="M 0 0 M923.799 1440.11 Q920.865 1440.11 919.379 1443.01 Q917.912 1445.89 917.912 1451.68 Q917.912 1457.46 919.379 1460.35 Q920.865 1463.23 923.799 1463.23 Q926.752 1463.23 928.219 1460.35 Q929.705 1457.46 929.705 1451.68 Q929.705 1445.89 928.219 1443.01 Q926.752 1440.11 923.799 1440.11 M923.799 1437.11 Q928.52 1437.11 931.002 1440.85 Q933.504 1444.57 933.504 1451.68 Q933.504 1458.77 931.002 1462.51 Q928.52 1466.24 923.799 1466.24 Q919.078 1466.24 916.577 1462.51 Q914.094 1458.77 914.094 1451.68 Q914.094 1444.57 916.577 1440.85 Q919.078 1437.11 923.799 1437.11 Z" fill="#000000" fill-rule="evenodd" fill-opacity="1" /><path clip-path="url(#clip860)" d="M 0 0 M937.623 1460.92 L941.591 1460.92 L941.591 1465.69 L937.623 1465.69 L937.623 1460.92 Z" fill="#000000" fill-rule="evenodd" fill-opacity="1" /><path clip-path="url(#clip860)" d="M 0 0 M948.982 1462.5 L962.242 1462.5 L962.242 1465.69 L944.412 1465.69 L944.412 1462.5 Q946.575 1460.26 950.299 1456.5 Q954.042 1452.72 955.001 1451.63 Q956.825 1449.58 957.54 1448.16 Q958.274 1446.74 958.274 1445.36 Q958.274 1443.12 956.694 1441.71 Q955.133 1440.3 952.612 1440.3 Q950.826 1440.3 948.832 1440.92 Q946.857 1441.54 944.6 1442.8 L944.6 1438.97 Q946.895 1438.05 948.888 1437.58 Q950.882 1437.11 952.537 1437.11 Q956.901 1437.11 959.496 1439.29 Q962.091 1441.47 962.091 1445.12 Q962.091 1446.85 961.433 1448.41 Q960.794 1449.95 959.082 1452.06 Q958.612 1452.6 956.092 1455.22 Q953.572 1457.81 948.982 1462.5 Z" fill="#000000" fill-rule="evenodd" fill-opacity="1" /><path clip-path="url(#clip860)" d="M 0 0 M1116.68 1489.17 L1124.32 1489.17 L1124.32 1462.8 L1116.01 1464.47 L1116.01 1460.21 L1124.27 1458.54 L1128.95 1458.54 L1128.95 1489.17 L1136.59 1489.17 L1136.59 1493.1 L1116.68 1493.1 L1116.68 1489.17 Z" fill="#000000" fill-rule="evenodd" fill-opacity="1" /><path clip-path="url(#clip860)" d="M 0 0 M1151.65 1461.62 Q1148.04 1461.62 1146.22 1465.19 Q1144.41 1468.73 1144.41 1475.86 Q1144.41 1482.97 1146.22 1486.53 Q1148.04 1490.07 1151.65 1490.07 Q1155.29 1490.07 1157.09 1486.53 Q1158.92 1482.97 1158.92 1475.86 Q1158.92 1468.73 1157.09 1465.19 Q1155.29 1461.62 1151.65 1461.62 M1151.65 1457.92 Q1157.46 1457.92 1160.52 1462.53 Q1163.6 1467.11 1163.6 1475.86 Q1163.6 1484.59 1160.52 1489.19 Q1157.46 1493.78 1151.65 1493.78 Q1145.84 1493.78 1142.77 1489.19 Q1139.71 1484.59 1139.71 1475.86 Q1139.71 1467.11 1142.77 1462.53 Q1145.84 1457.92 1151.65 1457.92 Z" fill="#000000" fill-rule="evenodd" fill-opacity="1" /><path clip-path="url(#clip860)" d="M 0 0 M1173.3 1440.11 Q1170.37 1440.11 1168.88 1443.01 Q1167.42 1445.89 1167.42 1451.68 Q1167.42 1457.46 1168.88 1460.35 Q1170.37 1463.23 1173.3 1463.23 Q1176.26 1463.23 1177.72 1460.35 Q1179.21 1457.46 1179.21 1451.68 Q1179.21 1445.89 1177.72 1443.01 Q1176.26 1440.11 1173.3 1440.11 M1173.3 1437.11 Q1178.02 1437.11 1180.51 1440.85 Q1183.01 1444.57 1183.01 1451.68 Q1183.01 1458.77 1180.51 1462.51 Q1178.02 1466.24 1173.3 1466.24 Q1168.58 1466.24 1166.08 1462.51 Q1163.6 1458.77 1163.6 1451.68 Q1163.6 1444.57 1166.08 1440.85 Q1168.58 1437.11 1173.3 1437.11 Z" fill="#000000" fill-rule="evenodd" fill-opacity="1" /><path clip-path="url(#clip860)" d="M 0 0 M1187.13 1460.92 L1191.1 1460.92 L1191.1 1465.69 L1187.13 1465.69 L1187.13 1460.92 Z" fill="#000000" fill-rule="evenodd" fill-opacity="1" /><path clip-path="url(#clip860)" d="M 0 0 M1205.65 1440.92 L1196.06 1455.91 L1205.65 1455.91 L1205.65 1440.92 M1204.66 1437.61 L1209.43 1437.61 L1209.43 1455.91 L1213.44 1455.91 L1213.44 1459.07 L1209.43 1459.07 L1209.43 1465.69 L1205.65 1465.69 L1205.65 1459.07 L1192.98 1459.07 L1192.98 1455.41 L1204.66 1437.61 Z" fill="#000000" fill-rule="evenodd" fill-opacity="1" /><path clip-path="url(#clip860)" d="M 0 0 M1367.16 1489.17 L1374.8 1489.17 L1374.8 1462.8 L1366.49 1464.47 L1366.49 1460.21 L1374.75 1458.54 L1379.43 1458.54 L1379.43 1489.17 L1387.07 1489.17 L1387.07 1493.1 L1367.16 1493.1 L1367.16 1489.17 Z" fill="#000000" fill-rule="evenodd" fill-opacity="1" /><path clip-path="url(#clip860)" d="M 0 0 M1402.14 1461.62 Q1398.53 1461.62 1396.7 1465.19 Q1394.89 1468.73 1394.89 1475.86 Q1394.89 1482.97 1396.7 1486.53 Q1398.53 1490.07 1402.14 1490.07 Q1405.77 1490.07 1407.58 1486.53 Q1409.41 1482.97 1409.41 1475.86 Q1409.41 1468.73 1407.58 1465.19 Q1405.77 1461.62 1402.14 1461.62 M1402.14 1457.92 Q1407.95 1457.92 1411 1462.53 Q1414.08 1467.11 1414.08 1475.86 Q1414.08 1484.59 1411 1489.19 Q1407.95 1493.78 1402.14 1493.78 Q1396.33 1493.78 1393.25 1489.19 Q1390.19 1484.59 1390.19 1475.86 Q1390.19 1467.11 1393.25 1462.53 Q1396.33 1457.92 1402.14 1457.92 Z" fill="#000000" fill-rule="evenodd" fill-opacity="1" /><path clip-path="url(#clip860)" d="M 0 0 M1423.79 1440.11 Q1420.85 1440.11 1419.37 1443.01 Q1417.9 1445.89 1417.9 1451.68 Q1417.9 1457.46 1419.37 1460.35 Q1420.85 1463.23 1423.79 1463.23 Q1426.74 1463.23 1428.21 1460.35 Q1429.69 1457.46 1429.69 1451.68 Q1429.69 1445.89 1428.21 1443.01 Q1426.74 1440.11 1423.79 1440.11 M1423.79 1437.11 Q1428.51 1437.11 1430.99 1440.85 Q1433.49 1444.57 1433.49 1451.68 Q1433.49 1458.77 1430.99 1462.51 Q1428.51 1466.24 1423.79 1466.24 Q1419.07 1466.24 1416.56 1462.51 Q1414.08 1458.77 1414.08 1451.68 Q1414.08 1444.57 1416.56 1440.85 Q1419.07 1437.11 1423.79 1437.11 Z" fill="#000000" fill-rule="evenodd" fill-opacity="1" /><path clip-path="url(#clip860)" d="M 0 0 M1437.61 1460.92 L1441.58 1460.92 L1441.58 1465.69 L1437.61 1465.69 L1437.61 1460.92 Z" fill="#000000" fill-rule="evenodd" fill-opacity="1" /><path clip-path="url(#clip860)" d="M 0 0 M1454.29 1450.14 Q1451.74 1450.14 1450.23 1451.89 Q1448.75 1453.64 1448.75 1456.68 Q1448.75 1459.71 1450.23 1461.48 Q1451.74 1463.23 1454.29 1463.23 Q1456.85 1463.23 1458.34 1461.48 Q1459.84 1459.71 1459.84 1456.68 Q1459.84 1453.64 1458.34 1451.89 Q1456.85 1450.14 1454.29 1450.14 M1461.84 1438.23 L1461.84 1441.69 Q1460.41 1441.02 1458.94 1440.66 Q1457.49 1440.3 1456.06 1440.3 Q1452.3 1440.3 1450.31 1442.84 Q1448.33 1445.38 1448.05 1450.52 Q1449.16 1448.88 1450.83 1448.01 Q1452.51 1447.13 1454.52 1447.13 Q1458.75 1447.13 1461.2 1449.71 Q1463.66 1452.26 1463.66 1456.68 Q1463.66 1461.01 1461.1 1463.62 Q1458.54 1466.24 1454.29 1466.24 Q1449.42 1466.24 1446.85 1462.51 Q1444.27 1458.77 1444.27 1451.68 Q1444.27 1445.02 1447.43 1441.07 Q1450.59 1437.11 1455.91 1437.11 Q1457.34 1437.11 1458.79 1437.39 Q1460.26 1437.67 1461.84 1438.23 Z" fill="#000000" fill-rule="evenodd" fill-opacity="1" /><path clip-path="url(#clip860)" d="M 0 0 M1617.62 1489.17 L1625.26 1489.17 L1625.26 1462.8 L1616.94 1464.47 L1616.94 1460.21 L1625.21 1458.54 L1629.88 1458.54 L1629.88 1489.17 L1637.52 1489.17 L1637.52 1493.1 L1617.62 1493.1 L1617.62 1489.17 Z" fill="#000000" fill-rule="evenodd" fill-opacity="1" /><path clip-path="url(#clip860)" d="M 0 0 M1652.59 1461.62 Q1648.98 1461.62 1647.15 1465.19 Q1645.35 1468.73 1645.35 1475.86 Q1645.35 1482.97 1647.15 1486.53 Q1648.98 1490.07 1652.59 1490.07 Q1656.23 1490.07 1658.03 1486.53 Q1659.86 1482.97 1659.86 1475.86 Q1659.86 1468.73 1658.03 1465.19 Q1656.23 1461.62 1652.59 1461.62 M1652.59 1457.92 Q1658.4 1457.92 1661.46 1462.53 Q1664.54 1467.11 1664.54 1475.86 Q1664.54 1484.59 1661.46 1489.19 Q1658.4 1493.78 1652.59 1493.78 Q1646.78 1493.78 1643.7 1489.19 Q1640.65 1484.59 1640.65 1475.86 Q1640.65 1467.11 1643.7 1462.53 Q1646.78 1457.92 1652.59 1457.92 Z" fill="#000000" fill-rule="evenodd" fill-opacity="1" /><path clip-path="url(#clip860)" d="M 0 0 M1674.24 1440.11 Q1671.31 1440.11 1669.82 1443.01 Q1668.36 1445.89 1668.36 1451.68 Q1668.36 1457.46 1669.82 1460.35 Q1671.31 1463.23 1674.24 1463.23 Q1677.19 1463.23 1678.66 1460.35 Q1680.15 1457.46 1680.15 1451.68 Q1680.15 1445.89 1678.66 1443.01 Q1677.19 1440.11 1674.24 1440.11 M1674.24 1437.11 Q1678.96 1437.11 1681.45 1440.85 Q1683.95 1444.57 1683.95 1451.68 Q1683.95 1458.77 1681.45 1462.51 Q1678.96 1466.24 1674.24 1466.24 Q1669.52 1466.24 1667.02 1462.51 Q1664.54 1458.77 1664.54 1451.68 Q1664.54 1444.57 1667.02 1440.85 Q1669.52 1437.11 1674.24 1437.11 Z" fill="#000000" fill-rule="evenodd" fill-opacity="1" /><path clip-path="url(#clip860)" d="M 0 0 M1688.07 1460.92 L1692.03 1460.92 L1692.03 1465.69 L1688.07 1465.69 L1688.07 1460.92 Z" fill="#000000" fill-rule="evenodd" fill-opacity="1" /><path clip-path="url(#clip860)" d="M 0 0 M1704.28 1452.36 Q1701.57 1452.36 1700.01 1453.81 Q1698.47 1455.26 1698.47 1457.79 Q1698.47 1460.33 1700.01 1461.78 Q1701.57 1463.23 1704.28 1463.23 Q1706.99 1463.23 1708.55 1461.78 Q1710.11 1460.31 1710.11 1457.79 Q1710.11 1455.26 1708.55 1453.81 Q1707.01 1452.36 1704.28 1452.36 M1700.48 1450.74 Q1698.03 1450.14 1696.66 1448.47 Q1695.31 1446.79 1695.31 1444.38 Q1695.31 1441.02 1697.7 1439.06 Q1700.1 1437.11 1704.28 1437.11 Q1708.47 1437.11 1710.86 1439.06 Q1713.25 1441.02 1713.25 1444.38 Q1713.25 1446.79 1711.88 1448.47 Q1710.52 1450.14 1708.1 1450.74 Q1710.84 1451.38 1712.37 1453.24 Q1713.91 1455.1 1713.91 1457.79 Q1713.91 1461.88 1711.41 1464.06 Q1708.92 1466.24 1704.28 1466.24 Q1699.63 1466.24 1697.13 1464.06 Q1694.65 1461.88 1694.65 1457.79 Q1694.65 1455.1 1696.19 1453.24 Q1697.73 1451.38 1700.48 1450.74 M1699.09 1444.74 Q1699.09 1446.92 1700.44 1448.15 Q1701.81 1449.37 1704.28 1449.37 Q1706.72 1449.37 1708.1 1448.15 Q1709.49 1446.92 1709.49 1444.74 Q1709.49 1442.56 1708.1 1441.34 Q1706.72 1440.11 1704.28 1440.11 Q1701.81 1440.11 1700.44 1441.34 Q1699.09 1442.56 1699.09 1444.74 Z" fill="#000000" fill-rule="evenodd" fill-opacity="1" /><path clip-path="url(#clip860)" d="M 0 0 M1869.27 1489.17 L1876.91 1489.17 L1876.91 1462.8 L1868.6 1464.47 L1868.6 1460.21 L1876.87 1458.54 L1881.54 1458.54 L1881.54 1489.17 L1889.18 1489.17 L1889.18 1493.1 L1869.27 1493.1 L1869.27 1489.17 Z" fill="#000000" fill-rule="evenodd" fill-opacity="1" /><path clip-path="url(#clip860)" d="M 0 0 M1904.25 1461.62 Q1900.64 1461.62 1898.81 1465.19 Q1897.01 1468.73 1897.01 1475.86 Q1897.01 1482.97 1898.81 1486.53 Q1900.64 1490.07 1904.25 1490.07 Q1907.89 1490.07 1909.69 1486.53 Q1911.52 1482.97 1911.52 1475.86 Q1911.52 1468.73 1909.69 1465.19 Q1907.89 1461.62 1904.25 1461.62 M1904.25 1457.92 Q1910.06 1457.92 1913.12 1462.53 Q1916.2 1467.11 1916.2 1475.86 Q1916.2 1484.59 1913.12 1489.19 Q1910.06 1493.78 1904.25 1493.78 Q1898.44 1493.78 1895.36 1489.19 Q1892.31 1484.59 1892.31 1475.86 Q1892.31 1467.11 1895.36 1462.53 Q1898.44 1457.92 1904.25 1457.92 Z" fill="#000000" fill-rule="evenodd" fill-opacity="1" /><path clip-path="url(#clip860)" d="M 0 0 M1916.74 1462.5 L1922.95 1462.5 L1922.95 1441.07 L1916.2 1442.43 L1916.2 1438.97 L1922.91 1437.61 L1926.71 1437.61 L1926.71 1462.5 L1932.92 1462.5 L1932.92 1465.69 L1916.74 1465.69 L1916.74 1462.5 Z" fill="#000000" fill-rule="evenodd" fill-opacity="1" /><path clip-path="url(#clip860)" d="M 0 0 M1937.03 1460.92 L1941 1460.92 L1941 1465.69 L1937.03 1465.69 L1937.03 1460.92 Z" fill="#000000" fill-rule="evenodd" fill-opacity="1" /><path clip-path="url(#clip860)" d="M 0 0 M1953.25 1440.11 Q1950.31 1440.11 1948.83 1443.01 Q1947.36 1445.89 1947.36 1451.68 Q1947.36 1457.46 1948.83 1460.35 Q1950.31 1463.23 1953.25 1463.23 Q1956.2 1463.23 1957.67 1460.35 Q1959.15 1457.46 1959.15 1451.68 Q1959.15 1445.89 1957.67 1443.01 Q1956.2 1440.11 1953.25 1440.11 M1953.25 1437.11 Q1957.97 1437.11 1960.45 1440.85 Q1962.95 1444.57 1962.95 1451.68 Q1962.95 1458.77 1960.45 1462.51 Q1957.97 1466.24 1953.25 1466.24 Q1948.53 1466.24 1946.02 1462.51 Q1943.54 1458.77 1943.54 1451.68 Q1943.54 1444.57 1946.02 1440.85 Q1948.53 1437.11 1953.25 1437.11 Z" fill="#000000" fill-rule="evenodd" fill-opacity="1" /><path clip-path="url(#clip860)" d="M 0 0 M2120.28 1489.17 L2127.91 1489.17 L2127.91 1462.8 L2119.6 1464.47 L2119.6 1460.21 L2127.87 1458.54 L2132.54 1458.54 L2132.54 1489.17 L2140.18 1489.17 L2140.18 1493.1 L2120.28 1493.1 L2120.28 1489.17 Z" fill="#000000" fill-rule="evenodd" fill-opacity="1" /><path clip-path="url(#clip860)" d="M 0 0 M2155.25 1461.62 Q2151.64 1461.62 2149.81 1465.19 Q2148.01 1468.73 2148.01 1475.86 Q2148.01 1482.97 2149.81 1486.53 Q2151.64 1490.07 2155.25 1490.07 Q2158.89 1490.07 2160.69 1486.53 Q2162.52 1482.97 2162.52 1475.86 Q2162.52 1468.73 2160.69 1465.19 Q2158.89 1461.62 2155.25 1461.62 M2155.25 1457.92 Q2161.06 1457.92 2164.12 1462.53 Q2167.2 1467.11 2167.2 1475.86 Q2167.2 1484.59 2164.12 1489.19 Q2161.06 1493.78 2155.25 1493.78 Q2149.44 1493.78 2146.36 1489.19 Q2143.31 1484.59 2143.31 1475.86 Q2143.31 1467.11 2146.36 1462.53 Q2149.44 1457.92 2155.25 1457.92 Z" fill="#000000" fill-rule="evenodd" fill-opacity="1" /><path clip-path="url(#clip860)" d="M 0 0 M2167.74 1462.5 L2173.95 1462.5 L2173.95 1441.07 L2167.2 1442.43 L2167.2 1438.97 L2173.91 1437.61 L2177.71 1437.61 L2177.71 1462.5 L2183.92 1462.5 L2183.92 1465.69 L2167.74 1465.69 L2167.74 1462.5 Z" fill="#000000" fill-rule="evenodd" fill-opacity="1" /><path clip-path="url(#clip860)" d="M 0 0 M2188.04 1460.92 L2192 1460.92 L2192 1465.69 L2188.04 1465.69 L2188.04 1460.92 Z" fill="#000000" fill-rule="evenodd" fill-opacity="1" /><path clip-path="url(#clip860)" d="M 0 0 M2199.4 1462.5 L2212.65 1462.5 L2212.65 1465.69 L2194.82 1465.69 L2194.82 1462.5 Q2196.99 1460.26 2200.71 1456.5 Q2204.45 1452.72 2205.41 1451.63 Q2207.24 1449.58 2207.95 1448.16 Q2208.69 1446.74 2208.69 1445.36 Q2208.69 1443.12 2207.11 1441.71 Q2205.55 1440.3 2203.02 1440.3 Q2201.24 1440.3 2199.24 1440.92 Q2197.27 1441.54 2195.01 1442.8 L2195.01 1438.97 Q2197.31 1438.05 2199.3 1437.58 Q2201.29 1437.11 2202.95 1437.11 Q2207.31 1437.11 2209.91 1439.29 Q2212.5 1441.47 2212.5 1445.12 Q2212.5 1446.85 2211.85 1448.41 Q2211.21 1449.95 2209.49 1452.06 Q2209.02 1452.6 2206.5 1455.22 Q2203.98 1457.81 2199.4 1462.5 Z" fill="#000000" fill-rule="evenodd" fill-opacity="1" /><path clip-path="url(#clip860)" d="M 0 0 M1280.38 1559.99 L1280.38 1575.74 L1274.49 1575.74 L1274.49 1526.76 Q1274.49 1512.25 1288.05 1512.25 Q1301.87 1512.25 1301.87 1524.5 Q1301.87 1533.22 1296.39 1536.4 Q1305.3 1539.27 1305.3 1547.77 Q1305.3 1562.85 1289.96 1562.85 Q1283.22 1562.85 1280.38 1559.99 M1280.38 1552.35 Q1283.92 1557.86 1290.19 1557.86 Q1299.35 1557.86 1299.35 1547.86 Q1299.35 1538.89 1284.58 1539.59 L1284.58 1534.18 Q1296.14 1534.18 1296.14 1523.99 Q1296.14 1517.02 1288.69 1517.02 Q1280.38 1517.02 1280.38 1526.95 L1280.38 1552.35 Z" fill="#000000" fill-rule="evenodd" fill-opacity="1" /><polyline clip-path="url(#clip862)" style="stroke:#000000; stroke-width:2; stroke-opacity:0.1; fill:none" points="
  227.042,1392.15 2352.76,1392.15 
  "/>
<polyline clip-path="url(#clip862)" style="stroke:#000000; stroke-width:2; stroke-opacity:0.1; fill:none" points="
  227.042,1025.81 2352.76,1025.81 
  "/>
<polyline clip-path="url(#clip862)" style="stroke:#000000; stroke-width:2; stroke-opacity:0.1; fill:none" points="
  227.042,659.462 2352.76,659.462 
  "/>
<polyline clip-path="url(#clip862)" style="stroke:#000000; stroke-width:2; stroke-opacity:0.1; fill:none" points="
  227.042,293.118 2352.76,293.118 
  "/>
<polyline clip-path="url(#clip860)" style="stroke:#000000; stroke-width:4; stroke-opacity:1; fill:none" points="
  227.042,1410.9 227.042,47.2441 
  "/>
<polyline clip-path="url(#clip860)" style="stroke:#000000; stroke-width:4; stroke-opacity:1; fill:none" points="
  227.042,1392.15 252.551,1392.15 
  "/>
<polyline clip-path="url(#clip860)" style="stroke:#000000; stroke-width:4; stroke-opacity:1; fill:none" points="
  227.042,1025.81 252.551,1025.81 
  "/>
<polyline clip-path="url(#clip860)" style="stroke:#000000; stroke-width:4; stroke-opacity:1; fill:none" points="
  227.042,659.462 252.551,659.462 
  "/>
<polyline clip-path="url(#clip860)" style="stroke:#000000; stroke-width:4; stroke-opacity:1; fill:none" points="
  227.042,293.118 252.551,293.118 
  "/>
<path clip-path="url(#clip860)" d="M 0 0 M179.098 1377.95 Q175.487 1377.95 173.658 1381.51 Q171.852 1385.05 171.852 1392.18 Q171.852 1399.29 173.658 1402.85 Q175.487 1406.4 179.098 1406.4 Q182.732 1406.4 184.538 1402.85 Q186.366 1399.29 186.366 1392.18 Q186.366 1385.05 184.538 1381.51 Q182.732 1377.95 179.098 1377.95 M179.098 1374.24 Q184.908 1374.24 187.963 1378.85 Q191.042 1383.43 191.042 1392.18 Q191.042 1400.91 187.963 1405.52 Q184.908 1410.1 179.098 1410.1 Q173.288 1410.1 170.209 1405.52 Q167.153 1400.91 167.153 1392.18 Q167.153 1383.43 170.209 1378.85 Q173.288 1374.24 179.098 1374.24 Z" fill="#000000" fill-rule="evenodd" fill-opacity="1" /><path clip-path="url(#clip860)" d="M 0 0 M117.107 1039.15 L124.746 1039.15 L124.746 1012.78 L116.436 1014.45 L116.436 1010.19 L124.7 1008.53 L129.376 1008.53 L129.376 1039.15 L137.015 1039.15 L137.015 1043.09 L117.107 1043.09 L117.107 1039.15 Z" fill="#000000" fill-rule="evenodd" fill-opacity="1" /><path clip-path="url(#clip860)" d="M 0 0 M152.084 1011.6 Q148.473 1011.6 146.644 1015.17 Q144.839 1018.71 144.839 1025.84 Q144.839 1032.95 146.644 1036.51 Q148.473 1040.05 152.084 1040.05 Q155.718 1040.05 157.524 1036.51 Q159.353 1032.95 159.353 1025.84 Q159.353 1018.71 157.524 1015.17 Q155.718 1011.6 152.084 1011.6 M152.084 1007.9 Q157.894 1007.9 160.95 1012.51 Q164.028 1017.09 164.028 1025.84 Q164.028 1034.57 160.95 1039.17 Q157.894 1043.76 152.084 1043.76 Q146.274 1043.76 143.195 1039.17 Q140.14 1034.57 140.14 1025.84 Q140.14 1017.09 143.195 1012.51 Q146.274 1007.9 152.084 1007.9 Z" fill="#000000" fill-rule="evenodd" fill-opacity="1" /><path clip-path="url(#clip860)" d="M 0 0 M179.098 1011.6 Q175.487 1011.6 173.658 1015.17 Q171.852 1018.71 171.852 1025.84 Q171.852 1032.95 173.658 1036.51 Q175.487 1040.05 179.098 1040.05 Q182.732 1040.05 184.538 1036.51 Q186.366 1032.95 186.366 1025.84 Q186.366 1018.71 184.538 1015.17 Q182.732 1011.6 179.098 1011.6 M179.098 1007.9 Q184.908 1007.9 187.963 1012.51 Q191.042 1017.09 191.042 1025.84 Q191.042 1034.57 187.963 1039.17 Q184.908 1043.76 179.098 1043.76 Q173.288 1043.76 170.209 1039.17 Q167.153 1034.57 167.153 1025.84 Q167.153 1017.09 170.209 1012.51 Q173.288 1007.9 179.098 1007.9 Z" fill="#000000" fill-rule="evenodd" fill-opacity="1" /><path clip-path="url(#clip860)" d="M 0 0 M120.695 672.807 L137.015 672.807 L137.015 676.742 L115.07 676.742 L115.07 672.807 Q117.732 670.052 122.316 665.422 Q126.922 660.77 128.103 659.427 Q130.348 656.904 131.228 655.168 Q132.13 653.409 132.13 651.719 Q132.13 648.964 130.186 647.228 Q128.265 645.492 125.163 645.492 Q122.964 645.492 120.51 646.256 Q118.08 647.02 115.302 648.571 L115.302 643.849 Q118.126 642.714 120.58 642.136 Q123.033 641.557 125.07 641.557 Q130.441 641.557 133.635 644.242 Q136.829 646.927 136.829 651.418 Q136.829 653.548 136.019 655.469 Q135.232 657.367 133.126 659.96 Q132.547 660.631 129.445 663.848 Q126.343 667.043 120.695 672.807 Z" fill="#000000" fill-rule="evenodd" fill-opacity="1" /><path clip-path="url(#clip860)" d="M 0 0 M152.084 645.261 Q148.473 645.261 146.644 648.825 Q144.839 652.367 144.839 659.497 Q144.839 666.603 146.644 670.168 Q148.473 673.709 152.084 673.709 Q155.718 673.709 157.524 670.168 Q159.353 666.603 159.353 659.497 Q159.353 652.367 157.524 648.825 Q155.718 645.261 152.084 645.261 M152.084 641.557 Q157.894 641.557 160.95 646.163 Q164.028 650.747 164.028 659.497 Q164.028 668.223 160.95 672.83 Q157.894 677.413 152.084 677.413 Q146.274 677.413 143.195 672.83 Q140.14 668.223 140.14 659.497 Q140.14 650.747 143.195 646.163 Q146.274 641.557 152.084 641.557 Z" fill="#000000" fill-rule="evenodd" fill-opacity="1" /><path clip-path="url(#clip860)" d="M 0 0 M179.098 645.261 Q175.487 645.261 173.658 648.825 Q171.852 652.367 171.852 659.497 Q171.852 666.603 173.658 670.168 Q175.487 673.709 179.098 673.709 Q182.732 673.709 184.538 670.168 Q186.366 666.603 186.366 659.497 Q186.366 652.367 184.538 648.825 Q182.732 645.261 179.098 645.261 M179.098 641.557 Q184.908 641.557 187.963 646.163 Q191.042 650.747 191.042 659.497 Q191.042 668.223 187.963 672.83 Q184.908 677.413 179.098 677.413 Q173.288 677.413 170.209 672.83 Q167.153 668.223 167.153 659.497 Q167.153 650.747 170.209 646.163 Q173.288 641.557 179.098 641.557 Z" fill="#000000" fill-rule="evenodd" fill-opacity="1" /><path clip-path="url(#clip860)" d="M 0 0 M129.885 291.764 Q133.242 292.482 135.117 294.75 Q137.015 297.019 137.015 300.352 Q137.015 305.468 133.496 308.269 Q129.978 311.07 123.496 311.07 Q121.32 311.07 119.006 310.63 Q116.714 310.213 114.26 309.357 L114.26 304.843 Q116.205 305.977 118.519 306.556 Q120.834 307.135 123.357 307.135 Q127.755 307.135 130.047 305.398 Q132.362 303.662 132.362 300.352 Q132.362 297.297 130.209 295.584 Q128.08 293.848 124.26 293.848 L120.232 293.848 L120.232 290.005 L124.445 290.005 Q127.894 290.005 129.723 288.639 Q131.552 287.25 131.552 284.658 Q131.552 281.996 129.654 280.584 Q127.779 279.149 124.26 279.149 Q122.339 279.149 120.14 279.565 Q117.941 279.982 115.302 280.861 L115.302 276.695 Q117.964 275.954 120.279 275.584 Q122.617 275.213 124.677 275.213 Q130.001 275.213 133.103 277.644 Q136.204 280.051 136.204 284.172 Q136.204 287.042 134.561 289.033 Q132.917 291 129.885 291.764 Z" fill="#000000" fill-rule="evenodd" fill-opacity="1" /><path clip-path="url(#clip860)" d="M 0 0 M152.084 278.917 Q148.473 278.917 146.644 282.482 Q144.839 286.024 144.839 293.153 Q144.839 300.26 146.644 303.824 Q148.473 307.366 152.084 307.366 Q155.718 307.366 157.524 303.824 Q159.353 300.26 159.353 293.153 Q159.353 286.024 157.524 282.482 Q155.718 278.917 152.084 278.917 M152.084 275.213 Q157.894 275.213 160.95 279.82 Q164.028 284.403 164.028 293.153 Q164.028 301.88 160.95 306.486 Q157.894 311.07 152.084 311.07 Q146.274 311.07 143.195 306.486 Q140.14 301.88 140.14 293.153 Q140.14 284.403 143.195 279.82 Q146.274 275.213 152.084 275.213 Z" fill="#000000" fill-rule="evenodd" fill-opacity="1" /><path clip-path="url(#clip860)" d="M 0 0 M179.098 278.917 Q175.487 278.917 173.658 282.482 Q171.852 286.024 171.852 293.153 Q171.852 300.26 173.658 303.824 Q175.487 307.366 179.098 307.366 Q182.732 307.366 184.538 303.824 Q186.366 300.26 186.366 293.153 Q186.366 286.024 184.538 282.482 Q182.732 278.917 179.098 278.917 M179.098 275.213 Q184.908 275.213 187.963 279.82 Q191.042 284.403 191.042 293.153 Q191.042 301.88 187.963 306.486 Q184.908 311.07 179.098 311.07 Q173.288 311.07 170.209 306.486 Q167.153 301.88 167.153 293.153 Q167.153 284.403 170.209 279.82 Q173.288 275.213 179.098 275.213 Z" fill="#000000" fill-rule="evenodd" fill-opacity="1" /><path clip-path="url(#clip860)" d="M 0 0 M59.1993 815.533 Q55.2526 813.336 53.3747 810.281 Q51.4968 807.225 51.4968 803.088 Q51.4968 797.518 55.4117 794.494 Q59.2948 791.47 66.4881 791.47 L88.0042 791.47 L88.0042 797.358 L66.679 797.358 Q61.5546 797.358 59.072 799.173 Q56.5894 800.987 56.5894 804.711 Q56.5894 809.262 59.6131 811.904 Q62.6368 814.546 67.8567 814.546 L88.0042 814.546 L88.0042 820.434 L66.679 820.434 Q61.5228 820.434 59.072 822.248 Q56.5894 824.063 56.5894 827.85 Q56.5894 832.338 59.6449 834.98 Q62.6686 837.622 67.8567 837.622 L88.0042 837.622 L88.0042 843.51 L52.3562 843.51 L52.3562 837.622 L57.8944 837.622 Q54.616 835.616 53.0564 832.815 Q51.4968 830.015 51.4968 826.163 Q51.4968 822.28 53.4702 819.575 Q55.4436 816.838 59.1993 815.533 Z" fill="#000000" fill-rule="evenodd" fill-opacity="1" /><path clip-path="url(#clip860)" d="M 0 0 M52.3562 785.327 L52.3562 779.471 L88.0042 779.471 L88.0042 785.327 L52.3562 785.327 M38.479 785.327 L38.479 779.471 L45.895 779.471 L45.895 785.327 L38.479 785.327 Z" fill="#000000" fill-rule="evenodd" fill-opacity="1" /><path clip-path="url(#clip860)" d="M 0 0 M66.4881 743.696 L88.0042 743.696 L88.0042 749.552 L66.679 749.552 Q61.6183 749.552 59.1038 751.525 Q56.5894 753.499 56.5894 757.446 Q56.5894 762.188 59.6131 764.925 Q62.6368 767.662 67.8567 767.662 L88.0042 767.662 L88.0042 773.551 L52.3562 773.551 L52.3562 767.662 L57.8944 767.662 Q54.6797 765.562 53.0883 762.729 Q51.4968 759.864 51.4968 756.141 Q51.4968 749.998 55.3163 746.847 Q59.1038 743.696 66.4881 743.696 Z" fill="#000000" fill-rule="evenodd" fill-opacity="1" /><path clip-path="url(#clip860)" d="M 0 0 M98.8259 710.467 L103.377 710.467 L103.377 744.332 L98.8259 744.332 L98.8259 710.467 Z" fill="#000000" fill-rule="evenodd" fill-opacity="1" /><path clip-path="url(#clip860)" d="M 0 0 M57.7671 680.866 L38.479 680.866 L38.479 675.01 L88.0042 675.01 L88.0042 680.866 L82.657 680.866 Q85.8398 682.712 87.3994 685.545 Q88.9272 688.346 88.9272 692.292 Q88.9272 698.754 83.771 702.828 Q78.6147 706.87 70.212 706.87 Q61.8093 706.87 56.6531 702.828 Q51.4968 698.754 51.4968 692.292 Q51.4968 688.346 53.0564 685.545 Q54.5842 682.712 57.7671 680.866 M70.212 700.823 Q76.6732 700.823 80.3653 698.181 Q84.0256 695.507 84.0256 690.86 Q84.0256 686.213 80.3653 683.54 Q76.6732 680.866 70.212 680.866 Q63.7508 680.866 60.0905 683.54 Q56.3984 686.213 56.3984 690.86 Q56.3984 695.507 60.0905 698.181 Q63.7508 700.823 70.212 700.823 Z" fill="#000000" fill-rule="evenodd" fill-opacity="1" /><path clip-path="url(#clip860)" d="M 0 0 M52.3562 668.867 L52.3562 663.01 L88.0042 663.01 L88.0042 668.867 L52.3562 668.867 M38.479 668.867 L38.479 663.01 L45.895 663.01 L45.895 668.867 L38.479 668.867 Z" fill="#000000" fill-rule="evenodd" fill-opacity="1" /><path clip-path="url(#clip860)" d="M 0 0 M38.479 638.821 L43.3487 638.821 L43.3487 644.422 Q43.3487 647.573 44.6219 648.815 Q45.895 650.024 49.2052 650.024 L52.3562 650.024 L52.3562 640.38 L56.9077 640.38 L56.9077 650.024 L88.0042 650.024 L88.0042 655.912 L56.9077 655.912 L56.9077 661.514 L52.3562 661.514 L52.3562 655.912 L49.8736 655.912 Q43.9216 655.912 41.2162 653.143 Q38.479 650.374 38.479 644.359 L38.479 638.821 Z" fill="#000000" fill-rule="evenodd" fill-opacity="1" /><path clip-path="url(#clip860)" d="M 0 0 M38.479 614.631 L43.3487 614.631 L43.3487 620.233 Q43.3487 623.384 44.6219 624.625 Q45.895 625.835 49.2052 625.835 L52.3562 625.835 L52.3562 616.19 L56.9077 616.19 L56.9077 625.835 L88.0042 625.835 L88.0042 631.723 L56.9077 631.723 L56.9077 637.325 L52.3562 637.325 L52.3562 631.723 L49.8736 631.723 Q43.9216 631.723 41.2162 628.954 Q38.479 626.185 38.479 620.169 L38.479 614.631 Z" fill="#000000" fill-rule="evenodd" fill-opacity="1" /><polyline clip-path="url(#clip862)" style="stroke:#009af9; stroke-width:20; stroke-opacity:1; fill:none" stroke-dasharray="80, 50" points="
  287.204,117.374 386.32,107.711 470.121,99.3984 542.713,92.1741 606.743,85.838 664.02,159.455 763.136,459.664 846.937,694.717 884.444,810.931 919.529,878.081 
  983.56,1021.87 1040.84,1136.71 1067.36,1174.01 1139.95,1272.19 1162.14,1295.49 1203.98,1329.42 1223.75,1341.7 1261.26,1357.52 1296.35,1364.41 1345.06,1368.26 
  1360.38,1372.3 1417.65,1368.23 1444.18,1360.9 1481.68,1363.73 1516.77,1356.74 1527.98,1338.68 1538.96,1363.9 1580.8,1344.48 1590.77,1252.44 1600.57,1316.38 
  1638.08,1324.4 1664.6,1285.51 1673.16,1257.85 1681.59,1238.23 1689.89,1246.95 1721.88,1252.83 1737.19,1244.06 1759.38,1167.74 1773.69,1197.8 1780.71,1169.57 
  1794.47,1206.17 1801.22,1190.65 1820.99,1144.68 1827.43,1093.95 1846.28,1167 1858.5,1192.74 1864.51,1153.78 1887.89,1103.67 1893.59,1176.97 1904.79,1161.38 
  1910.31,1193.9 1915.78,1205.61 1926.54,1141.29 1937.1,1185.18 1942.3,1167.82 1957.62,1202.93 1967.59,1215.77 1977.39,1192.03 1987.01,1150.01 2001.13,1210.35 
  2010.34,1178.11 2014.89,1223.96 2041.42,1216.54 2049.98,1202.8 2058.41,1230.69 2070.81,1185.95 2078.92,1221.78 2082.94,1207.1 2098.69,1236.3 2114.01,1226.26 
  2136.2,1241.04 2143.4,1214.14 2146.97,1230.13 2171.29,1245.09 2178.04,1233.51 2204.24,1248.59 2207.43,1236.47 2235.32,1251.64 2264.71,1254.32 2292.59,1256.69 
  
  "/>
<path clip-path="url(#clip860)" d="
M1994.69 213.659 L2281.9 213.659 L2281.9 92.6992 L1994.69 92.6992  Z
  " fill="#ffffff" fill-rule="evenodd" fill-opacity="1"/>
<polyline clip-path="url(#clip860)" style="stroke:#000000; stroke-width:4; stroke-opacity:1; fill:none" points="
  1994.69,213.659 2281.9,213.659 2281.9,92.6992 1994.69,92.6992 1994.69,213.659 
  "/>
<polyline clip-path="url(#clip860)" style="stroke:#009af9; stroke-width:4; stroke-opacity:1; fill:none" stroke-dasharray="16, 10" points="
  2018.31,153.179 2160.02,153.179 
  "/>
<path clip-path="url(#clip860)" d="M 0 0 M2197.48 172.867 Q2195.68 177.496 2193.97 178.908 Q2192.25 180.32 2189.38 180.32 L2185.98 180.32 L2185.98 176.755 L2188.48 176.755 Q2190.24 176.755 2191.21 175.922 Q2192.18 175.089 2193.36 171.987 L2194.13 170.043 L2183.64 144.533 L2188.16 144.533 L2196.26 164.811 L2204.36 144.533 L2208.87 144.533 L2197.48 172.867 Z" fill="#000000" fill-rule="evenodd" fill-opacity="1" /><path clip-path="url(#clip860)" d="M 0 0 M2214.75 166.524 L2222.39 166.524 L2222.39 140.158 L2214.08 141.825 L2214.08 137.566 L2222.35 135.899 L2227.02 135.899 L2227.02 166.524 L2234.66 166.524 L2234.66 170.459 L2214.75 170.459 L2214.75 166.524 Z" fill="#000000" fill-rule="evenodd" fill-opacity="1" /></svg>
