<?xml version="1.0" encoding="utf-8"?>
<svg xmlns="http://www.w3.org/2000/svg" xmlns:xlink="http://www.w3.org/1999/xlink" width="600" height="400" viewBox="0 0 2400 1600">
<defs>
  <clipPath id="clip830">
    <rect x="0" y="0" width="2400" height="1600"/>
  </clipPath>
</defs>
<path clip-path="url(#clip830)" d="
M0 1600 L2400 1600 L2400 0 L0 0  Z
  " fill="#ffffff" fill-rule="evenodd" fill-opacity="1"/>
<defs>
  <clipPath id="clip831">
    <rect x="480" y="0" width="1681" height="1600"/>
  </clipPath>
</defs>
<path clip-path="url(#clip830)" d="
M211.579 1410.9 L2352.76 1410.9 L2352.76 47.2441 L211.579 47.2441  Z
  " fill="#ffffff" fill-rule="evenodd" fill-opacity="1"/>
<defs>
  <clipPath id="clip832">
    <rect x="211" y="47" width="2142" height="1365"/>
  </clipPath>
</defs>
<polyline clip-path="url(#clip832)" style="stroke:#000000; stroke-width:2; stroke-opacity:0.1; fill:none" points="
  272.179,1410.9 272.179,47.2441 
  "/>
<polyline clip-path="url(#clip832)" style="stroke:#000000; stroke-width:2; stroke-opacity:0.1; fill:none" points="
  676.174,1410.9 676.174,47.2441 
  "/>
<polyline clip-path="url(#clip832)" style="stroke:#000000; stroke-width:2; stroke-opacity:0.1; fill:none" points="
  1080.17,1410.9 1080.17,47.2441 
  "/>
<polyline clip-path="url(#clip832)" style="stroke:#000000; stroke-width:2; stroke-opacity:0.1; fill:none" points="
  1484.16,1410.9 1484.16,47.2441 
  "/>
<polyline clip-path="url(#clip832)" style="stroke:#000000; stroke-width:2; stroke-opacity:0.1; fill:none" points="
  1888.16,1410.9 1888.16,47.2441 
  "/>
<polyline clip-path="url(#clip832)" style="stroke:#000000; stroke-width:2; stroke-opacity:0.1; fill:none" points="
  2292.15,1410.9 2292.15,47.2441 
  "/>
<polyline clip-path="url(#clip830)" style="stroke:#000000; stroke-width:4; stroke-opacity:1; fill:none" points="
  211.579,1410.9 2352.76,1410.9 
  "/>
<polyline clip-path="url(#clip830)" style="stroke:#000000; stroke-width:4; stroke-opacity:1; fill:none" points="
  272.179,1410.9 272.179,1394.53 
  "/>
<polyline clip-path="url(#clip830)" style="stroke:#000000; stroke-width:4; stroke-opacity:1; fill:none" points="
  676.174,1410.9 676.174,1394.53 
  "/>
<polyline clip-path="url(#clip830)" style="stroke:#000000; stroke-width:4; stroke-opacity:1; fill:none" points="
  1080.17,1410.9 1080.17,1394.53 
  "/>
<polyline clip-path="url(#clip830)" style="stroke:#000000; stroke-width:4; stroke-opacity:1; fill:none" points="
  1484.16,1410.9 1484.16,1394.53 
  "/>
<polyline clip-path="url(#clip830)" style="stroke:#000000; stroke-width:4; stroke-opacity:1; fill:none" points="
  1888.16,1410.9 1888.16,1394.53 
  "/>
<polyline clip-path="url(#clip830)" style="stroke:#000000; stroke-width:4; stroke-opacity:1; fill:none" points="
  2292.15,1410.9 2292.15,1394.53 
  "/>
<path clip-path="url(#clip830)" d="M 0 0 M226.428 1489.17 L234.067 1489.17 L234.067 1462.8 L225.757 1464.47 L225.757 1460.21 L234.021 1458.54 L238.696 1458.54 L238.696 1489.17 L246.335 1489.17 L246.335 1493.1 L226.428 1493.1 L226.428 1489.17 Z" fill="#000000" fill-rule="evenodd" fill-opacity="1" /><path clip-path="url(#clip830)" d="M 0 0 M261.405 1461.62 Q257.794 1461.62 255.965 1465.19 Q254.159 1468.73 254.159 1475.86 Q254.159 1482.97 255.965 1486.53 Q257.794 1490.07 261.405 1490.07 Q265.039 1490.07 266.844 1486.53 Q268.673 1482.97 268.673 1475.86 Q268.673 1468.73 266.844 1465.19 Q265.039 1461.62 261.405 1461.62 M261.405 1457.92 Q267.215 1457.92 270.27 1462.53 Q273.349 1467.11 273.349 1475.86 Q273.349 1484.59 270.27 1489.19 Q267.215 1493.78 261.405 1493.78 Q255.594 1493.78 252.516 1489.19 Q249.46 1484.59 249.46 1475.86 Q249.46 1467.11 252.516 1462.53 Q255.594 1457.92 261.405 1457.92 Z" fill="#000000" fill-rule="evenodd" fill-opacity="1" /><path clip-path="url(#clip830)" d="M 0 0 M273.349 1452.02 L297.461 1452.02 L297.461 1455.22 L273.349 1455.22 L273.349 1452.02 Z" fill="#000000" fill-rule="evenodd" fill-opacity="1" /><path clip-path="url(#clip830)" d="M 0 0 M301.617 1437.61 L316.532 1437.61 L316.532 1440.81 L305.097 1440.81 L305.097 1447.69 Q305.924 1447.41 306.752 1447.28 Q307.579 1447.13 308.407 1447.13 Q313.109 1447.13 315.855 1449.71 Q318.601 1452.28 318.601 1456.68 Q318.601 1461.22 315.779 1463.74 Q312.958 1466.24 307.824 1466.24 Q306.056 1466.24 304.213 1465.94 Q302.388 1465.64 300.432 1465.04 L300.432 1461.22 Q302.125 1462.14 303.93 1462.59 Q305.736 1463.04 307.748 1463.04 Q311.002 1463.04 312.902 1461.33 Q314.801 1459.62 314.801 1456.68 Q314.801 1453.75 312.902 1452.04 Q311.002 1450.33 307.748 1450.33 Q306.225 1450.33 304.702 1450.67 Q303.197 1451 301.617 1451.72 L301.617 1437.61 Z" fill="#000000" fill-rule="evenodd" fill-opacity="1" /><path clip-path="url(#clip830)" d="M 0 0 M629.821 1489.17 L637.46 1489.17 L637.46 1462.8 L629.15 1464.47 L629.15 1460.21 L637.414 1458.54 L642.09 1458.54 L642.09 1489.17 L649.729 1489.17 L649.729 1493.1 L629.821 1493.1 L629.821 1489.17 Z" fill="#000000" fill-rule="evenodd" fill-opacity="1" /><path clip-path="url(#clip830)" d="M 0 0 M664.798 1461.62 Q661.187 1461.62 659.358 1465.19 Q657.553 1468.73 657.553 1475.86 Q657.553 1482.97 659.358 1486.53 Q661.187 1490.07 664.798 1490.07 Q668.432 1490.07 670.238 1486.53 Q672.067 1482.97 672.067 1475.86 Q672.067 1468.73 670.238 1465.19 Q668.432 1461.62 664.798 1461.62 M664.798 1457.92 Q670.608 1457.92 673.664 1462.53 Q676.742 1467.11 676.742 1475.86 Q676.742 1484.59 673.664 1489.19 Q670.608 1493.78 664.798 1493.78 Q658.988 1493.78 655.909 1489.19 Q652.854 1484.59 652.854 1475.86 Q652.854 1467.11 655.909 1462.53 Q658.988 1457.92 664.798 1457.92 Z" fill="#000000" fill-rule="evenodd" fill-opacity="1" /><path clip-path="url(#clip830)" d="M 0 0 M676.742 1452.02 L700.854 1452.02 L700.854 1455.22 L676.742 1455.22 L676.742 1452.02 Z" fill="#000000" fill-rule="evenodd" fill-opacity="1" /><path clip-path="url(#clip830)" d="M 0 0 M715.411 1440.92 L705.819 1455.91 L715.411 1455.91 L715.411 1440.92 M714.414 1437.61 L719.192 1437.61 L719.192 1455.91 L723.198 1455.91 L723.198 1459.07 L719.192 1459.07 L719.192 1465.69 L715.411 1465.69 L715.411 1459.07 L702.735 1459.07 L702.735 1455.41 L714.414 1437.61 Z" fill="#000000" fill-rule="evenodd" fill-opacity="1" /><path clip-path="url(#clip830)" d="M 0 0 M1034.28 1489.17 L1041.92 1489.17 L1041.92 1462.8 L1033.61 1464.47 L1033.61 1460.21 L1041.87 1458.54 L1046.55 1458.54 L1046.55 1489.17 L1054.18 1489.17 L1054.18 1493.1 L1034.28 1493.1 L1034.28 1489.17 Z" fill="#000000" fill-rule="evenodd" fill-opacity="1" /><path clip-path="url(#clip830)" d="M 0 0 M1069.25 1461.62 Q1065.64 1461.62 1063.81 1465.19 Q1062.01 1468.73 1062.01 1475.86 Q1062.01 1482.97 1063.81 1486.53 Q1065.64 1490.07 1069.25 1490.07 Q1072.89 1490.07 1074.69 1486.53 Q1076.52 1482.97 1076.52 1475.86 Q1076.52 1468.73 1074.69 1465.19 Q1072.89 1461.62 1069.25 1461.62 M1069.25 1457.92 Q1075.06 1457.92 1078.12 1462.53 Q1081.2 1467.11 1081.2 1475.86 Q1081.2 1484.59 1078.12 1489.19 Q1075.06 1493.78 1069.25 1493.78 Q1063.44 1493.78 1060.37 1489.19 Q1057.31 1484.59 1057.31 1475.86 Q1057.31 1467.11 1060.37 1462.53 Q1063.44 1457.92 1069.25 1457.92 Z" fill="#000000" fill-rule="evenodd" fill-opacity="1" /><path clip-path="url(#clip830)" d="M 0 0 M1081.2 1452.02 L1105.31 1452.02 L1105.31 1455.22 L1081.2 1455.22 L1081.2 1452.02 Z" fill="#000000" fill-rule="evenodd" fill-opacity="1" /><path clip-path="url(#clip830)" d="M 0 0 M1120.94 1450.55 Q1123.67 1451.14 1125.19 1452.98 Q1126.73 1454.82 1126.73 1457.53 Q1126.73 1461.69 1123.87 1463.96 Q1121.01 1466.24 1115.75 1466.24 Q1113.98 1466.24 1112.1 1465.88 Q1110.24 1465.54 1108.24 1464.85 L1108.24 1461.18 Q1109.82 1462.1 1111.7 1462.57 Q1113.59 1463.04 1115.64 1463.04 Q1119.21 1463.04 1121.07 1461.63 Q1122.95 1460.22 1122.95 1457.53 Q1122.95 1455.05 1121.2 1453.66 Q1119.47 1452.25 1116.37 1452.25 L1113.1 1452.25 L1113.1 1449.12 L1116.52 1449.12 Q1119.32 1449.12 1120.81 1448.01 Q1122.29 1446.89 1122.29 1444.78 Q1122.29 1442.62 1120.75 1441.47 Q1119.23 1440.3 1116.37 1440.3 Q1114.81 1440.3 1113.02 1440.64 Q1111.23 1440.98 1109.09 1441.69 L1109.09 1438.31 Q1111.25 1437.71 1113.13 1437.41 Q1115.03 1437.11 1116.71 1437.11 Q1121.03 1437.11 1123.55 1439.08 Q1126.07 1441.04 1126.07 1444.38 Q1126.07 1446.72 1124.74 1448.33 Q1123.4 1449.93 1120.94 1450.55 Z" fill="#000000" fill-rule="evenodd" fill-opacity="1" /><path clip-path="url(#clip830)" d="M 0 0 M1438.66 1489.17 L1446.3 1489.17 L1446.3 1462.8 L1437.99 1464.47 L1437.99 1460.21 L1446.25 1458.54 L1450.93 1458.54 L1450.93 1489.17 L1458.57 1489.17 L1458.57 1493.1 L1438.66 1493.1 L1438.66 1489.17 Z" fill="#000000" fill-rule="evenodd" fill-opacity="1" /><path clip-path="url(#clip830)" d="M 0 0 M1473.63 1461.62 Q1470.02 1461.62 1468.2 1465.19 Q1466.39 1468.73 1466.39 1475.86 Q1466.39 1482.97 1468.2 1486.53 Q1470.02 1490.07 1473.63 1490.07 Q1477.27 1490.07 1479.07 1486.53 Q1480.9 1482.97 1480.9 1475.86 Q1480.9 1468.73 1479.07 1465.19 Q1477.27 1461.62 1473.63 1461.62 M1473.63 1457.92 Q1479.45 1457.92 1482.5 1462.53 Q1485.58 1467.11 1485.58 1475.86 Q1485.58 1484.59 1482.5 1489.19 Q1479.45 1493.78 1473.63 1493.78 Q1467.82 1493.78 1464.75 1489.19 Q1461.69 1484.59 1461.69 1475.86 Q1461.69 1467.11 1464.75 1462.53 Q1467.82 1457.92 1473.63 1457.92 Z" fill="#000000" fill-rule="evenodd" fill-opacity="1" /><path clip-path="url(#clip830)" d="M 0 0 M1485.58 1452.02 L1509.69 1452.02 L1509.69 1455.22 L1485.58 1455.22 L1485.58 1452.02 Z" fill="#000000" fill-rule="evenodd" fill-opacity="1" /><path clip-path="url(#clip830)" d="M 0 0 M1517.08 1462.5 L1530.34 1462.5 L1530.34 1465.69 L1512.51 1465.69 L1512.51 1462.5 Q1514.67 1460.26 1518.4 1456.5 Q1522.14 1452.72 1523.1 1451.63 Q1524.93 1449.58 1525.64 1448.16 Q1526.37 1446.74 1526.37 1445.36 Q1526.37 1443.12 1524.79 1441.71 Q1523.23 1440.3 1520.71 1440.3 Q1518.93 1440.3 1516.93 1440.92 Q1514.96 1441.54 1512.7 1442.8 L1512.7 1438.97 Q1514.99 1438.05 1516.99 1437.58 Q1518.98 1437.11 1520.64 1437.11 Q1525 1437.11 1527.6 1439.29 Q1530.19 1441.47 1530.19 1445.12 Q1530.19 1446.85 1529.53 1448.41 Q1528.89 1449.95 1527.18 1452.06 Q1526.71 1452.6 1524.19 1455.22 Q1521.67 1457.81 1517.08 1462.5 Z" fill="#000000" fill-rule="evenodd" fill-opacity="1" /><path clip-path="url(#clip830)" d="M 0 0 M1842.5 1489.17 L1850.14 1489.17 L1850.14 1462.8 L1841.83 1464.47 L1841.83 1460.21 L1850.1 1458.54 L1854.77 1458.54 L1854.77 1489.17 L1862.41 1489.17 L1862.41 1493.1 L1842.5 1493.1 L1842.5 1489.17 Z" fill="#000000" fill-rule="evenodd" fill-opacity="1" /><path clip-path="url(#clip830)" d="M 0 0 M1877.48 1461.62 Q1873.87 1461.62 1872.04 1465.19 Q1870.23 1468.73 1870.23 1475.86 Q1870.23 1482.97 1872.04 1486.53 Q1873.87 1490.07 1877.48 1490.07 Q1881.11 1490.07 1882.92 1486.53 Q1884.75 1482.97 1884.75 1475.86 Q1884.75 1468.73 1882.92 1465.19 Q1881.11 1461.62 1877.48 1461.62 M1877.48 1457.92 Q1883.29 1457.92 1886.35 1462.53 Q1889.42 1467.11 1889.42 1475.86 Q1889.42 1484.59 1886.35 1489.19 Q1883.29 1493.78 1877.48 1493.78 Q1871.67 1493.78 1868.59 1489.19 Q1865.54 1484.59 1865.54 1475.86 Q1865.54 1467.11 1868.59 1462.53 Q1871.67 1457.92 1877.48 1457.92 Z" fill="#000000" fill-rule="evenodd" fill-opacity="1" /><path clip-path="url(#clip830)" d="M 0 0 M1889.42 1452.02 L1913.54 1452.02 L1913.54 1455.22 L1889.42 1455.22 L1889.42 1452.02 Z" fill="#000000" fill-rule="evenodd" fill-opacity="1" /><path clip-path="url(#clip830)" d="M 0 0 M1918.31 1462.5 L1924.52 1462.5 L1924.52 1441.07 L1917.77 1442.43 L1917.77 1438.97 L1924.48 1437.61 L1928.28 1437.61 L1928.28 1462.5 L1934.49 1462.5 L1934.49 1465.69 L1918.31 1465.69 L1918.31 1462.5 Z" fill="#000000" fill-rule="evenodd" fill-opacity="1" /><path clip-path="url(#clip830)" d="M 0 0 M2259.33 1489.17 L2266.96 1489.17 L2266.96 1462.8 L2258.65 1464.47 L2258.65 1460.21 L2266.92 1458.54 L2271.59 1458.54 L2271.59 1489.17 L2279.23 1489.17 L2279.23 1493.1 L2259.33 1493.1 L2259.33 1489.17 Z" fill="#000000" fill-rule="evenodd" fill-opacity="1" /><path clip-path="url(#clip830)" d="M 0 0 M2294.3 1461.62 Q2290.69 1461.62 2288.86 1465.19 Q2287.06 1468.73 2287.06 1475.86 Q2287.06 1482.97 2288.86 1486.53 Q2290.69 1490.07 2294.3 1490.07 Q2297.94 1490.07 2299.74 1486.53 Q2301.57 1482.97 2301.57 1475.86 Q2301.57 1468.73 2299.74 1465.19 Q2297.94 1461.62 2294.3 1461.62 M2294.3 1457.92 Q2300.11 1457.92 2303.17 1462.53 Q2306.25 1467.11 2306.25 1475.86 Q2306.25 1484.59 2303.17 1489.19 Q2300.11 1493.78 2294.3 1493.78 Q2288.49 1493.78 2285.41 1489.19 Q2282.36 1484.59 2282.36 1475.86 Q2282.36 1467.11 2285.41 1462.53 Q2288.49 1457.92 2294.3 1457.92 Z" fill="#000000" fill-rule="evenodd" fill-opacity="1" /><path clip-path="url(#clip830)" d="M 0 0 M2315.95 1440.11 Q2313.02 1440.11 2311.53 1443.01 Q2310.06 1445.89 2310.06 1451.68 Q2310.06 1457.46 2311.53 1460.35 Q2313.02 1463.23 2315.95 1463.23 Q2318.9 1463.23 2320.37 1460.35 Q2321.86 1457.46 2321.86 1451.68 Q2321.86 1445.89 2320.37 1443.01 Q2318.9 1440.11 2315.95 1440.11 M2315.95 1437.11 Q2320.67 1437.11 2323.15 1440.85 Q2325.66 1444.57 2325.66 1451.68 Q2325.66 1458.77 2323.15 1462.51 Q2320.67 1466.24 2315.95 1466.24 Q2311.23 1466.24 2308.73 1462.51 Q2306.25 1458.77 2306.25 1451.68 Q2306.25 1444.57 2308.73 1440.85 Q2311.23 1437.11 2315.95 1437.11 Z" fill="#000000" fill-rule="evenodd" fill-opacity="1" /><path clip-path="url(#clip830)" d="M 0 0 M1213.69 1512.66 L1219.58 1512.66 L1219.58 1541.91 L1237.05 1526.54 L1244.53 1526.54 L1225.62 1543.22 L1245.33 1562.19 L1237.69 1562.19 L1219.58 1544.78 L1219.58 1562.19 L1213.69 1562.19 L1213.69 1512.66 Z" fill="#000000" fill-rule="evenodd" fill-opacity="1" /><path clip-path="url(#clip830)" d="M 0 0 M1278.56 1573.01 L1278.56 1577.56 L1244.69 1577.56 L1244.69 1573.01 L1278.56 1573.01 Z" fill="#000000" fill-rule="evenodd" fill-opacity="1" /><path clip-path="url(#clip830)" d="M 0 0 M1298.51 1530.64 Q1293.8 1530.64 1291.06 1534.34 Q1288.33 1538 1288.33 1544.39 Q1288.33 1550.79 1291.03 1554.48 Q1293.77 1558.14 1298.51 1558.14 Q1303.19 1558.14 1305.93 1554.45 Q1308.66 1550.76 1308.66 1544.39 Q1308.66 1538.06 1305.93 1534.37 Q1303.19 1530.64 1298.51 1530.64 M1298.51 1525.68 Q1306.15 1525.68 1310.51 1530.64 Q1314.87 1535.61 1314.87 1544.39 Q1314.87 1553.15 1310.51 1558.14 Q1306.15 1563.11 1298.51 1563.11 Q1290.84 1563.11 1286.48 1558.14 Q1282.15 1553.15 1282.15 1544.39 Q1282.15 1535.61 1286.48 1530.64 Q1290.84 1525.68 1298.51 1525.68 Z" fill="#000000" fill-rule="evenodd" fill-opacity="1" /><path clip-path="url(#clip830)" d="M 0 0 M1350.65 1540.67 L1350.65 1562.19 L1344.79 1562.19 L1344.79 1540.86 Q1344.79 1535.8 1342.82 1533.29 Q1340.84 1530.77 1336.9 1530.77 Q1332.15 1530.77 1329.42 1533.79 Q1326.68 1536.82 1326.68 1542.04 L1326.68 1562.19 L1320.79 1562.19 L1320.79 1526.54 L1326.68 1526.54 L1326.68 1532.08 Q1328.78 1528.86 1331.61 1527.27 Q1334.48 1525.68 1338.2 1525.68 Q1344.34 1525.68 1347.5 1529.5 Q1350.65 1533.29 1350.65 1540.67 Z" fill="#000000" fill-rule="evenodd" fill-opacity="1" /><polyline clip-path="url(#clip832)" style="stroke:#000000; stroke-width:2; stroke-opacity:0.1; fill:none" points="
  211.579,1333.28 2352.76,1333.28 
  "/>
<polyline clip-path="url(#clip832)" style="stroke:#000000; stroke-width:2; stroke-opacity:0.1; fill:none" points="
  211.579,1075.99 2352.76,1075.99 
  "/>
<polyline clip-path="url(#clip832)" style="stroke:#000000; stroke-width:2; stroke-opacity:0.1; fill:none" points="
  211.579,818.695 2352.76,818.695 
  "/>
<polyline clip-path="url(#clip832)" style="stroke:#000000; stroke-width:2; stroke-opacity:0.1; fill:none" points="
  211.579,561.402 2352.76,561.402 
  "/>
<polyline clip-path="url(#clip832)" style="stroke:#000000; stroke-width:2; stroke-opacity:0.1; fill:none" points="
  211.579,304.109 2352.76,304.109 
  "/>
<polyline clip-path="url(#clip830)" style="stroke:#000000; stroke-width:4; stroke-opacity:1; fill:none" points="
  211.579,1410.9 211.579,47.2441 
  "/>
<polyline clip-path="url(#clip830)" style="stroke:#000000; stroke-width:4; stroke-opacity:1; fill:none" points="
  211.579,1333.28 237.273,1333.28 
  "/>
<polyline clip-path="url(#clip830)" style="stroke:#000000; stroke-width:4; stroke-opacity:1; fill:none" points="
  211.579,1075.99 237.273,1075.99 
  "/>
<polyline clip-path="url(#clip830)" style="stroke:#000000; stroke-width:4; stroke-opacity:1; fill:none" points="
  211.579,818.695 237.273,818.695 
  "/>
<polyline clip-path="url(#clip830)" style="stroke:#000000; stroke-width:4; stroke-opacity:1; fill:none" points="
  211.579,561.402 237.273,561.402 
  "/>
<polyline clip-path="url(#clip830)" style="stroke:#000000; stroke-width:4; stroke-opacity:1; fill:none" points="
  211.579,304.109 237.273,304.109 
  "/>
<path clip-path="url(#clip830)" d="M 0 0 M117.547 1316 L135.904 1316 L135.904 1319.94 L121.83 1319.94 L121.83 1328.41 Q122.848 1328.06 123.867 1327.9 Q124.885 1327.71 125.904 1327.71 Q131.691 1327.71 135.07 1330.88 Q138.45 1334.06 138.45 1339.47 Q138.45 1345.05 134.978 1348.15 Q131.505 1351.23 125.186 1351.23 Q123.01 1351.23 120.742 1350.86 Q118.496 1350.49 116.089 1349.75 L116.089 1345.05 Q118.172 1346.19 120.394 1346.74 Q122.617 1347.3 125.093 1347.3 Q129.098 1347.3 131.436 1345.19 Q133.774 1343.08 133.774 1339.47 Q133.774 1335.86 131.436 1333.76 Q129.098 1331.65 125.093 1331.65 Q123.218 1331.65 121.343 1332.07 Q119.492 1332.48 117.547 1333.36 L117.547 1316 Z" fill="#000000" fill-rule="evenodd" fill-opacity="1" /><path clip-path="url(#clip830)" d="M 0 0 M143.519 1344.68 L148.403 1344.68 L148.403 1350.56 L143.519 1350.56 L143.519 1344.68 Z" fill="#000000" fill-rule="evenodd" fill-opacity="1" /><path clip-path="url(#clip830)" d="M 0 0 M164.052 1331.42 Q160.903 1331.42 159.052 1333.57 Q157.223 1335.72 157.223 1339.47 Q157.223 1343.2 159.052 1345.38 Q160.903 1347.53 164.052 1347.53 Q167.2 1347.53 169.028 1345.38 Q170.88 1343.2 170.88 1339.47 Q170.88 1335.72 169.028 1333.57 Q167.2 1331.42 164.052 1331.42 M173.334 1316.76 L173.334 1321.02 Q171.575 1320.19 169.769 1319.75 Q167.987 1319.31 166.227 1319.31 Q161.598 1319.31 159.144 1322.44 Q156.714 1325.56 156.366 1331.88 Q157.732 1329.87 159.792 1328.8 Q161.852 1327.71 164.329 1327.71 Q169.538 1327.71 172.547 1330.88 Q175.579 1334.03 175.579 1339.47 Q175.579 1344.8 172.431 1348.01 Q169.283 1351.23 164.052 1351.23 Q158.056 1351.23 154.885 1346.65 Q151.714 1342.04 151.714 1333.32 Q151.714 1325.12 155.603 1320.26 Q159.491 1315.38 166.042 1315.38 Q167.802 1315.38 169.584 1315.72 Q171.389 1316.07 173.334 1316.76 Z" fill="#000000" fill-rule="evenodd" fill-opacity="1" /><path clip-path="url(#clip830)" d="M 0 0 M117.802 1058.71 L136.158 1058.71 L136.158 1062.64 L122.084 1062.64 L122.084 1071.12 Q123.103 1070.77 124.121 1070.61 Q125.14 1070.42 126.158 1070.42 Q131.945 1070.42 135.325 1073.59 Q138.704 1076.76 138.704 1082.18 Q138.704 1087.76 135.232 1090.86 Q131.76 1093.94 125.441 1093.94 Q123.265 1093.94 120.996 1093.57 Q118.751 1093.2 116.343 1092.46 L116.343 1087.76 Q118.427 1088.89 120.649 1089.45 Q122.871 1090 125.348 1090 Q129.353 1090 131.691 1087.9 Q134.029 1085.79 134.029 1082.18 Q134.029 1078.57 131.691 1076.46 Q129.353 1074.36 125.348 1074.36 Q123.473 1074.36 121.598 1074.77 Q119.746 1075.19 117.802 1076.07 L117.802 1058.71 Z" fill="#000000" fill-rule="evenodd" fill-opacity="1" /><path clip-path="url(#clip830)" d="M 0 0 M143.774 1087.39 L148.658 1087.39 L148.658 1093.27 L143.774 1093.27 L143.774 1087.39 Z" fill="#000000" fill-rule="evenodd" fill-opacity="1" /><path clip-path="url(#clip830)" d="M 0 0 M163.727 1076.86 Q160.394 1076.86 158.473 1078.64 Q156.575 1080.42 156.575 1083.55 Q156.575 1086.67 158.473 1088.45 Q160.394 1090.24 163.727 1090.24 Q167.061 1090.24 168.982 1088.45 Q170.903 1086.65 170.903 1083.55 Q170.903 1080.42 168.982 1078.64 Q167.084 1076.86 163.727 1076.86 M159.052 1074.87 Q156.042 1074.12 154.353 1072.06 Q152.686 1070 152.686 1067.04 Q152.686 1062.9 155.626 1060.49 Q158.589 1058.08 163.727 1058.08 Q168.889 1058.08 171.829 1060.49 Q174.769 1062.9 174.769 1067.04 Q174.769 1070 173.079 1072.06 Q171.413 1074.12 168.427 1074.87 Q171.806 1075.65 173.681 1077.94 Q175.579 1080.24 175.579 1083.55 Q175.579 1088.57 172.501 1091.25 Q169.445 1093.94 163.727 1093.94 Q158.01 1093.94 154.931 1091.25 Q151.876 1088.57 151.876 1083.55 Q151.876 1080.24 153.774 1077.94 Q155.672 1075.65 159.052 1074.87 M157.339 1067.48 Q157.339 1070.17 159.005 1071.67 Q160.695 1073.18 163.727 1073.18 Q166.737 1073.18 168.427 1071.67 Q170.139 1070.17 170.139 1067.48 Q170.139 1064.8 168.427 1063.29 Q166.737 1061.79 163.727 1061.79 Q160.695 1061.79 159.005 1063.29 Q157.339 1064.8 157.339 1067.48 Z" fill="#000000" fill-rule="evenodd" fill-opacity="1" /><path clip-path="url(#clip830)" d="M 0 0 M127.084 816.832 Q123.936 816.832 122.084 818.984 Q120.255 821.137 120.255 824.887 Q120.255 828.614 122.084 830.79 Q123.936 832.943 127.084 832.943 Q130.232 832.943 132.061 830.79 Q133.913 828.614 133.913 824.887 Q133.913 821.137 132.061 818.984 Q130.232 816.832 127.084 816.832 M136.367 802.179 L136.367 806.438 Q134.607 805.605 132.802 805.165 Q131.019 804.725 129.26 804.725 Q124.63 804.725 122.177 807.85 Q119.746 810.975 119.399 817.294 Q120.765 815.281 122.825 814.216 Q124.885 813.128 127.362 813.128 Q132.57 813.128 135.579 816.299 Q138.612 819.447 138.612 824.887 Q138.612 830.211 135.464 833.429 Q132.316 836.646 127.084 836.646 Q121.089 836.646 117.918 832.063 Q114.746 827.456 114.746 818.73 Q114.746 810.535 118.635 805.674 Q122.524 800.79 129.075 800.79 Q130.834 800.79 132.617 801.137 Q134.422 801.484 136.367 802.179 Z" fill="#000000" fill-rule="evenodd" fill-opacity="1" /><path clip-path="url(#clip830)" d="M 0 0 M143.681 830.095 L148.566 830.095 L148.566 835.975 L143.681 835.975 L143.681 830.095 Z" fill="#000000" fill-rule="evenodd" fill-opacity="1" /><path clip-path="url(#clip830)" d="M 0 0 M163.635 804.494 Q160.024 804.494 158.195 808.058 Q156.39 811.6 156.39 818.73 Q156.39 825.836 158.195 829.401 Q160.024 832.943 163.635 832.943 Q167.269 832.943 169.075 829.401 Q170.903 825.836 170.903 818.73 Q170.903 811.6 169.075 808.058 Q167.269 804.494 163.635 804.494 M163.635 800.79 Q169.445 800.79 172.501 805.396 Q175.579 809.98 175.579 818.73 Q175.579 827.456 172.501 832.063 Q169.445 836.646 163.635 836.646 Q157.825 836.646 154.746 832.063 Q151.691 827.456 151.691 818.73 Q151.691 809.98 154.746 805.396 Q157.825 800.79 163.635 800.79 Z" fill="#000000" fill-rule="evenodd" fill-opacity="1" /><path clip-path="url(#clip830)" d="M 0 0 M128.681 559.539 Q125.533 559.539 123.681 561.691 Q121.853 563.844 121.853 567.594 Q121.853 571.321 123.681 573.497 Q125.533 575.65 128.681 575.65 Q131.83 575.65 133.658 573.497 Q135.51 571.321 135.51 567.594 Q135.51 563.844 133.658 561.691 Q131.83 559.539 128.681 559.539 M137.964 544.886 L137.964 549.145 Q136.204 548.312 134.399 547.872 Q132.617 547.432 130.857 547.432 Q126.228 547.432 123.774 550.557 Q121.343 553.682 120.996 560.002 Q122.362 557.988 124.422 556.923 Q126.482 555.835 128.959 555.835 Q134.167 555.835 137.177 559.006 Q140.209 562.154 140.209 567.594 Q140.209 572.918 137.061 576.136 Q133.913 579.353 128.681 579.353 Q122.686 579.353 119.515 574.77 Q116.343 570.164 116.343 561.437 Q116.343 553.242 120.232 548.381 Q124.121 543.497 130.672 543.497 Q132.431 543.497 134.214 543.844 Q136.019 544.191 137.964 544.886 Z" fill="#000000" fill-rule="evenodd" fill-opacity="1" /><path clip-path="url(#clip830)" d="M 0 0 M145.279 572.802 L150.163 572.802 L150.163 578.682 L145.279 578.682 L145.279 572.802 Z" fill="#000000" fill-rule="evenodd" fill-opacity="1" /><path clip-path="url(#clip830)" d="M 0 0 M159.26 574.747 L175.579 574.747 L175.579 578.682 L153.635 578.682 L153.635 574.747 Q156.297 571.992 160.88 567.363 Q165.487 562.71 166.667 561.367 Q168.913 558.844 169.792 557.108 Q170.695 555.349 170.695 553.659 Q170.695 550.904 168.751 549.168 Q166.829 547.432 163.727 547.432 Q161.528 547.432 159.075 548.196 Q156.644 548.96 153.866 550.511 L153.866 545.789 Q156.69 544.654 159.144 544.076 Q161.598 543.497 163.635 543.497 Q169.005 543.497 172.2 546.182 Q175.394 548.867 175.394 553.358 Q175.394 555.488 174.584 557.409 Q173.797 559.307 171.69 561.9 Q171.112 562.571 168.01 565.789 Q164.908 568.983 159.26 574.747 Z" fill="#000000" fill-rule="evenodd" fill-opacity="1" /><path clip-path="url(#clip830)" d="M 0 0 M126.598 302.246 Q123.45 302.246 121.598 304.398 Q119.769 306.551 119.769 310.301 Q119.769 314.028 121.598 316.204 Q123.45 318.357 126.598 318.357 Q129.746 318.357 131.575 316.204 Q133.427 314.028 133.427 310.301 Q133.427 306.551 131.575 304.398 Q129.746 302.246 126.598 302.246 M135.88 287.593 L135.88 291.852 Q134.121 291.019 132.316 290.579 Q130.533 290.139 128.774 290.139 Q124.144 290.139 121.691 293.264 Q119.26 296.389 118.913 302.709 Q120.279 300.695 122.339 299.63 Q124.399 298.542 126.876 298.542 Q132.084 298.542 135.093 301.713 Q138.126 304.861 138.126 310.301 Q138.126 315.625 134.978 318.843 Q131.83 322.06 126.598 322.06 Q120.603 322.06 117.431 317.477 Q114.26 312.871 114.26 304.144 Q114.26 295.949 118.149 291.088 Q122.038 286.204 128.589 286.204 Q130.348 286.204 132.13 286.551 Q133.936 286.899 135.88 287.593 Z" fill="#000000" fill-rule="evenodd" fill-opacity="1" /><path clip-path="url(#clip830)" d="M 0 0 M143.195 315.509 L148.079 315.509 L148.079 321.389 L143.195 321.389 L143.195 315.509 Z" fill="#000000" fill-rule="evenodd" fill-opacity="1" /><path clip-path="url(#clip830)" d="M 0 0 M165.996 290.903 L154.19 309.352 L165.996 309.352 L165.996 290.903 M164.769 286.829 L170.649 286.829 L170.649 309.352 L175.579 309.352 L175.579 313.241 L170.649 313.241 L170.649 321.389 L165.996 321.389 L165.996 313.241 L150.394 313.241 L150.394 308.727 L164.769 286.829 Z" fill="#000000" fill-rule="evenodd" fill-opacity="1" /><path clip-path="url(#clip830)" d="M 0 0 M59.1993 815.533 Q55.2526 813.336 53.3747 810.281 Q51.4968 807.225 51.4968 803.088 Q51.4968 797.518 55.4117 794.494 Q59.2948 791.47 66.4881 791.47 L88.0042 791.47 L88.0042 797.358 L66.679 797.358 Q61.5546 797.358 59.072 799.173 Q56.5894 800.987 56.5894 804.711 Q56.5894 809.262 59.6131 811.904 Q62.6368 814.546 67.8567 814.546 L88.0042 814.546 L88.0042 820.434 L66.679 820.434 Q61.5228 820.434 59.072 822.248 Q56.5894 824.063 56.5894 827.85 Q56.5894 832.338 59.6449 834.98 Q62.6686 837.622 67.8567 837.622 L88.0042 837.622 L88.0042 843.51 L52.3562 843.51 L52.3562 837.622 L57.8944 837.622 Q54.616 835.616 53.0564 832.815 Q51.4968 830.015 51.4968 826.163 Q51.4968 822.28 53.4702 819.575 Q55.4436 816.838 59.1993 815.533 Z" fill="#000000" fill-rule="evenodd" fill-opacity="1" /><path clip-path="url(#clip830)" d="M 0 0 M52.3562 785.327 L52.3562 779.471 L88.0042 779.471 L88.0042 785.327 L52.3562 785.327 M38.479 785.327 L38.479 779.471 L45.895 779.471 L45.895 785.327 L38.479 785.327 Z" fill="#000000" fill-rule="evenodd" fill-opacity="1" /><path clip-path="url(#clip830)" d="M 0 0 M66.4881 743.696 L88.0042 743.696 L88.0042 749.552 L66.679 749.552 Q61.6183 749.552 59.1038 751.525 Q56.5894 753.499 56.5894 757.446 Q56.5894 762.188 59.6131 764.925 Q62.6368 767.662 67.8567 767.662 L88.0042 767.662 L88.0042 773.551 L52.3562 773.551 L52.3562 767.662 L57.8944 767.662 Q54.6797 765.562 53.0883 762.729 Q51.4968 759.864 51.4968 756.141 Q51.4968 749.998 55.3163 746.847 Q59.1038 743.696 66.4881 743.696 Z" fill="#000000" fill-rule="evenodd" fill-opacity="1" /><path clip-path="url(#clip830)" d="M 0 0 M98.8259 710.467 L103.377 710.467 L103.377 744.332 L98.8259 744.332 L98.8259 710.467 Z" fill="#000000" fill-rule="evenodd" fill-opacity="1" /><path clip-path="url(#clip830)" d="M 0 0 M57.7671 680.866 L38.479 680.866 L38.479 675.01 L88.0042 675.01 L88.0042 680.866 L82.657 680.866 Q85.8398 682.712 87.3994 685.545 Q88.9272 688.346 88.9272 692.292 Q88.9272 698.754 83.771 702.828 Q78.6147 706.87 70.212 706.87 Q61.8093 706.87 56.6531 702.828 Q51.4968 698.754 51.4968 692.292 Q51.4968 688.346 53.0564 685.545 Q54.5842 682.712 57.7671 680.866 M70.212 700.823 Q76.6732 700.823 80.3653 698.181 Q84.0256 695.507 84.0256 690.86 Q84.0256 686.213 80.3653 683.54 Q76.6732 680.866 70.212 680.866 Q63.7508 680.866 60.0905 683.54 Q56.3984 686.213 56.3984 690.86 Q56.3984 695.507 60.0905 698.181 Q63.7508 700.823 70.212 700.823 Z" fill="#000000" fill-rule="evenodd" fill-opacity="1" /><path clip-path="url(#clip830)" d="M 0 0 M52.3562 668.867 L52.3562 663.01 L88.0042 663.01 L88.0042 668.867 L52.3562 668.867 M38.479 668.867 L38.479 663.01 L45.895 663.01 L45.895 668.867 L38.479 668.867 Z" fill="#000000" fill-rule="evenodd" fill-opacity="1" /><path clip-path="url(#clip830)" d="M 0 0 M38.479 638.821 L43.3487 638.821 L43.3487 644.422 Q43.3487 647.573 44.6219 648.815 Q45.895 650.024 49.2052 650.024 L52.3562 650.024 L52.3562 640.38 L56.9077 640.38 L56.9077 650.024 L88.0042 650.024 L88.0042 655.912 L56.9077 655.912 L56.9077 661.514 L52.3562 661.514 L52.3562 655.912 L49.8736 655.912 Q43.9216 655.912 41.2162 653.143 Q38.479 650.374 38.479 644.359 L38.479 638.821 Z" fill="#000000" fill-rule="evenodd" fill-opacity="1" /><path clip-path="url(#clip830)" d="M 0 0 M38.479 614.631 L43.3487 614.631 L43.3487 620.233 Q43.3487 623.384 44.6219 624.625 Q45.895 625.835 49.2052 625.835 L52.3562 625.835 L52.3562 616.19 L56.9077 616.19 L56.9077 625.835 L88.0042 625.835 L88.0042 631.723 L56.9077 631.723 L56.9077 637.325 L52.3562 637.325 L52.3562 631.723 L49.8736 631.723 Q43.9216 631.723 41.2162 628.954 Q38.479 626.185 38.479 620.169 L38.479 614.631 Z" fill="#000000" fill-rule="evenodd" fill-opacity="1" /><path clip-path="url(#clip830)" d="
M1992.46 213.659 L2281.38 213.659 L2281.38 92.6992 L1992.46 92.6992  Z
  " fill="#ffffff" fill-rule="evenodd" fill-opacity="1"/>
<polyline clip-path="url(#clip830)" style="stroke:#000000; stroke-width:4; stroke-opacity:1; fill:none" points="
  1992.46,213.659 2281.38,213.659 2281.38,92.6992 1992.46,92.6992 1992.46,213.659 
  "/>
<polyline clip-path="url(#clip830)" style="stroke:#009af9; stroke-width:4; stroke-opacity:1; fill:none" stroke-dasharray="16, 10" points="
  2016.25,153.179 2158.99,153.179 
  "/>
<path clip-path="url(#clip830)" d="M 0 0 M2196.63 172.867 Q2194.82 177.496 2193.11 178.908 Q2191.39 180.32 2188.52 180.32 L2185.12 180.32 L2185.12 176.755 L2187.62 176.755 Q2189.38 176.755 2190.35 175.922 Q2191.33 175.089 2192.51 171.987 L2193.27 170.043 L2182.78 144.533 L2187.3 144.533 L2195.4 164.811 L2203.5 144.533 L2208.01 144.533 L2196.63 172.867 Z" fill="#000000" fill-rule="evenodd" fill-opacity="1" /><path clip-path="url(#clip830)" d="M 0 0 M2213.89 166.524 L2221.53 166.524 L2221.53 140.158 L2213.22 141.825 L2213.22 137.566 L2221.49 135.899 L2226.16 135.899 L2226.16 166.524 L2233.8 166.524 L2233.8 170.459 L2213.89 170.459 L2213.89 166.524 Z" fill="#000000" fill-rule="evenodd" fill-opacity="1" /></svg>
