<?xml version="1.0" encoding="utf-8"?>
<svg xmlns="http://www.w3.org/2000/svg" xmlns:xlink="http://www.w3.org/1999/xlink" width="600" height="400" viewBox="0 0 2400 1600">
<defs>
  <clipPath id="clip120">
    <rect x="0" y="0" width="2400" height="1600"/>
  </clipPath>
</defs>
<path clip-path="url(#clip120)" d="
M0 1600 L2400 1600 L2400 0 L0 0  Z
  " fill="#ffffff" fill-rule="evenodd" fill-opacity="1"/>
<defs>
  <clipPath id="clip121">
    <rect x="480" y="0" width="1681" height="1600"/>
  </clipPath>
</defs>
<path clip-path="url(#clip120)" d="
M227.042 1410.9 L2352.76 1410.9 L2352.76 47.2441 L227.042 47.2441  Z
  " fill="#ffffff" fill-rule="evenodd" fill-opacity="1"/>
<defs>
  <clipPath id="clip122">
    <rect x="227" y="47" width="2127" height="1365"/>
  </clipPath>
</defs>
<polyline clip-path="url(#clip122)" style="stroke:#000000; stroke-width:2; stroke-opacity:0.1; fill:none" points="
  287.204,1410.9 287.204,47.2441 
  "/>
<polyline clip-path="url(#clip122)" style="stroke:#000000; stroke-width:2; stroke-opacity:0.1; fill:none" points="
  955.667,1410.9 955.667,47.2441 
  "/>
<polyline clip-path="url(#clip122)" style="stroke:#000000; stroke-width:2; stroke-opacity:0.1; fill:none" points="
  1624.13,1410.9 1624.13,47.2441 
  "/>
<polyline clip-path="url(#clip122)" style="stroke:#000000; stroke-width:2; stroke-opacity:0.1; fill:none" points="
  2292.59,1410.9 2292.59,47.2441 
  "/>
<polyline clip-path="url(#clip120)" style="stroke:#000000; stroke-width:4; stroke-opacity:1; fill:none" points="
  227.042,1410.9 2352.76,1410.9 
  "/>
<polyline clip-path="url(#clip120)" style="stroke:#000000; stroke-width:4; stroke-opacity:1; fill:none" points="
  287.204,1410.9 287.204,1394.53 
  "/>
<polyline clip-path="url(#clip120)" style="stroke:#000000; stroke-width:4; stroke-opacity:1; fill:none" points="
  955.667,1410.9 955.667,1394.53 
  "/>
<polyline clip-path="url(#clip120)" style="stroke:#000000; stroke-width:4; stroke-opacity:1; fill:none" points="
  1624.13,1410.9 1624.13,1394.53 
  "/>
<polyline clip-path="url(#clip120)" style="stroke:#000000; stroke-width:4; stroke-opacity:1; fill:none" points="
  2292.59,1410.9 2292.59,1394.53 
  "/>
<path clip-path="url(#clip120)" d="M 0 0 M240.983 1489.17 L248.622 1489.17 L248.622 1462.8 L240.312 1464.47 L240.312 1460.21 L248.576 1458.54 L253.251 1458.54 L253.251 1489.17 L260.89 1489.17 L260.89 1493.1 L240.983 1493.1 L240.983 1489.17 Z" fill="#000000" fill-rule="evenodd" fill-opacity="1" /><path clip-path="url(#clip120)" d="M 0 0 M275.96 1461.62 Q272.349 1461.62 270.52 1465.19 Q268.714 1468.73 268.714 1475.86 Q268.714 1482.97 270.52 1486.53 Q272.349 1490.07 275.96 1490.07 Q279.594 1490.07 281.399 1486.53 Q283.228 1482.97 283.228 1475.86 Q283.228 1468.73 281.399 1465.19 Q279.594 1461.62 275.96 1461.62 M275.96 1457.92 Q281.77 1457.92 284.825 1462.53 Q287.904 1467.11 287.904 1475.86 Q287.904 1484.59 284.825 1489.19 Q281.77 1493.78 275.96 1493.78 Q270.15 1493.78 267.071 1489.19 Q264.015 1484.59 264.015 1475.86 Q264.015 1467.11 267.071 1462.53 Q270.15 1457.92 275.96 1457.92 Z" fill="#000000" fill-rule="evenodd" fill-opacity="1" /><path clip-path="url(#clip120)" d="M 0 0 M287.904 1452.02 L312.016 1452.02 L312.016 1455.22 L287.904 1455.22 L287.904 1452.02 Z" fill="#000000" fill-rule="evenodd" fill-opacity="1" /><path clip-path="url(#clip120)" d="M 0 0 M324.73 1450.14 Q322.172 1450.14 320.667 1451.89 Q319.181 1453.64 319.181 1456.68 Q319.181 1459.71 320.667 1461.48 Q322.172 1463.23 324.73 1463.23 Q327.288 1463.23 328.773 1461.48 Q330.278 1459.71 330.278 1456.68 Q330.278 1453.64 328.773 1451.89 Q327.288 1450.14 324.73 1450.14 M332.272 1438.23 L332.272 1441.69 Q330.842 1441.02 329.375 1440.66 Q327.927 1440.3 326.498 1440.3 Q322.736 1440.3 320.742 1442.84 Q318.768 1445.38 318.486 1450.52 Q319.595 1448.88 321.269 1448.01 Q322.943 1447.13 324.955 1447.13 Q329.187 1447.13 331.632 1449.71 Q334.096 1452.26 334.096 1456.68 Q334.096 1461.01 331.538 1463.62 Q328.98 1466.24 324.73 1466.24 Q319.858 1466.24 317.282 1462.51 Q314.705 1458.77 314.705 1451.68 Q314.705 1445.02 317.865 1441.07 Q321.025 1437.11 326.347 1437.11 Q327.777 1437.11 329.225 1437.39 Q330.692 1437.67 332.272 1438.23 Z" fill="#000000" fill-rule="evenodd" fill-opacity="1" /><path clip-path="url(#clip120)" d="M 0 0 M909.917 1489.17 L917.556 1489.17 L917.556 1462.8 L909.245 1464.47 L909.245 1460.21 L917.509 1458.54 L922.185 1458.54 L922.185 1489.17 L929.824 1489.17 L929.824 1493.1 L909.917 1493.1 L909.917 1489.17 Z" fill="#000000" fill-rule="evenodd" fill-opacity="1" /><path clip-path="url(#clip120)" d="M 0 0 M944.893 1461.62 Q941.282 1461.62 939.454 1465.19 Q937.648 1468.73 937.648 1475.86 Q937.648 1482.97 939.454 1486.53 Q941.282 1490.07 944.893 1490.07 Q948.528 1490.07 950.333 1486.53 Q952.162 1482.97 952.162 1475.86 Q952.162 1468.73 950.333 1465.19 Q948.528 1461.62 944.893 1461.62 M944.893 1457.92 Q950.704 1457.92 953.759 1462.53 Q956.838 1467.11 956.838 1475.86 Q956.838 1484.59 953.759 1489.19 Q950.704 1493.78 944.893 1493.78 Q939.083 1493.78 936.005 1489.19 Q932.949 1484.59 932.949 1475.86 Q932.949 1467.11 936.005 1462.53 Q939.083 1457.92 944.893 1457.92 Z" fill="#000000" fill-rule="evenodd" fill-opacity="1" /><path clip-path="url(#clip120)" d="M 0 0 M956.838 1452.02 L980.949 1452.02 L980.949 1455.22 L956.838 1455.22 L956.838 1452.02 Z" fill="#000000" fill-rule="evenodd" fill-opacity="1" /><path clip-path="url(#clip120)" d="M 0 0 M985.106 1437.61 L1000.02 1437.61 L1000.02 1440.81 L988.585 1440.81 L988.585 1447.69 Q989.413 1447.41 990.24 1447.28 Q991.068 1447.13 991.895 1447.13 Q996.597 1447.13 999.343 1449.71 Q1002.09 1452.28 1002.09 1456.68 Q1002.09 1461.22 999.268 1463.74 Q996.447 1466.24 991.312 1466.24 Q989.544 1466.24 987.701 1465.94 Q985.877 1465.64 983.921 1465.04 L983.921 1461.22 Q985.614 1462.14 987.419 1462.59 Q989.225 1463.04 991.237 1463.04 Q994.491 1463.04 996.39 1461.33 Q998.29 1459.62 998.29 1456.68 Q998.29 1453.75 996.39 1452.04 Q994.491 1450.33 991.237 1450.33 Q989.714 1450.33 988.19 1450.67 Q986.686 1451 985.106 1451.72 L985.106 1437.61 Z" fill="#000000" fill-rule="evenodd" fill-opacity="1" /><path clip-path="url(#clip120)" d="M 0 0 M1577.78 1489.17 L1585.42 1489.17 L1585.42 1462.8 L1577.11 1464.47 L1577.11 1460.21 L1585.37 1458.54 L1590.05 1458.54 L1590.05 1489.17 L1597.69 1489.17 L1597.69 1493.1 L1577.78 1493.1 L1577.78 1489.17 Z" fill="#000000" fill-rule="evenodd" fill-opacity="1" /><path clip-path="url(#clip120)" d="M 0 0 M1612.75 1461.62 Q1609.14 1461.62 1607.32 1465.19 Q1605.51 1468.73 1605.51 1475.86 Q1605.51 1482.97 1607.32 1486.53 Q1609.14 1490.07 1612.75 1490.07 Q1616.39 1490.07 1618.19 1486.53 Q1620.02 1482.97 1620.02 1475.86 Q1620.02 1468.73 1618.19 1465.19 Q1616.39 1461.62 1612.75 1461.62 M1612.75 1457.92 Q1618.57 1457.92 1621.62 1462.53 Q1624.7 1467.11 1624.7 1475.86 Q1624.7 1484.59 1621.62 1489.19 Q1618.57 1493.78 1612.75 1493.78 Q1606.94 1493.78 1603.87 1489.19 Q1600.81 1484.59 1600.81 1475.86 Q1600.81 1467.11 1603.87 1462.53 Q1606.94 1457.92 1612.75 1457.92 Z" fill="#000000" fill-rule="evenodd" fill-opacity="1" /><path clip-path="url(#clip120)" d="M 0 0 M1624.7 1452.02 L1648.81 1452.02 L1648.81 1455.22 L1624.7 1455.22 L1624.7 1452.02 Z" fill="#000000" fill-rule="evenodd" fill-opacity="1" /><path clip-path="url(#clip120)" d="M 0 0 M1663.37 1440.92 L1653.78 1455.91 L1663.37 1455.91 L1663.37 1440.92 M1662.37 1437.61 L1667.15 1437.61 L1667.15 1455.91 L1671.15 1455.91 L1671.15 1459.07 L1667.15 1459.07 L1667.15 1465.69 L1663.37 1465.69 L1663.37 1459.07 L1650.69 1459.07 L1650.69 1455.41 L1662.37 1437.61 Z" fill="#000000" fill-rule="evenodd" fill-opacity="1" /><path clip-path="url(#clip120)" d="M 0 0 M2246.7 1489.17 L2254.34 1489.17 L2254.34 1462.8 L2246.03 1464.47 L2246.03 1460.21 L2254.3 1458.54 L2258.97 1458.54 L2258.97 1489.17 L2266.61 1489.17 L2266.61 1493.1 L2246.7 1493.1 L2246.7 1489.17 Z" fill="#000000" fill-rule="evenodd" fill-opacity="1" /><path clip-path="url(#clip120)" d="M 0 0 M2281.68 1461.62 Q2278.07 1461.62 2276.24 1465.19 Q2274.43 1468.73 2274.43 1475.86 Q2274.43 1482.97 2276.24 1486.53 Q2278.07 1490.07 2281.68 1490.07 Q2285.31 1490.07 2287.12 1486.53 Q2288.95 1482.97 2288.95 1475.86 Q2288.95 1468.73 2287.12 1465.19 Q2285.31 1461.62 2281.68 1461.62 M2281.68 1457.92 Q2287.49 1457.92 2290.54 1462.53 Q2293.62 1467.11 2293.62 1475.86 Q2293.62 1484.59 2290.54 1489.19 Q2287.49 1493.78 2281.68 1493.78 Q2275.87 1493.78 2272.79 1489.19 Q2269.73 1484.59 2269.73 1475.86 Q2269.73 1467.11 2272.79 1462.53 Q2275.87 1457.92 2281.68 1457.92 Z" fill="#000000" fill-rule="evenodd" fill-opacity="1" /><path clip-path="url(#clip120)" d="M 0 0 M2293.62 1452.02 L2317.74 1452.02 L2317.74 1455.22 L2293.62 1455.22 L2293.62 1452.02 Z" fill="#000000" fill-rule="evenodd" fill-opacity="1" /><path clip-path="url(#clip120)" d="M 0 0 M2333.36 1450.55 Q2336.09 1451.14 2337.61 1452.98 Q2339.16 1454.82 2339.16 1457.53 Q2339.16 1461.69 2336.3 1463.96 Q2333.44 1466.24 2328.17 1466.24 Q2326.41 1466.24 2324.52 1465.88 Q2322.66 1465.54 2320.67 1464.85 L2320.67 1461.18 Q2322.25 1462.1 2324.13 1462.57 Q2326.01 1463.04 2328.06 1463.04 Q2331.63 1463.04 2333.5 1461.63 Q2335.38 1460.22 2335.38 1457.53 Q2335.38 1455.05 2333.63 1453.66 Q2331.9 1452.25 2328.79 1452.25 L2325.52 1452.25 L2325.52 1449.12 L2328.94 1449.12 Q2331.75 1449.12 2333.23 1448.01 Q2334.72 1446.89 2334.72 1444.78 Q2334.72 1442.62 2333.18 1441.47 Q2331.65 1440.3 2328.79 1440.3 Q2327.23 1440.3 2325.45 1440.64 Q2323.66 1440.98 2321.52 1441.69 L2321.52 1438.31 Q2323.68 1437.71 2325.56 1437.41 Q2327.46 1437.11 2329.13 1437.11 Q2333.46 1437.11 2335.98 1439.08 Q2338.5 1441.04 2338.5 1444.38 Q2338.5 1446.72 2337.16 1448.33 Q2335.83 1449.93 2333.36 1450.55 Z" fill="#000000" fill-rule="evenodd" fill-opacity="1" /><path clip-path="url(#clip120)" d="M 0 0 M1221.42 1512.66 L1227.31 1512.66 L1227.31 1541.91 L1244.78 1526.54 L1252.26 1526.54 L1233.36 1543.22 L1253.06 1562.19 L1245.42 1562.19 L1227.31 1544.78 L1227.31 1562.19 L1221.42 1562.19 L1221.42 1512.66 Z" fill="#000000" fill-rule="evenodd" fill-opacity="1" /><path clip-path="url(#clip120)" d="M 0 0 M1286.29 1573.01 L1286.29 1577.56 L1252.42 1577.56 L1252.42 1573.01 L1286.29 1573.01 Z" fill="#000000" fill-rule="evenodd" fill-opacity="1" /><path clip-path="url(#clip120)" d="M 0 0 M1306.24 1530.64 Q1301.53 1530.64 1298.8 1534.34 Q1296.06 1538 1296.06 1544.39 Q1296.06 1550.79 1298.76 1554.48 Q1301.5 1558.14 1306.24 1558.14 Q1310.92 1558.14 1313.66 1554.45 Q1316.4 1550.76 1316.4 1544.39 Q1316.4 1538.06 1313.66 1534.37 Q1310.92 1530.64 1306.24 1530.64 M1306.24 1525.68 Q1313.88 1525.68 1318.24 1530.64 Q1322.6 1535.61 1322.6 1544.39 Q1322.6 1553.15 1318.24 1558.14 Q1313.88 1563.11 1306.24 1563.11 Q1298.57 1563.11 1294.21 1558.14 Q1289.88 1553.15 1289.88 1544.39 Q1289.88 1535.61 1294.21 1530.64 Q1298.57 1525.68 1306.24 1525.68 Z" fill="#000000" fill-rule="evenodd" fill-opacity="1" /><path clip-path="url(#clip120)" d="M 0 0 M1358.38 1540.67 L1358.38 1562.19 L1352.52 1562.19 L1352.52 1540.86 Q1352.52 1535.8 1350.55 1533.29 Q1348.57 1530.77 1344.63 1530.77 Q1339.89 1530.77 1337.15 1533.79 Q1334.41 1536.82 1334.41 1542.04 L1334.41 1562.19 L1328.52 1562.19 L1328.52 1526.54 L1334.41 1526.54 L1334.41 1532.08 Q1336.51 1528.86 1339.34 1527.27 Q1342.21 1525.68 1345.93 1525.68 Q1352.08 1525.68 1355.23 1529.5 Q1358.38 1533.29 1358.38 1540.67 Z" fill="#000000" fill-rule="evenodd" fill-opacity="1" /><polyline clip-path="url(#clip122)" style="stroke:#000000; stroke-width:2; stroke-opacity:0.1; fill:none" points="
  227.042,1392.57 2352.76,1392.57 
  "/>
<polyline clip-path="url(#clip122)" style="stroke:#000000; stroke-width:2; stroke-opacity:0.1; fill:none" points="
  227.042,1013.07 2352.76,1013.07 
  "/>
<polyline clip-path="url(#clip122)" style="stroke:#000000; stroke-width:2; stroke-opacity:0.1; fill:none" points="
  227.042,633.581 2352.76,633.581 
  "/>
<polyline clip-path="url(#clip122)" style="stroke:#000000; stroke-width:2; stroke-opacity:0.1; fill:none" points="
  227.042,254.088 2352.76,254.088 
  "/>
<polyline clip-path="url(#clip120)" style="stroke:#000000; stroke-width:4; stroke-opacity:1; fill:none" points="
  227.042,1410.9 227.042,47.2441 
  "/>
<polyline clip-path="url(#clip120)" style="stroke:#000000; stroke-width:4; stroke-opacity:1; fill:none" points="
  227.042,1392.57 252.551,1392.57 
  "/>
<polyline clip-path="url(#clip120)" style="stroke:#000000; stroke-width:4; stroke-opacity:1; fill:none" points="
  227.042,1013.07 252.551,1013.07 
  "/>
<polyline clip-path="url(#clip120)" style="stroke:#000000; stroke-width:4; stroke-opacity:1; fill:none" points="
  227.042,633.581 252.551,633.581 
  "/>
<polyline clip-path="url(#clip120)" style="stroke:#000000; stroke-width:4; stroke-opacity:1; fill:none" points="
  227.042,254.088 252.551,254.088 
  "/>
<path clip-path="url(#clip120)" d="M 0 0 M179.098 1378.37 Q175.487 1378.37 173.658 1381.93 Q171.852 1385.47 171.852 1392.6 Q171.852 1399.71 173.658 1403.27 Q175.487 1406.81 179.098 1406.81 Q182.732 1406.81 184.538 1403.27 Q186.366 1399.71 186.366 1392.6 Q186.366 1385.47 184.538 1381.93 Q182.732 1378.37 179.098 1378.37 M179.098 1374.66 Q184.908 1374.66 187.963 1379.27 Q191.042 1383.85 191.042 1392.6 Q191.042 1401.33 187.963 1405.94 Q184.908 1410.52 179.098 1410.52 Q173.288 1410.52 170.209 1405.94 Q167.153 1401.33 167.153 1392.6 Q167.153 1383.85 170.209 1379.27 Q173.288 1374.66 179.098 1374.66 Z" fill="#000000" fill-rule="evenodd" fill-opacity="1" /><path clip-path="url(#clip120)" d="M 0 0 M117.107 1026.42 L124.746 1026.42 L124.746 1000.05 L116.436 1001.72 L116.436 997.461 L124.7 995.794 L129.376 995.794 L129.376 1026.42 L137.015 1026.42 L137.015 1030.35 L117.107 1030.35 L117.107 1026.42 Z" fill="#000000" fill-rule="evenodd" fill-opacity="1" /><path clip-path="url(#clip120)" d="M 0 0 M152.084 998.873 Q148.473 998.873 146.644 1002.44 Q144.839 1005.98 144.839 1013.11 Q144.839 1020.22 146.644 1023.78 Q148.473 1027.32 152.084 1027.32 Q155.718 1027.32 157.524 1023.78 Q159.353 1020.22 159.353 1013.11 Q159.353 1005.98 157.524 1002.44 Q155.718 998.873 152.084 998.873 M152.084 995.169 Q157.894 995.169 160.95 999.776 Q164.028 1004.36 164.028 1013.11 Q164.028 1021.84 160.95 1026.44 Q157.894 1031.03 152.084 1031.03 Q146.274 1031.03 143.195 1026.44 Q140.14 1021.84 140.14 1013.11 Q140.14 1004.36 143.195 999.776 Q146.274 995.169 152.084 995.169 Z" fill="#000000" fill-rule="evenodd" fill-opacity="1" /><path clip-path="url(#clip120)" d="M 0 0 M179.098 998.873 Q175.487 998.873 173.658 1002.44 Q171.852 1005.98 171.852 1013.11 Q171.852 1020.22 173.658 1023.78 Q175.487 1027.32 179.098 1027.32 Q182.732 1027.32 184.538 1023.78 Q186.366 1020.22 186.366 1013.11 Q186.366 1005.98 184.538 1002.44 Q182.732 998.873 179.098 998.873 M179.098 995.169 Q184.908 995.169 187.963 999.776 Q191.042 1004.36 191.042 1013.11 Q191.042 1021.84 187.963 1026.44 Q184.908 1031.03 179.098 1031.03 Q173.288 1031.03 170.209 1026.44 Q167.153 1021.84 167.153 1013.11 Q167.153 1004.36 170.209 999.776 Q173.288 995.169 179.098 995.169 Z" fill="#000000" fill-rule="evenodd" fill-opacity="1" /><path clip-path="url(#clip120)" d="M 0 0 M120.695 646.926 L137.015 646.926 L137.015 650.861 L115.07 650.861 L115.07 646.926 Q117.732 644.171 122.316 639.542 Q126.922 634.889 128.103 633.546 Q130.348 631.023 131.228 629.287 Q132.13 627.528 132.13 625.838 Q132.13 623.083 130.186 621.347 Q128.265 619.611 125.163 619.611 Q122.964 619.611 120.51 620.375 Q118.08 621.139 115.302 622.69 L115.302 617.968 Q118.126 616.833 120.58 616.255 Q123.033 615.676 125.07 615.676 Q130.441 615.676 133.635 618.361 Q136.829 621.046 136.829 625.537 Q136.829 627.667 136.019 629.588 Q135.232 631.486 133.126 634.079 Q132.547 634.75 129.445 637.967 Q126.343 641.162 120.695 646.926 Z" fill="#000000" fill-rule="evenodd" fill-opacity="1" /><path clip-path="url(#clip120)" d="M 0 0 M152.084 619.38 Q148.473 619.38 146.644 622.944 Q144.839 626.486 144.839 633.616 Q144.839 640.722 146.644 644.287 Q148.473 647.829 152.084 647.829 Q155.718 647.829 157.524 644.287 Q159.353 640.722 159.353 633.616 Q159.353 626.486 157.524 622.944 Q155.718 619.38 152.084 619.38 M152.084 615.676 Q157.894 615.676 160.95 620.282 Q164.028 624.866 164.028 633.616 Q164.028 642.342 160.95 646.949 Q157.894 651.532 152.084 651.532 Q146.274 651.532 143.195 646.949 Q140.14 642.342 140.14 633.616 Q140.14 624.866 143.195 620.282 Q146.274 615.676 152.084 615.676 Z" fill="#000000" fill-rule="evenodd" fill-opacity="1" /><path clip-path="url(#clip120)" d="M 0 0 M179.098 619.38 Q175.487 619.38 173.658 622.944 Q171.852 626.486 171.852 633.616 Q171.852 640.722 173.658 644.287 Q175.487 647.829 179.098 647.829 Q182.732 647.829 184.538 644.287 Q186.366 640.722 186.366 633.616 Q186.366 626.486 184.538 622.944 Q182.732 619.38 179.098 619.38 M179.098 615.676 Q184.908 615.676 187.963 620.282 Q191.042 624.866 191.042 633.616 Q191.042 642.342 187.963 646.949 Q184.908 651.532 179.098 651.532 Q173.288 651.532 170.209 646.949 Q167.153 642.342 167.153 633.616 Q167.153 624.866 170.209 620.282 Q173.288 615.676 179.098 615.676 Z" fill="#000000" fill-rule="evenodd" fill-opacity="1" /><path clip-path="url(#clip120)" d="M 0 0 M129.885 252.734 Q133.242 253.451 135.117 255.72 Q137.015 257.988 137.015 261.322 Q137.015 266.437 133.496 269.238 Q129.978 272.039 123.496 272.039 Q121.32 272.039 119.006 271.599 Q116.714 271.183 114.26 270.326 L114.26 265.812 Q116.205 266.947 118.519 267.525 Q120.834 268.104 123.357 268.104 Q127.755 268.104 130.047 266.368 Q132.362 264.632 132.362 261.322 Q132.362 258.266 130.209 256.553 Q128.08 254.817 124.26 254.817 L120.232 254.817 L120.232 250.974 L124.445 250.974 Q127.894 250.974 129.723 249.609 Q131.552 248.22 131.552 245.627 Q131.552 242.965 129.654 241.553 Q127.779 240.118 124.26 240.118 Q122.339 240.118 120.14 240.535 Q117.941 240.951 115.302 241.831 L115.302 237.664 Q117.964 236.924 120.279 236.553 Q122.617 236.183 124.677 236.183 Q130.001 236.183 133.103 238.613 Q136.204 241.021 136.204 245.141 Q136.204 248.011 134.561 250.002 Q132.917 251.97 129.885 252.734 Z" fill="#000000" fill-rule="evenodd" fill-opacity="1" /><path clip-path="url(#clip120)" d="M 0 0 M152.084 239.886 Q148.473 239.886 146.644 243.451 Q144.839 246.993 144.839 254.123 Q144.839 261.229 146.644 264.794 Q148.473 268.335 152.084 268.335 Q155.718 268.335 157.524 264.794 Q159.353 261.229 159.353 254.123 Q159.353 246.993 157.524 243.451 Q155.718 239.886 152.084 239.886 M152.084 236.183 Q157.894 236.183 160.95 240.789 Q164.028 245.373 164.028 254.123 Q164.028 262.849 160.95 267.456 Q157.894 272.039 152.084 272.039 Q146.274 272.039 143.195 267.456 Q140.14 262.849 140.14 254.123 Q140.14 245.373 143.195 240.789 Q146.274 236.183 152.084 236.183 Z" fill="#000000" fill-rule="evenodd" fill-opacity="1" /><path clip-path="url(#clip120)" d="M 0 0 M179.098 239.886 Q175.487 239.886 173.658 243.451 Q171.852 246.993 171.852 254.123 Q171.852 261.229 173.658 264.794 Q175.487 268.335 179.098 268.335 Q182.732 268.335 184.538 264.794 Q186.366 261.229 186.366 254.123 Q186.366 246.993 184.538 243.451 Q182.732 239.886 179.098 239.886 M179.098 236.183 Q184.908 236.183 187.963 240.789 Q191.042 245.373 191.042 254.123 Q191.042 262.849 187.963 267.456 Q184.908 272.039 179.098 272.039 Q173.288 272.039 170.209 267.456 Q167.153 262.849 167.153 254.123 Q167.153 245.373 170.209 240.789 Q173.288 236.183 179.098 236.183 Z" fill="#000000" fill-rule="evenodd" fill-opacity="1" /><path clip-path="url(#clip120)" d="M 0 0 M59.1993 815.533 Q55.2526 813.336 53.3747 810.281 Q51.4968 807.225 51.4968 803.088 Q51.4968 797.518 55.4117 794.494 Q59.2948 791.47 66.4881 791.47 L88.0042 791.47 L88.0042 797.358 L66.679 797.358 Q61.5546 797.358 59.072 799.173 Q56.5894 800.987 56.5894 804.711 Q56.5894 809.262 59.6131 811.904 Q62.6368 814.546 67.8567 814.546 L88.0042 814.546 L88.0042 820.434 L66.679 820.434 Q61.5228 820.434 59.072 822.248 Q56.5894 824.063 56.5894 827.85 Q56.5894 832.338 59.6449 834.98 Q62.6686 837.622 67.8567 837.622 L88.0042 837.622 L88.0042 843.51 L52.3562 843.51 L52.3562 837.622 L57.8944 837.622 Q54.616 835.616 53.0564 832.815 Q51.4968 830.015 51.4968 826.163 Q51.4968 822.28 53.4702 819.575 Q55.4436 816.838 59.1993 815.533 Z" fill="#000000" fill-rule="evenodd" fill-opacity="1" /><path clip-path="url(#clip120)" d="M 0 0 M52.3562 785.327 L52.3562 779.471 L88.0042 779.471 L88.0042 785.327 L52.3562 785.327 M38.479 785.327 L38.479 779.471 L45.895 779.471 L45.895 785.327 L38.479 785.327 Z" fill="#000000" fill-rule="evenodd" fill-opacity="1" /><path clip-path="url(#clip120)" d="M 0 0 M66.4881 743.696 L88.0042 743.696 L88.0042 749.552 L66.679 749.552 Q61.6183 749.552 59.1038 751.525 Q56.5894 753.499 56.5894 757.446 Q56.5894 762.188 59.6131 764.925 Q62.6368 767.662 67.8567 767.662 L88.0042 767.662 L88.0042 773.551 L52.3562 773.551 L52.3562 767.662 L57.8944 767.662 Q54.6797 765.562 53.0883 762.729 Q51.4968 759.864 51.4968 756.141 Q51.4968 749.998 55.3163 746.847 Q59.1038 743.696 66.4881 743.696 Z" fill="#000000" fill-rule="evenodd" fill-opacity="1" /><path clip-path="url(#clip120)" d="M 0 0 M98.8259 710.467 L103.377 710.467 L103.377 744.332 L98.8259 744.332 L98.8259 710.467 Z" fill="#000000" fill-rule="evenodd" fill-opacity="1" /><path clip-path="url(#clip120)" d="M 0 0 M57.7671 680.866 L38.479 680.866 L38.479 675.01 L88.0042 675.01 L88.0042 680.866 L82.657 680.866 Q85.8398 682.712 87.3994 685.545 Q88.9272 688.346 88.9272 692.292 Q88.9272 698.754 83.771 702.828 Q78.6147 706.87 70.212 706.87 Q61.8093 706.87 56.6531 702.828 Q51.4968 698.754 51.4968 692.292 Q51.4968 688.346 53.0564 685.545 Q54.5842 682.712 57.7671 680.866 M70.212 700.823 Q76.6732 700.823 80.3653 698.181 Q84.0256 695.507 84.0256 690.86 Q84.0256 686.213 80.3653 683.54 Q76.6732 680.866 70.212 680.866 Q63.7508 680.866 60.0905 683.54 Q56.3984 686.213 56.3984 690.86 Q56.3984 695.507 60.0905 698.181 Q63.7508 700.823 70.212 700.823 Z" fill="#000000" fill-rule="evenodd" fill-opacity="1" /><path clip-path="url(#clip120)" d="M 0 0 M52.3562 668.867 L52.3562 663.01 L88.0042 663.01 L88.0042 668.867 L52.3562 668.867 M38.479 668.867 L38.479 663.01 L45.895 663.01 L45.895 668.867 L38.479 668.867 Z" fill="#000000" fill-rule="evenodd" fill-opacity="1" /><path clip-path="url(#clip120)" d="M 0 0 M38.479 638.821 L43.3487 638.821 L43.3487 644.422 Q43.3487 647.573 44.6219 648.815 Q45.895 650.024 49.2052 650.024 L52.3562 650.024 L52.3562 640.38 L56.9077 640.38 L56.9077 650.024 L88.0042 650.024 L88.0042 655.912 L56.9077 655.912 L56.9077 661.514 L52.3562 661.514 L52.3562 655.912 L49.8736 655.912 Q43.9216 655.912 41.2162 653.143 Q38.479 650.374 38.479 644.359 L38.479 638.821 Z" fill="#000000" fill-rule="evenodd" fill-opacity="1" /><path clip-path="url(#clip120)" d="M 0 0 M38.479 614.631 L43.3487 614.631 L43.3487 620.233 Q43.3487 623.384 44.6219 624.625 Q45.895 625.835 49.2052 625.835 L52.3562 625.835 L52.3562 616.19 L56.9077 616.19 L56.9077 625.835 L88.0042 625.835 L88.0042 631.723 L56.9077 631.723 L56.9077 637.325 L52.3562 637.325 L52.3562 631.723 L49.8736 631.723 Q43.9216 631.723 41.2162 628.954 Q38.479 626.185 38.479 620.169 L38.479 614.631 Z" fill="#000000" fill-rule="evenodd" fill-opacity="1" /><polyline clip-path="url(#clip122)" style="stroke:#009af9; stroke-width:20; stroke-opacity:1; fill:none" stroke-dasharray="80, 50" points="
  287.204,941.505 621.436,1335.12 955.667,1372.3 1289.9,939.327 1624.13,307.802 1958.36,119.197 2292.59,85.838 
  "/>
<path clip-path="url(#clip120)" d="
M1994.69 213.659 L2281.9 213.659 L2281.9 92.6992 L1994.69 92.6992  Z
  " fill="#ffffff" fill-rule="evenodd" fill-opacity="1"/>
<polyline clip-path="url(#clip120)" style="stroke:#000000; stroke-width:4; stroke-opacity:1; fill:none" points="
  1994.69,213.659 2281.9,213.659 2281.9,92.6992 1994.69,92.6992 1994.69,213.659 
  "/>
<polyline clip-path="url(#clip120)" style="stroke:#009af9; stroke-width:4; stroke-opacity:1; fill:none" stroke-dasharray="16, 10" points="
  2018.31,153.179 2160.02,153.179 
  "/>
<path clip-path="url(#clip120)" d="M 0 0 M2197.48 172.867 Q2195.68 177.496 2193.97 178.908 Q2192.25 180.32 2189.38 180.32 L2185.98 180.32 L2185.98 176.755 L2188.48 176.755 Q2190.24 176.755 2191.21 175.922 Q2192.18 175.089 2193.36 171.987 L2194.13 170.043 L2183.64 144.533 L2188.16 144.533 L2196.26 164.811 L2204.36 144.533 L2208.87 144.533 L2197.48 172.867 Z" fill="#000000" fill-rule="evenodd" fill-opacity="1" /><path clip-path="url(#clip120)" d="M 0 0 M2214.75 166.524 L2222.39 166.524 L2222.39 140.158 L2214.08 141.825 L2214.08 137.566 L2222.35 135.899 L2227.02 135.899 L2227.02 166.524 L2234.66 166.524 L2234.66 170.459 L2214.75 170.459 L2214.75 166.524 Z" fill="#000000" fill-rule="evenodd" fill-opacity="1" /></svg>
