<?xml version="1.0" encoding="utf-8"?>
<svg xmlns="http://www.w3.org/2000/svg" xmlns:xlink="http://www.w3.org/1999/xlink" width="600" height="400" viewBox="0 0 2400 1600">
<defs>
  <clipPath id="clip780">
    <rect x="0" y="0" width="2400" height="1600"/>
  </clipPath>
</defs>
<path clip-path="url(#clip780)" d="
M0 1600 L2400 1600 L2400 0 L0 0  Z
  " fill="#ffffff" fill-rule="evenodd" fill-opacity="1"/>
<defs>
  <clipPath id="clip781">
    <rect x="480" y="0" width="1681" height="1600"/>
  </clipPath>
</defs>
<path clip-path="url(#clip780)" d="
M254.056 1410.9 L2352.76 1410.9 L2352.76 47.2441 L254.056 47.2441  Z
  " fill="#ffffff" fill-rule="evenodd" fill-opacity="1"/>
<defs>
  <clipPath id="clip782">
    <rect x="254" y="47" width="2100" height="1365"/>
  </clipPath>
</defs>
<polyline clip-path="url(#clip782)" style="stroke:#000000; stroke-width:2; stroke-opacity:0.1; fill:none" points="
  626.634,1410.9 626.634,47.2441 
  "/>
<polyline clip-path="url(#clip782)" style="stroke:#000000; stroke-width:2; stroke-opacity:0.1; fill:none" points="
  1146.82,1410.9 1146.82,47.2441 
  "/>
<polyline clip-path="url(#clip782)" style="stroke:#000000; stroke-width:2; stroke-opacity:0.1; fill:none" points="
  1667,1410.9 1667,47.2441 
  "/>
<polyline clip-path="url(#clip782)" style="stroke:#000000; stroke-width:2; stroke-opacity:0.1; fill:none" points="
  2187.18,1410.9 2187.18,47.2441 
  "/>
<polyline clip-path="url(#clip780)" style="stroke:#000000; stroke-width:4; stroke-opacity:1; fill:none" points="
  254.056,1410.9 2352.76,1410.9 
  "/>
<polyline clip-path="url(#clip780)" style="stroke:#000000; stroke-width:4; stroke-opacity:1; fill:none" points="
  626.634,1410.9 626.634,1394.53 
  "/>
<polyline clip-path="url(#clip780)" style="stroke:#000000; stroke-width:4; stroke-opacity:1; fill:none" points="
  1146.82,1410.9 1146.82,1394.53 
  "/>
<polyline clip-path="url(#clip780)" style="stroke:#000000; stroke-width:4; stroke-opacity:1; fill:none" points="
  1667,1410.9 1667,1394.53 
  "/>
<polyline clip-path="url(#clip780)" style="stroke:#000000; stroke-width:4; stroke-opacity:1; fill:none" points="
  2187.18,1410.9 2187.18,1394.53 
  "/>
<path clip-path="url(#clip780)" d="M 0 0 M578.786 1489.17 L586.425 1489.17 L586.425 1462.8 L578.115 1464.47 L578.115 1460.21 L586.379 1458.54 L591.054 1458.54 L591.054 1489.17 L598.693 1489.17 L598.693 1493.1 L578.786 1493.1 L578.786 1489.17 Z" fill="#000000" fill-rule="evenodd" fill-opacity="1" /><path clip-path="url(#clip780)" d="M 0 0 M613.763 1461.62 Q610.152 1461.62 608.323 1465.19 Q606.517 1468.73 606.517 1475.86 Q606.517 1482.97 608.323 1486.53 Q610.152 1490.07 613.763 1490.07 Q617.397 1490.07 619.202 1486.53 Q621.031 1482.97 621.031 1475.86 Q621.031 1468.73 619.202 1465.19 Q617.397 1461.62 613.763 1461.62 M613.763 1457.92 Q619.573 1457.92 622.628 1462.53 Q625.707 1467.11 625.707 1475.86 Q625.707 1484.59 622.628 1489.19 Q619.573 1493.78 613.763 1493.78 Q607.953 1493.78 604.874 1489.19 Q601.818 1484.59 601.818 1475.86 Q601.818 1467.11 604.874 1462.53 Q607.953 1457.92 613.763 1457.92 Z" fill="#000000" fill-rule="evenodd" fill-opacity="1" /><path clip-path="url(#clip780)" d="M 0 0 M635.412 1440.11 Q632.478 1440.11 630.992 1443.01 Q629.525 1445.89 629.525 1451.68 Q629.525 1457.46 630.992 1460.35 Q632.478 1463.23 635.412 1463.23 Q638.365 1463.23 639.832 1460.35 Q641.318 1457.46 641.318 1451.68 Q641.318 1445.89 639.832 1443.01 Q638.365 1440.11 635.412 1440.11 M635.412 1437.11 Q640.133 1437.11 642.615 1440.85 Q645.117 1444.57 645.117 1451.68 Q645.117 1458.77 642.615 1462.51 Q640.133 1466.24 635.412 1466.24 Q630.691 1466.24 628.19 1462.51 Q625.707 1458.77 625.707 1451.68 Q625.707 1444.57 628.19 1440.85 Q630.691 1437.11 635.412 1437.11 Z" fill="#000000" fill-rule="evenodd" fill-opacity="1" /><path clip-path="url(#clip780)" d="M 0 0 M649.236 1460.92 L653.204 1460.92 L653.204 1465.69 L649.236 1465.69 L649.236 1460.92 Z" fill="#000000" fill-rule="evenodd" fill-opacity="1" /><path clip-path="url(#clip780)" d="M 0 0 M665.448 1440.11 Q662.514 1440.11 661.028 1443.01 Q659.561 1445.89 659.561 1451.68 Q659.561 1457.46 661.028 1460.35 Q662.514 1463.23 665.448 1463.23 Q668.401 1463.23 669.868 1460.35 Q671.354 1457.46 671.354 1451.68 Q671.354 1445.89 669.868 1443.01 Q668.401 1440.11 665.448 1440.11 M665.448 1437.11 Q670.169 1437.11 672.651 1440.85 Q675.153 1444.57 675.153 1451.68 Q675.153 1458.77 672.651 1462.51 Q670.169 1466.24 665.448 1466.24 Q660.727 1466.24 658.226 1462.51 Q655.743 1458.77 655.743 1451.68 Q655.743 1444.57 658.226 1440.85 Q660.727 1437.11 665.448 1437.11 Z" fill="#000000" fill-rule="evenodd" fill-opacity="1" /><path clip-path="url(#clip780)" d="M 0 0 M1099.37 1489.17 L1107.01 1489.17 L1107.01 1462.8 L1098.7 1464.47 L1098.7 1460.21 L1106.96 1458.54 L1111.64 1458.54 L1111.64 1489.17 L1119.28 1489.17 L1119.28 1493.1 L1099.37 1493.1 L1099.37 1489.17 Z" fill="#000000" fill-rule="evenodd" fill-opacity="1" /><path clip-path="url(#clip780)" d="M 0 0 M1134.35 1461.62 Q1130.74 1461.62 1128.91 1465.19 Q1127.1 1468.73 1127.1 1475.86 Q1127.1 1482.97 1128.91 1486.53 Q1130.74 1490.07 1134.35 1490.07 Q1137.98 1490.07 1139.79 1486.53 Q1141.62 1482.97 1141.62 1475.86 Q1141.62 1468.73 1139.79 1465.19 Q1137.98 1461.62 1134.35 1461.62 M1134.35 1457.92 Q1140.16 1457.92 1143.21 1462.53 Q1146.29 1467.11 1146.29 1475.86 Q1146.29 1484.59 1143.21 1489.19 Q1140.16 1493.78 1134.35 1493.78 Q1128.54 1493.78 1125.46 1489.19 Q1122.4 1484.59 1122.4 1475.86 Q1122.4 1467.11 1125.46 1462.53 Q1128.54 1457.92 1134.35 1457.92 Z" fill="#000000" fill-rule="evenodd" fill-opacity="1" /><path clip-path="url(#clip780)" d="M 0 0 M1156 1440.11 Q1153.06 1440.11 1151.58 1443.01 Q1150.11 1445.89 1150.11 1451.68 Q1150.11 1457.46 1151.58 1460.35 Q1153.06 1463.23 1156 1463.23 Q1158.95 1463.23 1160.42 1460.35 Q1161.9 1457.46 1161.9 1451.68 Q1161.9 1445.89 1160.42 1443.01 Q1158.95 1440.11 1156 1440.11 M1156 1437.11 Q1160.72 1437.11 1163.2 1440.85 Q1165.7 1444.57 1165.7 1451.68 Q1165.7 1458.77 1163.2 1462.51 Q1160.72 1466.24 1156 1466.24 Q1151.28 1466.24 1148.78 1462.51 Q1146.29 1458.77 1146.29 1451.68 Q1146.29 1444.57 1148.78 1440.85 Q1151.28 1437.11 1156 1437.11 Z" fill="#000000" fill-rule="evenodd" fill-opacity="1" /><path clip-path="url(#clip780)" d="M 0 0 M1169.82 1460.92 L1173.79 1460.92 L1173.79 1465.69 L1169.82 1465.69 L1169.82 1460.92 Z" fill="#000000" fill-rule="evenodd" fill-opacity="1" /><path clip-path="url(#clip780)" d="M 0 0 M1177.95 1437.61 L1192.86 1437.61 L1192.86 1440.81 L1181.43 1440.81 L1181.43 1447.69 Q1182.25 1447.41 1183.08 1447.28 Q1183.91 1447.13 1184.74 1447.13 Q1189.44 1447.13 1192.18 1449.71 Q1194.93 1452.28 1194.93 1456.68 Q1194.93 1461.22 1192.11 1463.74 Q1189.29 1466.24 1184.15 1466.24 Q1182.39 1466.24 1180.54 1465.94 Q1178.72 1465.64 1176.76 1465.04 L1176.76 1461.22 Q1178.45 1462.14 1180.26 1462.59 Q1182.07 1463.04 1184.08 1463.04 Q1187.33 1463.04 1189.23 1461.33 Q1191.13 1459.62 1191.13 1456.68 Q1191.13 1453.75 1189.23 1452.04 Q1187.33 1450.33 1184.08 1450.33 Q1182.55 1450.33 1181.03 1450.67 Q1179.53 1451 1177.95 1451.72 L1177.95 1437.61 Z" fill="#000000" fill-rule="evenodd" fill-opacity="1" /><path clip-path="url(#clip780)" d="M 0 0 M1620.49 1489.17 L1628.13 1489.17 L1628.13 1462.8 L1619.82 1464.47 L1619.82 1460.21 L1628.09 1458.54 L1632.76 1458.54 L1632.76 1489.17 L1640.4 1489.17 L1640.4 1493.1 L1620.49 1493.1 L1620.49 1489.17 Z" fill="#000000" fill-rule="evenodd" fill-opacity="1" /><path clip-path="url(#clip780)" d="M 0 0 M1655.47 1461.62 Q1651.86 1461.62 1650.03 1465.19 Q1648.23 1468.73 1648.23 1475.86 Q1648.23 1482.97 1650.03 1486.53 Q1651.86 1490.07 1655.47 1490.07 Q1659.11 1490.07 1660.91 1486.53 Q1662.74 1482.97 1662.74 1475.86 Q1662.74 1468.73 1660.91 1465.19 Q1659.11 1461.62 1655.47 1461.62 M1655.47 1457.92 Q1661.28 1457.92 1664.34 1462.53 Q1667.42 1467.11 1667.42 1475.86 Q1667.42 1484.59 1664.34 1489.19 Q1661.28 1493.78 1655.47 1493.78 Q1649.66 1493.78 1646.58 1489.19 Q1643.53 1484.59 1643.53 1475.86 Q1643.53 1467.11 1646.58 1462.53 Q1649.66 1457.92 1655.47 1457.92 Z" fill="#000000" fill-rule="evenodd" fill-opacity="1" /><path clip-path="url(#clip780)" d="M 0 0 M1667.96 1462.5 L1674.17 1462.5 L1674.17 1441.07 L1667.42 1442.43 L1667.42 1438.97 L1674.13 1437.61 L1677.93 1437.61 L1677.93 1462.5 L1684.14 1462.5 L1684.14 1465.69 L1667.96 1465.69 L1667.96 1462.5 Z" fill="#000000" fill-rule="evenodd" fill-opacity="1" /><path clip-path="url(#clip780)" d="M 0 0 M1688.25 1460.92 L1692.22 1460.92 L1692.22 1465.69 L1688.25 1465.69 L1688.25 1460.92 Z" fill="#000000" fill-rule="evenodd" fill-opacity="1" /><path clip-path="url(#clip780)" d="M 0 0 M1704.47 1440.11 Q1701.53 1440.11 1700.05 1443.01 Q1698.58 1445.89 1698.58 1451.68 Q1698.58 1457.46 1700.05 1460.35 Q1701.53 1463.23 1704.47 1463.23 Q1707.42 1463.23 1708.89 1460.35 Q1710.37 1457.46 1710.37 1451.68 Q1710.37 1445.89 1708.89 1443.01 Q1707.42 1440.11 1704.47 1440.11 M1704.47 1437.11 Q1709.19 1437.11 1711.67 1440.85 Q1714.17 1444.57 1714.17 1451.68 Q1714.17 1458.77 1711.67 1462.51 Q1709.19 1466.24 1704.47 1466.24 Q1699.75 1466.24 1697.24 1462.51 Q1694.76 1458.77 1694.76 1451.68 Q1694.76 1444.57 1697.24 1440.85 Q1699.75 1437.11 1704.47 1437.11 Z" fill="#000000" fill-rule="evenodd" fill-opacity="1" /><path clip-path="url(#clip780)" d="M 0 0 M2141.08 1489.17 L2148.72 1489.17 L2148.72 1462.8 L2140.41 1464.47 L2140.41 1460.21 L2148.67 1458.54 L2153.35 1458.54 L2153.35 1489.17 L2160.99 1489.17 L2160.99 1493.1 L2141.08 1493.1 L2141.08 1489.17 Z" fill="#000000" fill-rule="evenodd" fill-opacity="1" /><path clip-path="url(#clip780)" d="M 0 0 M2176.06 1461.62 Q2172.45 1461.62 2170.62 1465.19 Q2168.81 1468.73 2168.81 1475.86 Q2168.81 1482.97 2170.62 1486.53 Q2172.45 1490.07 2176.06 1490.07 Q2179.69 1490.07 2181.5 1486.53 Q2183.33 1482.97 2183.33 1475.86 Q2183.33 1468.73 2181.5 1465.19 Q2179.69 1461.62 2176.06 1461.62 M2176.06 1457.92 Q2181.87 1457.92 2184.92 1462.53 Q2188 1467.11 2188 1475.86 Q2188 1484.59 2184.92 1489.19 Q2181.87 1493.78 2176.06 1493.78 Q2170.25 1493.78 2167.17 1489.19 Q2164.11 1484.59 2164.11 1475.86 Q2164.11 1467.11 2167.17 1462.53 Q2170.25 1457.92 2176.06 1457.92 Z" fill="#000000" fill-rule="evenodd" fill-opacity="1" /><path clip-path="url(#clip780)" d="M 0 0 M2188.55 1462.5 L2194.75 1462.5 L2194.75 1441.07 L2188 1442.43 L2188 1438.97 L2194.72 1437.61 L2198.52 1437.61 L2198.52 1462.5 L2204.72 1462.5 L2204.72 1465.69 L2188.55 1465.69 L2188.55 1462.5 Z" fill="#000000" fill-rule="evenodd" fill-opacity="1" /><path clip-path="url(#clip780)" d="M 0 0 M2208.84 1460.92 L2212.81 1460.92 L2212.81 1465.69 L2208.84 1465.69 L2208.84 1460.92 Z" fill="#000000" fill-rule="evenodd" fill-opacity="1" /><path clip-path="url(#clip780)" d="M 0 0 M2216.97 1437.61 L2231.88 1437.61 L2231.88 1440.81 L2220.45 1440.81 L2220.45 1447.69 Q2221.27 1447.41 2222.1 1447.28 Q2222.93 1447.13 2223.76 1447.13 Q2228.46 1447.13 2231.2 1449.71 Q2233.95 1452.28 2233.95 1456.68 Q2233.95 1461.22 2231.13 1463.74 Q2228.31 1466.24 2223.17 1466.24 Q2221.4 1466.24 2219.56 1465.94 Q2217.74 1465.64 2215.78 1465.04 L2215.78 1461.22 Q2217.47 1462.14 2219.28 1462.59 Q2221.08 1463.04 2223.1 1463.04 Q2226.35 1463.04 2228.25 1461.33 Q2230.15 1459.62 2230.15 1456.68 Q2230.15 1453.75 2228.25 1452.04 Q2226.35 1450.33 2223.1 1450.33 Q2221.57 1450.33 2220.05 1450.67 Q2218.55 1451 2216.97 1451.72 L2216.97 1437.61 Z" fill="#000000" fill-rule="evenodd" fill-opacity="1" /><path clip-path="url(#clip780)" d="M 0 0 M1293.89 1559.99 L1293.89 1575.74 L1288 1575.74 L1288 1526.76 Q1288 1512.25 1301.56 1512.25 Q1315.37 1512.25 1315.37 1524.5 Q1315.37 1533.22 1309.9 1536.4 Q1318.81 1539.27 1318.81 1547.77 Q1318.81 1562.85 1303.47 1562.85 Q1296.72 1562.85 1293.89 1559.99 M1293.89 1552.35 Q1297.42 1557.86 1303.69 1557.86 Q1312.86 1557.86 1312.86 1547.86 Q1312.86 1538.89 1298.09 1539.59 L1298.09 1534.18 Q1309.64 1534.18 1309.64 1523.99 Q1309.64 1517.02 1302.2 1517.02 Q1293.89 1517.02 1293.89 1526.95 L1293.89 1552.35 Z" fill="#000000" fill-rule="evenodd" fill-opacity="1" /><polyline clip-path="url(#clip782)" style="stroke:#000000; stroke-width:2; stroke-opacity:0.1; fill:none" points="
  254.056,1224.73 2352.76,1224.73 
  "/>
<polyline clip-path="url(#clip782)" style="stroke:#000000; stroke-width:2; stroke-opacity:0.1; fill:none" points="
  254.056,1029.33 2352.76,1029.33 
  "/>
<polyline clip-path="url(#clip782)" style="stroke:#000000; stroke-width:2; stroke-opacity:0.1; fill:none" points="
  254.056,833.926 2352.76,833.926 
  "/>
<polyline clip-path="url(#clip782)" style="stroke:#000000; stroke-width:2; stroke-opacity:0.1; fill:none" points="
  254.056,638.524 2352.76,638.524 
  "/>
<polyline clip-path="url(#clip782)" style="stroke:#000000; stroke-width:2; stroke-opacity:0.1; fill:none" points="
  254.056,443.122 2352.76,443.122 
  "/>
<polyline clip-path="url(#clip782)" style="stroke:#000000; stroke-width:2; stroke-opacity:0.1; fill:none" points="
  254.056,247.72 2352.76,247.72 
  "/>
<polyline clip-path="url(#clip782)" style="stroke:#000000; stroke-width:2; stroke-opacity:0.1; fill:none" points="
  254.056,52.3176 2352.76,52.3176 
  "/>
<polyline clip-path="url(#clip780)" style="stroke:#000000; stroke-width:4; stroke-opacity:1; fill:none" points="
  254.056,1410.9 254.056,47.2441 
  "/>
<polyline clip-path="url(#clip780)" style="stroke:#000000; stroke-width:4; stroke-opacity:1; fill:none" points="
  254.056,1224.73 279.24,1224.73 
  "/>
<polyline clip-path="url(#clip780)" style="stroke:#000000; stroke-width:4; stroke-opacity:1; fill:none" points="
  254.056,1029.33 279.24,1029.33 
  "/>
<polyline clip-path="url(#clip780)" style="stroke:#000000; stroke-width:4; stroke-opacity:1; fill:none" points="
  254.056,833.926 279.24,833.926 
  "/>
<polyline clip-path="url(#clip780)" style="stroke:#000000; stroke-width:4; stroke-opacity:1; fill:none" points="
  254.056,638.524 279.24,638.524 
  "/>
<polyline clip-path="url(#clip780)" style="stroke:#000000; stroke-width:4; stroke-opacity:1; fill:none" points="
  254.056,443.122 279.24,443.122 
  "/>
<polyline clip-path="url(#clip780)" style="stroke:#000000; stroke-width:4; stroke-opacity:1; fill:none" points="
  254.056,247.72 279.24,247.72 
  "/>
<polyline clip-path="url(#clip780)" style="stroke:#000000; stroke-width:4; stroke-opacity:1; fill:none" points="
  254.056,52.3176 279.24,52.3176 
  "/>
<path clip-path="url(#clip780)" d="M 0 0 M143.126 1207.45 L161.482 1207.45 L161.482 1211.39 L147.408 1211.39 L147.408 1219.86 Q148.427 1219.51 149.445 1219.35 Q150.464 1219.16 151.482 1219.16 Q157.269 1219.16 160.649 1222.33 Q164.028 1225.51 164.028 1230.92 Q164.028 1236.5 160.556 1239.6 Q157.084 1242.68 150.765 1242.68 Q148.589 1242.68 146.32 1242.31 Q144.075 1241.94 141.667 1241.2 L141.667 1236.5 Q143.751 1237.64 145.973 1238.19 Q148.195 1238.75 150.672 1238.75 Q154.677 1238.75 157.015 1236.64 Q159.353 1234.53 159.353 1230.92 Q159.353 1227.31 157.015 1225.2 Q154.677 1223.1 150.672 1223.1 Q148.797 1223.1 146.922 1223.51 Q145.07 1223.93 143.126 1224.81 L143.126 1207.45 Z" fill="#000000" fill-rule="evenodd" fill-opacity="1" /><path clip-path="url(#clip780)" d="M 0 0 M179.098 1210.53 Q175.487 1210.53 173.658 1214.09 Q171.852 1217.64 171.852 1224.76 Q171.852 1231.87 173.658 1235.44 Q175.487 1238.98 179.098 1238.98 Q182.732 1238.98 184.538 1235.44 Q186.366 1231.87 186.366 1224.76 Q186.366 1217.64 184.538 1214.09 Q182.732 1210.53 179.098 1210.53 M179.098 1206.83 Q184.908 1206.83 187.963 1211.43 Q191.042 1216.02 191.042 1224.76 Q191.042 1233.49 187.963 1238.1 Q184.908 1242.68 179.098 1242.68 Q173.288 1242.68 170.209 1238.1 Q167.153 1233.49 167.153 1224.76 Q167.153 1216.02 170.209 1211.43 Q173.288 1206.83 179.098 1206.83 Z" fill="#000000" fill-rule="evenodd" fill-opacity="1" /><path clip-path="url(#clip780)" d="M 0 0 M206.112 1210.53 Q202.5 1210.53 200.672 1214.09 Q198.866 1217.64 198.866 1224.76 Q198.866 1231.87 200.672 1235.44 Q202.5 1238.98 206.112 1238.98 Q209.746 1238.98 211.551 1235.44 Q213.38 1231.87 213.38 1224.76 Q213.38 1217.64 211.551 1214.09 Q209.746 1210.53 206.112 1210.53 M206.112 1206.83 Q211.922 1206.83 214.977 1211.43 Q218.056 1216.02 218.056 1224.76 Q218.056 1233.49 214.977 1238.1 Q211.922 1242.68 206.112 1242.68 Q200.301 1242.68 197.223 1238.1 Q194.167 1233.49 194.167 1224.76 Q194.167 1216.02 197.223 1211.43 Q200.301 1206.83 206.112 1206.83 Z" fill="#000000" fill-rule="evenodd" fill-opacity="1" /><path clip-path="url(#clip780)" d="M 0 0 M117.107 1042.67 L124.746 1042.67 L124.746 1016.31 L116.436 1017.97 L116.436 1013.71 L124.7 1012.05 L129.376 1012.05 L129.376 1042.67 L137.015 1042.67 L137.015 1046.61 L117.107 1046.61 L117.107 1042.67 Z" fill="#000000" fill-rule="evenodd" fill-opacity="1" /><path clip-path="url(#clip780)" d="M 0 0 M152.084 1015.13 Q148.473 1015.13 146.644 1018.69 Q144.839 1022.23 144.839 1029.36 Q144.839 1036.47 146.644 1040.03 Q148.473 1043.58 152.084 1043.58 Q155.718 1043.58 157.524 1040.03 Q159.353 1036.47 159.353 1029.36 Q159.353 1022.23 157.524 1018.69 Q155.718 1015.13 152.084 1015.13 M152.084 1011.42 Q157.894 1011.42 160.95 1016.03 Q164.028 1020.61 164.028 1029.36 Q164.028 1038.09 160.95 1042.7 Q157.894 1047.28 152.084 1047.28 Q146.274 1047.28 143.195 1042.7 Q140.14 1038.09 140.14 1029.36 Q140.14 1020.61 143.195 1016.03 Q146.274 1011.42 152.084 1011.42 Z" fill="#000000" fill-rule="evenodd" fill-opacity="1" /><path clip-path="url(#clip780)" d="M 0 0 M179.098 1015.13 Q175.487 1015.13 173.658 1018.69 Q171.852 1022.23 171.852 1029.36 Q171.852 1036.47 173.658 1040.03 Q175.487 1043.58 179.098 1043.58 Q182.732 1043.58 184.538 1040.03 Q186.366 1036.47 186.366 1029.36 Q186.366 1022.23 184.538 1018.69 Q182.732 1015.13 179.098 1015.13 M179.098 1011.42 Q184.908 1011.42 187.963 1016.03 Q191.042 1020.61 191.042 1029.36 Q191.042 1038.09 187.963 1042.7 Q184.908 1047.28 179.098 1047.28 Q173.288 1047.28 170.209 1042.7 Q167.153 1038.09 167.153 1029.36 Q167.153 1020.61 170.209 1016.03 Q173.288 1011.42 179.098 1011.42 Z" fill="#000000" fill-rule="evenodd" fill-opacity="1" /><path clip-path="url(#clip780)" d="M 0 0 M206.112 1015.13 Q202.5 1015.13 200.672 1018.69 Q198.866 1022.23 198.866 1029.36 Q198.866 1036.47 200.672 1040.03 Q202.5 1043.58 206.112 1043.58 Q209.746 1043.58 211.551 1040.03 Q213.38 1036.47 213.38 1029.36 Q213.38 1022.23 211.551 1018.69 Q209.746 1015.13 206.112 1015.13 M206.112 1011.42 Q211.922 1011.42 214.977 1016.03 Q218.056 1020.61 218.056 1029.36 Q218.056 1038.09 214.977 1042.7 Q211.922 1047.28 206.112 1047.28 Q200.301 1047.28 197.223 1042.7 Q194.167 1038.09 194.167 1029.36 Q194.167 1020.61 197.223 1016.03 Q200.301 1011.42 206.112 1011.42 Z" fill="#000000" fill-rule="evenodd" fill-opacity="1" /><path clip-path="url(#clip780)" d="M 0 0 M118.103 847.271 L125.742 847.271 L125.742 820.905 L117.431 822.572 L117.431 818.313 L125.695 816.646 L130.371 816.646 L130.371 847.271 L138.01 847.271 L138.01 851.206 L118.103 851.206 L118.103 847.271 Z" fill="#000000" fill-rule="evenodd" fill-opacity="1" /><path clip-path="url(#clip780)" d="M 0 0 M143.126 816.646 L161.482 816.646 L161.482 820.581 L147.408 820.581 L147.408 829.053 Q148.427 828.706 149.445 828.544 Q150.464 828.359 151.482 828.359 Q157.269 828.359 160.649 831.53 Q164.028 834.702 164.028 840.118 Q164.028 845.697 160.556 848.799 Q157.084 851.877 150.765 851.877 Q148.589 851.877 146.32 851.507 Q144.075 851.137 141.667 850.396 L141.667 845.697 Q143.751 846.831 145.973 847.387 Q148.195 847.942 150.672 847.942 Q154.677 847.942 157.015 845.836 Q159.353 843.729 159.353 840.118 Q159.353 836.507 157.015 834.401 Q154.677 832.294 150.672 832.294 Q148.797 832.294 146.922 832.711 Q145.07 833.127 143.126 834.007 L143.126 816.646 Z" fill="#000000" fill-rule="evenodd" fill-opacity="1" /><path clip-path="url(#clip780)" d="M 0 0 M179.098 819.725 Q175.487 819.725 173.658 823.29 Q171.852 826.831 171.852 833.961 Q171.852 841.067 173.658 844.632 Q175.487 848.174 179.098 848.174 Q182.732 848.174 184.538 844.632 Q186.366 841.067 186.366 833.961 Q186.366 826.831 184.538 823.29 Q182.732 819.725 179.098 819.725 M179.098 816.021 Q184.908 816.021 187.963 820.628 Q191.042 825.211 191.042 833.961 Q191.042 842.688 187.963 847.294 Q184.908 851.877 179.098 851.877 Q173.288 851.877 170.209 847.294 Q167.153 842.688 167.153 833.961 Q167.153 825.211 170.209 820.628 Q173.288 816.021 179.098 816.021 Z" fill="#000000" fill-rule="evenodd" fill-opacity="1" /><path clip-path="url(#clip780)" d="M 0 0 M206.112 819.725 Q202.5 819.725 200.672 823.29 Q198.866 826.831 198.866 833.961 Q198.866 841.067 200.672 844.632 Q202.5 848.174 206.112 848.174 Q209.746 848.174 211.551 844.632 Q213.38 841.067 213.38 833.961 Q213.38 826.831 211.551 823.29 Q209.746 819.725 206.112 819.725 M206.112 816.021 Q211.922 816.021 214.977 820.628 Q218.056 825.211 218.056 833.961 Q218.056 842.688 214.977 847.294 Q211.922 851.877 206.112 851.877 Q200.301 851.877 197.223 847.294 Q194.167 842.688 194.167 833.961 Q194.167 825.211 197.223 820.628 Q200.301 816.021 206.112 816.021 Z" fill="#000000" fill-rule="evenodd" fill-opacity="1" /><path clip-path="url(#clip780)" d="M 0 0 M120.695 651.869 L137.015 651.869 L137.015 655.804 L115.07 655.804 L115.07 651.869 Q117.732 649.114 122.316 644.485 Q126.922 639.832 128.103 638.489 Q130.348 635.966 131.228 634.23 Q132.13 632.471 132.13 630.781 Q132.13 628.026 130.186 626.29 Q128.265 624.554 125.163 624.554 Q122.964 624.554 120.51 625.318 Q118.08 626.082 115.302 627.633 L115.302 622.911 Q118.126 621.776 120.58 621.198 Q123.033 620.619 125.07 620.619 Q130.441 620.619 133.635 623.304 Q136.829 625.989 136.829 630.48 Q136.829 632.61 136.019 634.531 Q135.232 636.429 133.126 639.022 Q132.547 639.693 129.445 642.91 Q126.343 646.105 120.695 651.869 Z" fill="#000000" fill-rule="evenodd" fill-opacity="1" /><path clip-path="url(#clip780)" d="M 0 0 M152.084 624.323 Q148.473 624.323 146.644 627.887 Q144.839 631.429 144.839 638.559 Q144.839 645.665 146.644 649.23 Q148.473 652.772 152.084 652.772 Q155.718 652.772 157.524 649.23 Q159.353 645.665 159.353 638.559 Q159.353 631.429 157.524 627.887 Q155.718 624.323 152.084 624.323 M152.084 620.619 Q157.894 620.619 160.95 625.225 Q164.028 629.809 164.028 638.559 Q164.028 647.285 160.95 651.892 Q157.894 656.475 152.084 656.475 Q146.274 656.475 143.195 651.892 Q140.14 647.285 140.14 638.559 Q140.14 629.809 143.195 625.225 Q146.274 620.619 152.084 620.619 Z" fill="#000000" fill-rule="evenodd" fill-opacity="1" /><path clip-path="url(#clip780)" d="M 0 0 M179.098 624.323 Q175.487 624.323 173.658 627.887 Q171.852 631.429 171.852 638.559 Q171.852 645.665 173.658 649.23 Q175.487 652.772 179.098 652.772 Q182.732 652.772 184.538 649.23 Q186.366 645.665 186.366 638.559 Q186.366 631.429 184.538 627.887 Q182.732 624.323 179.098 624.323 M179.098 620.619 Q184.908 620.619 187.963 625.225 Q191.042 629.809 191.042 638.559 Q191.042 647.285 187.963 651.892 Q184.908 656.475 179.098 656.475 Q173.288 656.475 170.209 651.892 Q167.153 647.285 167.153 638.559 Q167.153 629.809 170.209 625.225 Q173.288 620.619 179.098 620.619 Z" fill="#000000" fill-rule="evenodd" fill-opacity="1" /><path clip-path="url(#clip780)" d="M 0 0 M206.112 624.323 Q202.5 624.323 200.672 627.887 Q198.866 631.429 198.866 638.559 Q198.866 645.665 200.672 649.23 Q202.5 652.772 206.112 652.772 Q209.746 652.772 211.551 649.23 Q213.38 645.665 213.38 638.559 Q213.38 631.429 211.551 627.887 Q209.746 624.323 206.112 624.323 M206.112 620.619 Q211.922 620.619 214.977 625.225 Q218.056 629.809 218.056 638.559 Q218.056 647.285 214.977 651.892 Q211.922 656.475 206.112 656.475 Q200.301 656.475 197.223 651.892 Q194.167 647.285 194.167 638.559 Q194.167 629.809 197.223 625.225 Q200.301 620.619 206.112 620.619 Z" fill="#000000" fill-rule="evenodd" fill-opacity="1" /><path clip-path="url(#clip780)" d="M 0 0 M121.691 456.467 L138.01 456.467 L138.01 460.402 L116.066 460.402 L116.066 456.467 Q118.728 453.712 123.311 449.082 Q127.917 444.43 129.098 443.087 Q131.343 440.564 132.223 438.828 Q133.126 437.069 133.126 435.379 Q133.126 432.624 131.181 430.888 Q129.26 429.152 126.158 429.152 Q123.959 429.152 121.505 429.916 Q119.075 430.68 116.297 432.231 L116.297 427.508 Q119.121 426.374 121.575 425.796 Q124.029 425.217 126.066 425.217 Q131.436 425.217 134.63 427.902 Q137.825 430.587 137.825 435.078 Q137.825 437.208 137.015 439.129 Q136.228 441.027 134.121 443.62 Q133.542 444.291 130.441 447.508 Q127.339 450.703 121.691 456.467 Z" fill="#000000" fill-rule="evenodd" fill-opacity="1" /><path clip-path="url(#clip780)" d="M 0 0 M143.126 425.842 L161.482 425.842 L161.482 429.777 L147.408 429.777 L147.408 438.249 Q148.427 437.902 149.445 437.74 Q150.464 437.555 151.482 437.555 Q157.269 437.555 160.649 440.726 Q164.028 443.897 164.028 449.314 Q164.028 454.893 160.556 457.994 Q157.084 461.073 150.765 461.073 Q148.589 461.073 146.32 460.703 Q144.075 460.332 141.667 459.592 L141.667 454.893 Q143.751 456.027 145.973 456.582 Q148.195 457.138 150.672 457.138 Q154.677 457.138 157.015 455.031 Q159.353 452.925 159.353 449.314 Q159.353 445.703 157.015 443.596 Q154.677 441.49 150.672 441.49 Q148.797 441.49 146.922 441.907 Q145.07 442.323 143.126 443.203 L143.126 425.842 Z" fill="#000000" fill-rule="evenodd" fill-opacity="1" /><path clip-path="url(#clip780)" d="M 0 0 M179.098 428.921 Q175.487 428.921 173.658 432.485 Q171.852 436.027 171.852 443.157 Q171.852 450.263 173.658 453.828 Q175.487 457.369 179.098 457.369 Q182.732 457.369 184.538 453.828 Q186.366 450.263 186.366 443.157 Q186.366 436.027 184.538 432.485 Q182.732 428.921 179.098 428.921 M179.098 425.217 Q184.908 425.217 187.963 429.823 Q191.042 434.407 191.042 443.157 Q191.042 451.883 187.963 456.49 Q184.908 461.073 179.098 461.073 Q173.288 461.073 170.209 456.49 Q167.153 451.883 167.153 443.157 Q167.153 434.407 170.209 429.823 Q173.288 425.217 179.098 425.217 Z" fill="#000000" fill-rule="evenodd" fill-opacity="1" /><path clip-path="url(#clip780)" d="M 0 0 M206.112 428.921 Q202.5 428.921 200.672 432.485 Q198.866 436.027 198.866 443.157 Q198.866 450.263 200.672 453.828 Q202.5 457.369 206.112 457.369 Q209.746 457.369 211.551 453.828 Q213.38 450.263 213.38 443.157 Q213.38 436.027 211.551 432.485 Q209.746 428.921 206.112 428.921 M206.112 425.217 Q211.922 425.217 214.977 429.823 Q218.056 434.407 218.056 443.157 Q218.056 451.883 214.977 456.49 Q211.922 461.073 206.112 461.073 Q200.301 461.073 197.223 456.49 Q194.167 451.883 194.167 443.157 Q194.167 434.407 197.223 429.823 Q200.301 425.217 206.112 425.217 Z" fill="#000000" fill-rule="evenodd" fill-opacity="1" /><path clip-path="url(#clip780)" d="M 0 0 M129.885 246.366 Q133.242 247.083 135.117 249.352 Q137.015 251.62 137.015 254.953 Q137.015 260.069 133.496 262.87 Q129.978 265.671 123.496 265.671 Q121.32 265.671 119.006 265.231 Q116.714 264.815 114.26 263.958 L114.26 259.444 Q116.205 260.578 118.519 261.157 Q120.834 261.736 123.357 261.736 Q127.755 261.736 130.047 260 Q132.362 258.264 132.362 254.953 Q132.362 251.898 130.209 250.185 Q128.08 248.449 124.26 248.449 L120.232 248.449 L120.232 244.606 L124.445 244.606 Q127.894 244.606 129.723 243.241 Q131.552 241.852 131.552 239.259 Q131.552 236.597 129.654 235.185 Q127.779 233.75 124.26 233.75 Q122.339 233.75 120.14 234.167 Q117.941 234.583 115.302 235.463 L115.302 231.296 Q117.964 230.555 120.279 230.185 Q122.617 229.815 124.677 229.815 Q130.001 229.815 133.103 232.245 Q136.204 234.653 136.204 238.773 Q136.204 241.643 134.561 243.634 Q132.917 245.602 129.885 246.366 Z" fill="#000000" fill-rule="evenodd" fill-opacity="1" /><path clip-path="url(#clip780)" d="M 0 0 M152.084 233.518 Q148.473 233.518 146.644 237.083 Q144.839 240.625 144.839 247.754 Q144.839 254.861 146.644 258.426 Q148.473 261.967 152.084 261.967 Q155.718 261.967 157.524 258.426 Q159.353 254.861 159.353 247.754 Q159.353 240.625 157.524 237.083 Q155.718 233.518 152.084 233.518 M152.084 229.815 Q157.894 229.815 160.95 234.421 Q164.028 239.004 164.028 247.754 Q164.028 256.481 160.95 261.088 Q157.894 265.671 152.084 265.671 Q146.274 265.671 143.195 261.088 Q140.14 256.481 140.14 247.754 Q140.14 239.004 143.195 234.421 Q146.274 229.815 152.084 229.815 Z" fill="#000000" fill-rule="evenodd" fill-opacity="1" /><path clip-path="url(#clip780)" d="M 0 0 M179.098 233.518 Q175.487 233.518 173.658 237.083 Q171.852 240.625 171.852 247.754 Q171.852 254.861 173.658 258.426 Q175.487 261.967 179.098 261.967 Q182.732 261.967 184.538 258.426 Q186.366 254.861 186.366 247.754 Q186.366 240.625 184.538 237.083 Q182.732 233.518 179.098 233.518 M179.098 229.815 Q184.908 229.815 187.963 234.421 Q191.042 239.004 191.042 247.754 Q191.042 256.481 187.963 261.088 Q184.908 265.671 179.098 265.671 Q173.288 265.671 170.209 261.088 Q167.153 256.481 167.153 247.754 Q167.153 239.004 170.209 234.421 Q173.288 229.815 179.098 229.815 Z" fill="#000000" fill-rule="evenodd" fill-opacity="1" /><path clip-path="url(#clip780)" d="M 0 0 M206.112 233.518 Q202.5 233.518 200.672 237.083 Q198.866 240.625 198.866 247.754 Q198.866 254.861 200.672 258.426 Q202.5 261.967 206.112 261.967 Q209.746 261.967 211.551 258.426 Q213.38 254.861 213.38 247.754 Q213.38 240.625 211.551 237.083 Q209.746 233.518 206.112 233.518 M206.112 229.815 Q211.922 229.815 214.977 234.421 Q218.056 239.004 218.056 247.754 Q218.056 256.481 214.977 261.088 Q211.922 265.671 206.112 265.671 Q200.301 265.671 197.223 261.088 Q194.167 256.481 194.167 247.754 Q194.167 239.004 197.223 234.421 Q200.301 229.815 206.112 229.815 Z" fill="#000000" fill-rule="evenodd" fill-opacity="1" /><path clip-path="url(#clip780)" d="M 0 0 M130.88 50.9634 Q134.237 51.681 136.112 53.9495 Q138.01 56.218 138.01 59.5514 Q138.01 64.6671 134.492 67.468 Q130.973 70.2689 124.492 70.2689 Q122.316 70.2689 120.001 69.8291 Q117.709 69.4124 115.256 68.5559 L115.256 64.0421 Q117.2 65.1763 119.515 65.755 Q121.83 66.3337 124.353 66.3337 Q128.751 66.3337 131.042 64.5976 Q133.357 62.8615 133.357 59.5514 Q133.357 56.4958 131.205 54.7829 Q129.075 53.0468 125.255 53.0468 L121.228 53.0468 L121.228 49.2042 L125.441 49.2042 Q128.89 49.2042 130.718 47.8385 Q132.547 46.4496 132.547 43.857 Q132.547 41.195 130.649 39.7829 Q128.774 38.3478 125.255 38.3478 Q123.334 38.3478 121.135 38.7644 Q118.936 39.1811 116.297 40.0607 L116.297 35.8941 Q118.959 35.1533 121.274 34.783 Q123.612 34.4126 125.672 34.4126 Q130.996 34.4126 134.098 36.8431 Q137.2 39.2505 137.2 43.3709 Q137.2 46.2412 135.556 48.232 Q133.913 50.1996 130.88 50.9634 Z" fill="#000000" fill-rule="evenodd" fill-opacity="1" /><path clip-path="url(#clip780)" d="M 0 0 M143.126 35.0376 L161.482 35.0376 L161.482 38.9728 L147.408 38.9728 L147.408 47.4449 Q148.427 47.0977 149.445 46.9357 Q150.464 46.7505 151.482 46.7505 Q157.269 46.7505 160.649 49.9218 Q164.028 53.0931 164.028 58.5097 Q164.028 64.0884 160.556 67.1902 Q157.084 70.2689 150.765 70.2689 Q148.589 70.2689 146.32 69.8985 Q144.075 69.5282 141.667 68.7874 L141.667 64.0884 Q143.751 65.2226 145.973 65.7782 Q148.195 66.3337 150.672 66.3337 Q154.677 66.3337 157.015 64.2273 Q159.353 62.1208 159.353 58.5097 Q159.353 54.8986 157.015 52.7921 Q154.677 50.6857 150.672 50.6857 Q148.797 50.6857 146.922 51.1023 Q145.07 51.519 143.126 52.3986 L143.126 35.0376 Z" fill="#000000" fill-rule="evenodd" fill-opacity="1" /><path clip-path="url(#clip780)" d="M 0 0 M179.098 38.1163 Q175.487 38.1163 173.658 41.6811 Q171.852 45.2227 171.852 52.3523 Q171.852 59.4588 173.658 63.0236 Q175.487 66.5652 179.098 66.5652 Q182.732 66.5652 184.538 63.0236 Q186.366 59.4588 186.366 52.3523 Q186.366 45.2227 184.538 41.6811 Q182.732 38.1163 179.098 38.1163 M179.098 34.4126 Q184.908 34.4126 187.963 39.0191 Q191.042 43.6024 191.042 52.3523 Q191.042 61.0791 187.963 65.6856 Q184.908 70.2689 179.098 70.2689 Q173.288 70.2689 170.209 65.6856 Q167.153 61.0791 167.153 52.3523 Q167.153 43.6024 170.209 39.0191 Q173.288 34.4126 179.098 34.4126 Z" fill="#000000" fill-rule="evenodd" fill-opacity="1" /><path clip-path="url(#clip780)" d="M 0 0 M206.112 38.1163 Q202.5 38.1163 200.672 41.6811 Q198.866 45.2227 198.866 52.3523 Q198.866 59.4588 200.672 63.0236 Q202.5 66.5652 206.112 66.5652 Q209.746 66.5652 211.551 63.0236 Q213.38 59.4588 213.38 52.3523 Q213.38 45.2227 211.551 41.6811 Q209.746 38.1163 206.112 38.1163 M206.112 34.4126 Q211.922 34.4126 214.977 39.0191 Q218.056 43.6024 218.056 52.3523 Q218.056 61.0791 214.977 65.6856 Q211.922 70.2689 206.112 70.2689 Q200.301 70.2689 197.223 65.6856 Q194.167 61.0791 194.167 52.3523 Q194.167 43.6024 197.223 39.0191 Q200.301 34.4126 206.112 34.4126 Z" fill="#000000" fill-rule="evenodd" fill-opacity="1" /><path clip-path="url(#clip780)" d="M 0 0 M59.1993 815.533 Q55.2526 813.336 53.3747 810.281 Q51.4968 807.225 51.4968 803.088 Q51.4968 797.518 55.4117 794.494 Q59.2948 791.47 66.4881 791.47 L88.0042 791.47 L88.0042 797.358 L66.679 797.358 Q61.5546 797.358 59.072 799.173 Q56.5894 800.987 56.5894 804.711 Q56.5894 809.262 59.6131 811.904 Q62.6368 814.546 67.8567 814.546 L88.0042 814.546 L88.0042 820.434 L66.679 820.434 Q61.5228 820.434 59.072 822.248 Q56.5894 824.063 56.5894 827.85 Q56.5894 832.338 59.6449 834.98 Q62.6686 837.622 67.8567 837.622 L88.0042 837.622 L88.0042 843.51 L52.3562 843.51 L52.3562 837.622 L57.8944 837.622 Q54.616 835.616 53.0564 832.815 Q51.4968 830.015 51.4968 826.163 Q51.4968 822.28 53.4702 819.575 Q55.4436 816.838 59.1993 815.533 Z" fill="#000000" fill-rule="evenodd" fill-opacity="1" /><path clip-path="url(#clip780)" d="M 0 0 M52.3562 785.327 L52.3562 779.471 L88.0042 779.471 L88.0042 785.327 L52.3562 785.327 M38.479 785.327 L38.479 779.471 L45.895 779.471 L45.895 785.327 L38.479 785.327 Z" fill="#000000" fill-rule="evenodd" fill-opacity="1" /><path clip-path="url(#clip780)" d="M 0 0 M66.4881 743.696 L88.0042 743.696 L88.0042 749.552 L66.679 749.552 Q61.6183 749.552 59.1038 751.525 Q56.5894 753.499 56.5894 757.446 Q56.5894 762.188 59.6131 764.925 Q62.6368 767.662 67.8567 767.662 L88.0042 767.662 L88.0042 773.551 L52.3562 773.551 L52.3562 767.662 L57.8944 767.662 Q54.6797 765.562 53.0883 762.729 Q51.4968 759.864 51.4968 756.141 Q51.4968 749.998 55.3163 746.847 Q59.1038 743.696 66.4881 743.696 Z" fill="#000000" fill-rule="evenodd" fill-opacity="1" /><path clip-path="url(#clip780)" d="M 0 0 M98.8259 710.467 L103.377 710.467 L103.377 744.332 L98.8259 744.332 L98.8259 710.467 Z" fill="#000000" fill-rule="evenodd" fill-opacity="1" /><path clip-path="url(#clip780)" d="M 0 0 M57.7671 680.866 L38.479 680.866 L38.479 675.01 L88.0042 675.01 L88.0042 680.866 L82.657 680.866 Q85.8398 682.712 87.3994 685.545 Q88.9272 688.346 88.9272 692.292 Q88.9272 698.754 83.771 702.828 Q78.6147 706.87 70.212 706.87 Q61.8093 706.87 56.6531 702.828 Q51.4968 698.754 51.4968 692.292 Q51.4968 688.346 53.0564 685.545 Q54.5842 682.712 57.7671 680.866 M70.212 700.823 Q76.6732 700.823 80.3653 698.181 Q84.0256 695.507 84.0256 690.86 Q84.0256 686.213 80.3653 683.54 Q76.6732 680.866 70.212 680.866 Q63.7508 680.866 60.0905 683.54 Q56.3984 686.213 56.3984 690.86 Q56.3984 695.507 60.0905 698.181 Q63.7508 700.823 70.212 700.823 Z" fill="#000000" fill-rule="evenodd" fill-opacity="1" /><path clip-path="url(#clip780)" d="M 0 0 M52.3562 668.867 L52.3562 663.01 L88.0042 663.01 L88.0042 668.867 L52.3562 668.867 M38.479 668.867 L38.479 663.01 L45.895 663.01 L45.895 668.867 L38.479 668.867 Z" fill="#000000" fill-rule="evenodd" fill-opacity="1" /><path clip-path="url(#clip780)" d="M 0 0 M38.479 638.821 L43.3487 638.821 L43.3487 644.422 Q43.3487 647.573 44.6219 648.815 Q45.895 650.024 49.2052 650.024 L52.3562 650.024 L52.3562 640.38 L56.9077 640.38 L56.9077 650.024 L88.0042 650.024 L88.0042 655.912 L56.9077 655.912 L56.9077 661.514 L52.3562 661.514 L52.3562 655.912 L49.8736 655.912 Q43.9216 655.912 41.2162 653.143 Q38.479 650.374 38.479 644.359 L38.479 638.821 Z" fill="#000000" fill-rule="evenodd" fill-opacity="1" /><path clip-path="url(#clip780)" d="M 0 0 M38.479 614.631 L43.3487 614.631 L43.3487 620.233 Q43.3487 623.384 44.6219 624.625 Q45.895 625.835 49.2052 625.835 L52.3562 625.835 L52.3562 616.19 L56.9077 616.19 L56.9077 625.835 L88.0042 625.835 L88.0042 631.723 L56.9077 631.723 L56.9077 637.325 L52.3562 637.325 L52.3562 631.723 L49.8736 631.723 Q43.9216 631.723 41.2162 628.954 Q38.479 626.185 38.479 620.169 L38.479 614.631 Z" fill="#000000" fill-rule="evenodd" fill-opacity="1" /><polyline clip-path="url(#clip782)" style="stroke:#009af9; stroke-width:20; stroke-opacity:1; fill:none" stroke-dasharray="80, 50" points="
  313.453,85.838 395.83,92.6202 465.479,99.3839 525.812,106.129 579.029,112.856 626.634,372.603 669.697,126.254 709.011,384.529 745.176,139.579 778.66,396.382 
  809.833,623.185 838.993,408.16 866.384,166.36 892.21,638.616 916.639,180.674 939.814,837.582 961.859,653.882 982.878,443.052 1022.19,854.881 1040.64,1015.8 
  1058.36,465.944 1075.41,683.914 1091.84,871.884 1123.01,1157.83 1152.17,888.591 1166.08,713.281 1179.57,511.367 1192.66,1263.67 1205.39,1173.94 1229.82,535.388 
  1241.56,741.984 1253,1333.33 1275.04,1276.74 1296.06,936.942 1306.21,1366.81 1335.37,1341.72 1344.69,1288.9 1353.82,1369.59 1362.76,797.91 1371.54,967.699 
  1388.59,1368.87 1396.88,1371.91 1405.02,1348.92 1413.02,827.075 1436.19,1370.38 1458.24,1369.43 1465.35,1354.94 1472.36,1370.39 1479.26,1370.23 1492.75,1025.99 
  1505.84,1371.17 1518.57,1370.04 1537.02,1369.88 1543,1055.75 1548.91,1366.44 1554.74,1370.66 1566.18,1371.76 1571.79,1369.29 1588.22,1370.61 1593.57,1370.37 
  1609.24,1367.1 1619.39,1371.59 1624.39,1370.21 1643.82,1370.15 1648.55,1372.27 1657.87,1369.94 1662.46,1369.95 1667,1369.57 1675.94,1369.09 1684.72,1368.89 
  1689.04,1371.28 1701.77,1370.05 1710.06,1370.19 1718.2,1371.54 1726.2,1370.02 1737.94,1369.27 1745.59,1367.37 1749.37,1372.3 1753.12,1369.34 1771.42,1371.06 
  1778.53,1368.39 1785.54,1370.9 1792.44,1368.88 1795.85,1368.44 1802.59,1370.54 1805.93,1369.98 1819.02,1372.1 1828.6,1371.34 1831.75,1369.73 1850.2,1368.7 
  1856.18,1370.67 1859.14,1369.85 1862.09,1371.59 1867.92,1371.11 1879.36,1370.42 1884.97,1369.7 1893.26,1368.55 1901.4,1370.51 1904.08,1371.99 1906.75,1369.27 
  1909.4,1369.13 1922.42,1370.6 1932.57,1370.3 1937.57,1371.13 1949.81,1370.39 1957,1370.25 1961.73,1371.61 1968.74,1369.04 1971.05,1367.75 1975.64,1369.44 
  1980.18,1370.25 1989.13,1371.35 1997.9,1369.97 2000.07,1370.28 2002.22,1369.17 2014.95,1369.36 2023.24,1371.33 2025.29,1369.17 2031.38,1369.2 2033.4,1369.57 
  2039.38,1368.67 2051.12,1367.77 2058.77,1368.61 2062.56,1369.31 2075.55,1369.68 2084.6,1369.46 2089.95,1367.6 2091.72,1368.13 2098.72,1368.64 2109.03,1368.25 
  2115.77,1369.09 2119.11,1367.12 2132.2,1367.32 2140.2,1366.31 2144.93,1367.82 2146.5,1368.41 2163.38,1365.3 2169.36,1367.3 2172.32,1367.75 2192.54,1367.62 
  2196.75,1365.18 2198.15,1364.85 2219.93,1364.26 2222.58,1362.69 2245.75,1361.91 2247.01,1362.18 2270.18,1361.97 2293.36,1363.22 
  "/>
<path clip-path="url(#clip780)" d="
M1998.59 213.659 L2282.8 213.659 L2282.8 92.6992 L1998.59 92.6992  Z
  " fill="#ffffff" fill-rule="evenodd" fill-opacity="1"/>
<polyline clip-path="url(#clip780)" style="stroke:#000000; stroke-width:4; stroke-opacity:1; fill:none" points="
  1998.59,213.659 2282.8,213.659 2282.8,92.6992 1998.59,92.6992 1998.59,213.659 
  "/>
<polyline clip-path="url(#clip780)" style="stroke:#009af9; stroke-width:4; stroke-opacity:1; fill:none" stroke-dasharray="16, 10" points="
  2021.91,153.179 2161.82,153.179 
  "/>
<path clip-path="url(#clip780)" d="M 0 0 M2198.99 172.867 Q2197.18 177.496 2195.47 178.908 Q2193.75 180.32 2190.88 180.32 L2187.48 180.32 L2187.48 176.755 L2189.98 176.755 Q2191.74 176.755 2192.71 175.922 Q2193.68 175.089 2194.87 171.987 L2195.63 170.043 L2185.14 144.533 L2189.66 144.533 L2197.76 164.811 L2205.86 144.533 L2210.37 144.533 L2198.99 172.867 Z" fill="#000000" fill-rule="evenodd" fill-opacity="1" /><path clip-path="url(#clip780)" d="M 0 0 M2216.25 166.524 L2223.89 166.524 L2223.89 140.158 L2215.58 141.825 L2215.58 137.566 L2223.85 135.899 L2228.52 135.899 L2228.52 166.524 L2236.16 166.524 L2236.16 170.459 L2216.25 170.459 L2216.25 166.524 Z" fill="#000000" fill-rule="evenodd" fill-opacity="1" /></svg>
