<?xml version="1.0" encoding="utf-8"?>
<svg xmlns="http://www.w3.org/2000/svg" xmlns:xlink="http://www.w3.org/1999/xlink" width="600" height="400" viewBox="0 0 2400 1600">
<defs>
  <clipPath id="clip620">
    <rect x="0" y="0" width="2400" height="1600"/>
  </clipPath>
</defs>
<path clip-path="url(#clip620)" d="
M0 1600 L2400 1600 L2400 0 L0 0  Z
  " fill="#ffffff" fill-rule="evenodd" fill-opacity="1"/>
<defs>
  <clipPath id="clip621">
    <rect x="480" y="0" width="1681" height="1600"/>
  </clipPath>
</defs>
<path clip-path="url(#clip620)" d="
M211.579 1410.9 L2352.76 1410.9 L2352.76 47.2441 L211.579 47.2441  Z
  " fill="#ffffff" fill-rule="evenodd" fill-opacity="1"/>
<defs>
  <clipPath id="clip622">
    <rect x="211" y="47" width="2142" height="1365"/>
  </clipPath>
</defs>
<polyline clip-path="url(#clip622)" style="stroke:#000000; stroke-width:2; stroke-opacity:0.1; fill:none" points="
  272.179,1410.9 272.179,47.2441 
  "/>
<polyline clip-path="url(#clip622)" style="stroke:#000000; stroke-width:2; stroke-opacity:0.1; fill:none" points="
  608.842,1410.9 608.842,47.2441 
  "/>
<polyline clip-path="url(#clip622)" style="stroke:#000000; stroke-width:2; stroke-opacity:0.1; fill:none" points="
  945.505,1410.9 945.505,47.2441 
  "/>
<polyline clip-path="url(#clip622)" style="stroke:#000000; stroke-width:2; stroke-opacity:0.1; fill:none" points="
  1282.17,1410.9 1282.17,47.2441 
  "/>
<polyline clip-path="url(#clip622)" style="stroke:#000000; stroke-width:2; stroke-opacity:0.1; fill:none" points="
  1618.83,1410.9 1618.83,47.2441 
  "/>
<polyline clip-path="url(#clip622)" style="stroke:#000000; stroke-width:2; stroke-opacity:0.1; fill:none" points="
  1955.49,1410.9 1955.49,47.2441 
  "/>
<polyline clip-path="url(#clip622)" style="stroke:#000000; stroke-width:2; stroke-opacity:0.1; fill:none" points="
  2292.16,1410.9 2292.16,47.2441 
  "/>
<polyline clip-path="url(#clip620)" style="stroke:#000000; stroke-width:4; stroke-opacity:1; fill:none" points="
  211.579,1410.9 2352.76,1410.9 
  "/>
<polyline clip-path="url(#clip620)" style="stroke:#000000; stroke-width:4; stroke-opacity:1; fill:none" points="
  272.179,1410.9 272.179,1394.53 
  "/>
<polyline clip-path="url(#clip620)" style="stroke:#000000; stroke-width:4; stroke-opacity:1; fill:none" points="
  608.842,1410.9 608.842,1394.53 
  "/>
<polyline clip-path="url(#clip620)" style="stroke:#000000; stroke-width:4; stroke-opacity:1; fill:none" points="
  945.505,1410.9 945.505,1394.53 
  "/>
<polyline clip-path="url(#clip620)" style="stroke:#000000; stroke-width:4; stroke-opacity:1; fill:none" points="
  1282.17,1410.9 1282.17,1394.53 
  "/>
<polyline clip-path="url(#clip620)" style="stroke:#000000; stroke-width:4; stroke-opacity:1; fill:none" points="
  1618.83,1410.9 1618.83,1394.53 
  "/>
<polyline clip-path="url(#clip620)" style="stroke:#000000; stroke-width:4; stroke-opacity:1; fill:none" points="
  1955.49,1410.9 1955.49,1394.53 
  "/>
<polyline clip-path="url(#clip620)" style="stroke:#000000; stroke-width:4; stroke-opacity:1; fill:none" points="
  2292.16,1410.9 2292.16,1394.53 
  "/>
<path clip-path="url(#clip620)" d="M 0 0 M225.958 1489.17 L233.597 1489.17 L233.597 1462.8 L225.287 1464.47 L225.287 1460.21 L233.55 1458.54 L238.226 1458.54 L238.226 1489.17 L245.865 1489.17 L245.865 1493.1 L225.958 1493.1 L225.958 1489.17 Z" fill="#000000" fill-rule="evenodd" fill-opacity="1" /><path clip-path="url(#clip620)" d="M 0 0 M260.934 1461.62 Q257.323 1461.62 255.495 1465.19 Q253.689 1468.73 253.689 1475.86 Q253.689 1482.97 255.495 1486.53 Q257.323 1490.07 260.934 1490.07 Q264.569 1490.07 266.374 1486.53 Q268.203 1482.97 268.203 1475.86 Q268.203 1468.73 266.374 1465.19 Q264.569 1461.62 260.934 1461.62 M260.934 1457.92 Q266.745 1457.92 269.8 1462.53 Q272.879 1467.11 272.879 1475.86 Q272.879 1484.59 269.8 1489.19 Q266.745 1493.78 260.934 1493.78 Q255.124 1493.78 252.046 1489.19 Q248.99 1484.59 248.99 1475.86 Q248.99 1467.11 252.046 1462.53 Q255.124 1457.92 260.934 1457.92 Z" fill="#000000" fill-rule="evenodd" fill-opacity="1" /><path clip-path="url(#clip620)" d="M 0 0 M272.879 1452.02 L296.99 1452.02 L296.99 1455.22 L272.879 1455.22 L272.879 1452.02 Z" fill="#000000" fill-rule="evenodd" fill-opacity="1" /><path clip-path="url(#clip620)" d="M 0 0 M309.704 1450.14 Q307.147 1450.14 305.642 1451.89 Q304.156 1453.64 304.156 1456.68 Q304.156 1459.71 305.642 1461.48 Q307.147 1463.23 309.704 1463.23 Q312.262 1463.23 313.748 1461.48 Q315.253 1459.71 315.253 1456.68 Q315.253 1453.64 313.748 1451.89 Q312.262 1450.14 309.704 1450.14 M317.246 1438.23 L317.246 1441.69 Q315.817 1441.02 314.35 1440.66 Q312.902 1440.3 311.472 1440.3 Q307.711 1440.3 305.717 1442.84 Q303.742 1445.38 303.46 1450.52 Q304.57 1448.88 306.244 1448.01 Q307.918 1447.13 309.93 1447.13 Q314.162 1447.13 316.607 1449.71 Q319.071 1452.26 319.071 1456.68 Q319.071 1461.01 316.513 1463.62 Q313.955 1466.24 309.704 1466.24 Q304.833 1466.24 302.257 1462.51 Q299.68 1458.77 299.68 1451.68 Q299.68 1445.02 302.84 1441.07 Q305.999 1437.11 311.322 1437.11 Q312.751 1437.11 314.2 1437.39 Q315.667 1437.67 317.246 1438.23 Z" fill="#000000" fill-rule="evenodd" fill-opacity="1" /><path clip-path="url(#clip620)" d="M 0 0 M563.091 1489.17 L570.73 1489.17 L570.73 1462.8 L562.42 1464.47 L562.42 1460.21 L570.684 1458.54 L575.359 1458.54 L575.359 1489.17 L582.998 1489.17 L582.998 1493.1 L563.091 1493.1 L563.091 1489.17 Z" fill="#000000" fill-rule="evenodd" fill-opacity="1" /><path clip-path="url(#clip620)" d="M 0 0 M598.068 1461.62 Q594.457 1461.62 592.628 1465.19 Q590.822 1468.73 590.822 1475.86 Q590.822 1482.97 592.628 1486.53 Q594.457 1490.07 598.068 1490.07 Q601.702 1490.07 603.507 1486.53 Q605.336 1482.97 605.336 1475.86 Q605.336 1468.73 603.507 1465.19 Q601.702 1461.62 598.068 1461.62 M598.068 1457.92 Q603.878 1457.92 606.933 1462.53 Q610.012 1467.11 610.012 1475.86 Q610.012 1484.59 606.933 1489.19 Q603.878 1493.78 598.068 1493.78 Q592.257 1493.78 589.179 1489.19 Q586.123 1484.59 586.123 1475.86 Q586.123 1467.11 589.179 1462.53 Q592.257 1457.92 598.068 1457.92 Z" fill="#000000" fill-rule="evenodd" fill-opacity="1" /><path clip-path="url(#clip620)" d="M 0 0 M610.012 1452.02 L634.124 1452.02 L634.124 1455.22 L610.012 1455.22 L610.012 1452.02 Z" fill="#000000" fill-rule="evenodd" fill-opacity="1" /><path clip-path="url(#clip620)" d="M 0 0 M638.28 1437.61 L653.195 1437.61 L653.195 1440.81 L641.76 1440.81 L641.76 1447.69 Q642.587 1447.41 643.415 1447.28 Q644.242 1447.13 645.07 1447.13 Q649.772 1447.13 652.518 1449.71 Q655.263 1452.28 655.263 1456.68 Q655.263 1461.22 652.442 1463.74 Q649.621 1466.24 644.487 1466.24 Q642.719 1466.24 640.876 1465.94 Q639.051 1465.64 637.095 1465.04 L637.095 1461.22 Q638.788 1462.14 640.593 1462.59 Q642.399 1463.04 644.411 1463.04 Q647.665 1463.04 649.565 1461.33 Q651.464 1459.62 651.464 1456.68 Q651.464 1453.75 649.565 1452.04 Q647.665 1450.33 644.411 1450.33 Q642.888 1450.33 641.365 1450.67 Q639.86 1451 638.28 1451.72 L638.28 1437.61 Z" fill="#000000" fill-rule="evenodd" fill-opacity="1" /><path clip-path="url(#clip620)" d="M 0 0 M899.152 1489.17 L906.791 1489.17 L906.791 1462.8 L898.481 1464.47 L898.481 1460.21 L906.745 1458.54 L911.421 1458.54 L911.421 1489.17 L919.059 1489.17 L919.059 1493.1 L899.152 1493.1 L899.152 1489.17 Z" fill="#000000" fill-rule="evenodd" fill-opacity="1" /><path clip-path="url(#clip620)" d="M 0 0 M934.129 1461.62 Q930.518 1461.62 928.689 1465.19 Q926.883 1468.73 926.883 1475.86 Q926.883 1482.97 928.689 1486.53 Q930.518 1490.07 934.129 1490.07 Q937.763 1490.07 939.569 1486.53 Q941.397 1482.97 941.397 1475.86 Q941.397 1468.73 939.569 1465.19 Q937.763 1461.62 934.129 1461.62 M934.129 1457.92 Q939.939 1457.92 942.994 1462.53 Q946.073 1467.11 946.073 1475.86 Q946.073 1484.59 942.994 1489.19 Q939.939 1493.78 934.129 1493.78 Q928.319 1493.78 925.24 1489.19 Q922.184 1484.59 922.184 1475.86 Q922.184 1467.11 925.24 1462.53 Q928.319 1457.92 934.129 1457.92 Z" fill="#000000" fill-rule="evenodd" fill-opacity="1" /><path clip-path="url(#clip620)" d="M 0 0 M946.073 1452.02 L970.185 1452.02 L970.185 1455.22 L946.073 1455.22 L946.073 1452.02 Z" fill="#000000" fill-rule="evenodd" fill-opacity="1" /><path clip-path="url(#clip620)" d="M 0 0 M984.742 1440.92 L975.15 1455.91 L984.742 1455.91 L984.742 1440.92 M983.745 1437.61 L988.522 1437.61 L988.522 1455.91 L992.528 1455.91 L992.528 1459.07 L988.522 1459.07 L988.522 1465.69 L984.742 1465.69 L984.742 1459.07 L972.065 1459.07 L972.065 1455.41 L983.745 1437.61 Z" fill="#000000" fill-rule="evenodd" fill-opacity="1" /><path clip-path="url(#clip620)" d="M 0 0 M1236.28 1489.17 L1243.91 1489.17 L1243.91 1462.8 L1235.6 1464.47 L1235.6 1460.21 L1243.87 1458.54 L1248.54 1458.54 L1248.54 1489.17 L1256.18 1489.17 L1256.18 1493.1 L1236.28 1493.1 L1236.28 1489.17 Z" fill="#000000" fill-rule="evenodd" fill-opacity="1" /><path clip-path="url(#clip620)" d="M 0 0 M1271.25 1461.62 Q1267.64 1461.62 1265.81 1465.19 Q1264.01 1468.73 1264.01 1475.86 Q1264.01 1482.97 1265.81 1486.53 Q1267.64 1490.07 1271.25 1490.07 Q1274.89 1490.07 1276.69 1486.53 Q1278.52 1482.97 1278.52 1475.86 Q1278.52 1468.73 1276.69 1465.19 Q1274.89 1461.62 1271.25 1461.62 M1271.25 1457.92 Q1277.06 1457.92 1280.12 1462.53 Q1283.2 1467.11 1283.2 1475.86 Q1283.2 1484.59 1280.12 1489.19 Q1277.06 1493.78 1271.25 1493.78 Q1265.44 1493.78 1262.36 1489.19 Q1259.31 1484.59 1259.31 1475.86 Q1259.31 1467.11 1262.36 1462.53 Q1265.44 1457.92 1271.25 1457.92 Z" fill="#000000" fill-rule="evenodd" fill-opacity="1" /><path clip-path="url(#clip620)" d="M 0 0 M1283.2 1452.02 L1307.31 1452.02 L1307.31 1455.22 L1283.2 1455.22 L1283.2 1452.02 Z" fill="#000000" fill-rule="evenodd" fill-opacity="1" /><path clip-path="url(#clip620)" d="M 0 0 M1322.94 1450.55 Q1325.66 1451.14 1327.19 1452.98 Q1328.73 1454.82 1328.73 1457.53 Q1328.73 1461.69 1325.87 1463.96 Q1323.01 1466.24 1317.75 1466.24 Q1315.98 1466.24 1314.1 1465.88 Q1312.24 1465.54 1310.24 1464.85 L1310.24 1461.18 Q1311.82 1462.1 1313.7 1462.57 Q1315.58 1463.04 1317.63 1463.04 Q1321.21 1463.04 1323.07 1461.63 Q1324.95 1460.22 1324.95 1457.53 Q1324.95 1455.05 1323.2 1453.66 Q1321.47 1452.25 1318.37 1452.25 L1315.09 1452.25 L1315.09 1449.12 L1318.52 1449.12 Q1321.32 1449.12 1322.81 1448.01 Q1324.29 1446.89 1324.29 1444.78 Q1324.29 1442.62 1322.75 1441.47 Q1321.23 1440.3 1318.37 1440.3 Q1316.81 1440.3 1315.02 1440.64 Q1313.23 1440.98 1311.09 1441.69 L1311.09 1438.31 Q1313.25 1437.71 1315.13 1437.41 Q1317.03 1437.11 1318.71 1437.11 Q1323.03 1437.11 1325.55 1439.08 Q1328.07 1441.04 1328.07 1444.38 Q1328.07 1446.72 1326.74 1448.33 Q1325.4 1449.93 1322.94 1450.55 Z" fill="#000000" fill-rule="evenodd" fill-opacity="1" /><path clip-path="url(#clip620)" d="M 0 0 M1573.32 1489.17 L1580.96 1489.17 L1580.96 1462.8 L1572.65 1464.47 L1572.65 1460.21 L1580.92 1458.54 L1585.59 1458.54 L1585.59 1489.17 L1593.23 1489.17 L1593.23 1493.1 L1573.32 1493.1 L1573.32 1489.17 Z" fill="#000000" fill-rule="evenodd" fill-opacity="1" /><path clip-path="url(#clip620)" d="M 0 0 M1608.3 1461.62 Q1604.69 1461.62 1602.86 1465.19 Q1601.06 1468.73 1601.06 1475.86 Q1601.06 1482.97 1602.86 1486.53 Q1604.69 1490.07 1608.3 1490.07 Q1611.94 1490.07 1613.74 1486.53 Q1615.57 1482.97 1615.57 1475.86 Q1615.57 1468.73 1613.74 1465.19 Q1611.94 1461.62 1608.3 1461.62 M1608.3 1457.92 Q1614.11 1457.92 1617.17 1462.53 Q1620.25 1467.11 1620.25 1475.86 Q1620.25 1484.59 1617.17 1489.19 Q1614.11 1493.78 1608.3 1493.78 Q1602.49 1493.78 1599.41 1489.19 Q1596.36 1484.59 1596.36 1475.86 Q1596.36 1467.11 1599.41 1462.53 Q1602.49 1457.92 1608.3 1457.92 Z" fill="#000000" fill-rule="evenodd" fill-opacity="1" /><path clip-path="url(#clip620)" d="M 0 0 M1620.25 1452.02 L1644.36 1452.02 L1644.36 1455.22 L1620.25 1455.22 L1620.25 1452.02 Z" fill="#000000" fill-rule="evenodd" fill-opacity="1" /><path clip-path="url(#clip620)" d="M 0 0 M1651.75 1462.5 L1665.01 1462.5 L1665.01 1465.69 L1647.18 1465.69 L1647.18 1462.5 Q1649.34 1460.26 1653.06 1456.5 Q1656.81 1452.72 1657.77 1451.63 Q1659.59 1449.58 1660.31 1448.16 Q1661.04 1446.74 1661.04 1445.36 Q1661.04 1443.12 1659.46 1441.71 Q1657.9 1440.3 1655.38 1440.3 Q1653.59 1440.3 1651.6 1440.92 Q1649.62 1441.54 1647.37 1442.8 L1647.37 1438.97 Q1649.66 1438.05 1651.65 1437.58 Q1653.65 1437.11 1655.3 1437.11 Q1659.67 1437.11 1662.26 1439.29 Q1664.86 1441.47 1664.86 1445.12 Q1664.86 1446.85 1664.2 1448.41 Q1663.56 1449.95 1661.85 1452.06 Q1661.38 1452.6 1658.86 1455.22 Q1656.34 1457.81 1651.75 1462.5 Z" fill="#000000" fill-rule="evenodd" fill-opacity="1" /><path clip-path="url(#clip620)" d="M 0 0 M1909.84 1489.17 L1917.48 1489.17 L1917.48 1462.8 L1909.17 1464.47 L1909.17 1460.21 L1917.43 1458.54 L1922.11 1458.54 L1922.11 1489.17 L1929.74 1489.17 L1929.74 1493.1 L1909.84 1493.1 L1909.84 1489.17 Z" fill="#000000" fill-rule="evenodd" fill-opacity="1" /><path clip-path="url(#clip620)" d="M 0 0 M1944.81 1461.62 Q1941.2 1461.62 1939.37 1465.19 Q1937.57 1468.73 1937.57 1475.86 Q1937.57 1482.97 1939.37 1486.53 Q1941.2 1490.07 1944.81 1490.07 Q1948.45 1490.07 1950.25 1486.53 Q1952.08 1482.97 1952.08 1475.86 Q1952.08 1468.73 1950.25 1465.19 Q1948.45 1461.62 1944.81 1461.62 M1944.81 1457.92 Q1950.62 1457.92 1953.68 1462.53 Q1956.76 1467.11 1956.76 1475.86 Q1956.76 1484.59 1953.68 1489.19 Q1950.62 1493.78 1944.81 1493.78 Q1939 1493.78 1935.92 1489.19 Q1932.87 1484.59 1932.87 1475.86 Q1932.87 1467.11 1935.92 1462.53 Q1939 1457.92 1944.81 1457.92 Z" fill="#000000" fill-rule="evenodd" fill-opacity="1" /><path clip-path="url(#clip620)" d="M 0 0 M1956.76 1452.02 L1980.87 1452.02 L1980.87 1455.22 L1956.76 1455.22 L1956.76 1452.02 Z" fill="#000000" fill-rule="evenodd" fill-opacity="1" /><path clip-path="url(#clip620)" d="M 0 0 M1985.65 1462.5 L1991.85 1462.5 L1991.85 1441.07 L1985.1 1442.43 L1985.1 1438.97 L1991.82 1437.61 L1995.61 1437.61 L1995.61 1462.5 L2001.82 1462.5 L2001.82 1465.69 L1985.65 1465.69 L1985.65 1462.5 Z" fill="#000000" fill-rule="evenodd" fill-opacity="1" /><path clip-path="url(#clip620)" d="M 0 0 M2259.33 1489.17 L2266.97 1489.17 L2266.97 1462.8 L2258.66 1464.47 L2258.66 1460.21 L2266.92 1458.54 L2271.6 1458.54 L2271.6 1489.17 L2279.23 1489.17 L2279.23 1493.1 L2259.33 1493.1 L2259.33 1489.17 Z" fill="#000000" fill-rule="evenodd" fill-opacity="1" /><path clip-path="url(#clip620)" d="M 0 0 M2294.3 1461.62 Q2290.69 1461.62 2288.86 1465.19 Q2287.06 1468.73 2287.06 1475.86 Q2287.06 1482.97 2288.86 1486.53 Q2290.69 1490.07 2294.3 1490.07 Q2297.94 1490.07 2299.74 1486.53 Q2301.57 1482.97 2301.57 1475.86 Q2301.57 1468.73 2299.74 1465.19 Q2297.94 1461.62 2294.3 1461.62 M2294.3 1457.92 Q2300.11 1457.92 2303.17 1462.53 Q2306.25 1467.11 2306.25 1475.86 Q2306.25 1484.59 2303.17 1489.19 Q2300.11 1493.78 2294.3 1493.78 Q2288.49 1493.78 2285.41 1489.19 Q2282.36 1484.59 2282.36 1475.86 Q2282.36 1467.11 2285.41 1462.53 Q2288.49 1457.92 2294.3 1457.92 Z" fill="#000000" fill-rule="evenodd" fill-opacity="1" /><path clip-path="url(#clip620)" d="M 0 0 M2315.95 1440.11 Q2313.02 1440.11 2311.53 1443.01 Q2310.07 1445.89 2310.07 1451.68 Q2310.07 1457.46 2311.53 1460.35 Q2313.02 1463.23 2315.95 1463.23 Q2318.91 1463.23 2320.37 1460.35 Q2321.86 1457.46 2321.86 1451.68 Q2321.86 1445.89 2320.37 1443.01 Q2318.91 1440.11 2315.95 1440.11 M2315.95 1437.11 Q2320.67 1437.11 2323.16 1440.85 Q2325.66 1444.57 2325.66 1451.68 Q2325.66 1458.77 2323.16 1462.51 Q2320.67 1466.24 2315.95 1466.24 Q2311.23 1466.24 2308.73 1462.51 Q2306.25 1458.77 2306.25 1451.68 Q2306.25 1444.57 2308.73 1440.85 Q2311.23 1437.11 2315.95 1437.11 Z" fill="#000000" fill-rule="evenodd" fill-opacity="1" /><path clip-path="url(#clip620)" d="M 0 0 M1207.39 1512.66 L1213.27 1512.66 L1213.27 1541.91 L1230.75 1526.54 L1238.23 1526.54 L1219.32 1543.22 L1239.02 1562.19 L1231.39 1562.19 L1213.27 1544.78 L1213.27 1562.19 L1207.39 1562.19 L1207.39 1512.66 Z" fill="#000000" fill-rule="evenodd" fill-opacity="1" /><path clip-path="url(#clip620)" d="M 0 0 M1272.25 1573.01 L1272.25 1577.56 L1238.39 1577.56 L1238.39 1573.01 L1272.25 1573.01 Z" fill="#000000" fill-rule="evenodd" fill-opacity="1" /><path clip-path="url(#clip620)" d="M 0 0 M1292.21 1530.64 Q1287.5 1530.64 1284.76 1534.34 Q1282.02 1538 1282.02 1544.39 Q1282.02 1550.79 1284.73 1554.48 Q1287.47 1558.14 1292.21 1558.14 Q1296.89 1558.14 1299.63 1554.45 Q1302.36 1550.76 1302.36 1544.39 Q1302.36 1538.06 1299.63 1534.37 Q1296.89 1530.64 1292.21 1530.64 M1292.21 1525.68 Q1299.85 1525.68 1304.21 1530.64 Q1308.57 1535.61 1308.57 1544.39 Q1308.57 1553.15 1304.21 1558.14 Q1299.85 1563.11 1292.21 1563.11 Q1284.54 1563.11 1280.18 1558.14 Q1275.85 1553.15 1275.85 1544.39 Q1275.85 1535.61 1280.18 1530.64 Q1284.54 1525.68 1292.21 1525.68 Z" fill="#000000" fill-rule="evenodd" fill-opacity="1" /><path clip-path="url(#clip620)" d="M 0 0 M1332.76 1512.66 L1332.76 1517.53 L1327.16 1517.53 Q1324.01 1517.53 1322.76 1518.8 Q1321.56 1520.08 1321.56 1523.39 L1321.56 1526.54 L1331.2 1526.54 L1331.2 1531.09 L1321.56 1531.09 L1321.56 1562.19 L1315.67 1562.19 L1315.67 1531.09 L1310.07 1531.09 L1310.07 1526.54 L1315.67 1526.54 L1315.67 1524.05 Q1315.67 1518.1 1318.44 1515.4 Q1321.21 1512.66 1327.22 1512.66 L1332.76 1512.66 Z" fill="#000000" fill-rule="evenodd" fill-opacity="1" /><path clip-path="url(#clip620)" d="M 0 0 M1356.95 1512.66 L1356.95 1517.53 L1351.35 1517.53 Q1348.2 1517.53 1346.95 1518.8 Q1345.75 1520.08 1345.75 1523.39 L1345.75 1526.54 L1355.39 1526.54 L1355.39 1531.09 L1345.75 1531.09 L1345.75 1562.19 L1339.86 1562.19 L1339.86 1531.09 L1334.25 1531.09 L1334.25 1526.54 L1339.86 1526.54 L1339.86 1524.05 Q1339.86 1518.1 1342.63 1515.4 Q1345.39 1512.66 1351.41 1512.66 L1356.95 1512.66 Z" fill="#000000" fill-rule="evenodd" fill-opacity="1" /><polyline clip-path="url(#clip622)" style="stroke:#000000; stroke-width:2; stroke-opacity:0.1; fill:none" points="
  211.579,1272.52 2352.76,1272.52 
  "/>
<polyline clip-path="url(#clip622)" style="stroke:#000000; stroke-width:2; stroke-opacity:0.1; fill:none" points="
  211.579,1015.23 2352.76,1015.23 
  "/>
<polyline clip-path="url(#clip622)" style="stroke:#000000; stroke-width:2; stroke-opacity:0.1; fill:none" points="
  211.579,757.936 2352.76,757.936 
  "/>
<polyline clip-path="url(#clip622)" style="stroke:#000000; stroke-width:2; stroke-opacity:0.1; fill:none" points="
  211.579,500.643 2352.76,500.643 
  "/>
<polyline clip-path="url(#clip622)" style="stroke:#000000; stroke-width:2; stroke-opacity:0.1; fill:none" points="
  211.579,243.35 2352.76,243.35 
  "/>
<polyline clip-path="url(#clip620)" style="stroke:#000000; stroke-width:4; stroke-opacity:1; fill:none" points="
  211.579,1410.9 211.579,47.2441 
  "/>
<polyline clip-path="url(#clip620)" style="stroke:#000000; stroke-width:4; stroke-opacity:1; fill:none" points="
  211.579,1272.52 237.273,1272.52 
  "/>
<polyline clip-path="url(#clip620)" style="stroke:#000000; stroke-width:4; stroke-opacity:1; fill:none" points="
  211.579,1015.23 237.273,1015.23 
  "/>
<polyline clip-path="url(#clip620)" style="stroke:#000000; stroke-width:4; stroke-opacity:1; fill:none" points="
  211.579,757.936 237.273,757.936 
  "/>
<polyline clip-path="url(#clip620)" style="stroke:#000000; stroke-width:4; stroke-opacity:1; fill:none" points="
  211.579,500.643 237.273,500.643 
  "/>
<polyline clip-path="url(#clip620)" style="stroke:#000000; stroke-width:4; stroke-opacity:1; fill:none" points="
  211.579,243.35 237.273,243.35 
  "/>
<path clip-path="url(#clip620)" d="M 0 0 M128.681 1270.66 Q125.533 1270.66 123.681 1272.81 Q121.853 1274.96 121.853 1278.71 Q121.853 1282.44 123.681 1284.62 Q125.533 1286.77 128.681 1286.77 Q131.83 1286.77 133.658 1284.62 Q135.51 1282.44 135.51 1278.71 Q135.51 1274.96 133.658 1272.81 Q131.83 1270.66 128.681 1270.66 M137.964 1256.01 L137.964 1260.26 Q136.204 1259.43 134.399 1258.99 Q132.617 1258.55 130.857 1258.55 Q126.228 1258.55 123.774 1261.68 Q121.343 1264.8 120.996 1271.12 Q122.362 1269.11 124.422 1268.04 Q126.482 1266.95 128.959 1266.95 Q134.167 1266.95 137.177 1270.13 Q140.209 1273.27 140.209 1278.71 Q140.209 1284.04 137.061 1287.26 Q133.913 1290.47 128.681 1290.47 Q122.686 1290.47 119.515 1285.89 Q116.343 1281.28 116.343 1272.56 Q116.343 1264.36 120.232 1259.5 Q124.121 1254.62 130.672 1254.62 Q132.431 1254.62 134.214 1254.96 Q136.019 1255.31 137.964 1256.01 Z" fill="#000000" fill-rule="evenodd" fill-opacity="1" /><path clip-path="url(#clip620)" d="M 0 0 M145.279 1283.92 L150.163 1283.92 L150.163 1289.8 L145.279 1289.8 L145.279 1283.92 Z" fill="#000000" fill-rule="evenodd" fill-opacity="1" /><path clip-path="url(#clip620)" d="M 0 0 M159.26 1285.87 L175.579 1285.87 L175.579 1289.8 L153.635 1289.8 L153.635 1285.87 Q156.297 1283.11 160.88 1278.48 Q165.487 1273.83 166.667 1272.49 Q168.913 1269.96 169.792 1268.23 Q170.695 1266.47 170.695 1264.78 Q170.695 1262.02 168.751 1260.29 Q166.829 1258.55 163.727 1258.55 Q161.528 1258.55 159.075 1259.32 Q156.644 1260.08 153.866 1261.63 L153.866 1256.91 Q156.69 1255.77 159.144 1255.2 Q161.598 1254.62 163.635 1254.62 Q169.005 1254.62 172.2 1257.3 Q175.394 1259.99 175.394 1264.48 Q175.394 1266.61 174.584 1268.53 Q173.797 1270.43 171.69 1273.02 Q171.112 1273.69 168.01 1276.91 Q164.908 1280.1 159.26 1285.87 Z" fill="#000000" fill-rule="evenodd" fill-opacity="1" /><path clip-path="url(#clip620)" d="M 0 0 M126.598 1013.37 Q123.45 1013.37 121.598 1015.52 Q119.769 1017.67 119.769 1021.42 Q119.769 1025.15 121.598 1027.32 Q123.45 1029.48 126.598 1029.48 Q129.746 1029.48 131.575 1027.32 Q133.427 1025.15 133.427 1021.42 Q133.427 1017.67 131.575 1015.52 Q129.746 1013.37 126.598 1013.37 M135.88 998.713 L135.88 1002.97 Q134.121 1002.14 132.316 1001.7 Q130.533 1001.26 128.774 1001.26 Q124.144 1001.26 121.691 1004.38 Q119.26 1007.51 118.913 1013.83 Q120.279 1011.81 122.339 1010.75 Q124.399 1009.66 126.876 1009.66 Q132.084 1009.66 135.093 1012.83 Q138.126 1015.98 138.126 1021.42 Q138.126 1026.75 134.978 1029.96 Q131.83 1033.18 126.598 1033.18 Q120.603 1033.18 117.431 1028.6 Q114.26 1023.99 114.26 1015.26 Q114.26 1007.07 118.149 1002.21 Q122.038 997.324 128.589 997.324 Q130.348 997.324 132.13 997.671 Q133.936 998.018 135.88 998.713 Z" fill="#000000" fill-rule="evenodd" fill-opacity="1" /><path clip-path="url(#clip620)" d="M 0 0 M143.195 1026.63 L148.079 1026.63 L148.079 1032.51 L143.195 1032.51 L143.195 1026.63 Z" fill="#000000" fill-rule="evenodd" fill-opacity="1" /><path clip-path="url(#clip620)" d="M 0 0 M165.996 1002.02 L154.19 1020.47 L165.996 1020.47 L165.996 1002.02 M164.769 997.949 L170.649 997.949 L170.649 1020.47 L175.579 1020.47 L175.579 1024.36 L170.649 1024.36 L170.649 1032.51 L165.996 1032.51 L165.996 1024.36 L150.394 1024.36 L150.394 1019.85 L164.769 997.949 Z" fill="#000000" fill-rule="evenodd" fill-opacity="1" /><path clip-path="url(#clip620)" d="M 0 0 M126.922 756.073 Q123.774 756.073 121.922 758.225 Q120.093 760.378 120.093 764.128 Q120.093 767.855 121.922 770.031 Q123.774 772.184 126.922 772.184 Q130.07 772.184 131.899 770.031 Q133.751 767.855 133.751 764.128 Q133.751 760.378 131.899 758.225 Q130.07 756.073 126.922 756.073 M136.204 741.42 L136.204 745.679 Q134.445 744.846 132.64 744.406 Q130.857 743.966 129.098 743.966 Q124.468 743.966 122.015 747.091 Q119.584 750.216 119.237 756.536 Q120.603 754.522 122.663 753.457 Q124.723 752.369 127.2 752.369 Q132.408 752.369 135.417 755.54 Q138.45 758.688 138.45 764.128 Q138.45 769.452 135.302 772.67 Q132.154 775.887 126.922 775.887 Q120.927 775.887 117.756 771.304 Q114.584 766.698 114.584 757.971 Q114.584 749.776 118.473 744.915 Q122.362 740.031 128.913 740.031 Q130.672 740.031 132.455 740.378 Q134.26 740.725 136.204 741.42 Z" fill="#000000" fill-rule="evenodd" fill-opacity="1" /><path clip-path="url(#clip620)" d="M 0 0 M143.519 769.336 L148.403 769.336 L148.403 775.216 L143.519 775.216 L143.519 769.336 Z" fill="#000000" fill-rule="evenodd" fill-opacity="1" /><path clip-path="url(#clip620)" d="M 0 0 M164.052 756.073 Q160.903 756.073 159.052 758.225 Q157.223 760.378 157.223 764.128 Q157.223 767.855 159.052 770.031 Q160.903 772.184 164.052 772.184 Q167.2 772.184 169.028 770.031 Q170.88 767.855 170.88 764.128 Q170.88 760.378 169.028 758.225 Q167.2 756.073 164.052 756.073 M173.334 741.42 L173.334 745.679 Q171.575 744.846 169.769 744.406 Q167.987 743.966 166.227 743.966 Q161.598 743.966 159.144 747.091 Q156.714 750.216 156.366 756.536 Q157.732 754.522 159.792 753.457 Q161.852 752.369 164.329 752.369 Q169.538 752.369 172.547 755.54 Q175.579 758.688 175.579 764.128 Q175.579 769.452 172.431 772.67 Q169.283 775.887 164.052 775.887 Q158.056 775.887 154.885 771.304 Q151.714 766.698 151.714 757.971 Q151.714 749.776 155.603 744.915 Q159.491 740.031 166.042 740.031 Q167.802 740.031 169.584 740.378 Q171.389 740.725 173.334 741.42 Z" fill="#000000" fill-rule="evenodd" fill-opacity="1" /><path clip-path="url(#clip620)" d="M 0 0 M127.177 498.78 Q124.029 498.78 122.177 500.932 Q120.348 503.085 120.348 506.835 Q120.348 510.562 122.177 512.738 Q124.029 514.891 127.177 514.891 Q130.325 514.891 132.154 512.738 Q134.005 510.562 134.005 506.835 Q134.005 503.085 132.154 500.932 Q130.325 498.78 127.177 498.78 M136.459 484.127 L136.459 488.386 Q134.7 487.553 132.894 487.113 Q131.112 486.673 129.353 486.673 Q124.723 486.673 122.269 489.798 Q119.839 492.923 119.492 499.243 Q120.857 497.229 122.918 496.164 Q124.978 495.076 127.455 495.076 Q132.663 495.076 135.672 498.247 Q138.704 501.395 138.704 506.835 Q138.704 512.159 135.556 515.377 Q132.408 518.594 127.177 518.594 Q121.181 518.594 118.01 514.011 Q114.839 509.405 114.839 500.678 Q114.839 492.483 118.728 487.622 Q122.617 482.738 129.167 482.738 Q130.927 482.738 132.709 483.085 Q134.515 483.433 136.459 484.127 Z" fill="#000000" fill-rule="evenodd" fill-opacity="1" /><path clip-path="url(#clip620)" d="M 0 0 M143.774 512.043 L148.658 512.043 L148.658 517.923 L143.774 517.923 L143.774 512.043 Z" fill="#000000" fill-rule="evenodd" fill-opacity="1" /><path clip-path="url(#clip620)" d="M 0 0 M163.727 501.511 Q160.394 501.511 158.473 503.294 Q156.575 505.076 156.575 508.201 Q156.575 511.326 158.473 513.108 Q160.394 514.891 163.727 514.891 Q167.061 514.891 168.982 513.108 Q170.903 511.303 170.903 508.201 Q170.903 505.076 168.982 503.294 Q167.084 501.511 163.727 501.511 M159.052 499.52 Q156.042 498.78 154.353 496.719 Q152.686 494.659 152.686 491.696 Q152.686 487.553 155.626 485.145 Q158.589 482.738 163.727 482.738 Q168.889 482.738 171.829 485.145 Q174.769 487.553 174.769 491.696 Q174.769 494.659 173.079 496.719 Q171.413 498.78 168.427 499.52 Q171.806 500.307 173.681 502.599 Q175.579 504.891 175.579 508.201 Q175.579 513.224 172.501 515.909 Q169.445 518.594 163.727 518.594 Q158.01 518.594 154.931 515.909 Q151.876 513.224 151.876 508.201 Q151.876 504.891 153.774 502.599 Q155.672 500.307 159.052 499.52 M157.339 492.136 Q157.339 494.821 159.005 496.326 Q160.695 497.831 163.727 497.831 Q166.737 497.831 168.427 496.326 Q170.139 494.821 170.139 492.136 Q170.139 489.451 168.427 487.946 Q166.737 486.442 163.727 486.442 Q160.695 486.442 159.005 487.946 Q157.339 489.451 157.339 492.136 Z" fill="#000000" fill-rule="evenodd" fill-opacity="1" /><path clip-path="url(#clip620)" d="M 0 0 M116.39 226.07 L138.612 226.07 L138.612 228.061 L126.066 260.63 L121.181 260.63 L132.987 230.005 L116.39 230.005 L116.39 226.07 Z" fill="#000000" fill-rule="evenodd" fill-opacity="1" /><path clip-path="url(#clip620)" d="M 0 0 M143.681 254.751 L148.566 254.751 L148.566 260.63 L143.681 260.63 L143.681 254.751 Z" fill="#000000" fill-rule="evenodd" fill-opacity="1" /><path clip-path="url(#clip620)" d="M 0 0 M163.635 229.149 Q160.024 229.149 158.195 232.714 Q156.39 236.255 156.39 243.385 Q156.39 250.491 158.195 254.056 Q160.024 257.598 163.635 257.598 Q167.269 257.598 169.075 254.056 Q170.903 250.491 170.903 243.385 Q170.903 236.255 169.075 232.714 Q167.269 229.149 163.635 229.149 M163.635 225.445 Q169.445 225.445 172.501 230.052 Q175.579 234.635 175.579 243.385 Q175.579 252.112 172.501 256.718 Q169.445 261.301 163.635 261.301 Q157.825 261.301 154.746 256.718 Q151.691 252.112 151.691 243.385 Q151.691 234.635 154.746 230.052 Q157.825 225.445 163.635 225.445 Z" fill="#000000" fill-rule="evenodd" fill-opacity="1" /><path clip-path="url(#clip620)" d="M 0 0 M59.1993 815.533 Q55.2526 813.336 53.3747 810.281 Q51.4968 807.225 51.4968 803.088 Q51.4968 797.518 55.4117 794.494 Q59.2948 791.47 66.4881 791.47 L88.0042 791.47 L88.0042 797.358 L66.679 797.358 Q61.5546 797.358 59.072 799.173 Q56.5894 800.987 56.5894 804.711 Q56.5894 809.262 59.6131 811.904 Q62.6368 814.546 67.8567 814.546 L88.0042 814.546 L88.0042 820.434 L66.679 820.434 Q61.5228 820.434 59.072 822.248 Q56.5894 824.063 56.5894 827.85 Q56.5894 832.338 59.6449 834.98 Q62.6686 837.622 67.8567 837.622 L88.0042 837.622 L88.0042 843.51 L52.3562 843.51 L52.3562 837.622 L57.8944 837.622 Q54.616 835.616 53.0564 832.815 Q51.4968 830.015 51.4968 826.163 Q51.4968 822.28 53.4702 819.575 Q55.4436 816.838 59.1993 815.533 Z" fill="#000000" fill-rule="evenodd" fill-opacity="1" /><path clip-path="url(#clip620)" d="M 0 0 M52.3562 785.327 L52.3562 779.471 L88.0042 779.471 L88.0042 785.327 L52.3562 785.327 M38.479 785.327 L38.479 779.471 L45.895 779.471 L45.895 785.327 L38.479 785.327 Z" fill="#000000" fill-rule="evenodd" fill-opacity="1" /><path clip-path="url(#clip620)" d="M 0 0 M66.4881 743.696 L88.0042 743.696 L88.0042 749.552 L66.679 749.552 Q61.6183 749.552 59.1038 751.525 Q56.5894 753.499 56.5894 757.446 Q56.5894 762.188 59.6131 764.925 Q62.6368 767.662 67.8567 767.662 L88.0042 767.662 L88.0042 773.551 L52.3562 773.551 L52.3562 767.662 L57.8944 767.662 Q54.6797 765.562 53.0883 762.729 Q51.4968 759.864 51.4968 756.141 Q51.4968 749.998 55.3163 746.847 Q59.1038 743.696 66.4881 743.696 Z" fill="#000000" fill-rule="evenodd" fill-opacity="1" /><path clip-path="url(#clip620)" d="M 0 0 M98.8259 710.467 L103.377 710.467 L103.377 744.332 L98.8259 744.332 L98.8259 710.467 Z" fill="#000000" fill-rule="evenodd" fill-opacity="1" /><path clip-path="url(#clip620)" d="M 0 0 M57.7671 680.866 L38.479 680.866 L38.479 675.01 L88.0042 675.01 L88.0042 680.866 L82.657 680.866 Q85.8398 682.712 87.3994 685.545 Q88.9272 688.346 88.9272 692.292 Q88.9272 698.754 83.771 702.828 Q78.6147 706.87 70.212 706.87 Q61.8093 706.87 56.6531 702.828 Q51.4968 698.754 51.4968 692.292 Q51.4968 688.346 53.0564 685.545 Q54.5842 682.712 57.7671 680.866 M70.212 700.823 Q76.6732 700.823 80.3653 698.181 Q84.0256 695.507 84.0256 690.86 Q84.0256 686.213 80.3653 683.54 Q76.6732 680.866 70.212 680.866 Q63.7508 680.866 60.0905 683.54 Q56.3984 686.213 56.3984 690.86 Q56.3984 695.507 60.0905 698.181 Q63.7508 700.823 70.212 700.823 Z" fill="#000000" fill-rule="evenodd" fill-opacity="1" /><path clip-path="url(#clip620)" d="M 0 0 M52.3562 668.867 L52.3562 663.01 L88.0042 663.01 L88.0042 668.867 L52.3562 668.867 M38.479 668.867 L38.479 663.01 L45.895 663.01 L45.895 668.867 L38.479 668.867 Z" fill="#000000" fill-rule="evenodd" fill-opacity="1" /><path clip-path="url(#clip620)" d="M 0 0 M38.479 638.821 L43.3487 638.821 L43.3487 644.422 Q43.3487 647.573 44.6219 648.815 Q45.895 650.024 49.2052 650.024 L52.3562 650.024 L52.3562 640.38 L56.9077 640.38 L56.9077 650.024 L88.0042 650.024 L88.0042 655.912 L56.9077 655.912 L56.9077 661.514 L52.3562 661.514 L52.3562 655.912 L49.8736 655.912 Q43.9216 655.912 41.2162 653.143 Q38.479 650.374 38.479 644.359 L38.479 638.821 Z" fill="#000000" fill-rule="evenodd" fill-opacity="1" /><path clip-path="url(#clip620)" d="M 0 0 M38.479 614.631 L43.3487 614.631 L43.3487 620.233 Q43.3487 623.384 44.6219 624.625 Q45.895 625.835 49.2052 625.835 L52.3562 625.835 L52.3562 616.19 L56.9077 616.19 L56.9077 625.835 L88.0042 625.835 L88.0042 631.723 L56.9077 631.723 L56.9077 637.325 L52.3562 637.325 L52.3562 631.723 L49.8736 631.723 Q43.9216 631.723 41.2162 628.954 Q38.479 626.185 38.479 620.169 L38.479 614.631 Z" fill="#000000" fill-rule="evenodd" fill-opacity="1" /><path clip-path="url(#clip620)" d="
M1992.46 213.659 L2281.38 213.659 L2281.38 92.6992 L1992.46 92.6992  Z
  " fill="#ffffff" fill-rule="evenodd" fill-opacity="1"/>
<polyline clip-path="url(#clip620)" style="stroke:#000000; stroke-width:4; stroke-opacity:1; fill:none" points="
  1992.46,213.659 2281.38,213.659 2281.38,92.6992 1992.46,92.6992 1992.46,213.659 
  "/>
<polyline clip-path="url(#clip620)" style="stroke:#009af9; stroke-width:4; stroke-opacity:1; fill:none" stroke-dasharray="16, 10" points="
  2016.25,153.179 2158.99,153.179 
  "/>
<path clip-path="url(#clip620)" d="M 0 0 M2196.63 172.867 Q2194.82 177.496 2193.11 178.908 Q2191.39 180.32 2188.52 180.32 L2185.12 180.32 L2185.12 176.755 L2187.62 176.755 Q2189.38 176.755 2190.35 175.922 Q2191.33 175.089 2192.51 171.987 L2193.27 170.043 L2182.78 144.533 L2187.3 144.533 L2195.4 164.811 L2203.5 144.533 L2208.01 144.533 L2196.63 172.867 Z" fill="#000000" fill-rule="evenodd" fill-opacity="1" /><path clip-path="url(#clip620)" d="M 0 0 M2213.89 166.524 L2221.53 166.524 L2221.53 140.158 L2213.22 141.825 L2213.22 137.566 L2221.49 135.899 L2226.16 135.899 L2226.16 166.524 L2233.8 166.524 L2233.8 170.459 L2213.89 170.459 L2213.89 166.524 Z" fill="#000000" fill-rule="evenodd" fill-opacity="1" /></svg>
