<?xml version="1.0" encoding="utf-8"?>
<svg xmlns="http://www.w3.org/2000/svg" xmlns:xlink="http://www.w3.org/1999/xlink" width="600" height="400" viewBox="0 0 2400 1600">
<defs>
  <clipPath id="clip820">
    <rect x="0" y="0" width="2400" height="1600"/>
  </clipPath>
</defs>
<path clip-path="url(#clip820)" d="
M0 1600 L2400 1600 L2400 0 L0 0  Z
  " fill="#ffffff" fill-rule="evenodd" fill-opacity="1"/>
<defs>
  <clipPath id="clip821">
    <rect x="480" y="0" width="1681" height="1600"/>
  </clipPath>
</defs>
<path clip-path="url(#clip820)" d="
M197.852 1410.9 L2352.76 1410.9 L2352.76 47.2441 L197.852 47.2441  Z
  " fill="#ffffff" fill-rule="evenodd" fill-opacity="1"/>
<defs>
  <clipPath id="clip822">
    <rect x="197" y="47" width="2156" height="1365"/>
  </clipPath>
</defs>
<polyline clip-path="url(#clip822)" style="stroke:#000000; stroke-width:2; stroke-opacity:0.1; fill:none" points="
  462.133,1410.9 462.133,47.2441 
  "/>
<polyline clip-path="url(#clip822)" style="stroke:#000000; stroke-width:2; stroke-opacity:0.1; fill:none" points="
  868.719,1410.9 868.719,47.2441 
  "/>
<polyline clip-path="url(#clip822)" style="stroke:#000000; stroke-width:2; stroke-opacity:0.1; fill:none" points="
  1275.3,1410.9 1275.3,47.2441 
  "/>
<polyline clip-path="url(#clip822)" style="stroke:#000000; stroke-width:2; stroke-opacity:0.1; fill:none" points="
  1681.89,1410.9 1681.89,47.2441 
  "/>
<polyline clip-path="url(#clip822)" style="stroke:#000000; stroke-width:2; stroke-opacity:0.1; fill:none" points="
  2088.48,1410.9 2088.48,47.2441 
  "/>
<polyline clip-path="url(#clip820)" style="stroke:#000000; stroke-width:4; stroke-opacity:1; fill:none" points="
  197.852,1410.9 2352.76,1410.9 
  "/>
<polyline clip-path="url(#clip820)" style="stroke:#000000; stroke-width:4; stroke-opacity:1; fill:none" points="
  462.133,1410.9 462.133,1394.53 
  "/>
<polyline clip-path="url(#clip820)" style="stroke:#000000; stroke-width:4; stroke-opacity:1; fill:none" points="
  868.719,1410.9 868.719,1394.53 
  "/>
<polyline clip-path="url(#clip820)" style="stroke:#000000; stroke-width:4; stroke-opacity:1; fill:none" points="
  1275.3,1410.9 1275.3,1394.53 
  "/>
<polyline clip-path="url(#clip820)" style="stroke:#000000; stroke-width:4; stroke-opacity:1; fill:none" points="
  1681.89,1410.9 1681.89,1394.53 
  "/>
<polyline clip-path="url(#clip820)" style="stroke:#000000; stroke-width:4; stroke-opacity:1; fill:none" points="
  2088.48,1410.9 2088.48,1394.53 
  "/>
<path clip-path="url(#clip820)" d="M 0 0 M401.167 1489.17 L408.806 1489.17 L408.806 1462.8 L400.496 1464.47 L400.496 1460.21 L408.76 1458.54 L413.435 1458.54 L413.435 1489.17 L421.074 1489.17 L421.074 1493.1 L401.167 1493.1 L401.167 1489.17 Z" fill="#000000" fill-rule="evenodd" fill-opacity="1" /><path clip-path="url(#clip820)" d="M 0 0 M436.144 1461.62 Q432.533 1461.62 430.704 1465.19 Q428.898 1468.73 428.898 1475.86 Q428.898 1482.97 430.704 1486.53 Q432.533 1490.07 436.144 1490.07 Q439.778 1490.07 441.583 1486.53 Q443.412 1482.97 443.412 1475.86 Q443.412 1468.73 441.583 1465.19 Q439.778 1461.62 436.144 1461.62 M436.144 1457.92 Q441.954 1457.92 445.009 1462.53 Q448.088 1467.11 448.088 1475.86 Q448.088 1484.59 445.009 1489.19 Q441.954 1493.78 436.144 1493.78 Q430.334 1493.78 427.255 1489.19 Q424.199 1484.59 424.199 1475.86 Q424.199 1467.11 427.255 1462.53 Q430.334 1457.92 436.144 1457.92 Z" fill="#000000" fill-rule="evenodd" fill-opacity="1" /><path clip-path="url(#clip820)" d="M 0 0 M448.088 1452.02 L472.2 1452.02 L472.2 1455.22 L448.088 1455.22 L448.088 1452.02 Z" fill="#000000" fill-rule="evenodd" fill-opacity="1" /><path clip-path="url(#clip820)" d="M 0 0 M476.356 1437.61 L491.271 1437.61 L491.271 1440.81 L479.836 1440.81 L479.836 1447.69 Q480.663 1447.41 481.491 1447.28 Q482.318 1447.13 483.146 1447.13 Q487.848 1447.13 490.594 1449.71 Q493.34 1452.28 493.34 1456.68 Q493.34 1461.22 490.518 1463.74 Q487.697 1466.24 482.563 1466.24 Q480.795 1466.24 478.952 1465.94 Q477.127 1465.64 475.171 1465.04 L475.171 1461.22 Q476.864 1462.14 478.669 1462.59 Q480.475 1463.04 482.487 1463.04 Q485.741 1463.04 487.641 1461.33 Q489.54 1459.62 489.54 1456.68 Q489.54 1453.75 487.641 1452.04 Q485.741 1450.33 482.487 1450.33 Q480.964 1450.33 479.441 1450.67 Q477.936 1451 476.356 1451.72 L476.356 1437.61 Z" fill="#000000" fill-rule="evenodd" fill-opacity="1" /><path clip-path="url(#clip820)" d="M 0 0 M497.458 1460.92 L501.427 1460.92 L501.427 1465.69 L497.458 1465.69 L497.458 1460.92 Z" fill="#000000" fill-rule="evenodd" fill-opacity="1" /><path clip-path="url(#clip820)" d="M 0 0 M515.984 1440.92 L506.392 1455.91 L515.984 1455.91 L515.984 1440.92 M514.987 1437.61 L519.764 1437.61 L519.764 1455.91 L523.771 1455.91 L523.771 1459.07 L519.764 1459.07 L519.764 1465.69 L515.984 1465.69 L515.984 1459.07 L503.308 1459.07 L503.308 1455.41 L514.987 1437.61 Z" fill="#000000" fill-rule="evenodd" fill-opacity="1" /><path clip-path="url(#clip820)" d="M 0 0 M808.599 1489.17 L816.238 1489.17 L816.238 1462.8 L807.928 1464.47 L807.928 1460.21 L816.191 1458.54 L820.867 1458.54 L820.867 1489.17 L828.506 1489.17 L828.506 1493.1 L808.599 1493.1 L808.599 1489.17 Z" fill="#000000" fill-rule="evenodd" fill-opacity="1" /><path clip-path="url(#clip820)" d="M 0 0 M843.576 1461.62 Q839.964 1461.62 838.136 1465.19 Q836.33 1468.73 836.33 1475.86 Q836.33 1482.97 838.136 1486.53 Q839.964 1490.07 843.576 1490.07 Q847.21 1490.07 849.015 1486.53 Q850.844 1482.97 850.844 1475.86 Q850.844 1468.73 849.015 1465.19 Q847.21 1461.62 843.576 1461.62 M843.576 1457.92 Q849.386 1457.92 852.441 1462.53 Q855.52 1467.11 855.52 1475.86 Q855.52 1484.59 852.441 1489.19 Q849.386 1493.78 843.576 1493.78 Q837.765 1493.78 834.687 1489.19 Q831.631 1484.59 831.631 1475.86 Q831.631 1467.11 834.687 1462.53 Q837.765 1457.92 843.576 1457.92 Z" fill="#000000" fill-rule="evenodd" fill-opacity="1" /><path clip-path="url(#clip820)" d="M 0 0 M855.52 1452.02 L879.631 1452.02 L879.631 1455.22 L855.52 1455.22 L855.52 1452.02 Z" fill="#000000" fill-rule="evenodd" fill-opacity="1" /><path clip-path="url(#clip820)" d="M 0 0 M883.788 1437.61 L898.703 1437.61 L898.703 1440.81 L887.267 1440.81 L887.267 1447.69 Q888.095 1447.41 888.923 1447.28 Q889.75 1447.13 890.578 1447.13 Q895.28 1447.13 898.025 1449.71 Q900.771 1452.28 900.771 1456.68 Q900.771 1461.22 897.95 1463.74 Q895.129 1466.24 889.995 1466.24 Q888.227 1466.24 886.383 1465.94 Q884.559 1465.64 882.603 1465.04 L882.603 1461.22 Q884.296 1462.14 886.101 1462.59 Q887.907 1463.04 889.919 1463.04 Q893.173 1463.04 895.073 1461.33 Q896.972 1459.62 896.972 1456.68 Q896.972 1453.75 895.073 1452.04 Q893.173 1450.33 889.919 1450.33 Q888.396 1450.33 886.872 1450.67 Q885.368 1451 883.788 1451.72 L883.788 1437.61 Z" fill="#000000" fill-rule="evenodd" fill-opacity="1" /><path clip-path="url(#clip820)" d="M 0 0 M904.89 1460.92 L908.859 1460.92 L908.859 1465.69 L904.89 1465.69 L904.89 1460.92 Z" fill="#000000" fill-rule="evenodd" fill-opacity="1" /><path clip-path="url(#clip820)" d="M 0 0 M916.25 1462.5 L929.51 1462.5 L929.51 1465.69 L911.68 1465.69 L911.68 1462.5 Q913.843 1460.26 917.567 1456.5 Q921.31 1452.72 922.269 1451.63 Q924.093 1449.58 924.808 1448.16 Q925.541 1446.74 925.541 1445.36 Q925.541 1443.12 923.961 1441.71 Q922.4 1440.3 919.88 1440.3 Q918.093 1440.3 916.1 1440.92 Q914.125 1441.54 911.868 1442.8 L911.868 1438.97 Q914.163 1438.05 916.156 1437.58 Q918.15 1437.11 919.805 1437.11 Q924.168 1437.11 926.764 1439.29 Q929.359 1441.47 929.359 1445.12 Q929.359 1446.85 928.701 1448.41 Q928.062 1449.95 926.35 1452.06 Q925.88 1452.6 923.36 1455.22 Q920.839 1457.81 916.25 1462.5 Z" fill="#000000" fill-rule="evenodd" fill-opacity="1" /><path clip-path="url(#clip820)" d="M 0 0 M1214.54 1489.17 L1222.17 1489.17 L1222.17 1462.8 L1213.86 1464.47 L1213.86 1460.21 L1222.13 1458.54 L1226.8 1458.54 L1226.8 1489.17 L1234.44 1489.17 L1234.44 1493.1 L1214.54 1493.1 L1214.54 1489.17 Z" fill="#000000" fill-rule="evenodd" fill-opacity="1" /><path clip-path="url(#clip820)" d="M 0 0 M1249.51 1461.62 Q1245.9 1461.62 1244.07 1465.19 Q1242.27 1468.73 1242.27 1475.86 Q1242.27 1482.97 1244.07 1486.53 Q1245.9 1490.07 1249.51 1490.07 Q1253.15 1490.07 1254.95 1486.53 Q1256.78 1482.97 1256.78 1475.86 Q1256.78 1468.73 1254.95 1465.19 Q1253.15 1461.62 1249.51 1461.62 M1249.51 1457.92 Q1255.32 1457.92 1258.38 1462.53 Q1261.46 1467.11 1261.46 1475.86 Q1261.46 1484.59 1258.38 1489.19 Q1255.32 1493.78 1249.51 1493.78 Q1243.7 1493.78 1240.62 1489.19 Q1237.57 1484.59 1237.57 1475.86 Q1237.57 1467.11 1240.62 1462.53 Q1243.7 1457.92 1249.51 1457.92 Z" fill="#000000" fill-rule="evenodd" fill-opacity="1" /><path clip-path="url(#clip820)" d="M 0 0 M1261.46 1452.02 L1285.57 1452.02 L1285.57 1455.22 L1261.46 1455.22 L1261.46 1452.02 Z" fill="#000000" fill-rule="evenodd" fill-opacity="1" /><path clip-path="url(#clip820)" d="M 0 0 M1289.72 1437.61 L1304.64 1437.61 L1304.64 1440.81 L1293.2 1440.81 L1293.2 1447.69 Q1294.03 1447.41 1294.86 1447.28 Q1295.69 1447.13 1296.51 1447.13 Q1301.22 1447.13 1303.96 1449.71 Q1306.71 1452.28 1306.71 1456.68 Q1306.71 1461.22 1303.89 1463.74 Q1301.07 1466.24 1295.93 1466.24 Q1294.16 1466.24 1292.32 1465.94 Q1290.5 1465.64 1288.54 1465.04 L1288.54 1461.22 Q1290.23 1462.14 1292.04 1462.59 Q1293.84 1463.04 1295.86 1463.04 Q1299.11 1463.04 1301.01 1461.33 Q1302.91 1459.62 1302.91 1456.68 Q1302.91 1453.75 1301.01 1452.04 Q1299.11 1450.33 1295.86 1450.33 Q1294.33 1450.33 1292.81 1450.67 Q1291.3 1451 1289.72 1451.72 L1289.72 1437.61 Z" fill="#000000" fill-rule="evenodd" fill-opacity="1" /><path clip-path="url(#clip820)" d="M 0 0 M1310.83 1460.92 L1314.8 1460.92 L1314.8 1465.69 L1310.83 1465.69 L1310.83 1460.92 Z" fill="#000000" fill-rule="evenodd" fill-opacity="1" /><path clip-path="url(#clip820)" d="M 0 0 M1327.04 1440.11 Q1324.11 1440.11 1322.62 1443.01 Q1321.15 1445.89 1321.15 1451.68 Q1321.15 1457.46 1322.62 1460.35 Q1324.11 1463.23 1327.04 1463.23 Q1329.99 1463.23 1331.46 1460.35 Q1332.94 1457.46 1332.94 1451.68 Q1332.94 1445.89 1331.46 1443.01 Q1329.99 1440.11 1327.04 1440.11 M1327.04 1437.11 Q1331.76 1437.11 1334.24 1440.85 Q1336.74 1444.57 1336.74 1451.68 Q1336.74 1458.77 1334.24 1462.51 Q1331.76 1466.24 1327.04 1466.24 Q1322.32 1466.24 1319.82 1462.51 Q1317.33 1458.77 1317.33 1451.68 Q1317.33 1444.57 1319.82 1440.85 Q1322.32 1437.11 1327.04 1437.11 Z" fill="#000000" fill-rule="evenodd" fill-opacity="1" /><path clip-path="url(#clip820)" d="M 0 0 M1620.56 1489.17 L1628.2 1489.17 L1628.2 1462.8 L1619.89 1464.47 L1619.89 1460.21 L1628.15 1458.54 L1632.83 1458.54 L1632.83 1489.17 L1640.46 1489.17 L1640.46 1493.1 L1620.56 1493.1 L1620.56 1489.17 Z" fill="#000000" fill-rule="evenodd" fill-opacity="1" /><path clip-path="url(#clip820)" d="M 0 0 M1655.53 1461.62 Q1651.92 1461.62 1650.09 1465.19 Q1648.29 1468.73 1648.29 1475.86 Q1648.29 1482.97 1650.09 1486.53 Q1651.92 1490.07 1655.53 1490.07 Q1659.17 1490.07 1660.97 1486.53 Q1662.8 1482.97 1662.8 1475.86 Q1662.8 1468.73 1660.97 1465.19 Q1659.17 1461.62 1655.53 1461.62 M1655.53 1457.92 Q1661.34 1457.92 1664.4 1462.53 Q1667.48 1467.11 1667.48 1475.86 Q1667.48 1484.59 1664.4 1489.19 Q1661.34 1493.78 1655.53 1493.78 Q1649.72 1493.78 1646.64 1489.19 Q1643.59 1484.59 1643.59 1475.86 Q1643.59 1467.11 1646.64 1462.53 Q1649.72 1457.92 1655.53 1457.92 Z" fill="#000000" fill-rule="evenodd" fill-opacity="1" /><path clip-path="url(#clip820)" d="M 0 0 M1667.48 1452.02 L1691.59 1452.02 L1691.59 1455.22 L1667.48 1455.22 L1667.48 1452.02 Z" fill="#000000" fill-rule="evenodd" fill-opacity="1" /><path clip-path="url(#clip820)" d="M 0 0 M1706.15 1440.92 L1696.55 1455.91 L1706.15 1455.91 L1706.15 1440.92 M1705.15 1437.61 L1709.93 1437.61 L1709.93 1455.91 L1713.93 1455.91 L1713.93 1459.07 L1709.93 1459.07 L1709.93 1465.69 L1706.15 1465.69 L1706.15 1459.07 L1693.47 1459.07 L1693.47 1455.41 L1705.15 1437.61 Z" fill="#000000" fill-rule="evenodd" fill-opacity="1" /><path clip-path="url(#clip820)" d="M 0 0 M1718.05 1460.92 L1722.02 1460.92 L1722.02 1465.69 L1718.05 1465.69 L1718.05 1460.92 Z" fill="#000000" fill-rule="evenodd" fill-opacity="1" /><path clip-path="url(#clip820)" d="M 0 0 M1734.26 1452.36 Q1731.56 1452.36 1729.99 1453.81 Q1728.45 1455.26 1728.45 1457.79 Q1728.45 1460.33 1729.99 1461.78 Q1731.56 1463.23 1734.26 1463.23 Q1736.97 1463.23 1738.53 1461.78 Q1740.09 1460.31 1740.09 1457.79 Q1740.09 1455.26 1738.53 1453.81 Q1736.99 1452.36 1734.26 1452.36 M1730.47 1450.74 Q1728.02 1450.14 1726.65 1448.47 Q1725.29 1446.79 1725.29 1444.38 Q1725.29 1441.02 1727.68 1439.06 Q1730.09 1437.11 1734.26 1437.11 Q1738.46 1437.11 1740.85 1439.06 Q1743.24 1441.02 1743.24 1444.38 Q1743.24 1446.79 1741.86 1448.47 Q1740.51 1450.14 1738.08 1450.74 Q1740.83 1451.38 1742.35 1453.24 Q1743.89 1455.1 1743.89 1457.79 Q1743.89 1461.88 1741.39 1464.06 Q1738.91 1466.24 1734.26 1466.24 Q1729.62 1466.24 1727.12 1464.06 Q1724.63 1461.88 1724.63 1457.79 Q1724.63 1455.1 1726.18 1453.24 Q1727.72 1451.38 1730.47 1450.74 M1729.07 1444.74 Q1729.07 1446.92 1730.43 1448.15 Q1731.8 1449.37 1734.26 1449.37 Q1736.71 1449.37 1738.08 1448.15 Q1739.47 1446.92 1739.47 1444.74 Q1739.47 1442.56 1738.08 1441.34 Q1736.71 1440.11 1734.26 1440.11 Q1731.8 1440.11 1730.43 1441.34 Q1729.07 1442.56 1729.07 1444.74 Z" fill="#000000" fill-rule="evenodd" fill-opacity="1" /><path clip-path="url(#clip820)" d="M 0 0 M2027.04 1489.17 L2034.68 1489.17 L2034.68 1462.8 L2026.37 1464.47 L2026.37 1460.21 L2034.63 1458.54 L2039.31 1458.54 L2039.31 1489.17 L2046.95 1489.17 L2046.95 1493.1 L2027.04 1493.1 L2027.04 1489.17 Z" fill="#000000" fill-rule="evenodd" fill-opacity="1" /><path clip-path="url(#clip820)" d="M 0 0 M2062.02 1461.62 Q2058.4 1461.62 2056.58 1465.19 Q2054.77 1468.73 2054.77 1475.86 Q2054.77 1482.97 2056.58 1486.53 Q2058.4 1490.07 2062.02 1490.07 Q2065.65 1490.07 2067.46 1486.53 Q2069.28 1482.97 2069.28 1475.86 Q2069.28 1468.73 2067.46 1465.19 Q2065.65 1461.62 2062.02 1461.62 M2062.02 1457.92 Q2067.83 1457.92 2070.88 1462.53 Q2073.96 1467.11 2073.96 1475.86 Q2073.96 1484.59 2070.88 1489.19 Q2067.83 1493.78 2062.02 1493.78 Q2056.21 1493.78 2053.13 1489.19 Q2050.07 1484.59 2050.07 1475.86 Q2050.07 1467.11 2053.13 1462.53 Q2056.21 1457.92 2062.02 1457.92 Z" fill="#000000" fill-rule="evenodd" fill-opacity="1" /><path clip-path="url(#clip820)" d="M 0 0 M2073.96 1452.02 L2098.07 1452.02 L2098.07 1455.22 L2073.96 1455.22 L2073.96 1452.02 Z" fill="#000000" fill-rule="evenodd" fill-opacity="1" /><path clip-path="url(#clip820)" d="M 0 0 M2112.63 1440.92 L2103.04 1455.91 L2112.63 1455.91 L2112.63 1440.92 M2111.63 1437.61 L2116.41 1437.61 L2116.41 1455.91 L2120.42 1455.91 L2120.42 1459.07 L2116.41 1459.07 L2116.41 1465.69 L2112.63 1465.69 L2112.63 1459.07 L2099.95 1459.07 L2099.95 1455.41 L2111.63 1437.61 Z" fill="#000000" fill-rule="evenodd" fill-opacity="1" /><path clip-path="url(#clip820)" d="M 0 0 M2124.53 1460.92 L2128.5 1460.92 L2128.5 1465.69 L2124.53 1465.69 L2124.53 1460.92 Z" fill="#000000" fill-rule="evenodd" fill-opacity="1" /><path clip-path="url(#clip820)" d="M 0 0 M2141.22 1450.14 Q2138.66 1450.14 2137.15 1451.89 Q2135.67 1453.64 2135.67 1456.68 Q2135.67 1459.71 2137.15 1461.48 Q2138.66 1463.23 2141.22 1463.23 Q2143.77 1463.23 2145.26 1461.48 Q2146.76 1459.71 2146.76 1456.68 Q2146.76 1453.64 2145.26 1451.89 Q2143.77 1450.14 2141.22 1450.14 M2148.76 1438.23 L2148.76 1441.69 Q2147.33 1441.02 2145.86 1440.66 Q2144.41 1440.3 2142.98 1440.3 Q2139.22 1440.3 2137.23 1442.84 Q2135.25 1445.38 2134.97 1450.52 Q2136.08 1448.88 2137.76 1448.01 Q2139.43 1447.13 2141.44 1447.13 Q2145.67 1447.13 2148.12 1449.71 Q2150.58 1452.26 2150.58 1456.68 Q2150.58 1461.01 2148.03 1463.62 Q2145.47 1466.24 2141.22 1466.24 Q2136.35 1466.24 2133.77 1462.51 Q2131.19 1458.77 2131.19 1451.68 Q2131.19 1445.02 2134.35 1441.07 Q2137.51 1437.11 2142.83 1437.11 Q2144.26 1437.11 2145.71 1437.39 Q2147.18 1437.67 2148.76 1438.23 Z" fill="#000000" fill-rule="evenodd" fill-opacity="1" /><path clip-path="url(#clip820)" d="M 0 0 M1206.83 1512.66 L1212.71 1512.66 L1212.71 1541.91 L1230.19 1526.54 L1237.67 1526.54 L1218.76 1543.22 L1238.46 1562.19 L1230.82 1562.19 L1212.71 1544.78 L1212.71 1562.19 L1206.83 1562.19 L1206.83 1512.66 Z" fill="#000000" fill-rule="evenodd" fill-opacity="1" /><path clip-path="url(#clip820)" d="M 0 0 M1271.69 1573.01 L1271.69 1577.56 L1237.83 1577.56 L1237.83 1573.01 L1271.69 1573.01 Z" fill="#000000" fill-rule="evenodd" fill-opacity="1" /><path clip-path="url(#clip820)" d="M 0 0 M1291.65 1530.64 Q1286.94 1530.64 1284.2 1534.34 Q1281.46 1538 1281.46 1544.39 Q1281.46 1550.79 1284.17 1554.48 Q1286.91 1558.14 1291.65 1558.14 Q1296.33 1558.14 1299.06 1554.45 Q1301.8 1550.76 1301.8 1544.39 Q1301.8 1538.06 1299.06 1534.37 Q1296.33 1530.64 1291.65 1530.64 M1291.65 1525.68 Q1299.29 1525.68 1303.65 1530.64 Q1308.01 1535.61 1308.01 1544.39 Q1308.01 1553.15 1303.65 1558.14 Q1299.29 1563.11 1291.65 1563.11 Q1283.98 1563.11 1279.62 1558.14 Q1275.29 1553.15 1275.29 1544.39 Q1275.29 1535.61 1279.62 1530.64 Q1283.98 1525.68 1291.65 1525.68 Z" fill="#000000" fill-rule="evenodd" fill-opacity="1" /><path clip-path="url(#clip820)" d="M 0 0 M1343.78 1540.67 L1343.78 1562.19 L1337.93 1562.19 L1337.93 1540.86 Q1337.93 1535.8 1335.95 1533.29 Q1333.98 1530.77 1330.03 1530.77 Q1325.29 1530.77 1322.55 1533.79 Q1319.82 1536.82 1319.82 1542.04 L1319.82 1562.19 L1313.93 1562.19 L1313.93 1526.54 L1319.82 1526.54 L1319.82 1532.08 Q1321.92 1528.86 1324.75 1527.27 Q1327.61 1525.68 1331.34 1525.68 Q1337.48 1525.68 1340.63 1529.5 Q1343.78 1533.29 1343.78 1540.67 Z" fill="#000000" fill-rule="evenodd" fill-opacity="1" /><polyline clip-path="url(#clip822)" style="stroke:#000000; stroke-width:2; stroke-opacity:0.1; fill:none" points="
  197.852,1252.68 2352.76,1252.68 
  "/>
<polyline clip-path="url(#clip822)" style="stroke:#000000; stroke-width:2; stroke-opacity:0.1; fill:none" points="
  197.852,921.777 2352.76,921.777 
  "/>
<polyline clip-path="url(#clip822)" style="stroke:#000000; stroke-width:2; stroke-opacity:0.1; fill:none" points="
  197.852,590.869 2352.76,590.869 
  "/>
<polyline clip-path="url(#clip822)" style="stroke:#000000; stroke-width:2; stroke-opacity:0.1; fill:none" points="
  197.852,259.962 2352.76,259.962 
  "/>
<polyline clip-path="url(#clip820)" style="stroke:#000000; stroke-width:4; stroke-opacity:1; fill:none" points="
  197.852,1410.9 197.852,47.2441 
  "/>
<polyline clip-path="url(#clip820)" style="stroke:#000000; stroke-width:4; stroke-opacity:1; fill:none" points="
  197.852,1252.68 223.711,1252.68 
  "/>
<polyline clip-path="url(#clip820)" style="stroke:#000000; stroke-width:4; stroke-opacity:1; fill:none" points="
  197.852,921.777 223.711,921.777 
  "/>
<polyline clip-path="url(#clip820)" style="stroke:#000000; stroke-width:4; stroke-opacity:1; fill:none" points="
  197.852,590.869 223.711,590.869 
  "/>
<polyline clip-path="url(#clip820)" style="stroke:#000000; stroke-width:4; stroke-opacity:1; fill:none" points="
  197.852,259.962 223.711,259.962 
  "/>
<path clip-path="url(#clip820)" d="M 0 0 M150.325 1250.82 Q147.177 1250.82 145.325 1252.97 Q143.496 1255.13 143.496 1258.88 Q143.496 1262.6 145.325 1264.78 Q147.177 1266.93 150.325 1266.93 Q153.473 1266.93 155.302 1264.78 Q157.153 1262.6 157.153 1258.88 Q157.153 1255.13 155.302 1252.97 Q153.473 1250.82 150.325 1250.82 M159.607 1236.17 L159.607 1240.43 Q157.848 1239.59 156.042 1239.15 Q154.26 1238.71 152.501 1238.71 Q147.871 1238.71 145.417 1241.84 Q142.987 1244.96 142.64 1251.28 Q144.005 1249.27 146.066 1248.2 Q148.126 1247.12 150.603 1247.12 Q155.811 1247.12 158.82 1250.29 Q161.852 1253.44 161.852 1258.88 Q161.852 1264.2 158.704 1267.42 Q155.556 1270.64 150.325 1270.64 Q144.329 1270.64 141.158 1266.05 Q137.987 1261.45 137.987 1252.72 Q137.987 1244.52 141.876 1239.66 Q145.765 1234.78 152.316 1234.78 Q154.075 1234.78 155.857 1235.13 Q157.663 1235.47 159.607 1236.17 Z" fill="#000000" fill-rule="evenodd" fill-opacity="1" /><path clip-path="url(#clip820)" d="M 0 0 M150.001 922.645 Q146.667 922.645 144.746 924.427 Q142.848 926.209 142.848 929.334 Q142.848 932.459 144.746 934.242 Q146.667 936.024 150.001 936.024 Q153.334 936.024 155.255 934.242 Q157.177 932.436 157.177 929.334 Q157.177 926.209 155.255 924.427 Q153.357 922.645 150.001 922.645 M145.325 920.654 Q142.316 919.913 140.626 917.853 Q138.959 915.793 138.959 912.83 Q138.959 908.686 141.899 906.279 Q144.862 903.872 150.001 903.872 Q155.163 903.872 158.103 906.279 Q161.042 908.686 161.042 912.83 Q161.042 915.793 159.353 917.853 Q157.686 919.913 154.7 920.654 Q158.079 921.441 159.954 923.733 Q161.852 926.024 161.852 929.334 Q161.852 934.358 158.774 937.043 Q155.718 939.728 150.001 939.728 Q144.283 939.728 141.204 937.043 Q138.149 934.358 138.149 929.334 Q138.149 926.024 140.047 923.733 Q141.945 921.441 145.325 920.654 M143.612 913.27 Q143.612 915.955 145.279 917.459 Q146.968 918.964 150.001 918.964 Q153.01 918.964 154.7 917.459 Q156.413 915.955 156.413 913.27 Q156.413 910.585 154.7 909.08 Q153.01 907.575 150.001 907.575 Q146.968 907.575 145.279 909.08 Q143.612 910.585 143.612 913.27 Z" fill="#000000" fill-rule="evenodd" fill-opacity="1" /><path clip-path="url(#clip820)" d="M 0 0 M114.931 604.214 L122.57 604.214 L122.57 577.849 L114.26 579.515 L114.26 575.256 L122.524 573.589 L127.2 573.589 L127.2 604.214 L134.839 604.214 L134.839 608.149 L114.931 608.149 L114.931 604.214 Z" fill="#000000" fill-rule="evenodd" fill-opacity="1" /><path clip-path="url(#clip820)" d="M 0 0 M149.908 576.668 Q146.297 576.668 144.468 580.233 Q142.663 583.774 142.663 590.904 Q142.663 598.01 144.468 601.575 Q146.297 605.117 149.908 605.117 Q153.542 605.117 155.348 601.575 Q157.177 598.01 157.177 590.904 Q157.177 583.774 155.348 580.233 Q153.542 576.668 149.908 576.668 M149.908 572.964 Q155.718 572.964 158.774 577.571 Q161.852 582.154 161.852 590.904 Q161.852 599.631 158.774 604.237 Q155.718 608.821 149.908 608.821 Q144.098 608.821 141.019 604.237 Q137.964 599.631 137.964 590.904 Q137.964 582.154 141.019 577.571 Q144.098 572.964 149.908 572.964 Z" fill="#000000" fill-rule="evenodd" fill-opacity="1" /><path clip-path="url(#clip820)" d="M 0 0 M116.529 273.307 L124.168 273.307 L124.168 246.941 L115.857 248.608 L115.857 244.349 L124.121 242.682 L128.797 242.682 L128.797 273.307 L136.436 273.307 L136.436 277.242 L116.529 277.242 L116.529 273.307 Z" fill="#000000" fill-rule="evenodd" fill-opacity="1" /><path clip-path="url(#clip820)" d="M 0 0 M145.533 273.307 L161.852 273.307 L161.852 277.242 L139.908 277.242 L139.908 273.307 Q142.57 270.552 147.153 265.923 Q151.76 261.27 152.941 259.927 Q155.186 257.404 156.065 255.668 Q156.968 253.909 156.968 252.219 Q156.968 249.464 155.024 247.728 Q153.103 245.992 150.001 245.992 Q147.802 245.992 145.348 246.756 Q142.917 247.52 140.14 249.071 L140.14 244.349 Q142.964 243.214 145.417 242.636 Q147.871 242.057 149.908 242.057 Q155.278 242.057 158.473 244.742 Q161.667 247.427 161.667 251.918 Q161.667 254.048 160.857 255.969 Q160.07 257.867 157.964 260.46 Q157.385 261.131 154.283 264.349 Q151.181 267.543 145.533 273.307 Z" fill="#000000" fill-rule="evenodd" fill-opacity="1" /><path clip-path="url(#clip820)" d="M 0 0 M59.1993 815.533 Q55.2526 813.336 53.3747 810.281 Q51.4968 807.225 51.4968 803.088 Q51.4968 797.518 55.4117 794.494 Q59.2948 791.47 66.4881 791.47 L88.0042 791.47 L88.0042 797.358 L66.679 797.358 Q61.5546 797.358 59.072 799.173 Q56.5894 800.987 56.5894 804.711 Q56.5894 809.262 59.6131 811.904 Q62.6368 814.546 67.8567 814.546 L88.0042 814.546 L88.0042 820.434 L66.679 820.434 Q61.5228 820.434 59.072 822.248 Q56.5894 824.063 56.5894 827.85 Q56.5894 832.338 59.6449 834.98 Q62.6686 837.622 67.8567 837.622 L88.0042 837.622 L88.0042 843.51 L52.3562 843.51 L52.3562 837.622 L57.8944 837.622 Q54.616 835.616 53.0564 832.815 Q51.4968 830.015 51.4968 826.163 Q51.4968 822.28 53.4702 819.575 Q55.4436 816.838 59.1993 815.533 Z" fill="#000000" fill-rule="evenodd" fill-opacity="1" /><path clip-path="url(#clip820)" d="M 0 0 M52.3562 785.327 L52.3562 779.471 L88.0042 779.471 L88.0042 785.327 L52.3562 785.327 M38.479 785.327 L38.479 779.471 L45.895 779.471 L45.895 785.327 L38.479 785.327 Z" fill="#000000" fill-rule="evenodd" fill-opacity="1" /><path clip-path="url(#clip820)" d="M 0 0 M66.4881 743.696 L88.0042 743.696 L88.0042 749.552 L66.679 749.552 Q61.6183 749.552 59.1038 751.525 Q56.5894 753.499 56.5894 757.446 Q56.5894 762.188 59.6131 764.925 Q62.6368 767.662 67.8567 767.662 L88.0042 767.662 L88.0042 773.551 L52.3562 773.551 L52.3562 767.662 L57.8944 767.662 Q54.6797 765.562 53.0883 762.729 Q51.4968 759.864 51.4968 756.141 Q51.4968 749.998 55.3163 746.847 Q59.1038 743.696 66.4881 743.696 Z" fill="#000000" fill-rule="evenodd" fill-opacity="1" /><path clip-path="url(#clip820)" d="M 0 0 M98.8259 710.467 L103.377 710.467 L103.377 744.332 L98.8259 744.332 L98.8259 710.467 Z" fill="#000000" fill-rule="evenodd" fill-opacity="1" /><path clip-path="url(#clip820)" d="M 0 0 M57.7671 680.866 L38.479 680.866 L38.479 675.01 L88.0042 675.01 L88.0042 680.866 L82.657 680.866 Q85.8398 682.712 87.3994 685.545 Q88.9272 688.346 88.9272 692.292 Q88.9272 698.754 83.771 702.828 Q78.6147 706.87 70.212 706.87 Q61.8093 706.87 56.6531 702.828 Q51.4968 698.754 51.4968 692.292 Q51.4968 688.346 53.0564 685.545 Q54.5842 682.712 57.7671 680.866 M70.212 700.823 Q76.6732 700.823 80.3653 698.181 Q84.0256 695.507 84.0256 690.86 Q84.0256 686.213 80.3653 683.54 Q76.6732 680.866 70.212 680.866 Q63.7508 680.866 60.0905 683.54 Q56.3984 686.213 56.3984 690.86 Q56.3984 695.507 60.0905 698.181 Q63.7508 700.823 70.212 700.823 Z" fill="#000000" fill-rule="evenodd" fill-opacity="1" /><path clip-path="url(#clip820)" d="M 0 0 M52.3562 668.867 L52.3562 663.01 L88.0042 663.01 L88.0042 668.867 L52.3562 668.867 M38.479 668.867 L38.479 663.01 L45.895 663.01 L45.895 668.867 L38.479 668.867 Z" fill="#000000" fill-rule="evenodd" fill-opacity="1" /><path clip-path="url(#clip820)" d="M 0 0 M38.479 638.821 L43.3487 638.821 L43.3487 644.422 Q43.3487 647.573 44.6219 648.815 Q45.895 650.024 49.2052 650.024 L52.3562 650.024 L52.3562 640.38 L56.9077 640.38 L56.9077 650.024 L88.0042 650.024 L88.0042 655.912 L56.9077 655.912 L56.9077 661.514 L52.3562 661.514 L52.3562 655.912 L49.8736 655.912 Q43.9216 655.912 41.2162 653.143 Q38.479 650.374 38.479 644.359 L38.479 638.821 Z" fill="#000000" fill-rule="evenodd" fill-opacity="1" /><path clip-path="url(#clip820)" d="M 0 0 M38.479 614.631 L43.3487 614.631 L43.3487 620.233 Q43.3487 623.384 44.6219 624.625 Q45.895 625.835 49.2052 625.835 L52.3562 625.835 L52.3562 616.19 L56.9077 616.19 L56.9077 625.835 L88.0042 625.835 L88.0042 631.723 L56.9077 631.723 L56.9077 637.325 L52.3562 637.325 L52.3562 631.723 L49.8736 631.723 Q43.9216 631.723 41.2162 628.954 Q38.479 626.185 38.479 620.169 L38.479 614.631 Z" fill="#000000" fill-rule="evenodd" fill-opacity="1" /><polyline clip-path="url(#clip822)" style="stroke:#009af9; stroke-width:20; stroke-opacity:1; fill:none" stroke-dasharray="80, 50" points="
  258.84,85.838 1275.3,1372.3 2291.77,600.92 
  "/>
<path clip-path="url(#clip820)" d="
M1990.47 213.659 L2280.93 213.659 L2280.93 92.6992 L1990.47 92.6992  Z
  " fill="#ffffff" fill-rule="evenodd" fill-opacity="1"/>
<polyline clip-path="url(#clip820)" style="stroke:#000000; stroke-width:4; stroke-opacity:1; fill:none" points="
  1990.47,213.659 2280.93,213.659 2280.93,92.6992 1990.47,92.6992 1990.47,213.659 
  "/>
<polyline clip-path="url(#clip820)" style="stroke:#009af9; stroke-width:4; stroke-opacity:1; fill:none" stroke-dasharray="16, 10" points="
  2014.42,153.179 2158.08,153.179 
  "/>
<path clip-path="url(#clip820)" d="M 0 0 M2195.86 172.867 Q2194.06 177.496 2192.34 178.908 Q2190.63 180.32 2187.76 180.32 L2184.36 180.32 L2184.36 176.755 L2186.86 176.755 Q2188.62 176.755 2189.59 175.922 Q2190.56 175.089 2191.74 171.987 L2192.51 170.043 L2182.02 144.533 L2186.53 144.533 L2194.64 164.811 L2202.74 144.533 L2207.25 144.533 L2195.86 172.867 Z" fill="#000000" fill-rule="evenodd" fill-opacity="1" /><path clip-path="url(#clip820)" d="M 0 0 M2213.13 166.524 L2220.77 166.524 L2220.77 140.158 L2212.46 141.825 L2212.46 137.566 L2220.72 135.899 L2225.4 135.899 L2225.4 166.524 L2233.04 166.524 L2233.04 170.459 L2213.13 170.459 L2213.13 166.524 Z" fill="#000000" fill-rule="evenodd" fill-opacity="1" /></svg>
