<?xml version="1.0" encoding="utf-8"?>
<svg xmlns="http://www.w3.org/2000/svg" xmlns:xlink="http://www.w3.org/1999/xlink" width="600" height="400" viewBox="0 0 2400 1600">
<defs>
  <clipPath id="clip210">
    <rect x="0" y="0" width="2400" height="1600"/>
  </clipPath>
</defs>
<path clip-path="url(#clip210)" d="
M0 1600 L2400 1600 L2400 0 L0 0  Z
  " fill="#ffffff" fill-rule="evenodd" fill-opacity="1"/>
<defs>
  <clipPath id="clip211">
    <rect x="480" y="0" width="1681" height="1600"/>
  </clipPath>
</defs>
<path clip-path="url(#clip210)" d="
M226.232 1410.9 L2352.76 1410.9 L2352.76 47.2441 L226.232 47.2441  Z
  " fill="#ffffff" fill-rule="evenodd" fill-opacity="1"/>
<defs>
  <clipPath id="clip212">
    <rect x="226" y="47" width="2128" height="1365"/>
  </clipPath>
</defs>
<polyline clip-path="url(#clip212)" style="stroke:#000000; stroke-width:2; stroke-opacity:0.1; fill:none" points="
  487.032,1410.9 487.032,47.2441 
  "/>
<polyline clip-path="url(#clip212)" style="stroke:#000000; stroke-width:2; stroke-opacity:0.1; fill:none" points="
  888.263,1410.9 888.263,47.2441 
  "/>
<polyline clip-path="url(#clip212)" style="stroke:#000000; stroke-width:2; stroke-opacity:0.1; fill:none" points="
  1289.49,1410.9 1289.49,47.2441 
  "/>
<polyline clip-path="url(#clip212)" style="stroke:#000000; stroke-width:2; stroke-opacity:0.1; fill:none" points="
  1690.72,1410.9 1690.72,47.2441 
  "/>
<polyline clip-path="url(#clip212)" style="stroke:#000000; stroke-width:2; stroke-opacity:0.1; fill:none" points="
  2091.96,1410.9 2091.96,47.2441 
  "/>
<polyline clip-path="url(#clip210)" style="stroke:#000000; stroke-width:4; stroke-opacity:1; fill:none" points="
  226.232,1410.9 2352.76,1410.9 
  "/>
<polyline clip-path="url(#clip210)" style="stroke:#000000; stroke-width:4; stroke-opacity:1; fill:none" points="
  487.032,1410.9 487.032,1394.53 
  "/>
<polyline clip-path="url(#clip210)" style="stroke:#000000; stroke-width:4; stroke-opacity:1; fill:none" points="
  888.263,1410.9 888.263,1394.53 
  "/>
<polyline clip-path="url(#clip210)" style="stroke:#000000; stroke-width:4; stroke-opacity:1; fill:none" points="
  1289.49,1410.9 1289.49,1394.53 
  "/>
<polyline clip-path="url(#clip210)" style="stroke:#000000; stroke-width:4; stroke-opacity:1; fill:none" points="
  1690.72,1410.9 1690.72,1394.53 
  "/>
<polyline clip-path="url(#clip210)" style="stroke:#000000; stroke-width:4; stroke-opacity:1; fill:none" points="
  2091.96,1410.9 2091.96,1394.53 
  "/>
<path clip-path="url(#clip210)" d="M 0 0 M426.066 1489.17 L433.705 1489.17 L433.705 1462.8 L425.395 1464.47 L425.395 1460.21 L433.659 1458.54 L438.334 1458.54 L438.334 1489.17 L445.973 1489.17 L445.973 1493.1 L426.066 1493.1 L426.066 1489.17 Z" fill="#000000" fill-rule="evenodd" fill-opacity="1" /><path clip-path="url(#clip210)" d="M 0 0 M461.043 1461.62 Q457.432 1461.62 455.603 1465.19 Q453.797 1468.73 453.797 1475.86 Q453.797 1482.97 455.603 1486.53 Q457.432 1490.07 461.043 1490.07 Q464.677 1490.07 466.482 1486.53 Q468.311 1482.97 468.311 1475.86 Q468.311 1468.73 466.482 1465.19 Q464.677 1461.62 461.043 1461.62 M461.043 1457.92 Q466.853 1457.92 469.908 1462.53 Q472.987 1467.11 472.987 1475.86 Q472.987 1484.59 469.908 1489.19 Q466.853 1493.78 461.043 1493.78 Q455.232 1493.78 452.154 1489.19 Q449.098 1484.59 449.098 1475.86 Q449.098 1467.11 452.154 1462.53 Q455.232 1457.92 461.043 1457.92 Z" fill="#000000" fill-rule="evenodd" fill-opacity="1" /><path clip-path="url(#clip210)" d="M 0 0 M472.987 1452.02 L497.099 1452.02 L497.099 1455.22 L472.987 1455.22 L472.987 1452.02 Z" fill="#000000" fill-rule="evenodd" fill-opacity="1" /><path clip-path="url(#clip210)" d="M 0 0 M501.255 1437.61 L516.17 1437.61 L516.17 1440.81 L504.735 1440.81 L504.735 1447.69 Q505.562 1447.41 506.39 1447.28 Q507.217 1447.13 508.045 1447.13 Q512.747 1447.13 515.493 1449.71 Q518.239 1452.28 518.239 1456.68 Q518.239 1461.22 515.417 1463.74 Q512.596 1466.24 507.462 1466.24 Q505.694 1466.24 503.851 1465.94 Q502.026 1465.64 500.07 1465.04 L500.07 1461.22 Q501.763 1462.14 503.568 1462.59 Q505.374 1463.04 507.386 1463.04 Q510.64 1463.04 512.54 1461.33 Q514.439 1459.62 514.439 1456.68 Q514.439 1453.75 512.54 1452.04 Q510.64 1450.33 507.386 1450.33 Q505.863 1450.33 504.34 1450.67 Q502.835 1451 501.255 1451.72 L501.255 1437.61 Z" fill="#000000" fill-rule="evenodd" fill-opacity="1" /><path clip-path="url(#clip210)" d="M 0 0 M522.357 1460.92 L526.326 1460.92 L526.326 1465.69 L522.357 1465.69 L522.357 1460.92 Z" fill="#000000" fill-rule="evenodd" fill-opacity="1" /><path clip-path="url(#clip210)" d="M 0 0 M540.883 1440.92 L531.291 1455.91 L540.883 1455.91 L540.883 1440.92 M539.886 1437.61 L544.663 1437.61 L544.663 1455.91 L548.669 1455.91 L548.669 1459.07 L544.663 1459.07 L544.663 1465.69 L540.883 1465.69 L540.883 1459.07 L528.207 1459.07 L528.207 1455.41 L539.886 1437.61 Z" fill="#000000" fill-rule="evenodd" fill-opacity="1" /><path clip-path="url(#clip210)" d="M 0 0 M828.143 1489.17 L835.782 1489.17 L835.782 1462.8 L827.472 1464.47 L827.472 1460.21 L835.736 1458.54 L840.412 1458.54 L840.412 1489.17 L848.051 1489.17 L848.051 1493.1 L828.143 1493.1 L828.143 1489.17 Z" fill="#000000" fill-rule="evenodd" fill-opacity="1" /><path clip-path="url(#clip210)" d="M 0 0 M863.12 1461.62 Q859.509 1461.62 857.68 1465.19 Q855.875 1468.73 855.875 1475.86 Q855.875 1482.97 857.68 1486.53 Q859.509 1490.07 863.12 1490.07 Q866.754 1490.07 868.56 1486.53 Q870.388 1482.97 870.388 1475.86 Q870.388 1468.73 868.56 1465.19 Q866.754 1461.62 863.12 1461.62 M863.12 1457.92 Q868.93 1457.92 871.986 1462.53 Q875.064 1467.11 875.064 1475.86 Q875.064 1484.59 871.986 1489.19 Q868.93 1493.78 863.12 1493.78 Q857.31 1493.78 854.231 1489.19 Q851.176 1484.59 851.176 1475.86 Q851.176 1467.11 854.231 1462.53 Q857.31 1457.92 863.12 1457.92 Z" fill="#000000" fill-rule="evenodd" fill-opacity="1" /><path clip-path="url(#clip210)" d="M 0 0 M875.064 1452.02 L899.176 1452.02 L899.176 1455.22 L875.064 1455.22 L875.064 1452.02 Z" fill="#000000" fill-rule="evenodd" fill-opacity="1" /><path clip-path="url(#clip210)" d="M 0 0 M903.332 1437.61 L918.247 1437.61 L918.247 1440.81 L906.812 1440.81 L906.812 1447.69 Q907.639 1447.41 908.467 1447.28 Q909.294 1447.13 910.122 1447.13 Q914.824 1447.13 917.57 1449.71 Q920.316 1452.28 920.316 1456.68 Q920.316 1461.22 917.495 1463.74 Q914.673 1466.24 909.539 1466.24 Q907.771 1466.24 905.928 1465.94 Q904.103 1465.64 902.147 1465.04 L902.147 1461.22 Q903.84 1462.14 905.646 1462.59 Q907.451 1463.04 909.464 1463.04 Q912.717 1463.04 914.617 1461.33 Q916.517 1459.62 916.517 1456.68 Q916.517 1453.75 914.617 1452.04 Q912.717 1450.33 909.464 1450.33 Q907.94 1450.33 906.417 1450.67 Q904.912 1451 903.332 1451.72 L903.332 1437.61 Z" fill="#000000" fill-rule="evenodd" fill-opacity="1" /><path clip-path="url(#clip210)" d="M 0 0 M924.435 1460.92 L928.403 1460.92 L928.403 1465.69 L924.435 1465.69 L924.435 1460.92 Z" fill="#000000" fill-rule="evenodd" fill-opacity="1" /><path clip-path="url(#clip210)" d="M 0 0 M935.795 1462.5 L949.054 1462.5 L949.054 1465.69 L931.224 1465.69 L931.224 1462.5 Q933.387 1460.26 937.111 1456.5 Q940.854 1452.72 941.813 1451.63 Q943.637 1449.58 944.352 1448.16 Q945.086 1446.74 945.086 1445.36 Q945.086 1443.12 943.506 1441.71 Q941.945 1440.3 939.424 1440.3 Q937.638 1440.3 935.644 1440.92 Q933.669 1441.54 931.412 1442.8 L931.412 1438.97 Q933.707 1438.05 935.701 1437.58 Q937.694 1437.11 939.349 1437.11 Q943.713 1437.11 946.308 1439.29 Q948.904 1441.47 948.904 1445.12 Q948.904 1446.85 948.245 1448.41 Q947.606 1449.95 945.894 1452.06 Q945.424 1452.6 942.904 1455.22 Q940.384 1457.81 935.795 1462.5 Z" fill="#000000" fill-rule="evenodd" fill-opacity="1" /><path clip-path="url(#clip210)" d="M 0 0 M1228.73 1489.17 L1236.36 1489.17 L1236.36 1462.8 L1228.05 1464.47 L1228.05 1460.21 L1236.32 1458.54 L1240.99 1458.54 L1240.99 1489.17 L1248.63 1489.17 L1248.63 1493.1 L1228.73 1493.1 L1228.73 1489.17 Z" fill="#000000" fill-rule="evenodd" fill-opacity="1" /><path clip-path="url(#clip210)" d="M 0 0 M1263.7 1461.62 Q1260.09 1461.62 1258.26 1465.19 Q1256.46 1468.73 1256.46 1475.86 Q1256.46 1482.97 1258.26 1486.53 Q1260.09 1490.07 1263.7 1490.07 Q1267.34 1490.07 1269.14 1486.53 Q1270.97 1482.97 1270.97 1475.86 Q1270.97 1468.73 1269.14 1465.19 Q1267.34 1461.62 1263.7 1461.62 M1263.7 1457.92 Q1269.51 1457.92 1272.57 1462.53 Q1275.65 1467.11 1275.65 1475.86 Q1275.65 1484.59 1272.57 1489.19 Q1269.51 1493.78 1263.7 1493.78 Q1257.89 1493.78 1254.81 1489.19 Q1251.76 1484.59 1251.76 1475.86 Q1251.76 1467.11 1254.81 1462.53 Q1257.89 1457.92 1263.7 1457.92 Z" fill="#000000" fill-rule="evenodd" fill-opacity="1" /><path clip-path="url(#clip210)" d="M 0 0 M1275.65 1452.02 L1299.76 1452.02 L1299.76 1455.22 L1275.65 1455.22 L1275.65 1452.02 Z" fill="#000000" fill-rule="evenodd" fill-opacity="1" /><path clip-path="url(#clip210)" d="M 0 0 M1303.91 1437.61 L1318.83 1437.61 L1318.83 1440.81 L1307.39 1440.81 L1307.39 1447.69 Q1308.22 1447.41 1309.05 1447.28 Q1309.88 1447.13 1310.7 1447.13 Q1315.41 1447.13 1318.15 1449.71 Q1320.9 1452.28 1320.9 1456.68 Q1320.9 1461.22 1318.08 1463.74 Q1315.26 1466.24 1310.12 1466.24 Q1308.35 1466.24 1306.51 1465.94 Q1304.69 1465.64 1302.73 1465.04 L1302.73 1461.22 Q1304.42 1462.14 1306.23 1462.59 Q1308.03 1463.04 1310.05 1463.04 Q1313.3 1463.04 1315.2 1461.33 Q1317.1 1459.62 1317.1 1456.68 Q1317.1 1453.75 1315.2 1452.04 Q1313.3 1450.33 1310.05 1450.33 Q1308.52 1450.33 1307 1450.67 Q1305.49 1451 1303.91 1451.72 L1303.91 1437.61 Z" fill="#000000" fill-rule="evenodd" fill-opacity="1" /><path clip-path="url(#clip210)" d="M 0 0 M1325.02 1460.92 L1328.99 1460.92 L1328.99 1465.69 L1325.02 1465.69 L1325.02 1460.92 Z" fill="#000000" fill-rule="evenodd" fill-opacity="1" /><path clip-path="url(#clip210)" d="M 0 0 M1341.23 1440.11 Q1338.3 1440.11 1336.81 1443.01 Q1335.34 1445.89 1335.34 1451.68 Q1335.34 1457.46 1336.81 1460.35 Q1338.3 1463.23 1341.23 1463.23 Q1344.18 1463.23 1345.65 1460.35 Q1347.13 1457.46 1347.13 1451.68 Q1347.13 1445.89 1345.65 1443.01 Q1344.18 1440.11 1341.23 1440.11 M1341.23 1437.11 Q1345.95 1437.11 1348.43 1440.85 Q1350.93 1444.57 1350.93 1451.68 Q1350.93 1458.77 1348.43 1462.51 Q1345.95 1466.24 1341.23 1466.24 Q1336.51 1466.24 1334.01 1462.51 Q1331.52 1458.77 1331.52 1451.68 Q1331.52 1444.57 1334.01 1440.85 Q1336.51 1437.11 1341.23 1437.11 Z" fill="#000000" fill-rule="evenodd" fill-opacity="1" /><path clip-path="url(#clip210)" d="M 0 0 M1629.39 1489.17 L1637.03 1489.17 L1637.03 1462.8 L1628.72 1464.47 L1628.72 1460.21 L1636.98 1458.54 L1641.66 1458.54 L1641.66 1489.17 L1649.3 1489.17 L1649.3 1493.1 L1629.39 1493.1 L1629.39 1489.17 Z" fill="#000000" fill-rule="evenodd" fill-opacity="1" /><path clip-path="url(#clip210)" d="M 0 0 M1664.37 1461.62 Q1660.76 1461.62 1658.93 1465.19 Q1657.12 1468.73 1657.12 1475.86 Q1657.12 1482.97 1658.93 1486.53 Q1660.76 1490.07 1664.37 1490.07 Q1668 1490.07 1669.81 1486.53 Q1671.64 1482.97 1671.64 1475.86 Q1671.64 1468.73 1669.81 1465.19 Q1668 1461.62 1664.37 1461.62 M1664.37 1457.92 Q1670.18 1457.92 1673.23 1462.53 Q1676.31 1467.11 1676.31 1475.86 Q1676.31 1484.59 1673.23 1489.19 Q1670.18 1493.78 1664.37 1493.78 Q1658.56 1493.78 1655.48 1489.19 Q1652.42 1484.59 1652.42 1475.86 Q1652.42 1467.11 1655.48 1462.53 Q1658.56 1457.92 1664.37 1457.92 Z" fill="#000000" fill-rule="evenodd" fill-opacity="1" /><path clip-path="url(#clip210)" d="M 0 0 M1676.31 1452.02 L1700.42 1452.02 L1700.42 1455.22 L1676.31 1455.22 L1676.31 1452.02 Z" fill="#000000" fill-rule="evenodd" fill-opacity="1" /><path clip-path="url(#clip210)" d="M 0 0 M1714.98 1440.92 L1705.39 1455.91 L1714.98 1455.91 L1714.98 1440.92 M1713.99 1437.61 L1718.76 1437.61 L1718.76 1455.91 L1722.77 1455.91 L1722.77 1459.07 L1718.76 1459.07 L1718.76 1465.69 L1714.98 1465.69 L1714.98 1459.07 L1702.31 1459.07 L1702.31 1455.41 L1713.99 1437.61 Z" fill="#000000" fill-rule="evenodd" fill-opacity="1" /><path clip-path="url(#clip210)" d="M 0 0 M1726.89 1460.92 L1730.86 1460.92 L1730.86 1465.69 L1726.89 1465.69 L1726.89 1460.92 Z" fill="#000000" fill-rule="evenodd" fill-opacity="1" /><path clip-path="url(#clip210)" d="M 0 0 M1743.1 1452.36 Q1740.39 1452.36 1738.83 1453.81 Q1737.29 1455.26 1737.29 1457.79 Q1737.29 1460.33 1738.83 1461.78 Q1740.39 1463.23 1743.1 1463.23 Q1745.81 1463.23 1747.37 1461.78 Q1748.93 1460.31 1748.93 1457.79 Q1748.93 1455.26 1747.37 1453.81 Q1745.83 1452.36 1743.1 1452.36 M1739.3 1450.74 Q1736.86 1450.14 1735.48 1448.47 Q1734.13 1446.79 1734.13 1444.38 Q1734.13 1441.02 1736.52 1439.06 Q1738.92 1437.11 1743.1 1437.11 Q1747.29 1437.11 1749.68 1439.06 Q1752.07 1441.02 1752.07 1444.38 Q1752.07 1446.79 1750.7 1448.47 Q1749.34 1450.14 1746.92 1450.74 Q1749.66 1451.38 1751.19 1453.24 Q1752.73 1455.1 1752.73 1457.79 Q1752.73 1461.88 1750.23 1464.06 Q1747.74 1466.24 1743.1 1466.24 Q1738.45 1466.24 1735.95 1464.06 Q1733.47 1461.88 1733.47 1457.79 Q1733.47 1455.1 1735.01 1453.24 Q1736.55 1451.38 1739.3 1450.74 M1737.91 1444.74 Q1737.91 1446.92 1739.26 1448.15 Q1740.64 1449.37 1743.1 1449.37 Q1745.54 1449.37 1746.92 1448.15 Q1748.31 1446.92 1748.31 1444.74 Q1748.31 1442.56 1746.92 1441.34 Q1745.54 1440.11 1743.1 1440.11 Q1740.64 1440.11 1739.26 1441.34 Q1737.91 1442.56 1737.91 1444.74 Z" fill="#000000" fill-rule="evenodd" fill-opacity="1" /><path clip-path="url(#clip210)" d="M 0 0 M2030.52 1489.17 L2038.16 1489.17 L2038.16 1462.8 L2029.85 1464.47 L2029.85 1460.21 L2038.11 1458.54 L2042.79 1458.54 L2042.79 1489.17 L2050.43 1489.17 L2050.43 1493.1 L2030.52 1493.1 L2030.52 1489.17 Z" fill="#000000" fill-rule="evenodd" fill-opacity="1" /><path clip-path="url(#clip210)" d="M 0 0 M2065.5 1461.62 Q2061.89 1461.62 2060.06 1465.19 Q2058.25 1468.73 2058.25 1475.86 Q2058.25 1482.97 2060.06 1486.53 Q2061.89 1490.07 2065.5 1490.07 Q2069.13 1490.07 2070.94 1486.53 Q2072.76 1482.97 2072.76 1475.86 Q2072.76 1468.73 2070.94 1465.19 Q2069.13 1461.62 2065.5 1461.62 M2065.5 1457.92 Q2071.31 1457.92 2074.36 1462.53 Q2077.44 1467.11 2077.44 1475.86 Q2077.44 1484.59 2074.36 1489.19 Q2071.31 1493.78 2065.5 1493.78 Q2059.69 1493.78 2056.61 1489.19 Q2053.55 1484.59 2053.55 1475.86 Q2053.55 1467.11 2056.61 1462.53 Q2059.69 1457.92 2065.5 1457.92 Z" fill="#000000" fill-rule="evenodd" fill-opacity="1" /><path clip-path="url(#clip210)" d="M 0 0 M2077.44 1452.02 L2101.55 1452.02 L2101.55 1455.22 L2077.44 1455.22 L2077.44 1452.02 Z" fill="#000000" fill-rule="evenodd" fill-opacity="1" /><path clip-path="url(#clip210)" d="M 0 0 M2116.11 1440.92 L2106.52 1455.91 L2116.11 1455.91 L2116.11 1440.92 M2115.11 1437.61 L2119.89 1437.61 L2119.89 1455.91 L2123.9 1455.91 L2123.9 1459.07 L2119.89 1459.07 L2119.89 1465.69 L2116.11 1465.69 L2116.11 1459.07 L2103.43 1459.07 L2103.43 1455.41 L2115.11 1437.61 Z" fill="#000000" fill-rule="evenodd" fill-opacity="1" /><path clip-path="url(#clip210)" d="M 0 0 M2128.01 1460.92 L2131.98 1460.92 L2131.98 1465.69 L2128.01 1465.69 L2128.01 1460.92 Z" fill="#000000" fill-rule="evenodd" fill-opacity="1" /><path clip-path="url(#clip210)" d="M 0 0 M2144.7 1450.14 Q2142.14 1450.14 2140.63 1451.89 Q2139.15 1453.64 2139.15 1456.68 Q2139.15 1459.71 2140.63 1461.48 Q2142.14 1463.23 2144.7 1463.23 Q2147.25 1463.23 2148.74 1461.48 Q2150.25 1459.71 2150.25 1456.68 Q2150.25 1453.64 2148.74 1451.89 Q2147.25 1450.14 2144.7 1450.14 M2152.24 1438.23 L2152.24 1441.69 Q2150.81 1441.02 2149.34 1440.66 Q2147.89 1440.3 2146.47 1440.3 Q2142.7 1440.3 2140.71 1442.84 Q2138.74 1445.38 2138.45 1450.52 Q2139.56 1448.88 2141.24 1448.01 Q2142.91 1447.13 2144.92 1447.13 Q2149.15 1447.13 2151.6 1449.71 Q2154.06 1452.26 2154.06 1456.68 Q2154.06 1461.01 2151.51 1463.62 Q2148.95 1466.24 2144.7 1466.24 Q2139.83 1466.24 2137.25 1462.51 Q2134.67 1458.77 2134.67 1451.68 Q2134.67 1445.02 2137.83 1441.07 Q2140.99 1437.11 2146.31 1437.11 Q2147.74 1437.11 2149.19 1437.39 Q2150.66 1437.67 2152.24 1438.23 Z" fill="#000000" fill-rule="evenodd" fill-opacity="1" /><path clip-path="url(#clip210)" d="M 0 0 M1221.01 1512.66 L1226.9 1512.66 L1226.9 1541.91 L1244.38 1526.54 L1251.86 1526.54 L1232.95 1543.22 L1252.65 1562.19 L1245.01 1562.19 L1226.9 1544.78 L1226.9 1562.19 L1221.01 1562.19 L1221.01 1512.66 Z" fill="#000000" fill-rule="evenodd" fill-opacity="1" /><path clip-path="url(#clip210)" d="M 0 0 M1285.88 1573.01 L1285.88 1577.56 L1252.02 1577.56 L1252.02 1573.01 L1285.88 1573.01 Z" fill="#000000" fill-rule="evenodd" fill-opacity="1" /><path clip-path="url(#clip210)" d="M 0 0 M1305.84 1530.64 Q1301.13 1530.64 1298.39 1534.34 Q1295.65 1538 1295.65 1544.39 Q1295.65 1550.79 1298.36 1554.48 Q1301.1 1558.14 1305.84 1558.14 Q1310.52 1558.14 1313.25 1554.45 Q1315.99 1550.76 1315.99 1544.39 Q1315.99 1538.06 1313.25 1534.37 Q1310.52 1530.64 1305.84 1530.64 M1305.84 1525.68 Q1313.48 1525.68 1317.84 1530.64 Q1322.2 1535.61 1322.2 1544.39 Q1322.2 1553.15 1317.84 1558.14 Q1313.48 1563.11 1305.84 1563.11 Q1298.17 1563.11 1293.81 1558.14 Q1289.48 1553.15 1289.48 1544.39 Q1289.48 1535.61 1293.81 1530.64 Q1298.17 1525.68 1305.84 1525.68 Z" fill="#000000" fill-rule="evenodd" fill-opacity="1" /><path clip-path="url(#clip210)" d="M 0 0 M1357.97 1540.67 L1357.97 1562.19 L1352.12 1562.19 L1352.12 1540.86 Q1352.12 1535.8 1350.14 1533.29 Q1348.17 1530.77 1344.22 1530.77 Q1339.48 1530.77 1336.74 1533.79 Q1334.01 1536.82 1334.01 1542.04 L1334.01 1562.19 L1328.12 1562.19 L1328.12 1526.54 L1334.01 1526.54 L1334.01 1532.08 Q1336.11 1528.86 1338.94 1527.27 Q1341.8 1525.68 1345.53 1525.68 Q1351.67 1525.68 1354.82 1529.5 Q1357.97 1533.29 1357.97 1540.67 Z" fill="#000000" fill-rule="evenodd" fill-opacity="1" /><polyline clip-path="url(#clip212)" style="stroke:#000000; stroke-width:2; stroke-opacity:0.1; fill:none" points="
  226.232,1325.49 2352.76,1325.49 
  "/>
<polyline clip-path="url(#clip212)" style="stroke:#000000; stroke-width:2; stroke-opacity:0.1; fill:none" points="
  226.232,995.584 2352.76,995.584 
  "/>
<polyline clip-path="url(#clip212)" style="stroke:#000000; stroke-width:2; stroke-opacity:0.1; fill:none" points="
  226.232,665.674 2352.76,665.674 
  "/>
<polyline clip-path="url(#clip212)" style="stroke:#000000; stroke-width:2; stroke-opacity:0.1; fill:none" points="
  226.232,335.763 2352.76,335.763 
  "/>
<polyline clip-path="url(#clip210)" style="stroke:#000000; stroke-width:4; stroke-opacity:1; fill:none" points="
  226.232,1410.9 226.232,47.2441 
  "/>
<polyline clip-path="url(#clip210)" style="stroke:#000000; stroke-width:4; stroke-opacity:1; fill:none" points="
  226.232,1325.49 251.75,1325.49 
  "/>
<polyline clip-path="url(#clip210)" style="stroke:#000000; stroke-width:4; stroke-opacity:1; fill:none" points="
  226.232,995.584 251.75,995.584 
  "/>
<polyline clip-path="url(#clip210)" style="stroke:#000000; stroke-width:4; stroke-opacity:1; fill:none" points="
  226.232,665.674 251.75,665.674 
  "/>
<polyline clip-path="url(#clip210)" style="stroke:#000000; stroke-width:4; stroke-opacity:1; fill:none" points="
  226.232,335.763 251.75,335.763 
  "/>
<path clip-path="url(#clip210)" d="M 0 0 M142.316 1308.21 L160.672 1308.21 L160.672 1312.15 L146.598 1312.15 L146.598 1320.62 Q147.616 1320.27 148.635 1320.11 Q149.653 1319.93 150.672 1319.93 Q156.459 1319.93 159.839 1323.1 Q163.218 1326.27 163.218 1331.69 Q163.218 1337.26 159.746 1340.37 Q156.274 1343.45 149.954 1343.45 Q147.778 1343.45 145.51 1343.07 Q143.265 1342.7 140.857 1341.96 L140.857 1337.26 Q142.941 1338.4 145.163 1338.95 Q147.385 1339.51 149.862 1339.51 Q153.866 1339.51 156.204 1337.4 Q158.542 1335.3 158.542 1331.69 Q158.542 1328.07 156.204 1325.97 Q153.866 1323.86 149.862 1323.86 Q147.987 1323.86 146.112 1324.28 Q144.26 1324.7 142.316 1325.57 L142.316 1308.21 Z" fill="#000000" fill-rule="evenodd" fill-opacity="1" /><path clip-path="url(#clip210)" d="M 0 0 M178.288 1311.29 Q174.677 1311.29 172.848 1314.86 Q171.042 1318.4 171.042 1325.53 Q171.042 1332.64 172.848 1336.2 Q174.677 1339.74 178.288 1339.74 Q181.922 1339.74 183.727 1336.2 Q185.556 1332.64 185.556 1325.53 Q185.556 1318.4 183.727 1314.86 Q181.922 1311.29 178.288 1311.29 M178.288 1307.59 Q184.098 1307.59 187.153 1312.2 Q190.232 1316.78 190.232 1325.53 Q190.232 1334.26 187.153 1338.86 Q184.098 1343.45 178.288 1343.45 Q172.477 1343.45 169.399 1338.86 Q166.343 1334.26 166.343 1325.53 Q166.343 1316.78 169.399 1312.2 Q172.477 1307.59 178.288 1307.59 Z" fill="#000000" fill-rule="evenodd" fill-opacity="1" /><path clip-path="url(#clip210)" d="M 0 0 M116.297 1008.93 L123.936 1008.93 L123.936 982.563 L115.626 984.23 L115.626 979.97 L123.89 978.304 L128.566 978.304 L128.566 1008.93 L136.204 1008.93 L136.204 1012.86 L116.297 1012.86 L116.297 1008.93 Z" fill="#000000" fill-rule="evenodd" fill-opacity="1" /><path clip-path="url(#clip210)" d="M 0 0 M151.274 981.382 Q147.663 981.382 145.834 984.947 Q144.029 988.489 144.029 995.618 Q144.029 1002.72 145.834 1006.29 Q147.663 1009.83 151.274 1009.83 Q154.908 1009.83 156.714 1006.29 Q158.542 1002.72 158.542 995.618 Q158.542 988.489 156.714 984.947 Q154.908 981.382 151.274 981.382 M151.274 977.679 Q157.084 977.679 160.14 982.285 Q163.218 986.868 163.218 995.618 Q163.218 1004.35 160.14 1008.95 Q157.084 1013.53 151.274 1013.53 Q145.464 1013.53 142.385 1008.95 Q139.329 1004.35 139.329 995.618 Q139.329 986.868 142.385 982.285 Q145.464 977.679 151.274 977.679 Z" fill="#000000" fill-rule="evenodd" fill-opacity="1" /><path clip-path="url(#clip210)" d="M 0 0 M178.288 981.382 Q174.677 981.382 172.848 984.947 Q171.042 988.489 171.042 995.618 Q171.042 1002.72 172.848 1006.29 Q174.677 1009.83 178.288 1009.83 Q181.922 1009.83 183.727 1006.29 Q185.556 1002.72 185.556 995.618 Q185.556 988.489 183.727 984.947 Q181.922 981.382 178.288 981.382 M178.288 977.679 Q184.098 977.679 187.153 982.285 Q190.232 986.868 190.232 995.618 Q190.232 1004.35 187.153 1008.95 Q184.098 1013.53 178.288 1013.53 Q172.477 1013.53 169.399 1008.95 Q166.343 1004.35 166.343 995.618 Q166.343 986.868 169.399 982.285 Q172.477 977.679 178.288 977.679 Z" fill="#000000" fill-rule="evenodd" fill-opacity="1" /><path clip-path="url(#clip210)" d="M 0 0 M117.293 679.018 L124.931 679.018 L124.931 652.653 L116.621 654.319 L116.621 650.06 L124.885 648.394 L129.561 648.394 L129.561 679.018 L137.2 679.018 L137.2 682.954 L117.293 682.954 L117.293 679.018 Z" fill="#000000" fill-rule="evenodd" fill-opacity="1" /><path clip-path="url(#clip210)" d="M 0 0 M142.316 648.394 L160.672 648.394 L160.672 652.329 L146.598 652.329 L146.598 660.801 Q147.616 660.454 148.635 660.292 Q149.653 660.106 150.672 660.106 Q156.459 660.106 159.839 663.278 Q163.218 666.449 163.218 671.866 Q163.218 677.444 159.746 680.546 Q156.274 683.625 149.954 683.625 Q147.778 683.625 145.51 683.254 Q143.265 682.884 140.857 682.143 L140.857 677.444 Q142.941 678.579 145.163 679.134 Q147.385 679.69 149.862 679.69 Q153.866 679.69 156.204 677.583 Q158.542 675.477 158.542 671.866 Q158.542 668.255 156.204 666.148 Q153.866 664.042 149.862 664.042 Q147.987 664.042 146.112 664.458 Q144.26 664.875 142.316 665.755 L142.316 648.394 Z" fill="#000000" fill-rule="evenodd" fill-opacity="1" /><path clip-path="url(#clip210)" d="M 0 0 M178.288 651.472 Q174.677 651.472 172.848 655.037 Q171.042 658.579 171.042 665.708 Q171.042 672.815 172.848 676.379 Q174.677 679.921 178.288 679.921 Q181.922 679.921 183.727 676.379 Q185.556 672.815 185.556 665.708 Q185.556 658.579 183.727 655.037 Q181.922 651.472 178.288 651.472 M178.288 647.769 Q184.098 647.769 187.153 652.375 Q190.232 656.958 190.232 665.708 Q190.232 674.435 187.153 679.041 Q184.098 683.625 178.288 683.625 Q172.477 683.625 169.399 679.041 Q166.343 674.435 166.343 665.708 Q166.343 656.958 169.399 652.375 Q172.477 647.769 178.288 647.769 Z" fill="#000000" fill-rule="evenodd" fill-opacity="1" /><path clip-path="url(#clip210)" d="M 0 0 M119.885 349.108 L136.204 349.108 L136.204 353.043 L114.26 353.043 L114.26 349.108 Q116.922 346.354 121.505 341.724 Q126.112 337.071 127.292 335.729 Q129.538 333.205 130.417 331.469 Q131.32 329.71 131.32 328.02 Q131.32 325.266 129.376 323.53 Q127.455 321.793 124.353 321.793 Q122.154 321.793 119.7 322.557 Q117.269 323.321 114.492 324.872 L114.492 320.15 Q117.316 319.016 119.769 318.437 Q122.223 317.858 124.26 317.858 Q129.63 317.858 132.825 320.543 Q136.019 323.229 136.019 327.719 Q136.019 329.849 135.209 331.77 Q134.422 333.668 132.316 336.261 Q131.737 336.932 128.635 340.15 Q125.533 343.344 119.885 349.108 Z" fill="#000000" fill-rule="evenodd" fill-opacity="1" /><path clip-path="url(#clip210)" d="M 0 0 M151.274 321.562 Q147.663 321.562 145.834 325.127 Q144.029 328.668 144.029 335.798 Q144.029 342.904 145.834 346.469 Q147.663 350.011 151.274 350.011 Q154.908 350.011 156.714 346.469 Q158.542 342.904 158.542 335.798 Q158.542 328.668 156.714 325.127 Q154.908 321.562 151.274 321.562 M151.274 317.858 Q157.084 317.858 160.14 322.465 Q163.218 327.048 163.218 335.798 Q163.218 344.525 160.14 349.131 Q157.084 353.715 151.274 353.715 Q145.464 353.715 142.385 349.131 Q139.329 344.525 139.329 335.798 Q139.329 327.048 142.385 322.465 Q145.464 317.858 151.274 317.858 Z" fill="#000000" fill-rule="evenodd" fill-opacity="1" /><path clip-path="url(#clip210)" d="M 0 0 M178.288 321.562 Q174.677 321.562 172.848 325.127 Q171.042 328.668 171.042 335.798 Q171.042 342.904 172.848 346.469 Q174.677 350.011 178.288 350.011 Q181.922 350.011 183.727 346.469 Q185.556 342.904 185.556 335.798 Q185.556 328.668 183.727 325.127 Q181.922 321.562 178.288 321.562 M178.288 317.858 Q184.098 317.858 187.153 322.465 Q190.232 327.048 190.232 335.798 Q190.232 344.525 187.153 349.131 Q184.098 353.715 178.288 353.715 Q172.477 353.715 169.399 349.131 Q166.343 344.525 166.343 335.798 Q166.343 327.048 169.399 322.465 Q172.477 317.858 178.288 317.858 Z" fill="#000000" fill-rule="evenodd" fill-opacity="1" /><path clip-path="url(#clip210)" d="M 0 0 M59.1993 815.533 Q55.2526 813.336 53.3747 810.281 Q51.4968 807.225 51.4968 803.088 Q51.4968 797.518 55.4117 794.494 Q59.2948 791.47 66.4881 791.47 L88.0042 791.47 L88.0042 797.358 L66.679 797.358 Q61.5546 797.358 59.072 799.173 Q56.5894 800.987 56.5894 804.711 Q56.5894 809.262 59.6131 811.904 Q62.6368 814.546 67.8567 814.546 L88.0042 814.546 L88.0042 820.434 L66.679 820.434 Q61.5228 820.434 59.072 822.248 Q56.5894 824.063 56.5894 827.85 Q56.5894 832.338 59.6449 834.98 Q62.6686 837.622 67.8567 837.622 L88.0042 837.622 L88.0042 843.51 L52.3562 843.51 L52.3562 837.622 L57.8944 837.622 Q54.616 835.616 53.0564 832.815 Q51.4968 830.015 51.4968 826.163 Q51.4968 822.28 53.4702 819.575 Q55.4436 816.838 59.1993 815.533 Z" fill="#000000" fill-rule="evenodd" fill-opacity="1" /><path clip-path="url(#clip210)" d="M 0 0 M52.3562 785.327 L52.3562 779.471 L88.0042 779.471 L88.0042 785.327 L52.3562 785.327 M38.479 785.327 L38.479 779.471 L45.895 779.471 L45.895 785.327 L38.479 785.327 Z" fill="#000000" fill-rule="evenodd" fill-opacity="1" /><path clip-path="url(#clip210)" d="M 0 0 M66.4881 743.696 L88.0042 743.696 L88.0042 749.552 L66.679 749.552 Q61.6183 749.552 59.1038 751.525 Q56.5894 753.499 56.5894 757.446 Q56.5894 762.188 59.6131 764.925 Q62.6368 767.662 67.8567 767.662 L88.0042 767.662 L88.0042 773.551 L52.3562 773.551 L52.3562 767.662 L57.8944 767.662 Q54.6797 765.562 53.0883 762.729 Q51.4968 759.864 51.4968 756.141 Q51.4968 749.998 55.3163 746.847 Q59.1038 743.696 66.4881 743.696 Z" fill="#000000" fill-rule="evenodd" fill-opacity="1" /><path clip-path="url(#clip210)" d="M 0 0 M98.8259 710.467 L103.377 710.467 L103.377 744.332 L98.8259 744.332 L98.8259 710.467 Z" fill="#000000" fill-rule="evenodd" fill-opacity="1" /><path clip-path="url(#clip210)" d="M 0 0 M57.7671 680.866 L38.479 680.866 L38.479 675.01 L88.0042 675.01 L88.0042 680.866 L82.657 680.866 Q85.8398 682.712 87.3994 685.545 Q88.9272 688.346 88.9272 692.292 Q88.9272 698.754 83.771 702.828 Q78.6147 706.87 70.212 706.87 Q61.8093 706.87 56.6531 702.828 Q51.4968 698.754 51.4968 692.292 Q51.4968 688.346 53.0564 685.545 Q54.5842 682.712 57.7671 680.866 M70.212 700.823 Q76.6732 700.823 80.3653 698.181 Q84.0256 695.507 84.0256 690.86 Q84.0256 686.213 80.3653 683.54 Q76.6732 680.866 70.212 680.866 Q63.7508 680.866 60.0905 683.54 Q56.3984 686.213 56.3984 690.86 Q56.3984 695.507 60.0905 698.181 Q63.7508 700.823 70.212 700.823 Z" fill="#000000" fill-rule="evenodd" fill-opacity="1" /><path clip-path="url(#clip210)" d="M 0 0 M52.3562 668.867 L52.3562 663.01 L88.0042 663.01 L88.0042 668.867 L52.3562 668.867 M38.479 668.867 L38.479 663.01 L45.895 663.01 L45.895 668.867 L38.479 668.867 Z" fill="#000000" fill-rule="evenodd" fill-opacity="1" /><path clip-path="url(#clip210)" d="M 0 0 M38.479 638.821 L43.3487 638.821 L43.3487 644.422 Q43.3487 647.573 44.6219 648.815 Q45.895 650.024 49.2052 650.024 L52.3562 650.024 L52.3562 640.38 L56.9077 640.38 L56.9077 650.024 L88.0042 650.024 L88.0042 655.912 L56.9077 655.912 L56.9077 661.514 L52.3562 661.514 L52.3562 655.912 L49.8736 655.912 Q43.9216 655.912 41.2162 653.143 Q38.479 650.374 38.479 644.359 L38.479 638.821 Z" fill="#000000" fill-rule="evenodd" fill-opacity="1" /><path clip-path="url(#clip210)" d="M 0 0 M38.479 614.631 L43.3487 614.631 L43.3487 620.233 Q43.3487 623.384 44.6219 624.625 Q45.895 625.835 49.2052 625.835 L52.3562 625.835 L52.3562 616.19 L56.9077 616.19 L56.9077 625.835 L88.0042 625.835 L88.0042 631.723 L56.9077 631.723 L56.9077 637.325 L52.3562 637.325 L52.3562 631.723 L49.8736 631.723 Q43.9216 631.723 41.2162 628.954 Q38.479 626.185 38.479 620.169 L38.479 614.631 Z" fill="#000000" fill-rule="evenodd" fill-opacity="1" /><polyline clip-path="url(#clip212)" style="stroke:#009af9; stroke-width:20; stroke-opacity:1; fill:none" stroke-dasharray="80, 50" points="
  286.417,85.838 1289.49,1372.3 2292.57,966.945 
  "/>
<path clip-path="url(#clip210)" d="
M1994.57 213.659 L2281.87 213.659 L2281.87 92.6992 L1994.57 92.6992  Z
  " fill="#ffffff" fill-rule="evenodd" fill-opacity="1"/>
<polyline clip-path="url(#clip210)" style="stroke:#000000; stroke-width:4; stroke-opacity:1; fill:none" points="
  1994.57,213.659 2281.87,213.659 2281.87,92.6992 1994.57,92.6992 1994.57,213.659 
  "/>
<polyline clip-path="url(#clip210)" style="stroke:#009af9; stroke-width:4; stroke-opacity:1; fill:none" stroke-dasharray="16, 10" points="
  2018.2,153.179 2159.97,153.179 
  "/>
<path clip-path="url(#clip210)" d="M 0 0 M2197.44 172.867 Q2195.63 177.496 2193.92 178.908 Q2192.21 180.32 2189.34 180.32 L2185.94 180.32 L2185.94 176.755 L2188.44 176.755 Q2190.19 176.755 2191.17 175.922 Q2192.14 175.089 2193.32 171.987 L2194.08 170.043 L2183.6 144.533 L2188.11 144.533 L2196.21 164.811 L2204.31 144.533 L2208.83 144.533 L2197.44 172.867 Z" fill="#000000" fill-rule="evenodd" fill-opacity="1" /><path clip-path="url(#clip210)" d="M 0 0 M2214.71 166.524 L2222.35 166.524 L2222.35 140.158 L2214.04 141.825 L2214.04 137.566 L2222.3 135.899 L2226.98 135.899 L2226.98 166.524 L2234.62 166.524 L2234.62 170.459 L2214.71 170.459 L2214.71 166.524 Z" fill="#000000" fill-rule="evenodd" fill-opacity="1" /></svg>
