<?xml version="1.0" encoding="utf-8"?>
<svg xmlns="http://www.w3.org/2000/svg" xmlns:xlink="http://www.w3.org/1999/xlink" width="600" height="400" viewBox="0 0 2400 1600">
<defs>
  <clipPath id="clip690">
    <rect x="0" y="0" width="2400" height="1600"/>
  </clipPath>
</defs>
<path clip-path="url(#clip690)" d="
M0 1600 L2400 1600 L2400 0 L0 0  Z
  " fill="#ffffff" fill-rule="evenodd" fill-opacity="1"/>
<defs>
  <clipPath id="clip691">
    <rect x="480" y="0" width="1681" height="1600"/>
  </clipPath>
</defs>
<path clip-path="url(#clip690)" d="
M237.112 1410.9 L2352.76 1410.9 L2352.76 47.2441 L237.112 47.2441  Z
  " fill="#ffffff" fill-rule="evenodd" fill-opacity="1"/>
<defs>
  <clipPath id="clip692">
    <rect x="237" y="47" width="2117" height="1365"/>
  </clipPath>
</defs>
<polyline clip-path="url(#clip692)" style="stroke:#000000; stroke-width:2; stroke-opacity:0.1; fill:none" points="
  296.988,1410.9 296.988,47.2441 
  "/>
<polyline clip-path="url(#clip692)" style="stroke:#000000; stroke-width:2; stroke-opacity:0.1; fill:none" points="
  696.166,1410.9 696.166,47.2441 
  "/>
<polyline clip-path="url(#clip692)" style="stroke:#000000; stroke-width:2; stroke-opacity:0.1; fill:none" points="
  1095.34,1410.9 1095.34,47.2441 
  "/>
<polyline clip-path="url(#clip692)" style="stroke:#000000; stroke-width:2; stroke-opacity:0.1; fill:none" points="
  1494.52,1410.9 1494.52,47.2441 
  "/>
<polyline clip-path="url(#clip692)" style="stroke:#000000; stroke-width:2; stroke-opacity:0.1; fill:none" points="
  1893.7,1410.9 1893.7,47.2441 
  "/>
<polyline clip-path="url(#clip692)" style="stroke:#000000; stroke-width:2; stroke-opacity:0.1; fill:none" points="
  2292.88,1410.9 2292.88,47.2441 
  "/>
<polyline clip-path="url(#clip690)" style="stroke:#000000; stroke-width:4; stroke-opacity:1; fill:none" points="
  237.112,1410.9 2352.76,1410.9 
  "/>
<polyline clip-path="url(#clip690)" style="stroke:#000000; stroke-width:4; stroke-opacity:1; fill:none" points="
  296.988,1410.9 296.988,1394.53 
  "/>
<polyline clip-path="url(#clip690)" style="stroke:#000000; stroke-width:4; stroke-opacity:1; fill:none" points="
  696.166,1410.9 696.166,1394.53 
  "/>
<polyline clip-path="url(#clip690)" style="stroke:#000000; stroke-width:4; stroke-opacity:1; fill:none" points="
  1095.34,1410.9 1095.34,1394.53 
  "/>
<polyline clip-path="url(#clip690)" style="stroke:#000000; stroke-width:4; stroke-opacity:1; fill:none" points="
  1494.52,1410.9 1494.52,1394.53 
  "/>
<polyline clip-path="url(#clip690)" style="stroke:#000000; stroke-width:4; stroke-opacity:1; fill:none" points="
  1893.7,1410.9 1893.7,1394.53 
  "/>
<polyline clip-path="url(#clip690)" style="stroke:#000000; stroke-width:4; stroke-opacity:1; fill:none" points="
  2292.88,1410.9 2292.88,1394.53 
  "/>
<path clip-path="url(#clip690)" d="M 0 0 M251.238 1489.17 L258.876 1489.17 L258.876 1462.8 L250.566 1464.47 L250.566 1460.21 L258.83 1458.54 L263.506 1458.54 L263.506 1489.17 L271.145 1489.17 L271.145 1493.1 L251.238 1493.1 L251.238 1489.17 Z" fill="#000000" fill-rule="evenodd" fill-opacity="1" /><path clip-path="url(#clip690)" d="M 0 0 M286.214 1461.62 Q282.603 1461.62 280.775 1465.19 Q278.969 1468.73 278.969 1475.86 Q278.969 1482.97 280.775 1486.53 Q282.603 1490.07 286.214 1490.07 Q289.849 1490.07 291.654 1486.53 Q293.483 1482.97 293.483 1475.86 Q293.483 1468.73 291.654 1465.19 Q289.849 1461.62 286.214 1461.62 M286.214 1457.92 Q292.024 1457.92 295.08 1462.53 Q298.159 1467.11 298.159 1475.86 Q298.159 1484.59 295.08 1489.19 Q292.024 1493.78 286.214 1493.78 Q280.404 1493.78 277.325 1489.19 Q274.27 1484.59 274.27 1475.86 Q274.27 1467.11 277.325 1462.53 Q280.404 1457.92 286.214 1457.92 Z" fill="#000000" fill-rule="evenodd" fill-opacity="1" /><path clip-path="url(#clip690)" d="M 0 0 M298.159 1452.02 L322.27 1452.02 L322.27 1455.22 L298.159 1455.22 L298.159 1452.02 Z" fill="#000000" fill-rule="evenodd" fill-opacity="1" /><path clip-path="url(#clip690)" d="M 0 0 M326.427 1437.61 L341.341 1437.61 L341.341 1440.81 L329.906 1440.81 L329.906 1447.69 Q330.734 1447.41 331.561 1447.28 Q332.389 1447.13 333.216 1447.13 Q337.918 1447.13 340.664 1449.71 Q343.41 1452.28 343.41 1456.68 Q343.41 1461.22 340.589 1463.74 Q337.768 1466.24 332.633 1466.24 Q330.865 1466.24 329.022 1465.94 Q327.198 1465.64 325.242 1465.04 L325.242 1461.22 Q326.935 1462.14 328.74 1462.59 Q330.546 1463.04 332.558 1463.04 Q335.812 1463.04 337.711 1461.33 Q339.611 1459.62 339.611 1456.68 Q339.611 1453.75 337.711 1452.04 Q335.812 1450.33 332.558 1450.33 Q331.035 1450.33 329.511 1450.67 Q328.007 1451 326.427 1451.72 L326.427 1437.61 Z" fill="#000000" fill-rule="evenodd" fill-opacity="1" /><path clip-path="url(#clip690)" d="M 0 0 M649.814 1489.17 L657.452 1489.17 L657.452 1462.8 L649.142 1464.47 L649.142 1460.21 L657.406 1458.54 L662.082 1458.54 L662.082 1489.17 L669.721 1489.17 L669.721 1493.1 L649.814 1493.1 L649.814 1489.17 Z" fill="#000000" fill-rule="evenodd" fill-opacity="1" /><path clip-path="url(#clip690)" d="M 0 0 M684.79 1461.62 Q681.179 1461.62 679.351 1465.19 Q677.545 1468.73 677.545 1475.86 Q677.545 1482.97 679.351 1486.53 Q681.179 1490.07 684.79 1490.07 Q688.425 1490.07 690.23 1486.53 Q692.059 1482.97 692.059 1475.86 Q692.059 1468.73 690.23 1465.19 Q688.425 1461.62 684.79 1461.62 M684.79 1457.92 Q690.6 1457.92 693.656 1462.53 Q696.735 1467.11 696.735 1475.86 Q696.735 1484.59 693.656 1489.19 Q690.6 1493.78 684.79 1493.78 Q678.98 1493.78 675.901 1489.19 Q672.846 1484.59 672.846 1475.86 Q672.846 1467.11 675.901 1462.53 Q678.98 1457.92 684.79 1457.92 Z" fill="#000000" fill-rule="evenodd" fill-opacity="1" /><path clip-path="url(#clip690)" d="M 0 0 M696.735 1452.02 L720.846 1452.02 L720.846 1455.22 L696.735 1455.22 L696.735 1452.02 Z" fill="#000000" fill-rule="evenodd" fill-opacity="1" /><path clip-path="url(#clip690)" d="M 0 0 M735.403 1440.92 L725.811 1455.91 L735.403 1455.91 L735.403 1440.92 M734.407 1437.61 L739.184 1437.61 L739.184 1455.91 L743.19 1455.91 L743.19 1459.07 L739.184 1459.07 L739.184 1465.69 L735.403 1465.69 L735.403 1459.07 L722.727 1459.07 L722.727 1455.41 L734.407 1437.61 Z" fill="#000000" fill-rule="evenodd" fill-opacity="1" /><path clip-path="url(#clip690)" d="M 0 0 M1049.45 1489.17 L1057.09 1489.17 L1057.09 1462.8 L1048.78 1464.47 L1048.78 1460.21 L1057.04 1458.54 L1061.72 1458.54 L1061.72 1489.17 L1069.36 1489.17 L1069.36 1493.1 L1049.45 1493.1 L1049.45 1489.17 Z" fill="#000000" fill-rule="evenodd" fill-opacity="1" /><path clip-path="url(#clip690)" d="M 0 0 M1084.43 1461.62 Q1080.82 1461.62 1078.99 1465.19 Q1077.18 1468.73 1077.18 1475.86 Q1077.18 1482.97 1078.99 1486.53 Q1080.82 1490.07 1084.43 1490.07 Q1088.06 1490.07 1089.87 1486.53 Q1091.7 1482.97 1091.7 1475.86 Q1091.7 1468.73 1089.87 1465.19 Q1088.06 1461.62 1084.43 1461.62 M1084.43 1457.92 Q1090.24 1457.92 1093.29 1462.53 Q1096.37 1467.11 1096.37 1475.86 Q1096.37 1484.59 1093.29 1489.19 Q1090.24 1493.78 1084.43 1493.78 Q1078.62 1493.78 1075.54 1489.19 Q1072.48 1484.59 1072.48 1475.86 Q1072.48 1467.11 1075.54 1462.53 Q1078.62 1457.92 1084.43 1457.92 Z" fill="#000000" fill-rule="evenodd" fill-opacity="1" /><path clip-path="url(#clip690)" d="M 0 0 M1096.37 1452.02 L1120.48 1452.02 L1120.48 1455.22 L1096.37 1455.22 L1096.37 1452.02 Z" fill="#000000" fill-rule="evenodd" fill-opacity="1" /><path clip-path="url(#clip690)" d="M 0 0 M1136.11 1450.55 Q1138.84 1451.14 1140.36 1452.98 Q1141.91 1454.82 1141.91 1457.53 Q1141.91 1461.69 1139.05 1463.96 Q1136.19 1466.24 1130.92 1466.24 Q1129.16 1466.24 1127.27 1465.88 Q1125.41 1465.54 1123.42 1464.85 L1123.42 1461.18 Q1125 1462.1 1126.88 1462.57 Q1128.76 1463.04 1130.81 1463.04 Q1134.38 1463.04 1136.25 1461.63 Q1138.13 1460.22 1138.13 1457.53 Q1138.13 1455.05 1136.38 1453.66 Q1134.65 1452.25 1131.54 1452.25 L1128.27 1452.25 L1128.27 1449.12 L1131.69 1449.12 Q1134.5 1449.12 1135.98 1448.01 Q1137.47 1446.89 1137.47 1444.78 Q1137.47 1442.62 1135.93 1441.47 Q1134.4 1440.3 1131.54 1440.3 Q1129.98 1440.3 1128.2 1440.64 Q1126.41 1440.98 1124.27 1441.69 L1124.27 1438.31 Q1126.43 1437.71 1128.31 1437.41 Q1130.21 1437.11 1131.88 1437.11 Q1136.21 1437.11 1138.73 1439.08 Q1141.25 1441.04 1141.25 1444.38 Q1141.25 1446.72 1139.91 1448.33 Q1138.58 1449.93 1136.11 1450.55 Z" fill="#000000" fill-rule="evenodd" fill-opacity="1" /><path clip-path="url(#clip690)" d="M 0 0 M1449.02 1489.17 L1456.65 1489.17 L1456.65 1462.8 L1448.34 1464.47 L1448.34 1460.21 L1456.61 1458.54 L1461.28 1458.54 L1461.28 1489.17 L1468.92 1489.17 L1468.92 1493.1 L1449.02 1493.1 L1449.02 1489.17 Z" fill="#000000" fill-rule="evenodd" fill-opacity="1" /><path clip-path="url(#clip690)" d="M 0 0 M1483.99 1461.62 Q1480.38 1461.62 1478.55 1465.19 Q1476.75 1468.73 1476.75 1475.86 Q1476.75 1482.97 1478.55 1486.53 Q1480.38 1490.07 1483.99 1490.07 Q1487.63 1490.07 1489.43 1486.53 Q1491.26 1482.97 1491.26 1475.86 Q1491.26 1468.73 1489.43 1465.19 Q1487.63 1461.62 1483.99 1461.62 M1483.99 1457.92 Q1489.8 1457.92 1492.86 1462.53 Q1495.94 1467.11 1495.94 1475.86 Q1495.94 1484.59 1492.86 1489.19 Q1489.8 1493.78 1483.99 1493.78 Q1478.18 1493.78 1475.1 1489.19 Q1472.05 1484.59 1472.05 1475.86 Q1472.05 1467.11 1475.1 1462.53 Q1478.18 1457.92 1483.99 1457.92 Z" fill="#000000" fill-rule="evenodd" fill-opacity="1" /><path clip-path="url(#clip690)" d="M 0 0 M1495.94 1452.02 L1520.05 1452.02 L1520.05 1455.22 L1495.94 1455.22 L1495.94 1452.02 Z" fill="#000000" fill-rule="evenodd" fill-opacity="1" /><path clip-path="url(#clip690)" d="M 0 0 M1527.44 1462.5 L1540.7 1462.5 L1540.7 1465.69 L1522.87 1465.69 L1522.87 1462.5 Q1525.03 1460.26 1528.76 1456.5 Q1532.5 1452.72 1533.46 1451.63 Q1535.28 1449.58 1536 1448.16 Q1536.73 1446.74 1536.73 1445.36 Q1536.73 1443.12 1535.15 1441.71 Q1533.59 1440.3 1531.07 1440.3 Q1529.28 1440.3 1527.29 1440.92 Q1525.31 1441.54 1523.06 1442.8 L1523.06 1438.97 Q1525.35 1438.05 1527.35 1437.58 Q1529.34 1437.11 1530.99 1437.11 Q1535.36 1437.11 1537.95 1439.29 Q1540.55 1441.47 1540.55 1445.12 Q1540.55 1446.85 1539.89 1448.41 Q1539.25 1449.95 1537.54 1452.06 Q1537.07 1452.6 1534.55 1455.22 Q1532.03 1457.81 1527.44 1462.5 Z" fill="#000000" fill-rule="evenodd" fill-opacity="1" /><path clip-path="url(#clip690)" d="M 0 0 M1848.04 1489.17 L1855.68 1489.17 L1855.68 1462.8 L1847.37 1464.47 L1847.37 1460.21 L1855.64 1458.54 L1860.31 1458.54 L1860.31 1489.17 L1867.95 1489.17 L1867.95 1493.1 L1848.04 1493.1 L1848.04 1489.17 Z" fill="#000000" fill-rule="evenodd" fill-opacity="1" /><path clip-path="url(#clip690)" d="M 0 0 M1883.02 1461.62 Q1879.41 1461.62 1877.58 1465.19 Q1875.77 1468.73 1875.77 1475.86 Q1875.77 1482.97 1877.58 1486.53 Q1879.41 1490.07 1883.02 1490.07 Q1886.65 1490.07 1888.46 1486.53 Q1890.29 1482.97 1890.29 1475.86 Q1890.29 1468.73 1888.46 1465.19 Q1886.65 1461.62 1883.02 1461.62 M1883.02 1457.92 Q1888.83 1457.92 1891.89 1462.53 Q1894.96 1467.11 1894.96 1475.86 Q1894.96 1484.59 1891.89 1489.19 Q1888.83 1493.78 1883.02 1493.78 Q1877.21 1493.78 1874.13 1489.19 Q1871.08 1484.59 1871.08 1475.86 Q1871.08 1467.11 1874.13 1462.53 Q1877.21 1457.92 1883.02 1457.92 Z" fill="#000000" fill-rule="evenodd" fill-opacity="1" /><path clip-path="url(#clip690)" d="M 0 0 M1894.96 1452.02 L1919.08 1452.02 L1919.08 1455.22 L1894.96 1455.22 L1894.96 1452.02 Z" fill="#000000" fill-rule="evenodd" fill-opacity="1" /><path clip-path="url(#clip690)" d="M 0 0 M1923.85 1462.5 L1930.06 1462.5 L1930.06 1441.07 L1923.31 1442.43 L1923.31 1438.97 L1930.02 1437.61 L1933.82 1437.61 L1933.82 1462.5 L1940.03 1462.5 L1940.03 1465.69 L1923.85 1465.69 L1923.85 1462.5 Z" fill="#000000" fill-rule="evenodd" fill-opacity="1" /><path clip-path="url(#clip690)" d="M 0 0 M2260.05 1489.17 L2267.69 1489.17 L2267.69 1462.8 L2259.38 1464.47 L2259.38 1460.21 L2267.64 1458.54 L2272.32 1458.54 L2272.32 1489.17 L2279.96 1489.17 L2279.96 1493.1 L2260.05 1493.1 L2260.05 1489.17 Z" fill="#000000" fill-rule="evenodd" fill-opacity="1" /><path clip-path="url(#clip690)" d="M 0 0 M2295.02 1461.62 Q2291.41 1461.62 2289.58 1465.19 Q2287.78 1468.73 2287.78 1475.86 Q2287.78 1482.97 2289.58 1486.53 Q2291.41 1490.07 2295.02 1490.07 Q2298.66 1490.07 2300.46 1486.53 Q2302.29 1482.97 2302.29 1475.86 Q2302.29 1468.73 2300.46 1465.19 Q2298.66 1461.62 2295.02 1461.62 M2295.02 1457.92 Q2300.83 1457.92 2303.89 1462.53 Q2306.97 1467.11 2306.97 1475.86 Q2306.97 1484.59 2303.89 1489.19 Q2300.83 1493.78 2295.02 1493.78 Q2289.21 1493.78 2286.14 1489.19 Q2283.08 1484.59 2283.08 1475.86 Q2283.08 1467.11 2286.14 1462.53 Q2289.21 1457.92 2295.02 1457.92 Z" fill="#000000" fill-rule="evenodd" fill-opacity="1" /><path clip-path="url(#clip690)" d="M 0 0 M2316.67 1440.11 Q2313.74 1440.11 2312.25 1443.01 Q2310.79 1445.89 2310.79 1451.68 Q2310.79 1457.46 2312.25 1460.35 Q2313.74 1463.23 2316.67 1463.23 Q2319.63 1463.23 2321.09 1460.35 Q2322.58 1457.46 2322.58 1451.68 Q2322.58 1445.89 2321.09 1443.01 Q2319.63 1440.11 2316.67 1440.11 M2316.67 1437.11 Q2321.39 1437.11 2323.88 1440.85 Q2326.38 1444.57 2326.38 1451.68 Q2326.38 1458.77 2323.88 1462.51 Q2321.39 1466.24 2316.67 1466.24 Q2311.95 1466.24 2309.45 1462.51 Q2306.97 1458.77 2306.97 1451.68 Q2306.97 1444.57 2309.45 1440.85 Q2311.95 1437.11 2316.67 1437.11 Z" fill="#000000" fill-rule="evenodd" fill-opacity="1" /><path clip-path="url(#clip690)" d="M 0 0 M1226.45 1512.66 L1232.34 1512.66 L1232.34 1541.91 L1249.82 1526.54 L1257.3 1526.54 L1238.39 1543.22 L1258.09 1562.19 L1250.45 1562.19 L1232.34 1544.78 L1232.34 1562.19 L1226.45 1562.19 L1226.45 1512.66 Z" fill="#000000" fill-rule="evenodd" fill-opacity="1" /><path clip-path="url(#clip690)" d="M 0 0 M1291.32 1573.01 L1291.32 1577.56 L1257.46 1577.56 L1257.46 1573.01 L1291.32 1573.01 Z" fill="#000000" fill-rule="evenodd" fill-opacity="1" /><path clip-path="url(#clip690)" d="M 0 0 M1311.28 1530.64 Q1306.57 1530.64 1303.83 1534.34 Q1301.09 1538 1301.09 1544.39 Q1301.09 1550.79 1303.8 1554.48 Q1306.54 1558.14 1311.28 1558.14 Q1315.96 1558.14 1318.69 1554.45 Q1321.43 1550.76 1321.43 1544.39 Q1321.43 1538.06 1318.69 1534.37 Q1315.96 1530.64 1311.28 1530.64 M1311.28 1525.68 Q1318.92 1525.68 1323.28 1530.64 Q1327.64 1535.61 1327.64 1544.39 Q1327.64 1553.15 1323.28 1558.14 Q1318.92 1563.11 1311.28 1563.11 Q1303.61 1563.11 1299.25 1558.14 Q1294.92 1553.15 1294.92 1544.39 Q1294.92 1535.61 1299.25 1530.64 Q1303.61 1525.68 1311.28 1525.68 Z" fill="#000000" fill-rule="evenodd" fill-opacity="1" /><path clip-path="url(#clip690)" d="M 0 0 M1363.41 1540.67 L1363.41 1562.19 L1357.56 1562.19 L1357.56 1540.86 Q1357.56 1535.8 1355.58 1533.29 Q1353.61 1530.77 1349.66 1530.77 Q1344.92 1530.77 1342.18 1533.79 Q1339.45 1536.82 1339.45 1542.04 L1339.45 1562.19 L1333.56 1562.19 L1333.56 1526.54 L1339.45 1526.54 L1339.45 1532.08 Q1341.55 1528.86 1344.38 1527.27 Q1347.24 1525.68 1350.97 1525.68 Q1357.11 1525.68 1360.26 1529.5 Q1363.41 1533.29 1363.41 1540.67 Z" fill="#000000" fill-rule="evenodd" fill-opacity="1" /><polyline clip-path="url(#clip692)" style="stroke:#000000; stroke-width:2; stroke-opacity:0.1; fill:none" points="
  237.112,1301.82 2352.76,1301.82 
  "/>
<polyline clip-path="url(#clip692)" style="stroke:#000000; stroke-width:2; stroke-opacity:0.1; fill:none" points="
  237.112,980.199 2352.76,980.199 
  "/>
<polyline clip-path="url(#clip692)" style="stroke:#000000; stroke-width:2; stroke-opacity:0.1; fill:none" points="
  237.112,658.583 2352.76,658.583 
  "/>
<polyline clip-path="url(#clip692)" style="stroke:#000000; stroke-width:2; stroke-opacity:0.1; fill:none" points="
  237.112,336.967 2352.76,336.967 
  "/>
<polyline clip-path="url(#clip690)" style="stroke:#000000; stroke-width:4; stroke-opacity:1; fill:none" points="
  237.112,1410.9 237.112,47.2441 
  "/>
<polyline clip-path="url(#clip690)" style="stroke:#000000; stroke-width:4; stroke-opacity:1; fill:none" points="
  237.112,1301.82 262.499,1301.82 
  "/>
<polyline clip-path="url(#clip690)" style="stroke:#000000; stroke-width:4; stroke-opacity:1; fill:none" points="
  237.112,980.199 262.499,980.199 
  "/>
<polyline clip-path="url(#clip690)" style="stroke:#000000; stroke-width:4; stroke-opacity:1; fill:none" points="
  237.112,658.583 262.499,658.583 
  "/>
<polyline clip-path="url(#clip690)" style="stroke:#000000; stroke-width:4; stroke-opacity:1; fill:none" points="
  237.112,336.967 262.499,336.967 
  "/>
<path clip-path="url(#clip690)" d="M 0 0 M128.195 1299.95 Q125.047 1299.95 123.195 1302.1 Q121.367 1304.26 121.367 1308.01 Q121.367 1311.73 123.195 1313.91 Q125.047 1316.06 128.195 1316.06 Q131.343 1316.06 133.172 1313.91 Q135.024 1311.73 135.024 1308.01 Q135.024 1304.26 133.172 1302.1 Q131.343 1299.95 128.195 1299.95 M137.478 1285.3 L137.478 1289.56 Q135.718 1288.73 133.913 1288.29 Q132.13 1287.85 130.371 1287.85 Q125.742 1287.85 123.288 1290.97 Q120.857 1294.1 120.51 1300.41 Q121.876 1298.4 123.936 1297.34 Q125.996 1296.25 128.473 1296.25 Q133.681 1296.25 136.691 1299.42 Q139.723 1302.57 139.723 1308.01 Q139.723 1313.33 136.575 1316.55 Q133.427 1319.77 128.195 1319.77 Q122.2 1319.77 119.029 1315.18 Q115.857 1310.58 115.857 1301.85 Q115.857 1293.66 119.746 1288.79 Q123.635 1283.91 130.186 1283.91 Q131.945 1283.91 133.728 1284.26 Q135.533 1284.6 137.478 1285.3 Z" fill="#000000" fill-rule="evenodd" fill-opacity="1" /><path clip-path="url(#clip690)" d="M 0 0 M144.792 1313.22 L149.677 1313.22 L149.677 1319.1 L144.792 1319.1 L144.792 1313.22 Z" fill="#000000" fill-rule="evenodd" fill-opacity="1" /><path clip-path="url(#clip690)" d="M 0 0 M158.774 1315.16 L175.093 1315.16 L175.093 1319.1 L153.149 1319.1 L153.149 1315.16 Q155.811 1312.41 160.394 1307.78 Q165.001 1303.12 166.181 1301.78 Q168.427 1299.26 169.306 1297.52 Q170.209 1295.76 170.209 1294.07 Q170.209 1291.32 168.264 1289.58 Q166.343 1287.85 163.241 1287.85 Q161.042 1287.85 158.589 1288.61 Q156.158 1289.37 153.38 1290.92 L153.38 1286.2 Q156.204 1285.07 158.658 1284.49 Q161.112 1283.91 163.149 1283.91 Q168.519 1283.91 171.714 1286.6 Q174.908 1289.28 174.908 1293.77 Q174.908 1295.9 174.098 1297.82 Q173.311 1299.72 171.204 1302.31 Q170.626 1302.98 167.524 1306.2 Q164.422 1309.4 158.774 1315.16 Z" fill="#000000" fill-rule="evenodd" fill-opacity="1" /><path clip-path="url(#clip690)" d="M 0 0 M180.209 1284.54 L198.565 1284.54 L198.565 1288.47 L184.491 1288.47 L184.491 1296.94 Q185.51 1296.6 186.528 1296.43 Q187.547 1296.25 188.565 1296.25 Q194.352 1296.25 197.732 1299.42 Q201.112 1302.59 201.112 1308.01 Q201.112 1313.59 197.639 1316.69 Q194.167 1319.77 187.848 1319.77 Q185.672 1319.77 183.403 1319.4 Q181.158 1319.03 178.751 1318.29 L178.751 1313.59 Q180.834 1314.72 183.056 1315.28 Q185.278 1315.83 187.755 1315.83 Q191.76 1315.83 194.098 1313.73 Q196.436 1311.62 196.436 1308.01 Q196.436 1304.4 194.098 1302.29 Q191.76 1300.18 187.755 1300.18 Q185.88 1300.18 184.005 1300.6 Q182.153 1301.02 180.209 1301.9 L180.209 1284.54 Z" fill="#000000" fill-rule="evenodd" fill-opacity="1" /><path clip-path="url(#clip690)" d="M 0 0 M126.598 978.336 Q123.45 978.336 121.598 980.489 Q119.769 982.641 119.769 986.391 Q119.769 990.118 121.598 992.294 Q123.45 994.447 126.598 994.447 Q129.746 994.447 131.575 992.294 Q133.427 990.118 133.427 986.391 Q133.427 982.641 131.575 980.489 Q129.746 978.336 126.598 978.336 M135.88 963.683 L135.88 967.942 Q134.121 967.109 132.316 966.669 Q130.533 966.229 128.774 966.229 Q124.144 966.229 121.691 969.354 Q119.26 972.479 118.913 978.799 Q120.279 976.785 122.339 975.72 Q124.399 974.632 126.876 974.632 Q132.084 974.632 135.093 977.803 Q138.126 980.952 138.126 986.391 Q138.126 991.715 134.978 994.933 Q131.83 998.151 126.598 998.151 Q120.603 998.151 117.431 993.567 Q114.26 988.961 114.26 980.234 Q114.26 972.04 118.149 967.179 Q122.038 962.294 128.589 962.294 Q130.348 962.294 132.13 962.641 Q133.936 962.989 135.88 963.683 Z" fill="#000000" fill-rule="evenodd" fill-opacity="1" /><path clip-path="url(#clip690)" d="M 0 0 M143.195 991.6 L148.079 991.6 L148.079 997.479 L143.195 997.479 L143.195 991.6 Z" fill="#000000" fill-rule="evenodd" fill-opacity="1" /><path clip-path="url(#clip690)" d="M 0 0 M153.195 962.919 L171.552 962.919 L171.552 966.854 L157.478 966.854 L157.478 975.327 Q158.496 974.979 159.515 974.817 Q160.533 974.632 161.552 974.632 Q167.339 974.632 170.718 977.803 Q174.098 980.975 174.098 986.391 Q174.098 991.97 170.626 995.072 Q167.153 998.151 160.834 998.151 Q158.658 998.151 156.39 997.78 Q154.144 997.41 151.737 996.669 L151.737 991.97 Q153.82 993.104 156.042 993.66 Q158.265 994.215 160.741 994.215 Q164.746 994.215 167.084 992.109 Q169.422 990.002 169.422 986.391 Q169.422 982.78 167.084 980.674 Q164.746 978.567 160.741 978.567 Q158.866 978.567 156.991 978.984 Q155.14 979.401 153.195 980.28 L153.195 962.919 Z" fill="#000000" fill-rule="evenodd" fill-opacity="1" /><path clip-path="url(#clip690)" d="M 0 0 M189.167 965.998 Q185.556 965.998 183.727 969.563 Q181.922 973.104 181.922 980.234 Q181.922 987.34 183.727 990.905 Q185.556 994.447 189.167 994.447 Q192.801 994.447 194.607 990.905 Q196.436 987.34 196.436 980.234 Q196.436 973.104 194.607 969.563 Q192.801 965.998 189.167 965.998 M189.167 962.294 Q194.977 962.294 198.033 966.901 Q201.112 971.484 201.112 980.234 Q201.112 988.961 198.033 993.567 Q194.977 998.151 189.167 998.151 Q183.357 998.151 180.278 993.567 Q177.223 988.961 177.223 980.234 Q177.223 971.484 180.278 966.901 Q183.357 962.294 189.167 962.294 Z" fill="#000000" fill-rule="evenodd" fill-opacity="1" /><path clip-path="url(#clip690)" d="M 0 0 M127.501 656.72 Q124.353 656.72 122.501 658.872 Q120.672 661.025 120.672 664.775 Q120.672 668.502 122.501 670.678 Q124.353 672.831 127.501 672.831 Q130.649 672.831 132.478 670.678 Q134.329 668.502 134.329 664.775 Q134.329 661.025 132.478 658.872 Q130.649 656.72 127.501 656.72 M136.783 642.067 L136.783 646.326 Q135.024 645.493 133.218 645.053 Q131.436 644.613 129.677 644.613 Q125.047 644.613 122.593 647.738 Q120.163 650.863 119.816 657.183 Q121.181 655.169 123.242 654.104 Q125.302 653.016 127.779 653.016 Q132.987 653.016 135.996 656.187 Q139.029 659.335 139.029 664.775 Q139.029 670.099 135.88 673.317 Q132.732 676.534 127.501 676.534 Q121.505 676.534 118.334 671.951 Q115.163 667.345 115.163 658.618 Q115.163 650.423 119.052 645.562 Q122.941 640.678 129.492 640.678 Q131.251 640.678 133.033 641.025 Q134.839 641.373 136.783 642.067 Z" fill="#000000" fill-rule="evenodd" fill-opacity="1" /><path clip-path="url(#clip690)" d="M 0 0 M144.098 669.984 L148.982 669.984 L148.982 675.863 L144.098 675.863 L144.098 669.984 Z" fill="#000000" fill-rule="evenodd" fill-opacity="1" /><path clip-path="url(#clip690)" d="M 0 0 M152.871 641.303 L175.093 641.303 L175.093 643.294 L162.547 675.863 L157.663 675.863 L169.468 645.238 L152.871 645.238 L152.871 641.303 Z" fill="#000000" fill-rule="evenodd" fill-opacity="1" /><path clip-path="url(#clip690)" d="M 0 0 M180.209 641.303 L198.565 641.303 L198.565 645.238 L184.491 645.238 L184.491 653.71 Q185.51 653.363 186.528 653.201 Q187.547 653.016 188.565 653.016 Q194.352 653.016 197.732 656.187 Q201.112 659.359 201.112 664.775 Q201.112 670.354 197.639 673.456 Q194.167 676.534 187.848 676.534 Q185.672 676.534 183.403 676.164 Q181.158 675.794 178.751 675.053 L178.751 670.354 Q180.834 671.488 183.056 672.044 Q185.278 672.599 187.755 672.599 Q191.76 672.599 194.098 670.493 Q196.436 668.386 196.436 664.775 Q196.436 661.164 194.098 659.058 Q191.76 656.951 187.755 656.951 Q185.88 656.951 184.005 657.368 Q182.153 657.784 180.209 658.664 L180.209 641.303 Z" fill="#000000" fill-rule="evenodd" fill-opacity="1" /><path clip-path="url(#clip690)" d="M 0 0 M114.908 319.687 L137.13 319.687 L137.13 321.678 L124.584 354.247 L119.7 354.247 L131.505 323.622 L114.908 323.622 L114.908 319.687 Z" fill="#000000" fill-rule="evenodd" fill-opacity="1" /><path clip-path="url(#clip690)" d="M 0 0 M142.2 348.367 L147.084 348.367 L147.084 354.247 L142.2 354.247 L142.2 348.367 Z" fill="#000000" fill-rule="evenodd" fill-opacity="1" /><path clip-path="url(#clip690)" d="M 0 0 M162.153 322.766 Q158.542 322.766 156.714 326.33 Q154.908 329.872 154.908 337.002 Q154.908 344.108 156.714 347.673 Q158.542 351.215 162.153 351.215 Q165.788 351.215 167.593 347.673 Q169.422 344.108 169.422 337.002 Q169.422 329.872 167.593 326.33 Q165.788 322.766 162.153 322.766 M162.153 319.062 Q167.964 319.062 171.019 323.668 Q174.098 328.252 174.098 337.002 Q174.098 345.728 171.019 350.335 Q167.964 354.918 162.153 354.918 Q156.343 354.918 153.265 350.335 Q150.209 345.728 150.209 337.002 Q150.209 328.252 153.265 323.668 Q156.343 319.062 162.153 319.062 Z" fill="#000000" fill-rule="evenodd" fill-opacity="1" /><path clip-path="url(#clip690)" d="M 0 0 M189.167 322.766 Q185.556 322.766 183.727 326.33 Q181.922 329.872 181.922 337.002 Q181.922 344.108 183.727 347.673 Q185.556 351.215 189.167 351.215 Q192.801 351.215 194.607 347.673 Q196.436 344.108 196.436 337.002 Q196.436 329.872 194.607 326.33 Q192.801 322.766 189.167 322.766 M189.167 319.062 Q194.977 319.062 198.033 323.668 Q201.112 328.252 201.112 337.002 Q201.112 345.728 198.033 350.335 Q194.977 354.918 189.167 354.918 Q183.357 354.918 180.278 350.335 Q177.223 345.728 177.223 337.002 Q177.223 328.252 180.278 323.668 Q183.357 319.062 189.167 319.062 Z" fill="#000000" fill-rule="evenodd" fill-opacity="1" /><path clip-path="url(#clip690)" d="M 0 0 M59.1993 815.533 Q55.2526 813.336 53.3747 810.281 Q51.4968 807.225 51.4968 803.088 Q51.4968 797.518 55.4117 794.494 Q59.2948 791.47 66.4881 791.47 L88.0042 791.47 L88.0042 797.358 L66.679 797.358 Q61.5546 797.358 59.072 799.173 Q56.5894 800.987 56.5894 804.711 Q56.5894 809.262 59.6131 811.904 Q62.6368 814.546 67.8567 814.546 L88.0042 814.546 L88.0042 820.434 L66.679 820.434 Q61.5228 820.434 59.072 822.248 Q56.5894 824.063 56.5894 827.85 Q56.5894 832.338 59.6449 834.98 Q62.6686 837.622 67.8567 837.622 L88.0042 837.622 L88.0042 843.51 L52.3562 843.51 L52.3562 837.622 L57.8944 837.622 Q54.616 835.616 53.0564 832.815 Q51.4968 830.015 51.4968 826.163 Q51.4968 822.28 53.4702 819.575 Q55.4436 816.838 59.1993 815.533 Z" fill="#000000" fill-rule="evenodd" fill-opacity="1" /><path clip-path="url(#clip690)" d="M 0 0 M52.3562 785.327 L52.3562 779.471 L88.0042 779.471 L88.0042 785.327 L52.3562 785.327 M38.479 785.327 L38.479 779.471 L45.895 779.471 L45.895 785.327 L38.479 785.327 Z" fill="#000000" fill-rule="evenodd" fill-opacity="1" /><path clip-path="url(#clip690)" d="M 0 0 M66.4881 743.696 L88.0042 743.696 L88.0042 749.552 L66.679 749.552 Q61.6183 749.552 59.1038 751.525 Q56.5894 753.499 56.5894 757.446 Q56.5894 762.188 59.6131 764.925 Q62.6368 767.662 67.8567 767.662 L88.0042 767.662 L88.0042 773.551 L52.3562 773.551 L52.3562 767.662 L57.8944 767.662 Q54.6797 765.562 53.0883 762.729 Q51.4968 759.864 51.4968 756.141 Q51.4968 749.998 55.3163 746.847 Q59.1038 743.696 66.4881 743.696 Z" fill="#000000" fill-rule="evenodd" fill-opacity="1" /><path clip-path="url(#clip690)" d="M 0 0 M98.8259 710.467 L103.377 710.467 L103.377 744.332 L98.8259 744.332 L98.8259 710.467 Z" fill="#000000" fill-rule="evenodd" fill-opacity="1" /><path clip-path="url(#clip690)" d="M 0 0 M57.7671 680.866 L38.479 680.866 L38.479 675.01 L88.0042 675.01 L88.0042 680.866 L82.657 680.866 Q85.8398 682.712 87.3994 685.545 Q88.9272 688.346 88.9272 692.292 Q88.9272 698.754 83.771 702.828 Q78.6147 706.87 70.212 706.87 Q61.8093 706.87 56.6531 702.828 Q51.4968 698.754 51.4968 692.292 Q51.4968 688.346 53.0564 685.545 Q54.5842 682.712 57.7671 680.866 M70.212 700.823 Q76.6732 700.823 80.3653 698.181 Q84.0256 695.507 84.0256 690.86 Q84.0256 686.213 80.3653 683.54 Q76.6732 680.866 70.212 680.866 Q63.7508 680.866 60.0905 683.54 Q56.3984 686.213 56.3984 690.86 Q56.3984 695.507 60.0905 698.181 Q63.7508 700.823 70.212 700.823 Z" fill="#000000" fill-rule="evenodd" fill-opacity="1" /><path clip-path="url(#clip690)" d="M 0 0 M52.3562 668.867 L52.3562 663.01 L88.0042 663.01 L88.0042 668.867 L52.3562 668.867 M38.479 668.867 L38.479 663.01 L45.895 663.01 L45.895 668.867 L38.479 668.867 Z" fill="#000000" fill-rule="evenodd" fill-opacity="1" /><path clip-path="url(#clip690)" d="M 0 0 M38.479 638.821 L43.3487 638.821 L43.3487 644.422 Q43.3487 647.573 44.6219 648.815 Q45.895 650.024 49.2052 650.024 L52.3562 650.024 L52.3562 640.38 L56.9077 640.38 L56.9077 650.024 L88.0042 650.024 L88.0042 655.912 L56.9077 655.912 L56.9077 661.514 L52.3562 661.514 L52.3562 655.912 L49.8736 655.912 Q43.9216 655.912 41.2162 653.143 Q38.479 650.374 38.479 644.359 L38.479 638.821 Z" fill="#000000" fill-rule="evenodd" fill-opacity="1" /><path clip-path="url(#clip690)" d="M 0 0 M38.479 614.631 L43.3487 614.631 L43.3487 620.233 Q43.3487 623.384 44.6219 624.625 Q45.895 625.835 49.2052 625.835 L52.3562 625.835 L52.3562 616.19 L56.9077 616.19 L56.9077 625.835 L88.0042 625.835 L88.0042 631.723 L56.9077 631.723 L56.9077 637.325 L52.3562 637.325 L52.3562 631.723 L49.8736 631.723 Q43.9216 631.723 41.2162 628.954 Q38.479 626.185 38.479 620.169 L38.479 614.631 Z" fill="#000000" fill-rule="evenodd" fill-opacity="1" /><path clip-path="url(#clip690)" d="
M1996.14 213.659 L2282.23 213.659 L2282.23 92.6992 L1996.14 92.6992  Z
  " fill="#ffffff" fill-rule="evenodd" fill-opacity="1"/>
<polyline clip-path="url(#clip690)" style="stroke:#000000; stroke-width:4; stroke-opacity:1; fill:none" points="
  1996.14,213.659 2282.23,213.659 2282.23,92.6992 1996.14,92.6992 1996.14,213.659 
  "/>
<polyline clip-path="url(#clip690)" style="stroke:#009af9; stroke-width:4; stroke-opacity:1; fill:none" stroke-dasharray="16, 10" points="
  2019.65,153.179 2160.69,153.179 
  "/>
<path clip-path="url(#clip690)" d="M 0 0 M2198.04 172.867 Q2196.24 177.496 2194.53 178.908 Q2192.81 180.32 2189.94 180.32 L2186.54 180.32 L2186.54 176.755 L2189.04 176.755 Q2190.8 176.755 2191.77 175.922 Q2192.74 175.089 2193.92 171.987 L2194.69 170.043 L2184.2 144.533 L2188.72 144.533 L2196.82 164.811 L2204.92 144.533 L2209.43 144.533 L2198.04 172.867 Z" fill="#000000" fill-rule="evenodd" fill-opacity="1" /><path clip-path="url(#clip690)" d="M 0 0 M2215.31 166.524 L2222.95 166.524 L2222.95 140.158 L2214.64 141.825 L2214.64 137.566 L2222.91 135.899 L2227.58 135.899 L2227.58 166.524 L2235.22 166.524 L2235.22 170.459 L2215.31 170.459 L2215.31 166.524 Z" fill="#000000" fill-rule="evenodd" fill-opacity="1" /></svg>
