<?xml version="1.0" encoding="utf-8"?>
<svg xmlns="http://www.w3.org/2000/svg" xmlns:xlink="http://www.w3.org/1999/xlink" width="600" height="400" viewBox="0 0 2400 1600">
<defs>
  <clipPath id="clip060">
    <rect x="0" y="0" width="2400" height="1600"/>
  </clipPath>
</defs>
<path clip-path="url(#clip060)" d="
M0 1600 L2400 1600 L2400 0 L0 0  Z
  " fill="#ffffff" fill-rule="evenodd" fill-opacity="1"/>
<defs>
  <clipPath id="clip061">
    <rect x="480" y="0" width="1681" height="1600"/>
  </clipPath>
</defs>
<path clip-path="url(#clip060)" d="
M211.255 1410.9 L2352.76 1410.9 L2352.76 47.2441 L211.255 47.2441  Z
  " fill="#ffffff" fill-rule="evenodd" fill-opacity="1"/>
<defs>
  <clipPath id="clip062">
    <rect x="211" y="47" width="2143" height="1365"/>
  </clipPath>
</defs>
<polyline clip-path="url(#clip062)" style="stroke:#000000; stroke-width:2; stroke-opacity:0.1; fill:none" points="
  271.864,1410.9 271.864,47.2441 
  "/>
<polyline clip-path="url(#clip062)" style="stroke:#000000; stroke-width:2; stroke-opacity:0.1; fill:none" points="
  939.276,1410.9 939.276,47.2441 
  "/>
<polyline clip-path="url(#clip062)" style="stroke:#000000; stroke-width:2; stroke-opacity:0.1; fill:none" points="
  1606.69,1410.9 1606.69,47.2441 
  "/>
<polyline clip-path="url(#clip062)" style="stroke:#000000; stroke-width:2; stroke-opacity:0.1; fill:none" points="
  2274.1,1410.9 2274.1,47.2441 
  "/>
<polyline clip-path="url(#clip060)" style="stroke:#000000; stroke-width:4; stroke-opacity:1; fill:none" points="
  211.255,1410.9 2352.76,1410.9 
  "/>
<polyline clip-path="url(#clip060)" style="stroke:#000000; stroke-width:4; stroke-opacity:1; fill:none" points="
  271.864,1410.9 271.864,1394.53 
  "/>
<polyline clip-path="url(#clip060)" style="stroke:#000000; stroke-width:4; stroke-opacity:1; fill:none" points="
  939.276,1410.9 939.276,1394.53 
  "/>
<polyline clip-path="url(#clip060)" style="stroke:#000000; stroke-width:4; stroke-opacity:1; fill:none" points="
  1606.69,1410.9 1606.69,1394.53 
  "/>
<polyline clip-path="url(#clip060)" style="stroke:#000000; stroke-width:4; stroke-opacity:1; fill:none" points="
  2274.1,1410.9 2274.1,1394.53 
  "/>
<path clip-path="url(#clip060)" d="M 0 0 M211.593 1489.17 L219.232 1489.17 L219.232 1462.8 L210.922 1464.47 L210.922 1460.21 L219.186 1458.54 L223.862 1458.54 L223.862 1489.17 L231.501 1489.17 L231.501 1493.1 L211.593 1493.1 L211.593 1489.17 Z" fill="#000000" fill-rule="evenodd" fill-opacity="1" /><path clip-path="url(#clip060)" d="M 0 0 M246.57 1461.62 Q242.959 1461.62 241.13 1465.19 Q239.325 1468.73 239.325 1475.86 Q239.325 1482.97 241.13 1486.53 Q242.959 1490.07 246.57 1490.07 Q250.204 1490.07 252.01 1486.53 Q253.839 1482.97 253.839 1475.86 Q253.839 1468.73 252.01 1465.19 Q250.204 1461.62 246.57 1461.62 M246.57 1457.92 Q252.38 1457.92 255.436 1462.53 Q258.515 1467.11 258.515 1475.86 Q258.515 1484.59 255.436 1489.19 Q252.38 1493.78 246.57 1493.78 Q240.76 1493.78 237.681 1489.19 Q234.626 1484.59 234.626 1475.86 Q234.626 1467.11 237.681 1462.53 Q240.76 1457.92 246.57 1457.92 Z" fill="#000000" fill-rule="evenodd" fill-opacity="1" /><path clip-path="url(#clip060)" d="M 0 0 M258.515 1452.02 L282.626 1452.02 L282.626 1455.22 L258.515 1455.22 L258.515 1452.02 Z" fill="#000000" fill-rule="evenodd" fill-opacity="1" /><path clip-path="url(#clip060)" d="M 0 0 M287.403 1462.5 L293.61 1462.5 L293.61 1441.07 L286.858 1442.43 L286.858 1438.97 L293.572 1437.61 L297.371 1437.61 L297.371 1462.5 L303.578 1462.5 L303.578 1465.69 L287.403 1465.69 L287.403 1462.5 Z" fill="#000000" fill-rule="evenodd" fill-opacity="1" /><path clip-path="url(#clip060)" d="M 0 0 M307.697 1460.92 L311.665 1460.92 L311.665 1465.69 L307.697 1465.69 L307.697 1460.92 Z" fill="#000000" fill-rule="evenodd" fill-opacity="1" /><path clip-path="url(#clip060)" d="M 0 0 M315.822 1437.61 L330.736 1437.61 L330.736 1440.81 L319.301 1440.81 L319.301 1447.69 Q320.129 1447.41 320.956 1447.28 Q321.784 1447.13 322.611 1447.13 Q327.313 1447.13 330.059 1449.71 Q332.805 1452.28 332.805 1456.68 Q332.805 1461.22 329.984 1463.74 Q327.163 1466.24 322.028 1466.24 Q320.26 1466.24 318.417 1465.94 Q316.593 1465.64 314.637 1465.04 L314.637 1461.22 Q316.33 1462.14 318.135 1462.59 Q319.941 1463.04 321.953 1463.04 Q325.207 1463.04 327.106 1461.33 Q329.006 1459.62 329.006 1456.68 Q329.006 1453.75 327.106 1452.04 Q325.207 1450.33 321.953 1450.33 Q320.43 1450.33 318.906 1450.67 Q317.402 1451 315.822 1451.72 L315.822 1437.61 Z" fill="#000000" fill-rule="evenodd" fill-opacity="1" /><path clip-path="url(#clip060)" d="M 0 0 M878.601 1489.17 L886.24 1489.17 L886.24 1462.8 L877.93 1464.47 L877.93 1460.21 L886.194 1458.54 L890.869 1458.54 L890.869 1489.17 L898.508 1489.17 L898.508 1493.1 L878.601 1493.1 L878.601 1489.17 Z" fill="#000000" fill-rule="evenodd" fill-opacity="1" /><path clip-path="url(#clip060)" d="M 0 0 M913.578 1461.62 Q909.967 1461.62 908.138 1465.19 Q906.332 1468.73 906.332 1475.86 Q906.332 1482.97 908.138 1486.53 Q909.967 1490.07 913.578 1490.07 Q917.212 1490.07 919.017 1486.53 Q920.846 1482.97 920.846 1475.86 Q920.846 1468.73 919.017 1465.19 Q917.212 1461.62 913.578 1461.62 M913.578 1457.92 Q919.388 1457.92 922.443 1462.53 Q925.522 1467.11 925.522 1475.86 Q925.522 1484.59 922.443 1489.19 Q919.388 1493.78 913.578 1493.78 Q907.768 1493.78 904.689 1489.19 Q901.633 1484.59 901.633 1475.86 Q901.633 1467.11 904.689 1462.53 Q907.768 1457.92 913.578 1457.92 Z" fill="#000000" fill-rule="evenodd" fill-opacity="1" /><path clip-path="url(#clip060)" d="M 0 0 M925.522 1452.02 L949.634 1452.02 L949.634 1455.22 L925.522 1455.22 L925.522 1452.02 Z" fill="#000000" fill-rule="evenodd" fill-opacity="1" /><path clip-path="url(#clip060)" d="M 0 0 M954.411 1462.5 L960.617 1462.5 L960.617 1441.07 L953.865 1442.43 L953.865 1438.97 L960.58 1437.61 L964.379 1437.61 L964.379 1462.5 L970.585 1462.5 L970.585 1465.69 L954.411 1465.69 L954.411 1462.5 Z" fill="#000000" fill-rule="evenodd" fill-opacity="1" /><path clip-path="url(#clip060)" d="M 0 0 M974.704 1460.92 L978.673 1460.92 L978.673 1465.69 L974.704 1465.69 L974.704 1460.92 Z" fill="#000000" fill-rule="evenodd" fill-opacity="1" /><path clip-path="url(#clip060)" d="M 0 0 M990.917 1440.11 Q987.983 1440.11 986.497 1443.01 Q985.03 1445.89 985.03 1451.68 Q985.03 1457.46 986.497 1460.35 Q987.983 1463.23 990.917 1463.23 Q993.869 1463.23 995.336 1460.35 Q996.822 1457.46 996.822 1451.68 Q996.822 1445.89 995.336 1443.01 Q993.869 1440.11 990.917 1440.11 M990.917 1437.11 Q995.637 1437.11 998.12 1440.85 Q1000.62 1444.57 1000.62 1451.68 Q1000.62 1458.77 998.12 1462.51 Q995.637 1466.24 990.917 1466.24 Q986.196 1466.24 983.694 1462.51 Q981.212 1458.77 981.212 1451.68 Q981.212 1444.57 983.694 1440.85 Q986.196 1437.11 990.917 1437.11 Z" fill="#000000" fill-rule="evenodd" fill-opacity="1" /><path clip-path="url(#clip060)" d="M 0 0 M1545.92 1489.17 L1553.56 1489.17 L1553.56 1462.8 L1545.25 1464.47 L1545.25 1460.21 L1553.51 1458.54 L1558.19 1458.54 L1558.19 1489.17 L1565.83 1489.17 L1565.83 1493.1 L1545.92 1493.1 L1545.92 1489.17 Z" fill="#000000" fill-rule="evenodd" fill-opacity="1" /><path clip-path="url(#clip060)" d="M 0 0 M1580.9 1461.62 Q1577.28 1461.62 1575.46 1465.19 Q1573.65 1468.73 1573.65 1475.86 Q1573.65 1482.97 1575.46 1486.53 Q1577.28 1490.07 1580.9 1490.07 Q1584.53 1490.07 1586.34 1486.53 Q1588.16 1482.97 1588.16 1475.86 Q1588.16 1468.73 1586.34 1465.19 Q1584.53 1461.62 1580.9 1461.62 M1580.9 1457.92 Q1586.71 1457.92 1589.76 1462.53 Q1592.84 1467.11 1592.84 1475.86 Q1592.84 1484.59 1589.76 1489.19 Q1586.71 1493.78 1580.9 1493.78 Q1575.09 1493.78 1572.01 1489.19 Q1568.95 1484.59 1568.95 1475.86 Q1568.95 1467.11 1572.01 1462.53 Q1575.09 1457.92 1580.9 1457.92 Z" fill="#000000" fill-rule="evenodd" fill-opacity="1" /><path clip-path="url(#clip060)" d="M 0 0 M1592.84 1452.02 L1616.95 1452.02 L1616.95 1455.22 L1592.84 1455.22 L1592.84 1452.02 Z" fill="#000000" fill-rule="evenodd" fill-opacity="1" /><path clip-path="url(#clip060)" d="M 0 0 M1629.2 1440.11 Q1626.26 1440.11 1624.78 1443.01 Q1623.31 1445.89 1623.31 1451.68 Q1623.31 1457.46 1624.78 1460.35 Q1626.26 1463.23 1629.2 1463.23 Q1632.15 1463.23 1633.62 1460.35 Q1635.1 1457.46 1635.1 1451.68 Q1635.1 1445.89 1633.62 1443.01 Q1632.15 1440.11 1629.2 1440.11 M1629.2 1437.11 Q1633.92 1437.11 1636.4 1440.85 Q1638.9 1444.57 1638.9 1451.68 Q1638.9 1458.77 1636.4 1462.51 Q1633.92 1466.24 1629.2 1466.24 Q1624.47 1466.24 1621.97 1462.51 Q1619.49 1458.77 1619.49 1451.68 Q1619.49 1444.57 1621.97 1440.85 Q1624.47 1437.11 1629.2 1437.11 Z" fill="#000000" fill-rule="evenodd" fill-opacity="1" /><path clip-path="url(#clip060)" d="M 0 0 M1643.02 1460.92 L1646.99 1460.92 L1646.99 1465.69 L1643.02 1465.69 L1643.02 1460.92 Z" fill="#000000" fill-rule="evenodd" fill-opacity="1" /><path clip-path="url(#clip060)" d="M 0 0 M1651.14 1437.61 L1666.06 1437.61 L1666.06 1440.81 L1654.62 1440.81 L1654.62 1447.69 Q1655.45 1447.41 1656.28 1447.28 Q1657.11 1447.13 1657.93 1447.13 Q1662.64 1447.13 1665.38 1449.71 Q1668.13 1452.28 1668.13 1456.68 Q1668.13 1461.22 1665.31 1463.74 Q1662.49 1466.24 1657.35 1466.24 Q1655.58 1466.24 1653.74 1465.94 Q1651.92 1465.64 1649.96 1465.04 L1649.96 1461.22 Q1651.65 1462.14 1653.46 1462.59 Q1655.26 1463.04 1657.28 1463.04 Q1660.53 1463.04 1662.43 1461.33 Q1664.33 1459.62 1664.33 1456.68 Q1664.33 1453.75 1662.43 1452.04 Q1660.53 1450.33 1657.28 1450.33 Q1655.75 1450.33 1654.23 1450.67 Q1652.72 1451 1651.14 1451.72 L1651.14 1437.61 Z" fill="#000000" fill-rule="evenodd" fill-opacity="1" /><path clip-path="url(#clip060)" d="M 0 0 M2226.25 1489.17 L2233.89 1489.17 L2233.89 1462.8 L2225.58 1464.47 L2225.58 1460.21 L2233.84 1458.54 L2238.52 1458.54 L2238.52 1489.17 L2246.16 1489.17 L2246.16 1493.1 L2226.25 1493.1 L2226.25 1489.17 Z" fill="#000000" fill-rule="evenodd" fill-opacity="1" /><path clip-path="url(#clip060)" d="M 0 0 M2261.23 1461.62 Q2257.62 1461.62 2255.79 1465.19 Q2253.98 1468.73 2253.98 1475.86 Q2253.98 1482.97 2255.79 1486.53 Q2257.62 1490.07 2261.23 1490.07 Q2264.86 1490.07 2266.67 1486.53 Q2268.5 1482.97 2268.5 1475.86 Q2268.5 1468.73 2266.67 1465.19 Q2264.86 1461.62 2261.23 1461.62 M2261.23 1457.92 Q2267.04 1457.92 2270.09 1462.53 Q2273.17 1467.11 2273.17 1475.86 Q2273.17 1484.59 2270.09 1489.19 Q2267.04 1493.78 2261.23 1493.78 Q2255.42 1493.78 2252.34 1489.19 Q2249.28 1484.59 2249.28 1475.86 Q2249.28 1467.11 2252.34 1462.53 Q2255.42 1457.92 2261.23 1457.92 Z" fill="#000000" fill-rule="evenodd" fill-opacity="1" /><path clip-path="url(#clip060)" d="M 0 0 M2282.88 1440.11 Q2279.94 1440.11 2278.46 1443.01 Q2276.99 1445.89 2276.99 1451.68 Q2276.99 1457.46 2278.46 1460.35 Q2279.94 1463.23 2282.88 1463.23 Q2285.83 1463.23 2287.3 1460.35 Q2288.78 1457.46 2288.78 1451.68 Q2288.78 1445.89 2287.3 1443.01 Q2285.83 1440.11 2282.88 1440.11 M2282.88 1437.11 Q2287.6 1437.11 2290.08 1440.85 Q2292.58 1444.57 2292.58 1451.68 Q2292.58 1458.77 2290.08 1462.51 Q2287.6 1466.24 2282.88 1466.24 Q2278.16 1466.24 2275.66 1462.51 Q2273.17 1458.77 2273.17 1451.68 Q2273.17 1444.57 2275.66 1440.85 Q2278.16 1437.11 2282.88 1437.11 Z" fill="#000000" fill-rule="evenodd" fill-opacity="1" /><path clip-path="url(#clip060)" d="M 0 0 M2296.7 1460.92 L2300.67 1460.92 L2300.67 1465.69 L2296.7 1465.69 L2296.7 1460.92 Z" fill="#000000" fill-rule="evenodd" fill-opacity="1" /><path clip-path="url(#clip060)" d="M 0 0 M2312.91 1440.11 Q2309.98 1440.11 2308.49 1443.01 Q2307.03 1445.89 2307.03 1451.68 Q2307.03 1457.46 2308.49 1460.35 Q2309.98 1463.23 2312.91 1463.23 Q2315.87 1463.23 2317.33 1460.35 Q2318.82 1457.46 2318.82 1451.68 Q2318.82 1445.89 2317.33 1443.01 Q2315.87 1440.11 2312.91 1440.11 M2312.91 1437.11 Q2317.63 1437.11 2320.12 1440.85 Q2322.62 1444.57 2322.62 1451.68 Q2322.62 1458.77 2320.12 1462.51 Q2317.63 1466.24 2312.91 1466.24 Q2308.19 1466.24 2305.69 1462.51 Q2303.21 1458.77 2303.21 1451.68 Q2303.21 1444.57 2305.69 1440.85 Q2308.19 1437.11 2312.91 1437.11 Z" fill="#000000" fill-rule="evenodd" fill-opacity="1" /><path clip-path="url(#clip060)" d="M 0 0 M1174.78 1526.54 L1180.98 1526.54 L1192.12 1556.46 L1203.26 1526.54 L1209.47 1526.54 L1196.1 1562.19 L1188.14 1562.19 L1174.78 1526.54 Z" fill="#000000" fill-rule="evenodd" fill-opacity="1" /><path clip-path="url(#clip060)" d="M 0 0 M1242.7 1573.01 L1242.7 1577.56 L1208.83 1577.56 L1208.83 1573.01 L1242.7 1573.01 Z" fill="#000000" fill-rule="evenodd" fill-opacity="1" /><path clip-path="url(#clip060)" d="M 0 0 M1262.65 1530.64 Q1257.94 1530.64 1255.21 1534.34 Q1252.47 1538 1252.47 1544.39 Q1252.47 1550.79 1255.17 1554.48 Q1257.91 1558.14 1262.65 1558.14 Q1267.33 1558.14 1270.07 1554.45 Q1272.81 1550.76 1272.81 1544.39 Q1272.81 1538.06 1270.07 1534.37 Q1267.33 1530.64 1262.65 1530.64 M1262.65 1525.68 Q1270.29 1525.68 1274.65 1530.64 Q1279.01 1535.61 1279.01 1544.39 Q1279.01 1553.15 1274.65 1558.14 Q1270.29 1563.11 1262.65 1563.11 Q1254.98 1563.11 1250.62 1558.14 Q1246.29 1553.15 1246.29 1544.39 Q1246.29 1535.61 1250.62 1530.64 Q1254.98 1525.68 1262.65 1525.68 Z" fill="#000000" fill-rule="evenodd" fill-opacity="1" /><path clip-path="url(#clip060)" d="M 0 0 M1290.82 1556.84 L1290.82 1575.74 L1284.93 1575.74 L1284.93 1526.54 L1290.82 1526.54 L1290.82 1531.95 Q1292.67 1528.77 1295.47 1527.24 Q1298.3 1525.68 1302.22 1525.68 Q1308.71 1525.68 1312.75 1530.83 Q1316.83 1535.99 1316.83 1544.39 Q1316.83 1552.8 1312.75 1557.95 Q1308.71 1563.11 1302.22 1563.11 Q1298.3 1563.11 1295.47 1561.58 Q1292.67 1560.02 1290.82 1556.84 M1310.75 1544.39 Q1310.75 1537.93 1308.07 1534.27 Q1305.43 1530.58 1300.78 1530.58 Q1296.14 1530.58 1293.46 1534.27 Q1290.82 1537.93 1290.82 1544.39 Q1290.82 1550.85 1293.46 1554.55 Q1296.14 1558.21 1300.78 1558.21 Q1305.43 1558.21 1308.07 1554.55 Q1310.75 1550.85 1310.75 1544.39 Z" fill="#000000" fill-rule="evenodd" fill-opacity="1" /><path clip-path="url(#clip060)" d="M 0 0 M1353.46 1542.9 L1353.46 1545.76 L1326.53 1545.76 Q1326.92 1551.81 1330.16 1554.99 Q1333.44 1558.14 1339.27 1558.14 Q1342.64 1558.14 1345.79 1557.32 Q1348.97 1556.49 1352.09 1554.83 L1352.09 1560.37 Q1348.94 1561.71 1345.63 1562.41 Q1342.32 1563.11 1338.91 1563.11 Q1330.38 1563.11 1325.39 1558.14 Q1320.42 1553.18 1320.42 1544.71 Q1320.42 1535.96 1325.13 1530.83 Q1329.88 1525.68 1337.9 1525.68 Q1345.09 1525.68 1349.26 1530.33 Q1353.46 1534.94 1353.46 1542.9 M1347.6 1541.18 Q1347.54 1536.37 1344.9 1533.51 Q1342.29 1530.64 1337.96 1530.64 Q1333.06 1530.64 1330.1 1533.41 Q1327.17 1536.18 1326.72 1541.21 L1347.6 1541.18 Z" fill="#000000" fill-rule="evenodd" fill-opacity="1" /><path clip-path="url(#clip060)" d="M 0 0 M1389.24 1540.67 L1389.24 1562.19 L1383.38 1562.19 L1383.38 1540.86 Q1383.38 1535.8 1381.41 1533.29 Q1379.43 1530.77 1375.49 1530.77 Q1370.74 1530.77 1368.01 1533.79 Q1365.27 1536.82 1365.27 1542.04 L1365.27 1562.19 L1359.38 1562.19 L1359.38 1526.54 L1365.27 1526.54 L1365.27 1532.08 Q1367.37 1528.86 1370.2 1527.27 Q1373.07 1525.68 1376.79 1525.68 Q1382.93 1525.68 1386.08 1529.5 Q1389.24 1533.29 1389.24 1540.67 Z" fill="#000000" fill-rule="evenodd" fill-opacity="1" /><polyline clip-path="url(#clip062)" style="stroke:#000000; stroke-width:2; stroke-opacity:0.1; fill:none" points="
  211.255,1259.01 2352.76,1259.01 
  "/>
<polyline clip-path="url(#clip062)" style="stroke:#000000; stroke-width:2; stroke-opacity:0.1; fill:none" points="
  211.255,1001.72 2352.76,1001.72 
  "/>
<polyline clip-path="url(#clip062)" style="stroke:#000000; stroke-width:2; stroke-opacity:0.1; fill:none" points="
  211.255,744.425 2352.76,744.425 
  "/>
<polyline clip-path="url(#clip062)" style="stroke:#000000; stroke-width:2; stroke-opacity:0.1; fill:none" points="
  211.255,487.132 2352.76,487.132 
  "/>
<polyline clip-path="url(#clip062)" style="stroke:#000000; stroke-width:2; stroke-opacity:0.1; fill:none" points="
  211.255,229.839 2352.76,229.839 
  "/>
<polyline clip-path="url(#clip060)" style="stroke:#000000; stroke-width:4; stroke-opacity:1; fill:none" points="
  211.255,1410.9 211.255,47.2441 
  "/>
<polyline clip-path="url(#clip060)" style="stroke:#000000; stroke-width:4; stroke-opacity:1; fill:none" points="
  211.255,1259.01 236.953,1259.01 
  "/>
<polyline clip-path="url(#clip060)" style="stroke:#000000; stroke-width:4; stroke-opacity:1; fill:none" points="
  211.255,1001.72 236.953,1001.72 
  "/>
<polyline clip-path="url(#clip060)" style="stroke:#000000; stroke-width:4; stroke-opacity:1; fill:none" points="
  211.255,744.425 236.953,744.425 
  "/>
<polyline clip-path="url(#clip060)" style="stroke:#000000; stroke-width:4; stroke-opacity:1; fill:none" points="
  211.255,487.132 236.953,487.132 
  "/>
<polyline clip-path="url(#clip060)" style="stroke:#000000; stroke-width:4; stroke-opacity:1; fill:none" points="
  211.255,229.839 236.953,229.839 
  "/>
<path clip-path="url(#clip060)" d="M 0 0 M126.598 1257.15 Q123.45 1257.15 121.598 1259.3 Q119.769 1261.45 119.769 1265.2 Q119.769 1268.93 121.598 1271.11 Q123.45 1273.26 126.598 1273.26 Q129.746 1273.26 131.575 1271.11 Q133.427 1268.93 133.427 1265.2 Q133.427 1261.45 131.575 1259.3 Q129.746 1257.15 126.598 1257.15 M135.88 1242.49 L135.88 1246.75 Q134.121 1245.92 132.316 1245.48 Q130.533 1245.04 128.774 1245.04 Q124.144 1245.04 121.691 1248.17 Q119.26 1251.29 118.913 1257.61 Q120.279 1255.6 122.339 1254.53 Q124.399 1253.44 126.876 1253.44 Q132.084 1253.44 135.093 1256.62 Q138.126 1259.76 138.126 1265.2 Q138.126 1270.53 134.978 1273.74 Q131.83 1276.96 126.598 1276.96 Q120.603 1276.96 117.431 1272.38 Q114.26 1267.77 114.26 1259.05 Q114.26 1250.85 118.149 1245.99 Q122.038 1241.11 128.589 1241.11 Q130.348 1241.11 132.13 1241.45 Q133.936 1241.8 135.88 1242.49 Z" fill="#000000" fill-rule="evenodd" fill-opacity="1" /><path clip-path="url(#clip060)" d="M 0 0 M143.195 1270.41 L148.079 1270.41 L148.079 1276.29 L143.195 1276.29 L143.195 1270.41 Z" fill="#000000" fill-rule="evenodd" fill-opacity="1" /><path clip-path="url(#clip060)" d="M 0 0 M163.727 1257.15 Q160.579 1257.15 158.728 1259.3 Q156.899 1261.45 156.899 1265.2 Q156.899 1268.93 158.728 1271.11 Q160.579 1273.26 163.727 1273.26 Q166.876 1273.26 168.704 1271.11 Q170.556 1268.93 170.556 1265.2 Q170.556 1261.45 168.704 1259.3 Q166.876 1257.15 163.727 1257.15 M173.01 1242.49 L173.01 1246.75 Q171.251 1245.92 169.445 1245.48 Q167.663 1245.04 165.903 1245.04 Q161.274 1245.04 158.82 1248.17 Q156.39 1251.29 156.042 1257.61 Q157.408 1255.6 159.468 1254.53 Q161.528 1253.44 164.005 1253.44 Q169.214 1253.44 172.223 1256.62 Q175.255 1259.76 175.255 1265.2 Q175.255 1270.53 172.107 1273.74 Q168.959 1276.96 163.727 1276.96 Q157.732 1276.96 154.561 1272.38 Q151.39 1267.77 151.39 1259.05 Q151.39 1250.85 155.278 1245.99 Q159.167 1241.11 165.718 1241.11 Q167.477 1241.11 169.26 1241.45 Q171.065 1241.8 173.01 1242.49 Z" fill="#000000" fill-rule="evenodd" fill-opacity="1" /><path clip-path="url(#clip060)" d="M 0 0 M126.853 999.855 Q123.705 999.855 121.853 1002.01 Q120.024 1004.16 120.024 1007.91 Q120.024 1011.64 121.853 1013.81 Q123.705 1015.97 126.853 1015.97 Q130.001 1015.97 131.83 1013.81 Q133.681 1011.64 133.681 1007.91 Q133.681 1004.16 131.83 1002.01 Q130.001 999.855 126.853 999.855 M136.135 985.202 L136.135 989.461 Q134.376 988.628 132.57 988.188 Q130.788 987.748 129.029 987.748 Q124.399 987.748 121.945 990.873 Q119.515 993.998 119.168 1000.32 Q120.533 998.304 122.593 997.239 Q124.654 996.151 127.13 996.151 Q132.339 996.151 135.348 999.322 Q138.38 1002.47 138.38 1007.91 Q138.38 1013.23 135.232 1016.45 Q132.084 1019.67 126.853 1019.67 Q120.857 1019.67 117.686 1015.09 Q114.515 1010.48 114.515 1001.75 Q114.515 993.558 118.404 988.697 Q122.293 983.813 128.843 983.813 Q130.603 983.813 132.385 984.16 Q134.191 984.508 136.135 985.202 Z" fill="#000000" fill-rule="evenodd" fill-opacity="1" /><path clip-path="url(#clip060)" d="M 0 0 M143.45 1013.12 L148.334 1013.12 L148.334 1019 L143.45 1019 L143.45 1013.12 Z" fill="#000000" fill-rule="evenodd" fill-opacity="1" /><path clip-path="url(#clip060)" d="M 0 0 M163.403 1002.59 Q160.07 1002.59 158.149 1004.37 Q156.251 1006.15 156.251 1009.28 Q156.251 1012.4 158.149 1014.18 Q160.07 1015.97 163.403 1015.97 Q166.737 1015.97 168.658 1014.18 Q170.579 1012.38 170.579 1009.28 Q170.579 1006.15 168.658 1004.37 Q166.76 1002.59 163.403 1002.59 M158.728 1000.6 Q155.718 999.855 154.028 997.795 Q152.362 995.734 152.362 992.771 Q152.362 988.628 155.302 986.221 Q158.265 983.813 163.403 983.813 Q168.565 983.813 171.505 986.221 Q174.445 988.628 174.445 992.771 Q174.445 995.734 172.755 997.795 Q171.089 999.855 168.102 1000.6 Q171.482 1001.38 173.357 1003.67 Q175.255 1005.97 175.255 1009.28 Q175.255 1014.3 172.177 1016.98 Q169.121 1019.67 163.403 1019.67 Q157.686 1019.67 154.607 1016.98 Q151.552 1014.3 151.552 1009.28 Q151.552 1005.97 153.45 1003.67 Q155.348 1001.38 158.728 1000.6 M157.015 993.211 Q157.015 995.896 158.681 997.401 Q160.371 998.906 163.403 998.906 Q166.413 998.906 168.102 997.401 Q169.815 995.896 169.815 993.211 Q169.815 990.526 168.102 989.021 Q166.413 987.517 163.403 987.517 Q160.371 987.517 158.681 989.021 Q157.015 990.526 157.015 993.211 Z" fill="#000000" fill-rule="evenodd" fill-opacity="1" /><path clip-path="url(#clip060)" d="M 0 0 M116.066 727.145 L138.288 727.145 L138.288 729.136 L125.742 761.705 L120.857 761.705 L132.663 731.08 L116.066 731.08 L116.066 727.145 Z" fill="#000000" fill-rule="evenodd" fill-opacity="1" /><path clip-path="url(#clip060)" d="M 0 0 M143.357 755.826 L148.241 755.826 L148.241 761.705 L143.357 761.705 L143.357 755.826 Z" fill="#000000" fill-rule="evenodd" fill-opacity="1" /><path clip-path="url(#clip060)" d="M 0 0 M163.311 730.224 Q159.7 730.224 157.871 733.789 Q156.065 737.33 156.065 744.46 Q156.065 751.566 157.871 755.131 Q159.7 758.673 163.311 758.673 Q166.945 758.673 168.751 755.131 Q170.579 751.566 170.579 744.46 Q170.579 737.33 168.751 733.789 Q166.945 730.224 163.311 730.224 M163.311 726.52 Q169.121 726.52 172.177 731.127 Q175.255 735.71 175.255 744.46 Q175.255 753.187 172.177 757.793 Q169.121 762.377 163.311 762.377 Q157.501 762.377 154.422 757.793 Q151.366 753.187 151.366 744.46 Q151.366 735.71 154.422 731.127 Q157.501 726.52 163.311 726.52 Z" fill="#000000" fill-rule="evenodd" fill-opacity="1" /><path clip-path="url(#clip060)" d="M 0 0 M117.663 469.852 L139.885 469.852 L139.885 471.843 L127.339 504.412 L122.455 504.412 L134.26 473.787 L117.663 473.787 L117.663 469.852 Z" fill="#000000" fill-rule="evenodd" fill-opacity="1" /><path clip-path="url(#clip060)" d="M 0 0 M144.954 498.533 L149.839 498.533 L149.839 504.412 L144.954 504.412 L144.954 498.533 Z" fill="#000000" fill-rule="evenodd" fill-opacity="1" /><path clip-path="url(#clip060)" d="M 0 0 M158.936 500.477 L175.255 500.477 L175.255 504.412 L153.311 504.412 L153.311 500.477 Q155.973 497.723 160.556 493.093 Q165.163 488.44 166.343 487.098 Q168.589 484.574 169.468 482.838 Q170.371 481.079 170.371 479.389 Q170.371 476.635 168.427 474.899 Q166.505 473.162 163.403 473.162 Q161.204 473.162 158.751 473.926 Q156.32 474.69 153.542 476.241 L153.542 471.519 Q156.366 470.385 158.82 469.806 Q161.274 469.227 163.311 469.227 Q168.681 469.227 171.876 471.912 Q175.07 474.598 175.07 479.088 Q175.07 481.218 174.26 483.139 Q173.473 485.037 171.366 487.63 Q170.788 488.301 167.686 491.519 Q164.584 494.713 158.936 500.477 Z" fill="#000000" fill-rule="evenodd" fill-opacity="1" /><path clip-path="url(#clip060)" d="M 0 0 M115.58 212.559 L137.802 212.559 L137.802 214.55 L125.255 247.119 L120.371 247.119 L132.177 216.495 L115.58 216.495 L115.58 212.559 Z" fill="#000000" fill-rule="evenodd" fill-opacity="1" /><path clip-path="url(#clip060)" d="M 0 0 M142.871 241.24 L147.755 241.24 L147.755 247.119 L142.871 247.119 L142.871 241.24 Z" fill="#000000" fill-rule="evenodd" fill-opacity="1" /><path clip-path="url(#clip060)" d="M 0 0 M165.672 216.633 L153.866 235.082 L165.672 235.082 L165.672 216.633 M164.445 212.559 L170.325 212.559 L170.325 235.082 L175.255 235.082 L175.255 238.971 L170.325 238.971 L170.325 247.119 L165.672 247.119 L165.672 238.971 L150.07 238.971 L150.07 234.457 L164.445 212.559 Z" fill="#000000" fill-rule="evenodd" fill-opacity="1" /><path clip-path="url(#clip060)" d="M 0 0 M59.1993 815.533 Q55.2526 813.336 53.3747 810.281 Q51.4968 807.225 51.4968 803.088 Q51.4968 797.518 55.4117 794.494 Q59.2948 791.47 66.4881 791.47 L88.0042 791.47 L88.0042 797.358 L66.679 797.358 Q61.5546 797.358 59.072 799.173 Q56.5894 800.987 56.5894 804.711 Q56.5894 809.262 59.6131 811.904 Q62.6368 814.546 67.8567 814.546 L88.0042 814.546 L88.0042 820.434 L66.679 820.434 Q61.5228 820.434 59.072 822.248 Q56.5894 824.063 56.5894 827.85 Q56.5894 832.338 59.6449 834.98 Q62.6686 837.622 67.8567 837.622 L88.0042 837.622 L88.0042 843.51 L52.3562 843.51 L52.3562 837.622 L57.8944 837.622 Q54.616 835.616 53.0564 832.815 Q51.4968 830.015 51.4968 826.163 Q51.4968 822.28 53.4702 819.575 Q55.4436 816.838 59.1993 815.533 Z" fill="#000000" fill-rule="evenodd" fill-opacity="1" /><path clip-path="url(#clip060)" d="M 0 0 M52.3562 785.327 L52.3562 779.471 L88.0042 779.471 L88.0042 785.327 L52.3562 785.327 M38.479 785.327 L38.479 779.471 L45.895 779.471 L45.895 785.327 L38.479 785.327 Z" fill="#000000" fill-rule="evenodd" fill-opacity="1" /><path clip-path="url(#clip060)" d="M 0 0 M66.4881 743.696 L88.0042 743.696 L88.0042 749.552 L66.679 749.552 Q61.6183 749.552 59.1038 751.525 Q56.5894 753.499 56.5894 757.446 Q56.5894 762.188 59.6131 764.925 Q62.6368 767.662 67.8567 767.662 L88.0042 767.662 L88.0042 773.551 L52.3562 773.551 L52.3562 767.662 L57.8944 767.662 Q54.6797 765.562 53.0883 762.729 Q51.4968 759.864 51.4968 756.141 Q51.4968 749.998 55.3163 746.847 Q59.1038 743.696 66.4881 743.696 Z" fill="#000000" fill-rule="evenodd" fill-opacity="1" /><path clip-path="url(#clip060)" d="M 0 0 M98.8259 710.467 L103.377 710.467 L103.377 744.332 L98.8259 744.332 L98.8259 710.467 Z" fill="#000000" fill-rule="evenodd" fill-opacity="1" /><path clip-path="url(#clip060)" d="M 0 0 M57.7671 680.866 L38.479 680.866 L38.479 675.01 L88.0042 675.01 L88.0042 680.866 L82.657 680.866 Q85.8398 682.712 87.3994 685.545 Q88.9272 688.346 88.9272 692.292 Q88.9272 698.754 83.771 702.828 Q78.6147 706.87 70.212 706.87 Q61.8093 706.87 56.6531 702.828 Q51.4968 698.754 51.4968 692.292 Q51.4968 688.346 53.0564 685.545 Q54.5842 682.712 57.7671 680.866 M70.212 700.823 Q76.6732 700.823 80.3653 698.181 Q84.0256 695.507 84.0256 690.86 Q84.0256 686.213 80.3653 683.54 Q76.6732 680.866 70.212 680.866 Q63.7508 680.866 60.0905 683.54 Q56.3984 686.213 56.3984 690.86 Q56.3984 695.507 60.0905 698.181 Q63.7508 700.823 70.212 700.823 Z" fill="#000000" fill-rule="evenodd" fill-opacity="1" /><path clip-path="url(#clip060)" d="M 0 0 M52.3562 668.867 L52.3562 663.01 L88.0042 663.01 L88.0042 668.867 L52.3562 668.867 M38.479 668.867 L38.479 663.01 L45.895 663.01 L45.895 668.867 L38.479 668.867 Z" fill="#000000" fill-rule="evenodd" fill-opacity="1" /><path clip-path="url(#clip060)" d="M 0 0 M38.479 638.821 L43.3487 638.821 L43.3487 644.422 Q43.3487 647.573 44.6219 648.815 Q45.895 650.024 49.2052 650.024 L52.3562 650.024 L52.3562 640.38 L56.9077 640.38 L56.9077 650.024 L88.0042 650.024 L88.0042 655.912 L56.9077 655.912 L56.9077 661.514 L52.3562 661.514 L52.3562 655.912 L49.8736 655.912 Q43.9216 655.912 41.2162 653.143 Q38.479 650.374 38.479 644.359 L38.479 638.821 Z" fill="#000000" fill-rule="evenodd" fill-opacity="1" /><path clip-path="url(#clip060)" d="M 0 0 M38.479 614.631 L43.3487 614.631 L43.3487 620.233 Q43.3487 623.384 44.6219 624.625 Q45.895 625.835 49.2052 625.835 L52.3562 625.835 L52.3562 616.19 L56.9077 616.19 L56.9077 625.835 L88.0042 625.835 L88.0042 631.723 L56.9077 631.723 L56.9077 637.325 L52.3562 637.325 L52.3562 631.723 L49.8736 631.723 Q43.9216 631.723 41.2162 628.954 Q38.479 626.185 38.479 620.169 L38.479 614.631 Z" fill="#000000" fill-rule="evenodd" fill-opacity="1" /><path clip-path="url(#clip060)" d="
M1992.41 213.659 L2281.37 213.659 L2281.37 92.6992 L1992.41 92.6992  Z
  " fill="#ffffff" fill-rule="evenodd" fill-opacity="1"/>
<polyline clip-path="url(#clip060)" style="stroke:#000000; stroke-width:4; stroke-opacity:1; fill:none" points="
  1992.41,213.659 2281.37,213.659 2281.37,92.6992 1992.41,92.6992 1992.41,213.659 
  "/>
<polyline clip-path="url(#clip060)" style="stroke:#009af9; stroke-width:4; stroke-opacity:1; fill:none" stroke-dasharray="16, 10" points="
  2016.2,153.179 2158.97,153.179 
  "/>
<path clip-path="url(#clip060)" d="M 0 0 M2196.61 172.867 Q2194.8 177.496 2193.09 178.908 Q2191.38 180.32 2188.51 180.32 L2185.1 180.32 L2185.1 176.755 L2187.6 176.755 Q2189.36 176.755 2190.33 175.922 Q2191.31 175.089 2192.49 171.987 L2193.25 170.043 L2182.77 144.533 L2187.28 144.533 L2195.38 164.811 L2203.48 144.533 L2208 144.533 L2196.61 172.867 Z" fill="#000000" fill-rule="evenodd" fill-opacity="1" /><path clip-path="url(#clip060)" d="M 0 0 M2213.88 166.524 L2221.52 166.524 L2221.52 140.158 L2213.21 141.825 L2213.21 137.566 L2221.47 135.899 L2226.14 135.899 L2226.14 166.524 L2233.78 166.524 L2233.78 170.459 L2213.88 170.459 L2213.88 166.524 Z" fill="#000000" fill-rule="evenodd" fill-opacity="1" /></svg>
