<?xml version="1.0" encoding="utf-8"?>
<svg xmlns="http://www.w3.org/2000/svg" xmlns:xlink="http://www.w3.org/1999/xlink" width="600" height="400" viewBox="0 0 2400 1600">
<defs>
  <clipPath id="clip520">
    <rect x="0" y="0" width="2400" height="1600"/>
  </clipPath>
</defs>
<path clip-path="url(#clip520)" d="
M0 1600 L2400 1600 L2400 0 L0 0  Z
  " fill="#ffffff" fill-rule="evenodd" fill-opacity="1"/>
<defs>
  <clipPath id="clip521">
    <rect x="480" y="0" width="1681" height="1600"/>
  </clipPath>
</defs>
<path clip-path="url(#clip520)" d="
M212.413 1410.9 L2352.76 1410.9 L2352.76 47.2441 L212.413 47.2441  Z
  " fill="#ffffff" fill-rule="evenodd" fill-opacity="1"/>
<defs>
  <clipPath id="clip522">
    <rect x="212" y="47" width="2141" height="1365"/>
  </clipPath>
</defs>
<polyline clip-path="url(#clip522)" style="stroke:#000000; stroke-width:2; stroke-opacity:0.1; fill:none" points="
  272.988,1410.9 272.988,47.2441 
  "/>
<polyline clip-path="url(#clip522)" style="stroke:#000000; stroke-width:2; stroke-opacity:0.1; fill:none" points="
  777.786,1410.9 777.786,47.2441 
  "/>
<polyline clip-path="url(#clip522)" style="stroke:#000000; stroke-width:2; stroke-opacity:0.1; fill:none" points="
  1282.58,1410.9 1282.58,47.2441 
  "/>
<polyline clip-path="url(#clip522)" style="stroke:#000000; stroke-width:2; stroke-opacity:0.1; fill:none" points="
  1787.38,1410.9 1787.38,47.2441 
  "/>
<polyline clip-path="url(#clip522)" style="stroke:#000000; stroke-width:2; stroke-opacity:0.1; fill:none" points="
  2292.18,1410.9 2292.18,47.2441 
  "/>
<polyline clip-path="url(#clip520)" style="stroke:#000000; stroke-width:4; stroke-opacity:1; fill:none" points="
  212.413,1410.9 2352.76,1410.9 
  "/>
<polyline clip-path="url(#clip520)" style="stroke:#000000; stroke-width:4; stroke-opacity:1; fill:none" points="
  272.988,1410.9 272.988,1394.53 
  "/>
<polyline clip-path="url(#clip520)" style="stroke:#000000; stroke-width:4; stroke-opacity:1; fill:none" points="
  777.786,1410.9 777.786,1394.53 
  "/>
<polyline clip-path="url(#clip520)" style="stroke:#000000; stroke-width:4; stroke-opacity:1; fill:none" points="
  1282.58,1410.9 1282.58,1394.53 
  "/>
<polyline clip-path="url(#clip520)" style="stroke:#000000; stroke-width:4; stroke-opacity:1; fill:none" points="
  1787.38,1410.9 1787.38,1394.53 
  "/>
<polyline clip-path="url(#clip520)" style="stroke:#000000; stroke-width:4; stroke-opacity:1; fill:none" points="
  2292.18,1410.9 2292.18,1394.53 
  "/>
<path clip-path="url(#clip520)" d="M 0 0 M200.775 1489.17 L208.414 1489.17 L208.414 1462.8 L200.104 1464.47 L200.104 1460.21 L208.368 1458.54 L213.044 1458.54 L213.044 1489.17 L220.683 1489.17 L220.683 1493.1 L200.775 1493.1 L200.775 1489.17 Z" fill="#000000" fill-rule="evenodd" fill-opacity="1" /><path clip-path="url(#clip520)" d="M 0 0 M235.752 1461.62 Q232.141 1461.62 230.312 1465.19 Q228.507 1468.73 228.507 1475.86 Q228.507 1482.97 230.312 1486.53 Q232.141 1490.07 235.752 1490.07 Q239.386 1490.07 241.192 1486.53 Q243.02 1482.97 243.02 1475.86 Q243.02 1468.73 241.192 1465.19 Q239.386 1461.62 235.752 1461.62 M235.752 1457.92 Q241.562 1457.92 244.618 1462.53 Q247.696 1467.11 247.696 1475.86 Q247.696 1484.59 244.618 1489.19 Q241.562 1493.78 235.752 1493.78 Q229.942 1493.78 226.863 1489.19 Q223.807 1484.59 223.807 1475.86 Q223.807 1467.11 226.863 1462.53 Q229.942 1457.92 235.752 1457.92 Z" fill="#000000" fill-rule="evenodd" fill-opacity="1" /><path clip-path="url(#clip520)" d="M 0 0 M247.696 1452.02 L271.808 1452.02 L271.808 1455.22 L247.696 1455.22 L247.696 1452.02 Z" fill="#000000" fill-rule="evenodd" fill-opacity="1" /><path clip-path="url(#clip520)" d="M 0 0 M284.522 1450.14 Q281.964 1450.14 280.459 1451.89 Q278.974 1453.64 278.974 1456.68 Q278.974 1459.71 280.459 1461.48 Q281.964 1463.23 284.522 1463.23 Q287.08 1463.23 288.566 1461.48 Q290.07 1459.71 290.07 1456.68 Q290.07 1453.64 288.566 1451.89 Q287.08 1450.14 284.522 1450.14 M292.064 1438.23 L292.064 1441.69 Q290.634 1441.02 289.167 1440.66 Q287.719 1440.3 286.29 1440.3 Q282.528 1440.3 280.535 1442.84 Q278.56 1445.38 278.278 1450.52 Q279.387 1448.88 281.061 1448.01 Q282.735 1447.13 284.748 1447.13 Q288.979 1447.13 291.424 1449.71 Q293.888 1452.26 293.888 1456.68 Q293.888 1461.01 291.33 1463.62 Q288.772 1466.24 284.522 1466.24 Q279.651 1466.24 277.074 1462.51 Q274.497 1458.77 274.497 1451.68 Q274.497 1445.02 277.657 1441.07 Q280.817 1437.11 286.139 1437.11 Q287.569 1437.11 289.017 1437.39 Q290.484 1437.67 292.064 1438.23 Z" fill="#000000" fill-rule="evenodd" fill-opacity="1" /><path clip-path="url(#clip520)" d="M 0 0 M298.007 1460.92 L301.975 1460.92 L301.975 1465.69 L298.007 1465.69 L298.007 1460.92 Z" fill="#000000" fill-rule="evenodd" fill-opacity="1" /><path clip-path="url(#clip520)" d="M 0 0 M314.219 1440.11 Q311.285 1440.11 309.8 1443.01 Q308.332 1445.89 308.332 1451.68 Q308.332 1457.46 309.8 1460.35 Q311.285 1463.23 314.219 1463.23 Q317.172 1463.23 318.639 1460.35 Q320.125 1457.46 320.125 1451.68 Q320.125 1445.89 318.639 1443.01 Q317.172 1440.11 314.219 1440.11 M314.219 1437.11 Q318.94 1437.11 321.423 1440.85 Q323.924 1444.57 323.924 1451.68 Q323.924 1458.77 321.423 1462.51 Q318.94 1466.24 314.219 1466.24 Q309.499 1466.24 306.997 1462.51 Q304.515 1458.77 304.515 1451.68 Q304.515 1444.57 306.997 1440.85 Q309.499 1437.11 314.219 1437.11 Z" fill="#000000" fill-rule="evenodd" fill-opacity="1" /><path clip-path="url(#clip520)" d="M 0 0 M336.168 1440.11 Q333.234 1440.11 331.748 1443.01 Q330.281 1445.89 330.281 1451.68 Q330.281 1457.46 331.748 1460.35 Q333.234 1463.23 336.168 1463.23 Q339.121 1463.23 340.588 1460.35 Q342.074 1457.46 342.074 1451.68 Q342.074 1445.89 340.588 1443.01 Q339.121 1440.11 336.168 1440.11 M336.168 1437.11 Q340.889 1437.11 343.371 1440.85 Q345.873 1444.57 345.873 1451.68 Q345.873 1458.77 343.371 1462.51 Q340.889 1466.24 336.168 1466.24 Q331.447 1466.24 328.946 1462.51 Q326.463 1458.77 326.463 1451.68 Q326.463 1444.57 328.946 1440.85 Q331.447 1437.11 336.168 1437.11 Z" fill="#000000" fill-rule="evenodd" fill-opacity="1" /><path clip-path="url(#clip520)" d="M 0 0 M706.814 1489.17 L714.453 1489.17 L714.453 1462.8 L706.143 1464.47 L706.143 1460.21 L714.407 1458.54 L719.083 1458.54 L719.083 1489.17 L726.722 1489.17 L726.722 1493.1 L706.814 1493.1 L706.814 1489.17 Z" fill="#000000" fill-rule="evenodd" fill-opacity="1" /><path clip-path="url(#clip520)" d="M 0 0 M741.791 1461.62 Q738.18 1461.62 736.351 1465.19 Q734.546 1468.73 734.546 1475.86 Q734.546 1482.97 736.351 1486.53 Q738.18 1490.07 741.791 1490.07 Q745.425 1490.07 747.231 1486.53 Q749.06 1482.97 749.06 1475.86 Q749.06 1468.73 747.231 1465.19 Q745.425 1461.62 741.791 1461.62 M741.791 1457.92 Q747.601 1457.92 750.657 1462.53 Q753.736 1467.11 753.736 1475.86 Q753.736 1484.59 750.657 1489.19 Q747.601 1493.78 741.791 1493.78 Q735.981 1493.78 732.902 1489.19 Q729.847 1484.59 729.847 1475.86 Q729.847 1467.11 732.902 1462.53 Q735.981 1457.92 741.791 1457.92 Z" fill="#000000" fill-rule="evenodd" fill-opacity="1" /><path clip-path="url(#clip520)" d="M 0 0 M753.736 1452.02 L777.847 1452.02 L777.847 1455.22 L753.736 1455.22 L753.736 1452.02 Z" fill="#000000" fill-rule="evenodd" fill-opacity="1" /><path clip-path="url(#clip520)" d="M 0 0 M782.004 1437.61 L796.918 1437.61 L796.918 1440.81 L785.483 1440.81 L785.483 1447.69 Q786.311 1447.41 787.138 1447.28 Q787.966 1447.13 788.793 1447.13 Q793.495 1447.13 796.241 1449.71 Q798.987 1452.28 798.987 1456.68 Q798.987 1461.22 796.166 1463.74 Q793.345 1466.24 788.21 1466.24 Q786.442 1466.24 784.599 1465.94 Q782.775 1465.64 780.819 1465.04 L780.819 1461.22 Q782.511 1462.14 784.317 1462.59 Q786.122 1463.04 788.135 1463.04 Q791.389 1463.04 793.288 1461.33 Q795.188 1459.62 795.188 1456.68 Q795.188 1453.75 793.288 1452.04 Q791.389 1450.33 788.135 1450.33 Q786.611 1450.33 785.088 1450.67 Q783.583 1451 782.004 1451.72 L782.004 1437.61 Z" fill="#000000" fill-rule="evenodd" fill-opacity="1" /><path clip-path="url(#clip520)" d="M 0 0 M803.106 1460.92 L807.074 1460.92 L807.074 1465.69 L803.106 1465.69 L803.106 1460.92 Z" fill="#000000" fill-rule="evenodd" fill-opacity="1" /><path clip-path="url(#clip520)" d="M 0 0 M810.234 1437.61 L828.29 1437.61 L828.29 1439.23 L818.096 1465.69 L814.127 1465.69 L823.719 1440.81 L810.234 1440.81 L810.234 1437.61 Z" fill="#000000" fill-rule="evenodd" fill-opacity="1" /><path clip-path="url(#clip520)" d="M 0 0 M832.446 1437.61 L847.361 1437.61 L847.361 1440.81 L835.925 1440.81 L835.925 1447.69 Q836.753 1447.41 837.581 1447.28 Q838.408 1447.13 839.236 1447.13 Q843.938 1447.13 846.684 1449.71 Q849.429 1452.28 849.429 1456.68 Q849.429 1461.22 846.608 1463.74 Q843.787 1466.24 838.653 1466.24 Q836.885 1466.24 835.041 1465.94 Q833.217 1465.64 831.261 1465.04 L831.261 1461.22 Q832.954 1462.14 834.759 1462.59 Q836.565 1463.04 838.577 1463.04 Q841.831 1463.04 843.731 1461.33 Q845.63 1459.62 845.63 1456.68 Q845.63 1453.75 843.731 1452.04 Q841.831 1450.33 838.577 1450.33 Q837.054 1450.33 835.53 1450.67 Q834.026 1451 832.446 1451.72 L832.446 1437.61 Z" fill="#000000" fill-rule="evenodd" fill-opacity="1" /><path clip-path="url(#clip520)" d="M 0 0 M1211.25 1489.17 L1218.88 1489.17 L1218.88 1462.8 L1210.57 1464.47 L1210.57 1460.21 L1218.84 1458.54 L1223.51 1458.54 L1223.51 1489.17 L1231.15 1489.17 L1231.15 1493.1 L1211.25 1493.1 L1211.25 1489.17 Z" fill="#000000" fill-rule="evenodd" fill-opacity="1" /><path clip-path="url(#clip520)" d="M 0 0 M1246.22 1461.62 Q1242.61 1461.62 1240.78 1465.19 Q1238.98 1468.73 1238.98 1475.86 Q1238.98 1482.97 1240.78 1486.53 Q1242.61 1490.07 1246.22 1490.07 Q1249.86 1490.07 1251.66 1486.53 Q1253.49 1482.97 1253.49 1475.86 Q1253.49 1468.73 1251.66 1465.19 Q1249.86 1461.62 1246.22 1461.62 M1246.22 1457.92 Q1252.03 1457.92 1255.09 1462.53 Q1258.17 1467.11 1258.17 1475.86 Q1258.17 1484.59 1255.09 1489.19 Q1252.03 1493.78 1246.22 1493.78 Q1240.41 1493.78 1237.33 1489.19 Q1234.28 1484.59 1234.28 1475.86 Q1234.28 1467.11 1237.33 1462.53 Q1240.41 1457.92 1246.22 1457.92 Z" fill="#000000" fill-rule="evenodd" fill-opacity="1" /><path clip-path="url(#clip520)" d="M 0 0 M1258.17 1452.02 L1282.28 1452.02 L1282.28 1455.22 L1258.17 1455.22 L1258.17 1452.02 Z" fill="#000000" fill-rule="evenodd" fill-opacity="1" /><path clip-path="url(#clip520)" d="M 0 0 M1286.43 1437.61 L1301.35 1437.61 L1301.35 1440.81 L1289.91 1440.81 L1289.91 1447.69 Q1290.74 1447.41 1291.57 1447.28 Q1292.4 1447.13 1293.22 1447.13 Q1297.93 1447.13 1300.67 1449.71 Q1303.42 1452.28 1303.42 1456.68 Q1303.42 1461.22 1300.6 1463.74 Q1297.78 1466.24 1292.64 1466.24 Q1290.87 1466.24 1289.03 1465.94 Q1287.21 1465.64 1285.25 1465.04 L1285.25 1461.22 Q1286.94 1462.14 1288.75 1462.59 Q1290.55 1463.04 1292.57 1463.04 Q1295.82 1463.04 1297.72 1461.33 Q1299.62 1459.62 1299.62 1456.68 Q1299.62 1453.75 1297.72 1452.04 Q1295.82 1450.33 1292.57 1450.33 Q1291.04 1450.33 1289.52 1450.67 Q1288.01 1451 1286.43 1451.72 L1286.43 1437.61 Z" fill="#000000" fill-rule="evenodd" fill-opacity="1" /><path clip-path="url(#clip520)" d="M 0 0 M1307.54 1460.92 L1311.51 1460.92 L1311.51 1465.69 L1307.54 1465.69 L1307.54 1460.92 Z" fill="#000000" fill-rule="evenodd" fill-opacity="1" /><path clip-path="url(#clip520)" d="M 0 0 M1315.66 1437.61 L1330.58 1437.61 L1330.58 1440.81 L1319.14 1440.81 L1319.14 1447.69 Q1319.97 1447.41 1320.8 1447.28 Q1321.62 1447.13 1322.45 1447.13 Q1327.15 1447.13 1329.9 1449.71 Q1332.65 1452.28 1332.65 1456.68 Q1332.65 1461.22 1329.82 1463.74 Q1327 1466.24 1321.87 1466.24 Q1320.1 1466.24 1318.26 1465.94 Q1316.43 1465.64 1314.48 1465.04 L1314.48 1461.22 Q1316.17 1462.14 1317.98 1462.59 Q1319.78 1463.04 1321.79 1463.04 Q1325.05 1463.04 1326.95 1461.33 Q1328.85 1459.62 1328.85 1456.68 Q1328.85 1453.75 1326.95 1452.04 Q1325.05 1450.33 1321.79 1450.33 Q1320.27 1450.33 1318.75 1450.67 Q1317.24 1451 1315.66 1451.72 L1315.66 1437.61 Z" fill="#000000" fill-rule="evenodd" fill-opacity="1" /><path clip-path="url(#clip520)" d="M 0 0 M1344.89 1440.11 Q1341.96 1440.11 1340.47 1443.01 Q1339 1445.89 1339 1451.68 Q1339 1457.46 1340.47 1460.35 Q1341.96 1463.23 1344.89 1463.23 Q1347.84 1463.23 1349.31 1460.35 Q1350.79 1457.46 1350.79 1451.68 Q1350.79 1445.89 1349.31 1443.01 Q1347.84 1440.11 1344.89 1440.11 M1344.89 1437.11 Q1349.61 1437.11 1352.09 1440.85 Q1354.59 1444.57 1354.59 1451.68 Q1354.59 1458.77 1352.09 1462.51 Q1349.61 1466.24 1344.89 1466.24 Q1340.17 1466.24 1337.67 1462.51 Q1335.18 1458.77 1335.18 1451.68 Q1335.18 1444.57 1337.67 1440.85 Q1340.17 1437.11 1344.89 1437.11 Z" fill="#000000" fill-rule="evenodd" fill-opacity="1" /><path clip-path="url(#clip520)" d="M 0 0 M1716.69 1489.17 L1724.33 1489.17 L1724.33 1462.8 L1716.02 1464.47 L1716.02 1460.21 L1724.29 1458.54 L1728.96 1458.54 L1728.96 1489.17 L1736.6 1489.17 L1736.6 1493.1 L1716.69 1493.1 L1716.69 1489.17 Z" fill="#000000" fill-rule="evenodd" fill-opacity="1" /><path clip-path="url(#clip520)" d="M 0 0 M1751.67 1461.62 Q1748.06 1461.62 1746.23 1465.19 Q1744.42 1468.73 1744.42 1475.86 Q1744.42 1482.97 1746.23 1486.53 Q1748.06 1490.07 1751.67 1490.07 Q1755.3 1490.07 1757.11 1486.53 Q1758.94 1482.97 1758.94 1475.86 Q1758.94 1468.73 1757.11 1465.19 Q1755.3 1461.62 1751.67 1461.62 M1751.67 1457.92 Q1757.48 1457.92 1760.53 1462.53 Q1763.61 1467.11 1763.61 1475.86 Q1763.61 1484.59 1760.53 1489.19 Q1757.48 1493.78 1751.67 1493.78 Q1745.86 1493.78 1742.78 1489.19 Q1739.72 1484.59 1739.72 1475.86 Q1739.72 1467.11 1742.78 1462.53 Q1745.86 1457.92 1751.67 1457.92 Z" fill="#000000" fill-rule="evenodd" fill-opacity="1" /><path clip-path="url(#clip520)" d="M 0 0 M1763.61 1452.02 L1787.73 1452.02 L1787.73 1455.22 L1763.61 1455.22 L1763.61 1452.02 Z" fill="#000000" fill-rule="evenodd" fill-opacity="1" /><path clip-path="url(#clip520)" d="M 0 0 M1791.88 1437.61 L1806.8 1437.61 L1806.8 1440.81 L1795.36 1440.81 L1795.36 1447.69 Q1796.19 1447.41 1797.02 1447.28 Q1797.84 1447.13 1798.67 1447.13 Q1803.37 1447.13 1806.12 1449.71 Q1808.87 1452.28 1808.87 1456.68 Q1808.87 1461.22 1806.04 1463.74 Q1803.22 1466.24 1798.09 1466.24 Q1796.32 1466.24 1794.48 1465.94 Q1792.65 1465.64 1790.7 1465.04 L1790.7 1461.22 Q1792.39 1462.14 1794.19 1462.59 Q1796 1463.04 1798.01 1463.04 Q1801.27 1463.04 1803.17 1461.33 Q1805.07 1459.62 1805.07 1456.68 Q1805.07 1453.75 1803.17 1452.04 Q1801.27 1450.33 1798.01 1450.33 Q1796.49 1450.33 1794.97 1450.67 Q1793.46 1451 1791.88 1451.72 L1791.88 1437.61 Z" fill="#000000" fill-rule="evenodd" fill-opacity="1" /><path clip-path="url(#clip520)" d="M 0 0 M1812.98 1460.92 L1816.95 1460.92 L1816.95 1465.69 L1812.98 1465.69 L1812.98 1460.92 Z" fill="#000000" fill-rule="evenodd" fill-opacity="1" /><path clip-path="url(#clip520)" d="M 0 0 M1824.34 1462.5 L1837.6 1462.5 L1837.6 1465.69 L1819.77 1465.69 L1819.77 1462.5 Q1821.94 1460.26 1825.66 1456.5 Q1829.4 1452.72 1830.36 1451.63 Q1832.19 1449.58 1832.9 1448.16 Q1833.63 1446.74 1833.63 1445.36 Q1833.63 1443.12 1832.05 1441.71 Q1830.49 1440.3 1827.97 1440.3 Q1826.19 1440.3 1824.19 1440.92 Q1822.22 1441.54 1819.96 1442.8 L1819.96 1438.97 Q1822.26 1438.05 1824.25 1437.58 Q1826.24 1437.11 1827.9 1437.11 Q1832.26 1437.11 1834.86 1439.29 Q1837.45 1441.47 1837.45 1445.12 Q1837.45 1446.85 1836.79 1448.41 Q1836.16 1449.95 1834.44 1452.06 Q1833.97 1452.6 1831.45 1455.22 Q1828.93 1457.81 1824.34 1462.5 Z" fill="#000000" fill-rule="evenodd" fill-opacity="1" /><path clip-path="url(#clip520)" d="M 0 0 M1841.76 1437.61 L1856.67 1437.61 L1856.67 1440.81 L1845.24 1440.81 L1845.24 1447.69 Q1846.07 1447.41 1846.89 1447.28 Q1847.72 1447.13 1848.55 1447.13 Q1853.25 1447.13 1856 1449.71 Q1858.74 1452.28 1858.74 1456.68 Q1858.74 1461.22 1855.92 1463.74 Q1853.1 1466.24 1847.97 1466.24 Q1846.2 1466.24 1844.36 1465.94 Q1842.53 1465.64 1840.57 1465.04 L1840.57 1461.22 Q1842.27 1462.14 1844.07 1462.59 Q1845.88 1463.04 1847.89 1463.04 Q1851.14 1463.04 1853.04 1461.33 Q1854.94 1459.62 1854.94 1456.68 Q1854.94 1453.75 1853.04 1452.04 Q1851.14 1450.33 1847.89 1450.33 Q1846.37 1450.33 1844.84 1450.67 Q1843.34 1451 1841.76 1451.72 L1841.76 1437.61 Z" fill="#000000" fill-rule="evenodd" fill-opacity="1" /><path clip-path="url(#clip520)" d="M 0 0 M2220.44 1489.17 L2228.08 1489.17 L2228.08 1462.8 L2219.77 1464.47 L2219.77 1460.21 L2228.03 1458.54 L2232.71 1458.54 L2232.71 1489.17 L2240.34 1489.17 L2240.34 1493.1 L2220.44 1493.1 L2220.44 1489.17 Z" fill="#000000" fill-rule="evenodd" fill-opacity="1" /><path clip-path="url(#clip520)" d="M 0 0 M2255.41 1461.62 Q2251.8 1461.62 2249.97 1465.19 Q2248.17 1468.73 2248.17 1475.86 Q2248.17 1482.97 2249.97 1486.53 Q2251.8 1490.07 2255.41 1490.07 Q2259.05 1490.07 2260.85 1486.53 Q2262.68 1482.97 2262.68 1475.86 Q2262.68 1468.73 2260.85 1465.19 Q2259.05 1461.62 2255.41 1461.62 M2255.41 1457.92 Q2261.22 1457.92 2264.28 1462.53 Q2267.36 1467.11 2267.36 1475.86 Q2267.36 1484.59 2264.28 1489.19 Q2261.22 1493.78 2255.41 1493.78 Q2249.6 1493.78 2246.53 1489.19 Q2243.47 1484.59 2243.47 1475.86 Q2243.47 1467.11 2246.53 1462.53 Q2249.6 1457.92 2255.41 1457.92 Z" fill="#000000" fill-rule="evenodd" fill-opacity="1" /><path clip-path="url(#clip520)" d="M 0 0 M2267.36 1452.02 L2291.47 1452.02 L2291.47 1455.22 L2267.36 1455.22 L2267.36 1452.02 Z" fill="#000000" fill-rule="evenodd" fill-opacity="1" /><path clip-path="url(#clip520)" d="M 0 0 M2295.63 1437.61 L2310.54 1437.61 L2310.54 1440.81 L2299.11 1440.81 L2299.11 1447.69 Q2299.93 1447.41 2300.76 1447.28 Q2301.59 1447.13 2302.42 1447.13 Q2307.12 1447.13 2309.86 1449.71 Q2312.61 1452.28 2312.61 1456.68 Q2312.61 1461.22 2309.79 1463.74 Q2306.97 1466.24 2301.83 1466.24 Q2300.06 1466.24 2298.22 1465.94 Q2296.4 1465.64 2294.44 1465.04 L2294.44 1461.22 Q2296.13 1462.14 2297.94 1462.59 Q2299.75 1463.04 2301.76 1463.04 Q2305.01 1463.04 2306.91 1461.33 Q2308.81 1459.62 2308.81 1456.68 Q2308.81 1453.75 2306.91 1452.04 Q2305.01 1450.33 2301.76 1450.33 Q2300.23 1450.33 2298.71 1450.67 Q2297.21 1451 2295.63 1451.72 L2295.63 1437.61 Z" fill="#000000" fill-rule="evenodd" fill-opacity="1" /><path clip-path="url(#clip520)" d="M 0 0 M2316.73 1460.92 L2320.7 1460.92 L2320.7 1465.69 L2316.73 1465.69 L2316.73 1460.92 Z" fill="#000000" fill-rule="evenodd" fill-opacity="1" /><path clip-path="url(#clip520)" d="M 0 0 M2332.94 1440.11 Q2330.01 1440.11 2328.52 1443.01 Q2327.05 1445.89 2327.05 1451.68 Q2327.05 1457.46 2328.52 1460.35 Q2330.01 1463.23 2332.94 1463.23 Q2335.89 1463.23 2337.36 1460.35 Q2338.85 1457.46 2338.85 1451.68 Q2338.85 1445.89 2337.36 1443.01 Q2335.89 1440.11 2332.94 1440.11 M2332.94 1437.11 Q2337.66 1437.11 2340.14 1440.85 Q2342.65 1444.57 2342.65 1451.68 Q2342.65 1458.77 2340.14 1462.51 Q2337.66 1466.24 2332.94 1466.24 Q2328.22 1466.24 2325.72 1462.51 Q2323.24 1458.77 2323.24 1451.68 Q2323.24 1444.57 2325.72 1440.85 Q2328.22 1437.11 2332.94 1437.11 Z" fill="#000000" fill-rule="evenodd" fill-opacity="1" /><path clip-path="url(#clip520)" d="M 0 0 M2354.89 1440.11 Q2351.96 1440.11 2350.47 1443.01 Q2349 1445.89 2349 1451.68 Q2349 1457.46 2350.47 1460.35 Q2351.96 1463.23 2354.89 1463.23 Q2357.84 1463.23 2359.31 1460.35 Q2360.8 1457.46 2360.8 1451.68 Q2360.8 1445.89 2359.31 1443.01 Q2357.84 1440.11 2354.89 1440.11 M2354.89 1437.11 Q2359.61 1437.11 2362.09 1440.85 Q2364.59 1444.57 2364.59 1451.68 Q2364.59 1458.77 2362.09 1462.51 Q2359.61 1466.24 2354.89 1466.24 Q2350.17 1466.24 2347.67 1462.51 Q2345.18 1458.77 2345.18 1451.68 Q2345.18 1444.57 2347.67 1440.85 Q2350.17 1437.11 2354.89 1437.11 Z" fill="#000000" fill-rule="evenodd" fill-opacity="1" /><path clip-path="url(#clip520)" d="M 0 0 M1214.11 1512.66 L1219.99 1512.66 L1219.99 1541.91 L1237.47 1526.54 L1244.95 1526.54 L1226.04 1543.22 L1245.74 1562.19 L1238.1 1562.19 L1219.99 1544.78 L1219.99 1562.19 L1214.11 1562.19 L1214.11 1512.66 Z" fill="#000000" fill-rule="evenodd" fill-opacity="1" /><path clip-path="url(#clip520)" d="M 0 0 M1278.97 1573.01 L1278.97 1577.56 L1245.11 1577.56 L1245.11 1573.01 L1278.97 1573.01 Z" fill="#000000" fill-rule="evenodd" fill-opacity="1" /><path clip-path="url(#clip520)" d="M 0 0 M1298.93 1530.64 Q1294.22 1530.64 1291.48 1534.34 Q1288.74 1538 1288.74 1544.39 Q1288.74 1550.79 1291.45 1554.48 Q1294.19 1558.14 1298.93 1558.14 Q1303.61 1558.14 1306.34 1554.45 Q1309.08 1550.76 1309.08 1544.39 Q1309.08 1538.06 1306.34 1534.37 Q1303.61 1530.64 1298.93 1530.64 M1298.93 1525.68 Q1306.57 1525.68 1310.93 1530.64 Q1315.29 1535.61 1315.29 1544.39 Q1315.29 1553.15 1310.93 1558.14 Q1306.57 1563.11 1298.93 1563.11 Q1291.26 1563.11 1286.9 1558.14 Q1282.57 1553.15 1282.57 1544.39 Q1282.57 1535.61 1286.9 1530.64 Q1291.26 1525.68 1298.93 1525.68 Z" fill="#000000" fill-rule="evenodd" fill-opacity="1" /><path clip-path="url(#clip520)" d="M 0 0 M1351.06 1540.67 L1351.06 1562.19 L1345.21 1562.19 L1345.21 1540.86 Q1345.21 1535.8 1343.23 1533.29 Q1341.26 1530.77 1337.31 1530.77 Q1332.57 1530.77 1329.83 1533.79 Q1327.1 1536.82 1327.1 1542.04 L1327.1 1562.19 L1321.21 1562.19 L1321.21 1526.54 L1327.1 1526.54 L1327.1 1532.08 Q1329.2 1528.86 1332.03 1527.27 Q1334.89 1525.68 1338.62 1525.68 Q1344.76 1525.68 1347.91 1529.5 Q1351.06 1533.29 1351.06 1540.67 Z" fill="#000000" fill-rule="evenodd" fill-opacity="1" /><polyline clip-path="url(#clip522)" style="stroke:#000000; stroke-width:2; stroke-opacity:0.1; fill:none" points="
  212.413,1369.47 2352.76,1369.47 
  "/>
<polyline clip-path="url(#clip522)" style="stroke:#000000; stroke-width:2; stroke-opacity:0.1; fill:none" points="
  212.413,1140.07 2352.76,1140.07 
  "/>
<polyline clip-path="url(#clip522)" style="stroke:#000000; stroke-width:2; stroke-opacity:0.1; fill:none" points="
  212.413,910.666 2352.76,910.666 
  "/>
<polyline clip-path="url(#clip522)" style="stroke:#000000; stroke-width:2; stroke-opacity:0.1; fill:none" points="
  212.413,681.262 2352.76,681.262 
  "/>
<polyline clip-path="url(#clip522)" style="stroke:#000000; stroke-width:2; stroke-opacity:0.1; fill:none" points="
  212.413,451.858 2352.76,451.858 
  "/>
<polyline clip-path="url(#clip522)" style="stroke:#000000; stroke-width:2; stroke-opacity:0.1; fill:none" points="
  212.413,222.455 2352.76,222.455 
  "/>
<polyline clip-path="url(#clip520)" style="stroke:#000000; stroke-width:4; stroke-opacity:1; fill:none" points="
  212.413,1410.9 212.413,47.2441 
  "/>
<polyline clip-path="url(#clip520)" style="stroke:#000000; stroke-width:4; stroke-opacity:1; fill:none" points="
  212.413,1369.47 238.097,1369.47 
  "/>
<polyline clip-path="url(#clip520)" style="stroke:#000000; stroke-width:4; stroke-opacity:1; fill:none" points="
  212.413,1140.07 238.097,1140.07 
  "/>
<polyline clip-path="url(#clip520)" style="stroke:#000000; stroke-width:4; stroke-opacity:1; fill:none" points="
  212.413,910.666 238.097,910.666 
  "/>
<polyline clip-path="url(#clip520)" style="stroke:#000000; stroke-width:4; stroke-opacity:1; fill:none" points="
  212.413,681.262 238.097,681.262 
  "/>
<polyline clip-path="url(#clip520)" style="stroke:#000000; stroke-width:4; stroke-opacity:1; fill:none" points="
  212.413,451.858 238.097,451.858 
  "/>
<polyline clip-path="url(#clip520)" style="stroke:#000000; stroke-width:4; stroke-opacity:1; fill:none" points="
  212.413,222.455 238.097,222.455 
  "/>
<path clip-path="url(#clip520)" d="M 0 0 M133.311 1368.12 Q136.667 1368.84 138.542 1371.11 Q140.441 1373.37 140.441 1376.71 Q140.441 1381.82 136.922 1384.62 Q133.404 1387.42 126.922 1387.42 Q124.746 1387.42 122.431 1386.98 Q120.14 1386.57 117.686 1385.71 L117.686 1381.2 Q119.63 1382.33 121.945 1382.91 Q124.26 1383.49 126.783 1383.49 Q131.181 1383.49 133.473 1381.75 Q135.788 1380.02 135.788 1376.71 Q135.788 1373.65 133.635 1371.94 Q131.505 1370.2 127.686 1370.2 L123.658 1370.2 L123.658 1366.36 L127.871 1366.36 Q131.32 1366.36 133.149 1364.99 Q134.978 1363.61 134.978 1361.01 Q134.978 1358.35 133.08 1356.94 Q131.205 1355.5 127.686 1355.5 Q125.765 1355.5 123.566 1355.92 Q121.367 1356.34 118.728 1357.22 L118.728 1353.05 Q121.39 1352.31 123.705 1351.94 Q126.043 1351.57 128.103 1351.57 Q133.427 1351.57 136.529 1354 Q139.63 1356.41 139.63 1360.53 Q139.63 1363.4 137.987 1365.39 Q136.343 1367.36 133.311 1368.12 Z" fill="#000000" fill-rule="evenodd" fill-opacity="1" /><path clip-path="url(#clip520)" d="M 0 0 M145.51 1380.87 L150.394 1380.87 L150.394 1386.75 L145.51 1386.75 L145.51 1380.87 Z" fill="#000000" fill-rule="evenodd" fill-opacity="1" /><path clip-path="url(#clip520)" d="M 0 0 M155.51 1352.19 L173.866 1352.19 L173.866 1356.13 L159.792 1356.13 L159.792 1364.6 Q160.811 1364.25 161.829 1364.09 Q162.848 1363.91 163.866 1363.91 Q169.653 1363.91 173.033 1367.08 Q176.413 1370.25 176.413 1375.67 Q176.413 1381.24 172.94 1384.35 Q169.468 1387.42 163.149 1387.42 Q160.973 1387.42 158.704 1387.05 Q156.459 1386.68 154.052 1385.94 L154.052 1381.24 Q156.135 1382.38 158.357 1382.93 Q160.579 1383.49 163.056 1383.49 Q167.061 1383.49 169.399 1381.38 Q171.737 1379.28 171.737 1375.67 Q171.737 1372.05 169.399 1369.95 Q167.061 1367.84 163.056 1367.84 Q161.181 1367.84 159.306 1368.26 Q157.454 1368.67 155.51 1369.55 L155.51 1352.19 Z" fill="#000000" fill-rule="evenodd" fill-opacity="1" /><path clip-path="url(#clip520)" d="M 0 0 M129.862 1126.86 L118.056 1145.31 L129.862 1145.31 L129.862 1126.86 M128.635 1122.79 L134.515 1122.79 L134.515 1145.31 L139.445 1145.31 L139.445 1149.2 L134.515 1149.2 L134.515 1157.35 L129.862 1157.35 L129.862 1149.2 L114.26 1149.2 L114.26 1144.69 L128.635 1122.79 Z" fill="#000000" fill-rule="evenodd" fill-opacity="1" /><path clip-path="url(#clip520)" d="M 0 0 M144.515 1151.47 L149.399 1151.47 L149.399 1157.35 L144.515 1157.35 L144.515 1151.47 Z" fill="#000000" fill-rule="evenodd" fill-opacity="1" /><path clip-path="url(#clip520)" d="M 0 0 M164.468 1125.87 Q160.857 1125.87 159.028 1129.43 Q157.223 1132.97 157.223 1140.1 Q157.223 1147.21 159.028 1150.78 Q160.857 1154.32 164.468 1154.32 Q168.102 1154.32 169.908 1150.78 Q171.737 1147.21 171.737 1140.1 Q171.737 1132.97 169.908 1129.43 Q168.102 1125.87 164.468 1125.87 M164.468 1122.16 Q170.278 1122.16 173.334 1126.77 Q176.413 1131.35 176.413 1140.1 Q176.413 1148.83 173.334 1153.44 Q170.278 1158.02 164.468 1158.02 Q158.658 1158.02 155.579 1153.44 Q152.524 1148.83 152.524 1140.1 Q152.524 1131.35 155.579 1126.77 Q158.658 1122.16 164.468 1122.16 Z" fill="#000000" fill-rule="evenodd" fill-opacity="1" /><path clip-path="url(#clip520)" d="M 0 0 M130.857 897.46 L119.052 915.909 L130.857 915.909 L130.857 897.46 M129.63 893.386 L135.51 893.386 L135.51 915.909 L140.441 915.909 L140.441 919.798 L135.51 919.798 L135.51 927.946 L130.857 927.946 L130.857 919.798 L115.256 919.798 L115.256 915.284 L129.63 893.386 Z" fill="#000000" fill-rule="evenodd" fill-opacity="1" /><path clip-path="url(#clip520)" d="M 0 0 M145.51 922.066 L150.394 922.066 L150.394 927.946 L145.51 927.946 L145.51 922.066 Z" fill="#000000" fill-rule="evenodd" fill-opacity="1" /><path clip-path="url(#clip520)" d="M 0 0 M155.51 893.386 L173.866 893.386 L173.866 897.321 L159.792 897.321 L159.792 905.793 Q160.811 905.446 161.829 905.284 Q162.848 905.099 163.866 905.099 Q169.653 905.099 173.033 908.27 Q176.413 911.441 176.413 916.858 Q176.413 922.437 172.94 925.538 Q169.468 928.617 163.149 928.617 Q160.973 928.617 158.704 928.247 Q156.459 927.876 154.052 927.136 L154.052 922.437 Q156.135 923.571 158.357 924.126 Q160.579 924.682 163.056 924.682 Q167.061 924.682 169.399 922.575 Q171.737 920.469 171.737 916.858 Q171.737 913.247 169.399 911.14 Q167.061 909.034 163.056 909.034 Q161.181 909.034 159.306 909.451 Q157.454 909.867 155.51 910.747 L155.51 893.386 Z" fill="#000000" fill-rule="evenodd" fill-opacity="1" /><path clip-path="url(#clip520)" d="M 0 0 M118.543 663.982 L136.899 663.982 L136.899 667.917 L122.825 667.917 L122.825 676.389 Q123.843 676.042 124.862 675.88 Q125.88 675.695 126.899 675.695 Q132.686 675.695 136.066 678.866 Q139.445 682.038 139.445 687.454 Q139.445 693.033 135.973 696.135 Q132.501 699.213 126.181 699.213 Q124.005 699.213 121.737 698.843 Q119.492 698.473 117.084 697.732 L117.084 693.033 Q119.168 694.167 121.39 694.723 Q123.612 695.278 126.089 695.278 Q130.093 695.278 132.431 693.172 Q134.769 691.065 134.769 687.454 Q134.769 683.843 132.431 681.737 Q130.093 679.63 126.089 679.63 Q124.214 679.63 122.339 680.047 Q120.487 680.463 118.543 681.343 L118.543 663.982 Z" fill="#000000" fill-rule="evenodd" fill-opacity="1" /><path clip-path="url(#clip520)" d="M 0 0 M144.515 692.662 L149.399 692.662 L149.399 698.542 L144.515 698.542 L144.515 692.662 Z" fill="#000000" fill-rule="evenodd" fill-opacity="1" /><path clip-path="url(#clip520)" d="M 0 0 M164.468 667.061 Q160.857 667.061 159.028 670.626 Q157.223 674.167 157.223 681.297 Q157.223 688.403 159.028 691.968 Q160.857 695.51 164.468 695.51 Q168.102 695.51 169.908 691.968 Q171.737 688.403 171.737 681.297 Q171.737 674.167 169.908 670.626 Q168.102 667.061 164.468 667.061 M164.468 663.357 Q170.278 663.357 173.334 667.964 Q176.413 672.547 176.413 681.297 Q176.413 690.024 173.334 694.63 Q170.278 699.213 164.468 699.213 Q158.658 699.213 155.579 694.63 Q152.524 690.024 152.524 681.297 Q152.524 672.547 155.579 667.964 Q158.658 663.357 164.468 663.357 Z" fill="#000000" fill-rule="evenodd" fill-opacity="1" /><path clip-path="url(#clip520)" d="M 0 0 M119.538 434.578 L137.894 434.578 L137.894 438.514 L123.82 438.514 L123.82 446.986 Q124.839 446.639 125.857 446.476 Q126.876 446.291 127.894 446.291 Q133.681 446.291 137.061 449.463 Q140.441 452.634 140.441 458.05 Q140.441 463.629 136.968 466.731 Q133.496 469.81 127.177 469.81 Q125.001 469.81 122.732 469.439 Q120.487 469.069 118.08 468.328 L118.08 463.629 Q120.163 464.763 122.385 465.319 Q124.607 465.875 127.084 465.875 Q131.089 465.875 133.427 463.768 Q135.765 461.662 135.765 458.05 Q135.765 454.439 133.427 452.333 Q131.089 450.226 127.084 450.226 Q125.209 450.226 123.334 450.643 Q121.482 451.06 119.538 451.939 L119.538 434.578 Z" fill="#000000" fill-rule="evenodd" fill-opacity="1" /><path clip-path="url(#clip520)" d="M 0 0 M145.51 463.259 L150.394 463.259 L150.394 469.138 L145.51 469.138 L145.51 463.259 Z" fill="#000000" fill-rule="evenodd" fill-opacity="1" /><path clip-path="url(#clip520)" d="M 0 0 M155.51 434.578 L173.866 434.578 L173.866 438.514 L159.792 438.514 L159.792 446.986 Q160.811 446.639 161.829 446.476 Q162.848 446.291 163.866 446.291 Q169.653 446.291 173.033 449.463 Q176.413 452.634 176.413 458.05 Q176.413 463.629 172.94 466.731 Q169.468 469.81 163.149 469.81 Q160.973 469.81 158.704 469.439 Q156.459 469.069 154.052 468.328 L154.052 463.629 Q156.135 464.763 158.357 465.319 Q160.579 465.875 163.056 465.875 Q167.061 465.875 169.399 463.768 Q171.737 461.662 171.737 458.05 Q171.737 454.439 169.399 452.333 Q167.061 450.226 163.056 450.226 Q161.181 450.226 159.306 450.643 Q157.454 451.06 155.51 451.939 L155.51 434.578 Z" fill="#000000" fill-rule="evenodd" fill-opacity="1" /><path clip-path="url(#clip520)" d="M 0 0 M127.917 220.591 Q124.769 220.591 122.918 222.744 Q121.089 224.897 121.089 228.647 Q121.089 232.374 122.918 234.55 Q124.769 236.702 127.917 236.702 Q131.066 236.702 132.894 234.55 Q134.746 232.374 134.746 228.647 Q134.746 224.897 132.894 222.744 Q131.066 220.591 127.917 220.591 M137.2 205.939 L137.2 210.198 Q135.441 209.365 133.635 208.925 Q131.853 208.485 130.093 208.485 Q125.464 208.485 123.01 211.61 Q120.58 214.735 120.232 221.054 Q121.598 219.04 123.658 217.976 Q125.718 216.888 128.195 216.888 Q133.404 216.888 136.413 220.059 Q139.445 223.207 139.445 228.647 Q139.445 233.971 136.297 237.188 Q133.149 240.406 127.917 240.406 Q121.922 240.406 118.751 235.823 Q115.58 231.216 115.58 222.489 Q115.58 214.295 119.468 209.434 Q123.357 204.55 129.908 204.55 Q131.667 204.55 133.45 204.897 Q135.255 205.244 137.2 205.939 Z" fill="#000000" fill-rule="evenodd" fill-opacity="1" /><path clip-path="url(#clip520)" d="M 0 0 M144.515 233.855 L149.399 233.855 L149.399 239.735 L144.515 239.735 L144.515 233.855 Z" fill="#000000" fill-rule="evenodd" fill-opacity="1" /><path clip-path="url(#clip520)" d="M 0 0 M164.468 208.253 Q160.857 208.253 159.028 211.818 Q157.223 215.36 157.223 222.489 Q157.223 229.596 159.028 233.161 Q160.857 236.702 164.468 236.702 Q168.102 236.702 169.908 233.161 Q171.737 229.596 171.737 222.489 Q171.737 215.36 169.908 211.818 Q168.102 208.253 164.468 208.253 M164.468 204.55 Q170.278 204.55 173.334 209.156 Q176.413 213.739 176.413 222.489 Q176.413 231.216 173.334 235.823 Q170.278 240.406 164.468 240.406 Q158.658 240.406 155.579 235.823 Q152.524 231.216 152.524 222.489 Q152.524 213.739 155.579 209.156 Q158.658 204.55 164.468 204.55 Z" fill="#000000" fill-rule="evenodd" fill-opacity="1" /><path clip-path="url(#clip520)" d="M 0 0 M59.1993 815.533 Q55.2526 813.336 53.3747 810.281 Q51.4968 807.225 51.4968 803.088 Q51.4968 797.518 55.4117 794.494 Q59.2948 791.47 66.4881 791.47 L88.0042 791.47 L88.0042 797.358 L66.679 797.358 Q61.5546 797.358 59.072 799.173 Q56.5894 800.987 56.5894 804.711 Q56.5894 809.262 59.6131 811.904 Q62.6368 814.546 67.8567 814.546 L88.0042 814.546 L88.0042 820.434 L66.679 820.434 Q61.5228 820.434 59.072 822.248 Q56.5894 824.063 56.5894 827.85 Q56.5894 832.338 59.6449 834.98 Q62.6686 837.622 67.8567 837.622 L88.0042 837.622 L88.0042 843.51 L52.3562 843.51 L52.3562 837.622 L57.8944 837.622 Q54.616 835.616 53.0564 832.815 Q51.4968 830.015 51.4968 826.163 Q51.4968 822.28 53.4702 819.575 Q55.4436 816.838 59.1993 815.533 Z" fill="#000000" fill-rule="evenodd" fill-opacity="1" /><path clip-path="url(#clip520)" d="M 0 0 M52.3562 785.327 L52.3562 779.471 L88.0042 779.471 L88.0042 785.327 L52.3562 785.327 M38.479 785.327 L38.479 779.471 L45.895 779.471 L45.895 785.327 L38.479 785.327 Z" fill="#000000" fill-rule="evenodd" fill-opacity="1" /><path clip-path="url(#clip520)" d="M 0 0 M66.4881 743.696 L88.0042 743.696 L88.0042 749.552 L66.679 749.552 Q61.6183 749.552 59.1038 751.525 Q56.5894 753.499 56.5894 757.446 Q56.5894 762.188 59.6131 764.925 Q62.6368 767.662 67.8567 767.662 L88.0042 767.662 L88.0042 773.551 L52.3562 773.551 L52.3562 767.662 L57.8944 767.662 Q54.6797 765.562 53.0883 762.729 Q51.4968 759.864 51.4968 756.141 Q51.4968 749.998 55.3163 746.847 Q59.1038 743.696 66.4881 743.696 Z" fill="#000000" fill-rule="evenodd" fill-opacity="1" /><path clip-path="url(#clip520)" d="M 0 0 M98.8259 710.467 L103.377 710.467 L103.377 744.332 L98.8259 744.332 L98.8259 710.467 Z" fill="#000000" fill-rule="evenodd" fill-opacity="1" /><path clip-path="url(#clip520)" d="M 0 0 M57.7671 680.866 L38.479 680.866 L38.479 675.01 L88.0042 675.01 L88.0042 680.866 L82.657 680.866 Q85.8398 682.712 87.3994 685.545 Q88.9272 688.346 88.9272 692.292 Q88.9272 698.754 83.771 702.828 Q78.6147 706.87 70.212 706.87 Q61.8093 706.87 56.6531 702.828 Q51.4968 698.754 51.4968 692.292 Q51.4968 688.346 53.0564 685.545 Q54.5842 682.712 57.7671 680.866 M70.212 700.823 Q76.6732 700.823 80.3653 698.181 Q84.0256 695.507 84.0256 690.86 Q84.0256 686.213 80.3653 683.54 Q76.6732 680.866 70.212 680.866 Q63.7508 680.866 60.0905 683.54 Q56.3984 686.213 56.3984 690.86 Q56.3984 695.507 60.0905 698.181 Q63.7508 700.823 70.212 700.823 Z" fill="#000000" fill-rule="evenodd" fill-opacity="1" /><path clip-path="url(#clip520)" d="M 0 0 M52.3562 668.867 L52.3562 663.01 L88.0042 663.01 L88.0042 668.867 L52.3562 668.867 M38.479 668.867 L38.479 663.01 L45.895 663.01 L45.895 668.867 L38.479 668.867 Z" fill="#000000" fill-rule="evenodd" fill-opacity="1" /><path clip-path="url(#clip520)" d="M 0 0 M38.479 638.821 L43.3487 638.821 L43.3487 644.422 Q43.3487 647.573 44.6219 648.815 Q45.895 650.024 49.2052 650.024 L52.3562 650.024 L52.3562 640.38 L56.9077 640.38 L56.9077 650.024 L88.0042 650.024 L88.0042 655.912 L56.9077 655.912 L56.9077 661.514 L52.3562 661.514 L52.3562 655.912 L49.8736 655.912 Q43.9216 655.912 41.2162 653.143 Q38.479 650.374 38.479 644.359 L38.479 638.821 Z" fill="#000000" fill-rule="evenodd" fill-opacity="1" /><path clip-path="url(#clip520)" d="M 0 0 M38.479 614.631 L43.3487 614.631 L43.3487 620.233 Q43.3487 623.384 44.6219 624.625 Q45.895 625.835 49.2052 625.835 L52.3562 625.835 L52.3562 616.19 L56.9077 616.19 L56.9077 625.835 L88.0042 625.835 L88.0042 631.723 L56.9077 631.723 L56.9077 637.325 L52.3562 637.325 L52.3562 631.723 L49.8736 631.723 Q43.9216 631.723 41.2162 628.954 Q38.479 626.185 38.479 620.169 L38.479 614.631 Z" fill="#000000" fill-rule="evenodd" fill-opacity="1" /><polyline clip-path="url(#clip522)" style="stroke:#009af9; stroke-width:20; stroke-opacity:1; fill:none" stroke-dasharray="80, 50" points="
  272.988,85.838 1282.58,1372.3 2292.18,1203.18 
  "/>
<path clip-path="url(#clip520)" d="
M1992.58 213.659 L2281.41 213.659 L2281.41 92.6992 L1992.58 92.6992  Z
  " fill="#ffffff" fill-rule="evenodd" fill-opacity="1"/>
<polyline clip-path="url(#clip520)" style="stroke:#000000; stroke-width:4; stroke-opacity:1; fill:none" points="
  1992.58,213.659 2281.41,213.659 2281.41,92.6992 1992.58,92.6992 1992.58,213.659 
  "/>
<polyline clip-path="url(#clip520)" style="stroke:#009af9; stroke-width:4; stroke-opacity:1; fill:none" stroke-dasharray="16, 10" points="
  2016.36,153.179 2159.05,153.179 
  "/>
<path clip-path="url(#clip520)" d="M 0 0 M2196.67 172.867 Q2194.87 177.496 2193.15 178.908 Q2191.44 180.32 2188.57 180.32 L2185.17 180.32 L2185.17 176.755 L2187.67 176.755 Q2189.43 176.755 2190.4 175.922 Q2191.37 175.089 2192.55 171.987 L2193.32 170.043 L2182.83 144.533 L2187.34 144.533 L2195.45 164.811 L2203.55 144.533 L2208.06 144.533 L2196.67 172.867 Z" fill="#000000" fill-rule="evenodd" fill-opacity="1" /><path clip-path="url(#clip520)" d="M 0 0 M2213.94 166.524 L2221.58 166.524 L2221.58 140.158 L2213.27 141.825 L2213.27 137.566 L2221.53 135.899 L2226.21 135.899 L2226.21 166.524 L2233.85 166.524 L2233.85 170.459 L2213.94 170.459 L2213.94 166.524 Z" fill="#000000" fill-rule="evenodd" fill-opacity="1" /></svg>
