<?xml version="1.0" encoding="utf-8"?>
<svg xmlns="http://www.w3.org/2000/svg" xmlns:xlink="http://www.w3.org/1999/xlink" width="600" height="400" viewBox="0 0 2400 1600">
<defs>
  <clipPath id="clip670">
    <rect x="0" y="0" width="2400" height="1600"/>
  </clipPath>
</defs>
<path clip-path="url(#clip670)" d="
M0 1600 L2400 1600 L2400 0 L0 0  Z
  " fill="#ffffff" fill-rule="evenodd" fill-opacity="1"/>
<defs>
  <clipPath id="clip671">
    <rect x="480" y="0" width="1681" height="1600"/>
  </clipPath>
</defs>
<path clip-path="url(#clip670)" d="
M261 1410.9 L2352.76 1410.9 L2352.76 47.2441 L261 47.2441  Z
  " fill="#ffffff" fill-rule="evenodd" fill-opacity="1"/>
<defs>
  <clipPath id="clip672">
    <rect x="261" y="47" width="2093" height="1365"/>
  </clipPath>
</defs>
<polyline clip-path="url(#clip672)" style="stroke:#000000; stroke-width:2; stroke-opacity:0.1; fill:none" points="
  320.201,1410.9 320.201,47.2441 
  "/>
<polyline clip-path="url(#clip672)" style="stroke:#000000; stroke-width:2; stroke-opacity:0.1; fill:none" points="
  714.871,1410.9 714.871,47.2441 
  "/>
<polyline clip-path="url(#clip672)" style="stroke:#000000; stroke-width:2; stroke-opacity:0.1; fill:none" points="
  1109.54,1410.9 1109.54,47.2441 
  "/>
<polyline clip-path="url(#clip672)" style="stroke:#000000; stroke-width:2; stroke-opacity:0.1; fill:none" points="
  1504.21,1410.9 1504.21,47.2441 
  "/>
<polyline clip-path="url(#clip672)" style="stroke:#000000; stroke-width:2; stroke-opacity:0.1; fill:none" points="
  1898.88,1410.9 1898.88,47.2441 
  "/>
<polyline clip-path="url(#clip672)" style="stroke:#000000; stroke-width:2; stroke-opacity:0.1; fill:none" points="
  2293.55,1410.9 2293.55,47.2441 
  "/>
<polyline clip-path="url(#clip670)" style="stroke:#000000; stroke-width:4; stroke-opacity:1; fill:none" points="
  261,1410.9 2352.76,1410.9 
  "/>
<polyline clip-path="url(#clip670)" style="stroke:#000000; stroke-width:4; stroke-opacity:1; fill:none" points="
  320.201,1410.9 320.201,1394.53 
  "/>
<polyline clip-path="url(#clip670)" style="stroke:#000000; stroke-width:4; stroke-opacity:1; fill:none" points="
  714.871,1410.9 714.871,1394.53 
  "/>
<polyline clip-path="url(#clip670)" style="stroke:#000000; stroke-width:4; stroke-opacity:1; fill:none" points="
  1109.54,1410.9 1109.54,1394.53 
  "/>
<polyline clip-path="url(#clip670)" style="stroke:#000000; stroke-width:4; stroke-opacity:1; fill:none" points="
  1504.21,1410.9 1504.21,1394.53 
  "/>
<polyline clip-path="url(#clip670)" style="stroke:#000000; stroke-width:4; stroke-opacity:1; fill:none" points="
  1898.88,1410.9 1898.88,1394.53 
  "/>
<polyline clip-path="url(#clip670)" style="stroke:#000000; stroke-width:4; stroke-opacity:1; fill:none" points="
  2293.55,1410.9 2293.55,1394.53 
  "/>
<path clip-path="url(#clip670)" d="M 0 0 M274.45 1489.17 L282.089 1489.17 L282.089 1462.8 L273.779 1464.47 L273.779 1460.21 L282.043 1458.54 L286.719 1458.54 L286.719 1489.17 L294.358 1489.17 L294.358 1493.1 L274.45 1493.1 L274.45 1489.17 Z" fill="#000000" fill-rule="evenodd" fill-opacity="1" /><path clip-path="url(#clip670)" d="M 0 0 M309.427 1461.62 Q305.816 1461.62 303.987 1465.19 Q302.182 1468.73 302.182 1475.86 Q302.182 1482.97 303.987 1486.53 Q305.816 1490.07 309.427 1490.07 Q313.061 1490.07 314.867 1486.53 Q316.695 1482.97 316.695 1475.86 Q316.695 1468.73 314.867 1465.19 Q313.061 1461.62 309.427 1461.62 M309.427 1457.92 Q315.237 1457.92 318.293 1462.53 Q321.371 1467.11 321.371 1475.86 Q321.371 1484.59 318.293 1489.19 Q315.237 1493.78 309.427 1493.78 Q303.617 1493.78 300.538 1489.19 Q297.483 1484.59 297.483 1475.86 Q297.483 1467.11 300.538 1462.53 Q303.617 1457.92 309.427 1457.92 Z" fill="#000000" fill-rule="evenodd" fill-opacity="1" /><path clip-path="url(#clip670)" d="M 0 0 M321.371 1452.02 L345.483 1452.02 L345.483 1455.22 L321.371 1455.22 L321.371 1452.02 Z" fill="#000000" fill-rule="evenodd" fill-opacity="1" /><path clip-path="url(#clip670)" d="M 0 0 M349.639 1437.61 L364.554 1437.61 L364.554 1440.81 L353.119 1440.81 L353.119 1447.69 Q353.946 1447.41 354.774 1447.28 Q355.601 1447.13 356.429 1447.13 Q361.131 1447.13 363.877 1449.71 Q366.623 1452.28 366.623 1456.68 Q366.623 1461.22 363.802 1463.74 Q360.981 1466.24 355.846 1466.24 Q354.078 1466.24 352.235 1465.94 Q350.411 1465.64 348.455 1465.04 L348.455 1461.22 Q350.147 1462.14 351.953 1462.59 Q353.758 1463.04 355.771 1463.04 Q359.025 1463.04 360.924 1461.33 Q362.824 1459.62 362.824 1456.68 Q362.824 1453.75 360.924 1452.04 Q359.025 1450.33 355.771 1450.33 Q354.247 1450.33 352.724 1450.67 Q351.219 1451 349.639 1451.72 L349.639 1437.61 Z" fill="#000000" fill-rule="evenodd" fill-opacity="1" /><path clip-path="url(#clip670)" d="M 0 0 M668.519 1489.17 L676.158 1489.17 L676.158 1462.8 L667.848 1464.47 L667.848 1460.21 L676.112 1458.54 L680.787 1458.54 L680.787 1489.17 L688.426 1489.17 L688.426 1493.1 L668.519 1493.1 L668.519 1489.17 Z" fill="#000000" fill-rule="evenodd" fill-opacity="1" /><path clip-path="url(#clip670)" d="M 0 0 M703.496 1461.62 Q699.885 1461.62 698.056 1465.19 Q696.25 1468.73 696.25 1475.86 Q696.25 1482.97 698.056 1486.53 Q699.885 1490.07 703.496 1490.07 Q707.13 1490.07 708.935 1486.53 Q710.764 1482.97 710.764 1475.86 Q710.764 1468.73 708.935 1465.19 Q707.13 1461.62 703.496 1461.62 M703.496 1457.92 Q709.306 1457.92 712.361 1462.53 Q715.44 1467.11 715.44 1475.86 Q715.44 1484.59 712.361 1489.19 Q709.306 1493.78 703.496 1493.78 Q697.685 1493.78 694.607 1489.19 Q691.551 1484.59 691.551 1475.86 Q691.551 1467.11 694.607 1462.53 Q697.685 1457.92 703.496 1457.92 Z" fill="#000000" fill-rule="evenodd" fill-opacity="1" /><path clip-path="url(#clip670)" d="M 0 0 M715.44 1452.02 L739.552 1452.02 L739.552 1455.22 L715.44 1455.22 L715.44 1452.02 Z" fill="#000000" fill-rule="evenodd" fill-opacity="1" /><path clip-path="url(#clip670)" d="M 0 0 M754.109 1440.92 L744.517 1455.91 L754.109 1455.91 L754.109 1440.92 M753.112 1437.61 L757.889 1437.61 L757.889 1455.91 L761.895 1455.91 L761.895 1459.07 L757.889 1459.07 L757.889 1465.69 L754.109 1465.69 L754.109 1459.07 L741.432 1459.07 L741.432 1455.41 L753.112 1437.61 Z" fill="#000000" fill-rule="evenodd" fill-opacity="1" /><path clip-path="url(#clip670)" d="M 0 0 M1063.65 1489.17 L1071.29 1489.17 L1071.29 1462.8 L1062.98 1464.47 L1062.98 1460.21 L1071.24 1458.54 L1075.92 1458.54 L1075.92 1489.17 L1083.56 1489.17 L1083.56 1493.1 L1063.65 1493.1 L1063.65 1489.17 Z" fill="#000000" fill-rule="evenodd" fill-opacity="1" /><path clip-path="url(#clip670)" d="M 0 0 M1098.63 1461.62 Q1095.02 1461.62 1093.19 1465.19 Q1091.38 1468.73 1091.38 1475.86 Q1091.38 1482.97 1093.19 1486.53 Q1095.02 1490.07 1098.63 1490.07 Q1102.26 1490.07 1104.07 1486.53 Q1105.9 1482.97 1105.9 1475.86 Q1105.9 1468.73 1104.07 1465.19 Q1102.26 1461.62 1098.63 1461.62 M1098.63 1457.92 Q1104.44 1457.92 1107.49 1462.53 Q1110.57 1467.11 1110.57 1475.86 Q1110.57 1484.59 1107.49 1489.19 Q1104.44 1493.78 1098.63 1493.78 Q1092.82 1493.78 1089.74 1489.19 Q1086.68 1484.59 1086.68 1475.86 Q1086.68 1467.11 1089.74 1462.53 Q1092.82 1457.92 1098.63 1457.92 Z" fill="#000000" fill-rule="evenodd" fill-opacity="1" /><path clip-path="url(#clip670)" d="M 0 0 M1110.57 1452.02 L1134.68 1452.02 L1134.68 1455.22 L1110.57 1455.22 L1110.57 1452.02 Z" fill="#000000" fill-rule="evenodd" fill-opacity="1" /><path clip-path="url(#clip670)" d="M 0 0 M1150.31 1450.55 Q1153.04 1451.14 1154.56 1452.98 Q1156.1 1454.82 1156.1 1457.53 Q1156.1 1461.69 1153.25 1463.96 Q1150.39 1466.24 1145.12 1466.24 Q1143.35 1466.24 1141.47 1465.88 Q1139.61 1465.54 1137.62 1464.85 L1137.62 1461.18 Q1139.2 1462.1 1141.08 1462.57 Q1142.96 1463.04 1145.01 1463.04 Q1148.58 1463.04 1150.44 1461.63 Q1152.32 1460.22 1152.32 1457.53 Q1152.32 1455.05 1150.58 1453.66 Q1148.85 1452.25 1145.74 1452.25 L1142.47 1452.25 L1142.47 1449.12 L1145.89 1449.12 Q1148.69 1449.12 1150.18 1448.01 Q1151.67 1446.89 1151.67 1444.78 Q1151.67 1442.62 1150.12 1441.47 Q1148.6 1440.3 1145.74 1440.3 Q1144.18 1440.3 1142.39 1440.64 Q1140.61 1440.98 1138.46 1441.69 L1138.46 1438.31 Q1140.63 1437.71 1142.51 1437.41 Q1144.41 1437.11 1146.08 1437.11 Q1150.41 1437.11 1152.93 1439.08 Q1155.45 1441.04 1155.45 1444.38 Q1155.45 1446.72 1154.11 1448.33 Q1152.78 1449.93 1150.31 1450.55 Z" fill="#000000" fill-rule="evenodd" fill-opacity="1" /><path clip-path="url(#clip670)" d="M 0 0 M1458.71 1489.17 L1466.35 1489.17 L1466.35 1462.8 L1458.04 1464.47 L1458.04 1460.21 L1466.3 1458.54 L1470.97 1458.54 L1470.97 1489.17 L1478.61 1489.17 L1478.61 1493.1 L1458.71 1493.1 L1458.71 1489.17 Z" fill="#000000" fill-rule="evenodd" fill-opacity="1" /><path clip-path="url(#clip670)" d="M 0 0 M1493.68 1461.62 Q1490.07 1461.62 1488.24 1465.19 Q1486.44 1468.73 1486.44 1475.86 Q1486.44 1482.97 1488.24 1486.53 Q1490.07 1490.07 1493.68 1490.07 Q1497.32 1490.07 1499.12 1486.53 Q1500.95 1482.97 1500.95 1475.86 Q1500.95 1468.73 1499.12 1465.19 Q1497.32 1461.62 1493.68 1461.62 M1493.68 1457.92 Q1499.49 1457.92 1502.55 1462.53 Q1505.63 1467.11 1505.63 1475.86 Q1505.63 1484.59 1502.55 1489.19 Q1499.49 1493.78 1493.68 1493.78 Q1487.87 1493.78 1484.79 1489.19 Q1481.74 1484.59 1481.74 1475.86 Q1481.74 1467.11 1484.79 1462.53 Q1487.87 1457.92 1493.68 1457.92 Z" fill="#000000" fill-rule="evenodd" fill-opacity="1" /><path clip-path="url(#clip670)" d="M 0 0 M1505.63 1452.02 L1529.74 1452.02 L1529.74 1455.22 L1505.63 1455.22 L1505.63 1452.02 Z" fill="#000000" fill-rule="evenodd" fill-opacity="1" /><path clip-path="url(#clip670)" d="M 0 0 M1537.13 1462.5 L1550.39 1462.5 L1550.39 1465.69 L1532.56 1465.69 L1532.56 1462.5 Q1534.72 1460.26 1538.45 1456.5 Q1542.19 1452.72 1543.15 1451.63 Q1544.97 1449.58 1545.69 1448.16 Q1546.42 1446.74 1546.42 1445.36 Q1546.42 1443.12 1544.84 1441.71 Q1543.28 1440.3 1540.76 1440.3 Q1538.97 1440.3 1536.98 1440.92 Q1535.01 1441.54 1532.75 1442.8 L1532.75 1438.97 Q1535.04 1438.05 1537.04 1437.58 Q1539.03 1437.11 1540.69 1437.11 Q1545.05 1437.11 1547.64 1439.29 Q1550.24 1441.47 1550.24 1445.12 Q1550.24 1446.85 1549.58 1448.41 Q1548.94 1449.95 1547.23 1452.06 Q1546.76 1452.6 1544.24 1455.22 Q1541.72 1457.81 1537.13 1462.5 Z" fill="#000000" fill-rule="evenodd" fill-opacity="1" /><path clip-path="url(#clip670)" d="M 0 0 M1853.23 1489.17 L1860.87 1489.17 L1860.87 1462.8 L1852.56 1464.47 L1852.56 1460.21 L1860.82 1458.54 L1865.49 1458.54 L1865.49 1489.17 L1873.13 1489.17 L1873.13 1493.1 L1853.23 1493.1 L1853.23 1489.17 Z" fill="#000000" fill-rule="evenodd" fill-opacity="1" /><path clip-path="url(#clip670)" d="M 0 0 M1888.2 1461.62 Q1884.59 1461.62 1882.76 1465.19 Q1880.96 1468.73 1880.96 1475.86 Q1880.96 1482.97 1882.76 1486.53 Q1884.59 1490.07 1888.2 1490.07 Q1891.84 1490.07 1893.64 1486.53 Q1895.47 1482.97 1895.47 1475.86 Q1895.47 1468.73 1893.64 1465.19 Q1891.84 1461.62 1888.2 1461.62 M1888.2 1457.92 Q1894.01 1457.92 1897.07 1462.53 Q1900.15 1467.11 1900.15 1475.86 Q1900.15 1484.59 1897.07 1489.19 Q1894.01 1493.78 1888.2 1493.78 Q1882.39 1493.78 1879.31 1489.19 Q1876.26 1484.59 1876.26 1475.86 Q1876.26 1467.11 1879.31 1462.53 Q1882.39 1457.92 1888.2 1457.92 Z" fill="#000000" fill-rule="evenodd" fill-opacity="1" /><path clip-path="url(#clip670)" d="M 0 0 M1900.15 1452.02 L1924.26 1452.02 L1924.26 1455.22 L1900.15 1455.22 L1900.15 1452.02 Z" fill="#000000" fill-rule="evenodd" fill-opacity="1" /><path clip-path="url(#clip670)" d="M 0 0 M1929.04 1462.5 L1935.24 1462.5 L1935.24 1441.07 L1928.49 1442.43 L1928.49 1438.97 L1935.21 1437.61 L1939 1437.61 L1939 1462.5 L1945.21 1462.5 L1945.21 1465.69 L1929.04 1465.69 L1929.04 1462.5 Z" fill="#000000" fill-rule="evenodd" fill-opacity="1" /><path clip-path="url(#clip670)" d="M 0 0 M2260.72 1489.17 L2268.36 1489.17 L2268.36 1462.8 L2260.05 1464.47 L2260.05 1460.21 L2268.32 1458.54 L2272.99 1458.54 L2272.99 1489.17 L2280.63 1489.17 L2280.63 1493.1 L2260.72 1493.1 L2260.72 1489.17 Z" fill="#000000" fill-rule="evenodd" fill-opacity="1" /><path clip-path="url(#clip670)" d="M 0 0 M2295.7 1461.62 Q2292.09 1461.62 2290.26 1465.19 Q2288.46 1468.73 2288.46 1475.86 Q2288.46 1482.97 2290.26 1486.53 Q2292.09 1490.07 2295.7 1490.07 Q2299.33 1490.07 2301.14 1486.53 Q2302.97 1482.97 2302.97 1475.86 Q2302.97 1468.73 2301.14 1465.19 Q2299.33 1461.62 2295.7 1461.62 M2295.7 1457.92 Q2301.51 1457.92 2304.57 1462.53 Q2307.64 1467.11 2307.64 1475.86 Q2307.64 1484.59 2304.57 1489.19 Q2301.51 1493.78 2295.7 1493.78 Q2289.89 1493.78 2286.81 1489.19 Q2283.76 1484.59 2283.76 1475.86 Q2283.76 1467.11 2286.81 1462.53 Q2289.89 1457.92 2295.7 1457.92 Z" fill="#000000" fill-rule="evenodd" fill-opacity="1" /><path clip-path="url(#clip670)" d="M 0 0 M2317.35 1440.11 Q2314.42 1440.11 2312.93 1443.01 Q2311.46 1445.89 2311.46 1451.68 Q2311.46 1457.46 2312.93 1460.35 Q2314.42 1463.23 2317.35 1463.23 Q2320.3 1463.23 2321.77 1460.35 Q2323.26 1457.46 2323.26 1451.68 Q2323.26 1445.89 2321.77 1443.01 Q2320.3 1440.11 2317.35 1440.11 M2317.35 1437.11 Q2322.07 1437.11 2324.55 1440.85 Q2327.05 1444.57 2327.05 1451.68 Q2327.05 1458.77 2324.55 1462.51 Q2322.07 1466.24 2317.35 1466.24 Q2312.63 1466.24 2310.13 1462.51 Q2307.64 1458.77 2307.64 1451.68 Q2307.64 1444.57 2310.13 1440.85 Q2312.63 1437.11 2317.35 1437.11 Z" fill="#000000" fill-rule="evenodd" fill-opacity="1" /><path clip-path="url(#clip670)" d="M 0 0 M1199.65 1526.54 L1205.85 1526.54 L1216.99 1556.46 L1228.13 1526.54 L1234.34 1526.54 L1220.97 1562.19 L1213.02 1562.19 L1199.65 1526.54 Z" fill="#000000" fill-rule="evenodd" fill-opacity="1" /><path clip-path="url(#clip670)" d="M 0 0 M1267.57 1573.01 L1267.57 1577.56 L1233.7 1577.56 L1233.7 1573.01 L1267.57 1573.01 Z" fill="#000000" fill-rule="evenodd" fill-opacity="1" /><path clip-path="url(#clip670)" d="M 0 0 M1287.53 1530.64 Q1282.82 1530.64 1280.08 1534.34 Q1277.34 1538 1277.34 1544.39 Q1277.34 1550.79 1280.05 1554.48 Q1282.78 1558.14 1287.53 1558.14 Q1292.21 1558.14 1294.94 1554.45 Q1297.68 1550.76 1297.68 1544.39 Q1297.68 1538.06 1294.94 1534.37 Q1292.21 1530.64 1287.53 1530.64 M1287.53 1525.68 Q1295.17 1525.68 1299.53 1530.64 Q1303.89 1535.61 1303.89 1544.39 Q1303.89 1553.15 1299.53 1558.14 Q1295.17 1563.11 1287.53 1563.11 Q1279.86 1563.11 1275.5 1558.14 Q1271.17 1553.15 1271.17 1544.39 Q1271.17 1535.61 1275.5 1530.64 Q1279.86 1525.68 1287.53 1525.68 Z" fill="#000000" fill-rule="evenodd" fill-opacity="1" /><path clip-path="url(#clip670)" d="M 0 0 M1315.69 1556.84 L1315.69 1575.74 L1309.81 1575.74 L1309.81 1526.54 L1315.69 1526.54 L1315.69 1531.95 Q1317.54 1528.77 1320.34 1527.24 Q1323.17 1525.68 1327.09 1525.68 Q1333.58 1525.68 1337.62 1530.83 Q1341.7 1535.99 1341.7 1544.39 Q1341.7 1552.8 1337.62 1557.95 Q1333.58 1563.11 1327.09 1563.11 Q1323.17 1563.11 1320.34 1561.58 Q1317.54 1560.02 1315.69 1556.84 M1335.62 1544.39 Q1335.62 1537.93 1332.95 1534.27 Q1330.3 1530.58 1325.66 1530.58 Q1321.01 1530.58 1318.34 1534.27 Q1315.69 1537.93 1315.69 1544.39 Q1315.69 1550.85 1318.34 1554.55 Q1321.01 1558.21 1325.66 1558.21 Q1330.3 1558.21 1332.95 1554.55 Q1335.62 1550.85 1335.62 1544.39 Z" fill="#000000" fill-rule="evenodd" fill-opacity="1" /><path clip-path="url(#clip670)" d="M 0 0 M1378.33 1542.9 L1378.33 1545.76 L1351.41 1545.76 Q1351.79 1551.81 1355.03 1554.99 Q1358.31 1558.14 1364.14 1558.14 Q1367.51 1558.14 1370.66 1557.32 Q1373.85 1556.49 1376.96 1554.83 L1376.96 1560.37 Q1373.81 1561.71 1370.5 1562.41 Q1367.19 1563.11 1363.79 1563.11 Q1355.26 1563.11 1350.26 1558.14 Q1345.3 1553.18 1345.3 1544.71 Q1345.3 1535.96 1350.01 1530.83 Q1354.75 1525.68 1362.77 1525.68 Q1369.96 1525.68 1374.13 1530.33 Q1378.33 1534.94 1378.33 1542.9 M1372.48 1541.18 Q1372.41 1536.37 1369.77 1533.51 Q1367.16 1530.64 1362.83 1530.64 Q1357.93 1530.64 1354.97 1533.41 Q1352.04 1536.18 1351.6 1541.21 L1372.48 1541.18 Z" fill="#000000" fill-rule="evenodd" fill-opacity="1" /><path clip-path="url(#clip670)" d="M 0 0 M1414.11 1540.67 L1414.11 1562.19 L1408.25 1562.19 L1408.25 1540.86 Q1408.25 1535.8 1406.28 1533.29 Q1404.31 1530.77 1400.36 1530.77 Q1395.62 1530.77 1392.88 1533.79 Q1390.14 1536.82 1390.14 1542.04 L1390.14 1562.19 L1384.25 1562.19 L1384.25 1526.54 L1390.14 1526.54 L1390.14 1532.08 Q1392.24 1528.86 1395.07 1527.27 Q1397.94 1525.68 1401.66 1525.68 Q1407.81 1525.68 1410.96 1529.5 Q1414.11 1533.29 1414.11 1540.67 Z" fill="#000000" fill-rule="evenodd" fill-opacity="1" /><polyline clip-path="url(#clip672)" style="stroke:#000000; stroke-width:2; stroke-opacity:0.1; fill:none" points="
  261,1313.13 2352.76,1313.13 
  "/>
<polyline clip-path="url(#clip672)" style="stroke:#000000; stroke-width:2; stroke-opacity:0.1; fill:none" points="
  261,991.515 2352.76,991.515 
  "/>
<polyline clip-path="url(#clip672)" style="stroke:#000000; stroke-width:2; stroke-opacity:0.1; fill:none" points="
  261,669.899 2352.76,669.899 
  "/>
<polyline clip-path="url(#clip672)" style="stroke:#000000; stroke-width:2; stroke-opacity:0.1; fill:none" points="
  261,348.282 2352.76,348.282 
  "/>
<polyline clip-path="url(#clip670)" style="stroke:#000000; stroke-width:4; stroke-opacity:1; fill:none" points="
  261,1410.9 261,47.2441 
  "/>
<polyline clip-path="url(#clip670)" style="stroke:#000000; stroke-width:4; stroke-opacity:1; fill:none" points="
  261,1313.13 286.101,1313.13 
  "/>
<polyline clip-path="url(#clip670)" style="stroke:#000000; stroke-width:4; stroke-opacity:1; fill:none" points="
  261,991.515 286.101,991.515 
  "/>
<polyline clip-path="url(#clip670)" style="stroke:#000000; stroke-width:4; stroke-opacity:1; fill:none" points="
  261,669.899 286.101,669.899 
  "/>
<polyline clip-path="url(#clip670)" style="stroke:#000000; stroke-width:4; stroke-opacity:1; fill:none" points="
  261,348.282 286.101,348.282 
  "/>
<path clip-path="url(#clip670)" d="M 0 0 M116.529 1326.48 L124.168 1326.48 L124.168 1300.11 L115.857 1301.78 L115.857 1297.52 L124.121 1295.85 L128.797 1295.85 L128.797 1326.48 L136.436 1326.48 L136.436 1330.41 L116.529 1330.41 L116.529 1326.48 Z" fill="#000000" fill-rule="evenodd" fill-opacity="1" /><path clip-path="url(#clip670)" d="M 0 0 M152.084 1311.27 Q148.936 1311.27 147.084 1313.42 Q145.255 1315.57 145.255 1319.32 Q145.255 1323.05 147.084 1325.23 Q148.936 1327.38 152.084 1327.38 Q155.232 1327.38 157.061 1325.23 Q158.913 1323.05 158.913 1319.32 Q158.913 1315.57 157.061 1313.42 Q155.232 1311.27 152.084 1311.27 M161.366 1296.61 L161.366 1300.87 Q159.607 1300.04 157.802 1299.6 Q156.019 1299.16 154.26 1299.16 Q149.63 1299.16 147.177 1302.29 Q144.746 1305.41 144.399 1311.73 Q145.765 1309.72 147.825 1308.65 Q149.885 1307.56 152.362 1307.56 Q157.57 1307.56 160.579 1310.74 Q163.612 1313.88 163.612 1319.32 Q163.612 1324.65 160.464 1327.86 Q157.315 1331.08 152.084 1331.08 Q146.089 1331.08 142.917 1326.5 Q139.746 1321.89 139.746 1313.17 Q139.746 1304.97 143.635 1300.11 Q147.524 1295.23 154.075 1295.23 Q155.834 1295.23 157.616 1295.57 Q159.422 1295.92 161.366 1296.61 Z" fill="#000000" fill-rule="evenodd" fill-opacity="1" /><path clip-path="url(#clip670)" d="M 0 0 M168.681 1324.53 L173.565 1324.53 L173.565 1330.41 L168.681 1330.41 L168.681 1324.53 Z" fill="#000000" fill-rule="evenodd" fill-opacity="1" /><path clip-path="url(#clip670)" d="M 0 0 M182.663 1326.48 L198.982 1326.48 L198.982 1330.41 L177.038 1330.41 L177.038 1326.48 Q179.7 1323.72 184.283 1319.09 Q188.889 1314.44 190.07 1313.1 Q192.315 1310.57 193.195 1308.84 Q194.098 1307.08 194.098 1305.39 Q194.098 1302.63 192.153 1300.9 Q190.232 1299.16 187.13 1299.16 Q184.931 1299.16 182.477 1299.92 Q180.047 1300.69 177.269 1302.24 L177.269 1297.52 Q180.093 1296.38 182.547 1295.8 Q185.001 1295.23 187.038 1295.23 Q192.408 1295.23 195.602 1297.91 Q198.797 1300.6 198.797 1305.09 Q198.797 1307.22 197.987 1309.14 Q197.2 1311.04 195.093 1313.63 Q194.514 1314.3 191.413 1317.52 Q188.311 1320.71 182.663 1326.48 Z" fill="#000000" fill-rule="evenodd" fill-opacity="1" /><path clip-path="url(#clip670)" d="M 0 0 M204.098 1295.85 L222.454 1295.85 L222.454 1299.79 L208.38 1299.79 L208.38 1308.26 Q209.399 1307.91 210.417 1307.75 Q211.436 1307.56 212.454 1307.56 Q218.241 1307.56 221.621 1310.74 Q225 1313.91 225 1319.32 Q225 1324.9 221.528 1328 Q218.056 1331.08 211.736 1331.08 Q209.561 1331.08 207.292 1330.71 Q205.047 1330.34 202.639 1329.6 L202.639 1324.9 Q204.723 1326.04 206.945 1326.59 Q209.167 1327.15 211.644 1327.15 Q215.649 1327.15 217.986 1325.04 Q220.324 1322.93 220.324 1319.32 Q220.324 1315.71 217.986 1313.61 Q215.649 1311.5 211.644 1311.5 Q209.769 1311.5 207.894 1311.92 Q206.042 1312.33 204.098 1313.21 L204.098 1295.85 Z" fill="#000000" fill-rule="evenodd" fill-opacity="1" /><path clip-path="url(#clip670)" d="M 0 0 M114.931 1004.86 L122.57 1004.86 L122.57 978.494 L114.26 980.161 L114.26 975.901 L122.524 974.235 L127.2 974.235 L127.2 1004.86 L134.839 1004.86 L134.839 1008.79 L114.931 1008.79 L114.931 1004.86 Z" fill="#000000" fill-rule="evenodd" fill-opacity="1" /><path clip-path="url(#clip670)" d="M 0 0 M150.487 989.651 Q147.339 989.651 145.487 991.804 Q143.658 993.957 143.658 997.707 Q143.658 1001.43 145.487 1003.61 Q147.339 1005.76 150.487 1005.76 Q153.635 1005.76 155.464 1003.61 Q157.315 1001.43 157.315 997.707 Q157.315 993.957 155.464 991.804 Q153.635 989.651 150.487 989.651 M159.769 974.999 L159.769 979.258 Q158.01 978.424 156.204 977.985 Q154.422 977.545 152.663 977.545 Q148.033 977.545 145.579 980.67 Q143.149 983.795 142.802 990.114 Q144.167 988.1 146.228 987.036 Q148.288 985.948 150.765 985.948 Q155.973 985.948 158.982 989.119 Q162.015 992.267 162.015 997.707 Q162.015 1003.03 158.866 1006.25 Q155.718 1009.47 150.487 1009.47 Q144.491 1009.47 141.32 1004.88 Q138.149 1000.28 138.149 991.549 Q138.149 983.355 142.038 978.494 Q145.927 973.61 152.478 973.61 Q154.237 973.61 156.019 973.957 Q157.825 974.304 159.769 974.999 Z" fill="#000000" fill-rule="evenodd" fill-opacity="1" /><path clip-path="url(#clip670)" d="M 0 0 M167.084 1002.92 L171.968 1002.92 L171.968 1008.79 L167.084 1008.79 L167.084 1002.92 Z" fill="#000000" fill-rule="evenodd" fill-opacity="1" /><path clip-path="url(#clip670)" d="M 0 0 M177.084 974.235 L195.44 974.235 L195.44 978.17 L181.366 978.17 L181.366 986.642 Q182.385 986.295 183.403 986.133 Q184.422 985.948 185.44 985.948 Q191.227 985.948 194.607 989.119 Q197.987 992.29 197.987 997.707 Q197.987 1003.29 194.514 1006.39 Q191.042 1009.47 184.723 1009.47 Q182.547 1009.47 180.278 1009.1 Q178.033 1008.73 175.626 1007.98 L175.626 1003.29 Q177.709 1004.42 179.931 1004.98 Q182.153 1005.53 184.63 1005.53 Q188.635 1005.53 190.973 1003.42 Q193.311 1001.32 193.311 997.707 Q193.311 994.096 190.973 991.989 Q188.635 989.883 184.63 989.883 Q182.755 989.883 180.88 990.299 Q179.028 990.716 177.084 991.596 L177.084 974.235 Z" fill="#000000" fill-rule="evenodd" fill-opacity="1" /><path clip-path="url(#clip670)" d="M 0 0 M213.056 977.313 Q209.445 977.313 207.616 980.878 Q205.811 984.42 205.811 991.549 Q205.811 998.656 207.616 1002.22 Q209.445 1005.76 213.056 1005.76 Q216.69 1005.76 218.496 1002.22 Q220.324 998.656 220.324 991.549 Q220.324 984.42 218.496 980.878 Q216.69 977.313 213.056 977.313 M213.056 973.61 Q218.866 973.61 221.922 978.216 Q225 982.799 225 991.549 Q225 1000.28 221.922 1004.88 Q218.866 1009.47 213.056 1009.47 Q207.246 1009.47 204.167 1004.88 Q201.112 1000.28 201.112 991.549 Q201.112 982.799 204.167 978.216 Q207.246 973.61 213.056 973.61 Z" fill="#000000" fill-rule="evenodd" fill-opacity="1" /><path clip-path="url(#clip670)" d="M 0 0 M115.834 683.243 L123.473 683.243 L123.473 656.878 L115.163 658.544 L115.163 654.285 L123.427 652.619 L128.103 652.619 L128.103 683.243 L135.742 683.243 L135.742 687.179 L115.834 687.179 L115.834 683.243 Z" fill="#000000" fill-rule="evenodd" fill-opacity="1" /><path clip-path="url(#clip670)" d="M 0 0 M151.39 668.035 Q148.241 668.035 146.39 670.188 Q144.561 672.341 144.561 676.091 Q144.561 679.817 146.39 681.993 Q148.241 684.146 151.39 684.146 Q154.538 684.146 156.366 681.993 Q158.218 679.817 158.218 676.091 Q158.218 672.341 156.366 670.188 Q154.538 668.035 151.39 668.035 M160.672 653.382 L160.672 657.642 Q158.913 656.808 157.107 656.368 Q155.325 655.929 153.566 655.929 Q148.936 655.929 146.482 659.054 Q144.052 662.179 143.704 668.498 Q145.07 666.484 147.13 665.419 Q149.191 664.331 151.667 664.331 Q156.876 664.331 159.885 667.503 Q162.917 670.651 162.917 676.091 Q162.917 681.415 159.769 684.632 Q156.621 687.85 151.39 687.85 Q145.394 687.85 142.223 683.266 Q139.052 678.66 139.052 669.933 Q139.052 661.739 142.941 656.878 Q146.829 651.994 153.38 651.994 Q155.14 651.994 156.922 652.341 Q158.728 652.688 160.672 653.382 Z" fill="#000000" fill-rule="evenodd" fill-opacity="1" /><path clip-path="url(#clip670)" d="M 0 0 M167.987 681.299 L172.871 681.299 L172.871 687.179 L167.987 687.179 L167.987 681.299 Z" fill="#000000" fill-rule="evenodd" fill-opacity="1" /><path clip-path="url(#clip670)" d="M 0 0 M176.76 652.619 L198.982 652.619 L198.982 654.609 L186.436 687.179 L181.551 687.179 L193.357 656.554 L176.76 656.554 L176.76 652.619 Z" fill="#000000" fill-rule="evenodd" fill-opacity="1" /><path clip-path="url(#clip670)" d="M 0 0 M204.098 652.619 L222.454 652.619 L222.454 656.554 L208.38 656.554 L208.38 665.026 Q209.399 664.679 210.417 664.517 Q211.436 664.331 212.454 664.331 Q218.241 664.331 221.621 667.503 Q225 670.674 225 676.091 Q225 681.669 221.528 684.771 Q218.056 687.85 211.736 687.85 Q209.561 687.85 207.292 687.479 Q205.047 687.109 202.639 686.368 L202.639 681.669 Q204.723 682.804 206.945 683.359 Q209.167 683.915 211.644 683.915 Q215.649 683.915 217.986 681.808 Q220.324 679.702 220.324 676.091 Q220.324 672.48 217.986 670.373 Q215.649 668.267 211.644 668.267 Q209.769 668.267 207.894 668.683 Q206.042 669.1 204.098 669.98 L204.098 652.619 Z" fill="#000000" fill-rule="evenodd" fill-opacity="1" /><path clip-path="url(#clip670)" d="M 0 0 M115.001 361.627 L122.64 361.627 L122.64 335.262 L114.33 336.928 L114.33 332.669 L122.593 331.002 L127.269 331.002 L127.269 361.627 L134.908 361.627 L134.908 365.562 L115.001 365.562 L115.001 361.627 Z" fill="#000000" fill-rule="evenodd" fill-opacity="1" /><path clip-path="url(#clip670)" d="M 0 0 M138.797 331.002 L161.019 331.002 L161.019 332.993 L148.473 365.562 L143.589 365.562 L155.394 334.938 L138.797 334.938 L138.797 331.002 Z" fill="#000000" fill-rule="evenodd" fill-opacity="1" /><path clip-path="url(#clip670)" d="M 0 0 M166.089 359.683 L170.973 359.683 L170.973 365.562 L166.089 365.562 L166.089 359.683 Z" fill="#000000" fill-rule="evenodd" fill-opacity="1" /><path clip-path="url(#clip670)" d="M 0 0 M186.042 334.081 Q182.431 334.081 180.602 337.646 Q178.797 341.187 178.797 348.317 Q178.797 355.424 180.602 358.988 Q182.431 362.53 186.042 362.53 Q189.676 362.53 191.482 358.988 Q193.311 355.424 193.311 348.317 Q193.311 341.187 191.482 337.646 Q189.676 334.081 186.042 334.081 M186.042 330.377 Q191.852 330.377 194.908 334.984 Q197.987 339.567 197.987 348.317 Q197.987 357.044 194.908 361.65 Q191.852 366.234 186.042 366.234 Q180.232 366.234 177.153 361.65 Q174.098 357.044 174.098 348.317 Q174.098 339.567 177.153 334.984 Q180.232 330.377 186.042 330.377 Z" fill="#000000" fill-rule="evenodd" fill-opacity="1" /><path clip-path="url(#clip670)" d="M 0 0 M213.056 334.081 Q209.445 334.081 207.616 337.646 Q205.811 341.187 205.811 348.317 Q205.811 355.424 207.616 358.988 Q209.445 362.53 213.056 362.53 Q216.69 362.53 218.496 358.988 Q220.324 355.424 220.324 348.317 Q220.324 341.187 218.496 337.646 Q216.69 334.081 213.056 334.081 M213.056 330.377 Q218.866 330.377 221.922 334.984 Q225 339.567 225 348.317 Q225 357.044 221.922 361.65 Q218.866 366.234 213.056 366.234 Q207.246 366.234 204.167 361.65 Q201.112 357.044 201.112 348.317 Q201.112 339.567 204.167 334.984 Q207.246 330.377 213.056 330.377 Z" fill="#000000" fill-rule="evenodd" fill-opacity="1" /><path clip-path="url(#clip670)" d="M 0 0 M59.1993 815.533 Q55.2526 813.336 53.3747 810.281 Q51.4968 807.225 51.4968 803.088 Q51.4968 797.518 55.4117 794.494 Q59.2948 791.47 66.4881 791.47 L88.0042 791.47 L88.0042 797.358 L66.679 797.358 Q61.5546 797.358 59.072 799.173 Q56.5894 800.987 56.5894 804.711 Q56.5894 809.262 59.6131 811.904 Q62.6368 814.546 67.8567 814.546 L88.0042 814.546 L88.0042 820.434 L66.679 820.434 Q61.5228 820.434 59.072 822.248 Q56.5894 824.063 56.5894 827.85 Q56.5894 832.338 59.6449 834.98 Q62.6686 837.622 67.8567 837.622 L88.0042 837.622 L88.0042 843.51 L52.3562 843.51 L52.3562 837.622 L57.8944 837.622 Q54.616 835.616 53.0564 832.815 Q51.4968 830.015 51.4968 826.163 Q51.4968 822.28 53.4702 819.575 Q55.4436 816.838 59.1993 815.533 Z" fill="#000000" fill-rule="evenodd" fill-opacity="1" /><path clip-path="url(#clip670)" d="M 0 0 M52.3562 785.327 L52.3562 779.471 L88.0042 779.471 L88.0042 785.327 L52.3562 785.327 M38.479 785.327 L38.479 779.471 L45.895 779.471 L45.895 785.327 L38.479 785.327 Z" fill="#000000" fill-rule="evenodd" fill-opacity="1" /><path clip-path="url(#clip670)" d="M 0 0 M66.4881 743.696 L88.0042 743.696 L88.0042 749.552 L66.679 749.552 Q61.6183 749.552 59.1038 751.525 Q56.5894 753.499 56.5894 757.446 Q56.5894 762.188 59.6131 764.925 Q62.6368 767.662 67.8567 767.662 L88.0042 767.662 L88.0042 773.551 L52.3562 773.551 L52.3562 767.662 L57.8944 767.662 Q54.6797 765.562 53.0883 762.729 Q51.4968 759.864 51.4968 756.141 Q51.4968 749.998 55.3163 746.847 Q59.1038 743.696 66.4881 743.696 Z" fill="#000000" fill-rule="evenodd" fill-opacity="1" /><path clip-path="url(#clip670)" d="M 0 0 M98.8259 710.467 L103.377 710.467 L103.377 744.332 L98.8259 744.332 L98.8259 710.467 Z" fill="#000000" fill-rule="evenodd" fill-opacity="1" /><path clip-path="url(#clip670)" d="M 0 0 M57.7671 680.866 L38.479 680.866 L38.479 675.01 L88.0042 675.01 L88.0042 680.866 L82.657 680.866 Q85.8398 682.712 87.3994 685.545 Q88.9272 688.346 88.9272 692.292 Q88.9272 698.754 83.771 702.828 Q78.6147 706.87 70.212 706.87 Q61.8093 706.87 56.6531 702.828 Q51.4968 698.754 51.4968 692.292 Q51.4968 688.346 53.0564 685.545 Q54.5842 682.712 57.7671 680.866 M70.212 700.823 Q76.6732 700.823 80.3653 698.181 Q84.0256 695.507 84.0256 690.86 Q84.0256 686.213 80.3653 683.54 Q76.6732 680.866 70.212 680.866 Q63.7508 680.866 60.0905 683.54 Q56.3984 686.213 56.3984 690.86 Q56.3984 695.507 60.0905 698.181 Q63.7508 700.823 70.212 700.823 Z" fill="#000000" fill-rule="evenodd" fill-opacity="1" /><path clip-path="url(#clip670)" d="M 0 0 M52.3562 668.867 L52.3562 663.01 L88.0042 663.01 L88.0042 668.867 L52.3562 668.867 M38.479 668.867 L38.479 663.01 L45.895 663.01 L45.895 668.867 L38.479 668.867 Z" fill="#000000" fill-rule="evenodd" fill-opacity="1" /><path clip-path="url(#clip670)" d="M 0 0 M38.479 638.821 L43.3487 638.821 L43.3487 644.422 Q43.3487 647.573 44.6219 648.815 Q45.895 650.024 49.2052 650.024 L52.3562 650.024 L52.3562 640.38 L56.9077 640.38 L56.9077 650.024 L88.0042 650.024 L88.0042 655.912 L56.9077 655.912 L56.9077 661.514 L52.3562 661.514 L52.3562 655.912 L49.8736 655.912 Q43.9216 655.912 41.2162 653.143 Q38.479 650.374 38.479 644.359 L38.479 638.821 Z" fill="#000000" fill-rule="evenodd" fill-opacity="1" /><path clip-path="url(#clip670)" d="M 0 0 M38.479 614.631 L43.3487 614.631 L43.3487 620.233 Q43.3487 623.384 44.6219 624.625 Q45.895 625.835 49.2052 625.835 L52.3562 625.835 L52.3562 616.19 L56.9077 616.19 L56.9077 625.835 L88.0042 625.835 L88.0042 631.723 L56.9077 631.723 L56.9077 637.325 L52.3562 637.325 L52.3562 631.723 L49.8736 631.723 Q43.9216 631.723 41.2162 628.954 Q38.479 626.185 38.479 620.169 L38.479 614.631 Z" fill="#000000" fill-rule="evenodd" fill-opacity="1" /><path clip-path="url(#clip670)" d="
M1999.6 213.659 L2283.03 213.659 L2283.03 92.6992 L1999.6 92.6992  Z
  " fill="#ffffff" fill-rule="evenodd" fill-opacity="1"/>
<polyline clip-path="url(#clip670)" style="stroke:#000000; stroke-width:4; stroke-opacity:1; fill:none" points="
  1999.6,213.659 2283.03,213.659 2283.03,92.6992 1999.6,92.6992 1999.6,213.659 
  "/>
<polyline clip-path="url(#clip670)" style="stroke:#009af9; stroke-width:4; stroke-opacity:1; fill:none" stroke-dasharray="16, 10" points="
  2022.84,153.179 2162.29,153.179 
  "/>
<path clip-path="url(#clip670)" d="M 0 0 M2199.37 172.867 Q2197.57 177.496 2195.85 178.908 Q2194.14 180.32 2191.27 180.32 L2187.87 180.32 L2187.87 176.755 L2190.37 176.755 Q2192.13 176.755 2193.1 175.922 Q2194.07 175.089 2195.25 171.987 L2196.02 170.043 L2185.53 144.533 L2190.04 144.533 L2198.14 164.811 L2206.25 144.533 L2210.76 144.533 L2199.37 172.867 Z" fill="#000000" fill-rule="evenodd" fill-opacity="1" /><path clip-path="url(#clip670)" d="M 0 0 M2216.64 166.524 L2224.28 166.524 L2224.28 140.158 L2215.97 141.825 L2215.97 137.566 L2224.23 135.899 L2228.91 135.899 L2228.91 166.524 L2236.55 166.524 L2236.55 170.459 L2216.64 170.459 L2216.64 166.524 Z" fill="#000000" fill-rule="evenodd" fill-opacity="1" /></svg>
