<?xml version="1.0" encoding="utf-8"?>
<svg xmlns="http://www.w3.org/2000/svg" xmlns:xlink="http://www.w3.org/1999/xlink" width="600" height="400" viewBox="0 0 2400 1600">
<defs>
  <clipPath id="clip290">
    <rect x="0" y="0" width="2400" height="1600"/>
  </clipPath>
</defs>
<path clip-path="url(#clip290)" d="
M0 1600 L2400 1600 L2400 0 L0 0  Z
  " fill="#ffffff" fill-rule="evenodd" fill-opacity="1"/>
<defs>
  <clipPath id="clip291">
    <rect x="480" y="0" width="1681" height="1600"/>
  </clipPath>
</defs>
<path clip-path="url(#clip290)" d="
M235.283 1410.9 L2352.76 1410.9 L2352.76 47.2441 L235.283 47.2441  Z
  " fill="#ffffff" fill-rule="evenodd" fill-opacity="1"/>
<defs>
  <clipPath id="clip292">
    <rect x="235" y="47" width="2118" height="1365"/>
  </clipPath>
</defs>
<polyline clip-path="url(#clip292)" style="stroke:#000000; stroke-linecap:butt; stroke-linejoin:round; stroke-width:2; stroke-opacity:0.1; fill:none" points="
  757.416,1410.9 757.416,47.2441 
  "/>
<polyline clip-path="url(#clip292)" style="stroke:#000000; stroke-linecap:butt; stroke-linejoin:round; stroke-width:2; stroke-opacity:0.1; fill:none" points="
  1525.12,1410.9 1525.12,47.2441 
  "/>
<polyline clip-path="url(#clip292)" style="stroke:#000000; stroke-linecap:butt; stroke-linejoin:round; stroke-width:2; stroke-opacity:0.1; fill:none" points="
  2292.83,1410.9 2292.83,47.2441 
  "/>
<polyline clip-path="url(#clip290)" style="stroke:#000000; stroke-linecap:butt; stroke-linejoin:round; stroke-width:4; stroke-opacity:1; fill:none" points="
  235.283,1410.9 2352.76,1410.9 
  "/>
<polyline clip-path="url(#clip290)" style="stroke:#000000; stroke-linecap:butt; stroke-linejoin:round; stroke-width:4; stroke-opacity:1; fill:none" points="
  757.416,1410.9 757.416,1392 
  "/>
<polyline clip-path="url(#clip290)" style="stroke:#000000; stroke-linecap:butt; stroke-linejoin:round; stroke-width:4; stroke-opacity:1; fill:none" points="
  1525.12,1410.9 1525.12,1392 
  "/>
<polyline clip-path="url(#clip290)" style="stroke:#000000; stroke-linecap:butt; stroke-linejoin:round; stroke-width:4; stroke-opacity:1; fill:none" points="
  2292.83,1410.9 2292.83,1392 
  "/>
<path clip-path="url(#clip290)" d="M704.024 1485.02 L711.663 1485.02 L711.663 1458.66 L703.353 1460.32 L703.353 1456.06 L711.616 1454.4 L716.292 1454.4 L716.292 1485.02 L723.931 1485.02 L723.931 1488.96 L704.024 1488.96 L704.024 1485.02 Z" fill="#000000" fill-rule="evenodd" fill-opacity="1" /><path clip-path="url(#clip290)" d="M743.375 1457.48 Q739.764 1457.48 737.936 1461.04 Q736.13 1464.58 736.13 1471.71 Q736.13 1478.82 737.936 1482.38 Q739.764 1485.92 743.375 1485.92 Q747.01 1485.92 748.815 1482.38 Q750.644 1478.82 750.644 1471.71 Q750.644 1464.58 748.815 1461.04 Q747.01 1457.48 743.375 1457.48 M743.375 1453.77 Q749.186 1453.77 752.241 1458.38 Q755.32 1462.96 755.32 1471.71 Q755.32 1480.44 752.241 1485.04 Q749.186 1489.63 743.375 1489.63 Q737.565 1489.63 734.487 1485.04 Q731.431 1480.44 731.431 1471.71 Q731.431 1462.96 734.487 1458.38 Q737.565 1453.77 743.375 1453.77 Z" fill="#000000" fill-rule="evenodd" fill-opacity="1" /><path clip-path="url(#clip290)" d="M765.025 1435.97 Q762.091 1435.97 760.605 1438.86 Q759.138 1441.74 759.138 1447.53 Q759.138 1453.31 760.605 1456.2 Q762.091 1459.08 765.025 1459.08 Q767.977 1459.08 769.444 1456.2 Q770.93 1453.31 770.93 1447.53 Q770.93 1441.74 769.444 1438.86 Q767.977 1435.97 765.025 1435.97 M765.025 1432.96 Q769.745 1432.96 772.228 1436.7 Q774.729 1440.43 774.729 1447.53 Q774.729 1454.62 772.228 1458.37 Q769.745 1462.09 765.025 1462.09 Q760.304 1462.09 757.802 1458.37 Q755.32 1454.62 755.32 1447.53 Q755.32 1440.43 757.802 1436.7 Q760.304 1432.96 765.025 1432.96 Z" fill="#000000" fill-rule="evenodd" fill-opacity="1" /><path clip-path="url(#clip290)" d="M781.406 1456.77 L785.375 1456.77 L785.375 1461.55 L781.406 1461.55 L781.406 1456.77 Z" fill="#000000" fill-rule="evenodd" fill-opacity="1" /><path clip-path="url(#clip290)" d="M801.775 1435.97 Q798.841 1435.97 797.355 1438.86 Q795.888 1441.74 795.888 1447.53 Q795.888 1453.31 797.355 1456.2 Q798.841 1459.08 801.775 1459.08 Q804.728 1459.08 806.195 1456.2 Q807.681 1453.31 807.681 1447.53 Q807.681 1441.74 806.195 1438.86 Q804.728 1435.97 801.775 1435.97 M801.775 1432.96 Q806.496 1432.96 808.978 1436.7 Q811.48 1440.43 811.48 1447.53 Q811.48 1454.62 808.978 1458.37 Q806.496 1462.09 801.775 1462.09 Q797.054 1462.09 794.553 1458.37 Q792.07 1454.62 792.07 1447.53 Q792.07 1440.43 794.553 1436.7 Q797.054 1432.96 801.775 1432.96 Z" fill="#000000" fill-rule="evenodd" fill-opacity="1" /><path clip-path="url(#clip290)" d="M1472.13 1485.02 L1479.77 1485.02 L1479.77 1458.66 L1471.46 1460.32 L1471.46 1456.06 L1479.73 1454.4 L1484.4 1454.4 L1484.4 1485.02 L1492.04 1485.02 L1492.04 1488.96 L1472.13 1488.96 L1472.13 1485.02 Z" fill="#000000" fill-rule="evenodd" fill-opacity="1" /><path clip-path="url(#clip290)" d="M1511.49 1457.48 Q1507.87 1457.48 1506.05 1461.04 Q1504.24 1464.58 1504.24 1471.71 Q1504.24 1478.82 1506.05 1482.38 Q1507.87 1485.92 1511.49 1485.92 Q1515.12 1485.92 1516.93 1482.38 Q1518.75 1478.82 1518.75 1471.71 Q1518.75 1464.58 1516.93 1461.04 Q1515.12 1457.48 1511.49 1457.48 M1511.49 1453.77 Q1517.3 1453.77 1520.35 1458.38 Q1523.43 1462.96 1523.43 1471.71 Q1523.43 1480.44 1520.35 1485.04 Q1517.3 1489.63 1511.49 1489.63 Q1505.68 1489.63 1502.6 1485.04 Q1499.54 1480.44 1499.54 1471.71 Q1499.54 1462.96 1502.6 1458.38 Q1505.68 1453.77 1511.49 1453.77 Z" fill="#000000" fill-rule="evenodd" fill-opacity="1" /><path clip-path="url(#clip290)" d="M1533.13 1435.97 Q1530.2 1435.97 1528.71 1438.86 Q1527.25 1441.74 1527.25 1447.53 Q1527.25 1453.31 1528.71 1456.2 Q1530.2 1459.08 1533.13 1459.08 Q1536.09 1459.08 1537.55 1456.2 Q1539.04 1453.31 1539.04 1447.53 Q1539.04 1441.74 1537.55 1438.86 Q1536.09 1435.97 1533.13 1435.97 M1533.13 1432.96 Q1537.86 1432.96 1540.34 1436.7 Q1542.84 1440.43 1542.84 1447.53 Q1542.84 1454.62 1540.34 1458.37 Q1537.86 1462.09 1533.13 1462.09 Q1528.41 1462.09 1525.91 1458.37 Q1523.43 1454.62 1523.43 1447.53 Q1523.43 1440.43 1525.91 1436.7 Q1528.41 1432.96 1533.13 1432.96 Z" fill="#000000" fill-rule="evenodd" fill-opacity="1" /><path clip-path="url(#clip290)" d="M1549.52 1456.77 L1553.48 1456.77 L1553.48 1461.55 L1549.52 1461.55 L1549.52 1456.77 Z" fill="#000000" fill-rule="evenodd" fill-opacity="1" /><path clip-path="url(#clip290)" d="M1561.8 1433.47 L1576.71 1433.47 L1576.71 1436.66 L1565.28 1436.66 L1565.28 1443.55 Q1566.1 1443.27 1566.93 1443.13 Q1567.76 1442.98 1568.59 1442.98 Q1573.29 1442.98 1576.04 1445.56 Q1578.78 1448.14 1578.78 1452.54 Q1578.78 1457.07 1575.96 1459.59 Q1573.14 1462.09 1568 1462.09 Q1566.24 1462.09 1564.39 1461.79 Q1562.57 1461.49 1560.61 1460.89 L1560.61 1457.07 Q1562.31 1457.99 1564.11 1458.44 Q1565.92 1458.89 1567.93 1458.89 Q1571.18 1458.89 1573.08 1457.18 Q1574.98 1455.47 1574.98 1452.54 Q1574.98 1449.6 1573.08 1447.89 Q1571.18 1446.18 1567.93 1446.18 Q1566.41 1446.18 1564.88 1446.52 Q1563.38 1446.86 1561.8 1447.57 L1561.8 1433.47 Z" fill="#000000" fill-rule="evenodd" fill-opacity="1" /><path clip-path="url(#clip290)" d="M2240.28 1485.02 L2247.92 1485.02 L2247.92 1458.66 L2239.61 1460.32 L2239.61 1456.06 L2247.87 1454.4 L2252.55 1454.4 L2252.55 1485.02 L2260.19 1485.02 L2260.19 1488.96 L2240.28 1488.96 L2240.28 1485.02 Z" fill="#000000" fill-rule="evenodd" fill-opacity="1" /><path clip-path="url(#clip290)" d="M2279.63 1457.48 Q2276.02 1457.48 2274.19 1461.04 Q2272.39 1464.58 2272.39 1471.71 Q2272.39 1478.82 2274.19 1482.38 Q2276.02 1485.92 2279.63 1485.92 Q2283.27 1485.92 2285.07 1482.38 Q2286.9 1478.82 2286.9 1471.71 Q2286.9 1464.58 2285.07 1461.04 Q2283.27 1457.48 2279.63 1457.48 M2279.63 1453.77 Q2285.44 1453.77 2288.5 1458.38 Q2291.58 1462.96 2291.58 1471.71 Q2291.58 1480.44 2288.5 1485.04 Q2285.44 1489.63 2279.63 1489.63 Q2273.82 1489.63 2270.74 1485.04 Q2267.69 1480.44 2267.69 1471.71 Q2267.69 1462.96 2270.74 1458.38 Q2273.82 1453.77 2279.63 1453.77 Z" fill="#000000" fill-rule="evenodd" fill-opacity="1" /><path clip-path="url(#clip290)" d="M2292.12 1458.35 L2298.33 1458.35 L2298.33 1436.93 L2291.58 1438.28 L2291.58 1434.82 L2298.29 1433.47 L2302.09 1433.47 L2302.09 1458.35 L2308.3 1458.35 L2308.3 1461.55 L2292.12 1461.55 L2292.12 1458.35 Z" fill="#000000" fill-rule="evenodd" fill-opacity="1" /><path clip-path="url(#clip290)" d="M2315.97 1456.77 L2319.94 1456.77 L2319.94 1461.55 L2315.97 1461.55 L2315.97 1456.77 Z" fill="#000000" fill-rule="evenodd" fill-opacity="1" /><path clip-path="url(#clip290)" d="M2336.34 1435.97 Q2333.41 1435.97 2331.92 1438.86 Q2330.45 1441.74 2330.45 1447.53 Q2330.45 1453.31 2331.92 1456.2 Q2333.41 1459.08 2336.34 1459.08 Q2339.29 1459.08 2340.76 1456.2 Q2342.25 1453.31 2342.25 1447.53 Q2342.25 1441.74 2340.76 1438.86 Q2339.29 1435.97 2336.34 1435.97 M2336.34 1432.96 Q2341.06 1432.96 2343.54 1436.7 Q2346.04 1440.43 2346.04 1447.53 Q2346.04 1454.62 2343.54 1458.37 Q2341.06 1462.09 2336.34 1462.09 Q2331.62 1462.09 2329.12 1458.37 Q2326.64 1454.62 2326.64 1447.53 Q2326.64 1440.43 2329.12 1436.7 Q2331.62 1432.96 2336.34 1432.96 Z" fill="#000000" fill-rule="evenodd" fill-opacity="1" /><path clip-path="url(#clip290)" d="M1299.22 1557.6 L1297.82 1550.25 Q1296.39 1542.71 1290.73 1542.71 Q1286.46 1542.71 1284.52 1546.21 Q1282.07 1550.6 1282.07 1556.39 Q1282.07 1563.4 1284.45 1566.74 Q1286.87 1570.14 1290.73 1570.14 Q1294.99 1570.14 1297.28 1563.36 L1299.22 1557.6 M1302.5 1547.86 L1305.65 1538.54 L1310.87 1538.54 L1304.35 1557.86 L1305.62 1564.83 Q1305.91 1566.39 1307.02 1567.69 Q1308.33 1569.22 1309.34 1569.22 L1312.15 1569.22 L1312.15 1574.19 L1308.64 1574.19 Q1305.65 1574.19 1302.98 1571.51 Q1301.67 1570.18 1301.13 1567.37 Q1299.67 1570.91 1296.68 1573.68 Q1295.28 1574.98 1290.73 1574.98 Q1283.25 1574.98 1279.62 1570.14 Q1275.89 1565.15 1275.89 1556.39 Q1275.89 1547.04 1279.94 1542.64 Q1284.42 1537.74 1290.73 1537.74 Q1300.62 1537.74 1302.5 1547.86 Z" fill="#000000" fill-rule="evenodd" fill-opacity="1" /><polyline clip-path="url(#clip292)" style="stroke:#000000; stroke-linecap:butt; stroke-linejoin:round; stroke-width:2; stroke-opacity:0.1; fill:none" points="
  235.283,1377.9 2352.76,1377.9 
  "/>
<polyline clip-path="url(#clip292)" style="stroke:#000000; stroke-linecap:butt; stroke-linejoin:round; stroke-width:2; stroke-opacity:0.1; fill:none" points="
  235.283,1059.84 2352.76,1059.84 
  "/>
<polyline clip-path="url(#clip292)" style="stroke:#000000; stroke-linecap:butt; stroke-linejoin:round; stroke-width:2; stroke-opacity:0.1; fill:none" points="
  235.283,741.776 2352.76,741.776 
  "/>
<polyline clip-path="url(#clip292)" style="stroke:#000000; stroke-linecap:butt; stroke-linejoin:round; stroke-width:2; stroke-opacity:0.1; fill:none" points="
  235.283,423.716 2352.76,423.716 
  "/>
<polyline clip-path="url(#clip292)" style="stroke:#000000; stroke-linecap:butt; stroke-linejoin:round; stroke-width:2; stroke-opacity:0.1; fill:none" points="
  235.283,105.656 2352.76,105.656 
  "/>
<polyline clip-path="url(#clip290)" style="stroke:#000000; stroke-linecap:butt; stroke-linejoin:round; stroke-width:4; stroke-opacity:1; fill:none" points="
  235.283,1410.9 235.283,47.2441 
  "/>
<polyline clip-path="url(#clip290)" style="stroke:#000000; stroke-linecap:butt; stroke-linejoin:round; stroke-width:4; stroke-opacity:1; fill:none" points="
  235.283,1377.9 254.18,1377.9 
  "/>
<polyline clip-path="url(#clip290)" style="stroke:#000000; stroke-linecap:butt; stroke-linejoin:round; stroke-width:4; stroke-opacity:1; fill:none" points="
  235.283,1059.84 254.18,1059.84 
  "/>
<polyline clip-path="url(#clip290)" style="stroke:#000000; stroke-linecap:butt; stroke-linejoin:round; stroke-width:4; stroke-opacity:1; fill:none" points="
  235.283,741.776 254.18,741.776 
  "/>
<polyline clip-path="url(#clip290)" style="stroke:#000000; stroke-linecap:butt; stroke-linejoin:round; stroke-width:4; stroke-opacity:1; fill:none" points="
  235.283,423.716 254.18,423.716 
  "/>
<polyline clip-path="url(#clip290)" style="stroke:#000000; stroke-linecap:butt; stroke-linejoin:round; stroke-width:4; stroke-opacity:1; fill:none" points="
  235.283,105.656 254.18,105.656 
  "/>
<path clip-path="url(#clip290)" d="M187.338 1363.69 Q183.727 1363.69 181.899 1367.26 Q180.093 1370.8 180.093 1377.93 Q180.093 1385.04 181.899 1388.6 Q183.727 1392.14 187.338 1392.14 Q190.973 1392.14 192.778 1388.6 Q194.607 1385.04 194.607 1377.93 Q194.607 1370.8 192.778 1367.26 Q190.973 1363.69 187.338 1363.69 M187.338 1359.99 Q193.149 1359.99 196.204 1364.6 Q199.283 1369.18 199.283 1377.93 Q199.283 1386.66 196.204 1391.26 Q193.149 1395.85 187.338 1395.85 Q181.528 1395.85 178.45 1391.26 Q175.394 1386.66 175.394 1377.93 Q175.394 1369.18 178.45 1364.6 Q181.528 1359.99 187.338 1359.99 Z" fill="#000000" fill-rule="evenodd" fill-opacity="1" /><path clip-path="url(#clip290)" d="M121.043 1073.18 L137.362 1073.18 L137.362 1077.12 L115.418 1077.12 L115.418 1073.18 Q118.08 1070.43 122.663 1065.8 Q127.269 1061.14 128.45 1059.8 Q130.695 1057.28 131.575 1055.54 Q132.478 1053.78 132.478 1052.09 Q132.478 1049.34 130.533 1047.6 Q128.612 1045.87 125.51 1045.87 Q123.311 1045.87 120.857 1046.63 Q118.427 1047.39 115.649 1048.94 L115.649 1044.22 Q118.473 1043.09 120.927 1042.51 Q123.38 1041.93 125.418 1041.93 Q130.788 1041.93 133.982 1044.62 Q137.177 1047.3 137.177 1051.79 Q137.177 1053.92 136.367 1055.84 Q135.579 1057.74 133.473 1060.33 Q132.894 1061 129.792 1064.22 Q126.691 1067.42 121.043 1073.18 Z" fill="#000000" fill-rule="evenodd" fill-opacity="1" /><path clip-path="url(#clip290)" d="M157.177 1045.63 Q153.566 1045.63 151.737 1049.2 Q149.931 1052.74 149.931 1059.87 Q149.931 1066.98 151.737 1070.54 Q153.566 1074.08 157.177 1074.08 Q160.811 1074.08 162.616 1070.54 Q164.445 1066.98 164.445 1059.87 Q164.445 1052.74 162.616 1049.2 Q160.811 1045.63 157.177 1045.63 M157.177 1041.93 Q162.987 1041.93 166.042 1046.54 Q169.121 1051.12 169.121 1059.87 Q169.121 1068.6 166.042 1073.2 Q162.987 1077.79 157.177 1077.79 Q151.366 1077.79 148.288 1073.2 Q145.232 1068.6 145.232 1059.87 Q145.232 1051.12 148.288 1046.54 Q151.366 1041.93 157.177 1041.93 Z" fill="#000000" fill-rule="evenodd" fill-opacity="1" /><path clip-path="url(#clip290)" d="M187.338 1045.63 Q183.727 1045.63 181.899 1049.2 Q180.093 1052.74 180.093 1059.87 Q180.093 1066.98 181.899 1070.54 Q183.727 1074.08 187.338 1074.08 Q190.973 1074.08 192.778 1070.54 Q194.607 1066.98 194.607 1059.87 Q194.607 1052.74 192.778 1049.2 Q190.973 1045.63 187.338 1045.63 M187.338 1041.93 Q193.149 1041.93 196.204 1046.54 Q199.283 1051.12 199.283 1059.87 Q199.283 1068.6 196.204 1073.2 Q193.149 1077.79 187.338 1077.79 Q181.528 1077.79 178.45 1073.2 Q175.394 1068.6 175.394 1059.87 Q175.394 1051.12 178.45 1046.54 Q181.528 1041.93 187.338 1041.93 Z" fill="#000000" fill-rule="evenodd" fill-opacity="1" /><path clip-path="url(#clip290)" d="M129.862 728.57 L118.056 747.019 L129.862 747.019 L129.862 728.57 M128.635 724.496 L134.515 724.496 L134.515 747.019 L139.445 747.019 L139.445 750.908 L134.515 750.908 L134.515 759.056 L129.862 759.056 L129.862 750.908 L114.26 750.908 L114.26 746.394 L128.635 724.496 Z" fill="#000000" fill-rule="evenodd" fill-opacity="1" /><path clip-path="url(#clip290)" d="M157.177 727.574 Q153.566 727.574 151.737 731.139 Q149.931 734.681 149.931 741.81 Q149.931 748.917 151.737 752.482 Q153.566 756.023 157.177 756.023 Q160.811 756.023 162.616 752.482 Q164.445 748.917 164.445 741.81 Q164.445 734.681 162.616 731.139 Q160.811 727.574 157.177 727.574 M157.177 723.871 Q162.987 723.871 166.042 728.477 Q169.121 733.061 169.121 741.81 Q169.121 750.537 166.042 755.144 Q162.987 759.727 157.177 759.727 Q151.366 759.727 148.288 755.144 Q145.232 750.537 145.232 741.81 Q145.232 733.061 148.288 728.477 Q151.366 723.871 157.177 723.871 Z" fill="#000000" fill-rule="evenodd" fill-opacity="1" /><path clip-path="url(#clip290)" d="M187.338 727.574 Q183.727 727.574 181.899 731.139 Q180.093 734.681 180.093 741.81 Q180.093 748.917 181.899 752.482 Q183.727 756.023 187.338 756.023 Q190.973 756.023 192.778 752.482 Q194.607 748.917 194.607 741.81 Q194.607 734.681 192.778 731.139 Q190.973 727.574 187.338 727.574 M187.338 723.871 Q193.149 723.871 196.204 728.477 Q199.283 733.061 199.283 741.81 Q199.283 750.537 196.204 755.144 Q193.149 759.727 187.338 759.727 Q181.528 759.727 178.45 755.144 Q175.394 750.537 175.394 741.81 Q175.394 733.061 178.45 728.477 Q181.528 723.871 187.338 723.871 Z" fill="#000000" fill-rule="evenodd" fill-opacity="1" /><path clip-path="url(#clip290)" d="M127.593 421.853 Q124.445 421.853 122.593 424.005 Q120.765 426.158 120.765 429.908 Q120.765 433.635 122.593 435.811 Q124.445 437.964 127.593 437.964 Q130.742 437.964 132.57 435.811 Q134.422 433.635 134.422 429.908 Q134.422 426.158 132.57 424.005 Q130.742 421.853 127.593 421.853 M136.876 407.2 L136.876 411.459 Q135.117 410.626 133.311 410.186 Q131.529 409.746 129.769 409.746 Q125.14 409.746 122.686 412.871 Q120.255 415.996 119.908 422.316 Q121.274 420.302 123.334 419.237 Q125.394 418.149 127.871 418.149 Q133.08 418.149 136.089 421.32 Q139.121 424.468 139.121 429.908 Q139.121 435.232 135.973 438.45 Q132.825 441.667 127.593 441.667 Q121.598 441.667 118.427 437.084 Q115.256 432.478 115.256 423.751 Q115.256 415.556 119.144 410.695 Q123.033 405.811 129.584 405.811 Q131.343 405.811 133.126 406.158 Q134.931 406.506 136.876 407.2 Z" fill="#000000" fill-rule="evenodd" fill-opacity="1" /><path clip-path="url(#clip290)" d="M157.177 409.515 Q153.566 409.515 151.737 413.08 Q149.931 416.621 149.931 423.751 Q149.931 430.857 151.737 434.422 Q153.566 437.964 157.177 437.964 Q160.811 437.964 162.616 434.422 Q164.445 430.857 164.445 423.751 Q164.445 416.621 162.616 413.08 Q160.811 409.515 157.177 409.515 M157.177 405.811 Q162.987 405.811 166.042 410.418 Q169.121 415.001 169.121 423.751 Q169.121 432.478 166.042 437.084 Q162.987 441.667 157.177 441.667 Q151.366 441.667 148.288 437.084 Q145.232 432.478 145.232 423.751 Q145.232 415.001 148.288 410.418 Q151.366 405.811 157.177 405.811 Z" fill="#000000" fill-rule="evenodd" fill-opacity="1" /><path clip-path="url(#clip290)" d="M187.338 409.515 Q183.727 409.515 181.899 413.08 Q180.093 416.621 180.093 423.751 Q180.093 430.857 181.899 434.422 Q183.727 437.964 187.338 437.964 Q190.973 437.964 192.778 434.422 Q194.607 430.857 194.607 423.751 Q194.607 416.621 192.778 413.08 Q190.973 409.515 187.338 409.515 M187.338 405.811 Q193.149 405.811 196.204 410.418 Q199.283 415.001 199.283 423.751 Q199.283 432.478 196.204 437.084 Q193.149 441.667 187.338 441.667 Q181.528 441.667 178.45 437.084 Q175.394 432.478 175.394 423.751 Q175.394 415.001 178.45 410.418 Q181.528 405.811 187.338 405.811 Z" fill="#000000" fill-rule="evenodd" fill-opacity="1" /><path clip-path="url(#clip290)" d="M127.015 106.524 Q123.681 106.524 121.76 108.307 Q119.862 110.089 119.862 113.214 Q119.862 116.339 121.76 118.122 Q123.681 119.904 127.015 119.904 Q130.348 119.904 132.269 118.122 Q134.191 116.316 134.191 113.214 Q134.191 110.089 132.269 108.307 Q130.371 106.524 127.015 106.524 M122.339 104.534 Q119.33 103.793 117.64 101.733 Q115.973 99.6726 115.973 96.7097 Q115.973 92.5662 118.913 90.1588 Q121.876 87.7514 127.015 87.7514 Q132.177 87.7514 135.117 90.1588 Q138.056 92.5662 138.056 96.7097 Q138.056 99.6726 136.367 101.733 Q134.7 103.793 131.714 104.534 Q135.093 105.321 136.968 107.612 Q138.867 109.904 138.867 113.214 Q138.867 118.237 135.788 120.923 Q132.732 123.608 127.015 123.608 Q121.297 123.608 118.218 120.923 Q115.163 118.237 115.163 113.214 Q115.163 109.904 117.061 107.612 Q118.959 105.321 122.339 104.534 M120.626 97.1495 Q120.626 99.8347 122.293 101.339 Q123.982 102.844 127.015 102.844 Q130.024 102.844 131.714 101.339 Q133.427 99.8347 133.427 97.1495 Q133.427 94.4643 131.714 92.9597 Q130.024 91.4551 127.015 91.4551 Q123.982 91.4551 122.293 92.9597 Q120.626 94.4643 120.626 97.1495 Z" fill="#000000" fill-rule="evenodd" fill-opacity="1" /><path clip-path="url(#clip290)" d="M157.177 91.4551 Q153.566 91.4551 151.737 95.0199 Q149.931 98.5615 149.931 105.691 Q149.931 112.798 151.737 116.362 Q153.566 119.904 157.177 119.904 Q160.811 119.904 162.616 116.362 Q164.445 112.798 164.445 105.691 Q164.445 98.5615 162.616 95.0199 Q160.811 91.4551 157.177 91.4551 M157.177 87.7514 Q162.987 87.7514 166.042 92.3579 Q169.121 96.9412 169.121 105.691 Q169.121 114.418 166.042 119.024 Q162.987 123.608 157.177 123.608 Q151.366 123.608 148.288 119.024 Q145.232 114.418 145.232 105.691 Q145.232 96.9412 148.288 92.3579 Q151.366 87.7514 157.177 87.7514 Z" fill="#000000" fill-rule="evenodd" fill-opacity="1" /><path clip-path="url(#clip290)" d="M187.338 91.4551 Q183.727 91.4551 181.899 95.0199 Q180.093 98.5615 180.093 105.691 Q180.093 112.798 181.899 116.362 Q183.727 119.904 187.338 119.904 Q190.973 119.904 192.778 116.362 Q194.607 112.798 194.607 105.691 Q194.607 98.5615 192.778 95.0199 Q190.973 91.4551 187.338 91.4551 M187.338 87.7514 Q193.149 87.7514 196.204 92.3579 Q199.283 96.9412 199.283 105.691 Q199.283 114.418 196.204 119.024 Q193.149 123.608 187.338 123.608 Q181.528 123.608 178.45 119.024 Q175.394 114.418 175.394 105.691 Q175.394 96.9412 178.45 92.3579 Q181.528 87.7514 187.338 87.7514 Z" fill="#000000" fill-rule="evenodd" fill-opacity="1" /><path clip-path="url(#clip290)" d="M35.1993 829.203 Q31.2526 827.007 29.3747 823.951 Q27.4968 820.896 27.4968 816.758 Q27.4968 811.188 31.4117 808.164 Q35.2948 805.141 42.4881 805.141 L64.0042 805.141 L64.0042 811.029 L42.679 811.029 Q37.5546 811.029 35.072 812.843 Q32.5894 814.657 32.5894 818.381 Q32.5894 822.933 35.6131 825.574 Q38.6368 828.216 43.8567 828.216 L64.0042 828.216 L64.0042 834.105 L42.679 834.105 Q37.5228 834.105 35.072 835.919 Q32.5894 837.733 32.5894 841.521 Q32.5894 846.008 35.6449 848.65 Q38.6686 851.292 43.8567 851.292 L64.0042 851.292 L64.0042 857.18 L28.3562 857.18 L28.3562 851.292 L33.8944 851.292 Q30.616 849.287 29.0564 846.486 Q27.4968 843.685 27.4968 839.834 Q27.4968 835.951 29.4702 833.245 Q31.4436 830.508 35.1993 829.203 Z" fill="#000000" fill-rule="evenodd" fill-opacity="1" /><path clip-path="url(#clip290)" d="M28.3562 793.459 L28.3562 787.603 L64.0042 787.603 L64.0042 793.459 L28.3562 793.459 M14.479 793.459 L14.479 787.603 L21.895 787.603 L21.895 793.459 L14.479 793.459 Z" fill="#000000" fill-rule="evenodd" fill-opacity="1" /><path clip-path="url(#clip290)" d="M42.4881 745.717 L64.0042 745.717 L64.0042 751.573 L42.679 751.573 Q37.6183 751.573 35.1038 753.547 Q32.5894 755.52 32.5894 759.467 Q32.5894 764.209 35.6131 766.946 Q38.6368 769.684 43.8567 769.684 L64.0042 769.684 L64.0042 775.572 L28.3562 775.572 L28.3562 769.684 L33.8944 769.684 Q30.6797 767.583 29.0883 764.75 Q27.4968 761.886 27.4968 758.162 Q27.4968 752.019 31.3163 748.868 Q35.1038 745.717 42.4881 745.717 Z" fill="#000000" fill-rule="evenodd" fill-opacity="1" /><path clip-path="url(#clip290)" d="M74.8259 706.95 L79.3773 706.95 L79.3773 740.815 L74.8259 740.815 L74.8259 706.95 Z" fill="#000000" fill-rule="evenodd" fill-opacity="1" /><path clip-path="url(#clip290)" d="M33.7671 677.986 L14.479 677.986 L14.479 672.129 L64.0042 672.129 L64.0042 677.986 L58.657 677.986 Q61.8398 679.832 63.3994 682.664 Q64.9272 685.465 64.9272 689.412 Q64.9272 695.873 59.771 699.947 Q54.6147 703.989 46.212 703.989 Q37.8093 703.989 32.6531 699.947 Q27.4968 695.873 27.4968 689.412 Q27.4968 685.465 29.0564 682.664 Q30.5842 679.832 33.7671 677.986 M46.212 697.942 Q52.6732 697.942 56.3653 695.3 Q60.0256 692.627 60.0256 687.98 Q60.0256 683.333 56.3653 680.659 Q52.6732 677.986 46.212 677.986 Q39.7508 677.986 36.0905 680.659 Q32.3984 683.333 32.3984 687.98 Q32.3984 692.627 36.0905 695.3 Q39.7508 697.942 46.212 697.942 Z" fill="#000000" fill-rule="evenodd" fill-opacity="1" /><path clip-path="url(#clip290)" d="M28.3562 660.066 L28.3562 654.21 L64.0042 654.21 L64.0042 660.066 L28.3562 660.066 M14.479 660.066 L14.479 654.21 L21.895 654.21 L21.895 660.066 L14.479 660.066 Z" fill="#000000" fill-rule="evenodd" fill-opacity="1" /><path clip-path="url(#clip290)" d="M14.479 623.909 L19.3487 623.909 L19.3487 629.511 Q19.3487 632.662 20.6219 633.903 Q21.895 635.113 25.2052 635.113 L28.3562 635.113 L28.3562 625.468 L32.9077 625.468 L32.9077 635.113 L64.0042 635.113 L64.0042 641.001 L32.9077 641.001 L32.9077 646.603 L28.3562 646.603 L28.3562 641.001 L25.8736 641.001 Q19.9216 641.001 17.2162 638.232 Q14.479 635.463 14.479 629.447 L14.479 623.909 Z" fill="#000000" fill-rule="evenodd" fill-opacity="1" /><path clip-path="url(#clip290)" d="M14.479 600.961 L19.3487 600.961 L19.3487 606.562 Q19.3487 609.713 20.6219 610.955 Q21.895 612.164 25.2052 612.164 L28.3562 612.164 L28.3562 602.52 L32.9077 602.52 L32.9077 612.164 L64.0042 612.164 L64.0042 618.052 L32.9077 618.052 L32.9077 623.654 L28.3562 623.654 L28.3562 618.052 L25.8736 618.052 Q19.9216 618.052 17.2162 615.283 Q14.479 612.514 14.479 606.499 L14.479 600.961 Z" fill="#000000" fill-rule="evenodd" fill-opacity="1" /><polyline clip-path="url(#clip292)" style="stroke:#009af9; stroke-linecap:butt; stroke-linejoin:round; stroke-width:20; stroke-opacity:1; fill:none" stroke-dasharray="80, 50" points="
  295.211,1317.97 757.416,1368.81 1027.79,1372.3 1219.62,1361.4 1368.42,1293.67 1489.99,1203.39 1592.78,1102.33 1681.83,998.745 1760.37,896.882 1830.62,798.879 
  1894.18,705.766 1952.2,617.934 2005.57,535.416 2054.99,458.054 2101,385.588 2144.03,317.713 2184.46,254.108 2222.57,194.46 2258.62,138.464 2292.83,85.838 
  
  "/>
<path clip-path="url(#clip290)" d="
M1994.47 196.379 L2282.17 196.379 L2282.17 92.6992 L1994.47 92.6992  Z
  " fill="#ffffff" fill-rule="evenodd" fill-opacity="1"/>
<polyline clip-path="url(#clip290)" style="stroke:#000000; stroke-linecap:butt; stroke-linejoin:round; stroke-width:4; stroke-opacity:1; fill:none" points="
  1994.47,196.379 2282.17,196.379 2282.17,92.6992 1994.47,92.6992 1994.47,196.379 
  "/>
<polyline clip-path="url(#clip290)" style="stroke:#009af9; stroke-linecap:butt; stroke-linejoin:round; stroke-width:4; stroke-opacity:1; fill:none" stroke-dasharray="16, 10" points="
  2018,144.539 2159.16,144.539 
  "/>
<path clip-path="url(#clip290)" d="M2196.53 164.227 Q2194.73 168.856 2193.01 170.268 Q2191.3 171.68 2188.43 171.68 L2185.03 171.68 L2185.03 168.115 L2187.53 168.115 Q2189.29 168.115 2190.26 167.282 Q2191.23 166.449 2192.41 163.347 L2193.17 161.403 L2182.69 135.893 L2187.2 135.893 L2195.3 156.171 L2203.41 135.893 L2207.92 135.893 L2196.53 164.227 Z" fill="#000000" fill-rule="evenodd" fill-opacity="1" /><path clip-path="url(#clip290)" d="M2215.21 157.884 L2222.85 157.884 L2222.85 131.518 L2214.54 133.185 L2214.54 128.926 L2222.8 127.259 L2227.48 127.259 L2227.48 157.884 L2235.12 157.884 L2235.12 161.819 L2215.21 161.819 L2215.21 157.884 Z" fill="#000000" fill-rule="evenodd" fill-opacity="1" /></svg>
