<?xml version="1.0" encoding="utf-8"?>
<svg xmlns="http://www.w3.org/2000/svg" xmlns:xlink="http://www.w3.org/1999/xlink" width="600" height="400" viewBox="0 0 2400 1600">
<defs>
  <clipPath id="clip210">
    <rect x="0" y="0" width="2400" height="1600"/>
  </clipPath>
</defs>
<path clip-path="url(#clip210)" d="
M0 1600 L2400 1600 L2400 0 L0 0  Z
  " fill="#ffffff" fill-rule="evenodd" fill-opacity="1"/>
<defs>
  <clipPath id="clip211">
    <rect x="480" y="0" width="1681" height="1600"/>
  </clipPath>
</defs>
<path clip-path="url(#clip210)" d="
M261.741 1410.9 L2352.76 1410.9 L2352.76 47.2441 L261.741 47.2441  Z
  " fill="#ffffff" fill-rule="evenodd" fill-opacity="1"/>
<defs>
  <clipPath id="clip212">
    <rect x="261" y="47" width="2092" height="1365"/>
  </clipPath>
</defs>
<polyline clip-path="url(#clip212)" style="stroke:#000000; stroke-width:2; stroke-opacity:0.1; fill:none" points="
  320.921,1410.9 320.921,47.2441 
  "/>
<polyline clip-path="url(#clip212)" style="stroke:#000000; stroke-width:2; stroke-opacity:0.1; fill:none" points="
  715.452,1410.9 715.452,47.2441 
  "/>
<polyline clip-path="url(#clip212)" style="stroke:#000000; stroke-width:2; stroke-opacity:0.1; fill:none" points="
  1109.98,1410.9 1109.98,47.2441 
  "/>
<polyline clip-path="url(#clip212)" style="stroke:#000000; stroke-width:2; stroke-opacity:0.1; fill:none" points="
  1504.51,1410.9 1504.51,47.2441 
  "/>
<polyline clip-path="url(#clip212)" style="stroke:#000000; stroke-width:2; stroke-opacity:0.1; fill:none" points="
  1899.05,1410.9 1899.05,47.2441 
  "/>
<polyline clip-path="url(#clip212)" style="stroke:#000000; stroke-width:2; stroke-opacity:0.1; fill:none" points="
  2293.58,1410.9 2293.58,47.2441 
  "/>
<polyline clip-path="url(#clip210)" style="stroke:#000000; stroke-width:4; stroke-opacity:1; fill:none" points="
  261.741,1410.9 2352.76,1410.9 
  "/>
<polyline clip-path="url(#clip210)" style="stroke:#000000; stroke-width:4; stroke-opacity:1; fill:none" points="
  320.921,1410.9 320.921,1394.53 
  "/>
<polyline clip-path="url(#clip210)" style="stroke:#000000; stroke-width:4; stroke-opacity:1; fill:none" points="
  715.452,1410.9 715.452,1394.53 
  "/>
<polyline clip-path="url(#clip210)" style="stroke:#000000; stroke-width:4; stroke-opacity:1; fill:none" points="
  1109.98,1410.9 1109.98,1394.53 
  "/>
<polyline clip-path="url(#clip210)" style="stroke:#000000; stroke-width:4; stroke-opacity:1; fill:none" points="
  1504.51,1410.9 1504.51,1394.53 
  "/>
<polyline clip-path="url(#clip210)" style="stroke:#000000; stroke-width:4; stroke-opacity:1; fill:none" points="
  1899.05,1410.9 1899.05,1394.53 
  "/>
<polyline clip-path="url(#clip210)" style="stroke:#000000; stroke-width:4; stroke-opacity:1; fill:none" points="
  2293.58,1410.9 2293.58,1394.53 
  "/>
<path clip-path="url(#clip210)" d="M 0 0 M260.152 1489.17 L267.791 1489.17 L267.791 1462.8 L259.481 1464.47 L259.481 1460.21 L267.745 1458.54 L272.421 1458.54 L272.421 1489.17 L280.059 1489.17 L280.059 1493.1 L260.152 1493.1 L260.152 1489.17 Z" fill="#000000" fill-rule="evenodd" fill-opacity="1" /><path clip-path="url(#clip210)" d="M 0 0 M295.129 1461.62 Q291.518 1461.62 289.689 1465.19 Q287.883 1468.73 287.883 1475.86 Q287.883 1482.97 289.689 1486.53 Q291.518 1490.07 295.129 1490.07 Q298.763 1490.07 300.569 1486.53 Q302.397 1482.97 302.397 1475.86 Q302.397 1468.73 300.569 1465.19 Q298.763 1461.62 295.129 1461.62 M295.129 1457.92 Q300.939 1457.92 303.994 1462.53 Q307.073 1467.11 307.073 1475.86 Q307.073 1484.59 303.994 1489.19 Q300.939 1493.78 295.129 1493.78 Q289.319 1493.78 286.24 1489.19 Q283.184 1484.59 283.184 1475.86 Q283.184 1467.11 286.24 1462.53 Q289.319 1457.92 295.129 1457.92 Z" fill="#000000" fill-rule="evenodd" fill-opacity="1" /><path clip-path="url(#clip210)" d="M 0 0 M307.073 1452.02 L331.185 1452.02 L331.185 1455.22 L307.073 1455.22 L307.073 1452.02 Z" fill="#000000" fill-rule="evenodd" fill-opacity="1" /><path clip-path="url(#clip210)" d="M 0 0 M335.341 1437.61 L350.256 1437.61 L350.256 1440.81 L338.821 1440.81 L338.821 1447.69 Q339.648 1447.41 340.476 1447.28 Q341.303 1447.13 342.131 1447.13 Q346.833 1447.13 349.579 1449.71 Q352.325 1452.28 352.325 1456.68 Q352.325 1461.22 349.503 1463.74 Q346.682 1466.24 341.548 1466.24 Q339.78 1466.24 337.937 1465.94 Q336.112 1465.64 334.156 1465.04 L334.156 1461.22 Q335.849 1462.14 337.655 1462.59 Q339.46 1463.04 341.473 1463.04 Q344.726 1463.04 346.626 1461.33 Q348.525 1459.62 348.525 1456.68 Q348.525 1453.75 346.626 1452.04 Q344.726 1450.33 341.473 1450.33 Q339.949 1450.33 338.426 1450.67 Q336.921 1451 335.341 1451.72 L335.341 1437.61 Z" fill="#000000" fill-rule="evenodd" fill-opacity="1" /><path clip-path="url(#clip210)" d="M 0 0 M356.444 1460.92 L360.412 1460.92 L360.412 1465.69 L356.444 1465.69 L356.444 1460.92 Z" fill="#000000" fill-rule="evenodd" fill-opacity="1" /><path clip-path="url(#clip210)" d="M 0 0 M372.656 1440.11 Q369.722 1440.11 368.236 1443.01 Q366.769 1445.89 366.769 1451.68 Q366.769 1457.46 368.236 1460.35 Q369.722 1463.23 372.656 1463.23 Q375.609 1463.23 377.076 1460.35 Q378.561 1457.46 378.561 1451.68 Q378.561 1445.89 377.076 1443.01 Q375.609 1440.11 372.656 1440.11 M372.656 1437.11 Q377.377 1437.11 379.859 1440.85 Q382.361 1444.57 382.361 1451.68 Q382.361 1458.77 379.859 1462.51 Q377.377 1466.24 372.656 1466.24 Q367.935 1466.24 365.434 1462.51 Q362.951 1458.77 362.951 1451.68 Q362.951 1444.57 365.434 1440.85 Q367.935 1437.11 372.656 1437.11 Z" fill="#000000" fill-rule="evenodd" fill-opacity="1" /><path clip-path="url(#clip210)" d="M 0 0 M654.157 1489.17 L661.795 1489.17 L661.795 1462.8 L653.485 1464.47 L653.485 1460.21 L661.749 1458.54 L666.425 1458.54 L666.425 1489.17 L674.064 1489.17 L674.064 1493.1 L654.157 1493.1 L654.157 1489.17 Z" fill="#000000" fill-rule="evenodd" fill-opacity="1" /><path clip-path="url(#clip210)" d="M 0 0 M689.133 1461.62 Q685.522 1461.62 683.693 1465.19 Q681.888 1468.73 681.888 1475.86 Q681.888 1482.97 683.693 1486.53 Q685.522 1490.07 689.133 1490.07 Q692.767 1490.07 694.573 1486.53 Q696.402 1482.97 696.402 1475.86 Q696.402 1468.73 694.573 1465.19 Q692.767 1461.62 689.133 1461.62 M689.133 1457.92 Q694.943 1457.92 697.999 1462.53 Q701.078 1467.11 701.078 1475.86 Q701.078 1484.59 697.999 1489.19 Q694.943 1493.78 689.133 1493.78 Q683.323 1493.78 680.244 1489.19 Q677.189 1484.59 677.189 1475.86 Q677.189 1467.11 680.244 1462.53 Q683.323 1457.92 689.133 1457.92 Z" fill="#000000" fill-rule="evenodd" fill-opacity="1" /><path clip-path="url(#clip210)" d="M 0 0 M701.078 1452.02 L725.189 1452.02 L725.189 1455.22 L701.078 1455.22 L701.078 1452.02 Z" fill="#000000" fill-rule="evenodd" fill-opacity="1" /><path clip-path="url(#clip210)" d="M 0 0 M739.746 1440.92 L730.154 1455.91 L739.746 1455.91 L739.746 1440.92 M738.75 1437.61 L743.527 1437.61 L743.527 1455.91 L747.533 1455.91 L747.533 1459.07 L743.527 1459.07 L743.527 1465.69 L739.746 1465.69 L739.746 1459.07 L727.07 1459.07 L727.07 1455.41 L738.75 1437.61 Z" fill="#000000" fill-rule="evenodd" fill-opacity="1" /><path clip-path="url(#clip210)" d="M 0 0 M751.652 1460.92 L755.62 1460.92 L755.62 1465.69 L751.652 1465.69 L751.652 1460.92 Z" fill="#000000" fill-rule="evenodd" fill-opacity="1" /><path clip-path="url(#clip210)" d="M 0 0 M759.852 1465.11 L759.852 1461.65 Q761.281 1462.33 762.748 1462.68 Q764.215 1463.04 765.626 1463.04 Q769.387 1463.04 771.362 1460.52 Q773.356 1457.98 773.638 1452.83 Q772.547 1454.45 770.873 1455.31 Q769.199 1456.18 767.168 1456.18 Q762.955 1456.18 760.491 1453.64 Q758.046 1451.08 758.046 1446.66 Q758.046 1442.33 760.604 1439.72 Q763.162 1437.11 767.413 1437.11 Q772.284 1437.11 774.842 1440.85 Q777.418 1444.57 777.418 1451.68 Q777.418 1458.32 774.259 1462.29 Q771.118 1466.24 765.795 1466.24 Q764.366 1466.24 762.899 1465.96 Q761.432 1465.67 759.852 1465.11 M767.413 1453.21 Q769.97 1453.21 771.456 1451.46 Q772.961 1449.71 772.961 1446.66 Q772.961 1443.63 771.456 1441.88 Q769.97 1440.11 767.413 1440.11 Q764.855 1440.11 763.35 1441.88 Q761.864 1443.63 761.864 1446.66 Q761.864 1449.71 763.35 1451.46 Q764.855 1453.21 767.413 1453.21 Z" fill="#000000" fill-rule="evenodd" fill-opacity="1" /><path clip-path="url(#clip210)" d="M 0 0 M1048.65 1489.17 L1056.29 1489.17 L1056.29 1462.8 L1047.98 1464.47 L1047.98 1460.21 L1056.24 1458.54 L1060.92 1458.54 L1060.92 1489.17 L1068.56 1489.17 L1068.56 1493.1 L1048.65 1493.1 L1048.65 1489.17 Z" fill="#000000" fill-rule="evenodd" fill-opacity="1" /><path clip-path="url(#clip210)" d="M 0 0 M1083.63 1461.62 Q1080.02 1461.62 1078.19 1465.19 Q1076.38 1468.73 1076.38 1475.86 Q1076.38 1482.97 1078.19 1486.53 Q1080.02 1490.07 1083.63 1490.07 Q1087.26 1490.07 1089.07 1486.53 Q1090.9 1482.97 1090.9 1475.86 Q1090.9 1468.73 1089.07 1465.19 Q1087.26 1461.62 1083.63 1461.62 M1083.63 1457.92 Q1089.44 1457.92 1092.49 1462.53 Q1095.57 1467.11 1095.57 1475.86 Q1095.57 1484.59 1092.49 1489.19 Q1089.44 1493.78 1083.63 1493.78 Q1077.82 1493.78 1074.74 1489.19 Q1071.68 1484.59 1071.68 1475.86 Q1071.68 1467.11 1074.74 1462.53 Q1077.82 1457.92 1083.63 1457.92 Z" fill="#000000" fill-rule="evenodd" fill-opacity="1" /><path clip-path="url(#clip210)" d="M 0 0 M1095.57 1452.02 L1119.68 1452.02 L1119.68 1455.22 L1095.57 1455.22 L1095.57 1452.02 Z" fill="#000000" fill-rule="evenodd" fill-opacity="1" /><path clip-path="url(#clip210)" d="M 0 0 M1134.24 1440.92 L1124.65 1455.91 L1134.24 1455.91 L1134.24 1440.92 M1133.24 1437.61 L1138.02 1437.61 L1138.02 1455.91 L1142.03 1455.91 L1142.03 1459.07 L1138.02 1459.07 L1138.02 1465.69 L1134.24 1465.69 L1134.24 1459.07 L1121.56 1459.07 L1121.56 1455.41 L1133.24 1437.61 Z" fill="#000000" fill-rule="evenodd" fill-opacity="1" /><path clip-path="url(#clip210)" d="M 0 0 M1146.15 1460.92 L1150.11 1460.92 L1150.11 1465.69 L1146.15 1465.69 L1146.15 1460.92 Z" fill="#000000" fill-rule="evenodd" fill-opacity="1" /><path clip-path="url(#clip210)" d="M 0 0 M1162.36 1452.36 Q1159.65 1452.36 1158.09 1453.81 Q1156.55 1455.26 1156.55 1457.79 Q1156.55 1460.33 1158.09 1461.78 Q1159.65 1463.23 1162.36 1463.23 Q1165.07 1463.23 1166.63 1461.78 Q1168.19 1460.31 1168.19 1457.79 Q1168.19 1455.26 1166.63 1453.81 Q1165.08 1452.36 1162.36 1452.36 M1158.56 1450.74 Q1156.11 1450.14 1154.74 1448.47 Q1153.39 1446.79 1153.39 1444.38 Q1153.39 1441.02 1155.77 1439.06 Q1158.18 1437.11 1162.36 1437.11 Q1166.55 1437.11 1168.94 1439.06 Q1171.33 1441.02 1171.33 1444.38 Q1171.33 1446.79 1169.96 1448.47 Q1168.6 1450.14 1166.18 1450.74 Q1168.92 1451.38 1170.44 1453.24 Q1171.99 1455.1 1171.99 1457.79 Q1171.99 1461.88 1169.49 1464.06 Q1167 1466.24 1162.36 1466.24 Q1157.71 1466.24 1155.21 1464.06 Q1152.73 1461.88 1152.73 1457.79 Q1152.73 1455.1 1154.27 1453.24 Q1155.81 1451.38 1158.56 1450.74 M1157.17 1444.74 Q1157.17 1446.92 1158.52 1448.15 Q1159.89 1449.37 1162.36 1449.37 Q1164.8 1449.37 1166.18 1448.15 Q1167.57 1446.92 1167.57 1444.74 Q1167.57 1442.56 1166.18 1441.34 Q1164.8 1440.11 1162.36 1440.11 Q1159.89 1440.11 1158.52 1441.34 Q1157.17 1442.56 1157.17 1444.74 Z" fill="#000000" fill-rule="evenodd" fill-opacity="1" /><path clip-path="url(#clip210)" d="M 0 0 M1443.51 1489.17 L1451.15 1489.17 L1451.15 1462.8 L1442.84 1464.47 L1442.84 1460.21 L1451.1 1458.54 L1455.78 1458.54 L1455.78 1489.17 L1463.42 1489.17 L1463.42 1493.1 L1443.51 1493.1 L1443.51 1489.17 Z" fill="#000000" fill-rule="evenodd" fill-opacity="1" /><path clip-path="url(#clip210)" d="M 0 0 M1478.49 1461.62 Q1474.88 1461.62 1473.05 1465.19 Q1471.24 1468.73 1471.24 1475.86 Q1471.24 1482.97 1473.05 1486.53 Q1474.88 1490.07 1478.49 1490.07 Q1482.12 1490.07 1483.93 1486.53 Q1485.76 1482.97 1485.76 1475.86 Q1485.76 1468.73 1483.93 1465.19 Q1482.12 1461.62 1478.49 1461.62 M1478.49 1457.92 Q1484.3 1457.92 1487.35 1462.53 Q1490.43 1467.11 1490.43 1475.86 Q1490.43 1484.59 1487.35 1489.19 Q1484.3 1493.78 1478.49 1493.78 Q1472.68 1493.78 1469.6 1489.19 Q1466.54 1484.59 1466.54 1475.86 Q1466.54 1467.11 1469.6 1462.53 Q1472.68 1457.92 1478.49 1457.92 Z" fill="#000000" fill-rule="evenodd" fill-opacity="1" /><path clip-path="url(#clip210)" d="M 0 0 M1490.43 1452.02 L1514.54 1452.02 L1514.54 1455.22 L1490.43 1455.22 L1490.43 1452.02 Z" fill="#000000" fill-rule="evenodd" fill-opacity="1" /><path clip-path="url(#clip210)" d="M 0 0 M1529.1 1440.92 L1519.51 1455.91 L1529.1 1455.91 L1529.1 1440.92 M1528.1 1437.61 L1532.88 1437.61 L1532.88 1455.91 L1536.89 1455.91 L1536.89 1459.07 L1532.88 1459.07 L1532.88 1465.69 L1529.1 1465.69 L1529.1 1459.07 L1516.42 1459.07 L1516.42 1455.41 L1528.1 1437.61 Z" fill="#000000" fill-rule="evenodd" fill-opacity="1" /><path clip-path="url(#clip210)" d="M 0 0 M1541.01 1460.92 L1544.97 1460.92 L1544.97 1465.69 L1541.01 1465.69 L1541.01 1460.92 Z" fill="#000000" fill-rule="evenodd" fill-opacity="1" /><path clip-path="url(#clip210)" d="M 0 0 M1548.13 1437.61 L1566.19 1437.61 L1566.19 1439.23 L1556 1465.69 L1552.03 1465.69 L1561.62 1440.81 L1548.13 1440.81 L1548.13 1437.61 Z" fill="#000000" fill-rule="evenodd" fill-opacity="1" /><path clip-path="url(#clip210)" d="M 0 0 M1837.61 1489.17 L1845.25 1489.17 L1845.25 1462.8 L1836.94 1464.47 L1836.94 1460.21 L1845.2 1458.54 L1849.88 1458.54 L1849.88 1489.17 L1857.52 1489.17 L1857.52 1493.1 L1837.61 1493.1 L1837.61 1489.17 Z" fill="#000000" fill-rule="evenodd" fill-opacity="1" /><path clip-path="url(#clip210)" d="M 0 0 M1872.59 1461.62 Q1868.97 1461.62 1867.15 1465.19 Q1865.34 1468.73 1865.34 1475.86 Q1865.34 1482.97 1867.15 1486.53 Q1868.97 1490.07 1872.59 1490.07 Q1876.22 1490.07 1878.03 1486.53 Q1879.85 1482.97 1879.85 1475.86 Q1879.85 1468.73 1878.03 1465.19 Q1876.22 1461.62 1872.59 1461.62 M1872.59 1457.92 Q1878.4 1457.92 1881.45 1462.53 Q1884.53 1467.11 1884.53 1475.86 Q1884.53 1484.59 1881.45 1489.19 Q1878.4 1493.78 1872.59 1493.78 Q1866.78 1493.78 1863.7 1489.19 Q1860.64 1484.59 1860.64 1475.86 Q1860.64 1467.11 1863.7 1462.53 Q1866.78 1457.92 1872.59 1457.92 Z" fill="#000000" fill-rule="evenodd" fill-opacity="1" /><path clip-path="url(#clip210)" d="M 0 0 M1884.53 1452.02 L1908.64 1452.02 L1908.64 1455.22 L1884.53 1455.22 L1884.53 1452.02 Z" fill="#000000" fill-rule="evenodd" fill-opacity="1" /><path clip-path="url(#clip210)" d="M 0 0 M1923.2 1440.92 L1913.61 1455.91 L1923.2 1455.91 L1923.2 1440.92 M1922.2 1437.61 L1926.98 1437.61 L1926.98 1455.91 L1930.99 1455.91 L1930.99 1459.07 L1926.98 1459.07 L1926.98 1465.69 L1923.2 1465.69 L1923.2 1459.07 L1910.52 1459.07 L1910.52 1455.41 L1922.2 1437.61 Z" fill="#000000" fill-rule="evenodd" fill-opacity="1" /><path clip-path="url(#clip210)" d="M 0 0 M1935.1 1460.92 L1939.07 1460.92 L1939.07 1465.69 L1935.1 1465.69 L1935.1 1460.92 Z" fill="#000000" fill-rule="evenodd" fill-opacity="1" /><path clip-path="url(#clip210)" d="M 0 0 M1951.79 1450.14 Q1949.23 1450.14 1947.72 1451.89 Q1946.24 1453.64 1946.24 1456.68 Q1946.24 1459.71 1947.72 1461.48 Q1949.23 1463.23 1951.79 1463.23 Q1954.34 1463.23 1955.83 1461.48 Q1957.33 1459.71 1957.33 1456.68 Q1957.33 1453.64 1955.83 1451.89 Q1954.34 1450.14 1951.79 1450.14 M1959.33 1438.23 L1959.33 1441.69 Q1957.9 1441.02 1956.43 1440.66 Q1954.98 1440.3 1953.55 1440.3 Q1949.79 1440.3 1947.8 1442.84 Q1945.82 1445.38 1945.54 1450.52 Q1946.65 1448.88 1948.33 1448.01 Q1950 1447.13 1952.01 1447.13 Q1956.24 1447.13 1958.69 1449.71 Q1961.15 1452.26 1961.15 1456.68 Q1961.15 1461.01 1958.59 1463.62 Q1956.04 1466.24 1951.79 1466.24 Q1946.92 1466.24 1944.34 1462.51 Q1941.76 1458.77 1941.76 1451.68 Q1941.76 1445.02 1944.92 1441.07 Q1948.08 1437.11 1953.4 1437.11 Q1954.83 1437.11 1956.28 1437.39 Q1957.75 1437.67 1959.33 1438.23 Z" fill="#000000" fill-rule="evenodd" fill-opacity="1" /><path clip-path="url(#clip210)" d="M 0 0 M2232.61 1489.17 L2240.25 1489.17 L2240.25 1462.8 L2231.94 1464.47 L2231.94 1460.21 L2240.2 1458.54 L2244.88 1458.54 L2244.88 1489.17 L2252.52 1489.17 L2252.52 1493.1 L2232.61 1493.1 L2232.61 1489.17 Z" fill="#000000" fill-rule="evenodd" fill-opacity="1" /><path clip-path="url(#clip210)" d="M 0 0 M2267.59 1461.62 Q2263.98 1461.62 2262.15 1465.19 Q2260.34 1468.73 2260.34 1475.86 Q2260.34 1482.97 2262.15 1486.53 Q2263.98 1490.07 2267.59 1490.07 Q2271.22 1490.07 2273.03 1486.53 Q2274.86 1482.97 2274.86 1475.86 Q2274.86 1468.73 2273.03 1465.19 Q2271.22 1461.62 2267.59 1461.62 M2267.59 1457.92 Q2273.4 1457.92 2276.45 1462.53 Q2279.53 1467.11 2279.53 1475.86 Q2279.53 1484.59 2276.45 1489.19 Q2273.4 1493.78 2267.59 1493.78 Q2261.78 1493.78 2258.7 1489.19 Q2255.64 1484.59 2255.64 1475.86 Q2255.64 1467.11 2258.7 1462.53 Q2261.78 1457.92 2267.59 1457.92 Z" fill="#000000" fill-rule="evenodd" fill-opacity="1" /><path clip-path="url(#clip210)" d="M 0 0 M2279.53 1452.02 L2303.64 1452.02 L2303.64 1455.22 L2279.53 1455.22 L2279.53 1452.02 Z" fill="#000000" fill-rule="evenodd" fill-opacity="1" /><path clip-path="url(#clip210)" d="M 0 0 M2318.2 1440.92 L2308.61 1455.91 L2318.2 1455.91 L2318.2 1440.92 M2317.2 1437.61 L2321.98 1437.61 L2321.98 1455.91 L2325.99 1455.91 L2325.99 1459.07 L2321.98 1459.07 L2321.98 1465.69 L2318.2 1465.69 L2318.2 1459.07 L2305.52 1459.07 L2305.52 1455.41 L2317.2 1437.61 Z" fill="#000000" fill-rule="evenodd" fill-opacity="1" /><path clip-path="url(#clip210)" d="M 0 0 M2330.11 1460.92 L2334.07 1460.92 L2334.07 1465.69 L2330.11 1465.69 L2330.11 1460.92 Z" fill="#000000" fill-rule="evenodd" fill-opacity="1" /><path clip-path="url(#clip210)" d="M 0 0 M2338.23 1437.61 L2353.14 1437.61 L2353.14 1440.81 L2341.71 1440.81 L2341.71 1447.69 Q2342.54 1447.41 2343.36 1447.28 Q2344.19 1447.13 2345.02 1447.13 Q2349.72 1447.13 2352.47 1449.71 Q2355.21 1452.28 2355.21 1456.68 Q2355.21 1461.22 2352.39 1463.74 Q2349.57 1466.24 2344.44 1466.24 Q2342.67 1466.24 2340.83 1465.94 Q2339 1465.64 2337.05 1465.04 L2337.05 1461.22 Q2338.74 1462.14 2340.54 1462.59 Q2342.35 1463.04 2344.36 1463.04 Q2347.62 1463.04 2349.51 1461.33 Q2351.41 1459.62 2351.41 1456.68 Q2351.41 1453.75 2349.51 1452.04 Q2347.62 1450.33 2344.36 1450.33 Q2342.84 1450.33 2341.31 1450.67 Q2339.81 1451 2338.23 1451.72 L2338.23 1437.61 Z" fill="#000000" fill-rule="evenodd" fill-opacity="1" /><path clip-path="url(#clip210)" d="M 0 0 M1200.02 1526.54 L1206.22 1526.54 L1217.36 1556.46 L1228.5 1526.54 L1234.71 1526.54 L1221.34 1562.19 L1213.39 1562.19 L1200.02 1526.54 Z" fill="#000000" fill-rule="evenodd" fill-opacity="1" /><path clip-path="url(#clip210)" d="M 0 0 M1267.94 1573.01 L1267.94 1577.56 L1234.07 1577.56 L1234.07 1573.01 L1267.94 1573.01 Z" fill="#000000" fill-rule="evenodd" fill-opacity="1" /><path clip-path="url(#clip210)" d="M 0 0 M1287.9 1530.64 Q1283.19 1530.64 1280.45 1534.34 Q1277.71 1538 1277.71 1544.39 Q1277.71 1550.79 1280.42 1554.48 Q1283.15 1558.14 1287.9 1558.14 Q1292.58 1558.14 1295.31 1554.45 Q1298.05 1550.76 1298.05 1544.39 Q1298.05 1538.06 1295.31 1534.37 Q1292.58 1530.64 1287.9 1530.64 M1287.9 1525.68 Q1295.54 1525.68 1299.9 1530.64 Q1304.26 1535.61 1304.26 1544.39 Q1304.26 1553.15 1299.9 1558.14 Q1295.54 1563.11 1287.9 1563.11 Q1280.23 1563.11 1275.87 1558.14 Q1271.54 1553.15 1271.54 1544.39 Q1271.54 1535.61 1275.87 1530.64 Q1280.23 1525.68 1287.9 1525.68 Z" fill="#000000" fill-rule="evenodd" fill-opacity="1" /><path clip-path="url(#clip210)" d="M 0 0 M1316.06 1556.84 L1316.06 1575.74 L1310.18 1575.74 L1310.18 1526.54 L1316.06 1526.54 L1316.06 1531.95 Q1317.91 1528.77 1320.71 1527.24 Q1323.54 1525.68 1327.46 1525.68 Q1333.95 1525.68 1337.99 1530.83 Q1342.07 1535.99 1342.07 1544.39 Q1342.07 1552.8 1337.99 1557.95 Q1333.95 1563.11 1327.46 1563.11 Q1323.54 1563.11 1320.71 1561.58 Q1317.91 1560.02 1316.06 1556.84 M1335.99 1544.39 Q1335.99 1537.93 1333.32 1534.27 Q1330.67 1530.58 1326.03 1530.58 Q1321.38 1530.58 1318.71 1534.27 Q1316.06 1537.93 1316.06 1544.39 Q1316.06 1550.85 1318.71 1554.55 Q1321.38 1558.21 1326.03 1558.21 Q1330.67 1558.21 1333.32 1554.55 Q1335.99 1550.85 1335.99 1544.39 Z" fill="#000000" fill-rule="evenodd" fill-opacity="1" /><path clip-path="url(#clip210)" d="M 0 0 M1378.7 1542.9 L1378.7 1545.76 L1351.78 1545.76 Q1352.16 1551.81 1355.41 1554.99 Q1358.68 1558.14 1364.51 1558.14 Q1367.88 1558.14 1371.03 1557.32 Q1374.22 1556.49 1377.33 1554.83 L1377.33 1560.37 Q1374.18 1561.71 1370.87 1562.41 Q1367.56 1563.11 1364.16 1563.11 Q1355.63 1563.11 1350.63 1558.14 Q1345.67 1553.18 1345.67 1544.71 Q1345.67 1535.96 1350.38 1530.83 Q1355.12 1525.68 1363.14 1525.68 Q1370.33 1525.68 1374.5 1530.33 Q1378.7 1534.94 1378.7 1542.9 M1372.85 1541.18 Q1372.78 1536.37 1370.14 1533.51 Q1367.53 1530.64 1363.2 1530.64 Q1358.3 1530.64 1355.34 1533.41 Q1352.41 1536.18 1351.97 1541.21 L1372.85 1541.18 Z" fill="#000000" fill-rule="evenodd" fill-opacity="1" /><path clip-path="url(#clip210)" d="M 0 0 M1414.48 1540.67 L1414.48 1562.19 L1408.62 1562.19 L1408.62 1540.86 Q1408.62 1535.8 1406.65 1533.29 Q1404.68 1530.77 1400.73 1530.77 Q1395.99 1530.77 1393.25 1533.79 Q1390.51 1536.82 1390.51 1542.04 L1390.51 1562.19 L1384.62 1562.19 L1384.62 1526.54 L1390.51 1526.54 L1390.51 1532.08 Q1392.61 1528.86 1395.45 1527.27 Q1398.31 1525.68 1402.03 1525.68 Q1408.18 1525.68 1411.33 1529.5 Q1414.48 1533.29 1414.48 1540.67 Z" fill="#000000" fill-rule="evenodd" fill-opacity="1" /><polyline clip-path="url(#clip212)" style="stroke:#000000; stroke-width:2; stroke-opacity:0.1; fill:none" points="
  261.741,1230.11 2352.76,1230.11 
  "/>
<polyline clip-path="url(#clip212)" style="stroke:#000000; stroke-width:2; stroke-opacity:0.1; fill:none" points="
  261.741,965.571 2352.76,965.571 
  "/>
<polyline clip-path="url(#clip212)" style="stroke:#000000; stroke-width:2; stroke-opacity:0.1; fill:none" points="
  261.741,701.028 2352.76,701.028 
  "/>
<polyline clip-path="url(#clip212)" style="stroke:#000000; stroke-width:2; stroke-opacity:0.1; fill:none" points="
  261.741,436.485 2352.76,436.485 
  "/>
<polyline clip-path="url(#clip212)" style="stroke:#000000; stroke-width:2; stroke-opacity:0.1; fill:none" points="
  261.741,171.943 2352.76,171.943 
  "/>
<polyline clip-path="url(#clip210)" style="stroke:#000000; stroke-width:4; stroke-opacity:1; fill:none" points="
  261.741,1410.9 261.741,47.2441 
  "/>
<polyline clip-path="url(#clip210)" style="stroke:#000000; stroke-width:4; stroke-opacity:1; fill:none" points="
  261.741,1230.11 286.833,1230.11 
  "/>
<polyline clip-path="url(#clip210)" style="stroke:#000000; stroke-width:4; stroke-opacity:1; fill:none" points="
  261.741,965.571 286.833,965.571 
  "/>
<polyline clip-path="url(#clip210)" style="stroke:#000000; stroke-width:4; stroke-opacity:1; fill:none" points="
  261.741,701.028 286.833,701.028 
  "/>
<polyline clip-path="url(#clip210)" style="stroke:#000000; stroke-width:4; stroke-opacity:1; fill:none" points="
  261.741,436.485 286.833,436.485 
  "/>
<polyline clip-path="url(#clip210)" style="stroke:#000000; stroke-width:4; stroke-opacity:1; fill:none" points="
  261.741,171.943 286.833,171.943 
  "/>
<path clip-path="url(#clip210)" d="M 0 0 M117.64 1243.46 L125.279 1243.46 L125.279 1217.09 L116.968 1218.76 L116.968 1214.5 L125.232 1212.83 L129.908 1212.83 L129.908 1243.46 L137.547 1243.46 L137.547 1247.39 L117.64 1247.39 L117.64 1243.46 Z" fill="#000000" fill-rule="evenodd" fill-opacity="1" /><path clip-path="url(#clip210)" d="M 0 0 M142.616 1241.51 L147.501 1241.51 L147.501 1247.39 L142.616 1247.39 L142.616 1241.51 Z" fill="#000000" fill-rule="evenodd" fill-opacity="1" /><path clip-path="url(#clip210)" d="M 0 0 M151.39 1212.83 L173.612 1212.83 L173.612 1214.82 L161.065 1247.39 L156.181 1247.39 L167.987 1216.77 L151.39 1216.77 L151.39 1212.83 Z" fill="#000000" fill-rule="evenodd" fill-opacity="1" /><path clip-path="url(#clip210)" d="M 0 0 M177.501 1212.83 L199.723 1212.83 L199.723 1214.82 L187.176 1247.39 L182.292 1247.39 L194.098 1216.77 L177.501 1216.77 L177.501 1212.83 Z" fill="#000000" fill-rule="evenodd" fill-opacity="1" /><path clip-path="url(#clip210)" d="M 0 0 M204.838 1212.83 L223.195 1212.83 L223.195 1216.77 L209.121 1216.77 L209.121 1225.24 Q210.139 1224.89 211.158 1224.73 Q212.176 1224.55 213.195 1224.55 Q218.982 1224.55 222.361 1227.72 Q225.741 1230.89 225.741 1236.31 Q225.741 1241.88 222.269 1244.99 Q218.797 1248.06 212.477 1248.06 Q210.301 1248.06 208.033 1247.69 Q205.787 1247.32 203.38 1246.58 L203.38 1241.88 Q205.463 1243.02 207.686 1243.57 Q209.908 1244.13 212.385 1244.13 Q216.389 1244.13 218.727 1242.02 Q221.065 1239.92 221.065 1236.31 Q221.065 1232.69 218.727 1230.59 Q216.389 1228.48 212.385 1228.48 Q210.51 1228.48 208.635 1228.9 Q206.783 1229.31 204.838 1230.19 L204.838 1212.83 Z" fill="#000000" fill-rule="evenodd" fill-opacity="1" /><path clip-path="url(#clip210)" d="M 0 0 M114.931 978.915 L122.57 978.915 L122.57 952.55 L114.26 954.216 L114.26 949.957 L122.524 948.291 L127.2 948.291 L127.2 978.915 L134.839 978.915 L134.839 982.851 L114.931 982.851 L114.931 978.915 Z" fill="#000000" fill-rule="evenodd" fill-opacity="1" /><path clip-path="url(#clip210)" d="M 0 0 M139.908 976.971 L144.792 976.971 L144.792 982.851 L139.908 982.851 L139.908 976.971 Z" fill="#000000" fill-rule="evenodd" fill-opacity="1" /><path clip-path="url(#clip210)" d="M 0 0 M159.862 966.439 Q156.528 966.439 154.607 968.221 Q152.709 970.003 152.709 973.128 Q152.709 976.253 154.607 978.036 Q156.528 979.818 159.862 979.818 Q163.195 979.818 165.116 978.036 Q167.038 976.23 167.038 973.128 Q167.038 970.003 165.116 968.221 Q163.218 966.439 159.862 966.439 M155.186 964.448 Q152.177 963.707 150.487 961.647 Q148.82 959.587 148.82 956.624 Q148.82 952.48 151.76 950.073 Q154.723 947.666 159.862 947.666 Q165.024 947.666 167.964 950.073 Q170.903 952.48 170.903 956.624 Q170.903 959.587 169.214 961.647 Q167.547 963.707 164.561 964.448 Q167.94 965.235 169.815 967.527 Q171.714 969.818 171.714 973.128 Q171.714 978.151 168.635 980.837 Q165.579 983.522 159.862 983.522 Q154.144 983.522 151.066 980.837 Q148.01 978.151 148.01 973.128 Q148.01 969.818 149.908 967.527 Q151.806 965.235 155.186 964.448 M153.473 957.064 Q153.473 959.749 155.14 961.253 Q156.829 962.758 159.862 962.758 Q162.871 962.758 164.561 961.253 Q166.274 959.749 166.274 957.064 Q166.274 954.378 164.561 952.874 Q162.871 951.369 159.862 951.369 Q156.829 951.369 155.14 952.874 Q153.473 954.378 153.473 957.064 Z" fill="#000000" fill-rule="evenodd" fill-opacity="1" /><path clip-path="url(#clip210)" d="M 0 0 M186.783 951.369 Q183.172 951.369 181.343 954.934 Q179.538 958.476 179.538 965.605 Q179.538 972.712 181.343 976.276 Q183.172 979.818 186.783 979.818 Q190.417 979.818 192.223 976.276 Q194.051 972.712 194.051 965.605 Q194.051 958.476 192.223 954.934 Q190.417 951.369 186.783 951.369 M186.783 947.666 Q192.593 947.666 195.649 952.272 Q198.727 956.855 198.727 965.605 Q198.727 974.332 195.649 978.939 Q192.593 983.522 186.783 983.522 Q180.973 983.522 177.894 978.939 Q174.839 974.332 174.839 965.605 Q174.839 956.855 177.894 952.272 Q180.973 947.666 186.783 947.666 Z" fill="#000000" fill-rule="evenodd" fill-opacity="1" /><path clip-path="url(#clip210)" d="M 0 0 M213.797 951.369 Q210.186 951.369 208.357 954.934 Q206.551 958.476 206.551 965.605 Q206.551 972.712 208.357 976.276 Q210.186 979.818 213.797 979.818 Q217.431 979.818 219.236 976.276 Q221.065 972.712 221.065 965.605 Q221.065 958.476 219.236 954.934 Q217.431 951.369 213.797 951.369 M213.797 947.666 Q219.607 947.666 222.662 952.272 Q225.741 956.855 225.741 965.605 Q225.741 974.332 222.662 978.939 Q219.607 983.522 213.797 983.522 Q207.987 983.522 204.908 978.939 Q201.852 974.332 201.852 965.605 Q201.852 956.855 204.908 952.272 Q207.987 947.666 213.797 947.666 Z" fill="#000000" fill-rule="evenodd" fill-opacity="1" /><path clip-path="url(#clip210)" d="M 0 0 M117.524 714.373 L125.163 714.373 L125.163 688.007 L116.853 689.674 L116.853 685.415 L125.117 683.748 L129.792 683.748 L129.792 714.373 L137.431 714.373 L137.431 718.308 L117.524 718.308 L117.524 714.373 Z" fill="#000000" fill-rule="evenodd" fill-opacity="1" /><path clip-path="url(#clip210)" d="M 0 0 M142.501 712.428 L147.385 712.428 L147.385 718.308 L142.501 718.308 L142.501 712.428 Z" fill="#000000" fill-rule="evenodd" fill-opacity="1" /><path clip-path="url(#clip210)" d="M 0 0 M162.454 701.896 Q159.121 701.896 157.2 703.678 Q155.302 705.461 155.302 708.586 Q155.302 711.711 157.2 713.493 Q159.121 715.275 162.454 715.275 Q165.788 715.275 167.709 713.493 Q169.63 711.688 169.63 708.586 Q169.63 705.461 167.709 703.678 Q165.811 701.896 162.454 701.896 M157.778 699.905 Q154.769 699.164 153.079 697.104 Q151.413 695.044 151.413 692.081 Q151.413 687.938 154.353 685.53 Q157.315 683.123 162.454 683.123 Q167.616 683.123 170.556 685.53 Q173.496 687.938 173.496 692.081 Q173.496 695.044 171.806 697.104 Q170.139 699.164 167.153 699.905 Q170.533 700.692 172.408 702.984 Q174.306 705.276 174.306 708.586 Q174.306 713.609 171.227 716.294 Q168.172 718.979 162.454 718.979 Q156.737 718.979 153.658 716.294 Q150.603 713.609 150.603 708.586 Q150.603 705.276 152.501 702.984 Q154.399 700.692 157.778 699.905 M156.065 692.521 Q156.065 695.206 157.732 696.711 Q159.422 698.215 162.454 698.215 Q165.464 698.215 167.153 696.711 Q168.866 695.206 168.866 692.521 Q168.866 689.836 167.153 688.331 Q165.464 686.827 162.454 686.827 Q159.422 686.827 157.732 688.331 Q156.065 689.836 156.065 692.521 Z" fill="#000000" fill-rule="evenodd" fill-opacity="1" /><path clip-path="url(#clip210)" d="M 0 0 M183.403 714.373 L199.723 714.373 L199.723 718.308 L177.778 718.308 L177.778 714.373 Q180.44 711.618 185.024 706.988 Q189.63 702.336 190.811 700.993 Q193.056 698.47 193.936 696.734 Q194.838 694.975 194.838 693.285 Q194.838 690.53 192.894 688.794 Q190.973 687.058 187.871 687.058 Q185.672 687.058 183.218 687.822 Q180.788 688.586 178.01 690.137 L178.01 685.415 Q180.834 684.28 183.288 683.702 Q185.741 683.123 187.778 683.123 Q193.149 683.123 196.343 685.808 Q199.537 688.493 199.537 692.984 Q199.537 695.114 198.727 697.035 Q197.94 698.933 195.834 701.526 Q195.255 702.197 192.153 705.414 Q189.051 708.609 183.403 714.373 Z" fill="#000000" fill-rule="evenodd" fill-opacity="1" /><path clip-path="url(#clip210)" d="M 0 0 M204.838 683.748 L223.195 683.748 L223.195 687.683 L209.121 687.683 L209.121 696.155 Q210.139 695.808 211.158 695.646 Q212.176 695.461 213.195 695.461 Q218.982 695.461 222.361 698.632 Q225.741 701.803 225.741 707.22 Q225.741 712.799 222.269 715.9 Q218.797 718.979 212.477 718.979 Q210.301 718.979 208.033 718.609 Q205.787 718.238 203.38 717.498 L203.38 712.799 Q205.463 713.933 207.686 714.488 Q209.908 715.044 212.385 715.044 Q216.389 715.044 218.727 712.938 Q221.065 710.831 221.065 707.22 Q221.065 703.609 218.727 701.502 Q216.389 699.396 212.385 699.396 Q210.51 699.396 208.635 699.813 Q206.783 700.229 204.838 701.109 L204.838 683.748 Z" fill="#000000" fill-rule="evenodd" fill-opacity="1" /><path clip-path="url(#clip210)" d="M 0 0 M115.927 449.83 L123.566 449.83 L123.566 423.464 L115.256 425.131 L115.256 420.872 L123.519 419.205 L128.195 419.205 L128.195 449.83 L135.834 449.83 L135.834 453.765 L115.927 453.765 L115.927 449.83 Z" fill="#000000" fill-rule="evenodd" fill-opacity="1" /><path clip-path="url(#clip210)" d="M 0 0 M140.904 447.886 L145.788 447.886 L145.788 453.765 L140.904 453.765 L140.904 447.886 Z" fill="#000000" fill-rule="evenodd" fill-opacity="1" /><path clip-path="url(#clip210)" d="M 0 0 M160.857 437.353 Q157.524 437.353 155.603 439.136 Q153.704 440.918 153.704 444.043 Q153.704 447.168 155.603 448.95 Q157.524 450.733 160.857 450.733 Q164.19 450.733 166.112 448.95 Q168.033 447.145 168.033 444.043 Q168.033 440.918 166.112 439.136 Q164.214 437.353 160.857 437.353 M156.181 435.363 Q153.172 434.622 151.482 432.562 Q149.816 430.501 149.816 427.538 Q149.816 423.395 152.755 420.988 Q155.718 418.58 160.857 418.58 Q166.019 418.58 168.959 420.988 Q171.899 423.395 171.899 427.538 Q171.899 430.501 170.209 432.562 Q168.542 434.622 165.556 435.363 Q168.936 436.15 170.811 438.441 Q172.709 440.733 172.709 444.043 Q172.709 449.066 169.63 451.751 Q166.575 454.436 160.857 454.436 Q155.14 454.436 152.061 451.751 Q149.005 449.066 149.005 444.043 Q149.005 440.733 150.903 438.441 Q152.802 436.15 156.181 435.363 M154.468 427.978 Q154.468 430.663 156.135 432.168 Q157.825 433.673 160.857 433.673 Q163.866 433.673 165.556 432.168 Q167.269 430.663 167.269 427.978 Q167.269 425.293 165.556 423.788 Q163.866 422.284 160.857 422.284 Q157.825 422.284 156.135 423.788 Q154.468 425.293 154.468 427.978 Z" fill="#000000" fill-rule="evenodd" fill-opacity="1" /><path clip-path="url(#clip210)" d="M 0 0 M177.825 419.205 L196.181 419.205 L196.181 423.14 L182.107 423.14 L182.107 431.613 Q183.126 431.265 184.144 431.103 Q185.163 430.918 186.181 430.918 Q191.968 430.918 195.348 434.089 Q198.727 437.261 198.727 442.677 Q198.727 448.256 195.255 451.358 Q191.783 454.436 185.463 454.436 Q183.288 454.436 181.019 454.066 Q178.774 453.696 176.366 452.955 L176.366 448.256 Q178.45 449.39 180.672 449.946 Q182.894 450.501 185.371 450.501 Q189.375 450.501 191.713 448.395 Q194.051 446.288 194.051 442.677 Q194.051 439.066 191.713 436.96 Q189.375 434.853 185.371 434.853 Q183.496 434.853 181.621 435.27 Q179.769 435.687 177.825 436.566 L177.825 419.205 Z" fill="#000000" fill-rule="evenodd" fill-opacity="1" /><path clip-path="url(#clip210)" d="M 0 0 M213.797 422.284 Q210.186 422.284 208.357 425.849 Q206.551 429.39 206.551 436.52 Q206.551 443.626 208.357 447.191 Q210.186 450.733 213.797 450.733 Q217.431 450.733 219.236 447.191 Q221.065 443.626 221.065 436.52 Q221.065 429.39 219.236 425.849 Q217.431 422.284 213.797 422.284 M213.797 418.58 Q219.607 418.58 222.662 423.187 Q225.741 427.77 225.741 436.52 Q225.741 445.247 222.662 449.853 Q219.607 454.436 213.797 454.436 Q207.987 454.436 204.908 449.853 Q201.852 445.247 201.852 436.52 Q201.852 427.77 204.908 423.187 Q207.987 418.58 213.797 418.58 Z" fill="#000000" fill-rule="evenodd" fill-opacity="1" /><path clip-path="url(#clip210)" d="M 0 0 M116.83 185.287 L124.468 185.287 L124.468 158.922 L116.158 160.588 L116.158 156.329 L124.422 154.663 L129.098 154.663 L129.098 185.287 L136.737 185.287 L136.737 189.223 L116.83 189.223 L116.83 185.287 Z" fill="#000000" fill-rule="evenodd" fill-opacity="1" /><path clip-path="url(#clip210)" d="M 0 0 M141.806 183.343 L146.691 183.343 L146.691 189.223 L141.806 189.223 L141.806 183.343 Z" fill="#000000" fill-rule="evenodd" fill-opacity="1" /><path clip-path="url(#clip210)" d="M 0 0 M161.76 172.811 Q158.427 172.811 156.505 174.593 Q154.607 176.375 154.607 179.5 Q154.607 182.625 156.505 184.408 Q158.427 186.19 161.76 186.19 Q165.093 186.19 167.015 184.408 Q168.936 182.602 168.936 179.5 Q168.936 176.375 167.015 174.593 Q165.116 172.811 161.76 172.811 M157.084 170.82 Q154.075 170.079 152.385 168.019 Q150.718 165.959 150.718 162.996 Q150.718 158.852 153.658 156.445 Q156.621 154.038 161.76 154.038 Q166.922 154.038 169.862 156.445 Q172.802 158.852 172.802 162.996 Q172.802 165.959 171.112 168.019 Q169.445 170.079 166.459 170.82 Q169.839 171.607 171.714 173.899 Q173.612 176.19 173.612 179.5 Q173.612 184.523 170.533 187.209 Q167.477 189.894 161.76 189.894 Q156.042 189.894 152.964 187.209 Q149.908 184.523 149.908 179.5 Q149.908 176.19 151.806 173.899 Q153.704 171.607 157.084 170.82 M155.371 163.436 Q155.371 166.121 157.038 167.625 Q158.728 169.13 161.76 169.13 Q164.769 169.13 166.459 167.625 Q168.172 166.121 168.172 163.436 Q168.172 160.75 166.459 159.246 Q164.769 157.741 161.76 157.741 Q158.728 157.741 157.038 159.246 Q155.371 160.75 155.371 163.436 Z" fill="#000000" fill-rule="evenodd" fill-opacity="1" /><path clip-path="url(#clip210)" d="M 0 0 M177.501 154.663 L199.723 154.663 L199.723 156.653 L187.176 189.223 L182.292 189.223 L194.098 158.598 L177.501 158.598 L177.501 154.663 Z" fill="#000000" fill-rule="evenodd" fill-opacity="1" /><path clip-path="url(#clip210)" d="M 0 0 M204.838 154.663 L223.195 154.663 L223.195 158.598 L209.121 158.598 L209.121 167.07 Q210.139 166.723 211.158 166.561 Q212.176 166.375 213.195 166.375 Q218.982 166.375 222.361 169.547 Q225.741 172.718 225.741 178.135 Q225.741 183.713 222.269 186.815 Q218.797 189.894 212.477 189.894 Q210.301 189.894 208.033 189.523 Q205.787 189.153 203.38 188.412 L203.38 183.713 Q205.463 184.848 207.686 185.403 Q209.908 185.959 212.385 185.959 Q216.389 185.959 218.727 183.852 Q221.065 181.746 221.065 178.135 Q221.065 174.524 218.727 172.417 Q216.389 170.311 212.385 170.311 Q210.51 170.311 208.635 170.727 Q206.783 171.144 204.838 172.024 L204.838 154.663 Z" fill="#000000" fill-rule="evenodd" fill-opacity="1" /><path clip-path="url(#clip210)" d="M 0 0 M59.1993 815.533 Q55.2526 813.336 53.3747 810.281 Q51.4968 807.225 51.4968 803.088 Q51.4968 797.518 55.4117 794.494 Q59.2948 791.47 66.4881 791.47 L88.0042 791.47 L88.0042 797.358 L66.679 797.358 Q61.5546 797.358 59.072 799.173 Q56.5894 800.987 56.5894 804.711 Q56.5894 809.262 59.6131 811.904 Q62.6368 814.546 67.8567 814.546 L88.0042 814.546 L88.0042 820.434 L66.679 820.434 Q61.5228 820.434 59.072 822.248 Q56.5894 824.063 56.5894 827.85 Q56.5894 832.338 59.6449 834.98 Q62.6686 837.622 67.8567 837.622 L88.0042 837.622 L88.0042 843.51 L52.3562 843.51 L52.3562 837.622 L57.8944 837.622 Q54.616 835.616 53.0564 832.815 Q51.4968 830.015 51.4968 826.163 Q51.4968 822.28 53.4702 819.575 Q55.4436 816.838 59.1993 815.533 Z" fill="#000000" fill-rule="evenodd" fill-opacity="1" /><path clip-path="url(#clip210)" d="M 0 0 M52.3562 785.327 L52.3562 779.471 L88.0042 779.471 L88.0042 785.327 L52.3562 785.327 M38.479 785.327 L38.479 779.471 L45.895 779.471 L45.895 785.327 L38.479 785.327 Z" fill="#000000" fill-rule="evenodd" fill-opacity="1" /><path clip-path="url(#clip210)" d="M 0 0 M66.4881 743.696 L88.0042 743.696 L88.0042 749.552 L66.679 749.552 Q61.6183 749.552 59.1038 751.525 Q56.5894 753.499 56.5894 757.446 Q56.5894 762.188 59.6131 764.925 Q62.6368 767.662 67.8567 767.662 L88.0042 767.662 L88.0042 773.551 L52.3562 773.551 L52.3562 767.662 L57.8944 767.662 Q54.6797 765.562 53.0883 762.729 Q51.4968 759.864 51.4968 756.141 Q51.4968 749.998 55.3163 746.847 Q59.1038 743.696 66.4881 743.696 Z" fill="#000000" fill-rule="evenodd" fill-opacity="1" /><path clip-path="url(#clip210)" d="M 0 0 M98.8259 710.467 L103.377 710.467 L103.377 744.332 L98.8259 744.332 L98.8259 710.467 Z" fill="#000000" fill-rule="evenodd" fill-opacity="1" /><path clip-path="url(#clip210)" d="M 0 0 M57.7671 680.866 L38.479 680.866 L38.479 675.01 L88.0042 675.01 L88.0042 680.866 L82.657 680.866 Q85.8398 682.712 87.3994 685.545 Q88.9272 688.346 88.9272 692.292 Q88.9272 698.754 83.771 702.828 Q78.6147 706.87 70.212 706.87 Q61.8093 706.87 56.6531 702.828 Q51.4968 698.754 51.4968 692.292 Q51.4968 688.346 53.0564 685.545 Q54.5842 682.712 57.7671 680.866 M70.212 700.823 Q76.6732 700.823 80.3653 698.181 Q84.0256 695.507 84.0256 690.86 Q84.0256 686.213 80.3653 683.54 Q76.6732 680.866 70.212 680.866 Q63.7508 680.866 60.0905 683.54 Q56.3984 686.213 56.3984 690.86 Q56.3984 695.507 60.0905 698.181 Q63.7508 700.823 70.212 700.823 Z" fill="#000000" fill-rule="evenodd" fill-opacity="1" /><path clip-path="url(#clip210)" d="M 0 0 M52.3562 668.867 L52.3562 663.01 L88.0042 663.01 L88.0042 668.867 L52.3562 668.867 M38.479 668.867 L38.479 663.01 L45.895 663.01 L45.895 668.867 L38.479 668.867 Z" fill="#000000" fill-rule="evenodd" fill-opacity="1" /><path clip-path="url(#clip210)" d="M 0 0 M38.479 638.821 L43.3487 638.821 L43.3487 644.422 Q43.3487 647.573 44.6219 648.815 Q45.895 650.024 49.2052 650.024 L52.3562 650.024 L52.3562 640.38 L56.9077 640.38 L56.9077 650.024 L88.0042 650.024 L88.0042 655.912 L56.9077 655.912 L56.9077 661.514 L52.3562 661.514 L52.3562 655.912 L49.8736 655.912 Q43.9216 655.912 41.2162 653.143 Q38.479 650.374 38.479 644.359 L38.479 638.821 Z" fill="#000000" fill-rule="evenodd" fill-opacity="1" /><path clip-path="url(#clip210)" d="M 0 0 M38.479 614.631 L43.3487 614.631 L43.3487 620.233 Q43.3487 623.384 44.6219 624.625 Q45.895 625.835 49.2052 625.835 L52.3562 625.835 L52.3562 616.19 L56.9077 616.19 L56.9077 625.835 L88.0042 625.835 L88.0042 631.723 L56.9077 631.723 L56.9077 637.325 L52.3562 637.325 L52.3562 631.723 L49.8736 631.723 Q43.9216 631.723 41.2162 628.954 Q38.479 626.185 38.479 620.169 L38.479 614.631 Z" fill="#000000" fill-rule="evenodd" fill-opacity="1" /><polyline clip-path="url(#clip212)" style="stroke:#009af9; stroke-width:20; stroke-opacity:1; fill:none" stroke-dasharray="80, 50" points="
  320.921,1372.3 2293.58,85.838 
  "/>
<path clip-path="url(#clip210)" d="
M1999.7 213.659 L2283.06 213.659 L2283.06 92.6992 L1999.7 92.6992  Z
  " fill="#ffffff" fill-rule="evenodd" fill-opacity="1"/>
<polyline clip-path="url(#clip210)" style="stroke:#000000; stroke-width:4; stroke-opacity:1; fill:none" points="
  1999.7,213.659 2283.06,213.659 2283.06,92.6992 1999.7,92.6992 1999.7,213.659 
  "/>
<polyline clip-path="url(#clip210)" style="stroke:#009af9; stroke-width:4; stroke-opacity:1; fill:none" stroke-dasharray="16, 10" points="
  2022.94,153.179 2162.34,153.179 
  "/>
<path clip-path="url(#clip210)" d="M 0 0 M2199.41 172.867 Q2197.61 177.496 2195.89 178.908 Q2194.18 180.32 2191.31 180.32 L2187.91 180.32 L2187.91 176.755 L2190.41 176.755 Q2192.17 176.755 2193.14 175.922 Q2194.11 175.089 2195.29 171.987 L2196.06 170.043 L2185.57 144.533 L2190.08 144.533 L2198.19 164.811 L2206.29 144.533 L2210.8 144.533 L2199.41 172.867 Z" fill="#000000" fill-rule="evenodd" fill-opacity="1" /><path clip-path="url(#clip210)" d="M 0 0 M2216.68 166.524 L2224.32 166.524 L2224.32 140.158 L2216.01 141.825 L2216.01 137.566 L2224.27 135.899 L2228.95 135.899 L2228.95 166.524 L2236.59 166.524 L2236.59 170.459 L2216.68 170.459 L2216.68 166.524 Z" fill="#000000" fill-rule="evenodd" fill-opacity="1" /></svg>
