<?xml version="1.0" encoding="utf-8"?>
<svg xmlns="http://www.w3.org/2000/svg" xmlns:xlink="http://www.w3.org/1999/xlink" width="600" height="400" viewBox="0 0 2400 1600">
<defs>
  <clipPath id="clip490">
    <rect x="0" y="0" width="2400" height="1600"/>
  </clipPath>
</defs>
<path clip-path="url(#clip490)" d="
M0 1600 L2400 1600 L2400 0 L0 0  Z
  " fill="#ffffff" fill-rule="evenodd" fill-opacity="1"/>
<defs>
  <clipPath id="clip491">
    <rect x="480" y="0" width="1681" height="1600"/>
  </clipPath>
</defs>
<path clip-path="url(#clip490)" d="
M264.287 1410.9 L2352.76 1410.9 L2352.76 47.2441 L264.287 47.2441  Z
  " fill="#ffffff" fill-rule="evenodd" fill-opacity="1"/>
<defs>
  <clipPath id="clip492">
    <rect x="264" y="47" width="2089" height="1365"/>
  </clipPath>
</defs>
<polyline clip-path="url(#clip492)" style="stroke:#000000; stroke-linecap:butt; stroke-linejoin:round; stroke-width:2; stroke-opacity:0.1; fill:none" points="
  497.102,1410.9 497.102,47.2441 
  "/>
<polyline clip-path="url(#clip492)" style="stroke:#000000; stroke-linecap:butt; stroke-linejoin:round; stroke-width:2; stroke-opacity:0.1; fill:none" points="
  1618.5,1410.9 1618.5,47.2441 
  "/>
<polyline clip-path="url(#clip490)" style="stroke:#000000; stroke-linecap:butt; stroke-linejoin:round; stroke-width:4; stroke-opacity:1; fill:none" points="
  264.287,1410.9 2352.76,1410.9 
  "/>
<polyline clip-path="url(#clip490)" style="stroke:#000000; stroke-linecap:butt; stroke-linejoin:round; stroke-width:4; stroke-opacity:1; fill:none" points="
  497.102,1410.9 497.102,1392 
  "/>
<polyline clip-path="url(#clip490)" style="stroke:#000000; stroke-linecap:butt; stroke-linejoin:round; stroke-width:4; stroke-opacity:1; fill:none" points="
  1618.5,1410.9 1618.5,1392 
  "/>
<path clip-path="url(#clip490)" d="M462.084 1485.02 L469.723 1485.02 L469.723 1458.66 L461.413 1460.32 L461.413 1456.06 L469.677 1454.4 L474.353 1454.4 L474.353 1485.02 L481.992 1485.02 L481.992 1488.96 L462.084 1488.96 L462.084 1485.02 Z" fill="#000000" fill-rule="evenodd" fill-opacity="1" /><path clip-path="url(#clip490)" d="M501.436 1457.48 Q497.825 1457.48 495.996 1461.04 Q494.191 1464.58 494.191 1471.71 Q494.191 1478.82 495.996 1482.38 Q497.825 1485.92 501.436 1485.92 Q505.07 1485.92 506.876 1482.38 Q508.705 1478.82 508.705 1471.71 Q508.705 1464.58 506.876 1461.04 Q505.07 1457.48 501.436 1457.48 M501.436 1453.77 Q507.246 1453.77 510.302 1458.38 Q513.381 1462.96 513.381 1471.71 Q513.381 1480.44 510.302 1485.04 Q507.246 1489.63 501.436 1489.63 Q495.626 1489.63 492.547 1485.04 Q489.492 1480.44 489.492 1471.71 Q489.492 1462.96 492.547 1458.38 Q495.626 1453.77 501.436 1453.77 Z" fill="#000000" fill-rule="evenodd" fill-opacity="1" /><path clip-path="url(#clip490)" d="M523.085 1435.97 Q520.151 1435.97 518.665 1438.86 Q517.198 1441.74 517.198 1447.53 Q517.198 1453.31 518.665 1456.2 Q520.151 1459.08 523.085 1459.08 Q526.038 1459.08 527.505 1456.2 Q528.991 1453.31 528.991 1447.53 Q528.991 1441.74 527.505 1438.86 Q526.038 1435.97 523.085 1435.97 M523.085 1432.96 Q527.806 1432.96 530.289 1436.7 Q532.79 1440.43 532.79 1447.53 Q532.79 1454.62 530.289 1458.37 Q527.806 1462.09 523.085 1462.09 Q518.365 1462.09 515.863 1458.37 Q513.381 1454.62 513.381 1447.53 Q513.381 1440.43 515.863 1436.7 Q518.365 1432.96 523.085 1432.96 Z" fill="#000000" fill-rule="evenodd" fill-opacity="1" /><path clip-path="url(#clip490)" d="M1584.83 1485.02 L1592.47 1485.02 L1592.47 1458.66 L1584.16 1460.32 L1584.16 1456.06 L1592.42 1454.4 L1597.1 1454.4 L1597.1 1485.02 L1604.73 1485.02 L1604.73 1488.96 L1584.83 1488.96 L1584.83 1485.02 Z" fill="#000000" fill-rule="evenodd" fill-opacity="1" /><path clip-path="url(#clip490)" d="M1624.18 1457.48 Q1620.57 1457.48 1618.74 1461.04 Q1616.93 1464.58 1616.93 1471.71 Q1616.93 1478.82 1618.74 1482.38 Q1620.57 1485.92 1624.18 1485.92 Q1627.81 1485.92 1629.62 1482.38 Q1631.45 1478.82 1631.45 1471.71 Q1631.45 1464.58 1629.62 1461.04 Q1627.81 1457.48 1624.18 1457.48 M1624.18 1453.77 Q1629.99 1453.77 1633.04 1458.38 Q1636.12 1462.96 1636.12 1471.71 Q1636.12 1480.44 1633.04 1485.04 Q1629.99 1489.63 1624.18 1489.63 Q1618.37 1489.63 1615.29 1485.04 Q1612.23 1480.44 1612.23 1471.71 Q1612.23 1462.96 1615.29 1458.38 Q1618.37 1453.77 1624.18 1453.77 Z" fill="#000000" fill-rule="evenodd" fill-opacity="1" /><path clip-path="url(#clip490)" d="M1636.67 1458.35 L1642.88 1458.35 L1642.88 1436.93 L1636.12 1438.28 L1636.12 1434.82 L1642.84 1433.47 L1646.64 1433.47 L1646.64 1458.35 L1652.84 1458.35 L1652.84 1461.55 L1636.67 1461.55 L1636.67 1458.35 Z" fill="#000000" fill-rule="evenodd" fill-opacity="1" /><path clip-path="url(#clip490)" d="M1299 1571.99 L1299 1587.74 L1293.12 1587.74 L1293.12 1538.76 Q1293.12 1524.25 1306.68 1524.25 Q1320.49 1524.25 1320.49 1536.5 Q1320.49 1545.22 1315.01 1548.4 Q1323.93 1551.27 1323.93 1559.77 Q1323.93 1574.85 1308.59 1574.85 Q1301.84 1574.85 1299 1571.99 M1299 1564.35 Q1302.54 1569.86 1308.81 1569.86 Q1317.97 1569.86 1317.97 1559.86 Q1317.97 1550.89 1303.21 1551.59 L1303.21 1546.18 Q1314.76 1546.18 1314.76 1535.99 Q1314.76 1529.02 1307.31 1529.02 Q1299 1529.02 1299 1538.95 L1299 1564.35 Z" fill="#000000" fill-rule="evenodd" fill-opacity="1" /><polyline clip-path="url(#clip492)" style="stroke:#000000; stroke-linecap:butt; stroke-linejoin:round; stroke-width:2; stroke-opacity:0.1; fill:none" points="
  264.287,1374 2352.76,1374 
  "/>
<polyline clip-path="url(#clip492)" style="stroke:#000000; stroke-linecap:butt; stroke-linejoin:round; stroke-width:2; stroke-opacity:0.1; fill:none" points="
  264.287,1130.82 2352.76,1130.82 
  "/>
<polyline clip-path="url(#clip492)" style="stroke:#000000; stroke-linecap:butt; stroke-linejoin:round; stroke-width:2; stroke-opacity:0.1; fill:none" points="
  264.287,887.646 2352.76,887.646 
  "/>
<polyline clip-path="url(#clip492)" style="stroke:#000000; stroke-linecap:butt; stroke-linejoin:round; stroke-width:2; stroke-opacity:0.1; fill:none" points="
  264.287,644.47 2352.76,644.47 
  "/>
<polyline clip-path="url(#clip492)" style="stroke:#000000; stroke-linecap:butt; stroke-linejoin:round; stroke-width:2; stroke-opacity:0.1; fill:none" points="
  264.287,401.293 2352.76,401.293 
  "/>
<polyline clip-path="url(#clip492)" style="stroke:#000000; stroke-linecap:butt; stroke-linejoin:round; stroke-width:2; stroke-opacity:0.1; fill:none" points="
  264.287,158.117 2352.76,158.117 
  "/>
<polyline clip-path="url(#clip490)" style="stroke:#000000; stroke-linecap:butt; stroke-linejoin:round; stroke-width:4; stroke-opacity:1; fill:none" points="
  264.287,1410.9 264.287,47.2441 
  "/>
<polyline clip-path="url(#clip490)" style="stroke:#000000; stroke-linecap:butt; stroke-linejoin:round; stroke-width:4; stroke-opacity:1; fill:none" points="
  264.287,1374 283.185,1374 
  "/>
<polyline clip-path="url(#clip490)" style="stroke:#000000; stroke-linecap:butt; stroke-linejoin:round; stroke-width:4; stroke-opacity:1; fill:none" points="
  264.287,1130.82 283.185,1130.82 
  "/>
<polyline clip-path="url(#clip490)" style="stroke:#000000; stroke-linecap:butt; stroke-linejoin:round; stroke-width:4; stroke-opacity:1; fill:none" points="
  264.287,887.646 283.185,887.646 
  "/>
<polyline clip-path="url(#clip490)" style="stroke:#000000; stroke-linecap:butt; stroke-linejoin:round; stroke-width:4; stroke-opacity:1; fill:none" points="
  264.287,644.47 283.185,644.47 
  "/>
<polyline clip-path="url(#clip490)" style="stroke:#000000; stroke-linecap:butt; stroke-linejoin:round; stroke-width:4; stroke-opacity:1; fill:none" points="
  264.287,401.293 283.185,401.293 
  "/>
<polyline clip-path="url(#clip490)" style="stroke:#000000; stroke-linecap:butt; stroke-linejoin:round; stroke-width:4; stroke-opacity:1; fill:none" points="
  264.287,158.117 283.185,158.117 
  "/>
<path clip-path="url(#clip490)" d="M216.343 1359.8 Q212.732 1359.8 210.903 1363.36 Q209.098 1366.9 209.098 1374.03 Q209.098 1381.14 210.903 1384.71 Q212.732 1388.25 216.343 1388.25 Q219.977 1388.25 221.783 1384.71 Q223.611 1381.14 223.611 1374.03 Q223.611 1366.9 221.783 1363.36 Q219.977 1359.8 216.343 1359.8 M216.343 1356.09 Q222.153 1356.09 225.209 1360.7 Q228.287 1365.28 228.287 1374.03 Q228.287 1382.76 225.209 1387.37 Q222.153 1391.95 216.343 1391.95 Q210.533 1391.95 207.454 1387.37 Q204.399 1382.76 204.399 1374.03 Q204.399 1365.28 207.454 1360.7 Q210.533 1356.09 216.343 1356.09 Z" fill="#000000" fill-rule="evenodd" fill-opacity="1" /><path clip-path="url(#clip490)" d="M146.066 1113.54 L164.422 1113.54 L164.422 1117.48 L150.348 1117.48 L150.348 1125.95 Q151.366 1125.6 152.385 1125.44 Q153.403 1125.26 154.422 1125.26 Q160.209 1125.26 163.589 1128.43 Q166.968 1131.6 166.968 1137.01 Q166.968 1142.59 163.496 1145.7 Q160.024 1148.77 153.704 1148.77 Q151.528 1148.77 149.26 1148.4 Q147.015 1148.03 144.607 1147.29 L144.607 1142.59 Q146.691 1143.73 148.913 1144.28 Q151.135 1144.84 153.612 1144.84 Q157.616 1144.84 159.954 1142.73 Q162.292 1140.63 162.292 1137.01 Q162.292 1133.4 159.954 1131.3 Q157.616 1129.19 153.612 1129.19 Q151.737 1129.19 149.862 1129.61 Q148.01 1130.02 146.066 1130.9 L146.066 1113.54 Z" fill="#000000" fill-rule="evenodd" fill-opacity="1" /><path clip-path="url(#clip490)" d="M186.181 1116.62 Q182.57 1116.62 180.741 1120.19 Q178.936 1123.73 178.936 1130.86 Q178.936 1137.96 180.741 1141.53 Q182.57 1145.07 186.181 1145.07 Q189.815 1145.07 191.621 1141.53 Q193.45 1137.96 193.45 1130.86 Q193.45 1123.73 191.621 1120.19 Q189.815 1116.62 186.181 1116.62 M186.181 1112.92 Q191.991 1112.92 195.047 1117.52 Q198.125 1122.11 198.125 1130.86 Q198.125 1139.58 195.047 1144.19 Q191.991 1148.77 186.181 1148.77 Q180.371 1148.77 177.292 1144.19 Q174.237 1139.58 174.237 1130.86 Q174.237 1122.11 177.292 1117.52 Q180.371 1112.92 186.181 1112.92 Z" fill="#000000" fill-rule="evenodd" fill-opacity="1" /><path clip-path="url(#clip490)" d="M216.343 1116.62 Q212.732 1116.62 210.903 1120.19 Q209.098 1123.73 209.098 1130.86 Q209.098 1137.96 210.903 1141.53 Q212.732 1145.07 216.343 1145.07 Q219.977 1145.07 221.783 1141.53 Q223.611 1137.96 223.611 1130.86 Q223.611 1123.73 221.783 1120.19 Q219.977 1116.62 216.343 1116.62 M216.343 1112.92 Q222.153 1112.92 225.209 1117.52 Q228.287 1122.11 228.287 1130.86 Q228.287 1139.58 225.209 1144.19 Q222.153 1148.77 216.343 1148.77 Q210.533 1148.77 207.454 1144.19 Q204.399 1139.58 204.399 1130.86 Q204.399 1122.11 207.454 1117.52 Q210.533 1112.92 216.343 1112.92 Z" fill="#000000" fill-rule="evenodd" fill-opacity="1" /><path clip-path="url(#clip490)" d="M116.668 900.991 L124.306 900.991 L124.306 874.626 L115.996 876.292 L115.996 872.033 L124.26 870.366 L128.936 870.366 L128.936 900.991 L136.575 900.991 L136.575 904.926 L116.668 904.926 L116.668 900.991 Z" fill="#000000" fill-rule="evenodd" fill-opacity="1" /><path clip-path="url(#clip490)" d="M156.019 873.445 Q152.408 873.445 150.579 877.01 Q148.774 880.552 148.774 887.681 Q148.774 894.788 150.579 898.352 Q152.408 901.894 156.019 901.894 Q159.653 901.894 161.459 898.352 Q163.288 894.788 163.288 887.681 Q163.288 880.552 161.459 877.01 Q159.653 873.445 156.019 873.445 M156.019 869.741 Q161.829 869.741 164.885 874.348 Q167.964 878.931 167.964 887.681 Q167.964 896.408 164.885 901.014 Q161.829 905.598 156.019 905.598 Q150.209 905.598 147.13 901.014 Q144.075 896.408 144.075 887.681 Q144.075 878.931 147.13 874.348 Q150.209 869.741 156.019 869.741 Z" fill="#000000" fill-rule="evenodd" fill-opacity="1" /><path clip-path="url(#clip490)" d="M186.181 873.445 Q182.57 873.445 180.741 877.01 Q178.936 880.552 178.936 887.681 Q178.936 894.788 180.741 898.352 Q182.57 901.894 186.181 901.894 Q189.815 901.894 191.621 898.352 Q193.45 894.788 193.45 887.681 Q193.45 880.552 191.621 877.01 Q189.815 873.445 186.181 873.445 M186.181 869.741 Q191.991 869.741 195.047 874.348 Q198.125 878.931 198.125 887.681 Q198.125 896.408 195.047 901.014 Q191.991 905.598 186.181 905.598 Q180.371 905.598 177.292 901.014 Q174.237 896.408 174.237 887.681 Q174.237 878.931 177.292 874.348 Q180.371 869.741 186.181 869.741 Z" fill="#000000" fill-rule="evenodd" fill-opacity="1" /><path clip-path="url(#clip490)" d="M216.343 873.445 Q212.732 873.445 210.903 877.01 Q209.098 880.552 209.098 887.681 Q209.098 894.788 210.903 898.352 Q212.732 901.894 216.343 901.894 Q219.977 901.894 221.783 898.352 Q223.611 894.788 223.611 887.681 Q223.611 880.552 221.783 877.01 Q219.977 873.445 216.343 873.445 M216.343 869.741 Q222.153 869.741 225.209 874.348 Q228.287 878.931 228.287 887.681 Q228.287 896.408 225.209 901.014 Q222.153 905.598 216.343 905.598 Q210.533 905.598 207.454 901.014 Q204.399 896.408 204.399 887.681 Q204.399 878.931 207.454 874.348 Q210.533 869.741 216.343 869.741 Z" fill="#000000" fill-rule="evenodd" fill-opacity="1" /><path clip-path="url(#clip490)" d="M116.668 657.815 L124.306 657.815 L124.306 631.449 L115.996 633.116 L115.996 628.857 L124.26 627.19 L128.936 627.19 L128.936 657.815 L136.575 657.815 L136.575 661.75 L116.668 661.75 L116.668 657.815 Z" fill="#000000" fill-rule="evenodd" fill-opacity="1" /><path clip-path="url(#clip490)" d="M146.066 627.19 L164.422 627.19 L164.422 631.125 L150.348 631.125 L150.348 639.597 Q151.366 639.25 152.385 639.088 Q153.403 638.903 154.422 638.903 Q160.209 638.903 163.589 642.074 Q166.968 645.245 166.968 650.662 Q166.968 656.241 163.496 659.343 Q160.024 662.421 153.704 662.421 Q151.528 662.421 149.26 662.051 Q147.015 661.68 144.607 660.94 L144.607 656.241 Q146.691 657.375 148.913 657.93 Q151.135 658.486 153.612 658.486 Q157.616 658.486 159.954 656.38 Q162.292 654.273 162.292 650.662 Q162.292 647.051 159.954 644.944 Q157.616 642.838 153.612 642.838 Q151.737 642.838 149.862 643.255 Q148.01 643.671 146.066 644.551 L146.066 627.19 Z" fill="#000000" fill-rule="evenodd" fill-opacity="1" /><path clip-path="url(#clip490)" d="M186.181 630.269 Q182.57 630.269 180.741 633.833 Q178.936 637.375 178.936 644.505 Q178.936 651.611 180.741 655.176 Q182.57 658.718 186.181 658.718 Q189.815 658.718 191.621 655.176 Q193.45 651.611 193.45 644.505 Q193.45 637.375 191.621 633.833 Q189.815 630.269 186.181 630.269 M186.181 626.565 Q191.991 626.565 195.047 631.171 Q198.125 635.755 198.125 644.505 Q198.125 653.231 195.047 657.838 Q191.991 662.421 186.181 662.421 Q180.371 662.421 177.292 657.838 Q174.237 653.231 174.237 644.505 Q174.237 635.755 177.292 631.171 Q180.371 626.565 186.181 626.565 Z" fill="#000000" fill-rule="evenodd" fill-opacity="1" /><path clip-path="url(#clip490)" d="M216.343 630.269 Q212.732 630.269 210.903 633.833 Q209.098 637.375 209.098 644.505 Q209.098 651.611 210.903 655.176 Q212.732 658.718 216.343 658.718 Q219.977 658.718 221.783 655.176 Q223.611 651.611 223.611 644.505 Q223.611 637.375 221.783 633.833 Q219.977 630.269 216.343 630.269 M216.343 626.565 Q222.153 626.565 225.209 631.171 Q228.287 635.755 228.287 644.505 Q228.287 653.231 225.209 657.838 Q222.153 662.421 216.343 662.421 Q210.533 662.421 207.454 657.838 Q204.399 653.231 204.399 644.505 Q204.399 635.755 207.454 631.171 Q210.533 626.565 216.343 626.565 Z" fill="#000000" fill-rule="evenodd" fill-opacity="1" /><path clip-path="url(#clip490)" d="M119.885 414.638 L136.204 414.638 L136.204 418.573 L114.26 418.573 L114.26 414.638 Q116.922 411.884 121.505 407.254 Q126.112 402.601 127.292 401.259 Q129.538 398.736 130.417 397 Q131.32 395.24 131.32 393.55 Q131.32 390.796 129.376 389.06 Q127.455 387.324 124.353 387.324 Q122.154 387.324 119.7 388.088 Q117.269 388.851 114.492 390.402 L114.492 385.68 Q117.316 384.546 119.769 383.967 Q122.223 383.388 124.26 383.388 Q129.63 383.388 132.825 386.074 Q136.019 388.759 136.019 393.25 Q136.019 395.379 135.209 397.3 Q134.422 399.199 132.316 401.791 Q131.737 402.462 128.635 405.68 Q125.533 408.874 119.885 414.638 Z" fill="#000000" fill-rule="evenodd" fill-opacity="1" /><path clip-path="url(#clip490)" d="M156.019 387.092 Q152.408 387.092 150.579 390.657 Q148.774 394.199 148.774 401.328 Q148.774 408.435 150.579 411.999 Q152.408 415.541 156.019 415.541 Q159.653 415.541 161.459 411.999 Q163.288 408.435 163.288 401.328 Q163.288 394.199 161.459 390.657 Q159.653 387.092 156.019 387.092 M156.019 383.388 Q161.829 383.388 164.885 387.995 Q167.964 392.578 167.964 401.328 Q167.964 410.055 164.885 414.661 Q161.829 419.245 156.019 419.245 Q150.209 419.245 147.13 414.661 Q144.075 410.055 144.075 401.328 Q144.075 392.578 147.13 387.995 Q150.209 383.388 156.019 383.388 Z" fill="#000000" fill-rule="evenodd" fill-opacity="1" /><path clip-path="url(#clip490)" d="M186.181 387.092 Q182.57 387.092 180.741 390.657 Q178.936 394.199 178.936 401.328 Q178.936 408.435 180.741 411.999 Q182.57 415.541 186.181 415.541 Q189.815 415.541 191.621 411.999 Q193.45 408.435 193.45 401.328 Q193.45 394.199 191.621 390.657 Q189.815 387.092 186.181 387.092 M186.181 383.388 Q191.991 383.388 195.047 387.995 Q198.125 392.578 198.125 401.328 Q198.125 410.055 195.047 414.661 Q191.991 419.245 186.181 419.245 Q180.371 419.245 177.292 414.661 Q174.237 410.055 174.237 401.328 Q174.237 392.578 177.292 387.995 Q180.371 383.388 186.181 383.388 Z" fill="#000000" fill-rule="evenodd" fill-opacity="1" /><path clip-path="url(#clip490)" d="M216.343 387.092 Q212.732 387.092 210.903 390.657 Q209.098 394.199 209.098 401.328 Q209.098 408.435 210.903 411.999 Q212.732 415.541 216.343 415.541 Q219.977 415.541 221.783 411.999 Q223.611 408.435 223.611 401.328 Q223.611 394.199 221.783 390.657 Q219.977 387.092 216.343 387.092 M216.343 383.388 Q222.153 383.388 225.209 387.995 Q228.287 392.578 228.287 401.328 Q228.287 410.055 225.209 414.661 Q222.153 419.245 216.343 419.245 Q210.533 419.245 207.454 414.661 Q204.399 410.055 204.399 401.328 Q204.399 392.578 207.454 387.995 Q210.533 383.388 216.343 383.388 Z" fill="#000000" fill-rule="evenodd" fill-opacity="1" /><path clip-path="url(#clip490)" d="M119.885 171.462 L136.204 171.462 L136.204 175.397 L114.26 175.397 L114.26 171.462 Q116.922 168.707 121.505 164.078 Q126.112 159.425 127.292 158.082 Q129.538 155.559 130.417 153.823 Q131.32 152.064 131.32 150.374 Q131.32 147.619 129.376 145.883 Q127.455 144.147 124.353 144.147 Q122.154 144.147 119.7 144.911 Q117.269 145.675 114.492 147.226 L114.492 142.504 Q117.316 141.369 119.769 140.791 Q122.223 140.212 124.26 140.212 Q129.63 140.212 132.825 142.897 Q136.019 145.582 136.019 150.073 Q136.019 152.203 135.209 154.124 Q134.422 156.022 132.316 158.615 Q131.737 159.286 128.635 162.504 Q125.533 165.698 119.885 171.462 Z" fill="#000000" fill-rule="evenodd" fill-opacity="1" /><path clip-path="url(#clip490)" d="M146.066 140.837 L164.422 140.837 L164.422 144.772 L150.348 144.772 L150.348 153.244 Q151.366 152.897 152.385 152.735 Q153.403 152.55 154.422 152.55 Q160.209 152.55 163.589 155.721 Q166.968 158.892 166.968 164.309 Q166.968 169.888 163.496 172.99 Q160.024 176.068 153.704 176.068 Q151.528 176.068 149.26 175.698 Q147.015 175.328 144.607 174.587 L144.607 169.888 Q146.691 171.022 148.913 171.578 Q151.135 172.133 153.612 172.133 Q157.616 172.133 159.954 170.027 Q162.292 167.92 162.292 164.309 Q162.292 160.698 159.954 158.592 Q157.616 156.485 153.612 156.485 Q151.737 156.485 149.862 156.902 Q148.01 157.318 146.066 158.198 L146.066 140.837 Z" fill="#000000" fill-rule="evenodd" fill-opacity="1" /><path clip-path="url(#clip490)" d="M186.181 143.916 Q182.57 143.916 180.741 147.48 Q178.936 151.022 178.936 158.152 Q178.936 165.258 180.741 168.823 Q182.57 172.365 186.181 172.365 Q189.815 172.365 191.621 168.823 Q193.45 165.258 193.45 158.152 Q193.45 151.022 191.621 147.48 Q189.815 143.916 186.181 143.916 M186.181 140.212 Q191.991 140.212 195.047 144.818 Q198.125 149.402 198.125 158.152 Q198.125 166.879 195.047 171.485 Q191.991 176.068 186.181 176.068 Q180.371 176.068 177.292 171.485 Q174.237 166.879 174.237 158.152 Q174.237 149.402 177.292 144.818 Q180.371 140.212 186.181 140.212 Z" fill="#000000" fill-rule="evenodd" fill-opacity="1" /><path clip-path="url(#clip490)" d="M216.343 143.916 Q212.732 143.916 210.903 147.48 Q209.098 151.022 209.098 158.152 Q209.098 165.258 210.903 168.823 Q212.732 172.365 216.343 172.365 Q219.977 172.365 221.783 168.823 Q223.611 165.258 223.611 158.152 Q223.611 151.022 221.783 147.48 Q219.977 143.916 216.343 143.916 M216.343 140.212 Q222.153 140.212 225.209 144.818 Q228.287 149.402 228.287 158.152 Q228.287 166.879 225.209 171.485 Q222.153 176.068 216.343 176.068 Q210.533 176.068 207.454 171.485 Q204.399 166.879 204.399 158.152 Q204.399 149.402 207.454 144.818 Q210.533 140.212 216.343 140.212 Z" fill="#000000" fill-rule="evenodd" fill-opacity="1" /><path clip-path="url(#clip490)" d="M35.1993 829.203 Q31.2526 827.007 29.3747 823.951 Q27.4968 820.896 27.4968 816.758 Q27.4968 811.188 31.4117 808.164 Q35.2948 805.141 42.4881 805.141 L64.0042 805.141 L64.0042 811.029 L42.679 811.029 Q37.5546 811.029 35.072 812.843 Q32.5894 814.657 32.5894 818.381 Q32.5894 822.933 35.6131 825.574 Q38.6368 828.216 43.8567 828.216 L64.0042 828.216 L64.0042 834.105 L42.679 834.105 Q37.5228 834.105 35.072 835.919 Q32.5894 837.733 32.5894 841.521 Q32.5894 846.008 35.6449 848.65 Q38.6686 851.292 43.8567 851.292 L64.0042 851.292 L64.0042 857.18 L28.3562 857.18 L28.3562 851.292 L33.8944 851.292 Q30.616 849.287 29.0564 846.486 Q27.4968 843.685 27.4968 839.834 Q27.4968 835.951 29.4702 833.245 Q31.4436 830.508 35.1993 829.203 Z" fill="#000000" fill-rule="evenodd" fill-opacity="1" /><path clip-path="url(#clip490)" d="M28.3562 793.459 L28.3562 787.603 L64.0042 787.603 L64.0042 793.459 L28.3562 793.459 M14.479 793.459 L14.479 787.603 L21.895 787.603 L21.895 793.459 L14.479 793.459 Z" fill="#000000" fill-rule="evenodd" fill-opacity="1" /><path clip-path="url(#clip490)" d="M42.4881 745.717 L64.0042 745.717 L64.0042 751.573 L42.679 751.573 Q37.6183 751.573 35.1038 753.547 Q32.5894 755.52 32.5894 759.467 Q32.5894 764.209 35.6131 766.946 Q38.6368 769.684 43.8567 769.684 L64.0042 769.684 L64.0042 775.572 L28.3562 775.572 L28.3562 769.684 L33.8944 769.684 Q30.6797 767.583 29.0883 764.75 Q27.4968 761.886 27.4968 758.162 Q27.4968 752.019 31.3163 748.868 Q35.1038 745.717 42.4881 745.717 Z" fill="#000000" fill-rule="evenodd" fill-opacity="1" /><path clip-path="url(#clip490)" d="M74.8259 706.95 L79.3773 706.95 L79.3773 740.815 L74.8259 740.815 L74.8259 706.95 Z" fill="#000000" fill-rule="evenodd" fill-opacity="1" /><path clip-path="url(#clip490)" d="M33.7671 677.986 L14.479 677.986 L14.479 672.129 L64.0042 672.129 L64.0042 677.986 L58.657 677.986 Q61.8398 679.832 63.3994 682.664 Q64.9272 685.465 64.9272 689.412 Q64.9272 695.873 59.771 699.947 Q54.6147 703.989 46.212 703.989 Q37.8093 703.989 32.6531 699.947 Q27.4968 695.873 27.4968 689.412 Q27.4968 685.465 29.0564 682.664 Q30.5842 679.832 33.7671 677.986 M46.212 697.942 Q52.6732 697.942 56.3653 695.3 Q60.0256 692.627 60.0256 687.98 Q60.0256 683.333 56.3653 680.659 Q52.6732 677.986 46.212 677.986 Q39.7508 677.986 36.0905 680.659 Q32.3984 683.333 32.3984 687.98 Q32.3984 692.627 36.0905 695.3 Q39.7508 697.942 46.212 697.942 Z" fill="#000000" fill-rule="evenodd" fill-opacity="1" /><path clip-path="url(#clip490)" d="M28.3562 660.066 L28.3562 654.21 L64.0042 654.21 L64.0042 660.066 L28.3562 660.066 M14.479 660.066 L14.479 654.21 L21.895 654.21 L21.895 660.066 L14.479 660.066 Z" fill="#000000" fill-rule="evenodd" fill-opacity="1" /><path clip-path="url(#clip490)" d="M14.479 623.909 L19.3487 623.909 L19.3487 629.511 Q19.3487 632.662 20.6219 633.903 Q21.895 635.113 25.2052 635.113 L28.3562 635.113 L28.3562 625.468 L32.9077 625.468 L32.9077 635.113 L64.0042 635.113 L64.0042 641.001 L32.9077 641.001 L32.9077 646.603 L28.3562 646.603 L28.3562 641.001 L25.8736 641.001 Q19.9216 641.001 17.2162 638.232 Q14.479 635.463 14.479 629.447 L14.479 623.909 Z" fill="#000000" fill-rule="evenodd" fill-opacity="1" /><path clip-path="url(#clip490)" d="M14.479 600.961 L19.3487 600.961 L19.3487 606.562 Q19.3487 609.713 20.6219 610.955 Q21.895 612.164 25.2052 612.164 L28.3562 612.164 L28.3562 602.52 L32.9077 602.52 L32.9077 612.164 L64.0042 612.164 L64.0042 618.052 L32.9077 618.052 L32.9077 623.654 L28.3562 623.654 L28.3562 618.052 L25.8736 618.052 Q19.9216 618.052 17.2162 615.283 Q14.479 612.514 14.479 606.499 L14.479 600.961 Z" fill="#000000" fill-rule="evenodd" fill-opacity="1" /><polyline clip-path="url(#clip492)" style="stroke:#009af9; stroke-linecap:butt; stroke-linejoin:round; stroke-width:20; stroke-opacity:1; fill:none" stroke-dasharray="80, 50" points="
  323.395,1246.16 388.427,1258.58 445.789,1270.22 497.102,1281.09 543.519,1291.22 585.895,1300.64 624.877,1309.36 660.969,1340.54 694.57,1326.2 726.001,1351.62 
  755.527,1340.36 783.364,1359.96 809.695,1351.17 834.676,1365.77 858.438,1371.48 881.094,1369.26 923.47,1372.3 962.452,1371.34 980.832,1371.91 998.544,1370.77 
  1032.14,1370.41 1063.58,1369.31 1078.56,1365.58 1093.1,1367.15 1107.22,1348.22 1120.94,1363.9 1147.27,1359.6 1159.92,1350.84 1172.25,1354.29 1196.01,1340.58 
  1218.67,1323.28 1229.61,1328.51 1261.04,1314.72 1271.09,1289.61 1280.93,1291.37 1290.57,1299.3 1300.03,1283.94 1318.41,1282.34 1327.34,1266.66 1336.12,1261.98 
  1344.74,1263.9 1369.72,1244.06 1393.48,1226.49 1401.15,1221.26 1408.7,1210.35 1416.14,1207.23 1430.68,1187.47 1444.79,1196.33 1458.51,1184.53 1478.39,1147.06 
  1484.84,1131.81 1491.21,1167.66 1497.49,1135.25 1509.82,1149.58 1515.87,1138.95 1533.59,1140.6 1539.35,1078.87 1556.24,1116.65 1567.19,1099.27 1572.57,1115.16 
  1593.52,1006.54 1598.62,1085.78 1608.66,1091.3 1613.6,1062.15 1618.5,1045.98 1628.14,975.069 1637.6,1056.94 1642.26,1068.94 1655.98,1027.57 1664.92,1004.78 
  1673.69,1047.99 1682.31,889.372 1694.96,995.403 1703.22,1028.35 1707.29,1004.88 1711.33,945.234 1731.05,1009.92 1738.72,981.408 1746.28,931.196 1753.71,903.428 
  1757.39,992.624 1764.66,937.676 1768.25,959.475 1782.37,976.361 1792.69,864.861 1796.09,938.954 1815.97,868.003 1822.42,919.729 1825.61,887.633 1828.78,829.306 
  1835.07,798.752 1847.4,901.693 1853.45,865.095 1862.39,796.418 1871.16,760.825 1874.05,733.117 1876.92,813.505 1879.78,844.024 1893.82,765.947 1904.76,824.292 
  1910.14,692.902 1923.34,737.662 1931.09,766.203 1936.19,693.502 1943.74,655.886 1946.23,626.258 1951.18,711.357 1956.07,744.854 1965.72,663.549 1975.18,621.735 
  1977.51,686.846 1979.84,590.149 1993.56,635.745 2002.49,663.963 2004.7,591.427 2011.27,557.003 2013.44,528.524 2019.89,609.881 2032.54,564.063 2040.79,526.49 
  2044.87,585.771 2058.87,538.698 2068.63,498.322 2074.39,463.144 2076.3,433.467 2083.85,515.129 2094.96,472.248 2102.23,434.279 2105.82,401.462 2119.94,448.052 
  2128.56,407.596 2133.66,371.999 2135.35,341.488 2153.54,382.862 2159.99,344.794 2163.19,311.512 2184.97,319.604 2189.52,283.864 2191.02,252.825 2214.5,258.29 
  2217.36,224.806 2242.34,198.911 2243.69,167.598 2268.67,141.44 2293.65,85.838 
  "/>
<path clip-path="url(#clip490)" d="
M1998.66 196.379 L2283.14 196.379 L2283.14 92.6992 L1998.66 92.6992  Z
  " fill="#ffffff" fill-rule="evenodd" fill-opacity="1"/>
<polyline clip-path="url(#clip490)" style="stroke:#000000; stroke-linecap:butt; stroke-linejoin:round; stroke-width:4; stroke-opacity:1; fill:none" points="
  1998.66,196.379 2283.14,196.379 2283.14,92.6992 1998.66,92.6992 1998.66,196.379 
  "/>
<polyline clip-path="url(#clip490)" style="stroke:#009af9; stroke-linecap:butt; stroke-linejoin:round; stroke-width:4; stroke-opacity:1; fill:none" stroke-dasharray="16, 10" points="
  2021.86,144.539 2161.09,144.539 
  "/>
<path clip-path="url(#clip490)" d="M2198.14 164.227 Q2196.34 168.856 2194.62 170.268 Q2192.91 171.68 2190.04 171.68 L2186.64 171.68 L2186.64 168.115 L2189.14 168.115 Q2190.9 168.115 2191.87 167.282 Q2192.84 166.449 2194.02 163.347 L2194.79 161.403 L2184.3 135.893 L2188.81 135.893 L2196.92 156.171 L2205.02 135.893 L2209.53 135.893 L2198.14 164.227 Z" fill="#000000" fill-rule="evenodd" fill-opacity="1" /><path clip-path="url(#clip490)" d="M2216.82 157.884 L2224.46 157.884 L2224.46 131.518 L2216.15 133.185 L2216.15 128.926 L2224.42 127.259 L2229.09 127.259 L2229.09 157.884 L2236.73 157.884 L2236.73 161.819 L2216.82 161.819 L2216.82 157.884 Z" fill="#000000" fill-rule="evenodd" fill-opacity="1" /></svg>
