<?xml version="1.0" encoding="utf-8"?>
<svg xmlns="http://www.w3.org/2000/svg" xmlns:xlink="http://www.w3.org/1999/xlink" width="600" height="400" viewBox="0 0 2400 1600">
<defs>
  <clipPath id="clip320">
    <rect x="0" y="0" width="2400" height="1600"/>
  </clipPath>
</defs>
<path clip-path="url(#clip320)" d="
M0 1600 L2400 1600 L2400 0 L0 0  Z
  " fill="#ffffff" fill-rule="evenodd" fill-opacity="1"/>
<defs>
  <clipPath id="clip321">
    <rect x="480" y="0" width="1681" height="1600"/>
  </clipPath>
</defs>
<path clip-path="url(#clip320)" d="
M236.672 1410.9 L2352.76 1410.9 L2352.76 47.2441 L236.672 47.2441  Z
  " fill="#ffffff" fill-rule="evenodd" fill-opacity="1"/>
<defs>
  <clipPath id="clip322">
    <rect x="236" y="47" width="2117" height="1365"/>
  </clipPath>
</defs>
<polyline clip-path="url(#clip322)" style="stroke:#000000; stroke-width:2; stroke-opacity:0.1; fill:none" points="
  496.191,1410.9 496.191,47.2441 
  "/>
<polyline clip-path="url(#clip322)" style="stroke:#000000; stroke-width:2; stroke-opacity:0.1; fill:none" points="
  895.453,1410.9 895.453,47.2441 
  "/>
<polyline clip-path="url(#clip322)" style="stroke:#000000; stroke-width:2; stroke-opacity:0.1; fill:none" points="
  1294.71,1410.9 1294.71,47.2441 
  "/>
<polyline clip-path="url(#clip322)" style="stroke:#000000; stroke-width:2; stroke-opacity:0.1; fill:none" points="
  1693.97,1410.9 1693.97,47.2441 
  "/>
<polyline clip-path="url(#clip322)" style="stroke:#000000; stroke-width:2; stroke-opacity:0.1; fill:none" points="
  2093.24,1410.9 2093.24,47.2441 
  "/>
<polyline clip-path="url(#clip320)" style="stroke:#000000; stroke-width:4; stroke-opacity:1; fill:none" points="
  236.672,1410.9 2352.76,1410.9 
  "/>
<polyline clip-path="url(#clip320)" style="stroke:#000000; stroke-width:4; stroke-opacity:1; fill:none" points="
  496.191,1410.9 496.191,1394.53 
  "/>
<polyline clip-path="url(#clip320)" style="stroke:#000000; stroke-width:4; stroke-opacity:1; fill:none" points="
  895.453,1410.9 895.453,1394.53 
  "/>
<polyline clip-path="url(#clip320)" style="stroke:#000000; stroke-width:4; stroke-opacity:1; fill:none" points="
  1294.71,1410.9 1294.71,1394.53 
  "/>
<polyline clip-path="url(#clip320)" style="stroke:#000000; stroke-width:4; stroke-opacity:1; fill:none" points="
  1693.97,1410.9 1693.97,1394.53 
  "/>
<polyline clip-path="url(#clip320)" style="stroke:#000000; stroke-width:4; stroke-opacity:1; fill:none" points="
  2093.24,1410.9 2093.24,1394.53 
  "/>
<path clip-path="url(#clip320)" d="M 0 0 M436.072 1489.17 L443.711 1489.17 L443.711 1462.8 L435.4 1464.47 L435.4 1460.21 L443.664 1458.54 L448.34 1458.54 L448.34 1489.17 L455.979 1489.17 L455.979 1493.1 L436.072 1493.1 L436.072 1489.17 Z" fill="#000000" fill-rule="evenodd" fill-opacity="1" /><path clip-path="url(#clip320)" d="M 0 0 M471.048 1461.62 Q467.437 1461.62 465.609 1465.19 Q463.803 1468.73 463.803 1475.86 Q463.803 1482.97 465.609 1486.53 Q467.437 1490.07 471.048 1490.07 Q474.683 1490.07 476.488 1486.53 Q478.317 1482.97 478.317 1475.86 Q478.317 1468.73 476.488 1465.19 Q474.683 1461.62 471.048 1461.62 M471.048 1457.92 Q476.859 1457.92 479.914 1462.53 Q482.993 1467.11 482.993 1475.86 Q482.993 1484.59 479.914 1489.19 Q476.859 1493.78 471.048 1493.78 Q465.238 1493.78 462.16 1489.19 Q459.104 1484.59 459.104 1475.86 Q459.104 1467.11 462.16 1462.53 Q465.238 1457.92 471.048 1457.92 Z" fill="#000000" fill-rule="evenodd" fill-opacity="1" /><path clip-path="url(#clip320)" d="M 0 0 M482.993 1452.02 L507.104 1452.02 L507.104 1455.22 L482.993 1455.22 L482.993 1452.02 Z" fill="#000000" fill-rule="evenodd" fill-opacity="1" /><path clip-path="url(#clip320)" d="M 0 0 M511.261 1437.61 L526.175 1437.61 L526.175 1440.81 L514.74 1440.81 L514.74 1447.69 Q515.568 1447.41 516.395 1447.28 Q517.223 1447.13 518.05 1447.13 Q522.752 1447.13 525.498 1449.71 Q528.244 1452.28 528.244 1456.68 Q528.244 1461.22 525.423 1463.74 Q522.602 1466.24 517.467 1466.24 Q515.699 1466.24 513.856 1465.94 Q512.032 1465.64 510.076 1465.04 L510.076 1461.22 Q511.769 1462.14 513.574 1462.59 Q515.38 1463.04 517.392 1463.04 Q520.646 1463.04 522.546 1461.33 Q524.445 1459.62 524.445 1456.68 Q524.445 1453.75 522.546 1452.04 Q520.646 1450.33 517.392 1450.33 Q515.869 1450.33 514.345 1450.67 Q512.841 1451 511.261 1451.72 L511.261 1437.61 Z" fill="#000000" fill-rule="evenodd" fill-opacity="1" /><path clip-path="url(#clip320)" d="M 0 0 M532.363 1460.92 L536.332 1460.92 L536.332 1465.69 L532.363 1465.69 L532.363 1460.92 Z" fill="#000000" fill-rule="evenodd" fill-opacity="1" /><path clip-path="url(#clip320)" d="M 0 0 M543.723 1462.5 L556.983 1462.5 L556.983 1465.69 L539.153 1465.69 L539.153 1462.5 Q541.316 1460.26 545.04 1456.5 Q548.782 1452.72 549.742 1451.63 Q551.566 1449.58 552.281 1448.16 Q553.014 1446.74 553.014 1445.36 Q553.014 1443.12 551.434 1441.71 Q549.873 1440.3 547.353 1440.3 Q545.566 1440.3 543.573 1440.92 Q541.598 1441.54 539.341 1442.8 L539.341 1438.97 Q541.635 1438.05 543.629 1437.58 Q545.623 1437.11 547.278 1437.11 Q551.641 1437.11 554.237 1439.29 Q556.832 1441.47 556.832 1445.12 Q556.832 1446.85 556.174 1448.41 Q555.534 1449.95 553.823 1452.06 Q553.353 1452.6 550.832 1455.22 Q548.312 1457.81 543.723 1462.5 Z" fill="#000000" fill-rule="evenodd" fill-opacity="1" /><path clip-path="url(#clip320)" d="M 0 0 M835.182 1489.17 L842.821 1489.17 L842.821 1462.8 L834.511 1464.47 L834.511 1460.21 L842.775 1458.54 L847.451 1458.54 L847.451 1489.17 L855.09 1489.17 L855.09 1493.1 L835.182 1493.1 L835.182 1489.17 Z" fill="#000000" fill-rule="evenodd" fill-opacity="1" /><path clip-path="url(#clip320)" d="M 0 0 M870.159 1461.62 Q866.548 1461.62 864.719 1465.19 Q862.914 1468.73 862.914 1475.86 Q862.914 1482.97 864.719 1486.53 Q866.548 1490.07 870.159 1490.07 Q873.793 1490.07 875.599 1486.53 Q877.428 1482.97 877.428 1475.86 Q877.428 1468.73 875.599 1465.19 Q873.793 1461.62 870.159 1461.62 M870.159 1457.92 Q875.969 1457.92 879.025 1462.53 Q882.103 1467.11 882.103 1475.86 Q882.103 1484.59 879.025 1489.19 Q875.969 1493.78 870.159 1493.78 Q864.349 1493.78 861.27 1489.19 Q858.215 1484.59 858.215 1475.86 Q858.215 1467.11 861.27 1462.53 Q864.349 1457.92 870.159 1457.92 Z" fill="#000000" fill-rule="evenodd" fill-opacity="1" /><path clip-path="url(#clip320)" d="M 0 0 M882.103 1452.02 L906.215 1452.02 L906.215 1455.22 L882.103 1455.22 L882.103 1452.02 Z" fill="#000000" fill-rule="evenodd" fill-opacity="1" /><path clip-path="url(#clip320)" d="M 0 0 M910.372 1437.61 L925.286 1437.61 L925.286 1440.81 L913.851 1440.81 L913.851 1447.69 Q914.679 1447.41 915.506 1447.28 Q916.334 1447.13 917.161 1447.13 Q921.863 1447.13 924.609 1449.71 Q927.355 1452.28 927.355 1456.68 Q927.355 1461.22 924.534 1463.74 Q921.713 1466.24 916.578 1466.24 Q914.81 1466.24 912.967 1465.94 Q911.143 1465.64 909.187 1465.04 L909.187 1461.22 Q910.879 1462.14 912.685 1462.59 Q914.49 1463.04 916.503 1463.04 Q919.757 1463.04 921.656 1461.33 Q923.556 1459.62 923.556 1456.68 Q923.556 1453.75 921.656 1452.04 Q919.757 1450.33 916.503 1450.33 Q914.979 1450.33 913.456 1450.67 Q911.951 1451 910.372 1451.72 L910.372 1437.61 Z" fill="#000000" fill-rule="evenodd" fill-opacity="1" /><path clip-path="url(#clip320)" d="M 0 0 M931.474 1460.92 L935.442 1460.92 L935.442 1465.69 L931.474 1465.69 L931.474 1460.92 Z" fill="#000000" fill-rule="evenodd" fill-opacity="1" /><path clip-path="url(#clip320)" d="M 0 0 M940.219 1462.5 L946.426 1462.5 L946.426 1441.07 L939.674 1442.43 L939.674 1438.97 L946.388 1437.61 L950.188 1437.61 L950.188 1462.5 L956.394 1462.5 L956.394 1465.69 L940.219 1465.69 L940.219 1462.5 Z" fill="#000000" fill-rule="evenodd" fill-opacity="1" /><path clip-path="url(#clip320)" d="M 0 0 M1233.95 1489.17 L1241.58 1489.17 L1241.58 1462.8 L1233.27 1464.47 L1233.27 1460.21 L1241.54 1458.54 L1246.21 1458.54 L1246.21 1489.17 L1253.85 1489.17 L1253.85 1493.1 L1233.95 1493.1 L1233.95 1489.17 Z" fill="#000000" fill-rule="evenodd" fill-opacity="1" /><path clip-path="url(#clip320)" d="M 0 0 M1268.92 1461.62 Q1265.31 1461.62 1263.48 1465.19 Q1261.68 1468.73 1261.68 1475.86 Q1261.68 1482.97 1263.48 1486.53 Q1265.31 1490.07 1268.92 1490.07 Q1272.56 1490.07 1274.36 1486.53 Q1276.19 1482.97 1276.19 1475.86 Q1276.19 1468.73 1274.36 1465.19 Q1272.56 1461.62 1268.92 1461.62 M1268.92 1457.92 Q1274.73 1457.92 1277.79 1462.53 Q1280.87 1467.11 1280.87 1475.86 Q1280.87 1484.59 1277.79 1489.19 Q1274.73 1493.78 1268.92 1493.78 Q1263.11 1493.78 1260.03 1489.19 Q1256.98 1484.59 1256.98 1475.86 Q1256.98 1467.11 1260.03 1462.53 Q1263.11 1457.92 1268.92 1457.92 Z" fill="#000000" fill-rule="evenodd" fill-opacity="1" /><path clip-path="url(#clip320)" d="M 0 0 M1280.87 1452.02 L1304.98 1452.02 L1304.98 1455.22 L1280.87 1455.22 L1280.87 1452.02 Z" fill="#000000" fill-rule="evenodd" fill-opacity="1" /><path clip-path="url(#clip320)" d="M 0 0 M1309.13 1437.61 L1324.05 1437.61 L1324.05 1440.81 L1312.61 1440.81 L1312.61 1447.69 Q1313.44 1447.41 1314.27 1447.28 Q1315.1 1447.13 1315.92 1447.13 Q1320.63 1447.13 1323.37 1449.71 Q1326.12 1452.28 1326.12 1456.68 Q1326.12 1461.22 1323.3 1463.74 Q1320.48 1466.24 1315.34 1466.24 Q1313.57 1466.24 1311.73 1465.94 Q1309.91 1465.64 1307.95 1465.04 L1307.95 1461.22 Q1309.64 1462.14 1311.45 1462.59 Q1313.25 1463.04 1315.27 1463.04 Q1318.52 1463.04 1320.42 1461.33 Q1322.32 1459.62 1322.32 1456.68 Q1322.32 1453.75 1320.42 1452.04 Q1318.52 1450.33 1315.27 1450.33 Q1313.74 1450.33 1312.22 1450.67 Q1310.71 1451 1309.13 1451.72 L1309.13 1437.61 Z" fill="#000000" fill-rule="evenodd" fill-opacity="1" /><path clip-path="url(#clip320)" d="M 0 0 M1330.24 1460.92 L1334.21 1460.92 L1334.21 1465.69 L1330.24 1465.69 L1330.24 1460.92 Z" fill="#000000" fill-rule="evenodd" fill-opacity="1" /><path clip-path="url(#clip320)" d="M 0 0 M1346.45 1440.11 Q1343.51 1440.11 1342.03 1443.01 Q1340.56 1445.89 1340.56 1451.68 Q1340.56 1457.46 1342.03 1460.35 Q1343.51 1463.23 1346.45 1463.23 Q1349.4 1463.23 1350.87 1460.35 Q1352.35 1457.46 1352.35 1451.68 Q1352.35 1445.89 1350.87 1443.01 Q1349.4 1440.11 1346.45 1440.11 M1346.45 1437.11 Q1351.17 1437.11 1353.65 1440.85 Q1356.15 1444.57 1356.15 1451.68 Q1356.15 1458.77 1353.65 1462.51 Q1351.17 1466.24 1346.45 1466.24 Q1341.73 1466.24 1339.23 1462.51 Q1336.74 1458.77 1336.74 1451.68 Q1336.74 1444.57 1339.23 1440.85 Q1341.73 1437.11 1346.45 1437.11 Z" fill="#000000" fill-rule="evenodd" fill-opacity="1" /><path clip-path="url(#clip320)" d="M 0 0 M1632.68 1489.17 L1640.32 1489.17 L1640.32 1462.8 L1632.01 1464.47 L1632.01 1460.21 L1640.27 1458.54 L1644.95 1458.54 L1644.95 1489.17 L1652.59 1489.17 L1652.59 1493.1 L1632.68 1493.1 L1632.68 1489.17 Z" fill="#000000" fill-rule="evenodd" fill-opacity="1" /><path clip-path="url(#clip320)" d="M 0 0 M1667.66 1461.62 Q1664.05 1461.62 1662.22 1465.19 Q1660.41 1468.73 1660.41 1475.86 Q1660.41 1482.97 1662.22 1486.53 Q1664.05 1490.07 1667.66 1490.07 Q1671.29 1490.07 1673.1 1486.53 Q1674.92 1482.97 1674.92 1475.86 Q1674.92 1468.73 1673.1 1465.19 Q1671.29 1461.62 1667.66 1461.62 M1667.66 1457.92 Q1673.47 1457.92 1676.52 1462.53 Q1679.6 1467.11 1679.6 1475.86 Q1679.6 1484.59 1676.52 1489.19 Q1673.47 1493.78 1667.66 1493.78 Q1661.85 1493.78 1658.77 1489.19 Q1655.71 1484.59 1655.71 1475.86 Q1655.71 1467.11 1658.77 1462.53 Q1661.85 1457.92 1667.66 1457.92 Z" fill="#000000" fill-rule="evenodd" fill-opacity="1" /><path clip-path="url(#clip320)" d="M 0 0 M1679.6 1452.02 L1703.71 1452.02 L1703.71 1455.22 L1679.6 1455.22 L1679.6 1452.02 Z" fill="#000000" fill-rule="evenodd" fill-opacity="1" /><path clip-path="url(#clip320)" d="M 0 0 M1718.27 1440.92 L1708.68 1455.91 L1718.27 1455.91 L1718.27 1440.92 M1717.27 1437.61 L1722.05 1437.61 L1722.05 1455.91 L1726.06 1455.91 L1726.06 1459.07 L1722.05 1459.07 L1722.05 1465.69 L1718.27 1465.69 L1718.27 1459.07 L1705.59 1459.07 L1705.59 1455.41 L1717.27 1437.61 Z" fill="#000000" fill-rule="evenodd" fill-opacity="1" /><path clip-path="url(#clip320)" d="M 0 0 M1730.17 1460.92 L1734.14 1460.92 L1734.14 1465.69 L1730.17 1465.69 L1730.17 1460.92 Z" fill="#000000" fill-rule="evenodd" fill-opacity="1" /><path clip-path="url(#clip320)" d="M 0 0 M1738.38 1465.11 L1738.38 1461.65 Q1739.8 1462.33 1741.27 1462.68 Q1742.74 1463.04 1744.15 1463.04 Q1747.91 1463.04 1749.89 1460.52 Q1751.88 1457.98 1752.16 1452.83 Q1751.07 1454.45 1749.4 1455.31 Q1747.72 1456.18 1745.69 1456.18 Q1741.48 1456.18 1739.01 1453.64 Q1736.57 1451.08 1736.57 1446.66 Q1736.57 1442.33 1739.13 1439.72 Q1741.69 1437.11 1745.94 1437.11 Q1750.81 1437.11 1753.36 1440.85 Q1755.94 1444.57 1755.94 1451.68 Q1755.94 1458.32 1752.78 1462.29 Q1749.64 1466.24 1744.32 1466.24 Q1742.89 1466.24 1741.42 1465.96 Q1739.95 1465.67 1738.38 1465.11 M1745.94 1453.21 Q1748.49 1453.21 1749.98 1451.46 Q1751.48 1449.71 1751.48 1446.66 Q1751.48 1443.63 1749.98 1441.88 Q1748.49 1440.11 1745.94 1440.11 Q1743.38 1440.11 1741.87 1441.88 Q1740.39 1443.63 1740.39 1446.66 Q1740.39 1449.71 1741.87 1451.46 Q1743.38 1453.21 1745.94 1453.21 Z" fill="#000000" fill-rule="evenodd" fill-opacity="1" /><path clip-path="url(#clip320)" d="M 0 0 M2031.9 1489.17 L2039.54 1489.17 L2039.54 1462.8 L2031.23 1464.47 L2031.23 1460.21 L2039.5 1458.54 L2044.17 1458.54 L2044.17 1489.17 L2051.81 1489.17 L2051.81 1493.1 L2031.9 1493.1 L2031.9 1489.17 Z" fill="#000000" fill-rule="evenodd" fill-opacity="1" /><path clip-path="url(#clip320)" d="M 0 0 M2066.88 1461.62 Q2063.27 1461.62 2061.44 1465.19 Q2059.63 1468.73 2059.63 1475.86 Q2059.63 1482.97 2061.44 1486.53 Q2063.27 1490.07 2066.88 1490.07 Q2070.51 1490.07 2072.32 1486.53 Q2074.15 1482.97 2074.15 1475.86 Q2074.15 1468.73 2072.32 1465.19 Q2070.51 1461.62 2066.88 1461.62 M2066.88 1457.92 Q2072.69 1457.92 2075.75 1462.53 Q2078.82 1467.11 2078.82 1475.86 Q2078.82 1484.59 2075.75 1489.19 Q2072.69 1493.78 2066.88 1493.78 Q2061.07 1493.78 2057.99 1489.19 Q2054.94 1484.59 2054.94 1475.86 Q2054.94 1467.11 2057.99 1462.53 Q2061.07 1457.92 2066.88 1457.92 Z" fill="#000000" fill-rule="evenodd" fill-opacity="1" /><path clip-path="url(#clip320)" d="M 0 0 M2078.82 1452.02 L2102.94 1452.02 L2102.94 1455.22 L2078.82 1455.22 L2078.82 1452.02 Z" fill="#000000" fill-rule="evenodd" fill-opacity="1" /><path clip-path="url(#clip320)" d="M 0 0 M2117.49 1440.92 L2107.9 1455.91 L2117.49 1455.91 L2117.49 1440.92 M2116.5 1437.61 L2121.27 1437.61 L2121.27 1455.91 L2125.28 1455.91 L2125.28 1459.07 L2121.27 1459.07 L2121.27 1465.69 L2117.49 1465.69 L2117.49 1459.07 L2104.82 1459.07 L2104.82 1455.41 L2116.5 1437.61 Z" fill="#000000" fill-rule="evenodd" fill-opacity="1" /><path clip-path="url(#clip320)" d="M 0 0 M2129.4 1460.92 L2133.37 1460.92 L2133.37 1465.69 L2129.4 1465.69 L2129.4 1460.92 Z" fill="#000000" fill-rule="evenodd" fill-opacity="1" /><path clip-path="url(#clip320)" d="M 0 0 M2145.61 1452.36 Q2142.9 1452.36 2141.34 1453.81 Q2139.8 1455.26 2139.8 1457.79 Q2139.8 1460.33 2141.34 1461.78 Q2142.9 1463.23 2145.61 1463.23 Q2148.32 1463.23 2149.88 1461.78 Q2151.44 1460.31 2151.44 1457.79 Q2151.44 1455.26 2149.88 1453.81 Q2148.34 1452.36 2145.61 1452.36 M2141.81 1450.74 Q2139.37 1450.14 2137.99 1448.47 Q2136.64 1446.79 2136.64 1444.38 Q2136.64 1441.02 2139.03 1439.06 Q2141.44 1437.11 2145.61 1437.11 Q2149.8 1437.11 2152.19 1439.06 Q2154.58 1441.02 2154.58 1444.38 Q2154.58 1446.79 2153.21 1448.47 Q2151.85 1450.14 2149.43 1450.74 Q2152.17 1451.38 2153.7 1453.24 Q2155.24 1455.1 2155.24 1457.79 Q2155.24 1461.88 2152.74 1464.06 Q2150.26 1466.24 2145.61 1466.24 Q2140.97 1466.24 2138.46 1464.06 Q2135.98 1461.88 2135.98 1457.79 Q2135.98 1455.1 2137.52 1453.24 Q2139.07 1451.38 2141.81 1450.74 M2140.42 1444.74 Q2140.42 1446.92 2141.77 1448.15 Q2143.15 1449.37 2145.61 1449.37 Q2148.06 1449.37 2149.43 1448.15 Q2150.82 1446.92 2150.82 1444.74 Q2150.82 1442.56 2149.43 1441.34 Q2148.06 1440.11 2145.61 1440.11 Q2143.15 1440.11 2141.77 1441.34 Q2140.42 1442.56 2140.42 1444.74 Z" fill="#000000" fill-rule="evenodd" fill-opacity="1" /><path clip-path="url(#clip320)" d="M 0 0 M1187.48 1526.54 L1193.69 1526.54 L1204.83 1556.46 L1215.97 1526.54 L1222.18 1526.54 L1208.81 1562.19 L1200.85 1562.19 L1187.48 1526.54 Z" fill="#000000" fill-rule="evenodd" fill-opacity="1" /><path clip-path="url(#clip320)" d="M 0 0 M1255.41 1573.01 L1255.41 1577.56 L1221.54 1577.56 L1221.54 1573.01 L1255.41 1573.01 Z" fill="#000000" fill-rule="evenodd" fill-opacity="1" /><path clip-path="url(#clip320)" d="M 0 0 M1275.36 1530.64 Q1270.65 1530.64 1267.91 1534.34 Q1265.18 1538 1265.18 1544.39 Q1265.18 1550.79 1267.88 1554.48 Q1270.62 1558.14 1275.36 1558.14 Q1280.04 1558.14 1282.78 1554.45 Q1285.52 1550.76 1285.52 1544.39 Q1285.52 1538.06 1282.78 1534.37 Q1280.04 1530.64 1275.36 1530.64 M1275.36 1525.68 Q1283 1525.68 1287.36 1530.64 Q1291.72 1535.61 1291.72 1544.39 Q1291.72 1553.15 1287.36 1558.14 Q1283 1563.11 1275.36 1563.11 Q1267.69 1563.11 1263.33 1558.14 Q1259 1553.15 1259 1544.39 Q1259 1535.61 1263.33 1530.64 Q1267.69 1525.68 1275.36 1525.68 Z" fill="#000000" fill-rule="evenodd" fill-opacity="1" /><path clip-path="url(#clip320)" d="M 0 0 M1303.53 1556.84 L1303.53 1575.74 L1297.64 1575.74 L1297.64 1526.54 L1303.53 1526.54 L1303.53 1531.95 Q1305.38 1528.77 1308.18 1527.24 Q1311.01 1525.68 1314.92 1525.68 Q1321.42 1525.68 1325.46 1530.83 Q1329.53 1535.99 1329.53 1544.39 Q1329.53 1552.8 1325.46 1557.95 Q1321.42 1563.11 1314.92 1563.11 Q1311.01 1563.11 1308.18 1561.58 Q1305.38 1560.02 1303.53 1556.84 M1323.45 1544.39 Q1323.45 1537.93 1320.78 1534.27 Q1318.14 1530.58 1313.49 1530.58 Q1308.85 1530.58 1306.17 1534.27 Q1303.53 1537.93 1303.53 1544.39 Q1303.53 1550.85 1306.17 1554.55 Q1308.85 1558.21 1313.49 1558.21 Q1318.14 1558.21 1320.78 1554.55 Q1323.45 1550.85 1323.45 1544.39 Z" fill="#000000" fill-rule="evenodd" fill-opacity="1" /><path clip-path="url(#clip320)" d="M 0 0 M1366.17 1542.9 L1366.17 1545.76 L1339.24 1545.76 Q1339.62 1551.81 1342.87 1554.99 Q1346.15 1558.14 1351.97 1558.14 Q1355.35 1558.14 1358.5 1557.32 Q1361.68 1556.49 1364.8 1554.83 L1364.8 1560.37 Q1361.65 1561.71 1358.34 1562.41 Q1355.03 1563.11 1351.62 1563.11 Q1343.09 1563.11 1338.1 1558.14 Q1333.13 1553.18 1333.13 1544.71 Q1333.13 1535.96 1337.84 1530.83 Q1342.58 1525.68 1350.6 1525.68 Q1357.8 1525.68 1361.97 1530.33 Q1366.17 1534.94 1366.17 1542.9 M1360.31 1541.18 Q1360.25 1536.37 1357.61 1533.51 Q1355 1530.64 1350.67 1530.64 Q1345.77 1530.64 1342.81 1533.41 Q1339.88 1536.18 1339.43 1541.21 L1360.31 1541.18 Z" fill="#000000" fill-rule="evenodd" fill-opacity="1" /><path clip-path="url(#clip320)" d="M 0 0 M1401.94 1540.67 L1401.94 1562.19 L1396.09 1562.19 L1396.09 1540.86 Q1396.09 1535.8 1394.11 1533.29 Q1392.14 1530.77 1388.19 1530.77 Q1383.45 1530.77 1380.71 1533.79 Q1377.98 1536.82 1377.98 1542.04 L1377.98 1562.19 L1372.09 1562.19 L1372.09 1526.54 L1377.98 1526.54 L1377.98 1532.08 Q1380.08 1528.86 1382.91 1527.27 Q1385.78 1525.68 1389.5 1525.68 Q1395.64 1525.68 1398.79 1529.5 Q1401.94 1533.29 1401.94 1540.67 Z" fill="#000000" fill-rule="evenodd" fill-opacity="1" /><polyline clip-path="url(#clip322)" style="stroke:#000000; stroke-width:2; stroke-opacity:0.1; fill:none" points="
  236.672,1372.84 2352.76,1372.84 
  "/>
<polyline clip-path="url(#clip322)" style="stroke:#000000; stroke-width:2; stroke-opacity:0.1; fill:none" points="
  236.672,1059.44 2352.76,1059.44 
  "/>
<polyline clip-path="url(#clip322)" style="stroke:#000000; stroke-width:2; stroke-opacity:0.1; fill:none" points="
  236.672,746.039 2352.76,746.039 
  "/>
<polyline clip-path="url(#clip322)" style="stroke:#000000; stroke-width:2; stroke-opacity:0.1; fill:none" points="
  236.672,432.639 2352.76,432.639 
  "/>
<polyline clip-path="url(#clip322)" style="stroke:#000000; stroke-width:2; stroke-opacity:0.1; fill:none" points="
  236.672,119.24 2352.76,119.24 
  "/>
<polyline clip-path="url(#clip320)" style="stroke:#000000; stroke-width:4; stroke-opacity:1; fill:none" points="
  236.672,1410.9 236.672,47.2441 
  "/>
<polyline clip-path="url(#clip320)" style="stroke:#000000; stroke-width:4; stroke-opacity:1; fill:none" points="
  236.672,1372.84 262.065,1372.84 
  "/>
<polyline clip-path="url(#clip320)" style="stroke:#000000; stroke-width:4; stroke-opacity:1; fill:none" points="
  236.672,1059.44 262.065,1059.44 
  "/>
<polyline clip-path="url(#clip320)" style="stroke:#000000; stroke-width:4; stroke-opacity:1; fill:none" points="
  236.672,746.039 262.065,746.039 
  "/>
<polyline clip-path="url(#clip320)" style="stroke:#000000; stroke-width:4; stroke-opacity:1; fill:none" points="
  236.672,432.639 262.065,432.639 
  "/>
<polyline clip-path="url(#clip320)" style="stroke:#000000; stroke-width:4; stroke-opacity:1; fill:none" points="
  236.672,119.24 262.065,119.24 
  "/>
<path clip-path="url(#clip320)" d="M 0 0 M122.015 1386.18 L138.334 1386.18 L138.334 1390.12 L116.39 1390.12 L116.39 1386.18 Q119.052 1383.43 123.635 1378.8 Q128.242 1374.15 129.422 1372.8 Q131.667 1370.28 132.547 1368.54 Q133.45 1366.79 133.45 1365.1 Q133.45 1362.34 131.505 1360.6 Q129.584 1358.87 126.482 1358.87 Q124.283 1358.87 121.83 1359.63 Q119.399 1360.4 116.621 1361.95 L116.621 1357.22 Q119.445 1356.09 121.899 1355.51 Q124.353 1354.93 126.39 1354.93 Q131.76 1354.93 134.954 1357.62 Q138.149 1360.3 138.149 1364.79 Q138.149 1366.92 137.339 1368.85 Q136.552 1370.74 134.445 1373.34 Q133.867 1374.01 130.765 1377.22 Q127.663 1380.42 122.015 1386.18 Z" fill="#000000" fill-rule="evenodd" fill-opacity="1" /><path clip-path="url(#clip320)" d="M 0 0 M157.57 1371.48 Q160.927 1372.2 162.802 1374.47 Q164.7 1376.74 164.7 1380.07 Q164.7 1385.19 161.181 1387.99 Q157.663 1390.79 151.181 1390.79 Q149.005 1390.79 146.691 1390.35 Q144.399 1389.93 141.945 1389.08 L141.945 1384.56 Q143.89 1385.7 146.204 1386.28 Q148.519 1386.85 151.042 1386.85 Q155.44 1386.85 157.732 1385.12 Q160.047 1383.38 160.047 1380.07 Q160.047 1377.02 157.894 1375.3 Q155.765 1373.57 151.945 1373.57 L147.917 1373.57 L147.917 1369.72 L152.13 1369.72 Q155.579 1369.72 157.408 1368.36 Q159.237 1366.97 159.237 1364.38 Q159.237 1361.72 157.339 1360.3 Q155.464 1358.87 151.945 1358.87 Q150.024 1358.87 147.825 1359.29 Q145.626 1359.7 142.987 1360.58 L142.987 1356.41 Q145.649 1355.67 147.964 1355.3 Q150.302 1354.93 152.362 1354.93 Q157.686 1354.93 160.788 1357.36 Q163.89 1359.77 163.89 1363.89 Q163.89 1366.76 162.246 1368.75 Q160.603 1370.72 157.57 1371.48 Z" fill="#000000" fill-rule="evenodd" fill-opacity="1" /><path clip-path="url(#clip320)" d="M 0 0 M169.769 1384.24 L174.653 1384.24 L174.653 1390.12 L169.769 1390.12 L169.769 1384.24 Z" fill="#000000" fill-rule="evenodd" fill-opacity="1" /><path clip-path="url(#clip320)" d="M 0 0 M179.769 1355.56 L198.125 1355.56 L198.125 1359.49 L184.051 1359.49 L184.051 1367.97 Q185.07 1367.62 186.088 1367.46 Q187.107 1367.27 188.126 1367.27 Q193.913 1367.27 197.292 1370.44 Q200.672 1373.61 200.672 1379.03 Q200.672 1384.61 197.2 1387.71 Q193.727 1390.79 187.408 1390.79 Q185.232 1390.79 182.963 1390.42 Q180.718 1390.05 178.311 1389.31 L178.311 1384.61 Q180.394 1385.74 182.616 1386.3 Q184.838 1386.85 187.315 1386.85 Q191.32 1386.85 193.658 1384.75 Q195.996 1382.64 195.996 1379.03 Q195.996 1375.42 193.658 1373.31 Q191.32 1371.21 187.315 1371.21 Q185.44 1371.21 183.565 1371.62 Q181.713 1372.04 179.769 1372.92 L179.769 1355.56 Z" fill="#000000" fill-rule="evenodd" fill-opacity="1" /><path clip-path="url(#clip320)" d="M 0 0 M119.885 1072.78 L136.204 1072.78 L136.204 1076.72 L114.26 1076.72 L114.26 1072.78 Q116.922 1070.03 121.505 1065.4 Q126.112 1060.75 127.292 1059.4 Q129.538 1056.88 130.417 1055.14 Q131.32 1053.39 131.32 1051.7 Q131.32 1048.94 129.376 1047.2 Q127.455 1045.47 124.353 1045.47 Q122.154 1045.47 119.7 1046.23 Q117.269 1047 114.492 1048.55 L114.492 1043.83 Q117.316 1042.69 119.769 1042.11 Q122.223 1041.53 124.26 1041.53 Q129.63 1041.53 132.825 1044.22 Q136.019 1046.9 136.019 1051.39 Q136.019 1053.52 135.209 1055.45 Q134.422 1057.34 132.316 1059.94 Q131.737 1060.61 128.635 1063.83 Q125.533 1067.02 119.885 1072.78 Z" fill="#000000" fill-rule="evenodd" fill-opacity="1" /><path clip-path="url(#clip320)" d="M 0 0 M154.121 1046.23 L142.316 1064.68 L154.121 1064.68 L154.121 1046.23 M152.894 1042.16 L158.774 1042.16 L158.774 1064.68 L163.704 1064.68 L163.704 1068.57 L158.774 1068.57 L158.774 1076.72 L154.121 1076.72 L154.121 1068.57 L138.519 1068.57 L138.519 1064.06 L152.894 1042.16 Z" fill="#000000" fill-rule="evenodd" fill-opacity="1" /><path clip-path="url(#clip320)" d="M 0 0 M168.774 1070.84 L173.658 1070.84 L173.658 1076.72 L168.774 1076.72 L168.774 1070.84 Z" fill="#000000" fill-rule="evenodd" fill-opacity="1" /><path clip-path="url(#clip320)" d="M 0 0 M188.727 1045.24 Q185.116 1045.24 183.288 1048.8 Q181.482 1052.34 181.482 1059.47 Q181.482 1066.58 183.288 1070.14 Q185.116 1073.69 188.727 1073.69 Q192.362 1073.69 194.167 1070.14 Q195.996 1066.58 195.996 1059.47 Q195.996 1052.34 194.167 1048.8 Q192.362 1045.24 188.727 1045.24 M188.727 1041.53 Q194.538 1041.53 197.593 1046.14 Q200.672 1050.72 200.672 1059.47 Q200.672 1068.2 197.593 1072.81 Q194.538 1077.39 188.727 1077.39 Q182.917 1077.39 179.839 1072.81 Q176.783 1068.2 176.783 1059.47 Q176.783 1050.72 179.839 1046.14 Q182.917 1041.53 188.727 1041.53 Z" fill="#000000" fill-rule="evenodd" fill-opacity="1" /><path clip-path="url(#clip320)" d="M 0 0 M120.88 759.384 L137.2 759.384 L137.2 763.319 L115.256 763.319 L115.256 759.384 Q117.918 756.629 122.501 752 Q127.107 747.347 128.288 746.004 Q130.533 743.481 131.413 741.745 Q132.316 739.986 132.316 738.296 Q132.316 735.541 130.371 733.805 Q128.45 732.069 125.348 732.069 Q123.149 732.069 120.695 732.833 Q118.265 733.597 115.487 735.148 L115.487 730.426 Q118.311 729.291 120.765 728.713 Q123.218 728.134 125.255 728.134 Q130.626 728.134 133.82 730.819 Q137.015 733.504 137.015 737.995 Q137.015 740.125 136.204 742.046 Q135.417 743.944 133.311 746.537 Q132.732 747.208 129.63 750.426 Q126.529 753.62 120.88 759.384 Z" fill="#000000" fill-rule="evenodd" fill-opacity="1" /><path clip-path="url(#clip320)" d="M 0 0 M155.116 732.833 L143.311 751.282 L155.116 751.282 L155.116 732.833 M153.89 728.759 L159.769 728.759 L159.769 751.282 L164.7 751.282 L164.7 755.171 L159.769 755.171 L159.769 763.319 L155.116 763.319 L155.116 755.171 L139.515 755.171 L139.515 750.657 L153.89 728.759 Z" fill="#000000" fill-rule="evenodd" fill-opacity="1" /><path clip-path="url(#clip320)" d="M 0 0 M169.769 757.439 L174.653 757.439 L174.653 763.319 L169.769 763.319 L169.769 757.439 Z" fill="#000000" fill-rule="evenodd" fill-opacity="1" /><path clip-path="url(#clip320)" d="M 0 0 M179.769 728.759 L198.125 728.759 L198.125 732.694 L184.051 732.694 L184.051 741.166 Q185.07 740.819 186.088 740.657 Q187.107 740.472 188.126 740.472 Q193.913 740.472 197.292 743.643 Q200.672 746.815 200.672 752.231 Q200.672 757.81 197.2 760.912 Q193.727 763.99 187.408 763.99 Q185.232 763.99 182.963 763.62 Q180.718 763.25 178.311 762.509 L178.311 757.81 Q180.394 758.944 182.616 759.5 Q184.838 760.055 187.315 760.055 Q191.32 760.055 193.658 757.949 Q195.996 755.842 195.996 752.231 Q195.996 748.62 193.658 746.514 Q191.32 744.407 187.315 744.407 Q185.44 744.407 183.565 744.824 Q181.713 745.24 179.769 746.12 L179.769 728.759 Z" fill="#000000" fill-rule="evenodd" fill-opacity="1" /><path clip-path="url(#clip320)" d="M 0 0 M121.367 445.984 L137.686 445.984 L137.686 449.919 L115.742 449.919 L115.742 445.984 Q118.404 443.23 122.987 438.6 Q127.593 433.947 128.774 432.605 Q131.019 430.082 131.899 428.345 Q132.802 426.586 132.802 424.896 Q132.802 422.142 130.857 420.406 Q128.936 418.67 125.834 418.67 Q123.635 418.67 121.181 419.433 Q118.751 420.197 115.973 421.748 L115.973 417.026 Q118.797 415.892 121.251 415.313 Q123.705 414.734 125.742 414.734 Q131.112 414.734 134.306 417.42 Q137.501 420.105 137.501 424.595 Q137.501 426.725 136.691 428.646 Q135.904 430.545 133.797 433.137 Q133.218 433.808 130.117 437.026 Q127.015 440.22 121.367 445.984 Z" fill="#000000" fill-rule="evenodd" fill-opacity="1" /><path clip-path="url(#clip320)" d="M 0 0 M142.802 415.359 L161.158 415.359 L161.158 419.295 L147.084 419.295 L147.084 427.767 Q148.103 427.42 149.121 427.258 Q150.14 427.072 151.158 427.072 Q156.945 427.072 160.325 430.244 Q163.704 433.415 163.704 438.832 Q163.704 444.41 160.232 447.512 Q156.76 450.591 150.441 450.591 Q148.265 450.591 145.996 450.22 Q143.751 449.85 141.343 449.109 L141.343 444.41 Q143.427 445.544 145.649 446.1 Q147.871 446.656 150.348 446.656 Q154.353 446.656 156.69 444.549 Q159.028 442.443 159.028 438.832 Q159.028 435.22 156.69 433.114 Q154.353 431.007 150.348 431.007 Q148.473 431.007 146.598 431.424 Q144.746 431.841 142.802 432.72 L142.802 415.359 Z" fill="#000000" fill-rule="evenodd" fill-opacity="1" /><path clip-path="url(#clip320)" d="M 0 0 M168.774 444.04 L173.658 444.04 L173.658 449.919 L168.774 449.919 L168.774 444.04 Z" fill="#000000" fill-rule="evenodd" fill-opacity="1" /><path clip-path="url(#clip320)" d="M 0 0 M188.727 418.438 Q185.116 418.438 183.288 422.003 Q181.482 425.545 181.482 432.674 Q181.482 439.781 183.288 443.345 Q185.116 446.887 188.727 446.887 Q192.362 446.887 194.167 443.345 Q195.996 439.781 195.996 432.674 Q195.996 425.545 194.167 422.003 Q192.362 418.438 188.727 418.438 M188.727 414.734 Q194.538 414.734 197.593 419.341 Q200.672 423.924 200.672 432.674 Q200.672 441.401 197.593 446.007 Q194.538 450.591 188.727 450.591 Q182.917 450.591 179.839 446.007 Q176.783 441.401 176.783 432.674 Q176.783 423.924 179.839 419.341 Q182.917 414.734 188.727 414.734 Z" fill="#000000" fill-rule="evenodd" fill-opacity="1" /><path clip-path="url(#clip320)" d="M 0 0 M122.362 132.585 L138.681 132.585 L138.681 136.52 L116.737 136.52 L116.737 132.585 Q119.399 129.83 123.982 125.2 Q128.589 120.548 129.769 119.205 Q132.015 116.682 132.894 114.946 Q133.797 113.187 133.797 111.497 Q133.797 108.742 131.853 107.006 Q129.931 105.27 126.83 105.27 Q124.63 105.27 122.177 106.034 Q119.746 106.798 116.968 108.349 L116.968 103.626 Q119.793 102.492 122.246 101.914 Q124.7 101.335 126.737 101.335 Q132.107 101.335 135.302 104.02 Q138.496 106.705 138.496 111.196 Q138.496 113.325 137.686 115.247 Q136.899 117.145 134.792 119.737 Q134.214 120.409 131.112 123.626 Q128.01 126.821 122.362 132.585 Z" fill="#000000" fill-rule="evenodd" fill-opacity="1" /><path clip-path="url(#clip320)" d="M 0 0 M143.797 101.96 L162.153 101.96 L162.153 105.895 L148.079 105.895 L148.079 114.367 Q149.098 114.02 150.116 113.858 Q151.135 113.673 152.153 113.673 Q157.94 113.673 161.32 116.844 Q164.7 120.015 164.7 125.432 Q164.7 131.011 161.227 134.112 Q157.755 137.191 151.436 137.191 Q149.26 137.191 146.991 136.821 Q144.746 136.45 142.339 135.71 L142.339 131.011 Q144.422 132.145 146.644 132.7 Q148.866 133.256 151.343 133.256 Q155.348 133.256 157.686 131.149 Q160.024 129.043 160.024 125.432 Q160.024 121.821 157.686 119.714 Q155.348 117.608 151.343 117.608 Q149.468 117.608 147.593 118.025 Q145.741 118.441 143.797 119.321 L143.797 101.96 Z" fill="#000000" fill-rule="evenodd" fill-opacity="1" /><path clip-path="url(#clip320)" d="M 0 0 M169.769 130.64 L174.653 130.64 L174.653 136.52 L169.769 136.52 L169.769 130.64 Z" fill="#000000" fill-rule="evenodd" fill-opacity="1" /><path clip-path="url(#clip320)" d="M 0 0 M179.769 101.96 L198.125 101.96 L198.125 105.895 L184.051 105.895 L184.051 114.367 Q185.07 114.02 186.088 113.858 Q187.107 113.673 188.126 113.673 Q193.913 113.673 197.292 116.844 Q200.672 120.015 200.672 125.432 Q200.672 131.011 197.2 134.112 Q193.727 137.191 187.408 137.191 Q185.232 137.191 182.963 136.821 Q180.718 136.45 178.311 135.71 L178.311 131.011 Q180.394 132.145 182.616 132.7 Q184.838 133.256 187.315 133.256 Q191.32 133.256 193.658 131.149 Q195.996 129.043 195.996 125.432 Q195.996 121.821 193.658 119.714 Q191.32 117.608 187.315 117.608 Q185.44 117.608 183.565 118.025 Q181.713 118.441 179.769 119.321 L179.769 101.96 Z" fill="#000000" fill-rule="evenodd" fill-opacity="1" /><path clip-path="url(#clip320)" d="M 0 0 M59.1993 815.533 Q55.2526 813.336 53.3747 810.281 Q51.4968 807.225 51.4968 803.088 Q51.4968 797.518 55.4117 794.494 Q59.2948 791.47 66.4881 791.47 L88.0042 791.47 L88.0042 797.358 L66.679 797.358 Q61.5546 797.358 59.072 799.173 Q56.5894 800.987 56.5894 804.711 Q56.5894 809.262 59.6131 811.904 Q62.6368 814.546 67.8567 814.546 L88.0042 814.546 L88.0042 820.434 L66.679 820.434 Q61.5228 820.434 59.072 822.248 Q56.5894 824.063 56.5894 827.85 Q56.5894 832.338 59.6449 834.98 Q62.6686 837.622 67.8567 837.622 L88.0042 837.622 L88.0042 843.51 L52.3562 843.51 L52.3562 837.622 L57.8944 837.622 Q54.616 835.616 53.0564 832.815 Q51.4968 830.015 51.4968 826.163 Q51.4968 822.28 53.4702 819.575 Q55.4436 816.838 59.1993 815.533 Z" fill="#000000" fill-rule="evenodd" fill-opacity="1" /><path clip-path="url(#clip320)" d="M 0 0 M52.3562 785.327 L52.3562 779.471 L88.0042 779.471 L88.0042 785.327 L52.3562 785.327 M38.479 785.327 L38.479 779.471 L45.895 779.471 L45.895 785.327 L38.479 785.327 Z" fill="#000000" fill-rule="evenodd" fill-opacity="1" /><path clip-path="url(#clip320)" d="M 0 0 M66.4881 743.696 L88.0042 743.696 L88.0042 749.552 L66.679 749.552 Q61.6183 749.552 59.1038 751.525 Q56.5894 753.499 56.5894 757.446 Q56.5894 762.188 59.6131 764.925 Q62.6368 767.662 67.8567 767.662 L88.0042 767.662 L88.0042 773.551 L52.3562 773.551 L52.3562 767.662 L57.8944 767.662 Q54.6797 765.562 53.0883 762.729 Q51.4968 759.864 51.4968 756.141 Q51.4968 749.998 55.3163 746.847 Q59.1038 743.696 66.4881 743.696 Z" fill="#000000" fill-rule="evenodd" fill-opacity="1" /><path clip-path="url(#clip320)" d="M 0 0 M98.8259 710.467 L103.377 710.467 L103.377 744.332 L98.8259 744.332 L98.8259 710.467 Z" fill="#000000" fill-rule="evenodd" fill-opacity="1" /><path clip-path="url(#clip320)" d="M 0 0 M57.7671 680.866 L38.479 680.866 L38.479 675.01 L88.0042 675.01 L88.0042 680.866 L82.657 680.866 Q85.8398 682.712 87.3994 685.545 Q88.9272 688.346 88.9272 692.292 Q88.9272 698.754 83.771 702.828 Q78.6147 706.87 70.212 706.87 Q61.8093 706.87 56.6531 702.828 Q51.4968 698.754 51.4968 692.292 Q51.4968 688.346 53.0564 685.545 Q54.5842 682.712 57.7671 680.866 M70.212 700.823 Q76.6732 700.823 80.3653 698.181 Q84.0256 695.507 84.0256 690.86 Q84.0256 686.213 80.3653 683.54 Q76.6732 680.866 70.212 680.866 Q63.7508 680.866 60.0905 683.54 Q56.3984 686.213 56.3984 690.86 Q56.3984 695.507 60.0905 698.181 Q63.7508 700.823 70.212 700.823 Z" fill="#000000" fill-rule="evenodd" fill-opacity="1" /><path clip-path="url(#clip320)" d="M 0 0 M52.3562 668.867 L52.3562 663.01 L88.0042 663.01 L88.0042 668.867 L52.3562 668.867 M38.479 668.867 L38.479 663.01 L45.895 663.01 L45.895 668.867 L38.479 668.867 Z" fill="#000000" fill-rule="evenodd" fill-opacity="1" /><path clip-path="url(#clip320)" d="M 0 0 M38.479 638.821 L43.3487 638.821 L43.3487 644.422 Q43.3487 647.573 44.6219 648.815 Q45.895 650.024 49.2052 650.024 L52.3562 650.024 L52.3562 640.38 L56.9077 640.38 L56.9077 650.024 L88.0042 650.024 L88.0042 655.912 L56.9077 655.912 L56.9077 661.514 L52.3562 661.514 L52.3562 655.912 L49.8736 655.912 Q43.9216 655.912 41.2162 653.143 Q38.479 650.374 38.479 644.359 L38.479 638.821 Z" fill="#000000" fill-rule="evenodd" fill-opacity="1" /><path clip-path="url(#clip320)" d="M 0 0 M38.479 614.631 L43.3487 614.631 L43.3487 620.233 Q43.3487 623.384 44.6219 624.625 Q45.895 625.835 49.2052 625.835 L52.3562 625.835 L52.3562 616.19 L56.9077 616.19 L56.9077 625.835 L88.0042 625.835 L88.0042 631.723 L56.9077 631.723 L56.9077 637.325 L52.3562 637.325 L52.3562 631.723 L49.8736 631.723 Q43.9216 631.723 41.2162 628.954 Q38.479 626.185 38.479 620.169 L38.479 614.631 Z" fill="#000000" fill-rule="evenodd" fill-opacity="1" /><polyline clip-path="url(#clip322)" style="stroke:#009af9; stroke-width:20; stroke-opacity:1; fill:none" stroke-dasharray="80, 50" points="
  296.561,1372.3 1294.71,85.838 2292.87,1140.34 
  "/>
<path clip-path="url(#clip320)" d="
M1996.08 213.659 L2282.22 213.659 L2282.22 92.6992 L1996.08 92.6992  Z
  " fill="#ffffff" fill-rule="evenodd" fill-opacity="1"/>
<polyline clip-path="url(#clip320)" style="stroke:#000000; stroke-width:4; stroke-opacity:1; fill:none" points="
  1996.08,213.659 2282.22,213.659 2282.22,92.6992 1996.08,92.6992 1996.08,213.659 
  "/>
<polyline clip-path="url(#clip320)" style="stroke:#009af9; stroke-width:4; stroke-opacity:1; fill:none" stroke-dasharray="16, 10" points="
  2019.59,153.179 2160.67,153.179 
  "/>
<path clip-path="url(#clip320)" d="M 0 0 M2198.02 172.867 Q2196.21 177.496 2194.5 178.908 Q2192.79 180.32 2189.92 180.32 L2186.52 180.32 L2186.52 176.755 L2189.02 176.755 Q2190.77 176.755 2191.75 175.922 Q2192.72 175.089 2193.9 171.987 L2194.66 170.043 L2184.18 144.533 L2188.69 144.533 L2196.79 164.811 L2204.89 144.533 L2209.41 144.533 L2198.02 172.867 Z" fill="#000000" fill-rule="evenodd" fill-opacity="1" /><path clip-path="url(#clip320)" d="M 0 0 M2215.29 166.524 L2222.93 166.524 L2222.93 140.158 L2214.62 141.825 L2214.62 137.566 L2222.88 135.899 L2227.56 135.899 L2227.56 166.524 L2235.2 166.524 L2235.2 170.459 L2215.29 170.459 L2215.29 166.524 Z" fill="#000000" fill-rule="evenodd" fill-opacity="1" /></svg>
