<?xml version="1.0" encoding="utf-8"?>
<svg xmlns="http://www.w3.org/2000/svg" xmlns:xlink="http://www.w3.org/1999/xlink" width="600" height="400" viewBox="0 0 2400 1600">
<defs>
  <clipPath id="clip110">
    <rect x="0" y="0" width="2400" height="1600"/>
  </clipPath>
</defs>
<path clip-path="url(#clip110)" d="
M0 1600 L2400 1600 L2400 0 L0 0  Z
  " fill="#ffffff" fill-rule="evenodd" fill-opacity="1"/>
<defs>
  <clipPath id="clip111">
    <rect x="480" y="0" width="1681" height="1600"/>
  </clipPath>
</defs>
<path clip-path="url(#clip110)" d="
M200.028 1410.9 L2352.76 1410.9 L2352.76 47.2441 L200.028 47.2441  Z
  " fill="#ffffff" fill-rule="evenodd" fill-opacity="1"/>
<defs>
  <clipPath id="clip112">
    <rect x="200" y="47" width="2154" height="1365"/>
  </clipPath>
</defs>
<polyline clip-path="url(#clip112)" style="stroke:#000000; stroke-width:2; stroke-opacity:0.1; fill:none" points="
  464.042,1410.9 464.042,47.2441 
  "/>
<polyline clip-path="url(#clip112)" style="stroke:#000000; stroke-width:2; stroke-opacity:0.1; fill:none" points="
  870.217,1410.9 870.217,47.2441 
  "/>
<polyline clip-path="url(#clip112)" style="stroke:#000000; stroke-width:2; stroke-opacity:0.1; fill:none" points="
  1276.39,1410.9 1276.39,47.2441 
  "/>
<polyline clip-path="url(#clip112)" style="stroke:#000000; stroke-width:2; stroke-opacity:0.1; fill:none" points="
  1682.57,1410.9 1682.57,47.2441 
  "/>
<polyline clip-path="url(#clip112)" style="stroke:#000000; stroke-width:2; stroke-opacity:0.1; fill:none" points="
  2088.74,1410.9 2088.74,47.2441 
  "/>
<polyline clip-path="url(#clip110)" style="stroke:#000000; stroke-width:4; stroke-opacity:1; fill:none" points="
  200.028,1410.9 2352.76,1410.9 
  "/>
<polyline clip-path="url(#clip110)" style="stroke:#000000; stroke-width:4; stroke-opacity:1; fill:none" points="
  464.042,1410.9 464.042,1394.53 
  "/>
<polyline clip-path="url(#clip110)" style="stroke:#000000; stroke-width:4; stroke-opacity:1; fill:none" points="
  870.217,1410.9 870.217,1394.53 
  "/>
<polyline clip-path="url(#clip110)" style="stroke:#000000; stroke-width:4; stroke-opacity:1; fill:none" points="
  1276.39,1410.9 1276.39,1394.53 
  "/>
<polyline clip-path="url(#clip110)" style="stroke:#000000; stroke-width:4; stroke-opacity:1; fill:none" points="
  1682.57,1410.9 1682.57,1394.53 
  "/>
<polyline clip-path="url(#clip110)" style="stroke:#000000; stroke-width:4; stroke-opacity:1; fill:none" points="
  2088.74,1410.9 2088.74,1394.53 
  "/>
<path clip-path="url(#clip110)" d="M 0 0 M403.038 1489.17 L410.677 1489.17 L410.677 1462.8 L402.367 1464.47 L402.367 1460.21 L410.631 1458.54 L415.307 1458.54 L415.307 1489.17 L422.946 1489.17 L422.946 1493.1 L403.038 1493.1 L403.038 1489.17 Z" fill="#000000" fill-rule="evenodd" fill-opacity="1" /><path clip-path="url(#clip110)" d="M 0 0 M438.015 1461.62 Q434.404 1461.62 432.575 1465.19 Q430.77 1468.73 430.77 1475.86 Q430.77 1482.97 432.575 1486.53 Q434.404 1490.07 438.015 1490.07 Q441.649 1490.07 443.455 1486.53 Q445.284 1482.97 445.284 1475.86 Q445.284 1468.73 443.455 1465.19 Q441.649 1461.62 438.015 1461.62 M438.015 1457.92 Q443.825 1457.92 446.881 1462.53 Q449.959 1467.11 449.959 1475.86 Q449.959 1484.59 446.881 1489.19 Q443.825 1493.78 438.015 1493.78 Q432.205 1493.78 429.126 1489.19 Q426.071 1484.59 426.071 1475.86 Q426.071 1467.11 429.126 1462.53 Q432.205 1457.92 438.015 1457.92 Z" fill="#000000" fill-rule="evenodd" fill-opacity="1" /><path clip-path="url(#clip110)" d="M 0 0 M449.959 1452.02 L474.071 1452.02 L474.071 1455.22 L449.959 1455.22 L449.959 1452.02 Z" fill="#000000" fill-rule="evenodd" fill-opacity="1" /><path clip-path="url(#clip110)" d="M 0 0 M488.628 1440.92 L479.036 1455.91 L488.628 1455.91 L488.628 1440.92 M487.631 1437.61 L492.409 1437.61 L492.409 1455.91 L496.415 1455.91 L496.415 1459.07 L492.409 1459.07 L492.409 1465.69 L488.628 1465.69 L488.628 1459.07 L475.952 1459.07 L475.952 1455.41 L487.631 1437.61 Z" fill="#000000" fill-rule="evenodd" fill-opacity="1" /><path clip-path="url(#clip110)" d="M 0 0 M500.534 1460.92 L504.502 1460.92 L504.502 1465.69 L500.534 1465.69 L500.534 1460.92 Z" fill="#000000" fill-rule="evenodd" fill-opacity="1" /><path clip-path="url(#clip110)" d="M 0 0 M507.662 1437.61 L525.717 1437.61 L525.717 1439.23 L515.523 1465.69 L511.555 1465.69 L521.147 1440.81 L507.662 1440.81 L507.662 1437.61 Z" fill="#000000" fill-rule="evenodd" fill-opacity="1" /><path clip-path="url(#clip110)" d="M 0 0 M808.781 1489.17 L816.42 1489.17 L816.42 1462.8 L808.11 1464.47 L808.11 1460.21 L816.373 1458.54 L821.049 1458.54 L821.049 1489.17 L828.688 1489.17 L828.688 1493.1 L808.781 1493.1 L808.781 1489.17 Z" fill="#000000" fill-rule="evenodd" fill-opacity="1" /><path clip-path="url(#clip110)" d="M 0 0 M843.758 1461.62 Q840.146 1461.62 838.318 1465.19 Q836.512 1468.73 836.512 1475.86 Q836.512 1482.97 838.318 1486.53 Q840.146 1490.07 843.758 1490.07 Q847.392 1490.07 849.197 1486.53 Q851.026 1482.97 851.026 1475.86 Q851.026 1468.73 849.197 1465.19 Q847.392 1461.62 843.758 1461.62 M843.758 1457.92 Q849.568 1457.92 852.623 1462.53 Q855.702 1467.11 855.702 1475.86 Q855.702 1484.59 852.623 1489.19 Q849.568 1493.78 843.758 1493.78 Q837.947 1493.78 834.869 1489.19 Q831.813 1484.59 831.813 1475.86 Q831.813 1467.11 834.869 1462.53 Q837.947 1457.92 843.758 1457.92 Z" fill="#000000" fill-rule="evenodd" fill-opacity="1" /><path clip-path="url(#clip110)" d="M 0 0 M855.702 1452.02 L879.813 1452.02 L879.813 1455.22 L855.702 1455.22 L855.702 1452.02 Z" fill="#000000" fill-rule="evenodd" fill-opacity="1" /><path clip-path="url(#clip110)" d="M 0 0 M894.371 1440.92 L884.779 1455.91 L894.371 1455.91 L894.371 1440.92 M893.374 1437.61 L898.151 1437.61 L898.151 1455.91 L902.157 1455.91 L902.157 1459.07 L898.151 1459.07 L898.151 1465.69 L894.371 1465.69 L894.371 1459.07 L881.694 1459.07 L881.694 1455.41 L893.374 1437.61 Z" fill="#000000" fill-rule="evenodd" fill-opacity="1" /><path clip-path="url(#clip110)" d="M 0 0 M906.276 1460.92 L910.244 1460.92 L910.244 1465.69 L906.276 1465.69 L906.276 1460.92 Z" fill="#000000" fill-rule="evenodd" fill-opacity="1" /><path clip-path="url(#clip110)" d="M 0 0 M922.958 1450.14 Q920.401 1450.14 918.896 1451.89 Q917.41 1453.64 917.41 1456.68 Q917.41 1459.71 918.896 1461.48 Q920.401 1463.23 922.958 1463.23 Q925.516 1463.23 927.002 1461.48 Q928.507 1459.71 928.507 1456.68 Q928.507 1453.64 927.002 1451.89 Q925.516 1450.14 922.958 1450.14 M930.5 1438.23 L930.5 1441.69 Q929.071 1441.02 927.604 1440.66 Q926.156 1440.3 924.726 1440.3 Q920.965 1440.3 918.971 1442.84 Q916.996 1445.38 916.714 1450.52 Q917.824 1448.88 919.498 1448.01 Q921.172 1447.13 923.184 1447.13 Q927.416 1447.13 929.861 1449.71 Q932.325 1452.26 932.325 1456.68 Q932.325 1461.01 929.767 1463.62 Q927.209 1466.24 922.958 1466.24 Q918.087 1466.24 915.511 1462.51 Q912.934 1458.77 912.934 1451.68 Q912.934 1445.02 916.094 1441.07 Q919.253 1437.11 924.576 1437.11 Q926.005 1437.11 927.454 1437.39 Q928.921 1437.67 930.5 1438.23 Z" fill="#000000" fill-rule="evenodd" fill-opacity="1" /><path clip-path="url(#clip110)" d="M 0 0 M1215.43 1489.17 L1223.06 1489.17 L1223.06 1462.8 L1214.75 1464.47 L1214.75 1460.21 L1223.02 1458.54 L1227.69 1458.54 L1227.69 1489.17 L1235.33 1489.17 L1235.33 1493.1 L1215.43 1493.1 L1215.43 1489.17 Z" fill="#000000" fill-rule="evenodd" fill-opacity="1" /><path clip-path="url(#clip110)" d="M 0 0 M1250.4 1461.62 Q1246.79 1461.62 1244.96 1465.19 Q1243.16 1468.73 1243.16 1475.86 Q1243.16 1482.97 1244.96 1486.53 Q1246.79 1490.07 1250.4 1490.07 Q1254.04 1490.07 1255.84 1486.53 Q1257.67 1482.97 1257.67 1475.86 Q1257.67 1468.73 1255.84 1465.19 Q1254.04 1461.62 1250.4 1461.62 M1250.4 1457.92 Q1256.21 1457.92 1259.27 1462.53 Q1262.35 1467.11 1262.35 1475.86 Q1262.35 1484.59 1259.27 1489.19 Q1256.21 1493.78 1250.4 1493.78 Q1244.59 1493.78 1241.51 1489.19 Q1238.46 1484.59 1238.46 1475.86 Q1238.46 1467.11 1241.51 1462.53 Q1244.59 1457.92 1250.4 1457.92 Z" fill="#000000" fill-rule="evenodd" fill-opacity="1" /><path clip-path="url(#clip110)" d="M 0 0 M1262.35 1452.02 L1286.46 1452.02 L1286.46 1455.22 L1262.35 1455.22 L1262.35 1452.02 Z" fill="#000000" fill-rule="evenodd" fill-opacity="1" /><path clip-path="url(#clip110)" d="M 0 0 M1301.02 1440.92 L1291.42 1455.91 L1301.02 1455.91 L1301.02 1440.92 M1300.02 1437.61 L1304.8 1437.61 L1304.8 1455.91 L1308.8 1455.91 L1308.8 1459.07 L1304.8 1459.07 L1304.8 1465.69 L1301.02 1465.69 L1301.02 1459.07 L1288.34 1459.07 L1288.34 1455.41 L1300.02 1437.61 Z" fill="#000000" fill-rule="evenodd" fill-opacity="1" /><path clip-path="url(#clip110)" d="M 0 0 M1312.92 1460.92 L1316.89 1460.92 L1316.89 1465.69 L1312.92 1465.69 L1312.92 1460.92 Z" fill="#000000" fill-rule="evenodd" fill-opacity="1" /><path clip-path="url(#clip110)" d="M 0 0 M1321.05 1437.61 L1335.96 1437.61 L1335.96 1440.81 L1324.53 1440.81 L1324.53 1447.69 Q1325.35 1447.41 1326.18 1447.28 Q1327.01 1447.13 1327.84 1447.13 Q1332.54 1447.13 1335.28 1449.71 Q1338.03 1452.28 1338.03 1456.68 Q1338.03 1461.22 1335.21 1463.74 Q1332.39 1466.24 1327.25 1466.24 Q1325.48 1466.24 1323.64 1465.94 Q1321.82 1465.64 1319.86 1465.04 L1319.86 1461.22 Q1321.55 1462.14 1323.36 1462.59 Q1325.17 1463.04 1327.18 1463.04 Q1330.43 1463.04 1332.33 1461.33 Q1334.23 1459.62 1334.23 1456.68 Q1334.23 1453.75 1332.33 1452.04 Q1330.43 1450.33 1327.18 1450.33 Q1325.65 1450.33 1324.13 1450.67 Q1322.63 1451 1321.05 1451.72 L1321.05 1437.61 Z" fill="#000000" fill-rule="evenodd" fill-opacity="1" /><path clip-path="url(#clip110)" d="M 0 0 M1621 1489.17 L1628.64 1489.17 L1628.64 1462.8 L1620.33 1464.47 L1620.33 1460.21 L1628.59 1458.54 L1633.27 1458.54 L1633.27 1489.17 L1640.91 1489.17 L1640.91 1493.1 L1621 1493.1 L1621 1489.17 Z" fill="#000000" fill-rule="evenodd" fill-opacity="1" /><path clip-path="url(#clip110)" d="M 0 0 M1655.98 1461.62 Q1652.36 1461.62 1650.54 1465.19 Q1648.73 1468.73 1648.73 1475.86 Q1648.73 1482.97 1650.54 1486.53 Q1652.36 1490.07 1655.98 1490.07 Q1659.61 1490.07 1661.42 1486.53 Q1663.24 1482.97 1663.24 1475.86 Q1663.24 1468.73 1661.42 1465.19 Q1659.61 1461.62 1655.98 1461.62 M1655.98 1457.92 Q1661.79 1457.92 1664.84 1462.53 Q1667.92 1467.11 1667.92 1475.86 Q1667.92 1484.59 1664.84 1489.19 Q1661.79 1493.78 1655.98 1493.78 Q1650.17 1493.78 1647.09 1489.19 Q1644.03 1484.59 1644.03 1475.86 Q1644.03 1467.11 1647.09 1462.53 Q1650.17 1457.92 1655.98 1457.92 Z" fill="#000000" fill-rule="evenodd" fill-opacity="1" /><path clip-path="url(#clip110)" d="M 0 0 M1667.92 1452.02 L1692.03 1452.02 L1692.03 1455.22 L1667.92 1455.22 L1667.92 1452.02 Z" fill="#000000" fill-rule="evenodd" fill-opacity="1" /><path clip-path="url(#clip110)" d="M 0 0 M1706.59 1440.92 L1697 1455.91 L1706.59 1455.91 L1706.59 1440.92 M1705.59 1437.61 L1710.37 1437.61 L1710.37 1455.91 L1714.38 1455.91 L1714.38 1459.07 L1710.37 1459.07 L1710.37 1465.69 L1706.59 1465.69 L1706.59 1459.07 L1693.91 1459.07 L1693.91 1455.41 L1705.59 1437.61 Z" fill="#000000" fill-rule="evenodd" fill-opacity="1" /><path clip-path="url(#clip110)" d="M 0 0 M1718.49 1460.92 L1722.46 1460.92 L1722.46 1465.69 L1718.49 1465.69 L1718.49 1460.92 Z" fill="#000000" fill-rule="evenodd" fill-opacity="1" /><path clip-path="url(#clip110)" d="M 0 0 M1737.02 1440.92 L1727.43 1455.91 L1737.02 1455.91 L1737.02 1440.92 M1736.02 1437.61 L1740.8 1437.61 L1740.8 1455.91 L1744.81 1455.91 L1744.81 1459.07 L1740.8 1459.07 L1740.8 1465.69 L1737.02 1465.69 L1737.02 1459.07 L1724.34 1459.07 L1724.34 1455.41 L1736.02 1437.61 Z" fill="#000000" fill-rule="evenodd" fill-opacity="1" /><path clip-path="url(#clip110)" d="M 0 0 M2027.63 1489.17 L2035.27 1489.17 L2035.27 1462.8 L2026.96 1464.47 L2026.96 1460.21 L2035.23 1458.54 L2039.9 1458.54 L2039.9 1489.17 L2047.54 1489.17 L2047.54 1493.1 L2027.63 1493.1 L2027.63 1489.17 Z" fill="#000000" fill-rule="evenodd" fill-opacity="1" /><path clip-path="url(#clip110)" d="M 0 0 M2062.61 1461.62 Q2059 1461.62 2057.17 1465.19 Q2055.37 1468.73 2055.37 1475.86 Q2055.37 1482.97 2057.17 1486.53 Q2059 1490.07 2062.61 1490.07 Q2066.25 1490.07 2068.05 1486.53 Q2069.88 1482.97 2069.88 1475.86 Q2069.88 1468.73 2068.05 1465.19 Q2066.25 1461.62 2062.61 1461.62 M2062.61 1457.92 Q2068.42 1457.92 2071.48 1462.53 Q2074.56 1467.11 2074.56 1475.86 Q2074.56 1484.59 2071.48 1489.19 Q2068.42 1493.78 2062.61 1493.78 Q2056.8 1493.78 2053.72 1489.19 Q2050.67 1484.59 2050.67 1475.86 Q2050.67 1467.11 2053.72 1462.53 Q2056.8 1457.92 2062.61 1457.92 Z" fill="#000000" fill-rule="evenodd" fill-opacity="1" /><path clip-path="url(#clip110)" d="M 0 0 M2074.56 1452.02 L2098.67 1452.02 L2098.67 1455.22 L2074.56 1455.22 L2074.56 1452.02 Z" fill="#000000" fill-rule="evenodd" fill-opacity="1" /><path clip-path="url(#clip110)" d="M 0 0 M2113.22 1440.92 L2103.63 1455.91 L2113.22 1455.91 L2113.22 1440.92 M2112.23 1437.61 L2117.01 1437.61 L2117.01 1455.91 L2121.01 1455.91 L2121.01 1459.07 L2117.01 1459.07 L2117.01 1465.69 L2113.22 1465.69 L2113.22 1459.07 L2100.55 1459.07 L2100.55 1455.41 L2112.23 1437.61 Z" fill="#000000" fill-rule="evenodd" fill-opacity="1" /><path clip-path="url(#clip110)" d="M 0 0 M2125.13 1460.92 L2129.1 1460.92 L2129.1 1465.69 L2125.13 1465.69 L2125.13 1460.92 Z" fill="#000000" fill-rule="evenodd" fill-opacity="1" /><path clip-path="url(#clip110)" d="M 0 0 M2144.73 1450.55 Q2147.45 1451.14 2148.98 1452.98 Q2150.52 1454.82 2150.52 1457.53 Q2150.52 1461.69 2147.66 1463.96 Q2144.8 1466.24 2139.54 1466.24 Q2137.77 1466.24 2135.89 1465.88 Q2134.03 1465.54 2132.03 1464.85 L2132.03 1461.18 Q2133.61 1462.1 2135.49 1462.57 Q2137.37 1463.04 2139.42 1463.04 Q2143 1463.04 2144.86 1461.63 Q2146.74 1460.22 2146.74 1457.53 Q2146.74 1455.05 2144.99 1453.66 Q2143.26 1452.25 2140.16 1452.25 L2136.88 1452.25 L2136.88 1449.12 L2140.31 1449.12 Q2143.11 1449.12 2144.6 1448.01 Q2146.08 1446.89 2146.08 1444.78 Q2146.08 1442.62 2144.54 1441.47 Q2143.02 1440.3 2140.16 1440.3 Q2138.6 1440.3 2136.81 1440.64 Q2135.02 1440.98 2132.88 1441.69 L2132.88 1438.31 Q2135.04 1437.71 2136.92 1437.41 Q2138.82 1437.11 2140.5 1437.11 Q2144.82 1437.11 2147.34 1439.08 Q2149.86 1441.04 2149.86 1444.38 Q2149.86 1446.72 2148.53 1448.33 Q2147.19 1449.93 2144.73 1450.55 Z" fill="#000000" fill-rule="evenodd" fill-opacity="1" /><path clip-path="url(#clip110)" d="M 0 0 M1201.61 1512.66 L1207.5 1512.66 L1207.5 1541.91 L1224.97 1526.54 L1232.45 1526.54 L1213.55 1543.22 L1233.25 1562.19 L1225.61 1562.19 L1207.5 1544.78 L1207.5 1562.19 L1201.61 1562.19 L1201.61 1512.66 Z" fill="#000000" fill-rule="evenodd" fill-opacity="1" /><path clip-path="url(#clip110)" d="M 0 0 M1266.48 1573.01 L1266.48 1577.56 L1232.61 1577.56 L1232.61 1573.01 L1266.48 1573.01 Z" fill="#000000" fill-rule="evenodd" fill-opacity="1" /><path clip-path="url(#clip110)" d="M 0 0 M1286.43 1530.64 Q1281.72 1530.64 1278.99 1534.34 Q1276.25 1538 1276.25 1544.39 Q1276.25 1550.79 1278.95 1554.48 Q1281.69 1558.14 1286.43 1558.14 Q1291.11 1558.14 1293.85 1554.45 Q1296.59 1550.76 1296.59 1544.39 Q1296.59 1538.06 1293.85 1534.37 Q1291.11 1530.64 1286.43 1530.64 M1286.43 1525.68 Q1294.07 1525.68 1298.43 1530.64 Q1302.79 1535.61 1302.79 1544.39 Q1302.79 1553.15 1298.43 1558.14 Q1294.07 1563.11 1286.43 1563.11 Q1278.76 1563.11 1274.4 1558.14 Q1270.07 1553.15 1270.07 1544.39 Q1270.07 1535.61 1274.4 1530.64 Q1278.76 1525.68 1286.43 1525.68 Z" fill="#000000" fill-rule="evenodd" fill-opacity="1" /><path clip-path="url(#clip110)" d="M 0 0 M1326.98 1512.66 L1326.98 1517.53 L1321.38 1517.53 Q1318.23 1517.53 1316.99 1518.8 Q1315.78 1520.08 1315.78 1523.39 L1315.78 1526.54 L1325.42 1526.54 L1325.42 1531.09 L1315.78 1531.09 L1315.78 1562.19 L1309.89 1562.19 L1309.89 1531.09 L1304.29 1531.09 L1304.29 1526.54 L1309.89 1526.54 L1309.89 1524.05 Q1309.89 1518.1 1312.66 1515.4 Q1315.43 1512.66 1321.45 1512.66 L1326.98 1512.66 Z" fill="#000000" fill-rule="evenodd" fill-opacity="1" /><path clip-path="url(#clip110)" d="M 0 0 M1351.17 1512.66 L1351.17 1517.53 L1345.57 1517.53 Q1342.42 1517.53 1341.18 1518.8 Q1339.97 1520.08 1339.97 1523.39 L1339.97 1526.54 L1349.61 1526.54 L1349.61 1531.09 L1339.97 1531.09 L1339.97 1562.19 L1334.08 1562.19 L1334.08 1531.09 L1328.48 1531.09 L1328.48 1526.54 L1334.08 1526.54 L1334.08 1524.05 Q1334.08 1518.1 1336.85 1515.4 Q1339.62 1512.66 1345.64 1512.66 L1351.17 1512.66 Z" fill="#000000" fill-rule="evenodd" fill-opacity="1" /><polyline clip-path="url(#clip112)" style="stroke:#000000; stroke-width:2; stroke-opacity:0.1; fill:none" points="
  200.028,1294.68 2352.76,1294.68 
  "/>
<polyline clip-path="url(#clip112)" style="stroke:#000000; stroke-width:2; stroke-opacity:0.1; fill:none" points="
  200.028,1042 2352.76,1042 
  "/>
<polyline clip-path="url(#clip112)" style="stroke:#000000; stroke-width:2; stroke-opacity:0.1; fill:none" points="
  200.028,789.315 2352.76,789.315 
  "/>
<polyline clip-path="url(#clip112)" style="stroke:#000000; stroke-width:2; stroke-opacity:0.1; fill:none" points="
  200.028,536.633 2352.76,536.633 
  "/>
<polyline clip-path="url(#clip112)" style="stroke:#000000; stroke-width:2; stroke-opacity:0.1; fill:none" points="
  200.028,283.952 2352.76,283.952 
  "/>
<polyline clip-path="url(#clip110)" style="stroke:#000000; stroke-width:4; stroke-opacity:1; fill:none" points="
  200.028,1410.9 200.028,47.2441 
  "/>
<polyline clip-path="url(#clip110)" style="stroke:#000000; stroke-width:4; stroke-opacity:1; fill:none" points="
  200.028,1294.68 225.861,1294.68 
  "/>
<polyline clip-path="url(#clip110)" style="stroke:#000000; stroke-width:4; stroke-opacity:1; fill:none" points="
  200.028,1042 225.861,1042 
  "/>
<polyline clip-path="url(#clip110)" style="stroke:#000000; stroke-width:4; stroke-opacity:1; fill:none" points="
  200.028,789.315 225.861,789.315 
  "/>
<polyline clip-path="url(#clip110)" style="stroke:#000000; stroke-width:4; stroke-opacity:1; fill:none" points="
  200.028,536.633 225.861,536.633 
  "/>
<polyline clip-path="url(#clip110)" style="stroke:#000000; stroke-width:4; stroke-opacity:1; fill:none" points="
  200.028,283.952 225.861,283.952 
  "/>
<path clip-path="url(#clip110)" d="M 0 0 M121.598 1308.02 L137.917 1308.02 L137.917 1311.96 L115.973 1311.96 L115.973 1308.02 Q118.635 1305.27 123.218 1300.64 Q127.825 1295.99 129.005 1294.64 Q131.251 1292.12 132.13 1290.38 Q133.033 1288.62 133.033 1286.93 Q133.033 1284.18 131.089 1282.44 Q129.167 1280.71 126.066 1280.71 Q123.867 1280.71 121.413 1281.47 Q118.982 1282.24 116.205 1283.79 L116.205 1279.06 Q119.029 1277.93 121.482 1277.35 Q123.936 1276.77 125.973 1276.77 Q131.343 1276.77 134.538 1279.46 Q137.732 1282.14 137.732 1286.63 Q137.732 1288.76 136.922 1290.68 Q136.135 1292.58 134.029 1295.18 Q133.45 1295.85 130.348 1299.06 Q127.246 1302.26 121.598 1308.02 Z" fill="#000000" fill-rule="evenodd" fill-opacity="1" /><path clip-path="url(#clip110)" d="M 0 0 M141.806 1277.4 L164.028 1277.4 L164.028 1279.39 L151.482 1311.96 L146.598 1311.96 L158.403 1281.33 L141.806 1281.33 L141.806 1277.4 Z" fill="#000000" fill-rule="evenodd" fill-opacity="1" /><path clip-path="url(#clip110)" d="M 0 0 M120.788 1055.34 L137.107 1055.34 L137.107 1059.28 L115.163 1059.28 L115.163 1055.34 Q117.825 1052.59 122.408 1047.96 Q127.015 1043.3 128.195 1041.96 Q130.441 1039.44 131.32 1037.7 Q132.223 1035.94 132.223 1034.25 Q132.223 1031.5 130.279 1029.76 Q128.357 1028.03 125.255 1028.03 Q123.056 1028.03 120.603 1028.79 Q118.172 1029.55 115.394 1031.11 L115.394 1026.38 Q118.218 1025.25 120.672 1024.67 Q123.126 1024.09 125.163 1024.09 Q130.533 1024.09 133.728 1026.78 Q136.922 1029.46 136.922 1033.95 Q136.922 1036.08 136.112 1038 Q135.325 1039.9 133.218 1042.49 Q132.64 1043.17 129.538 1046.38 Q126.436 1049.58 120.788 1055.34 Z" fill="#000000" fill-rule="evenodd" fill-opacity="1" /><path clip-path="url(#clip110)" d="M 0 0 M152.177 1042.86 Q148.843 1042.86 146.922 1044.65 Q145.024 1046.43 145.024 1049.55 Q145.024 1052.68 146.922 1054.46 Q148.843 1056.24 152.177 1056.24 Q155.51 1056.24 157.431 1054.46 Q159.353 1052.66 159.353 1049.55 Q159.353 1046.43 157.431 1044.65 Q155.533 1042.86 152.177 1042.86 M147.501 1040.87 Q144.491 1040.13 142.802 1038.07 Q141.135 1036.01 141.135 1033.05 Q141.135 1028.91 144.075 1026.5 Q147.038 1024.09 152.177 1024.09 Q157.339 1024.09 160.278 1026.5 Q163.218 1028.91 163.218 1033.05 Q163.218 1036.01 161.528 1038.07 Q159.862 1040.13 156.876 1040.87 Q160.255 1041.66 162.13 1043.95 Q164.028 1046.24 164.028 1049.55 Q164.028 1054.58 160.95 1057.26 Q157.894 1059.95 152.177 1059.95 Q146.459 1059.95 143.38 1057.26 Q140.325 1054.58 140.325 1049.55 Q140.325 1046.24 142.223 1043.95 Q144.121 1041.66 147.501 1040.87 M145.788 1033.49 Q145.788 1036.17 147.454 1037.68 Q149.144 1039.18 152.177 1039.18 Q155.186 1039.18 156.876 1037.68 Q158.589 1036.17 158.589 1033.49 Q158.589 1030.8 156.876 1029.3 Q155.186 1027.79 152.177 1027.79 Q149.144 1027.79 147.454 1029.3 Q145.788 1030.8 145.788 1033.49 Z" fill="#000000" fill-rule="evenodd" fill-opacity="1" /><path clip-path="url(#clip110)" d="M 0 0 M120.88 802.66 L137.2 802.66 L137.2 806.595 L115.256 806.595 L115.256 802.66 Q117.918 799.905 122.501 795.275 Q127.107 790.623 128.288 789.28 Q130.533 786.757 131.413 785.021 Q132.316 783.262 132.316 781.572 Q132.316 778.817 130.371 777.081 Q128.45 775.345 125.348 775.345 Q123.149 775.345 120.695 776.109 Q118.265 776.873 115.487 778.424 L115.487 773.701 Q118.311 772.567 120.765 771.989 Q123.218 771.41 125.255 771.41 Q130.626 771.41 133.82 774.095 Q137.015 776.78 137.015 781.271 Q137.015 783.4 136.204 785.322 Q135.417 787.22 133.311 789.812 Q132.732 790.484 129.63 793.701 Q126.529 796.896 120.88 802.66 Z" fill="#000000" fill-rule="evenodd" fill-opacity="1" /><path clip-path="url(#clip110)" d="M 0 0 M142.408 805.877 L142.408 801.618 Q144.167 802.451 145.973 802.891 Q147.778 803.331 149.515 803.331 Q154.144 803.331 156.575 800.229 Q159.028 797.104 159.376 790.762 Q158.033 792.752 155.973 793.817 Q153.913 794.882 151.413 794.882 Q146.228 794.882 143.195 791.757 Q140.186 788.609 140.186 783.169 Q140.186 777.845 143.334 774.627 Q146.482 771.41 151.714 771.41 Q157.709 771.41 160.857 776.016 Q164.028 780.6 164.028 789.35 Q164.028 797.521 160.14 802.405 Q156.274 807.266 149.723 807.266 Q147.964 807.266 146.158 806.919 Q144.353 806.572 142.408 805.877 M151.714 791.225 Q154.862 791.225 156.69 789.072 Q158.542 786.919 158.542 783.169 Q158.542 779.442 156.69 777.289 Q154.862 775.113 151.714 775.113 Q148.566 775.113 146.714 777.289 Q144.885 779.442 144.885 783.169 Q144.885 786.919 146.714 789.072 Q148.566 791.225 151.714 791.225 Z" fill="#000000" fill-rule="evenodd" fill-opacity="1" /><path clip-path="url(#clip110)" d="M 0 0 M129.885 535.279 Q133.242 535.997 135.117 538.265 Q137.015 540.534 137.015 543.867 Q137.015 548.983 133.496 551.784 Q129.978 554.585 123.496 554.585 Q121.32 554.585 119.006 554.145 Q116.714 553.728 114.26 552.872 L114.26 548.358 Q116.205 549.492 118.519 550.071 Q120.834 550.649 123.357 550.649 Q127.755 550.649 130.047 548.913 Q132.362 547.177 132.362 543.867 Q132.362 540.812 130.209 539.099 Q128.08 537.363 124.26 537.363 L120.232 537.363 L120.232 533.52 L124.445 533.52 Q127.894 533.52 129.723 532.154 Q131.552 530.765 131.552 528.173 Q131.552 525.511 129.654 524.099 Q127.779 522.664 124.26 522.664 Q122.339 522.664 120.14 523.08 Q117.941 523.497 115.302 524.376 L115.302 520.21 Q117.964 519.469 120.279 519.099 Q122.617 518.728 124.677 518.728 Q130.001 518.728 133.103 521.159 Q136.204 523.566 136.204 527.687 Q136.204 530.557 134.561 532.548 Q132.917 534.515 129.885 535.279 Z" fill="#000000" fill-rule="evenodd" fill-opacity="1" /><path clip-path="url(#clip110)" d="M 0 0 M152.084 522.432 Q148.473 522.432 146.644 525.997 Q144.839 529.538 144.839 536.668 Q144.839 543.775 146.644 547.339 Q148.473 550.881 152.084 550.881 Q155.718 550.881 157.524 547.339 Q159.353 543.775 159.353 536.668 Q159.353 529.538 157.524 525.997 Q155.718 522.432 152.084 522.432 M152.084 518.728 Q157.894 518.728 160.95 523.335 Q164.028 527.918 164.028 536.668 Q164.028 545.395 160.95 550.001 Q157.894 554.585 152.084 554.585 Q146.274 554.585 143.195 550.001 Q140.14 545.395 140.14 536.668 Q140.14 527.918 143.195 523.335 Q146.274 518.728 152.084 518.728 Z" fill="#000000" fill-rule="evenodd" fill-opacity="1" /><path clip-path="url(#clip110)" d="M 0 0 M131.112 282.598 Q134.468 283.315 136.343 285.584 Q138.242 287.852 138.242 291.186 Q138.242 296.301 134.723 299.102 Q131.205 301.903 124.723 301.903 Q122.547 301.903 120.232 301.463 Q117.941 301.047 115.487 300.19 L115.487 295.676 Q117.431 296.811 119.746 297.389 Q122.061 297.968 124.584 297.968 Q128.982 297.968 131.274 296.232 Q133.589 294.496 133.589 291.186 Q133.589 288.13 131.436 286.417 Q129.306 284.681 125.487 284.681 L121.459 284.681 L121.459 280.839 L125.672 280.839 Q129.121 280.839 130.95 279.473 Q132.779 278.084 132.779 275.491 Q132.779 272.829 130.88 271.417 Q129.005 269.982 125.487 269.982 Q123.566 269.982 121.367 270.399 Q119.168 270.815 116.529 271.695 L116.529 267.528 Q119.191 266.788 121.505 266.417 Q123.843 266.047 125.904 266.047 Q131.228 266.047 134.329 268.477 Q137.431 270.885 137.431 275.005 Q137.431 277.876 135.788 279.866 Q134.144 281.834 131.112 282.598 Z" fill="#000000" fill-rule="evenodd" fill-opacity="1" /><path clip-path="url(#clip110)" d="M 0 0 M144.121 297.297 L151.76 297.297 L151.76 270.931 L143.45 272.598 L143.45 268.339 L151.714 266.672 L156.39 266.672 L156.39 297.297 L164.028 297.297 L164.028 301.232 L144.121 301.232 L144.121 297.297 Z" fill="#000000" fill-rule="evenodd" fill-opacity="1" /><path clip-path="url(#clip110)" d="M 0 0 M59.1993 815.533 Q55.2526 813.336 53.3747 810.281 Q51.4968 807.225 51.4968 803.088 Q51.4968 797.518 55.4117 794.494 Q59.2948 791.47 66.4881 791.47 L88.0042 791.47 L88.0042 797.358 L66.679 797.358 Q61.5546 797.358 59.072 799.173 Q56.5894 800.987 56.5894 804.711 Q56.5894 809.262 59.6131 811.904 Q62.6368 814.546 67.8567 814.546 L88.0042 814.546 L88.0042 820.434 L66.679 820.434 Q61.5228 820.434 59.072 822.248 Q56.5894 824.063 56.5894 827.85 Q56.5894 832.338 59.6449 834.98 Q62.6686 837.622 67.8567 837.622 L88.0042 837.622 L88.0042 843.51 L52.3562 843.51 L52.3562 837.622 L57.8944 837.622 Q54.616 835.616 53.0564 832.815 Q51.4968 830.015 51.4968 826.163 Q51.4968 822.28 53.4702 819.575 Q55.4436 816.838 59.1993 815.533 Z" fill="#000000" fill-rule="evenodd" fill-opacity="1" /><path clip-path="url(#clip110)" d="M 0 0 M52.3562 785.327 L52.3562 779.471 L88.0042 779.471 L88.0042 785.327 L52.3562 785.327 M38.479 785.327 L38.479 779.471 L45.895 779.471 L45.895 785.327 L38.479 785.327 Z" fill="#000000" fill-rule="evenodd" fill-opacity="1" /><path clip-path="url(#clip110)" d="M 0 0 M66.4881 743.696 L88.0042 743.696 L88.0042 749.552 L66.679 749.552 Q61.6183 749.552 59.1038 751.525 Q56.5894 753.499 56.5894 757.446 Q56.5894 762.188 59.6131 764.925 Q62.6368 767.662 67.8567 767.662 L88.0042 767.662 L88.0042 773.551 L52.3562 773.551 L52.3562 767.662 L57.8944 767.662 Q54.6797 765.562 53.0883 762.729 Q51.4968 759.864 51.4968 756.141 Q51.4968 749.998 55.3163 746.847 Q59.1038 743.696 66.4881 743.696 Z" fill="#000000" fill-rule="evenodd" fill-opacity="1" /><path clip-path="url(#clip110)" d="M 0 0 M98.8259 710.467 L103.377 710.467 L103.377 744.332 L98.8259 744.332 L98.8259 710.467 Z" fill="#000000" fill-rule="evenodd" fill-opacity="1" /><path clip-path="url(#clip110)" d="M 0 0 M57.7671 680.866 L38.479 680.866 L38.479 675.01 L88.0042 675.01 L88.0042 680.866 L82.657 680.866 Q85.8398 682.712 87.3994 685.545 Q88.9272 688.346 88.9272 692.292 Q88.9272 698.754 83.771 702.828 Q78.6147 706.87 70.212 706.87 Q61.8093 706.87 56.6531 702.828 Q51.4968 698.754 51.4968 692.292 Q51.4968 688.346 53.0564 685.545 Q54.5842 682.712 57.7671 680.866 M70.212 700.823 Q76.6732 700.823 80.3653 698.181 Q84.0256 695.507 84.0256 690.86 Q84.0256 686.213 80.3653 683.54 Q76.6732 680.866 70.212 680.866 Q63.7508 680.866 60.0905 683.54 Q56.3984 686.213 56.3984 690.86 Q56.3984 695.507 60.0905 698.181 Q63.7508 700.823 70.212 700.823 Z" fill="#000000" fill-rule="evenodd" fill-opacity="1" /><path clip-path="url(#clip110)" d="M 0 0 M52.3562 668.867 L52.3562 663.01 L88.0042 663.01 L88.0042 668.867 L52.3562 668.867 M38.479 668.867 L38.479 663.01 L45.895 663.01 L45.895 668.867 L38.479 668.867 Z" fill="#000000" fill-rule="evenodd" fill-opacity="1" /><path clip-path="url(#clip110)" d="M 0 0 M38.479 638.821 L43.3487 638.821 L43.3487 644.422 Q43.3487 647.573 44.6219 648.815 Q45.895 650.024 49.2052 650.024 L52.3562 650.024 L52.3562 640.38 L56.9077 640.38 L56.9077 650.024 L88.0042 650.024 L88.0042 655.912 L56.9077 655.912 L56.9077 661.514 L52.3562 661.514 L52.3562 655.912 L49.8736 655.912 Q43.9216 655.912 41.2162 653.143 Q38.479 650.374 38.479 644.359 L38.479 638.821 Z" fill="#000000" fill-rule="evenodd" fill-opacity="1" /><path clip-path="url(#clip110)" d="M 0 0 M38.479 614.631 L43.3487 614.631 L43.3487 620.233 Q43.3487 623.384 44.6219 624.625 Q45.895 625.835 49.2052 625.835 L52.3562 625.835 L52.3562 616.19 L56.9077 616.19 L56.9077 625.835 L88.0042 625.835 L88.0042 631.723 L56.9077 631.723 L56.9077 637.325 L52.3562 637.325 L52.3562 631.723 L49.8736 631.723 Q43.9216 631.723 41.2162 628.954 Q38.479 626.185 38.479 620.169 L38.479 614.631 Z" fill="#000000" fill-rule="evenodd" fill-opacity="1" /><polyline clip-path="url(#clip112)" style="stroke:#009af9; stroke-width:20; stroke-opacity:1; fill:none" stroke-dasharray="80, 50" points="
  260.955,871.224 1276.39,85.838 2291.83,1372.3 
  "/>
<path clip-path="url(#clip110)" d="
M1990.79 213.659 L2281 213.659 L2281 92.6992 L1990.79 92.6992  Z
  " fill="#ffffff" fill-rule="evenodd" fill-opacity="1"/>
<polyline clip-path="url(#clip110)" style="stroke:#000000; stroke-width:4; stroke-opacity:1; fill:none" points="
  1990.79,213.659 2281,213.659 2281,92.6992 1990.79,92.6992 1990.79,213.659 
  "/>
<polyline clip-path="url(#clip110)" style="stroke:#009af9; stroke-width:4; stroke-opacity:1; fill:none" stroke-dasharray="16, 10" points="
  2014.71,153.179 2158.22,153.179 
  "/>
<path clip-path="url(#clip110)" d="M 0 0 M2195.98 172.867 Q2194.18 177.496 2192.47 178.908 Q2190.75 180.32 2187.88 180.32 L2184.48 180.32 L2184.48 176.755 L2186.98 176.755 Q2188.74 176.755 2189.71 175.922 Q2190.68 175.089 2191.86 171.987 L2192.63 170.043 L2182.14 144.533 L2186.66 144.533 L2194.76 164.811 L2202.86 144.533 L2207.37 144.533 L2195.98 172.867 Z" fill="#000000" fill-rule="evenodd" fill-opacity="1" /><path clip-path="url(#clip110)" d="M 0 0 M2213.25 166.524 L2220.89 166.524 L2220.89 140.158 L2212.58 141.825 L2212.58 137.566 L2220.85 135.899 L2225.52 135.899 L2225.52 166.524 L2233.16 166.524 L2233.16 170.459 L2213.25 170.459 L2213.25 166.524 Z" fill="#000000" fill-rule="evenodd" fill-opacity="1" /></svg>
