<?xml version="1.0" encoding="utf-8"?>
<svg xmlns="http://www.w3.org/2000/svg" xmlns:xlink="http://www.w3.org/1999/xlink" width="600" height="400" viewBox="0 0 2400 1600">
<defs>
  <clipPath id="clip870">
    <rect x="0" y="0" width="2400" height="1600"/>
  </clipPath>
</defs>
<path clip-path="url(#clip870)" d="
M0 1600 L2400 1600 L2400 0 L0 0  Z
  " fill="#ffffff" fill-rule="evenodd" fill-opacity="1"/>
<defs>
  <clipPath id="clip871">
    <rect x="480" y="0" width="1681" height="1600"/>
  </clipPath>
</defs>
<path clip-path="url(#clip870)" d="
M202.459 1410.9 L2352.76 1410.9 L2352.76 47.2441 L202.459 47.2441  Z
  " fill="#ffffff" fill-rule="evenodd" fill-opacity="1"/>
<defs>
  <clipPath id="clip872">
    <rect x="202" y="47" width="2151" height="1365"/>
  </clipPath>
</defs>
<polyline clip-path="url(#clip872)" style="stroke:#000000; stroke-width:2; stroke-opacity:0.1; fill:none" points="
  263.316,1410.9 263.316,47.2441 
  "/>
<polyline clip-path="url(#clip872)" style="stroke:#000000; stroke-width:2; stroke-opacity:0.1; fill:none" points="
  939.51,1410.9 939.51,47.2441 
  "/>
<polyline clip-path="url(#clip872)" style="stroke:#000000; stroke-width:2; stroke-opacity:0.1; fill:none" points="
  1615.7,1410.9 1615.7,47.2441 
  "/>
<polyline clip-path="url(#clip872)" style="stroke:#000000; stroke-width:2; stroke-opacity:0.1; fill:none" points="
  2291.9,1410.9 2291.9,47.2441 
  "/>
<polyline clip-path="url(#clip870)" style="stroke:#000000; stroke-width:4; stroke-opacity:1; fill:none" points="
  202.459,1410.9 2352.76,1410.9 
  "/>
<polyline clip-path="url(#clip870)" style="stroke:#000000; stroke-width:4; stroke-opacity:1; fill:none" points="
  263.316,1410.9 263.316,1394.53 
  "/>
<polyline clip-path="url(#clip870)" style="stroke:#000000; stroke-width:4; stroke-opacity:1; fill:none" points="
  939.51,1410.9 939.51,1394.53 
  "/>
<polyline clip-path="url(#clip870)" style="stroke:#000000; stroke-width:4; stroke-opacity:1; fill:none" points="
  1615.7,1410.9 1615.7,1394.53 
  "/>
<polyline clip-path="url(#clip870)" style="stroke:#000000; stroke-width:4; stroke-opacity:1; fill:none" points="
  2291.9,1410.9 2291.9,1394.53 
  "/>
<path clip-path="url(#clip870)" d="M 0 0 M217.096 1489.17 L224.734 1489.17 L224.734 1462.8 L216.424 1464.47 L216.424 1460.21 L224.688 1458.54 L229.364 1458.54 L229.364 1489.17 L237.003 1489.17 L237.003 1493.1 L217.096 1493.1 L217.096 1489.17 Z" fill="#000000" fill-rule="evenodd" fill-opacity="1" /><path clip-path="url(#clip870)" d="M 0 0 M252.072 1461.62 Q248.461 1461.62 246.632 1465.19 Q244.827 1468.73 244.827 1475.86 Q244.827 1482.97 246.632 1486.53 Q248.461 1490.07 252.072 1490.07 Q255.706 1490.07 257.512 1486.53 Q259.341 1482.97 259.341 1475.86 Q259.341 1468.73 257.512 1465.19 Q255.706 1461.62 252.072 1461.62 M252.072 1457.92 Q257.882 1457.92 260.938 1462.53 Q264.017 1467.11 264.017 1475.86 Q264.017 1484.59 260.938 1489.19 Q257.882 1493.78 252.072 1493.78 Q246.262 1493.78 243.183 1489.19 Q240.128 1484.59 240.128 1475.86 Q240.128 1467.11 243.183 1462.53 Q246.262 1457.92 252.072 1457.92 Z" fill="#000000" fill-rule="evenodd" fill-opacity="1" /><path clip-path="url(#clip870)" d="M 0 0 M264.017 1452.02 L288.128 1452.02 L288.128 1455.22 L264.017 1455.22 L264.017 1452.02 Z" fill="#000000" fill-rule="evenodd" fill-opacity="1" /><path clip-path="url(#clip870)" d="M 0 0 M300.842 1450.14 Q298.284 1450.14 296.78 1451.89 Q295.294 1453.64 295.294 1456.68 Q295.294 1459.71 296.78 1461.48 Q298.284 1463.23 300.842 1463.23 Q303.4 1463.23 304.886 1461.48 Q306.391 1459.71 306.391 1456.68 Q306.391 1453.64 304.886 1451.89 Q303.4 1450.14 300.842 1450.14 M308.384 1438.23 L308.384 1441.69 Q306.955 1441.02 305.488 1440.66 Q304.04 1440.3 302.61 1440.3 Q298.849 1440.3 296.855 1442.84 Q294.88 1445.38 294.598 1450.52 Q295.708 1448.88 297.382 1448.01 Q299.056 1447.13 301.068 1447.13 Q305.3 1447.13 307.745 1449.71 Q310.209 1452.26 310.209 1456.68 Q310.209 1461.01 307.651 1463.62 Q305.093 1466.24 300.842 1466.24 Q295.971 1466.24 293.394 1462.51 Q290.818 1458.77 290.818 1451.68 Q290.818 1445.02 293.977 1441.07 Q297.137 1437.11 302.46 1437.11 Q303.889 1437.11 305.337 1437.39 Q306.804 1437.67 308.384 1438.23 Z" fill="#000000" fill-rule="evenodd" fill-opacity="1" /><path clip-path="url(#clip870)" d="M 0 0 M893.76 1489.17 L901.399 1489.17 L901.399 1462.8 L893.089 1464.47 L893.089 1460.21 L901.352 1458.54 L906.028 1458.54 L906.028 1489.17 L913.667 1489.17 L913.667 1493.1 L893.76 1493.1 L893.76 1489.17 Z" fill="#000000" fill-rule="evenodd" fill-opacity="1" /><path clip-path="url(#clip870)" d="M 0 0 M928.736 1461.62 Q925.125 1461.62 923.297 1465.19 Q921.491 1468.73 921.491 1475.86 Q921.491 1482.97 923.297 1486.53 Q925.125 1490.07 928.736 1490.07 Q932.371 1490.07 934.176 1486.53 Q936.005 1482.97 936.005 1475.86 Q936.005 1468.73 934.176 1465.19 Q932.371 1461.62 928.736 1461.62 M928.736 1457.92 Q934.547 1457.92 937.602 1462.53 Q940.681 1467.11 940.681 1475.86 Q940.681 1484.59 937.602 1489.19 Q934.547 1493.78 928.736 1493.78 Q922.926 1493.78 919.848 1489.19 Q916.792 1484.59 916.792 1475.86 Q916.792 1467.11 919.848 1462.53 Q922.926 1457.92 928.736 1457.92 Z" fill="#000000" fill-rule="evenodd" fill-opacity="1" /><path clip-path="url(#clip870)" d="M 0 0 M940.681 1452.02 L964.792 1452.02 L964.792 1455.22 L940.681 1455.22 L940.681 1452.02 Z" fill="#000000" fill-rule="evenodd" fill-opacity="1" /><path clip-path="url(#clip870)" d="M 0 0 M968.949 1437.61 L983.863 1437.61 L983.863 1440.81 L972.428 1440.81 L972.428 1447.69 Q973.256 1447.41 974.083 1447.28 Q974.911 1447.13 975.739 1447.13 Q980.44 1447.13 983.186 1449.71 Q985.932 1452.28 985.932 1456.68 Q985.932 1461.22 983.111 1463.74 Q980.29 1466.24 975.155 1466.24 Q973.388 1466.24 971.544 1465.94 Q969.72 1465.64 967.764 1465.04 L967.764 1461.22 Q969.457 1462.14 971.262 1462.59 Q973.068 1463.04 975.08 1463.04 Q978.334 1463.04 980.234 1461.33 Q982.133 1459.62 982.133 1456.68 Q982.133 1453.75 980.234 1452.04 Q978.334 1450.33 975.08 1450.33 Q973.557 1450.33 972.033 1450.67 Q970.529 1451 968.949 1451.72 L968.949 1437.61 Z" fill="#000000" fill-rule="evenodd" fill-opacity="1" /><path clip-path="url(#clip870)" d="M 0 0 M1569.35 1489.17 L1576.99 1489.17 L1576.99 1462.8 L1568.68 1464.47 L1568.68 1460.21 L1576.94 1458.54 L1581.62 1458.54 L1581.62 1489.17 L1589.26 1489.17 L1589.26 1493.1 L1569.35 1493.1 L1569.35 1489.17 Z" fill="#000000" fill-rule="evenodd" fill-opacity="1" /><path clip-path="url(#clip870)" d="M 0 0 M1604.33 1461.62 Q1600.72 1461.62 1598.89 1465.19 Q1597.08 1468.73 1597.08 1475.86 Q1597.08 1482.97 1598.89 1486.53 Q1600.72 1490.07 1604.33 1490.07 Q1607.96 1490.07 1609.77 1486.53 Q1611.6 1482.97 1611.6 1475.86 Q1611.6 1468.73 1609.77 1465.19 Q1607.96 1461.62 1604.33 1461.62 M1604.33 1457.92 Q1610.14 1457.92 1613.19 1462.53 Q1616.27 1467.11 1616.27 1475.86 Q1616.27 1484.59 1613.19 1489.19 Q1610.14 1493.78 1604.33 1493.78 Q1598.52 1493.78 1595.44 1489.19 Q1592.38 1484.59 1592.38 1475.86 Q1592.38 1467.11 1595.44 1462.53 Q1598.52 1457.92 1604.33 1457.92 Z" fill="#000000" fill-rule="evenodd" fill-opacity="1" /><path clip-path="url(#clip870)" d="M 0 0 M1616.27 1452.02 L1640.38 1452.02 L1640.38 1455.22 L1616.27 1455.22 L1616.27 1452.02 Z" fill="#000000" fill-rule="evenodd" fill-opacity="1" /><path clip-path="url(#clip870)" d="M 0 0 M1654.94 1440.92 L1645.35 1455.91 L1654.94 1455.91 L1654.94 1440.92 M1653.94 1437.61 L1658.72 1437.61 L1658.72 1455.91 L1662.73 1455.91 L1662.73 1459.07 L1658.72 1459.07 L1658.72 1465.69 L1654.94 1465.69 L1654.94 1459.07 L1642.27 1459.07 L1642.27 1455.41 L1653.94 1437.61 Z" fill="#000000" fill-rule="evenodd" fill-opacity="1" /><path clip-path="url(#clip870)" d="M 0 0 M2246.01 1489.17 L2253.65 1489.17 L2253.65 1462.8 L2245.34 1464.47 L2245.34 1460.21 L2253.6 1458.54 L2258.28 1458.54 L2258.28 1489.17 L2265.91 1489.17 L2265.91 1493.1 L2246.01 1493.1 L2246.01 1489.17 Z" fill="#000000" fill-rule="evenodd" fill-opacity="1" /><path clip-path="url(#clip870)" d="M 0 0 M2280.98 1461.62 Q2277.37 1461.62 2275.54 1465.19 Q2273.74 1468.73 2273.74 1475.86 Q2273.74 1482.97 2275.54 1486.53 Q2277.37 1490.07 2280.98 1490.07 Q2284.62 1490.07 2286.42 1486.53 Q2288.25 1482.97 2288.25 1475.86 Q2288.25 1468.73 2286.42 1465.19 Q2284.62 1461.62 2280.98 1461.62 M2280.98 1457.92 Q2286.79 1457.92 2289.85 1462.53 Q2292.93 1467.11 2292.93 1475.86 Q2292.93 1484.59 2289.85 1489.19 Q2286.79 1493.78 2280.98 1493.78 Q2275.17 1493.78 2272.09 1489.19 Q2269.04 1484.59 2269.04 1475.86 Q2269.04 1467.11 2272.09 1462.53 Q2275.17 1457.92 2280.98 1457.92 Z" fill="#000000" fill-rule="evenodd" fill-opacity="1" /><path clip-path="url(#clip870)" d="M 0 0 M2292.93 1452.02 L2317.04 1452.02 L2317.04 1455.22 L2292.93 1455.22 L2292.93 1452.02 Z" fill="#000000" fill-rule="evenodd" fill-opacity="1" /><path clip-path="url(#clip870)" d="M 0 0 M2332.67 1450.55 Q2335.4 1451.14 2336.92 1452.98 Q2338.46 1454.82 2338.46 1457.53 Q2338.46 1461.69 2335.6 1463.96 Q2332.74 1466.24 2327.48 1466.24 Q2325.71 1466.24 2323.83 1465.88 Q2321.97 1465.54 2319.97 1464.85 L2319.97 1461.18 Q2321.55 1462.1 2323.43 1462.57 Q2325.31 1463.04 2327.36 1463.04 Q2330.94 1463.04 2332.8 1461.63 Q2334.68 1460.22 2334.68 1457.53 Q2334.68 1455.05 2332.93 1453.66 Q2331.2 1452.25 2328.1 1452.25 L2324.83 1452.25 L2324.83 1449.12 L2328.25 1449.12 Q2331.05 1449.12 2332.54 1448.01 Q2334.02 1446.89 2334.02 1444.78 Q2334.02 1442.62 2332.48 1441.47 Q2330.96 1440.3 2328.1 1440.3 Q2326.54 1440.3 2324.75 1440.64 Q2322.96 1440.98 2320.82 1441.69 L2320.82 1438.31 Q2322.98 1437.71 2324.86 1437.41 Q2326.76 1437.11 2328.44 1437.11 Q2332.76 1437.11 2335.28 1439.08 Q2337.8 1441.04 2337.8 1444.38 Q2337.8 1446.72 2336.47 1448.33 Q2335.13 1449.93 2332.67 1450.55 Z" fill="#000000" fill-rule="evenodd" fill-opacity="1" /><path clip-path="url(#clip870)" d="M 0 0 M1209.13 1512.66 L1215.02 1512.66 L1215.02 1541.91 L1232.49 1526.54 L1239.97 1526.54 L1221.06 1543.22 L1240.77 1562.19 L1233.13 1562.19 L1215.02 1544.78 L1215.02 1562.19 L1209.13 1562.19 L1209.13 1512.66 Z" fill="#000000" fill-rule="evenodd" fill-opacity="1" /><path clip-path="url(#clip870)" d="M 0 0 M1273.99 1573.01 L1273.99 1577.56 L1240.13 1577.56 L1240.13 1573.01 L1273.99 1573.01 Z" fill="#000000" fill-rule="evenodd" fill-opacity="1" /><path clip-path="url(#clip870)" d="M 0 0 M1293.95 1530.64 Q1289.24 1530.64 1286.5 1534.34 Q1283.77 1538 1283.77 1544.39 Q1283.77 1550.79 1286.47 1554.48 Q1289.21 1558.14 1293.95 1558.14 Q1298.63 1558.14 1301.37 1554.45 Q1304.1 1550.76 1304.1 1544.39 Q1304.1 1538.06 1301.37 1534.37 Q1298.63 1530.64 1293.95 1530.64 M1293.95 1525.68 Q1301.59 1525.68 1305.95 1530.64 Q1310.31 1535.61 1310.31 1544.39 Q1310.31 1553.15 1305.95 1558.14 Q1301.59 1563.11 1293.95 1563.11 Q1286.28 1563.11 1281.92 1558.14 Q1277.59 1553.15 1277.59 1544.39 Q1277.59 1535.61 1281.92 1530.64 Q1286.28 1525.68 1293.95 1525.68 Z" fill="#000000" fill-rule="evenodd" fill-opacity="1" /><path clip-path="url(#clip870)" d="M 0 0 M1346.09 1540.67 L1346.09 1562.19 L1340.23 1562.19 L1340.23 1540.86 Q1340.23 1535.8 1338.26 1533.29 Q1336.28 1530.77 1332.34 1530.77 Q1327.59 1530.77 1324.86 1533.79 Q1322.12 1536.82 1322.12 1542.04 L1322.12 1562.19 L1316.23 1562.19 L1316.23 1526.54 L1322.12 1526.54 L1322.12 1532.08 Q1324.22 1528.86 1327.05 1527.27 Q1329.92 1525.68 1333.64 1525.68 Q1339.78 1525.68 1342.94 1529.5 Q1346.09 1533.29 1346.09 1540.67 Z" fill="#000000" fill-rule="evenodd" fill-opacity="1" /><polyline clip-path="url(#clip872)" style="stroke:#000000; stroke-width:2; stroke-opacity:0.1; fill:none" points="
  202.459,1228.52 2352.76,1228.52 
  "/>
<polyline clip-path="url(#clip872)" style="stroke:#000000; stroke-width:2; stroke-opacity:0.1; fill:none" points="
  202.459,977.106 2352.76,977.106 
  "/>
<polyline clip-path="url(#clip872)" style="stroke:#000000; stroke-width:2; stroke-opacity:0.1; fill:none" points="
  202.459,725.69 2352.76,725.69 
  "/>
<polyline clip-path="url(#clip872)" style="stroke:#000000; stroke-width:2; stroke-opacity:0.1; fill:none" points="
  202.459,474.273 2352.76,474.273 
  "/>
<polyline clip-path="url(#clip872)" style="stroke:#000000; stroke-width:2; stroke-opacity:0.1; fill:none" points="
  202.459,222.856 2352.76,222.856 
  "/>
<polyline clip-path="url(#clip870)" style="stroke:#000000; stroke-width:4; stroke-opacity:1; fill:none" points="
  202.459,1410.9 202.459,47.2441 
  "/>
<polyline clip-path="url(#clip870)" style="stroke:#000000; stroke-width:4; stroke-opacity:1; fill:none" points="
  202.459,1228.52 228.263,1228.52 
  "/>
<polyline clip-path="url(#clip870)" style="stroke:#000000; stroke-width:4; stroke-opacity:1; fill:none" points="
  202.459,977.106 228.263,977.106 
  "/>
<polyline clip-path="url(#clip870)" style="stroke:#000000; stroke-width:4; stroke-opacity:1; fill:none" points="
  202.459,725.69 228.263,725.69 
  "/>
<polyline clip-path="url(#clip870)" style="stroke:#000000; stroke-width:4; stroke-opacity:1; fill:none" points="
  202.459,474.273 228.263,474.273 
  "/>
<polyline clip-path="url(#clip870)" style="stroke:#000000; stroke-width:4; stroke-opacity:1; fill:none" points="
  202.459,222.856 228.263,222.856 
  "/>
<path clip-path="url(#clip870)" d="M 0 0 M119.538 1241.87 L127.177 1241.87 L127.177 1215.5 L118.867 1217.17 L118.867 1212.91 L127.13 1211.24 L131.806 1211.24 L131.806 1241.87 L139.445 1241.87 L139.445 1245.8 L119.538 1245.8 L119.538 1241.87 Z" fill="#000000" fill-rule="evenodd" fill-opacity="1" /><path clip-path="url(#clip870)" d="M 0 0 M154.515 1214.32 Q150.903 1214.32 149.075 1217.89 Q147.269 1221.43 147.269 1228.56 Q147.269 1235.66 149.075 1239.23 Q150.903 1242.77 154.515 1242.77 Q158.149 1242.77 159.954 1239.23 Q161.783 1235.66 161.783 1228.56 Q161.783 1221.43 159.954 1217.89 Q158.149 1214.32 154.515 1214.32 M154.515 1210.62 Q160.325 1210.62 163.38 1215.22 Q166.459 1219.81 166.459 1228.56 Q166.459 1237.28 163.38 1241.89 Q160.325 1246.47 154.515 1246.47 Q148.704 1246.47 145.626 1241.89 Q142.57 1237.28 142.57 1228.56 Q142.57 1219.81 145.626 1215.22 Q148.704 1210.62 154.515 1210.62 Z" fill="#000000" fill-rule="evenodd" fill-opacity="1" /><path clip-path="url(#clip870)" d="M 0 0 M123.126 990.451 L139.445 990.451 L139.445 994.386 L117.501 994.386 L117.501 990.451 Q120.163 987.697 124.746 983.067 Q129.353 978.414 130.533 977.072 Q132.779 974.548 133.658 972.812 Q134.561 971.053 134.561 969.363 Q134.561 966.609 132.617 964.873 Q130.695 963.136 127.593 963.136 Q125.394 963.136 122.941 963.9 Q120.51 964.664 117.732 966.215 L117.732 961.493 Q120.556 960.359 123.01 959.78 Q125.464 959.201 127.501 959.201 Q132.871 959.201 136.066 961.887 Q139.26 964.572 139.26 969.062 Q139.26 971.192 138.45 973.113 Q137.663 975.011 135.556 977.604 Q134.978 978.275 131.876 981.493 Q128.774 984.687 123.126 990.451 Z" fill="#000000" fill-rule="evenodd" fill-opacity="1" /><path clip-path="url(#clip870)" d="M 0 0 M154.515 962.905 Q150.903 962.905 149.075 966.47 Q147.269 970.011 147.269 977.141 Q147.269 984.247 149.075 987.812 Q150.903 991.354 154.515 991.354 Q158.149 991.354 159.954 987.812 Q161.783 984.247 161.783 977.141 Q161.783 970.011 159.954 966.47 Q158.149 962.905 154.515 962.905 M154.515 959.201 Q160.325 959.201 163.38 963.808 Q166.459 968.391 166.459 977.141 Q166.459 985.868 163.38 990.474 Q160.325 995.058 154.515 995.058 Q148.704 995.058 145.626 990.474 Q142.57 985.868 142.57 977.141 Q142.57 968.391 145.626 963.808 Q148.704 959.201 154.515 959.201 Z" fill="#000000" fill-rule="evenodd" fill-opacity="1" /><path clip-path="url(#clip870)" d="M 0 0 M132.316 724.335 Q135.672 725.053 137.547 727.322 Q139.445 729.59 139.445 732.923 Q139.445 738.039 135.927 740.84 Q132.408 743.641 125.927 743.641 Q123.751 743.641 121.436 743.201 Q119.144 742.784 116.691 741.928 L116.691 737.414 Q118.635 738.548 120.95 739.127 Q123.265 739.706 125.788 739.706 Q130.186 739.706 132.478 737.97 Q134.792 736.233 134.792 732.923 Q134.792 729.868 132.64 728.155 Q130.51 726.419 126.691 726.419 L122.663 726.419 L122.663 722.576 L126.876 722.576 Q130.325 722.576 132.154 721.21 Q133.982 719.822 133.982 717.229 Q133.982 714.567 132.084 713.155 Q130.209 711.72 126.691 711.72 Q124.769 711.72 122.57 712.136 Q120.371 712.553 117.732 713.433 L117.732 709.266 Q120.394 708.525 122.709 708.155 Q125.047 707.785 127.107 707.785 Q132.431 707.785 135.533 710.215 Q138.635 712.623 138.635 716.743 Q138.635 719.613 136.992 721.604 Q135.348 723.572 132.316 724.335 Z" fill="#000000" fill-rule="evenodd" fill-opacity="1" /><path clip-path="url(#clip870)" d="M 0 0 M154.515 711.488 Q150.903 711.488 149.075 715.053 Q147.269 718.595 147.269 725.724 Q147.269 732.831 149.075 736.396 Q150.903 739.937 154.515 739.937 Q158.149 739.937 159.954 736.396 Q161.783 732.831 161.783 725.724 Q161.783 718.595 159.954 715.053 Q158.149 711.488 154.515 711.488 M154.515 707.785 Q160.325 707.785 163.38 712.391 Q166.459 716.974 166.459 725.724 Q166.459 734.451 163.38 739.058 Q160.325 743.641 154.515 743.641 Q148.704 743.641 145.626 739.058 Q142.57 734.451 142.57 725.724 Q142.57 716.974 145.626 712.391 Q148.704 707.785 154.515 707.785 Z" fill="#000000" fill-rule="evenodd" fill-opacity="1" /><path clip-path="url(#clip870)" d="M 0 0 M129.862 461.067 L118.056 479.516 L129.862 479.516 L129.862 461.067 M128.635 456.993 L134.515 456.993 L134.515 479.516 L139.445 479.516 L139.445 483.405 L134.515 483.405 L134.515 491.553 L129.862 491.553 L129.862 483.405 L114.26 483.405 L114.26 478.891 L128.635 456.993 Z" fill="#000000" fill-rule="evenodd" fill-opacity="1" /><path clip-path="url(#clip870)" d="M 0 0 M154.515 460.072 Q150.903 460.072 149.075 463.636 Q147.269 467.178 147.269 474.308 Q147.269 481.414 149.075 484.979 Q150.903 488.52 154.515 488.52 Q158.149 488.52 159.954 484.979 Q161.783 481.414 161.783 474.308 Q161.783 467.178 159.954 463.636 Q158.149 460.072 154.515 460.072 M154.515 456.368 Q160.325 456.368 163.38 460.974 Q166.459 465.558 166.459 474.308 Q166.459 483.034 163.38 487.641 Q160.325 492.224 154.515 492.224 Q148.704 492.224 145.626 487.641 Q142.57 483.034 142.57 474.308 Q142.57 465.558 145.626 460.974 Q148.704 456.368 154.515 456.368 Z" fill="#000000" fill-rule="evenodd" fill-opacity="1" /><path clip-path="url(#clip870)" d="M 0 0 M118.543 205.576 L136.899 205.576 L136.899 209.511 L122.825 209.511 L122.825 217.983 Q123.843 217.636 124.862 217.474 Q125.88 217.289 126.899 217.289 Q132.686 217.289 136.066 220.46 Q139.445 223.632 139.445 229.048 Q139.445 234.627 135.973 237.729 Q132.501 240.807 126.181 240.807 Q124.005 240.807 121.737 240.437 Q119.492 240.067 117.084 239.326 L117.084 234.627 Q119.168 235.761 121.39 236.317 Q123.612 236.872 126.089 236.872 Q130.093 236.872 132.431 234.766 Q134.769 232.659 134.769 229.048 Q134.769 225.437 132.431 223.331 Q130.093 221.224 126.089 221.224 Q124.214 221.224 122.339 221.641 Q120.487 222.057 118.543 222.937 L118.543 205.576 Z" fill="#000000" fill-rule="evenodd" fill-opacity="1" /><path clip-path="url(#clip870)" d="M 0 0 M154.515 208.655 Q150.903 208.655 149.075 212.22 Q147.269 215.761 147.269 222.891 Q147.269 229.997 149.075 233.562 Q150.903 237.104 154.515 237.104 Q158.149 237.104 159.954 233.562 Q161.783 229.997 161.783 222.891 Q161.783 215.761 159.954 212.22 Q158.149 208.655 154.515 208.655 M154.515 204.951 Q160.325 204.951 163.38 209.558 Q166.459 214.141 166.459 222.891 Q166.459 231.618 163.38 236.224 Q160.325 240.807 154.515 240.807 Q148.704 240.807 145.626 236.224 Q142.57 231.618 142.57 222.891 Q142.57 214.141 145.626 209.558 Q148.704 204.951 154.515 204.951 Z" fill="#000000" fill-rule="evenodd" fill-opacity="1" /><path clip-path="url(#clip870)" d="M 0 0 M59.1993 815.533 Q55.2526 813.336 53.3747 810.281 Q51.4968 807.225 51.4968 803.088 Q51.4968 797.518 55.4117 794.494 Q59.2948 791.47 66.4881 791.47 L88.0042 791.47 L88.0042 797.358 L66.679 797.358 Q61.5546 797.358 59.072 799.173 Q56.5894 800.987 56.5894 804.711 Q56.5894 809.262 59.6131 811.904 Q62.6368 814.546 67.8567 814.546 L88.0042 814.546 L88.0042 820.434 L66.679 820.434 Q61.5228 820.434 59.072 822.248 Q56.5894 824.063 56.5894 827.85 Q56.5894 832.338 59.6449 834.98 Q62.6686 837.622 67.8567 837.622 L88.0042 837.622 L88.0042 843.51 L52.3562 843.51 L52.3562 837.622 L57.8944 837.622 Q54.616 835.616 53.0564 832.815 Q51.4968 830.015 51.4968 826.163 Q51.4968 822.28 53.4702 819.575 Q55.4436 816.838 59.1993 815.533 Z" fill="#000000" fill-rule="evenodd" fill-opacity="1" /><path clip-path="url(#clip870)" d="M 0 0 M52.3562 785.327 L52.3562 779.471 L88.0042 779.471 L88.0042 785.327 L52.3562 785.327 M38.479 785.327 L38.479 779.471 L45.895 779.471 L45.895 785.327 L38.479 785.327 Z" fill="#000000" fill-rule="evenodd" fill-opacity="1" /><path clip-path="url(#clip870)" d="M 0 0 M66.4881 743.696 L88.0042 743.696 L88.0042 749.552 L66.679 749.552 Q61.6183 749.552 59.1038 751.525 Q56.5894 753.499 56.5894 757.446 Q56.5894 762.188 59.6131 764.925 Q62.6368 767.662 67.8567 767.662 L88.0042 767.662 L88.0042 773.551 L52.3562 773.551 L52.3562 767.662 L57.8944 767.662 Q54.6797 765.562 53.0883 762.729 Q51.4968 759.864 51.4968 756.141 Q51.4968 749.998 55.3163 746.847 Q59.1038 743.696 66.4881 743.696 Z" fill="#000000" fill-rule="evenodd" fill-opacity="1" /><path clip-path="url(#clip870)" d="M 0 0 M98.8259 710.467 L103.377 710.467 L103.377 744.332 L98.8259 744.332 L98.8259 710.467 Z" fill="#000000" fill-rule="evenodd" fill-opacity="1" /><path clip-path="url(#clip870)" d="M 0 0 M57.7671 680.866 L38.479 680.866 L38.479 675.01 L88.0042 675.01 L88.0042 680.866 L82.657 680.866 Q85.8398 682.712 87.3994 685.545 Q88.9272 688.346 88.9272 692.292 Q88.9272 698.754 83.771 702.828 Q78.6147 706.87 70.212 706.87 Q61.8093 706.87 56.6531 702.828 Q51.4968 698.754 51.4968 692.292 Q51.4968 688.346 53.0564 685.545 Q54.5842 682.712 57.7671 680.866 M70.212 700.823 Q76.6732 700.823 80.3653 698.181 Q84.0256 695.507 84.0256 690.86 Q84.0256 686.213 80.3653 683.54 Q76.6732 680.866 70.212 680.866 Q63.7508 680.866 60.0905 683.54 Q56.3984 686.213 56.3984 690.86 Q56.3984 695.507 60.0905 698.181 Q63.7508 700.823 70.212 700.823 Z" fill="#000000" fill-rule="evenodd" fill-opacity="1" /><path clip-path="url(#clip870)" d="M 0 0 M52.3562 668.867 L52.3562 663.01 L88.0042 663.01 L88.0042 668.867 L52.3562 668.867 M38.479 668.867 L38.479 663.01 L45.895 663.01 L45.895 668.867 L38.479 668.867 Z" fill="#000000" fill-rule="evenodd" fill-opacity="1" /><path clip-path="url(#clip870)" d="M 0 0 M38.479 638.821 L43.3487 638.821 L43.3487 644.422 Q43.3487 647.573 44.6219 648.815 Q45.895 650.024 49.2052 650.024 L52.3562 650.024 L52.3562 640.38 L56.9077 640.38 L56.9077 650.024 L88.0042 650.024 L88.0042 655.912 L56.9077 655.912 L56.9077 661.514 L52.3562 661.514 L52.3562 655.912 L49.8736 655.912 Q43.9216 655.912 41.2162 653.143 Q38.479 650.374 38.479 644.359 L38.479 638.821 Z" fill="#000000" fill-rule="evenodd" fill-opacity="1" /><path clip-path="url(#clip870)" d="M 0 0 M38.479 614.631 L43.3487 614.631 L43.3487 620.233 Q43.3487 623.384 44.6219 624.625 Q45.895 625.835 49.2052 625.835 L52.3562 625.835 L52.3562 616.19 L56.9077 616.19 L56.9077 625.835 L88.0042 625.835 L88.0042 631.723 L56.9077 631.723 L56.9077 637.325 L52.3562 637.325 L52.3562 631.723 L49.8736 631.723 Q43.9216 631.723 41.2162 628.954 Q38.479 626.185 38.479 620.169 L38.479 614.631 Z" fill="#000000" fill-rule="evenodd" fill-opacity="1" /><polyline clip-path="url(#clip872)" style="stroke:#009af9; stroke-width:20; stroke-opacity:1; fill:none" stroke-dasharray="80, 50" points="
  263.316,193.042 601.413,1265.32 939.51,1372.3 1277.61,1105.86 1615.7,445.99 1953.8,358.604 2291.9,85.838 
  "/>
<path clip-path="url(#clip870)" d="
M1991.14 213.659 L2281.08 213.659 L2281.08 92.6992 L1991.14 92.6992  Z
  " fill="#ffffff" fill-rule="evenodd" fill-opacity="1"/>
<polyline clip-path="url(#clip870)" style="stroke:#000000; stroke-width:4; stroke-opacity:1; fill:none" points="
  1991.14,213.659 2281.08,213.659 2281.08,92.6992 1991.14,92.6992 1991.14,213.659 
  "/>
<polyline clip-path="url(#clip870)" style="stroke:#009af9; stroke-width:4; stroke-opacity:1; fill:none" stroke-dasharray="16, 10" points="
  2015.03,153.179 2158.38,153.179 
  "/>
<path clip-path="url(#clip870)" d="M 0 0 M2196.12 172.867 Q2194.31 177.496 2192.6 178.908 Q2190.89 180.32 2188.02 180.32 L2184.61 180.32 L2184.61 176.755 L2187.11 176.755 Q2188.87 176.755 2189.85 175.922 Q2190.82 175.089 2192 171.987 L2192.76 170.043 L2182.28 144.533 L2186.79 144.533 L2194.89 164.811 L2202.99 144.533 L2207.51 144.533 L2196.12 172.867 Z" fill="#000000" fill-rule="evenodd" fill-opacity="1" /><path clip-path="url(#clip870)" d="M 0 0 M2213.39 166.524 L2221.03 166.524 L2221.03 140.158 L2212.72 141.825 L2212.72 137.566 L2220.98 135.899 L2225.66 135.899 L2225.66 166.524 L2233.29 166.524 L2233.29 170.459 L2213.39 170.459 L2213.39 166.524 Z" fill="#000000" fill-rule="evenodd" fill-opacity="1" /></svg>
