<?xml version="1.0" encoding="utf-8"?>
<svg xmlns="http://www.w3.org/2000/svg" xmlns:xlink="http://www.w3.org/1999/xlink" width="600" height="400" viewBox="0 0 2400 1600">
<defs>
  <clipPath id="clip910">
    <rect x="0" y="0" width="2400" height="1600"/>
  </clipPath>
</defs>
<path clip-path="url(#clip910)" d="
M0 1600 L2400 1600 L2400 0 L0 0  Z
  " fill="#ffffff" fill-rule="evenodd" fill-opacity="1"/>
<defs>
  <clipPath id="clip911">
    <rect x="480" y="0" width="1681" height="1600"/>
  </clipPath>
</defs>
<path clip-path="url(#clip910)" d="
M210.075 1410.9 L2352.76 1410.9 L2352.76 47.2441 L210.075 47.2441  Z
  " fill="#ffffff" fill-rule="evenodd" fill-opacity="1"/>
<defs>
  <clipPath id="clip912">
    <rect x="210" y="47" width="2144" height="1365"/>
  </clipPath>
</defs>
<polyline clip-path="url(#clip912)" style="stroke:#000000; stroke-width:2; stroke-opacity:0.1; fill:none" points="
  472.856,1410.9 472.856,47.2441 
  "/>
<polyline clip-path="url(#clip912)" style="stroke:#000000; stroke-width:2; stroke-opacity:0.1; fill:none" points="
  877.136,1410.9 877.136,47.2441 
  "/>
<polyline clip-path="url(#clip912)" style="stroke:#000000; stroke-width:2; stroke-opacity:0.1; fill:none" points="
  1281.42,1410.9 1281.42,47.2441 
  "/>
<polyline clip-path="url(#clip912)" style="stroke:#000000; stroke-width:2; stroke-opacity:0.1; fill:none" points="
  1685.69,1410.9 1685.69,47.2441 
  "/>
<polyline clip-path="url(#clip912)" style="stroke:#000000; stroke-width:2; stroke-opacity:0.1; fill:none" points="
  2089.97,1410.9 2089.97,47.2441 
  "/>
<polyline clip-path="url(#clip910)" style="stroke:#000000; stroke-width:4; stroke-opacity:1; fill:none" points="
  210.075,1410.9 2352.76,1410.9 
  "/>
<polyline clip-path="url(#clip910)" style="stroke:#000000; stroke-width:4; stroke-opacity:1; fill:none" points="
  472.856,1410.9 472.856,1394.53 
  "/>
<polyline clip-path="url(#clip910)" style="stroke:#000000; stroke-width:4; stroke-opacity:1; fill:none" points="
  877.136,1410.9 877.136,1394.53 
  "/>
<polyline clip-path="url(#clip910)" style="stroke:#000000; stroke-width:4; stroke-opacity:1; fill:none" points="
  1281.42,1410.9 1281.42,1394.53 
  "/>
<polyline clip-path="url(#clip910)" style="stroke:#000000; stroke-width:4; stroke-opacity:1; fill:none" points="
  1685.69,1410.9 1685.69,1394.53 
  "/>
<polyline clip-path="url(#clip910)" style="stroke:#000000; stroke-width:4; stroke-opacity:1; fill:none" points="
  2089.97,1410.9 2089.97,1394.53 
  "/>
<path clip-path="url(#clip910)" d="M 0 0 M411.749 1489.17 L419.388 1489.17 L419.388 1462.8 L411.078 1464.47 L411.078 1460.21 L419.342 1458.54 L424.018 1458.54 L424.018 1489.17 L431.656 1489.17 L431.656 1493.1 L411.749 1493.1 L411.749 1489.17 Z" fill="#000000" fill-rule="evenodd" fill-opacity="1" /><path clip-path="url(#clip910)" d="M 0 0 M446.726 1461.62 Q443.115 1461.62 441.286 1465.19 Q439.48 1468.73 439.48 1475.86 Q439.48 1482.97 441.286 1486.53 Q443.115 1490.07 446.726 1490.07 Q450.36 1490.07 452.166 1486.53 Q453.994 1482.97 453.994 1475.86 Q453.994 1468.73 452.166 1465.19 Q450.36 1461.62 446.726 1461.62 M446.726 1457.92 Q452.536 1457.92 455.592 1462.53 Q458.67 1467.11 458.67 1475.86 Q458.67 1484.59 455.592 1489.19 Q452.536 1493.78 446.726 1493.78 Q440.916 1493.78 437.837 1489.19 Q434.781 1484.59 434.781 1475.86 Q434.781 1467.11 437.837 1462.53 Q440.916 1457.92 446.726 1457.92 Z" fill="#000000" fill-rule="evenodd" fill-opacity="1" /><path clip-path="url(#clip910)" d="M 0 0 M458.67 1452.02 L482.782 1452.02 L482.782 1455.22 L458.67 1455.22 L458.67 1452.02 Z" fill="#000000" fill-rule="evenodd" fill-opacity="1" /><path clip-path="url(#clip910)" d="M 0 0 M498.411 1450.55 Q501.138 1451.14 502.662 1452.98 Q504.204 1454.82 504.204 1457.53 Q504.204 1461.69 501.345 1463.96 Q498.486 1466.24 493.22 1466.24 Q491.452 1466.24 489.571 1465.88 Q487.709 1465.54 485.716 1464.85 L485.716 1461.18 Q487.296 1462.1 489.176 1462.57 Q491.057 1463.04 493.107 1463.04 Q496.681 1463.04 498.543 1461.63 Q500.423 1460.22 500.423 1457.53 Q500.423 1455.05 498.674 1453.66 Q496.944 1452.25 493.841 1452.25 L490.568 1452.25 L490.568 1449.12 L493.991 1449.12 Q496.794 1449.12 498.279 1448.01 Q499.765 1446.89 499.765 1444.78 Q499.765 1442.62 498.223 1441.47 Q496.7 1440.3 493.841 1440.3 Q492.28 1440.3 490.493 1440.64 Q488.706 1440.98 486.562 1441.69 L486.562 1438.31 Q488.725 1437.71 490.606 1437.41 Q492.505 1437.11 494.179 1437.11 Q498.505 1437.11 501.025 1439.08 Q503.546 1441.04 503.546 1444.38 Q503.546 1446.72 502.21 1448.33 Q500.875 1449.93 498.411 1450.55 Z" fill="#000000" fill-rule="evenodd" fill-opacity="1" /><path clip-path="url(#clip910)" d="M 0 0 M508.323 1460.92 L512.291 1460.92 L512.291 1465.69 L508.323 1465.69 L508.323 1460.92 Z" fill="#000000" fill-rule="evenodd" fill-opacity="1" /><path clip-path="url(#clip910)" d="M 0 0 M526.848 1440.92 L517.256 1455.91 L526.848 1455.91 L526.848 1440.92 M525.852 1437.61 L530.629 1437.61 L530.629 1455.91 L534.635 1455.91 L534.635 1459.07 L530.629 1459.07 L530.629 1465.69 L526.848 1465.69 L526.848 1459.07 L514.172 1459.07 L514.172 1455.41 L525.852 1437.61 Z" fill="#000000" fill-rule="evenodd" fill-opacity="1" /><path clip-path="url(#clip910)" d="M 0 0 M816.875 1489.17 L824.514 1489.17 L824.514 1462.8 L816.204 1464.47 L816.204 1460.21 L824.468 1458.54 L829.143 1458.54 L829.143 1489.17 L836.782 1489.17 L836.782 1493.1 L816.875 1493.1 L816.875 1489.17 Z" fill="#000000" fill-rule="evenodd" fill-opacity="1" /><path clip-path="url(#clip910)" d="M 0 0 M851.852 1461.62 Q848.241 1461.62 846.412 1465.19 Q844.606 1468.73 844.606 1475.86 Q844.606 1482.97 846.412 1486.53 Q848.241 1490.07 851.852 1490.07 Q855.486 1490.07 857.291 1486.53 Q859.12 1482.97 859.12 1475.86 Q859.12 1468.73 857.291 1465.19 Q855.486 1461.62 851.852 1461.62 M851.852 1457.92 Q857.662 1457.92 860.717 1462.53 Q863.796 1467.11 863.796 1475.86 Q863.796 1484.59 860.717 1489.19 Q857.662 1493.78 851.852 1493.78 Q846.041 1493.78 842.963 1489.19 Q839.907 1484.59 839.907 1475.86 Q839.907 1467.11 842.963 1462.53 Q846.041 1457.92 851.852 1457.92 Z" fill="#000000" fill-rule="evenodd" fill-opacity="1" /><path clip-path="url(#clip910)" d="M 0 0 M863.796 1452.02 L887.908 1452.02 L887.908 1455.22 L863.796 1455.22 L863.796 1452.02 Z" fill="#000000" fill-rule="evenodd" fill-opacity="1" /><path clip-path="url(#clip910)" d="M 0 0 M903.537 1450.55 Q906.264 1451.14 907.787 1452.98 Q909.33 1454.82 909.33 1457.53 Q909.33 1461.69 906.471 1463.96 Q903.612 1466.24 898.346 1466.24 Q896.578 1466.24 894.697 1465.88 Q892.835 1465.54 890.842 1464.85 L890.842 1461.18 Q892.421 1462.1 894.302 1462.57 Q896.183 1463.04 898.233 1463.04 Q901.807 1463.04 903.668 1461.63 Q905.549 1460.22 905.549 1457.53 Q905.549 1455.05 903.8 1453.66 Q902.07 1452.25 898.967 1452.25 L895.694 1452.25 L895.694 1449.12 L899.117 1449.12 Q901.919 1449.12 903.405 1448.01 Q904.891 1446.89 904.891 1444.78 Q904.891 1442.62 903.349 1441.47 Q901.825 1440.3 898.967 1440.3 Q897.406 1440.3 895.619 1440.64 Q893.832 1440.98 891.688 1441.69 L891.688 1438.31 Q893.851 1437.71 895.732 1437.41 Q897.631 1437.11 899.305 1437.11 Q903.631 1437.11 906.151 1439.08 Q908.671 1441.04 908.671 1444.38 Q908.671 1446.72 907.336 1448.33 Q906.001 1449.93 903.537 1450.55 Z" fill="#000000" fill-rule="evenodd" fill-opacity="1" /><path clip-path="url(#clip910)" d="M 0 0 M913.449 1460.92 L917.417 1460.92 L917.417 1465.69 L913.449 1465.69 L913.449 1460.92 Z" fill="#000000" fill-rule="evenodd" fill-opacity="1" /><path clip-path="url(#clip910)" d="M 0 0 M924.808 1462.5 L938.068 1462.5 L938.068 1465.69 L920.238 1465.69 L920.238 1462.5 Q922.401 1460.26 926.125 1456.5 Q929.868 1452.72 930.827 1451.63 Q932.651 1449.58 933.366 1448.16 Q934.099 1446.74 934.099 1445.36 Q934.099 1443.12 932.52 1441.71 Q930.959 1440.3 928.438 1440.3 Q926.652 1440.3 924.658 1440.92 Q922.683 1441.54 920.426 1442.8 L920.426 1438.97 Q922.721 1438.05 924.714 1437.58 Q926.708 1437.11 928.363 1437.11 Q932.727 1437.11 935.322 1439.29 Q937.917 1441.47 937.917 1445.12 Q937.917 1446.85 937.259 1448.41 Q936.62 1449.95 934.908 1452.06 Q934.438 1452.6 931.918 1455.22 Q929.398 1457.81 924.808 1462.5 Z" fill="#000000" fill-rule="evenodd" fill-opacity="1" /><path clip-path="url(#clip910)" d="M 0 0 M1220.51 1489.17 L1228.14 1489.17 L1228.14 1462.8 L1219.83 1464.47 L1219.83 1460.21 L1228.1 1458.54 L1232.77 1458.54 L1232.77 1489.17 L1240.41 1489.17 L1240.41 1493.1 L1220.51 1493.1 L1220.51 1489.17 Z" fill="#000000" fill-rule="evenodd" fill-opacity="1" /><path clip-path="url(#clip910)" d="M 0 0 M1255.48 1461.62 Q1251.87 1461.62 1250.04 1465.19 Q1248.24 1468.73 1248.24 1475.86 Q1248.24 1482.97 1250.04 1486.53 Q1251.87 1490.07 1255.48 1490.07 Q1259.12 1490.07 1260.92 1486.53 Q1262.75 1482.97 1262.75 1475.86 Q1262.75 1468.73 1260.92 1465.19 Q1259.12 1461.62 1255.48 1461.62 M1255.48 1457.92 Q1261.29 1457.92 1264.35 1462.53 Q1267.43 1467.11 1267.43 1475.86 Q1267.43 1484.59 1264.35 1489.19 Q1261.29 1493.78 1255.48 1493.78 Q1249.67 1493.78 1246.59 1489.19 Q1243.54 1484.59 1243.54 1475.86 Q1243.54 1467.11 1246.59 1462.53 Q1249.67 1457.92 1255.48 1457.92 Z" fill="#000000" fill-rule="evenodd" fill-opacity="1" /><path clip-path="url(#clip910)" d="M 0 0 M1267.43 1452.02 L1291.54 1452.02 L1291.54 1455.22 L1267.43 1455.22 L1267.43 1452.02 Z" fill="#000000" fill-rule="evenodd" fill-opacity="1" /><path clip-path="url(#clip910)" d="M 0 0 M1307.17 1450.55 Q1309.89 1451.14 1311.42 1452.98 Q1312.96 1454.82 1312.96 1457.53 Q1312.96 1461.69 1310.1 1463.96 Q1307.24 1466.24 1301.98 1466.24 Q1300.21 1466.24 1298.33 1465.88 Q1296.47 1465.54 1294.47 1464.85 L1294.47 1461.18 Q1296.05 1462.1 1297.93 1462.57 Q1299.81 1463.04 1301.86 1463.04 Q1305.44 1463.04 1307.3 1461.63 Q1309.18 1460.22 1309.18 1457.53 Q1309.18 1455.05 1307.43 1453.66 Q1305.7 1452.25 1302.6 1452.25 L1299.32 1452.25 L1299.32 1449.12 L1302.75 1449.12 Q1305.55 1449.12 1307.04 1448.01 Q1308.52 1446.89 1308.52 1444.78 Q1308.52 1442.62 1306.98 1441.47 Q1305.46 1440.3 1302.6 1440.3 Q1301.04 1440.3 1299.25 1440.64 Q1297.46 1440.98 1295.32 1441.69 L1295.32 1438.31 Q1297.48 1437.71 1299.36 1437.41 Q1301.26 1437.11 1302.94 1437.11 Q1307.26 1437.11 1309.78 1439.08 Q1312.3 1441.04 1312.3 1444.38 Q1312.3 1446.72 1310.97 1448.33 Q1309.63 1449.93 1307.17 1450.55 Z" fill="#000000" fill-rule="evenodd" fill-opacity="1" /><path clip-path="url(#clip910)" d="M 0 0 M1317.08 1460.92 L1321.05 1460.92 L1321.05 1465.69 L1317.08 1465.69 L1317.08 1460.92 Z" fill="#000000" fill-rule="evenodd" fill-opacity="1" /><path clip-path="url(#clip910)" d="M 0 0 M1333.29 1440.11 Q1330.36 1440.11 1328.87 1443.01 Q1327.4 1445.89 1327.4 1451.68 Q1327.4 1457.46 1328.87 1460.35 Q1330.36 1463.23 1333.29 1463.23 Q1336.24 1463.23 1337.71 1460.35 Q1339.2 1457.46 1339.2 1451.68 Q1339.2 1445.89 1337.71 1443.01 Q1336.24 1440.11 1333.29 1440.11 M1333.29 1437.11 Q1338.01 1437.11 1340.49 1440.85 Q1343 1444.57 1343 1451.68 Q1343 1458.77 1340.49 1462.51 Q1338.01 1466.24 1333.29 1466.24 Q1328.57 1466.24 1326.07 1462.51 Q1323.59 1458.77 1323.59 1451.68 Q1323.59 1444.57 1326.07 1440.85 Q1328.57 1437.11 1333.29 1437.11 Z" fill="#000000" fill-rule="evenodd" fill-opacity="1" /><path clip-path="url(#clip910)" d="M 0 0 M1625.21 1489.17 L1632.85 1489.17 L1632.85 1462.8 L1624.54 1464.47 L1624.54 1460.21 L1632.8 1458.54 L1637.48 1458.54 L1637.48 1489.17 L1645.12 1489.17 L1645.12 1493.1 L1625.21 1493.1 L1625.21 1489.17 Z" fill="#000000" fill-rule="evenodd" fill-opacity="1" /><path clip-path="url(#clip910)" d="M 0 0 M1660.18 1461.62 Q1656.57 1461.62 1654.75 1465.19 Q1652.94 1468.73 1652.94 1475.86 Q1652.94 1482.97 1654.75 1486.53 Q1656.57 1490.07 1660.18 1490.07 Q1663.82 1490.07 1665.62 1486.53 Q1667.45 1482.97 1667.45 1475.86 Q1667.45 1468.73 1665.62 1465.19 Q1663.82 1461.62 1660.18 1461.62 M1660.18 1457.92 Q1666 1457.92 1669.05 1462.53 Q1672.13 1467.11 1672.13 1475.86 Q1672.13 1484.59 1669.05 1489.19 Q1666 1493.78 1660.18 1493.78 Q1654.37 1493.78 1651.3 1489.19 Q1648.24 1484.59 1648.24 1475.86 Q1648.24 1467.11 1651.3 1462.53 Q1654.37 1457.92 1660.18 1457.92 Z" fill="#000000" fill-rule="evenodd" fill-opacity="1" /><path clip-path="url(#clip910)" d="M 0 0 M1672.13 1452.02 L1696.24 1452.02 L1696.24 1455.22 L1672.13 1455.22 L1672.13 1452.02 Z" fill="#000000" fill-rule="evenodd" fill-opacity="1" /><path clip-path="url(#clip910)" d="M 0 0 M1703.63 1462.5 L1716.89 1462.5 L1716.89 1465.69 L1699.06 1465.69 L1699.06 1462.5 Q1701.22 1460.26 1704.95 1456.5 Q1708.69 1452.72 1709.65 1451.63 Q1711.48 1449.58 1712.19 1448.16 Q1712.92 1446.74 1712.92 1445.36 Q1712.92 1443.12 1711.34 1441.71 Q1709.78 1440.3 1707.26 1440.3 Q1705.48 1440.3 1703.48 1440.92 Q1701.51 1441.54 1699.25 1442.8 L1699.25 1438.97 Q1701.54 1438.05 1703.54 1437.58 Q1705.53 1437.11 1707.19 1437.11 Q1711.55 1437.11 1714.15 1439.29 Q1716.74 1441.47 1716.74 1445.12 Q1716.74 1446.85 1716.08 1448.41 Q1715.44 1449.95 1713.73 1452.06 Q1713.26 1452.6 1710.74 1455.22 Q1708.22 1457.81 1703.63 1462.5 Z" fill="#000000" fill-rule="evenodd" fill-opacity="1" /><path clip-path="url(#clip910)" d="M 0 0 M1721.01 1460.92 L1724.98 1460.92 L1724.98 1465.69 L1721.01 1465.69 L1721.01 1460.92 Z" fill="#000000" fill-rule="evenodd" fill-opacity="1" /><path clip-path="url(#clip910)" d="M 0 0 M1737.22 1452.36 Q1734.51 1452.36 1732.95 1453.81 Q1731.41 1455.26 1731.41 1457.79 Q1731.41 1460.33 1732.95 1461.78 Q1734.51 1463.23 1737.22 1463.23 Q1739.93 1463.23 1741.49 1461.78 Q1743.05 1460.31 1743.05 1457.79 Q1743.05 1455.26 1741.49 1453.81 Q1739.95 1452.36 1737.22 1452.36 M1733.42 1450.74 Q1730.98 1450.14 1729.61 1448.47 Q1728.25 1446.79 1728.25 1444.38 Q1728.25 1441.02 1730.64 1439.06 Q1733.05 1437.11 1737.22 1437.11 Q1741.42 1437.11 1743.81 1439.06 Q1746.19 1441.02 1746.19 1444.38 Q1746.19 1446.79 1744.82 1448.47 Q1743.47 1450.14 1741.04 1450.74 Q1743.79 1451.38 1745.31 1453.24 Q1746.85 1455.1 1746.85 1457.79 Q1746.85 1461.88 1744.35 1464.06 Q1741.87 1466.24 1737.22 1466.24 Q1732.58 1466.24 1730.08 1464.06 Q1727.59 1461.88 1727.59 1457.79 Q1727.59 1455.1 1729.14 1453.24 Q1730.68 1451.38 1733.42 1450.74 M1732.03 1444.74 Q1732.03 1446.92 1733.39 1448.15 Q1734.76 1449.37 1737.22 1449.37 Q1739.67 1449.37 1741.04 1448.15 Q1742.43 1446.92 1742.43 1444.74 Q1742.43 1442.56 1741.04 1441.34 Q1739.67 1440.11 1737.22 1440.11 Q1734.76 1440.11 1733.39 1441.34 Q1732.03 1442.56 1732.03 1444.74 Z" fill="#000000" fill-rule="evenodd" fill-opacity="1" /><path clip-path="url(#clip910)" d="M 0 0 M2029.38 1489.17 L2037.02 1489.17 L2037.02 1462.8 L2028.71 1464.47 L2028.71 1460.21 L2036.98 1458.54 L2041.65 1458.54 L2041.65 1489.17 L2049.29 1489.17 L2049.29 1493.1 L2029.38 1493.1 L2029.38 1489.17 Z" fill="#000000" fill-rule="evenodd" fill-opacity="1" /><path clip-path="url(#clip910)" d="M 0 0 M2064.36 1461.62 Q2060.75 1461.62 2058.92 1465.19 Q2057.12 1468.73 2057.12 1475.86 Q2057.12 1482.97 2058.92 1486.53 Q2060.75 1490.07 2064.36 1490.07 Q2068 1490.07 2069.8 1486.53 Q2071.63 1482.97 2071.63 1475.86 Q2071.63 1468.73 2069.8 1465.19 Q2068 1461.62 2064.36 1461.62 M2064.36 1457.92 Q2070.17 1457.92 2073.23 1462.53 Q2076.31 1467.11 2076.31 1475.86 Q2076.31 1484.59 2073.23 1489.19 Q2070.17 1493.78 2064.36 1493.78 Q2058.55 1493.78 2055.47 1489.19 Q2052.42 1484.59 2052.42 1475.86 Q2052.42 1467.11 2055.47 1462.53 Q2058.55 1457.92 2064.36 1457.92 Z" fill="#000000" fill-rule="evenodd" fill-opacity="1" /><path clip-path="url(#clip910)" d="M 0 0 M2076.31 1452.02 L2100.42 1452.02 L2100.42 1455.22 L2076.31 1455.22 L2076.31 1452.02 Z" fill="#000000" fill-rule="evenodd" fill-opacity="1" /><path clip-path="url(#clip910)" d="M 0 0 M2107.81 1462.5 L2121.07 1462.5 L2121.07 1465.69 L2103.24 1465.69 L2103.24 1462.5 Q2105.4 1460.26 2109.12 1456.5 Q2112.87 1452.72 2113.83 1451.63 Q2115.65 1449.58 2116.37 1448.16 Q2117.1 1446.74 2117.1 1445.36 Q2117.1 1443.12 2115.52 1441.71 Q2113.96 1440.3 2111.44 1440.3 Q2109.65 1440.3 2107.66 1440.92 Q2105.68 1441.54 2103.43 1442.8 L2103.43 1438.97 Q2105.72 1438.05 2107.71 1437.58 Q2109.71 1437.11 2111.36 1437.11 Q2115.73 1437.11 2118.32 1439.29 Q2120.92 1441.47 2120.92 1445.12 Q2120.92 1446.85 2120.26 1448.41 Q2119.62 1449.95 2117.91 1452.06 Q2117.44 1452.6 2114.92 1455.22 Q2112.4 1457.81 2107.81 1462.5 Z" fill="#000000" fill-rule="evenodd" fill-opacity="1" /><path clip-path="url(#clip910)" d="M 0 0 M2125.19 1460.92 L2129.16 1460.92 L2129.16 1465.69 L2125.19 1465.69 L2125.19 1460.92 Z" fill="#000000" fill-rule="evenodd" fill-opacity="1" /><path clip-path="url(#clip910)" d="M 0 0 M2141.87 1450.14 Q2139.31 1450.14 2137.81 1451.89 Q2136.32 1453.64 2136.32 1456.68 Q2136.32 1459.71 2137.81 1461.48 Q2139.31 1463.23 2141.87 1463.23 Q2144.43 1463.23 2145.91 1461.48 Q2147.42 1459.71 2147.42 1456.68 Q2147.42 1453.64 2145.91 1451.89 Q2144.43 1450.14 2141.87 1450.14 M2149.41 1438.23 L2149.41 1441.69 Q2147.98 1441.02 2146.51 1440.66 Q2145.07 1440.3 2143.64 1440.3 Q2139.88 1440.3 2137.88 1442.84 Q2135.91 1445.38 2135.63 1450.52 Q2136.73 1448.88 2138.41 1448.01 Q2140.08 1447.13 2142.09 1447.13 Q2146.33 1447.13 2148.77 1449.71 Q2151.24 1452.26 2151.24 1456.68 Q2151.24 1461.01 2148.68 1463.62 Q2146.12 1466.24 2141.87 1466.24 Q2137 1466.24 2134.42 1462.51 Q2131.84 1458.77 2131.84 1451.68 Q2131.84 1445.02 2135 1441.07 Q2138.16 1437.11 2143.49 1437.11 Q2144.92 1437.11 2146.36 1437.39 Q2147.83 1437.67 2149.41 1438.23 Z" fill="#000000" fill-rule="evenodd" fill-opacity="1" /><path clip-path="url(#clip910)" d="M 0 0 M1173.69 1526.54 L1179.9 1526.54 L1191.04 1556.46 L1202.18 1526.54 L1208.38 1526.54 L1195.02 1562.19 L1187.06 1562.19 L1173.69 1526.54 Z" fill="#000000" fill-rule="evenodd" fill-opacity="1" /><path clip-path="url(#clip910)" d="M 0 0 M1241.61 1573.01 L1241.61 1577.56 L1207.75 1577.56 L1207.75 1573.01 L1241.61 1573.01 Z" fill="#000000" fill-rule="evenodd" fill-opacity="1" /><path clip-path="url(#clip910)" d="M 0 0 M1273.41 1527.91 L1273.41 1533.38 Q1270.93 1532.01 1268.41 1531.34 Q1265.93 1530.64 1263.38 1530.64 Q1257.69 1530.64 1254.54 1534.27 Q1251.39 1537.87 1251.39 1544.39 Q1251.39 1550.92 1254.54 1554.55 Q1257.69 1558.14 1263.38 1558.14 Q1265.93 1558.14 1268.41 1557.47 Q1270.93 1556.77 1273.41 1555.41 L1273.41 1560.82 Q1270.96 1561.96 1268.32 1562.54 Q1265.71 1563.11 1262.75 1563.11 Q1254.7 1563.11 1249.95 1558.05 Q1245.21 1552.99 1245.21 1544.39 Q1245.21 1535.67 1249.98 1530.68 Q1254.79 1525.68 1263.13 1525.68 Q1265.84 1525.68 1268.41 1526.25 Q1270.99 1526.79 1273.41 1527.91 Z" fill="#000000" fill-rule="evenodd" fill-opacity="1" /><path clip-path="url(#clip910)" d="M 0 0 M1279.55 1512.66 L1285.41 1512.66 L1285.41 1562.19 L1279.55 1562.19 L1279.55 1512.66 Z" fill="#000000" fill-rule="evenodd" fill-opacity="1" /><path clip-path="url(#clip910)" d="M 0 0 M1305.37 1530.64 Q1300.66 1530.64 1297.92 1534.34 Q1295.18 1538 1295.18 1544.39 Q1295.18 1550.79 1297.89 1554.48 Q1300.62 1558.14 1305.37 1558.14 Q1310.05 1558.14 1312.78 1554.45 Q1315.52 1550.76 1315.52 1544.39 Q1315.52 1538.06 1312.78 1534.37 Q1310.05 1530.64 1305.37 1530.64 M1305.37 1525.68 Q1313.01 1525.68 1317.37 1530.64 Q1321.73 1535.61 1321.73 1544.39 Q1321.73 1553.15 1317.37 1558.14 Q1313.01 1563.11 1305.37 1563.11 Q1297.7 1563.11 1293.34 1558.14 Q1289.01 1553.15 1289.01 1544.39 Q1289.01 1535.61 1293.34 1530.64 Q1297.7 1525.68 1305.37 1525.68 Z" fill="#000000" fill-rule="evenodd" fill-opacity="1" /><path clip-path="url(#clip910)" d="M 0 0 M1350.59 1527.59 L1350.59 1533.13 Q1348.11 1531.85 1345.44 1531.22 Q1342.76 1530.58 1339.9 1530.58 Q1335.54 1530.58 1333.34 1531.92 Q1331.18 1533.25 1331.18 1535.93 Q1331.18 1537.96 1332.74 1539.14 Q1334.3 1540.29 1339.01 1541.34 L1341.01 1541.78 Q1347.25 1543.12 1349.86 1545.57 Q1352.5 1547.99 1352.5 1552.35 Q1352.5 1557.32 1348.56 1560.21 Q1344.64 1563.11 1337.77 1563.11 Q1334.9 1563.11 1331.78 1562.54 Q1328.7 1561.99 1325.26 1560.88 L1325.26 1554.83 Q1328.51 1556.52 1331.66 1557.38 Q1334.81 1558.21 1337.9 1558.21 Q1342.03 1558.21 1344.26 1556.81 Q1346.49 1555.37 1346.49 1552.8 Q1346.49 1550.41 1344.87 1549.14 Q1343.27 1547.86 1337.83 1546.68 L1335.79 1546.21 Q1330.35 1545.06 1327.93 1542.71 Q1325.51 1540.32 1325.51 1536.18 Q1325.51 1531.15 1329.08 1528.42 Q1332.64 1525.68 1339.2 1525.68 Q1342.45 1525.68 1345.31 1526.16 Q1348.18 1526.63 1350.59 1527.59 Z" fill="#000000" fill-rule="evenodd" fill-opacity="1" /><path clip-path="url(#clip910)" d="M 0 0 M1389.14 1542.9 L1389.14 1545.76 L1362.21 1545.76 Q1362.59 1551.81 1365.84 1554.99 Q1369.12 1558.14 1374.94 1558.14 Q1378.32 1558.14 1381.47 1557.32 Q1384.65 1556.49 1387.77 1554.83 L1387.77 1560.37 Q1384.62 1561.71 1381.31 1562.41 Q1378 1563.11 1374.59 1563.11 Q1366.06 1563.11 1361.07 1558.14 Q1356.1 1553.18 1356.1 1544.71 Q1356.1 1535.96 1360.81 1530.83 Q1365.55 1525.68 1373.57 1525.68 Q1380.77 1525.68 1384.94 1530.33 Q1389.14 1534.94 1389.14 1542.9 M1383.28 1541.18 Q1383.22 1536.37 1380.58 1533.51 Q1377.97 1530.64 1373.64 1530.64 Q1368.74 1530.64 1365.78 1533.41 Q1362.85 1536.18 1362.4 1541.21 L1383.28 1541.18 Z" fill="#000000" fill-rule="evenodd" fill-opacity="1" /><polyline clip-path="url(#clip912)" style="stroke:#000000; stroke-width:2; stroke-opacity:0.1; fill:none" points="
  210.075,1283.32 2352.76,1283.32 
  "/>
<polyline clip-path="url(#clip912)" style="stroke:#000000; stroke-width:2; stroke-opacity:0.1; fill:none" points="
  210.075,896.005 2352.76,896.005 
  "/>
<polyline clip-path="url(#clip912)" style="stroke:#000000; stroke-width:2; stroke-opacity:0.1; fill:none" points="
  210.075,508.692 2352.76,508.692 
  "/>
<polyline clip-path="url(#clip912)" style="stroke:#000000; stroke-width:2; stroke-opacity:0.1; fill:none" points="
  210.075,121.379 2352.76,121.379 
  "/>
<polyline clip-path="url(#clip910)" style="stroke:#000000; stroke-width:4; stroke-opacity:1; fill:none" points="
  210.075,1410.9 210.075,47.2441 
  "/>
<polyline clip-path="url(#clip910)" style="stroke:#000000; stroke-width:4; stroke-opacity:1; fill:none" points="
  210.075,1283.32 235.787,1283.32 
  "/>
<polyline clip-path="url(#clip910)" style="stroke:#000000; stroke-width:4; stroke-opacity:1; fill:none" points="
  210.075,896.005 235.787,896.005 
  "/>
<polyline clip-path="url(#clip910)" style="stroke:#000000; stroke-width:4; stroke-opacity:1; fill:none" points="
  210.075,508.692 235.787,508.692 
  "/>
<polyline clip-path="url(#clip910)" style="stroke:#000000; stroke-width:4; stroke-opacity:1; fill:none" points="
  210.075,121.379 235.787,121.379 
  "/>
<path clip-path="url(#clip910)" d="M 0 0 M116.853 1266.04 L135.209 1266.04 L135.209 1269.97 L121.135 1269.97 L121.135 1278.45 Q122.154 1278.1 123.172 1277.94 Q124.191 1277.75 125.209 1277.75 Q130.996 1277.75 134.376 1280.92 Q137.755 1284.09 137.755 1289.51 Q137.755 1295.09 134.283 1298.19 Q130.811 1301.27 124.492 1301.27 Q122.316 1301.27 120.047 1300.9 Q117.802 1300.53 115.394 1299.79 L115.394 1295.09 Q117.478 1296.22 119.7 1296.78 Q121.922 1297.33 124.399 1297.33 Q128.404 1297.33 130.742 1295.23 Q133.08 1293.12 133.08 1289.51 Q133.08 1285.9 130.742 1283.79 Q128.404 1281.69 124.399 1281.69 Q122.524 1281.69 120.649 1282.1 Q118.797 1282.52 116.853 1283.4 L116.853 1266.04 Z" fill="#000000" fill-rule="evenodd" fill-opacity="1" /><path clip-path="url(#clip910)" d="M 0 0 M142.825 1294.72 L147.709 1294.72 L147.709 1300.6 L142.825 1300.6 L142.825 1294.72 Z" fill="#000000" fill-rule="evenodd" fill-opacity="1" /><path clip-path="url(#clip910)" d="M 0 0 M166.945 1281.96 Q170.302 1282.68 172.177 1284.95 Q174.075 1287.22 174.075 1290.55 Q174.075 1295.67 170.556 1298.47 Q167.038 1301.27 160.556 1301.27 Q158.38 1301.27 156.065 1300.83 Q153.774 1300.41 151.32 1299.56 L151.32 1295.04 Q153.265 1296.18 155.579 1296.76 Q157.894 1297.33 160.417 1297.33 Q164.815 1297.33 167.107 1295.6 Q169.422 1293.86 169.422 1290.55 Q169.422 1287.5 167.269 1285.78 Q165.14 1284.05 161.32 1284.05 L157.292 1284.05 L157.292 1280.2 L161.505 1280.2 Q164.954 1280.2 166.783 1278.84 Q168.612 1277.45 168.612 1274.86 Q168.612 1272.2 166.714 1270.78 Q164.839 1269.35 161.32 1269.35 Q159.399 1269.35 157.2 1269.77 Q155.001 1270.18 152.362 1271.06 L152.362 1266.89 Q155.024 1266.15 157.339 1265.78 Q159.677 1265.41 161.737 1265.41 Q167.061 1265.41 170.163 1267.84 Q173.264 1270.25 173.264 1274.37 Q173.264 1277.24 171.621 1279.23 Q169.977 1281.2 166.945 1281.96 Z" fill="#000000" fill-rule="evenodd" fill-opacity="1" /><path clip-path="url(#clip910)" d="M 0 0 M115.718 878.725 L134.075 878.725 L134.075 882.66 L120.001 882.66 L120.001 891.132 Q121.019 890.785 122.038 890.623 Q123.056 890.438 124.075 890.438 Q129.862 890.438 133.242 893.609 Q136.621 896.781 136.621 902.197 Q136.621 907.776 133.149 910.878 Q129.677 913.956 123.357 913.956 Q121.181 913.956 118.913 913.586 Q116.668 913.216 114.26 912.475 L114.26 907.776 Q116.343 908.91 118.566 909.466 Q120.788 910.021 123.265 910.021 Q127.269 910.021 129.607 907.915 Q131.945 905.808 131.945 902.197 Q131.945 898.586 129.607 896.48 Q127.269 894.373 123.265 894.373 Q121.39 894.373 119.515 894.79 Q117.663 895.206 115.718 896.086 L115.718 878.725 Z" fill="#000000" fill-rule="evenodd" fill-opacity="1" /><path clip-path="url(#clip910)" d="M 0 0 M141.691 907.405 L146.575 907.405 L146.575 913.285 L141.691 913.285 L141.691 907.405 Z" fill="#000000" fill-rule="evenodd" fill-opacity="1" /><path clip-path="url(#clip910)" d="M 0 0 M164.491 882.799 L152.686 901.248 L164.491 901.248 L164.491 882.799 M163.265 878.725 L169.144 878.725 L169.144 901.248 L174.075 901.248 L174.075 905.137 L169.144 905.137 L169.144 913.285 L164.491 913.285 L164.491 905.137 L148.89 905.137 L148.89 900.623 L163.265 878.725 Z" fill="#000000" fill-rule="evenodd" fill-opacity="1" /><path clip-path="url(#clip910)" d="M 0 0 M117.2 491.412 L135.556 491.412 L135.556 495.347 L121.482 495.347 L121.482 503.819 Q122.501 503.472 123.519 503.31 Q124.538 503.125 125.556 503.125 Q131.343 503.125 134.723 506.296 Q138.103 509.467 138.103 514.884 Q138.103 520.463 134.63 523.564 Q131.158 526.643 124.839 526.643 Q122.663 526.643 120.394 526.273 Q118.149 525.902 115.742 525.162 L115.742 520.463 Q117.825 521.597 120.047 522.152 Q122.269 522.708 124.746 522.708 Q128.751 522.708 131.089 520.601 Q133.427 518.495 133.427 514.884 Q133.427 511.273 131.089 509.166 Q128.751 507.06 124.746 507.06 Q122.871 507.06 120.996 507.477 Q119.144 507.893 117.2 508.773 L117.2 491.412 Z" fill="#000000" fill-rule="evenodd" fill-opacity="1" /><path clip-path="url(#clip910)" d="M 0 0 M143.172 520.092 L148.056 520.092 L148.056 525.972 L143.172 525.972 L143.172 520.092 Z" fill="#000000" fill-rule="evenodd" fill-opacity="1" /><path clip-path="url(#clip910)" d="M 0 0 M153.172 491.412 L171.528 491.412 L171.528 495.347 L157.454 495.347 L157.454 503.819 Q158.473 503.472 159.491 503.31 Q160.51 503.125 161.528 503.125 Q167.315 503.125 170.695 506.296 Q174.075 509.467 174.075 514.884 Q174.075 520.463 170.602 523.564 Q167.13 526.643 160.811 526.643 Q158.635 526.643 156.366 526.273 Q154.121 525.902 151.714 525.162 L151.714 520.463 Q153.797 521.597 156.019 522.152 Q158.241 522.708 160.718 522.708 Q164.723 522.708 167.061 520.601 Q169.399 518.495 169.399 514.884 Q169.399 511.273 167.061 509.166 Q164.723 507.06 160.718 507.06 Q158.843 507.06 156.968 507.477 Q155.116 507.893 153.172 508.773 L153.172 491.412 Z" fill="#000000" fill-rule="evenodd" fill-opacity="1" /><path clip-path="url(#clip910)" d="M 0 0 M116.043 104.099 L134.399 104.099 L134.399 108.034 L120.325 108.034 L120.325 116.506 Q121.343 116.159 122.362 115.997 Q123.38 115.811 124.399 115.811 Q130.186 115.811 133.566 118.983 Q136.945 122.154 136.945 127.571 Q136.945 133.149 133.473 136.251 Q130.001 139.33 123.681 139.33 Q121.505 139.33 119.237 138.959 Q116.992 138.589 114.584 137.848 L114.584 133.149 Q116.668 134.284 118.89 134.839 Q121.112 135.395 123.589 135.395 Q127.593 135.395 129.931 133.288 Q132.269 131.182 132.269 127.571 Q132.269 123.96 129.931 121.853 Q127.593 119.747 123.589 119.747 Q121.714 119.747 119.839 120.163 Q117.987 120.58 116.043 121.46 L116.043 104.099 Z" fill="#000000" fill-rule="evenodd" fill-opacity="1" /><path clip-path="url(#clip910)" d="M 0 0 M142.015 132.779 L146.899 132.779 L146.899 138.659 L142.015 138.659 L142.015 132.779 Z" fill="#000000" fill-rule="evenodd" fill-opacity="1" /><path clip-path="url(#clip910)" d="M 0 0 M162.547 119.515 Q159.399 119.515 157.547 121.668 Q155.718 123.821 155.718 127.571 Q155.718 131.297 157.547 133.473 Q159.399 135.626 162.547 135.626 Q165.695 135.626 167.524 133.473 Q169.376 131.297 169.376 127.571 Q169.376 123.821 167.524 121.668 Q165.695 119.515 162.547 119.515 M171.829 104.862 L171.829 109.122 Q170.07 108.288 168.264 107.848 Q166.482 107.409 164.723 107.409 Q160.093 107.409 157.64 110.534 Q155.209 113.659 154.862 119.978 Q156.228 117.964 158.288 116.899 Q160.348 115.811 162.825 115.811 Q168.033 115.811 171.042 118.983 Q174.075 122.131 174.075 127.571 Q174.075 132.895 170.927 136.112 Q167.778 139.33 162.547 139.33 Q156.552 139.33 153.38 134.747 Q150.209 130.14 150.209 121.413 Q150.209 113.219 154.098 108.358 Q157.987 103.474 164.538 103.474 Q166.297 103.474 168.079 103.821 Q169.885 104.168 171.829 104.862 Z" fill="#000000" fill-rule="evenodd" fill-opacity="1" /><path clip-path="url(#clip910)" d="M 0 0 M59.1993 815.533 Q55.2526 813.336 53.3747 810.281 Q51.4968 807.225 51.4968 803.088 Q51.4968 797.518 55.4117 794.494 Q59.2948 791.47 66.4881 791.47 L88.0042 791.47 L88.0042 797.358 L66.679 797.358 Q61.5546 797.358 59.072 799.173 Q56.5894 800.987 56.5894 804.711 Q56.5894 809.262 59.6131 811.904 Q62.6368 814.546 67.8567 814.546 L88.0042 814.546 L88.0042 820.434 L66.679 820.434 Q61.5228 820.434 59.072 822.248 Q56.5894 824.063 56.5894 827.85 Q56.5894 832.338 59.6449 834.98 Q62.6686 837.622 67.8567 837.622 L88.0042 837.622 L88.0042 843.51 L52.3562 843.51 L52.3562 837.622 L57.8944 837.622 Q54.616 835.616 53.0564 832.815 Q51.4968 830.015 51.4968 826.163 Q51.4968 822.28 53.4702 819.575 Q55.4436 816.838 59.1993 815.533 Z" fill="#000000" fill-rule="evenodd" fill-opacity="1" /><path clip-path="url(#clip910)" d="M 0 0 M52.3562 785.327 L52.3562 779.471 L88.0042 779.471 L88.0042 785.327 L52.3562 785.327 M38.479 785.327 L38.479 779.471 L45.895 779.471 L45.895 785.327 L38.479 785.327 Z" fill="#000000" fill-rule="evenodd" fill-opacity="1" /><path clip-path="url(#clip910)" d="M 0 0 M66.4881 743.696 L88.0042 743.696 L88.0042 749.552 L66.679 749.552 Q61.6183 749.552 59.1038 751.525 Q56.5894 753.499 56.5894 757.446 Q56.5894 762.188 59.6131 764.925 Q62.6368 767.662 67.8567 767.662 L88.0042 767.662 L88.0042 773.551 L52.3562 773.551 L52.3562 767.662 L57.8944 767.662 Q54.6797 765.562 53.0883 762.729 Q51.4968 759.864 51.4968 756.141 Q51.4968 749.998 55.3163 746.847 Q59.1038 743.696 66.4881 743.696 Z" fill="#000000" fill-rule="evenodd" fill-opacity="1" /><path clip-path="url(#clip910)" d="M 0 0 M98.8259 710.467 L103.377 710.467 L103.377 744.332 L98.8259 744.332 L98.8259 710.467 Z" fill="#000000" fill-rule="evenodd" fill-opacity="1" /><path clip-path="url(#clip910)" d="M 0 0 M57.7671 680.866 L38.479 680.866 L38.479 675.01 L88.0042 675.01 L88.0042 680.866 L82.657 680.866 Q85.8398 682.712 87.3994 685.545 Q88.9272 688.346 88.9272 692.292 Q88.9272 698.754 83.771 702.828 Q78.6147 706.87 70.212 706.87 Q61.8093 706.87 56.6531 702.828 Q51.4968 698.754 51.4968 692.292 Q51.4968 688.346 53.0564 685.545 Q54.5842 682.712 57.7671 680.866 M70.212 700.823 Q76.6732 700.823 80.3653 698.181 Q84.0256 695.507 84.0256 690.86 Q84.0256 686.213 80.3653 683.54 Q76.6732 680.866 70.212 680.866 Q63.7508 680.866 60.0905 683.54 Q56.3984 686.213 56.3984 690.86 Q56.3984 695.507 60.0905 698.181 Q63.7508 700.823 70.212 700.823 Z" fill="#000000" fill-rule="evenodd" fill-opacity="1" /><path clip-path="url(#clip910)" d="M 0 0 M52.3562 668.867 L52.3562 663.01 L88.0042 663.01 L88.0042 668.867 L52.3562 668.867 M38.479 668.867 L38.479 663.01 L45.895 663.01 L45.895 668.867 L38.479 668.867 Z" fill="#000000" fill-rule="evenodd" fill-opacity="1" /><path clip-path="url(#clip910)" d="M 0 0 M38.479 638.821 L43.3487 638.821 L43.3487 644.422 Q43.3487 647.573 44.6219 648.815 Q45.895 650.024 49.2052 650.024 L52.3562 650.024 L52.3562 640.38 L56.9077 640.38 L56.9077 650.024 L88.0042 650.024 L88.0042 655.912 L56.9077 655.912 L56.9077 661.514 L52.3562 661.514 L52.3562 655.912 L49.8736 655.912 Q43.9216 655.912 41.2162 653.143 Q38.479 650.374 38.479 644.359 L38.479 638.821 Z" fill="#000000" fill-rule="evenodd" fill-opacity="1" /><path clip-path="url(#clip910)" d="M 0 0 M38.479 614.631 L43.3487 614.631 L43.3487 620.233 Q43.3487 623.384 44.6219 624.625 Q45.895 625.835 49.2052 625.835 L52.3562 625.835 L52.3562 616.19 L56.9077 616.19 L56.9077 625.835 L88.0042 625.835 L88.0042 631.723 L56.9077 631.723 L56.9077 637.325 L52.3562 637.325 L52.3562 631.723 L49.8736 631.723 Q43.9216 631.723 41.2162 628.954 Q38.479 626.185 38.479 620.169 L38.479 614.631 Z" fill="#000000" fill-rule="evenodd" fill-opacity="1" /><polyline clip-path="url(#clip912)" style="stroke:#009af9; stroke-width:20; stroke-opacity:1; fill:none" stroke-dasharray="80, 50" points="
  270.717,586.856 1281.42,1372.3 2292.11,85.838 
  "/>
<path clip-path="url(#clip910)" d="
M1992.24 213.659 L2281.33 213.659 L2281.33 92.6992 L1992.24 92.6992  Z
  " fill="#ffffff" fill-rule="evenodd" fill-opacity="1"/>
<polyline clip-path="url(#clip910)" style="stroke:#000000; stroke-width:4; stroke-opacity:1; fill:none" points="
  1992.24,213.659 2281.33,213.659 2281.33,92.6992 1992.24,92.6992 1992.24,213.659 
  "/>
<polyline clip-path="url(#clip910)" style="stroke:#009af9; stroke-width:4; stroke-opacity:1; fill:none" stroke-dasharray="16, 10" points="
  2016.05,153.179 2158.89,153.179 
  "/>
<path clip-path="url(#clip910)" d="M 0 0 M2196.54 172.867 Q2194.74 177.496 2193.02 178.908 Q2191.31 180.32 2188.44 180.32 L2185.04 180.32 L2185.04 176.755 L2187.54 176.755 Q2189.3 176.755 2190.27 175.922 Q2191.24 175.089 2192.42 171.987 L2193.19 170.043 L2182.7 144.533 L2187.21 144.533 L2195.32 164.811 L2203.42 144.533 L2207.93 144.533 L2196.54 172.867 Z" fill="#000000" fill-rule="evenodd" fill-opacity="1" /><path clip-path="url(#clip910)" d="M 0 0 M2213.81 166.524 L2221.45 166.524 L2221.45 140.158 L2213.14 141.825 L2213.14 137.566 L2221.4 135.899 L2226.08 135.899 L2226.08 166.524 L2233.72 166.524 L2233.72 170.459 L2213.81 170.459 L2213.81 166.524 Z" fill="#000000" fill-rule="evenodd" fill-opacity="1" /></svg>
