<?xml version="1.0" encoding="utf-8"?>
<svg xmlns="http://www.w3.org/2000/svg" xmlns:xlink="http://www.w3.org/1999/xlink" width="600" height="400" viewBox="0 0 2400 1600">
<defs>
  <clipPath id="clip630">
    <rect x="0" y="0" width="2400" height="1600"/>
  </clipPath>
</defs>
<path clip-path="url(#clip630)" d="
M0 1600 L2400 1600 L2400 0 L0 0  Z
  " fill="#ffffff" fill-rule="evenodd" fill-opacity="1"/>
<defs>
  <clipPath id="clip631">
    <rect x="480" y="0" width="1681" height="1600"/>
  </clipPath>
</defs>
<path clip-path="url(#clip630)" d="
M211.093 1410.9 L2352.76 1410.9 L2352.76 47.2441 L211.093 47.2441  Z
  " fill="#ffffff" fill-rule="evenodd" fill-opacity="1"/>
<defs>
  <clipPath id="clip632">
    <rect x="211" y="47" width="2143" height="1365"/>
  </clipPath>
</defs>
<polyline clip-path="url(#clip632)" style="stroke:#000000; stroke-width:2; stroke-opacity:0.1; fill:none" points="
  271.706,1410.9 271.706,47.2441 
  "/>
<polyline clip-path="url(#clip632)" style="stroke:#000000; stroke-width:2; stroke-opacity:0.1; fill:none" points="
  776.815,1410.9 776.815,47.2441 
  "/>
<polyline clip-path="url(#clip632)" style="stroke:#000000; stroke-width:2; stroke-opacity:0.1; fill:none" points="
  1281.92,1410.9 1281.92,47.2441 
  "/>
<polyline clip-path="url(#clip632)" style="stroke:#000000; stroke-width:2; stroke-opacity:0.1; fill:none" points="
  1787.03,1410.9 1787.03,47.2441 
  "/>
<polyline clip-path="url(#clip632)" style="stroke:#000000; stroke-width:2; stroke-opacity:0.1; fill:none" points="
  2292.14,1410.9 2292.14,47.2441 
  "/>
<polyline clip-path="url(#clip630)" style="stroke:#000000; stroke-width:4; stroke-opacity:1; fill:none" points="
  211.093,1410.9 2352.76,1410.9 
  "/>
<polyline clip-path="url(#clip630)" style="stroke:#000000; stroke-width:4; stroke-opacity:1; fill:none" points="
  271.706,1410.9 271.706,1394.53 
  "/>
<polyline clip-path="url(#clip630)" style="stroke:#000000; stroke-width:4; stroke-opacity:1; fill:none" points="
  776.815,1410.9 776.815,1394.53 
  "/>
<polyline clip-path="url(#clip630)" style="stroke:#000000; stroke-width:4; stroke-opacity:1; fill:none" points="
  1281.92,1410.9 1281.92,1394.53 
  "/>
<polyline clip-path="url(#clip630)" style="stroke:#000000; stroke-width:4; stroke-opacity:1; fill:none" points="
  1787.03,1410.9 1787.03,1394.53 
  "/>
<polyline clip-path="url(#clip630)" style="stroke:#000000; stroke-width:4; stroke-opacity:1; fill:none" points="
  2292.14,1410.9 2292.14,1394.53 
  "/>
<path clip-path="url(#clip630)" d="M 0 0 M210.467 1489.17 L218.106 1489.17 L218.106 1462.8 L209.796 1464.47 L209.796 1460.21 L218.06 1458.54 L222.736 1458.54 L222.736 1489.17 L230.375 1489.17 L230.375 1493.1 L210.467 1493.1 L210.467 1489.17 Z" fill="#000000" fill-rule="evenodd" fill-opacity="1" /><path clip-path="url(#clip630)" d="M 0 0 M245.444 1461.62 Q241.833 1461.62 240.004 1465.19 Q238.199 1468.73 238.199 1475.86 Q238.199 1482.97 240.004 1486.53 Q241.833 1490.07 245.444 1490.07 Q249.078 1490.07 250.884 1486.53 Q252.713 1482.97 252.713 1475.86 Q252.713 1468.73 250.884 1465.19 Q249.078 1461.62 245.444 1461.62 M245.444 1457.92 Q251.254 1457.92 254.31 1462.53 Q257.388 1467.11 257.388 1475.86 Q257.388 1484.59 254.31 1489.19 Q251.254 1493.78 245.444 1493.78 Q239.634 1493.78 236.555 1489.19 Q233.5 1484.59 233.5 1475.86 Q233.5 1467.11 236.555 1462.53 Q239.634 1457.92 245.444 1457.92 Z" fill="#000000" fill-rule="evenodd" fill-opacity="1" /><path clip-path="url(#clip630)" d="M 0 0 M257.388 1452.02 L281.5 1452.02 L281.5 1455.22 L257.388 1455.22 L257.388 1452.02 Z" fill="#000000" fill-rule="evenodd" fill-opacity="1" /><path clip-path="url(#clip630)" d="M 0 0 M294.214 1450.14 Q291.656 1450.14 290.152 1451.89 Q288.666 1453.64 288.666 1456.68 Q288.666 1459.71 290.152 1461.48 Q291.656 1463.23 294.214 1463.23 Q296.772 1463.23 298.258 1461.48 Q299.762 1459.71 299.762 1456.68 Q299.762 1453.64 298.258 1451.89 Q296.772 1450.14 294.214 1450.14 M301.756 1438.23 L301.756 1441.69 Q300.327 1441.02 298.86 1440.66 Q297.411 1440.3 295.982 1440.3 Q292.22 1440.3 290.227 1442.84 Q288.252 1445.38 287.97 1450.52 Q289.08 1448.88 290.753 1448.01 Q292.427 1447.13 294.44 1447.13 Q298.672 1447.13 301.117 1449.71 Q303.58 1452.26 303.58 1456.68 Q303.58 1461.01 301.023 1463.62 Q298.465 1466.24 294.214 1466.24 Q289.343 1466.24 286.766 1462.51 Q284.19 1458.77 284.19 1451.68 Q284.19 1445.02 287.349 1441.07 Q290.509 1437.11 295.832 1437.11 Q297.261 1437.11 298.709 1437.39 Q300.176 1437.67 301.756 1438.23 Z" fill="#000000" fill-rule="evenodd" fill-opacity="1" /><path clip-path="url(#clip630)" d="M 0 0 M307.699 1460.92 L311.668 1460.92 L311.668 1465.69 L307.699 1465.69 L307.699 1460.92 Z" fill="#000000" fill-rule="evenodd" fill-opacity="1" /><path clip-path="url(#clip630)" d="M 0 0 M323.912 1440.11 Q320.978 1440.11 319.492 1443.01 Q318.025 1445.89 318.025 1451.68 Q318.025 1457.46 319.492 1460.35 Q320.978 1463.23 323.912 1463.23 Q326.864 1463.23 328.331 1460.35 Q329.817 1457.46 329.817 1451.68 Q329.817 1445.89 328.331 1443.01 Q326.864 1440.11 323.912 1440.11 M323.912 1437.11 Q328.632 1437.11 331.115 1440.85 Q333.616 1444.57 333.616 1451.68 Q333.616 1458.77 331.115 1462.51 Q328.632 1466.24 323.912 1466.24 Q319.191 1466.24 316.689 1462.51 Q314.207 1458.77 314.207 1451.68 Q314.207 1444.57 316.689 1440.85 Q319.191 1437.11 323.912 1437.11 Z" fill="#000000" fill-rule="evenodd" fill-opacity="1" /><path clip-path="url(#clip630)" d="M 0 0 M716.451 1489.17 L724.09 1489.17 L724.09 1462.8 L715.78 1464.47 L715.78 1460.21 L724.044 1458.54 L728.72 1458.54 L728.72 1489.17 L736.358 1489.17 L736.358 1493.1 L716.451 1493.1 L716.451 1489.17 Z" fill="#000000" fill-rule="evenodd" fill-opacity="1" /><path clip-path="url(#clip630)" d="M 0 0 M751.428 1461.62 Q747.817 1461.62 745.988 1465.19 Q744.182 1468.73 744.182 1475.86 Q744.182 1482.97 745.988 1486.53 Q747.817 1490.07 751.428 1490.07 Q755.062 1490.07 756.868 1486.53 Q758.696 1482.97 758.696 1475.86 Q758.696 1468.73 756.868 1465.19 Q755.062 1461.62 751.428 1461.62 M751.428 1457.92 Q757.238 1457.92 760.293 1462.53 Q763.372 1467.11 763.372 1475.86 Q763.372 1484.59 760.293 1489.19 Q757.238 1493.78 751.428 1493.78 Q745.618 1493.78 742.539 1489.19 Q739.483 1484.59 739.483 1475.86 Q739.483 1467.11 742.539 1462.53 Q745.618 1457.92 751.428 1457.92 Z" fill="#000000" fill-rule="evenodd" fill-opacity="1" /><path clip-path="url(#clip630)" d="M 0 0 M763.372 1452.02 L787.484 1452.02 L787.484 1455.22 L763.372 1455.22 L763.372 1452.02 Z" fill="#000000" fill-rule="evenodd" fill-opacity="1" /><path clip-path="url(#clip630)" d="M 0 0 M791.64 1437.61 L806.555 1437.61 L806.555 1440.81 L795.12 1440.81 L795.12 1447.69 Q795.947 1447.41 796.775 1447.28 Q797.602 1447.13 798.43 1447.13 Q803.132 1447.13 805.878 1449.71 Q808.624 1452.28 808.624 1456.68 Q808.624 1461.22 805.803 1463.74 Q802.981 1466.24 797.847 1466.24 Q796.079 1466.24 794.236 1465.94 Q792.411 1465.64 790.455 1465.04 L790.455 1461.22 Q792.148 1462.14 793.954 1462.59 Q795.759 1463.04 797.772 1463.04 Q801.025 1463.04 802.925 1461.33 Q804.825 1459.62 804.825 1456.68 Q804.825 1453.75 802.925 1452.04 Q801.025 1450.33 797.772 1450.33 Q796.248 1450.33 794.725 1450.67 Q793.22 1451 791.64 1451.72 L791.64 1437.61 Z" fill="#000000" fill-rule="evenodd" fill-opacity="1" /><path clip-path="url(#clip630)" d="M 0 0 M812.743 1460.92 L816.711 1460.92 L816.711 1465.69 L812.743 1465.69 L812.743 1460.92 Z" fill="#000000" fill-rule="evenodd" fill-opacity="1" /><path clip-path="url(#clip630)" d="M 0 0 M820.868 1437.61 L835.782 1437.61 L835.782 1440.81 L824.347 1440.81 L824.347 1447.69 Q825.175 1447.41 826.002 1447.28 Q826.83 1447.13 827.657 1447.13 Q832.359 1447.13 835.105 1449.71 Q837.851 1452.28 837.851 1456.68 Q837.851 1461.22 835.03 1463.74 Q832.209 1466.24 827.074 1466.24 Q825.306 1466.24 823.463 1465.94 Q821.639 1465.64 819.683 1465.04 L819.683 1461.22 Q821.375 1462.14 823.181 1462.59 Q824.986 1463.04 826.999 1463.04 Q830.253 1463.04 832.152 1461.33 Q834.052 1459.62 834.052 1456.68 Q834.052 1453.75 832.152 1452.04 Q830.253 1450.33 826.999 1450.33 Q825.475 1450.33 823.952 1450.67 Q822.447 1451 820.868 1451.72 L820.868 1437.61 Z" fill="#000000" fill-rule="evenodd" fill-opacity="1" /><path clip-path="url(#clip630)" d="M 0 0 M1221.16 1489.17 L1228.79 1489.17 L1228.79 1462.8 L1220.48 1464.47 L1220.48 1460.21 L1228.75 1458.54 L1233.42 1458.54 L1233.42 1489.17 L1241.06 1489.17 L1241.06 1493.1 L1221.16 1493.1 L1221.16 1489.17 Z" fill="#000000" fill-rule="evenodd" fill-opacity="1" /><path clip-path="url(#clip630)" d="M 0 0 M1256.13 1461.62 Q1252.52 1461.62 1250.69 1465.19 Q1248.89 1468.73 1248.89 1475.86 Q1248.89 1482.97 1250.69 1486.53 Q1252.52 1490.07 1256.13 1490.07 Q1259.77 1490.07 1261.57 1486.53 Q1263.4 1482.97 1263.4 1475.86 Q1263.4 1468.73 1261.57 1465.19 Q1259.77 1461.62 1256.13 1461.62 M1256.13 1457.92 Q1261.94 1457.92 1265 1462.53 Q1268.08 1467.11 1268.08 1475.86 Q1268.08 1484.59 1265 1489.19 Q1261.94 1493.78 1256.13 1493.78 Q1250.32 1493.78 1247.24 1489.19 Q1244.19 1484.59 1244.19 1475.86 Q1244.19 1467.11 1247.24 1462.53 Q1250.32 1457.92 1256.13 1457.92 Z" fill="#000000" fill-rule="evenodd" fill-opacity="1" /><path clip-path="url(#clip630)" d="M 0 0 M1268.08 1452.02 L1292.19 1452.02 L1292.19 1455.22 L1268.08 1455.22 L1268.08 1452.02 Z" fill="#000000" fill-rule="evenodd" fill-opacity="1" /><path clip-path="url(#clip630)" d="M 0 0 M1296.35 1437.61 L1311.26 1437.61 L1311.26 1440.81 L1299.82 1440.81 L1299.82 1447.69 Q1300.65 1447.41 1301.48 1447.28 Q1302.31 1447.13 1303.13 1447.13 Q1307.84 1447.13 1310.58 1449.71 Q1313.33 1452.28 1313.33 1456.68 Q1313.33 1461.22 1310.51 1463.74 Q1307.69 1466.24 1302.55 1466.24 Q1300.78 1466.24 1298.94 1465.94 Q1297.12 1465.64 1295.16 1465.04 L1295.16 1461.22 Q1296.85 1462.14 1298.66 1462.59 Q1300.46 1463.04 1302.48 1463.04 Q1305.73 1463.04 1307.63 1461.33 Q1309.53 1459.62 1309.53 1456.68 Q1309.53 1453.75 1307.63 1452.04 Q1305.73 1450.33 1302.48 1450.33 Q1300.95 1450.33 1299.43 1450.67 Q1297.92 1451 1296.35 1451.72 L1296.35 1437.61 Z" fill="#000000" fill-rule="evenodd" fill-opacity="1" /><path clip-path="url(#clip630)" d="M 0 0 M1317.45 1460.92 L1321.42 1460.92 L1321.42 1465.69 L1317.45 1465.69 L1317.45 1460.92 Z" fill="#000000" fill-rule="evenodd" fill-opacity="1" /><path clip-path="url(#clip630)" d="M 0 0 M1333.66 1440.11 Q1330.73 1440.11 1329.24 1443.01 Q1327.77 1445.89 1327.77 1451.68 Q1327.77 1457.46 1329.24 1460.35 Q1330.73 1463.23 1333.66 1463.23 Q1336.61 1463.23 1338.08 1460.35 Q1339.57 1457.46 1339.57 1451.68 Q1339.57 1445.89 1338.08 1443.01 Q1336.61 1440.11 1333.66 1440.11 M1333.66 1437.11 Q1338.38 1437.11 1340.86 1440.85 Q1343.36 1444.57 1343.36 1451.68 Q1343.36 1458.77 1340.86 1462.51 Q1338.38 1466.24 1333.66 1466.24 Q1328.94 1466.24 1326.44 1462.51 Q1323.95 1458.77 1323.95 1451.68 Q1323.95 1444.57 1326.44 1440.85 Q1328.94 1437.11 1333.66 1437.11 Z" fill="#000000" fill-rule="evenodd" fill-opacity="1" /><path clip-path="url(#clip630)" d="M 0 0 M1726.07 1489.17 L1733.71 1489.17 L1733.71 1462.8 L1725.4 1464.47 L1725.4 1460.21 L1733.66 1458.54 L1738.34 1458.54 L1738.34 1489.17 L1745.97 1489.17 L1745.97 1493.1 L1726.07 1493.1 L1726.07 1489.17 Z" fill="#000000" fill-rule="evenodd" fill-opacity="1" /><path clip-path="url(#clip630)" d="M 0 0 M1761.04 1461.62 Q1757.43 1461.62 1755.6 1465.19 Q1753.8 1468.73 1753.8 1475.86 Q1753.8 1482.97 1755.6 1486.53 Q1757.43 1490.07 1761.04 1490.07 Q1764.68 1490.07 1766.48 1486.53 Q1768.31 1482.97 1768.31 1475.86 Q1768.31 1468.73 1766.48 1465.19 Q1764.68 1461.62 1761.04 1461.62 M1761.04 1457.92 Q1766.85 1457.92 1769.91 1462.53 Q1772.99 1467.11 1772.99 1475.86 Q1772.99 1484.59 1769.91 1489.19 Q1766.85 1493.78 1761.04 1493.78 Q1755.23 1493.78 1752.16 1489.19 Q1749.1 1484.59 1749.1 1475.86 Q1749.1 1467.11 1752.16 1462.53 Q1755.23 1457.92 1761.04 1457.92 Z" fill="#000000" fill-rule="evenodd" fill-opacity="1" /><path clip-path="url(#clip630)" d="M 0 0 M1772.99 1452.02 L1797.1 1452.02 L1797.1 1455.22 L1772.99 1455.22 L1772.99 1452.02 Z" fill="#000000" fill-rule="evenodd" fill-opacity="1" /><path clip-path="url(#clip630)" d="M 0 0 M1811.66 1440.92 L1802.07 1455.91 L1811.66 1455.91 L1811.66 1440.92 M1810.66 1437.61 L1815.44 1437.61 L1815.44 1455.91 L1819.44 1455.91 L1819.44 1459.07 L1815.44 1459.07 L1815.44 1465.69 L1811.66 1465.69 L1811.66 1459.07 L1798.98 1459.07 L1798.98 1455.41 L1810.66 1437.61 Z" fill="#000000" fill-rule="evenodd" fill-opacity="1" /><path clip-path="url(#clip630)" d="M 0 0 M1823.56 1460.92 L1827.53 1460.92 L1827.53 1465.69 L1823.56 1465.69 L1823.56 1460.92 Z" fill="#000000" fill-rule="evenodd" fill-opacity="1" /><path clip-path="url(#clip630)" d="M 0 0 M1831.69 1437.61 L1846.6 1437.61 L1846.6 1440.81 L1835.17 1440.81 L1835.17 1447.69 Q1835.99 1447.41 1836.82 1447.28 Q1837.65 1447.13 1838.48 1447.13 Q1843.18 1447.13 1845.93 1449.71 Q1848.67 1452.28 1848.67 1456.68 Q1848.67 1461.22 1845.85 1463.74 Q1843.03 1466.24 1837.89 1466.24 Q1836.13 1466.24 1834.28 1465.94 Q1832.46 1465.64 1830.5 1465.04 L1830.5 1461.22 Q1832.2 1462.14 1834 1462.59 Q1835.81 1463.04 1837.82 1463.04 Q1841.07 1463.04 1842.97 1461.33 Q1844.87 1459.62 1844.87 1456.68 Q1844.87 1453.75 1842.97 1452.04 Q1841.07 1450.33 1837.82 1450.33 Q1836.3 1450.33 1834.77 1450.67 Q1833.27 1451 1831.69 1451.72 L1831.69 1437.61 Z" fill="#000000" fill-rule="evenodd" fill-opacity="1" /><path clip-path="url(#clip630)" d="M 0 0 M2230.77 1489.17 L2238.41 1489.17 L2238.41 1462.8 L2230.1 1464.47 L2230.1 1460.21 L2238.36 1458.54 L2243.04 1458.54 L2243.04 1489.17 L2250.68 1489.17 L2250.68 1493.1 L2230.77 1493.1 L2230.77 1489.17 Z" fill="#000000" fill-rule="evenodd" fill-opacity="1" /><path clip-path="url(#clip630)" d="M 0 0 M2265.75 1461.62 Q2262.14 1461.62 2260.31 1465.19 Q2258.5 1468.73 2258.5 1475.86 Q2258.5 1482.97 2260.31 1486.53 Q2262.14 1490.07 2265.75 1490.07 Q2269.38 1490.07 2271.19 1486.53 Q2273.02 1482.97 2273.02 1475.86 Q2273.02 1468.73 2271.19 1465.19 Q2269.38 1461.62 2265.75 1461.62 M2265.75 1457.92 Q2271.56 1457.92 2274.61 1462.53 Q2277.69 1467.11 2277.69 1475.86 Q2277.69 1484.59 2274.61 1489.19 Q2271.56 1493.78 2265.75 1493.78 Q2259.94 1493.78 2256.86 1489.19 Q2253.8 1484.59 2253.8 1475.86 Q2253.8 1467.11 2256.86 1462.53 Q2259.94 1457.92 2265.75 1457.92 Z" fill="#000000" fill-rule="evenodd" fill-opacity="1" /><path clip-path="url(#clip630)" d="M 0 0 M2277.69 1452.02 L2301.8 1452.02 L2301.8 1455.22 L2277.69 1455.22 L2277.69 1452.02 Z" fill="#000000" fill-rule="evenodd" fill-opacity="1" /><path clip-path="url(#clip630)" d="M 0 0 M2316.36 1440.92 L2306.77 1455.91 L2316.36 1455.91 L2316.36 1440.92 M2315.37 1437.61 L2320.14 1437.61 L2320.14 1455.91 L2324.15 1455.91 L2324.15 1459.07 L2320.14 1459.07 L2320.14 1465.69 L2316.36 1465.69 L2316.36 1459.07 L2303.69 1459.07 L2303.69 1455.41 L2315.37 1437.61 Z" fill="#000000" fill-rule="evenodd" fill-opacity="1" /><path clip-path="url(#clip630)" d="M 0 0 M2328.27 1460.92 L2332.24 1460.92 L2332.24 1465.69 L2328.27 1465.69 L2328.27 1460.92 Z" fill="#000000" fill-rule="evenodd" fill-opacity="1" /><path clip-path="url(#clip630)" d="M 0 0 M2344.48 1440.11 Q2341.55 1440.11 2340.06 1443.01 Q2338.59 1445.89 2338.59 1451.68 Q2338.59 1457.46 2340.06 1460.35 Q2341.55 1463.23 2344.48 1463.23 Q2347.43 1463.23 2348.9 1460.35 Q2350.39 1457.46 2350.39 1451.68 Q2350.39 1445.89 2348.9 1443.01 Q2347.43 1440.11 2344.48 1440.11 M2344.48 1437.11 Q2349.2 1437.11 2351.68 1440.85 Q2354.18 1444.57 2354.18 1451.68 Q2354.18 1458.77 2351.68 1462.51 Q2349.2 1466.24 2344.48 1466.24 Q2339.76 1466.24 2337.26 1462.51 Q2334.77 1458.77 2334.77 1451.68 Q2334.77 1444.57 2337.26 1440.85 Q2339.76 1437.11 2344.48 1437.11 Z" fill="#000000" fill-rule="evenodd" fill-opacity="1" /><path clip-path="url(#clip630)" d="M 0 0 M1207.14 1512.66 L1213.03 1512.66 L1213.03 1541.91 L1230.51 1526.54 L1237.99 1526.54 L1219.08 1543.22 L1238.78 1562.19 L1231.14 1562.19 L1213.03 1544.78 L1213.03 1562.19 L1207.14 1562.19 L1207.14 1512.66 Z" fill="#000000" fill-rule="evenodd" fill-opacity="1" /><path clip-path="url(#clip630)" d="M 0 0 M1272.01 1573.01 L1272.01 1577.56 L1238.14 1577.56 L1238.14 1573.01 L1272.01 1573.01 Z" fill="#000000" fill-rule="evenodd" fill-opacity="1" /><path clip-path="url(#clip630)" d="M 0 0 M1291.97 1530.64 Q1287.26 1530.64 1284.52 1534.34 Q1281.78 1538 1281.78 1544.39 Q1281.78 1550.79 1284.49 1554.48 Q1287.22 1558.14 1291.97 1558.14 Q1296.65 1558.14 1299.38 1554.45 Q1302.12 1550.76 1302.12 1544.39 Q1302.12 1538.06 1299.38 1534.37 Q1296.65 1530.64 1291.97 1530.64 M1291.97 1525.68 Q1299.61 1525.68 1303.97 1530.64 Q1308.33 1535.61 1308.33 1544.39 Q1308.33 1553.15 1303.97 1558.14 Q1299.61 1563.11 1291.97 1563.11 Q1284.3 1563.11 1279.94 1558.14 Q1275.61 1553.15 1275.61 1544.39 Q1275.61 1535.61 1279.94 1530.64 Q1284.3 1525.68 1291.97 1525.68 Z" fill="#000000" fill-rule="evenodd" fill-opacity="1" /><path clip-path="url(#clip630)" d="M 0 0 M1332.52 1512.66 L1332.52 1517.53 L1326.91 1517.53 Q1323.76 1517.53 1322.52 1518.8 Q1321.31 1520.08 1321.31 1523.39 L1321.31 1526.54 L1330.96 1526.54 L1330.96 1531.09 L1321.31 1531.09 L1321.31 1562.19 L1315.42 1562.19 L1315.42 1531.09 L1309.82 1531.09 L1309.82 1526.54 L1315.42 1526.54 L1315.42 1524.05 Q1315.42 1518.1 1318.19 1515.4 Q1320.96 1512.66 1326.98 1512.66 L1332.52 1512.66 Z" fill="#000000" fill-rule="evenodd" fill-opacity="1" /><path clip-path="url(#clip630)" d="M 0 0 M1356.71 1512.66 L1356.71 1517.53 L1351.1 1517.53 Q1347.95 1517.53 1346.71 1518.8 Q1345.5 1520.08 1345.5 1523.39 L1345.5 1526.54 L1355.15 1526.54 L1355.15 1531.09 L1345.5 1531.09 L1345.5 1562.19 L1339.61 1562.19 L1339.61 1531.09 L1334.01 1531.09 L1334.01 1526.54 L1339.61 1526.54 L1339.61 1524.05 Q1339.61 1518.1 1342.38 1515.4 Q1345.15 1512.66 1351.17 1512.66 L1356.71 1512.66 Z" fill="#000000" fill-rule="evenodd" fill-opacity="1" /><polyline clip-path="url(#clip632)" style="stroke:#000000; stroke-width:2; stroke-opacity:0.1; fill:none" points="
  211.093,1391.68 2352.76,1391.68 
  "/>
<polyline clip-path="url(#clip632)" style="stroke:#000000; stroke-width:2; stroke-opacity:0.1; fill:none" points="
  211.093,1128.02 2352.76,1128.02 
  "/>
<polyline clip-path="url(#clip632)" style="stroke:#000000; stroke-width:2; stroke-opacity:0.1; fill:none" points="
  211.093,864.352 2352.76,864.352 
  "/>
<polyline clip-path="url(#clip632)" style="stroke:#000000; stroke-width:2; stroke-opacity:0.1; fill:none" points="
  211.093,600.687 2352.76,600.687 
  "/>
<polyline clip-path="url(#clip632)" style="stroke:#000000; stroke-width:2; stroke-opacity:0.1; fill:none" points="
  211.093,337.023 2352.76,337.023 
  "/>
<polyline clip-path="url(#clip632)" style="stroke:#000000; stroke-width:2; stroke-opacity:0.1; fill:none" points="
  211.093,73.3583 2352.76,73.3583 
  "/>
<polyline clip-path="url(#clip630)" style="stroke:#000000; stroke-width:4; stroke-opacity:1; fill:none" points="
  211.093,1410.9 211.093,47.2441 
  "/>
<polyline clip-path="url(#clip630)" style="stroke:#000000; stroke-width:4; stroke-opacity:1; fill:none" points="
  211.093,1391.68 236.793,1391.68 
  "/>
<polyline clip-path="url(#clip630)" style="stroke:#000000; stroke-width:4; stroke-opacity:1; fill:none" points="
  211.093,1128.02 236.793,1128.02 
  "/>
<polyline clip-path="url(#clip630)" style="stroke:#000000; stroke-width:4; stroke-opacity:1; fill:none" points="
  211.093,864.352 236.793,864.352 
  "/>
<polyline clip-path="url(#clip630)" style="stroke:#000000; stroke-width:4; stroke-opacity:1; fill:none" points="
  211.093,600.687 236.793,600.687 
  "/>
<polyline clip-path="url(#clip630)" style="stroke:#000000; stroke-width:4; stroke-opacity:1; fill:none" points="
  211.093,337.023 236.793,337.023 
  "/>
<polyline clip-path="url(#clip630)" style="stroke:#000000; stroke-width:4; stroke-opacity:1; fill:none" points="
  211.093,73.3583 236.793,73.3583 
  "/>
<path clip-path="url(#clip630)" d="M 0 0 M117.061 1374.4 L135.417 1374.4 L135.417 1378.34 L121.343 1378.34 L121.343 1386.81 Q122.362 1386.46 123.38 1386.3 Q124.399 1386.11 125.418 1386.11 Q131.205 1386.11 134.584 1389.28 Q137.964 1392.46 137.964 1397.87 Q137.964 1403.45 134.492 1406.55 Q131.019 1409.63 124.7 1409.63 Q122.524 1409.63 120.255 1409.26 Q118.01 1408.89 115.603 1408.15 L115.603 1403.45 Q117.686 1404.59 119.908 1405.14 Q122.13 1405.7 124.607 1405.7 Q128.612 1405.7 130.95 1403.59 Q133.288 1401.48 133.288 1397.87 Q133.288 1394.26 130.95 1392.15 Q128.612 1390.05 124.607 1390.05 Q122.732 1390.05 120.857 1390.47 Q119.006 1390.88 117.061 1391.76 L117.061 1374.4 Z" fill="#000000" fill-rule="evenodd" fill-opacity="1" /><path clip-path="url(#clip630)" d="M 0 0 M143.033 1403.08 L147.917 1403.08 L147.917 1408.96 L143.033 1408.96 L143.033 1403.08 Z" fill="#000000" fill-rule="evenodd" fill-opacity="1" /><path clip-path="url(#clip630)" d="M 0 0 M163.565 1389.82 Q160.417 1389.82 158.565 1391.97 Q156.737 1394.12 156.737 1397.87 Q156.737 1401.6 158.565 1403.78 Q160.417 1405.93 163.565 1405.93 Q166.714 1405.93 168.542 1403.78 Q170.394 1401.6 170.394 1397.87 Q170.394 1394.12 168.542 1391.97 Q166.714 1389.82 163.565 1389.82 M172.848 1375.16 L172.848 1379.42 Q171.089 1378.59 169.283 1378.15 Q167.501 1377.71 165.741 1377.71 Q161.112 1377.71 158.658 1380.84 Q156.228 1383.96 155.88 1390.28 Q157.246 1388.27 159.306 1387.2 Q161.366 1386.11 163.843 1386.11 Q169.052 1386.11 172.061 1389.28 Q175.093 1392.43 175.093 1397.87 Q175.093 1403.2 171.945 1406.41 Q168.797 1409.63 163.565 1409.63 Q157.57 1409.63 154.399 1405.05 Q151.228 1400.44 151.228 1391.72 Q151.228 1383.52 155.116 1378.66 Q159.005 1373.78 165.556 1373.78 Q167.315 1373.78 169.098 1374.12 Q170.903 1374.47 172.848 1375.16 Z" fill="#000000" fill-rule="evenodd" fill-opacity="1" /><path clip-path="url(#clip630)" d="M 0 0 M118.126 1110.74 L136.482 1110.74 L136.482 1114.67 L122.408 1114.67 L122.408 1123.14 Q123.427 1122.8 124.445 1122.63 Q125.464 1122.45 126.482 1122.45 Q132.269 1122.45 135.649 1125.62 Q139.029 1128.79 139.029 1134.21 Q139.029 1139.79 135.556 1142.89 Q132.084 1145.97 125.765 1145.97 Q123.589 1145.97 121.32 1145.6 Q119.075 1145.23 116.668 1144.49 L116.668 1139.79 Q118.751 1140.92 120.973 1141.48 Q123.195 1142.03 125.672 1142.03 Q129.677 1142.03 132.015 1139.93 Q134.353 1137.82 134.353 1134.21 Q134.353 1130.6 132.015 1128.49 Q129.677 1126.38 125.672 1126.38 Q123.797 1126.38 121.922 1126.8 Q120.07 1127.22 118.126 1128.1 L118.126 1110.74 Z" fill="#000000" fill-rule="evenodd" fill-opacity="1" /><path clip-path="url(#clip630)" d="M 0 0 M144.098 1139.42 L148.982 1139.42 L148.982 1145.3 L144.098 1145.3 L144.098 1139.42 Z" fill="#000000" fill-rule="evenodd" fill-opacity="1" /><path clip-path="url(#clip630)" d="M 0 0 M152.871 1110.74 L175.093 1110.74 L175.093 1112.73 L162.547 1145.3 L157.663 1145.3 L169.468 1114.67 L152.871 1114.67 L152.871 1110.74 Z" fill="#000000" fill-rule="evenodd" fill-opacity="1" /><path clip-path="url(#clip630)" d="M 0 0 M117.316 847.072 L135.672 847.072 L135.672 851.007 L121.598 851.007 L121.598 859.479 Q122.617 859.132 123.635 858.97 Q124.654 858.784 125.672 858.784 Q131.459 858.784 134.839 861.956 Q138.218 865.127 138.218 870.544 Q138.218 876.122 134.746 879.224 Q131.274 882.303 124.955 882.303 Q122.779 882.303 120.51 881.933 Q118.265 881.562 115.857 880.821 L115.857 876.122 Q117.941 877.257 120.163 877.812 Q122.385 878.368 124.862 878.368 Q128.867 878.368 131.205 876.261 Q133.542 874.155 133.542 870.544 Q133.542 866.933 131.205 864.826 Q128.867 862.72 124.862 862.72 Q122.987 862.72 121.112 863.136 Q119.26 863.553 117.316 864.433 L117.316 847.072 Z" fill="#000000" fill-rule="evenodd" fill-opacity="1" /><path clip-path="url(#clip630)" d="M 0 0 M143.288 875.752 L148.172 875.752 L148.172 881.632 L143.288 881.632 L143.288 875.752 Z" fill="#000000" fill-rule="evenodd" fill-opacity="1" /><path clip-path="url(#clip630)" d="M 0 0 M163.241 865.22 Q159.908 865.22 157.987 867.002 Q156.089 868.784 156.089 871.909 Q156.089 875.034 157.987 876.817 Q159.908 878.599 163.241 878.599 Q166.575 878.599 168.496 876.817 Q170.417 875.011 170.417 871.909 Q170.417 868.784 168.496 867.002 Q166.598 865.22 163.241 865.22 M158.565 863.229 Q155.556 862.488 153.866 860.428 Q152.2 858.368 152.2 855.405 Q152.2 851.261 155.14 848.854 Q158.103 846.447 163.241 846.447 Q168.403 846.447 171.343 848.854 Q174.283 851.261 174.283 855.405 Q174.283 858.368 172.593 860.428 Q170.927 862.488 167.94 863.229 Q171.32 864.016 173.195 866.308 Q175.093 868.599 175.093 871.909 Q175.093 876.933 172.014 879.618 Q168.959 882.303 163.241 882.303 Q157.524 882.303 154.445 879.618 Q151.39 876.933 151.39 871.909 Q151.39 868.599 153.288 866.308 Q155.186 864.016 158.565 863.229 M156.853 855.845 Q156.853 858.53 158.519 860.034 Q160.209 861.539 163.241 861.539 Q166.251 861.539 167.94 860.034 Q169.653 858.53 169.653 855.845 Q169.653 853.16 167.94 851.655 Q166.251 850.15 163.241 850.15 Q160.209 850.15 158.519 851.655 Q156.853 853.16 156.853 855.845 Z" fill="#000000" fill-rule="evenodd" fill-opacity="1" /><path clip-path="url(#clip630)" d="M 0 0 M117.408 583.407 L135.765 583.407 L135.765 587.342 L121.691 587.342 L121.691 595.815 Q122.709 595.467 123.728 595.305 Q124.746 595.12 125.765 595.12 Q131.552 595.12 134.931 598.291 Q138.311 601.463 138.311 606.879 Q138.311 612.458 134.839 615.56 Q131.367 618.638 125.047 618.638 Q122.871 618.638 120.603 618.268 Q118.357 617.898 115.95 617.157 L115.95 612.458 Q118.033 613.592 120.255 614.148 Q122.478 614.703 124.955 614.703 Q128.959 614.703 131.297 612.597 Q133.635 610.49 133.635 606.879 Q133.635 603.268 131.297 601.162 Q128.959 599.055 124.955 599.055 Q123.08 599.055 121.205 599.472 Q119.353 599.889 117.408 600.768 L117.408 583.407 Z" fill="#000000" fill-rule="evenodd" fill-opacity="1" /><path clip-path="url(#clip630)" d="M 0 0 M143.38 612.088 L148.265 612.088 L148.265 617.967 L143.38 617.967 L143.38 612.088 Z" fill="#000000" fill-rule="evenodd" fill-opacity="1" /><path clip-path="url(#clip630)" d="M 0 0 M153.473 617.25 L153.473 612.99 Q155.232 613.824 157.038 614.263 Q158.843 614.703 160.579 614.703 Q165.209 614.703 167.64 611.601 Q170.093 608.476 170.44 602.134 Q169.098 604.125 167.038 605.189 Q164.977 606.254 162.477 606.254 Q157.292 606.254 154.26 603.129 Q151.251 599.981 151.251 594.541 Q151.251 589.217 154.399 586 Q157.547 582.782 162.778 582.782 Q168.774 582.782 171.922 587.389 Q175.093 591.972 175.093 600.722 Q175.093 608.893 171.204 613.777 Q167.339 618.638 160.788 618.638 Q159.028 618.638 157.223 618.291 Q155.417 617.944 153.473 617.25 M162.778 602.597 Q165.927 602.597 167.755 600.444 Q169.607 598.291 169.607 594.541 Q169.607 590.815 167.755 588.662 Q165.927 586.486 162.778 586.486 Q159.63 586.486 157.778 588.662 Q155.95 590.815 155.95 594.541 Q155.95 598.291 157.778 600.444 Q159.63 602.597 162.778 602.597 Z" fill="#000000" fill-rule="evenodd" fill-opacity="1" /><path clip-path="url(#clip630)" d="M 0 0 M126.598 335.159 Q123.45 335.159 121.598 337.312 Q119.769 339.465 119.769 343.215 Q119.769 346.942 121.598 349.118 Q123.45 351.27 126.598 351.27 Q129.746 351.27 131.575 349.118 Q133.427 346.942 133.427 343.215 Q133.427 339.465 131.575 337.312 Q129.746 335.159 126.598 335.159 M135.88 320.507 L135.88 324.766 Q134.121 323.933 132.316 323.493 Q130.533 323.053 128.774 323.053 Q124.144 323.053 121.691 326.178 Q119.26 329.303 118.913 335.622 Q120.279 333.608 122.339 332.544 Q124.399 331.456 126.876 331.456 Q132.084 331.456 135.093 334.627 Q138.126 337.775 138.126 343.215 Q138.126 348.539 134.978 351.756 Q131.83 354.974 126.598 354.974 Q120.603 354.974 117.431 350.391 Q114.26 345.784 114.26 337.057 Q114.26 328.863 118.149 324.002 Q122.038 319.118 128.589 319.118 Q130.348 319.118 132.13 319.465 Q133.936 319.812 135.88 320.507 Z" fill="#000000" fill-rule="evenodd" fill-opacity="1" /><path clip-path="url(#clip630)" d="M 0 0 M143.195 348.423 L148.079 348.423 L148.079 354.303 L143.195 354.303 L143.195 348.423 Z" fill="#000000" fill-rule="evenodd" fill-opacity="1" /><path clip-path="url(#clip630)" d="M 0 0 M163.149 322.821 Q159.538 322.821 157.709 326.386 Q155.903 329.928 155.903 337.057 Q155.903 344.164 157.709 347.729 Q159.538 351.27 163.149 351.27 Q166.783 351.27 168.589 347.729 Q170.417 344.164 170.417 337.057 Q170.417 329.928 168.589 326.386 Q166.783 322.821 163.149 322.821 M163.149 319.118 Q168.959 319.118 172.014 323.724 Q175.093 328.308 175.093 337.057 Q175.093 345.784 172.014 350.391 Q168.959 354.974 163.149 354.974 Q157.339 354.974 154.26 350.391 Q151.204 345.784 151.204 337.057 Q151.204 328.308 154.26 323.724 Q157.339 319.118 163.149 319.118 Z" fill="#000000" fill-rule="evenodd" fill-opacity="1" /><path clip-path="url(#clip630)" d="M 0 0 M127.825 71.4949 Q124.677 71.4949 122.825 73.6477 Q120.996 75.8004 120.996 79.5504 Q120.996 83.2772 122.825 85.4532 Q124.677 87.6059 127.825 87.6059 Q130.973 87.6059 132.802 85.4532 Q134.654 83.2772 134.654 79.5504 Q134.654 75.8004 132.802 73.6477 Q130.973 71.4949 127.825 71.4949 M137.107 56.8422 L137.107 61.1014 Q135.348 60.2681 133.542 59.8283 Q131.76 59.3885 130.001 59.3885 Q125.371 59.3885 122.918 62.5135 Q120.487 65.6385 120.14 71.9579 Q121.505 69.944 123.566 68.8792 Q125.626 67.7912 128.103 67.7912 Q133.311 67.7912 136.32 70.9625 Q139.353 74.1106 139.353 79.5504 Q139.353 84.8745 136.204 88.092 Q133.056 91.3096 127.825 91.3096 Q121.83 91.3096 118.658 86.7263 Q115.487 82.1198 115.487 73.393 Q115.487 65.1986 119.376 60.3376 Q123.265 55.4533 129.816 55.4533 Q131.575 55.4533 133.357 55.8005 Q135.163 56.1478 137.107 56.8422 Z" fill="#000000" fill-rule="evenodd" fill-opacity="1" /><path clip-path="url(#clip630)" d="M 0 0 M144.422 84.7587 L149.306 84.7587 L149.306 90.6383 L144.422 90.6383 L144.422 84.7587 Z" fill="#000000" fill-rule="evenodd" fill-opacity="1" /><path clip-path="url(#clip630)" d="M 0 0 M155.186 86.7032 L162.825 86.7032 L162.825 60.3376 L154.515 62.0042 L154.515 57.745 L162.778 56.0783 L167.454 56.0783 L167.454 86.7032 L175.093 86.7032 L175.093 90.6383 L155.186 90.6383 L155.186 86.7032 Z" fill="#000000" fill-rule="evenodd" fill-opacity="1" /><path clip-path="url(#clip630)" d="M 0 0 M59.1993 815.533 Q55.2526 813.336 53.3747 810.281 Q51.4968 807.225 51.4968 803.088 Q51.4968 797.518 55.4117 794.494 Q59.2948 791.47 66.4881 791.47 L88.0042 791.47 L88.0042 797.358 L66.679 797.358 Q61.5546 797.358 59.072 799.173 Q56.5894 800.987 56.5894 804.711 Q56.5894 809.262 59.6131 811.904 Q62.6368 814.546 67.8567 814.546 L88.0042 814.546 L88.0042 820.434 L66.679 820.434 Q61.5228 820.434 59.072 822.248 Q56.5894 824.063 56.5894 827.85 Q56.5894 832.338 59.6449 834.98 Q62.6686 837.622 67.8567 837.622 L88.0042 837.622 L88.0042 843.51 L52.3562 843.51 L52.3562 837.622 L57.8944 837.622 Q54.616 835.616 53.0564 832.815 Q51.4968 830.015 51.4968 826.163 Q51.4968 822.28 53.4702 819.575 Q55.4436 816.838 59.1993 815.533 Z" fill="#000000" fill-rule="evenodd" fill-opacity="1" /><path clip-path="url(#clip630)" d="M 0 0 M52.3562 785.327 L52.3562 779.471 L88.0042 779.471 L88.0042 785.327 L52.3562 785.327 M38.479 785.327 L38.479 779.471 L45.895 779.471 L45.895 785.327 L38.479 785.327 Z" fill="#000000" fill-rule="evenodd" fill-opacity="1" /><path clip-path="url(#clip630)" d="M 0 0 M66.4881 743.696 L88.0042 743.696 L88.0042 749.552 L66.679 749.552 Q61.6183 749.552 59.1038 751.525 Q56.5894 753.499 56.5894 757.446 Q56.5894 762.188 59.6131 764.925 Q62.6368 767.662 67.8567 767.662 L88.0042 767.662 L88.0042 773.551 L52.3562 773.551 L52.3562 767.662 L57.8944 767.662 Q54.6797 765.562 53.0883 762.729 Q51.4968 759.864 51.4968 756.141 Q51.4968 749.998 55.3163 746.847 Q59.1038 743.696 66.4881 743.696 Z" fill="#000000" fill-rule="evenodd" fill-opacity="1" /><path clip-path="url(#clip630)" d="M 0 0 M98.8259 710.467 L103.377 710.467 L103.377 744.332 L98.8259 744.332 L98.8259 710.467 Z" fill="#000000" fill-rule="evenodd" fill-opacity="1" /><path clip-path="url(#clip630)" d="M 0 0 M57.7671 680.866 L38.479 680.866 L38.479 675.01 L88.0042 675.01 L88.0042 680.866 L82.657 680.866 Q85.8398 682.712 87.3994 685.545 Q88.9272 688.346 88.9272 692.292 Q88.9272 698.754 83.771 702.828 Q78.6147 706.87 70.212 706.87 Q61.8093 706.87 56.6531 702.828 Q51.4968 698.754 51.4968 692.292 Q51.4968 688.346 53.0564 685.545 Q54.5842 682.712 57.7671 680.866 M70.212 700.823 Q76.6732 700.823 80.3653 698.181 Q84.0256 695.507 84.0256 690.86 Q84.0256 686.213 80.3653 683.54 Q76.6732 680.866 70.212 680.866 Q63.7508 680.866 60.0905 683.54 Q56.3984 686.213 56.3984 690.86 Q56.3984 695.507 60.0905 698.181 Q63.7508 700.823 70.212 700.823 Z" fill="#000000" fill-rule="evenodd" fill-opacity="1" /><path clip-path="url(#clip630)" d="M 0 0 M52.3562 668.867 L52.3562 663.01 L88.0042 663.01 L88.0042 668.867 L52.3562 668.867 M38.479 668.867 L38.479 663.01 L45.895 663.01 L45.895 668.867 L38.479 668.867 Z" fill="#000000" fill-rule="evenodd" fill-opacity="1" /><path clip-path="url(#clip630)" d="M 0 0 M38.479 638.821 L43.3487 638.821 L43.3487 644.422 Q43.3487 647.573 44.6219 648.815 Q45.895 650.024 49.2052 650.024 L52.3562 650.024 L52.3562 640.38 L56.9077 640.38 L56.9077 650.024 L88.0042 650.024 L88.0042 655.912 L56.9077 655.912 L56.9077 661.514 L52.3562 661.514 L52.3562 655.912 L49.8736 655.912 Q43.9216 655.912 41.2162 653.143 Q38.479 650.374 38.479 644.359 L38.479 638.821 Z" fill="#000000" fill-rule="evenodd" fill-opacity="1" /><path clip-path="url(#clip630)" d="M 0 0 M38.479 614.631 L43.3487 614.631 L43.3487 620.233 Q43.3487 623.384 44.6219 624.625 Q45.895 625.835 49.2052 625.835 L52.3562 625.835 L52.3562 616.19 L56.9077 616.19 L56.9077 625.835 L88.0042 625.835 L88.0042 631.723 L56.9077 631.723 L56.9077 637.325 L52.3562 637.325 L52.3562 631.723 L49.8736 631.723 Q43.9216 631.723 41.2162 628.954 Q38.479 626.185 38.479 620.169 L38.479 614.631 Z" fill="#000000" fill-rule="evenodd" fill-opacity="1" /><polyline clip-path="url(#clip632)" style="stroke:#009af9; stroke-width:20; stroke-opacity:1; fill:none" stroke-dasharray="80, 50" points="
  271.706,957.077 271.706,1372.3 776.815,1052.2 1281.92,483.402 1787.03,445.412 2292.14,85.838 
  "/>
<path clip-path="url(#clip630)" d="
M1992.39 213.659 L2281.37 213.659 L2281.37 92.6992 L1992.39 92.6992  Z
  " fill="#ffffff" fill-rule="evenodd" fill-opacity="1"/>
<polyline clip-path="url(#clip630)" style="stroke:#000000; stroke-width:4; stroke-opacity:1; fill:none" points="
  1992.39,213.659 2281.37,213.659 2281.37,92.6992 1992.39,92.6992 1992.39,213.659 
  "/>
<polyline clip-path="url(#clip630)" style="stroke:#009af9; stroke-width:4; stroke-opacity:1; fill:none" stroke-dasharray="16, 10" points="
  2016.18,153.179 2158.96,153.179 
  "/>
<path clip-path="url(#clip630)" d="M 0 0 M2196.6 172.867 Q2194.79 177.496 2193.08 178.908 Q2191.37 180.32 2188.5 180.32 L2185.09 180.32 L2185.09 176.755 L2187.59 176.755 Q2189.35 176.755 2190.33 175.922 Q2191.3 175.089 2192.48 171.987 L2193.24 170.043 L2182.76 144.533 L2187.27 144.533 L2195.37 164.811 L2203.47 144.533 L2207.99 144.533 L2196.6 172.867 Z" fill="#000000" fill-rule="evenodd" fill-opacity="1" /><path clip-path="url(#clip630)" d="M 0 0 M2213.87 166.524 L2221.51 166.524 L2221.51 140.158 L2213.2 141.825 L2213.2 137.566 L2221.46 135.899 L2226.14 135.899 L2226.14 166.524 L2233.77 166.524 L2233.77 170.459 L2213.87 170.459 L2213.87 166.524 Z" fill="#000000" fill-rule="evenodd" fill-opacity="1" /></svg>
