<?xml version="1.0" encoding="utf-8"?>
<svg xmlns="http://www.w3.org/2000/svg" xmlns:xlink="http://www.w3.org/1999/xlink" width="600" height="400" viewBox="0 0 2400 1600">
<defs>
  <clipPath id="clip430">
    <rect x="0" y="0" width="2400" height="1600"/>
  </clipPath>
</defs>
<path clip-path="url(#clip430)" d="
M0 1600 L2400 1600 L2400 0 L0 0  Z
  " fill="#ffffff" fill-rule="evenodd" fill-opacity="1"/>
<defs>
  <clipPath id="clip431">
    <rect x="480" y="0" width="1681" height="1600"/>
  </clipPath>
</defs>
<path clip-path="url(#clip430)" d="
M220.676 1410.9 L2352.76 1410.9 L2352.76 47.2441 L220.676 47.2441  Z
  " fill="#ffffff" fill-rule="evenodd" fill-opacity="1"/>
<defs>
  <clipPath id="clip432">
    <rect x="220" y="47" width="2133" height="1365"/>
  </clipPath>
</defs>
<polyline clip-path="url(#clip432)" style="stroke:#000000; stroke-linecap:butt; stroke-linejoin:round; stroke-width:2; stroke-opacity:0.1; fill:none" points="
  281.018,1410.9 281.018,47.2441 
  "/>
<polyline clip-path="url(#clip432)" style="stroke:#000000; stroke-linecap:butt; stroke-linejoin:round; stroke-width:2; stroke-opacity:0.1; fill:none" points="
  1487.86,1410.9 1487.86,47.2441 
  "/>
<polyline clip-path="url(#clip430)" style="stroke:#000000; stroke-linecap:butt; stroke-linejoin:round; stroke-width:4; stroke-opacity:1; fill:none" points="
  220.676,1410.9 2352.76,1410.9 
  "/>
<polyline clip-path="url(#clip430)" style="stroke:#000000; stroke-linecap:butt; stroke-linejoin:round; stroke-width:4; stroke-opacity:1; fill:none" points="
  281.018,1410.9 281.018,1392 
  "/>
<polyline clip-path="url(#clip430)" style="stroke:#000000; stroke-linecap:butt; stroke-linejoin:round; stroke-width:4; stroke-opacity:1; fill:none" points="
  1487.86,1410.9 1487.86,1392 
  "/>
<path clip-path="url(#clip430)" d="M212.26 1485.02 L219.899 1485.02 L219.899 1458.66 L211.589 1460.32 L211.589 1456.06 L219.853 1454.4 L224.528 1454.4 L224.528 1485.02 L232.167 1485.02 L232.167 1488.96 L212.26 1488.96 L212.26 1485.02 Z" fill="#000000" fill-rule="evenodd" fill-opacity="1" /><path clip-path="url(#clip430)" d="M251.612 1457.48 Q248.001 1457.48 246.172 1461.04 Q244.366 1464.58 244.366 1471.71 Q244.366 1478.82 246.172 1482.38 Q248.001 1485.92 251.612 1485.92 Q255.246 1485.92 257.051 1482.38 Q258.88 1478.82 258.88 1471.71 Q258.88 1464.58 257.051 1461.04 Q255.246 1457.48 251.612 1457.48 M251.612 1453.77 Q257.422 1453.77 260.477 1458.38 Q263.556 1462.96 263.556 1471.71 Q263.556 1480.44 260.477 1485.04 Q257.422 1489.63 251.612 1489.63 Q245.801 1489.63 242.723 1485.04 Q239.667 1480.44 239.667 1471.71 Q239.667 1462.96 242.723 1458.38 Q245.801 1453.77 251.612 1453.77 Z" fill="#000000" fill-rule="evenodd" fill-opacity="1" /><path clip-path="url(#clip430)" d="M263.556 1447.87 L287.668 1447.87 L287.668 1451.07 L263.556 1451.07 L263.556 1447.87 Z" fill="#000000" fill-rule="evenodd" fill-opacity="1" /><path clip-path="url(#clip430)" d="M307.378 1446.41 Q310.105 1446.99 311.629 1448.83 Q313.171 1450.68 313.171 1453.38 Q313.171 1457.54 310.312 1459.82 Q307.453 1462.09 302.187 1462.09 Q300.419 1462.09 298.538 1461.73 Q296.677 1461.4 294.683 1460.7 L294.683 1457.03 Q296.263 1457.95 298.144 1458.42 Q300.024 1458.89 302.074 1458.89 Q305.648 1458.89 307.51 1457.48 Q309.391 1456.07 309.391 1453.38 Q309.391 1450.9 307.641 1449.51 Q305.911 1448.1 302.808 1448.1 L299.535 1448.1 L299.535 1444.98 L302.958 1444.98 Q305.761 1444.98 307.246 1443.87 Q308.732 1442.74 308.732 1440.63 Q308.732 1438.47 307.19 1437.32 Q305.667 1436.16 302.808 1436.16 Q301.247 1436.16 299.46 1436.49 Q297.673 1436.83 295.529 1437.55 L295.529 1434.16 Q297.692 1433.56 299.573 1433.26 Q301.472 1432.96 303.146 1432.96 Q307.472 1432.96 309.992 1434.93 Q312.513 1436.89 312.513 1440.24 Q312.513 1442.57 311.177 1444.19 Q309.842 1445.79 307.378 1446.41 Z" fill="#000000" fill-rule="evenodd" fill-opacity="1" /><path clip-path="url(#clip430)" d="M320.374 1456.77 L324.343 1456.77 L324.343 1461.55 L320.374 1461.55 L320.374 1456.77 Z" fill="#000000" fill-rule="evenodd" fill-opacity="1" /><path clip-path="url(#clip430)" d="M340.743 1435.97 Q337.809 1435.97 336.323 1438.86 Q334.856 1441.74 334.856 1447.53 Q334.856 1453.31 336.323 1456.2 Q337.809 1459.08 340.743 1459.08 Q343.696 1459.08 345.163 1456.2 Q346.649 1453.31 346.649 1447.53 Q346.649 1441.74 345.163 1438.86 Q343.696 1435.97 340.743 1435.97 M340.743 1432.96 Q345.464 1432.96 347.946 1436.7 Q350.448 1440.43 350.448 1447.53 Q350.448 1454.62 347.946 1458.37 Q345.464 1462.09 340.743 1462.09 Q336.022 1462.09 333.521 1458.37 Q331.038 1454.62 331.038 1447.53 Q331.038 1440.43 333.521 1436.7 Q336.022 1432.96 340.743 1432.96 Z" fill="#000000" fill-rule="evenodd" fill-opacity="1" /><path clip-path="url(#clip430)" d="M1419.46 1485.02 L1427.1 1485.02 L1427.1 1458.66 L1418.79 1460.32 L1418.79 1456.06 L1427.06 1454.4 L1431.73 1454.4 L1431.73 1485.02 L1439.37 1485.02 L1439.37 1488.96 L1419.46 1488.96 L1419.46 1485.02 Z" fill="#000000" fill-rule="evenodd" fill-opacity="1" /><path clip-path="url(#clip430)" d="M1458.82 1457.48 Q1455.2 1457.48 1453.38 1461.04 Q1451.57 1464.58 1451.57 1471.71 Q1451.57 1478.82 1453.38 1482.38 Q1455.2 1485.92 1458.82 1485.92 Q1462.45 1485.92 1464.26 1482.38 Q1466.08 1478.82 1466.08 1471.71 Q1466.08 1464.58 1464.26 1461.04 Q1462.45 1457.48 1458.82 1457.48 M1458.82 1453.77 Q1464.63 1453.77 1467.68 1458.38 Q1470.76 1462.96 1470.76 1471.71 Q1470.76 1480.44 1467.68 1485.04 Q1464.63 1489.63 1458.82 1489.63 Q1453.01 1489.63 1449.93 1485.04 Q1446.87 1480.44 1446.87 1471.71 Q1446.87 1462.96 1449.93 1458.38 Q1453.01 1453.77 1458.82 1453.77 Z" fill="#000000" fill-rule="evenodd" fill-opacity="1" /><path clip-path="url(#clip430)" d="M1470.76 1447.87 L1494.87 1447.87 L1494.87 1451.07 L1470.76 1451.07 L1470.76 1447.87 Z" fill="#000000" fill-rule="evenodd" fill-opacity="1" /><path clip-path="url(#clip430)" d="M1506.34 1458.35 L1519.6 1458.35 L1519.6 1461.55 L1501.77 1461.55 L1501.77 1458.35 Q1503.94 1456.11 1507.66 1452.35 Q1511.4 1448.57 1512.36 1447.48 Q1514.19 1445.43 1514.9 1444.02 Q1515.64 1442.59 1515.64 1441.22 Q1515.64 1438.98 1514.06 1437.57 Q1512.49 1436.16 1509.97 1436.16 Q1508.19 1436.16 1506.19 1436.78 Q1504.22 1437.4 1501.96 1438.66 L1501.96 1434.82 Q1504.26 1433.9 1506.25 1433.43 Q1508.24 1432.96 1509.9 1432.96 Q1514.26 1432.96 1516.86 1435.14 Q1519.45 1437.32 1519.45 1440.97 Q1519.45 1442.7 1518.8 1444.26 Q1518.16 1445.8 1516.44 1447.91 Q1515.97 1448.46 1513.45 1451.07 Q1510.93 1453.67 1506.34 1458.35 Z" fill="#000000" fill-rule="evenodd" fill-opacity="1" /><path clip-path="url(#clip430)" d="M1527.58 1456.77 L1531.55 1456.77 L1531.55 1461.55 L1527.58 1461.55 L1527.58 1456.77 Z" fill="#000000" fill-rule="evenodd" fill-opacity="1" /><path clip-path="url(#clip430)" d="M1538.86 1433.47 L1556.92 1433.47 L1556.92 1435.08 L1546.72 1461.55 L1542.76 1461.55 L1552.35 1436.66 L1538.86 1436.66 L1538.86 1433.47 Z" fill="#000000" fill-rule="evenodd" fill-opacity="1" /><path clip-path="url(#clip430)" d="M1169.89 1538.54 L1176.1 1538.54 L1187.24 1568.46 L1198.38 1538.54 L1204.58 1538.54 L1191.21 1574.19 L1183.26 1574.19 L1169.89 1538.54 Z" fill="#000000" fill-rule="evenodd" fill-opacity="1" /><path clip-path="url(#clip430)" d="M1239.75 1585.01 L1239.75 1589.56 L1205.89 1589.56 L1205.89 1585.01 L1239.75 1585.01 Z" fill="#000000" fill-rule="evenodd" fill-opacity="1" /><path clip-path="url(#clip430)" d="M1270.91 1539.91 L1270.91 1545.38 Q1268.43 1544.01 1265.92 1543.34 Q1263.43 1542.64 1260.89 1542.64 Q1255.19 1542.64 1252.04 1546.27 Q1248.89 1549.87 1248.89 1556.39 Q1248.89 1562.92 1252.04 1566.55 Q1255.19 1570.14 1260.89 1570.14 Q1263.43 1570.14 1265.92 1569.47 Q1268.43 1568.77 1270.91 1567.41 L1270.91 1572.82 Q1268.46 1573.96 1265.82 1574.54 Q1263.21 1575.11 1260.25 1575.11 Q1252.2 1575.11 1247.46 1570.05 Q1242.71 1564.99 1242.71 1556.39 Q1242.71 1547.67 1247.49 1542.68 Q1252.29 1537.68 1260.63 1537.68 Q1263.34 1537.68 1265.92 1538.25 Q1268.49 1538.79 1270.91 1539.91 Z" fill="#000000" fill-rule="evenodd" fill-opacity="1" /><path clip-path="url(#clip430)" d="M1281.1 1524.66 L1286.95 1524.66 L1286.95 1574.19 L1281.1 1574.19 L1281.1 1524.66 Z" fill="#000000" fill-rule="evenodd" fill-opacity="1" /><path clip-path="url(#clip430)" d="M1313.02 1542.64 Q1308.31 1542.64 1305.57 1546.34 Q1302.84 1550 1302.84 1556.39 Q1302.84 1562.79 1305.54 1566.48 Q1308.28 1570.14 1313.02 1570.14 Q1317.7 1570.14 1320.44 1566.45 Q1323.18 1562.76 1323.18 1556.39 Q1323.18 1550.06 1320.44 1546.37 Q1317.7 1542.64 1313.02 1542.64 M1313.02 1537.68 Q1320.66 1537.68 1325.02 1542.64 Q1329.38 1547.61 1329.38 1556.39 Q1329.38 1565.15 1325.02 1570.14 Q1320.66 1575.11 1313.02 1575.11 Q1305.35 1575.11 1300.99 1570.14 Q1296.66 1565.15 1296.66 1556.39 Q1296.66 1547.61 1300.99 1542.64 Q1305.35 1537.68 1313.02 1537.68 Z" fill="#000000" fill-rule="evenodd" fill-opacity="1" /><path clip-path="url(#clip430)" d="M1361.82 1539.59 L1361.82 1545.13 Q1359.33 1543.85 1356.66 1543.22 Q1353.99 1542.58 1351.12 1542.58 Q1346.76 1542.58 1344.56 1543.92 Q1342.4 1545.25 1342.4 1547.93 Q1342.4 1549.96 1343.96 1551.14 Q1345.52 1552.29 1350.23 1553.34 L1352.24 1553.78 Q1358.47 1555.12 1361.08 1557.57 Q1363.73 1559.99 1363.73 1564.35 Q1363.73 1569.32 1359.78 1572.21 Q1355.86 1575.11 1348.99 1575.11 Q1346.12 1575.11 1343 1574.54 Q1339.92 1573.99 1336.48 1572.88 L1336.48 1566.83 Q1339.73 1568.52 1342.88 1569.38 Q1346.03 1570.21 1349.12 1570.21 Q1353.25 1570.21 1355.48 1568.81 Q1357.71 1567.37 1357.71 1564.8 Q1357.71 1562.41 1356.09 1561.14 Q1354.5 1559.86 1349.05 1558.68 L1347.02 1558.21 Q1341.57 1557.06 1339.15 1554.71 Q1336.73 1552.32 1336.73 1548.18 Q1336.73 1543.15 1340.3 1540.42 Q1343.86 1537.68 1350.42 1537.68 Q1353.67 1537.68 1356.53 1538.16 Q1359.4 1538.63 1361.82 1539.59 Z" fill="#000000" fill-rule="evenodd" fill-opacity="1" /><path clip-path="url(#clip430)" d="M1403.54 1554.9 L1403.54 1557.76 L1376.62 1557.76 Q1377 1563.81 1380.24 1566.99 Q1383.52 1570.14 1389.35 1570.14 Q1392.72 1570.14 1395.87 1569.32 Q1399.05 1568.49 1402.17 1566.83 L1402.17 1572.37 Q1399.02 1573.71 1395.71 1574.41 Q1392.4 1575.11 1389 1575.11 Q1380.47 1575.11 1375.47 1570.14 Q1370.5 1565.18 1370.5 1556.71 Q1370.5 1547.96 1375.22 1542.83 Q1379.96 1537.68 1387.98 1537.68 Q1395.17 1537.68 1399.34 1542.33 Q1403.54 1546.94 1403.54 1554.9 M1397.69 1553.18 Q1397.62 1548.37 1394.98 1545.51 Q1392.37 1542.64 1388.04 1542.64 Q1383.14 1542.64 1380.18 1545.41 Q1377.25 1548.18 1376.81 1553.21 L1397.69 1553.18 Z" fill="#000000" fill-rule="evenodd" fill-opacity="1" /><polyline clip-path="url(#clip432)" style="stroke:#000000; stroke-linecap:butt; stroke-linejoin:round; stroke-width:2; stroke-opacity:0.1; fill:none" points="
  220.676,1405.06 2352.76,1405.06 
  "/>
<polyline clip-path="url(#clip432)" style="stroke:#000000; stroke-linecap:butt; stroke-linejoin:round; stroke-width:2; stroke-opacity:0.1; fill:none" points="
  220.676,1153.27 2352.76,1153.27 
  "/>
<polyline clip-path="url(#clip432)" style="stroke:#000000; stroke-linecap:butt; stroke-linejoin:round; stroke-width:2; stroke-opacity:0.1; fill:none" points="
  220.676,901.485 2352.76,901.485 
  "/>
<polyline clip-path="url(#clip432)" style="stroke:#000000; stroke-linecap:butt; stroke-linejoin:round; stroke-width:2; stroke-opacity:0.1; fill:none" points="
  220.676,649.696 2352.76,649.696 
  "/>
<polyline clip-path="url(#clip432)" style="stroke:#000000; stroke-linecap:butt; stroke-linejoin:round; stroke-width:2; stroke-opacity:0.1; fill:none" points="
  220.676,397.908 2352.76,397.908 
  "/>
<polyline clip-path="url(#clip432)" style="stroke:#000000; stroke-linecap:butt; stroke-linejoin:round; stroke-width:2; stroke-opacity:0.1; fill:none" points="
  220.676,146.119 2352.76,146.119 
  "/>
<polyline clip-path="url(#clip430)" style="stroke:#000000; stroke-linecap:butt; stroke-linejoin:round; stroke-width:4; stroke-opacity:1; fill:none" points="
  220.676,1410.9 220.676,47.2441 
  "/>
<polyline clip-path="url(#clip430)" style="stroke:#000000; stroke-linecap:butt; stroke-linejoin:round; stroke-width:4; stroke-opacity:1; fill:none" points="
  220.676,1405.06 239.574,1405.06 
  "/>
<polyline clip-path="url(#clip430)" style="stroke:#000000; stroke-linecap:butt; stroke-linejoin:round; stroke-width:4; stroke-opacity:1; fill:none" points="
  220.676,1153.27 239.574,1153.27 
  "/>
<polyline clip-path="url(#clip430)" style="stroke:#000000; stroke-linecap:butt; stroke-linejoin:round; stroke-width:4; stroke-opacity:1; fill:none" points="
  220.676,901.485 239.574,901.485 
  "/>
<polyline clip-path="url(#clip430)" style="stroke:#000000; stroke-linecap:butt; stroke-linejoin:round; stroke-width:4; stroke-opacity:1; fill:none" points="
  220.676,649.696 239.574,649.696 
  "/>
<polyline clip-path="url(#clip430)" style="stroke:#000000; stroke-linecap:butt; stroke-linejoin:round; stroke-width:4; stroke-opacity:1; fill:none" points="
  220.676,397.908 239.574,397.908 
  "/>
<polyline clip-path="url(#clip430)" style="stroke:#000000; stroke-linecap:butt; stroke-linejoin:round; stroke-width:4; stroke-opacity:1; fill:none" points="
  220.676,146.119 239.574,146.119 
  "/>
<path clip-path="url(#clip430)" d="M130.996 1391.86 L119.191 1410.31 L130.996 1410.31 L130.996 1391.86 M129.769 1387.78 L135.649 1387.78 L135.649 1410.31 L140.579 1410.31 L140.579 1414.19 L135.649 1414.19 L135.649 1422.34 L130.996 1422.34 L130.996 1414.19 L115.394 1414.19 L115.394 1409.68 L129.769 1387.78 Z" fill="#000000" fill-rule="evenodd" fill-opacity="1" /><path clip-path="url(#clip430)" d="M148.311 1416.46 L153.195 1416.46 L153.195 1422.34 L148.311 1422.34 L148.311 1416.46 Z" fill="#000000" fill-rule="evenodd" fill-opacity="1" /><path clip-path="url(#clip430)" d="M177.547 1403.71 Q180.903 1404.43 182.778 1406.69 Q184.676 1408.96 184.676 1412.3 Q184.676 1417.41 181.158 1420.21 Q177.639 1423.01 171.158 1423.01 Q168.982 1423.01 166.667 1422.57 Q164.376 1422.16 161.922 1421.3 L161.922 1416.79 Q163.866 1417.92 166.181 1418.5 Q168.496 1419.08 171.019 1419.08 Q175.417 1419.08 177.709 1417.34 Q180.024 1415.61 180.024 1412.3 Q180.024 1409.24 177.871 1407.53 Q175.741 1405.79 171.922 1405.79 L167.894 1405.79 L167.894 1401.95 L172.107 1401.95 Q175.556 1401.95 177.385 1400.58 Q179.214 1399.19 179.214 1396.6 Q179.214 1393.94 177.315 1392.53 Q175.44 1391.09 171.922 1391.09 Q170.001 1391.09 167.802 1391.51 Q165.602 1391.93 162.964 1392.81 L162.964 1388.64 Q165.626 1387.9 167.94 1387.53 Q170.278 1387.16 172.339 1387.16 Q177.663 1387.16 180.764 1389.59 Q183.866 1392 183.866 1396.12 Q183.866 1398.99 182.223 1400.98 Q180.579 1402.94 177.547 1403.71 Z" fill="#000000" fill-rule="evenodd" fill-opacity="1" /><path clip-path="url(#clip430)" d="M129.862 1140.07 L118.056 1158.52 L129.862 1158.52 L129.862 1140.07 M128.635 1135.99 L134.515 1135.99 L134.515 1158.52 L139.445 1158.52 L139.445 1162.41 L134.515 1162.41 L134.515 1170.55 L129.862 1170.55 L129.862 1162.41 L114.26 1162.41 L114.26 1157.89 L128.635 1135.99 Z" fill="#000000" fill-rule="evenodd" fill-opacity="1" /><path clip-path="url(#clip430)" d="M147.177 1164.67 L152.061 1164.67 L152.061 1170.55 L147.177 1170.55 L147.177 1164.67 Z" fill="#000000" fill-rule="evenodd" fill-opacity="1" /><path clip-path="url(#clip430)" d="M175.093 1140.07 L163.288 1158.52 L175.093 1158.52 L175.093 1140.07 M173.866 1135.99 L179.746 1135.99 L179.746 1158.52 L184.676 1158.52 L184.676 1162.41 L179.746 1162.41 L179.746 1170.55 L175.093 1170.55 L175.093 1162.41 L159.491 1162.41 L159.491 1157.89 L173.866 1135.99 Z" fill="#000000" fill-rule="evenodd" fill-opacity="1" /><path clip-path="url(#clip430)" d="M131.343 888.279 L119.538 906.728 L131.343 906.728 L131.343 888.279 M130.117 884.205 L135.996 884.205 L135.996 906.728 L140.927 906.728 L140.927 910.617 L135.996 910.617 L135.996 918.765 L131.343 918.765 L131.343 910.617 L115.742 910.617 L115.742 906.103 L130.117 884.205 Z" fill="#000000" fill-rule="evenodd" fill-opacity="1" /><path clip-path="url(#clip430)" d="M148.658 912.885 L153.542 912.885 L153.542 918.765 L148.658 918.765 L148.658 912.885 Z" fill="#000000" fill-rule="evenodd" fill-opacity="1" /><path clip-path="url(#clip430)" d="M163.774 884.205 L182.13 884.205 L182.13 888.14 L168.056 888.14 L168.056 896.612 Q169.075 896.265 170.093 896.103 Q171.112 895.918 172.13 895.918 Q177.917 895.918 181.297 899.089 Q184.676 902.26 184.676 907.677 Q184.676 913.256 181.204 916.358 Q177.732 919.436 171.413 919.436 Q169.237 919.436 166.968 919.066 Q164.723 918.696 162.315 917.955 L162.315 913.256 Q164.399 914.39 166.621 914.946 Q168.843 915.501 171.32 915.501 Q175.325 915.501 177.663 913.395 Q180.001 911.288 180.001 907.677 Q180.001 904.066 177.663 901.96 Q175.325 899.853 171.32 899.853 Q169.445 899.853 167.57 900.27 Q165.718 900.686 163.774 901.566 L163.774 884.205 Z" fill="#000000" fill-rule="evenodd" fill-opacity="1" /><path clip-path="url(#clip430)" d="M130.186 636.49 L118.381 654.939 L130.186 654.939 L130.186 636.49 M128.959 632.416 L134.839 632.416 L134.839 654.939 L139.769 654.939 L139.769 658.828 L134.839 658.828 L134.839 666.976 L130.186 666.976 L130.186 658.828 L114.584 658.828 L114.584 654.314 L128.959 632.416 Z" fill="#000000" fill-rule="evenodd" fill-opacity="1" /><path clip-path="url(#clip430)" d="M147.501 661.097 L152.385 661.097 L152.385 666.976 L147.501 666.976 L147.501 661.097 Z" fill="#000000" fill-rule="evenodd" fill-opacity="1" /><path clip-path="url(#clip430)" d="M173.149 647.833 Q170.001 647.833 168.149 649.986 Q166.32 652.139 166.32 655.889 Q166.32 659.615 168.149 661.791 Q170.001 663.944 173.149 663.944 Q176.297 663.944 178.126 661.791 Q179.977 659.615 179.977 655.889 Q179.977 652.139 178.126 649.986 Q176.297 647.833 173.149 647.833 M182.431 633.18 L182.431 637.44 Q180.672 636.606 178.866 636.166 Q177.084 635.727 175.325 635.727 Q170.695 635.727 168.241 638.852 Q165.811 641.977 165.464 648.296 Q166.829 646.282 168.889 645.217 Q170.95 644.129 173.427 644.129 Q178.635 644.129 181.644 647.301 Q184.676 650.449 184.676 655.889 Q184.676 661.213 181.528 664.43 Q178.38 667.648 173.149 667.648 Q167.153 667.648 163.982 663.064 Q160.811 658.458 160.811 649.731 Q160.811 641.537 164.7 636.676 Q168.589 631.791 175.139 631.791 Q176.899 631.791 178.681 632.139 Q180.487 632.486 182.431 633.18 Z" fill="#000000" fill-rule="evenodd" fill-opacity="1" /><path clip-path="url(#clip430)" d="M131.251 384.702 L119.445 403.151 L131.251 403.151 L131.251 384.702 M130.024 380.628 L135.904 380.628 L135.904 403.151 L140.834 403.151 L140.834 407.04 L135.904 407.04 L135.904 415.188 L131.251 415.188 L131.251 407.04 L115.649 407.04 L115.649 402.526 L130.024 380.628 Z" fill="#000000" fill-rule="evenodd" fill-opacity="1" /><path clip-path="url(#clip430)" d="M148.566 409.308 L153.45 409.308 L153.45 415.188 L148.566 415.188 L148.566 409.308 Z" fill="#000000" fill-rule="evenodd" fill-opacity="1" /><path clip-path="url(#clip430)" d="M162.454 380.628 L184.676 380.628 L184.676 382.619 L172.13 415.188 L167.246 415.188 L179.051 384.563 L162.454 384.563 L162.454 380.628 Z" fill="#000000" fill-rule="evenodd" fill-opacity="1" /><path clip-path="url(#clip430)" d="M130.441 132.913 L118.635 151.362 L130.441 151.362 L130.441 132.913 M129.214 128.839 L135.093 128.839 L135.093 151.362 L140.024 151.362 L140.024 155.251 L135.093 155.251 L135.093 163.399 L130.441 163.399 L130.441 155.251 L114.839 155.251 L114.839 150.737 L129.214 128.839 Z" fill="#000000" fill-rule="evenodd" fill-opacity="1" /><path clip-path="url(#clip430)" d="M147.755 157.52 L152.64 157.52 L152.64 163.399 L147.755 163.399 L147.755 157.52 Z" fill="#000000" fill-rule="evenodd" fill-opacity="1" /><path clip-path="url(#clip430)" d="M172.825 146.987 Q169.491 146.987 167.57 148.77 Q165.672 150.552 165.672 153.677 Q165.672 156.802 167.57 158.585 Q169.491 160.367 172.825 160.367 Q176.158 160.367 178.079 158.585 Q180.001 156.779 180.001 153.677 Q180.001 150.552 178.079 148.77 Q176.181 146.987 172.825 146.987 M168.149 144.997 Q165.14 144.256 163.45 142.196 Q161.783 140.136 161.783 137.173 Q161.783 133.029 164.723 130.622 Q167.686 128.214 172.825 128.214 Q177.987 128.214 180.926 130.622 Q183.866 133.029 183.866 137.173 Q183.866 140.136 182.176 142.196 Q180.51 144.256 177.524 144.997 Q180.903 145.784 182.778 148.075 Q184.676 150.367 184.676 153.677 Q184.676 158.7 181.598 161.385 Q178.542 164.071 172.825 164.071 Q167.107 164.071 164.028 161.385 Q160.973 158.7 160.973 153.677 Q160.973 150.367 162.871 148.075 Q164.769 145.784 168.149 144.997 M166.436 137.612 Q166.436 140.298 168.102 141.802 Q169.792 143.307 172.825 143.307 Q175.834 143.307 177.524 141.802 Q179.237 140.298 179.237 137.612 Q179.237 134.927 177.524 133.423 Q175.834 131.918 172.825 131.918 Q169.792 131.918 168.102 133.423 Q166.436 134.927 166.436 137.612 Z" fill="#000000" fill-rule="evenodd" fill-opacity="1" /><path clip-path="url(#clip430)" d="M35.1993 829.203 Q31.2526 827.007 29.3747 823.951 Q27.4968 820.896 27.4968 816.758 Q27.4968 811.188 31.4117 808.164 Q35.2948 805.141 42.4881 805.141 L64.0042 805.141 L64.0042 811.029 L42.679 811.029 Q37.5546 811.029 35.072 812.843 Q32.5894 814.657 32.5894 818.381 Q32.5894 822.933 35.6131 825.574 Q38.6368 828.216 43.8567 828.216 L64.0042 828.216 L64.0042 834.105 L42.679 834.105 Q37.5228 834.105 35.072 835.919 Q32.5894 837.733 32.5894 841.521 Q32.5894 846.008 35.6449 848.65 Q38.6686 851.292 43.8567 851.292 L64.0042 851.292 L64.0042 857.18 L28.3562 857.18 L28.3562 851.292 L33.8944 851.292 Q30.616 849.287 29.0564 846.486 Q27.4968 843.685 27.4968 839.834 Q27.4968 835.951 29.4702 833.245 Q31.4436 830.508 35.1993 829.203 Z" fill="#000000" fill-rule="evenodd" fill-opacity="1" /><path clip-path="url(#clip430)" d="M28.3562 793.459 L28.3562 787.603 L64.0042 787.603 L64.0042 793.459 L28.3562 793.459 M14.479 793.459 L14.479 787.603 L21.895 787.603 L21.895 793.459 L14.479 793.459 Z" fill="#000000" fill-rule="evenodd" fill-opacity="1" /><path clip-path="url(#clip430)" d="M42.4881 745.717 L64.0042 745.717 L64.0042 751.573 L42.679 751.573 Q37.6183 751.573 35.1038 753.547 Q32.5894 755.52 32.5894 759.467 Q32.5894 764.209 35.6131 766.946 Q38.6368 769.684 43.8567 769.684 L64.0042 769.684 L64.0042 775.572 L28.3562 775.572 L28.3562 769.684 L33.8944 769.684 Q30.6797 767.583 29.0883 764.75 Q27.4968 761.886 27.4968 758.162 Q27.4968 752.019 31.3163 748.868 Q35.1038 745.717 42.4881 745.717 Z" fill="#000000" fill-rule="evenodd" fill-opacity="1" /><path clip-path="url(#clip430)" d="M74.8259 706.95 L79.3773 706.95 L79.3773 740.815 L74.8259 740.815 L74.8259 706.95 Z" fill="#000000" fill-rule="evenodd" fill-opacity="1" /><path clip-path="url(#clip430)" d="M33.7671 677.986 L14.479 677.986 L14.479 672.129 L64.0042 672.129 L64.0042 677.986 L58.657 677.986 Q61.8398 679.832 63.3994 682.664 Q64.9272 685.465 64.9272 689.412 Q64.9272 695.873 59.771 699.947 Q54.6147 703.989 46.212 703.989 Q37.8093 703.989 32.6531 699.947 Q27.4968 695.873 27.4968 689.412 Q27.4968 685.465 29.0564 682.664 Q30.5842 679.832 33.7671 677.986 M46.212 697.942 Q52.6732 697.942 56.3653 695.3 Q60.0256 692.627 60.0256 687.98 Q60.0256 683.333 56.3653 680.659 Q52.6732 677.986 46.212 677.986 Q39.7508 677.986 36.0905 680.659 Q32.3984 683.333 32.3984 687.98 Q32.3984 692.627 36.0905 695.3 Q39.7508 697.942 46.212 697.942 Z" fill="#000000" fill-rule="evenodd" fill-opacity="1" /><path clip-path="url(#clip430)" d="M28.3562 660.066 L28.3562 654.21 L64.0042 654.21 L64.0042 660.066 L28.3562 660.066 M14.479 660.066 L14.479 654.21 L21.895 654.21 L21.895 660.066 L14.479 660.066 Z" fill="#000000" fill-rule="evenodd" fill-opacity="1" /><path clip-path="url(#clip430)" d="M14.479 623.909 L19.3487 623.909 L19.3487 629.511 Q19.3487 632.662 20.6219 633.903 Q21.895 635.113 25.2052 635.113 L28.3562 635.113 L28.3562 625.468 L32.9077 625.468 L32.9077 635.113 L64.0042 635.113 L64.0042 641.001 L32.9077 641.001 L32.9077 646.603 L28.3562 646.603 L28.3562 641.001 L25.8736 641.001 Q19.9216 641.001 17.2162 638.232 Q14.479 635.463 14.479 629.447 L14.479 623.909 Z" fill="#000000" fill-rule="evenodd" fill-opacity="1" /><path clip-path="url(#clip430)" d="M14.479 600.961 L19.3487 600.961 L19.3487 606.562 Q19.3487 609.713 20.6219 610.955 Q21.895 612.164 25.2052 612.164 L28.3562 612.164 L28.3562 602.52 L32.9077 602.52 L32.9077 612.164 L64.0042 612.164 L64.0042 618.052 L32.9077 618.052 L32.9077 623.654 L28.3562 623.654 L28.3562 618.052 L25.8736 618.052 Q19.9216 618.052 17.2162 615.283 Q14.479 612.514 14.479 606.499 L14.479 600.961 Z" fill="#000000" fill-rule="evenodd" fill-opacity="1" /><polyline clip-path="url(#clip432)" style="stroke:#009af9; stroke-linecap:butt; stroke-linejoin:round; stroke-width:20; stroke-opacity:1; fill:none" stroke-dasharray="80, 50" points="
  281.018,85.838 1286.72,1372.3 2292.41,751.847 
  "/>
<path clip-path="url(#clip430)" d="
M1992.36 196.379 L2281.69 196.379 L2281.69 92.6992 L1992.36 92.6992  Z
  " fill="#ffffff" fill-rule="evenodd" fill-opacity="1"/>
<polyline clip-path="url(#clip430)" style="stroke:#000000; stroke-linecap:butt; stroke-linejoin:round; stroke-width:4; stroke-opacity:1; fill:none" points="
  1992.36,196.379 2281.69,196.379 2281.69,92.6992 1992.36,92.6992 1992.36,196.379 
  "/>
<polyline clip-path="url(#clip430)" style="stroke:#009af9; stroke-linecap:butt; stroke-linejoin:round; stroke-width:4; stroke-opacity:1; fill:none" stroke-dasharray="16, 10" points="
  2016.05,144.539 2158.19,144.539 
  "/>
<path clip-path="url(#clip430)" d="M2195.72 164.227 Q2193.91 168.856 2192.2 170.268 Q2190.49 171.68 2187.62 171.68 L2184.21 171.68 L2184.21 168.115 L2186.71 168.115 Q2188.47 168.115 2189.45 167.282 Q2190.42 166.449 2191.6 163.347 L2192.36 161.403 L2181.88 135.893 L2186.39 135.893 L2194.49 156.171 L2202.59 135.893 L2207.11 135.893 L2195.72 164.227 Z" fill="#000000" fill-rule="evenodd" fill-opacity="1" /><path clip-path="url(#clip430)" d="M2214.4 157.884 L2222.04 157.884 L2222.04 131.518 L2213.73 133.185 L2213.73 128.926 L2221.99 127.259 L2226.67 127.259 L2226.67 157.884 L2234.31 157.884 L2234.31 161.819 L2214.4 161.819 L2214.4 157.884 Z" fill="#000000" fill-rule="evenodd" fill-opacity="1" /></svg>
