<?xml version="1.0" encoding="utf-8"?>
<svg xmlns="http://www.w3.org/2000/svg" xmlns:xlink="http://www.w3.org/1999/xlink" width="600" height="400" viewBox="0 0 2400 1600">
<defs>
  <clipPath id="clip140">
    <rect x="0" y="0" width="2400" height="1600"/>
  </clipPath>
</defs>
<path clip-path="url(#clip140)" d="
M0 1600 L2400 1600 L2400 0 L0 0  Z
  " fill="#ffffff" fill-rule="evenodd" fill-opacity="1"/>
<defs>
  <clipPath id="clip141">
    <rect x="480" y="0" width="1681" height="1600"/>
  </clipPath>
</defs>
<path clip-path="url(#clip140)" d="
M229.473 1410.9 L2352.76 1410.9 L2352.76 47.2441 L229.473 47.2441  Z
  " fill="#ffffff" fill-rule="evenodd" fill-opacity="1"/>
<defs>
  <clipPath id="clip142">
    <rect x="229" y="47" width="2124" height="1365"/>
  </clipPath>
</defs>
<polyline clip-path="url(#clip142)" style="stroke:#000000; stroke-width:2; stroke-opacity:0.1; fill:none" points="
  513.655,1410.9 513.655,47.2441 
  "/>
<polyline clip-path="url(#clip142)" style="stroke:#000000; stroke-width:2; stroke-opacity:0.1; fill:none" points="
  957.265,1410.9 957.265,47.2441 
  "/>
<polyline clip-path="url(#clip142)" style="stroke:#000000; stroke-width:2; stroke-opacity:0.1; fill:none" points="
  1400.87,1410.9 1400.87,47.2441 
  "/>
<polyline clip-path="url(#clip142)" style="stroke:#000000; stroke-width:2; stroke-opacity:0.1; fill:none" points="
  1844.48,1410.9 1844.48,47.2441 
  "/>
<polyline clip-path="url(#clip142)" style="stroke:#000000; stroke-width:2; stroke-opacity:0.1; fill:none" points="
  2288.09,1410.9 2288.09,47.2441 
  "/>
<polyline clip-path="url(#clip140)" style="stroke:#000000; stroke-width:4; stroke-opacity:1; fill:none" points="
  229.473,1410.9 2352.76,1410.9 
  "/>
<polyline clip-path="url(#clip140)" style="stroke:#000000; stroke-width:4; stroke-opacity:1; fill:none" points="
  513.655,1410.9 513.655,1394.53 
  "/>
<polyline clip-path="url(#clip140)" style="stroke:#000000; stroke-width:4; stroke-opacity:1; fill:none" points="
  957.265,1410.9 957.265,1394.53 
  "/>
<polyline clip-path="url(#clip140)" style="stroke:#000000; stroke-width:4; stroke-opacity:1; fill:none" points="
  1400.87,1410.9 1400.87,1394.53 
  "/>
<polyline clip-path="url(#clip140)" style="stroke:#000000; stroke-width:4; stroke-opacity:1; fill:none" points="
  1844.48,1410.9 1844.48,1394.53 
  "/>
<polyline clip-path="url(#clip140)" style="stroke:#000000; stroke-width:4; stroke-opacity:1; fill:none" points="
  2288.09,1410.9 2288.09,1394.53 
  "/>
<path clip-path="url(#clip140)" d="M 0 0 M453.131 1489.17 L460.77 1489.17 L460.77 1462.8 L452.46 1464.47 L452.46 1460.21 L460.723 1458.54 L465.399 1458.54 L465.399 1489.17 L473.038 1489.17 L473.038 1493.1 L453.131 1493.1 L453.131 1489.17 Z" fill="#000000" fill-rule="evenodd" fill-opacity="1" /><path clip-path="url(#clip140)" d="M 0 0 M488.108 1461.62 Q484.496 1461.62 482.668 1465.19 Q480.862 1468.73 480.862 1475.86 Q480.862 1482.97 482.668 1486.53 Q484.496 1490.07 488.108 1490.07 Q491.742 1490.07 493.547 1486.53 Q495.376 1482.97 495.376 1475.86 Q495.376 1468.73 493.547 1465.19 Q491.742 1461.62 488.108 1461.62 M488.108 1457.92 Q493.918 1457.92 496.973 1462.53 Q500.052 1467.11 500.052 1475.86 Q500.052 1484.59 496.973 1489.19 Q493.918 1493.78 488.108 1493.78 Q482.297 1493.78 479.219 1489.19 Q476.163 1484.59 476.163 1475.86 Q476.163 1467.11 479.219 1462.53 Q482.297 1457.92 488.108 1457.92 Z" fill="#000000" fill-rule="evenodd" fill-opacity="1" /><path clip-path="url(#clip140)" d="M 0 0 M500.052 1452.02 L524.164 1452.02 L524.164 1455.22 L500.052 1455.22 L500.052 1452.02 Z" fill="#000000" fill-rule="evenodd" fill-opacity="1" /><path clip-path="url(#clip140)" d="M 0 0 M536.407 1440.11 Q533.473 1440.11 531.988 1443.01 Q530.521 1445.89 530.521 1451.68 Q530.521 1457.46 531.988 1460.35 Q533.473 1463.23 536.407 1463.23 Q539.36 1463.23 540.827 1460.35 Q542.313 1457.46 542.313 1451.68 Q542.313 1445.89 540.827 1443.01 Q539.36 1440.11 536.407 1440.11 M536.407 1437.11 Q541.128 1437.11 543.611 1440.85 Q546.112 1444.57 546.112 1451.68 Q546.112 1458.77 543.611 1462.51 Q541.128 1466.24 536.407 1466.24 Q531.687 1466.24 529.185 1462.51 Q526.703 1458.77 526.703 1451.68 Q526.703 1444.57 529.185 1440.85 Q531.687 1437.11 536.407 1437.11 Z" fill="#000000" fill-rule="evenodd" fill-opacity="1" /><path clip-path="url(#clip140)" d="M 0 0 M550.231 1460.92 L554.2 1460.92 L554.2 1465.69 L550.231 1465.69 L550.231 1460.92 Z" fill="#000000" fill-rule="evenodd" fill-opacity="1" /><path clip-path="url(#clip140)" d="M 0 0 M561.591 1462.5 L574.85 1462.5 L574.85 1465.69 L557.021 1465.69 L557.021 1462.5 Q559.184 1460.26 562.908 1456.5 Q566.65 1452.72 567.609 1451.63 Q569.434 1449.58 570.149 1448.16 Q570.882 1446.74 570.882 1445.36 Q570.882 1443.12 569.302 1441.71 Q567.741 1440.3 565.221 1440.3 Q563.434 1440.3 561.441 1440.92 Q559.466 1441.54 557.209 1442.8 L557.209 1438.97 Q559.503 1438.05 561.497 1437.58 Q563.491 1437.11 565.146 1437.11 Q569.509 1437.11 572.105 1439.29 Q574.7 1441.47 574.7 1445.12 Q574.7 1446.85 574.042 1448.41 Q573.402 1449.95 571.691 1452.06 Q571.221 1452.6 568.7 1455.22 Q566.18 1457.81 561.591 1462.5 Z" fill="#000000" fill-rule="evenodd" fill-opacity="1" /><path clip-path="url(#clip140)" d="M 0 0 M909.417 1489.17 L917.056 1489.17 L917.056 1462.8 L908.746 1464.47 L908.746 1460.21 L917.01 1458.54 L921.686 1458.54 L921.686 1489.17 L929.324 1489.17 L929.324 1493.1 L909.417 1493.1 L909.417 1489.17 Z" fill="#000000" fill-rule="evenodd" fill-opacity="1" /><path clip-path="url(#clip140)" d="M 0 0 M944.394 1461.62 Q940.783 1461.62 938.954 1465.19 Q937.148 1468.73 937.148 1475.86 Q937.148 1482.97 938.954 1486.53 Q940.783 1490.07 944.394 1490.07 Q948.028 1490.07 949.834 1486.53 Q951.662 1482.97 951.662 1475.86 Q951.662 1468.73 949.834 1465.19 Q948.028 1461.62 944.394 1461.62 M944.394 1457.92 Q950.204 1457.92 953.259 1462.53 Q956.338 1467.11 956.338 1475.86 Q956.338 1484.59 953.259 1489.19 Q950.204 1493.78 944.394 1493.78 Q938.584 1493.78 935.505 1489.19 Q932.449 1484.59 932.449 1475.86 Q932.449 1467.11 935.505 1462.53 Q938.584 1457.92 944.394 1457.92 Z" fill="#000000" fill-rule="evenodd" fill-opacity="1" /><path clip-path="url(#clip140)" d="M 0 0 M966.043 1440.11 Q963.109 1440.11 961.623 1443.01 Q960.156 1445.89 960.156 1451.68 Q960.156 1457.46 961.623 1460.35 Q963.109 1463.23 966.043 1463.23 Q968.996 1463.23 970.463 1460.35 Q971.949 1457.46 971.949 1451.68 Q971.949 1445.89 970.463 1443.01 Q968.996 1440.11 966.043 1440.11 M966.043 1437.11 Q970.764 1437.11 973.246 1440.85 Q975.748 1444.57 975.748 1451.68 Q975.748 1458.77 973.246 1462.51 Q970.764 1466.24 966.043 1466.24 Q961.322 1466.24 958.821 1462.51 Q956.338 1458.77 956.338 1451.68 Q956.338 1444.57 958.821 1440.85 Q961.322 1437.11 966.043 1437.11 Z" fill="#000000" fill-rule="evenodd" fill-opacity="1" /><path clip-path="url(#clip140)" d="M 0 0 M979.867 1460.92 L983.835 1460.92 L983.835 1465.69 L979.867 1465.69 L979.867 1460.92 Z" fill="#000000" fill-rule="evenodd" fill-opacity="1" /><path clip-path="url(#clip140)" d="M 0 0 M996.079 1440.11 Q993.145 1440.11 991.659 1443.01 Q990.192 1445.89 990.192 1451.68 Q990.192 1457.46 991.659 1460.35 Q993.145 1463.23 996.079 1463.23 Q999.032 1463.23 1000.5 1460.35 Q1001.98 1457.46 1001.98 1451.68 Q1001.98 1445.89 1000.5 1443.01 Q999.032 1440.11 996.079 1440.11 M996.079 1437.11 Q1000.8 1437.11 1003.28 1440.85 Q1005.78 1444.57 1005.78 1451.68 Q1005.78 1458.77 1003.28 1462.51 Q1000.8 1466.24 996.079 1466.24 Q991.358 1466.24 988.857 1462.51 Q986.374 1458.77 986.374 1451.68 Q986.374 1444.57 988.857 1440.85 Q991.358 1437.11 996.079 1437.11 Z" fill="#000000" fill-rule="evenodd" fill-opacity="1" /><path clip-path="url(#clip140)" d="M 0 0 M1353.68 1489.17 L1361.31 1489.17 L1361.31 1462.8 L1353 1464.47 L1353 1460.21 L1361.27 1458.54 L1365.94 1458.54 L1365.94 1489.17 L1373.58 1489.17 L1373.58 1493.1 L1353.68 1493.1 L1353.68 1489.17 Z" fill="#000000" fill-rule="evenodd" fill-opacity="1" /><path clip-path="url(#clip140)" d="M 0 0 M1388.65 1461.62 Q1385.04 1461.62 1383.21 1465.19 Q1381.41 1468.73 1381.41 1475.86 Q1381.41 1482.97 1383.21 1486.53 Q1385.04 1490.07 1388.65 1490.07 Q1392.29 1490.07 1394.09 1486.53 Q1395.92 1482.97 1395.92 1475.86 Q1395.92 1468.73 1394.09 1465.19 Q1392.29 1461.62 1388.65 1461.62 M1388.65 1457.92 Q1394.46 1457.92 1397.52 1462.53 Q1400.6 1467.11 1400.6 1475.86 Q1400.6 1484.59 1397.52 1489.19 Q1394.46 1493.78 1388.65 1493.78 Q1382.84 1493.78 1379.76 1489.19 Q1376.71 1484.59 1376.71 1475.86 Q1376.71 1467.11 1379.76 1462.53 Q1382.84 1457.92 1388.65 1457.92 Z" fill="#000000" fill-rule="evenodd" fill-opacity="1" /><path clip-path="url(#clip140)" d="M 0 0 M1410.3 1440.11 Q1407.37 1440.11 1405.88 1443.01 Q1404.41 1445.89 1404.41 1451.68 Q1404.41 1457.46 1405.88 1460.35 Q1407.37 1463.23 1410.3 1463.23 Q1413.25 1463.23 1414.72 1460.35 Q1416.21 1457.46 1416.21 1451.68 Q1416.21 1445.89 1414.72 1443.01 Q1413.25 1440.11 1410.3 1440.11 M1410.3 1437.11 Q1415.02 1437.11 1417.5 1440.85 Q1420.01 1444.57 1420.01 1451.68 Q1420.01 1458.77 1417.5 1462.51 Q1415.02 1466.24 1410.3 1466.24 Q1405.58 1466.24 1403.08 1462.51 Q1400.6 1458.77 1400.6 1451.68 Q1400.6 1444.57 1403.08 1440.85 Q1405.58 1437.11 1410.3 1437.11 Z" fill="#000000" fill-rule="evenodd" fill-opacity="1" /><path clip-path="url(#clip140)" d="M 0 0 M1424.13 1460.92 L1428.09 1460.92 L1428.09 1465.69 L1424.13 1465.69 L1424.13 1460.92 Z" fill="#000000" fill-rule="evenodd" fill-opacity="1" /><path clip-path="url(#clip140)" d="M 0 0 M1435.49 1462.5 L1448.74 1462.5 L1448.74 1465.69 L1430.91 1465.69 L1430.91 1462.5 Q1433.08 1460.26 1436.8 1456.5 Q1440.54 1452.72 1441.5 1451.63 Q1443.33 1449.58 1444.04 1448.16 Q1444.78 1446.74 1444.78 1445.36 Q1444.78 1443.12 1443.2 1441.71 Q1441.64 1440.3 1439.11 1440.3 Q1437.33 1440.3 1435.33 1440.92 Q1433.36 1441.54 1431.1 1442.8 L1431.1 1438.97 Q1433.4 1438.05 1435.39 1437.58 Q1437.38 1437.11 1439.04 1437.11 Q1443.4 1437.11 1446 1439.29 Q1448.59 1441.47 1448.59 1445.12 Q1448.59 1446.85 1447.94 1448.41 Q1447.3 1449.95 1445.58 1452.06 Q1445.11 1452.6 1442.59 1455.22 Q1440.07 1457.81 1435.49 1462.5 Z" fill="#000000" fill-rule="evenodd" fill-opacity="1" /><path clip-path="url(#clip140)" d="M 0 0 M1796.44 1489.17 L1804.08 1489.17 L1804.08 1462.8 L1795.77 1464.47 L1795.77 1460.21 L1804.03 1458.54 L1808.71 1458.54 L1808.71 1489.17 L1816.35 1489.17 L1816.35 1493.1 L1796.44 1493.1 L1796.44 1489.17 Z" fill="#000000" fill-rule="evenodd" fill-opacity="1" /><path clip-path="url(#clip140)" d="M 0 0 M1831.42 1461.62 Q1827.8 1461.62 1825.98 1465.19 Q1824.17 1468.73 1824.17 1475.86 Q1824.17 1482.97 1825.98 1486.53 Q1827.8 1490.07 1831.42 1490.07 Q1835.05 1490.07 1836.86 1486.53 Q1838.68 1482.97 1838.68 1475.86 Q1838.68 1468.73 1836.86 1465.19 Q1835.05 1461.62 1831.42 1461.62 M1831.42 1457.92 Q1837.23 1457.92 1840.28 1462.53 Q1843.36 1467.11 1843.36 1475.86 Q1843.36 1484.59 1840.28 1489.19 Q1837.23 1493.78 1831.42 1493.78 Q1825.61 1493.78 1822.53 1489.19 Q1819.47 1484.59 1819.47 1475.86 Q1819.47 1467.11 1822.53 1462.53 Q1825.61 1457.92 1831.42 1457.92 Z" fill="#000000" fill-rule="evenodd" fill-opacity="1" /><path clip-path="url(#clip140)" d="M 0 0 M1853.06 1440.11 Q1850.13 1440.11 1848.64 1443.01 Q1847.18 1445.89 1847.18 1451.68 Q1847.18 1457.46 1848.64 1460.35 Q1850.13 1463.23 1853.06 1463.23 Q1856.02 1463.23 1857.48 1460.35 Q1858.97 1457.46 1858.97 1451.68 Q1858.97 1445.89 1857.48 1443.01 Q1856.02 1440.11 1853.06 1440.11 M1853.06 1437.11 Q1857.79 1437.11 1860.27 1440.85 Q1862.77 1444.57 1862.77 1451.68 Q1862.77 1458.77 1860.27 1462.51 Q1857.79 1466.24 1853.06 1466.24 Q1848.34 1466.24 1845.84 1462.51 Q1843.36 1458.77 1843.36 1451.68 Q1843.36 1444.57 1845.84 1440.85 Q1848.34 1437.11 1853.06 1437.11 Z" fill="#000000" fill-rule="evenodd" fill-opacity="1" /><path clip-path="url(#clip140)" d="M 0 0 M1866.89 1460.92 L1870.86 1460.92 L1870.86 1465.69 L1866.89 1465.69 L1866.89 1460.92 Z" fill="#000000" fill-rule="evenodd" fill-opacity="1" /><path clip-path="url(#clip140)" d="M 0 0 M1885.41 1440.92 L1875.82 1455.91 L1885.41 1455.91 L1885.41 1440.92 M1884.42 1437.61 L1889.19 1437.61 L1889.19 1455.91 L1893.2 1455.91 L1893.2 1459.07 L1889.19 1459.07 L1889.19 1465.69 L1885.41 1465.69 L1885.41 1459.07 L1872.74 1459.07 L1872.74 1455.41 L1884.42 1437.61 Z" fill="#000000" fill-rule="evenodd" fill-opacity="1" /><path clip-path="url(#clip140)" d="M 0 0 M2240.18 1489.17 L2247.82 1489.17 L2247.82 1462.8 L2239.51 1464.47 L2239.51 1460.21 L2247.77 1458.54 L2252.45 1458.54 L2252.45 1489.17 L2260.09 1489.17 L2260.09 1493.1 L2240.18 1493.1 L2240.18 1489.17 Z" fill="#000000" fill-rule="evenodd" fill-opacity="1" /><path clip-path="url(#clip140)" d="M 0 0 M2275.16 1461.62 Q2271.55 1461.62 2269.72 1465.19 Q2267.91 1468.73 2267.91 1475.86 Q2267.91 1482.97 2269.72 1486.53 Q2271.55 1490.07 2275.16 1490.07 Q2278.79 1490.07 2280.6 1486.53 Q2282.43 1482.97 2282.43 1475.86 Q2282.43 1468.73 2280.6 1465.19 Q2278.79 1461.62 2275.16 1461.62 M2275.16 1457.92 Q2280.97 1457.92 2284.02 1462.53 Q2287.1 1467.11 2287.1 1475.86 Q2287.1 1484.59 2284.02 1489.19 Q2280.97 1493.78 2275.16 1493.78 Q2269.35 1493.78 2266.27 1489.19 Q2263.21 1484.59 2263.21 1475.86 Q2263.21 1467.11 2266.27 1462.53 Q2269.35 1457.92 2275.16 1457.92 Z" fill="#000000" fill-rule="evenodd" fill-opacity="1" /><path clip-path="url(#clip140)" d="M 0 0 M2296.81 1440.11 Q2293.87 1440.11 2292.39 1443.01 Q2290.92 1445.89 2290.92 1451.68 Q2290.92 1457.46 2292.39 1460.35 Q2293.87 1463.23 2296.81 1463.23 Q2299.76 1463.23 2301.23 1460.35 Q2302.71 1457.46 2302.71 1451.68 Q2302.71 1445.89 2301.23 1443.01 Q2299.76 1440.11 2296.81 1440.11 M2296.81 1437.11 Q2301.53 1437.11 2304.01 1440.85 Q2306.51 1444.57 2306.51 1451.68 Q2306.51 1458.77 2304.01 1462.51 Q2301.53 1466.24 2296.81 1466.24 Q2292.09 1466.24 2289.58 1462.51 Q2287.1 1458.77 2287.1 1451.68 Q2287.1 1444.57 2289.58 1440.85 Q2292.09 1437.11 2296.81 1437.11 Z" fill="#000000" fill-rule="evenodd" fill-opacity="1" /><path clip-path="url(#clip140)" d="M 0 0 M2310.63 1460.92 L2314.6 1460.92 L2314.6 1465.69 L2310.63 1465.69 L2310.63 1460.92 Z" fill="#000000" fill-rule="evenodd" fill-opacity="1" /><path clip-path="url(#clip140)" d="M 0 0 M2327.31 1450.14 Q2324.75 1450.14 2323.25 1451.89 Q2321.76 1453.64 2321.76 1456.68 Q2321.76 1459.71 2323.25 1461.48 Q2324.75 1463.23 2327.31 1463.23 Q2329.87 1463.23 2331.36 1461.48 Q2332.86 1459.71 2332.86 1456.68 Q2332.86 1453.64 2331.36 1451.89 Q2329.87 1450.14 2327.31 1450.14 M2334.85 1438.23 L2334.85 1441.69 Q2333.42 1441.02 2331.96 1440.66 Q2330.51 1440.3 2329.08 1440.3 Q2325.32 1440.3 2323.33 1442.84 Q2321.35 1445.38 2321.07 1450.52 Q2322.18 1448.88 2323.85 1448.01 Q2325.53 1447.13 2327.54 1447.13 Q2331.77 1447.13 2334.21 1449.71 Q2336.68 1452.26 2336.68 1456.68 Q2336.68 1461.01 2334.12 1463.62 Q2331.56 1466.24 2327.31 1466.24 Q2322.44 1466.24 2319.86 1462.51 Q2317.29 1458.77 2317.29 1451.68 Q2317.29 1445.02 2320.45 1441.07 Q2323.61 1437.11 2328.93 1437.11 Q2330.36 1437.11 2331.81 1437.39 Q2333.27 1437.67 2334.85 1438.23 Z" fill="#000000" fill-rule="evenodd" fill-opacity="1" /><path clip-path="url(#clip140)" d="M 0 0 M1281.6 1559.99 L1281.6 1575.74 L1275.71 1575.74 L1275.71 1526.76 Q1275.71 1512.25 1289.27 1512.25 Q1303.08 1512.25 1303.08 1524.5 Q1303.08 1533.22 1297.61 1536.4 Q1306.52 1539.27 1306.52 1547.77 Q1306.52 1562.85 1291.18 1562.85 Q1284.43 1562.85 1281.6 1559.99 M1281.6 1552.35 Q1285.13 1557.86 1291.4 1557.86 Q1300.57 1557.86 1300.57 1547.86 Q1300.57 1538.89 1285.8 1539.59 L1285.8 1534.18 Q1297.35 1534.18 1297.35 1523.99 Q1297.35 1517.02 1289.9 1517.02 Q1281.6 1517.02 1281.6 1526.95 L1281.6 1552.35 Z" fill="#000000" fill-rule="evenodd" fill-opacity="1" /><polyline clip-path="url(#clip142)" style="stroke:#000000; stroke-width:2; stroke-opacity:0.1; fill:none" points="
  229.473,1383.85 2352.76,1383.85 
  "/>
<polyline clip-path="url(#clip142)" style="stroke:#000000; stroke-width:2; stroke-opacity:0.1; fill:none" points="
  229.473,1006.16 2352.76,1006.16 
  "/>
<polyline clip-path="url(#clip142)" style="stroke:#000000; stroke-width:2; stroke-opacity:0.1; fill:none" points="
  229.473,628.472 2352.76,628.472 
  "/>
<polyline clip-path="url(#clip142)" style="stroke:#000000; stroke-width:2; stroke-opacity:0.1; fill:none" points="
  229.473,250.783 2352.76,250.783 
  "/>
<polyline clip-path="url(#clip140)" style="stroke:#000000; stroke-width:4; stroke-opacity:1; fill:none" points="
  229.473,1410.9 229.473,47.2441 
  "/>
<polyline clip-path="url(#clip140)" style="stroke:#000000; stroke-width:4; stroke-opacity:1; fill:none" points="
  229.473,1383.85 254.952,1383.85 
  "/>
<polyline clip-path="url(#clip140)" style="stroke:#000000; stroke-width:4; stroke-opacity:1; fill:none" points="
  229.473,1006.16 254.952,1006.16 
  "/>
<polyline clip-path="url(#clip140)" style="stroke:#000000; stroke-width:4; stroke-opacity:1; fill:none" points="
  229.473,628.472 254.952,628.472 
  "/>
<polyline clip-path="url(#clip140)" style="stroke:#000000; stroke-width:4; stroke-opacity:1; fill:none" points="
  229.473,250.783 254.952,250.783 
  "/>
<path clip-path="url(#clip140)" d="M 0 0 M181.528 1369.65 Q177.917 1369.65 176.089 1373.21 Q174.283 1376.76 174.283 1383.89 Q174.283 1390.99 176.089 1394.56 Q177.917 1398.1 181.528 1398.1 Q185.163 1398.1 186.968 1394.56 Q188.797 1390.99 188.797 1383.89 Q188.797 1376.76 186.968 1373.21 Q185.163 1369.65 181.528 1369.65 M181.528 1365.95 Q187.338 1365.95 190.394 1370.55 Q193.473 1375.14 193.473 1383.89 Q193.473 1392.61 190.394 1397.22 Q187.338 1401.8 181.528 1401.8 Q175.718 1401.8 172.639 1397.22 Q169.584 1392.61 169.584 1383.89 Q169.584 1375.14 172.639 1370.55 Q175.718 1365.95 181.528 1365.95 Z" fill="#000000" fill-rule="evenodd" fill-opacity="1" /><path clip-path="url(#clip140)" d="M 0 0 M123.126 1019.51 L139.445 1019.51 L139.445 1023.44 L117.501 1023.44 L117.501 1019.51 Q120.163 1016.75 124.746 1012.12 Q129.353 1007.47 130.533 1006.13 Q132.779 1003.6 133.658 1001.87 Q134.561 1000.11 134.561 998.418 Q134.561 995.664 132.617 993.928 Q130.695 992.192 127.593 992.192 Q125.394 992.192 122.941 992.955 Q120.51 993.719 117.732 995.27 L117.732 990.548 Q120.556 989.414 123.01 988.835 Q125.464 988.256 127.501 988.256 Q132.871 988.256 136.066 990.942 Q139.26 993.627 139.26 998.117 Q139.26 1000.25 138.45 1002.17 Q137.663 1004.07 135.556 1006.66 Q134.978 1007.33 131.876 1010.55 Q128.774 1013.74 123.126 1019.51 Z" fill="#000000" fill-rule="evenodd" fill-opacity="1" /><path clip-path="url(#clip140)" d="M 0 0 M154.515 991.96 Q150.903 991.96 149.075 995.525 Q147.269 999.066 147.269 1006.2 Q147.269 1013.3 149.075 1016.87 Q150.903 1020.41 154.515 1020.41 Q158.149 1020.41 159.954 1016.87 Q161.783 1013.3 161.783 1006.2 Q161.783 999.066 159.954 995.525 Q158.149 991.96 154.515 991.96 M154.515 988.256 Q160.325 988.256 163.38 992.863 Q166.459 997.446 166.459 1006.2 Q166.459 1014.92 163.38 1019.53 Q160.325 1024.11 154.515 1024.11 Q148.704 1024.11 145.626 1019.53 Q142.57 1014.92 142.57 1006.2 Q142.57 997.446 145.626 992.863 Q148.704 988.256 154.515 988.256 Z" fill="#000000" fill-rule="evenodd" fill-opacity="1" /><path clip-path="url(#clip140)" d="M 0 0 M181.528 991.96 Q177.917 991.96 176.089 995.525 Q174.283 999.066 174.283 1006.2 Q174.283 1013.3 176.089 1016.87 Q177.917 1020.41 181.528 1020.41 Q185.163 1020.41 186.968 1016.87 Q188.797 1013.3 188.797 1006.2 Q188.797 999.066 186.968 995.525 Q185.163 991.96 181.528 991.96 M181.528 988.256 Q187.338 988.256 190.394 992.863 Q193.473 997.446 193.473 1006.2 Q193.473 1014.92 190.394 1019.53 Q187.338 1024.11 181.528 1024.11 Q175.718 1024.11 172.639 1019.53 Q169.584 1014.92 169.584 1006.2 Q169.584 997.446 172.639 992.863 Q175.718 988.256 181.528 988.256 Z" fill="#000000" fill-rule="evenodd" fill-opacity="1" /><path clip-path="url(#clip140)" d="M 0 0 M129.862 615.266 L118.056 633.715 L129.862 633.715 L129.862 615.266 M128.635 611.192 L134.515 611.192 L134.515 633.715 L139.445 633.715 L139.445 637.604 L134.515 637.604 L134.515 645.752 L129.862 645.752 L129.862 637.604 L114.26 637.604 L114.26 633.09 L128.635 611.192 Z" fill="#000000" fill-rule="evenodd" fill-opacity="1" /><path clip-path="url(#clip140)" d="M 0 0 M154.515 614.271 Q150.903 614.271 149.075 617.836 Q147.269 621.378 147.269 628.507 Q147.269 635.614 149.075 639.178 Q150.903 642.72 154.515 642.72 Q158.149 642.72 159.954 639.178 Q161.783 635.614 161.783 628.507 Q161.783 621.378 159.954 617.836 Q158.149 614.271 154.515 614.271 M154.515 610.567 Q160.325 610.567 163.38 615.174 Q166.459 619.757 166.459 628.507 Q166.459 637.234 163.38 641.84 Q160.325 646.424 154.515 646.424 Q148.704 646.424 145.626 641.84 Q142.57 637.234 142.57 628.507 Q142.57 619.757 145.626 615.174 Q148.704 610.567 154.515 610.567 Z" fill="#000000" fill-rule="evenodd" fill-opacity="1" /><path clip-path="url(#clip140)" d="M 0 0 M181.528 614.271 Q177.917 614.271 176.089 617.836 Q174.283 621.378 174.283 628.507 Q174.283 635.614 176.089 639.178 Q177.917 642.72 181.528 642.72 Q185.163 642.72 186.968 639.178 Q188.797 635.614 188.797 628.507 Q188.797 621.378 186.968 617.836 Q185.163 614.271 181.528 614.271 M181.528 610.567 Q187.338 610.567 190.394 615.174 Q193.473 619.757 193.473 628.507 Q193.473 637.234 190.394 641.84 Q187.338 646.424 181.528 646.424 Q175.718 646.424 172.639 641.84 Q169.584 637.234 169.584 628.507 Q169.584 619.757 172.639 615.174 Q175.718 610.567 181.528 610.567 Z" fill="#000000" fill-rule="evenodd" fill-opacity="1" /><path clip-path="url(#clip140)" d="M 0 0 M127.917 248.92 Q124.769 248.92 122.918 251.073 Q121.089 253.226 121.089 256.975 Q121.089 260.702 122.918 262.878 Q124.769 265.031 127.917 265.031 Q131.066 265.031 132.894 262.878 Q134.746 260.702 134.746 256.975 Q134.746 253.226 132.894 251.073 Q131.066 248.92 127.917 248.92 M137.2 234.267 L137.2 238.527 Q135.441 237.693 133.635 237.253 Q131.853 236.814 130.093 236.814 Q125.464 236.814 123.01 239.939 Q120.58 243.064 120.232 249.383 Q121.598 247.369 123.658 246.304 Q125.718 245.216 128.195 245.216 Q133.404 245.216 136.413 248.388 Q139.445 251.536 139.445 256.975 Q139.445 262.3 136.297 265.517 Q133.149 268.735 127.917 268.735 Q121.922 268.735 118.751 264.151 Q115.58 259.545 115.58 250.818 Q115.58 242.624 119.468 237.763 Q123.357 232.878 129.908 232.878 Q131.667 232.878 133.45 233.226 Q135.255 233.573 137.2 234.267 Z" fill="#000000" fill-rule="evenodd" fill-opacity="1" /><path clip-path="url(#clip140)" d="M 0 0 M154.515 236.582 Q150.903 236.582 149.075 240.147 Q147.269 243.689 147.269 250.818 Q147.269 257.925 149.075 261.489 Q150.903 265.031 154.515 265.031 Q158.149 265.031 159.954 261.489 Q161.783 257.925 161.783 250.818 Q161.783 243.689 159.954 240.147 Q158.149 236.582 154.515 236.582 M154.515 232.878 Q160.325 232.878 163.38 237.485 Q166.459 242.068 166.459 250.818 Q166.459 259.545 163.38 264.151 Q160.325 268.735 154.515 268.735 Q148.704 268.735 145.626 264.151 Q142.57 259.545 142.57 250.818 Q142.57 242.068 145.626 237.485 Q148.704 232.878 154.515 232.878 Z" fill="#000000" fill-rule="evenodd" fill-opacity="1" /><path clip-path="url(#clip140)" d="M 0 0 M181.528 236.582 Q177.917 236.582 176.089 240.147 Q174.283 243.689 174.283 250.818 Q174.283 257.925 176.089 261.489 Q177.917 265.031 181.528 265.031 Q185.163 265.031 186.968 261.489 Q188.797 257.925 188.797 250.818 Q188.797 243.689 186.968 240.147 Q185.163 236.582 181.528 236.582 M181.528 232.878 Q187.338 232.878 190.394 237.485 Q193.473 242.068 193.473 250.818 Q193.473 259.545 190.394 264.151 Q187.338 268.735 181.528 268.735 Q175.718 268.735 172.639 264.151 Q169.584 259.545 169.584 250.818 Q169.584 242.068 172.639 237.485 Q175.718 232.878 181.528 232.878 Z" fill="#000000" fill-rule="evenodd" fill-opacity="1" /><path clip-path="url(#clip140)" d="M 0 0 M59.1993 815.533 Q55.2526 813.336 53.3747 810.281 Q51.4968 807.225 51.4968 803.088 Q51.4968 797.518 55.4117 794.494 Q59.2948 791.47 66.4881 791.47 L88.0042 791.47 L88.0042 797.358 L66.679 797.358 Q61.5546 797.358 59.072 799.173 Q56.5894 800.987 56.5894 804.711 Q56.5894 809.262 59.6131 811.904 Q62.6368 814.546 67.8567 814.546 L88.0042 814.546 L88.0042 820.434 L66.679 820.434 Q61.5228 820.434 59.072 822.248 Q56.5894 824.063 56.5894 827.85 Q56.5894 832.338 59.6449 834.98 Q62.6686 837.622 67.8567 837.622 L88.0042 837.622 L88.0042 843.51 L52.3562 843.51 L52.3562 837.622 L57.8944 837.622 Q54.616 835.616 53.0564 832.815 Q51.4968 830.015 51.4968 826.163 Q51.4968 822.28 53.4702 819.575 Q55.4436 816.838 59.1993 815.533 Z" fill="#000000" fill-rule="evenodd" fill-opacity="1" /><path clip-path="url(#clip140)" d="M 0 0 M52.3562 785.327 L52.3562 779.471 L88.0042 779.471 L88.0042 785.327 L52.3562 785.327 M38.479 785.327 L38.479 779.471 L45.895 779.471 L45.895 785.327 L38.479 785.327 Z" fill="#000000" fill-rule="evenodd" fill-opacity="1" /><path clip-path="url(#clip140)" d="M 0 0 M66.4881 743.696 L88.0042 743.696 L88.0042 749.552 L66.679 749.552 Q61.6183 749.552 59.1038 751.525 Q56.5894 753.499 56.5894 757.446 Q56.5894 762.188 59.6131 764.925 Q62.6368 767.662 67.8567 767.662 L88.0042 767.662 L88.0042 773.551 L52.3562 773.551 L52.3562 767.662 L57.8944 767.662 Q54.6797 765.562 53.0883 762.729 Q51.4968 759.864 51.4968 756.141 Q51.4968 749.998 55.3163 746.847 Q59.1038 743.696 66.4881 743.696 Z" fill="#000000" fill-rule="evenodd" fill-opacity="1" /><path clip-path="url(#clip140)" d="M 0 0 M98.8259 710.467 L103.377 710.467 L103.377 744.332 L98.8259 744.332 L98.8259 710.467 Z" fill="#000000" fill-rule="evenodd" fill-opacity="1" /><path clip-path="url(#clip140)" d="M 0 0 M57.7671 680.866 L38.479 680.866 L38.479 675.01 L88.0042 675.01 L88.0042 680.866 L82.657 680.866 Q85.8398 682.712 87.3994 685.545 Q88.9272 688.346 88.9272 692.292 Q88.9272 698.754 83.771 702.828 Q78.6147 706.87 70.212 706.87 Q61.8093 706.87 56.6531 702.828 Q51.4968 698.754 51.4968 692.292 Q51.4968 688.346 53.0564 685.545 Q54.5842 682.712 57.7671 680.866 M70.212 700.823 Q76.6732 700.823 80.3653 698.181 Q84.0256 695.507 84.0256 690.86 Q84.0256 686.213 80.3653 683.54 Q76.6732 680.866 70.212 680.866 Q63.7508 680.866 60.0905 683.54 Q56.3984 686.213 56.3984 690.86 Q56.3984 695.507 60.0905 698.181 Q63.7508 700.823 70.212 700.823 Z" fill="#000000" fill-rule="evenodd" fill-opacity="1" /><path clip-path="url(#clip140)" d="M 0 0 M52.3562 668.867 L52.3562 663.01 L88.0042 663.01 L88.0042 668.867 L52.3562 668.867 M38.479 668.867 L38.479 663.01 L45.895 663.01 L45.895 668.867 L38.479 668.867 Z" fill="#000000" fill-rule="evenodd" fill-opacity="1" /><path clip-path="url(#clip140)" d="M 0 0 M38.479 638.821 L43.3487 638.821 L43.3487 644.422 Q43.3487 647.573 44.6219 648.815 Q45.895 650.024 49.2052 650.024 L52.3562 650.024 L52.3562 640.38 L56.9077 640.38 L56.9077 650.024 L88.0042 650.024 L88.0042 655.912 L56.9077 655.912 L56.9077 661.514 L52.3562 661.514 L52.3562 655.912 L49.8736 655.912 Q43.9216 655.912 41.2162 653.143 Q38.479 650.374 38.479 644.359 L38.479 638.821 Z" fill="#000000" fill-rule="evenodd" fill-opacity="1" /><path clip-path="url(#clip140)" d="M 0 0 M38.479 614.631 L43.3487 614.631 L43.3487 620.233 Q43.3487 623.384 44.6219 624.625 Q45.895 625.835 49.2052 625.835 L52.3562 625.835 L52.3562 616.19 L56.9077 616.19 L56.9077 625.835 L88.0042 625.835 L88.0042 631.723 L56.9077 631.723 L56.9077 637.325 L52.3562 637.325 L52.3562 631.723 L49.8736 631.723 Q43.9216 631.723 41.2162 628.954 Q38.479 626.185 38.479 620.169 L38.479 614.631 Z" fill="#000000" fill-rule="evenodd" fill-opacity="1" /><polyline clip-path="url(#clip142)" style="stroke:#009af9; stroke-width:20; stroke-opacity:1; fill:none" stroke-dasharray="80, 50" points="
  289.566,85.838 465.193,196.121 613.685,298.545 742.314,393.621 855.772,481.819 957.265,748.416 1132.89,865.404 1281.38,965.399 1347.84,1087.5 1410.01,1050.27 
  1523.47,1178.23 1624.96,1254.32 1671.96,1247.34 1800.59,1314.04 1914.05,1332.71 1949.08,1350.21 2015.54,1353.87 2077.71,1367.67 2191.17,1372.3 2292.66,1366.63 
  
  "/>
<path clip-path="url(#clip140)" d="
M1995.04 213.659 L2281.98 213.659 L2281.98 92.6992 L1995.04 92.6992  Z
  " fill="#ffffff" fill-rule="evenodd" fill-opacity="1"/>
<polyline clip-path="url(#clip140)" style="stroke:#000000; stroke-width:4; stroke-opacity:1; fill:none" points="
  1995.04,213.659 2281.98,213.659 2281.98,92.6992 1995.04,92.6992 1995.04,213.659 
  "/>
<polyline clip-path="url(#clip140)" style="stroke:#009af9; stroke-width:4; stroke-opacity:1; fill:none" stroke-dasharray="16, 10" points="
  2018.63,153.179 2160.19,153.179 
  "/>
<path clip-path="url(#clip140)" d="M 0 0 M2197.62 172.867 Q2195.81 177.496 2194.1 178.908 Q2192.39 180.32 2189.52 180.32 L2186.12 180.32 L2186.12 176.755 L2188.62 176.755 Q2190.37 176.755 2191.35 175.922 Q2192.32 175.089 2193.5 171.987 L2194.26 170.043 L2183.78 144.533 L2188.29 144.533 L2196.39 164.811 L2204.49 144.533 L2209.01 144.533 L2197.62 172.867 Z" fill="#000000" fill-rule="evenodd" fill-opacity="1" /><path clip-path="url(#clip140)" d="M 0 0 M2214.89 166.524 L2222.53 166.524 L2222.53 140.158 L2214.22 141.825 L2214.22 137.566 L2222.48 135.899 L2227.16 135.899 L2227.16 166.524 L2234.8 166.524 L2234.8 170.459 L2214.89 170.459 L2214.89 166.524 Z" fill="#000000" fill-rule="evenodd" fill-opacity="1" /></svg>
