<?xml version="1.0" encoding="utf-8"?>
<svg xmlns="http://www.w3.org/2000/svg" xmlns:xlink="http://www.w3.org/1999/xlink" width="600" height="400" viewBox="0 0 2400 1600">
<defs>
  <clipPath id="clip770">
    <rect x="0" y="0" width="2400" height="1600"/>
  </clipPath>
</defs>
<path clip-path="url(#clip770)" d="
M0 1600 L2400 1600 L2400 0 L0 0  Z
  " fill="#ffffff" fill-rule="evenodd" fill-opacity="1"/>
<defs>
  <clipPath id="clip771">
    <rect x="480" y="0" width="1681" height="1600"/>
  </clipPath>
</defs>
<path clip-path="url(#clip770)" d="
M236.348 1410.9 L2352.76 1410.9 L2352.76 47.2441 L236.348 47.2441  Z
  " fill="#ffffff" fill-rule="evenodd" fill-opacity="1"/>
<defs>
  <clipPath id="clip772">
    <rect x="236" y="47" width="2117" height="1365"/>
  </clipPath>
</defs>
<polyline clip-path="url(#clip772)" style="stroke:#000000; stroke-width:2; stroke-opacity:0.1; fill:none" points="
  296.246,1410.9 296.246,47.2441 
  "/>
<polyline clip-path="url(#clip772)" style="stroke:#000000; stroke-width:2; stroke-opacity:0.1; fill:none" points="
  695.568,1410.9 695.568,47.2441 
  "/>
<polyline clip-path="url(#clip772)" style="stroke:#000000; stroke-width:2; stroke-opacity:0.1; fill:none" points="
  1094.89,1410.9 1094.89,47.2441 
  "/>
<polyline clip-path="url(#clip772)" style="stroke:#000000; stroke-width:2; stroke-opacity:0.1; fill:none" points="
  1494.21,1410.9 1494.21,47.2441 
  "/>
<polyline clip-path="url(#clip772)" style="stroke:#000000; stroke-width:2; stroke-opacity:0.1; fill:none" points="
  1893.54,1410.9 1893.54,47.2441 
  "/>
<polyline clip-path="url(#clip772)" style="stroke:#000000; stroke-width:2; stroke-opacity:0.1; fill:none" points="
  2292.86,1410.9 2292.86,47.2441 
  "/>
<polyline clip-path="url(#clip770)" style="stroke:#000000; stroke-width:4; stroke-opacity:1; fill:none" points="
  236.348,1410.9 2352.76,1410.9 
  "/>
<polyline clip-path="url(#clip770)" style="stroke:#000000; stroke-width:4; stroke-opacity:1; fill:none" points="
  296.246,1410.9 296.246,1394.53 
  "/>
<polyline clip-path="url(#clip770)" style="stroke:#000000; stroke-width:4; stroke-opacity:1; fill:none" points="
  695.568,1410.9 695.568,1394.53 
  "/>
<polyline clip-path="url(#clip770)" style="stroke:#000000; stroke-width:4; stroke-opacity:1; fill:none" points="
  1094.89,1410.9 1094.89,1394.53 
  "/>
<polyline clip-path="url(#clip770)" style="stroke:#000000; stroke-width:4; stroke-opacity:1; fill:none" points="
  1494.21,1410.9 1494.21,1394.53 
  "/>
<polyline clip-path="url(#clip770)" style="stroke:#000000; stroke-width:4; stroke-opacity:1; fill:none" points="
  1893.54,1410.9 1893.54,1394.53 
  "/>
<polyline clip-path="url(#clip770)" style="stroke:#000000; stroke-width:4; stroke-opacity:1; fill:none" points="
  2292.86,1410.9 2292.86,1394.53 
  "/>
<path clip-path="url(#clip770)" d="M 0 0 M235.477 1489.17 L243.116 1489.17 L243.116 1462.8 L234.806 1464.47 L234.806 1460.21 L243.07 1458.54 L247.746 1458.54 L247.746 1489.17 L255.385 1489.17 L255.385 1493.1 L235.477 1493.1 L235.477 1489.17 Z" fill="#000000" fill-rule="evenodd" fill-opacity="1" /><path clip-path="url(#clip770)" d="M 0 0 M270.454 1461.62 Q266.843 1461.62 265.014 1465.19 Q263.209 1468.73 263.209 1475.86 Q263.209 1482.97 265.014 1486.53 Q266.843 1490.07 270.454 1490.07 Q274.088 1490.07 275.894 1486.53 Q277.723 1482.97 277.723 1475.86 Q277.723 1468.73 275.894 1465.19 Q274.088 1461.62 270.454 1461.62 M270.454 1457.92 Q276.264 1457.92 279.32 1462.53 Q282.398 1467.11 282.398 1475.86 Q282.398 1484.59 279.32 1489.19 Q276.264 1493.78 270.454 1493.78 Q264.644 1493.78 261.565 1489.19 Q258.51 1484.59 258.51 1475.86 Q258.51 1467.11 261.565 1462.53 Q264.644 1457.92 270.454 1457.92 Z" fill="#000000" fill-rule="evenodd" fill-opacity="1" /><path clip-path="url(#clip770)" d="M 0 0 M282.398 1452.02 L306.51 1452.02 L306.51 1455.22 L282.398 1455.22 L282.398 1452.02 Z" fill="#000000" fill-rule="evenodd" fill-opacity="1" /><path clip-path="url(#clip770)" d="M 0 0 M310.667 1437.61 L325.581 1437.61 L325.581 1440.81 L314.146 1440.81 L314.146 1447.69 Q314.973 1447.41 315.801 1447.28 Q316.629 1447.13 317.456 1447.13 Q322.158 1447.13 324.904 1449.71 Q327.65 1452.28 327.65 1456.68 Q327.65 1461.22 324.829 1463.74 Q322.008 1466.24 316.873 1466.24 Q315.105 1466.24 313.262 1465.94 Q311.438 1465.64 309.482 1465.04 L309.482 1461.22 Q311.174 1462.14 312.98 1462.59 Q314.785 1463.04 316.798 1463.04 Q320.052 1463.04 321.951 1461.33 Q323.851 1459.62 323.851 1456.68 Q323.851 1453.75 321.951 1452.04 Q320.052 1450.33 316.798 1450.33 Q315.274 1450.33 313.751 1450.67 Q312.246 1451 310.667 1451.72 L310.667 1437.61 Z" fill="#000000" fill-rule="evenodd" fill-opacity="1" /><path clip-path="url(#clip770)" d="M 0 0 M331.769 1460.92 L335.737 1460.92 L335.737 1465.69 L331.769 1465.69 L331.769 1460.92 Z" fill="#000000" fill-rule="evenodd" fill-opacity="1" /><path clip-path="url(#clip770)" d="M 0 0 M347.981 1440.11 Q345.047 1440.11 343.561 1443.01 Q342.094 1445.89 342.094 1451.68 Q342.094 1457.46 343.561 1460.35 Q345.047 1463.23 347.981 1463.23 Q350.934 1463.23 352.401 1460.35 Q353.887 1457.46 353.887 1451.68 Q353.887 1445.89 352.401 1443.01 Q350.934 1440.11 347.981 1440.11 M347.981 1437.11 Q352.702 1437.11 355.184 1440.85 Q357.686 1444.57 357.686 1451.68 Q357.686 1458.77 355.184 1462.51 Q352.702 1466.24 347.981 1466.24 Q343.26 1466.24 340.759 1462.51 Q338.276 1458.77 338.276 1451.68 Q338.276 1444.57 340.759 1440.85 Q343.26 1437.11 347.981 1437.11 Z" fill="#000000" fill-rule="evenodd" fill-opacity="1" /><path clip-path="url(#clip770)" d="M 0 0 M634.273 1489.17 L641.912 1489.17 L641.912 1462.8 L633.602 1464.47 L633.602 1460.21 L641.866 1458.54 L646.542 1458.54 L646.542 1489.17 L654.18 1489.17 L654.18 1493.1 L634.273 1493.1 L634.273 1489.17 Z" fill="#000000" fill-rule="evenodd" fill-opacity="1" /><path clip-path="url(#clip770)" d="M 0 0 M669.25 1461.62 Q665.639 1461.62 663.81 1465.19 Q662.004 1468.73 662.004 1475.86 Q662.004 1482.97 663.81 1486.53 Q665.639 1490.07 669.25 1490.07 Q672.884 1490.07 674.69 1486.53 Q676.518 1482.97 676.518 1475.86 Q676.518 1468.73 674.69 1465.19 Q672.884 1461.62 669.25 1461.62 M669.25 1457.92 Q675.06 1457.92 678.115 1462.53 Q681.194 1467.11 681.194 1475.86 Q681.194 1484.59 678.115 1489.19 Q675.06 1493.78 669.25 1493.78 Q663.44 1493.78 660.361 1489.19 Q657.305 1484.59 657.305 1475.86 Q657.305 1467.11 660.361 1462.53 Q663.44 1457.92 669.25 1457.92 Z" fill="#000000" fill-rule="evenodd" fill-opacity="1" /><path clip-path="url(#clip770)" d="M 0 0 M681.194 1452.02 L705.306 1452.02 L705.306 1455.22 L681.194 1455.22 L681.194 1452.02 Z" fill="#000000" fill-rule="evenodd" fill-opacity="1" /><path clip-path="url(#clip770)" d="M 0 0 M719.863 1440.92 L710.271 1455.91 L719.863 1455.91 L719.863 1440.92 M718.866 1437.61 L723.643 1437.61 L723.643 1455.91 L727.649 1455.91 L727.649 1459.07 L723.643 1459.07 L723.643 1465.69 L719.863 1465.69 L719.863 1459.07 L707.186 1459.07 L707.186 1455.41 L718.866 1437.61 Z" fill="#000000" fill-rule="evenodd" fill-opacity="1" /><path clip-path="url(#clip770)" d="M 0 0 M731.768 1460.92 L735.737 1460.92 L735.737 1465.69 L731.768 1465.69 L731.768 1460.92 Z" fill="#000000" fill-rule="evenodd" fill-opacity="1" /><path clip-path="url(#clip770)" d="M 0 0 M739.968 1465.11 L739.968 1461.65 Q741.398 1462.33 742.865 1462.68 Q744.332 1463.04 745.742 1463.04 Q749.504 1463.04 751.479 1460.52 Q753.472 1457.98 753.754 1452.83 Q752.664 1454.45 750.99 1455.31 Q749.316 1456.18 747.285 1456.18 Q743.072 1456.18 740.608 1453.64 Q738.163 1451.08 738.163 1446.66 Q738.163 1442.33 740.721 1439.72 Q743.279 1437.11 747.529 1437.11 Q752.4 1437.11 754.958 1440.85 Q757.535 1444.57 757.535 1451.68 Q757.535 1458.32 754.375 1462.29 Q751.234 1466.24 745.912 1466.24 Q744.482 1466.24 743.015 1465.96 Q741.548 1465.67 739.968 1465.11 M747.529 1453.21 Q750.087 1453.21 751.573 1451.46 Q753.077 1449.71 753.077 1446.66 Q753.077 1443.63 751.573 1441.88 Q750.087 1440.11 747.529 1440.11 Q744.971 1440.11 743.467 1441.88 Q741.981 1443.63 741.981 1446.66 Q741.981 1449.71 743.467 1451.46 Q744.971 1453.21 747.529 1453.21 Z" fill="#000000" fill-rule="evenodd" fill-opacity="1" /><path clip-path="url(#clip770)" d="M 0 0 M1033.56 1489.17 L1041.2 1489.17 L1041.2 1462.8 L1032.89 1464.47 L1032.89 1460.21 L1041.15 1458.54 L1045.83 1458.54 L1045.83 1489.17 L1053.47 1489.17 L1053.47 1493.1 L1033.56 1493.1 L1033.56 1489.17 Z" fill="#000000" fill-rule="evenodd" fill-opacity="1" /><path clip-path="url(#clip770)" d="M 0 0 M1068.53 1461.62 Q1064.92 1461.62 1063.09 1465.19 Q1061.29 1468.73 1061.29 1475.86 Q1061.29 1482.97 1063.09 1486.53 Q1064.92 1490.07 1068.53 1490.07 Q1072.17 1490.07 1073.97 1486.53 Q1075.8 1482.97 1075.8 1475.86 Q1075.8 1468.73 1073.97 1465.19 Q1072.17 1461.62 1068.53 1461.62 M1068.53 1457.92 Q1074.34 1457.92 1077.4 1462.53 Q1080.48 1467.11 1080.48 1475.86 Q1080.48 1484.59 1077.4 1489.19 Q1074.34 1493.78 1068.53 1493.78 Q1062.72 1493.78 1059.65 1489.19 Q1056.59 1484.59 1056.59 1475.86 Q1056.59 1467.11 1059.65 1462.53 Q1062.72 1457.92 1068.53 1457.92 Z" fill="#000000" fill-rule="evenodd" fill-opacity="1" /><path clip-path="url(#clip770)" d="M 0 0 M1080.48 1452.02 L1104.59 1452.02 L1104.59 1455.22 L1080.48 1455.22 L1080.48 1452.02 Z" fill="#000000" fill-rule="evenodd" fill-opacity="1" /><path clip-path="url(#clip770)" d="M 0 0 M1119.15 1440.92 L1109.56 1455.91 L1119.15 1455.91 L1119.15 1440.92 M1118.15 1437.61 L1122.93 1437.61 L1122.93 1455.91 L1126.93 1455.91 L1126.93 1459.07 L1122.93 1459.07 L1122.93 1465.69 L1119.15 1465.69 L1119.15 1459.07 L1106.47 1459.07 L1106.47 1455.41 L1118.15 1437.61 Z" fill="#000000" fill-rule="evenodd" fill-opacity="1" /><path clip-path="url(#clip770)" d="M 0 0 M1131.05 1460.92 L1135.02 1460.92 L1135.02 1465.69 L1131.05 1465.69 L1131.05 1460.92 Z" fill="#000000" fill-rule="evenodd" fill-opacity="1" /><path clip-path="url(#clip770)" d="M 0 0 M1147.27 1452.36 Q1144.56 1452.36 1143 1453.81 Q1141.45 1455.26 1141.45 1457.79 Q1141.45 1460.33 1143 1461.78 Q1144.56 1463.23 1147.27 1463.23 Q1149.97 1463.23 1151.53 1461.78 Q1153.1 1460.31 1153.1 1457.79 Q1153.1 1455.26 1151.53 1453.81 Q1149.99 1452.36 1147.27 1452.36 M1143.47 1450.74 Q1141.02 1450.14 1139.65 1448.47 Q1138.29 1446.79 1138.29 1444.38 Q1138.29 1441.02 1140.68 1439.06 Q1143.09 1437.11 1147.27 1437.11 Q1151.46 1437.11 1153.85 1439.06 Q1156.24 1441.02 1156.24 1444.38 Q1156.24 1446.79 1154.86 1448.47 Q1153.51 1450.14 1151.08 1450.74 Q1153.83 1451.38 1155.35 1453.24 Q1156.89 1455.1 1156.89 1457.79 Q1156.89 1461.88 1154.39 1464.06 Q1151.91 1466.24 1147.27 1466.24 Q1142.62 1466.24 1140.12 1464.06 Q1137.64 1461.88 1137.64 1457.79 Q1137.64 1455.1 1139.18 1453.24 Q1140.72 1451.38 1143.47 1450.74 M1142.07 1444.74 Q1142.07 1446.92 1143.43 1448.15 Q1144.8 1449.37 1147.27 1449.37 Q1149.71 1449.37 1151.08 1448.15 Q1152.47 1446.92 1152.47 1444.74 Q1152.47 1442.56 1151.08 1441.34 Q1149.71 1440.11 1147.27 1440.11 Q1144.8 1440.11 1143.43 1441.34 Q1142.07 1442.56 1142.07 1444.74 Z" fill="#000000" fill-rule="evenodd" fill-opacity="1" /><path clip-path="url(#clip770)" d="M 0 0 M1433.21 1489.17 L1440.85 1489.17 L1440.85 1462.8 L1432.54 1464.47 L1432.54 1460.21 L1440.8 1458.54 L1445.48 1458.54 L1445.48 1489.17 L1453.12 1489.17 L1453.12 1493.1 L1433.21 1493.1 L1433.21 1489.17 Z" fill="#000000" fill-rule="evenodd" fill-opacity="1" /><path clip-path="url(#clip770)" d="M 0 0 M1468.19 1461.62 Q1464.57 1461.62 1462.75 1465.19 Q1460.94 1468.73 1460.94 1475.86 Q1460.94 1482.97 1462.75 1486.53 Q1464.57 1490.07 1468.19 1490.07 Q1471.82 1490.07 1473.63 1486.53 Q1475.45 1482.97 1475.45 1475.86 Q1475.45 1468.73 1473.63 1465.19 Q1471.82 1461.62 1468.19 1461.62 M1468.19 1457.92 Q1474 1457.92 1477.05 1462.53 Q1480.13 1467.11 1480.13 1475.86 Q1480.13 1484.59 1477.05 1489.19 Q1474 1493.78 1468.19 1493.78 Q1462.38 1493.78 1459.3 1489.19 Q1456.24 1484.59 1456.24 1475.86 Q1456.24 1467.11 1459.3 1462.53 Q1462.38 1457.92 1468.19 1457.92 Z" fill="#000000" fill-rule="evenodd" fill-opacity="1" /><path clip-path="url(#clip770)" d="M 0 0 M1480.13 1452.02 L1504.24 1452.02 L1504.24 1455.22 L1480.13 1455.22 L1480.13 1452.02 Z" fill="#000000" fill-rule="evenodd" fill-opacity="1" /><path clip-path="url(#clip770)" d="M 0 0 M1518.8 1440.92 L1509.21 1455.91 L1518.8 1455.91 L1518.8 1440.92 M1517.8 1437.61 L1522.58 1437.61 L1522.58 1455.91 L1526.59 1455.91 L1526.59 1459.07 L1522.58 1459.07 L1522.58 1465.69 L1518.8 1465.69 L1518.8 1459.07 L1506.12 1459.07 L1506.12 1455.41 L1517.8 1437.61 Z" fill="#000000" fill-rule="evenodd" fill-opacity="1" /><path clip-path="url(#clip770)" d="M 0 0 M1530.7 1460.92 L1534.67 1460.92 L1534.67 1465.69 L1530.7 1465.69 L1530.7 1460.92 Z" fill="#000000" fill-rule="evenodd" fill-opacity="1" /><path clip-path="url(#clip770)" d="M 0 0 M1537.83 1437.61 L1555.89 1437.61 L1555.89 1439.23 L1545.69 1465.69 L1541.73 1465.69 L1551.32 1440.81 L1537.83 1440.81 L1537.83 1437.61 Z" fill="#000000" fill-rule="evenodd" fill-opacity="1" /><path clip-path="url(#clip770)" d="M 0 0 M1832.1 1489.17 L1839.74 1489.17 L1839.74 1462.8 L1831.43 1464.47 L1831.43 1460.21 L1839.69 1458.54 L1844.37 1458.54 L1844.37 1489.17 L1852.01 1489.17 L1852.01 1493.1 L1832.1 1493.1 L1832.1 1489.17 Z" fill="#000000" fill-rule="evenodd" fill-opacity="1" /><path clip-path="url(#clip770)" d="M 0 0 M1867.08 1461.62 Q1863.46 1461.62 1861.64 1465.19 Q1859.83 1468.73 1859.83 1475.86 Q1859.83 1482.97 1861.64 1486.53 Q1863.46 1490.07 1867.08 1490.07 Q1870.71 1490.07 1872.52 1486.53 Q1874.34 1482.97 1874.34 1475.86 Q1874.34 1468.73 1872.52 1465.19 Q1870.71 1461.62 1867.08 1461.62 M1867.08 1457.92 Q1872.89 1457.92 1875.94 1462.53 Q1879.02 1467.11 1879.02 1475.86 Q1879.02 1484.59 1875.94 1489.19 Q1872.89 1493.78 1867.08 1493.78 Q1861.27 1493.78 1858.19 1489.19 Q1855.13 1484.59 1855.13 1475.86 Q1855.13 1467.11 1858.19 1462.53 Q1861.27 1457.92 1867.08 1457.92 Z" fill="#000000" fill-rule="evenodd" fill-opacity="1" /><path clip-path="url(#clip770)" d="M 0 0 M1879.02 1452.02 L1903.13 1452.02 L1903.13 1455.22 L1879.02 1455.22 L1879.02 1452.02 Z" fill="#000000" fill-rule="evenodd" fill-opacity="1" /><path clip-path="url(#clip770)" d="M 0 0 M1917.69 1440.92 L1908.1 1455.91 L1917.69 1455.91 L1917.69 1440.92 M1916.69 1437.61 L1921.47 1437.61 L1921.47 1455.91 L1925.48 1455.91 L1925.48 1459.07 L1921.47 1459.07 L1921.47 1465.69 L1917.69 1465.69 L1917.69 1459.07 L1905.01 1459.07 L1905.01 1455.41 L1916.69 1437.61 Z" fill="#000000" fill-rule="evenodd" fill-opacity="1" /><path clip-path="url(#clip770)" d="M 0 0 M1929.59 1460.92 L1933.56 1460.92 L1933.56 1465.69 L1929.59 1465.69 L1929.59 1460.92 Z" fill="#000000" fill-rule="evenodd" fill-opacity="1" /><path clip-path="url(#clip770)" d="M 0 0 M1946.28 1450.14 Q1943.72 1450.14 1942.21 1451.89 Q1940.73 1453.64 1940.73 1456.68 Q1940.73 1459.71 1942.21 1461.48 Q1943.72 1463.23 1946.28 1463.23 Q1948.83 1463.23 1950.32 1461.48 Q1951.82 1459.71 1951.82 1456.68 Q1951.82 1453.64 1950.32 1451.89 Q1948.83 1450.14 1946.28 1450.14 M1953.82 1438.23 L1953.82 1441.69 Q1952.39 1441.02 1950.92 1440.66 Q1949.47 1440.3 1948.04 1440.3 Q1944.28 1440.3 1942.29 1442.84 Q1940.31 1445.38 1940.03 1450.52 Q1941.14 1448.88 1942.82 1448.01 Q1944.49 1447.13 1946.5 1447.13 Q1950.73 1447.13 1953.18 1449.71 Q1955.64 1452.26 1955.64 1456.68 Q1955.64 1461.01 1953.08 1463.62 Q1950.53 1466.24 1946.28 1466.24 Q1941.41 1466.24 1938.83 1462.51 Q1936.25 1458.77 1936.25 1451.68 Q1936.25 1445.02 1939.41 1441.07 Q1942.57 1437.11 1947.89 1437.11 Q1949.32 1437.11 1950.77 1437.39 Q1952.24 1437.67 1953.82 1438.23 Z" fill="#000000" fill-rule="evenodd" fill-opacity="1" /><path clip-path="url(#clip770)" d="M 0 0 M2231.89 1489.17 L2239.53 1489.17 L2239.53 1462.8 L2231.22 1464.47 L2231.22 1460.21 L2239.48 1458.54 L2244.16 1458.54 L2244.16 1489.17 L2251.8 1489.17 L2251.8 1493.1 L2231.89 1493.1 L2231.89 1489.17 Z" fill="#000000" fill-rule="evenodd" fill-opacity="1" /><path clip-path="url(#clip770)" d="M 0 0 M2266.87 1461.62 Q2263.26 1461.62 2261.43 1465.19 Q2259.62 1468.73 2259.62 1475.86 Q2259.62 1482.97 2261.43 1486.53 Q2263.26 1490.07 2266.87 1490.07 Q2270.5 1490.07 2272.31 1486.53 Q2274.14 1482.97 2274.14 1475.86 Q2274.14 1468.73 2272.31 1465.19 Q2270.5 1461.62 2266.87 1461.62 M2266.87 1457.92 Q2272.68 1457.92 2275.73 1462.53 Q2278.81 1467.11 2278.81 1475.86 Q2278.81 1484.59 2275.73 1489.19 Q2272.68 1493.78 2266.87 1493.78 Q2261.06 1493.78 2257.98 1489.19 Q2254.92 1484.59 2254.92 1475.86 Q2254.92 1467.11 2257.98 1462.53 Q2261.06 1457.92 2266.87 1457.92 Z" fill="#000000" fill-rule="evenodd" fill-opacity="1" /><path clip-path="url(#clip770)" d="M 0 0 M2278.81 1452.02 L2302.92 1452.02 L2302.92 1455.22 L2278.81 1455.22 L2278.81 1452.02 Z" fill="#000000" fill-rule="evenodd" fill-opacity="1" /><path clip-path="url(#clip770)" d="M 0 0 M2317.48 1440.92 L2307.89 1455.91 L2317.48 1455.91 L2317.48 1440.92 M2316.48 1437.61 L2321.26 1437.61 L2321.26 1455.91 L2325.27 1455.91 L2325.27 1459.07 L2321.26 1459.07 L2321.26 1465.69 L2317.48 1465.69 L2317.48 1459.07 L2304.8 1459.07 L2304.8 1455.41 L2316.48 1437.61 Z" fill="#000000" fill-rule="evenodd" fill-opacity="1" /><path clip-path="url(#clip770)" d="M 0 0 M2329.39 1460.92 L2333.36 1460.92 L2333.36 1465.69 L2329.39 1465.69 L2329.39 1460.92 Z" fill="#000000" fill-rule="evenodd" fill-opacity="1" /><path clip-path="url(#clip770)" d="M 0 0 M2337.51 1437.61 L2352.43 1437.61 L2352.43 1440.81 L2340.99 1440.81 L2340.99 1447.69 Q2341.82 1447.41 2342.65 1447.28 Q2343.47 1447.13 2344.3 1447.13 Q2349 1447.13 2351.75 1449.71 Q2354.49 1452.28 2354.49 1456.68 Q2354.49 1461.22 2351.67 1463.74 Q2348.85 1466.24 2343.72 1466.24 Q2341.95 1466.24 2340.11 1465.94 Q2338.28 1465.64 2336.33 1465.04 L2336.33 1461.22 Q2338.02 1462.14 2339.82 1462.59 Q2341.63 1463.04 2343.64 1463.04 Q2346.9 1463.04 2348.8 1461.33 Q2350.7 1459.62 2350.7 1456.68 Q2350.7 1453.75 2348.8 1452.04 Q2346.9 1450.33 2343.64 1450.33 Q2342.12 1450.33 2340.6 1450.67 Q2339.09 1451 2337.51 1451.72 L2337.51 1437.61 Z" fill="#000000" fill-rule="evenodd" fill-opacity="1" /><path clip-path="url(#clip770)" d="M 0 0 M1187.32 1526.54 L1193.53 1526.54 L1204.67 1556.46 L1215.81 1526.54 L1222.01 1526.54 L1208.65 1562.19 L1200.69 1562.19 L1187.32 1526.54 Z" fill="#000000" fill-rule="evenodd" fill-opacity="1" /><path clip-path="url(#clip770)" d="M 0 0 M1255.24 1573.01 L1255.24 1577.56 L1221.38 1577.56 L1221.38 1573.01 L1255.24 1573.01 Z" fill="#000000" fill-rule="evenodd" fill-opacity="1" /><path clip-path="url(#clip770)" d="M 0 0 M1275.2 1530.64 Q1270.49 1530.64 1267.75 1534.34 Q1265.01 1538 1265.01 1544.39 Q1265.01 1550.79 1267.72 1554.48 Q1270.46 1558.14 1275.2 1558.14 Q1279.88 1558.14 1282.62 1554.45 Q1285.35 1550.76 1285.35 1544.39 Q1285.35 1538.06 1282.62 1534.37 Q1279.88 1530.64 1275.2 1530.64 M1275.2 1525.68 Q1282.84 1525.68 1287.2 1530.64 Q1291.56 1535.61 1291.56 1544.39 Q1291.56 1553.15 1287.2 1558.14 Q1282.84 1563.11 1275.2 1563.11 Q1267.53 1563.11 1263.17 1558.14 Q1258.84 1553.15 1258.84 1544.39 Q1258.84 1535.61 1263.17 1530.64 Q1267.53 1525.68 1275.2 1525.68 Z" fill="#000000" fill-rule="evenodd" fill-opacity="1" /><path clip-path="url(#clip770)" d="M 0 0 M1303.37 1556.84 L1303.37 1575.74 L1297.48 1575.74 L1297.48 1526.54 L1303.37 1526.54 L1303.37 1531.95 Q1305.21 1528.77 1308.02 1527.24 Q1310.85 1525.68 1314.76 1525.68 Q1321.26 1525.68 1325.3 1530.83 Q1329.37 1535.99 1329.37 1544.39 Q1329.37 1552.8 1325.3 1557.95 Q1321.26 1563.11 1314.76 1563.11 Q1310.85 1563.11 1308.02 1561.58 Q1305.21 1560.02 1303.37 1556.84 M1323.29 1544.39 Q1323.29 1537.93 1320.62 1534.27 Q1317.98 1530.58 1313.33 1530.58 Q1308.68 1530.58 1306.01 1534.27 Q1303.37 1537.93 1303.37 1544.39 Q1303.37 1550.85 1306.01 1554.55 Q1308.68 1558.21 1313.33 1558.21 Q1317.98 1558.21 1320.62 1554.55 Q1323.29 1550.85 1323.29 1544.39 Z" fill="#000000" fill-rule="evenodd" fill-opacity="1" /><path clip-path="url(#clip770)" d="M 0 0 M1366.01 1542.9 L1366.01 1545.76 L1339.08 1545.76 Q1339.46 1551.81 1342.71 1554.99 Q1345.99 1558.14 1351.81 1558.14 Q1355.19 1558.14 1358.34 1557.32 Q1361.52 1556.49 1364.64 1554.83 L1364.64 1560.37 Q1361.49 1561.71 1358.18 1562.41 Q1354.87 1563.11 1351.46 1563.11 Q1342.93 1563.11 1337.93 1558.14 Q1332.97 1553.18 1332.97 1544.71 Q1332.97 1535.96 1337.68 1530.83 Q1342.42 1525.68 1350.44 1525.68 Q1357.64 1525.68 1361.81 1530.33 Q1366.01 1534.94 1366.01 1542.9 M1360.15 1541.18 Q1360.09 1536.37 1357.44 1533.51 Q1354.84 1530.64 1350.51 1530.64 Q1345.6 1530.64 1342.64 1533.41 Q1339.72 1536.18 1339.27 1541.21 L1360.15 1541.18 Z" fill="#000000" fill-rule="evenodd" fill-opacity="1" /><path clip-path="url(#clip770)" d="M 0 0 M1401.78 1540.67 L1401.78 1562.19 L1395.93 1562.19 L1395.93 1540.86 Q1395.93 1535.8 1393.95 1533.29 Q1391.98 1530.77 1388.03 1530.77 Q1383.29 1530.77 1380.55 1533.79 Q1377.82 1536.82 1377.82 1542.04 L1377.82 1562.19 L1371.93 1562.19 L1371.93 1526.54 L1377.82 1526.54 L1377.82 1532.08 Q1379.92 1528.86 1382.75 1527.27 Q1385.61 1525.68 1389.34 1525.68 Q1395.48 1525.68 1398.63 1529.5 Q1401.78 1533.29 1401.78 1540.67 Z" fill="#000000" fill-rule="evenodd" fill-opacity="1" /><polyline clip-path="url(#clip772)" style="stroke:#000000; stroke-width:2; stroke-opacity:0.1; fill:none" points="
  236.348,1122.17 2352.76,1122.17 
  "/>
<polyline clip-path="url(#clip772)" style="stroke:#000000; stroke-width:2; stroke-opacity:0.1; fill:none" points="
  236.348,774.437 2352.76,774.437 
  "/>
<polyline clip-path="url(#clip772)" style="stroke:#000000; stroke-width:2; stroke-opacity:0.1; fill:none" points="
  236.348,426.701 2352.76,426.701 
  "/>
<polyline clip-path="url(#clip772)" style="stroke:#000000; stroke-width:2; stroke-opacity:0.1; fill:none" points="
  236.348,78.9647 2352.76,78.9647 
  "/>
<polyline clip-path="url(#clip770)" style="stroke:#000000; stroke-width:4; stroke-opacity:1; fill:none" points="
  236.348,1410.9 236.348,47.2441 
  "/>
<polyline clip-path="url(#clip770)" style="stroke:#000000; stroke-width:4; stroke-opacity:1; fill:none" points="
  236.348,1122.17 261.745,1122.17 
  "/>
<polyline clip-path="url(#clip770)" style="stroke:#000000; stroke-width:4; stroke-opacity:1; fill:none" points="
  236.348,774.437 261.745,774.437 
  "/>
<polyline clip-path="url(#clip770)" style="stroke:#000000; stroke-width:4; stroke-opacity:1; fill:none" points="
  236.348,426.701 261.745,426.701 
  "/>
<polyline clip-path="url(#clip770)" style="stroke:#000000; stroke-width:4; stroke-opacity:1; fill:none" points="
  236.348,78.9647 261.745,78.9647 
  "/>
<path clip-path="url(#clip770)" d="M 0 0 M120.88 1135.52 L137.2 1135.52 L137.2 1139.45 L115.256 1139.45 L115.256 1135.52 Q117.918 1132.76 122.501 1128.13 Q127.107 1123.48 128.288 1122.14 Q130.533 1119.62 131.413 1117.88 Q132.316 1116.12 132.316 1114.43 Q132.316 1111.68 130.371 1109.94 Q128.45 1108.2 125.348 1108.2 Q123.149 1108.2 120.695 1108.97 Q118.265 1109.73 115.487 1111.28 L115.487 1106.56 Q118.311 1105.43 120.765 1104.85 Q123.218 1104.27 125.255 1104.27 Q130.626 1104.27 133.82 1106.95 Q137.015 1109.64 137.015 1114.13 Q137.015 1116.26 136.204 1118.18 Q135.417 1120.08 133.311 1122.67 Q132.732 1123.34 129.63 1126.56 Q126.529 1129.75 120.88 1135.52 Z" fill="#000000" fill-rule="evenodd" fill-opacity="1" /><path clip-path="url(#clip770)" d="M 0 0 M142.316 1104.89 L160.672 1104.89 L160.672 1108.83 L146.598 1108.83 L146.598 1117.3 Q147.616 1116.95 148.635 1116.79 Q149.653 1116.61 150.672 1116.61 Q156.459 1116.61 159.839 1119.78 Q163.218 1122.95 163.218 1128.37 Q163.218 1133.94 159.746 1137.05 Q156.274 1140.12 149.954 1140.12 Q147.778 1140.12 145.51 1139.75 Q143.265 1139.38 140.857 1138.64 L140.857 1133.94 Q142.941 1135.08 145.163 1135.63 Q147.385 1136.19 149.862 1136.19 Q153.866 1136.19 156.204 1134.08 Q158.542 1131.98 158.542 1128.37 Q158.542 1124.75 156.204 1122.65 Q153.866 1120.54 149.862 1120.54 Q147.987 1120.54 146.112 1120.96 Q144.26 1121.37 142.316 1122.25 L142.316 1104.89 Z" fill="#000000" fill-rule="evenodd" fill-opacity="1" /><path clip-path="url(#clip770)" d="M 0 0 M168.288 1133.57 L173.172 1133.57 L173.172 1139.45 L168.288 1139.45 L168.288 1133.57 Z" fill="#000000" fill-rule="evenodd" fill-opacity="1" /><path clip-path="url(#clip770)" d="M 0 0 M188.82 1120.31 Q185.672 1120.31 183.82 1122.46 Q181.991 1124.62 181.991 1128.37 Q181.991 1132.09 183.82 1134.27 Q185.672 1136.42 188.82 1136.42 Q191.968 1136.42 193.797 1134.27 Q195.649 1132.09 195.649 1128.37 Q195.649 1124.62 193.797 1122.46 Q191.968 1120.31 188.82 1120.31 M198.102 1105.66 L198.102 1109.92 Q196.343 1109.08 194.538 1108.64 Q192.755 1108.2 190.996 1108.2 Q186.366 1108.2 183.913 1111.33 Q181.482 1114.45 181.135 1120.77 Q182.501 1118.76 184.561 1117.69 Q186.621 1116.61 189.098 1116.61 Q194.306 1116.61 197.315 1119.78 Q200.348 1122.93 200.348 1128.37 Q200.348 1133.69 197.2 1136.91 Q194.051 1140.12 188.82 1140.12 Q182.825 1140.12 179.653 1135.54 Q176.482 1130.94 176.482 1122.21 Q176.482 1114.01 180.371 1109.15 Q184.26 1104.27 190.811 1104.27 Q192.57 1104.27 194.352 1104.62 Q196.158 1104.96 198.102 1105.66 Z" fill="#000000" fill-rule="evenodd" fill-opacity="1" /><path clip-path="url(#clip770)" d="M 0 0 M121.135 787.782 L137.454 787.782 L137.454 791.717 L115.51 791.717 L115.51 787.782 Q118.172 785.028 122.755 780.398 Q127.362 775.745 128.542 774.403 Q130.788 771.879 131.667 770.143 Q132.57 768.384 132.57 766.694 Q132.57 763.94 130.626 762.204 Q128.705 760.467 125.603 760.467 Q123.404 760.467 120.95 761.231 Q118.519 761.995 115.742 763.546 L115.742 758.824 Q118.566 757.69 121.019 757.111 Q123.473 756.532 125.51 756.532 Q130.88 756.532 134.075 759.217 Q137.269 761.903 137.269 766.393 Q137.269 768.523 136.459 770.444 Q135.672 772.342 133.566 774.935 Q132.987 775.606 129.885 778.824 Q126.783 782.018 121.135 787.782 Z" fill="#000000" fill-rule="evenodd" fill-opacity="1" /><path clip-path="url(#clip770)" d="M 0 0 M142.57 757.157 L160.927 757.157 L160.927 761.092 L146.853 761.092 L146.853 769.565 Q147.871 769.217 148.89 769.055 Q149.908 768.87 150.927 768.87 Q156.714 768.87 160.093 772.041 Q163.473 775.213 163.473 780.629 Q163.473 786.208 160.001 789.31 Q156.528 792.389 150.209 792.389 Q148.033 792.389 145.765 792.018 Q143.519 791.648 141.112 790.907 L141.112 786.208 Q143.195 787.342 145.417 787.898 Q147.64 788.453 150.116 788.453 Q154.121 788.453 156.459 786.347 Q158.797 784.24 158.797 780.629 Q158.797 777.018 156.459 774.912 Q154.121 772.805 150.116 772.805 Q148.241 772.805 146.366 773.222 Q144.515 773.639 142.57 774.518 L142.57 757.157 Z" fill="#000000" fill-rule="evenodd" fill-opacity="1" /><path clip-path="url(#clip770)" d="M 0 0 M168.542 785.838 L173.427 785.838 L173.427 791.717 L168.542 791.717 L168.542 785.838 Z" fill="#000000" fill-rule="evenodd" fill-opacity="1" /><path clip-path="url(#clip770)" d="M 0 0 M188.496 775.305 Q185.163 775.305 183.241 777.088 Q181.343 778.87 181.343 781.995 Q181.343 785.12 183.241 786.903 Q185.163 788.685 188.496 788.685 Q191.829 788.685 193.75 786.903 Q195.672 785.097 195.672 781.995 Q195.672 778.87 193.75 777.088 Q191.852 775.305 188.496 775.305 M183.82 773.315 Q180.811 772.574 179.121 770.514 Q177.454 768.454 177.454 765.491 Q177.454 761.347 180.394 758.94 Q183.357 756.532 188.496 756.532 Q193.658 756.532 196.598 758.94 Q199.537 761.347 199.537 765.491 Q199.537 768.454 197.848 770.514 Q196.181 772.574 193.195 773.315 Q196.575 774.102 198.45 776.393 Q200.348 778.685 200.348 781.995 Q200.348 787.018 197.269 789.703 Q194.213 792.389 188.496 792.389 Q182.778 792.389 179.7 789.703 Q176.644 787.018 176.644 781.995 Q176.644 778.685 178.542 776.393 Q180.44 774.102 183.82 773.315 M182.107 765.93 Q182.107 768.616 183.774 770.12 Q185.463 771.625 188.496 771.625 Q191.505 771.625 193.195 770.12 Q194.908 768.616 194.908 765.93 Q194.908 763.245 193.195 761.741 Q191.505 760.236 188.496 760.236 Q185.463 760.236 183.774 761.741 Q182.107 763.245 182.107 765.93 Z" fill="#000000" fill-rule="evenodd" fill-opacity="1" /><path clip-path="url(#clip770)" d="M 0 0 M119.885 440.046 L136.204 440.046 L136.204 443.981 L114.26 443.981 L114.26 440.046 Q116.922 437.291 121.505 432.662 Q126.112 428.009 127.292 426.666 Q129.538 424.143 130.417 422.407 Q131.32 420.648 131.32 418.958 Q131.32 416.203 129.376 414.467 Q127.455 412.731 124.353 412.731 Q122.154 412.731 119.7 413.495 Q117.269 414.259 114.492 415.81 L114.492 411.088 Q117.316 409.953 119.769 409.375 Q122.223 408.796 124.26 408.796 Q129.63 408.796 132.825 411.481 Q136.019 414.166 136.019 418.657 Q136.019 420.787 135.209 422.708 Q134.422 424.606 132.316 427.199 Q131.737 427.87 128.635 431.088 Q125.533 434.282 119.885 440.046 Z" fill="#000000" fill-rule="evenodd" fill-opacity="1" /><path clip-path="url(#clip770)" d="M 0 0 M151.853 424.838 Q148.704 424.838 146.853 426.99 Q145.024 429.143 145.024 432.893 Q145.024 436.62 146.853 438.796 Q148.704 440.949 151.853 440.949 Q155.001 440.949 156.829 438.796 Q158.681 436.62 158.681 432.893 Q158.681 429.143 156.829 426.99 Q155.001 424.838 151.853 424.838 M161.135 410.185 L161.135 414.444 Q159.376 413.611 157.57 413.171 Q155.788 412.731 154.028 412.731 Q149.399 412.731 146.945 415.856 Q144.515 418.981 144.167 425.301 Q145.533 423.287 147.593 422.222 Q149.653 421.134 152.13 421.134 Q157.339 421.134 160.348 424.305 Q163.38 427.453 163.38 432.893 Q163.38 438.217 160.232 441.435 Q157.084 444.652 151.853 444.652 Q145.857 444.652 142.686 440.069 Q139.515 435.463 139.515 426.736 Q139.515 418.541 143.404 413.68 Q147.292 408.796 153.843 408.796 Q155.603 408.796 157.385 409.143 Q159.19 409.49 161.135 410.185 Z" fill="#000000" fill-rule="evenodd" fill-opacity="1" /><path clip-path="url(#clip770)" d="M 0 0 M168.45 438.101 L173.334 438.101 L173.334 443.981 L168.45 443.981 L168.45 438.101 Z" fill="#000000" fill-rule="evenodd" fill-opacity="1" /><path clip-path="url(#clip770)" d="M 0 0 M188.403 412.5 Q184.792 412.5 182.963 416.064 Q181.158 419.606 181.158 426.736 Q181.158 433.842 182.963 437.407 Q184.792 440.949 188.403 440.949 Q192.038 440.949 193.843 437.407 Q195.672 433.842 195.672 426.736 Q195.672 419.606 193.843 416.064 Q192.038 412.5 188.403 412.5 M188.403 408.796 Q194.213 408.796 197.269 413.402 Q200.348 417.986 200.348 426.736 Q200.348 435.463 197.269 440.069 Q194.213 444.652 188.403 444.652 Q182.593 444.652 179.514 440.069 Q176.459 435.463 176.459 426.736 Q176.459 417.986 179.514 413.402 Q182.593 408.796 188.403 408.796 Z" fill="#000000" fill-rule="evenodd" fill-opacity="1" /><path clip-path="url(#clip770)" d="M 0 0 M121.482 92.3096 L137.802 92.3096 L137.802 96.2447 L115.857 96.2447 L115.857 92.3096 Q118.519 89.555 123.103 84.9253 Q127.709 80.2726 128.89 78.93 Q131.135 76.4069 132.015 74.6708 Q132.917 72.9115 132.917 71.2217 Q132.917 68.4671 130.973 66.731 Q129.052 64.9949 125.95 64.9949 Q123.751 64.9949 121.297 65.7588 Q118.867 66.5227 116.089 68.0736 L116.089 63.3514 Q118.913 62.2171 121.367 61.6384 Q123.82 61.0597 125.857 61.0597 Q131.228 61.0597 134.422 63.7449 Q137.617 66.4301 137.617 70.9208 Q137.617 73.0504 136.806 74.9717 Q136.019 76.8698 133.913 79.4624 Q133.334 80.1337 130.232 83.3513 Q127.13 86.5457 121.482 92.3096 Z" fill="#000000" fill-rule="evenodd" fill-opacity="1" /><path clip-path="url(#clip770)" d="M 0 0 M153.45 77.1013 Q150.302 77.1013 148.45 79.2541 Q146.621 81.4068 146.621 85.1568 Q146.621 88.8837 148.45 91.0596 Q150.302 93.2123 153.45 93.2123 Q156.598 93.2123 158.427 91.0596 Q160.278 88.8837 160.278 85.1568 Q160.278 81.4068 158.427 79.2541 Q156.598 77.1013 153.45 77.1013 M162.732 62.4486 L162.732 66.7079 Q160.973 65.8745 159.167 65.4347 Q157.385 64.9949 155.626 64.9949 Q150.996 64.9949 148.542 68.1199 Q146.112 71.2449 145.765 77.5643 Q147.13 75.5504 149.191 74.4856 Q151.251 73.3976 153.728 73.3976 Q158.936 73.3976 161.945 76.5689 Q164.977 79.717 164.977 85.1568 Q164.977 90.4809 161.829 93.6984 Q158.681 96.916 153.45 96.916 Q147.454 96.916 144.283 92.3327 Q141.112 87.7263 141.112 78.9995 Q141.112 70.8051 145.001 65.944 Q148.89 61.0597 155.44 61.0597 Q157.2 61.0597 158.982 61.407 Q160.788 61.7542 162.732 62.4486 Z" fill="#000000" fill-rule="evenodd" fill-opacity="1" /><path clip-path="url(#clip770)" d="M 0 0 M170.047 90.3651 L174.931 90.3651 L174.931 96.2447 L170.047 96.2447 L170.047 90.3651 Z" fill="#000000" fill-rule="evenodd" fill-opacity="1" /><path clip-path="url(#clip770)" d="M 0 0 M184.028 92.3096 L200.348 92.3096 L200.348 96.2447 L178.403 96.2447 L178.403 92.3096 Q181.065 89.555 185.649 84.9253 Q190.255 80.2726 191.436 78.93 Q193.681 76.4069 194.561 74.6708 Q195.463 72.9115 195.463 71.2217 Q195.463 68.4671 193.519 66.731 Q191.598 64.9949 188.496 64.9949 Q186.297 64.9949 183.843 65.7588 Q181.413 66.5227 178.635 68.0736 L178.635 63.3514 Q181.459 62.2171 183.913 61.6384 Q186.366 61.0597 188.403 61.0597 Q193.774 61.0597 196.968 63.7449 Q200.162 66.4301 200.162 70.9208 Q200.162 73.0504 199.352 74.9717 Q198.565 76.8698 196.459 79.4624 Q195.88 80.1337 192.778 83.3513 Q189.676 86.5457 184.028 92.3096 Z" fill="#000000" fill-rule="evenodd" fill-opacity="1" /><path clip-path="url(#clip770)" d="M 0 0 M59.1993 815.533 Q55.2526 813.336 53.3747 810.281 Q51.4968 807.225 51.4968 803.088 Q51.4968 797.518 55.4117 794.494 Q59.2948 791.47 66.4881 791.47 L88.0042 791.47 L88.0042 797.358 L66.679 797.358 Q61.5546 797.358 59.072 799.173 Q56.5894 800.987 56.5894 804.711 Q56.5894 809.262 59.6131 811.904 Q62.6368 814.546 67.8567 814.546 L88.0042 814.546 L88.0042 820.434 L66.679 820.434 Q61.5228 820.434 59.072 822.248 Q56.5894 824.063 56.5894 827.85 Q56.5894 832.338 59.6449 834.98 Q62.6686 837.622 67.8567 837.622 L88.0042 837.622 L88.0042 843.51 L52.3562 843.51 L52.3562 837.622 L57.8944 837.622 Q54.616 835.616 53.0564 832.815 Q51.4968 830.015 51.4968 826.163 Q51.4968 822.28 53.4702 819.575 Q55.4436 816.838 59.1993 815.533 Z" fill="#000000" fill-rule="evenodd" fill-opacity="1" /><path clip-path="url(#clip770)" d="M 0 0 M52.3562 785.327 L52.3562 779.471 L88.0042 779.471 L88.0042 785.327 L52.3562 785.327 M38.479 785.327 L38.479 779.471 L45.895 779.471 L45.895 785.327 L38.479 785.327 Z" fill="#000000" fill-rule="evenodd" fill-opacity="1" /><path clip-path="url(#clip770)" d="M 0 0 M66.4881 743.696 L88.0042 743.696 L88.0042 749.552 L66.679 749.552 Q61.6183 749.552 59.1038 751.525 Q56.5894 753.499 56.5894 757.446 Q56.5894 762.188 59.6131 764.925 Q62.6368 767.662 67.8567 767.662 L88.0042 767.662 L88.0042 773.551 L52.3562 773.551 L52.3562 767.662 L57.8944 767.662 Q54.6797 765.562 53.0883 762.729 Q51.4968 759.864 51.4968 756.141 Q51.4968 749.998 55.3163 746.847 Q59.1038 743.696 66.4881 743.696 Z" fill="#000000" fill-rule="evenodd" fill-opacity="1" /><path clip-path="url(#clip770)" d="M 0 0 M98.8259 710.467 L103.377 710.467 L103.377 744.332 L98.8259 744.332 L98.8259 710.467 Z" fill="#000000" fill-rule="evenodd" fill-opacity="1" /><path clip-path="url(#clip770)" d="M 0 0 M57.7671 680.866 L38.479 680.866 L38.479 675.01 L88.0042 675.01 L88.0042 680.866 L82.657 680.866 Q85.8398 682.712 87.3994 685.545 Q88.9272 688.346 88.9272 692.292 Q88.9272 698.754 83.771 702.828 Q78.6147 706.87 70.212 706.87 Q61.8093 706.87 56.6531 702.828 Q51.4968 698.754 51.4968 692.292 Q51.4968 688.346 53.0564 685.545 Q54.5842 682.712 57.7671 680.866 M70.212 700.823 Q76.6732 700.823 80.3653 698.181 Q84.0256 695.507 84.0256 690.86 Q84.0256 686.213 80.3653 683.54 Q76.6732 680.866 70.212 680.866 Q63.7508 680.866 60.0905 683.54 Q56.3984 686.213 56.3984 690.86 Q56.3984 695.507 60.0905 698.181 Q63.7508 700.823 70.212 700.823 Z" fill="#000000" fill-rule="evenodd" fill-opacity="1" /><path clip-path="url(#clip770)" d="M 0 0 M52.3562 668.867 L52.3562 663.01 L88.0042 663.01 L88.0042 668.867 L52.3562 668.867 M38.479 668.867 L38.479 663.01 L45.895 663.01 L45.895 668.867 L38.479 668.867 Z" fill="#000000" fill-rule="evenodd" fill-opacity="1" /><path clip-path="url(#clip770)" d="M 0 0 M38.479 638.821 L43.3487 638.821 L43.3487 644.422 Q43.3487 647.573 44.6219 648.815 Q45.895 650.024 49.2052 650.024 L52.3562 650.024 L52.3562 640.38 L56.9077 640.38 L56.9077 650.024 L88.0042 650.024 L88.0042 655.912 L56.9077 655.912 L56.9077 661.514 L52.3562 661.514 L52.3562 655.912 L49.8736 655.912 Q43.9216 655.912 41.2162 653.143 Q38.479 650.374 38.479 644.359 L38.479 638.821 Z" fill="#000000" fill-rule="evenodd" fill-opacity="1" /><path clip-path="url(#clip770)" d="M 0 0 M38.479 614.631 L43.3487 614.631 L43.3487 620.233 Q43.3487 623.384 44.6219 624.625 Q45.895 625.835 49.2052 625.835 L52.3562 625.835 L52.3562 616.19 L56.9077 616.19 L56.9077 625.835 L88.0042 625.835 L88.0042 631.723 L56.9077 631.723 L56.9077 637.325 L52.3562 637.325 L52.3562 631.723 L49.8736 631.723 Q43.9216 631.723 41.2162 628.954 Q38.479 626.185 38.479 620.169 L38.479 614.631 Z" fill="#000000" fill-rule="evenodd" fill-opacity="1" /><polyline clip-path="url(#clip772)" style="stroke:#009af9; stroke-width:20; stroke-opacity:1; fill:none" stroke-dasharray="80, 50" points="
  296.246,85.838 1294.55,776.82 2292.86,1372.3 
  "/>
<path clip-path="url(#clip770)" d="
M1996.03 213.659 L2282.21 213.659 L2282.21 92.6992 L1996.03 92.6992  Z
  " fill="#ffffff" fill-rule="evenodd" fill-opacity="1"/>
<polyline clip-path="url(#clip770)" style="stroke:#000000; stroke-width:4; stroke-opacity:1; fill:none" points="
  1996.03,213.659 2282.21,213.659 2282.21,92.6992 1996.03,92.6992 1996.03,213.659 
  "/>
<polyline clip-path="url(#clip770)" style="stroke:#009af9; stroke-width:4; stroke-opacity:1; fill:none" stroke-dasharray="16, 10" points="
  2019.55,153.179 2160.64,153.179 
  "/>
<path clip-path="url(#clip770)" d="M 0 0 M2198 172.867 Q2196.2 177.496 2194.48 178.908 Q2192.77 180.32 2189.9 180.32 L2186.5 180.32 L2186.5 176.755 L2189 176.755 Q2190.76 176.755 2191.73 175.922 Q2192.7 175.089 2193.88 171.987 L2194.65 170.043 L2184.16 144.533 L2188.67 144.533 L2196.78 164.811 L2204.88 144.533 L2209.39 144.533 L2198 172.867 Z" fill="#000000" fill-rule="evenodd" fill-opacity="1" /><path clip-path="url(#clip770)" d="M 0 0 M2215.27 166.524 L2222.91 166.524 L2222.91 140.158 L2214.6 141.825 L2214.6 137.566 L2222.86 135.899 L2227.54 135.899 L2227.54 166.524 L2235.18 166.524 L2235.18 170.459 L2215.27 170.459 L2215.27 166.524 Z" fill="#000000" fill-rule="evenodd" fill-opacity="1" /></svg>
