<?xml version="1.0" encoding="utf-8"?>
<svg xmlns="http://www.w3.org/2000/svg" xmlns:xlink="http://www.w3.org/1999/xlink" width="600" height="400" viewBox="0 0 2400 1600">
<defs>
  <clipPath id="clip600">
    <rect x="0" y="0" width="2400" height="1600"/>
  </clipPath>
</defs>
<path clip-path="url(#clip600)" d="
M0 1600 L2400 1600 L2400 0 L0 0  Z
  " fill="#ffffff" fill-rule="evenodd" fill-opacity="1"/>
<defs>
  <clipPath id="clip601">
    <rect x="480" y="0" width="1681" height="1600"/>
  </clipPath>
</defs>
<path clip-path="url(#clip600)" d="
M250.352 1410.9 L2352.76 1410.9 L2352.76 47.2441 L250.352 47.2441  Z
  " fill="#ffffff" fill-rule="evenodd" fill-opacity="1"/>
<defs>
  <clipPath id="clip602">
    <rect x="250" y="47" width="2103" height="1365"/>
  </clipPath>
</defs>
<polyline clip-path="url(#clip602)" style="stroke:#000000; stroke-linecap:butt; stroke-linejoin:round; stroke-width:2; stroke-opacity:0.1; fill:none" points="
  508.194,1410.9 508.194,47.2441 
  "/>
<polyline clip-path="url(#clip602)" style="stroke:#000000; stroke-linecap:butt; stroke-linejoin:round; stroke-width:2; stroke-opacity:0.1; fill:none" points="
  904.874,1410.9 904.874,47.2441 
  "/>
<polyline clip-path="url(#clip602)" style="stroke:#000000; stroke-linecap:butt; stroke-linejoin:round; stroke-width:2; stroke-opacity:0.1; fill:none" points="
  1301.55,1410.9 1301.55,47.2441 
  "/>
<polyline clip-path="url(#clip602)" style="stroke:#000000; stroke-linecap:butt; stroke-linejoin:round; stroke-width:2; stroke-opacity:0.1; fill:none" points="
  1698.23,1410.9 1698.23,47.2441 
  "/>
<polyline clip-path="url(#clip602)" style="stroke:#000000; stroke-linecap:butt; stroke-linejoin:round; stroke-width:2; stroke-opacity:0.1; fill:none" points="
  2094.91,1410.9 2094.91,47.2441 
  "/>
<polyline clip-path="url(#clip600)" style="stroke:#000000; stroke-linecap:butt; stroke-linejoin:round; stroke-width:4; stroke-opacity:1; fill:none" points="
  250.352,1410.9 2352.76,1410.9 
  "/>
<polyline clip-path="url(#clip600)" style="stroke:#000000; stroke-linecap:butt; stroke-linejoin:round; stroke-width:4; stroke-opacity:1; fill:none" points="
  508.194,1410.9 508.194,1392 
  "/>
<polyline clip-path="url(#clip600)" style="stroke:#000000; stroke-linecap:butt; stroke-linejoin:round; stroke-width:4; stroke-opacity:1; fill:none" points="
  904.874,1410.9 904.874,1392 
  "/>
<polyline clip-path="url(#clip600)" style="stroke:#000000; stroke-linecap:butt; stroke-linejoin:round; stroke-width:4; stroke-opacity:1; fill:none" points="
  1301.55,1410.9 1301.55,1392 
  "/>
<polyline clip-path="url(#clip600)" style="stroke:#000000; stroke-linecap:butt; stroke-linejoin:round; stroke-width:4; stroke-opacity:1; fill:none" points="
  1698.23,1410.9 1698.23,1392 
  "/>
<polyline clip-path="url(#clip600)" style="stroke:#000000; stroke-linecap:butt; stroke-linejoin:round; stroke-width:4; stroke-opacity:1; fill:none" points="
  2094.91,1410.9 2094.91,1392 
  "/>
<path clip-path="url(#clip600)" d="M440.085 1485.02 L447.724 1485.02 L447.724 1458.66 L439.413 1460.32 L439.413 1456.06 L447.677 1454.4 L452.353 1454.4 L452.353 1485.02 L459.992 1485.02 L459.992 1488.96 L440.085 1488.96 L440.085 1485.02 Z" fill="#000000" fill-rule="evenodd" fill-opacity="1" /><path clip-path="url(#clip600)" d="M479.436 1457.48 Q475.825 1457.48 473.997 1461.04 Q472.191 1464.58 472.191 1471.71 Q472.191 1478.82 473.997 1482.38 Q475.825 1485.92 479.436 1485.92 Q483.071 1485.92 484.876 1482.38 Q486.705 1478.82 486.705 1471.71 Q486.705 1464.58 484.876 1461.04 Q483.071 1457.48 479.436 1457.48 M479.436 1453.77 Q485.247 1453.77 488.302 1458.38 Q491.381 1462.96 491.381 1471.71 Q491.381 1480.44 488.302 1485.04 Q485.247 1489.63 479.436 1489.63 Q473.626 1489.63 470.548 1485.04 Q467.492 1480.44 467.492 1471.71 Q467.492 1462.96 470.548 1458.38 Q473.626 1453.77 479.436 1453.77 Z" fill="#000000" fill-rule="evenodd" fill-opacity="1" /><path clip-path="url(#clip600)" d="M491.381 1447.87 L515.492 1447.87 L515.492 1451.07 L491.381 1451.07 L491.381 1447.87 Z" fill="#000000" fill-rule="evenodd" fill-opacity="1" /><path clip-path="url(#clip600)" d="M535.203 1446.41 Q537.93 1446.99 539.453 1448.83 Q540.996 1450.68 540.996 1453.38 Q540.996 1457.54 538.137 1459.82 Q535.278 1462.09 530.012 1462.09 Q528.244 1462.09 526.363 1461.73 Q524.501 1461.4 522.508 1460.7 L522.508 1457.03 Q524.087 1457.95 525.968 1458.42 Q527.849 1458.89 529.899 1458.89 Q533.473 1458.89 535.335 1457.48 Q537.215 1456.07 537.215 1453.38 Q537.215 1450.9 535.466 1449.51 Q533.736 1448.1 530.633 1448.1 L527.36 1448.1 L527.36 1444.98 L530.783 1444.98 Q533.585 1444.98 535.071 1443.87 Q536.557 1442.74 536.557 1440.63 Q536.557 1438.47 535.015 1437.32 Q533.491 1436.16 530.633 1436.16 Q529.072 1436.16 527.285 1436.49 Q525.498 1436.83 523.354 1437.55 L523.354 1434.16 Q525.517 1433.56 527.398 1433.26 Q529.297 1432.96 530.971 1432.96 Q535.297 1432.96 537.817 1434.93 Q540.337 1436.89 540.337 1440.24 Q540.337 1442.57 539.002 1444.19 Q537.667 1445.79 535.203 1446.41 Z" fill="#000000" fill-rule="evenodd" fill-opacity="1" /><path clip-path="url(#clip600)" d="M548.199 1456.77 L552.167 1456.77 L552.167 1461.55 L548.199 1461.55 L548.199 1456.77 Z" fill="#000000" fill-rule="evenodd" fill-opacity="1" /><path clip-path="url(#clip600)" d="M563.715 1458.35 L576.975 1458.35 L576.975 1461.55 L559.145 1461.55 L559.145 1458.35 Q561.308 1456.11 565.032 1452.35 Q568.775 1448.57 569.734 1447.48 Q571.558 1445.43 572.273 1444.02 Q573.006 1442.59 573.006 1441.22 Q573.006 1438.98 571.427 1437.57 Q569.866 1436.16 567.345 1436.16 Q565.559 1436.16 563.565 1436.78 Q561.59 1437.4 559.333 1438.66 L559.333 1434.82 Q561.628 1433.9 563.621 1433.43 Q565.615 1432.96 567.27 1432.96 Q571.634 1432.96 574.229 1435.14 Q576.824 1437.32 576.824 1440.97 Q576.824 1442.7 576.166 1444.26 Q575.527 1445.8 573.815 1447.91 Q573.345 1448.46 570.825 1451.07 Q568.305 1453.67 563.715 1458.35 Z" fill="#000000" fill-rule="evenodd" fill-opacity="1" /><path clip-path="url(#clip600)" d="M836.614 1485.02 L844.253 1485.02 L844.253 1458.66 L835.943 1460.32 L835.943 1456.06 L844.207 1454.4 L848.883 1454.4 L848.883 1485.02 L856.522 1485.02 L856.522 1488.96 L836.614 1488.96 L836.614 1485.02 Z" fill="#000000" fill-rule="evenodd" fill-opacity="1" /><path clip-path="url(#clip600)" d="M875.966 1457.48 Q872.355 1457.48 870.526 1461.04 Q868.721 1464.58 868.721 1471.71 Q868.721 1478.82 870.526 1482.38 Q872.355 1485.92 875.966 1485.92 Q879.6 1485.92 881.406 1482.38 Q883.234 1478.82 883.234 1471.71 Q883.234 1464.58 881.406 1461.04 Q879.6 1457.48 875.966 1457.48 M875.966 1453.77 Q881.776 1453.77 884.832 1458.38 Q887.91 1462.96 887.91 1471.71 Q887.91 1480.44 884.832 1485.04 Q881.776 1489.63 875.966 1489.63 Q870.156 1489.63 867.077 1485.04 Q864.021 1480.44 864.021 1471.71 Q864.021 1462.96 867.077 1458.38 Q870.156 1453.77 875.966 1453.77 Z" fill="#000000" fill-rule="evenodd" fill-opacity="1" /><path clip-path="url(#clip600)" d="M887.91 1447.87 L912.022 1447.87 L912.022 1451.07 L887.91 1451.07 L887.91 1447.87 Z" fill="#000000" fill-rule="evenodd" fill-opacity="1" /><path clip-path="url(#clip600)" d="M931.732 1446.41 Q934.459 1446.99 935.983 1448.83 Q937.525 1450.68 937.525 1453.38 Q937.525 1457.54 934.666 1459.82 Q931.808 1462.09 926.541 1462.09 Q924.773 1462.09 922.893 1461.73 Q921.031 1461.4 919.037 1460.7 L919.037 1457.03 Q920.617 1457.95 922.498 1458.42 Q924.378 1458.89 926.429 1458.89 Q930.002 1458.89 931.864 1457.48 Q933.745 1456.07 933.745 1453.38 Q933.745 1450.9 931.996 1449.51 Q930.265 1448.1 927.162 1448.1 L923.889 1448.1 L923.889 1444.98 L927.313 1444.98 Q930.115 1444.98 931.601 1443.87 Q933.086 1442.74 933.086 1440.63 Q933.086 1438.47 931.544 1437.32 Q930.021 1436.16 927.162 1436.16 Q925.601 1436.16 923.814 1436.49 Q922.028 1436.83 919.883 1437.55 L919.883 1434.16 Q922.046 1433.56 923.927 1433.26 Q925.827 1432.96 927.501 1432.96 Q931.826 1432.96 934.347 1434.93 Q936.867 1436.89 936.867 1440.24 Q936.867 1442.57 935.532 1444.19 Q934.196 1445.79 931.732 1446.41 Z" fill="#000000" fill-rule="evenodd" fill-opacity="1" /><path clip-path="url(#clip600)" d="M944.729 1456.77 L948.697 1456.77 L948.697 1461.55 L944.729 1461.55 L944.729 1456.77 Z" fill="#000000" fill-rule="evenodd" fill-opacity="1" /><path clip-path="url(#clip600)" d="M957.631 1458.35 L963.837 1458.35 L963.837 1436.93 L957.085 1438.28 L957.085 1434.82 L963.8 1433.47 L967.599 1433.47 L967.599 1458.35 L973.805 1458.35 L973.805 1461.55 L957.631 1461.55 L957.631 1458.35 Z" fill="#000000" fill-rule="evenodd" fill-opacity="1" /><path clip-path="url(#clip600)" d="M1232.8 1485.02 L1240.43 1485.02 L1240.43 1458.66 L1232.12 1460.32 L1232.12 1456.06 L1240.39 1454.4 L1245.06 1454.4 L1245.06 1485.02 L1252.7 1485.02 L1252.7 1488.96 L1232.8 1488.96 L1232.8 1485.02 Z" fill="#000000" fill-rule="evenodd" fill-opacity="1" /><path clip-path="url(#clip600)" d="M1272.15 1457.48 Q1268.54 1457.48 1266.71 1461.04 Q1264.9 1464.58 1264.9 1471.71 Q1264.9 1478.82 1266.71 1482.38 Q1268.54 1485.92 1272.15 1485.92 Q1275.78 1485.92 1277.59 1482.38 Q1279.42 1478.82 1279.42 1471.71 Q1279.42 1464.58 1277.59 1461.04 Q1275.78 1457.48 1272.15 1457.48 M1272.15 1453.77 Q1277.96 1453.77 1281.01 1458.38 Q1284.09 1462.96 1284.09 1471.71 Q1284.09 1480.44 1281.01 1485.04 Q1277.96 1489.63 1272.15 1489.63 Q1266.34 1489.63 1263.26 1485.04 Q1260.2 1480.44 1260.2 1471.71 Q1260.2 1462.96 1263.26 1458.38 Q1266.34 1453.77 1272.15 1453.77 Z" fill="#000000" fill-rule="evenodd" fill-opacity="1" /><path clip-path="url(#clip600)" d="M1284.09 1447.87 L1308.2 1447.87 L1308.2 1451.07 L1284.09 1451.07 L1284.09 1447.87 Z" fill="#000000" fill-rule="evenodd" fill-opacity="1" /><path clip-path="url(#clip600)" d="M1327.91 1446.41 Q1330.64 1446.99 1332.16 1448.83 Q1333.71 1450.68 1333.71 1453.38 Q1333.71 1457.54 1330.85 1459.82 Q1327.99 1462.09 1322.72 1462.09 Q1320.95 1462.09 1319.07 1461.73 Q1317.21 1461.4 1315.22 1460.7 L1315.22 1457.03 Q1316.8 1457.95 1318.68 1458.42 Q1320.56 1458.89 1322.61 1458.89 Q1326.18 1458.89 1328.05 1457.48 Q1329.93 1456.07 1329.93 1453.38 Q1329.93 1450.9 1328.18 1449.51 Q1326.45 1448.1 1323.34 1448.1 L1320.07 1448.1 L1320.07 1444.98 L1323.49 1444.98 Q1326.3 1444.98 1327.78 1443.87 Q1329.27 1442.74 1329.27 1440.63 Q1329.27 1438.47 1327.73 1437.32 Q1326.2 1436.16 1323.34 1436.16 Q1321.78 1436.16 1320 1436.49 Q1318.21 1436.83 1316.06 1437.55 L1316.06 1434.16 Q1318.23 1433.56 1320.11 1433.26 Q1322.01 1432.96 1323.68 1432.96 Q1328.01 1432.96 1330.53 1434.93 Q1333.05 1436.89 1333.05 1440.24 Q1333.05 1442.57 1331.71 1444.19 Q1330.38 1445.79 1327.91 1446.41 Z" fill="#000000" fill-rule="evenodd" fill-opacity="1" /><path clip-path="url(#clip600)" d="M1340.91 1456.77 L1344.88 1456.77 L1344.88 1461.55 L1340.91 1461.55 L1340.91 1456.77 Z" fill="#000000" fill-rule="evenodd" fill-opacity="1" /><path clip-path="url(#clip600)" d="M1361.28 1435.97 Q1358.34 1435.97 1356.86 1438.86 Q1355.39 1441.74 1355.39 1447.53 Q1355.39 1453.31 1356.86 1456.2 Q1358.34 1459.08 1361.28 1459.08 Q1364.23 1459.08 1365.7 1456.2 Q1367.18 1453.31 1367.18 1447.53 Q1367.18 1441.74 1365.7 1438.86 Q1364.23 1435.97 1361.28 1435.97 M1361.28 1432.96 Q1366 1432.96 1368.48 1436.7 Q1370.98 1440.43 1370.98 1447.53 Q1370.98 1454.62 1368.48 1458.37 Q1366 1462.09 1361.28 1462.09 Q1356.56 1462.09 1354.06 1458.37 Q1351.57 1454.62 1351.57 1447.53 Q1351.57 1440.43 1354.06 1436.7 Q1356.56 1432.96 1361.28 1432.96 Z" fill="#000000" fill-rule="evenodd" fill-opacity="1" /><path clip-path="url(#clip600)" d="M1629.55 1485.02 L1637.19 1485.02 L1637.19 1458.66 L1628.88 1460.32 L1628.88 1456.06 L1637.14 1454.4 L1641.82 1454.4 L1641.82 1485.02 L1649.46 1485.02 L1649.46 1488.96 L1629.55 1488.96 L1629.55 1485.02 Z" fill="#000000" fill-rule="evenodd" fill-opacity="1" /><path clip-path="url(#clip600)" d="M1668.9 1457.48 Q1665.29 1457.48 1663.46 1461.04 Q1661.66 1464.58 1661.66 1471.71 Q1661.66 1478.82 1663.46 1482.38 Q1665.29 1485.92 1668.9 1485.92 Q1672.54 1485.92 1674.34 1482.38 Q1676.17 1478.82 1676.17 1471.71 Q1676.17 1464.58 1674.34 1461.04 Q1672.54 1457.48 1668.9 1457.48 M1668.9 1453.77 Q1674.71 1453.77 1677.77 1458.38 Q1680.85 1462.96 1680.85 1471.71 Q1680.85 1480.44 1677.77 1485.04 Q1674.71 1489.63 1668.9 1489.63 Q1663.09 1489.63 1660.01 1485.04 Q1656.96 1480.44 1656.96 1471.71 Q1656.96 1462.96 1660.01 1458.38 Q1663.09 1453.77 1668.9 1453.77 Z" fill="#000000" fill-rule="evenodd" fill-opacity="1" /><path clip-path="url(#clip600)" d="M1680.85 1447.87 L1704.96 1447.87 L1704.96 1451.07 L1680.85 1451.07 L1680.85 1447.87 Z" fill="#000000" fill-rule="evenodd" fill-opacity="1" /><path clip-path="url(#clip600)" d="M1716.43 1458.35 L1729.69 1458.35 L1729.69 1461.55 L1711.86 1461.55 L1711.86 1458.35 Q1714.02 1456.11 1717.75 1452.35 Q1721.49 1448.57 1722.45 1447.48 Q1724.27 1445.43 1724.99 1444.02 Q1725.72 1442.59 1725.72 1441.22 Q1725.72 1438.98 1724.14 1437.57 Q1722.58 1436.16 1720.06 1436.16 Q1718.27 1436.16 1716.28 1436.78 Q1714.31 1437.4 1712.05 1438.66 L1712.05 1434.82 Q1714.34 1433.9 1716.34 1433.43 Q1718.33 1432.96 1719.99 1432.96 Q1724.35 1432.96 1726.94 1435.14 Q1729.54 1437.32 1729.54 1440.97 Q1729.54 1442.7 1728.88 1444.26 Q1728.24 1445.8 1726.53 1447.91 Q1726.06 1448.46 1723.54 1451.07 Q1721.02 1453.67 1716.43 1458.35 Z" fill="#000000" fill-rule="evenodd" fill-opacity="1" /><path clip-path="url(#clip600)" d="M1737.67 1456.77 L1741.63 1456.77 L1741.63 1461.55 L1737.67 1461.55 L1737.67 1456.77 Z" fill="#000000" fill-rule="evenodd" fill-opacity="1" /><path clip-path="url(#clip600)" d="M1750.02 1460.96 L1750.02 1457.5 Q1751.45 1458.18 1752.92 1458.54 Q1754.39 1458.89 1755.8 1458.89 Q1759.56 1458.89 1761.53 1456.37 Q1763.53 1453.84 1763.81 1448.68 Q1762.72 1450.3 1761.04 1451.16 Q1759.37 1452.03 1757.34 1452.03 Q1753.13 1452.03 1750.66 1449.49 Q1748.22 1446.93 1748.22 1442.51 Q1748.22 1438.19 1750.77 1435.57 Q1753.33 1432.96 1757.58 1432.96 Q1762.45 1432.96 1765.01 1436.7 Q1767.59 1440.43 1767.59 1447.53 Q1767.59 1454.17 1764.43 1458.14 Q1761.29 1462.09 1755.97 1462.09 Q1754.54 1462.09 1753.07 1461.81 Q1751.6 1461.53 1750.02 1460.96 M1757.58 1449.06 Q1760.14 1449.06 1761.63 1447.31 Q1763.13 1445.56 1763.13 1442.51 Q1763.13 1439.48 1761.63 1437.74 Q1760.14 1435.97 1757.58 1435.97 Q1755.02 1435.97 1753.52 1437.74 Q1752.03 1439.48 1752.03 1442.51 Q1752.03 1445.56 1753.52 1447.31 Q1755.02 1449.06 1757.58 1449.06 Z" fill="#000000" fill-rule="evenodd" fill-opacity="1" /><path clip-path="url(#clip600)" d="M2026.19 1485.02 L2033.83 1485.02 L2033.83 1458.66 L2025.52 1460.32 L2025.52 1456.06 L2033.79 1454.4 L2038.46 1454.4 L2038.46 1485.02 L2046.1 1485.02 L2046.1 1488.96 L2026.19 1488.96 L2026.19 1485.02 Z" fill="#000000" fill-rule="evenodd" fill-opacity="1" /><path clip-path="url(#clip600)" d="M2065.54 1457.48 Q2061.93 1457.48 2060.11 1461.04 Q2058.3 1464.58 2058.3 1471.71 Q2058.3 1478.82 2060.11 1482.38 Q2061.93 1485.92 2065.54 1485.92 Q2069.18 1485.92 2070.98 1482.38 Q2072.81 1478.82 2072.81 1471.71 Q2072.81 1464.58 2070.98 1461.04 Q2069.18 1457.48 2065.54 1457.48 M2065.54 1453.77 Q2071.36 1453.77 2074.41 1458.38 Q2077.49 1462.96 2077.49 1471.71 Q2077.49 1480.44 2074.41 1485.04 Q2071.36 1489.63 2065.54 1489.63 Q2059.73 1489.63 2056.66 1485.04 Q2053.6 1480.44 2053.6 1471.71 Q2053.6 1462.96 2056.66 1458.38 Q2059.73 1453.77 2065.54 1453.77 Z" fill="#000000" fill-rule="evenodd" fill-opacity="1" /><path clip-path="url(#clip600)" d="M2077.49 1447.87 L2101.6 1447.87 L2101.6 1451.07 L2077.49 1451.07 L2077.49 1447.87 Z" fill="#000000" fill-rule="evenodd" fill-opacity="1" /><path clip-path="url(#clip600)" d="M2113.07 1458.35 L2126.33 1458.35 L2126.33 1461.55 L2108.5 1461.55 L2108.5 1458.35 Q2110.67 1456.11 2114.39 1452.35 Q2118.13 1448.57 2119.09 1447.48 Q2120.92 1445.43 2121.63 1444.02 Q2122.36 1442.59 2122.36 1441.22 Q2122.36 1438.98 2120.78 1437.57 Q2119.22 1436.16 2116.7 1436.16 Q2114.92 1436.16 2112.92 1436.78 Q2110.95 1437.4 2108.69 1438.66 L2108.69 1434.82 Q2110.99 1433.9 2112.98 1433.43 Q2114.97 1432.96 2116.63 1432.96 Q2120.99 1432.96 2123.59 1435.14 Q2126.18 1437.32 2126.18 1440.97 Q2126.18 1442.7 2125.52 1444.26 Q2124.88 1445.8 2123.17 1447.91 Q2122.7 1448.46 2120.18 1451.07 Q2117.66 1453.67 2113.07 1458.35 Z" fill="#000000" fill-rule="evenodd" fill-opacity="1" /><path clip-path="url(#clip600)" d="M2134.31 1456.77 L2138.28 1456.77 L2138.28 1461.55 L2134.31 1461.55 L2134.31 1456.77 Z" fill="#000000" fill-rule="evenodd" fill-opacity="1" /><path clip-path="url(#clip600)" d="M2154.68 1448.21 Q2151.97 1448.21 2150.41 1449.66 Q2148.86 1451.11 2148.86 1453.65 Q2148.86 1456.19 2150.41 1457.63 Q2151.97 1459.08 2154.68 1459.08 Q2157.38 1459.08 2158.95 1457.63 Q2160.51 1456.17 2160.51 1453.65 Q2160.51 1451.11 2158.95 1449.66 Q2157.4 1448.21 2154.68 1448.21 M2150.88 1446.59 Q2148.43 1445.99 2147.06 1444.32 Q2145.71 1442.64 2145.71 1440.24 Q2145.71 1436.87 2148.09 1434.91 Q2150.5 1432.96 2154.68 1432.96 Q2158.87 1432.96 2161.26 1434.91 Q2163.65 1436.87 2163.65 1440.24 Q2163.65 1442.64 2162.27 1444.32 Q2160.92 1445.99 2158.49 1446.59 Q2161.24 1447.23 2162.76 1449.1 Q2164.31 1450.96 2164.31 1453.65 Q2164.31 1457.73 2161.8 1459.91 Q2159.32 1462.09 2154.68 1462.09 Q2150.03 1462.09 2147.53 1459.91 Q2145.05 1457.73 2145.05 1453.65 Q2145.05 1450.96 2146.59 1449.1 Q2148.13 1447.23 2150.88 1446.59 M2149.49 1440.59 Q2149.49 1442.78 2150.84 1444 Q2152.21 1445.22 2154.68 1445.22 Q2157.12 1445.22 2158.49 1444 Q2159.89 1442.78 2159.89 1440.59 Q2159.89 1438.41 2158.49 1437.19 Q2157.12 1435.97 2154.68 1435.97 Q2152.21 1435.97 2150.84 1437.19 Q2149.49 1438.41 2149.49 1440.59 Z" fill="#000000" fill-rule="evenodd" fill-opacity="1" /><path clip-path="url(#clip600)" d="M1184.73 1538.54 L1190.93 1538.54 L1202.07 1568.46 L1213.21 1538.54 L1219.42 1538.54 L1206.05 1574.19 L1198.1 1574.19 L1184.73 1538.54 Z" fill="#000000" fill-rule="evenodd" fill-opacity="1" /><path clip-path="url(#clip600)" d="M1254.59 1585.01 L1254.59 1589.56 L1220.73 1589.56 L1220.73 1585.01 L1254.59 1585.01 Z" fill="#000000" fill-rule="evenodd" fill-opacity="1" /><path clip-path="url(#clip600)" d="M1285.75 1539.91 L1285.75 1545.38 Q1283.27 1544.01 1280.75 1543.34 Q1278.27 1542.64 1275.73 1542.64 Q1270.03 1542.64 1266.88 1546.27 Q1263.73 1549.87 1263.73 1556.39 Q1263.73 1562.92 1266.88 1566.55 Q1270.03 1570.14 1275.73 1570.14 Q1278.27 1570.14 1280.75 1569.47 Q1283.27 1568.77 1285.75 1567.41 L1285.75 1572.82 Q1283.3 1573.96 1280.66 1574.54 Q1278.05 1575.11 1275.09 1575.11 Q1267.04 1575.11 1262.29 1570.05 Q1257.55 1564.99 1257.55 1556.39 Q1257.55 1547.67 1262.33 1542.68 Q1267.13 1537.68 1275.47 1537.68 Q1278.18 1537.68 1280.75 1538.25 Q1283.33 1538.79 1285.75 1539.91 Z" fill="#000000" fill-rule="evenodd" fill-opacity="1" /><path clip-path="url(#clip600)" d="M1295.94 1524.66 L1301.79 1524.66 L1301.79 1574.19 L1295.94 1574.19 L1295.94 1524.66 Z" fill="#000000" fill-rule="evenodd" fill-opacity="1" /><path clip-path="url(#clip600)" d="M1327.86 1542.64 Q1323.15 1542.64 1320.41 1546.34 Q1317.68 1550 1317.68 1556.39 Q1317.68 1562.79 1320.38 1566.48 Q1323.12 1570.14 1327.86 1570.14 Q1332.54 1570.14 1335.28 1566.45 Q1338.01 1562.76 1338.01 1556.39 Q1338.01 1550.06 1335.28 1546.37 Q1332.54 1542.64 1327.86 1542.64 M1327.86 1537.68 Q1335.5 1537.68 1339.86 1542.64 Q1344.22 1547.61 1344.22 1556.39 Q1344.22 1565.15 1339.86 1570.14 Q1335.5 1575.11 1327.86 1575.11 Q1320.19 1575.11 1315.83 1570.14 Q1311.5 1565.15 1311.5 1556.39 Q1311.5 1547.61 1315.83 1542.64 Q1320.19 1537.68 1327.86 1537.68 Z" fill="#000000" fill-rule="evenodd" fill-opacity="1" /><path clip-path="url(#clip600)" d="M1376.65 1539.59 L1376.65 1545.13 Q1374.17 1543.85 1371.5 1543.22 Q1368.82 1542.58 1365.96 1542.58 Q1361.6 1542.58 1359.4 1543.92 Q1357.24 1545.25 1357.24 1547.93 Q1357.24 1549.96 1358.8 1551.14 Q1360.36 1552.29 1365.07 1553.34 L1367.07 1553.78 Q1373.31 1555.12 1375.92 1557.57 Q1378.56 1559.99 1378.56 1564.35 Q1378.56 1569.32 1374.62 1572.21 Q1370.7 1575.11 1363.83 1575.11 Q1360.96 1575.11 1357.84 1574.54 Q1354.76 1573.99 1351.32 1572.88 L1351.32 1566.83 Q1354.56 1568.52 1357.72 1569.38 Q1360.87 1570.21 1363.95 1570.21 Q1368.09 1570.21 1370.32 1568.81 Q1372.55 1567.37 1372.55 1564.8 Q1372.55 1562.41 1370.92 1561.14 Q1369.33 1559.86 1363.89 1558.68 L1361.85 1558.21 Q1356.41 1557.06 1353.99 1554.71 Q1351.57 1552.32 1351.57 1548.18 Q1351.57 1543.15 1355.14 1540.42 Q1358.7 1537.68 1365.26 1537.68 Q1368.51 1537.68 1371.37 1538.16 Q1374.23 1538.63 1376.65 1539.59 Z" fill="#000000" fill-rule="evenodd" fill-opacity="1" /><path clip-path="url(#clip600)" d="M1418.38 1554.9 L1418.38 1557.76 L1391.45 1557.76 Q1391.84 1563.81 1395.08 1566.99 Q1398.36 1570.14 1404.19 1570.14 Q1407.56 1570.14 1410.71 1569.32 Q1413.89 1568.49 1417.01 1566.83 L1417.01 1572.37 Q1413.86 1573.71 1410.55 1574.41 Q1407.24 1575.11 1403.84 1575.11 Q1395.31 1575.11 1390.31 1570.14 Q1385.34 1565.18 1385.34 1556.71 Q1385.34 1547.96 1390.05 1542.83 Q1394.8 1537.68 1402.82 1537.68 Q1410.01 1537.68 1414.18 1542.33 Q1418.38 1546.94 1418.38 1554.9 M1412.52 1553.18 Q1412.46 1548.37 1409.82 1545.51 Q1407.21 1542.64 1402.88 1542.64 Q1397.98 1542.64 1395.02 1545.41 Q1392.09 1548.18 1391.64 1553.21 L1412.52 1553.18 Z" fill="#000000" fill-rule="evenodd" fill-opacity="1" /><polyline clip-path="url(#clip602)" style="stroke:#000000; stroke-linecap:butt; stroke-linejoin:round; stroke-width:2; stroke-opacity:0.1; fill:none" points="
  250.352,1256.3 2352.76,1256.3 
  "/>
<polyline clip-path="url(#clip602)" style="stroke:#000000; stroke-linecap:butt; stroke-linejoin:round; stroke-width:2; stroke-opacity:0.1; fill:none" points="
  250.352,1032.22 2352.76,1032.22 
  "/>
<polyline clip-path="url(#clip602)" style="stroke:#000000; stroke-linecap:butt; stroke-linejoin:round; stroke-width:2; stroke-opacity:0.1; fill:none" points="
  250.352,808.139 2352.76,808.139 
  "/>
<polyline clip-path="url(#clip602)" style="stroke:#000000; stroke-linecap:butt; stroke-linejoin:round; stroke-width:2; stroke-opacity:0.1; fill:none" points="
  250.352,584.061 2352.76,584.061 
  "/>
<polyline clip-path="url(#clip602)" style="stroke:#000000; stroke-linecap:butt; stroke-linejoin:round; stroke-width:2; stroke-opacity:0.1; fill:none" points="
  250.352,359.982 2352.76,359.982 
  "/>
<polyline clip-path="url(#clip602)" style="stroke:#000000; stroke-linecap:butt; stroke-linejoin:round; stroke-width:2; stroke-opacity:0.1; fill:none" points="
  250.352,135.903 2352.76,135.903 
  "/>
<polyline clip-path="url(#clip600)" style="stroke:#000000; stroke-linecap:butt; stroke-linejoin:round; stroke-width:4; stroke-opacity:1; fill:none" points="
  250.352,1410.9 250.352,47.2441 
  "/>
<polyline clip-path="url(#clip600)" style="stroke:#000000; stroke-linecap:butt; stroke-linejoin:round; stroke-width:4; stroke-opacity:1; fill:none" points="
  250.352,1256.3 269.25,1256.3 
  "/>
<polyline clip-path="url(#clip600)" style="stroke:#000000; stroke-linecap:butt; stroke-linejoin:round; stroke-width:4; stroke-opacity:1; fill:none" points="
  250.352,1032.22 269.25,1032.22 
  "/>
<polyline clip-path="url(#clip600)" style="stroke:#000000; stroke-linecap:butt; stroke-linejoin:round; stroke-width:4; stroke-opacity:1; fill:none" points="
  250.352,808.139 269.25,808.139 
  "/>
<polyline clip-path="url(#clip600)" style="stroke:#000000; stroke-linecap:butt; stroke-linejoin:round; stroke-width:4; stroke-opacity:1; fill:none" points="
  250.352,584.061 269.25,584.061 
  "/>
<polyline clip-path="url(#clip600)" style="stroke:#000000; stroke-linecap:butt; stroke-linejoin:round; stroke-width:4; stroke-opacity:1; fill:none" points="
  250.352,359.982 269.25,359.982 
  "/>
<polyline clip-path="url(#clip600)" style="stroke:#000000; stroke-linecap:butt; stroke-linejoin:round; stroke-width:4; stroke-opacity:1; fill:none" points="
  250.352,135.903 269.25,135.903 
  "/>
<path clip-path="url(#clip600)" d="M130.857 1243.09 L119.052 1261.54 L130.857 1261.54 L130.857 1243.09 M129.63 1239.02 L135.51 1239.02 L135.51 1261.54 L140.441 1261.54 L140.441 1265.43 L135.51 1265.43 L135.51 1273.58 L130.857 1273.58 L130.857 1265.43 L115.256 1265.43 L115.256 1260.91 L129.63 1239.02 Z" fill="#000000" fill-rule="evenodd" fill-opacity="1" /><path clip-path="url(#clip600)" d="M148.172 1267.7 L153.056 1267.7 L153.056 1273.58 L148.172 1273.58 L148.172 1267.7 Z" fill="#000000" fill-rule="evenodd" fill-opacity="1" /><path clip-path="url(#clip600)" d="M162.061 1239.02 L184.283 1239.02 L184.283 1241.01 L171.737 1273.58 L166.852 1273.58 L178.658 1242.95 L162.061 1242.95 L162.061 1239.02 Z" fill="#000000" fill-rule="evenodd" fill-opacity="1" /><path clip-path="url(#clip600)" d="M193.45 1239.02 L211.806 1239.02 L211.806 1242.95 L197.732 1242.95 L197.732 1251.42 Q198.75 1251.08 199.769 1250.91 Q200.787 1250.73 201.806 1250.73 Q207.593 1250.73 210.973 1253.9 Q214.352 1257.07 214.352 1262.49 Q214.352 1268.07 210.88 1271.17 Q207.408 1274.25 201.088 1274.25 Q198.912 1274.25 196.644 1273.88 Q194.399 1273.51 191.991 1272.77 L191.991 1268.07 Q194.075 1269.2 196.297 1269.76 Q198.519 1270.31 200.996 1270.31 Q205 1270.31 207.338 1268.21 Q209.676 1266.1 209.676 1262.49 Q209.676 1258.88 207.338 1256.77 Q205 1254.66 200.996 1254.66 Q199.121 1254.66 197.246 1255.08 Q195.394 1255.5 193.45 1256.38 L193.45 1239.02 Z" fill="#000000" fill-rule="evenodd" fill-opacity="1" /><path clip-path="url(#clip600)" d="M129.862 1019.01 L118.056 1037.46 L129.862 1037.46 L129.862 1019.01 M128.635 1014.94 L134.515 1014.94 L134.515 1037.46 L139.445 1037.46 L139.445 1041.35 L134.515 1041.35 L134.515 1049.5 L129.862 1049.5 L129.862 1041.35 L114.26 1041.35 L114.26 1036.84 L128.635 1014.94 Z" fill="#000000" fill-rule="evenodd" fill-opacity="1" /><path clip-path="url(#clip600)" d="M147.177 1043.62 L152.061 1043.62 L152.061 1049.5 L147.177 1049.5 L147.177 1043.62 Z" fill="#000000" fill-rule="evenodd" fill-opacity="1" /><path clip-path="url(#clip600)" d="M172.246 1033.09 Q168.913 1033.09 166.991 1034.87 Q165.093 1036.65 165.093 1039.78 Q165.093 1042.9 166.991 1044.68 Q168.913 1046.47 172.246 1046.47 Q175.579 1046.47 177.501 1044.68 Q179.422 1042.88 179.422 1039.78 Q179.422 1036.65 177.501 1034.87 Q175.602 1033.09 172.246 1033.09 M167.57 1031.1 Q164.561 1030.35 162.871 1028.29 Q161.204 1026.23 161.204 1023.27 Q161.204 1019.13 164.144 1016.72 Q167.107 1014.31 172.246 1014.31 Q177.408 1014.31 180.348 1016.72 Q183.288 1019.13 183.288 1023.27 Q183.288 1026.23 181.598 1028.29 Q179.931 1030.35 176.945 1031.1 Q180.325 1031.88 182.2 1034.17 Q184.098 1036.47 184.098 1039.78 Q184.098 1044.8 181.019 1047.48 Q177.964 1050.17 172.246 1050.17 Q166.528 1050.17 163.45 1047.48 Q160.394 1044.8 160.394 1039.78 Q160.394 1036.47 162.292 1034.17 Q164.19 1031.88 167.57 1031.1 M165.857 1023.71 Q165.857 1026.4 167.524 1027.9 Q169.214 1029.41 172.246 1029.41 Q175.255 1029.41 176.945 1027.9 Q178.658 1026.4 178.658 1023.71 Q178.658 1021.03 176.945 1019.52 Q175.255 1018.02 172.246 1018.02 Q169.214 1018.02 167.524 1019.52 Q165.857 1021.03 165.857 1023.71 Z" fill="#000000" fill-rule="evenodd" fill-opacity="1" /><path clip-path="url(#clip600)" d="M202.408 1018.02 Q198.797 1018.02 196.968 1021.58 Q195.163 1025.12 195.163 1032.25 Q195.163 1039.36 196.968 1042.92 Q198.797 1046.47 202.408 1046.47 Q206.042 1046.47 207.848 1042.92 Q209.676 1039.36 209.676 1032.25 Q209.676 1025.12 207.848 1021.58 Q206.042 1018.02 202.408 1018.02 M202.408 1014.31 Q208.218 1014.31 211.274 1018.92 Q214.352 1023.5 214.352 1032.25 Q214.352 1040.98 211.274 1045.59 Q208.218 1050.17 202.408 1050.17 Q196.598 1050.17 193.519 1045.59 Q190.463 1040.98 190.463 1032.25 Q190.463 1023.5 193.519 1018.92 Q196.598 1014.31 202.408 1014.31 Z" fill="#000000" fill-rule="evenodd" fill-opacity="1" /><path clip-path="url(#clip600)" d="M130.857 794.933 L119.052 813.382 L130.857 813.382 L130.857 794.933 M129.63 790.859 L135.51 790.859 L135.51 813.382 L140.441 813.382 L140.441 817.271 L135.51 817.271 L135.51 825.419 L130.857 825.419 L130.857 817.271 L115.256 817.271 L115.256 812.757 L129.63 790.859 Z" fill="#000000" fill-rule="evenodd" fill-opacity="1" /><path clip-path="url(#clip600)" d="M148.172 819.54 L153.056 819.54 L153.056 825.419 L148.172 825.419 L148.172 819.54 Z" fill="#000000" fill-rule="evenodd" fill-opacity="1" /><path clip-path="url(#clip600)" d="M173.241 809.007 Q169.908 809.007 167.987 810.79 Q166.089 812.572 166.089 815.697 Q166.089 818.822 167.987 820.605 Q169.908 822.387 173.241 822.387 Q176.575 822.387 178.496 820.605 Q180.417 818.799 180.417 815.697 Q180.417 812.572 178.496 810.79 Q176.598 809.007 173.241 809.007 M168.565 807.017 Q165.556 806.276 163.866 804.216 Q162.2 802.156 162.2 799.193 Q162.2 795.049 165.14 792.642 Q168.102 790.234 173.241 790.234 Q178.403 790.234 181.343 792.642 Q184.283 795.049 184.283 799.193 Q184.283 802.156 182.593 804.216 Q180.926 806.276 177.94 807.017 Q181.32 807.804 183.195 810.095 Q185.093 812.387 185.093 815.697 Q185.093 820.72 182.014 823.405 Q178.959 826.091 173.241 826.091 Q167.524 826.091 164.445 823.405 Q161.39 820.72 161.39 815.697 Q161.39 812.387 163.288 810.095 Q165.186 807.804 168.565 807.017 M166.852 799.632 Q166.852 802.318 168.519 803.822 Q170.209 805.327 173.241 805.327 Q176.251 805.327 177.94 803.822 Q179.653 802.318 179.653 799.632 Q179.653 796.947 177.94 795.443 Q176.251 793.938 173.241 793.938 Q170.209 793.938 168.519 795.443 Q166.852 796.947 166.852 799.632 Z" fill="#000000" fill-rule="evenodd" fill-opacity="1" /><path clip-path="url(#clip600)" d="M193.45 790.859 L211.806 790.859 L211.806 794.794 L197.732 794.794 L197.732 803.267 Q198.75 802.919 199.769 802.757 Q200.787 802.572 201.806 802.572 Q207.593 802.572 210.973 805.743 Q214.352 808.915 214.352 814.331 Q214.352 819.91 210.88 823.012 Q207.408 826.091 201.088 826.091 Q198.912 826.091 196.644 825.72 Q194.399 825.35 191.991 824.609 L191.991 819.91 Q194.075 821.044 196.297 821.6 Q198.519 822.155 200.996 822.155 Q205 822.155 207.338 820.049 Q209.676 817.942 209.676 814.331 Q209.676 810.72 207.338 808.614 Q205 806.507 200.996 806.507 Q199.121 806.507 197.246 806.924 Q195.394 807.341 193.45 808.22 L193.45 790.859 Z" fill="#000000" fill-rule="evenodd" fill-opacity="1" /><path clip-path="url(#clip600)" d="M129.862 570.855 L118.056 589.304 L129.862 589.304 L129.862 570.855 M128.635 566.781 L134.515 566.781 L134.515 589.304 L139.445 589.304 L139.445 593.193 L134.515 593.193 L134.515 601.341 L129.862 601.341 L129.862 593.193 L114.26 593.193 L114.26 588.679 L128.635 566.781 Z" fill="#000000" fill-rule="evenodd" fill-opacity="1" /><path clip-path="url(#clip600)" d="M147.177 595.461 L152.061 595.461 L152.061 601.341 L147.177 601.341 L147.177 595.461 Z" fill="#000000" fill-rule="evenodd" fill-opacity="1" /><path clip-path="url(#clip600)" d="M162.385 600.623 L162.385 596.364 Q164.144 597.197 165.95 597.637 Q167.755 598.077 169.491 598.077 Q174.121 598.077 176.551 594.975 Q179.005 591.85 179.352 585.507 Q178.01 587.498 175.95 588.563 Q173.889 589.628 171.389 589.628 Q166.204 589.628 163.172 586.503 Q160.163 583.355 160.163 577.915 Q160.163 572.591 163.311 569.373 Q166.459 566.156 171.69 566.156 Q177.686 566.156 180.834 570.762 Q184.005 575.345 184.005 584.095 Q184.005 592.267 180.116 597.151 Q176.251 602.012 169.7 602.012 Q167.94 602.012 166.135 601.665 Q164.329 601.317 162.385 600.623 M171.69 585.97 Q174.839 585.97 176.667 583.818 Q178.519 581.665 178.519 577.915 Q178.519 574.188 176.667 572.035 Q174.839 569.859 171.69 569.859 Q168.542 569.859 166.69 572.035 Q164.862 574.188 164.862 577.915 Q164.862 581.665 166.69 583.818 Q168.542 585.97 171.69 585.97 Z" fill="#000000" fill-rule="evenodd" fill-opacity="1" /><path clip-path="url(#clip600)" d="M202.408 569.859 Q198.797 569.859 196.968 573.424 Q195.163 576.966 195.163 584.095 Q195.163 591.202 196.968 594.767 Q198.797 598.308 202.408 598.308 Q206.042 598.308 207.848 594.767 Q209.676 591.202 209.676 584.095 Q209.676 576.966 207.848 573.424 Q206.042 569.859 202.408 569.859 M202.408 566.156 Q208.218 566.156 211.274 570.762 Q214.352 575.345 214.352 584.095 Q214.352 592.822 211.274 597.429 Q208.218 602.012 202.408 602.012 Q196.598 602.012 193.519 597.429 Q190.463 592.822 190.463 584.095 Q190.463 575.345 193.519 570.762 Q196.598 566.156 202.408 566.156 Z" fill="#000000" fill-rule="evenodd" fill-opacity="1" /><path clip-path="url(#clip600)" d="M130.857 346.776 L119.052 365.225 L130.857 365.225 L130.857 346.776 M129.63 342.702 L135.51 342.702 L135.51 365.225 L140.441 365.225 L140.441 369.114 L135.51 369.114 L135.51 377.262 L130.857 377.262 L130.857 369.114 L115.256 369.114 L115.256 364.6 L129.63 342.702 Z" fill="#000000" fill-rule="evenodd" fill-opacity="1" /><path clip-path="url(#clip600)" d="M148.172 371.382 L153.056 371.382 L153.056 377.262 L148.172 377.262 L148.172 371.382 Z" fill="#000000" fill-rule="evenodd" fill-opacity="1" /><path clip-path="url(#clip600)" d="M163.38 376.544 L163.38 372.285 Q165.14 373.118 166.945 373.558 Q168.751 373.998 170.487 373.998 Q175.116 373.998 177.547 370.896 Q180.001 367.771 180.348 361.429 Q179.005 363.419 176.945 364.484 Q174.885 365.549 172.385 365.549 Q167.2 365.549 164.167 362.424 Q161.158 359.276 161.158 353.836 Q161.158 348.512 164.306 345.294 Q167.454 342.077 172.686 342.077 Q178.681 342.077 181.829 346.683 Q185.001 351.267 185.001 360.017 Q185.001 368.188 181.112 373.072 Q177.246 377.933 170.695 377.933 Q168.936 377.933 167.13 377.586 Q165.325 377.239 163.38 376.544 M172.686 361.892 Q175.834 361.892 177.663 359.739 Q179.514 357.586 179.514 353.836 Q179.514 350.109 177.663 347.957 Q175.834 345.781 172.686 345.781 Q169.538 345.781 167.686 347.957 Q165.857 350.109 165.857 353.836 Q165.857 357.586 167.686 359.739 Q169.538 361.892 172.686 361.892 Z" fill="#000000" fill-rule="evenodd" fill-opacity="1" /><path clip-path="url(#clip600)" d="M193.45 342.702 L211.806 342.702 L211.806 346.637 L197.732 346.637 L197.732 355.109 Q198.75 354.762 199.769 354.6 Q200.787 354.415 201.806 354.415 Q207.593 354.415 210.973 357.586 Q214.352 360.757 214.352 366.174 Q214.352 371.753 210.88 374.855 Q207.408 377.933 201.088 377.933 Q198.912 377.933 196.644 377.563 Q194.399 377.192 191.991 376.452 L191.991 371.753 Q194.075 372.887 196.297 373.442 Q198.519 373.998 200.996 373.998 Q205 373.998 207.338 371.892 Q209.676 369.785 209.676 366.174 Q209.676 362.563 207.338 360.456 Q205 358.35 200.996 358.35 Q199.121 358.35 197.246 358.767 Q195.394 359.183 193.45 360.063 L193.45 342.702 Z" fill="#000000" fill-rule="evenodd" fill-opacity="1" /><path clip-path="url(#clip600)" d="M117.061 118.623 L135.417 118.623 L135.417 122.558 L121.343 122.558 L121.343 131.031 Q122.362 130.683 123.38 130.521 Q124.399 130.336 125.418 130.336 Q131.205 130.336 134.584 133.507 Q137.964 136.679 137.964 142.095 Q137.964 147.674 134.492 150.776 Q131.019 153.855 124.7 153.855 Q122.524 153.855 120.255 153.484 Q118.01 153.114 115.603 152.373 L115.603 147.674 Q117.686 148.808 119.908 149.364 Q122.13 149.919 124.607 149.919 Q128.612 149.919 130.95 147.813 Q133.288 145.706 133.288 142.095 Q133.288 138.484 130.95 136.378 Q128.612 134.271 124.607 134.271 Q122.732 134.271 120.857 134.688 Q119.006 135.105 117.061 135.984 L117.061 118.623 Z" fill="#000000" fill-rule="evenodd" fill-opacity="1" /><path clip-path="url(#clip600)" d="M147.177 147.304 L152.061 147.304 L152.061 153.183 L147.177 153.183 L147.177 147.304 Z" fill="#000000" fill-rule="evenodd" fill-opacity="1" /><path clip-path="url(#clip600)" d="M172.246 121.702 Q168.635 121.702 166.806 125.267 Q165.001 128.808 165.001 135.938 Q165.001 143.044 166.806 146.609 Q168.635 150.151 172.246 150.151 Q175.88 150.151 177.686 146.609 Q179.514 143.044 179.514 135.938 Q179.514 128.808 177.686 125.267 Q175.88 121.702 172.246 121.702 M172.246 117.998 Q178.056 117.998 181.112 122.605 Q184.19 127.188 184.19 135.938 Q184.19 144.665 181.112 149.271 Q178.056 153.855 172.246 153.855 Q166.436 153.855 163.357 149.271 Q160.302 144.665 160.302 135.938 Q160.302 127.188 163.357 122.605 Q166.436 117.998 172.246 117.998 Z" fill="#000000" fill-rule="evenodd" fill-opacity="1" /><path clip-path="url(#clip600)" d="M202.408 121.702 Q198.797 121.702 196.968 125.267 Q195.163 128.808 195.163 135.938 Q195.163 143.044 196.968 146.609 Q198.797 150.151 202.408 150.151 Q206.042 150.151 207.848 146.609 Q209.676 143.044 209.676 135.938 Q209.676 128.808 207.848 125.267 Q206.042 121.702 202.408 121.702 M202.408 117.998 Q208.218 117.998 211.274 122.605 Q214.352 127.188 214.352 135.938 Q214.352 144.665 211.274 149.271 Q208.218 153.855 202.408 153.855 Q196.598 153.855 193.519 149.271 Q190.463 144.665 190.463 135.938 Q190.463 127.188 193.519 122.605 Q196.598 117.998 202.408 117.998 Z" fill="#000000" fill-rule="evenodd" fill-opacity="1" /><path clip-path="url(#clip600)" d="M35.1993 829.203 Q31.2526 827.007 29.3747 823.951 Q27.4968 820.896 27.4968 816.758 Q27.4968 811.188 31.4117 808.164 Q35.2948 805.141 42.4881 805.141 L64.0042 805.141 L64.0042 811.029 L42.679 811.029 Q37.5546 811.029 35.072 812.843 Q32.5894 814.657 32.5894 818.381 Q32.5894 822.933 35.6131 825.574 Q38.6368 828.216 43.8567 828.216 L64.0042 828.216 L64.0042 834.105 L42.679 834.105 Q37.5228 834.105 35.072 835.919 Q32.5894 837.733 32.5894 841.521 Q32.5894 846.008 35.6449 848.65 Q38.6686 851.292 43.8567 851.292 L64.0042 851.292 L64.0042 857.18 L28.3562 857.18 L28.3562 851.292 L33.8944 851.292 Q30.616 849.287 29.0564 846.486 Q27.4968 843.685 27.4968 839.834 Q27.4968 835.951 29.4702 833.245 Q31.4436 830.508 35.1993 829.203 Z" fill="#000000" fill-rule="evenodd" fill-opacity="1" /><path clip-path="url(#clip600)" d="M28.3562 793.459 L28.3562 787.603 L64.0042 787.603 L64.0042 793.459 L28.3562 793.459 M14.479 793.459 L14.479 787.603 L21.895 787.603 L21.895 793.459 L14.479 793.459 Z" fill="#000000" fill-rule="evenodd" fill-opacity="1" /><path clip-path="url(#clip600)" d="M42.4881 745.717 L64.0042 745.717 L64.0042 751.573 L42.679 751.573 Q37.6183 751.573 35.1038 753.547 Q32.5894 755.52 32.5894 759.467 Q32.5894 764.209 35.6131 766.946 Q38.6368 769.684 43.8567 769.684 L64.0042 769.684 L64.0042 775.572 L28.3562 775.572 L28.3562 769.684 L33.8944 769.684 Q30.6797 767.583 29.0883 764.75 Q27.4968 761.886 27.4968 758.162 Q27.4968 752.019 31.3163 748.868 Q35.1038 745.717 42.4881 745.717 Z" fill="#000000" fill-rule="evenodd" fill-opacity="1" /><path clip-path="url(#clip600)" d="M74.8259 706.95 L79.3773 706.95 L79.3773 740.815 L74.8259 740.815 L74.8259 706.95 Z" fill="#000000" fill-rule="evenodd" fill-opacity="1" /><path clip-path="url(#clip600)" d="M33.7671 677.986 L14.479 677.986 L14.479 672.129 L64.0042 672.129 L64.0042 677.986 L58.657 677.986 Q61.8398 679.832 63.3994 682.664 Q64.9272 685.465 64.9272 689.412 Q64.9272 695.873 59.771 699.947 Q54.6147 703.989 46.212 703.989 Q37.8093 703.989 32.6531 699.947 Q27.4968 695.873 27.4968 689.412 Q27.4968 685.465 29.0564 682.664 Q30.5842 679.832 33.7671 677.986 M46.212 697.942 Q52.6732 697.942 56.3653 695.3 Q60.0256 692.627 60.0256 687.98 Q60.0256 683.333 56.3653 680.659 Q52.6732 677.986 46.212 677.986 Q39.7508 677.986 36.0905 680.659 Q32.3984 683.333 32.3984 687.98 Q32.3984 692.627 36.0905 695.3 Q39.7508 697.942 46.212 697.942 Z" fill="#000000" fill-rule="evenodd" fill-opacity="1" /><path clip-path="url(#clip600)" d="M28.3562 660.066 L28.3562 654.21 L64.0042 654.21 L64.0042 660.066 L28.3562 660.066 M14.479 660.066 L14.479 654.21 L21.895 654.21 L21.895 660.066 L14.479 660.066 Z" fill="#000000" fill-rule="evenodd" fill-opacity="1" /><path clip-path="url(#clip600)" d="M14.479 623.909 L19.3487 623.909 L19.3487 629.511 Q19.3487 632.662 20.6219 633.903 Q21.895 635.113 25.2052 635.113 L28.3562 635.113 L28.3562 625.468 L32.9077 625.468 L32.9077 635.113 L64.0042 635.113 L64.0042 641.001 L32.9077 641.001 L32.9077 646.603 L28.3562 646.603 L28.3562 641.001 L25.8736 641.001 Q19.9216 641.001 17.2162 638.232 Q14.479 635.463 14.479 629.447 L14.479 623.909 Z" fill="#000000" fill-rule="evenodd" fill-opacity="1" /><path clip-path="url(#clip600)" d="M14.479 600.961 L19.3487 600.961 L19.3487 606.562 Q19.3487 609.713 20.6219 610.955 Q21.895 612.164 25.2052 612.164 L28.3562 612.164 L28.3562 602.52 L32.9077 602.52 L32.9077 612.164 L64.0042 612.164 L64.0042 618.052 L32.9077 618.052 L32.9077 623.654 L28.3562 623.654 L28.3562 618.052 L25.8736 618.052 Q19.9216 618.052 17.2162 615.283 Q14.479 612.514 14.479 606.499 L14.479 600.961 Z" fill="#000000" fill-rule="evenodd" fill-opacity="1" /><polyline clip-path="url(#clip602)" style="stroke:#009af9; stroke-linecap:butt; stroke-linejoin:round; stroke-width:20; stroke-opacity:1; fill:none" stroke-dasharray="80, 50" points="
  309.854,1372.3 1301.55,85.838 2293.25,1368.95 
  "/>
<path clip-path="url(#clip600)" d="
M1996.65 196.379 L2282.68 196.379 L2282.68 92.6992 L1996.65 92.6992  Z
  " fill="#ffffff" fill-rule="evenodd" fill-opacity="1"/>
<polyline clip-path="url(#clip600)" style="stroke:#000000; stroke-linecap:butt; stroke-linejoin:round; stroke-width:4; stroke-opacity:1; fill:none" points="
  1996.65,196.379 2282.68,196.379 2282.68,92.6992 1996.65,92.6992 1996.65,196.379 
  "/>
<polyline clip-path="url(#clip600)" style="stroke:#009af9; stroke-linecap:butt; stroke-linejoin:round; stroke-width:4; stroke-opacity:1; fill:none" stroke-dasharray="16, 10" points="
  2020.01,144.539 2160.17,144.539 
  "/>
<path clip-path="url(#clip600)" d="M2197.37 164.227 Q2195.56 168.856 2193.85 170.268 Q2192.14 171.68 2189.27 171.68 L2185.86 171.68 L2185.86 168.115 L2188.36 168.115 Q2190.12 168.115 2191.09 167.282 Q2192.07 166.449 2193.25 163.347 L2194.01 161.403 L2183.53 135.893 L2188.04 135.893 L2196.14 156.171 L2204.24 135.893 L2208.76 135.893 L2197.37 164.227 Z" fill="#000000" fill-rule="evenodd" fill-opacity="1" /><path clip-path="url(#clip600)" d="M2216.05 157.884 L2223.69 157.884 L2223.69 131.518 L2215.38 133.185 L2215.38 128.926 L2223.64 127.259 L2228.32 127.259 L2228.32 157.884 L2235.96 157.884 L2235.96 161.819 L2216.05 161.819 L2216.05 157.884 Z" fill="#000000" fill-rule="evenodd" fill-opacity="1" /></svg>
