<?xml version="1.0" encoding="utf-8"?>
<svg xmlns="http://www.w3.org/2000/svg" xmlns:xlink="http://www.w3.org/1999/xlink" width="600" height="400" viewBox="0 0 2400 1600">
<defs>
  <clipPath id="clip330">
    <rect x="0" y="0" width="2400" height="1600"/>
  </clipPath>
</defs>
<path clip-path="url(#clip330)" d="
M0 1600 L2400 1600 L2400 0 L0 0  Z
  " fill="#ffffff" fill-rule="evenodd" fill-opacity="1"/>
<defs>
  <clipPath id="clip331">
    <rect x="480" y="0" width="1681" height="1600"/>
  </clipPath>
</defs>
<path clip-path="url(#clip330)" d="
M211.579 1410.9 L2352.76 1410.9 L2352.76 47.2441 L211.579 47.2441  Z
  " fill="#ffffff" fill-rule="evenodd" fill-opacity="1"/>
<defs>
  <clipPath id="clip332">
    <rect x="211" y="47" width="2142" height="1365"/>
  </clipPath>
</defs>
<polyline clip-path="url(#clip332)" style="stroke:#000000; stroke-width:2; stroke-opacity:0.1; fill:none" points="
  272.179,1410.9 272.179,47.2441 
  "/>
<polyline clip-path="url(#clip332)" style="stroke:#000000; stroke-width:2; stroke-opacity:0.1; fill:none" points="
  676.174,1410.9 676.174,47.2441 
  "/>
<polyline clip-path="url(#clip332)" style="stroke:#000000; stroke-width:2; stroke-opacity:0.1; fill:none" points="
  1080.17,1410.9 1080.17,47.2441 
  "/>
<polyline clip-path="url(#clip332)" style="stroke:#000000; stroke-width:2; stroke-opacity:0.1; fill:none" points="
  1484.16,1410.9 1484.16,47.2441 
  "/>
<polyline clip-path="url(#clip332)" style="stroke:#000000; stroke-width:2; stroke-opacity:0.1; fill:none" points="
  1888.16,1410.9 1888.16,47.2441 
  "/>
<polyline clip-path="url(#clip332)" style="stroke:#000000; stroke-width:2; stroke-opacity:0.1; fill:none" points="
  2292.15,1410.9 2292.15,47.2441 
  "/>
<polyline clip-path="url(#clip330)" style="stroke:#000000; stroke-width:4; stroke-opacity:1; fill:none" points="
  211.579,1410.9 2352.76,1410.9 
  "/>
<polyline clip-path="url(#clip330)" style="stroke:#000000; stroke-width:4; stroke-opacity:1; fill:none" points="
  272.179,1410.9 272.179,1394.53 
  "/>
<polyline clip-path="url(#clip330)" style="stroke:#000000; stroke-width:4; stroke-opacity:1; fill:none" points="
  676.174,1410.9 676.174,1394.53 
  "/>
<polyline clip-path="url(#clip330)" style="stroke:#000000; stroke-width:4; stroke-opacity:1; fill:none" points="
  1080.17,1410.9 1080.17,1394.53 
  "/>
<polyline clip-path="url(#clip330)" style="stroke:#000000; stroke-width:4; stroke-opacity:1; fill:none" points="
  1484.16,1410.9 1484.16,1394.53 
  "/>
<polyline clip-path="url(#clip330)" style="stroke:#000000; stroke-width:4; stroke-opacity:1; fill:none" points="
  1888.16,1410.9 1888.16,1394.53 
  "/>
<polyline clip-path="url(#clip330)" style="stroke:#000000; stroke-width:4; stroke-opacity:1; fill:none" points="
  2292.15,1410.9 2292.15,1394.53 
  "/>
<path clip-path="url(#clip330)" d="M 0 0 M226.428 1489.17 L234.067 1489.17 L234.067 1462.8 L225.757 1464.47 L225.757 1460.21 L234.021 1458.54 L238.696 1458.54 L238.696 1489.17 L246.335 1489.17 L246.335 1493.1 L226.428 1493.1 L226.428 1489.17 Z" fill="#000000" fill-rule="evenodd" fill-opacity="1" /><path clip-path="url(#clip330)" d="M 0 0 M261.405 1461.62 Q257.794 1461.62 255.965 1465.19 Q254.159 1468.73 254.159 1475.86 Q254.159 1482.97 255.965 1486.53 Q257.794 1490.07 261.405 1490.07 Q265.039 1490.07 266.844 1486.53 Q268.673 1482.97 268.673 1475.86 Q268.673 1468.73 266.844 1465.19 Q265.039 1461.62 261.405 1461.62 M261.405 1457.92 Q267.215 1457.92 270.27 1462.53 Q273.349 1467.11 273.349 1475.86 Q273.349 1484.59 270.27 1489.19 Q267.215 1493.78 261.405 1493.78 Q255.594 1493.78 252.516 1489.19 Q249.46 1484.59 249.46 1475.86 Q249.46 1467.11 252.516 1462.53 Q255.594 1457.92 261.405 1457.92 Z" fill="#000000" fill-rule="evenodd" fill-opacity="1" /><path clip-path="url(#clip330)" d="M 0 0 M273.349 1452.02 L297.461 1452.02 L297.461 1455.22 L273.349 1455.22 L273.349 1452.02 Z" fill="#000000" fill-rule="evenodd" fill-opacity="1" /><path clip-path="url(#clip330)" d="M 0 0 M301.617 1437.61 L316.532 1437.61 L316.532 1440.81 L305.097 1440.81 L305.097 1447.69 Q305.924 1447.41 306.752 1447.28 Q307.579 1447.13 308.407 1447.13 Q313.109 1447.13 315.855 1449.71 Q318.601 1452.28 318.601 1456.68 Q318.601 1461.22 315.779 1463.74 Q312.958 1466.24 307.824 1466.24 Q306.056 1466.24 304.213 1465.94 Q302.388 1465.64 300.432 1465.04 L300.432 1461.22 Q302.125 1462.14 303.93 1462.59 Q305.736 1463.04 307.748 1463.04 Q311.002 1463.04 312.902 1461.33 Q314.801 1459.62 314.801 1456.68 Q314.801 1453.75 312.902 1452.04 Q311.002 1450.33 307.748 1450.33 Q306.225 1450.33 304.702 1450.67 Q303.197 1451 301.617 1451.72 L301.617 1437.61 Z" fill="#000000" fill-rule="evenodd" fill-opacity="1" /><path clip-path="url(#clip330)" d="M 0 0 M629.821 1489.17 L637.46 1489.17 L637.46 1462.8 L629.15 1464.47 L629.15 1460.21 L637.414 1458.54 L642.09 1458.54 L642.09 1489.17 L649.729 1489.17 L649.729 1493.1 L629.821 1493.1 L629.821 1489.17 Z" fill="#000000" fill-rule="evenodd" fill-opacity="1" /><path clip-path="url(#clip330)" d="M 0 0 M664.798 1461.62 Q661.187 1461.62 659.358 1465.19 Q657.553 1468.73 657.553 1475.86 Q657.553 1482.97 659.358 1486.53 Q661.187 1490.07 664.798 1490.07 Q668.432 1490.07 670.238 1486.53 Q672.067 1482.97 672.067 1475.86 Q672.067 1468.73 670.238 1465.19 Q668.432 1461.62 664.798 1461.62 M664.798 1457.92 Q670.608 1457.92 673.664 1462.53 Q676.742 1467.11 676.742 1475.86 Q676.742 1484.59 673.664 1489.19 Q670.608 1493.78 664.798 1493.78 Q658.988 1493.78 655.909 1489.19 Q652.854 1484.59 652.854 1475.86 Q652.854 1467.11 655.909 1462.53 Q658.988 1457.92 664.798 1457.92 Z" fill="#000000" fill-rule="evenodd" fill-opacity="1" /><path clip-path="url(#clip330)" d="M 0 0 M676.742 1452.02 L700.854 1452.02 L700.854 1455.22 L676.742 1455.22 L676.742 1452.02 Z" fill="#000000" fill-rule="evenodd" fill-opacity="1" /><path clip-path="url(#clip330)" d="M 0 0 M715.411 1440.92 L705.819 1455.91 L715.411 1455.91 L715.411 1440.92 M714.414 1437.61 L719.192 1437.61 L719.192 1455.91 L723.198 1455.91 L723.198 1459.07 L719.192 1459.07 L719.192 1465.69 L715.411 1465.69 L715.411 1459.07 L702.735 1459.07 L702.735 1455.41 L714.414 1437.61 Z" fill="#000000" fill-rule="evenodd" fill-opacity="1" /><path clip-path="url(#clip330)" d="M 0 0 M1034.28 1489.17 L1041.92 1489.17 L1041.92 1462.8 L1033.61 1464.47 L1033.61 1460.21 L1041.87 1458.54 L1046.55 1458.54 L1046.55 1489.17 L1054.18 1489.17 L1054.18 1493.1 L1034.28 1493.1 L1034.28 1489.17 Z" fill="#000000" fill-rule="evenodd" fill-opacity="1" /><path clip-path="url(#clip330)" d="M 0 0 M1069.25 1461.62 Q1065.64 1461.62 1063.81 1465.19 Q1062.01 1468.73 1062.01 1475.86 Q1062.01 1482.97 1063.81 1486.53 Q1065.64 1490.07 1069.25 1490.07 Q1072.89 1490.07 1074.69 1486.53 Q1076.52 1482.97 1076.52 1475.86 Q1076.52 1468.73 1074.69 1465.19 Q1072.89 1461.62 1069.25 1461.62 M1069.25 1457.92 Q1075.06 1457.92 1078.12 1462.53 Q1081.2 1467.11 1081.2 1475.86 Q1081.2 1484.59 1078.12 1489.19 Q1075.06 1493.78 1069.25 1493.78 Q1063.44 1493.78 1060.37 1489.19 Q1057.31 1484.59 1057.31 1475.86 Q1057.31 1467.11 1060.37 1462.53 Q1063.44 1457.92 1069.25 1457.92 Z" fill="#000000" fill-rule="evenodd" fill-opacity="1" /><path clip-path="url(#clip330)" d="M 0 0 M1081.2 1452.02 L1105.31 1452.02 L1105.31 1455.22 L1081.2 1455.22 L1081.2 1452.02 Z" fill="#000000" fill-rule="evenodd" fill-opacity="1" /><path clip-path="url(#clip330)" d="M 0 0 M1120.94 1450.55 Q1123.67 1451.14 1125.19 1452.98 Q1126.73 1454.82 1126.73 1457.53 Q1126.73 1461.69 1123.87 1463.96 Q1121.01 1466.24 1115.75 1466.24 Q1113.98 1466.24 1112.1 1465.88 Q1110.24 1465.54 1108.24 1464.85 L1108.24 1461.18 Q1109.82 1462.1 1111.7 1462.57 Q1113.59 1463.04 1115.64 1463.04 Q1119.21 1463.04 1121.07 1461.63 Q1122.95 1460.22 1122.95 1457.53 Q1122.95 1455.05 1121.2 1453.66 Q1119.47 1452.25 1116.37 1452.25 L1113.1 1452.25 L1113.1 1449.12 L1116.52 1449.12 Q1119.32 1449.12 1120.81 1448.01 Q1122.29 1446.89 1122.29 1444.78 Q1122.29 1442.62 1120.75 1441.47 Q1119.23 1440.3 1116.37 1440.3 Q1114.81 1440.3 1113.02 1440.64 Q1111.23 1440.98 1109.09 1441.69 L1109.09 1438.31 Q1111.25 1437.71 1113.13 1437.41 Q1115.03 1437.11 1116.71 1437.11 Q1121.03 1437.11 1123.55 1439.08 Q1126.07 1441.04 1126.07 1444.38 Q1126.07 1446.72 1124.74 1448.33 Q1123.4 1449.93 1120.94 1450.55 Z" fill="#000000" fill-rule="evenodd" fill-opacity="1" /><path clip-path="url(#clip330)" d="M 0 0 M1438.66 1489.17 L1446.3 1489.17 L1446.3 1462.8 L1437.99 1464.47 L1437.99 1460.21 L1446.25 1458.54 L1450.93 1458.54 L1450.93 1489.17 L1458.57 1489.17 L1458.57 1493.1 L1438.66 1493.1 L1438.66 1489.17 Z" fill="#000000" fill-rule="evenodd" fill-opacity="1" /><path clip-path="url(#clip330)" d="M 0 0 M1473.63 1461.62 Q1470.02 1461.62 1468.2 1465.19 Q1466.39 1468.73 1466.39 1475.86 Q1466.39 1482.97 1468.2 1486.53 Q1470.02 1490.07 1473.63 1490.07 Q1477.27 1490.07 1479.07 1486.53 Q1480.9 1482.97 1480.9 1475.86 Q1480.9 1468.73 1479.07 1465.19 Q1477.27 1461.62 1473.63 1461.62 M1473.63 1457.92 Q1479.45 1457.92 1482.5 1462.53 Q1485.58 1467.11 1485.58 1475.86 Q1485.58 1484.59 1482.5 1489.19 Q1479.45 1493.78 1473.63 1493.78 Q1467.82 1493.78 1464.75 1489.19 Q1461.69 1484.59 1461.69 1475.86 Q1461.69 1467.11 1464.75 1462.53 Q1467.82 1457.92 1473.63 1457.92 Z" fill="#000000" fill-rule="evenodd" fill-opacity="1" /><path clip-path="url(#clip330)" d="M 0 0 M1485.58 1452.02 L1509.69 1452.02 L1509.69 1455.22 L1485.58 1455.22 L1485.58 1452.02 Z" fill="#000000" fill-rule="evenodd" fill-opacity="1" /><path clip-path="url(#clip330)" d="M 0 0 M1517.08 1462.5 L1530.34 1462.5 L1530.34 1465.69 L1512.51 1465.69 L1512.51 1462.5 Q1514.67 1460.26 1518.4 1456.5 Q1522.14 1452.72 1523.1 1451.63 Q1524.93 1449.58 1525.64 1448.16 Q1526.37 1446.74 1526.37 1445.36 Q1526.37 1443.12 1524.79 1441.71 Q1523.23 1440.3 1520.71 1440.3 Q1518.93 1440.3 1516.93 1440.92 Q1514.96 1441.54 1512.7 1442.8 L1512.7 1438.97 Q1514.99 1438.05 1516.99 1437.58 Q1518.98 1437.11 1520.64 1437.11 Q1525 1437.11 1527.6 1439.29 Q1530.19 1441.47 1530.19 1445.12 Q1530.19 1446.85 1529.53 1448.41 Q1528.89 1449.95 1527.18 1452.06 Q1526.71 1452.6 1524.19 1455.22 Q1521.67 1457.81 1517.08 1462.5 Z" fill="#000000" fill-rule="evenodd" fill-opacity="1" /><path clip-path="url(#clip330)" d="M 0 0 M1842.5 1489.17 L1850.14 1489.17 L1850.14 1462.8 L1841.83 1464.47 L1841.83 1460.21 L1850.1 1458.54 L1854.77 1458.54 L1854.77 1489.17 L1862.41 1489.17 L1862.41 1493.1 L1842.5 1493.1 L1842.5 1489.17 Z" fill="#000000" fill-rule="evenodd" fill-opacity="1" /><path clip-path="url(#clip330)" d="M 0 0 M1877.48 1461.62 Q1873.87 1461.62 1872.04 1465.19 Q1870.23 1468.73 1870.23 1475.86 Q1870.23 1482.97 1872.04 1486.53 Q1873.87 1490.07 1877.48 1490.07 Q1881.11 1490.07 1882.92 1486.53 Q1884.75 1482.97 1884.75 1475.86 Q1884.75 1468.73 1882.92 1465.19 Q1881.11 1461.62 1877.48 1461.62 M1877.48 1457.92 Q1883.29 1457.92 1886.35 1462.53 Q1889.42 1467.11 1889.42 1475.86 Q1889.42 1484.59 1886.35 1489.19 Q1883.29 1493.78 1877.48 1493.78 Q1871.67 1493.78 1868.59 1489.19 Q1865.54 1484.59 1865.54 1475.86 Q1865.54 1467.11 1868.59 1462.53 Q1871.67 1457.92 1877.48 1457.92 Z" fill="#000000" fill-rule="evenodd" fill-opacity="1" /><path clip-path="url(#clip330)" d="M 0 0 M1889.42 1452.02 L1913.54 1452.02 L1913.54 1455.22 L1889.42 1455.22 L1889.42 1452.02 Z" fill="#000000" fill-rule="evenodd" fill-opacity="1" /><path clip-path="url(#clip330)" d="M 0 0 M1918.31 1462.5 L1924.52 1462.5 L1924.52 1441.07 L1917.77 1442.43 L1917.77 1438.97 L1924.48 1437.61 L1928.28 1437.61 L1928.28 1462.5 L1934.49 1462.5 L1934.49 1465.69 L1918.31 1465.69 L1918.31 1462.5 Z" fill="#000000" fill-rule="evenodd" fill-opacity="1" /><path clip-path="url(#clip330)" d="M 0 0 M2259.33 1489.17 L2266.96 1489.17 L2266.96 1462.8 L2258.65 1464.47 L2258.65 1460.21 L2266.92 1458.54 L2271.59 1458.54 L2271.59 1489.17 L2279.23 1489.17 L2279.23 1493.1 L2259.33 1493.1 L2259.33 1489.17 Z" fill="#000000" fill-rule="evenodd" fill-opacity="1" /><path clip-path="url(#clip330)" d="M 0 0 M2294.3 1461.62 Q2290.69 1461.62 2288.86 1465.19 Q2287.06 1468.73 2287.06 1475.86 Q2287.06 1482.97 2288.86 1486.53 Q2290.69 1490.07 2294.3 1490.07 Q2297.94 1490.07 2299.74 1486.53 Q2301.57 1482.97 2301.57 1475.86 Q2301.57 1468.73 2299.74 1465.19 Q2297.94 1461.62 2294.3 1461.62 M2294.3 1457.92 Q2300.11 1457.92 2303.17 1462.53 Q2306.25 1467.11 2306.25 1475.86 Q2306.25 1484.59 2303.17 1489.19 Q2300.11 1493.78 2294.3 1493.78 Q2288.49 1493.78 2285.41 1489.19 Q2282.36 1484.59 2282.36 1475.86 Q2282.36 1467.11 2285.41 1462.53 Q2288.49 1457.92 2294.3 1457.92 Z" fill="#000000" fill-rule="evenodd" fill-opacity="1" /><path clip-path="url(#clip330)" d="M 0 0 M2315.95 1440.11 Q2313.02 1440.11 2311.53 1443.01 Q2310.06 1445.89 2310.06 1451.68 Q2310.06 1457.46 2311.53 1460.35 Q2313.02 1463.23 2315.95 1463.23 Q2318.9 1463.23 2320.37 1460.35 Q2321.86 1457.46 2321.86 1451.68 Q2321.86 1445.89 2320.37 1443.01 Q2318.9 1440.11 2315.95 1440.11 M2315.95 1437.11 Q2320.67 1437.11 2323.15 1440.85 Q2325.66 1444.57 2325.66 1451.68 Q2325.66 1458.77 2323.15 1462.51 Q2320.67 1466.24 2315.95 1466.24 Q2311.23 1466.24 2308.73 1462.51 Q2306.25 1458.77 2306.25 1451.68 Q2306.25 1444.57 2308.73 1440.85 Q2311.23 1437.11 2315.95 1437.11 Z" fill="#000000" fill-rule="evenodd" fill-opacity="1" /><path clip-path="url(#clip330)" d="M 0 0 M1174.94 1526.54 L1181.14 1526.54 L1192.28 1556.46 L1203.42 1526.54 L1209.63 1526.54 L1196.26 1562.19 L1188.31 1562.19 L1174.94 1526.54 Z" fill="#000000" fill-rule="evenodd" fill-opacity="1" /><path clip-path="url(#clip330)" d="M 0 0 M1242.86 1573.01 L1242.86 1577.56 L1208.99 1577.56 L1208.99 1573.01 L1242.86 1573.01 Z" fill="#000000" fill-rule="evenodd" fill-opacity="1" /><path clip-path="url(#clip330)" d="M 0 0 M1262.82 1530.64 Q1258.11 1530.64 1255.37 1534.34 Q1252.63 1538 1252.63 1544.39 Q1252.63 1550.79 1255.34 1554.48 Q1258.07 1558.14 1262.82 1558.14 Q1267.49 1558.14 1270.23 1554.45 Q1272.97 1550.76 1272.97 1544.39 Q1272.97 1538.06 1270.23 1534.37 Q1267.49 1530.64 1262.82 1530.64 M1262.82 1525.68 Q1270.45 1525.68 1274.82 1530.64 Q1279.18 1535.61 1279.18 1544.39 Q1279.18 1553.15 1274.82 1558.14 Q1270.45 1563.11 1262.82 1563.11 Q1255.15 1563.11 1250.78 1558.14 Q1246.46 1553.15 1246.46 1544.39 Q1246.46 1535.61 1250.78 1530.64 Q1255.15 1525.68 1262.82 1525.68 Z" fill="#000000" fill-rule="evenodd" fill-opacity="1" /><path clip-path="url(#clip330)" d="M 0 0 M1290.98 1556.84 L1290.98 1575.74 L1285.1 1575.74 L1285.1 1526.54 L1290.98 1526.54 L1290.98 1531.95 Q1292.83 1528.77 1295.63 1527.24 Q1298.46 1525.68 1302.38 1525.68 Q1308.87 1525.68 1312.91 1530.83 Q1316.99 1535.99 1316.99 1544.39 Q1316.99 1552.8 1312.91 1557.95 Q1308.87 1563.11 1302.38 1563.11 Q1298.46 1563.11 1295.63 1561.58 Q1292.83 1560.02 1290.98 1556.84 M1310.91 1544.39 Q1310.91 1537.93 1308.24 1534.27 Q1305.59 1530.58 1300.95 1530.58 Q1296.3 1530.58 1293.63 1534.27 Q1290.98 1537.93 1290.98 1544.39 Q1290.98 1550.85 1293.63 1554.55 Q1296.3 1558.21 1300.95 1558.21 Q1305.59 1558.21 1308.24 1554.55 Q1310.91 1550.85 1310.91 1544.39 Z" fill="#000000" fill-rule="evenodd" fill-opacity="1" /><path clip-path="url(#clip330)" d="M 0 0 M1353.62 1542.9 L1353.62 1545.76 L1326.7 1545.76 Q1327.08 1551.81 1330.32 1554.99 Q1333.6 1558.14 1339.43 1558.14 Q1342.8 1558.14 1345.95 1557.32 Q1349.13 1556.49 1352.25 1554.83 L1352.25 1560.37 Q1349.1 1561.71 1345.79 1562.41 Q1342.48 1563.11 1339.08 1563.11 Q1330.55 1563.11 1325.55 1558.14 Q1320.58 1553.18 1320.58 1544.71 Q1320.58 1535.96 1325.3 1530.83 Q1330.04 1525.68 1338.06 1525.68 Q1345.25 1525.68 1349.42 1530.33 Q1353.62 1534.94 1353.62 1542.9 M1347.77 1541.18 Q1347.7 1536.37 1345.06 1533.51 Q1342.45 1530.64 1338.12 1530.64 Q1333.22 1530.64 1330.26 1533.41 Q1327.33 1536.18 1326.89 1541.21 L1347.77 1541.18 Z" fill="#000000" fill-rule="evenodd" fill-opacity="1" /><path clip-path="url(#clip330)" d="M 0 0 M1389.4 1540.67 L1389.4 1562.19 L1383.54 1562.19 L1383.54 1540.86 Q1383.54 1535.8 1381.57 1533.29 Q1379.59 1530.77 1375.65 1530.77 Q1370.91 1530.77 1368.17 1533.79 Q1365.43 1536.82 1365.43 1542.04 L1365.43 1562.19 L1359.54 1562.19 L1359.54 1526.54 L1365.43 1526.54 L1365.43 1532.08 Q1367.53 1528.86 1370.36 1527.27 Q1373.23 1525.68 1376.95 1525.68 Q1383.1 1525.68 1386.25 1529.5 Q1389.4 1533.29 1389.4 1540.67 Z" fill="#000000" fill-rule="evenodd" fill-opacity="1" /><polyline clip-path="url(#clip332)" style="stroke:#000000; stroke-width:2; stroke-opacity:0.1; fill:none" points="
  211.579,1210.6 2352.76,1210.6 
  "/>
<polyline clip-path="url(#clip332)" style="stroke:#000000; stroke-width:2; stroke-opacity:0.1; fill:none" points="
  211.579,953.303 2352.76,953.303 
  "/>
<polyline clip-path="url(#clip332)" style="stroke:#000000; stroke-width:2; stroke-opacity:0.1; fill:none" points="
  211.579,696.01 2352.76,696.01 
  "/>
<polyline clip-path="url(#clip332)" style="stroke:#000000; stroke-width:2; stroke-opacity:0.1; fill:none" points="
  211.579,438.717 2352.76,438.717 
  "/>
<polyline clip-path="url(#clip332)" style="stroke:#000000; stroke-width:2; stroke-opacity:0.1; fill:none" points="
  211.579,181.424 2352.76,181.424 
  "/>
<polyline clip-path="url(#clip330)" style="stroke:#000000; stroke-width:4; stroke-opacity:1; fill:none" points="
  211.579,1410.9 211.579,47.2441 
  "/>
<polyline clip-path="url(#clip330)" style="stroke:#000000; stroke-width:4; stroke-opacity:1; fill:none" points="
  211.579,1210.6 237.273,1210.6 
  "/>
<polyline clip-path="url(#clip330)" style="stroke:#000000; stroke-width:4; stroke-opacity:1; fill:none" points="
  211.579,953.303 237.273,953.303 
  "/>
<polyline clip-path="url(#clip330)" style="stroke:#000000; stroke-width:4; stroke-opacity:1; fill:none" points="
  211.579,696.01 237.273,696.01 
  "/>
<polyline clip-path="url(#clip330)" style="stroke:#000000; stroke-width:4; stroke-opacity:1; fill:none" points="
  211.579,438.717 237.273,438.717 
  "/>
<polyline clip-path="url(#clip330)" style="stroke:#000000; stroke-width:4; stroke-opacity:1; fill:none" points="
  211.579,181.424 237.273,181.424 
  "/>
<path clip-path="url(#clip330)" d="M 0 0 M126.598 1208.73 Q123.45 1208.73 121.598 1210.88 Q119.769 1213.04 119.769 1216.79 Q119.769 1220.51 121.598 1222.69 Q123.45 1224.84 126.598 1224.84 Q129.746 1224.84 131.575 1222.69 Q133.427 1220.51 133.427 1216.79 Q133.427 1213.04 131.575 1210.88 Q129.746 1208.73 126.598 1208.73 M135.88 1194.08 L135.88 1198.34 Q134.121 1197.51 132.316 1197.07 Q130.533 1196.63 128.774 1196.63 Q124.144 1196.63 121.691 1199.75 Q119.26 1202.88 118.913 1209.19 Q120.279 1207.18 122.339 1206.12 Q124.399 1205.03 126.876 1205.03 Q132.084 1205.03 135.093 1208.2 Q138.126 1211.35 138.126 1216.79 Q138.126 1222.11 134.978 1225.33 Q131.83 1228.55 126.598 1228.55 Q120.603 1228.55 117.431 1223.96 Q114.26 1219.36 114.26 1210.63 Q114.26 1202.44 118.149 1197.57 Q122.038 1192.69 128.589 1192.69 Q130.348 1192.69 132.13 1193.04 Q133.936 1193.38 135.88 1194.08 Z" fill="#000000" fill-rule="evenodd" fill-opacity="1" /><path clip-path="url(#clip330)" d="M 0 0 M143.195 1222 L148.079 1222 L148.079 1227.88 L143.195 1227.88 L143.195 1222 Z" fill="#000000" fill-rule="evenodd" fill-opacity="1" /><path clip-path="url(#clip330)" d="M 0 0 M165.996 1197.39 L154.19 1215.84 L165.996 1215.84 L165.996 1197.39 M164.769 1193.32 L170.649 1193.32 L170.649 1215.84 L175.579 1215.84 L175.579 1219.73 L170.649 1219.73 L170.649 1227.88 L165.996 1227.88 L165.996 1219.73 L150.394 1219.73 L150.394 1215.21 L164.769 1193.32 Z" fill="#000000" fill-rule="evenodd" fill-opacity="1" /><path clip-path="url(#clip330)" d="M 0 0 M126.922 951.439 Q123.774 951.439 121.922 953.592 Q120.093 955.745 120.093 959.495 Q120.093 963.221 121.922 965.397 Q123.774 967.55 126.922 967.55 Q130.07 967.55 131.899 965.397 Q133.751 963.221 133.751 959.495 Q133.751 955.745 131.899 953.592 Q130.07 951.439 126.922 951.439 M136.204 936.786 L136.204 941.046 Q134.445 940.212 132.64 939.772 Q130.857 939.333 129.098 939.333 Q124.468 939.333 122.015 942.458 Q119.584 945.583 119.237 951.902 Q120.603 949.888 122.663 948.823 Q124.723 947.735 127.2 947.735 Q132.408 947.735 135.417 950.907 Q138.45 954.055 138.45 959.495 Q138.45 964.819 135.302 968.036 Q132.154 971.254 126.922 971.254 Q120.927 971.254 117.756 966.67 Q114.584 962.064 114.584 953.337 Q114.584 945.143 118.473 940.282 Q122.362 935.398 128.913 935.398 Q130.672 935.398 132.455 935.745 Q134.26 936.092 136.204 936.786 Z" fill="#000000" fill-rule="evenodd" fill-opacity="1" /><path clip-path="url(#clip330)" d="M 0 0 M143.519 964.703 L148.403 964.703 L148.403 970.583 L143.519 970.583 L143.519 964.703 Z" fill="#000000" fill-rule="evenodd" fill-opacity="1" /><path clip-path="url(#clip330)" d="M 0 0 M164.052 951.439 Q160.903 951.439 159.052 953.592 Q157.223 955.745 157.223 959.495 Q157.223 963.221 159.052 965.397 Q160.903 967.55 164.052 967.55 Q167.2 967.55 169.028 965.397 Q170.88 963.221 170.88 959.495 Q170.88 955.745 169.028 953.592 Q167.2 951.439 164.052 951.439 M173.334 936.786 L173.334 941.046 Q171.575 940.212 169.769 939.772 Q167.987 939.333 166.227 939.333 Q161.598 939.333 159.144 942.458 Q156.714 945.583 156.366 951.902 Q157.732 949.888 159.792 948.823 Q161.852 947.735 164.329 947.735 Q169.538 947.735 172.547 950.907 Q175.579 954.055 175.579 959.495 Q175.579 964.819 172.431 968.036 Q169.283 971.254 164.052 971.254 Q158.056 971.254 154.885 966.67 Q151.714 962.064 151.714 953.337 Q151.714 945.143 155.603 940.282 Q159.491 935.398 166.042 935.398 Q167.802 935.398 169.584 935.745 Q171.389 936.092 173.334 936.786 Z" fill="#000000" fill-rule="evenodd" fill-opacity="1" /><path clip-path="url(#clip330)" d="M 0 0 M127.177 694.146 Q124.029 694.146 122.177 696.299 Q120.348 698.452 120.348 702.202 Q120.348 705.929 122.177 708.104 Q124.029 710.257 127.177 710.257 Q130.325 710.257 132.154 708.104 Q134.005 705.929 134.005 702.202 Q134.005 698.452 132.154 696.299 Q130.325 694.146 127.177 694.146 M136.459 679.493 L136.459 683.753 Q134.7 682.919 132.894 682.48 Q131.112 682.04 129.353 682.04 Q124.723 682.04 122.269 685.165 Q119.839 688.29 119.492 694.609 Q120.857 692.595 122.918 691.53 Q124.978 690.442 127.455 690.442 Q132.663 690.442 135.672 693.614 Q138.704 696.762 138.704 702.202 Q138.704 707.526 135.556 710.743 Q132.408 713.961 127.177 713.961 Q121.181 713.961 118.01 709.378 Q114.839 704.771 114.839 696.044 Q114.839 687.85 118.728 682.989 Q122.617 678.105 129.167 678.105 Q130.927 678.105 132.709 678.452 Q134.515 678.799 136.459 679.493 Z" fill="#000000" fill-rule="evenodd" fill-opacity="1" /><path clip-path="url(#clip330)" d="M 0 0 M143.774 707.41 L148.658 707.41 L148.658 713.29 L143.774 713.29 L143.774 707.41 Z" fill="#000000" fill-rule="evenodd" fill-opacity="1" /><path clip-path="url(#clip330)" d="M 0 0 M163.727 696.878 Q160.394 696.878 158.473 698.66 Q156.575 700.442 156.575 703.567 Q156.575 706.692 158.473 708.475 Q160.394 710.257 163.727 710.257 Q167.061 710.257 168.982 708.475 Q170.903 706.669 170.903 703.567 Q170.903 700.442 168.982 698.66 Q167.084 696.878 163.727 696.878 M159.052 694.887 Q156.042 694.146 154.353 692.086 Q152.686 690.026 152.686 687.063 Q152.686 682.919 155.626 680.512 Q158.589 678.105 163.727 678.105 Q168.889 678.105 171.829 680.512 Q174.769 682.919 174.769 687.063 Q174.769 690.026 173.079 692.086 Q171.413 694.146 168.427 694.887 Q171.806 695.674 173.681 697.966 Q175.579 700.257 175.579 703.567 Q175.579 708.591 172.501 711.276 Q169.445 713.961 163.727 713.961 Q158.01 713.961 154.931 711.276 Q151.876 708.591 151.876 703.567 Q151.876 700.257 153.774 697.966 Q155.672 695.674 159.052 694.887 M157.339 687.503 Q157.339 690.188 159.005 691.692 Q160.695 693.197 163.727 693.197 Q166.737 693.197 168.427 691.692 Q170.139 690.188 170.139 687.503 Q170.139 684.818 168.427 683.313 Q166.737 681.808 163.727 681.808 Q160.695 681.808 159.005 683.313 Q157.339 684.818 157.339 687.503 Z" fill="#000000" fill-rule="evenodd" fill-opacity="1" /><path clip-path="url(#clip330)" d="M 0 0 M116.39 421.437 L138.612 421.437 L138.612 423.427 L126.066 455.997 L121.181 455.997 L132.987 425.372 L116.39 425.372 L116.39 421.437 Z" fill="#000000" fill-rule="evenodd" fill-opacity="1" /><path clip-path="url(#clip330)" d="M 0 0 M143.681 450.117 L148.566 450.117 L148.566 455.997 L143.681 455.997 L143.681 450.117 Z" fill="#000000" fill-rule="evenodd" fill-opacity="1" /><path clip-path="url(#clip330)" d="M 0 0 M163.635 424.515 Q160.024 424.515 158.195 428.08 Q156.39 431.622 156.39 438.751 Q156.39 445.858 158.195 449.423 Q160.024 452.964 163.635 452.964 Q167.269 452.964 169.075 449.423 Q170.903 445.858 170.903 438.751 Q170.903 431.622 169.075 428.08 Q167.269 424.515 163.635 424.515 M163.635 420.812 Q169.445 420.812 172.501 425.418 Q175.579 430.001 175.579 438.751 Q175.579 447.478 172.501 452.085 Q169.445 456.668 163.635 456.668 Q157.825 456.668 154.746 452.085 Q151.691 447.478 151.691 438.751 Q151.691 430.001 154.746 425.418 Q157.825 420.812 163.635 420.812 Z" fill="#000000" fill-rule="evenodd" fill-opacity="1" /><path clip-path="url(#clip330)" d="M 0 0 M117.987 164.144 L140.209 164.144 L140.209 166.134 L127.663 198.704 L122.779 198.704 L134.584 168.079 L117.987 168.079 L117.987 164.144 Z" fill="#000000" fill-rule="evenodd" fill-opacity="1" /><path clip-path="url(#clip330)" d="M 0 0 M145.279 192.824 L150.163 192.824 L150.163 198.704 L145.279 198.704 L145.279 192.824 Z" fill="#000000" fill-rule="evenodd" fill-opacity="1" /><path clip-path="url(#clip330)" d="M 0 0 M159.26 194.769 L175.579 194.769 L175.579 198.704 L153.635 198.704 L153.635 194.769 Q156.297 192.014 160.88 187.384 Q165.487 182.732 166.667 181.389 Q168.913 178.866 169.792 177.13 Q170.695 175.371 170.695 173.681 Q170.695 170.926 168.751 169.19 Q166.829 167.454 163.727 167.454 Q161.528 167.454 159.075 168.218 Q156.644 168.982 153.866 170.533 L153.866 165.81 Q156.69 164.676 159.144 164.097 Q161.598 163.519 163.635 163.519 Q169.005 163.519 172.2 166.204 Q175.394 168.889 175.394 173.38 Q175.394 175.509 174.584 177.431 Q173.797 179.329 171.69 181.921 Q171.112 182.593 168.01 185.81 Q164.908 189.005 159.26 194.769 Z" fill="#000000" fill-rule="evenodd" fill-opacity="1" /><path clip-path="url(#clip330)" d="M 0 0 M59.1993 815.533 Q55.2526 813.336 53.3747 810.281 Q51.4968 807.225 51.4968 803.088 Q51.4968 797.518 55.4117 794.494 Q59.2948 791.47 66.4881 791.47 L88.0042 791.47 L88.0042 797.358 L66.679 797.358 Q61.5546 797.358 59.072 799.173 Q56.5894 800.987 56.5894 804.711 Q56.5894 809.262 59.6131 811.904 Q62.6368 814.546 67.8567 814.546 L88.0042 814.546 L88.0042 820.434 L66.679 820.434 Q61.5228 820.434 59.072 822.248 Q56.5894 824.063 56.5894 827.85 Q56.5894 832.338 59.6449 834.98 Q62.6686 837.622 67.8567 837.622 L88.0042 837.622 L88.0042 843.51 L52.3562 843.51 L52.3562 837.622 L57.8944 837.622 Q54.616 835.616 53.0564 832.815 Q51.4968 830.015 51.4968 826.163 Q51.4968 822.28 53.4702 819.575 Q55.4436 816.838 59.1993 815.533 Z" fill="#000000" fill-rule="evenodd" fill-opacity="1" /><path clip-path="url(#clip330)" d="M 0 0 M52.3562 785.327 L52.3562 779.471 L88.0042 779.471 L88.0042 785.327 L52.3562 785.327 M38.479 785.327 L38.479 779.471 L45.895 779.471 L45.895 785.327 L38.479 785.327 Z" fill="#000000" fill-rule="evenodd" fill-opacity="1" /><path clip-path="url(#clip330)" d="M 0 0 M66.4881 743.696 L88.0042 743.696 L88.0042 749.552 L66.679 749.552 Q61.6183 749.552 59.1038 751.525 Q56.5894 753.499 56.5894 757.446 Q56.5894 762.188 59.6131 764.925 Q62.6368 767.662 67.8567 767.662 L88.0042 767.662 L88.0042 773.551 L52.3562 773.551 L52.3562 767.662 L57.8944 767.662 Q54.6797 765.562 53.0883 762.729 Q51.4968 759.864 51.4968 756.141 Q51.4968 749.998 55.3163 746.847 Q59.1038 743.696 66.4881 743.696 Z" fill="#000000" fill-rule="evenodd" fill-opacity="1" /><path clip-path="url(#clip330)" d="M 0 0 M98.8259 710.467 L103.377 710.467 L103.377 744.332 L98.8259 744.332 L98.8259 710.467 Z" fill="#000000" fill-rule="evenodd" fill-opacity="1" /><path clip-path="url(#clip330)" d="M 0 0 M57.7671 680.866 L38.479 680.866 L38.479 675.01 L88.0042 675.01 L88.0042 680.866 L82.657 680.866 Q85.8398 682.712 87.3994 685.545 Q88.9272 688.346 88.9272 692.292 Q88.9272 698.754 83.771 702.828 Q78.6147 706.87 70.212 706.87 Q61.8093 706.87 56.6531 702.828 Q51.4968 698.754 51.4968 692.292 Q51.4968 688.346 53.0564 685.545 Q54.5842 682.712 57.7671 680.866 M70.212 700.823 Q76.6732 700.823 80.3653 698.181 Q84.0256 695.507 84.0256 690.86 Q84.0256 686.213 80.3653 683.54 Q76.6732 680.866 70.212 680.866 Q63.7508 680.866 60.0905 683.54 Q56.3984 686.213 56.3984 690.86 Q56.3984 695.507 60.0905 698.181 Q63.7508 700.823 70.212 700.823 Z" fill="#000000" fill-rule="evenodd" fill-opacity="1" /><path clip-path="url(#clip330)" d="M 0 0 M52.3562 668.867 L52.3562 663.01 L88.0042 663.01 L88.0042 668.867 L52.3562 668.867 M38.479 668.867 L38.479 663.01 L45.895 663.01 L45.895 668.867 L38.479 668.867 Z" fill="#000000" fill-rule="evenodd" fill-opacity="1" /><path clip-path="url(#clip330)" d="M 0 0 M38.479 638.821 L43.3487 638.821 L43.3487 644.422 Q43.3487 647.573 44.6219 648.815 Q45.895 650.024 49.2052 650.024 L52.3562 650.024 L52.3562 640.38 L56.9077 640.38 L56.9077 650.024 L88.0042 650.024 L88.0042 655.912 L56.9077 655.912 L56.9077 661.514 L52.3562 661.514 L52.3562 655.912 L49.8736 655.912 Q43.9216 655.912 41.2162 653.143 Q38.479 650.374 38.479 644.359 L38.479 638.821 Z" fill="#000000" fill-rule="evenodd" fill-opacity="1" /><path clip-path="url(#clip330)" d="M 0 0 M38.479 614.631 L43.3487 614.631 L43.3487 620.233 Q43.3487 623.384 44.6219 624.625 Q45.895 625.835 49.2052 625.835 L52.3562 625.835 L52.3562 616.19 L56.9077 616.19 L56.9077 625.835 L88.0042 625.835 L88.0042 631.723 L56.9077 631.723 L56.9077 637.325 L52.3562 637.325 L52.3562 631.723 L49.8736 631.723 Q43.9216 631.723 41.2162 628.954 Q38.479 626.185 38.479 620.169 L38.479 614.631 Z" fill="#000000" fill-rule="evenodd" fill-opacity="1" /><path clip-path="url(#clip330)" d="
M1992.46 213.659 L2281.38 213.659 L2281.38 92.6992 L1992.46 92.6992  Z
  " fill="#ffffff" fill-rule="evenodd" fill-opacity="1"/>
<polyline clip-path="url(#clip330)" style="stroke:#000000; stroke-width:4; stroke-opacity:1; fill:none" points="
  1992.46,213.659 2281.38,213.659 2281.38,92.6992 1992.46,92.6992 1992.46,213.659 
  "/>
<polyline clip-path="url(#clip330)" style="stroke:#009af9; stroke-width:4; stroke-opacity:1; fill:none" stroke-dasharray="16, 10" points="
  2016.25,153.179 2158.99,153.179 
  "/>
<path clip-path="url(#clip330)" d="M 0 0 M2196.63 172.867 Q2194.82 177.496 2193.11 178.908 Q2191.39 180.32 2188.52 180.32 L2185.12 180.32 L2185.12 176.755 L2187.62 176.755 Q2189.38 176.755 2190.35 175.922 Q2191.33 175.089 2192.51 171.987 L2193.27 170.043 L2182.78 144.533 L2187.3 144.533 L2195.4 164.811 L2203.5 144.533 L2208.01 144.533 L2196.63 172.867 Z" fill="#000000" fill-rule="evenodd" fill-opacity="1" /><path clip-path="url(#clip330)" d="M 0 0 M2213.89 166.524 L2221.53 166.524 L2221.53 140.158 L2213.22 141.825 L2213.22 137.566 L2221.49 135.899 L2226.16 135.899 L2226.16 166.524 L2233.8 166.524 L2233.8 170.459 L2213.89 170.459 L2213.89 166.524 Z" fill="#000000" fill-rule="evenodd" fill-opacity="1" /></svg>
