<?xml version="1.0" encoding="utf-8"?>
<svg xmlns="http://www.w3.org/2000/svg" xmlns:xlink="http://www.w3.org/1999/xlink" width="600" height="400" viewBox="0 0 2400 1600">
<defs>
  <clipPath id="clip480">
    <rect x="0" y="0" width="2400" height="1600"/>
  </clipPath>
</defs>
<path clip-path="url(#clip480)" d="
M0 1600 L2400 1600 L2400 0 L0 0  Z
  " fill="#ffffff" fill-rule="evenodd" fill-opacity="1"/>
<defs>
  <clipPath id="clip481">
    <rect x="480" y="0" width="1681" height="1600"/>
  </clipPath>
</defs>
<path clip-path="url(#clip480)" d="
M265.121 1410.9 L2352.76 1410.9 L2352.76 47.2441 L265.121 47.2441  Z
  " fill="#ffffff" fill-rule="evenodd" fill-opacity="1"/>
<defs>
  <clipPath id="clip482">
    <rect x="265" y="47" width="2089" height="1365"/>
  </clipPath>
</defs>
<polyline clip-path="url(#clip482)" style="stroke:#000000; stroke-width:2; stroke-opacity:0.1; fill:none" points="
  521.151,1410.9 521.151,47.2441 
  "/>
<polyline clip-path="url(#clip482)" style="stroke:#000000; stroke-width:2; stroke-opacity:0.1; fill:none" points="
  915.045,1410.9 915.045,47.2441 
  "/>
<polyline clip-path="url(#clip482)" style="stroke:#000000; stroke-width:2; stroke-opacity:0.1; fill:none" points="
  1308.94,1410.9 1308.94,47.2441 
  "/>
<polyline clip-path="url(#clip482)" style="stroke:#000000; stroke-width:2; stroke-opacity:0.1; fill:none" points="
  1702.83,1410.9 1702.83,47.2441 
  "/>
<polyline clip-path="url(#clip482)" style="stroke:#000000; stroke-width:2; stroke-opacity:0.1; fill:none" points="
  2096.73,1410.9 2096.73,47.2441 
  "/>
<polyline clip-path="url(#clip480)" style="stroke:#000000; stroke-width:4; stroke-opacity:1; fill:none" points="
  265.121,1410.9 2352.76,1410.9 
  "/>
<polyline clip-path="url(#clip480)" style="stroke:#000000; stroke-width:4; stroke-opacity:1; fill:none" points="
  521.151,1410.9 521.151,1394.53 
  "/>
<polyline clip-path="url(#clip480)" style="stroke:#000000; stroke-width:4; stroke-opacity:1; fill:none" points="
  915.045,1410.9 915.045,1394.53 
  "/>
<polyline clip-path="url(#clip480)" style="stroke:#000000; stroke-width:4; stroke-opacity:1; fill:none" points="
  1308.94,1410.9 1308.94,1394.53 
  "/>
<polyline clip-path="url(#clip480)" style="stroke:#000000; stroke-width:4; stroke-opacity:1; fill:none" points="
  1702.83,1410.9 1702.83,1394.53 
  "/>
<polyline clip-path="url(#clip480)" style="stroke:#000000; stroke-width:4; stroke-opacity:1; fill:none" points="
  2096.73,1410.9 2096.73,1394.53 
  "/>
<path clip-path="url(#clip480)" d="M 0 0 M459.781 1489.17 L467.42 1489.17 L467.42 1462.8 L459.11 1464.47 L459.11 1460.21 L467.373 1458.54 L472.049 1458.54 L472.049 1489.17 L479.688 1489.17 L479.688 1493.1 L459.781 1493.1 L459.781 1489.17 Z" fill="#000000" fill-rule="evenodd" fill-opacity="1" /><path clip-path="url(#clip480)" d="M 0 0 M494.758 1461.62 Q491.146 1461.62 489.318 1465.19 Q487.512 1468.73 487.512 1475.86 Q487.512 1482.97 489.318 1486.53 Q491.146 1490.07 494.758 1490.07 Q498.392 1490.07 500.197 1486.53 Q502.026 1482.97 502.026 1475.86 Q502.026 1468.73 500.197 1465.19 Q498.392 1461.62 494.758 1461.62 M494.758 1457.92 Q500.568 1457.92 503.623 1462.53 Q506.702 1467.11 506.702 1475.86 Q506.702 1484.59 503.623 1489.19 Q500.568 1493.78 494.758 1493.78 Q488.947 1493.78 485.869 1489.19 Q482.813 1484.59 482.813 1475.86 Q482.813 1467.11 485.869 1462.53 Q488.947 1457.92 494.758 1457.92 Z" fill="#000000" fill-rule="evenodd" fill-opacity="1" /><path clip-path="url(#clip480)" d="M 0 0 M506.702 1452.02 L530.814 1452.02 L530.814 1455.22 L506.702 1455.22 L506.702 1452.02 Z" fill="#000000" fill-rule="evenodd" fill-opacity="1" /><path clip-path="url(#clip480)" d="M 0 0 M543.057 1440.11 Q540.123 1440.11 538.638 1443.01 Q537.171 1445.89 537.171 1451.68 Q537.171 1457.46 538.638 1460.35 Q540.123 1463.23 543.057 1463.23 Q546.01 1463.23 547.477 1460.35 Q548.963 1457.46 548.963 1451.68 Q548.963 1445.89 547.477 1443.01 Q546.01 1440.11 543.057 1440.11 M543.057 1437.11 Q547.778 1437.11 550.261 1440.85 Q552.762 1444.57 552.762 1451.68 Q552.762 1458.77 550.261 1462.51 Q547.778 1466.24 543.057 1466.24 Q538.337 1466.24 535.835 1462.51 Q533.353 1458.77 533.353 1451.68 Q533.353 1444.57 535.835 1440.85 Q538.337 1437.11 543.057 1437.11 Z" fill="#000000" fill-rule="evenodd" fill-opacity="1" /><path clip-path="url(#clip480)" d="M 0 0 M556.881 1460.92 L560.85 1460.92 L560.85 1465.69 L556.881 1465.69 L556.881 1460.92 Z" fill="#000000" fill-rule="evenodd" fill-opacity="1" /><path clip-path="url(#clip480)" d="M 0 0 M575.407 1440.92 L565.815 1455.91 L575.407 1455.91 L575.407 1440.92 M574.41 1437.61 L579.187 1437.61 L579.187 1455.91 L583.193 1455.91 L583.193 1459.07 L579.187 1459.07 L579.187 1465.69 L575.407 1465.69 L575.407 1459.07 L562.73 1459.07 L562.73 1455.41 L574.41 1437.61 Z" fill="#000000" fill-rule="evenodd" fill-opacity="1" /><path clip-path="url(#clip480)" d="M 0 0 M854.521 1489.17 L862.16 1489.17 L862.16 1462.8 L853.849 1464.47 L853.849 1460.21 L862.113 1458.54 L866.789 1458.54 L866.789 1489.17 L874.428 1489.17 L874.428 1493.1 L854.521 1493.1 L854.521 1489.17 Z" fill="#000000" fill-rule="evenodd" fill-opacity="1" /><path clip-path="url(#clip480)" d="M 0 0 M889.497 1461.62 Q885.886 1461.62 884.058 1465.19 Q882.252 1468.73 882.252 1475.86 Q882.252 1482.97 884.058 1486.53 Q885.886 1490.07 889.497 1490.07 Q893.132 1490.07 894.937 1486.53 Q896.766 1482.97 896.766 1475.86 Q896.766 1468.73 894.937 1465.19 Q893.132 1461.62 889.497 1461.62 M889.497 1457.92 Q895.308 1457.92 898.363 1462.53 Q901.442 1467.11 901.442 1475.86 Q901.442 1484.59 898.363 1489.19 Q895.308 1493.78 889.497 1493.78 Q883.687 1493.78 880.609 1489.19 Q877.553 1484.59 877.553 1475.86 Q877.553 1467.11 880.609 1462.53 Q883.687 1457.92 889.497 1457.92 Z" fill="#000000" fill-rule="evenodd" fill-opacity="1" /><path clip-path="url(#clip480)" d="M 0 0 M901.442 1452.02 L925.553 1452.02 L925.553 1455.22 L901.442 1455.22 L901.442 1452.02 Z" fill="#000000" fill-rule="evenodd" fill-opacity="1" /><path clip-path="url(#clip480)" d="M 0 0 M937.797 1440.11 Q934.863 1440.11 933.377 1443.01 Q931.91 1445.89 931.91 1451.68 Q931.91 1457.46 933.377 1460.35 Q934.863 1463.23 937.797 1463.23 Q940.75 1463.23 942.217 1460.35 Q943.703 1457.46 943.703 1451.68 Q943.703 1445.89 942.217 1443.01 Q940.75 1440.11 937.797 1440.11 M937.797 1437.11 Q942.518 1437.11 945.001 1440.85 Q947.502 1444.57 947.502 1451.68 Q947.502 1458.77 945.001 1462.51 Q942.518 1466.24 937.797 1466.24 Q933.076 1466.24 930.575 1462.51 Q928.092 1458.77 928.092 1451.68 Q928.092 1444.57 930.575 1440.85 Q933.076 1437.11 937.797 1437.11 Z" fill="#000000" fill-rule="evenodd" fill-opacity="1" /><path clip-path="url(#clip480)" d="M 0 0 M951.621 1460.92 L955.589 1460.92 L955.589 1465.69 L951.621 1465.69 L951.621 1460.92 Z" fill="#000000" fill-rule="evenodd" fill-opacity="1" /><path clip-path="url(#clip480)" d="M 0 0 M962.981 1462.5 L976.24 1462.5 L976.24 1465.69 L958.41 1465.69 L958.41 1462.5 Q960.573 1460.26 964.297 1456.5 Q968.04 1452.72 968.999 1451.63 Q970.824 1449.58 971.538 1448.16 Q972.272 1446.74 972.272 1445.36 Q972.272 1443.12 970.692 1441.71 Q969.131 1440.3 966.611 1440.3 Q964.824 1440.3 962.83 1440.92 Q960.855 1441.54 958.599 1442.8 L958.599 1438.97 Q960.893 1438.05 962.887 1437.58 Q964.88 1437.11 966.535 1437.11 Q970.899 1437.11 973.494 1439.29 Q976.09 1441.47 976.09 1445.12 Q976.09 1446.85 975.432 1448.41 Q974.792 1449.95 973.081 1452.06 Q972.61 1452.6 970.09 1455.22 Q967.57 1457.81 962.981 1462.5 Z" fill="#000000" fill-rule="evenodd" fill-opacity="1" /><path clip-path="url(#clip480)" d="M 0 0 M1261.09 1489.17 L1268.73 1489.17 L1268.73 1462.8 L1260.42 1464.47 L1260.42 1460.21 L1268.68 1458.54 L1273.36 1458.54 L1273.36 1489.17 L1281 1489.17 L1281 1493.1 L1261.09 1493.1 L1261.09 1489.17 Z" fill="#000000" fill-rule="evenodd" fill-opacity="1" /><path clip-path="url(#clip480)" d="M 0 0 M1296.07 1461.62 Q1292.46 1461.62 1290.63 1465.19 Q1288.82 1468.73 1288.82 1475.86 Q1288.82 1482.97 1290.63 1486.53 Q1292.46 1490.07 1296.07 1490.07 Q1299.7 1490.07 1301.51 1486.53 Q1303.34 1482.97 1303.34 1475.86 Q1303.34 1468.73 1301.51 1465.19 Q1299.7 1461.62 1296.07 1461.62 M1296.07 1457.92 Q1301.88 1457.92 1304.93 1462.53 Q1308.01 1467.11 1308.01 1475.86 Q1308.01 1484.59 1304.93 1489.19 Q1301.88 1493.78 1296.07 1493.78 Q1290.26 1493.78 1287.18 1489.19 Q1284.12 1484.59 1284.12 1475.86 Q1284.12 1467.11 1287.18 1462.53 Q1290.26 1457.92 1296.07 1457.92 Z" fill="#000000" fill-rule="evenodd" fill-opacity="1" /><path clip-path="url(#clip480)" d="M 0 0 M1317.72 1440.11 Q1314.78 1440.11 1313.3 1443.01 Q1311.83 1445.89 1311.83 1451.68 Q1311.83 1457.46 1313.3 1460.35 Q1314.78 1463.23 1317.72 1463.23 Q1320.67 1463.23 1322.14 1460.35 Q1323.62 1457.46 1323.62 1451.68 Q1323.62 1445.89 1322.14 1443.01 Q1320.67 1440.11 1317.72 1440.11 M1317.72 1437.11 Q1322.44 1437.11 1324.92 1440.85 Q1327.42 1444.57 1327.42 1451.68 Q1327.42 1458.77 1324.92 1462.51 Q1322.44 1466.24 1317.72 1466.24 Q1313 1466.24 1310.49 1462.51 Q1308.01 1458.77 1308.01 1451.68 Q1308.01 1444.57 1310.49 1440.85 Q1313 1437.11 1317.72 1437.11 Z" fill="#000000" fill-rule="evenodd" fill-opacity="1" /><path clip-path="url(#clip480)" d="M 0 0 M1331.54 1460.92 L1335.51 1460.92 L1335.51 1465.69 L1331.54 1465.69 L1331.54 1460.92 Z" fill="#000000" fill-rule="evenodd" fill-opacity="1" /><path clip-path="url(#clip480)" d="M 0 0 M1347.75 1440.11 Q1344.82 1440.11 1343.33 1443.01 Q1341.87 1445.89 1341.87 1451.68 Q1341.87 1457.46 1343.33 1460.35 Q1344.82 1463.23 1347.75 1463.23 Q1350.71 1463.23 1352.17 1460.35 Q1353.66 1457.46 1353.66 1451.68 Q1353.66 1445.89 1352.17 1443.01 Q1350.71 1440.11 1347.75 1440.11 M1347.75 1437.11 Q1352.47 1437.11 1354.96 1440.85 Q1357.46 1444.57 1357.46 1451.68 Q1357.46 1458.77 1354.96 1462.51 Q1352.47 1466.24 1347.75 1466.24 Q1343.03 1466.24 1340.53 1462.51 Q1338.05 1458.77 1338.05 1451.68 Q1338.05 1444.57 1340.53 1440.85 Q1343.03 1437.11 1347.75 1437.11 Z" fill="#000000" fill-rule="evenodd" fill-opacity="1" /><path clip-path="url(#clip480)" d="M 0 0 M1655.63 1489.17 L1663.27 1489.17 L1663.27 1462.8 L1654.96 1464.47 L1654.96 1460.21 L1663.23 1458.54 L1667.9 1458.54 L1667.9 1489.17 L1675.54 1489.17 L1675.54 1493.1 L1655.63 1493.1 L1655.63 1489.17 Z" fill="#000000" fill-rule="evenodd" fill-opacity="1" /><path clip-path="url(#clip480)" d="M 0 0 M1690.61 1461.62 Q1687 1461.62 1685.17 1465.19 Q1683.36 1468.73 1683.36 1475.86 Q1683.36 1482.97 1685.17 1486.53 Q1687 1490.07 1690.61 1490.07 Q1694.24 1490.07 1696.05 1486.53 Q1697.88 1482.97 1697.88 1475.86 Q1697.88 1468.73 1696.05 1465.19 Q1694.24 1461.62 1690.61 1461.62 M1690.61 1457.92 Q1696.42 1457.92 1699.48 1462.53 Q1702.55 1467.11 1702.55 1475.86 Q1702.55 1484.59 1699.48 1489.19 Q1696.42 1493.78 1690.61 1493.78 Q1684.8 1493.78 1681.72 1489.19 Q1678.67 1484.59 1678.67 1475.86 Q1678.67 1467.11 1681.72 1462.53 Q1684.8 1457.92 1690.61 1457.92 Z" fill="#000000" fill-rule="evenodd" fill-opacity="1" /><path clip-path="url(#clip480)" d="M 0 0 M1712.26 1440.11 Q1709.32 1440.11 1707.84 1443.01 Q1706.37 1445.89 1706.37 1451.68 Q1706.37 1457.46 1707.84 1460.35 Q1709.32 1463.23 1712.26 1463.23 Q1715.21 1463.23 1716.68 1460.35 Q1718.16 1457.46 1718.16 1451.68 Q1718.16 1445.89 1716.68 1443.01 Q1715.21 1440.11 1712.26 1440.11 M1712.26 1437.11 Q1716.98 1437.11 1719.46 1440.85 Q1721.96 1444.57 1721.96 1451.68 Q1721.96 1458.77 1719.46 1462.51 Q1716.98 1466.24 1712.26 1466.24 Q1707.54 1466.24 1705.04 1462.51 Q1702.55 1458.77 1702.55 1451.68 Q1702.55 1444.57 1705.04 1440.85 Q1707.54 1437.11 1712.26 1437.11 Z" fill="#000000" fill-rule="evenodd" fill-opacity="1" /><path clip-path="url(#clip480)" d="M 0 0 M1726.08 1460.92 L1730.05 1460.92 L1730.05 1465.69 L1726.08 1465.69 L1726.08 1460.92 Z" fill="#000000" fill-rule="evenodd" fill-opacity="1" /><path clip-path="url(#clip480)" d="M 0 0 M1737.44 1462.5 L1750.7 1462.5 L1750.7 1465.69 L1732.87 1465.69 L1732.87 1462.5 Q1735.03 1460.26 1738.76 1456.5 Q1742.5 1452.72 1743.46 1451.63 Q1745.29 1449.58 1746 1448.16 Q1746.73 1446.74 1746.73 1445.36 Q1746.73 1443.12 1745.15 1441.71 Q1743.59 1440.3 1741.07 1440.3 Q1739.29 1440.3 1737.29 1440.92 Q1735.32 1441.54 1733.06 1442.8 L1733.06 1438.97 Q1735.35 1438.05 1737.35 1437.58 Q1739.34 1437.11 1741 1437.11 Q1745.36 1437.11 1747.96 1439.29 Q1750.55 1441.47 1750.55 1445.12 Q1750.55 1446.85 1749.89 1448.41 Q1749.25 1449.95 1747.54 1452.06 Q1747.07 1452.6 1744.55 1455.22 Q1742.03 1457.81 1737.44 1462.5 Z" fill="#000000" fill-rule="evenodd" fill-opacity="1" /><path clip-path="url(#clip480)" d="M 0 0 M2048.68 1489.17 L2056.32 1489.17 L2056.32 1462.8 L2048.01 1464.47 L2048.01 1460.21 L2056.27 1458.54 L2060.95 1458.54 L2060.95 1489.17 L2068.59 1489.17 L2068.59 1493.1 L2048.68 1493.1 L2048.68 1489.17 Z" fill="#000000" fill-rule="evenodd" fill-opacity="1" /><path clip-path="url(#clip480)" d="M 0 0 M2083.66 1461.62 Q2080.05 1461.62 2078.22 1465.19 Q2076.41 1468.73 2076.41 1475.86 Q2076.41 1482.97 2078.22 1486.53 Q2080.05 1490.07 2083.66 1490.07 Q2087.29 1490.07 2089.1 1486.53 Q2090.93 1482.97 2090.93 1475.86 Q2090.93 1468.73 2089.1 1465.19 Q2087.29 1461.62 2083.66 1461.62 M2083.66 1457.92 Q2089.47 1457.92 2092.52 1462.53 Q2095.6 1467.11 2095.6 1475.86 Q2095.6 1484.59 2092.52 1489.19 Q2089.47 1493.78 2083.66 1493.78 Q2077.85 1493.78 2074.77 1489.19 Q2071.71 1484.59 2071.71 1475.86 Q2071.71 1467.11 2074.77 1462.53 Q2077.85 1457.92 2083.66 1457.92 Z" fill="#000000" fill-rule="evenodd" fill-opacity="1" /><path clip-path="url(#clip480)" d="M 0 0 M2105.31 1440.11 Q2102.37 1440.11 2100.89 1443.01 Q2099.42 1445.89 2099.42 1451.68 Q2099.42 1457.46 2100.89 1460.35 Q2102.37 1463.23 2105.31 1463.23 Q2108.26 1463.23 2109.73 1460.35 Q2111.21 1457.46 2111.21 1451.68 Q2111.21 1445.89 2109.73 1443.01 Q2108.26 1440.11 2105.31 1440.11 M2105.31 1437.11 Q2110.03 1437.11 2112.51 1440.85 Q2115.01 1444.57 2115.01 1451.68 Q2115.01 1458.77 2112.51 1462.51 Q2110.03 1466.24 2105.31 1466.24 Q2100.59 1466.24 2098.08 1462.51 Q2095.6 1458.77 2095.6 1451.68 Q2095.6 1444.57 2098.08 1440.85 Q2100.59 1437.11 2105.31 1437.11 Z" fill="#000000" fill-rule="evenodd" fill-opacity="1" /><path clip-path="url(#clip480)" d="M 0 0 M2119.13 1460.92 L2123.1 1460.92 L2123.1 1465.69 L2119.13 1465.69 L2119.13 1460.92 Z" fill="#000000" fill-rule="evenodd" fill-opacity="1" /><path clip-path="url(#clip480)" d="M 0 0 M2137.66 1440.92 L2128.06 1455.91 L2137.66 1455.91 L2137.66 1440.92 M2136.66 1437.61 L2141.44 1437.61 L2141.44 1455.91 L2145.44 1455.91 L2145.44 1459.07 L2141.44 1459.07 L2141.44 1465.69 L2137.66 1465.69 L2137.66 1459.07 L2124.98 1459.07 L2124.98 1455.41 L2136.66 1437.61 Z" fill="#000000" fill-rule="evenodd" fill-opacity="1" /><path clip-path="url(#clip480)" d="M 0 0 M1234.16 1512.66 L1240.05 1512.66 L1240.05 1541.91 L1257.52 1526.54 L1265 1526.54 L1246.09 1543.22 L1265.79 1562.19 L1258.16 1562.19 L1240.05 1544.78 L1240.05 1562.19 L1234.16 1562.19 L1234.16 1512.66 Z" fill="#000000" fill-rule="evenodd" fill-opacity="1" /><path clip-path="url(#clip480)" d="M 0 0 M1299.02 1573.01 L1299.02 1577.56 L1265.16 1577.56 L1265.16 1573.01 L1299.02 1573.01 Z" fill="#000000" fill-rule="evenodd" fill-opacity="1" /><path clip-path="url(#clip480)" d="M 0 0 M1318.98 1530.64 Q1314.27 1530.64 1311.53 1534.34 Q1308.8 1538 1308.8 1544.39 Q1308.8 1550.79 1311.5 1554.48 Q1314.24 1558.14 1318.98 1558.14 Q1323.66 1558.14 1326.4 1554.45 Q1329.13 1550.76 1329.13 1544.39 Q1329.13 1538.06 1326.4 1534.37 Q1323.66 1530.64 1318.98 1530.64 M1318.98 1525.68 Q1326.62 1525.68 1330.98 1530.64 Q1335.34 1535.61 1335.34 1544.39 Q1335.34 1553.15 1330.98 1558.14 Q1326.62 1563.11 1318.98 1563.11 Q1311.31 1563.11 1306.95 1558.14 Q1302.62 1553.15 1302.62 1544.39 Q1302.62 1535.61 1306.95 1530.64 Q1311.31 1525.68 1318.98 1525.68 Z" fill="#000000" fill-rule="evenodd" fill-opacity="1" /><path clip-path="url(#clip480)" d="M 0 0 M1359.53 1512.66 L1359.53 1517.53 L1353.93 1517.53 Q1350.78 1517.53 1349.54 1518.8 Q1348.33 1520.08 1348.33 1523.39 L1348.33 1526.54 L1357.97 1526.54 L1357.97 1531.09 L1348.33 1531.09 L1348.33 1562.19 L1342.44 1562.19 L1342.44 1531.09 L1336.84 1531.09 L1336.84 1526.54 L1342.44 1526.54 L1342.44 1524.05 Q1342.44 1518.1 1345.21 1515.4 Q1347.98 1512.66 1353.99 1512.66 L1359.53 1512.66 Z" fill="#000000" fill-rule="evenodd" fill-opacity="1" /><path clip-path="url(#clip480)" d="M 0 0 M1383.72 1512.66 L1383.72 1517.53 L1378.12 1517.53 Q1374.97 1517.53 1373.73 1518.8 Q1372.52 1520.08 1372.52 1523.39 L1372.52 1526.54 L1382.16 1526.54 L1382.16 1531.09 L1372.52 1531.09 L1372.52 1562.19 L1366.63 1562.19 L1366.63 1531.09 L1361.03 1531.09 L1361.03 1526.54 L1366.63 1526.54 L1366.63 1524.05 Q1366.63 1518.1 1369.4 1515.4 Q1372.17 1512.66 1378.18 1512.66 L1383.72 1512.66 Z" fill="#000000" fill-rule="evenodd" fill-opacity="1" /><polyline clip-path="url(#clip482)" style="stroke:#000000; stroke-width:2; stroke-opacity:0.1; fill:none" points="
  265.121,1299.43 2352.76,1299.43 
  "/>
<polyline clip-path="url(#clip482)" style="stroke:#000000; stroke-width:2; stroke-opacity:0.1; fill:none" points="
  265.121,1087.66 2352.76,1087.66 
  "/>
<polyline clip-path="url(#clip482)" style="stroke:#000000; stroke-width:2; stroke-opacity:0.1; fill:none" points="
  265.121,875.878 2352.76,875.878 
  "/>
<polyline clip-path="url(#clip482)" style="stroke:#000000; stroke-width:2; stroke-opacity:0.1; fill:none" points="
  265.121,664.1 2352.76,664.1 
  "/>
<polyline clip-path="url(#clip482)" style="stroke:#000000; stroke-width:2; stroke-opacity:0.1; fill:none" points="
  265.121,452.321 2352.76,452.321 
  "/>
<polyline clip-path="url(#clip482)" style="stroke:#000000; stroke-width:2; stroke-opacity:0.1; fill:none" points="
  265.121,240.543 2352.76,240.543 
  "/>
<polyline clip-path="url(#clip480)" style="stroke:#000000; stroke-width:4; stroke-opacity:1; fill:none" points="
  265.121,1410.9 265.121,47.2441 
  "/>
<polyline clip-path="url(#clip480)" style="stroke:#000000; stroke-width:4; stroke-opacity:1; fill:none" points="
  265.121,1299.43 290.172,1299.43 
  "/>
<polyline clip-path="url(#clip480)" style="stroke:#000000; stroke-width:4; stroke-opacity:1; fill:none" points="
  265.121,1087.66 290.172,1087.66 
  "/>
<polyline clip-path="url(#clip480)" style="stroke:#000000; stroke-width:4; stroke-opacity:1; fill:none" points="
  265.121,875.878 290.172,875.878 
  "/>
<polyline clip-path="url(#clip480)" style="stroke:#000000; stroke-width:4; stroke-opacity:1; fill:none" points="
  265.121,664.1 290.172,664.1 
  "/>
<polyline clip-path="url(#clip480)" style="stroke:#000000; stroke-width:4; stroke-opacity:1; fill:none" points="
  265.121,452.321 290.172,452.321 
  "/>
<polyline clip-path="url(#clip480)" style="stroke:#000000; stroke-width:4; stroke-opacity:1; fill:none" points="
  265.121,240.543 290.172,240.543 
  "/>
<path clip-path="url(#clip480)" d="M 0 0 M126.205 1285.23 Q122.593 1285.23 120.765 1288.8 Q118.959 1292.34 118.959 1299.47 Q118.959 1306.58 120.765 1310.14 Q122.593 1313.68 126.205 1313.68 Q129.839 1313.68 131.644 1310.14 Q133.473 1306.58 133.473 1299.47 Q133.473 1292.34 131.644 1288.8 Q129.839 1285.23 126.205 1285.23 M126.205 1281.53 Q132.015 1281.53 135.07 1286.14 Q138.149 1290.72 138.149 1299.47 Q138.149 1308.2 135.07 1312.8 Q132.015 1317.39 126.205 1317.39 Q120.394 1317.39 117.316 1312.8 Q114.26 1308.2 114.26 1299.47 Q114.26 1290.72 117.316 1286.14 Q120.394 1281.53 126.205 1281.53 Z" fill="#000000" fill-rule="evenodd" fill-opacity="1" /><path clip-path="url(#clip480)" d="M 0 0 M143.218 1310.83 L148.103 1310.83 L148.103 1316.71 L143.218 1316.71 L143.218 1310.83 Z" fill="#000000" fill-rule="evenodd" fill-opacity="1" /><path clip-path="url(#clip480)" d="M 0 0 M153.311 1316 L153.311 1311.74 Q155.07 1312.57 156.876 1313.01 Q158.681 1313.45 160.417 1313.45 Q165.047 1313.45 167.477 1310.35 Q169.931 1307.22 170.278 1300.88 Q168.936 1302.87 166.876 1303.94 Q164.815 1305 162.315 1305 Q157.13 1305 154.098 1301.88 Q151.089 1298.73 151.089 1293.29 Q151.089 1287.96 154.237 1284.75 Q157.385 1281.53 162.616 1281.53 Q168.612 1281.53 171.76 1286.14 Q174.931 1290.72 174.931 1299.47 Q174.931 1307.64 171.042 1312.52 Q167.177 1317.39 160.626 1317.39 Q158.866 1317.39 157.061 1317.04 Q155.255 1316.69 153.311 1316 M162.616 1301.34 Q165.765 1301.34 167.593 1299.19 Q169.445 1297.04 169.445 1293.29 Q169.445 1289.56 167.593 1287.41 Q165.765 1285.23 162.616 1285.23 Q159.468 1285.23 157.616 1287.41 Q155.788 1289.56 155.788 1293.29 Q155.788 1297.04 157.616 1299.19 Q159.468 1301.34 162.616 1301.34 Z" fill="#000000" fill-rule="evenodd" fill-opacity="1" /><path clip-path="url(#clip480)" d="M 0 0 M190.579 1297.57 Q187.431 1297.57 185.579 1299.72 Q183.751 1301.88 183.751 1305.63 Q183.751 1309.35 185.579 1311.53 Q187.431 1313.68 190.579 1313.68 Q193.727 1313.68 195.556 1311.53 Q197.408 1309.35 197.408 1305.63 Q197.408 1301.88 195.556 1299.72 Q193.727 1297.57 190.579 1297.57 M199.862 1282.92 L199.862 1287.18 Q198.102 1286.34 196.297 1285.9 Q194.514 1285.46 192.755 1285.46 Q188.126 1285.46 185.672 1288.59 Q183.241 1291.71 182.894 1298.03 Q184.26 1296.02 186.32 1294.96 Q188.38 1293.87 190.857 1293.87 Q196.065 1293.87 199.075 1297.04 Q202.107 1300.19 202.107 1305.63 Q202.107 1310.95 198.959 1314.17 Q195.811 1317.39 190.579 1317.39 Q184.584 1317.39 181.413 1312.8 Q178.241 1308.2 178.241 1299.47 Q178.241 1291.27 182.13 1286.41 Q186.019 1281.53 192.57 1281.53 Q194.329 1281.53 196.112 1281.88 Q197.917 1282.22 199.862 1282.92 Z" fill="#000000" fill-rule="evenodd" fill-opacity="1" /><path clip-path="url(#clip480)" d="M 0 0 M217.176 1285.23 Q213.565 1285.23 211.736 1288.8 Q209.931 1292.34 209.931 1299.47 Q209.931 1306.58 211.736 1310.14 Q213.565 1313.68 217.176 1313.68 Q220.811 1313.68 222.616 1310.14 Q224.445 1306.58 224.445 1299.47 Q224.445 1292.34 222.616 1288.8 Q220.811 1285.23 217.176 1285.23 M217.176 1281.53 Q222.986 1281.53 226.042 1286.14 Q229.121 1290.72 229.121 1299.47 Q229.121 1308.2 226.042 1312.8 Q222.986 1317.39 217.176 1317.39 Q211.366 1317.39 208.287 1312.8 Q205.232 1308.2 205.232 1299.47 Q205.232 1290.72 208.287 1286.14 Q211.366 1281.53 217.176 1281.53 Z" fill="#000000" fill-rule="evenodd" fill-opacity="1" /><path clip-path="url(#clip480)" d="M 0 0 M127.2 1073.45 Q123.589 1073.45 121.76 1077.02 Q119.955 1080.56 119.955 1087.69 Q119.955 1094.8 121.76 1098.36 Q123.589 1101.9 127.2 1101.9 Q130.834 1101.9 132.64 1098.36 Q134.468 1094.8 134.468 1087.69 Q134.468 1080.56 132.64 1077.02 Q130.834 1073.45 127.2 1073.45 M127.2 1069.75 Q133.01 1069.75 136.066 1074.36 Q139.144 1078.94 139.144 1087.69 Q139.144 1096.42 136.066 1101.02 Q133.01 1105.61 127.2 1105.61 Q121.39 1105.61 118.311 1101.02 Q115.256 1096.42 115.256 1087.69 Q115.256 1078.94 118.311 1074.36 Q121.39 1069.75 127.2 1069.75 Z" fill="#000000" fill-rule="evenodd" fill-opacity="1" /><path clip-path="url(#clip480)" d="M 0 0 M144.214 1099.06 L149.098 1099.06 L149.098 1104.94 L144.214 1104.94 L144.214 1099.06 Z" fill="#000000" fill-rule="evenodd" fill-opacity="1" /><path clip-path="url(#clip480)" d="M 0 0 M154.306 1104.22 L154.306 1099.96 Q156.065 1100.79 157.871 1101.23 Q159.677 1101.67 161.413 1101.67 Q166.042 1101.67 168.473 1098.57 Q170.927 1095.45 171.274 1089.1 Q169.931 1091.09 167.871 1092.16 Q165.811 1093.22 163.311 1093.22 Q158.126 1093.22 155.093 1090.1 Q152.084 1086.95 152.084 1081.51 Q152.084 1076.19 155.232 1072.97 Q158.38 1069.75 163.612 1069.75 Q169.607 1069.75 172.755 1074.36 Q175.926 1078.94 175.926 1087.69 Q175.926 1095.86 172.038 1100.75 Q168.172 1105.61 161.621 1105.61 Q159.862 1105.61 158.056 1105.26 Q156.251 1104.91 154.306 1104.22 M163.612 1089.57 Q166.76 1089.57 168.589 1087.41 Q170.44 1085.26 170.44 1081.51 Q170.44 1077.78 168.589 1075.63 Q166.76 1073.45 163.612 1073.45 Q160.464 1073.45 158.612 1075.63 Q156.783 1077.78 156.783 1081.51 Q156.783 1085.26 158.612 1087.41 Q160.464 1089.57 163.612 1089.57 Z" fill="#000000" fill-rule="evenodd" fill-opacity="1" /><path clip-path="url(#clip480)" d="M 0 0 M191.575 1085.79 Q188.426 1085.79 186.575 1087.95 Q184.746 1090.1 184.746 1093.85 Q184.746 1097.58 186.575 1099.75 Q188.426 1101.9 191.575 1101.9 Q194.723 1101.9 196.551 1099.75 Q198.403 1097.58 198.403 1093.85 Q198.403 1090.1 196.551 1087.95 Q194.723 1085.79 191.575 1085.79 M200.857 1071.14 L200.857 1075.4 Q199.098 1074.57 197.292 1074.13 Q195.51 1073.69 193.75 1073.69 Q189.121 1073.69 186.667 1076.81 Q184.237 1079.94 183.889 1086.26 Q185.255 1084.24 187.315 1083.18 Q189.375 1082.09 191.852 1082.09 Q197.061 1082.09 200.07 1085.26 Q203.102 1088.41 203.102 1093.85 Q203.102 1099.17 199.954 1102.39 Q196.806 1105.61 191.575 1105.61 Q185.579 1105.61 182.408 1101.02 Q179.237 1096.42 179.237 1087.69 Q179.237 1079.5 183.126 1074.64 Q187.014 1069.75 193.565 1069.75 Q195.325 1069.75 197.107 1070.1 Q198.912 1070.45 200.857 1071.14 Z" fill="#000000" fill-rule="evenodd" fill-opacity="1" /><path clip-path="url(#clip480)" d="M 0 0 M208.218 1070.38 L226.574 1070.38 L226.574 1074.31 L212.5 1074.31 L212.5 1082.78 Q213.519 1082.44 214.537 1082.27 Q215.556 1082.09 216.574 1082.09 Q222.361 1082.09 225.741 1085.26 Q229.121 1088.43 229.121 1093.85 Q229.121 1099.43 225.648 1102.53 Q222.176 1105.61 215.857 1105.61 Q213.681 1105.61 211.412 1105.24 Q209.167 1104.87 206.76 1104.13 L206.76 1099.43 Q208.843 1100.56 211.065 1101.12 Q213.287 1101.67 215.764 1101.67 Q219.769 1101.67 222.107 1099.57 Q224.445 1097.46 224.445 1093.85 Q224.445 1090.24 222.107 1088.13 Q219.769 1086.02 215.764 1086.02 Q213.889 1086.02 212.014 1086.44 Q210.162 1086.86 208.218 1087.74 L208.218 1070.38 Z" fill="#000000" fill-rule="evenodd" fill-opacity="1" /><path clip-path="url(#clip480)" d="M 0 0 M127.269 861.677 Q123.658 861.677 121.83 865.241 Q120.024 868.783 120.024 875.913 Q120.024 883.019 121.83 886.584 Q123.658 890.126 127.269 890.126 Q130.904 890.126 132.709 886.584 Q134.538 883.019 134.538 875.913 Q134.538 868.783 132.709 865.241 Q130.904 861.677 127.269 861.677 M127.269 857.973 Q133.08 857.973 136.135 862.579 Q139.214 867.163 139.214 875.913 Q139.214 884.639 136.135 889.246 Q133.08 893.829 127.269 893.829 Q121.459 893.829 118.381 889.246 Q115.325 884.639 115.325 875.913 Q115.325 867.163 118.381 862.579 Q121.459 857.973 127.269 857.973 Z" fill="#000000" fill-rule="evenodd" fill-opacity="1" /><path clip-path="url(#clip480)" d="M 0 0 M144.283 887.278 L149.167 887.278 L149.167 893.158 L144.283 893.158 L144.283 887.278 Z" fill="#000000" fill-rule="evenodd" fill-opacity="1" /><path clip-path="url(#clip480)" d="M 0 0 M154.376 892.44 L154.376 888.181 Q156.135 889.014 157.94 889.454 Q159.746 889.894 161.482 889.894 Q166.112 889.894 168.542 886.792 Q170.996 883.667 171.343 877.325 Q170.001 879.315 167.94 880.38 Q165.88 881.445 163.38 881.445 Q158.195 881.445 155.163 878.32 Q152.153 875.172 152.153 869.732 Q152.153 864.408 155.302 861.191 Q158.45 857.973 163.681 857.973 Q169.677 857.973 172.825 862.579 Q175.996 867.163 175.996 875.913 Q175.996 884.084 172.107 888.968 Q168.241 893.829 161.69 893.829 Q159.931 893.829 158.126 893.482 Q156.32 893.135 154.376 892.44 M163.681 877.788 Q166.829 877.788 168.658 875.635 Q170.51 873.482 170.51 869.732 Q170.51 866.005 168.658 863.853 Q166.829 861.677 163.681 861.677 Q160.533 861.677 158.681 863.853 Q156.853 866.005 156.853 869.732 Q156.853 873.482 158.681 875.635 Q160.533 877.788 163.681 877.788 Z" fill="#000000" fill-rule="evenodd" fill-opacity="1" /><path clip-path="url(#clip480)" d="M 0 0 M179.885 858.598 L202.107 858.598 L202.107 860.589 L189.561 893.158 L184.676 893.158 L196.482 862.533 L179.885 862.533 L179.885 858.598 Z" fill="#000000" fill-rule="evenodd" fill-opacity="1" /><path clip-path="url(#clip480)" d="M 0 0 M217.176 861.677 Q213.565 861.677 211.736 865.241 Q209.931 868.783 209.931 875.913 Q209.931 883.019 211.736 886.584 Q213.565 890.126 217.176 890.126 Q220.811 890.126 222.616 886.584 Q224.445 883.019 224.445 875.913 Q224.445 868.783 222.616 865.241 Q220.811 861.677 217.176 861.677 M217.176 857.973 Q222.986 857.973 226.042 862.579 Q229.121 867.163 229.121 875.913 Q229.121 884.639 226.042 889.246 Q222.986 893.829 217.176 893.829 Q211.366 893.829 208.287 889.246 Q205.232 884.639 205.232 875.913 Q205.232 867.163 208.287 862.579 Q211.366 857.973 217.176 857.973 Z" fill="#000000" fill-rule="evenodd" fill-opacity="1" /><path clip-path="url(#clip480)" d="M 0 0 M128.265 649.898 Q124.654 649.898 122.825 653.463 Q121.019 657.005 121.019 664.134 Q121.019 671.241 122.825 674.806 Q124.654 678.347 128.265 678.347 Q131.899 678.347 133.704 674.806 Q135.533 671.241 135.533 664.134 Q135.533 657.005 133.704 653.463 Q131.899 649.898 128.265 649.898 M128.265 646.195 Q134.075 646.195 137.13 650.801 Q140.209 655.384 140.209 664.134 Q140.209 672.861 137.13 677.468 Q134.075 682.051 128.265 682.051 Q122.455 682.051 119.376 677.468 Q116.32 672.861 116.32 664.134 Q116.32 655.384 119.376 650.801 Q122.455 646.195 128.265 646.195 Z" fill="#000000" fill-rule="evenodd" fill-opacity="1" /><path clip-path="url(#clip480)" d="M 0 0 M145.279 675.5 L150.163 675.5 L150.163 681.38 L145.279 681.38 L145.279 675.5 Z" fill="#000000" fill-rule="evenodd" fill-opacity="1" /><path clip-path="url(#clip480)" d="M 0 0 M155.371 680.662 L155.371 676.403 Q157.13 677.236 158.936 677.676 Q160.741 678.116 162.477 678.116 Q167.107 678.116 169.538 675.014 Q171.991 671.889 172.339 665.546 Q170.996 667.537 168.936 668.602 Q166.876 669.667 164.376 669.667 Q159.19 669.667 156.158 666.542 Q153.149 663.394 153.149 657.954 Q153.149 652.63 156.297 649.412 Q159.445 646.195 164.677 646.195 Q170.672 646.195 173.82 650.801 Q176.991 655.384 176.991 664.134 Q176.991 672.306 173.102 677.19 Q169.237 682.051 162.686 682.051 Q160.927 682.051 159.121 681.704 Q157.315 681.357 155.371 680.662 M164.677 666.009 Q167.825 666.009 169.653 663.857 Q171.505 661.704 171.505 657.954 Q171.505 654.227 169.653 652.074 Q167.825 649.898 164.677 649.898 Q161.528 649.898 159.677 652.074 Q157.848 654.227 157.848 657.954 Q157.848 661.704 159.677 663.857 Q161.528 666.009 164.677 666.009 Z" fill="#000000" fill-rule="evenodd" fill-opacity="1" /><path clip-path="url(#clip480)" d="M 0 0 M180.88 646.82 L203.102 646.82 L203.102 648.81 L190.556 681.38 L185.672 681.38 L197.477 650.755 L180.88 650.755 L180.88 646.82 Z" fill="#000000" fill-rule="evenodd" fill-opacity="1" /><path clip-path="url(#clip480)" d="M 0 0 M208.218 646.82 L226.574 646.82 L226.574 650.755 L212.5 650.755 L212.5 659.227 Q213.519 658.88 214.537 658.718 Q215.556 658.533 216.574 658.533 Q222.361 658.533 225.741 661.704 Q229.121 664.875 229.121 670.292 Q229.121 675.87 225.648 678.972 Q222.176 682.051 215.857 682.051 Q213.681 682.051 211.412 681.681 Q209.167 681.31 206.76 680.57 L206.76 675.87 Q208.843 677.005 211.065 677.56 Q213.287 678.116 215.764 678.116 Q219.769 678.116 222.107 676.009 Q224.445 673.903 224.445 670.292 Q224.445 666.681 222.107 664.574 Q219.769 662.468 215.764 662.468 Q213.889 662.468 212.014 662.884 Q210.162 663.301 208.218 664.181 L208.218 646.82 Z" fill="#000000" fill-rule="evenodd" fill-opacity="1" /><path clip-path="url(#clip480)" d="M 0 0 M126.459 438.12 Q122.848 438.12 121.019 441.685 Q119.214 445.227 119.214 452.356 Q119.214 459.463 121.019 463.027 Q122.848 466.569 126.459 466.569 Q130.093 466.569 131.899 463.027 Q133.728 459.463 133.728 452.356 Q133.728 445.227 131.899 441.685 Q130.093 438.12 126.459 438.12 M126.459 434.416 Q132.269 434.416 135.325 439.023 Q138.404 443.606 138.404 452.356 Q138.404 461.083 135.325 465.689 Q132.269 470.273 126.459 470.273 Q120.649 470.273 117.57 465.689 Q114.515 461.083 114.515 452.356 Q114.515 443.606 117.57 439.023 Q120.649 434.416 126.459 434.416 Z" fill="#000000" fill-rule="evenodd" fill-opacity="1" /><path clip-path="url(#clip480)" d="M 0 0 M143.473 463.722 L148.357 463.722 L148.357 469.601 L143.473 469.601 L143.473 463.722 Z" fill="#000000" fill-rule="evenodd" fill-opacity="1" /><path clip-path="url(#clip480)" d="M 0 0 M153.566 468.884 L153.566 464.625 Q155.325 465.458 157.13 465.898 Q158.936 466.338 160.672 466.338 Q165.302 466.338 167.732 463.236 Q170.186 460.111 170.533 453.768 Q169.19 455.759 167.13 456.824 Q165.07 457.889 162.57 457.889 Q157.385 457.889 154.353 454.764 Q151.343 451.615 151.343 446.176 Q151.343 440.852 154.491 437.634 Q157.64 434.416 162.871 434.416 Q168.866 434.416 172.014 439.023 Q175.186 443.606 175.186 452.356 Q175.186 460.527 171.297 465.412 Q167.431 470.273 160.88 470.273 Q159.121 470.273 157.315 469.926 Q155.51 469.578 153.566 468.884 M162.871 454.231 Q166.019 454.231 167.848 452.078 Q169.7 449.926 169.7 446.176 Q169.7 442.449 167.848 440.296 Q166.019 438.12 162.871 438.12 Q159.723 438.12 157.871 440.296 Q156.042 442.449 156.042 446.176 Q156.042 449.926 157.871 452.078 Q159.723 454.231 162.871 454.231 Z" fill="#000000" fill-rule="evenodd" fill-opacity="1" /><path clip-path="url(#clip480)" d="M 0 0 M190.255 453.19 Q186.922 453.19 185.001 454.972 Q183.102 456.754 183.102 459.879 Q183.102 463.004 185.001 464.787 Q186.922 466.569 190.255 466.569 Q193.588 466.569 195.51 464.787 Q197.431 462.981 197.431 459.879 Q197.431 456.754 195.51 454.972 Q193.612 453.19 190.255 453.19 M185.579 451.199 Q182.57 450.458 180.88 448.398 Q179.214 446.338 179.214 443.375 Q179.214 439.231 182.153 436.824 Q185.116 434.416 190.255 434.416 Q195.417 434.416 198.357 436.824 Q201.297 439.231 201.297 443.375 Q201.297 446.338 199.607 448.398 Q197.94 450.458 194.954 451.199 Q198.334 451.986 200.209 454.277 Q202.107 456.569 202.107 459.879 Q202.107 464.902 199.028 467.588 Q195.973 470.273 190.255 470.273 Q184.538 470.273 181.459 467.588 Q178.403 464.902 178.403 459.879 Q178.403 456.569 180.301 454.277 Q182.2 451.986 185.579 451.199 M183.866 443.815 Q183.866 446.5 185.533 448.004 Q187.223 449.509 190.255 449.509 Q193.264 449.509 194.954 448.004 Q196.667 446.5 196.667 443.815 Q196.667 441.129 194.954 439.625 Q193.264 438.12 190.255 438.12 Q187.223 438.12 185.533 439.625 Q183.866 441.129 183.866 443.815 Z" fill="#000000" fill-rule="evenodd" fill-opacity="1" /><path clip-path="url(#clip480)" d="M 0 0 M217.176 438.12 Q213.565 438.12 211.736 441.685 Q209.931 445.227 209.931 452.356 Q209.931 459.463 211.736 463.027 Q213.565 466.569 217.176 466.569 Q220.811 466.569 222.616 463.027 Q224.445 459.463 224.445 452.356 Q224.445 445.227 222.616 441.685 Q220.811 438.12 217.176 438.12 M217.176 434.416 Q222.986 434.416 226.042 439.023 Q229.121 443.606 229.121 452.356 Q229.121 461.083 226.042 465.689 Q222.986 470.273 217.176 470.273 Q211.366 470.273 208.287 465.689 Q205.232 461.083 205.232 452.356 Q205.232 443.606 208.287 439.023 Q211.366 434.416 217.176 434.416 Z" fill="#000000" fill-rule="evenodd" fill-opacity="1" /><path clip-path="url(#clip480)" d="M 0 0 M127.455 226.342 Q123.843 226.342 122.015 229.907 Q120.209 233.448 120.209 240.578 Q120.209 247.684 122.015 251.249 Q123.843 254.791 127.455 254.791 Q131.089 254.791 132.894 251.249 Q134.723 247.684 134.723 240.578 Q134.723 233.448 132.894 229.907 Q131.089 226.342 127.455 226.342 M127.455 222.638 Q133.265 222.638 136.32 227.245 Q139.399 231.828 139.399 240.578 Q139.399 249.305 136.32 253.911 Q133.265 258.494 127.455 258.494 Q121.644 258.494 118.566 253.911 Q115.51 249.305 115.51 240.578 Q115.51 231.828 118.566 227.245 Q121.644 222.638 127.455 222.638 Z" fill="#000000" fill-rule="evenodd" fill-opacity="1" /><path clip-path="url(#clip480)" d="M 0 0 M144.468 251.944 L149.353 251.944 L149.353 257.823 L144.468 257.823 L144.468 251.944 Z" fill="#000000" fill-rule="evenodd" fill-opacity="1" /><path clip-path="url(#clip480)" d="M 0 0 M154.561 257.106 L154.561 252.846 Q156.32 253.68 158.126 254.12 Q159.931 254.559 161.667 254.559 Q166.297 254.559 168.727 251.457 Q171.181 248.333 171.528 241.99 Q170.186 243.981 168.126 245.045 Q166.065 246.11 163.565 246.11 Q158.38 246.11 155.348 242.985 Q152.339 239.837 152.339 234.397 Q152.339 229.073 155.487 225.856 Q158.635 222.638 163.866 222.638 Q169.862 222.638 173.01 227.245 Q176.181 231.828 176.181 240.578 Q176.181 248.749 172.292 253.633 Q168.427 258.494 161.876 258.494 Q160.116 258.494 158.311 258.147 Q156.505 257.8 154.561 257.106 M163.866 242.453 Q167.015 242.453 168.843 240.3 Q170.695 238.147 170.695 234.397 Q170.695 230.671 168.843 228.518 Q167.015 226.342 163.866 226.342 Q160.718 226.342 158.866 228.518 Q157.038 230.671 157.038 234.397 Q157.038 238.147 158.866 240.3 Q160.718 242.453 163.866 242.453 Z" fill="#000000" fill-rule="evenodd" fill-opacity="1" /><path clip-path="url(#clip480)" d="M 0 0 M191.25 241.411 Q187.917 241.411 185.996 243.194 Q184.098 244.976 184.098 248.101 Q184.098 251.226 185.996 253.008 Q187.917 254.791 191.25 254.791 Q194.584 254.791 196.505 253.008 Q198.426 251.203 198.426 248.101 Q198.426 244.976 196.505 243.194 Q194.607 241.411 191.25 241.411 M186.575 239.421 Q183.565 238.68 181.876 236.62 Q180.209 234.559 180.209 231.596 Q180.209 227.453 183.149 225.046 Q186.112 222.638 191.25 222.638 Q196.412 222.638 199.352 225.046 Q202.292 227.453 202.292 231.596 Q202.292 234.559 200.602 236.62 Q198.936 238.68 195.95 239.421 Q199.329 240.208 201.204 242.499 Q203.102 244.791 203.102 248.101 Q203.102 253.124 200.024 255.809 Q196.968 258.494 191.25 258.494 Q185.533 258.494 182.454 255.809 Q179.399 253.124 179.399 248.101 Q179.399 244.791 181.297 242.499 Q183.195 240.208 186.575 239.421 M184.862 232.036 Q184.862 234.721 186.528 236.226 Q188.218 237.731 191.25 237.731 Q194.26 237.731 195.95 236.226 Q197.662 234.721 197.662 232.036 Q197.662 229.351 195.95 227.847 Q194.26 226.342 191.25 226.342 Q188.218 226.342 186.528 227.847 Q184.862 229.351 184.862 232.036 Z" fill="#000000" fill-rule="evenodd" fill-opacity="1" /><path clip-path="url(#clip480)" d="M 0 0 M208.218 223.263 L226.574 223.263 L226.574 227.198 L212.5 227.198 L212.5 235.671 Q213.519 235.323 214.537 235.161 Q215.556 234.976 216.574 234.976 Q222.361 234.976 225.741 238.147 Q229.121 241.319 229.121 246.735 Q229.121 252.314 225.648 255.416 Q222.176 258.494 215.857 258.494 Q213.681 258.494 211.412 258.124 Q209.167 257.754 206.76 257.013 L206.76 252.314 Q208.843 253.448 211.065 254.004 Q213.287 254.559 215.764 254.559 Q219.769 254.559 222.107 252.453 Q224.445 250.346 224.445 246.735 Q224.445 243.124 222.107 241.018 Q219.769 238.911 215.764 238.911 Q213.889 238.911 212.014 239.328 Q210.162 239.745 208.218 240.624 L208.218 223.263 Z" fill="#000000" fill-rule="evenodd" fill-opacity="1" /><path clip-path="url(#clip480)" d="M 0 0 M59.1993 815.533 Q55.2526 813.336 53.3747 810.281 Q51.4968 807.225 51.4968 803.088 Q51.4968 797.518 55.4117 794.494 Q59.2948 791.47 66.4881 791.47 L88.0042 791.47 L88.0042 797.358 L66.679 797.358 Q61.5546 797.358 59.072 799.173 Q56.5894 800.987 56.5894 804.711 Q56.5894 809.262 59.6131 811.904 Q62.6368 814.546 67.8567 814.546 L88.0042 814.546 L88.0042 820.434 L66.679 820.434 Q61.5228 820.434 59.072 822.248 Q56.5894 824.063 56.5894 827.85 Q56.5894 832.338 59.6449 834.98 Q62.6686 837.622 67.8567 837.622 L88.0042 837.622 L88.0042 843.51 L52.3562 843.51 L52.3562 837.622 L57.8944 837.622 Q54.616 835.616 53.0564 832.815 Q51.4968 830.015 51.4968 826.163 Q51.4968 822.28 53.4702 819.575 Q55.4436 816.838 59.1993 815.533 Z" fill="#000000" fill-rule="evenodd" fill-opacity="1" /><path clip-path="url(#clip480)" d="M 0 0 M52.3562 785.327 L52.3562 779.471 L88.0042 779.471 L88.0042 785.327 L52.3562 785.327 M38.479 785.327 L38.479 779.471 L45.895 779.471 L45.895 785.327 L38.479 785.327 Z" fill="#000000" fill-rule="evenodd" fill-opacity="1" /><path clip-path="url(#clip480)" d="M 0 0 M66.4881 743.696 L88.0042 743.696 L88.0042 749.552 L66.679 749.552 Q61.6183 749.552 59.1038 751.525 Q56.5894 753.499 56.5894 757.446 Q56.5894 762.188 59.6131 764.925 Q62.6368 767.662 67.8567 767.662 L88.0042 767.662 L88.0042 773.551 L52.3562 773.551 L52.3562 767.662 L57.8944 767.662 Q54.6797 765.562 53.0883 762.729 Q51.4968 759.864 51.4968 756.141 Q51.4968 749.998 55.3163 746.847 Q59.1038 743.696 66.4881 743.696 Z" fill="#000000" fill-rule="evenodd" fill-opacity="1" /><path clip-path="url(#clip480)" d="M 0 0 M98.8259 710.467 L103.377 710.467 L103.377 744.332 L98.8259 744.332 L98.8259 710.467 Z" fill="#000000" fill-rule="evenodd" fill-opacity="1" /><path clip-path="url(#clip480)" d="M 0 0 M57.7671 680.866 L38.479 680.866 L38.479 675.01 L88.0042 675.01 L88.0042 680.866 L82.657 680.866 Q85.8398 682.712 87.3994 685.545 Q88.9272 688.346 88.9272 692.292 Q88.9272 698.754 83.771 702.828 Q78.6147 706.87 70.212 706.87 Q61.8093 706.87 56.6531 702.828 Q51.4968 698.754 51.4968 692.292 Q51.4968 688.346 53.0564 685.545 Q54.5842 682.712 57.7671 680.866 M70.212 700.823 Q76.6732 700.823 80.3653 698.181 Q84.0256 695.507 84.0256 690.86 Q84.0256 686.213 80.3653 683.54 Q76.6732 680.866 70.212 680.866 Q63.7508 680.866 60.0905 683.54 Q56.3984 686.213 56.3984 690.86 Q56.3984 695.507 60.0905 698.181 Q63.7508 700.823 70.212 700.823 Z" fill="#000000" fill-rule="evenodd" fill-opacity="1" /><path clip-path="url(#clip480)" d="M 0 0 M52.3562 668.867 L52.3562 663.01 L88.0042 663.01 L88.0042 668.867 L52.3562 668.867 M38.479 668.867 L38.479 663.01 L45.895 663.01 L45.895 668.867 L38.479 668.867 Z" fill="#000000" fill-rule="evenodd" fill-opacity="1" /><path clip-path="url(#clip480)" d="M 0 0 M38.479 638.821 L43.3487 638.821 L43.3487 644.422 Q43.3487 647.573 44.6219 648.815 Q45.895 650.024 49.2052 650.024 L52.3562 650.024 L52.3562 640.38 L56.9077 640.38 L56.9077 650.024 L88.0042 650.024 L88.0042 655.912 L56.9077 655.912 L56.9077 661.514 L52.3562 661.514 L52.3562 655.912 L49.8736 655.912 Q43.9216 655.912 41.2162 653.143 Q38.479 650.374 38.479 644.359 L38.479 638.821 Z" fill="#000000" fill-rule="evenodd" fill-opacity="1" /><path clip-path="url(#clip480)" d="M 0 0 M38.479 614.631 L43.3487 614.631 L43.3487 620.233 Q43.3487 623.384 44.6219 624.625 Q45.895 625.835 49.2052 625.835 L52.3562 625.835 L52.3562 616.19 L56.9077 616.19 L56.9077 625.835 L88.0042 625.835 L88.0042 631.723 L56.9077 631.723 L56.9077 637.325 L52.3562 637.325 L52.3562 631.723 L49.8736 631.723 Q43.9216 631.723 41.2162 628.954 Q38.479 626.185 38.479 620.169 L38.479 614.631 Z" fill="#000000" fill-rule="evenodd" fill-opacity="1" /><polyline clip-path="url(#clip482)" style="stroke:#009af9; stroke-width:20; stroke-opacity:1; fill:none" stroke-dasharray="80, 50" points="
  324.205,85.838 1308.94,1372.3 2293.67,762.308 
  "/>
<path clip-path="url(#clip480)" d="
M2000.19 213.659 L2283.17 213.659 L2283.17 92.6992 L2000.19 92.6992  Z
  " fill="#ffffff" fill-rule="evenodd" fill-opacity="1"/>
<polyline clip-path="url(#clip480)" style="stroke:#000000; stroke-width:4; stroke-opacity:1; fill:none" points="
  2000.19,213.659 2283.17,213.659 2283.17,92.6992 2000.19,92.6992 2000.19,213.659 
  "/>
<polyline clip-path="url(#clip480)" style="stroke:#009af9; stroke-width:4; stroke-opacity:1; fill:none" stroke-dasharray="16, 10" points="
  2023.39,153.179 2162.56,153.179 
  "/>
<path clip-path="url(#clip480)" d="M 0 0 M2199.6 172.867 Q2197.79 177.496 2196.08 178.908 Q2194.37 180.32 2191.5 180.32 L2188.1 180.32 L2188.1 176.755 L2190.6 176.755 Q2192.36 176.755 2193.33 175.922 Q2194.3 175.089 2195.48 171.987 L2196.24 170.043 L2185.76 144.533 L2190.27 144.533 L2198.37 164.811 L2206.48 144.533 L2210.99 144.533 L2199.6 172.867 Z" fill="#000000" fill-rule="evenodd" fill-opacity="1" /><path clip-path="url(#clip480)" d="M 0 0 M2216.87 166.524 L2224.51 166.524 L2224.51 140.158 L2216.2 141.825 L2216.2 137.566 L2224.46 135.899 L2229.14 135.899 L2229.14 166.524 L2236.78 166.524 L2236.78 170.459 L2216.87 170.459 L2216.87 166.524 Z" fill="#000000" fill-rule="evenodd" fill-opacity="1" /></svg>
