<?xml version="1.0" encoding="utf-8"?>
<svg xmlns="http://www.w3.org/2000/svg" xmlns:xlink="http://www.w3.org/1999/xlink" width="600" height="400" viewBox="0 0 2400 1600">
<defs>
  <clipPath id="clip960">
    <rect x="0" y="0" width="2400" height="1600"/>
  </clipPath>
</defs>
<path clip-path="url(#clip960)" d="
M0 1600 L2400 1600 L2400 0 L0 0  Z
  " fill="#ffffff" fill-rule="evenodd" fill-opacity="1"/>
<defs>
  <clipPath id="clip961">
    <rect x="480" y="0" width="1681" height="1600"/>
  </clipPath>
</defs>
<path clip-path="url(#clip960)" d="
M202.459 1410.9 L2352.76 1410.9 L2352.76 47.2441 L202.459 47.2441  Z
  " fill="#ffffff" fill-rule="evenodd" fill-opacity="1"/>
<defs>
  <clipPath id="clip962">
    <rect x="202" y="47" width="2151" height="1365"/>
  </clipPath>
</defs>
<polyline clip-path="url(#clip962)" style="stroke:#000000; stroke-width:2; stroke-opacity:0.1; fill:none" points="
  553.114,1410.9 553.114,47.2441 
  "/>
<polyline clip-path="url(#clip962)" style="stroke:#000000; stroke-width:2; stroke-opacity:0.1; fill:none" points="
  1132.71,1410.9 1132.71,47.2441 
  "/>
<polyline clip-path="url(#clip962)" style="stroke:#000000; stroke-width:2; stroke-opacity:0.1; fill:none" points="
  1712.3,1410.9 1712.3,47.2441 
  "/>
<polyline clip-path="url(#clip962)" style="stroke:#000000; stroke-width:2; stroke-opacity:0.1; fill:none" points="
  2291.9,1410.9 2291.9,47.2441 
  "/>
<polyline clip-path="url(#clip960)" style="stroke:#000000; stroke-width:4; stroke-opacity:1; fill:none" points="
  202.459,1410.9 2352.76,1410.9 
  "/>
<polyline clip-path="url(#clip960)" style="stroke:#000000; stroke-width:4; stroke-opacity:1; fill:none" points="
  553.114,1410.9 553.114,1394.53 
  "/>
<polyline clip-path="url(#clip960)" style="stroke:#000000; stroke-width:4; stroke-opacity:1; fill:none" points="
  1132.71,1410.9 1132.71,1394.53 
  "/>
<polyline clip-path="url(#clip960)" style="stroke:#000000; stroke-width:4; stroke-opacity:1; fill:none" points="
  1712.3,1410.9 1712.3,1394.53 
  "/>
<polyline clip-path="url(#clip960)" style="stroke:#000000; stroke-width:4; stroke-opacity:1; fill:none" points="
  2291.9,1410.9 2291.9,1394.53 
  "/>
<path clip-path="url(#clip960)" d="M 0 0 M507.608 1489.17 L515.247 1489.17 L515.247 1462.8 L506.936 1464.47 L506.936 1460.21 L515.2 1458.54 L519.876 1458.54 L519.876 1489.17 L527.515 1489.17 L527.515 1493.1 L507.608 1493.1 L507.608 1489.17 Z" fill="#000000" fill-rule="evenodd" fill-opacity="1" /><path clip-path="url(#clip960)" d="M 0 0 M542.584 1461.62 Q538.973 1461.62 537.145 1465.19 Q535.339 1468.73 535.339 1475.86 Q535.339 1482.97 537.145 1486.53 Q538.973 1490.07 542.584 1490.07 Q546.219 1490.07 548.024 1486.53 Q549.853 1482.97 549.853 1475.86 Q549.853 1468.73 548.024 1465.19 Q546.219 1461.62 542.584 1461.62 M542.584 1457.92 Q548.395 1457.92 551.45 1462.53 Q554.529 1467.11 554.529 1475.86 Q554.529 1484.59 551.45 1489.19 Q548.395 1493.78 542.584 1493.78 Q536.774 1493.78 533.696 1489.19 Q530.64 1484.59 530.64 1475.86 Q530.64 1467.11 533.696 1462.53 Q536.774 1457.92 542.584 1457.92 Z" fill="#000000" fill-rule="evenodd" fill-opacity="1" /><path clip-path="url(#clip960)" d="M 0 0 M554.529 1452.02 L578.64 1452.02 L578.64 1455.22 L554.529 1455.22 L554.529 1452.02 Z" fill="#000000" fill-rule="evenodd" fill-opacity="1" /><path clip-path="url(#clip960)" d="M 0 0 M586.032 1462.5 L599.291 1462.5 L599.291 1465.69 L581.461 1465.69 L581.461 1462.5 Q583.624 1460.26 587.348 1456.5 Q591.091 1452.72 592.05 1451.63 Q593.875 1449.58 594.589 1448.16 Q595.323 1446.74 595.323 1445.36 Q595.323 1443.12 593.743 1441.71 Q592.182 1440.3 589.662 1440.3 Q587.875 1440.3 585.881 1440.92 Q583.907 1441.54 581.65 1442.8 L581.65 1438.97 Q583.944 1438.05 585.938 1437.58 Q587.931 1437.11 589.586 1437.11 Q593.95 1437.11 596.545 1439.29 Q599.141 1441.47 599.141 1445.12 Q599.141 1446.85 598.483 1448.41 Q597.843 1449.95 596.132 1452.06 Q595.661 1452.6 593.141 1455.22 Q590.621 1457.81 586.032 1462.5 Z" fill="#000000" fill-rule="evenodd" fill-opacity="1" /><path clip-path="url(#clip960)" d="M 0 0 M1087.05 1489.17 L1094.69 1489.17 L1094.69 1462.8 L1086.38 1464.47 L1086.38 1460.21 L1094.64 1458.54 L1099.32 1458.54 L1099.32 1489.17 L1106.96 1489.17 L1106.96 1493.1 L1087.05 1493.1 L1087.05 1489.17 Z" fill="#000000" fill-rule="evenodd" fill-opacity="1" /><path clip-path="url(#clip960)" d="M 0 0 M1122.03 1461.62 Q1118.42 1461.62 1116.59 1465.19 Q1114.78 1468.73 1114.78 1475.86 Q1114.78 1482.97 1116.59 1486.53 Q1118.42 1490.07 1122.03 1490.07 Q1125.66 1490.07 1127.47 1486.53 Q1129.3 1482.97 1129.3 1475.86 Q1129.3 1468.73 1127.47 1465.19 Q1125.66 1461.62 1122.03 1461.62 M1122.03 1457.92 Q1127.84 1457.92 1130.89 1462.53 Q1133.97 1467.11 1133.97 1475.86 Q1133.97 1484.59 1130.89 1489.19 Q1127.84 1493.78 1122.03 1493.78 Q1116.22 1493.78 1113.14 1489.19 Q1110.08 1484.59 1110.08 1475.86 Q1110.08 1467.11 1113.14 1462.53 Q1116.22 1457.92 1122.03 1457.92 Z" fill="#000000" fill-rule="evenodd" fill-opacity="1" /><path clip-path="url(#clip960)" d="M 0 0 M1133.97 1452.02 L1158.08 1452.02 L1158.08 1455.22 L1133.97 1455.22 L1133.97 1452.02 Z" fill="#000000" fill-rule="evenodd" fill-opacity="1" /><path clip-path="url(#clip960)" d="M 0 0 M1162.86 1462.5 L1169.07 1462.5 L1169.07 1441.07 L1162.32 1442.43 L1162.32 1438.97 L1169.03 1437.61 L1172.83 1437.61 L1172.83 1462.5 L1179.04 1462.5 L1179.04 1465.69 L1162.86 1465.69 L1162.86 1462.5 Z" fill="#000000" fill-rule="evenodd" fill-opacity="1" /><path clip-path="url(#clip960)" d="M 0 0 M1679.47 1489.17 L1687.11 1489.17 L1687.11 1462.8 L1678.8 1464.47 L1678.8 1460.21 L1687.07 1458.54 L1691.74 1458.54 L1691.74 1489.17 L1699.38 1489.17 L1699.38 1493.1 L1679.47 1493.1 L1679.47 1489.17 Z" fill="#000000" fill-rule="evenodd" fill-opacity="1" /><path clip-path="url(#clip960)" d="M 0 0 M1714.45 1461.62 Q1710.84 1461.62 1709.01 1465.19 Q1707.21 1468.73 1707.21 1475.86 Q1707.21 1482.97 1709.01 1486.53 Q1710.84 1490.07 1714.45 1490.07 Q1718.08 1490.07 1719.89 1486.53 Q1721.72 1482.97 1721.72 1475.86 Q1721.72 1468.73 1719.89 1465.19 Q1718.08 1461.62 1714.45 1461.62 M1714.45 1457.92 Q1720.26 1457.92 1723.32 1462.53 Q1726.39 1467.11 1726.39 1475.86 Q1726.39 1484.59 1723.32 1489.19 Q1720.26 1493.78 1714.45 1493.78 Q1708.64 1493.78 1705.56 1489.19 Q1702.51 1484.59 1702.51 1475.86 Q1702.51 1467.11 1705.56 1462.53 Q1708.64 1457.92 1714.45 1457.92 Z" fill="#000000" fill-rule="evenodd" fill-opacity="1" /><path clip-path="url(#clip960)" d="M 0 0 M1736.1 1440.11 Q1733.17 1440.11 1731.68 1443.01 Q1730.21 1445.89 1730.21 1451.68 Q1730.21 1457.46 1731.68 1460.35 Q1733.17 1463.23 1736.1 1463.23 Q1739.05 1463.23 1740.52 1460.35 Q1742.01 1457.46 1742.01 1451.68 Q1742.01 1445.89 1740.52 1443.01 Q1739.05 1440.11 1736.1 1440.11 M1736.1 1437.11 Q1740.82 1437.11 1743.3 1440.85 Q1745.8 1444.57 1745.8 1451.68 Q1745.8 1458.77 1743.3 1462.51 Q1740.82 1466.24 1736.1 1466.24 Q1731.38 1466.24 1728.88 1462.51 Q1726.39 1458.77 1726.39 1451.68 Q1726.39 1444.57 1728.88 1440.85 Q1731.38 1437.11 1736.1 1437.11 Z" fill="#000000" fill-rule="evenodd" fill-opacity="1" /><path clip-path="url(#clip960)" d="M 0 0 M2260.41 1489.17 L2268.05 1489.17 L2268.05 1462.8 L2259.74 1464.47 L2259.74 1460.21 L2268.01 1458.54 L2272.68 1458.54 L2272.68 1489.17 L2280.32 1489.17 L2280.32 1493.1 L2260.41 1493.1 L2260.41 1489.17 Z" fill="#000000" fill-rule="evenodd" fill-opacity="1" /><path clip-path="url(#clip960)" d="M 0 0 M2295.39 1461.62 Q2291.78 1461.62 2289.95 1465.19 Q2288.14 1468.73 2288.14 1475.86 Q2288.14 1482.97 2289.95 1486.53 Q2291.78 1490.07 2295.39 1490.07 Q2299.02 1490.07 2300.83 1486.53 Q2302.66 1482.97 2302.66 1475.86 Q2302.66 1468.73 2300.83 1465.19 Q2299.02 1461.62 2295.39 1461.62 M2295.39 1457.92 Q2301.2 1457.92 2304.26 1462.53 Q2307.33 1467.11 2307.33 1475.86 Q2307.33 1484.59 2304.26 1489.19 Q2301.2 1493.78 2295.39 1493.78 Q2289.58 1493.78 2286.5 1489.19 Q2283.45 1484.59 2283.45 1475.86 Q2283.45 1467.11 2286.5 1462.53 Q2289.58 1457.92 2295.39 1457.92 Z" fill="#000000" fill-rule="evenodd" fill-opacity="1" /><path clip-path="url(#clip960)" d="M 0 0 M2307.88 1462.5 L2314.09 1462.5 L2314.09 1441.07 L2307.33 1442.43 L2307.33 1438.97 L2314.05 1437.61 L2317.85 1437.61 L2317.85 1462.5 L2324.05 1462.5 L2324.05 1465.69 L2307.88 1465.69 L2307.88 1462.5 Z" fill="#000000" fill-rule="evenodd" fill-opacity="1" /><path clip-path="url(#clip960)" d="M 0 0 M1169.88 1526.54 L1176.09 1526.54 L1187.23 1556.46 L1198.37 1526.54 L1204.58 1526.54 L1191.21 1562.19 L1183.25 1562.19 L1169.88 1526.54 Z" fill="#000000" fill-rule="evenodd" fill-opacity="1" /><path clip-path="url(#clip960)" d="M 0 0 M1237.81 1573.01 L1237.81 1577.56 L1203.94 1577.56 L1203.94 1573.01 L1237.81 1573.01 Z" fill="#000000" fill-rule="evenodd" fill-opacity="1" /><path clip-path="url(#clip960)" d="M 0 0 M1269.6 1527.91 L1269.6 1533.38 Q1267.12 1532.01 1264.61 1531.34 Q1262.12 1530.64 1259.58 1530.64 Q1253.88 1530.64 1250.73 1534.27 Q1247.58 1537.87 1247.58 1544.39 Q1247.58 1550.92 1250.73 1554.55 Q1253.88 1558.14 1259.58 1558.14 Q1262.12 1558.14 1264.61 1557.47 Q1267.12 1556.77 1269.6 1555.41 L1269.6 1560.82 Q1267.15 1561.96 1264.51 1562.54 Q1261.9 1563.11 1258.94 1563.11 Q1250.89 1563.11 1246.14 1558.05 Q1241.4 1552.99 1241.4 1544.39 Q1241.4 1535.67 1246.18 1530.68 Q1250.98 1525.68 1259.32 1525.68 Q1262.03 1525.68 1264.61 1526.25 Q1267.18 1526.79 1269.6 1527.91 Z" fill="#000000" fill-rule="evenodd" fill-opacity="1" /><path clip-path="url(#clip960)" d="M 0 0 M1275.75 1512.66 L1281.6 1512.66 L1281.6 1562.19 L1275.75 1562.19 L1275.75 1512.66 Z" fill="#000000" fill-rule="evenodd" fill-opacity="1" /><path clip-path="url(#clip960)" d="M 0 0 M1301.56 1530.64 Q1296.85 1530.64 1294.11 1534.34 Q1291.37 1538 1291.37 1544.39 Q1291.37 1550.79 1294.08 1554.48 Q1296.82 1558.14 1301.56 1558.14 Q1306.24 1558.14 1308.97 1554.45 Q1311.71 1550.76 1311.71 1544.39 Q1311.71 1538.06 1308.97 1534.37 Q1306.24 1530.64 1301.56 1530.64 M1301.56 1525.68 Q1309.2 1525.68 1313.56 1530.64 Q1317.92 1535.61 1317.92 1544.39 Q1317.92 1553.15 1313.56 1558.14 Q1309.2 1563.11 1301.56 1563.11 Q1293.89 1563.11 1289.53 1558.14 Q1285.2 1553.15 1285.2 1544.39 Q1285.2 1535.61 1289.53 1530.64 Q1293.89 1525.68 1301.56 1525.68 Z" fill="#000000" fill-rule="evenodd" fill-opacity="1" /><path clip-path="url(#clip960)" d="M 0 0 M1346.79 1527.59 L1346.79 1533.13 Q1344.3 1531.85 1341.63 1531.22 Q1338.96 1530.58 1336.09 1530.58 Q1331.73 1530.58 1329.54 1531.92 Q1327.37 1533.25 1327.37 1535.93 Q1327.37 1537.96 1328.93 1539.14 Q1330.49 1540.29 1335.2 1541.34 L1337.21 1541.78 Q1343.44 1543.12 1346.05 1545.57 Q1348.7 1547.99 1348.7 1552.35 Q1348.7 1557.32 1344.75 1560.21 Q1340.83 1563.11 1333.96 1563.11 Q1331.1 1563.11 1327.98 1562.54 Q1324.89 1561.99 1321.45 1560.88 L1321.45 1554.83 Q1324.7 1556.52 1327.85 1557.38 Q1331 1558.21 1334.09 1558.21 Q1338.22 1558.21 1340.45 1556.81 Q1342.68 1555.37 1342.68 1552.8 Q1342.68 1550.41 1341.06 1549.14 Q1339.47 1547.86 1334.02 1546.68 L1331.99 1546.21 Q1326.54 1545.06 1324.12 1542.71 Q1321.71 1540.32 1321.71 1536.18 Q1321.71 1531.15 1325.27 1528.42 Q1328.84 1525.68 1335.39 1525.68 Q1338.64 1525.68 1341.5 1526.16 Q1344.37 1526.63 1346.79 1527.59 Z" fill="#000000" fill-rule="evenodd" fill-opacity="1" /><path clip-path="url(#clip960)" d="M 0 0 M1385.33 1542.9 L1385.33 1545.76 L1358.4 1545.76 Q1358.79 1551.81 1362.03 1554.99 Q1365.31 1558.14 1371.14 1558.14 Q1374.51 1558.14 1377.66 1557.32 Q1380.84 1556.49 1383.96 1554.83 L1383.96 1560.37 Q1380.81 1561.71 1377.5 1562.41 Q1374.19 1563.11 1370.79 1563.11 Q1362.26 1563.11 1357.26 1558.14 Q1352.29 1553.18 1352.29 1544.71 Q1352.29 1535.96 1357 1530.83 Q1361.75 1525.68 1369.77 1525.68 Q1376.96 1525.68 1381.13 1530.33 Q1385.33 1534.94 1385.33 1542.9 M1379.47 1541.18 Q1379.41 1536.37 1376.77 1533.51 Q1374.16 1530.64 1369.83 1530.64 Q1364.93 1530.64 1361.97 1533.41 Q1359.04 1536.18 1358.6 1541.21 L1379.47 1541.18 Z" fill="#000000" fill-rule="evenodd" fill-opacity="1" /><polyline clip-path="url(#clip962)" style="stroke:#000000; stroke-width:2; stroke-opacity:0.1; fill:none" points="
  202.459,1222.1 2352.76,1222.1 
  "/>
<polyline clip-path="url(#clip962)" style="stroke:#000000; stroke-width:2; stroke-opacity:0.1; fill:none" points="
  202.459,959.45 2352.76,959.45 
  "/>
<polyline clip-path="url(#clip962)" style="stroke:#000000; stroke-width:2; stroke-opacity:0.1; fill:none" points="
  202.459,696.801 2352.76,696.801 
  "/>
<polyline clip-path="url(#clip962)" style="stroke:#000000; stroke-width:2; stroke-opacity:0.1; fill:none" points="
  202.459,434.152 2352.76,434.152 
  "/>
<polyline clip-path="url(#clip962)" style="stroke:#000000; stroke-width:2; stroke-opacity:0.1; fill:none" points="
  202.459,171.503 2352.76,171.503 
  "/>
<polyline clip-path="url(#clip960)" style="stroke:#000000; stroke-width:4; stroke-opacity:1; fill:none" points="
  202.459,1410.9 202.459,47.2441 
  "/>
<polyline clip-path="url(#clip960)" style="stroke:#000000; stroke-width:4; stroke-opacity:1; fill:none" points="
  202.459,1222.1 228.263,1222.1 
  "/>
<polyline clip-path="url(#clip960)" style="stroke:#000000; stroke-width:4; stroke-opacity:1; fill:none" points="
  202.459,959.45 228.263,959.45 
  "/>
<polyline clip-path="url(#clip960)" style="stroke:#000000; stroke-width:4; stroke-opacity:1; fill:none" points="
  202.459,696.801 228.263,696.801 
  "/>
<polyline clip-path="url(#clip960)" style="stroke:#000000; stroke-width:4; stroke-opacity:1; fill:none" points="
  202.459,434.152 228.263,434.152 
  "/>
<polyline clip-path="url(#clip960)" style="stroke:#000000; stroke-width:4; stroke-opacity:1; fill:none" points="
  202.459,171.503 228.263,171.503 
  "/>
<path clip-path="url(#clip960)" d="M 0 0 M119.538 1235.44 L127.177 1235.44 L127.177 1209.08 L118.867 1210.75 L118.867 1206.49 L127.13 1204.82 L131.806 1204.82 L131.806 1235.44 L139.445 1235.44 L139.445 1239.38 L119.538 1239.38 L119.538 1235.44 Z" fill="#000000" fill-rule="evenodd" fill-opacity="1" /><path clip-path="url(#clip960)" d="M 0 0 M154.515 1207.9 Q150.903 1207.9 149.075 1211.46 Q147.269 1215 147.269 1222.13 Q147.269 1229.24 149.075 1232.81 Q150.903 1236.35 154.515 1236.35 Q158.149 1236.35 159.954 1232.81 Q161.783 1229.24 161.783 1222.13 Q161.783 1215 159.954 1211.46 Q158.149 1207.9 154.515 1207.9 M154.515 1204.19 Q160.325 1204.19 163.38 1208.8 Q166.459 1213.38 166.459 1222.13 Q166.459 1230.86 163.38 1235.47 Q160.325 1240.05 154.515 1240.05 Q148.704 1240.05 145.626 1235.47 Q142.57 1230.86 142.57 1222.13 Q142.57 1213.38 145.626 1208.8 Q148.704 1204.19 154.515 1204.19 Z" fill="#000000" fill-rule="evenodd" fill-opacity="1" /><path clip-path="url(#clip960)" d="M 0 0 M123.126 972.795 L139.445 972.795 L139.445 976.73 L117.501 976.73 L117.501 972.795 Q120.163 970.041 124.746 965.411 Q129.353 960.758 130.533 959.416 Q132.779 956.893 133.658 955.156 Q134.561 953.397 134.561 951.707 Q134.561 948.953 132.617 947.217 Q130.695 945.481 127.593 945.481 Q125.394 945.481 122.941 946.244 Q120.51 947.008 117.732 948.559 L117.732 943.837 Q120.556 942.703 123.01 942.124 Q125.464 941.545 127.501 941.545 Q132.871 941.545 136.066 944.231 Q139.26 946.916 139.26 951.406 Q139.26 953.536 138.45 955.457 Q137.663 957.356 135.556 959.948 Q134.978 960.619 131.876 963.837 Q128.774 967.031 123.126 972.795 Z" fill="#000000" fill-rule="evenodd" fill-opacity="1" /><path clip-path="url(#clip960)" d="M 0 0 M154.515 945.249 Q150.903 945.249 149.075 948.814 Q147.269 952.356 147.269 959.485 Q147.269 966.592 149.075 970.156 Q150.903 973.698 154.515 973.698 Q158.149 973.698 159.954 970.156 Q161.783 966.592 161.783 959.485 Q161.783 952.356 159.954 948.814 Q158.149 945.249 154.515 945.249 M154.515 941.545 Q160.325 941.545 163.38 946.152 Q166.459 950.735 166.459 959.485 Q166.459 968.212 163.38 972.818 Q160.325 977.402 154.515 977.402 Q148.704 977.402 145.626 972.818 Q142.57 968.212 142.57 959.485 Q142.57 950.735 145.626 946.152 Q148.704 941.545 154.515 941.545 Z" fill="#000000" fill-rule="evenodd" fill-opacity="1" /><path clip-path="url(#clip960)" d="M 0 0 M132.316 695.447 Q135.672 696.165 137.547 698.433 Q139.445 700.702 139.445 704.035 Q139.445 709.151 135.927 711.952 Q132.408 714.753 125.927 714.753 Q123.751 714.753 121.436 714.313 Q119.144 713.896 116.691 713.04 L116.691 708.526 Q118.635 709.66 120.95 710.239 Q123.265 710.817 125.788 710.817 Q130.186 710.817 132.478 709.081 Q134.792 707.345 134.792 704.035 Q134.792 700.979 132.64 699.267 Q130.51 697.53 126.691 697.53 L122.663 697.53 L122.663 693.688 L126.876 693.688 Q130.325 693.688 132.154 692.322 Q133.982 690.933 133.982 688.341 Q133.982 685.679 132.084 684.267 Q130.209 682.831 126.691 682.831 Q124.769 682.831 122.57 683.248 Q120.371 683.665 117.732 684.544 L117.732 680.378 Q120.394 679.637 122.709 679.267 Q125.047 678.896 127.107 678.896 Q132.431 678.896 135.533 681.327 Q138.635 683.734 138.635 687.855 Q138.635 690.725 136.992 692.716 Q135.348 694.683 132.316 695.447 Z" fill="#000000" fill-rule="evenodd" fill-opacity="1" /><path clip-path="url(#clip960)" d="M 0 0 M154.515 682.6 Q150.903 682.6 149.075 686.165 Q147.269 689.706 147.269 696.836 Q147.269 703.942 149.075 707.507 Q150.903 711.049 154.515 711.049 Q158.149 711.049 159.954 707.507 Q161.783 703.942 161.783 696.836 Q161.783 689.706 159.954 686.165 Q158.149 682.6 154.515 682.6 M154.515 678.896 Q160.325 678.896 163.38 683.503 Q166.459 688.086 166.459 696.836 Q166.459 705.563 163.38 710.169 Q160.325 714.753 154.515 714.753 Q148.704 714.753 145.626 710.169 Q142.57 705.563 142.57 696.836 Q142.57 688.086 145.626 683.503 Q148.704 678.896 154.515 678.896 Z" fill="#000000" fill-rule="evenodd" fill-opacity="1" /><path clip-path="url(#clip960)" d="M 0 0 M129.862 420.946 L118.056 439.395 L129.862 439.395 L129.862 420.946 M128.635 416.872 L134.515 416.872 L134.515 439.395 L139.445 439.395 L139.445 443.284 L134.515 443.284 L134.515 451.432 L129.862 451.432 L129.862 443.284 L114.26 443.284 L114.26 438.77 L128.635 416.872 Z" fill="#000000" fill-rule="evenodd" fill-opacity="1" /><path clip-path="url(#clip960)" d="M 0 0 M154.515 419.951 Q150.903 419.951 149.075 423.516 Q147.269 427.057 147.269 434.187 Q147.269 441.293 149.075 444.858 Q150.903 448.4 154.515 448.4 Q158.149 448.4 159.954 444.858 Q161.783 441.293 161.783 434.187 Q161.783 427.057 159.954 423.516 Q158.149 419.951 154.515 419.951 M154.515 416.247 Q160.325 416.247 163.38 420.854 Q166.459 425.437 166.459 434.187 Q166.459 442.914 163.38 447.52 Q160.325 452.103 154.515 452.103 Q148.704 452.103 145.626 447.52 Q142.57 442.914 142.57 434.187 Q142.57 425.437 145.626 420.854 Q148.704 416.247 154.515 416.247 Z" fill="#000000" fill-rule="evenodd" fill-opacity="1" /><path clip-path="url(#clip960)" d="M 0 0 M118.543 154.223 L136.899 154.223 L136.899 158.158 L122.825 158.158 L122.825 166.63 Q123.843 166.283 124.862 166.121 Q125.88 165.936 126.899 165.936 Q132.686 165.936 136.066 169.107 Q139.445 172.278 139.445 177.695 Q139.445 183.274 135.973 186.376 Q132.501 189.454 126.181 189.454 Q124.005 189.454 121.737 189.084 Q119.492 188.714 117.084 187.973 L117.084 183.274 Q119.168 184.408 121.39 184.964 Q123.612 185.519 126.089 185.519 Q130.093 185.519 132.431 183.413 Q134.769 181.306 134.769 177.695 Q134.769 174.084 132.431 171.978 Q130.093 169.871 126.089 169.871 Q124.214 169.871 122.339 170.288 Q120.487 170.704 118.543 171.584 L118.543 154.223 Z" fill="#000000" fill-rule="evenodd" fill-opacity="1" /><path clip-path="url(#clip960)" d="M 0 0 M154.515 157.302 Q150.903 157.302 149.075 160.866 Q147.269 164.408 147.269 171.538 Q147.269 178.644 149.075 182.209 Q150.903 185.751 154.515 185.751 Q158.149 185.751 159.954 182.209 Q161.783 178.644 161.783 171.538 Q161.783 164.408 159.954 160.866 Q158.149 157.302 154.515 157.302 M154.515 153.598 Q160.325 153.598 163.38 158.204 Q166.459 162.788 166.459 171.538 Q166.459 180.265 163.38 184.871 Q160.325 189.454 154.515 189.454 Q148.704 189.454 145.626 184.871 Q142.57 180.265 142.57 171.538 Q142.57 162.788 145.626 158.204 Q148.704 153.598 154.515 153.598 Z" fill="#000000" fill-rule="evenodd" fill-opacity="1" /><path clip-path="url(#clip960)" d="M 0 0 M59.1993 815.533 Q55.2526 813.336 53.3747 810.281 Q51.4968 807.225 51.4968 803.088 Q51.4968 797.518 55.4117 794.494 Q59.2948 791.47 66.4881 791.47 L88.0042 791.47 L88.0042 797.358 L66.679 797.358 Q61.5546 797.358 59.072 799.173 Q56.5894 800.987 56.5894 804.711 Q56.5894 809.262 59.6131 811.904 Q62.6368 814.546 67.8567 814.546 L88.0042 814.546 L88.0042 820.434 L66.679 820.434 Q61.5228 820.434 59.072 822.248 Q56.5894 824.063 56.5894 827.85 Q56.5894 832.338 59.6449 834.98 Q62.6686 837.622 67.8567 837.622 L88.0042 837.622 L88.0042 843.51 L52.3562 843.51 L52.3562 837.622 L57.8944 837.622 Q54.616 835.616 53.0564 832.815 Q51.4968 830.015 51.4968 826.163 Q51.4968 822.28 53.4702 819.575 Q55.4436 816.838 59.1993 815.533 Z" fill="#000000" fill-rule="evenodd" fill-opacity="1" /><path clip-path="url(#clip960)" d="M 0 0 M52.3562 785.327 L52.3562 779.471 L88.0042 779.471 L88.0042 785.327 L52.3562 785.327 M38.479 785.327 L38.479 779.471 L45.895 779.471 L45.895 785.327 L38.479 785.327 Z" fill="#000000" fill-rule="evenodd" fill-opacity="1" /><path clip-path="url(#clip960)" d="M 0 0 M66.4881 743.696 L88.0042 743.696 L88.0042 749.552 L66.679 749.552 Q61.6183 749.552 59.1038 751.525 Q56.5894 753.499 56.5894 757.446 Q56.5894 762.188 59.6131 764.925 Q62.6368 767.662 67.8567 767.662 L88.0042 767.662 L88.0042 773.551 L52.3562 773.551 L52.3562 767.662 L57.8944 767.662 Q54.6797 765.562 53.0883 762.729 Q51.4968 759.864 51.4968 756.141 Q51.4968 749.998 55.3163 746.847 Q59.1038 743.696 66.4881 743.696 Z" fill="#000000" fill-rule="evenodd" fill-opacity="1" /><path clip-path="url(#clip960)" d="M 0 0 M98.8259 710.467 L103.377 710.467 L103.377 744.332 L98.8259 744.332 L98.8259 710.467 Z" fill="#000000" fill-rule="evenodd" fill-opacity="1" /><path clip-path="url(#clip960)" d="M 0 0 M57.7671 680.866 L38.479 680.866 L38.479 675.01 L88.0042 675.01 L88.0042 680.866 L82.657 680.866 Q85.8398 682.712 87.3994 685.545 Q88.9272 688.346 88.9272 692.292 Q88.9272 698.754 83.771 702.828 Q78.6147 706.87 70.212 706.87 Q61.8093 706.87 56.6531 702.828 Q51.4968 698.754 51.4968 692.292 Q51.4968 688.346 53.0564 685.545 Q54.5842 682.712 57.7671 680.866 M70.212 700.823 Q76.6732 700.823 80.3653 698.181 Q84.0256 695.507 84.0256 690.86 Q84.0256 686.213 80.3653 683.54 Q76.6732 680.866 70.212 680.866 Q63.7508 680.866 60.0905 683.54 Q56.3984 686.213 56.3984 690.86 Q56.3984 695.507 60.0905 698.181 Q63.7508 700.823 70.212 700.823 Z" fill="#000000" fill-rule="evenodd" fill-opacity="1" /><path clip-path="url(#clip960)" d="M 0 0 M52.3562 668.867 L52.3562 663.01 L88.0042 663.01 L88.0042 668.867 L52.3562 668.867 M38.479 668.867 L38.479 663.01 L45.895 663.01 L45.895 668.867 L38.479 668.867 Z" fill="#000000" fill-rule="evenodd" fill-opacity="1" /><path clip-path="url(#clip960)" d="M 0 0 M38.479 638.821 L43.3487 638.821 L43.3487 644.422 Q43.3487 647.573 44.6219 648.815 Q45.895 650.024 49.2052 650.024 L52.3562 650.024 L52.3562 640.38 L56.9077 640.38 L56.9077 650.024 L88.0042 650.024 L88.0042 655.912 L56.9077 655.912 L56.9077 661.514 L52.3562 661.514 L52.3562 655.912 L49.8736 655.912 Q43.9216 655.912 41.2162 653.143 Q38.479 650.374 38.479 644.359 L38.479 638.821 Z" fill="#000000" fill-rule="evenodd" fill-opacity="1" /><path clip-path="url(#clip960)" d="M 0 0 M38.479 614.631 L43.3487 614.631 L43.3487 620.233 Q43.3487 623.384 44.6219 624.625 Q45.895 625.835 49.2052 625.835 L52.3562 625.835 L52.3562 616.19 L56.9077 616.19 L56.9077 625.835 L88.0042 625.835 L88.0042 631.723 L56.9077 631.723 L56.9077 637.325 L52.3562 637.325 L52.3562 631.723 L49.8736 631.723 Q43.9216 631.723 41.2162 628.954 Q38.479 626.185 38.479 620.169 L38.479 614.631 Z" fill="#000000" fill-rule="evenodd" fill-opacity="1" /><polyline clip-path="url(#clip962)" style="stroke:#009af9; stroke-width:20; stroke-opacity:1; fill:none" stroke-dasharray="80, 50" points="
  263.316,85.838 553.114,338.798 842.911,857.728 1132.71,1252.35 1422.51,1372.3 1712.3,1371.13 2002.1,1355.52 2291.9,1356.44 
  "/>
<path clip-path="url(#clip960)" d="
M1991.14 213.659 L2281.08 213.659 L2281.08 92.6992 L1991.14 92.6992  Z
  " fill="#ffffff" fill-rule="evenodd" fill-opacity="1"/>
<polyline clip-path="url(#clip960)" style="stroke:#000000; stroke-width:4; stroke-opacity:1; fill:none" points="
  1991.14,213.659 2281.08,213.659 2281.08,92.6992 1991.14,92.6992 1991.14,213.659 
  "/>
<polyline clip-path="url(#clip960)" style="stroke:#009af9; stroke-width:4; stroke-opacity:1; fill:none" stroke-dasharray="16, 10" points="
  2015.03,153.179 2158.38,153.179 
  "/>
<path clip-path="url(#clip960)" d="M 0 0 M2196.12 172.867 Q2194.31 177.496 2192.6 178.908 Q2190.89 180.32 2188.02 180.32 L2184.61 180.32 L2184.61 176.755 L2187.11 176.755 Q2188.87 176.755 2189.85 175.922 Q2190.82 175.089 2192 171.987 L2192.76 170.043 L2182.28 144.533 L2186.79 144.533 L2194.89 164.811 L2202.99 144.533 L2207.51 144.533 L2196.12 172.867 Z" fill="#000000" fill-rule="evenodd" fill-opacity="1" /><path clip-path="url(#clip960)" d="M 0 0 M2213.39 166.524 L2221.03 166.524 L2221.03 140.158 L2212.72 141.825 L2212.72 137.566 L2220.98 135.899 L2225.66 135.899 L2225.66 166.524 L2233.29 166.524 L2233.29 170.459 L2213.39 170.459 L2213.39 166.524 Z" fill="#000000" fill-rule="evenodd" fill-opacity="1" /></svg>
