<?xml version="1.0" encoding="utf-8"?>
<svg xmlns="http://www.w3.org/2000/svg" xmlns:xlink="http://www.w3.org/1999/xlink" width="600" height="400" viewBox="0 0 2400 1600">
<defs>
  <clipPath id="clip410">
    <rect x="0" y="0" width="2400" height="1600"/>
  </clipPath>
</defs>
<path clip-path="url(#clip410)" d="
M0 1600 L2400 1600 L2400 0 L0 0  Z
  " fill="#ffffff" fill-rule="evenodd" fill-opacity="1"/>
<defs>
  <clipPath id="clip411">
    <rect x="480" y="0" width="1681" height="1600"/>
  </clipPath>
</defs>
<path clip-path="url(#clip410)" d="
M211.255 1410.9 L2352.76 1410.9 L2352.76 47.2441 L211.255 47.2441  Z
  " fill="#ffffff" fill-rule="evenodd" fill-opacity="1"/>
<defs>
  <clipPath id="clip412">
    <rect x="211" y="47" width="2143" height="1365"/>
  </clipPath>
</defs>
<polyline clip-path="url(#clip412)" style="stroke:#000000; stroke-width:2; stroke-opacity:0.1; fill:none" points="
  271.864,1410.9 271.864,47.2441 
  "/>
<polyline clip-path="url(#clip412)" style="stroke:#000000; stroke-width:2; stroke-opacity:0.1; fill:none" points="
  945.292,1410.9 945.292,47.2441 
  "/>
<polyline clip-path="url(#clip412)" style="stroke:#000000; stroke-width:2; stroke-opacity:0.1; fill:none" points="
  1618.72,1410.9 1618.72,47.2441 
  "/>
<polyline clip-path="url(#clip412)" style="stroke:#000000; stroke-width:2; stroke-opacity:0.1; fill:none" points="
  2292.15,1410.9 2292.15,47.2441 
  "/>
<polyline clip-path="url(#clip410)" style="stroke:#000000; stroke-width:4; stroke-opacity:1; fill:none" points="
  211.255,1410.9 2352.76,1410.9 
  "/>
<polyline clip-path="url(#clip410)" style="stroke:#000000; stroke-width:4; stroke-opacity:1; fill:none" points="
  271.864,1410.9 271.864,1394.53 
  "/>
<polyline clip-path="url(#clip410)" style="stroke:#000000; stroke-width:4; stroke-opacity:1; fill:none" points="
  945.292,1410.9 945.292,1394.53 
  "/>
<polyline clip-path="url(#clip410)" style="stroke:#000000; stroke-width:4; stroke-opacity:1; fill:none" points="
  1618.72,1410.9 1618.72,1394.53 
  "/>
<polyline clip-path="url(#clip410)" style="stroke:#000000; stroke-width:4; stroke-opacity:1; fill:none" points="
  2292.15,1410.9 2292.15,1394.53 
  "/>
<path clip-path="url(#clip410)" d="M 0 0 M225.643 1489.17 L233.282 1489.17 L233.282 1462.8 L224.972 1464.47 L224.972 1460.21 L233.235 1458.54 L237.911 1458.54 L237.911 1489.17 L245.55 1489.17 L245.55 1493.1 L225.643 1493.1 L225.643 1489.17 Z" fill="#000000" fill-rule="evenodd" fill-opacity="1" /><path clip-path="url(#clip410)" d="M 0 0 M260.62 1461.62 Q257.008 1461.62 255.18 1465.19 Q253.374 1468.73 253.374 1475.86 Q253.374 1482.97 255.18 1486.53 Q257.008 1490.07 260.62 1490.07 Q264.254 1490.07 266.059 1486.53 Q267.888 1482.97 267.888 1475.86 Q267.888 1468.73 266.059 1465.19 Q264.254 1461.62 260.62 1461.62 M260.62 1457.92 Q266.43 1457.92 269.485 1462.53 Q272.564 1467.11 272.564 1475.86 Q272.564 1484.59 269.485 1489.19 Q266.43 1493.78 260.62 1493.78 Q254.809 1493.78 251.731 1489.19 Q248.675 1484.59 248.675 1475.86 Q248.675 1467.11 251.731 1462.53 Q254.809 1457.92 260.62 1457.92 Z" fill="#000000" fill-rule="evenodd" fill-opacity="1" /><path clip-path="url(#clip410)" d="M 0 0 M272.564 1452.02 L296.675 1452.02 L296.675 1455.22 L272.564 1455.22 L272.564 1452.02 Z" fill="#000000" fill-rule="evenodd" fill-opacity="1" /><path clip-path="url(#clip410)" d="M 0 0 M309.39 1450.14 Q306.832 1450.14 305.327 1451.89 Q303.841 1453.64 303.841 1456.68 Q303.841 1459.71 305.327 1461.48 Q306.832 1463.23 309.39 1463.23 Q311.947 1463.23 313.433 1461.48 Q314.938 1459.71 314.938 1456.68 Q314.938 1453.64 313.433 1451.89 Q311.947 1450.14 309.39 1450.14 M316.931 1438.23 L316.931 1441.69 Q315.502 1441.02 314.035 1440.66 Q312.587 1440.3 311.157 1440.3 Q307.396 1440.3 305.402 1442.84 Q303.427 1445.38 303.145 1450.52 Q304.255 1448.88 305.929 1448.01 Q307.603 1447.13 309.615 1447.13 Q313.847 1447.13 316.292 1449.71 Q318.756 1452.26 318.756 1456.68 Q318.756 1461.01 316.198 1463.62 Q313.64 1466.24 309.39 1466.24 Q304.518 1466.24 301.942 1462.51 Q299.365 1458.77 299.365 1451.68 Q299.365 1445.02 302.525 1441.07 Q305.684 1437.11 311.007 1437.11 Q312.436 1437.11 313.885 1437.39 Q315.352 1437.67 316.931 1438.23 Z" fill="#000000" fill-rule="evenodd" fill-opacity="1" /><path clip-path="url(#clip410)" d="M 0 0 M899.541 1489.17 L907.18 1489.17 L907.18 1462.8 L898.87 1464.47 L898.87 1460.21 L907.134 1458.54 L911.809 1458.54 L911.809 1489.17 L919.448 1489.17 L919.448 1493.1 L899.541 1493.1 L899.541 1489.17 Z" fill="#000000" fill-rule="evenodd" fill-opacity="1" /><path clip-path="url(#clip410)" d="M 0 0 M934.518 1461.62 Q930.907 1461.62 929.078 1465.19 Q927.272 1468.73 927.272 1475.86 Q927.272 1482.97 929.078 1486.53 Q930.907 1490.07 934.518 1490.07 Q938.152 1490.07 939.957 1486.53 Q941.786 1482.97 941.786 1475.86 Q941.786 1468.73 939.957 1465.19 Q938.152 1461.62 934.518 1461.62 M934.518 1457.92 Q940.328 1457.92 943.383 1462.53 Q946.462 1467.11 946.462 1475.86 Q946.462 1484.59 943.383 1489.19 Q940.328 1493.78 934.518 1493.78 Q928.707 1493.78 925.629 1489.19 Q922.573 1484.59 922.573 1475.86 Q922.573 1467.11 925.629 1462.53 Q928.707 1457.92 934.518 1457.92 Z" fill="#000000" fill-rule="evenodd" fill-opacity="1" /><path clip-path="url(#clip410)" d="M 0 0 M946.462 1452.02 L970.574 1452.02 L970.574 1455.22 L946.462 1455.22 L946.462 1452.02 Z" fill="#000000" fill-rule="evenodd" fill-opacity="1" /><path clip-path="url(#clip410)" d="M 0 0 M974.73 1437.61 L989.645 1437.61 L989.645 1440.81 L978.21 1440.81 L978.21 1447.69 Q979.037 1447.41 979.865 1447.28 Q980.692 1447.13 981.52 1447.13 Q986.222 1447.13 988.968 1449.71 Q991.714 1452.28 991.714 1456.68 Q991.714 1461.22 988.892 1463.74 Q986.071 1466.24 980.937 1466.24 Q979.169 1466.24 977.326 1465.94 Q975.501 1465.64 973.545 1465.04 L973.545 1461.22 Q975.238 1462.14 977.043 1462.59 Q978.849 1463.04 980.861 1463.04 Q984.115 1463.04 986.015 1461.33 Q987.914 1459.62 987.914 1456.68 Q987.914 1453.75 986.015 1452.04 Q984.115 1450.33 980.861 1450.33 Q979.338 1450.33 977.815 1450.67 Q976.31 1451 974.73 1451.72 L974.73 1437.61 Z" fill="#000000" fill-rule="evenodd" fill-opacity="1" /><path clip-path="url(#clip410)" d="M 0 0 M1572.37 1489.17 L1580.01 1489.17 L1580.01 1462.8 L1571.7 1464.47 L1571.7 1460.21 L1579.96 1458.54 L1584.64 1458.54 L1584.64 1489.17 L1592.27 1489.17 L1592.27 1493.1 L1572.37 1493.1 L1572.37 1489.17 Z" fill="#000000" fill-rule="evenodd" fill-opacity="1" /><path clip-path="url(#clip410)" d="M 0 0 M1607.34 1461.62 Q1603.73 1461.62 1601.9 1465.19 Q1600.1 1468.73 1600.1 1475.86 Q1600.1 1482.97 1601.9 1486.53 Q1603.73 1490.07 1607.34 1490.07 Q1610.98 1490.07 1612.78 1486.53 Q1614.61 1482.97 1614.61 1475.86 Q1614.61 1468.73 1612.78 1465.19 Q1610.98 1461.62 1607.34 1461.62 M1607.34 1457.92 Q1613.15 1457.92 1616.21 1462.53 Q1619.29 1467.11 1619.29 1475.86 Q1619.29 1484.59 1616.21 1489.19 Q1613.15 1493.78 1607.34 1493.78 Q1601.53 1493.78 1598.45 1489.19 Q1595.4 1484.59 1595.4 1475.86 Q1595.4 1467.11 1598.45 1462.53 Q1601.53 1457.92 1607.34 1457.92 Z" fill="#000000" fill-rule="evenodd" fill-opacity="1" /><path clip-path="url(#clip410)" d="M 0 0 M1619.29 1452.02 L1643.4 1452.02 L1643.4 1455.22 L1619.29 1455.22 L1619.29 1452.02 Z" fill="#000000" fill-rule="evenodd" fill-opacity="1" /><path clip-path="url(#clip410)" d="M 0 0 M1657.96 1440.92 L1648.36 1455.91 L1657.96 1455.91 L1657.96 1440.92 M1656.96 1437.61 L1661.74 1437.61 L1661.74 1455.91 L1665.74 1455.91 L1665.74 1459.07 L1661.74 1459.07 L1661.74 1465.69 L1657.96 1465.69 L1657.96 1459.07 L1645.28 1459.07 L1645.28 1455.41 L1656.96 1437.61 Z" fill="#000000" fill-rule="evenodd" fill-opacity="1" /><path clip-path="url(#clip410)" d="M 0 0 M2246.26 1489.17 L2253.89 1489.17 L2253.89 1462.8 L2245.58 1464.47 L2245.58 1460.21 L2253.85 1458.54 L2258.52 1458.54 L2258.52 1489.17 L2266.16 1489.17 L2266.16 1493.1 L2246.26 1493.1 L2246.26 1489.17 Z" fill="#000000" fill-rule="evenodd" fill-opacity="1" /><path clip-path="url(#clip410)" d="M 0 0 M2281.23 1461.62 Q2277.62 1461.62 2275.79 1465.19 Q2273.99 1468.73 2273.99 1475.86 Q2273.99 1482.97 2275.79 1486.53 Q2277.62 1490.07 2281.23 1490.07 Q2284.87 1490.07 2286.67 1486.53 Q2288.5 1482.97 2288.5 1475.86 Q2288.5 1468.73 2286.67 1465.19 Q2284.87 1461.62 2281.23 1461.62 M2281.23 1457.92 Q2287.04 1457.92 2290.1 1462.53 Q2293.18 1467.11 2293.18 1475.86 Q2293.18 1484.59 2290.1 1489.19 Q2287.04 1493.78 2281.23 1493.78 Q2275.42 1493.78 2272.34 1489.19 Q2269.29 1484.59 2269.29 1475.86 Q2269.29 1467.11 2272.34 1462.53 Q2275.42 1457.92 2281.23 1457.92 Z" fill="#000000" fill-rule="evenodd" fill-opacity="1" /><path clip-path="url(#clip410)" d="M 0 0 M2293.18 1452.02 L2317.29 1452.02 L2317.29 1455.22 L2293.18 1455.22 L2293.18 1452.02 Z" fill="#000000" fill-rule="evenodd" fill-opacity="1" /><path clip-path="url(#clip410)" d="M 0 0 M2332.92 1450.55 Q2335.64 1451.14 2337.17 1452.98 Q2338.71 1454.82 2338.71 1457.53 Q2338.71 1461.69 2335.85 1463.96 Q2332.99 1466.24 2327.73 1466.24 Q2325.96 1466.24 2324.08 1465.88 Q2322.22 1465.54 2320.22 1464.85 L2320.22 1461.18 Q2321.8 1462.1 2323.68 1462.57 Q2325.56 1463.04 2327.61 1463.04 Q2331.19 1463.04 2333.05 1461.63 Q2334.93 1460.22 2334.93 1457.53 Q2334.93 1455.05 2333.18 1453.66 Q2331.45 1452.25 2328.35 1452.25 L2325.07 1452.25 L2325.07 1449.12 L2328.5 1449.12 Q2331.3 1449.12 2332.79 1448.01 Q2334.27 1446.89 2334.27 1444.78 Q2334.27 1442.62 2332.73 1441.47 Q2331.21 1440.3 2328.35 1440.3 Q2326.79 1440.3 2325 1440.64 Q2323.21 1440.98 2321.07 1441.69 L2321.07 1438.31 Q2323.23 1437.71 2325.11 1437.41 Q2327.01 1437.11 2328.69 1437.11 Q2333.01 1437.11 2335.53 1439.08 Q2338.05 1441.04 2338.05 1444.38 Q2338.05 1446.72 2336.72 1448.33 Q2335.38 1449.93 2332.92 1450.55 Z" fill="#000000" fill-rule="evenodd" fill-opacity="1" /><path clip-path="url(#clip410)" d="M 0 0 M1174.78 1526.54 L1180.98 1526.54 L1192.12 1556.46 L1203.26 1526.54 L1209.47 1526.54 L1196.1 1562.19 L1188.14 1562.19 L1174.78 1526.54 Z" fill="#000000" fill-rule="evenodd" fill-opacity="1" /><path clip-path="url(#clip410)" d="M 0 0 M1242.7 1573.01 L1242.7 1577.56 L1208.83 1577.56 L1208.83 1573.01 L1242.7 1573.01 Z" fill="#000000" fill-rule="evenodd" fill-opacity="1" /><path clip-path="url(#clip410)" d="M 0 0 M1262.65 1530.64 Q1257.94 1530.64 1255.21 1534.34 Q1252.47 1538 1252.47 1544.39 Q1252.47 1550.79 1255.17 1554.48 Q1257.91 1558.14 1262.65 1558.14 Q1267.33 1558.14 1270.07 1554.45 Q1272.81 1550.76 1272.81 1544.39 Q1272.81 1538.06 1270.07 1534.37 Q1267.33 1530.64 1262.65 1530.64 M1262.65 1525.68 Q1270.29 1525.68 1274.65 1530.64 Q1279.01 1535.61 1279.01 1544.39 Q1279.01 1553.15 1274.65 1558.14 Q1270.29 1563.11 1262.65 1563.11 Q1254.98 1563.11 1250.62 1558.14 Q1246.29 1553.15 1246.29 1544.39 Q1246.29 1535.61 1250.62 1530.64 Q1254.98 1525.68 1262.65 1525.68 Z" fill="#000000" fill-rule="evenodd" fill-opacity="1" /><path clip-path="url(#clip410)" d="M 0 0 M1290.82 1556.84 L1290.82 1575.74 L1284.93 1575.74 L1284.93 1526.54 L1290.82 1526.54 L1290.82 1531.95 Q1292.67 1528.77 1295.47 1527.24 Q1298.3 1525.68 1302.22 1525.68 Q1308.71 1525.68 1312.75 1530.83 Q1316.83 1535.99 1316.83 1544.39 Q1316.83 1552.8 1312.75 1557.95 Q1308.71 1563.11 1302.22 1563.11 Q1298.3 1563.11 1295.47 1561.58 Q1292.67 1560.02 1290.82 1556.84 M1310.75 1544.39 Q1310.75 1537.93 1308.07 1534.27 Q1305.43 1530.58 1300.78 1530.58 Q1296.14 1530.58 1293.46 1534.27 Q1290.82 1537.93 1290.82 1544.39 Q1290.82 1550.85 1293.46 1554.55 Q1296.14 1558.21 1300.78 1558.21 Q1305.43 1558.21 1308.07 1554.55 Q1310.75 1550.85 1310.75 1544.39 Z" fill="#000000" fill-rule="evenodd" fill-opacity="1" /><path clip-path="url(#clip410)" d="M 0 0 M1353.46 1542.9 L1353.46 1545.76 L1326.53 1545.76 Q1326.92 1551.81 1330.16 1554.99 Q1333.44 1558.14 1339.27 1558.14 Q1342.64 1558.14 1345.79 1557.32 Q1348.97 1556.49 1352.09 1554.83 L1352.09 1560.37 Q1348.94 1561.71 1345.63 1562.41 Q1342.32 1563.11 1338.91 1563.11 Q1330.38 1563.11 1325.39 1558.14 Q1320.42 1553.18 1320.42 1544.71 Q1320.42 1535.96 1325.13 1530.83 Q1329.88 1525.68 1337.9 1525.68 Q1345.09 1525.68 1349.26 1530.33 Q1353.46 1534.94 1353.46 1542.9 M1347.6 1541.18 Q1347.54 1536.37 1344.9 1533.51 Q1342.29 1530.64 1337.96 1530.64 Q1333.06 1530.64 1330.1 1533.41 Q1327.17 1536.18 1326.72 1541.21 L1347.6 1541.18 Z" fill="#000000" fill-rule="evenodd" fill-opacity="1" /><path clip-path="url(#clip410)" d="M 0 0 M1389.24 1540.67 L1389.24 1562.19 L1383.38 1562.19 L1383.38 1540.86 Q1383.38 1535.8 1381.41 1533.29 Q1379.43 1530.77 1375.49 1530.77 Q1370.74 1530.77 1368.01 1533.79 Q1365.27 1536.82 1365.27 1542.04 L1365.27 1562.19 L1359.38 1562.19 L1359.38 1526.54 L1365.27 1526.54 L1365.27 1532.08 Q1367.37 1528.86 1370.2 1527.27 Q1373.07 1525.68 1376.79 1525.68 Q1382.93 1525.68 1386.08 1529.5 Q1389.24 1533.29 1389.24 1540.67 Z" fill="#000000" fill-rule="evenodd" fill-opacity="1" /><polyline clip-path="url(#clip412)" style="stroke:#000000; stroke-width:2; stroke-opacity:0.1; fill:none" points="
  211.255,1231.48 2352.76,1231.48 
  "/>
<polyline clip-path="url(#clip412)" style="stroke:#000000; stroke-width:2; stroke-opacity:0.1; fill:none" points="
  211.255,963.857 2352.76,963.857 
  "/>
<polyline clip-path="url(#clip412)" style="stroke:#000000; stroke-width:2; stroke-opacity:0.1; fill:none" points="
  211.255,696.234 2352.76,696.234 
  "/>
<polyline clip-path="url(#clip412)" style="stroke:#000000; stroke-width:2; stroke-opacity:0.1; fill:none" points="
  211.255,428.61 2352.76,428.61 
  "/>
<polyline clip-path="url(#clip412)" style="stroke:#000000; stroke-width:2; stroke-opacity:0.1; fill:none" points="
  211.255,160.986 2352.76,160.986 
  "/>
<polyline clip-path="url(#clip410)" style="stroke:#000000; stroke-width:4; stroke-opacity:1; fill:none" points="
  211.255,1410.9 211.255,47.2441 
  "/>
<polyline clip-path="url(#clip410)" style="stroke:#000000; stroke-width:4; stroke-opacity:1; fill:none" points="
  211.255,1231.48 236.953,1231.48 
  "/>
<polyline clip-path="url(#clip410)" style="stroke:#000000; stroke-width:4; stroke-opacity:1; fill:none" points="
  211.255,963.857 236.953,963.857 
  "/>
<polyline clip-path="url(#clip410)" style="stroke:#000000; stroke-width:4; stroke-opacity:1; fill:none" points="
  211.255,696.234 236.953,696.234 
  "/>
<polyline clip-path="url(#clip410)" style="stroke:#000000; stroke-width:4; stroke-opacity:1; fill:none" points="
  211.255,428.61 236.953,428.61 
  "/>
<polyline clip-path="url(#clip410)" style="stroke:#000000; stroke-width:4; stroke-opacity:1; fill:none" points="
  211.255,160.986 236.953,160.986 
  "/>
<path clip-path="url(#clip410)" d="M 0 0 M118.288 1214.2 L136.644 1214.2 L136.644 1218.14 L122.57 1218.14 L122.57 1226.61 Q123.589 1226.26 124.607 1226.1 Q125.626 1225.91 126.644 1225.91 Q132.431 1225.91 135.811 1229.09 Q139.191 1232.26 139.191 1237.67 Q139.191 1243.25 135.718 1246.35 Q132.246 1249.43 125.927 1249.43 Q123.751 1249.43 121.482 1249.06 Q119.237 1248.69 116.83 1247.95 L116.83 1243.25 Q118.913 1244.39 121.135 1244.94 Q123.357 1245.5 125.834 1245.5 Q129.839 1245.5 132.177 1243.39 Q134.515 1241.28 134.515 1237.67 Q134.515 1234.06 132.177 1231.96 Q129.839 1229.85 125.834 1229.85 Q123.959 1229.85 122.084 1230.27 Q120.232 1230.68 118.288 1231.56 L118.288 1214.2 Z" fill="#000000" fill-rule="evenodd" fill-opacity="1" /><path clip-path="url(#clip410)" d="M 0 0 M144.26 1242.88 L149.144 1242.88 L149.144 1248.76 L144.26 1248.76 L144.26 1242.88 Z" fill="#000000" fill-rule="evenodd" fill-opacity="1" /><path clip-path="url(#clip410)" d="M 0 0 M153.033 1214.2 L175.255 1214.2 L175.255 1216.19 L162.709 1248.76 L157.825 1248.76 L169.63 1218.14 L153.033 1218.14 L153.033 1214.2 Z" fill="#000000" fill-rule="evenodd" fill-opacity="1" /><path clip-path="url(#clip410)" d="M 0 0 M126.76 961.994 Q123.612 961.994 121.76 964.147 Q119.931 966.3 119.931 970.049 Q119.931 973.776 121.76 975.952 Q123.612 978.105 126.76 978.105 Q129.908 978.105 131.737 975.952 Q133.589 973.776 133.589 970.049 Q133.589 966.3 131.737 964.147 Q129.908 961.994 126.76 961.994 M136.042 947.341 L136.042 951.601 Q134.283 950.767 132.478 950.327 Q130.695 949.888 128.936 949.888 Q124.306 949.888 121.853 953.013 Q119.422 956.138 119.075 962.457 Q120.441 960.443 122.501 959.378 Q124.561 958.29 127.038 958.29 Q132.246 958.29 135.255 961.462 Q138.288 964.61 138.288 970.049 Q138.288 975.374 135.14 978.591 Q131.992 981.809 126.76 981.809 Q120.765 981.809 117.593 977.225 Q114.422 972.619 114.422 963.892 Q114.422 955.698 118.311 950.837 Q122.2 945.952 128.751 945.952 Q130.51 945.952 132.292 946.3 Q134.098 946.647 136.042 947.341 Z" fill="#000000" fill-rule="evenodd" fill-opacity="1" /><path clip-path="url(#clip410)" d="M 0 0 M143.357 975.258 L148.241 975.258 L148.241 981.137 L143.357 981.137 L143.357 975.258 Z" fill="#000000" fill-rule="evenodd" fill-opacity="1" /><path clip-path="url(#clip410)" d="M 0 0 M163.311 949.656 Q159.7 949.656 157.871 953.221 Q156.065 956.763 156.065 963.892 Q156.065 970.999 157.871 974.563 Q159.7 978.105 163.311 978.105 Q166.945 978.105 168.751 974.563 Q170.579 970.999 170.579 963.892 Q170.579 956.763 168.751 953.221 Q166.945 949.656 163.311 949.656 M163.311 945.952 Q169.121 945.952 172.177 950.559 Q175.255 955.142 175.255 963.892 Q175.255 972.619 172.177 977.225 Q169.121 981.809 163.311 981.809 Q157.501 981.809 154.422 977.225 Q151.366 972.619 151.366 963.892 Q151.366 955.142 154.422 950.559 Q157.501 945.952 163.311 945.952 Z" fill="#000000" fill-rule="evenodd" fill-opacity="1" /><path clip-path="url(#clip410)" d="M 0 0 M127.408 694.37 Q124.26 694.37 122.408 696.523 Q120.58 698.676 120.58 702.426 Q120.58 706.153 122.408 708.328 Q124.26 710.481 127.408 710.481 Q130.556 710.481 132.385 708.328 Q134.237 706.153 134.237 702.426 Q134.237 698.676 132.385 696.523 Q130.556 694.37 127.408 694.37 M136.691 679.717 L136.691 683.977 Q134.931 683.143 133.126 682.704 Q131.343 682.264 129.584 682.264 Q124.955 682.264 122.501 685.389 Q120.07 688.514 119.723 694.833 Q121.089 692.819 123.149 691.754 Q125.209 690.666 127.686 690.666 Q132.894 690.666 135.904 693.838 Q138.936 696.986 138.936 702.426 Q138.936 707.75 135.788 710.967 Q132.64 714.185 127.408 714.185 Q121.413 714.185 118.242 709.602 Q115.07 704.995 115.07 696.268 Q115.07 688.074 118.959 683.213 Q122.848 678.329 129.399 678.329 Q131.158 678.329 132.941 678.676 Q134.746 679.023 136.691 679.717 Z" fill="#000000" fill-rule="evenodd" fill-opacity="1" /><path clip-path="url(#clip410)" d="M 0 0 M144.005 707.634 L148.89 707.634 L148.89 713.514 L144.005 713.514 L144.005 707.634 Z" fill="#000000" fill-rule="evenodd" fill-opacity="1" /><path clip-path="url(#clip410)" d="M 0 0 M168.126 694.879 Q171.482 695.597 173.357 697.866 Q175.255 700.134 175.255 703.467 Q175.255 708.583 171.737 711.384 Q168.218 714.185 161.737 714.185 Q159.561 714.185 157.246 713.745 Q154.954 713.328 152.501 712.472 L152.501 707.958 Q154.445 709.092 156.76 709.671 Q159.075 710.25 161.598 710.25 Q165.996 710.25 168.288 708.514 Q170.602 706.778 170.602 703.467 Q170.602 700.412 168.45 698.699 Q166.32 696.963 162.501 696.963 L158.473 696.963 L158.473 693.12 L162.686 693.12 Q166.135 693.12 167.964 691.754 Q169.792 690.366 169.792 687.773 Q169.792 685.111 167.894 683.699 Q166.019 682.264 162.501 682.264 Q160.579 682.264 158.38 682.68 Q156.181 683.097 153.542 683.977 L153.542 679.81 Q156.204 679.069 158.519 678.699 Q160.857 678.329 162.917 678.329 Q168.241 678.329 171.343 680.759 Q174.445 683.167 174.445 687.287 Q174.445 690.157 172.802 692.148 Q171.158 694.116 168.126 694.879 Z" fill="#000000" fill-rule="evenodd" fill-opacity="1" /><path clip-path="url(#clip410)" d="M 0 0 M126.598 426.746 Q123.45 426.746 121.598 428.899 Q119.769 431.052 119.769 434.802 Q119.769 438.529 121.598 440.705 Q123.45 442.857 126.598 442.857 Q129.746 442.857 131.575 440.705 Q133.427 438.529 133.427 434.802 Q133.427 431.052 131.575 428.899 Q129.746 426.746 126.598 426.746 M135.88 412.094 L135.88 416.353 Q134.121 415.52 132.316 415.08 Q130.533 414.64 128.774 414.64 Q124.144 414.64 121.691 417.765 Q119.26 420.89 118.913 427.209 Q120.279 425.195 122.339 424.131 Q124.399 423.043 126.876 423.043 Q132.084 423.043 135.093 426.214 Q138.126 429.362 138.126 434.802 Q138.126 440.126 134.978 443.344 Q131.83 446.561 126.598 446.561 Q120.603 446.561 117.431 441.978 Q114.26 437.371 114.26 428.645 Q114.26 420.45 118.149 415.589 Q122.038 410.705 128.589 410.705 Q130.348 410.705 132.13 411.052 Q133.936 411.399 135.88 412.094 Z" fill="#000000" fill-rule="evenodd" fill-opacity="1" /><path clip-path="url(#clip410)" d="M 0 0 M143.195 440.01 L148.079 440.01 L148.079 445.89 L143.195 445.89 L143.195 440.01 Z" fill="#000000" fill-rule="evenodd" fill-opacity="1" /><path clip-path="url(#clip410)" d="M 0 0 M163.727 426.746 Q160.579 426.746 158.728 428.899 Q156.899 431.052 156.899 434.802 Q156.899 438.529 158.728 440.705 Q160.579 442.857 163.727 442.857 Q166.876 442.857 168.704 440.705 Q170.556 438.529 170.556 434.802 Q170.556 431.052 168.704 428.899 Q166.876 426.746 163.727 426.746 M173.01 412.094 L173.01 416.353 Q171.251 415.52 169.445 415.08 Q167.663 414.64 165.903 414.64 Q161.274 414.64 158.82 417.765 Q156.39 420.89 156.042 427.209 Q157.408 425.195 159.468 424.131 Q161.528 423.043 164.005 423.043 Q169.214 423.043 172.223 426.214 Q175.255 429.362 175.255 434.802 Q175.255 440.126 172.107 443.344 Q168.959 446.561 163.727 446.561 Q157.732 446.561 154.561 441.978 Q151.39 437.371 151.39 428.645 Q151.39 420.45 155.278 415.589 Q159.167 410.705 165.718 410.705 Q167.477 410.705 169.26 411.052 Q171.065 411.399 173.01 412.094 Z" fill="#000000" fill-rule="evenodd" fill-opacity="1" /><path clip-path="url(#clip410)" d="M 0 0 M126.945 159.123 Q123.797 159.123 121.945 161.275 Q120.117 163.428 120.117 167.178 Q120.117 170.905 121.945 173.081 Q123.797 175.234 126.945 175.234 Q130.093 175.234 131.922 173.081 Q133.774 170.905 133.774 167.178 Q133.774 163.428 131.922 161.275 Q130.093 159.123 126.945 159.123 M136.228 144.47 L136.228 148.729 Q134.468 147.896 132.663 147.456 Q130.88 147.016 129.121 147.016 Q124.492 147.016 122.038 150.141 Q119.607 153.266 119.26 159.586 Q120.626 157.572 122.686 156.507 Q124.746 155.419 127.223 155.419 Q132.431 155.419 135.441 158.59 Q138.473 161.738 138.473 167.178 Q138.473 172.502 135.325 175.72 Q132.177 178.937 126.945 178.937 Q120.95 178.937 117.779 174.354 Q114.607 169.748 114.607 161.021 Q114.607 152.826 118.496 147.965 Q122.385 143.081 128.936 143.081 Q130.695 143.081 132.478 143.428 Q134.283 143.775 136.228 144.47 Z" fill="#000000" fill-rule="evenodd" fill-opacity="1" /><path clip-path="url(#clip410)" d="M 0 0 M143.542 172.386 L148.427 172.386 L148.427 178.266 L143.542 178.266 L143.542 172.386 Z" fill="#000000" fill-rule="evenodd" fill-opacity="1" /><path clip-path="url(#clip410)" d="M 0 0 M153.635 177.548 L153.635 173.289 Q155.394 174.122 157.2 174.562 Q159.005 175.002 160.741 175.002 Q165.371 175.002 167.802 171.9 Q170.255 168.775 170.602 162.433 Q169.26 164.423 167.2 165.488 Q165.14 166.553 162.64 166.553 Q157.454 166.553 154.422 163.428 Q151.413 160.28 151.413 154.84 Q151.413 149.516 154.561 146.299 Q157.709 143.081 162.94 143.081 Q168.936 143.081 172.084 147.687 Q175.255 152.271 175.255 161.021 Q175.255 169.192 171.366 174.076 Q167.501 178.937 160.95 178.937 Q159.19 178.937 157.385 178.59 Q155.579 178.243 153.635 177.548 M162.94 162.896 Q166.089 162.896 167.917 160.743 Q169.769 158.59 169.769 154.84 Q169.769 151.113 167.917 148.961 Q166.089 146.785 162.94 146.785 Q159.792 146.785 157.94 148.961 Q156.112 151.113 156.112 154.84 Q156.112 158.59 157.94 160.743 Q159.792 162.896 162.94 162.896 Z" fill="#000000" fill-rule="evenodd" fill-opacity="1" /><path clip-path="url(#clip410)" d="M 0 0 M59.1993 815.533 Q55.2526 813.336 53.3747 810.281 Q51.4968 807.225 51.4968 803.088 Q51.4968 797.518 55.4117 794.494 Q59.2948 791.47 66.4881 791.47 L88.0042 791.47 L88.0042 797.358 L66.679 797.358 Q61.5546 797.358 59.072 799.173 Q56.5894 800.987 56.5894 804.711 Q56.5894 809.262 59.6131 811.904 Q62.6368 814.546 67.8567 814.546 L88.0042 814.546 L88.0042 820.434 L66.679 820.434 Q61.5228 820.434 59.072 822.248 Q56.5894 824.063 56.5894 827.85 Q56.5894 832.338 59.6449 834.98 Q62.6686 837.622 67.8567 837.622 L88.0042 837.622 L88.0042 843.51 L52.3562 843.51 L52.3562 837.622 L57.8944 837.622 Q54.616 835.616 53.0564 832.815 Q51.4968 830.015 51.4968 826.163 Q51.4968 822.28 53.4702 819.575 Q55.4436 816.838 59.1993 815.533 Z" fill="#000000" fill-rule="evenodd" fill-opacity="1" /><path clip-path="url(#clip410)" d="M 0 0 M52.3562 785.327 L52.3562 779.471 L88.0042 779.471 L88.0042 785.327 L52.3562 785.327 M38.479 785.327 L38.479 779.471 L45.895 779.471 L45.895 785.327 L38.479 785.327 Z" fill="#000000" fill-rule="evenodd" fill-opacity="1" /><path clip-path="url(#clip410)" d="M 0 0 M66.4881 743.696 L88.0042 743.696 L88.0042 749.552 L66.679 749.552 Q61.6183 749.552 59.1038 751.525 Q56.5894 753.499 56.5894 757.446 Q56.5894 762.188 59.6131 764.925 Q62.6368 767.662 67.8567 767.662 L88.0042 767.662 L88.0042 773.551 L52.3562 773.551 L52.3562 767.662 L57.8944 767.662 Q54.6797 765.562 53.0883 762.729 Q51.4968 759.864 51.4968 756.141 Q51.4968 749.998 55.3163 746.847 Q59.1038 743.696 66.4881 743.696 Z" fill="#000000" fill-rule="evenodd" fill-opacity="1" /><path clip-path="url(#clip410)" d="M 0 0 M98.8259 710.467 L103.377 710.467 L103.377 744.332 L98.8259 744.332 L98.8259 710.467 Z" fill="#000000" fill-rule="evenodd" fill-opacity="1" /><path clip-path="url(#clip410)" d="M 0 0 M57.7671 680.866 L38.479 680.866 L38.479 675.01 L88.0042 675.01 L88.0042 680.866 L82.657 680.866 Q85.8398 682.712 87.3994 685.545 Q88.9272 688.346 88.9272 692.292 Q88.9272 698.754 83.771 702.828 Q78.6147 706.87 70.212 706.87 Q61.8093 706.87 56.6531 702.828 Q51.4968 698.754 51.4968 692.292 Q51.4968 688.346 53.0564 685.545 Q54.5842 682.712 57.7671 680.866 M70.212 700.823 Q76.6732 700.823 80.3653 698.181 Q84.0256 695.507 84.0256 690.86 Q84.0256 686.213 80.3653 683.54 Q76.6732 680.866 70.212 680.866 Q63.7508 680.866 60.0905 683.54 Q56.3984 686.213 56.3984 690.86 Q56.3984 695.507 60.0905 698.181 Q63.7508 700.823 70.212 700.823 Z" fill="#000000" fill-rule="evenodd" fill-opacity="1" /><path clip-path="url(#clip410)" d="M 0 0 M52.3562 668.867 L52.3562 663.01 L88.0042 663.01 L88.0042 668.867 L52.3562 668.867 M38.479 668.867 L38.479 663.01 L45.895 663.01 L45.895 668.867 L38.479 668.867 Z" fill="#000000" fill-rule="evenodd" fill-opacity="1" /><path clip-path="url(#clip410)" d="M 0 0 M38.479 638.821 L43.3487 638.821 L43.3487 644.422 Q43.3487 647.573 44.6219 648.815 Q45.895 650.024 49.2052 650.024 L52.3562 650.024 L52.3562 640.38 L56.9077 640.38 L56.9077 650.024 L88.0042 650.024 L88.0042 655.912 L56.9077 655.912 L56.9077 661.514 L52.3562 661.514 L52.3562 655.912 L49.8736 655.912 Q43.9216 655.912 41.2162 653.143 Q38.479 650.374 38.479 644.359 L38.479 638.821 Z" fill="#000000" fill-rule="evenodd" fill-opacity="1" /><path clip-path="url(#clip410)" d="M 0 0 M38.479 614.631 L43.3487 614.631 L43.3487 620.233 Q43.3487 623.384 44.6219 624.625 Q45.895 625.835 49.2052 625.835 L52.3562 625.835 L52.3562 616.19 L56.9077 616.19 L56.9077 625.835 L88.0042 625.835 L88.0042 631.723 L56.9077 631.723 L56.9077 637.325 L52.3562 637.325 L52.3562 631.723 L49.8736 631.723 Q43.9216 631.723 41.2162 628.954 Q38.479 626.185 38.479 620.169 L38.479 614.631 Z" fill="#000000" fill-rule="evenodd" fill-opacity="1" /><polyline clip-path="url(#clip412)" style="stroke:#009af9; stroke-width:20; stroke-opacity:1; fill:none" stroke-dasharray="80, 50" points="
  271.864,1111.51 271.864,1069.85 608.578,213.246 945.292,1372.3 1282.01,556.526 1618.72,1113.03 1955.43,1190.16 2292.15,85.838 
  "/>
<path clip-path="url(#clip410)" d="
M1992.41 213.659 L2281.37 213.659 L2281.37 92.6992 L1992.41 92.6992  Z
  " fill="#ffffff" fill-rule="evenodd" fill-opacity="1"/>
<polyline clip-path="url(#clip410)" style="stroke:#000000; stroke-width:4; stroke-opacity:1; fill:none" points="
  1992.41,213.659 2281.37,213.659 2281.37,92.6992 1992.41,92.6992 1992.41,213.659 
  "/>
<polyline clip-path="url(#clip410)" style="stroke:#009af9; stroke-width:4; stroke-opacity:1; fill:none" stroke-dasharray="16, 10" points="
  2016.2,153.179 2158.97,153.179 
  "/>
<path clip-path="url(#clip410)" d="M 0 0 M2196.61 172.867 Q2194.8 177.496 2193.09 178.908 Q2191.38 180.32 2188.51 180.32 L2185.1 180.32 L2185.1 176.755 L2187.6 176.755 Q2189.36 176.755 2190.33 175.922 Q2191.31 175.089 2192.49 171.987 L2193.25 170.043 L2182.77 144.533 L2187.28 144.533 L2195.38 164.811 L2203.48 144.533 L2208 144.533 L2196.61 172.867 Z" fill="#000000" fill-rule="evenodd" fill-opacity="1" /><path clip-path="url(#clip410)" d="M 0 0 M2213.88 166.524 L2221.52 166.524 L2221.52 140.158 L2213.21 141.825 L2213.21 137.566 L2221.47 135.899 L2226.14 135.899 L2226.14 166.524 L2233.78 166.524 L2233.78 170.459 L2213.88 170.459 L2213.88 166.524 Z" fill="#000000" fill-rule="evenodd" fill-opacity="1" /></svg>
